<?xml version="1.0" encoding="UTF-8" standalone="no"?>
<!DOCTYPE svg PUBLIC "-//W3C//DTD SVG 1.1//EN"
 "http://www.w3.org/Graphics/SVG/1.1/DTD/svg11.dtd">
<!-- Generated by graphviz version 2.40.1 (0)
 -->
<!-- Title: math/minuit2/inc/Minuit2/AnalyticalGradientCalculator.h Pages: 1 -->
<svg width="766pt" height="106pt"
 viewBox="0.00 0.00 766.00 106.00" xmlns="http://www.w3.org/2000/svg" xmlns:xlink="http://www.w3.org/1999/xlink">
<g id="graph0" class="graph" transform="scale(1 1) rotate(0) translate(4 102)">
<title>math/minuit2/inc/Minuit2/AnalyticalGradientCalculator.h</title>
<polygon fill="#ffffff" stroke="transparent" points="-4,4 -4,-102 762,-102 762,4 -4,4"/>
<!-- Node2 -->
<g id="node1" class="node">
<title>Node2</title>
<polygon fill="#bfbfbf" stroke="#000000" points="297,-67.5 297,-97.5 465,-97.5 465,-67.5 297,-67.5"/>
<text text-anchor="start" x="305" y="-85.5" font-family="Helvetica,sans-Serif" font-size="10.00" fill="#000000">math/minuit2/inc/Minuit2</text>
<text text-anchor="middle" x="381" y="-74.5" font-family="Helvetica,sans-Serif" font-size="10.00" fill="#000000">/AnalyticalGradientCalculator.h</text>
</g>
<!-- Node3 -->
<g id="node2" class="node">
<title>Node3</title>
<g id="a_node2"><a xlink:href="AnalyticalGradientCalculator_8cxx.html" target="_top" xlink:title="math/minuit2/src/Analytical\lGradientCalculator.cxx">
<polygon fill="#ffffff" stroke="#000000" points="0,-.5 0,-30.5 152,-30.5 152,-.5 0,-.5"/>
<text text-anchor="start" x="8" y="-18.5" font-family="Helvetica,sans-Serif" font-size="10.00" fill="#000000">math/minuit2/src/Analytical</text>
<text text-anchor="middle" x="76" y="-7.5" font-family="Helvetica,sans-Serif" font-size="10.00" fill="#000000">GradientCalculator.cxx</text>
</a>
</g>
</g>
<!-- Node2&#45;&gt;Node3 -->
<g id="edge1" class="edge">
<title>Node2&#45;&gt;Node3</title>
<path fill="none" stroke="#191970" d="M302.6461,-65.2878C253.7454,-54.5457 191.4018,-40.8506 144.4828,-30.5438"/>
<polygon fill="#191970" stroke="#191970" points="302.034,-68.7367 312.552,-67.4639 303.5359,-61.8998 302.034,-68.7367"/>
</g>
<!-- Node4 -->
<g id="node3" class="node">
<title>Node4</title>
<g id="a_node3"><a xlink:href="FumiliMinimizer_8cxx.html" target="_top" xlink:title="math/minuit2/src/FumiliMinimizer.cxx">
<polygon fill="#ffffff" stroke="#000000" points="170,-6 170,-25 370,-25 370,-6 170,-6"/>
<text text-anchor="middle" x="270" y="-13" font-family="Helvetica,sans-Serif" font-size="10.00" fill="#000000">math/minuit2/src/FumiliMinimizer.cxx</text>
</a>
</g>
</g>
<!-- Node2&#45;&gt;Node4 -->
<g id="edge2" class="edge">
<title>Node2&#45;&gt;Node4</title>
<path fill="none" stroke="#191970" d="M347.3857,-62.2103C326.9843,-49.8959 301.8847,-34.7457 285.911,-25.1039"/>
<polygon fill="#191970" stroke="#191970" points="345.7194,-65.2927 356.0894,-67.4639 349.3368,-59.2998 345.7194,-65.2927"/>
</g>
<!-- Node5 -->
<g id="node4" class="node">
<title>Node5</title>
<g id="a_node4"><a xlink:href="MnSeedGenerator_8cxx.html" target="_top" xlink:title="math/minuit2/src/MnSeedGenerator.cxx">
<polygon fill="#ffffff" stroke="#000000" points="388.5,-6 388.5,-25 597.5,-25 597.5,-6 388.5,-6"/>
<text text-anchor="middle" x="493" y="-13" font-family="Helvetica,sans-Serif" font-size="10.00" fill="#000000">math/minuit2/src/MnSeedGenerator.cxx</text>
</a>
</g>
</g>
<!-- Node2&#45;&gt;Node5 -->
<g id="edge3" class="edge">
<title>Node2&#45;&gt;Node5</title>
<path fill="none" stroke="#191970" d="M414.9171,-62.2103C435.5024,-49.8959 460.828,-34.7457 476.9457,-25.1039"/>
<polygon fill="#191970" stroke="#191970" points="412.9199,-59.3266 406.135,-67.4639 416.5135,-65.3338 412.9199,-59.3266"/>
</g>
<!-- Node6 -->
<g id="node5" class="node">
<title>Node6</title>
<g id="a_node5"><a xlink:href="ModularFunctionMinimizer_8cxx.html" target="_top" xlink:title="math/minuit2/src/Modular\lFunctionMinimizer.cxx">
<polygon fill="#ffffff" stroke="#000000" points="616,-.5 616,-30.5 758,-30.5 758,-.5 616,-.5"/>
<text text-anchor="start" x="624" y="-18.5" font-family="Helvetica,sans-Serif" font-size="10.00" fill="#000000">math/minuit2/src/Modular</text>
<text text-anchor="middle" x="687" y="-7.5" font-family="Helvetica,sans-Serif" font-size="10.00" fill="#000000">FunctionMinimizer.cxx</text>
</a>
</g>
</g>
<!-- Node2&#45;&gt;Node6 -->
<g id="edge4" class="edge">
<title>Node2&#45;&gt;Node6</title>
<path fill="none" stroke="#191970" d="M459.6108,-65.2878C508.6718,-54.5457 571.2198,-40.8506 618.2926,-30.5438"/>
<polygon fill="#191970" stroke="#191970" points="458.6923,-61.9059 449.6724,-67.4639 460.1896,-68.7439 458.6923,-61.9059"/>
</g>
</g>
</svg>
