<?xml version="1.0" encoding="UTF-8" standalone="no"?>
<!DOCTYPE svg PUBLIC "-//W3C//DTD SVG 1.1//EN"
 "http://www.w3.org/Graphics/SVG/1.1/DTD/svg11.dtd">
<!-- Generated by graphviz version 2.40.1 (0)
 -->
<!-- Title: tmva/tmvagui/inc/TMVA/BDT.h Pages: 1 -->
<svg width="304pt" height="173pt"
 viewBox="0.00 0.00 304.00 173.00" xmlns="http://www.w3.org/2000/svg" xmlns:xlink="http://www.w3.org/1999/xlink">
<g id="graph0" class="graph" transform="scale(1 1) rotate(0) translate(4 169)">
<title>tmva/tmvagui/inc/TMVA/BDT.h</title>
<polygon fill="#ffffff" stroke="transparent" points="-4,4 -4,-169 300,-169 300,4 -4,4"/>
<!-- Node205 -->
<g id="node1" class="node">
<title>Node205</title>
<polygon fill="#bfbfbf" stroke="#000000" points="78,-134.5 78,-164.5 211,-164.5 211,-134.5 78,-134.5"/>
<text text-anchor="start" x="86" y="-152.5" font-family="Helvetica,sans-Serif" font-size="10.00" fill="#000000">tmva/tmvagui/inc/TMVA</text>
<text text-anchor="middle" x="144.5" y="-141.5" font-family="Helvetica,sans-Serif" font-size="10.00" fill="#000000">/BDT.h</text>
</g>
<!-- Node206 -->
<g id="node2" class="node">
<title>Node206</title>
<g id="a_node2"><a xlink:href="BDT__Reg_8h.html" target="_top" xlink:title="tmva/tmvagui/inc/TMVA\l/BDT_Reg.h">
<polygon fill="#ffffff" stroke="#000000" points="0,-67.5 0,-97.5 133,-97.5 133,-67.5 0,-67.5"/>
<text text-anchor="start" x="8" y="-85.5" font-family="Helvetica,sans-Serif" font-size="10.00" fill="#000000">tmva/tmvagui/inc/TMVA</text>
<text text-anchor="middle" x="66.5" y="-74.5" font-family="Helvetica,sans-Serif" font-size="10.00" fill="#000000">/BDT_Reg.h</text>
</a>
</g>
</g>
<!-- Node205&#45;&gt;Node206 -->
<g id="edge1" class="edge">
<title>Node205&#45;&gt;Node206</title>
<path fill="none" stroke="#191970" d="M118.884,-127.4965C107.5016,-117.7193 94.3884,-106.4554 84.1294,-97.6432"/>
<polygon fill="#191970" stroke="#191970" points="116.9343,-130.4357 126.8006,-134.2967 121.4955,-125.1257 116.9343,-130.4357"/>
</g>
<!-- Node208 -->
<g id="node4" class="node">
<title>Node208</title>
<g id="a_node4"><a xlink:href="BDT_8cxx.html" target="_top" xlink:title="tmva/tmvagui/src/BDT.cxx">
<polygon fill="#ffffff" stroke="#000000" points="151,-73 151,-92 296,-92 296,-73 151,-73"/>
<text text-anchor="middle" x="223.5" y="-80" font-family="Helvetica,sans-Serif" font-size="10.00" fill="#000000">tmva/tmvagui/src/BDT.cxx</text>
</a>
</g>
</g>
<!-- Node205&#45;&gt;Node208 -->
<g id="edge3" class="edge">
<title>Node205&#45;&gt;Node208</title>
<path fill="none" stroke="#191970" d="M170.3924,-127.5406C184.5547,-115.5296 201.3756,-101.2637 212.2337,-92.055"/>
<polygon fill="#191970" stroke="#191970" points="167.789,-125.1593 162.4263,-134.2967 172.3167,-130.4979 167.789,-125.1593"/>
</g>
<!-- Node207 -->
<g id="node3" class="node">
<title>Node207</title>
<g id="a_node3"><a xlink:href="BDT__Reg_8cxx.html" target="_top" xlink:title="tmva/tmvagui/src/BDT\l_Reg.cxx">
<polygon fill="#ffffff" stroke="#000000" points="3.5,-.5 3.5,-30.5 129.5,-30.5 129.5,-.5 3.5,-.5"/>
<text text-anchor="start" x="11.5" y="-18.5" font-family="Helvetica,sans-Serif" font-size="10.00" fill="#000000">tmva/tmvagui/src/BDT</text>
<text text-anchor="middle" x="66.5" y="-7.5" font-family="Helvetica,sans-Serif" font-size="10.00" fill="#000000">_Reg.cxx</text>
</a>
</g>
</g>
<!-- Node206&#45;&gt;Node207 -->
<g id="edge2" class="edge">
<title>Node206&#45;&gt;Node207</title>
<path fill="none" stroke="#191970" d="M66.5,-57.0249C66.5,-48.128 66.5,-38.4287 66.5,-30.6432"/>
<polygon fill="#191970" stroke="#191970" points="63.0001,-57.2966 66.5,-67.2967 70.0001,-57.2967 63.0001,-57.2966"/>
</g>
</g>
</svg>
