<?xml version="1.0" encoding="UTF-8" standalone="no"?>
<!DOCTYPE svg PUBLIC "-//W3C//DTD SVG 1.1//EN"
 "http://www.w3.org/Graphics/SVG/1.1/DTD/svg11.dtd">
<!-- Generated by graphviz version 2.40.1 (0)
 -->
<!-- Title: math/smatrix/inc/Math/BinaryOperators.h Pages: 1 -->
<svg width="464pt" height="218pt"
 viewBox="0.00 0.00 464.00 218.00" xmlns="http://www.w3.org/2000/svg" xmlns:xlink="http://www.w3.org/1999/xlink">
<g id="graph0" class="graph" transform="scale(1 1) rotate(0) translate(4 214)">
<title>math/smatrix/inc/Math/BinaryOperators.h</title>
<polygon fill="#ffffff" stroke="transparent" points="-4,4 -4,-214 460,-214 460,4 -4,4"/>
<!-- Node0 -->
<g id="node1" class="node">
<title>Node0</title>
<polygon fill="#bfbfbf" stroke="#000000" points="225.5,-179.5 225.5,-209.5 352.5,-209.5 352.5,-179.5 225.5,-179.5"/>
<text text-anchor="start" x="233.5" y="-197.5" font-family="Helvetica,sans-Serif" font-size="10.00" fill="#000000">math/smatrix/inc/Math</text>
<text text-anchor="middle" x="289" y="-186.5" font-family="Helvetica,sans-Serif" font-size="10.00" fill="#000000">/BinaryOperators.h</text>
</g>
<!-- Node1 -->
<g id="node2" class="node">
<title>Node1</title>
<g id="a_node2"><a xlink:href="BinaryOpPolicy_8h.html" target="_top" xlink:title="Math/BinaryOpPolicy.h">
<polygon fill="#ffffff" stroke="#000000" points="159.5,-123.5 159.5,-142.5 284.5,-142.5 284.5,-123.5 159.5,-123.5"/>
<text text-anchor="middle" x="222" y="-130.5" font-family="Helvetica,sans-Serif" font-size="10.00" fill="#000000">Math/BinaryOpPolicy.h</text>
</a>
</g>
</g>
<!-- Node0&#45;&gt;Node1 -->
<g id="edge1" class="edge">
<title>Node0&#45;&gt;Node1</title>
<path fill="none" stroke="#191970" d="M272.4382,-179.2977C262.6535,-170.3163 250.2526,-158.9334 240.1957,-149.702"/>
<polygon fill="#191970" stroke="#191970" points="242.4613,-147.0307 232.7275,-142.8469 237.7278,-152.1876 242.4613,-147.0307"/>
</g>
<!-- Node8 -->
<g id="node9" class="node">
<title>Node8</title>
<g id="a_node9"><a xlink:href="Expression_8h.html" target="_top" xlink:title="Math/Expression.h">
<polygon fill="#ffffff" stroke="#000000" points="303,-123.5 303,-142.5 409,-142.5 409,-123.5 303,-123.5"/>
<text text-anchor="middle" x="356" y="-130.5" font-family="Helvetica,sans-Serif" font-size="10.00" fill="#000000">Math/Expression.h</text>
</a>
</g>
</g>
<!-- Node0&#45;&gt;Node8 -->
<g id="edge8" class="edge">
<title>Node0&#45;&gt;Node8</title>
<path fill="none" stroke="#191970" d="M305.5618,-179.2977C315.3465,-170.3163 327.7474,-158.9334 337.8043,-149.702"/>
<polygon fill="#191970" stroke="#191970" points="340.2722,-152.1876 345.2725,-142.8469 335.5387,-147.0307 340.2722,-152.1876"/>
</g>
<!-- Node2 -->
<g id="node3" class="node">
<title>Node2</title>
<g id="a_node3"><a xlink:href="MatrixRepresentationsStatic_8h.html" target="_top" xlink:title="Math/MatrixRepresentations\lStatic.h">
<polygon fill="#ffffff" stroke="#000000" points="145.5,-56.5 145.5,-86.5 298.5,-86.5 298.5,-56.5 145.5,-56.5"/>
<text text-anchor="start" x="153.5" y="-74.5" font-family="Helvetica,sans-Serif" font-size="10.00" fill="#000000">Math/MatrixRepresentations</text>
<text text-anchor="middle" x="222" y="-63.5" font-family="Helvetica,sans-Serif" font-size="10.00" fill="#000000">Static.h</text>
</a>
</g>
</g>
<!-- Node1&#45;&gt;Node2 -->
<g id="edge2" class="edge">
<title>Node1&#45;&gt;Node2</title>
<path fill="none" stroke="#191970" d="M222,-123.3906C222,-116.2234 222,-106.0862 222,-96.671"/>
<polygon fill="#191970" stroke="#191970" points="225.5001,-96.5446 222,-86.5446 218.5001,-96.5446 225.5001,-96.5446"/>
</g>
<!-- Node3 -->
<g id="node4" class="node">
<title>Node3</title>
<g id="a_node4"><a xlink:href="StaticCheck_8h.html" target="_top" xlink:title="Math/StaticCheck.h">
<polygon fill="#ffffff" stroke="#000000" points="0,-.5 0,-19.5 110,-19.5 110,-.5 0,-.5"/>
<text text-anchor="middle" x="55" y="-7.5" font-family="Helvetica,sans-Serif" font-size="10.00" fill="#000000">Math/StaticCheck.h</text>
</a>
</g>
</g>
<!-- Node2&#45;&gt;Node3 -->
<g id="edge3" class="edge">
<title>Node2&#45;&gt;Node3</title>
<path fill="none" stroke="#191970" d="M181.1472,-56.4554C153.405,-46.239 117.0775,-32.8609 90.5345,-23.0861"/>
<polygon fill="#191970" stroke="#191970" points="91.4725,-19.7018 80.8791,-19.5303 89.0535,-26.2705 91.4725,-19.7018"/>
</g>
<!-- Node4 -->
<g id="node5" class="node">
<title>Node4</title>
<polygon fill="#ffffff" stroke="#bfbfbf" points="128.5,-.5 128.5,-19.5 181.5,-19.5 181.5,-.5 128.5,-.5"/>
<text text-anchor="middle" x="155" y="-7.5" font-family="Helvetica,sans-Serif" font-size="10.00" fill="#000000">cstddef</text>
</g>
<!-- Node2&#45;&gt;Node4 -->
<g id="edge4" class="edge">
<title>Node2&#45;&gt;Node4</title>
<path fill="none" stroke="#191970" d="M205.4382,-56.2977C195.6535,-47.3163 183.2526,-35.9334 173.1957,-26.702"/>
<polygon fill="#191970" stroke="#191970" points="175.4613,-24.0307 165.7275,-19.8469 170.7278,-29.1876 175.4613,-24.0307"/>
</g>
<!-- Node5 -->
<g id="node6" class="node">
<title>Node5</title>
<polygon fill="#ffffff" stroke="#bfbfbf" points="199.5,-.5 199.5,-19.5 244.5,-19.5 244.5,-.5 199.5,-.5"/>
<text text-anchor="middle" x="222" y="-7.5" font-family="Helvetica,sans-Serif" font-size="10.00" fill="#000000">utility</text>
</g>
<!-- Node2&#45;&gt;Node5 -->
<g id="edge5" class="edge">
<title>Node2&#45;&gt;Node5</title>
<path fill="none" stroke="#191970" d="M222,-56.2977C222,-48.3834 222,-38.6043 222,-30.0759"/>
<polygon fill="#191970" stroke="#191970" points="225.5001,-29.8469 222,-19.8469 218.5001,-29.847 225.5001,-29.8469"/>
</g>
<!-- Node6 -->
<g id="node7" class="node">
<title>Node6</title>
<polygon fill="#ffffff" stroke="#bfbfbf" points="262.5,-.5 262.5,-19.5 331.5,-19.5 331.5,-.5 262.5,-.5"/>
<text text-anchor="middle" x="297" y="-7.5" font-family="Helvetica,sans-Serif" font-size="10.00" fill="#000000">type_traits</text>
</g>
<!-- Node2&#45;&gt;Node6 -->
<g id="edge6" class="edge">
<title>Node2&#45;&gt;Node6</title>
<path fill="none" stroke="#191970" d="M240.5393,-56.2977C251.6008,-47.2274 265.6491,-35.7077 276.9653,-26.4285"/>
<polygon fill="#191970" stroke="#191970" points="279.4781,-28.8942 284.9916,-19.8469 275.0396,-23.4813 279.4781,-28.8942"/>
</g>
<!-- Node7 -->
<g id="node8" class="node">
<title>Node7</title>
<polygon fill="#ffffff" stroke="#bfbfbf" points="350,-.5 350,-19.5 392,-19.5 392,-.5 350,-.5"/>
<text text-anchor="middle" x="371" y="-7.5" font-family="Helvetica,sans-Serif" font-size="10.00" fill="#000000">array</text>
</g>
<!-- Node2&#45;&gt;Node7 -->
<g id="edge7" class="edge">
<title>Node2&#45;&gt;Node7</title>
<path fill="none" stroke="#191970" d="M258.4495,-56.4554C283.5892,-46.079 316.6307,-32.441 340.4019,-22.6294"/>
<polygon fill="#191970" stroke="#191970" points="341.7462,-25.861 349.6544,-18.8104 339.0755,-19.3905 341.7462,-25.861"/>
</g>
<!-- Node9 -->
<g id="node10" class="node">
<title>Node9</title>
<polygon fill="#ffffff" stroke="#bfbfbf" points="322,-62 322,-81 378,-81 378,-62 322,-62"/>
<text text-anchor="middle" x="350" y="-69" font-family="Helvetica,sans-Serif" font-size="10.00" fill="#000000">iomanip</text>
</g>
<!-- Node8&#45;&gt;Node9 -->
<g id="edge9" class="edge">
<title>Node8&#45;&gt;Node9</title>
<path fill="none" stroke="#191970" d="M355.0625,-123.3906C354.2308,-114.8657 352.9892,-102.1392 351.9438,-91.4235"/>
<polygon fill="#191970" stroke="#191970" points="355.4053,-90.8577 350.9507,-81.2449 348.4383,-91.5375 355.4053,-90.8577"/>
</g>
<!-- Node10 -->
<g id="node11" class="node">
<title>Node10</title>
<polygon fill="#ffffff" stroke="#bfbfbf" points="396,-62 396,-81 456,-81 456,-62 396,-62"/>
<text text-anchor="middle" x="426" y="-69" font-family="Helvetica,sans-Serif" font-size="10.00" fill="#000000">iostream</text>
</g>
<!-- Node8&#45;&gt;Node10 -->
<g id="edge10" class="edge">
<title>Node8&#45;&gt;Node10</title>
<path fill="none" stroke="#191970" d="M366.9375,-123.3906C377.662,-113.9683 394.2287,-99.4134 407.0901,-88.1137"/>
<polygon fill="#191970" stroke="#191970" points="409.7059,-90.4745 414.9083,-81.2449 405.0857,-85.2158 409.7059,-90.4745"/>
</g>
</g>
</svg>
