<?xml version="1.0" encoding="UTF-8" standalone="no"?>
<!DOCTYPE svg PUBLIC "-//W3C//DTD SVG 1.1//EN"
 "http://www.w3.org/Graphics/SVG/1.1/DTD/svg11.dtd">
<!-- Generated by graphviz version 2.40.1 (0)
 -->
<!-- Title: net/http/civetweb/civetweb.c Pages: 1 -->
<!--zoomable 140 -->
<svg id="main" version="1.1" xmlns="http://www.w3.org/2000/svg" xmlns:xlink="http://www.w3.org/1999/xlink" xml:space="preserve" onload="init(evt)">
<style type="text/css"><![CDATA[
.edge:hover path { stroke: red; }
.edge:hover polygon { stroke: red; fill: red; }
]]></style>
<script type="text/javascript"><![CDATA[
var edges = document.getElementsByTagName('g');
if (edges && edges.length) {
  for (var i=0;i<edges.length;i++) {
    if (edges[i].id.substr(0,4)=='edge') {
      edges[i].setAttribute('class','edge');
    }
  }
}
]]></script>
        <defs>
                <circle id="rim" cx="0" cy="0" r="7"/>
                <circle id="rim2" cx="0" cy="0" r="3.5"/>
                <g id="zoomPlus">
                        <use xlink:href="#rim" fill="#404040">
                                <set attributeName="fill" to="#808080" begin="zoomplus.mouseover" end="zoomplus.mouseout"/>
                        </use>
                        <path d="M-4,0h8M0,-4v8" fill="none" stroke="white" stroke-width="1.5" pointer-events="none"/>
                </g>
                <g id="zoomMin">
                        <use xlink:href="#rim" fill="#404040">
                                <set attributeName="fill" to="#808080" begin="zoomminus.mouseover" end="zoomminus.mouseout"/>
                        </use>
                        <path d="M-4,0h8" fill="none" stroke="white" stroke-width="1.5" pointer-events="none"/>
                </g>
                <g id="dirArrow">
                        <path fill="none" stroke="white" stroke-width="1.5" d="M0,-3.0v7 M-2.5,-0.5L0,-3.0L2.5,-0.5"/>
                </g>
               <g id="resetDef">
                       <use xlink:href="#rim2" fill="#404040">
                               <set attributeName="fill" to="#808080" begin="reset.mouseover" end="reset.mouseout"/>
                       </use>
               </g>
        </defs>

<script type="text/javascript">
var viewWidth = 2485;
var viewHeight = 140;
var sectionId = 'dynsection-0';
</script>
<script xlink:href="svgpan.js"/>
<svg id="graph" class="graph">
<g id="viewport">
<title>net/http/civetweb/civetweb.c</title>
<polygon fill="#ffffff" stroke="transparent" points="-4,4 -4,-136 2480.5,-136 2480.5,4 -4,4"/>
<!-- Node0 -->
<g id="node1" class="node">
<title>Node0</title>
<polygon fill="#bfbfbf" stroke="#000000" points="1053,-112.5 1053,-131.5 1211,-131.5 1211,-112.5 1053,-112.5"/>
<text text-anchor="middle" x="1132" y="-119.5" font-family="Helvetica,sans-Serif" font-size="10.00" fill="#000000">net/http/civetweb/civetweb.c</text>
</g>
<!-- Node1 -->
<g id="node2" class="node">
<title>Node1</title>
<g id="a_node2"><a xlink:href="civetweb_8h.html" target="_top" xlink:title="civetweb.h">
<polygon fill="#ffffff" stroke="#000000" points="42,-56.5 42,-75.5 112,-75.5 112,-56.5 42,-56.5"/>
<text text-anchor="middle" x="77" y="-63.5" font-family="Helvetica,sans-Serif" font-size="10.00" fill="#000000">civetweb.h</text>
</a>
</g>
</g>
<!-- Node0&#45;&gt;Node1 -->
<g id="edge1" class="edge">
<title>Node0&#45;&gt;Node1</title>
<path fill="none" stroke="#191970" d="M1052.6876,-119.97C847.8737,-114.4715 304.8171,-98.1979 126,-76 124.7399,-75.8436 123.4638,-75.6724 122.1778,-75.4886"/>
<polygon fill="#191970" stroke="#191970" points="122.6529,-72.02 112.2208,-73.8703 121.5298,-78.9293 122.6529,-72.02"/>
</g>
<!-- Node2 -->
<g id="node3" class="node">
<title>Node2</title>
<polygon fill="#ffffff" stroke="#bfbfbf" points="0,-.5 0,-19.5 56,-19.5 56,-.5 0,-.5"/>
<text text-anchor="middle" x="28" y="-7.5" font-family="Helvetica,sans-Serif" font-size="10.00" fill="#000000">stddef.h</text>
</g>
<!-- Node0&#45;&gt;Node2 -->
<g id="edge12" class="edge">
<title>Node0&#45;&gt;Node2</title>
<path fill="none" stroke="#191970" d="M1052.9237,-121.5369C806.9561,-119.7266 69.5761,-111.3609 33,-76 21.0182,-64.4162 21.0076,-44.7745 23.2499,-29.9229"/>
<polygon fill="#191970" stroke="#191970" points="26.7623,-30.1975 25.2427,-19.7122 19.8919,-28.8565 26.7623,-30.1975"/>
</g>
<!-- Node3 -->
<g id="node4" class="node">
<title>Node3</title>
<polygon fill="#ffffff" stroke="#bfbfbf" points="88,-.5 88,-19.5 138,-19.5 138,-.5 88,-.5"/>
<text text-anchor="middle" x="113" y="-7.5" font-family="Helvetica,sans-Serif" font-size="10.00" fill="#000000">stdio.h</text>
</g>
<!-- Node0&#45;&gt;Node3 -->
<g id="edge14" class="edge">
<title>Node0&#45;&gt;Node3</title>
<path fill="none" stroke="#191970" d="M1052.8064,-120.1572C827.7085,-114.6678 197.8577,-97.4645 159,-76 140.547,-65.8068 127.8629,-44.69 120.5598,-29.0741"/>
<polygon fill="#191970" stroke="#191970" points="123.7185,-27.5607 116.5311,-19.7767 117.2956,-30.3439 123.7185,-27.5607"/>
</g>
<!-- Node4 -->
<g id="node5" class="node">
<title>Node4</title>
<polygon fill="#ffffff" stroke="#bfbfbf" points="168.5,-56.5 168.5,-75.5 219.5,-75.5 219.5,-56.5 168.5,-56.5"/>
<text text-anchor="middle" x="194" y="-63.5" font-family="Helvetica,sans-Serif" font-size="10.00" fill="#000000">errno.h</text>
</g>
<!-- Node0&#45;&gt;Node4 -->
<g id="edge4" class="edge">
<title>Node0&#45;&gt;Node4</title>
<path fill="none" stroke="#191970" d="M1052.7244,-120.356C866.4295,-116.1144 403.9749,-103.2884 229.8965,-75.9336"/>
<polygon fill="#191970" stroke="#191970" points="230.2763,-72.4492 219.8411,-74.2815 229.1414,-79.3566 230.2763,-72.4492"/>
</g>
<!-- Node5 -->
<g id="node6" class="node">
<title>Node5</title>
<polygon fill="#ffffff" stroke="#bfbfbf" points="237.5,-56.5 237.5,-75.5 284.5,-75.5 284.5,-56.5 237.5,-56.5"/>
<text text-anchor="middle" x="261" y="-63.5" font-family="Helvetica,sans-Serif" font-size="10.00" fill="#000000">fcntl.h</text>
</g>
<!-- Node0&#45;&gt;Node5 -->
<g id="edge5" class="edge">
<title>Node0&#45;&gt;Node5</title>
<path fill="none" stroke="#191970" d="M1052.7745,-120.1622C876.6184,-115.6783 455.9499,-102.6697 294.8337,-75.8777"/>
<polygon fill="#191970" stroke="#191970" points="295.0547,-72.3634 284.602,-74.0929 293.8518,-79.2593 295.0547,-72.3634"/>
</g>
<!-- Node6 -->
<g id="node7" class="node">
<title>Node6</title>
<polygon fill="#ffffff" stroke="#bfbfbf" points="302.5,-56.5 302.5,-75.5 357.5,-75.5 357.5,-56.5 302.5,-56.5"/>
<text text-anchor="middle" x="330" y="-63.5" font-family="Helvetica,sans-Serif" font-size="10.00" fill="#000000">signal.h</text>
</g>
<!-- Node0&#45;&gt;Node6 -->
<g id="edge6" class="edge">
<title>Node0&#45;&gt;Node6</title>
<path fill="none" stroke="#191970" d="M1052.963,-119.2928C888.9339,-113.348 515.2984,-98.0282 367.9586,-75.7656"/>
<polygon fill="#191970" stroke="#191970" points="368.1712,-72.2558 357.7472,-74.1507 367.0777,-79.1698 368.1712,-72.2558"/>
</g>
<!-- Node7 -->
<g id="node8" class="node">
<title>Node7</title>
<polygon fill="#ffffff" stroke="#bfbfbf" points="376,-56.5 376,-75.5 440,-75.5 440,-56.5 376,-56.5"/>
<text text-anchor="middle" x="408" y="-63.5" font-family="Helvetica,sans-Serif" font-size="10.00" fill="#000000">sys/stat.h</text>
</g>
<!-- Node0&#45;&gt;Node7 -->
<g id="edge7" class="edge">
<title>Node0&#45;&gt;Node7</title>
<path fill="none" stroke="#191970" d="M1052.7595,-118.3798C902.634,-111.2451 580.8503,-94.5636 450.3023,-75.9083"/>
<polygon fill="#191970" stroke="#191970" points="450.5313,-72.4038 440.124,-74.3885 449.4975,-79.327 450.5313,-72.4038"/>
</g>
<!-- Node8 -->
<g id="node9" class="node">
<title>Node8</title>
<polygon fill="#ffffff" stroke="#bfbfbf" points="458,-56.5 458,-75.5 530,-75.5 530,-56.5 458,-56.5"/>
<text text-anchor="middle" x="494" y="-63.5" font-family="Helvetica,sans-Serif" font-size="10.00" fill="#000000">sys/types.h</text>
</g>
<!-- Node0&#45;&gt;Node8 -->
<g id="edge8" class="edge">
<title>Node0&#45;&gt;Node8</title>
<path fill="none" stroke="#191970" d="M1052.9452,-119.4183C940.9011,-114.9702 729.4147,-103.6704 540.3912,-76.0207"/>
<polygon fill="#191970" stroke="#191970" points="540.6721,-72.5242 530.2671,-74.5208 539.6462,-79.4486 540.6721,-72.5242"/>
</g>
<!-- Node9 -->
<g id="node10" class="node">
<title>Node9</title>
<polygon fill="#ffffff" stroke="#bfbfbf" points="548.5,-56.5 548.5,-75.5 601.5,-75.5 601.5,-56.5 548.5,-56.5"/>
<text text-anchor="middle" x="575" y="-63.5" font-family="Helvetica,sans-Serif" font-size="10.00" fill="#000000">ctype.h</text>
</g>
<!-- Node0&#45;&gt;Node9 -->
<g id="edge9" class="edge">
<title>Node0&#45;&gt;Node9</title>
<path fill="none" stroke="#191970" d="M1052.661,-119.7014C951.9111,-115.7355 772.7422,-105.1843 611.7179,-76.0295"/>
<polygon fill="#191970" stroke="#191970" points="612.0967,-72.5406 601.6285,-74.1737 610.8303,-79.4251 612.0967,-72.5406"/>
</g>
<!-- Node10 -->
<g id="node11" class="node">
<title>Node10</title>
<polygon fill="#ffffff" stroke="#bfbfbf" points="619.5,-56.5 619.5,-75.5 672.5,-75.5 672.5,-56.5 619.5,-56.5"/>
<text text-anchor="middle" x="646" y="-63.5" font-family="Helvetica,sans-Serif" font-size="10.00" fill="#000000">limits.h</text>
</g>
<!-- Node0&#45;&gt;Node10 -->
<g id="edge10" class="edge">
<title>Node0&#45;&gt;Node10</title>
<path fill="none" stroke="#191970" d="M1052.9741,-117.9747C964.8575,-112.5742 818.0673,-100.8597 682.7542,-75.838"/>
<polygon fill="#191970" stroke="#191970" points="683.0924,-72.3404 672.6182,-73.9343 681.8003,-79.2201 683.0924,-72.3404"/>
</g>
<!-- Node11 -->
<g id="node12" class="node">
<title>Node11</title>
<polygon fill="#ffffff" stroke="#bfbfbf" points="691,-56.5 691,-75.5 747,-75.5 747,-56.5 691,-56.5"/>
<text text-anchor="middle" x="719" y="-63.5" font-family="Helvetica,sans-Serif" font-size="10.00" fill="#000000">stdarg.h</text>
</g>
<!-- Node0&#45;&gt;Node11 -->
<g id="edge11" class="edge">
<title>Node0&#45;&gt;Node11</title>
<path fill="none" stroke="#191970" d="M1052.9916,-115.6272C978.8649,-108.8981 864.8185,-96.6234 757.2398,-76.0154"/>
<polygon fill="#191970" stroke="#191970" points="757.6689,-72.5333 747.1848,-74.0609 756.3332,-79.4047 757.6689,-72.5333"/>
</g>
<!-- Node12 -->
<g id="node13" class="node">
<title>Node12</title>
<polygon fill="#ffffff" stroke="#bfbfbf" points="765.5,-56.5 765.5,-75.5 818.5,-75.5 818.5,-56.5 765.5,-56.5"/>
<text text-anchor="middle" x="792" y="-63.5" font-family="Helvetica,sans-Serif" font-size="10.00" fill="#000000">stdint.h</text>
</g>
<!-- Node0&#45;&gt;Node12 -->
<g id="edge13" class="edge">
<title>Node0&#45;&gt;Node12</title>
<path fill="none" stroke="#191970" d="M1052.8172,-112.8958C993.3676,-105.4051 909.8383,-93.4939 828.5622,-76.1434"/>
<polygon fill="#191970" stroke="#191970" points="829.1775,-72.6956 818.6634,-74.0004 827.6964,-79.5371 829.1775,-72.6956"/>
</g>
<!-- Node13 -->
<g id="node14" class="node">
<title>Node13</title>
<polygon fill="#ffffff" stroke="#bfbfbf" points="836.5,-56.5 836.5,-75.5 889.5,-75.5 889.5,-56.5 836.5,-56.5"/>
<text text-anchor="middle" x="863" y="-63.5" font-family="Helvetica,sans-Serif" font-size="10.00" fill="#000000">stdlib.h</text>
</g>
<!-- Node0&#45;&gt;Node13 -->
<g id="edge15" class="edge">
<title>Node0&#45;&gt;Node13</title>
<path fill="none" stroke="#191970" d="M1081.6152,-112.4372C1035.3335,-103.5102 964.8962,-89.5637 904,-76 902.5697,-75.6814 901.1127,-75.3516 899.6417,-75.0142"/>
<polygon fill="#191970" stroke="#191970" points="900.4058,-71.5985 889.8702,-72.7172 898.8039,-78.4127 900.4058,-71.5985"/>
</g>
<!-- Node14 -->
<g id="node15" class="node">
<title>Node14</title>
<polygon fill="#ffffff" stroke="#bfbfbf" points="1601.5,-.5 1601.5,-19.5 1654.5,-19.5 1654.5,-.5 1601.5,-.5"/>
<text text-anchor="middle" x="1628" y="-7.5" font-family="Helvetica,sans-Serif" font-size="10.00" fill="#000000">string.h</text>
</g>
<!-- Node0&#45;&gt;Node14 -->
<g id="edge16" class="edge">
<title>Node0&#45;&gt;Node14</title>
<path fill="none" stroke="#191970" d="M1052.7812,-113.301C1005.3993,-106.2821 951.626,-94.4777 937,-76 931.4831,-69.0303 930.9269,-62.4908 937,-56 959.5414,-31.9081 1451.5688,-15.3084 1591.2978,-11.0678"/>
<polygon fill="#191970" stroke="#191970" points="1591.5964,-14.5606 1601.4867,-10.7617 1591.386,-7.5637 1591.5964,-14.5606"/>
</g>
<!-- Node15 -->
<g id="node16" class="node">
<title>Node15</title>
<polygon fill="#ffffff" stroke="#bfbfbf" points="946,-56.5 946,-75.5 994,-75.5 994,-56.5 946,-56.5"/>
<text text-anchor="middle" x="970" y="-63.5" font-family="Helvetica,sans-Serif" font-size="10.00" fill="#000000">time.h</text>
</g>
<!-- Node0&#45;&gt;Node15 -->
<g id="edge17" class="edge">
<title>Node0&#45;&gt;Node15</title>
<path fill="none" stroke="#191970" d="M1104.1512,-112.3733C1076.2731,-102.7364 1033.3557,-87.9007 1003.602,-77.6155"/>
<polygon fill="#191970" stroke="#191970" points="1004.6517,-74.2752 994.057,-74.316 1002.3647,-80.8911 1004.6517,-74.2752"/>
</g>
<!-- Node16 -->
<g id="node17" class="node">
<title>Node16</title>
<polygon fill="#ffffff" stroke="#bfbfbf" points="1012.5,-56.5 1012.5,-75.5 1081.5,-75.5 1081.5,-56.5 1012.5,-56.5"/>
<text text-anchor="middle" x="1047" y="-63.5" font-family="Helvetica,sans-Serif" font-size="10.00" fill="#000000">arpa/inet.h</text>
</g>
<!-- Node0&#45;&gt;Node16 -->
<g id="edge18" class="edge">
<title>Node0&#45;&gt;Node16</title>
<path fill="none" stroke="#191970" d="M1117.1941,-112.2455C1104.2744,-103.7337 1085.3069,-91.2375 1070.3448,-81.3801"/>
<polygon fill="#191970" stroke="#191970" points="1071.9124,-78.2216 1061.6362,-75.6427 1068.0613,-84.067 1071.9124,-78.2216"/>
</g>
<!-- Node17 -->
<g id="node18" class="node">
<title>Node17</title>
<polygon fill="#ffffff" stroke="#bfbfbf" points="1099.5,-56.5 1099.5,-75.5 1164.5,-75.5 1164.5,-56.5 1099.5,-56.5"/>
<text text-anchor="middle" x="1132" y="-63.5" font-family="Helvetica,sans-Serif" font-size="10.00" fill="#000000">inttypes.h</text>
</g>
<!-- Node0&#45;&gt;Node17 -->
<g id="edge19" class="edge">
<title>Node0&#45;&gt;Node17</title>
<path fill="none" stroke="#191970" d="M1132,-112.2455C1132,-104.9382 1132,-94.6944 1132,-85.7046"/>
<polygon fill="#191970" stroke="#191970" points="1135.5001,-85.6426 1132,-75.6427 1128.5001,-85.6427 1135.5001,-85.6426"/>
</g>
<!-- Node18 -->
<g id="node19" class="node">
<title>Node18</title>
<polygon fill="#ffffff" stroke="#bfbfbf" points="1182.5,-56.5 1182.5,-75.5 1235.5,-75.5 1235.5,-56.5 1182.5,-56.5"/>
<text text-anchor="middle" x="1209" y="-63.5" font-family="Helvetica,sans-Serif" font-size="10.00" fill="#000000">netdb.h</text>
</g>
<!-- Node0&#45;&gt;Node18 -->
<g id="edge20" class="edge">
<title>Node0&#45;&gt;Node18</title>
<path fill="none" stroke="#191970" d="M1145.4124,-112.2455C1157.0057,-103.814 1173.9748,-91.4729 1187.4678,-81.6598"/>
<polygon fill="#191970" stroke="#191970" points="1189.7126,-84.355 1195.7413,-75.6427 1185.5953,-78.6938 1189.7126,-84.355"/>
</g>
<!-- Node19 -->
<g id="node20" class="node">
<title>Node19</title>
<polygon fill="#ffffff" stroke="#bfbfbf" points="1254,-56.5 1254,-75.5 1326,-75.5 1326,-56.5 1254,-56.5"/>
<text text-anchor="middle" x="1290" y="-63.5" font-family="Helvetica,sans-Serif" font-size="10.00" fill="#000000">netinet/in.h</text>
</g>
<!-- Node0&#45;&gt;Node19 -->
<g id="edge21" class="edge">
<title>Node0&#45;&gt;Node19</title>
<path fill="none" stroke="#191970" d="M1159.1612,-112.3733C1185.2067,-103.1419 1224.7116,-89.1402 1253.4979,-78.9375"/>
<polygon fill="#191970" stroke="#191970" points="1254.937,-82.1408 1263.1933,-75.5011 1252.5985,-75.5429 1254.937,-82.1408"/>
</g>
<!-- Node20 -->
<g id="node21" class="node">
<title>Node20</title>
<polygon fill="#ffffff" stroke="#bfbfbf" points="1344,-56.5 1344,-75.5 1422,-75.5 1422,-56.5 1344,-56.5"/>
<text text-anchor="middle" x="1383" y="-63.5" font-family="Helvetica,sans-Serif" font-size="10.00" fill="#000000">netinet/tcp.h</text>
</g>
<!-- Node0&#45;&gt;Node20 -->
<g id="edge22" class="edge">
<title>Node0&#45;&gt;Node20</title>
<path fill="none" stroke="#191970" d="M1174.8632,-112.4369C1218.9538,-102.6 1287.5402,-87.2978 1333.8136,-76.9739"/>
<polygon fill="#191970" stroke="#191970" points="1334.6228,-80.3795 1343.6206,-74.7858 1333.0984,-73.5474 1334.6228,-80.3795"/>
</g>
<!-- Node21 -->
<g id="node22" class="node">
<title>Node21</title>
<polygon fill="#ffffff" stroke="#bfbfbf" points="1440.5,-56.5 1440.5,-75.5 1503.5,-75.5 1503.5,-56.5 1440.5,-56.5"/>
<text text-anchor="middle" x="1472" y="-63.5" font-family="Helvetica,sans-Serif" font-size="10.00" fill="#000000">sys/poll.h</text>
</g>
<!-- Node0&#45;&gt;Node21 -->
<g id="edge23" class="edge">
<title>Node0&#45;&gt;Node21</title>
<path fill="none" stroke="#191970" d="M1205.7299,-112.4689C1264.0669,-104.5106 1347.7804,-92.1694 1430.2295,-76.0139"/>
<polygon fill="#191970" stroke="#191970" points="1431.1464,-79.4004 1440.2762,-74.0249 1429.7868,-72.5337 1431.1464,-79.4004"/>
</g>
<!-- Node22 -->
<g id="node23" class="node">
<title>Node22</title>
<polygon fill="#ffffff" stroke="#bfbfbf" points="1521.5,-56.5 1521.5,-75.5 1598.5,-75.5 1598.5,-56.5 1521.5,-56.5"/>
<text text-anchor="middle" x="1560" y="-63.5" font-family="Helvetica,sans-Serif" font-size="10.00" fill="#000000">sys/socket.h</text>
</g>
<!-- Node0&#45;&gt;Node22 -->
<g id="edge24" class="edge">
<title>Node0&#45;&gt;Node22</title>
<path fill="none" stroke="#191970" d="M1211.2431,-114.3883C1286.05,-106.7499 1401.5486,-93.7918 1511.3548,-75.9864"/>
<polygon fill="#191970" stroke="#191970" points="1511.9773,-79.4312 1521.2802,-74.361 1510.846,-72.5232 1511.9773,-79.4312"/>
</g>
<!-- Node23 -->
<g id="node24" class="node">
<title>Node23</title>
<polygon fill="#ffffff" stroke="#bfbfbf" points="1617,-56.5 1617,-75.5 1685,-75.5 1685,-56.5 1617,-56.5"/>
<text text-anchor="middle" x="1651" y="-63.5" font-family="Helvetica,sans-Serif" font-size="10.00" fill="#000000">sys/time.h</text>
</g>
<!-- Node0&#45;&gt;Node23 -->
<g id="edge25" class="edge">
<title>Node0&#45;&gt;Node23</title>
<path fill="none" stroke="#191970" d="M1211.3973,-117.4024C1306.039,-111.21 1468.7703,-98.3087 1607,-76 1607.1015,-75.9836 1607.2031,-75.9671 1607.3049,-75.9506"/>
<polygon fill="#191970" stroke="#191970" points="1607.7667,-79.4243 1616.9736,-74.1819 1606.5071,-72.5385 1607.7667,-79.4243"/>
</g>
<!-- Node24 -->
<g id="node25" class="node">
<title>Node24</title>
<polygon fill="#ffffff" stroke="#bfbfbf" points="1703,-56.5 1703,-75.5 1791,-75.5 1791,-56.5 1703,-56.5"/>
<text text-anchor="middle" x="1747" y="-63.5" font-family="Helvetica,sans-Serif" font-size="10.00" fill="#000000">sys/utsname.h</text>
</g>
<!-- Node0&#45;&gt;Node24 -->
<g id="edge26" class="edge">
<title>Node0&#45;&gt;Node24</title>
<path fill="none" stroke="#191970" d="M1211.3927,-118.1292C1318.4781,-112.3213 1515.291,-99.5816 1692.7656,-76.043"/>
<polygon fill="#191970" stroke="#191970" points="1693.3637,-79.4942 1702.8099,-74.6964 1692.4334,-72.5563 1693.3637,-79.4942"/>
</g>
<!-- Node25 -->
<g id="node26" class="node">
<title>Node25</title>
<polygon fill="#ffffff" stroke="#bfbfbf" points="1809,-56.5 1809,-75.5 1875,-75.5 1875,-56.5 1809,-56.5"/>
<text text-anchor="middle" x="1842" y="-63.5" font-family="Helvetica,sans-Serif" font-size="10.00" fill="#000000">sys/wait.h</text>
</g>
<!-- Node0&#45;&gt;Node25 -->
<g id="edge27" class="edge">
<title>Node0&#45;&gt;Node25</title>
<path fill="none" stroke="#191970" d="M1211.1301,-120.7668C1334.7545,-117.9095 1581.2296,-108.4757 1798.6246,-75.9852"/>
<polygon fill="#191970" stroke="#191970" points="1799.2638,-79.4285 1808.6272,-74.4708 1798.2159,-72.5073 1799.2638,-79.4285"/>
</g>
<!-- Node26 -->
<g id="node27" class="node">
<title>Node26</title>
<polygon fill="#ffffff" stroke="#bfbfbf" points="1893,-56.5 1893,-75.5 1947,-75.5 1947,-56.5 1893,-56.5"/>
<text text-anchor="middle" x="1920" y="-63.5" font-family="Helvetica,sans-Serif" font-size="10.00" fill="#000000">dirent.h</text>
</g>
<!-- Node0&#45;&gt;Node26 -->
<g id="edge28" class="edge">
<title>Node0&#45;&gt;Node26</title>
<path fill="none" stroke="#191970" d="M1211.2728,-119.2586C1373.3497,-113.3168 1738.7918,-98.108 1882.6473,-75.859"/>
<polygon fill="#191970" stroke="#191970" points="1883.3041,-79.2983 1892.6161,-74.2449 1882.1852,-72.3883 1883.3041,-79.2983"/>
</g>
<!-- Node27 -->
<g id="node28" class="node">
<title>Node27</title>
<polygon fill="#ffffff" stroke="#bfbfbf" points="1965.5,-56.5 1965.5,-75.5 2006.5,-75.5 2006.5,-56.5 1965.5,-56.5"/>
<text text-anchor="middle" x="1986" y="-63.5" font-family="Helvetica,sans-Serif" font-size="10.00" fill="#000000">grp.h</text>
</g>
<!-- Node0&#45;&gt;Node27 -->
<g id="edge29" class="edge">
<title>Node0&#45;&gt;Node27</title>
<path fill="none" stroke="#191970" d="M1211.1679,-120.2597C1385.0308,-116.0123 1796.6377,-103.5212 1955.1391,-75.5803"/>
<polygon fill="#191970" stroke="#191970" points="1956.0117,-78.9784 1965.2081,-73.7175 1954.7382,-72.0952 1956.0117,-78.9784"/>
</g>
<!-- Node28 -->
<g id="node29" class="node">
<title>Node28</title>
<polygon fill="#ffffff" stroke="#bfbfbf" points="2025,-56.5 2025,-75.5 2071,-75.5 2071,-56.5 2025,-56.5"/>
<text text-anchor="middle" x="2048" y="-63.5" font-family="Helvetica,sans-Serif" font-size="10.00" fill="#000000">pwd.h</text>
</g>
<!-- Node0&#45;&gt;Node28 -->
<g id="edge30" class="edge">
<title>Node0&#45;&gt;Node28</title>
<path fill="none" stroke="#191970" d="M1211.274,-120.4188C1394.5441,-116.3606 1844.2623,-103.9905 2014.6612,-75.757"/>
<polygon fill="#191970" stroke="#191970" points="2015.4953,-79.1646 2024.7499,-74.0067 2014.2987,-72.2677 2015.4953,-79.1646"/>
</g>
<!-- Node29 -->
<g id="node30" class="node">
<title>Node29</title>
<polygon fill="#ffffff" stroke="#bfbfbf" points="2089,-56.5 2089,-75.5 2145,-75.5 2145,-56.5 2089,-56.5"/>
<text text-anchor="middle" x="2117" y="-63.5" font-family="Helvetica,sans-Serif" font-size="10.00" fill="#000000">unistd.h</text>
</g>
<!-- Node0&#45;&gt;Node29 -->
<g id="edge31" class="edge">
<title>Node0&#45;&gt;Node29</title>
<path fill="none" stroke="#191970" d="M1211.094,-120.355C1403.8312,-116.0001 1894.7953,-102.7352 2078.7534,-75.8194"/>
<polygon fill="#191970" stroke="#191970" points="2079.496,-79.2466 2088.8535,-74.2781 2078.44,-72.3267 2079.496,-79.2466"/>
</g>
<!-- Node30 -->
<g id="node31" class="node">
<title>Node30</title>
<polygon fill="#ffffff" stroke="#bfbfbf" points="2163,-56.5 2163,-75.5 2213,-75.5 2213,-56.5 2163,-56.5"/>
<text text-anchor="middle" x="2188" y="-63.5" font-family="Helvetica,sans-Serif" font-size="10.00" fill="#000000">dlfcn.h</text>
</g>
<!-- Node0&#45;&gt;Node30 -->
<g id="edge32" class="edge">
<title>Node0&#45;&gt;Node30</title>
<path fill="none" stroke="#191970" d="M1211.1903,-120.9005C1414.8559,-117.6849 1954.159,-106.6197 2152.855,-75.7421"/>
<polygon fill="#191970" stroke="#191970" points="2153.5953,-79.1679 2162.9068,-74.1135 2152.4757,-72.258 2153.5953,-79.1679"/>
</g>
<!-- Node31 -->
<g id="node32" class="node">
<title>Node31</title>
<polygon fill="#ffffff" stroke="#bfbfbf" points="2231.5,-56.5 2231.5,-75.5 2294.5,-75.5 2294.5,-56.5 2231.5,-56.5"/>
<text text-anchor="middle" x="2263" y="-63.5" font-family="Helvetica,sans-Serif" font-size="10.00" fill="#000000">pthread.h</text>
</g>
<!-- Node0&#45;&gt;Node31 -->
<g id="edge33" class="edge">
<title>Node0&#45;&gt;Node31</title>
<path fill="none" stroke="#191970" d="M1211.239,-120.6826C1424.3642,-116.8211 2007.531,-104.0776 2221.1415,-75.779"/>
<polygon fill="#191970" stroke="#191970" points="2221.9064,-79.2068 2231.3359,-74.3761 2220.9521,-72.2722 2221.9064,-79.2068"/>
</g>
<!-- Node32 -->
<g id="node33" class="node">
<title>Node32</title>
<g id="a_node33"><a xlink:href="md5_8inl.html" target="_top" xlink:title="md5.inl">
<polygon fill="#ffffff" stroke="#000000" points="2312.5,-56.5 2312.5,-75.5 2365.5,-75.5 2365.5,-56.5 2312.5,-56.5"/>
<text text-anchor="middle" x="2339" y="-63.5" font-family="Helvetica,sans-Serif" font-size="10.00" fill="#000000">md5.inl</text>
</a>
</g>
</g>
<!-- Node0&#45;&gt;Node32 -->
<g id="edge34" class="edge">
<title>Node0&#45;&gt;Node32</title>
<path fill="none" stroke="#191970" d="M1211.0676,-121.3563C1435.3623,-119.1459 2073.6827,-110.0938 2302.466,-75.8547"/>
<polygon fill="#191970" stroke="#191970" points="2303.0516,-79.3057 2312.3952,-74.3109 2301.9761,-72.3888 2303.0516,-79.3057"/>
</g>
<!-- Node33 -->
<g id="node34" class="node">
<title>Node33</title>
<g id="a_node34"><a xlink:href="handle__form_8inl.html" target="_top" xlink:title="handle_form.inl">
<polygon fill="#ffffff" stroke="#000000" points="2383.5,-56.5 2383.5,-75.5 2476.5,-75.5 2476.5,-56.5 2383.5,-56.5"/>
<text text-anchor="middle" x="2430" y="-63.5" font-family="Helvetica,sans-Serif" font-size="10.00" fill="#000000">handle_form.inl</text>
</a>
</g>
</g>
<!-- Node0&#45;&gt;Node33 -->
<g id="edge36" class="edge">
<title>Node0&#45;&gt;Node33</title>
<path fill="none" stroke="#191970" d="M1211.0395,-120.5534C1444.3018,-116.0534 2128.2372,-101.1416 2372.9866,-76.0548"/>
<polygon fill="#191970" stroke="#191970" points="2373.6825,-79.5008 2383.2585,-74.9675 2372.9456,-72.5397 2373.6825,-79.5008"/>
</g>
<!-- Node1&#45;&gt;Node2 -->
<g id="edge2" class="edge">
<title>Node1&#45;&gt;Node2</title>
<path fill="none" stroke="#191970" d="M68.4649,-56.2455C61.5088,-48.2958 51.5117,-36.8706 43.1949,-27.3656"/>
<polygon fill="#191970" stroke="#191970" points="45.6564,-24.8637 36.4373,-19.6427 40.3884,-29.4732 45.6564,-24.8637"/>
</g>
<!-- Node1&#45;&gt;Node3 -->
<g id="edge3" class="edge">
<title>Node1&#45;&gt;Node3</title>
<path fill="none" stroke="#191970" d="M83.2707,-56.2455C88.2264,-48.5367 95.283,-37.5598 101.2776,-28.2348"/>
<polygon fill="#191970" stroke="#191970" points="104.3376,-29.9471 106.8011,-19.6427 98.4494,-26.1618 104.3376,-29.9471"/>
</g>
<!-- Node32&#45;&gt;Node14 -->
<g id="edge35" class="edge">
<title>Node32&#45;&gt;Node14</title>
<path fill="none" stroke="#191970" d="M2312.3816,-57.7701C2309.5705,-57.0887 2306.739,-56.479 2304,-56 2179.4291,-34.2161 1787.253,-16.5754 1664.8606,-11.4848"/>
<polygon fill="#191970" stroke="#191970" points="1664.6667,-7.9739 1654.5308,-11.0584 1664.3779,-14.968 1664.6667,-7.9739"/>
</g>
</g>
</svg>
        <g id="navigator" transform="translate(0 0)" fill="#404254">
                <rect fill="#f2f5e9" fill-opacity="0.5" stroke="#606060" stroke-width=".5" x="0" y="0" width="60" height="60"/>
                <use id="zoomplus" xlink:href="#zoomPlus" x="17" y="9" onmousedown="handleZoom(evt,'in')"/>
                <use id="zoomminus" xlink:href="#zoomMin" x="42" y="9" onmousedown="handleZoom(evt,'out')"/>
                <use id="reset" xlink:href="#resetDef" x="30" y="36" onmousedown="handleReset()"/>
                <g id="arrowUp" xlink:href="#dirArrow" transform="translate(30 24)" onmousedown="handlePan(0,-1)">
                  <use xlink:href="#rim" fill="#404040">
                        <set attributeName="fill" to="#808080" begin="arrowUp.mouseover" end="arrowUp.mouseout"/>
                  </use>
                  <path fill="none" stroke="white" stroke-width="1.5" d="M0,-3.0v7 M-2.5,-0.5L0,-3.0L2.5,-0.5"/>
                </g>
                <g id="arrowRight" xlink:href="#dirArrow" transform="rotate(90) translate(36 -43)" onmousedown="handlePan(1,0)">
                  <use xlink:href="#rim" fill="#404040">
                        <set attributeName="fill" to="#808080" begin="arrowRight.mouseover" end="arrowRight.mouseout"/>
                  </use>
                  <path fill="none" stroke="white" stroke-width="1.5" d="M0,-3.0v7 M-2.5,-0.5L0,-3.0L2.5,-0.5"/>
                </g>
                <g id="arrowDown" xlink:href="#dirArrow" transform="rotate(180) translate(-30 -48)" onmousedown="handlePan(0,1)">
                  <use xlink:href="#rim" fill="#404040">
                        <set attributeName="fill" to="#808080" begin="arrowDown.mouseover" end="arrowDown.mouseout"/>
                  </use>
                  <path fill="none" stroke="white" stroke-width="1.5" d="M0,-3.0v7 M-2.5,-0.5L0,-3.0L2.5,-0.5"/>
                </g>
                <g id="arrowLeft" xlink:href="#dirArrow" transform="rotate(270) translate(-36 17)" onmousedown="handlePan(-1,0)">
                  <use xlink:href="#rim" fill="#404040">
                        <set attributeName="fill" to="#808080" begin="arrowLeft.mouseover" end="arrowLeft.mouseout"/>
                  </use>
                  <path fill="none" stroke="white" stroke-width="1.5" d="M0,-3.0v7 M-2.5,-0.5L0,-3.0L2.5,-0.5"/>
                </g>
        </g>
        <svg viewBox="0 0 15 15" width="100%" height="30px" preserveAspectRatio="xMaxYMin meet">
         <g id="arrow_out" transform="scale(0.3 0.3)">
          <a xlink:href="civetweb_8c__incl_org.svg" target="_base">
           <rect id="button" ry="5" rx="5" y="6" x="6" height="38" width="38"
                fill="#f2f5e9" fill-opacity="0.5" stroke="#606060" stroke-width="1.0"/>
           <path id="arrow"
             d="M 11.500037,31.436501 C 11.940474,20.09759 22.043105,11.32322 32.158766,21.979434 L 37.068811,17.246167 C 37.068811,17.246167 37.088388,32 37.088388,32 L 22.160133,31.978069 C 22.160133,31.978069 26.997745,27.140456 26.997745,27.140456 C 18.528582,18.264221 13.291696,25.230495 11.500037,31.436501 z"
             style="fill:#404040;"/>
          </a>
         </g>
        </svg>
</svg>
