<?xml version="1.0" encoding="UTF-8" standalone="no"?>
<!DOCTYPE svg PUBLIC "-//W3C//DTD SVG 1.1//EN"
 "http://www.w3.org/Graphics/SVG/1.1/DTD/svg11.dtd">
<!-- Generated by graphviz version 2.40.1 (0)
 -->
<!-- Title: TCling Pages: 1 -->
<!--zoomable 759 -->
<svg id="main" version="1.1" xmlns="http://www.w3.org/2000/svg" xmlns:xlink="http://www.w3.org/1999/xlink" xml:space="preserve" onload="init(evt)">
<style type="text/css"><![CDATA[
.edge:hover path { stroke: red; }
.edge:hover polygon { stroke: red; fill: red; }
]]></style>
<script type="text/javascript"><![CDATA[
var edges = document.getElementsByTagName('g');
if (edges && edges.length) {
  for (var i=0;i<edges.length;i++) {
    if (edges[i].id.substr(0,4)=='edge') {
      edges[i].setAttribute('class','edge');
    }
  }
}
]]></script>
        <defs>
                <circle id="rim" cx="0" cy="0" r="7"/>
                <circle id="rim2" cx="0" cy="0" r="3.5"/>
                <g id="zoomPlus">
                        <use xlink:href="#rim" fill="#404040">
                                <set attributeName="fill" to="#808080" begin="zoomplus.mouseover" end="zoomplus.mouseout"/>
                        </use>
                        <path d="M-4,0h8M0,-4v8" fill="none" stroke="white" stroke-width="1.5" pointer-events="none"/>
                </g>
                <g id="zoomMin">
                        <use xlink:href="#rim" fill="#404040">
                                <set attributeName="fill" to="#808080" begin="zoomminus.mouseover" end="zoomminus.mouseout"/>
                        </use>
                        <path d="M-4,0h8" fill="none" stroke="white" stroke-width="1.5" pointer-events="none"/>
                </g>
                <g id="dirArrow">
                        <path fill="none" stroke="white" stroke-width="1.5" d="M0,-3.0v7 M-2.5,-0.5L0,-3.0L2.5,-0.5"/>
                </g>
               <g id="resetDef">
                       <use xlink:href="#rim2" fill="#404040">
                               <set attributeName="fill" to="#808080" begin="reset.mouseover" end="reset.mouseout"/>
                       </use>
               </g>
        </defs>

<script type="text/javascript">
var viewWidth = 1870;
var viewHeight = 759;
var sectionId = 'dynsection-1';
</script>
<script xlink:href="svgpan.js"/>
<svg id="graph" class="graph">
<g id="viewport">
<title>TCling</title>
<polygon fill="#ffffff" stroke="transparent" points="-4,4 -4,-754.9705 1866,-754.9705 1866,4 -4,4"/>
<!-- Node4 -->
<g id="node1" class="node">
<title>Node4</title>
<polygon fill="#bfbfbf" stroke="#000000" points="1815,-364.4705 1815,-383.4705 1862,-383.4705 1862,-364.4705 1815,-364.4705"/>
<text text-anchor="middle" x="1838.5" y="-371.4705" font-family="Helvetica,sans-Serif" font-size="10.00" fill="#000000">TCling</text>
</g>
<!-- Node5 -->
<g id="node2" class="node">
<title>Node5</title>
<g id="a_node2"><a xlink:href="classTInterpreter.html" target="_top" xlink:title="This class defines an abstract interface to a generic command line interpreter. ">
<polygon fill="#ffffff" stroke="#000000" points="820,-494.4705 820,-513.4705 894,-513.4705 894,-494.4705 820,-494.4705"/>
<text text-anchor="middle" x="857" y="-501.4705" font-family="Helvetica,sans-Serif" font-size="10.00" fill="#000000">TInterpreter</text>
</a>
</g>
</g>
<!-- Node5&#45;&gt;Node4 -->
<g id="edge1" class="edge">
<title>Node5&#45;&gt;Node4</title>
<path fill="none" stroke="#191970" d="M904.0466,-504.3669C941.2231,-504.6461 994.4266,-504.9705 1041,-504.9705 1041,-504.9705 1041,-504.9705 1553.5,-504.9705 1662.2911,-504.9705 1710.3912,-545.8068 1797,-479.9705 1828.4665,-456.0509 1836.0962,-404.8084 1837.9285,-383.5344"/>
<polygon fill="#191970" stroke="#191970" points="904.0314,-500.8668 894.0047,-504.2896 903.9775,-507.8666 904.0314,-500.8668"/>
</g>
<!-- Node6 -->
<g id="node3" class="node">
<title>Node6</title>
<g id="a_node3"><a xlink:href="classTNamed.html" target="_top" xlink:title="The TNamed class is the base class for all named ROOT classes. ">
<polygon fill="#ffffff" stroke="#000000" points="552.5,-494.4705 552.5,-513.4705 610.5,-513.4705 610.5,-494.4705 552.5,-494.4705"/>
<text text-anchor="middle" x="581.5" y="-501.4705" font-family="Helvetica,sans-Serif" font-size="10.00" fill="#000000">TNamed</text>
</a>
</g>
</g>
<!-- Node6&#45;&gt;Node5 -->
<g id="edge2" class="edge">
<title>Node6&#45;&gt;Node5</title>
<path fill="none" stroke="#191970" d="M620.7682,-503.9705C673.8451,-503.9705 767.8071,-503.9705 819.7979,-503.9705"/>
<polygon fill="#191970" stroke="#191970" points="620.7225,-500.4706 610.7225,-503.9705 620.7225,-507.4706 620.7225,-500.4706"/>
</g>
<!-- Node7 -->
<g id="node4" class="node">
<title>Node7</title>
<g id="a_node4"><a xlink:href="classTObject.html" target="_top" xlink:title="Mother of all ROOT objects. ">
<polygon fill="#ffffff" stroke="#000000" points="189,-332.4705 189,-351.4705 243,-351.4705 243,-332.4705 189,-332.4705"/>
<text text-anchor="middle" x="216" y="-339.4705" font-family="Helvetica,sans-Serif" font-size="10.00" fill="#000000">TObject</text>
</a>
</g>
</g>
<!-- Node7&#45;&gt;Node6 -->
<g id="edge3" class="edge">
<title>Node7&#45;&gt;Node6</title>
<path fill="none" stroke="#191970" d="M230.9385,-359.3431C242.2517,-371.5792 258.7475,-387.5712 276,-397.9705 324.4416,-427.1695 485.8953,-476.0742 552.4438,-495.5736"/>
<polygon fill="#191970" stroke="#191970" points="233.2686,-356.6989 223.9886,-351.587 228.0553,-361.3702 233.2686,-356.6989"/>
</g>
<!-- Node18 -->
<g id="node15" class="node">
<title>Node18</title>
<g id="a_node15"><a xlink:href="classTObjArray.html" target="_top" xlink:title="An array of TObjects. ">
<polygon fill="#ffffff" stroke="#000000" points="912,-217.4705 912,-236.4705 977,-236.4705 977,-217.4705 912,-217.4705"/>
<text text-anchor="middle" x="944.5" y="-224.4705" font-family="Helvetica,sans-Serif" font-size="10.00" fill="#000000">TObjArray</text>
</a>
</g>
</g>
<!-- Node7&#45;&gt;Node18 -->
<g id="edge23" class="edge">
<title>Node7&#45;&gt;Node18</title>
<path fill="none" stroke="#9a32cd" stroke-dasharray="5,2" d="M228.0403,-323.5615C250.91,-291.0749 304.0174,-226.9705 367,-226.9705 367,-226.9705 367,-226.9705 728,-226.9705 793.2131,-226.9705 869.4755,-226.9705 911.8563,-226.9705"/>
<polygon fill="#9a32cd" stroke="#9a32cd" points="224.915,-321.9322 222.1713,-332.1656 230.6978,-325.8768 224.915,-321.9322"/>
<text text-anchor="middle" x="581.5" y="-229.9705" font-family="Helvetica,sans-Serif" font-size="10.00" fill="#000000"> fCont</text>
</g>
<!-- Node20 -->
<g id="node17" class="node">
<title>Node20</title>
<g id="a_node17"><a xlink:href="classTCollection.html" target="_top" xlink:title="Collection abstract base class. ">
<polygon fill="#ffffff" stroke="#000000" points="546,-296.4705 546,-315.4705 617,-315.4705 617,-296.4705 546,-296.4705"/>
<text text-anchor="middle" x="581.5" y="-303.4705" font-family="Helvetica,sans-Serif" font-size="10.00" fill="#000000">TCollection</text>
</a>
</g>
</g>
<!-- Node7&#45;&gt;Node20 -->
<g id="edge17" class="edge">
<title>Node7&#45;&gt;Node20</title>
<path fill="none" stroke="#191970" d="M253.1711,-332.7818C274.6166,-327.8551 302.173,-322.1576 327,-318.9705 404.6703,-308.9996 496.599,-306.602 545.9397,-306.0718"/>
<polygon fill="#191970" stroke="#191970" points="252.1109,-329.4353 243.1729,-335.124 253.7076,-336.2508 252.1109,-329.4353"/>
</g>
<!-- Node21 -->
<g id="node18" class="node">
<title>Node21</title>
<g id="a_node18"><a xlink:href="classTObjectTable.html" target="_top" xlink:title="This class registers all instances of TObject and its derived classes in a hash table. ">
<polygon fill="#ffffff" stroke="#000000" points="327,-328.4705 327,-347.4705 407,-347.4705 407,-328.4705 327,-328.4705"/>
<text text-anchor="middle" x="367" y="-335.4705" font-family="Helvetica,sans-Serif" font-size="10.00" fill="#000000">TObjectTable</text>
</a>
</g>
</g>
<!-- Node7&#45;&gt;Node21 -->
<g id="edge19" class="edge">
<title>Node7&#45;&gt;Node21</title>
<path fill="none" stroke="#191970" d="M253.1783,-339.8854C260.7289,-339.5256 268.6179,-339.1955 276,-338.9705 292.5818,-338.465 310.8702,-338.2059 326.6756,-338.0762"/>
<polygon fill="#191970" stroke="#191970" points="252.9832,-336.3907 243.1711,-340.3873 253.334,-343.3819 252.9832,-336.3907"/>
</g>
<!-- Node7&#45;&gt;Node21 -->
<g id="edge20" class="edge">
<title>Node7&#45;&gt;Node21</title>
<path fill="none" stroke="#9a32cd" stroke-dasharray="5,2" d="M253.4387,-340.9787C275.7291,-340.3882 304.0135,-339.639 326.778,-339.0359"/>
<polygon fill="#9a32cd" stroke="#9a32cd" points="253.2487,-337.4824 243.345,-341.2461 253.4342,-344.48 253.2487,-337.4824"/>
<text text-anchor="middle" x="292.5" y="-342.9705" font-family="Helvetica,sans-Serif" font-size="10.00" fill="#000000"> fTable</text>
</g>
<!-- Node27 -->
<g id="node24" class="node">
<title>Node27</title>
<g id="a_node24"><a xlink:href="classTEnv.html" target="_top" xlink:title="The TEnv class reads config files, by default named .rootrc. ">
<polygon fill="#ffffff" stroke="#000000" points="1533,-457.4705 1533,-476.4705 1574,-476.4705 1574,-457.4705 1533,-457.4705"/>
<text text-anchor="middle" x="1553.5" y="-464.4705" font-family="Helvetica,sans-Serif" font-size="10.00" fill="#000000">TEnv</text>
</a>
</g>
</g>
<!-- Node7&#45;&gt;Node27 -->
<g id="edge31" class="edge">
<title>Node7&#45;&gt;Node27</title>
<path fill="none" stroke="#191970" d="M245.9608,-355.4853C275.9501,-367.7639 323.729,-383.9705 367,-383.9705 367,-383.9705 367,-383.9705 1319.5,-383.9705 1388.5225,-383.9705 1395.3454,-426.6731 1461,-447.9705 1485.1713,-455.8112 1513.9824,-461.1226 1532.9539,-464.0931"/>
<polygon fill="#191970" stroke="#191970" points="247.0791,-352.1585 236.5047,-351.5009 244.361,-358.6093 247.0791,-352.1585"/>
</g>
<!-- Node8 -->
<g id="node5" class="node">
<title>Node8</title>
<g id="a_node5"><a xlink:href="classTString.html" target="_top" xlink:title="Basic string class. ">
<polygon fill="#ffffff" stroke="#000000" points="341.5,-483.4705 341.5,-502.4705 392.5,-502.4705 392.5,-483.4705 341.5,-483.4705"/>
<text text-anchor="middle" x="367" y="-490.4705" font-family="Helvetica,sans-Serif" font-size="10.00" fill="#000000">TString</text>
</a>
</g>
</g>
<!-- Node8&#45;&gt;Node4 -->
<g id="edge28" class="edge">
<title>Node8&#45;&gt;Node4</title>
<path fill="none" stroke="#9a32cd" stroke-dasharray="5,2" d="M374.3102,-512.1538C396.4304,-566.5651 468.1649,-717.9705 581.5,-717.9705 581.5,-717.9705 581.5,-717.9705 1553.5,-717.9705 1662.2039,-717.9705 1718.8243,-770.5026 1797,-694.9705 1820.0853,-672.6658 1835.0226,-434.4391 1837.9654,-383.515"/>
<polygon fill="#9a32cd" stroke="#9a32cd" points="377.4803,-510.6523 370.55,-502.6384 370.9701,-513.2249 377.4803,-510.6523"/>
<text text-anchor="middle" x="1041" y="-742.9705" font-family="Helvetica,sans-Serif" font-size="10.00" fill="#000000"> fIncludePath</text>
<text text-anchor="middle" x="1041" y="-731.9705" font-family="Helvetica,sans-Serif" font-size="10.00" fill="#000000">fSharedLibs</text>
<text text-anchor="middle" x="1041" y="-720.9705" font-family="Helvetica,sans-Serif" font-size="10.00" fill="#000000">fRootmapLoadPath</text>
</g>
<!-- Node8&#45;&gt;Node6 -->
<g id="edge4" class="edge">
<title>Node8&#45;&gt;Node6</title>
<path fill="none" stroke="#9a32cd" stroke-dasharray="5,2" d="M402.9454,-494.8138C444.958,-496.9683 513.6605,-500.4915 552.4539,-502.4809"/>
<polygon fill="#9a32cd" stroke="#9a32cd" points="403.0399,-491.3142 392.8737,-494.2973 402.6813,-498.305 403.0399,-491.3142"/>
<text text-anchor="middle" x="476.5" y="-514.9705" font-family="Helvetica,sans-Serif" font-size="10.00" fill="#000000"> fTitle</text>
<text text-anchor="middle" x="476.5" y="-503.9705" font-family="Helvetica,sans-Serif" font-size="10.00" fill="#000000">fName</text>
</g>
<!-- Node8&#45;&gt;Node20 -->
<g id="edge21" class="edge">
<title>Node8&#45;&gt;Node20</title>
<path fill="none" stroke="#9a32cd" stroke-dasharray="5,2" d="M385.4842,-476.856C428.8481,-439.0516 536.053,-345.5909 570.59,-315.4817"/>
<polygon fill="#9a32cd" stroke="#9a32cd" points="383.1697,-474.2304 377.932,-483.44 387.7697,-479.5068 383.1697,-474.2304"/>
<text text-anchor="middle" x="476.5" y="-439.9705" font-family="Helvetica,sans-Serif" font-size="10.00" fill="#000000"> fName</text>
</g>
<!-- Node8&#45;&gt;Node27 -->
<g id="edge32" class="edge">
<title>Node8&#45;&gt;Node27</title>
<path fill="none" stroke="#9a32cd" stroke-dasharray="5,2" d="M402.7673,-487.0705C454.1204,-479.1252 551.7846,-465.9705 635.5,-465.9705 635.5,-465.9705 635.5,-465.9705 1319.5,-465.9705 1398.3132,-465.9705 1492.0566,-466.5447 1532.8408,-466.8229"/>
<polygon fill="#9a32cd" stroke="#9a32cd" points="402.1677,-483.6217 392.8327,-488.6324 403.255,-490.5367 402.1677,-483.6217"/>
<text text-anchor="middle" x="944.5" y="-468.9705" font-family="Helvetica,sans-Serif" font-size="10.00" fill="#000000"> fRcName</text>
</g>
<!-- Node9 -->
<g id="node6" class="node">
<title>Node9</title>
<g id="a_node6"><a xlink:href="structTString_1_1Rep__t.html" target="_top" xlink:title="TString::Rep_t">
<polygon fill="#ffffff" stroke="#000000" points="174,-483.4705 174,-502.4705 258,-502.4705 258,-483.4705 174,-483.4705"/>
<text text-anchor="middle" x="216" y="-490.4705" font-family="Helvetica,sans-Serif" font-size="10.00" fill="#000000">TString::Rep_t</text>
</a>
</g>
</g>
<!-- Node9&#45;&gt;Node8 -->
<g id="edge5" class="edge">
<title>Node9&#45;&gt;Node8</title>
<path fill="none" stroke="#9a32cd" stroke-dasharray="5,2" d="M268.3684,-492.9705C293.0187,-492.9705 321.3105,-492.9705 341.2539,-492.9705"/>
<polygon fill="#9a32cd" stroke="#9a32cd" points="268.062,-489.4706 258.0619,-492.9705 268.0619,-496.4706 268.062,-489.4706"/>
<text text-anchor="middle" x="292.5" y="-495.9705" font-family="Helvetica,sans-Serif" font-size="10.00" fill="#000000"> fRep</text>
</g>
<!-- Node10 -->
<g id="node7" class="node">
<title>Node10</title>
<g id="a_node7"><a xlink:href="structTString_1_1LongStr__t.html" target="_top" xlink:title="TString::LongStr_t">
<polygon fill="#ffffff" stroke="#000000" points="1,-521.4705 1,-540.4705 104,-540.4705 104,-521.4705 1,-521.4705"/>
<text text-anchor="middle" x="52.5" y="-528.4705" font-family="Helvetica,sans-Serif" font-size="10.00" fill="#000000">TString::LongStr_t</text>
</a>
</g>
</g>
<!-- Node10&#45;&gt;Node9 -->
<g id="edge6" class="edge">
<title>Node10&#45;&gt;Node9</title>
<path fill="none" stroke="#9a32cd" stroke-dasharray="5,2" d="M106.8123,-519.1829C122.687,-515.6614 140.0552,-511.7345 156,-507.9705 163.315,-506.2436 171.1157,-504.3396 178.5896,-502.4845"/>
<polygon fill="#9a32cd" stroke="#9a32cd" points="105.6358,-515.8583 96.626,-521.4327 107.1456,-522.6936 105.6358,-515.8583"/>
<text text-anchor="middle" x="139.5" y="-517.9705" font-family="Helvetica,sans-Serif" font-size="10.00" fill="#000000"> fLong</text>
</g>
<!-- Node11 -->
<g id="node8" class="node">
<title>Node11</title>
<g id="a_node8"><a xlink:href="structTString_1_1RawStr__t.html" target="_top" xlink:title="TString::RawStr_t">
<polygon fill="#ffffff" stroke="#000000" points="2,-483.4705 2,-502.4705 103,-502.4705 103,-483.4705 2,-483.4705"/>
<text text-anchor="middle" x="52.5" y="-490.4705" font-family="Helvetica,sans-Serif" font-size="10.00" fill="#000000">TString::RawStr_t</text>
</a>
</g>
</g>
<!-- Node11&#45;&gt;Node9 -->
<g id="edge7" class="edge">
<title>Node11&#45;&gt;Node9</title>
<path fill="none" stroke="#9a32cd" stroke-dasharray="5,2" d="M113.38,-492.9705C133.5543,-492.9705 155.5459,-492.9705 173.9777,-492.9705"/>
<polygon fill="#9a32cd" stroke="#9a32cd" points="113.3362,-489.4706 103.3362,-492.9705 113.3361,-496.4706 113.3362,-489.4706"/>
<text text-anchor="middle" x="139.5" y="-495.9705" font-family="Helvetica,sans-Serif" font-size="10.00" fill="#000000"> fRaw</text>
</g>
<!-- Node12 -->
<g id="node9" class="node">
<title>Node12</title>
<g id="a_node9"><a xlink:href="structTString_1_1ShortStr__t.html" target="_top" xlink:title="TString::ShortStr_t">
<polygon fill="#ffffff" stroke="#000000" points="0,-445.4705 0,-464.4705 105,-464.4705 105,-445.4705 0,-445.4705"/>
<text text-anchor="middle" x="52.5" y="-452.4705" font-family="Helvetica,sans-Serif" font-size="10.00" fill="#000000">TString::ShortStr_t</text>
</a>
</g>
</g>
<!-- Node12&#45;&gt;Node9 -->
<g id="edge8" class="edge">
<title>Node12&#45;&gt;Node9</title>
<path fill="none" stroke="#9a32cd" stroke-dasharray="5,2" d="M106.8123,-466.758C122.687,-470.2795 140.0552,-474.2064 156,-477.9705 163.315,-479.6973 171.1157,-481.6013 178.5896,-483.4565"/>
<polygon fill="#9a32cd" stroke="#9a32cd" points="107.1456,-463.2474 96.626,-464.5082 105.6358,-470.0826 107.1456,-463.2474"/>
<text text-anchor="middle" x="139.5" y="-480.9705" font-family="Helvetica,sans-Serif" font-size="10.00" fill="#000000"> fShort</text>
</g>
<!-- Node13 -->
<g id="node10" class="node">
<title>Node13</title>
<polygon fill="#ffffff" stroke="#bfbfbf" points="1466,-620.9705 1466,-650.9705 1641,-650.9705 1641,-620.9705 1466,-620.9705"/>
<text text-anchor="start" x="1474" y="-638.9705" font-family="Helvetica,sans-Serif" font-size="10.00" fill="#000000">std::vector&lt; TCling</text>
<text text-anchor="middle" x="1553.5" y="-627.9705" font-family="Helvetica,sans-Serif" font-size="10.00" fill="#000000">::MutexStateAndRecurseCount &gt;</text>
</g>
<!-- Node13&#45;&gt;Node4 -->
<g id="edge9" class="edge">
<title>Node13&#45;&gt;Node4</title>
<path fill="none" stroke="#9a32cd" stroke-dasharray="5,2" d="M1651.2283,-638.8878C1709.4281,-638.4436 1775.9444,-633.3837 1797,-613.9705 1831.5852,-582.0829 1837.4009,-424.3276 1838.3308,-383.5861"/>
<polygon fill="#9a32cd" stroke="#9a32cd" points="1651.2099,-635.3878 1641.2214,-638.9205 1651.2328,-642.3877 1651.2099,-635.3878"/>
<text text-anchor="middle" x="1730.5" y="-640.9705" font-family="Helvetica,sans-Serif" font-size="10.00" fill="#000000"> fInitialMutex</text>
</g>
<!-- Node14 -->
<g id="node11" class="node">
<title>Node14</title>
<polygon fill="#ffffff" stroke="#bfbfbf" points="1473.5,-571.9705 1473.5,-601.9705 1633.5,-601.9705 1633.5,-571.9705 1473.5,-571.9705"/>
<text text-anchor="start" x="1481.5" y="-589.9705" font-family="Helvetica,sans-Serif" font-size="10.00" fill="#000000">std::vector&lt; std::pair</text>
<text text-anchor="middle" x="1553.5" y="-578.9705" font-family="Helvetica,sans-Serif" font-size="10.00" fill="#000000">&lt; TClass *, DictFuncPtr_t &gt; &gt;</text>
</g>
<!-- Node14&#45;&gt;Node4 -->
<g id="edge10" class="edge">
<title>Node14&#45;&gt;Node4</title>
<path fill="none" stroke="#9a32cd" stroke-dasharray="5,2" d="M1643.8205,-599.7984C1694.7914,-601.8138 1756.2429,-594.721 1797,-557.9705 1823.3872,-534.1772 1834.8585,-418.5131 1837.7412,-383.8239"/>
<polygon fill="#9a32cd" stroke="#9a32cd" points="1643.9424,-596.3002 1633.7753,-599.28 1643.5816,-603.2909 1643.9424,-596.3002"/>
<text text-anchor="middle" x="1730.5" y="-601.9705" font-family="Helvetica,sans-Serif" font-size="10.00" fill="#000000"> fClassesToUpdate</text>
</g>
<!-- Node15 -->
<g id="node12" class="node">
<title>Node15</title>
<polygon fill="#ffffff" stroke="#bfbfbf" points="1497.5,-533.4705 1497.5,-552.4705 1609.5,-552.4705 1609.5,-533.4705 1497.5,-533.4705"/>
<text text-anchor="middle" x="1553.5" y="-540.4705" font-family="Helvetica,sans-Serif" font-size="10.00" fill="#000000">std::set&lt; TClass *&gt;</text>
</g>
<!-- Node15&#45;&gt;Node4 -->
<g id="edge11" class="edge">
<title>Node15&#45;&gt;Node4</title>
<path fill="none" stroke="#9a32cd" stroke-dasharray="5,2" d="M1619.9893,-544.56C1682.7362,-544.651 1770.965,-540.6842 1797,-518.9705 1818.3151,-501.1932 1832.7874,-413.4198 1837.1326,-383.7729"/>
<polygon fill="#9a32cd" stroke="#9a32cd" points="1619.7792,-541.0591 1609.762,-544.5095 1619.7446,-548.059 1619.7792,-541.0591"/>
<text text-anchor="middle" x="1730.5" y="-545.9705" font-family="Helvetica,sans-Serif" font-size="10.00" fill="#000000"> fModTClasses</text>
</g>
<!-- Node16 -->
<g id="node13" class="node">
<title>Node16</title>
<g id="a_node13"><a xlink:href="classTClingCallbacks.html" target="_top" xlink:title="TClingCallbacks">
<polygon fill="#ffffff" stroke="#000000" points="1506.5,-670.4705 1506.5,-689.4705 1600.5,-689.4705 1600.5,-670.4705 1506.5,-670.4705"/>
<text text-anchor="middle" x="1553.5" y="-677.4705" font-family="Helvetica,sans-Serif" font-size="10.00" fill="#000000">TClingCallbacks</text>
</a>
</g>
</g>
<!-- Node16&#45;&gt;Node4 -->
<g id="edge12" class="edge">
<title>Node16&#45;&gt;Node4</title>
<path fill="none" stroke="#9a32cd" stroke-dasharray="5,2" d="M1611.0268,-681.3805C1674.5563,-681.6363 1771.2854,-677.745 1797,-652.9705 1816.9252,-633.7736 1834.0133,-431.0303 1837.7447,-383.776"/>
<polygon fill="#9a32cd" stroke="#9a32cd" points="1610.7698,-677.8786 1600.7434,-681.3021 1610.7164,-684.8783 1610.7698,-677.8786"/>
<text text-anchor="middle" x="1730.5" y="-682.9705" font-family="Helvetica,sans-Serif" font-size="10.00" fill="#000000"> fClingCallbacks</text>
</g>
<!-- Node17 -->
<g id="node14" class="node">
<title>Node17</title>
<polygon fill="#ffffff" stroke="#bfbfbf" points="1247,-670.4705 1247,-689.4705 1392,-689.4705 1392,-670.4705 1247,-670.4705"/>
<text text-anchor="middle" x="1319.5" y="-677.4705" font-family="Helvetica,sans-Serif" font-size="10.00" fill="#000000">cling::InterpreterCallbacks</text>
</g>
<!-- Node17&#45;&gt;Node16 -->
<g id="edge13" class="edge">
<title>Node17&#45;&gt;Node16</title>
<path fill="none" stroke="#191970" d="M1402.4287,-679.9705C1437.2597,-679.9705 1476.5041,-679.9705 1506.2632,-679.9705"/>
<polygon fill="#191970" stroke="#191970" points="1402.2564,-676.4706 1392.2564,-679.9705 1402.2563,-683.4706 1402.2564,-676.4706"/>
</g>
<!-- Node18&#45;&gt;Node4 -->
<g id="edge14" class="edge">
<title>Node18&#45;&gt;Node4</title>
<path fill="none" stroke="#9a32cd" stroke-dasharray="5,2" d="M987.0143,-219.1152C1026.8,-212.453 1087.967,-203.9705 1141.5,-203.9705 1141.5,-203.9705 1141.5,-203.9705 1553.5,-203.9705 1607.852,-203.9705 1755.2517,-192.168 1797,-226.9705 1818.693,-245.0543 1833.017,-334.8101 1837.2169,-364.4522"/>
<polygon fill="#9a32cd" stroke="#9a32cd" points="986.3959,-215.6701 977.1296,-220.8069 987.5767,-222.5698 986.3959,-215.6701"/>
<text text-anchor="middle" x="1319.5" y="-206.9705" font-family="Helvetica,sans-Serif" font-size="10.00" fill="#000000"> fRootmapFiles</text>
</g>
<!-- Node19 -->
<g id="node16" class="node">
<title>Node19</title>
<g id="a_node16"><a xlink:href="classTSeqCollection.html" target="_top" xlink:title="Sequenceable collection abstract base class. ">
<polygon fill="#ffffff" stroke="#000000" points="683.5,-296.4705 683.5,-315.4705 772.5,-315.4705 772.5,-296.4705 683.5,-296.4705"/>
<text text-anchor="middle" x="728" y="-303.4705" font-family="Helvetica,sans-Serif" font-size="10.00" fill="#000000">TSeqCollection</text>
</a>
</g>
</g>
<!-- Node19&#45;&gt;Node18 -->
<g id="edge15" class="edge">
<title>Node19&#45;&gt;Node18</title>
<path fill="none" stroke="#191970" d="M763.7222,-292.9356C807.2142,-277.0655 879.6333,-250.6401 918.2924,-236.5335"/>
<polygon fill="#191970" stroke="#191970" points="762.3093,-289.7253 754.115,-296.4412 764.7089,-296.3012 762.3093,-289.7253"/>
</g>
<!-- Node29 -->
<g id="node26" class="node">
<title>Node29</title>
<g id="a_node26"><a xlink:href="classTList.html" target="_top" xlink:title="A doubly linked list. ">
<polygon fill="#ffffff" stroke="#000000" points="924.5,-326.4705 924.5,-345.4705 964.5,-345.4705 964.5,-326.4705 924.5,-326.4705"/>
<text text-anchor="middle" x="944.5" y="-333.4705" font-family="Helvetica,sans-Serif" font-size="10.00" fill="#000000">TList</text>
</a>
</g>
</g>
<!-- Node19&#45;&gt;Node29 -->
<g id="edge35" class="edge">
<title>Node19&#45;&gt;Node29</title>
<path fill="none" stroke="#191970" d="M782.754,-313.5576C828.9279,-319.9559 892.4482,-328.7577 924.4084,-333.1864"/>
<polygon fill="#191970" stroke="#191970" points="782.9822,-310.0559 772.5964,-312.1501 782.0214,-316.9896 782.9822,-310.0559"/>
</g>
<!-- Node20&#45;&gt;Node19 -->
<g id="edge16" class="edge">
<title>Node20&#45;&gt;Node19</title>
<path fill="none" stroke="#191970" d="M627.5037,-305.9705C645.3282,-305.9705 665.6628,-305.9705 683.3558,-305.9705"/>
<polygon fill="#191970" stroke="#191970" points="627.338,-302.4706 617.3379,-305.9705 627.3379,-309.4706 627.338,-302.4706"/>
</g>
<!-- Node20&#45;&gt;Node20 -->
<g id="edge22" class="edge">
<title>Node20&#45;&gt;Node20</title>
<path fill="none" stroke="#9a32cd" stroke-dasharray="5,2" d="M571.5556,-325.7367C572.3366,-330.467 575.6514,-333.9705 581.5,-333.9705 591.0977,-333.9705 593.872,-324.5357 589.823,-315.7275"/>
<polygon fill="#9a32cd" stroke="#9a32cd" points="575.0328,-326.1586 573.177,-315.7275 568.1229,-325.0391 575.0328,-326.1586"/>
<text text-anchor="middle" x="581.5" y="-336.9705" font-family="Helvetica,sans-Serif" font-size="10.00" fill="#000000"> fgCurrentCollection</text>
</g>
<!-- Node31 -->
<g id="node28" class="node">
<title>Node31</title>
<g id="a_node28"><a xlink:href="classTHashTable.html" target="_top" xlink:title="THashTable implements a hash table to store TObject&#39;s. ">
<polygon fill="#ffffff" stroke="#000000" points="1105,-292.4705 1105,-311.4705 1178,-311.4705 1178,-292.4705 1105,-292.4705"/>
<text text-anchor="middle" x="1141.5" y="-299.4705" font-family="Helvetica,sans-Serif" font-size="10.00" fill="#000000">THashTable</text>
</a>
</g>
</g>
<!-- Node20&#45;&gt;Node31 -->
<g id="edge38" class="edge">
<title>Node20&#45;&gt;Node31</title>
<path fill="none" stroke="#191970" d="M620.6937,-293.7431C631.3872,-290.9459 643.0467,-288.3819 654,-286.9705 821.3324,-265.4082 1023.5073,-286.4974 1104.9205,-296.9071"/>
<polygon fill="#191970" stroke="#191970" points="619.5055,-290.4398 610.7917,-296.4664 621.3618,-297.1892 619.5055,-290.4398"/>
</g>
<!-- Node21&#45;&gt;Node20 -->
<g id="edge18" class="edge">
<title>Node21&#45;&gt;Node20</title>
<path fill="none" stroke="#9a32cd" stroke-dasharray="5,2" d="M417.055,-330.5031C456.5559,-324.6101 510.6884,-316.5344 545.8752,-311.2851"/>
<polygon fill="#9a32cd" stroke="#9a32cd" points="416.4683,-327.0518 407.0942,-331.989 417.5012,-333.9751 416.4683,-327.0518"/>
<text text-anchor="middle" x="476.5" y="-330.9705" font-family="Helvetica,sans-Serif" font-size="10.00" fill="#000000"> fgGarbageCollection</text>
</g>
<!-- Node22 -->
<g id="node19" class="node">
<title>Node22</title>
<polygon fill="#ffffff" stroke="#bfbfbf" points="1502,-407.9705 1502,-437.9705 1605,-437.9705 1605,-407.9705 1502,-407.9705"/>
<text text-anchor="start" x="1510" y="-425.9705" font-family="Helvetica,sans-Serif" font-size="10.00" fill="#000000">std::vector&lt; cling</text>
<text text-anchor="middle" x="1553.5" y="-414.9705" font-family="Helvetica,sans-Serif" font-size="10.00" fill="#000000">::Value &gt;</text>
</g>
<!-- Node22&#45;&gt;Node4 -->
<g id="edge24" class="edge">
<title>Node22&#45;&gt;Node4</title>
<path fill="none" stroke="#9a32cd" stroke-dasharray="5,2" d="M1615.6477,-417.8891C1665.2589,-412.9746 1736.2705,-404.0113 1797,-388.9705 1802.8004,-387.5339 1808.9188,-385.5802 1814.6229,-383.5579"/>
<polygon fill="#9a32cd" stroke="#9a32cd" points="1615.0154,-414.4337 1605.3974,-418.8771 1615.6871,-421.4014 1615.0154,-414.4337"/>
<text text-anchor="middle" x="1730.5" y="-414.9705" font-family="Helvetica,sans-Serif" font-size="10.00" fill="#000000"> fTemporaries</text>
</g>
<!-- Node23 -->
<g id="node20" class="node">
<title>Node23</title>
<polygon fill="#ffffff" stroke="#bfbfbf" points="1461,-358.9705 1461,-388.9705 1646,-388.9705 1646,-358.9705 1461,-358.9705"/>
<text text-anchor="start" x="1469" y="-376.9705" font-family="Helvetica,sans-Serif" font-size="10.00" fill="#000000">std::unordered_set</text>
<text text-anchor="middle" x="1553.5" y="-365.9705" font-family="Helvetica,sans-Serif" font-size="10.00" fill="#000000">&lt; const clang::NamespaceDecl *&gt;</text>
</g>
<!-- Node23&#45;&gt;Node4 -->
<g id="edge25" class="edge">
<title>Node23&#45;&gt;Node4</title>
<path fill="none" stroke="#9a32cd" stroke-dasharray="5,2" d="M1656.2587,-373.9705C1713.6493,-373.9705 1780.3872,-373.9705 1814.986,-373.9705"/>
<polygon fill="#9a32cd" stroke="#9a32cd" points="1656.0314,-370.4706 1646.0313,-373.9705 1656.0313,-377.4706 1656.0314,-370.4706"/>
<text text-anchor="middle" x="1730.5" y="-376.9705" font-family="Helvetica,sans-Serif" font-size="10.00" fill="#000000"> fNSFromRootmaps</text>
</g>
<!-- Node24 -->
<g id="node21" class="node">
<title>Node24</title>
<polygon fill="#ffffff" stroke="#bfbfbf" points="1488,-320.4705 1488,-339.4705 1619,-339.4705 1619,-320.4705 1488,-320.4705"/>
<text text-anchor="middle" x="1553.5" y="-327.4705" font-family="Helvetica,sans-Serif" font-size="10.00" fill="#000000">std::set&lt; const char *&gt;</text>
</g>
<!-- Node24&#45;&gt;Node4 -->
<g id="edge26" class="edge">
<title>Node24&#45;&gt;Node4</title>
<path fill="none" stroke="#9a32cd" stroke-dasharray="5,2" d="M1629.1599,-334.5124C1677.6271,-338.5154 1741.5983,-345.8414 1797,-358.9705 1802.9637,-360.3837 1809.2528,-362.3785 1815.0815,-364.4534"/>
<polygon fill="#9a32cd" stroke="#9a32cd" points="1629.3079,-331.0132 1619.0615,-333.7077 1628.7519,-337.9911 1629.3079,-331.0132"/>
<text text-anchor="middle" x="1730.5" y="-361.9705" font-family="Helvetica,sans-Serif" font-size="10.00" fill="#000000"> fParsedPayloadsAddresses</text>
</g>
<!-- Node25 -->
<g id="node22" class="node">
<title>Node25</title>
<polygon fill="#ffffff" stroke="#bfbfbf" points="1501.5,-282.4705 1501.5,-301.4705 1605.5,-301.4705 1605.5,-282.4705 1501.5,-282.4705"/>
<text text-anchor="middle" x="1553.5" y="-289.4705" font-family="Helvetica,sans-Serif" font-size="10.00" fill="#000000">std::set&lt; size_t &gt;</text>
</g>
<!-- Node25&#45;&gt;Node4 -->
<g id="edge27" class="edge">
<title>Node25&#45;&gt;Node4</title>
<path fill="none" stroke="#9a32cd" stroke-dasharray="5,2" d="M1615.9954,-282.42C1668.0374,-277.6795 1742.2214,-278.647 1797,-310.9705 1817.5295,-323.0844 1829.844,-349.816 1835.248,-364.2581"/>
<polygon fill="#9a32cd" stroke="#9a32cd" points="1615.4938,-278.9527 1605.8946,-283.4366 1616.1948,-285.9175 1615.4938,-278.9527"/>
<text text-anchor="middle" x="1730.5" y="-324.9705" font-family="Helvetica,sans-Serif" font-size="10.00" fill="#000000"> fLookedUpClasses</text>
<text text-anchor="middle" x="1730.5" y="-313.9705" font-family="Helvetica,sans-Serif" font-size="10.00" fill="#000000">fPayloads</text>
</g>
<!-- Node26 -->
<g id="node23" class="node">
<title>Node26</title>
<polygon fill="#ffffff" stroke="#bfbfbf" points="1500.5,-232.9705 1500.5,-262.9705 1606.5,-262.9705 1606.5,-232.9705 1500.5,-232.9705"/>
<text text-anchor="start" x="1508.5" y="-250.9705" font-family="Helvetica,sans-Serif" font-size="10.00" fill="#000000">std::vector&lt; const</text>
<text text-anchor="middle" x="1553.5" y="-239.9705" font-family="Helvetica,sans-Serif" font-size="10.00" fill="#000000"> char *&gt;</text>
</g>
<!-- Node26&#45;&gt;Node4 -->
<g id="edge29" class="edge">
<title>Node26&#45;&gt;Node4</title>
<path fill="none" stroke="#9a32cd" stroke-dasharray="5,2" d="M1616.5862,-234.9966C1669.8759,-227.7808 1745.5257,-226.777 1797,-264.9705 1813.6679,-277.3379 1830.253,-339.7944 1836.1996,-364.1886"/>
<polygon fill="#9a32cd" stroke="#9a32cd" points="1615.9624,-231.5505 1606.5739,-236.4603 1616.9751,-238.4769 1615.9624,-231.5505"/>
<text text-anchor="middle" x="1730.5" y="-267.9705" font-family="Helvetica,sans-Serif" font-size="10.00" fill="#000000"> fCurExecutingMacros</text>
</g>
<!-- Node27&#45;&gt;Node4 -->
<g id="edge30" class="edge">
<title>Node27&#45;&gt;Node4</title>
<path fill="none" stroke="#9a32cd" stroke-dasharray="5,2" d="M1584.2917,-468.7878C1632.9735,-470.2306 1729.1448,-467.1536 1797,-426.9705 1814.4968,-416.6091 1827.3808,-395.848 1833.8395,-383.611"/>
<polygon fill="#9a32cd" stroke="#9a32cd" points="1584.2207,-465.2826 1574.094,-468.397 1583.9526,-472.2775 1584.2207,-465.2826"/>
<text text-anchor="middle" x="1730.5" y="-467.9705" font-family="Helvetica,sans-Serif" font-size="10.00" fill="#000000"> fMapfile</text>
</g>
<!-- Node28 -->
<g id="node25" class="node">
<title>Node28</title>
<g id="a_node25"><a xlink:href="classTHashList.html" target="_top" xlink:title="THashList implements a hybrid collection class consisting of a hash table and a list to store TObject...">
<polygon fill="#ffffff" stroke="#000000" points="1287,-330.4705 1287,-349.4705 1352,-349.4705 1352,-330.4705 1287,-330.4705"/>
<text text-anchor="middle" x="1319.5" y="-337.4705" font-family="Helvetica,sans-Serif" font-size="10.00" fill="#000000">THashList</text>
</a>
</g>
</g>
<!-- Node28&#45;&gt;Node27 -->
<g id="edge33" class="edge">
<title>Node28&#45;&gt;Node27</title>
<path fill="none" stroke="#9a32cd" stroke-dasharray="5,2" d="M1362.2089,-335.1378C1388.8086,-334.5985 1421.8701,-338.8091 1443,-358.9705 1472.1977,-386.8297 1432.507,-419.3909 1461,-447.9705 1479.7514,-466.7788 1511.8123,-469.3914 1532.8289,-468.7742"/>
<polygon fill="#9a32cd" stroke="#9a32cd" points="1361.8408,-331.6503 1352.0007,-335.5774 1362.142,-338.6438 1361.8408,-331.6503"/>
<text text-anchor="middle" x="1426.5" y="-361.9705" font-family="Helvetica,sans-Serif" font-size="10.00" fill="#000000"> fTable</text>
</g>
<!-- Node29&#45;&gt;Node28 -->
<g id="edge34" class="edge">
<title>Node29&#45;&gt;Node28</title>
<path fill="none" stroke="#191970" d="M974.953,-336.2953C1044.6687,-337.0389 1215.3528,-338.8596 1286.9996,-339.6238"/>
<polygon fill="#191970" stroke="#191970" points="974.6984,-332.7925 964.6616,-336.1855 974.6237,-339.7921 974.6984,-332.7925"/>
</g>
<!-- Node29&#45;&gt;Node31 -->
<g id="edge39" class="edge">
<title>Node29&#45;&gt;Node31</title>
<path fill="none" stroke="#9a32cd" stroke-dasharray="5,2" d="M972.8949,-322.3878C979.9743,-319.5001 987.647,-316.78 995,-314.9705 1031.6954,-305.94 1074.9263,-303.0061 1104.8713,-302.1378"/>
<polygon fill="#9a32cd" stroke="#9a32cd" points="971.4881,-319.1828 963.6944,-326.3597 974.2626,-325.6095 971.4881,-319.1828"/>
<text text-anchor="middle" x="1041" y="-317.9705" font-family="Helvetica,sans-Serif" font-size="10.00" fill="#000000"> fCont</text>
</g>
<!-- Node30 -->
<g id="node27" class="node">
<title>Node30</title>
<polygon fill="#ffffff" stroke="#bfbfbf" points="654,-336.4705 654,-355.4705 802,-355.4705 802,-336.4705 654,-336.4705"/>
<text text-anchor="middle" x="728" y="-343.4705" font-family="Helvetica,sans-Serif" font-size="10.00" fill="#000000">std::weak_ptr&lt; TObjLink &gt;</text>
</g>
<!-- Node30&#45;&gt;Node29 -->
<g id="edge36" class="edge">
<title>Node30&#45;&gt;Node29</title>
<path fill="none" stroke="#9a32cd" stroke-dasharray="5,2" d="M812.4344,-342.0705C853.133,-340.1906 898.5571,-338.0925 924.12,-336.9118"/>
<polygon fill="#9a32cd" stroke="#9a32cd" points="812.0319,-338.5853 802.2041,-342.543 812.355,-345.5778 812.0319,-338.5853"/>
<text text-anchor="middle" x="857" y="-343.9705" font-family="Helvetica,sans-Serif" font-size="10.00" fill="#000000"> fCache</text>
</g>
<!-- Node31&#45;&gt;Node28 -->
<g id="edge37" class="edge">
<title>Node31&#45;&gt;Node28</title>
<path fill="none" stroke="#9a32cd" stroke-dasharray="5,2" d="M1188.5536,-307.8843C1201.7021,-309.8285 1215.9587,-312.2112 1229,-314.9705 1249.0935,-319.2219 1271.331,-325.3445 1288.7343,-330.4665"/>
<polygon fill="#9a32cd" stroke="#9a32cd" points="1188.6847,-304.3677 1178.2906,-306.4203 1187.696,-311.2975 1188.6847,-304.3677"/>
<text text-anchor="middle" x="1212.5" y="-317.9705" font-family="Helvetica,sans-Serif" font-size="10.00" fill="#000000"> fTable</text>
</g>
<!-- Node32 -->
<g id="node29" class="node">
<title>Node32</title>
<polygon fill="#ffffff" stroke="#bfbfbf" points="1495,-156.4705 1495,-175.4705 1612,-175.4705 1612,-156.4705 1495,-156.4705"/>
<text text-anchor="middle" x="1553.5" y="-163.4705" font-family="Helvetica,sans-Serif" font-size="10.00" fill="#000000">std::vector&lt; void *&gt;</text>
</g>
<!-- Node32&#45;&gt;Node4 -->
<g id="edge40" class="edge">
<title>Node32&#45;&gt;Node4</title>
<path fill="none" stroke="#9a32cd" stroke-dasharray="5,2" d="M1622.388,-160.6566C1685.0889,-157.3814 1771.6218,-157.2795 1797,-178.9705 1825.6793,-203.4829 1835.6083,-327.6535 1837.924,-363.9766"/>
<polygon fill="#9a32cd" stroke="#9a32cd" points="1621.9412,-157.176 1612.1526,-161.2299 1622.3327,-164.1651 1621.9412,-157.176"/>
<text text-anchor="middle" x="1730.5" y="-181.9705" font-family="Helvetica,sans-Serif" font-size="10.00" fill="#000000"> fRegisterModuleDyLibs</text>
</g>
<!-- Node33 -->
<g id="node30" class="node">
<title>Node33</title>
<polygon fill="#ffffff" stroke="#bfbfbf" points="1487.5,-106.9705 1487.5,-136.9705 1619.5,-136.9705 1619.5,-106.9705 1487.5,-106.9705"/>
<text text-anchor="start" x="1495.5" y="-124.9705" font-family="Helvetica,sans-Serif" font-size="10.00" fill="#000000">std::map&lt; const cling</text>
<text text-anchor="middle" x="1553.5" y="-113.9705" font-family="Helvetica,sans-Serif" font-size="10.00" fill="#000000">::Transaction *, size_t &gt;</text>
</g>
<!-- Node33&#45;&gt;Node4 -->
<g id="edge41" class="edge">
<title>Node33&#45;&gt;Node4</title>
<path fill="none" stroke="#9a32cd" stroke-dasharray="5,2" d="M1629.8649,-106.8565C1683.3164,-100.9865 1752.8033,-103.5181 1797,-143.9705 1830.1485,-174.3107 1837.0027,-324.3331 1838.2481,-364.2178"/>
<polygon fill="#9a32cd" stroke="#9a32cd" points="1629.2451,-103.406 1619.741,-108.0882 1630.0906,-110.3547 1629.2451,-103.406"/>
<text text-anchor="middle" x="1730.5" y="-146.9705" font-family="Helvetica,sans-Serif" font-size="10.00" fill="#000000"> fTransactionHeadersMap</text>
</g>
<!-- Node34 -->
<g id="node31" class="node">
<title>Node34</title>
<polygon fill="#ffffff" stroke="#bfbfbf" points="1482,-57.9705 1482,-87.9705 1625,-87.9705 1625,-57.9705 1482,-57.9705"/>
<text text-anchor="start" x="1490" y="-75.9705" font-family="Helvetica,sans-Serif" font-size="10.00" fill="#000000">std::map&lt; size_t, std</text>
<text text-anchor="middle" x="1553.5" y="-64.9705" font-family="Helvetica,sans-Serif" font-size="10.00" fill="#000000">::vector&lt; const char *&gt; &gt;</text>
</g>
<!-- Node34&#45;&gt;Node4 -->
<g id="edge42" class="edge">
<title>Node34&#45;&gt;Node4</title>
<path fill="none" stroke="#9a32cd" stroke-dasharray="5,2" d="M1623.0981,-56.2738C1677.4299,-47.7094 1751.1563,-46.6119 1797,-88.9705 1817.7952,-108.1848 1834.2793,-316.4997 1837.8022,-364.2546"/>
<polygon fill="#9a32cd" stroke="#9a32cd" points="1622.4655,-52.831 1613.19,-57.9511 1623.6339,-59.7329 1622.4655,-52.831"/>
<text text-anchor="middle" x="1730.5" y="-91.9705" font-family="Helvetica,sans-Serif" font-size="10.00" fill="#000000"> fClassesHeadersMap</text>
</g>
<!-- Node35 -->
<g id="node32" class="node">
<title>Node35</title>
<polygon fill="#ffffff" stroke="#bfbfbf" points="1467,-8.9705 1467,-38.9705 1640,-38.9705 1640,-8.9705 1467,-8.9705"/>
<text text-anchor="start" x="1475" y="-26.9705" font-family="Helvetica,sans-Serif" font-size="10.00" fill="#000000">std::map&lt; SpecialObjectLookup</text>
<text text-anchor="middle" x="1553.5" y="-15.9705" font-family="Helvetica,sans-Serif" font-size="10.00" fill="#000000">Ctx_t, SpecialObjectMap_t &gt;</text>
</g>
<!-- Node35&#45;&gt;Node4 -->
<g id="edge43" class="edge">
<title>Node35&#45;&gt;Node4</title>
<path fill="none" stroke="#9a32cd" stroke-dasharray="5,2" d="M1617.8203,-6.983C1672.6542,3.2682 1749.8678,7.0084 1797,-36.9705 1821.6747,-59.9944 1835.4126,-311.4898 1838.0359,-364.2835"/>
<polygon fill="#9a32cd" stroke="#9a32cd" points="1616.9807,-3.5813 1607.8544,-8.9629 1618.3447,-10.4471 1616.9807,-3.5813"/>
<text text-anchor="middle" x="1730.5" y="-39.9705" font-family="Helvetica,sans-Serif" font-size="10.00" fill="#000000"> fSpecialObjectMaps</text>
</g>
</g>
</svg>
        <g id="navigator" transform="translate(0 0)" fill="#404254">
                <rect fill="#f2f5e9" fill-opacity="0.5" stroke="#606060" stroke-width=".5" x="0" y="0" width="60" height="60"/>
                <use id="zoomplus" xlink:href="#zoomPlus" x="17" y="9" onmousedown="handleZoom(evt,'in')"/>
                <use id="zoomminus" xlink:href="#zoomMin" x="42" y="9" onmousedown="handleZoom(evt,'out')"/>
                <use id="reset" xlink:href="#resetDef" x="30" y="36" onmousedown="handleReset()"/>
                <g id="arrowUp" xlink:href="#dirArrow" transform="translate(30 24)" onmousedown="handlePan(0,-1)">
                  <use xlink:href="#rim" fill="#404040">
                        <set attributeName="fill" to="#808080" begin="arrowUp.mouseover" end="arrowUp.mouseout"/>
                  </use>
                  <path fill="none" stroke="white" stroke-width="1.5" d="M0,-3.0v7 M-2.5,-0.5L0,-3.0L2.5,-0.5"/>
                </g>
                <g id="arrowRight" xlink:href="#dirArrow" transform="rotate(90) translate(36 -43)" onmousedown="handlePan(1,0)">
                  <use xlink:href="#rim" fill="#404040">
                        <set attributeName="fill" to="#808080" begin="arrowRight.mouseover" end="arrowRight.mouseout"/>
                  </use>
                  <path fill="none" stroke="white" stroke-width="1.5" d="M0,-3.0v7 M-2.5,-0.5L0,-3.0L2.5,-0.5"/>
                </g>
                <g id="arrowDown" xlink:href="#dirArrow" transform="rotate(180) translate(-30 -48)" onmousedown="handlePan(0,1)">
                  <use xlink:href="#rim" fill="#404040">
                        <set attributeName="fill" to="#808080" begin="arrowDown.mouseover" end="arrowDown.mouseout"/>
                  </use>
                  <path fill="none" stroke="white" stroke-width="1.5" d="M0,-3.0v7 M-2.5,-0.5L0,-3.0L2.5,-0.5"/>
                </g>
                <g id="arrowLeft" xlink:href="#dirArrow" transform="rotate(270) translate(-36 17)" onmousedown="handlePan(-1,0)">
                  <use xlink:href="#rim" fill="#404040">
                        <set attributeName="fill" to="#808080" begin="arrowLeft.mouseover" end="arrowLeft.mouseout"/>
                  </use>
                  <path fill="none" stroke="white" stroke-width="1.5" d="M0,-3.0v7 M-2.5,-0.5L0,-3.0L2.5,-0.5"/>
                </g>
        </g>
        <svg viewBox="0 0 15 15" width="100%" height="30px" preserveAspectRatio="xMaxYMin meet">
         <g id="arrow_out" transform="scale(0.3 0.3)">
          <a xlink:href="classTCling__coll__graph_org.svg" target="_base">
           <rect id="button" ry="5" rx="5" y="6" x="6" height="38" width="38"
                fill="#f2f5e9" fill-opacity="0.5" stroke="#606060" stroke-width="1.0"/>
           <path id="arrow"
             d="M 11.500037,31.436501 C 11.940474,20.09759 22.043105,11.32322 32.158766,21.979434 L 37.068811,17.246167 C 37.068811,17.246167 37.088388,32 37.088388,32 L 22.160133,31.978069 C 22.160133,31.978069 26.997745,27.140456 26.997745,27.140456 C 18.528582,18.264221 13.291696,25.230495 11.500037,31.436501 z"
             style="fill:#404040;"/>
          </a>
         </g>
        </svg>
</svg>
