<?xml version="1.0" encoding="UTF-8" standalone="no"?>
<!DOCTYPE svg PUBLIC "-//W3C//DTD SVG 1.1//EN"
 "http://www.w3.org/Graphics/SVG/1.1/DTD/svg11.dtd">
<!-- Generated by graphviz version 2.40.1 (0)
 -->
<!-- Title: RooCFunction2Map&lt; VO, VI1, VI2 &gt; Pages: 1 -->
<svg width="377pt" height="149pt"
 viewBox="0.00 0.00 377.00 148.50" xmlns="http://www.w3.org/2000/svg" xmlns:xlink="http://www.w3.org/1999/xlink">
<g id="graph0" class="graph" transform="scale(1 1) rotate(0) translate(4 144.5)">
<title>RooCFunction2Map&lt; VO, VI1, VI2 &gt;</title>
<polygon fill="#ffffff" stroke="transparent" points="-4,4 -4,-144.5 373,-144.5 373,4 -4,4"/>
<!-- Node1 -->
<g id="node1" class="node">
<title>Node1</title>
<polygon fill="#bfbfbf" stroke="#000000" points="232,-49.5 232,-79.5 369,-79.5 369,-49.5 232,-49.5"/>
<text text-anchor="start" x="240" y="-67.5" font-family="Helvetica,sans-Serif" font-size="10.00" fill="#000000">RooCFunction2Map&lt; VO,</text>
<text text-anchor="middle" x="300.5" y="-56.5" font-family="Helvetica,sans-Serif" font-size="10.00" fill="#000000"> VI1, VI2 &gt;</text>
</g>
<!-- Node2 -->
<g id="node2" class="node">
<title>Node2</title>
<polygon fill="#ffffff" stroke="#bfbfbf" points="1,-99 1,-140 121,-140 121,-99 1,-99"/>
<text text-anchor="start" x="9" y="-128" font-family="Helvetica,sans-Serif" font-size="10.00" fill="#000000">std::map&lt; VO(*)(VI1,</text>
<text text-anchor="start" x="9" y="-117" font-family="Helvetica,sans-Serif" font-size="10.00" fill="#000000"> VI2), std::vector&lt;</text>
<text text-anchor="middle" x="61" y="-106" font-family="Helvetica,sans-Serif" font-size="10.00" fill="#000000"> std::string &gt; &gt;</text>
</g>
<!-- Node2&#45;&gt;Node1 -->
<g id="edge1" class="edge">
<title>Node2&#45;&gt;Node1</title>
<path fill="none" stroke="#9a32cd" stroke-dasharray="5,2" d="M131.0912,-103.4039C163.8678,-95.8769 202.6763,-86.9647 234.8737,-79.5708"/>
<polygon fill="#9a32cd" stroke="#9a32cd" points="130.0897,-100.0427 121.1268,-105.6922 131.6565,-106.8651 130.0897,-100.0427"/>
<text text-anchor="middle" x="177" y="-102.5" font-family="Helvetica,sans-Serif" font-size="10.00" fill="#000000"> _argnamemap</text>
</g>
<!-- Node3 -->
<g id="node3" class="node">
<title>Node3</title>
<polygon fill="#ffffff" stroke="#bfbfbf" points="1,-49.5 1,-79.5 121,-79.5 121,-49.5 1,-49.5"/>
<text text-anchor="start" x="9" y="-67.5" font-family="Helvetica,sans-Serif" font-size="10.00" fill="#000000">std::map&lt; VO(*)(VI1,</text>
<text text-anchor="middle" x="61" y="-56.5" font-family="Helvetica,sans-Serif" font-size="10.00" fill="#000000"> VI2), std::string &gt;</text>
</g>
<!-- Node3&#45;&gt;Node1 -->
<g id="edge2" class="edge">
<title>Node3&#45;&gt;Node1</title>
<path fill="none" stroke="#9a32cd" stroke-dasharray="5,2" d="M131.2184,-64.5C162.955,-64.5 200.3261,-64.5 231.8708,-64.5"/>
<polygon fill="#9a32cd" stroke="#9a32cd" points="131.1269,-61.0001 121.1268,-64.5 131.1268,-68.0001 131.1269,-61.0001"/>
<text text-anchor="middle" x="177" y="-67.5" font-family="Helvetica,sans-Serif" font-size="10.00" fill="#000000"> _namemap</text>
</g>
<!-- Node4 -->
<g id="node4" class="node">
<title>Node4</title>
<polygon fill="#ffffff" stroke="#bfbfbf" points="0,-.5 0,-30.5 122,-30.5 122,-.5 0,-.5"/>
<text text-anchor="start" x="8" y="-18.5" font-family="Helvetica,sans-Serif" font-size="10.00" fill="#000000">std::map&lt; std::string,</text>
<text text-anchor="middle" x="61" y="-7.5" font-family="Helvetica,sans-Serif" font-size="10.00" fill="#000000"> VO(*)(VI1, VI2)&gt;</text>
</g>
<!-- Node4&#45;&gt;Node1 -->
<g id="edge3" class="edge">
<title>Node4&#45;&gt;Node1</title>
<path fill="none" stroke="#9a32cd" stroke-dasharray="5,2" d="M132.1008,-30.0467C163.6715,-36.5059 200.6777,-44.0771 231.9466,-50.4745"/>
<polygon fill="#9a32cd" stroke="#9a32cd" points="132.5543,-26.5671 122.0557,-27.9916 131.1511,-33.425 132.5543,-26.5671"/>
<text text-anchor="middle" x="177" y="-49.5" font-family="Helvetica,sans-Serif" font-size="10.00" fill="#000000"> _ptrmap</text>
</g>
</g>
</svg>
