<?xml version="1.0" encoding="UTF-8" standalone="no"?>
<!DOCTYPE svg PUBLIC "-//W3C//DTD SVG 1.1//EN"
 "http://www.w3.org/Graphics/SVG/1.1/DTD/svg11.dtd">
<!-- Generated by graphviz version 2.40.1 (0)
 -->
<!-- Title: ROOT::Experimental::Detail::RMenuArgument Pages: 1 -->
<svg width="147pt" height="207pt"
 viewBox="0.00 0.00 147.00 207.00" xmlns="http://www.w3.org/2000/svg" xmlns:xlink="http://www.w3.org/1999/xlink">
<g id="graph0" class="graph" transform="scale(1 1) rotate(0) translate(4 203)">
<title>ROOT::Experimental::Detail::RMenuArgument</title>
<polygon fill="#ffffff" stroke="transparent" points="-4,4 -4,-203 143,-203 143,4 -4,4"/>
<!-- Node1 -->
<g id="node1" class="node">
<title>Node1</title>
<polygon fill="#bfbfbf" stroke="#000000" points="0,-.5 0,-30.5 139,-30.5 139,-.5 0,-.5"/>
<text text-anchor="start" x="8" y="-18.5" font-family="Helvetica,sans-Serif" font-size="10.00" fill="#000000">ROOT::Experimental</text>
<text text-anchor="middle" x="69.5" y="-7.5" font-family="Helvetica,sans-Serif" font-size="10.00" fill="#000000">::Detail::RMenuArgument</text>
</g>
<!-- Node2 -->
<g id="node2" class="node">
<title>Node2</title>
<g id="a_node2"><a xlink:title="STL class. ">
<polygon fill="#ffffff" stroke="#bfbfbf" points="37,-111.5 37,-130.5 102,-130.5 102,-111.5 37,-111.5"/>
<text text-anchor="middle" x="69.5" y="-118.5" font-family="Helvetica,sans-Serif" font-size="10.00" fill="#000000">std::string</text>
</a>
</g>
</g>
<!-- Node2&#45;&gt;Node1 -->
<g id="edge1" class="edge">
<title>Node2&#45;&gt;Node1</title>
<path fill="none" stroke="#9a32cd" stroke-dasharray="5,2" d="M69.5,-101.1669C69.5,-80.6729 69.5,-49.1372 69.5,-30.5875"/>
<polygon fill="#9a32cd" stroke="#9a32cd" points="66.0001,-101.2639 69.5,-111.2639 73.0001,-101.264 66.0001,-101.2639"/>
<text text-anchor="middle" x="97.5" y="-85" font-family="Helvetica,sans-Serif" font-size="10.00" fill="#000000"> fTitle</text>
<text text-anchor="middle" x="97.5" y="-74" font-family="Helvetica,sans-Serif" font-size="10.00" fill="#000000">fTypeName</text>
<text text-anchor="middle" x="97.5" y="-63" font-family="Helvetica,sans-Serif" font-size="10.00" fill="#000000">fName</text>
<text text-anchor="middle" x="97.5" y="-52" font-family="Helvetica,sans-Serif" font-size="10.00" fill="#000000">fDefault</text>
</g>
<!-- Node3 -->
<g id="node3" class="node">
<title>Node3</title>
<polygon fill="#ffffff" stroke="#bfbfbf" points="17.5,-168.5 17.5,-198.5 121.5,-198.5 121.5,-168.5 17.5,-168.5"/>
<text text-anchor="start" x="25.5" y="-186.5" font-family="Helvetica,sans-Serif" font-size="10.00" fill="#000000">std::basic_string&lt;</text>
<text text-anchor="middle" x="69.5" y="-175.5" font-family="Helvetica,sans-Serif" font-size="10.00" fill="#000000"> char &gt;</text>
</g>
<!-- Node3&#45;&gt;Node2 -->
<g id="edge2" class="edge">
<title>Node3&#45;&gt;Node2</title>
<path fill="none" stroke="#191970" d="M69.5,-158.3498C69.5,-148.6481 69.5,-138.1303 69.5,-130.7356"/>
<polygon fill="#191970" stroke="#191970" points="66.0001,-158.3705 69.5,-168.3705 73.0001,-158.3705 66.0001,-158.3705"/>
</g>
</g>
</svg>
