<?xml version="1.0" encoding="UTF-8" standalone="no"?>
<!DOCTYPE svg PUBLIC "-//W3C//DTD SVG 1.1//EN"
 "http://www.w3.org/Graphics/SVG/1.1/DTD/svg11.dtd">
<!-- Generated by graphviz version 2.40.1 (0)
 -->
<!-- Title: ROOT::Internal::RDF::RJittedAction Pages: 1 -->
<!--zoomable 455 -->
<svg id="main" version="1.1" xmlns="http://www.w3.org/2000/svg" xmlns:xlink="http://www.w3.org/1999/xlink" xml:space="preserve" onload="init(evt)">
<style type="text/css"><![CDATA[
.edge:hover path { stroke: red; }
.edge:hover polygon { stroke: red; fill: red; }
]]></style>
<script type="text/javascript"><![CDATA[
var edges = document.getElementsByTagName('g');
if (edges && edges.length) {
  for (var i=0;i<edges.length;i++) {
    if (edges[i].id.substr(0,4)=='edge') {
      edges[i].setAttribute('class','edge');
    }
  }
}
]]></script>
        <defs>
                <circle id="rim" cx="0" cy="0" r="7"/>
                <circle id="rim2" cx="0" cy="0" r="3.5"/>
                <g id="zoomPlus">
                        <use xlink:href="#rim" fill="#404040">
                                <set attributeName="fill" to="#808080" begin="zoomplus.mouseover" end="zoomplus.mouseout"/>
                        </use>
                        <path d="M-4,0h8M0,-4v8" fill="none" stroke="white" stroke-width="1.5" pointer-events="none"/>
                </g>
                <g id="zoomMin">
                        <use xlink:href="#rim" fill="#404040">
                                <set attributeName="fill" to="#808080" begin="zoomminus.mouseover" end="zoomminus.mouseout"/>
                        </use>
                        <path d="M-4,0h8" fill="none" stroke="white" stroke-width="1.5" pointer-events="none"/>
                </g>
                <g id="dirArrow">
                        <path fill="none" stroke="white" stroke-width="1.5" d="M0,-3.0v7 M-2.5,-0.5L0,-3.0L2.5,-0.5"/>
                </g>
               <g id="resetDef">
                       <use xlink:href="#rim2" fill="#404040">
                               <set attributeName="fill" to="#808080" begin="reset.mouseover" end="reset.mouseout"/>
                       </use>
               </g>
        </defs>

<script type="text/javascript">
var viewWidth = 1129;
var viewHeight = 455;
var sectionId = 'dynsection-1';
</script>
<script xlink:href="svgpan.js"/>
<svg id="graph" class="graph">
<g id="viewport">
<title>ROOT::Internal::RDF::RJittedAction</title>
<polygon fill="#ffffff" stroke="transparent" points="-4,4 -4,-451 1125,-451 1125,4 -4,4"/>
<!-- Node2 -->
<g id="node1" class="node">
<title>Node2</title>
<polygon fill="#bfbfbf" stroke="#000000" points="1008,-102.5 1008,-132.5 1121,-132.5 1121,-102.5 1008,-102.5"/>
<text text-anchor="start" x="1016" y="-120.5" font-family="Helvetica,sans-Serif" font-size="10.00" fill="#000000">ROOT::Internal::RDF</text>
<text text-anchor="middle" x="1064.5" y="-109.5" font-family="Helvetica,sans-Serif" font-size="10.00" fill="#000000">::RJittedAction</text>
</g>
<!-- Node3 -->
<g id="node2" class="node">
<title>Node3</title>
<g id="a_node2"><a xlink:href="classROOT_1_1Internal_1_1RDF_1_1RActionBase.html" target="_top" xlink:title="ROOT::Internal::RDF\l::RActionBase">
<polygon fill="#ffffff" stroke="#000000" points="752,-138.5 752,-168.5 865,-168.5 865,-138.5 752,-138.5"/>
<text text-anchor="start" x="760" y="-156.5" font-family="Helvetica,sans-Serif" font-size="10.00" fill="#000000">ROOT::Internal::RDF</text>
<text text-anchor="middle" x="808.5" y="-145.5" font-family="Helvetica,sans-Serif" font-size="10.00" fill="#000000">::RActionBase</text>
</a>
</g>
</g>
<!-- Node3&#45;&gt;Node2 -->
<g id="edge1" class="edge">
<title>Node3&#45;&gt;Node2</title>
<path fill="none" stroke="#191970" d="M875.2619,-144.1116C916.4427,-138.3206 968.6874,-130.9737 1007.8441,-125.4672"/>
<polygon fill="#191970" stroke="#191970" points="874.7298,-140.6519 865.3147,-145.5104 875.7047,-147.5837 874.7298,-140.6519"/>
</g>
<!-- Node4 -->
<g id="node3" class="node">
<title>Node4</title>
<g id="a_node3"><a xlink:href="classROOT_1_1Detail_1_1RDF_1_1RLoopManager.html" target="_top" xlink:title="The head node of a RDF computation graph. ">
<polygon fill="#ffffff" stroke="#000000" points="475,-197.5 475,-227.5 585,-227.5 585,-197.5 475,-197.5"/>
<text text-anchor="start" x="483" y="-215.5" font-family="Helvetica,sans-Serif" font-size="10.00" fill="#000000">ROOT::Detail::RDF::</text>
<text text-anchor="middle" x="530" y="-204.5" font-family="Helvetica,sans-Serif" font-size="10.00" fill="#000000">RLoopManager</text>
</a>
</g>
</g>
<!-- Node4&#45;&gt;Node3 -->
<g id="edge2" class="edge">
<title>Node4&#45;&gt;Node3</title>
<path fill="none" stroke="#9a32cd" stroke-dasharray="5,2" d="M594.8959,-198.7519C642.3842,-188.6915 706.1973,-175.1727 751.6796,-165.5374"/>
<polygon fill="#9a32cd" stroke="#9a32cd" points="594.0801,-195.3469 585.0226,-200.8435 595.5309,-202.1949 594.0801,-195.3469"/>
<text text-anchor="middle" x="665" y="-194.5" font-family="Helvetica,sans-Serif" font-size="10.00" fill="#000000"> fLoopManager</text>
</g>
<!-- Node5 -->
<g id="node4" class="node">
<title>Node5</title>
<g id="a_node4"><a xlink:href="classROOT_1_1Detail_1_1RDF_1_1RNodeBase.html" target="_top" xlink:title="Base class for non&#45;leaf nodes of the computational graph. ">
<polygon fill="#ffffff" stroke="#000000" points="753.5,-210.5 753.5,-240.5 863.5,-240.5 863.5,-210.5 753.5,-210.5"/>
<text text-anchor="start" x="761.5" y="-228.5" font-family="Helvetica,sans-Serif" font-size="10.00" fill="#000000">ROOT::Detail::RDF::</text>
<text text-anchor="middle" x="808.5" y="-217.5" font-family="Helvetica,sans-Serif" font-size="10.00" fill="#000000">RNodeBase</text>
</a>
</g>
</g>
<!-- Node4&#45;&gt;Node5 -->
<g id="edge4" class="edge">
<title>Node4&#45;&gt;Node5</title>
<path fill="none" stroke="#9a32cd" stroke-dasharray="5,2" d="M595.3794,-211.6952C603.996,-211.6144 612.7103,-211.5455 621,-211.5 660.1105,-211.2851 669.9844,-208.7686 709,-211.5 723.4436,-212.5111 738.9806,-214.3383 753.3838,-216.346"/>
<polygon fill="#9a32cd" stroke="#9a32cd" points="595.3052,-208.1956 585.3404,-211.7947 595.3747,-215.1953 595.3052,-208.1956"/>
<text text-anchor="middle" x="665" y="-214.5" font-family="Helvetica,sans-Serif" font-size="10.00" fill="#000000"> fLoopManager</text>
</g>
<!-- Node5&#45;&gt;Node4 -->
<g id="edge3" class="edge">
<title>Node5&#45;&gt;Node4</title>
<path fill="none" stroke="#191970" d="M743.0782,-227.1646C707.0256,-227.5758 661.4958,-227.267 621,-224.5 609.3942,-223.707 597.0078,-222.3905 585.2296,-220.9135"/>
<polygon fill="#191970" stroke="#191970" points="743.5122,-230.6591 753.4637,-227.0234 743.417,-223.6597 743.5122,-230.6591"/>
</g>
<!-- Node6 -->
<g id="node5" class="node">
<title>Node6</title>
<polygon fill="#ffffff" stroke="#bfbfbf" points="148,-416.5 148,-446.5 296,-446.5 296,-416.5 148,-416.5"/>
<text text-anchor="start" x="156" y="-434.5" font-family="Helvetica,sans-Serif" font-size="10.00" fill="#000000">std::vector&lt; ROOT::</text>
<text text-anchor="middle" x="222" y="-423.5" font-family="Helvetica,sans-Serif" font-size="10.00" fill="#000000">Detail::RDF::RFilterBase *&gt;</text>
</g>
<!-- Node6&#45;&gt;Node4 -->
<g id="edge5" class="edge">
<title>Node6&#45;&gt;Node4</title>
<path fill="none" stroke="#9a32cd" stroke-dasharray="5,2" d="M306.0547,-427.4587C349.4646,-421.6406 401.1202,-408.5081 439,-379.5 491.1667,-339.5511 517.2184,-260.7983 526.2334,-227.7092"/>
<polygon fill="#9a32cd" stroke="#9a32cd" points="305.5677,-423.9921 296.071,-428.6892 306.4241,-430.9396 305.5677,-423.9921"/>
<text text-anchor="middle" x="380" y="-438.5" font-family="Helvetica,sans-Serif" font-size="10.00" fill="#000000"> fBookedNamedFilters</text>
<text text-anchor="middle" x="380" y="-427.5" font-family="Helvetica,sans-Serif" font-size="10.00" fill="#000000">fBookedFilters</text>
</g>
<!-- Node7 -->
<g id="node6" class="node">
<title>Node7</title>
<polygon fill="#ffffff" stroke="#bfbfbf" points="158,-367.5 158,-397.5 286,-397.5 286,-367.5 158,-367.5"/>
<text text-anchor="start" x="166" y="-385.5" font-family="Helvetica,sans-Serif" font-size="10.00" fill="#000000">std::unique_ptr&lt; ROOT</text>
<text text-anchor="middle" x="222" y="-374.5" font-family="Helvetica,sans-Serif" font-size="10.00" fill="#000000">::RDF::RDataSource &gt;</text>
</g>
<!-- Node7&#45;&gt;Node4 -->
<g id="edge6" class="edge">
<title>Node7&#45;&gt;Node4</title>
<path fill="none" stroke="#9a32cd" stroke-dasharray="5,2" d="M296.4457,-371.4754C340.541,-362.3865 396.0103,-346.3042 439,-318.5 476.2692,-294.3956 506.7563,-250.5868 521.1129,-227.5621"/>
<polygon fill="#9a32cd" stroke="#9a32cd" points="295.4884,-368.097 286.3596,-373.4743 296.8493,-374.9634 295.4884,-368.097"/>
<text text-anchor="middle" x="380" y="-367.5" font-family="Helvetica,sans-Serif" font-size="10.00" fill="#000000"> fDataSource</text>
</g>
<!-- Node8 -->
<g id="node7" class="node">
<title>Node8</title>
<polygon fill="#ffffff" stroke="#bfbfbf" points="147.5,-307 147.5,-348 296.5,-348 296.5,-307 147.5,-307"/>
<text text-anchor="start" x="155.5" y="-336" font-family="Helvetica,sans-Serif" font-size="10.00" fill="#000000">std::vector&lt; ROOT::</text>
<text text-anchor="start" x="155.5" y="-325" font-family="Helvetica,sans-Serif" font-size="10.00" fill="#000000">Detail::RDF::RLoopManager</text>
<text text-anchor="middle" x="222" y="-314" font-family="Helvetica,sans-Serif" font-size="10.00" fill="#000000">::TOneTimeCallback &gt;</text>
</g>
<!-- Node8&#45;&gt;Node4 -->
<g id="edge7" class="edge">
<title>Node8&#45;&gt;Node4</title>
<path fill="none" stroke="#9a32cd" stroke-dasharray="5,2" d="M306.4945,-307.9418C347.3157,-297.2478 396.539,-282.4948 439,-264.5 463.2928,-254.2048 489.2607,-238.8897 507.2126,-227.5442"/>
<polygon fill="#9a32cd" stroke="#9a32cd" points="305.3837,-304.6137 296.5769,-310.5037 307.1345,-311.3913 305.3837,-304.6137"/>
<text text-anchor="middle" x="380" y="-306.5" font-family="Helvetica,sans-Serif" font-size="10.00" fill="#000000"> fCallbacksOnce</text>
</g>
<!-- Node9 -->
<g id="node8" class="node">
<title>Node9</title>
<polygon fill="#ffffff" stroke="#bfbfbf" points="147.5,-247 147.5,-288 296.5,-288 296.5,-247 147.5,-247"/>
<text text-anchor="start" x="155.5" y="-276" font-family="Helvetica,sans-Serif" font-size="10.00" fill="#000000">std::vector&lt; ROOT::</text>
<text text-anchor="start" x="155.5" y="-265" font-family="Helvetica,sans-Serif" font-size="10.00" fill="#000000">Detail::RDF::RLoopManager</text>
<text text-anchor="middle" x="222" y="-254" font-family="Helvetica,sans-Serif" font-size="10.00" fill="#000000">::TCallback &gt;</text>
</g>
<!-- Node9&#45;&gt;Node4 -->
<g id="edge8" class="edge">
<title>Node9&#45;&gt;Node4</title>
<path fill="none" stroke="#9a32cd" stroke-dasharray="5,2" d="M306.4117,-252.4265C360.1181,-242.8361 428.1229,-230.6923 474.9524,-222.3299"/>
<polygon fill="#9a32cd" stroke="#9a32cd" points="305.7872,-248.9825 296.5582,-254.186 307.0178,-255.8735 305.7872,-248.9825"/>
<text text-anchor="middle" x="380" y="-252.5" font-family="Helvetica,sans-Serif" font-size="10.00" fill="#000000"> fCallbacks</text>
</g>
<!-- Node10 -->
<g id="node9" class="node">
<title>Node10</title>
<polygon fill="#ffffff" stroke="#bfbfbf" points="161,-197.5 161,-227.5 283,-227.5 283,-197.5 161,-197.5"/>
<text text-anchor="start" x="169" y="-215.5" font-family="Helvetica,sans-Serif" font-size="10.00" fill="#000000">std::map&lt; std::string,</text>
<text text-anchor="middle" x="222" y="-204.5" font-family="Helvetica,sans-Serif" font-size="10.00" fill="#000000"> std::string &gt;</text>
</g>
<!-- Node10&#45;&gt;Node4 -->
<g id="edge9" class="edge">
<title>Node10&#45;&gt;Node4</title>
<path fill="none" stroke="#9a32cd" stroke-dasharray="5,2" d="M293.2978,-212.5C348.5912,-212.5 424.1081,-212.5 474.841,-212.5"/>
<polygon fill="#9a32cd" stroke="#9a32cd" points="293.2192,-209.0001 283.2191,-212.5 293.2191,-216.0001 293.2192,-209.0001"/>
<text text-anchor="middle" x="380" y="-215.5" font-family="Helvetica,sans-Serif" font-size="10.00" fill="#000000"> fAliasColumnNameMap</text>
</g>
<!-- Node11 -->
<g id="node10" class="node">
<title>Node11</title>
<g id="a_node10"><a xlink:title="STL class. ">
<polygon fill="#ffffff" stroke="#bfbfbf" points="189.5,-159 189.5,-178 254.5,-178 254.5,-159 189.5,-159"/>
<text text-anchor="middle" x="222" y="-166" font-family="Helvetica,sans-Serif" font-size="10.00" fill="#000000">std::string</text>
</a>
</g>
</g>
<!-- Node11&#45;&gt;Node4 -->
<g id="edge10" class="edge">
<title>Node11&#45;&gt;Node4</title>
<path fill="none" stroke="#9a32cd" stroke-dasharray="5,2" d="M264.6645,-169.5793C308.6588,-171.2654 379.0943,-175.5662 439,-186.5 453.709,-189.1846 469.4595,-193.246 483.6523,-197.3661"/>
<polygon fill="#9a32cd" stroke="#9a32cd" points="264.7304,-166.0795 254.6124,-169.2221 264.4818,-173.0751 264.7304,-166.0795"/>
<text text-anchor="middle" x="380" y="-200.5" font-family="Helvetica,sans-Serif" font-size="10.00" fill="#000000"> fToJitExec</text>
<text text-anchor="middle" x="380" y="-189.5" font-family="Helvetica,sans-Serif" font-size="10.00" fill="#000000">fToJitDeclare</text>
</g>
<!-- Node12 -->
<g id="node11" class="node">
<title>Node12</title>
<polygon fill="#ffffff" stroke="#bfbfbf" points="0,-153.5 0,-183.5 104,-183.5 104,-153.5 0,-153.5"/>
<text text-anchor="start" x="8" y="-171.5" font-family="Helvetica,sans-Serif" font-size="10.00" fill="#000000">std::basic_string&lt;</text>
<text text-anchor="middle" x="52" y="-160.5" font-family="Helvetica,sans-Serif" font-size="10.00" fill="#000000"> char &gt;</text>
</g>
<!-- Node12&#45;&gt;Node11 -->
<g id="edge11" class="edge">
<title>Node12&#45;&gt;Node11</title>
<path fill="none" stroke="#191970" d="M114.6719,-168.5C139.9953,-168.5 168.1646,-168.5 189.2883,-168.5"/>
<polygon fill="#191970" stroke="#191970" points="114.3928,-165.0001 104.3928,-168.5 114.3927,-172.0001 114.3928,-165.0001"/>
</g>
<!-- Node13 -->
<g id="node12" class="node">
<title>Node13</title>
<polygon fill="#ffffff" stroke="#bfbfbf" points="143,-99 143,-140 301,-140 301,-99 143,-99"/>
<text text-anchor="start" x="151" y="-128" font-family="Helvetica,sans-Serif" font-size="10.00" fill="#000000">std::vector&lt; ROOT::</text>
<text text-anchor="start" x="151" y="-117" font-family="Helvetica,sans-Serif" font-size="10.00" fill="#000000">Detail::RDF::RCustomColumn</text>
<text text-anchor="middle" x="222" y="-106" font-family="Helvetica,sans-Serif" font-size="10.00" fill="#000000">Base *&gt;</text>
</g>
<!-- Node13&#45;&gt;Node4 -->
<g id="edge12" class="edge">
<title>Node13&#45;&gt;Node4</title>
<path fill="none" stroke="#9a32cd" stroke-dasharray="5,2" d="M311.2663,-126.7048C351.376,-132.0543 398.6544,-141.3536 439,-157.5 447.9265,-161.0724 448.8546,-164.3914 457,-169.5 472.2023,-179.0345 489.4941,-189.2472 503.4312,-197.3264"/>
<polygon fill="#9a32cd" stroke="#9a32cd" points="311.5938,-123.2183 301.2319,-125.4281 310.7102,-130.1623 311.5938,-123.2183"/>
<text text-anchor="middle" x="380" y="-160.5" font-family="Helvetica,sans-Serif" font-size="10.00" fill="#000000"> fCustomColumns</text>
</g>
<!-- Node14 -->
<g id="node13" class="node">
<title>Node14</title>
<polygon fill="#ffffff" stroke="#bfbfbf" points="144.5,-49.5 144.5,-79.5 299.5,-79.5 299.5,-49.5 144.5,-49.5"/>
<text text-anchor="start" x="152.5" y="-67.5" font-family="Helvetica,sans-Serif" font-size="10.00" fill="#000000">std::vector&lt; ROOT::</text>
<text text-anchor="middle" x="222" y="-56.5" font-family="Helvetica,sans-Serif" font-size="10.00" fill="#000000">Detail::RDF::RRangeBase *&gt;</text>
</g>
<!-- Node14&#45;&gt;Node4 -->
<g id="edge13" class="edge">
<title>Node14&#45;&gt;Node4</title>
<path fill="none" stroke="#9a32cd" stroke-dasharray="5,2" d="M309.7999,-64.6054C353.517,-69.1249 404.3009,-81.7568 439,-113.5 458.2892,-131.1461 440.6687,-149.0857 457,-169.5 466.4642,-181.3303 480.1299,-190.6018 493.0842,-197.4584"/>
<polygon fill="#9a32cd" stroke="#9a32cd" points="309.9987,-61.1092 299.7235,-63.6918 309.3665,-68.0806 309.9987,-61.1092"/>
<text text-anchor="middle" x="380" y="-116.5" font-family="Helvetica,sans-Serif" font-size="10.00" fill="#000000"> fBookedRanges</text>
</g>
<!-- Node15 -->
<g id="node14" class="node">
<title>Node15</title>
<polygon fill="#ffffff" stroke="#bfbfbf" points="141,-.5 141,-30.5 303,-30.5 303,-.5 141,-.5"/>
<text text-anchor="start" x="149" y="-18.5" font-family="Helvetica,sans-Serif" font-size="10.00" fill="#000000">std::vector&lt; ROOT::</text>
<text text-anchor="middle" x="222" y="-7.5" font-family="Helvetica,sans-Serif" font-size="10.00" fill="#000000">Internal::RDF::RActionBase *&gt;</text>
</g>
<!-- Node15&#45;&gt;Node4 -->
<g id="edge14" class="edge">
<title>Node15&#45;&gt;Node4</title>
<path fill="none" stroke="#9a32cd" stroke-dasharray="5,2" d="M313.2202,-2.7362C356.838,-1.9425 406.501,-9.6593 439,-41.5 480.0358,-81.7046 425.0812,-121.7346 457,-169.5 465.0906,-181.6073 477.8409,-190.7811 490.4369,-197.4796"/>
<polygon fill="#9a32cd" stroke="#9a32cd" points="313.0273,.7595 303.1485,-3.0692 313.2587,-6.2367 313.0273,.7595"/>
<text text-anchor="middle" x="380" y="-55.5" font-family="Helvetica,sans-Serif" font-size="10.00" fill="#000000"> fBookedActions</text>
<text text-anchor="middle" x="380" y="-44.5" font-family="Helvetica,sans-Serif" font-size="10.00" fill="#000000">fRunActions</text>
</g>
<!-- Node16 -->
<g id="node15" class="node">
<title>Node16</title>
<g id="a_node15"><a xlink:href="classROOT_1_1Internal_1_1RDF_1_1RBookedCustomColumns.html" target="_top" xlink:title="Encapsulates the columns defined by the user. ">
<polygon fill="#ffffff" stroke="#000000" points="457,-129.5 457,-159.5 603,-159.5 603,-129.5 457,-129.5"/>
<text text-anchor="start" x="465" y="-147.5" font-family="Helvetica,sans-Serif" font-size="10.00" fill="#000000">ROOT::Internal::RDF</text>
<text text-anchor="middle" x="530" y="-136.5" font-family="Helvetica,sans-Serif" font-size="10.00" fill="#000000">::RBookedCustomColumns</text>
</a>
</g>
</g>
<!-- Node16&#45;&gt;Node3 -->
<g id="edge15" class="edge">
<title>Node16&#45;&gt;Node3</title>
<path fill="none" stroke="#9a32cd" stroke-dasharray="5,2" d="M613.2479,-143.6756C643.4203,-143.7173 677.7577,-144.1586 709,-145.5 722.9379,-146.0984 737.9487,-147.1115 751.9796,-148.2194"/>
<polygon fill="#9a32cd" stroke="#9a32cd" points="613.1855,-140.1755 603.1857,-143.6761 613.1859,-147.1755 613.1855,-140.1755"/>
<text text-anchor="middle" x="665" y="-148.5" font-family="Helvetica,sans-Serif" font-size="10.00" fill="#000000"> fCustomColumns</text>
</g>
<!-- Node17 -->
<g id="node16" class="node">
<title>Node17</title>
<polygon fill="#ffffff" stroke="#bfbfbf" points="727,-89.5 727,-119.5 890,-119.5 890,-89.5 727,-89.5"/>
<text text-anchor="start" x="735" y="-107.5" font-family="Helvetica,sans-Serif" font-size="10.00" fill="#000000">std::unique_ptr&lt; ROOT</text>
<text text-anchor="middle" x="808.5" y="-96.5" font-family="Helvetica,sans-Serif" font-size="10.00" fill="#000000">::Internal::RDF::RActionBase &gt;</text>
</g>
<!-- Node17&#45;&gt;Node2 -->
<g id="edge16" class="edge">
<title>Node17&#45;&gt;Node2</title>
<path fill="none" stroke="#9a32cd" stroke-dasharray="5,2" d="M900.2192,-109.1576C936.1567,-110.9826 976.2532,-113.0187 1007.8367,-114.6226"/>
<polygon fill="#9a32cd" stroke="#9a32cd" points="900.3685,-105.6608 890.2039,-108.649 900.0134,-112.6518 900.3685,-105.6608"/>
<text text-anchor="middle" x="949" y="-117.5" font-family="Helvetica,sans-Serif" font-size="10.00" fill="#000000"> fConcreteAction</text>
</g>
</g>
</svg>
        <g id="navigator" transform="translate(0 0)" fill="#404254">
                <rect fill="#f2f5e9" fill-opacity="0.5" stroke="#606060" stroke-width=".5" x="0" y="0" width="60" height="60"/>
                <use id="zoomplus" xlink:href="#zoomPlus" x="17" y="9" onmousedown="handleZoom(evt,'in')"/>
                <use id="zoomminus" xlink:href="#zoomMin" x="42" y="9" onmousedown="handleZoom(evt,'out')"/>
                <use id="reset" xlink:href="#resetDef" x="30" y="36" onmousedown="handleReset()"/>
                <g id="arrowUp" xlink:href="#dirArrow" transform="translate(30 24)" onmousedown="handlePan(0,-1)">
                  <use xlink:href="#rim" fill="#404040">
                        <set attributeName="fill" to="#808080" begin="arrowUp.mouseover" end="arrowUp.mouseout"/>
                  </use>
                  <path fill="none" stroke="white" stroke-width="1.5" d="M0,-3.0v7 M-2.5,-0.5L0,-3.0L2.5,-0.5"/>
                </g>
                <g id="arrowRight" xlink:href="#dirArrow" transform="rotate(90) translate(36 -43)" onmousedown="handlePan(1,0)">
                  <use xlink:href="#rim" fill="#404040">
                        <set attributeName="fill" to="#808080" begin="arrowRight.mouseover" end="arrowRight.mouseout"/>
                  </use>
                  <path fill="none" stroke="white" stroke-width="1.5" d="M0,-3.0v7 M-2.5,-0.5L0,-3.0L2.5,-0.5"/>
                </g>
                <g id="arrowDown" xlink:href="#dirArrow" transform="rotate(180) translate(-30 -48)" onmousedown="handlePan(0,1)">
                  <use xlink:href="#rim" fill="#404040">
                        <set attributeName="fill" to="#808080" begin="arrowDown.mouseover" end="arrowDown.mouseout"/>
                  </use>
                  <path fill="none" stroke="white" stroke-width="1.5" d="M0,-3.0v7 M-2.5,-0.5L0,-3.0L2.5,-0.5"/>
                </g>
                <g id="arrowLeft" xlink:href="#dirArrow" transform="rotate(270) translate(-36 17)" onmousedown="handlePan(-1,0)">
                  <use xlink:href="#rim" fill="#404040">
                        <set attributeName="fill" to="#808080" begin="arrowLeft.mouseover" end="arrowLeft.mouseout"/>
                  </use>
                  <path fill="none" stroke="white" stroke-width="1.5" d="M0,-3.0v7 M-2.5,-0.5L0,-3.0L2.5,-0.5"/>
                </g>
        </g>
        <svg viewBox="0 0 15 15" width="100%" height="30px" preserveAspectRatio="xMaxYMin meet">
         <g id="arrow_out" transform="scale(0.3 0.3)">
          <a xlink:href="classROOT_1_1Internal_1_1RDF_1_1RJittedAction__coll__graph_org.svg" target="_base">
           <rect id="button" ry="5" rx="5" y="6" x="6" height="38" width="38"
                fill="#f2f5e9" fill-opacity="0.5" stroke="#606060" stroke-width="1.0"/>
           <path id="arrow"
             d="M 11.500037,31.436501 C 11.940474,20.09759 22.043105,11.32322 32.158766,21.979434 L 37.068811,17.246167 C 37.068811,17.246167 37.088388,32 37.088388,32 L 22.160133,31.978069 C 22.160133,31.978069 26.997745,27.140456 26.997745,27.140456 C 18.528582,18.264221 13.291696,25.230495 11.500037,31.436501 z"
             style="fill:#404040;"/>
          </a>
         </g>
        </svg>
</svg>
