<?xml version="1.0" encoding="UTF-8" standalone="no"?>
<!DOCTYPE svg PUBLIC "-//W3C//DTD SVG 1.1//EN"
 "http://www.w3.org/Graphics/SVG/1.1/DTD/svg11.dtd">
<!-- Generated by graphviz version 2.40.1 (0)
 -->
<!-- Title: TProtoClass Pages: 1 -->
<svg width="1222pt" height="210pt"
 viewBox="0.00 0.00 1222.00 209.50" xmlns="http://www.w3.org/2000/svg" xmlns:xlink="http://www.w3.org/1999/xlink">
<g id="graph0" class="graph" transform="scale(1 1) rotate(0) translate(4 205.5)">
<title>TProtoClass</title>
<polygon fill="#ffffff" stroke="transparent" points="-4,4 -4,-205.5 1218,-205.5 1218,4 -4,4"/>
<!-- Node3 -->
<g id="node1" class="node">
<title>Node3</title>
<polygon fill="#bfbfbf" stroke="#000000" points="1140,-88 1140,-107 1214,-107 1214,-88 1140,-88"/>
<text text-anchor="middle" x="1177" y="-95" font-family="Helvetica,sans-Serif" font-size="10.00" fill="#000000">TProtoClass</text>
</g>
<!-- Node4 -->
<g id="node2" class="node">
<title>Node4</title>
<g id="a_node2"><a xlink:href="classTNamed.html" target="_top" xlink:title="The TNamed class is the base class for all named ROOT classes. ">
<polygon fill="#ffffff" stroke="#000000" points="552.5,-50 552.5,-69 610.5,-69 610.5,-50 552.5,-50"/>
<text text-anchor="middle" x="581.5" y="-57" font-family="Helvetica,sans-Serif" font-size="10.00" fill="#000000">TNamed</text>
</a>
</g>
</g>
<!-- Node4&#45;&gt;Node3 -->
<g id="edge1" class="edge">
<title>Node4&#45;&gt;Node3</title>
<path fill="none" stroke="#191970" d="M620.5501,-59.8505C699.7873,-60.8413 885.0828,-64.5804 1040,-78.5 1073.9607,-81.5514 1112.3982,-87.0636 1139.897,-91.3677"/>
<polygon fill="#191970" stroke="#191970" points="620.5714,-56.3506 610.531,-59.733 620.4893,-63.3501 620.5714,-56.3506"/>
</g>
<!-- Node5 -->
<g id="node3" class="node">
<title>Node5</title>
<g id="a_node3"><a xlink:href="classTObject.html" target="_top" xlink:title="Mother of all ROOT objects. ">
<polygon fill="#ffffff" stroke="#000000" points="189,-154 189,-173 243,-173 243,-154 189,-154"/>
<text text-anchor="middle" x="216" y="-161" font-family="Helvetica,sans-Serif" font-size="10.00" fill="#000000">TObject</text>
</a>
</g>
</g>
<!-- Node5&#45;&gt;Node4 -->
<g id="edge2" class="edge">
<title>Node5&#45;&gt;Node4</title>
<path fill="none" stroke="#191970" d="M252.9435,-157.998C324.4309,-147.0134 478.9629,-121.5259 528,-99.5 544.7149,-91.9922 561.1766,-78.515 571.3306,-69.2968"/>
<polygon fill="#191970" stroke="#191970" points="252.3791,-154.5435 243.0212,-159.5113 253.4346,-161.4635 252.3791,-154.5435"/>
</g>
<!-- Node15 -->
<g id="node13" class="node">
<title>Node15</title>
<g id="a_node13"><a xlink:href="classTCollection.html" target="_top" xlink:title="Collection abstract base class. ">
<polygon fill="#ffffff" stroke="#000000" points="546,-142 546,-161 617,-161 617,-142 546,-142"/>
<text text-anchor="middle" x="581.5" y="-149" font-family="Helvetica,sans-Serif" font-size="10.00" fill="#000000">TCollection</text>
</a>
</g>
</g>
<!-- Node5&#45;&gt;Node15 -->
<g id="edge13" class="edge">
<title>Node5&#45;&gt;Node15</title>
<path fill="none" stroke="#191970" d="M253.4009,-162.2721C324.1558,-159.9491 476.7057,-154.9406 545.9814,-152.6661"/>
<polygon fill="#191970" stroke="#191970" points="253.053,-158.7815 243.1733,-162.6079 253.2828,-165.7777 253.053,-158.7815"/>
</g>
<!-- Node16 -->
<g id="node14" class="node">
<title>Node16</title>
<g id="a_node14"><a xlink:href="classTObjectTable.html" target="_top" xlink:title="This class registers all instances of TObject and its derived classes in a hash table. ">
<polygon fill="#ffffff" stroke="#000000" points="327,-180 327,-199 407,-199 407,-180 327,-180"/>
<text text-anchor="middle" x="367" y="-187" font-family="Helvetica,sans-Serif" font-size="10.00" fill="#000000">TObjectTable</text>
</a>
</g>
</g>
<!-- Node5&#45;&gt;Node16 -->
<g id="edge15" class="edge">
<title>Node5&#45;&gt;Node16</title>
<path fill="none" stroke="#191970" d="M253.4387,-169.9464C275.7291,-173.7845 304.0135,-178.6546 326.778,-182.5744"/>
<polygon fill="#191970" stroke="#191970" points="253.7939,-166.4561 243.345,-168.2084 252.606,-173.3546 253.7939,-166.4561"/>
</g>
<!-- Node5&#45;&gt;Node16 -->
<g id="edge16" class="edge">
<title>Node5&#45;&gt;Node16</title>
<path fill="none" stroke="#9a32cd" stroke-dasharray="5,2" d="M244.1941,-177.1934C254.025,-181.3112 265.2821,-185.3135 276,-187.5 292.4125,-190.8482 310.8352,-191.7666 326.7894,-191.6933"/>
<polygon fill="#9a32cd" stroke="#9a32cd" points="245.4735,-173.9325 234.9114,-173.1001 242.6491,-180.3374 245.4735,-173.9325"/>
<text text-anchor="middle" x="292.5" y="-193.5" font-family="Helvetica,sans-Serif" font-size="10.00" fill="#000000"> fTable</text>
</g>
<!-- Node6 -->
<g id="node4" class="node">
<title>Node6</title>
<g id="a_node4"><a xlink:href="classTString.html" target="_top" xlink:title="Basic string class. ">
<polygon fill="#ffffff" stroke="#000000" points="341.5,-50 341.5,-69 392.5,-69 392.5,-50 341.5,-50"/>
<text text-anchor="middle" x="367" y="-57" font-family="Helvetica,sans-Serif" font-size="10.00" fill="#000000">TString</text>
</a>
</g>
</g>
<!-- Node6&#45;&gt;Node4 -->
<g id="edge3" class="edge">
<title>Node6&#45;&gt;Node4</title>
<path fill="none" stroke="#9a32cd" stroke-dasharray="5,2" d="M402.4215,-48.1087C409.8077,-46.1926 417.599,-44.5021 425,-43.5 470.3638,-37.3576 482.7046,-36.8719 528,-43.5 537.017,-44.8195 546.6253,-47.3272 555.175,-49.9726"/>
<polygon fill="#9a32cd" stroke="#9a32cd" points="401.3725,-44.7675 392.6753,-50.818 403.2474,-51.5118 401.3725,-44.7675"/>
<text text-anchor="middle" x="476.5" y="-57.5" font-family="Helvetica,sans-Serif" font-size="10.00" fill="#000000"> fTitle</text>
<text text-anchor="middle" x="476.5" y="-46.5" font-family="Helvetica,sans-Serif" font-size="10.00" fill="#000000">fName</text>
</g>
<!-- Node6&#45;&gt;Node15 -->
<g id="edge17" class="edge">
<title>Node6&#45;&gt;Node15</title>
<path fill="none" stroke="#9a32cd" stroke-dasharray="5,2" d="M400.3917,-72.9096C433.0772,-86.1498 484.2011,-107.1638 528,-126.5 539.1609,-131.4273 551.5059,-137.1757 561.5226,-141.9172"/>
<polygon fill="#9a32cd" stroke="#9a32cd" points="401.4514,-69.5629 390.8684,-69.0606 398.8283,-76.0529 401.4514,-69.5629"/>
<text text-anchor="middle" x="476.5" y="-129.5" font-family="Helvetica,sans-Serif" font-size="10.00" fill="#000000"> fName</text>
</g>
<!-- Node7 -->
<g id="node5" class="node">
<title>Node7</title>
<g id="a_node5"><a xlink:href="structTString_1_1Rep__t.html" target="_top" xlink:title="TString::Rep_t">
<polygon fill="#ffffff" stroke="#000000" points="174,-50 174,-69 258,-69 258,-50 174,-50"/>
<text text-anchor="middle" x="216" y="-57" font-family="Helvetica,sans-Serif" font-size="10.00" fill="#000000">TString::Rep_t</text>
</a>
</g>
</g>
<!-- Node7&#45;&gt;Node6 -->
<g id="edge4" class="edge">
<title>Node7&#45;&gt;Node6</title>
<path fill="none" stroke="#9a32cd" stroke-dasharray="5,2" d="M268.3684,-59.5C293.0187,-59.5 321.3105,-59.5 341.2539,-59.5"/>
<polygon fill="#9a32cd" stroke="#9a32cd" points="268.062,-56.0001 258.0619,-59.5 268.0619,-63.0001 268.062,-56.0001"/>
<text text-anchor="middle" x="292.5" y="-62.5" font-family="Helvetica,sans-Serif" font-size="10.00" fill="#000000"> fRep</text>
</g>
<!-- Node8 -->
<g id="node6" class="node">
<title>Node8</title>
<g id="a_node6"><a xlink:href="structTString_1_1LongStr__t.html" target="_top" xlink:title="TString::LongStr_t">
<polygon fill="#ffffff" stroke="#000000" points="1,-88 1,-107 104,-107 104,-88 1,-88"/>
<text text-anchor="middle" x="52.5" y="-95" font-family="Helvetica,sans-Serif" font-size="10.00" fill="#000000">TString::LongStr_t</text>
</a>
</g>
</g>
<!-- Node8&#45;&gt;Node7 -->
<g id="edge5" class="edge">
<title>Node8&#45;&gt;Node7</title>
<path fill="none" stroke="#9a32cd" stroke-dasharray="5,2" d="M106.8123,-85.7124C122.687,-82.1909 140.0552,-78.264 156,-74.5 163.315,-72.7732 171.1157,-70.8692 178.5896,-69.014"/>
<polygon fill="#9a32cd" stroke="#9a32cd" points="105.6358,-82.3878 96.626,-87.9622 107.1456,-89.2231 105.6358,-82.3878"/>
<text text-anchor="middle" x="139.5" y="-84.5" font-family="Helvetica,sans-Serif" font-size="10.00" fill="#000000"> fLong</text>
</g>
<!-- Node9 -->
<g id="node7" class="node">
<title>Node9</title>
<g id="a_node7"><a xlink:href="structTString_1_1RawStr__t.html" target="_top" xlink:title="TString::RawStr_t">
<polygon fill="#ffffff" stroke="#000000" points="2,-50 2,-69 103,-69 103,-50 2,-50"/>
<text text-anchor="middle" x="52.5" y="-57" font-family="Helvetica,sans-Serif" font-size="10.00" fill="#000000">TString::RawStr_t</text>
</a>
</g>
</g>
<!-- Node9&#45;&gt;Node7 -->
<g id="edge6" class="edge">
<title>Node9&#45;&gt;Node7</title>
<path fill="none" stroke="#9a32cd" stroke-dasharray="5,2" d="M113.38,-59.5C133.5543,-59.5 155.5459,-59.5 173.9777,-59.5"/>
<polygon fill="#9a32cd" stroke="#9a32cd" points="113.3362,-56.0001 103.3362,-59.5 113.3361,-63.0001 113.3362,-56.0001"/>
<text text-anchor="middle" x="139.5" y="-62.5" font-family="Helvetica,sans-Serif" font-size="10.00" fill="#000000"> fRaw</text>
</g>
<!-- Node10 -->
<g id="node8" class="node">
<title>Node10</title>
<g id="a_node8"><a xlink:href="structTString_1_1ShortStr__t.html" target="_top" xlink:title="TString::ShortStr_t">
<polygon fill="#ffffff" stroke="#000000" points="0,-12 0,-31 105,-31 105,-12 0,-12"/>
<text text-anchor="middle" x="52.5" y="-19" font-family="Helvetica,sans-Serif" font-size="10.00" fill="#000000">TString::ShortStr_t</text>
</a>
</g>
</g>
<!-- Node10&#45;&gt;Node7 -->
<g id="edge7" class="edge">
<title>Node10&#45;&gt;Node7</title>
<path fill="none" stroke="#9a32cd" stroke-dasharray="5,2" d="M106.8123,-33.2876C122.687,-36.8091 140.0552,-40.736 156,-44.5 163.315,-46.2268 171.1157,-48.1308 178.5896,-49.986"/>
<polygon fill="#9a32cd" stroke="#9a32cd" points="107.1456,-29.7769 96.626,-31.0378 105.6358,-36.6122 107.1456,-29.7769"/>
<text text-anchor="middle" x="139.5" y="-47.5" font-family="Helvetica,sans-Serif" font-size="10.00" fill="#000000"> fShort</text>
</g>
<!-- Node11 -->
<g id="node9" class="node">
<title>Node11</title>
<polygon fill="#ffffff" stroke="#bfbfbf" points="875,-126 875,-145 1040,-145 1040,-126 875,-126"/>
<text text-anchor="middle" x="957.5" y="-133" font-family="Helvetica,sans-Serif" font-size="10.00" fill="#000000">std::vector&lt; TDataMember *&gt;</text>
</g>
<!-- Node11&#45;&gt;Node3 -->
<g id="edge8" class="edge">
<title>Node11&#45;&gt;Node3</title>
<path fill="none" stroke="#9a32cd" stroke-dasharray="5,2" d="M1050.2391,-124.6385C1073.7508,-121.3086 1098.8903,-117.2468 1122,-112.5 1129.3682,-110.9866 1137.2089,-109.0497 1144.5922,-107.0742"/>
<polygon fill="#9a32cd" stroke="#9a32cd" points="1049.6973,-121.1801 1040.273,-126.0207 1050.659,-128.1137 1049.6973,-121.1801"/>
<text text-anchor="middle" x="1090" y="-125.5" font-family="Helvetica,sans-Serif" font-size="10.00" fill="#000000"> fData</text>
</g>
<!-- Node12 -->
<g id="node10" class="node">
<title>Node12</title>
<polygon fill="#ffffff" stroke="#bfbfbf" points="895,-88 895,-107 1020,-107 1020,-88 895,-88"/>
<text text-anchor="middle" x="957.5" y="-95" font-family="Helvetica,sans-Serif" font-size="10.00" fill="#000000">std::vector&lt; TString &gt;</text>
</g>
<!-- Node12&#45;&gt;Node3 -->
<g id="edge9" class="edge">
<title>Node12&#45;&gt;Node3</title>
<path fill="none" stroke="#9a32cd" stroke-dasharray="5,2" d="M1030.2675,-97.5C1066.9372,-97.5 1109.8444,-97.5 1139.7527,-97.5"/>
<polygon fill="#9a32cd" stroke="#9a32cd" points="1030.1062,-94.0001 1020.1061,-97.5 1030.1061,-101.0001 1030.1062,-94.0001"/>
<text text-anchor="middle" x="1090" y="-100.5" font-family="Helvetica,sans-Serif" font-size="10.00" fill="#000000"> fDepClasses</text>
</g>
<!-- Node13 -->
<g id="node11" class="node">
<title>Node13</title>
<g id="a_node11"><a xlink:href="classTList.html" target="_top" xlink:title="A doubly linked list. ">
<polygon fill="#ffffff" stroke="#000000" points="937.5,-164 937.5,-183 977.5,-183 977.5,-164 937.5,-164"/>
<text text-anchor="middle" x="957.5" y="-171" font-family="Helvetica,sans-Serif" font-size="10.00" fill="#000000">TList</text>
</a>
</g>
</g>
<!-- Node13&#45;&gt;Node3 -->
<g id="edge10" class="edge">
<title>Node13&#45;&gt;Node3</title>
<path fill="none" stroke="#9a32cd" stroke-dasharray="5,2" d="M987.7651,-170.6547C1021.684,-166.6204 1077.7216,-157.3863 1122,-137.5 1139.0173,-129.8572 1155.9795,-116.4116 1166.4724,-107.2374"/>
<polygon fill="#9a32cd" stroke="#9a32cd" points="987.1242,-167.2043 977.5726,-171.7887 987.8983,-174.1613 987.1242,-167.2043"/>
<text text-anchor="middle" x="1090" y="-171.5" font-family="Helvetica,sans-Serif" font-size="10.00" fill="#000000"> fBase</text>
<text text-anchor="middle" x="1090" y="-160.5" font-family="Helvetica,sans-Serif" font-size="10.00" fill="#000000">fEnums</text>
</g>
<!-- Node14 -->
<g id="node12" class="node">
<title>Node14</title>
<g id="a_node12"><a xlink:href="classTSeqCollection.html" target="_top" xlink:title="Sequenceable collection abstract base class. ">
<polygon fill="#ffffff" stroke="#000000" points="683.5,-142 683.5,-161 772.5,-161 772.5,-142 683.5,-142"/>
<text text-anchor="middle" x="728" y="-149" font-family="Helvetica,sans-Serif" font-size="10.00" fill="#000000">TSeqCollection</text>
</a>
</g>
</g>
<!-- Node14&#45;&gt;Node13 -->
<g id="edge11" class="edge">
<title>Node14&#45;&gt;Node13</title>
<path fill="none" stroke="#191970" d="M782.4886,-156.7233C832.2566,-161.4941 903.1384,-168.2889 937.4105,-171.5742"/>
<polygon fill="#191970" stroke="#191970" points="782.8104,-153.2382 772.522,-155.7679 782.1424,-160.2063 782.8104,-153.2382"/>
</g>
<!-- Node15&#45;&gt;Node14 -->
<g id="edge12" class="edge">
<title>Node15&#45;&gt;Node14</title>
<path fill="none" stroke="#191970" d="M627.5037,-151.5C645.3282,-151.5 665.6628,-151.5 683.3558,-151.5"/>
<polygon fill="#191970" stroke="#191970" points="627.338,-148.0001 617.3379,-151.5 627.3379,-155.0001 627.338,-148.0001"/>
</g>
<!-- Node15&#45;&gt;Node15 -->
<g id="edge18" class="edge">
<title>Node15&#45;&gt;Node15</title>
<path fill="none" stroke="#9a32cd" stroke-dasharray="5,2" d="M571.5556,-171.2663C572.3366,-175.9965 575.6514,-179.5 581.5,-179.5 591.0977,-179.5 593.872,-170.0653 589.823,-161.2571"/>
<polygon fill="#9a32cd" stroke="#9a32cd" points="575.0328,-171.6881 573.177,-161.2571 568.1229,-170.5687 575.0328,-171.6881"/>
<text text-anchor="middle" x="581.5" y="-182.5" font-family="Helvetica,sans-Serif" font-size="10.00" fill="#000000"> fgCurrentCollection</text>
</g>
<!-- Node16&#45;&gt;Node15 -->
<g id="edge14" class="edge">
<title>Node16&#45;&gt;Node15</title>
<path fill="none" stroke="#9a32cd" stroke-dasharray="5,2" d="M417.2156,-183.4333C449.0998,-179.2317 491.1513,-173.0449 528,-165.5 534.3019,-164.2097 540.9697,-162.6358 547.3803,-161.0152"/>
<polygon fill="#9a32cd" stroke="#9a32cd" points="416.7071,-179.9698 407.2403,-184.7269 417.6074,-186.9117 416.7071,-179.9698"/>
<text text-anchor="middle" x="476.5" y="-184.5" font-family="Helvetica,sans-Serif" font-size="10.00" fill="#000000"> fgGarbageCollection</text>
</g>
<!-- Node17 -->
<g id="node15" class="node">
<title>Node17</title>
<polygon fill="#ffffff" stroke="#bfbfbf" points="654,-180 654,-199 802,-199 802,-180 654,-180"/>
<text text-anchor="middle" x="728" y="-187" font-family="Helvetica,sans-Serif" font-size="10.00" fill="#000000">std::weak_ptr&lt; TObjLink &gt;</text>
</g>
<!-- Node17&#45;&gt;Node13 -->
<g id="edge19" class="edge">
<title>Node17&#45;&gt;Node13</title>
<path fill="none" stroke="#9a32cd" stroke-dasharray="5,2" d="M812.2822,-183.6241C857.3084,-180.485 909.0819,-176.8756 937.0294,-174.9271"/>
<polygon fill="#9a32cd" stroke="#9a32cd" points="811.9275,-180.1403 802.1951,-184.3274 812.4144,-187.1233 811.9275,-180.1403"/>
<text text-anchor="middle" x="838.5" y="-185.5" font-family="Helvetica,sans-Serif" font-size="10.00" fill="#000000"> fCache</text>
</g>
<!-- Node18 -->
<g id="node16" class="node">
<title>Node18</title>
<polygon fill="#ffffff" stroke="#bfbfbf" points="889,-.5 889,-30.5 1026,-30.5 1026,-.5 889,-.5"/>
<text text-anchor="start" x="897" y="-18.5" font-family="Helvetica,sans-Serif" font-size="10.00" fill="#000000">std::vector&lt; TProtoClass</text>
<text text-anchor="middle" x="957.5" y="-7.5" font-family="Helvetica,sans-Serif" font-size="10.00" fill="#000000">::TProtoRealData &gt;</text>
</g>
<!-- Node18&#45;&gt;Node3 -->
<g id="edge20" class="edge">
<title>Node18&#45;&gt;Node3</title>
<path fill="none" stroke="#9a32cd" stroke-dasharray="5,2" d="M1036.3077,-13.0414C1064.6723,-15.0683 1096.0508,-20.857 1122,-34.5 1145.3892,-46.7971 1163.3206,-73.4515 1171.7329,-87.8335"/>
<polygon fill="#9a32cd" stroke="#9a32cd" points="1036.1917,-9.5293 1026.0095,-12.4573 1035.7952,-16.5181 1036.1917,-9.5293"/>
<text text-anchor="middle" x="1090" y="-37.5" font-family="Helvetica,sans-Serif" font-size="10.00" fill="#000000"> fPRealData</text>
</g>
</g>
</svg>
