<?xml version="1.0" encoding="UTF-8" standalone="no"?>
<!DOCTYPE svg PUBLIC "-//W3C//DTD SVG 1.1//EN"
 "http://www.w3.org/Graphics/SVG/1.1/DTD/svg11.dtd">
<!-- Generated by graphviz version 2.40.1 (0)
 -->
<!-- Title: TGComboBox Pages: 1 -->
<!--zoomable 364 -->
<svg id="main" version="1.1" xmlns="http://www.w3.org/2000/svg" xmlns:xlink="http://www.w3.org/1999/xlink" xml:space="preserve" onload="init(evt)">
<style type="text/css"><![CDATA[
.edge:hover path { stroke: red; }
.edge:hover polygon { stroke: red; fill: red; }
]]></style>
<script type="text/javascript"><![CDATA[
var edges = document.getElementsByTagName('g');
if (edges && edges.length) {
  for (var i=0;i<edges.length;i++) {
    if (edges[i].id.substr(0,4)=='edge') {
      edges[i].setAttribute('class','edge');
    }
  }
}
]]></script>
        <defs>
                <circle id="rim" cx="0" cy="0" r="7"/>
                <circle id="rim2" cx="0" cy="0" r="3.5"/>
                <g id="zoomPlus">
                        <use xlink:href="#rim" fill="#404040">
                                <set attributeName="fill" to="#808080" begin="zoomplus.mouseover" end="zoomplus.mouseout"/>
                        </use>
                        <path d="M-4,0h8M0,-4v8" fill="none" stroke="white" stroke-width="1.5" pointer-events="none"/>
                </g>
                <g id="zoomMin">
                        <use xlink:href="#rim" fill="#404040">
                                <set attributeName="fill" to="#808080" begin="zoomminus.mouseover" end="zoomminus.mouseout"/>
                        </use>
                        <path d="M-4,0h8" fill="none" stroke="white" stroke-width="1.5" pointer-events="none"/>
                </g>
                <g id="dirArrow">
                        <path fill="none" stroke="white" stroke-width="1.5" d="M0,-3.0v7 M-2.5,-0.5L0,-3.0L2.5,-0.5"/>
                </g>
               <g id="resetDef">
                       <use xlink:href="#rim2" fill="#404040">
                               <set attributeName="fill" to="#808080" begin="reset.mouseover" end="reset.mouseout"/>
                       </use>
               </g>
        </defs>

<script type="text/javascript">
var viewWidth = 545;
var viewHeight = 364;
var sectionId = 'dynsection-0';
</script>
<script xlink:href="svgpan.js"/>
<svg id="graph" class="graph">
<g id="viewport">
<title>TGComboBox</title>
<polygon fill="#ffffff" stroke="transparent" points="-4,4 -4,-360 540.5,-360 540.5,4 -4,4"/>
<!-- Node0 -->
<g id="node1" class="node">
<title>Node0</title>
<polygon fill="#bfbfbf" stroke="#000000" points="216,-56.5 216,-75.5 299,-75.5 299,-56.5 216,-56.5"/>
<text text-anchor="middle" x="257.5" y="-63.5" font-family="Helvetica,sans-Serif" font-size="10.00" fill="#000000">TGComboBox</text>
</g>
<!-- Node8 -->
<g id="node9" class="node">
<title>Node8</title>
<g id="a_node9"><a xlink:href="classTGFontTypeComboBox.html" target="_top" xlink:title="TGFontTypeComboBox">
<polygon fill="#ffffff" stroke="#000000" points="0,-.5 0,-19.5 127,-19.5 127,-.5 0,-.5"/>
<text text-anchor="middle" x="63.5" y="-7.5" font-family="Helvetica,sans-Serif" font-size="10.00" fill="#000000">TGFontTypeComboBox</text>
</a>
</g>
</g>
<!-- Node0&#45;&gt;Node8 -->
<g id="edge8" class="edge">
<title>Node0&#45;&gt;Node8</title>
<path fill="none" stroke="#191970" d="M214.502,-53.5882C178.8592,-43.2996 128.9386,-28.8895 96.4146,-19.5011"/>
<polygon fill="#191970" stroke="#191970" points="213.5718,-56.9625 224.1502,-56.3733 215.5132,-50.2371 213.5718,-56.9625"/>
</g>
<!-- Node9 -->
<g id="node10" class="node">
<title>Node9</title>
<g id="a_node10"><a xlink:href="classTGFSComboBox.html" target="_top" xlink:title="TGFSComboBox">
<polygon fill="#ffffff" stroke="#000000" points="145,-.5 145,-19.5 240,-19.5 240,-.5 145,-.5"/>
<text text-anchor="middle" x="192.5" y="-7.5" font-family="Helvetica,sans-Serif" font-size="10.00" fill="#000000">TGFSComboBox</text>
</a>
</g>
</g>
<!-- Node0&#45;&gt;Node9 -->
<g id="edge9" class="edge">
<title>Node0&#45;&gt;Node9</title>
<path fill="none" stroke="#191970" d="M238.5165,-49.645C227.2121,-39.9058 213.253,-27.8795 203.6924,-19.6427"/>
<polygon fill="#191970" stroke="#191970" points="236.3173,-52.3701 246.1779,-56.2455 240.8862,-47.0668 236.3173,-52.3701"/>
</g>
<!-- Node10 -->
<g id="node11" class="node">
<title>Node10</title>
<g id="a_node11"><a xlink:href="classTGLineStyleComboBox.html" target="_top" xlink:title="TGLineStyleComboBox">
<polygon fill="#ffffff" stroke="#000000" points="258.5,-.5 258.5,-19.5 386.5,-19.5 386.5,-.5 258.5,-.5"/>
<text text-anchor="middle" x="322.5" y="-7.5" font-family="Helvetica,sans-Serif" font-size="10.00" fill="#000000">TGLineStyleComboBox</text>
</a>
</g>
</g>
<!-- Node0&#45;&gt;Node10 -->
<g id="edge10" class="edge">
<title>Node0&#45;&gt;Node10</title>
<path fill="none" stroke="#191970" d="M276.4835,-49.645C287.7879,-39.9058 301.747,-27.8795 311.3076,-19.6427"/>
<polygon fill="#191970" stroke="#191970" points="274.1138,-47.0668 268.8221,-56.2455 278.6827,-52.3701 274.1138,-47.0668"/>
</g>
<!-- Node11 -->
<g id="node12" class="node">
<title>Node11</title>
<g id="a_node12"><a xlink:href="classTGLineWidthComboBox.html" target="_top" xlink:title="TGLineWidthComboBox">
<polygon fill="#ffffff" stroke="#000000" points="404.5,-.5 404.5,-19.5 536.5,-19.5 536.5,-.5 404.5,-.5"/>
<text text-anchor="middle" x="470.5" y="-7.5" font-family="Helvetica,sans-Serif" font-size="10.00" fill="#000000">TGLineWidthComboBox</text>
</a>
</g>
</g>
<!-- Node0&#45;&gt;Node11 -->
<g id="edge11" class="edge">
<title>Node0&#45;&gt;Node11</title>
<path fill="none" stroke="#191970" d="M303.9585,-53.7856C343.1393,-43.4845 398.4235,-28.9497 434.3618,-19.5011"/>
<polygon fill="#191970" stroke="#191970" points="302.8974,-50.4455 294.116,-56.3733 304.6773,-57.2155 302.8974,-50.4455"/>
</g>
<!-- Node1 -->
<g id="node2" class="node">
<title>Node1</title>
<g id="a_node2"><a xlink:href="classTGCompositeFrame.html" target="_top" xlink:title="TGCompositeFrame">
<polygon fill="#ffffff" stroke="#000000" points="148,-112.5 148,-131.5 261,-131.5 261,-112.5 148,-112.5"/>
<text text-anchor="middle" x="204.5" y="-119.5" font-family="Helvetica,sans-Serif" font-size="10.00" fill="#000000">TGCompositeFrame</text>
</a>
</g>
</g>
<!-- Node1&#45;&gt;Node0 -->
<g id="edge1" class="edge">
<title>Node1&#45;&gt;Node0</title>
<path fill="none" stroke="#191970" d="M220.7896,-104.7884C229.8562,-95.2085 240.8054,-83.6396 248.3739,-75.6427"/>
<polygon fill="#191970" stroke="#191970" points="218.0637,-102.5767 213.7319,-112.2455 223.1478,-107.3884 218.0637,-102.5767"/>
</g>
<!-- Node2 -->
<g id="node3" class="node">
<title>Node2</title>
<g id="a_node3"><a xlink:href="classTGFrame.html" target="_top" xlink:title="TGFrame">
<polygon fill="#ffffff" stroke="#000000" points="174.5,-168.5 174.5,-187.5 234.5,-187.5 234.5,-168.5 174.5,-168.5"/>
<text text-anchor="middle" x="204.5" y="-175.5" font-family="Helvetica,sans-Serif" font-size="10.00" fill="#000000">TGFrame</text>
</a>
</g>
</g>
<!-- Node2&#45;&gt;Node1 -->
<g id="edge2" class="edge">
<title>Node2&#45;&gt;Node1</title>
<path fill="none" stroke="#191970" d="M204.5,-158.1575C204.5,-149.155 204.5,-138.9199 204.5,-131.6427"/>
<polygon fill="#191970" stroke="#191970" points="201.0001,-158.2455 204.5,-168.2455 208.0001,-158.2456 201.0001,-158.2455"/>
</g>
<!-- Node3 -->
<g id="node4" class="node">
<title>Node3</title>
<g id="a_node4"><a xlink:href="classTGWindow.html" target="_top" xlink:title="TGWindow">
<polygon fill="#ffffff" stroke="#000000" points="128,-224.5 128,-243.5 197,-243.5 197,-224.5 128,-224.5"/>
<text text-anchor="middle" x="162.5" y="-231.5" font-family="Helvetica,sans-Serif" font-size="10.00" fill="#000000">TGWindow</text>
</a>
</g>
</g>
<!-- Node3&#45;&gt;Node2 -->
<g id="edge3" class="edge">
<title>Node3&#45;&gt;Node2</title>
<path fill="none" stroke="#191970" d="M175.8416,-216.2112C182.9396,-206.7472 191.3903,-195.4797 197.268,-187.6427"/>
<polygon fill="#191970" stroke="#191970" points="173.0159,-214.1455 169.8158,-224.2455 178.6159,-218.3455 173.0159,-214.1455"/>
</g>
<!-- Node4 -->
<g id="node5" class="node">
<title>Node4</title>
<g id="a_node5"><a xlink:href="classTGObject.html" target="_top" xlink:title="TGObject">
<polygon fill="#ffffff" stroke="#000000" points="131.5,-280.5 131.5,-299.5 193.5,-299.5 193.5,-280.5 131.5,-280.5"/>
<text text-anchor="middle" x="162.5" y="-287.5" font-family="Helvetica,sans-Serif" font-size="10.00" fill="#000000">TGObject</text>
</a>
</g>
</g>
<!-- Node4&#45;&gt;Node3 -->
<g id="edge4" class="edge">
<title>Node4&#45;&gt;Node3</title>
<path fill="none" stroke="#191970" d="M162.5,-270.1575C162.5,-261.155 162.5,-250.9199 162.5,-243.6427"/>
<polygon fill="#191970" stroke="#191970" points="159.0001,-270.2455 162.5,-280.2455 166.0001,-270.2456 159.0001,-270.2455"/>
</g>
<!-- Node5 -->
<g id="node6" class="node">
<title>Node5</title>
<g id="a_node6"><a xlink:href="classTObject.html" target="_top" xlink:title="Mother of all ROOT objects. ">
<polygon fill="#ffffff" stroke="#000000" points="135.5,-336.5 135.5,-355.5 189.5,-355.5 189.5,-336.5 135.5,-336.5"/>
<text text-anchor="middle" x="162.5" y="-343.5" font-family="Helvetica,sans-Serif" font-size="10.00" fill="#000000">TObject</text>
</a>
</g>
</g>
<!-- Node5&#45;&gt;Node4 -->
<g id="edge5" class="edge">
<title>Node5&#45;&gt;Node4</title>
<path fill="none" stroke="#191970" d="M162.5,-326.1575C162.5,-317.155 162.5,-306.9199 162.5,-299.6427"/>
<polygon fill="#191970" stroke="#191970" points="159.0001,-326.2455 162.5,-336.2455 166.0001,-326.2456 159.0001,-326.2455"/>
</g>
<!-- Node6 -->
<g id="node7" class="node">
<title>Node6</title>
<g id="a_node7"><a xlink:href="classTQObject.html" target="_top" xlink:title="This is the ROOT implementation of the Qt object communication mechanism (see also http://www...">
<polygon fill="#ffffff" stroke="#000000" points="215.5,-224.5 215.5,-243.5 277.5,-243.5 277.5,-224.5 215.5,-224.5"/>
<text text-anchor="middle" x="246.5" y="-231.5" font-family="Helvetica,sans-Serif" font-size="10.00" fill="#000000">TQObject</text>
</a>
</g>
</g>
<!-- Node6&#45;&gt;Node2 -->
<g id="edge6" class="edge">
<title>Node6&#45;&gt;Node2</title>
<path fill="none" stroke="#191970" d="M233.1584,-216.2112C226.0604,-206.7472 217.6097,-195.4797 211.732,-187.6427"/>
<polygon fill="#191970" stroke="#191970" points="230.3841,-218.3455 239.1842,-224.2455 235.9841,-214.1455 230.3841,-218.3455"/>
</g>
<!-- Node7 -->
<g id="node8" class="node">
<title>Node7</title>
<g id="a_node8"><a xlink:href="classTGWidget.html" target="_top" xlink:title="TGWidget">
<polygon fill="#ffffff" stroke="#000000" points="279,-112.5 279,-131.5 344,-131.5 344,-112.5 279,-112.5"/>
<text text-anchor="middle" x="311.5" y="-119.5" font-family="Helvetica,sans-Serif" font-size="10.00" fill="#000000">TGWidget</text>
</a>
</g>
</g>
<!-- Node7&#45;&gt;Node0 -->
<g id="edge7" class="edge">
<title>Node7&#45;&gt;Node0</title>
<path fill="none" stroke="#191970" d="M294.9031,-104.7884C285.6653,-95.2085 274.5096,-83.6396 266.7983,-75.6427"/>
<polygon fill="#191970" stroke="#191970" points="292.6331,-107.4766 302.0939,-112.2455 297.672,-102.6176 292.6331,-107.4766"/>
</g>
</g>
</svg>
        <g id="navigator" transform="translate(0 0)" fill="#404254">
                <rect fill="#f2f5e9" fill-opacity="0.5" stroke="#606060" stroke-width=".5" x="0" y="0" width="60" height="60"/>
                <use id="zoomplus" xlink:href="#zoomPlus" x="17" y="9" onmousedown="handleZoom(evt,'in')"/>
                <use id="zoomminus" xlink:href="#zoomMin" x="42" y="9" onmousedown="handleZoom(evt,'out')"/>
                <use id="reset" xlink:href="#resetDef" x="30" y="36" onmousedown="handleReset()"/>
                <g id="arrowUp" xlink:href="#dirArrow" transform="translate(30 24)" onmousedown="handlePan(0,-1)">
                  <use xlink:href="#rim" fill="#404040">
                        <set attributeName="fill" to="#808080" begin="arrowUp.mouseover" end="arrowUp.mouseout"/>
                  </use>
                  <path fill="none" stroke="white" stroke-width="1.5" d="M0,-3.0v7 M-2.5,-0.5L0,-3.0L2.5,-0.5"/>
                </g>
                <g id="arrowRight" xlink:href="#dirArrow" transform="rotate(90) translate(36 -43)" onmousedown="handlePan(1,0)">
                  <use xlink:href="#rim" fill="#404040">
                        <set attributeName="fill" to="#808080" begin="arrowRight.mouseover" end="arrowRight.mouseout"/>
                  </use>
                  <path fill="none" stroke="white" stroke-width="1.5" d="M0,-3.0v7 M-2.5,-0.5L0,-3.0L2.5,-0.5"/>
                </g>
                <g id="arrowDown" xlink:href="#dirArrow" transform="rotate(180) translate(-30 -48)" onmousedown="handlePan(0,1)">
                  <use xlink:href="#rim" fill="#404040">
                        <set attributeName="fill" to="#808080" begin="arrowDown.mouseover" end="arrowDown.mouseout"/>
                  </use>
                  <path fill="none" stroke="white" stroke-width="1.5" d="M0,-3.0v7 M-2.5,-0.5L0,-3.0L2.5,-0.5"/>
                </g>
                <g id="arrowLeft" xlink:href="#dirArrow" transform="rotate(270) translate(-36 17)" onmousedown="handlePan(-1,0)">
                  <use xlink:href="#rim" fill="#404040">
                        <set attributeName="fill" to="#808080" begin="arrowLeft.mouseover" end="arrowLeft.mouseout"/>
                  </use>
                  <path fill="none" stroke="white" stroke-width="1.5" d="M0,-3.0v7 M-2.5,-0.5L0,-3.0L2.5,-0.5"/>
                </g>
        </g>
        <svg viewBox="0 0 15 15" width="100%" height="30px" preserveAspectRatio="xMaxYMin meet">
         <g id="arrow_out" transform="scale(0.3 0.3)">
          <a xlink:href="classTGComboBox__inherit__graph_org.svg" target="_base">
           <rect id="button" ry="5" rx="5" y="6" x="6" height="38" width="38"
                fill="#f2f5e9" fill-opacity="0.5" stroke="#606060" stroke-width="1.0"/>
           <path id="arrow"
             d="M 11.500037,31.436501 C 11.940474,20.09759 22.043105,11.32322 32.158766,21.979434 L 37.068811,17.246167 C 37.068811,17.246167 37.088388,32 37.088388,32 L 22.160133,31.978069 C 22.160133,31.978069 26.997745,27.140456 26.997745,27.140456 C 18.528582,18.264221 13.291696,25.230495 11.500037,31.436501 z"
             style="fill:#404040;"/>
          </a>
         </g>
        </svg>
</svg>
