<?xml version="1.0" encoding="UTF-8" standalone="no"?>
<!DOCTYPE svg PUBLIC "-//W3C//DTD SVG 1.1//EN"
 "http://www.w3.org/Graphics/SVG/1.1/DTD/svg11.dtd">
<!-- Generated by graphviz version 2.40.1 (0)
 -->
<!-- Title: RooStats::AsymptoticCalculator Pages: 1 -->
<svg width="2358pt" height="616pt"
 viewBox="0.00 0.00 2358.00 616.00" xmlns="http://www.w3.org/2000/svg" xmlns:xlink="http://www.w3.org/1999/xlink">
<g id="graph0" class="graph" transform="scale(1 1) rotate(0) translate(4 612)">
<title>RooStats::AsymptoticCalculator</title>
<polygon fill="#ffffff" stroke="transparent" points="-4,4 -4,-612 2354,-612 2354,4 -4,4"/>
<!-- Node3 -->
<g id="node1" class="node">
<title>Node3</title>
<polygon fill="#bfbfbf" stroke="#000000" points="2180,-429.5 2180,-448.5 2350,-448.5 2350,-429.5 2180,-429.5"/>
<text text-anchor="middle" x="2265" y="-436.5" font-family="Helvetica,sans-Serif" font-size="10.00" fill="#000000">RooStats::AsymptoticCalculator</text>
</g>
<!-- Node4 -->
<g id="node2" class="node">
<title>Node4</title>
<g id="a_node2"><a xlink:href="classRooStats_1_1HypoTestCalculatorGeneric.html" target="_top" xlink:title="Common base class for the Hypothesis Test Calculators. ">
<polygon fill="#ffffff" stroke="#000000" points="1983,-347 1983,-377 2143,-377 2143,-347 1983,-347"/>
<text text-anchor="start" x="1991" y="-365" font-family="Helvetica,sans-Serif" font-size="10.00" fill="#000000">RooStats::HypoTestCalculator</text>
<text text-anchor="middle" x="2063" y="-354" font-family="Helvetica,sans-Serif" font-size="10.00" fill="#000000">Generic</text>
</a>
</g>
</g>
<!-- Node4&#45;&gt;Node3 -->
<g id="edge1" class="edge">
<title>Node4&#45;&gt;Node3</title>
<path fill="none" stroke="#191970" d="M2111.8398,-380.6171C2152.2943,-396.0379 2208.1362,-417.3242 2240.0132,-429.4753"/>
<polygon fill="#191970" stroke="#191970" points="2113.018,-377.3207 2102.4272,-377.0292 2110.5246,-383.8616 2113.018,-377.3207"/>
</g>
<!-- Node5 -->
<g id="node3" class="node">
<title>Node5</title>
<g id="a_node3"><a xlink:href="classRooStats_1_1HypoTestCalculator.html" target="_top" xlink:title="HypoTestCalculator is an interface class for a tools which produce RooStats HypoTestResults. ">
<polygon fill="#ffffff" stroke="#000000" points="1703,-371.5 1703,-390.5 1863,-390.5 1863,-371.5 1703,-371.5"/>
<text text-anchor="middle" x="1783" y="-378.5" font-family="Helvetica,sans-Serif" font-size="10.00" fill="#000000">RooStats::HypoTestCalculator</text>
</a>
</g>
</g>
<!-- Node5&#45;&gt;Node4 -->
<g id="edge2" class="edge">
<title>Node5&#45;&gt;Node4</title>
<path fill="none" stroke="#191970" d="M1873.5021,-374.8588C1908.6729,-372.4722 1948.6272,-369.761 1982.7515,-367.4454"/>
<polygon fill="#191970" stroke="#191970" points="1872.9768,-371.3863 1863.2368,-375.5554 1873.4508,-378.3702 1872.9768,-371.3863"/>
</g>
<!-- Node6 -->
<g id="node4" class="node">
<title>Node6</title>
<g id="a_node4"><a xlink:href="classRooAbsData.html" target="_top" xlink:title="RooAbsData is the common abstract base class for binned and unbinned datasets. ">
<polygon fill="#ffffff" stroke="#000000" points="1745,-419.5 1745,-438.5 1821,-438.5 1821,-419.5 1745,-419.5"/>
<text text-anchor="middle" x="1783" y="-426.5" font-family="Helvetica,sans-Serif" font-size="10.00" fill="#000000">RooAbsData</text>
</a>
</g>
</g>
<!-- Node6&#45;&gt;Node3 -->
<g id="edge52" class="edge">
<title>Node6&#45;&gt;Node3</title>
<path fill="none" stroke="#9a32cd" stroke-dasharray="5,2" d="M1831.6882,-430.0101C1913.2258,-431.7018 2078.3886,-435.1284 2179.5979,-437.2282"/>
<polygon fill="#9a32cd" stroke="#9a32cd" points="1831.2951,-426.5013 1821.2246,-429.793 1831.1498,-433.4998 1831.2951,-426.5013"/>
<text text-anchor="middle" x="2063" y="-439" font-family="Helvetica,sans-Serif" font-size="10.00" fill="#000000"> fAsimovData</text>
</g>
<!-- Node6&#45;&gt;Node4 -->
<g id="edge3" class="edge">
<title>Node6&#45;&gt;Node4</title>
<path fill="none" stroke="#9a32cd" stroke-dasharray="5,2" d="M1830.9311,-417.5308C1877.6904,-406.3419 1949.0678,-389.2624 2000.3124,-377.0003"/>
<polygon fill="#9a32cd" stroke="#9a32cd" points="1829.9644,-414.1632 1821.0534,-419.8944 1831.5934,-420.971 1829.9644,-414.1632"/>
<text text-anchor="middle" x="1923" y="-408" font-family="Helvetica,sans-Serif" font-size="10.00" fill="#000000"> fData</text>
</g>
<!-- Node7 -->
<g id="node5" class="node">
<title>Node7</title>
<g id="a_node5"><a xlink:href="classTNamed.html" target="_top" xlink:title="The TNamed class is the base class for all named ROOT classes. ">
<polygon fill="#ffffff" stroke="#000000" points="751,-305.5 751,-324.5 809,-324.5 809,-305.5 751,-305.5"/>
<text text-anchor="middle" x="780" y="-312.5" font-family="Helvetica,sans-Serif" font-size="10.00" fill="#000000">TNamed</text>
</a>
</g>
</g>
<!-- Node7&#45;&gt;Node6 -->
<g id="edge4" class="edge">
<title>Node7&#45;&gt;Node6</title>
<path fill="none" stroke="#191970" d="M819.2849,-317.3138C887.3048,-321.3915 1031.402,-330.3444 1153,-340 1332.3,-354.2374 1376.9637,-359.7603 1556,-377 1613.3584,-382.5231 1630.0145,-372.7638 1685,-390 1693.7327,-392.7374 1694.6717,-396.2063 1703,-400 1719.2674,-407.4101 1738.0294,-414.2941 1753.2935,-419.4938"/>
<polygon fill="#191970" stroke="#191970" points="819.2273,-313.8043 809.0364,-316.7019 818.81,-320.7918 819.2273,-313.8043"/>
</g>
<!-- Node17 -->
<g id="node15" class="node">
<title>Node17</title>
<g id="a_node15"><a xlink:href="classRooAbsCollection.html" target="_top" xlink:title="RooAbsCollection is an abstract container object that can hold multiple RooAbsArg objects...">
<polygon fill="#ffffff" stroke="#000000" points="1019,-508.5 1019,-527.5 1120,-527.5 1120,-508.5 1019,-508.5"/>
<text text-anchor="middle" x="1069.5" y="-515.5" font-family="Helvetica,sans-Serif" font-size="10.00" fill="#000000">RooAbsCollection</text>
</a>
</g>
</g>
<!-- Node7&#45;&gt;Node17 -->
<g id="edge18" class="edge">
<title>Node7&#45;&gt;Node17</title>
<path fill="none" stroke="#9a32cd" stroke-dasharray="5,2" d="M801.8331,-330.3096C858.5023,-370.0465 1009.1035,-475.6494 1055.6176,-508.2655"/>
<polygon fill="#9a32cd" stroke="#9a32cd" points="803.772,-327.3945 793.5749,-324.5188 799.7531,-333.1258 803.772,-327.3945"/>
<text text-anchor="middle" x="921" y="-460" font-family="Helvetica,sans-Serif" font-size="10.00" fill="#000000"> _structureTag</text>
<text text-anchor="middle" x="921" y="-449" font-family="Helvetica,sans-Serif" font-size="10.00" fill="#000000">_typedStructureTag</text>
</g>
<!-- Node19 -->
<g id="node17" class="node">
<title>Node19</title>
<g id="a_node17"><a xlink:href="classRooAbsDataStore.html" target="_top" xlink:title="RooAbsDataStore is the abstract base class for data collection that use a TTree as internal storage m...">
<polygon fill="#ffffff" stroke="#000000" points="1444.5,-419.5 1444.5,-438.5 1545.5,-438.5 1545.5,-419.5 1444.5,-419.5"/>
<text text-anchor="middle" x="1495" y="-426.5" font-family="Helvetica,sans-Serif" font-size="10.00" fill="#000000">RooAbsDataStore</text>
</a>
</g>
</g>
<!-- Node7&#45;&gt;Node19 -->
<g id="edge21" class="edge">
<title>Node7&#45;&gt;Node19</title>
<path fill="none" stroke="#191970" d="M819.2574,-320.9185C836.106,-323.44 856.0151,-326.3949 874,-329 1025.4689,-350.9398 1063.9477,-352.3546 1215,-377 1296.7351,-390.3357 1391.3814,-408.4818 1447.0522,-419.4344"/>
<polygon fill="#191970" stroke="#191970" points="819.6154,-317.4331 809.2069,-319.4115 818.5774,-324.3557 819.6154,-317.4331"/>
</g>
<!-- Node21 -->
<g id="node19" class="node">
<title>Node21</title>
<g id="a_node19"><a xlink:href="classRooStats_1_1ModelConfig.html" target="_top" xlink:title="ModelConfig is a simple class that holds configuration information specifying how a model should be u...">
<polygon fill="#ffffff" stroke="#000000" points="1720.5,-189.5 1720.5,-208.5 1845.5,-208.5 1845.5,-189.5 1720.5,-189.5"/>
<text text-anchor="middle" x="1783" y="-196.5" font-family="Helvetica,sans-Serif" font-size="10.00" fill="#000000">RooStats::ModelConfig</text>
</a>
</g>
</g>
<!-- Node7&#45;&gt;Node21 -->
<g id="edge26" class="edge">
<title>Node7&#45;&gt;Node21</title>
<path fill="none" stroke="#191970" d="M819.6171,-310.8682C888.138,-303.2955 1032.9692,-285.4094 1153,-258 1181.0972,-251.5839 1188.0047,-249.0932 1215,-239 1223.2001,-235.9341 1224.5737,-233.3749 1233,-231 1380.1373,-189.5306 1421.4593,-196.0216 1574,-186 1623.2272,-182.7659 1635.7739,-182.7492 1685,-186 1696.5598,-186.7634 1708.8369,-188.028 1720.6492,-189.4764"/>
<polygon fill="#191970" stroke="#191970" points="818.852,-307.4308 809.2906,-311.9949 819.6113,-314.3895 818.852,-307.4308"/>
</g>
<!-- Node26 -->
<g id="node24" class="node">
<title>Node26</title>
<g id="a_node24"><a xlink:href="classTProcessID.html" target="_top" xlink:title="A TProcessID identifies a ROOT job in a unique way in time and space. ">
<polygon fill="#ffffff" stroke="#000000" points="1249.5,-135.5 1249.5,-154.5 1320.5,-154.5 1320.5,-135.5 1249.5,-135.5"/>
<text text-anchor="middle" x="1285" y="-142.5" font-family="Helvetica,sans-Serif" font-size="10.00" fill="#000000">TProcessID</text>
</a>
</g>
</g>
<!-- Node7&#45;&gt;Node26 -->
<g id="edge33" class="edge">
<title>Node7&#45;&gt;Node26</title>
<path fill="none" stroke="#191970" d="M802.0978,-299.7151C820.4958,-287.7618 847.8222,-271.7497 874,-263 1019.1561,-214.4829 1078.038,-283.3053 1215,-215 1216.8841,-214.0604 1256.9159,-173.5268 1275.5773,-154.5784"/>
<polygon fill="#191970" stroke="#191970" points="799.9776,-296.9217 793.586,-305.3715 803.8518,-302.7518 799.9776,-296.9217"/>
</g>
<!-- Node8 -->
<g id="node6" class="node">
<title>Node8</title>
<g id="a_node6"><a xlink:href="classTObject.html" target="_top" xlink:title="Mother of all ROOT objects. ">
<polygon fill="#ffffff" stroke="#000000" points="196,-141.5 196,-160.5 250,-160.5 250,-141.5 196,-141.5"/>
<text text-anchor="middle" x="223" y="-148.5" font-family="Helvetica,sans-Serif" font-size="10.00" fill="#000000">TObject</text>
</a>
</g>
</g>
<!-- Node8&#45;&gt;Node7 -->
<g id="edge5" class="edge">
<title>Node8&#45;&gt;Node7</title>
<path fill="none" stroke="#191970" d="M239.4562,-168.0264C252.3647,-180.7248 271.2318,-197.8951 290,-210 310.8959,-223.4772 317.1961,-225.8136 341,-233 427.6659,-259.1644 452.9805,-249.5356 542,-266 617.4982,-279.9636 705.9402,-298.8389 750.7624,-308.5844"/>
<polygon fill="#191970" stroke="#191970" points="241.7794,-165.3992 232.243,-160.7831 236.8193,-170.3386 241.7794,-165.3992"/>
</g>
<!-- Node8&#45;&gt;Node17 -->
<g id="edge15" class="edge">
<title>Node8&#45;&gt;Node17</title>
<path fill="none" stroke="#191970" d="M231.0434,-170.0526C254.4426,-222.9723 327.9422,-372.4836 439,-443 625.1184,-561.1763 905.2535,-540.4785 1018.9065,-525.7683"/>
<polygon fill="#191970" stroke="#191970" points="234.1122,-168.3319 226.9247,-160.5479 227.6893,-171.1152 234.1122,-168.3319"/>
</g>
<!-- Node25 -->
<g id="node23" class="node">
<title>Node25</title>
<g id="a_node23"><a xlink:href="classTRef.html" target="_top" xlink:title="Persistent Reference link to a TObject A TRef is a lightweight object pointing to any TObject...">
<polygon fill="#ffffff" stroke="#000000" points="1476,-82.5 1476,-101.5 1514,-101.5 1514,-82.5 1476,-82.5"/>
<text text-anchor="middle" x="1495" y="-89.5" font-family="Helvetica,sans-Serif" font-size="10.00" fill="#000000">TRef</text>
</a>
</g>
</g>
<!-- Node8&#45;&gt;Node25 -->
<g id="edge31" class="edge">
<title>Node8&#45;&gt;Node25</title>
<path fill="none" stroke="#191970" d="M228.9358,-131.9415C238.0093,-105.8182 257.7533,-59.0551 290,-32 322.8436,-4.4441 338.1278,0 381,0 381,0 381,0 1285,0 1344.9341,0 1361.8916,-6.2244 1416,-32 1443.6763,-45.1842 1471.0585,-69.0417 1485.1753,-82.3559"/>
<polygon fill="#191970" stroke="#191970" points="225.6055,-130.8649 225.7883,-141.4582 232.2514,-133.063 225.6055,-130.8649"/>
</g>
<!-- Node8&#45;&gt;Node25 -->
<g id="edge50" class="edge">
<title>Node8&#45;&gt;Node25</title>
<path fill="none" stroke="#9a32cd" stroke-dasharray="5,2" d="M236.8861,-133.3366C262.1111,-103.4206 318.6492,-46 381,-46 381,-46 381,-46 1285,-46 1356.8463,-46 1439.3835,-72.0099 1475.9092,-84.9133"/>
<polygon fill="#9a32cd" stroke="#9a32cd" points="233.9842,-131.3559 230.3559,-141.3101 239.3998,-135.7912 233.9842,-131.3559"/>
<text text-anchor="middle" x="780" y="-49" font-family="Helvetica,sans-Serif" font-size="10.00" fill="#000000"> fgObject</text>
</g>
<!-- Node27 -->
<g id="node25" class="node">
<title>Node27</title>
<g id="a_node25"><a xlink:href="classTObjArray.html" target="_top" xlink:title="An array of TObjects. ">
<polygon fill="#ffffff" stroke="#000000" points="1037,-92.5 1037,-111.5 1102,-111.5 1102,-92.5 1037,-92.5"/>
<text text-anchor="middle" x="1069.5" y="-99.5" font-family="Helvetica,sans-Serif" font-size="10.00" fill="#000000">TObjArray</text>
</a>
</g>
</g>
<!-- Node8&#45;&gt;Node27 -->
<g id="edge44" class="edge">
<title>Node8&#45;&gt;Node27</title>
<path fill="none" stroke="#9a32cd" stroke-dasharray="5,2" d="M246.8942,-135.9424C276.9741,-118.462 330.7997,-92 381,-92 381,-92 381,-92 780,-92 873.2887,-92 983.3862,-97.2506 1036.9508,-100.1425"/>
<polygon fill="#9a32cd" stroke="#9a32cd" points="244.787,-133.1242 237.9971,-141.2573 248.3769,-139.1336 244.787,-133.1242"/>
<text text-anchor="middle" x="595.5" y="-95" font-family="Helvetica,sans-Serif" font-size="10.00" fill="#000000"> fCont</text>
</g>
<!-- Node29 -->
<g id="node27" class="node">
<title>Node29</title>
<g id="a_node27"><a xlink:href="classTCollection.html" target="_top" xlink:title="Collection abstract base class. ">
<polygon fill="#ffffff" stroke="#000000" points="560,-124.5 560,-143.5 631,-143.5 631,-124.5 560,-124.5"/>
<text text-anchor="middle" x="595.5" y="-131.5" font-family="Helvetica,sans-Serif" font-size="10.00" fill="#000000">TCollection</text>
</a>
</g>
</g>
<!-- Node8&#45;&gt;Node29 -->
<g id="edge38" class="edge">
<title>Node8&#45;&gt;Node29</title>
<path fill="none" stroke="#191970" d="M260.189,-154.2706C269.8852,-154.9874 280.3272,-155.6396 290,-156 401.9655,-160.172 431.2691,-166.098 542,-149 550.008,-147.7635 558.5209,-145.7234 566.3452,-143.5403"/>
<polygon fill="#191970" stroke="#191970" points="260.2741,-150.7666 250.0321,-153.478 259.7295,-157.7454 260.2741,-150.7666"/>
</g>
<!-- Node30 -->
<g id="node28" class="node">
<title>Node30</title>
<g id="a_node28"><a xlink:href="classTObjectTable.html" target="_top" xlink:title="This class registers all instances of TObject and its derived classes in a hash table. ">
<polygon fill="#ffffff" stroke="#000000" points="341,-124.5 341,-143.5 421,-143.5 421,-124.5 341,-124.5"/>
<text text-anchor="middle" x="381" y="-131.5" font-family="Helvetica,sans-Serif" font-size="10.00" fill="#000000">TObjectTable</text>
</a>
</g>
</g>
<!-- Node8&#45;&gt;Node30 -->
<g id="edge40" class="edge">
<title>Node8&#45;&gt;Node30</title>
<path fill="none" stroke="#191970" d="M260.3884,-146.9772C284.6089,-144.3712 316.1322,-140.9794 340.877,-138.317"/>
<polygon fill="#191970" stroke="#191970" points="259.7293,-143.5278 250.1612,-148.0776 260.4782,-150.4876 259.7293,-143.5278"/>
</g>
<!-- Node8&#45;&gt;Node30 -->
<g id="edge41" class="edge">
<title>Node8&#45;&gt;Node30</title>
<path fill="none" stroke="#9a32cd" stroke-dasharray="5,2" d="M252.4918,-137.4034C263.9461,-132.8179 277.3373,-128.2855 290,-126 306.5438,-123.014 324.989,-123.8724 340.9246,-125.9034"/>
<polygon fill="#9a32cd" stroke="#9a32cd" points="250.8572,-134.2937 242.9914,-141.3916 253.5667,-140.748 250.8572,-134.2937"/>
<text text-anchor="middle" x="306.5" y="-129" font-family="Helvetica,sans-Serif" font-size="10.00" fill="#000000"> fTable</text>
</g>
<!-- Node31 -->
<g id="node29" class="node">
<title>Node31</title>
<g id="a_node29"><a xlink:href="classTExMap.html" target="_top" xlink:title="This class stores a (key,value) pair using an external hash. ">
<polygon fill="#ffffff" stroke="#000000" points="353.5,-204.5 353.5,-223.5 408.5,-223.5 408.5,-204.5 353.5,-204.5"/>
<text text-anchor="middle" x="381" y="-211.5" font-family="Helvetica,sans-Serif" font-size="10.00" fill="#000000">TExMap</text>
</a>
</g>
</g>
<!-- Node8&#45;&gt;Node31 -->
<g id="edge46" class="edge">
<title>Node8&#45;&gt;Node31</title>
<path fill="none" stroke="#191970" d="M245.3052,-166.0284C257.9783,-174.0353 274.3895,-183.5375 290,-190 310.531,-198.4996 334.9304,-204.7418 353.2937,-208.7263"/>
<polygon fill="#191970" stroke="#191970" points="247.1,-163.021 236.8028,-160.5273 243.2974,-168.8981 247.1,-163.021"/>
</g>
<!-- Node9 -->
<g id="node7" class="node">
<title>Node9</title>
<g id="a_node7"><a xlink:href="classTString.html" target="_top" xlink:title="Basic string class. ">
<polygon fill="#ffffff" stroke="#000000" points="355.5,-542.5 355.5,-561.5 406.5,-561.5 406.5,-542.5 355.5,-542.5"/>
<text text-anchor="middle" x="381" y="-549.5" font-family="Helvetica,sans-Serif" font-size="10.00" fill="#000000">TString</text>
</a>
</g>
</g>
<!-- Node9&#45;&gt;Node7 -->
<g id="edge6" class="edge">
<title>Node9&#45;&gt;Node7</title>
<path fill="none" stroke="#9a32cd" stroke-dasharray="5,2" d="M416.8536,-550.1162C450.6307,-547.1575 501.8964,-539.5517 542,-520 647.8806,-468.38 744.5232,-357.9264 772.1391,-324.6699"/>
<polygon fill="#9a32cd" stroke="#9a32cd" points="416.2346,-546.6539 406.5379,-550.9228 416.7803,-553.6326 416.2346,-546.6539"/>
<text text-anchor="middle" x="595.5" y="-523" font-family="Helvetica,sans-Serif" font-size="10.00" fill="#000000"> fTitle</text>
<text text-anchor="middle" x="595.5" y="-512" font-family="Helvetica,sans-Serif" font-size="10.00" fill="#000000">fName</text>
</g>
<!-- Node9&#45;&gt;Node17 -->
<g id="edge19" class="edge">
<title>Node9&#45;&gt;Node17</title>
<path fill="none" stroke="#9a32cd" stroke-dasharray="5,2" d="M416.843,-555.4113C508.9742,-563.4049 761.3231,-580.398 968,-549 995.1419,-544.8766 1025.0732,-535.0516 1045.3521,-527.5587"/>
<polygon fill="#9a32cd" stroke="#9a32cd" points="416.9362,-551.9059 406.6658,-554.5077 416.3171,-558.8785 416.9362,-551.9059"/>
<text text-anchor="middle" x="667.5" y="-570" font-family="Helvetica,sans-Serif" font-size="10.00" fill="#000000"> _name</text>
</g>
<!-- Node9&#45;&gt;Node29 -->
<g id="edge42" class="edge">
<title>Node9&#45;&gt;Node29</title>
<path fill="none" stroke="#9a32cd" stroke-dasharray="5,2" d="M390.4514,-533.5819C427.5927,-461.204 562.8493,-197.6269 590.5306,-143.684"/>
<polygon fill="#9a32cd" stroke="#9a32cd" points="387.3348,-531.9892 385.8832,-542.4841 393.5627,-535.1851 387.3348,-531.9892"/>
<text text-anchor="middle" x="490.5" y="-431" font-family="Helvetica,sans-Serif" font-size="10.00" fill="#000000"> fName</text>
</g>
<!-- Node10 -->
<g id="node8" class="node">
<title>Node10</title>
<g id="a_node8"><a xlink:href="structTString_1_1Rep__t.html" target="_top" xlink:title="TString::Rep_t">
<polygon fill="#ffffff" stroke="#000000" points="181,-542.5 181,-561.5 265,-561.5 265,-542.5 181,-542.5"/>
<text text-anchor="middle" x="223" y="-549.5" font-family="Helvetica,sans-Serif" font-size="10.00" fill="#000000">TString::Rep_t</text>
</a>
</g>
</g>
<!-- Node10&#45;&gt;Node9 -->
<g id="edge7" class="edge">
<title>Node10&#45;&gt;Node9</title>
<path fill="none" stroke="#9a32cd" stroke-dasharray="5,2" d="M275.3843,-552C302.2633,-552 333.797,-552 355.3648,-552"/>
<polygon fill="#9a32cd" stroke="#9a32cd" points="275.3411,-548.5001 265.3411,-552 275.3411,-555.5001 275.3411,-548.5001"/>
<text text-anchor="middle" x="306.5" y="-555" font-family="Helvetica,sans-Serif" font-size="10.00" fill="#000000"> fRep</text>
</g>
<!-- Node11 -->
<g id="node9" class="node">
<title>Node11</title>
<g id="a_node9"><a xlink:href="structTString_1_1LongStr__t.html" target="_top" xlink:title="TString::LongStr_t">
<polygon fill="#ffffff" stroke="#000000" points="1,-580.5 1,-599.5 104,-599.5 104,-580.5 1,-580.5"/>
<text text-anchor="middle" x="52.5" y="-587.5" font-family="Helvetica,sans-Serif" font-size="10.00" fill="#000000">TString::LongStr_t</text>
</a>
</g>
</g>
<!-- Node11&#45;&gt;Node10 -->
<g id="edge8" class="edge">
<title>Node11&#45;&gt;Node10</title>
<path fill="none" stroke="#9a32cd" stroke-dasharray="5,2" d="M105.4184,-578.2572C121.6487,-574.6511 139.5601,-570.6669 156,-567 164.0275,-565.2095 172.595,-563.2944 180.8282,-561.4521"/>
<polygon fill="#9a32cd" stroke="#9a32cd" points="104.5613,-574.8622 95.5582,-580.4475 106.0792,-581.6957 104.5613,-574.8622"/>
<text text-anchor="middle" x="139.5" y="-576" font-family="Helvetica,sans-Serif" font-size="10.00" fill="#000000"> fLong</text>
</g>
<!-- Node12 -->
<g id="node10" class="node">
<title>Node12</title>
<g id="a_node10"><a xlink:href="structTString_1_1RawStr__t.html" target="_top" xlink:title="TString::RawStr_t">
<polygon fill="#ffffff" stroke="#000000" points="2,-542.5 2,-561.5 103,-561.5 103,-542.5 2,-542.5"/>
<text text-anchor="middle" x="52.5" y="-549.5" font-family="Helvetica,sans-Serif" font-size="10.00" fill="#000000">TString::RawStr_t</text>
</a>
</g>
</g>
<!-- Node12&#45;&gt;Node10 -->
<g id="edge9" class="edge">
<title>Node12&#45;&gt;Node10</title>
<path fill="none" stroke="#9a32cd" stroke-dasharray="5,2" d="M113.2725,-552C135.6382,-552 160.4598,-552 180.83,-552"/>
<polygon fill="#9a32cd" stroke="#9a32cd" points="113.194,-548.5001 103.194,-552 113.194,-555.5001 113.194,-548.5001"/>
<text text-anchor="middle" x="139.5" y="-555" font-family="Helvetica,sans-Serif" font-size="10.00" fill="#000000"> fRaw</text>
</g>
<!-- Node13 -->
<g id="node11" class="node">
<title>Node13</title>
<g id="a_node11"><a xlink:href="structTString_1_1ShortStr__t.html" target="_top" xlink:title="TString::ShortStr_t">
<polygon fill="#ffffff" stroke="#000000" points="0,-504.5 0,-523.5 105,-523.5 105,-504.5 0,-504.5"/>
<text text-anchor="middle" x="52.5" y="-511.5" font-family="Helvetica,sans-Serif" font-size="10.00" fill="#000000">TString::ShortStr_t</text>
</a>
</g>
</g>
<!-- Node13&#45;&gt;Node10 -->
<g id="edge10" class="edge">
<title>Node13&#45;&gt;Node10</title>
<path fill="none" stroke="#9a32cd" stroke-dasharray="5,2" d="M105.4184,-525.7428C121.6487,-529.3489 139.5601,-533.3331 156,-537 164.0275,-538.7905 172.595,-540.7056 180.8282,-542.5479"/>
<polygon fill="#9a32cd" stroke="#9a32cd" points="106.0792,-522.3043 95.5582,-523.5525 104.5613,-529.1378 106.0792,-522.3043"/>
<text text-anchor="middle" x="139.5" y="-540" font-family="Helvetica,sans-Serif" font-size="10.00" fill="#000000"> fShort</text>
</g>
<!-- Node14 -->
<g id="node12" class="node">
<title>Node14</title>
<g id="a_node12"><a xlink:href="classRooPrintable.html" target="_top" xlink:title="RooPlotable is a &#39;mix&#45;in&#39; base class that define the standard RooFit plotting and printing methods...">
<polygon fill="#ffffff" stroke="#000000" points="741,-441.5 741,-460.5 819,-460.5 819,-441.5 741,-441.5"/>
<text text-anchor="middle" x="780" y="-448.5" font-family="Helvetica,sans-Serif" font-size="10.00" fill="#000000">RooPrintable</text>
</a>
</g>
</g>
<!-- Node14&#45;&gt;Node6 -->
<g id="edge11" class="edge">
<title>Node14&#45;&gt;Node6</title>
<path fill="none" stroke="#191970" d="M799.5281,-435.1504C817.6105,-421.5517 845.8762,-402.9324 874,-395 1010.4646,-356.5097 1051.2111,-391 1193,-391 1193,-391 1193,-391 1495,-391 1585.0235,-391 1689.5261,-409.4748 1744.5486,-420.6607"/>
<polygon fill="#191970" stroke="#191970" points="797.2795,-432.4649 791.5145,-441.3541 801.5645,-438.0002 797.2795,-432.4649"/>
</g>
<!-- Node14&#45;&gt;Node17 -->
<g id="edge16" class="edge">
<title>Node14&#45;&gt;Node17</title>
<path fill="none" stroke="#191970" d="M829.0847,-462.3598C885.111,-475.3262 975.7613,-496.3057 1028.2764,-508.4595"/>
<polygon fill="#191970" stroke="#191970" points="829.5749,-458.8809 819.0433,-460.0359 827.9966,-465.7006 829.5749,-458.8809"/>
</g>
<!-- Node14&#45;&gt;Node19 -->
<g id="edge22" class="edge">
<title>Node14&#45;&gt;Node19</title>
<path fill="none" stroke="#191970" d="M829.3,-449.4831C959.7015,-445.4707 1312.6912,-434.6095 1444.475,-430.5546"/>
<polygon fill="#191970" stroke="#191970" points="829.0918,-445.9877 819.2042,-449.7937 829.3072,-452.9844 829.0918,-445.9877"/>
</g>
<!-- Node15 -->
<g id="node13" class="node">
<title>Node15</title>
<polygon fill="#ffffff" stroke="#bfbfbf" points="1434,-458 1434,-488 1556,-488 1556,-458 1434,-458"/>
<text text-anchor="start" x="1442" y="-476" font-family="Helvetica,sans-Serif" font-size="10.00" fill="#000000">std::map&lt; std::string,</text>
<text text-anchor="middle" x="1495" y="-465" font-family="Helvetica,sans-Serif" font-size="10.00" fill="#000000"> RooAbsData *&gt;</text>
</g>
<!-- Node15&#45;&gt;Node6 -->
<g id="edge12" class="edge">
<title>Node15&#45;&gt;Node6</title>
<path fill="none" stroke="#9a32cd" stroke-dasharray="5,2" d="M1566.4804,-462.0971C1602.0981,-456.6625 1645.8219,-449.9882 1685,-444 1704.7367,-440.9833 1726.7086,-437.6207 1744.8377,-434.845"/>
<polygon fill="#9a32cd" stroke="#9a32cd" points="1565.5395,-458.7001 1556.1818,-463.6684 1566.5953,-465.62 1565.5395,-458.7001"/>
<text text-anchor="middle" x="1629.5" y="-463" font-family="Helvetica,sans-Serif" font-size="10.00" fill="#000000"> _ownedComponents</text>
</g>
<!-- Node16 -->
<g id="node14" class="node">
<title>Node16</title>
<g id="a_node14"><a xlink:href="classRooArgSet.html" target="_top" xlink:title="RooArgSet is a container object that can hold multiple RooAbsArg objects. ">
<polygon fill="#ffffff" stroke="#000000" points="1251.5,-513.5 1251.5,-532.5 1318.5,-532.5 1318.5,-513.5 1251.5,-513.5"/>
<text text-anchor="middle" x="1285" y="-520.5" font-family="Helvetica,sans-Serif" font-size="10.00" fill="#000000">RooArgSet</text>
</a>
</g>
</g>
<!-- Node16&#45;&gt;Node3 -->
<g id="edge53" class="edge">
<title>Node16&#45;&gt;Node3</title>
<path fill="none" stroke="#9a32cd" stroke-dasharray="5,2" d="M1317.2448,-536.1669C1357.9492,-551.5722 1430.4609,-575 1495,-575 1495,-575 1495,-575 2063,-575 2153.4729,-575 2233.8423,-479.9644 2257.7783,-448.7808"/>
<polygon fill="#9a32cd" stroke="#9a32cd" points="1318.4367,-532.8754 1307.8472,-532.5376 1315.9148,-539.4053 1318.4367,-532.8754"/>
<text text-anchor="middle" x="1783" y="-600" font-family="Helvetica,sans-Serif" font-size="10.00" fill="#000000"> fBestFitPoi</text>
<text text-anchor="middle" x="1783" y="-589" font-family="Helvetica,sans-Serif" font-size="10.00" fill="#000000">fBestFitParams</text>
<text text-anchor="middle" x="1783" y="-578" font-family="Helvetica,sans-Serif" font-size="10.00" fill="#000000">fAsimovGlobObs</text>
</g>
<!-- Node16&#45;&gt;Node6 -->
<g id="edge13" class="edge">
<title>Node16&#45;&gt;Node6</title>
<path fill="none" stroke="#9a32cd" stroke-dasharray="5,2" d="M1328.9979,-523.0555C1403.8888,-521.9852 1560.1555,-514.6679 1685,-475 1714.7347,-465.5521 1747.1134,-449.0153 1766.2046,-438.5556"/>
<polygon fill="#9a32cd" stroke="#9a32cd" points="1328.5129,-519.5605 1318.5523,-523.1712 1328.5905,-526.5601 1328.5129,-519.5605"/>
<text text-anchor="middle" x="1495" y="-532" font-family="Helvetica,sans-Serif" font-size="10.00" fill="#000000"> _vars</text>
<text text-anchor="middle" x="1495" y="-521" font-family="Helvetica,sans-Serif" font-size="10.00" fill="#000000">_cachedVars</text>
</g>
<!-- Node16&#45;&gt;Node19 -->
<g id="edge23" class="edge">
<title>Node16&#45;&gt;Node19</title>
<path fill="none" stroke="#9a32cd" stroke-dasharray="5,2" d="M1313.0258,-508.886C1325.7493,-502.6083 1341.0442,-495.2416 1355,-489 1381.7465,-477.0379 1390.8973,-479.1104 1416,-464 1424.922,-458.6295 1424.8902,-454.0453 1434,-449 1441.5072,-444.8423 1450.0169,-441.3763 1458.247,-438.5621"/>
<polygon fill="#9a32cd" stroke="#9a32cd" points="1311.2611,-505.8544 1303.862,-513.4376 1314.375,-512.1237 1311.2611,-505.8544"/>
<text text-anchor="middle" x="1385.5" y="-503" font-family="Helvetica,sans-Serif" font-size="10.00" fill="#000000"> _vars</text>
<text text-anchor="middle" x="1385.5" y="-492" font-family="Helvetica,sans-Serif" font-size="10.00" fill="#000000">_cachedVars</text>
</g>
<!-- Node17&#45;&gt;Node16 -->
<g id="edge14" class="edge">
<title>Node17&#45;&gt;Node16</title>
<path fill="none" stroke="#191970" d="M1130.2612,-519.4098C1169.4375,-520.3187 1218.9198,-521.4668 1251.2347,-522.2166"/>
<polygon fill="#191970" stroke="#191970" points="1130.1037,-515.9053 1120.0252,-519.1723 1129.9413,-522.9034 1130.1037,-515.9053"/>
</g>
<!-- Node18 -->
<g id="node16" class="node">
<title>Node18</title>
<polygon fill="#ffffff" stroke="#bfbfbf" points="704,-487.5 704,-506.5 856,-506.5 856,-487.5 704,-487.5"/>
<text text-anchor="middle" x="780" y="-494.5" font-family="Helvetica,sans-Serif" font-size="10.00" fill="#000000">std::vector&lt; RooAbsArg * &gt;</text>
</g>
<!-- Node18&#45;&gt;Node17 -->
<g id="edge17" class="edge">
<title>Node18&#45;&gt;Node17</title>
<path fill="none" stroke="#9a32cd" stroke-dasharray="5,2" d="M866.5746,-502.8117C898.4633,-504.9984 934.8785,-507.5496 968,-510 984.5703,-511.2259 1002.6567,-512.6301 1018.9117,-513.9165"/>
<polygon fill="#9a32cd" stroke="#9a32cd" points="866.6057,-499.3057 856.3902,-502.1151 866.128,-506.2894 866.6057,-499.3057"/>
<text text-anchor="middle" x="921" y="-513" font-family="Helvetica,sans-Serif" font-size="10.00" fill="#000000"> _list</text>
</g>
<!-- Node19&#45;&gt;Node6 -->
<g id="edge20" class="edge">
<title>Node19&#45;&gt;Node6</title>
<path fill="none" stroke="#9a32cd" stroke-dasharray="5,2" d="M1556.1522,-429C1613.1706,-429 1696.4532,-429 1744.6442,-429"/>
<polygon fill="#9a32cd" stroke="#9a32cd" points="1555.8257,-425.5001 1545.8257,-429 1555.8256,-432.5001 1555.8257,-425.5001"/>
<text text-anchor="middle" x="1629.5" y="-432" font-family="Helvetica,sans-Serif" font-size="10.00" fill="#000000"> _dstore</text>
</g>
<!-- Node20 -->
<g id="node18" class="node">
<title>Node20</title>
<g id="a_node18"><a xlink:href="classRooStats_1_1TestStatSampler.html" target="_top" xlink:title="TestStatSampler is an interface class for a tools which produce RooStats SamplingDistributions. ">
<polygon fill="#ffffff" stroke="#000000" points="1710.5,-333.5 1710.5,-352.5 1855.5,-352.5 1855.5,-333.5 1710.5,-333.5"/>
<text text-anchor="middle" x="1783" y="-340.5" font-family="Helvetica,sans-Serif" font-size="10.00" fill="#000000">RooStats::TestStatSampler</text>
</a>
</g>
</g>
<!-- Node20&#45;&gt;Node4 -->
<g id="edge24" class="edge">
<title>Node20&#45;&gt;Node4</title>
<path fill="none" stroke="#9a32cd" stroke-dasharray="5,2" d="M1866.1484,-338.8408C1897.2341,-338.2581 1932.8009,-338.7479 1965,-342 1975.9707,-343.108 1987.5286,-344.8969 1998.7073,-346.9607"/>
<polygon fill="#9a32cd" stroke="#9a32cd" points="1865.707,-335.3499 1855.7895,-339.0772 1865.8667,-342.3481 1865.707,-335.3499"/>
<text text-anchor="middle" x="1923" y="-356" font-family="Helvetica,sans-Serif" font-size="10.00" fill="#000000"> fDefaultSampler</text>
<text text-anchor="middle" x="1923" y="-345" font-family="Helvetica,sans-Serif" font-size="10.00" fill="#000000">fTestStatSampler</text>
</g>
<!-- Node21&#45;&gt;Node4 -->
<g id="edge25" class="edge">
<title>Node21&#45;&gt;Node4</title>
<path fill="none" stroke="#9a32cd" stroke-dasharray="5,2" d="M1818.248,-212.2515C1855.9007,-227.0864 1916.6851,-253.0153 1965,-283 1996.0092,-302.2446 2028.2652,-329.9996 2046.9453,-346.9721"/>
<polygon fill="#9a32cd" stroke="#9a32cd" points="1819.3218,-208.9137 1808.7334,-208.5452 1816.781,-215.4363 1819.3218,-208.9137"/>
<text text-anchor="middle" x="1923" y="-297" font-family="Helvetica,sans-Serif" font-size="10.00" fill="#000000"> fAltModel</text>
<text text-anchor="middle" x="1923" y="-286" font-family="Helvetica,sans-Serif" font-size="10.00" fill="#000000">fNullModel</text>
</g>
<!-- Node22 -->
<g id="node20" class="node">
<title>Node22</title>
<g id="a_node20"><a xlink:href="classRooWorkspaceHandle.html" target="_top" xlink:title="An interface to set and retrieve a workspace. ">
<polygon fill="#ffffff" stroke="#000000" points="1434,-305.5 1434,-324.5 1556,-324.5 1556,-305.5 1434,-305.5"/>
<text text-anchor="middle" x="1495" y="-312.5" font-family="Helvetica,sans-Serif" font-size="10.00" fill="#000000">RooWorkspaceHandle</text>
</a>
</g>
</g>
<!-- Node22&#45;&gt;Node21 -->
<g id="edge27" class="edge">
<title>Node22&#45;&gt;Node21</title>
<path fill="none" stroke="#191970" d="M1531.9833,-327.3908C1572.6448,-338.6109 1638.3823,-349.4466 1685,-321 1699.9317,-311.8885 1692.9899,-300.3448 1703,-286 1724.4884,-255.2062 1756.1352,-223.9808 1772.4365,-208.6765"/>
<polygon fill="#191970" stroke="#191970" points="1532.7921,-323.9812 1522.2128,-324.5537 1530.8401,-330.7035 1532.7921,-323.9812"/>
</g>
<!-- Node23 -->
<g id="node21" class="node">
<title>Node23</title>
<g id="a_node21"><a xlink:title="STL class. ">
<polygon fill="#ffffff" stroke="#bfbfbf" points="1462.5,-233.5 1462.5,-252.5 1527.5,-252.5 1527.5,-233.5 1462.5,-233.5"/>
<text text-anchor="middle" x="1495" y="-240.5" font-family="Helvetica,sans-Serif" font-size="10.00" fill="#000000">std::string</text>
</a>
</g>
</g>
<!-- Node23&#45;&gt;Node21 -->
<g id="edge28" class="edge">
<title>Node23&#45;&gt;Node21</title>
<path fill="none" stroke="#9a32cd" stroke-dasharray="5,2" d="M1516.4796,-227.4986C1531.7117,-217.4933 1553.0845,-205.3768 1574,-200 1621.9695,-187.6685 1678.2039,-188.203 1720.2515,-191.3892"/>
<polygon fill="#9a32cd" stroke="#9a32cd" points="1514.1437,-224.8548 1507.8481,-233.3763 1518.0836,-230.6407 1514.1437,-224.8548"/>
<text text-anchor="middle" x="1629.5" y="-313" font-family="Helvetica,sans-Serif" font-size="10.00" fill="#000000"> fConditionalObsName</text>
<text text-anchor="middle" x="1629.5" y="-302" font-family="Helvetica,sans-Serif" font-size="10.00" fill="#000000">fPdfName</text>
<text text-anchor="middle" x="1629.5" y="-291" font-family="Helvetica,sans-Serif" font-size="10.00" fill="#000000">fPriorPdfName</text>
<text text-anchor="middle" x="1629.5" y="-280" font-family="Helvetica,sans-Serif" font-size="10.00" fill="#000000">fSnapshotName</text>
<text text-anchor="middle" x="1629.5" y="-269" font-family="Helvetica,sans-Serif" font-size="10.00" fill="#000000">fProtoDataName</text>
<text text-anchor="middle" x="1629.5" y="-258" font-family="Helvetica,sans-Serif" font-size="10.00" fill="#000000">fConstrParamsName</text>
<text text-anchor="middle" x="1629.5" y="-247" font-family="Helvetica,sans-Serif" font-size="10.00" fill="#000000">fObservablesName</text>
<text text-anchor="middle" x="1629.5" y="-236" font-family="Helvetica,sans-Serif" font-size="10.00" fill="#000000">fPOIName</text>
<text text-anchor="middle" x="1629.5" y="-225" font-family="Helvetica,sans-Serif" font-size="10.00" fill="#000000">fWSName</text>
<text text-anchor="middle" x="1629.5" y="-214" font-family="Helvetica,sans-Serif" font-size="10.00" fill="#000000">fGlobalObsName</text>
<text text-anchor="middle" x="1629.5" y="-203" font-family="Helvetica,sans-Serif" font-size="10.00" fill="#000000">...</text>
</g>
<!-- Node24 -->
<g id="node22" class="node">
<title>Node24</title>
<polygon fill="#ffffff" stroke="#bfbfbf" points="1233,-241 1233,-271 1337,-271 1337,-241 1233,-241"/>
<text text-anchor="start" x="1241" y="-259" font-family="Helvetica,sans-Serif" font-size="10.00" fill="#000000">std::basic_string&lt;</text>
<text text-anchor="middle" x="1285" y="-248" font-family="Helvetica,sans-Serif" font-size="10.00" fill="#000000"> char &gt;</text>
</g>
<!-- Node24&#45;&gt;Node23 -->
<g id="edge29" class="edge">
<title>Node24&#45;&gt;Node23</title>
<path fill="none" stroke="#191970" d="M1347.5696,-252.1266C1385.3052,-249.7906 1431.8308,-246.9105 1462.4004,-245.0181"/>
<polygon fill="#191970" stroke="#191970" points="1346.9445,-248.6585 1337.1799,-252.7698 1347.3771,-255.6452 1346.9445,-248.6585"/>
</g>
<!-- Node25&#45;&gt;Node21 -->
<g id="edge30" class="edge">
<title>Node25&#45;&gt;Node21</title>
<path fill="none" stroke="#9a32cd" stroke-dasharray="5,2" d="M1524.0584,-96.8525C1562.0521,-103.786 1630.2134,-118.2619 1685,-141 1717.1378,-154.3381 1751.4065,-176.7504 1769.6859,-189.4555"/>
<polygon fill="#9a32cd" stroke="#9a32cd" points="1524.6366,-93.4005 1514.1784,-95.0963 1523.4115,-100.2925 1524.6366,-93.4005"/>
<text text-anchor="middle" x="1629.5" y="-144" font-family="Helvetica,sans-Serif" font-size="10.00" fill="#000000"> fRefWS</text>
</g>
<!-- Node26&#45;&gt;Node25 -->
<g id="edge32" class="edge">
<title>Node26&#45;&gt;Node25</title>
<path fill="none" stroke="#9a32cd" stroke-dasharray="5,2" d="M1330.5056,-133.5152C1375.8382,-122.0742 1443.2538,-105.0597 1475.9048,-96.8193"/>
<polygon fill="#9a32cd" stroke="#9a32cd" points="1329.4631,-130.1685 1320.6236,-136.0093 1331.1761,-136.9557 1329.4631,-130.1685"/>
<text text-anchor="middle" x="1385.5" y="-130" font-family="Helvetica,sans-Serif" font-size="10.00" fill="#000000"> fPID</text>
</g>
<!-- Node26&#45;&gt;Node26 -->
<g id="edge34" class="edge">
<title>Node26&#45;&gt;Node26</title>
<path fill="none" stroke="#9a32cd" stroke-dasharray="5,2" d="M1267.9638,-164.4C1269.1015,-169.3146 1274.7803,-173 1285,-173 1301.3516,-173 1306.0782,-163.5653 1299.1799,-154.7571"/>
<polygon fill="#9a32cd" stroke="#9a32cd" points="1271.3358,-165.3393 1270.8201,-154.7571 1264.6241,-163.3512 1271.3358,-165.3393"/>
<text text-anchor="middle" x="1285" y="-176" font-family="Helvetica,sans-Serif" font-size="10.00" fill="#000000"> fgPID</text>
</g>
<!-- Node27&#45;&gt;Node25 -->
<g id="edge49" class="edge">
<title>Node27&#45;&gt;Node25</title>
<path fill="none" stroke="#9a32cd" stroke-dasharray="5,2" d="M1112.3955,-100.9919C1203.1807,-98.8583 1411.6746,-93.9583 1475.8481,-92.4501"/>
<polygon fill="#9a32cd" stroke="#9a32cd" points="1112.0967,-97.4978 1102.1817,-101.2319 1112.2613,-104.4959 1112.0967,-97.4978"/>
<text text-anchor="middle" x="1285" y="-102" font-family="Helvetica,sans-Serif" font-size="10.00" fill="#000000"> fgExecs</text>
</g>
<!-- Node27&#45;&gt;Node26 -->
<g id="edge35" class="edge">
<title>Node27&#45;&gt;Node26</title>
<path fill="none" stroke="#9a32cd" stroke-dasharray="5,2" d="M1112.2537,-110.5309C1152.4157,-118.5447 1211.8126,-130.3965 1249.4466,-137.9058"/>
<polygon fill="#9a32cd" stroke="#9a32cd" points="1112.7214,-107.0553 1102.2298,-108.5308 1111.3516,-113.92 1112.7214,-107.0553"/>
<text text-anchor="middle" x="1193" y="-133" font-family="Helvetica,sans-Serif" font-size="10.00" fill="#000000"> fgPIDs</text>
</g>
<!-- Node28 -->
<g id="node26" class="node">
<title>Node28</title>
<g id="a_node26"><a xlink:href="classTSeqCollection.html" target="_top" xlink:title="Sequenceable collection abstract base class. ">
<polygon fill="#ffffff" stroke="#000000" points="735.5,-121.5 735.5,-140.5 824.5,-140.5 824.5,-121.5 735.5,-121.5"/>
<text text-anchor="middle" x="780" y="-128.5" font-family="Helvetica,sans-Serif" font-size="10.00" fill="#000000">TSeqCollection</text>
</a>
</g>
</g>
<!-- Node28&#45;&gt;Node27 -->
<g id="edge36" class="edge">
<title>Node28&#45;&gt;Node27</title>
<path fill="none" stroke="#191970" d="M834.5992,-125.5307C894.2659,-119.5537 987.8863,-110.1755 1036.9782,-105.2578"/>
<polygon fill="#191970" stroke="#191970" points="834.2012,-122.0529 824.5999,-126.5323 834.899,-129.018 834.2012,-122.0529"/>
</g>
<!-- Node29&#45;&gt;Node28 -->
<g id="edge37" class="edge">
<title>Node29&#45;&gt;Node28</title>
<path fill="none" stroke="#191970" d="M641.2613,-133.2559C669.9979,-132.7887 706.8827,-132.1889 735.3965,-131.7253"/>
<polygon fill="#191970" stroke="#191970" points="641.0152,-129.7594 631.0735,-133.4216 641.1291,-136.7584 641.0152,-129.7594"/>
</g>
<!-- Node29&#45;&gt;Node29 -->
<g id="edge43" class="edge">
<title>Node29&#45;&gt;Node29</title>
<path fill="none" stroke="#9a32cd" stroke-dasharray="5,2" d="M582.2408,-153.7663C583.2822,-158.4965 587.7019,-162 595.5,-162 608.2969,-162 611.996,-152.5653 606.5973,-143.7571"/>
<polygon fill="#9a32cd" stroke="#9a32cd" points="585.7125,-154.2706 584.4027,-143.7571 578.8703,-152.7927 585.7125,-154.2706"/>
<text text-anchor="middle" x="595.5" y="-165" font-family="Helvetica,sans-Serif" font-size="10.00" fill="#000000"> fgCurrentCollection</text>
</g>
<!-- Node30&#45;&gt;Node29 -->
<g id="edge39" class="edge">
<title>Node30&#45;&gt;Node29</title>
<path fill="none" stroke="#9a32cd" stroke-dasharray="5,2" d="M431.3068,-134C470.7857,-134 524.7631,-134 559.8752,-134"/>
<polygon fill="#9a32cd" stroke="#9a32cd" points="431.0942,-130.5001 421.0942,-134 431.0941,-137.5001 431.0942,-130.5001"/>
<text text-anchor="middle" x="490.5" y="-137" font-family="Helvetica,sans-Serif" font-size="10.00" fill="#000000"> fgGarbageCollection</text>
</g>
<!-- Node31&#45;&gt;Node26 -->
<g id="edge45" class="edge">
<title>Node31&#45;&gt;Node26</title>
<path fill="none" stroke="#9a32cd" stroke-dasharray="5,2" d="M418.7065,-210.3296C461.5135,-206.4852 533.461,-201 595.5,-201 595.5,-201 595.5,-201 1069.5,-201 1142.3661,-201 1224.7651,-170.638 1263.1518,-154.6267"/>
<polygon fill="#9a32cd" stroke="#9a32cd" points="418.3731,-206.8454 408.7341,-211.243 419.0117,-213.8162 418.3731,-206.8454"/>
<text text-anchor="middle" x="780" y="-204" font-family="Helvetica,sans-Serif" font-size="10.00" fill="#000000"> fgObjPIDs</text>
</g>
<!-- Node32 -->
<g id="node30" class="node">
<title>Node32</title>
<g id="a_node30"><a xlink:href="structTExMap_1_1Assoc__t.html" target="_top" xlink:title="TExMap::Assoc_t">
<polygon fill="#ffffff" stroke="#000000" points="174,-275.5 174,-294.5 272,-294.5 272,-275.5 174,-275.5"/>
<text text-anchor="middle" x="223" y="-282.5" font-family="Helvetica,sans-Serif" font-size="10.00" fill="#000000">TExMap::Assoc_t</text>
</a>
</g>
</g>
<!-- Node32&#45;&gt;Node31 -->
<g id="edge47" class="edge">
<title>Node32&#45;&gt;Node31</title>
<path fill="none" stroke="#9a32cd" stroke-dasharray="5,2" d="M253.8311,-271.1455C285.0606,-257.112 332.5332,-235.7794 359.7773,-223.5368"/>
<polygon fill="#9a32cd" stroke="#9a32cd" points="251.9953,-268.1332 244.3086,-275.4246 254.8646,-274.5182 251.9953,-268.1332"/>
<text text-anchor="middle" x="306.5" y="-257" font-family="Helvetica,sans-Serif" font-size="10.00" fill="#000000"> fTable</text>
</g>
<!-- Node33 -->
<g id="node31" class="node">
<title>Node33</title>
<g id="a_node31"><a xlink:href="classROOT_1_1Internal_1_1TAtomicPointer.html" target="_top" xlink:title="ROOT::Internal::TAtomicPointer\l\&lt; TObjArray *\&gt;">
<polygon fill="#ffffff" stroke="#000000" points="986,-142 986,-172 1153,-172 1153,-142 986,-142"/>
<text text-anchor="start" x="994" y="-160" font-family="Helvetica,sans-Serif" font-size="10.00" fill="#000000">ROOT::Internal::TAtomicPointer</text>
<text text-anchor="middle" x="1069.5" y="-149" font-family="Helvetica,sans-Serif" font-size="10.00" fill="#000000">&lt; TObjArray *&gt;</text>
</a>
</g>
</g>
<!-- Node33&#45;&gt;Node26 -->
<g id="edge48" class="edge">
<title>Node33&#45;&gt;Node26</title>
<path fill="none" stroke="#9a32cd" stroke-dasharray="5,2" d="M1163.3782,-151.7724C1193.8202,-150.0773 1225.7643,-148.2985 1249.2719,-146.9895"/>
<polygon fill="#9a32cd" stroke="#9a32cd" points="1162.9163,-148.2926 1153.1264,-152.3433 1163.3055,-155.2818 1162.9163,-148.2926"/>
<text text-anchor="middle" x="1193" y="-154" font-family="Helvetica,sans-Serif" font-size="10.00" fill="#000000"> fObjects</text>
</g>
<!-- Node34 -->
<g id="node32" class="node">
<title>Node34</title>
<g id="a_node32"><a xlink:href="classRooStats_1_1TestStatistic.html" target="_top" xlink:title="TestStatistic is an interface class to provide a facility for construction test statistics distributi...">
<polygon fill="#ffffff" stroke="#000000" points="1720.5,-295.5 1720.5,-314.5 1845.5,-314.5 1845.5,-295.5 1720.5,-295.5"/>
<text text-anchor="middle" x="1783" y="-302.5" font-family="Helvetica,sans-Serif" font-size="10.00" fill="#000000">RooStats::TestStatistic</text>
</a>
</g>
</g>
<!-- Node34&#45;&gt;Node4 -->
<g id="edge51" class="edge">
<title>Node34&#45;&gt;Node4</title>
<path fill="none" stroke="#9a32cd" stroke-dasharray="5,2" d="M1855.8426,-307.5326C1889.4424,-309.8871 1929.6318,-314.3949 1965,-323 1987.9525,-328.5843 2012.6575,-338.4437 2031.5206,-346.8516"/>
<polygon fill="#9a32cd" stroke="#9a32cd" points="1855.8454,-304.0255 1845.6392,-306.8688 1855.3909,-311.0107 1855.8454,-304.0255"/>
<text text-anchor="middle" x="1923" y="-326" font-family="Helvetica,sans-Serif" font-size="10.00" fill="#000000"> fDefaultTestStat</text>
</g>
</g>
</svg>
