<?xml version="1.0" encoding="UTF-8" standalone="no"?>
<!DOCTYPE svg PUBLIC "-//W3C//DTD SVG 1.1//EN"
 "http://www.w3.org/Graphics/SVG/1.1/DTD/svg11.dtd">
<!-- Generated by graphviz version 2.40.1 (0)
 -->
<!-- Title: TGenerator Pages: 1 -->
<svg width="144pt" height="196pt"
 viewBox="0.00 0.00 144.00 196.00" xmlns="http://www.w3.org/2000/svg" xmlns:xlink="http://www.w3.org/1999/xlink">
<g id="graph0" class="graph" transform="scale(1 1) rotate(0) translate(4 192)">
<title>TGenerator</title>
<polygon fill="#ffffff" stroke="transparent" points="-4,4 -4,-192 140,-192 140,4 -4,4"/>
<!-- Node0 -->
<g id="node1" class="node">
<title>Node0</title>
<polygon fill="#bfbfbf" stroke="#000000" points="32,-56.5 32,-75.5 103,-75.5 103,-56.5 32,-56.5"/>
<text text-anchor="middle" x="67.5" y="-63.5" font-family="Helvetica,sans-Serif" font-size="10.00" fill="#000000">TGenerator</text>
</g>
<!-- Node3 -->
<g id="node4" class="node">
<title>Node3</title>
<g id="a_node4"><a xlink:href="classTPythia6.html" target="_top" xlink:title="TPythia is an interface class to F77 version of Pythia 6.2. ">
<polygon fill="#ffffff" stroke="#000000" points="0,-.5 0,-19.5 59,-19.5 59,-.5 0,-.5"/>
<text text-anchor="middle" x="29.5" y="-7.5" font-family="Helvetica,sans-Serif" font-size="10.00" fill="#000000">TPythia6</text>
</a>
</g>
</g>
<!-- Node0&#45;&gt;Node3 -->
<g id="edge3" class="edge">
<title>Node0&#45;&gt;Node3</title>
<path fill="none" stroke="#191970" d="M55.2321,-47.9209C48.8512,-38.5176 41.3069,-27.3997 36.0432,-19.6427"/>
<polygon fill="#191970" stroke="#191970" points="52.3697,-49.936 60.8809,-56.2455 58.162,-46.0055 52.3697,-49.936"/>
</g>
<!-- Node4 -->
<g id="node5" class="node">
<title>Node4</title>
<g id="a_node5"><a xlink:href="classTPythia8.html" target="_top" xlink:title="TPythia8 is an interface class to C++ version of Pythia 8.1 &#160;event generators, written by T...">
<polygon fill="#ffffff" stroke="#000000" points="77,-.5 77,-19.5 136,-19.5 136,-.5 77,-.5"/>
<text text-anchor="middle" x="106.5" y="-7.5" font-family="Helvetica,sans-Serif" font-size="10.00" fill="#000000">TPythia8</text>
</a>
</g>
</g>
<!-- Node0&#45;&gt;Node4 -->
<g id="edge4" class="edge">
<title>Node0&#45;&gt;Node4</title>
<path fill="none" stroke="#191970" d="M80.0908,-47.9209C86.6395,-38.5176 94.3824,-27.3997 99.7846,-19.6427"/>
<polygon fill="#191970" stroke="#191970" points="77.1361,-46.0392 74.2933,-56.2455 82.8804,-50.0397 77.1361,-46.0392"/>
</g>
<!-- Node1 -->
<g id="node2" class="node">
<title>Node1</title>
<g id="a_node2"><a xlink:href="classTNamed.html" target="_top" xlink:title="The TNamed class is the base class for all named ROOT classes. ">
<polygon fill="#ffffff" stroke="#000000" points="38.5,-112.5 38.5,-131.5 96.5,-131.5 96.5,-112.5 38.5,-112.5"/>
<text text-anchor="middle" x="67.5" y="-119.5" font-family="Helvetica,sans-Serif" font-size="10.00" fill="#000000">TNamed</text>
</a>
</g>
</g>
<!-- Node1&#45;&gt;Node0 -->
<g id="edge1" class="edge">
<title>Node1&#45;&gt;Node0</title>
<path fill="none" stroke="#191970" d="M67.5,-102.1575C67.5,-93.155 67.5,-82.9199 67.5,-75.6427"/>
<polygon fill="#191970" stroke="#191970" points="64.0001,-102.2455 67.5,-112.2455 71.0001,-102.2456 64.0001,-102.2455"/>
</g>
<!-- Node2 -->
<g id="node3" class="node">
<title>Node2</title>
<g id="a_node3"><a xlink:href="classTObject.html" target="_top" xlink:title="Mother of all ROOT objects. ">
<polygon fill="#ffffff" stroke="#000000" points="40.5,-168.5 40.5,-187.5 94.5,-187.5 94.5,-168.5 40.5,-168.5"/>
<text text-anchor="middle" x="67.5" y="-175.5" font-family="Helvetica,sans-Serif" font-size="10.00" fill="#000000">TObject</text>
</a>
</g>
</g>
<!-- Node2&#45;&gt;Node1 -->
<g id="edge2" class="edge">
<title>Node2&#45;&gt;Node1</title>
<path fill="none" stroke="#191970" d="M67.5,-158.1575C67.5,-149.155 67.5,-138.9199 67.5,-131.6427"/>
<polygon fill="#191970" stroke="#191970" points="64.0001,-158.2455 67.5,-168.2455 71.0001,-158.2456 64.0001,-158.2455"/>
</g>
</g>
</svg>
