<?xml version="1.0" encoding="UTF-8" standalone="no"?>
<!DOCTYPE svg PUBLIC "-//W3C//DTD SVG 1.1//EN"
 "http://www.w3.org/Graphics/SVG/1.1/DTD/svg11.dtd">
<!-- Generated by graphviz version 2.40.1 (0)
 -->
<!-- Title: THnSparseT&lt; CONT &gt; Pages: 1 -->
<svg width="697pt" height="577pt"
 viewBox="0.00 0.00 697.00 577.00" xmlns="http://www.w3.org/2000/svg" xmlns:xlink="http://www.w3.org/1999/xlink">
<g id="graph0" class="graph" transform="scale(1 1) rotate(0) translate(4 573)">
<title>THnSparseT&lt; CONT &gt;</title>
<polygon fill="#ffffff" stroke="transparent" points="-4,4 -4,-573 693,-573 693,4 -4,4"/>
<!-- Node5 -->
<g id="node1" class="node">
<title>Node5</title>
<polygon fill="#bfbfbf" stroke="#000000" points="392,-.5 392,-19.5 517,-19.5 517,-.5 392,-.5"/>
<text text-anchor="middle" x="454.5" y="-7.5" font-family="Helvetica,sans-Serif" font-size="10.00" fill="#000000">THnSparseT&lt; CONT &gt;</text>
</g>
<!-- Node6 -->
<g id="node2" class="node">
<title>Node6</title>
<g id="a_node2"><a xlink:href="classTHnSparse.html" target="_top" xlink:title="Efficient multidimensional histogram. ">
<polygon fill="#ffffff" stroke="#000000" points="420,-57.5 420,-76.5 489,-76.5 489,-57.5 420,-57.5"/>
<text text-anchor="middle" x="454.5" y="-64.5" font-family="Helvetica,sans-Serif" font-size="10.00" fill="#000000">THnSparse</text>
</a>
</g>
</g>
<!-- Node6&#45;&gt;Node5 -->
<g id="edge1" class="edge">
<title>Node6&#45;&gt;Node5</title>
<path fill="none" stroke="#191970" d="M454.5,-47.2342C454.5,-37.8491 454.5,-27.0651 454.5,-19.5265"/>
<polygon fill="#191970" stroke="#191970" points="451.0001,-47.3307 454.5,-57.3307 458.0001,-47.3308 451.0001,-47.3307"/>
</g>
<!-- Node7 -->
<g id="node3" class="node">
<title>Node7</title>
<g id="a_node3"><a xlink:href="classTHnBase.html" target="_top" xlink:title="Multidimensional histogram base. ">
<polygon fill="#ffffff" stroke="#000000" points="281.5,-124.5 281.5,-143.5 341.5,-143.5 341.5,-124.5 281.5,-124.5"/>
<text text-anchor="middle" x="311.5" y="-131.5" font-family="Helvetica,sans-Serif" font-size="10.00" fill="#000000">THnBase</text>
</a>
</g>
</g>
<!-- Node7&#45;&gt;Node6 -->
<g id="edge2" class="edge">
<title>Node7&#45;&gt;Node6</title>
<path fill="none" stroke="#191970" d="M341.2265,-120.0722C369.0083,-107.0555 409.7495,-87.967 434.0496,-76.5817"/>
<polygon fill="#191970" stroke="#191970" points="339.5588,-116.9884 331.9884,-124.4005 342.5287,-123.3271 339.5588,-116.9884"/>
</g>
<!-- Node8 -->
<g id="node4" class="node">
<title>Node8</title>
<g id="a_node4"><a xlink:href="classTNamed.html" target="_top" xlink:title="The TNamed class is the base class for all named ROOT classes. ">
<polygon fill="#ffffff" stroke="#000000" points="141.5,-337.5 141.5,-356.5 199.5,-356.5 199.5,-337.5 141.5,-337.5"/>
<text text-anchor="middle" x="170.5" y="-344.5" font-family="Helvetica,sans-Serif" font-size="10.00" fill="#000000">TNamed</text>
</a>
</g>
</g>
<!-- Node8&#45;&gt;Node7 -->
<g id="edge3" class="edge">
<title>Node8&#45;&gt;Node7</title>
<path fill="none" stroke="#191970" d="M209.4942,-334.5558C227.2835,-327.0897 247.28,-315.8942 260.5,-300 300.7935,-251.5557 309.2877,-171.5697 311.0486,-143.8327"/>
<polygon fill="#191970" stroke="#191970" points="207.9235,-331.4124 199.8953,-338.3261 210.4827,-337.9278 207.9235,-331.4124"/>
</g>
<!-- Node9 -->
<g id="node5" class="node">
<title>Node9</title>
<g id="a_node5"><a xlink:href="classTObject.html" target="_top" xlink:title="Mother of all ROOT objects. ">
<polygon fill="#ffffff" stroke="#000000" points="352.5,-482.5 352.5,-501.5 406.5,-501.5 406.5,-482.5 352.5,-482.5"/>
<text text-anchor="middle" x="379.5" y="-489.5" font-family="Helvetica,sans-Serif" font-size="10.00" fill="#000000">TObject</text>
</a>
</g>
</g>
<!-- Node9&#45;&gt;Node8 -->
<g id="edge4" class="edge">
<title>Node9&#45;&gt;Node8</title>
<path fill="none" stroke="#191970" d="M343.1011,-478.4616C321.0023,-468.8767 293.329,-454.2929 273.5,-435 251.373,-413.4713 261.7776,-395.2791 238.5,-375 227.4295,-365.3556 212.583,-358.7258 199.5869,-354.3483"/>
<polygon fill="#191970" stroke="#191970" points="341.9256,-481.7636 352.5021,-482.3875 344.6231,-475.3042 341.9256,-481.7636"/>
</g>
<!-- Node15 -->
<g id="node11" class="node">
<title>Node15</title>
<g id="a_node11"><a xlink:href="classTObjArray.html" target="_top" xlink:title="An array of TObjects. ">
<polygon fill="#ffffff" stroke="#000000" points="356,-202.5 356,-221.5 421,-221.5 421,-202.5 356,-202.5"/>
<text text-anchor="middle" x="388.5" y="-209.5" font-family="Helvetica,sans-Serif" font-size="10.00" fill="#000000">TObjArray</text>
</a>
</g>
</g>
<!-- Node9&#45;&gt;Node15 -->
<g id="edge19" class="edge">
<title>Node9&#45;&gt;Node15</title>
<path fill="none" stroke="#9a32cd" stroke-dasharray="5,2" d="M406.2772,-476.7774C423.0485,-465.057 441.5,-447.1329 441.5,-425 441.5,-425 441.5,-425 441.5,-290 441.5,-261.1853 416.4492,-235.1236 400.7925,-221.649"/>
<polygon fill="#9a32cd" stroke="#9a32cd" points="404.229,-473.9346 397.7667,-482.3304 408.0542,-479.7971 404.229,-473.9346"/>
<text text-anchor="middle" x="456.5" y="-344.5" font-family="Helvetica,sans-Serif" font-size="10.00" fill="#000000"> fCont</text>
</g>
<!-- Node17 -->
<g id="node13" class="node">
<title>Node17</title>
<g id="a_node13"><a xlink:href="classTCollection.html" target="_top" xlink:title="Collection abstract base class. ">
<polygon fill="#ffffff" stroke="#000000" points="218,-337.5 218,-356.5 289,-356.5 289,-337.5 218,-337.5"/>
<text text-anchor="middle" x="253.5" y="-344.5" font-family="Helvetica,sans-Serif" font-size="10.00" fill="#000000">TCollection</text>
</a>
</g>
</g>
<!-- Node9&#45;&gt;Node17 -->
<g id="edge13" class="edge">
<title>Node9&#45;&gt;Node17</title>
<path fill="none" stroke="#191970" d="M388.4998,-472.9173C398.9746,-447.5717 412.1411,-402.7774 389.5,-375 377.0491,-359.7246 325.0277,-352.5399 289.0596,-349.3421"/>
<polygon fill="#191970" stroke="#191970" points="385.2437,-471.6274 384.4242,-482.1905 391.652,-474.4439 385.2437,-471.6274"/>
</g>
<!-- Node18 -->
<g id="node14" class="node">
<title>Node18</title>
<g id="a_node14"><a xlink:href="classTObjectTable.html" target="_top" xlink:title="This class registers all instances of TObject and its derived classes in a hash table. ">
<polygon fill="#ffffff" stroke="#000000" points="282.5,-415.5 282.5,-434.5 362.5,-434.5 362.5,-415.5 282.5,-415.5"/>
<text text-anchor="middle" x="322.5" y="-422.5" font-family="Helvetica,sans-Serif" font-size="10.00" fill="#000000">TObjectTable</text>
</a>
</g>
</g>
<!-- Node9&#45;&gt;Node18 -->
<g id="edge15" class="edge">
<title>Node9&#45;&gt;Node18</title>
<path fill="none" stroke="#191970" d="M350.3326,-476.7534C345.2208,-473.101 340.3232,-468.8345 336.5,-464 329.628,-455.3104 325.9576,-442.9622 324.1237,-434.5018"/>
<polygon fill="#191970" stroke="#191970" points="348.6807,-479.8521 358.986,-482.3122 352.4641,-473.9626 348.6807,-479.8521"/>
</g>
<!-- Node9&#45;&gt;Node18 -->
<g id="edge16" class="edge">
<title>Node9&#45;&gt;Node18</title>
<path fill="none" stroke="#9a32cd" stroke-dasharray="5,2" d="M364.7946,-474.7147C353.9274,-461.941 339.534,-445.0224 330.6516,-434.5817"/>
<polygon fill="#9a32cd" stroke="#9a32cd" points="362.1877,-477.0519 371.3333,-482.4005 367.5193,-472.516 362.1877,-477.0519"/>
<text text-anchor="middle" x="371" y="-456" font-family="Helvetica,sans-Serif" font-size="10.00" fill="#000000"> fTable</text>
</g>
<!-- Node21 -->
<g id="node17" class="node">
<title>Node21</title>
<g id="a_node17"><a xlink:href="classTExMap.html" target="_top" xlink:title="This class stores a (key,value) pair using an external hash. ">
<polygon fill="#ffffff" stroke="#000000" points="472,-415.5 472,-434.5 527,-434.5 527,-415.5 472,-415.5"/>
<text text-anchor="middle" x="499.5" y="-422.5" font-family="Helvetica,sans-Serif" font-size="10.00" fill="#000000">TExMap</text>
</a>
</g>
</g>
<!-- Node9&#45;&gt;Node21 -->
<g id="edge24" class="edge">
<title>Node9&#45;&gt;Node21</title>
<path fill="none" stroke="#191970" d="M416.4795,-480.4771C428.3631,-476.0842 441.3337,-470.5342 452.5,-464 466.5931,-455.753 480.7387,-443.315 489.7736,-434.7126"/>
<polygon fill="#191970" stroke="#191970" points="415.0792,-477.2597 406.8164,-483.8911 417.4112,-483.8598 415.0792,-477.2597"/>
</g>
<!-- Node10 -->
<g id="node6" class="node">
<title>Node10</title>
<g id="a_node6"><a xlink:href="classTString.html" target="_top" xlink:title="Basic string class. ">
<polygon fill="#ffffff" stroke="#000000" points="146,-415.5 146,-434.5 197,-434.5 197,-415.5 146,-415.5"/>
<text text-anchor="middle" x="171.5" y="-422.5" font-family="Helvetica,sans-Serif" font-size="10.00" fill="#000000">TString</text>
</a>
</g>
</g>
<!-- Node10&#45;&gt;Node8 -->
<g id="edge5" class="edge">
<title>Node10&#45;&gt;Node8</title>
<path fill="none" stroke="#9a32cd" stroke-dasharray="5,2" d="M151.229,-407.8753C148.4852,-404.5672 146.0757,-400.9041 144.5,-397 140.8405,-387.9329 140.926,-384.1012 144.5,-375 147.3127,-367.8374 152.9147,-361.4169 158.2008,-356.5366"/>
<polygon fill="#9a32cd" stroke="#9a32cd" points="148.9718,-410.5744 158.4535,-415.3017 153.9893,-405.6933 148.9718,-410.5744"/>
<text text-anchor="middle" x="161.5" y="-389" font-family="Helvetica,sans-Serif" font-size="10.00" fill="#000000"> fTitle</text>
<text text-anchor="middle" x="161.5" y="-378" font-family="Helvetica,sans-Serif" font-size="10.00" fill="#000000">fName</text>
</g>
<!-- Node10&#45;&gt;Node17 -->
<g id="edge17" class="edge">
<title>Node10&#45;&gt;Node17</title>
<path fill="none" stroke="#9a32cd" stroke-dasharray="5,2" d="M188.9764,-408.3762C205.5229,-392.6367 229.7947,-369.5489 243.3629,-356.6426"/>
<polygon fill="#9a32cd" stroke="#9a32cd" points="186.3882,-406.0075 181.5548,-415.4357 191.2127,-411.0795 186.3882,-406.0075"/>
<text text-anchor="middle" x="241" y="-383.5" font-family="Helvetica,sans-Serif" font-size="10.00" fill="#000000"> fName</text>
</g>
<!-- Node11 -->
<g id="node7" class="node">
<title>Node11</title>
<g id="a_node7"><a xlink:href="structTString_1_1Rep__t.html" target="_top" xlink:title="TString::Rep_t">
<polygon fill="#ffffff" stroke="#000000" points="129.5,-482.5 129.5,-501.5 213.5,-501.5 213.5,-482.5 129.5,-482.5"/>
<text text-anchor="middle" x="171.5" y="-489.5" font-family="Helvetica,sans-Serif" font-size="10.00" fill="#000000">TString::Rep_t</text>
</a>
</g>
</g>
<!-- Node11&#45;&gt;Node10 -->
<g id="edge6" class="edge">
<title>Node11&#45;&gt;Node10</title>
<path fill="none" stroke="#9a32cd" stroke-dasharray="5,2" d="M171.5,-472.1079C171.5,-459.714 171.5,-444.3263 171.5,-434.5817"/>
<polygon fill="#9a32cd" stroke="#9a32cd" points="168.0001,-472.4005 171.5,-482.4005 175.0001,-472.4006 168.0001,-472.4005"/>
<text text-anchor="middle" x="184" y="-456" font-family="Helvetica,sans-Serif" font-size="10.00" fill="#000000"> fRep</text>
</g>
<!-- Node12 -->
<g id="node8" class="node">
<title>Node12</title>
<g id="a_node8"><a xlink:href="structTString_1_1LongStr__t.html" target="_top" xlink:title="TString::LongStr_t">
<polygon fill="#ffffff" stroke="#000000" points="0,-549.5 0,-568.5 103,-568.5 103,-549.5 0,-549.5"/>
<text text-anchor="middle" x="51.5" y="-556.5" font-family="Helvetica,sans-Serif" font-size="10.00" fill="#000000">TString::LongStr_t</text>
</a>
</g>
</g>
<!-- Node12&#45;&gt;Node11 -->
<g id="edge7" class="edge">
<title>Node12&#45;&gt;Node11</title>
<path fill="none" stroke="#9a32cd" stroke-dasharray="5,2" d="M77.6768,-544.3846C100.9489,-531.391 134.3033,-512.7681 154.3388,-501.5817"/>
<polygon fill="#9a32cd" stroke="#9a32cd" points="75.7181,-541.4696 68.6931,-549.4005 79.1306,-547.5815 75.7181,-541.4696"/>
<text text-anchor="middle" x="135" y="-523" font-family="Helvetica,sans-Serif" font-size="10.00" fill="#000000"> fLong</text>
</g>
<!-- Node13 -->
<g id="node9" class="node">
<title>Node13</title>
<g id="a_node9"><a xlink:href="structTString_1_1RawStr__t.html" target="_top" xlink:title="TString::RawStr_t">
<polygon fill="#ffffff" stroke="#000000" points="121,-549.5 121,-568.5 222,-568.5 222,-549.5 121,-549.5"/>
<text text-anchor="middle" x="171.5" y="-556.5" font-family="Helvetica,sans-Serif" font-size="10.00" fill="#000000">TString::RawStr_t</text>
</a>
</g>
</g>
<!-- Node13&#45;&gt;Node11 -->
<g id="edge8" class="edge">
<title>Node13&#45;&gt;Node11</title>
<path fill="none" stroke="#9a32cd" stroke-dasharray="5,2" d="M171.5,-539.1079C171.5,-526.714 171.5,-511.3263 171.5,-501.5817"/>
<polygon fill="#9a32cd" stroke="#9a32cd" points="168.0001,-539.4005 171.5,-549.4005 175.0001,-539.4006 168.0001,-539.4005"/>
<text text-anchor="middle" x="185.5" y="-523" font-family="Helvetica,sans-Serif" font-size="10.00" fill="#000000"> fRaw</text>
</g>
<!-- Node14 -->
<g id="node10" class="node">
<title>Node14</title>
<g id="a_node10"><a xlink:href="structTString_1_1ShortStr__t.html" target="_top" xlink:title="TString::ShortStr_t">
<polygon fill="#ffffff" stroke="#000000" points="240,-549.5 240,-568.5 345,-568.5 345,-549.5 240,-549.5"/>
<text text-anchor="middle" x="292.5" y="-556.5" font-family="Helvetica,sans-Serif" font-size="10.00" fill="#000000">TString::ShortStr_t</text>
</a>
</g>
</g>
<!-- Node14&#45;&gt;Node11 -->
<g id="edge9" class="edge">
<title>Node14&#45;&gt;Node11</title>
<path fill="none" stroke="#9a32cd" stroke-dasharray="5,2" d="M266.105,-544.3846C242.639,-531.391 209.0066,-512.7681 188.8042,-501.5817"/>
<polygon fill="#9a32cd" stroke="#9a32cd" points="264.7198,-547.6183 275.1637,-549.4005 268.1107,-541.4944 264.7198,-547.6183"/>
<text text-anchor="middle" x="256" y="-523" font-family="Helvetica,sans-Serif" font-size="10.00" fill="#000000"> fShort</text>
</g>
<!-- Node15&#45;&gt;Node6 -->
<g id="edge22" class="edge">
<title>Node15&#45;&gt;Node6</title>
<path fill="none" stroke="#9a32cd" stroke-dasharray="5,2" d="M395.663,-193.0008C402.5834,-175.0232 413.5935,-147.3851 424.5,-124 432.4409,-106.9737 442.8793,-87.7466 449.1173,-76.5398"/>
<polygon fill="#9a32cd" stroke="#9a32cd" points="392.3852,-191.7734 392.0926,-202.3642 398.9259,-194.2675 392.3852,-191.7734"/>
<text text-anchor="middle" x="455" y="-131.5" font-family="Helvetica,sans-Serif" font-size="10.00" fill="#000000"> fBinContent</text>
</g>
<!-- Node15&#45;&gt;Node7 -->
<g id="edge10" class="edge">
<title>Node15&#45;&gt;Node7</title>
<path fill="none" stroke="#9a32cd" stroke-dasharray="5,2" d="M352.7123,-197.7367C346.0993,-193.9711 339.6615,-189.4111 334.5,-184 323.4204,-172.3846 316.9775,-154.4812 313.8572,-143.5451"/>
<polygon fill="#9a32cd" stroke="#9a32cd" points="351.2428,-200.9168 361.7354,-202.3847 354.4484,-194.6938 351.2428,-200.9168"/>
<text text-anchor="middle" x="365" y="-176" font-family="Helvetica,sans-Serif" font-size="10.00" fill="#000000"> fAxes</text>
<text text-anchor="middle" x="365" y="-165" font-family="Helvetica,sans-Serif" font-size="10.00" fill="#000000">fBrowsables</text>
</g>
<!-- Node16 -->
<g id="node12" class="node">
<title>Node16</title>
<g id="a_node12"><a xlink:href="classTSeqCollection.html" target="_top" xlink:title="Sequenceable collection abstract base class. ">
<polygon fill="#ffffff" stroke="#000000" points="324,-280.5 324,-299.5 413,-299.5 413,-280.5 324,-280.5"/>
<text text-anchor="middle" x="368.5" y="-287.5" font-family="Helvetica,sans-Serif" font-size="10.00" fill="#000000">TSeqCollection</text>
</a>
</g>
</g>
<!-- Node16&#45;&gt;Node15 -->
<g id="edge11" class="edge">
<title>Node16&#45;&gt;Node15</title>
<path fill="none" stroke="#191970" d="M373.439,-270.7379C377.4363,-255.1484 382.8987,-233.845 386.0275,-221.6426"/>
<polygon fill="#191970" stroke="#191970" points="370.0459,-269.8797 370.9524,-280.4357 376.8265,-271.6184 370.0459,-269.8797"/>
</g>
<!-- Node17&#45;&gt;Node16 -->
<g id="edge12" class="edge">
<title>Node17&#45;&gt;Node16</title>
<path fill="none" stroke="#191970" d="M281.8206,-332.9628C302.7729,-322.5778 330.7581,-308.7069 349.1888,-299.5716"/>
<polygon fill="#191970" stroke="#191970" points="280.1539,-329.8825 272.7484,-337.4595 283.2626,-336.1544 280.1539,-329.8825"/>
</g>
<!-- Node17&#45;&gt;Node17 -->
<g id="edge18" class="edge">
<title>Node17&#45;&gt;Node17</title>
<path fill="none" stroke="#9a32cd" stroke-dasharray="5,2" d="M299.2805,-351.3285C303.9895,-350.4765 307,-349.0337 307,-347 307,-343.7461 299.2932,-342.0047 289.2532,-341.776"/>
<polygon fill="#9a32cd" stroke="#9a32cd" points="298.9022,-347.8483 289.2532,-352.224 299.5249,-354.8206 298.9022,-347.8483"/>
<text text-anchor="middle" x="356" y="-344.5" font-family="Helvetica,sans-Serif" font-size="10.00" fill="#000000"> fgCurrentCollection</text>
</g>
<!-- Node18&#45;&gt;Node17 -->
<g id="edge14" class="edge">
<title>Node18&#45;&gt;Node17</title>
<path fill="none" stroke="#9a32cd" stroke-dasharray="5,2" d="M299.7715,-409.1497C295.1342,-405.4268 290.4657,-401.2863 286.5,-397 274.9161,-384.4795 264.6309,-367.4809 258.7344,-356.8801"/>
<polygon fill="#9a32cd" stroke="#9a32cd" points="297.8454,-412.0818 307.9263,-415.3414 302.0784,-406.5067 297.8454,-412.0818"/>
<text text-anchor="middle" x="338" y="-383.5" font-family="Helvetica,sans-Serif" font-size="10.00" fill="#000000"> fgGarbageCollection</text>
</g>
<!-- Node19 -->
<g id="node15" class="node">
<title>Node19</title>
<g id="a_node15"><a xlink:href="classTArrayD.html" target="_top" xlink:title="Array of doubles (64 bits per element). ">
<polygon fill="#ffffff" stroke="#000000" points="199.5,-202.5 199.5,-221.5 255.5,-221.5 255.5,-202.5 199.5,-202.5"/>
<text text-anchor="middle" x="227.5" y="-209.5" font-family="Helvetica,sans-Serif" font-size="10.00" fill="#000000">TArrayD</text>
</a>
</g>
</g>
<!-- Node19&#45;&gt;Node7 -->
<g id="edge20" class="edge">
<title>Node19&#45;&gt;Node7</title>
<path fill="none" stroke="#9a32cd" stroke-dasharray="5,2" d="M222.8839,-192.2417C221.7164,-182.2799 222.2411,-170.5354 228.5,-162 234.9748,-153.1701 260.4272,-145.4145 281.4587,-140.3184"/>
<polygon fill="#9a32cd" stroke="#9a32cd" points="219.4414,-192.8744 224.6238,-202.1153 226.3352,-191.6596 219.4414,-192.8744"/>
<text text-anchor="middle" x="255" y="-176" font-family="Helvetica,sans-Serif" font-size="10.00" fill="#000000"> fTsumwx2</text>
<text text-anchor="middle" x="255" y="-165" font-family="Helvetica,sans-Serif" font-size="10.00" fill="#000000">fTsumwx</text>
</g>
<!-- Node20 -->
<g id="node16" class="node">
<title>Node20</title>
<g id="a_node16"><a xlink:href="classTArray.html" target="_top" xlink:title="Abstract array base class. ">
<polygon fill="#ffffff" stroke="#000000" points="203.5,-280.5 203.5,-299.5 251.5,-299.5 251.5,-280.5 203.5,-280.5"/>
<text text-anchor="middle" x="227.5" y="-287.5" font-family="Helvetica,sans-Serif" font-size="10.00" fill="#000000">TArray</text>
</a>
</g>
</g>
<!-- Node20&#45;&gt;Node19 -->
<g id="edge21" class="edge">
<title>Node20&#45;&gt;Node19</title>
<path fill="none" stroke="#191970" d="M227.5,-270.2866C227.5,-254.7395 227.5,-233.7276 227.5,-221.6426"/>
<polygon fill="#191970" stroke="#191970" points="224.0001,-270.4356 227.5,-280.4357 231.0001,-270.4357 224.0001,-270.4356"/>
</g>
<!-- Node21&#45;&gt;Node6 -->
<g id="edge23" class="edge">
<title>Node21&#45;&gt;Node6</title>
<path fill="none" stroke="#9a32cd" stroke-dasharray="5,2" d="M499.5,-405.2698C499.5,-389.5008 499.5,-366.8322 499.5,-347 499.5,-347 499.5,-347 499.5,-134 499.5,-110.1795 479.6559,-88.45 466.3232,-76.5388"/>
<polygon fill="#9a32cd" stroke="#9a32cd" points="496.0001,-405.3935 499.5,-415.3935 503.0001,-405.3936 496.0001,-405.3935"/>
<text text-anchor="middle" x="538.5" y="-254" font-family="Helvetica,sans-Serif" font-size="10.00" fill="#000000"> fBinsContinued</text>
<text text-anchor="middle" x="538.5" y="-243" font-family="Helvetica,sans-Serif" font-size="10.00" fill="#000000">fBins</text>
</g>
<!-- Node22 -->
<g id="node18" class="node">
<title>Node22</title>
<g id="a_node18"><a xlink:href="structTExMap_1_1Assoc__t.html" target="_top" xlink:title="TExMap::Assoc_t">
<polygon fill="#ffffff" stroke="#000000" points="450.5,-482.5 450.5,-501.5 548.5,-501.5 548.5,-482.5 450.5,-482.5"/>
<text text-anchor="middle" x="499.5" y="-489.5" font-family="Helvetica,sans-Serif" font-size="10.00" fill="#000000">TExMap::Assoc_t</text>
</a>
</g>
</g>
<!-- Node22&#45;&gt;Node21 -->
<g id="edge25" class="edge">
<title>Node22&#45;&gt;Node21</title>
<path fill="none" stroke="#9a32cd" stroke-dasharray="5,2" d="M499.5,-472.1079C499.5,-459.714 499.5,-444.3263 499.5,-434.5817"/>
<polygon fill="#9a32cd" stroke="#9a32cd" points="496.0001,-472.4005 499.5,-482.4005 503.0001,-472.4006 496.0001,-472.4005"/>
<text text-anchor="middle" x="516" y="-456" font-family="Helvetica,sans-Serif" font-size="10.00" fill="#000000"> fTable</text>
</g>
<!-- Node23 -->
<g id="node19" class="node">
<title>Node23</title>
<g id="a_node19"><a xlink:title="THnSparseCompactBinCoord is a class used by THnSparse internally. ">
<polygon fill="#ffffff" stroke="#bfbfbf" points="529,-124.5 529,-143.5 686,-143.5 686,-124.5 529,-124.5"/>
<text text-anchor="middle" x="607.5" y="-131.5" font-family="Helvetica,sans-Serif" font-size="10.00" fill="#000000">THnSparseCompactBinCoord</text>
</a>
</g>
</g>
<!-- Node23&#45;&gt;Node6 -->
<g id="edge26" class="edge">
<title>Node23&#45;&gt;Node6</title>
<path fill="none" stroke="#9a32cd" stroke-dasharray="5,2" d="M576.0833,-120.2424C546.3511,-107.2224 502.4934,-88.0167 476.3805,-76.5817"/>
<polygon fill="#9a32cd" stroke="#9a32cd" points="575.0146,-123.5952 585.5788,-124.4005 577.8226,-117.1831 575.0146,-123.5952"/>
<text text-anchor="middle" x="580" y="-98" font-family="Helvetica,sans-Serif" font-size="10.00" fill="#000000"> fCompactCoord</text>
</g>
<!-- Node24 -->
<g id="node20" class="node">
<title>Node24</title>
<g id="a_node20"><a xlink:title="THnSparseCoordCompression is a class used by THnSparse internally. ">
<polygon fill="#ffffff" stroke="#bfbfbf" points="528,-202.5 528,-221.5 689,-221.5 689,-202.5 528,-202.5"/>
<text text-anchor="middle" x="608.5" y="-209.5" font-family="Helvetica,sans-Serif" font-size="10.00" fill="#000000">THnSparseCoordCompression</text>
</a>
</g>
</g>
<!-- Node24&#45;&gt;Node23 -->
<g id="edge27" class="edge">
<title>Node24&#45;&gt;Node23</title>
<path fill="none" stroke="#191970" d="M608.2473,-192.2866C608.0479,-176.7395 607.7786,-155.7276 607.6236,-143.6426"/>
<polygon fill="#191970" stroke="#191970" points="604.7494,-192.4814 608.3774,-202.4357 611.7488,-192.3916 604.7494,-192.4814"/>
</g>
</g>
</svg>
