<?xml version="1.0" encoding="UTF-8" standalone="no"?>
<!DOCTYPE svg PUBLIC "-//W3C//DTD SVG 1.1//EN"
 "http://www.w3.org/Graphics/SVG/1.1/DTD/svg11.dtd">
<!-- Generated by graphviz version 2.40.1 (0)
 -->
<!-- Title: TMVA::DNN::CNN::TConvLayer&lt; Architecture_t &gt; Pages: 1 -->
<svg width="171pt" height="173pt"
 viewBox="0.00 0.00 171.00 173.00" xmlns="http://www.w3.org/2000/svg" xmlns:xlink="http://www.w3.org/1999/xlink">
<g id="graph0" class="graph" transform="scale(1 1) rotate(0) translate(4 169)">
<title>TMVA::DNN::CNN::TConvLayer&lt; Architecture_t &gt;</title>
<polygon fill="#ffffff" stroke="transparent" points="-4,4 -4,-169 167,-169 167,4 -4,4"/>
<!-- Node0 -->
<g id="node1" class="node">
<title>Node0</title>
<polygon fill="#bfbfbf" stroke="#000000" points="0,-67.5 0,-97.5 163,-97.5 163,-67.5 0,-67.5"/>
<text text-anchor="start" x="8" y="-85.5" font-family="Helvetica,sans-Serif" font-size="10.00" fill="#000000">TMVA::DNN::CNN::TConvLayer</text>
<text text-anchor="middle" x="81.5" y="-74.5" font-family="Helvetica,sans-Serif" font-size="10.00" fill="#000000">&lt; Architecture_t &gt;</text>
</g>
<!-- Node2 -->
<g id="node3" class="node">
<title>Node2</title>
<g id="a_node3"><a xlink:href="classTMVA_1_1DNN_1_1CNN_1_1TMaxPoolLayer.html" target="_top" xlink:title="Generic Max Pooling Layer class. ">
<polygon fill="#ffffff" stroke="#000000" points="5,-.5 5,-30.5 158,-30.5 158,-.5 5,-.5"/>
<text text-anchor="start" x="13" y="-18.5" font-family="Helvetica,sans-Serif" font-size="10.00" fill="#000000">TMVA::DNN::CNN::TMaxPool</text>
<text text-anchor="middle" x="81.5" y="-7.5" font-family="Helvetica,sans-Serif" font-size="10.00" fill="#000000">Layer&lt; Architecture_t &gt;</text>
</a>
</g>
</g>
<!-- Node0&#45;&gt;Node2 -->
<g id="edge2" class="edge">
<title>Node0&#45;&gt;Node2</title>
<path fill="none" stroke="#191970" d="M81.5,-57.0249C81.5,-48.128 81.5,-38.4287 81.5,-30.6432"/>
<polygon fill="#191970" stroke="#191970" points="78.0001,-57.2966 81.5,-67.2967 85.0001,-57.2967 78.0001,-57.2966"/>
</g>
<!-- Node1 -->
<g id="node2" class="node">
<title>Node1</title>
<g id="a_node2"><a xlink:href="classTMVA_1_1DNN_1_1VGeneralLayer.html" target="_top" xlink:title="Generic General Layer class. ">
<polygon fill="#ffffff" stroke="#000000" points="6.5,-134.5 6.5,-164.5 156.5,-164.5 156.5,-134.5 6.5,-134.5"/>
<text text-anchor="start" x="14.5" y="-152.5" font-family="Helvetica,sans-Serif" font-size="10.00" fill="#000000">TMVA::DNN::VGeneralLayer</text>
<text text-anchor="middle" x="81.5" y="-141.5" font-family="Helvetica,sans-Serif" font-size="10.00" fill="#000000">&lt; Architecture_t &gt;</text>
</a>
</g>
</g>
<!-- Node1&#45;&gt;Node0 -->
<g id="edge1" class="edge">
<title>Node1&#45;&gt;Node0</title>
<path fill="none" stroke="#191970" d="M81.5,-124.0249C81.5,-115.128 81.5,-105.4287 81.5,-97.6432"/>
<polygon fill="#191970" stroke="#191970" points="78.0001,-124.2966 81.5,-134.2967 85.0001,-124.2967 78.0001,-124.2966"/>
</g>
</g>
</svg>
