<?xml version="1.0" encoding="UTF-8" standalone="no"?>
<!DOCTYPE svg PUBLIC "-//W3C//DTD SVG 1.1//EN"
 "http://www.w3.org/Graphics/SVG/1.1/DTD/svg11.dtd">
<!-- Generated by graphviz version 2.40.1 (0)
 -->
<!-- Title: TEveManager::TExceptionHandler Pages: 1 -->
<svg width="189pt" height="196pt"
 viewBox="0.00 0.00 189.00 196.00" xmlns="http://www.w3.org/2000/svg" xmlns:xlink="http://www.w3.org/1999/xlink">
<g id="graph0" class="graph" transform="scale(1 1) rotate(0) translate(4 192)">
<title>TEveManager::TExceptionHandler</title>
<polygon fill="#ffffff" stroke="transparent" points="-4,4 -4,-192 185,-192 185,4 -4,4"/>
<!-- Node0 -->
<g id="node1" class="node">
<title>Node0</title>
<polygon fill="#bfbfbf" stroke="#000000" points="0,-.5 0,-19.5 181,-19.5 181,-.5 0,-.5"/>
<text text-anchor="middle" x="90.5" y="-7.5" font-family="Helvetica,sans-Serif" font-size="10.00" fill="#000000">TEveManager::TExceptionHandler</text>
</g>
<!-- Node1 -->
<g id="node2" class="node">
<title>Node1</title>
<g id="a_node2"><a xlink:href="classTStdExceptionHandler.html" target="_top" xlink:title="TStdExceptionHandler">
<polygon fill="#ffffff" stroke="#000000" points="28,-56.5 28,-75.5 153,-75.5 153,-56.5 28,-56.5"/>
<text text-anchor="middle" x="90.5" y="-63.5" font-family="Helvetica,sans-Serif" font-size="10.00" fill="#000000">TStdExceptionHandler</text>
</a>
</g>
</g>
<!-- Node1&#45;&gt;Node0 -->
<g id="edge1" class="edge">
<title>Node1&#45;&gt;Node0</title>
<path fill="none" stroke="#191970" d="M90.5,-46.1575C90.5,-37.155 90.5,-26.9199 90.5,-19.6427"/>
<polygon fill="#191970" stroke="#191970" points="87.0001,-46.2455 90.5,-56.2455 94.0001,-46.2456 87.0001,-46.2455"/>
</g>
<!-- Node2 -->
<g id="node3" class="node">
<title>Node2</title>
<g id="a_node3"><a xlink:href="classTSysEvtHandler.html" target="_top" xlink:title="Abstract base class for handling system events. ">
<polygon fill="#ffffff" stroke="#000000" points="43.5,-112.5 43.5,-131.5 137.5,-131.5 137.5,-112.5 43.5,-112.5"/>
<text text-anchor="middle" x="90.5" y="-119.5" font-family="Helvetica,sans-Serif" font-size="10.00" fill="#000000">TSysEvtHandler</text>
</a>
</g>
</g>
<!-- Node2&#45;&gt;Node1 -->
<g id="edge2" class="edge">
<title>Node2&#45;&gt;Node1</title>
<path fill="none" stroke="#191970" d="M90.5,-102.1575C90.5,-93.155 90.5,-82.9199 90.5,-75.6427"/>
<polygon fill="#191970" stroke="#191970" points="87.0001,-102.2455 90.5,-112.2455 94.0001,-102.2456 87.0001,-102.2455"/>
</g>
<!-- Node3 -->
<g id="node4" class="node">
<title>Node3</title>
<g id="a_node4"><a xlink:href="classTObject.html" target="_top" xlink:title="Mother of all ROOT objects. ">
<polygon fill="#ffffff" stroke="#000000" points="25.5,-168.5 25.5,-187.5 79.5,-187.5 79.5,-168.5 25.5,-168.5"/>
<text text-anchor="middle" x="52.5" y="-175.5" font-family="Helvetica,sans-Serif" font-size="10.00" fill="#000000">TObject</text>
</a>
</g>
</g>
<!-- Node3&#45;&gt;Node2 -->
<g id="edge3" class="edge">
<title>Node3&#45;&gt;Node2</title>
<path fill="none" stroke="#191970" d="M64.7679,-159.9209C71.1488,-150.5176 78.6931,-139.3997 83.9568,-131.6427"/>
<polygon fill="#191970" stroke="#191970" points="61.838,-158.0055 59.1191,-168.2455 67.6303,-161.936 61.838,-158.0055"/>
</g>
<!-- Node4 -->
<g id="node5" class="node">
<title>Node4</title>
<g id="a_node5"><a xlink:href="classTQObject.html" target="_top" xlink:title="This is the ROOT implementation of the Qt object communication mechanism (see also http://www...">
<polygon fill="#ffffff" stroke="#000000" points="97.5,-168.5 97.5,-187.5 159.5,-187.5 159.5,-168.5 97.5,-168.5"/>
<text text-anchor="middle" x="128.5" y="-175.5" font-family="Helvetica,sans-Serif" font-size="10.00" fill="#000000">TQObject</text>
</a>
</g>
</g>
<!-- Node4&#45;&gt;Node2 -->
<g id="edge4" class="edge">
<title>Node4&#45;&gt;Node2</title>
<path fill="none" stroke="#191970" d="M116.2321,-159.9209C109.8512,-150.5176 102.3069,-139.3997 97.0432,-131.6427"/>
<polygon fill="#191970" stroke="#191970" points="113.3697,-161.936 121.8809,-168.2455 119.162,-158.0055 113.3697,-161.936"/>
</g>
</g>
</svg>
