<?xml version="1.0" encoding="UTF-8" standalone="no"?>
<!DOCTYPE svg PUBLIC "-//W3C//DTD SVG 1.1//EN"
 "http://www.w3.org/Graphics/SVG/1.1/DTD/svg11.dtd">
<!-- Generated by graphviz version 2.40.1 (0)
 -->
<!-- Title: TMemberStreamer Pages: 1 -->
<svg width="477pt" height="84pt"
 viewBox="0.00 0.00 477.00 84.00" xmlns="http://www.w3.org/2000/svg" xmlns:xlink="http://www.w3.org/1999/xlink">
<g id="graph0" class="graph" transform="scale(1 1) rotate(0) translate(4 80)">
<title>TMemberStreamer</title>
<polygon fill="#ffffff" stroke="transparent" points="-4,4 -4,-80 473,-80 473,4 -4,4"/>
<!-- Node0 -->
<g id="node1" class="node">
<title>Node0</title>
<polygon fill="#bfbfbf" stroke="#000000" points="199,-56.5 199,-75.5 306,-75.5 306,-56.5 199,-56.5"/>
<text text-anchor="middle" x="252.5" y="-63.5" font-family="Helvetica,sans-Serif" font-size="10.00" fill="#000000">TMemberStreamer</text>
</g>
<!-- Node1 -->
<g id="node2" class="node">
<title>Node1</title>
<g id="a_node2"><a xlink:href="classTCollectionMemberStreamer.html" target="_top" xlink:title=" Class streamer object to implement TMemberStreamer functionality for I/O emulation. ">
<polygon fill="#ffffff" stroke="#000000" points="0,-.5 0,-19.5 155,-19.5 155,-.5 0,-.5"/>
<text text-anchor="middle" x="77.5" y="-7.5" font-family="Helvetica,sans-Serif" font-size="10.00" fill="#000000">TCollectionMemberStreamer</text>
</a>
</g>
</g>
<!-- Node0&#45;&gt;Node1 -->
<g id="edge1" class="edge">
<title>Node0&#45;&gt;Node1</title>
<path fill="none" stroke="#191970" d="M212.886,-53.3235C180.7925,-43.0536 136.2789,-28.8093 107.191,-19.5011"/>
<polygon fill="#191970" stroke="#191970" points="211.8254,-56.6589 222.4164,-56.3733 213.9589,-49.9919 211.8254,-56.6589"/>
</g>
<!-- Node2 -->
<g id="node3" class="node">
<title>Node2</title>
<g id="a_node3"><a xlink:href="classTConvertClonesArrayToProxy.html" target="_top" xlink:title=" Small helper to read a TBuffer containing a TClonesArray into any valid collection. ">
<polygon fill="#ffffff" stroke="#000000" points="173.5,-.5 173.5,-19.5 331.5,-19.5 331.5,-.5 173.5,-.5"/>
<text text-anchor="middle" x="252.5" y="-7.5" font-family="Helvetica,sans-Serif" font-size="10.00" fill="#000000">TConvertClonesArrayToProxy</text>
</a>
</g>
</g>
<!-- Node0&#45;&gt;Node2 -->
<g id="edge2" class="edge">
<title>Node0&#45;&gt;Node2</title>
<path fill="none" stroke="#191970" d="M252.5,-46.1575C252.5,-37.155 252.5,-26.9199 252.5,-19.6427"/>
<polygon fill="#191970" stroke="#191970" points="249.0001,-46.2455 252.5,-56.2455 256.0001,-46.2456 249.0001,-46.2455"/>
</g>
<!-- Node3 -->
<g id="node4" class="node">
<title>Node3</title>
<g id="a_node4"><a xlink:href="classTConvertMapToProxy.html" target="_top" xlink:title="TConvertMapToProxy">
<polygon fill="#ffffff" stroke="#000000" points="350,-.5 350,-19.5 469,-19.5 469,-.5 350,-.5"/>
<text text-anchor="middle" x="409.5" y="-7.5" font-family="Helvetica,sans-Serif" font-size="10.00" fill="#000000">TConvertMapToProxy</text>
</a>
</g>
</g>
<!-- Node0&#45;&gt;Node3 -->
<g id="edge3" class="edge">
<title>Node0&#45;&gt;Node3</title>
<path fill="none" stroke="#191970" d="M289.1619,-52.9231C317.8624,-42.686 357.1044,-28.6889 382.8629,-19.5011"/>
<polygon fill="#191970" stroke="#191970" points="287.7322,-49.7171 279.4893,-56.3733 290.0839,-56.3102 287.7322,-49.7171"/>
</g>
</g>
</svg>
