<?xml version="1.0" encoding="UTF-8" standalone="no"?>
<!DOCTYPE svg PUBLIC "-//W3C//DTD SVG 1.1//EN"
 "http://www.w3.org/Graphics/SVG/1.1/DTD/svg11.dtd">
<!-- Generated by graphviz version 2.40.1 (0)
 -->
<!-- Title: TXUnixSocket Pages: 1 -->
<svg width="249pt" height="252pt"
 viewBox="0.00 0.00 248.50 252.00" xmlns="http://www.w3.org/2000/svg" xmlns:xlink="http://www.w3.org/1999/xlink">
<g id="graph0" class="graph" transform="scale(1 1) rotate(0) translate(4 248)">
<title>TXUnixSocket</title>
<polygon fill="#ffffff" stroke="transparent" points="-4,4 -4,-248 244.5,-248 244.5,4 -4,4"/>
<!-- Node0 -->
<g id="node1" class="node">
<title>Node0</title>
<polygon fill="#bfbfbf" stroke="#000000" points="50.5,-.5 50.5,-19.5 135.5,-19.5 135.5,-.5 50.5,-.5"/>
<text text-anchor="middle" x="93" y="-7.5" font-family="Helvetica,sans-Serif" font-size="10.00" fill="#000000">TXUnixSocket</text>
</g>
<!-- Node1 -->
<g id="node2" class="node">
<title>Node1</title>
<g id="a_node2"><a xlink:href="classTXSocket.html" target="_top" xlink:title="High level handler of connections to XProofD. ">
<polygon fill="#ffffff" stroke="#000000" points="62,-56.5 62,-75.5 124,-75.5 124,-56.5 62,-56.5"/>
<text text-anchor="middle" x="93" y="-63.5" font-family="Helvetica,sans-Serif" font-size="10.00" fill="#000000">TXSocket</text>
</a>
</g>
</g>
<!-- Node1&#45;&gt;Node0 -->
<g id="edge1" class="edge">
<title>Node1&#45;&gt;Node0</title>
<path fill="none" stroke="#191970" d="M93,-46.1575C93,-37.155 93,-26.9199 93,-19.6427"/>
<polygon fill="#191970" stroke="#191970" points="89.5001,-46.2455 93,-56.2455 96.5001,-46.2456 89.5001,-46.2455"/>
</g>
<!-- Node2 -->
<g id="node3" class="node">
<title>Node2</title>
<g id="a_node3"><a xlink:href="classTSocket.html" target="_top" xlink:title="TSocket">
<polygon fill="#ffffff" stroke="#000000" points="1,-112.5 1,-131.5 57,-131.5 57,-112.5 1,-112.5"/>
<text text-anchor="middle" x="29" y="-119.5" font-family="Helvetica,sans-Serif" font-size="10.00" fill="#000000">TSocket</text>
</a>
</g>
</g>
<!-- Node2&#45;&gt;Node1 -->
<g id="edge2" class="edge">
<title>Node2&#45;&gt;Node1</title>
<path fill="none" stroke="#191970" d="M47.6914,-105.645C58.8219,-95.9058 72.5663,-83.8795 81.9798,-75.6427"/>
<polygon fill="#191970" stroke="#191970" points="45.369,-103.0264 40.1479,-112.2455 49.9785,-108.2945 45.369,-103.0264"/>
</g>
<!-- Node3 -->
<g id="node4" class="node">
<title>Node3</title>
<g id="a_node4"><a xlink:href="classTNamed.html" target="_top" xlink:title="The TNamed class is the base class for all named ROOT classes. ">
<polygon fill="#ffffff" stroke="#000000" points="0,-168.5 0,-187.5 58,-187.5 58,-168.5 0,-168.5"/>
<text text-anchor="middle" x="29" y="-175.5" font-family="Helvetica,sans-Serif" font-size="10.00" fill="#000000">TNamed</text>
</a>
</g>
</g>
<!-- Node3&#45;&gt;Node2 -->
<g id="edge3" class="edge">
<title>Node3&#45;&gt;Node2</title>
<path fill="none" stroke="#191970" d="M29,-158.1575C29,-149.155 29,-138.9199 29,-131.6427"/>
<polygon fill="#191970" stroke="#191970" points="25.5001,-158.2455 29,-168.2455 32.5001,-158.2456 25.5001,-158.2455"/>
</g>
<!-- Node4 -->
<g id="node5" class="node">
<title>Node4</title>
<g id="a_node5"><a xlink:href="classTObject.html" target="_top" xlink:title="Mother of all ROOT objects. ">
<polygon fill="#ffffff" stroke="#000000" points="2,-224.5 2,-243.5 56,-243.5 56,-224.5 2,-224.5"/>
<text text-anchor="middle" x="29" y="-231.5" font-family="Helvetica,sans-Serif" font-size="10.00" fill="#000000">TObject</text>
</a>
</g>
</g>
<!-- Node4&#45;&gt;Node3 -->
<g id="edge4" class="edge">
<title>Node4&#45;&gt;Node3</title>
<path fill="none" stroke="#191970" d="M29,-214.1575C29,-205.155 29,-194.9199 29,-187.6427"/>
<polygon fill="#191970" stroke="#191970" points="25.5001,-214.2455 29,-224.2455 32.5001,-214.2456 25.5001,-214.2455"/>
</g>
<!-- Node5 -->
<g id="node6" class="node">
<title>Node5</title>
<g id="a_node6"><a xlink:href="classXrdClientAbsUnsolMsgHandler.html" target="_top" xlink:title="XrdClientAbsUnsolMsgHandler">
<polygon fill="#ffffff" stroke="#000000" points="75.5,-112.5 75.5,-131.5 240.5,-131.5 240.5,-112.5 75.5,-112.5"/>
<text text-anchor="middle" x="158" y="-119.5" font-family="Helvetica,sans-Serif" font-size="10.00" fill="#000000">XrdClientAbsUnsolMsgHandler</text>
</a>
</g>
</g>
<!-- Node5&#45;&gt;Node1 -->
<g id="edge5" class="edge">
<title>Node5&#45;&gt;Node1</title>
<path fill="none" stroke="#191970" d="M139.0165,-105.645C127.7121,-95.9058 113.753,-83.8795 104.1924,-75.6427"/>
<polygon fill="#191970" stroke="#191970" points="136.8173,-108.3701 146.6779,-112.2455 141.3862,-103.0668 136.8173,-108.3701"/>
</g>
</g>
</svg>
