<?xml version="1.0" encoding="UTF-8" standalone="no"?>
<!DOCTYPE svg PUBLIC "-//W3C//DTD SVG 1.1//EN"
 "http://www.w3.org/Graphics/SVG/1.1/DTD/svg11.dtd">
<!-- Generated by graphviz version 2.40.1 (0)
 -->
<!-- Title: TRandom Pages: 1 -->
<svg width="408pt" height="196pt"
 viewBox="0.00 0.00 407.50 196.00" xmlns="http://www.w3.org/2000/svg" xmlns:xlink="http://www.w3.org/1999/xlink">
<g id="graph0" class="graph" transform="scale(1 1) rotate(0) translate(4 192)">
<title>TRandom</title>
<polygon fill="#ffffff" stroke="transparent" points="-4,4 -4,-192 403.5,-192 403.5,4 -4,4"/>
<!-- Node0 -->
<g id="node1" class="node">
<title>Node0</title>
<polygon fill="#bfbfbf" stroke="#000000" points="133,-56.5 133,-75.5 196,-75.5 196,-56.5 133,-56.5"/>
<text text-anchor="middle" x="164.5" y="-63.5" font-family="Helvetica,sans-Serif" font-size="10.00" fill="#000000">TRandom</text>
</g>
<!-- Node4 -->
<g id="node5" class="node">
<title>Node4</title>
<g id="a_node5"><a xlink:href="classTRandom1.html" target="_top" xlink:title=" &#160;The Ranlux Random number generator class ">
<polygon fill="#ffffff" stroke="#000000" points="0,-.5 0,-19.5 69,-19.5 69,-.5 0,-.5"/>
<text text-anchor="middle" x="34.5" y="-7.5" font-family="Helvetica,sans-Serif" font-size="10.00" fill="#000000">TRandom1</text>
</a>
</g>
</g>
<!-- Node0&#45;&gt;Node4 -->
<g id="edge4" class="edge">
<title>Node0&#45;&gt;Node4</title>
<path fill="none" stroke="#191970" d="M132.8898,-52.3833C109.2465,-42.1985 77.5124,-28.5284 56.5562,-19.5011"/>
<polygon fill="#191970" stroke="#191970" points="131.5834,-55.6314 142.1522,-56.3733 134.3528,-49.2025 131.5834,-55.6314"/>
</g>
<!-- Node5 -->
<g id="node6" class="node">
<title>Node5</title>
<g id="a_node6"><a xlink:href="classTRandom2.html" target="_top" xlink:title=" &#160;Random number generator class based on the maximally quidistributed combined Tausworthe generator b...">
<polygon fill="#ffffff" stroke="#000000" points="87,-.5 87,-19.5 156,-19.5 156,-.5 87,-.5"/>
<text text-anchor="middle" x="121.5" y="-7.5" font-family="Helvetica,sans-Serif" font-size="10.00" fill="#000000">TRandom2</text>
</a>
</g>
</g>
<!-- Node0&#45;&gt;Node5 -->
<g id="edge5" class="edge">
<title>Node0&#45;&gt;Node5</title>
<path fill="none" stroke="#191970" d="M150.8408,-48.2112C143.5737,-38.7472 134.9219,-27.4797 128.9042,-19.6427"/>
<polygon fill="#191970" stroke="#191970" points="148.1436,-50.4456 157.01,-56.2455 153.6957,-46.1824 148.1436,-50.4456"/>
</g>
<!-- Node6 -->
<g id="node7" class="node">
<title>Node6</title>
<g id="a_node7"><a xlink:href="classTRandom3.html" target="_top" xlink:title=" &#160;Random number generator class based on M. ">
<polygon fill="#ffffff" stroke="#000000" points="174,-.5 174,-19.5 243,-19.5 243,-.5 174,-.5"/>
<text text-anchor="middle" x="208.5" y="-7.5" font-family="Helvetica,sans-Serif" font-size="10.00" fill="#000000">TRandom3</text>
</a>
</g>
</g>
<!-- Node0&#45;&gt;Node6 -->
<g id="edge6" class="edge">
<title>Node0&#45;&gt;Node6</title>
<path fill="none" stroke="#191970" d="M178.4769,-48.2112C185.9129,-38.7472 194.766,-27.4797 200.9236,-19.6427"/>
<polygon fill="#191970" stroke="#191970" points="175.5903,-46.22 172.1642,-56.2455 181.0946,-50.5447 175.5903,-46.22"/>
</g>
<!-- Node7 -->
<g id="node8" class="node">
<title>Node7</title>
<g id="a_node8"><a xlink:href="classTRandomGen.html" target="_top" xlink:title="TRandomGen\&lt; Engine \&gt;">
<polygon fill="#ffffff" stroke="#000000" points="261.5,-.5 261.5,-19.5 399.5,-19.5 399.5,-.5 261.5,-.5"/>
<text text-anchor="middle" x="330.5" y="-7.5" font-family="Helvetica,sans-Serif" font-size="10.00" fill="#000000">TRandomGen&lt; Engine &gt;</text>
</a>
</g>
</g>
<!-- Node0&#45;&gt;Node7 -->
<g id="edge7" class="edge">
<title>Node0&#45;&gt;Node7</title>
<path fill="none" stroke="#191970" d="M202.8667,-53.057C233.2466,-42.8084 274.9819,-28.729 302.336,-19.5011"/>
<polygon fill="#191970" stroke="#191970" points="201.393,-49.8603 193.0364,-56.3733 203.6306,-56.4931 201.393,-49.8603"/>
</g>
<!-- Node1 -->
<g id="node2" class="node">
<title>Node1</title>
<g id="a_node2"><a xlink:href="classTNamed.html" target="_top" xlink:title="The TNamed class is the base class for all named ROOT classes. ">
<polygon fill="#ffffff" stroke="#000000" points="72.5,-112.5 72.5,-131.5 130.5,-131.5 130.5,-112.5 72.5,-112.5"/>
<text text-anchor="middle" x="101.5" y="-119.5" font-family="Helvetica,sans-Serif" font-size="10.00" fill="#000000">TNamed</text>
</a>
</g>
</g>
<!-- Node1&#45;&gt;Node0 -->
<g id="edge1" class="edge">
<title>Node1&#45;&gt;Node0</title>
<path fill="none" stroke="#191970" d="M120.2192,-105.3607C131.1182,-95.6727 144.4755,-83.7995 153.652,-75.6427"/>
<polygon fill="#191970" stroke="#191970" points="117.6226,-102.9859 112.4738,-112.2455 122.2732,-108.2178 117.6226,-102.9859"/>
</g>
<!-- Node2 -->
<g id="node3" class="node">
<title>Node2</title>
<g id="a_node3"><a xlink:href="classTObject.html" target="_top" xlink:title="Mother of all ROOT objects. ">
<polygon fill="#ffffff" stroke="#000000" points="74.5,-168.5 74.5,-187.5 128.5,-187.5 128.5,-168.5 74.5,-168.5"/>
<text text-anchor="middle" x="101.5" y="-175.5" font-family="Helvetica,sans-Serif" font-size="10.00" fill="#000000">TObject</text>
</a>
</g>
</g>
<!-- Node2&#45;&gt;Node1 -->
<g id="edge2" class="edge">
<title>Node2&#45;&gt;Node1</title>
<path fill="none" stroke="#191970" d="M101.5,-158.1575C101.5,-149.155 101.5,-138.9199 101.5,-131.6427"/>
<polygon fill="#191970" stroke="#191970" points="98.0001,-158.2455 101.5,-168.2455 105.0001,-158.2456 98.0001,-158.2455"/>
</g>
<!-- Node3 -->
<g id="node4" class="node">
<title>Node3</title>
<g id="a_node4"><a xlink:href="classROOT_1_1Math_1_1TRandomEngine.html" target="_top" xlink:title="ROOT::Math::TRandomEngine">
<polygon fill="#ffffff" stroke="#000000" points="149,-112.5 149,-131.5 308,-131.5 308,-112.5 149,-112.5"/>
<text text-anchor="middle" x="228.5" y="-119.5" font-family="Helvetica,sans-Serif" font-size="10.00" fill="#000000">ROOT::Math::TRandomEngine</text>
</a>
</g>
</g>
<!-- Node3&#45;&gt;Node0 -->
<g id="edge3" class="edge">
<title>Node3&#45;&gt;Node0</title>
<path fill="none" stroke="#191970" d="M209.8086,-105.645C198.6781,-95.9058 184.9337,-83.8795 175.5202,-75.6427"/>
<polygon fill="#191970" stroke="#191970" points="207.5215,-108.2945 217.3521,-112.2455 212.131,-103.0264 207.5215,-108.2945"/>
</g>
</g>
</svg>
