<?xml version="1.0" encoding="UTF-8" standalone="no"?>
<!DOCTYPE svg PUBLIC "-//W3C//DTD SVG 1.1//EN"
 "http://www.w3.org/Graphics/SVG/1.1/DTD/svg11.dtd">
<!-- Generated by graphviz version 2.40.1 (0)
 -->
<!-- Title: TMVA::MethodDL Pages: 1 -->
<svg width="226pt" height="252pt"
 viewBox="0.00 0.00 226.00 252.00" xmlns="http://www.w3.org/2000/svg" xmlns:xlink="http://www.w3.org/1999/xlink">
<g id="graph0" class="graph" transform="scale(1 1) rotate(0) translate(4 248)">
<title>TMVA::MethodDL</title>
<polygon fill="#ffffff" stroke="transparent" points="-4,4 -4,-248 222,-248 222,4 -4,4"/>
<!-- Node0 -->
<g id="node1" class="node">
<title>Node0</title>
<polygon fill="#bfbfbf" stroke="#000000" points="54.5,-.5 54.5,-19.5 152.5,-19.5 152.5,-.5 54.5,-.5"/>
<text text-anchor="middle" x="103.5" y="-7.5" font-family="Helvetica,sans-Serif" font-size="10.00" fill="#000000">TMVA::MethodDL</text>
</g>
<!-- Node1 -->
<g id="node2" class="node">
<title>Node1</title>
<g id="a_node2"><a xlink:href="classTMVA_1_1MethodBase.html" target="_top" xlink:title="Virtual base Class for all MVA method. ">
<polygon fill="#ffffff" stroke="#000000" points="48.5,-56.5 48.5,-75.5 158.5,-75.5 158.5,-56.5 48.5,-56.5"/>
<text text-anchor="middle" x="103.5" y="-63.5" font-family="Helvetica,sans-Serif" font-size="10.00" fill="#000000">TMVA::MethodBase</text>
</a>
</g>
</g>
<!-- Node1&#45;&gt;Node0 -->
<g id="edge1" class="edge">
<title>Node1&#45;&gt;Node0</title>
<path fill="none" stroke="#191970" d="M103.5,-46.1575C103.5,-37.155 103.5,-26.9199 103.5,-19.6427"/>
<polygon fill="#191970" stroke="#191970" points="100.0001,-46.2455 103.5,-56.2455 107.0001,-46.2456 100.0001,-46.2455"/>
</g>
<!-- Node2 -->
<g id="node3" class="node">
<title>Node2</title>
<g id="a_node3"><a xlink:href="classTMVA_1_1IMethod.html" target="_top" xlink:title="Interface for all concrete MVA method implementations. ">
<polygon fill="#ffffff" stroke="#000000" points="0,-112.5 0,-131.5 89,-131.5 89,-112.5 0,-112.5"/>
<text text-anchor="middle" x="44.5" y="-119.5" font-family="Helvetica,sans-Serif" font-size="10.00" fill="#000000">TMVA::IMethod</text>
</a>
</g>
</g>
<!-- Node2&#45;&gt;Node1 -->
<g id="edge2" class="edge">
<title>Node2&#45;&gt;Node1</title>
<path fill="none" stroke="#191970" d="M62.0307,-105.3607C72.2377,-95.6727 84.7469,-83.7995 93.3408,-75.6427"/>
<polygon fill="#191970" stroke="#191970" points="59.6206,-102.8227 54.777,-112.2455 64.4396,-107.8998 59.6206,-102.8227"/>
</g>
<!-- Node3 -->
<g id="node4" class="node">
<title>Node3</title>
<g id="a_node4"><a xlink:href="classTMVA_1_1Configurable.html" target="_top" xlink:title="TMVA::Configurable">
<polygon fill="#ffffff" stroke="#000000" points="107,-112.5 107,-131.5 218,-131.5 218,-112.5 107,-112.5"/>
<text text-anchor="middle" x="162.5" y="-119.5" font-family="Helvetica,sans-Serif" font-size="10.00" fill="#000000">TMVA::Configurable</text>
</a>
</g>
</g>
<!-- Node3&#45;&gt;Node1 -->
<g id="edge3" class="edge">
<title>Node3&#45;&gt;Node1</title>
<path fill="none" stroke="#191970" d="M144.9693,-105.3607C134.7623,-95.6727 122.2531,-83.7995 113.6592,-75.6427"/>
<polygon fill="#191970" stroke="#191970" points="142.5604,-107.8998 152.223,-112.2455 147.3794,-102.8227 142.5604,-107.8998"/>
</g>
<!-- Node4 -->
<g id="node5" class="node">
<title>Node4</title>
<g id="a_node5"><a xlink:href="classTNamed.html" target="_top" xlink:title="The TNamed class is the base class for all named ROOT classes. ">
<polygon fill="#ffffff" stroke="#000000" points="133.5,-168.5 133.5,-187.5 191.5,-187.5 191.5,-168.5 133.5,-168.5"/>
<text text-anchor="middle" x="162.5" y="-175.5" font-family="Helvetica,sans-Serif" font-size="10.00" fill="#000000">TNamed</text>
</a>
</g>
</g>
<!-- Node4&#45;&gt;Node3 -->
<g id="edge4" class="edge">
<title>Node4&#45;&gt;Node3</title>
<path fill="none" stroke="#191970" d="M162.5,-158.1575C162.5,-149.155 162.5,-138.9199 162.5,-131.6427"/>
<polygon fill="#191970" stroke="#191970" points="159.0001,-158.2455 162.5,-168.2455 166.0001,-158.2456 159.0001,-158.2455"/>
</g>
<!-- Node5 -->
<g id="node6" class="node">
<title>Node5</title>
<g id="a_node6"><a xlink:href="classTObject.html" target="_top" xlink:title="Mother of all ROOT objects. ">
<polygon fill="#ffffff" stroke="#000000" points="135.5,-224.5 135.5,-243.5 189.5,-243.5 189.5,-224.5 135.5,-224.5"/>
<text text-anchor="middle" x="162.5" y="-231.5" font-family="Helvetica,sans-Serif" font-size="10.00" fill="#000000">TObject</text>
</a>
</g>
</g>
<!-- Node5&#45;&gt;Node4 -->
<g id="edge5" class="edge">
<title>Node5&#45;&gt;Node4</title>
<path fill="none" stroke="#191970" d="M162.5,-214.1575C162.5,-205.155 162.5,-194.9199 162.5,-187.6427"/>
<polygon fill="#191970" stroke="#191970" points="159.0001,-214.2455 162.5,-224.2455 166.0001,-214.2456 159.0001,-214.2455"/>
</g>
</g>
</svg>
