<?xml version="1.0" encoding="UTF-8" standalone="no"?>
<!DOCTYPE svg PUBLIC "-//W3C//DTD SVG 1.1//EN"
 "http://www.w3.org/Graphics/SVG/1.1/DTD/svg11.dtd">
<!-- Generated by graphviz version 2.40.1 (0)
 -->
<!-- Title: TArrayS Pages: 1 -->
<svg width="170pt" height="140pt"
 viewBox="0.00 0.00 170.00 140.00" xmlns="http://www.w3.org/2000/svg" xmlns:xlink="http://www.w3.org/1999/xlink">
<g id="graph0" class="graph" transform="scale(1 1) rotate(0) translate(4 136)">
<title>TArrayS</title>
<polygon fill="#ffffff" stroke="transparent" points="-4,4 -4,-136 166,-136 166,4 -4,4"/>
<!-- Node0 -->
<g id="node1" class="node">
<title>Node0</title>
<polygon fill="#bfbfbf" stroke="#000000" points="54,-56.5 54,-75.5 108,-75.5 108,-56.5 54,-56.5"/>
<text text-anchor="middle" x="81" y="-63.5" font-family="Helvetica,sans-Serif" font-size="10.00" fill="#000000">TArrayS</text>
</g>
<!-- Node2 -->
<g id="node3" class="node">
<title>Node2</title>
<g id="a_node3"><a xlink:href="classTH1S.html" target="_top" xlink:title="1&#45;D histogram with a short per channel (see TH1 documentation) ">
<polygon fill="#ffffff" stroke="#000000" points="0,-.5 0,-19.5 42,-19.5 42,-.5 0,-.5"/>
<text text-anchor="middle" x="21" y="-7.5" font-family="Helvetica,sans-Serif" font-size="10.00" fill="#000000">TH1S</text>
</a>
</g>
</g>
<!-- Node0&#45;&gt;Node2 -->
<g id="edge2" class="edge">
<title>Node0&#45;&gt;Node2</title>
<path fill="none" stroke="#191970" d="M63.1722,-49.3607C52.7922,-39.6727 40.0709,-27.7995 31.3314,-19.6427"/>
<polygon fill="#191970" stroke="#191970" points="60.8501,-51.981 70.5488,-56.2455 65.6263,-46.8636 60.8501,-51.981"/>
</g>
<!-- Node3 -->
<g id="node4" class="node">
<title>Node3</title>
<g id="a_node4"><a xlink:href="classTH2S.html" target="_top" xlink:title="2&#45;D histogram with a short per channel (see TH1 documentation) ">
<polygon fill="#ffffff" stroke="#000000" points="60,-.5 60,-19.5 102,-19.5 102,-.5 60,-.5"/>
<text text-anchor="middle" x="81" y="-7.5" font-family="Helvetica,sans-Serif" font-size="10.00" fill="#000000">TH2S</text>
</a>
</g>
</g>
<!-- Node0&#45;&gt;Node3 -->
<g id="edge3" class="edge">
<title>Node0&#45;&gt;Node3</title>
<path fill="none" stroke="#191970" d="M81,-46.1575C81,-37.155 81,-26.9199 81,-19.6427"/>
<polygon fill="#191970" stroke="#191970" points="77.5001,-46.2455 81,-56.2455 84.5001,-46.2456 77.5001,-46.2455"/>
</g>
<!-- Node4 -->
<g id="node5" class="node">
<title>Node4</title>
<g id="a_node5"><a xlink:href="classTH3S.html" target="_top" xlink:title="3&#45;D histogram with a short per channel (see TH1 documentation) ">
<polygon fill="#ffffff" stroke="#000000" points="120,-.5 120,-19.5 162,-19.5 162,-.5 120,-.5"/>
<text text-anchor="middle" x="141" y="-7.5" font-family="Helvetica,sans-Serif" font-size="10.00" fill="#000000">TH3S</text>
</a>
</g>
</g>
<!-- Node0&#45;&gt;Node4 -->
<g id="edge4" class="edge">
<title>Node0&#45;&gt;Node4</title>
<path fill="none" stroke="#191970" d="M98.8278,-49.3607C109.2078,-39.6727 121.9291,-27.7995 130.6686,-19.6427"/>
<polygon fill="#191970" stroke="#191970" points="96.3737,-46.8636 91.4512,-56.2455 101.1499,-51.981 96.3737,-46.8636"/>
</g>
<!-- Node1 -->
<g id="node2" class="node">
<title>Node1</title>
<g id="a_node2"><a xlink:href="classTArray.html" target="_top" xlink:title="Abstract array base class. ">
<polygon fill="#ffffff" stroke="#000000" points="57,-112.5 57,-131.5 105,-131.5 105,-112.5 57,-112.5"/>
<text text-anchor="middle" x="81" y="-119.5" font-family="Helvetica,sans-Serif" font-size="10.00" fill="#000000">TArray</text>
</a>
</g>
</g>
<!-- Node1&#45;&gt;Node0 -->
<g id="edge1" class="edge">
<title>Node1&#45;&gt;Node0</title>
<path fill="none" stroke="#191970" d="M81,-102.1575C81,-93.155 81,-82.9199 81,-75.6427"/>
<polygon fill="#191970" stroke="#191970" points="77.5001,-102.2455 81,-112.2455 84.5001,-102.2456 77.5001,-102.2455"/>
</g>
</g>
</svg>
