<?xml version="1.0" encoding="UTF-8" standalone="no"?>
<!DOCTYPE svg PUBLIC "-//W3C//DTD SVG 1.1//EN"
 "http://www.w3.org/Graphics/SVG/1.1/DTD/svg11.dtd">
<!-- Generated by graphviz version 2.40.1 (0)
 -->
<!-- Title: RooStats::ModelConfig Pages: 1 -->
<svg width="1664pt" height="475pt"
 viewBox="0.00 0.00 1664.00 475.00" xmlns="http://www.w3.org/2000/svg" xmlns:xlink="http://www.w3.org/1999/xlink">
<g id="graph0" class="graph" transform="scale(1 1) rotate(0) translate(4 471)">
<title>RooStats::ModelConfig</title>
<polygon fill="#ffffff" stroke="transparent" points="-4,4 -4,-471 1660,-471 1660,4 -4,4"/>
<!-- Node4 -->
<g id="node1" class="node">
<title>Node4</title>
<polygon fill="#bfbfbf" stroke="#000000" points="1531,-270.5 1531,-289.5 1656,-289.5 1656,-270.5 1531,-270.5"/>
<text text-anchor="middle" x="1593.5" y="-277.5" font-family="Helvetica,sans-Serif" font-size="10.00" fill="#000000">RooStats::ModelConfig</text>
</g>
<!-- Node5 -->
<g id="node2" class="node">
<title>Node5</title>
<g id="a_node2"><a xlink:href="classTNamed.html" target="_top" xlink:title="The TNamed class is the base class for all named ROOT classes. ">
<polygon fill="#ffffff" stroke="#000000" points="649,-86.5 649,-105.5 707,-105.5 707,-86.5 649,-86.5"/>
<text text-anchor="middle" x="678" y="-93.5" font-family="Helvetica,sans-Serif" font-size="10.00" fill="#000000">TNamed</text>
</a>
</g>
</g>
<!-- Node5&#45;&gt;Node4 -->
<g id="edge1" class="edge">
<title>Node5&#45;&gt;Node4</title>
<path fill="none" stroke="#191970" d="M717.0696,-93.644C748.2952,-91.9635 793.1895,-90 832.5,-90 832.5,-90 832.5,-90 1323,-90 1449.8296,-90 1559.2713,-231.5984 1586.8261,-270.3167"/>
<polygon fill="#191970" stroke="#191970" points="716.8231,-90.1522 707.0319,-94.1998 717.2101,-97.1415 716.8231,-90.1522"/>
</g>
<!-- Node16 -->
<g id="node13" class="node">
<title>Node16</title>
<g id="a_node13"><a xlink:href="classTProcessID.html" target="_top" xlink:title="A TProcessID identifies a ROOT job in a unique way in time and space. ">
<polygon fill="#ffffff" stroke="#000000" points="1114.5,-214.5 1114.5,-233.5 1185.5,-233.5 1185.5,-214.5 1114.5,-214.5"/>
<text text-anchor="middle" x="1150" y="-221.5" font-family="Helvetica,sans-Serif" font-size="10.00" fill="#000000">TProcessID</text>
</a>
</g>
</g>
<!-- Node5&#45;&gt;Node16 -->
<g id="edge14" class="edge">
<title>Node5&#45;&gt;Node16</title>
<path fill="none" stroke="#191970" d="M717.2104,-102.7432C719.8455,-103.1751 722.4606,-103.5976 725,-104 854.9951,-124.5995 894.526,-101.4233 1018,-147 1048.5398,-158.2728 1055.8314,-164.191 1080,-186 1089.637,-194.6961 1087.2414,-201.7373 1098,-209 1102.9061,-212.312 1108.5468,-214.9022 1114.2633,-216.9255"/>
<polygon fill="#191970" stroke="#191970" points="717.5051,-99.2442 707.0661,-101.0543 716.3555,-106.1491 717.5051,-99.2442"/>
</g>
<!-- Node6 -->
<g id="node3" class="node">
<title>Node6</title>
<g id="a_node3"><a xlink:href="classTObject.html" target="_top" xlink:title="Mother of all ROOT objects. ">
<polygon fill="#ffffff" stroke="#000000" points="196,-191.5 196,-210.5 250,-210.5 250,-191.5 196,-191.5"/>
<text text-anchor="middle" x="223" y="-198.5" font-family="Helvetica,sans-Serif" font-size="10.00" fill="#000000">TObject</text>
</a>
</g>
</g>
<!-- Node6&#45;&gt;Node5 -->
<g id="edge2" class="edge">
<title>Node6&#45;&gt;Node5</title>
<path fill="none" stroke="#191970" d="M237.1436,-183.6118C249.6684,-169.2544 269.1562,-149.304 290,-137 310.4577,-124.924 317.6672,-125.4638 341,-121 453.3643,-99.5037 590.0812,-96.2503 648.8556,-95.9203"/>
<polygon fill="#191970" stroke="#191970" points="234.4083,-181.426 230.6161,-191.3189 239.7499,-185.95 234.4083,-181.426"/>
</g>
<!-- Node15 -->
<g id="node12" class="node">
<title>Node15</title>
<g id="a_node12"><a xlink:href="classTRef.html" target="_top" xlink:title="Persistent Reference link to a TObject A TRef is a lightweight object pointing to any TObject...">
<polygon fill="#ffffff" stroke="#000000" points="1304,-245.5 1304,-264.5 1342,-264.5 1342,-245.5 1304,-245.5"/>
<text text-anchor="middle" x="1323" y="-252.5" font-family="Helvetica,sans-Serif" font-size="10.00" fill="#000000">TRef</text>
</a>
</g>
</g>
<!-- Node6&#45;&gt;Node15 -->
<g id="edge12" class="edge">
<title>Node6&#45;&gt;Node15</title>
<path fill="none" stroke="#191970" d="M229.1629,-220.2956C238.3149,-245.8223 257.9506,-290.4441 290,-315 323.2938,-340.5094 339.0571,-340 381,-340 381,-340 381,-340 1150,-340 1193.2301,-340 1211.1744,-343.1304 1244,-315 1259.1113,-302.0502 1247.164,-287.2644 1262,-274 1273.5766,-263.6497 1290.7347,-258.9376 1303.9073,-256.7925"/>
<polygon fill="#191970" stroke="#191970" points="232.4118,-218.9783 225.8769,-210.6389 225.785,-221.2333 232.4118,-218.9783"/>
</g>
<!-- Node6&#45;&gt;Node15 -->
<g id="edge31" class="edge">
<title>Node6&#45;&gt;Node15</title>
<path fill="none" stroke="#9a32cd" stroke-dasharray="5,2" d="M237.4382,-218.2351C263.1249,-246.8383 319.839,-301 381,-301 381,-301 381,-301 1150,-301 1165.5003,-301 1261.9055,-273.064 1303.7043,-260.7329"/>
<polygon fill="#9a32cd" stroke="#9a32cd" points="239.9767,-215.8208 230.764,-210.5884 234.7029,-220.4238 239.9767,-215.8208"/>
<text text-anchor="middle" x="769.5" y="-304" font-family="Helvetica,sans-Serif" font-size="10.00" fill="#000000"> fgObject</text>
</g>
<!-- Node17 -->
<g id="node14" class="node">
<title>Node17</title>
<g id="a_node14"><a xlink:href="classTObjArray.html" target="_top" xlink:title="An array of TObjects. ">
<polygon fill="#ffffff" stroke="#000000" points="902,-156.5 902,-175.5 967,-175.5 967,-156.5 902,-156.5"/>
<text text-anchor="middle" x="934.5" y="-163.5" font-family="Helvetica,sans-Serif" font-size="10.00" fill="#000000">TObjArray</text>
</a>
</g>
</g>
<!-- Node6&#45;&gt;Node17 -->
<g id="edge25" class="edge">
<title>Node6&#45;&gt;Node17</title>
<path fill="none" stroke="#9a32cd" stroke-dasharray="5,2" d="M260.2648,-201.7562C353.7049,-203.2692 605.4292,-204.9791 814,-185 843.9366,-182.1324 877.7375,-176.6001 901.9049,-172.2416"/>
<polygon fill="#9a32cd" stroke="#9a32cd" points="260.2367,-198.2553 250.1782,-201.5834 260.1168,-205.2542 260.2367,-198.2553"/>
<text text-anchor="middle" x="595.5" y="-203" font-family="Helvetica,sans-Serif" font-size="10.00" fill="#000000"> fCont</text>
</g>
<!-- Node19 -->
<g id="node16" class="node">
<title>Node19</title>
<g id="a_node16"><a xlink:href="classTCollection.html" target="_top" xlink:title="Collection abstract base class. ">
<polygon fill="#ffffff" stroke="#000000" points="560,-130.5 560,-149.5 631,-149.5 631,-130.5 560,-130.5"/>
<text text-anchor="middle" x="595.5" y="-137.5" font-family="Helvetica,sans-Serif" font-size="10.00" fill="#000000">TCollection</text>
</a>
</g>
</g>
<!-- Node6&#45;&gt;Node19 -->
<g id="edge19" class="edge">
<title>Node6&#45;&gt;Node19</title>
<path fill="none" stroke="#191970" d="M260.1862,-197.2276C319.9825,-190.806 441.0348,-176.339 542,-155 549.1728,-153.484 556.8019,-151.5462 563.9843,-149.5705"/>
<polygon fill="#191970" stroke="#191970" points="259.671,-193.7625 250.0956,-198.297 260.4088,-200.7235 259.671,-193.7625"/>
</g>
<!-- Node20 -->
<g id="node17" class="node">
<title>Node20</title>
<g id="a_node17"><a xlink:href="classTObjectTable.html" target="_top" xlink:title="This class registers all instances of TObject and its derived classes in a hash table. ">
<polygon fill="#ffffff" stroke="#000000" points="341,-130.5 341,-149.5 421,-149.5 421,-130.5 341,-130.5"/>
<text text-anchor="middle" x="381" y="-137.5" font-family="Helvetica,sans-Serif" font-size="10.00" fill="#000000">TObjectTable</text>
</a>
</g>
</g>
<!-- Node6&#45;&gt;Node20 -->
<g id="edge21" class="edge">
<title>Node6&#45;&gt;Node20</title>
<path fill="none" stroke="#191970" d="M256.8567,-187.8389C267.4653,-183.7211 279.2178,-179.1655 290,-175 312.2632,-166.3989 337.6078,-156.6549 355.8858,-149.6361"/>
<polygon fill="#191970" stroke="#191970" points="255.5512,-184.5911 247.4964,-191.4737 258.0852,-191.1164 255.5512,-184.5911"/>
</g>
<!-- Node6&#45;&gt;Node20 -->
<g id="edge22" class="edge">
<title>Node6&#45;&gt;Node20</title>
<path fill="none" stroke="#9a32cd" stroke-dasharray="5,2" d="M239.1888,-183.6492C251.765,-171.3977 270.3288,-155.8221 290,-148 305.9161,-141.6711 324.5991,-139.2584 340.8816,-138.584"/>
<polygon fill="#9a32cd" stroke="#9a32cd" points="236.3662,-181.5269 231.8377,-191.1052 241.3509,-186.4415 236.3662,-181.5269"/>
<text text-anchor="middle" x="306.5" y="-151" font-family="Helvetica,sans-Serif" font-size="10.00" fill="#000000"> fTable</text>
</g>
<!-- Node21 -->
<g id="node18" class="node">
<title>Node21</title>
<g id="a_node18"><a xlink:href="classTExMap.html" target="_top" xlink:title="This class stores a (key,value) pair using an external hash. ">
<polygon fill="#ffffff" stroke="#000000" points="353.5,-244.5 353.5,-263.5 408.5,-263.5 408.5,-244.5 353.5,-244.5"/>
<text text-anchor="middle" x="381" y="-251.5" font-family="Helvetica,sans-Serif" font-size="10.00" fill="#000000">TExMap</text>
</a>
</g>
</g>
<!-- Node6&#45;&gt;Node21 -->
<g id="edge27" class="edge">
<title>Node6&#45;&gt;Node21</title>
<path fill="none" stroke="#191970" d="M252.1502,-214.7541C263.7713,-219.9362 277.3672,-225.6281 290,-230 310.8444,-237.2138 335.0108,-243.4935 353.1989,-247.8182"/>
<polygon fill="#191970" stroke="#191970" points="253.4697,-211.5094 242.9174,-210.5612 250.5752,-217.8829 253.4697,-211.5094"/>
</g>
<!-- Node7 -->
<g id="node4" class="node">
<title>Node7</title>
<g id="a_node4"><a xlink:href="classTString.html" target="_top" xlink:title="Basic string class. ">
<polygon fill="#ffffff" stroke="#000000" points="355.5,-38.5 355.5,-57.5 406.5,-57.5 406.5,-38.5 355.5,-38.5"/>
<text text-anchor="middle" x="381" y="-45.5" font-family="Helvetica,sans-Serif" font-size="10.00" fill="#000000">TString</text>
</a>
</g>
</g>
<!-- Node7&#45;&gt;Node5 -->
<g id="edge3" class="edge">
<title>Node7&#45;&gt;Node5</title>
<path fill="none" stroke="#9a32cd" stroke-dasharray="5,2" d="M416.6213,-45.271C449.4389,-43.5041 499.3597,-42.7117 542,-50 583.767,-57.139 630.0354,-75.0816 656.4083,-86.331"/>
<polygon fill="#9a32cd" stroke="#9a32cd" points="416.3716,-41.7795 406.5981,-45.8698 416.7891,-48.7671 416.3716,-41.7795"/>
<text text-anchor="middle" x="490.5" y="-64" font-family="Helvetica,sans-Serif" font-size="10.00" fill="#000000"> fTitle</text>
<text text-anchor="middle" x="490.5" y="-53" font-family="Helvetica,sans-Serif" font-size="10.00" fill="#000000">fName</text>
</g>
<!-- Node7&#45;&gt;Node19 -->
<g id="edge23" class="edge">
<title>Node7&#45;&gt;Node19</title>
<path fill="none" stroke="#9a32cd" stroke-dasharray="5,2" d="M412.9128,-61.6876C456.9046,-80.5558 535.0622,-114.0779 573.2523,-130.4579"/>
<polygon fill="#9a32cd" stroke="#9a32cd" points="414.1198,-58.3969 403.5498,-57.6717 411.3605,-64.8302 414.1198,-58.3969"/>
<text text-anchor="middle" x="490.5" y="-119" font-family="Helvetica,sans-Serif" font-size="10.00" fill="#000000"> fName</text>
</g>
<!-- Node8 -->
<g id="node5" class="node">
<title>Node8</title>
<g id="a_node5"><a xlink:href="structTString_1_1Rep__t.html" target="_top" xlink:title="TString::Rep_t">
<polygon fill="#ffffff" stroke="#000000" points="181,-38.5 181,-57.5 265,-57.5 265,-38.5 181,-38.5"/>
<text text-anchor="middle" x="223" y="-45.5" font-family="Helvetica,sans-Serif" font-size="10.00" fill="#000000">TString::Rep_t</text>
</a>
</g>
</g>
<!-- Node8&#45;&gt;Node7 -->
<g id="edge4" class="edge">
<title>Node8&#45;&gt;Node7</title>
<path fill="none" stroke="#9a32cd" stroke-dasharray="5,2" d="M275.3843,-48C302.2633,-48 333.797,-48 355.3648,-48"/>
<polygon fill="#9a32cd" stroke="#9a32cd" points="275.3411,-44.5001 265.3411,-48 275.3411,-51.5001 275.3411,-44.5001"/>
<text text-anchor="middle" x="306.5" y="-51" font-family="Helvetica,sans-Serif" font-size="10.00" fill="#000000"> fRep</text>
</g>
<!-- Node9 -->
<g id="node6" class="node">
<title>Node9</title>
<g id="a_node6"><a xlink:href="structTString_1_1LongStr__t.html" target="_top" xlink:title="TString::LongStr_t">
<polygon fill="#ffffff" stroke="#000000" points="1,-76.5 1,-95.5 104,-95.5 104,-76.5 1,-76.5"/>
<text text-anchor="middle" x="52.5" y="-83.5" font-family="Helvetica,sans-Serif" font-size="10.00" fill="#000000">TString::LongStr_t</text>
</a>
</g>
</g>
<!-- Node9&#45;&gt;Node8 -->
<g id="edge5" class="edge">
<title>Node9&#45;&gt;Node8</title>
<path fill="none" stroke="#9a32cd" stroke-dasharray="5,2" d="M105.4184,-74.2572C121.6487,-70.6511 139.5601,-66.6669 156,-63 164.0275,-61.2095 172.595,-59.2944 180.8282,-57.4521"/>
<polygon fill="#9a32cd" stroke="#9a32cd" points="104.5613,-70.8622 95.5582,-76.4475 106.0792,-77.6957 104.5613,-70.8622"/>
<text text-anchor="middle" x="139.5" y="-73" font-family="Helvetica,sans-Serif" font-size="10.00" fill="#000000"> fLong</text>
</g>
<!-- Node10 -->
<g id="node7" class="node">
<title>Node10</title>
<g id="a_node7"><a xlink:href="structTString_1_1RawStr__t.html" target="_top" xlink:title="TString::RawStr_t">
<polygon fill="#ffffff" stroke="#000000" points="2,-38.5 2,-57.5 103,-57.5 103,-38.5 2,-38.5"/>
<text text-anchor="middle" x="52.5" y="-45.5" font-family="Helvetica,sans-Serif" font-size="10.00" fill="#000000">TString::RawStr_t</text>
</a>
</g>
</g>
<!-- Node10&#45;&gt;Node8 -->
<g id="edge6" class="edge">
<title>Node10&#45;&gt;Node8</title>
<path fill="none" stroke="#9a32cd" stroke-dasharray="5,2" d="M113.2725,-48C135.6382,-48 160.4598,-48 180.83,-48"/>
<polygon fill="#9a32cd" stroke="#9a32cd" points="113.194,-44.5001 103.194,-48 113.194,-51.5001 113.194,-44.5001"/>
<text text-anchor="middle" x="139.5" y="-51" font-family="Helvetica,sans-Serif" font-size="10.00" fill="#000000"> fRaw</text>
</g>
<!-- Node11 -->
<g id="node8" class="node">
<title>Node11</title>
<g id="a_node8"><a xlink:href="structTString_1_1ShortStr__t.html" target="_top" xlink:title="TString::ShortStr_t">
<polygon fill="#ffffff" stroke="#000000" points="0,-.5 0,-19.5 105,-19.5 105,-.5 0,-.5"/>
<text text-anchor="middle" x="52.5" y="-7.5" font-family="Helvetica,sans-Serif" font-size="10.00" fill="#000000">TString::ShortStr_t</text>
</a>
</g>
</g>
<!-- Node11&#45;&gt;Node8 -->
<g id="edge7" class="edge">
<title>Node11&#45;&gt;Node8</title>
<path fill="none" stroke="#9a32cd" stroke-dasharray="5,2" d="M105.4184,-21.7428C121.6487,-25.3489 139.5601,-29.3331 156,-33 164.0275,-34.7905 172.595,-36.7056 180.8282,-38.5479"/>
<polygon fill="#9a32cd" stroke="#9a32cd" points="106.0792,-18.3043 95.5582,-19.5525 104.5613,-25.1378 106.0792,-18.3043"/>
<text text-anchor="middle" x="139.5" y="-36" font-family="Helvetica,sans-Serif" font-size="10.00" fill="#000000"> fShort</text>
</g>
<!-- Node12 -->
<g id="node9" class="node">
<title>Node12</title>
<g id="a_node9"><a xlink:href="classRooWorkspaceHandle.html" target="_top" xlink:title="An interface to set and retrieve a workspace. ">
<polygon fill="#ffffff" stroke="#000000" points="1262,-283.5 1262,-302.5 1384,-302.5 1384,-283.5 1262,-283.5"/>
<text text-anchor="middle" x="1323" y="-290.5" font-family="Helvetica,sans-Serif" font-size="10.00" fill="#000000">RooWorkspaceHandle</text>
</a>
</g>
</g>
<!-- Node12&#45;&gt;Node4 -->
<g id="edge8" class="edge">
<title>Node12&#45;&gt;Node4</title>
<path fill="none" stroke="#191970" d="M1394.2971,-289.5735C1436.704,-287.5355 1490.0077,-284.9738 1530.8025,-283.0132"/>
<polygon fill="#191970" stroke="#191970" points="1393.8632,-286.0902 1384.0428,-290.0663 1394.1993,-293.0822 1393.8632,-286.0902"/>
</g>
<!-- Node13 -->
<g id="node10" class="node">
<title>Node13</title>
<g id="a_node10"><a xlink:title="STL class. ">
<polygon fill="#ffffff" stroke="#bfbfbf" points="1290.5,-363.5 1290.5,-382.5 1355.5,-382.5 1355.5,-363.5 1290.5,-363.5"/>
<text text-anchor="middle" x="1323" y="-370.5" font-family="Helvetica,sans-Serif" font-size="10.00" fill="#000000">std::string</text>
</a>
</g>
</g>
<!-- Node13&#45;&gt;Node4 -->
<g id="edge9" class="edge">
<title>Node13&#45;&gt;Node4</title>
<path fill="none" stroke="#9a32cd" stroke-dasharray="5,2" d="M1360.377,-360.1495C1415.343,-341.2518 1516.7399,-306.3907 1565.6599,-289.5716"/>
<polygon fill="#9a32cd" stroke="#9a32cd" points="1358.9958,-356.9232 1350.677,-363.4844 1361.2717,-363.5429 1358.9958,-356.9232"/>
<text text-anchor="middle" x="1457.5" y="-459" font-family="Helvetica,sans-Serif" font-size="10.00" fill="#000000"> fConditionalObsName</text>
<text text-anchor="middle" x="1457.5" y="-448" font-family="Helvetica,sans-Serif" font-size="10.00" fill="#000000">fPdfName</text>
<text text-anchor="middle" x="1457.5" y="-437" font-family="Helvetica,sans-Serif" font-size="10.00" fill="#000000">fPriorPdfName</text>
<text text-anchor="middle" x="1457.5" y="-426" font-family="Helvetica,sans-Serif" font-size="10.00" fill="#000000">fSnapshotName</text>
<text text-anchor="middle" x="1457.5" y="-415" font-family="Helvetica,sans-Serif" font-size="10.00" fill="#000000">fProtoDataName</text>
<text text-anchor="middle" x="1457.5" y="-404" font-family="Helvetica,sans-Serif" font-size="10.00" fill="#000000">fConstrParamsName</text>
<text text-anchor="middle" x="1457.5" y="-393" font-family="Helvetica,sans-Serif" font-size="10.00" fill="#000000">fObservablesName</text>
<text text-anchor="middle" x="1457.5" y="-382" font-family="Helvetica,sans-Serif" font-size="10.00" fill="#000000">fPOIName</text>
<text text-anchor="middle" x="1457.5" y="-371" font-family="Helvetica,sans-Serif" font-size="10.00" fill="#000000">fWSName</text>
<text text-anchor="middle" x="1457.5" y="-360" font-family="Helvetica,sans-Serif" font-size="10.00" fill="#000000">fGlobalObsName</text>
<text text-anchor="middle" x="1457.5" y="-349" font-family="Helvetica,sans-Serif" font-size="10.00" fill="#000000">...</text>
</g>
<!-- Node14 -->
<g id="node11" class="node">
<title>Node14</title>
<polygon fill="#ffffff" stroke="#bfbfbf" points="1098,-369 1098,-399 1202,-399 1202,-369 1098,-369"/>
<text text-anchor="start" x="1106" y="-387" font-family="Helvetica,sans-Serif" font-size="10.00" fill="#000000">std::basic_string&lt;</text>
<text text-anchor="middle" x="1150" y="-376" font-family="Helvetica,sans-Serif" font-size="10.00" fill="#000000"> char &gt;</text>
</g>
<!-- Node14&#45;&gt;Node13 -->
<g id="edge10" class="edge">
<title>Node14&#45;&gt;Node13</title>
<path fill="none" stroke="#191970" d="M1212.6641,-380.0156C1238.9883,-378.3418 1268.507,-376.4649 1290.3838,-375.0739"/>
<polygon fill="#191970" stroke="#191970" points="1212.1329,-376.5422 1202.3752,-380.6698 1212.5772,-383.5281 1212.1329,-376.5422"/>
</g>
<!-- Node15&#45;&gt;Node4 -->
<g id="edge11" class="edge">
<title>Node15&#45;&gt;Node4</title>
<path fill="none" stroke="#9a32cd" stroke-dasharray="5,2" d="M1352.3473,-256.9073C1389.7071,-259.4295 1456.2222,-264.2351 1513,-270 1518.7445,-270.5833 1524.7139,-271.2362 1530.6886,-271.9215"/>
<polygon fill="#9a32cd" stroke="#9a32cd" points="1352.3842,-253.4021 1342.1734,-256.2285 1351.9181,-260.3866 1352.3842,-253.4021"/>
<text text-anchor="middle" x="1457.5" y="-273" font-family="Helvetica,sans-Serif" font-size="10.00" fill="#000000"> fRefWS</text>
</g>
<!-- Node16&#45;&gt;Node15 -->
<g id="edge13" class="edge">
<title>Node16&#45;&gt;Node15</title>
<path fill="none" stroke="#9a32cd" stroke-dasharray="5,2" d="M1195.9044,-232.2256C1231.1228,-238.5364 1277.9528,-246.928 1303.8068,-251.5608"/>
<polygon fill="#9a32cd" stroke="#9a32cd" points="1196.3063,-228.742 1185.8457,-230.4232 1195.0716,-235.6322 1196.3063,-228.742"/>
<text text-anchor="middle" x="1232" y="-244" font-family="Helvetica,sans-Serif" font-size="10.00" fill="#000000"> fPID</text>
</g>
<!-- Node16&#45;&gt;Node16 -->
<g id="edge15" class="edge">
<title>Node16&#45;&gt;Node16</title>
<path fill="none" stroke="#9a32cd" stroke-dasharray="5,2" d="M1134.8992,-243.7663C1136.0852,-248.4965 1141.1188,-252 1150,-252 1164.5742,-252 1168.7871,-242.5653 1162.6386,-233.7571"/>
<polygon fill="#9a32cd" stroke="#9a32cd" points="1138.3713,-244.3037 1137.3614,-233.7571 1131.5739,-242.6315 1138.3713,-244.3037"/>
<text text-anchor="middle" x="1150" y="-255" font-family="Helvetica,sans-Serif" font-size="10.00" fill="#000000"> fgPID</text>
</g>
<!-- Node17&#45;&gt;Node15 -->
<g id="edge30" class="edge">
<title>Node17&#45;&gt;Node15</title>
<path fill="none" stroke="#9a32cd" stroke-dasharray="5,2" d="M977.5205,-165.7623C1031.1543,-166.5349 1125.1349,-171.4286 1202,-194 1242.8559,-205.9973 1286.4261,-231.5232 1308.4488,-245.45"/>
<polygon fill="#9a32cd" stroke="#9a32cd" points="977.3839,-162.2608 967.3487,-165.6587 977.3125,-169.2605 977.3839,-162.2608"/>
<text text-anchor="middle" x="1150" y="-197" font-family="Helvetica,sans-Serif" font-size="10.00" fill="#000000"> fgExecs</text>
</g>
<!-- Node17&#45;&gt;Node16 -->
<g id="edge16" class="edge">
<title>Node17&#45;&gt;Node16</title>
<path fill="none" stroke="#9a32cd" stroke-dasharray="5,2" d="M976.8769,-175.264C990.0795,-178.2517 1004.6699,-181.6576 1018,-185 1045.7147,-191.9492 1052.5885,-193.9374 1080,-202 1093.3211,-205.9181 1107.9887,-210.4881 1120.4412,-214.4445"/>
<polygon fill="#9a32cd" stroke="#9a32cd" points="977.619,-171.8435 967.0953,-173.0687 976.0861,-178.6737 977.619,-171.8435"/>
<text text-anchor="middle" x="1058" y="-205" font-family="Helvetica,sans-Serif" font-size="10.00" fill="#000000"> fgPIDs</text>
</g>
<!-- Node18 -->
<g id="node15" class="node">
<title>Node18</title>
<g id="a_node15"><a xlink:href="classTSeqCollection.html" target="_top" xlink:title="Sequenceable collection abstract base class. ">
<polygon fill="#ffffff" stroke="#000000" points="725,-156.5 725,-175.5 814,-175.5 814,-156.5 725,-156.5"/>
<text text-anchor="middle" x="769.5" y="-163.5" font-family="Helvetica,sans-Serif" font-size="10.00" fill="#000000">TSeqCollection</text>
</a>
</g>
</g>
<!-- Node18&#45;&gt;Node17 -->
<g id="edge17" class="edge">
<title>Node18&#45;&gt;Node17</title>
<path fill="none" stroke="#191970" d="M824.1532,-166C849.8815,-166 879.7032,-166 901.8536,-166"/>
<polygon fill="#191970" stroke="#191970" points="824.1514,-162.5001 814.1514,-166 824.1513,-169.5001 824.1514,-162.5001"/>
</g>
<!-- Node19&#45;&gt;Node18 -->
<g id="edge18" class="edge">
<title>Node19&#45;&gt;Node18</title>
<path fill="none" stroke="#191970" d="M641.0718,-146.8096C666.9568,-150.6774 699.2247,-155.4991 724.9404,-159.3417"/>
<polygon fill="#191970" stroke="#191970" points="641.5388,-143.3406 631.1314,-145.3242 640.5043,-150.2637 641.5388,-143.3406"/>
</g>
<!-- Node19&#45;&gt;Node19 -->
<g id="edge24" class="edge">
<title>Node19&#45;&gt;Node19</title>
<path fill="none" stroke="#9a32cd" stroke-dasharray="5,2" d="M580.3992,-159.7663C581.5852,-164.4965 586.6188,-168 595.5,-168 610.0742,-168 614.2871,-158.5653 608.1386,-149.7571"/>
<polygon fill="#9a32cd" stroke="#9a32cd" points="583.8713,-160.3037 582.8614,-149.7571 577.0739,-158.6315 583.8713,-160.3037"/>
<text text-anchor="middle" x="595.5" y="-171" font-family="Helvetica,sans-Serif" font-size="10.00" fill="#000000"> fgCurrentCollection</text>
</g>
<!-- Node20&#45;&gt;Node19 -->
<g id="edge20" class="edge">
<title>Node20&#45;&gt;Node19</title>
<path fill="none" stroke="#9a32cd" stroke-dasharray="5,2" d="M431.3068,-140C470.7857,-140 524.7631,-140 559.8752,-140"/>
<polygon fill="#9a32cd" stroke="#9a32cd" points="431.0942,-136.5001 421.0942,-140 431.0941,-143.5001 431.0942,-136.5001"/>
<text text-anchor="middle" x="490.5" y="-143" font-family="Helvetica,sans-Serif" font-size="10.00" fill="#000000"> fgGarbageCollection</text>
</g>
<!-- Node21&#45;&gt;Node16 -->
<g id="edge26" class="edge">
<title>Node21&#45;&gt;Node16</title>
<path fill="none" stroke="#9a32cd" stroke-dasharray="5,2" d="M419.0205,-254C461.8974,-254 533.7056,-254 595.5,-254 595.5,-254 595.5,-254 934.5,-254 998.338,-254 1071.8062,-240.9258 1114.3686,-232.0394"/>
<polygon fill="#9a32cd" stroke="#9a32cd" points="418.7666,-250.5001 408.7666,-254 418.7665,-257.5001 418.7666,-250.5001"/>
<text text-anchor="middle" x="769.5" y="-257" font-family="Helvetica,sans-Serif" font-size="10.00" fill="#000000"> fgObjPIDs</text>
</g>
<!-- Node22 -->
<g id="node19" class="node">
<title>Node22</title>
<g id="a_node19"><a xlink:href="structTExMap_1_1Assoc__t.html" target="_top" xlink:title="TExMap::Assoc_t">
<polygon fill="#ffffff" stroke="#000000" points="174,-363.5 174,-382.5 272,-382.5 272,-363.5 174,-363.5"/>
<text text-anchor="middle" x="223" y="-370.5" font-family="Helvetica,sans-Serif" font-size="10.00" fill="#000000">TExMap::Assoc_t</text>
</a>
</g>
</g>
<!-- Node22&#45;&gt;Node21 -->
<g id="edge28" class="edge">
<title>Node22&#45;&gt;Node21</title>
<path fill="none" stroke="#9a32cd" stroke-dasharray="5,2" d="M243.7791,-357.3499C276.9925,-332.3348 341.0651,-284.0776 368.277,-263.5825"/>
<polygon fill="#9a32cd" stroke="#9a32cd" points="241.5449,-354.6509 235.6627,-363.4629 245.7563,-360.2424 241.5449,-354.6509"/>
<text text-anchor="middle" x="306.5" y="-324" font-family="Helvetica,sans-Serif" font-size="10.00" fill="#000000"> fTable</text>
</g>
<!-- Node23 -->
<g id="node20" class="node">
<title>Node23</title>
<g id="a_node20"><a xlink:href="classROOT_1_1Internal_1_1TAtomicPointer.html" target="_top" xlink:title="ROOT::Internal::TAtomicPointer\l\&lt; TObjArray *\&gt;">
<polygon fill="#ffffff" stroke="#000000" points="851,-195 851,-225 1018,-225 1018,-195 851,-195"/>
<text text-anchor="start" x="859" y="-213" font-family="Helvetica,sans-Serif" font-size="10.00" fill="#000000">ROOT::Internal::TAtomicPointer</text>
<text text-anchor="middle" x="934.5" y="-202" font-family="Helvetica,sans-Serif" font-size="10.00" fill="#000000">&lt; TObjArray *&gt;</text>
</a>
</g>
</g>
<!-- Node23&#45;&gt;Node16 -->
<g id="edge29" class="edge">
<title>Node23&#45;&gt;Node16</title>
<path fill="none" stroke="#9a32cd" stroke-dasharray="5,2" d="M1028.3782,-216.0988C1058.8202,-218.0765 1090.7643,-220.1517 1114.2719,-221.6789"/>
<polygon fill="#9a32cd" stroke="#9a32cd" points="1028.3323,-212.5885 1018.1264,-215.4328 1027.8784,-219.5738 1028.3323,-212.5885"/>
<text text-anchor="middle" x="1058" y="-223" font-family="Helvetica,sans-Serif" font-size="10.00" fill="#000000"> fObjects</text>
</g>
</g>
</svg>
