<?xml version="1.0" encoding="UTF-8" standalone="no"?>
<!DOCTYPE svg PUBLIC "-//W3C//DTD SVG 1.1//EN"
 "http://www.w3.org/Graphics/SVG/1.1/DTD/svg11.dtd">
<!-- Generated by graphviz version 2.40.1 (0)
 -->
<!-- Title: TClonesArray Pages: 1 -->
<svg width="97pt" height="252pt"
 viewBox="0.00 0.00 97.00 252.00" xmlns="http://www.w3.org/2000/svg" xmlns:xlink="http://www.w3.org/1999/xlink">
<g id="graph0" class="graph" transform="scale(1 1) rotate(0) translate(4 248)">
<title>TClonesArray</title>
<polygon fill="#ffffff" stroke="transparent" points="-4,4 -4,-248 93,-248 93,4 -4,4"/>
<!-- Node0 -->
<g id="node1" class="node">
<title>Node0</title>
<polygon fill="#bfbfbf" stroke="#000000" points="4,-.5 4,-19.5 85,-19.5 85,-.5 4,-.5"/>
<text text-anchor="middle" x="44.5" y="-7.5" font-family="Helvetica,sans-Serif" font-size="10.00" fill="#000000">TClonesArray</text>
</g>
<!-- Node1 -->
<g id="node2" class="node">
<title>Node1</title>
<g id="a_node2"><a xlink:href="classTObjArray.html" target="_top" xlink:title="An array of TObjects. ">
<polygon fill="#ffffff" stroke="#000000" points="12,-56.5 12,-75.5 77,-75.5 77,-56.5 12,-56.5"/>
<text text-anchor="middle" x="44.5" y="-63.5" font-family="Helvetica,sans-Serif" font-size="10.00" fill="#000000">TObjArray</text>
</a>
</g>
</g>
<!-- Node1&#45;&gt;Node0 -->
<g id="edge1" class="edge">
<title>Node1&#45;&gt;Node0</title>
<path fill="none" stroke="#191970" d="M44.5,-46.1575C44.5,-37.155 44.5,-26.9199 44.5,-19.6427"/>
<polygon fill="#191970" stroke="#191970" points="41.0001,-46.2455 44.5,-56.2455 48.0001,-46.2456 41.0001,-46.2455"/>
</g>
<!-- Node2 -->
<g id="node3" class="node">
<title>Node2</title>
<g id="a_node3"><a xlink:href="classTSeqCollection.html" target="_top" xlink:title="Sequenceable collection abstract base class. ">
<polygon fill="#ffffff" stroke="#000000" points="0,-112.5 0,-131.5 89,-131.5 89,-112.5 0,-112.5"/>
<text text-anchor="middle" x="44.5" y="-119.5" font-family="Helvetica,sans-Serif" font-size="10.00" fill="#000000">TSeqCollection</text>
</a>
</g>
</g>
<!-- Node2&#45;&gt;Node1 -->
<g id="edge2" class="edge">
<title>Node2&#45;&gt;Node1</title>
<path fill="none" stroke="#191970" d="M44.5,-102.1575C44.5,-93.155 44.5,-82.9199 44.5,-75.6427"/>
<polygon fill="#191970" stroke="#191970" points="41.0001,-102.2455 44.5,-112.2455 48.0001,-102.2456 41.0001,-102.2455"/>
</g>
<!-- Node3 -->
<g id="node4" class="node">
<title>Node3</title>
<g id="a_node4"><a xlink:href="classTCollection.html" target="_top" xlink:title="Collection abstract base class. ">
<polygon fill="#ffffff" stroke="#000000" points="9,-168.5 9,-187.5 80,-187.5 80,-168.5 9,-168.5"/>
<text text-anchor="middle" x="44.5" y="-175.5" font-family="Helvetica,sans-Serif" font-size="10.00" fill="#000000">TCollection</text>
</a>
</g>
</g>
<!-- Node3&#45;&gt;Node2 -->
<g id="edge3" class="edge">
<title>Node3&#45;&gt;Node2</title>
<path fill="none" stroke="#191970" d="M44.5,-158.1575C44.5,-149.155 44.5,-138.9199 44.5,-131.6427"/>
<polygon fill="#191970" stroke="#191970" points="41.0001,-158.2455 44.5,-168.2455 48.0001,-158.2456 41.0001,-158.2455"/>
</g>
<!-- Node4 -->
<g id="node5" class="node">
<title>Node4</title>
<g id="a_node5"><a xlink:href="classTObject.html" target="_top" xlink:title="Mother of all ROOT objects. ">
<polygon fill="#ffffff" stroke="#000000" points="17.5,-224.5 17.5,-243.5 71.5,-243.5 71.5,-224.5 17.5,-224.5"/>
<text text-anchor="middle" x="44.5" y="-231.5" font-family="Helvetica,sans-Serif" font-size="10.00" fill="#000000">TObject</text>
</a>
</g>
</g>
<!-- Node4&#45;&gt;Node3 -->
<g id="edge4" class="edge">
<title>Node4&#45;&gt;Node3</title>
<path fill="none" stroke="#191970" d="M44.5,-214.1575C44.5,-205.155 44.5,-194.9199 44.5,-187.6427"/>
<polygon fill="#191970" stroke="#191970" points="41.0001,-214.2455 44.5,-224.2455 48.0001,-214.2456 41.0001,-214.2455"/>
</g>
</g>
</svg>
