<?xml version="1.0" encoding="UTF-8" standalone="no"?>
<!DOCTYPE svg PUBLIC "-//W3C//DTD SVG 1.1//EN"
 "http://www.w3.org/Graphics/SVG/1.1/DTD/svg11.dtd">
<!-- Generated by graphviz version 2.40.1 (0)
 -->
<!-- Title: ROOT::Minuit2::MnFcn Pages: 1 -->
<svg width="178pt" height="152pt"
 viewBox="0.00 0.00 178.00 152.00" xmlns="http://www.w3.org/2000/svg" xmlns:xlink="http://www.w3.org/1999/xlink">
<g id="graph0" class="graph" transform="scale(1 1) rotate(0) translate(4 148)">
<title>ROOT::Minuit2::MnFcn</title>
<polygon fill="#ffffff" stroke="transparent" points="-4,4 -4,-148 174,-148 174,4 -4,4"/>
<!-- Node2 -->
<g id="node1" class="node">
<title>Node2</title>
<polygon fill="#bfbfbf" stroke="#000000" points="24,-.5 24,-19.5 146,-19.5 146,-.5 24,-.5"/>
<text text-anchor="middle" x="85" y="-7.5" font-family="Helvetica,sans-Serif" font-size="10.00" fill="#000000">ROOT::Minuit2::MnFcn</text>
</g>
<!-- Node3 -->
<g id="node2" class="node">
<title>Node3</title>
<g id="a_node2"><a xlink:href="classROOT_1_1Minuit2_1_1FCNBase.html" target="_top" xlink:title="Interface (abstract class) defining the function to be minimized, which has to be implemented by the ...">
<polygon fill="#ffffff" stroke="#000000" points="17.5,-67.5 17.5,-86.5 152.5,-86.5 152.5,-67.5 17.5,-67.5"/>
<text text-anchor="middle" x="85" y="-74.5" font-family="Helvetica,sans-Serif" font-size="10.00" fill="#000000">ROOT::Minuit2::FCNBase</text>
</a>
</g>
</g>
<!-- Node3&#45;&gt;Node2 -->
<g id="edge1" class="edge">
<title>Node3&#45;&gt;Node2</title>
<path fill="none" stroke="#9a32cd" stroke-dasharray="5,2" d="M85,-57.1079C85,-44.714 85,-29.3263 85,-19.5817"/>
<polygon fill="#9a32cd" stroke="#9a32cd" points="81.5001,-57.4005 85,-67.4005 88.5001,-57.4006 81.5001,-57.4005"/>
<text text-anchor="middle" x="98.5" y="-41" font-family="Helvetica,sans-Serif" font-size="10.00" fill="#000000"> fFCN</text>
</g>
<!-- Node4 -->
<g id="node3" class="node">
<title>Node4</title>
<g id="a_node3"><a xlink:href="classROOT_1_1Minuit2_1_1GenericFunction.html" target="_top" xlink:title="Class from which all the other classes, representing functions, inherit. ">
<polygon fill="#ffffff" stroke="#000000" points="0,-124.5 0,-143.5 170,-143.5 170,-124.5 0,-124.5"/>
<text text-anchor="middle" x="85" y="-131.5" font-family="Helvetica,sans-Serif" font-size="10.00" fill="#000000">ROOT::Minuit2::GenericFunction</text>
</a>
</g>
</g>
<!-- Node4&#45;&gt;Node3 -->
<g id="edge2" class="edge">
<title>Node4&#45;&gt;Node3</title>
<path fill="none" stroke="#191970" d="M85,-114.2342C85,-104.8491 85,-94.0651 85,-86.5265"/>
<polygon fill="#191970" stroke="#191970" points="81.5001,-114.3307 85,-124.3307 88.5001,-114.3308 81.5001,-114.3307"/>
</g>
</g>
</svg>
