<?xml version="1.0" encoding="UTF-8" standalone="no"?>
<!DOCTYPE svg PUBLIC "-//W3C//DTD SVG 1.1//EN"
 "http://www.w3.org/Graphics/SVG/1.1/DTD/svg11.dtd">
<!-- Generated by graphviz version 2.40.1 (0)
 -->
<!-- Title: TMPWorker Pages: 1 -->
<svg width="414pt" height="195pt"
 viewBox="0.00 0.00 414.00 194.50" xmlns="http://www.w3.org/2000/svg" xmlns:xlink="http://www.w3.org/1999/xlink">
<g id="graph0" class="graph" transform="scale(1 1) rotate(0) translate(4 190.5)">
<title>TMPWorker</title>
<polygon fill="#ffffff" stroke="transparent" points="-4,4 -4,-190.5 410,-190.5 410,4 -4,4"/>
<!-- Node0 -->
<g id="node1" class="node">
<title>Node0</title>
<polygon fill="#bfbfbf" stroke="#000000" points="0,-87.5 0,-106.5 71,-106.5 71,-87.5 0,-87.5"/>
<text text-anchor="middle" x="35.5" y="-94.5" font-family="Helvetica,sans-Serif" font-size="10.00" fill="#000000">TMPWorker</text>
</g>
<!-- Node1 -->
<g id="node2" class="node">
<title>Node1</title>
<g id="a_node2"><a xlink:href="classTMPWorkerExecutor.html" target="_top" xlink:title="This class works together with TProcessExecutor to allow the execution of functions in server process...">
<polygon fill="#ffffff" stroke="#000000" points="107,-156 107,-186 229,-186 229,-156 107,-156"/>
<text text-anchor="start" x="115" y="-174" font-family="Helvetica,sans-Serif" font-size="10.00" fill="#000000">TMPWorkerExecutor&lt;</text>
<text text-anchor="middle" x="168" y="-163" font-family="Helvetica,sans-Serif" font-size="10.00" fill="#000000"> F, T, R &gt;</text>
</a>
</g>
</g>
<!-- Node0&#45;&gt;Node1 -->
<g id="edge1" class="edge">
<title>Node0&#45;&gt;Node1</title>
<path fill="none" stroke="#191970" d="M55.635,-113.0083C69.5258,-123.559 88.716,-137.1876 107,-147 112.9163,-150.1751 119.3457,-153.1615 125.7373,-155.8774"/>
<polygon fill="#191970" stroke="#191970" points="57.3868,-109.9386 47.3349,-106.5905 53.105,-115.4763 57.3868,-109.9386"/>
</g>
<!-- Node2 -->
<g id="node3" class="node">
<title>Node2</title>
<g id="a_node3"><a xlink:href="classTMPWorkerExecutor_3_01F_00_01T_00_01void_01_4.html" target="_top" xlink:title="TMPWorkerExecutor\&lt;\l F, T, void \&gt;">
<polygon fill="#ffffff" stroke="#000000" points="107,-107 107,-137 229,-137 229,-107 107,-107"/>
<text text-anchor="start" x="115" y="-125" font-family="Helvetica,sans-Serif" font-size="10.00" fill="#000000">TMPWorkerExecutor&lt;</text>
<text text-anchor="middle" x="168" y="-114" font-family="Helvetica,sans-Serif" font-size="10.00" fill="#000000"> F, T, void &gt;</text>
</a>
</g>
</g>
<!-- Node0&#45;&gt;Node2 -->
<g id="edge2" class="edge">
<title>Node0&#45;&gt;Node2</title>
<path fill="none" stroke="#191970" d="M80.9058,-105.5671C89.2541,-107.1423 98.0941,-108.8102 106.8162,-110.4559"/>
<polygon fill="#191970" stroke="#191970" points="81.4831,-102.1144 71.0076,-103.6995 80.1852,-108.993 81.4831,-102.1144"/>
</g>
<!-- Node3 -->
<g id="node4" class="node">
<title>Node3</title>
<g id="a_node4"><a xlink:href="classTMPWorkerExecutor_3_01F_00_01void_00_01R_01_4.html" target="_top" xlink:title="TMPWorkerExecutor\&lt;\l F, void, R \&gt;">
<polygon fill="#ffffff" stroke="#000000" points="107,-58 107,-88 229,-88 229,-58 107,-58"/>
<text text-anchor="start" x="115" y="-76" font-family="Helvetica,sans-Serif" font-size="10.00" fill="#000000">TMPWorkerExecutor&lt;</text>
<text text-anchor="middle" x="168" y="-65" font-family="Helvetica,sans-Serif" font-size="10.00" fill="#000000"> F, void, R &gt;</text>
</a>
</g>
</g>
<!-- Node0&#45;&gt;Node3 -->
<g id="edge3" class="edge">
<title>Node0&#45;&gt;Node3</title>
<path fill="none" stroke="#191970" d="M80.9058,-88.7755C89.2541,-87.2634 98.0941,-85.6622 106.8162,-84.0823"/>
<polygon fill="#191970" stroke="#191970" points="80.2236,-85.3421 71.0076,-90.5684 81.4713,-92.23 80.2236,-85.3421"/>
</g>
<!-- Node4 -->
<g id="node5" class="node">
<title>Node4</title>
<g id="a_node5"><a xlink:href="classTMPWorkerTree.html" target="_top" xlink:title="This class works in conjuction with TTreeProcessorMP, reacting to messages received from it as specif...">
<polygon fill="#ffffff" stroke="#000000" points="122,-19.5 122,-38.5 214,-38.5 214,-19.5 122,-19.5"/>
<text text-anchor="middle" x="168" y="-26.5" font-family="Helvetica,sans-Serif" font-size="10.00" fill="#000000">TMPWorkerTree</text>
</a>
</g>
</g>
<!-- Node0&#45;&gt;Node4 -->
<g id="edge4" class="edge">
<title>Node0&#45;&gt;Node4</title>
<path fill="none" stroke="#191970" d="M55.805,-81.1643C69.6414,-70.9402 88.7036,-57.9292 107,-49 115.213,-44.9918 124.4232,-41.4994 133.149,-38.6035"/>
<polygon fill="#191970" stroke="#191970" points="53.4023,-78.5926 47.5276,-87.4096 57.6184,-84.1805 53.4023,-78.5926"/>
</g>
<!-- Node5 -->
<g id="node6" class="node">
<title>Node5</title>
<g id="a_node6"><a xlink:href="classTMPWorkerTreeFunc.html" target="_top" xlink:title="Templated derivation of TMPWorkerTree handlign generic function tree processing. ">
<polygon fill="#ffffff" stroke="#000000" points="265,-38.5 265,-57.5 406,-57.5 406,-38.5 265,-38.5"/>
<text text-anchor="middle" x="335.5" y="-45.5" font-family="Helvetica,sans-Serif" font-size="10.00" fill="#000000">TMPWorkerTreeFunc&lt; F &gt;</text>
</a>
</g>
</g>
<!-- Node4&#45;&gt;Node5 -->
<g id="edge5" class="edge">
<title>Node4&#45;&gt;Node5</title>
<path fill="none" stroke="#191970" d="M224.4083,-35.3986C237.4195,-36.8745 251.4197,-38.4625 264.9485,-39.9971"/>
<polygon fill="#191970" stroke="#191970" points="224.5443,-31.8916 214.2135,-34.2421 223.7553,-38.847 224.5443,-31.8916"/>
</g>
<!-- Node6 -->
<g id="node7" class="node">
<title>Node6</title>
<g id="a_node7"><a xlink:href="classTMPWorkerTreeSel.html" target="_top" xlink:title="Templated derivation of TMPWorkerTree handlign selector tree processing. ">
<polygon fill="#ffffff" stroke="#000000" points="282,-.5 282,-19.5 389,-19.5 389,-.5 282,-.5"/>
<text text-anchor="middle" x="335.5" y="-7.5" font-family="Helvetica,sans-Serif" font-size="10.00" fill="#000000">TMPWorkerTreeSel</text>
</a>
</g>
</g>
<!-- Node4&#45;&gt;Node6 -->
<g id="edge6" class="edge">
<title>Node4&#45;&gt;Node6</title>
<path fill="none" stroke="#191970" d="M224.2795,-22.6161C242.8208,-20.5129 263.3822,-18.1805 281.7315,-16.0991"/>
<polygon fill="#191970" stroke="#191970" points="223.7553,-19.153 214.2135,-23.7579 224.5443,-26.1084 223.7553,-19.153"/>
</g>
</g>
</svg>
