<?xml version="1.0" encoding="UTF-8" standalone="no"?>
<!DOCTYPE svg PUBLIC "-//W3C//DTD SVG 1.1//EN"
 "http://www.w3.org/Graphics/SVG/1.1/DTD/svg11.dtd">
<!-- Generated by graphviz version 2.40.1 (0)
 -->
<!-- Title: ROOT::TThreadedObject&lt; T &gt; Pages: 1 -->
<svg width="434pt" height="165pt"
 viewBox="0.00 0.00 434.00 164.50" xmlns="http://www.w3.org/2000/svg" xmlns:xlink="http://www.w3.org/1999/xlink">
<g id="graph0" class="graph" transform="scale(1 1) rotate(0) translate(4 160.5)">
<title>ROOT::TThreadedObject&lt; T &gt;</title>
<polygon fill="#ffffff" stroke="transparent" points="-4,4 -4,-160.5 430,-160.5 430,4 -4,4"/>
<!-- Node1 -->
<g id="node1" class="node">
<title>Node1</title>
<polygon fill="#bfbfbf" stroke="#000000" points="265,-77 265,-96 426,-96 426,-77 265,-77"/>
<text text-anchor="middle" x="345.5" y="-84" font-family="Helvetica,sans-Serif" font-size="10.00" fill="#000000">ROOT::TThreadedObject&lt; T &gt;</text>
</g>
<!-- Node2 -->
<g id="node2" class="node">
<title>Node2</title>
<polygon fill="#ffffff" stroke="#bfbfbf" points="0,-137 0,-156 147,-156 147,-137 0,-137"/>
<text text-anchor="middle" x="73.5" y="-144" font-family="Helvetica,sans-Serif" font-size="10.00" fill="#000000">std::vector&lt; TDirectory *&gt;</text>
</g>
<!-- Node2&#45;&gt;Node1 -->
<g id="edge1" class="edge">
<title>Node2&#45;&gt;Node1</title>
<path fill="none" stroke="#9a32cd" stroke-dasharray="5,2" d="M146.389,-135.3019C177.5423,-130.0452 214.2144,-123.2308 247,-115.5 270.4233,-109.9768 296.5344,-102.2142 315.9846,-96.11"/>
<polygon fill="#9a32cd" stroke="#9a32cd" points="145.7689,-131.8569 136.4802,-136.953 146.9195,-138.7617 145.7689,-131.8569"/>
<text text-anchor="middle" x="206" y="-134.5" font-family="Helvetica,sans-Serif" font-size="10.00" fill="#000000"> fDirectories</text>
</g>
<!-- Node3 -->
<g id="node3" class="node">
<title>Node3</title>
<g id="a_node3"><a xlink:href="classROOT_1_1TSpinMutex.html" target="_top" xlink:title="A spin mutex class which respects the STL interface for mutexes. ">
<polygon fill="#ffffff" stroke="#000000" points="20,-99 20,-118 127,-118 127,-99 20,-99"/>
<text text-anchor="middle" x="73.5" y="-106" font-family="Helvetica,sans-Serif" font-size="10.00" fill="#000000">ROOT::TSpinMutex</text>
</a>
</g>
</g>
<!-- Node3&#45;&gt;Node1 -->
<g id="edge2" class="edge">
<title>Node3&#45;&gt;Node1</title>
<path fill="none" stroke="#9a32cd" stroke-dasharray="5,2" d="M137.666,-103.3101C175.678,-100.2356 224.1906,-96.3118 264.784,-93.0285"/>
<polygon fill="#9a32cd" stroke="#9a32cd" points="136.9237,-99.8586 127.2384,-104.1535 137.4881,-106.8358 136.9237,-99.8586"/>
<text text-anchor="middle" x="206" y="-103.5" font-family="Helvetica,sans-Serif" font-size="10.00" fill="#000000"> fThrIDSlotMutex</text>
</g>
<!-- Node4 -->
<g id="node4" class="node">
<title>Node4</title>
<polygon fill="#ffffff" stroke="#bfbfbf" points="12,-49.5 12,-79.5 135,-79.5 135,-49.5 12,-49.5"/>
<text text-anchor="start" x="20" y="-67.5" font-family="Helvetica,sans-Serif" font-size="10.00" fill="#000000">std::map&lt; std::thread</text>
<text text-anchor="middle" x="73.5" y="-56.5" font-family="Helvetica,sans-Serif" font-size="10.00" fill="#000000">::id, unsigned &gt;</text>
</g>
<!-- Node4&#45;&gt;Node1 -->
<g id="edge3" class="edge">
<title>Node4&#45;&gt;Node1</title>
<path fill="none" stroke="#9a32cd" stroke-dasharray="5,2" d="M145.3614,-70.3123C182.1205,-73.2855 226.9878,-76.9145 264.9175,-79.9823"/>
<polygon fill="#9a32cd" stroke="#9a32cd" points="145.4707,-66.8098 135.221,-69.4921 144.9063,-73.787 145.4707,-66.8098"/>
<text text-anchor="middle" x="206" y="-80.5" font-family="Helvetica,sans-Serif" font-size="10.00" fill="#000000"> fThrIDSlotMap</text>
</g>
<!-- Node5 -->
<g id="node5" class="node">
<title>Node5</title>
<polygon fill="#ffffff" stroke="#bfbfbf" points="6.5,-.5 6.5,-30.5 140.5,-30.5 140.5,-.5 6.5,-.5"/>
<text text-anchor="start" x="14.5" y="-18.5" font-family="Helvetica,sans-Serif" font-size="10.00" fill="#000000">std::vector&lt; std::shared</text>
<text text-anchor="middle" x="73.5" y="-7.5" font-family="Helvetica,sans-Serif" font-size="10.00" fill="#000000">_ptr&lt; T &gt; &gt;</text>
</g>
<!-- Node5&#45;&gt;Node1 -->
<g id="edge4" class="edge">
<title>Node5&#45;&gt;Node1</title>
<path fill="none" stroke="#9a32cd" stroke-dasharray="5,2" d="M150.92,-32.6859C181.0211,-39.6574 215.7252,-48.0512 247,-56.5 270.2978,-62.7938 296.4157,-70.7924 315.9005,-76.9474"/>
<polygon fill="#9a32cd" stroke="#9a32cd" points="151.4303,-29.2118 140.8998,-30.3781 149.8592,-36.0333 151.4303,-29.2118"/>
<text text-anchor="middle" x="206" y="-59.5" font-family="Helvetica,sans-Serif" font-size="10.00" fill="#000000"> fObjPointers</text>
</g>
</g>
</svg>
