<?xml version="1.0" encoding="UTF-8" standalone="no"?>
<!DOCTYPE svg PUBLIC "-//W3C//DTD SVG 1.1//EN"
 "http://www.w3.org/Graphics/SVG/1.1/DTD/svg11.dtd">
<!-- Generated by graphviz version 2.40.1 (0)
 -->
<!-- Title: TXSlave Pages: 1 -->
<svg width="146pt" height="140pt"
 viewBox="0.00 0.00 146.00 140.00" xmlns="http://www.w3.org/2000/svg" xmlns:xlink="http://www.w3.org/1999/xlink">
<g id="graph0" class="graph" transform="scale(1 1) rotate(0) translate(4 136)">
<title>TXSlave</title>
<polygon fill="#ffffff" stroke="transparent" points="-4,4 -4,-136 142,-136 142,4 -4,4"/>
<!-- Node0 -->
<g id="node1" class="node">
<title>Node0</title>
<polygon fill="#bfbfbf" stroke="#000000" points="37,-.5 37,-19.5 93,-19.5 93,-.5 37,-.5"/>
<text text-anchor="middle" x="65" y="-7.5" font-family="Helvetica,sans-Serif" font-size="10.00" fill="#000000">TXSlave</text>
</g>
<!-- Node1 -->
<g id="node2" class="node">
<title>Node1</title>
<g id="a_node2"><a xlink:href="classTSlave.html" target="_top" xlink:title="Class describing a PROOF worker server. ">
<polygon fill="#ffffff" stroke="#000000" points="2,-56.5 2,-75.5 52,-75.5 52,-56.5 2,-56.5"/>
<text text-anchor="middle" x="27" y="-63.5" font-family="Helvetica,sans-Serif" font-size="10.00" fill="#000000">TSlave</text>
</a>
</g>
</g>
<!-- Node1&#45;&gt;Node0 -->
<g id="edge1" class="edge">
<title>Node1&#45;&gt;Node0</title>
<path fill="none" stroke="#191970" d="M39.2679,-47.9209C45.6488,-38.5176 53.1931,-27.3997 58.4568,-19.6427"/>
<polygon fill="#191970" stroke="#191970" points="36.338,-46.0055 33.6191,-56.2455 42.1303,-49.936 36.338,-46.0055"/>
</g>
<!-- Node2 -->
<g id="node3" class="node">
<title>Node2</title>
<g id="a_node3"><a xlink:href="classTObject.html" target="_top" xlink:title="Mother of all ROOT objects. ">
<polygon fill="#ffffff" stroke="#000000" points="0,-112.5 0,-131.5 54,-131.5 54,-112.5 0,-112.5"/>
<text text-anchor="middle" x="27" y="-119.5" font-family="Helvetica,sans-Serif" font-size="10.00" fill="#000000">TObject</text>
</a>
</g>
</g>
<!-- Node2&#45;&gt;Node1 -->
<g id="edge2" class="edge">
<title>Node2&#45;&gt;Node1</title>
<path fill="none" stroke="#191970" d="M27,-102.1575C27,-93.155 27,-82.9199 27,-75.6427"/>
<polygon fill="#191970" stroke="#191970" points="23.5001,-102.2455 27,-112.2455 30.5001,-102.2456 23.5001,-102.2455"/>
</g>
<!-- Node3 -->
<g id="node4" class="node">
<title>Node3</title>
<g id="a_node4"><a xlink:href="classTXHandler.html" target="_top" xlink:title="Handler of asynchronous events for XProofD sockets. ">
<polygon fill="#ffffff" stroke="#000000" points="70,-56.5 70,-75.5 138,-75.5 138,-56.5 70,-56.5"/>
<text text-anchor="middle" x="104" y="-63.5" font-family="Helvetica,sans-Serif" font-size="10.00" fill="#000000">TXHandler</text>
</a>
</g>
</g>
<!-- Node3&#45;&gt;Node0 -->
<g id="edge3" class="edge">
<title>Node3&#45;&gt;Node0</title>
<path fill="none" stroke="#191970" d="M91.4092,-47.9209C84.8605,-38.5176 77.1176,-27.3997 71.7154,-19.6427"/>
<polygon fill="#191970" stroke="#191970" points="88.6196,-50.0397 97.2067,-56.2455 94.3639,-46.0392 88.6196,-50.0397"/>
</g>
</g>
</svg>
