<?xml version="1.0" encoding="UTF-8" standalone="no"?>
<!DOCTYPE svg PUBLIC "-//W3C//DTD SVG 1.1//EN"
 "http://www.w3.org/Graphics/SVG/1.1/DTD/svg11.dtd">
<!-- Generated by graphviz version 2.40.1 (0)
 -->
<!-- Title: TGLLogicalShape Pages: 1 -->
<svg width="1873pt" height="530pt"
 viewBox="0.00 0.00 1873.00 530.00" xmlns="http://www.w3.org/2000/svg" xmlns:xlink="http://www.w3.org/1999/xlink">
<g id="graph0" class="graph" transform="scale(1 1) rotate(0) translate(4 526)">
<title>TGLLogicalShape</title>
<polygon fill="#ffffff" stroke="transparent" points="-4,4 -4,-526 1869,-526 1869,4 -4,4"/>
<!-- Node33 -->
<g id="node1" class="node">
<title>Node33</title>
<polygon fill="#bfbfbf" stroke="#000000" points="754,-225.5 754,-244.5 854,-244.5 854,-225.5 754,-225.5"/>
<text text-anchor="middle" x="804" y="-232.5" font-family="Helvetica,sans-Serif" font-size="10.00" fill="#000000">TGLLogicalShape</text>
</g>
<!-- Node38 -->
<g id="node6" class="node">
<title>Node38</title>
<g id="a_node6"><a xlink:href="classTGLPhysicalShape.html" target="_top" xlink:title="Concrete physical shape &#45; a GL drawable. ">
<polygon fill="#ffffff" stroke="#000000" points="985,-281.5 985,-300.5 1091,-300.5 1091,-281.5 985,-281.5"/>
<text text-anchor="middle" x="1038" y="-288.5" font-family="Helvetica,sans-Serif" font-size="10.00" fill="#000000">TGLPhysicalShape</text>
</a>
</g>
</g>
<!-- Node33&#45;&gt;Node38 -->
<g id="edge10" class="edge">
<title>Node33&#45;&gt;Node38</title>
<path fill="none" stroke="#9a32cd" stroke-dasharray="5,2" d="M853.9452,-246.9527C897.0147,-257.2599 958.385,-271.9468 998.2047,-281.4763"/>
<polygon fill="#9a32cd" stroke="#9a32cd" points="854.5002,-243.4867 843.9602,-244.5631 852.8709,-250.2945 854.5002,-243.4867"/>
<text text-anchor="middle" x="908" y="-272" font-family="Helvetica,sans-Serif" font-size="10.00" fill="#000000"> fLogicalShape</text>
</g>
<!-- Node34 -->
<g id="node2" class="node">
<title>Node34</title>
<g id="a_node2"><a xlink:href="classTGLScene.html" target="_top" xlink:title="TGLScene provides management and rendering of ROOT&#39;s default 3D /object representation as logical and...">
<polygon fill="#ffffff" stroke="#000000" points="1800,-104.5 1800,-123.5 1865,-123.5 1865,-104.5 1800,-104.5"/>
<text text-anchor="middle" x="1832.5" y="-111.5" font-family="Helvetica,sans-Serif" font-size="10.00" fill="#000000">TGLScene</text>
</a>
</g>
</g>
<!-- Node34&#45;&gt;Node33 -->
<g id="edge1" class="edge">
<title>Node34&#45;&gt;Node33</title>
<path fill="none" stroke="#9a32cd" stroke-dasharray="5,2" d="M1801.9449,-127.5421C1754.9175,-147.1171 1661.5253,-181 1578.5,-181 1038,-181 1038,-181 1038,-181 959.8262,-181 870.6374,-209.9679 828.5046,-225.4702"/>
<polygon fill="#9a32cd" stroke="#9a32cd" points="1803.4122,-130.7217 1811.2559,-123.5995 1800.6827,-124.2757 1803.4122,-130.7217"/>
<text text-anchor="middle" x="1310.5" y="-184" font-family="Helvetica,sans-Serif" font-size="10.00" fill="#000000"> fScene</text>
</g>
<!-- Node35 -->
<g id="node3" class="node">
<title>Node35</title>
<g id="a_node3"><a xlink:href="classTGLSceneBase.html" target="_top" xlink:title="Scene base&#45;class – provides basic interface expected by the TGLViewer or its sub&#45;classes: ...">
<polygon fill="#ffffff" stroke="#000000" points="1534,-326.5 1534,-345.5 1623,-345.5 1623,-326.5 1534,-326.5"/>
<text text-anchor="middle" x="1578.5" y="-333.5" font-family="Helvetica,sans-Serif" font-size="10.00" fill="#000000">TGLSceneBase</text>
</a>
</g>
</g>
<!-- Node35&#45;&gt;Node34 -->
<g id="edge2" class="edge">
<title>Node35&#45;&gt;Node34</title>
<path fill="none" stroke="#191970" d="M1606.2684,-321.6027C1648.094,-298.9244 1728.0898,-251.5869 1782,-195 1803.3755,-172.5632 1820.4687,-139.6848 1828.1302,-123.5913"/>
<polygon fill="#191970" stroke="#191970" points="1604.3844,-318.6413 1597.2196,-326.4462 1607.6878,-324.8128 1604.3844,-318.6413"/>
</g>
<!-- Node36 -->
<g id="node4" class="node">
<title>Node36</title>
<g id="a_node4"><a xlink:href="classTGLLockable.html" target="_top" xlink:title="Simple locking interface used by viewer and scene. ">
<polygon fill="#ffffff" stroke="#000000" points="1271,-210.5 1271,-229.5 1350,-229.5 1350,-210.5 1271,-210.5"/>
<text text-anchor="middle" x="1310.5" y="-217.5" font-family="Helvetica,sans-Serif" font-size="10.00" fill="#000000">TGLLockable</text>
</a>
</g>
</g>
<!-- Node36&#45;&gt;Node35 -->
<g id="edge3" class="edge">
<title>Node36&#45;&gt;Node35</title>
<path fill="none" stroke="#191970" d="M1360.0108,-230.2756C1370.0384,-232.7908 1380.4366,-235.7178 1390,-239 1458.2301,-262.417 1532.4781,-306.8364 1563.5339,-326.3716"/>
<polygon fill="#191970" stroke="#191970" points="1360.693,-226.8399 1350.1514,-227.8997 1359.0531,-233.6451 1360.693,-226.8399"/>
</g>
<!-- Node37 -->
<g id="node5" class="node">
<title>Node37</title>
<g id="a_node5"><a xlink:href="classTGLClip.html" target="_top" xlink:title="Abstract clipping shape &#45; derives from TGLPhysicalShape Adds clip mode (inside/outside) and pure virt...">
<polygon fill="#ffffff" stroke="#000000" points="1283.5,-248.5 1283.5,-267.5 1337.5,-267.5 1337.5,-248.5 1283.5,-248.5"/>
<text text-anchor="middle" x="1310.5" y="-255.5" font-family="Helvetica,sans-Serif" font-size="10.00" fill="#000000">TGLClip</text>
</a>
</g>
</g>
<!-- Node37&#45;&gt;Node35 -->
<g id="edge4" class="edge">
<title>Node37&#45;&gt;Node35</title>
<path fill="none" stroke="#9a32cd" stroke-dasharray="5,2" d="M1347.6819,-266.3283C1361.0732,-269.4747 1376.2639,-273.2137 1390,-277 1447.3563,-292.81 1513.5505,-314.2901 1550.2579,-326.4928"/>
<polygon fill="#9a32cd" stroke="#9a32cd" points="1348.3785,-262.897 1337.8463,-264.0468 1346.7967,-269.716 1348.3785,-262.897"/>
<text text-anchor="middle" x="1443" y="-305" font-family="Helvetica,sans-Serif" font-size="10.00" fill="#000000"> fClip</text>
</g>
<!-- Node38&#45;&gt;Node33 -->
<g id="edge45" class="edge">
<title>Node38&#45;&gt;Node33</title>
<path fill="none" stroke="#9a32cd" stroke-dasharray="5,2" d="M1018.0689,-275.5027C999.9097,-262.4139 971.763,-244.6197 944,-237 914.9329,-229.0224 881.1779,-228.3038 854.0961,-229.6839"/>
<polygon fill="#9a32cd" stroke="#9a32cd" points="1016.0185,-278.3396 1026.1357,-281.485 1020.1882,-272.717 1016.0185,-278.3396"/>
<text text-anchor="middle" x="908" y="-240" font-family="Helvetica,sans-Serif" font-size="10.00" fill="#000000"> fFirstPhysical</text>
</g>
<!-- Node38&#45;&gt;Node37 -->
<g id="edge5" class="edge">
<title>Node38&#45;&gt;Node37</title>
<path fill="none" stroke="#191970" d="M1101.2727,-283.3376C1158.8191,-276.3687 1241.0045,-266.416 1283.1987,-261.3062"/>
<polygon fill="#191970" stroke="#191970" points="1100.6943,-279.882 1091.1876,-284.5589 1101.5359,-286.8312 1100.6943,-279.882"/>
</g>
<!-- Node38&#45;&gt;Node38 -->
<g id="edge15" class="edge">
<title>Node38&#45;&gt;Node38</title>
<path fill="none" stroke="#9a32cd" stroke-dasharray="5,2" d="M1013.8186,-310.0292C1015.1376,-315.128 1023.1981,-319 1038,-319 1061.1055,-319 1067.7844,-309.5653 1058.0368,-300.7571"/>
<polygon fill="#9a32cd" stroke="#9a32cd" points="1017.0776,-311.3148 1017.9632,-300.7571 1010.687,-308.4582 1017.0776,-311.3148"/>
<text text-anchor="middle" x="1038" y="-322" font-family="Helvetica,sans-Serif" font-size="10.00" fill="#000000"> fNextPhysical</text>
</g>
<!-- Node40 -->
<g id="node8" class="node">
<title>Node40</title>
<g id="a_node8"><a xlink:href="classTGLPShapeRef.html" target="_top" xlink:title="Base class for references to TGLPysicalShape that need to be notified when the shape is destroyed...">
<polygon fill="#ffffff" stroke="#000000" points="1267,-286.5 1267,-305.5 1354,-305.5 1354,-286.5 1267,-286.5"/>
<text text-anchor="middle" x="1310.5" y="-293.5" font-family="Helvetica,sans-Serif" font-size="10.00" fill="#000000">TGLPShapeRef</text>
</a>
</g>
</g>
<!-- Node38&#45;&gt;Node40 -->
<g id="edge9" class="edge">
<title>Node38&#45;&gt;Node40</title>
<path fill="none" stroke="#9a32cd" stroke-dasharray="5,2" d="M1101.33,-290.2342C1111.5831,-290.1368 1122.0855,-290.0527 1132,-290 1167.9995,-289.8085 1177.017,-288.8939 1213,-290 1230.6291,-290.5419 1250.0259,-291.6338 1266.8446,-292.7393"/>
<polygon fill="#9a32cd" stroke="#9a32cd" points="1101.1556,-286.7357 1091.1911,-290.3356 1101.2257,-293.7354 1101.1556,-286.7357"/>
<text text-anchor="middle" x="1172.5" y="-293" font-family="Helvetica,sans-Serif" font-size="10.00" fill="#000000"> fPShape</text>
</g>
<!-- Node39 -->
<g id="node7" class="node">
<title>Node39</title>
<g id="a_node7"><a xlink:href="classTGLMatrix.html" target="_top" xlink:title="16 component (4x4) transform matrix &#45; column MAJOR as per GL. ">
<polygon fill="#ffffff" stroke="#000000" points="771,-293.5 771,-312.5 837,-312.5 837,-293.5 771,-293.5"/>
<text text-anchor="middle" x="804" y="-300.5" font-family="Helvetica,sans-Serif" font-size="10.00" fill="#000000">TGLMatrix</text>
</a>
</g>
</g>
<!-- Node39&#45;&gt;Node38 -->
<g id="edge6" class="edge">
<title>Node39&#45;&gt;Node38</title>
<path fill="none" stroke="#9a32cd" stroke-dasharray="5,2" d="M847.4743,-300.7706C886.311,-298.7789 943.3212,-295.8553 984.8549,-293.7254"/>
<polygon fill="#9a32cd" stroke="#9a32cd" points="846.8378,-297.2985 837.0302,-301.3061 847.1963,-304.2893 846.8378,-297.2985"/>
<text text-anchor="middle" x="908" y="-303" font-family="Helvetica,sans-Serif" font-size="10.00" fill="#000000"> fTransform</text>
</g>
<!-- Node40&#45;&gt;Node38 -->
<g id="edge7" class="edge">
<title>Node40&#45;&gt;Node38</title>
<path fill="none" stroke="#9a32cd" stroke-dasharray="5,2" d="M1256.6925,-300.9844C1221.249,-303.5595 1173.8327,-305.6594 1132,-303 1118.7008,-302.1545 1104.4069,-300.6428 1091.0792,-298.9709"/>
<polygon fill="#9a32cd" stroke="#9a32cd" points="1257.1168,-304.4623 1266.8217,-300.2121 1256.5845,-297.4826 1257.1168,-304.4623"/>
<text text-anchor="middle" x="1172.5" y="-308" font-family="Helvetica,sans-Serif" font-size="10.00" fill="#000000"> fFirstPSRef</text>
</g>
<!-- Node40&#45;&gt;Node40 -->
<g id="edge8" class="edge">
<title>Node40&#45;&gt;Node40</title>
<path fill="none" stroke="#9a32cd" stroke-dasharray="5,2" d="M1285.9465,-315.0292C1287.2858,-320.128 1295.4703,-324 1310.5,-324 1333.9609,-324 1340.7426,-314.5653 1330.845,-305.7571"/>
<polygon fill="#9a32cd" stroke="#9a32cd" points="1289.209,-316.3096 1290.155,-305.7571 1282.8348,-313.4164 1289.209,-316.3096"/>
<text text-anchor="middle" x="1310.5" y="-327" font-family="Helvetica,sans-Serif" font-size="10.00" fill="#000000"> fNextPSRef</text>
</g>
<!-- Node41 -->
<g id="node9" class="node">
<title>Node41</title>
<g id="a_node9"><a xlink:href="classTGLBoundingBox.html" target="_top" xlink:title="Concrete class describing an orientated (free) or axis aligned box of 8 vertices. ...">
<polygon fill="#ffffff" stroke="#000000" points="546,-390.5 546,-409.5 646,-409.5 646,-390.5 546,-390.5"/>
<text text-anchor="middle" x="596" y="-397.5" font-family="Helvetica,sans-Serif" font-size="10.00" fill="#000000">TGLBoundingBox</text>
</a>
</g>
</g>
<!-- Node41&#45;&gt;Node33 -->
<g id="edge43" class="edge">
<title>Node41&#45;&gt;Node33</title>
<path fill="none" stroke="#9a32cd" stroke-dasharray="5,2" d="M611.1827,-382.4744C624.4055,-367.6921 644.4692,-346.3854 664,-330 705.8552,-294.8856 760.7946,-260.647 787.7101,-244.5482"/>
<polygon fill="#9a32cd" stroke="#9a32cd" points="608.2362,-380.5237 604.2435,-390.3374 613.4847,-385.1555 608.2362,-380.5237"/>
<text text-anchor="middle" x="700" y="-333" font-family="Helvetica,sans-Serif" font-size="10.00" fill="#000000"> fBoundingBox</text>
</g>
<!-- Node41&#45;&gt;Node35 -->
<g id="edge21" class="edge">
<title>Node41&#45;&gt;Node35</title>
<path fill="none" stroke="#9a32cd" stroke-dasharray="5,2" d="M656.6986,-401.6385C789.8368,-404.5721 1117.3904,-408.1822 1390,-382 1429.4935,-378.2069 1439.4062,-376.2001 1478,-367 1503.0436,-361.03 1530.9878,-352.2322 1551.0402,-345.5326"/>
<polygon fill="#9a32cd" stroke="#9a32cd" points="656.3917,-398.1307 646.3147,-401.4023 656.2324,-405.1289 656.3917,-398.1307"/>
<text text-anchor="middle" x="1038" y="-405" font-family="Helvetica,sans-Serif" font-size="10.00" fill="#000000"> fBoundingBox</text>
</g>
<!-- Node41&#45;&gt;Node38 -->
<g id="edge11" class="edge">
<title>Node41&#45;&gt;Node38</title>
<path fill="none" stroke="#9a32cd" stroke-dasharray="5,2" d="M645.6388,-388.0476C713.1898,-371.7429 837.8234,-341.5207 944,-315 962.7921,-310.3061 983.6696,-304.9863 1000.9667,-300.5501"/>
<polygon fill="#9a32cd" stroke="#9a32cd" points="644.5974,-384.6984 635.6972,-390.4462 646.2392,-391.5031 644.5974,-384.6984"/>
<text text-anchor="middle" x="804" y="-364" font-family="Helvetica,sans-Serif" font-size="10.00" fill="#000000"> fBoundingBox</text>
</g>
<!-- Node42 -->
<g id="node10" class="node">
<title>Node42</title>
<g id="a_node10"><a xlink:href="classTGLVertex3.html" target="_top" xlink:title="3 component (x/y/z) vertex class. ">
<polygon fill="#ffffff" stroke="#000000" points="180,-490.5 180,-509.5 252,-509.5 252,-490.5 180,-490.5"/>
<text text-anchor="middle" x="216" y="-497.5" font-family="Helvetica,sans-Serif" font-size="10.00" fill="#000000">TGLVertex3</text>
</a>
</g>
</g>
<!-- Node42&#45;&gt;Node41 -->
<g id="edge12" class="edge">
<title>Node42&#45;&gt;Node41</title>
<path fill="none" stroke="#9a32cd" stroke-dasharray="5,2" d="M262.1149,-506.687C325.6681,-513.6808 442.0587,-518.3546 528,-475 557.6583,-460.0383 580.5883,-426.2891 590.5592,-409.6483"/>
<polygon fill="#9a32cd" stroke="#9a32cd" points="262.3453,-503.1902 252.0065,-505.5053 261.5324,-510.1428 262.3453,-503.1902"/>
<text text-anchor="middle" x="367" y="-514" font-family="Helvetica,sans-Serif" font-size="10.00" fill="#000000"> fVertex</text>
</g>
<!-- Node43 -->
<g id="node11" class="node">
<title>Node43</title>
<g id="a_node11"><a xlink:href="classTGLVector3.html" target="_top" xlink:title="3 component (x/y/z) vector class. ">
<polygon fill="#ffffff" stroke="#000000" points="331.5,-457.5 331.5,-476.5 402.5,-476.5 402.5,-457.5 331.5,-457.5"/>
<text text-anchor="middle" x="367" y="-464.5" font-family="Helvetica,sans-Serif" font-size="10.00" fill="#000000">TGLVector3</text>
</a>
</g>
</g>
<!-- Node42&#45;&gt;Node43 -->
<g id="edge14" class="edge">
<title>Node42&#45;&gt;Node43</title>
<path fill="none" stroke="#191970" d="M262.0826,-489.929C284.3567,-485.0611 310.6801,-479.3083 331.3877,-474.7828"/>
<polygon fill="#191970" stroke="#191970" points="261.1904,-486.5413 252.1683,-492.0957 262.685,-493.3799 261.1904,-486.5413"/>
</g>
<!-- Node43&#45;&gt;Node41 -->
<g id="edge13" class="edge">
<title>Node43&#45;&gt;Node41</title>
<path fill="none" stroke="#9a32cd" stroke-dasharray="5,2" d="M409.4575,-454.5779C453.9249,-441.5678 522.8073,-421.4145 563.2507,-409.5817"/>
<polygon fill="#9a32cd" stroke="#9a32cd" points="408.4249,-451.2332 399.8101,-457.4005 410.3906,-457.9516 408.4249,-451.2332"/>
<text text-anchor="middle" x="476.5" y="-463" font-family="Helvetica,sans-Serif" font-size="10.00" fill="#000000"> fAxes</text>
<text text-anchor="middle" x="476.5" y="-452" font-family="Helvetica,sans-Serif" font-size="10.00" fill="#000000">fAxesNorm</text>
</g>
<!-- Node44 -->
<g id="node12" class="node">
<title>Node44</title>
<g id="a_node12"><a xlink:href="classTString.html" target="_top" xlink:title="Basic string class. ">
<polygon fill="#ffffff" stroke="#000000" points="341.5,-336.5 341.5,-355.5 392.5,-355.5 392.5,-336.5 341.5,-336.5"/>
<text text-anchor="middle" x="367" y="-343.5" font-family="Helvetica,sans-Serif" font-size="10.00" fill="#000000">TString</text>
</a>
</g>
</g>
<!-- Node44&#45;&gt;Node35 -->
<g id="edge16" class="edge">
<title>Node44&#45;&gt;Node35</title>
<path fill="none" stroke="#9a32cd" stroke-dasharray="5,2" d="M388.6909,-361.4468C428.0143,-387.8875 514.5624,-439 596,-439 596,-439 596,-439 1310.5,-439 1414.1791,-439 1526.3016,-371.0039 1564.7025,-345.5054"/>
<polygon fill="#9a32cd" stroke="#9a32cd" points="390.3971,-358.3728 380.1709,-355.6024 386.4374,-364.1453 390.3971,-358.3728"/>
<text text-anchor="middle" x="908" y="-453" font-family="Helvetica,sans-Serif" font-size="10.00" fill="#000000"> fTitle</text>
<text text-anchor="middle" x="908" y="-442" font-family="Helvetica,sans-Serif" font-size="10.00" fill="#000000">fName</text>
</g>
<!-- Node54 -->
<g id="node22" class="node">
<title>Node54</title>
<g id="a_node22"><a xlink:href="classTCollection.html" target="_top" xlink:title="Collection abstract base class. ">
<polygon fill="#ffffff" stroke="#000000" points="560.5,-71.5 560.5,-90.5 631.5,-90.5 631.5,-71.5 560.5,-71.5"/>
<text text-anchor="middle" x="596" y="-78.5" font-family="Helvetica,sans-Serif" font-size="10.00" fill="#000000">TCollection</text>
</a>
</g>
</g>
<!-- Node44&#45;&gt;Node54 -->
<g id="edge32" class="edge">
<title>Node44&#45;&gt;Node54</title>
<path fill="none" stroke="#9a32cd" stroke-dasharray="5,2" d="M370.878,-326.3821C377.6115,-296.3243 393.8288,-238.2409 425,-199 447.7157,-170.4036 541.4901,-113.2143 579.6928,-90.5599"/>
<polygon fill="#9a32cd" stroke="#9a32cd" points="367.3975,-325.924 368.7503,-336.4321 374.2457,-327.3739 367.3975,-325.924"/>
<text text-anchor="middle" x="476.5" y="-202" font-family="Helvetica,sans-Serif" font-size="10.00" fill="#000000"> fName</text>
</g>
<!-- Node45 -->
<g id="node13" class="node">
<title>Node45</title>
<g id="a_node13"><a xlink:href="structTString_1_1Rep__t.html" target="_top" xlink:title="TString::Rep_t">
<polygon fill="#ffffff" stroke="#000000" points="174,-336.5 174,-355.5 258,-355.5 258,-336.5 174,-336.5"/>
<text text-anchor="middle" x="216" y="-343.5" font-family="Helvetica,sans-Serif" font-size="10.00" fill="#000000">TString::Rep_t</text>
</a>
</g>
</g>
<!-- Node45&#45;&gt;Node44 -->
<g id="edge17" class="edge">
<title>Node45&#45;&gt;Node44</title>
<path fill="none" stroke="#9a32cd" stroke-dasharray="5,2" d="M268.3684,-346C293.0187,-346 321.3105,-346 341.2539,-346"/>
<polygon fill="#9a32cd" stroke="#9a32cd" points="268.062,-342.5001 258.0619,-346 268.0619,-349.5001 268.062,-342.5001"/>
<text text-anchor="middle" x="292.5" y="-349" font-family="Helvetica,sans-Serif" font-size="10.00" fill="#000000"> fRep</text>
</g>
<!-- Node46 -->
<g id="node14" class="node">
<title>Node46</title>
<g id="a_node14"><a xlink:href="structTString_1_1LongStr__t.html" target="_top" xlink:title="TString::LongStr_t">
<polygon fill="#ffffff" stroke="#000000" points="1,-374.5 1,-393.5 104,-393.5 104,-374.5 1,-374.5"/>
<text text-anchor="middle" x="52.5" y="-381.5" font-family="Helvetica,sans-Serif" font-size="10.00" fill="#000000">TString::LongStr_t</text>
</a>
</g>
</g>
<!-- Node46&#45;&gt;Node45 -->
<g id="edge18" class="edge">
<title>Node46&#45;&gt;Node45</title>
<path fill="none" stroke="#9a32cd" stroke-dasharray="5,2" d="M106.8123,-372.2124C122.687,-368.6909 140.0552,-364.764 156,-361 163.315,-359.2732 171.1157,-357.3692 178.5896,-355.514"/>
<polygon fill="#9a32cd" stroke="#9a32cd" points="105.6358,-368.8878 96.626,-374.4622 107.1456,-375.7231 105.6358,-368.8878"/>
<text text-anchor="middle" x="139.5" y="-371" font-family="Helvetica,sans-Serif" font-size="10.00" fill="#000000"> fLong</text>
</g>
<!-- Node47 -->
<g id="node15" class="node">
<title>Node47</title>
<g id="a_node15"><a xlink:href="structTString_1_1RawStr__t.html" target="_top" xlink:title="TString::RawStr_t">
<polygon fill="#ffffff" stroke="#000000" points="2,-336.5 2,-355.5 103,-355.5 103,-336.5 2,-336.5"/>
<text text-anchor="middle" x="52.5" y="-343.5" font-family="Helvetica,sans-Serif" font-size="10.00" fill="#000000">TString::RawStr_t</text>
</a>
</g>
</g>
<!-- Node47&#45;&gt;Node45 -->
<g id="edge19" class="edge">
<title>Node47&#45;&gt;Node45</title>
<path fill="none" stroke="#9a32cd" stroke-dasharray="5,2" d="M113.38,-346C133.5543,-346 155.5459,-346 173.9777,-346"/>
<polygon fill="#9a32cd" stroke="#9a32cd" points="113.3362,-342.5001 103.3362,-346 113.3361,-349.5001 113.3362,-342.5001"/>
<text text-anchor="middle" x="139.5" y="-349" font-family="Helvetica,sans-Serif" font-size="10.00" fill="#000000"> fRaw</text>
</g>
<!-- Node48 -->
<g id="node16" class="node">
<title>Node48</title>
<g id="a_node16"><a xlink:href="structTString_1_1ShortStr__t.html" target="_top" xlink:title="TString::ShortStr_t">
<polygon fill="#ffffff" stroke="#000000" points="0,-298.5 0,-317.5 105,-317.5 105,-298.5 0,-298.5"/>
<text text-anchor="middle" x="52.5" y="-305.5" font-family="Helvetica,sans-Serif" font-size="10.00" fill="#000000">TString::ShortStr_t</text>
</a>
</g>
</g>
<!-- Node48&#45;&gt;Node45 -->
<g id="edge20" class="edge">
<title>Node48&#45;&gt;Node45</title>
<path fill="none" stroke="#9a32cd" stroke-dasharray="5,2" d="M106.8123,-319.7876C122.687,-323.3091 140.0552,-327.236 156,-331 163.315,-332.7268 171.1157,-334.6308 178.5896,-336.486"/>
<polygon fill="#9a32cd" stroke="#9a32cd" points="107.1456,-316.2769 96.626,-317.5378 105.6358,-323.1122 107.1456,-316.2769"/>
<text text-anchor="middle" x="139.5" y="-334" font-family="Helvetica,sans-Serif" font-size="10.00" fill="#000000"> fShort</text>
</g>
<!-- Node49 -->
<g id="node17" class="node">
<title>Node49</title>
<polygon fill="#ffffff" stroke="#bfbfbf" points="1231,-353.5 1231,-372.5 1390,-372.5 1390,-353.5 1231,-353.5"/>
<text text-anchor="middle" x="1310.5" y="-360.5" font-family="Helvetica,sans-Serif" font-size="10.00" fill="#000000">std::list&lt; TGLViewerBase * &gt;</text>
</g>
<!-- Node49&#45;&gt;Node35 -->
<g id="edge22" class="edge">
<title>Node49&#45;&gt;Node35</title>
<path fill="none" stroke="#9a32cd" stroke-dasharray="5,2" d="M1400.2258,-353.9605C1445.0965,-349.4399 1497.4291,-344.1676 1533.7371,-340.5097"/>
<polygon fill="#9a32cd" stroke="#9a32cd" points="1399.782,-350.4874 1390.1832,-354.9722 1400.4837,-357.4521 1399.782,-350.4874"/>
<text text-anchor="middle" x="1443" y="-355" font-family="Helvetica,sans-Serif" font-size="10.00" fill="#000000"> fViewers</text>
</g>
<!-- Node50 -->
<g id="node18" class="node">
<title>Node50</title>
<g id="a_node18"><a xlink:href="classTGLContextIdentity.html" target="_top" xlink:title="Identifier of a shared GL&#45;context. ">
<polygon fill="#ffffff" stroke="#000000" points="1523,-104.5 1523,-123.5 1634,-123.5 1634,-104.5 1523,-104.5"/>
<text text-anchor="middle" x="1578.5" y="-111.5" font-family="Helvetica,sans-Serif" font-size="10.00" fill="#000000">TGLContextIdentity</text>
</a>
</g>
</g>
<!-- Node50&#45;&gt;Node34 -->
<g id="edge23" class="edge">
<title>Node50&#45;&gt;Node34</title>
<path fill="none" stroke="#9a32cd" stroke-dasharray="5,2" d="M1644.3041,-114C1694.2021,-114 1760.6625,-114 1799.7886,-114"/>
<polygon fill="#9a32cd" stroke="#9a32cd" points="1644.2414,-110.5001 1634.2414,-114 1644.2413,-117.5001 1644.2414,-110.5001"/>
<text text-anchor="middle" x="1730.5" y="-117" font-family="Helvetica,sans-Serif" font-size="10.00" fill="#000000"> fGLCtxIdentity</text>
</g>
<!-- Node50&#45;&gt;Node50 -->
<g id="edge38" class="edge">
<title>Node50&#45;&gt;Node50</title>
<path fill="none" stroke="#9a32cd" stroke-dasharray="5,2" d="M1553.5745,-133.0292C1554.9341,-138.128 1563.2426,-142 1578.5,-142 1602.3164,-142 1609.2008,-132.5653 1599.1533,-123.7571"/>
<polygon fill="#9a32cd" stroke="#9a32cd" points="1556.8407,-134.304 1557.8467,-123.7571 1550.4831,-131.3747 1556.8407,-134.304"/>
<text text-anchor="middle" x="1578.5" y="-145" font-family="Helvetica,sans-Serif" font-size="10.00" fill="#000000"> fgDefaultIdentity</text>
</g>
<!-- Node51 -->
<g id="node19" class="node">
<title>Node51</title>
<g id="a_node19"><a xlink:href="classTGLFontManager.html" target="_top" xlink:title="A FreeType GL font manager. ">
<polygon fill="#ffffff" stroke="#000000" points="1261.5,-49.5 1261.5,-68.5 1359.5,-68.5 1359.5,-49.5 1261.5,-49.5"/>
<text text-anchor="middle" x="1310.5" y="-56.5" font-family="Helvetica,sans-Serif" font-size="10.00" fill="#000000">TGLFontManager</text>
</a>
</g>
</g>
<!-- Node51&#45;&gt;Node50 -->
<g id="edge24" class="edge">
<title>Node51&#45;&gt;Node50</title>
<path fill="none" stroke="#9a32cd" stroke-dasharray="5,2" d="M1369.8778,-62.6505C1402.4683,-65.938 1443.2095,-72.1755 1478,-84 1486.6649,-86.945 1487.4758,-90.6696 1496,-94 1506.57,-98.1297 1518.2452,-101.5846 1529.4045,-104.3969"/>
<polygon fill="#9a32cd" stroke="#9a32cd" points="1369.8847,-59.1358 1359.6008,-61.6835 1369.2289,-66.105 1369.8847,-59.1358"/>
<text text-anchor="middle" x="1443" y="-87" font-family="Helvetica,sans-Serif" font-size="10.00" fill="#000000"> fFontManager</text>
</g>
<!-- Node52 -->
<g id="node20" class="node">
<title>Node52</title>
<g id="a_node20"><a xlink:href="classTObjArray.html" target="_top" xlink:title="An array of TObjects. ">
<polygon fill="#ffffff" stroke="#000000" points="1005.5,-126.5 1005.5,-145.5 1070.5,-145.5 1070.5,-126.5 1005.5,-126.5"/>
<text text-anchor="middle" x="1038" y="-133.5" font-family="Helvetica,sans-Serif" font-size="10.00" fill="#000000">TObjArray</text>
</a>
</g>
</g>
<!-- Node52&#45;&gt;Node51 -->
<g id="edge25" class="edge">
<title>Node52&#45;&gt;Node51</title>
<path fill="none" stroke="#9a32cd" stroke-dasharray="5,2" d="M1080.6018,-134.6001C1117.8569,-131.6782 1172.2273,-123.1787 1213,-99 1223.5734,-92.7299 1220.5098,-84.4083 1231,-78 1240.0825,-72.4517 1250.6667,-68.5236 1261.0933,-65.7425"/>
<polygon fill="#9a32cd" stroke="#9a32cd" points="1080.3117,-131.1117 1070.5733,-135.2848 1080.7885,-138.0954 1080.3117,-131.1117"/>
<text text-anchor="middle" x="1172.5" y="-130" font-family="Helvetica,sans-Serif" font-size="10.00" fill="#000000"> fgFontFileArray</text>
</g>
<!-- Node53 -->
<g id="node21" class="node">
<title>Node53</title>
<g id="a_node21"><a xlink:href="classTSeqCollection.html" target="_top" xlink:title="Sequenceable collection abstract base class. ">
<polygon fill="#ffffff" stroke="#000000" points="759.5,-99.5 759.5,-118.5 848.5,-118.5 848.5,-99.5 759.5,-99.5"/>
<text text-anchor="middle" x="804" y="-106.5" font-family="Helvetica,sans-Serif" font-size="10.00" fill="#000000">TSeqCollection</text>
</a>
</g>
</g>
<!-- Node53&#45;&gt;Node52 -->
<g id="edge26" class="edge">
<title>Node53&#45;&gt;Node52</title>
<path fill="none" stroke="#191970" d="M858.5571,-115.295C904.0269,-120.5416 967.2936,-127.8416 1005.2872,-132.2255"/>
<polygon fill="#191970" stroke="#191970" points="858.8997,-111.8114 848.5644,-114.142 858.0973,-118.7653 858.8997,-111.8114"/>
</g>
<!-- Node54&#45;&gt;Node53 -->
<g id="edge27" class="edge">
<title>Node54&#45;&gt;Node53</title>
<path fill="none" stroke="#191970" d="M641.7036,-87.1524C676.6595,-91.858 724.5946,-98.3108 759.299,-102.9826"/>
<polygon fill="#191970" stroke="#191970" points="642.1341,-83.6789 631.7565,-85.8134 641.2001,-90.6163 642.1341,-83.6789"/>
</g>
<!-- Node54&#45;&gt;Node54 -->
<g id="edge33" class="edge">
<title>Node54&#45;&gt;Node54</title>
<path fill="none" stroke="#9a32cd" stroke-dasharray="5,2" d="M576.7417,-100.4C578.0278,-105.3146 584.4473,-109 596,-109 614.4844,-109 619.8275,-99.5653 612.0294,-90.7571"/>
<polygon fill="#9a32cd" stroke="#9a32cd" points="580.1142,-101.3509 579.9706,-90.7571 573.4765,-99.1283 580.1142,-101.3509"/>
<text text-anchor="middle" x="596" y="-112" font-family="Helvetica,sans-Serif" font-size="10.00" fill="#000000"> fgCurrentCollection</text>
</g>
<!-- Node55 -->
<g id="node23" class="node">
<title>Node55</title>
<g id="a_node23"><a xlink:href="classTObject.html" target="_top" xlink:title="Mother of all ROOT objects. ">
<polygon fill="#ffffff" stroke="#000000" points="189,-121.5 189,-140.5 243,-140.5 243,-121.5 189,-121.5"/>
<text text-anchor="middle" x="216" y="-128.5" font-family="Helvetica,sans-Serif" font-size="10.00" fill="#000000">TObject</text>
</a>
</g>
</g>
<!-- Node55&#45;&gt;Node33 -->
<g id="edge44" class="edge">
<title>Node55&#45;&gt;Node33</title>
<path fill="none" stroke="#9a32cd" stroke-dasharray="5,2" d="M236.4295,-146.5859C247.6244,-154.518 262.032,-163.7736 276,-170 338.6266,-197.9166 357.3538,-198.8006 425,-210 541.7756,-229.3332 681.124,-233.8456 753.9786,-234.8161"/>
<polygon fill="#9a32cd" stroke="#9a32cd" points="238.3519,-143.656 228.2099,-140.5915 234.2272,-149.3117 238.3519,-143.656"/>
<text text-anchor="middle" x="476.5" y="-226" font-family="Helvetica,sans-Serif" font-size="10.00" fill="#000000"> fExternalObj</text>
</g>
<!-- Node55&#45;&gt;Node52 -->
<g id="edge34" class="edge">
<title>Node55&#45;&gt;Node52</title>
<path fill="none" stroke="#9a32cd" stroke-dasharray="5,2" d="M252.8016,-140.5596C283.2045,-147.6169 327.6089,-156 367,-156 367,-156 367,-156 804,-156 875.9645,-156 959.9276,-146.4931 1005.1363,-140.5884"/>
<polygon fill="#9a32cd" stroke="#9a32cd" points="253.5949,-137.1507 243.0553,-138.231 251.9683,-143.959 253.5949,-137.1507"/>
<text text-anchor="middle" x="596" y="-159" font-family="Helvetica,sans-Serif" font-size="10.00" fill="#000000"> fCont</text>
</g>
<!-- Node55&#45;&gt;Node54 -->
<g id="edge28" class="edge">
<title>Node55&#45;&gt;Node54</title>
<path fill="none" stroke="#191970" d="M238.8932,-115.8141C249.7189,-109.3258 263.0809,-102.2759 276,-98 374.7664,-65.3112 499.9883,-71.3077 560.3157,-76.915"/>
<polygon fill="#191970" stroke="#191970" points="236.7443,-113.0291 230.1074,-121.2875 240.4458,-118.9705 236.7443,-113.0291"/>
</g>
<!-- Node56 -->
<g id="node24" class="node">
<title>Node56</title>
<g id="a_node24"><a xlink:href="classTObjectTable.html" target="_top" xlink:title="This class registers all instances of TObject and its derived classes in a hash table. ">
<polygon fill="#ffffff" stroke="#000000" points="327,-100.5 327,-119.5 407,-119.5 407,-100.5 327,-100.5"/>
<text text-anchor="middle" x="367" y="-107.5" font-family="Helvetica,sans-Serif" font-size="10.00" fill="#000000">TObjectTable</text>
</a>
</g>
</g>
<!-- Node55&#45;&gt;Node56 -->
<g id="edge30" class="edge">
<title>Node55&#45;&gt;Node56</title>
<path fill="none" stroke="#191970" d="M253.4387,-125.7933C275.7291,-122.6933 304.0135,-118.7597 326.778,-115.5938"/>
<polygon fill="#191970" stroke="#191970" points="252.7675,-122.3529 243.345,-127.1971 253.7318,-129.2861 252.7675,-122.3529"/>
</g>
<!-- Node55&#45;&gt;Node56 -->
<g id="edge31" class="edge">
<title>Node55&#45;&gt;Node56</title>
<path fill="none" stroke="#9a32cd" stroke-dasharray="5,2" d="M241.117,-116.8411C251.5637,-111.7206 264.0289,-106.5694 276,-104 292.4092,-100.478 310.8312,-100.9014 326.786,-102.6067"/>
<polygon fill="#9a32cd" stroke="#9a32cd" points="239.4453,-113.7651 232.1625,-121.46 242.6543,-119.9863 239.4453,-113.7651"/>
<text text-anchor="middle" x="292.5" y="-107" font-family="Helvetica,sans-Serif" font-size="10.00" fill="#000000"> fTable</text>
</g>
<!-- Node56&#45;&gt;Node54 -->
<g id="edge29" class="edge">
<title>Node56&#45;&gt;Node54</title>
<path fill="none" stroke="#9a32cd" stroke-dasharray="5,2" d="M417.1972,-103.6431C460.5143,-98.1576 522.0009,-90.3711 560.4141,-85.5065"/>
<polygon fill="#9a32cd" stroke="#9a32cd" points="416.6318,-100.1867 407.1508,-104.9154 417.5113,-107.1312 416.6318,-100.1867"/>
<text text-anchor="middle" x="476.5" y="-106" font-family="Helvetica,sans-Serif" font-size="10.00" fill="#000000"> fgGarbageCollection</text>
</g>
<!-- Node57 -->
<g id="node25" class="node">
<title>Node57</title>
<polygon fill="#ffffff" stroke="#bfbfbf" points="962,-88.5 962,-107.5 1114,-107.5 1114,-88.5 962,-88.5"/>
<text text-anchor="middle" x="1038" y="-95.5" font-family="Helvetica,sans-Serif" font-size="10.00" fill="#000000">std::list&lt; const TGLFont * &gt;</text>
</g>
<!-- Node57&#45;&gt;Node51 -->
<g id="edge35" class="edge">
<title>Node57&#45;&gt;Node51</title>
<path fill="none" stroke="#9a32cd" stroke-dasharray="5,2" d="M1115.0438,-87.0059C1145.5492,-82.6496 1180.9285,-77.5934 1213,-73 1228.743,-70.7452 1245.9151,-68.2811 1261.4004,-66.0572"/>
<polygon fill="#9a32cd" stroke="#9a32cd" points="1114.302,-83.5762 1104.8972,-88.4547 1115.2915,-90.506 1114.302,-83.5762"/>
<text text-anchor="middle" x="1172.5" y="-87" font-family="Helvetica,sans-Serif" font-size="10.00" fill="#000000"> fFontTrash</text>
</g>
<!-- Node58 -->
<g id="node26" class="node">
<title>Node58</title>
<polygon fill="#ffffff" stroke="#bfbfbf" points="981.5,-39 981.5,-69 1094.5,-69 1094.5,-39 981.5,-39"/>
<text text-anchor="start" x="989.5" y="-57" font-family="Helvetica,sans-Serif" font-size="10.00" fill="#000000">std::map&lt; TGLFont,</text>
<text text-anchor="middle" x="1038" y="-46" font-family="Helvetica,sans-Serif" font-size="10.00" fill="#000000"> Int_t &gt;</text>
</g>
<!-- Node58&#45;&gt;Node51 -->
<g id="edge36" class="edge">
<title>Node58&#45;&gt;Node51</title>
<path fill="none" stroke="#9a32cd" stroke-dasharray="5,2" d="M1104.8489,-55.2266C1153.1634,-56.1131 1217.3618,-57.291 1261.0937,-58.0935"/>
<polygon fill="#9a32cd" stroke="#9a32cd" points="1104.8558,-51.7262 1094.7932,-55.0421 1104.7273,-58.725 1104.8558,-51.7262"/>
<text text-anchor="middle" x="1172.5" y="-61" font-family="Helvetica,sans-Serif" font-size="10.00" fill="#000000"> fFontMap</text>
</g>
<!-- Node59 -->
<g id="node27" class="node">
<title>Node59</title>
<polygon fill="#ffffff" stroke="#bfbfbf" points="981.5,-.5 981.5,-19.5 1094.5,-19.5 1094.5,-.5 981.5,-.5"/>
<text text-anchor="middle" x="1038" y="-7.5" font-family="Helvetica,sans-Serif" font-size="10.00" fill="#000000">std::vector&lt; Int_t &gt;</text>
</g>
<!-- Node59&#45;&gt;Node51 -->
<g id="edge37" class="edge">
<title>Node59&#45;&gt;Node51</title>
<path fill="none" stroke="#9a32cd" stroke-dasharray="5,2" d="M1102.4062,-21.2943C1135.4752,-27.1224 1176.404,-34.3806 1213,-41 1228.7526,-43.8493 1245.9273,-47.0039 1261.412,-49.866"/>
<polygon fill="#9a32cd" stroke="#9a32cd" points="1102.8647,-17.8213 1092.4092,-19.5338 1101.6506,-24.7152 1102.8647,-17.8213"/>
<text text-anchor="middle" x="1172.5" y="-44" font-family="Helvetica,sans-Serif" font-size="10.00" fill="#000000"> fgFontSizeArray</text>
</g>
<!-- Node60 -->
<g id="node28" class="node">
<title>Node60</title>
<polygon fill="#ffffff" stroke="#bfbfbf" points="1246.5,-125.5 1246.5,-144.5 1374.5,-144.5 1374.5,-125.5 1246.5,-125.5"/>
<text text-anchor="middle" x="1310.5" y="-132.5" font-family="Helvetica,sans-Serif" font-size="10.00" fill="#000000">std::list&lt; DLRange_t &gt;</text>
</g>
<!-- Node60&#45;&gt;Node50 -->
<g id="edge39" class="edge">
<title>Node60&#45;&gt;Node50</title>
<path fill="none" stroke="#9a32cd" stroke-dasharray="5,2" d="M1384.7143,-129.1847C1428.4844,-125.755 1482.9597,-121.4864 1522.9956,-118.3492"/>
<polygon fill="#9a32cd" stroke="#9a32cd" points="1384.3887,-125.6994 1374.6927,-129.97 1384.9356,-132.678 1384.3887,-125.6994"/>
<text text-anchor="middle" x="1443" y="-130" font-family="Helvetica,sans-Serif" font-size="10.00" fill="#000000"> fDLTrash</text>
</g>
<!-- Node61 -->
<g id="node29" class="node">
<title>Node61</title>
<polygon fill="#ffffff" stroke="#bfbfbf" points="1240.5,-87.5 1240.5,-106.5 1380.5,-106.5 1380.5,-87.5 1240.5,-87.5"/>
<text text-anchor="middle" x="1310.5" y="-94.5" font-family="Helvetica,sans-Serif" font-size="10.00" fill="#000000">std::list&lt; TGLContext * &gt;</text>
</g>
<!-- Node61&#45;&gt;Node50 -->
<g id="edge40" class="edge">
<title>Node61&#45;&gt;Node50</title>
<path fill="none" stroke="#9a32cd" stroke-dasharray="5,2" d="M1390.6895,-97.9436C1418.3775,-98.6542 1449.5769,-99.8831 1478,-102 1492.5444,-103.0832 1508.2219,-104.7255 1522.7691,-106.4504"/>
<polygon fill="#9a32cd" stroke="#9a32cd" points="1390.7397,-94.4439 1380.6592,-97.7046 1390.5729,-101.4419 1390.7397,-94.4439"/>
<text text-anchor="middle" x="1443" y="-105" font-family="Helvetica,sans-Serif" font-size="10.00" fill="#000000"> fCtxs</text>
</g>
<!-- Node62 -->
<g id="node30" class="node">
<title>Node62</title>
<polygon fill="#ffffff" stroke="#bfbfbf" points="1496,-55 1496,-85 1661,-85 1661,-55 1496,-55"/>
<text text-anchor="start" x="1504" y="-73" font-family="Helvetica,sans-Serif" font-size="10.00" fill="#000000">std::map&lt; UInt_t, TGLPhysical</text>
<text text-anchor="middle" x="1578.5" y="-62" font-family="Helvetica,sans-Serif" font-size="10.00" fill="#000000">Shape * &gt;</text>
</g>
<!-- Node62&#45;&gt;Node34 -->
<g id="edge41" class="edge">
<title>Node62&#45;&gt;Node34</title>
<path fill="none" stroke="#9a32cd" stroke-dasharray="5,2" d="M1671.3552,-80.3058C1706.2518,-84.9441 1746.1431,-91.1644 1782,-99 1788.88,-100.5034 1796.19,-102.4595 1803.0488,-104.4599"/>
<polygon fill="#9a32cd" stroke="#9a32cd" points="1671.5443,-76.8009 1661.1756,-78.9784 1670.6391,-83.7421 1671.5443,-76.8009"/>
<text text-anchor="middle" x="1730.5" y="-102" font-family="Helvetica,sans-Serif" font-size="10.00" fill="#000000"> fPhysicalShapes</text>
</g>
<!-- Node63 -->
<g id="node31" class="node">
<title>Node63</title>
<polygon fill="#ffffff" stroke="#bfbfbf" points="1517.5,-6 1517.5,-36 1639.5,-36 1639.5,-6 1517.5,-6"/>
<text text-anchor="start" x="1525.5" y="-24" font-family="Helvetica,sans-Serif" font-size="10.00" fill="#000000">std::map&lt; TObject *,</text>
<text text-anchor="middle" x="1578.5" y="-13" font-family="Helvetica,sans-Serif" font-size="10.00" fill="#000000"> TGLLogicalShape * &gt;</text>
</g>
<!-- Node63&#45;&gt;Node34 -->
<g id="edge42" class="edge">
<title>Node63&#45;&gt;Node34</title>
<path fill="none" stroke="#9a32cd" stroke-dasharray="5,2" d="M1650.12,-21.6182C1691.0194,-24.7354 1741.9623,-33.4799 1782,-56 1802.7137,-67.6509 1819.0371,-91.1404 1827.0612,-104.3727"/>
<polygon fill="#9a32cd" stroke="#9a32cd" points="1650.1612,-18.1133 1639.951,-20.942 1649.6967,-25.0979 1650.1612,-18.1133"/>
<text text-anchor="middle" x="1730.5" y="-70" font-family="Helvetica,sans-Serif" font-size="10.00" fill="#000000"> fSmartRefreshCache</text>
<text text-anchor="middle" x="1730.5" y="-59" font-family="Helvetica,sans-Serif" font-size="10.00" fill="#000000">fLogicalShapes</text>
</g>
</g>
</svg>
