<?xml version="1.0" encoding="UTF-8" standalone="no"?>
<!DOCTYPE svg PUBLIC "-//W3C//DTD SVG 1.1//EN"
 "http://www.w3.org/Graphics/SVG/1.1/DTD/svg11.dtd">
<!-- Generated by graphviz version 2.40.1 (0)
 -->
<!-- Title: RooAbsCachedPdf::AnaIntConfig Pages: 1 -->
<!--zoomable 464 -->
<svg id="main" version="1.1" xmlns="http://www.w3.org/2000/svg" xmlns:xlink="http://www.w3.org/1999/xlink" xml:space="preserve" onload="init(evt)">
<style type="text/css"><![CDATA[
.edge:hover path { stroke: red; }
.edge:hover polygon { stroke: red; fill: red; }
]]></style>
<script type="text/javascript"><![CDATA[
var edges = document.getElementsByTagName('g');
if (edges && edges.length) {
  for (var i=0;i<edges.length;i++) {
    if (edges[i].id.substr(0,4)=='edge') {
      edges[i].setAttribute('class','edge');
    }
  }
}
]]></script>
        <defs>
                <circle id="rim" cx="0" cy="0" r="7"/>
                <circle id="rim2" cx="0" cy="0" r="3.5"/>
                <g id="zoomPlus">
                        <use xlink:href="#rim" fill="#404040">
                                <set attributeName="fill" to="#808080" begin="zoomplus.mouseover" end="zoomplus.mouseout"/>
                        </use>
                        <path d="M-4,0h8M0,-4v8" fill="none" stroke="white" stroke-width="1.5" pointer-events="none"/>
                </g>
                <g id="zoomMin">
                        <use xlink:href="#rim" fill="#404040">
                                <set attributeName="fill" to="#808080" begin="zoomminus.mouseover" end="zoomminus.mouseout"/>
                        </use>
                        <path d="M-4,0h8" fill="none" stroke="white" stroke-width="1.5" pointer-events="none"/>
                </g>
                <g id="dirArrow">
                        <path fill="none" stroke="white" stroke-width="1.5" d="M0,-3.0v7 M-2.5,-0.5L0,-3.0L2.5,-0.5"/>
                </g>
               <g id="resetDef">
                       <use xlink:href="#rim2" fill="#404040">
                               <set attributeName="fill" to="#808080" begin="reset.mouseover" end="reset.mouseout"/>
                       </use>
               </g>
        </defs>

<script type="text/javascript">
var viewWidth = 510;
var viewHeight = 464;
var sectionId = 'dynsection-0';
</script>
<script xlink:href="svgpan.js"/>
<svg id="graph" class="graph">
<g id="viewport">
<title>RooAbsCachedPdf::AnaIntConfig</title>
<polygon fill="#ffffff" stroke="transparent" points="-4,4 -4,-460 505.5,-460 505.5,4 -4,4"/>
<!-- Node1 -->
<g id="node1" class="node">
<title>Node1</title>
<polygon fill="#bfbfbf" stroke="#000000" points="112,-.5 112,-19.5 285,-19.5 285,-.5 112,-.5"/>
<text text-anchor="middle" x="198.5" y="-7.5" font-family="Helvetica,sans-Serif" font-size="10.00" fill="#000000">RooAbsCachedPdf::AnaIntConfig</text>
</g>
<!-- Node2 -->
<g id="node2" class="node">
<title>Node2</title>
<g id="a_node2"><a xlink:href="classRooArgSet.html" target="_top" xlink:title="RooArgSet is a container object that can hold multiple RooAbsArg objects. ">
<polygon fill="#ffffff" stroke="#000000" points="165,-89.5 165,-108.5 232,-108.5 232,-89.5 165,-89.5"/>
<text text-anchor="middle" x="198.5" y="-96.5" font-family="Helvetica,sans-Serif" font-size="10.00" fill="#000000">RooArgSet</text>
</a>
</g>
</g>
<!-- Node2&#45;&gt;Node1 -->
<g id="edge1" class="edge">
<title>Node2&#45;&gt;Node1</title>
<path fill="none" stroke="#9a32cd" stroke-dasharray="5,2" d="M198.5,-79.2379C198.5,-60.7654 198.5,-33.957 198.5,-19.7259"/>
<polygon fill="#9a32cd" stroke="#9a32cd" points="195.0001,-79.4754 198.5,-89.4754 202.0001,-79.4755 195.0001,-79.4754"/>
<text text-anchor="middle" x="222.5" y="-63" font-family="Helvetica,sans-Serif" font-size="10.00" fill="#000000"> _anaVars</text>
<text text-anchor="middle" x="222.5" y="-52" font-family="Helvetica,sans-Serif" font-size="10.00" fill="#000000">_nset</text>
<text text-anchor="middle" x="222.5" y="-41" font-family="Helvetica,sans-Serif" font-size="10.00" fill="#000000">_allVars</text>
</g>
<!-- Node3 -->
<g id="node3" class="node">
<title>Node3</title>
<g id="a_node3"><a xlink:href="classRooAbsCollection.html" target="_top" xlink:title="RooAbsCollection is an abstract container object that can hold multiple RooAbsArg objects...">
<polygon fill="#ffffff" stroke="#000000" points="148,-146.5 148,-165.5 249,-165.5 249,-146.5 148,-146.5"/>
<text text-anchor="middle" x="198.5" y="-153.5" font-family="Helvetica,sans-Serif" font-size="10.00" fill="#000000">RooAbsCollection</text>
</a>
</g>
</g>
<!-- Node3&#45;&gt;Node2 -->
<g id="edge2" class="edge">
<title>Node3&#45;&gt;Node2</title>
<path fill="none" stroke="#191970" d="M198.5,-136.2342C198.5,-126.8491 198.5,-116.0651 198.5,-108.5265"/>
<polygon fill="#191970" stroke="#191970" points="195.0001,-136.3307 198.5,-146.3307 202.0001,-136.3308 195.0001,-136.3307"/>
</g>
<!-- Node4 -->
<g id="node4" class="node">
<title>Node4</title>
<g id="a_node4"><a xlink:href="classTObject.html" target="_top" xlink:title="Mother of all ROOT objects. ">
<polygon fill="#ffffff" stroke="#000000" points="62.5,-302.5 62.5,-321.5 116.5,-321.5 116.5,-302.5 62.5,-302.5"/>
<text text-anchor="middle" x="89.5" y="-309.5" font-family="Helvetica,sans-Serif" font-size="10.00" fill="#000000">TObject</text>
</a>
</g>
</g>
<!-- Node4&#45;&gt;Node3 -->
<g id="edge3" class="edge">
<title>Node4&#45;&gt;Node3</title>
<path fill="none" stroke="#191970" d="M81.059,-292.9094C70.1478,-264.9488 55.6402,-213.0388 83.5,-184 92.6046,-174.5101 121.3546,-167.5101 147.8284,-162.8826"/>
<polygon fill="#191970" stroke="#191970" points="77.9104,-294.4542 84.9689,-302.3554 84.3782,-291.777 77.9104,-294.4542"/>
</g>
<!-- Node7 -->
<g id="node7" class="node">
<title>Node7</title>
<g id="a_node7"><a xlink:href="classTNamed.html" target="_top" xlink:title="The TNamed class is the base class for all named ROOT classes. ">
<polygon fill="#ffffff" stroke="#000000" points="84.5,-224.5 84.5,-243.5 142.5,-243.5 142.5,-224.5 84.5,-224.5"/>
<text text-anchor="middle" x="113.5" y="-231.5" font-family="Helvetica,sans-Serif" font-size="10.00" fill="#000000">TNamed</text>
</a>
</g>
</g>
<!-- Node4&#45;&gt;Node7 -->
<g id="edge7" class="edge">
<title>Node4&#45;&gt;Node7</title>
<path fill="none" stroke="#191970" d="M95.4268,-292.7379C100.2236,-277.1484 106.7785,-255.845 110.5331,-243.6426"/>
<polygon fill="#191970" stroke="#191970" points="92.0386,-291.8485 92.4429,-302.4357 98.729,-293.9072 92.0386,-291.8485"/>
</g>
<!-- Node5 -->
<g id="node5" class="node">
<title>Node5</title>
<g id="a_node5"><a xlink:href="classRooPrintable.html" target="_top" xlink:title="RooPlotable is a &#39;mix&#45;in&#39; base class that define the standard RooFit plotting and printing methods...">
<polygon fill="#ffffff" stroke="#000000" points="253.5,-224.5 253.5,-243.5 331.5,-243.5 331.5,-224.5 253.5,-224.5"/>
<text text-anchor="middle" x="292.5" y="-231.5" font-family="Helvetica,sans-Serif" font-size="10.00" fill="#000000">RooPrintable</text>
</a>
</g>
</g>
<!-- Node5&#45;&gt;Node3 -->
<g id="edge4" class="edge">
<title>Node5&#45;&gt;Node3</title>
<path fill="none" stroke="#191970" d="M273.2371,-218.0159C254.2592,-202.2683 225.8865,-178.7249 210.1205,-165.6426"/>
<polygon fill="#191970" stroke="#191970" points="271.0431,-220.7434 280.9738,-224.4357 275.5131,-215.3564 271.0431,-220.7434"/>
</g>
<!-- Node6 -->
<g id="node6" class="node">
<title>Node6</title>
<polygon fill="#ffffff" stroke="#bfbfbf" points="349.5,-224.5 349.5,-243.5 501.5,-243.5 501.5,-224.5 349.5,-224.5"/>
<text text-anchor="middle" x="425.5" y="-231.5" font-family="Helvetica,sans-Serif" font-size="10.00" fill="#000000">std::vector&lt; RooAbsArg * &gt;</text>
</g>
<!-- Node6&#45;&gt;Node3 -->
<g id="edge5" class="edge">
<title>Node6&#45;&gt;Node3</title>
<path fill="none" stroke="#9a32cd" stroke-dasharray="5,2" d="M388.1647,-221.1711C342.662,-205.5358 266.8327,-179.48 226.2069,-165.5204"/>
<polygon fill="#9a32cd" stroke="#9a32cd" points="387.0707,-224.496 397.6653,-224.4357 389.3455,-217.8759 387.0707,-224.496"/>
<text text-anchor="middle" x="350.5" y="-192.5" font-family="Helvetica,sans-Serif" font-size="10.00" fill="#000000"> _list</text>
</g>
<!-- Node7&#45;&gt;Node3 -->
<g id="edge6" class="edge">
<title>Node7&#45;&gt;Node3</title>
<path fill="none" stroke="#9a32cd" stroke-dasharray="5,2" d="M96.6889,-216.6519C88.9192,-206.5027 82.9166,-193.8001 90.5,-184 97.8495,-174.5021 123.418,-167.636 147.8316,-163.0805"/>
<polygon fill="#9a32cd" stroke="#9a32cd" points="94.2091,-219.1372 103.3715,-224.457 99.5264,-214.5845 94.2091,-219.1372"/>
<text text-anchor="middle" x="137.5" y="-198" font-family="Helvetica,sans-Serif" font-size="10.00" fill="#000000"> _structureTag</text>
<text text-anchor="middle" x="137.5" y="-187" font-family="Helvetica,sans-Serif" font-size="10.00" fill="#000000">_typedStructureTag</text>
</g>
<!-- Node8 -->
<g id="node8" class="node">
<title>Node8</title>
<g id="a_node8"><a xlink:href="classTString.html" target="_top" xlink:title="Basic string class. ">
<polygon fill="#ffffff" stroke="#000000" points="146,-302.5 146,-321.5 197,-321.5 197,-302.5 146,-302.5"/>
<text text-anchor="middle" x="171.5" y="-309.5" font-family="Helvetica,sans-Serif" font-size="10.00" fill="#000000">TString</text>
</a>
</g>
</g>
<!-- Node8&#45;&gt;Node3 -->
<g id="edge13" class="edge">
<title>Node8&#45;&gt;Node3</title>
<path fill="none" stroke="#9a32cd" stroke-dasharray="5,2" d="M181.1702,-293.3502C182.4615,-290.288 183.6358,-287.1009 184.5,-284 196.5032,-240.9319 198.2963,-187.0327 198.5064,-165.5127"/>
<polygon fill="#9a32cd" stroke="#9a32cd" points="177.9787,-291.9122 176.8815,-302.4501 184.3107,-294.8965 177.9787,-291.9122"/>
<text text-anchor="middle" x="214" y="-231.5" font-family="Helvetica,sans-Serif" font-size="10.00" fill="#000000"> _name</text>
</g>
<!-- Node8&#45;&gt;Node7 -->
<g id="edge8" class="edge">
<title>Node8&#45;&gt;Node7</title>
<path fill="none" stroke="#9a32cd" stroke-dasharray="5,2" d="M158.2535,-294.3739C155.6777,-290.9364 153.0014,-287.3577 150.5,-284 140.0486,-269.971 128.008,-253.6749 120.5749,-243.5989"/>
<polygon fill="#9a32cd" stroke="#9a32cd" points="155.491,-296.5239 164.2925,-302.4217 161.0899,-292.3225 155.491,-296.5239"/>
<text text-anchor="middle" x="167.5" y="-276" font-family="Helvetica,sans-Serif" font-size="10.00" fill="#000000"> fTitle</text>
<text text-anchor="middle" x="167.5" y="-265" font-family="Helvetica,sans-Serif" font-size="10.00" fill="#000000">fName</text>
</g>
<!-- Node9 -->
<g id="node9" class="node">
<title>Node9</title>
<g id="a_node9"><a xlink:href="structTString_1_1Rep__t.html" target="_top" xlink:title="TString::Rep_t">
<polygon fill="#ffffff" stroke="#000000" points="129.5,-369.5 129.5,-388.5 213.5,-388.5 213.5,-369.5 129.5,-369.5"/>
<text text-anchor="middle" x="171.5" y="-376.5" font-family="Helvetica,sans-Serif" font-size="10.00" fill="#000000">TString::Rep_t</text>
</a>
</g>
</g>
<!-- Node9&#45;&gt;Node8 -->
<g id="edge9" class="edge">
<title>Node9&#45;&gt;Node8</title>
<path fill="none" stroke="#9a32cd" stroke-dasharray="5,2" d="M171.5,-359.1079C171.5,-346.714 171.5,-331.3263 171.5,-321.5817"/>
<polygon fill="#9a32cd" stroke="#9a32cd" points="168.0001,-359.4005 171.5,-369.4005 175.0001,-359.4006 168.0001,-359.4005"/>
<text text-anchor="middle" x="184" y="-343" font-family="Helvetica,sans-Serif" font-size="10.00" fill="#000000"> fRep</text>
</g>
<!-- Node10 -->
<g id="node10" class="node">
<title>Node10</title>
<g id="a_node10"><a xlink:href="structTString_1_1LongStr__t.html" target="_top" xlink:title="TString::LongStr_t">
<polygon fill="#ffffff" stroke="#000000" points="0,-436.5 0,-455.5 103,-455.5 103,-436.5 0,-436.5"/>
<text text-anchor="middle" x="51.5" y="-443.5" font-family="Helvetica,sans-Serif" font-size="10.00" fill="#000000">TString::LongStr_t</text>
</a>
</g>
</g>
<!-- Node10&#45;&gt;Node9 -->
<g id="edge10" class="edge">
<title>Node10&#45;&gt;Node9</title>
<path fill="none" stroke="#9a32cd" stroke-dasharray="5,2" d="M77.6768,-431.3846C100.9489,-418.391 134.3033,-399.7681 154.3388,-388.5817"/>
<polygon fill="#9a32cd" stroke="#9a32cd" points="75.7181,-428.4696 68.6931,-436.4005 79.1306,-434.5815 75.7181,-428.4696"/>
<text text-anchor="middle" x="135" y="-410" font-family="Helvetica,sans-Serif" font-size="10.00" fill="#000000"> fLong</text>
</g>
<!-- Node11 -->
<g id="node11" class="node">
<title>Node11</title>
<g id="a_node11"><a xlink:href="structTString_1_1RawStr__t.html" target="_top" xlink:title="TString::RawStr_t">
<polygon fill="#ffffff" stroke="#000000" points="121,-436.5 121,-455.5 222,-455.5 222,-436.5 121,-436.5"/>
<text text-anchor="middle" x="171.5" y="-443.5" font-family="Helvetica,sans-Serif" font-size="10.00" fill="#000000">TString::RawStr_t</text>
</a>
</g>
</g>
<!-- Node11&#45;&gt;Node9 -->
<g id="edge11" class="edge">
<title>Node11&#45;&gt;Node9</title>
<path fill="none" stroke="#9a32cd" stroke-dasharray="5,2" d="M171.5,-426.1079C171.5,-413.714 171.5,-398.3263 171.5,-388.5817"/>
<polygon fill="#9a32cd" stroke="#9a32cd" points="168.0001,-426.4005 171.5,-436.4005 175.0001,-426.4006 168.0001,-426.4005"/>
<text text-anchor="middle" x="185.5" y="-410" font-family="Helvetica,sans-Serif" font-size="10.00" fill="#000000"> fRaw</text>
</g>
<!-- Node12 -->
<g id="node12" class="node">
<title>Node12</title>
<g id="a_node12"><a xlink:href="structTString_1_1ShortStr__t.html" target="_top" xlink:title="TString::ShortStr_t">
<polygon fill="#ffffff" stroke="#000000" points="240,-436.5 240,-455.5 345,-455.5 345,-436.5 240,-436.5"/>
<text text-anchor="middle" x="292.5" y="-443.5" font-family="Helvetica,sans-Serif" font-size="10.00" fill="#000000">TString::ShortStr_t</text>
</a>
</g>
</g>
<!-- Node12&#45;&gt;Node9 -->
<g id="edge12" class="edge">
<title>Node12&#45;&gt;Node9</title>
<path fill="none" stroke="#9a32cd" stroke-dasharray="5,2" d="M266.105,-431.3846C242.639,-418.391 209.0066,-399.7681 188.8042,-388.5817"/>
<polygon fill="#9a32cd" stroke="#9a32cd" points="264.7198,-434.6183 275.1637,-436.4005 268.1107,-428.4944 264.7198,-434.6183"/>
<text text-anchor="middle" x="255" y="-410" font-family="Helvetica,sans-Serif" font-size="10.00" fill="#000000"> fShort</text>
</g>
</g>
</svg>
        <g id="navigator" transform="translate(0 0)" fill="#404254">
                <rect fill="#f2f5e9" fill-opacity="0.5" stroke="#606060" stroke-width=".5" x="0" y="0" width="60" height="60"/>
                <use id="zoomplus" xlink:href="#zoomPlus" x="17" y="9" onmousedown="handleZoom(evt,'in')"/>
                <use id="zoomminus" xlink:href="#zoomMin" x="42" y="9" onmousedown="handleZoom(evt,'out')"/>
                <use id="reset" xlink:href="#resetDef" x="30" y="36" onmousedown="handleReset()"/>
                <g id="arrowUp" xlink:href="#dirArrow" transform="translate(30 24)" onmousedown="handlePan(0,-1)">
                  <use xlink:href="#rim" fill="#404040">
                        <set attributeName="fill" to="#808080" begin="arrowUp.mouseover" end="arrowUp.mouseout"/>
                  </use>
                  <path fill="none" stroke="white" stroke-width="1.5" d="M0,-3.0v7 M-2.5,-0.5L0,-3.0L2.5,-0.5"/>
                </g>
                <g id="arrowRight" xlink:href="#dirArrow" transform="rotate(90) translate(36 -43)" onmousedown="handlePan(1,0)">
                  <use xlink:href="#rim" fill="#404040">
                        <set attributeName="fill" to="#808080" begin="arrowRight.mouseover" end="arrowRight.mouseout"/>
                  </use>
                  <path fill="none" stroke="white" stroke-width="1.5" d="M0,-3.0v7 M-2.5,-0.5L0,-3.0L2.5,-0.5"/>
                </g>
                <g id="arrowDown" xlink:href="#dirArrow" transform="rotate(180) translate(-30 -48)" onmousedown="handlePan(0,1)">
                  <use xlink:href="#rim" fill="#404040">
                        <set attributeName="fill" to="#808080" begin="arrowDown.mouseover" end="arrowDown.mouseout"/>
                  </use>
                  <path fill="none" stroke="white" stroke-width="1.5" d="M0,-3.0v7 M-2.5,-0.5L0,-3.0L2.5,-0.5"/>
                </g>
                <g id="arrowLeft" xlink:href="#dirArrow" transform="rotate(270) translate(-36 17)" onmousedown="handlePan(-1,0)">
                  <use xlink:href="#rim" fill="#404040">
                        <set attributeName="fill" to="#808080" begin="arrowLeft.mouseover" end="arrowLeft.mouseout"/>
                  </use>
                  <path fill="none" stroke="white" stroke-width="1.5" d="M0,-3.0v7 M-2.5,-0.5L0,-3.0L2.5,-0.5"/>
                </g>
        </g>
        <svg viewBox="0 0 15 15" width="100%" height="30px" preserveAspectRatio="xMaxYMin meet">
         <g id="arrow_out" transform="scale(0.3 0.3)">
          <a xlink:href="classRooAbsCachedPdf_1_1AnaIntConfig__coll__graph_org.svg" target="_base">
           <rect id="button" ry="5" rx="5" y="6" x="6" height="38" width="38"
                fill="#f2f5e9" fill-opacity="0.5" stroke="#606060" stroke-width="1.0"/>
           <path id="arrow"
             d="M 11.500037,31.436501 C 11.940474,20.09759 22.043105,11.32322 32.158766,21.979434 L 37.068811,17.246167 C 37.068811,17.246167 37.088388,32 37.088388,32 L 22.160133,31.978069 C 22.160133,31.978069 26.997745,27.140456 26.997745,27.140456 C 18.528582,18.264221 13.291696,25.230495 11.500037,31.436501 z"
             style="fill:#404040;"/>
          </a>
         </g>
        </svg>
</svg>
