<?xml version="1.0" encoding="UTF-8" standalone="no"?>
<!DOCTYPE svg PUBLIC "-//W3C//DTD SVG 1.1//EN"
 "http://www.w3.org/Graphics/SVG/1.1/DTD/svg11.dtd">
<!-- Generated by graphviz version 2.40.1 (0)
 -->
<!-- Title: ROOT::MacOSX::X11::ColorParser Pages: 1 -->
<svg width="131pt" height="128pt"
 viewBox="0.00 0.00 131.00 128.00" xmlns="http://www.w3.org/2000/svg" xmlns:xlink="http://www.w3.org/1999/xlink">
<g id="graph0" class="graph" transform="scale(1 1) rotate(0) translate(4 124)">
<title>ROOT::MacOSX::X11::ColorParser</title>
<polygon fill="#ffffff" stroke="transparent" points="-4,4 -4,-124 127,-124 127,4 -4,4"/>
<!-- Node1 -->
<g id="node1" class="node">
<title>Node1</title>
<polygon fill="#bfbfbf" stroke="#000000" points="1.5,-.5 1.5,-30.5 121.5,-30.5 121.5,-.5 1.5,-.5"/>
<text text-anchor="start" x="9.5" y="-18.5" font-family="Helvetica,sans-Serif" font-size="10.00" fill="#000000">ROOT::MacOSX::X11::</text>
<text text-anchor="middle" x="61.5" y="-7.5" font-family="Helvetica,sans-Serif" font-size="10.00" fill="#000000">ColorParser</text>
</g>
<!-- Node2 -->
<g id="node2" class="node">
<title>Node2</title>
<polygon fill="#ffffff" stroke="#bfbfbf" points="0,-78.5 0,-119.5 123,-119.5 123,-78.5 0,-78.5"/>
<text text-anchor="start" x="8" y="-107.5" font-family="Helvetica,sans-Serif" font-size="10.00" fill="#000000">std::map&lt; TString,</text>
<text text-anchor="start" x="8" y="-96.5" font-family="Helvetica,sans-Serif" font-size="10.00" fill="#000000"> ROOT::MacOSX::X11::</text>
<text text-anchor="middle" x="61.5" y="-85.5" font-family="Helvetica,sans-Serif" font-size="10.00" fill="#000000">ColorParser::RGB_t &gt;</text>
</g>
<!-- Node2&#45;&gt;Node1 -->
<g id="edge1" class="edge">
<title>Node2&#45;&gt;Node1</title>
<path fill="none" stroke="#9a32cd" stroke-dasharray="5,2" d="M61.5,-68.0892C61.5,-55.3184 61.5,-41.0939 61.5,-30.6621"/>
<polygon fill="#9a32cd" stroke="#9a32cd" points="58.0001,-68.3595 61.5,-78.3595 65.0001,-68.3596 58.0001,-68.3595"/>
<text text-anchor="middle" x="85" y="-52" font-family="Helvetica,sans-Serif" font-size="10.00" fill="#000000"> fX11RGB</text>
</g>
</g>
</svg>
