<?xml version="1.0" encoding="UTF-8" standalone="no"?>
<!DOCTYPE svg PUBLIC "-//W3C//DTD SVG 1.1//EN"
 "http://www.w3.org/Graphics/SVG/1.1/DTD/svg11.dtd">
<!-- Generated by graphviz version 2.40.1 (0)
 -->
<!-- Title: TRefArray Pages: 1 -->
<svg width="503pt" height="499pt"
 viewBox="0.00 0.00 503.00 499.00" xmlns="http://www.w3.org/2000/svg" xmlns:xlink="http://www.w3.org/1999/xlink">
<g id="graph0" class="graph" transform="scale(1 1) rotate(0) translate(4 495)">
<title>TRefArray</title>
<polygon fill="#ffffff" stroke="transparent" points="-4,4 -4,-495 499,-495 499,4 -4,4"/>
<!-- Node4 -->
<g id="node1" class="node">
<title>Node4</title>
<polygon fill="#bfbfbf" stroke="#000000" points="41,-.5 41,-19.5 106,-19.5 106,-.5 41,-.5"/>
<text text-anchor="middle" x="73.5" y="-7.5" font-family="Helvetica,sans-Serif" font-size="10.00" fill="#000000">TRefArray</text>
</g>
<!-- Node5 -->
<g id="node2" class="node">
<title>Node5</title>
<g id="a_node2"><a xlink:href="classTSeqCollection.html" target="_top" xlink:title="Sequenceable collection abstract base class. ">
<polygon fill="#ffffff" stroke="#000000" points="13,-202.5 13,-221.5 102,-221.5 102,-202.5 13,-202.5"/>
<text text-anchor="middle" x="57.5" y="-209.5" font-family="Helvetica,sans-Serif" font-size="10.00" fill="#000000">TSeqCollection</text>
</a>
</g>
</g>
<!-- Node5&#45;&gt;Node4 -->
<g id="edge1" class="edge">
<title>Node5&#45;&gt;Node4</title>
<path fill="none" stroke="#191970" d="M59.0811,-192.0385C62.4575,-149.4117 70.2655,-50.8354 72.736,-19.6451"/>
<polygon fill="#191970" stroke="#191970" points="55.5723,-192.0119 58.2717,-202.2571 62.5505,-192.5647 55.5723,-192.0119"/>
</g>
<!-- Node16 -->
<g id="node13" class="node">
<title>Node16</title>
<g id="a_node13"><a xlink:href="classTObjArray.html" target="_top" xlink:title="An array of TObjects. ">
<polygon fill="#ffffff" stroke="#000000" points="86,-140 86,-159 151,-159 151,-140 86,-140"/>
<text text-anchor="middle" x="118.5" y="-147" font-family="Helvetica,sans-Serif" font-size="10.00" fill="#000000">TObjArray</text>
</a>
</g>
</g>
<!-- Node5&#45;&gt;Node16 -->
<g id="edge19" class="edge">
<title>Node5&#45;&gt;Node16</title>
<path fill="none" stroke="#191970" d="M74.1383,-194.9526C85.2696,-183.5476 99.5297,-168.9368 108.8344,-159.4033"/>
<polygon fill="#191970" stroke="#191970" points="71.5112,-192.6333 67.0313,-202.2344 76.5207,-197.5226 71.5112,-192.6333"/>
</g>
<!-- Node6 -->
<g id="node3" class="node">
<title>Node6</title>
<g id="a_node3"><a xlink:href="classTCollection.html" target="_top" xlink:title="Collection abstract base class. ">
<polygon fill="#ffffff" stroke="#000000" points="0,-259.5 0,-278.5 71,-278.5 71,-259.5 0,-259.5"/>
<text text-anchor="middle" x="35.5" y="-266.5" font-family="Helvetica,sans-Serif" font-size="10.00" fill="#000000">TCollection</text>
</a>
</g>
</g>
<!-- Node6&#45;&gt;Node5 -->
<g id="edge2" class="edge">
<title>Node6&#45;&gt;Node5</title>
<path fill="none" stroke="#191970" d="M42.8934,-249.8442C46.5697,-240.3195 50.8502,-229.229 53.8231,-221.5265"/>
<polygon fill="#191970" stroke="#191970" points="39.5676,-248.7412 39.232,-259.3307 46.0981,-251.2618 39.5676,-248.7412"/>
</g>
<!-- Node6&#45;&gt;Node6 -->
<g id="edge12" class="edge">
<title>Node6&#45;&gt;Node6</title>
<path fill="none" stroke="#9a32cd" stroke-dasharray="5,2" d="M81.2805,-273.3285C85.9895,-272.4765 89,-271.0337 89,-269 89,-265.7461 81.2932,-264.0047 71.2532,-263.776"/>
<polygon fill="#9a32cd" stroke="#9a32cd" points="80.9022,-269.8483 71.2532,-274.224 81.5249,-276.8206 80.9022,-269.8483"/>
<text text-anchor="middle" x="138" y="-266.5" font-family="Helvetica,sans-Serif" font-size="10.00" fill="#000000"> fgCurrentCollection</text>
</g>
<!-- Node7 -->
<g id="node4" class="node">
<title>Node7</title>
<g id="a_node4"><a xlink:href="classTObject.html" target="_top" xlink:title="Mother of all ROOT objects. ">
<polygon fill="#ffffff" stroke="#000000" points="187.5,-404.5 187.5,-423.5 241.5,-423.5 241.5,-404.5 187.5,-404.5"/>
<text text-anchor="middle" x="214.5" y="-411.5" font-family="Helvetica,sans-Serif" font-size="10.00" fill="#000000">TObject</text>
</a>
</g>
</g>
<!-- Node7&#45;&gt;Node6 -->
<g id="edge3" class="edge">
<title>Node7&#45;&gt;Node6</title>
<path fill="none" stroke="#191970" d="M178.0021,-403.3389C152.0528,-394.3132 117.6559,-379.2505 93.5,-357 67.7947,-333.3223 48.1605,-295.9904 39.8472,-278.5593"/>
<polygon fill="#191970" stroke="#191970" points="176.9012,-406.6612 187.4949,-406.5048 179.1159,-400.0207 176.9012,-406.6612"/>
</g>
<!-- Node8 -->
<g id="node5" class="node">
<title>Node8</title>
<g id="a_node5"><a xlink:href="classTObjectTable.html" target="_top" xlink:title="This class registers all instances of TObject and its derived classes in a hash table. ">
<polygon fill="#ffffff" stroke="#000000" points="102.5,-337.5 102.5,-356.5 182.5,-356.5 182.5,-337.5 102.5,-337.5"/>
<text text-anchor="middle" x="142.5" y="-344.5" font-family="Helvetica,sans-Serif" font-size="10.00" fill="#000000">TObjectTable</text>
</a>
</g>
</g>
<!-- Node7&#45;&gt;Node8 -->
<g id="edge5" class="edge">
<title>Node7&#45;&gt;Node8</title>
<path fill="none" stroke="#191970" d="M178.1547,-401.7791C170.2072,-397.7536 162.414,-392.5708 156.5,-386 149.0886,-377.7656 145.5278,-365.325 143.8668,-356.7186"/>
<polygon fill="#191970" stroke="#191970" points="176.8984,-405.0522 187.452,-405.9868 179.7847,-398.6749 176.8984,-405.0522"/>
</g>
<!-- Node7&#45;&gt;Node8 -->
<g id="edge6" class="edge">
<title>Node7&#45;&gt;Node8</title>
<path fill="none" stroke="#9a32cd" stroke-dasharray="5,2" d="M191.5274,-398.3274C186.4107,-394.498 181.1334,-390.2683 176.5,-386 166.5901,-376.871 156.6204,-365.0504 150.0632,-356.8267"/>
<polygon fill="#9a32cd" stroke="#9a32cd" points="189.6877,-401.3161 199.8448,-404.3304 193.7844,-395.64 189.6877,-401.3161"/>
<text text-anchor="middle" x="193" y="-378" font-family="Helvetica,sans-Serif" font-size="10.00" fill="#000000"> fTable</text>
</g>
<!-- Node15 -->
<g id="node12" class="node">
<title>Node15</title>
<g id="a_node12"><a xlink:href="classTNamed.html" target="_top" xlink:title="The TNamed class is the base class for all named ROOT classes. ">
<polygon fill="#ffffff" stroke="#000000" points="322.5,-259.5 322.5,-278.5 380.5,-278.5 380.5,-259.5 322.5,-259.5"/>
<text text-anchor="middle" x="351.5" y="-266.5" font-family="Helvetica,sans-Serif" font-size="10.00" fill="#000000">TNamed</text>
</a>
</g>
</g>
<!-- Node7&#45;&gt;Node15 -->
<g id="edge15" class="edge">
<title>Node7&#45;&gt;Node15</title>
<path fill="none" stroke="#191970" d="M230.4281,-397.1418C259.282,-366.603 319.3348,-303.0434 342.2983,-278.739"/>
<polygon fill="#191970" stroke="#191970" points="227.8126,-394.8137 223.489,-404.4861 232.9008,-399.6211 227.8126,-394.8137"/>
</g>
<!-- Node7&#45;&gt;Node16 -->
<g id="edge20" class="edge">
<title>Node7&#45;&gt;Node16</title>
<path fill="none" stroke="#9a32cd" stroke-dasharray="5,2" d="M218.582,-394.1397C220.9623,-380.8567 223.5,-362.9542 223.5,-347 223.5,-347 223.5,-347 223.5,-212 223.5,-193.5967 175.271,-171.4308 144.1859,-159.0554"/>
<polygon fill="#9a32cd" stroke="#9a32cd" points="215.1243,-393.5867 216.6786,-404.0669 221.9991,-394.9048 215.1243,-393.5867"/>
<text text-anchor="middle" x="238.5" y="-266.5" font-family="Helvetica,sans-Serif" font-size="10.00" fill="#000000"> fCont</text>
</g>
<!-- Node17 -->
<g id="node14" class="node">
<title>Node17</title>
<g id="a_node14"><a xlink:href="classTExMap.html" target="_top" xlink:title="This class stores a (key,value) pair using an external hash. ">
<polygon fill="#ffffff" stroke="#000000" points="395,-337.5 395,-356.5 450,-356.5 450,-337.5 395,-337.5"/>
<text text-anchor="middle" x="422.5" y="-344.5" font-family="Helvetica,sans-Serif" font-size="10.00" fill="#000000">TExMap</text>
</a>
</g>
</g>
<!-- Node7&#45;&gt;Node17 -->
<g id="edge22" class="edge">
<title>Node7&#45;&gt;Node17</title>
<path fill="none" stroke="#191970" d="M251.8459,-407.3201C295.9839,-399.3964 363.8348,-387.1119 366.5,-386 383.776,-378.7924 401.0585,-365.6258 411.7587,-356.6013"/>
<polygon fill="#191970" stroke="#191970" points="250.9585,-403.9234 241.7334,-409.1338 252.1942,-410.8134 250.9585,-403.9234"/>
</g>
<!-- Node8&#45;&gt;Node6 -->
<g id="edge4" class="edge">
<title>Node8&#45;&gt;Node6</title>
<path fill="none" stroke="#9a32cd" stroke-dasharray="5,2" d="M121.1517,-331.4377C99.5511,-315.6914 66.8349,-291.8423 48.7276,-278.6426"/>
<polygon fill="#9a32cd" stroke="#9a32cd" points="119.2371,-334.3732 129.3797,-337.4357 123.3606,-328.7166 119.2371,-334.3732"/>
<text text-anchor="middle" x="154" y="-305.5" font-family="Helvetica,sans-Serif" font-size="10.00" fill="#000000"> fgGarbageCollection</text>
</g>
<!-- Node9 -->
<g id="node6" class="node">
<title>Node9</title>
<g id="a_node6"><a xlink:href="classTString.html" target="_top" xlink:title="Basic string class. ">
<polygon fill="#ffffff" stroke="#000000" points="326,-337.5 326,-356.5 377,-356.5 377,-337.5 326,-337.5"/>
<text text-anchor="middle" x="351.5" y="-344.5" font-family="Helvetica,sans-Serif" font-size="10.00" fill="#000000">TString</text>
</a>
</g>
</g>
<!-- Node9&#45;&gt;Node6 -->
<g id="edge7" class="edge">
<title>Node9&#45;&gt;Node6</title>
<path fill="none" stroke="#9a32cd" stroke-dasharray="5,2" d="M318.8334,-333.6143C290.3786,-322.4121 247.7928,-306.7392 209.5,-297 162.3519,-285.0086 106.6487,-277.1116 71.2053,-272.8487"/>
<polygon fill="#9a32cd" stroke="#9a32cd" points="317.6932,-336.9275 328.2787,-337.3732 320.2816,-330.4236 317.6932,-336.9275"/>
<text text-anchor="middle" x="294" y="-305.5" font-family="Helvetica,sans-Serif" font-size="10.00" fill="#000000"> fName</text>
</g>
<!-- Node9&#45;&gt;Node15 -->
<g id="edge16" class="edge">
<title>Node9&#45;&gt;Node15</title>
<path fill="none" stroke="#9a32cd" stroke-dasharray="5,2" d="M351.5,-327.2866C351.5,-311.7395 351.5,-290.7276 351.5,-278.6426"/>
<polygon fill="#9a32cd" stroke="#9a32cd" points="348.0001,-327.4356 351.5,-337.4357 355.0001,-327.4357 348.0001,-327.4356"/>
<text text-anchor="middle" x="368.5" y="-311" font-family="Helvetica,sans-Serif" font-size="10.00" fill="#000000"> fTitle</text>
<text text-anchor="middle" x="368.5" y="-300" font-family="Helvetica,sans-Serif" font-size="10.00" fill="#000000">fName</text>
</g>
<!-- Node10 -->
<g id="node7" class="node">
<title>Node10</title>
<g id="a_node7"><a xlink:href="structTString_1_1Rep__t.html" target="_top" xlink:title="TString::Rep_t">
<polygon fill="#ffffff" stroke="#000000" points="279.5,-404.5 279.5,-423.5 363.5,-423.5 363.5,-404.5 279.5,-404.5"/>
<text text-anchor="middle" x="321.5" y="-411.5" font-family="Helvetica,sans-Serif" font-size="10.00" fill="#000000">TString::Rep_t</text>
</a>
</g>
</g>
<!-- Node10&#45;&gt;Node9 -->
<g id="edge8" class="edge">
<title>Node10&#45;&gt;Node9</title>
<path fill="none" stroke="#9a32cd" stroke-dasharray="5,2" d="M329.9012,-395.2374C335.5322,-382.6614 342.7129,-366.6246 347.2097,-356.5817"/>
<polygon fill="#9a32cd" stroke="#9a32cd" points="326.6906,-393.8433 325.7983,-404.4005 333.0794,-396.704 326.6906,-393.8433"/>
<text text-anchor="middle" x="350" y="-378" font-family="Helvetica,sans-Serif" font-size="10.00" fill="#000000"> fRep</text>
</g>
<!-- Node11 -->
<g id="node8" class="node">
<title>Node11</title>
<g id="a_node8"><a xlink:href="structTString_1_1LongStr__t.html" target="_top" xlink:title="TString::LongStr_t">
<polygon fill="#ffffff" stroke="#000000" points="150,-471.5 150,-490.5 253,-490.5 253,-471.5 150,-471.5"/>
<text text-anchor="middle" x="201.5" y="-478.5" font-family="Helvetica,sans-Serif" font-size="10.00" fill="#000000">TString::LongStr_t</text>
</a>
</g>
</g>
<!-- Node11&#45;&gt;Node10 -->
<g id="edge9" class="edge">
<title>Node11&#45;&gt;Node10</title>
<path fill="none" stroke="#9a32cd" stroke-dasharray="5,2" d="M227.6768,-466.3846C250.9489,-453.391 284.3033,-434.7681 304.3388,-423.5817"/>
<polygon fill="#9a32cd" stroke="#9a32cd" points="225.7181,-463.4696 218.6931,-471.4005 229.1306,-469.5815 225.7181,-463.4696"/>
<text text-anchor="middle" x="284" y="-445" font-family="Helvetica,sans-Serif" font-size="10.00" fill="#000000"> fLong</text>
</g>
<!-- Node12 -->
<g id="node9" class="node">
<title>Node12</title>
<g id="a_node9"><a xlink:href="structTString_1_1RawStr__t.html" target="_top" xlink:title="TString::RawStr_t">
<polygon fill="#ffffff" stroke="#000000" points="271,-471.5 271,-490.5 372,-490.5 372,-471.5 271,-471.5"/>
<text text-anchor="middle" x="321.5" y="-478.5" font-family="Helvetica,sans-Serif" font-size="10.00" fill="#000000">TString::RawStr_t</text>
</a>
</g>
</g>
<!-- Node12&#45;&gt;Node10 -->
<g id="edge10" class="edge">
<title>Node12&#45;&gt;Node10</title>
<path fill="none" stroke="#9a32cd" stroke-dasharray="5,2" d="M321.5,-461.1079C321.5,-448.714 321.5,-433.3263 321.5,-423.5817"/>
<polygon fill="#9a32cd" stroke="#9a32cd" points="318.0001,-461.4005 321.5,-471.4005 325.0001,-461.4006 318.0001,-461.4005"/>
<text text-anchor="middle" x="335.5" y="-445" font-family="Helvetica,sans-Serif" font-size="10.00" fill="#000000"> fRaw</text>
</g>
<!-- Node13 -->
<g id="node10" class="node">
<title>Node13</title>
<g id="a_node10"><a xlink:href="structTString_1_1ShortStr__t.html" target="_top" xlink:title="TString::ShortStr_t">
<polygon fill="#ffffff" stroke="#000000" points="390,-471.5 390,-490.5 495,-490.5 495,-471.5 390,-471.5"/>
<text text-anchor="middle" x="442.5" y="-478.5" font-family="Helvetica,sans-Serif" font-size="10.00" fill="#000000">TString::ShortStr_t</text>
</a>
</g>
</g>
<!-- Node13&#45;&gt;Node10 -->
<g id="edge11" class="edge">
<title>Node13&#45;&gt;Node10</title>
<path fill="none" stroke="#9a32cd" stroke-dasharray="5,2" d="M416.105,-466.3846C392.639,-453.391 359.0066,-434.7681 338.8042,-423.5817"/>
<polygon fill="#9a32cd" stroke="#9a32cd" points="414.7198,-469.6183 425.1637,-471.4005 418.1107,-463.4944 414.7198,-469.6183"/>
<text text-anchor="middle" x="405" y="-445" font-family="Helvetica,sans-Serif" font-size="10.00" fill="#000000"> fShort</text>
</g>
<!-- Node14 -->
<g id="node11" class="node">
<title>Node14</title>
<g id="a_node11"><a xlink:href="classTProcessID.html" target="_top" xlink:title="A TProcessID identifies a ROOT job in a unique way in time and space. ">
<polygon fill="#ffffff" stroke="#000000" points="217,-67.5 217,-86.5 288,-86.5 288,-67.5 217,-67.5"/>
<text text-anchor="middle" x="252.5" y="-74.5" font-family="Helvetica,sans-Serif" font-size="10.00" fill="#000000">TProcessID</text>
</a>
</g>
</g>
<!-- Node14&#45;&gt;Node4 -->
<g id="edge13" class="edge">
<title>Node14&#45;&gt;Node4</title>
<path fill="none" stroke="#9a32cd" stroke-dasharray="5,2" d="M217.0971,-63.7487C182.3019,-50.7247 130.0476,-31.1659 99.0988,-19.5817"/>
<polygon fill="#9a32cd" stroke="#9a32cd" points="216.2613,-67.1729 226.8537,-67.4005 218.7152,-60.6171 216.2613,-67.1729"/>
<text text-anchor="middle" x="186.5" y="-41" font-family="Helvetica,sans-Serif" font-size="10.00" fill="#000000"> fPID</text>
</g>
<!-- Node14&#45;&gt;Node14 -->
<g id="edge17" class="edge">
<title>Node14&#45;&gt;Node14</title>
<path fill="none" stroke="#9a32cd" stroke-dasharray="5,2" d="M298.2805,-81.9469C302.9895,-80.9732 306,-79.3242 306,-77 306,-73.2813 298.2932,-71.2911 288.2532,-71.0297"/>
<polygon fill="#9a32cd" stroke="#9a32cd" points="297.8461,-78.473 288.2532,-82.9703 298.5569,-85.4368 297.8461,-78.473"/>
<text text-anchor="middle" x="321" y="-74.5" font-family="Helvetica,sans-Serif" font-size="10.00" fill="#000000"> fgPID</text>
</g>
<!-- Node15&#45;&gt;Node14 -->
<g id="edge14" class="edge">
<title>Node15&#45;&gt;Node14</title>
<path fill="none" stroke="#191970" d="M355.9251,-249.3195C361.0508,-221.5736 366.3484,-170.2965 345.5,-134 331.9178,-110.3537 304.1898,-95.2743 282.5275,-86.6059"/>
<polygon fill="#191970" stroke="#191970" points="352.449,-248.85 353.8851,-259.3471 359.3085,-250.2456 352.449,-248.85"/>
</g>
<!-- Node16&#45;&gt;Node14 -->
<g id="edge18" class="edge">
<title>Node16&#45;&gt;Node14</title>
<path fill="none" stroke="#9a32cd" stroke-dasharray="5,2" d="M145.4162,-134.9371C171.9576,-120.5771 211.7697,-99.0369 234.6322,-86.6673"/>
<polygon fill="#9a32cd" stroke="#9a32cd" points="143.4239,-132.0356 136.2942,-139.8726 146.7549,-138.1922 143.4239,-132.0356"/>
<text text-anchor="middle" x="216" y="-108" font-family="Helvetica,sans-Serif" font-size="10.00" fill="#000000"> fgPIDs</text>
</g>
<!-- Node17&#45;&gt;Node14 -->
<g id="edge21" class="edge">
<title>Node17&#45;&gt;Node14</title>
<path fill="none" stroke="#9a32cd" stroke-dasharray="5,2" d="M420.9295,-327.2842C419.8091,-311.5231 418.5,-288.8583 418.5,-269 418.5,-269 418.5,-269 418.5,-149.5 418.5,-121.2753 336.8874,-96.9873 288.1112,-84.9918"/>
<polygon fill="#9a32cd" stroke="#9a32cd" points="417.4502,-327.6924 421.6905,-337.4017 424.4305,-327.1673 417.4502,-327.6924"/>
<text text-anchor="middle" x="444.5" y="-209.5" font-family="Helvetica,sans-Serif" font-size="10.00" fill="#000000"> fgObjPIDs</text>
</g>
<!-- Node18 -->
<g id="node15" class="node">
<title>Node18</title>
<g id="a_node15"><a xlink:href="structTExMap_1_1Assoc__t.html" target="_top" xlink:title="TExMap::Assoc_t">
<polygon fill="#ffffff" stroke="#000000" points="381.5,-404.5 381.5,-423.5 479.5,-423.5 479.5,-404.5 381.5,-404.5"/>
<text text-anchor="middle" x="430.5" y="-411.5" font-family="Helvetica,sans-Serif" font-size="10.00" fill="#000000">TExMap::Assoc_t</text>
</a>
</g>
</g>
<!-- Node18&#45;&gt;Node17 -->
<g id="edge23" class="edge">
<title>Node18&#45;&gt;Node17</title>
<path fill="none" stroke="#9a32cd" stroke-dasharray="5,2" d="M428.1248,-394.1079C426.645,-381.714 424.8076,-366.3263 423.6441,-356.5817"/>
<polygon fill="#9a32cd" stroke="#9a32cd" points="424.6928,-394.8861 429.3538,-404.4005 431.6434,-394.0561 424.6928,-394.8861"/>
<text text-anchor="middle" x="443" y="-378" font-family="Helvetica,sans-Serif" font-size="10.00" fill="#000000"> fTable</text>
</g>
<!-- Node19 -->
<g id="node16" class="node">
<title>Node19</title>
<g id="a_node16"><a xlink:href="classROOT_1_1Internal_1_1TAtomicPointer.html" target="_top" xlink:title="ROOT::Internal::TAtomicPointer\l\&lt; TObjArray *\&gt;">
<polygon fill="#ffffff" stroke="#000000" points="169,-134.5 169,-164.5 336,-164.5 336,-134.5 169,-134.5"/>
<text text-anchor="start" x="177" y="-152.5" font-family="Helvetica,sans-Serif" font-size="10.00" fill="#000000">ROOT::Internal::TAtomicPointer</text>
<text text-anchor="middle" x="252.5" y="-141.5" font-family="Helvetica,sans-Serif" font-size="10.00" fill="#000000">&lt; TObjArray *&gt;</text>
</a>
</g>
</g>
<!-- Node19&#45;&gt;Node14 -->
<g id="edge24" class="edge">
<title>Node19&#45;&gt;Node14</title>
<path fill="none" stroke="#9a32cd" stroke-dasharray="5,2" d="M252.5,-124.305C252.5,-111.424 252.5,-96.4836 252.5,-86.8957"/>
<polygon fill="#9a32cd" stroke="#9a32cd" points="249.0001,-124.4779 252.5,-134.478 256.0001,-124.478 249.0001,-124.4779"/>
<text text-anchor="middle" x="274.5" y="-108" font-family="Helvetica,sans-Serif" font-size="10.00" fill="#000000"> fObjects</text>
</g>
</g>
</svg>
