<?xml version="1.0" encoding="UTF-8" standalone="no"?>
<!DOCTYPE svg PUBLIC "-//W3C//DTD SVG 1.1//EN"
 "http://www.w3.org/Graphics/SVG/1.1/DTD/svg11.dtd">
<!-- Generated by graphviz version 2.40.1 (0)
 -->
<!-- Title: ROOT::Math::GSLMultiRootDerivSolver Pages: 1 -->
<svg width="152pt" height="106pt"
 viewBox="0.00 0.00 152.00 106.00" xmlns="http://www.w3.org/2000/svg" xmlns:xlink="http://www.w3.org/1999/xlink">
<g id="graph0" class="graph" transform="scale(1 1) rotate(0) translate(4 102)">
<title>ROOT::Math::GSLMultiRootDerivSolver</title>
<polygon fill="#ffffff" stroke="transparent" points="-4,4 -4,-102 148,-102 148,4 -4,4"/>
<!-- Node0 -->
<g id="node1" class="node">
<title>Node0</title>
<polygon fill="#bfbfbf" stroke="#000000" points="0,-.5 0,-30.5 144,-30.5 144,-.5 0,-.5"/>
<text text-anchor="start" x="8" y="-18.5" font-family="Helvetica,sans-Serif" font-size="10.00" fill="#000000">ROOT::Math::GSLMultiRoot</text>
<text text-anchor="middle" x="72" y="-7.5" font-family="Helvetica,sans-Serif" font-size="10.00" fill="#000000">DerivSolver</text>
</g>
<!-- Node1 -->
<g id="node2" class="node">
<title>Node1</title>
<g id="a_node2"><a xlink:href="classROOT_1_1Math_1_1GSLMultiRootBaseSolver.html" target="_top" xlink:title="GSLMultiRootBaseSolver, internal class for implementing GSL multi&#45;root finders This is the base class...">
<polygon fill="#ffffff" stroke="#000000" points="0,-67.5 0,-97.5 144,-97.5 144,-67.5 0,-67.5"/>
<text text-anchor="start" x="8" y="-85.5" font-family="Helvetica,sans-Serif" font-size="10.00" fill="#000000">ROOT::Math::GSLMultiRoot</text>
<text text-anchor="middle" x="72" y="-74.5" font-family="Helvetica,sans-Serif" font-size="10.00" fill="#000000">BaseSolver</text>
</a>
</g>
</g>
<!-- Node1&#45;&gt;Node0 -->
<g id="edge1" class="edge">
<title>Node1&#45;&gt;Node0</title>
<path fill="none" stroke="#191970" d="M72,-57.0249C72,-48.128 72,-38.4287 72,-30.6432"/>
<polygon fill="#191970" stroke="#191970" points="68.5001,-57.2966 72,-67.2967 75.5001,-57.2967 68.5001,-57.2966"/>
</g>
</g>
</svg>
