<?xml version="1.0" encoding="UTF-8" standalone="no"?>
<!DOCTYPE svg PUBLIC "-//W3C//DTD SVG 1.1//EN"
 "http://www.w3.org/Graphics/SVG/1.1/DTD/svg11.dtd">
<!-- Generated by graphviz version 2.40.1 (0)
 -->
<!-- Title: ROOT::MacOSX::X11::DrawRectangle Pages: 1 -->
<svg width="225pt" height="184pt"
 viewBox="0.00 0.00 225.00 184.00" xmlns="http://www.w3.org/2000/svg" xmlns:xlink="http://www.w3.org/1999/xlink">
<g id="graph0" class="graph" transform="scale(1 1) rotate(0) translate(4 180)">
<title>ROOT::MacOSX::X11::DrawRectangle</title>
<polygon fill="#ffffff" stroke="transparent" points="-4,4 -4,-180 221,-180 221,4 -4,4"/>
<!-- Node2 -->
<g id="node1" class="node">
<title>Node2</title>
<polygon fill="#bfbfbf" stroke="#000000" points="86,-.5 86,-30.5 206,-30.5 206,-.5 86,-.5"/>
<text text-anchor="start" x="94" y="-18.5" font-family="Helvetica,sans-Serif" font-size="10.00" fill="#000000">ROOT::MacOSX::X11::</text>
<text text-anchor="middle" x="146" y="-7.5" font-family="Helvetica,sans-Serif" font-size="10.00" fill="#000000">DrawRectangle</text>
</g>
<!-- Node3 -->
<g id="node2" class="node">
<title>Node3</title>
<g id="a_node2"><a xlink:href="classROOT_1_1MacOSX_1_1X11_1_1Command.html" target="_top" xlink:title="ROOT::MacOSX::X11::\lCommand">
<polygon fill="#ffffff" stroke="#000000" points="0,-78.5 0,-108.5 120,-108.5 120,-78.5 0,-78.5"/>
<text text-anchor="start" x="8" y="-96.5" font-family="Helvetica,sans-Serif" font-size="10.00" fill="#000000">ROOT::MacOSX::X11::</text>
<text text-anchor="middle" x="60" y="-85.5" font-family="Helvetica,sans-Serif" font-size="10.00" fill="#000000">Command</text>
</a>
</g>
</g>
<!-- Node3&#45;&gt;Node2 -->
<g id="edge1" class="edge">
<title>Node3&#45;&gt;Node2</title>
<path fill="none" stroke="#191970" d="M84.1421,-71.6036C98.4957,-58.5853 116.3453,-42.3962 129.1758,-30.7592"/>
<polygon fill="#191970" stroke="#191970" points="81.6375,-69.1501 76.5817,-78.4608 86.3402,-74.3352 81.6375,-69.1501"/>
</g>
<!-- Node4 -->
<g id="node3" class="node">
<title>Node4</title>
<g id="a_node3"><a xlink:href="structGCValues__t.html" target="_top" xlink:title="GCValues_t">
<polygon fill="#ffffff" stroke="#000000" points="24,-156.5 24,-175.5 96,-175.5 96,-156.5 24,-156.5"/>
<text text-anchor="middle" x="60" y="-163.5" font-family="Helvetica,sans-Serif" font-size="10.00" fill="#000000">GCValues_t</text>
</a>
</g>
</g>
<!-- Node4&#45;&gt;Node3 -->
<g id="edge2" class="edge">
<title>Node4&#45;&gt;Node3</title>
<path fill="none" stroke="#9a32cd" stroke-dasharray="5,2" d="M60,-146.0177C60,-134.2164 60,-119.513 60,-108.668"/>
<polygon fill="#9a32cd" stroke="#9a32cd" points="56.5001,-146.2223 60,-156.2223 63.5001,-146.2224 56.5001,-146.2223"/>
<text text-anchor="middle" x="71" y="-130" font-family="Helvetica,sans-Serif" font-size="10.00" fill="#000000"> fGC</text>
</g>
<!-- Node5 -->
<g id="node4" class="node">
<title>Node5</title>
<g id="a_node4"><a xlink:href="structRectangle__t.html" target="_top" xlink:title="Rectangle_t">
<polygon fill="#ffffff" stroke="#000000" points="138,-84 138,-103 212,-103 212,-84 138,-84"/>
<text text-anchor="middle" x="175" y="-91" font-family="Helvetica,sans-Serif" font-size="10.00" fill="#000000">Rectangle_t</text>
</a>
</g>
</g>
<!-- Node5&#45;&gt;Node2 -->
<g id="edge3" class="edge">
<title>Node5&#45;&gt;Node2</title>
<path fill="none" stroke="#9a32cd" stroke-dasharray="5,2" d="M167.8521,-74.2745C162.8685,-60.8703 156.3093,-43.2285 151.6819,-30.7824"/>
<polygon fill="#9a32cd" stroke="#9a32cd" points="164.6785,-75.7823 171.444,-83.9357 171.2397,-73.3428 164.6785,-75.7823"/>
<text text-anchor="middle" x="189.5" y="-52" font-family="Helvetica,sans-Serif" font-size="10.00" fill="#000000"> fRectangle</text>
</g>
</g>
</svg>
