<?xml version="1.0" encoding="UTF-8" standalone="no"?>
<!DOCTYPE svg PUBLIC "-//W3C//DTD SVG 1.1//EN"
 "http://www.w3.org/Graphics/SVG/1.1/DTD/svg11.dtd">
<!-- Generated by graphviz version 2.40.1 (0)
 -->
<!-- Title: TXNetSystem Pages: 1 -->
<svg width="1097pt" height="969pt"
 viewBox="0.00 0.00 1097.06 969.00" xmlns="http://www.w3.org/2000/svg" xmlns:xlink="http://www.w3.org/1999/xlink">
<g id="graph0" class="graph" transform="scale(1 1) rotate(0) translate(4 965)">
<title>TXNetSystem</title>
<polygon fill="#ffffff" stroke="transparent" points="-4,4 -4,-965 1093.0569,-965 1093.0569,4 -4,4"/>
<!-- Node5 -->
<g id="node1" class="node">
<title>Node5</title>
<polygon fill="#bfbfbf" stroke="#000000" points="817.5569,-.5 817.5569,-19.5 900.5569,-19.5 900.5569,-.5 817.5569,-.5"/>
<text text-anchor="middle" x="859.0569" y="-7.5" font-family="Helvetica,sans-Serif" font-size="10.00" fill="#000000">TXNetSystem</text>
</g>
<!-- Node6 -->
<g id="node2" class="node">
<title>Node6</title>
<g id="a_node2"><a xlink:href="classTNetSystem.html" target="_top" xlink:title="TNetSystem">
<polygon fill="#ffffff" stroke="#000000" points="820.5569,-57.5 820.5569,-76.5 897.5569,-76.5 897.5569,-57.5 820.5569,-57.5"/>
<text text-anchor="middle" x="859.0569" y="-64.5" font-family="Helvetica,sans-Serif" font-size="10.00" fill="#000000">TNetSystem</text>
</a>
</g>
</g>
<!-- Node6&#45;&gt;Node5 -->
<g id="edge1" class="edge">
<title>Node6&#45;&gt;Node5</title>
<path fill="none" stroke="#191970" d="M859.0569,-47.2342C859.0569,-37.8491 859.0569,-27.0651 859.0569,-19.5265"/>
<polygon fill="#191970" stroke="#191970" points="855.557,-47.3307 859.0569,-57.3307 862.557,-47.3308 855.557,-47.3307"/>
</g>
<!-- Node7 -->
<g id="node3" class="node">
<title>Node7</title>
<g id="a_node3"><a xlink:href="classTSystem.html" target="_top" xlink:title="Abstract base class defining a generic interface to the underlying Operating System. ">
<polygon fill="#ffffff" stroke="#000000" points="215.5569,-378 215.5569,-397 274.5569,-397 274.5569,-378 215.5569,-378"/>
<text text-anchor="middle" x="245.0569" y="-385" font-family="Helvetica,sans-Serif" font-size="10.00" fill="#000000">TSystem</text>
</a>
</g>
</g>
<!-- Node7&#45;&gt;Node6 -->
<g id="edge2" class="edge">
<title>Node7&#45;&gt;Node6</title>
<path fill="none" stroke="#191970" d="M248.7225,-368.0259C252.2515,-347.5587 257.0569,-314.3853 257.0569,-285.5 257.0569,-285.5 257.0569,-285.5 257.0569,-145 257.0569,-87.959 687.6156,-71.6108 820.4833,-67.9239"/>
<polygon fill="#191970" stroke="#191970" points="245.2574,-367.5198 246.9319,-377.9815 252.1469,-368.759 245.2574,-367.5198"/>
</g>
<!-- Node8 -->
<g id="node4" class="node">
<title>Node8</title>
<g id="a_node4"><a xlink:href="classTNamed.html" target="_top" xlink:title="The TNamed class is the base class for all named ROOT classes. ">
<polygon fill="#ffffff" stroke="#000000" points="404.0569,-641 404.0569,-660 462.0569,-660 462.0569,-641 404.0569,-641"/>
<text text-anchor="middle" x="433.0569" y="-648" font-family="Helvetica,sans-Serif" font-size="10.00" fill="#000000">TNamed</text>
</a>
</g>
</g>
<!-- Node8&#45;&gt;Node7 -->
<g id="edge3" class="edge">
<title>Node8&#45;&gt;Node7</title>
<path fill="none" stroke="#191970" d="M393.8568,-645.0731C352.0735,-637.0151 287.6731,-617.5792 256.0569,-572 217.2845,-516.1041 235.1852,-426.2573 242.4839,-397.0237"/>
<polygon fill="#191970" stroke="#191970" points="393.4977,-648.5645 403.9586,-646.8856 394.7339,-641.6745 393.4977,-648.5645"/>
</g>
<!-- Node20 -->
<g id="node16" class="node">
<title>Node20</title>
<g id="a_node16"><a xlink:href="classTSocket.html" target="_top" xlink:title="TSocket">
<polygon fill="#ffffff" stroke="#000000" points="609.0569,-202.5 609.0569,-221.5 665.0569,-221.5 665.0569,-202.5 609.0569,-202.5"/>
<text text-anchor="middle" x="637.0569" y="-209.5" font-family="Helvetica,sans-Serif" font-size="10.00" fill="#000000">TSocket</text>
</a>
</g>
</g>
<!-- Node8&#45;&gt;Node20 -->
<g id="edge24" class="edge">
<title>Node8&#45;&gt;Node20</title>
<path fill="none" stroke="#191970" d="M441.4403,-631.7887C447.5469,-619.2618 456.5644,-602.7887 467.0569,-590 474.854,-580.4965 480.8725,-581.9748 488.0569,-572 581.1509,-442.7477 557.3898,-385.1223 623.0569,-240 625.88,-233.761 629.3156,-226.8806 632.0768,-221.5015"/>
<polygon fill="#191970" stroke="#191970" points="438.2712,-630.3033 437.1944,-640.8433 444.609,-633.2753 438.2712,-630.3033"/>
</g>
<!-- Node9 -->
<g id="node5" class="node">
<title>Node9</title>
<g id="a_node5"><a xlink:href="classTObject.html" target="_top" xlink:title="Mother of all ROOT objects. ">
<polygon fill="#ffffff" stroke="#000000" points="261.0569,-874.5 261.0569,-893.5 315.0569,-893.5 315.0569,-874.5 261.0569,-874.5"/>
<text text-anchor="middle" x="288.0569" y="-881.5" font-family="Helvetica,sans-Serif" font-size="10.00" fill="#000000">TObject</text>
</a>
</g>
</g>
<!-- Node9&#45;&gt;Node8 -->
<g id="edge4" class="edge">
<title>Node9&#45;&gt;Node8</title>
<path fill="none" stroke="#191970" d="M289.2446,-863.9642C289.9765,-857.7833 291.1563,-851.0215 293.0569,-845 318.9789,-762.8709 394.5155,-686.3912 422.4822,-660.1227"/>
<polygon fill="#191970" stroke="#191970" points="285.736,-863.9105 288.3521,-874.1772 292.7094,-864.5199 285.736,-863.9105"/>
</g>
<!-- Node17 -->
<g id="node13" class="node">
<title>Node17</title>
<g id="a_node13"><a xlink:href="classTCollection.html" target="_top" xlink:title="Collection abstract base class. ">
<polygon fill="#ffffff" stroke="#000000" points="91.5569,-729.5 91.5569,-748.5 162.5569,-748.5 162.5569,-729.5 91.5569,-729.5"/>
<text text-anchor="middle" x="127.0569" y="-736.5" font-family="Helvetica,sans-Serif" font-size="10.00" fill="#000000">TCollection</text>
</a>
</g>
</g>
<!-- Node9&#45;&gt;Node17 -->
<g id="edge13" class="edge">
<title>Node9&#45;&gt;Node17</title>
<path fill="none" stroke="#191970" d="M251.0682,-880.2811C217.5465,-874.752 169.8631,-861.0273 146.0569,-827 129.0331,-802.6672 126.813,-765.9793 126.7998,-748.6794"/>
<polygon fill="#191970" stroke="#191970" points="250.57,-883.7454 260.9747,-881.7473 251.5949,-876.8208 250.57,-883.7454"/>
</g>
<!-- Node18 -->
<g id="node14" class="node">
<title>Node18</title>
<g id="a_node14"><a xlink:href="classTObjectTable.html" target="_top" xlink:title="This class registers all instances of TObject and its derived classes in a hash table. ">
<polygon fill="#ffffff" stroke="#000000" points="155.0569,-807.5 155.0569,-826.5 235.0569,-826.5 235.0569,-807.5 155.0569,-807.5"/>
<text text-anchor="middle" x="195.0569" y="-814.5" font-family="Helvetica,sans-Serif" font-size="10.00" fill="#000000">TObjectTable</text>
</a>
</g>
</g>
<!-- Node9&#45;&gt;Node18 -->
<g id="edge15" class="edge">
<title>Node9&#45;&gt;Node18</title>
<path fill="none" stroke="#191970" d="M250.9522,-875.9238C230.8453,-870.7982 208.7639,-863.6964 202.0569,-856 195.0065,-847.9097 193.9494,-835.1973 194.1994,-826.5002"/>
<polygon fill="#191970" stroke="#191970" points="250.3463,-879.3785 260.8907,-878.3458 252.0038,-872.5775 250.3463,-879.3785"/>
</g>
<!-- Node9&#45;&gt;Node18 -->
<g id="edge16" class="edge">
<title>Node9&#45;&gt;Node18</title>
<path fill="none" stroke="#9a32cd" stroke-dasharray="5,2" d="M251.2943,-872.68C241.1627,-868.4668 230.6155,-862.967 222.0569,-856 212.2216,-847.9937 204.4487,-835.5068 199.816,-826.8273"/>
<polygon fill="#9a32cd" stroke="#9a32cd" points="250.2122,-876.0136 260.8023,-876.331 252.7216,-869.4788 250.2122,-876.0136"/>
<text text-anchor="middle" x="238.5569" y="-848" font-family="Helvetica,sans-Serif" font-size="10.00" fill="#000000"> fTable</text>
</g>
<!-- Node19 -->
<g id="node15" class="node">
<title>Node19</title>
<g id="a_node15"><a xlink:href="classTFTP.html" target="_top" xlink:title="TFTP">
<polygon fill="#ffffff" stroke="#000000" points="839.0569,-135.5 839.0569,-154.5 879.0569,-154.5 879.0569,-135.5 839.0569,-135.5"/>
<text text-anchor="middle" x="859.0569" y="-142.5" font-family="Helvetica,sans-Serif" font-size="10.00" fill="#000000">TFTP</text>
</a>
</g>
</g>
<!-- Node9&#45;&gt;Node19 -->
<g id="edge22" class="edge">
<title>Node9&#45;&gt;Node19</title>
<path fill="none" stroke="#191970" d="M325.1365,-883.6479C410.9329,-882.4773 629.6707,-877.4496 811.0569,-856 906.1973,-844.7493 1023.0569,-912.8033 1023.0569,-817 1023.0569,-817 1023.0569,-817 1023.0569,-460.5 1023.0569,-397.6001 1031.1026,-377.6984 1006.0569,-320 989.2306,-281.2369 898.6397,-185.8297 868.6816,-154.8725"/>
<polygon fill="#191970" stroke="#191970" points="325.062,-880.1485 315.1072,-883.7752 325.1508,-887.1479 325.062,-880.1485"/>
</g>
<!-- Node21 -->
<g id="node17" class="node">
<title>Node21</title>
<g id="a_node17"><a xlink:href="classTBits.html" target="_top" xlink:title="Container of bits. ">
<polygon fill="#ffffff" stroke="#000000" points="700.5569,-768.5 700.5569,-787.5 741.5569,-787.5 741.5569,-768.5 700.5569,-768.5"/>
<text text-anchor="middle" x="721.0569" y="-775.5" font-family="Helvetica,sans-Serif" font-size="10.00" fill="#000000">TBits</text>
</a>
</g>
</g>
<!-- Node9&#45;&gt;Node21 -->
<g id="edge26" class="edge">
<title>Node9&#45;&gt;Node21</title>
<path fill="none" stroke="#191970" d="M325.2058,-880.0796C404.4832,-871.3911 587.7574,-849.4985 646.0569,-827 670.7246,-817.4804 695.7039,-798.996 709.7031,-787.6512"/>
<polygon fill="#191970" stroke="#191970" points="324.7408,-876.6095 315.1773,-881.1689 325.4968,-883.5685 324.7408,-876.6095"/>
</g>
<!-- Node22 -->
<g id="node18" class="node">
<title>Node22</title>
<g id="a_node18"><a xlink:href="classTSecContext.html" target="_top" xlink:title="TSecContext">
<polygon fill="#ffffff" stroke="#000000" points="395.0569,-276 395.0569,-295 473.0569,-295 473.0569,-276 395.0569,-276"/>
<text text-anchor="middle" x="434.0569" y="-283" font-family="Helvetica,sans-Serif" font-size="10.00" fill="#000000">TSecContext</text>
</a>
</g>
</g>
<!-- Node9&#45;&gt;Node22 -->
<g id="edge28" class="edge">
<title>Node9&#45;&gt;Node22</title>
<path fill="none" stroke="#191970" d="M292.7742,-864.3043C307.3516,-804.9547 353.2196,-629.4948 395.0569,-590 415.3019,-570.8885 438.4378,-594.3365 455.0569,-572 471.9146,-549.3428 442.503,-342.5031 435.5007,-295.1339"/>
<polygon fill="#191970" stroke="#191970" points="289.314,-863.7215 290.355,-874.2651 296.1163,-865.3736 289.314,-863.7215"/>
</g>
<!-- Node28 -->
<g id="node24" class="node">
<title>Node28</title>
<g id="a_node24"><a xlink:href="classTInetAddress.html" target="_top" xlink:title="This class represents an Internet Protocol (IP) address. ">
<polygon fill="#ffffff" stroke="#000000" points="474.0569,-729.5 474.0569,-748.5 554.0569,-748.5 554.0569,-729.5 474.0569,-729.5"/>
<text text-anchor="middle" x="514.0569" y="-736.5" font-family="Helvetica,sans-Serif" font-size="10.00" fill="#000000">TInetAddress</text>
</a>
</g>
</g>
<!-- Node9&#45;&gt;Node28 -->
<g id="edge39" class="edge">
<title>Node9&#45;&gt;Node28</title>
<path fill="none" stroke="#191970" d="M310.1076,-868.0635C314.1288,-864.4323 318.0094,-860.3498 321.0569,-856 345.2635,-821.4487 321.641,-793.9993 354.0569,-767 371.8249,-752.2009 432.4917,-744.8719 473.8012,-741.5156"/>
<polygon fill="#191970" stroke="#191970" points="307.8659,-865.3755 302.3834,-874.4415 312.3229,-870.7732 307.8659,-865.3755"/>
</g>
<!-- Node10 -->
<g id="node6" class="node">
<title>Node10</title>
<g id="a_node6"><a xlink:href="classTString.html" target="_top" xlink:title="Basic string class. ">
<polygon fill="#ffffff" stroke="#000000" points="756.5569,-807.5 756.5569,-826.5 807.5569,-826.5 807.5569,-807.5 756.5569,-807.5"/>
<text text-anchor="middle" x="782.0569" y="-814.5" font-family="Helvetica,sans-Serif" font-size="10.00" fill="#000000">TString</text>
</a>
</g>
</g>
<!-- Node10&#45;&gt;Node5 -->
<g id="edge44" class="edge">
<title>Node10&#45;&gt;Node5</title>
<path fill="none" stroke="#9a32cd" stroke-dasharray="5,2" d="M817.7307,-813.5317C845.2342,-809.913 883.7355,-802.7577 915.0569,-789 950.0615,-773.6245 985.0569,-777.2326 985.0569,-739 985.0569,-739 985.0569,-739 985.0569,-460.5 985.0569,-378.2778 1045.0569,-367.7222 1045.0569,-285.5 1045.0569,-285.5 1045.0569,-285.5 1045.0569,-67 1045.0569,-37.0256 955.6379,-21.2147 900.7989,-14.3366"/>
<polygon fill="#9a32cd" stroke="#9a32cd" points="817.2666,-810.0623 807.7661,-814.7518 818.1174,-817.0104 817.2666,-810.0623"/>
<text text-anchor="middle" x="1067.0569" y="-294" font-family="Helvetica,sans-Serif" font-size="10.00" fill="#000000"> fDir</text>
<text text-anchor="middle" x="1067.0569" y="-283" font-family="Helvetica,sans-Serif" font-size="10.00" fill="#000000">fUrl</text>
<text text-anchor="middle" x="1067.0569" y="-272" font-family="Helvetica,sans-Serif" font-size="10.00" fill="#000000">fDirEntry</text>
</g>
<!-- Node10&#45;&gt;Node6 -->
<g id="edge20" class="edge">
<title>Node10&#45;&gt;Node6</title>
<path fill="none" stroke="#9a32cd" stroke-dasharray="5,2" d="M817.6563,-807.8287C866.1618,-794.269 947.0569,-767.398 947.0569,-739 947.0569,-739 947.0569,-739 947.0569,-145 947.0569,-111.1105 910.0554,-88.3747 884.0388,-76.5772"/>
<polygon fill="#9a32cd" stroke="#9a32cd" points="816.5594,-804.5001 807.8381,-810.5159 818.4074,-811.2518 816.5594,-804.5001"/>
<text text-anchor="middle" x="976.0569" y="-345" font-family="Helvetica,sans-Serif" font-size="10.00" fill="#000000"> fHost</text>
<text text-anchor="middle" x="976.0569" y="-334" font-family="Helvetica,sans-Serif" font-size="10.00" fill="#000000">fUser</text>
<text text-anchor="middle" x="976.0569" y="-323" font-family="Helvetica,sans-Serif" font-size="10.00" fill="#000000">fLocalPrefix</text>
</g>
<!-- Node10&#45;&gt;Node7 -->
<g id="edge19" class="edge">
<title>Node10&#45;&gt;Node7</title>
<path fill="none" stroke="#9a32cd" stroke-dasharray="5,2" d="M771.4987,-798.572C764.6106,-788.0103 754.7401,-775.2539 743.0569,-767 678.775,-721.5863 640.4004,-754.8724 575.0569,-711 516.1836,-671.4718 533.9656,-622.7266 471.0569,-590 435.0021,-571.2435 319.6749,-598.7262 289.0569,-572 262.1403,-548.5048 249.2408,-432.2742 245.9352,-397.4054"/>
<polygon fill="#9a32cd" stroke="#9a32cd" points="768.5355,-800.435 776.7548,-807.1203 774.4985,-796.7685 768.5355,-800.435"/>
<text text-anchor="middle" x="629.5569" y="-703" font-family="Helvetica,sans-Serif" font-size="10.00" fill="#000000"> fSoExt</text>
<text text-anchor="middle" x="629.5569" y="-692" font-family="Helvetica,sans-Serif" font-size="10.00" fill="#000000">fBuildCompilerVersion</text>
<text text-anchor="middle" x="629.5569" y="-681" font-family="Helvetica,sans-Serif" font-size="10.00" fill="#000000">fBuildCompiler</text>
<text text-anchor="middle" x="629.5569" y="-670" font-family="Helvetica,sans-Serif" font-size="10.00" fill="#000000">fIncludePath</text>
<text text-anchor="middle" x="629.5569" y="-659" font-family="Helvetica,sans-Serif" font-size="10.00" fill="#000000">fMakeSharedLib</text>
<text text-anchor="middle" x="629.5569" y="-648" font-family="Helvetica,sans-Serif" font-size="10.00" fill="#000000">fObjExt</text>
<text text-anchor="middle" x="629.5569" y="-637" font-family="Helvetica,sans-Serif" font-size="10.00" fill="#000000">fWdpath</text>
<text text-anchor="middle" x="629.5569" y="-626" font-family="Helvetica,sans-Serif" font-size="10.00" fill="#000000">fLinkdefSuffix</text>
<text text-anchor="middle" x="629.5569" y="-615" font-family="Helvetica,sans-Serif" font-size="10.00" fill="#000000">fBuildNode</text>
<text text-anchor="middle" x="629.5569" y="-604" font-family="Helvetica,sans-Serif" font-size="10.00" fill="#000000">fListLibs</text>
<text text-anchor="middle" x="629.5569" y="-593" font-family="Helvetica,sans-Serif" font-size="10.00" fill="#000000">...</text>
</g>
<!-- Node10&#45;&gt;Node8 -->
<g id="edge5" class="edge">
<title>Node10&#45;&gt;Node8</title>
<path fill="none" stroke="#9a32cd" stroke-dasharray="5,2" d="M746.2208,-811.4702C715.0777,-806.2044 672.7231,-797.7965 658.0569,-789 646.9774,-782.3547 649.2549,-774.9318 639.0569,-767 609.2472,-743.8147 598.36,-742.4114 563.0569,-729 534.233,-718.05 522.9093,-726.1547 496.0569,-711 472.5499,-697.7334 451.2744,-673.6664 440.4919,-660.2321"/>
<polygon fill="#9a32cd" stroke="#9a32cd" points="745.8602,-814.9579 756.2964,-813.1316 746.9991,-808.0512 745.8602,-814.9579"/>
<text text-anchor="middle" x="675.0569" y="-781" font-family="Helvetica,sans-Serif" font-size="10.00" fill="#000000"> fTitle</text>
<text text-anchor="middle" x="675.0569" y="-770" font-family="Helvetica,sans-Serif" font-size="10.00" fill="#000000">fName</text>
</g>
<!-- Node10&#45;&gt;Node17 -->
<g id="edge17" class="edge">
<title>Node10&#45;&gt;Node17</title>
<path fill="none" stroke="#9a32cd" stroke-dasharray="5,2" d="M746.2072,-814.3462C718.7854,-812.3207 680.0351,-809.4675 646.0569,-807 534.5086,-798.8992 505.9837,-803.2788 395.0569,-789 372.2894,-786.0693 230.1219,-758.8665 162.5949,-745.862"/>
<polygon fill="#9a32cd" stroke="#9a32cd" points="746.26,-817.8596 756.4908,-815.1063 746.776,-810.8786 746.26,-817.8596"/>
<text text-anchor="middle" x="413.5569" y="-775.5" font-family="Helvetica,sans-Serif" font-size="10.00" fill="#000000"> fName</text>
</g>
<!-- Node10&#45;&gt;Node19 -->
<g id="edge43" class="edge">
<title>Node10&#45;&gt;Node19</title>
<path fill="none" stroke="#9a32cd" stroke-dasharray="5,2" d="M806.3777,-801.1761C810.4399,-797.5957 814.2417,-793.5034 817.0569,-789 826.716,-773.5484 822.9319,-766.9523 826.0569,-749 845.2573,-638.6966 849.4673,-610.7045 857.0569,-499 861.9529,-426.9384 859.0569,-408.7277 859.0569,-336.5 859.0569,-336.5 859.0569,-336.5 859.0569,-212 859.0569,-191.5278 859.0569,-167.5369 859.0569,-154.5418"/>
<polygon fill="#9a32cd" stroke="#9a32cd" points="804.1453,-798.4788 798.4359,-807.4036 808.4648,-803.9872 804.1453,-798.4788"/>
<text text-anchor="middle" x="889.0569" y="-396" font-family="Helvetica,sans-Serif" font-size="10.00" fill="#000000"> fCurrentFile</text>
<text text-anchor="middle" x="889.0569" y="-385" font-family="Helvetica,sans-Serif" font-size="10.00" fill="#000000">fHost</text>
<text text-anchor="middle" x="889.0569" y="-374" font-family="Helvetica,sans-Serif" font-size="10.00" fill="#000000">fUser</text>
</g>
<!-- Node10&#45;&gt;Node20 -->
<g id="edge35" class="edge">
<title>Node10&#45;&gt;Node20</title>
<path fill="none" stroke="#9a32cd" stroke-dasharray="5,2" d="M794.0146,-798.4745C802.7439,-783.1611 813.0569,-760.5164 813.0569,-739 813.0569,-739 813.0569,-739 813.0569,-460.5 813.0569,-411.0486 822.6783,-269.5903 783.0569,-240 764.8078,-226.3712 702.3221,-218.2255 665.2724,-214.4807"/>
<polygon fill="#9a32cd" stroke="#9a32cd" points="790.8023,-797.0234 788.6312,-807.3934 796.7953,-800.6407 790.8023,-797.0234"/>
<text text-anchor="middle" x="834.5569" y="-463.5" font-family="Helvetica,sans-Serif" font-size="10.00" fill="#000000"> fService</text>
<text text-anchor="middle" x="834.5569" y="-452.5" font-family="Helvetica,sans-Serif" font-size="10.00" fill="#000000">fUrl</text>
</g>
<!-- Node10&#45;&gt;Node22 -->
<g id="edge29" class="edge">
<title>Node10&#45;&gt;Node22</title>
<path fill="none" stroke="#9a32cd" stroke-dasharray="5,2" d="M777.8054,-797.6852C760.5568,-723.8994 688.8047,-457.0961 526.0569,-320 520.9362,-315.6864 487.4939,-303.6878 462.3941,-295.0527"/>
<polygon fill="#9a32cd" stroke="#9a32cd" points="774.4026,-798.5058 780.0358,-807.479 781.2278,-796.9514 774.4026,-798.5058"/>
<text text-anchor="middle" x="737.5569" y="-564" font-family="Helvetica,sans-Serif" font-size="10.00" fill="#000000"> fMethodName</text>
<text text-anchor="middle" x="737.5569" y="-553" font-family="Helvetica,sans-Serif" font-size="10.00" fill="#000000">fToken</text>
<text text-anchor="middle" x="737.5569" y="-542" font-family="Helvetica,sans-Serif" font-size="10.00" fill="#000000">fHost</text>
<text text-anchor="middle" x="737.5569" y="-531" font-family="Helvetica,sans-Serif" font-size="10.00" fill="#000000">fUser</text>
<text text-anchor="middle" x="737.5569" y="-520" font-family="Helvetica,sans-Serif" font-size="10.00" fill="#000000">fID</text>
</g>
<!-- Node10&#45;&gt;Node28 -->
<g id="edge40" class="edge">
<title>Node10&#45;&gt;Node28</title>
<path fill="none" stroke="#9a32cd" stroke-dasharray="5,2" d="M746.3545,-814.6686C696.6444,-810.9769 609.4797,-802.7577 581.0569,-789 568.3244,-782.837 569.1887,-775.7282 558.0569,-767 549.5065,-760.2958 539.3041,-753.7245 530.8772,-748.6345"/>
<polygon fill="#9a32cd" stroke="#9a32cd" points="746.1337,-818.1617 756.359,-815.3881 746.6358,-811.1797 746.1337,-818.1617"/>
<text text-anchor="middle" x="610.0569" y="-775.5" font-family="Helvetica,sans-Serif" font-size="10.00" fill="#000000"> fHostname</text>
</g>
<!-- Node11 -->
<g id="node7" class="node">
<title>Node11</title>
<g id="a_node7"><a xlink:href="structTString_1_1Rep__t.html" target="_top" xlink:title="TString::Rep_t">
<polygon fill="#ffffff" stroke="#000000" points="740.0569,-874.5 740.0569,-893.5 824.0569,-893.5 824.0569,-874.5 740.0569,-874.5"/>
<text text-anchor="middle" x="782.0569" y="-881.5" font-family="Helvetica,sans-Serif" font-size="10.00" fill="#000000">TString::Rep_t</text>
</a>
</g>
</g>
<!-- Node11&#45;&gt;Node10 -->
<g id="edge6" class="edge">
<title>Node11&#45;&gt;Node10</title>
<path fill="none" stroke="#9a32cd" stroke-dasharray="5,2" d="M782.0569,-864.1079C782.0569,-851.714 782.0569,-836.3263 782.0569,-826.5817"/>
<polygon fill="#9a32cd" stroke="#9a32cd" points="778.557,-864.4005 782.0569,-874.4005 785.557,-864.4006 778.557,-864.4005"/>
<text text-anchor="middle" x="794.5569" y="-848" font-family="Helvetica,sans-Serif" font-size="10.00" fill="#000000"> fRep</text>
</g>
<!-- Node12 -->
<g id="node8" class="node">
<title>Node12</title>
<g id="a_node8"><a xlink:href="structTString_1_1LongStr__t.html" target="_top" xlink:title="TString::LongStr_t">
<polygon fill="#ffffff" stroke="#000000" points="610.5569,-941.5 610.5569,-960.5 713.5569,-960.5 713.5569,-941.5 610.5569,-941.5"/>
<text text-anchor="middle" x="662.0569" y="-948.5" font-family="Helvetica,sans-Serif" font-size="10.00" fill="#000000">TString::LongStr_t</text>
</a>
</g>
</g>
<!-- Node12&#45;&gt;Node11 -->
<g id="edge7" class="edge">
<title>Node12&#45;&gt;Node11</title>
<path fill="none" stroke="#9a32cd" stroke-dasharray="5,2" d="M688.2337,-936.3846C711.5058,-923.391 744.8602,-904.7681 764.8957,-893.5817"/>
<polygon fill="#9a32cd" stroke="#9a32cd" points="686.275,-933.4696 679.25,-941.4005 689.6875,-939.5815 686.275,-933.4696"/>
<text text-anchor="middle" x="744.5569" y="-915" font-family="Helvetica,sans-Serif" font-size="10.00" fill="#000000"> fLong</text>
</g>
<!-- Node13 -->
<g id="node9" class="node">
<title>Node13</title>
<g id="a_node9"><a xlink:href="structTString_1_1RawStr__t.html" target="_top" xlink:title="TString::RawStr_t">
<polygon fill="#ffffff" stroke="#000000" points="731.5569,-941.5 731.5569,-960.5 832.5569,-960.5 832.5569,-941.5 731.5569,-941.5"/>
<text text-anchor="middle" x="782.0569" y="-948.5" font-family="Helvetica,sans-Serif" font-size="10.00" fill="#000000">TString::RawStr_t</text>
</a>
</g>
</g>
<!-- Node13&#45;&gt;Node11 -->
<g id="edge8" class="edge">
<title>Node13&#45;&gt;Node11</title>
<path fill="none" stroke="#9a32cd" stroke-dasharray="5,2" d="M782.0569,-931.1079C782.0569,-918.714 782.0569,-903.3263 782.0569,-893.5817"/>
<polygon fill="#9a32cd" stroke="#9a32cd" points="778.557,-931.4005 782.0569,-941.4005 785.557,-931.4006 778.557,-931.4005"/>
<text text-anchor="middle" x="796.0569" y="-915" font-family="Helvetica,sans-Serif" font-size="10.00" fill="#000000"> fRaw</text>
</g>
<!-- Node14 -->
<g id="node10" class="node">
<title>Node14</title>
<g id="a_node10"><a xlink:href="structTString_1_1ShortStr__t.html" target="_top" xlink:title="TString::ShortStr_t">
<polygon fill="#ffffff" stroke="#000000" points="850.5569,-941.5 850.5569,-960.5 955.5569,-960.5 955.5569,-941.5 850.5569,-941.5"/>
<text text-anchor="middle" x="903.0569" y="-948.5" font-family="Helvetica,sans-Serif" font-size="10.00" fill="#000000">TString::ShortStr_t</text>
</a>
</g>
</g>
<!-- Node14&#45;&gt;Node11 -->
<g id="edge9" class="edge">
<title>Node14&#45;&gt;Node11</title>
<path fill="none" stroke="#9a32cd" stroke-dasharray="5,2" d="M876.6619,-936.3846C853.1959,-923.391 819.5635,-904.7681 799.3611,-893.5817"/>
<polygon fill="#9a32cd" stroke="#9a32cd" points="875.2767,-939.6183 885.7205,-941.4005 878.6676,-933.4944 875.2767,-939.6183"/>
<text text-anchor="middle" x="865.5569" y="-915" font-family="Helvetica,sans-Serif" font-size="10.00" fill="#000000"> fShort</text>
</g>
<!-- Node15 -->
<g id="node11" class="node">
<title>Node15</title>
<polygon fill="#ffffff" stroke="#bfbfbf" points="12.0569,-535 12.0569,-554 62.0569,-554 62.0569,-535 12.0569,-535"/>
<text text-anchor="middle" x="37.0569" y="-542" font-family="Helvetica,sans-Serif" font-size="10.00" fill="#000000">TFdSet</text>
</g>
<!-- Node15&#45;&gt;Node7 -->
<g id="edge10" class="edge">
<title>Node15&#45;&gt;Node7</title>
<path fill="none" stroke="#9a32cd" stroke-dasharray="5,2" d="M27.5724,-525.5098C15.8486,-499.0144 .2861,-450.958 25.0569,-422 37.2768,-407.7144 157.9218,-395.2213 215.1827,-390.0432"/>
<polygon fill="#9a32cd" stroke="#9a32cd" points="24.5244,-527.2542 31.9349,-534.8262 30.8638,-524.2857 24.5244,-527.2542"/>
<text text-anchor="middle" x="54.5569" y="-480" font-family="Helvetica,sans-Serif" font-size="10.00" fill="#000000"> fReadready</text>
<text text-anchor="middle" x="54.5569" y="-469" font-family="Helvetica,sans-Serif" font-size="10.00" fill="#000000">fSignals</text>
<text text-anchor="middle" x="54.5569" y="-458" font-family="Helvetica,sans-Serif" font-size="10.00" fill="#000000">fReadmask</text>
<text text-anchor="middle" x="54.5569" y="-447" font-family="Helvetica,sans-Serif" font-size="10.00" fill="#000000">fWriteready</text>
<text text-anchor="middle" x="54.5569" y="-436" font-family="Helvetica,sans-Serif" font-size="10.00" fill="#000000">fWritemask</text>
</g>
<!-- Node16 -->
<g id="node12" class="node">
<title>Node16</title>
<g id="a_node12"><a xlink:href="classTSeqCollection.html" target="_top" xlink:title="Sequenceable collection abstract base class. ">
<polygon fill="#ffffff" stroke="#000000" points="82.5569,-535 82.5569,-554 171.5569,-554 171.5569,-535 82.5569,-535"/>
<text text-anchor="middle" x="127.0569" y="-542" font-family="Helvetica,sans-Serif" font-size="10.00" fill="#000000">TSeqCollection</text>
</a>
</g>
</g>
<!-- Node16&#45;&gt;Node7 -->
<g id="edge11" class="edge">
<title>Node16&#45;&gt;Node7</title>
<path fill="none" stroke="#9a32cd" stroke-dasharray="5,2" d="M113.2293,-526.3272C108.0183,-518.3816 102.7121,-508.6774 100.0569,-499 91.002,-465.9974 78.8428,-448.8538 100.0569,-422 114.1324,-404.1825 177.0554,-394.5803 215.2362,-390.3033"/>
<polygon fill="#9a32cd" stroke="#9a32cd" points="110.5264,-528.5684 119.1383,-534.7398 116.2546,-524.545 110.5264,-528.5684"/>
<text text-anchor="middle" x="153.0569" y="-491" font-family="Helvetica,sans-Serif" font-size="10.00" fill="#000000"> fSignalHandler</text>
<text text-anchor="middle" x="153.0569" y="-480" font-family="Helvetica,sans-Serif" font-size="10.00" fill="#000000">fFileHandler</text>
<text text-anchor="middle" x="153.0569" y="-469" font-family="Helvetica,sans-Serif" font-size="10.00" fill="#000000">fStdExceptionHandler</text>
<text text-anchor="middle" x="153.0569" y="-458" font-family="Helvetica,sans-Serif" font-size="10.00" fill="#000000">fOnExitList</text>
<text text-anchor="middle" x="153.0569" y="-447" font-family="Helvetica,sans-Serif" font-size="10.00" fill="#000000">fHelpers</text>
<text text-anchor="middle" x="153.0569" y="-436" font-family="Helvetica,sans-Serif" font-size="10.00" fill="#000000">fCompiled</text>
<text text-anchor="middle" x="153.0569" y="-425" font-family="Helvetica,sans-Serif" font-size="10.00" fill="#000000">fTimers</text>
</g>
<!-- Node24 -->
<g id="node20" class="node">
<title>Node24</title>
<g id="a_node20"><a xlink:href="classTList.html" target="_top" xlink:title="A doubly linked list. ">
<polygon fill="#ffffff" stroke="#000000" points="300.0569,-378 300.0569,-397 340.0569,-397 340.0569,-378 300.0569,-378"/>
<text text-anchor="middle" x="320.0569" y="-385" font-family="Helvetica,sans-Serif" font-size="10.00" fill="#000000">TList</text>
</a>
</g>
</g>
<!-- Node16&#45;&gt;Node24 -->
<g id="edge32" class="edge">
<title>Node16&#45;&gt;Node24</title>
<path fill="none" stroke="#191970" d="M155.8494,-530.1814C171.3234,-521.9374 190.3867,-510.8738 206.0569,-499 249.5257,-466.0623 293.6016,-417.7899 311.609,-397.2889"/>
<polygon fill="#191970" stroke="#191970" points="153.9888,-527.2044 146.7409,-534.9322 157.226,-533.4109 153.9888,-527.2044"/>
</g>
<!-- Node17&#45;&gt;Node16 -->
<g id="edge12" class="edge">
<title>Node17&#45;&gt;Node16</title>
<path fill="none" stroke="#191970" d="M127.0569,-719.2359C127.0569,-678.0934 127.0569,-584.5526 127.0569,-554.2035"/>
<polygon fill="#191970" stroke="#191970" points="123.557,-719.3547 127.0569,-729.3547 130.557,-719.3547 123.557,-719.3547"/>
</g>
<!-- Node17&#45;&gt;Node17 -->
<g id="edge18" class="edge">
<title>Node17&#45;&gt;Node17</title>
<path fill="none" stroke="#9a32cd" stroke-dasharray="5,2" d="M172.8374,-744.8745C177.5464,-743.7182 180.5569,-741.76 180.5569,-739 180.5569,-734.584 172.85,-732.2207 162.8101,-731.9102"/>
<polygon fill="#9a32cd" stroke="#9a32cd" points="172.3163,-741.4119 162.8101,-746.0898 173.1586,-748.3611 172.3163,-741.4119"/>
<text text-anchor="middle" x="229.5569" y="-736.5" font-family="Helvetica,sans-Serif" font-size="10.00" fill="#000000"> fgCurrentCollection</text>
</g>
<!-- Node32 -->
<g id="node28" class="node">
<title>Node32</title>
<g id="a_node28"><a xlink:href="classTHashTable.html" target="_top" xlink:title="THashTable implements a hash table to store TObject&#39;s. ">
<polygon fill="#ffffff" stroke="#000000" points="80.5569,-276 80.5569,-295 153.5569,-295 153.5569,-276 80.5569,-276"/>
<text text-anchor="middle" x="117.0569" y="-283" font-family="Helvetica,sans-Serif" font-size="10.00" fill="#000000">THashTable</text>
</a>
</g>
</g>
<!-- Node17&#45;&gt;Node32 -->
<g id="edge48" class="edge">
<title>Node17&#45;&gt;Node32</title>
<path fill="none" stroke="#191970" d="M108.8345,-722.4748C79.7801,-694.7494 24.0934,-635.6188 3.0569,-572 -4.0806,-550.4148 3.6629,-433.5608 8.0569,-422 29.2825,-366.1545 82.388,-315.4264 105.7389,-295.0102"/>
<polygon fill="#191970" stroke="#191970" points="106.5806,-725.1591 116.2722,-729.4396 111.3652,-720.0496 106.5806,-725.1591"/>
</g>
<!-- Node18&#45;&gt;Node17 -->
<g id="edge14" class="edge">
<title>Node18&#45;&gt;Node17</title>
<path fill="none" stroke="#9a32cd" stroke-dasharray="5,2" d="M175.853,-800.7455C171.8117,-797.0293 167.679,-792.9938 164.0569,-789 152.1592,-775.8816 140.3206,-759.0511 133.3482,-748.6485"/>
<polygon fill="#9a32cd" stroke="#9a32cd" points="173.5513,-803.3824 183.3535,-807.4034 178.1983,-798.1473 173.5513,-803.3824"/>
<text text-anchor="middle" x="215.5569" y="-775.5" font-family="Helvetica,sans-Serif" font-size="10.00" fill="#000000"> fgGarbageCollection</text>
</g>
<!-- Node19&#45;&gt;Node6 -->
<g id="edge21" class="edge">
<title>Node19&#45;&gt;Node6</title>
<path fill="none" stroke="#9a32cd" stroke-dasharray="5,2" d="M859.0569,-125.2866C859.0569,-109.7395 859.0569,-88.7276 859.0569,-76.6426"/>
<polygon fill="#9a32cd" stroke="#9a32cd" points="855.557,-125.4356 859.0569,-135.4357 862.557,-125.4357 855.557,-125.4356"/>
<text text-anchor="middle" x="871.5569" y="-103.5" font-family="Helvetica,sans-Serif" font-size="10.00" fill="#000000"> fFTP</text>
</g>
<!-- Node20&#45;&gt;Node19 -->
<g id="edge23" class="edge">
<title>Node20&#45;&gt;Node19</title>
<path fill="none" stroke="#9a32cd" stroke-dasharray="5,2" d="M674.7825,-200.6143C722.2374,-186.2924 801.9873,-162.2237 839.0288,-151.0445"/>
<polygon fill="#9a32cd" stroke="#9a32cd" points="673.7356,-197.2743 665.1733,-203.5144 675.7581,-203.9758 673.7356,-197.2743"/>
<text text-anchor="middle" x="781.0569" y="-176" font-family="Helvetica,sans-Serif" font-size="10.00" fill="#000000"> fSocket</text>
</g>
<!-- Node21&#45;&gt;Node20 -->
<g id="edge25" class="edge">
<title>Node21&#45;&gt;Node20</title>
<path fill="none" stroke="#9a32cd" stroke-dasharray="5,2" d="M724.3247,-758.4288C733.555,-699.0255 756.9073,-515.992 721.0569,-371 705.8448,-309.477 661.939,-245.5465 644.4112,-221.7123"/>
<polygon fill="#9a32cd" stroke="#9a32cd" points="720.8645,-757.9022 722.7356,-768.3305 727.776,-759.0114 720.8645,-757.9022"/>
<text text-anchor="middle" x="760.5569" y="-458" font-family="Helvetica,sans-Serif" font-size="10.00" fill="#000000"> fBitsInfo</text>
</g>
<!-- Node22&#45;&gt;Node20 -->
<g id="edge27" class="edge">
<title>Node22&#45;&gt;Node20</title>
<path fill="none" stroke="#9a32cd" stroke-dasharray="5,2" d="M439.7404,-266.0356C443.4588,-256.722 449.292,-246.2611 458.0569,-240 481.7319,-223.0878 564.6687,-215.9965 608.8516,-213.3639"/>
<polygon fill="#9a32cd" stroke="#9a32cd" points="436.3324,-265.1839 436.3971,-275.7785 442.9534,-267.4559 436.3324,-265.1839"/>
<text text-anchor="middle" x="489.5569" y="-243" font-family="Helvetica,sans-Serif" font-size="10.00" fill="#000000"> fSecContext</text>
</g>
<!-- Node23 -->
<g id="node19" class="node">
<title>Node23</title>
<g id="a_node19"><a xlink:href="classTDatime.html" target="_top" xlink:title="This class stores the date and time with a precision of one second in an unsigned 32 bit word (950130...">
<polygon fill="#ffffff" stroke="#000000" points="465.5569,-378 465.5569,-397 524.5569,-397 524.5569,-378 465.5569,-378"/>
<text text-anchor="middle" x="495.0569" y="-385" font-family="Helvetica,sans-Serif" font-size="10.00" fill="#000000">TDatime</text>
</a>
</g>
</g>
<!-- Node23&#45;&gt;Node22 -->
<g id="edge30" class="edge">
<title>Node23&#45;&gt;Node22</title>
<path fill="none" stroke="#9a32cd" stroke-dasharray="5,2" d="M484.0301,-369.0618C471.0261,-347.3173 449.9046,-311.9994 439.799,-295.1016"/>
<polygon fill="#9a32cd" stroke="#9a32cd" points="481.0715,-370.9339 489.2079,-377.7198 487.0791,-367.341 481.0715,-370.9339"/>
<text text-anchor="middle" x="497.5569" y="-334" font-family="Helvetica,sans-Serif" font-size="10.00" fill="#000000"> fExpDate</text>
</g>
<!-- Node24&#45;&gt;Node20 -->
<g id="edge36" class="edge">
<title>Node24&#45;&gt;Node20</title>
<path fill="none" stroke="#9a32cd" stroke-dasharray="5,2" d="M319.0926,-367.562C318.9552,-341.4985 322.7388,-295.9992 348.0569,-269 383.3882,-231.3226 542.8993,-217.6155 608.6211,-213.5093"/>
<polygon fill="#9a32cd" stroke="#9a32cd" points="315.5982,-367.8264 319.3541,-377.7331 322.5958,-367.6464 315.5982,-367.8264"/>
<text text-anchor="middle" x="367.0569" y="-283" font-family="Helvetica,sans-Serif" font-size="10.00" fill="#000000"> fUUIDs</text>
</g>
<!-- Node24&#45;&gt;Node22 -->
<g id="edge31" class="edge">
<title>Node24&#45;&gt;Node22</title>
<path fill="none" stroke="#9a32cd" stroke-dasharray="5,2" d="M332.4758,-369.3143C342.9631,-354.8233 358.9689,-334.6113 376.0569,-320 387.7221,-310.0255 402.6363,-301.2252 414.4198,-295.0093"/>
<polygon fill="#9a32cd" stroke="#9a32cd" points="329.3279,-367.7051 326.4252,-377.8945 335.0486,-371.7392 329.3279,-367.7051"/>
<text text-anchor="middle" x="399.5569" y="-334" font-family="Helvetica,sans-Serif" font-size="10.00" fill="#000000"> fCleanup</text>
</g>
<!-- Node31 -->
<g id="node27" class="node">
<title>Node31</title>
<g id="a_node27"><a xlink:href="classTHashList.html" target="_top" xlink:title="THashList implements a hybrid collection class consisting of a hash table and a list to store TObject...">
<polygon fill="#ffffff" stroke="#000000" points="84.5569,-202.5 84.5569,-221.5 149.5569,-221.5 149.5569,-202.5 84.5569,-202.5"/>
<text text-anchor="middle" x="117.0569" y="-209.5" font-family="Helvetica,sans-Serif" font-size="10.00" fill="#000000">THashList</text>
</a>
</g>
</g>
<!-- Node24&#45;&gt;Node31 -->
<g id="edge46" class="edge">
<title>Node24&#45;&gt;Node31</title>
<path fill="none" stroke="#191970" d="M291.9983,-373.8305C289.3471,-372.7856 286.6727,-371.8204 284.0569,-371 189.511,-341.3462 125.6733,-385.328 72.0569,-302 54.1913,-274.2342 87.233,-238.411 105.752,-221.5617"/>
<polygon fill="#191970" stroke="#191970" points="290.7829,-377.1177 301.3526,-377.848 293.5453,-370.6858 290.7829,-377.1177"/>
</g>
<!-- Node24&#45;&gt;Node32 -->
<g id="edge49" class="edge">
<title>Node24&#45;&gt;Node32</title>
<path fill="none" stroke="#9a32cd" stroke-dasharray="5,2" d="M291.8471,-373.3256C249.9124,-352.255 172.2212,-313.218 136.2518,-295.1447"/>
<polygon fill="#9a32cd" stroke="#9a32cd" points="290.4522,-376.5417 300.9591,-377.9041 293.5951,-370.2869 290.4522,-376.5417"/>
<text text-anchor="middle" x="263.0569" y="-334" font-family="Helvetica,sans-Serif" font-size="10.00" fill="#000000"> fCont</text>
</g>
<!-- Node25 -->
<g id="node21" class="node">
<title>Node25</title>
<polygon fill="#ffffff" stroke="#bfbfbf" points="298.0569,-535 298.0569,-554 446.0569,-554 446.0569,-535 298.0569,-535"/>
<text text-anchor="middle" x="372.0569" y="-542" font-family="Helvetica,sans-Serif" font-size="10.00" fill="#000000">std::weak_ptr&lt; TObjLink &gt;</text>
</g>
<!-- Node25&#45;&gt;Node24 -->
<g id="edge33" class="edge">
<title>Node25&#45;&gt;Node24</title>
<path fill="none" stroke="#9a32cd" stroke-dasharray="5,2" d="M365.6006,-525.0069C354.394,-491.1716 331.7336,-422.7548 323.3085,-397.3173"/>
<polygon fill="#9a32cd" stroke="#9a32cd" points="362.3373,-526.2865 368.804,-534.6789 368.9823,-524.0856 362.3373,-526.2865"/>
<text text-anchor="middle" x="374.5569" y="-458" font-family="Helvetica,sans-Serif" font-size="10.00" fill="#000000"> fCache</text>
</g>
<!-- Node26 -->
<g id="node22" class="node">
<title>Node26</title>
<g id="a_node22"><a xlink:href="classTVirtualMutex.html" target="_top" xlink:title="This class implements a mutex interface. ">
<polygon fill="#ffffff" stroke="#000000" points="703.5569,-276 703.5569,-295 788.5569,-295 788.5569,-276 703.5569,-276"/>
<text text-anchor="middle" x="746.0569" y="-283" font-family="Helvetica,sans-Serif" font-size="10.00" fill="#000000">TVirtualMutex</text>
</a>
</g>
</g>
<!-- Node26&#45;&gt;Node20 -->
<g id="edge34" class="edge">
<title>Node26&#45;&gt;Node20</title>
<path fill="none" stroke="#9a32cd" stroke-dasharray="5,2" d="M727.2514,-269.074C716.4403,-259.998 702.395,-248.8114 689.0569,-240 678.7908,-233.218 666.7233,-226.6418 656.7991,-221.5686"/>
<polygon fill="#9a32cd" stroke="#9a32cd" points="725.2736,-271.9873 735.153,-275.8146 729.8166,-266.6617 725.2736,-271.9873"/>
<text text-anchor="middle" x="741.0569" y="-243" font-family="Helvetica,sans-Serif" font-size="10.00" fill="#000000"> fLastUsageMtx</text>
</g>
<!-- Node27 -->
<g id="node23" class="node">
<title>Node27</title>
<g id="a_node23"><a xlink:href="classTTimeStamp.html" target="_top" xlink:title="The TTimeStamp encapsulates seconds and ns since EPOCH. ">
<polygon fill="#ffffff" stroke="#000000" points="491.5569,-276 491.5569,-295 570.5569,-295 570.5569,-276 491.5569,-276"/>
<text text-anchor="middle" x="531.0569" y="-283" font-family="Helvetica,sans-Serif" font-size="10.00" fill="#000000">TTimeStamp</text>
</a>
</g>
</g>
<!-- Node27&#45;&gt;Node20 -->
<g id="edge37" class="edge">
<title>Node27&#45;&gt;Node20</title>
<path fill="none" stroke="#9a32cd" stroke-dasharray="5,2" d="M525.4335,-265.881C524.1411,-257.1344 524.496,-247.2032 530.0569,-240 539.6494,-227.5743 580.6344,-219.5993 609.0002,-215.4583"/>
<polygon fill="#9a32cd" stroke="#9a32cd" points="522.0259,-266.6819 527.5876,-275.6995 528.8632,-265.1817 522.0259,-266.6819"/>
<text text-anchor="middle" x="559.0569" y="-243" font-family="Helvetica,sans-Serif" font-size="10.00" fill="#000000"> fLastUsage</text>
</g>
<!-- Node28&#45;&gt;Node20 -->
<g id="edge38" class="edge">
<title>Node28&#45;&gt;Node20</title>
<path fill="none" stroke="#9a32cd" stroke-dasharray="5,2" d="M564.4768,-734.7101C596.9207,-730.7844 634.8619,-723.6044 645.0569,-711 661.0287,-691.2536 641.027,-288.98 637.5546,-221.5499"/>
<polygon fill="#9a32cd" stroke="#9a32cd" points="563.7224,-731.273 554.1784,-735.8731 564.508,-738.2288 563.7224,-731.273"/>
<text text-anchor="middle" x="681.0569" y="-390.5" font-family="Helvetica,sans-Serif" font-size="10.00" fill="#000000"> fLocalAddress</text>
<text text-anchor="middle" x="681.0569" y="-379.5" font-family="Helvetica,sans-Serif" font-size="10.00" fill="#000000">fAddress</text>
</g>
<!-- Node29 -->
<g id="node25" class="node">
<title>Node29</title>
<polygon fill="#ffffff" stroke="#bfbfbf" points="511.5569,-807.5 511.5569,-826.5 636.5569,-826.5 636.5569,-807.5 511.5569,-807.5"/>
<text text-anchor="middle" x="574.0569" y="-814.5" font-family="Helvetica,sans-Serif" font-size="10.00" fill="#000000">std::vector&lt; TString &gt;</text>
</g>
<!-- Node29&#45;&gt;Node28 -->
<g id="edge41" class="edge">
<title>Node29&#45;&gt;Node28</title>
<path fill="none" stroke="#9a32cd" stroke-dasharray="5,2" d="M529.1047,-802.5251C523.5647,-798.9417 518.6114,-794.4989 515.0569,-789 507.2328,-776.896 509.1351,-759.4658 511.4397,-748.7062"/>
<polygon fill="#9a32cd" stroke="#9a32cd" points="527.7224,-805.758 538.1769,-807.4771 531.0762,-799.6137 527.7224,-805.758"/>
<text text-anchor="middle" x="536.5569" y="-775.5" font-family="Helvetica,sans-Serif" font-size="10.00" fill="#000000"> fAliases</text>
</g>
<!-- Node30 -->
<g id="node26" class="node">
<title>Node30</title>
<polygon fill="#ffffff" stroke="#bfbfbf" points="373.0569,-807.5 373.0569,-826.5 493.0569,-826.5 493.0569,-807.5 373.0569,-807.5"/>
<text text-anchor="middle" x="433.0569" y="-814.5" font-family="Helvetica,sans-Serif" font-size="10.00" fill="#000000">std::vector&lt; UInt_t &gt;</text>
</g>
<!-- Node30&#45;&gt;Node28 -->
<g id="edge42" class="edge">
<title>Node30&#45;&gt;Node28</title>
<path fill="none" stroke="#9a32cd" stroke-dasharray="5,2" d="M434.5047,-797.3544C436.1725,-787.2461 439.6903,-775.332 447.0569,-767 454.4052,-758.6886 464.6186,-752.7827 474.8589,-748.6106"/>
<polygon fill="#9a32cd" stroke="#9a32cd" points="431.0202,-797.0185 433.3265,-807.3592 437.9721,-797.8372 431.0202,-797.0185"/>
<text text-anchor="middle" x="476.0569" y="-775.5" font-family="Helvetica,sans-Serif" font-size="10.00" fill="#000000"> fAddresses</text>
</g>
<!-- Node31&#45;&gt;Node5 -->
<g id="edge45" class="edge">
<title>Node31&#45;&gt;Node5</title>
<path fill="none" stroke="#9a32cd" stroke-dasharray="5,2" d="M120.9725,-192.3599C127.4268,-165.577 143.0242,-118.2733 176.0569,-95 228.6828,-57.9222 676.6969,-23.0355 817.1342,-12.9251"/>
<polygon fill="#9a32cd" stroke="#9a32cd" points="117.4826,-191.9323 118.742,-202.452 124.3177,-193.443 117.4826,-191.9323"/>
<text text-anchor="middle" x="209.5569" y="-109" font-family="Helvetica,sans-Serif" font-size="10.00" fill="#000000"> fgAddrFQDN</text>
<text text-anchor="middle" x="209.5569" y="-98" font-family="Helvetica,sans-Serif" font-size="10.00" fill="#000000">fgAdminHash</text>
</g>
<!-- Node32&#45;&gt;Node31 -->
<g id="edge47" class="edge">
<title>Node32&#45;&gt;Node31</title>
<path fill="none" stroke="#9a32cd" stroke-dasharray="5,2" d="M117.0569,-265.6616C117.0569,-251.481 117.0569,-233.004 117.0569,-221.8458"/>
<polygon fill="#9a32cd" stroke="#9a32cd" points="113.557,-265.8911 117.0569,-275.8912 120.557,-265.8912 113.557,-265.8911"/>
<text text-anchor="middle" x="133.5569" y="-243" font-family="Helvetica,sans-Serif" font-size="10.00" fill="#000000"> fTable</text>
</g>
</g>
</svg>
