<?xml version="1.0" encoding="UTF-8" standalone="no"?>
<!DOCTYPE svg PUBLIC "-//W3C//DTD SVG 1.1//EN"
 "http://www.w3.org/Graphics/SVG/1.1/DTD/svg11.dtd">
<!-- Generated by graphviz version 2.40.1 (0)
 -->
<!-- Title: TRecEvent Pages: 1 -->
<svg width="312pt" height="140pt"
 viewBox="0.00 0.00 312.00 140.00" xmlns="http://www.w3.org/2000/svg" xmlns:xlink="http://www.w3.org/1999/xlink">
<g id="graph0" class="graph" transform="scale(1 1) rotate(0) translate(4 136)">
<title>TRecEvent</title>
<polygon fill="#ffffff" stroke="transparent" points="-4,4 -4,-136 308,-136 308,4 -4,4"/>
<!-- Node0 -->
<g id="node1" class="node">
<title>Node0</title>
<polygon fill="#bfbfbf" stroke="#000000" points="121,-56.5 121,-75.5 189,-75.5 189,-56.5 121,-56.5"/>
<text text-anchor="middle" x="155" y="-63.5" font-family="Helvetica,sans-Serif" font-size="10.00" fill="#000000">TRecEvent</text>
</g>
<!-- Node2 -->
<g id="node3" class="node">
<title>Node2</title>
<g id="a_node3"><a xlink:href="classTRecCmdEvent.html" target="_top" xlink:title="TRecCmdEvent">
<polygon fill="#ffffff" stroke="#000000" points="0,-.5 0,-19.5 90,-19.5 90,-.5 0,-.5"/>
<text text-anchor="middle" x="45" y="-7.5" font-family="Helvetica,sans-Serif" font-size="10.00" fill="#000000">TRecCmdEvent</text>
</a>
</g>
</g>
<!-- Node0&#45;&gt;Node2 -->
<g id="edge2" class="edge">
<title>Node0&#45;&gt;Node2</title>
<path fill="none" stroke="#191970" d="M126.7086,-51.5971C106.9889,-41.558 81.22,-28.4393 63.941,-19.6427"/>
<polygon fill="#191970" stroke="#191970" points="125.3399,-54.8277 135.8395,-56.2455 128.5157,-48.5896 125.3399,-54.8277"/>
</g>
<!-- Node3 -->
<g id="node4" class="node">
<title>Node3</title>
<g id="a_node4"><a xlink:href="classTRecExtraEvent.html" target="_top" xlink:title="TRecExtraEvent">
<polygon fill="#ffffff" stroke="#000000" points="108.5,-.5 108.5,-19.5 201.5,-19.5 201.5,-.5 108.5,-.5"/>
<text text-anchor="middle" x="155" y="-7.5" font-family="Helvetica,sans-Serif" font-size="10.00" fill="#000000">TRecExtraEvent</text>
</a>
</g>
</g>
<!-- Node0&#45;&gt;Node3 -->
<g id="edge3" class="edge">
<title>Node0&#45;&gt;Node3</title>
<path fill="none" stroke="#191970" d="M155,-46.1575C155,-37.155 155,-26.9199 155,-19.6427"/>
<polygon fill="#191970" stroke="#191970" points="151.5001,-46.2455 155,-56.2455 158.5001,-46.2456 151.5001,-46.2455"/>
</g>
<!-- Node4 -->
<g id="node5" class="node">
<title>Node4</title>
<g id="a_node5"><a xlink:href="classTRecGuiEvent.html" target="_top" xlink:title="TRecGuiEvent">
<polygon fill="#ffffff" stroke="#000000" points="220,-.5 220,-19.5 304,-19.5 304,-.5 220,-.5"/>
<text text-anchor="middle" x="262" y="-7.5" font-family="Helvetica,sans-Serif" font-size="10.00" fill="#000000">TRecGuiEvent</text>
</a>
</g>
</g>
<!-- Node0&#45;&gt;Node4 -->
<g id="edge4" class="edge">
<title>Node0&#45;&gt;Node4</title>
<path fill="none" stroke="#191970" d="M182.5199,-51.5971C201.7017,-41.558 226.7678,-28.4393 243.5756,-19.6427"/>
<polygon fill="#191970" stroke="#191970" points="180.875,-48.5075 173.638,-56.2455 184.1209,-54.7095 180.875,-48.5075"/>
</g>
<!-- Node1 -->
<g id="node2" class="node">
<title>Node1</title>
<g id="a_node2"><a xlink:href="classTObject.html" target="_top" xlink:title="Mother of all ROOT objects. ">
<polygon fill="#ffffff" stroke="#000000" points="128,-112.5 128,-131.5 182,-131.5 182,-112.5 128,-112.5"/>
<text text-anchor="middle" x="155" y="-119.5" font-family="Helvetica,sans-Serif" font-size="10.00" fill="#000000">TObject</text>
</a>
</g>
</g>
<!-- Node1&#45;&gt;Node0 -->
<g id="edge1" class="edge">
<title>Node1&#45;&gt;Node0</title>
<path fill="none" stroke="#191970" d="M155,-102.1575C155,-93.155 155,-82.9199 155,-75.6427"/>
<polygon fill="#191970" stroke="#191970" points="151.5001,-102.2455 155,-112.2455 158.5001,-102.2456 151.5001,-102.2455"/>
</g>
</g>
</svg>
