<?xml version="1.0" encoding="UTF-8" standalone="no"?>
<!DOCTYPE svg PUBLIC "-//W3C//DTD SVG 1.1//EN"
 "http://www.w3.org/Graphics/SVG/1.1/DTD/svg11.dtd">
<!-- Generated by graphviz version 2.40.1 (0)
 -->
<!-- Title: TThreadPool&lt; aTask, aParam &gt; Pages: 1 -->
<svg width="1157pt" height="443pt"
 viewBox="0.00 0.00 1157.00 443.00" xmlns="http://www.w3.org/2000/svg" xmlns:xlink="http://www.w3.org/1999/xlink">
<g id="graph0" class="graph" transform="scale(1 1) rotate(0) translate(4 439)">
<title>TThreadPool&lt; aTask, aParam &gt;</title>
<polygon fill="#ffffff" stroke="transparent" points="-4,4 -4,-439 1153,-439 1153,4 -4,4"/>
<!-- Node2 -->
<g id="node1" class="node">
<title>Node2</title>
<polygon fill="#bfbfbf" stroke="#000000" points="1030,-284 1030,-314 1149,-314 1149,-284 1030,-284"/>
<text text-anchor="start" x="1038" y="-302" font-family="Helvetica,sans-Serif" font-size="10.00" fill="#000000">TThreadPool&lt; aTask,</text>
<text text-anchor="middle" x="1089.5" y="-291" font-family="Helvetica,sans-Serif" font-size="10.00" fill="#000000"> aParam &gt;</text>
</g>
<!-- Node3 -->
<g id="node2" class="node">
<title>Node3</title>
<g id="a_node2"><a xlink:href="classTNonCopyable.html" target="_top" xlink:title="TNonCopyable">
<polygon fill="#ffffff" stroke="#000000" points="789.5,-415.5 789.5,-434.5 877.5,-434.5 877.5,-415.5 789.5,-415.5"/>
<text text-anchor="middle" x="833.5" y="-422.5" font-family="Helvetica,sans-Serif" font-size="10.00" fill="#000000">TNonCopyable</text>
</a>
</g>
</g>
<!-- Node3&#45;&gt;Node2 -->
<g id="edge1" class="edge">
<title>Node3&#45;&gt;Node2</title>
<path fill="none" stroke="#191970" d="M887.7885,-428.2489C925.0892,-428.0639 974.4585,-422.8628 1012,-401 1047.17,-380.5183 1071.6605,-337.1969 1082.7679,-314.1556"/>
<polygon fill="#191970" stroke="#191970" points="887.6319,-424.7479 877.6076,-428.1778 887.5829,-431.7477 887.6319,-424.7479"/>
</g>
<!-- Node4 -->
<g id="node3" class="node">
<title>Node4</title>
<g id="a_node3"><a xlink:href="classTThread.html" target="_top" xlink:title="TThread">
<polygon fill="#ffffff" stroke="#000000" points="805.5,-208.5 805.5,-227.5 861.5,-227.5 861.5,-208.5 805.5,-208.5"/>
<text text-anchor="middle" x="833.5" y="-215.5" font-family="Helvetica,sans-Serif" font-size="10.00" fill="#000000">TThread</text>
</a>
</g>
</g>
<!-- Node4&#45;&gt;Node2 -->
<g id="edge2" class="edge">
<title>Node4&#45;&gt;Node2</title>
<path fill="none" stroke="#9a32cd" stroke-dasharray="5,2" d="M871.6169,-230.0604C916.962,-244.4079 992.6922,-268.3694 1041.8594,-283.9262"/>
<polygon fill="#9a32cd" stroke="#9a32cd" points="872.4646,-226.6577 861.8746,-226.9779 870.3529,-233.3316 872.4646,-226.6577"/>
<text text-anchor="middle" x="966.5" y="-286" font-family="Helvetica,sans-Serif" font-size="10.00" fill="#000000"> fThreadJoinHelper</text>
<text text-anchor="middle" x="966.5" y="-275" font-family="Helvetica,sans-Serif" font-size="10.00" fill="#000000">fThreadMonitor</text>
</g>
<!-- Node4&#45;&gt;Node4 -->
<g id="edge10" class="edge">
<title>Node4&#45;&gt;Node4</title>
<path fill="none" stroke="#9a32cd" stroke-dasharray="5,2" d="M808.9465,-237.0292C810.2858,-242.128 818.4703,-246 833.5,-246 856.9609,-246 863.7426,-236.5653 853.845,-227.7571"/>
<polygon fill="#9a32cd" stroke="#9a32cd" points="812.209,-238.3096 813.155,-227.7571 805.8348,-235.4164 812.209,-238.3096"/>
<text text-anchor="middle" x="833.5" y="-282" font-family="Helvetica,sans-Serif" font-size="10.00" fill="#000000"> fPrev</text>
<text text-anchor="middle" x="833.5" y="-271" font-family="Helvetica,sans-Serif" font-size="10.00" fill="#000000">fHolder</text>
<text text-anchor="middle" x="833.5" y="-260" font-family="Helvetica,sans-Serif" font-size="10.00" fill="#000000">fNext</text>
<text text-anchor="middle" x="833.5" y="-249" font-family="Helvetica,sans-Serif" font-size="10.00" fill="#000000">fgMain</text>
</g>
<!-- Node5 -->
<g id="node4" class="node">
<title>Node5</title>
<g id="a_node4"><a xlink:href="classTNamed.html" target="_top" xlink:title="The TNamed class is the base class for all named ROOT classes. ">
<polygon fill="#ffffff" stroke="#000000" points="562,-147.5 562,-166.5 620,-166.5 620,-147.5 562,-147.5"/>
<text text-anchor="middle" x="591" y="-154.5" font-family="Helvetica,sans-Serif" font-size="10.00" fill="#000000">TNamed</text>
</a>
</g>
</g>
<!-- Node5&#45;&gt;Node4 -->
<g id="edge3" class="edge">
<title>Node5&#45;&gt;Node4</title>
<path fill="none" stroke="#191970" d="M630.1771,-166.8549C679.218,-179.1909 762.0191,-200.0192 805.2717,-210.8993"/>
<polygon fill="#191970" stroke="#191970" points="630.8029,-163.4033 620.2512,-164.358 629.0952,-170.1918 630.8029,-163.4033"/>
</g>
<!-- Node6 -->
<g id="node5" class="node">
<title>Node6</title>
<g id="a_node5"><a xlink:href="classTObject.html" target="_top" xlink:title="Mother of all ROOT objects. ">
<polygon fill="#ffffff" stroke="#000000" points="25.5,-193.5 25.5,-212.5 79.5,-212.5 79.5,-193.5 25.5,-193.5"/>
<text text-anchor="middle" x="52.5" y="-200.5" font-family="Helvetica,sans-Serif" font-size="10.00" fill="#000000">TObject</text>
</a>
</g>
</g>
<!-- Node6&#45;&gt;Node5 -->
<g id="edge4" class="edge">
<title>Node6&#45;&gt;Node5</title>
<path fill="none" stroke="#191970" d="M89.6474,-199.8268C191.0046,-191.1686 470.8222,-167.2659 561.9215,-159.484"/>
<polygon fill="#191970" stroke="#191970" points="89.2391,-196.3488 79.5733,-200.6873 89.835,-203.3234 89.2391,-196.3488"/>
</g>
<!-- Node12 -->
<g id="node11" class="node">
<title>Node12</title>
<g id="a_node11"><a xlink:href="classTThreadImp.html" target="_top" xlink:title="TThreadImp">
<polygon fill="#ffffff" stroke="#000000" points="283,-92.5 283,-111.5 358,-111.5 358,-92.5 283,-92.5"/>
<text text-anchor="middle" x="320.5" y="-99.5" font-family="Helvetica,sans-Serif" font-size="10.00" fill="#000000">TThreadImp</text>
</a>
</g>
</g>
<!-- Node6&#45;&gt;Node12 -->
<g id="edge12" class="edge">
<title>Node6&#45;&gt;Node12</title>
<path fill="none" stroke="#191970" d="M67.9329,-185.7749C81.1901,-172.0706 101.5171,-153.5075 123,-143 174.7483,-117.6893 241.541,-107.9776 282.6765,-104.2687"/>
<polygon fill="#191970" stroke="#191970" points="65.273,-183.4947 60.9889,-193.1848 70.3808,-188.2813 65.273,-183.4947"/>
</g>
<!-- Node15 -->
<g id="node14" class="node">
<title>Node15</title>
<g id="a_node14"><a xlink:href="classTMutexImp.html" target="_top" xlink:title="TMutexImp">
<polygon fill="#ffffff" stroke="#000000" points="181,-308.5 181,-327.5 252,-327.5 252,-308.5 181,-308.5"/>
<text text-anchor="middle" x="216.5" y="-315.5" font-family="Helvetica,sans-Serif" font-size="10.00" fill="#000000">TMutexImp</text>
</a>
</g>
</g>
<!-- Node6&#45;&gt;Node15 -->
<g id="edge16" class="edge">
<title>Node6&#45;&gt;Node15</title>
<path fill="none" stroke="#191970" d="M70.428,-219.5269C93.2496,-239.9892 134.4735,-275.0616 174,-299 179.6689,-302.4332 186.0666,-305.6164 192.1447,-308.3576"/>
<polygon fill="#191970" stroke="#191970" points="72.6505,-216.8177 62.8899,-212.6969 67.9504,-222.0051 72.6505,-216.8177"/>
</g>
<!-- Node16 -->
<g id="node15" class="node">
<title>Node16</title>
<g id="a_node15"><a xlink:href="classTCondition.html" target="_top" xlink:title="TCondition">
<polygon fill="#ffffff" stroke="#000000" points="557,-232.5 557,-251.5 625,-251.5 625,-232.5 557,-232.5"/>
<text text-anchor="middle" x="591" y="-239.5" font-family="Helvetica,sans-Serif" font-size="10.00" fill="#000000">TCondition</text>
</a>
</g>
</g>
<!-- Node6&#45;&gt;Node16 -->
<g id="edge18" class="edge">
<title>Node6&#45;&gt;Node16</title>
<path fill="none" stroke="#191970" d="M89.6924,-211.4167C100.3936,-213.5575 112.1157,-215.6357 123,-217 284.4681,-237.24 479.2868,-241.1138 556.7935,-241.8401"/>
<polygon fill="#191970" stroke="#191970" points="90.3084,-207.97 79.806,-209.3662 88.8868,-214.8242 90.3084,-207.97"/>
</g>
<!-- Node17 -->
<g id="node16" class="node">
<title>Node17</title>
<g id="a_node16"><a xlink:href="classTConditionImp.html" target="_top" xlink:title="TConditionImp">
<polygon fill="#ffffff" stroke="#000000" points="277,-193.5 277,-212.5 364,-212.5 364,-193.5 277,-193.5"/>
<text text-anchor="middle" x="320.5" y="-200.5" font-family="Helvetica,sans-Serif" font-size="10.00" fill="#000000">TConditionImp</text>
</a>
</g>
</g>
<!-- Node6&#45;&gt;Node17 -->
<g id="edge21" class="edge">
<title>Node6&#45;&gt;Node17</title>
<path fill="none" stroke="#191970" d="M89.8495,-203C138.923,-203 224.954,-203 276.9369,-203"/>
<polygon fill="#191970" stroke="#191970" points="89.6722,-199.5001 79.6721,-203 89.6721,-206.5001 89.6722,-199.5001"/>
</g>
<!-- Node7 -->
<g id="node6" class="node">
<title>Node7</title>
<g id="a_node6"><a xlink:href="classTString.html" target="_top" xlink:title="Basic string class. ">
<polygon fill="#ffffff" stroke="#000000" points="393,-38.5 393,-57.5 444,-57.5 444,-38.5 393,-38.5"/>
<text text-anchor="middle" x="418.5" y="-45.5" font-family="Helvetica,sans-Serif" font-size="10.00" fill="#000000">TString</text>
</a>
</g>
</g>
<!-- Node7&#45;&gt;Node5 -->
<g id="edge5" class="edge">
<title>Node7&#45;&gt;Node5</title>
<path fill="none" stroke="#9a32cd" stroke-dasharray="5,2" d="M433.8019,-65.2576C444.0184,-75.91 458.2456,-89.179 473,-98 499.6618,-113.94 511.3109,-106.9198 539,-121 553.6811,-128.4655 569.0105,-139.542 579.1882,-147.4348"/>
<polygon fill="#9a32cd" stroke="#9a32cd" points="436.1951,-62.6909 426.8288,-57.7387 431.0625,-67.4509 436.1951,-62.6909"/>
<text text-anchor="middle" x="506" y="-135" font-family="Helvetica,sans-Serif" font-size="10.00" fill="#000000"> fTitle</text>
<text text-anchor="middle" x="506" y="-124" font-family="Helvetica,sans-Serif" font-size="10.00" fill="#000000">fName</text>
</g>
<!-- Node8 -->
<g id="node7" class="node">
<title>Node8</title>
<g id="a_node7"><a xlink:href="structTString_1_1Rep__t.html" target="_top" xlink:title="TString::Rep_t">
<polygon fill="#ffffff" stroke="#000000" points="174.5,-38.5 174.5,-57.5 258.5,-57.5 258.5,-38.5 174.5,-38.5"/>
<text text-anchor="middle" x="216.5" y="-45.5" font-family="Helvetica,sans-Serif" font-size="10.00" fill="#000000">TString::Rep_t</text>
</a>
</g>
</g>
<!-- Node8&#45;&gt;Node7 -->
<g id="edge6" class="edge">
<title>Node8&#45;&gt;Node7</title>
<path fill="none" stroke="#9a32cd" stroke-dasharray="5,2" d="M268.9202,-48C308.7379,-48 361.7782,-48 392.8253,-48"/>
<polygon fill="#9a32cd" stroke="#9a32cd" points="268.8459,-44.5001 258.8458,-48 268.8458,-51.5001 268.8459,-44.5001"/>
<text text-anchor="middle" x="320.5" y="-51" font-family="Helvetica,sans-Serif" font-size="10.00" fill="#000000"> fRep</text>
</g>
<!-- Node9 -->
<g id="node8" class="node">
<title>Node9</title>
<g id="a_node8"><a xlink:href="structTString_1_1LongStr__t.html" target="_top" xlink:title="TString::LongStr_t">
<polygon fill="#ffffff" stroke="#000000" points="1,-76.5 1,-95.5 104,-95.5 104,-76.5 1,-76.5"/>
<text text-anchor="middle" x="52.5" y="-83.5" font-family="Helvetica,sans-Serif" font-size="10.00" fill="#000000">TString::LongStr_t</text>
</a>
</g>
</g>
<!-- Node9&#45;&gt;Node8 -->
<g id="edge7" class="edge">
<title>Node9&#45;&gt;Node8</title>
<path fill="none" stroke="#9a32cd" stroke-dasharray="5,2" d="M106.1334,-74.3422C122.1894,-70.7819 139.8255,-66.8017 156,-63 163.3741,-61.2668 171.2389,-59.3599 178.7748,-57.5039"/>
<polygon fill="#9a32cd" stroke="#9a32cd" points="105.3774,-70.9247 96.3677,-76.4993 106.8872,-77.76 105.3774,-70.9247"/>
<text text-anchor="middle" x="139.5" y="-74" font-family="Helvetica,sans-Serif" font-size="10.00" fill="#000000"> fLong</text>
</g>
<!-- Node10 -->
<g id="node9" class="node">
<title>Node10</title>
<g id="a_node9"><a xlink:href="structTString_1_1RawStr__t.html" target="_top" xlink:title="TString::RawStr_t">
<polygon fill="#ffffff" stroke="#000000" points="2,-38.5 2,-57.5 103,-57.5 103,-38.5 2,-38.5"/>
<text text-anchor="middle" x="52.5" y="-45.5" font-family="Helvetica,sans-Serif" font-size="10.00" fill="#000000">TString::RawStr_t</text>
</a>
</g>
</g>
<!-- Node10&#45;&gt;Node8 -->
<g id="edge8" class="edge">
<title>Node10&#45;&gt;Node8</title>
<path fill="none" stroke="#9a32cd" stroke-dasharray="5,2" d="M113.1745,-48C133.5333,-48 155.7768,-48 174.3932,-48"/>
<polygon fill="#9a32cd" stroke="#9a32cd" points="113.0436,-44.5001 103.0436,-48 113.0436,-51.5001 113.0436,-44.5001"/>
<text text-anchor="middle" x="139.5" y="-51" font-family="Helvetica,sans-Serif" font-size="10.00" fill="#000000"> fRaw</text>
</g>
<!-- Node11 -->
<g id="node10" class="node">
<title>Node11</title>
<g id="a_node10"><a xlink:href="structTString_1_1ShortStr__t.html" target="_top" xlink:title="TString::ShortStr_t">
<polygon fill="#ffffff" stroke="#000000" points="0,-.5 0,-19.5 105,-19.5 105,-.5 0,-.5"/>
<text text-anchor="middle" x="52.5" y="-7.5" font-family="Helvetica,sans-Serif" font-size="10.00" fill="#000000">TString::ShortStr_t</text>
</a>
</g>
</g>
<!-- Node11&#45;&gt;Node8 -->
<g id="edge9" class="edge">
<title>Node11&#45;&gt;Node8</title>
<path fill="none" stroke="#9a32cd" stroke-dasharray="5,2" d="M106.1334,-21.6578C122.1894,-25.2181 139.8255,-29.1983 156,-33 163.3741,-34.7332 171.2389,-36.6401 178.7748,-38.4961"/>
<polygon fill="#9a32cd" stroke="#9a32cd" points="106.8872,-18.24 96.3677,-19.5007 105.3774,-25.0753 106.8872,-18.24"/>
<text text-anchor="middle" x="139.5" y="-36" font-family="Helvetica,sans-Serif" font-size="10.00" fill="#000000"> fShort</text>
</g>
<!-- Node12&#45;&gt;Node4 -->
<g id="edge11" class="edge">
<title>Node12&#45;&gt;Node4</title>
<path fill="none" stroke="#9a32cd" stroke-dasharray="5,2" d="M368.2929,-91.1079C412.8247,-82.6474 480.8993,-74.0372 539,-85 636.0797,-103.3176 671.8718,-100.693 746,-166 758.5357,-177.0439 750.8962,-188.6365 764,-199 775.7734,-208.3114 791.7802,-213.0681 805.4647,-215.4943"/>
<polygon fill="#9a32cd" stroke="#9a32cd" points="367.4645,-87.7038 358.3309,-93.073 368.8192,-94.5715 367.4645,-87.7038"/>
<text text-anchor="middle" x="506" y="-88" font-family="Helvetica,sans-Serif" font-size="10.00" fill="#000000"> fgThreadImp</text>
</g>
<!-- Node13 -->
<g id="node12" class="node">
<title>Node13</title>
<g id="a_node12"><a xlink:href="classTMutex.html" target="_top" xlink:title="TMutex">
<polygon fill="#ffffff" stroke="#000000" points="392,-291.5 392,-310.5 445,-310.5 445,-291.5 392,-291.5"/>
<text text-anchor="middle" x="418.5" y="-298.5" font-family="Helvetica,sans-Serif" font-size="10.00" fill="#000000">TMutex</text>
</a>
</g>
</g>
<!-- Node13&#45;&gt;Node2 -->
<g id="edge23" class="edge">
<title>Node13&#45;&gt;Node2</title>
<path fill="none" stroke="#9a32cd" stroke-dasharray="5,2" d="M455.2343,-309.5591C536.2042,-327.2962 736.1069,-364.8938 903,-346 952.1047,-340.4409 1006.7657,-325.6008 1044.1464,-314.0688"/>
<polygon fill="#9a32cd" stroke="#9a32cd" points="455.5824,-306.0511 445.0611,-307.297 454.063,-312.8842 455.5824,-306.0511"/>
<text text-anchor="middle" x="694.5" y="-374" font-family="Helvetica,sans-Serif" font-size="10.00" fill="#000000"> fMutexAllTasksDone</text>
<text text-anchor="middle" x="694.5" y="-363" font-family="Helvetica,sans-Serif" font-size="10.00" fill="#000000">fMutex</text>
<text text-anchor="middle" x="694.5" y="-352" font-family="Helvetica,sans-Serif" font-size="10.00" fill="#000000">fDbgOutputMutex</text>
</g>
<!-- Node13&#45;&gt;Node4 -->
<g id="edge13" class="edge">
<title>Node13&#45;&gt;Node4</title>
<path fill="none" stroke="#9a32cd" stroke-dasharray="5,2" d="M455.5754,-298.1333C516.8886,-292.7746 642.8815,-279.1418 746,-251 768.8674,-244.7593 794.1116,-234.9034 811.5838,-227.5858"/>
<polygon fill="#9a32cd" stroke="#9a32cd" points="454.9177,-294.6764 445.2498,-299.0103 455.5102,-301.6513 454.9177,-294.6764"/>
<text text-anchor="middle" x="591" y="-300" font-family="Helvetica,sans-Serif" font-size="10.00" fill="#000000"> fgXActMutex</text>
<text text-anchor="middle" x="591" y="-289" font-family="Helvetica,sans-Serif" font-size="10.00" fill="#000000">fgMainMutex</text>
</g>
<!-- Node13&#45;&gt;Node16 -->
<g id="edge19" class="edge">
<title>Node13&#45;&gt;Node16</title>
<path fill="none" stroke="#9a32cd" stroke-dasharray="5,2" d="M446.4222,-287.2205C454.8533,-283.3251 464.2072,-279.2626 473,-276 500.7832,-265.6909 533.1838,-256.5531 556.9966,-250.354"/>
<polygon fill="#9a32cd" stroke="#9a32cd" points="444.9204,-284.059 437.3744,-291.4959 447.9111,-290.388 444.9204,-284.059"/>
<text text-anchor="middle" x="506" y="-279" font-family="Helvetica,sans-Serif" font-size="10.00" fill="#000000"> fMutex</text>
</g>
<!-- Node14 -->
<g id="node13" class="node">
<title>Node14</title>
<g id="a_node13"><a xlink:href="classTVirtualMutex.html" target="_top" xlink:title="This class implements a mutex interface. ">
<polygon fill="#ffffff" stroke="#000000" points="174,-270.5 174,-289.5 259,-289.5 259,-270.5 174,-270.5"/>
<text text-anchor="middle" x="216.5" y="-277.5" font-family="Helvetica,sans-Serif" font-size="10.00" fill="#000000">TVirtualMutex</text>
</a>
</g>
</g>
<!-- Node14&#45;&gt;Node13 -->
<g id="edge14" class="edge">
<title>Node14&#45;&gt;Node13</title>
<path fill="none" stroke="#191970" d="M269.2995,-285.4891C308.6354,-289.5784 360.7135,-294.9925 391.7932,-298.2236"/>
<polygon fill="#191970" stroke="#191970" points="269.6473,-282.0064 259.339,-284.4536 268.9235,-288.9689 269.6473,-282.0064"/>
</g>
<!-- Node15&#45;&gt;Node13 -->
<g id="edge15" class="edge">
<title>Node15&#45;&gt;Node13</title>
<path fill="none" stroke="#9a32cd" stroke-dasharray="5,2" d="M262.1874,-314.155C302.1881,-310.7886 358.9259,-306.0137 391.903,-303.2384"/>
<polygon fill="#9a32cd" stroke="#9a32cd" points="261.8198,-310.6735 252.1486,-314.9999 262.4069,-317.6488 261.8198,-310.6735"/>
<text text-anchor="middle" x="320.5" y="-315" font-family="Helvetica,sans-Serif" font-size="10.00" fill="#000000"> fMutexImp</text>
</g>
<!-- Node16&#45;&gt;Node2 -->
<g id="edge25" class="edge">
<title>Node16&#45;&gt;Node2</title>
<path fill="none" stroke="#9a32cd" stroke-dasharray="5,2" d="M621.9538,-255.5364C656.0007,-269.6273 712.7052,-290.7674 764,-299 855.9245,-313.7535 964.342,-309.5177 1029.9526,-304.6235"/>
<polygon fill="#9a32cd" stroke="#9a32cd" points="623.1356,-252.2366 612.5605,-251.5888 620.4235,-258.6899 623.1356,-252.2366"/>
<text text-anchor="middle" x="833.5" y="-334" font-family="Helvetica,sans-Serif" font-size="10.00" fill="#000000"> fThreadNeeded</text>
<text text-anchor="middle" x="833.5" y="-323" font-family="Helvetica,sans-Serif" font-size="10.00" fill="#000000">fThreadAvailable</text>
<text text-anchor="middle" x="833.5" y="-312" font-family="Helvetica,sans-Serif" font-size="10.00" fill="#000000">fAllTasksDone</text>
</g>
<!-- Node16&#45;&gt;Node4 -->
<g id="edge17" class="edge">
<title>Node16&#45;&gt;Node4</title>
<path fill="none" stroke="#9a32cd" stroke-dasharray="5,2" d="M635.3449,-237.6112C684.9368,-232.7032 763.7573,-224.9024 805.4731,-220.7738"/>
<polygon fill="#9a32cd" stroke="#9a32cd" points="634.8366,-234.1443 625.23,-238.6123 635.5261,-241.1103 634.8366,-234.1443"/>
<text text-anchor="middle" x="694.5" y="-239" font-family="Helvetica,sans-Serif" font-size="10.00" fill="#000000"> fgXActCondi</text>
</g>
<!-- Node17&#45;&gt;Node16 -->
<g id="edge20" class="edge">
<title>Node17&#45;&gt;Node16</title>
<path fill="none" stroke="#9a32cd" stroke-dasharray="5,2" d="M374.3685,-206.6683C418.8298,-210.2915 483.4161,-216.929 539,-228 545.235,-229.2419 551.8266,-230.8118 558.1455,-232.4479"/>
<polygon fill="#9a32cd" stroke="#9a32cd" points="374.6038,-203.176 364.3587,-205.8758 374.0513,-210.1542 374.6038,-203.176"/>
<text text-anchor="middle" x="418.5" y="-217" font-family="Helvetica,sans-Serif" font-size="10.00" fill="#000000"> fConditionImp</text>
</g>
<!-- Node18 -->
<g id="node17" class="node">
<title>Node18</title>
<polygon fill="#ffffff" stroke="#bfbfbf" points="769.5,-170.5 769.5,-189.5 897.5,-189.5 897.5,-170.5 769.5,-170.5"/>
<text text-anchor="middle" x="833.5" y="-177.5" font-family="Helvetica,sans-Serif" font-size="10.00" fill="#000000">std::queue&lt; task_t * &gt;</text>
</g>
<!-- Node18&#45;&gt;Node2 -->
<g id="edge22" class="edge">
<title>Node18&#45;&gt;Node2</title>
<path fill="none" stroke="#9a32cd" stroke-dasharray="5,2" d="M900.7357,-191.7228C935.4203,-199.5867 977.5587,-212.0558 1012,-231 1037.4078,-244.9754 1061.6939,-268.4939 1076.1033,-283.881"/>
<polygon fill="#9a32cd" stroke="#9a32cd" points="901.2137,-188.2447 890.6967,-189.5269 899.7178,-195.083 901.2137,-188.2447"/>
<text text-anchor="middle" x="966.5" y="-234" font-family="Helvetica,sans-Serif" font-size="10.00" fill="#000000"> fTasks</text>
</g>
<!-- Node19 -->
<g id="node18" class="node">
<title>Node19</title>
<polygon fill="#ffffff" stroke="#bfbfbf" points="764,-132.5 764,-151.5 903,-151.5 903,-132.5 764,-132.5"/>
<text text-anchor="middle" x="833.5" y="-139.5" font-family="Helvetica,sans-Serif" font-size="10.00" fill="#000000">std::vector&lt; TThread * &gt;</text>
</g>
<!-- Node19&#45;&gt;Node2 -->
<g id="edge24" class="edge">
<title>Node19&#45;&gt;Node2</title>
<path fill="none" stroke="#9a32cd" stroke-dasharray="5,2" d="M913.2804,-146.8411C946.1529,-151.9935 983.2005,-162.1657 1012,-182 1049.5237,-207.8426 1073.5804,-258.3602 1083.8225,-283.7149"/>
<polygon fill="#9a32cd" stroke="#9a32cd" points="913.6222,-143.3544 903.2263,-145.3981 912.6276,-150.2834 913.6222,-143.3544"/>
<text text-anchor="middle" x="966.5" y="-185" font-family="Helvetica,sans-Serif" font-size="10.00" fill="#000000"> fThreads</text>
</g>
</g>
</svg>
