<?xml version="1.0" encoding="UTF-8" standalone="no"?>
<!DOCTYPE svg PUBLIC "-//W3C//DTD SVG 1.1//EN"
 "http://www.w3.org/Graphics/SVG/1.1/DTD/svg11.dtd">
<!-- Generated by graphviz version 2.40.1 (0)
 -->
<!-- Title: ROOT::Experimental::RPadDrawable Pages: 1 -->
<svg width="201pt" height="310pt"
 viewBox="0.00 0.00 201.00 310.00" xmlns="http://www.w3.org/2000/svg" xmlns:xlink="http://www.w3.org/1999/xlink">
<g id="graph0" class="graph" transform="scale(1 1) rotate(0) translate(4 306)">
<title>ROOT::Experimental::RPadDrawable</title>
<polygon fill="#ffffff" stroke="transparent" points="-4,4 -4,-306 197,-306 197,4 -4,4"/>
<!-- Node3 -->
<g id="node1" class="node">
<title>Node3</title>
<polygon fill="#bfbfbf" stroke="#000000" points="39,-.5 39,-30.5 154,-30.5 154,-.5 39,-.5"/>
<text text-anchor="start" x="47" y="-18.5" font-family="Helvetica,sans-Serif" font-size="10.00" fill="#000000">ROOT::Experimental</text>
<text text-anchor="middle" x="96.5" y="-7.5" font-family="Helvetica,sans-Serif" font-size="10.00" fill="#000000">::RPadDrawable</text>
</g>
<!-- Node4 -->
<g id="node2" class="node">
<title>Node4</title>
<g id="a_node2"><a xlink:href="classROOT_1_1Experimental_1_1RDrawableBase.html" target="_top" xlink:title="ROOT::Experimental\l::RDrawableBase\&lt; RPadDrawable \&gt;">
<polygon fill="#ffffff" stroke="#000000" points="0,-68.5 0,-98.5 193,-98.5 193,-68.5 0,-68.5"/>
<text text-anchor="start" x="8" y="-86.5" font-family="Helvetica,sans-Serif" font-size="10.00" fill="#000000">ROOT::Experimental</text>
<text text-anchor="middle" x="96.5" y="-75.5" font-family="Helvetica,sans-Serif" font-size="10.00" fill="#000000">::RDrawableBase&lt; RPadDrawable &gt;</text>
</a>
</g>
</g>
<!-- Node4&#45;&gt;Node3 -->
<g id="edge1" class="edge">
<title>Node4&#45;&gt;Node3</title>
<path fill="none" stroke="#191970" d="M96.5,-58.1174C96.5,-48.8378 96.5,-38.6413 96.5,-30.5492"/>
<polygon fill="#191970" stroke="#191970" points="93.0001,-58.4086 96.5,-68.4086 100.0001,-58.4086 93.0001,-58.4086"/>
</g>
<!-- Node5 -->
<g id="node3" class="node">
<title>Node5</title>
<g id="a_node3"><a xlink:href="classROOT_1_1Experimental_1_1RDrawable.html" target="_top" xlink:title="Base class for drawable entities: objects that can be painted on a RPad. ">
<polygon fill="#ffffff" stroke="#000000" points="39,-136.5 39,-166.5 154,-166.5 154,-136.5 39,-136.5"/>
<text text-anchor="start" x="47" y="-154.5" font-family="Helvetica,sans-Serif" font-size="10.00" fill="#000000">ROOT::Experimental</text>
<text text-anchor="middle" x="96.5" y="-143.5" font-family="Helvetica,sans-Serif" font-size="10.00" fill="#000000">::RDrawable</text>
</a>
</g>
</g>
<!-- Node5&#45;&gt;Node4 -->
<g id="edge2" class="edge">
<title>Node5&#45;&gt;Node4</title>
<path fill="none" stroke="#191970" d="M96.5,-126.1174C96.5,-116.8378 96.5,-106.6413 96.5,-98.5492"/>
<polygon fill="#191970" stroke="#191970" points="93.0001,-126.4086 96.5,-136.4086 100.0001,-126.4086 93.0001,-126.4086"/>
</g>
<!-- Node6 -->
<g id="node4" class="node">
<title>Node6</title>
<g id="a_node4"><a xlink:title="STL class. ">
<polygon fill="#ffffff" stroke="#bfbfbf" points="64,-214.5 64,-233.5 129,-233.5 129,-214.5 64,-214.5"/>
<text text-anchor="middle" x="96.5" y="-221.5" font-family="Helvetica,sans-Serif" font-size="10.00" fill="#000000">std::string</text>
</a>
</g>
</g>
<!-- Node6&#45;&gt;Node5 -->
<g id="edge3" class="edge">
<title>Node6&#45;&gt;Node5</title>
<path fill="none" stroke="#9a32cd" stroke-dasharray="5,2" d="M96.5,-204.0177C96.5,-192.2164 96.5,-177.513 96.5,-166.668"/>
<polygon fill="#9a32cd" stroke="#9a32cd" points="93.0001,-204.2223 96.5,-214.2223 100.0001,-204.2224 93.0001,-204.2223"/>
<text text-anchor="middle" x="104.5" y="-188" font-family="Helvetica,sans-Serif" font-size="10.00" fill="#000000"> fId</text>
</g>
<!-- Node7 -->
<g id="node5" class="node">
<title>Node7</title>
<polygon fill="#ffffff" stroke="#bfbfbf" points="44.5,-271.5 44.5,-301.5 148.5,-301.5 148.5,-271.5 44.5,-271.5"/>
<text text-anchor="start" x="52.5" y="-289.5" font-family="Helvetica,sans-Serif" font-size="10.00" fill="#000000">std::basic_string&lt;</text>
<text text-anchor="middle" x="96.5" y="-278.5" font-family="Helvetica,sans-Serif" font-size="10.00" fill="#000000"> char &gt;</text>
</g>
<!-- Node7&#45;&gt;Node6 -->
<g id="edge4" class="edge">
<title>Node7&#45;&gt;Node6</title>
<path fill="none" stroke="#191970" d="M96.5,-261.3498C96.5,-251.6481 96.5,-241.1303 96.5,-233.7356"/>
<polygon fill="#191970" stroke="#191970" points="93.0001,-261.3705 96.5,-271.3705 100.0001,-261.3705 93.0001,-261.3705"/>
</g>
</g>
</svg>
