<?xml version="1.0" encoding="UTF-8" standalone="no"?>
<!DOCTYPE svg PUBLIC "-//W3C//DTD SVG 1.1//EN"
 "http://www.w3.org/Graphics/SVG/1.1/DTD/svg11.dtd">
<!-- Generated by graphviz version 2.40.1 (0)
 -->
<!-- Title: G Pages: 1 -->
<svg width="191pt" height="368pt"
 viewBox="0.00 0.00 191.00 368.00" xmlns="http://www.w3.org/2000/svg" xmlns:xlink="http://www.w3.org/1999/xlink">
<g id="graph0" class="graph" transform="scale(1 1) rotate(0) translate(4 364)">
<title>G</title>
<polygon fill="#ffffff" stroke="transparent" points="-4,4 -4,-364 187,-364 187,4 -4,4"/>
<!-- mainlib -->
<g id="node1" class="node">
<title>mainlib</title>
<polygon fill="#abacba" stroke="#000000" points="57,-198 0,-198 0,-162 57,-162 57,-198"/>
<text text-anchor="middle" x="28.5" y="-176.3" font-family="Arial" font-size="14.00" fill="#000000">libGraf</text>
</g>
<!-- libHist -->
<g id="node2" class="node">
<title>libHist</title>
<polygon fill="none" stroke="#000000" points="165,-360 111,-360 111,-324 165,-324 165,-360"/>
<text text-anchor="middle" x="138" y="-338.3" font-family="Arial" font-size="14.00" fill="#000000">libHist</text>
</g>
<!-- mainlib&#45;&gt;libHist -->
<g id="edge1" class="edge">
<title>mainlib&#45;&gt;libHist</title>
<path fill="none" stroke="#000000" d="M33.441,-198.0933C41.7999,-225.9595 61.0167,-279.8346 93,-315 95.8275,-318.1089 99.097,-320.974 102.5574,-323.5822"/>
<polygon fill="#000000" stroke="#000000" points="100.6154,-326.494 110.8599,-329.1958 104.5362,-320.6951 100.6154,-326.494"/>
</g>
<!-- libMatrix -->
<g id="node3" class="node">
<title>libMatrix</title>
<polygon fill="none" stroke="#000000" points="172,-306 104,-306 104,-270 172,-270 172,-306"/>
<text text-anchor="middle" x="138" y="-284.3" font-family="Arial" font-size="14.00" fill="#000000">libMatrix</text>
</g>
<!-- mainlib&#45;&gt;libMatrix -->
<g id="edge2" class="edge">
<title>mainlib&#45;&gt;libMatrix</title>
<path fill="none" stroke="#000000" d="M40.2269,-198.2948C52.073,-215.817 71.635,-242.2853 93,-261 94.1137,-261.9755 95.2673,-262.936 96.4513,-263.8794"/>
<polygon fill="#000000" stroke="#000000" points="94.4655,-266.7632 104.6049,-269.8364 98.595,-261.111 94.4655,-266.7632"/>
</g>
<!-- libMathCore -->
<g id="node4" class="node">
<title>libMathCore</title>
<polygon fill="none" stroke="#000000" points="183,-252 93,-252 93,-216 183,-216 183,-252"/>
<text text-anchor="middle" x="138" y="-230.3" font-family="Arial" font-size="14.00" fill="#000000">libMathCore</text>
</g>
<!-- mainlib&#45;&gt;libMathCore -->
<g id="edge3" class="edge">
<title>mainlib&#45;&gt;libMathCore</title>
<path fill="none" stroke="#000000" d="M57.2698,-194.1879C67.8696,-199.4152 80.1608,-205.4765 91.9065,-211.269"/>
<polygon fill="#000000" stroke="#000000" points="90.65,-214.5517 101.1668,-215.8357 93.7461,-208.2736 90.65,-214.5517"/>
</g>
<!-- libRIO -->
<g id="node5" class="node">
<title>libRIO</title>
<polygon fill="none" stroke="#000000" points="165.5,-198 110.5,-198 110.5,-162 165.5,-162 165.5,-198"/>
<text text-anchor="middle" x="138" y="-176.3" font-family="Arial" font-size="14.00" fill="#000000">libRIO</text>
</g>
<!-- mainlib&#45;&gt;libRIO -->
<g id="edge4" class="edge">
<title>mainlib&#45;&gt;libRIO</title>
<path fill="none" stroke="#000000" d="M57.2698,-180C70.2973,-180 85.8796,-180 99.8643,-180"/>
<polygon fill="#000000" stroke="#000000" points="100.1783,-183.5001 110.1783,-180 100.1782,-176.5001 100.1783,-183.5001"/>
</g>
<!-- libImt -->
<g id="node6" class="node">
<title>libImt</title>
<polygon fill="none" stroke="#000000" points="165,-144 111,-144 111,-108 165,-108 165,-144"/>
<text text-anchor="middle" x="138" y="-122.3" font-family="Arial" font-size="14.00" fill="#000000">libImt</text>
</g>
<!-- mainlib&#45;&gt;libImt -->
<g id="edge5" class="edge">
<title>mainlib&#45;&gt;libImt</title>
<path fill="none" stroke="#000000" d="M57.2698,-165.8121C70.8884,-159.0961 87.2988,-151.0033 101.7575,-143.873"/>
<polygon fill="#000000" stroke="#000000" points="103.5075,-146.9125 110.9282,-139.3505 100.4114,-140.6344 103.5075,-146.9125"/>
</g>
<!-- libThread -->
<g id="node7" class="node">
<title>libThread</title>
<polygon fill="none" stroke="#000000" points="174.5,-90 101.5,-90 101.5,-54 174.5,-54 174.5,-90"/>
<text text-anchor="middle" x="138" y="-68.3" font-family="Arial" font-size="14.00" fill="#000000">libThread</text>
</g>
<!-- mainlib&#45;&gt;libThread -->
<g id="edge6" class="edge">
<title>mainlib&#45;&gt;libThread</title>
<path fill="none" stroke="#000000" d="M40.2269,-161.7052C52.073,-144.183 71.635,-117.7147 93,-99 94.1137,-98.0245 95.2673,-97.064 96.4513,-96.1206"/>
<polygon fill="#000000" stroke="#000000" points="98.595,-98.889 104.6049,-90.1636 94.4655,-93.2368 98.595,-98.889"/>
</g>
<!-- libCore -->
<g id="node8" class="node">
<title>libCore</title>
<polygon fill="none" stroke="#000000" points="167.5,-36 108.5,-36 108.5,0 167.5,0 167.5,-36"/>
<text text-anchor="middle" x="138" y="-14.3" font-family="Arial" font-size="14.00" fill="#000000">libCore</text>
</g>
<!-- mainlib&#45;&gt;libCore -->
<g id="edge7" class="edge">
<title>mainlib&#45;&gt;libCore</title>
<path fill="none" stroke="#000000" d="M33.441,-161.9067C41.7999,-134.0405 61.0167,-80.1654 93,-45 95.0115,-42.7884 97.2466,-40.7002 99.615,-38.74"/>
<polygon fill="#000000" stroke="#000000" points="102.0409,-41.3022 108.0495,-32.5759 97.9106,-35.6506 102.0409,-41.3022"/>
</g>
</g>
</svg>
