<?xml version="1.0" encoding="UTF-8" standalone="no"?>
<!DOCTYPE svg PUBLIC "-//W3C//DTD SVG 1.1//EN"
 "http://www.w3.org/Graphics/SVG/1.1/DTD/svg11.dtd">
<!-- Generated by graphviz version 2.40.1 (0)
 -->
<!-- Title: TNodeDiv Pages: 1 -->
<svg width="803pt" height="497pt"
 viewBox="0.00 0.00 802.62 497.00" xmlns="http://www.w3.org/2000/svg" xmlns:xlink="http://www.w3.org/1999/xlink">
<g id="graph0" class="graph" transform="scale(1 1) rotate(0) translate(4 493)">
<title>TNodeDiv</title>
<polygon fill="#ffffff" stroke="transparent" points="-4,4 -4,-493 798.6187,-493 798.6187,4 -4,4"/>
<!-- Node7 -->
<g id="node1" class="node">
<title>Node7</title>
<polygon fill="#bfbfbf" stroke="#000000" points="266.6187,-.5 266.6187,-19.5 331.6187,-19.5 331.6187,-.5 266.6187,-.5"/>
<text text-anchor="middle" x="299.1187" y="-7.5" font-family="Helvetica,sans-Serif" font-size="10.00" fill="#000000">TNodeDiv</text>
</g>
<!-- Node8 -->
<g id="node2" class="node">
<title>Node8</title>
<g id="a_node2"><a xlink:href="classTNode.html" target="_top" xlink:title="TNode description. ">
<polygon fill="#ffffff" stroke="#000000" points="275.1187,-57.5 275.1187,-76.5 323.1187,-76.5 323.1187,-57.5 275.1187,-57.5"/>
<text text-anchor="middle" x="299.1187" y="-64.5" font-family="Helvetica,sans-Serif" font-size="10.00" fill="#000000">TNode</text>
</a>
</g>
</g>
<!-- Node8&#45;&gt;Node7 -->
<g id="edge1" class="edge">
<title>Node8&#45;&gt;Node7</title>
<path fill="none" stroke="#191970" d="M299.1187,-47.2342C299.1187,-37.8491 299.1187,-27.0651 299.1187,-19.5265"/>
<polygon fill="#191970" stroke="#191970" points="295.6188,-47.3307 299.1187,-57.3307 302.6188,-47.3308 295.6188,-47.3307"/>
</g>
<!-- Node8&#45;&gt;Node8 -->
<g id="edge33" class="edge">
<title>Node8&#45;&gt;Node8</title>
<path fill="none" stroke="#9a32cd" stroke-dasharray="5,2" d="M333.5433,-71.6323C338.0973,-70.8435 341.1187,-69.2994 341.1187,-67 341.1187,-63.2266 332.9822,-61.4872 323.2884,-61.782"/>
<polygon fill="#9a32cd" stroke="#9a32cd" points="333.0725,-68.1534 323.2884,-72.218 333.4717,-75.142 333.0725,-68.1534"/>
<text text-anchor="middle" x="360.1187" y="-64.5" font-family="Helvetica,sans-Serif" font-size="10.00" fill="#000000"> fParent</text>
</g>
<!-- Node9 -->
<g id="node3" class="node">
<title>Node9</title>
<g id="a_node3"><a xlink:href="classTNamed.html" target="_top" xlink:title="The TNamed class is the base class for all named ROOT classes. ">
<polygon fill="#ffffff" stroke="#000000" points="293.1187,-257.5 293.1187,-276.5 351.1187,-276.5 351.1187,-257.5 293.1187,-257.5"/>
<text text-anchor="middle" x="322.1187" y="-264.5" font-family="Helvetica,sans-Serif" font-size="10.00" fill="#000000">TNamed</text>
</a>
</g>
</g>
<!-- Node9&#45;&gt;Node8 -->
<g id="edge2" class="edge">
<title>Node9&#45;&gt;Node8</title>
<path fill="none" stroke="#191970" d="M320.8738,-246.9706C318.7093,-214.7948 313.6484,-149.6585 305.1187,-95 304.1529,-88.8109 302.6843,-81.9312 301.4418,-76.5401"/>
<polygon fill="#191970" stroke="#191970" points="317.4008,-247.5009 321.5413,-257.2531 324.3861,-247.0474 317.4008,-247.5009"/>
</g>
<!-- Node19 -->
<g id="node13" class="node">
<title>Node19</title>
<g id="a_node13"><a xlink:href="classTRotMatrix.html" target="_top" xlink:title="Manages a detector rotation matrix. ">
<polygon fill="#ffffff" stroke="#000000" points="476.6187,-162.5 476.6187,-181.5 545.6187,-181.5 545.6187,-162.5 476.6187,-162.5"/>
<text text-anchor="middle" x="511.1187" y="-169.5" font-family="Helvetica,sans-Serif" font-size="10.00" fill="#000000">TRotMatrix</text>
</a>
</g>
</g>
<!-- Node9&#45;&gt;Node19 -->
<g id="edge13" class="edge">
<title>Node9&#45;&gt;Node19</title>
<path fill="none" stroke="#191970" d="M361.3108,-261.9852C408.9363,-255.0568 485.2835,-240.9858 504.1187,-220 513.4563,-209.5962 513.6275,-192.5022 512.5938,-181.7689"/>
<polygon fill="#191970" stroke="#191970" points="360.7377,-258.5313 351.3251,-263.3948 361.7162,-265.4626 360.7377,-258.5313"/>
</g>
<!-- Node25 -->
<g id="node19" class="node">
<title>Node25</title>
<g id="a_node19"><a xlink:href="classTShape.html" target="_top" xlink:title="This is the base class for all geometry shapes. ">
<polygon fill="#ffffff" stroke="#000000" points="140.6187,-124.5 140.6187,-143.5 193.6187,-143.5 193.6187,-124.5 140.6187,-124.5"/>
<text text-anchor="middle" x="167.1187" y="-131.5" font-family="Helvetica,sans-Serif" font-size="10.00" fill="#000000">TShape</text>
</a>
</g>
</g>
<!-- Node9&#45;&gt;Node25 -->
<g id="edge26" class="edge">
<title>Node9&#45;&gt;Node25</title>
<path fill="none" stroke="#191970" d="M284.9624,-253.3653C267.4234,-245.5782 247.105,-234.456 232.1187,-220 210.7729,-199.4096 217.874,-184.9748 199.1187,-162 193.5168,-155.1378 186.1354,-148.5565 179.8737,-143.5007"/>
<polygon fill="#191970" stroke="#191970" points="283.7956,-256.6721 294.3688,-257.3484 286.5251,-250.2261 283.7956,-256.6721"/>
</g>
<!-- Node26 -->
<g id="node20" class="node">
<title>Node26</title>
<g id="a_node20"><a xlink:href="classTMaterial.html" target="_top" xlink:title="Manages a detector material. ">
<polygon fill="#ffffff" stroke="#000000" points="123.1187,-200.5 123.1187,-219.5 185.1187,-219.5 185.1187,-200.5 123.1187,-200.5"/>
<text text-anchor="middle" x="154.1187" y="-207.5" font-family="Helvetica,sans-Serif" font-size="10.00" fill="#000000">TMaterial</text>
</a>
</g>
</g>
<!-- Node9&#45;&gt;Node26 -->
<g id="edge31" class="edge">
<title>Node9&#45;&gt;Node26</title>
<path fill="none" stroke="#191970" d="M282.8149,-261.6409C258.1185,-257.4094 225.968,-250.293 199.1187,-239 187.2958,-234.0272 175.143,-225.9887 166.4516,-219.6346"/>
<polygon fill="#191970" stroke="#191970" points="282.4734,-265.1312 292.9055,-263.2815 283.5968,-258.222 282.4734,-265.1312"/>
</g>
<!-- Node10 -->
<g id="node4" class="node">
<title>Node10</title>
<g id="a_node4"><a xlink:href="classTObject.html" target="_top" xlink:title="Mother of all ROOT objects. ">
<polygon fill="#ffffff" stroke="#000000" points="357.1187,-402.5 357.1187,-421.5 411.1187,-421.5 411.1187,-402.5 357.1187,-402.5"/>
<text text-anchor="middle" x="384.1187" y="-409.5" font-family="Helvetica,sans-Serif" font-size="10.00" fill="#000000">TObject</text>
</a>
</g>
</g>
<!-- Node10&#45;&gt;Node9 -->
<g id="edge3" class="edge">
<title>Node10&#45;&gt;Node9</title>
<path fill="none" stroke="#191970" d="M364.8777,-395.421C361.6095,-391.9102 358.5061,-388.0366 356.1187,-384 334.7976,-347.9507 326.1186,-297.6751 323.2803,-276.7444"/>
<polygon fill="#191970" stroke="#191970" points="362.4796,-397.9713 372.0815,-402.4496 367.3681,-392.9609 362.4796,-397.9713"/>
</g>
<!-- Node22 -->
<g id="node16" class="node">
<title>Node22</title>
<g id="a_node16"><a xlink:href="classTCollection.html" target="_top" xlink:title="Collection abstract base class. ">
<polygon fill="#ffffff" stroke="#000000" points="434.6187,-257.5 434.6187,-276.5 505.6187,-276.5 505.6187,-257.5 434.6187,-257.5"/>
<text text-anchor="middle" x="470.1187" y="-264.5" font-family="Helvetica,sans-Serif" font-size="10.00" fill="#000000">TCollection</text>
</a>
</g>
</g>
<!-- Node10&#45;&gt;Node22 -->
<g id="edge18" class="edge">
<title>Node10&#45;&gt;Node22</title>
<path fill="none" stroke="#191970" d="M381.6136,-392.087C380.4539,-375.9516 380.8268,-353.0184 389.1187,-335 401.6301,-307.8123 431.0473,-287.6785 450.7696,-276.6381"/>
<polygon fill="#191970" stroke="#191970" points="378.1726,-392.8592 382.6375,-402.4673 385.1388,-392.172 378.1726,-392.8592"/>
</g>
<!-- Node23 -->
<g id="node17" class="node">
<title>Node23</title>
<g id="a_node17"><a xlink:href="classTObjectTable.html" target="_top" xlink:title="This class registers all instances of TObject and its derived classes in a hash table. ">
<polygon fill="#ffffff" stroke="#000000" points="398.1187,-335.5 398.1187,-354.5 478.1187,-354.5 478.1187,-335.5 398.1187,-335.5"/>
<text text-anchor="middle" x="438.1187" y="-342.5" font-family="Helvetica,sans-Serif" font-size="10.00" fill="#000000">TObjectTable</text>
</a>
</g>
</g>
<!-- Node10&#45;&gt;Node23 -->
<g id="edge20" class="edge">
<title>Node10&#45;&gt;Node23</title>
<path fill="none" stroke="#191970" d="M396.3267,-394.0056C401.0758,-387.2755 406.677,-379.6538 412.1187,-373 417.3262,-366.6326 423.5891,-359.8642 428.6631,-354.5773"/>
<polygon fill="#191970" stroke="#191970" points="393.2905,-392.2422 390.4737,-402.4558 399.045,-396.228 393.2905,-392.2422"/>
</g>
<!-- Node10&#45;&gt;Node23 -->
<g id="edge21" class="edge">
<title>Node10&#45;&gt;Node23</title>
<path fill="none" stroke="#9a32cd" stroke-dasharray="5,2" d="M401.3465,-395.0066C404.6955,-391.464 408.1002,-387.6844 411.1187,-384 418.9471,-374.4447 426.8713,-362.6974 432.0914,-354.6074"/>
<polygon fill="#9a32cd" stroke="#9a32cd" points="398.7534,-392.6526 394.2756,-402.2547 403.764,-397.5407 398.7534,-392.6526"/>
<text text-anchor="middle" x="434.6187" y="-376" font-family="Helvetica,sans-Serif" font-size="10.00" fill="#000000"> fTable</text>
</g>
<!-- Node11 -->
<g id="node5" class="node">
<title>Node11</title>
<g id="a_node5"><a xlink:href="classTString.html" target="_top" xlink:title="Basic string class. ">
<polygon fill="#ffffff" stroke="#000000" points="595.6187,-335.5 595.6187,-354.5 646.6187,-354.5 646.6187,-335.5 595.6187,-335.5"/>
<text text-anchor="middle" x="621.1187" y="-342.5" font-family="Helvetica,sans-Serif" font-size="10.00" fill="#000000">TString</text>
</a>
</g>
</g>
<!-- Node11&#45;&gt;Node8 -->
<g id="edge14" class="edge">
<title>Node11&#45;&gt;Node8</title>
<path fill="none" stroke="#9a32cd" stroke-dasharray="5,2" d="M642.9128,-328.8764C646.9544,-325.26 650.908,-321.2308 654.1187,-317 668.9056,-297.5149 677.1187,-291.4606 677.1187,-267 677.1187,-267 677.1187,-267 677.1187,-134 677.1187,-97.9268 406.7679,-74.9487 323.3393,-68.7166"/>
<polygon fill="#9a32cd" stroke="#9a32cd" points="640.6697,-326.1896 635.2049,-335.2663 645.1373,-331.5786 640.6697,-326.1896"/>
<text text-anchor="middle" x="697.1187" y="-207.5" font-family="Helvetica,sans-Serif" font-size="10.00" fill="#000000"> fOption</text>
</g>
<!-- Node11&#45;&gt;Node9 -->
<g id="edge4" class="edge">
<title>Node11&#45;&gt;Node9</title>
<path fill="none" stroke="#9a32cd" stroke-dasharray="5,2" d="M586.3707,-331.804C577.7072,-327.7201 568.7269,-322.7542 561.1187,-317 550.8144,-309.2067 553.5027,-301.1089 542.1187,-295 533.8067,-290.5396 409.2625,-276.4961 351.339,-270.1582"/>
<polygon fill="#9a32cd" stroke="#9a32cd" points="585.0071,-335.028 595.5673,-335.885 587.8464,-328.6297 585.0071,-335.028"/>
<text text-anchor="middle" x="578.1187" y="-309" font-family="Helvetica,sans-Serif" font-size="10.00" fill="#000000"> fTitle</text>
<text text-anchor="middle" x="578.1187" y="-298" font-family="Helvetica,sans-Serif" font-size="10.00" fill="#000000">fName</text>
</g>
<!-- Node11&#45;&gt;Node22 -->
<g id="edge22" class="edge">
<title>Node11&#45;&gt;Node22</title>
<path fill="none" stroke="#9a32cd" stroke-dasharray="5,2" d="M617.0328,-325.3057C613.8614,-314.8241 608.3851,-302.5705 599.1187,-295 585.0539,-283.5092 538.955,-275.5139 505.8808,-271.0904"/>
<polygon fill="#9a32cd" stroke="#9a32cd" points="613.7196,-326.4804 619.5655,-335.3165 620.5058,-324.7635 613.7196,-326.4804"/>
<text text-anchor="middle" x="631.6187" y="-303.5" font-family="Helvetica,sans-Serif" font-size="10.00" fill="#000000"> fName</text>
</g>
<!-- Node12 -->
<g id="node6" class="node">
<title>Node12</title>
<g id="a_node6"><a xlink:href="structTString_1_1Rep__t.html" target="_top" xlink:title="TString::Rep_t">
<polygon fill="#ffffff" stroke="#000000" points="579.1187,-402.5 579.1187,-421.5 663.1187,-421.5 663.1187,-402.5 579.1187,-402.5"/>
<text text-anchor="middle" x="621.1187" y="-409.5" font-family="Helvetica,sans-Serif" font-size="10.00" fill="#000000">TString::Rep_t</text>
</a>
</g>
</g>
<!-- Node12&#45;&gt;Node11 -->
<g id="edge5" class="edge">
<title>Node12&#45;&gt;Node11</title>
<path fill="none" stroke="#9a32cd" stroke-dasharray="5,2" d="M621.1187,-392.1079C621.1187,-379.714 621.1187,-364.3263 621.1187,-354.5817"/>
<polygon fill="#9a32cd" stroke="#9a32cd" points="617.6188,-392.4005 621.1187,-402.4005 624.6188,-392.4006 617.6188,-392.4005"/>
<text text-anchor="middle" x="633.6187" y="-376" font-family="Helvetica,sans-Serif" font-size="10.00" fill="#000000"> fRep</text>
</g>
<!-- Node13 -->
<g id="node7" class="node">
<title>Node13</title>
<g id="a_node7"><a xlink:href="structTString_1_1LongStr__t.html" target="_top" xlink:title="TString::LongStr_t">
<polygon fill="#ffffff" stroke="#000000" points="449.6187,-469.5 449.6187,-488.5 552.6187,-488.5 552.6187,-469.5 449.6187,-469.5"/>
<text text-anchor="middle" x="501.1187" y="-476.5" font-family="Helvetica,sans-Serif" font-size="10.00" fill="#000000">TString::LongStr_t</text>
</a>
</g>
</g>
<!-- Node13&#45;&gt;Node12 -->
<g id="edge6" class="edge">
<title>Node13&#45;&gt;Node12</title>
<path fill="none" stroke="#9a32cd" stroke-dasharray="5,2" d="M527.2955,-464.3846C550.5676,-451.391 583.922,-432.7681 603.9575,-421.5817"/>
<polygon fill="#9a32cd" stroke="#9a32cd" points="525.3368,-461.4696 518.3118,-469.4005 528.7493,-467.5815 525.3368,-461.4696"/>
<text text-anchor="middle" x="583.6187" y="-443" font-family="Helvetica,sans-Serif" font-size="10.00" fill="#000000"> fLong</text>
</g>
<!-- Node14 -->
<g id="node8" class="node">
<title>Node14</title>
<g id="a_node8"><a xlink:href="structTString_1_1RawStr__t.html" target="_top" xlink:title="TString::RawStr_t">
<polygon fill="#ffffff" stroke="#000000" points="570.6187,-469.5 570.6187,-488.5 671.6187,-488.5 671.6187,-469.5 570.6187,-469.5"/>
<text text-anchor="middle" x="621.1187" y="-476.5" font-family="Helvetica,sans-Serif" font-size="10.00" fill="#000000">TString::RawStr_t</text>
</a>
</g>
</g>
<!-- Node14&#45;&gt;Node12 -->
<g id="edge7" class="edge">
<title>Node14&#45;&gt;Node12</title>
<path fill="none" stroke="#9a32cd" stroke-dasharray="5,2" d="M621.1187,-459.1079C621.1187,-446.714 621.1187,-431.3263 621.1187,-421.5817"/>
<polygon fill="#9a32cd" stroke="#9a32cd" points="617.6188,-459.4005 621.1187,-469.4005 624.6188,-459.4006 617.6188,-459.4005"/>
<text text-anchor="middle" x="635.1187" y="-443" font-family="Helvetica,sans-Serif" font-size="10.00" fill="#000000"> fRaw</text>
</g>
<!-- Node15 -->
<g id="node9" class="node">
<title>Node15</title>
<g id="a_node9"><a xlink:href="structTString_1_1ShortStr__t.html" target="_top" xlink:title="TString::ShortStr_t">
<polygon fill="#ffffff" stroke="#000000" points="689.6187,-469.5 689.6187,-488.5 794.6187,-488.5 794.6187,-469.5 689.6187,-469.5"/>
<text text-anchor="middle" x="742.1187" y="-476.5" font-family="Helvetica,sans-Serif" font-size="10.00" fill="#000000">TString::ShortStr_t</text>
</a>
</g>
</g>
<!-- Node15&#45;&gt;Node12 -->
<g id="edge8" class="edge">
<title>Node15&#45;&gt;Node12</title>
<path fill="none" stroke="#9a32cd" stroke-dasharray="5,2" d="M715.7237,-464.3846C692.2577,-451.391 658.6253,-432.7681 638.4229,-421.5817"/>
<polygon fill="#9a32cd" stroke="#9a32cd" points="714.3385,-467.6183 724.7823,-469.4005 717.7294,-461.4944 714.3385,-467.6183"/>
<text text-anchor="middle" x="704.6187" y="-443" font-family="Helvetica,sans-Serif" font-size="10.00" fill="#000000"> fShort</text>
</g>
<!-- Node16 -->
<g id="node10" class="node">
<title>Node16</title>
<g id="a_node10"><a xlink:href="classTAttLine.html" target="_top" xlink:title="Line Attributes class. ">
<polygon fill="#ffffff" stroke="#000000" points="11.1187,-200.5 11.1187,-219.5 67.1187,-219.5 67.1187,-200.5 11.1187,-200.5"/>
<text text-anchor="middle" x="39.1187" y="-207.5" font-family="Helvetica,sans-Serif" font-size="10.00" fill="#000000">TAttLine</text>
</a>
</g>
</g>
<!-- Node16&#45;&gt;Node8 -->
<g id="edge9" class="edge">
<title>Node16&#45;&gt;Node8</title>
<path fill="none" stroke="#191970" d="M42.9069,-190.6501C45.5722,-181.1333 49.9797,-170.0162 57.1187,-162 115.8038,-96.1043 225.9897,-75.4505 274.7921,-69.3687"/>
<polygon fill="#191970" stroke="#191970" points="39.4814,-189.9273 40.5854,-200.4644 46.2934,-191.5387 39.4814,-189.9273"/>
</g>
<!-- Node16&#45;&gt;Node25 -->
<g id="edge27" class="edge">
<title>Node16&#45;&gt;Node25</title>
<path fill="none" stroke="#191970" d="M51.9403,-191.9965C59.9108,-181.9462 70.9408,-169.897 83.1187,-162 100.6596,-150.6252 123.2703,-143.4338 140.6137,-139.1912"/>
<polygon fill="#191970" stroke="#191970" points="49.0083,-190.0711 45.7715,-200.1594 54.593,-194.2915 49.0083,-190.0711"/>
</g>
<!-- Node17 -->
<g id="node11" class="node">
<title>Node17</title>
<g id="a_node11"><a xlink:href="classTAttFill.html" target="_top" xlink:title="Fill Area Attributes class. ">
<polygon fill="#ffffff" stroke="#000000" points="70.1187,-257.5 70.1187,-276.5 120.1187,-276.5 120.1187,-257.5 70.1187,-257.5"/>
<text text-anchor="middle" x="95.1187" y="-264.5" font-family="Helvetica,sans-Serif" font-size="10.00" fill="#000000">TAttFill</text>
</a>
</g>
</g>
<!-- Node17&#45;&gt;Node8 -->
<g id="edge10" class="edge">
<title>Node17&#45;&gt;Node8</title>
<path fill="none" stroke="#191970" d="M60.3347,-258.1587C29.3248,-248.2128 -9.5101,-229.4822 2.1187,-200 29.8806,-129.6159 63.8536,-117.4144 136.1187,-95 184.1111,-80.1143 242.6588,-72.4957 274.9039,-69.1648"/>
<polygon fill="#191970" stroke="#191970" points="59.4698,-261.5533 70.0541,-261.0817 61.4858,-254.8499 59.4698,-261.5533"/>
</g>
<!-- Node17&#45;&gt;Node25 -->
<g id="edge28" class="edge">
<title>Node17&#45;&gt;Node25</title>
<path fill="none" stroke="#191970" d="M98.4767,-247.5961C101.3689,-233.7899 106.3303,-215.0903 114.1187,-200 125.5765,-177.8 145.1888,-155.9797 157.0727,-143.8246"/>
<polygon fill="#191970" stroke="#191970" points="95.0318,-246.9766 96.5865,-257.4567 101.9067,-248.2945 95.0318,-246.9766"/>
</g>
<!-- Node17&#45;&gt;Node26 -->
<g id="edge32" class="edge">
<title>Node17&#45;&gt;Node26</title>
<path fill="none" stroke="#191970" d="M112.4678,-250.239C122.8262,-240.2317 135.6067,-227.8845 144.258,-219.5265"/>
<polygon fill="#191970" stroke="#191970" points="109.8873,-247.8654 105.1272,-257.3307 114.751,-252.8998 109.8873,-247.8654"/>
</g>
<!-- Node18 -->
<g id="node12" class="node">
<title>Node18</title>
<g id="a_node12"><a xlink:href="classTAtt3D.html" target="_top" xlink:title="Use this attribute class when an object should have 3D capabilities. ">
<polygon fill="#ffffff" stroke="#000000" points="241.1187,-200.5 241.1187,-219.5 291.1187,-219.5 291.1187,-200.5 241.1187,-200.5"/>
<text text-anchor="middle" x="266.1187" y="-207.5" font-family="Helvetica,sans-Serif" font-size="10.00" fill="#000000">TAtt3D</text>
</a>
</g>
</g>
<!-- Node18&#45;&gt;Node8 -->
<g id="edge11" class="edge">
<title>Node18&#45;&gt;Node8</title>
<path fill="none" stroke="#191970" d="M270.722,-190.0524C277.9284,-158.8244 291.5999,-99.5816 296.9215,-76.5211"/>
<polygon fill="#191970" stroke="#191970" points="267.2252,-189.6401 268.3869,-200.171 274.046,-191.2142 267.2252,-189.6401"/>
</g>
<!-- Node18&#45;&gt;Node25 -->
<g id="edge29" class="edge">
<title>Node18&#45;&gt;Node25</title>
<path fill="none" stroke="#191970" d="M254.5956,-192.1303C247.5664,-182.2844 237.8778,-170.3943 227.1187,-162 217.1494,-154.2219 204.6696,-147.9584 193.6774,-143.344"/>
<polygon fill="#191970" stroke="#191970" points="251.734,-194.1463 260.2578,-200.4389 257.5185,-190.2042 251.734,-194.1463"/>
</g>
<!-- Node19&#45;&gt;Node8 -->
<g id="edge12" class="edge">
<title>Node19&#45;&gt;Node8</title>
<path fill="none" stroke="#9a32cd" stroke-dasharray="5,2" d="M494.2272,-155.4072C475.3116,-137.772 442.9781,-110.3574 410.1187,-95 381.8507,-81.7885 346.5065,-74.2505 323.3975,-70.3962"/>
<polygon fill="#9a32cd" stroke="#9a32cd" points="491.8174,-157.9455 501.4748,-162.3027 496.6425,-152.8741 491.8174,-157.9455"/>
<text text-anchor="middle" x="500.1187" y="-131.5" font-family="Helvetica,sans-Serif" font-size="10.00" fill="#000000"> fMatrix</text>
</g>
<!-- Node20 -->
<g id="node14" class="node">
<title>Node20</title>
<g id="a_node14"><a xlink:href="classTList.html" target="_top" xlink:title="A doubly linked list. ">
<polygon fill="#ffffff" stroke="#000000" points="401.1187,-124.5 401.1187,-143.5 441.1187,-143.5 441.1187,-124.5 401.1187,-124.5"/>
<text text-anchor="middle" x="421.1187" y="-131.5" font-family="Helvetica,sans-Serif" font-size="10.00" fill="#000000">TList</text>
</a>
</g>
</g>
<!-- Node20&#45;&gt;Node8 -->
<g id="edge15" class="edge">
<title>Node20&#45;&gt;Node8</title>
<path fill="none" stroke="#9a32cd" stroke-dasharray="5,2" d="M394.8205,-119.5575C371.1473,-106.5567 337.0258,-87.8179 316.5659,-76.5817"/>
<polygon fill="#9a32cd" stroke="#9a32cd" points="393.1891,-122.6546 403.6391,-124.4005 396.5587,-116.519 393.1891,-122.6546"/>
<text text-anchor="middle" x="387.1187" y="-98" font-family="Helvetica,sans-Serif" font-size="10.00" fill="#000000"> fNodes</text>
</g>
<!-- Node21 -->
<g id="node15" class="node">
<title>Node21</title>
<g id="a_node15"><a xlink:href="classTSeqCollection.html" target="_top" xlink:title="Sequenceable collection abstract base class. ">
<polygon fill="#ffffff" stroke="#000000" points="551.6187,-200.5 551.6187,-219.5 640.6187,-219.5 640.6187,-200.5 551.6187,-200.5"/>
<text text-anchor="middle" x="596.1187" y="-207.5" font-family="Helvetica,sans-Serif" font-size="10.00" fill="#000000">TSeqCollection</text>
</a>
</g>
</g>
<!-- Node21&#45;&gt;Node20 -->
<g id="edge16" class="edge">
<title>Node21&#45;&gt;Node20</title>
<path fill="none" stroke="#191970" d="M584.9964,-191.826C577.747,-181.5158 567.3698,-169.2597 555.1187,-162 552.6588,-160.5423 478.1303,-145.4447 441.3085,-138.0446"/>
<polygon fill="#191970" stroke="#191970" points="582.1009,-193.7929 590.5304,-200.2111 587.9432,-189.937 582.1009,-193.7929"/>
</g>
<!-- Node22&#45;&gt;Node21 -->
<g id="edge17" class="edge">
<title>Node22&#45;&gt;Node21</title>
<path fill="none" stroke="#191970" d="M503.6314,-253.4651C514.3862,-248.9962 526.3094,-243.9097 537.1187,-239 550.732,-232.8167 565.8624,-225.3678 577.3926,-219.5677"/>
<polygon fill="#191970" stroke="#191970" points="502.0608,-250.3267 494.1484,-257.3727 504.7277,-256.7987 502.0608,-250.3267"/>
</g>
<!-- Node22&#45;&gt;Node22 -->
<g id="edge23" class="edge">
<title>Node22&#45;&gt;Node22</title>
<path fill="none" stroke="#9a32cd" stroke-dasharray="5,2" d="M515.8992,-271.3285C520.6082,-270.4765 523.6187,-269.0337 523.6187,-267 523.6187,-263.7461 515.9119,-262.0047 505.8719,-261.776"/>
<polygon fill="#9a32cd" stroke="#9a32cd" points="515.5209,-267.8483 505.8719,-272.224 516.1436,-274.8206 515.5209,-267.8483"/>
<text text-anchor="middle" x="572.6187" y="-264.5" font-family="Helvetica,sans-Serif" font-size="10.00" fill="#000000"> fgCurrentCollection</text>
</g>
<!-- Node23&#45;&gt;Node22 -->
<g id="edge19" class="edge">
<title>Node23&#45;&gt;Node22</title>
<path fill="none" stroke="#9a32cd" stroke-dasharray="5,2" d="M434.9673,-325.1713C434.3219,-315.6478 434.87,-304.3107 439.1187,-295 442.4907,-287.6104 448.8458,-281.3274 454.9284,-276.597"/>
<polygon fill="#9a32cd" stroke="#9a32cd" points="431.5106,-325.7497 436.123,-335.2878 438.4653,-324.9552 431.5106,-325.7497"/>
<text text-anchor="middle" x="490.6187" y="-303.5" font-family="Helvetica,sans-Serif" font-size="10.00" fill="#000000"> fgGarbageCollection</text>
</g>
<!-- Node24 -->
<g id="node18" class="node">
<title>Node24</title>
<polygon fill="#ffffff" stroke="#bfbfbf" points="347.1187,-200.5 347.1187,-219.5 495.1187,-219.5 495.1187,-200.5 347.1187,-200.5"/>
<text text-anchor="middle" x="421.1187" y="-207.5" font-family="Helvetica,sans-Serif" font-size="10.00" fill="#000000">std::weak_ptr&lt; TObjLink &gt;</text>
</g>
<!-- Node24&#45;&gt;Node20 -->
<g id="edge24" class="edge">
<title>Node24&#45;&gt;Node20</title>
<path fill="none" stroke="#9a32cd" stroke-dasharray="5,2" d="M421.1187,-190.1362C421.1187,-175.2258 421.1187,-155.4488 421.1187,-143.7874"/>
<polygon fill="#9a32cd" stroke="#9a32cd" points="417.6188,-190.3745 421.1187,-200.3745 424.6188,-190.3746 417.6188,-190.3745"/>
<text text-anchor="middle" x="439.6187" y="-169.5" font-family="Helvetica,sans-Serif" font-size="10.00" fill="#000000"> fCache</text>
</g>
<!-- Node25&#45;&gt;Node8 -->
<g id="edge25" class="edge">
<title>Node25&#45;&gt;Node8</title>
<path fill="none" stroke="#9a32cd" stroke-dasharray="5,2" d="M186.8863,-118.024C197.0059,-110.3649 209.7698,-101.4727 222.1187,-95 239.0009,-86.1511 259.3066,-78.8942 274.8262,-73.9872"/>
<polygon fill="#9a32cd" stroke="#9a32cd" points="184.4999,-115.4459 178.751,-124.3454 188.7949,-120.9733 184.4999,-115.4459"/>
<text text-anchor="middle" x="240.6187" y="-98" font-family="Helvetica,sans-Serif" font-size="10.00" fill="#000000"> fShape</text>
</g>
<!-- Node26&#45;&gt;Node25 -->
<g id="edge30" class="edge">
<title>Node26&#45;&gt;Node25</title>
<path fill="none" stroke="#9a32cd" stroke-dasharray="5,2" d="M150.7848,-190.2408C149.9442,-181.4726 149.8345,-171.1009 152.1187,-162 153.7565,-155.4744 157.24,-148.8094 160.438,-143.6199"/>
<polygon fill="#9a32cd" stroke="#9a32cd" points="147.3309,-190.82 152.1154,-200.273 154.2701,-189.8996 147.3309,-190.82"/>
<text text-anchor="middle" x="175.6187" y="-169.5" font-family="Helvetica,sans-Serif" font-size="10.00" fill="#000000"> fMaterial</text>
</g>
</g>
</svg>
