<?xml version="1.0" encoding="UTF-8" standalone="no"?>
<!DOCTYPE svg PUBLIC "-//W3C//DTD SVG 1.1//EN"
 "http://www.w3.org/Graphics/SVG/1.1/DTD/svg11.dtd">
<!-- Generated by graphviz version 2.40.1 (0)
 -->
<!-- Title: ROOT::Experimental::RAxisGrow Pages: 1 -->
<svg width="123pt" height="310pt"
 viewBox="0.00 0.00 123.00 310.00" xmlns="http://www.w3.org/2000/svg" xmlns:xlink="http://www.w3.org/1999/xlink">
<g id="graph0" class="graph" transform="scale(1 1) rotate(0) translate(4 306)">
<title>ROOT::Experimental::RAxisGrow</title>
<polygon fill="#ffffff" stroke="transparent" points="-4,4 -4,-306 119,-306 119,4 -4,4"/>
<!-- Node4 -->
<g id="node1" class="node">
<title>Node4</title>
<polygon fill="#bfbfbf" stroke="#000000" points="0,-.5 0,-30.5 115,-30.5 115,-.5 0,-.5"/>
<text text-anchor="start" x="8" y="-18.5" font-family="Helvetica,sans-Serif" font-size="10.00" fill="#000000">ROOT::Experimental</text>
<text text-anchor="middle" x="57.5" y="-7.5" font-family="Helvetica,sans-Serif" font-size="10.00" fill="#000000">::RAxisGrow</text>
</g>
<!-- Node5 -->
<g id="node2" class="node">
<title>Node5</title>
<g id="a_node2"><a xlink:href="classROOT_1_1Experimental_1_1RAxisEquidistant.html" target="_top" xlink:title=" Axis with equidistant bin borders. ">
<polygon fill="#ffffff" stroke="#000000" points="0,-68.5 0,-98.5 115,-98.5 115,-68.5 0,-68.5"/>
<text text-anchor="start" x="8" y="-86.5" font-family="Helvetica,sans-Serif" font-size="10.00" fill="#000000">ROOT::Experimental</text>
<text text-anchor="middle" x="57.5" y="-75.5" font-family="Helvetica,sans-Serif" font-size="10.00" fill="#000000">::RAxisEquidistant</text>
</a>
</g>
</g>
<!-- Node5&#45;&gt;Node4 -->
<g id="edge1" class="edge">
<title>Node5&#45;&gt;Node4</title>
<path fill="none" stroke="#191970" d="M57.5,-58.1174C57.5,-48.8378 57.5,-38.6413 57.5,-30.5492"/>
<polygon fill="#191970" stroke="#191970" points="54.0001,-58.4086 57.5,-68.4086 61.0001,-58.4086 54.0001,-58.4086"/>
</g>
<!-- Node6 -->
<g id="node3" class="node">
<title>Node6</title>
<g id="a_node3"><a xlink:href="classROOT_1_1Experimental_1_1RAxisBase.html" target="_top" xlink:title=" &#160;Histogram axis base class. ">
<polygon fill="#ffffff" stroke="#000000" points="0,-136.5 0,-166.5 115,-166.5 115,-136.5 0,-136.5"/>
<text text-anchor="start" x="8" y="-154.5" font-family="Helvetica,sans-Serif" font-size="10.00" fill="#000000">ROOT::Experimental</text>
<text text-anchor="middle" x="57.5" y="-143.5" font-family="Helvetica,sans-Serif" font-size="10.00" fill="#000000">::RAxisBase</text>
</a>
</g>
</g>
<!-- Node6&#45;&gt;Node5 -->
<g id="edge2" class="edge">
<title>Node6&#45;&gt;Node5</title>
<path fill="none" stroke="#191970" d="M57.5,-126.1174C57.5,-116.8378 57.5,-106.6413 57.5,-98.5492"/>
<polygon fill="#191970" stroke="#191970" points="54.0001,-126.4086 57.5,-136.4086 61.0001,-126.4086 54.0001,-126.4086"/>
</g>
<!-- Node7 -->
<g id="node4" class="node">
<title>Node7</title>
<g id="a_node4"><a xlink:title="STL class. ">
<polygon fill="#ffffff" stroke="#bfbfbf" points="25,-214.5 25,-233.5 90,-233.5 90,-214.5 25,-214.5"/>
<text text-anchor="middle" x="57.5" y="-221.5" font-family="Helvetica,sans-Serif" font-size="10.00" fill="#000000">std::string</text>
</a>
</g>
</g>
<!-- Node7&#45;&gt;Node6 -->
<g id="edge3" class="edge">
<title>Node7&#45;&gt;Node6</title>
<path fill="none" stroke="#9a32cd" stroke-dasharray="5,2" d="M57.5,-204.0177C57.5,-192.2164 57.5,-177.513 57.5,-166.668"/>
<polygon fill="#9a32cd" stroke="#9a32cd" points="54.0001,-204.2223 57.5,-214.2223 61.0001,-204.2224 54.0001,-204.2223"/>
<text text-anchor="middle" x="72" y="-188" font-family="Helvetica,sans-Serif" font-size="10.00" fill="#000000"> fTitle</text>
</g>
<!-- Node8 -->
<g id="node5" class="node">
<title>Node8</title>
<polygon fill="#ffffff" stroke="#bfbfbf" points="5.5,-271.5 5.5,-301.5 109.5,-301.5 109.5,-271.5 5.5,-271.5"/>
<text text-anchor="start" x="13.5" y="-289.5" font-family="Helvetica,sans-Serif" font-size="10.00" fill="#000000">std::basic_string&lt;</text>
<text text-anchor="middle" x="57.5" y="-278.5" font-family="Helvetica,sans-Serif" font-size="10.00" fill="#000000"> char &gt;</text>
</g>
<!-- Node8&#45;&gt;Node7 -->
<g id="edge4" class="edge">
<title>Node8&#45;&gt;Node7</title>
<path fill="none" stroke="#191970" d="M57.5,-261.3498C57.5,-251.6481 57.5,-241.1303 57.5,-233.7356"/>
<polygon fill="#191970" stroke="#191970" points="54.0001,-261.3705 57.5,-271.3705 61.0001,-261.3705 54.0001,-261.3705"/>
</g>
</g>
</svg>
