<?xml version="1.0" encoding="UTF-8" standalone="no"?>
<!DOCTYPE svg PUBLIC "-//W3C//DTD SVG 1.1//EN"
 "http://www.w3.org/Graphics/SVG/1.1/DTD/svg11.dtd">
<!-- Generated by graphviz version 2.40.1 (0)
 -->
<!-- Title: XpdSrvMgrCreateCnt Pages: 1 -->
<!--zoomable 996 -->
<svg id="main" version="1.1" xmlns="http://www.w3.org/2000/svg" xmlns:xlink="http://www.w3.org/1999/xlink" xml:space="preserve" onload="init(evt)">
<style type="text/css"><![CDATA[
.edge:hover path { stroke: red; }
.edge:hover polygon { stroke: red; fill: red; }
]]></style>
<script type="text/javascript"><![CDATA[
var edges = document.getElementsByTagName('g');
if (edges && edges.length) {
  for (var i=0;i<edges.length;i++) {
    if (edges[i].id.substr(0,4)=='edge') {
      edges[i].setAttribute('class','edge');
    }
  }
}
]]></script>
        <defs>
                <circle id="rim" cx="0" cy="0" r="7"/>
                <circle id="rim2" cx="0" cy="0" r="3.5"/>
                <g id="zoomPlus">
                        <use xlink:href="#rim" fill="#404040">
                                <set attributeName="fill" to="#808080" begin="zoomplus.mouseover" end="zoomplus.mouseout"/>
                        </use>
                        <path d="M-4,0h8M0,-4v8" fill="none" stroke="white" stroke-width="1.5" pointer-events="none"/>
                </g>
                <g id="zoomMin">
                        <use xlink:href="#rim" fill="#404040">
                                <set attributeName="fill" to="#808080" begin="zoomminus.mouseover" end="zoomminus.mouseout"/>
                        </use>
                        <path d="M-4,0h8" fill="none" stroke="white" stroke-width="1.5" pointer-events="none"/>
                </g>
                <g id="dirArrow">
                        <path fill="none" stroke="white" stroke-width="1.5" d="M0,-3.0v7 M-2.5,-0.5L0,-3.0L2.5,-0.5"/>
                </g>
               <g id="resetDef">
                       <use xlink:href="#rim2" fill="#404040">
                               <set attributeName="fill" to="#808080" begin="reset.mouseover" end="reset.mouseout"/>
                       </use>
               </g>
        </defs>

<script type="text/javascript">
var viewWidth = 1118;
var viewHeight = 996;
var sectionId = 'dynsection-0';
</script>
<script xlink:href="svgpan.js"/>
<svg id="graph" class="graph">
<g id="viewport">
<title>XpdSrvMgrCreateCnt</title>
<polygon fill="#ffffff" stroke="transparent" points="-4,4 -4,-992 1114,-992 1114,4 -4,4"/>
<!-- Node1 -->
<g id="node1" class="node">
<title>Node1</title>
<polygon fill="#bfbfbf" stroke="#000000" points="745.5,-524.5 745.5,-543.5 863.5,-543.5 863.5,-524.5 745.5,-524.5"/>
<text text-anchor="middle" x="804.5" y="-531.5" font-family="Helvetica,sans-Serif" font-size="10.00" fill="#000000">XpdSrvMgrCreateCnt</text>
</g>
<!-- Node2 -->
<g id="node2" class="node">
<title>Node2</title>
<g id="a_node2"><a xlink:href="classXrdProofdProofServMgr.html" target="_top" xlink:title="XrdProofdProofServMgr">
<polygon fill="#ffffff" stroke="#000000" points="459.5,-506.5 459.5,-525.5 589.5,-525.5 589.5,-506.5 459.5,-506.5"/>
<text text-anchor="middle" x="524.5" y="-513.5" font-family="Helvetica,sans-Serif" font-size="10.00" fill="#000000">XrdProofdProofServMgr</text>
</a>
</g>
</g>
<!-- Node2&#45;&gt;Node1 -->
<g id="edge1" class="edge">
<title>Node2&#45;&gt;Node1</title>
<path fill="none" stroke="#9a32cd" stroke-dasharray="5,2" d="M547.3912,-530.8843C566.6713,-542.4804 595.4418,-557.6426 623,-564 659.811,-572.4919 671.6343,-574.2321 708,-564 717.0251,-561.4606 717.3392,-556.5906 726,-553 735.0671,-549.241 745.0449,-546.1171 754.7574,-543.562"/>
<polygon fill="#9a32cd" stroke="#9a32cd" points="549.0818,-527.8146 538.7356,-525.5323 545.4003,-533.7684 549.0818,-527.8146"/>
<text text-anchor="middle" x="665.5" y="-575" font-family="Helvetica,sans-Serif" font-size="10.00" fill="#000000"> fMgr</text>
</g>
<!-- Node10 -->
<g id="node10" class="node">
<title>Node10</title>
<g id="a_node10"><a xlink:href="classXrdProofdManager.html" target="_top" xlink:title="XrdProofdManager">
<polygon fill="#ffffff" stroke="#000000" points="751,-376.5 751,-395.5 858,-395.5 858,-376.5 751,-376.5"/>
<text text-anchor="middle" x="804.5" y="-383.5" font-family="Helvetica,sans-Serif" font-size="10.00" fill="#000000">XrdProofdManager</text>
</a>
</g>
</g>
<!-- Node2&#45;&gt;Node10 -->
<g id="edge15" class="edge">
<title>Node2&#45;&gt;Node10</title>
<path fill="none" stroke="#9a32cd" stroke-dasharray="5,2" d="M599.7236,-514.454C634.3338,-511.1126 674.9489,-503.3174 708,-486 750.3139,-463.8292 784.9003,-416.1333 798.4003,-395.6591"/>
<polygon fill="#9a32cd" stroke="#9a32cd" points="599.3265,-510.9751 589.6628,-515.3182 599.9256,-517.9495 599.3265,-510.9751"/>
<text text-anchor="middle" x="665.5" y="-515" font-family="Helvetica,sans-Serif" font-size="10.00" fill="#000000"> fSessionMgr</text>
</g>
<!-- Node3 -->
<g id="node3" class="node">
<title>Node3</title>
<g id="a_node3"><a xlink:href="classXrdProofdConfig.html" target="_top" xlink:title="XrdProofdConfig">
<polygon fill="#ffffff" stroke="#000000" points="194.5,-289.5 194.5,-308.5 289.5,-308.5 289.5,-289.5 194.5,-289.5"/>
<text text-anchor="middle" x="242" y="-296.5" font-family="Helvetica,sans-Serif" font-size="10.00" fill="#000000">XrdProofdConfig</text>
</a>
</g>
</g>
<!-- Node3&#45;&gt;Node2 -->
<g id="edge2" class="edge">
<title>Node3&#45;&gt;Node2</title>
<path fill="none" stroke="#191970" d="M257.7633,-315.9795C277.2623,-336.5376 311.9418,-371.6746 345,-398 378.6543,-424.8002 390.9912,-425.995 426,-451 434.2472,-456.8906 435.7097,-459.1701 444,-465 465.7885,-480.322 492.0107,-496.5435 508.4721,-506.4728"/>
<polygon fill="#191970" stroke="#191970" points="260.2406,-313.5048 250.84,-308.6181 255.1414,-318.3005 260.2406,-313.5048"/>
</g>
<!-- Node3&#45;&gt;Node10 -->
<g id="edge10" class="edge">
<title>Node3&#45;&gt;Node10</title>
<path fill="none" stroke="#191970" d="M299.8569,-298.0893C371.8504,-297.8575 498.3219,-300.4151 605,-318 651.9244,-325.735 662.9971,-331.6225 708,-347 734.1619,-355.9395 763.5212,-368.124 782.9113,-376.4816"/>
<polygon fill="#191970" stroke="#191970" points="299.6207,-294.5904 289.639,-298.1423 299.6571,-301.5903 299.6207,-294.5904"/>
</g>
<!-- Node11 -->
<g id="node11" class="node">
<title>Node11</title>
<g id="a_node11"><a xlink:href="classXrdROOTMgr.html" target="_top" xlink:title="XrdROOTMgr">
<polygon fill="#ffffff" stroke="#000000" points="1011.5,-196.5 1011.5,-215.5 1090.5,-215.5 1090.5,-196.5 1011.5,-196.5"/>
<text text-anchor="middle" x="1051" y="-203.5" font-family="Helvetica,sans-Serif" font-size="10.00" fill="#000000">XrdROOTMgr</text>
</a>
</g>
</g>
<!-- Node3&#45;&gt;Node11 -->
<g id="edge12" class="edge">
<title>Node3&#45;&gt;Node11</title>
<path fill="none" stroke="#191970" d="M261.0887,-283.0178C280.835,-267.3348 313.1881,-243.9431 345,-231 568.5108,-140.0621 642.059,-144.8012 883,-158 923.627,-160.2256 934.9413,-156.6015 974,-168 996.6104,-174.5984 1020.642,-187.5269 1035.7277,-196.4583"/>
<polygon fill="#191970" stroke="#191970" points="258.7596,-280.4001 253.1932,-289.4149 263.1663,-285.839 258.7596,-280.4001"/>
</g>
<!-- Node14 -->
<g id="node14" class="node">
<title>Node14</title>
<g id="a_node14"><a xlink:href="classXrdProofdPriorityMgr.html" target="_top" xlink:title="XrdProofdPriorityMgr">
<polygon fill="#ffffff" stroke="#000000" points="992,-335.5 992,-354.5 1110,-354.5 1110,-335.5 992,-335.5"/>
<text text-anchor="middle" x="1051" y="-342.5" font-family="Helvetica,sans-Serif" font-size="10.00" fill="#000000">XrdProofdPriorityMgr</text>
</a>
</g>
</g>
<!-- Node3&#45;&gt;Node14 -->
<g id="edge18" class="edge">
<title>Node3&#45;&gt;Node14</title>
<path fill="none" stroke="#191970" d="M264.7195,-284.0666C284.8893,-271.6768 315.6348,-254.8624 345,-247 412.5928,-228.9022 913.1483,-181.4545 974,-216 1020.7249,-242.5257 1042.1111,-309.8919 1048.6827,-335.195"/>
<polygon fill="#191970" stroke="#191970" points="262.8411,-281.1132 256.2393,-289.3998 266.5678,-287.0388 262.8411,-281.1132"/>
</g>
<!-- Node15 -->
<g id="node15" class="node">
<title>Node15</title>
<g id="a_node15"><a xlink:href="classXrdProofdAdmin.html" target="_top" xlink:title="XrdProofdAdmin">
<polygon fill="#ffffff" stroke="#000000" points="1003,-55.5 1003,-74.5 1099,-74.5 1099,-55.5 1003,-55.5"/>
<text text-anchor="middle" x="1051" y="-62.5" font-family="Helvetica,sans-Serif" font-size="10.00" fill="#000000">XrdProofdAdmin</text>
</a>
</g>
</g>
<!-- Node3&#45;&gt;Node15 -->
<g id="edge22" class="edge">
<title>Node3&#45;&gt;Node15</title>
<path fill="none" stroke="#191970" d="M256.1467,-281.5913C274.706,-259.619 309.1482,-221.7161 345,-197 384.7925,-169.5672 397.9331,-166.6232 444,-152 641.0684,-89.4437 695.1551,-84.4192 901,-65 934.9638,-61.7959 973.4462,-61.871 1002.929,-62.7082"/>
<polygon fill="#191970" stroke="#191970" points="253.3306,-279.5038 249.6292,-289.4311 258.7135,-283.9788 253.3306,-279.5038"/>
</g>
<!-- Node17 -->
<g id="node17" class="node">
<title>Node17</title>
<g id="a_node17"><a xlink:href="classXrdProofSched.html" target="_top" xlink:title="XrdProofSched">
<polygon fill="#ffffff" stroke="#000000" points="1007,-783.5 1007,-802.5 1095,-802.5 1095,-783.5 1007,-783.5"/>
<text text-anchor="middle" x="1051" y="-790.5" font-family="Helvetica,sans-Serif" font-size="10.00" fill="#000000">XrdProofSched</text>
</a>
</g>
</g>
<!-- Node3&#45;&gt;Node17 -->
<g id="edge26" class="edge">
<title>Node3&#45;&gt;Node17</title>
<path fill="none" stroke="#191970" d="M261.8397,-314.808C281.9429,-330.3007 314.3631,-353.8737 345,-370 379.1097,-387.9543 394.9933,-378.0999 426,-401 436.4415,-408.7116 432.803,-417.4333 444,-424 529.9403,-474.4013 820.0204,-437.8016 883,-515 916.2485,-555.7549 867.6438,-710.3332 901,-751 926.3827,-781.9458 972.5509,-791.1481 1006.9878,-793.4049"/>
<polygon fill="#191970" stroke="#191970" points="263.807,-311.9036 253.7699,-308.5113 259.5008,-317.4224 263.807,-311.9036"/>
</g>
<!-- Node19 -->
<g id="node19" class="node">
<title>Node19</title>
<g id="a_node19"><a xlink:href="classXrdProofdNetMgr.html" target="_top" xlink:title="XrdProofdNetMgr">
<polygon fill="#ffffff" stroke="#000000" points="1001,-632.5 1001,-651.5 1101,-651.5 1101,-632.5 1001,-632.5"/>
<text text-anchor="middle" x="1051" y="-639.5" font-family="Helvetica,sans-Serif" font-size="10.00" fill="#000000">XrdProofdNetMgr</text>
</a>
</g>
</g>
<!-- Node3&#45;&gt;Node19 -->
<g id="edge33" class="edge">
<title>Node3&#45;&gt;Node19</title>
<path fill="none" stroke="#191970" d="M285.0968,-311.7282C323.9597,-324.3997 381.6501,-346.2496 426,-376 435.3956,-382.3026 433.9307,-388.8416 444,-394 620.5106,-484.4243 749.3608,-327.4629 883,-474 929.4347,-524.9162 851.7089,-579.8437 901,-628 927.753,-654.137 971.4219,-655.4425 1004.7609,-651.5024"/>
<polygon fill="#191970" stroke="#191970" points="285.743,-308.2604 275.1522,-308.5519 283.6132,-314.9286 285.743,-308.2604"/>
</g>
<!-- Node21 -->
<g id="node21" class="node">
<title>Node21</title>
<g id="a_node21"><a xlink:href="classXrdProofdClientMgr.html" target="_top" xlink:title="XrdProofdClientMgr">
<polygon fill="#ffffff" stroke="#000000" points="995.5,-420.5 995.5,-439.5 1106.5,-439.5 1106.5,-420.5 995.5,-420.5"/>
<text text-anchor="middle" x="1051" y="-427.5" font-family="Helvetica,sans-Serif" font-size="10.00" fill="#000000">XrdProofdClientMgr</text>
</a>
</g>
</g>
<!-- Node3&#45;&gt;Node21 -->
<g id="edge38" class="edge">
<title>Node3&#45;&gt;Node21</title>
<path fill="none" stroke="#191970" d="M299.9448,-292.804C463.8682,-275.8657 922.3869,-232.7805 974,-275 1005.2369,-300.5518 973.9211,-327.9196 992,-364 1003.567,-387.0845 1025.3615,-408.2944 1038.9784,-420.1485"/>
<polygon fill="#191970" stroke="#191970" points="299.1657,-289.366 289.5809,-293.8807 299.8891,-296.3285 299.1657,-289.366"/>
</g>
<!-- Node4 -->
<g id="node4" class="node">
<title>Node4</title>
<g id="a_node4"><a xlink:href="classXrdProofdFile.html" target="_top" xlink:title="XrdProofdFile">
<polygon fill="#ffffff" stroke="#000000" points="0,-880.5 0,-899.5 81,-899.5 81,-880.5 0,-880.5"/>
<text text-anchor="middle" x="40.5" y="-887.5" font-family="Helvetica,sans-Serif" font-size="10.00" fill="#000000">XrdProofdFile</text>
</a>
</g>
</g>
<!-- Node4&#45;&gt;Node3 -->
<g id="edge3" class="edge">
<title>Node4&#45;&gt;Node3</title>
<path fill="none" stroke="#9a32cd" stroke-dasharray="5,2" d="M42.7826,-869.9929C50.928,-803.4001 82.1691,-584.1684 157,-420 177.7633,-374.4483 216.2133,-328.0857 233.3583,-308.5774"/>
<polygon fill="#9a32cd" stroke="#9a32cd" points="39.2633,-869.9494 41.5608,-880.2921 46.2146,-870.7741 39.2633,-869.9494"/>
<text text-anchor="middle" x="119" y="-586" font-family="Helvetica,sans-Serif" font-size="10.00" fill="#000000"> fCfgFile</text>
</g>
<!-- Node18 -->
<g id="node18" class="node">
<title>Node18</title>
<g id="a_node18"><a xlink:href="classXrdProofGroupMgr.html" target="_top" xlink:title="XrdProofGroupMgr">
<polygon fill="#ffffff" stroke="#000000" points="471.5,-884.5 471.5,-903.5 577.5,-903.5 577.5,-884.5 471.5,-884.5"/>
<text text-anchor="middle" x="524.5" y="-891.5" font-family="Helvetica,sans-Serif" font-size="10.00" fill="#000000">XrdProofGroupMgr</text>
</a>
</g>
</g>
<!-- Node4&#45;&gt;Node18 -->
<g id="edge31" class="edge">
<title>Node4&#45;&gt;Node18</title>
<path fill="none" stroke="#9a32cd" stroke-dasharray="5,2" d="M91.5533,-890.4219C183.8226,-891.1845 377.4595,-892.7848 471.2859,-893.5602"/>
<polygon fill="#9a32cd" stroke="#9a32cd" points="91.3771,-886.9204 81.3484,-890.3376 91.3191,-893.9202 91.3771,-886.9204"/>
<text text-anchor="middle" x="242" y="-906" font-family="Helvetica,sans-Serif" font-size="10.00" fill="#000000"> fCfgFile</text>
<text text-anchor="middle" x="242" y="-895" font-family="Helvetica,sans-Serif" font-size="10.00" fill="#000000">fPriorityFile</text>
</g>
<!-- Node4&#45;&gt;Node19 -->
<g id="edge34" class="edge">
<title>Node4&#45;&gt;Node19</title>
<path fill="none" stroke="#9a32cd" stroke-dasharray="5,2" d="M70.2528,-903.6412C162.6809,-943.749 448.0304,-1050.1367 605,-913 644.6209,-878.3852 585.3332,-832.7316 623,-796 735.6006,-686.1952 839.2352,-832.083 974,-751 1013.9041,-726.9912 1038.6145,-673.4884 1047.3904,-651.6072"/>
<polygon fill="#9a32cd" stroke="#9a32cd" points="71.4957,-900.3642 60.9333,-899.5359 68.6738,-906.7702 71.4957,-900.3642"/>
<text text-anchor="middle" x="524.5" y="-980" font-family="Helvetica,sans-Serif" font-size="10.00" fill="#000000"> fPROOFcfg</text>
</g>
<!-- Node5 -->
<g id="node5" class="node">
<title>Node5</title>
<g id="a_node5"><a xlink:href="classXrdProofUI.html" target="_top" xlink:title="XrdProofUI">
<polygon fill="#ffffff" stroke="#000000" points="207.5,-467.5 207.5,-486.5 276.5,-486.5 276.5,-467.5 207.5,-467.5"/>
<text text-anchor="middle" x="242" y="-474.5" font-family="Helvetica,sans-Serif" font-size="10.00" fill="#000000">XrdProofUI</text>
</a>
</g>
</g>
<!-- Node5&#45;&gt;Node2 -->
<g id="edge4" class="edge">
<title>Node5&#45;&gt;Node2</title>
<path fill="none" stroke="#9a32cd" stroke-dasharray="5,2" d="M286.7088,-481.689C324.0224,-485.7598 378.569,-492.0762 426,-499 441.1109,-501.2058 457.4723,-503.904 472.4388,-506.4953"/>
<polygon fill="#9a32cd" stroke="#9a32cd" points="286.9802,-478.198 276.6616,-480.6017 286.227,-485.1574 286.9802,-478.198"/>
<text text-anchor="middle" x="385.5" y="-502" font-family="Helvetica,sans-Serif" font-size="10.00" fill="#000000"> fCredsSaver</text>
</g>
<!-- Node6 -->
<g id="node6" class="node">
<title>Node6</title>
<polygon fill="#ffffff" stroke="#bfbfbf" points="157,-429.5 157,-448.5 327,-448.5 327,-429.5 157,-429.5"/>
<text text-anchor="middle" x="242" y="-436.5" font-family="Helvetica,sans-Serif" font-size="10.00" fill="#000000">std::list&lt; XpdClientSessions *&gt;</text>
</g>
<!-- Node6&#45;&gt;Node2 -->
<g id="edge5" class="edge">
<title>Node6&#45;&gt;Node2</title>
<path fill="none" stroke="#9a32cd" stroke-dasharray="5,2" d="M321.0199,-450.1961C353.8782,-455.8365 392.1704,-463.7014 426,-474 454.4553,-482.6625 485.818,-496.9031 505.3386,-506.3654"/>
<polygon fill="#9a32cd" stroke="#9a32cd" points="321.4491,-446.7193 311.0079,-448.5168 320.2911,-453.6229 321.4491,-446.7193"/>
<text text-anchor="middle" x="385.5" y="-477" font-family="Helvetica,sans-Serif" font-size="10.00" fill="#000000"> fRecoverClients</text>
</g>
<!-- Node7 -->
<g id="node7" class="node">
<title>Node7</title>
<polygon fill="#ffffff" stroke="#bfbfbf" points="163,-544 163,-574 321,-574 321,-544 163,-544"/>
<text text-anchor="start" x="171" y="-562" font-family="Helvetica,sans-Serif" font-size="10.00" fill="#000000">std::map&lt; XrdProofdProtocol</text>
<text text-anchor="middle" x="242" y="-551" font-family="Helvetica,sans-Serif" font-size="10.00" fill="#000000"> *, int &gt;</text>
</g>
<!-- Node7&#45;&gt;Node2 -->
<g id="edge6" class="edge">
<title>Node7&#45;&gt;Node2</title>
<path fill="none" stroke="#9a32cd" stroke-dasharray="5,2" d="M331.4957,-549.1973C361.595,-545.5326 395.3161,-541.0254 426,-536 444.0812,-533.0387 463.9007,-529.142 480.9907,-525.5754"/>
<polygon fill="#9a32cd" stroke="#9a32cd" points="330.947,-545.738 321.4366,-550.4074 331.7831,-552.6879 330.947,-545.738"/>
<text text-anchor="middle" x="385.5" y="-551" font-family="Helvetica,sans-Serif" font-size="10.00" fill="#000000"> fDestroyTimes</text>
</g>
<!-- Node8 -->
<g id="node8" class="node">
<title>Node8</title>
<polygon fill="#ffffff" stroke="#bfbfbf" points="173.5,-605 173.5,-635 310.5,-635 310.5,-605 173.5,-605"/>
<text text-anchor="start" x="181.5" y="-623" font-family="Helvetica,sans-Serif" font-size="10.00" fill="#000000">std::list&lt; XrdProofdProof</text>
<text text-anchor="middle" x="242" y="-612" font-family="Helvetica,sans-Serif" font-size="10.00" fill="#000000">Serv *&gt;</text>
</g>
<!-- Node8&#45;&gt;Node2 -->
<g id="edge7" class="edge">
<title>Node8&#45;&gt;Node2</title>
<path fill="none" stroke="#9a32cd" stroke-dasharray="5,2" d="M307.6319,-602.1757C343.1069,-591.917 387.4253,-578.0864 426,-563 454.7632,-551.7508 486.8312,-535.7725 506.3347,-525.6478"/>
<polygon fill="#9a32cd" stroke="#9a32cd" points="306.5215,-598.8529 297.8727,-604.9725 308.45,-605.582 306.5215,-598.8529"/>
<text text-anchor="middle" x="385.5" y="-594" font-family="Helvetica,sans-Serif" font-size="10.00" fill="#000000"> fActiveSessions</text>
</g>
<!-- Node8&#45;&gt;Node17 -->
<g id="edge28" class="edge">
<title>Node8&#45;&gt;Node17</title>
<path fill="none" stroke="#9a32cd" stroke-dasharray="5,2" d="M304.4628,-637.9361C463.019,-683.3982 870.717,-799.8517 901,-804 936.4419,-808.855 976.9087,-805.3634 1006.8719,-801.0681"/>
<polygon fill="#9a32cd" stroke="#9a32cd" points="304.9633,-634.4386 294.3859,-635.0461 303.0336,-641.1673 304.9633,-634.4386"/>
<text text-anchor="middle" x="665.5" y="-753" font-family="Helvetica,sans-Serif" font-size="10.00" fill="#000000"> fQueue</text>
</g>
<!-- Node9 -->
<g id="node9" class="node">
<title>Node9</title>
<g id="a_node9"><a xlink:href="classXrdProofdPipe.html" target="_top" xlink:title="XrdProofdPipe">
<polygon fill="#ffffff" stroke="#000000" points="199,-654.5 199,-673.5 285,-673.5 285,-654.5 199,-654.5"/>
<text text-anchor="middle" x="242" y="-661.5" font-family="Helvetica,sans-Serif" font-size="10.00" fill="#000000">XrdProofdPipe</text>
</a>
</g>
</g>
<!-- Node9&#45;&gt;Node2 -->
<g id="edge8" class="edge">
<title>Node9&#45;&gt;Node2</title>
<path fill="none" stroke="#9a32cd" stroke-dasharray="5,2" d="M295.0457,-656.0537C306.0055,-653.1809 317.1894,-649.2829 327,-644 336.6885,-638.7828 335.4329,-632.4366 345,-627 377.5368,-608.5108 393.2105,-622.0372 426,-604 464.5766,-582.7794 500.6946,-543.8897 516.3425,-525.7711"/>
<polygon fill="#9a32cd" stroke="#9a32cd" points="294.0121,-652.7017 285.0893,-658.4142 295.627,-659.5129 294.0121,-652.7017"/>
<text text-anchor="middle" x="385.5" y="-630" font-family="Helvetica,sans-Serif" font-size="10.00" fill="#000000"> fPipe</text>
</g>
<!-- Node9&#45;&gt;Node14 -->
<g id="edge19" class="edge">
<title>Node9&#45;&gt;Node14</title>
<path fill="none" stroke="#9a32cd" stroke-dasharray="5,2" d="M295.329,-661.5711C455.9329,-653.737 926.8873,-626.7681 974,-578 999.934,-551.1548 976.834,-445.1061 992,-411 1002.4911,-387.4071 1024.6218,-366.356 1038.597,-354.6713"/>
<polygon fill="#9a32cd" stroke="#9a32cd" points="295.0266,-658.0815 285.2069,-662.0595 295.364,-665.0734 295.0266,-658.0815"/>
<text text-anchor="middle" x="665.5" y="-643" font-family="Helvetica,sans-Serif" font-size="10.00" fill="#000000"> fPipe</text>
</g>
<!-- Node9&#45;&gt;Node17 -->
<g id="edge27" class="edge">
<title>Node9&#45;&gt;Node17</title>
<path fill="none" stroke="#9a32cd" stroke-dasharray="5,2" d="M247.1811,-683.6182C258.1198,-720.56 287.4352,-799.6341 345,-832 466.8398,-900.5046 838.1063,-864.7222 974,-832 997.6011,-826.317 1022.1668,-812.209 1037.0252,-802.6146"/>
<polygon fill="#9a32cd" stroke="#9a32cd" points="250.4417,-682.2837 244.3654,-673.6044 243.703,-684.1786 250.4417,-682.2837"/>
<text text-anchor="middle" x="665.5" y="-873" font-family="Helvetica,sans-Serif" font-size="10.00" fill="#000000"> fPipe</text>
</g>
<!-- Node9&#45;&gt;Node21 -->
<g id="edge40" class="edge">
<title>Node9&#45;&gt;Node21</title>
<path fill="none" stroke="#9a32cd" stroke-dasharray="5,2" d="M295.7126,-667.3158C447.0828,-675.4908 872.7167,-690.0688 974,-603 1026.8513,-557.5661 1044.9735,-468.7402 1049.6418,-439.5485"/>
<polygon fill="#9a32cd" stroke="#9a32cd" points="295.4742,-663.7973 285.2962,-666.7397 295.0876,-670.7866 295.4742,-663.7973"/>
<text text-anchor="middle" x="665.5" y="-676" font-family="Helvetica,sans-Serif" font-size="10.00" fill="#000000"> fPipe</text>
</g>
<!-- Node10&#45;&gt;Node2 -->
<g id="edge9" class="edge">
<title>Node10&#45;&gt;Node2</title>
<path fill="none" stroke="#9a32cd" stroke-dasharray="5,2" d="M774.6593,-399.8546C717.53,-426.3789 594.0379,-483.7146 545.0891,-506.4408"/>
<polygon fill="#9a32cd" stroke="#9a32cd" points="776.2846,-402.9589 783.8808,-395.5732 773.3367,-396.6099 776.2846,-402.9589"/>
<text text-anchor="middle" x="665.5" y="-474" font-family="Helvetica,sans-Serif" font-size="10.00" fill="#000000"> fMgr</text>
</g>
<!-- Node10&#45;&gt;Node11 -->
<g id="edge14" class="edge">
<title>Node10&#45;&gt;Node11</title>
<path fill="none" stroke="#9a32cd" stroke-dasharray="5,2" d="M812.2531,-366.8426C825.6432,-336.243 856.0579,-276.578 901,-245 933.8041,-221.9506 979.2362,-212.5205 1011.4838,-208.6642"/>
<polygon fill="#9a32cd" stroke="#9a32cd" points="808.8997,-365.7865 808.2309,-376.3602 815.3476,-368.5115 808.8997,-365.7865"/>
<text text-anchor="middle" x="937.5" y="-248" font-family="Helvetica,sans-Serif" font-size="10.00" fill="#000000"> fMgr</text>
</g>
<!-- Node10&#45;&gt;Node14 -->
<g id="edge20" class="edge">
<title>Node10&#45;&gt;Node14</title>
<path fill="none" stroke="#9a32cd" stroke-dasharray="5,2" d="M850.2015,-373.9736C866.1876,-370.0692 884.3103,-365.9802 901,-363 930.8222,-357.6748 964.2679,-353.4907 991.997,-350.5021"/>
<polygon fill="#9a32cd" stroke="#9a32cd" points="848.9017,-370.6901 840.0414,-376.4993 850.5905,-377.4834 848.9017,-370.6901"/>
<text text-anchor="middle" x="937.5" y="-366" font-family="Helvetica,sans-Serif" font-size="10.00" fill="#000000"> fMgr</text>
</g>
<!-- Node10&#45;&gt;Node15 -->
<g id="edge24" class="edge">
<title>Node10&#45;&gt;Node15</title>
<path fill="none" stroke="#9a32cd" stroke-dasharray="5,2" d="M813.9098,-367.3153C830.3861,-333.8292 864.4659,-261.0098 883,-196 896.462,-148.781 865.969,-121.4049 901,-87 915.1307,-73.1219 964.4891,-67.9579 1002.7713,-66.0585"/>
<polygon fill="#9a32cd" stroke="#9a32cd" points="810.7148,-365.8799 809.3983,-376.3926 816.9833,-368.9954 810.7148,-365.8799"/>
<text text-anchor="middle" x="937.5" y="-90" font-family="Helvetica,sans-Serif" font-size="10.00" fill="#000000"> fMgr</text>
</g>
<!-- Node10&#45;&gt;Node17 -->
<g id="edge29" class="edge">
<title>Node10&#45;&gt;Node17</title>
<path fill="none" stroke="#9a32cd" stroke-dasharray="5,2" d="M824.9064,-402.1642C843.536,-418.2134 870.0774,-444.6149 883,-474 899.0937,-510.596 875.3845,-622.3061 901,-653 922.6314,-678.9198 946.8868,-653.8846 974,-674 1013.9203,-703.6171 1038.7831,-760.5864 1047.4958,-783.3026"/>
<polygon fill="#9a32cd" stroke="#9a32cd" points="827.1426,-399.4716 817.2254,-395.7432 822.6529,-404.8423 827.1426,-399.4716"/>
<text text-anchor="middle" x="937.5" y="-677" font-family="Helvetica,sans-Serif" font-size="10.00" fill="#000000"> fMgr</text>
</g>
<!-- Node10&#45;&gt;Node19 -->
<g id="edge36" class="edge">
<title>Node10&#45;&gt;Node19</title>
<path fill="none" stroke="#9a32cd" stroke-dasharray="5,2" d="M856.524,-399.4151C866.5426,-404.1417 876.0617,-410.491 883,-419 909.0539,-450.9522 873.4931,-479.2897 901,-510 923.6955,-535.3387 946.5236,-512.9455 974,-533 1011.2418,-560.182 1037.1125,-610.9692 1046.7868,-632.2378"/>
<polygon fill="#9a32cd" stroke="#9a32cd" points="857.8176,-396.1623 847.2425,-395.5152 855.1059,-402.6157 857.8176,-396.1623"/>
<text text-anchor="middle" x="937.5" y="-536" font-family="Helvetica,sans-Serif" font-size="10.00" fill="#000000"> fMgr</text>
</g>
<!-- Node10&#45;&gt;Node21 -->
<g id="edge41" class="edge">
<title>Node10&#45;&gt;Node21</title>
<path fill="none" stroke="#9a32cd" stroke-dasharray="5,2" d="M868.4551,-383.8124C900.5479,-384.1157 939.7757,-386.6306 974,-395 996.1091,-400.4067 1019.6731,-412.0969 1034.8251,-420.4797"/>
<polygon fill="#9a32cd" stroke="#9a32cd" points="868.3102,-380.3121 858.3014,-383.787 868.2926,-387.3121 868.3102,-380.3121"/>
<text text-anchor="middle" x="937.5" y="-398" font-family="Helvetica,sans-Serif" font-size="10.00" fill="#000000"> fMgr</text>
</g>
<!-- Node11&#45;&gt;Node10 -->
<g id="edge11" class="edge">
<title>Node11&#45;&gt;Node10</title>
<path fill="none" stroke="#9a32cd" stroke-dasharray="5,2" d="M1027.818,-221.1697C998.0347,-240.8285 944.9372,-276.4505 901,-309 869.4834,-332.3481 833.714,-361.6628 815.8771,-376.4829"/>
<polygon fill="#9a32cd" stroke="#9a32cd" points="1029.8479,-224.0238 1036.2767,-215.6023 1025.9993,-218.1766 1029.8479,-224.0238"/>
<text text-anchor="middle" x="937.5" y="-312" font-family="Helvetica,sans-Serif" font-size="10.00" fill="#000000"> fROOTMgr</text>
</g>
<!-- Node12 -->
<g id="node12" class="node">
<title>Node12</title>
<polygon fill="#ffffff" stroke="#bfbfbf" points="742,-167.5 742,-186.5 867,-186.5 867,-167.5 742,-167.5"/>
<text text-anchor="middle" x="804.5" y="-174.5" font-family="Helvetica,sans-Serif" font-size="10.00" fill="#000000">std::list&lt; XrdROOT *&gt;</text>
</g>
<!-- Node12&#45;&gt;Node11 -->
<g id="edge13" class="edge">
<title>Node12&#45;&gt;Node11</title>
<path fill="none" stroke="#9a32cd" stroke-dasharray="5,2" d="M877.3818,-171.2983C907.51,-170.4134 942.657,-171.2934 974,-177 994.3778,-180.7102 1016.3743,-189.5211 1031.6181,-196.4643"/>
<polygon fill="#9a32cd" stroke="#9a32cd" points="877.2361,-167.8012 867.3696,-171.6616 877.49,-174.7966 877.2361,-167.8012"/>
<text text-anchor="middle" x="937.5" y="-180" font-family="Helvetica,sans-Serif" font-size="10.00" fill="#000000"> fROOT</text>
</g>
<!-- Node13 -->
<g id="node13" class="node">
<title>Node13</title>
<polygon fill="#ffffff" stroke="#bfbfbf" points="444,-365.5 444,-384.5 605,-384.5 605,-365.5 444,-365.5"/>
<text text-anchor="middle" x="524.5" y="-372.5" font-family="Helvetica,sans-Serif" font-size="10.00" fill="#000000">std::list&lt; XrdProofdDSInfo *&gt;</text>
</g>
<!-- Node13&#45;&gt;Node10 -->
<g id="edge16" class="edge">
<title>Node13&#45;&gt;Node10</title>
<path fill="none" stroke="#9a32cd" stroke-dasharray="5,2" d="M615.1468,-378.5611C660.0025,-380.3233 712.6097,-382.39 750.975,-383.8972"/>
<polygon fill="#9a32cd" stroke="#9a32cd" points="615.2417,-375.0622 605.1119,-378.1669 614.9668,-382.0569 615.2417,-375.0622"/>
<text text-anchor="middle" x="665.5" y="-386" font-family="Helvetica,sans-Serif" font-size="10.00" fill="#000000"> fDataSetSrcs</text>
</g>
<!-- Node14&#45;&gt;Node10 -->
<g id="edge17" class="edge">
<title>Node14&#45;&gt;Node10</title>
<path fill="none" stroke="#9a32cd" stroke-dasharray="5,2" d="M1011.2911,-332.8838C980.679,-325.4207 937.5426,-319.0136 901,-329 867.2148,-338.2328 833.2319,-362.6619 816.0322,-376.353"/>
<polygon fill="#9a32cd" stroke="#9a32cd" points="1010.6073,-336.322 1021.1648,-335.4331 1012.3573,-329.5443 1010.6073,-336.322"/>
<text text-anchor="middle" x="937.5" y="-332" font-family="Helvetica,sans-Serif" font-size="10.00" fill="#000000"> fPriorityMgr</text>
</g>
<!-- Node15&#45;&gt;Node10 -->
<g id="edge21" class="edge">
<title>Node15&#45;&gt;Node10</title>
<path fill="none" stroke="#9a32cd" stroke-dasharray="5,2" d="M1016.808,-78.5418C983.3127,-93.3439 932.7977,-119.9849 901,-157 897.0642,-161.5816 826.1332,-333.4735 808.462,-376.3749"/>
<polygon fill="#9a32cd" stroke="#9a32cd" points="1018.3909,-81.6711 1026.1953,-74.5058 1015.626,-75.2402 1018.3909,-81.6711"/>
<text text-anchor="middle" x="937.5" y="-160" font-family="Helvetica,sans-Serif" font-size="10.00" fill="#000000"> fAdmin</text>
</g>
<!-- Node16 -->
<g id="node16" class="node">
<title>Node16</title>
<polygon fill="#ffffff" stroke="#bfbfbf" points="735,-.5 735,-19.5 874,-19.5 874,-.5 735,-.5"/>
<text text-anchor="middle" x="804.5" y="-7.5" font-family="Helvetica,sans-Serif" font-size="10.00" fill="#000000">std::list&lt; XrdOucString &gt;</text>
</g>
<!-- Node16&#45;&gt;Node15 -->
<g id="edge23" class="edge">
<title>Node16&#45;&gt;Node15</title>
<path fill="none" stroke="#9a32cd" stroke-dasharray="5,2" d="M884.1645,-9.2127C912.9536,-10.7195 945.3954,-14.528 974,-23 997.9448,-30.0919 1022.8111,-45.3341 1037.5914,-55.3735"/>
<polygon fill="#9a32cd" stroke="#9a32cd" points="884.2903,-5.7149 874.146,-8.7718 883.9824,-12.7081 884.2903,-5.7149"/>
<text text-anchor="middle" x="937.5" y="-26" font-family="Helvetica,sans-Serif" font-size="10.00" fill="#000000"> fExportPaths</text>
</g>
<!-- Node17&#45;&gt;Node10 -->
<g id="edge25" class="edge">
<title>Node17&#45;&gt;Node10</title>
<path fill="none" stroke="#9a32cd" stroke-dasharray="5,2" d="M1042.4341,-773.6959C1029.1647,-744.4247 1002.2138,-687.4148 974,-642 945.3397,-595.8664 924.4258,-592.9996 901,-544 887.1445,-515.0185 898.1193,-502.3427 883,-474 865.4625,-441.1243 833.1847,-410.5157 815.9895,-395.5671"/>
<polygon fill="#9a32cd" stroke="#9a32cd" points="1039.3912,-775.4637 1046.6808,-783.1521 1045.7768,-772.5959 1039.3912,-775.4637"/>
<text text-anchor="middle" x="937.5" y="-645" font-family="Helvetica,sans-Serif" font-size="10.00" fill="#000000"> fProofSched</text>
</g>
<!-- Node18&#45;&gt;Node10 -->
<g id="edge42" class="edge">
<title>Node18&#45;&gt;Node10</title>
<path fill="none" stroke="#9a32cd" stroke-dasharray="5,2" d="M527.6254,-874.1192C538.3757,-808.1501 575.7815,-598.0085 623,-551 650.8191,-523.3046 676.1177,-549.9011 708,-527 757.8707,-491.1778 790.1851,-421.0976 800.7284,-395.5825"/>
<polygon fill="#9a32cd" stroke="#9a32cd" points="524.1082,-873.9481 525.9809,-884.3761 531.0199,-875.0563 524.1082,-873.9481"/>
<text text-anchor="middle" x="665.5" y="-554" font-family="Helvetica,sans-Serif" font-size="10.00" fill="#000000"> fGroupsMgr</text>
</g>
<!-- Node18&#45;&gt;Node17 -->
<g id="edge30" class="edge">
<title>Node18&#45;&gt;Node17</title>
<path fill="none" stroke="#9a32cd" stroke-dasharray="5,2" d="M587.5742,-904.2799C677.6473,-916.0163 846.3366,-926.9145 974,-870 1006.9801,-855.2969 1033.6102,-819.6711 1045.0071,-802.5277"/>
<polygon fill="#9a32cd" stroke="#9a32cd" points="587.8954,-900.7917 577.5172,-902.9231 586.9595,-907.7288 587.8954,-900.7917"/>
<text text-anchor="middle" x="804.5" y="-916" font-family="Helvetica,sans-Serif" font-size="10.00" fill="#000000"> fGrpMgr</text>
</g>
<!-- Node19&#45;&gt;Node10 -->
<g id="edge32" class="edge">
<title>Node19&#45;&gt;Node10</title>
<path fill="none" stroke="#9a32cd" stroke-dasharray="5,2" d="M1047.6732,-622.0687C1040.5853,-585.616 1020.6661,-507.8366 974,-463 948.9423,-438.9247 930.6888,-453.0576 901,-435 891.8551,-429.4378 892.0556,-424.7064 883,-419 867.6158,-409.3055 848.8931,-401.3088 833.5914,-395.6163"/>
<polygon fill="#9a32cd" stroke="#9a32cd" points="1044.3111,-623.1439 1049.5412,-632.3578 1051.1985,-621.8934 1044.3111,-623.1439"/>
<text text-anchor="middle" x="937.5" y="-466" font-family="Helvetica,sans-Serif" font-size="10.00" fill="#000000"> fNetMgr</text>
</g>
<!-- Node20 -->
<g id="node20" class="node">
<title>Node20</title>
<polygon fill="#ffffff" stroke="#bfbfbf" points="726,-699.5 726,-718.5 883,-718.5 883,-699.5 726,-699.5"/>
<text text-anchor="middle" x="804.5" y="-706.5" font-family="Helvetica,sans-Serif" font-size="10.00" fill="#000000">std::list&lt; XrdProofWorker *&gt;</text>
</g>
<!-- Node20&#45;&gt;Node19 -->
<g id="edge35" class="edge">
<title>Node20&#45;&gt;Node19</title>
<path fill="none" stroke="#9a32cd" stroke-dasharray="5,2" d="M893.2225,-704.224C919.7106,-701.0128 948.4761,-695.7134 974,-687 998.4709,-678.6461 1023.7824,-662.0416 1038.4242,-651.5059"/>
<polygon fill="#9a32cd" stroke="#9a32cd" points="892.7383,-700.7563 883.1937,-705.3553 893.523,-707.7122 892.7383,-700.7563"/>
<text text-anchor="middle" x="937.5" y="-739" font-family="Helvetica,sans-Serif" font-size="10.00" fill="#000000"> fDfltWorkers</text>
<text text-anchor="middle" x="937.5" y="-728" font-family="Helvetica,sans-Serif" font-size="10.00" fill="#000000">fWorkers</text>
<text text-anchor="middle" x="937.5" y="-717" font-family="Helvetica,sans-Serif" font-size="10.00" fill="#000000">fNodes</text>
<text text-anchor="middle" x="937.5" y="-706" font-family="Helvetica,sans-Serif" font-size="10.00" fill="#000000">fRegWorkers</text>
</g>
<!-- Node21&#45;&gt;Node10 -->
<g id="edge37" class="edge">
<title>Node21&#45;&gt;Node10</title>
<path fill="none" stroke="#9a32cd" stroke-dasharray="5,2" d="M985.0539,-421.4681C958.8188,-417.7769 928.4078,-413.1259 901,-408 881.9138,-404.4304 860.8751,-399.7256 843.3264,-395.5833"/>
<polygon fill="#9a32cd" stroke="#9a32cd" points="984.8775,-424.9771 995.2639,-422.8862 985.8406,-418.0437 984.8775,-424.9771"/>
<text text-anchor="middle" x="937.5" y="-423" font-family="Helvetica,sans-Serif" font-size="10.00" fill="#000000"> fClientMgr</text>
</g>
<!-- Node22 -->
<g id="node22" class="node">
<title>Node22</title>
<polygon fill="#ffffff" stroke="#bfbfbf" points="726,-562.5 726,-581.5 883,-581.5 883,-562.5 726,-562.5"/>
<text text-anchor="middle" x="804.5" y="-569.5" font-family="Helvetica,sans-Serif" font-size="10.00" fill="#000000">std::list&lt; XrdProofdClient *&gt;</text>
</g>
<!-- Node22&#45;&gt;Node21 -->
<g id="edge39" class="edge">
<title>Node22&#45;&gt;Node21</title>
<path fill="none" stroke="#9a32cd" stroke-dasharray="5,2" d="M877.677,-557.277C879.5414,-555.9646 881.3224,-554.5419 883,-553 901.6263,-535.8809 882.9642,-516.7401 901,-499 925.2514,-475.1462 942.9657,-489.9286 974,-476 997.2989,-465.5432 1022.3469,-449.6058 1037.3411,-439.5012"/>
<polygon fill="#9a32cd" stroke="#9a32cd" points="875.8821,-554.2721 869.0297,-562.3527 879.4256,-560.309 875.8821,-554.2721"/>
<text text-anchor="middle" x="937.5" y="-502" font-family="Helvetica,sans-Serif" font-size="10.00" fill="#000000"> fProofdClients</text>
</g>
<!-- Node23 -->
<g id="node23" class="node">
<title>Node23</title>
<polygon fill="#ffffff" stroke="#bfbfbf" points="452.5,-327.5 452.5,-346.5 596.5,-346.5 596.5,-327.5 452.5,-327.5"/>
<text text-anchor="middle" x="524.5" y="-334.5" font-family="Helvetica,sans-Serif" font-size="10.00" fill="#000000">std::list&lt; XrdOucString *&gt;</text>
</g>
<!-- Node23&#45;&gt;Node10 -->
<g id="edge43" class="edge">
<title>Node23&#45;&gt;Node10</title>
<path fill="none" stroke="#9a32cd" stroke-dasharray="5,2" d="M606.7376,-347.7046C638.4722,-352.2003 675.0137,-357.8229 708,-364 727.0854,-367.574 748.124,-372.2793 765.6729,-376.4208"/>
<polygon fill="#9a32cd" stroke="#9a32cd" points="607.0027,-344.2076 596.6136,-346.2853 606.0308,-351.1398 607.0027,-344.2076"/>
<text text-anchor="middle" x="665.5" y="-367" font-family="Helvetica,sans-Serif" font-size="10.00" fill="#000000"> fMastersAllowed</text>
</g>
<!-- Node24 -->
<g id="node24" class="node">
<title>Node24</title>
<polygon fill="#ffffff" stroke="#bfbfbf" points="186,-505.5 186,-524.5 298,-524.5 298,-505.5 186,-505.5"/>
<text text-anchor="middle" x="242" y="-512.5" font-family="Helvetica,sans-Serif" font-size="10.00" fill="#000000">std::list&lt; XpdEnv &gt;</text>
</g>
<!-- Node24&#45;&gt;Node2 -->
<g id="edge44" class="edge">
<title>Node24&#45;&gt;Node2</title>
<path fill="none" stroke="#9a32cd" stroke-dasharray="5,2" d="M308.4652,-514.1394C343.4418,-513.8128 387.0417,-513.6045 426,-514 436.7751,-514.1094 448.2122,-514.286 459.3329,-514.4903"/>
<polygon fill="#9a32cd" stroke="#9a32cd" points="308.337,-510.6404 298.3721,-514.2391 308.4062,-517.64 308.337,-510.6404"/>
<text text-anchor="middle" x="385.5" y="-528" font-family="Helvetica,sans-Serif" font-size="10.00" fill="#000000"> fProofServEnvs</text>
<text text-anchor="middle" x="385.5" y="-517" font-family="Helvetica,sans-Serif" font-size="10.00" fill="#000000">fProofServRCs</text>
</g>
</g>
</svg>
        <g id="navigator" transform="translate(0 0)" fill="#404254">
                <rect fill="#f2f5e9" fill-opacity="0.5" stroke="#606060" stroke-width=".5" x="0" y="0" width="60" height="60"/>
                <use id="zoomplus" xlink:href="#zoomPlus" x="17" y="9" onmousedown="handleZoom(evt,'in')"/>
                <use id="zoomminus" xlink:href="#zoomMin" x="42" y="9" onmousedown="handleZoom(evt,'out')"/>
                <use id="reset" xlink:href="#resetDef" x="30" y="36" onmousedown="handleReset()"/>
                <g id="arrowUp" xlink:href="#dirArrow" transform="translate(30 24)" onmousedown="handlePan(0,-1)">
                  <use xlink:href="#rim" fill="#404040">
                        <set attributeName="fill" to="#808080" begin="arrowUp.mouseover" end="arrowUp.mouseout"/>
                  </use>
                  <path fill="none" stroke="white" stroke-width="1.5" d="M0,-3.0v7 M-2.5,-0.5L0,-3.0L2.5,-0.5"/>
                </g>
                <g id="arrowRight" xlink:href="#dirArrow" transform="rotate(90) translate(36 -43)" onmousedown="handlePan(1,0)">
                  <use xlink:href="#rim" fill="#404040">
                        <set attributeName="fill" to="#808080" begin="arrowRight.mouseover" end="arrowRight.mouseout"/>
                  </use>
                  <path fill="none" stroke="white" stroke-width="1.5" d="M0,-3.0v7 M-2.5,-0.5L0,-3.0L2.5,-0.5"/>
                </g>
                <g id="arrowDown" xlink:href="#dirArrow" transform="rotate(180) translate(-30 -48)" onmousedown="handlePan(0,1)">
                  <use xlink:href="#rim" fill="#404040">
                        <set attributeName="fill" to="#808080" begin="arrowDown.mouseover" end="arrowDown.mouseout"/>
                  </use>
                  <path fill="none" stroke="white" stroke-width="1.5" d="M0,-3.0v7 M-2.5,-0.5L0,-3.0L2.5,-0.5"/>
                </g>
                <g id="arrowLeft" xlink:href="#dirArrow" transform="rotate(270) translate(-36 17)" onmousedown="handlePan(-1,0)">
                  <use xlink:href="#rim" fill="#404040">
                        <set attributeName="fill" to="#808080" begin="arrowLeft.mouseover" end="arrowLeft.mouseout"/>
                  </use>
                  <path fill="none" stroke="white" stroke-width="1.5" d="M0,-3.0v7 M-2.5,-0.5L0,-3.0L2.5,-0.5"/>
                </g>
        </g>
        <svg viewBox="0 0 15 15" width="100%" height="30px" preserveAspectRatio="xMaxYMin meet">
         <g id="arrow_out" transform="scale(0.3 0.3)">
          <a xlink:href="classXpdSrvMgrCreateCnt__coll__graph_org.svg" target="_base">
           <rect id="button" ry="5" rx="5" y="6" x="6" height="38" width="38"
                fill="#f2f5e9" fill-opacity="0.5" stroke="#606060" stroke-width="1.0"/>
           <path id="arrow"
             d="M 11.500037,31.436501 C 11.940474,20.09759 22.043105,11.32322 32.158766,21.979434 L 37.068811,17.246167 C 37.068811,17.246167 37.088388,32 37.088388,32 L 22.160133,31.978069 C 22.160133,31.978069 26.997745,27.140456 26.997745,27.140456 C 18.528582,18.264221 13.291696,25.230495 11.500037,31.436501 z"
             style="fill:#404040;"/>
          </a>
         </g>
        </svg>
</svg>
