<?xml version="1.0" encoding="UTF-8" standalone="no"?>
<!DOCTYPE svg PUBLIC "-//W3C//DTD SVG 1.1//EN"
 "http://www.w3.org/Graphics/SVG/1.1/DTD/svg11.dtd">
<!-- Generated by graphviz version 2.40.1 (0)
 -->
<!-- Title: TDOMParser Pages: 1 -->
<svg width="601pt" height="600pt"
 viewBox="0.00 0.00 600.50 600.00" xmlns="http://www.w3.org/2000/svg" xmlns:xlink="http://www.w3.org/1999/xlink">
<g id="graph0" class="graph" transform="scale(1 1) rotate(0) translate(4 596)">
<title>TDOMParser</title>
<polygon fill="#ffffff" stroke="transparent" points="-4,4 -4,-596 596.5,-596 596.5,4 -4,4"/>
<!-- Node4 -->
<g id="node1" class="node">
<title>Node4</title>
<polygon fill="#bfbfbf" stroke="#000000" points="112,-.5 112,-19.5 188,-19.5 188,-.5 112,-.5"/>
<text text-anchor="middle" x="150" y="-7.5" font-family="Helvetica,sans-Serif" font-size="10.00" fill="#000000">TDOMParser</text>
</g>
<!-- Node5 -->
<g id="node2" class="node">
<title>Node5</title>
<g id="a_node2"><a xlink:href="classTXMLParser.html" target="_top" xlink:title=" TXMLParser is an abstract class which interfaces with Libxml2. ">
<polygon fill="#ffffff" stroke="#000000" points="278.5,-67.5 278.5,-86.5 351.5,-86.5 351.5,-67.5 278.5,-67.5"/>
<text text-anchor="middle" x="315" y="-74.5" font-family="Helvetica,sans-Serif" font-size="10.00" fill="#000000">TXMLParser</text>
</a>
</g>
</g>
<!-- Node5&#45;&gt;Node4 -->
<g id="edge1" class="edge">
<title>Node5&#45;&gt;Node4</title>
<path fill="none" stroke="#191970" d="M281.9522,-63.5806C249.8792,-50.557 202.0025,-31.1162 173.5966,-19.5817"/>
<polygon fill="#191970" stroke="#191970" points="280.7774,-66.8811 291.3595,-67.4005 283.4111,-60.3954 280.7774,-66.8811"/>
</g>
<!-- Node6 -->
<g id="node3" class="node">
<title>Node6</title>
<g id="a_node3"><a xlink:href="classTObject.html" target="_top" xlink:title="Mother of all ROOT objects. ">
<polygon fill="#ffffff" stroke="#000000" points="85,-505.5 85,-524.5 139,-524.5 139,-505.5 85,-505.5"/>
<text text-anchor="middle" x="112" y="-512.5" font-family="Helvetica,sans-Serif" font-size="10.00" fill="#000000">TObject</text>
</a>
</g>
</g>
<!-- Node6&#45;&gt;Node5 -->
<g id="edge2" class="edge">
<title>Node6&#45;&gt;Node5</title>
<path fill="none" stroke="#191970" d="M149.4575,-512.2337C216.4843,-506.2458 350,-489.1531 350,-448 350,-448 350,-448 350,-156 350,-128.9981 332.6965,-100.9112 322.4226,-86.6145"/>
<polygon fill="#191970" stroke="#191970" points="148.9674,-508.7628 139.3016,-513.1014 149.5633,-515.7374 148.9674,-508.7628"/>
</g>
<!-- Node10 -->
<g id="node7" class="node">
<title>Node10</title>
<g id="a_node7"><a xlink:href="classTCollection.html" target="_top" xlink:title="Collection abstract base class. ">
<polygon fill="#ffffff" stroke="#000000" points="134.5,-371.5 134.5,-390.5 205.5,-390.5 205.5,-371.5 134.5,-371.5"/>
<text text-anchor="middle" x="170" y="-378.5" font-family="Helvetica,sans-Serif" font-size="10.00" fill="#000000">TCollection</text>
</a>
</g>
</g>
<!-- Node6&#45;&gt;Node10 -->
<g id="edge7" class="edge">
<title>Node6&#45;&gt;Node10</title>
<path fill="none" stroke="#191970" d="M132.5918,-498.7342C152.4424,-481.6038 181.1613,-452.6244 193,-420 196.8612,-409.3597 189.1012,-398.3499 181.5721,-390.7529"/>
<polygon fill="#191970" stroke="#191970" points="130.132,-496.2286 124.7025,-505.3264 134.6204,-501.6002 130.132,-496.2286"/>
</g>
<!-- Node11 -->
<g id="node8" class="node">
<title>Node11</title>
<g id="a_node8"><a xlink:href="classTObjectTable.html" target="_top" xlink:title="This class registers all instances of TObject and its derived classes in a hash table. ">
<polygon fill="#ffffff" stroke="#000000" points="66,-438.5 66,-457.5 146,-457.5 146,-438.5 66,-438.5"/>
<text text-anchor="middle" x="106" y="-445.5" font-family="Helvetica,sans-Serif" font-size="10.00" fill="#000000">TObjectTable</text>
</a>
</g>
</g>
<!-- Node6&#45;&gt;Node11 -->
<g id="edge9" class="edge">
<title>Node6&#45;&gt;Node11</title>
<path fill="none" stroke="#191970" d="M120.9241,-495.7041C122.7704,-489.4155 123.701,-482.4053 122,-476 120.2468,-469.3983 116.5309,-462.7297 113.121,-457.5573"/>
<polygon fill="#191970" stroke="#191970" points="117.5311,-494.7804 117.2554,-505.3716 124.0757,-497.264 117.5311,-494.7804"/>
</g>
<!-- Node6&#45;&gt;Node11 -->
<g id="edge10" class="edge">
<title>Node6&#45;&gt;Node11</title>
<path fill="none" stroke="#9a32cd" stroke-dasharray="5,2" d="M91.729,-497.8753C88.9852,-494.5672 86.5757,-490.9041 85,-487 80.7979,-476.5886 88.2192,-465.3677 95.3727,-457.647"/>
<polygon fill="#9a32cd" stroke="#9a32cd" points="89.4718,-500.5744 98.9535,-505.3017 94.4893,-495.6933 89.4718,-500.5744"/>
<text text-anchor="middle" x="101.5" y="-479" font-family="Helvetica,sans-Serif" font-size="10.00" fill="#000000"> fTable</text>
</g>
<!-- Node18 -->
<g id="node15" class="node">
<title>Node18</title>
<g id="a_node15"><a xlink:href="classTXMLDocument.html" target="_top" xlink:title=" TXMLDocument contains a pointer to an xmlDoc structure, after the parser returns a tree built during...">
<polygon fill="#ffffff" stroke="#000000" points="17.5,-67.5 17.5,-86.5 110.5,-86.5 110.5,-67.5 17.5,-67.5"/>
<text text-anchor="middle" x="64" y="-74.5" font-family="Helvetica,sans-Serif" font-size="10.00" fill="#000000">TXMLDocument</text>
</a>
</g>
</g>
<!-- Node6&#45;&gt;Node18 -->
<g id="edge20" class="edge">
<title>Node6&#45;&gt;Node18</title>
<path fill="none" stroke="#191970" d="M74.7105,-508.6512C42.1289,-500.715 0,-483.575 0,-448 0,-448 0,-448 0,-156 0,-125.2869 29.5664,-99.8284 48.5074,-86.6702"/>
<polygon fill="#191970" stroke="#191970" points="74.3664,-512.1602 84.8879,-510.9162 75.8871,-505.3274 74.3664,-512.1602"/>
</g>
<!-- Node19 -->
<g id="node16" class="node">
<title>Node19</title>
<g id="a_node16"><a xlink:href="classTXMLNode.html" target="_top" xlink:title=" TXMLNode contains a pointer to xmlNode, which is a node under the DOM tree. ">
<polygon fill="#ffffff" stroke="#000000" points="30,-146.5 30,-165.5 98,-165.5 98,-146.5 30,-146.5"/>
<text text-anchor="middle" x="64" y="-153.5" font-family="Helvetica,sans-Serif" font-size="10.00" fill="#000000">TXMLNode</text>
</a>
</g>
</g>
<!-- Node6&#45;&gt;Node19 -->
<g id="edge22" class="edge">
<title>Node6&#45;&gt;Node19</title>
<path fill="none" stroke="#191970" d="M79.6502,-500.843C59.7379,-489.7085 38,-472.0463 38,-448 38,-448 38,-448 38,-246 38,-215.7491 51.7252,-181.9461 59.2312,-165.722"/>
<polygon fill="#191970" stroke="#191970" points="78.1003,-503.982 88.5859,-505.499 81.3349,-497.7741 78.1003,-503.982"/>
</g>
<!-- Node7 -->
<g id="node4" class="node">
<title>Node7</title>
<g id="a_node4"><a xlink:href="classTQObject.html" target="_top" xlink:title="This is the ROOT implementation of the Qt object communication mechanism (see also http://www...">
<polygon fill="#ffffff" stroke="#000000" points="207,-146.5 207,-165.5 269,-165.5 269,-146.5 207,-146.5"/>
<text text-anchor="middle" x="238" y="-153.5" font-family="Helvetica,sans-Serif" font-size="10.00" fill="#000000">TQObject</text>
</a>
</g>
</g>
<!-- Node7&#45;&gt;Node5 -->
<g id="edge3" class="edge">
<title>Node7&#45;&gt;Node5</title>
<path fill="none" stroke="#191970" d="M254.8363,-138.7264C270.3619,-122.7975 292.856,-99.7192 305.4811,-86.7662"/>
<polygon fill="#191970" stroke="#191970" points="251.9152,-136.7089 247.4417,-146.313 256.928,-141.5948 251.9152,-136.7089"/>
</g>
<!-- Node8 -->
<g id="node5" class="node">
<title>Node8</title>
<g id="a_node5"><a xlink:href="classTList.html" target="_top" xlink:title="A doubly linked list. ">
<polygon fill="#ffffff" stroke="#000000" points="145,-236.5 145,-255.5 185,-255.5 185,-236.5 145,-236.5"/>
<text text-anchor="middle" x="165" y="-243.5" font-family="Helvetica,sans-Serif" font-size="10.00" fill="#000000">TList</text>
</a>
</g>
</g>
<!-- Node8&#45;&gt;Node7 -->
<g id="edge4" class="edge">
<title>Node8&#45;&gt;Node7</title>
<path fill="none" stroke="#9a32cd" stroke-dasharray="5,2" d="M179.1494,-228.5556C194.3936,-209.7613 218.095,-180.5404 230.2439,-165.5623"/>
<polygon fill="#9a32cd" stroke="#9a32cd" points="176.3935,-226.3972 172.8123,-236.3684 181.83,-230.8068 176.3935,-226.3972"/>
<text text-anchor="middle" x="252" y="-210" font-family="Helvetica,sans-Serif" font-size="10.00" fill="#000000"> fListOfConnections</text>
<text text-anchor="middle" x="252" y="-199" font-family="Helvetica,sans-Serif" font-size="10.00" fill="#000000">fListOfSignals</text>
</g>
<!-- Node8&#45;&gt;Node19 -->
<g id="edge24" class="edge">
<title>Node8&#45;&gt;Node19</title>
<path fill="none" stroke="#9a32cd" stroke-dasharray="5,2" d="M146.552,-229.5612C125.519,-210.8189 91.8426,-180.8102 74.7311,-165.5623"/>
<polygon fill="#9a32cd" stroke="#9a32cd" points="144.3968,-232.3287 154.1912,-236.3684 149.0538,-227.1025 144.3968,-232.3287"/>
<text text-anchor="middle" x="154.5" y="-204.5" font-family="Helvetica,sans-Serif" font-size="10.00" fill="#000000"> fAttrList</text>
</g>
<!-- Node9 -->
<g id="node6" class="node">
<title>Node9</title>
<g id="a_node6"><a xlink:href="classTSeqCollection.html" target="_top" xlink:title="Sequenceable collection abstract base class. ">
<polygon fill="#ffffff" stroke="#000000" points="232.5,-314.5 232.5,-333.5 321.5,-333.5 321.5,-314.5 232.5,-314.5"/>
<text text-anchor="middle" x="277" y="-321.5" font-family="Helvetica,sans-Serif" font-size="10.00" fill="#000000">TSeqCollection</text>
</a>
</g>
</g>
<!-- Node9&#45;&gt;Node8 -->
<g id="edge5" class="edge">
<title>Node9&#45;&gt;Node8</title>
<path fill="none" stroke="#191970" d="M254.9549,-308.6472C232.3488,-292.9036 197.8834,-268.9009 178.8457,-255.6426"/>
<polygon fill="#191970" stroke="#191970" points="253.0603,-311.5928 263.2666,-314.4357 257.0608,-305.8486 253.0603,-311.5928"/>
</g>
<!-- Node10&#45;&gt;Node9 -->
<g id="edge6" class="edge">
<title>Node10&#45;&gt;Node9</title>
<path fill="none" stroke="#191970" d="M197.1302,-366.5475C216.5673,-356.1931 242.1968,-342.54 259.117,-333.5265"/>
<polygon fill="#191970" stroke="#191970" points="195.3313,-363.54 188.1511,-371.3307 198.6225,-369.7181 195.3313,-363.54"/>
</g>
<!-- Node10&#45;&gt;Node10 -->
<g id="edge16" class="edge">
<title>Node10&#45;&gt;Node10</title>
<path fill="none" stroke="#9a32cd" stroke-dasharray="5,2" d="M215.7805,-385.3285C220.4895,-384.4765 223.5,-383.0337 223.5,-381 223.5,-377.7461 215.7932,-376.0047 205.7532,-375.776"/>
<polygon fill="#9a32cd" stroke="#9a32cd" points="215.4022,-381.8483 205.7532,-386.224 216.0249,-388.8206 215.4022,-381.8483"/>
<text text-anchor="middle" x="272.5" y="-378.5" font-family="Helvetica,sans-Serif" font-size="10.00" fill="#000000"> fgCurrentCollection</text>
</g>
<!-- Node11&#45;&gt;Node10 -->
<g id="edge8" class="edge">
<title>Node11&#45;&gt;Node10</title>
<path fill="none" stroke="#9a32cd" stroke-dasharray="5,2" d="M91.1721,-429.7437C87.4283,-422.8811 85.5747,-415.2374 90,-409 95.4494,-401.3192 115.4494,-394.3192 134.0871,-389.2394"/>
<polygon fill="#9a32cd" stroke="#9a32cd" points="88.5342,-432.0908 97.0366,-438.4121 94.332,-428.1683 88.5342,-432.0908"/>
<text text-anchor="middle" x="141.5" y="-412" font-family="Helvetica,sans-Serif" font-size="10.00" fill="#000000"> fgGarbageCollection</text>
</g>
<!-- Node12 -->
<g id="node9" class="node">
<title>Node12</title>
<g id="a_node9"><a xlink:href="classTString.html" target="_top" xlink:title="Basic string class. ">
<polygon fill="#ffffff" stroke="#000000" points="393.5,-438.5 393.5,-457.5 444.5,-457.5 444.5,-438.5 393.5,-438.5"/>
<text text-anchor="middle" x="419" y="-445.5" font-family="Helvetica,sans-Serif" font-size="10.00" fill="#000000">TString</text>
</a>
</g>
</g>
<!-- Node12&#45;&gt;Node5 -->
<g id="edge18" class="edge">
<title>Node12&#45;&gt;Node5</title>
<path fill="none" stroke="#9a32cd" stroke-dasharray="5,2" d="M426.2568,-428.3394C430.4885,-415.1405 435,-397.2568 435,-381 435,-381 435,-381 435,-156 435,-115.5929 386.9458,-94.6903 351.656,-84.788"/>
<polygon fill="#9a32cd" stroke="#9a32cd" points="422.813,-427.5914 422.8732,-438.1861 429.4331,-429.8663 422.813,-427.5914"/>
<text text-anchor="middle" x="478.5" y="-288" font-family="Helvetica,sans-Serif" font-size="10.00" fill="#000000"> fValidateWarning</text>
<text text-anchor="middle" x="478.5" y="-277" font-family="Helvetica,sans-Serif" font-size="10.00" fill="#000000">fValidateError</text>
</g>
<!-- Node12&#45;&gt;Node10 -->
<g id="edge11" class="edge">
<title>Node12&#45;&gt;Node10</title>
<path fill="none" stroke="#9a32cd" stroke-dasharray="5,2" d="M383.4796,-438.4423C336.1437,-425.7053 252.8658,-403.2972 205.5268,-390.5594"/>
<polygon fill="#9a32cd" stroke="#9a32cd" points="382.7245,-441.8635 393.2905,-441.0822 384.5434,-435.104 382.7245,-441.8635"/>
<text text-anchor="middle" x="328.5" y="-412" font-family="Helvetica,sans-Serif" font-size="10.00" fill="#000000"> fName</text>
</g>
<!-- Node13 -->
<g id="node10" class="node">
<title>Node13</title>
<g id="a_node10"><a xlink:href="structTString_1_1Rep__t.html" target="_top" xlink:title="TString::Rep_t">
<polygon fill="#ffffff" stroke="#000000" points="377,-505.5 377,-524.5 461,-524.5 461,-505.5 377,-505.5"/>
<text text-anchor="middle" x="419" y="-512.5" font-family="Helvetica,sans-Serif" font-size="10.00" fill="#000000">TString::Rep_t</text>
</a>
</g>
</g>
<!-- Node13&#45;&gt;Node12 -->
<g id="edge12" class="edge">
<title>Node13&#45;&gt;Node12</title>
<path fill="none" stroke="#9a32cd" stroke-dasharray="5,2" d="M419,-495.1079C419,-482.714 419,-467.3263 419,-457.5817"/>
<polygon fill="#9a32cd" stroke="#9a32cd" points="415.5001,-495.4005 419,-505.4005 422.5001,-495.4006 415.5001,-495.4005"/>
<text text-anchor="middle" x="431.5" y="-479" font-family="Helvetica,sans-Serif" font-size="10.00" fill="#000000"> fRep</text>
</g>
<!-- Node14 -->
<g id="node11" class="node">
<title>Node14</title>
<g id="a_node11"><a xlink:href="structTString_1_1LongStr__t.html" target="_top" xlink:title="TString::LongStr_t">
<polygon fill="#ffffff" stroke="#000000" points="247.5,-572.5 247.5,-591.5 350.5,-591.5 350.5,-572.5 247.5,-572.5"/>
<text text-anchor="middle" x="299" y="-579.5" font-family="Helvetica,sans-Serif" font-size="10.00" fill="#000000">TString::LongStr_t</text>
</a>
</g>
</g>
<!-- Node14&#45;&gt;Node13 -->
<g id="edge13" class="edge">
<title>Node14&#45;&gt;Node13</title>
<path fill="none" stroke="#9a32cd" stroke-dasharray="5,2" d="M325.1768,-567.3846C348.4489,-554.391 381.8033,-535.7681 401.8388,-524.5817"/>
<polygon fill="#9a32cd" stroke="#9a32cd" points="323.2181,-564.4696 316.1931,-572.4005 326.6306,-570.5815 323.2181,-564.4696"/>
<text text-anchor="middle" x="382.5" y="-546" font-family="Helvetica,sans-Serif" font-size="10.00" fill="#000000"> fLong</text>
</g>
<!-- Node15 -->
<g id="node12" class="node">
<title>Node15</title>
<g id="a_node12"><a xlink:href="structTString_1_1RawStr__t.html" target="_top" xlink:title="TString::RawStr_t">
<polygon fill="#ffffff" stroke="#000000" points="368.5,-572.5 368.5,-591.5 469.5,-591.5 469.5,-572.5 368.5,-572.5"/>
<text text-anchor="middle" x="419" y="-579.5" font-family="Helvetica,sans-Serif" font-size="10.00" fill="#000000">TString::RawStr_t</text>
</a>
</g>
</g>
<!-- Node15&#45;&gt;Node13 -->
<g id="edge14" class="edge">
<title>Node15&#45;&gt;Node13</title>
<path fill="none" stroke="#9a32cd" stroke-dasharray="5,2" d="M419,-562.1079C419,-549.714 419,-534.3263 419,-524.5817"/>
<polygon fill="#9a32cd" stroke="#9a32cd" points="415.5001,-562.4005 419,-572.4005 422.5001,-562.4006 415.5001,-562.4005"/>
<text text-anchor="middle" x="433" y="-546" font-family="Helvetica,sans-Serif" font-size="10.00" fill="#000000"> fRaw</text>
</g>
<!-- Node16 -->
<g id="node13" class="node">
<title>Node16</title>
<g id="a_node13"><a xlink:href="structTString_1_1ShortStr__t.html" target="_top" xlink:title="TString::ShortStr_t">
<polygon fill="#ffffff" stroke="#000000" points="487.5,-572.5 487.5,-591.5 592.5,-591.5 592.5,-572.5 487.5,-572.5"/>
<text text-anchor="middle" x="540" y="-579.5" font-family="Helvetica,sans-Serif" font-size="10.00" fill="#000000">TString::ShortStr_t</text>
</a>
</g>
</g>
<!-- Node16&#45;&gt;Node13 -->
<g id="edge15" class="edge">
<title>Node16&#45;&gt;Node13</title>
<path fill="none" stroke="#9a32cd" stroke-dasharray="5,2" d="M513.605,-567.3846C490.139,-554.391 456.5066,-535.7681 436.3042,-524.5817"/>
<polygon fill="#9a32cd" stroke="#9a32cd" points="512.2198,-570.6183 522.6637,-572.4005 515.6107,-564.4944 512.2198,-570.6183"/>
<text text-anchor="middle" x="502.5" y="-546" font-family="Helvetica,sans-Serif" font-size="10.00" fill="#000000"> fShort</text>
</g>
<!-- Node17 -->
<g id="node14" class="node">
<title>Node17</title>
<polygon fill="#ffffff" stroke="#bfbfbf" points="66,-314.5 66,-333.5 214,-333.5 214,-314.5 66,-314.5"/>
<text text-anchor="middle" x="140" y="-321.5" font-family="Helvetica,sans-Serif" font-size="10.00" fill="#000000">std::weak_ptr&lt; TObjLink &gt;</text>
</g>
<!-- Node17&#45;&gt;Node8 -->
<g id="edge17" class="edge">
<title>Node17&#45;&gt;Node8</title>
<path fill="none" stroke="#9a32cd" stroke-dasharray="5,2" d="M146.1738,-304.7379C151.1704,-289.1484 157.9984,-267.845 161.9094,-255.6426"/>
<polygon fill="#9a32cd" stroke="#9a32cd" points="142.7848,-303.8446 143.0655,-314.4357 149.4507,-305.9811 142.7848,-303.8446"/>
<text text-anchor="middle" x="174.5" y="-282.5" font-family="Helvetica,sans-Serif" font-size="10.00" fill="#000000"> fCache</text>
</g>
<!-- Node18&#45;&gt;Node4 -->
<g id="edge19" class="edge">
<title>Node18&#45;&gt;Node4</title>
<path fill="none" stroke="#9a32cd" stroke-dasharray="5,2" d="M84.3372,-61.1559C100.9165,-48.2395 123.7891,-30.4201 137.7012,-19.5817"/>
<polygon fill="#9a32cd" stroke="#9a32cd" points="82.0593,-58.4937 76.3217,-67.4005 86.3613,-64.0158 82.0593,-58.4937"/>
<text text-anchor="middle" x="139" y="-41" font-family="Helvetica,sans-Serif" font-size="10.00" fill="#000000"> fTXMLDoc</text>
</g>
<!-- Node19&#45;&gt;Node18 -->
<g id="edge21" class="edge">
<title>Node19&#45;&gt;Node18</title>
<path fill="none" stroke="#9a32cd" stroke-dasharray="5,2" d="M64,-136.0339C64,-120.2875 64,-99.0062 64,-86.7662"/>
<polygon fill="#9a32cd" stroke="#9a32cd" points="60.5001,-136.313 64,-146.313 67.5001,-136.3131 60.5001,-136.313"/>
<text text-anchor="middle" x="91.5" y="-108" font-family="Helvetica,sans-Serif" font-size="10.00" fill="#000000"> fRootNode</text>
</g>
<!-- Node19&#45;&gt;Node19 -->
<g id="edge23" class="edge">
<title>Node19&#45;&gt;Node19</title>
<path fill="none" stroke="#9a32cd" stroke-dasharray="5,2" d="M108.1476,-162.9015C112.9245,-161.5769 116,-159.2764 116,-156 116,-150.7578 108.1268,-148.0139 98.0085,-147.7681"/>
<polygon fill="#9a32cd" stroke="#9a32cd" points="107.4681,-159.4606 98.0085,-164.2319 108.3789,-166.4011 107.4681,-159.4606"/>
<text text-anchor="middle" x="152" y="-170" font-family="Helvetica,sans-Serif" font-size="10.00" fill="#000000"> fChildren</text>
<text text-anchor="middle" x="152" y="-159" font-family="Helvetica,sans-Serif" font-size="10.00" fill="#000000">fParent</text>
<text text-anchor="middle" x="152" y="-148" font-family="Helvetica,sans-Serif" font-size="10.00" fill="#000000">fPreviousNode</text>
<text text-anchor="middle" x="152" y="-137" font-family="Helvetica,sans-Serif" font-size="10.00" fill="#000000">fNextNode</text>
</g>
</g>
</svg>
