<?xml version="1.0" encoding="UTF-8" standalone="no"?>
<!DOCTYPE svg PUBLIC "-//W3C//DTD SVG 1.1//EN"
 "http://www.w3.org/Graphics/SVG/1.1/DTD/svg11.dtd">
<!-- Generated by graphviz version 2.40.1 (0)
 -->
<!-- Title: XrdPoll Pages: 1 -->
<svg width="139pt" height="95pt"
 viewBox="0.00 0.00 139.00 95.00" xmlns="http://www.w3.org/2000/svg" xmlns:xlink="http://www.w3.org/1999/xlink">
<g id="graph0" class="graph" transform="scale(1 1) rotate(0) translate(4 91)">
<title>XrdPoll</title>
<polygon fill="#ffffff" stroke="transparent" points="-4,4 -4,-91 135,-91 135,4 -4,4"/>
<!-- Node1 -->
<g id="node1" class="node">
<title>Node1</title>
<polygon fill="#bfbfbf" stroke="#000000" points="25,-.5 25,-19.5 76,-19.5 76,-.5 25,-.5"/>
<text text-anchor="middle" x="50.5" y="-7.5" font-family="Helvetica,sans-Serif" font-size="10.00" fill="#000000">XrdPoll</text>
</g>
<!-- Node1&#45;&gt;Node1 -->
<g id="edge1" class="edge">
<title>Node1&#45;&gt;Node1</title>
<path fill="none" stroke="#9a32cd" stroke-dasharray="5,2" d="M86.5602,-15.2135C91.0495,-14.2896 94,-12.5518 94,-10 94,-5.8125 86.0544,-3.8169 76.4017,-4.0132"/>
<polygon fill="#9a32cd" stroke="#9a32cd" points="86.1071,-11.7377 76.4017,-15.9868 86.6386,-18.7175 86.1071,-11.7377"/>
<text text-anchor="middle" x="112.5" y="-7.5" font-family="Helvetica,sans-Serif" font-size="10.00" fill="#000000"> Pollers</text>
</g>
<!-- Node2 -->
<g id="node2" class="node">
<title>Node2</title>
<g id="a_node2"><a xlink:href="structXrdPoll_1_1PipeData.html" target="_top" xlink:title="XrdPoll::PipeData">
<polygon fill="#ffffff" stroke="#000000" points="0,-67.5 0,-86.5 101,-86.5 101,-67.5 0,-67.5"/>
<text text-anchor="middle" x="50.5" y="-74.5" font-family="Helvetica,sans-Serif" font-size="10.00" fill="#000000">XrdPoll::PipeData</text>
</a>
</g>
</g>
<!-- Node2&#45;&gt;Node1 -->
<g id="edge2" class="edge">
<title>Node2&#45;&gt;Node1</title>
<path fill="none" stroke="#9a32cd" stroke-dasharray="5,2" d="M50.5,-57.1079C50.5,-44.714 50.5,-29.3263 50.5,-19.5817"/>
<polygon fill="#9a32cd" stroke="#9a32cd" points="47.0001,-57.4005 50.5,-67.4005 54.0001,-57.4006 47.0001,-57.4005"/>
<text text-anchor="middle" x="71" y="-41" font-family="Helvetica,sans-Serif" font-size="10.00" fill="#000000"> ReqBuff</text>
</g>
</g>
</svg>
