<?xml version="1.0" encoding="UTF-8" standalone="no"?>
<!DOCTYPE svg PUBLIC "-//W3C//DTD SVG 1.1//EN"
 "http://www.w3.org/Graphics/SVG/1.1/DTD/svg11.dtd">
<!-- Generated by graphviz version 2.40.1 (0)
 -->
<!-- Title: TClingValue Pages: 1 -->
<svg width="292pt" height="106pt"
 viewBox="0.00 0.00 291.50 106.00" xmlns="http://www.w3.org/2000/svg" xmlns:xlink="http://www.w3.org/1999/xlink">
<g id="graph0" class="graph" transform="scale(1 1) rotate(0) translate(4 102)">
<title>TClingValue</title>
<polygon fill="#ffffff" stroke="transparent" points="-4,4 -4,-102 287.5,-102 287.5,4 -4,4"/>
<!-- Node2 -->
<g id="node1" class="node">
<title>Node2</title>
<polygon fill="#bfbfbf" stroke="#000000" points="88.5,-.5 88.5,-19.5 162.5,-19.5 162.5,-.5 88.5,-.5"/>
<text text-anchor="middle" x="125.5" y="-7.5" font-family="Helvetica,sans-Serif" font-size="10.00" fill="#000000">TClingValue</text>
</g>
<!-- Node3 -->
<g id="node2" class="node">
<title>Node3</title>
<g id="a_node2"><a xlink:href="classTInterpreterValue.html" target="_top" xlink:title="TInterpreterValue">
<polygon fill="#ffffff" stroke="#000000" points="0,-73 0,-92 101,-92 101,-73 0,-73"/>
<text text-anchor="middle" x="50.5" y="-80" font-family="Helvetica,sans-Serif" font-size="10.00" fill="#000000">TInterpreterValue</text>
</a>
</g>
</g>
<!-- Node3&#45;&gt;Node2 -->
<g id="edge1" class="edge">
<title>Node3&#45;&gt;Node2</title>
<path fill="none" stroke="#191970" d="M68.1384,-65.4495C82.915,-51.1655 103.4749,-31.2909 115.5454,-19.6228"/>
<polygon fill="#191970" stroke="#191970" points="65.3722,-63.2556 60.6148,-72.7223 70.2373,-68.2885 65.3722,-63.2556"/>
</g>
<!-- Node4 -->
<g id="node3" class="node">
<title>Node4</title>
<g id="a_node3"><a xlink:href="structTClingValue_1_1HasTheSameSizeAsClingValue.html" target="_top" xlink:title="TClingValue::HasTheSameSize\lAsClingValue">
<polygon fill="#ffffff" stroke="#000000" points="119.5,-67.5 119.5,-97.5 283.5,-97.5 283.5,-67.5 119.5,-67.5"/>
<text text-anchor="start" x="127.5" y="-85.5" font-family="Helvetica,sans-Serif" font-size="10.00" fill="#000000">TClingValue::HasTheSameSize</text>
<text text-anchor="middle" x="201.5" y="-74.5" font-family="Helvetica,sans-Serif" font-size="10.00" fill="#000000">AsClingValue</text>
</a>
</g>
</g>
<!-- Node4&#45;&gt;Node2 -->
<g id="edge2" class="edge">
<title>Node4&#45;&gt;Node2</title>
<path fill="none" stroke="#9a32cd" stroke-dasharray="5,2" d="M178.2839,-60.3531C164.1276,-46.8487 146.7283,-30.2507 135.8734,-19.8957"/>
<polygon fill="#9a32cd" stroke="#9a32cd" points="176.1011,-63.1079 185.7528,-67.478 180.9329,-58.0429 176.1011,-63.1079"/>
<text text-anchor="middle" x="183.5" y="-41" font-family="Helvetica,sans-Serif" font-size="10.00" fill="#000000"> fValue</text>
</g>
</g>
</svg>
