<?xml version="1.0" encoding="UTF-8" standalone="no"?>
<!DOCTYPE svg PUBLIC "-//W3C//DTD SVG 1.1//EN"
 "http://www.w3.org/Graphics/SVG/1.1/DTD/svg11.dtd">
<!-- Generated by graphviz version 2.40.1 (0)
 -->
<!-- Title: ROOT::Experimental::Detail::RFieldValue Pages: 1 -->
<!--zoomable 307 -->
<svg id="main" version="1.1" xmlns="http://www.w3.org/2000/svg" xmlns:xlink="http://www.w3.org/1999/xlink" xml:space="preserve" onload="init(evt)">
<style type="text/css"><![CDATA[
.edge:hover path { stroke: red; }
.edge:hover polygon { stroke: red; fill: red; }
]]></style>
<script type="text/javascript"><![CDATA[
var edges = document.getElementsByTagName('g');
if (edges && edges.length) {
  for (var i=0;i<edges.length;i++) {
    if (edges[i].id.substr(0,4)=='edge') {
      edges[i].setAttribute('class','edge');
    }
  }
}
]]></script>
        <defs>
                <circle id="rim" cx="0" cy="0" r="7"/>
                <circle id="rim2" cx="0" cy="0" r="3.5"/>
                <g id="zoomPlus">
                        <use xlink:href="#rim" fill="#404040">
                                <set attributeName="fill" to="#808080" begin="zoomplus.mouseover" end="zoomplus.mouseout"/>
                        </use>
                        <path d="M-4,0h8M0,-4v8" fill="none" stroke="white" stroke-width="1.5" pointer-events="none"/>
                </g>
                <g id="zoomMin">
                        <use xlink:href="#rim" fill="#404040">
                                <set attributeName="fill" to="#808080" begin="zoomminus.mouseover" end="zoomminus.mouseout"/>
                        </use>
                        <path d="M-4,0h8" fill="none" stroke="white" stroke-width="1.5" pointer-events="none"/>
                </g>
                <g id="dirArrow">
                        <path fill="none" stroke="white" stroke-width="1.5" d="M0,-3.0v7 M-2.5,-0.5L0,-3.0L2.5,-0.5"/>
                </g>
               <g id="resetDef">
                       <use xlink:href="#rim2" fill="#404040">
                               <set attributeName="fill" to="#808080" begin="reset.mouseover" end="reset.mouseout"/>
                       </use>
               </g>
        </defs>

<script type="text/javascript">
var viewWidth = 1373;
var viewHeight = 307;
var sectionId = 'dynsection-0';
</script>
<script xlink:href="svgpan.js"/>
<svg id="graph" class="graph">
<g id="viewport">
<title>ROOT::Experimental::Detail::RFieldValue</title>
<polygon fill="#ffffff" stroke="transparent" points="-4,4 -4,-302.5 1369,-302.5 1369,4 -4,4"/>
<!-- Node1 -->
<g id="node1" class="node">
<title>Node1</title>
<polygon fill="#bfbfbf" stroke="#000000" points="1250,-120 1250,-150 1365,-150 1365,-120 1250,-120"/>
<text text-anchor="start" x="1258" y="-138" font-family="Helvetica,sans-Serif" font-size="10.00" fill="#000000">ROOT::Experimental</text>
<text text-anchor="middle" x="1307.5" y="-127" font-family="Helvetica,sans-Serif" font-size="10.00" fill="#000000">::Detail::RFieldValue</text>
</g>
<!-- Node2 -->
<g id="node2" class="node">
<title>Node2</title>
<g id="a_node2"><a xlink:href="classROOT_1_1Experimental_1_1Detail_1_1RColumnElementBase.html" target="_top" xlink:title="ROOT::Experimental\l::Detail::RColumnElementBase">
<polygon fill="#ffffff" stroke="#000000" points="962,-159 962,-189 1128,-189 1128,-159 962,-159"/>
<text text-anchor="start" x="970" y="-177" font-family="Helvetica,sans-Serif" font-size="10.00" fill="#000000">ROOT::Experimental</text>
<text text-anchor="middle" x="1045" y="-166" font-family="Helvetica,sans-Serif" font-size="10.00" fill="#000000">::Detail::RColumnElementBase</text>
</a>
</g>
</g>
<!-- Node2&#45;&gt;Node1 -->
<g id="edge1" class="edge">
<title>Node2&#45;&gt;Node1</title>
<path fill="none" stroke="#9a32cd" stroke-dasharray="5,2" d="M1138.4197,-160.1205C1175.6179,-154.5939 1217.2488,-148.4087 1249.8933,-143.5587"/>
<polygon fill="#9a32cd" stroke="#9a32cd" points="1137.4337,-156.7285 1128.0566,-161.6602 1138.4625,-163.6525 1137.4337,-156.7285"/>
<text text-anchor="middle" x="1189" y="-160" font-family="Helvetica,sans-Serif" font-size="10.00" fill="#000000"> fMappedElement</text>
</g>
<!-- Node3 -->
<g id="node3" class="node">
<title>Node3</title>
<g id="a_node3"><a xlink:href="classROOT_1_1Experimental_1_1Detail_1_1RFieldBase.html" target="_top" xlink:title="ROOT::Experimental\l::Detail::RFieldBase">
<polygon fill="#ffffff" stroke="#000000" points="987.5,-81 987.5,-111 1102.5,-111 1102.5,-81 987.5,-81"/>
<text text-anchor="start" x="995.5" y="-99" font-family="Helvetica,sans-Serif" font-size="10.00" fill="#000000">ROOT::Experimental</text>
<text text-anchor="middle" x="1045" y="-88" font-family="Helvetica,sans-Serif" font-size="10.00" fill="#000000">::Detail::RFieldBase</text>
</a>
</g>
</g>
<!-- Node3&#45;&gt;Node1 -->
<g id="edge2" class="edge">
<title>Node3&#45;&gt;Node1</title>
<path fill="none" stroke="#9a32cd" stroke-dasharray="5,2" d="M1112.5701,-106.039C1154.9903,-112.3414 1209.1237,-120.3841 1249.5746,-126.3939"/>
<polygon fill="#9a32cd" stroke="#9a32cd" points="1113.0126,-102.5664 1102.6067,-104.5587 1111.9838,-109.4904 1113.0126,-102.5664"/>
<text text-anchor="middle" x="1189" y="-126" font-family="Helvetica,sans-Serif" font-size="10.00" fill="#000000"> fField</text>
</g>
<!-- Node3&#45;&gt;Node3 -->
<g id="edge20" class="edge">
<title>Node3&#45;&gt;Node3</title>
<path fill="none" stroke="#9a32cd" stroke-dasharray="5,2" d="M1019.4129,-121.4579C1022.5887,-126.179 1031.1177,-129.5 1045,-129.5 1067.7813,-129.5 1076.1462,-120.5566 1070.095,-111.159"/>
<polygon fill="#9a32cd" stroke="#9a32cd" points="1022.9237,-121.3147 1019.905,-111.159 1015.9317,-120.9805 1022.9237,-121.3147"/>
<text text-anchor="middle" x="1045" y="-132.5" font-family="Helvetica,sans-Serif" font-size="10.00" fill="#000000"> fParent</text>
</g>
<!-- Node4 -->
<g id="node4" class="node">
<title>Node4</title>
<polygon fill="#ffffff" stroke="#bfbfbf" points="694,-216.5 694,-257.5 839,-257.5 839,-216.5 694,-216.5"/>
<text text-anchor="start" x="702" y="-245.5" font-family="Helvetica,sans-Serif" font-size="10.00" fill="#000000">std::vector&lt; std::unique</text>
<text text-anchor="start" x="702" y="-234.5" font-family="Helvetica,sans-Serif" font-size="10.00" fill="#000000">_ptr&lt; ROOT::Experimental</text>
<text text-anchor="middle" x="766.5" y="-223.5" font-family="Helvetica,sans-Serif" font-size="10.00" fill="#000000">::Detail::RFieldBase &gt; &gt;</text>
</g>
<!-- Node4&#45;&gt;Node3 -->
<g id="edge3" class="edge">
<title>Node4&#45;&gt;Node3</title>
<path fill="none" stroke="#9a32cd" stroke-dasharray="5,2" d="M827.4701,-212.3024C831.3909,-210.5506 835.2623,-208.7747 839,-207 905.2414,-175.5486 980.4819,-133.2666 1019.1005,-111.0624"/>
<polygon fill="#9a32cd" stroke="#9a32cd" points="826.0253,-209.1141 818.2717,-216.3344 828.8356,-215.5253 826.0253,-209.1141"/>
<text text-anchor="middle" x="900.5" y="-198" font-family="Helvetica,sans-Serif" font-size="10.00" fill="#000000"> fSubFields</text>
</g>
<!-- Node5 -->
<g id="node5" class="node">
<title>Node5</title>
<g id="a_node5"><a xlink:title="STL class. ">
<polygon fill="#ffffff" stroke="#bfbfbf" points="260,-68.5 260,-87.5 325,-87.5 325,-68.5 260,-68.5"/>
<text text-anchor="middle" x="292.5" y="-75.5" font-family="Helvetica,sans-Serif" font-size="10.00" fill="#000000">std::string</text>
</a>
</g>
</g>
<!-- Node5&#45;&gt;Node3 -->
<g id="edge4" class="edge">
<title>Node5&#45;&gt;Node3</title>
<path fill="none" stroke="#9a32cd" stroke-dasharray="5,2" d="M335.5053,-79.0287C463.4674,-82.0896 841.899,-91.1418 987.2452,-94.6185"/>
<polygon fill="#9a32cd" stroke="#9a32cd" points="335.3987,-75.5252 325.3179,-78.785 335.2313,-82.5232 335.3987,-75.5252"/>
<text text-anchor="middle" x="642.5" y="-101" font-family="Helvetica,sans-Serif" font-size="10.00" fill="#000000"> fType</text>
<text text-anchor="middle" x="642.5" y="-90" font-family="Helvetica,sans-Serif" font-size="10.00" fill="#000000">fName</text>
</g>
<!-- Node9 -->
<g id="node9" class="node">
<title>Node9</title>
<g id="a_node9"><a xlink:href="classROOT_1_1Experimental_1_1RColumnModel.html" target="_top" xlink:title=" Holds the static meta&#45;data of a column in a tree ">
<polygon fill="#ffffff" stroke="#000000" points="473,-115 473,-145 588,-145 588,-115 473,-115"/>
<text text-anchor="start" x="481" y="-133" font-family="Helvetica,sans-Serif" font-size="10.00" fill="#000000">ROOT::Experimental</text>
<text text-anchor="middle" x="530.5" y="-122" font-family="Helvetica,sans-Serif" font-size="10.00" fill="#000000">::RColumnModel</text>
</a>
</g>
</g>
<!-- Node5&#45;&gt;Node9 -->
<g id="edge10" class="edge">
<title>Node5&#45;&gt;Node9</title>
<path fill="none" stroke="#9a32cd" stroke-dasharray="5,2" d="M334.9199,-87.2682C373.3123,-95.6565 430.1922,-108.084 472.7279,-117.3775"/>
<polygon fill="#9a32cd" stroke="#9a32cd" points="335.6105,-83.8366 325.0939,-85.1213 334.1163,-90.6753 335.6105,-83.8366"/>
<text text-anchor="middle" x="419.5" y="-114" font-family="Helvetica,sans-Serif" font-size="10.00" fill="#000000"> fName</text>
</g>
<!-- Node6 -->
<g id="node6" class="node">
<title>Node6</title>
<polygon fill="#ffffff" stroke="#bfbfbf" points="12,-63 12,-93 116,-93 116,-63 12,-63"/>
<text text-anchor="start" x="20" y="-81" font-family="Helvetica,sans-Serif" font-size="10.00" fill="#000000">std::basic_string&lt;</text>
<text text-anchor="middle" x="64" y="-70" font-family="Helvetica,sans-Serif" font-size="10.00" fill="#000000"> char &gt;</text>
</g>
<!-- Node6&#45;&gt;Node5 -->
<g id="edge5" class="edge">
<title>Node6&#45;&gt;Node5</title>
<path fill="none" stroke="#191970" d="M126.2681,-78C169.479,-78 225.2982,-78 259.9966,-78"/>
<polygon fill="#191970" stroke="#191970" points="126.1361,-74.5001 116.1361,-78 126.1361,-81.5001 126.1361,-74.5001"/>
</g>
<!-- Node7 -->
<g id="node7" class="node">
<title>Node7</title>
<polygon fill="#ffffff" stroke="#bfbfbf" points="694,-.5 694,-41.5 839,-41.5 839,-.5 694,-.5"/>
<text text-anchor="start" x="702" y="-29.5" font-family="Helvetica,sans-Serif" font-size="10.00" fill="#000000">std::vector&lt; std::unique</text>
<text text-anchor="start" x="702" y="-18.5" font-family="Helvetica,sans-Serif" font-size="10.00" fill="#000000">_ptr&lt; ROOT::Experimental</text>
<text text-anchor="middle" x="766.5" y="-7.5" font-family="Helvetica,sans-Serif" font-size="10.00" fill="#000000">::Detail::RColumn &gt; &gt;</text>
</g>
<!-- Node7&#45;&gt;Node3 -->
<g id="edge6" class="edge">
<title>Node7&#45;&gt;Node3</title>
<path fill="none" stroke="#9a32cd" stroke-dasharray="5,2" d="M849.4584,-26.446C879.6967,-29.9297 913.8492,-35.6403 944,-45 971.5776,-53.5609 1000.7865,-69.1062 1020.6601,-80.792"/>
<polygon fill="#9a32cd" stroke="#9a32cd" points="849.6851,-22.9501 839.3651,-25.3478 848.9279,-29.909 849.6851,-22.9501"/>
<text text-anchor="middle" x="900.5" y="-48" font-family="Helvetica,sans-Serif" font-size="10.00" fill="#000000"> fColumns</text>
</g>
<!-- Node8 -->
<g id="node8" class="node">
<title>Node8</title>
<g id="a_node8"><a xlink:href="classROOT_1_1Experimental_1_1Detail_1_1RColumn.html" target="_top" xlink:title="ROOT::Experimental\l::Detail::RColumn">
<polygon fill="#ffffff" stroke="#000000" points="709,-138 709,-168 824,-168 824,-138 709,-138"/>
<text text-anchor="start" x="717" y="-156" font-family="Helvetica,sans-Serif" font-size="10.00" fill="#000000">ROOT::Experimental</text>
<text text-anchor="middle" x="766.5" y="-145" font-family="Helvetica,sans-Serif" font-size="10.00" fill="#000000">::Detail::RColumn</text>
</a>
</g>
</g>
<!-- Node8&#45;&gt;Node3 -->
<g id="edge7" class="edge">
<title>Node8&#45;&gt;Node3</title>
<path fill="none" stroke="#9a32cd" stroke-dasharray="5,2" d="M834.2724,-139.1292C881.1509,-129.5346 942.8575,-116.9053 987.3685,-107.7953"/>
<polygon fill="#9a32cd" stroke="#9a32cd" points="833.3005,-135.7555 824.2054,-141.1896 834.7041,-142.6133 833.3005,-135.7555"/>
<text text-anchor="middle" x="900.5" y="-135" font-family="Helvetica,sans-Serif" font-size="10.00" fill="#000000"> fPrincipalColumn</text>
</g>
<!-- Node8&#45;&gt;Node8 -->
<g id="edge17" class="edge">
<title>Node8&#45;&gt;Node8</title>
<path fill="none" stroke="#9a32cd" stroke-dasharray="5,2" d="M744.4667,-178.4579C747.2013,-183.179 754.5458,-186.5 766.5,-186.5 786.1172,-186.5 793.3204,-177.5566 788.1096,-168.159"/>
<polygon fill="#9a32cd" stroke="#9a32cd" points="747.9763,-178.2945 744.8904,-168.159 740.9822,-178.0066 747.9763,-178.2945"/>
<text text-anchor="middle" x="766.5" y="-189.5" font-family="Helvetica,sans-Serif" font-size="10.00" fill="#000000"> fOffsetColumn</text>
</g>
<!-- Node9&#45;&gt;Node8 -->
<g id="edge8" class="edge">
<title>Node9&#45;&gt;Node8</title>
<path fill="none" stroke="#9a32cd" stroke-dasharray="5,2" d="M598.5337,-134.3463C622.9862,-136.119 650.7562,-138.3743 676,-141 686.5621,-142.0986 697.7945,-143.4441 708.6229,-144.8321"/>
<polygon fill="#9a32cd" stroke="#9a32cd" points="598.4974,-130.835 588.2742,-133.6165 598.0006,-137.8173 598.4974,-130.835"/>
<text text-anchor="middle" x="642.5" y="-144" font-family="Helvetica,sans-Serif" font-size="10.00" fill="#000000"> fModel</text>
</g>
<!-- Node10 -->
<g id="node10" class="node">
<title>Node10</title>
<g id="a_node10"><a xlink:href="classROOT_1_1Experimental_1_1EColumnType.html" target="_top" xlink:title=" The available trivial, native content types of a column ">
<polygon fill="#ffffff" stroke="#000000" points="235,-114 235,-144 350,-144 350,-114 235,-114"/>
<text text-anchor="start" x="243" y="-132" font-family="Helvetica,sans-Serif" font-size="10.00" fill="#000000">ROOT::Experimental</text>
<text text-anchor="middle" x="292.5" y="-121" font-family="Helvetica,sans-Serif" font-size="10.00" fill="#000000">::EColumnType</text>
</a>
</g>
</g>
<!-- Node10&#45;&gt;Node9 -->
<g id="edge9" class="edge">
<title>Node10&#45;&gt;Node9</title>
<path fill="none" stroke="#9a32cd" stroke-dasharray="5,2" d="M360.3749,-129.2852C395.8182,-129.4341 438.7326,-129.6144 472.5925,-129.7567"/>
<polygon fill="#9a32cd" stroke="#9a32cd" points="360.1278,-125.7842 350.1132,-129.2421 360.0983,-132.7842 360.1278,-125.7842"/>
<text text-anchor="middle" x="419.5" y="-132" font-family="Helvetica,sans-Serif" font-size="10.00" fill="#000000"> fType</text>
</g>
<!-- Node11 -->
<g id="node11" class="node">
<title>Node11</title>
<g id="a_node11"><a xlink:href="classROOT_1_1Experimental_1_1Detail_1_1RPageSource.html" target="_top" xlink:title=" Abstract interface to read data from a tree ">
<polygon fill="#ffffff" stroke="#000000" points="470,-268 470,-298 591,-298 591,-268 470,-268"/>
<text text-anchor="start" x="478" y="-286" font-family="Helvetica,sans-Serif" font-size="10.00" fill="#000000">ROOT::Experimental</text>
<text text-anchor="middle" x="530.5" y="-275" font-family="Helvetica,sans-Serif" font-size="10.00" fill="#000000">::Detail::RPageSource</text>
</a>
</g>
</g>
<!-- Node11&#45;&gt;Node8 -->
<g id="edge11" class="edge">
<title>Node11&#45;&gt;Node8</title>
<path fill="none" stroke="#9a32cd" stroke-dasharray="5,2" d="M601.1847,-265.1094C626.2528,-256.6802 653.7403,-244.8989 676,-229 686.2805,-221.6572 684.8657,-215.7275 694,-207 709.2057,-192.4716 728.357,-178.3573 743.1571,-168.2042"/>
<polygon fill="#9a32cd" stroke="#9a32cd" points="599.7855,-261.8834 591.3477,-268.2908 601.9395,-268.5438 599.7855,-261.8834"/>
<text text-anchor="middle" x="642.5" y="-264" font-family="Helvetica,sans-Serif" font-size="10.00" fill="#000000"> fPageSource</text>
</g>
<!-- Node12 -->
<g id="node12" class="node">
<title>Node12</title>
<g id="a_node12"><a xlink:href="classROOT_1_1Experimental_1_1Detail_1_1RPageStorage.html" target="_top" xlink:title=" Manages tree meta&#45;data, which is common for sinks and sources. ">
<polygon fill="#ffffff" stroke="#000000" points="230,-260 230,-290 355,-290 355,-260 230,-260"/>
<text text-anchor="start" x="238" y="-278" font-family="Helvetica,sans-Serif" font-size="10.00" fill="#000000">ROOT::Experimental</text>
<text text-anchor="middle" x="292.5" y="-267" font-family="Helvetica,sans-Serif" font-size="10.00" fill="#000000">::Detail::RPageStorage</text>
</a>
</g>
</g>
<!-- Node12&#45;&gt;Node11 -->
<g id="edge12" class="edge">
<title>Node12&#45;&gt;Node11</title>
<path fill="none" stroke="#191970" d="M365.2009,-277.4437C398.6119,-278.5668 437.7918,-279.8838 469.6195,-280.9536"/>
<polygon fill="#191970" stroke="#191970" points="365.1437,-273.9399 355.0317,-277.1019 364.9084,-280.936 365.1437,-273.9399"/>
</g>
<!-- Node17 -->
<g id="node17" class="node">
<title>Node17</title>
<g id="a_node17"><a xlink:href="classROOT_1_1Experimental_1_1Detail_1_1RPageSink.html" target="_top" xlink:title=" Abstract interface to write data into a tree ">
<polygon fill="#ffffff" stroke="#000000" points="473,-217 473,-247 588,-247 588,-217 473,-217"/>
<text text-anchor="start" x="481" y="-235" font-family="Helvetica,sans-Serif" font-size="10.00" fill="#000000">ROOT::Experimental</text>
<text text-anchor="middle" x="530.5" y="-224" font-family="Helvetica,sans-Serif" font-size="10.00" fill="#000000">::Detail::RPageSink</text>
</a>
</g>
</g>
<!-- Node12&#45;&gt;Node17 -->
<g id="edge19" class="edge">
<title>Node12&#45;&gt;Node17</title>
<path fill="none" stroke="#191970" d="M365.0782,-261.8871C399.6631,-255.6386 440.4518,-248.2692 472.8726,-242.4117"/>
<polygon fill="#191970" stroke="#191970" points="364.2501,-258.48 355.0317,-263.7023 365.4947,-265.3685 364.2501,-258.48"/>
</g>
<!-- Node13 -->
<g id="node13" class="node">
<title>Node13</title>
<polygon fill="#ffffff" stroke="#bfbfbf" points="0,-254.5 0,-295.5 128,-295.5 128,-254.5 0,-254.5"/>
<text text-anchor="start" x="8" y="-283.5" font-family="Helvetica,sans-Serif" font-size="10.00" fill="#000000">std::unique_ptr&lt; ROOT</text>
<text text-anchor="start" x="8" y="-272.5" font-family="Helvetica,sans-Serif" font-size="10.00" fill="#000000">::Experimental::Detail</text>
<text text-anchor="middle" x="64" y="-261.5" font-family="Helvetica,sans-Serif" font-size="10.00" fill="#000000">::RPagePool &gt;</text>
</g>
<!-- Node13&#45;&gt;Node12 -->
<g id="edge13" class="edge">
<title>Node13&#45;&gt;Node12</title>
<path fill="none" stroke="#9a32cd" stroke-dasharray="5,2" d="M138.5232,-275C168.0653,-275 201.655,-275 229.9068,-275"/>
<polygon fill="#9a32cd" stroke="#9a32cd" points="138.2581,-271.5001 128.2581,-275 138.258,-278.5001 138.2581,-271.5001"/>
<text text-anchor="middle" x="172" y="-278" font-family="Helvetica,sans-Serif" font-size="10.00" fill="#000000"> fPagePool</text>
</g>
<!-- Node14 -->
<g id="node14" class="node">
<title>Node14</title>
<g id="a_node14"><a xlink:href="classROOT_1_1Experimental_1_1Detail_1_1RPage.html" target="_top" xlink:title=" A page is a fixed size slice of a column that is mapped into memory ">
<polygon fill="#ffffff" stroke="#000000" points="473,-164 473,-194 588,-194 588,-164 473,-164"/>
<text text-anchor="start" x="481" y="-182" font-family="Helvetica,sans-Serif" font-size="10.00" fill="#000000">ROOT::Experimental</text>
<text text-anchor="middle" x="530.5" y="-171" font-family="Helvetica,sans-Serif" font-size="10.00" fill="#000000">::Detail::RPage</text>
</a>
</g>
</g>
<!-- Node14&#45;&gt;Node8 -->
<g id="edge14" class="edge">
<title>Node14&#45;&gt;Node8</title>
<path fill="none" stroke="#9a32cd" stroke-dasharray="5,2" d="M598.3681,-171.523C633.3608,-167.6679 675.5787,-163.0168 708.9554,-159.3397"/>
<polygon fill="#9a32cd" stroke="#9a32cd" points="597.7887,-168.0656 588.2321,-172.6397 598.5553,-175.0235 597.7887,-168.0656"/>
<text text-anchor="middle" x="642.5" y="-183" font-family="Helvetica,sans-Serif" font-size="10.00" fill="#000000"> fCurrentPage</text>
<text text-anchor="middle" x="642.5" y="-172" font-family="Helvetica,sans-Serif" font-size="10.00" fill="#000000">fHeadPage</text>
</g>
<!-- Node15 -->
<g id="node15" class="node">
<title>Node15</title>
<polygon fill="#ffffff" stroke="#bfbfbf" points="270,-212.5 270,-231.5 315,-231.5 315,-212.5 270,-212.5"/>
<text text-anchor="middle" x="292.5" y="-219.5" font-family="Helvetica,sans-Serif" font-size="10.00" fill="#000000">size_t</text>
</g>
<!-- Node15&#45;&gt;Node14 -->
<g id="edge15" class="edge">
<title>Node15&#45;&gt;Node14</title>
<path fill="none" stroke="#9a32cd" stroke-dasharray="5,2" d="M325.329,-216.0687C363.3128,-209.2061 426.5517,-197.7806 472.7991,-189.425"/>
<polygon fill="#9a32cd" stroke="#9a32cd" points="324.5388,-212.6547 315.3204,-217.877 325.7834,-219.5432 324.5388,-212.6547"/>
<text text-anchor="middle" x="419.5" y="-229" font-family="Helvetica,sans-Serif" font-size="10.00" fill="#000000"> fSize</text>
<text text-anchor="middle" x="419.5" y="-218" font-family="Helvetica,sans-Serif" font-size="10.00" fill="#000000">fElementSize</text>
<text text-anchor="middle" x="419.5" y="-207" font-family="Helvetica,sans-Serif" font-size="10.00" fill="#000000">fCapacity</text>
</g>
<!-- Node16 -->
<g id="node16" class="node">
<title>Node16</title>
<g id="a_node16"><a xlink:href="classROOT_1_1Experimental_1_1Detail_1_1RPage_1_1RClusterInfo.html" target="_top" xlink:title="Stores information about the cluster in which this page resides. ">
<polygon fill="#ffffff" stroke="#000000" points="216,-163 216,-193 369,-193 369,-163 216,-163"/>
<text text-anchor="start" x="224" y="-181" font-family="Helvetica,sans-Serif" font-size="10.00" fill="#000000">ROOT::Experimental</text>
<text text-anchor="middle" x="292.5" y="-170" font-family="Helvetica,sans-Serif" font-size="10.00" fill="#000000">::Detail::RPage::RClusterInfo</text>
</a>
</g>
</g>
<!-- Node16&#45;&gt;Node14 -->
<g id="edge16" class="edge">
<title>Node16&#45;&gt;Node14</title>
<path fill="none" stroke="#9a32cd" stroke-dasharray="5,2" d="M379.1251,-178.364C410.3423,-178.4951 444.7766,-178.6398 472.9058,-178.758"/>
<polygon fill="#9a32cd" stroke="#9a32cd" points="379.1294,-174.8641 369.1148,-178.3219 379.0999,-181.864 379.1294,-174.8641"/>
<text text-anchor="middle" x="419.5" y="-181" font-family="Helvetica,sans-Serif" font-size="10.00" fill="#000000"> fClusterInfo</text>
</g>
<!-- Node17&#45;&gt;Node8 -->
<g id="edge18" class="edge">
<title>Node17&#45;&gt;Node8</title>
<path fill="none" stroke="#9a32cd" stroke-dasharray="5,2" d="M598.2738,-217.5277C623.0342,-211.5206 651.0713,-203.8677 676,-195 697.2155,-187.4532 720.2215,-176.7404 737.7287,-168.0233"/>
<polygon fill="#9a32cd" stroke="#9a32cd" points="597.1602,-214.1949 588.2428,-219.9158 598.7815,-221.0046 597.1602,-214.1949"/>
<text text-anchor="middle" x="642.5" y="-217" font-family="Helvetica,sans-Serif" font-size="10.00" fill="#000000"> fPageSink</text>
</g>
</g>
</svg>
        <g id="navigator" transform="translate(0 0)" fill="#404254">
                <rect fill="#f2f5e9" fill-opacity="0.5" stroke="#606060" stroke-width=".5" x="0" y="0" width="60" height="60"/>
                <use id="zoomplus" xlink:href="#zoomPlus" x="17" y="9" onmousedown="handleZoom(evt,'in')"/>
                <use id="zoomminus" xlink:href="#zoomMin" x="42" y="9" onmousedown="handleZoom(evt,'out')"/>
                <use id="reset" xlink:href="#resetDef" x="30" y="36" onmousedown="handleReset()"/>
                <g id="arrowUp" xlink:href="#dirArrow" transform="translate(30 24)" onmousedown="handlePan(0,-1)">
                  <use xlink:href="#rim" fill="#404040">
                        <set attributeName="fill" to="#808080" begin="arrowUp.mouseover" end="arrowUp.mouseout"/>
                  </use>
                  <path fill="none" stroke="white" stroke-width="1.5" d="M0,-3.0v7 M-2.5,-0.5L0,-3.0L2.5,-0.5"/>
                </g>
                <g id="arrowRight" xlink:href="#dirArrow" transform="rotate(90) translate(36 -43)" onmousedown="handlePan(1,0)">
                  <use xlink:href="#rim" fill="#404040">
                        <set attributeName="fill" to="#808080" begin="arrowRight.mouseover" end="arrowRight.mouseout"/>
                  </use>
                  <path fill="none" stroke="white" stroke-width="1.5" d="M0,-3.0v7 M-2.5,-0.5L0,-3.0L2.5,-0.5"/>
                </g>
                <g id="arrowDown" xlink:href="#dirArrow" transform="rotate(180) translate(-30 -48)" onmousedown="handlePan(0,1)">
                  <use xlink:href="#rim" fill="#404040">
                        <set attributeName="fill" to="#808080" begin="arrowDown.mouseover" end="arrowDown.mouseout"/>
                  </use>
                  <path fill="none" stroke="white" stroke-width="1.5" d="M0,-3.0v7 M-2.5,-0.5L0,-3.0L2.5,-0.5"/>
                </g>
                <g id="arrowLeft" xlink:href="#dirArrow" transform="rotate(270) translate(-36 17)" onmousedown="handlePan(-1,0)">
                  <use xlink:href="#rim" fill="#404040">
                        <set attributeName="fill" to="#808080" begin="arrowLeft.mouseover" end="arrowLeft.mouseout"/>
                  </use>
                  <path fill="none" stroke="white" stroke-width="1.5" d="M0,-3.0v7 M-2.5,-0.5L0,-3.0L2.5,-0.5"/>
                </g>
        </g>
        <svg viewBox="0 0 15 15" width="100%" height="30px" preserveAspectRatio="xMaxYMin meet">
         <g id="arrow_out" transform="scale(0.3 0.3)">
          <a xlink:href="classROOT_1_1Experimental_1_1Detail_1_1RFieldValue__coll__graph_org.svg" target="_base">
           <rect id="button" ry="5" rx="5" y="6" x="6" height="38" width="38"
                fill="#f2f5e9" fill-opacity="0.5" stroke="#606060" stroke-width="1.0"/>
           <path id="arrow"
             d="M 11.500037,31.436501 C 11.940474,20.09759 22.043105,11.32322 32.158766,21.979434 L 37.068811,17.246167 C 37.068811,17.246167 37.088388,32 37.088388,32 L 22.160133,31.978069 C 22.160133,31.978069 26.997745,27.140456 26.997745,27.140456 C 18.528582,18.264221 13.291696,25.230495 11.500037,31.436501 z"
             style="fill:#404040;"/>
          </a>
         </g>
        </svg>
</svg>
