<?xml version="1.0" encoding="UTF-8" standalone="no"?>
<!DOCTYPE svg PUBLIC "-//W3C//DTD SVG 1.1//EN"
 "http://www.w3.org/Graphics/SVG/1.1/DTD/svg11.dtd">
<!-- Generated by graphviz version 2.40.1 (0)
 -->
<!-- Title: ROOT::Experimental::Detail::RColumnElement&lt; double, EColumnType::kReal64 &gt; Pages: 1 -->
<svg width="174pt" height="128pt"
 viewBox="0.00 0.00 174.00 128.00" xmlns="http://www.w3.org/2000/svg" xmlns:xlink="http://www.w3.org/1999/xlink">
<g id="graph0" class="graph" transform="scale(1 1) rotate(0) translate(4 124)">
<title>ROOT::Experimental::Detail::RColumnElement&lt; double, EColumnType::kReal64 &gt;</title>
<polygon fill="#ffffff" stroke="transparent" points="-4,4 -4,-124 170,-124 170,4 -4,4"/>
<!-- Node0 -->
<g id="node1" class="node">
<title>Node0</title>
<polygon fill="#bfbfbf" stroke="#000000" points="12,-.5 12,-52.5 154,-52.5 154,-.5 12,-.5"/>
<text text-anchor="start" x="20" y="-40.5" font-family="Helvetica,sans-Serif" font-size="10.00" fill="#000000">ROOT::Experimental</text>
<text text-anchor="start" x="20" y="-29.5" font-family="Helvetica,sans-Serif" font-size="10.00" fill="#000000">::Detail::RColumnElement</text>
<text text-anchor="start" x="20" y="-18.5" font-family="Helvetica,sans-Serif" font-size="10.00" fill="#000000">&lt; double, EColumnType::</text>
<text text-anchor="middle" x="83" y="-7.5" font-family="Helvetica,sans-Serif" font-size="10.00" fill="#000000">kReal64 &gt;</text>
</g>
<!-- Node1 -->
<g id="node2" class="node">
<title>Node1</title>
<g id="a_node2"><a xlink:href="classROOT_1_1Experimental_1_1Detail_1_1RColumnElementBase.html" target="_top" xlink:title="ROOT::Experimental\l::Detail::RColumnElementBase">
<polygon fill="#ffffff" stroke="#000000" points="0,-89.5 0,-119.5 166,-119.5 166,-89.5 0,-89.5"/>
<text text-anchor="start" x="8" y="-107.5" font-family="Helvetica,sans-Serif" font-size="10.00" fill="#000000">ROOT::Experimental</text>
<text text-anchor="middle" x="83" y="-96.5" font-family="Helvetica,sans-Serif" font-size="10.00" fill="#000000">::Detail::RColumnElementBase</text>
</a>
</g>
</g>
<!-- Node1&#45;&gt;Node0 -->
<g id="edge1" class="edge">
<title>Node1&#45;&gt;Node0</title>
<path fill="none" stroke="#191970" d="M83,-79.314C83,-70.756 83,-61.1787 83,-52.5542"/>
<polygon fill="#191970" stroke="#191970" points="79.5001,-79.4608 83,-89.4608 86.5001,-79.4608 79.5001,-79.4608"/>
</g>
</g>
</svg>
