<?xml version="1.0" encoding="UTF-8" standalone="no"?>
<!DOCTYPE svg PUBLIC "-//W3C//DTD SVG 1.1//EN"
 "http://www.w3.org/Graphics/SVG/1.1/DTD/svg11.dtd">
<!-- Generated by graphviz version 2.40.1 (0)
 -->
<!-- Title: ROOT::Minuit2::MnMigrad Pages: 1 -->
<svg width="2472pt" height="493pt"
 viewBox="0.00 0.00 2472.00 492.50" xmlns="http://www.w3.org/2000/svg" xmlns:xlink="http://www.w3.org/1999/xlink">
<g id="graph0" class="graph" transform="scale(1 1) rotate(0) translate(4 488.5)">
<title>ROOT::Minuit2::MnMigrad</title>
<polygon fill="#ffffff" stroke="transparent" points="-4,4 -4,-488.5 2468,-488.5 2468,4 -4,4"/>
<!-- Node2 -->
<g id="node1" class="node">
<title>Node2</title>
<polygon fill="#bfbfbf" stroke="#000000" points="2325,-431 2325,-450 2464,-450 2464,-431 2325,-431"/>
<text text-anchor="middle" x="2394.5" y="-438" font-family="Helvetica,sans-Serif" font-size="10.00" fill="#000000">ROOT::Minuit2::MnMigrad</text>
</g>
<!-- Node3 -->
<g id="node2" class="node">
<title>Node3</title>
<g id="a_node2"><a xlink:href="classROOT_1_1Minuit2_1_1MnApplication.html" target="_top" xlink:title="application interface class for minimizers (migrad, simplex, Minimize, Scan) User normally instantiat...">
<polygon fill="#ffffff" stroke="#000000" points="1284,-437 1284,-456 1445,-456 1445,-437 1284,-437"/>
<text text-anchor="middle" x="1364.5" y="-444" font-family="Helvetica,sans-Serif" font-size="10.00" fill="#000000">ROOT::Minuit2::MnApplication</text>
</a>
</g>
</g>
<!-- Node3&#45;&gt;Node2 -->
<g id="edge1" class="edge">
<title>Node3&#45;&gt;Node2</title>
<path fill="none" stroke="#191970" d="M1455.3249,-455.2773C1501.3271,-459.0021 1558.0823,-462.5 1609,-462.5 1609,-462.5 1609,-462.5 2153.5,-462.5 2212.1099,-462.5 2278.4066,-455.9673 2326.6092,-450.0216"/>
<polygon fill="#191970" stroke="#191970" points="1455.3336,-451.7661 1445.0791,-454.4297 1454.7564,-458.7423 1455.3336,-451.7661"/>
</g>
<!-- Node4 -->
<g id="node3" class="node">
<title>Node4</title>
<g id="a_node3"><a xlink:href="classROOT_1_1Minuit2_1_1MnStrategy.html" target="_top" xlink:title="API class for defining three levels of strategies: low (0), medium (1), high (&gt;=2); acts on: Migrad (...">
<polygon fill="#ffffff" stroke="#000000" points="1029,-465 1029,-484 1176,-484 1176,-465 1029,-465"/>
<text text-anchor="middle" x="1102.5" y="-472" font-family="Helvetica,sans-Serif" font-size="10.00" fill="#000000">ROOT::Minuit2::MnStrategy</text>
</a>
</g>
</g>
<!-- Node4&#45;&gt;Node3 -->
<g id="edge2" class="edge">
<title>Node4&#45;&gt;Node3</title>
<path fill="none" stroke="#9a32cd" stroke-dasharray="5,2" d="M1186.1453,-465.5608C1217.3227,-462.2289 1252.6353,-458.455 1283.5649,-455.1495"/>
<polygon fill="#9a32cd" stroke="#9a32cd" points="1185.7503,-462.083 1176.1788,-466.6259 1186.4942,-469.0434 1185.7503,-462.083"/>
<text text-anchor="middle" x="1237.5" y="-465.5" font-family="Helvetica,sans-Serif" font-size="10.00" fill="#000000"> fStrategy</text>
</g>
<!-- Node5 -->
<g id="node4" class="node">
<title>Node5</title>
<g id="a_node4"><a xlink:href="classROOT_1_1Minuit2_1_1FCNBase.html" target="_top" xlink:title="Interface (abstract class) defining the function to be minimized, which has to be implemented by the ...">
<polygon fill="#ffffff" stroke="#000000" points="1035,-427 1035,-446 1170,-446 1170,-427 1035,-427"/>
<text text-anchor="middle" x="1102.5" y="-434" font-family="Helvetica,sans-Serif" font-size="10.00" fill="#000000">ROOT::Minuit2::FCNBase</text>
</a>
</g>
</g>
<!-- Node5&#45;&gt;Node3 -->
<g id="edge3" class="edge">
<title>Node5&#45;&gt;Node3</title>
<path fill="none" stroke="#9a32cd" stroke-dasharray="5,2" d="M1180.2223,-438.5839C1207.0816,-439.3857 1237.367,-440.3807 1265,-441.5 1271.1351,-441.7485 1277.482,-442.0242 1283.8641,-442.3149"/>
<polygon fill="#9a32cd" stroke="#9a32cd" points="1180.2073,-435.082 1170.1086,-438.2862 1180.0012,-442.079 1180.2073,-435.082"/>
<text text-anchor="middle" x="1237.5" y="-444.5" font-family="Helvetica,sans-Serif" font-size="10.00" fill="#000000"> fFCN</text>
</g>
<!-- Node6 -->
<g id="node5" class="node">
<title>Node6</title>
<g id="a_node5"><a xlink:href="classROOT_1_1Minuit2_1_1GenericFunction.html" target="_top" xlink:title="Class from which all the other classes, representing functions, inherit. ">
<polygon fill="#ffffff" stroke="#000000" points="737,-427 737,-446 907,-446 907,-427 737,-427"/>
<text text-anchor="middle" x="822" y="-434" font-family="Helvetica,sans-Serif" font-size="10.00" fill="#000000">ROOT::Minuit2::GenericFunction</text>
</a>
</g>
</g>
<!-- Node6&#45;&gt;Node5 -->
<g id="edge4" class="edge">
<title>Node6&#45;&gt;Node5</title>
<path fill="none" stroke="#191970" d="M917.5169,-436.5C956.1083,-436.5 999.7468,-436.5 1034.9437,-436.5"/>
<polygon fill="#191970" stroke="#191970" points="917.3017,-433.0001 907.3017,-436.5 917.3017,-440.0001 917.3017,-433.0001"/>
</g>
<!-- Node7 -->
<g id="node6" class="node">
<title>Node7</title>
<g id="a_node6"><a xlink:href="classROOT_1_1Minuit2_1_1MnUserParameterState.html" target="_top" xlink:title="class which holds the external user and/or internal Minuit representation of the parameters and error...">
<polygon fill="#ffffff" stroke="#000000" points="1013,-303.5 1013,-333.5 1192,-333.5 1192,-303.5 1013,-303.5"/>
<text text-anchor="start" x="1021" y="-321.5" font-family="Helvetica,sans-Serif" font-size="10.00" fill="#000000">ROOT::Minuit2::MnUserParameter</text>
<text text-anchor="middle" x="1102.5" y="-310.5" font-family="Helvetica,sans-Serif" font-size="10.00" fill="#000000">State</text>
</a>
</g>
</g>
<!-- Node7&#45;&gt;Node3 -->
<g id="edge5" class="edge">
<title>Node7&#45;&gt;Node3</title>
<path fill="none" stroke="#9a32cd" stroke-dasharray="5,2" d="M1142.4101,-337.998C1199.4569,-365.8683 1302.1409,-416.0345 1344.9409,-436.9444"/>
<polygon fill="#9a32cd" stroke="#9a32cd" points="1143.8466,-334.8045 1133.3252,-333.5596 1140.7738,-341.0941 1143.8466,-334.8045"/>
<text text-anchor="middle" x="1237.5" y="-400.5" font-family="Helvetica,sans-Serif" font-size="10.00" fill="#000000"> fState</text>
</g>
<!-- Node24 -->
<g id="node23" class="node">
<title>Node24</title>
<g id="a_node23"><a xlink:href="classROOT_1_1Minuit2_1_1MnTraceObject.html" target="_top" xlink:title="ROOT::Minuit2::MnTraceObject">
<polygon fill="#ffffff" stroke="#000000" points="1283,-282 1283,-301 1446,-301 1446,-282 1283,-282"/>
<text text-anchor="middle" x="1364.5" y="-289" font-family="Helvetica,sans-Serif" font-size="10.00" fill="#000000">ROOT::Minuit2::MnTraceObject</text>
</a>
</g>
</g>
<!-- Node7&#45;&gt;Node24 -->
<g id="edge26" class="edge">
<title>Node7&#45;&gt;Node24</title>
<path fill="none" stroke="#9a32cd" stroke-dasharray="5,2" d="M1202.3749,-308.2075C1228.922,-305.4718 1257.2791,-302.5495 1282.7339,-299.9263"/>
<polygon fill="#9a32cd" stroke="#9a32cd" points="1201.8875,-304.7392 1192.299,-309.2459 1202.6051,-311.7023 1201.8875,-304.7392"/>
<text text-anchor="middle" x="1237.5" y="-310.5" font-family="Helvetica,sans-Serif" font-size="10.00" fill="#000000"> fUserState</text>
</g>
<!-- Node8 -->
<g id="node7" class="node">
<title>Node8</title>
<g id="a_node7"><a xlink:href="classROOT_1_1Minuit2_1_1MnUserCovariance.html" target="_top" xlink:title="Class containing the covariance matrix data represented as a vector of size n*(n+1)/2 Used to hide in...">
<polygon fill="#ffffff" stroke="#000000" points="525,-290 525,-309 708,-309 708,-290 525,-290"/>
<text text-anchor="middle" x="616.5" y="-297" font-family="Helvetica,sans-Serif" font-size="10.00" fill="#000000">ROOT::Minuit2::MnUserCovariance</text>
</a>
</g>
</g>
<!-- Node8&#45;&gt;Node7 -->
<g id="edge6" class="edge">
<title>Node8&#45;&gt;Node7</title>
<path fill="none" stroke="#9a32cd" stroke-dasharray="5,2" d="M718.5019,-301.4515C775.9435,-302.749 848.9891,-304.7297 914,-307.5 946.2604,-308.8747 981.6018,-310.82 1012.8773,-312.6933"/>
<polygon fill="#9a32cd" stroke="#9a32cd" points="718.4046,-297.9485 708.3291,-301.2251 718.2488,-304.9468 718.4046,-297.9485"/>
<text text-anchor="middle" x="822" y="-321.5" font-family="Helvetica,sans-Serif" font-size="10.00" fill="#000000"> fIntCovariance</text>
<text text-anchor="middle" x="822" y="-310.5" font-family="Helvetica,sans-Serif" font-size="10.00" fill="#000000">fCovariance</text>
</g>
<!-- Node9 -->
<g id="node8" class="node">
<title>Node9</title>
<polygon fill="#ffffff" stroke="#bfbfbf" points="28.5,-311 28.5,-330 152.5,-330 152.5,-311 28.5,-311"/>
<text text-anchor="middle" x="90.5" y="-318" font-family="Helvetica,sans-Serif" font-size="10.00" fill="#000000">std::vector&lt; double &gt;</text>
</g>
<!-- Node9&#45;&gt;Node7 -->
<g id="edge19" class="edge">
<title>Node9&#45;&gt;Node7</title>
<path fill="none" stroke="#9a32cd" stroke-dasharray="5,2" d="M162.754,-327.332C174.8459,-328.2346 187.2704,-329.0144 199,-329.5 516.5058,-342.6459 596.3572,-338.7602 914,-329.5 946.2759,-328.5591 981.6209,-326.7137 1012.895,-324.7992"/>
<polygon fill="#9a32cd" stroke="#9a32cd" points="162.9393,-323.836 152.6976,-326.5488 162.3956,-330.8148 162.9393,-323.836"/>
<text text-anchor="middle" x="616.5" y="-341.5" font-family="Helvetica,sans-Serif" font-size="10.00" fill="#000000"> fIntParameters</text>
</g>
<!-- Node9&#45;&gt;Node8 -->
<g id="edge7" class="edge">
<title>Node9&#45;&gt;Node8</title>
<path fill="none" stroke="#9a32cd" stroke-dasharray="5,2" d="M162.6598,-317.6191C256.9173,-313.856 422.0237,-307.2643 524.9782,-303.1539"/>
<polygon fill="#9a32cd" stroke="#9a32cd" points="162.4973,-314.1227 152.6449,-318.0189 162.7766,-321.1171 162.4973,-314.1227"/>
<text text-anchor="middle" x="241" y="-319.5" font-family="Helvetica,sans-Serif" font-size="10.00" fill="#000000"> fData</text>
</g>
<!-- Node11 -->
<g id="node10" class="node">
<title>Node11</title>
<g id="a_node10"><a xlink:href="classROOT_1_1Minuit2_1_1MnUserTransformation.html" target="_top" xlink:title="class dealing with the transformation between user specified parameters (external) and internal param...">
<polygon fill="#ffffff" stroke="#000000" points="301,-170 301,-189 503,-189 503,-170 301,-170"/>
<text text-anchor="middle" x="402" y="-177" font-family="Helvetica,sans-Serif" font-size="10.00" fill="#000000">ROOT::Minuit2::MnUserTransformation</text>
</a>
</g>
</g>
<!-- Node9&#45;&gt;Node11 -->
<g id="edge16" class="edge">
<title>Node9&#45;&gt;Node11</title>
<path fill="none" stroke="#9a32cd" stroke-dasharray="5,2" d="M128.7301,-307.3246C145.1697,-301.1443 164.3851,-293.2197 181,-284.5 189.5136,-280.032 190.251,-276.4874 199,-272.5 234.2219,-256.4474 247.3404,-264.5553 283,-249.5 323.4095,-232.4394 366.8552,-204 388.347,-189.1679"/>
<polygon fill="#9a32cd" stroke="#9a32cd" points="127.0786,-304.2026 118.9009,-310.9388 129.4944,-310.7726 127.0786,-304.2026"/>
<text text-anchor="middle" x="241" y="-275.5" font-family="Helvetica,sans-Serif" font-size="10.00" fill="#000000"> fCache</text>
</g>
<!-- Node18 -->
<g id="node17" class="node">
<title>Node18</title>
<g id="a_node17"><a xlink:href="classROOT_1_1Minuit2_1_1MnGlobalCorrelationCoeff.html" target="_top" xlink:title="class for global correlation coefficient ">
<polygon fill="#ffffff" stroke="#000000" points="521,-372.5 521,-402.5 712,-402.5 712,-372.5 521,-372.5"/>
<text text-anchor="start" x="529" y="-390.5" font-family="Helvetica,sans-Serif" font-size="10.00" fill="#000000">ROOT::Minuit2::MnGlobalCorrelation</text>
<text text-anchor="middle" x="616.5" y="-379.5" font-family="Helvetica,sans-Serif" font-size="10.00" fill="#000000">Coeff</text>
</a>
</g>
</g>
<!-- Node9&#45;&gt;Node18 -->
<g id="edge18" class="edge">
<title>Node9&#45;&gt;Node18</title>
<path fill="none" stroke="#9a32cd" stroke-dasharray="5,2" d="M122.4041,-333.805C143.7082,-342.0807 172.5646,-352.136 199,-357.5 307.7858,-379.5735 435.3922,-385.9862 520.6288,-387.5683"/>
<polygon fill="#9a32cd" stroke="#9a32cd" points="123.4762,-330.4651 112.8902,-330.0328 120.8961,-336.9722 123.4762,-330.4651"/>
<text text-anchor="middle" x="241" y="-374.5" font-family="Helvetica,sans-Serif" font-size="10.00" fill="#000000"> fGlobalCC</text>
</g>
<!-- Node10 -->
<g id="node9" class="node">
<title>Node10</title>
<g id="a_node9"><a xlink:href="classROOT_1_1Minuit2_1_1MnUserParameters.html" target="_top" xlink:title="API class for the user interaction with the parameters; serves as input to the minimizer as well as o...">
<polygon fill="#ffffff" stroke="#000000" points="730,-224 730,-243 914,-243 914,-224 730,-224"/>
<text text-anchor="middle" x="822" y="-231" font-family="Helvetica,sans-Serif" font-size="10.00" fill="#000000">ROOT::Minuit2::MnUserParameters</text>
</a>
</g>
</g>
<!-- Node10&#45;&gt;Node7 -->
<g id="edge8" class="edge">
<title>Node10&#45;&gt;Node7</title>
<path fill="none" stroke="#9a32cd" stroke-dasharray="5,2" d="M898.0131,-244.8791C928.5739,-250.483 963.8754,-258.2724 995,-268.5 1023.1585,-277.7529 1053.6523,-292.4166 1074.9448,-303.4763"/>
<polygon fill="#9a32cd" stroke="#9a32cd" points="898.3033,-241.3756 887.8435,-243.062 897.072,-248.2664 898.3033,-241.3756"/>
<text text-anchor="middle" x="963.5" y="-271.5" font-family="Helvetica,sans-Serif" font-size="10.00" fill="#000000"> fParameters</text>
</g>
<!-- Node11&#45;&gt;Node10 -->
<g id="edge9" class="edge">
<title>Node11&#45;&gt;Node10</title>
<path fill="none" stroke="#9a32cd" stroke-dasharray="5,2" d="M486.2138,-190.3275C562.7827,-200.1721 674.6803,-214.5589 747.915,-223.9748"/>
<polygon fill="#9a32cd" stroke="#9a32cd" points="486.4855,-186.8337 476.1208,-189.0298 485.5928,-193.7765 486.4855,-186.8337"/>
<text text-anchor="middle" x="616.5" y="-222.5" font-family="Helvetica,sans-Serif" font-size="10.00" fill="#000000"> fTransformation</text>
</g>
<!-- Node12 -->
<g id="node11" class="node">
<title>Node12</title>
<g id="a_node11"><a xlink:href="classROOT_1_1Minuit2_1_1SqrtLowParameterTransformation.html" target="_top" xlink:title="Transformation from external to internal Parameter based on sqrt(1 + x**2) ">
<polygon fill="#ffffff" stroke="#000000" points="0,-245.5 0,-275.5 181,-275.5 181,-245.5 0,-245.5"/>
<text text-anchor="start" x="8" y="-263.5" font-family="Helvetica,sans-Serif" font-size="10.00" fill="#000000">ROOT::Minuit2::SqrtLowParameter</text>
<text text-anchor="middle" x="90.5" y="-252.5" font-family="Helvetica,sans-Serif" font-size="10.00" fill="#000000">Transformation</text>
</a>
</g>
</g>
<!-- Node12&#45;&gt;Node11 -->
<g id="edge10" class="edge">
<title>Node12&#45;&gt;Node11</title>
<path fill="none" stroke="#9a32cd" stroke-dasharray="5,2" d="M169.9312,-243.1359C204.7568,-235.2128 246.0369,-225.4005 283,-215.5 313.6487,-207.2908 348.3368,-196.6392 372.3196,-189.0569"/>
<polygon fill="#9a32cd" stroke="#9a32cd" points="168.7977,-239.8038 159.8171,-245.4252 170.3431,-246.6311 168.7977,-239.8038"/>
<text text-anchor="middle" x="241" y="-238.5" font-family="Helvetica,sans-Serif" font-size="10.00" fill="#000000"> fLowerLimTrafo</text>
</g>
<!-- Node13 -->
<g id="node12" class="node">
<title>Node13</title>
<g id="a_node12"><a xlink:href="classROOT_1_1Minuit2_1_1SqrtUpParameterTransformation.html" target="_top" xlink:title="Transformation from external to internal Parameter based on sqrt(1 + x**2) ">
<polygon fill="#ffffff" stroke="#000000" points="3,-196.5 3,-226.5 178,-226.5 178,-196.5 3,-196.5"/>
<text text-anchor="start" x="11" y="-214.5" font-family="Helvetica,sans-Serif" font-size="10.00" fill="#000000">ROOT::Minuit2::SqrtUpParameter</text>
<text text-anchor="middle" x="90.5" y="-203.5" font-family="Helvetica,sans-Serif" font-size="10.00" fill="#000000">Transformation</text>
</a>
</g>
</g>
<!-- Node13&#45;&gt;Node11 -->
<g id="edge11" class="edge">
<title>Node13&#45;&gt;Node11</title>
<path fill="none" stroke="#9a32cd" stroke-dasharray="5,2" d="M188.3234,-201.4507C226.9892,-197.4786 271.2094,-192.936 309.3527,-189.0175"/>
<polygon fill="#9a32cd" stroke="#9a32cd" points="187.689,-197.9974 178.0991,-202.5011 188.4044,-204.9607 187.689,-197.9974"/>
<text text-anchor="middle" x="241" y="-203.5" font-family="Helvetica,sans-Serif" font-size="10.00" fill="#000000"> fUpperLimTrafo</text>
</g>
<!-- Node14 -->
<g id="node13" class="node">
<title>Node14</title>
<g id="a_node13"><a xlink:href="classROOT_1_1Minuit2_1_1MnMachinePrecision.html" target="_top" xlink:title="determines the relative floating point arithmetic precision. ">
<polygon fill="#ffffff" stroke="#000000" points="17.5,-147.5 17.5,-177.5 163.5,-177.5 163.5,-147.5 17.5,-147.5"/>
<text text-anchor="start" x="25.5" y="-165.5" font-family="Helvetica,sans-Serif" font-size="10.00" fill="#000000">ROOT::Minuit2::MnMachine</text>
<text text-anchor="middle" x="90.5" y="-154.5" font-family="Helvetica,sans-Serif" font-size="10.00" fill="#000000">Precision</text>
</a>
</g>
</g>
<!-- Node14&#45;&gt;Node11 -->
<g id="edge12" class="edge">
<title>Node14&#45;&gt;Node11</title>
<path fill="none" stroke="#9a32cd" stroke-dasharray="5,2" d="M173.9725,-165.3509C207.8258,-166.6682 247.2917,-168.4083 283,-170.5 288.7913,-170.8392 294.7394,-171.2119 300.7406,-171.6067"/>
<polygon fill="#9a32cd" stroke="#9a32cd" points="173.7835,-161.8411 163.6568,-164.9557 173.5155,-168.836 173.7835,-161.8411"/>
<text text-anchor="middle" x="241" y="-173.5" font-family="Helvetica,sans-Serif" font-size="10.00" fill="#000000"> fPrecision</text>
</g>
<!-- Node15 -->
<g id="node14" class="node">
<title>Node15</title>
<g id="a_node14"><a xlink:href="classROOT_1_1Minuit2_1_1SinParameterTransformation.html" target="_top" xlink:title="class for the transformation for double&#45;limited parameter Using a sin function one goes from a double...">
<polygon fill="#ffffff" stroke="#000000" points="12,-98.5 12,-128.5 169,-128.5 169,-98.5 12,-98.5"/>
<text text-anchor="start" x="20" y="-116.5" font-family="Helvetica,sans-Serif" font-size="10.00" fill="#000000">ROOT::Minuit2::SinParameter</text>
<text text-anchor="middle" x="90.5" y="-105.5" font-family="Helvetica,sans-Serif" font-size="10.00" fill="#000000">Transformation</text>
</a>
</g>
</g>
<!-- Node15&#45;&gt;Node11 -->
<g id="edge13" class="edge">
<title>Node15&#45;&gt;Node11</title>
<path fill="none" stroke="#9a32cd" stroke-dasharray="5,2" d="M177.0572,-130.5916C210.2285,-137.2582 248.4053,-145.072 283,-152.5 308.9945,-158.0814 338.1015,-164.6793 361.0219,-169.9557"/>
<polygon fill="#9a32cd" stroke="#9a32cd" points="177.4259,-127.0959 166.9329,-128.5612 176.0494,-133.9592 177.4259,-127.0959"/>
<text text-anchor="middle" x="241" y="-155.5" font-family="Helvetica,sans-Serif" font-size="10.00" fill="#000000"> fDoubleLimTrafo</text>
</g>
<!-- Node16 -->
<g id="node15" class="node">
<title>Node16</title>
<polygon fill="#ffffff" stroke="#bfbfbf" points="28.5,-49.5 28.5,-79.5 152.5,-79.5 152.5,-49.5 28.5,-49.5"/>
<text text-anchor="start" x="36.5" y="-67.5" font-family="Helvetica,sans-Serif" font-size="10.00" fill="#000000">std::vector&lt; unsigned</text>
<text text-anchor="middle" x="90.5" y="-56.5" font-family="Helvetica,sans-Serif" font-size="10.00" fill="#000000"> int &gt;</text>
</g>
<!-- Node16&#45;&gt;Node11 -->
<g id="edge14" class="edge">
<title>Node16&#45;&gt;Node11</title>
<path fill="none" stroke="#9a32cd" stroke-dasharray="5,2" d="M158.8564,-82.2092C166.3449,-84.2736 173.8437,-86.3951 181,-88.5 226.7106,-101.9449 238.809,-103.685 283,-121.5 319.8768,-136.3664 361.2572,-157.6274 384.2135,-169.8511"/>
<polygon fill="#9a32cd" stroke="#9a32cd" points="159.6161,-78.7886 149.0475,-79.5342 157.7743,-85.542 159.6161,-78.7886"/>
<text text-anchor="middle" x="241" y="-124.5" font-family="Helvetica,sans-Serif" font-size="10.00" fill="#000000"> fExtOfInt</text>
</g>
<!-- Node17 -->
<g id="node16" class="node">
<title>Node17</title>
<polygon fill="#ffffff" stroke="#bfbfbf" points="15.5,-.5 15.5,-30.5 165.5,-30.5 165.5,-.5 15.5,-.5"/>
<text text-anchor="start" x="23.5" y="-18.5" font-family="Helvetica,sans-Serif" font-size="10.00" fill="#000000">std::vector&lt; ROOT::</text>
<text text-anchor="middle" x="90.5" y="-7.5" font-family="Helvetica,sans-Serif" font-size="10.00" fill="#000000">Minuit2::MinuitParameter &gt;</text>
</g>
<!-- Node17&#45;&gt;Node11 -->
<g id="edge15" class="edge">
<title>Node17&#45;&gt;Node11</title>
<path fill="none" stroke="#9a32cd" stroke-dasharray="5,2" d="M161.0578,-33.3685C167.8281,-35.3357 174.5651,-37.3927 181,-39.5 227.2763,-54.6547 241.1417,-54.6194 283,-79.5 328.2346,-106.3875 373.6027,-150.3351 392.6552,-169.7523"/>
<polygon fill="#9a32cd" stroke="#9a32cd" points="161.7215,-29.9187 151.1458,-30.5551 159.8101,-36.6527 161.7215,-29.9187"/>
<text text-anchor="middle" x="241" y="-82.5" font-family="Helvetica,sans-Serif" font-size="10.00" fill="#000000"> fParameters</text>
</g>
<!-- Node18&#45;&gt;Node7 -->
<g id="edge17" class="edge">
<title>Node18&#45;&gt;Node7</title>
<path fill="none" stroke="#9a32cd" stroke-dasharray="5,2" d="M722.1543,-386.6987C798.6862,-384.291 904.2169,-377.1878 995,-357.5 1020.2231,-352.0299 1047.5504,-342.0583 1068.3405,-333.5677"/>
<polygon fill="#9a32cd" stroke="#9a32cd" points="721.9184,-383.204 712.0252,-386.9953 722.1234,-390.201 721.9184,-383.204"/>
<text text-anchor="middle" x="822" y="-389.5" font-family="Helvetica,sans-Serif" font-size="10.00" fill="#000000"> fGlobalCC</text>
</g>
<!-- Node19 -->
<g id="node18" class="node">
<title>Node19</title>
<g id="a_node18"><a xlink:href="classROOT_1_1Minuit2_1_1VariableMetricMinimizer.html" target="_top" xlink:title="Instantiates the SeedGenerator and MinimumBuilder for Variable Metric Minimization method...">
<polygon fill="#ffffff" stroke="#000000" points="2073,-390.5 2073,-420.5 2234,-420.5 2234,-390.5 2073,-390.5"/>
<text text-anchor="start" x="2081" y="-408.5" font-family="Helvetica,sans-Serif" font-size="10.00" fill="#000000">ROOT::Minuit2::VariableMetric</text>
<text text-anchor="middle" x="2153.5" y="-397.5" font-family="Helvetica,sans-Serif" font-size="10.00" fill="#000000">Minimizer</text>
</a>
</g>
</g>
<!-- Node19&#45;&gt;Node2 -->
<g id="edge20" class="edge">
<title>Node19&#45;&gt;Node2</title>
<path fill="none" stroke="#9a32cd" stroke-dasharray="5,2" d="M2244.3153,-418.689C2272.3997,-422.7676 2302.7781,-427.1794 2328.8167,-430.9609"/>
<polygon fill="#9a32cd" stroke="#9a32cd" points="2244.4838,-415.1768 2234.0846,-417.2032 2243.4777,-422.1041 2244.4838,-415.1768"/>
<text text-anchor="middle" x="2279.5" y="-429.5" font-family="Helvetica,sans-Serif" font-size="10.00" fill="#000000"> fMinimizer</text>
</g>
<!-- Node20 -->
<g id="node19" class="node">
<title>Node20</title>
<g id="a_node19"><a xlink:href="classROOT_1_1Minuit2_1_1ModularFunctionMinimizer.html" target="_top" xlink:title="Base common class providing the API for all the minimizer Various Minimize methods are provided varyi...">
<polygon fill="#ffffff" stroke="#000000" points="1794,-403.5 1794,-433.5 1965,-433.5 1965,-403.5 1794,-403.5"/>
<text text-anchor="start" x="1802" y="-421.5" font-family="Helvetica,sans-Serif" font-size="10.00" fill="#000000">ROOT::Minuit2::ModularFunction</text>
<text text-anchor="middle" x="1879.5" y="-410.5" font-family="Helvetica,sans-Serif" font-size="10.00" fill="#000000">Minimizer</text>
</a>
</g>
</g>
<!-- Node20&#45;&gt;Node19 -->
<g id="edge21" class="edge">
<title>Node20&#45;&gt;Node19</title>
<path fill="none" stroke="#191970" d="M1975.2775,-413.9558C2007.1069,-412.4457 2042.2098,-410.7802 2072.7852,-409.3295"/>
<polygon fill="#191970" stroke="#191970" points="1974.8911,-410.4701 1965.0682,-414.4402 1975.2229,-417.4622 1974.8911,-410.4701"/>
</g>
<!-- Node21 -->
<g id="node20" class="node">
<title>Node21</title>
<g id="a_node20"><a xlink:href="classROOT_1_1Minuit2_1_1FunctionMinimizer.html" target="_top" xlink:title="base class for function minimizers; user may give FCN or FCN with Gradient, Parameter starting values...">
<polygon fill="#ffffff" stroke="#000000" points="1519,-412 1519,-431 1699,-431 1699,-412 1519,-412"/>
<text text-anchor="middle" x="1609" y="-419" font-family="Helvetica,sans-Serif" font-size="10.00" fill="#000000">ROOT::Minuit2::FunctionMinimizer</text>
</a>
</g>
</g>
<!-- Node21&#45;&gt;Node20 -->
<g id="edge22" class="edge">
<title>Node21&#45;&gt;Node20</title>
<path fill="none" stroke="#191970" d="M1709.2234,-420.3885C1737.0626,-420.0797 1767.0282,-419.7474 1793.944,-419.4489"/>
<polygon fill="#191970" stroke="#191970" points="1709.0331,-416.8903 1699.0726,-420.501 1709.1108,-423.8898 1709.0331,-416.8903"/>
</g>
<!-- Node22 -->
<g id="node21" class="node">
<title>Node22</title>
<g id="a_node21"><a xlink:href="classROOT_1_1Minuit2_1_1VariableMetricBuilder.html" target="_top" xlink:title="Build (find) function minimum using the Variable Metric method (MIGRAD) Two possible error updators c...">
<polygon fill="#ffffff" stroke="#000000" points="1799,-313.5 1799,-343.5 1960,-343.5 1960,-313.5 1799,-313.5"/>
<text text-anchor="start" x="1807" y="-331.5" font-family="Helvetica,sans-Serif" font-size="10.00" fill="#000000">ROOT::Minuit2::VariableMetric</text>
<text text-anchor="middle" x="1879.5" y="-320.5" font-family="Helvetica,sans-Serif" font-size="10.00" fill="#000000">Builder</text>
</a>
</g>
</g>
<!-- Node22&#45;&gt;Node19 -->
<g id="edge23" class="edge">
<title>Node22&#45;&gt;Node19</title>
<path fill="none" stroke="#9a32cd" stroke-dasharray="5,2" d="M1954.3679,-345.9139C1985.6229,-353.5343 2022.2178,-362.9148 2055,-372.5 2073.5218,-377.9156 2093.7683,-384.5691 2111.062,-390.4797"/>
<polygon fill="#9a32cd" stroke="#9a32cd" points="1954.9624,-342.4567 1944.4194,-343.5035 1953.3141,-349.2599 1954.9624,-342.4567"/>
<text text-anchor="middle" x="2021" y="-375.5" font-family="Helvetica,sans-Serif" font-size="10.00" fill="#000000"> fMinBuilder</text>
</g>
<!-- Node23 -->
<g id="node22" class="node">
<title>Node23</title>
<g id="a_node22"><a xlink:href="classROOT_1_1Minuit2_1_1MinimumBuilder.html" target="_top" xlink:title="ROOT::Minuit2::MinimumBuilder">
<polygon fill="#ffffff" stroke="#000000" points="1523,-275 1523,-294 1695,-294 1695,-275 1523,-275"/>
<text text-anchor="middle" x="1609" y="-282" font-family="Helvetica,sans-Serif" font-size="10.00" fill="#000000">ROOT::Minuit2::MinimumBuilder</text>
</a>
</g>
</g>
<!-- Node23&#45;&gt;Node22 -->
<g id="edge24" class="edge">
<title>Node23&#45;&gt;Node22</title>
<path fill="none" stroke="#191970" d="M1677.8478,-295.6989C1714.7156,-301.6959 1760.3387,-309.117 1798.8591,-315.3828"/>
<polygon fill="#191970" stroke="#191970" points="1678.1267,-292.1983 1667.6945,-294.0473 1677.0028,-299.1075 1678.1267,-292.1983"/>
</g>
<!-- Node24&#45;&gt;Node23 -->
<g id="edge25" class="edge">
<title>Node24&#45;&gt;Node23</title>
<path fill="none" stroke="#9a32cd" stroke-dasharray="5,2" d="M1456.4593,-288.8672C1478.1777,-288.2454 1501.2574,-287.5847 1522.7145,-286.9703"/>
<polygon fill="#9a32cd" stroke="#9a32cd" points="1456.1506,-285.3745 1446.2549,-289.1594 1456.351,-292.3717 1456.1506,-285.3745"/>
<text text-anchor="middle" x="1482.5" y="-292.5" font-family="Helvetica,sans-Serif" font-size="10.00" fill="#000000"> fTracer</text>
</g>
<!-- Node25 -->
<g id="node24" class="node">
<title>Node25</title>
<g id="a_node24"><a xlink:href="classROOT_1_1Minuit2_1_1VariableMetricEDMEstimator.html" target="_top" xlink:title="ROOT::Minuit2::VariableMetric\lEDMEstimator">
<polygon fill="#ffffff" stroke="#000000" points="1528.5,-313.5 1528.5,-343.5 1689.5,-343.5 1689.5,-313.5 1528.5,-313.5"/>
<text text-anchor="start" x="1536.5" y="-331.5" font-family="Helvetica,sans-Serif" font-size="10.00" fill="#000000">ROOT::Minuit2::VariableMetric</text>
<text text-anchor="middle" x="1609" y="-320.5" font-family="Helvetica,sans-Serif" font-size="10.00" fill="#000000">EDMEstimator</text>
</a>
</g>
</g>
<!-- Node25&#45;&gt;Node22 -->
<g id="edge27" class="edge">
<title>Node25&#45;&gt;Node22</title>
<path fill="none" stroke="#9a32cd" stroke-dasharray="5,2" d="M1700.023,-328.5C1731.9657,-328.5 1767.6067,-328.5 1798.6567,-328.5"/>
<polygon fill="#9a32cd" stroke="#9a32cd" points="1699.7926,-325.0001 1689.7925,-328.5 1699.7925,-332.0001 1699.7926,-325.0001"/>
<text text-anchor="middle" x="1744.5" y="-331.5" font-family="Helvetica,sans-Serif" font-size="10.00" fill="#000000"> fEstimator</text>
</g>
<!-- Node26 -->
<g id="node25" class="node">
<title>Node26</title>
<g id="a_node25"><a xlink:href="classROOT_1_1Minuit2_1_1MnSeedGenerator.html" target="_top" xlink:title="concrete implementation of the MinimumSeedGenerator interface; used within ModularFunctionMinimizer; ...">
<polygon fill="#ffffff" stroke="#000000" points="1790,-365 1790,-384 1969,-384 1969,-365 1790,-365"/>
<text text-anchor="middle" x="1879.5" y="-372" font-family="Helvetica,sans-Serif" font-size="10.00" fill="#000000">ROOT::Minuit2::MnSeedGenerator</text>
</a>
</g>
</g>
<!-- Node26&#45;&gt;Node19 -->
<g id="edge28" class="edge">
<title>Node26&#45;&gt;Node19</title>
<path fill="none" stroke="#9a32cd" stroke-dasharray="5,2" d="M1973.8998,-385.1803C2006.1219,-388.8258 2041.8355,-392.8664 2072.8733,-396.378"/>
<polygon fill="#9a32cd" stroke="#9a32cd" points="1973.9012,-381.6582 1963.5711,-384.0117 1973.1142,-388.6138 1973.9012,-381.6582"/>
<text text-anchor="middle" x="2021" y="-396.5" font-family="Helvetica,sans-Serif" font-size="10.00" fill="#000000"> fMinSeedGen</text>
</g>
<!-- Node27 -->
<g id="node26" class="node">
<title>Node27</title>
<g id="a_node26"><a xlink:href="classROOT_1_1Minuit2_1_1MinimumSeedGenerator.html" target="_top" xlink:title="base class for seed generators (starting values); the seed generator prepares initial starting values...">
<polygon fill="#ffffff" stroke="#000000" points="1528.5,-362.5 1528.5,-392.5 1689.5,-392.5 1689.5,-362.5 1528.5,-362.5"/>
<text text-anchor="start" x="1536.5" y="-380.5" font-family="Helvetica,sans-Serif" font-size="10.00" fill="#000000">ROOT::Minuit2::MinimumSeed</text>
<text text-anchor="middle" x="1609" y="-369.5" font-family="Helvetica,sans-Serif" font-size="10.00" fill="#000000">Generator</text>
</a>
</g>
</g>
<!-- Node27&#45;&gt;Node26 -->
<g id="edge29" class="edge">
<title>Node27&#45;&gt;Node26</title>
<path fill="none" stroke="#191970" d="M1699.8898,-376.492C1728.8241,-376.1711 1760.8044,-375.8164 1789.6638,-375.4963"/>
<polygon fill="#191970" stroke="#191970" points="1699.7531,-372.9932 1689.7925,-376.604 1699.8308,-379.9928 1699.7531,-372.9932"/>
</g>
</g>
</svg>
