<?xml version="1.0" encoding="UTF-8" standalone="no"?>
<!DOCTYPE svg PUBLIC "-//W3C//DTD SVG 1.1//EN"
 "http://www.w3.org/Graphics/SVG/1.1/DTD/svg11.dtd">
<!-- Generated by graphviz version 2.40.1 (0)
 -->
<!-- Title: TMVA::HyperParameterOptimisationResult Pages: 1 -->
<svg width="772pt" height="276pt"
 viewBox="0.00 0.00 772.00 275.50" xmlns="http://www.w3.org/2000/svg" xmlns:xlink="http://www.w3.org/1999/xlink">
<g id="graph0" class="graph" transform="scale(1 1) rotate(0) translate(4 271.5)">
<title>TMVA::HyperParameterOptimisationResult</title>
<polygon fill="#ffffff" stroke="transparent" points="-4,4 -4,-271.5 768,-271.5 768,4 -4,4"/>
<!-- Node1 -->
<g id="node1" class="node">
<title>Node1</title>
<polygon fill="#bfbfbf" stroke="#000000" points="572,-132 572,-162 764,-162 764,-132 572,-132"/>
<text text-anchor="start" x="580" y="-150" font-family="Helvetica,sans-Serif" font-size="10.00" fill="#000000">TMVA::HyperParameterOptimisation</text>
<text text-anchor="middle" x="668" y="-139" font-family="Helvetica,sans-Serif" font-size="10.00" fill="#000000">Result</text>
</g>
<!-- Node2 -->
<g id="node2" class="node">
<title>Node2</title>
<polygon fill="#ffffff" stroke="#bfbfbf" points="319,-237 319,-267 453,-267 453,-237 319,-237"/>
<text text-anchor="start" x="327" y="-255" font-family="Helvetica,sans-Serif" font-size="10.00" fill="#000000">std::vector&lt; std::map</text>
<text text-anchor="middle" x="386" y="-244" font-family="Helvetica,sans-Serif" font-size="10.00" fill="#000000">&lt; TString, Double_t &gt; &gt;</text>
</g>
<!-- Node2&#45;&gt;Node1 -->
<g id="edge1" class="edge">
<title>Node2&#45;&gt;Node1</title>
<path fill="none" stroke="#9a32cd" stroke-dasharray="5,2" d="M463.3831,-240.3467C492.418,-234.5869 525.3137,-226.3682 554,-215 588.7072,-201.2458 625.1396,-177.6685 647.2152,-162.2084"/>
<polygon fill="#9a32cd" stroke="#9a32cd" points="462.4492,-236.9619 453.2873,-242.2825 463.7675,-243.8366 462.4492,-236.9619"/>
<text text-anchor="middle" x="512.5" y="-241" font-family="Helvetica,sans-Serif" font-size="10.00" fill="#000000"> fFoldParameters</text>
</g>
<!-- Node3 -->
<g id="node3" class="node">
<title>Node3</title>
<polygon fill="#ffffff" stroke="#bfbfbf" points="324,-198.5 324,-217.5 448,-217.5 448,-198.5 324,-198.5"/>
<text text-anchor="middle" x="386" y="-205.5" font-family="Helvetica,sans-Serif" font-size="10.00" fill="#000000">std::vector&lt; Float_t &gt;</text>
</g>
<!-- Node3&#45;&gt;Node1 -->
<g id="edge2" class="edge">
<title>Node3&#45;&gt;Node1</title>
<path fill="none" stroke="#9a32cd" stroke-dasharray="5,2" d="M458.6844,-201.6825C488.4678,-198.2673 523.1269,-193.2261 554,-186 579.9684,-179.9219 608.3476,-170.2242 630.2947,-162.02"/>
<polygon fill="#9a32cd" stroke="#9a32cd" points="457.9219,-198.2454 448.3673,-202.8236 458.6914,-205.203 457.9219,-198.2454"/>
<text text-anchor="middle" x="512.5" y="-203" font-family="Helvetica,sans-Serif" font-size="10.00" fill="#000000"> fROCs</text>
</g>
<!-- Node4 -->
<g id="node4" class="node">
<title>Node4</title>
<polygon fill="#ffffff" stroke="#bfbfbf" points="319,-76.5 319,-95.5 453,-95.5 453,-76.5 319,-76.5"/>
<text text-anchor="middle" x="386" y="-83.5" font-family="Helvetica,sans-Serif" font-size="10.00" fill="#000000">std::vector&lt; Double_t &gt;</text>
</g>
<!-- Node4&#45;&gt;Node1 -->
<g id="edge3" class="edge">
<title>Node4&#45;&gt;Node1</title>
<path fill="none" stroke="#9a32cd" stroke-dasharray="5,2" d="M463.2553,-75.9146C492.1399,-74.4017 524.9674,-75.4078 554,-83 590.0125,-92.4175 626.6697,-116.0344 648.3659,-131.7929"/>
<polygon fill="#9a32cd" stroke="#9a32cd" points="462.9754,-72.4252 453.2157,-76.5481 463.4163,-79.4113 462.9754,-72.4252"/>
<text text-anchor="middle" x="512.5" y="-174" font-family="Helvetica,sans-Serif" font-size="10.00" fill="#000000"> fSigs</text>
<text text-anchor="middle" x="512.5" y="-163" font-family="Helvetica,sans-Serif" font-size="10.00" fill="#000000">fTrainEff10s</text>
<text text-anchor="middle" x="512.5" y="-152" font-family="Helvetica,sans-Serif" font-size="10.00" fill="#000000">fTrainEff30s</text>
<text text-anchor="middle" x="512.5" y="-141" font-family="Helvetica,sans-Serif" font-size="10.00" fill="#000000">fSeps</text>
<text text-anchor="middle" x="512.5" y="-130" font-family="Helvetica,sans-Serif" font-size="10.00" fill="#000000">fEff10s</text>
<text text-anchor="middle" x="512.5" y="-119" font-family="Helvetica,sans-Serif" font-size="10.00" fill="#000000">fEff30s</text>
<text text-anchor="middle" x="512.5" y="-108" font-family="Helvetica,sans-Serif" font-size="10.00" fill="#000000">fEff01s</text>
<text text-anchor="middle" x="512.5" y="-97" font-family="Helvetica,sans-Serif" font-size="10.00" fill="#000000">fEffAreas</text>
<text text-anchor="middle" x="512.5" y="-86" font-family="Helvetica,sans-Serif" font-size="10.00" fill="#000000">fTrainEff01s</text>
</g>
<!-- Node5 -->
<g id="node5" class="node">
<title>Node5</title>
<g id="a_node5"><a xlink:href="classTString.html" target="_top" xlink:title="Basic string class. ">
<polygon fill="#ffffff" stroke="#000000" points="360.5,-38.5 360.5,-57.5 411.5,-57.5 411.5,-38.5 360.5,-38.5"/>
<text text-anchor="middle" x="386" y="-45.5" font-family="Helvetica,sans-Serif" font-size="10.00" fill="#000000">TString</text>
</a>
</g>
</g>
<!-- Node5&#45;&gt;Node1 -->
<g id="edge4" class="edge">
<title>Node5&#45;&gt;Node1</title>
<path fill="none" stroke="#9a32cd" stroke-dasharray="5,2" d="M421.9182,-44.7487C456.8244,-42.9143 510.7483,-43.6415 554,-60 595.2176,-75.5892 633.9359,-111.2112 653.9071,-131.712"/>
<polygon fill="#9a32cd" stroke="#9a32cd" points="421.4908,-41.2685 411.7287,-45.3858 421.9277,-48.2549 421.4908,-41.2685"/>
<text text-anchor="middle" x="512.5" y="-63" font-family="Helvetica,sans-Serif" font-size="10.00" fill="#000000"> fMethodName</text>
</g>
<!-- Node6 -->
<g id="node6" class="node">
<title>Node6</title>
<g id="a_node6"><a xlink:href="structTString_1_1Rep__t.html" target="_top" xlink:title="TString::Rep_t">
<polygon fill="#ffffff" stroke="#000000" points="174,-38.5 174,-57.5 258,-57.5 258,-38.5 174,-38.5"/>
<text text-anchor="middle" x="216" y="-45.5" font-family="Helvetica,sans-Serif" font-size="10.00" fill="#000000">TString::Rep_t</text>
</a>
</g>
</g>
<!-- Node6&#45;&gt;Node5 -->
<g id="edge5" class="edge">
<title>Node6&#45;&gt;Node5</title>
<path fill="none" stroke="#9a32cd" stroke-dasharray="5,2" d="M268.1029,-48C298.6693,-48 335.9471,-48 360.2932,-48"/>
<polygon fill="#9a32cd" stroke="#9a32cd" points="268.0225,-44.5001 258.0225,-48 268.0224,-51.5001 268.0225,-44.5001"/>
<text text-anchor="middle" x="288.5" y="-51" font-family="Helvetica,sans-Serif" font-size="10.00" fill="#000000"> fRep</text>
</g>
<!-- Node7 -->
<g id="node7" class="node">
<title>Node7</title>
<g id="a_node7"><a xlink:href="structTString_1_1LongStr__t.html" target="_top" xlink:title="TString::LongStr_t">
<polygon fill="#ffffff" stroke="#000000" points="1,-76.5 1,-95.5 104,-95.5 104,-76.5 1,-76.5"/>
<text text-anchor="middle" x="52.5" y="-83.5" font-family="Helvetica,sans-Serif" font-size="10.00" fill="#000000">TString::LongStr_t</text>
</a>
</g>
</g>
<!-- Node7&#45;&gt;Node6 -->
<g id="edge6" class="edge">
<title>Node7&#45;&gt;Node6</title>
<path fill="none" stroke="#9a32cd" stroke-dasharray="5,2" d="M106.8123,-74.2124C122.687,-70.6909 140.0552,-66.764 156,-63 163.315,-61.2732 171.1157,-59.3692 178.5896,-57.514"/>
<polygon fill="#9a32cd" stroke="#9a32cd" points="105.6358,-70.8878 96.626,-76.4622 107.1456,-77.7231 105.6358,-70.8878"/>
<text text-anchor="middle" x="139.5" y="-73" font-family="Helvetica,sans-Serif" font-size="10.00" fill="#000000"> fLong</text>
</g>
<!-- Node8 -->
<g id="node8" class="node">
<title>Node8</title>
<g id="a_node8"><a xlink:href="structTString_1_1RawStr__t.html" target="_top" xlink:title="TString::RawStr_t">
<polygon fill="#ffffff" stroke="#000000" points="2,-38.5 2,-57.5 103,-57.5 103,-38.5 2,-38.5"/>
<text text-anchor="middle" x="52.5" y="-45.5" font-family="Helvetica,sans-Serif" font-size="10.00" fill="#000000">TString::RawStr_t</text>
</a>
</g>
</g>
<!-- Node8&#45;&gt;Node6 -->
<g id="edge7" class="edge">
<title>Node8&#45;&gt;Node6</title>
<path fill="none" stroke="#9a32cd" stroke-dasharray="5,2" d="M113.38,-48C133.5543,-48 155.5459,-48 173.9777,-48"/>
<polygon fill="#9a32cd" stroke="#9a32cd" points="113.3362,-44.5001 103.3362,-48 113.3361,-51.5001 113.3362,-44.5001"/>
<text text-anchor="middle" x="139.5" y="-51" font-family="Helvetica,sans-Serif" font-size="10.00" fill="#000000"> fRaw</text>
</g>
<!-- Node9 -->
<g id="node9" class="node">
<title>Node9</title>
<g id="a_node9"><a xlink:href="structTString_1_1ShortStr__t.html" target="_top" xlink:title="TString::ShortStr_t">
<polygon fill="#ffffff" stroke="#000000" points="0,-.5 0,-19.5 105,-19.5 105,-.5 0,-.5"/>
<text text-anchor="middle" x="52.5" y="-7.5" font-family="Helvetica,sans-Serif" font-size="10.00" fill="#000000">TString::ShortStr_t</text>
</a>
</g>
</g>
<!-- Node9&#45;&gt;Node6 -->
<g id="edge8" class="edge">
<title>Node9&#45;&gt;Node6</title>
<path fill="none" stroke="#9a32cd" stroke-dasharray="5,2" d="M106.8123,-21.7876C122.687,-25.3091 140.0552,-29.236 156,-33 163.315,-34.7268 171.1157,-36.6308 178.5896,-38.486"/>
<polygon fill="#9a32cd" stroke="#9a32cd" points="107.1456,-18.2769 96.626,-19.5378 105.6358,-25.1122 107.1456,-18.2769"/>
<text text-anchor="middle" x="139.5" y="-36" font-family="Helvetica,sans-Serif" font-size="10.00" fill="#000000"> fShort</text>
</g>
</g>
</svg>
