<?xml version="1.0" encoding="UTF-8" standalone="no"?>
<!DOCTYPE svg PUBLIC "-//W3C//DTD SVG 1.1//EN"
 "http://www.w3.org/Graphics/SVG/1.1/DTD/svg11.dtd">
<!-- Generated by graphviz version 2.40.1 (0)
 -->
<!-- Title: ROOT::RDF::RArrowDS Pages: 1 -->
<svg width="405pt" height="225pt"
 viewBox="0.00 0.00 405.00 225.00" xmlns="http://www.w3.org/2000/svg" xmlns:xlink="http://www.w3.org/1999/xlink">
<g id="graph0" class="graph" transform="scale(1 1) rotate(0) translate(4 221)">
<title>ROOT::RDF::RArrowDS</title>
<polygon fill="#ffffff" stroke="transparent" points="-4,4 -4,-221 401,-221 401,4 -4,4"/>
<!-- Node2 -->
<g id="node1" class="node">
<title>Node2</title>
<polygon fill="#bfbfbf" stroke="#000000" points="275,-104.5 275,-123.5 397,-123.5 397,-104.5 275,-104.5"/>
<text text-anchor="middle" x="336" y="-111.5" font-family="Helvetica,sans-Serif" font-size="10.00" fill="#000000">ROOT::RDF::RArrowDS</text>
</g>
<!-- Node3 -->
<g id="node2" class="node">
<title>Node3</title>
<g id="a_node2"><a xlink:href="classROOT_1_1RDF_1_1RDataSource.html" target="_top" xlink:title=" RDataSource defines an API that RDataFrame can use to read arbitrary data formats. ">
<polygon fill="#ffffff" stroke="#000000" points="11.5,-197.5 11.5,-216.5 148.5,-216.5 148.5,-197.5 11.5,-197.5"/>
<text text-anchor="middle" x="80" y="-204.5" font-family="Helvetica,sans-Serif" font-size="10.00" fill="#000000">ROOT::RDF::RDataSource</text>
</a>
</g>
</g>
<!-- Node3&#45;&gt;Node2 -->
<g id="edge1" class="edge">
<title>Node3&#45;&gt;Node2</title>
<path fill="none" stroke="#191970" d="M132.6934,-195.0882C141.829,-192.8512 151.213,-190.4438 160,-188 203.6043,-175.8732 215.3825,-174.787 257,-157 279.8307,-147.2424 304.7762,-133.018 320.4024,-123.6395"/>
<polygon fill="#191970" stroke="#191970" points="131.8204,-191.6983 122.9178,-197.4423 133.4593,-198.5037 131.8204,-191.6983"/>
</g>
<!-- Node4 -->
<g id="node3" class="node">
<title>Node4</title>
<polygon fill="#ffffff" stroke="#bfbfbf" points="0,-148 0,-178 160,-178 160,-148 0,-148"/>
<text text-anchor="start" x="8" y="-166" font-family="Helvetica,sans-Serif" font-size="10.00" fill="#000000">std::vector&lt; std::pair</text>
<text text-anchor="middle" x="80" y="-155" font-family="Helvetica,sans-Serif" font-size="10.00" fill="#000000">&lt; ULong64_t, ULong64_t &gt; &gt;</text>
</g>
<!-- Node4&#45;&gt;Node2 -->
<g id="edge2" class="edge">
<title>Node4&#45;&gt;Node2</title>
<path fill="none" stroke="#9a32cd" stroke-dasharray="5,2" d="M168.4373,-146.0726C207.8454,-138.5296 252.8022,-129.9246 286.2213,-123.528"/>
<polygon fill="#9a32cd" stroke="#9a32cd" points="167.7119,-142.6478 158.5482,-147.9654 169.0279,-149.523 167.7119,-142.6478"/>
<text text-anchor="middle" x="217.5" y="-145" font-family="Helvetica,sans-Serif" font-size="10.00" fill="#000000"> fEntryRanges</text>
</g>
<!-- Node5 -->
<g id="node4" class="node">
<title>Node5</title>
<polygon fill="#ffffff" stroke="#bfbfbf" points="20.5,-99 20.5,-129 139.5,-129 139.5,-99 20.5,-99"/>
<text text-anchor="start" x="28.5" y="-117" font-family="Helvetica,sans-Serif" font-size="10.00" fill="#000000">std::vector&lt; std::pair</text>
<text text-anchor="middle" x="80" y="-106" font-family="Helvetica,sans-Serif" font-size="10.00" fill="#000000">&lt; size_t, size_t &gt; &gt;</text>
</g>
<!-- Node5&#45;&gt;Node2 -->
<g id="edge3" class="edge">
<title>Node5&#45;&gt;Node2</title>
<path fill="none" stroke="#9a32cd" stroke-dasharray="5,2" d="M149.9443,-114C189.0386,-114 237.3003,-114 274.8729,-114"/>
<polygon fill="#9a32cd" stroke="#9a32cd" points="149.6976,-110.5001 139.6975,-114 149.6975,-117.5001 149.6976,-110.5001"/>
<text text-anchor="middle" x="217.5" y="-117" font-family="Helvetica,sans-Serif" font-size="10.00" fill="#000000"> fGetterIndex</text>
</g>
<!-- Node6 -->
<g id="node5" class="node">
<title>Node6</title>
<polygon fill="#ffffff" stroke="#bfbfbf" points="8.5,-38.5 8.5,-79.5 151.5,-79.5 151.5,-38.5 8.5,-38.5"/>
<text text-anchor="start" x="16.5" y="-67.5" font-family="Helvetica,sans-Serif" font-size="10.00" fill="#000000">std::vector&lt; std::unique</text>
<text text-anchor="start" x="16.5" y="-56.5" font-family="Helvetica,sans-Serif" font-size="10.00" fill="#000000">_ptr&lt; ROOT::Internal::RDF</text>
<text text-anchor="middle" x="80" y="-45.5" font-family="Helvetica,sans-Serif" font-size="10.00" fill="#000000">::TValueGetter &gt; &gt;</text>
</g>
<!-- Node6&#45;&gt;Node2 -->
<g id="edge4" class="edge">
<title>Node6&#45;&gt;Node2</title>
<path fill="none" stroke="#9a32cd" stroke-dasharray="5,2" d="M161.5698,-76.5248C204.6981,-85.7906 255.9613,-96.8042 291.7096,-104.4845"/>
<polygon fill="#9a32cd" stroke="#9a32cd" points="162.1628,-73.0724 151.6507,-74.3937 160.6924,-79.9162 162.1628,-73.0724"/>
<text text-anchor="middle" x="217.5" y="-99" font-family="Helvetica,sans-Serif" font-size="10.00" fill="#000000"> fValueGetters</text>
</g>
<!-- Node7 -->
<g id="node6" class="node">
<title>Node7</title>
<polygon fill="#ffffff" stroke="#bfbfbf" points="10,-.5 10,-19.5 150,-19.5 150,-.5 10,-.5"/>
<text text-anchor="middle" x="80" y="-7.5" font-family="Helvetica,sans-Serif" font-size="10.00" fill="#000000">std::vector&lt; std::string &gt;</text>
</g>
<!-- Node7&#45;&gt;Node2 -->
<g id="edge5" class="edge">
<title>Node7&#45;&gt;Node2</title>
<path fill="none" stroke="#9a32cd" stroke-dasharray="5,2" d="M134.6292,-21.9617C143.1714,-24.1229 151.8613,-26.4931 160,-29 204.0966,-42.5824 215.5574,-45.7146 257,-66 280.6395,-77.5711 306.4125,-94.0159 321.8838,-104.3413"/>
<polygon fill="#9a32cd" stroke="#9a32cd" points="135.2574,-18.512 124.7111,-19.5249 133.5872,-25.3098 135.2574,-18.512"/>
<text text-anchor="middle" x="217.5" y="-69" font-family="Helvetica,sans-Serif" font-size="10.00" fill="#000000"> fColumnNames</text>
</g>
</g>
</svg>
