<?xml version="1.0" encoding="UTF-8" standalone="no"?>
<!DOCTYPE svg PUBLIC "-//W3C//DTD SVG 1.1//EN"
 "http://www.w3.org/Graphics/SVG/1.1/DTD/svg11.dtd">
<!-- Generated by graphviz version 2.40.1 (0)
 -->
<!-- Title: ROOT::Fit::FitData Pages: 1 -->
<svg width="547pt" height="165pt"
 viewBox="0.00 0.00 547.00 165.00" xmlns="http://www.w3.org/2000/svg" xmlns:xlink="http://www.w3.org/1999/xlink">
<g id="graph0" class="graph" transform="scale(1 1) rotate(0) translate(4 161)">
<title>ROOT::Fit::FitData</title>
<polygon fill="#ffffff" stroke="transparent" points="-4,4 -4,-161 543,-161 543,4 -4,4"/>
<!-- Node4 -->
<g id="node1" class="node">
<title>Node4</title>
<polygon fill="#bfbfbf" stroke="#000000" points="438,-71 438,-90 539,-90 539,-71 438,-71"/>
<text text-anchor="middle" x="488.5" y="-78" font-family="Helvetica,sans-Serif" font-size="10.00" fill="#000000">ROOT::Fit::FitData</text>
</g>
<!-- Node5 -->
<g id="node2" class="node">
<title>Node5</title>
<polygon fill="#ffffff" stroke="#bfbfbf" points="228.5,-126.5 228.5,-156.5 334.5,-156.5 334.5,-126.5 228.5,-126.5"/>
<text text-anchor="start" x="236.5" y="-144.5" font-family="Helvetica,sans-Serif" font-size="10.00" fill="#000000">std::vector&lt; const</text>
<text text-anchor="middle" x="281.5" y="-133.5" font-family="Helvetica,sans-Serif" font-size="10.00" fill="#000000"> double * &gt;</text>
</g>
<!-- Node5&#45;&gt;Node4 -->
<g id="edge1" class="edge">
<title>Node5&#45;&gt;Node4</title>
<path fill="none" stroke="#9a32cd" stroke-dasharray="5,2" d="M344.7308,-126.4198C368.4765,-120.4022 395.614,-113.1002 420,-105.5 434.7452,-100.9045 450.9936,-95.0113 463.9635,-90.1009"/>
<polygon fill="#9a32cd" stroke="#9a32cd" points="343.6269,-123.0882 334.7797,-128.9172 345.3309,-129.8776 343.6269,-123.0882"/>
<text text-anchor="middle" x="392.5" y="-123.5" font-family="Helvetica,sans-Serif" font-size="10.00" fill="#000000"> fCoordsPtr</text>
</g>
<!-- Node6 -->
<g id="node3" class="node">
<title>Node6</title>
<g id="a_node3"><a xlink:href="structROOT_1_1Fit_1_1DataOptions.html" target="_top" xlink:title="DataOptions : simple structure holding the options on how the data are filled. ">
<polygon fill="#ffffff" stroke="#000000" points="217.5,-88 217.5,-107 345.5,-107 345.5,-88 217.5,-88"/>
<text text-anchor="middle" x="281.5" y="-95" font-family="Helvetica,sans-Serif" font-size="10.00" fill="#000000">ROOT::Fit::DataOptions</text>
</a>
</g>
</g>
<!-- Node6&#45;&gt;Node4 -->
<g id="edge2" class="edge">
<title>Node6&#45;&gt;Node4</title>
<path fill="none" stroke="#9a32cd" stroke-dasharray="5,2" d="M355.8449,-91.3944C383.0514,-89.16 413.1845,-86.6853 437.8466,-84.6599"/>
<polygon fill="#9a32cd" stroke="#9a32cd" points="355.2584,-87.9307 345.5785,-92.2375 355.8314,-94.9072 355.2584,-87.9307"/>
<text text-anchor="middle" x="392.5" y="-93.5" font-family="Helvetica,sans-Serif" font-size="10.00" fill="#000000"> fOptions</text>
</g>
<!-- Node7 -->
<g id="node4" class="node">
<title>Node7</title>
<g id="a_node4"><a xlink:href="classROOT_1_1Fit_1_1DataRange.html" target="_top" xlink:title="class describing the range in the coordinates it supports multiple range in a coordinate. ">
<polygon fill="#ffffff" stroke="#000000" points="221,-50 221,-69 342,-69 342,-50 221,-50"/>
<text text-anchor="middle" x="281.5" y="-57" font-family="Helvetica,sans-Serif" font-size="10.00" fill="#000000">ROOT::Fit::DataRange</text>
</a>
</g>
</g>
<!-- Node7&#45;&gt;Node4 -->
<g id="edge3" class="edge">
<title>Node7&#45;&gt;Node4</title>
<path fill="none" stroke="#9a32cd" stroke-dasharray="5,2" d="M352.3945,-64.2298C374.1164,-65.9212 398.0661,-68.0307 420,-70.5 425.7326,-71.1454 431.7237,-71.9003 437.6748,-72.701"/>
<polygon fill="#9a32cd" stroke="#9a32cd" points="352.4956,-60.7274 342.2587,-63.4579 351.964,-67.7072 352.4956,-60.7274"/>
<text text-anchor="middle" x="392.5" y="-73.5" font-family="Helvetica,sans-Serif" font-size="10.00" fill="#000000"> fRange</text>
</g>
<!-- Node8 -->
<g id="node5" class="node">
<title>Node8</title>
<polygon fill="#ffffff" stroke="#bfbfbf" points="0,-50 0,-69 137,-69 137,-50 0,-50"/>
<text text-anchor="middle" x="68.5" y="-57" font-family="Helvetica,sans-Serif" font-size="10.00" fill="#000000">std::vector&lt; RangeSet &gt;</text>
</g>
<!-- Node8&#45;&gt;Node7 -->
<g id="edge4" class="edge">
<title>Node8&#45;&gt;Node7</title>
<path fill="none" stroke="#9a32cd" stroke-dasharray="5,2" d="M147.3505,-59.5C171.6788,-59.5 198.0752,-59.5 220.9658,-59.5"/>
<polygon fill="#9a32cd" stroke="#9a32cd" points="147.067,-56.0001 137.067,-59.5 147.067,-63.0001 147.067,-56.0001"/>
<text text-anchor="middle" x="176.5" y="-62.5" font-family="Helvetica,sans-Serif" font-size="10.00" fill="#000000"> fRanges</text>
</g>
<!-- Node9 -->
<g id="node6" class="node">
<title>Node9</title>
<polygon fill="#ffffff" stroke="#bfbfbf" points="216,-.5 216,-30.5 347,-30.5 347,-.5 216,-.5"/>
<text text-anchor="start" x="224" y="-18.5" font-family="Helvetica,sans-Serif" font-size="10.00" fill="#000000">std::vector&lt; std::vector</text>
<text text-anchor="middle" x="281.5" y="-7.5" font-family="Helvetica,sans-Serif" font-size="10.00" fill="#000000">&lt; double &gt; &gt;</text>
</g>
<!-- Node9&#45;&gt;Node4 -->
<g id="edge5" class="edge">
<title>Node9&#45;&gt;Node4</title>
<path fill="none" stroke="#9a32cd" stroke-dasharray="5,2" d="M357.0328,-31.374C377.6747,-36.4318 399.8905,-42.5479 420,-49.5 437.3952,-55.5138 456.4087,-64.3072 469.9808,-70.9939"/>
<polygon fill="#9a32cd" stroke="#9a32cd" points="357.5828,-27.9067 347.0421,-28.977 355.9496,-34.7135 357.5828,-27.9067"/>
<text text-anchor="middle" x="392.5" y="-52.5" font-family="Helvetica,sans-Serif" font-size="10.00" fill="#000000"> fCoords</text>
</g>
</g>
</svg>
