<?xml version="1.0" encoding="UTF-8" standalone="no"?>
<!DOCTYPE svg PUBLIC "-//W3C//DTD SVG 1.1//EN"
 "http://www.w3.org/Graphics/SVG/1.1/DTD/svg11.dtd">
<!-- Generated by graphviz version 2.40.1 (0)
 -->
<!-- Title: TCurlyArc Pages: 1 -->
<svg width="234pt" height="196pt"
 viewBox="0.00 0.00 233.50 196.00" xmlns="http://www.w3.org/2000/svg" xmlns:xlink="http://www.w3.org/1999/xlink">
<g id="graph0" class="graph" transform="scale(1 1) rotate(0) translate(4 192)">
<title>TCurlyArc</title>
<polygon fill="#ffffff" stroke="transparent" points="-4,4 -4,-192 229.5,-192 229.5,4 -4,4"/>
<!-- Node0 -->
<g id="node1" class="node">
<title>Node0</title>
<polygon fill="#bfbfbf" stroke="#000000" points="112.5,-.5 112.5,-19.5 175.5,-19.5 175.5,-.5 112.5,-.5"/>
<text text-anchor="middle" x="144" y="-7.5" font-family="Helvetica,sans-Serif" font-size="10.00" fill="#000000">TCurlyArc</text>
</g>
<!-- Node1 -->
<g id="node2" class="node">
<title>Node1</title>
<g id="a_node2"><a xlink:href="classTCurlyLine.html" target="_top" xlink:title="Implements curly or wavy polylines used to draw Feynman diagrams. ">
<polygon fill="#ffffff" stroke="#000000" points="110,-56.5 110,-75.5 178,-75.5 178,-56.5 110,-56.5"/>
<text text-anchor="middle" x="144" y="-63.5" font-family="Helvetica,sans-Serif" font-size="10.00" fill="#000000">TCurlyLine</text>
</a>
</g>
</g>
<!-- Node1&#45;&gt;Node0 -->
<g id="edge1" class="edge">
<title>Node1&#45;&gt;Node0</title>
<path fill="none" stroke="#191970" d="M144,-46.1575C144,-37.155 144,-26.9199 144,-19.6427"/>
<polygon fill="#191970" stroke="#191970" points="140.5001,-46.2455 144,-56.2455 147.5001,-46.2456 140.5001,-46.2455"/>
</g>
<!-- Node2 -->
<g id="node3" class="node">
<title>Node2</title>
<g id="a_node3"><a xlink:href="classTPolyLine.html" target="_top" xlink:title="Defined by an array on N points in a 2&#45;D space. ">
<polygon fill="#ffffff" stroke="#000000" points="68,-112.5 68,-131.5 132,-131.5 132,-112.5 68,-112.5"/>
<text text-anchor="middle" x="100" y="-119.5" font-family="Helvetica,sans-Serif" font-size="10.00" fill="#000000">TPolyLine</text>
</a>
</g>
</g>
<!-- Node2&#45;&gt;Node1 -->
<g id="edge2" class="edge">
<title>Node2&#45;&gt;Node1</title>
<path fill="none" stroke="#191970" d="M113.9769,-104.2112C121.4129,-94.7472 130.266,-83.4797 136.4236,-75.6427"/>
<polygon fill="#191970" stroke="#191970" points="111.0903,-102.22 107.6642,-112.2455 116.5946,-106.5447 111.0903,-102.22"/>
</g>
<!-- Node3 -->
<g id="node4" class="node">
<title>Node3</title>
<g id="a_node4"><a xlink:href="classTObject.html" target="_top" xlink:title="Mother of all ROOT objects. ">
<polygon fill="#ffffff" stroke="#000000" points="0,-168.5 0,-187.5 54,-187.5 54,-168.5 0,-168.5"/>
<text text-anchor="middle" x="27" y="-175.5" font-family="Helvetica,sans-Serif" font-size="10.00" fill="#000000">TObject</text>
</a>
</g>
</g>
<!-- Node3&#45;&gt;Node2 -->
<g id="edge3" class="edge">
<title>Node3&#45;&gt;Node2</title>
<path fill="none" stroke="#191970" d="M47.951,-161.928C60.7107,-152.1397 76.5885,-139.9595 87.4301,-131.6427"/>
<polygon fill="#191970" stroke="#191970" points="45.5196,-159.3819 39.7156,-168.2455 49.7803,-164.9359 45.5196,-159.3819"/>
</g>
<!-- Node4 -->
<g id="node5" class="node">
<title>Node4</title>
<g id="a_node5"><a xlink:href="classTAttLine.html" target="_top" xlink:title="Line Attributes class. ">
<polygon fill="#ffffff" stroke="#000000" points="72,-168.5 72,-187.5 128,-187.5 128,-168.5 72,-168.5"/>
<text text-anchor="middle" x="100" y="-175.5" font-family="Helvetica,sans-Serif" font-size="10.00" fill="#000000">TAttLine</text>
</a>
</g>
</g>
<!-- Node4&#45;&gt;Node2 -->
<g id="edge4" class="edge">
<title>Node4&#45;&gt;Node2</title>
<path fill="none" stroke="#191970" d="M100,-158.1575C100,-149.155 100,-138.9199 100,-131.6427"/>
<polygon fill="#191970" stroke="#191970" points="96.5001,-158.2455 100,-168.2455 103.5001,-158.2456 96.5001,-158.2455"/>
</g>
<!-- Node5 -->
<g id="node6" class="node">
<title>Node5</title>
<g id="a_node6"><a xlink:href="classTAttFill.html" target="_top" xlink:title="Fill Area Attributes class. ">
<polygon fill="#ffffff" stroke="#000000" points="146,-168.5 146,-187.5 196,-187.5 196,-168.5 146,-168.5"/>
<text text-anchor="middle" x="171" y="-175.5" font-family="Helvetica,sans-Serif" font-size="10.00" fill="#000000">TAttFill</text>
</a>
</g>
</g>
<!-- Node5&#45;&gt;Node2 -->
<g id="edge5" class="edge">
<title>Node5&#45;&gt;Node2</title>
<path fill="none" stroke="#191970" d="M150.623,-161.928C138.2129,-152.1397 122.77,-139.9595 112.2255,-131.6427"/>
<polygon fill="#191970" stroke="#191970" points="148.6136,-164.8007 158.6327,-168.2455 152.9486,-159.3046 148.6136,-164.8007"/>
</g>
<!-- Node6 -->
<g id="node7" class="node">
<title>Node6</title>
<g id="a_node7"><a xlink:href="classTAttBBox2D.html" target="_top" xlink:title="Abstract base class for elements drawn in the editor. ">
<polygon fill="#ffffff" stroke="#000000" points="150.5,-112.5 150.5,-131.5 225.5,-131.5 225.5,-112.5 150.5,-112.5"/>
<text text-anchor="middle" x="188" y="-119.5" font-family="Helvetica,sans-Serif" font-size="10.00" fill="#000000">TAttBBox2D</text>
</a>
</g>
</g>
<!-- Node6&#45;&gt;Node1 -->
<g id="edge6" class="edge">
<title>Node6&#45;&gt;Node1</title>
<path fill="none" stroke="#191970" d="M174.0231,-104.2112C166.5871,-94.7472 157.734,-83.4797 151.5764,-75.6427"/>
<polygon fill="#191970" stroke="#191970" points="171.4054,-106.5447 180.3358,-112.2455 176.9097,-102.22 171.4054,-106.5447"/>
</g>
</g>
</svg>
