<?xml version="1.0" encoding="UTF-8" standalone="no"?>
<!DOCTYPE svg PUBLIC "-//W3C//DTD SVG 1.1//EN"
 "http://www.w3.org/Graphics/SVG/1.1/DTD/svg11.dtd">
<!-- Generated by graphviz version 2.40.1 (0)
 -->
<!-- Title: ROOT::Detail::TBranchProxy Pages: 1 -->
<!--zoomable 228 -->
<svg id="main" version="1.1" xmlns="http://www.w3.org/2000/svg" xmlns:xlink="http://www.w3.org/1999/xlink" xml:space="preserve" onload="init(evt)">
<style type="text/css"><![CDATA[
.edge:hover path { stroke: red; }
.edge:hover polygon { stroke: red; fill: red; }
]]></style>
<script type="text/javascript"><![CDATA[
var edges = document.getElementsByTagName('g');
if (edges && edges.length) {
  for (var i=0;i<edges.length;i++) {
    if (edges[i].id.substr(0,4)=='edge') {
      edges[i].setAttribute('class','edge');
    }
  }
}
]]></script>
        <defs>
                <circle id="rim" cx="0" cy="0" r="7"/>
                <circle id="rim2" cx="0" cy="0" r="3.5"/>
                <g id="zoomPlus">
                        <use xlink:href="#rim" fill="#404040">
                                <set attributeName="fill" to="#808080" begin="zoomplus.mouseover" end="zoomplus.mouseout"/>
                        </use>
                        <path d="M-4,0h8M0,-4v8" fill="none" stroke="white" stroke-width="1.5" pointer-events="none"/>
                </g>
                <g id="zoomMin">
                        <use xlink:href="#rim" fill="#404040">
                                <set attributeName="fill" to="#808080" begin="zoomminus.mouseover" end="zoomminus.mouseout"/>
                        </use>
                        <path d="M-4,0h8" fill="none" stroke="white" stroke-width="1.5" pointer-events="none"/>
                </g>
                <g id="dirArrow">
                        <path fill="none" stroke="white" stroke-width="1.5" d="M0,-3.0v7 M-2.5,-0.5L0,-3.0L2.5,-0.5"/>
                </g>
               <g id="resetDef">
                       <use xlink:href="#rim2" fill="#404040">
                               <set attributeName="fill" to="#808080" begin="reset.mouseover" end="reset.mouseout"/>
                       </use>
               </g>
        </defs>

<script type="text/javascript">
var viewWidth = 602;
var viewHeight = 228;
var sectionId = 'dynsection-0';
</script>
<script xlink:href="svgpan.js"/>
<svg id="graph" class="graph">
<g id="viewport">
<title>ROOT::Detail::TBranchProxy</title>
<polygon fill="#ffffff" stroke="transparent" points="-4,4 -4,-223.5 598,-223.5 598,4 -4,4"/>
<!-- Node0 -->
<g id="node1" class="node">
<title>Node0</title>
<polygon fill="#bfbfbf" stroke="#000000" points="0,-112.5 0,-131.5 152,-131.5 152,-112.5 0,-112.5"/>
<text text-anchor="middle" x="76" y="-119.5" font-family="Helvetica,sans-Serif" font-size="10.00" fill="#000000">ROOT::Detail::TBranchProxy</text>
</g>
<!-- Node1 -->
<g id="node2" class="node">
<title>Node1</title>
<g id="a_node2"><a xlink:href="classROOT_1_1Internal_1_1TArrayCharProxy.html" target="_top" xlink:title="ROOT::Internal::TArrayChar\lProxy">
<polygon fill="#ffffff" stroke="#000000" points="205,-189 205,-219 352,-219 352,-189 205,-189"/>
<text text-anchor="start" x="213" y="-207" font-family="Helvetica,sans-Serif" font-size="10.00" fill="#000000">ROOT::Internal::TArrayChar</text>
<text text-anchor="middle" x="278.5" y="-196" font-family="Helvetica,sans-Serif" font-size="10.00" fill="#000000">Proxy</text>
</a>
</g>
</g>
<!-- Node0&#45;&gt;Node1 -->
<g id="edge1" class="edge">
<title>Node0&#45;&gt;Node1</title>
<path fill="none" stroke="#191970" d="M101.0172,-136.5768C123.2847,-149.0993 157.0321,-166.9836 188,-179 197.4217,-182.6559 207.5881,-186.0073 217.5857,-188.9874"/>
<polygon fill="#191970" stroke="#191970" points="102.641,-133.4739 92.2185,-131.5711 99.1796,-139.5582 102.641,-133.4739"/>
</g>
<!-- Node2 -->
<g id="node3" class="node">
<title>Node2</title>
<g id="a_node3"><a xlink:href="classROOT_1_1Internal_1_1TArrayProxy.html" target="_top" xlink:title="ROOT::Internal::TArrayProxy\&lt; T \&gt;">
<polygon fill="#ffffff" stroke="#000000" points="188,-150.5 188,-169.5 369,-169.5 369,-150.5 188,-150.5"/>
<text text-anchor="middle" x="278.5" y="-157.5" font-family="Helvetica,sans-Serif" font-size="10.00" fill="#000000">ROOT::Internal::TArrayProxy&lt; T &gt;</text>
</a>
</g>
</g>
<!-- Node0&#45;&gt;Node2 -->
<g id="edge2" class="edge">
<title>Node0&#45;&gt;Node2</title>
<path fill="none" stroke="#191970" d="M136.8466,-133.4181C165.8207,-138.8552 200.0752,-145.2832 227.6412,-150.4561"/>
<polygon fill="#191970" stroke="#191970" points="137.3119,-129.9444 126.8379,-131.54 136.0208,-136.8243 137.3119,-129.9444"/>
</g>
<!-- Node3 -->
<g id="node4" class="node">
<title>Node3</title>
<g id="a_node4"><a xlink:href="classROOT_1_1Internal_1_1TClaProxy.html" target="_top" xlink:title="ROOT::Internal::TClaProxy">
<polygon fill="#ffffff" stroke="#000000" points="207.5,-112.5 207.5,-131.5 349.5,-131.5 349.5,-112.5 207.5,-112.5"/>
<text text-anchor="middle" x="278.5" y="-119.5" font-family="Helvetica,sans-Serif" font-size="10.00" fill="#000000">ROOT::Internal::TClaProxy</text>
</a>
</g>
</g>
<!-- Node0&#45;&gt;Node3 -->
<g id="edge3" class="edge">
<title>Node0&#45;&gt;Node3</title>
<path fill="none" stroke="#191970" d="M162.5241,-122C177.4631,-122 192.839,-122 207.3135,-122"/>
<polygon fill="#191970" stroke="#191970" points="162.2681,-118.5001 152.268,-122 162.268,-125.5001 162.2681,-118.5001"/>
</g>
<!-- Node6 -->
<g id="node7" class="node">
<title>Node6</title>
<g id="a_node7"><a xlink:href="classROOT_1_1Internal_1_1TImpProxy.html" target="_top" xlink:title="ROOT::Internal::TImpProxy\&lt; T \&gt;">
<polygon fill="#ffffff" stroke="#000000" points="191.5,-74.5 191.5,-93.5 365.5,-93.5 365.5,-74.5 191.5,-74.5"/>
<text text-anchor="middle" x="278.5" y="-81.5" font-family="Helvetica,sans-Serif" font-size="10.00" fill="#000000">ROOT::Internal::TImpProxy&lt; T &gt;</text>
</a>
</g>
</g>
<!-- Node0&#45;&gt;Node6 -->
<g id="edge6" class="edge">
<title>Node0&#45;&gt;Node6</title>
<path fill="none" stroke="#191970" d="M136.8466,-110.5819C165.8207,-105.1448 200.0752,-98.7168 227.6412,-93.5439"/>
<polygon fill="#191970" stroke="#191970" points="136.0208,-107.1757 126.8379,-112.46 137.3119,-114.0556 136.0208,-107.1757"/>
</g>
<!-- Node7 -->
<g id="node8" class="node">
<title>Node7</title>
<g id="a_node8"><a xlink:href="classROOT_1_1Internal_1_1TStlProxy.html" target="_top" xlink:title="ROOT::Internal::TStlProxy">
<polygon fill="#ffffff" stroke="#000000" points="208.5,-36.5 208.5,-55.5 348.5,-55.5 348.5,-36.5 208.5,-36.5"/>
<text text-anchor="middle" x="278.5" y="-43.5" font-family="Helvetica,sans-Serif" font-size="10.00" fill="#000000">ROOT::Internal::TStlProxy</text>
</a>
</g>
</g>
<!-- Node0&#45;&gt;Node7 -->
<g id="edge7" class="edge">
<title>Node0&#45;&gt;Node7</title>
<path fill="none" stroke="#191970" d="M100.4587,-107.1636C122.6051,-94.3186 156.4913,-76.1051 188,-65 198.599,-61.2644 210.1682,-58.1511 221.3845,-55.5992"/>
<polygon fill="#191970" stroke="#191970" points="98.5694,-104.2143 91.7273,-112.3036 102.1205,-110.2467 98.5694,-104.2143"/>
</g>
<!-- Node4 -->
<g id="node5" class="node">
<title>Node4</title>
<g id="a_node5"><a xlink:href="classROOT_1_1Internal_1_1TClaArrayProxy.html" target="_top" xlink:title="ROOT::Internal::TClaArray\lProxy\&lt; T \&gt;">
<polygon fill="#ffffff" stroke="#000000" points="429.5,-143 429.5,-173 569.5,-173 569.5,-143 429.5,-143"/>
<text text-anchor="start" x="437.5" y="-161" font-family="Helvetica,sans-Serif" font-size="10.00" fill="#000000">ROOT::Internal::TClaArray</text>
<text text-anchor="middle" x="499.5" y="-150" font-family="Helvetica,sans-Serif" font-size="10.00" fill="#000000">Proxy&lt; T &gt;</text>
</a>
</g>
</g>
<!-- Node3&#45;&gt;Node4 -->
<g id="edge4" class="edge">
<title>Node3&#45;&gt;Node4</title>
<path fill="none" stroke="#191970" d="M347.0636,-133.1687C373.2321,-137.4315 403.0851,-142.2944 429.3951,-146.5802"/>
<polygon fill="#191970" stroke="#191970" points="347.2869,-129.659 336.8542,-131.5057 346.1614,-136.568 347.2869,-129.659"/>
</g>
<!-- Node5 -->
<g id="node6" class="node">
<title>Node5</title>
<g id="a_node6"><a xlink:href="classROOT_1_1Internal_1_1TClaImpProxy.html" target="_top" xlink:title="ROOT::Internal::TClaImpProxy\&lt; T \&gt;">
<polygon fill="#ffffff" stroke="#000000" points="405,-104.5 405,-123.5 594,-123.5 594,-104.5 405,-104.5"/>
<text text-anchor="middle" x="499.5" y="-111.5" font-family="Helvetica,sans-Serif" font-size="10.00" fill="#000000">ROOT::Internal::TClaImpProxy&lt; T &gt;</text>
</a>
</g>
</g>
<!-- Node3&#45;&gt;Node5 -->
<g id="edge5" class="edge">
<title>Node3&#45;&gt;Node5</title>
<path fill="none" stroke="#191970" d="M359.6547,-119.0623C374.3085,-118.5318 389.7047,-117.9745 404.7066,-117.4314"/>
<polygon fill="#191970" stroke="#191970" points="359.5091,-115.5652 349.6423,-119.4247 359.7624,-122.5606 359.5091,-115.5652"/>
</g>
<!-- Node8 -->
<g id="node9" class="node">
<title>Node8</title>
<g id="a_node9"><a xlink:href="classROOT_1_1Internal_1_1TStlArrayProxy.html" target="_top" xlink:title="ROOT::Internal::TStlArray\lProxy\&lt; T \&gt;">
<polygon fill="#ffffff" stroke="#000000" points="430.5,-39 430.5,-69 568.5,-69 568.5,-39 430.5,-39"/>
<text text-anchor="start" x="438.5" y="-57" font-family="Helvetica,sans-Serif" font-size="10.00" fill="#000000">ROOT::Internal::TStlArray</text>
<text text-anchor="middle" x="499.5" y="-46" font-family="Helvetica,sans-Serif" font-size="10.00" fill="#000000">Proxy&lt; T &gt;</text>
</a>
</g>
</g>
<!-- Node7&#45;&gt;Node8 -->
<g id="edge8" class="edge">
<title>Node7&#45;&gt;Node8</title>
<path fill="none" stroke="#191970" d="M358.9555,-48.9124C382.3105,-49.7578 407.6034,-50.6734 430.2102,-51.4918"/>
<polygon fill="#191970" stroke="#191970" points="358.8495,-45.4064 348.7294,-48.5422 358.5962,-52.4018 358.8495,-45.4064"/>
</g>
<!-- Node9 -->
<g id="node10" class="node">
<title>Node9</title>
<g id="a_node10"><a xlink:href="classROOT_1_1Internal_1_1TStlImpProxy.html" target="_top" xlink:title="ROOT::Internal::TStlImpProxy\&lt; T \&gt;">
<polygon fill="#ffffff" stroke="#000000" points="406,-.5 406,-19.5 593,-19.5 593,-.5 406,-.5"/>
<text text-anchor="middle" x="499.5" y="-7.5" font-family="Helvetica,sans-Serif" font-size="10.00" fill="#000000">ROOT::Internal::TStlImpProxy&lt; T &gt;</text>
</a>
</g>
</g>
<!-- Node7&#45;&gt;Node9 -->
<g id="edge9" class="edge">
<title>Node7&#45;&gt;Node9</title>
<path fill="none" stroke="#191970" d="M346.854,-34.8654C376.9419,-29.9642 411.9335,-24.2642 440.8184,-19.559"/>
<polygon fill="#191970" stroke="#191970" points="346.1614,-31.432 336.8542,-36.4943 347.2869,-38.341 346.1614,-31.432"/>
</g>
</g>
</svg>
        <g id="navigator" transform="translate(0 0)" fill="#404254">
                <rect fill="#f2f5e9" fill-opacity="0.5" stroke="#606060" stroke-width=".5" x="0" y="0" width="60" height="60"/>
                <use id="zoomplus" xlink:href="#zoomPlus" x="17" y="9" onmousedown="handleZoom(evt,'in')"/>
                <use id="zoomminus" xlink:href="#zoomMin" x="42" y="9" onmousedown="handleZoom(evt,'out')"/>
                <use id="reset" xlink:href="#resetDef" x="30" y="36" onmousedown="handleReset()"/>
                <g id="arrowUp" xlink:href="#dirArrow" transform="translate(30 24)" onmousedown="handlePan(0,-1)">
                  <use xlink:href="#rim" fill="#404040">
                        <set attributeName="fill" to="#808080" begin="arrowUp.mouseover" end="arrowUp.mouseout"/>
                  </use>
                  <path fill="none" stroke="white" stroke-width="1.5" d="M0,-3.0v7 M-2.5,-0.5L0,-3.0L2.5,-0.5"/>
                </g>
                <g id="arrowRight" xlink:href="#dirArrow" transform="rotate(90) translate(36 -43)" onmousedown="handlePan(1,0)">
                  <use xlink:href="#rim" fill="#404040">
                        <set attributeName="fill" to="#808080" begin="arrowRight.mouseover" end="arrowRight.mouseout"/>
                  </use>
                  <path fill="none" stroke="white" stroke-width="1.5" d="M0,-3.0v7 M-2.5,-0.5L0,-3.0L2.5,-0.5"/>
                </g>
                <g id="arrowDown" xlink:href="#dirArrow" transform="rotate(180) translate(-30 -48)" onmousedown="handlePan(0,1)">
                  <use xlink:href="#rim" fill="#404040">
                        <set attributeName="fill" to="#808080" begin="arrowDown.mouseover" end="arrowDown.mouseout"/>
                  </use>
                  <path fill="none" stroke="white" stroke-width="1.5" d="M0,-3.0v7 M-2.5,-0.5L0,-3.0L2.5,-0.5"/>
                </g>
                <g id="arrowLeft" xlink:href="#dirArrow" transform="rotate(270) translate(-36 17)" onmousedown="handlePan(-1,0)">
                  <use xlink:href="#rim" fill="#404040">
                        <set attributeName="fill" to="#808080" begin="arrowLeft.mouseover" end="arrowLeft.mouseout"/>
                  </use>
                  <path fill="none" stroke="white" stroke-width="1.5" d="M0,-3.0v7 M-2.5,-0.5L0,-3.0L2.5,-0.5"/>
                </g>
        </g>
        <svg viewBox="0 0 15 15" width="100%" height="30px" preserveAspectRatio="xMaxYMin meet">
         <g id="arrow_out" transform="scale(0.3 0.3)">
          <a xlink:href="classROOT_1_1Detail_1_1TBranchProxy__inherit__graph_org.svg" target="_base">
           <rect id="button" ry="5" rx="5" y="6" x="6" height="38" width="38"
                fill="#f2f5e9" fill-opacity="0.5" stroke="#606060" stroke-width="1.0"/>
           <path id="arrow"
             d="M 11.500037,31.436501 C 11.940474,20.09759 22.043105,11.32322 32.158766,21.979434 L 37.068811,17.246167 C 37.068811,17.246167 37.088388,32 37.088388,32 L 22.160133,31.978069 C 22.160133,31.978069 26.997745,27.140456 26.997745,27.140456 C 18.528582,18.264221 13.291696,25.230495 11.500037,31.436501 z"
             style="fill:#404040;"/>
          </a>
         </g>
        </svg>
</svg>
