<?xml version="1.0" encoding="UTF-8" standalone="no"?>
<!DOCTYPE svg PUBLIC "-//W3C//DTD SVG 1.1//EN"
 "http://www.w3.org/Graphics/SVG/1.1/DTD/svg11.dtd">
<!-- Generated by graphviz version 2.40.1 (0)
 -->
<!-- Title: TMarker Pages: 1 -->
<svg width="244pt" height="84pt"
 viewBox="0.00 0.00 243.50 84.00" xmlns="http://www.w3.org/2000/svg" xmlns:xlink="http://www.w3.org/1999/xlink">
<g id="graph0" class="graph" transform="scale(1 1) rotate(0) translate(4 80)">
<title>TMarker</title>
<polygon fill="#ffffff" stroke="transparent" points="-4,4 -4,-80 239.5,-80 239.5,4 -4,4"/>
<!-- Node0 -->
<g id="node1" class="node">
<title>Node0</title>
<polygon fill="#bfbfbf" stroke="#000000" points="79,-.5 79,-19.5 135,-19.5 135,-.5 79,-.5"/>
<text text-anchor="middle" x="107" y="-7.5" font-family="Helvetica,sans-Serif" font-size="10.00" fill="#000000">TMarker</text>
</g>
<!-- Node1 -->
<g id="node2" class="node">
<title>Node1</title>
<g id="a_node2"><a xlink:href="classTObject.html" target="_top" xlink:title="Mother of all ROOT objects. ">
<polygon fill="#ffffff" stroke="#000000" points="0,-56.5 0,-75.5 54,-75.5 54,-56.5 0,-56.5"/>
<text text-anchor="middle" x="27" y="-63.5" font-family="Helvetica,sans-Serif" font-size="10.00" fill="#000000">TObject</text>
</a>
</g>
</g>
<!-- Node1&#45;&gt;Node0 -->
<g id="edge1" class="edge">
<title>Node1&#45;&gt;Node0</title>
<path fill="none" stroke="#191970" d="M49.1571,-50.49C63.272,-40.6096 81.1151,-28.1194 93.2248,-19.6427"/>
<polygon fill="#191970" stroke="#191970" points="47.1201,-47.6436 40.9349,-56.2455 51.1344,-53.3782 47.1201,-47.6436"/>
</g>
<!-- Node2 -->
<g id="node3" class="node">
<title>Node2</title>
<g id="a_node3"><a xlink:href="classTAttMarker.html" target="_top" xlink:title="Marker Attributes class. ">
<polygon fill="#ffffff" stroke="#000000" points="72,-56.5 72,-75.5 142,-75.5 142,-56.5 72,-56.5"/>
<text text-anchor="middle" x="107" y="-63.5" font-family="Helvetica,sans-Serif" font-size="10.00" fill="#000000">TAttMarker</text>
</a>
</g>
</g>
<!-- Node2&#45;&gt;Node0 -->
<g id="edge2" class="edge">
<title>Node2&#45;&gt;Node0</title>
<path fill="none" stroke="#191970" d="M107,-46.1575C107,-37.155 107,-26.9199 107,-19.6427"/>
<polygon fill="#191970" stroke="#191970" points="103.5001,-46.2455 107,-56.2455 110.5001,-46.2456 103.5001,-46.2455"/>
</g>
<!-- Node3 -->
<g id="node4" class="node">
<title>Node3</title>
<g id="a_node4"><a xlink:href="classTAttBBox2D.html" target="_top" xlink:title="Abstract base class for elements drawn in the editor. ">
<polygon fill="#ffffff" stroke="#000000" points="160.5,-56.5 160.5,-75.5 235.5,-75.5 235.5,-56.5 160.5,-56.5"/>
<text text-anchor="middle" x="198" y="-63.5" font-family="Helvetica,sans-Serif" font-size="10.00" fill="#000000">TAttBBox2D</text>
</a>
</g>
</g>
<!-- Node3&#45;&gt;Node0 -->
<g id="edge3" class="edge">
<title>Node3&#45;&gt;Node0</title>
<path fill="none" stroke="#191970" d="M173.2496,-50.769C157.1242,-40.8456 136.574,-28.1994 122.6693,-19.6427"/>
<polygon fill="#191970" stroke="#191970" points="171.7981,-53.9853 182.149,-56.2455 175.4668,-48.0237 171.7981,-53.9853"/>
</g>
</g>
</svg>
