<?xml version="1.0" encoding="UTF-8" standalone="no"?>
<!DOCTYPE svg PUBLIC "-//W3C//DTD SVG 1.1//EN"
 "http://www.w3.org/Graphics/SVG/1.1/DTD/svg11.dtd">
<!-- Generated by graphviz version 2.40.1 (0)
 -->
<!-- Title: TMVA::kNN::ModulekNN Pages: 1 -->
<!--zoomable 260 -->
<svg id="main" version="1.1" xmlns="http://www.w3.org/2000/svg" xmlns:xlink="http://www.w3.org/1999/xlink" xml:space="preserve" onload="init(evt)">
<style type="text/css"><![CDATA[
.edge:hover path { stroke: red; }
.edge:hover polygon { stroke: red; fill: red; }
]]></style>
<script type="text/javascript"><![CDATA[
var edges = document.getElementsByTagName('g');
if (edges && edges.length) {
  for (var i=0;i<edges.length;i++) {
    if (edges[i].id.substr(0,4)=='edge') {
      edges[i].setAttribute('class','edge');
    }
  }
}
]]></script>
        <defs>
                <circle id="rim" cx="0" cy="0" r="7"/>
                <circle id="rim2" cx="0" cy="0" r="3.5"/>
                <g id="zoomPlus">
                        <use xlink:href="#rim" fill="#404040">
                                <set attributeName="fill" to="#808080" begin="zoomplus.mouseover" end="zoomplus.mouseout"/>
                        </use>
                        <path d="M-4,0h8M0,-4v8" fill="none" stroke="white" stroke-width="1.5" pointer-events="none"/>
                </g>
                <g id="zoomMin">
                        <use xlink:href="#rim" fill="#404040">
                                <set attributeName="fill" to="#808080" begin="zoomminus.mouseover" end="zoomminus.mouseout"/>
                        </use>
                        <path d="M-4,0h8" fill="none" stroke="white" stroke-width="1.5" pointer-events="none"/>
                </g>
                <g id="dirArrow">
                        <path fill="none" stroke="white" stroke-width="1.5" d="M0,-3.0v7 M-2.5,-0.5L0,-3.0L2.5,-0.5"/>
                </g>
               <g id="resetDef">
                       <use xlink:href="#rim2" fill="#404040">
                               <set attributeName="fill" to="#808080" begin="reset.mouseover" end="reset.mouseout"/>
                       </use>
               </g>
        </defs>

<script type="text/javascript">
var viewWidth = 1201;
var viewHeight = 260;
var sectionId = 'dynsection-0';
</script>
<script xlink:href="svgpan.js"/>
<svg id="graph" class="graph">
<g id="viewport">
<title>TMVA::kNN::ModulekNN</title>
<polygon fill="#ffffff" stroke="transparent" points="-4,4 -4,-256 1197,-256 1197,4 -4,4"/>
<!-- Node1 -->
<g id="node1" class="node">
<title>Node1</title>
<polygon fill="#bfbfbf" stroke="#000000" points="1060,-145 1060,-164 1193,-164 1193,-145 1060,-145"/>
<text text-anchor="middle" x="1126.5" y="-152" font-family="Helvetica,sans-Serif" font-size="10.00" fill="#000000">TMVA::kNN::ModulekNN</text>
</g>
<!-- Node2 -->
<g id="node2" class="node">
<title>Node2</title>
<polygon fill="#ffffff" stroke="#bfbfbf" points="837.5,-221.5 837.5,-251.5 945.5,-251.5 945.5,-221.5 837.5,-221.5"/>
<text text-anchor="start" x="845.5" y="-239.5" font-family="Helvetica,sans-Serif" font-size="10.00" fill="#000000">std::map&lt; Short_t,</text>
<text text-anchor="middle" x="891.5" y="-228.5" font-family="Helvetica,sans-Serif" font-size="10.00" fill="#000000"> UInt_t &gt;</text>
</g>
<!-- Node2&#45;&gt;Node1 -->
<g id="edge1" class="edge">
<title>Node2&#45;&gt;Node1</title>
<path fill="none" stroke="#9a32cd" stroke-dasharray="5,2" d="M955.4411,-219.9121C982.4312,-212.3695 1014.023,-202.8241 1042,-192.5 1064.9377,-184.0355 1090.4264,-172.2261 1107.3504,-164.0279"/>
<polygon fill="#9a32cd" stroke="#9a32cd" points="954.4274,-216.561 945.7209,-222.5981 956.2919,-223.3081 954.4274,-216.561"/>
<text text-anchor="middle" x="1014" y="-212.5" font-family="Helvetica,sans-Serif" font-size="10.00" fill="#000000"> fCount</text>
</g>
<!-- Node3 -->
<g id="node3" class="node">
<title>Node3</title>
<g id="a_node3"><a xlink:href="classTMVA_1_1kNN_1_1Event.html" target="_top" xlink:title="TMVA::kNN::Event">
<polygon fill="#ffffff" stroke="#000000" points="839.5,-183 839.5,-202 943.5,-202 943.5,-183 839.5,-183"/>
<text text-anchor="middle" x="891.5" y="-190" font-family="Helvetica,sans-Serif" font-size="10.00" fill="#000000">TMVA::kNN::Event</text>
</a>
</g>
</g>
<!-- Node3&#45;&gt;Node1 -->
<g id="edge2" class="edge">
<title>Node3&#45;&gt;Node1</title>
<path fill="none" stroke="#9a32cd" stroke-dasharray="5,2" d="M953.9103,-183.3057C981.0064,-179.2252 1013.0945,-174.2736 1042,-169.5 1052.2903,-167.8006 1063.2709,-165.9091 1073.7951,-164.0575"/>
<polygon fill="#9a32cd" stroke="#9a32cd" points="953.1567,-179.8795 943.7869,-184.8248 954.1956,-186.802 953.1567,-179.8795"/>
<text text-anchor="middle" x="1014" y="-180.5" font-family="Helvetica,sans-Serif" font-size="10.00" fill="#000000"> fkNNEvent</text>
</g>
<!-- Node4 -->
<g id="node4" class="node">
<title>Node4</title>
<polygon fill="#ffffff" stroke="#bfbfbf" points="815,-145 815,-164 968,-164 968,-145 815,-145"/>
<text text-anchor="middle" x="891.5" y="-152" font-family="Helvetica,sans-Serif" font-size="10.00" fill="#000000">std::map&lt; Int_t, Double_t &gt;</text>
</g>
<!-- Node4&#45;&gt;Node1 -->
<g id="edge3" class="edge">
<title>Node4&#45;&gt;Node1</title>
<path fill="none" stroke="#9a32cd" stroke-dasharray="5,2" d="M978.3215,-154.5C1005.2619,-154.5 1034.516,-154.5 1059.8587,-154.5"/>
<polygon fill="#9a32cd" stroke="#9a32cd" points="978.1227,-151.0001 968.1226,-154.5 978.1226,-158.0001 978.1227,-151.0001"/>
<text text-anchor="middle" x="1014" y="-157.5" font-family="Helvetica,sans-Serif" font-size="10.00" fill="#000000"> fVarScale</text>
</g>
<!-- Node5 -->
<g id="node5" class="node">
<title>Node5</title>
<g id="a_node5"><a xlink:href="classTMVA_1_1MsgLogger.html" target="_top" xlink:title="ostringstream derivative to redirect and format output ">
<polygon fill="#ffffff" stroke="#000000" points="840.5,-107 840.5,-126 942.5,-126 942.5,-107 840.5,-107"/>
<text text-anchor="middle" x="891.5" y="-114" font-family="Helvetica,sans-Serif" font-size="10.00" fill="#000000">TMVA::MsgLogger</text>
</a>
</g>
</g>
<!-- Node5&#45;&gt;Node1 -->
<g id="edge4" class="edge">
<title>Node5&#45;&gt;Node1</title>
<path fill="none" stroke="#9a32cd" stroke-dasharray="5,2" d="M952.937,-125.5477C980.2358,-129.656 1012.7477,-134.6691 1042,-139.5 1052.2903,-141.1994 1063.2709,-143.0909 1073.7951,-144.9425"/>
<polygon fill="#9a32cd" stroke="#9a32cd" points="953.1558,-122.0415 942.7473,-124.0198 952.1177,-128.9641 953.1558,-122.0415"/>
<text text-anchor="middle" x="1014" y="-142.5" font-family="Helvetica,sans-Serif" font-size="10.00" fill="#000000"> fLogger</text>
</g>
<!-- Node6 -->
<g id="node6" class="node">
<title>Node6</title>
<g id="a_node6"><a xlink:title="STL class. ">
<polygon fill="#ffffff" stroke="#bfbfbf" points="608,-158 608,-177 714,-177 714,-158 608,-158"/>
<text text-anchor="middle" x="661" y="-165" font-family="Helvetica,sans-Serif" font-size="10.00" fill="#000000">std::ostringstream</text>
</a>
</g>
</g>
<!-- Node6&#45;&gt;Node5 -->
<g id="edge5" class="edge">
<title>Node6&#45;&gt;Node5</title>
<path fill="none" stroke="#191970" d="M724.2122,-158.436C747.3343,-154.4528 773.5617,-149.1471 797,-142.5 805.258,-140.158 806.8181,-138.0953 815,-135.5 825.8267,-132.0657 837.6745,-128.8611 848.7432,-126.0983"/>
<polygon fill="#191970" stroke="#191970" points="723.455,-155.014 714.1704,-160.1175 724.6111,-161.9179 723.455,-155.014"/>
</g>
<!-- Node7 -->
<g id="node7" class="node">
<title>Node7</title>
<polygon fill="#ffffff" stroke="#bfbfbf" points="426,-152.5 426,-182.5 563,-182.5 563,-152.5 426,-152.5"/>
<text text-anchor="start" x="434" y="-170.5" font-family="Helvetica,sans-Serif" font-size="10.00" fill="#000000">std::basic_ostringstream</text>
<text text-anchor="middle" x="494.5" y="-159.5" font-family="Helvetica,sans-Serif" font-size="10.00" fill="#000000">&lt; char &gt;</text>
</g>
<!-- Node7&#45;&gt;Node6 -->
<g id="edge6" class="edge">
<title>Node7&#45;&gt;Node6</title>
<path fill="none" stroke="#191970" d="M573.4274,-167.5C585.1448,-167.5 596.9767,-167.5 607.9912,-167.5"/>
<polygon fill="#191970" stroke="#191970" points="573.1832,-164.0001 563.1832,-167.5 573.1832,-171.0001 573.1832,-164.0001"/>
</g>
<!-- Node8 -->
<g id="node8" class="node">
<title>Node8</title>
<polygon fill="#ffffff" stroke="#bfbfbf" points="280,-152.5 280,-182.5 389,-182.5 389,-152.5 280,-152.5"/>
<text text-anchor="start" x="288" y="-170.5" font-family="Helvetica,sans-Serif" font-size="10.00" fill="#000000">std::basic_ostream</text>
<text text-anchor="middle" x="334.5" y="-159.5" font-family="Helvetica,sans-Serif" font-size="10.00" fill="#000000">&lt; char &gt;</text>
</g>
<!-- Node8&#45;&gt;Node7 -->
<g id="edge7" class="edge">
<title>Node8&#45;&gt;Node7</title>
<path fill="none" stroke="#191970" d="M399.292,-167.5C408.0832,-167.5 417.1289,-167.5 425.9829,-167.5"/>
<polygon fill="#191970" stroke="#191970" points="399.1155,-164.0001 389.1154,-167.5 399.1154,-171.0001 399.1155,-164.0001"/>
</g>
<!-- Node9 -->
<g id="node9" class="node">
<title>Node9</title>
<polygon fill="#ffffff" stroke="#bfbfbf" points="117,-158 117,-177 243,-177 243,-158 117,-158"/>
<text text-anchor="middle" x="180" y="-165" font-family="Helvetica,sans-Serif" font-size="10.00" fill="#000000">std::basic_ios&lt; char &gt;</text>
</g>
<!-- Node9&#45;&gt;Node8 -->
<g id="edge8" class="edge">
<title>Node9&#45;&gt;Node8</title>
<path fill="none" stroke="#191970" d="M253.3489,-167.5C262.3102,-167.5 271.3418,-167.5 279.9595,-167.5"/>
<polygon fill="#191970" stroke="#191970" points="253.2869,-164.0001 243.2868,-167.5 253.2868,-171.0001 253.2869,-164.0001"/>
</g>
<!-- Node10 -->
<g id="node10" class="node">
<title>Node10</title>
<g id="a_node10"><a xlink:title="STL class. ">
<polygon fill="#ffffff" stroke="#bfbfbf" points="0,-158 0,-177 80,-177 80,-158 0,-158"/>
<text text-anchor="middle" x="40" y="-165" font-family="Helvetica,sans-Serif" font-size="10.00" fill="#000000">std::ios_base</text>
</a>
</g>
</g>
<!-- Node10&#45;&gt;Node9 -->
<g id="edge9" class="edge">
<title>Node10&#45;&gt;Node9</title>
<path fill="none" stroke="#191970" d="M90.3597,-167.5C98.9628,-167.5 107.9966,-167.5 116.8811,-167.5"/>
<polygon fill="#191970" stroke="#191970" points="90.1184,-164.0001 80.1184,-167.5 90.1183,-171.0001 90.1184,-164.0001"/>
</g>
<!-- Node11 -->
<g id="node11" class="node">
<title>Node11</title>
<g id="a_node11"><a xlink:href="classTObject.html" target="_top" xlink:title="Mother of all ROOT objects. ">
<polygon fill="#ffffff" stroke="#000000" points="634,-113 634,-132 688,-132 688,-113 634,-113"/>
<text text-anchor="middle" x="661" y="-120" font-family="Helvetica,sans-Serif" font-size="10.00" fill="#000000">TObject</text>
</a>
</g>
</g>
<!-- Node11&#45;&gt;Node5 -->
<g id="edge10" class="edge">
<title>Node11&#45;&gt;Node5</title>
<path fill="none" stroke="#191970" d="M698.1722,-125.9064C711.3681,-126.9611 726.3346,-127.9818 740,-128.5 765.3151,-129.46 771.7172,-130.0988 797,-128.5 811.0293,-127.6128 826.1604,-125.9918 840.1149,-124.2222"/>
<polygon fill="#191970" stroke="#191970" points="698.2835,-122.4037 688.0277,-125.0623 697.703,-129.3796 698.2835,-122.4037"/>
</g>
<!-- Node11&#45;&gt;Node5 -->
<g id="edge14" class="edge">
<title>Node11&#45;&gt;Node5</title>
<path fill="none" stroke="#9a32cd" stroke-dasharray="5,2" d="M698.1603,-118.526C711.3551,-117.2955 726.324,-116.1047 740,-115.5 773.3718,-114.0244 810.918,-114.259 840.2838,-114.8701"/>
<polygon fill="#9a32cd" stroke="#9a32cd" points="697.6322,-115.0607 688.0173,-119.5109 698.3088,-122.028 697.6322,-115.0607"/>
<text text-anchor="middle" x="768.5" y="-118.5" font-family="Helvetica,sans-Serif" font-size="10.00" fill="#000000"> fObjSource</text>
</g>
<!-- Node12 -->
<g id="node12" class="node">
<title>Node12</title>
<g id="a_node12"><a xlink:title="STL class. ">
<polygon fill="#ffffff" stroke="#bfbfbf" points="628.5,-51 628.5,-70 693.5,-70 693.5,-51 628.5,-51"/>
<text text-anchor="middle" x="661" y="-58" font-family="Helvetica,sans-Serif" font-size="10.00" fill="#000000">std::string</text>
</a>
</g>
</g>
<!-- Node12&#45;&gt;Node5 -->
<g id="edge11" class="edge">
<title>Node12&#45;&gt;Node5</title>
<path fill="none" stroke="#9a32cd" stroke-dasharray="5,2" d="M704.0301,-57.7274C732.0456,-57.746 768.5361,-61.3309 797,-76.5 807.8484,-82.2814 804.5382,-91.0454 815,-97.5 822.6867,-102.2425 831.4947,-105.8025 840.3349,-108.4745"/>
<polygon fill="#9a32cd" stroke="#9a32cd" points="703.6898,-54.2319 693.7422,-57.8782 703.7925,-61.2312 703.6898,-54.2319"/>
<text text-anchor="middle" x="768.5" y="-101.5" font-family="Helvetica,sans-Serif" font-size="10.00" fill="#000000"> fgSuffix</text>
<text text-anchor="middle" x="768.5" y="-90.5" font-family="Helvetica,sans-Serif" font-size="10.00" fill="#000000">fgPrefix</text>
<text text-anchor="middle" x="768.5" y="-79.5" font-family="Helvetica,sans-Serif" font-size="10.00" fill="#000000">fStrSource</text>
</g>
<!-- Node13 -->
<g id="node13" class="node">
<title>Node13</title>
<polygon fill="#ffffff" stroke="#bfbfbf" points="442.5,-45.5 442.5,-75.5 546.5,-75.5 546.5,-45.5 442.5,-45.5"/>
<text text-anchor="start" x="450.5" y="-63.5" font-family="Helvetica,sans-Serif" font-size="10.00" fill="#000000">std::basic_string&lt;</text>
<text text-anchor="middle" x="494.5" y="-52.5" font-family="Helvetica,sans-Serif" font-size="10.00" fill="#000000"> char &gt;</text>
</g>
<!-- Node13&#45;&gt;Node12 -->
<g id="edge12" class="edge">
<title>Node13&#45;&gt;Node12</title>
<path fill="none" stroke="#191970" d="M556.9453,-60.5C581.2144,-60.5 608.0039,-60.5 628.3222,-60.5"/>
<polygon fill="#191970" stroke="#191970" points="556.7248,-57.0001 546.7248,-60.5 556.7248,-64.0001 556.7248,-57.0001"/>
</g>
<!-- Node14 -->
<g id="node14" class="node">
<title>Node14</title>
<polygon fill="#ffffff" stroke="#bfbfbf" points="600,-.5 600,-30.5 722,-30.5 722,-.5 600,-.5"/>
<text text-anchor="start" x="608" y="-18.5" font-family="Helvetica,sans-Serif" font-size="10.00" fill="#000000">std::map&lt; EMsgType,</text>
<text text-anchor="middle" x="661" y="-7.5" font-family="Helvetica,sans-Serif" font-size="10.00" fill="#000000"> std::string &gt;</text>
</g>
<!-- Node14&#45;&gt;Node5 -->
<g id="edge13" class="edge">
<title>Node14&#45;&gt;Node5</title>
<path fill="none" stroke="#9a32cd" stroke-dasharray="5,2" d="M732.3211,-10.7613C755.3066,-12.794 779.3686,-19.1712 797,-34.5 818.9762,-53.6062 794.053,-77.2707 815,-97.5 821.9891,-104.2496 830.9857,-108.7167 840.3388,-111.6483"/>
<polygon fill="#9a32cd" stroke="#9a32cd" points="732.4106,-7.2602 722.2117,-10.1294 731.9739,-14.2465 732.4106,-7.2602"/>
<text text-anchor="middle" x="768.5" y="-48.5" font-family="Helvetica,sans-Serif" font-size="10.00" fill="#000000"> fgTypeMap</text>
<text text-anchor="middle" x="768.5" y="-37.5" font-family="Helvetica,sans-Serif" font-size="10.00" fill="#000000">fgColorMap</text>
</g>
<!-- Node15 -->
<g id="node15" class="node">
<title>Node15</title>
<polygon fill="#ffffff" stroke="#bfbfbf" points="826,-57.5 826,-87.5 957,-87.5 957,-57.5 826,-57.5"/>
<text text-anchor="start" x="834" y="-75.5" font-family="Helvetica,sans-Serif" font-size="10.00" fill="#000000">std::map&lt; int, std</text>
<text text-anchor="middle" x="891.5" y="-64.5" font-family="Helvetica,sans-Serif" font-size="10.00" fill="#000000">::vector&lt; Double_t &gt; &gt;</text>
</g>
<!-- Node15&#45;&gt;Node1 -->
<g id="edge15" class="edge">
<title>Node15&#45;&gt;Node1</title>
<path fill="none" stroke="#9a32cd" stroke-dasharray="5,2" d="M962.1804,-90.2753C987.6205,-97.3056 1016.3605,-105.985 1042,-115.5 1065.3276,-124.1571 1091.1679,-136.5118 1108.056,-144.9827"/>
<polygon fill="#9a32cd" stroke="#9a32cd" points="962.8073,-86.8186 952.2388,-87.5648 960.9659,-93.572 962.8073,-86.8186"/>
<text text-anchor="middle" x="1014" y="-118.5" font-family="Helvetica,sans-Serif" font-size="10.00" fill="#000000"> fVar</text>
</g>
</g>
</svg>
        <g id="navigator" transform="translate(0 0)" fill="#404254">
                <rect fill="#f2f5e9" fill-opacity="0.5" stroke="#606060" stroke-width=".5" x="0" y="0" width="60" height="60"/>
                <use id="zoomplus" xlink:href="#zoomPlus" x="17" y="9" onmousedown="handleZoom(evt,'in')"/>
                <use id="zoomminus" xlink:href="#zoomMin" x="42" y="9" onmousedown="handleZoom(evt,'out')"/>
                <use id="reset" xlink:href="#resetDef" x="30" y="36" onmousedown="handleReset()"/>
                <g id="arrowUp" xlink:href="#dirArrow" transform="translate(30 24)" onmousedown="handlePan(0,-1)">
                  <use xlink:href="#rim" fill="#404040">
                        <set attributeName="fill" to="#808080" begin="arrowUp.mouseover" end="arrowUp.mouseout"/>
                  </use>
                  <path fill="none" stroke="white" stroke-width="1.5" d="M0,-3.0v7 M-2.5,-0.5L0,-3.0L2.5,-0.5"/>
                </g>
                <g id="arrowRight" xlink:href="#dirArrow" transform="rotate(90) translate(36 -43)" onmousedown="handlePan(1,0)">
                  <use xlink:href="#rim" fill="#404040">
                        <set attributeName="fill" to="#808080" begin="arrowRight.mouseover" end="arrowRight.mouseout"/>
                  </use>
                  <path fill="none" stroke="white" stroke-width="1.5" d="M0,-3.0v7 M-2.5,-0.5L0,-3.0L2.5,-0.5"/>
                </g>
                <g id="arrowDown" xlink:href="#dirArrow" transform="rotate(180) translate(-30 -48)" onmousedown="handlePan(0,1)">
                  <use xlink:href="#rim" fill="#404040">
                        <set attributeName="fill" to="#808080" begin="arrowDown.mouseover" end="arrowDown.mouseout"/>
                  </use>
                  <path fill="none" stroke="white" stroke-width="1.5" d="M0,-3.0v7 M-2.5,-0.5L0,-3.0L2.5,-0.5"/>
                </g>
                <g id="arrowLeft" xlink:href="#dirArrow" transform="rotate(270) translate(-36 17)" onmousedown="handlePan(-1,0)">
                  <use xlink:href="#rim" fill="#404040">
                        <set attributeName="fill" to="#808080" begin="arrowLeft.mouseover" end="arrowLeft.mouseout"/>
                  </use>
                  <path fill="none" stroke="white" stroke-width="1.5" d="M0,-3.0v7 M-2.5,-0.5L0,-3.0L2.5,-0.5"/>
                </g>
        </g>
        <svg viewBox="0 0 15 15" width="100%" height="30px" preserveAspectRatio="xMaxYMin meet">
         <g id="arrow_out" transform="scale(0.3 0.3)">
          <a xlink:href="classTMVA_1_1kNN_1_1ModulekNN__coll__graph_org.svg" target="_base">
           <rect id="button" ry="5" rx="5" y="6" x="6" height="38" width="38"
                fill="#f2f5e9" fill-opacity="0.5" stroke="#606060" stroke-width="1.0"/>
           <path id="arrow"
             d="M 11.500037,31.436501 C 11.940474,20.09759 22.043105,11.32322 32.158766,21.979434 L 37.068811,17.246167 C 37.068811,17.246167 37.088388,32 37.088388,32 L 22.160133,31.978069 C 22.160133,31.978069 26.997745,27.140456 26.997745,27.140456 C 18.528582,18.264221 13.291696,25.230495 11.500037,31.436501 z"
             style="fill:#404040;"/>
          </a>
         </g>
        </svg>
</svg>
