<?xml version="1.0" encoding="UTF-8" standalone="no"?>
<!DOCTYPE svg PUBLIC "-//W3C//DTD SVG 1.1//EN"
 "http://www.w3.org/Graphics/SVG/1.1/DTD/svg11.dtd">
<!-- Generated by graphviz version 2.40.1 (0)
 -->
<!-- Title: RooFitResult Pages: 1 -->
<svg width="252pt" height="140pt"
 viewBox="0.00 0.00 251.50 140.00" xmlns="http://www.w3.org/2000/svg" xmlns:xlink="http://www.w3.org/1999/xlink">
<g id="graph0" class="graph" transform="scale(1 1) rotate(0) translate(4 136)">
<title>RooFitResult</title>
<polygon fill="#ffffff" stroke="transparent" points="-4,4 -4,-136 247.5,-136 247.5,4 -4,4"/>
<!-- Node0 -->
<g id="node1" class="node">
<title>Node0</title>
<polygon fill="#bfbfbf" stroke="#000000" points="77,-.5 77,-19.5 153,-19.5 153,-.5 77,-.5"/>
<text text-anchor="middle" x="115" y="-7.5" font-family="Helvetica,sans-Serif" font-size="10.00" fill="#000000">RooFitResult</text>
</g>
<!-- Node1 -->
<g id="node2" class="node">
<title>Node1</title>
<g id="a_node2"><a xlink:href="classTNamed.html" target="_top" xlink:title="The TNamed class is the base class for all named ROOT classes. ">
<polygon fill="#ffffff" stroke="#000000" points="0,-56.5 0,-75.5 58,-75.5 58,-56.5 0,-56.5"/>
<text text-anchor="middle" x="29" y="-63.5" font-family="Helvetica,sans-Serif" font-size="10.00" fill="#000000">TNamed</text>
</a>
</g>
</g>
<!-- Node1&#45;&gt;Node0 -->
<g id="edge1" class="edge">
<title>Node1&#45;&gt;Node0</title>
<path fill="none" stroke="#191970" d="M52.3905,-50.769C67.6299,-40.8456 87.0509,-28.1994 100.1916,-19.6427"/>
<polygon fill="#191970" stroke="#191970" points="50.4502,-47.8558 43.9801,-56.2455 54.2699,-53.7218 50.4502,-47.8558"/>
</g>
<!-- Node2 -->
<g id="node3" class="node">
<title>Node2</title>
<g id="a_node3"><a xlink:href="classTObject.html" target="_top" xlink:title="Mother of all ROOT objects. ">
<polygon fill="#ffffff" stroke="#000000" points="2,-112.5 2,-131.5 56,-131.5 56,-112.5 2,-112.5"/>
<text text-anchor="middle" x="29" y="-119.5" font-family="Helvetica,sans-Serif" font-size="10.00" fill="#000000">TObject</text>
</a>
</g>
</g>
<!-- Node2&#45;&gt;Node1 -->
<g id="edge2" class="edge">
<title>Node2&#45;&gt;Node1</title>
<path fill="none" stroke="#191970" d="M29,-102.1575C29,-93.155 29,-82.9199 29,-75.6427"/>
<polygon fill="#191970" stroke="#191970" points="25.5001,-102.2455 29,-112.2455 32.5001,-102.2456 25.5001,-102.2455"/>
</g>
<!-- Node3 -->
<g id="node4" class="node">
<title>Node3</title>
<g id="a_node4"><a xlink:href="classRooPrintable.html" target="_top" xlink:title="RooPlotable is a &#39;mix&#45;in&#39; base class that define the standard RooFit plotting and printing methods...">
<polygon fill="#ffffff" stroke="#000000" points="76,-56.5 76,-75.5 154,-75.5 154,-56.5 76,-56.5"/>
<text text-anchor="middle" x="115" y="-63.5" font-family="Helvetica,sans-Serif" font-size="10.00" fill="#000000">RooPrintable</text>
</a>
</g>
</g>
<!-- Node3&#45;&gt;Node0 -->
<g id="edge3" class="edge">
<title>Node3&#45;&gt;Node0</title>
<path fill="none" stroke="#191970" d="M115,-46.1575C115,-37.155 115,-26.9199 115,-19.6427"/>
<polygon fill="#191970" stroke="#191970" points="111.5001,-46.2455 115,-56.2455 118.5001,-46.2456 111.5001,-46.2455"/>
</g>
<!-- Node4 -->
<g id="node5" class="node">
<title>Node4</title>
<g id="a_node5"><a xlink:href="classRooDirItem.html" target="_top" xlink:title="RooDirItem is a utility base class for RooFit objects that are to be attached to ROOT directories...">
<polygon fill="#ffffff" stroke="#000000" points="172.5,-56.5 172.5,-75.5 243.5,-75.5 243.5,-56.5 172.5,-56.5"/>
<text text-anchor="middle" x="208" y="-63.5" font-family="Helvetica,sans-Serif" font-size="10.00" fill="#000000">RooDirItem</text>
</a>
</g>
</g>
<!-- Node4&#45;&gt;Node0 -->
<g id="edge4" class="edge">
<title>Node4&#45;&gt;Node0</title>
<path fill="none" stroke="#191970" d="M183.1665,-51.0465C166.6189,-41.0824 145.3568,-28.2794 131.0137,-19.6427"/>
<polygon fill="#191970" stroke="#191970" points="181.4283,-54.0854 191.8006,-56.2455 185.0393,-48.0886 181.4283,-54.0854"/>
</g>
</g>
</svg>
