<?xml version="1.0" encoding="UTF-8" standalone="no"?>
<!DOCTYPE svg PUBLIC "-//W3C//DTD SVG 1.1//EN"
 "http://www.w3.org/Graphics/SVG/1.1/DTD/svg11.dtd">
<!-- Generated by graphviz version 2.40.1 (0)
 -->
<!-- Title: ROOT::Math::GSLRootFinder Pages: 1 -->
<svg width="594pt" height="104pt"
 viewBox="0.00 0.00 594.00 104.00" xmlns="http://www.w3.org/2000/svg" xmlns:xlink="http://www.w3.org/1999/xlink">
<g id="graph0" class="graph" transform="scale(1 1) rotate(0) translate(4 100)">
<title>ROOT::Math::GSLRootFinder</title>
<polygon fill="#ffffff" stroke="transparent" points="-4,4 -4,-100 590,-100 590,4 -4,4"/>
<!-- Node5 -->
<g id="node1" class="node">
<title>Node5</title>
<polygon fill="#bfbfbf" stroke="#000000" points="437,-38.5 437,-57.5 586,-57.5 586,-38.5 437,-38.5"/>
<text text-anchor="middle" x="511.5" y="-45.5" font-family="Helvetica,sans-Serif" font-size="10.00" fill="#000000">ROOT::Math::GSLRootFinder</text>
</g>
<!-- Node6 -->
<g id="node2" class="node">
<title>Node6</title>
<g id="a_node2"><a xlink:href="classROOT_1_1Math_1_1IRootFinderMethod.html" target="_top" xlink:title="Interface for finding function roots of one&#45;dimensional functions. ">
<polygon fill="#ffffff" stroke="#000000" points="178.5,-76.5 178.5,-95.5 348.5,-95.5 348.5,-76.5 178.5,-76.5"/>
<text text-anchor="middle" x="263.5" y="-83.5" font-family="Helvetica,sans-Serif" font-size="10.00" fill="#000000">ROOT::Math::IRootFinderMethod</text>
</a>
</g>
</g>
<!-- Node6&#45;&gt;Node5 -->
<g id="edge1" class="edge">
<title>Node6&#45;&gt;Node5</title>
<path fill="none" stroke="#191970" d="M339.2806,-75.0072C364.6373,-71.2714 393.0495,-67.0231 419,-63 430.093,-61.2803 441.926,-59.3979 453.2943,-57.5654"/>
<polygon fill="#191970" stroke="#191970" points="338.7417,-71.5487 329.3572,-76.4661 339.7599,-78.4742 338.7417,-71.5487"/>
</g>
<!-- Node7 -->
<g id="node3" class="node">
<title>Node7</title>
<g id="a_node3"><a xlink:href="classROOT_1_1Math_1_1GSLFunctionWrapper.html" target="_top" xlink:title="Wrapper class to the gsl_function C structure. ">
<polygon fill="#ffffff" stroke="#000000" points="174,-38.5 174,-57.5 353,-57.5 353,-38.5 174,-38.5"/>
<text text-anchor="middle" x="263.5" y="-45.5" font-family="Helvetica,sans-Serif" font-size="10.00" fill="#000000">ROOT::Math::GSLFunctionWrapper</text>
</a>
</g>
</g>
<!-- Node7&#45;&gt;Node5 -->
<g id="edge2" class="edge">
<title>Node7&#45;&gt;Node5</title>
<path fill="none" stroke="#9a32cd" stroke-dasharray="5,2" d="M363.1106,-48C387.6997,-48 413.6209,-48 436.7976,-48"/>
<polygon fill="#9a32cd" stroke="#9a32cd" points="363.0337,-44.5001 353.0337,-48 363.0337,-51.5001 363.0337,-44.5001"/>
<text text-anchor="middle" x="395" y="-51" font-family="Helvetica,sans-Serif" font-size="10.00" fill="#000000"> fFunction</text>
</g>
<!-- Node8 -->
<g id="node4" class="node">
<title>Node8</title>
<polygon fill="#ffffff" stroke="#bfbfbf" points="0,-38.5 0,-57.5 109,-57.5 109,-38.5 0,-38.5"/>
<text text-anchor="middle" x="54.5" y="-45.5" font-family="Helvetica,sans-Serif" font-size="10.00" fill="#000000">gsl_function_struct</text>
</g>
<!-- Node8&#45;&gt;Node7 -->
<g id="edge3" class="edge">
<title>Node8&#45;&gt;Node7</title>
<path fill="none" stroke="#9a32cd" stroke-dasharray="5,2" d="M119.6238,-48C136.8422,-48 155.7311,-48 173.996,-48"/>
<polygon fill="#9a32cd" stroke="#9a32cd" points="119.1393,-44.5001 109.1393,-48 119.1393,-51.5001 119.1393,-44.5001"/>
<text text-anchor="middle" x="141.5" y="-51" font-family="Helvetica,sans-Serif" font-size="10.00" fill="#000000"> fFunc</text>
</g>
<!-- Node9 -->
<g id="node5" class="node">
<title>Node9</title>
<g id="a_node5"><a xlink:href="classROOT_1_1Math_1_1GSLRootFSolver.html" target="_top" xlink:title="Root&#45;Finder implementation class using GSL. ">
<polygon fill="#ffffff" stroke="#000000" points="185.5,-.5 185.5,-19.5 341.5,-19.5 341.5,-.5 185.5,-.5"/>
<text text-anchor="middle" x="263.5" y="-7.5" font-family="Helvetica,sans-Serif" font-size="10.00" fill="#000000">ROOT::Math::GSLRootFSolver</text>
</a>
</g>
</g>
<!-- Node9&#45;&gt;Node5 -->
<g id="edge4" class="edge">
<title>Node9&#45;&gt;Node5</title>
<path fill="none" stroke="#9a32cd" stroke-dasharray="5,2" d="M339.2806,-20.9928C364.6373,-24.7286 393.0495,-28.9769 419,-33 430.093,-34.7197 441.926,-36.6021 453.2943,-38.4346"/>
<polygon fill="#9a32cd" stroke="#9a32cd" points="339.7599,-17.5258 329.3572,-19.5339 338.7417,-24.4513 339.7599,-17.5258"/>
<text text-anchor="middle" x="395" y="-36" font-family="Helvetica,sans-Serif" font-size="10.00" fill="#000000"> fS</text>
</g>
</g>
</svg>
