<?xml version="1.0" encoding="UTF-8" standalone="no"?>
<!DOCTYPE svg PUBLIC "-//W3C//DTD SVG 1.1//EN"
 "http://www.w3.org/Graphics/SVG/1.1/DTD/svg11.dtd">
<!-- Generated by graphviz version 2.40.1 (0)
 -->
<!-- Title: SelectionRules Pages: 1 -->
<svg width="342pt" height="128pt"
 viewBox="0.00 0.00 341.50 128.00" xmlns="http://www.w3.org/2000/svg" xmlns:xlink="http://www.w3.org/1999/xlink">
<g id="graph0" class="graph" transform="scale(1 1) rotate(0) translate(4 124)">
<title>SelectionRules</title>
<polygon fill="#ffffff" stroke="transparent" points="-4,4 -4,-124 337.5,-124 337.5,4 -4,4"/>
<!-- Node1 -->
<g id="node1" class="node">
<title>Node1</title>
<polygon fill="#bfbfbf" stroke="#000000" points="110.5,-.5 110.5,-19.5 198.5,-19.5 198.5,-.5 110.5,-.5"/>
<text text-anchor="middle" x="154.5" y="-7.5" font-family="Helvetica,sans-Serif" font-size="10.00" fill="#000000">SelectionRules</text>
</g>
<!-- Node2 -->
<g id="node2" class="node">
<title>Node2</title>
<polygon fill="#ffffff" stroke="#bfbfbf" points="0,-89.5 0,-119.5 149,-119.5 149,-89.5 0,-89.5"/>
<text text-anchor="start" x="8" y="-107.5" font-family="Helvetica,sans-Serif" font-size="10.00" fill="#000000">std::list&lt; VariableSelection</text>
<text text-anchor="middle" x="74.5" y="-96.5" font-family="Helvetica,sans-Serif" font-size="10.00" fill="#000000">Rule &gt;</text>
</g>
<!-- Node2&#45;&gt;Node1 -->
<g id="edge1" class="edge">
<title>Node2&#45;&gt;Node1</title>
<path fill="none" stroke="#9a32cd" stroke-dasharray="5,2" d="M77.0785,-79.1841C79.6046,-65.6383 84.6045,-49.4394 94.5,-38 101.5692,-29.8279 111.5365,-23.882 121.3206,-19.6293"/>
<polygon fill="#9a32cd" stroke="#9a32cd" points="73.5778,-78.925 75.5367,-89.3372 80.4985,-79.976 73.5778,-78.925"/>
<text text-anchor="middle" x="153.5" y="-63" font-family="Helvetica,sans-Serif" font-size="10.00" fill="#000000"> fVariableSelectionRules</text>
<text text-anchor="middle" x="153.5" y="-52" font-family="Helvetica,sans-Serif" font-size="10.00" fill="#000000">fFunctionSelectionRules</text>
<text text-anchor="middle" x="153.5" y="-41" font-family="Helvetica,sans-Serif" font-size="10.00" fill="#000000">fEnumSelectionRules</text>
</g>
<!-- Node3 -->
<g id="node3" class="node">
<title>Node3</title>
<polygon fill="#ffffff" stroke="#bfbfbf" points="167,-89.5 167,-119.5 302,-119.5 302,-89.5 167,-89.5"/>
<text text-anchor="start" x="175" y="-107.5" font-family="Helvetica,sans-Serif" font-size="10.00" fill="#000000">std::list&lt; ClassSelection</text>
<text text-anchor="middle" x="234.5" y="-96.5" font-family="Helvetica,sans-Serif" font-size="10.00" fill="#000000">Rule &gt;</text>
</g>
<!-- Node3&#45;&gt;Node1 -->
<g id="edge2" class="edge">
<title>Node3&#45;&gt;Node1</title>
<path fill="none" stroke="#9a32cd" stroke-dasharray="5,2" d="M231.0224,-79.2059C228.0467,-65.6669 222.5631,-49.4674 212.5,-38 205.3462,-29.8478 195.2865,-23.8535 185.5502,-19.5522"/>
<polygon fill="#9a32cd" stroke="#9a32cd" points="227.6401,-80.1617 232.9109,-89.3524 234.522,-78.8808 227.6401,-80.1617"/>
<text text-anchor="middle" x="281" y="-52" font-family="Helvetica,sans-Serif" font-size="10.00" fill="#000000"> fClassSelectionRules</text>
</g>
</g>
</svg>
