<?xml version="1.0" encoding="UTF-8" standalone="no"?>
<!DOCTYPE svg PUBLIC "-//W3C//DTD SVG 1.1//EN"
 "http://www.w3.org/Graphics/SVG/1.1/DTD/svg11.dtd">
<!-- Generated by graphviz version 2.40.1 (0)
 -->
<!-- Title: TGeoShape Pages: 1 -->
<svg width="751pt" height="636pt"
 viewBox="0.00 0.00 751.00 636.00" xmlns="http://www.w3.org/2000/svg" xmlns:xlink="http://www.w3.org/1999/xlink">
<g id="graph0" class="graph" transform="scale(1 1) rotate(0) translate(4 632)">
<title>TGeoShape</title>
<polygon fill="#ffffff" stroke="transparent" points="-4,4 -4,-632 747,-632 747,4 -4,4"/>
<!-- Node0 -->
<g id="node1" class="node">
<title>Node0</title>
<polygon fill="#bfbfbf" stroke="#000000" points="184,-304.5 184,-323.5 256,-323.5 256,-304.5 184,-304.5"/>
<text text-anchor="middle" x="220" y="-311.5" font-family="Helvetica,sans-Serif" font-size="10.00" fill="#000000">TGeoShape</text>
</g>
<!-- Node3 -->
<g id="node4" class="node">
<title>Node3</title>
<g id="a_node4"><a xlink:href="classTGeoBBox.html" target="_top" xlink:title="Box class. ">
<polygon fill="#ffffff" stroke="#000000" points="292,-304.5 292,-323.5 360,-323.5 360,-304.5 292,-304.5"/>
<text text-anchor="middle" x="326" y="-311.5" font-family="Helvetica,sans-Serif" font-size="10.00" fill="#000000">TGeoBBox</text>
</a>
</g>
</g>
<!-- Node0&#45;&gt;Node3 -->
<g id="edge3" class="edge">
<title>Node0&#45;&gt;Node3</title>
<path fill="none" stroke="#191970" d="M266.4043,-314C274.9277,-314 283.6823,-314 291.7678,-314"/>
<polygon fill="#191970" stroke="#191970" points="266.1827,-310.5001 256.1827,-314 266.1827,-317.5001 266.1827,-310.5001"/>
</g>
<!-- Node1 -->
<g id="node2" class="node">
<title>Node1</title>
<g id="a_node2"><a xlink:href="classTNamed.html" target="_top" xlink:title="The TNamed class is the base class for all named ROOT classes. ">
<polygon fill="#ffffff" stroke="#000000" points="90,-304.5 90,-323.5 148,-323.5 148,-304.5 90,-304.5"/>
<text text-anchor="middle" x="119" y="-311.5" font-family="Helvetica,sans-Serif" font-size="10.00" fill="#000000">TNamed</text>
</a>
</g>
</g>
<!-- Node1&#45;&gt;Node0 -->
<g id="edge1" class="edge">
<title>Node1&#45;&gt;Node0</title>
<path fill="none" stroke="#191970" d="M158.4414,-314C166.7505,-314 175.4798,-314 183.6682,-314"/>
<polygon fill="#191970" stroke="#191970" points="158.2134,-310.5001 148.2134,-314 158.2134,-317.5001 158.2134,-310.5001"/>
</g>
<!-- Node2 -->
<g id="node3" class="node">
<title>Node2</title>
<g id="a_node3"><a xlink:href="classTObject.html" target="_top" xlink:title="Mother of all ROOT objects. ">
<polygon fill="#ffffff" stroke="#000000" points="0,-304.5 0,-323.5 54,-323.5 54,-304.5 0,-304.5"/>
<text text-anchor="middle" x="27" y="-311.5" font-family="Helvetica,sans-Serif" font-size="10.00" fill="#000000">TObject</text>
</a>
</g>
</g>
<!-- Node2&#45;&gt;Node1 -->
<g id="edge2" class="edge">
<title>Node2&#45;&gt;Node1</title>
<path fill="none" stroke="#191970" d="M64.2232,-314C72.7561,-314 81.7074,-314 89.8432,-314"/>
<polygon fill="#191970" stroke="#191970" points="64.1055,-310.5001 54.1054,-314 64.1054,-317.5001 64.1055,-310.5001"/>
</g>
<!-- Node4 -->
<g id="node5" class="node">
<title>Node4</title>
<g id="a_node5"><a xlink:href="classTEveGeoPolyShape.html" target="_top" xlink:title="Description of TEveGeoPolyShape. ">
<polygon fill="#ffffff" stroke="#000000" points="403,-608.5 403,-627.5 514,-627.5 514,-608.5 403,-608.5"/>
<text text-anchor="middle" x="458.5" y="-615.5" font-family="Helvetica,sans-Serif" font-size="10.00" fill="#000000">TEveGeoPolyShape</text>
</a>
</g>
</g>
<!-- Node3&#45;&gt;Node4 -->
<g id="edge4" class="edge">
<title>Node3&#45;&gt;Node4</title>
<path fill="none" stroke="#191970" d="M328.3084,-333.7567C335.4656,-391.7688 359.0479,-559.9858 396,-599 399.6654,-602.87 404.0916,-605.9593 408.8757,-608.4243"/>
<polygon fill="#191970" stroke="#191970" points="331.7673,-333.2045 327.0968,-323.6946 324.8175,-334.0413 331.7673,-333.2045"/>
</g>
<!-- Node5 -->
<g id="node6" class="node">
<title>Node5</title>
<g id="a_node6"><a xlink:href="classTGeoArb8.html" target="_top" xlink:title="An arbitrary trapezoid with less than 8 vertices standing on two parallel planes perpendicular to Z a...">
<polygon fill="#ffffff" stroke="#000000" points="426,-570.5 426,-589.5 491,-589.5 491,-570.5 426,-570.5"/>
<text text-anchor="middle" x="458.5" y="-577.5" font-family="Helvetica,sans-Serif" font-size="10.00" fill="#000000">TGeoArb8</text>
</a>
</g>
</g>
<!-- Node3&#45;&gt;Node5 -->
<g id="edge5" class="edge">
<title>Node3&#45;&gt;Node5</title>
<path fill="none" stroke="#191970" d="M329.1244,-333.8428C337.7918,-386.5048 363.6461,-528.0267 396,-561 403.8635,-569.014 414.992,-573.6712 425.6843,-576.3693"/>
<polygon fill="#191970" stroke="#191970" points="332.5465,-333.0787 327.4983,-323.7638 325.6358,-334.1937 332.5465,-333.0787"/>
</g>
<!-- Node8 -->
<g id="node9" class="node">
<title>Node8</title>
<g id="a_node9"><a xlink:href="classTGeoCompositeShape.html" target="_top" xlink:title="Class handling Boolean composition of shapes. ">
<polygon fill="#ffffff" stroke="#000000" points="396,-532.5 396,-551.5 521,-551.5 521,-532.5 396,-532.5"/>
<text text-anchor="middle" x="458.5" y="-539.5" font-family="Helvetica,sans-Serif" font-size="10.00" fill="#000000">TGeoCompositeShape</text>
</a>
</g>
</g>
<!-- Node3&#45;&gt;Node8 -->
<g id="edge8" class="edge">
<title>Node3&#45;&gt;Node8</title>
<path fill="none" stroke="#191970" d="M330.1463,-333.5397C340.3968,-380.1318 368.1248,-495.8963 396,-523 399.9842,-526.8739 404.733,-529.961 409.8077,-532.4204"/>
<polygon fill="#191970" stroke="#191970" points="333.5635,-332.7821 328.0269,-323.749 326.722,-334.2632 333.5635,-332.7821"/>
</g>
<!-- Node9 -->
<g id="node10" class="node">
<title>Node9</title>
<g id="a_node10"><a xlink:href="classTGeoCone.html" target="_top" xlink:title="Conical tube class. ">
<polygon fill="#ffffff" stroke="#000000" points="425,-494.5 425,-513.5 492,-513.5 492,-494.5 425,-494.5"/>
<text text-anchor="middle" x="458.5" y="-501.5" font-family="Helvetica,sans-Serif" font-size="10.00" fill="#000000">TGeoCone</text>
</a>
</g>
</g>
<!-- Node3&#45;&gt;Node9 -->
<g id="edge9" class="edge">
<title>Node3&#45;&gt;Node9</title>
<path fill="none" stroke="#191970" d="M328.5385,-333.8329C334.136,-369.3368 350.8433,-443.8765 396,-485 403.9658,-492.2543 414.6263,-496.741 424.8847,-499.5153"/>
<polygon fill="#191970" stroke="#191970" points="331.9789,-333.1682 327.0895,-323.7691 325.0504,-334.1658 331.9789,-333.1682"/>
</g>
<!-- Node11 -->
<g id="node12" class="node">
<title>Node11</title>
<g id="a_node12"><a xlink:href="classTGeoHalfSpace.html" target="_top" xlink:title="A half&#45;space defined by: ">
<polygon fill="#ffffff" stroke="#000000" points="412.5,-456.5 412.5,-475.5 504.5,-475.5 504.5,-456.5 412.5,-456.5"/>
<text text-anchor="middle" x="458.5" y="-463.5" font-family="Helvetica,sans-Serif" font-size="10.00" fill="#000000">TGeoHalfSpace</text>
</a>
</g>
</g>
<!-- Node3&#45;&gt;Node11 -->
<g id="edge11" class="edge">
<title>Node3&#45;&gt;Node11</title>
<path fill="none" stroke="#191970" d="M331.021,-333.4368C339.5067,-362.4195 359.4405,-416.7818 396,-447 400.8078,-450.9739 406.4347,-454.1173 412.3067,-456.6035"/>
<polygon fill="#191970" stroke="#191970" points="334.3598,-332.3785 328.3185,-323.6748 327.6135,-334.2462 334.3598,-332.3785"/>
</g>
<!-- Node12 -->
<g id="node13" class="node">
<title>Node12</title>
<g id="a_node13"><a xlink:href="classTGeoPara.html" target="_top" xlink:title="Parallelepiped class. ">
<polygon fill="#ffffff" stroke="#000000" points="427,-418.5 427,-437.5 490,-437.5 490,-418.5 427,-418.5"/>
<text text-anchor="middle" x="458.5" y="-425.5" font-family="Helvetica,sans-Serif" font-size="10.00" fill="#000000">TGeoPara</text>
</a>
</g>
</g>
<!-- Node3&#45;&gt;Node12 -->
<g id="edge12" class="edge">
<title>Node3&#45;&gt;Node12</title>
<path fill="none" stroke="#191970" d="M335.0967,-332.7849C346.4465,-354.2857 367.8404,-389.0896 396,-409 405.0749,-415.4165 416.3609,-419.7047 426.8353,-422.5538"/>
<polygon fill="#191970" stroke="#191970" points="338.1225,-331.0133 330.4731,-323.6827 331.8815,-334.1835 338.1225,-331.0133"/>
</g>
<!-- Node13 -->
<g id="node14" class="node">
<title>Node13</title>
<g id="a_node14"><a xlink:href="classTGeoParaboloid.html" target="_top" xlink:title="Paraboloid class. ">
<polygon fill="#ffffff" stroke="#000000" points="412,-380.5 412,-399.5 505,-399.5 505,-380.5 412,-380.5"/>
<text text-anchor="middle" x="458.5" y="-387.5" font-family="Helvetica,sans-Serif" font-size="10.00" fill="#000000">TGeoParaboloid</text>
</a>
</g>
</g>
<!-- Node3&#45;&gt;Node13 -->
<g id="edge13" class="edge">
<title>Node3&#45;&gt;Node13</title>
<path fill="none" stroke="#191970" d="M343.0069,-331.0692C356.3957,-343.6626 376.0667,-360.3868 396,-371 403.0074,-374.731 410.8556,-377.8421 418.5609,-380.3935"/>
<polygon fill="#191970" stroke="#191970" points="345.1605,-328.2832 335.5362,-323.8534 340.2974,-333.3181 345.1605,-328.2832"/>
</g>
<!-- Node14 -->
<g id="node15" class="node">
<title>Node14</title>
<g id="a_node15"><a xlink:href="classTGeoPcon.html" target="_top" xlink:title="A polycone. ">
<polygon fill="#ffffff" stroke="#000000" points="426,-342.5 426,-361.5 491,-361.5 491,-342.5 426,-342.5"/>
<text text-anchor="middle" x="458.5" y="-349.5" font-family="Helvetica,sans-Serif" font-size="10.00" fill="#000000">TGeoPcon</text>
</a>
</g>
</g>
<!-- Node3&#45;&gt;Node14 -->
<g id="edge14" class="edge">
<title>Node3&#45;&gt;Node14</title>
<path fill="none" stroke="#191970" d="M369.102,-326.3613C387.5995,-331.6663 408.8508,-337.761 425.9914,-342.6768"/>
<polygon fill="#191970" stroke="#191970" points="370.0127,-322.9815 359.4353,-323.589 368.0829,-329.7102 370.0127,-322.9815"/>
</g>
<!-- Node16 -->
<g id="node17" class="node">
<title>Node16</title>
<g id="a_node17"><a xlink:href="classTGeoScaledShape.html" target="_top" xlink:title="A shape scaled by a TGeoScale transformation. ">
<polygon fill="#ffffff" stroke="#000000" points="406.5,-304.5 406.5,-323.5 510.5,-323.5 510.5,-304.5 406.5,-304.5"/>
<text text-anchor="middle" x="458.5" y="-311.5" font-family="Helvetica,sans-Serif" font-size="10.00" fill="#000000">TGeoScaledShape</text>
</a>
</g>
</g>
<!-- Node3&#45;&gt;Node16 -->
<g id="edge16" class="edge">
<title>Node3&#45;&gt;Node16</title>
<path fill="none" stroke="#191970" d="M370.4177,-314C381.986,-314 394.5542,-314 406.4771,-314"/>
<polygon fill="#191970" stroke="#191970" points="370.1221,-310.5001 360.122,-314 370.122,-317.5001 370.1221,-310.5001"/>
</g>
<!-- Node17 -->
<g id="node18" class="node">
<title>Node17</title>
<g id="a_node18"><a xlink:href="classTGeoShapeAssembly.html" target="_top" xlink:title="The shape encapsulating an assembly (union) of volumes. ">
<polygon fill="#ffffff" stroke="#000000" points="398.5,-266.5 398.5,-285.5 518.5,-285.5 518.5,-266.5 398.5,-266.5"/>
<text text-anchor="middle" x="458.5" y="-273.5" font-family="Helvetica,sans-Serif" font-size="10.00" fill="#000000">TGeoShapeAssembly</text>
</a>
</g>
</g>
<!-- Node3&#45;&gt;Node17 -->
<g id="edge17" class="edge">
<title>Node3&#45;&gt;Node17</title>
<path fill="none" stroke="#191970" d="M369.2039,-301.6094C387.3492,-296.4055 408.1294,-290.4459 425.0754,-285.5859"/>
<polygon fill="#191970" stroke="#191970" points="368.0829,-298.2898 359.4353,-304.411 370.0127,-305.0185 368.0829,-298.2898"/>
</g>
<!-- Node18 -->
<g id="node19" class="node">
<title>Node18</title>
<g id="a_node19"><a xlink:href="classTGeoSphere.html" target="_top" xlink:title="Spherical shell class. ">
<polygon fill="#ffffff" stroke="#000000" points="420.5,-228.5 420.5,-247.5 496.5,-247.5 496.5,-228.5 420.5,-228.5"/>
<text text-anchor="middle" x="458.5" y="-235.5" font-family="Helvetica,sans-Serif" font-size="10.00" fill="#000000">TGeoSphere</text>
</a>
</g>
</g>
<!-- Node3&#45;&gt;Node18 -->
<g id="edge18" class="edge">
<title>Node3&#45;&gt;Node18</title>
<path fill="none" stroke="#191970" d="M343.0069,-296.9308C356.3957,-284.3374 376.0667,-267.6132 396,-257 403.5079,-253.0026 411.981,-249.7166 420.2095,-247.0683"/>
<polygon fill="#191970" stroke="#191970" points="340.2974,-294.6819 335.5362,-304.1466 345.1605,-299.7168 340.2974,-294.6819"/>
</g>
<!-- Node19 -->
<g id="node20" class="node">
<title>Node19</title>
<g id="a_node20"><a xlink:href="classTGeoTorus.html" target="_top" xlink:title="Torus segment class. ">
<polygon fill="#ffffff" stroke="#000000" points="424.5,-190.5 424.5,-209.5 492.5,-209.5 492.5,-190.5 424.5,-190.5"/>
<text text-anchor="middle" x="458.5" y="-197.5" font-family="Helvetica,sans-Serif" font-size="10.00" fill="#000000">TGeoTorus</text>
</a>
</g>
</g>
<!-- Node3&#45;&gt;Node19 -->
<g id="edge19" class="edge">
<title>Node3&#45;&gt;Node19</title>
<path fill="none" stroke="#191970" d="M335.0967,-295.2151C346.4465,-273.7143 367.8404,-238.9104 396,-219 404.3341,-213.1073 414.533,-209.0096 424.2556,-206.1731"/>
<polygon fill="#191970" stroke="#191970" points="331.8815,-293.8165 330.4731,-304.3173 338.1225,-296.9867 331.8815,-293.8165"/>
</g>
<!-- Node20 -->
<g id="node21" class="node">
<title>Node20</title>
<g id="a_node21"><a xlink:href="classTGeoTrd1.html" target="_top" xlink:title="A trapezoid with only x length varying with z. ">
<polygon fill="#ffffff" stroke="#000000" points="427.5,-152.5 427.5,-171.5 489.5,-171.5 489.5,-152.5 427.5,-152.5"/>
<text text-anchor="middle" x="458.5" y="-159.5" font-family="Helvetica,sans-Serif" font-size="10.00" fill="#000000">TGeoTrd1</text>
</a>
</g>
</g>
<!-- Node3&#45;&gt;Node20 -->
<g id="edge20" class="edge">
<title>Node3&#45;&gt;Node20</title>
<path fill="none" stroke="#191970" d="M331.021,-294.5632C339.5067,-265.5805 359.4405,-211.2182 396,-181 404.8289,-173.7025 416.4197,-169.2057 427.2188,-166.4356"/>
<polygon fill="#191970" stroke="#191970" points="327.6135,-293.7538 328.3185,-304.3252 334.3598,-295.6215 327.6135,-293.7538"/>
</g>
<!-- Node21 -->
<g id="node22" class="node">
<title>Node21</title>
<g id="a_node22"><a xlink:href="classTGeoTrd2.html" target="_top" xlink:title="A trapezoid with both x and y lengths varying with z. ">
<polygon fill="#ffffff" stroke="#000000" points="427.5,-114.5 427.5,-133.5 489.5,-133.5 489.5,-114.5 427.5,-114.5"/>
<text text-anchor="middle" x="458.5" y="-121.5" font-family="Helvetica,sans-Serif" font-size="10.00" fill="#000000">TGeoTrd2</text>
</a>
</g>
</g>
<!-- Node3&#45;&gt;Node21 -->
<g id="edge21" class="edge">
<title>Node3&#45;&gt;Node21</title>
<path fill="none" stroke="#191970" d="M328.5385,-294.1671C334.136,-258.6632 350.8433,-184.1235 396,-143 404.6366,-135.1348 416.4409,-130.5229 427.4659,-127.8197"/>
<polygon fill="#191970" stroke="#191970" points="325.0504,-293.8342 327.0895,-304.2309 331.9789,-294.8318 325.0504,-293.8342"/>
</g>
<!-- Node22 -->
<g id="node23" class="node">
<title>Node22</title>
<g id="a_node23"><a xlink:href="classTGeoTube.html" target="_top" xlink:title="Cylindrical tube class. ">
<polygon fill="#ffffff" stroke="#000000" points="426,-76.5 426,-95.5 491,-95.5 491,-76.5 426,-76.5"/>
<text text-anchor="middle" x="458.5" y="-83.5" font-family="Helvetica,sans-Serif" font-size="10.00" fill="#000000">TGeoTube</text>
</a>
</g>
</g>
<!-- Node3&#45;&gt;Node22 -->
<g id="edge22" class="edge">
<title>Node3&#45;&gt;Node22</title>
<path fill="none" stroke="#191970" d="M330.1463,-294.4603C340.3968,-247.8682 368.1248,-132.1037 396,-105 404.0497,-97.1731 415.2204,-92.5583 425.8944,-89.8418"/>
<polygon fill="#191970" stroke="#191970" points="326.722,-293.7368 328.0269,-304.251 333.5635,-295.2179 326.722,-293.7368"/>
</g>
<!-- Node27 -->
<g id="node28" class="node">
<title>Node27</title>
<g id="a_node28"><a xlink:href="classTGeoVGShape.html" target="_top" xlink:title="Bridge class for using a VecGeom solid as TGeoShape. ">
<polygon fill="#ffffff" stroke="#000000" points="415.5,-38.5 415.5,-57.5 501.5,-57.5 501.5,-38.5 415.5,-38.5"/>
<text text-anchor="middle" x="458.5" y="-45.5" font-family="Helvetica,sans-Serif" font-size="10.00" fill="#000000">TGeoVGShape</text>
</a>
</g>
</g>
<!-- Node3&#45;&gt;Node27 -->
<g id="edge27" class="edge">
<title>Node3&#45;&gt;Node27</title>
<path fill="none" stroke="#191970" d="M329.1244,-294.1572C337.7918,-241.4952 363.6461,-99.9733 396,-67 401.3217,-61.5764 408.1389,-57.6902 415.3043,-54.9083"/>
<polygon fill="#191970" stroke="#191970" points="325.6358,-293.8063 327.4983,-304.2362 332.5465,-294.9213 325.6358,-293.8063"/>
</g>
<!-- Node28 -->
<g id="node29" class="node">
<title>Node28</title>
<g id="a_node29"><a xlink:href="classTGeoXtru.html" target="_top" xlink:title="An extrusion with fixed outline shape in x&#45;y and a sequence of z extents (segments). ">
<polygon fill="#ffffff" stroke="#000000" points="427.5,-.5 427.5,-19.5 489.5,-19.5 489.5,-.5 427.5,-.5"/>
<text text-anchor="middle" x="458.5" y="-7.5" font-family="Helvetica,sans-Serif" font-size="10.00" fill="#000000">TGeoXtru</text>
</a>
</g>
</g>
<!-- Node3&#45;&gt;Node28 -->
<g id="edge28" class="edge">
<title>Node3&#45;&gt;Node28</title>
<path fill="none" stroke="#191970" d="M328.3084,-294.2433C335.4656,-236.2312 359.0479,-68.0142 396,-29 404.1887,-20.3544 416.1743,-15.6045 427.4647,-13.0091"/>
<polygon fill="#191970" stroke="#191970" points="324.8175,-293.9587 327.0968,-304.3054 331.7673,-294.7955 324.8175,-293.9587"/>
</g>
<!-- Node6 -->
<g id="node7" class="node">
<title>Node6</title>
<g id="a_node7"><a xlink:href="classTGeoTrap.html" target="_top" xlink:title="TRAP is a general trapezoid, i.e. ">
<polygon fill="#ffffff" stroke="#000000" points="568.5,-570.5 568.5,-589.5 630.5,-589.5 630.5,-570.5 568.5,-570.5"/>
<text text-anchor="middle" x="599.5" y="-577.5" font-family="Helvetica,sans-Serif" font-size="10.00" fill="#000000">TGeoTrap</text>
</a>
</g>
</g>
<!-- Node5&#45;&gt;Node6 -->
<g id="edge6" class="edge">
<title>Node5&#45;&gt;Node6</title>
<path fill="none" stroke="#191970" d="M501.4366,-580C523.0451,-580 548.7538,-580 568.4261,-580"/>
<polygon fill="#191970" stroke="#191970" points="501.2027,-576.5001 491.2026,-580 501.2026,-583.5001 501.2027,-576.5001"/>
</g>
<!-- Node7 -->
<g id="node8" class="node">
<title>Node7</title>
<g id="a_node8"><a xlink:href="classTGeoGtra.html" target="_top" xlink:title="Gtra is a twisted trapezoid. ">
<polygon fill="#ffffff" stroke="#000000" points="679,-570.5 679,-589.5 742,-589.5 742,-570.5 679,-570.5"/>
<text text-anchor="middle" x="710.5" y="-577.5" font-family="Helvetica,sans-Serif" font-size="10.00" fill="#000000">TGeoGtra</text>
</a>
</g>
</g>
<!-- Node6&#45;&gt;Node7 -->
<g id="edge7" class="edge">
<title>Node6&#45;&gt;Node7</title>
<path fill="none" stroke="#191970" d="M640.9244,-580C653.4373,-580 666.9721,-580 678.7487,-580"/>
<polygon fill="#191970" stroke="#191970" points="640.7151,-576.5001 630.7151,-580 640.715,-583.5001 640.7151,-576.5001"/>
</g>
<!-- Node10 -->
<g id="node11" class="node">
<title>Node10</title>
<g id="a_node11"><a xlink:href="classTGeoConeSeg.html" target="_top" xlink:title="A phi segment of a conical tube. ">
<polygon fill="#ffffff" stroke="#000000" points="557,-494.5 557,-513.5 642,-513.5 642,-494.5 557,-494.5"/>
<text text-anchor="middle" x="599.5" y="-501.5" font-family="Helvetica,sans-Serif" font-size="10.00" fill="#000000">TGeoConeSeg</text>
</a>
</g>
</g>
<!-- Node9&#45;&gt;Node10 -->
<g id="edge10" class="edge">
<title>Node9&#45;&gt;Node10</title>
<path fill="none" stroke="#191970" d="M502.6813,-504C519.9834,-504 539.7549,-504 556.901,-504"/>
<polygon fill="#191970" stroke="#191970" points="502.273,-500.5001 492.273,-504 502.273,-507.5001 502.273,-500.5001"/>
</g>
<!-- Node15 -->
<g id="node16" class="node">
<title>Node15</title>
<g id="a_node16"><a xlink:href="classTGeoPgon.html" target="_top" xlink:title="A polygone. ">
<polygon fill="#ffffff" stroke="#000000" points="566.5,-342.5 566.5,-361.5 632.5,-361.5 632.5,-342.5 566.5,-342.5"/>
<text text-anchor="middle" x="599.5" y="-349.5" font-family="Helvetica,sans-Serif" font-size="10.00" fill="#000000">TGeoPgon</text>
</a>
</g>
</g>
<!-- Node14&#45;&gt;Node15 -->
<g id="edge15" class="edge">
<title>Node14&#45;&gt;Node15</title>
<path fill="none" stroke="#191970" d="M501.4263,-352C522.3336,-352 547.0814,-352 566.4863,-352"/>
<polygon fill="#191970" stroke="#191970" points="501.2027,-348.5001 491.2026,-352 501.2026,-355.5001 501.2027,-348.5001"/>
</g>
<!-- Node23 -->
<g id="node24" class="node">
<title>Node23</title>
<g id="a_node24"><a xlink:href="classTGeoEltu.html" target="_top" xlink:title="Elliptical tube class. ">
<polygon fill="#ffffff" stroke="#000000" points="569,-114.5 569,-133.5 630,-133.5 630,-114.5 569,-114.5"/>
<text text-anchor="middle" x="599.5" y="-121.5" font-family="Helvetica,sans-Serif" font-size="10.00" fill="#000000">TGeoEltu</text>
</a>
</g>
</g>
<!-- Node22&#45;&gt;Node23 -->
<g id="edge23" class="edge">
<title>Node22&#45;&gt;Node23</title>
<path fill="none" stroke="#191970" d="M500.9182,-97.4318C522.8081,-103.3313 549.0157,-110.3943 568.9051,-115.7546"/>
<polygon fill="#191970" stroke="#191970" points="501.7689,-94.0363 491.2026,-94.8135 499.9473,-100.7952 501.7689,-94.0363"/>
</g>
<!-- Node24 -->
<g id="node25" class="node">
<title>Node24</title>
<g id="a_node25"><a xlink:href="classTGeoHype.html" target="_top" xlink:title="Hyperboloid class defined by 5 parameters. ">
<polygon fill="#ffffff" stroke="#000000" points="565.5,-76.5 565.5,-95.5 633.5,-95.5 633.5,-76.5 565.5,-76.5"/>
<text text-anchor="middle" x="599.5" y="-83.5" font-family="Helvetica,sans-Serif" font-size="10.00" fill="#000000">TGeoHype</text>
</a>
</g>
</g>
<!-- Node22&#45;&gt;Node24 -->
<g id="edge24" class="edge">
<title>Node22&#45;&gt;Node24</title>
<path fill="none" stroke="#191970" d="M501.4778,-86C521.8466,-86 545.8513,-86 565.0075,-86"/>
<polygon fill="#191970" stroke="#191970" points="501.2027,-82.5001 491.2026,-86 501.2026,-89.5001 501.2027,-82.5001"/>
</g>
<!-- Node25 -->
<g id="node26" class="node">
<title>Node25</title>
<g id="a_node26"><a xlink:href="classTGeoTubeSeg.html" target="_top" xlink:title="A phi segment of a tube. ">
<polygon fill="#ffffff" stroke="#000000" points="558,-38.5 558,-57.5 641,-57.5 641,-38.5 558,-38.5"/>
<text text-anchor="middle" x="599.5" y="-45.5" font-family="Helvetica,sans-Serif" font-size="10.00" fill="#000000">TGeoTubeSeg</text>
</a>
</g>
</g>
<!-- Node22&#45;&gt;Node25 -->
<g id="edge25" class="edge">
<title>Node22&#45;&gt;Node25</title>
<path fill="none" stroke="#191970" d="M501.0456,-74.5338C521.1555,-69.1141 544.8864,-62.7186 564.0108,-57.5645"/>
<polygon fill="#191970" stroke="#191970" points="499.9473,-71.2048 491.2026,-77.1865 501.7689,-77.9637 499.9473,-71.2048"/>
</g>
<!-- Node26 -->
<g id="node27" class="node">
<title>Node26</title>
<g id="a_node27"><a xlink:href="classTGeoCtub.html" target="_top" xlink:title="A tube segment cut with 2 planes. ">
<polygon fill="#ffffff" stroke="#000000" points="678,-38.5 678,-57.5 743,-57.5 743,-38.5 678,-38.5"/>
<text text-anchor="middle" x="710.5" y="-45.5" font-family="Helvetica,sans-Serif" font-size="10.00" fill="#000000">TGeoCtub</text>
</a>
</g>
</g>
<!-- Node25&#45;&gt;Node26 -->
<g id="edge26" class="edge">
<title>Node25&#45;&gt;Node26</title>
<path fill="none" stroke="#191970" d="M651.3008,-48C660.3896,-48 669.6112,-48 677.9849,-48"/>
<polygon fill="#191970" stroke="#191970" points="651.1481,-44.5001 641.1481,-48 651.1481,-51.5001 651.1481,-44.5001"/>
</g>
</g>
</svg>
