<?xml version="1.0" encoding="UTF-8" standalone="no"?>
<!DOCTYPE svg PUBLIC "-//W3C//DTD SVG 1.1//EN"
 "http://www.w3.org/Graphics/SVG/1.1/DTD/svg11.dtd">
<!-- Generated by graphviz version 2.40.1 (0)
 -->
<!-- Title: ROOT::Experimental::RHistDataMomentUncert&lt; DIMENSIONS, PRECISION &gt; Pages: 1 -->
<svg width="168pt" height="139pt"
 viewBox="0.00 0.00 168.00 139.00" xmlns="http://www.w3.org/2000/svg" xmlns:xlink="http://www.w3.org/1999/xlink">
<g id="graph0" class="graph" transform="scale(1 1) rotate(0) translate(4 135)">
<title>ROOT::Experimental::RHistDataMomentUncert&lt; DIMENSIONS, PRECISION &gt;</title>
<polygon fill="#ffffff" stroke="transparent" points="-4,4 -4,-135 164,-135 164,4 -4,4"/>
<!-- Node1 -->
<g id="node1" class="node">
<title>Node1</title>
<polygon fill="#bfbfbf" stroke="#000000" points="0,-.5 0,-41.5 160,-41.5 160,-.5 0,-.5"/>
<text text-anchor="start" x="8" y="-29.5" font-family="Helvetica,sans-Serif" font-size="10.00" fill="#000000">ROOT::Experimental</text>
<text text-anchor="start" x="8" y="-18.5" font-family="Helvetica,sans-Serif" font-size="10.00" fill="#000000">::RHistDataMomentUncert</text>
<text text-anchor="middle" x="80" y="-7.5" font-family="Helvetica,sans-Serif" font-size="10.00" fill="#000000">&lt; DIMENSIONS, PRECISION &gt;</text>
</g>
<!-- Node2 -->
<g id="node2" class="node">
<title>Node2</title>
<polygon fill="#ffffff" stroke="#bfbfbf" points="26,-100.5 26,-130.5 134,-130.5 134,-100.5 26,-100.5"/>
<text text-anchor="start" x="34" y="-118.5" font-family="Helvetica,sans-Serif" font-size="10.00" fill="#000000">std::array&lt; Weight</text>
<text text-anchor="middle" x="80" y="-107.5" font-family="Helvetica,sans-Serif" font-size="10.00" fill="#000000">_t, DIMENSIONS &gt;</text>
</g>
<!-- Node2&#45;&gt;Node1 -->
<g id="edge1" class="edge">
<title>Node2&#45;&gt;Node1</title>
<path fill="none" stroke="#9a32cd" stroke-dasharray="5,2" d="M80,-90.1013C80,-74.9736 80,-56.0135 80,-41.7823"/>
<polygon fill="#9a32cd" stroke="#9a32cd" points="76.5001,-90.3169 80,-100.3169 83.5001,-90.317 76.5001,-90.3169"/>
<text text-anchor="middle" x="113.5" y="-74" font-family="Helvetica,sans-Serif" font-size="10.00" fill="#000000"> fMomentXW</text>
<text text-anchor="middle" x="113.5" y="-63" font-family="Helvetica,sans-Serif" font-size="10.00" fill="#000000">fMomentX2W</text>
</g>
</g>
</svg>
