<?xml version="1.0" encoding="UTF-8" standalone="no"?>
<!DOCTYPE svg PUBLIC "-//W3C//DTD SVG 1.1//EN"
 "http://www.w3.org/Graphics/SVG/1.1/DTD/svg11.dtd">
<!-- Generated by graphviz version 2.40.1 (0)
 -->
<!-- Title: RooArgusBG Pages: 1 -->
<svg width="162pt" height="308pt"
 viewBox="0.00 0.00 162.00 308.00" xmlns="http://www.w3.org/2000/svg" xmlns:xlink="http://www.w3.org/1999/xlink">
<g id="graph0" class="graph" transform="scale(1 1) rotate(0) translate(4 304)">
<title>RooArgusBG</title>
<polygon fill="#ffffff" stroke="transparent" points="-4,4 -4,-304 158,-304 158,4 -4,4"/>
<!-- Node0 -->
<g id="node1" class="node">
<title>Node0</title>
<polygon fill="#bfbfbf" stroke="#000000" points="33.5,-.5 33.5,-19.5 110.5,-19.5 110.5,-.5 33.5,-.5"/>
<text text-anchor="middle" x="72" y="-7.5" font-family="Helvetica,sans-Serif" font-size="10.00" fill="#000000">RooArgusBG</text>
</g>
<!-- Node1 -->
<g id="node2" class="node">
<title>Node1</title>
<g id="a_node2"><a xlink:href="classRooAbsPdf.html" target="_top" xlink:title="RooAbsPdf, the base class of all PDFs">
<polygon fill="#ffffff" stroke="#000000" points="38,-56.5 38,-75.5 106,-75.5 106,-56.5 38,-56.5"/>
<text text-anchor="middle" x="72" y="-63.5" font-family="Helvetica,sans-Serif" font-size="10.00" fill="#000000">RooAbsPdf</text>
</a>
</g>
</g>
<!-- Node1&#45;&gt;Node0 -->
<g id="edge1" class="edge">
<title>Node1&#45;&gt;Node0</title>
<path fill="none" stroke="#191970" d="M72,-46.1575C72,-37.155 72,-26.9199 72,-19.6427"/>
<polygon fill="#191970" stroke="#191970" points="68.5001,-46.2455 72,-56.2455 75.5001,-46.2456 68.5001,-46.2455"/>
</g>
<!-- Node2 -->
<g id="node3" class="node">
<title>Node2</title>
<g id="a_node3"><a xlink:href="classRooAbsReal.html" target="_top" xlink:title="RooAbsReal is the common abstract base class for objects that represent a real value and implements f...">
<polygon fill="#ffffff" stroke="#000000" points="35,-112.5 35,-131.5 109,-131.5 109,-112.5 35,-112.5"/>
<text text-anchor="middle" x="72" y="-119.5" font-family="Helvetica,sans-Serif" font-size="10.00" fill="#000000">RooAbsReal</text>
</a>
</g>
</g>
<!-- Node2&#45;&gt;Node1 -->
<g id="edge2" class="edge">
<title>Node2&#45;&gt;Node1</title>
<path fill="none" stroke="#191970" d="M72,-102.1575C72,-93.155 72,-82.9199 72,-75.6427"/>
<polygon fill="#191970" stroke="#191970" points="68.5001,-102.2455 72,-112.2455 75.5001,-102.2456 68.5001,-102.2455"/>
</g>
<!-- Node3 -->
<g id="node4" class="node">
<title>Node3</title>
<g id="a_node4"><a xlink:href="classRooAbsArg.html" target="_top" xlink:title="RooAbsArg is the common abstract base class for objects that represent a value (of arbitrary type) an...">
<polygon fill="#ffffff" stroke="#000000" points="37.5,-168.5 37.5,-187.5 106.5,-187.5 106.5,-168.5 37.5,-168.5"/>
<text text-anchor="middle" x="72" y="-175.5" font-family="Helvetica,sans-Serif" font-size="10.00" fill="#000000">RooAbsArg</text>
</a>
</g>
</g>
<!-- Node3&#45;&gt;Node2 -->
<g id="edge3" class="edge">
<title>Node3&#45;&gt;Node2</title>
<path fill="none" stroke="#191970" d="M72,-158.1575C72,-149.155 72,-138.9199 72,-131.6427"/>
<polygon fill="#191970" stroke="#191970" points="68.5001,-158.2455 72,-168.2455 75.5001,-158.2456 68.5001,-158.2455"/>
</g>
<!-- Node4 -->
<g id="node5" class="node">
<title>Node4</title>
<g id="a_node5"><a xlink:href="classTNamed.html" target="_top" xlink:title="The TNamed class is the base class for all named ROOT classes. ">
<polygon fill="#ffffff" stroke="#000000" points="0,-224.5 0,-243.5 58,-243.5 58,-224.5 0,-224.5"/>
<text text-anchor="middle" x="29" y="-231.5" font-family="Helvetica,sans-Serif" font-size="10.00" fill="#000000">TNamed</text>
</a>
</g>
</g>
<!-- Node4&#45;&gt;Node3 -->
<g id="edge4" class="edge">
<title>Node4&#45;&gt;Node3</title>
<path fill="none" stroke="#191970" d="M42.6592,-216.2112C49.9263,-206.7472 58.5781,-195.4797 64.5958,-187.6427"/>
<polygon fill="#191970" stroke="#191970" points="39.8043,-214.1824 36.49,-224.2455 45.3564,-218.4456 39.8043,-214.1824"/>
</g>
<!-- Node5 -->
<g id="node6" class="node">
<title>Node5</title>
<g id="a_node6"><a xlink:href="classTObject.html" target="_top" xlink:title="Mother of all ROOT objects. ">
<polygon fill="#ffffff" stroke="#000000" points="2,-280.5 2,-299.5 56,-299.5 56,-280.5 2,-280.5"/>
<text text-anchor="middle" x="29" y="-287.5" font-family="Helvetica,sans-Serif" font-size="10.00" fill="#000000">TObject</text>
</a>
</g>
</g>
<!-- Node5&#45;&gt;Node4 -->
<g id="edge5" class="edge">
<title>Node5&#45;&gt;Node4</title>
<path fill="none" stroke="#191970" d="M29,-270.1575C29,-261.155 29,-250.9199 29,-243.6427"/>
<polygon fill="#191970" stroke="#191970" points="25.5001,-270.2455 29,-280.2455 32.5001,-270.2456 25.5001,-270.2455"/>
</g>
<!-- Node6 -->
<g id="node7" class="node">
<title>Node6</title>
<g id="a_node7"><a xlink:href="classRooPrintable.html" target="_top" xlink:title="RooPlotable is a &#39;mix&#45;in&#39; base class that define the standard RooFit plotting and printing methods...">
<polygon fill="#ffffff" stroke="#000000" points="76,-224.5 76,-243.5 154,-243.5 154,-224.5 76,-224.5"/>
<text text-anchor="middle" x="115" y="-231.5" font-family="Helvetica,sans-Serif" font-size="10.00" fill="#000000">RooPrintable</text>
</a>
</g>
</g>
<!-- Node6&#45;&gt;Node3 -->
<g id="edge6" class="edge">
<title>Node6&#45;&gt;Node3</title>
<path fill="none" stroke="#191970" d="M101.3408,-216.2112C94.0737,-206.7472 85.4219,-195.4797 79.4042,-187.6427"/>
<polygon fill="#191970" stroke="#191970" points="98.6436,-218.4456 107.51,-224.2455 104.1957,-214.1824 98.6436,-218.4456"/>
</g>
</g>
</svg>
