<?xml version="1.0" encoding="UTF-8" standalone="no"?>
<!DOCTYPE svg PUBLIC "-//W3C//DTD SVG 1.1//EN"
 "http://www.w3.org/Graphics/SVG/1.1/DTD/svg11.dtd">
<!-- Generated by graphviz version 2.40.1 (0)
 -->
<!-- Title: RooStats::HistFactory::Channel Pages: 1 -->
<svg width="788pt" height="243pt"
 viewBox="0.00 0.00 788.00 242.57" xmlns="http://www.w3.org/2000/svg" xmlns:xlink="http://www.w3.org/1999/xlink">
<g id="graph0" class="graph" transform="scale(1 1) rotate(0) translate(4 238.5697)">
<title>RooStats::HistFactory::Channel</title>
<polygon fill="#ffffff" stroke="transparent" points="-4,4 -4,-238.5697 784,-238.5697 784,4 -4,4"/>
<!-- Node1 -->
<g id="node1" class="node">
<title>Node1</title>
<polygon fill="#bfbfbf" stroke="#000000" points="660,-106.0697 660,-136.0697 780,-136.0697 780,-106.0697 660,-106.0697"/>
<text text-anchor="start" x="668" y="-124.0697" font-family="Helvetica,sans-Serif" font-size="10.00" fill="#000000">RooStats::HistFactory</text>
<text text-anchor="middle" x="720" y="-113.0697" font-family="Helvetica,sans-Serif" font-size="10.00" fill="#000000">::Channel</text>
</g>
<!-- Node2 -->
<g id="node2" class="node">
<title>Node2</title>
<polygon fill="#ffffff" stroke="#bfbfbf" points="412,-204.0697 412,-234.0697 543,-234.0697 543,-204.0697 412,-204.0697"/>
<text text-anchor="start" x="420" y="-222.0697" font-family="Helvetica,sans-Serif" font-size="10.00" fill="#000000">std::vector&lt; RooStats</text>
<text text-anchor="middle" x="477.5" y="-211.0697" font-family="Helvetica,sans-Serif" font-size="10.00" fill="#000000">::HistFactory::Sample &gt;</text>
</g>
<!-- Node2&#45;&gt;Node1 -->
<g id="edge1" class="edge">
<title>Node2&#45;&gt;Node1</title>
<path fill="none" stroke="#9a32cd" stroke-dasharray="5,2" d="M546.1263,-201.1559C576.1378,-192.3644 611.4022,-180.7158 642,-167.0697 661.5268,-158.3611 682.3201,-145.923 697.5232,-136.1757"/>
<polygon fill="#9a32cd" stroke="#9a32cd" points="544.804,-197.8944 536.1642,-204.0266 546.7423,-204.6207 544.804,-197.8944"/>
<text text-anchor="middle" x="601.5" y="-199.0697" font-family="Helvetica,sans-Serif" font-size="10.00" fill="#000000"> fSamples</text>
</g>
<!-- Node3 -->
<g id="node3" class="node">
<title>Node3</title>
<polygon fill="#ffffff" stroke="#bfbfbf" points="416.5,-155.0697 416.5,-185.0697 538.5,-185.0697 538.5,-155.0697 416.5,-155.0697"/>
<text text-anchor="start" x="424.5" y="-173.0697" font-family="Helvetica,sans-Serif" font-size="10.00" fill="#000000">std::vector&lt; RooStats</text>
<text text-anchor="middle" x="477.5" y="-162.0697" font-family="Helvetica,sans-Serif" font-size="10.00" fill="#000000">::HistFactory::Data &gt;</text>
</g>
<!-- Node3&#45;&gt;Node1 -->
<g id="edge2" class="edge">
<title>Node3&#45;&gt;Node1</title>
<path fill="none" stroke="#9a32cd" stroke-dasharray="5,2" d="M548.9046,-155.6416C584.1064,-148.5286 626.0951,-140.0443 659.6666,-133.2608"/>
<polygon fill="#9a32cd" stroke="#9a32cd" points="547.8017,-152.2936 538.693,-157.705 549.1881,-159.155 547.8017,-152.2936"/>
<text text-anchor="middle" x="601.5" y="-155.0697" font-family="Helvetica,sans-Serif" font-size="10.00" fill="#000000"> fAdditionalData</text>
</g>
<!-- Node4 -->
<g id="node4" class="node">
<title>Node4</title>
<g id="a_node4"><a xlink:href="classRooStats_1_1HistFactory_1_1StatErrorConfig.html" target="_top" xlink:title="Configuration to automatically assign nuisance parameters for the statistical error of the Monte Carl...">
<polygon fill="#ffffff" stroke="#000000" points="417.5,-106.0697 417.5,-136.0697 537.5,-136.0697 537.5,-106.0697 417.5,-106.0697"/>
<text text-anchor="start" x="425.5" y="-124.0697" font-family="Helvetica,sans-Serif" font-size="10.00" fill="#000000">RooStats::HistFactory</text>
<text text-anchor="middle" x="477.5" y="-113.0697" font-family="Helvetica,sans-Serif" font-size="10.00" fill="#000000">::StatErrorConfig</text>
</a>
</g>
</g>
<!-- Node4&#45;&gt;Node1 -->
<g id="edge3" class="edge">
<title>Node4&#45;&gt;Node1</title>
<path fill="none" stroke="#9a32cd" stroke-dasharray="5,2" d="M548.0099,-121.0697C583.382,-121.0697 625.7833,-121.0697 659.6343,-121.0697"/>
<polygon fill="#9a32cd" stroke="#9a32cd" points="547.7554,-117.5698 537.7554,-121.0697 547.7554,-124.5698 547.7554,-117.5698"/>
<text text-anchor="middle" x="601.5" y="-124.0697" font-family="Helvetica,sans-Serif" font-size="10.00" fill="#000000"> fStatErrorConfig</text>
</g>
<!-- Node5 -->
<g id="node5" class="node">
<title>Node5</title>
<g id="a_node5"><a xlink:href="classRooStats_1_1HistFactory_1_1Data.html" target="_top" xlink:title="RooStats::HistFactory\l::Data">
<polygon fill="#ffffff" stroke="#000000" points="417.5,-57.0697 417.5,-87.0697 537.5,-87.0697 537.5,-57.0697 417.5,-57.0697"/>
<text text-anchor="start" x="425.5" y="-75.0697" font-family="Helvetica,sans-Serif" font-size="10.00" fill="#000000">RooStats::HistFactory</text>
<text text-anchor="middle" x="477.5" y="-64.0697" font-family="Helvetica,sans-Serif" font-size="10.00" fill="#000000">::Data</text>
</a>
</g>
</g>
<!-- Node5&#45;&gt;Node1 -->
<g id="edge4" class="edge">
<title>Node5&#45;&gt;Node1</title>
<path fill="none" stroke="#9a32cd" stroke-dasharray="5,2" d="M548.0099,-86.3171C583.382,-93.4644 625.7833,-102.0321 659.6343,-108.8721"/>
<polygon fill="#9a32cd" stroke="#9a32cd" points="548.2505,-82.795 537.7554,-84.245 546.8641,-89.6564 548.2505,-82.795"/>
<text text-anchor="middle" x="601.5" y="-108.0697" font-family="Helvetica,sans-Serif" font-size="10.00" fill="#000000"> fData</text>
</g>
<!-- Node6 -->
<g id="node6" class="node">
<title>Node6</title>
<g id="a_node6"><a xlink:href="classRooStats_1_1HistFactory_1_1HistRef.html" target="_top" xlink:title="Internal class wrapping an histogram and managing its content. ">
<polygon fill="#ffffff" stroke="#000000" points="194,-90.0697 194,-120.0697 314,-120.0697 314,-90.0697 194,-90.0697"/>
<text text-anchor="start" x="202" y="-108.0697" font-family="Helvetica,sans-Serif" font-size="10.00" fill="#000000">RooStats::HistFactory</text>
<text text-anchor="middle" x="254" y="-97.0697" font-family="Helvetica,sans-Serif" font-size="10.00" fill="#000000">::HistRef</text>
</a>
</g>
</g>
<!-- Node6&#45;&gt;Node5 -->
<g id="edge5" class="edge">
<title>Node6&#45;&gt;Node5</title>
<path fill="none" stroke="#9a32cd" stroke-dasharray="5,2" d="M324.1257,-94.7156C353.9973,-90.305 388.4985,-85.2109 417.2046,-80.9724"/>
<polygon fill="#9a32cd" stroke="#9a32cd" points="323.5694,-91.2597 314.1879,-96.1829 324.5919,-98.1846 323.5694,-91.2597"/>
<text text-anchor="middle" x="363" y="-96.0697" font-family="Helvetica,sans-Serif" font-size="10.00" fill="#000000"> fhData</text>
</g>
<!-- Node7 -->
<g id="node7" class="node">
<title>Node7</title>
<polygon fill="#ffffff" stroke="#bfbfbf" points="0,-95.5697 0,-114.5697 131,-114.5697 131,-95.5697 0,-95.5697"/>
<text text-anchor="middle" x="65.5" y="-102.5697" font-family="Helvetica,sans-Serif" font-size="10.00" fill="#000000">std::unique_ptr&lt; TH1 &gt;</text>
</g>
<!-- Node7&#45;&gt;Node6 -->
<g id="edge6" class="edge">
<title>Node7&#45;&gt;Node6</title>
<path fill="none" stroke="#9a32cd" stroke-dasharray="5,2" d="M141.3445,-105.0697C158.8414,-105.0697 177.2189,-105.0697 193.9364,-105.0697"/>
<polygon fill="#9a32cd" stroke="#9a32cd" points="141.1636,-101.5698 131.1635,-105.0697 141.1635,-108.5698 141.1636,-101.5698"/>
<text text-anchor="middle" x="162.5" y="-108.0697" font-family="Helvetica,sans-Serif" font-size="10.00" fill="#000000"> fHist</text>
</g>
<!-- Node8 -->
<g id="node8" class="node">
<title>Node8</title>
<g id="a_node8"><a xlink:title="STL class. ">
<polygon fill="#ffffff" stroke="#bfbfbf" points="221.5,-11.5697 221.5,-30.5697 286.5,-30.5697 286.5,-11.5697 221.5,-11.5697"/>
<text text-anchor="middle" x="254" y="-18.5697" font-family="Helvetica,sans-Serif" font-size="10.00" fill="#000000">std::string</text>
</a>
</g>
</g>
<!-- Node8&#45;&gt;Node1 -->
<g id="edge9" class="edge">
<title>Node8&#45;&gt;Node1</title>
<path fill="none" stroke="#9a32cd" stroke-dasharray="5,2" d="M296.9794,-12.3446C354.2912,-2.4298 458.3472,9.529 543,-14.0697 607.6812,-32.1009 672.3117,-80.8832 702.4526,-105.87"/>
<polygon fill="#9a32cd" stroke="#9a32cd" points="296.0626,-8.9531 286.8373,-14.1631 297.298,-15.8432 296.0626,-8.9531"/>
<text text-anchor="middle" x="477.5" y="-39.0697" font-family="Helvetica,sans-Serif" font-size="10.00" fill="#000000"> fHistoPath</text>
<text text-anchor="middle" x="477.5" y="-28.0697" font-family="Helvetica,sans-Serif" font-size="10.00" fill="#000000">fName</text>
<text text-anchor="middle" x="477.5" y="-17.0697" font-family="Helvetica,sans-Serif" font-size="10.00" fill="#000000">fInputFile</text>
</g>
<!-- Node8&#45;&gt;Node5 -->
<g id="edge7" class="edge">
<title>Node8&#45;&gt;Node5</title>
<path fill="none" stroke="#9a32cd" stroke-dasharray="5,2" d="M297.0085,-22.3435C325.0158,-23.9842 362.1344,-27.6986 394,-36.0697 404.1535,-38.7371 426.2946,-48.3497 445.2268,-56.9711"/>
<polygon fill="#9a32cd" stroke="#9a32cd" points="296.9185,-18.8342 286.7504,-21.8109 296.5554,-25.8248 296.9185,-18.8342"/>
<text text-anchor="middle" x="363" y="-72.0697" font-family="Helvetica,sans-Serif" font-size="10.00" fill="#000000"> fHistoName</text>
<text text-anchor="middle" x="363" y="-61.0697" font-family="Helvetica,sans-Serif" font-size="10.00" fill="#000000">fHistoPath</text>
<text text-anchor="middle" x="363" y="-50.0697" font-family="Helvetica,sans-Serif" font-size="10.00" fill="#000000">fName</text>
<text text-anchor="middle" x="363" y="-39.0697" font-family="Helvetica,sans-Serif" font-size="10.00" fill="#000000">fInputFile</text>
</g>
<!-- Node9 -->
<g id="node9" class="node">
<title>Node9</title>
<polygon fill="#ffffff" stroke="#bfbfbf" points="13.5,-6.0697 13.5,-36.0697 117.5,-36.0697 117.5,-6.0697 13.5,-6.0697"/>
<text text-anchor="start" x="21.5" y="-24.0697" font-family="Helvetica,sans-Serif" font-size="10.00" fill="#000000">std::basic_string&lt;</text>
<text text-anchor="middle" x="65.5" y="-13.0697" font-family="Helvetica,sans-Serif" font-size="10.00" fill="#000000"> char &gt;</text>
</g>
<!-- Node9&#45;&gt;Node8 -->
<g id="edge8" class="edge">
<title>Node9&#45;&gt;Node8</title>
<path fill="none" stroke="#191970" d="M127.8845,-21.0697C159.1518,-21.0697 195.7224,-21.0697 221.407,-21.0697"/>
<polygon fill="#191970" stroke="#191970" points="127.5075,-17.5698 117.5074,-21.0697 127.5074,-24.5698 127.5075,-17.5698"/>
</g>
</g>
</svg>
