<?xml version="1.0" encoding="UTF-8" standalone="no"?>
<!DOCTYPE svg PUBLIC "-//W3C//DTD SVG 1.1//EN"
 "http://www.w3.org/Graphics/SVG/1.1/DTD/svg11.dtd">
<!-- Generated by graphviz version 2.40.1 (0)
 -->
<!-- Title: TInspectCanvas Pages: 1 -->
<svg width="356pt" height="252pt"
 viewBox="0.00 0.00 356.00 252.00" xmlns="http://www.w3.org/2000/svg" xmlns:xlink="http://www.w3.org/1999/xlink">
<g id="graph0" class="graph" transform="scale(1 1) rotate(0) translate(4 248)">
<title>TInspectCanvas</title>
<polygon fill="#ffffff" stroke="transparent" points="-4,4 -4,-248 352,-248 352,4 -4,4"/>
<!-- Node0 -->
<g id="node1" class="node">
<title>Node0</title>
<polygon fill="#bfbfbf" stroke="#000000" points="207,-.5 207,-19.5 301,-19.5 301,-.5 207,-.5"/>
<text text-anchor="middle" x="254" y="-7.5" font-family="Helvetica,sans-Serif" font-size="10.00" fill="#000000">TInspectCanvas</text>
</g>
<!-- Node1 -->
<g id="node2" class="node">
<title>Node1</title>
<g id="a_node2"><a xlink:href="classTCanvas.html" target="_top" xlink:title="The Canvas class. ">
<polygon fill="#ffffff" stroke="#000000" points="188,-56.5 188,-75.5 246,-75.5 246,-56.5 188,-56.5"/>
<text text-anchor="middle" x="217" y="-63.5" font-family="Helvetica,sans-Serif" font-size="10.00" fill="#000000">TCanvas</text>
</a>
</g>
</g>
<!-- Node1&#45;&gt;Node0 -->
<g id="edge1" class="edge">
<title>Node1&#45;&gt;Node0</title>
<path fill="none" stroke="#191970" d="M229.1376,-47.6296C235.3093,-38.2887 242.5566,-27.3197 247.6289,-19.6427"/>
<polygon fill="#191970" stroke="#191970" points="226.0373,-45.9728 223.4449,-56.2455 231.8777,-49.8316 226.0373,-45.9728"/>
</g>
<!-- Node2 -->
<g id="node3" class="node">
<title>Node2</title>
<g id="a_node3"><a xlink:href="classTPad.html" target="_top" xlink:title="The most important graphics class in the ROOT system. ">
<polygon fill="#ffffff" stroke="#000000" points="197,-112.5 197,-131.5 237,-131.5 237,-112.5 197,-112.5"/>
<text text-anchor="middle" x="217" y="-119.5" font-family="Helvetica,sans-Serif" font-size="10.00" fill="#000000">TPad</text>
</a>
</g>
</g>
<!-- Node2&#45;&gt;Node1 -->
<g id="edge2" class="edge">
<title>Node2&#45;&gt;Node1</title>
<path fill="none" stroke="#191970" d="M217,-102.1575C217,-93.155 217,-82.9199 217,-75.6427"/>
<polygon fill="#191970" stroke="#191970" points="213.5001,-102.2455 217,-112.2455 220.5001,-102.2456 213.5001,-102.2455"/>
</g>
<!-- Node3 -->
<g id="node4" class="node">
<title>Node3</title>
<g id="a_node4"><a xlink:href="classTVirtualPad.html" target="_top" xlink:title="TVirtualPad is an abstract base class for the Pad and Canvas classes. ">
<polygon fill="#ffffff" stroke="#000000" points="135,-168.5 135,-187.5 207,-187.5 207,-168.5 135,-168.5"/>
<text text-anchor="middle" x="171" y="-175.5" font-family="Helvetica,sans-Serif" font-size="10.00" fill="#000000">TVirtualPad</text>
</a>
</g>
</g>
<!-- Node3&#45;&gt;Node2 -->
<g id="edge3" class="edge">
<title>Node3&#45;&gt;Node2</title>
<path fill="none" stroke="#191970" d="M185.3747,-160.5004C193.1971,-150.9775 202.576,-139.5596 209.0792,-131.6427"/>
<polygon fill="#191970" stroke="#191970" points="182.6555,-158.2967 179.0126,-168.2455 188.0646,-162.7399 182.6555,-158.2967"/>
</g>
<!-- Node4 -->
<g id="node5" class="node">
<title>Node4</title>
<g id="a_node5"><a xlink:href="classTObject.html" target="_top" xlink:title="Mother of all ROOT objects. ">
<polygon fill="#ffffff" stroke="#000000" points="0,-224.5 0,-243.5 54,-243.5 54,-224.5 0,-224.5"/>
<text text-anchor="middle" x="27" y="-231.5" font-family="Helvetica,sans-Serif" font-size="10.00" fill="#000000">TObject</text>
</a>
</g>
</g>
<!-- Node4&#45;&gt;Node3 -->
<g id="edge4" class="edge">
<title>Node4&#45;&gt;Node3</title>
<path fill="none" stroke="#191970" d="M61.3182,-220.6541C87.578,-210.4419 123.1492,-196.6086 146.5685,-187.5011"/>
<polygon fill="#191970" stroke="#191970" points="59.806,-217.4867 51.7545,-224.3733 62.3431,-224.0108 59.806,-217.4867"/>
</g>
<!-- Node5 -->
<g id="node6" class="node">
<title>Node5</title>
<g id="a_node6"><a xlink:href="classTAttLine.html" target="_top" xlink:title="Line Attributes class. ">
<polygon fill="#ffffff" stroke="#000000" points="72,-224.5 72,-243.5 128,-243.5 128,-224.5 72,-224.5"/>
<text text-anchor="middle" x="100" y="-231.5" font-family="Helvetica,sans-Serif" font-size="10.00" fill="#000000">TAttLine</text>
</a>
</g>
</g>
<!-- Node5&#45;&gt;Node3 -->
<g id="edge5" class="edge">
<title>Node5&#45;&gt;Node3</title>
<path fill="none" stroke="#191970" d="M120.377,-217.928C132.7871,-208.1397 148.23,-195.9595 158.7745,-187.6427"/>
<polygon fill="#191970" stroke="#191970" points="118.0514,-215.3046 112.3673,-224.2455 122.3864,-220.8007 118.0514,-215.3046"/>
</g>
<!-- Node6 -->
<g id="node7" class="node">
<title>Node6</title>
<g id="a_node7"><a xlink:href="classTAttFill.html" target="_top" xlink:title="Fill Area Attributes class. ">
<polygon fill="#ffffff" stroke="#000000" points="146,-224.5 146,-243.5 196,-243.5 196,-224.5 146,-224.5"/>
<text text-anchor="middle" x="171" y="-231.5" font-family="Helvetica,sans-Serif" font-size="10.00" fill="#000000">TAttFill</text>
</a>
</g>
</g>
<!-- Node6&#45;&gt;Node3 -->
<g id="edge6" class="edge">
<title>Node6&#45;&gt;Node3</title>
<path fill="none" stroke="#191970" d="M171,-214.1575C171,-205.155 171,-194.9199 171,-187.6427"/>
<polygon fill="#191970" stroke="#191970" points="167.5001,-214.2455 171,-224.2455 174.5001,-214.2456 167.5001,-214.2455"/>
</g>
<!-- Node7 -->
<g id="node8" class="node">
<title>Node7</title>
<g id="a_node8"><a xlink:href="classTAttPad.html" target="_top" xlink:title="Manages default Pad attributes. ">
<polygon fill="#ffffff" stroke="#000000" points="214.5,-224.5 214.5,-243.5 267.5,-243.5 267.5,-224.5 214.5,-224.5"/>
<text text-anchor="middle" x="241" y="-231.5" font-family="Helvetica,sans-Serif" font-size="10.00" fill="#000000">TAttPad</text>
</a>
</g>
</g>
<!-- Node7&#45;&gt;Node3 -->
<g id="edge7" class="edge">
<title>Node7&#45;&gt;Node3</title>
<path fill="none" stroke="#191970" d="M220.91,-217.928C208.6747,-208.1397 193.4493,-195.9595 183.0533,-187.6427"/>
<polygon fill="#191970" stroke="#191970" points="218.8118,-220.7316 228.8069,-224.2455 223.1847,-215.2655 218.8118,-220.7316"/>
</g>
<!-- Node8 -->
<g id="node9" class="node">
<title>Node8</title>
<g id="a_node9"><a xlink:href="classTQObject.html" target="_top" xlink:title="This is the ROOT implementation of the Qt object communication mechanism (see also http://www...">
<polygon fill="#ffffff" stroke="#000000" points="286,-224.5 286,-243.5 348,-243.5 348,-224.5 286,-224.5"/>
<text text-anchor="middle" x="317" y="-231.5" font-family="Helvetica,sans-Serif" font-size="10.00" fill="#000000">TQObject</text>
</a>
</g>
</g>
<!-- Node8&#45;&gt;Node3 -->
<g id="edge8" class="edge">
<title>Node8&#45;&gt;Node3</title>
<path fill="none" stroke="#191970" d="M282.5565,-220.7888C255.8987,-210.5639 219.62,-196.6488 195.7708,-187.5011"/>
<polygon fill="#191970" stroke="#191970" points="281.3115,-224.0598 291.9017,-224.3733 283.8184,-217.5241 281.3115,-224.0598"/>
</g>
<!-- Node9 -->
<g id="node10" class="node">
<title>Node9</title>
<g id="a_node10"><a xlink:href="classTAttBBox2D.html" target="_top" xlink:title="Abstract base class for elements drawn in the editor. ">
<polygon fill="#ffffff" stroke="#000000" points="225.5,-168.5 225.5,-187.5 300.5,-187.5 300.5,-168.5 225.5,-168.5"/>
<text text-anchor="middle" x="263" y="-175.5" font-family="Helvetica,sans-Serif" font-size="10.00" fill="#000000">TAttBBox2D</text>
</a>
</g>
</g>
<!-- Node9&#45;&gt;Node2 -->
<g id="edge9" class="edge">
<title>Node9&#45;&gt;Node2</title>
<path fill="none" stroke="#191970" d="M248.6253,-160.5004C240.8029,-150.9775 231.424,-139.5596 224.9208,-131.6427"/>
<polygon fill="#191970" stroke="#191970" points="245.9354,-162.7399 254.9874,-168.2455 251.3445,-158.2967 245.9354,-162.7399"/>
</g>
<!-- Node10 -->
<g id="node11" class="node">
<title>Node10</title>
<g id="a_node11"><a xlink:href="classTAttText.html" target="_top" xlink:title="Text Attributes class. ">
<polygon fill="#ffffff" stroke="#000000" points="264,-56.5 264,-75.5 320,-75.5 320,-56.5 264,-56.5"/>
<text text-anchor="middle" x="292" y="-63.5" font-family="Helvetica,sans-Serif" font-size="10.00" fill="#000000">TAttText</text>
</a>
</g>
</g>
<!-- Node10&#45;&gt;Node0 -->
<g id="edge10" class="edge">
<title>Node10&#45;&gt;Node0</title>
<path fill="none" stroke="#191970" d="M279.7321,-47.9209C273.3512,-38.5176 265.8069,-27.3997 260.5432,-19.6427"/>
<polygon fill="#191970" stroke="#191970" points="276.8697,-49.936 285.3809,-56.2455 282.662,-46.0055 276.8697,-49.936"/>
</g>
</g>
</svg>
