<?xml version="1.0" encoding="UTF-8" standalone="no"?>
<!DOCTYPE svg PUBLIC "-//W3C//DTD SVG 1.1//EN"
 "http://www.w3.org/Graphics/SVG/1.1/DTD/svg11.dtd">
<!-- Generated by graphviz version 2.40.1 (0)
 -->
<!-- Title: TVirtualPacketizer Pages: 1 -->
<svg width="549pt" height="140pt"
 viewBox="0.00 0.00 549.00 140.00" xmlns="http://www.w3.org/2000/svg" xmlns:xlink="http://www.w3.org/1999/xlink">
<g id="graph0" class="graph" transform="scale(1 1) rotate(0) translate(4 136)">
<title>TVirtualPacketizer</title>
<polygon fill="#ffffff" stroke="transparent" points="-4,4 -4,-136 545,-136 545,4 -4,4"/>
<!-- Node0 -->
<g id="node1" class="node">
<title>Node0</title>
<polygon fill="#bfbfbf" stroke="#000000" points="218,-56.5 218,-75.5 323,-75.5 323,-56.5 218,-56.5"/>
<text text-anchor="middle" x="270.5" y="-63.5" font-family="Helvetica,sans-Serif" font-size="10.00" fill="#000000">TVirtualPacketizer</text>
</g>
<!-- Node2 -->
<g id="node3" class="node">
<title>Node2</title>
<g id="a_node3"><a xlink:href="classTPacketizer.html" target="_top" xlink:title="This class generates packets to be processed on PROOF worker servers. ">
<polygon fill="#ffffff" stroke="#000000" points="0,-.5 0,-19.5 73,-19.5 73,-.5 0,-.5"/>
<text text-anchor="middle" x="36.5" y="-7.5" font-family="Helvetica,sans-Serif" font-size="10.00" fill="#000000">TPacketizer</text>
</a>
</g>
</g>
<!-- Node0&#45;&gt;Node2 -->
<g id="edge2" class="edge">
<title>Node0&#45;&gt;Node2</title>
<path fill="none" stroke="#191970" d="M220.5828,-54.054C176.3844,-43.4766 112.8968,-28.283 73.2122,-18.7858"/>
<polygon fill="#191970" stroke="#191970" points="219.9998,-57.5133 230.5398,-56.4369 221.6291,-50.7055 219.9998,-57.5133"/>
</g>
<!-- Node3 -->
<g id="node4" class="node">
<title>Node3</title>
<g id="a_node4"><a xlink:href="classTPacketizerAdaptive.html" target="_top" xlink:title="This packetizer is based on TPacketizer but uses different load&#45;balancing algorithms and data structu...">
<polygon fill="#ffffff" stroke="#000000" points="91.5,-.5 91.5,-19.5 207.5,-19.5 207.5,-.5 91.5,-.5"/>
<text text-anchor="middle" x="149.5" y="-7.5" font-family="Helvetica,sans-Serif" font-size="10.00" fill="#000000">TPacketizerAdaptive</text>
</a>
</g>
</g>
<!-- Node0&#45;&gt;Node3 -->
<g id="edge3" class="edge">
<title>Node0&#45;&gt;Node3</title>
<path fill="none" stroke="#191970" d="M240.4896,-52.1109C218.5475,-41.9559 189.3612,-28.4482 170.0292,-19.5011"/>
<polygon fill="#191970" stroke="#191970" points="239.1541,-55.3494 249.6994,-56.3733 242.0942,-48.9968 239.1541,-55.3494"/>
</g>
<!-- Node4 -->
<g id="node5" class="node">
<title>Node4</title>
<g id="a_node5"><a xlink:href="classTPacketizerFile.html" target="_top" xlink:title="This packetizer generates packets which contain a single file path to be used in process. ">
<polygon fill="#ffffff" stroke="#000000" points="226,-.5 226,-19.5 315,-19.5 315,-.5 226,-.5"/>
<text text-anchor="middle" x="270.5" y="-7.5" font-family="Helvetica,sans-Serif" font-size="10.00" fill="#000000">TPacketizerFile</text>
</a>
</g>
</g>
<!-- Node0&#45;&gt;Node4 -->
<g id="edge4" class="edge">
<title>Node0&#45;&gt;Node4</title>
<path fill="none" stroke="#191970" d="M270.5,-46.1575C270.5,-37.155 270.5,-26.9199 270.5,-19.6427"/>
<polygon fill="#191970" stroke="#191970" points="267.0001,-46.2455 270.5,-56.2455 274.0001,-46.2456 267.0001,-46.2455"/>
</g>
<!-- Node5 -->
<g id="node6" class="node">
<title>Node5</title>
<g id="a_node6"><a xlink:href="classTPacketizerMulti.html" target="_top" xlink:title="This class allows to do multiple runs in the same query; each run can be a, for example, different dataset or the same dataset with entry list. ">
<polygon fill="#ffffff" stroke="#000000" points="333,-.5 333,-19.5 430,-19.5 430,-.5 333,-.5"/>
<text text-anchor="middle" x="381.5" y="-7.5" font-family="Helvetica,sans-Serif" font-size="10.00" fill="#000000">TPacketizerMulti</text>
</a>
</g>
</g>
<!-- Node0&#45;&gt;Node5 -->
<g id="edge5" class="edge">
<title>Node0&#45;&gt;Node5</title>
<path fill="none" stroke="#191970" d="M298.5734,-51.8368C318.6385,-41.7139 345.0922,-28.3679 362.6674,-19.5011"/>
<polygon fill="#191970" stroke="#191970" points="296.9332,-48.7441 289.5816,-56.3733 300.0862,-54.9938 296.9332,-48.7441"/>
</g>
<!-- Node6 -->
<g id="node7" class="node">
<title>Node6</title>
<g id="a_node7"><a xlink:href="classTPacketizerUnit.html" target="_top" xlink:title="This packetizer generates packets of generic units, representing the number of times an operation cyc...">
<polygon fill="#ffffff" stroke="#000000" points="448,-.5 448,-19.5 541,-19.5 541,-.5 448,-.5"/>
<text text-anchor="middle" x="494.5" y="-7.5" font-family="Helvetica,sans-Serif" font-size="10.00" fill="#000000">TPacketizerUnit</text>
</a>
</g>
</g>
<!-- Node0&#45;&gt;Node6 -->
<g id="edge6" class="edge">
<title>Node0&#45;&gt;Node6</title>
<path fill="none" stroke="#191970" d="M318.572,-53.982C359.7875,-43.6781 418.3678,-29.0331 456.4053,-19.5237"/>
<polygon fill="#191970" stroke="#191970" points="317.605,-50.616 308.7525,-56.4369 319.3028,-57.407 317.605,-50.616"/>
</g>
<!-- Node1 -->
<g id="node2" class="node">
<title>Node1</title>
<g id="a_node2"><a xlink:href="classTObject.html" target="_top" xlink:title="Mother of all ROOT objects. ">
<polygon fill="#ffffff" stroke="#000000" points="243.5,-112.5 243.5,-131.5 297.5,-131.5 297.5,-112.5 243.5,-112.5"/>
<text text-anchor="middle" x="270.5" y="-119.5" font-family="Helvetica,sans-Serif" font-size="10.00" fill="#000000">TObject</text>
</a>
</g>
</g>
<!-- Node1&#45;&gt;Node0 -->
<g id="edge1" class="edge">
<title>Node1&#45;&gt;Node0</title>
<path fill="none" stroke="#191970" d="M270.5,-102.1575C270.5,-93.155 270.5,-82.9199 270.5,-75.6427"/>
<polygon fill="#191970" stroke="#191970" points="267.0001,-102.2455 270.5,-112.2455 274.0001,-102.2456 267.0001,-102.2455"/>
</g>
</g>
</svg>
