<?xml version="1.0" encoding="UTF-8" standalone="no"?>
<!DOCTYPE svg PUBLIC "-//W3C//DTD SVG 1.1//EN"
 "http://www.w3.org/Graphics/SVG/1.1/DTD/svg11.dtd">
<!-- Generated by graphviz version 2.40.1 (0)
 -->
<!-- Title: ROOT::Internal::TRangeDynCastIterator&lt; Containee &gt; Pages: 1 -->
<svg width="157pt" height="163pt"
 viewBox="0.00 0.00 157.00 163.00" xmlns="http://www.w3.org/2000/svg" xmlns:xlink="http://www.w3.org/1999/xlink">
<g id="graph0" class="graph" transform="scale(1 1) rotate(0) translate(4 159)">
<title>ROOT::Internal::TRangeDynCastIterator&lt; Containee &gt;</title>
<polygon fill="#ffffff" stroke="transparent" points="-4,4 -4,-159 153,-159 153,4 -4,4"/>
<!-- Node2 -->
<g id="node1" class="node">
<title>Node2</title>
<polygon fill="#bfbfbf" stroke="#000000" points="0,-.5 0,-30.5 149,-30.5 149,-.5 0,-.5"/>
<text text-anchor="start" x="8" y="-18.5" font-family="Helvetica,sans-Serif" font-size="10.00" fill="#000000">ROOT::Internal::TRangeDyn</text>
<text text-anchor="middle" x="74.5" y="-7.5" font-family="Helvetica,sans-Serif" font-size="10.00" fill="#000000">CastIterator&lt; Containee &gt;</text>
</g>
<!-- Node3 -->
<g id="node2" class="node">
<title>Node3</title>
<g id="a_node2"><a xlink:href="classTIter.html" target="_top" xlink:title="TIter">
<polygon fill="#ffffff" stroke="#000000" points="55,-68.5 55,-87.5 94,-87.5 94,-68.5 55,-68.5"/>
<text text-anchor="middle" x="74.5" y="-75.5" font-family="Helvetica,sans-Serif" font-size="10.00" fill="#000000">TIter</text>
</a>
</g>
</g>
<!-- Node3&#45;&gt;Node2 -->
<g id="edge1" class="edge">
<title>Node3&#45;&gt;Node2</title>
<path fill="none" stroke="#191970" d="M74.5,-58.0501C74.5,-49.2205 74.5,-39.0001 74.5,-30.7892"/>
<polygon fill="#191970" stroke="#191970" points="71.0001,-58.2343 74.5,-68.2344 78.0001,-58.2344 71.0001,-58.2343"/>
</g>
<!-- Node4 -->
<g id="node3" class="node">
<title>Node4</title>
<g id="a_node3"><a xlink:href="classTIterator.html" target="_top" xlink:title="Iterator abstract base class. ">
<polygon fill="#ffffff" stroke="#000000" points="45,-135.5 45,-154.5 104,-154.5 104,-135.5 45,-135.5"/>
<text text-anchor="middle" x="74.5" y="-142.5" font-family="Helvetica,sans-Serif" font-size="10.00" fill="#000000">TIterator</text>
</a>
</g>
</g>
<!-- Node4&#45;&gt;Node3 -->
<g id="edge2" class="edge">
<title>Node4&#45;&gt;Node3</title>
<path fill="none" stroke="#9a32cd" stroke-dasharray="5,2" d="M74.5,-125.1079C74.5,-112.714 74.5,-97.3263 74.5,-87.5817"/>
<polygon fill="#9a32cd" stroke="#9a32cd" points="71.0001,-125.4005 74.5,-135.4005 78.0001,-125.4006 71.0001,-125.4005"/>
<text text-anchor="middle" x="96" y="-109" font-family="Helvetica,sans-Serif" font-size="10.00" fill="#000000"> fIterator</text>
</g>
</g>
</svg>
