<?xml version="1.0" encoding="UTF-8" standalone="no"?>
<!DOCTYPE svg PUBLIC "-//W3C//DTD SVG 1.1//EN"
 "http://www.w3.org/Graphics/SVG/1.1/DTD/svg11.dtd">
<!-- Generated by graphviz version 2.40.1 (0)
 -->
<!-- Title: TDavixSystem Pages: 1 -->
<svg width="2044pt" height="651pt"
 viewBox="0.00 0.00 2044.00 651.00" xmlns="http://www.w3.org/2000/svg" xmlns:xlink="http://www.w3.org/1999/xlink">
<g id="graph0" class="graph" transform="scale(1 1) rotate(0) translate(4 647)">
<title>TDavixSystem</title>
<polygon fill="#ffffff" stroke="transparent" points="-4,4 -4,-647 2040,-647 2040,4 -4,4"/>
<!-- Node4 -->
<g id="node1" class="node">
<title>Node4</title>
<polygon fill="#bfbfbf" stroke="#000000" points="1948,-272.5 1948,-291.5 2036,-291.5 2036,-272.5 1948,-272.5"/>
<text text-anchor="middle" x="1992" y="-279.5" font-family="Helvetica,sans-Serif" font-size="10.00" fill="#000000">TDavixSystem</text>
</g>
<!-- Node5 -->
<g id="node2" class="node">
<title>Node5</title>
<g id="a_node2"><a xlink:href="classTSystem.html" target="_top" xlink:title="Abstract base class defining a generic interface to the underlying Operating System. ">
<polygon fill="#ffffff" stroke="#000000" points="1060,-524.5 1060,-543.5 1119,-543.5 1119,-524.5 1060,-524.5"/>
<text text-anchor="middle" x="1089.5" y="-531.5" font-family="Helvetica,sans-Serif" font-size="10.00" fill="#000000">TSystem</text>
</a>
</g>
</g>
<!-- Node5&#45;&gt;Node4 -->
<g id="edge1" class="edge">
<title>Node5&#45;&gt;Node4</title>
<path fill="none" stroke="#191970" d="M1111.5375,-518.531C1137.3535,-501.956 1182.0145,-478 1224.5,-478 1224.5,-478 1224.5,-478 1831.5,-478 1928.9178,-478 1977.9123,-331.2684 1989.3486,-291.7197"/>
<polygon fill="#191970" stroke="#191970" points="1109.3186,-515.8027 1102.9179,-524.2455 1113.1866,-521.637 1109.3186,-515.8027"/>
</g>
<!-- Node6 -->
<g id="node3" class="node">
<title>Node6</title>
<g id="a_node3"><a xlink:href="classTNamed.html" target="_top" xlink:title="The TNamed class is the base class for all named ROOT classes. ">
<polygon fill="#ffffff" stroke="#000000" points="557.5,-467.5 557.5,-486.5 615.5,-486.5 615.5,-467.5 557.5,-467.5"/>
<text text-anchor="middle" x="586.5" y="-474.5" font-family="Helvetica,sans-Serif" font-size="10.00" fill="#000000">TNamed</text>
</a>
</g>
</g>
<!-- Node6&#45;&gt;Node5 -->
<g id="edge2" class="edge">
<title>Node6&#45;&gt;Node5</title>
<path fill="none" stroke="#191970" d="M625.6168,-472.4079C705.6006,-464.4439 892.6524,-453.1672 1039,-501 1046.8645,-503.5705 1064.2577,-515.5384 1076.4219,-524.3246"/>
<polygon fill="#191970" stroke="#191970" points="625.0906,-468.9436 615.5043,-473.4549 625.8116,-475.9064 625.0906,-468.9436"/>
</g>
<!-- Node7 -->
<g id="node4" class="node">
<title>Node7</title>
<g id="a_node4"><a xlink:href="classTObject.html" target="_top" xlink:title="Mother of all ROOT objects. ">
<polygon fill="#ffffff" stroke="#000000" points="189,-242.5 189,-261.5 243,-261.5 243,-242.5 189,-242.5"/>
<text text-anchor="middle" x="216" y="-249.5" font-family="Helvetica,sans-Serif" font-size="10.00" fill="#000000">TObject</text>
</a>
</g>
</g>
<!-- Node7&#45;&gt;Node6 -->
<g id="edge3" class="edge">
<title>Node7&#45;&gt;Node6</title>
<path fill="none" stroke="#191970" d="M227.0321,-270.415C237.8148,-287.1725 255.5589,-311.7101 276,-328 374.8806,-406.7997 419.4413,-394.4015 533,-450 544.5868,-455.6729 557.501,-462.1849 567.7382,-467.3921"/>
<polygon fill="#191970" stroke="#191970" points="229.7789,-268.2049 221.52,-261.5686 223.8378,-271.9068 229.7789,-268.2049"/>
</g>
<!-- Node15 -->
<g id="node12" class="node">
<title>Node15</title>
<g id="a_node12"><a xlink:href="classTCollection.html" target="_top" xlink:title="Collection abstract base class. ">
<polygon fill="#ffffff" stroke="#000000" points="551,-233.5 551,-252.5 622,-252.5 622,-233.5 551,-233.5"/>
<text text-anchor="middle" x="586.5" y="-240.5" font-family="Helvetica,sans-Serif" font-size="10.00" fill="#000000">TCollection</text>
</a>
</g>
</g>
<!-- Node7&#45;&gt;Node15 -->
<g id="edge12" class="edge">
<title>Node7&#45;&gt;Node15</title>
<path fill="none" stroke="#191970" d="M253.3012,-246.1097C274.789,-243.0143 302.3443,-239.5487 327,-238 406.825,-232.9859 500.7091,-237.3287 550.7806,-240.4635"/>
<polygon fill="#191970" stroke="#191970" points="252.6607,-242.6662 243.2793,-247.5895 253.6833,-249.5911 252.6607,-242.6662"/>
</g>
<!-- Node16 -->
<g id="node13" class="node">
<title>Node16</title>
<g id="a_node13"><a xlink:href="classTObjectTable.html" target="_top" xlink:title="This class registers all instances of TObject and its derived classes in a hash table. ">
<polygon fill="#ffffff" stroke="#000000" points="329.5,-247.5 329.5,-266.5 409.5,-266.5 409.5,-247.5 329.5,-247.5"/>
<text text-anchor="middle" x="369.5" y="-254.5" font-family="Helvetica,sans-Serif" font-size="10.00" fill="#000000">TObjectTable</text>
</a>
</g>
</g>
<!-- Node7&#45;&gt;Node16 -->
<g id="edge14" class="edge">
<title>Node7&#45;&gt;Node16</title>
<path fill="none" stroke="#191970" d="M253.0155,-260.5898C260.5789,-262.0094 268.5142,-263.2588 276,-264 293.4948,-265.7323 312.8693,-264.7571 329.4239,-263.0506"/>
<polygon fill="#191970" stroke="#191970" points="253.503,-257.1179 243.0095,-258.5801 252.1245,-263.9808 253.503,-257.1179"/>
</g>
<!-- Node7&#45;&gt;Node16 -->
<g id="edge15" class="edge">
<title>Node7&#45;&gt;Node16</title>
<path fill="none" stroke="#9a32cd" stroke-dasharray="5,2" d="M253.374,-250.5733C270.3583,-250.1885 290.7034,-250.0949 309,-251 315.5361,-251.3233 322.4549,-251.8419 329.1876,-252.4423"/>
<polygon fill="#9a32cd" stroke="#9a32cd" points="253.184,-247.077 243.2816,-250.8442 253.3719,-254.0745 253.184,-247.077"/>
<text text-anchor="middle" x="292.5" y="-254" font-family="Helvetica,sans-Serif" font-size="10.00" fill="#000000"> fTable</text>
</g>
<!-- Node21 -->
<g id="node18" class="node">
<title>Node21</title>
<g id="a_node18"><a xlink:href="classTMutexImp.html" target="_top" xlink:title="TMutexImp">
<polygon fill="#ffffff" stroke="#000000" points="334,-76.5 334,-95.5 405,-95.5 405,-76.5 334,-76.5"/>
<text text-anchor="middle" x="369.5" y="-83.5" font-family="Helvetica,sans-Serif" font-size="10.00" fill="#000000">TMutexImp</text>
</a>
</g>
</g>
<!-- Node7&#45;&gt;Node21 -->
<g id="edge24" class="edge">
<title>Node7&#45;&gt;Node21</title>
<path fill="none" stroke="#191970" d="M218.6842,-232.4285C223.9607,-201.6687 238.6187,-142.2043 276,-110 291.8711,-96.3269 314.5352,-90.2844 333.5746,-87.6807"/>
<polygon fill="#191970" stroke="#191970" points="215.2182,-231.9396 217.14,-242.3587 222.1351,-233.0153 215.2182,-231.9396"/>
</g>
<!-- Node22 -->
<g id="node19" class="node">
<title>Node22</title>
<g id="a_node19"><a xlink:href="classTUrl.html" target="_top" xlink:title="This class represents a WWW compatible URL. ">
<polygon fill="#ffffff" stroke="#000000" points="1612.5,-221.5 1612.5,-240.5 1649.5,-240.5 1649.5,-221.5 1612.5,-221.5"/>
<text text-anchor="middle" x="1631" y="-228.5" font-family="Helvetica,sans-Serif" font-size="10.00" fill="#000000">TUrl</text>
</a>
</g>
</g>
<!-- Node7&#45;&gt;Node22 -->
<g id="edge26" class="edge">
<title>Node7&#45;&gt;Node22</title>
<path fill="none" stroke="#191970" d="M238.1387,-267.2463C267.0059,-285.6039 319.7062,-314 369.5,-314 369.5,-314 369.5,-314 1423.5,-314 1501.8747,-314 1585.7579,-262.3226 1617.6589,-240.5212"/>
<polygon fill="#191970" stroke="#191970" points="239.9226,-264.231 229.6376,-261.6875 236.0917,-270.0896 239.9226,-264.231"/>
</g>
<!-- Node23 -->
<g id="node20" class="node">
<title>Node23</title>
<g id="a_node20"><a xlink:href="classTObjArray.html" target="_top" xlink:title="An array of TObjects. ">
<polygon fill="#ffffff" stroke="#000000" points="1057,-131.5 1057,-150.5 1122,-150.5 1122,-131.5 1057,-131.5"/>
<text text-anchor="middle" x="1089.5" y="-138.5" font-family="Helvetica,sans-Serif" font-size="10.00" fill="#000000">TObjArray</text>
</a>
</g>
</g>
<!-- Node7&#45;&gt;Node23 -->
<g id="edge29" class="edge">
<title>Node7&#45;&gt;Node23</title>
<path fill="none" stroke="#9a32cd" stroke-dasharray="5,2" d="M226.5696,-233.4945C248.359,-198.0357 301.9429,-124 369.5,-124 369.5,-124 369.5,-124 841,-124 918.6215,-124 1009.564,-132.3579 1056.9849,-137.3531"/>
<polygon fill="#9a32cd" stroke="#9a32cd" points="223.3886,-231.9959 221.2818,-242.3792 229.4038,-235.576 223.3886,-231.9959"/>
<text text-anchor="middle" x="586.5" y="-127" font-family="Helvetica,sans-Serif" font-size="10.00" fill="#000000"> fCont</text>
</g>
<!-- Node8 -->
<g id="node5" class="node">
<title>Node8</title>
<g id="a_node5"><a xlink:href="classTString.html" target="_top" xlink:title="Basic string class. ">
<polygon fill="#ffffff" stroke="#000000" points="344,-435.5 344,-454.5 395,-454.5 395,-435.5 344,-435.5"/>
<text text-anchor="middle" x="369.5" y="-442.5" font-family="Helvetica,sans-Serif" font-size="10.00" fill="#000000">TString</text>
</a>
</g>
</g>
<!-- Node8&#45;&gt;Node5 -->
<g id="edge18" class="edge">
<title>Node8&#45;&gt;Node5</title>
<path fill="none" stroke="#9a32cd" stroke-dasharray="5,2" d="M384.7048,-461.9031C395.9807,-473.1835 412.3938,-487.1577 430,-494 489.1383,-516.983 938.6631,-530.1172 1059.6124,-533.2594"/>
<polygon fill="#9a32cd" stroke="#9a32cd" points="387.2072,-459.4557 377.7676,-454.6447 382.1467,-464.2922 387.2072,-459.4557"/>
<text text-anchor="middle" x="694.5" y="-635" font-family="Helvetica,sans-Serif" font-size="10.00" fill="#000000"> fSoExt</text>
<text text-anchor="middle" x="694.5" y="-624" font-family="Helvetica,sans-Serif" font-size="10.00" fill="#000000">fBuildCompilerVersion</text>
<text text-anchor="middle" x="694.5" y="-613" font-family="Helvetica,sans-Serif" font-size="10.00" fill="#000000">fBuildCompiler</text>
<text text-anchor="middle" x="694.5" y="-602" font-family="Helvetica,sans-Serif" font-size="10.00" fill="#000000">fIncludePath</text>
<text text-anchor="middle" x="694.5" y="-591" font-family="Helvetica,sans-Serif" font-size="10.00" fill="#000000">fMakeSharedLib</text>
<text text-anchor="middle" x="694.5" y="-580" font-family="Helvetica,sans-Serif" font-size="10.00" fill="#000000">fObjExt</text>
<text text-anchor="middle" x="694.5" y="-569" font-family="Helvetica,sans-Serif" font-size="10.00" fill="#000000">fWdpath</text>
<text text-anchor="middle" x="694.5" y="-558" font-family="Helvetica,sans-Serif" font-size="10.00" fill="#000000">fLinkdefSuffix</text>
<text text-anchor="middle" x="694.5" y="-547" font-family="Helvetica,sans-Serif" font-size="10.00" fill="#000000">fBuildNode</text>
<text text-anchor="middle" x="694.5" y="-536" font-family="Helvetica,sans-Serif" font-size="10.00" fill="#000000">fListLibs</text>
<text text-anchor="middle" x="694.5" y="-525" font-family="Helvetica,sans-Serif" font-size="10.00" fill="#000000">...</text>
</g>
<!-- Node8&#45;&gt;Node6 -->
<g id="edge4" class="edge">
<title>Node8&#45;&gt;Node6</title>
<path fill="none" stroke="#9a32cd" stroke-dasharray="5,2" d="M405.163,-450.2591C447.6778,-456.5285 517.9154,-466.8861 557.3365,-472.6994"/>
<polygon fill="#9a32cd" stroke="#9a32cd" points="405.6485,-446.7929 395.2449,-448.7965 404.6273,-453.718 405.6485,-446.7929"/>
<text text-anchor="middle" x="481.5" y="-482" font-family="Helvetica,sans-Serif" font-size="10.00" fill="#000000"> fTitle</text>
<text text-anchor="middle" x="481.5" y="-471" font-family="Helvetica,sans-Serif" font-size="10.00" fill="#000000">fName</text>
</g>
<!-- Node8&#45;&gt;Node15 -->
<g id="edge16" class="edge">
<title>Node8&#45;&gt;Node15</title>
<path fill="none" stroke="#9a32cd" stroke-dasharray="5,2" d="M387.5491,-428.1985C431.2696,-387.5002 541.775,-284.6334 576.1387,-252.6451"/>
<polygon fill="#9a32cd" stroke="#9a32cd" points="384.9011,-425.8817 379.9664,-435.2571 389.6707,-431.0054 384.9011,-425.8817"/>
<text text-anchor="middle" x="481.5" y="-388" font-family="Helvetica,sans-Serif" font-size="10.00" fill="#000000"> fName</text>
</g>
<!-- Node8&#45;&gt;Node22 -->
<g id="edge30" class="edge">
<title>Node8&#45;&gt;Node22</title>
<path fill="none" stroke="#9a32cd" stroke-dasharray="5,2" d="M405.5628,-445.9477C536.8579,-449.1237 984.5253,-457.4539 1039,-425 1052.6871,-416.8458 1043.571,-402.5726 1057,-394 1093.8673,-370.4651 1111.2612,-385 1155,-385 1155,-385 1155,-385 1423.5,-385 1520.8498,-385 1602.2544,-274.3477 1624.798,-240.6334"/>
<polygon fill="#9a32cd" stroke="#9a32cd" points="405.3389,-442.4412 395.2555,-445.6931 405.166,-449.4391 405.3389,-442.4412"/>
<text text-anchor="middle" x="1089.5" y="-507" font-family="Helvetica,sans-Serif" font-size="10.00" fill="#000000"> fFileOA</text>
<text text-anchor="middle" x="1089.5" y="-496" font-family="Helvetica,sans-Serif" font-size="10.00" fill="#000000">fOptions</text>
<text text-anchor="middle" x="1089.5" y="-485" font-family="Helvetica,sans-Serif" font-size="10.00" fill="#000000">fHostFQ</text>
<text text-anchor="middle" x="1089.5" y="-474" font-family="Helvetica,sans-Serif" font-size="10.00" fill="#000000">fHost</text>
<text text-anchor="middle" x="1089.5" y="-463" font-family="Helvetica,sans-Serif" font-size="10.00" fill="#000000">fPasswd</text>
<text text-anchor="middle" x="1089.5" y="-452" font-family="Helvetica,sans-Serif" font-size="10.00" fill="#000000">fProtocol</text>
<text text-anchor="middle" x="1089.5" y="-441" font-family="Helvetica,sans-Serif" font-size="10.00" fill="#000000">fUser</text>
<text text-anchor="middle" x="1089.5" y="-430" font-family="Helvetica,sans-Serif" font-size="10.00" fill="#000000">fFile</text>
<text text-anchor="middle" x="1089.5" y="-419" font-family="Helvetica,sans-Serif" font-size="10.00" fill="#000000">fUrl</text>
<text text-anchor="middle" x="1089.5" y="-408" font-family="Helvetica,sans-Serif" font-size="10.00" fill="#000000">fAnchor</text>
<text text-anchor="middle" x="1089.5" y="-397" font-family="Helvetica,sans-Serif" font-size="10.00" fill="#000000">...</text>
</g>
<!-- Node9 -->
<g id="node6" class="node">
<title>Node9</title>
<g id="a_node6"><a xlink:href="structTString_1_1Rep__t.html" target="_top" xlink:title="TString::Rep_t">
<polygon fill="#ffffff" stroke="#000000" points="174,-435.5 174,-454.5 258,-454.5 258,-435.5 174,-435.5"/>
<text text-anchor="middle" x="216" y="-442.5" font-family="Helvetica,sans-Serif" font-size="10.00" fill="#000000">TString::Rep_t</text>
</a>
</g>
</g>
<!-- Node9&#45;&gt;Node8 -->
<g id="edge5" class="edge">
<title>Node9&#45;&gt;Node8</title>
<path fill="none" stroke="#9a32cd" stroke-dasharray="5,2" d="M268.5697,-445C293.9128,-445 323.1736,-445 343.6425,-445"/>
<polygon fill="#9a32cd" stroke="#9a32cd" points="268.3509,-441.5001 258.3509,-445 268.3509,-448.5001 268.3509,-441.5001"/>
<text text-anchor="middle" x="292.5" y="-448" font-family="Helvetica,sans-Serif" font-size="10.00" fill="#000000"> fRep</text>
</g>
<!-- Node10 -->
<g id="node7" class="node">
<title>Node10</title>
<g id="a_node7"><a xlink:href="structTString_1_1LongStr__t.html" target="_top" xlink:title="TString::LongStr_t">
<polygon fill="#ffffff" stroke="#000000" points="1,-473.5 1,-492.5 104,-492.5 104,-473.5 1,-473.5"/>
<text text-anchor="middle" x="52.5" y="-480.5" font-family="Helvetica,sans-Serif" font-size="10.00" fill="#000000">TString::LongStr_t</text>
</a>
</g>
</g>
<!-- Node10&#45;&gt;Node9 -->
<g id="edge6" class="edge">
<title>Node10&#45;&gt;Node9</title>
<path fill="none" stroke="#9a32cd" stroke-dasharray="5,2" d="M106.8123,-471.2124C122.687,-467.6909 140.0552,-463.764 156,-460 163.315,-458.2732 171.1157,-456.3692 178.5896,-454.514"/>
<polygon fill="#9a32cd" stroke="#9a32cd" points="105.6358,-467.8878 96.626,-473.4622 107.1456,-474.7231 105.6358,-467.8878"/>
<text text-anchor="middle" x="139.5" y="-470" font-family="Helvetica,sans-Serif" font-size="10.00" fill="#000000"> fLong</text>
</g>
<!-- Node11 -->
<g id="node8" class="node">
<title>Node11</title>
<g id="a_node8"><a xlink:href="structTString_1_1RawStr__t.html" target="_top" xlink:title="TString::RawStr_t">
<polygon fill="#ffffff" stroke="#000000" points="2,-435.5 2,-454.5 103,-454.5 103,-435.5 2,-435.5"/>
<text text-anchor="middle" x="52.5" y="-442.5" font-family="Helvetica,sans-Serif" font-size="10.00" fill="#000000">TString::RawStr_t</text>
</a>
</g>
</g>
<!-- Node11&#45;&gt;Node9 -->
<g id="edge7" class="edge">
<title>Node11&#45;&gt;Node9</title>
<path fill="none" stroke="#9a32cd" stroke-dasharray="5,2" d="M113.38,-445C133.5543,-445 155.5459,-445 173.9777,-445"/>
<polygon fill="#9a32cd" stroke="#9a32cd" points="113.3362,-441.5001 103.3362,-445 113.3361,-448.5001 113.3362,-441.5001"/>
<text text-anchor="middle" x="139.5" y="-448" font-family="Helvetica,sans-Serif" font-size="10.00" fill="#000000"> fRaw</text>
</g>
<!-- Node12 -->
<g id="node9" class="node">
<title>Node12</title>
<g id="a_node9"><a xlink:href="structTString_1_1ShortStr__t.html" target="_top" xlink:title="TString::ShortStr_t">
<polygon fill="#ffffff" stroke="#000000" points="0,-397.5 0,-416.5 105,-416.5 105,-397.5 0,-397.5"/>
<text text-anchor="middle" x="52.5" y="-404.5" font-family="Helvetica,sans-Serif" font-size="10.00" fill="#000000">TString::ShortStr_t</text>
</a>
</g>
</g>
<!-- Node12&#45;&gt;Node9 -->
<g id="edge8" class="edge">
<title>Node12&#45;&gt;Node9</title>
<path fill="none" stroke="#9a32cd" stroke-dasharray="5,2" d="M106.8123,-418.7876C122.687,-422.3091 140.0552,-426.236 156,-430 163.315,-431.7268 171.1157,-433.6308 178.5896,-435.486"/>
<polygon fill="#9a32cd" stroke="#9a32cd" points="107.1456,-415.2769 96.626,-416.5378 105.6358,-422.1122 107.1456,-415.2769"/>
<text text-anchor="middle" x="139.5" y="-433" font-family="Helvetica,sans-Serif" font-size="10.00" fill="#000000"> fShort</text>
</g>
<!-- Node13 -->
<g id="node10" class="node">
<title>Node13</title>
<polygon fill="#ffffff" stroke="#bfbfbf" points="816,-543.5 816,-562.5 866,-562.5 866,-543.5 816,-543.5"/>
<text text-anchor="middle" x="841" y="-550.5" font-family="Helvetica,sans-Serif" font-size="10.00" fill="#000000">TFdSet</text>
</g>
<!-- Node13&#45;&gt;Node5 -->
<g id="edge9" class="edge">
<title>Node13&#45;&gt;Node5</title>
<path fill="none" stroke="#9a32cd" stroke-dasharray="5,2" d="M876.3522,-550.297C925.4987,-546.5393 1013.6015,-539.8031 1059.6351,-536.2834"/>
<polygon fill="#9a32cd" stroke="#9a32cd" points="875.8991,-546.8214 866.195,-551.0736 876.4328,-553.801 875.8991,-546.8214"/>
<text text-anchor="middle" x="986" y="-592" font-family="Helvetica,sans-Serif" font-size="10.00" fill="#000000"> fReadready</text>
<text text-anchor="middle" x="986" y="-581" font-family="Helvetica,sans-Serif" font-size="10.00" fill="#000000">fSignals</text>
<text text-anchor="middle" x="986" y="-570" font-family="Helvetica,sans-Serif" font-size="10.00" fill="#000000">fReadmask</text>
<text text-anchor="middle" x="986" y="-559" font-family="Helvetica,sans-Serif" font-size="10.00" fill="#000000">fWriteready</text>
<text text-anchor="middle" x="986" y="-548" font-family="Helvetica,sans-Serif" font-size="10.00" fill="#000000">fWritemask</text>
</g>
<!-- Node14 -->
<g id="node11" class="node">
<title>Node14</title>
<g id="a_node11"><a xlink:href="classTSeqCollection.html" target="_top" xlink:title="Sequenceable collection abstract base class. ">
<polygon fill="#ffffff" stroke="#000000" points="796.5,-190.5 796.5,-209.5 885.5,-209.5 885.5,-190.5 796.5,-190.5"/>
<text text-anchor="middle" x="841" y="-197.5" font-family="Helvetica,sans-Serif" font-size="10.00" fill="#000000">TSeqCollection</text>
</a>
</g>
</g>
<!-- Node14&#45;&gt;Node5 -->
<g id="edge10" class="edge">
<title>Node14&#45;&gt;Node5</title>
<path fill="none" stroke="#9a32cd" stroke-dasharray="5,2" d="M865.4474,-214.8741C908.5931,-242.577 997.5912,-306.538 1039,-386 1064.7355,-435.3854 1028.3953,-462.2192 1057,-510 1060.4587,-515.7773 1065.8937,-520.5967 1071.3364,-524.3641"/>
<polygon fill="#9a32cd" stroke="#9a32cd" points="867.2941,-211.9008 856.9702,-209.5204 863.5563,-217.8194 867.2941,-211.9008"/>
<text text-anchor="middle" x="986" y="-455" font-family="Helvetica,sans-Serif" font-size="10.00" fill="#000000"> fSignalHandler</text>
<text text-anchor="middle" x="986" y="-444" font-family="Helvetica,sans-Serif" font-size="10.00" fill="#000000">fFileHandler</text>
<text text-anchor="middle" x="986" y="-433" font-family="Helvetica,sans-Serif" font-size="10.00" fill="#000000">fStdExceptionHandler</text>
<text text-anchor="middle" x="986" y="-422" font-family="Helvetica,sans-Serif" font-size="10.00" fill="#000000">fOnExitList</text>
<text text-anchor="middle" x="986" y="-411" font-family="Helvetica,sans-Serif" font-size="10.00" fill="#000000">fHelpers</text>
<text text-anchor="middle" x="986" y="-400" font-family="Helvetica,sans-Serif" font-size="10.00" fill="#000000">fCompiled</text>
<text text-anchor="middle" x="986" y="-389" font-family="Helvetica,sans-Serif" font-size="10.00" fill="#000000">fTimers</text>
</g>
<!-- Node14&#45;&gt;Node23 -->
<g id="edge28" class="edge">
<title>Node14&#45;&gt;Node23</title>
<path fill="none" stroke="#191970" d="M895.8538,-199.3215C936.4993,-197.2781 992.6417,-191.1687 1039,-174 1053.5357,-168.6167 1068.143,-158.4283 1077.8809,-150.79"/>
<polygon fill="#191970" stroke="#191970" points="895.4466,-195.8358 885.6083,-199.7674 895.751,-202.8292 895.4466,-195.8358"/>
</g>
<!-- Node26 -->
<g id="node23" class="node">
<title>Node26</title>
<g id="a_node23"><a xlink:href="classTList.html" target="_top" xlink:title="A doubly linked list. ">
<polygon fill="#ffffff" stroke="#000000" points="1069.5,-180.5 1069.5,-199.5 1109.5,-199.5 1109.5,-180.5 1069.5,-180.5"/>
<text text-anchor="middle" x="1089.5" y="-187.5" font-family="Helvetica,sans-Serif" font-size="10.00" fill="#000000">TList</text>
</a>
</g>
</g>
<!-- Node14&#45;&gt;Node26 -->
<g id="edge36" class="edge">
<title>Node14&#45;&gt;Node26</title>
<path fill="none" stroke="#191970" d="M895.5713,-202.2294C935.4043,-203.2476 990.6587,-203.397 1039,-199 1049.1105,-198.0804 1060.2307,-196.1951 1069.4563,-194.3865"/>
<polygon fill="#191970" stroke="#191970" points="895.6292,-198.7298 885.5344,-201.9462 895.4317,-205.727 895.6292,-198.7298"/>
</g>
<!-- Node15&#45;&gt;Node14 -->
<g id="edge11" class="edge">
<title>Node15&#45;&gt;Node14</title>
<path fill="none" stroke="#191970" d="M619.3917,-230.0296C626.128,-227.7401 633.2297,-225.5855 640,-224 692.8667,-211.6192 755.1321,-205.4409 796.1959,-202.4879"/>
<polygon fill="#191970" stroke="#191970" points="618.1063,-226.7721 609.8648,-233.4301 620.4594,-233.3647 618.1063,-226.7721"/>
</g>
<!-- Node15&#45;&gt;Node15 -->
<g id="edge17" class="edge">
<title>Node15&#45;&gt;Node15</title>
<path fill="none" stroke="#9a32cd" stroke-dasharray="5,2" d="M567.2417,-262.4C568.5278,-267.3146 574.9473,-271 586.5,-271 604.9844,-271 610.3275,-261.5653 602.5294,-252.7571"/>
<polygon fill="#9a32cd" stroke="#9a32cd" points="570.6142,-263.3509 570.4706,-252.7571 563.9765,-261.1283 570.6142,-263.3509"/>
<text text-anchor="middle" x="586.5" y="-274" font-family="Helvetica,sans-Serif" font-size="10.00" fill="#000000"> fgCurrentCollection</text>
</g>
<!-- Node24 -->
<g id="node21" class="node">
<title>Node24</title>
<g id="a_node21"><a xlink:href="classTMap.html" target="_top" xlink:title="TMap implements an associative array of (key,value) pairs using a THashTable for efficient retrieval ...">
<polygon fill="#ffffff" stroke="#000000" points="1402,-240.5 1402,-259.5 1445,-259.5 1445,-240.5 1402,-240.5"/>
<text text-anchor="middle" x="1423.5" y="-247.5" font-family="Helvetica,sans-Serif" font-size="10.00" fill="#000000">TMap</text>
</a>
</g>
</g>
<!-- Node15&#45;&gt;Node24 -->
<g id="edge32" class="edge">
<title>Node15&#45;&gt;Node24</title>
<path fill="none" stroke="#191970" d="M632.1303,-252.523C682.8846,-262.2705 767.4308,-276 841,-276 841,-276 841,-276 1224.5,-276 1289.4808,-276 1365.3988,-262.2009 1401.8306,-254.7084"/>
<polygon fill="#191970" stroke="#191970" points="632.6217,-249.0529 622.1361,-250.5709 631.2797,-255.9231 632.6217,-249.0529"/>
</g>
<!-- Node25 -->
<g id="node22" class="node">
<title>Node25</title>
<g id="a_node22"><a xlink:href="classTHashTable.html" target="_top" xlink:title="THashTable implements a hash table to store TObject&#39;s. ">
<polygon fill="#ffffff" stroke="#000000" points="1188,-218.5 1188,-237.5 1261,-237.5 1261,-218.5 1188,-218.5"/>
<text text-anchor="middle" x="1224.5" y="-225.5" font-family="Helvetica,sans-Serif" font-size="10.00" fill="#000000">THashTable</text>
</a>
</g>
</g>
<!-- Node15&#45;&gt;Node25 -->
<g id="edge34" class="edge">
<title>Node15&#45;&gt;Node25</title>
<path fill="none" stroke="#191970" d="M632.187,-241.9259C752.851,-239.0889 1078.2897,-231.4375 1187.8969,-228.8606"/>
<polygon fill="#191970" stroke="#191970" points="632.0837,-238.4272 622.1687,-242.1614 632.2483,-245.4253 632.0837,-238.4272"/>
</g>
<!-- Node16&#45;&gt;Node15 -->
<g id="edge13" class="edge">
<title>Node16&#45;&gt;Node15</title>
<path fill="none" stroke="#9a32cd" stroke-dasharray="5,2" d="M419.6834,-253.7624C459.8822,-251.1689 515.2758,-247.5951 550.9918,-245.2909"/>
<polygon fill="#9a32cd" stroke="#9a32cd" points="419.3079,-250.2792 409.554,-254.4159 419.7587,-257.2647 419.3079,-250.2792"/>
<text text-anchor="middle" x="481.5" y="-255" font-family="Helvetica,sans-Serif" font-size="10.00" fill="#000000"> fgGarbageCollection</text>
</g>
<!-- Node17 -->
<g id="node14" class="node">
<title>Node17</title>
<g id="a_node14"><a xlink:href="classTDavixFileInternal.html" target="_top" xlink:title="TDavixFileInternal">
<polygon fill="#ffffff" stroke="#000000" points="1779,-76.5 1779,-95.5 1884,-95.5 1884,-76.5 1779,-76.5"/>
<text text-anchor="middle" x="1831.5" y="-83.5" font-family="Helvetica,sans-Serif" font-size="10.00" fill="#000000">TDavixFileInternal</text>
</a>
</g>
</g>
<!-- Node17&#45;&gt;Node4 -->
<g id="edge19" class="edge">
<title>Node17&#45;&gt;Node4</title>
<path fill="none" stroke="#9a32cd" stroke-dasharray="5,2" d="M1845.8991,-103.584C1878.7716,-143.7273 1958.4673,-241.0504 1983.9927,-272.2217"/>
<polygon fill="#9a32cd" stroke="#9a32cd" points="1848.5028,-101.2392 1839.4592,-95.7197 1843.0869,-105.6741 1848.5028,-101.2392"/>
<text text-anchor="middle" x="1916" y="-205" font-family="Helvetica,sans-Serif" font-size="10.00" fill="#000000"> d_ptr</text>
</g>
<!-- Node18 -->
<g id="node15" class="node">
<title>Node18</title>
<polygon fill="#ffffff" stroke="#bfbfbf" points="1572.5,-.5 1572.5,-19.5 1689.5,-19.5 1689.5,-.5 1572.5,-.5"/>
<text text-anchor="middle" x="1631" y="-7.5" font-family="Helvetica,sans-Serif" font-size="10.00" fill="#000000">std::vector&lt; void *&gt;</text>
</g>
<!-- Node18&#45;&gt;Node17 -->
<g id="edge20" class="edge">
<title>Node18&#45;&gt;Node17</title>
<path fill="none" stroke="#9a32cd" stroke-dasharray="5,2" d="M1699.4542,-21.0841C1719.7362,-25.6126 1741.6777,-31.7746 1761,-40 1783.3218,-49.5023 1806.3382,-66.023 1819.7628,-76.4646"/>
<polygon fill="#9a32cd" stroke="#9a32cd" points="1700.1601,-17.656 1689.6496,-18.9903 1698.6981,-24.5016 1700.1601,-17.656"/>
<text text-anchor="middle" x="1740" y="-43" font-family="Helvetica,sans-Serif" font-size="10.00" fill="#000000"> dirdVec</text>
</g>
<!-- Node19 -->
<g id="node16" class="node">
<title>Node19</title>
<g id="a_node16"><a xlink:href="classTMutex.html" target="_top" xlink:title="TMutex">
<polygon fill="#ffffff" stroke="#000000" points="560,-68.5 560,-87.5 613,-87.5 613,-68.5 560,-68.5"/>
<text text-anchor="middle" x="586.5" y="-75.5" font-family="Helvetica,sans-Serif" font-size="10.00" fill="#000000">TMutex</text>
</a>
</g>
</g>
<!-- Node19&#45;&gt;Node17 -->
<g id="edge21" class="edge">
<title>Node19&#45;&gt;Node17</title>
<path fill="none" stroke="#9a32cd" stroke-dasharray="5,2" d="M623.4527,-79.8899C672.9639,-82.2553 763.5741,-86 841,-86 841,-86 841,-86 1631,-86 1681.125,-86 1738.2988,-86 1778.7317,-86"/>
<polygon fill="#9a32cd" stroke="#9a32cd" points="623.3974,-76.3831 613.2393,-79.3935 623.0575,-83.3749 623.3974,-76.3831"/>
<text text-anchor="middle" x="1224.5" y="-100" font-family="Helvetica,sans-Serif" font-size="10.00" fill="#000000"> openLock</text>
<text text-anchor="middle" x="1224.5" y="-89" font-family="Helvetica,sans-Serif" font-size="10.00" fill="#000000">positionLock</text>
</g>
<!-- Node20 -->
<g id="node17" class="node">
<title>Node20</title>
<g id="a_node17"><a xlink:href="classTVirtualMutex.html" target="_top" xlink:title="This class implements a mutex interface. ">
<polygon fill="#ffffff" stroke="#000000" points="327,-38.5 327,-57.5 412,-57.5 412,-38.5 327,-38.5"/>
<text text-anchor="middle" x="369.5" y="-45.5" font-family="Helvetica,sans-Serif" font-size="10.00" fill="#000000">TVirtualMutex</text>
</a>
</g>
</g>
<!-- Node20&#45;&gt;Node19 -->
<g id="edge22" class="edge">
<title>Node20&#45;&gt;Node19</title>
<path fill="none" stroke="#191970" d="M422.2292,-55.2897C465.6949,-61.2988 525.5607,-69.5752 559.7245,-74.2983"/>
<polygon fill="#191970" stroke="#191970" points="422.4984,-51.7938 412.1133,-53.8912 421.5397,-58.7278 422.4984,-51.7938"/>
</g>
<!-- Node21&#45;&gt;Node19 -->
<g id="edge23" class="edge">
<title>Node21&#45;&gt;Node19</title>
<path fill="none" stroke="#9a32cd" stroke-dasharray="5,2" d="M415.4593,-84.3056C459.3291,-82.6883 523.9123,-80.3074 559.861,-78.9821"/>
<polygon fill="#9a32cd" stroke="#9a32cd" points="415.1974,-80.8128 405.3331,-84.679 415.4553,-87.8081 415.1974,-80.8128"/>
<text text-anchor="middle" x="481.5" y="-87" font-family="Helvetica,sans-Serif" font-size="10.00" fill="#000000"> fMutexImp</text>
</g>
<!-- Node22&#45;&gt;Node17 -->
<g id="edge25" class="edge">
<title>Node22&#45;&gt;Node17</title>
<path fill="none" stroke="#9a32cd" stroke-dasharray="5,2" d="M1652.4767,-215.4682C1694.0474,-185.4046 1784.3964,-120.0649 1818.2962,-95.5489"/>
<polygon fill="#9a32cd" stroke="#9a32cd" points="1650.2074,-212.79 1644.1554,-221.4861 1654.3095,-218.4621 1650.2074,-212.79"/>
<text text-anchor="middle" x="1740" y="-171" font-family="Helvetica,sans-Serif" font-size="10.00" fill="#000000"> fUrl</text>
</g>
<!-- Node23&#45;&gt;Node22 -->
<g id="edge27" class="edge">
<title>Node23&#45;&gt;Node22</title>
<path fill="none" stroke="#9a32cd" stroke-dasharray="5,2" d="M1132.2206,-146.0354C1200.7585,-154.3441 1339.4234,-172.1017 1456,-193 1513.379,-203.2862 1580.584,-218.8895 1612.441,-226.5032"/>
<polygon fill="#9a32cd" stroke="#9a32cd" points="1132.5794,-142.5534 1122.2324,-144.8314 1131.7416,-149.5031 1132.5794,-142.5534"/>
<text text-anchor="middle" x="1326" y="-182" font-family="Helvetica,sans-Serif" font-size="10.00" fill="#000000"> fgSpecialProtocols</text>
</g>
<!-- Node24&#45;&gt;Node22 -->
<g id="edge31" class="edge">
<title>Node24&#45;&gt;Node22</title>
<path fill="none" stroke="#9a32cd" stroke-dasharray="5,2" d="M1455.4554,-247.074C1499.408,-243.0494 1577.089,-235.9364 1612.4903,-232.6949"/>
<polygon fill="#9a32cd" stroke="#9a32cd" points="1454.9531,-243.6052 1445.3139,-248.0026 1455.5915,-250.5761 1454.9531,-243.6052"/>
<text text-anchor="middle" x="1508.5" y="-247" font-family="Helvetica,sans-Serif" font-size="10.00" fill="#000000"> fOptionsMap</text>
</g>
<!-- Node25&#45;&gt;Node24 -->
<g id="edge33" class="edge">
<title>Node25&#45;&gt;Node24</title>
<path fill="none" stroke="#9a32cd" stroke-dasharray="5,2" d="M1271.5472,-233.2012C1312.7356,-237.7547 1370.7167,-244.1647 1401.7987,-247.6009"/>
<polygon fill="#9a32cd" stroke="#9a32cd" points="1271.7881,-229.7066 1261.464,-232.0865 1271.0188,-236.6642 1271.7881,-229.7066"/>
<text text-anchor="middle" x="1326" y="-247" font-family="Helvetica,sans-Serif" font-size="10.00" fill="#000000"> fTable</text>
</g>
<!-- Node28 -->
<g id="node25" class="node">
<title>Node28</title>
<g id="a_node25"><a xlink:href="classTHashList.html" target="_top" xlink:title="THashList implements a hybrid collection class consisting of a hash table and a list to store TObject...">
<polygon fill="#ffffff" stroke="#000000" points="1391,-202.5 1391,-221.5 1456,-221.5 1456,-202.5 1391,-202.5"/>
<text text-anchor="middle" x="1423.5" y="-209.5" font-family="Helvetica,sans-Serif" font-size="10.00" fill="#000000">THashList</text>
</a>
</g>
</g>
<!-- Node25&#45;&gt;Node28 -->
<g id="edge40" class="edge">
<title>Node25&#45;&gt;Node28</title>
<path fill="none" stroke="#9a32cd" stroke-dasharray="5,2" d="M1271.2991,-217.1017C1273.8961,-216.6826 1276.4757,-216.31 1279,-216 1317.2357,-211.3042 1361.5707,-210.8016 1390.9437,-211.1519"/>
<polygon fill="#9a32cd" stroke="#9a32cd" points="1270.4931,-213.6906 1261.2757,-218.9146 1271.739,-220.5789 1270.4931,-213.6906"/>
<text text-anchor="middle" x="1326" y="-219" font-family="Helvetica,sans-Serif" font-size="10.00" fill="#000000"> fTable</text>
</g>
<!-- Node26&#45;&gt;Node25 -->
<g id="edge35" class="edge">
<title>Node26&#45;&gt;Node25</title>
<path fill="none" stroke="#9a32cd" stroke-dasharray="5,2" d="M1119.4022,-198.4169C1140.434,-204.337 1168.6166,-212.2699 1190.5033,-218.4305"/>
<polygon fill="#9a32cd" stroke="#9a32cd" points="1120.2852,-195.0295 1109.7109,-195.689 1118.3884,-201.7677 1120.2852,-195.0295"/>
<text text-anchor="middle" x="1155" y="-215" font-family="Helvetica,sans-Serif" font-size="10.00" fill="#000000"> fCont</text>
</g>
<!-- Node26&#45;&gt;Node28 -->
<g id="edge39" class="edge">
<title>Node26&#45;&gt;Node28</title>
<path fill="none" stroke="#191970" d="M1119.9974,-191.44C1171.9649,-193.9808 1280.9941,-199.6895 1373,-207 1378.7965,-207.4606 1384.9608,-208.016 1390.9179,-208.5868"/>
<polygon fill="#191970" stroke="#191970" points="1119.9584,-187.9341 1109.8009,-190.9465 1119.6199,-194.9259 1119.9584,-187.9341"/>
</g>
<!-- Node27 -->
<g id="node24" class="node">
<title>Node27</title>
<polygon fill="#ffffff" stroke="#bfbfbf" points="767,-152.5 767,-171.5 915,-171.5 915,-152.5 767,-152.5"/>
<text text-anchor="middle" x="841" y="-159.5" font-family="Helvetica,sans-Serif" font-size="10.00" fill="#000000">std::weak_ptr&lt; TObjLink &gt;</text>
</g>
<!-- Node27&#45;&gt;Node26 -->
<g id="edge37" class="edge">
<title>Node27&#45;&gt;Node26</title>
<path fill="none" stroke="#9a32cd" stroke-dasharray="5,2" d="M925.5053,-171.2465C960.6184,-175.1257 1001.7849,-179.7218 1039,-184 1048.9992,-185.1495 1060.1072,-186.4651 1069.3536,-187.5708"/>
<polygon fill="#9a32cd" stroke="#9a32cd" points="925.6172,-167.7376 915.2936,-170.1196 924.8494,-174.6954 925.6172,-167.7376"/>
<text text-anchor="middle" x="986" y="-187" font-family="Helvetica,sans-Serif" font-size="10.00" fill="#000000"> fCache</text>
</g>
<!-- Node28&#45;&gt;Node22 -->
<g id="edge38" class="edge">
<title>Node28&#45;&gt;Node22</title>
<path fill="none" stroke="#9a32cd" stroke-dasharray="5,2" d="M1466.4269,-215.9307C1511.3791,-220.0468 1579.8802,-226.3192 1612.4931,-229.3054"/>
<polygon fill="#9a32cd" stroke="#9a32cd" points="1466.6565,-212.4371 1456.379,-215.0106 1466.0182,-219.408 1466.6565,-212.4371"/>
<text text-anchor="middle" x="1508.5" y="-225" font-family="Helvetica,sans-Serif" font-size="10.00" fill="#000000"> fgHostFQDNs</text>
</g>
<!-- Node29 -->
<g id="node26" class="node">
<title>Node29</title>
<polygon fill="#ffffff" stroke="#bfbfbf" points="1561,-38.5 1561,-57.5 1701,-57.5 1701,-38.5 1561,-38.5"/>
<text text-anchor="middle" x="1631" y="-45.5" font-family="Helvetica,sans-Serif" font-size="10.00" fill="#000000">std::vector&lt; std::string &gt;</text>
</g>
<!-- Node29&#45;&gt;Node17 -->
<g id="edge41" class="edge">
<title>Node29&#45;&gt;Node17</title>
<path fill="none" stroke="#9a32cd" stroke-dasharray="5,2" d="M1711.4896,-52.9934C1727.9838,-54.8699 1745.1446,-57.4507 1761,-61 1777.4745,-64.6879 1795.3972,-71.0771 1809.0489,-76.4731"/>
<polygon fill="#9a32cd" stroke="#9a32cd" points="1711.6371,-49.4895 1701.3234,-51.9137 1710.8978,-56.4503 1711.6371,-49.4895"/>
<text text-anchor="middle" x="1740" y="-64" font-family="Helvetica,sans-Serif" font-size="10.00" fill="#000000"> replicas</text>
</g>
</g>
</svg>
