<?xml version="1.0" encoding="UTF-8" standalone="no"?>
<!DOCTYPE svg PUBLIC "-//W3C//DTD SVG 1.1//EN"
 "http://www.w3.org/Graphics/SVG/1.1/DTD/svg11.dtd">
<!-- Generated by graphviz version 2.40.1 (0)
 -->
<!-- Title: TDictionary Pages: 1 -->
<svg width="578pt" height="332pt"
 viewBox="0.00 0.00 578.00 332.00" xmlns="http://www.w3.org/2000/svg" xmlns:xlink="http://www.w3.org/1999/xlink">
<g id="graph0" class="graph" transform="scale(1 1) rotate(0) translate(4 328)">
<title>TDictionary</title>
<polygon fill="#ffffff" stroke="transparent" points="-4,4 -4,-328 574,-328 574,4 -4,4"/>
<!-- Node0 -->
<g id="node1" class="node">
<title>Node0</title>
<polygon fill="#bfbfbf" stroke="#000000" points="184,-152.5 184,-171.5 257,-171.5 257,-152.5 184,-152.5"/>
<text text-anchor="middle" x="220.5" y="-159.5" font-family="Helvetica,sans-Serif" font-size="10.00" fill="#000000">TDictionary</text>
</g>
<!-- Node3 -->
<g id="node4" class="node">
<title>Node3</title>
<g id="a_node4"><a xlink:href="classTBaseClass.html" target="_top" xlink:title="Each class (see TClass) has a linked list of its base class(es). ">
<polygon fill="#ffffff" stroke="#000000" points="310.5,-304.5 310.5,-323.5 383.5,-323.5 383.5,-304.5 310.5,-304.5"/>
<text text-anchor="middle" x="347" y="-311.5" font-family="Helvetica,sans-Serif" font-size="10.00" fill="#000000">TBaseClass</text>
</a>
</g>
</g>
<!-- Node0&#45;&gt;Node3 -->
<g id="edge3" class="edge">
<title>Node0&#45;&gt;Node3</title>
<path fill="none" stroke="#191970" d="M226.068,-181.2449C235.3344,-209.9781 256.5925,-264.0208 293,-295 298.0713,-299.3152 304.1869,-302.6731 310.4528,-305.2792"/>
<polygon fill="#191970" stroke="#191970" points="229.3791,-180.1042 223.0971,-171.5727 222.6876,-182.1596 229.3791,-180.1042"/>
</g>
<!-- Node4 -->
<g id="node5" class="node">
<title>Node4</title>
<g id="a_node5"><a xlink:href="classTClass.html" target="_top" xlink:title="TClass">
<polygon fill="#ffffff" stroke="#000000" points="323,-266.5 323,-285.5 371,-285.5 371,-266.5 323,-266.5"/>
<text text-anchor="middle" x="347" y="-273.5" font-family="Helvetica,sans-Serif" font-size="10.00" fill="#000000">TClass</text>
</a>
</g>
</g>
<!-- Node0&#45;&gt;Node4 -->
<g id="edge4" class="edge">
<title>Node0&#45;&gt;Node4</title>
<path fill="none" stroke="#191970" d="M230.2438,-180.5643C242.304,-201.8562 264.7507,-236.4624 293,-257 301.8424,-263.4285 313.0559,-267.8405 322.9704,-270.782"/>
<polygon fill="#191970" stroke="#191970" points="233.1858,-178.6497 225.3136,-171.5589 227.0458,-182.0112 233.1858,-178.6497"/>
</g>
<!-- Node6 -->
<g id="node7" class="node">
<title>Node6</title>
<g id="a_node7"><a xlink:href="classTDataMember.html" target="_top" xlink:title="All ROOT classes may have RTTI (run time type identification) support added. ">
<polygon fill="#ffffff" stroke="#000000" points="304,-228.5 304,-247.5 390,-247.5 390,-228.5 304,-228.5"/>
<text text-anchor="middle" x="347" y="-235.5" font-family="Helvetica,sans-Serif" font-size="10.00" fill="#000000">TDataMember</text>
</a>
</g>
</g>
<!-- Node0&#45;&gt;Node6 -->
<g id="edge6" class="edge">
<title>Node0&#45;&gt;Node6</title>
<path fill="none" stroke="#191970" d="M237.963,-178.4348C251.9665,-190.9157 272.588,-207.7879 293,-219 299.6202,-222.6364 307.0689,-225.7883 314.2708,-228.4228"/>
<polygon fill="#191970" stroke="#191970" points="240.2845,-175.8151 230.5343,-171.6697 235.5713,-180.9906 240.2845,-175.8151"/>
</g>
<!-- Node7 -->
<g id="node8" class="node">
<title>Node7</title>
<g id="a_node8"><a xlink:href="classTDataType.html" target="_top" xlink:title="Basic data type descriptor (datatype information is obtained from CINT). ">
<polygon fill="#ffffff" stroke="#000000" points="313,-190.5 313,-209.5 381,-209.5 381,-190.5 313,-190.5"/>
<text text-anchor="middle" x="347" y="-197.5" font-family="Helvetica,sans-Serif" font-size="10.00" fill="#000000">TDataType</text>
</a>
</g>
</g>
<!-- Node0&#45;&gt;Node7 -->
<g id="edge7" class="edge">
<title>Node0&#45;&gt;Node7</title>
<path fill="none" stroke="#191970" d="M262.2294,-174.5353C279.4382,-179.7048 299.0601,-185.5991 315.0889,-190.4141"/>
<polygon fill="#191970" stroke="#191970" points="263.0055,-171.114 252.4213,-171.589 260.9916,-177.8181 263.0055,-171.114"/>
</g>
<!-- Node8 -->
<g id="node9" class="node">
<title>Node8</title>
<g id="a_node9"><a xlink:href="classTEnum.html" target="_top" xlink:title="The TEnum class implements the enum type. ">
<polygon fill="#ffffff" stroke="#000000" points="322,-152.5 322,-171.5 372,-171.5 372,-152.5 322,-152.5"/>
<text text-anchor="middle" x="347" y="-159.5" font-family="Helvetica,sans-Serif" font-size="10.00" fill="#000000">TEnum</text>
</a>
</g>
</g>
<!-- Node0&#45;&gt;Node8 -->
<g id="edge8" class="edge">
<title>Node0&#45;&gt;Node8</title>
<path fill="none" stroke="#191970" d="M267.1013,-162C285.5807,-162 306.1015,-162 321.7191,-162"/>
<polygon fill="#191970" stroke="#191970" points="267.0891,-158.5001 257.089,-162 267.089,-165.5001 267.0891,-158.5001"/>
</g>
<!-- Node9 -->
<g id="node10" class="node">
<title>Node9</title>
<g id="a_node10"><a xlink:href="classTFunction.html" target="_top" xlink:title="Global functions class (global functions are obtained from CINT). ">
<polygon fill="#ffffff" stroke="#000000" points="315.5,-114.5 315.5,-133.5 378.5,-133.5 378.5,-114.5 315.5,-114.5"/>
<text text-anchor="middle" x="347" y="-121.5" font-family="Helvetica,sans-Serif" font-size="10.00" fill="#000000">TFunction</text>
</a>
</g>
</g>
<!-- Node0&#45;&gt;Node9 -->
<g id="edge9" class="edge">
<title>Node0&#45;&gt;Node9</title>
<path fill="none" stroke="#191970" d="M262.2294,-149.4647C279.4382,-144.2952 299.0601,-138.4009 315.0889,-133.5859"/>
<polygon fill="#191970" stroke="#191970" points="260.9916,-146.1819 252.4213,-152.411 263.0055,-152.886 260.9916,-146.1819"/>
</g>
<!-- Node11 -->
<g id="node12" class="node">
<title>Node11</title>
<g id="a_node12"><a xlink:href="classTFunctionTemplate.html" target="_top" xlink:title="Dictionary for function template This class describes one single function template. ">
<polygon fill="#ffffff" stroke="#000000" points="293,-76.5 293,-95.5 401,-95.5 401,-76.5 293,-76.5"/>
<text text-anchor="middle" x="347" y="-83.5" font-family="Helvetica,sans-Serif" font-size="10.00" fill="#000000">TFunctionTemplate</text>
</a>
</g>
</g>
<!-- Node0&#45;&gt;Node11 -->
<g id="edge11" class="edge">
<title>Node0&#45;&gt;Node11</title>
<path fill="none" stroke="#191970" d="M237.963,-145.5652C251.9665,-133.0843 272.588,-116.2121 293,-105 299.6202,-101.3636 307.0689,-98.2117 314.2708,-95.5772"/>
<polygon fill="#191970" stroke="#191970" points="235.5713,-143.0094 230.5343,-152.3303 240.2845,-148.1849 235.5713,-143.0094"/>
</g>
<!-- Node12 -->
<g id="node13" class="node">
<title>Node12</title>
<g id="a_node13"><a xlink:href="classTGlobal.html" target="_top" xlink:title="Global variables class (global variables are obtained from CINT). ">
<polygon fill="#ffffff" stroke="#000000" points="320,-38.5 320,-57.5 374,-57.5 374,-38.5 320,-38.5"/>
<text text-anchor="middle" x="347" y="-45.5" font-family="Helvetica,sans-Serif" font-size="10.00" fill="#000000">TGlobal</text>
</a>
</g>
</g>
<!-- Node0&#45;&gt;Node12 -->
<g id="edge12" class="edge">
<title>Node0&#45;&gt;Node12</title>
<path fill="none" stroke="#191970" d="M230.2438,-143.4357C242.304,-122.1438 264.7507,-87.5376 293,-67 300.9581,-61.2143 310.8369,-57.062 319.9607,-54.1451"/>
<polygon fill="#191970" stroke="#191970" points="227.0458,-141.9888 225.3136,-152.4411 233.1858,-145.3503 227.0458,-141.9888"/>
</g>
<!-- Node15 -->
<g id="node16" class="node">
<title>Node15</title>
<g id="a_node16"><a xlink:href="classTMethodArg.html" target="_top" xlink:title="Each ROOT method (see TMethod) has a linked list of its arguments. ">
<polygon fill="#ffffff" stroke="#000000" points="309.5,-.5 309.5,-19.5 384.5,-19.5 384.5,-.5 309.5,-.5"/>
<text text-anchor="middle" x="347" y="-7.5" font-family="Helvetica,sans-Serif" font-size="10.00" fill="#000000">TMethodArg</text>
</a>
</g>
</g>
<!-- Node0&#45;&gt;Node15 -->
<g id="edge15" class="edge">
<title>Node0&#45;&gt;Node15</title>
<path fill="none" stroke="#191970" d="M226.068,-142.7551C235.3344,-114.0219 256.5925,-59.9792 293,-29 297.7685,-24.9425 303.4604,-21.7313 309.3323,-19.1957"/>
<polygon fill="#191970" stroke="#191970" points="222.6876,-141.8404 223.0971,-152.4273 229.3791,-143.8958 222.6876,-141.8404"/>
</g>
<!-- Node1 -->
<g id="node2" class="node">
<title>Node1</title>
<g id="a_node2"><a xlink:href="classTNamed.html" target="_top" xlink:title="The TNamed class is the base class for all named ROOT classes. ">
<polygon fill="#ffffff" stroke="#000000" points="90,-152.5 90,-171.5 148,-171.5 148,-152.5 90,-152.5"/>
<text text-anchor="middle" x="119" y="-159.5" font-family="Helvetica,sans-Serif" font-size="10.00" fill="#000000">TNamed</text>
</a>
</g>
</g>
<!-- Node1&#45;&gt;Node0 -->
<g id="edge1" class="edge">
<title>Node1&#45;&gt;Node0</title>
<path fill="none" stroke="#191970" d="M158.0991,-162C166.549,-162 175.4543,-162 183.808,-162"/>
<polygon fill="#191970" stroke="#191970" points="158.0859,-158.5001 148.0858,-162 158.0858,-165.5001 158.0859,-158.5001"/>
</g>
<!-- Node2 -->
<g id="node3" class="node">
<title>Node2</title>
<g id="a_node3"><a xlink:href="classTObject.html" target="_top" xlink:title="Mother of all ROOT objects. ">
<polygon fill="#ffffff" stroke="#000000" points="0,-152.5 0,-171.5 54,-171.5 54,-152.5 0,-152.5"/>
<text text-anchor="middle" x="27" y="-159.5" font-family="Helvetica,sans-Serif" font-size="10.00" fill="#000000">TObject</text>
</a>
</g>
</g>
<!-- Node2&#45;&gt;Node1 -->
<g id="edge2" class="edge">
<title>Node2&#45;&gt;Node1</title>
<path fill="none" stroke="#191970" d="M64.2232,-162C72.7561,-162 81.7074,-162 89.8432,-162"/>
<polygon fill="#191970" stroke="#191970" points="64.1055,-158.5001 54.1054,-162 64.1054,-165.5001 64.1055,-158.5001"/>
</g>
<!-- Node5 -->
<g id="node6" class="node">
<title>Node5</title>
<g id="a_node6"><a xlink:href="classTQClass.html" target="_top" xlink:title="TQClass">
<polygon fill="#ffffff" stroke="#000000" points="475.5,-266.5 475.5,-285.5 531.5,-285.5 531.5,-266.5 475.5,-266.5"/>
<text text-anchor="middle" x="503.5" y="-273.5" font-family="Helvetica,sans-Serif" font-size="10.00" fill="#000000">TQClass</text>
</a>
</g>
</g>
<!-- Node4&#45;&gt;Node5 -->
<g id="edge5" class="edge">
<title>Node4&#45;&gt;Node5</title>
<path fill="none" stroke="#191970" d="M381.3213,-276C409.5369,-276 449.0249,-276 475.3911,-276"/>
<polygon fill="#191970" stroke="#191970" points="381.1102,-272.5001 371.1102,-276 381.1101,-279.5001 381.1102,-272.5001"/>
</g>
<!-- Node10 -->
<g id="node11" class="node">
<title>Node10</title>
<g id="a_node11"><a xlink:href="classTMethod.html" target="_top" xlink:title="Each ROOT class (see TClass) has a linked list of methods. ">
<polygon fill="#ffffff" stroke="#000000" points="474,-114.5 474,-133.5 533,-133.5 533,-114.5 474,-114.5"/>
<text text-anchor="middle" x="503.5" y="-121.5" font-family="Helvetica,sans-Serif" font-size="10.00" fill="#000000">TMethod</text>
</a>
</g>
</g>
<!-- Node9&#45;&gt;Node10 -->
<g id="edge10" class="edge">
<title>Node9&#45;&gt;Node10</title>
<path fill="none" stroke="#191970" d="M388.9365,-124C415.7929,-124 449.9824,-124 473.9946,-124"/>
<polygon fill="#191970" stroke="#191970" points="388.6701,-120.5001 378.6701,-124 388.6701,-127.5001 388.6701,-120.5001"/>
</g>
<!-- Node13 -->
<g id="node14" class="node">
<title>Node13</title>
<g id="a_node14"><a xlink:href="classTEnumConstant.html" target="_top" xlink:title="The TEnumConstant class implements the constants of the enum type. ">
<polygon fill="#ffffff" stroke="#000000" points="456.5,-57.5 456.5,-76.5 550.5,-76.5 550.5,-57.5 456.5,-57.5"/>
<text text-anchor="middle" x="503.5" y="-64.5" font-family="Helvetica,sans-Serif" font-size="10.00" fill="#000000">TEnumConstant</text>
</a>
</g>
</g>
<!-- Node12&#45;&gt;Node13 -->
<g id="edge13" class="edge">
<title>Node12&#45;&gt;Node13</title>
<path fill="none" stroke="#191970" d="M384.3441,-52.5338C405.9196,-55.1532 433.267,-58.4733 456.3193,-61.272"/>
<polygon fill="#191970" stroke="#191970" points="384.6092,-49.0404 374.2602,-51.3095 383.7655,-55.9893 384.6092,-49.0404"/>
</g>
<!-- Node14 -->
<g id="node15" class="node">
<title>Node14</title>
<g id="a_node15"><a xlink:href="classTGlobalMappedFunction.html" target="_top" xlink:title="TGlobalMappedFunction">
<polygon fill="#ffffff" stroke="#000000" points="437,-19.5 437,-38.5 570,-38.5 570,-19.5 437,-19.5"/>
<text text-anchor="middle" x="503.5" y="-26.5" font-family="Helvetica,sans-Serif" font-size="10.00" fill="#000000">TGlobalMappedFunction</text>
</a>
</g>
</g>
<!-- Node12&#45;&gt;Node14 -->
<g id="edge14" class="edge">
<title>Node12&#45;&gt;Node14</title>
<path fill="none" stroke="#191970" d="M384.5906,-43.4363C400.2772,-41.5318 418.9823,-39.2609 436.8604,-37.0904"/>
<polygon fill="#191970" stroke="#191970" points="383.7655,-40.0107 374.2602,-44.6905 384.6092,-46.9596 383.7655,-40.0107"/>
</g>
</g>
</svg>
