<?xml version="1.0" encoding="UTF-8" standalone="no"?>
<!DOCTYPE svg PUBLIC "-//W3C//DTD SVG 1.1//EN"
 "http://www.w3.org/Graphics/SVG/1.1/DTD/svg11.dtd">
<!-- Generated by graphviz version 2.40.1 (0)
 -->
<!-- Title: TFileCollection Pages: 1 -->
<svg width="483pt" height="565pt"
 viewBox="0.00 0.00 482.78 565.00" xmlns="http://www.w3.org/2000/svg" xmlns:xlink="http://www.w3.org/1999/xlink">
<g id="graph0" class="graph" transform="scale(1 1) rotate(0) translate(4 561)">
<title>TFileCollection</title>
<polygon fill="#ffffff" stroke="transparent" points="-4,4 -4,-561 478.7841,-561 478.7841,4 -4,4"/>
<!-- Node3 -->
<g id="node1" class="node">
<title>Node3</title>
<polygon fill="#bfbfbf" stroke="#000000" points="146.5,-.5 146.5,-19.5 234.5,-19.5 234.5,-.5 146.5,-.5"/>
<text text-anchor="middle" x="190.5" y="-7.5" font-family="Helvetica,sans-Serif" font-size="10.00" fill="#000000">TFileCollection</text>
</g>
<!-- Node4 -->
<g id="node2" class="node">
<title>Node4</title>
<g id="a_node2"><a xlink:href="classTNamed.html" target="_top" xlink:title="The TNamed class is the base class for all named ROOT classes. ">
<polygon fill="#ffffff" stroke="#000000" points="85.5,-325.5 85.5,-344.5 143.5,-344.5 143.5,-325.5 85.5,-325.5"/>
<text text-anchor="middle" x="114.5" y="-332.5" font-family="Helvetica,sans-Serif" font-size="10.00" fill="#000000">TNamed</text>
</a>
</g>
</g>
<!-- Node4&#45;&gt;Node3 -->
<g id="edge1" class="edge">
<title>Node4&#45;&gt;Node3</title>
<path fill="none" stroke="#191970" d="M117.6164,-315.1871C119.0766,-304.2501 120.5,-290.407 120.5,-278 120.5,-278 120.5,-278 120.5,-77 120.5,-49.916 148.1866,-30.3985 168.7353,-19.6427"/>
<polygon fill="#191970" stroke="#191970" points="114.114,-314.9511 116.1395,-325.3505 121.0413,-315.9578 114.114,-314.9511"/>
</g>
<!-- Node5 -->
<g id="node3" class="node">
<title>Node5</title>
<g id="a_node3"><a xlink:href="classTObject.html" target="_top" xlink:title="Mother of all ROOT objects. ">
<polygon fill="#ffffff" stroke="#000000" points="242.5,-470.5 242.5,-489.5 296.5,-489.5 296.5,-470.5 242.5,-470.5"/>
<text text-anchor="middle" x="269.5" y="-477.5" font-family="Helvetica,sans-Serif" font-size="10.00" fill="#000000">TObject</text>
</a>
</g>
</g>
<!-- Node5&#45;&gt;Node4 -->
<g id="edge2" class="edge">
<title>Node5&#45;&gt;Node4</title>
<path fill="none" stroke="#191970" d="M232.1033,-471.7199C207.8048,-465.9636 178.6485,-458.2359 167.5,-452 133.6292,-433.0543 122.6331,-422.1783 111.5,-385 107.4587,-371.5043 109.7335,-355.0665 111.949,-344.8146"/>
<polygon fill="#191970" stroke="#191970" points="231.62,-475.2008 242.1529,-474.0561 233.2051,-468.3826 231.62,-475.2008"/>
</g>
<!-- Node13 -->
<g id="node11" class="node">
<title>Node13</title>
<g id="a_node11"><a xlink:href="classTCollection.html" target="_top" xlink:title="Collection abstract base class. ">
<polygon fill="#ffffff" stroke="#000000" points="221,-325.5 221,-344.5 292,-344.5 292,-325.5 221,-325.5"/>
<text text-anchor="middle" x="256.5" y="-332.5" font-family="Helvetica,sans-Serif" font-size="10.00" fill="#000000">TCollection</text>
</a>
</g>
</g>
<!-- Node5&#45;&gt;Node13 -->
<g id="edge12" class="edge">
<title>Node5&#45;&gt;Node13</title>
<path fill="none" stroke="#191970" d="M267.7362,-460.3268C264.9143,-428.8513 259.4873,-368.3195 257.3732,-344.739"/>
<polygon fill="#191970" stroke="#191970" points="264.268,-460.8387 268.647,-470.4861 271.24,-460.2135 264.268,-460.8387"/>
</g>
<!-- Node14 -->
<g id="node12" class="node">
<title>Node14</title>
<g id="a_node12"><a xlink:href="classTObjectTable.html" target="_top" xlink:title="This class registers all instances of TObject and its derived classes in a hash table. ">
<polygon fill="#ffffff" stroke="#000000" points="284.5,-403.5 284.5,-422.5 364.5,-422.5 364.5,-403.5 284.5,-403.5"/>
<text text-anchor="middle" x="324.5" y="-410.5" font-family="Helvetica,sans-Serif" font-size="10.00" fill="#000000">TObjectTable</text>
</a>
</g>
</g>
<!-- Node5&#45;&gt;Node14 -->
<g id="edge14" class="edge">
<title>Node5&#45;&gt;Node14</title>
<path fill="none" stroke="#191970" d="M283.2421,-462.4286C288.576,-455.6833 294.77,-447.941 300.5,-441 305.6357,-434.7789 311.5299,-427.8987 316.1919,-422.5153"/>
<polygon fill="#191970" stroke="#191970" points="280.4786,-460.2807 277.0455,-470.304 285.9798,-464.6093 280.4786,-460.2807"/>
</g>
<!-- Node5&#45;&gt;Node14 -->
<g id="edge15" class="edge">
<title>Node5&#45;&gt;Node14</title>
<path fill="none" stroke="#9a32cd" stroke-dasharray="5,2" d="M288.7432,-463.3914C292.4845,-459.7965 296.2495,-455.8989 299.5,-452 307.225,-442.734 314.4804,-430.937 319.1642,-422.7563"/>
<polygon fill="#9a32cd" stroke="#9a32cd" points="286.2714,-460.9093 281.2692,-470.249 291.0039,-466.0672 286.2714,-460.9093"/>
<text text-anchor="middle" x="323" y="-444" font-family="Helvetica,sans-Serif" font-size="10.00" fill="#000000"> fTable</text>
</g>
<!-- Node6 -->
<g id="node4" class="node">
<title>Node6</title>
<g id="a_node4"><a xlink:href="classTString.html" target="_top" xlink:title="Basic string class. ">
<polygon fill="#ffffff" stroke="#000000" points="146,-403.5 146,-422.5 197,-422.5 197,-403.5 146,-403.5"/>
<text text-anchor="middle" x="171.5" y="-410.5" font-family="Helvetica,sans-Serif" font-size="10.00" fill="#000000">TString</text>
</a>
</g>
</g>
<!-- Node6&#45;&gt;Node3 -->
<g id="edge8" class="edge">
<title>Node6&#45;&gt;Node3</title>
<path fill="none" stroke="#9a32cd" stroke-dasharray="5,2" d="M171.5,-393.2698C171.5,-377.5008 171.5,-354.8322 171.5,-335 171.5,-335 171.5,-335 171.5,-77 171.5,-55.9623 180.2775,-32.5704 185.9006,-19.7434"/>
<polygon fill="#9a32cd" stroke="#9a32cd" points="168.0001,-393.3935 171.5,-403.3935 175.0001,-393.3936 168.0001,-393.3935"/>
<text text-anchor="middle" x="203.5" y="-208.5" font-family="Helvetica,sans-Serif" font-size="10.00" fill="#000000"> fDefaultTree</text>
</g>
<!-- Node6&#45;&gt;Node4 -->
<g id="edge3" class="edge">
<title>Node6&#45;&gt;Node4</title>
<path fill="none" stroke="#9a32cd" stroke-dasharray="5,2" d="M137.526,-398.2922C132.1504,-394.6432 127.1653,-390.2397 123.5,-385 115.1076,-373.0027 113.8148,-355.5408 113.9432,-344.7458"/>
<polygon fill="#9a32cd" stroke="#9a32cd" points="135.7755,-401.3233 146.1614,-403.4171 139.3481,-395.3035 135.7755,-401.3233"/>
<text text-anchor="middle" x="140.5" y="-377" font-family="Helvetica,sans-Serif" font-size="10.00" fill="#000000"> fTitle</text>
<text text-anchor="middle" x="140.5" y="-366" font-family="Helvetica,sans-Serif" font-size="10.00" fill="#000000">fName</text>
</g>
<!-- Node6&#45;&gt;Node13 -->
<g id="edge16" class="edge">
<title>Node6&#45;&gt;Node13</title>
<path fill="none" stroke="#9a32cd" stroke-dasharray="5,2" d="M181.3563,-394.2484C187.3511,-384.1096 195.7292,-371.8833 205.5,-363 213.7958,-355.4577 224.4858,-349.1919 233.9341,-344.5136"/>
<polygon fill="#9a32cd" stroke="#9a32cd" points="178.2026,-392.7168 176.3713,-403.1522 184.3105,-396.1365 178.2026,-392.7168"/>
<text text-anchor="middle" x="224" y="-371.5" font-family="Helvetica,sans-Serif" font-size="10.00" fill="#000000"> fName</text>
</g>
<!-- Node7 -->
<g id="node5" class="node">
<title>Node7</title>
<g id="a_node5"><a xlink:href="structTString_1_1Rep__t.html" target="_top" xlink:title="TString::Rep_t">
<polygon fill="#ffffff" stroke="#000000" points="129.5,-470.5 129.5,-489.5 213.5,-489.5 213.5,-470.5 129.5,-470.5"/>
<text text-anchor="middle" x="171.5" y="-477.5" font-family="Helvetica,sans-Serif" font-size="10.00" fill="#000000">TString::Rep_t</text>
</a>
</g>
</g>
<!-- Node7&#45;&gt;Node6 -->
<g id="edge4" class="edge">
<title>Node7&#45;&gt;Node6</title>
<path fill="none" stroke="#9a32cd" stroke-dasharray="5,2" d="M171.5,-460.1079C171.5,-447.714 171.5,-432.3263 171.5,-422.5817"/>
<polygon fill="#9a32cd" stroke="#9a32cd" points="168.0001,-460.4005 171.5,-470.4005 175.0001,-460.4006 168.0001,-460.4005"/>
<text text-anchor="middle" x="184" y="-444" font-family="Helvetica,sans-Serif" font-size="10.00" fill="#000000"> fRep</text>
</g>
<!-- Node8 -->
<g id="node6" class="node">
<title>Node8</title>
<g id="a_node6"><a xlink:href="structTString_1_1LongStr__t.html" target="_top" xlink:title="TString::LongStr_t">
<polygon fill="#ffffff" stroke="#000000" points="0,-537.5 0,-556.5 103,-556.5 103,-537.5 0,-537.5"/>
<text text-anchor="middle" x="51.5" y="-544.5" font-family="Helvetica,sans-Serif" font-size="10.00" fill="#000000">TString::LongStr_t</text>
</a>
</g>
</g>
<!-- Node8&#45;&gt;Node7 -->
<g id="edge5" class="edge">
<title>Node8&#45;&gt;Node7</title>
<path fill="none" stroke="#9a32cd" stroke-dasharray="5,2" d="M77.6768,-532.3846C100.9489,-519.391 134.3033,-500.7681 154.3388,-489.5817"/>
<polygon fill="#9a32cd" stroke="#9a32cd" points="75.7181,-529.4696 68.6931,-537.4005 79.1306,-535.5815 75.7181,-529.4696"/>
<text text-anchor="middle" x="135" y="-511" font-family="Helvetica,sans-Serif" font-size="10.00" fill="#000000"> fLong</text>
</g>
<!-- Node9 -->
<g id="node7" class="node">
<title>Node9</title>
<g id="a_node7"><a xlink:href="structTString_1_1RawStr__t.html" target="_top" xlink:title="TString::RawStr_t">
<polygon fill="#ffffff" stroke="#000000" points="121,-537.5 121,-556.5 222,-556.5 222,-537.5 121,-537.5"/>
<text text-anchor="middle" x="171.5" y="-544.5" font-family="Helvetica,sans-Serif" font-size="10.00" fill="#000000">TString::RawStr_t</text>
</a>
</g>
</g>
<!-- Node9&#45;&gt;Node7 -->
<g id="edge6" class="edge">
<title>Node9&#45;&gt;Node7</title>
<path fill="none" stroke="#9a32cd" stroke-dasharray="5,2" d="M171.5,-527.1079C171.5,-514.714 171.5,-499.3263 171.5,-489.5817"/>
<polygon fill="#9a32cd" stroke="#9a32cd" points="168.0001,-527.4005 171.5,-537.4005 175.0001,-527.4006 168.0001,-527.4005"/>
<text text-anchor="middle" x="185.5" y="-511" font-family="Helvetica,sans-Serif" font-size="10.00" fill="#000000"> fRaw</text>
</g>
<!-- Node10 -->
<g id="node8" class="node">
<title>Node10</title>
<g id="a_node8"><a xlink:href="structTString_1_1ShortStr__t.html" target="_top" xlink:title="TString::ShortStr_t">
<polygon fill="#ffffff" stroke="#000000" points="240,-537.5 240,-556.5 345,-556.5 345,-537.5 240,-537.5"/>
<text text-anchor="middle" x="292.5" y="-544.5" font-family="Helvetica,sans-Serif" font-size="10.00" fill="#000000">TString::ShortStr_t</text>
</a>
</g>
</g>
<!-- Node10&#45;&gt;Node7 -->
<g id="edge7" class="edge">
<title>Node10&#45;&gt;Node7</title>
<path fill="none" stroke="#9a32cd" stroke-dasharray="5,2" d="M266.105,-532.3846C242.639,-519.391 209.0066,-500.7681 188.8042,-489.5817"/>
<polygon fill="#9a32cd" stroke="#9a32cd" points="264.7198,-535.6183 275.1637,-537.4005 268.1107,-529.4944 264.7198,-535.6183"/>
<text text-anchor="middle" x="256" y="-511" font-family="Helvetica,sans-Serif" font-size="10.00" fill="#000000"> fShort</text>
</g>
<!-- Node11 -->
<g id="node9" class="node">
<title>Node11</title>
<g id="a_node9"><a xlink:href="classTList.html" target="_top" xlink:title="A doubly linked list. ">
<polygon fill="#ffffff" stroke="#000000" points="276.5,-201.5 276.5,-220.5 316.5,-220.5 316.5,-201.5 276.5,-201.5"/>
<text text-anchor="middle" x="296.5" y="-208.5" font-family="Helvetica,sans-Serif" font-size="10.00" fill="#000000">TList</text>
</a>
</g>
</g>
<!-- Node11&#45;&gt;Node3 -->
<g id="edge9" class="edge">
<title>Node11&#45;&gt;Node3</title>
<path fill="none" stroke="#9a32cd" stroke-dasharray="5,2" d="M279.3932,-194.053C262.2045,-176.1257 236.089,-146.2923 220.5,-116 203.4345,-82.8385 194.9608,-38.6937 191.8914,-19.5387"/>
<polygon fill="#9a32cd" stroke="#9a32cd" points="277.0972,-196.711 286.5926,-201.4109 282.1006,-191.8154 277.0972,-196.711"/>
<text text-anchor="middle" x="256.5" y="-108" font-family="Helvetica,sans-Serif" font-size="10.00" fill="#000000"> fMetaDataList</text>
</g>
<!-- Node16 -->
<g id="node14" class="node">
<title>Node16</title>
<g id="a_node14"><a xlink:href="classTHashList.html" target="_top" xlink:title="THashList implements a hybrid collection class consisting of a hash table and a list to store TObject...">
<polygon fill="#ffffff" stroke="#000000" points="264,-67.5 264,-86.5 329,-86.5 329,-67.5 264,-67.5"/>
<text text-anchor="middle" x="296.5" y="-74.5" font-family="Helvetica,sans-Serif" font-size="10.00" fill="#000000">THashList</text>
</a>
</g>
</g>
<!-- Node11&#45;&gt;Node16 -->
<g id="edge20" class="edge">
<title>Node11&#45;&gt;Node16</title>
<path fill="none" stroke="#191970" d="M296.5,-191.124C296.5,-161.8572 296.5,-108.2914 296.5,-86.5496"/>
<polygon fill="#191970" stroke="#191970" points="293.0001,-191.363 296.5,-201.3631 300.0001,-191.3631 293.0001,-191.363"/>
</g>
<!-- Node17 -->
<g id="node15" class="node">
<title>Node17</title>
<g id="a_node15"><a xlink:href="classTHashTable.html" target="_top" xlink:title="THashTable implements a hash table to store TObject&#39;s. ">
<polygon fill="#ffffff" stroke="#000000" points="325,-134.5 325,-153.5 398,-153.5 398,-134.5 325,-134.5"/>
<text text-anchor="middle" x="361.5" y="-141.5" font-family="Helvetica,sans-Serif" font-size="10.00" fill="#000000">THashTable</text>
</a>
</g>
</g>
<!-- Node11&#45;&gt;Node17 -->
<g id="edge23" class="edge">
<title>Node11&#45;&gt;Node17</title>
<path fill="none" stroke="#9a32cd" stroke-dasharray="5,2" d="M312.9163,-194.0785C325.3485,-181.2639 341.9788,-164.1218 352.2044,-153.5817"/>
<polygon fill="#9a32cd" stroke="#9a32cd" points="310.264,-191.786 305.8129,-201.4005 315.2882,-196.6602 310.264,-191.786"/>
<text text-anchor="middle" x="347.5" y="-175" font-family="Helvetica,sans-Serif" font-size="10.00" fill="#000000"> fCont</text>
</g>
<!-- Node12 -->
<g id="node10" class="node">
<title>Node12</title>
<g id="a_node10"><a xlink:href="classTSeqCollection.html" target="_top" xlink:title="Sequenceable collection abstract base class. ">
<polygon fill="#ffffff" stroke="#000000" points="200,-268.5 200,-287.5 289,-287.5 289,-268.5 200,-268.5"/>
<text text-anchor="middle" x="244.5" y="-275.5" font-family="Helvetica,sans-Serif" font-size="10.00" fill="#000000">TSeqCollection</text>
</a>
</g>
</g>
<!-- Node12&#45;&gt;Node11 -->
<g id="edge10" class="edge">
<title>Node12&#45;&gt;Node11</title>
<path fill="none" stroke="#191970" d="M258.1996,-260.3486C268.079,-247.6194 281.0374,-230.9229 289.0635,-220.5817"/>
<polygon fill="#191970" stroke="#191970" points="255.3166,-258.3547 251.9503,-268.4005 260.8466,-262.6466 255.3166,-258.3547"/>
</g>
<!-- Node13&#45;&gt;Node12 -->
<g id="edge11" class="edge">
<title>Node13&#45;&gt;Node12</title>
<path fill="none" stroke="#191970" d="M252.4031,-315.5397C250.4124,-306.0839 248.1099,-295.147 246.5056,-287.5265"/>
<polygon fill="#191970" stroke="#191970" points="248.9793,-316.2663 254.4644,-325.3307 255.8291,-314.8242 248.9793,-316.2663"/>
</g>
<!-- Node13&#45;&gt;Node13 -->
<g id="edge17" class="edge">
<title>Node13&#45;&gt;Node13</title>
<path fill="none" stroke="#9a32cd" stroke-dasharray="5,2" d="M302.2805,-339.3285C306.9895,-338.4765 310,-337.0337 310,-335 310,-331.7461 302.2932,-330.0047 292.2532,-329.776"/>
<polygon fill="#9a32cd" stroke="#9a32cd" points="301.9022,-335.8483 292.2532,-340.224 302.5249,-342.8206 301.9022,-335.8483"/>
<text text-anchor="middle" x="359" y="-332.5" font-family="Helvetica,sans-Serif" font-size="10.00" fill="#000000"> fgCurrentCollection</text>
</g>
<!-- Node13&#45;&gt;Node17 -->
<g id="edge22" class="edge">
<title>Node13&#45;&gt;Node17</title>
<path fill="none" stroke="#191970" d="M302.6435,-331.1653C357.6416,-325.5262 444.6313,-312.8592 464.5,-288 503.5522,-239.1389 415.4317,-176.9656 377.6461,-153.5198"/>
<polygon fill="#191970" stroke="#191970" points="302.0443,-327.7072 292.4349,-332.1694 302.7295,-334.6736 302.0443,-327.7072"/>
</g>
<!-- Node14&#45;&gt;Node13 -->
<g id="edge13" class="edge">
<title>Node14&#45;&gt;Node13</title>
<path fill="none" stroke="#9a32cd" stroke-dasharray="5,2" d="M309.2527,-395.5105C295.5569,-379.8005 275.9535,-357.3143 264.9063,-344.6426"/>
<polygon fill="#9a32cd" stroke="#9a32cd" points="306.9523,-398.1979 316.1619,-403.4357 312.2287,-393.5979 306.9523,-398.1979"/>
<text text-anchor="middle" x="350" y="-371.5" font-family="Helvetica,sans-Serif" font-size="10.00" fill="#000000"> fgGarbageCollection</text>
</g>
<!-- Node15 -->
<g id="node13" class="node">
<title>Node15</title>
<polygon fill="#ffffff" stroke="#bfbfbf" points="307.5,-268.5 307.5,-287.5 455.5,-287.5 455.5,-268.5 307.5,-268.5"/>
<text text-anchor="middle" x="381.5" y="-275.5" font-family="Helvetica,sans-Serif" font-size="10.00" fill="#000000">std::weak_ptr&lt; TObjLink &gt;</text>
</g>
<!-- Node15&#45;&gt;Node11 -->
<g id="edge18" class="edge">
<title>Node15&#45;&gt;Node11</title>
<path fill="none" stroke="#9a32cd" stroke-dasharray="5,2" d="M361.3993,-262.1559C345.0128,-249.2395 322.4061,-231.4201 308.6558,-220.5817"/>
<polygon fill="#9a32cd" stroke="#9a32cd" points="359.3013,-264.9588 369.3216,-268.4005 363.6347,-259.4613 359.3013,-264.9588"/>
<text text-anchor="middle" x="362" y="-242" font-family="Helvetica,sans-Serif" font-size="10.00" fill="#000000"> fCache</text>
</g>
<!-- Node16&#45;&gt;Node3 -->
<g id="edge19" class="edge">
<title>Node16&#45;&gt;Node3</title>
<path fill="none" stroke="#9a32cd" stroke-dasharray="5,2" d="M272.8269,-62.0368C252.2973,-49.0605 223.1997,-30.6687 205.659,-19.5817"/>
<polygon fill="#9a32cd" stroke="#9a32cd" points="270.9897,-65.0161 281.3128,-67.4005 274.7298,-59.099 270.9897,-65.0161"/>
<text text-anchor="middle" x="263" y="-41" font-family="Helvetica,sans-Serif" font-size="10.00" fill="#000000"> fList</text>
</g>
<!-- Node17&#45;&gt;Node16 -->
<g id="edge21" class="edge">
<title>Node17&#45;&gt;Node16</title>
<path fill="none" stroke="#9a32cd" stroke-dasharray="5,2" d="M345.0837,-127.0785C332.6515,-114.2639 316.0212,-97.1218 305.7956,-86.5817"/>
<polygon fill="#9a32cd" stroke="#9a32cd" points="342.7118,-129.6602 352.1871,-134.4005 347.736,-124.786 342.7118,-129.6602"/>
<text text-anchor="middle" x="349" y="-108" font-family="Helvetica,sans-Serif" font-size="10.00" fill="#000000"> fTable</text>
</g>
</g>
</svg>
