<?xml version="1.0" encoding="UTF-8" standalone="no"?>
<!DOCTYPE svg PUBLIC "-//W3C//DTD SVG 1.1//EN"
 "http://www.w3.org/Graphics/SVG/1.1/DTD/svg11.dtd">
<!-- Generated by graphviz version 2.40.1 (0)
 -->
<!-- Title: ROOT::Math::IParametricFunctionOneDim Pages: 1 -->
<!--zoomable 187 -->
<svg id="main" version="1.1" xmlns="http://www.w3.org/2000/svg" xmlns:xlink="http://www.w3.org/1999/xlink" xml:space="preserve" onload="init(evt)">
<style type="text/css"><![CDATA[
.edge:hover path { stroke: red; }
.edge:hover polygon { stroke: red; fill: red; }
]]></style>
<script type="text/javascript"><![CDATA[
var edges = document.getElementsByTagName('g');
if (edges && edges.length) {
  for (var i=0;i<edges.length;i++) {
    if (edges[i].id.substr(0,4)=='edge') {
      edges[i].setAttribute('class','edge');
    }
  }
}
]]></script>
        <defs>
                <circle id="rim" cx="0" cy="0" r="7"/>
                <circle id="rim2" cx="0" cy="0" r="3.5"/>
                <g id="zoomPlus">
                        <use xlink:href="#rim" fill="#404040">
                                <set attributeName="fill" to="#808080" begin="zoomplus.mouseover" end="zoomplus.mouseout"/>
                        </use>
                        <path d="M-4,0h8M0,-4v8" fill="none" stroke="white" stroke-width="1.5" pointer-events="none"/>
                </g>
                <g id="zoomMin">
                        <use xlink:href="#rim" fill="#404040">
                                <set attributeName="fill" to="#808080" begin="zoomminus.mouseover" end="zoomminus.mouseout"/>
                        </use>
                        <path d="M-4,0h8" fill="none" stroke="white" stroke-width="1.5" pointer-events="none"/>
                </g>
                <g id="dirArrow">
                        <path fill="none" stroke="white" stroke-width="1.5" d="M0,-3.0v7 M-2.5,-0.5L0,-3.0L2.5,-0.5"/>
                </g>
               <g id="resetDef">
                       <use xlink:href="#rim2" fill="#404040">
                               <set attributeName="fill" to="#808080" begin="reset.mouseover" end="reset.mouseout"/>
                       </use>
               </g>
        </defs>

<script type="text/javascript">
var viewWidth = 935;
var viewHeight = 187;
var sectionId = 'dynsection-0';
</script>
<script xlink:href="svgpan.js"/>
<svg id="graph" class="graph">
<g id="viewport">
<title>ROOT::Math::IParametricFunctionOneDim</title>
<polygon fill="#ffffff" stroke="transparent" points="-4,4 -4,-183 931,-183 931,4 -4,4"/>
<!-- Node0 -->
<g id="node1" class="node">
<title>Node0</title>
<polygon fill="#bfbfbf" stroke="#000000" points="183,-63.5 183,-93.5 359,-93.5 359,-63.5 183,-63.5"/>
<text text-anchor="start" x="191" y="-81.5" font-family="Helvetica,sans-Serif" font-size="10.00" fill="#000000">ROOT::Math::IParametricFunction</text>
<text text-anchor="middle" x="271" y="-70.5" font-family="Helvetica,sans-Serif" font-size="10.00" fill="#000000">OneDim</text>
</g>
<!-- Node3 -->
<g id="node4" class="node">
<title>Node3</title>
<g id="a_node4"><a xlink:href="classROOT_1_1Math_1_1IParametricGradFunctionOneDim.html" target="_top" xlink:title="Interface (abstract class) for parametric one&#45;dimensional gradient functions providing in addition to...">
<polygon fill="#ffffff" stroke="#000000" points="403.5,-126.5 403.5,-156.5 561.5,-156.5 561.5,-126.5 403.5,-126.5"/>
<text text-anchor="start" x="411.5" y="-144.5" font-family="Helvetica,sans-Serif" font-size="10.00" fill="#000000">ROOT::Math::IParametricGrad</text>
<text text-anchor="middle" x="482.5" y="-133.5" font-family="Helvetica,sans-Serif" font-size="10.00" fill="#000000">FunctionOneDim</text>
</a>
</g>
</g>
<!-- Node0&#45;&gt;Node3 -->
<g id="edge3" class="edge">
<title>Node0&#45;&gt;Node3</title>
<path fill="none" stroke="#191970" d="M328.8803,-96.4875C349.7002,-102.8915 373.38,-110.0993 395,-116.5 406.0587,-119.774 417.9255,-123.2136 429.2402,-126.4582"/>
<polygon fill="#191970" stroke="#191970" points="329.8106,-93.1118 319.2233,-93.5117 327.7492,-99.8014 329.8106,-93.1118"/>
</g>
<!-- Node7 -->
<g id="node8" class="node">
<title>Node7</title>
<g id="a_node8"><a xlink:href="classROOT_1_1Math_1_1VavilovAccurateCdf.html" target="_top" xlink:title="Class describing the Vavilov cdf. ">
<polygon fill="#ffffff" stroke="#000000" points="395,-88 395,-107 570,-107 570,-88 395,-88"/>
<text text-anchor="middle" x="482.5" y="-95" font-family="Helvetica,sans-Serif" font-size="10.00" fill="#000000">ROOT::Math::VavilovAccurateCdf</text>
</a>
</g>
</g>
<!-- Node0&#45;&gt;Node7 -->
<g id="edge7" class="edge">
<title>Node0&#45;&gt;Node7</title>
<path fill="none" stroke="#191970" d="M369.1673,-87.3188C377.7266,-88.0877 386.3525,-88.8626 394.8192,-89.6232"/>
<polygon fill="#191970" stroke="#191970" points="369.4366,-83.829 359.1635,-86.4201 368.8102,-90.8009 369.4366,-83.829"/>
</g>
<!-- Node8 -->
<g id="node9" class="node">
<title>Node8</title>
<g id="a_node9"><a xlink:href="classROOT_1_1Math_1_1VavilovAccuratePdf.html" target="_top" xlink:title="Class describing the Vavilov pdf. ">
<polygon fill="#ffffff" stroke="#000000" points="395.5,-50 395.5,-69 569.5,-69 569.5,-50 395.5,-50"/>
<text text-anchor="middle" x="482.5" y="-57" font-family="Helvetica,sans-Serif" font-size="10.00" fill="#000000">ROOT::Math::VavilovAccuratePdf</text>
</a>
</g>
</g>
<!-- Node0&#45;&gt;Node8 -->
<g id="edge8" class="edge">
<title>Node0&#45;&gt;Node8</title>
<path fill="none" stroke="#191970" d="M369.3605,-69.6638C378.0855,-68.88 386.8778,-68.0902 395.4984,-67.3157"/>
<polygon fill="#191970" stroke="#191970" points="368.8102,-66.1991 359.1635,-70.5799 369.4366,-73.171 368.8102,-66.1991"/>
</g>
<!-- Node9 -->
<g id="node10" class="node">
<title>Node9</title>
<g id="a_node10"><a xlink:href="classROOT_1_1Math_1_1VavilovAccurateQuantile.html" target="_top" xlink:title="Class describing the Vavilov quantile function. ">
<polygon fill="#ffffff" stroke="#000000" points="403.5,-.5 403.5,-30.5 561.5,-30.5 561.5,-.5 403.5,-.5"/>
<text text-anchor="start" x="411.5" y="-18.5" font-family="Helvetica,sans-Serif" font-size="10.00" fill="#000000">ROOT::Math::VavilovAccurate</text>
<text text-anchor="middle" x="482.5" y="-7.5" font-family="Helvetica,sans-Serif" font-size="10.00" fill="#000000">Quantile</text>
</a>
</g>
</g>
<!-- Node0&#45;&gt;Node9 -->
<g id="edge9" class="edge">
<title>Node0&#45;&gt;Node9</title>
<path fill="none" stroke="#191970" d="M328.8803,-60.5125C349.7002,-54.1085 373.38,-46.9007 395,-40.5 406.0587,-37.226 417.9255,-33.7864 429.2402,-30.5418"/>
<polygon fill="#191970" stroke="#191970" points="327.7492,-57.1986 319.2233,-63.4883 329.8106,-63.8882 327.7492,-57.1986"/>
</g>
<!-- Node1 -->
<g id="node2" class="node">
<title>Node1</title>
<g id="a_node2"><a xlink:href="classROOT_1_1Math_1_1IBaseFunctionOneDim.html" target="_top" xlink:title="Interface (abstract class) for generic functions objects of one&#45;dimension Provides a method to evalua...">
<polygon fill="#ffffff" stroke="#000000" points="0,-85.5 0,-115.5 147,-115.5 147,-85.5 0,-85.5"/>
<text text-anchor="start" x="8" y="-103.5" font-family="Helvetica,sans-Serif" font-size="10.00" fill="#000000">ROOT::Math::IBaseFunction</text>
<text text-anchor="middle" x="73.5" y="-92.5" font-family="Helvetica,sans-Serif" font-size="10.00" fill="#000000">OneDim</text>
</a>
</g>
</g>
<!-- Node1&#45;&gt;Node0 -->
<g id="edge1" class="edge">
<title>Node1&#45;&gt;Node0</title>
<path fill="none" stroke="#191970" d="M157.2311,-91.173C165.6594,-90.2341 174.2371,-89.2787 182.7108,-88.3347"/>
<polygon fill="#191970" stroke="#191970" points="156.5927,-87.7224 147.0417,-92.308 157.3677,-94.6793 156.5927,-87.7224"/>
</g>
<!-- Node2 -->
<g id="node3" class="node">
<title>Node2</title>
<g id="a_node3"><a xlink:href="classROOT_1_1Math_1_1IBaseParam.html" target="_top" xlink:title="Documentation for the abstract class IBaseParam. ">
<polygon fill="#ffffff" stroke="#000000" points="5,-47 5,-66 142,-66 142,-47 5,-47"/>
<text text-anchor="middle" x="73.5" y="-54" font-family="Helvetica,sans-Serif" font-size="10.00" fill="#000000">ROOT::Math::IBaseParam</text>
</a>
</g>
</g>
<!-- Node2&#45;&gt;Node0 -->
<g id="edge2" class="edge">
<title>Node2&#45;&gt;Node0</title>
<path fill="none" stroke="#191970" d="M152.0133,-65.2458C162.12,-66.3716 172.5223,-67.5303 182.7716,-68.672"/>
<polygon fill="#191970" stroke="#191970" points="152.3477,-61.7615 142.0216,-64.1328 151.5727,-68.7184 152.3477,-61.7615"/>
</g>
<!-- Node4 -->
<g id="node5" class="node">
<title>Node4</title>
<g id="a_node5"><a xlink:href="classROOT_1_1Math_1_1ParamFunction.html" target="_top" xlink:title="ROOT::Math::ParamFunction\l\&lt; IParamGradFunction \&gt;">
<polygon fill="#ffffff" stroke="#000000" points="606,-148.5 606,-178.5 757,-178.5 757,-148.5 606,-148.5"/>
<text text-anchor="start" x="614" y="-166.5" font-family="Helvetica,sans-Serif" font-size="10.00" fill="#000000">ROOT::Math::ParamFunction</text>
<text text-anchor="middle" x="681.5" y="-155.5" font-family="Helvetica,sans-Serif" font-size="10.00" fill="#000000">&lt; IParamGradFunction &gt;</text>
</a>
</g>
</g>
<!-- Node3&#45;&gt;Node4 -->
<g id="edge4" class="edge">
<title>Node3&#45;&gt;Node4</title>
<path fill="none" stroke="#191970" d="M571.6711,-151.3581C583.0635,-152.6176 594.6385,-153.8972 605.7899,-155.13"/>
<polygon fill="#191970" stroke="#191970" points="572.0459,-147.8783 561.7219,-150.2582 571.2767,-154.8359 572.0459,-147.8783"/>
</g>
<!-- Node6 -->
<g id="node7" class="node">
<title>Node6</title>
<g id="a_node7"><a xlink:href="classROOT_1_1Math_1_1WrappedTF1.html" target="_top" xlink:title="Class to Wrap a ROOT Function class (like TF1) in a IParamFunction interface of one dimensions to be ...">
<polygon fill="#ffffff" stroke="#000000" points="611.5,-110 611.5,-129 751.5,-129 751.5,-110 611.5,-110"/>
<text text-anchor="middle" x="681.5" y="-117" font-family="Helvetica,sans-Serif" font-size="10.00" fill="#000000">ROOT::Math::WrappedTF1</text>
</a>
</g>
</g>
<!-- Node3&#45;&gt;Node6 -->
<g id="edge6" class="edge">
<title>Node3&#45;&gt;Node6</title>
<path fill="none" stroke="#191970" d="M571.7742,-131.6305C585.0021,-130.1681 598.4738,-128.6788 611.2405,-127.2674"/>
<polygon fill="#191970" stroke="#191970" points="571.2767,-128.1641 561.7219,-132.7418 572.0459,-135.1217 571.2767,-128.1641"/>
</g>
<!-- Node5 -->
<g id="node6" class="node">
<title>Node5</title>
<g id="a_node6"><a xlink:href="classROOT_1_1Math_1_1Polynomial.html" target="_top" xlink:title="Parametric Function class describing polynomials of order n. ">
<polygon fill="#ffffff" stroke="#000000" points="793,-154 793,-173 927,-173 927,-154 793,-154"/>
<text text-anchor="middle" x="860" y="-161" font-family="Helvetica,sans-Serif" font-size="10.00" fill="#000000">ROOT::Math::Polynomial</text>
</a>
</g>
</g>
<!-- Node4&#45;&gt;Node5 -->
<g id="edge5" class="edge">
<title>Node4&#45;&gt;Node5</title>
<path fill="none" stroke="#191970" d="M767.2802,-163.5C775.9003,-163.5 784.5636,-163.5 792.9479,-163.5"/>
<polygon fill="#191970" stroke="#191970" points="767.2001,-160.0001 757.2001,-163.5 767.2,-167.0001 767.2001,-160.0001"/>
</g>
</g>
</svg>
        <g id="navigator" transform="translate(0 0)" fill="#404254">
                <rect fill="#f2f5e9" fill-opacity="0.5" stroke="#606060" stroke-width=".5" x="0" y="0" width="60" height="60"/>
                <use id="zoomplus" xlink:href="#zoomPlus" x="17" y="9" onmousedown="handleZoom(evt,'in')"/>
                <use id="zoomminus" xlink:href="#zoomMin" x="42" y="9" onmousedown="handleZoom(evt,'out')"/>
                <use id="reset" xlink:href="#resetDef" x="30" y="36" onmousedown="handleReset()"/>
                <g id="arrowUp" xlink:href="#dirArrow" transform="translate(30 24)" onmousedown="handlePan(0,-1)">
                  <use xlink:href="#rim" fill="#404040">
                        <set attributeName="fill" to="#808080" begin="arrowUp.mouseover" end="arrowUp.mouseout"/>
                  </use>
                  <path fill="none" stroke="white" stroke-width="1.5" d="M0,-3.0v7 M-2.5,-0.5L0,-3.0L2.5,-0.5"/>
                </g>
                <g id="arrowRight" xlink:href="#dirArrow" transform="rotate(90) translate(36 -43)" onmousedown="handlePan(1,0)">
                  <use xlink:href="#rim" fill="#404040">
                        <set attributeName="fill" to="#808080" begin="arrowRight.mouseover" end="arrowRight.mouseout"/>
                  </use>
                  <path fill="none" stroke="white" stroke-width="1.5" d="M0,-3.0v7 M-2.5,-0.5L0,-3.0L2.5,-0.5"/>
                </g>
                <g id="arrowDown" xlink:href="#dirArrow" transform="rotate(180) translate(-30 -48)" onmousedown="handlePan(0,1)">
                  <use xlink:href="#rim" fill="#404040">
                        <set attributeName="fill" to="#808080" begin="arrowDown.mouseover" end="arrowDown.mouseout"/>
                  </use>
                  <path fill="none" stroke="white" stroke-width="1.5" d="M0,-3.0v7 M-2.5,-0.5L0,-3.0L2.5,-0.5"/>
                </g>
                <g id="arrowLeft" xlink:href="#dirArrow" transform="rotate(270) translate(-36 17)" onmousedown="handlePan(-1,0)">
                  <use xlink:href="#rim" fill="#404040">
                        <set attributeName="fill" to="#808080" begin="arrowLeft.mouseover" end="arrowLeft.mouseout"/>
                  </use>
                  <path fill="none" stroke="white" stroke-width="1.5" d="M0,-3.0v7 M-2.5,-0.5L0,-3.0L2.5,-0.5"/>
                </g>
        </g>
        <svg viewBox="0 0 15 15" width="100%" height="30px" preserveAspectRatio="xMaxYMin meet">
         <g id="arrow_out" transform="scale(0.3 0.3)">
          <a xlink:href="classROOT_1_1Math_1_1IParametricFunctionOneDim__inherit__graph_org.svg" target="_base">
           <rect id="button" ry="5" rx="5" y="6" x="6" height="38" width="38"
                fill="#f2f5e9" fill-opacity="0.5" stroke="#606060" stroke-width="1.0"/>
           <path id="arrow"
             d="M 11.500037,31.436501 C 11.940474,20.09759 22.043105,11.32322 32.158766,21.979434 L 37.068811,17.246167 C 37.068811,17.246167 37.088388,32 37.088388,32 L 22.160133,31.978069 C 22.160133,31.978069 26.997745,27.140456 26.997745,27.140456 C 18.528582,18.264221 13.291696,25.230495 11.500037,31.436501 z"
             style="fill:#404040;"/>
          </a>
         </g>
        </svg>
</svg>
