<?xml version="1.0" encoding="UTF-8" standalone="no"?>
<!DOCTYPE svg PUBLIC "-//W3C//DTD SVG 1.1//EN"
 "http://www.w3.org/Graphics/SVG/1.1/DTD/svg11.dtd">
<!-- Generated by graphviz version 2.40.1 (0)
 -->
<!-- Title: TMatrixTLazy&lt; Element &gt; Pages: 1 -->
<svg width="328pt" height="140pt"
 viewBox="0.00 0.00 327.50 140.00" xmlns="http://www.w3.org/2000/svg" xmlns:xlink="http://www.w3.org/1999/xlink">
<g id="graph0" class="graph" transform="scale(1 1) rotate(0) translate(4 136)">
<title>TMatrixTLazy&lt; Element &gt;</title>
<polygon fill="#ffffff" stroke="transparent" points="-4,4 -4,-136 323.5,-136 323.5,4 -4,4"/>
<!-- Node0 -->
<g id="node1" class="node">
<title>Node0</title>
<polygon fill="#bfbfbf" stroke="#000000" points="84.5,-56.5 84.5,-75.5 229.5,-75.5 229.5,-56.5 84.5,-56.5"/>
<text text-anchor="middle" x="157" y="-63.5" font-family="Helvetica,sans-Serif" font-size="10.00" fill="#000000">TMatrixTLazy&lt; Element &gt;</text>
</g>
<!-- Node2 -->
<g id="node3" class="node">
<title>Node2</title>
<g id="a_node3"><a xlink:href="classTHaarMatrixT.html" target="_top" xlink:title="THaarMatrixT\&lt; Element \&gt;">
<polygon fill="#ffffff" stroke="#000000" points="0,-.5 0,-19.5 146,-19.5 146,-.5 0,-.5"/>
<text text-anchor="middle" x="73" y="-7.5" font-family="Helvetica,sans-Serif" font-size="10.00" fill="#000000">THaarMatrixT&lt; Element &gt;</text>
</a>
</g>
</g>
<!-- Node0&#45;&gt;Node2 -->
<g id="edge2" class="edge">
<title>Node0&#45;&gt;Node2</title>
<path fill="none" stroke="#191970" d="M133.7351,-50.49C118.9144,-40.6096 100.1791,-28.1194 87.464,-19.6427"/>
<polygon fill="#191970" stroke="#191970" points="132.1063,-53.6107 142.3683,-56.2455 135.9893,-47.7863 132.1063,-53.6107"/>
</g>
<!-- Node3 -->
<g id="node4" class="node">
<title>Node3</title>
<g id="a_node4"><a xlink:href="classTHilbertMatrixT.html" target="_top" xlink:title="THilbertMatrixT\&lt; Element \&gt;">
<polygon fill="#ffffff" stroke="#000000" points="164.5,-.5 164.5,-19.5 319.5,-19.5 319.5,-.5 164.5,-.5"/>
<text text-anchor="middle" x="242" y="-7.5" font-family="Helvetica,sans-Serif" font-size="10.00" fill="#000000">THilbertMatrixT&lt; Element &gt;</text>
</a>
</g>
</g>
<!-- Node0&#45;&gt;Node3 -->
<g id="edge3" class="edge">
<title>Node0&#45;&gt;Node3</title>
<path fill="none" stroke="#191970" d="M180.5419,-50.49C195.539,-40.6096 214.4973,-28.1194 227.3638,-19.6427"/>
<polygon fill="#191970" stroke="#191970" points="178.2309,-47.8212 171.8059,-56.2455 182.0821,-53.6666 178.2309,-47.8212"/>
</g>
<!-- Node1 -->
<g id="node2" class="node">
<title>Node1</title>
<g id="a_node2"><a xlink:href="classTObject.html" target="_top" xlink:title="Mother of all ROOT objects. ">
<polygon fill="#ffffff" stroke="#000000" points="130,-112.5 130,-131.5 184,-131.5 184,-112.5 130,-112.5"/>
<text text-anchor="middle" x="157" y="-119.5" font-family="Helvetica,sans-Serif" font-size="10.00" fill="#000000">TObject</text>
</a>
</g>
</g>
<!-- Node1&#45;&gt;Node0 -->
<g id="edge1" class="edge">
<title>Node1&#45;&gt;Node0</title>
<path fill="none" stroke="#191970" d="M157,-102.1575C157,-93.155 157,-82.9199 157,-75.6427"/>
<polygon fill="#191970" stroke="#191970" points="153.5001,-102.2455 157,-112.2455 160.5001,-102.2456 153.5001,-102.2455"/>
</g>
</g>
</svg>
