<?xml version="1.0" encoding="UTF-8" standalone="no"?>
<!DOCTYPE svg PUBLIC "-//W3C//DTD SVG 1.1//EN"
 "http://www.w3.org/Graphics/SVG/1.1/DTD/svg11.dtd">
<!-- Generated by graphviz version 2.40.1 (0)
 -->
<!-- Title: ROOT::Minuit2::SimplexMinimizer Pages: 1 -->
<svg width="188pt" height="151pt"
 viewBox="0.00 0.00 188.00 151.00" xmlns="http://www.w3.org/2000/svg" xmlns:xlink="http://www.w3.org/1999/xlink">
<g id="graph0" class="graph" transform="scale(1 1) rotate(0) translate(4 147)">
<title>ROOT::Minuit2::SimplexMinimizer</title>
<polygon fill="#ffffff" stroke="transparent" points="-4,4 -4,-147 184,-147 184,4 -4,4"/>
<!-- Node0 -->
<g id="node1" class="node">
<title>Node0</title>
<polygon fill="#bfbfbf" stroke="#000000" points=".5,-.5 .5,-19.5 179.5,-19.5 179.5,-.5 .5,-.5"/>
<text text-anchor="middle" x="90" y="-7.5" font-family="Helvetica,sans-Serif" font-size="10.00" fill="#000000">ROOT::Minuit2::SimplexMinimizer</text>
</g>
<!-- Node1 -->
<g id="node2" class="node">
<title>Node1</title>
<g id="a_node2"><a xlink:href="classROOT_1_1Minuit2_1_1ModularFunctionMinimizer.html" target="_top" xlink:title="Base common class providing the API for all the minimizer Various Minimize methods are provided varyi...">
<polygon fill="#ffffff" stroke="#000000" points="4.5,-56.5 4.5,-86.5 175.5,-86.5 175.5,-56.5 4.5,-56.5"/>
<text text-anchor="start" x="12.5" y="-74.5" font-family="Helvetica,sans-Serif" font-size="10.00" fill="#000000">ROOT::Minuit2::ModularFunction</text>
<text text-anchor="middle" x="90" y="-63.5" font-family="Helvetica,sans-Serif" font-size="10.00" fill="#000000">Minimizer</text>
</a>
</g>
</g>
<!-- Node1&#45;&gt;Node0 -->
<g id="edge1" class="edge">
<title>Node1&#45;&gt;Node0</title>
<path fill="none" stroke="#191970" d="M90,-46.2849C90,-36.9858 90,-26.9883 90,-19.8469"/>
<polygon fill="#191970" stroke="#191970" points="86.5001,-46.2977 90,-56.2977 93.5001,-46.2978 86.5001,-46.2977"/>
</g>
<!-- Node2 -->
<g id="node3" class="node">
<title>Node2</title>
<g id="a_node3"><a xlink:href="classROOT_1_1Minuit2_1_1FunctionMinimizer.html" target="_top" xlink:title="base class for function minimizers; user may give FCN or FCN with Gradient, Parameter starting values...">
<polygon fill="#ffffff" stroke="#000000" points="0,-123.5 0,-142.5 180,-142.5 180,-123.5 0,-123.5"/>
<text text-anchor="middle" x="90" y="-130.5" font-family="Helvetica,sans-Serif" font-size="10.00" fill="#000000">ROOT::Minuit2::FunctionMinimizer</text>
</a>
</g>
</g>
<!-- Node2&#45;&gt;Node1 -->
<g id="edge2" class="edge">
<title>Node2&#45;&gt;Node1</title>
<path fill="none" stroke="#191970" d="M90,-113.3693C90,-104.681 90,-94.6241 90,-86.5446"/>
<polygon fill="#191970" stroke="#191970" points="86.5001,-113.3906 90,-123.3906 93.5001,-113.3907 86.5001,-113.3906"/>
</g>
</g>
</svg>
