<?xml version="1.0" encoding="UTF-8" standalone="no"?>
<!DOCTYPE svg PUBLIC "-//W3C//DTD SVG 1.1//EN"
 "http://www.w3.org/Graphics/SVG/1.1/DTD/svg11.dtd">
<!-- Generated by graphviz version 2.40.1 (0)
 -->
<!-- Title: ROOT::Math::MultiDimParamGradFunctionAdapter Pages: 1 -->
<svg width="783pt" height="139pt"
 viewBox="0.00 0.00 783.00 139.00" xmlns="http://www.w3.org/2000/svg" xmlns:xlink="http://www.w3.org/1999/xlink">
<g id="graph0" class="graph" transform="scale(1 1) rotate(0) translate(4 135)">
<title>ROOT::Math::MultiDimParamGradFunctionAdapter</title>
<polygon fill="#ffffff" stroke="transparent" points="-4,4 -4,-135 779,-135 779,4 -4,4"/>
<!-- Node5 -->
<g id="node1" class="node">
<title>Node5</title>
<polygon fill="#bfbfbf" stroke="#000000" points="620,-28.5 620,-58.5 775,-58.5 775,-28.5 620,-28.5"/>
<text text-anchor="start" x="628" y="-46.5" font-family="Helvetica,sans-Serif" font-size="10.00" fill="#000000">ROOT::Math::MultiDimParam</text>
<text text-anchor="middle" x="697.5" y="-35.5" font-family="Helvetica,sans-Serif" font-size="10.00" fill="#000000">GradFunctionAdapter</text>
</g>
<!-- Node6 -->
<g id="node2" class="node">
<title>Node6</title>
<g id="a_node2"><a xlink:href="classROOT_1_1Math_1_1IParametricGradFunctionMultiDimTempl.html" target="_top" xlink:title="Interface (abstract class) for parametric gradient multi&#45;dimensional functions providing in addition ...">
<polygon fill="#ffffff" stroke="#000000" points="407,-56 407,-75 545,-75 545,-56 407,-56"/>
<text text-anchor="middle" x="476" y="-63" font-family="Helvetica,sans-Serif" font-size="10.00" fill="#000000">IParamMultiGradFunction</text>
</a>
</g>
</g>
<!-- Node6&#45;&gt;Node5 -->
<g id="edge1" class="edge">
<title>Node6&#45;&gt;Node5</title>
<path fill="none" stroke="#191970" d="M555.3488,-57.6189C576.3773,-55.5302 599.0522,-53.2781 619.982,-51.1993"/>
<polygon fill="#191970" stroke="#191970" points="554.7779,-54.1582 545.1729,-58.6296 555.4699,-61.124 554.7779,-54.1582"/>
</g>
<!-- Node7 -->
<g id="node3" class="node">
<title>Node7</title>
<g id="a_node3"><a xlink:href="classROOT_1_1Math_1_1IParametricFunctionMultiDimTempl.html" target="_top" xlink:title="IParamFunction interface (abstract class) describing multi&#45;dimensional parameteric functions It is a ...">
<polygon fill="#ffffff" stroke="#000000" points="184,-94.5 184,-124.5 360,-124.5 360,-94.5 184,-94.5"/>
<text text-anchor="start" x="192" y="-112.5" font-family="Helvetica,sans-Serif" font-size="10.00" fill="#000000">ROOT::Math::IParametricFunction</text>
<text text-anchor="middle" x="272" y="-101.5" font-family="Helvetica,sans-Serif" font-size="10.00" fill="#000000">MultiDimTempl&lt; T &gt;</text>
</a>
</g>
</g>
<!-- Node7&#45;&gt;Node6 -->
<g id="edge2" class="edge">
<title>Node7&#45;&gt;Node6</title>
<path fill="none" stroke="#191970" d="M351.5769,-92.3363C378.8822,-86.447 408.4428,-80.0712 431.897,-75.0124"/>
<polygon fill="#191970" stroke="#191970" points="350.6719,-88.951 341.6347,-94.4808 352.1478,-95.7936 350.6719,-88.951"/>
</g>
<!-- Node8 -->
<g id="node4" class="node">
<title>Node8</title>
<g id="a_node4"><a xlink:href="classROOT_1_1Math_1_1IBaseFunctionMultiDimTempl.html" target="_top" xlink:title="Documentation for the abstract class IBaseFunctionMultiDim. ">
<polygon fill="#ffffff" stroke="#000000" points="0,-100.5 0,-130.5 147,-130.5 147,-100.5 0,-100.5"/>
<text text-anchor="start" x="8" y="-118.5" font-family="Helvetica,sans-Serif" font-size="10.00" fill="#000000">ROOT::Math::IBaseFunction</text>
<text text-anchor="middle" x="73.5" y="-107.5" font-family="Helvetica,sans-Serif" font-size="10.00" fill="#000000">MultiDimTempl&lt; T &gt;</text>
</a>
</g>
</g>
<!-- Node8&#45;&gt;Node7 -->
<g id="edge3" class="edge">
<title>Node8&#45;&gt;Node7</title>
<path fill="none" stroke="#191970" d="M157.2949,-112.9672C166.0306,-112.7031 174.93,-112.4341 183.7135,-112.1686"/>
<polygon fill="#191970" stroke="#191970" points="157.0216,-109.4737 147.132,-113.2743 157.2332,-116.4705 157.0216,-109.4737"/>
</g>
<!-- Node9 -->
<g id="node5" class="node">
<title>Node9</title>
<g id="a_node5"><a xlink:href="classROOT_1_1Math_1_1IBaseParam.html" target="_top" xlink:title="Documentation for the abstract class IBaseParam. ">
<polygon fill="#ffffff" stroke="#000000" points="5,-56 5,-75 142,-75 142,-56 5,-56"/>
<text text-anchor="middle" x="73.5" y="-63" font-family="Helvetica,sans-Serif" font-size="10.00" fill="#000000">ROOT::Math::IBaseParam</text>
</a>
</g>
</g>
<!-- Node9&#45;&gt;Node6 -->
<g id="edge5" class="edge">
<title>Node9&#45;&gt;Node6</title>
<path fill="none" stroke="#191970" d="M152.4418,-65.5C226.5079,-65.5 336.1794,-65.5 406.8748,-65.5"/>
<polygon fill="#191970" stroke="#191970" points="152.2349,-62.0001 142.2349,-65.5 152.2348,-69.0001 152.2349,-62.0001"/>
</g>
<!-- Node9&#45;&gt;Node7 -->
<g id="edge4" class="edge">
<title>Node9&#45;&gt;Node7</title>
<path fill="none" stroke="#191970" d="M126.4743,-77.2424C150.2867,-82.5207 178.678,-88.814 204.0347,-94.4346"/>
<polygon fill="#191970" stroke="#191970" points="127.092,-73.7945 116.5715,-75.0473 125.5771,-80.6286 127.092,-73.7945"/>
</g>
<!-- Node11 -->
<g id="node7" class="node">
<title>Node11</title>
<g id="a_node7"><a xlink:href="classROOT_1_1Math_1_1IParametricFunctionOneDim.html" target="_top" xlink:title="Specialized IParamFunction interface (abstract class) for one&#45;dimensional parametric functions It is ...">
<polygon fill="#ffffff" stroke="#000000" points="184,-6.5 184,-36.5 360,-36.5 360,-6.5 184,-6.5"/>
<text text-anchor="start" x="192" y="-24.5" font-family="Helvetica,sans-Serif" font-size="10.00" fill="#000000">ROOT::Math::IParametricFunction</text>
<text text-anchor="middle" x="272" y="-13.5" font-family="Helvetica,sans-Serif" font-size="10.00" fill="#000000">OneDim</text>
</a>
</g>
</g>
<!-- Node9&#45;&gt;Node11 -->
<g id="edge9" class="edge">
<title>Node9&#45;&gt;Node11</title>
<path fill="none" stroke="#191970" d="M126.4743,-53.7576C150.2867,-48.4793 178.678,-42.186 204.0347,-36.5654"/>
<polygon fill="#191970" stroke="#191970" points="125.5771,-50.3714 116.5715,-55.9527 127.092,-57.2055 125.5771,-50.3714"/>
</g>
<!-- Node10 -->
<g id="node6" class="node">
<title>Node10</title>
<g id="a_node6"><a xlink:href="classROOT_1_1Math_1_1IParametricGradFunctionOneDim.html" target="_top" xlink:title="Interface (abstract class) for parametric one&#45;dimensional gradient functions providing in addition to...">
<polygon fill="#ffffff" stroke="#000000" points="397,-6.5 397,-36.5 555,-36.5 555,-6.5 397,-6.5"/>
<text text-anchor="start" x="405" y="-24.5" font-family="Helvetica,sans-Serif" font-size="10.00" fill="#000000">ROOT::Math::IParametricGrad</text>
<text text-anchor="middle" x="476" y="-13.5" font-family="Helvetica,sans-Serif" font-size="10.00" fill="#000000">FunctionOneDim</text>
</a>
</g>
</g>
<!-- Node10&#45;&gt;Node5 -->
<g id="edge6" class="edge">
<title>Node10&#45;&gt;Node5</title>
<path fill="none" stroke="#9a32cd" stroke-dasharray="5,2" d="M565.039,-30.3436C583.2321,-32.1506 602.2389,-34.0384 619.9899,-35.8015"/>
<polygon fill="#9a32cd" stroke="#9a32cd" points="565.3255,-26.8549 555.0285,-29.3493 564.6336,-33.8206 565.3255,-26.8549"/>
<text text-anchor="middle" x="587.5" y="-37.5" font-family="Helvetica,sans-Serif" font-size="10.00" fill="#000000"> fFunc</text>
</g>
<!-- Node11&#45;&gt;Node10 -->
<g id="edge7" class="edge">
<title>Node11&#45;&gt;Node10</title>
<path fill="none" stroke="#191970" d="M370.3175,-21.5C379.2252,-21.5 388.1703,-21.5 396.8808,-21.5"/>
<polygon fill="#191970" stroke="#191970" points="370.2909,-18.0001 360.2909,-21.5 370.2909,-25.0001 370.2909,-18.0001"/>
</g>
<!-- Node12 -->
<g id="node8" class="node">
<title>Node12</title>
<g id="a_node8"><a xlink:href="classROOT_1_1Math_1_1IBaseFunctionOneDim.html" target="_top" xlink:title="Interface (abstract class) for generic functions objects of one&#45;dimension Provides a method to evalua...">
<polygon fill="#ffffff" stroke="#000000" points="0,-.5 0,-30.5 147,-30.5 147,-.5 0,-.5"/>
<text text-anchor="start" x="8" y="-18.5" font-family="Helvetica,sans-Serif" font-size="10.00" fill="#000000">ROOT::Math::IBaseFunction</text>
<text text-anchor="middle" x="73.5" y="-7.5" font-family="Helvetica,sans-Serif" font-size="10.00" fill="#000000">OneDim</text>
</a>
</g>
</g>
<!-- Node12&#45;&gt;Node11 -->
<g id="edge8" class="edge">
<title>Node12&#45;&gt;Node11</title>
<path fill="none" stroke="#191970" d="M157.2949,-18.0328C166.0306,-18.2969 174.93,-18.5659 183.7135,-18.8314"/>
<polygon fill="#191970" stroke="#191970" points="157.2332,-14.5295 147.132,-17.7257 157.0216,-21.5263 157.2332,-14.5295"/>
</g>
</g>
</svg>
