<?xml version="1.0" encoding="UTF-8" standalone="no"?>
<!DOCTYPE svg PUBLIC "-//W3C//DTD SVG 1.1//EN"
 "http://www.w3.org/Graphics/SVG/1.1/DTD/svg11.dtd">
<!-- Generated by graphviz version 2.40.1 (0)
 -->
<!-- Title: TString Pages: 1 -->
<svg width="365pt" height="140pt"
 viewBox="0.00 0.00 364.50 140.00" xmlns="http://www.w3.org/2000/svg" xmlns:xlink="http://www.w3.org/1999/xlink">
<g id="graph0" class="graph" transform="scale(1 1) rotate(0) translate(4 136)">
<title>TString</title>
<polygon fill="#ffffff" stroke="transparent" points="-4,4 -4,-136 360.5,-136 360.5,4 -4,4"/>
<!-- Node0 -->
<g id="node1" class="node">
<title>Node0</title>
<polygon fill="#bfbfbf" stroke="#000000" points="153,-112.5 153,-131.5 204,-131.5 204,-112.5 153,-112.5"/>
<text text-anchor="middle" x="178.5" y="-119.5" font-family="Helvetica,sans-Serif" font-size="10.00" fill="#000000">TString</text>
</g>
<!-- Node1 -->
<g id="node2" class="node">
<title>Node1</title>
<g id="a_node2"><a xlink:href="classTEveException.html" target="_top" xlink:title="Exception class thrown by TEve classes and macros. ">
<polygon fill="#ffffff" stroke="#000000" points="0,-56.5 0,-75.5 89,-75.5 89,-56.5 0,-56.5"/>
<text text-anchor="middle" x="44.5" y="-63.5" font-family="Helvetica,sans-Serif" font-size="10.00" fill="#000000">TEveException</text>
</a>
</g>
</g>
<!-- Node0&#45;&gt;Node1 -->
<g id="edge1" class="edge">
<title>Node0&#45;&gt;Node1</title>
<path fill="none" stroke="#191970" d="M145.9172,-108.3833C121.5464,-98.1985 88.8358,-84.5284 67.2348,-75.5011"/>
<polygon fill="#191970" stroke="#191970" points="144.8883,-111.7466 155.4646,-112.3733 147.5875,-105.2879 144.8883,-111.7466"/>
</g>
<!-- Node2 -->
<g id="node3" class="node">
<title>Node2</title>
<g id="a_node3"><a xlink:href="classTGString.html" target="_top" xlink:title="TGString">
<polygon fill="#ffffff" stroke="#000000" points="107,-56.5 107,-75.5 166,-75.5 166,-56.5 107,-56.5"/>
<text text-anchor="middle" x="136.5" y="-63.5" font-family="Helvetica,sans-Serif" font-size="10.00" fill="#000000">TGString</text>
</a>
</g>
</g>
<!-- Node0&#45;&gt;Node2 -->
<g id="edge2" class="edge">
<title>Node0&#45;&gt;Node2</title>
<path fill="none" stroke="#191970" d="M165.1584,-104.2112C158.0604,-94.7472 149.6097,-83.4797 143.732,-75.6427"/>
<polygon fill="#191970" stroke="#191970" points="162.3841,-106.3455 171.1842,-112.2455 167.9841,-102.1455 162.3841,-106.3455"/>
</g>
<!-- Node4 -->
<g id="node5" class="node">
<title>Node4</title>
<g id="a_node5"><a xlink:href="classTStringLong.html" target="_top" xlink:title="ATTENTION: this class is obsolete. ">
<polygon fill="#ffffff" stroke="#000000" points="184.5,-56.5 184.5,-75.5 258.5,-75.5 258.5,-56.5 184.5,-56.5"/>
<text text-anchor="middle" x="221.5" y="-63.5" font-family="Helvetica,sans-Serif" font-size="10.00" fill="#000000">TStringLong</text>
</a>
</g>
</g>
<!-- Node0&#45;&gt;Node4 -->
<g id="edge4" class="edge">
<title>Node0&#45;&gt;Node4</title>
<path fill="none" stroke="#191970" d="M192.1592,-104.2112C199.4263,-94.7472 208.0781,-83.4797 214.0958,-75.6427"/>
<polygon fill="#191970" stroke="#191970" points="189.3043,-102.1824 185.99,-112.2455 194.8564,-106.4456 189.3043,-102.1824"/>
</g>
<!-- Node5 -->
<g id="node6" class="node">
<title>Node5</title>
<g id="a_node6"><a xlink:href="classTStringToken.html" target="_top" xlink:title="Provides iteration through tokens of a given string. ">
<polygon fill="#ffffff" stroke="#000000" points="276.5,-56.5 276.5,-75.5 356.5,-75.5 356.5,-56.5 276.5,-56.5"/>
<text text-anchor="middle" x="316.5" y="-63.5" font-family="Helvetica,sans-Serif" font-size="10.00" fill="#000000">TStringToken</text>
</a>
</g>
</g>
<!-- Node0&#45;&gt;Node5 -->
<g id="edge5" class="edge">
<title>Node0&#45;&gt;Node5</title>
<path fill="none" stroke="#191970" d="M211.7213,-108.5189C236.854,-98.3201 270.7418,-84.5685 293.0865,-75.5011"/>
<polygon fill="#191970" stroke="#191970" points="210.1731,-105.3699 202.223,-112.3733 212.8053,-111.8562 210.1731,-105.3699"/>
</g>
<!-- Node3 -->
<g id="node4" class="node">
<title>Node3</title>
<g id="a_node4"><a xlink:href="classTGHotString.html" target="_top" xlink:title="TGHotString">
<polygon fill="#ffffff" stroke="#000000" points="98.5,-.5 98.5,-19.5 174.5,-19.5 174.5,-.5 98.5,-.5"/>
<text text-anchor="middle" x="136.5" y="-7.5" font-family="Helvetica,sans-Serif" font-size="10.00" fill="#000000">TGHotString</text>
</a>
</g>
</g>
<!-- Node2&#45;&gt;Node3 -->
<g id="edge3" class="edge">
<title>Node2&#45;&gt;Node3</title>
<path fill="none" stroke="#191970" d="M136.5,-46.1575C136.5,-37.155 136.5,-26.9199 136.5,-19.6427"/>
<polygon fill="#191970" stroke="#191970" points="133.0001,-46.2455 136.5,-56.2455 140.0001,-46.2456 133.0001,-46.2455"/>
</g>
</g>
</svg>
