<?xml version="1.0" encoding="UTF-8" standalone="no"?>
<!DOCTYPE svg PUBLIC "-//W3C//DTD SVG 1.1//EN"
 "http://www.w3.org/Graphics/SVG/1.1/DTD/svg11.dtd">
<!-- Generated by graphviz version 2.40.1 (0)
 -->
<!-- Title: PyROOT::TCppObjectExecutor Pages: 1 -->
<!--zoomable 176 -->
<svg id="main" version="1.1" xmlns="http://www.w3.org/2000/svg" xmlns:xlink="http://www.w3.org/1999/xlink" xml:space="preserve" onload="init(evt)">
<style type="text/css"><![CDATA[
.edge:hover path { stroke: red; }
.edge:hover polygon { stroke: red; fill: red; }
]]></style>
<script type="text/javascript"><![CDATA[
var edges = document.getElementsByTagName('g');
if (edges && edges.length) {
  for (var i=0;i<edges.length;i++) {
    if (edges[i].id.substr(0,4)=='edge') {
      edges[i].setAttribute('class','edge');
    }
  }
}
]]></script>
        <defs>
                <circle id="rim" cx="0" cy="0" r="7"/>
                <circle id="rim2" cx="0" cy="0" r="3.5"/>
                <g id="zoomPlus">
                        <use xlink:href="#rim" fill="#404040">
                                <set attributeName="fill" to="#808080" begin="zoomplus.mouseover" end="zoomplus.mouseout"/>
                        </use>
                        <path d="M-4,0h8M0,-4v8" fill="none" stroke="white" stroke-width="1.5" pointer-events="none"/>
                </g>
                <g id="zoomMin">
                        <use xlink:href="#rim" fill="#404040">
                                <set attributeName="fill" to="#808080" begin="zoomminus.mouseover" end="zoomminus.mouseout"/>
                        </use>
                        <path d="M-4,0h8" fill="none" stroke="white" stroke-width="1.5" pointer-events="none"/>
                </g>
                <g id="dirArrow">
                        <path fill="none" stroke="white" stroke-width="1.5" d="M0,-3.0v7 M-2.5,-0.5L0,-3.0L2.5,-0.5"/>
                </g>
               <g id="resetDef">
                       <use xlink:href="#rim2" fill="#404040">
                               <set attributeName="fill" to="#808080" begin="reset.mouseover" end="reset.mouseout"/>
                       </use>
               </g>
        </defs>

<script type="text/javascript">
var viewWidth = 536;
var viewHeight = 176;
var sectionId = 'dynsection-0';
</script>
<script xlink:href="svgpan.js"/>
<svg id="graph" class="graph">
<g id="viewport">
<title>PyROOT::TCppObjectExecutor</title>
<polygon fill="#ffffff" stroke="transparent" points="-4,4 -4,-171.5 532,-171.5 532,4 -4,4"/>
<!-- Node0 -->
<g id="node1" class="node">
<title>Node0</title>
<polygon fill="#bfbfbf" stroke="#000000" points="146,-79 146,-98 306,-98 306,-79 146,-79"/>
<text text-anchor="middle" x="226" y="-86" font-family="Helvetica,sans-Serif" font-size="10.00" fill="#000000">PyROOT::TCppObjectExecutor</text>
</g>
<!-- Node2 -->
<g id="node3" class="node">
<title>Node2</title>
<g id="a_node3"><a xlink:href="classPyROOT_1_1TCppObjectArrayExecutor.html" target="_top" xlink:title="PyROOT::TCppObjectArrayExecutor">
<polygon fill="#ffffff" stroke="#000000" points="342,-148 342,-167 528,-167 528,-148 342,-148"/>
<text text-anchor="middle" x="435" y="-155" font-family="Helvetica,sans-Serif" font-size="10.00" fill="#000000">PyROOT::TCppObjectArrayExecutor</text>
</a>
</g>
</g>
<!-- Node0&#45;&gt;Node2 -->
<g id="edge2" class="edge">
<title>Node0&#45;&gt;Node2</title>
<path fill="none" stroke="#191970" d="M254.0417,-102.5248C277.1594,-113.6103 311.0603,-128.785 342,-138.5 353.7919,-142.2026 366.6567,-145.3665 378.9537,-147.9896"/>
<polygon fill="#191970" stroke="#191970" points="255.3586,-99.2735 244.8344,-98.0522 252.3,-105.5699 255.3586,-99.2735"/>
</g>
<!-- Node3 -->
<g id="node4" class="node">
<title>Node3</title>
<g id="a_node4"><a xlink:href="classPyROOT_1_1TCppObjectByValueExecutor.html" target="_top" xlink:title="PyROOT::TCppObjectByValue\lExecutor">
<polygon fill="#ffffff" stroke="#000000" points="356.5,-98.5 356.5,-128.5 513.5,-128.5 513.5,-98.5 356.5,-98.5"/>
<text text-anchor="start" x="364.5" y="-116.5" font-family="Helvetica,sans-Serif" font-size="10.00" fill="#000000">PyROOT::TCppObjectByValue</text>
<text text-anchor="middle" x="435" y="-105.5" font-family="Helvetica,sans-Serif" font-size="10.00" fill="#000000">Executor</text>
</a>
</g>
</g>
<!-- Node0&#45;&gt;Node3 -->
<g id="edge3" class="edge">
<title>Node0&#45;&gt;Node3</title>
<path fill="none" stroke="#191970" d="M315.8279,-99.245C329.294,-100.8557 343.0917,-102.5062 356.3025,-104.0864"/>
<polygon fill="#191970" stroke="#191970" points="315.9551,-95.7353 305.6102,-98.0227 315.1236,-102.6858 315.9551,-95.7353"/>
</g>
<!-- Node4 -->
<g id="node5" class="node">
<title>Node4</title>
<g id="a_node5"><a xlink:href="classPyROOT_1_1TCppObjectPtrPtrExecutor.html" target="_top" xlink:title="PyROOT::TCppObjectPtrPtr\lExecutor">
<polygon fill="#ffffff" stroke="#000000" points="363,-49.5 363,-79.5 507,-79.5 507,-49.5 363,-49.5"/>
<text text-anchor="start" x="371" y="-67.5" font-family="Helvetica,sans-Serif" font-size="10.00" fill="#000000">PyROOT::TCppObjectPtrPtr</text>
<text text-anchor="middle" x="435" y="-56.5" font-family="Helvetica,sans-Serif" font-size="10.00" fill="#000000">Executor</text>
</a>
</g>
</g>
<!-- Node0&#45;&gt;Node4 -->
<g id="edge4" class="edge">
<title>Node0&#45;&gt;Node4</title>
<path fill="none" stroke="#191970" d="M316.3509,-78.1248C331.9031,-76.3389 347.8811,-74.5041 362.8729,-72.7825"/>
<polygon fill="#191970" stroke="#191970" points="315.7425,-74.6715 306.2071,-79.2896 316.5412,-81.6258 315.7425,-74.6715"/>
</g>
<!-- Node5 -->
<g id="node6" class="node">
<title>Node5</title>
<g id="a_node6"><a xlink:href="classPyROOT_1_1TCppObjectPtrRefExecutor.html" target="_top" xlink:title="PyROOT::TCppObjectPtrRef\lExecutor">
<polygon fill="#ffffff" stroke="#000000" points="362,-.5 362,-30.5 508,-30.5 508,-.5 362,-.5"/>
<text text-anchor="start" x="370" y="-18.5" font-family="Helvetica,sans-Serif" font-size="10.00" fill="#000000">PyROOT::TCppObjectPtrRef</text>
<text text-anchor="middle" x="435" y="-7.5" font-family="Helvetica,sans-Serif" font-size="10.00" fill="#000000">Executor</text>
</a>
</g>
</g>
<!-- Node0&#45;&gt;Node5 -->
<g id="edge5" class="edge">
<title>Node0&#45;&gt;Node5</title>
<path fill="none" stroke="#191970" d="M255.4568,-74.6345C278.63,-64.0763 311.9192,-49.673 342,-39.5 351.4776,-36.2948 361.6212,-33.2736 371.598,-30.5264"/>
<polygon fill="#191970" stroke="#191970" points="253.8057,-71.5415 246.1837,-78.9005 256.7313,-77.9008 253.8057,-71.5415"/>
</g>
<!-- Node1 -->
<g id="node2" class="node">
<title>Node1</title>
<g id="a_node2"><a xlink:href="classPyROOT_1_1TExecutor.html" target="_top" xlink:title="PyROOT::TExecutor">
<polygon fill="#ffffff" stroke="#000000" points="0,-79 0,-98 110,-98 110,-79 0,-79"/>
<text text-anchor="middle" x="55" y="-86" font-family="Helvetica,sans-Serif" font-size="10.00" fill="#000000">PyROOT::TExecutor</text>
</a>
</g>
</g>
<!-- Node1&#45;&gt;Node0 -->
<g id="edge1" class="edge">
<title>Node1&#45;&gt;Node0</title>
<path fill="none" stroke="#191970" d="M120.1383,-88.5C128.5443,-88.5 137.2291,-88.5 145.8413,-88.5"/>
<polygon fill="#191970" stroke="#191970" points="120.0468,-85.0001 110.0467,-88.5 120.0467,-92.0001 120.0468,-85.0001"/>
</g>
</g>
</svg>
        <g id="navigator" transform="translate(0 0)" fill="#404254">
                <rect fill="#f2f5e9" fill-opacity="0.5" stroke="#606060" stroke-width=".5" x="0" y="0" width="60" height="60"/>
                <use id="zoomplus" xlink:href="#zoomPlus" x="17" y="9" onmousedown="handleZoom(evt,'in')"/>
                <use id="zoomminus" xlink:href="#zoomMin" x="42" y="9" onmousedown="handleZoom(evt,'out')"/>
                <use id="reset" xlink:href="#resetDef" x="30" y="36" onmousedown="handleReset()"/>
                <g id="arrowUp" xlink:href="#dirArrow" transform="translate(30 24)" onmousedown="handlePan(0,-1)">
                  <use xlink:href="#rim" fill="#404040">
                        <set attributeName="fill" to="#808080" begin="arrowUp.mouseover" end="arrowUp.mouseout"/>
                  </use>
                  <path fill="none" stroke="white" stroke-width="1.5" d="M0,-3.0v7 M-2.5,-0.5L0,-3.0L2.5,-0.5"/>
                </g>
                <g id="arrowRight" xlink:href="#dirArrow" transform="rotate(90) translate(36 -43)" onmousedown="handlePan(1,0)">
                  <use xlink:href="#rim" fill="#404040">
                        <set attributeName="fill" to="#808080" begin="arrowRight.mouseover" end="arrowRight.mouseout"/>
                  </use>
                  <path fill="none" stroke="white" stroke-width="1.5" d="M0,-3.0v7 M-2.5,-0.5L0,-3.0L2.5,-0.5"/>
                </g>
                <g id="arrowDown" xlink:href="#dirArrow" transform="rotate(180) translate(-30 -48)" onmousedown="handlePan(0,1)">
                  <use xlink:href="#rim" fill="#404040">
                        <set attributeName="fill" to="#808080" begin="arrowDown.mouseover" end="arrowDown.mouseout"/>
                  </use>
                  <path fill="none" stroke="white" stroke-width="1.5" d="M0,-3.0v7 M-2.5,-0.5L0,-3.0L2.5,-0.5"/>
                </g>
                <g id="arrowLeft" xlink:href="#dirArrow" transform="rotate(270) translate(-36 17)" onmousedown="handlePan(-1,0)">
                  <use xlink:href="#rim" fill="#404040">
                        <set attributeName="fill" to="#808080" begin="arrowLeft.mouseover" end="arrowLeft.mouseout"/>
                  </use>
                  <path fill="none" stroke="white" stroke-width="1.5" d="M0,-3.0v7 M-2.5,-0.5L0,-3.0L2.5,-0.5"/>
                </g>
        </g>
        <svg viewBox="0 0 15 15" width="100%" height="30px" preserveAspectRatio="xMaxYMin meet">
         <g id="arrow_out" transform="scale(0.3 0.3)">
          <a xlink:href="classPyROOT_1_1TCppObjectExecutor__inherit__graph_org.svg" target="_base">
           <rect id="button" ry="5" rx="5" y="6" x="6" height="38" width="38"
                fill="#f2f5e9" fill-opacity="0.5" stroke="#606060" stroke-width="1.0"/>
           <path id="arrow"
             d="M 11.500037,31.436501 C 11.940474,20.09759 22.043105,11.32322 32.158766,21.979434 L 37.068811,17.246167 C 37.068811,17.246167 37.088388,32 37.088388,32 L 22.160133,31.978069 C 22.160133,31.978069 26.997745,27.140456 26.997745,27.140456 C 18.528582,18.264221 13.291696,25.230495 11.500037,31.436501 z"
             style="fill:#404040;"/>
          </a>
         </g>
        </svg>
</svg>
