<?xml version="1.0" encoding="UTF-8" standalone="no"?>
<!DOCTYPE svg PUBLIC "-//W3C//DTD SVG 1.1//EN"
 "http://www.w3.org/Graphics/SVG/1.1/DTD/svg11.dtd">
<!-- Generated by graphviz version 2.40.1 (0)
 -->
<!-- Title: G Pages: 1 -->
<svg width="199pt" height="206pt"
 viewBox="0.00 0.00 199.00 206.00" xmlns="http://www.w3.org/2000/svg" xmlns:xlink="http://www.w3.org/1999/xlink">
<g id="graph0" class="graph" transform="scale(1 1) rotate(0) translate(4 202)">
<title>G</title>
<polygon fill="#ffffff" stroke="transparent" points="-4,4 -4,-202 195,-202 195,4 -4,4"/>
<!-- mainlib -->
<g id="node1" class="node">
<title>mainlib</title>
<polygon fill="#abacba" stroke="#000000" points="82,-117 0,-117 0,-81 82,-81 82,-117"/>
<text text-anchor="middle" x="41" y="-95.3" font-family="Arial" font-size="14.00" fill="#000000">libRSQLite</text>
</g>
<!-- libNet -->
<g id="node2" class="node">
<title>libNet</title>
<polygon fill="none" stroke="#000000" points="181.5,-198 127.5,-198 127.5,-162 181.5,-162 181.5,-198"/>
<text text-anchor="middle" x="154.5" y="-176.3" font-family="Arial" font-size="14.00" fill="#000000">libNet</text>
</g>
<!-- mainlib&#45;&gt;libNet -->
<g id="edge1" class="edge">
<title>mainlib&#45;&gt;libNet</title>
<path fill="none" stroke="#000000" d="M66.4716,-117.178C82.5355,-128.6421 103.462,-143.5764 120.8808,-156.0074"/>
<polygon fill="#000000" stroke="#000000" points="118.9405,-158.9226 129.1134,-161.8827 123.0068,-153.2247 118.9405,-158.9226"/>
</g>
<!-- libRIO -->
<g id="node3" class="node">
<title>libRIO</title>
<polygon fill="none" stroke="#000000" points="182,-144 127,-144 127,-108 182,-108 182,-144"/>
<text text-anchor="middle" x="154.5" y="-122.3" font-family="Arial" font-size="14.00" fill="#000000">libRIO</text>
</g>
<!-- mainlib&#45;&gt;libRIO -->
<g id="edge2" class="edge">
<title>mainlib&#45;&gt;libRIO</title>
<path fill="none" stroke="#000000" d="M82.2972,-108.824C93.6528,-111.5253 105.9019,-114.4392 117.0289,-117.0862"/>
<polygon fill="#000000" stroke="#000000" points="116.3357,-120.5189 126.8742,-119.4282 117.9557,-113.7089 116.3357,-120.5189"/>
</g>
<!-- libThread -->
<g id="node4" class="node">
<title>libThread</title>
<polygon fill="none" stroke="#000000" points="191,-90 118,-90 118,-54 191,-54 191,-90"/>
<text text-anchor="middle" x="154.5" y="-68.3" font-family="Arial" font-size="14.00" fill="#000000">libThread</text>
</g>
<!-- mainlib&#45;&gt;libThread -->
<g id="edge3" class="edge">
<title>mainlib&#45;&gt;libThread</title>
<path fill="none" stroke="#000000" d="M82.2972,-89.176C90.6797,-87.1819 99.5491,-85.072 108.0946,-83.0392"/>
<polygon fill="#000000" stroke="#000000" points="109.0104,-86.4191 117.9289,-80.6997 107.3903,-79.6091 109.0104,-86.4191"/>
</g>
<!-- libCore -->
<g id="node5" class="node">
<title>libCore</title>
<polygon fill="none" stroke="#000000" points="184,-36 125,-36 125,0 184,0 184,-36"/>
<text text-anchor="middle" x="154.5" y="-14.3" font-family="Arial" font-size="14.00" fill="#000000">libCore</text>
</g>
<!-- mainlib&#45;&gt;libCore -->
<g id="edge4" class="edge">
<title>mainlib&#45;&gt;libCore</title>
<path fill="none" stroke="#000000" d="M66.4716,-80.822C82.5355,-69.3579 103.462,-54.4236 120.8808,-41.9926"/>
<polygon fill="#000000" stroke="#000000" points="123.0068,-44.7753 129.1134,-36.1173 118.9405,-39.0774 123.0068,-44.7753"/>
</g>
</g>
</svg>
