<?xml version="1.0" encoding="UTF-8" standalone="no"?>
<!DOCTYPE svg PUBLIC "-//W3C//DTD SVG 1.1//EN"
 "http://www.w3.org/Graphics/SVG/1.1/DTD/svg11.dtd">
<!-- Generated by graphviz version 2.40.1 (0)
 -->
<!-- Title: G Pages: 1 -->
<svg width="194pt" height="800pt"
 viewBox="0.00 0.00 194.00 800.00" xmlns="http://www.w3.org/2000/svg" xmlns:xlink="http://www.w3.org/1999/xlink">
<g id="graph0" class="graph" transform="scale(1 1) rotate(0) translate(4 796)">
<title>G</title>
<polygon fill="#ffffff" stroke="transparent" points="-4,4 -4,-796 190,-796 190,4 -4,4"/>
<!-- mainlib -->
<g id="node1" class="node">
<title>mainlib</title>
<polygon fill="#abacba" stroke="#000000" points="56,-414 0,-414 0,-378 56,-378 56,-414"/>
<text text-anchor="middle" x="28" y="-392.3" font-family="Arial" font-size="14.00" fill="#000000">libGed</text>
</g>
<!-- libGui -->
<g id="node2" class="node">
<title>libGui</title>
<polygon fill="none" stroke="#000000" points="166,-792 112,-792 112,-756 166,-756 166,-792"/>
<text text-anchor="middle" x="139" y="-770.3" font-family="Arial" font-size="14.00" fill="#000000">libGui</text>
</g>
<!-- mainlib&#45;&gt;libGui -->
<g id="edge1" class="edge">
<title>mainlib&#45;&gt;libGui</title>
<path fill="none" stroke="#000000" d="M29.3042,-414.1343C34.2025,-478.0722 53.232,-692.1014 92,-747 95.0432,-751.3094 99.0076,-755.0263 103.3437,-758.2034"/>
<polygon fill="#000000" stroke="#000000" points="101.6709,-761.2863 111.996,-763.6618 105.4058,-755.366 101.6709,-761.2863"/>
</g>
<!-- libTreePlayer -->
<g id="node3" class="node">
<title>libTreePlayer</title>
<polygon fill="none" stroke="#000000" points="186,-738 92,-738 92,-702 186,-702 186,-738"/>
<text text-anchor="middle" x="139" y="-716.3" font-family="Arial" font-size="14.00" fill="#000000">libTreePlayer</text>
</g>
<!-- mainlib&#45;&gt;libTreePlayer -->
<g id="edge2" class="edge">
<title>mainlib&#45;&gt;libTreePlayer</title>
<path fill="none" stroke="#000000" d="M29.9602,-414.0795C36.4596,-471.33 58.7909,-647.5295 92,-693 92.4579,-693.6269 92.9351,-694.2415 93.4298,-694.8439"/>
<polygon fill="#000000" stroke="#000000" points="91.1258,-697.4867 100.7122,-701.9979 96.0313,-692.4932 91.1258,-697.4867"/>
</g>
<!-- libTree -->
<g id="node4" class="node">
<title>libTree</title>
<polygon fill="none" stroke="#000000" points="167,-684 111,-684 111,-648 167,-648 167,-684"/>
<text text-anchor="middle" x="139" y="-662.3" font-family="Arial" font-size="14.00" fill="#000000">libTree</text>
</g>
<!-- mainlib&#45;&gt;libTree -->
<g id="edge3" class="edge">
<title>mainlib&#45;&gt;libTree</title>
<path fill="none" stroke="#000000" d="M30.9368,-414.2636C39.2864,-464.4093 64.3514,-602.8889 92,-639 94.9212,-642.8153 98.5469,-646.1827 102.4799,-649.1292"/>
<polygon fill="#000000" stroke="#000000" points="100.5697,-652.0619 110.8573,-654.5947 104.3946,-646.1993 100.5697,-652.0619"/>
</g>
<!-- libGraf3d -->
<g id="node5" class="node">
<title>libGraf3d</title>
<polygon fill="none" stroke="#000000" points="175,-630 103,-630 103,-594 175,-594 175,-630"/>
<text text-anchor="middle" x="139" y="-608.3" font-family="Arial" font-size="14.00" fill="#000000">libGraf3d</text>
</g>
<!-- mainlib&#45;&gt;libGraf3d -->
<g id="edge4" class="edge">
<title>mainlib&#45;&gt;libGraf3d</title>
<path fill="none" stroke="#000000" d="M29.8636,-414.1895C34.4253,-450.468 49.1076,-532.8111 92,-585 92.9709,-586.1814 94.008,-587.3216 95.0988,-588.421"/>
<polygon fill="#000000" stroke="#000000" points="93.0619,-591.2831 102.9487,-595.0913 97.5946,-585.9488 93.0619,-591.2831"/>
</g>
<!-- libGpad -->
<g id="node6" class="node">
<title>libGpad</title>
<polygon fill="none" stroke="#000000" points="171,-576 107,-576 107,-540 171,-540 171,-576"/>
<text text-anchor="middle" x="139" y="-554.3" font-family="Arial" font-size="14.00" fill="#000000">libGpad</text>
</g>
<!-- mainlib&#45;&gt;libGpad -->
<g id="edge5" class="edge">
<title>mainlib&#45;&gt;libGpad</title>
<path fill="none" stroke="#000000" d="M32.7853,-414.1681C40.9223,-442.1344 59.7834,-496.1412 92,-531 93.976,-533.138 96.1608,-535.1536 98.4751,-537.0452"/>
<polygon fill="#000000" stroke="#000000" points="96.569,-539.9857 106.7272,-542.9959 100.6633,-534.308 96.569,-539.9857"/>
</g>
<!-- libGraf -->
<g id="node7" class="node">
<title>libGraf</title>
<polygon fill="none" stroke="#000000" points="167.5,-522 110.5,-522 110.5,-486 167.5,-486 167.5,-522"/>
<text text-anchor="middle" x="139" y="-500.3" font-family="Arial" font-size="14.00" fill="#000000">libGraf</text>
</g>
<!-- mainlib&#45;&gt;libGraf -->
<g id="edge6" class="edge">
<title>mainlib&#45;&gt;libGraf</title>
<path fill="none" stroke="#000000" d="M39.3085,-414.0579C50.9596,-431.6483 70.4222,-458.3868 92,-477 95.0395,-479.6219 98.371,-482.1197 101.8128,-484.4619"/>
<polygon fill="#000000" stroke="#000000" points="100.1685,-487.5631 110.4919,-489.9458 103.9076,-481.6453 100.1685,-487.5631"/>
</g>
<!-- libHist -->
<g id="node8" class="node">
<title>libHist</title>
<polygon fill="none" stroke="#000000" points="166,-468 112,-468 112,-432 166,-432 166,-468"/>
<text text-anchor="middle" x="139" y="-446.3" font-family="Arial" font-size="14.00" fill="#000000">libHist</text>
</g>
<!-- mainlib&#45;&gt;libHist -->
<g id="edge7" class="edge">
<title>mainlib&#45;&gt;libHist</title>
<path fill="none" stroke="#000000" d="M56.01,-409.6265C70.1574,-416.509 87.4931,-424.9426 102.6549,-432.3186"/>
<polygon fill="#000000" stroke="#000000" points="101.2429,-435.5238 111.7664,-436.7512 104.3052,-429.2292 101.2429,-435.5238"/>
</g>
<!-- libMatrix -->
<g id="node9" class="node">
<title>libMatrix</title>
<polygon fill="none" stroke="#000000" points="173,-414 105,-414 105,-378 173,-378 173,-414"/>
<text text-anchor="middle" x="139" y="-392.3" font-family="Arial" font-size="14.00" fill="#000000">libMatrix</text>
</g>
<!-- mainlib&#45;&gt;libMatrix -->
<g id="edge8" class="edge">
<title>mainlib&#45;&gt;libMatrix</title>
<path fill="none" stroke="#000000" d="M56.01,-396C67.6657,-396 81.4855,-396 94.4708,-396"/>
<polygon fill="#000000" stroke="#000000" points="94.6486,-399.5001 104.6485,-396 94.6485,-392.5001 94.6486,-399.5001"/>
</g>
<!-- libMathCore -->
<g id="node10" class="node">
<title>libMathCore</title>
<polygon fill="none" stroke="#000000" points="184,-360 94,-360 94,-324 184,-324 184,-360"/>
<text text-anchor="middle" x="139" y="-338.3" font-family="Arial" font-size="14.00" fill="#000000">libMathCore</text>
</g>
<!-- mainlib&#45;&gt;libMathCore -->
<g id="edge9" class="edge">
<title>mainlib&#45;&gt;libMathCore</title>
<path fill="none" stroke="#000000" d="M56.01,-382.3735C67.0646,-376.9956 80.0659,-370.6707 92.4556,-364.6432"/>
<polygon fill="#000000" stroke="#000000" points="94.3072,-367.6347 101.7684,-360.1126 91.2449,-361.34 94.3072,-367.6347"/>
</g>
<!-- libImt -->
<g id="node11" class="node">
<title>libImt</title>
<polygon fill="none" stroke="#000000" points="166,-306 112,-306 112,-270 166,-270 166,-306"/>
<text text-anchor="middle" x="139" y="-284.3" font-family="Arial" font-size="14.00" fill="#000000">libImt</text>
</g>
<!-- mainlib&#45;&gt;libImt -->
<g id="edge10" class="edge">
<title>mainlib&#45;&gt;libImt</title>
<path fill="none" stroke="#000000" d="M39.3085,-377.9421C50.9596,-360.3517 70.4222,-333.6132 92,-315 95.4603,-312.0151 99.2991,-309.191 103.2483,-306.5742"/>
<polygon fill="#000000" stroke="#000000" points="105.2938,-309.4247 111.9659,-301.1946 101.6177,-303.4677 105.2938,-309.4247"/>
</g>
<!-- libMultiProc -->
<g id="node12" class="node">
<title>libMultiProc</title>
<polygon fill="none" stroke="#000000" points="182.5,-252 95.5,-252 95.5,-216 182.5,-216 182.5,-252"/>
<text text-anchor="middle" x="139" y="-230.3" font-family="Arial" font-size="14.00" fill="#000000">libMultiProc</text>
</g>
<!-- mainlib&#45;&gt;libMultiProc -->
<g id="edge11" class="edge">
<title>mainlib&#45;&gt;libMultiProc</title>
<path fill="none" stroke="#000000" d="M32.7853,-377.8319C40.9223,-349.8656 59.7834,-295.8588 92,-261 92.6427,-260.3046 93.3075,-259.6221 93.9916,-258.9527"/>
<polygon fill="#000000" stroke="#000000" points="96.5304,-261.3912 101.9383,-252.2805 92.0292,-256.0303 96.5304,-261.3912"/>
</g>
<!-- libNet -->
<g id="node13" class="node">
<title>libNet</title>
<polygon fill="none" stroke="#000000" points="166,-198 112,-198 112,-162 166,-162 166,-198"/>
<text text-anchor="middle" x="139" y="-176.3" font-family="Arial" font-size="14.00" fill="#000000">libNet</text>
</g>
<!-- mainlib&#45;&gt;libNet -->
<g id="edge12" class="edge">
<title>mainlib&#45;&gt;libNet</title>
<path fill="none" stroke="#000000" d="M29.8636,-377.8105C34.4253,-341.532 49.1076,-259.1889 92,-207 95.1219,-203.2014 98.9274,-199.8287 103.0073,-196.8662"/>
<polygon fill="#000000" stroke="#000000" points="105.0914,-199.6881 111.6362,-191.3565 101.3242,-193.7882 105.0914,-199.6881"/>
</g>
<!-- libRIO -->
<g id="node14" class="node">
<title>libRIO</title>
<polygon fill="none" stroke="#000000" points="166.5,-144 111.5,-144 111.5,-108 166.5,-108 166.5,-144"/>
<text text-anchor="middle" x="139" y="-122.3" font-family="Arial" font-size="14.00" fill="#000000">libRIO</text>
</g>
<!-- mainlib&#45;&gt;libRIO -->
<g id="edge13" class="edge">
<title>mainlib&#45;&gt;libRIO</title>
<path fill="none" stroke="#000000" d="M30.9368,-377.7364C39.2864,-327.5907 64.3514,-189.1111 92,-153 94.9891,-149.096 98.7159,-145.6609 102.7548,-142.6659"/>
<polygon fill="#000000" stroke="#000000" points="104.8384,-145.487 111.3472,-137.1271 101.0458,-139.6034 104.8384,-145.487"/>
</g>
<!-- libThread -->
<g id="node15" class="node">
<title>libThread</title>
<polygon fill="none" stroke="#000000" points="175.5,-90 102.5,-90 102.5,-54 175.5,-54 175.5,-90"/>
<text text-anchor="middle" x="139" y="-68.3" font-family="Arial" font-size="14.00" fill="#000000">libThread</text>
</g>
<!-- mainlib&#45;&gt;libThread -->
<g id="edge14" class="edge">
<title>mainlib&#45;&gt;libThread</title>
<path fill="none" stroke="#000000" d="M29.9602,-377.9205C36.4596,-320.67 58.7909,-144.4705 92,-99 92.7805,-97.9313 93.617,-96.8986 94.5012,-95.9011"/>
<polygon fill="#000000" stroke="#000000" points="97.0844,-98.2803 102.0691,-88.9313 92.3423,-93.1312 97.0844,-98.2803"/>
</g>
<!-- libCore -->
<g id="node16" class="node">
<title>libCore</title>
<polygon fill="none" stroke="#000000" points="168.5,-36 109.5,-36 109.5,0 168.5,0 168.5,-36"/>
<text text-anchor="middle" x="139" y="-14.3" font-family="Arial" font-size="14.00" fill="#000000">libCore</text>
</g>
<!-- mainlib&#45;&gt;libCore -->
<g id="edge15" class="edge">
<title>mainlib&#45;&gt;libCore</title>
<path fill="none" stroke="#000000" d="M29.3042,-377.8657C34.2025,-313.9278 53.232,-99.8986 92,-45 94.4427,-41.5409 97.4789,-38.4636 100.8245,-35.7408"/>
<polygon fill="#000000" stroke="#000000" points="102.8446,-38.5992 109.0586,-30.018 98.8495,-32.8512 102.8446,-38.5992"/>
</g>
</g>
</svg>
