<?xml version="1.0" encoding="UTF-8" standalone="no"?>
<!DOCTYPE svg PUBLIC "-//W3C//DTD SVG 1.1//EN"
 "http://www.w3.org/Graphics/SVG/1.1/DTD/svg11.dtd">
<!-- Generated by graphviz version 2.40.1 (0)
 -->
<!-- Title: TGHtmlBlock Pages: 1 -->
<svg width="178pt" height="156pt"
 viewBox="0.00 0.00 177.50 156.00" xmlns="http://www.w3.org/2000/svg" xmlns:xlink="http://www.w3.org/1999/xlink">
<g id="graph0" class="graph" transform="scale(1 1) rotate(0) translate(4 152)">
<title>TGHtmlBlock</title>
<polygon fill="#ffffff" stroke="transparent" points="-4,4 -4,-152 173.5,-152 173.5,4 -4,4"/>
<!-- Node3 -->
<g id="node1" class="node">
<title>Node3</title>
<polygon fill="#bfbfbf" stroke="#000000" points="28.5,-1.5 28.5,-20.5 109.5,-20.5 109.5,-1.5 28.5,-1.5"/>
<text text-anchor="middle" x="69" y="-8.5" font-family="Helvetica,sans-Serif" font-size="10.00" fill="#000000">TGHtmlBlock</text>
</g>
<!-- Node3&#45;&gt;Node3 -->
<g id="edge5" class="edge">
<title>Node3&#45;&gt;Node3</title>
<path fill="none" stroke="#9a32cd" stroke-dasharray="5,2" d="M119.8235,-15.1952C124.5317,-14.3295 127.5,-12.9312 127.5,-11 127.5,-7.9102 119.9013,-6.1842 109.735,-5.8221"/>
<polygon fill="#9a32cd" stroke="#9a32cd" points="119.3485,-11.7248 109.735,-16.1779 120.0272,-18.6918 119.3485,-11.7248"/>
<text text-anchor="middle" x="146" y="-14" font-family="Helvetica,sans-Serif" font-size="10.00" fill="#000000"> fBNext</text>
<text text-anchor="middle" x="146" y="-3" font-family="Helvetica,sans-Serif" font-size="10.00" fill="#000000">fBPrev</text>
</g>
<!-- Node4 -->
<g id="node2" class="node">
<title>Node4</title>
<g id="a_node2"><a xlink:href="classTGHtmlElement.html" target="_top" xlink:title="TGHtmlElement">
<polygon fill="#ffffff" stroke="#000000" points="21.5,-60.5 21.5,-79.5 116.5,-79.5 116.5,-60.5 21.5,-60.5"/>
<text text-anchor="middle" x="69" y="-67.5" font-family="Helvetica,sans-Serif" font-size="10.00" fill="#000000">TGHtmlElement</text>
</a>
</g>
</g>
<!-- Node4&#45;&gt;Node3 -->
<g id="edge1" class="edge">
<title>Node4&#45;&gt;Node3</title>
<path fill="none" stroke="#191970" d="M69,-49.9943C69,-40.051 69,-28.4969 69,-20.5614"/>
<polygon fill="#191970" stroke="#191970" points="65.5001,-50.2573 69,-60.2573 72.5001,-50.2574 65.5001,-50.2573"/>
</g>
<!-- Node4&#45;&gt;Node4 -->
<g id="edge4" class="edge">
<title>Node4&#45;&gt;Node4</title>
<path fill="none" stroke="#9a32cd" stroke-dasharray="5,2" d="M126.8619,-74.0282C131.5756,-73.1542 134.5,-71.8115 134.5,-70 134.5,-67.1016 127.0134,-65.4033 116.6902,-64.9051"/>
<polygon fill="#9a32cd" stroke="#9a32cd" points="126.2706,-70.5709 116.6902,-75.0949 127.0007,-77.5327 126.2706,-70.5709"/>
<text text-anchor="middle" x="152" y="-73" font-family="Helvetica,sans-Serif" font-size="10.00" fill="#000000"> fPPrev</text>
<text text-anchor="middle" x="152" y="-62" font-family="Helvetica,sans-Serif" font-size="10.00" fill="#000000">fPNext</text>
</g>
<!-- Node5 -->
<g id="node3" class="node">
<title>Node5</title>
<g id="a_node3"><a xlink:href="classTObject.html" target="_top" xlink:title="Mother of all ROOT objects. ">
<polygon fill="#ffffff" stroke="#000000" points="0,-128.5 0,-147.5 54,-147.5 54,-128.5 0,-128.5"/>
<text text-anchor="middle" x="27" y="-135.5" font-family="Helvetica,sans-Serif" font-size="10.00" fill="#000000">TObject</text>
</a>
</g>
</g>
<!-- Node5&#45;&gt;Node4 -->
<g id="edge2" class="edge">
<title>Node5&#45;&gt;Node4</title>
<path fill="none" stroke="#191970" d="M38.2959,-119.7114C46.2455,-106.8406 56.5733,-90.1194 62.9936,-79.7247"/>
<polygon fill="#191970" stroke="#191970" points="35.2948,-117.91 33.0176,-128.2573 41.2504,-121.5885 35.2948,-117.91"/>
</g>
<!-- Node6 -->
<g id="node4" class="node">
<title>Node6</title>
<g id="a_node4"><a xlink:href="structSHtmlStyle__t.html" target="_top" xlink:title="SHtmlStyle_t">
<polygon fill="#ffffff" stroke="#000000" points="72,-128.5 72,-147.5 152,-147.5 152,-128.5 72,-128.5"/>
<text text-anchor="middle" x="112" y="-135.5" font-family="Helvetica,sans-Serif" font-size="10.00" fill="#000000">SHtmlStyle_t</text>
</a>
</g>
</g>
<!-- Node6&#45;&gt;Node4 -->
<g id="edge3" class="edge">
<title>Node6&#45;&gt;Node4</title>
<path fill="none" stroke="#9a32cd" stroke-dasharray="5,2" d="M100.4351,-119.7114C92.2963,-106.8406 81.7225,-90.1194 75.1494,-79.7247"/>
<polygon fill="#9a32cd" stroke="#9a32cd" points="97.5363,-121.6759 105.8391,-128.2573 103.4527,-117.9347 97.5363,-121.6759"/>
<text text-anchor="middle" x="109" y="-102" font-family="Helvetica,sans-Serif" font-size="10.00" fill="#000000"> fStyle</text>
</g>
</g>
</svg>
