<?xml version="1.0" encoding="UTF-8" standalone="no"?>
<!DOCTYPE svg PUBLIC "-//W3C//DTD SVG 1.1//EN"
 "http://www.w3.org/Graphics/SVG/1.1/DTD/svg11.dtd">
<!-- Generated by graphviz version 2.40.1 (0)
 -->
<!-- Title: ROOT::Experimental::RHistView&lt; DIMENSIONS, PRECISION, STAT &gt; Pages: 1 -->
<svg width="157pt" height="228pt"
 viewBox="0.00 0.00 157.00 228.00" xmlns="http://www.w3.org/2000/svg" xmlns:xlink="http://www.w3.org/1999/xlink">
<g id="graph0" class="graph" transform="scale(1 1) rotate(0) translate(4 224)">
<title>ROOT::Experimental::RHistView&lt; DIMENSIONS, PRECISION, STAT &gt;</title>
<polygon fill="#ffffff" stroke="transparent" points="-4,4 -4,-224 153,-224 153,4 -4,4"/>
<!-- Node1 -->
<g id="node1" class="node">
<title>Node1</title>
<polygon fill="#bfbfbf" stroke="#000000" points="0,-.5 0,-41.5 149,-41.5 149,-.5 0,-.5"/>
<text text-anchor="start" x="8" y="-29.5" font-family="Helvetica,sans-Serif" font-size="10.00" fill="#000000">ROOT::Experimental</text>
<text text-anchor="start" x="8" y="-18.5" font-family="Helvetica,sans-Serif" font-size="10.00" fill="#000000">::RHistView&lt; DIMENSIONS,</text>
<text text-anchor="middle" x="74.5" y="-7.5" font-family="Helvetica,sans-Serif" font-size="10.00" fill="#000000"> PRECISION, STAT &gt;</text>
</g>
<!-- Node2 -->
<g id="node2" class="node">
<title>Node2</title>
<g id="a_node2"><a xlink:href="classROOT_1_1Experimental_1_1RHist.html" target="_top" xlink:title=" &#160;Histogram class for histograms with DIMENSIONS dimensions, where each bin count is stored by a valu...">
<polygon fill="#ffffff" stroke="#000000" points="12,-89.5 12,-130.5 137,-130.5 137,-89.5 12,-89.5"/>
<text text-anchor="start" x="20" y="-118.5" font-family="Helvetica,sans-Serif" font-size="10.00" fill="#000000">ROOT::Experimental</text>
<text text-anchor="start" x="20" y="-107.5" font-family="Helvetica,sans-Serif" font-size="10.00" fill="#000000">::RHist&lt; DIMENSIONS,</text>
<text text-anchor="middle" x="74.5" y="-96.5" font-family="Helvetica,sans-Serif" font-size="10.00" fill="#000000"> PRECISION, STAT &gt;</text>
</a>
</g>
</g>
<!-- Node2&#45;&gt;Node1 -->
<g id="edge1" class="edge">
<title>Node2&#45;&gt;Node1</title>
<path fill="none" stroke="#9a32cd" stroke-dasharray="5,2" d="M74.5,-79.344C74.5,-66.8522 74.5,-52.7439 74.5,-41.5301"/>
<polygon fill="#9a32cd" stroke="#9a32cd" points="71.0001,-79.3579 74.5,-89.3579 78.0001,-79.3579 71.0001,-79.3579"/>
<text text-anchor="middle" x="88" y="-63" font-family="Helvetica,sans-Serif" font-size="10.00" fill="#000000"> fHist</text>
</g>
<!-- Node3 -->
<g id="node3" class="node">
<title>Node3</title>
<polygon fill="#ffffff" stroke="#bfbfbf" points="10.5,-178.5 10.5,-219.5 138.5,-219.5 138.5,-178.5 10.5,-178.5"/>
<text text-anchor="start" x="18.5" y="-207.5" font-family="Helvetica,sans-Serif" font-size="10.00" fill="#000000">std::unique_ptr&lt; ROOT</text>
<text text-anchor="start" x="18.5" y="-196.5" font-family="Helvetica,sans-Serif" font-size="10.00" fill="#000000">::Experimental::Detail</text>
<text text-anchor="middle" x="74.5" y="-185.5" font-family="Helvetica,sans-Serif" font-size="10.00" fill="#000000">::RHistImplBase &gt;</text>
</g>
<!-- Node3&#45;&gt;Node2 -->
<g id="edge2" class="edge">
<title>Node3&#45;&gt;Node2</title>
<path fill="none" stroke="#9a32cd" stroke-dasharray="5,2" d="M74.5,-168.344C74.5,-155.8522 74.5,-141.7439 74.5,-130.5301"/>
<polygon fill="#9a32cd" stroke="#9a32cd" points="71.0001,-168.3579 74.5,-178.3579 78.0001,-168.3579 71.0001,-168.3579"/>
<text text-anchor="middle" x="89" y="-152" font-family="Helvetica,sans-Serif" font-size="10.00" fill="#000000"> fImpl</text>
</g>
</g>
</svg>
