<?xml version="1.0" encoding="UTF-8" standalone="no"?>
<!DOCTYPE svg PUBLIC "-//W3C//DTD SVG 1.1//EN"
 "http://www.w3.org/Graphics/SVG/1.1/DTD/svg11.dtd">
<!-- Generated by graphviz version 2.40.1 (0)
 -->
<!-- Title: core/dictgen/res/ClassSelectionRule.h Pages: 1 -->
<!--zoomable 173 -->
<svg id="main" version="1.1" xmlns="http://www.w3.org/2000/svg" xmlns:xlink="http://www.w3.org/1999/xlink" xml:space="preserve" onload="init(evt)">
<style type="text/css"><![CDATA[
.edge:hover path { stroke: red; }
.edge:hover polygon { stroke: red; fill: red; }
]]></style>
<script type="text/javascript"><![CDATA[
var edges = document.getElementsByTagName('g');
if (edges && edges.length) {
  for (var i=0;i<edges.length;i++) {
    if (edges[i].id.substr(0,4)=='edge') {
      edges[i].setAttribute('class','edge');
    }
  }
}
]]></script>
        <defs>
                <circle id="rim" cx="0" cy="0" r="7"/>
                <circle id="rim2" cx="0" cy="0" r="3.5"/>
                <g id="zoomPlus">
                        <use xlink:href="#rim" fill="#404040">
                                <set attributeName="fill" to="#808080" begin="zoomplus.mouseover" end="zoomplus.mouseout"/>
                        </use>
                        <path d="M-4,0h8M0,-4v8" fill="none" stroke="white" stroke-width="1.5" pointer-events="none"/>
                </g>
                <g id="zoomMin">
                        <use xlink:href="#rim" fill="#404040">
                                <set attributeName="fill" to="#808080" begin="zoomminus.mouseover" end="zoomminus.mouseout"/>
                        </use>
                        <path d="M-4,0h8" fill="none" stroke="white" stroke-width="1.5" pointer-events="none"/>
                </g>
                <g id="dirArrow">
                        <path fill="none" stroke="white" stroke-width="1.5" d="M0,-3.0v7 M-2.5,-0.5L0,-3.0L2.5,-0.5"/>
                </g>
               <g id="resetDef">
                       <use xlink:href="#rim2" fill="#404040">
                               <set attributeName="fill" to="#808080" begin="reset.mouseover" end="reset.mouseout"/>
                       </use>
               </g>
        </defs>

<script type="text/javascript">
var viewWidth = 1001;
var viewHeight = 173;
var sectionId = 'dynsection-1';
</script>
<script xlink:href="svgpan.js"/>
<svg id="graph" class="graph">
<g id="viewport">
<title>core/dictgen/res/ClassSelectionRule.h</title>
<polygon fill="#ffffff" stroke="transparent" points="-4,4 -4,-169 996.5,-169 996.5,4 -4,4"/>
<!-- Node8 -->
<g id="node1" class="node">
<title>Node8</title>
<polygon fill="#bfbfbf" stroke="#000000" points="316,-134.5 316,-164.5 485,-164.5 485,-134.5 316,-134.5"/>
<text text-anchor="start" x="324" y="-152.5" font-family="Helvetica,sans-Serif" font-size="10.00" fill="#000000">core/dictgen/res/ClassSelection</text>
<text text-anchor="middle" x="400.5" y="-141.5" font-family="Helvetica,sans-Serif" font-size="10.00" fill="#000000">Rule.h</text>
</g>
<!-- Node9 -->
<g id="node2" class="node">
<title>Node9</title>
<g id="a_node2"><a xlink:href="SelectionRules_8h.html" target="_top" xlink:title="core/dictgen/res/Selection\lRules.h">
<polygon fill="#ffffff" stroke="#000000" points="329,-67.5 329,-97.5 472,-97.5 472,-67.5 329,-67.5"/>
<text text-anchor="start" x="337" y="-85.5" font-family="Helvetica,sans-Serif" font-size="10.00" fill="#000000">core/dictgen/res/Selection</text>
<text text-anchor="middle" x="400.5" y="-74.5" font-family="Helvetica,sans-Serif" font-size="10.00" fill="#000000">Rules.h</text>
</a>
</g>
</g>
<!-- Node8&#45;&gt;Node9 -->
<g id="edge1" class="edge">
<title>Node8&#45;&gt;Node9</title>
<path fill="none" stroke="#191970" d="M400.5,-124.0249C400.5,-115.128 400.5,-105.4287 400.5,-97.6432"/>
<polygon fill="#191970" stroke="#191970" points="397.0001,-124.2966 400.5,-134.2967 404.0001,-124.2967 397.0001,-124.2966"/>
</g>
<!-- Node10 -->
<g id="node3" class="node">
<title>Node10</title>
<g id="a_node3"><a xlink:href="DictSelectionReader_8cxx.html" target="_top" xlink:title="core/dictgen/src/DictSelection\lReader.cxx">
<polygon fill="#ffffff" stroke="#000000" points="0,-.5 0,-30.5 161,-30.5 161,-.5 0,-.5"/>
<text text-anchor="start" x="8" y="-18.5" font-family="Helvetica,sans-Serif" font-size="10.00" fill="#000000">core/dictgen/src/DictSelection</text>
<text text-anchor="middle" x="80.5" y="-7.5" font-family="Helvetica,sans-Serif" font-size="10.00" fill="#000000">Reader.cxx</text>
</a>
</g>
</g>
<!-- Node8&#45;&gt;Node10 -->
<g id="edge9" class="edge">
<title>Node8&#45;&gt;Node10</title>
<path fill="none" stroke="#191970" d="M354.9501,-130.426C290.7548,-103.5442 174.9813,-55.0641 116.4542,-30.5558"/>
<polygon fill="#191970" stroke="#191970" points="353.8381,-133.7548 364.414,-134.389 356.5419,-127.298 353.8381,-133.7548"/>
</g>
<!-- Node16 -->
<g id="node9" class="node">
<title>Node16</title>
<g id="a_node9"><a xlink:href="ClassSelectionRule_8cxx.html" target="_top" xlink:title="core/dictgen/src/ClassSelection\lRule.cxx">
<polygon fill="#ffffff" stroke="#000000" points="490.5,-67.5 490.5,-97.5 658.5,-97.5 658.5,-67.5 490.5,-67.5"/>
<text text-anchor="start" x="498.5" y="-85.5" font-family="Helvetica,sans-Serif" font-size="10.00" fill="#000000">core/dictgen/src/ClassSelection</text>
<text text-anchor="middle" x="574.5" y="-74.5" font-family="Helvetica,sans-Serif" font-size="10.00" fill="#000000">Rule.cxx</text>
</a>
</g>
</g>
<!-- Node8&#45;&gt;Node16 -->
<g id="edge8" class="edge">
<title>Node8&#45;&gt;Node16</title>
<path fill="none" stroke="#191970" d="M448.8954,-130.865C476.132,-120.3773 509.7007,-107.4515 535.2807,-97.6017"/>
<polygon fill="#191970" stroke="#191970" points="447.6234,-127.6042 439.549,-134.4639 450.1388,-134.1367 447.6234,-127.6042"/>
</g>
<!-- Node9&#45;&gt;Node10 -->
<g id="edge2" class="edge">
<title>Node9&#45;&gt;Node10</title>
<path fill="none" stroke="#191970" d="M318.6138,-65.3551C267.2602,-54.6029 201.6801,-40.8721 152.3508,-30.5438"/>
<polygon fill="#191970" stroke="#191970" points="318.1807,-68.8402 328.6858,-67.4639 319.6153,-61.9888 318.1807,-68.8402"/>
</g>
<!-- Node11 -->
<g id="node4" class="node">
<title>Node11</title>
<g id="a_node4"><a xlink:href="LinkdefReader_8cxx.html" target="_top" xlink:title="core/dictgen/src/Linkdef\lReader.cxx">
<polygon fill="#ffffff" stroke="#000000" points="179,-.5 179,-30.5 312,-30.5 312,-.5 179,-.5"/>
<text text-anchor="start" x="187" y="-18.5" font-family="Helvetica,sans-Serif" font-size="10.00" fill="#000000">core/dictgen/src/Linkdef</text>
<text text-anchor="middle" x="245.5" y="-7.5" font-family="Helvetica,sans-Serif" font-size="10.00" fill="#000000">Reader.cxx</text>
</a>
</g>
</g>
<!-- Node9&#45;&gt;Node11 -->
<g id="edge3" class="edge">
<title>Node9&#45;&gt;Node11</title>
<path fill="none" stroke="#191970" d="M356.4328,-63.4516C332.3444,-53.0392 302.925,-40.3224 280.4367,-30.6017"/>
<polygon fill="#191970" stroke="#191970" points="355.1471,-66.7088 365.715,-67.4639 357.9246,-60.2834 355.1471,-66.7088"/>
</g>
<!-- Node12 -->
<g id="node5" class="node">
<title>Node12</title>
<g id="a_node5"><a xlink:href="rootcling__impl_8cxx.html" target="_top" xlink:title="core/dictgen/src/rootcling\l_impl.cxx">
<polygon fill="#ffffff" stroke="#000000" points="330.5,-.5 330.5,-30.5 470.5,-30.5 470.5,-.5 330.5,-.5"/>
<text text-anchor="start" x="338.5" y="-18.5" font-family="Helvetica,sans-Serif" font-size="10.00" fill="#000000">core/dictgen/src/rootcling</text>
<text text-anchor="middle" x="400.5" y="-7.5" font-family="Helvetica,sans-Serif" font-size="10.00" fill="#000000">_impl.cxx</text>
</a>
</g>
</g>
<!-- Node9&#45;&gt;Node12 -->
<g id="edge4" class="edge">
<title>Node9&#45;&gt;Node12</title>
<path fill="none" stroke="#191970" d="M400.5,-57.0249C400.5,-48.128 400.5,-38.4287 400.5,-30.6432"/>
<polygon fill="#191970" stroke="#191970" points="397.0001,-57.2966 400.5,-67.2967 404.0001,-57.2967 397.0001,-57.2966"/>
</g>
<!-- Node13 -->
<g id="node6" class="node">
<title>Node13</title>
<g id="a_node6"><a xlink:href="Scanner_8cxx.html" target="_top" xlink:title="core/dictgen/src/Scanner.cxx">
<polygon fill="#ffffff" stroke="#000000" points="489,-6 489,-25 644,-25 644,-6 489,-6"/>
<text text-anchor="middle" x="566.5" y="-13" font-family="Helvetica,sans-Serif" font-size="10.00" fill="#000000">core/dictgen/src/Scanner.cxx</text>
</a>
</g>
</g>
<!-- Node9&#45;&gt;Node13 -->
<g id="edge5" class="edge">
<title>Node9&#45;&gt;Node13</title>
<path fill="none" stroke="#191970" d="M447.1116,-63.6869C478.2282,-51.1278 517.8524,-35.1349 542.7052,-25.1039"/>
<polygon fill="#191970" stroke="#191970" points="445.7168,-60.4754 437.7536,-67.4639 448.3368,-66.9667 445.7168,-60.4754"/>
</g>
<!-- Node14 -->
<g id="node7" class="node">
<title>Node14</title>
<g id="a_node7"><a xlink:href="SelectionRules_8cxx.html" target="_top" xlink:title="core/dictgen/src/Selection\lRules.cxx">
<polygon fill="#ffffff" stroke="#000000" points="662.5,-.5 662.5,-30.5 804.5,-30.5 804.5,-.5 662.5,-.5"/>
<text text-anchor="start" x="670.5" y="-18.5" font-family="Helvetica,sans-Serif" font-size="10.00" fill="#000000">core/dictgen/src/Selection</text>
<text text-anchor="middle" x="733.5" y="-7.5" font-family="Helvetica,sans-Serif" font-size="10.00" fill="#000000">Rules.cxx</text>
</a>
</g>
</g>
<!-- Node9&#45;&gt;Node14 -->
<g id="edge6" class="edge">
<title>Node9&#45;&gt;Node14</title>
<path fill="none" stroke="#191970" d="M482.4404,-66.0135C537.5965,-54.916 609.6067,-40.4275 662.3552,-29.8144"/>
<polygon fill="#191970" stroke="#191970" points="481.4592,-62.6407 472.3461,-68.0445 482.84,-69.5032 481.4592,-62.6407"/>
</g>
<!-- Node15 -->
<g id="node8" class="node">
<title>Node15</title>
<g id="a_node8"><a xlink:href="XMLReader_8cxx.html" target="_top" xlink:title="core/dictgen/src/XMLReader.cxx">
<polygon fill="#ffffff" stroke="#000000" points="822.5,-6 822.5,-25 992.5,-25 992.5,-6 822.5,-6"/>
<text text-anchor="middle" x="907.5" y="-13" font-family="Helvetica,sans-Serif" font-size="10.00" fill="#000000">core/dictgen/src/XMLReader.cxx</text>
</a>
</g>
</g>
<!-- Node9&#45;&gt;Node15 -->
<g id="edge7" class="edge">
<title>Node9&#45;&gt;Node15</title>
<path fill="none" stroke="#191970" d="M482.763,-66.8888C630.0551,-45.2928 669.7473,-50.6304 813.5,-31 826.2824,-29.2545 840.002,-27.1337 852.901,-25.0284"/>
<polygon fill="#191970" stroke="#191970" points="481.8151,-63.491 472.437,-68.4207 482.8424,-70.4152 481.8151,-63.491"/>
</g>
</g>
</svg>
        <g id="navigator" transform="translate(0 0)" fill="#404254">
                <rect fill="#f2f5e9" fill-opacity="0.5" stroke="#606060" stroke-width=".5" x="0" y="0" width="60" height="60"/>
                <use id="zoomplus" xlink:href="#zoomPlus" x="17" y="9" onmousedown="handleZoom(evt,'in')"/>
                <use id="zoomminus" xlink:href="#zoomMin" x="42" y="9" onmousedown="handleZoom(evt,'out')"/>
                <use id="reset" xlink:href="#resetDef" x="30" y="36" onmousedown="handleReset()"/>
                <g id="arrowUp" xlink:href="#dirArrow" transform="translate(30 24)" onmousedown="handlePan(0,-1)">
                  <use xlink:href="#rim" fill="#404040">
                        <set attributeName="fill" to="#808080" begin="arrowUp.mouseover" end="arrowUp.mouseout"/>
                  </use>
                  <path fill="none" stroke="white" stroke-width="1.5" d="M0,-3.0v7 M-2.5,-0.5L0,-3.0L2.5,-0.5"/>
                </g>
                <g id="arrowRight" xlink:href="#dirArrow" transform="rotate(90) translate(36 -43)" onmousedown="handlePan(1,0)">
                  <use xlink:href="#rim" fill="#404040">
                        <set attributeName="fill" to="#808080" begin="arrowRight.mouseover" end="arrowRight.mouseout"/>
                  </use>
                  <path fill="none" stroke="white" stroke-width="1.5" d="M0,-3.0v7 M-2.5,-0.5L0,-3.0L2.5,-0.5"/>
                </g>
                <g id="arrowDown" xlink:href="#dirArrow" transform="rotate(180) translate(-30 -48)" onmousedown="handlePan(0,1)">
                  <use xlink:href="#rim" fill="#404040">
                        <set attributeName="fill" to="#808080" begin="arrowDown.mouseover" end="arrowDown.mouseout"/>
                  </use>
                  <path fill="none" stroke="white" stroke-width="1.5" d="M0,-3.0v7 M-2.5,-0.5L0,-3.0L2.5,-0.5"/>
                </g>
                <g id="arrowLeft" xlink:href="#dirArrow" transform="rotate(270) translate(-36 17)" onmousedown="handlePan(-1,0)">
                  <use xlink:href="#rim" fill="#404040">
                        <set attributeName="fill" to="#808080" begin="arrowLeft.mouseover" end="arrowLeft.mouseout"/>
                  </use>
                  <path fill="none" stroke="white" stroke-width="1.5" d="M0,-3.0v7 M-2.5,-0.5L0,-3.0L2.5,-0.5"/>
                </g>
        </g>
        <svg viewBox="0 0 15 15" width="100%" height="30px" preserveAspectRatio="xMaxYMin meet">
         <g id="arrow_out" transform="scale(0.3 0.3)">
          <a xlink:href="ClassSelectionRule_8h__dep__incl_org.svg" target="_base">
           <rect id="button" ry="5" rx="5" y="6" x="6" height="38" width="38"
                fill="#f2f5e9" fill-opacity="0.5" stroke="#606060" stroke-width="1.0"/>
           <path id="arrow"
             d="M 11.500037,31.436501 C 11.940474,20.09759 22.043105,11.32322 32.158766,21.979434 L 37.068811,17.246167 C 37.068811,17.246167 37.088388,32 37.088388,32 L 22.160133,31.978069 C 22.160133,31.978069 26.997745,27.140456 26.997745,27.140456 C 18.528582,18.264221 13.291696,25.230495 11.500037,31.436501 z"
             style="fill:#404040;"/>
          </a>
         </g>
        </svg>
</svg>
