<?xml version="1.0" encoding="UTF-8" standalone="no"?>
<!DOCTYPE svg PUBLIC "-//W3C//DTD SVG 1.1//EN"
 "http://www.w3.org/Graphics/SVG/1.1/DTD/svg11.dtd">
<!-- Generated by graphviz version 2.40.1 (0)
 -->
<!-- Title: PyROOT::TRefExecutor Pages: 1 -->
<svg width="362pt" height="151pt"
 viewBox="0.00 0.00 361.50 151.00" xmlns="http://www.w3.org/2000/svg" xmlns:xlink="http://www.w3.org/1999/xlink">
<g id="graph0" class="graph" transform="scale(1 1) rotate(0) translate(4 147)">
<title>PyROOT::TRefExecutor</title>
<polygon fill="#ffffff" stroke="transparent" points="-4,4 -4,-147 357.5,-147 357.5,4 -4,4"/>
<!-- Node0 -->
<g id="node1" class="node">
<title>Node0</title>
<polygon fill="#bfbfbf" stroke="#000000" points="109.5,-67.5 109.5,-86.5 235.5,-86.5 235.5,-67.5 109.5,-67.5"/>
<text text-anchor="middle" x="172.5" y="-74.5" font-family="Helvetica,sans-Serif" font-size="10.00" fill="#000000">PyROOT::TRefExecutor</text>
</g>
<!-- Node2 -->
<g id="node3" class="node">
<title>Node2</title>
<g id="a_node3"><a xlink:href="classPyROOT_1_1TCppObjectBySmartPtrRefExecutor.html" target="_top" xlink:title="PyROOT::TCppObjectBySmart\lPtrRefExecutor">
<polygon fill="#ffffff" stroke="#000000" points="0,-.5 0,-30.5 159,-30.5 159,-.5 0,-.5"/>
<text text-anchor="start" x="8" y="-18.5" font-family="Helvetica,sans-Serif" font-size="10.00" fill="#000000">PyROOT::TCppObjectBySmart</text>
<text text-anchor="middle" x="79.5" y="-7.5" font-family="Helvetica,sans-Serif" font-size="10.00" fill="#000000">PtrRefExecutor</text>
</a>
</g>
</g>
<!-- Node0&#45;&gt;Node2 -->
<g id="edge2" class="edge">
<title>Node0&#45;&gt;Node2</title>
<path fill="none" stroke="#191970" d="M149.597,-61.8545C135.1779,-52.3193 116.6402,-40.0605 102.2504,-30.5446"/>
<polygon fill="#191970" stroke="#191970" points="147.697,-64.7941 157.9688,-67.3906 151.5582,-58.9553 147.697,-64.7941"/>
</g>
<!-- Node3 -->
<g id="node4" class="node">
<title>Node3</title>
<g id="a_node4"><a xlink:href="classPyROOT_1_1TCppObjectRefExecutor.html" target="_top" xlink:title="PyROOT::TCppObjectRefExecutor">
<polygon fill="#ffffff" stroke="#000000" points="177.5,-6 177.5,-25 353.5,-25 353.5,-6 177.5,-6"/>
<text text-anchor="middle" x="265.5" y="-13" font-family="Helvetica,sans-Serif" font-size="10.00" fill="#000000">PyROOT::TCppObjectRefExecutor</text>
</a>
</g>
</g>
<!-- Node0&#45;&gt;Node3 -->
<g id="edge3" class="edge">
<title>Node0&#45;&gt;Node3</title>
<path fill="none" stroke="#191970" d="M195.5065,-61.786C212.8962,-50.2864 236.2315,-34.855 251.0708,-25.0419"/>
<polygon fill="#191970" stroke="#191970" points="193.4418,-58.9553 187.0313,-67.3906 197.303,-64.7941 193.4418,-58.9553"/>
</g>
<!-- Node1 -->
<g id="node2" class="node">
<title>Node1</title>
<g id="a_node2"><a xlink:href="classPyROOT_1_1TExecutor.html" target="_top" xlink:title="PyROOT::TExecutor">
<polygon fill="#ffffff" stroke="#000000" points="117.5,-123.5 117.5,-142.5 227.5,-142.5 227.5,-123.5 117.5,-123.5"/>
<text text-anchor="middle" x="172.5" y="-130.5" font-family="Helvetica,sans-Serif" font-size="10.00" fill="#000000">PyROOT::TExecutor</text>
</a>
</g>
</g>
<!-- Node1&#45;&gt;Node0 -->
<g id="edge1" class="edge">
<title>Node1&#45;&gt;Node0</title>
<path fill="none" stroke="#191970" d="M172.5,-113.1575C172.5,-104.155 172.5,-93.9199 172.5,-86.6427"/>
<polygon fill="#191970" stroke="#191970" points="169.0001,-113.2455 172.5,-123.2455 176.0001,-113.2456 169.0001,-113.2455"/>
</g>
</g>
</svg>
