<?xml version="1.0" encoding="UTF-8" standalone="no"?>
<!DOCTYPE svg PUBLIC "-//W3C//DTD SVG 1.1//EN"
 "http://www.w3.org/Graphics/SVG/1.1/DTD/svg11.dtd">
<!-- Generated by graphviz version 2.40.1 (0)
 -->
<!-- Title: TArrayD Pages: 1 -->
<svg width="231pt" height="196pt"
 viewBox="0.00 0.00 231.00 196.00" xmlns="http://www.w3.org/2000/svg" xmlns:xlink="http://www.w3.org/1999/xlink">
<g id="graph0" class="graph" transform="scale(1 1) rotate(0) translate(4 192)">
<title>TArrayD</title>
<polygon fill="#ffffff" stroke="transparent" points="-4,4 -4,-192 227,-192 227,4 -4,4"/>
<!-- Node0 -->
<g id="node1" class="node">
<title>Node0</title>
<polygon fill="#bfbfbf" stroke="#000000" points="76.5,-112.5 76.5,-131.5 132.5,-131.5 132.5,-112.5 76.5,-112.5"/>
<text text-anchor="middle" x="104.5" y="-119.5" font-family="Helvetica,sans-Serif" font-size="10.00" fill="#000000">TArrayD</text>
</g>
<!-- Node2 -->
<g id="node3" class="node">
<title>Node2</title>
<g id="a_node3"><a xlink:href="classTH1D.html" target="_top" xlink:title="1&#45;D histogram with a double per channel (see TH1 documentation)} ">
<polygon fill="#ffffff" stroke="#000000" points="12.5,-56.5 12.5,-75.5 56.5,-75.5 56.5,-56.5 12.5,-56.5"/>
<text text-anchor="middle" x="34.5" y="-63.5" font-family="Helvetica,sans-Serif" font-size="10.00" fill="#000000">TH1D</text>
</a>
</g>
</g>
<!-- Node0&#45;&gt;Node2 -->
<g id="edge2" class="edge">
<title>Node0&#45;&gt;Node2</title>
<path fill="none" stroke="#191970" d="M84.41,-105.928C72.1747,-96.1397 56.9493,-83.9595 46.5533,-75.6427"/>
<polygon fill="#191970" stroke="#191970" points="82.3118,-108.7316 92.3069,-112.2455 86.6847,-103.2655 82.3118,-108.7316"/>
</g>
<!-- Node4 -->
<g id="node5" class="node">
<title>Node4</title>
<g id="a_node5"><a xlink:href="classTH2D.html" target="_top" xlink:title="2&#45;D histogram with a double per channel (see TH1 documentation)} ">
<polygon fill="#ffffff" stroke="#000000" points="82.5,-56.5 82.5,-75.5 126.5,-75.5 126.5,-56.5 82.5,-56.5"/>
<text text-anchor="middle" x="104.5" y="-63.5" font-family="Helvetica,sans-Serif" font-size="10.00" fill="#000000">TH2D</text>
</a>
</g>
</g>
<!-- Node0&#45;&gt;Node4 -->
<g id="edge4" class="edge">
<title>Node0&#45;&gt;Node4</title>
<path fill="none" stroke="#191970" d="M104.5,-102.1575C104.5,-93.155 104.5,-82.9199 104.5,-75.6427"/>
<polygon fill="#191970" stroke="#191970" points="101.0001,-102.2455 104.5,-112.2455 108.0001,-102.2456 101.0001,-102.2455"/>
</g>
<!-- Node6 -->
<g id="node7" class="node">
<title>Node6</title>
<g id="a_node7"><a xlink:href="classTH3D.html" target="_top" xlink:title="3&#45;D histogram with a double per channel (see TH1 documentation)} ">
<polygon fill="#ffffff" stroke="#000000" points="155.5,-56.5 155.5,-75.5 199.5,-75.5 199.5,-56.5 155.5,-56.5"/>
<text text-anchor="middle" x="177.5" y="-63.5" font-family="Helvetica,sans-Serif" font-size="10.00" fill="#000000">TH3D</text>
</a>
</g>
</g>
<!-- Node0&#45;&gt;Node6 -->
<g id="edge6" class="edge">
<title>Node0&#45;&gt;Node6</title>
<path fill="none" stroke="#191970" d="M125.451,-105.928C138.2107,-96.1397 154.0885,-83.9595 164.9301,-75.6427"/>
<polygon fill="#191970" stroke="#191970" points="123.0196,-103.3819 117.2156,-112.2455 127.2803,-108.9359 123.0196,-103.3819"/>
</g>
<!-- Node1 -->
<g id="node2" class="node">
<title>Node1</title>
<g id="a_node2"><a xlink:href="classTArray.html" target="_top" xlink:title="Abstract array base class. ">
<polygon fill="#ffffff" stroke="#000000" points="80.5,-168.5 80.5,-187.5 128.5,-187.5 128.5,-168.5 80.5,-168.5"/>
<text text-anchor="middle" x="104.5" y="-175.5" font-family="Helvetica,sans-Serif" font-size="10.00" fill="#000000">TArray</text>
</a>
</g>
</g>
<!-- Node1&#45;&gt;Node0 -->
<g id="edge1" class="edge">
<title>Node1&#45;&gt;Node0</title>
<path fill="none" stroke="#191970" d="M104.5,-158.1575C104.5,-149.155 104.5,-138.9199 104.5,-131.6427"/>
<polygon fill="#191970" stroke="#191970" points="101.0001,-158.2455 104.5,-168.2455 108.0001,-158.2456 101.0001,-158.2455"/>
</g>
<!-- Node3 -->
<g id="node4" class="node">
<title>Node3</title>
<g id="a_node4"><a xlink:href="classTProfile.html" target="_top" xlink:title="Profile Histogram. ">
<polygon fill="#ffffff" stroke="#000000" points="0,-.5 0,-19.5 53,-19.5 53,-.5 0,-.5"/>
<text text-anchor="middle" x="26.5" y="-7.5" font-family="Helvetica,sans-Serif" font-size="10.00" fill="#000000">TProfile</text>
</a>
</g>
</g>
<!-- Node2&#45;&gt;Node3 -->
<g id="edge3" class="edge">
<title>Node2&#45;&gt;Node3</title>
<path fill="none" stroke="#191970" d="M31.6654,-46.1575C30.3793,-37.155 28.9171,-26.9199 27.8775,-19.6427"/>
<polygon fill="#191970" stroke="#191970" points="28.2274,-46.8411 33.1065,-56.2455 35.157,-45.851 28.2274,-46.8411"/>
</g>
<!-- Node5 -->
<g id="node6" class="node">
<title>Node5</title>
<g id="a_node6"><a xlink:href="classTProfile2D.html" target="_top" xlink:title="Profile2D histograms are used to display the mean value of Z and its RMS for each cell in X...">
<polygon fill="#ffffff" stroke="#000000" points="71,-.5 71,-19.5 138,-19.5 138,-.5 71,-.5"/>
<text text-anchor="middle" x="104.5" y="-7.5" font-family="Helvetica,sans-Serif" font-size="10.00" fill="#000000">TProfile2D</text>
</a>
</g>
</g>
<!-- Node4&#45;&gt;Node5 -->
<g id="edge5" class="edge">
<title>Node4&#45;&gt;Node5</title>
<path fill="none" stroke="#191970" d="M104.5,-46.1575C104.5,-37.155 104.5,-26.9199 104.5,-19.6427"/>
<polygon fill="#191970" stroke="#191970" points="101.0001,-46.2455 104.5,-56.2455 108.0001,-46.2456 101.0001,-46.2455"/>
</g>
<!-- Node7 -->
<g id="node8" class="node">
<title>Node7</title>
<g id="a_node8"><a xlink:href="classTProfile3D.html" target="_top" xlink:title="Profile3D histograms are used to display the mean value of T and its RMS for each cell in X...">
<polygon fill="#ffffff" stroke="#000000" points="156,-.5 156,-19.5 223,-19.5 223,-.5 156,-.5"/>
<text text-anchor="middle" x="189.5" y="-7.5" font-family="Helvetica,sans-Serif" font-size="10.00" fill="#000000">TProfile3D</text>
</a>
</g>
</g>
<!-- Node6&#45;&gt;Node7 -->
<g id="edge7" class="edge">
<title>Node6&#45;&gt;Node7</title>
<path fill="none" stroke="#191970" d="M181.6885,-46.4538C183.6328,-37.3803 185.8572,-26.9998 187.4337,-19.6427"/>
<polygon fill="#191970" stroke="#191970" points="178.2633,-45.7341 179.5902,-56.2455 185.1079,-47.2009 178.2633,-45.7341"/>
</g>
</g>
</svg>
