<?xml version="1.0" encoding="UTF-8" standalone="no"?>
<!DOCTYPE svg PUBLIC "-//W3C//DTD SVG 1.1//EN"
 "http://www.w3.org/Graphics/SVG/1.1/DTD/svg11.dtd">
<!-- Generated by graphviz version 2.40.1 (0)
 -->
<!-- Title: G Pages: 1 -->
<svg width="211pt" height="422pt"
 viewBox="0.00 0.00 211.00 422.00" xmlns="http://www.w3.org/2000/svg" xmlns:xlink="http://www.w3.org/1999/xlink">
<g id="graph0" class="graph" transform="scale(1 1) rotate(0) translate(4 418)">
<title>G</title>
<polygon fill="#ffffff" stroke="transparent" points="-4,4 -4,-418 207,-418 207,4 -4,4"/>
<!-- mainlib -->
<g id="node1" class="node">
<title>mainlib</title>
<polygon fill="#abacba" stroke="#000000" points="69,-225 0,-225 0,-189 69,-189 69,-225"/>
<text text-anchor="middle" x="34.5" y="-203.3" font-family="Arial" font-size="14.00" fill="#000000">libUnfold</text>
</g>
<!-- libHist -->
<g id="node2" class="node">
<title>libHist</title>
<polygon fill="none" stroke="#000000" points="181,-414 127,-414 127,-378 181,-378 181,-414"/>
<text text-anchor="middle" x="154" y="-392.3" font-family="Arial" font-size="14.00" fill="#000000">libHist</text>
</g>
<!-- mainlib&#45;&gt;libHist -->
<g id="edge1" class="edge">
<title>mainlib&#45;&gt;libHist</title>
<path fill="none" stroke="#000000" d="M38.316,-225.1601C45.9296,-257.5488 65.7545,-325.9168 105,-369 108.761,-373.1287 113.3045,-376.7649 118.0892,-379.9215"/>
<polygon fill="#000000" stroke="#000000" points="116.4543,-383.0206 126.8454,-385.0882 120.0116,-376.9919 116.4543,-383.0206"/>
</g>
<!-- libXMLParser -->
<g id="node3" class="node">
<title>libXMLParser</title>
<polygon fill="none" stroke="#000000" points="203,-360 105,-360 105,-324 203,-324 203,-360"/>
<text text-anchor="middle" x="154" y="-338.3" font-family="Arial" font-size="14.00" fill="#000000">libXMLParser</text>
</g>
<!-- mainlib&#45;&gt;libXMLParser -->
<g id="edge2" class="edge">
<title>mainlib&#45;&gt;libXMLParser</title>
<path fill="none" stroke="#000000" d="M42.9726,-225.3873C54.3917,-248.5927 76.6051,-288.6508 105,-315 106.0902,-316.0117 107.2253,-316.9989 108.396,-317.961"/>
<polygon fill="#000000" stroke="#000000" points="106.4085,-320.8438 116.5413,-323.9388 110.5502,-315.2005 106.4085,-320.8438"/>
</g>
<!-- libMatrix -->
<g id="node4" class="node">
<title>libMatrix</title>
<polygon fill="none" stroke="#000000" points="188,-306 120,-306 120,-270 188,-270 188,-306"/>
<text text-anchor="middle" x="154" y="-284.3" font-family="Arial" font-size="14.00" fill="#000000">libMatrix</text>
</g>
<!-- mainlib&#45;&gt;libMatrix -->
<g id="edge3" class="edge">
<title>mainlib&#45;&gt;libMatrix</title>
<path fill="none" stroke="#000000" d="M56.4167,-225.1508C70.0264,-236.0734 88.0909,-249.9548 105,-261 106.916,-262.2516 108.8945,-263.5015 110.9076,-264.7395"/>
<polygon fill="#000000" stroke="#000000" points="109.4842,-267.9647 119.8701,-270.0587 113.0569,-261.945 109.4842,-267.9647"/>
</g>
<!-- libMathCore -->
<g id="node5" class="node">
<title>libMathCore</title>
<polygon fill="none" stroke="#000000" points="199,-252 109,-252 109,-216 199,-216 199,-252"/>
<text text-anchor="middle" x="154" y="-230.3" font-family="Arial" font-size="14.00" fill="#000000">libMathCore</text>
</g>
<!-- mainlib&#45;&gt;libMathCore -->
<g id="edge4" class="edge">
<title>mainlib&#45;&gt;libMathCore</title>
<path fill="none" stroke="#000000" d="M69.0644,-214.8095C78.3701,-216.9121 88.6735,-219.24 98.8014,-221.5284"/>
<polygon fill="#000000" stroke="#000000" points="98.302,-225.0037 108.8275,-223.7937 99.8447,-218.1758 98.302,-225.0037"/>
</g>
<!-- libImt -->
<g id="node6" class="node">
<title>libImt</title>
<polygon fill="none" stroke="#000000" points="181,-198 127,-198 127,-162 181,-162 181,-198"/>
<text text-anchor="middle" x="154" y="-176.3" font-family="Arial" font-size="14.00" fill="#000000">libImt</text>
</g>
<!-- mainlib&#45;&gt;libImt -->
<g id="edge5" class="edge">
<title>mainlib&#45;&gt;libImt</title>
<path fill="none" stroke="#000000" d="M69.0644,-199.1905C83.9622,-195.8244 101.4169,-191.8807 116.6153,-188.4467"/>
<polygon fill="#000000" stroke="#000000" points="117.735,-191.7821 126.7177,-186.1642 116.1922,-184.9542 117.735,-191.7821"/>
</g>
<!-- libRIO -->
<g id="node7" class="node">
<title>libRIO</title>
<polygon fill="none" stroke="#000000" points="181.5,-144 126.5,-144 126.5,-108 181.5,-108 181.5,-144"/>
<text text-anchor="middle" x="154" y="-122.3" font-family="Arial" font-size="14.00" fill="#000000">libRIO</text>
</g>
<!-- mainlib&#45;&gt;libRIO -->
<g id="edge6" class="edge">
<title>mainlib&#45;&gt;libRIO</title>
<path fill="none" stroke="#000000" d="M56.4167,-188.8492C70.0264,-177.9266 88.0909,-164.0452 105,-153 109.0074,-150.3823 113.2878,-147.7718 117.5876,-145.2629"/>
<polygon fill="#000000" stroke="#000000" points="119.3892,-148.2649 126.3593,-140.2856 115.9346,-142.1767 119.3892,-148.2649"/>
</g>
<!-- libThread -->
<g id="node8" class="node">
<title>libThread</title>
<polygon fill="none" stroke="#000000" points="190.5,-90 117.5,-90 117.5,-54 190.5,-54 190.5,-90"/>
<text text-anchor="middle" x="154" y="-68.3" font-family="Arial" font-size="14.00" fill="#000000">libThread</text>
</g>
<!-- mainlib&#45;&gt;libThread -->
<g id="edge7" class="edge">
<title>mainlib&#45;&gt;libThread</title>
<path fill="none" stroke="#000000" d="M42.9726,-188.6127C54.3917,-165.4073 76.6051,-125.3492 105,-99 106.2727,-97.819 107.6065,-96.6713 108.9867,-95.5581"/>
<polygon fill="#000000" stroke="#000000" points="111.2328,-98.2536 117.2968,-89.5657 107.1385,-92.5757 111.2328,-98.2536"/>
</g>
<!-- libCore -->
<g id="node9" class="node">
<title>libCore</title>
<polygon fill="none" stroke="#000000" points="183.5,-36 124.5,-36 124.5,0 183.5,0 183.5,-36"/>
<text text-anchor="middle" x="154" y="-14.3" font-family="Arial" font-size="14.00" fill="#000000">libCore</text>
</g>
<!-- mainlib&#45;&gt;libCore -->
<g id="edge8" class="edge">
<title>mainlib&#45;&gt;libCore</title>
<path fill="none" stroke="#000000" d="M38.316,-188.8399C45.9296,-156.4512 65.7545,-88.0832 105,-45 108.1008,-41.596 111.7334,-38.5269 115.5946,-35.7853"/>
<polygon fill="#000000" stroke="#000000" points="117.6998,-38.5957 124.2949,-30.3038 113.9684,-32.6732 117.6998,-38.5957"/>
</g>
</g>
</svg>
