<?xml version="1.0" encoding="UTF-8" standalone="no"?>
<!DOCTYPE svg PUBLIC "-//W3C//DTD SVG 1.1//EN"
 "http://www.w3.org/Graphics/SVG/1.1/DTD/svg11.dtd">
<!-- Generated by graphviz version 2.40.1 (0)
 -->
<!-- Title: TPyMultiGradFunction Pages: 1 -->
<svg width="521pt" height="88pt"
 viewBox="0.00 0.00 521.00 88.00" xmlns="http://www.w3.org/2000/svg" xmlns:xlink="http://www.w3.org/1999/xlink">
<g id="graph0" class="graph" transform="scale(1 1) rotate(0) translate(4 84)">
<title>TPyMultiGradFunction</title>
<polygon fill="#ffffff" stroke="transparent" points="-4,4 -4,-84 517,-84 517,4 -4,4"/>
<!-- Node4 -->
<g id="node1" class="node">
<title>Node4</title>
<polygon fill="#bfbfbf" stroke="#000000" points="391,-30 391,-49 513,-49 513,-30 391,-30"/>
<text text-anchor="middle" x="452" y="-37" font-family="Helvetica,sans-Serif" font-size="10.00" fill="#000000">TPyMultiGradFunction</text>
</g>
<!-- Node5 -->
<g id="node2" class="node">
<title>Node5</title>
<g id="a_node2"><a xlink:href="classROOT_1_1Math_1_1IGradientFunctionMultiDimTempl.html" target="_top" xlink:title="Interface (abstract class) for multi&#45;dimensional functions providing a gradient calculation. ">
<polygon fill="#ffffff" stroke="#000000" points="185,-30 185,-49 355,-49 355,-30 185,-30"/>
<text text-anchor="middle" x="270" y="-37" font-family="Helvetica,sans-Serif" font-size="10.00" fill="#000000">ROOT::Math::IMultiGradFunction</text>
</a>
</g>
</g>
<!-- Node5&#45;&gt;Node4 -->
<g id="edge1" class="edge">
<title>Node5&#45;&gt;Node4</title>
<path fill="none" stroke="#191970" d="M365.2998,-39.5C373.9515,-39.5 382.5513,-39.5 390.7854,-39.5"/>
<polygon fill="#191970" stroke="#191970" points="365.1384,-36.0001 355.1384,-39.5 365.1383,-43.0001 365.1384,-36.0001"/>
</g>
<!-- Node6 -->
<g id="node3" class="node">
<title>Node6</title>
<g id="a_node3"><a xlink:href="classROOT_1_1Math_1_1IBaseFunctionMultiDimTempl.html" target="_top" xlink:title="Documentation for the abstract class IBaseFunctionMultiDim. ">
<polygon fill="#ffffff" stroke="#000000" points="1,-49.5 1,-79.5 148,-79.5 148,-49.5 1,-49.5"/>
<text text-anchor="start" x="9" y="-67.5" font-family="Helvetica,sans-Serif" font-size="10.00" fill="#000000">ROOT::Math::IBaseFunction</text>
<text text-anchor="middle" x="74.5" y="-56.5" font-family="Helvetica,sans-Serif" font-size="10.00" fill="#000000">MultiDimTempl&lt; T &gt;</text>
</a>
</g>
</g>
<!-- Node6&#45;&gt;Node5 -->
<g id="edge2" class="edge">
<title>Node6&#45;&gt;Node5</title>
<path fill="none" stroke="#191970" d="M158.395,-53.7717C170.7183,-52.1959 183.3415,-50.5816 195.4596,-49.032"/>
<polygon fill="#191970" stroke="#191970" points="157.6068,-50.3439 148.1316,-55.0842 158.4948,-57.2874 157.6068,-50.3439"/>
</g>
<!-- Node7 -->
<g id="node4" class="node">
<title>Node7</title>
<g id="a_node4"><a xlink:href="classROOT_1_1Math_1_1IGradientMultiDimTempl.html" target="_top" xlink:title="Gradient interface (abstract class) defining the signature for calculating the gradient of a multi&#45;di...">
<polygon fill="#ffffff" stroke="#000000" points="0,-.5 0,-30.5 149,-30.5 149,-.5 0,-.5"/>
<text text-anchor="start" x="8" y="-18.5" font-family="Helvetica,sans-Serif" font-size="10.00" fill="#000000">ROOT::Math::IGradientMulti</text>
<text text-anchor="middle" x="74.5" y="-7.5" font-family="Helvetica,sans-Serif" font-size="10.00" fill="#000000">DimTempl&lt; T &gt;</text>
</a>
</g>
</g>
<!-- Node7&#45;&gt;Node5 -->
<g id="edge3" class="edge">
<title>Node7&#45;&gt;Node5</title>
<path fill="none" stroke="#191970" d="M159.2713,-25.9067C170.2729,-27.2573 181.4978,-28.6353 192.3751,-29.9706"/>
<polygon fill="#191970" stroke="#191970" points="159.599,-22.4207 149.247,-24.6761 158.746,-29.3686 159.599,-22.4207"/>
</g>
</g>
</svg>
