<?xml version="1.0" encoding="UTF-8" standalone="no"?>
<!DOCTYPE svg PUBLIC "-//W3C//DTD SVG 1.1//EN"
 "http://www.w3.org/Graphics/SVG/1.1/DTD/svg11.dtd">
<!-- Generated by graphviz version 2.40.1 (0)
 -->
<!-- Title: RooDirItem Pages: 1 -->
<svg width="640pt" height="510pt"
 viewBox="0.00 0.00 640.00 510.00" xmlns="http://www.w3.org/2000/svg" xmlns:xlink="http://www.w3.org/1999/xlink">
<g id="graph0" class="graph" transform="scale(1 1) rotate(0) translate(4 506)">
<title>RooDirItem</title>
<polygon fill="#ffffff" stroke="transparent" points="-4,4 -4,-506 636,-506 636,4 -4,4"/>
<!-- Node4 -->
<g id="node1" class="node">
<title>Node4</title>
<polygon fill="#bfbfbf" stroke="#000000" points="299.5,-.5 299.5,-19.5 370.5,-19.5 370.5,-.5 299.5,-.5"/>
<text text-anchor="middle" x="335" y="-7.5" font-family="Helvetica,sans-Serif" font-size="10.00" fill="#000000">RooDirItem</text>
</g>
<!-- Node5 -->
<g id="node2" class="node">
<title>Node5</title>
<g id="a_node2"><a xlink:href="classTDirectory.html" target="_top" xlink:title="Describe directory structure in memory. ">
<polygon fill="#ffffff" stroke="#000000" points="301,-67.5 301,-86.5 369,-86.5 369,-67.5 301,-67.5"/>
<text text-anchor="middle" x="335" y="-74.5" font-family="Helvetica,sans-Serif" font-size="10.00" fill="#000000">TDirectory</text>
</a>
</g>
</g>
<!-- Node5&#45;&gt;Node4 -->
<g id="edge1" class="edge">
<title>Node5&#45;&gt;Node4</title>
<path fill="none" stroke="#9a32cd" stroke-dasharray="5,2" d="M335,-57.1079C335,-44.714 335,-29.3263 335,-19.5817"/>
<polygon fill="#9a32cd" stroke="#9a32cd" points="331.5001,-57.4005 335,-67.4005 338.5001,-57.4006 331.5001,-57.4005"/>
<text text-anchor="middle" x="346" y="-41" font-family="Helvetica,sans-Serif" font-size="10.00" fill="#000000"> _dir</text>
</g>
<!-- Node6 -->
<g id="node3" class="node">
<title>Node6</title>
<g id="a_node3"><a xlink:href="classTNamed.html" target="_top" xlink:title="The TNamed class is the base class for all named ROOT classes. ">
<polygon fill="#ffffff" stroke="#000000" points="272,-270.5 272,-289.5 330,-289.5 330,-270.5 272,-270.5"/>
<text text-anchor="middle" x="301" y="-277.5" font-family="Helvetica,sans-Serif" font-size="10.00" fill="#000000">TNamed</text>
</a>
</g>
</g>
<!-- Node6&#45;&gt;Node5 -->
<g id="edge2" class="edge">
<title>Node6&#45;&gt;Node5</title>
<path fill="none" stroke="#191970" d="M304.2565,-260.5566C311.371,-218.0793 328.0866,-118.2768 333.3696,-86.7345"/>
<polygon fill="#191970" stroke="#191970" points="300.7943,-260.0404 302.5943,-270.4812 307.6982,-261.1967 300.7943,-260.0404"/>
</g>
<!-- Node7 -->
<g id="node4" class="node">
<title>Node7</title>
<g id="a_node4"><a xlink:href="classTObject.html" target="_top" xlink:title="Mother of all ROOT objects. ">
<polygon fill="#ffffff" stroke="#000000" points="84,-415.5 84,-434.5 138,-434.5 138,-415.5 84,-415.5"/>
<text text-anchor="middle" x="111" y="-422.5" font-family="Helvetica,sans-Serif" font-size="10.00" fill="#000000">TObject</text>
</a>
</g>
</g>
<!-- Node7&#45;&gt;Node5 -->
<g id="edge23" class="edge">
<title>Node7&#45;&gt;Node5</title>
<path fill="none" stroke="#9a32cd" stroke-dasharray="5,2" d="M73.7648,-418.4771C41.5132,-410.4353 0,-393.2398 0,-358 0,-358 0,-358 0,-145 0,-114.5482 215.3432,-89.2149 300.7234,-80.3674"/>
<polygon fill="#9a32cd" stroke="#9a32cd" points="73.3183,-421.9651 83.8463,-420.7777 74.8757,-415.1405 73.3183,-421.9651"/>
<text text-anchor="middle" x="20.5" y="-244" font-family="Helvetica,sans-Serif" font-size="10.00" fill="#000000"> fMother</text>
</g>
<!-- Node7&#45;&gt;Node6 -->
<g id="edge3" class="edge">
<title>Node7&#45;&gt;Node6</title>
<path fill="none" stroke="#191970" d="M135.3434,-409.7926C140.7539,-405.9242 146.2789,-401.5607 151,-397 186.6096,-362.6007 177.8607,-336.9861 218,-308 226.8152,-301.6342 251.6804,-293.6434 271.9142,-287.8294"/>
<polygon fill="#191970" stroke="#191970" points="133.368,-406.9033 127.0674,-415.4211 137.3046,-412.6916 133.368,-406.9033"/>
</g>
<!-- Node17 -->
<g id="node14" class="node">
<title>Node17</title>
<g id="a_node14"><a xlink:href="classTCollection.html" target="_top" xlink:title="Collection abstract base class. ">
<polygon fill="#ffffff" stroke="#000000" points="66.5,-270.5 66.5,-289.5 137.5,-289.5 137.5,-270.5 66.5,-270.5"/>
<text text-anchor="middle" x="102" y="-277.5" font-family="Helvetica,sans-Serif" font-size="10.00" fill="#000000">TCollection</text>
</a>
</g>
</g>
<!-- Node7&#45;&gt;Node17 -->
<g id="edge16" class="edge">
<title>Node7&#45;&gt;Node17</title>
<path fill="none" stroke="#191970" d="M127.3254,-407.7745C129.8751,-404.3962 132.2428,-400.7358 134,-397 151.0148,-360.8265 166.4137,-342.9447 147,-308 142.5314,-299.9565 134.6875,-293.9246 126.787,-289.56"/>
<polygon fill="#191970" stroke="#191970" points="124.61,-405.5654 120.8562,-415.473 129.9692,-410.0687 124.61,-405.5654"/>
</g>
<!-- Node18 -->
<g id="node15" class="node">
<title>Node18</title>
<g id="a_node15"><a xlink:href="classTObjectTable.html" target="_top" xlink:title="This class registers all instances of TObject and its derived classes in a hash table. ">
<polygon fill="#ffffff" stroke="#000000" points="38,-348.5 38,-367.5 118,-367.5 118,-348.5 38,-348.5"/>
<text text-anchor="middle" x="78" y="-355.5" font-family="Helvetica,sans-Serif" font-size="10.00" fill="#000000">TObjectTable</text>
</a>
</g>
</g>
<!-- Node7&#45;&gt;Node18 -->
<g id="edge18" class="edge">
<title>Node7&#45;&gt;Node18</title>
<path fill="none" stroke="#191970" d="M97.7369,-406.8635C95.6741,-403.66 93.675,-400.2941 92,-397 87.1089,-387.3813 83.1431,-375.6449 80.6974,-367.5749"/>
<polygon fill="#191970" stroke="#191970" points="94.9593,-409.0017 103.5027,-415.2675 100.7314,-405.0415 94.9593,-409.0017"/>
</g>
<!-- Node7&#45;&gt;Node18 -->
<g id="edge19" class="edge">
<title>Node7&#45;&gt;Node18</title>
<path fill="none" stroke="#9a32cd" stroke-dasharray="5,2" d="M101.7587,-406.2374C95.5646,-393.6614 87.6659,-377.6246 82.7193,-367.5817"/>
<polygon fill="#9a32cd" stroke="#9a32cd" points="98.7135,-407.9761 106.2719,-415.4005 104.9932,-404.8831 98.7135,-407.9761"/>
<text text-anchor="middle" x="113.5" y="-389" font-family="Helvetica,sans-Serif" font-size="10.00" fill="#000000"> fTable</text>
</g>
<!-- Node8 -->
<g id="node5" class="node">
<title>Node8</title>
<g id="a_node5"><a xlink:href="classTString.html" target="_top" xlink:title="Basic string class. ">
<polygon fill="#ffffff" stroke="#000000" points="275.5,-348.5 275.5,-367.5 326.5,-367.5 326.5,-348.5 275.5,-348.5"/>
<text text-anchor="middle" x="301" y="-355.5" font-family="Helvetica,sans-Serif" font-size="10.00" fill="#000000">TString</text>
</a>
</g>
</g>
<!-- Node8&#45;&gt;Node5 -->
<g id="edge9" class="edge">
<title>Node8&#45;&gt;Node5</title>
<path fill="none" stroke="#9a32cd" stroke-dasharray="5,2" d="M326.5363,-342.3706C331.1178,-338.7321 335.5309,-334.5685 339,-330 353.3766,-311.0672 358,-303.7726 358,-280 358,-280 358,-280 358,-145 358,-123.3151 347.3746,-99.6938 340.5677,-86.7863"/>
<polygon fill="#9a32cd" stroke="#9a32cd" points="324.3397,-339.6395 318.2753,-348.327 328.4337,-345.3175 324.3397,-339.6395"/>
<text text-anchor="middle" x="387" y="-210.5" font-family="Helvetica,sans-Serif" font-size="10.00" fill="#000000"> fPathBuffer</text>
</g>
<!-- Node8&#45;&gt;Node6 -->
<g id="edge4" class="edge">
<title>Node8&#45;&gt;Node6</title>
<path fill="none" stroke="#9a32cd" stroke-dasharray="5,2" d="M301,-338.2866C301,-322.7395 301,-301.7276 301,-289.6426"/>
<polygon fill="#9a32cd" stroke="#9a32cd" points="297.5001,-338.4356 301,-348.4357 304.5001,-338.4357 297.5001,-338.4356"/>
<text text-anchor="middle" x="318" y="-322" font-family="Helvetica,sans-Serif" font-size="10.00" fill="#000000"> fTitle</text>
<text text-anchor="middle" x="318" y="-311" font-family="Helvetica,sans-Serif" font-size="10.00" fill="#000000">fName</text>
</g>
<!-- Node8&#45;&gt;Node17 -->
<g id="edge20" class="edge">
<title>Node8&#45;&gt;Node17</title>
<path fill="none" stroke="#9a32cd" stroke-dasharray="5,2" d="M267.3578,-344.5281C242.0013,-334.4038 206.3556,-320.2343 175,-308 159.0668,-301.7832 141.1337,-294.9031 127.0291,-289.5186"/>
<polygon fill="#9a32cd" stroke="#9a32cd" points="266.2926,-347.8715 276.8775,-348.3321 268.8901,-341.3713 266.2926,-347.8715"/>
<text text-anchor="middle" x="249.5" y="-316.5" font-family="Helvetica,sans-Serif" font-size="10.00" fill="#000000"> fName</text>
</g>
<!-- Node9 -->
<g id="node6" class="node">
<title>Node9</title>
<g id="a_node6"><a xlink:href="structTString_1_1Rep__t.html" target="_top" xlink:title="TString::Rep_t">
<polygon fill="#ffffff" stroke="#000000" points="259,-415.5 259,-434.5 343,-434.5 343,-415.5 259,-415.5"/>
<text text-anchor="middle" x="301" y="-422.5" font-family="Helvetica,sans-Serif" font-size="10.00" fill="#000000">TString::Rep_t</text>
</a>
</g>
</g>
<!-- Node9&#45;&gt;Node8 -->
<g id="edge5" class="edge">
<title>Node9&#45;&gt;Node8</title>
<path fill="none" stroke="#9a32cd" stroke-dasharray="5,2" d="M301,-405.1079C301,-392.714 301,-377.3263 301,-367.5817"/>
<polygon fill="#9a32cd" stroke="#9a32cd" points="297.5001,-405.4005 301,-415.4005 304.5001,-405.4006 297.5001,-405.4005"/>
<text text-anchor="middle" x="313.5" y="-389" font-family="Helvetica,sans-Serif" font-size="10.00" fill="#000000"> fRep</text>
</g>
<!-- Node10 -->
<g id="node7" class="node">
<title>Node10</title>
<g id="a_node7"><a xlink:href="structTString_1_1LongStr__t.html" target="_top" xlink:title="TString::LongStr_t">
<polygon fill="#ffffff" stroke="#000000" points="129.5,-482.5 129.5,-501.5 232.5,-501.5 232.5,-482.5 129.5,-482.5"/>
<text text-anchor="middle" x="181" y="-489.5" font-family="Helvetica,sans-Serif" font-size="10.00" fill="#000000">TString::LongStr_t</text>
</a>
</g>
</g>
<!-- Node10&#45;&gt;Node9 -->
<g id="edge6" class="edge">
<title>Node10&#45;&gt;Node9</title>
<path fill="none" stroke="#9a32cd" stroke-dasharray="5,2" d="M207.1768,-477.3846C230.4489,-464.391 263.8033,-445.7681 283.8388,-434.5817"/>
<polygon fill="#9a32cd" stroke="#9a32cd" points="205.2181,-474.4696 198.1931,-482.4005 208.6306,-480.5815 205.2181,-474.4696"/>
<text text-anchor="middle" x="264.5" y="-456" font-family="Helvetica,sans-Serif" font-size="10.00" fill="#000000"> fLong</text>
</g>
<!-- Node11 -->
<g id="node8" class="node">
<title>Node11</title>
<g id="a_node8"><a xlink:href="structTString_1_1RawStr__t.html" target="_top" xlink:title="TString::RawStr_t">
<polygon fill="#ffffff" stroke="#000000" points="250.5,-482.5 250.5,-501.5 351.5,-501.5 351.5,-482.5 250.5,-482.5"/>
<text text-anchor="middle" x="301" y="-489.5" font-family="Helvetica,sans-Serif" font-size="10.00" fill="#000000">TString::RawStr_t</text>
</a>
</g>
</g>
<!-- Node11&#45;&gt;Node9 -->
<g id="edge7" class="edge">
<title>Node11&#45;&gt;Node9</title>
<path fill="none" stroke="#9a32cd" stroke-dasharray="5,2" d="M301,-472.1079C301,-459.714 301,-444.3263 301,-434.5817"/>
<polygon fill="#9a32cd" stroke="#9a32cd" points="297.5001,-472.4005 301,-482.4005 304.5001,-472.4006 297.5001,-472.4005"/>
<text text-anchor="middle" x="315" y="-456" font-family="Helvetica,sans-Serif" font-size="10.00" fill="#000000"> fRaw</text>
</g>
<!-- Node12 -->
<g id="node9" class="node">
<title>Node12</title>
<g id="a_node9"><a xlink:href="structTString_1_1ShortStr__t.html" target="_top" xlink:title="TString::ShortStr_t">
<polygon fill="#ffffff" stroke="#000000" points="369.5,-482.5 369.5,-501.5 474.5,-501.5 474.5,-482.5 369.5,-482.5"/>
<text text-anchor="middle" x="422" y="-489.5" font-family="Helvetica,sans-Serif" font-size="10.00" fill="#000000">TString::ShortStr_t</text>
</a>
</g>
</g>
<!-- Node12&#45;&gt;Node9 -->
<g id="edge8" class="edge">
<title>Node12&#45;&gt;Node9</title>
<path fill="none" stroke="#9a32cd" stroke-dasharray="5,2" d="M395.605,-477.3846C372.139,-464.391 338.5066,-445.7681 318.3042,-434.5817"/>
<polygon fill="#9a32cd" stroke="#9a32cd" points="394.2198,-480.6183 404.6637,-482.4005 397.6107,-474.4944 394.2198,-480.6183"/>
<text text-anchor="middle" x="385.5" y="-456" font-family="Helvetica,sans-Serif" font-size="10.00" fill="#000000"> fShort</text>
</g>
<!-- Node13 -->
<g id="node10" class="node">
<title>Node13</title>
<g id="a_node10"><a xlink:href="classTDirectory_1_1TContext.html" target="_top" xlink:title="TDirectory::TContext">
<polygon fill="#ffffff" stroke="#000000" points="386,-135.5 386,-154.5 502,-154.5 502,-135.5 386,-135.5"/>
<text text-anchor="middle" x="444" y="-142.5" font-family="Helvetica,sans-Serif" font-size="10.00" fill="#000000">TDirectory::TContext</text>
</a>
</g>
</g>
<!-- Node13&#45;&gt;Node5 -->
<g id="edge10" class="edge">
<title>Node13&#45;&gt;Node5</title>
<path fill="none" stroke="#9a32cd" stroke-dasharray="5,2" d="M419.8889,-129.9582C398.6287,-116.695 368.3001,-97.7744 350.2366,-86.5054"/>
<polygon fill="#9a32cd" stroke="#9a32cd" points="418.046,-132.9337 428.383,-135.2573 421.7512,-126.9947 418.046,-132.9337"/>
<text text-anchor="middle" x="420" y="-108" font-family="Helvetica,sans-Serif" font-size="10.00" fill="#000000"> fContext</text>
</g>
<!-- Node13&#45;&gt;Node13 -->
<g id="edge11" class="edge">
<title>Node13&#45;&gt;Node13</title>
<path fill="none" stroke="#9a32cd" stroke-dasharray="5,2" d="M512.4849,-149.6087C517.1585,-148.5492 520,-147.0129 520,-145 520,-141.7793 512.7258,-139.7789 502.3117,-138.9989"/>
<polygon fill="#9a32cd" stroke="#9a32cd" points="511.7447,-146.1773 502.3117,-151.0011 512.694,-153.1127 511.7447,-146.1773"/>
<text text-anchor="middle" x="543" y="-148" font-family="Helvetica,sans-Serif" font-size="10.00" fill="#000000"> fNext</text>
<text text-anchor="middle" x="543" y="-137" font-family="Helvetica,sans-Serif" font-size="10.00" fill="#000000">fPrevious</text>
</g>
<!-- Node14 -->
<g id="node11" class="node">
<title>Node14</title>
<g id="a_node11"><a xlink:href="classTUUID.html" target="_top" xlink:title="This class defines a UUID (Universally Unique IDentifier), also known as GUIDs (Globally Unique IDent...">
<polygon fill="#ffffff" stroke="#000000" points="584,-135.5 584,-154.5 632,-154.5 632,-135.5 584,-135.5"/>
<text text-anchor="middle" x="608" y="-142.5" font-family="Helvetica,sans-Serif" font-size="10.00" fill="#000000">TUUID</text>
</a>
</g>
</g>
<!-- Node14&#45;&gt;Node5 -->
<g id="edge12" class="edge">
<title>Node14&#45;&gt;Node5</title>
<path fill="none" stroke="#9a32cd" stroke-dasharray="5,2" d="M573.861,-133.8429C495.2718,-111.7318 413.8489,-93.6372 369.0285,-84.0867"/>
<polygon fill="#9a32cd" stroke="#9a32cd" points="573.3503,-137.3362 583.9261,-136.7016 575.2629,-130.6026 573.3503,-137.3362"/>
<text text-anchor="middle" x="518.5" y="-108" font-family="Helvetica,sans-Serif" font-size="10.00" fill="#000000"> fUUID</text>
</g>
<!-- Node15 -->
<g id="node12" class="node">
<title>Node15</title>
<g id="a_node12"><a xlink:href="classTList.html" target="_top" xlink:title="A doubly linked list. ">
<polygon fill="#ffffff" stroke="#000000" points="219,-135.5 219,-154.5 259,-154.5 259,-135.5 219,-135.5"/>
<text text-anchor="middle" x="239" y="-142.5" font-family="Helvetica,sans-Serif" font-size="10.00" fill="#000000">TList</text>
</a>
</g>
</g>
<!-- Node15&#45;&gt;Node5 -->
<g id="edge13" class="edge">
<title>Node15&#45;&gt;Node5</title>
<path fill="none" stroke="#9a32cd" stroke-dasharray="5,2" d="M251.4098,-127.122C257.3004,-119.5814 264.8353,-111.1458 273,-105 283.191,-97.3289 295.818,-91.1469 307.0119,-86.5628"/>
<polygon fill="#9a32cd" stroke="#9a32cd" points="248.441,-125.2501 245.3109,-135.372 254.0699,-129.4114 248.441,-125.2501"/>
<text text-anchor="middle" x="285.5" y="-108" font-family="Helvetica,sans-Serif" font-size="10.00" fill="#000000"> fList</text>
</g>
<!-- Node16 -->
<g id="node13" class="node">
<title>Node16</title>
<g id="a_node13"><a xlink:href="classTSeqCollection.html" target="_top" xlink:title="Sequenceable collection abstract base class. ">
<polygon fill="#ffffff" stroke="#000000" points="194.5,-203.5 194.5,-222.5 283.5,-222.5 283.5,-203.5 194.5,-203.5"/>
<text text-anchor="middle" x="239" y="-210.5" font-family="Helvetica,sans-Serif" font-size="10.00" fill="#000000">TSeqCollection</text>
</a>
</g>
</g>
<!-- Node16&#45;&gt;Node15 -->
<g id="edge14" class="edge">
<title>Node16&#45;&gt;Node15</title>
<path fill="none" stroke="#191970" d="M239,-193.1951C239,-180.5514 239,-164.7157 239,-154.7247"/>
<polygon fill="#191970" stroke="#191970" points="235.5001,-193.2572 239,-203.2573 242.5001,-193.2573 235.5001,-193.2572"/>
</g>
<!-- Node17&#45;&gt;Node16 -->
<g id="edge15" class="edge">
<title>Node17&#45;&gt;Node16</title>
<path fill="none" stroke="#191970" d="M130.8286,-265.9013C157.436,-252.889 196.2288,-233.9173 219.4077,-222.5817"/>
<polygon fill="#191970" stroke="#191970" points="129.0744,-262.8631 121.6288,-270.4005 132.1497,-269.1513 129.0744,-262.8631"/>
</g>
<!-- Node17&#45;&gt;Node17 -->
<g id="edge21" class="edge">
<title>Node17&#45;&gt;Node17</title>
<path fill="none" stroke="#9a32cd" stroke-dasharray="5,2" d="M147.7805,-284.9469C152.4895,-283.9732 155.5,-282.3242 155.5,-280 155.5,-276.2813 147.7932,-274.2911 137.7532,-274.0297"/>
<polygon fill="#9a32cd" stroke="#9a32cd" points="147.3461,-281.473 137.7532,-285.9703 148.0569,-288.4368 147.3461,-281.473"/>
<text text-anchor="middle" x="204.5" y="-277.5" font-family="Helvetica,sans-Serif" font-size="10.00" fill="#000000"> fgCurrentCollection</text>
</g>
<!-- Node18&#45;&gt;Node17 -->
<g id="edge17" class="edge">
<title>Node18&#45;&gt;Node17</title>
<path fill="none" stroke="#9a32cd" stroke-dasharray="5,2" d="M53.0578,-342.0555C49.3884,-338.5511 46.1315,-334.5166 44,-330 39.827,-321.1574 38.8019,-316.2816 44,-308 49.231,-299.666 57.7192,-293.7531 66.6072,-289.5814"/>
<polygon fill="#9a32cd" stroke="#9a32cd" points="50.9802,-344.8776 60.9406,-348.4889 55.4063,-339.4544 50.9802,-344.8776"/>
<text text-anchor="middle" x="95.5" y="-316.5" font-family="Helvetica,sans-Serif" font-size="10.00" fill="#000000"> fgGarbageCollection</text>
</g>
<!-- Node19 -->
<g id="node16" class="node">
<title>Node19</title>
<polygon fill="#ffffff" stroke="#bfbfbf" points="28,-203.5 28,-222.5 176,-222.5 176,-203.5 28,-203.5"/>
<text text-anchor="middle" x="102" y="-210.5" font-family="Helvetica,sans-Serif" font-size="10.00" fill="#000000">std::weak_ptr&lt; TObjLink &gt;</text>
</g>
<!-- Node19&#45;&gt;Node15 -->
<g id="edge22" class="edge">
<title>Node19&#45;&gt;Node15</title>
<path fill="none" stroke="#9a32cd" stroke-dasharray="5,2" d="M130.5757,-198.8164C157.3246,-185.5396 196.5508,-166.0697 219.7602,-154.5497"/>
<polygon fill="#9a32cd" stroke="#9a32cd" points="128.7394,-195.8204 121.3382,-203.4015 131.8516,-202.0905 128.7394,-195.8204"/>
<text text-anchor="middle" x="197.5" y="-177" font-family="Helvetica,sans-Serif" font-size="10.00" fill="#000000"> fCache</text>
</g>
</g>
</svg>
