<?xml version="1.0" encoding="UTF-8" standalone="no"?>
<!DOCTYPE svg PUBLIC "-//W3C//DTD SVG 1.1//EN"
 "http://www.w3.org/Graphics/SVG/1.1/DTD/svg11.dtd">
<!-- Generated by graphviz version 2.40.1 (0)
 -->
<!-- Title: ClassSelectionRule Pages: 1 -->
<svg width="797pt" height="200pt"
 viewBox="0.00 0.00 797.00 199.50" xmlns="http://www.w3.org/2000/svg" xmlns:xlink="http://www.w3.org/1999/xlink">
<g id="graph0" class="graph" transform="scale(1 1) rotate(0) translate(4 195.5)">
<title>ClassSelectionRule</title>
<polygon fill="#ffffff" stroke="transparent" points="-4,4 -4,-195.5 793,-195.5 793,4 -4,4"/>
<!-- Node2 -->
<g id="node1" class="node">
<title>Node2</title>
<polygon fill="#bfbfbf" stroke="#000000" points="680,-24 680,-43 789,-43 789,-24 680,-24"/>
<text text-anchor="middle" x="734.5" y="-31" font-family="Helvetica,sans-Serif" font-size="10.00" fill="#000000">ClassSelectionRule</text>
</g>
<!-- Node3 -->
<g id="node2" class="node">
<title>Node3</title>
<g id="a_node2"><a xlink:href="classBaseSelectionRule.html" target="_top" xlink:title="BaseSelectionRule">
<polygon fill="#ffffff" stroke="#000000" points="404,-50 404,-69 511,-69 511,-50 404,-50"/>
<text text-anchor="middle" x="457.5" y="-57" font-family="Helvetica,sans-Serif" font-size="10.00" fill="#000000">BaseSelectionRule</text>
</a>
</g>
</g>
<!-- Node3&#45;&gt;Node2 -->
<g id="edge1" class="edge">
<title>Node3&#45;&gt;Node2</title>
<path fill="none" stroke="#191970" d="M521.3215,-54.2475C561.6752,-50.836 614.9179,-46.1691 662,-41.5 667.7966,-40.9251 673.851,-40.2986 679.8832,-39.6574"/>
<polygon fill="#191970" stroke="#191970" points="521.0224,-50.7602 511.3514,-55.087 521.6098,-57.7355 521.0224,-50.7602"/>
</g>
<!-- Node4 -->
<g id="node3" class="node">
<title>Node4</title>
<polygon fill="#ffffff" stroke="#bfbfbf" points="146,-150 146,-191 260,-191 260,-150 146,-150"/>
<text text-anchor="start" x="154" y="-179" font-family="Helvetica,sans-Serif" font-size="10.00" fill="#000000">std::unordered_map</text>
<text text-anchor="start" x="154" y="-168" font-family="Helvetica,sans-Serif" font-size="10.00" fill="#000000">&lt; std::string, std::</text>
<text text-anchor="middle" x="203" y="-157" font-family="Helvetica,sans-Serif" font-size="10.00" fill="#000000">string &gt;</text>
</g>
<!-- Node4&#45;&gt;Node3 -->
<g id="edge2" class="edge">
<title>Node4&#45;&gt;Node3</title>
<path fill="none" stroke="#9a32cd" stroke-dasharray="5,2" d="M270.2693,-170.714C300.4982,-168.5043 335.8462,-162.6026 365,-148.5 404.1199,-129.5765 437.313,-87.8426 450.9105,-69.0282"/>
<polygon fill="#9a32cd" stroke="#9a32cd" points="269.9978,-167.224 260.2303,-171.3283 270.4255,-174.2109 269.9978,-167.224"/>
<text text-anchor="middle" x="324" y="-171.5" font-family="Helvetica,sans-Serif" font-size="10.00" fill="#000000"> fAttributes</text>
</g>
<!-- Node5 -->
<g id="node4" class="node">
<title>Node5</title>
<g id="a_node4"><a xlink:title="STL class. ">
<polygon fill="#ffffff" stroke="#bfbfbf" points="170.5,-50 170.5,-69 235.5,-69 235.5,-50 170.5,-50"/>
<text text-anchor="middle" x="203" y="-57" font-family="Helvetica,sans-Serif" font-size="10.00" fill="#000000">std::string</text>
</a>
</g>
</g>
<!-- Node5&#45;&gt;Node3 -->
<g id="edge3" class="edge">
<title>Node5&#45;&gt;Node3</title>
<path fill="none" stroke="#9a32cd" stroke-dasharray="5,2" d="M245.9789,-59.5C289.3898,-59.5 356.5724,-59.5 403.5417,-59.5"/>
<polygon fill="#9a32cd" stroke="#9a32cd" points="245.7504,-56.0001 235.7504,-59.5 245.7504,-63.0001 245.7504,-56.0001"/>
<text text-anchor="middle" x="324" y="-139.5" font-family="Helvetica,sans-Serif" font-size="10.00" fill="#000000"> fFilePattern</text>
<text text-anchor="middle" x="324" y="-128.5" font-family="Helvetica,sans-Serif" font-size="10.00" fill="#000000">fPattern</text>
<text text-anchor="middle" x="324" y="-117.5" font-family="Helvetica,sans-Serif" font-size="10.00" fill="#000000">fNArgsToKeep</text>
<text text-anchor="middle" x="324" y="-106.5" font-family="Helvetica,sans-Serif" font-size="10.00" fill="#000000">fSelFileName</text>
<text text-anchor="middle" x="324" y="-95.5" font-family="Helvetica,sans-Serif" font-size="10.00" fill="#000000">fFileName</text>
<text text-anchor="middle" x="324" y="-84.5" font-family="Helvetica,sans-Serif" font-size="10.00" fill="#000000">fName</text>
<text text-anchor="middle" x="324" y="-73.5" font-family="Helvetica,sans-Serif" font-size="10.00" fill="#000000">fProtoPattern</text>
<text text-anchor="middle" x="324" y="-62.5" font-family="Helvetica,sans-Serif" font-size="10.00" fill="#000000">fProtoName</text>
</g>
<!-- Node6 -->
<g id="node5" class="node">
<title>Node6</title>
<polygon fill="#ffffff" stroke="#bfbfbf" points="0,-44.5 0,-74.5 104,-74.5 104,-44.5 0,-44.5"/>
<text text-anchor="start" x="8" y="-62.5" font-family="Helvetica,sans-Serif" font-size="10.00" fill="#000000">std::basic_string&lt;</text>
<text text-anchor="middle" x="52" y="-51.5" font-family="Helvetica,sans-Serif" font-size="10.00" fill="#000000"> char &gt;</text>
</g>
<!-- Node6&#45;&gt;Node5 -->
<g id="edge4" class="edge">
<title>Node6&#45;&gt;Node5</title>
<path fill="none" stroke="#191970" d="M114.6039,-59.5C133.8121,-59.5 154.168,-59.5 170.498,-59.5"/>
<polygon fill="#191970" stroke="#191970" points="114.3887,-56.0001 104.3887,-59.5 114.3887,-63.0001 114.3887,-56.0001"/>
</g>
<!-- Node7 -->
<g id="node6" class="node">
<title>Node7</title>
<polygon fill="#ffffff" stroke="#bfbfbf" points="141,-5 141,-24 265,-24 265,-5 141,-5"/>
<text text-anchor="middle" x="203" y="-12" font-family="Helvetica,sans-Serif" font-size="10.00" fill="#000000">std::list&lt; std::string &gt;</text>
</g>
<!-- Node7&#45;&gt;Node3 -->
<g id="edge5" class="edge">
<title>Node7&#45;&gt;Node3</title>
<path fill="none" stroke="#9a32cd" stroke-dasharray="5,2" d="M275.405,-19.0334C303.6501,-21.8278 336.12,-26.3155 365,-33.5 373.3298,-35.5722 374.8263,-37.879 383,-40.5 393.6769,-43.9236 405.3682,-47.1462 416.2586,-49.931"/>
<polygon fill="#9a32cd" stroke="#9a32cd" points="275.4871,-15.5259 265.2045,-18.0787 274.8347,-22.4954 275.4871,-15.5259"/>
<text text-anchor="middle" x="324" y="-47.5" font-family="Helvetica,sans-Serif" font-size="10.00" fill="#000000"> fFileSubPatterns</text>
<text text-anchor="middle" x="324" y="-36.5" font-family="Helvetica,sans-Serif" font-size="10.00" fill="#000000">fSubPatterns</text>
</g>
<!-- Node8 -->
<g id="node7" class="node">
<title>Node8</title>
<polygon fill="#ffffff" stroke="#bfbfbf" points="383,-.5 383,-30.5 532,-30.5 532,-.5 383,-.5"/>
<text text-anchor="start" x="391" y="-18.5" font-family="Helvetica,sans-Serif" font-size="10.00" fill="#000000">std::list&lt; VariableSelection</text>
<text text-anchor="middle" x="457.5" y="-7.5" font-family="Helvetica,sans-Serif" font-size="10.00" fill="#000000">Rule &gt;</text>
</g>
<!-- Node8&#45;&gt;Node2 -->
<g id="edge6" class="edge">
<title>Node8&#45;&gt;Node2</title>
<path fill="none" stroke="#9a32cd" stroke-dasharray="5,2" d="M542.2153,-13.914C579.1025,-14.0599 622.7806,-15.3606 662,-19.5 671.6889,-20.5226 682.0148,-22.1719 691.7455,-23.9857"/>
<polygon fill="#9a32cd" stroke="#9a32cd" points="542.0047,-10.4138 532.0006,-13.902 541.9965,-17.4138 542.0047,-10.4138"/>
<text text-anchor="middle" x="606" y="-33.5" font-family="Helvetica,sans-Serif" font-size="10.00" fill="#000000"> fFieldSelectionRules</text>
<text text-anchor="middle" x="606" y="-22.5" font-family="Helvetica,sans-Serif" font-size="10.00" fill="#000000">fMethodSelectionRules</text>
</g>
</g>
</svg>
