<?xml version="1.0" encoding="UTF-8" standalone="no"?>
<!DOCTYPE svg PUBLIC "-//W3C//DTD SVG 1.1//EN"
 "http://www.w3.org/Graphics/SVG/1.1/DTD/svg11.dtd">
<!-- Generated by graphviz version 2.40.1 (0)
 -->
<!-- Title: ROOT::Internal::TBranchDescriptor Pages: 1 -->
<svg width="383pt" height="396pt"
 viewBox="0.00 0.00 383.00 396.00" xmlns="http://www.w3.org/2000/svg" xmlns:xlink="http://www.w3.org/1999/xlink">
<g id="graph0" class="graph" transform="scale(1 1) rotate(0) translate(4 392)">
<title>ROOT::Internal::TBranchDescriptor</title>
<polygon fill="#ffffff" stroke="transparent" points="-4,4 -4,-392 379,-392 379,4 -4,4"/>
<!-- Node3 -->
<g id="node1" class="node">
<title>Node3</title>
<polygon fill="#bfbfbf" stroke="#000000" points="0,-.5 0,-19.5 183,-19.5 183,-.5 0,-.5"/>
<text text-anchor="middle" x="91.5" y="-7.5" font-family="Helvetica,sans-Serif" font-size="10.00" fill="#000000">ROOT::Internal::TBranchDescriptor</text>
</g>
<!-- Node3&#45;&gt;Node3 -->
<g id="edge12" class="edge">
<title>Node3&#45;&gt;Node3</title>
<path fill="none" stroke="#9a32cd" stroke-dasharray="5,2" d="M193.287,-13.8066C198.147,-12.8504 201,-11.5815 201,-10 201,-7.5313 194.0482,-5.8243 183.3625,-4.8793"/>
<polygon fill="#9a32cd" stroke="#9a32cd" points="192.8166,-10.3383 183.3625,-15.1207 193.7355,-17.2777 192.8166,-10.3383"/>
<text text-anchor="middle" x="220" y="-7.5" font-family="Helvetica,sans-Serif" font-size="10.00" fill="#000000"> fParent</text>
</g>
<!-- Node4 -->
<g id="node2" class="node">
<title>Node4</title>
<g id="a_node2"><a xlink:href="classTNamed.html" target="_top" xlink:title="The TNamed class is the base class for all named ROOT classes. ">
<polygon fill="#ffffff" stroke="#000000" points="62.5,-156.5 62.5,-175.5 120.5,-175.5 120.5,-156.5 62.5,-156.5"/>
<text text-anchor="middle" x="91.5" y="-163.5" font-family="Helvetica,sans-Serif" font-size="10.00" fill="#000000">TNamed</text>
</a>
</g>
</g>
<!-- Node4&#45;&gt;Node3 -->
<g id="edge1" class="edge">
<title>Node4&#45;&gt;Node3</title>
<path fill="none" stroke="#191970" d="M70.7011,-149.7011C54.0993,-135.2632 32.088,-112.5528 22.5,-87 11.5276,-57.7577 47.3471,-32.6945 71.4197,-19.6387"/>
<polygon fill="#191970" stroke="#191970" points="68.8783,-152.7393 78.7952,-156.4684 73.3683,-147.3689 68.8783,-152.7393"/>
</g>
<!-- Node11 -->
<g id="node9" class="node">
<title>Node11</title>
<g id="a_node9"><a xlink:href="classTVirtualStreamerInfo.html" target="_top" xlink:title="Abstract Interface class describing Streamer information for one class. ">
<polygon fill="#ffffff" stroke="#000000" points="32,-67.5 32,-86.5 151,-86.5 151,-67.5 32,-67.5"/>
<text text-anchor="middle" x="91.5" y="-74.5" font-family="Helvetica,sans-Serif" font-size="10.00" fill="#000000">TVirtualStreamerInfo</text>
</a>
</g>
</g>
<!-- Node4&#45;&gt;Node11 -->
<g id="edge10" class="edge">
<title>Node4&#45;&gt;Node11</title>
<path fill="none" stroke="#191970" d="M91.5,-146.2379C91.5,-127.7654 91.5,-100.957 91.5,-86.7259"/>
<polygon fill="#191970" stroke="#191970" points="88.0001,-146.4754 91.5,-156.4754 95.0001,-146.4755 88.0001,-146.4754"/>
</g>
<!-- Node5 -->
<g id="node3" class="node">
<title>Node5</title>
<g id="a_node3"><a xlink:href="classTObject.html" target="_top" xlink:title="Mother of all ROOT objects. ">
<polygon fill="#ffffff" stroke="#000000" points="64.5,-234.5 64.5,-253.5 118.5,-253.5 118.5,-234.5 64.5,-234.5"/>
<text text-anchor="middle" x="91.5" y="-241.5" font-family="Helvetica,sans-Serif" font-size="10.00" fill="#000000">TObject</text>
</a>
</g>
</g>
<!-- Node5&#45;&gt;Node4 -->
<g id="edge2" class="edge">
<title>Node5&#45;&gt;Node4</title>
<path fill="none" stroke="#191970" d="M91.5,-224.2866C91.5,-208.7395 91.5,-187.7276 91.5,-175.6426"/>
<polygon fill="#191970" stroke="#191970" points="88.0001,-224.4356 91.5,-234.4357 95.0001,-224.4357 88.0001,-224.4356"/>
</g>
<!-- Node6 -->
<g id="node4" class="node">
<title>Node6</title>
<g id="a_node4"><a xlink:href="classTString.html" target="_top" xlink:title="Basic string class. ">
<polygon fill="#ffffff" stroke="#000000" points="176,-234.5 176,-253.5 227,-253.5 227,-234.5 176,-234.5"/>
<text text-anchor="middle" x="201.5" y="-241.5" font-family="Helvetica,sans-Serif" font-size="10.00" fill="#000000">TString</text>
</a>
</g>
</g>
<!-- Node6&#45;&gt;Node3 -->
<g id="edge8" class="edge">
<title>Node6&#45;&gt;Node3</title>
<path fill="none" stroke="#9a32cd" stroke-dasharray="5,2" d="M214.905,-225.6741C238.1384,-191.4737 280.2272,-116.8832 245.5,-67 232.2249,-47.9312 173.4215,-30.0369 132.4492,-19.5522"/>
<polygon fill="#9a32cd" stroke="#9a32cd" points="211.8058,-223.9977 208.9314,-234.1952 217.5377,-228.0159 211.8058,-223.9977"/>
<text text-anchor="middle" x="300.5" y="-130" font-family="Helvetica,sans-Serif" font-size="10.00" fill="#000000"> fContainerName</text>
<text text-anchor="middle" x="300.5" y="-119" font-family="Helvetica,sans-Serif" font-size="10.00" fill="#000000">fSubBranchPrefix</text>
<text text-anchor="middle" x="300.5" y="-108" font-family="Helvetica,sans-Serif" font-size="10.00" fill="#000000">fBranchName</text>
</g>
<!-- Node6&#45;&gt;Node4 -->
<g id="edge3" class="edge">
<title>Node6&#45;&gt;Node4</title>
<path fill="none" stroke="#9a32cd" stroke-dasharray="5,2" d="M179.8486,-228.6472C157.6462,-212.9036 123.7962,-188.9009 105.0985,-175.6426"/>
<polygon fill="#9a32cd" stroke="#9a32cd" points="177.83,-231.5064 188.0118,-234.4357 181.879,-225.7963 177.83,-231.5064"/>
<text text-anchor="middle" x="177.5" y="-208" font-family="Helvetica,sans-Serif" font-size="10.00" fill="#000000"> fTitle</text>
<text text-anchor="middle" x="177.5" y="-197" font-family="Helvetica,sans-Serif" font-size="10.00" fill="#000000">fName</text>
</g>
<!-- Node7 -->
<g id="node5" class="node">
<title>Node7</title>
<g id="a_node5"><a xlink:href="structTString_1_1Rep__t.html" target="_top" xlink:title="TString::Rep_t">
<polygon fill="#ffffff" stroke="#000000" points="159.5,-301.5 159.5,-320.5 243.5,-320.5 243.5,-301.5 159.5,-301.5"/>
<text text-anchor="middle" x="201.5" y="-308.5" font-family="Helvetica,sans-Serif" font-size="10.00" fill="#000000">TString::Rep_t</text>
</a>
</g>
</g>
<!-- Node7&#45;&gt;Node6 -->
<g id="edge4" class="edge">
<title>Node7&#45;&gt;Node6</title>
<path fill="none" stroke="#9a32cd" stroke-dasharray="5,2" d="M201.5,-291.1079C201.5,-278.714 201.5,-263.3263 201.5,-253.5817"/>
<polygon fill="#9a32cd" stroke="#9a32cd" points="198.0001,-291.4005 201.5,-301.4005 205.0001,-291.4006 198.0001,-291.4005"/>
<text text-anchor="middle" x="214" y="-275" font-family="Helvetica,sans-Serif" font-size="10.00" fill="#000000"> fRep</text>
</g>
<!-- Node8 -->
<g id="node6" class="node">
<title>Node8</title>
<g id="a_node6"><a xlink:href="structTString_1_1LongStr__t.html" target="_top" xlink:title="TString::LongStr_t">
<polygon fill="#ffffff" stroke="#000000" points="30,-368.5 30,-387.5 133,-387.5 133,-368.5 30,-368.5"/>
<text text-anchor="middle" x="81.5" y="-375.5" font-family="Helvetica,sans-Serif" font-size="10.00" fill="#000000">TString::LongStr_t</text>
</a>
</g>
</g>
<!-- Node8&#45;&gt;Node7 -->
<g id="edge5" class="edge">
<title>Node8&#45;&gt;Node7</title>
<path fill="none" stroke="#9a32cd" stroke-dasharray="5,2" d="M107.6768,-363.3846C130.9489,-350.391 164.3033,-331.7681 184.3388,-320.5817"/>
<polygon fill="#9a32cd" stroke="#9a32cd" points="105.7181,-360.4696 98.6931,-368.4005 109.1306,-366.5815 105.7181,-360.4696"/>
<text text-anchor="middle" x="165" y="-342" font-family="Helvetica,sans-Serif" font-size="10.00" fill="#000000"> fLong</text>
</g>
<!-- Node9 -->
<g id="node7" class="node">
<title>Node9</title>
<g id="a_node7"><a xlink:href="structTString_1_1RawStr__t.html" target="_top" xlink:title="TString::RawStr_t">
<polygon fill="#ffffff" stroke="#000000" points="151,-368.5 151,-387.5 252,-387.5 252,-368.5 151,-368.5"/>
<text text-anchor="middle" x="201.5" y="-375.5" font-family="Helvetica,sans-Serif" font-size="10.00" fill="#000000">TString::RawStr_t</text>
</a>
</g>
</g>
<!-- Node9&#45;&gt;Node7 -->
<g id="edge6" class="edge">
<title>Node9&#45;&gt;Node7</title>
<path fill="none" stroke="#9a32cd" stroke-dasharray="5,2" d="M201.5,-358.1079C201.5,-345.714 201.5,-330.3263 201.5,-320.5817"/>
<polygon fill="#9a32cd" stroke="#9a32cd" points="198.0001,-358.4005 201.5,-368.4005 205.0001,-358.4006 198.0001,-358.4005"/>
<text text-anchor="middle" x="215.5" y="-342" font-family="Helvetica,sans-Serif" font-size="10.00" fill="#000000"> fRaw</text>
</g>
<!-- Node10 -->
<g id="node8" class="node">
<title>Node10</title>
<g id="a_node8"><a xlink:href="structTString_1_1ShortStr__t.html" target="_top" xlink:title="TString::ShortStr_t">
<polygon fill="#ffffff" stroke="#000000" points="270,-368.5 270,-387.5 375,-387.5 375,-368.5 270,-368.5"/>
<text text-anchor="middle" x="322.5" y="-375.5" font-family="Helvetica,sans-Serif" font-size="10.00" fill="#000000">TString::ShortStr_t</text>
</a>
</g>
</g>
<!-- Node10&#45;&gt;Node7 -->
<g id="edge7" class="edge">
<title>Node10&#45;&gt;Node7</title>
<path fill="none" stroke="#9a32cd" stroke-dasharray="5,2" d="M296.105,-363.3846C272.639,-350.391 239.0066,-331.7681 218.8042,-320.5817"/>
<polygon fill="#9a32cd" stroke="#9a32cd" points="294.7198,-366.6183 305.1637,-368.4005 298.1107,-360.4944 294.7198,-366.6183"/>
<text text-anchor="middle" x="285" y="-342" font-family="Helvetica,sans-Serif" font-size="10.00" fill="#000000"> fShort</text>
</g>
<!-- Node11&#45;&gt;Node3 -->
<g id="edge9" class="edge">
<title>Node11&#45;&gt;Node3</title>
<path fill="none" stroke="#9a32cd" stroke-dasharray="5,2" d="M91.5,-57.1079C91.5,-44.714 91.5,-29.3263 91.5,-19.5817"/>
<polygon fill="#9a32cd" stroke="#9a32cd" points="88.0001,-57.4005 91.5,-67.4005 95.0001,-57.4006 88.0001,-57.4005"/>
<text text-anchor="middle" x="104.5" y="-41" font-family="Helvetica,sans-Serif" font-size="10.00" fill="#000000"> fInfo</text>
</g>
<!-- Node11&#45;&gt;Node11 -->
<g id="edge11" class="edge">
<title>Node11&#45;&gt;Node11</title>
<path fill="none" stroke="#9a32cd" stroke-dasharray="5,2" d="M161.4834,-81.3066C166.1619,-80.3105 169,-78.875 169,-77 169,-74 161.7344,-72.125 151.29,-71.375"/>
<polygon fill="#9a32cd" stroke="#9a32cd" points="160.7585,-77.8712 151.29,-82.625 161.6564,-84.8133 160.7585,-77.8712"/>
<text text-anchor="middle" x="202.5" y="-74.5" font-family="Helvetica,sans-Serif" font-size="10.00" fill="#000000"> fgInfoFactory</text>
</g>
</g>
</svg>
