<?xml version="1.0" encoding="UTF-8" standalone="no"?>
<!DOCTYPE svg PUBLIC "-//W3C//DTD SVG 1.1//EN"
 "http://www.w3.org/Graphics/SVG/1.1/DTD/svg11.dtd">
<!-- Generated by graphviz version 2.40.1 (0)
 -->
<!-- Title: G Pages: 1 -->
<svg width="202pt" height="1556pt"
 viewBox="0.00 0.00 202.00 1556.00" xmlns="http://www.w3.org/2000/svg" xmlns:xlink="http://www.w3.org/1999/xlink">
<g id="graph0" class="graph" transform="scale(1 1) rotate(0) translate(4 1552)">
<title>G</title>
<polygon fill="#ffffff" stroke="transparent" points="-4,4 -4,-1552 198,-1552 198,4 -4,4"/>
<!-- mainlib -->
<g id="node1" class="node">
<title>mainlib</title>
<polygon fill="#abacba" stroke="#000000" points="59,-792 0,-792 0,-756 59,-756 59,-792"/>
<text text-anchor="middle" x="29.5" y="-770.3" font-family="Arial" font-size="14.00" fill="#000000">libRGL</text>
</g>
<!-- libGLU -->
<g id="node2" class="node">
<title>libGLU</title>
<polygon fill="none" stroke="#000000" points="173.5,-1548 115.5,-1548 115.5,-1512 173.5,-1512 173.5,-1548"/>
<text text-anchor="middle" x="144.5" y="-1526.3" font-family="Arial" font-size="14.00" fill="#000000">libGLU</text>
</g>
<!-- mainlib&#45;&gt;libGLU -->
<g id="edge1" class="edge">
<title>mainlib&#45;&gt;libGLU</title>
<path fill="none" stroke="#000000" d="M30.1125,-792.0881C33.8526,-898.6231 54.7948,-1441.7045 95,-1503 98.0536,-1507.6554 102.1936,-1511.5749 106.7866,-1514.8558"/>
<polygon fill="#000000" stroke="#000000" points="105.0427,-1517.8915 115.4064,-1520.0925 108.6772,-1511.909 105.0427,-1517.8915"/>
</g>
<!-- libGLEW -->
<g id="node3" class="node">
<title>libGLEW</title>
<polygon fill="none" stroke="#000000" points="180,-1494 109,-1494 109,-1458 180,-1458 180,-1494"/>
<text text-anchor="middle" x="144.5" y="-1472.3" font-family="Arial" font-size="14.00" fill="#000000">libGLEW</text>
</g>
<!-- mainlib&#45;&gt;libGLEW -->
<g id="edge2" class="edge">
<title>mainlib&#45;&gt;libGLEW</title>
<path fill="none" stroke="#000000" d="M30.2485,-792.0564C34.5962,-893.7613 57.7083,-1392.5857 95,-1449 96.6194,-1451.4498 98.5391,-1453.6963 100.6664,-1455.7534"/>
<polygon fill="#000000" stroke="#000000" points="98.5601,-1458.5502 108.5643,-1462.0382 102.9187,-1453.0728 98.5601,-1458.5502"/>
</g>
<!-- libFTGL -->
<g id="node4" class="node">
<title>libFTGL</title>
<polygon fill="none" stroke="#000000" points="177,-1440 112,-1440 112,-1404 177,-1404 177,-1440"/>
<text text-anchor="middle" x="144.5" y="-1418.3" font-family="Arial" font-size="14.00" fill="#000000">libFTGL</text>
</g>
<!-- mainlib&#45;&gt;libFTGL -->
<g id="edge3" class="edge">
<title>mainlib&#45;&gt;libFTGL</title>
<path fill="none" stroke="#000000" d="M30.4154,-792.1749C35.4331,-889.1834 60.634,-1343.4806 95,-1395 97.3528,-1398.5272 100.3264,-1401.6337 103.6434,-1404.3609"/>
<polygon fill="#000000" stroke="#000000" points="101.6604,-1407.245 111.8757,-1410.0557 105.6428,-1401.4882 101.6604,-1407.245"/>
</g>
<!-- libSM -->
<g id="node5" class="node">
<title>libSM</title>
<polygon fill="none" stroke="#000000" points="171.5,-1386 117.5,-1386 117.5,-1350 171.5,-1350 171.5,-1386"/>
<text text-anchor="middle" x="144.5" y="-1364.3" font-family="Arial" font-size="14.00" fill="#000000">libSM</text>
</g>
<!-- mainlib&#45;&gt;libSM -->
<g id="edge4" class="edge">
<title>mainlib&#45;&gt;libSM</title>
<path fill="none" stroke="#000000" d="M30.602,-792.0812C36.3168,-883.718 63.5278,-1294.3222 95,-1341 98.4357,-1346.0956 103.1633,-1350.3158 108.3425,-1353.7834"/>
<polygon fill="#000000" stroke="#000000" points="106.9191,-1357.0014 117.3368,-1358.9305 110.3959,-1350.9259 106.9191,-1357.0014"/>
</g>
<!-- libICE -->
<g id="node6" class="node">
<title>libICE</title>
<polygon fill="none" stroke="#000000" points="171.5,-1332 117.5,-1332 117.5,-1296 171.5,-1296 171.5,-1332"/>
<text text-anchor="middle" x="144.5" y="-1310.3" font-family="Arial" font-size="14.00" fill="#000000">libICE</text>
</g>
<!-- mainlib&#45;&gt;libICE -->
<g id="edge5" class="edge">
<title>mainlib&#45;&gt;libICE</title>
<path fill="none" stroke="#000000" d="M29.6559,-792.1505C30.6726,-873.4744 38.2843,-1203.9602 95,-1287 98.4662,-1292.0749 103.2093,-1296.2846 108.3946,-1299.7481"/>
<polygon fill="#000000" stroke="#000000" points="106.973,-1302.967 117.3912,-1304.8936 110.4483,-1296.8906 106.973,-1302.967"/>
</g>
<!-- libX11 -->
<g id="node7" class="node">
<title>libX11</title>
<polygon fill="none" stroke="#000000" points="171.5,-1278 117.5,-1278 117.5,-1242 171.5,-1242 171.5,-1278"/>
<text text-anchor="middle" x="144.5" y="-1256.3" font-family="Arial" font-size="14.00" fill="#000000">libX11</text>
</g>
<!-- mainlib&#45;&gt;libX11 -->
<g id="edge6" class="edge">
<title>mainlib&#45;&gt;libX11</title>
<path fill="none" stroke="#000000" d="M29.9638,-792.2539C32.2133,-868.3263 44.0643,-1159.5913 95,-1233 98.5035,-1238.0492 103.2656,-1242.2458 108.4584,-1245.7042"/>
<polygon fill="#000000" stroke="#000000" points="107.039,-1248.9242 117.4578,-1250.8478 110.5126,-1242.8468 107.039,-1248.9242"/>
</g>
<!-- libXext -->
<g id="node8" class="node">
<title>libXext</title>
<polygon fill="none" stroke="#000000" points="172.5,-1224 116.5,-1224 116.5,-1188 172.5,-1188 172.5,-1224"/>
<text text-anchor="middle" x="144.5" y="-1202.3" font-family="Arial" font-size="14.00" fill="#000000">libXext</text>
</g>
<!-- mainlib&#45;&gt;libXext -->
<g id="edge7" class="edge">
<title>mainlib&#45;&gt;libXext</title>
<path fill="none" stroke="#000000" d="M30.3609,-792.4601C33.969,-863.0602 49.8417,-1115.1927 95,-1179 98.287,-1183.6444 102.6332,-1187.5717 107.3881,-1190.868"/>
<polygon fill="#000000" stroke="#000000" points="105.8643,-1194.034 116.248,-1196.1388 109.4432,-1188.0181 105.8643,-1194.034"/>
</g>
<!-- libGed -->
<g id="node9" class="node">
<title>libGed</title>
<polygon fill="none" stroke="#000000" points="172.5,-1170 116.5,-1170 116.5,-1134 172.5,-1134 172.5,-1170"/>
<text text-anchor="middle" x="144.5" y="-1148.3" font-family="Arial" font-size="14.00" fill="#000000">libGed</text>
</g>
<!-- mainlib&#45;&gt;libGed -->
<g id="edge8" class="edge">
<title>mainlib&#45;&gt;libGed</title>
<path fill="none" stroke="#000000" d="M30.8461,-792.1671C35.8973,-856.2158 55.4855,-1070.5729 95,-1125 98.3428,-1129.6044 102.7195,-1133.5098 107.4882,-1136.7963"/>
<polygon fill="#000000" stroke="#000000" points="105.971,-1139.9659 116.3567,-1142.0609 109.5443,-1133.9466 105.971,-1139.9659"/>
</g>
<!-- libRCsg -->
<g id="node10" class="node">
<title>libRCsg</title>
<polygon fill="none" stroke="#000000" points="176.5,-1116 112.5,-1116 112.5,-1080 176.5,-1080 176.5,-1116"/>
<text text-anchor="middle" x="144.5" y="-1094.3" font-family="Arial" font-size="14.00" fill="#000000">libRCsg</text>
</g>
<!-- mainlib&#45;&gt;libRCsg -->
<g id="edge9" class="edge">
<title>mainlib&#45;&gt;libRCsg</title>
<path fill="none" stroke="#000000" d="M31.5172,-792.1128C38.2024,-849.464 61.1465,-1025.9331 95,-1071 97.5465,-1074.39 100.6482,-1077.4057 104.0445,-1080.0769"/>
<polygon fill="#000000" stroke="#000000" points="102.1328,-1083.0091 112.3807,-1085.698 106.0463,-1077.2053 102.1328,-1083.0091"/>
</g>
<!-- libGLX -->
<g id="node11" class="node">
<title>libGLX</title>
<polygon fill="none" stroke="#000000" points="173.5,-1062 115.5,-1062 115.5,-1026 173.5,-1026 173.5,-1062"/>
<text text-anchor="middle" x="144.5" y="-1040.3" font-family="Arial" font-size="14.00" fill="#000000">libGLX</text>
</g>
<!-- mainlib&#45;&gt;libGLX -->
<g id="edge10" class="edge">
<title>mainlib&#45;&gt;libGLX</title>
<path fill="none" stroke="#000000" d="M32.5165,-792.298C41.0898,-842.5331 66.808,-981.2225 95,-1017 98.249,-1021.1231 102.3088,-1024.7036 106.6972,-1027.7879"/>
<polygon fill="#000000" stroke="#000000" points="105.0574,-1030.8877 115.4145,-1033.1197 108.7099,-1024.9161 105.0574,-1030.8877"/>
</g>
<!-- libOpenGL -->
<g id="node12" class="node">
<title>libOpenGL</title>
<polygon fill="none" stroke="#000000" points="186,-1008 103,-1008 103,-972 186,-972 186,-1008"/>
<text text-anchor="middle" x="144.5" y="-986.3" font-family="Arial" font-size="14.00" fill="#000000">libOpenGL</text>
</g>
<!-- mainlib&#45;&gt;libOpenGL -->
<g id="edge11" class="edge">
<title>mainlib&#45;&gt;libOpenGL</title>
<path fill="none" stroke="#000000" d="M31.4314,-792.2757C36.1435,-828.7091 51.2441,-911.317 95,-963 95.6088,-963.7191 96.2418,-964.4223 96.8963,-965.1097"/>
<polygon fill="#000000" stroke="#000000" points="94.786,-967.9145 104.61,-971.8818 99.4043,-962.6541 94.786,-967.9145"/>
</g>
<!-- libGui -->
<g id="node13" class="node">
<title>libGui</title>
<polygon fill="none" stroke="#000000" points="171.5,-954 117.5,-954 117.5,-918 171.5,-918 171.5,-954"/>
<text text-anchor="middle" x="144.5" y="-932.3" font-family="Arial" font-size="14.00" fill="#000000">libGui</text>
</g>
<!-- mainlib&#45;&gt;libGui -->
<g id="edge12" class="edge">
<title>mainlib&#45;&gt;libGui</title>
<path fill="none" stroke="#000000" d="M34.4156,-792.255C42.7676,-820.3376 62.1026,-874.4975 95,-909 98.9264,-913.118 103.6217,-916.7579 108.5342,-919.9246"/>
<polygon fill="#000000" stroke="#000000" points="107.085,-923.1299 117.4923,-925.1144 110.5941,-917.0729 107.085,-923.1299"/>
</g>
<!-- libTreePlayer -->
<g id="node14" class="node">
<title>libTreePlayer</title>
<polygon fill="none" stroke="#000000" points="191.5,-900 97.5,-900 97.5,-864 191.5,-864 191.5,-900"/>
<text text-anchor="middle" x="144.5" y="-878.3" font-family="Arial" font-size="14.00" fill="#000000">libTreePlayer</text>
</g>
<!-- mainlib&#45;&gt;libTreePlayer -->
<g id="edge13" class="edge">
<title>mainlib&#45;&gt;libTreePlayer</title>
<path fill="none" stroke="#000000" d="M41.0733,-792.1428C52.9973,-809.7977 72.916,-836.584 95,-855 96.318,-856.0991 97.6876,-857.1743 99.0956,-858.2237"/>
<polygon fill="#000000" stroke="#000000" points="97.2516,-861.2024 107.487,-863.9387 101.192,-855.4167 97.2516,-861.2024"/>
</g>
<!-- libTree -->
<g id="node15" class="node">
<title>libTree</title>
<polygon fill="none" stroke="#000000" points="172.5,-846 116.5,-846 116.5,-810 172.5,-810 172.5,-846"/>
<text text-anchor="middle" x="144.5" y="-824.3" font-family="Arial" font-size="14.00" fill="#000000">libTree</text>
</g>
<!-- mainlib&#45;&gt;libTree -->
<g id="edge14" class="edge">
<title>mainlib&#45;&gt;libTree</title>
<path fill="none" stroke="#000000" d="M59.1154,-787.9063C73.6649,-794.7383 91.3573,-803.046 106.8557,-810.3236"/>
<polygon fill="#000000" stroke="#000000" points="105.6351,-813.617 116.1745,-814.6993 108.6104,-807.2808 105.6351,-813.617"/>
</g>
<!-- libGraf3d -->
<g id="node16" class="node">
<title>libGraf3d</title>
<polygon fill="none" stroke="#000000" points="180.5,-792 108.5,-792 108.5,-756 180.5,-756 180.5,-792"/>
<text text-anchor="middle" x="144.5" y="-770.3" font-family="Arial" font-size="14.00" fill="#000000">libGraf3d</text>
</g>
<!-- mainlib&#45;&gt;libGraf3d -->
<g id="edge15" class="edge">
<title>mainlib&#45;&gt;libGraf3d</title>
<path fill="none" stroke="#000000" d="M59.1154,-774C70.9831,-774 84.942,-774 98.0955,-774"/>
<polygon fill="#000000" stroke="#000000" points="98.4165,-777.5001 108.4165,-774 98.4165,-770.5001 98.4165,-777.5001"/>
</g>
<!-- libGpad -->
<g id="node17" class="node">
<title>libGpad</title>
<polygon fill="none" stroke="#000000" points="176.5,-738 112.5,-738 112.5,-702 176.5,-702 176.5,-738"/>
<text text-anchor="middle" x="144.5" y="-716.3" font-family="Arial" font-size="14.00" fill="#000000">libGpad</text>
</g>
<!-- mainlib&#45;&gt;libGpad -->
<g id="edge16" class="edge">
<title>mainlib&#45;&gt;libGpad</title>
<path fill="none" stroke="#000000" d="M59.1154,-760.0937C72.4358,-753.8388 88.3905,-746.3471 102.8842,-739.5413"/>
<polygon fill="#000000" stroke="#000000" points="104.5912,-742.6065 112.1553,-735.188 101.6158,-736.2703 104.5912,-742.6065"/>
</g>
<!-- libGraf -->
<g id="node18" class="node">
<title>libGraf</title>
<polygon fill="none" stroke="#000000" points="173,-684 116,-684 116,-648 173,-648 173,-684"/>
<text text-anchor="middle" x="144.5" y="-662.3" font-family="Arial" font-size="14.00" fill="#000000">libGraf</text>
</g>
<!-- mainlib&#45;&gt;libGraf -->
<g id="edge17" class="edge">
<title>mainlib&#45;&gt;libGraf</title>
<path fill="none" stroke="#000000" d="M41.0733,-755.8572C52.9973,-738.2023 72.916,-711.416 95,-693 98.705,-689.9104 102.8179,-687.0097 107.0443,-684.3398"/>
<polygon fill="#000000" stroke="#000000" points="108.9412,-687.2847 115.785,-679.1968 105.3913,-681.2516 108.9412,-687.2847"/>
</g>
<!-- libHist -->
<g id="node19" class="node">
<title>libHist</title>
<polygon fill="none" stroke="#000000" points="171.5,-630 117.5,-630 117.5,-594 171.5,-594 171.5,-630"/>
<text text-anchor="middle" x="144.5" y="-608.3" font-family="Arial" font-size="14.00" fill="#000000">libHist</text>
</g>
<!-- mainlib&#45;&gt;libHist -->
<g id="edge18" class="edge">
<title>mainlib&#45;&gt;libHist</title>
<path fill="none" stroke="#000000" d="M34.4156,-755.745C42.7676,-727.6624 62.1026,-673.5025 95,-639 98.9264,-634.882 103.6217,-631.2421 108.5342,-628.0754"/>
<polygon fill="#000000" stroke="#000000" points="110.5941,-630.9271 117.4923,-622.8856 107.085,-624.8701 110.5941,-630.9271"/>
</g>
<!-- libMatrix -->
<g id="node20" class="node">
<title>libMatrix</title>
<polygon fill="none" stroke="#000000" points="178.5,-576 110.5,-576 110.5,-540 178.5,-540 178.5,-576"/>
<text text-anchor="middle" x="144.5" y="-554.3" font-family="Arial" font-size="14.00" fill="#000000">libMatrix</text>
</g>
<!-- mainlib&#45;&gt;libMatrix -->
<g id="edge19" class="edge">
<title>mainlib&#45;&gt;libMatrix</title>
<path fill="none" stroke="#000000" d="M31.4314,-755.7243C36.1435,-719.2909 51.2441,-636.683 95,-585 97.1189,-582.4972 99.531,-580.187 102.1231,-578.062"/>
<polygon fill="#000000" stroke="#000000" points="104.201,-580.8792 110.3267,-572.2347 100.1472,-575.1724 104.201,-580.8792"/>
</g>
<!-- libMultiProc -->
<g id="node21" class="node">
<title>libMultiProc</title>
<polygon fill="none" stroke="#000000" points="188,-522 101,-522 101,-486 188,-486 188,-522"/>
<text text-anchor="middle" x="144.5" y="-500.3" font-family="Arial" font-size="14.00" fill="#000000">libMultiProc</text>
</g>
<!-- mainlib&#45;&gt;libMultiProc -->
<g id="edge20" class="edge">
<title>mainlib&#45;&gt;libMultiProc</title>
<path fill="none" stroke="#000000" d="M32.5165,-755.702C41.0898,-705.4669 66.808,-566.7775 95,-531 95.4771,-530.3945 95.9717,-529.8007 96.4823,-529.2185"/>
<polygon fill="#000000" stroke="#000000" points="98.9801,-531.6746 103.8944,-522.2884 94.1994,-526.5614 98.9801,-531.6746"/>
</g>
<!-- libNet -->
<g id="node22" class="node">
<title>libNet</title>
<polygon fill="none" stroke="#000000" points="171.5,-468 117.5,-468 117.5,-432 171.5,-432 171.5,-468"/>
<text text-anchor="middle" x="144.5" y="-446.3" font-family="Arial" font-size="14.00" fill="#000000">libNet</text>
</g>
<!-- mainlib&#45;&gt;libNet -->
<g id="edge21" class="edge">
<title>mainlib&#45;&gt;libNet</title>
<path fill="none" stroke="#000000" d="M31.5172,-755.8872C38.2024,-698.536 61.1465,-522.0669 95,-477 98.6158,-472.1865 103.3511,-468.1275 108.4593,-464.7383"/>
<polygon fill="#000000" stroke="#000000" points="110.3633,-467.6806 117.2764,-459.6519 106.8654,-461.6172 110.3633,-467.6806"/>
</g>
<!-- libRIO -->
<g id="node23" class="node">
<title>libRIO</title>
<polygon fill="none" stroke="#000000" points="172,-414 117,-414 117,-378 172,-378 172,-414"/>
<text text-anchor="middle" x="144.5" y="-392.3" font-family="Arial" font-size="14.00" fill="#000000">libRIO</text>
</g>
<!-- mainlib&#45;&gt;libRIO -->
<g id="edge22" class="edge">
<title>mainlib&#45;&gt;libRIO</title>
<path fill="none" stroke="#000000" d="M30.8461,-755.8329C35.8973,-691.7842 55.4855,-477.4271 95,-423 98.5001,-418.179 103.1335,-414.1243 108.1637,-410.744"/>
<polygon fill="#000000" stroke="#000000" points="109.9908,-413.7303 116.8736,-405.6756 106.4701,-407.6801 109.9908,-413.7303"/>
</g>
<!-- libMathCore -->
<g id="node24" class="node">
<title>libMathCore</title>
<polygon fill="none" stroke="#000000" points="189.5,-360 99.5,-360 99.5,-324 189.5,-324 189.5,-360"/>
<text text-anchor="middle" x="144.5" y="-338.3" font-family="Arial" font-size="14.00" fill="#000000">libMathCore</text>
</g>
<!-- mainlib&#45;&gt;libMathCore -->
<g id="edge23" class="edge">
<title>mainlib&#45;&gt;libMathCore</title>
<path fill="none" stroke="#000000" d="M30.3609,-755.5399C33.969,-684.9398 49.8417,-432.8073 95,-369 95.4453,-368.3708 95.9101,-367.7547 96.3927,-367.1516"/>
<polygon fill="#000000" stroke="#000000" points="98.931,-369.5632 103.539,-360.0229 93.9874,-364.6073 98.931,-369.5632"/>
</g>
<!-- libImt -->
<g id="node25" class="node">
<title>libImt</title>
<polygon fill="none" stroke="#000000" points="171.5,-306 117.5,-306 117.5,-270 171.5,-270 171.5,-306"/>
<text text-anchor="middle" x="144.5" y="-284.3" font-family="Arial" font-size="14.00" fill="#000000">libImt</text>
</g>
<!-- mainlib&#45;&gt;libImt -->
<g id="edge24" class="edge">
<title>mainlib&#45;&gt;libImt</title>
<path fill="none" stroke="#000000" d="M29.9638,-755.7461C32.2133,-679.6737 44.0643,-388.4087 95,-315 98.5035,-309.9508 103.2656,-305.7542 108.4584,-302.2958"/>
<polygon fill="#000000" stroke="#000000" points="110.5126,-305.1532 117.4578,-297.1522 107.039,-299.0758 110.5126,-305.1532"/>
</g>
<!-- libThread -->
<g id="node26" class="node">
<title>libThread</title>
<polygon fill="none" stroke="#000000" points="181,-252 108,-252 108,-216 181,-216 181,-252"/>
<text text-anchor="middle" x="144.5" y="-230.3" font-family="Arial" font-size="14.00" fill="#000000">libThread</text>
</g>
<!-- mainlib&#45;&gt;libThread -->
<g id="edge25" class="edge">
<title>mainlib&#45;&gt;libThread</title>
<path fill="none" stroke="#000000" d="M29.6559,-755.8495C30.6726,-674.5256 38.2843,-344.0398 95,-261 96.4493,-258.8781 98.1218,-256.9074 99.9565,-255.0793"/>
<polygon fill="#000000" stroke="#000000" points="102.1992,-257.7666 107.7081,-248.7166 97.7579,-252.3559 102.1992,-257.7666"/>
</g>
<!-- libCore -->
<g id="node27" class="node">
<title>libCore</title>
<polygon fill="none" stroke="#000000" points="174,-198 115,-198 115,-162 174,-162 174,-198"/>
<text text-anchor="middle" x="144.5" y="-176.3" font-family="Arial" font-size="14.00" fill="#000000">libCore</text>
</g>
<!-- mainlib&#45;&gt;libCore -->
<g id="edge26" class="edge">
<title>mainlib&#45;&gt;libCore</title>
<path fill="none" stroke="#000000" d="M30.602,-755.9188C36.3168,-664.282 63.5278,-253.6778 95,-207 97.9346,-202.6475 101.8118,-198.9338 106.1079,-195.7822"/>
<polygon fill="#000000" stroke="#000000" points="108.1148,-198.6555 114.748,-190.3941 104.4107,-192.7158 108.1148,-198.6555"/>
</g>
<!-- libGL -->
<g id="node28" class="node">
<title>libGL</title>
<polygon fill="none" stroke="#000000" points="171.5,-144 117.5,-144 117.5,-108 171.5,-108 171.5,-144"/>
<text text-anchor="middle" x="144.5" y="-122.3" font-family="Arial" font-size="14.00" fill="#000000">libGL</text>
</g>
<!-- mainlib&#45;&gt;libGL -->
<g id="edge27" class="edge">
<title>mainlib&#45;&gt;libGL</title>
<path fill="none" stroke="#000000" d="M30.4154,-755.8251C35.4331,-658.8166 60.634,-204.5194 95,-153 98.4104,-147.8874 103.1251,-143.6586 108.2992,-140.1875"/>
<polygon fill="#000000" stroke="#000000" points="110.3523,-143.0452 117.2916,-135.0392 106.8743,-136.9704 110.3523,-143.0452"/>
</g>
<!-- libGLdispatch -->
<g id="node29" class="node">
<title>libGLdispatch</title>
<polygon fill="none" stroke="#000000" points="194,-90 95,-90 95,-54 194,-54 194,-90"/>
<text text-anchor="middle" x="144.5" y="-68.3" font-family="Arial" font-size="14.00" fill="#000000">libGLdispatch</text>
</g>
<!-- mainlib&#45;&gt;libGLdispatch -->
<g id="edge28" class="edge">
<title>mainlib&#45;&gt;libGLdispatch</title>
<path fill="none" stroke="#000000" d="M30.2485,-755.9436C34.5962,-654.2387 57.7083,-155.4143 95,-99 95.2699,-98.5917 95.5481,-98.189 95.8343,-97.792"/>
<polygon fill="#000000" stroke="#000000" points="98.6032,-99.9545 102.8594,-90.2521 93.4817,-95.1826 98.6032,-99.9545"/>
</g>
<!-- libXau -->
<g id="node30" class="node">
<title>libXau</title>
<polygon fill="none" stroke="#000000" points="171.5,-36 117.5,-36 117.5,0 171.5,0 171.5,-36"/>
<text text-anchor="middle" x="144.5" y="-14.3" font-family="Arial" font-size="14.00" fill="#000000">libXau</text>
</g>
<!-- mainlib&#45;&gt;libXau -->
<g id="edge29" class="edge">
<title>mainlib&#45;&gt;libXau</title>
<path fill="none" stroke="#000000" d="M30.1125,-755.9119C33.8526,-649.3769 54.7948,-106.2955 95,-45 98.4051,-39.8087 103.1611,-35.5325 108.3897,-32.0365"/>
<polygon fill="#000000" stroke="#000000" points="110.5184,-34.8524 117.4802,-26.8659 107.0575,-28.7678 110.5184,-34.8524"/>
</g>
</g>
</svg>
