<?xml version="1.0" encoding="UTF-8" standalone="no"?>
<!DOCTYPE svg PUBLIC "-//W3C//DTD SVG 1.1//EN"
 "http://www.w3.org/Graphics/SVG/1.1/DTD/svg11.dtd">
<!-- Generated by graphviz version 2.40.1 (0)
 -->
<!-- Title: THttpServer Pages: 1 -->
<svg width="1890pt" height="603pt"
 viewBox="0.00 0.00 1890.00 603.22" xmlns="http://www.w3.org/2000/svg" xmlns:xlink="http://www.w3.org/1999/xlink">
<g id="graph0" class="graph" transform="scale(1 1) rotate(0) translate(4 599.2244)">
<title>THttpServer</title>
<polygon fill="#ffffff" stroke="transparent" points="-4,4 -4,-599.2244 1886,-599.2244 1886,4 -4,4"/>
<!-- Node3 -->
<g id="node1" class="node">
<title>Node3</title>
<polygon fill="#bfbfbf" stroke="#000000" points="1551.5,-250.7244 1551.5,-269.7244 1626.5,-269.7244 1626.5,-250.7244 1551.5,-250.7244"/>
<text text-anchor="middle" x="1589" y="-257.7244" font-family="Helvetica,sans-Serif" font-size="10.00" fill="#000000">THttpServer</text>
</g>
<!-- Node21 -->
<g id="node19" class="node">
<title>Node21</title>
<polygon fill="#ffffff" stroke="#bfbfbf" points="1810,-297.7244 1810,-316.7244 1882,-316.7244 1882,-297.7244 1810,-297.7244"/>
<text text-anchor="middle" x="1846" y="-304.7244" font-family="Helvetica,sans-Serif" font-size="10.00" fill="#000000">THttpTimer</text>
</g>
<!-- Node3&#45;&gt;Node21 -->
<g id="edge36" class="edge">
<title>Node3&#45;&gt;Node21</title>
<path fill="none" stroke="#9a32cd" stroke-dasharray="5,2" d="M1636.8655,-257.9431C1674.4912,-257.3712 1727.8994,-259.2782 1773,-271.2244 1794.3094,-276.8688 1816.7556,-289.0023 1831.0402,-297.6203"/>
<polygon fill="#9a32cd" stroke="#9a32cd" points="1636.6133,-254.4477 1626.6916,-258.1639 1636.7652,-261.446 1636.6133,-254.4477"/>
<text text-anchor="middle" x="1747.5" y="-274.2244" font-family="Helvetica,sans-Serif" font-size="10.00" fill="#000000"> fServer</text>
</g>
<!-- Node4 -->
<g id="node2" class="node">
<title>Node4</title>
<g id="a_node2"><a xlink:href="classTNamed.html" target="_top" xlink:title="The TNamed class is the base class for all named ROOT classes. ">
<polygon fill="#ffffff" stroke="#000000" points="663,-306.7244 663,-325.7244 721,-325.7244 721,-306.7244 663,-306.7244"/>
<text text-anchor="middle" x="692" y="-313.7244" font-family="Helvetica,sans-Serif" font-size="10.00" fill="#000000">TNamed</text>
</a>
</g>
</g>
<!-- Node4&#45;&gt;Node3 -->
<g id="edge1" class="edge">
<title>Node4&#45;&gt;Node3</title>
<path fill="none" stroke="#191970" d="M731.6414,-315.8512C845.2384,-314.3987 1170.2315,-307.4613 1271,-275.2244 1279.9297,-272.3677 1280.0216,-266.9245 1289,-264.2244 1360.5489,-242.7077 1382.2976,-259.558 1457,-258.2244 1486.773,-257.6929 1494.2257,-257.7665 1524,-258.2244 1532.8052,-258.3598 1542.279,-258.5984 1551.1965,-258.8647"/>
<polygon fill="#191970" stroke="#191970" points="731.2799,-312.3552 721.3227,-315.9753 731.3641,-319.3547 731.2799,-312.3552"/>
</g>
<!-- Node11 -->
<g id="node9" class="node">
<title>Node11</title>
<g id="a_node9"><a xlink:href="classTRootSniffer.html" target="_top" xlink:title="TRootSniffer">
<polygon fill="#ffffff" stroke="#000000" points="1326,-189.7244 1326,-208.7244 1402,-208.7244 1402,-189.7244 1326,-189.7244"/>
<text text-anchor="middle" x="1364" y="-196.7244" font-family="Helvetica,sans-Serif" font-size="10.00" fill="#000000">TRootSniffer</text>
</a>
</g>
</g>
<!-- Node4&#45;&gt;Node11 -->
<g id="edge9" class="edge">
<title>Node4&#45;&gt;Node11</title>
<path fill="none" stroke="#191970" d="M712.2223,-300.5803C720.1662,-295.1903 729.6195,-289.6527 739,-286.2244 963.0469,-204.342 1035.1924,-251.2311 1271,-215.2244 1288.9768,-212.4794 1308.8487,-209.1068 1325.5925,-206.1669"/>
<polygon fill="#191970" stroke="#191970" points="710.0722,-297.8151 703.9792,-306.4826 714.1474,-303.5065 710.0722,-297.8151"/>
</g>
<!-- Node5 -->
<g id="node3" class="node">
<title>Node5</title>
<g id="a_node3"><a xlink:href="classTObject.html" target="_top" xlink:title="Mother of all ROOT objects. ">
<polygon fill="#ffffff" stroke="#000000" points="199,-467.7244 199,-486.7244 253,-486.7244 253,-467.7244 199,-467.7244"/>
<text text-anchor="middle" x="226" y="-474.7244" font-family="Helvetica,sans-Serif" font-size="10.00" fill="#000000">TObject</text>
</a>
</g>
</g>
<!-- Node5&#45;&gt;Node4 -->
<g id="edge2" class="edge">
<title>Node5&#45;&gt;Node4</title>
<path fill="none" stroke="#191970" d="M257.2299,-463.5272C281.6057,-452.9031 316.361,-437.9018 347,-425.2244 390.3163,-407.3016 400.5893,-401.2319 445,-386.2244 532.4495,-356.6731 556.3194,-355.8456 645,-330.2244 650.8074,-328.5466 657.0088,-326.7225 662.9388,-324.9624"/>
<polygon fill="#191970" stroke="#191970" points="255.5475,-460.4426 247.7835,-467.6516 258.3486,-466.8577 255.5475,-460.4426"/>
</g>
<!-- Node14 -->
<g id="node12" class="node">
<title>Node14</title>
<g id="a_node12"><a xlink:href="classTCollection.html" target="_top" xlink:title="Collection abstract base class. ">
<polygon fill="#ffffff" stroke="#000000" points="570,-402.7244 570,-421.7244 641,-421.7244 641,-402.7244 570,-402.7244"/>
<text text-anchor="middle" x="605.5" y="-409.7244" font-family="Helvetica,sans-Serif" font-size="10.00" fill="#000000">TCollection</text>
</a>
</g>
</g>
<!-- Node5&#45;&gt;Node14 -->
<g id="edge14" class="edge">
<title>Node5&#45;&gt;Node14</title>
<path fill="none" stroke="#191970" d="M263.3447,-480.386C324.8126,-484.2279 450.231,-486.2816 548,-450.2244 565.7379,-443.6827 583.4835,-430.7409 594.4706,-421.7911"/>
<polygon fill="#191970" stroke="#191970" points="263.5502,-476.8919 253.3365,-479.7083 263.0772,-483.876 263.5502,-476.8919"/>
</g>
<!-- Node15 -->
<g id="node13" class="node">
<title>Node15</title>
<g id="a_node13"><a xlink:href="classTObjectTable.html" target="_top" xlink:title="This class registers all instances of TObject and its derived classes in a hash table. ">
<polygon fill="#ffffff" stroke="#000000" points="347,-434.7244 347,-453.7244 427,-453.7244 427,-434.7244 347,-434.7244"/>
<text text-anchor="middle" x="387" y="-441.7244" font-family="Helvetica,sans-Serif" font-size="10.00" fill="#000000">TObjectTable</text>
</a>
</g>
</g>
<!-- Node5&#45;&gt;Node15 -->
<g id="edge16" class="edge">
<title>Node5&#45;&gt;Node15</title>
<path fill="none" stroke="#191970" d="M262.9002,-466.3754C273.5251,-463.4787 285.1709,-460.5195 296,-458.2244 312.5754,-454.7115 331.026,-451.7074 346.9572,-449.3931"/>
<polygon fill="#191970" stroke="#191970" points="261.78,-463.0541 253.0863,-469.1097 263.6588,-469.7972 261.78,-463.0541"/>
</g>
<!-- Node5&#45;&gt;Node15 -->
<g id="edge17" class="edge">
<title>Node5&#45;&gt;Node15</title>
<path fill="none" stroke="#9a32cd" stroke-dasharray="5,2" d="M263.1666,-469.6064C288.2046,-464.4744 321.2101,-457.7093 346.8497,-452.454"/>
<polygon fill="#9a32cd" stroke="#9a32cd" points="262.405,-466.1897 253.3115,-471.6264 263.8106,-473.0471 262.405,-466.1897"/>
<text text-anchor="middle" x="312.5" y="-465.2244" font-family="Helvetica,sans-Serif" font-size="10.00" fill="#000000"> fTable</text>
</g>
<!-- Node17 -->
<g id="node15" class="node">
<title>Node17</title>
<g id="a_node15"><a xlink:href="classTHttpCallArg.html" target="_top" xlink:title="THttpCallArg">
<polygon fill="#ffffff" stroke="#000000" points="566,-144.7244 566,-163.7244 645,-163.7244 645,-144.7244 566,-144.7244"/>
<text text-anchor="middle" x="605.5" y="-151.7244" font-family="Helvetica,sans-Serif" font-size="10.00" fill="#000000">THttpCallArg</text>
</a>
</g>
</g>
<!-- Node5&#45;&gt;Node17 -->
<g id="edge22" class="edge">
<title>Node5&#45;&gt;Node17</title>
<path fill="none" stroke="#191970" d="M231.4978,-457.7072C241.1576,-425.4921 263.3032,-360.0053 296,-312.2244 348.184,-235.9663 360.8664,-205.4344 445,-167.2244 483.3079,-149.8265 532.0454,-148.3918 565.7097,-150.1639"/>
<polygon fill="#191970" stroke="#191970" points="228.0435,-457.051 228.6049,-467.6309 234.7637,-459.0101 228.0435,-457.051"/>
</g>
<!-- Node22 -->
<g id="node20" class="node">
<title>Node22</title>
<g id="a_node20"><a xlink:href="classTTimer.html" target="_top" xlink:title="Handles synchronous and a&#45;synchronous timer events. ">
<polygon fill="#ffffff" stroke="#000000" points="1722,-498.7244 1722,-517.7244 1773,-517.7244 1773,-498.7244 1722,-498.7244"/>
<text text-anchor="middle" x="1747.5" y="-505.7244" font-family="Helvetica,sans-Serif" font-size="10.00" fill="#000000">TTimer</text>
</a>
</g>
</g>
<!-- Node5&#45;&gt;Node22 -->
<g id="edge35" class="edge">
<title>Node5&#45;&gt;Node22</title>
<path fill="none" stroke="#9a32cd" stroke-dasharray="5,2" d="M240.1495,-495.2243C265.8531,-525.7101 323.4642,-584.2244 387,-584.2244 387,-584.2244 387,-584.2244 1589,-584.2244 1641.3049,-584.2244 1659.1196,-586.0861 1704,-559.2244 1721.1752,-548.9448 1734.9078,-529.4562 1742.0707,-517.7736"/>
<polygon fill="#9a32cd" stroke="#9a32cd" points="242.5391,-492.6181 233.4954,-487.0989 237.1234,-497.0532 242.5391,-492.6181"/>
<text text-anchor="middle" x="948" y="-587.2244" font-family="Helvetica,sans-Serif" font-size="10.00" fill="#000000"> fObject</text>
</g>
<!-- Node23 -->
<g id="node21" class="node">
<title>Node23</title>
<g id="a_node21"><a xlink:href="classTSysEvtHandler.html" target="_top" xlink:title="Abstract base class for handling system events. ">
<polygon fill="#ffffff" stroke="#000000" points="1542,-460.7244 1542,-479.7244 1636,-479.7244 1636,-460.7244 1542,-460.7244"/>
<text text-anchor="middle" x="1589" y="-467.7244" font-family="Helvetica,sans-Serif" font-size="10.00" fill="#000000">TSysEvtHandler</text>
</a>
</g>
</g>
<!-- Node5&#45;&gt;Node23 -->
<g id="edge30" class="edge">
<title>Node5&#45;&gt;Node23</title>
<path fill="none" stroke="#191970" d="M246.8426,-492.6664C276.4163,-513.0061 332.9839,-546.2244 387,-546.2244 387,-546.2244 387,-546.2244 1223,-546.2244 1352.1453,-546.2244 1501.6704,-500.3004 1561.8533,-479.8499"/>
<polygon fill="#191970" stroke="#191970" points="248.7511,-489.7294 238.5639,-486.8186 244.7124,-495.4468 248.7511,-489.7294"/>
</g>
<!-- Node6 -->
<g id="node4" class="node">
<title>Node6</title>
<g id="a_node4"><a xlink:href="classTString.html" target="_top" xlink:title="Basic string class. ">
<polygon fill="#ffffff" stroke="#000000" points="361.5,-306.7244 361.5,-325.7244 412.5,-325.7244 412.5,-306.7244 361.5,-306.7244"/>
<text text-anchor="middle" x="387" y="-313.7244" font-family="Helvetica,sans-Serif" font-size="10.00" fill="#000000">TString</text>
</a>
</g>
</g>
<!-- Node6&#45;&gt;Node3 -->
<g id="edge38" class="edge">
<title>Node6&#45;&gt;Node3</title>
<path fill="none" stroke="#9a32cd" stroke-dasharray="5,2" d="M389.3522,-296.4151C395.5894,-247.5101 414.2118,-123.1282 445,-97.2244 499.7911,-51.1257 533.8958,-83.2244 605.5,-83.2244 605.5,-83.2244 605.5,-83.2244 1364,-83.2244 1473.3416,-83.2244 1560.9205,-213.9434 1583.3898,-250.7081"/>
<polygon fill="#9a32cd" stroke="#9a32cd" points="385.8426,-296.2786 388.0911,-306.6321 392.7899,-297.1362 385.8426,-296.2786"/>
<text text-anchor="middle" x="948" y="-108.2244" font-family="Helvetica,sans-Serif" font-size="10.00" fill="#000000"> fJSROOT</text>
<text text-anchor="middle" x="948" y="-97.2244" font-family="Helvetica,sans-Serif" font-size="10.00" fill="#000000">fTopName</text>
<text text-anchor="middle" x="948" y="-86.2244" font-family="Helvetica,sans-Serif" font-size="10.00" fill="#000000">fJSROOTSYS</text>
</g>
<!-- Node6&#45;&gt;Node4 -->
<g id="edge3" class="edge">
<title>Node6&#45;&gt;Node4</title>
<path fill="none" stroke="#9a32cd" stroke-dasharray="5,2" d="M423.0537,-316.2244C484.1588,-316.2244 606.8742,-316.2244 662.9026,-316.2244"/>
<polygon fill="#9a32cd" stroke="#9a32cd" points="422.7413,-312.7245 412.7413,-316.2244 422.7412,-319.7245 422.7413,-312.7245"/>
<text text-anchor="middle" x="496.5" y="-330.2244" font-family="Helvetica,sans-Serif" font-size="10.00" fill="#000000"> fTitle</text>
<text text-anchor="middle" x="496.5" y="-319.2244" font-family="Helvetica,sans-Serif" font-size="10.00" fill="#000000">fName</text>
</g>
<!-- Node6&#45;&gt;Node11 -->
<g id="edge10" class="edge">
<title>Node6&#45;&gt;Node11</title>
<path fill="none" stroke="#9a32cd" stroke-dasharray="5,2" d="M422.8218,-311.6827C455.7769,-307.0046 505.787,-298.636 548,-286.2244 635.9709,-260.3589 649.1524,-226.5359 739,-208.2244 851.9781,-185.1987 1208.0384,-194.198 1325.7813,-197.9212"/>
<polygon fill="#9a32cd" stroke="#9a32cd" points="422.1805,-308.238 412.7529,-313.0724 423.1376,-315.1722 422.1805,-308.238"/>
<text text-anchor="middle" x="813" y="-233.2244" font-family="Helvetica,sans-Serif" font-size="10.00" fill="#000000"> fAutoLoad</text>
<text text-anchor="middle" x="813" y="-222.2244" font-family="Helvetica,sans-Serif" font-size="10.00" fill="#000000">fObjectsPath</text>
<text text-anchor="middle" x="813" y="-211.2244" font-family="Helvetica,sans-Serif" font-size="10.00" fill="#000000">fCurrentAllowedMethods</text>
</g>
<!-- Node6&#45;&gt;Node14 -->
<g id="edge18" class="edge">
<title>Node6&#45;&gt;Node14</title>
<path fill="none" stroke="#9a32cd" stroke-dasharray="5,2" d="M405.7684,-332.5503C416.6534,-341.3807 430.9517,-351.9383 445,-359.2244 485.637,-380.3006 536.3474,-395.3711 569.7642,-403.929"/>
<polygon fill="#9a32cd" stroke="#9a32cd" points="407.7609,-329.6544 397.8406,-325.9344 403.2758,-335.0288 407.7609,-329.6544"/>
<text text-anchor="middle" x="496.5" y="-400.2244" font-family="Helvetica,sans-Serif" font-size="10.00" fill="#000000"> fName</text>
</g>
<!-- Node6&#45;&gt;Node17 -->
<g id="edge23" class="edge">
<title>Node6&#45;&gt;Node17</title>
<path fill="none" stroke="#9a32cd" stroke-dasharray="5,2" d="M390.0889,-296.6406C395.6872,-267.9812 410.3203,-215.0127 445,-187.2244 449.7452,-183.4221 519.7634,-169.9755 565.7367,-161.4652"/>
<polygon fill="#9a32cd" stroke="#9a32cd" points="386.6134,-296.1949 388.3113,-306.6528 393.5056,-297.4186 386.6134,-296.1949"/>
<text text-anchor="middle" x="496.5" y="-278.2244" font-family="Helvetica,sans-Serif" font-size="10.00" fill="#000000"> fHeader</text>
<text text-anchor="middle" x="496.5" y="-267.2244" font-family="Helvetica,sans-Serif" font-size="10.00" fill="#000000">fContentType</text>
<text text-anchor="middle" x="496.5" y="-256.2244" font-family="Helvetica,sans-Serif" font-size="10.00" fill="#000000">fQuery</text>
<text text-anchor="middle" x="496.5" y="-245.2244" font-family="Helvetica,sans-Serif" font-size="10.00" fill="#000000">fUserName</text>
<text text-anchor="middle" x="496.5" y="-234.2244" font-family="Helvetica,sans-Serif" font-size="10.00" fill="#000000">fPathName</text>
<text text-anchor="middle" x="496.5" y="-223.2244" font-family="Helvetica,sans-Serif" font-size="10.00" fill="#000000">fTopName</text>
<text text-anchor="middle" x="496.5" y="-212.2244" font-family="Helvetica,sans-Serif" font-size="10.00" fill="#000000">fMethod</text>
<text text-anchor="middle" x="496.5" y="-201.2244" font-family="Helvetica,sans-Serif" font-size="10.00" fill="#000000">fFileName</text>
<text text-anchor="middle" x="496.5" y="-190.2244" font-family="Helvetica,sans-Serif" font-size="10.00" fill="#000000">fRequestHeader</text>
</g>
<!-- Node6&#45;&gt;Node22 -->
<g id="edge33" class="edge">
<title>Node6&#45;&gt;Node22</title>
<path fill="none" stroke="#9a32cd" stroke-dasharray="5,2" d="M394.183,-335.7626C407.3958,-371.2091 435.1073,-443.1263 445,-450.2244 488.843,-481.6823 512.141,-456.9062 566,-460.2244 1029.0791,-488.754 1595.3455,-504.3202 1721.7048,-507.5767"/>
<polygon fill="#9a32cd" stroke="#9a32cd" points="397.3392,-334.2068 390.5837,-326.045 390.775,-336.6381 397.3392,-334.2068"/>
<text text-anchor="middle" x="1083" y="-491.2244" font-family="Helvetica,sans-Serif" font-size="10.00" fill="#000000"> fCommand</text>
</g>
<!-- Node7 -->
<g id="node5" class="node">
<title>Node7</title>
<g id="a_node5"><a xlink:href="structTString_1_1Rep__t.html" target="_top" xlink:title="TString::Rep_t">
<polygon fill="#ffffff" stroke="#000000" points="184,-306.7244 184,-325.7244 268,-325.7244 268,-306.7244 184,-306.7244"/>
<text text-anchor="middle" x="226" y="-313.7244" font-family="Helvetica,sans-Serif" font-size="10.00" fill="#000000">TString::Rep_t</text>
</a>
</g>
</g>
<!-- Node7&#45;&gt;Node6 -->
<g id="edge4" class="edge">
<title>Node7&#45;&gt;Node6</title>
<path fill="none" stroke="#9a32cd" stroke-dasharray="5,2" d="M278.6155,-316.2244C306.2517,-316.2244 338.8907,-316.2244 361.0767,-316.2244"/>
<polygon fill="#9a32cd" stroke="#9a32cd" points="278.3009,-312.7245 268.3009,-316.2244 278.3008,-319.7245 278.3009,-312.7245"/>
<text text-anchor="middle" x="312.5" y="-319.2244" font-family="Helvetica,sans-Serif" font-size="10.00" fill="#000000"> fRep</text>
</g>
<!-- Node8 -->
<g id="node6" class="node">
<title>Node8</title>
<g id="a_node6"><a xlink:href="structTString_1_1LongStr__t.html" target="_top" xlink:title="TString::LongStr_t">
<polygon fill="#ffffff" stroke="#000000" points="1,-344.7244 1,-363.7244 104,-363.7244 104,-344.7244 1,-344.7244"/>
<text text-anchor="middle" x="52.5" y="-351.7244" font-family="Helvetica,sans-Serif" font-size="10.00" fill="#000000">TString::LongStr_t</text>
</a>
</g>
</g>
<!-- Node8&#45;&gt;Node7 -->
<g id="edge5" class="edge">
<title>Node8&#45;&gt;Node7</title>
<path fill="none" stroke="#9a32cd" stroke-dasharray="5,2" d="M106.3141,-342.438C131.2377,-336.9793 160.4209,-330.5876 183.7305,-325.4823"/>
<polygon fill="#9a32cd" stroke="#9a32cd" points="105.301,-339.0769 96.2814,-344.6354 106.7987,-345.9148 105.301,-339.0769"/>
<text text-anchor="middle" x="139.5" y="-341.2244" font-family="Helvetica,sans-Serif" font-size="10.00" fill="#000000"> fLong</text>
</g>
<!-- Node9 -->
<g id="node7" class="node">
<title>Node9</title>
<g id="a_node7"><a xlink:href="structTString_1_1RawStr__t.html" target="_top" xlink:title="TString::RawStr_t">
<polygon fill="#ffffff" stroke="#000000" points="2,-306.7244 2,-325.7244 103,-325.7244 103,-306.7244 2,-306.7244"/>
<text text-anchor="middle" x="52.5" y="-313.7244" font-family="Helvetica,sans-Serif" font-size="10.00" fill="#000000">TString::RawStr_t</text>
</a>
</g>
</g>
<!-- Node9&#45;&gt;Node7 -->
<g id="edge6" class="edge">
<title>Node9&#45;&gt;Node7</title>
<path fill="none" stroke="#9a32cd" stroke-dasharray="5,2" d="M113.2818,-316.2244C136.567,-316.2244 162.6017,-316.2244 183.779,-316.2244"/>
<polygon fill="#9a32cd" stroke="#9a32cd" points="113.1498,-312.7245 103.1498,-316.2244 113.1498,-319.7245 113.1498,-312.7245"/>
<text text-anchor="middle" x="139.5" y="-319.2244" font-family="Helvetica,sans-Serif" font-size="10.00" fill="#000000"> fRaw</text>
</g>
<!-- Node10 -->
<g id="node8" class="node">
<title>Node10</title>
<g id="a_node8"><a xlink:href="structTString_1_1ShortStr__t.html" target="_top" xlink:title="TString::ShortStr_t">
<polygon fill="#ffffff" stroke="#000000" points="0,-268.7244 0,-287.7244 105,-287.7244 105,-268.7244 0,-268.7244"/>
<text text-anchor="middle" x="52.5" y="-275.7244" font-family="Helvetica,sans-Serif" font-size="10.00" fill="#000000">TString::ShortStr_t</text>
</a>
</g>
</g>
<!-- Node10&#45;&gt;Node7 -->
<g id="edge7" class="edge">
<title>Node10&#45;&gt;Node7</title>
<path fill="none" stroke="#9a32cd" stroke-dasharray="5,2" d="M106.3141,-290.0108C131.2377,-295.4696 160.4209,-301.8613 183.7305,-306.9665"/>
<polygon fill="#9a32cd" stroke="#9a32cd" points="106.7987,-286.534 96.2814,-287.8134 105.301,-293.3719 106.7987,-286.534"/>
<text text-anchor="middle" x="139.5" y="-303.2244" font-family="Helvetica,sans-Serif" font-size="10.00" fill="#000000"> fShort</text>
</g>
<!-- Node11&#45;&gt;Node3 -->
<g id="edge8" class="edge">
<title>Node11&#45;&gt;Node3</title>
<path fill="none" stroke="#9a32cd" stroke-dasharray="5,2" d="M1412.2889,-196.3552C1444.8397,-196.0379 1488.2066,-198.8099 1524,-212.2244 1546.3311,-220.5936 1567.6674,-239.0144 1579.4825,-250.4465"/>
<polygon fill="#9a32cd" stroke="#9a32cd" points="1412.0523,-192.8591 1402.1238,-196.5572 1412.1914,-199.8577 1412.0523,-192.8591"/>
<text text-anchor="middle" x="1490.5" y="-215.2244" font-family="Helvetica,sans-Serif" font-size="10.00" fill="#000000"> fSniffer</text>
</g>
<!-- Node12 -->
<g id="node10" class="node">
<title>Node12</title>
<g id="a_node10"><a xlink:href="classTList.html" target="_top" xlink:title="A doubly linked list. ">
<polygon fill="#ffffff" stroke="#000000" points="1063,-329.7244 1063,-348.7244 1103,-348.7244 1103,-329.7244 1063,-329.7244"/>
<text text-anchor="middle" x="1083" y="-336.7244" font-family="Helvetica,sans-Serif" font-size="10.00" fill="#000000">TList</text>
</a>
</g>
</g>
<!-- Node12&#45;&gt;Node3 -->
<g id="edge41" class="edge">
<title>Node12&#45;&gt;Node3</title>
<path fill="none" stroke="#9a32cd" stroke-dasharray="5,2" d="M1113.2656,-334.5423C1150.7378,-328.3819 1216.3074,-316.4096 1271,-300.2244 1279.2308,-297.7887 1280.6628,-295.2666 1289,-293.2244 1381.3705,-270.5977 1493.5602,-263.4672 1551.0352,-261.2333"/>
<polygon fill="#9a32cd" stroke="#9a32cd" points="1112.3418,-331.1461 1103.0275,-336.1952 1113.4576,-338.0566 1112.3418,-331.1461"/>
<text text-anchor="middle" x="1364" y="-296.2244" font-family="Helvetica,sans-Serif" font-size="10.00" fill="#000000"> fEngines</text>
</g>
<!-- Node12&#45;&gt;Node11 -->
<g id="edge11" class="edge">
<title>Node12&#45;&gt;Node11</title>
<path fill="none" stroke="#9a32cd" stroke-dasharray="5,2" d="M1109.0532,-324.583C1127.3671,-314.4098 1152.516,-300.6772 1175,-289.2244 1235.2336,-258.5428 1307.712,-224.935 1342.8451,-208.8498"/>
<polygon fill="#9a32cd" stroke="#9a32cd" points="1107.179,-321.6206 1100.1495,-329.5476 1110.588,-327.7345 1107.179,-321.6206"/>
<text text-anchor="middle" x="1223" y="-292.2244" font-family="Helvetica,sans-Serif" font-size="10.00" fill="#000000"> fRestrictions</text>
</g>
<!-- Node24 -->
<g id="node22" class="node">
<title>Node24</title>
<g id="a_node22"><a xlink:href="classTQObject.html" target="_top" xlink:title="This is the ROOT implementation of the Qt object communication mechanism (see also http://www...">
<polygon fill="#ffffff" stroke="#000000" points="1333,-460.7244 1333,-479.7244 1395,-479.7244 1395,-460.7244 1333,-460.7244"/>
<text text-anchor="middle" x="1364" y="-467.7244" font-family="Helvetica,sans-Serif" font-size="10.00" fill="#000000">TQObject</text>
</a>
</g>
</g>
<!-- Node12&#45;&gt;Node24 -->
<g id="edge32" class="edge">
<title>Node12&#45;&gt;Node24</title>
<path fill="none" stroke="#9a32cd" stroke-dasharray="5,2" d="M1106.2188,-354.3742C1143.4161,-378.0523 1219.2816,-423.9384 1289,-451.2244 1303.0093,-456.7073 1319.1159,-461.0294 1332.8033,-464.1569"/>
<polygon fill="#9a32cd" stroke="#9a32cd" points="1107.9287,-351.3128 1097.6222,-348.8576 1104.1481,-357.2041 1107.9287,-351.3128"/>
<text text-anchor="middle" x="1223" y="-455.2244" font-family="Helvetica,sans-Serif" font-size="10.00" fill="#000000"> fListOfConnections</text>
<text text-anchor="middle" x="1223" y="-444.2244" font-family="Helvetica,sans-Serif" font-size="10.00" fill="#000000">fListOfSignals</text>
</g>
<!-- Node13 -->
<g id="node11" class="node">
<title>Node13</title>
<g id="a_node11"><a xlink:href="classTSeqCollection.html" target="_top" xlink:title="Sequenceable collection abstract base class. ">
<polygon fill="#ffffff" stroke="#000000" points="768.5,-376.7244 768.5,-395.7244 857.5,-395.7244 857.5,-376.7244 768.5,-376.7244"/>
<text text-anchor="middle" x="813" y="-383.7244" font-family="Helvetica,sans-Serif" font-size="10.00" fill="#000000">TSeqCollection</text>
</a>
</g>
</g>
<!-- Node13&#45;&gt;Node12 -->
<g id="edge12" class="edge">
<title>Node13&#45;&gt;Node12</title>
<path fill="none" stroke="#191970" d="M867.7124,-376.7004C928.1106,-366.1866 1022.184,-349.8109 1062.992,-342.7073"/>
<polygon fill="#191970" stroke="#191970" points="866.8366,-373.3001 857.585,-378.4633 868.0371,-380.1964 866.8366,-373.3001"/>
</g>
<!-- Node14&#45;&gt;Node13 -->
<g id="edge13" class="edge">
<title>Node14&#45;&gt;Node13</title>
<path fill="none" stroke="#191970" d="M651.0937,-406.5115C685.9656,-402.142 733.7854,-396.1501 768.4064,-391.812"/>
<polygon fill="#191970" stroke="#191970" points="650.6578,-403.0386 641.1705,-407.7549 651.5281,-409.9843 650.6578,-403.0386"/>
</g>
<!-- Node14&#45;&gt;Node14 -->
<g id="edge19" class="edge">
<title>Node14&#45;&gt;Node14</title>
<path fill="none" stroke="#9a32cd" stroke-dasharray="5,2" d="M589.5749,-431.6244C590.6384,-436.539 595.9468,-440.2244 605.5,-440.2244 620.7852,-440.2244 625.2035,-430.7897 618.7551,-421.9815"/>
<polygon fill="#9a32cd" stroke="#9a32cd" points="592.9494,-432.5529 592.2449,-421.9815 586.2032,-430.6849 592.9494,-432.5529"/>
<text text-anchor="middle" x="605.5" y="-443.2244" font-family="Helvetica,sans-Serif" font-size="10.00" fill="#000000"> fgCurrentCollection</text>
</g>
<!-- Node15&#45;&gt;Node14 -->
<g id="edge15" class="edge">
<title>Node15&#45;&gt;Node14</title>
<path fill="none" stroke="#9a32cd" stroke-dasharray="5,2" d="M436.9963,-437.2575C468.7953,-432.7829 510.8342,-426.7875 548,-421.2244 555.0949,-420.1624 562.6773,-418.9972 569.9309,-417.8678"/>
<polygon fill="#9a32cd" stroke="#9a32cd" points="436.4669,-433.7974 427.051,-438.6543 437.4406,-440.7294 436.4669,-433.7974"/>
<text text-anchor="middle" x="496.5" y="-438.2244" font-family="Helvetica,sans-Serif" font-size="10.00" fill="#000000"> fgGarbageCollection</text>
</g>
<!-- Node16 -->
<g id="node14" class="node">
<title>Node16</title>
<polygon fill="#ffffff" stroke="#bfbfbf" points="739,-329.7244 739,-348.7244 887,-348.7244 887,-329.7244 739,-329.7244"/>
<text text-anchor="middle" x="813" y="-336.7244" font-family="Helvetica,sans-Serif" font-size="10.00" fill="#000000">std::weak_ptr&lt; TObjLink &gt;</text>
</g>
<!-- Node16&#45;&gt;Node12 -->
<g id="edge20" class="edge">
<title>Node16&#45;&gt;Node12</title>
<path fill="none" stroke="#9a32cd" stroke-dasharray="5,2" d="M897.4232,-339.2244C955.4749,-339.2244 1028.1128,-339.2244 1062.7765,-339.2244"/>
<polygon fill="#9a32cd" stroke="#9a32cd" points="897.1358,-335.7245 887.1358,-339.2244 897.1358,-342.7245 897.1358,-335.7245"/>
<text text-anchor="middle" x="948" y="-342.2244" font-family="Helvetica,sans-Serif" font-size="10.00" fill="#000000"> fCache</text>
</g>
<!-- Node17&#45;&gt;Node11 -->
<g id="edge21" class="edge">
<title>Node17&#45;&gt;Node11</title>
<path fill="none" stroke="#9a32cd" stroke-dasharray="5,2" d="M655.553,-155.3597C766.5395,-158.1721 1041.6163,-166.7703 1271,-187.2244 1288.999,-188.8294 1308.8739,-191.2986 1325.6139,-193.5808"/>
<polygon fill="#9a32cd" stroke="#9a32cd" points="655.4157,-151.8553 645.3317,-155.1054 655.2415,-158.8531 655.4157,-151.8553"/>
<text text-anchor="middle" x="948" y="-170.2244" font-family="Helvetica,sans-Serif" font-size="10.00" fill="#000000"> fCurrentArg</text>
</g>
<!-- Node18 -->
<g id="node16" class="node">
<title>Node18</title>
<g id="a_node16"><a xlink:title="STL class. ">
<polygon fill="#ffffff" stroke="#bfbfbf" points="354.5,-50.7244 354.5,-69.7244 419.5,-69.7244 419.5,-50.7244 354.5,-50.7244"/>
<text text-anchor="middle" x="387" y="-57.7244" font-family="Helvetica,sans-Serif" font-size="10.00" fill="#000000">std::string</text>
</a>
</g>
</g>
<!-- Node18&#45;&gt;Node3 -->
<g id="edge39" class="edge">
<title>Node18&#45;&gt;Node3</title>
<path fill="none" stroke="#9a32cd" stroke-dasharray="5,2" d="M418.9086,-46.9236C460.9136,-30.6467 537.4175,-5.2244 605.5,-5.2244 605.5,-5.2244 605.5,-5.2244 1364,-5.2244 1436.0439,-5.2244 1470.2025,16.6937 1524,-31.2244 1558.1781,-61.6672 1581.873,-210.8661 1587.6388,-250.527"/>
<polygon fill="#9a32cd" stroke="#9a32cd" points="417.5074,-43.7139 409.4935,-50.6441 420.08,-50.224 417.5074,-43.7139"/>
<text text-anchor="middle" x="948" y="-52.2244" font-family="Helvetica,sans-Serif" font-size="10.00" fill="#000000"> fDefaultPage</text>
<text text-anchor="middle" x="948" y="-41.2244" font-family="Helvetica,sans-Serif" font-size="10.00" fill="#000000">fDrawPage</text>
<text text-anchor="middle" x="948" y="-30.2244" font-family="Helvetica,sans-Serif" font-size="10.00" fill="#000000">fCors</text>
<text text-anchor="middle" x="948" y="-19.2244" font-family="Helvetica,sans-Serif" font-size="10.00" fill="#000000">fDrawPageCont</text>
<text text-anchor="middle" x="948" y="-8.2244" font-family="Helvetica,sans-Serif" font-size="10.00" fill="#000000">fDefaultPageCont</text>
</g>
<!-- Node18&#45;&gt;Node17 -->
<g id="edge24" class="edge">
<title>Node18&#45;&gt;Node17</title>
<path fill="none" stroke="#9a32cd" stroke-dasharray="5,2" d="M429.476,-72.3064C462.5834,-82.4201 509.2783,-98.2313 548,-117.2244 563.9866,-125.0659 580.98,-136.4211 592.3117,-144.4802"/>
<polygon fill="#9a32cd" stroke="#9a32cd" points="430.2457,-68.8831 419.6613,-69.3534 428.2289,-75.5863 430.2457,-68.8831"/>
<text text-anchor="middle" x="496.5" y="-131.2244" font-family="Helvetica,sans-Serif" font-size="10.00" fill="#000000"> fPostData</text>
<text text-anchor="middle" x="496.5" y="-120.2244" font-family="Helvetica,sans-Serif" font-size="10.00" fill="#000000">fContent</text>
</g>
<!-- Node19 -->
<g id="node17" class="node">
<title>Node19</title>
<polygon fill="#ffffff" stroke="#bfbfbf" points="174,-45.2244 174,-75.2244 278,-75.2244 278,-45.2244 174,-45.2244"/>
<text text-anchor="start" x="182" y="-63.2244" font-family="Helvetica,sans-Serif" font-size="10.00" fill="#000000">std::basic_string&lt;</text>
<text text-anchor="middle" x="226" y="-52.2244" font-family="Helvetica,sans-Serif" font-size="10.00" fill="#000000"> char &gt;</text>
</g>
<!-- Node19&#45;&gt;Node18 -->
<g id="edge25" class="edge">
<title>Node19&#45;&gt;Node18</title>
<path fill="none" stroke="#191970" d="M288.4157,-60.2244C310.8541,-60.2244 335.2692,-60.2244 354.1888,-60.2244"/>
<polygon fill="#191970" stroke="#191970" points="288.2721,-56.7245 278.2721,-60.2244 288.2721,-63.7245 288.2721,-56.7245"/>
</g>
<!-- Node20 -->
<g id="node18" class="node">
<title>Node20</title>
<polygon fill="#ffffff" stroke="#bfbfbf" points="1009,-111.7244 1009,-130.7244 1157,-130.7244 1157,-111.7244 1009,-111.7244"/>
<text text-anchor="middle" x="1083" y="-118.7244" font-family="Helvetica,sans-Serif" font-size="10.00" fill="#000000">std::unique_ptr&lt; TFolder &gt;</text>
</g>
<!-- Node20&#45;&gt;Node11 -->
<g id="edge26" class="edge">
<title>Node20&#45;&gt;Node11</title>
<path fill="none" stroke="#9a32cd" stroke-dasharray="5,2" d="M1167.2864,-117.4871C1200.4251,-118.4584 1238.2903,-122.6714 1271,-134.2244 1305.1762,-146.2954 1338.2681,-174.5934 1354.1788,-189.5563"/>
<polygon fill="#9a32cd" stroke="#9a32cd" points="1167.2325,-113.9854 1157.1646,-117.2852 1167.0928,-120.984 1167.2325,-113.9854"/>
<text text-anchor="middle" x="1223" y="-137.2244" font-family="Helvetica,sans-Serif" font-size="10.00" fill="#000000"> fTopFolder</text>
</g>
<!-- Node21&#45;&gt;Node3 -->
<g id="edge27" class="edge">
<title>Node21&#45;&gt;Node3</title>
<path fill="none" stroke="#9a32cd" stroke-dasharray="5,2" d="M1799.8356,-299.8475C1760.8822,-293.4894 1703.6856,-283.8406 1654,-274.2244 1645.1601,-272.5135 1635.6728,-270.5455 1626.7532,-268.6359"/>
<polygon fill="#9a32cd" stroke="#9a32cd" points="1799.3911,-303.3211 1809.8231,-301.4708 1800.5141,-296.4118 1799.3911,-303.3211"/>
<text text-anchor="middle" x="1747.5" y="-297.2244" font-family="Helvetica,sans-Serif" font-size="10.00" fill="#000000"> fTimer</text>
</g>
<!-- Node22&#45;&gt;Node21 -->
<g id="edge28" class="edge">
<title>Node22&#45;&gt;Node21</title>
<path fill="none" stroke="#191970" d="M1756.7079,-489.4347C1777.1972,-447.624 1825.958,-348.1223 1841.2968,-316.8218"/>
<polygon fill="#191970" stroke="#191970" points="1753.5085,-488.0098 1752.2509,-498.5298 1759.7943,-491.0902 1753.5085,-488.0098"/>
</g>
<!-- Node23&#45;&gt;Node22 -->
<g id="edge29" class="edge">
<title>Node23&#45;&gt;Node22</title>
<path fill="none" stroke="#191970" d="M1646.3109,-480.944C1664.8199,-484.7363 1685.367,-489.2964 1704,-494.2244 1709.8291,-495.7661 1716.031,-497.6263 1721.8707,-499.48"/>
<polygon fill="#191970" stroke="#191970" points="1646.7574,-477.4637 1636.2629,-478.9187 1645.3742,-484.3257 1646.7574,-477.4637"/>
</g>
<!-- Node24&#45;&gt;Node23 -->
<g id="edge31" class="edge">
<title>Node24&#45;&gt;Node23</title>
<path fill="none" stroke="#191970" d="M1405.6492,-470.2244C1444.2658,-470.2244 1501.6643,-470.2244 1541.9268,-470.2244"/>
<polygon fill="#191970" stroke="#191970" points="1405.2853,-466.7245 1395.2853,-470.2244 1405.2853,-473.7245 1405.2853,-466.7245"/>
</g>
<!-- Node25 -->
<g id="node23" class="node">
<title>Node25</title>
<g id="a_node23"><a xlink:href="classTTime.html" target="_top" xlink:title="Basic time type with millisecond precision. ">
<polygon fill="#ffffff" stroke="#000000" points="1565.5,-536.7244 1565.5,-555.7244 1612.5,-555.7244 1612.5,-536.7244 1565.5,-536.7244"/>
<text text-anchor="middle" x="1589" y="-543.7244" font-family="Helvetica,sans-Serif" font-size="10.00" fill="#000000">TTime</text>
</a>
</g>
</g>
<!-- Node25&#45;&gt;Node22 -->
<g id="edge34" class="edge">
<title>Node25&#45;&gt;Node22</title>
<path fill="none" stroke="#9a32cd" stroke-dasharray="5,2" d="M1622.4907,-540.2036C1645.5511,-535.8219 1676.813,-529.4147 1704,-522.2244 1709.8291,-520.6828 1716.031,-518.8226 1721.8707,-516.9689"/>
<polygon fill="#9a32cd" stroke="#9a32cd" points="1621.7023,-536.7903 1612.5166,-542.0698 1622.9898,-543.6709 1621.7023,-536.7903"/>
<text text-anchor="middle" x="1679" y="-547.2244" font-family="Helvetica,sans-Serif" font-size="10.00" fill="#000000"> fAbsTime</text>
<text text-anchor="middle" x="1679" y="-536.2244" font-family="Helvetica,sans-Serif" font-size="10.00" fill="#000000">fTime</text>
</g>
<!-- Node26 -->
<g id="node24" class="node">
<title>Node26</title>
<polygon fill="#ffffff" stroke="#bfbfbf" points="1289,-411.2244 1289,-441.2244 1439,-441.2244 1439,-411.2244 1289,-411.2244"/>
<text text-anchor="start" x="1297" y="-429.2244" font-family="Helvetica,sans-Serif" font-size="10.00" fill="#000000">std::vector&lt; std::shared</text>
<text text-anchor="middle" x="1364" y="-418.2244" font-family="Helvetica,sans-Serif" font-size="10.00" fill="#000000">_ptr&lt; THttpWSHandler &gt; &gt;</text>
</g>
<!-- Node26&#45;&gt;Node3 -->
<g id="edge37" class="edge">
<title>Node26&#45;&gt;Node3</title>
<path fill="none" stroke="#9a32cd" stroke-dasharray="5,2" d="M1449.2759,-409.9597C1475.3229,-401.8739 1502.6848,-389.8927 1524,-372.2244 1558.6173,-343.53 1578.8179,-291.3112 1585.9992,-269.8386"/>
<polygon fill="#9a32cd" stroke="#9a32cd" points="1447.9793,-406.6927 1439.3728,-412.8716 1449.954,-413.4084 1447.9793,-406.6927"/>
<text text-anchor="middle" x="1490.5" y="-409.2244" font-family="Helvetica,sans-Serif" font-size="10.00" fill="#000000"> fWSHandlers</text>
</g>
<!-- Node27 -->
<g id="node25" class="node">
<title>Node27</title>
<polygon fill="#ffffff" stroke="#bfbfbf" points="1303,-362.2244 1303,-392.2244 1425,-392.2244 1425,-362.2244 1303,-362.2244"/>
<text text-anchor="start" x="1311" y="-380.2244" font-family="Helvetica,sans-Serif" font-size="10.00" fill="#000000">std::map&lt; std::string,</text>
<text text-anchor="middle" x="1364" y="-369.2244" font-family="Helvetica,sans-Serif" font-size="10.00" fill="#000000"> std::string &gt;</text>
</g>
<!-- Node27&#45;&gt;Node3 -->
<g id="edge40" class="edge">
<title>Node27&#45;&gt;Node3</title>
<path fill="none" stroke="#9a32cd" stroke-dasharray="5,2" d="M1435.3303,-364.2893C1464.2984,-356.9406 1497.184,-345.7893 1524,-329.2244 1549.7626,-313.3103 1572.0706,-284.6272 1582.5809,-269.7518"/>
<polygon fill="#9a32cd" stroke="#9a32cd" points="1434.156,-360.9726 1425.2638,-366.7326 1435.8072,-367.7751 1434.156,-360.9726"/>
<text text-anchor="middle" x="1490.5" y="-360.2244" font-family="Helvetica,sans-Serif" font-size="10.00" fill="#000000"> fLocations</text>
</g>
<!-- Node28 -->
<g id="node26" class="node">
<title>Node28</title>
<polygon fill="#ffffff" stroke="#bfbfbf" points="1297.5,-313.2244 1297.5,-343.2244 1430.5,-343.2244 1430.5,-313.2244 1297.5,-313.2244"/>
<text text-anchor="start" x="1305.5" y="-331.2244" font-family="Helvetica,sans-Serif" font-size="10.00" fill="#000000">std::queue&lt; std::shared</text>
<text text-anchor="middle" x="1364" y="-320.2244" font-family="Helvetica,sans-Serif" font-size="10.00" fill="#000000">_ptr&lt; THttpCallArg &gt; &gt;</text>
</g>
<!-- Node28&#45;&gt;Node3 -->
<g id="edge42" class="edge">
<title>Node28&#45;&gt;Node3</title>
<path fill="none" stroke="#9a32cd" stroke-dasharray="5,2" d="M1440.827,-318.561C1467.6609,-313.8278 1497.6468,-306.9767 1524,-297.2244 1542.7538,-290.2844 1562.4665,-278.3046 1575.1978,-269.86"/>
<polygon fill="#9a32cd" stroke="#9a32cd" points="1439.9869,-315.1533 1430.7111,-320.273 1441.155,-322.0552 1439.9869,-315.1533"/>
<text text-anchor="middle" x="1490.5" y="-317.2244" font-family="Helvetica,sans-Serif" font-size="10.00" fill="#000000"> fArgs</text>
</g>
<!-- Node29 -->
<g id="node27" class="node">
<title>Node29</title>
<g id="a_node27"><a xlink:title="STL class. ">
<polygon fill="#ffffff" stroke="#bfbfbf" points="1329.5,-35.7244 1329.5,-54.7244 1398.5,-54.7244 1398.5,-35.7244 1329.5,-35.7244"/>
<text text-anchor="middle" x="1364" y="-42.7244" font-family="Helvetica,sans-Serif" font-size="10.00" fill="#000000">std::thread</text>
</a>
</g>
</g>
<!-- Node29&#45;&gt;Node3 -->
<g id="edge43" class="edge">
<title>Node29&#45;&gt;Node3</title>
<path fill="none" stroke="#9a32cd" stroke-dasharray="5,2" d="M1408.5395,-36.4848C1443.6137,-32.2634 1491.7982,-32.698 1524,-58.2244 1555.6848,-83.341 1580.8213,-213.8914 1587.345,-250.608"/>
<polygon fill="#9a32cd" stroke="#9a32cd" points="1407.9964,-33.0264 1398.564,-37.8514 1408.9465,-39.9617 1407.9964,-33.0264"/>
<text text-anchor="middle" x="1490.5" y="-61.2244" font-family="Helvetica,sans-Serif" font-size="10.00" fill="#000000"> fThrd</text>
</g>
</g>
</svg>
