<?xml version="1.0" encoding="UTF-8" standalone="no"?>
<!DOCTYPE svg PUBLIC "-//W3C//DTD SVG 1.1//EN"
 "http://www.w3.org/Graphics/SVG/1.1/DTD/svg11.dtd">
<!-- Generated by graphviz version 2.40.1 (0)
 -->
<!-- Title: TEveMCTrack Pages: 1 -->
<svg width="627pt" height="566pt"
 viewBox="0.00 0.00 627.00 566.00" xmlns="http://www.w3.org/2000/svg" xmlns:xlink="http://www.w3.org/1999/xlink">
<g id="graph0" class="graph" transform="scale(1 1) rotate(0) translate(4 562)">
<title>TEveMCTrack</title>
<polygon fill="#ffffff" stroke="transparent" points="-4,4 -4,-562 623,-562 623,4 -4,4"/>
<!-- Node5 -->
<g id="node1" class="node">
<title>Node5</title>
<polygon fill="#bfbfbf" stroke="#000000" points="483,-.5 483,-19.5 564,-19.5 564,-.5 483,-.5"/>
<text text-anchor="middle" x="523.5" y="-7.5" font-family="Helvetica,sans-Serif" font-size="10.00" fill="#000000">TEveMCTrack</text>
</g>
<!-- Node6 -->
<g id="node2" class="node">
<title>Node6</title>
<g id="a_node2"><a xlink:href="classTParticle.html" target="_top" xlink:title="Description of the dynamic properties of a particle. ">
<polygon fill="#ffffff" stroke="#000000" points="409,-78.5 409,-97.5 468,-97.5 468,-78.5 409,-78.5"/>
<text text-anchor="middle" x="438.5" y="-85.5" font-family="Helvetica,sans-Serif" font-size="10.00" fill="#000000">TParticle</text>
</a>
</g>
</g>
<!-- Node6&#45;&gt;Node5 -->
<g id="edge1" class="edge">
<title>Node6&#45;&gt;Node5</title>
<path fill="none" stroke="#191970" d="M456.6157,-71.3762C473.7677,-55.6367 498.9274,-32.5489 512.9921,-19.6426"/>
<polygon fill="#191970" stroke="#191970" points="453.9242,-69.0957 448.9227,-78.4357 458.6571,-74.2533 453.9242,-69.0957"/>
</g>
<!-- Node7 -->
<g id="node3" class="node">
<title>Node7</title>
<g id="a_node3"><a xlink:href="classTObject.html" target="_top" xlink:title="Mother of all ROOT objects. ">
<polygon fill="#ffffff" stroke="#000000" points="391.5,-471.5 391.5,-490.5 445.5,-490.5 445.5,-471.5 391.5,-471.5"/>
<text text-anchor="middle" x="418.5" y="-478.5" font-family="Helvetica,sans-Serif" font-size="10.00" fill="#000000">TObject</text>
</a>
</g>
</g>
<!-- Node7&#45;&gt;Node6 -->
<g id="edge2" class="edge">
<title>Node7&#45;&gt;Node6</title>
<path fill="none" stroke="#191970" d="M455.6128,-474.1244C487.2034,-465.8746 527.5,-448.5751 527.5,-414 527.5,-414 527.5,-414 527.5,-155 527.5,-124.6357 494.0259,-106.3155 468.1357,-96.687"/>
<polygon fill="#191970" stroke="#191970" points="454.6325,-470.7601 445.7241,-476.4953 456.2646,-477.5672 454.6325,-470.7601"/>
</g>
<!-- Node11 -->
<g id="node7" class="node">
<title>Node11</title>
<g id="a_node7"><a xlink:href="classTNamed.html" target="_top" xlink:title="The TNamed class is the base class for all named ROOT classes. ">
<polygon fill="#ffffff" stroke="#000000" points="169.5,-326.5 169.5,-345.5 227.5,-345.5 227.5,-326.5 169.5,-326.5"/>
<text text-anchor="middle" x="198.5" y="-333.5" font-family="Helvetica,sans-Serif" font-size="10.00" fill="#000000">TNamed</text>
</a>
</g>
</g>
<!-- Node7&#45;&gt;Node11 -->
<g id="edge7" class="edge">
<title>Node7&#45;&gt;Node11</title>
<path fill="none" stroke="#191970" d="M382.0774,-468.492C371.0163,-464.1518 359.0142,-458.8805 348.5,-453 329.648,-442.4563 324.6389,-439.4072 309.5,-424 286.506,-400.5986 292.2197,-384.3677 266.5,-364 255.0899,-354.9642 240.3573,-348.4234 227.5239,-343.9473"/>
<polygon fill="#191970" stroke="#191970" points="380.903,-471.7898 391.4944,-472.0582 383.3821,-465.2434 380.903,-471.7898"/>
</g>
<!-- Node17 -->
<g id="node13" class="node">
<title>Node17</title>
<g id="a_node13"><a xlink:href="classTObjArray.html" target="_top" xlink:title="An array of TObjects. ">
<polygon fill="#ffffff" stroke="#000000" points="277,-212.5 277,-231.5 342,-231.5 342,-212.5 277,-212.5"/>
<text text-anchor="middle" x="309.5" y="-219.5" font-family="Helvetica,sans-Serif" font-size="10.00" fill="#000000">TObjArray</text>
</a>
</g>
</g>
<!-- Node7&#45;&gt;Node17 -->
<g id="edge22" class="edge">
<title>Node7&#45;&gt;Node17</title>
<path fill="none" stroke="#9a32cd" stroke-dasharray="5,2" d="M440.295,-464.9178C454.1518,-452.6982 469.5,-434.5298 469.5,-414 469.5,-414 469.5,-414 469.5,-279 469.5,-252.2398 389.0746,-234.7732 342.2645,-226.8734"/>
<polygon fill="#9a32cd" stroke="#9a32cd" points="437.9248,-462.3357 432.436,-471.3979 442.3781,-467.7365 437.9248,-462.3357"/>
<text text-anchor="middle" x="484.5" y="-333.5" font-family="Helvetica,sans-Serif" font-size="10.00" fill="#000000"> fCont</text>
</g>
<!-- Node19 -->
<g id="node15" class="node">
<title>Node19</title>
<g id="a_node15"><a xlink:href="classTCollection.html" target="_top" xlink:title="Collection abstract base class. ">
<polygon fill="#ffffff" stroke="#000000" points="246,-326.5 246,-345.5 317,-345.5 317,-326.5 246,-326.5"/>
<text text-anchor="middle" x="281.5" y="-333.5" font-family="Helvetica,sans-Serif" font-size="10.00" fill="#000000">TCollection</text>
</a>
</g>
</g>
<!-- Node7&#45;&gt;Node19 -->
<g id="edge16" class="edge">
<title>Node7&#45;&gt;Node19</title>
<path fill="none" stroke="#191970" d="M424.9356,-461.9C432.1753,-436.4964 440.1898,-391.5955 417.5,-364 404.984,-348.7779 352.9806,-341.5784 317.0341,-338.363"/>
<polygon fill="#191970" stroke="#191970" points="421.5818,-460.8986 421.9721,-471.4863 428.2696,-462.9661 421.5818,-460.8986"/>
</g>
<!-- Node20 -->
<g id="node16" class="node">
<title>Node20</title>
<g id="a_node16"><a xlink:href="classTObjectTable.html" target="_top" xlink:title="This class registers all instances of TObject and its derived classes in a hash table. ">
<polygon fill="#ffffff" stroke="#000000" points="318.5,-404.5 318.5,-423.5 398.5,-423.5 398.5,-404.5 318.5,-404.5"/>
<text text-anchor="middle" x="358.5" y="-411.5" font-family="Helvetica,sans-Serif" font-size="10.00" fill="#000000">TObjectTable</text>
</a>
</g>
</g>
<!-- Node7&#45;&gt;Node20 -->
<g id="edge18" class="edge">
<title>Node7&#45;&gt;Node20</title>
<path fill="none" stroke="#191970" d="M407.9512,-462.8186C403.5813,-455.9655 398.2021,-448.3087 392.5,-442 386.347,-435.1925 378.4918,-428.6147 371.8821,-423.547"/>
<polygon fill="#191970" stroke="#191970" points="405.0269,-464.7458 413.2199,-471.4634 411.0043,-461.1028 405.0269,-464.7458"/>
</g>
<!-- Node7&#45;&gt;Node20 -->
<g id="edge19" class="edge">
<title>Node7&#45;&gt;Node20</title>
<path fill="none" stroke="#9a32cd" stroke-dasharray="5,2" d="M381.5986,-472.6788C371.4213,-468.5073 361.5299,-462.2786 355.5,-453 349.8754,-444.345 351.9876,-432.2188 354.6321,-423.7947"/>
<polygon fill="#9a32cd" stroke="#9a32cd" points="380.7323,-476.0836 391.3271,-476.0804 383.0427,-469.4759 380.7323,-476.0836"/>
<text text-anchor="middle" x="372" y="-445" font-family="Helvetica,sans-Serif" font-size="10.00" fill="#000000"> fTable</text>
</g>
<!-- Node8 -->
<g id="node4" class="node">
<title>Node8</title>
<g id="a_node4"><a xlink:href="classTAttLine.html" target="_top" xlink:title="Line Attributes class. ">
<polygon fill="#ffffff" stroke="#000000" points="375.5,-145.5 375.5,-164.5 431.5,-164.5 431.5,-145.5 375.5,-145.5"/>
<text text-anchor="middle" x="403.5" y="-152.5" font-family="Helvetica,sans-Serif" font-size="10.00" fill="#000000">TAttLine</text>
</a>
</g>
</g>
<!-- Node8&#45;&gt;Node6 -->
<g id="edge3" class="edge">
<title>Node8&#45;&gt;Node6</title>
<path fill="none" stroke="#191970" d="M413.3014,-136.2374C419.8709,-123.6614 428.2483,-107.6246 433.4947,-97.5817"/>
<polygon fill="#191970" stroke="#191970" points="410.0427,-134.9165 408.5146,-145.4005 416.2471,-138.1576 410.0427,-134.9165"/>
</g>
<!-- Node9 -->
<g id="node5" class="node">
<title>Node9</title>
<g id="a_node5"><a xlink:href="classTAtt3D.html" target="_top" xlink:title="Use this attribute class when an object should have 3D capabilities. ">
<polygon fill="#ffffff" stroke="#000000" points="449.5,-145.5 449.5,-164.5 499.5,-164.5 499.5,-145.5 449.5,-145.5"/>
<text text-anchor="middle" x="474.5" y="-152.5" font-family="Helvetica,sans-Serif" font-size="10.00" fill="#000000">TAtt3D</text>
</a>
</g>
</g>
<!-- Node9&#45;&gt;Node6 -->
<g id="edge4" class="edge">
<title>Node9&#45;&gt;Node6</title>
<path fill="none" stroke="#191970" d="M464.4186,-136.2374C457.6613,-123.6614 449.0446,-107.6246 443.6484,-97.5817"/>
<polygon fill="#191970" stroke="#191970" points="461.5257,-138.2482 469.3421,-145.4005 467.692,-134.935 461.5257,-138.2482"/>
</g>
<!-- Node10 -->
<g id="node6" class="node">
<title>Node10</title>
<g id="a_node6"><a xlink:href="classTParticlePDG.html" target="_top" xlink:title="Description of the static properties of a particle. ">
<polygon fill="#ffffff" stroke="#000000" points="196.5,-145.5 196.5,-164.5 276.5,-164.5 276.5,-145.5 196.5,-145.5"/>
<text text-anchor="middle" x="236.5" y="-152.5" font-family="Helvetica,sans-Serif" font-size="10.00" fill="#000000">TParticlePDG</text>
</a>
</g>
</g>
<!-- Node10&#45;&gt;Node6 -->
<g id="edge5" class="edge">
<title>Node10&#45;&gt;Node6</title>
<path fill="none" stroke="#9a32cd" stroke-dasharray="5,2" d="M273.8481,-142.1699C296.3216,-134.4906 325.5188,-124.5858 351.5,-116 370.4829,-109.7269 391.8552,-102.8459 408.6661,-97.4751"/>
<polygon fill="#9a32cd" stroke="#9a32cd" points="272.6734,-138.8726 264.345,-145.4214 274.9395,-145.4956 272.6734,-138.8726"/>
<text text-anchor="middle" x="383.5" y="-119" font-family="Helvetica,sans-Serif" font-size="10.00" fill="#000000"> fParticlePDG</text>
</g>
<!-- Node10&#45;&gt;Node10 -->
<g id="edge24" class="edge">
<title>Node10&#45;&gt;Node10</title>
<path fill="none" stroke="#9a32cd" stroke-dasharray="5,2" d="M286.7648,-159.8206C291.5048,-158.8334 294.5,-157.2266 294.5,-155 294.5,-151.4375 286.8323,-149.4614 276.6186,-149.0718"/>
<polygon fill="#9a32cd" stroke="#9a32cd" points="286.1797,-156.3636 276.6186,-160.9282 286.9394,-163.3222 286.1797,-156.3636"/>
<text text-anchor="middle" x="326" y="-152.5" font-family="Helvetica,sans-Serif" font-size="10.00" fill="#000000"> fAntiParticle</text>
</g>
<!-- Node11&#45;&gt;Node10 -->
<g id="edge6" class="edge">
<title>Node11&#45;&gt;Node10</title>
<path fill="none" stroke="#191970" d="M204.7763,-316.7164C207.3873,-308.2687 210.3127,-298.2022 212.5,-289 223.4309,-243.0131 231.9307,-187.0936 235.1263,-164.8294"/>
<polygon fill="#191970" stroke="#191970" points="201.4035,-315.774 201.7165,-326.3642 208.0759,-317.8902 201.4035,-315.774"/>
</g>
<!-- Node12 -->
<g id="node8" class="node">
<title>Node12</title>
<g id="a_node8"><a xlink:href="classTString.html" target="_top" xlink:title="Basic string class. ">
<polygon fill="#ffffff" stroke="#000000" points="146,-404.5 146,-423.5 197,-423.5 197,-404.5 146,-404.5"/>
<text text-anchor="middle" x="171.5" y="-411.5" font-family="Helvetica,sans-Serif" font-size="10.00" fill="#000000">TString</text>
</a>
</g>
</g>
<!-- Node12&#45;&gt;Node10 -->
<g id="edge23" class="edge">
<title>Node12&#45;&gt;Node10</title>
<path fill="none" stroke="#9a32cd" stroke-dasharray="5,2" d="M159.0359,-396.0129C149.6885,-380.7567 138.5,-357.9178 138.5,-336 138.5,-336 138.5,-336 138.5,-222 138.5,-191.6002 171.0335,-173.9891 198.6106,-164.5218"/>
<polygon fill="#9a32cd" stroke="#9a32cd" points="156.1292,-397.9635 164.5015,-404.4561 162.0054,-394.1595 156.1292,-397.9635"/>
<text text-anchor="middle" x="173.5" y="-276.5" font-family="Helvetica,sans-Serif" font-size="10.00" fill="#000000"> fParticleClass</text>
</g>
<!-- Node12&#45;&gt;Node11 -->
<g id="edge8" class="edge">
<title>Node12&#45;&gt;Node11</title>
<path fill="none" stroke="#9a32cd" stroke-dasharray="5,2" d="M168.7092,-394.3264C168.1487,-384.8394 168.6641,-373.4882 172.5,-364 175.3842,-356.8659 180.9929,-350.448 186.2649,-345.5621"/>
<polygon fill="#9a32cd" stroke="#9a32cd" points="165.2378,-394.7867 169.7269,-404.3835 172.2022,-394.0819 165.2378,-394.7867"/>
<text text-anchor="middle" x="189.5" y="-378" font-family="Helvetica,sans-Serif" font-size="10.00" fill="#000000"> fTitle</text>
<text text-anchor="middle" x="189.5" y="-367" font-family="Helvetica,sans-Serif" font-size="10.00" fill="#000000">fName</text>
</g>
<!-- Node12&#45;&gt;Node19 -->
<g id="edge20" class="edge">
<title>Node12&#45;&gt;Node19</title>
<path fill="none" stroke="#9a32cd" stroke-dasharray="5,2" d="M193.1514,-398.6472C215.3538,-382.9036 249.2038,-358.9009 267.9015,-345.6426"/>
<polygon fill="#9a32cd" stroke="#9a32cd" points="191.121,-395.7963 184.9882,-404.4357 195.17,-401.5064 191.121,-395.7963"/>
<text text-anchor="middle" x="259" y="-372.5" font-family="Helvetica,sans-Serif" font-size="10.00" fill="#000000"> fName</text>
</g>
<!-- Node13 -->
<g id="node9" class="node">
<title>Node13</title>
<g id="a_node9"><a xlink:href="structTString_1_1Rep__t.html" target="_top" xlink:title="TString::Rep_t">
<polygon fill="#ffffff" stroke="#000000" points="129.5,-471.5 129.5,-490.5 213.5,-490.5 213.5,-471.5 129.5,-471.5"/>
<text text-anchor="middle" x="171.5" y="-478.5" font-family="Helvetica,sans-Serif" font-size="10.00" fill="#000000">TString::Rep_t</text>
</a>
</g>
</g>
<!-- Node13&#45;&gt;Node12 -->
<g id="edge9" class="edge">
<title>Node13&#45;&gt;Node12</title>
<path fill="none" stroke="#9a32cd" stroke-dasharray="5,2" d="M171.5,-461.1079C171.5,-448.714 171.5,-433.3263 171.5,-423.5817"/>
<polygon fill="#9a32cd" stroke="#9a32cd" points="168.0001,-461.4005 171.5,-471.4005 175.0001,-461.4006 168.0001,-461.4005"/>
<text text-anchor="middle" x="184" y="-445" font-family="Helvetica,sans-Serif" font-size="10.00" fill="#000000"> fRep</text>
</g>
<!-- Node14 -->
<g id="node10" class="node">
<title>Node14</title>
<g id="a_node10"><a xlink:href="structTString_1_1LongStr__t.html" target="_top" xlink:title="TString::LongStr_t">
<polygon fill="#ffffff" stroke="#000000" points="0,-538.5 0,-557.5 103,-557.5 103,-538.5 0,-538.5"/>
<text text-anchor="middle" x="51.5" y="-545.5" font-family="Helvetica,sans-Serif" font-size="10.00" fill="#000000">TString::LongStr_t</text>
</a>
</g>
</g>
<!-- Node14&#45;&gt;Node13 -->
<g id="edge10" class="edge">
<title>Node14&#45;&gt;Node13</title>
<path fill="none" stroke="#9a32cd" stroke-dasharray="5,2" d="M77.6768,-533.3846C100.9489,-520.391 134.3033,-501.7681 154.3388,-490.5817"/>
<polygon fill="#9a32cd" stroke="#9a32cd" points="75.7181,-530.4696 68.6931,-538.4005 79.1306,-536.5815 75.7181,-530.4696"/>
<text text-anchor="middle" x="135" y="-512" font-family="Helvetica,sans-Serif" font-size="10.00" fill="#000000"> fLong</text>
</g>
<!-- Node15 -->
<g id="node11" class="node">
<title>Node15</title>
<g id="a_node11"><a xlink:href="structTString_1_1RawStr__t.html" target="_top" xlink:title="TString::RawStr_t">
<polygon fill="#ffffff" stroke="#000000" points="121,-538.5 121,-557.5 222,-557.5 222,-538.5 121,-538.5"/>
<text text-anchor="middle" x="171.5" y="-545.5" font-family="Helvetica,sans-Serif" font-size="10.00" fill="#000000">TString::RawStr_t</text>
</a>
</g>
</g>
<!-- Node15&#45;&gt;Node13 -->
<g id="edge11" class="edge">
<title>Node15&#45;&gt;Node13</title>
<path fill="none" stroke="#9a32cd" stroke-dasharray="5,2" d="M171.5,-528.1079C171.5,-515.714 171.5,-500.3263 171.5,-490.5817"/>
<polygon fill="#9a32cd" stroke="#9a32cd" points="168.0001,-528.4005 171.5,-538.4005 175.0001,-528.4006 168.0001,-528.4005"/>
<text text-anchor="middle" x="185.5" y="-512" font-family="Helvetica,sans-Serif" font-size="10.00" fill="#000000"> fRaw</text>
</g>
<!-- Node16 -->
<g id="node12" class="node">
<title>Node16</title>
<g id="a_node12"><a xlink:href="structTString_1_1ShortStr__t.html" target="_top" xlink:title="TString::ShortStr_t">
<polygon fill="#ffffff" stroke="#000000" points="240,-538.5 240,-557.5 345,-557.5 345,-538.5 240,-538.5"/>
<text text-anchor="middle" x="292.5" y="-545.5" font-family="Helvetica,sans-Serif" font-size="10.00" fill="#000000">TString::ShortStr_t</text>
</a>
</g>
</g>
<!-- Node16&#45;&gt;Node13 -->
<g id="edge12" class="edge">
<title>Node16&#45;&gt;Node13</title>
<path fill="none" stroke="#9a32cd" stroke-dasharray="5,2" d="M266.105,-533.3846C242.639,-520.391 209.0066,-501.7681 188.8042,-490.5817"/>
<polygon fill="#9a32cd" stroke="#9a32cd" points="264.7198,-536.6183 275.1637,-538.4005 268.1107,-530.4944 264.7198,-536.6183"/>
<text text-anchor="middle" x="256" y="-512" font-family="Helvetica,sans-Serif" font-size="10.00" fill="#000000"> fShort</text>
</g>
<!-- Node17&#45;&gt;Node10 -->
<g id="edge13" class="edge">
<title>Node17&#45;&gt;Node10</title>
<path fill="none" stroke="#9a32cd" stroke-dasharray="5,2" d="M291.4571,-205.44C277.454,-192.5879 258.5321,-175.2212 246.9397,-164.5817"/>
<polygon fill="#9a32cd" stroke="#9a32cd" points="289.3069,-208.2173 299.0409,-212.4005 294.0401,-203.0601 289.3069,-208.2173"/>
<text text-anchor="middle" x="305" y="-186" font-family="Helvetica,sans-Serif" font-size="10.00" fill="#000000"> fDecayList</text>
</g>
<!-- Node18 -->
<g id="node14" class="node">
<title>Node18</title>
<g id="a_node14"><a xlink:href="classTSeqCollection.html" target="_top" xlink:title="Sequenceable collection abstract base class. ">
<polygon fill="#ffffff" stroke="#000000" points="265,-269.5 265,-288.5 354,-288.5 354,-269.5 265,-269.5"/>
<text text-anchor="middle" x="309.5" y="-276.5" font-family="Helvetica,sans-Serif" font-size="10.00" fill="#000000">TSeqCollection</text>
</a>
</g>
</g>
<!-- Node18&#45;&gt;Node17 -->
<g id="edge14" class="edge">
<title>Node18&#45;&gt;Node17</title>
<path fill="none" stroke="#191970" d="M309.5,-259.2342C309.5,-249.8491 309.5,-239.0651 309.5,-231.5265"/>
<polygon fill="#191970" stroke="#191970" points="306.0001,-259.3307 309.5,-269.3307 313.0001,-259.3308 306.0001,-259.3307"/>
</g>
<!-- Node19&#45;&gt;Node18 -->
<g id="edge15" class="edge">
<title>Node19&#45;&gt;Node18</title>
<path fill="none" stroke="#191970" d="M290.7608,-317.1477C295.4726,-307.5558 300.9964,-296.3109 304.8203,-288.5265"/>
<polygon fill="#191970" stroke="#191970" points="287.5175,-315.812 286.2498,-326.3307 293.8004,-318.8984 287.5175,-315.812"/>
</g>
<!-- Node19&#45;&gt;Node19 -->
<g id="edge21" class="edge">
<title>Node19&#45;&gt;Node19</title>
<path fill="none" stroke="#9a32cd" stroke-dasharray="5,2" d="M327.2805,-340.3285C331.9895,-339.4765 335,-338.0337 335,-336 335,-332.7461 327.2932,-331.0047 317.2532,-330.776"/>
<polygon fill="#9a32cd" stroke="#9a32cd" points="326.9022,-336.8483 317.2532,-341.224 327.5249,-343.8206 326.9022,-336.8483"/>
<text text-anchor="middle" x="384" y="-333.5" font-family="Helvetica,sans-Serif" font-size="10.00" fill="#000000"> fgCurrentCollection</text>
</g>
<!-- Node20&#45;&gt;Node19 -->
<g id="edge17" class="edge">
<title>Node20&#45;&gt;Node19</title>
<path fill="none" stroke="#9a32cd" stroke-dasharray="5,2" d="M330.8346,-398.9141C325.094,-395.1148 319.3295,-390.7498 314.5,-386 302.1905,-373.8937 291.9693,-356.4642 286.304,-345.7054"/>
<polygon fill="#9a32cd" stroke="#9a32cd" points="329.3515,-402.112 339.6979,-404.393 333.0322,-396.1578 329.3515,-402.112"/>
<text text-anchor="middle" x="366" y="-372.5" font-family="Helvetica,sans-Serif" font-size="10.00" fill="#000000"> fgGarbageCollection</text>
</g>
<!-- Node21 -->
<g id="node17" class="node">
<title>Node21</title>
<g id="a_node17"><a xlink:href="classTEveVectorT.html" target="_top" xlink:title="TEveVectorT\&lt; Float_t \&gt;">
<polygon fill="#ffffff" stroke="#000000" points="486,-78.5 486,-97.5 619,-97.5 619,-78.5 486,-78.5"/>
<text text-anchor="middle" x="552.5" y="-85.5" font-family="Helvetica,sans-Serif" font-size="10.00" fill="#000000">TEveVectorT&lt; Float_t &gt;</text>
</a>
</g>
</g>
<!-- Node21&#45;&gt;Node5 -->
<g id="edge25" class="edge">
<title>Node21&#45;&gt;Node5</title>
<path fill="none" stroke="#9a32cd" stroke-dasharray="5,2" d="M545.3384,-68.7379C539.5423,-53.1484 531.6218,-31.845 527.0851,-19.6426"/>
<polygon fill="#9a32cd" stroke="#9a32cd" points="542.1785,-70.2823 548.944,-78.4357 548.7397,-67.8428 542.1785,-70.2823"/>
<text text-anchor="middle" x="563" y="-52" font-family="Helvetica,sans-Serif" font-size="10.00" fill="#000000"> fVDecay</text>
<text text-anchor="middle" x="563" y="-41" font-family="Helvetica,sans-Serif" font-size="10.00" fill="#000000">fPDecay</text>
</g>
</g>
</svg>
