<?xml version="1.0" encoding="UTF-8" standalone="no"?>
<!DOCTYPE svg PUBLIC "-//W3C//DTD SVG 1.1//EN"
 "http://www.w3.org/Graphics/SVG/1.1/DTD/svg11.dtd">
<!-- Generated by graphviz version 2.40.1 (0)
 -->
<!-- Title: RooMomentMorphND::Grid Pages: 1 -->
<!--zoomable 281 -->
<svg id="main" version="1.1" xmlns="http://www.w3.org/2000/svg" xmlns:xlink="http://www.w3.org/1999/xlink" xml:space="preserve" onload="init(evt)">
<style type="text/css"><![CDATA[
.edge:hover path { stroke: red; }
.edge:hover polygon { stroke: red; fill: red; }
]]></style>
<script type="text/javascript"><![CDATA[
var edges = document.getElementsByTagName('g');
if (edges && edges.length) {
  for (var i=0;i<edges.length;i++) {
    if (edges[i].id.substr(0,4)=='edge') {
      edges[i].setAttribute('class','edge');
    }
  }
}
]]></script>
        <defs>
                <circle id="rim" cx="0" cy="0" r="7"/>
                <circle id="rim2" cx="0" cy="0" r="3.5"/>
                <g id="zoomPlus">
                        <use xlink:href="#rim" fill="#404040">
                                <set attributeName="fill" to="#808080" begin="zoomplus.mouseover" end="zoomplus.mouseout"/>
                        </use>
                        <path d="M-4,0h8M0,-4v8" fill="none" stroke="white" stroke-width="1.5" pointer-events="none"/>
                </g>
                <g id="zoomMin">
                        <use xlink:href="#rim" fill="#404040">
                                <set attributeName="fill" to="#808080" begin="zoomminus.mouseover" end="zoomminus.mouseout"/>
                        </use>
                        <path d="M-4,0h8" fill="none" stroke="white" stroke-width="1.5" pointer-events="none"/>
                </g>
                <g id="dirArrow">
                        <path fill="none" stroke="white" stroke-width="1.5" d="M0,-3.0v7 M-2.5,-0.5L0,-3.0L2.5,-0.5"/>
                </g>
               <g id="resetDef">
                       <use xlink:href="#rim2" fill="#404040">
                               <set attributeName="fill" to="#808080" begin="reset.mouseover" end="reset.mouseout"/>
                       </use>
               </g>
        </defs>

<script type="text/javascript">
var viewWidth = 1267;
var viewHeight = 281;
var sectionId = 'dynsection-0';
</script>
<script xlink:href="svgpan.js"/>
<svg id="graph" class="graph">
<g id="viewport">
<title>RooMomentMorphND::Grid</title>
<polygon fill="#ffffff" stroke="transparent" points="-4,4 -4,-277.0058 1263,-277.0058 1263,4 -4,4"/>
<!-- Node1 -->
<g id="node1" class="node">
<title>Node1</title>
<polygon fill="#bfbfbf" stroke="#000000" points="1113,-82.5 1113,-101.5 1259,-101.5 1259,-82.5 1113,-82.5"/>
<text text-anchor="middle" x="1186" y="-89.5" font-family="Helvetica,sans-Serif" font-size="10.00" fill="#000000">RooMomentMorphND::Grid</text>
</g>
<!-- Node2 -->
<g id="node2" class="node">
<title>Node2</title>
<g id="a_node2"><a xlink:href="classRooArgList.html" target="_top" xlink:title="RooArgList is a container object that can hold multiple RooAbsArg objects. ">
<polygon fill="#ffffff" stroke="#000000" points="913.5,-175.5 913.5,-194.5 981.5,-194.5 981.5,-175.5 913.5,-175.5"/>
<text text-anchor="middle" x="947.5" y="-182.5" font-family="Helvetica,sans-Serif" font-size="10.00" fill="#000000">RooArgList</text>
</a>
</g>
</g>
<!-- Node2&#45;&gt;Node1 -->
<g id="edge1" class="edge">
<title>Node2&#45;&gt;Node1</title>
<path fill="none" stroke="#9a32cd" stroke-dasharray="5,2" d="M991.5199,-177.0799C1004.7118,-174.1797 1019.0977,-170.4852 1032,-166 1084.1135,-147.884 1141.7951,-117.0287 1169.4433,-101.5093"/>
<polygon fill="#9a32cd" stroke="#9a32cd" points="990.7748,-173.66 981.709,-179.1429 992.2153,-180.5102 990.7748,-173.66"/>
<text text-anchor="middle" x="1072.5" y="-160" font-family="Helvetica,sans-Serif" font-size="10.00" fill="#000000"> _pdfList</text>
</g>
<!-- Node3 -->
<g id="node3" class="node">
<title>Node3</title>
<g id="a_node3"><a xlink:href="classRooAbsCollection.html" target="_top" xlink:title="RooAbsCollection is an abstract container object that can hold multiple RooAbsArg objects...">
<polygon fill="#ffffff" stroke="#000000" points="725,-175.5 725,-194.5 826,-194.5 826,-175.5 725,-175.5"/>
<text text-anchor="middle" x="775.5" y="-182.5" font-family="Helvetica,sans-Serif" font-size="10.00" fill="#000000">RooAbsCollection</text>
</a>
</g>
</g>
<!-- Node3&#45;&gt;Node2 -->
<g id="edge2" class="edge">
<title>Node3&#45;&gt;Node2</title>
<path fill="none" stroke="#191970" d="M836.296,-185C862.2173,-185 891.4895,-185 913.4927,-185"/>
<polygon fill="#191970" stroke="#191970" points="836.1754,-181.5001 826.1754,-185 836.1753,-188.5001 836.1754,-181.5001"/>
</g>
<!-- Node4 -->
<g id="node4" class="node">
<title>Node4</title>
<g id="a_node4"><a xlink:href="classTObject.html" target="_top" xlink:title="Mother of all ROOT objects. ">
<polygon fill="#ffffff" stroke="#000000" points="319,-253.5 319,-272.5 373,-272.5 373,-253.5 319,-253.5"/>
<text text-anchor="middle" x="346" y="-260.5" font-family="Helvetica,sans-Serif" font-size="10.00" fill="#000000">TObject</text>
</a>
</g>
</g>
<!-- Node4&#45;&gt;Node3 -->
<g id="edge3" class="edge">
<title>Node4&#45;&gt;Node3</title>
<path fill="none" stroke="#191970" d="M383.1128,-267.5221C450.3548,-274.2017 595.6768,-281.6227 707,-238 731.3599,-228.4544 754.2508,-207.4002 766.416,-194.8917"/>
<polygon fill="#191970" stroke="#191970" points="383.3185,-264.0246 373.0084,-266.4644 382.5896,-270.9866 383.3185,-264.0246"/>
</g>
<!-- Node7 -->
<g id="node7" class="node">
<title>Node7</title>
<g id="a_node7"><a xlink:href="classTNamed.html" target="_top" xlink:title="The TNamed class is the base class for all named ROOT classes. ">
<polygon fill="#ffffff" stroke="#000000" points="490,-214.5 490,-233.5 548,-233.5 548,-214.5 490,-214.5"/>
<text text-anchor="middle" x="519" y="-221.5" font-family="Helvetica,sans-Serif" font-size="10.00" fill="#000000">TNamed</text>
</a>
</g>
</g>
<!-- Node4&#45;&gt;Node7 -->
<g id="edge7" class="edge">
<title>Node4&#45;&gt;Node7</title>
<path fill="none" stroke="#191970" d="M382.8849,-254.6849C414.8263,-247.4842 460.4048,-237.2093 489.8485,-230.5717"/>
<polygon fill="#191970" stroke="#191970" points="382.0167,-251.2927 373.0313,-256.9063 383.5562,-258.1213 382.0167,-251.2927"/>
</g>
<!-- Node5 -->
<g id="node5" class="node">
<title>Node5</title>
<g id="a_node5"><a xlink:href="classRooPrintable.html" target="_top" xlink:title="RooPlotable is a &#39;mix&#45;in&#39; base class that define the standard RooFit plotting and printing methods...">
<polygon fill="#ffffff" stroke="#000000" points="480,-129.5 480,-148.5 558,-148.5 558,-129.5 480,-129.5"/>
<text text-anchor="middle" x="519" y="-136.5" font-family="Helvetica,sans-Serif" font-size="10.00" fill="#000000">RooPrintable</text>
</a>
</g>
</g>
<!-- Node5&#45;&gt;Node3 -->
<g id="edge4" class="edge">
<title>Node5&#45;&gt;Node3</title>
<path fill="none" stroke="#191970" d="M568.5858,-146.9817C606.5379,-153.2017 660.1499,-162.2276 707,-171 714.3971,-172.3851 722.2291,-173.9204 729.8515,-175.452"/>
<polygon fill="#191970" stroke="#191970" points="568.7487,-143.462 558.3152,-145.3043 567.6203,-150.3705 568.7487,-143.462"/>
</g>
<!-- Node6 -->
<g id="node6" class="node">
<title>Node6</title>
<polygon fill="#ffffff" stroke="#bfbfbf" points="443,-91.5 443,-110.5 595,-110.5 595,-91.5 443,-91.5"/>
<text text-anchor="middle" x="519" y="-98.5" font-family="Helvetica,sans-Serif" font-size="10.00" fill="#000000">std::vector&lt; RooAbsArg * &gt;</text>
</g>
<!-- Node6&#45;&gt;Node3 -->
<g id="edge5" class="edge">
<title>Node6&#45;&gt;Node3</title>
<path fill="none" stroke="#9a32cd" stroke-dasharray="5,2" d="M605.1212,-111.1374C637.8658,-116.8514 674.9739,-125.6328 707,-139 728.9447,-148.1594 751.2322,-164.7819 764.1907,-175.3375"/>
<polygon fill="#9a32cd" stroke="#9a32cd" points="605.5504,-107.6606 595.1097,-109.4609 604.3942,-114.5645 605.5504,-107.6606"/>
<text text-anchor="middle" x="660" y="-142" font-family="Helvetica,sans-Serif" font-size="10.00" fill="#000000"> _list</text>
</g>
<!-- Node7&#45;&gt;Node3 -->
<g id="edge6" class="edge">
<title>Node7&#45;&gt;Node3</title>
<path fill="none" stroke="#9a32cd" stroke-dasharray="5,2" d="M558.2395,-219.5861C596.3545,-215.1092 655.8048,-207.6249 707,-199 714.7802,-197.6893 723.0256,-196.1416 730.9984,-194.5618"/>
<polygon fill="#9a32cd" stroke="#9a32cd" points="557.6083,-216.1358 548.0795,-220.7675 558.4168,-223.089 557.6083,-216.1358"/>
<text text-anchor="middle" x="660" y="-226" font-family="Helvetica,sans-Serif" font-size="10.00" fill="#000000"> _structureTag</text>
<text text-anchor="middle" x="660" y="-215" font-family="Helvetica,sans-Serif" font-size="10.00" fill="#000000">_typedStructureTag</text>
</g>
<!-- Node8 -->
<g id="node8" class="node">
<title>Node8</title>
<g id="a_node8"><a xlink:href="classTString.html" target="_top" xlink:title="Basic string class. ">
<polygon fill="#ffffff" stroke="#000000" points="320.5,-199.5 320.5,-218.5 371.5,-218.5 371.5,-199.5 320.5,-199.5"/>
<text text-anchor="middle" x="346" y="-206.5" font-family="Helvetica,sans-Serif" font-size="10.00" fill="#000000">TString</text>
</a>
</g>
</g>
<!-- Node8&#45;&gt;Node3 -->
<g id="edge13" class="edge">
<title>Node8&#45;&gt;Node3</title>
<path fill="none" stroke="#9a32cd" stroke-dasharray="5,2" d="M381.7535,-202.3656C400.0116,-199.2595 422.6181,-195.8443 443,-194 542.6393,-184.9838 659.7006,-184.0492 724.9681,-184.387"/>
<polygon fill="#9a32cd" stroke="#9a32cd" points="381.0784,-198.9305 371.8281,-204.0959 382.2807,-205.8265 381.0784,-198.9305"/>
<text text-anchor="middle" x="519" y="-197" font-family="Helvetica,sans-Serif" font-size="10.00" fill="#000000"> _name</text>
</g>
<!-- Node8&#45;&gt;Node7 -->
<g id="edge8" class="edge">
<title>Node8&#45;&gt;Node7</title>
<path fill="none" stroke="#9a32cd" stroke-dasharray="5,2" d="M381.7871,-212.1029C413.7921,-214.8779 460.1164,-218.8945 489.8974,-221.4767"/>
<polygon fill="#9a32cd" stroke="#9a32cd" points="381.7917,-208.5903 371.5267,-211.2133 381.187,-215.5641 381.7917,-208.5903"/>
<text text-anchor="middle" x="408" y="-229" font-family="Helvetica,sans-Serif" font-size="10.00" fill="#000000"> fTitle</text>
<text text-anchor="middle" x="408" y="-218" font-family="Helvetica,sans-Serif" font-size="10.00" fill="#000000">fName</text>
</g>
<!-- Node9 -->
<g id="node9" class="node">
<title>Node9</title>
<g id="a_node9"><a xlink:href="structTString_1_1Rep__t.html" target="_top" xlink:title="TString::Rep_t">
<polygon fill="#ffffff" stroke="#000000" points="174,-199.5 174,-218.5 258,-218.5 258,-199.5 174,-199.5"/>
<text text-anchor="middle" x="216" y="-206.5" font-family="Helvetica,sans-Serif" font-size="10.00" fill="#000000">TString::Rep_t</text>
</a>
</g>
</g>
<!-- Node9&#45;&gt;Node8 -->
<g id="edge9" class="edge">
<title>Node9&#45;&gt;Node8</title>
<path fill="none" stroke="#9a32cd" stroke-dasharray="5,2" d="M268.2646,-209C286.1698,-209 305.4169,-209 320.2798,-209"/>
<polygon fill="#9a32cd" stroke="#9a32cd" points="268.2073,-205.5001 258.2073,-209 268.2072,-212.5001 268.2073,-205.5001"/>
<text text-anchor="middle" x="288.5" y="-212" font-family="Helvetica,sans-Serif" font-size="10.00" fill="#000000"> fRep</text>
</g>
<!-- Node10 -->
<g id="node10" class="node">
<title>Node10</title>
<g id="a_node10"><a xlink:href="structTString_1_1LongStr__t.html" target="_top" xlink:title="TString::LongStr_t">
<polygon fill="#ffffff" stroke="#000000" points="1,-237.5 1,-256.5 104,-256.5 104,-237.5 1,-237.5"/>
<text text-anchor="middle" x="52.5" y="-244.5" font-family="Helvetica,sans-Serif" font-size="10.00" fill="#000000">TString::LongStr_t</text>
</a>
</g>
</g>
<!-- Node10&#45;&gt;Node9 -->
<g id="edge10" class="edge">
<title>Node10&#45;&gt;Node9</title>
<path fill="none" stroke="#9a32cd" stroke-dasharray="5,2" d="M106.8123,-235.2124C122.687,-231.6909 140.0552,-227.764 156,-224 163.315,-222.2732 171.1157,-220.3692 178.5896,-218.514"/>
<polygon fill="#9a32cd" stroke="#9a32cd" points="105.6358,-231.8878 96.626,-237.4622 107.1456,-238.7231 105.6358,-231.8878"/>
<text text-anchor="middle" x="139.5" y="-234" font-family="Helvetica,sans-Serif" font-size="10.00" fill="#000000"> fLong</text>
</g>
<!-- Node11 -->
<g id="node11" class="node">
<title>Node11</title>
<g id="a_node11"><a xlink:href="structTString_1_1RawStr__t.html" target="_top" xlink:title="TString::RawStr_t">
<polygon fill="#ffffff" stroke="#000000" points="2,-199.5 2,-218.5 103,-218.5 103,-199.5 2,-199.5"/>
<text text-anchor="middle" x="52.5" y="-206.5" font-family="Helvetica,sans-Serif" font-size="10.00" fill="#000000">TString::RawStr_t</text>
</a>
</g>
</g>
<!-- Node11&#45;&gt;Node9 -->
<g id="edge11" class="edge">
<title>Node11&#45;&gt;Node9</title>
<path fill="none" stroke="#9a32cd" stroke-dasharray="5,2" d="M113.38,-209C133.5543,-209 155.5459,-209 173.9777,-209"/>
<polygon fill="#9a32cd" stroke="#9a32cd" points="113.3362,-205.5001 103.3362,-209 113.3361,-212.5001 113.3362,-205.5001"/>
<text text-anchor="middle" x="139.5" y="-212" font-family="Helvetica,sans-Serif" font-size="10.00" fill="#000000"> fRaw</text>
</g>
<!-- Node12 -->
<g id="node12" class="node">
<title>Node12</title>
<g id="a_node12"><a xlink:href="structTString_1_1ShortStr__t.html" target="_top" xlink:title="TString::ShortStr_t">
<polygon fill="#ffffff" stroke="#000000" points="0,-161.5 0,-180.5 105,-180.5 105,-161.5 0,-161.5"/>
<text text-anchor="middle" x="52.5" y="-168.5" font-family="Helvetica,sans-Serif" font-size="10.00" fill="#000000">TString::ShortStr_t</text>
</a>
</g>
</g>
<!-- Node12&#45;&gt;Node9 -->
<g id="edge12" class="edge">
<title>Node12&#45;&gt;Node9</title>
<path fill="none" stroke="#9a32cd" stroke-dasharray="5,2" d="M106.8123,-182.7876C122.687,-186.3091 140.0552,-190.236 156,-194 163.315,-195.7268 171.1157,-197.6308 178.5896,-199.486"/>
<polygon fill="#9a32cd" stroke="#9a32cd" points="107.1456,-179.2769 96.626,-180.5378 105.6358,-186.1122 107.1456,-179.2769"/>
<text text-anchor="middle" x="139.5" y="-197" font-family="Helvetica,sans-Serif" font-size="10.00" fill="#000000"> fShort</text>
</g>
<!-- Node13 -->
<g id="node13" class="node">
<title>Node13</title>
<polygon fill="#ffffff" stroke="#bfbfbf" points="882,-126 882,-156 1013,-156 1013,-126 882,-126"/>
<text text-anchor="start" x="890" y="-144" font-family="Helvetica,sans-Serif" font-size="10.00" fill="#000000">std::vector&lt; std::vector</text>
<text text-anchor="middle" x="947.5" y="-133" font-family="Helvetica,sans-Serif" font-size="10.00" fill="#000000">&lt; double &gt; &gt;</text>
</g>
<!-- Node13&#45;&gt;Node1 -->
<g id="edge14" class="edge">
<title>Node13&#45;&gt;Node1</title>
<path fill="none" stroke="#9a32cd" stroke-dasharray="5,2" d="M1023.3685,-125.4128C1061.5816,-117.5619 1106.6758,-108.2972 1139.6756,-101.5174"/>
<polygon fill="#9a32cd" stroke="#9a32cd" points="1022.3935,-122.0399 1013.3025,-127.4808 1023.8023,-128.8967 1022.3935,-122.0399"/>
<text text-anchor="middle" x="1072.5" y="-122" font-family="Helvetica,sans-Serif" font-size="10.00" fill="#000000"> _nref</text>
</g>
<!-- Node14 -->
<g id="node14" class="node">
<title>Node14</title>
<polygon fill="#ffffff" stroke="#bfbfbf" points="886.5,-77 886.5,-107 1008.5,-107 1008.5,-77 886.5,-77"/>
<text text-anchor="start" x="894.5" y="-95" font-family="Helvetica,sans-Serif" font-size="10.00" fill="#000000">std::map&lt; std::vector</text>
<text text-anchor="middle" x="947.5" y="-84" font-family="Helvetica,sans-Serif" font-size="10.00" fill="#000000">&lt; int &gt;, int &gt;</text>
</g>
<!-- Node14&#45;&gt;Node1 -->
<g id="edge15" class="edge">
<title>Node14&#45;&gt;Node1</title>
<path fill="none" stroke="#9a32cd" stroke-dasharray="5,2" d="M1018.8815,-92C1048.5216,-92 1082.8923,-92 1112.7286,-92"/>
<polygon fill="#9a32cd" stroke="#9a32cd" points="1018.61,-88.5001 1008.61,-92 1018.6099,-95.5001 1018.61,-88.5001"/>
<text text-anchor="middle" x="1072.5" y="-95" font-family="Helvetica,sans-Serif" font-size="10.00" fill="#000000"> _pdfMap</text>
</g>
<!-- Node15 -->
<g id="node15" class="node">
<title>Node15</title>
<polygon fill="#ffffff" stroke="#bfbfbf" points="863,-38.5 863,-57.5 1032,-57.5 1032,-38.5 863,-38.5"/>
<text text-anchor="middle" x="947.5" y="-45.5" font-family="Helvetica,sans-Serif" font-size="10.00" fill="#000000">std::vector&lt; RooAbsBinning *&gt;</text>
</g>
<!-- Node15&#45;&gt;Node1 -->
<g id="edge16" class="edge">
<title>Node15&#45;&gt;Node1</title>
<path fill="none" stroke="#9a32cd" stroke-dasharray="5,2" d="M1009.3841,-59.4168C1048.1959,-66.577 1097.6506,-75.7007 1134.35,-82.4713"/>
<polygon fill="#9a32cd" stroke="#9a32cd" points="1009.72,-55.9198 999.2509,-57.5473 1008.45,-62.8036 1009.72,-55.9198"/>
<text text-anchor="middle" x="1072.5" y="-76" font-family="Helvetica,sans-Serif" font-size="10.00" fill="#000000"> _grid</text>
</g>
<!-- Node16 -->
<g id="node16" class="node">
<title>Node16</title>
<polygon fill="#ffffff" stroke="#bfbfbf" points="895.5,-.5 895.5,-19.5 999.5,-19.5 999.5,-.5 895.5,-.5"/>
<text text-anchor="middle" x="947.5" y="-7.5" font-family="Helvetica,sans-Serif" font-size="10.00" fill="#000000">std::vector&lt; int &gt;</text>
</g>
<!-- Node16&#45;&gt;Node1 -->
<g id="edge17" class="edge">
<title>Node16&#45;&gt;Node1</title>
<path fill="none" stroke="#9a32cd" stroke-dasharray="5,2" d="M1004.9288,-21.8644C1014.0358,-24.0467 1023.3121,-26.4489 1032,-29 1081.6128,-43.5682 1137.1368,-68.5648 1166.0496,-82.2839"/>
<polygon fill="#9a32cd" stroke="#9a32cd" points="1005.6822,-18.4463 995.1489,-19.5861 1004.094,-25.2637 1005.6822,-18.4463"/>
<text text-anchor="middle" x="1072.5" y="-53" font-family="Helvetica,sans-Serif" font-size="10.00" fill="#000000"> _nnuis</text>
</g>
</g>
</svg>
        <g id="navigator" transform="translate(0 0)" fill="#404254">
                <rect fill="#f2f5e9" fill-opacity="0.5" stroke="#606060" stroke-width=".5" x="0" y="0" width="60" height="60"/>
                <use id="zoomplus" xlink:href="#zoomPlus" x="17" y="9" onmousedown="handleZoom(evt,'in')"/>
                <use id="zoomminus" xlink:href="#zoomMin" x="42" y="9" onmousedown="handleZoom(evt,'out')"/>
                <use id="reset" xlink:href="#resetDef" x="30" y="36" onmousedown="handleReset()"/>
                <g id="arrowUp" xlink:href="#dirArrow" transform="translate(30 24)" onmousedown="handlePan(0,-1)">
                  <use xlink:href="#rim" fill="#404040">
                        <set attributeName="fill" to="#808080" begin="arrowUp.mouseover" end="arrowUp.mouseout"/>
                  </use>
                  <path fill="none" stroke="white" stroke-width="1.5" d="M0,-3.0v7 M-2.5,-0.5L0,-3.0L2.5,-0.5"/>
                </g>
                <g id="arrowRight" xlink:href="#dirArrow" transform="rotate(90) translate(36 -43)" onmousedown="handlePan(1,0)">
                  <use xlink:href="#rim" fill="#404040">
                        <set attributeName="fill" to="#808080" begin="arrowRight.mouseover" end="arrowRight.mouseout"/>
                  </use>
                  <path fill="none" stroke="white" stroke-width="1.5" d="M0,-3.0v7 M-2.5,-0.5L0,-3.0L2.5,-0.5"/>
                </g>
                <g id="arrowDown" xlink:href="#dirArrow" transform="rotate(180) translate(-30 -48)" onmousedown="handlePan(0,1)">
                  <use xlink:href="#rim" fill="#404040">
                        <set attributeName="fill" to="#808080" begin="arrowDown.mouseover" end="arrowDown.mouseout"/>
                  </use>
                  <path fill="none" stroke="white" stroke-width="1.5" d="M0,-3.0v7 M-2.5,-0.5L0,-3.0L2.5,-0.5"/>
                </g>
                <g id="arrowLeft" xlink:href="#dirArrow" transform="rotate(270) translate(-36 17)" onmousedown="handlePan(-1,0)">
                  <use xlink:href="#rim" fill="#404040">
                        <set attributeName="fill" to="#808080" begin="arrowLeft.mouseover" end="arrowLeft.mouseout"/>
                  </use>
                  <path fill="none" stroke="white" stroke-width="1.5" d="M0,-3.0v7 M-2.5,-0.5L0,-3.0L2.5,-0.5"/>
                </g>
        </g>
        <svg viewBox="0 0 15 15" width="100%" height="30px" preserveAspectRatio="xMaxYMin meet">
         <g id="arrow_out" transform="scale(0.3 0.3)">
          <a xlink:href="classRooMomentMorphND_1_1Grid__coll__graph_org.svg" target="_base">
           <rect id="button" ry="5" rx="5" y="6" x="6" height="38" width="38"
                fill="#f2f5e9" fill-opacity="0.5" stroke="#606060" stroke-width="1.0"/>
           <path id="arrow"
             d="M 11.500037,31.436501 C 11.940474,20.09759 22.043105,11.32322 32.158766,21.979434 L 37.068811,17.246167 C 37.068811,17.246167 37.088388,32 37.088388,32 L 22.160133,31.978069 C 22.160133,31.978069 26.997745,27.140456 26.997745,27.140456 C 18.528582,18.264221 13.291696,25.230495 11.500037,31.436501 z"
             style="fill:#404040;"/>
          </a>
         </g>
        </svg>
</svg>
