<?xml version="1.0" encoding="UTF-8" standalone="no"?>
<!DOCTYPE svg PUBLIC "-//W3C//DTD SVG 1.1//EN"
 "http://www.w3.org/Graphics/SVG/1.1/DTD/svg11.dtd">
<!-- Generated by graphviz version 2.40.1 (0)
 -->
<!-- Title: ROOT::Experimental::Internal::RHistBufferedFillBase&lt; DERIVED, HIST, SIZE &gt; Pages: 1 -->
<svg width="264pt" height="128pt"
 viewBox="0.00 0.00 263.50 128.00" xmlns="http://www.w3.org/2000/svg" xmlns:xlink="http://www.w3.org/1999/xlink">
<g id="graph0" class="graph" transform="scale(1 1) rotate(0) translate(4 124)">
<title>ROOT::Experimental::Internal::RHistBufferedFillBase&lt; DERIVED, HIST, SIZE &gt;</title>
<polygon fill="#ffffff" stroke="transparent" points="-4,4 -4,-124 259.5,-124 259.5,4 -4,4"/>
<!-- Node1 -->
<g id="node1" class="node">
<title>Node1</title>
<polygon fill="#bfbfbf" stroke="#000000" points="40.5,-.5 40.5,-41.5 203.5,-41.5 203.5,-.5 40.5,-.5"/>
<text text-anchor="start" x="48.5" y="-29.5" font-family="Helvetica,sans-Serif" font-size="10.00" fill="#000000">ROOT::Experimental</text>
<text text-anchor="start" x="48.5" y="-18.5" font-family="Helvetica,sans-Serif" font-size="10.00" fill="#000000">::Internal::RHistBufferedFill</text>
<text text-anchor="middle" x="122" y="-7.5" font-family="Helvetica,sans-Serif" font-size="10.00" fill="#000000">Base&lt; DERIVED, HIST, SIZE &gt;</text>
</g>
<!-- Node2 -->
<g id="node2" class="node">
<title>Node2</title>
<polygon fill="#ffffff" stroke="#bfbfbf" points="0,-89.5 0,-119.5 108,-119.5 108,-89.5 0,-89.5"/>
<text text-anchor="start" x="8" y="-107.5" font-family="Helvetica,sans-Serif" font-size="10.00" fill="#000000">std::array&lt; Weight</text>
<text text-anchor="middle" x="54" y="-96.5" font-family="Helvetica,sans-Serif" font-size="10.00" fill="#000000">_t, SIZE &gt;</text>
</g>
<!-- Node2&#45;&gt;Node1 -->
<g id="edge1" class="edge">
<title>Node2&#45;&gt;Node1</title>
<path fill="none" stroke="#9a32cd" stroke-dasharray="5,2" d="M73.0665,-81.0875C83.1844,-68.6632 95.5043,-53.5352 105.251,-41.5668"/>
<polygon fill="#9a32cd" stroke="#9a32cd" points="70.073,-79.2206 66.4722,-89.1848 75.5009,-83.6409 70.073,-79.2206"/>
<text text-anchor="middle" x="108" y="-63" font-family="Helvetica,sans-Serif" font-size="10.00" fill="#000000"> fWBuf</text>
</g>
<!-- Node3 -->
<g id="node3" class="node">
<title>Node3</title>
<polygon fill="#ffffff" stroke="#bfbfbf" points="126.5,-89.5 126.5,-119.5 255.5,-119.5 255.5,-89.5 126.5,-89.5"/>
<text text-anchor="start" x="134.5" y="-107.5" font-family="Helvetica,sans-Serif" font-size="10.00" fill="#000000">std::array&lt; CoordArray</text>
<text text-anchor="middle" x="191" y="-96.5" font-family="Helvetica,sans-Serif" font-size="10.00" fill="#000000">_t, SIZE &gt;</text>
</g>
<!-- Node3&#45;&gt;Node1 -->
<g id="edge2" class="edge">
<title>Node3&#45;&gt;Node1</title>
<path fill="none" stroke="#9a32cd" stroke-dasharray="5,2" d="M171.9486,-81.4451C161.627,-68.9544 148.9805,-53.6503 138.9953,-41.5668"/>
<polygon fill="#9a32cd" stroke="#9a32cd" points="169.2763,-83.7057 178.3443,-89.1848 174.6723,-79.2466 169.2763,-83.7057"/>
<text text-anchor="middle" x="177.5" y="-63" font-family="Helvetica,sans-Serif" font-size="10.00" fill="#000000"> fXBuf</text>
</g>
</g>
</svg>
