<?xml version="1.0" encoding="UTF-8" standalone="no"?>
<!DOCTYPE svg PUBLIC "-//W3C//DTD SVG 1.1//EN"
 "http://www.w3.org/Graphics/SVG/1.1/DTD/svg11.dtd">
<!-- Generated by graphviz version 2.40.1 (0)
 -->
<!-- Title: TXSocketHandler Pages: 1 -->
<svg width="142pt" height="196pt"
 viewBox="0.00 0.00 142.00 196.00" xmlns="http://www.w3.org/2000/svg" xmlns:xlink="http://www.w3.org/1999/xlink">
<g id="graph0" class="graph" transform="scale(1 1) rotate(0) translate(4 192)">
<title>TXSocketHandler</title>
<polygon fill="#ffffff" stroke="transparent" points="-4,4 -4,-192 138,-192 138,4 -4,4"/>
<!-- Node0 -->
<g id="node1" class="node">
<title>Node0</title>
<polygon fill="#bfbfbf" stroke="#000000" points="14.5,-.5 14.5,-19.5 115.5,-19.5 115.5,-.5 14.5,-.5"/>
<text text-anchor="middle" x="65" y="-7.5" font-family="Helvetica,sans-Serif" font-size="10.00" fill="#000000">TXSocketHandler</text>
</g>
<!-- Node1 -->
<g id="node2" class="node">
<title>Node1</title>
<g id="a_node2"><a xlink:href="classTFileHandler.html" target="_top" xlink:title="TFileHandler">
<polygon fill="#ffffff" stroke="#000000" points="26.5,-56.5 26.5,-75.5 103.5,-75.5 103.5,-56.5 26.5,-56.5"/>
<text text-anchor="middle" x="65" y="-63.5" font-family="Helvetica,sans-Serif" font-size="10.00" fill="#000000">TFileHandler</text>
</a>
</g>
</g>
<!-- Node1&#45;&gt;Node0 -->
<g id="edge1" class="edge">
<title>Node1&#45;&gt;Node0</title>
<path fill="none" stroke="#191970" d="M65,-46.1575C65,-37.155 65,-26.9199 65,-19.6427"/>
<polygon fill="#191970" stroke="#191970" points="61.5001,-46.2455 65,-56.2455 68.5001,-46.2456 61.5001,-46.2455"/>
</g>
<!-- Node2 -->
<g id="node3" class="node">
<title>Node2</title>
<g id="a_node3"><a xlink:href="classTSysEvtHandler.html" target="_top" xlink:title="Abstract base class for handling system events. ">
<polygon fill="#ffffff" stroke="#000000" points="18,-112.5 18,-131.5 112,-131.5 112,-112.5 18,-112.5"/>
<text text-anchor="middle" x="65" y="-119.5" font-family="Helvetica,sans-Serif" font-size="10.00" fill="#000000">TSysEvtHandler</text>
</a>
</g>
</g>
<!-- Node2&#45;&gt;Node1 -->
<g id="edge2" class="edge">
<title>Node2&#45;&gt;Node1</title>
<path fill="none" stroke="#191970" d="M65,-102.1575C65,-93.155 65,-82.9199 65,-75.6427"/>
<polygon fill="#191970" stroke="#191970" points="61.5001,-102.2455 65,-112.2455 68.5001,-102.2456 61.5001,-102.2455"/>
</g>
<!-- Node3 -->
<g id="node4" class="node">
<title>Node3</title>
<g id="a_node4"><a xlink:href="classTObject.html" target="_top" xlink:title="Mother of all ROOT objects. ">
<polygon fill="#ffffff" stroke="#000000" points="0,-168.5 0,-187.5 54,-187.5 54,-168.5 0,-168.5"/>
<text text-anchor="middle" x="27" y="-175.5" font-family="Helvetica,sans-Serif" font-size="10.00" fill="#000000">TObject</text>
</a>
</g>
</g>
<!-- Node3&#45;&gt;Node2 -->
<g id="edge3" class="edge">
<title>Node3&#45;&gt;Node2</title>
<path fill="none" stroke="#191970" d="M39.2679,-159.9209C45.6488,-150.5176 53.1931,-139.3997 58.4568,-131.6427"/>
<polygon fill="#191970" stroke="#191970" points="36.338,-158.0055 33.6191,-168.2455 42.1303,-161.936 36.338,-158.0055"/>
</g>
<!-- Node4 -->
<g id="node5" class="node">
<title>Node4</title>
<g id="a_node5"><a xlink:href="classTQObject.html" target="_top" xlink:title="This is the ROOT implementation of the Qt object communication mechanism (see also http://www...">
<polygon fill="#ffffff" stroke="#000000" points="72,-168.5 72,-187.5 134,-187.5 134,-168.5 72,-168.5"/>
<text text-anchor="middle" x="103" y="-175.5" font-family="Helvetica,sans-Serif" font-size="10.00" fill="#000000">TQObject</text>
</a>
</g>
</g>
<!-- Node4&#45;&gt;Node2 -->
<g id="edge4" class="edge">
<title>Node4&#45;&gt;Node2</title>
<path fill="none" stroke="#191970" d="M90.7321,-159.9209C84.3512,-150.5176 76.8069,-139.3997 71.5432,-131.6427"/>
<polygon fill="#191970" stroke="#191970" points="87.8697,-161.936 96.3809,-168.2455 93.662,-158.0055 87.8697,-161.936"/>
</g>
</g>
</svg>
