<?xml version="1.0" encoding="UTF-8" standalone="no"?>
<!DOCTYPE svg PUBLIC "-//W3C//DTD SVG 1.1//EN"
 "http://www.w3.org/Graphics/SVG/1.1/DTD/svg11.dtd">
<!-- Generated by graphviz version 2.40.1 (0)
 -->
<!-- Title: TSimpleAnalysis Pages: 1 -->
<svg width="909pt" height="177pt"
 viewBox="0.00 0.00 909.00 177.00" xmlns="http://www.w3.org/2000/svg" xmlns:xlink="http://www.w3.org/1999/xlink">
<g id="graph0" class="graph" transform="scale(1 1) rotate(0) translate(4 173)">
<title>TSimpleAnalysis</title>
<polygon fill="#ffffff" stroke="transparent" points="-4,4 -4,-173 905,-173 905,4 -4,4"/>
<!-- Node1 -->
<g id="node1" class="node">
<title>Node1</title>
<polygon fill="#bfbfbf" stroke="#000000" points="803,-64.5 803,-83.5 901,-83.5 901,-64.5 803,-64.5"/>
<text text-anchor="middle" x="852" y="-71.5" font-family="Helvetica,sans-Serif" font-size="10.00" fill="#000000">TSimpleAnalysis</text>
</g>
<!-- Node2 -->
<g id="node2" class="node">
<title>Node2</title>
<polygon fill="#ffffff" stroke="#bfbfbf" points="579,-127.5 579,-168.5 701,-168.5 701,-127.5 579,-127.5"/>
<text text-anchor="start" x="587" y="-156.5" font-family="Helvetica,sans-Serif" font-size="10.00" fill="#000000">std::map&lt; std::string,</text>
<text text-anchor="start" x="587" y="-145.5" font-family="Helvetica,sans-Serif" font-size="10.00" fill="#000000"> std::pair&lt; std::string,</text>
<text text-anchor="middle" x="640" y="-134.5" font-family="Helvetica,sans-Serif" font-size="10.00" fill="#000000"> std::string &gt; &gt;</text>
</g>
<!-- Node2&#45;&gt;Node1 -->
<g id="edge1" class="edge">
<title>Node2&#45;&gt;Node1</title>
<path fill="none" stroke="#9a32cd" stroke-dasharray="5,2" d="M710.7252,-126.9422C734.4822,-119.5037 761.0283,-110.7918 785,-102 800.3867,-96.3568 817.4238,-89.2245 830.4673,-83.5707"/>
<polygon fill="#9a32cd" stroke="#9a32cd" points="709.5887,-123.6302 701.0785,-129.9412 711.6668,-130.3147 709.5887,-123.6302"/>
<text text-anchor="middle" x="756.5" y="-123" font-family="Helvetica,sans-Serif" font-size="10.00" fill="#000000"> fHists</text>
</g>
<!-- Node3 -->
<g id="node3" class="node">
<title>Node3</title>
<g id="a_node3"><a xlink:title="STL class. ">
<polygon fill="#ffffff" stroke="#bfbfbf" points="600.5,-89.5 600.5,-108.5 679.5,-108.5 679.5,-89.5 600.5,-89.5"/>
<text text-anchor="middle" x="640" y="-96.5" font-family="Helvetica,sans-Serif" font-size="10.00" fill="#000000">std::ifstream</text>
</a>
</g>
</g>
<!-- Node3&#45;&gt;Node1 -->
<g id="edge2" class="edge">
<title>Node3&#45;&gt;Node1</title>
<path fill="none" stroke="#9a32cd" stroke-dasharray="5,2" d="M690.0879,-93.0934C724.1916,-89.0717 769.1131,-83.7744 802.9864,-79.7799"/>
<polygon fill="#9a32cd" stroke="#9a32cd" points="689.3968,-89.6506 679.8756,-94.2977 690.2167,-96.6024 689.3968,-89.6506"/>
<text text-anchor="middle" x="756.5" y="-90" font-family="Helvetica,sans-Serif" font-size="10.00" fill="#000000"> fIn</text>
</g>
<!-- Node4 -->
<g id="node4" class="node">
<title>Node4</title>
<polygon fill="#ffffff" stroke="#bfbfbf" points="423,-84 423,-114 533,-114 533,-84 423,-84"/>
<text text-anchor="start" x="431" y="-102" font-family="Helvetica,sans-Serif" font-size="10.00" fill="#000000">std::basic_ifstream</text>
<text text-anchor="middle" x="478" y="-91" font-family="Helvetica,sans-Serif" font-size="10.00" fill="#000000">&lt; char &gt;</text>
</g>
<!-- Node4&#45;&gt;Node3 -->
<g id="edge3" class="edge">
<title>Node4&#45;&gt;Node3</title>
<path fill="none" stroke="#191970" d="M543.5221,-99C562.7509,-99 583.1884,-99 600.2796,-99"/>
<polygon fill="#191970" stroke="#191970" points="543.2981,-95.5001 533.2981,-99 543.2981,-102.5001 543.2981,-95.5001"/>
</g>
<!-- Node5 -->
<g id="node5" class="node">
<title>Node5</title>
<polygon fill="#ffffff" stroke="#bfbfbf" points="280,-84 280,-114 386,-114 386,-84 280,-84"/>
<text text-anchor="start" x="288" y="-102" font-family="Helvetica,sans-Serif" font-size="10.00" fill="#000000">std::basic_istream</text>
<text text-anchor="middle" x="333" y="-91" font-family="Helvetica,sans-Serif" font-size="10.00" fill="#000000">&lt; char &gt;</text>
</g>
<!-- Node5&#45;&gt;Node4 -->
<g id="edge4" class="edge">
<title>Node5&#45;&gt;Node4</title>
<path fill="none" stroke="#191970" d="M396.4102,-99C405.2326,-99 414.2374,-99 422.8909,-99"/>
<polygon fill="#191970" stroke="#191970" points="396.1693,-95.5001 386.1693,-99 396.1693,-102.5001 396.1693,-95.5001"/>
</g>
<!-- Node6 -->
<g id="node6" class="node">
<title>Node6</title>
<polygon fill="#ffffff" stroke="#bfbfbf" points="117,-89.5 117,-108.5 243,-108.5 243,-89.5 117,-89.5"/>
<text text-anchor="middle" x="180" y="-96.5" font-family="Helvetica,sans-Serif" font-size="10.00" fill="#000000">std::basic_ios&lt; char &gt;</text>
</g>
<!-- Node6&#45;&gt;Node5 -->
<g id="edge5" class="edge">
<title>Node6&#45;&gt;Node5</title>
<path fill="none" stroke="#191970" d="M253.1864,-99C262.1537,-99 271.1818,-99 279.7766,-99"/>
<polygon fill="#191970" stroke="#191970" points="253.1143,-95.5001 243.1143,-99 253.1143,-102.5001 253.1143,-95.5001"/>
</g>
<!-- Node7 -->
<g id="node7" class="node">
<title>Node7</title>
<g id="a_node7"><a xlink:title="STL class. ">
<polygon fill="#ffffff" stroke="#bfbfbf" points="0,-89.5 0,-108.5 80,-108.5 80,-89.5 0,-89.5"/>
<text text-anchor="middle" x="40" y="-96.5" font-family="Helvetica,sans-Serif" font-size="10.00" fill="#000000">std::ios_base</text>
</a>
</g>
</g>
<!-- Node7&#45;&gt;Node6 -->
<g id="edge6" class="edge">
<title>Node7&#45;&gt;Node6</title>
<path fill="none" stroke="#191970" d="M90.3597,-99C98.9628,-99 107.9966,-99 116.8811,-99"/>
<polygon fill="#191970" stroke="#191970" points="90.1184,-95.5001 80.1184,-99 90.1183,-102.5001 90.1184,-95.5001"/>
</g>
<!-- Node8 -->
<g id="node8" class="node">
<title>Node8</title>
<g id="a_node8"><a xlink:title="STL class. ">
<polygon fill="#ffffff" stroke="#bfbfbf" points="607.5,-38.5 607.5,-57.5 672.5,-57.5 672.5,-38.5 607.5,-38.5"/>
<text text-anchor="middle" x="640" y="-45.5" font-family="Helvetica,sans-Serif" font-size="10.00" fill="#000000">std::string</text>
</a>
</g>
</g>
<!-- Node8&#45;&gt;Node1 -->
<g id="edge7" class="edge">
<title>Node8&#45;&gt;Node1</title>
<path fill="none" stroke="#9a32cd" stroke-dasharray="5,2" d="M682.8702,-42.132C711.9806,-39.3576 751.1832,-37.9954 785,-45 802.9965,-48.7277 822.101,-57.5362 835.2848,-64.4741"/>
<polygon fill="#9a32cd" stroke="#9a32cd" points="682.2113,-38.6818 672.6306,-43.2051 682.941,-45.6436 682.2113,-38.6818"/>
<text text-anchor="middle" x="756.5" y="-70" font-family="Helvetica,sans-Serif" font-size="10.00" fill="#000000"> fOutputFile</text>
<text text-anchor="middle" x="756.5" y="-59" font-family="Helvetica,sans-Serif" font-size="10.00" fill="#000000">fConfigFile</text>
<text text-anchor="middle" x="756.5" y="-48" font-family="Helvetica,sans-Serif" font-size="10.00" fill="#000000">fTreeName</text>
</g>
<!-- Node9 -->
<g id="node9" class="node">
<title>Node9</title>
<polygon fill="#ffffff" stroke="#bfbfbf" points="426,-33 426,-63 530,-63 530,-33 426,-33"/>
<text text-anchor="start" x="434" y="-51" font-family="Helvetica,sans-Serif" font-size="10.00" fill="#000000">std::basic_string&lt;</text>
<text text-anchor="middle" x="478" y="-40" font-family="Helvetica,sans-Serif" font-size="10.00" fill="#000000"> char &gt;</text>
</g>
<!-- Node9&#45;&gt;Node8 -->
<g id="edge8" class="edge">
<title>Node9&#45;&gt;Node8</title>
<path fill="none" stroke="#191970" d="M540.449,-48C563.2432,-48 588.1089,-48 607.287,-48"/>
<polygon fill="#191970" stroke="#191970" points="540.1496,-44.5001 530.1495,-48 540.1495,-51.5001 540.1496,-44.5001"/>
</g>
<!-- Node10 -->
<g id="node10" class="node">
<title>Node10</title>
<polygon fill="#ffffff" stroke="#bfbfbf" points="570,-.5 570,-19.5 710,-19.5 710,-.5 570,-.5"/>
<text text-anchor="middle" x="640" y="-7.5" font-family="Helvetica,sans-Serif" font-size="10.00" fill="#000000">std::vector&lt; std::string &gt;</text>
</g>
<!-- Node10&#45;&gt;Node1 -->
<g id="edge9" class="edge">
<title>Node10&#45;&gt;Node1</title>
<path fill="none" stroke="#9a32cd" stroke-dasharray="5,2" d="M720.4335,-10.7616C741.944,-12.981 764.813,-17.2336 785,-25 807.8646,-33.7965 829.9077,-52.5181 842.1376,-64.104"/>
<polygon fill="#9a32cd" stroke="#9a32cd" points="720.605,-7.263 710.3319,-9.8542 719.9787,-14.2349 720.605,-7.263"/>
<text text-anchor="middle" x="756.5" y="-28" font-family="Helvetica,sans-Serif" font-size="10.00" fill="#000000"> fInputFiles</text>
</g>
</g>
</svg>
