<?xml version="1.0" encoding="UTF-8" standalone="no"?>
<!DOCTYPE svg PUBLIC "-//W3C//DTD SVG 1.1//EN"
 "http://www.w3.org/Graphics/SVG/1.1/DTD/svg11.dtd">
<!-- Generated by graphviz version 2.40.1 (0)
 -->
<!-- Title: RooParametricStepFunction Pages: 1 -->
<svg width="165pt" height="308pt"
 viewBox="0.00 0.00 164.50 308.00" xmlns="http://www.w3.org/2000/svg" xmlns:xlink="http://www.w3.org/1999/xlink">
<g id="graph0" class="graph" transform="scale(1 1) rotate(0) translate(4 304)">
<title>RooParametricStepFunction</title>
<polygon fill="#ffffff" stroke="transparent" points="-4,4 -4,-304 160.5,-304 160.5,4 -4,4"/>
<!-- Node0 -->
<g id="node1" class="node">
<title>Node0</title>
<polygon fill="#bfbfbf" stroke="#000000" points="0,-.5 0,-19.5 149,-19.5 149,-.5 0,-.5"/>
<text text-anchor="middle" x="74.5" y="-7.5" font-family="Helvetica,sans-Serif" font-size="10.00" fill="#000000">RooParametricStepFunction</text>
</g>
<!-- Node1 -->
<g id="node2" class="node">
<title>Node1</title>
<g id="a_node2"><a xlink:href="classRooAbsPdf.html" target="_top" xlink:title="RooAbsPdf, the base class of all PDFs">
<polygon fill="#ffffff" stroke="#000000" points="40.5,-56.5 40.5,-75.5 108.5,-75.5 108.5,-56.5 40.5,-56.5"/>
<text text-anchor="middle" x="74.5" y="-63.5" font-family="Helvetica,sans-Serif" font-size="10.00" fill="#000000">RooAbsPdf</text>
</a>
</g>
</g>
<!-- Node1&#45;&gt;Node0 -->
<g id="edge1" class="edge">
<title>Node1&#45;&gt;Node0</title>
<path fill="none" stroke="#191970" d="M74.5,-46.1575C74.5,-37.155 74.5,-26.9199 74.5,-19.6427"/>
<polygon fill="#191970" stroke="#191970" points="71.0001,-46.2455 74.5,-56.2455 78.0001,-46.2456 71.0001,-46.2455"/>
</g>
<!-- Node2 -->
<g id="node3" class="node">
<title>Node2</title>
<g id="a_node3"><a xlink:href="classRooAbsReal.html" target="_top" xlink:title="RooAbsReal is the common abstract base class for objects that represent a real value and implements f...">
<polygon fill="#ffffff" stroke="#000000" points="37.5,-112.5 37.5,-131.5 111.5,-131.5 111.5,-112.5 37.5,-112.5"/>
<text text-anchor="middle" x="74.5" y="-119.5" font-family="Helvetica,sans-Serif" font-size="10.00" fill="#000000">RooAbsReal</text>
</a>
</g>
</g>
<!-- Node2&#45;&gt;Node1 -->
<g id="edge2" class="edge">
<title>Node2&#45;&gt;Node1</title>
<path fill="none" stroke="#191970" d="M74.5,-102.1575C74.5,-93.155 74.5,-82.9199 74.5,-75.6427"/>
<polygon fill="#191970" stroke="#191970" points="71.0001,-102.2455 74.5,-112.2455 78.0001,-102.2456 71.0001,-102.2455"/>
</g>
<!-- Node3 -->
<g id="node4" class="node">
<title>Node3</title>
<g id="a_node4"><a xlink:href="classRooAbsArg.html" target="_top" xlink:title="RooAbsArg is the common abstract base class for objects that represent a value (of arbitrary type) an...">
<polygon fill="#ffffff" stroke="#000000" points="40,-168.5 40,-187.5 109,-187.5 109,-168.5 40,-168.5"/>
<text text-anchor="middle" x="74.5" y="-175.5" font-family="Helvetica,sans-Serif" font-size="10.00" fill="#000000">RooAbsArg</text>
</a>
</g>
</g>
<!-- Node3&#45;&gt;Node2 -->
<g id="edge3" class="edge">
<title>Node3&#45;&gt;Node2</title>
<path fill="none" stroke="#191970" d="M74.5,-158.1575C74.5,-149.155 74.5,-138.9199 74.5,-131.6427"/>
<polygon fill="#191970" stroke="#191970" points="71.0001,-158.2455 74.5,-168.2455 78.0001,-158.2456 71.0001,-158.2455"/>
</g>
<!-- Node4 -->
<g id="node5" class="node">
<title>Node4</title>
<g id="a_node5"><a xlink:href="classTNamed.html" target="_top" xlink:title="The TNamed class is the base class for all named ROOT classes. ">
<polygon fill="#ffffff" stroke="#000000" points="2.5,-224.5 2.5,-243.5 60.5,-243.5 60.5,-224.5 2.5,-224.5"/>
<text text-anchor="middle" x="31.5" y="-231.5" font-family="Helvetica,sans-Serif" font-size="10.00" fill="#000000">TNamed</text>
</a>
</g>
</g>
<!-- Node4&#45;&gt;Node3 -->
<g id="edge4" class="edge">
<title>Node4&#45;&gt;Node3</title>
<path fill="none" stroke="#191970" d="M45.1592,-216.2112C52.4263,-206.7472 61.0781,-195.4797 67.0958,-187.6427"/>
<polygon fill="#191970" stroke="#191970" points="42.3043,-214.1824 38.99,-224.2455 47.8564,-218.4456 42.3043,-214.1824"/>
</g>
<!-- Node5 -->
<g id="node6" class="node">
<title>Node5</title>
<g id="a_node6"><a xlink:href="classTObject.html" target="_top" xlink:title="Mother of all ROOT objects. ">
<polygon fill="#ffffff" stroke="#000000" points="4.5,-280.5 4.5,-299.5 58.5,-299.5 58.5,-280.5 4.5,-280.5"/>
<text text-anchor="middle" x="31.5" y="-287.5" font-family="Helvetica,sans-Serif" font-size="10.00" fill="#000000">TObject</text>
</a>
</g>
</g>
<!-- Node5&#45;&gt;Node4 -->
<g id="edge5" class="edge">
<title>Node5&#45;&gt;Node4</title>
<path fill="none" stroke="#191970" d="M31.5,-270.1575C31.5,-261.155 31.5,-250.9199 31.5,-243.6427"/>
<polygon fill="#191970" stroke="#191970" points="28.0001,-270.2455 31.5,-280.2455 35.0001,-270.2456 28.0001,-270.2455"/>
</g>
<!-- Node6 -->
<g id="node7" class="node">
<title>Node6</title>
<g id="a_node7"><a xlink:href="classRooPrintable.html" target="_top" xlink:title="RooPlotable is a &#39;mix&#45;in&#39; base class that define the standard RooFit plotting and printing methods...">
<polygon fill="#ffffff" stroke="#000000" points="78.5,-224.5 78.5,-243.5 156.5,-243.5 156.5,-224.5 78.5,-224.5"/>
<text text-anchor="middle" x="117.5" y="-231.5" font-family="Helvetica,sans-Serif" font-size="10.00" fill="#000000">RooPrintable</text>
</a>
</g>
</g>
<!-- Node6&#45;&gt;Node3 -->
<g id="edge6" class="edge">
<title>Node6&#45;&gt;Node3</title>
<path fill="none" stroke="#191970" d="M103.8408,-216.2112C96.5737,-206.7472 87.9219,-195.4797 81.9042,-187.6427"/>
<polygon fill="#191970" stroke="#191970" points="101.1436,-218.4456 110.01,-224.2455 106.6957,-214.1824 101.1436,-218.4456"/>
</g>
</g>
</svg>
