<?xml version="1.0" encoding="UTF-8" standalone="no"?>
<!DOCTYPE svg PUBLIC "-//W3C//DTD SVG 1.1//EN"
 "http://www.w3.org/Graphics/SVG/1.1/DTD/svg11.dtd">
<!-- Generated by graphviz version 2.40.1 (0)
 -->
<!-- Title: TLegend Pages: 1 -->
<svg width="524pt" height="431pt"
 viewBox="0.00 0.00 523.50 431.00" xmlns="http://www.w3.org/2000/svg" xmlns:xlink="http://www.w3.org/1999/xlink">
<g id="graph0" class="graph" transform="scale(1 1) rotate(0) translate(4 427)">
<title>TLegend</title>
<polygon fill="#ffffff" stroke="transparent" points="-4,4 -4,-427 519.5,-427 519.5,4 -4,4"/>
<!-- Node8 -->
<g id="node1" class="node">
<title>Node8</title>
<polygon fill="#bfbfbf" stroke="#000000" points="163,-.5 163,-19.5 221,-19.5 221,-.5 163,-.5"/>
<text text-anchor="middle" x="192" y="-7.5" font-family="Helvetica,sans-Serif" font-size="10.00" fill="#000000">TLegend</text>
</g>
<!-- Node9 -->
<g id="node2" class="node">
<title>Node9</title>
<g id="a_node2"><a xlink:href="classTPave.html" target="_top" xlink:title="A TBox with a bordersize and a shadow option. ">
<polygon fill="#ffffff" stroke="#000000" points="157,-191.5 157,-210.5 203,-210.5 203,-191.5 157,-191.5"/>
<text text-anchor="middle" x="180" y="-198.5" font-family="Helvetica,sans-Serif" font-size="10.00" fill="#000000">TPave</text>
</a>
</g>
</g>
<!-- Node9&#45;&gt;Node8 -->
<g id="edge1" class="edge">
<title>Node9&#45;&gt;Node8</title>
<path fill="none" stroke="#191970" d="M167.7241,-182.9502C162.726,-174.5412 157.5351,-164.1641 155,-154 145.6427,-116.4826 144.0218,-104.0755 155,-67 160.4934,-48.4477 174.1332,-30.2727 183.2273,-19.6055"/>
<polygon fill="#191970" stroke="#191970" points="164.8261,-184.916 173.1333,-191.4918 170.74,-181.1708 164.8261,-184.916"/>
</g>
<!-- Node10 -->
<g id="node3" class="node">
<title>Node10</title>
<g id="a_node3"><a xlink:href="classTBox.html" target="_top" xlink:title="Create a Box. ">
<polygon fill="#ffffff" stroke="#000000" points="159.5,-269.5 159.5,-288.5 200.5,-288.5 200.5,-269.5 159.5,-269.5"/>
<text text-anchor="middle" x="180" y="-276.5" font-family="Helvetica,sans-Serif" font-size="10.00" fill="#000000">TBox</text>
</a>
</g>
</g>
<!-- Node10&#45;&gt;Node9 -->
<g id="edge2" class="edge">
<title>Node10&#45;&gt;Node9</title>
<path fill="none" stroke="#191970" d="M180,-259.2866C180,-243.7395 180,-222.7276 180,-210.6426"/>
<polygon fill="#191970" stroke="#191970" points="176.5001,-259.4356 180,-269.4357 183.5001,-259.4357 176.5001,-259.4356"/>
</g>
<!-- Node11 -->
<g id="node4" class="node">
<title>Node11</title>
<g id="a_node4"><a xlink:href="classTObject.html" target="_top" xlink:title="Mother of all ROOT objects. ">
<polygon fill="#ffffff" stroke="#000000" points="338,-336.5 338,-355.5 392,-355.5 392,-336.5 338,-336.5"/>
<text text-anchor="middle" x="365" y="-343.5" font-family="Helvetica,sans-Serif" font-size="10.00" fill="#000000">TObject</text>
</a>
</g>
</g>
<!-- Node11&#45;&gt;Node10 -->
<g id="edge3" class="edge">
<title>Node11&#45;&gt;Node10</title>
<path fill="none" stroke="#191970" d="M328.0588,-335.8333C297.1316,-327.9027 287.6925,-327.857 261,-318 238.3061,-309.6196 213.3991,-297.0902 197.2784,-288.5082"/>
<polygon fill="#191970" stroke="#191970" points="327.3206,-339.2583 337.8829,-338.4294 329.109,-332.4906 327.3206,-339.2583"/>
</g>
<!-- Node11&#45;&gt;Node10 -->
<g id="edge7" class="edge">
<title>Node11&#45;&gt;Node10</title>
<path fill="none" stroke="#9a32cd" stroke-dasharray="5,2" d="M339.1129,-331.3024C322.1043,-321.8154 301.3331,-310.5966 292,-307 261.1413,-295.1082 223.5343,-286.9139 200.6973,-282.5909"/>
<polygon fill="#9a32cd" stroke="#9a32cd" points="337.6452,-334.4922 348.0785,-336.3354 341.0718,-328.3883 337.6452,-334.4922"/>
<text text-anchor="middle" x="324" y="-310" font-family="Helvetica,sans-Serif" font-size="10.00" fill="#000000"> fTip</text>
</g>
<!-- Node23 -->
<g id="node16" class="node">
<title>Node23</title>
<g id="a_node16"><a xlink:href="classTCollection.html" target="_top" xlink:title="Collection abstract base class. ">
<polygon fill="#ffffff" stroke="#000000" points="328.5,-191.5 328.5,-210.5 399.5,-210.5 399.5,-191.5 328.5,-191.5"/>
<text text-anchor="middle" x="364" y="-198.5" font-family="Helvetica,sans-Serif" font-size="10.00" fill="#000000">TCollection</text>
</a>
</g>
</g>
<!-- Node11&#45;&gt;Node23 -->
<g id="edge17" class="edge">
<title>Node11&#45;&gt;Node23</title>
<path fill="none" stroke="#191970" d="M364.8643,-326.3268C364.6473,-294.8513 364.2298,-234.3195 364.0672,-210.739"/>
<polygon fill="#191970" stroke="#191970" points="361.3654,-326.5106 364.9344,-336.4861 368.3652,-326.4622 361.3654,-326.5106"/>
</g>
<!-- Node24 -->
<g id="node17" class="node">
<title>Node24</title>
<g id="a_node17"><a xlink:href="classTObjectTable.html" target="_top" xlink:title="This class registers all instances of TObject and its derived classes in a hash table. ">
<polygon fill="#ffffff" stroke="#000000" points="379,-269.5 379,-288.5 459,-288.5 459,-269.5 379,-269.5"/>
<text text-anchor="middle" x="419" y="-276.5" font-family="Helvetica,sans-Serif" font-size="10.00" fill="#000000">TObjectTable</text>
</a>
</g>
</g>
<!-- Node11&#45;&gt;Node24 -->
<g id="edge19" class="edge">
<title>Node11&#45;&gt;Node24</title>
<path fill="none" stroke="#191970" d="M378.581,-327.9338C383.657,-321.2913 389.5201,-313.7467 395,-307 400.0053,-300.8376 405.7926,-294.0757 410.43,-288.7409"/>
<polygon fill="#191970" stroke="#191970" points="375.5109,-326.19 372.2571,-336.2728 381.0884,-330.4198 375.5109,-326.19"/>
</g>
<!-- Node11&#45;&gt;Node24 -->
<g id="edge20" class="edge">
<title>Node11&#45;&gt;Node24</title>
<path fill="none" stroke="#9a32cd" stroke-dasharray="5,2" d="M384.2994,-329.4378C388.0364,-325.8393 391.7855,-321.9286 395,-318 402.5518,-308.7706 409.4936,-296.9673 413.9475,-288.7751"/>
<polygon fill="#9a32cd" stroke="#9a32cd" points="381.8285,-326.9548 376.8205,-336.2914 386.5578,-332.1156 381.8285,-326.9548"/>
<text text-anchor="middle" x="418.5" y="-310" font-family="Helvetica,sans-Serif" font-size="10.00" fill="#000000"> fTable</text>
</g>
<!-- Node12 -->
<g id="node5" class="node">
<title>Node12</title>
<g id="a_node5"><a xlink:href="classTAttLine.html" target="_top" xlink:title="Line Attributes class. ">
<polygon fill="#ffffff" stroke="#000000" points="0,-336.5 0,-355.5 56,-355.5 56,-336.5 0,-336.5"/>
<text text-anchor="middle" x="28" y="-343.5" font-family="Helvetica,sans-Serif" font-size="10.00" fill="#000000">TAttLine</text>
</a>
</g>
</g>
<!-- Node12&#45;&gt;Node10 -->
<g id="edge4" class="edge">
<title>Node12&#45;&gt;Node10</title>
<path fill="none" stroke="#191970" d="M58.9359,-332.3638C88.8503,-319.1778 133.3454,-299.5649 159.2383,-288.1515"/>
<polygon fill="#191970" stroke="#191970" points="57.5167,-329.1644 49.7779,-336.4005 60.3401,-335.5697 57.5167,-329.1644"/>
</g>
<!-- Node13 -->
<g id="node6" class="node">
<title>Node13</title>
<g id="a_node6"><a xlink:href="classTAttFill.html" target="_top" xlink:title="Fill Area Attributes class. ">
<polygon fill="#ffffff" stroke="#000000" points="74,-336.5 74,-355.5 124,-355.5 124,-336.5 74,-336.5"/>
<text text-anchor="middle" x="99" y="-343.5" font-family="Helvetica,sans-Serif" font-size="10.00" fill="#000000">TAttFill</text>
</a>
</g>
</g>
<!-- Node13&#45;&gt;Node10 -->
<g id="edge5" class="edge">
<title>Node13&#45;&gt;Node10</title>
<path fill="none" stroke="#191970" d="M118.586,-329.7992C134.1648,-316.9131 155.4332,-299.3207 168.4162,-288.5817"/>
<polygon fill="#191970" stroke="#191970" points="116.0801,-327.3298 110.6053,-336.4005 120.5417,-332.7237 116.0801,-327.3298"/>
</g>
<!-- Node14 -->
<g id="node7" class="node">
<title>Node14</title>
<g id="a_node7"><a xlink:href="classTAttBBox2D.html" target="_top" xlink:title="Abstract base class for elements drawn in the editor. ">
<polygon fill="#ffffff" stroke="#000000" points="142.5,-336.5 142.5,-355.5 217.5,-355.5 217.5,-336.5 142.5,-336.5"/>
<text text-anchor="middle" x="180" y="-343.5" font-family="Helvetica,sans-Serif" font-size="10.00" fill="#000000">TAttBBox2D</text>
</a>
</g>
</g>
<!-- Node14&#45;&gt;Node10 -->
<g id="edge6" class="edge">
<title>Node14&#45;&gt;Node10</title>
<path fill="none" stroke="#191970" d="M180,-326.1079C180,-313.714 180,-298.3263 180,-288.5817"/>
<polygon fill="#191970" stroke="#191970" points="176.5001,-326.4005 180,-336.4005 183.5001,-326.4006 176.5001,-326.4005"/>
</g>
<!-- Node15 -->
<g id="node8" class="node">
<title>Node15</title>
<g id="a_node8"><a xlink:href="classTString.html" target="_top" xlink:title="Basic string class. ">
<polygon fill="#ffffff" stroke="#000000" points="240.5,-269.5 240.5,-288.5 291.5,-288.5 291.5,-269.5 240.5,-269.5"/>
<text text-anchor="middle" x="266" y="-276.5" font-family="Helvetica,sans-Serif" font-size="10.00" fill="#000000">TString</text>
</a>
</g>
</g>
<!-- Node15&#45;&gt;Node9 -->
<g id="edge8" class="edge">
<title>Node15&#45;&gt;Node9</title>
<path fill="none" stroke="#9a32cd" stroke-dasharray="5,2" d="M247.6711,-262.3762C230.3174,-246.6367 204.8617,-223.5489 190.6315,-210.6426"/>
<polygon fill="#9a32cd" stroke="#9a32cd" points="245.6961,-265.31 255.4547,-269.4357 250.3989,-260.125 245.6961,-265.31"/>
<text text-anchor="middle" x="251.5" y="-243" font-family="Helvetica,sans-Serif" font-size="10.00" fill="#000000"> fName</text>
<text text-anchor="middle" x="251.5" y="-232" font-family="Helvetica,sans-Serif" font-size="10.00" fill="#000000">fOption</text>
</g>
<!-- Node15&#45;&gt;Node23 -->
<g id="edge21" class="edge">
<title>Node15&#45;&gt;Node23</title>
<path fill="none" stroke="#9a32cd" stroke-dasharray="5,2" d="M275.3427,-260.2711C281.2542,-249.95 289.7184,-237.538 300,-229 309.5169,-221.097 321.6102,-215.0466 332.716,-210.6272"/>
<polygon fill="#9a32cd" stroke="#9a32cd" points="272.1253,-258.8647 270.4811,-269.3312 278.2934,-262.1745 272.1253,-258.8647"/>
<text text-anchor="middle" x="318.5" y="-237.5" font-family="Helvetica,sans-Serif" font-size="10.00" fill="#000000"> fName</text>
</g>
<!-- Node16 -->
<g id="node9" class="node">
<title>Node16</title>
<g id="a_node9"><a xlink:href="structTString_1_1Rep__t.html" target="_top" xlink:title="TString::Rep_t">
<polygon fill="#ffffff" stroke="#000000" points="236,-336.5 236,-355.5 320,-355.5 320,-336.5 236,-336.5"/>
<text text-anchor="middle" x="278" y="-343.5" font-family="Helvetica,sans-Serif" font-size="10.00" fill="#000000">TString::Rep_t</text>
</a>
</g>
</g>
<!-- Node16&#45;&gt;Node15 -->
<g id="edge9" class="edge">
<title>Node16&#45;&gt;Node15</title>
<path fill="none" stroke="#9a32cd" stroke-dasharray="5,2" d="M269.5246,-327.0076C268.4993,-324.0429 267.6031,-320.9752 267,-318 265.0087,-308.1757 264.9856,-296.6758 265.3205,-288.7213"/>
<polygon fill="#9a32cd" stroke="#9a32cd" points="266.3163,-328.4116 273.2684,-336.4065 272.8194,-325.8212 266.3163,-328.4116"/>
<text text-anchor="middle" x="279.5" y="-310" font-family="Helvetica,sans-Serif" font-size="10.00" fill="#000000"> fRep</text>
</g>
<!-- Node17 -->
<g id="node10" class="node">
<title>Node17</title>
<g id="a_node10"><a xlink:href="structTString_1_1LongStr__t.html" target="_top" xlink:title="TString::LongStr_t">
<polygon fill="#ffffff" stroke="#000000" points="106.5,-403.5 106.5,-422.5 209.5,-422.5 209.5,-403.5 106.5,-403.5"/>
<text text-anchor="middle" x="158" y="-410.5" font-family="Helvetica,sans-Serif" font-size="10.00" fill="#000000">TString::LongStr_t</text>
</a>
</g>
</g>
<!-- Node17&#45;&gt;Node16 -->
<g id="edge10" class="edge">
<title>Node17&#45;&gt;Node16</title>
<path fill="none" stroke="#9a32cd" stroke-dasharray="5,2" d="M184.1768,-398.3846C207.4489,-385.391 240.8033,-366.7681 260.8388,-355.5817"/>
<polygon fill="#9a32cd" stroke="#9a32cd" points="182.2181,-395.4696 175.1931,-403.4005 185.6306,-401.5815 182.2181,-395.4696"/>
<text text-anchor="middle" x="240.5" y="-377" font-family="Helvetica,sans-Serif" font-size="10.00" fill="#000000"> fLong</text>
</g>
<!-- Node18 -->
<g id="node11" class="node">
<title>Node18</title>
<g id="a_node11"><a xlink:href="structTString_1_1RawStr__t.html" target="_top" xlink:title="TString::RawStr_t">
<polygon fill="#ffffff" stroke="#000000" points="227.5,-403.5 227.5,-422.5 328.5,-422.5 328.5,-403.5 227.5,-403.5"/>
<text text-anchor="middle" x="278" y="-410.5" font-family="Helvetica,sans-Serif" font-size="10.00" fill="#000000">TString::RawStr_t</text>
</a>
</g>
</g>
<!-- Node18&#45;&gt;Node16 -->
<g id="edge11" class="edge">
<title>Node18&#45;&gt;Node16</title>
<path fill="none" stroke="#9a32cd" stroke-dasharray="5,2" d="M278,-393.1079C278,-380.714 278,-365.3263 278,-355.5817"/>
<polygon fill="#9a32cd" stroke="#9a32cd" points="274.5001,-393.4005 278,-403.4005 281.5001,-393.4006 274.5001,-393.4005"/>
<text text-anchor="middle" x="292" y="-377" font-family="Helvetica,sans-Serif" font-size="10.00" fill="#000000"> fRaw</text>
</g>
<!-- Node19 -->
<g id="node12" class="node">
<title>Node19</title>
<g id="a_node12"><a xlink:href="structTString_1_1ShortStr__t.html" target="_top" xlink:title="TString::ShortStr_t">
<polygon fill="#ffffff" stroke="#000000" points="346.5,-403.5 346.5,-422.5 451.5,-422.5 451.5,-403.5 346.5,-403.5"/>
<text text-anchor="middle" x="399" y="-410.5" font-family="Helvetica,sans-Serif" font-size="10.00" fill="#000000">TString::ShortStr_t</text>
</a>
</g>
</g>
<!-- Node19&#45;&gt;Node16 -->
<g id="edge12" class="edge">
<title>Node19&#45;&gt;Node16</title>
<path fill="none" stroke="#9a32cd" stroke-dasharray="5,2" d="M372.605,-398.3846C349.139,-385.391 315.5066,-366.7681 295.3042,-355.5817"/>
<polygon fill="#9a32cd" stroke="#9a32cd" points="371.2198,-401.6183 381.6637,-403.4005 374.6107,-395.4944 371.2198,-401.6183"/>
<text text-anchor="middle" x="361.5" y="-377" font-family="Helvetica,sans-Serif" font-size="10.00" fill="#000000"> fShort</text>
</g>
<!-- Node20 -->
<g id="node13" class="node">
<title>Node20</title>
<g id="a_node13"><a xlink:href="classTAttText.html" target="_top" xlink:title="Text Attributes class. ">
<polygon fill="#ffffff" stroke="#000000" points="164,-67.5 164,-86.5 220,-86.5 220,-67.5 164,-67.5"/>
<text text-anchor="middle" x="192" y="-74.5" font-family="Helvetica,sans-Serif" font-size="10.00" fill="#000000">TAttText</text>
</a>
</g>
</g>
<!-- Node20&#45;&gt;Node8 -->
<g id="edge13" class="edge">
<title>Node20&#45;&gt;Node8</title>
<path fill="none" stroke="#191970" d="M192,-57.1079C192,-44.714 192,-29.3263 192,-19.5817"/>
<polygon fill="#191970" stroke="#191970" points="188.5001,-57.4005 192,-67.4005 195.5001,-57.4006 188.5001,-57.4005"/>
</g>
<!-- Node21 -->
<g id="node14" class="node">
<title>Node21</title>
<g id="a_node14"><a xlink:href="classTList.html" target="_top" xlink:title="A doubly linked list. ">
<polygon fill="#ffffff" stroke="#000000" points="238,-67.5 238,-86.5 278,-86.5 278,-67.5 238,-67.5"/>
<text text-anchor="middle" x="258" y="-74.5" font-family="Helvetica,sans-Serif" font-size="10.00" fill="#000000">TList</text>
</a>
</g>
</g>
<!-- Node21&#45;&gt;Node8 -->
<g id="edge14" class="edge">
<title>Node21&#45;&gt;Node8</title>
<path fill="none" stroke="#9a32cd" stroke-dasharray="5,2" d="M241.3311,-60.0785C228.7077,-47.2639 211.8215,-30.1218 201.4386,-19.5817"/>
<polygon fill="#9a32cd" stroke="#9a32cd" points="239.0327,-62.7327 248.5438,-67.4005 244.0195,-57.8203 239.0327,-62.7327"/>
<text text-anchor="middle" x="256.5" y="-41" font-family="Helvetica,sans-Serif" font-size="10.00" fill="#000000"> fPrimitives</text>
</g>
<!-- Node22 -->
<g id="node15" class="node">
<title>Node22</title>
<g id="a_node15"><a xlink:href="classTSeqCollection.html" target="_top" xlink:title="Sequenceable collection abstract base class. ">
<polygon fill="#ffffff" stroke="#000000" points="330.5,-134.5 330.5,-153.5 419.5,-153.5 419.5,-134.5 330.5,-134.5"/>
<text text-anchor="middle" x="375" y="-141.5" font-family="Helvetica,sans-Serif" font-size="10.00" fill="#000000">TSeqCollection</text>
</a>
</g>
</g>
<!-- Node22&#45;&gt;Node21 -->
<g id="edge15" class="edge">
<title>Node22&#45;&gt;Node21</title>
<path fill="none" stroke="#191970" d="M349.4776,-129.3846C326.7873,-116.391 294.2667,-97.7681 274.7322,-86.5817"/>
<polygon fill="#191970" stroke="#191970" points="347.8196,-132.4684 358.2368,-134.4005 351.2982,-126.3939 347.8196,-132.4684"/>
</g>
<!-- Node23&#45;&gt;Node22 -->
<g id="edge16" class="edge">
<title>Node23&#45;&gt;Node22</title>
<path fill="none" stroke="#191970" d="M367.8145,-181.2342C369.6256,-171.8491 371.7067,-161.0651 373.1616,-153.5265"/>
<polygon fill="#191970" stroke="#191970" points="364.3243,-180.8487 365.866,-191.3307 371.1975,-182.1751 364.3243,-180.8487"/>
</g>
<!-- Node23&#45;&gt;Node23 -->
<g id="edge22" class="edge">
<title>Node23&#45;&gt;Node23</title>
<path fill="none" stroke="#9a32cd" stroke-dasharray="5,2" d="M409.7805,-205.3285C414.4895,-204.4765 417.5,-203.0337 417.5,-201 417.5,-197.7461 409.7932,-196.0047 399.7532,-195.776"/>
<polygon fill="#9a32cd" stroke="#9a32cd" points="409.4022,-201.8483 399.7532,-206.224 410.0249,-208.8206 409.4022,-201.8483"/>
<text text-anchor="middle" x="466.5" y="-198.5" font-family="Helvetica,sans-Serif" font-size="10.00" fill="#000000"> fgCurrentCollection</text>
</g>
<!-- Node24&#45;&gt;Node23 -->
<g id="edge18" class="edge">
<title>Node24&#45;&gt;Node23</title>
<path fill="none" stroke="#9a32cd" stroke-dasharray="5,2" d="M406.3587,-261.0723C395.2971,-245.385 379.6517,-223.197 370.7992,-210.6426"/>
<polygon fill="#9a32cd" stroke="#9a32cd" points="403.6328,-263.28 412.2559,-269.4357 409.3536,-259.2461 403.6328,-263.28"/>
<text text-anchor="middle" x="449.5" y="-237.5" font-family="Helvetica,sans-Serif" font-size="10.00" fill="#000000"> fgGarbageCollection</text>
</g>
<!-- Node25 -->
<g id="node18" class="node">
<title>Node25</title>
<polygon fill="#ffffff" stroke="#bfbfbf" points="164,-134.5 164,-153.5 312,-153.5 312,-134.5 164,-134.5"/>
<text text-anchor="middle" x="238" y="-141.5" font-family="Helvetica,sans-Serif" font-size="10.00" fill="#000000">std::weak_ptr&lt; TObjLink &gt;</text>
</g>
<!-- Node25&#45;&gt;Node21 -->
<g id="edge23" class="edge">
<title>Node25&#45;&gt;Node21</title>
<path fill="none" stroke="#9a32cd" stroke-dasharray="5,2" d="M243.825,-124.4863C247.5437,-112.0286 252.2013,-96.4258 255.1398,-86.5817"/>
<polygon fill="#9a32cd" stroke="#9a32cd" points="240.3722,-123.8172 240.8655,-134.4005 247.0797,-125.8195 240.3722,-123.8172"/>
<text text-anchor="middle" x="267.5" y="-108" font-family="Helvetica,sans-Serif" font-size="10.00" fill="#000000"> fCache</text>
</g>
</g>
</svg>
