<?xml version="1.0" encoding="UTF-8" standalone="no"?>
<!DOCTYPE svg PUBLIC "-//W3C//DTD SVG 1.1//EN"
 "http://www.w3.org/Graphics/SVG/1.1/DTD/svg11.dtd">
<!-- Generated by graphviz version 2.40.1 (0)
 -->
<!-- Title: ROOT::Experimental::Detail::RPageSourceRoot Pages: 1 -->
<svg width="151pt" height="173pt"
 viewBox="0.00 0.00 151.00 173.00" xmlns="http://www.w3.org/2000/svg" xmlns:xlink="http://www.w3.org/1999/xlink">
<g id="graph0" class="graph" transform="scale(1 1) rotate(0) translate(4 169)">
<title>ROOT::Experimental::Detail::RPageSourceRoot</title>
<polygon fill="#ffffff" stroke="transparent" points="-4,4 -4,-169 147,-169 147,4 -4,4"/>
<!-- Node0 -->
<g id="node1" class="node">
<title>Node0</title>
<polygon fill="#bfbfbf" stroke="#000000" points="0,-.5 0,-30.5 143,-30.5 143,-.5 0,-.5"/>
<text text-anchor="start" x="8" y="-18.5" font-family="Helvetica,sans-Serif" font-size="10.00" fill="#000000">ROOT::Experimental</text>
<text text-anchor="middle" x="71.5" y="-7.5" font-family="Helvetica,sans-Serif" font-size="10.00" fill="#000000">::Detail::RPageSourceRoot</text>
</g>
<!-- Node1 -->
<g id="node2" class="node">
<title>Node1</title>
<g id="a_node2"><a xlink:href="classROOT_1_1Experimental_1_1Detail_1_1RPageSource.html" target="_top" xlink:title=" Abstract interface to read data from a tree ">
<polygon fill="#ffffff" stroke="#000000" points="11,-67.5 11,-97.5 132,-97.5 132,-67.5 11,-67.5"/>
<text text-anchor="start" x="19" y="-85.5" font-family="Helvetica,sans-Serif" font-size="10.00" fill="#000000">ROOT::Experimental</text>
<text text-anchor="middle" x="71.5" y="-74.5" font-family="Helvetica,sans-Serif" font-size="10.00" fill="#000000">::Detail::RPageSource</text>
</a>
</g>
</g>
<!-- Node1&#45;&gt;Node0 -->
<g id="edge1" class="edge">
<title>Node1&#45;&gt;Node0</title>
<path fill="none" stroke="#191970" d="M71.5,-57.0249C71.5,-48.128 71.5,-38.4287 71.5,-30.6432"/>
<polygon fill="#191970" stroke="#191970" points="68.0001,-57.2966 71.5,-67.2967 75.0001,-57.2967 68.0001,-57.2966"/>
</g>
<!-- Node2 -->
<g id="node3" class="node">
<title>Node2</title>
<g id="a_node3"><a xlink:href="classROOT_1_1Experimental_1_1Detail_1_1RPageStorage.html" target="_top" xlink:title=" Manages tree meta&#45;data, which is common for sinks and sources. ">
<polygon fill="#ffffff" stroke="#000000" points="9,-134.5 9,-164.5 134,-164.5 134,-134.5 9,-134.5"/>
<text text-anchor="start" x="17" y="-152.5" font-family="Helvetica,sans-Serif" font-size="10.00" fill="#000000">ROOT::Experimental</text>
<text text-anchor="middle" x="71.5" y="-141.5" font-family="Helvetica,sans-Serif" font-size="10.00" fill="#000000">::Detail::RPageStorage</text>
</a>
</g>
</g>
<!-- Node2&#45;&gt;Node1 -->
<g id="edge2" class="edge">
<title>Node2&#45;&gt;Node1</title>
<path fill="none" stroke="#191970" d="M71.5,-124.0249C71.5,-115.128 71.5,-105.4287 71.5,-97.6432"/>
<polygon fill="#191970" stroke="#191970" points="68.0001,-124.2966 71.5,-134.2967 75.0001,-124.2967 68.0001,-124.2966"/>
</g>
</g>
</svg>
