<?xml version="1.0" encoding="UTF-8" standalone="no"?>
<!DOCTYPE svg PUBLIC "-//W3C//DTD SVG 1.1//EN"
 "http://www.w3.org/Graphics/SVG/1.1/DTD/svg11.dtd">
<!-- Generated by graphviz version 2.40.1 (0)
 -->
<!-- Title: TProofMonSenderML Pages: 1 -->
<svg width="443pt" height="526pt"
 viewBox="0.00 0.00 442.50 526.00" xmlns="http://www.w3.org/2000/svg" xmlns:xlink="http://www.w3.org/1999/xlink">
<g id="graph0" class="graph" transform="scale(1 1) rotate(0) translate(4 522)">
<title>TProofMonSenderML</title>
<polygon fill="#ffffff" stroke="transparent" points="-4,4 -4,-522 438.5,-522 438.5,4 -4,4"/>
<!-- Node4 -->
<g id="node1" class="node">
<title>Node4</title>
<polygon fill="#bfbfbf" stroke="#000000" points="42.5,-.5 42.5,-19.5 158.5,-19.5 158.5,-.5 42.5,-.5"/>
<text text-anchor="middle" x="100.5" y="-7.5" font-family="Helvetica,sans-Serif" font-size="10.00" fill="#000000">TProofMonSenderML</text>
</g>
<!-- Node5 -->
<g id="node2" class="node">
<title>Node5</title>
<g id="a_node2"><a xlink:href="classTProofMonSender.html" target="_top" xlink:title="Provides the interface for PROOF monitoring to different writers. ">
<polygon fill="#ffffff" stroke="#000000" points="33.5,-172.5 33.5,-191.5 135.5,-191.5 135.5,-172.5 33.5,-172.5"/>
<text text-anchor="middle" x="84.5" y="-179.5" font-family="Helvetica,sans-Serif" font-size="10.00" fill="#000000">TProofMonSender</text>
</a>
</g>
</g>
<!-- Node5&#45;&gt;Node4 -->
<g id="edge1" class="edge">
<title>Node5&#45;&gt;Node4</title>
<path fill="none" stroke="#191970" d="M86.3406,-162.2139C89.78,-125.2395 97.064,-46.9366 99.6039,-19.6335"/>
<polygon fill="#191970" stroke="#191970" points="82.8474,-161.9785 85.4061,-172.2597 89.8174,-162.6269 82.8474,-161.9785"/>
</g>
<!-- Node6 -->
<g id="node3" class="node">
<title>Node6</title>
<g id="a_node3"><a xlink:href="classTNamed.html" target="_top" xlink:title="The TNamed class is the base class for all named ROOT classes. ">
<polygon fill="#ffffff" stroke="#000000" points="117.5,-248.5 117.5,-267.5 175.5,-267.5 175.5,-248.5 117.5,-248.5"/>
<text text-anchor="middle" x="146.5" y="-255.5" font-family="Helvetica,sans-Serif" font-size="10.00" fill="#000000">TNamed</text>
</a>
</g>
</g>
<!-- Node6&#45;&gt;Node5 -->
<g id="edge2" class="edge">
<title>Node6&#45;&gt;Node5</title>
<path fill="none" stroke="#191970" d="M132.0542,-240.2922C119.7292,-225.1842 102.464,-204.0204 92.4844,-191.7874"/>
<polygon fill="#191970" stroke="#191970" points="129.6143,-242.8383 138.6477,-248.3745 135.0384,-238.4134 129.6143,-242.8383"/>
</g>
<!-- Node13 -->
<g id="node10" class="node">
<title>Node13</title>
<g id="a_node10"><a xlink:href="classTVirtualMonitoringWriter.html" target="_top" xlink:title="TVirtualMonitoringWriter">
<polygon fill="#ffffff" stroke="#000000" points="112.5,-67.5 112.5,-86.5 248.5,-86.5 248.5,-67.5 112.5,-67.5"/>
<text text-anchor="middle" x="180.5" y="-74.5" font-family="Helvetica,sans-Serif" font-size="10.00" fill="#000000">TVirtualMonitoringWriter</text>
</a>
</g>
</g>
<!-- Node6&#45;&gt;Node13 -->
<g id="edge10" class="edge">
<title>Node6&#45;&gt;Node13</title>
<path fill="none" stroke="#191970" d="M150.2063,-238.2695C157.4567,-199.6715 173.2782,-115.4457 178.663,-86.7795"/>
<polygon fill="#191970" stroke="#191970" points="146.7344,-237.7944 148.328,-248.2687 153.6141,-239.0867 146.7344,-237.7944"/>
</g>
<!-- Node7 -->
<g id="node4" class="node">
<title>Node7</title>
<g id="a_node4"><a xlink:href="classTObject.html" target="_top" xlink:title="Mother of all ROOT objects. ">
<polygon fill="#ffffff" stroke="#000000" points="292.5,-431.5 292.5,-450.5 346.5,-450.5 346.5,-431.5 292.5,-431.5"/>
<text text-anchor="middle" x="319.5" y="-438.5" font-family="Helvetica,sans-Serif" font-size="10.00" fill="#000000">TObject</text>
</a>
</g>
</g>
<!-- Node7&#45;&gt;Node6 -->
<g id="edge3" class="edge">
<title>Node7&#45;&gt;Node6</title>
<path fill="none" stroke="#191970" d="M344.4961,-425.3315C349.1877,-421.6649 353.7804,-417.5006 357.5,-413 394.2619,-368.5193 425.5832,-326.5234 384.5,-286 369.8752,-271.5745 236.1612,-262.7418 175.8135,-259.4583"/>
<polygon fill="#191970" stroke="#191970" points="342.1881,-422.6801 336.1114,-431.359 346.2741,-428.3639 342.1881,-422.6801"/>
</g>
<!-- Node16 -->
<g id="node13" class="node">
<title>Node16</title>
<g id="a_node13"><a xlink:href="classTCollection.html" target="_top" xlink:title="Collection abstract base class. ">
<polygon fill="#ffffff" stroke="#000000" points="188,-286.5 188,-305.5 259,-305.5 259,-286.5 188,-286.5"/>
<text text-anchor="middle" x="223.5" y="-293.5" font-family="Helvetica,sans-Serif" font-size="10.00" fill="#000000">TCollection</text>
</a>
</g>
</g>
<!-- Node7&#45;&gt;Node16 -->
<g id="edge14" class="edge">
<title>Node7&#45;&gt;Node16</title>
<path fill="none" stroke="#191970" d="M303.4705,-423.8284C293.6508,-412.8747 281.1577,-398.1281 271.5,-384 269.0202,-380.3724 240.5681,-327.6791 228.6752,-305.6105"/>
<polygon fill="#191970" stroke="#191970" points="301.0432,-426.3611 310.3673,-431.3924 306.2159,-421.6447 301.0432,-426.3611"/>
</g>
<!-- Node17 -->
<g id="node14" class="node">
<title>Node17</title>
<g id="a_node14"><a xlink:href="classTObjectTable.html" target="_top" xlink:title="This class registers all instances of TObject and its derived classes in a hash table. ">
<polygon fill="#ffffff" stroke="#000000" points="280.5,-364.5 280.5,-383.5 360.5,-383.5 360.5,-364.5 280.5,-364.5"/>
<text text-anchor="middle" x="320.5" y="-371.5" font-family="Helvetica,sans-Serif" font-size="10.00" fill="#000000">TObjectTable</text>
</a>
</g>
</g>
<!-- Node7&#45;&gt;Node17 -->
<g id="edge16" class="edge">
<title>Node7&#45;&gt;Node17</title>
<path fill="none" stroke="#191970" d="M317.6853,-421.2589C317.3338,-415.0909 317.1655,-408.2623 317.5,-402 317.8286,-395.8487 318.5605,-388.9696 319.2191,-383.5693"/>
<polygon fill="#191970" stroke="#191970" points="314.2065,-421.6737 318.4467,-431.383 321.1868,-421.1486 314.2065,-421.6737"/>
</g>
<!-- Node7&#45;&gt;Node17 -->
<g id="edge17" class="edge">
<title>Node7&#45;&gt;Node17</title>
<path fill="none" stroke="#9a32cd" stroke-dasharray="5,2" d="M319.7969,-421.1079C319.9819,-408.714 320.2115,-393.3263 320.357,-383.5817"/>
<polygon fill="#9a32cd" stroke="#9a32cd" points="316.293,-421.3494 319.6433,-431.4005 323.2922,-421.4539 316.293,-421.3494"/>
<text text-anchor="middle" x="337" y="-405" font-family="Helvetica,sans-Serif" font-size="10.00" fill="#000000"> fTable</text>
</g>
<!-- Node8 -->
<g id="node5" class="node">
<title>Node8</title>
<g id="a_node5"><a xlink:href="classTString.html" target="_top" xlink:title="Basic string class. ">
<polygon fill="#ffffff" stroke="#000000" points="146,-364.5 146,-383.5 197,-383.5 197,-364.5 146,-364.5"/>
<text text-anchor="middle" x="171.5" y="-371.5" font-family="Helvetica,sans-Serif" font-size="10.00" fill="#000000">TString</text>
</a>
</g>
</g>
<!-- Node8&#45;&gt;Node6 -->
<g id="edge4" class="edge">
<title>Node8&#45;&gt;Node6</title>
<path fill="none" stroke="#9a32cd" stroke-dasharray="5,2" d="M155.6715,-356.0602C153.5897,-352.8873 151.7485,-349.4799 150.5,-346 140.7908,-318.9371 143.1847,-284.1638 145.1416,-267.6"/>
<polygon fill="#9a32cd" stroke="#9a32cd" points="153.0499,-358.3955 161.8828,-364.2462 158.6264,-354.1642 153.0499,-358.3955"/>
<text text-anchor="middle" x="167.5" y="-338" font-family="Helvetica,sans-Serif" font-size="10.00" fill="#000000"> fTitle</text>
<text text-anchor="middle" x="167.5" y="-327" font-family="Helvetica,sans-Serif" font-size="10.00" fill="#000000">fName</text>
</g>
<!-- Node8&#45;&gt;Node16 -->
<g id="edge18" class="edge">
<title>Node8&#45;&gt;Node16</title>
<path fill="none" stroke="#9a32cd" stroke-dasharray="5,2" d="M181.8636,-355.4853C187.4108,-345.9062 194.5227,-334.1291 201.5,-324 205.8486,-317.687 211.1462,-310.9204 215.453,-305.6207"/>
<polygon fill="#9a32cd" stroke="#9a32cd" points="178.8136,-353.7686 176.9011,-364.1894 184.8947,-357.2357 178.8136,-353.7686"/>
<text text-anchor="middle" x="220" y="-332.5" font-family="Helvetica,sans-Serif" font-size="10.00" fill="#000000"> fName</text>
</g>
<!-- Node9 -->
<g id="node6" class="node">
<title>Node9</title>
<g id="a_node6"><a xlink:href="structTString_1_1Rep__t.html" target="_top" xlink:title="TString::Rep_t">
<polygon fill="#ffffff" stroke="#000000" points="129.5,-431.5 129.5,-450.5 213.5,-450.5 213.5,-431.5 129.5,-431.5"/>
<text text-anchor="middle" x="171.5" y="-438.5" font-family="Helvetica,sans-Serif" font-size="10.00" fill="#000000">TString::Rep_t</text>
</a>
</g>
</g>
<!-- Node9&#45;&gt;Node8 -->
<g id="edge5" class="edge">
<title>Node9&#45;&gt;Node8</title>
<path fill="none" stroke="#9a32cd" stroke-dasharray="5,2" d="M171.5,-421.1079C171.5,-408.714 171.5,-393.3263 171.5,-383.5817"/>
<polygon fill="#9a32cd" stroke="#9a32cd" points="168.0001,-421.4005 171.5,-431.4005 175.0001,-421.4006 168.0001,-421.4005"/>
<text text-anchor="middle" x="184" y="-405" font-family="Helvetica,sans-Serif" font-size="10.00" fill="#000000"> fRep</text>
</g>
<!-- Node10 -->
<g id="node7" class="node">
<title>Node10</title>
<g id="a_node7"><a xlink:href="structTString_1_1LongStr__t.html" target="_top" xlink:title="TString::LongStr_t">
<polygon fill="#ffffff" stroke="#000000" points="0,-498.5 0,-517.5 103,-517.5 103,-498.5 0,-498.5"/>
<text text-anchor="middle" x="51.5" y="-505.5" font-family="Helvetica,sans-Serif" font-size="10.00" fill="#000000">TString::LongStr_t</text>
</a>
</g>
</g>
<!-- Node10&#45;&gt;Node9 -->
<g id="edge6" class="edge">
<title>Node10&#45;&gt;Node9</title>
<path fill="none" stroke="#9a32cd" stroke-dasharray="5,2" d="M77.6768,-493.3846C100.9489,-480.391 134.3033,-461.7681 154.3388,-450.5817"/>
<polygon fill="#9a32cd" stroke="#9a32cd" points="75.7181,-490.4696 68.6931,-498.4005 79.1306,-496.5815 75.7181,-490.4696"/>
<text text-anchor="middle" x="135" y="-472" font-family="Helvetica,sans-Serif" font-size="10.00" fill="#000000"> fLong</text>
</g>
<!-- Node11 -->
<g id="node8" class="node">
<title>Node11</title>
<g id="a_node8"><a xlink:href="structTString_1_1RawStr__t.html" target="_top" xlink:title="TString::RawStr_t">
<polygon fill="#ffffff" stroke="#000000" points="121,-498.5 121,-517.5 222,-517.5 222,-498.5 121,-498.5"/>
<text text-anchor="middle" x="171.5" y="-505.5" font-family="Helvetica,sans-Serif" font-size="10.00" fill="#000000">TString::RawStr_t</text>
</a>
</g>
</g>
<!-- Node11&#45;&gt;Node9 -->
<g id="edge7" class="edge">
<title>Node11&#45;&gt;Node9</title>
<path fill="none" stroke="#9a32cd" stroke-dasharray="5,2" d="M171.5,-488.1079C171.5,-475.714 171.5,-460.3263 171.5,-450.5817"/>
<polygon fill="#9a32cd" stroke="#9a32cd" points="168.0001,-488.4005 171.5,-498.4005 175.0001,-488.4006 168.0001,-488.4005"/>
<text text-anchor="middle" x="185.5" y="-472" font-family="Helvetica,sans-Serif" font-size="10.00" fill="#000000"> fRaw</text>
</g>
<!-- Node12 -->
<g id="node9" class="node">
<title>Node12</title>
<g id="a_node9"><a xlink:href="structTString_1_1ShortStr__t.html" target="_top" xlink:title="TString::ShortStr_t">
<polygon fill="#ffffff" stroke="#000000" points="240,-498.5 240,-517.5 345,-517.5 345,-498.5 240,-498.5"/>
<text text-anchor="middle" x="292.5" y="-505.5" font-family="Helvetica,sans-Serif" font-size="10.00" fill="#000000">TString::ShortStr_t</text>
</a>
</g>
</g>
<!-- Node12&#45;&gt;Node9 -->
<g id="edge8" class="edge">
<title>Node12&#45;&gt;Node9</title>
<path fill="none" stroke="#9a32cd" stroke-dasharray="5,2" d="M266.105,-493.3846C242.639,-480.391 209.0066,-461.7681 188.8042,-450.5817"/>
<polygon fill="#9a32cd" stroke="#9a32cd" points="264.7198,-496.6183 275.1637,-498.4005 268.1107,-490.4944 264.7198,-496.6183"/>
<text text-anchor="middle" x="256" y="-472" font-family="Helvetica,sans-Serif" font-size="10.00" fill="#000000"> fShort</text>
</g>
<!-- Node13&#45;&gt;Node4 -->
<g id="edge9" class="edge">
<title>Node13&#45;&gt;Node4</title>
<path fill="none" stroke="#9a32cd" stroke-dasharray="5,2" d="M161.1558,-60.7992C145.7694,-47.9131 124.7635,-30.3207 111.9408,-19.5817"/>
<polygon fill="#9a32cd" stroke="#9a32cd" points="159.1242,-63.6631 169.038,-67.4005 163.6187,-58.2965 159.1242,-63.6631"/>
<text text-anchor="middle" x="164" y="-41" font-family="Helvetica,sans-Serif" font-size="10.00" fill="#000000"> fWriter</text>
</g>
<!-- Node14 -->
<g id="node11" class="node">
<title>Node14</title>
<g id="a_node11"><a xlink:href="classTList.html" target="_top" xlink:title="A doubly linked list. ">
<polygon fill="#ffffff" stroke="#000000" points="203.5,-134.5 203.5,-153.5 243.5,-153.5 243.5,-134.5 203.5,-134.5"/>
<text text-anchor="middle" x="223.5" y="-141.5" font-family="Helvetica,sans-Serif" font-size="10.00" fill="#000000">TList</text>
</a>
</g>
</g>
<!-- Node14&#45;&gt;Node13 -->
<g id="edge11" class="edge">
<title>Node14&#45;&gt;Node13</title>
<path fill="none" stroke="#9a32cd" stroke-dasharray="5,2" d="M211.9351,-125.9803C203.7963,-113.2989 193.2225,-96.8235 186.6494,-86.5817"/>
<polygon fill="#9a32cd" stroke="#9a32cd" points="208.9923,-127.8751 217.3391,-134.4005 214.8834,-124.0942 208.9923,-127.8751"/>
<text text-anchor="middle" x="250" y="-108" font-family="Helvetica,sans-Serif" font-size="10.00" fill="#000000"> fTmpOpenPhases</text>
</g>
<!-- Node15 -->
<g id="node12" class="node">
<title>Node15</title>
<g id="a_node12"><a xlink:href="classTSeqCollection.html" target="_top" xlink:title="Sequenceable collection abstract base class. ">
<polygon fill="#ffffff" stroke="#000000" points="179,-210.5 179,-229.5 268,-229.5 268,-210.5 179,-210.5"/>
<text text-anchor="middle" x="223.5" y="-217.5" font-family="Helvetica,sans-Serif" font-size="10.00" fill="#000000">TSeqCollection</text>
</a>
</g>
</g>
<!-- Node15&#45;&gt;Node14 -->
<g id="edge12" class="edge">
<title>Node15&#45;&gt;Node14</title>
<path fill="none" stroke="#191970" d="M223.5,-200.1362C223.5,-185.2258 223.5,-165.4488 223.5,-153.7874"/>
<polygon fill="#191970" stroke="#191970" points="220.0001,-200.3745 223.5,-210.3745 227.0001,-200.3746 220.0001,-200.3745"/>
</g>
<!-- Node16&#45;&gt;Node15 -->
<g id="edge13" class="edge">
<title>Node16&#45;&gt;Node15</title>
<path fill="none" stroke="#191970" d="M223.5,-276.1362C223.5,-261.2258 223.5,-241.4488 223.5,-229.7874"/>
<polygon fill="#191970" stroke="#191970" points="220.0001,-276.3745 223.5,-286.3745 227.0001,-276.3746 220.0001,-276.3745"/>
</g>
<!-- Node16&#45;&gt;Node16 -->
<g id="edge19" class="edge">
<title>Node16&#45;&gt;Node16</title>
<path fill="none" stroke="#9a32cd" stroke-dasharray="5,2" d="M269.2805,-301.8745C273.9895,-300.7182 277,-298.76 277,-296 277,-291.584 269.2932,-289.2207 259.2532,-288.9102"/>
<polygon fill="#9a32cd" stroke="#9a32cd" points="268.7594,-298.4119 259.2532,-303.0898 269.6017,-305.3611 268.7594,-298.4119"/>
<text text-anchor="middle" x="326" y="-293.5" font-family="Helvetica,sans-Serif" font-size="10.00" fill="#000000"> fgCurrentCollection</text>
</g>
<!-- Node17&#45;&gt;Node16 -->
<g id="edge15" class="edge">
<title>Node17&#45;&gt;Node16</title>
<path fill="none" stroke="#9a32cd" stroke-dasharray="5,2" d="M300.4252,-357.8834C295.7961,-354.053 290.9317,-349.9346 286.5,-346 275.9219,-336.6084 274.4371,-332.9709 263.5,-324 255.504,-317.4415 246.0447,-310.7749 238.3328,-305.5928"/>
<polygon fill="#9a32cd" stroke="#9a32cd" points="298.4004,-360.7488 308.3589,-364.3652 302.8292,-355.3279 298.4004,-360.7488"/>
<text text-anchor="middle" x="338" y="-332.5" font-family="Helvetica,sans-Serif" font-size="10.00" fill="#000000"> fgGarbageCollection</text>
</g>
<!-- Node18 -->
<g id="node15" class="node">
<title>Node18</title>
<polygon fill="#ffffff" stroke="#bfbfbf" points="286.5,-210.5 286.5,-229.5 434.5,-229.5 434.5,-210.5 286.5,-210.5"/>
<text text-anchor="middle" x="360.5" y="-217.5" font-family="Helvetica,sans-Serif" font-size="10.00" fill="#000000">std::weak_ptr&lt; TObjLink &gt;</text>
</g>
<!-- Node18&#45;&gt;Node14 -->
<g id="edge20" class="edge">
<title>Node18&#45;&gt;Node14</title>
<path fill="none" stroke="#9a32cd" stroke-dasharray="5,2" d="M334.0829,-205.3452C306.5499,-190.0715 264.2084,-166.5828 240.7103,-153.5473"/>
<polygon fill="#9a32cd" stroke="#9a32cd" points="332.7064,-208.5841 343.1489,-210.3745 336.1021,-202.4629 332.7064,-208.5841"/>
<text text-anchor="middle" x="327" y="-179.5" font-family="Helvetica,sans-Serif" font-size="10.00" fill="#000000"> fCache</text>
</g>
</g>
</svg>
