<?xml version="1.0" encoding="UTF-8" standalone="no"?>
<!DOCTYPE svg PUBLIC "-//W3C//DTD SVG 1.1//EN"
 "http://www.w3.org/Graphics/SVG/1.1/DTD/svg11.dtd">
<!-- Generated by graphviz version 2.40.1 (0)
 -->
<!-- Title: TGLVEntry Pages: 1 -->
<svg width="175pt" height="364pt"
 viewBox="0.00 0.00 174.50 364.00" xmlns="http://www.w3.org/2000/svg" xmlns:xlink="http://www.w3.org/1999/xlink">
<g id="graph0" class="graph" transform="scale(1 1) rotate(0) translate(4 360)">
<title>TGLVEntry</title>
<polygon fill="#ffffff" stroke="transparent" points="-4,4 -4,-360 170.5,-360 170.5,4 -4,4"/>
<!-- Node0 -->
<g id="node1" class="node">
<title>Node0</title>
<polygon fill="#bfbfbf" stroke="#000000" points="52,-112.5 52,-131.5 119,-131.5 119,-112.5 52,-112.5"/>
<text text-anchor="middle" x="85.5" y="-119.5" font-family="Helvetica,sans-Serif" font-size="10.00" fill="#000000">TGLVEntry</text>
</g>
<!-- Node6 -->
<g id="node7" class="node">
<title>Node6</title>
<g id="a_node7"><a xlink:href="classTGFileItem.html" target="_top" xlink:title="TGFileItem">
<polygon fill="#ffffff" stroke="#000000" points="7,-56.5 7,-75.5 76,-75.5 76,-56.5 7,-56.5"/>
<text text-anchor="middle" x="41.5" y="-63.5" font-family="Helvetica,sans-Serif" font-size="10.00" fill="#000000">TGFileItem</text>
</a>
</g>
</g>
<!-- Node0&#45;&gt;Node6 -->
<g id="edge6" class="edge">
<title>Node0&#45;&gt;Node6</title>
<path fill="none" stroke="#191970" d="M71.5231,-104.2112C64.0871,-94.7472 55.234,-83.4797 49.0764,-75.6427"/>
<polygon fill="#191970" stroke="#191970" points="68.9054,-106.5447 77.8358,-112.2455 74.4097,-102.22 68.9054,-106.5447"/>
</g>
<!-- Node8 -->
<g id="node9" class="node">
<title>Node8</title>
<g id="a_node9"><a xlink:href="classTTVLVEntry.html" target="_top" xlink:title="This class represent entries that goes into the TreeViewer listview container. ">
<polygon fill="#ffffff" stroke="#000000" points="94.5,-56.5 94.5,-75.5 166.5,-75.5 166.5,-56.5 94.5,-56.5"/>
<text text-anchor="middle" x="130.5" y="-63.5" font-family="Helvetica,sans-Serif" font-size="10.00" fill="#000000">TTVLVEntry</text>
</a>
</g>
</g>
<!-- Node0&#45;&gt;Node8 -->
<g id="edge8" class="edge">
<title>Node0&#45;&gt;Node8</title>
<path fill="none" stroke="#191970" d="M99.7946,-104.2112C107.3996,-94.7472 116.4538,-83.4797 122.7514,-75.6427"/>
<polygon fill="#191970" stroke="#191970" points="96.8741,-102.2581 93.3384,-112.2455 102.3306,-106.6428 96.8741,-102.2581"/>
</g>
<!-- Node1 -->
<g id="node2" class="node">
<title>Node1</title>
<g id="a_node2"><a xlink:href="classTGFrame.html" target="_top" xlink:title="TGFrame">
<polygon fill="#ffffff" stroke="#000000" points="55.5,-168.5 55.5,-187.5 115.5,-187.5 115.5,-168.5 55.5,-168.5"/>
<text text-anchor="middle" x="85.5" y="-175.5" font-family="Helvetica,sans-Serif" font-size="10.00" fill="#000000">TGFrame</text>
</a>
</g>
</g>
<!-- Node1&#45;&gt;Node0 -->
<g id="edge1" class="edge">
<title>Node1&#45;&gt;Node0</title>
<path fill="none" stroke="#191970" d="M85.5,-158.1575C85.5,-149.155 85.5,-138.9199 85.5,-131.6427"/>
<polygon fill="#191970" stroke="#191970" points="82.0001,-158.2455 85.5,-168.2455 89.0001,-158.2456 82.0001,-158.2455"/>
</g>
<!-- Node2 -->
<g id="node3" class="node">
<title>Node2</title>
<g id="a_node3"><a xlink:href="classTGWindow.html" target="_top" xlink:title="TGWindow">
<polygon fill="#ffffff" stroke="#000000" points="9,-224.5 9,-243.5 78,-243.5 78,-224.5 9,-224.5"/>
<text text-anchor="middle" x="43.5" y="-231.5" font-family="Helvetica,sans-Serif" font-size="10.00" fill="#000000">TGWindow</text>
</a>
</g>
</g>
<!-- Node2&#45;&gt;Node1 -->
<g id="edge2" class="edge">
<title>Node2&#45;&gt;Node1</title>
<path fill="none" stroke="#191970" d="M56.8416,-216.2112C63.9396,-206.7472 72.3903,-195.4797 78.268,-187.6427"/>
<polygon fill="#191970" stroke="#191970" points="54.0159,-214.1455 50.8158,-224.2455 59.6159,-218.3455 54.0159,-214.1455"/>
</g>
<!-- Node3 -->
<g id="node4" class="node">
<title>Node3</title>
<g id="a_node4"><a xlink:href="classTGObject.html" target="_top" xlink:title="TGObject">
<polygon fill="#ffffff" stroke="#000000" points="12.5,-280.5 12.5,-299.5 74.5,-299.5 74.5,-280.5 12.5,-280.5"/>
<text text-anchor="middle" x="43.5" y="-287.5" font-family="Helvetica,sans-Serif" font-size="10.00" fill="#000000">TGObject</text>
</a>
</g>
</g>
<!-- Node3&#45;&gt;Node2 -->
<g id="edge3" class="edge">
<title>Node3&#45;&gt;Node2</title>
<path fill="none" stroke="#191970" d="M43.5,-270.1575C43.5,-261.155 43.5,-250.9199 43.5,-243.6427"/>
<polygon fill="#191970" stroke="#191970" points="40.0001,-270.2455 43.5,-280.2455 47.0001,-270.2456 40.0001,-270.2455"/>
</g>
<!-- Node4 -->
<g id="node5" class="node">
<title>Node4</title>
<g id="a_node5"><a xlink:href="classTObject.html" target="_top" xlink:title="Mother of all ROOT objects. ">
<polygon fill="#ffffff" stroke="#000000" points="16.5,-336.5 16.5,-355.5 70.5,-355.5 70.5,-336.5 16.5,-336.5"/>
<text text-anchor="middle" x="43.5" y="-343.5" font-family="Helvetica,sans-Serif" font-size="10.00" fill="#000000">TObject</text>
</a>
</g>
</g>
<!-- Node4&#45;&gt;Node3 -->
<g id="edge4" class="edge">
<title>Node4&#45;&gt;Node3</title>
<path fill="none" stroke="#191970" d="M43.5,-326.1575C43.5,-317.155 43.5,-306.9199 43.5,-299.6427"/>
<polygon fill="#191970" stroke="#191970" points="40.0001,-326.2455 43.5,-336.2455 47.0001,-326.2456 40.0001,-326.2455"/>
</g>
<!-- Node5 -->
<g id="node6" class="node">
<title>Node5</title>
<g id="a_node6"><a xlink:href="classTQObject.html" target="_top" xlink:title="This is the ROOT implementation of the Qt object communication mechanism (see also http://www...">
<polygon fill="#ffffff" stroke="#000000" points="96.5,-224.5 96.5,-243.5 158.5,-243.5 158.5,-224.5 96.5,-224.5"/>
<text text-anchor="middle" x="127.5" y="-231.5" font-family="Helvetica,sans-Serif" font-size="10.00" fill="#000000">TQObject</text>
</a>
</g>
</g>
<!-- Node5&#45;&gt;Node1 -->
<g id="edge5" class="edge">
<title>Node5&#45;&gt;Node1</title>
<path fill="none" stroke="#191970" d="M114.1584,-216.2112C107.0604,-206.7472 98.6097,-195.4797 92.732,-187.6427"/>
<polygon fill="#191970" stroke="#191970" points="111.3841,-218.3455 120.1842,-224.2455 116.9841,-214.1455 111.3841,-218.3455"/>
</g>
<!-- Node7 -->
<g id="node8" class="node">
<title>Node7</title>
<polygon fill="#ffffff" stroke="#bfbfbf" points="0,-.5 0,-19.5 83,-19.5 83,-.5 0,-.5"/>
<text text-anchor="middle" x="41.5" y="-7.5" font-family="Helvetica,sans-Serif" font-size="10.00" fill="#000000">TRootObjItem</text>
</g>
<!-- Node6&#45;&gt;Node7 -->
<g id="edge7" class="edge">
<title>Node6&#45;&gt;Node7</title>
<path fill="none" stroke="#191970" d="M41.5,-46.1575C41.5,-37.155 41.5,-26.9199 41.5,-19.6427"/>
<polygon fill="#191970" stroke="#191970" points="38.0001,-46.2455 41.5,-56.2455 45.0001,-46.2456 38.0001,-46.2455"/>
</g>
</g>
</svg>
