<?xml version="1.0" encoding="UTF-8" standalone="no"?>
<!DOCTYPE svg PUBLIC "-//W3C//DTD SVG 1.1//EN"
 "http://www.w3.org/Graphics/SVG/1.1/DTD/svg11.dtd">
<!-- Generated by graphviz version 2.40.1 (0)
 -->
<!-- Title: TEveCompositeFrameInPack Pages: 1 -->
<svg width="163pt" height="364pt"
 viewBox="0.00 0.00 163.00 364.00" xmlns="http://www.w3.org/2000/svg" xmlns:xlink="http://www.w3.org/1999/xlink">
<g id="graph0" class="graph" transform="scale(1 1) rotate(0) translate(4 360)">
<title>TEveCompositeFrameInPack</title>
<polygon fill="#ffffff" stroke="transparent" points="-4,4 -4,-360 159,-360 159,4 -4,4"/>
<!-- Node0 -->
<g id="node1" class="node">
<title>Node0</title>
<polygon fill="#bfbfbf" stroke="#000000" points="0,-.5 0,-19.5 155,-19.5 155,-.5 0,-.5"/>
<text text-anchor="middle" x="77.5" y="-7.5" font-family="Helvetica,sans-Serif" font-size="10.00" fill="#000000">TEveCompositeFrameInPack</text>
</g>
<!-- Node1 -->
<g id="node2" class="node">
<title>Node1</title>
<g id="a_node2"><a xlink:href="classTEveCompositeFrame.html" target="_top" xlink:title="Abstract base&#45;class for frame&#45;slots that encompass EVE&#45;windows (sub&#45;classes of TEveWindow). ">
<polygon fill="#ffffff" stroke="#000000" points="16,-56.5 16,-75.5 139,-75.5 139,-56.5 16,-56.5"/>
<text text-anchor="middle" x="77.5" y="-63.5" font-family="Helvetica,sans-Serif" font-size="10.00" fill="#000000">TEveCompositeFrame</text>
</a>
</g>
</g>
<!-- Node1&#45;&gt;Node0 -->
<g id="edge1" class="edge">
<title>Node1&#45;&gt;Node0</title>
<path fill="none" stroke="#191970" d="M77.5,-46.1575C77.5,-37.155 77.5,-26.9199 77.5,-19.6427"/>
<polygon fill="#191970" stroke="#191970" points="74.0001,-46.2455 77.5,-56.2455 81.0001,-46.2456 74.0001,-46.2455"/>
</g>
<!-- Node2 -->
<g id="node3" class="node">
<title>Node2</title>
<g id="a_node3"><a xlink:href="classTGCompositeFrame.html" target="_top" xlink:title="TGCompositeFrame">
<polygon fill="#ffffff" stroke="#000000" points="21,-112.5 21,-131.5 134,-131.5 134,-112.5 21,-112.5"/>
<text text-anchor="middle" x="77.5" y="-119.5" font-family="Helvetica,sans-Serif" font-size="10.00" fill="#000000">TGCompositeFrame</text>
</a>
</g>
</g>
<!-- Node2&#45;&gt;Node1 -->
<g id="edge2" class="edge">
<title>Node2&#45;&gt;Node1</title>
<path fill="none" stroke="#191970" d="M77.5,-102.1575C77.5,-93.155 77.5,-82.9199 77.5,-75.6427"/>
<polygon fill="#191970" stroke="#191970" points="74.0001,-102.2455 77.5,-112.2455 81.0001,-102.2456 74.0001,-102.2455"/>
</g>
<!-- Node3 -->
<g id="node4" class="node">
<title>Node3</title>
<g id="a_node4"><a xlink:href="classTGFrame.html" target="_top" xlink:title="TGFrame">
<polygon fill="#ffffff" stroke="#000000" points="47.5,-168.5 47.5,-187.5 107.5,-187.5 107.5,-168.5 47.5,-168.5"/>
<text text-anchor="middle" x="77.5" y="-175.5" font-family="Helvetica,sans-Serif" font-size="10.00" fill="#000000">TGFrame</text>
</a>
</g>
</g>
<!-- Node3&#45;&gt;Node2 -->
<g id="edge3" class="edge">
<title>Node3&#45;&gt;Node2</title>
<path fill="none" stroke="#191970" d="M77.5,-158.1575C77.5,-149.155 77.5,-138.9199 77.5,-131.6427"/>
<polygon fill="#191970" stroke="#191970" points="74.0001,-158.2455 77.5,-168.2455 81.0001,-158.2456 74.0001,-158.2455"/>
</g>
<!-- Node4 -->
<g id="node5" class="node">
<title>Node4</title>
<g id="a_node5"><a xlink:href="classTGWindow.html" target="_top" xlink:title="TGWindow">
<polygon fill="#ffffff" stroke="#000000" points="1,-224.5 1,-243.5 70,-243.5 70,-224.5 1,-224.5"/>
<text text-anchor="middle" x="35.5" y="-231.5" font-family="Helvetica,sans-Serif" font-size="10.00" fill="#000000">TGWindow</text>
</a>
</g>
</g>
<!-- Node4&#45;&gt;Node3 -->
<g id="edge4" class="edge">
<title>Node4&#45;&gt;Node3</title>
<path fill="none" stroke="#191970" d="M48.8416,-216.2112C55.9396,-206.7472 64.3903,-195.4797 70.268,-187.6427"/>
<polygon fill="#191970" stroke="#191970" points="46.0159,-214.1455 42.8158,-224.2455 51.6159,-218.3455 46.0159,-214.1455"/>
</g>
<!-- Node5 -->
<g id="node6" class="node">
<title>Node5</title>
<g id="a_node6"><a xlink:href="classTGObject.html" target="_top" xlink:title="TGObject">
<polygon fill="#ffffff" stroke="#000000" points="4.5,-280.5 4.5,-299.5 66.5,-299.5 66.5,-280.5 4.5,-280.5"/>
<text text-anchor="middle" x="35.5" y="-287.5" font-family="Helvetica,sans-Serif" font-size="10.00" fill="#000000">TGObject</text>
</a>
</g>
</g>
<!-- Node5&#45;&gt;Node4 -->
<g id="edge5" class="edge">
<title>Node5&#45;&gt;Node4</title>
<path fill="none" stroke="#191970" d="M35.5,-270.1575C35.5,-261.155 35.5,-250.9199 35.5,-243.6427"/>
<polygon fill="#191970" stroke="#191970" points="32.0001,-270.2455 35.5,-280.2455 39.0001,-270.2456 32.0001,-270.2455"/>
</g>
<!-- Node6 -->
<g id="node7" class="node">
<title>Node6</title>
<g id="a_node7"><a xlink:href="classTObject.html" target="_top" xlink:title="Mother of all ROOT objects. ">
<polygon fill="#ffffff" stroke="#000000" points="8.5,-336.5 8.5,-355.5 62.5,-355.5 62.5,-336.5 8.5,-336.5"/>
<text text-anchor="middle" x="35.5" y="-343.5" font-family="Helvetica,sans-Serif" font-size="10.00" fill="#000000">TObject</text>
</a>
</g>
</g>
<!-- Node6&#45;&gt;Node5 -->
<g id="edge6" class="edge">
<title>Node6&#45;&gt;Node5</title>
<path fill="none" stroke="#191970" d="M35.5,-326.1575C35.5,-317.155 35.5,-306.9199 35.5,-299.6427"/>
<polygon fill="#191970" stroke="#191970" points="32.0001,-326.2455 35.5,-336.2455 39.0001,-326.2456 32.0001,-326.2455"/>
</g>
<!-- Node7 -->
<g id="node8" class="node">
<title>Node7</title>
<g id="a_node8"><a xlink:href="classTQObject.html" target="_top" xlink:title="This is the ROOT implementation of the Qt object communication mechanism (see also http://www...">
<polygon fill="#ffffff" stroke="#000000" points="88.5,-224.5 88.5,-243.5 150.5,-243.5 150.5,-224.5 88.5,-224.5"/>
<text text-anchor="middle" x="119.5" y="-231.5" font-family="Helvetica,sans-Serif" font-size="10.00" fill="#000000">TQObject</text>
</a>
</g>
</g>
<!-- Node7&#45;&gt;Node3 -->
<g id="edge7" class="edge">
<title>Node7&#45;&gt;Node3</title>
<path fill="none" stroke="#191970" d="M106.1584,-216.2112C99.0604,-206.7472 90.6097,-195.4797 84.732,-187.6427"/>
<polygon fill="#191970" stroke="#191970" points="103.3841,-218.3455 112.1842,-224.2455 108.9841,-214.1455 103.3841,-218.3455"/>
</g>
</g>
</svg>
