<?xml version="1.0" encoding="UTF-8" standalone="no"?>
<!DOCTYPE svg PUBLIC "-//W3C//DTD SVG 1.1//EN"
 "http://www.w3.org/Graphics/SVG/1.1/DTD/svg11.dtd">
<!-- Generated by graphviz version 2.40.1 (0)
 -->
<!-- Title: ROOT::Experimental::RObjectDisplayItem Pages: 1 -->
<svg width="290pt" height="252pt"
 viewBox="0.00 0.00 290.00 252.00" xmlns="http://www.w3.org/2000/svg" xmlns:xlink="http://www.w3.org/1999/xlink">
<g id="graph0" class="graph" transform="scale(1 1) rotate(0) translate(4 248)">
<title>ROOT::Experimental::RObjectDisplayItem</title>
<polygon fill="#ffffff" stroke="transparent" points="-4,4 -4,-248 286,-248 286,4 -4,4"/>
<!-- Node2 -->
<g id="node1" class="node">
<title>Node2</title>
<polygon fill="#bfbfbf" stroke="#000000" points="92,-.5 92,-30.5 212,-30.5 212,-.5 92,-.5"/>
<text text-anchor="start" x="100" y="-18.5" font-family="Helvetica,sans-Serif" font-size="10.00" fill="#000000">ROOT::Experimental</text>
<text text-anchor="middle" x="152" y="-7.5" font-family="Helvetica,sans-Serif" font-size="10.00" fill="#000000">::RObjectDisplayItem</text>
</g>
<!-- Node3 -->
<g id="node2" class="node">
<title>Node3</title>
<g id="a_node2"><a xlink:href="classROOT_1_1Experimental_1_1RDisplayItem.html" target="_top" xlink:title="Base class for painting data for JS. ">
<polygon fill="#ffffff" stroke="#000000" points="94.5,-78.5 94.5,-108.5 209.5,-108.5 209.5,-78.5 94.5,-78.5"/>
<text text-anchor="start" x="102.5" y="-96.5" font-family="Helvetica,sans-Serif" font-size="10.00" fill="#000000">ROOT::Experimental</text>
<text text-anchor="middle" x="152" y="-85.5" font-family="Helvetica,sans-Serif" font-size="10.00" fill="#000000">::RDisplayItem</text>
</a>
</g>
</g>
<!-- Node3&#45;&gt;Node2 -->
<g id="edge1" class="edge">
<title>Node3&#45;&gt;Node2</title>
<path fill="none" stroke="#191970" d="M152,-68.2875C152,-55.9187 152,-41.4264 152,-30.7592"/>
<polygon fill="#191970" stroke="#191970" points="148.5001,-68.4608 152,-78.4608 155.5001,-68.4608 148.5001,-68.4608"/>
</g>
<!-- Node4 -->
<g id="node3" class="node">
<title>Node4</title>
<g id="a_node3"><a xlink:title="STL class. ">
<polygon fill="#ffffff" stroke="#bfbfbf" points="19.5,-156.5 19.5,-175.5 84.5,-175.5 84.5,-156.5 19.5,-156.5"/>
<text text-anchor="middle" x="52" y="-163.5" font-family="Helvetica,sans-Serif" font-size="10.00" fill="#000000">std::string</text>
</a>
</g>
</g>
<!-- Node4&#45;&gt;Node2 -->
<g id="edge4" class="edge">
<title>Node4&#45;&gt;Node2</title>
<path fill="none" stroke="#9a32cd" stroke-dasharray="5,2" d="M44.4912,-146.6789C38.4884,-127.8648 32.8898,-99.0986 45,-78 57.9049,-55.5169 82.3682,-40.352 104.6494,-30.5972"/>
<polygon fill="#9a32cd" stroke="#9a32cd" points="41.2317,-147.9605 47.8495,-156.2343 47.8357,-145.6395 41.2317,-147.9605"/>
<text text-anchor="middle" x="65" y="-91" font-family="Helvetica,sans-Serif" font-size="10.00" fill="#000000"> fOption</text>
</g>
<!-- Node4&#45;&gt;Node3 -->
<g id="edge2" class="edge">
<title>Node4&#45;&gt;Node3</title>
<path fill="none" stroke="#9a32cd" stroke-dasharray="5,2" d="M73.7221,-150.2515C90.7401,-137.9134 114.2694,-120.8547 131.0786,-108.668"/>
<polygon fill="#9a32cd" stroke="#9a32cd" points="71.5282,-147.519 65.4864,-156.2223 75.637,-153.1863 71.5282,-147.519"/>
<text text-anchor="middle" x="129.5" y="-130" font-family="Helvetica,sans-Serif" font-size="10.00" fill="#000000"> fObjectID</text>
</g>
<!-- Node5 -->
<g id="node4" class="node">
<title>Node5</title>
<polygon fill="#ffffff" stroke="#bfbfbf" points="0,-213.5 0,-243.5 104,-243.5 104,-213.5 0,-213.5"/>
<text text-anchor="start" x="8" y="-231.5" font-family="Helvetica,sans-Serif" font-size="10.00" fill="#000000">std::basic_string&lt;</text>
<text text-anchor="middle" x="52" y="-220.5" font-family="Helvetica,sans-Serif" font-size="10.00" fill="#000000"> char &gt;</text>
</g>
<!-- Node5&#45;&gt;Node4 -->
<g id="edge3" class="edge">
<title>Node5&#45;&gt;Node4</title>
<path fill="none" stroke="#191970" d="M52,-203.3498C52,-193.6481 52,-183.1303 52,-175.7356"/>
<polygon fill="#191970" stroke="#191970" points="48.5001,-203.3705 52,-213.3705 55.5001,-203.3705 48.5001,-203.3705"/>
</g>
<!-- Node6 -->
<g id="node5" class="node">
<title>Node6</title>
<g id="a_node5"><a xlink:href="classTObject.html" target="_top" xlink:title="Mother of all ROOT objects. ">
<polygon fill="#ffffff" stroke="#000000" points="228,-84 228,-103 282,-103 282,-84 228,-84"/>
<text text-anchor="middle" x="255" y="-91" font-family="Helvetica,sans-Serif" font-size="10.00" fill="#000000">TObject</text>
</a>
</g>
</g>
<!-- Node6&#45;&gt;Node2 -->
<g id="edge5" class="edge">
<title>Node6&#45;&gt;Node2</title>
<path fill="none" stroke="#9a32cd" stroke-dasharray="5,2" d="M234.2022,-77.7502C216.1184,-64.0557 190.0803,-44.3375 172.1806,-30.7824"/>
<polygon fill="#9a32cd" stroke="#9a32cd" points="232.2851,-80.6888 242.3702,-83.9357 236.5111,-75.1083 232.2851,-80.6888"/>
<text text-anchor="middle" x="228.5" y="-52" font-family="Helvetica,sans-Serif" font-size="10.00" fill="#000000"> fObject</text>
</g>
</g>
</svg>
