<?xml version="1.0" encoding="UTF-8" standalone="no"?>
<!DOCTYPE svg PUBLIC "-//W3C//DTD SVG 1.1//EN"
 "http://www.w3.org/Graphics/SVG/1.1/DTD/svg11.dtd">
<!-- Generated by graphviz version 2.40.1 (0)
 -->
<!-- Title: G Pages: 1 -->
<svg width="213pt" height="638pt"
 viewBox="0.00 0.00 213.00 638.00" xmlns="http://www.w3.org/2000/svg" xmlns:xlink="http://www.w3.org/1999/xlink">
<g id="graph0" class="graph" transform="scale(1 1) rotate(0) translate(4 634)">
<title>G</title>
<polygon fill="#ffffff" stroke="transparent" points="-4,4 -4,-634 209,-634 209,4 -4,4"/>
<!-- mainlib -->
<g id="node1" class="node">
<title>mainlib</title>
<polygon fill="#abacba" stroke="#000000" points="79,-333 0,-333 0,-297 79,-297 79,-333"/>
<text text-anchor="middle" x="39.5" y="-311.3" font-family="Arial" font-size="14.00" fill="#000000">libFitPanel</text>
</g>
<!-- libGui -->
<g id="node2" class="node">
<title>libGui</title>
<polygon fill="none" stroke="#000000" points="187,-630 133,-630 133,-594 187,-594 187,-630"/>
<text text-anchor="middle" x="160" y="-608.3" font-family="Arial" font-size="14.00" fill="#000000">libGui</text>
</g>
<!-- mainlib&#45;&gt;libGui -->
<g id="edge1" class="edge">
<title>mainlib&#45;&gt;libGui</title>
<path fill="none" stroke="#000000" d="M42.792,-333.3102C52.7629,-387.2242 83.8614,-544.1683 115,-585 117.6105,-588.4231 120.7903,-591.5024 124.2403,-594.2481"/>
<polygon fill="#000000" stroke="#000000" points="122.424,-597.2474 132.6402,-600.0545 126.4044,-591.4891 122.424,-597.2474"/>
</g>
<!-- libTree -->
<g id="node3" class="node">
<title>libTree</title>
<polygon fill="none" stroke="#000000" points="188,-576 132,-576 132,-540 188,-540 188,-576"/>
<text text-anchor="middle" x="160" y="-554.3" font-family="Arial" font-size="14.00" fill="#000000">libTree</text>
</g>
<!-- mainlib&#45;&gt;libTree -->
<g id="edge2" class="edge">
<title>mainlib&#45;&gt;libTree</title>
<path fill="none" stroke="#000000" d="M41.6389,-333.239C47.152,-373.1799 65.0886,-469.6964 115,-531 117.5166,-534.0911 120.4874,-536.9142 123.6835,-539.4707"/>
<polygon fill="#000000" stroke="#000000" points="121.7654,-542.4004 131.9623,-545.2769 125.7848,-536.6694 121.7654,-542.4004"/>
</g>
<!-- libGpad -->
<g id="node4" class="node">
<title>libGpad</title>
<polygon fill="none" stroke="#000000" points="192,-522 128,-522 128,-486 192,-486 192,-522"/>
<text text-anchor="middle" x="160" y="-500.3" font-family="Arial" font-size="14.00" fill="#000000">libGpad</text>
</g>
<!-- mainlib&#45;&gt;libGpad -->
<g id="edge3" class="edge">
<title>mainlib&#45;&gt;libGpad</title>
<path fill="none" stroke="#000000" d="M44.0992,-333.0163C53.0657,-365.1769 75.5416,-433.1955 115,-477 116.4863,-478.65 118.0976,-480.2306 119.7965,-481.7401"/>
<polygon fill="#000000" stroke="#000000" points="117.6531,-484.507 127.691,-487.8968 121.9579,-478.9871 117.6531,-484.507"/>
</g>
<!-- libGraf -->
<g id="node5" class="node">
<title>libGraf</title>
<polygon fill="none" stroke="#000000" points="188.5,-468 131.5,-468 131.5,-432 188.5,-432 188.5,-468"/>
<text text-anchor="middle" x="160" y="-446.3" font-family="Arial" font-size="14.00" fill="#000000">libGraf</text>
</g>
<!-- mainlib&#45;&gt;libGraf -->
<g id="edge4" class="edge">
<title>mainlib&#45;&gt;libGraf</title>
<path fill="none" stroke="#000000" d="M49.0355,-333.184C61.7525,-356.1747 86.0564,-396.0061 115,-423 117.3986,-425.237 120.0125,-427.3789 122.7337,-429.408"/>
<polygon fill="#000000" stroke="#000000" points="120.8817,-432.3817 131.1113,-435.1398 124.8345,-426.6044 120.8817,-432.3817"/>
</g>
<!-- libHist -->
<g id="node6" class="node">
<title>libHist</title>
<polygon fill="none" stroke="#000000" points="187,-414 133,-414 133,-378 187,-378 187,-414"/>
<text text-anchor="middle" x="160" y="-392.3" font-family="Arial" font-size="14.00" fill="#000000">libHist</text>
</g>
<!-- mainlib&#45;&gt;libHist -->
<g id="edge5" class="edge">
<title>mainlib&#45;&gt;libHist</title>
<path fill="none" stroke="#000000" d="M63.6354,-333.0152C78.2879,-343.7621 97.4837,-357.5077 115,-369 117.9066,-370.907 120.9465,-372.8454 124.0153,-374.7634"/>
<polygon fill="#000000" stroke="#000000" points="122.3015,-377.8182 132.6539,-380.0718 125.9664,-371.8543 122.3015,-377.8182"/>
</g>
<!-- libMatrix -->
<g id="node7" class="node">
<title>libMatrix</title>
<polygon fill="none" stroke="#000000" points="194,-360 126,-360 126,-324 194,-324 194,-360"/>
<text text-anchor="middle" x="160" y="-338.3" font-family="Arial" font-size="14.00" fill="#000000">libMatrix</text>
</g>
<!-- mainlib&#45;&gt;libMatrix -->
<g id="edge6" class="edge">
<title>mainlib&#45;&gt;libMatrix</title>
<path fill="none" stroke="#000000" d="M79.2902,-323.9156C91.0727,-326.5557 104.0397,-329.4612 116.0683,-332.1564"/>
<polygon fill="#000000" stroke="#000000" points="115.3816,-335.5892 125.905,-334.3605 116.9122,-328.7586 115.3816,-335.5892"/>
</g>
<!-- libMathCore -->
<g id="node8" class="node">
<title>libMathCore</title>
<polygon fill="none" stroke="#000000" points="205,-306 115,-306 115,-270 205,-270 205,-306"/>
<text text-anchor="middle" x="160" y="-284.3" font-family="Arial" font-size="14.00" fill="#000000">libMathCore</text>
</g>
<!-- mainlib&#45;&gt;libMathCore -->
<g id="edge7" class="edge">
<title>mainlib&#45;&gt;libMathCore</title>
<path fill="none" stroke="#000000" d="M79.2902,-306.0844C87.4694,-304.2517 96.2194,-302.2911 104.83,-300.3617"/>
<polygon fill="#000000" stroke="#000000" points="105.8389,-303.7226 114.8316,-298.1207 104.3083,-296.8919 105.8389,-303.7226"/>
</g>
<!-- libImt -->
<g id="node9" class="node">
<title>libImt</title>
<polygon fill="none" stroke="#000000" points="187,-252 133,-252 133,-216 187,-216 187,-252"/>
<text text-anchor="middle" x="160" y="-230.3" font-family="Arial" font-size="14.00" fill="#000000">libImt</text>
</g>
<!-- mainlib&#45;&gt;libImt -->
<g id="edge8" class="edge">
<title>mainlib&#45;&gt;libImt</title>
<path fill="none" stroke="#000000" d="M63.6354,-296.9848C78.2879,-286.2379 97.4837,-272.4923 115,-261 117.9066,-259.093 120.9465,-257.1546 124.0153,-255.2366"/>
<polygon fill="#000000" stroke="#000000" points="125.9664,-258.1457 132.6539,-249.9282 122.3015,-252.1818 125.9664,-258.1457"/>
</g>
<!-- libNet -->
<g id="node10" class="node">
<title>libNet</title>
<polygon fill="none" stroke="#000000" points="187,-198 133,-198 133,-162 187,-162 187,-198"/>
<text text-anchor="middle" x="160" y="-176.3" font-family="Arial" font-size="14.00" fill="#000000">libNet</text>
</g>
<!-- mainlib&#45;&gt;libNet -->
<g id="edge9" class="edge">
<title>mainlib&#45;&gt;libNet</title>
<path fill="none" stroke="#000000" d="M49.0355,-296.816C61.7525,-273.8253 86.0564,-233.9939 115,-207 117.915,-204.2814 121.1479,-201.7034 124.505,-199.2974"/>
<polygon fill="#000000" stroke="#000000" points="126.5806,-202.1211 132.9952,-193.6888 122.7222,-196.2804 126.5806,-202.1211"/>
</g>
<!-- libRIO -->
<g id="node11" class="node">
<title>libRIO</title>
<polygon fill="none" stroke="#000000" points="187.5,-144 132.5,-144 132.5,-108 187.5,-108 187.5,-144"/>
<text text-anchor="middle" x="160" y="-122.3" font-family="Arial" font-size="14.00" fill="#000000">libRIO</text>
</g>
<!-- mainlib&#45;&gt;libRIO -->
<g id="edge10" class="edge">
<title>mainlib&#45;&gt;libRIO</title>
<path fill="none" stroke="#000000" d="M44.0992,-296.9837C53.0657,-264.8231 75.5416,-196.8045 115,-153 117.6678,-150.0384 120.738,-147.3005 123.9952,-144.7963"/>
<polygon fill="#000000" stroke="#000000" points="126.0902,-147.6035 132.3542,-139.0587 122.1288,-141.8322 126.0902,-147.6035"/>
</g>
<!-- libThread -->
<g id="node12" class="node">
<title>libThread</title>
<polygon fill="none" stroke="#000000" points="196.5,-90 123.5,-90 123.5,-54 196.5,-54 196.5,-90"/>
<text text-anchor="middle" x="160" y="-68.3" font-family="Arial" font-size="14.00" fill="#000000">libThread</text>
</g>
<!-- mainlib&#45;&gt;libThread -->
<g id="edge11" class="edge">
<title>mainlib&#45;&gt;libThread</title>
<path fill="none" stroke="#000000" d="M41.6389,-296.761C47.152,-256.8201 65.0886,-160.3036 115,-99 115.5788,-98.2891 116.1817,-97.5923 116.8058,-96.9097"/>
<polygon fill="#000000" stroke="#000000" points="119.1818,-99.4797 124.1784,-90.137 114.4462,-94.3246 119.1818,-99.4797"/>
</g>
<!-- libCore -->
<g id="node13" class="node">
<title>libCore</title>
<polygon fill="none" stroke="#000000" points="189.5,-36 130.5,-36 130.5,0 189.5,0 189.5,-36"/>
<text text-anchor="middle" x="160" y="-14.3" font-family="Arial" font-size="14.00" fill="#000000">libCore</text>
</g>
<!-- mainlib&#45;&gt;libCore -->
<g id="edge12" class="edge">
<title>mainlib&#45;&gt;libCore</title>
<path fill="none" stroke="#000000" d="M42.792,-296.6898C52.7629,-242.7758 83.8614,-85.8317 115,-45 117.0442,-42.3195 119.4375,-39.8498 122.0363,-37.586"/>
<polygon fill="#000000" stroke="#000000" points="124.3897,-40.1967 130.3056,-31.4073 120.1998,-34.5891 124.3897,-40.1967"/>
</g>
</g>
</svg>
