<?xml version="1.0" encoding="UTF-8" standalone="no"?>
<!DOCTYPE svg PUBLIC "-//W3C//DTD SVG 1.1//EN"
 "http://www.w3.org/Graphics/SVG/1.1/DTD/svg11.dtd">
<!-- Generated by graphviz version 2.40.1 (0)
 -->
<!-- Title: ROOT::Experimental::RCanvas Pages: 1 -->
<svg width="608pt" height="214pt"
 viewBox="0.00 0.00 608.00 213.50" xmlns="http://www.w3.org/2000/svg" xmlns:xlink="http://www.w3.org/1999/xlink">
<g id="graph0" class="graph" transform="scale(1 1) rotate(0) translate(4 209.5)">
<title>ROOT::Experimental::RCanvas</title>
<polygon fill="#ffffff" stroke="transparent" points="-4,4 -4,-209.5 604,-209.5 604,4 -4,4"/>
<!-- Node2 -->
<g id="node1" class="node">
<title>Node2</title>
<polygon fill="#bfbfbf" stroke="#000000" points="485,-82 485,-112 600,-112 600,-82 485,-82"/>
<text text-anchor="start" x="493" y="-100" font-family="Helvetica,sans-Serif" font-size="10.00" fill="#000000">ROOT::Experimental</text>
<text text-anchor="middle" x="542.5" y="-89" font-family="Helvetica,sans-Serif" font-size="10.00" fill="#000000">::RCanvas</text>
</g>
<!-- Node3 -->
<g id="node2" class="node">
<title>Node3</title>
<g id="a_node2"><a xlink:href="classROOT_1_1Experimental_1_1RPadBase.html" target="_top" xlink:title="Base class for graphic containers for RDrawable&#45;s. ">
<polygon fill="#ffffff" stroke="#000000" points="264,-148 264,-178 379,-178 379,-148 264,-148"/>
<text text-anchor="start" x="272" y="-166" font-family="Helvetica,sans-Serif" font-size="10.00" fill="#000000">ROOT::Experimental</text>
<text text-anchor="middle" x="321.5" y="-155" font-family="Helvetica,sans-Serif" font-size="10.00" fill="#000000">::RPadBase</text>
</a>
</g>
</g>
<!-- Node3&#45;&gt;Node2 -->
<g id="edge1" class="edge">
<title>Node3&#45;&gt;Node2</title>
<path fill="none" stroke="#191970" d="M386.7141,-145.1466C393.9059,-143.1061 401.1142,-141.0298 408,-139 437.2132,-130.3885 469.8233,-120.2194 495.6169,-112.0445"/>
<polygon fill="#191970" stroke="#191970" points="385.6245,-141.8172 376.9491,-147.899 387.5236,-148.5547 385.6245,-141.8172"/>
</g>
<!-- Node4 -->
<g id="node3" class="node">
<title>Node4</title>
<polygon fill="#ffffff" stroke="#bfbfbf" points="4,-175 4,-205 138,-205 138,-175 4,-175"/>
<text text-anchor="start" x="12" y="-193" font-family="Helvetica,sans-Serif" font-size="10.00" fill="#000000">std::vector&lt; std::shared</text>
<text text-anchor="middle" x="71" y="-182" font-family="Helvetica,sans-Serif" font-size="10.00" fill="#000000">_ptr&lt; RDrawable &gt; &gt;</text>
</g>
<!-- Node4&#45;&gt;Node3 -->
<g id="edge2" class="edge">
<title>Node4&#45;&gt;Node3</title>
<path fill="none" stroke="#9a32cd" stroke-dasharray="5,2" d="M148.4583,-181.6512C185.7524,-177.6315 229.697,-172.8949 263.9689,-169.201"/>
<polygon fill="#9a32cd" stroke="#9a32cd" points="147.6967,-178.2129 138.1294,-182.7645 148.4469,-185.1726 147.6967,-178.2129"/>
<text text-anchor="middle" x="188.5" y="-182" font-family="Helvetica,sans-Serif" font-size="10.00" fill="#000000"> fPrimitives</text>
</g>
<!-- Node5 -->
<g id="node4" class="node">
<title>Node5</title>
<polygon fill="#ffffff" stroke="#bfbfbf" points="0,-126 0,-156 142,-156 142,-126 0,-126"/>
<text text-anchor="start" x="8" y="-144" font-family="Helvetica,sans-Serif" font-size="10.00" fill="#000000">std::unique_ptr&lt; ROOT</text>
<text text-anchor="middle" x="71" y="-133" font-family="Helvetica,sans-Serif" font-size="10.00" fill="#000000">::Experimental::RFrame &gt;</text>
</g>
<!-- Node5&#45;&gt;Node3 -->
<g id="edge3" class="edge">
<title>Node5&#45;&gt;Node3</title>
<path fill="none" stroke="#9a32cd" stroke-dasharray="5,2" d="M152.2076,-148.132C188.5736,-151.3258 230.6159,-155.0182 263.7059,-157.9243"/>
<polygon fill="#9a32cd" stroke="#9a32cd" points="152.3811,-144.6339 142.1132,-147.2455 151.7686,-151.607 152.3811,-144.6339"/>
<text text-anchor="middle" x="188.5" y="-156" font-family="Helvetica,sans-Serif" font-size="10.00" fill="#000000"> fFrame</text>
</g>
<!-- Node6 -->
<g id="node5" class="node">
<title>Node6</title>
<polygon fill="#ffffff" stroke="#bfbfbf" points="235,-99 235,-129 408,-129 408,-99 235,-99"/>
<text text-anchor="start" x="243" y="-117" font-family="Helvetica,sans-Serif" font-size="10.00" fill="#000000">std::array&lt; ROOT::Experimental</text>
<text text-anchor="middle" x="321.5" y="-106" font-family="Helvetica,sans-Serif" font-size="10.00" fill="#000000">::RPadLength::Pixel, 2 &gt;</text>
</g>
<!-- Node6&#45;&gt;Node2 -->
<g id="edge4" class="edge">
<title>Node6&#45;&gt;Node2</title>
<path fill="none" stroke="#9a32cd" stroke-dasharray="5,2" d="M418.2491,-106.5578C441.0064,-104.8072 464.5541,-102.9958 484.9499,-101.4269"/>
<polygon fill="#9a32cd" stroke="#9a32cd" points="417.9128,-103.0732 408.2108,-107.3299 418.4498,-110.0526 417.9128,-103.0732"/>
<text text-anchor="middle" x="446.5" y="-108" font-family="Helvetica,sans-Serif" font-size="10.00" fill="#000000"> fSize</text>
</g>
<!-- Node7 -->
<g id="node6" class="node">
<title>Node7</title>
<g id="a_node6"><a xlink:title="STL class. ">
<polygon fill="#ffffff" stroke="#bfbfbf" points="289,-60.5 289,-79.5 354,-79.5 354,-60.5 289,-60.5"/>
<text text-anchor="middle" x="321.5" y="-67.5" font-family="Helvetica,sans-Serif" font-size="10.00" fill="#000000">std::string</text>
</a>
</g>
</g>
<!-- Node7&#45;&gt;Node2 -->
<g id="edge5" class="edge">
<title>Node7&#45;&gt;Node2</title>
<path fill="none" stroke="#9a32cd" stroke-dasharray="5,2" d="M364.3609,-74.8325C393.3519,-78.1443 432.4983,-82.6998 467,-87 472.7731,-87.7195 478.792,-88.4871 484.8017,-89.265"/>
<polygon fill="#9a32cd" stroke="#9a32cd" points="364.4988,-71.3257 354.1669,-73.6715 363.7066,-78.2807 364.4988,-71.3257"/>
<text text-anchor="middle" x="446.5" y="-90" font-family="Helvetica,sans-Serif" font-size="10.00" fill="#000000"> fTitle</text>
</g>
<!-- Node8 -->
<g id="node7" class="node">
<title>Node8</title>
<polygon fill="#ffffff" stroke="#bfbfbf" points="19,-55 19,-85 123,-85 123,-55 19,-55"/>
<text text-anchor="start" x="27" y="-73" font-family="Helvetica,sans-Serif" font-size="10.00" fill="#000000">std::basic_string&lt;</text>
<text text-anchor="middle" x="71" y="-62" font-family="Helvetica,sans-Serif" font-size="10.00" fill="#000000"> char &gt;</text>
</g>
<!-- Node8&#45;&gt;Node7 -->
<g id="edge6" class="edge">
<title>Node8&#45;&gt;Node7</title>
<path fill="none" stroke="#191970" d="M133.4472,-70C182.7523,-70 249.5747,-70 288.8579,-70"/>
<polygon fill="#191970" stroke="#191970" points="133.2081,-66.5001 123.2081,-70 133.2081,-73.5001 133.2081,-66.5001"/>
</g>
<!-- Node9 -->
<g id="node8" class="node">
<title>Node9</title>
<polygon fill="#ffffff" stroke="#bfbfbf" points="250.5,-.5 250.5,-41.5 392.5,-41.5 392.5,-.5 250.5,-.5"/>
<text text-anchor="start" x="258.5" y="-29.5" font-family="Helvetica,sans-Serif" font-size="10.00" fill="#000000">std::unique_ptr&lt; ROOT</text>
<text text-anchor="start" x="258.5" y="-18.5" font-family="Helvetica,sans-Serif" font-size="10.00" fill="#000000">::Experimental::Internal</text>
<text text-anchor="middle" x="321.5" y="-7.5" font-family="Helvetica,sans-Serif" font-size="10.00" fill="#000000">::RVirtualCanvasPainter &gt;</text>
</g>
<!-- Node9&#45;&gt;Node2 -->
<g id="edge7" class="edge">
<title>Node9&#45;&gt;Node2</title>
<path fill="none" stroke="#9a32cd" stroke-dasharray="5,2" d="M399.5391,-44.5345C421.469,-51.4557 445.2605,-59.2557 467,-67 479.888,-71.5911 493.8489,-77.0101 506.2192,-81.9705"/>
<polygon fill="#9a32cd" stroke="#9a32cd" points="400.5276,-41.1765 389.9384,-41.5226 398.4322,-47.8555 400.5276,-41.1765"/>
<text text-anchor="middle" x="446.5" y="-70" font-family="Helvetica,sans-Serif" font-size="10.00" fill="#000000"> fPainter</text>
</g>
</g>
</svg>
