<?xml version="1.0" encoding="UTF-8" standalone="no"?>
<!DOCTYPE svg PUBLIC "-//W3C//DTD SVG 1.1//EN"
 "http://www.w3.org/Graphics/SVG/1.1/DTD/svg11.dtd">
<!-- Generated by graphviz version 2.40.1 (0)
 -->
<!-- Title: TEveRGBAPalette Pages: 1 -->
<svg width="234pt" height="84pt"
 viewBox="0.00 0.00 233.50 84.00" xmlns="http://www.w3.org/2000/svg" xmlns:xlink="http://www.w3.org/1999/xlink">
<g id="graph0" class="graph" transform="scale(1 1) rotate(0) translate(4 80)">
<title>TEveRGBAPalette</title>
<polygon fill="#ffffff" stroke="transparent" points="-4,4 -4,-80 229.5,-80 229.5,4 -4,4"/>
<!-- Node0 -->
<g id="node1" class="node">
<title>Node0</title>
<polygon fill="#bfbfbf" stroke="#000000" points="52,-.5 52,-19.5 154,-19.5 154,-.5 52,-.5"/>
<text text-anchor="middle" x="103" y="-7.5" font-family="Helvetica,sans-Serif" font-size="10.00" fill="#000000">TEveRGBAPalette</text>
</g>
<!-- Node1 -->
<g id="node2" class="node">
<title>Node1</title>
<g id="a_node2"><a xlink:href="classTObject.html" target="_top" xlink:title="Mother of all ROOT objects. ">
<polygon fill="#ffffff" stroke="#000000" points="0,-56.5 0,-75.5 54,-75.5 54,-56.5 0,-56.5"/>
<text text-anchor="middle" x="27" y="-63.5" font-family="Helvetica,sans-Serif" font-size="10.00" fill="#000000">TObject</text>
</a>
</g>
</g>
<!-- Node1&#45;&gt;Node0 -->
<g id="edge1" class="edge">
<title>Node1&#45;&gt;Node0</title>
<path fill="none" stroke="#191970" d="M48.4297,-50.2097C61.7777,-40.3743 78.5179,-28.0394 89.9135,-19.6427"/>
<polygon fill="#191970" stroke="#191970" points="46.2126,-47.4958 40.2382,-56.2455 50.365,-53.1312 46.2126,-47.4958"/>
</g>
<!-- Node2 -->
<g id="node3" class="node">
<title>Node2</title>
<g id="a_node3"><a xlink:href="classTQObject.html" target="_top" xlink:title="This is the ROOT implementation of the Qt object communication mechanism (see also http://www...">
<polygon fill="#ffffff" stroke="#000000" points="72,-56.5 72,-75.5 134,-75.5 134,-56.5 72,-56.5"/>
<text text-anchor="middle" x="103" y="-63.5" font-family="Helvetica,sans-Serif" font-size="10.00" fill="#000000">TQObject</text>
</a>
</g>
</g>
<!-- Node2&#45;&gt;Node0 -->
<g id="edge2" class="edge">
<title>Node2&#45;&gt;Node0</title>
<path fill="none" stroke="#191970" d="M103,-46.1575C103,-37.155 103,-26.9199 103,-19.6427"/>
<polygon fill="#191970" stroke="#191970" points="99.5001,-46.2455 103,-56.2455 106.5001,-46.2456 99.5001,-46.2455"/>
</g>
<!-- Node3 -->
<g id="node4" class="node">
<title>Node3</title>
<g id="a_node4"><a xlink:href="classTEveRefCnt.html" target="_top" xlink:title="Base&#45;class for reference&#45;counted objects. ">
<polygon fill="#ffffff" stroke="#000000" points="152.5,-56.5 152.5,-75.5 225.5,-75.5 225.5,-56.5 152.5,-56.5"/>
<text text-anchor="middle" x="189" y="-63.5" font-family="Helvetica,sans-Serif" font-size="10.00" fill="#000000">TEveRefCnt</text>
</a>
</g>
</g>
<!-- Node3&#45;&gt;Node0 -->
<g id="edge3" class="edge">
<title>Node3&#45;&gt;Node0</title>
<path fill="none" stroke="#191970" d="M165.6095,-50.769C150.3701,-40.8456 130.9491,-28.1994 117.8084,-19.6427"/>
<polygon fill="#191970" stroke="#191970" points="163.7301,-53.7218 174.0199,-56.2455 167.5498,-47.8558 163.7301,-53.7218"/>
</g>
</g>
</svg>
