<?xml version="1.0" encoding="UTF-8" standalone="no"?>
<!DOCTYPE svg PUBLIC "-//W3C//DTD SVG 1.1//EN"
 "http://www.w3.org/Graphics/SVG/1.1/DTD/svg11.dtd">
<!-- Generated by graphviz version 2.40.1 (0)
 -->
<!-- Title: ROOT::Math::WrappedMultiTF1Templ&lt; T &gt; Pages: 1 -->
<svg width="310pt" height="240pt"
 viewBox="0.00 0.00 310.00 240.00" xmlns="http://www.w3.org/2000/svg" xmlns:xlink="http://www.w3.org/1999/xlink">
<g id="graph0" class="graph" transform="scale(1 1) rotate(0) translate(4 236)">
<title>ROOT::Math::WrappedMultiTF1Templ&lt; T &gt;</title>
<polygon fill="#ffffff" stroke="transparent" points="-4,4 -4,-236 306,-236 306,4 -4,4"/>
<!-- Node0 -->
<g id="node1" class="node">
<title>Node0</title>
<polygon fill="#bfbfbf" stroke="#000000" points="102.5,-.5 102.5,-30.5 248.5,-30.5 248.5,-.5 102.5,-.5"/>
<text text-anchor="start" x="110.5" y="-18.5" font-family="Helvetica,sans-Serif" font-size="10.00" fill="#000000">ROOT::Math::WrappedMulti</text>
<text text-anchor="middle" x="175.5" y="-7.5" font-family="Helvetica,sans-Serif" font-size="10.00" fill="#000000">TF1Templ&lt; T &gt;</text>
</g>
<!-- Node1 -->
<g id="node2" class="node">
<title>Node1</title>
<g id="a_node2"><a xlink:href="classROOT_1_1Math_1_1IParametricGradFunctionMultiDimTempl.html" target="_top" xlink:title="Interface (abstract class) for parametric gradient multi&#45;dimensional functions providing in addition ...">
<polygon fill="#ffffff" stroke="#000000" points="96,-67.5 96,-97.5 255,-97.5 255,-67.5 96,-67.5"/>
<text text-anchor="start" x="104" y="-85.5" font-family="Helvetica,sans-Serif" font-size="10.00" fill="#000000">ROOT::Math::IParametricGrad</text>
<text text-anchor="middle" x="175.5" y="-74.5" font-family="Helvetica,sans-Serif" font-size="10.00" fill="#000000">FunctionMultiDimTempl&lt; T &gt;</text>
</a>
</g>
</g>
<!-- Node1&#45;&gt;Node0 -->
<g id="edge1" class="edge">
<title>Node1&#45;&gt;Node0</title>
<path fill="none" stroke="#191970" d="M175.5,-57.0249C175.5,-48.128 175.5,-38.4287 175.5,-30.6432"/>
<polygon fill="#191970" stroke="#191970" points="172.0001,-57.2966 175.5,-67.2967 179.0001,-57.2967 172.0001,-57.2966"/>
</g>
<!-- Node2 -->
<g id="node3" class="node">
<title>Node2</title>
<g id="a_node3"><a xlink:href="classROOT_1_1Math_1_1IParametricFunctionMultiDimTempl.html" target="_top" xlink:title="IParamFunction interface (abstract class) describing multi&#45;dimensional parameteric functions It is a ...">
<polygon fill="#ffffff" stroke="#000000" points="29.5,-134.5 29.5,-164.5 205.5,-164.5 205.5,-134.5 29.5,-134.5"/>
<text text-anchor="start" x="37.5" y="-152.5" font-family="Helvetica,sans-Serif" font-size="10.00" fill="#000000">ROOT::Math::IParametricFunction</text>
<text text-anchor="middle" x="117.5" y="-141.5" font-family="Helvetica,sans-Serif" font-size="10.00" fill="#000000">MultiDimTempl&lt; T &gt;</text>
</a>
</g>
</g>
<!-- Node2&#45;&gt;Node1 -->
<g id="edge2" class="edge">
<title>Node2&#45;&gt;Node1</title>
<path fill="none" stroke="#191970" d="M137.2906,-126.6385C145.5778,-117.0653 154.9847,-106.1987 162.391,-97.6432"/>
<polygon fill="#191970" stroke="#191970" points="134.5599,-124.4453 130.6611,-134.2967 139.8524,-129.0268 134.5599,-124.4453"/>
</g>
<!-- Node3 -->
<g id="node4" class="node">
<title>Node3</title>
<g id="a_node4"><a xlink:href="classROOT_1_1Math_1_1IBaseFunctionMultiDimTempl.html" target="_top" xlink:title="Documentation for the abstract class IBaseFunctionMultiDim. ">
<polygon fill="#ffffff" stroke="#000000" points="0,-201.5 0,-231.5 147,-231.5 147,-201.5 0,-201.5"/>
<text text-anchor="start" x="8" y="-219.5" font-family="Helvetica,sans-Serif" font-size="10.00" fill="#000000">ROOT::Math::IBaseFunction</text>
<text text-anchor="middle" x="73.5" y="-208.5" font-family="Helvetica,sans-Serif" font-size="10.00" fill="#000000">MultiDimTempl&lt; T &gt;</text>
</a>
</g>
</g>
<!-- Node3&#45;&gt;Node2 -->
<g id="edge3" class="edge">
<title>Node3&#45;&gt;Node2</title>
<path fill="none" stroke="#191970" d="M89.0816,-192.7735C95.2272,-183.4154 102.1052,-172.9421 107.5552,-164.6432"/>
<polygon fill="#191970" stroke="#191970" points="86.0481,-191.0167 83.4843,-201.2967 91.8992,-194.8592 86.0481,-191.0167"/>
</g>
<!-- Node4 -->
<g id="node5" class="node">
<title>Node4</title>
<g id="a_node5"><a xlink:href="classROOT_1_1Math_1_1IBaseParam.html" target="_top" xlink:title="Documentation for the abstract class IBaseParam. ">
<polygon fill="#ffffff" stroke="#000000" points="165,-207 165,-226 302,-226 302,-207 165,-207"/>
<text text-anchor="middle" x="233.5" y="-214" font-family="Helvetica,sans-Serif" font-size="10.00" fill="#000000">ROOT::Math::IBaseParam</text>
</a>
</g>
</g>
<!-- Node4&#45;&gt;Node1 -->
<g id="edge5" class="edge">
<title>Node4&#45;&gt;Node1</title>
<path fill="none" stroke="#191970" d="M231.3522,-196.9322C228.922,-179.721 223.9962,-154.3159 214.5,-134 208.2311,-120.5885 198.0581,-107.3153 189.6738,-97.6036"/>
<polygon fill="#191970" stroke="#191970" points="227.8884,-197.4397 232.6117,-206.9234 234.8334,-196.5641 227.8884,-197.4397"/>
</g>
<!-- Node4&#45;&gt;Node2 -->
<g id="edge4" class="edge">
<title>Node4&#45;&gt;Node2</title>
<path fill="none" stroke="#191970" d="M208.1071,-201.8334C188.9635,-190.7763 162.7996,-175.6644 143.5078,-164.5218"/>
<polygon fill="#191970" stroke="#191970" points="206.4701,-204.9297 216.88,-206.9005 209.9712,-198.8682 206.4701,-204.9297"/>
</g>
</g>
</svg>
