<?xml version="1.0" encoding="UTF-8" standalone="no"?>
<!DOCTYPE svg PUBLIC "-//W3C//DTD SVG 1.1//EN"
 "http://www.w3.org/Graphics/SVG/1.1/DTD/svg11.dtd">
<!-- Generated by graphviz version 2.40.1 (0)
 -->
<!-- Title: RooStats::ProfileLikelihoodCalculator Pages: 1 -->
<svg width="338pt" height="151pt"
 viewBox="0.00 0.00 338.00 151.00" xmlns="http://www.w3.org/2000/svg" xmlns:xlink="http://www.w3.org/1999/xlink">
<g id="graph0" class="graph" transform="scale(1 1) rotate(0) translate(4 147)">
<title>RooStats::ProfileLikelihoodCalculator</title>
<polygon fill="#ffffff" stroke="transparent" points="-4,4 -4,-147 334,-147 334,4 -4,4"/>
<!-- Node0 -->
<g id="node1" class="node">
<title>Node0</title>
<polygon fill="#bfbfbf" stroke="#000000" points="90,-.5 90,-30.5 236,-30.5 236,-.5 90,-.5"/>
<text text-anchor="start" x="98" y="-18.5" font-family="Helvetica,sans-Serif" font-size="10.00" fill="#000000">RooStats::ProfileLikelihood</text>
<text text-anchor="middle" x="163" y="-7.5" font-family="Helvetica,sans-Serif" font-size="10.00" fill="#000000">Calculator</text>
</g>
<!-- Node1 -->
<g id="node2" class="node">
<title>Node1</title>
<g id="a_node2"><a xlink:href="classRooStats_1_1CombinedCalculator.html" target="_top" xlink:title="CombinedCalculator is an interface class for a tools which can produce both RooStats HypoTestResults ...">
<polygon fill="#ffffff" stroke="#000000" points="81,-67.5 81,-86.5 245,-86.5 245,-67.5 81,-67.5"/>
<text text-anchor="middle" x="163" y="-74.5" font-family="Helvetica,sans-Serif" font-size="10.00" fill="#000000">RooStats::CombinedCalculator</text>
</a>
</g>
</g>
<!-- Node1&#45;&gt;Node0 -->
<g id="edge1" class="edge">
<title>Node1&#45;&gt;Node0</title>
<path fill="none" stroke="#191970" d="M163,-57.3693C163,-48.681 163,-38.6241 163,-30.5446"/>
<polygon fill="#191970" stroke="#191970" points="159.5001,-57.3906 163,-67.3906 166.5001,-57.3907 159.5001,-57.3906"/>
</g>
<!-- Node2 -->
<g id="node3" class="node">
<title>Node2</title>
<g id="a_node3"><a xlink:href="classRooStats_1_1IntervalCalculator.html" target="_top" xlink:title="IntervalCalculator is an interface class for a tools which produce RooStats ConfIntervals. ">
<polygon fill="#ffffff" stroke="#000000" points="0,-123.5 0,-142.5 152,-142.5 152,-123.5 0,-123.5"/>
<text text-anchor="middle" x="76" y="-130.5" font-family="Helvetica,sans-Serif" font-size="10.00" fill="#000000">RooStats::IntervalCalculator</text>
</a>
</g>
</g>
<!-- Node2&#45;&gt;Node1 -->
<g id="edge2" class="edge">
<title>Node2&#45;&gt;Node1</title>
<path fill="none" stroke="#191970" d="M99.6625,-117.769C115.0791,-107.8456 134.726,-95.1994 148.0194,-86.6427"/>
<polygon fill="#191970" stroke="#191970" points="97.6685,-114.89 91.1542,-123.2455 101.4573,-120.7761 97.6685,-114.89"/>
</g>
<!-- Node3 -->
<g id="node4" class="node">
<title>Node3</title>
<g id="a_node4"><a xlink:href="classRooStats_1_1HypoTestCalculator.html" target="_top" xlink:title="HypoTestCalculator is an interface class for a tools which produce RooStats HypoTestResults. ">
<polygon fill="#ffffff" stroke="#000000" points="170,-123.5 170,-142.5 330,-142.5 330,-123.5 170,-123.5"/>
<text text-anchor="middle" x="250" y="-130.5" font-family="Helvetica,sans-Serif" font-size="10.00" fill="#000000">RooStats::HypoTestCalculator</text>
</a>
</g>
</g>
<!-- Node3&#45;&gt;Node1 -->
<g id="edge3" class="edge">
<title>Node3&#45;&gt;Node1</title>
<path fill="none" stroke="#191970" d="M226.3375,-117.769C210.9209,-107.8456 191.274,-95.1994 177.9806,-86.6427"/>
<polygon fill="#191970" stroke="#191970" points="224.5427,-120.7761 234.8458,-123.2455 228.3315,-114.89 224.5427,-120.7761"/>
</g>
</g>
</svg>
