<?xml version="1.0" encoding="UTF-8" standalone="no"?>
<!DOCTYPE svg PUBLIC "-//W3C//DTD SVG 1.1//EN"
 "http://www.w3.org/Graphics/SVG/1.1/DTD/svg11.dtd">
<!-- Generated by graphviz version 2.40.1 (0)
 -->
<!-- Title: TFileStager Pages: 1 -->
<svg width="338pt" height="196pt"
 viewBox="0.00 0.00 337.50 196.00" xmlns="http://www.w3.org/2000/svg" xmlns:xlink="http://www.w3.org/1999/xlink">
<g id="graph0" class="graph" transform="scale(1 1) rotate(0) translate(4 192)">
<title>TFileStager</title>
<polygon fill="#ffffff" stroke="transparent" points="-4,4 -4,-192 333.5,-192 333.5,4 -4,4"/>
<!-- Node0 -->
<g id="node1" class="node">
<title>Node0</title>
<polygon fill="#bfbfbf" stroke="#000000" points="125.5,-56.5 125.5,-75.5 196.5,-75.5 196.5,-56.5 125.5,-56.5"/>
<text text-anchor="middle" x="161" y="-63.5" font-family="Helvetica,sans-Serif" font-size="10.00" fill="#000000">TFileStager</text>
</g>
<!-- Node3 -->
<g id="node4" class="node">
<title>Node3</title>
<g id="a_node4"><a xlink:href="classTNetFileStager.html" target="_top" xlink:title="TNetFileStager">
<polygon fill="#ffffff" stroke="#000000" points="0,-.5 0,-19.5 88,-19.5 88,-.5 0,-.5"/>
<text text-anchor="middle" x="44" y="-7.5" font-family="Helvetica,sans-Serif" font-size="10.00" fill="#000000">TNetFileStager</text>
</a>
</g>
</g>
<!-- Node0&#45;&gt;Node3 -->
<g id="edge3" class="edge">
<title>Node0&#45;&gt;Node3</title>
<path fill="none" stroke="#191970" d="M131.6958,-51.9741C110.512,-41.8348 82.4597,-28.408 63.8506,-19.5011"/>
<polygon fill="#191970" stroke="#191970" points="130.3559,-55.2129 140.887,-56.3733 133.378,-48.8989 130.3559,-55.2129"/>
</g>
<!-- Node4 -->
<g id="node5" class="node">
<title>Node4</title>
<g id="a_node5"><a xlink:href="classTNetXNGFileStager.html" target="_top" xlink:title="TNetXNGFileStager">
<polygon fill="#ffffff" stroke="#000000" points="106,-.5 106,-19.5 216,-19.5 216,-.5 106,-.5"/>
<text text-anchor="middle" x="161" y="-7.5" font-family="Helvetica,sans-Serif" font-size="10.00" fill="#000000">TNetXNGFileStager</text>
</a>
</g>
</g>
<!-- Node0&#45;&gt;Node4 -->
<g id="edge4" class="edge">
<title>Node0&#45;&gt;Node4</title>
<path fill="none" stroke="#191970" d="M161,-46.1575C161,-37.155 161,-26.9199 161,-19.6427"/>
<polygon fill="#191970" stroke="#191970" points="157.5001,-46.2455 161,-56.2455 164.5001,-46.2456 157.5001,-46.2455"/>
</g>
<!-- Node5 -->
<g id="node6" class="node">
<title>Node5</title>
<g id="a_node6"><a xlink:href="classTXNetFileStager.html" target="_top" xlink:title="TXNetFileStager">
<polygon fill="#ffffff" stroke="#000000" points="234.5,-.5 234.5,-19.5 329.5,-19.5 329.5,-.5 234.5,-.5"/>
<text text-anchor="middle" x="282" y="-7.5" font-family="Helvetica,sans-Serif" font-size="10.00" fill="#000000">TXNetFileStager</text>
</a>
</g>
</g>
<!-- Node0&#45;&gt;Node5 -->
<g id="edge5" class="edge">
<title>Node0&#45;&gt;Node5</title>
<path fill="none" stroke="#191970" d="M191.0104,-52.1109C212.9525,-41.9559 242.1388,-28.4482 261.4708,-19.5011"/>
<polygon fill="#191970" stroke="#191970" points="189.4058,-48.9968 181.8006,-56.3733 192.3459,-55.3494 189.4058,-48.9968"/>
</g>
<!-- Node1 -->
<g id="node2" class="node">
<title>Node1</title>
<g id="a_node2"><a xlink:href="classTNamed.html" target="_top" xlink:title="The TNamed class is the base class for all named ROOT classes. ">
<polygon fill="#ffffff" stroke="#000000" points="132,-112.5 132,-131.5 190,-131.5 190,-112.5 132,-112.5"/>
<text text-anchor="middle" x="161" y="-119.5" font-family="Helvetica,sans-Serif" font-size="10.00" fill="#000000">TNamed</text>
</a>
</g>
</g>
<!-- Node1&#45;&gt;Node0 -->
<g id="edge1" class="edge">
<title>Node1&#45;&gt;Node0</title>
<path fill="none" stroke="#191970" d="M161,-102.1575C161,-93.155 161,-82.9199 161,-75.6427"/>
<polygon fill="#191970" stroke="#191970" points="157.5001,-102.2455 161,-112.2455 164.5001,-102.2456 157.5001,-102.2455"/>
</g>
<!-- Node2 -->
<g id="node3" class="node">
<title>Node2</title>
<g id="a_node3"><a xlink:href="classTObject.html" target="_top" xlink:title="Mother of all ROOT objects. ">
<polygon fill="#ffffff" stroke="#000000" points="134,-168.5 134,-187.5 188,-187.5 188,-168.5 134,-168.5"/>
<text text-anchor="middle" x="161" y="-175.5" font-family="Helvetica,sans-Serif" font-size="10.00" fill="#000000">TObject</text>
</a>
</g>
</g>
<!-- Node2&#45;&gt;Node1 -->
<g id="edge2" class="edge">
<title>Node2&#45;&gt;Node1</title>
<path fill="none" stroke="#191970" d="M161,-158.1575C161,-149.155 161,-138.9199 161,-131.6427"/>
<polygon fill="#191970" stroke="#191970" points="157.5001,-158.2455 161,-168.2455 164.5001,-158.2456 157.5001,-158.2455"/>
</g>
</g>
</svg>
