<?xml version="1.0" encoding="UTF-8" standalone="no"?>
<!DOCTYPE svg PUBLIC "-//W3C//DTD SVG 1.1//EN"
 "http://www.w3.org/Graphics/SVG/1.1/DTD/svg11.dtd">
<!-- Generated by graphviz version 2.40.1 (0)
 -->
<!-- Title: ROOT::Experimental::RLogManager Pages: 1 -->
<svg width="355pt" height="100pt"
 viewBox="0.00 0.00 355.00 99.50" xmlns="http://www.w3.org/2000/svg" xmlns:xlink="http://www.w3.org/1999/xlink">
<g id="graph0" class="graph" transform="scale(1 1) rotate(0) translate(4 95.5)">
<title>ROOT::Experimental::RLogManager</title>
<polygon fill="#ffffff" stroke="transparent" points="-4,4 -4,-95.5 351,-95.5 351,4 -4,4"/>
<!-- Node2 -->
<g id="node1" class="node">
<title>Node2</title>
<polygon fill="#bfbfbf" stroke="#000000" points="232,-33 232,-63 347,-63 347,-33 232,-33"/>
<text text-anchor="start" x="240" y="-51" font-family="Helvetica,sans-Serif" font-size="10.00" fill="#000000">ROOT::Experimental</text>
<text text-anchor="middle" x="289.5" y="-40" font-family="Helvetica,sans-Serif" font-size="10.00" fill="#000000">::RLogManager</text>
</g>
<!-- Node3 -->
<g id="node2" class="node">
<title>Node3</title>
<g id="a_node2"><a xlink:href="classROOT_1_1Experimental_1_1RLogHandler.html" target="_top" xlink:title=" Abstract RLogHandler base class. ">
<polygon fill="#ffffff" stroke="#000000" points="15,-61 15,-91 130,-91 130,-61 15,-61"/>
<text text-anchor="start" x="23" y="-79" font-family="Helvetica,sans-Serif" font-size="10.00" fill="#000000">ROOT::Experimental</text>
<text text-anchor="middle" x="72.5" y="-68" font-family="Helvetica,sans-Serif" font-size="10.00" fill="#000000">::RLogHandler</text>
</a>
</g>
</g>
<!-- Node3&#45;&gt;Node2 -->
<g id="edge1" class="edge">
<title>Node3&#45;&gt;Node2</title>
<path fill="none" stroke="#191970" d="M140.2426,-67.259C169.5638,-63.4756 203.5316,-59.0927 231.6486,-55.4647"/>
<polygon fill="#191970" stroke="#191970" points="139.5522,-63.819 130.0823,-68.57 140.448,-70.7614 139.5522,-63.819"/>
</g>
<!-- Node4 -->
<g id="node3" class="node">
<title>Node4</title>
<polygon fill="#ffffff" stroke="#bfbfbf" points="0,-.5 0,-41.5 145,-41.5 145,-.5 0,-.5"/>
<text text-anchor="start" x="8" y="-29.5" font-family="Helvetica,sans-Serif" font-size="10.00" fill="#000000">std::vector&lt; std::unique</text>
<text text-anchor="start" x="8" y="-18.5" font-family="Helvetica,sans-Serif" font-size="10.00" fill="#000000">_ptr&lt; ROOT::Experimental</text>
<text text-anchor="middle" x="72.5" y="-7.5" font-family="Helvetica,sans-Serif" font-size="10.00" fill="#000000">::RLogHandler &gt; &gt;</text>
</g>
<!-- Node4&#45;&gt;Node2 -->
<g id="edge2" class="edge">
<title>Node4&#45;&gt;Node2</title>
<path fill="none" stroke="#9a32cd" stroke-dasharray="5,2" d="M155.1152,-31.2793C180.6721,-34.4592 208.2638,-37.8923 231.7571,-40.8154"/>
<polygon fill="#9a32cd" stroke="#9a32cd" points="155.4152,-27.7897 145.0596,-30.0281 154.5509,-34.7362 155.4152,-27.7897"/>
<text text-anchor="middle" x="188.5" y="-42" font-family="Helvetica,sans-Serif" font-size="10.00" fill="#000000"> fHandlers</text>
</g>
</g>
</svg>
