<?xml version="1.0" encoding="UTF-8" standalone="no"?>
<!DOCTYPE svg PUBLIC "-//W3C//DTD SVG 1.1//EN"
 "http://www.w3.org/Graphics/SVG/1.1/DTD/svg11.dtd">
<!-- Generated by graphviz version 2.40.1 (0)
 -->
<!-- Title: TTask Pages: 1 -->
<svg width="512pt" height="433pt"
 viewBox="0.00 0.00 512.00 433.00" xmlns="http://www.w3.org/2000/svg" xmlns:xlink="http://www.w3.org/1999/xlink">
<g id="graph0" class="graph" transform="scale(1 1) rotate(0) translate(4 429)">
<title>TTask</title>
<polygon fill="#ffffff" stroke="transparent" points="-4,4 -4,-429 508,-429 508,4 -4,4"/>
<!-- Node3 -->
<g id="node1" class="node">
<title>Node3</title>
<polygon fill="#bfbfbf" stroke="#000000" points="167.5,-1.5 167.5,-20.5 211.5,-20.5 211.5,-1.5 167.5,-1.5"/>
<text text-anchor="middle" x="189.5" y="-8.5" font-family="Helvetica,sans-Serif" font-size="10.00" fill="#000000">TTask</text>
</g>
<!-- Node3&#45;&gt;Node3 -->
<g id="edge8" class="edge">
<title>Node3&#45;&gt;Node3</title>
<path fill="none" stroke="#9a32cd" stroke-dasharray="5,2" d="M221.9045,-16.7059C226.4533,-15.7751 229.5,-13.8731 229.5,-11 229.5,-6.2852 221.2952,-4.1856 211.7124,-4.7013"/>
<polygon fill="#9a32cd" stroke="#9a32cd" points="221.4922,-13.2239 211.7124,-17.2987 221.8988,-20.212 221.4922,-13.2239"/>
<text text-anchor="middle" x="263" y="-14" font-family="Helvetica,sans-Serif" font-size="10.00" fill="#000000"> fgBreakPoint</text>
<text text-anchor="middle" x="263" y="-3" font-family="Helvetica,sans-Serif" font-size="10.00" fill="#000000">fgBeginTask</text>
</g>
<!-- Node4 -->
<g id="node2" class="node">
<title>Node4</title>
<g id="a_node2"><a xlink:href="classTNamed.html" target="_top" xlink:title="The TNamed class is the base class for all named ROOT classes. ">
<polygon fill="#ffffff" stroke="#000000" points="160.5,-193.5 160.5,-212.5 218.5,-212.5 218.5,-193.5 160.5,-193.5"/>
<text text-anchor="middle" x="189.5" y="-200.5" font-family="Helvetica,sans-Serif" font-size="10.00" fill="#000000">TNamed</text>
</a>
</g>
</g>
<!-- Node4&#45;&gt;Node3 -->
<g id="edge1" class="edge">
<title>Node4&#45;&gt;Node3</title>
<path fill="none" stroke="#191970" d="M189.5,-183.2289C189.5,-142.4819 189.5,-50.4738 189.5,-20.5788"/>
<polygon fill="#191970" stroke="#191970" points="186.0001,-183.4787 189.5,-193.4787 193.0001,-183.4787 186.0001,-183.4787"/>
</g>
<!-- Node5 -->
<g id="node3" class="node">
<title>Node5</title>
<g id="a_node3"><a xlink:href="classTObject.html" target="_top" xlink:title="Mother of all ROOT objects. ">
<polygon fill="#ffffff" stroke="#000000" points="307.5,-338.5 307.5,-357.5 361.5,-357.5 361.5,-338.5 307.5,-338.5"/>
<text text-anchor="middle" x="334.5" y="-345.5" font-family="Helvetica,sans-Serif" font-size="10.00" fill="#000000">TObject</text>
</a>
</g>
</g>
<!-- Node5&#45;&gt;Node4 -->
<g id="edge2" class="edge">
<title>Node5&#45;&gt;Node4</title>
<path fill="none" stroke="#191970" d="M328.0004,-328.5809C318.4354,-302.8168 298.1952,-257.5098 266.5,-231 252.8612,-219.5925 234.1833,-212.6494 218.639,-208.5307"/>
<polygon fill="#191970" stroke="#191970" points="324.8101,-330.0571 331.4484,-338.3144 331.4084,-327.7197 324.8101,-330.0571"/>
</g>
<!-- Node13 -->
<g id="node11" class="node">
<title>Node13</title>
<g id="a_node11"><a xlink:href="classTCollection.html" target="_top" xlink:title="Collection abstract base class. ">
<polygon fill="#ffffff" stroke="#000000" points="317,-193.5 317,-212.5 388,-212.5 388,-193.5 317,-193.5"/>
<text text-anchor="middle" x="352.5" y="-200.5" font-family="Helvetica,sans-Serif" font-size="10.00" fill="#000000">TCollection</text>
</a>
</g>
</g>
<!-- Node5&#45;&gt;Node13 -->
<g id="edge13" class="edge">
<title>Node5&#45;&gt;Node13</title>
<path fill="none" stroke="#191970" d="M334.3037,-328.4429C334.3773,-312.8314 334.9985,-290.4324 337.5,-271 340.2166,-249.8968 346.2877,-225.6699 349.8169,-212.5889"/>
<polygon fill="#191970" stroke="#191970" points="330.8037,-328.4799 334.3278,-338.4714 337.8036,-328.4629 330.8037,-328.4799"/>
</g>
<!-- Node14 -->
<g id="node12" class="node">
<title>Node14</title>
<g id="a_node12"><a xlink:href="classTObjectTable.html" target="_top" xlink:title="This class registers all instances of TObject and its derived classes in a hash table. ">
<polygon fill="#ffffff" stroke="#000000" points="346.5,-271.5 346.5,-290.5 426.5,-290.5 426.5,-271.5 346.5,-271.5"/>
<text text-anchor="middle" x="386.5" y="-278.5" font-family="Helvetica,sans-Serif" font-size="10.00" fill="#000000">TObjectTable</text>
</a>
</g>
</g>
<!-- Node5&#45;&gt;Node14 -->
<g id="edge15" class="edge">
<title>Node5&#45;&gt;Node14</title>
<path fill="none" stroke="#191970" d="M370.5255,-334.5671C376.4659,-330.7578 381.8632,-325.9695 385.5,-320 390.8562,-311.208 390.2045,-299.1075 388.7909,-290.7268"/>
<polygon fill="#191970" stroke="#191970" points="368.6632,-331.5965 361.5754,-339.4714 372.027,-337.7353 368.6632,-331.5965"/>
</g>
<!-- Node5&#45;&gt;Node14 -->
<g id="edge16" class="edge">
<title>Node5&#45;&gt;Node14</title>
<path fill="none" stroke="#9a32cd" stroke-dasharray="5,2" d="M338.9891,-328.5808C341.1418,-321.9462 344.2134,-314.7549 348.5,-309 353.9827,-301.6394 361.9414,-295.36 369.1603,-290.6245"/>
<polygon fill="#9a32cd" stroke="#9a32cd" points="335.6038,-327.6914 336.3202,-338.2619 342.3521,-329.5517 335.6038,-327.6914"/>
<text text-anchor="middle" x="365" y="-312" font-family="Helvetica,sans-Serif" font-size="10.00" fill="#000000"> fTable</text>
</g>
<!-- Node6 -->
<g id="node4" class="node">
<title>Node6</title>
<g id="a_node4"><a xlink:href="classTString.html" target="_top" xlink:title="Basic string class. ">
<polygon fill="#ffffff" stroke="#000000" points="146,-271.5 146,-290.5 197,-290.5 197,-271.5 146,-271.5"/>
<text text-anchor="middle" x="171.5" y="-278.5" font-family="Helvetica,sans-Serif" font-size="10.00" fill="#000000">TString</text>
</a>
</g>
</g>
<!-- Node6&#45;&gt;Node3 -->
<g id="edge9" class="edge">
<title>Node6&#45;&gt;Node3</title>
<path fill="none" stroke="#9a32cd" stroke-dasharray="5,2" d="M152.4545,-263.925C138.3245,-249.307 121.5,-226.8863 121.5,-203 121.5,-203 121.5,-203 121.5,-79 121.5,-51.7862 149.0679,-31.6595 169.0978,-20.6278"/>
<polygon fill="#9a32cd" stroke="#9a32cd" points="150.3047,-266.7178 159.9033,-271.203 155.1968,-261.711 150.3047,-266.7178"/>
<text text-anchor="middle" x="141.5" y="-143.5" font-family="Helvetica,sans-Serif" font-size="10.00" fill="#000000"> fOption</text>
</g>
<!-- Node6&#45;&gt;Node4 -->
<g id="edge3" class="edge">
<title>Node6&#45;&gt;Node4</title>
<path fill="none" stroke="#9a32cd" stroke-dasharray="5,2" d="M169.5414,-260.9719C169.2273,-251.6847 169.7094,-240.6023 172.5,-231 174.4362,-224.3376 178.3879,-217.6662 181.9943,-212.5074"/>
<polygon fill="#9a32cd" stroke="#9a32cd" points="166.0649,-261.4428 170.2178,-271.1898 173.0496,-260.9804 166.0649,-261.4428"/>
<text text-anchor="middle" x="189.5" y="-245" font-family="Helvetica,sans-Serif" font-size="10.00" fill="#000000"> fTitle</text>
<text text-anchor="middle" x="189.5" y="-234" font-family="Helvetica,sans-Serif" font-size="10.00" fill="#000000">fName</text>
</g>
<!-- Node6&#45;&gt;Node13 -->
<g id="edge17" class="edge">
<title>Node6&#45;&gt;Node13</title>
<path fill="none" stroke="#9a32cd" stroke-dasharray="5,2" d="M196.6835,-266.4489C215.7393,-255.7945 242.7643,-241.4346 267.5,-231 284.249,-223.9345 303.4429,-217.4788 319.3485,-212.5512"/>
<polygon fill="#9a32cd" stroke="#9a32cd" points="194.74,-263.527 187.757,-271.495 198.1848,-269.6208 194.74,-263.527"/>
<text text-anchor="middle" x="286" y="-239.5" font-family="Helvetica,sans-Serif" font-size="10.00" fill="#000000"> fName</text>
</g>
<!-- Node7 -->
<g id="node5" class="node">
<title>Node7</title>
<g id="a_node5"><a xlink:href="structTString_1_1Rep__t.html" target="_top" xlink:title="TString::Rep_t">
<polygon fill="#ffffff" stroke="#000000" points="129.5,-338.5 129.5,-357.5 213.5,-357.5 213.5,-338.5 129.5,-338.5"/>
<text text-anchor="middle" x="171.5" y="-345.5" font-family="Helvetica,sans-Serif" font-size="10.00" fill="#000000">TString::Rep_t</text>
</a>
</g>
</g>
<!-- Node7&#45;&gt;Node6 -->
<g id="edge4" class="edge">
<title>Node7&#45;&gt;Node6</title>
<path fill="none" stroke="#9a32cd" stroke-dasharray="5,2" d="M171.5,-328.1079C171.5,-315.714 171.5,-300.3263 171.5,-290.5817"/>
<polygon fill="#9a32cd" stroke="#9a32cd" points="168.0001,-328.4005 171.5,-338.4005 175.0001,-328.4006 168.0001,-328.4005"/>
<text text-anchor="middle" x="184" y="-312" font-family="Helvetica,sans-Serif" font-size="10.00" fill="#000000"> fRep</text>
</g>
<!-- Node8 -->
<g id="node6" class="node">
<title>Node8</title>
<g id="a_node6"><a xlink:href="structTString_1_1LongStr__t.html" target="_top" xlink:title="TString::LongStr_t">
<polygon fill="#ffffff" stroke="#000000" points="0,-405.5 0,-424.5 103,-424.5 103,-405.5 0,-405.5"/>
<text text-anchor="middle" x="51.5" y="-412.5" font-family="Helvetica,sans-Serif" font-size="10.00" fill="#000000">TString::LongStr_t</text>
</a>
</g>
</g>
<!-- Node8&#45;&gt;Node7 -->
<g id="edge5" class="edge">
<title>Node8&#45;&gt;Node7</title>
<path fill="none" stroke="#9a32cd" stroke-dasharray="5,2" d="M77.6768,-400.3846C100.9489,-387.391 134.3033,-368.7681 154.3388,-357.5817"/>
<polygon fill="#9a32cd" stroke="#9a32cd" points="75.7181,-397.4696 68.6931,-405.4005 79.1306,-403.5815 75.7181,-397.4696"/>
<text text-anchor="middle" x="135" y="-379" font-family="Helvetica,sans-Serif" font-size="10.00" fill="#000000"> fLong</text>
</g>
<!-- Node9 -->
<g id="node7" class="node">
<title>Node9</title>
<g id="a_node7"><a xlink:href="structTString_1_1RawStr__t.html" target="_top" xlink:title="TString::RawStr_t">
<polygon fill="#ffffff" stroke="#000000" points="121,-405.5 121,-424.5 222,-424.5 222,-405.5 121,-405.5"/>
<text text-anchor="middle" x="171.5" y="-412.5" font-family="Helvetica,sans-Serif" font-size="10.00" fill="#000000">TString::RawStr_t</text>
</a>
</g>
</g>
<!-- Node9&#45;&gt;Node7 -->
<g id="edge6" class="edge">
<title>Node9&#45;&gt;Node7</title>
<path fill="none" stroke="#9a32cd" stroke-dasharray="5,2" d="M171.5,-395.1079C171.5,-382.714 171.5,-367.3263 171.5,-357.5817"/>
<polygon fill="#9a32cd" stroke="#9a32cd" points="168.0001,-395.4005 171.5,-405.4005 175.0001,-395.4006 168.0001,-395.4005"/>
<text text-anchor="middle" x="185.5" y="-379" font-family="Helvetica,sans-Serif" font-size="10.00" fill="#000000"> fRaw</text>
</g>
<!-- Node10 -->
<g id="node8" class="node">
<title>Node10</title>
<g id="a_node8"><a xlink:href="structTString_1_1ShortStr__t.html" target="_top" xlink:title="TString::ShortStr_t">
<polygon fill="#ffffff" stroke="#000000" points="240,-405.5 240,-424.5 345,-424.5 345,-405.5 240,-405.5"/>
<text text-anchor="middle" x="292.5" y="-412.5" font-family="Helvetica,sans-Serif" font-size="10.00" fill="#000000">TString::ShortStr_t</text>
</a>
</g>
</g>
<!-- Node10&#45;&gt;Node7 -->
<g id="edge7" class="edge">
<title>Node10&#45;&gt;Node7</title>
<path fill="none" stroke="#9a32cd" stroke-dasharray="5,2" d="M266.105,-400.3846C242.639,-387.391 209.0066,-368.7681 188.8042,-357.5817"/>
<polygon fill="#9a32cd" stroke="#9a32cd" points="264.7198,-403.6183 275.1637,-405.4005 268.1107,-397.4944 264.7198,-403.6183"/>
<text text-anchor="middle" x="256" y="-379" font-family="Helvetica,sans-Serif" font-size="10.00" fill="#000000"> fShort</text>
</g>
<!-- Node11 -->
<g id="node9" class="node">
<title>Node11</title>
<g id="a_node9"><a xlink:href="classTList.html" target="_top" xlink:title="A doubly linked list. ">
<polygon fill="#ffffff" stroke="#000000" points="271.5,-69.5 271.5,-88.5 311.5,-88.5 311.5,-69.5 271.5,-69.5"/>
<text text-anchor="middle" x="291.5" y="-76.5" font-family="Helvetica,sans-Serif" font-size="10.00" fill="#000000">TList</text>
</a>
</g>
</g>
<!-- Node11&#45;&gt;Node3 -->
<g id="edge10" class="edge">
<title>Node11&#45;&gt;Node3</title>
<path fill="none" stroke="#9a32cd" stroke-dasharray="5,2" d="M268.4024,-63.6016C248.5366,-50.3577 220.5106,-31.6738 203.7581,-20.5054"/>
<polygon fill="#9a32cd" stroke="#9a32cd" points="266.6239,-66.6224 276.8859,-69.2573 270.5068,-60.798 266.6239,-66.6224"/>
<text text-anchor="middle" x="264.5" y="-43" font-family="Helvetica,sans-Serif" font-size="10.00" fill="#000000"> fTasks</text>
</g>
<!-- Node12 -->
<g id="node10" class="node">
<title>Node12</title>
<g id="a_node10"><a xlink:href="classTSeqCollection.html" target="_top" xlink:title="Sequenceable collection abstract base class. ">
<polygon fill="#ffffff" stroke="#000000" points="384,-136.5 384,-155.5 473,-155.5 473,-136.5 384,-136.5"/>
<text text-anchor="middle" x="428.5" y="-143.5" font-family="Helvetica,sans-Serif" font-size="10.00" fill="#000000">TSeqCollection</text>
</a>
</g>
</g>
<!-- Node12&#45;&gt;Node11 -->
<g id="edge11" class="edge">
<title>Node12&#45;&gt;Node11</title>
<path fill="none" stroke="#191970" d="M399.6714,-131.9013C373.064,-118.889 334.2712,-99.9173 311.0923,-88.5817"/>
<polygon fill="#191970" stroke="#191970" points="398.3503,-135.1513 408.8712,-136.4005 401.4256,-128.8631 398.3503,-135.1513"/>
</g>
<!-- Node13&#45;&gt;Node12 -->
<g id="edge12" class="edge">
<title>Node13&#45;&gt;Node12</title>
<path fill="none" stroke="#191970" d="M373.6789,-187.1158C387.218,-176.9615 404.3262,-164.1303 415.798,-155.5265"/>
<polygon fill="#191970" stroke="#191970" points="371.2924,-184.5307 365.3924,-193.3307 375.4924,-190.1307 371.2924,-184.5307"/>
</g>
<!-- Node13&#45;&gt;Node13 -->
<g id="edge18" class="edge">
<title>Node13&#45;&gt;Node13</title>
<path fill="none" stroke="#9a32cd" stroke-dasharray="5,2" d="M398.2805,-207.3285C402.9895,-206.4765 406,-205.0337 406,-203 406,-199.7461 398.2932,-198.0047 388.2532,-197.776"/>
<polygon fill="#9a32cd" stroke="#9a32cd" points="397.9022,-203.8483 388.2532,-208.224 398.5249,-210.8206 397.9022,-203.8483"/>
<text text-anchor="middle" x="455" y="-200.5" font-family="Helvetica,sans-Serif" font-size="10.00" fill="#000000"> fgCurrentCollection</text>
</g>
<!-- Node14&#45;&gt;Node13 -->
<g id="edge14" class="edge">
<title>Node14&#45;&gt;Node13</title>
<path fill="none" stroke="#9a32cd" stroke-dasharray="5,2" d="M378.299,-262.186C371.4872,-246.5589 362.0733,-224.9623 356.7032,-212.6426"/>
<polygon fill="#9a32cd" stroke="#9a32cd" points="375.1266,-263.6673 382.3309,-271.4357 381.5435,-260.8701 375.1266,-263.6673"/>
<text text-anchor="middle" x="426" y="-239.5" font-family="Helvetica,sans-Serif" font-size="10.00" fill="#000000"> fgGarbageCollection</text>
</g>
<!-- Node15 -->
<g id="node13" class="node">
<title>Node15</title>
<polygon fill="#ffffff" stroke="#bfbfbf" points="217.5,-136.5 217.5,-155.5 365.5,-155.5 365.5,-136.5 217.5,-136.5"/>
<text text-anchor="middle" x="291.5" y="-143.5" font-family="Helvetica,sans-Serif" font-size="10.00" fill="#000000">std::weak_ptr&lt; TObjLink &gt;</text>
</g>
<!-- Node15&#45;&gt;Node11 -->
<g id="edge19" class="edge">
<title>Node15&#45;&gt;Node11</title>
<path fill="none" stroke="#9a32cd" stroke-dasharray="5,2" d="M291.5,-126.1079C291.5,-113.714 291.5,-98.3263 291.5,-88.5817"/>
<polygon fill="#9a32cd" stroke="#9a32cd" points="288.0001,-126.4005 291.5,-136.4005 295.0001,-126.4006 288.0001,-126.4005"/>
<text text-anchor="middle" x="310" y="-110" font-family="Helvetica,sans-Serif" font-size="10.00" fill="#000000"> fCache</text>
</g>
</g>
</svg>
