<?xml version="1.0" encoding="UTF-8" standalone="no"?>
<!DOCTYPE svg PUBLIC "-//W3C//DTD SVG 1.1//EN"
 "http://www.w3.org/Graphics/SVG/1.1/DTD/svg11.dtd">
<!-- Generated by graphviz version 2.40.1 (0)
 -->
<!-- Title: TProofMgr Pages: 1 -->
<svg width="184pt" height="196pt"
 viewBox="0.00 0.00 183.50 196.00" xmlns="http://www.w3.org/2000/svg" xmlns:xlink="http://www.w3.org/1999/xlink">
<g id="graph0" class="graph" transform="scale(1 1) rotate(0) translate(4 192)">
<title>TProofMgr</title>
<polygon fill="#ffffff" stroke="transparent" points="-4,4 -4,-192 179.5,-192 179.5,4 -4,4"/>
<!-- Node0 -->
<g id="node1" class="node">
<title>Node0</title>
<polygon fill="#bfbfbf" stroke="#000000" points="57,-56.5 57,-75.5 123,-75.5 123,-56.5 57,-56.5"/>
<text text-anchor="middle" x="90" y="-63.5" font-family="Helvetica,sans-Serif" font-size="10.00" fill="#000000">TProofMgr</text>
</g>
<!-- Node3 -->
<g id="node4" class="node">
<title>Node3</title>
<g id="a_node4"><a xlink:href="classTProofMgrLite.html" target="_top" xlink:title="Basic TProofMgr functionality implementation in the case of Lite session. ">
<polygon fill="#ffffff" stroke="#000000" points="0,-.5 0,-19.5 84,-19.5 84,-.5 0,-.5"/>
<text text-anchor="middle" x="42" y="-7.5" font-family="Helvetica,sans-Serif" font-size="10.00" fill="#000000">TProofMgrLite</text>
</a>
</g>
</g>
<!-- Node0&#45;&gt;Node3 -->
<g id="edge3" class="edge">
<title>Node0&#45;&gt;Node3</title>
<path fill="none" stroke="#191970" d="M75.0003,-48.5004C66.8378,-38.9775 57.0511,-27.5596 50.2651,-19.6427"/>
<polygon fill="#191970" stroke="#191970" points="72.4737,-50.9307 81.639,-56.2455 77.7885,-46.3752 72.4737,-50.9307"/>
</g>
<!-- Node4 -->
<g id="node5" class="node">
<title>Node4</title>
<g id="a_node5"><a xlink:href="classTXProofMgr.html" target="_top" xlink:title="Implementation of the functionality provided by TProofMgr in the case of a xproofd&#45;based session...">
<polygon fill="#ffffff" stroke="#000000" points="102.5,-.5 102.5,-19.5 175.5,-19.5 175.5,-.5 102.5,-.5"/>
<text text-anchor="middle" x="139" y="-7.5" font-family="Helvetica,sans-Serif" font-size="10.00" fill="#000000">TXProofMgr</text>
</a>
</g>
</g>
<!-- Node0&#45;&gt;Node4 -->
<g id="edge4" class="edge">
<title>Node0&#45;&gt;Node4</title>
<path fill="none" stroke="#191970" d="M105.3122,-48.5004C113.6447,-38.9775 123.6353,-27.5596 130.5627,-19.6427"/>
<polygon fill="#191970" stroke="#191970" points="102.4862,-46.415 98.5351,-56.2455 107.7543,-51.0245 102.4862,-46.415"/>
</g>
<!-- Node1 -->
<g id="node2" class="node">
<title>Node1</title>
<g id="a_node2"><a xlink:href="classTNamed.html" target="_top" xlink:title="The TNamed class is the base class for all named ROOT classes. ">
<polygon fill="#ffffff" stroke="#000000" points="61,-112.5 61,-131.5 119,-131.5 119,-112.5 61,-112.5"/>
<text text-anchor="middle" x="90" y="-119.5" font-family="Helvetica,sans-Serif" font-size="10.00" fill="#000000">TNamed</text>
</a>
</g>
</g>
<!-- Node1&#45;&gt;Node0 -->
<g id="edge1" class="edge">
<title>Node1&#45;&gt;Node0</title>
<path fill="none" stroke="#191970" d="M90,-102.1575C90,-93.155 90,-82.9199 90,-75.6427"/>
<polygon fill="#191970" stroke="#191970" points="86.5001,-102.2455 90,-112.2455 93.5001,-102.2456 86.5001,-102.2455"/>
</g>
<!-- Node2 -->
<g id="node3" class="node">
<title>Node2</title>
<g id="a_node3"><a xlink:href="classTObject.html" target="_top" xlink:title="Mother of all ROOT objects. ">
<polygon fill="#ffffff" stroke="#000000" points="63,-168.5 63,-187.5 117,-187.5 117,-168.5 63,-168.5"/>
<text text-anchor="middle" x="90" y="-175.5" font-family="Helvetica,sans-Serif" font-size="10.00" fill="#000000">TObject</text>
</a>
</g>
</g>
<!-- Node2&#45;&gt;Node1 -->
<g id="edge2" class="edge">
<title>Node2&#45;&gt;Node1</title>
<path fill="none" stroke="#191970" d="M90,-158.1575C90,-149.155 90,-138.9199 90,-131.6427"/>
<polygon fill="#191970" stroke="#191970" points="86.5001,-158.2455 90,-168.2455 93.5001,-158.2456 86.5001,-158.2455"/>
</g>
</g>
</svg>
