<?xml version="1.0" encoding="UTF-8" standalone="no"?>
<!DOCTYPE svg PUBLIC "-//W3C//DTD SVG 1.1//EN"
 "http://www.w3.org/Graphics/SVG/1.1/DTD/svg11.dtd">
<!-- Generated by graphviz version 2.40.1 (0)
 -->
<!-- Title: roofit/histfactory/inc/RooStats/HistFactory/ConfigParser.h Pages: 1 -->
<svg width="499pt" height="117pt"
 viewBox="0.00 0.00 499.00 117.00" xmlns="http://www.w3.org/2000/svg" xmlns:xlink="http://www.w3.org/1999/xlink">
<g id="graph0" class="graph" transform="scale(1 1) rotate(0) translate(4 113)">
<title>roofit/histfactory/inc/RooStats/HistFactory/ConfigParser.h</title>
<polygon fill="#ffffff" stroke="transparent" points="-4,4 -4,-113 495,-113 495,4 -4,4"/>
<!-- Node132 -->
<g id="node1" class="node">
<title>Node132</title>
<polygon fill="#bfbfbf" stroke="#000000" points="134,-67.5 134,-108.5 271,-108.5 271,-67.5 134,-67.5"/>
<text text-anchor="start" x="142" y="-96.5" font-family="Helvetica,sans-Serif" font-size="10.00" fill="#000000">roofit/histfactory</text>
<text text-anchor="start" x="142" y="-85.5" font-family="Helvetica,sans-Serif" font-size="10.00" fill="#000000">/inc/RooStats/HistFactory</text>
<text text-anchor="middle" x="202.5" y="-74.5" font-family="Helvetica,sans-Serif" font-size="10.00" fill="#000000">/ConfigParser.h</text>
</g>
<!-- Node133 -->
<g id="node2" class="node">
<title>Node133</title>
<g id="a_node2"><a xlink:href="ConfigParser_8cxx.html" target="_top" xlink:title="roofit/histfactory\l/src/ConfigParser.cxx">
<polygon fill="#ffffff" stroke="#000000" points="0,-.5 0,-30.5 117,-30.5 117,-.5 0,-.5"/>
<text text-anchor="start" x="8" y="-18.5" font-family="Helvetica,sans-Serif" font-size="10.00" fill="#000000">roofit/histfactory</text>
<text text-anchor="middle" x="58.5" y="-7.5" font-family="Helvetica,sans-Serif" font-size="10.00" fill="#000000">/src/ConfigParser.cxx</text>
</a>
</g>
</g>
<!-- Node132&#45;&gt;Node133 -->
<g id="edge1" class="edge">
<title>Node132&#45;&gt;Node133</title>
<path fill="none" stroke="#191970" d="M152.6629,-62.9084C131.2908,-52.1482 107.0319,-39.9345 88.4899,-30.5991"/>
<polygon fill="#191970" stroke="#191970" points="151.1148,-66.0475 161.6206,-67.4183 154.2627,-59.7952 151.1148,-66.0475"/>
</g>
<!-- Node134 -->
<g id="node3" class="node">
<title>Node134</title>
<g id="a_node3"><a xlink:href="hist2workspace_8cxx.html" target="_top" xlink:title="roofit/histfactory\l/src/hist2workspace.cxx">
<polygon fill="#ffffff" stroke="#000000" points="135.5,-.5 135.5,-30.5 269.5,-30.5 269.5,-.5 135.5,-.5"/>
<text text-anchor="start" x="143.5" y="-18.5" font-family="Helvetica,sans-Serif" font-size="10.00" fill="#000000">roofit/histfactory</text>
<text text-anchor="middle" x="202.5" y="-7.5" font-family="Helvetica,sans-Serif" font-size="10.00" fill="#000000">/src/hist2workspace.cxx</text>
</a>
</g>
</g>
<!-- Node132&#45;&gt;Node134 -->
<g id="edge2" class="edge">
<title>Node132&#45;&gt;Node134</title>
<path fill="none" stroke="#191970" d="M202.5,-57.3279C202.5,-48.0871 202.5,-38.3508 202.5,-30.5991"/>
<polygon fill="#191970" stroke="#191970" points="199.0001,-57.4183 202.5,-67.4183 206.0001,-57.4184 199.0001,-57.4183"/>
</g>
<!-- Node135 -->
<g id="node4" class="node">
<title>Node135</title>
<g id="a_node4"><a xlink:href="MakeModelAndMeasurements_8cxx.html" target="_top" xlink:title="roofit/histfactory\l/src/MakeModelAndMeasurements.cxx">
<polygon fill="#ffffff" stroke="#000000" points="288,-.5 288,-30.5 491,-30.5 491,-.5 288,-.5"/>
<text text-anchor="start" x="296" y="-18.5" font-family="Helvetica,sans-Serif" font-size="10.00" fill="#000000">roofit/histfactory</text>
<text text-anchor="middle" x="389.5" y="-7.5" font-family="Helvetica,sans-Serif" font-size="10.00" fill="#000000">/src/MakeModelAndMeasurements.cxx</text>
</a>
</g>
</g>
<!-- Node132&#45;&gt;Node135 -->
<g id="edge3" class="edge">
<title>Node132&#45;&gt;Node135</title>
<path fill="none" stroke="#191970" d="M264.997,-63.7699C293.28,-52.8045 325.8309,-40.1845 350.5547,-30.5991"/>
<polygon fill="#191970" stroke="#191970" points="263.6451,-60.5401 255.5865,-67.4183 266.1755,-67.0668 263.6451,-60.5401"/>
</g>
</g>
</svg>
