<?xml version="1.0" encoding="UTF-8" standalone="no"?>
<!DOCTYPE svg PUBLIC "-//W3C//DTD SVG 1.1//EN"
 "http://www.w3.org/Graphics/SVG/1.1/DTD/svg11.dtd">
<!-- Generated by graphviz version 2.40.1 (0)
 -->
<!-- Title: tmva/tmva/inc/TMVA/CrossEntropy.h Pages: 1 -->
<!--zoomable 106 -->
<svg id="main" version="1.1" xmlns="http://www.w3.org/2000/svg" xmlns:xlink="http://www.w3.org/1999/xlink" xml:space="preserve" onload="init(evt)">
<style type="text/css"><![CDATA[
.edge:hover path { stroke: red; }
.edge:hover polygon { stroke: red; fill: red; }
]]></style>
<script type="text/javascript"><![CDATA[
var edges = document.getElementsByTagName('g');
if (edges && edges.length) {
  for (var i=0;i<edges.length;i++) {
    if (edges[i].id.substr(0,4)=='edge') {
      edges[i].setAttribute('class','edge');
    }
  }
}
]]></script>
        <defs>
                <circle id="rim" cx="0" cy="0" r="7"/>
                <circle id="rim2" cx="0" cy="0" r="3.5"/>
                <g id="zoomPlus">
                        <use xlink:href="#rim" fill="#404040">
                                <set attributeName="fill" to="#808080" begin="zoomplus.mouseover" end="zoomplus.mouseout"/>
                        </use>
                        <path d="M-4,0h8M0,-4v8" fill="none" stroke="white" stroke-width="1.5" pointer-events="none"/>
                </g>
                <g id="zoomMin">
                        <use xlink:href="#rim" fill="#404040">
                                <set attributeName="fill" to="#808080" begin="zoomminus.mouseover" end="zoomminus.mouseout"/>
                        </use>
                        <path d="M-4,0h8" fill="none" stroke="white" stroke-width="1.5" pointer-events="none"/>
                </g>
                <g id="dirArrow">
                        <path fill="none" stroke="white" stroke-width="1.5" d="M0,-3.0v7 M-2.5,-0.5L0,-3.0L2.5,-0.5"/>
                </g>
               <g id="resetDef">
                       <use xlink:href="#rim2" fill="#404040">
                               <set attributeName="fill" to="#808080" begin="reset.mouseover" end="reset.mouseout"/>
                       </use>
               </g>
        </defs>

<script type="text/javascript">
var viewWidth = 1307;
var viewHeight = 106;
var sectionId = 'dynsection-1';
</script>
<script xlink:href="svgpan.js"/>
<svg id="graph" class="graph">
<g id="viewport">
<title>tmva/tmva/inc/TMVA/CrossEntropy.h</title>
<polygon fill="#ffffff" stroke="transparent" points="-4,4 -4,-102 1303,-102 1303,4 -4,4"/>
<!-- Node47 -->
<g id="node1" class="node">
<title>Node47</title>
<polygon fill="#bfbfbf" stroke="#000000" points="597,-67.5 597,-97.5 715,-97.5 715,-67.5 597,-67.5"/>
<text text-anchor="start" x="605" y="-85.5" font-family="Helvetica,sans-Serif" font-size="10.00" fill="#000000">tmva/tmva/inc/TMVA</text>
<text text-anchor="middle" x="656" y="-74.5" font-family="Helvetica,sans-Serif" font-size="10.00" fill="#000000">/CrossEntropy.h</text>
</g>
<!-- Node48 -->
<g id="node2" class="node">
<title>Node48</title>
<g id="a_node2"><a xlink:href="CrossEntropy_8cxx.html" target="_top" xlink:title="tmva/tmva/src/CrossEntropy.cxx">
<polygon fill="#ffffff" stroke="#000000" points="0,-6 0,-25 174,-25 174,-6 0,-6"/>
<text text-anchor="middle" x="87" y="-13" font-family="Helvetica,sans-Serif" font-size="10.00" fill="#000000">tmva/tmva/src/CrossEntropy.cxx</text>
</a>
</g>
</g>
<!-- Node47&#45;&gt;Node48 -->
<g id="edge1" class="edge">
<title>Node47&#45;&gt;Node48</title>
<path fill="none" stroke="#191970" d="M586.8387,-76.0982C494.5747,-67.2999 326.2073,-50.344 183,-31 169.9502,-29.2373 155.9405,-27.1098 142.7673,-25.0034"/>
<polygon fill="#191970" stroke="#191970" points="586.6025,-79.5914 596.8887,-77.0529 587.2646,-72.6228 586.6025,-79.5914"/>
</g>
<!-- Node49 -->
<g id="node3" class="node">
<title>Node49</title>
<g id="a_node3"><a xlink:href="DecisionTree_8cxx.html" target="_top" xlink:title="tmva/tmva/src/DecisionTree.cxx">
<polygon fill="#ffffff" stroke="#000000" points="192.5,-6 192.5,-25 365.5,-25 365.5,-6 192.5,-6"/>
<text text-anchor="middle" x="279" y="-13" font-family="Helvetica,sans-Serif" font-size="10.00" fill="#000000">tmva/tmva/src/DecisionTree.cxx</text>
</a>
</g>
</g>
<!-- Node47&#45;&gt;Node49 -->
<g id="edge2" class="edge">
<title>Node47&#45;&gt;Node49</title>
<path fill="none" stroke="#191970" d="M586.6094,-70.168C513.2647,-57.1332 399.1643,-36.8555 332.4881,-25.0058"/>
<polygon fill="#191970" stroke="#191970" points="586.2209,-73.6537 596.679,-71.9575 587.4457,-66.7617 586.2209,-73.6537"/>
</g>
<!-- Node50 -->
<g id="node4" class="node">
<title>Node50</title>
<g id="a_node4"><a xlink:href="MethodBDT_8cxx.html" target="_top" xlink:title="tmva/tmva/src/MethodBDT.cxx">
<polygon fill="#ffffff" stroke="#000000" points="384,-6 384,-25 550,-25 550,-6 384,-6"/>
<text text-anchor="middle" x="467" y="-13" font-family="Helvetica,sans-Serif" font-size="10.00" fill="#000000">tmva/tmva/src/MethodBDT.cxx</text>
</a>
</g>
</g>
<!-- Node47&#45;&gt;Node50 -->
<g id="edge3" class="edge">
<title>Node47&#45;&gt;Node50</title>
<path fill="none" stroke="#191970" d="M603.8144,-64.0003C568.1399,-51.3538 522.3265,-35.1131 493.8134,-25.0053"/>
<polygon fill="#191970" stroke="#191970" points="602.99,-67.4214 613.5847,-67.4639 605.3289,-60.8237 602.99,-67.4214"/>
</g>
<!-- Node51 -->
<g id="node5" class="node">
<title>Node51</title>
<g id="a_node5"><a xlink:href="MethodBoost_8cxx.html" target="_top" xlink:title="tmva/tmva/src/MethodBoost.cxx">
<polygon fill="#ffffff" stroke="#000000" points="568.5,-6 568.5,-25 743.5,-25 743.5,-6 568.5,-6"/>
<text text-anchor="middle" x="656" y="-13" font-family="Helvetica,sans-Serif" font-size="10.00" fill="#000000">tmva/tmva/src/MethodBoost.cxx</text>
</a>
</g>
</g>
<!-- Node47&#45;&gt;Node51 -->
<g id="edge4" class="edge">
<title>Node47&#45;&gt;Node51</title>
<path fill="none" stroke="#191970" d="M656,-57.1199C656,-45.9072 656,-33.4031 656,-25.055"/>
<polygon fill="#191970" stroke="#191970" points="652.5001,-57.2966 656,-67.2967 659.5001,-57.2967 652.5001,-57.2966"/>
</g>
<!-- Node52 -->
<g id="node6" class="node">
<title>Node52</title>
<g id="a_node6"><a xlink:href="MethodDT_8cxx.html" target="_top" xlink:title="tmva/tmva/src/MethodDT.cxx">
<polygon fill="#ffffff" stroke="#000000" points="761.5,-6 761.5,-25 920.5,-25 920.5,-6 761.5,-6"/>
<text text-anchor="middle" x="841" y="-13" font-family="Helvetica,sans-Serif" font-size="10.00" fill="#000000">tmva/tmva/src/MethodDT.cxx</text>
</a>
</g>
</g>
<!-- Node47&#45;&gt;Node52 -->
<g id="edge5" class="edge">
<title>Node47&#45;&gt;Node52</title>
<path fill="none" stroke="#191970" d="M707.0812,-64.0003C742.0006,-51.3538 786.8445,-35.1131 814.7541,-25.0053"/>
<polygon fill="#191970" stroke="#191970" points="705.7282,-60.7678 697.5176,-67.4639 708.1118,-67.3495 705.7282,-60.7678"/>
</g>
<!-- Node53 -->
<g id="node7" class="node">
<title>Node53</title>
<g id="a_node7"><a xlink:href="MethodPDEFoam_8cxx.html" target="_top" xlink:title="tmva/tmva/src/MethodPDEFoam.cxx">
<polygon fill="#ffffff" stroke="#000000" points="939,-6 939,-25 1133,-25 1133,-6 939,-6"/>
<text text-anchor="middle" x="1036" y="-13" font-family="Helvetica,sans-Serif" font-size="10.00" fill="#000000">tmva/tmva/src/MethodPDEFoam.cxx</text>
</a>
</g>
</g>
<!-- Node47&#45;&gt;Node53 -->
<g id="edge6" class="edge">
<title>Node47&#45;&gt;Node53</title>
<path fill="none" stroke="#191970" d="M725.5139,-70.2436C799.3791,-57.22 914.6039,-36.904 981.9588,-25.0283"/>
<polygon fill="#191970" stroke="#191970" points="724.6153,-66.848 715.375,-72.0313 725.8309,-73.7416 724.6153,-66.848"/>
</g>
<!-- Node54 -->
<g id="node8" class="node">
<title>Node54</title>
<g id="a_node8"><a xlink:href="MethodRuleFit_8cxx.html" target="_top" xlink:title="tmva/tmva/src/MethodRule\lFit.cxx">
<polygon fill="#ffffff" stroke="#000000" points="1151,-.5 1151,-30.5 1299,-30.5 1299,-.5 1151,-.5"/>
<text text-anchor="start" x="1159" y="-18.5" font-family="Helvetica,sans-Serif" font-size="10.00" fill="#000000">tmva/tmva/src/MethodRule</text>
<text text-anchor="middle" x="1225" y="-7.5" font-family="Helvetica,sans-Serif" font-size="10.00" fill="#000000">Fit.cxx</text>
</a>
</g>
</g>
<!-- Node47&#45;&gt;Node54 -->
<g id="edge7" class="edge">
<title>Node47&#45;&gt;Node54</title>
<path fill="none" stroke="#191970" d="M725.2948,-76.8926C819.7713,-68.852 994.1672,-52.6019 1142,-31 1144.901,-30.5761 1147.8552,-30.1238 1150.8368,-29.6502"/>
<polygon fill="#191970" stroke="#191970" points="724.9603,-73.4083 715.2908,-77.7387 725.5503,-80.3834 724.9603,-73.4083"/>
</g>
</g>
</svg>
        <g id="navigator" transform="translate(0 0)" fill="#404254">
                <rect fill="#f2f5e9" fill-opacity="0.5" stroke="#606060" stroke-width=".5" x="0" y="0" width="60" height="60"/>
                <use id="zoomplus" xlink:href="#zoomPlus" x="17" y="9" onmousedown="handleZoom(evt,'in')"/>
                <use id="zoomminus" xlink:href="#zoomMin" x="42" y="9" onmousedown="handleZoom(evt,'out')"/>
                <use id="reset" xlink:href="#resetDef" x="30" y="36" onmousedown="handleReset()"/>
                <g id="arrowUp" xlink:href="#dirArrow" transform="translate(30 24)" onmousedown="handlePan(0,-1)">
                  <use xlink:href="#rim" fill="#404040">
                        <set attributeName="fill" to="#808080" begin="arrowUp.mouseover" end="arrowUp.mouseout"/>
                  </use>
                  <path fill="none" stroke="white" stroke-width="1.5" d="M0,-3.0v7 M-2.5,-0.5L0,-3.0L2.5,-0.5"/>
                </g>
                <g id="arrowRight" xlink:href="#dirArrow" transform="rotate(90) translate(36 -43)" onmousedown="handlePan(1,0)">
                  <use xlink:href="#rim" fill="#404040">
                        <set attributeName="fill" to="#808080" begin="arrowRight.mouseover" end="arrowRight.mouseout"/>
                  </use>
                  <path fill="none" stroke="white" stroke-width="1.5" d="M0,-3.0v7 M-2.5,-0.5L0,-3.0L2.5,-0.5"/>
                </g>
                <g id="arrowDown" xlink:href="#dirArrow" transform="rotate(180) translate(-30 -48)" onmousedown="handlePan(0,1)">
                  <use xlink:href="#rim" fill="#404040">
                        <set attributeName="fill" to="#808080" begin="arrowDown.mouseover" end="arrowDown.mouseout"/>
                  </use>
                  <path fill="none" stroke="white" stroke-width="1.5" d="M0,-3.0v7 M-2.5,-0.5L0,-3.0L2.5,-0.5"/>
                </g>
                <g id="arrowLeft" xlink:href="#dirArrow" transform="rotate(270) translate(-36 17)" onmousedown="handlePan(-1,0)">
                  <use xlink:href="#rim" fill="#404040">
                        <set attributeName="fill" to="#808080" begin="arrowLeft.mouseover" end="arrowLeft.mouseout"/>
                  </use>
                  <path fill="none" stroke="white" stroke-width="1.5" d="M0,-3.0v7 M-2.5,-0.5L0,-3.0L2.5,-0.5"/>
                </g>
        </g>
        <svg viewBox="0 0 15 15" width="100%" height="30px" preserveAspectRatio="xMaxYMin meet">
         <g id="arrow_out" transform="scale(0.3 0.3)">
          <a xlink:href="CrossEntropy_8h__dep__incl_org.svg" target="_base">
           <rect id="button" ry="5" rx="5" y="6" x="6" height="38" width="38"
                fill="#f2f5e9" fill-opacity="0.5" stroke="#606060" stroke-width="1.0"/>
           <path id="arrow"
             d="M 11.500037,31.436501 C 11.940474,20.09759 22.043105,11.32322 32.158766,21.979434 L 37.068811,17.246167 C 37.068811,17.246167 37.088388,32 37.088388,32 L 22.160133,31.978069 C 22.160133,31.978069 26.997745,27.140456 26.997745,27.140456 C 18.528582,18.264221 13.291696,25.230495 11.500037,31.436501 z"
             style="fill:#404040;"/>
          </a>
         </g>
        </svg>
</svg>
