<?xml version="1.0" encoding="UTF-8" standalone="no"?>
<!DOCTYPE svg PUBLIC "-//W3C//DTD SVG 1.1//EN"
 "http://www.w3.org/Graphics/SVG/1.1/DTD/svg11.dtd">
<!-- Generated by graphviz version 2.40.1 (0)
 -->
<!-- Title: math/minuit2/inc/Minuit2/DavidonErrorUpdator.h Pages: 1 -->
<!--zoomable 374 -->
<svg id="main" version="1.1" xmlns="http://www.w3.org/2000/svg" xmlns:xlink="http://www.w3.org/1999/xlink" xml:space="preserve" onload="init(evt)">
<style type="text/css"><![CDATA[
.edge:hover path { stroke: red; }
.edge:hover polygon { stroke: red; fill: red; }
]]></style>
<script type="text/javascript"><![CDATA[
var edges = document.getElementsByTagName('g');
if (edges && edges.length) {
  for (var i=0;i<edges.length;i++) {
    if (edges[i].id.substr(0,4)=='edge') {
      edges[i].setAttribute('class','edge');
    }
  }
}
]]></script>
        <defs>
                <circle id="rim" cx="0" cy="0" r="7"/>
                <circle id="rim2" cx="0" cy="0" r="3.5"/>
                <g id="zoomPlus">
                        <use xlink:href="#rim" fill="#404040">
                                <set attributeName="fill" to="#808080" begin="zoomplus.mouseover" end="zoomplus.mouseout"/>
                        </use>
                        <path d="M-4,0h8M0,-4v8" fill="none" stroke="white" stroke-width="1.5" pointer-events="none"/>
                </g>
                <g id="zoomMin">
                        <use xlink:href="#rim" fill="#404040">
                                <set attributeName="fill" to="#808080" begin="zoomminus.mouseover" end="zoomminus.mouseout"/>
                        </use>
                        <path d="M-4,0h8" fill="none" stroke="white" stroke-width="1.5" pointer-events="none"/>
                </g>
                <g id="dirArrow">
                        <path fill="none" stroke="white" stroke-width="1.5" d="M0,-3.0v7 M-2.5,-0.5L0,-3.0L2.5,-0.5"/>
                </g>
               <g id="resetDef">
                       <use xlink:href="#rim2" fill="#404040">
                               <set attributeName="fill" to="#808080" begin="reset.mouseover" end="reset.mouseout"/>
                       </use>
               </g>
        </defs>

<script type="text/javascript">
var viewWidth = 770;
var viewHeight = 374;
var sectionId = 'dynsection-1';
</script>
<script xlink:href="svgpan.js"/>
<svg id="graph" class="graph">
<g id="viewport">
<title>math/minuit2/inc/Minuit2/DavidonErrorUpdator.h</title>
<polygon fill="#ffffff" stroke="transparent" points="-4,4 -4,-370 765.5,-370 765.5,4 -4,4"/>
<!-- Node2 -->
<g id="node1" class="node">
<title>Node2</title>
<polygon fill="#bfbfbf" stroke="#000000" points="428,-335.5 428,-365.5 567,-365.5 567,-335.5 428,-335.5"/>
<text text-anchor="start" x="436" y="-353.5" font-family="Helvetica,sans-Serif" font-size="10.00" fill="#000000">math/minuit2/inc/Minuit2</text>
<text text-anchor="middle" x="497.5" y="-342.5" font-family="Helvetica,sans-Serif" font-size="10.00" fill="#000000">/DavidonErrorUpdator.h</text>
</g>
<!-- Node3 -->
<g id="node2" class="node">
<title>Node3</title>
<g id="a_node2"><a xlink:href="VariableMetricBuilder_8h.html" target="_top" xlink:title="math/minuit2/inc/Minuit2\l/VariableMetricBuilder.h">
<polygon fill="#ffffff" stroke="#000000" points="349,-268.5 349,-298.5 488,-298.5 488,-268.5 349,-268.5"/>
<text text-anchor="start" x="357" y="-286.5" font-family="Helvetica,sans-Serif" font-size="10.00" fill="#000000">math/minuit2/inc/Minuit2</text>
<text text-anchor="middle" x="418.5" y="-275.5" font-family="Helvetica,sans-Serif" font-size="10.00" fill="#000000">/VariableMetricBuilder.h</text>
</a>
</g>
</g>
<!-- Node2&#45;&gt;Node3 -->
<g id="edge1" class="edge">
<title>Node2&#45;&gt;Node3</title>
<path fill="none" stroke="#191970" d="M471.8908,-328.7808C460.2854,-318.9383 446.8468,-307.541 436.3554,-298.6432"/>
<polygon fill="#191970" stroke="#191970" points="469.6833,-331.4978 479.5737,-335.2967 474.211,-326.1593 469.6833,-331.4978"/>
</g>
<!-- Node14 -->
<g id="node13" class="node">
<title>Node14</title>
<g id="a_node13"><a xlink:href="DavidonErrorUpdator_8cxx.html" target="_top" xlink:title="math/minuit2/src/Davidon\lErrorUpdator.cxx">
<polygon fill="#ffffff" stroke="#000000" points="506,-268.5 506,-298.5 649,-298.5 649,-268.5 506,-268.5"/>
<text text-anchor="start" x="514" y="-286.5" font-family="Helvetica,sans-Serif" font-size="10.00" fill="#000000">math/minuit2/src/Davidon</text>
<text text-anchor="middle" x="577.5" y="-275.5" font-family="Helvetica,sans-Serif" font-size="10.00" fill="#000000">ErrorUpdator.cxx</text>
</a>
</g>
</g>
<!-- Node2&#45;&gt;Node14 -->
<g id="edge14" class="edge">
<title>Node2&#45;&gt;Node14</title>
<path fill="none" stroke="#191970" d="M523.4333,-328.7808C535.1856,-318.9383 548.7944,-307.541 559.4186,-298.6432"/>
<polygon fill="#191970" stroke="#191970" points="521.0725,-326.1927 515.6532,-335.2967 525.567,-331.5592 521.0725,-326.1927"/>
</g>
<!-- Node4 -->
<g id="node3" class="node">
<title>Node4</title>
<g id="a_node3"><a xlink:href="VariableMetricMinimizer_8h.html" target="_top" xlink:title="math/minuit2/inc/Minuit2\l/VariableMetricMinimizer.h">
<polygon fill="#ffffff" stroke="#000000" points="264.5,-201.5 264.5,-231.5 410.5,-231.5 410.5,-201.5 264.5,-201.5"/>
<text text-anchor="start" x="272.5" y="-219.5" font-family="Helvetica,sans-Serif" font-size="10.00" fill="#000000">math/minuit2/inc/Minuit2</text>
<text text-anchor="middle" x="337.5" y="-208.5" font-family="Helvetica,sans-Serif" font-size="10.00" fill="#000000">/VariableMetricMinimizer.h</text>
</a>
</g>
</g>
<!-- Node3&#45;&gt;Node4 -->
<g id="edge2" class="edge">
<title>Node3&#45;&gt;Node4</title>
<path fill="none" stroke="#191970" d="M392.2425,-261.7808C380.3433,-251.9383 366.5644,-240.541 355.8074,-231.6432"/>
<polygon fill="#191970" stroke="#191970" points="390.1835,-264.6198 400.1198,-268.2967 394.6451,-259.2259 390.1835,-264.6198"/>
</g>
<!-- Node13 -->
<g id="node12" class="node">
<title>Node13</title>
<g id="a_node12"><a xlink:href="VariableMetricBuilder_8cxx.html" target="_top" xlink:title="math/minuit2/src/Variable\lMetricBuilder.cxx">
<polygon fill="#ffffff" stroke="#000000" points="429,-201.5 429,-231.5 572,-231.5 572,-201.5 429,-201.5"/>
<text text-anchor="start" x="437" y="-219.5" font-family="Helvetica,sans-Serif" font-size="10.00" fill="#000000">math/minuit2/src/Variable</text>
<text text-anchor="middle" x="500.5" y="-208.5" font-family="Helvetica,sans-Serif" font-size="10.00" fill="#000000">MetricBuilder.cxx</text>
</a>
</g>
</g>
<!-- Node3&#45;&gt;Node13 -->
<g id="edge13" class="edge">
<title>Node3&#45;&gt;Node13</title>
<path fill="none" stroke="#191970" d="M445.0817,-261.7808C457.1278,-251.9383 471.0767,-240.541 481.9666,-231.6432"/>
<polygon fill="#191970" stroke="#191970" points="442.6363,-259.2591 437.1071,-268.2967 447.0654,-264.6797 442.6363,-259.2591"/>
</g>
<!-- Node5 -->
<g id="node4" class="node">
<title>Node5</title>
<g id="a_node4"><a xlink:href="CombinedMinimumBuilder_8h.html" target="_top" xlink:title="math/minuit2/inc/Minuit2\l/CombinedMinimumBuilder.h">
<polygon fill="#ffffff" stroke="#000000" points="151.5,-134.5 151.5,-164.5 309.5,-164.5 309.5,-134.5 151.5,-134.5"/>
<text text-anchor="start" x="159.5" y="-152.5" font-family="Helvetica,sans-Serif" font-size="10.00" fill="#000000">math/minuit2/inc/Minuit2</text>
<text text-anchor="middle" x="230.5" y="-141.5" font-family="Helvetica,sans-Serif" font-size="10.00" fill="#000000">/CombinedMinimumBuilder.h</text>
</a>
</g>
</g>
<!-- Node4&#45;&gt;Node5 -->
<g id="edge3" class="edge">
<title>Node4&#45;&gt;Node5</title>
<path fill="none" stroke="#191970" d="M304.8827,-196.0761C288.755,-185.9774 269.6242,-173.9983 254.803,-164.7177"/>
<polygon fill="#191970" stroke="#191970" points="303.1541,-199.1232 313.4871,-201.4639 306.8691,-193.1903 303.1541,-199.1232"/>
</g>
<!-- Node8 -->
<g id="node7" class="node">
<title>Node8</title>
<g id="a_node7"><a xlink:href="Minuit2Minimizer_8cxx.html" target="_top" xlink:title="math/minuit2/src/Minuit2\lMinimizer.cxx">
<polygon fill="#ffffff" stroke="#000000" points="268,-.5 268,-30.5 407,-30.5 407,-.5 268,-.5"/>
<text text-anchor="start" x="276" y="-18.5" font-family="Helvetica,sans-Serif" font-size="10.00" fill="#000000">math/minuit2/src/Minuit2</text>
<text text-anchor="middle" x="337.5" y="-7.5" font-family="Helvetica,sans-Serif" font-size="10.00" fill="#000000">Minimizer.cxx</text>
</a>
</g>
</g>
<!-- Node4&#45;&gt;Node8 -->
<g id="edge12" class="edge">
<title>Node4&#45;&gt;Node8</title>
<path fill="none" stroke="#191970" d="M337.5,-191.348C337.5,-149.0061 337.5,-64.7637 337.5,-30.5088"/>
<polygon fill="#191970" stroke="#191970" points="334.0001,-191.3923 337.5,-201.3923 341.0001,-191.3924 334.0001,-191.3923"/>
</g>
<!-- Node10 -->
<g id="node9" class="node">
<title>Node10</title>
<g id="a_node9"><a xlink:href="MnMigrad_8h.html" target="_top" xlink:title="math/minuit2/inc/Minuit2\l/MnMigrad.h">
<polygon fill="#ffffff" stroke="#000000" points="395,-134.5 395,-164.5 534,-164.5 534,-134.5 395,-134.5"/>
<text text-anchor="start" x="403" y="-152.5" font-family="Helvetica,sans-Serif" font-size="10.00" fill="#000000">math/minuit2/inc/Minuit2</text>
<text text-anchor="middle" x="464.5" y="-141.5" font-family="Helvetica,sans-Serif" font-size="10.00" fill="#000000">/MnMigrad.h</text>
</a>
</g>
</g>
<!-- Node4&#45;&gt;Node10 -->
<g id="edge8" class="edge">
<title>Node4&#45;&gt;Node10</title>
<path fill="none" stroke="#191970" d="M374.8905,-196.7743C394.3022,-186.5335 417.6556,-174.2132 435.6544,-164.7177"/>
<polygon fill="#191970" stroke="#191970" points="373.2128,-193.7021 366.0013,-201.4639 376.4791,-199.8934 373.2128,-193.7021"/>
</g>
<!-- Node6 -->
<g id="node5" class="node">
<title>Node6</title>
<g id="a_node5"><a xlink:href="CombinedMinimizer_8h.html" target="_top" xlink:title="math/minuit2/inc/Minuit2\l/CombinedMinimizer.h">
<polygon fill="#ffffff" stroke="#000000" points="0,-67.5 0,-97.5 139,-97.5 139,-67.5 0,-67.5"/>
<text text-anchor="start" x="8" y="-85.5" font-family="Helvetica,sans-Serif" font-size="10.00" fill="#000000">math/minuit2/inc/Minuit2</text>
<text text-anchor="middle" x="69.5" y="-74.5" font-family="Helvetica,sans-Serif" font-size="10.00" fill="#000000">/CombinedMinimizer.h</text>
</a>
</g>
</g>
<!-- Node5&#45;&gt;Node6 -->
<g id="edge4" class="edge">
<title>Node5&#45;&gt;Node6</title>
<path fill="none" stroke="#191970" d="M185.0587,-130.5897C159.9767,-120.1518 129.2512,-107.3654 105.7891,-97.6017"/>
<polygon fill="#191970" stroke="#191970" points="183.7912,-133.8531 194.3685,-134.4639 186.4807,-127.3904 183.7912,-133.8531"/>
</g>
<!-- Node9 -->
<g id="node8" class="node">
<title>Node9</title>
<g id="a_node8"><a xlink:href="CombinedMinimumBuilder_8cxx.html" target="_top" xlink:title="math/minuit2/src/Combined\lMinimumBuilder.cxx">
<polygon fill="#ffffff" stroke="#000000" points="157.5,-67.5 157.5,-97.5 309.5,-97.5 309.5,-67.5 157.5,-67.5"/>
<text text-anchor="start" x="165.5" y="-85.5" font-family="Helvetica,sans-Serif" font-size="10.00" fill="#000000">math/minuit2/src/Combined</text>
<text text-anchor="middle" x="233.5" y="-74.5" font-family="Helvetica,sans-Serif" font-size="10.00" fill="#000000">MinimumBuilder.cxx</text>
</a>
</g>
</g>
<!-- Node5&#45;&gt;Node9 -->
<g id="edge7" class="edge">
<title>Node5&#45;&gt;Node9</title>
<path fill="none" stroke="#191970" d="M231.6407,-124.0249C232.039,-115.128 232.4733,-105.4287 232.8219,-97.6432"/>
<polygon fill="#191970" stroke="#191970" points="228.1317,-124.1501 231.1807,-134.2967 235.1246,-124.4633 228.1317,-124.1501"/>
</g>
<!-- Node7 -->
<g id="node6" class="node">
<title>Node7</title>
<g id="a_node6"><a xlink:href="MnMinimize_8h.html" target="_top" xlink:title="math/minuit2/inc/Minuit2\l/MnMinimize.h">
<polygon fill="#ffffff" stroke="#000000" points="0,-.5 0,-30.5 139,-30.5 139,-.5 0,-.5"/>
<text text-anchor="start" x="8" y="-18.5" font-family="Helvetica,sans-Serif" font-size="10.00" fill="#000000">math/minuit2/inc/Minuit2</text>
<text text-anchor="middle" x="69.5" y="-7.5" font-family="Helvetica,sans-Serif" font-size="10.00" fill="#000000">/MnMinimize.h</text>
</a>
</g>
</g>
<!-- Node6&#45;&gt;Node7 -->
<g id="edge5" class="edge">
<title>Node6&#45;&gt;Node7</title>
<path fill="none" stroke="#191970" d="M69.5,-57.0249C69.5,-48.128 69.5,-38.4287 69.5,-30.6432"/>
<polygon fill="#191970" stroke="#191970" points="66.0001,-57.2966 69.5,-67.2967 73.0001,-57.2967 66.0001,-57.2966"/>
</g>
<!-- Node6&#45;&gt;Node8 -->
<g id="edge6" class="edge">
<title>Node6&#45;&gt;Node8</title>
<path fill="none" stroke="#191970" d="M139.4101,-65.0225C182.1355,-54.3411 236.2318,-40.8171 277.0932,-30.6017"/>
<polygon fill="#191970" stroke="#191970" points="138.497,-61.643 129.6444,-67.4639 140.1948,-68.434 138.497,-61.643"/>
</g>
<!-- Node10&#45;&gt;Node8 -->
<g id="edge9" class="edge">
<title>Node10&#45;&gt;Node8</title>
<path fill="none" stroke="#191970" d="M431.6186,-128.702C419.2439,-120.035 405.5146,-109.3466 394.5,-98 374.1285,-77.0144 355.9467,-48.0426 345.854,-30.6042"/>
<polygon fill="#191970" stroke="#191970" points="429.6855,-131.6201 439.9192,-134.3626 433.6293,-125.8368 429.6855,-131.6201"/>
</g>
<!-- Node11 -->
<g id="node10" class="node">
<title>Node11</title>
<g id="a_node10"><a xlink:href="MnContours_8cxx.html" target="_top" xlink:title="math/minuit2/src/MnContours.cxx">
<polygon fill="#ffffff" stroke="#000000" points="404,-73 404,-92 585,-92 585,-73 404,-73"/>
<text text-anchor="middle" x="494.5" y="-80" font-family="Helvetica,sans-Serif" font-size="10.00" fill="#000000">math/minuit2/src/MnContours.cxx</text>
</a>
</g>
</g>
<!-- Node10&#45;&gt;Node11 -->
<g id="edge10" class="edge">
<title>Node10&#45;&gt;Node11</title>
<path fill="none" stroke="#191970" d="M475.4001,-125.1564C480.5367,-113.6846 486.3681,-100.6613 490.2217,-92.055"/>
<polygon fill="#191970" stroke="#191970" points="472.1998,-123.7395 471.3075,-134.2967 478.5886,-126.6002 472.1998,-123.7395"/>
</g>
<!-- Node12 -->
<g id="node11" class="node">
<title>Node12</title>
<g id="a_node11"><a xlink:href="MnFunctionCross_8cxx.html" target="_top" xlink:title="math/minuit2/src/MnFunction\lCross.cxx">
<polygon fill="#ffffff" stroke="#000000" points="603.5,-67.5 603.5,-97.5 761.5,-97.5 761.5,-67.5 603.5,-67.5"/>
<text text-anchor="start" x="611.5" y="-85.5" font-family="Helvetica,sans-Serif" font-size="10.00" fill="#000000">math/minuit2/src/MnFunction</text>
<text text-anchor="middle" x="682.5" y="-74.5" font-family="Helvetica,sans-Serif" font-size="10.00" fill="#000000">Cross.cxx</text>
</a>
</g>
</g>
<!-- Node10&#45;&gt;Node12 -->
<g id="edge11" class="edge">
<title>Node10&#45;&gt;Node12</title>
<path fill="none" stroke="#191970" d="M523.3525,-131.4123C557.7851,-120.8298 600.7549,-107.6235 633.3632,-97.6017"/>
<polygon fill="#191970" stroke="#191970" points="521.954,-128.1805 513.4235,-134.4639 524.0104,-134.8716 521.954,-128.1805"/>
</g>
</g>
</svg>
        <g id="navigator" transform="translate(0 0)" fill="#404254">
                <rect fill="#f2f5e9" fill-opacity="0.5" stroke="#606060" stroke-width=".5" x="0" y="0" width="60" height="60"/>
                <use id="zoomplus" xlink:href="#zoomPlus" x="17" y="9" onmousedown="handleZoom(evt,'in')"/>
                <use id="zoomminus" xlink:href="#zoomMin" x="42" y="9" onmousedown="handleZoom(evt,'out')"/>
                <use id="reset" xlink:href="#resetDef" x="30" y="36" onmousedown="handleReset()"/>
                <g id="arrowUp" xlink:href="#dirArrow" transform="translate(30 24)" onmousedown="handlePan(0,-1)">
                  <use xlink:href="#rim" fill="#404040">
                        <set attributeName="fill" to="#808080" begin="arrowUp.mouseover" end="arrowUp.mouseout"/>
                  </use>
                  <path fill="none" stroke="white" stroke-width="1.5" d="M0,-3.0v7 M-2.5,-0.5L0,-3.0L2.5,-0.5"/>
                </g>
                <g id="arrowRight" xlink:href="#dirArrow" transform="rotate(90) translate(36 -43)" onmousedown="handlePan(1,0)">
                  <use xlink:href="#rim" fill="#404040">
                        <set attributeName="fill" to="#808080" begin="arrowRight.mouseover" end="arrowRight.mouseout"/>
                  </use>
                  <path fill="none" stroke="white" stroke-width="1.5" d="M0,-3.0v7 M-2.5,-0.5L0,-3.0L2.5,-0.5"/>
                </g>
                <g id="arrowDown" xlink:href="#dirArrow" transform="rotate(180) translate(-30 -48)" onmousedown="handlePan(0,1)">
                  <use xlink:href="#rim" fill="#404040">
                        <set attributeName="fill" to="#808080" begin="arrowDown.mouseover" end="arrowDown.mouseout"/>
                  </use>
                  <path fill="none" stroke="white" stroke-width="1.5" d="M0,-3.0v7 M-2.5,-0.5L0,-3.0L2.5,-0.5"/>
                </g>
                <g id="arrowLeft" xlink:href="#dirArrow" transform="rotate(270) translate(-36 17)" onmousedown="handlePan(-1,0)">
                  <use xlink:href="#rim" fill="#404040">
                        <set attributeName="fill" to="#808080" begin="arrowLeft.mouseover" end="arrowLeft.mouseout"/>
                  </use>
                  <path fill="none" stroke="white" stroke-width="1.5" d="M0,-3.0v7 M-2.5,-0.5L0,-3.0L2.5,-0.5"/>
                </g>
        </g>
        <svg viewBox="0 0 15 15" width="100%" height="30px" preserveAspectRatio="xMaxYMin meet">
         <g id="arrow_out" transform="scale(0.3 0.3)">
          <a xlink:href="DavidonErrorUpdator_8h__dep__incl_org.svg" target="_base">
           <rect id="button" ry="5" rx="5" y="6" x="6" height="38" width="38"
                fill="#f2f5e9" fill-opacity="0.5" stroke="#606060" stroke-width="1.0"/>
           <path id="arrow"
             d="M 11.500037,31.436501 C 11.940474,20.09759 22.043105,11.32322 32.158766,21.979434 L 37.068811,17.246167 C 37.068811,17.246167 37.088388,32 37.088388,32 L 22.160133,31.978069 C 22.160133,31.978069 26.997745,27.140456 26.997745,27.140456 C 18.528582,18.264221 13.291696,25.230495 11.500037,31.436501 z"
             style="fill:#404040;"/>
          </a>
         </g>
        </svg>
</svg>
