<?xml version="1.0" encoding="UTF-8" standalone="no"?>
<!DOCTYPE svg PUBLIC "-//W3C//DTD SVG 1.1//EN"
 "http://www.w3.org/Graphics/SVG/1.1/DTD/svg11.dtd">
<!-- Generated by graphviz version 2.40.1 (0)
 -->
<!-- Title: tmva/tmva/inc/TMVA/DecisionTreeNode.h Pages: 1 -->
<svg width="2325pt" height="441pt"
 viewBox="0.00 0.00 2325.26 441.00" xmlns="http://www.w3.org/2000/svg" xmlns:xlink="http://www.w3.org/1999/xlink">
<g id="graph0" class="graph" transform="scale(1 1) rotate(0) translate(4 437)">
<title>tmva/tmva/inc/TMVA/DecisionTreeNode.h</title>
<polygon fill="#ffffff" stroke="transparent" points="-4,4 -4,-437 2321.2648,-437 2321.2648,4 -4,4"/>
<!-- Node26 -->
<g id="node1" class="node">
<title>Node26</title>
<polygon fill="#bfbfbf" stroke="#000000" points="1383.5168,-402.5 1383.5168,-432.5 1501.5168,-432.5 1501.5168,-402.5 1383.5168,-402.5"/>
<text text-anchor="start" x="1391.5168" y="-420.5" font-family="Helvetica,sans-Serif" font-size="10.00" fill="#000000">tmva/tmva/inc/TMVA</text>
<text text-anchor="middle" x="1442.5168" y="-409.5" font-family="Helvetica,sans-Serif" font-size="10.00" fill="#000000">/DecisionTreeNode.h</text>
</g>
<!-- Node27 -->
<g id="node2" class="node">
<title>Node27</title>
<g id="a_node2"><a xlink:href="DecisionTree_8h.html" target="_top" xlink:title="tmva/tmva/inc/TMVA\l/DecisionTree.h">
<polygon fill="#ffffff" stroke="#000000" points="1383.5168,-335.5 1383.5168,-365.5 1501.5168,-365.5 1501.5168,-335.5 1383.5168,-335.5"/>
<text text-anchor="start" x="1391.5168" y="-353.5" font-family="Helvetica,sans-Serif" font-size="10.00" fill="#000000">tmva/tmva/inc/TMVA</text>
<text text-anchor="middle" x="1442.5168" y="-342.5" font-family="Helvetica,sans-Serif" font-size="10.00" fill="#000000">/DecisionTree.h</text>
</a>
</g>
</g>
<!-- Node26&#45;&gt;Node27 -->
<g id="edge1" class="edge">
<title>Node26&#45;&gt;Node27</title>
<path fill="none" stroke="#191970" d="M1442.5168,-392.0249C1442.5168,-383.128 1442.5168,-373.4287 1442.5168,-365.6432"/>
<polygon fill="#191970" stroke="#191970" points="1439.0169,-392.2966 1442.5168,-402.2967 1446.0169,-392.2967 1439.0169,-392.2966"/>
</g>
<!-- Node35 -->
<g id="node10" class="node">
<title>Node35</title>
<g id="a_node10"><a xlink:href="DecisionTree_8cxx.html" target="_top" xlink:title="tmva/tmva/src/DecisionTree.cxx">
<polygon fill="#ffffff" stroke="#000000" points="724.0168,-140 724.0168,-159 897.0168,-159 897.0168,-140 724.0168,-140"/>
<text text-anchor="middle" x="810.5168" y="-147" font-family="Helvetica,sans-Serif" font-size="10.00" fill="#000000">tmva/tmva/src/DecisionTree.cxx</text>
</a>
</g>
</g>
<!-- Node26&#45;&gt;Node35 -->
<g id="edge62" class="edge">
<title>Node26&#45;&gt;Node35</title>
<path fill="none" stroke="#191970" d="M1373.0118,-413.7791C1141.8481,-400.9752 400.4029,-356.3496 168.5168,-299 92.8809,-280.2939 49.8215,-296.7721 6.5168,-232 -1.1408,-220.5463 -2.909,-211.0489 6.5168,-201 30.7681,-175.1456 520.916,-157.9407 723.7759,-151.9019"/>
<polygon fill="#191970" stroke="#191970" points="1373.1274,-417.2907 1383.305,-414.3468 1373.513,-410.3013 1373.1274,-417.2907"/>
</g>
<!-- Node58 -->
<g id="node33" class="node">
<title>Node58</title>
<g id="a_node33"><a xlink:href="DecisionTreeNode_8cxx.html" target="_top" xlink:title="tmva/tmva/src/DecisionTree\lNode.cxx">
<polygon fill="#ffffff" stroke="#000000" points="1520.0168,-335.5 1520.0168,-365.5 1673.0168,-365.5 1673.0168,-335.5 1520.0168,-335.5"/>
<text text-anchor="start" x="1528.0168" y="-353.5" font-family="Helvetica,sans-Serif" font-size="10.00" fill="#000000">tmva/tmva/src/DecisionTree</text>
<text text-anchor="middle" x="1596.5168" y="-342.5" font-family="Helvetica,sans-Serif" font-size="10.00" fill="#000000">Node.cxx</text>
</a>
</g>
</g>
<!-- Node26&#45;&gt;Node58 -->
<g id="edge63" class="edge">
<title>Node26&#45;&gt;Node58</title>
<path fill="none" stroke="#191970" d="M1486.2998,-398.4516C1510.2327,-388.0392 1539.4623,-375.3224 1561.8055,-365.6017"/>
<polygon fill="#191970" stroke="#191970" points="1484.8509,-395.265 1477.0774,-402.4639 1487.6435,-401.6838 1484.8509,-395.265"/>
</g>
<!-- Node28 -->
<g id="node3" class="node">
<title>Node28</title>
<g id="a_node3"><a xlink:href="CCPruner_8h.html" target="_top" xlink:title="tmva/tmva/inc/TMVA\l/CCPruner.h">
<polygon fill="#ffffff" stroke="#000000" points="412.5168,-268.5 412.5168,-298.5 530.5168,-298.5 530.5168,-268.5 412.5168,-268.5"/>
<text text-anchor="start" x="420.5168" y="-286.5" font-family="Helvetica,sans-Serif" font-size="10.00" fill="#000000">tmva/tmva/inc/TMVA</text>
<text text-anchor="middle" x="471.5168" y="-275.5" font-family="Helvetica,sans-Serif" font-size="10.00" fill="#000000">/CCPruner.h</text>
</a>
</g>
</g>
<!-- Node27&#45;&gt;Node28 -->
<g id="edge2" class="edge">
<title>Node27&#45;&gt;Node28</title>
<path fill="none" stroke="#191970" d="M1373.2733,-349.7043C1222.9156,-347.2755 855.5306,-337.5455 550.5168,-299 544.1382,-298.1939 537.5012,-297.1771 530.9046,-296.0512"/>
<polygon fill="#191970" stroke="#191970" points="1373.2372,-353.2041 1383.2905,-349.8604 1373.3463,-346.2049 1373.2372,-353.2041"/>
</g>
<!-- Node30 -->
<g id="node5" class="node">
<title>Node30</title>
<g id="a_node5"><a xlink:href="MethodDT_8cxx.html" target="_top" xlink:title="tmva/tmva/src/MethodDT.cxx">
<polygon fill="#ffffff" stroke="#000000" points="392.0168,-207 392.0168,-226 551.0168,-226 551.0168,-207 392.0168,-207"/>
<text text-anchor="middle" x="471.5168" y="-214" font-family="Helvetica,sans-Serif" font-size="10.00" fill="#000000">tmva/tmva/src/MethodDT.cxx</text>
</a>
</g>
</g>
<!-- Node27&#45;&gt;Node30 -->
<g id="edge50" class="edge">
<title>Node27&#45;&gt;Node30</title>
<path fill="none" stroke="#191970" d="M1373.2107,-348.4979C1182.9208,-342.695 661.6362,-324.6345 588.5168,-299 576.7894,-294.8886 511.9749,-246.8472 484.1798,-226.0259"/>
<polygon fill="#191970" stroke="#191970" points="1373.2716,-352.0013 1383.373,-348.8057 1373.4836,-345.0045 1373.2716,-352.0013"/>
</g>
<!-- Node31 -->
<g id="node6" class="node">
<title>Node31</title>
<g id="a_node6"><a xlink:href="CCTreeWrapper_8h.html" target="_top" xlink:title="tmva/tmva/inc/TMVA\l/CCTreeWrapper.h">
<polygon fill="#ffffff" stroke="#000000" points="237.5168,-268.5 237.5168,-298.5 355.5168,-298.5 355.5168,-268.5 237.5168,-268.5"/>
<text text-anchor="start" x="245.5168" y="-286.5" font-family="Helvetica,sans-Serif" font-size="10.00" fill="#000000">tmva/tmva/inc/TMVA</text>
<text text-anchor="middle" x="296.5168" y="-275.5" font-family="Helvetica,sans-Serif" font-size="10.00" fill="#000000">/CCTreeWrapper.h</text>
</a>
</g>
</g>
<!-- Node27&#45;&gt;Node31 -->
<g id="edge5" class="edge">
<title>Node27&#45;&gt;Node31</title>
<path fill="none" stroke="#191970" d="M1373.3721,-349.3251C1206.3446,-345.9966 767.7684,-334.3307 403.5168,-299 387.9168,-297.4869 371.1099,-295.3118 355.543,-293.0676"/>
<polygon fill="#191970" stroke="#191970" points="1373.4365,-352.8269 1383.5031,-349.5233 1373.5735,-345.8282 1373.4365,-352.8269"/>
</g>
<!-- Node32 -->
<g id="node7" class="node">
<title>Node32</title>
<g id="a_node7"><a xlink:href="CCTreeWrapper_8cxx.html" target="_top" xlink:title="tmva/tmva/src/CCTreeWrapper.cxx">
<polygon fill="#ffffff" stroke="#000000" points="16.0168,-207 16.0168,-226 201.0168,-226 201.0168,-207 16.0168,-207"/>
<text text-anchor="middle" x="108.5168" y="-214" font-family="Helvetica,sans-Serif" font-size="10.00" fill="#000000">tmva/tmva/src/CCTreeWrapper.cxx</text>
</a>
</g>
</g>
<!-- Node27&#45;&gt;Node32 -->
<g id="edge45" class="edge">
<title>Node27&#45;&gt;Node32</title>
<path fill="none" stroke="#191970" d="M1373.3393,-349.7936C1132.1243,-347.024 336.9456,-335.2142 228.5168,-299 182.2359,-283.5426 137.5329,-244.5012 118.3336,-226.2216"/>
<polygon fill="#191970" stroke="#191970" points="1373.3479,-353.2938 1383.3869,-349.9073 1373.4272,-346.2942 1373.3479,-353.2938"/>
</g>
<!-- Node33 -->
<g id="node8" class="node">
<title>Node33</title>
<g id="a_node8"><a xlink:href="CostComplexityPruneTool_8h.html" target="_top" xlink:title="tmva/tmva/inc/TMVA\l/CostComplexityPruneTool.h">
<polygon fill="#ffffff" stroke="#000000" points="1038.5168,-201.5 1038.5168,-231.5 1192.5168,-231.5 1192.5168,-201.5 1038.5168,-201.5"/>
<text text-anchor="start" x="1046.5168" y="-219.5" font-family="Helvetica,sans-Serif" font-size="10.00" fill="#000000">tmva/tmva/inc/TMVA</text>
<text text-anchor="middle" x="1115.5168" y="-208.5" font-family="Helvetica,sans-Serif" font-size="10.00" fill="#000000">/CostComplexityPruneTool.h</text>
</a>
</g>
</g>
<!-- Node27&#45;&gt;Node33 -->
<g id="edge8" class="edge">
<title>Node27&#45;&gt;Node33</title>
<path fill="none" stroke="#191970" d="M1373.2525,-344.9257C1324.4352,-338.7737 1258.7252,-325.8922 1206.5168,-299 1173.7202,-282.1067 1143.6924,-250.3696 1127.6687,-231.5659"/>
<polygon fill="#191970" stroke="#191970" points="1373.0574,-348.4272 1383.4022,-346.139 1373.8883,-341.4767 1373.0574,-348.4272"/>
</g>
<!-- Node34 -->
<g id="node9" class="node">
<title>Node34</title>
<g id="a_node9"><a xlink:href="CostComplexityPruneTool_8cxx.html" target="_top" xlink:title="tmva/tmva/src/CostComplexity\lPruneTool.cxx">
<polygon fill="#ffffff" stroke="#000000" points="1166.0168,-134.5 1166.0168,-164.5 1335.0168,-164.5 1335.0168,-134.5 1166.0168,-134.5"/>
<text text-anchor="start" x="1174.0168" y="-152.5" font-family="Helvetica,sans-Serif" font-size="10.00" fill="#000000">tmva/tmva/src/CostComplexity</text>
<text text-anchor="middle" x="1250.5168" y="-141.5" font-family="Helvetica,sans-Serif" font-size="10.00" fill="#000000">PruneTool.cxx</text>
</a>
</g>
</g>
<!-- Node27&#45;&gt;Node34 -->
<g id="edge46" class="edge">
<title>Node27&#45;&gt;Node34</title>
<path fill="none" stroke="#191970" d="M1446.9652,-325.1591C1451.1639,-292.4904 1453.0318,-235.7627 1423.5168,-201 1410.8911,-186.1295 1369.6288,-173.5423 1330.5696,-164.5347"/>
<polygon fill="#191970" stroke="#191970" points="1443.4736,-324.8488 1445.494,-335.2492 1450.4003,-325.8589 1443.4736,-324.8488"/>
</g>
<!-- Node27&#45;&gt;Node35 -->
<g id="edge47" class="edge">
<title>Node27&#45;&gt;Node35</title>
<path fill="none" stroke="#191970" d="M1373.4861,-346.518C1255.8324,-339.2099 1021.5233,-322.2469 942.5168,-299 879.401,-280.4288 844.9361,-288.0697 810.5168,-232 796.4297,-209.0518 803.033,-175.316 807.535,-159.013"/>
<polygon fill="#191970" stroke="#191970" points="1373.2733,-350.0114 1383.4694,-347.1323 1373.7033,-343.0246 1373.2733,-350.0114"/>
</g>
<!-- Node36 -->
<g id="node11" class="node">
<title>Node36</title>
<g id="a_node11"><a xlink:href="IPruneTool_8h.html" target="_top" xlink:title="tmva/tmva/inc/TMVA\l/IPruneTool.h">
<polygon fill="#ffffff" stroke="#000000" points="951.5168,-268.5 951.5168,-298.5 1069.5168,-298.5 1069.5168,-268.5 951.5168,-268.5"/>
<text text-anchor="start" x="959.5168" y="-286.5" font-family="Helvetica,sans-Serif" font-size="10.00" fill="#000000">tmva/tmva/inc/TMVA</text>
<text text-anchor="middle" x="1010.5168" y="-275.5" font-family="Helvetica,sans-Serif" font-size="10.00" fill="#000000">/IPruneTool.h</text>
</a>
</g>
</g>
<!-- Node27&#45;&gt;Node36 -->
<g id="edge11" class="edge">
<title>Node27&#45;&gt;Node36</title>
<path fill="none" stroke="#191970" d="M1373.3921,-339.7793C1289.341,-326.7436 1148.9178,-304.965 1069.6558,-292.672"/>
<polygon fill="#191970" stroke="#191970" points="1372.9366,-343.2504 1383.3549,-341.3244 1374.0094,-336.3331 1372.9366,-343.2504"/>
</g>
<!-- Node38 -->
<g id="node13" class="node">
<title>Node38</title>
<g id="a_node13"><a xlink:href="ExpectedErrorPruneTool_8cxx.html" target="_top" xlink:title="tmva/tmva/src/ExpectedError\lPruneTool.cxx">
<polygon fill="#ffffff" stroke="#000000" points="931.0168,-134.5 931.0168,-164.5 1090.0168,-164.5 1090.0168,-134.5 931.0168,-134.5"/>
<text text-anchor="start" x="939.0168" y="-152.5" font-family="Helvetica,sans-Serif" font-size="10.00" fill="#000000">tmva/tmva/src/ExpectedError</text>
<text text-anchor="middle" x="1010.5168" y="-141.5" font-family="Helvetica,sans-Serif" font-size="10.00" fill="#000000">PruneTool.cxx</text>
</a>
</g>
</g>
<!-- Node27&#45;&gt;Node38 -->
<g id="edge48" class="edge">
<title>Node27&#45;&gt;Node38</title>
<path fill="none" stroke="#191970" d="M1373.4391,-338.5124C1342.4645,-330.794 1306.6547,-318.4387 1278.5168,-299 1232.9428,-267.5158 1247.7251,-231.5457 1201.5168,-201 1168.426,-179.1256 1126.3153,-166.5063 1090.0595,-159.2434"/>
<polygon fill="#191970" stroke="#191970" points="1372.7717,-341.9512 1383.3101,-340.8585 1374.3905,-335.1409 1372.7717,-341.9512"/>
</g>
<!-- Node39 -->
<g id="node14" class="node">
<title>Node39</title>
<g id="a_node14"><a xlink:href="MethodBDT_8h.html" target="_top" xlink:title="tmva/tmva/inc/TMVA\l/MethodBDT.h">
<polygon fill="#ffffff" stroke="#000000" points="1296.5168,-268.5 1296.5168,-298.5 1414.5168,-298.5 1414.5168,-268.5 1296.5168,-268.5"/>
<text text-anchor="start" x="1304.5168" y="-286.5" font-family="Helvetica,sans-Serif" font-size="10.00" fill="#000000">tmva/tmva/inc/TMVA</text>
<text text-anchor="middle" x="1355.5168" y="-275.5" font-family="Helvetica,sans-Serif" font-size="10.00" fill="#000000">/MethodBDT.h</text>
</a>
</g>
</g>
<!-- Node27&#45;&gt;Node39 -->
<g id="edge18" class="edge">
<title>Node27&#45;&gt;Node39</title>
<path fill="none" stroke="#191970" d="M1414.6824,-329.0643C1401.8186,-319.1577 1386.8453,-307.6265 1375.1803,-298.6432"/>
<polygon fill="#191970" stroke="#191970" points="1412.7167,-331.9681 1422.7752,-335.2967 1416.9878,-326.4221 1412.7167,-331.9681"/>
</g>
<!-- Node40 -->
<g id="node15" class="node">
<title>Node40</title>
<g id="a_node15"><a xlink:href="MethodBDT_8cxx.html" target="_top" xlink:title="tmva/tmva/src/MethodBDT.cxx">
<polygon fill="#ffffff" stroke="#000000" points="1248.5168,-207 1248.5168,-226 1414.5168,-226 1414.5168,-207 1248.5168,-207"/>
<text text-anchor="middle" x="1331.5168" y="-214" font-family="Helvetica,sans-Serif" font-size="10.00" fill="#000000">tmva/tmva/src/MethodBDT.cxx</text>
</a>
</g>
</g>
<!-- Node27&#45;&gt;Node40 -->
<g id="edge49" class="edge">
<title>Node27&#45;&gt;Node40</title>
<path fill="none" stroke="#191970" d="M1373.3407,-335.8796C1337.1433,-326.6779 1298.1706,-313.7662 1287.5168,-299 1269.851,-274.5149 1301.0831,-242.0586 1319.484,-226.1397"/>
<polygon fill="#191970" stroke="#191970" points="1372.9035,-339.3766 1383.4508,-338.375 1374.5809,-332.5806 1372.9035,-339.3766"/>
</g>
<!-- Node41 -->
<g id="node16" class="node">
<title>Node41</title>
<g id="a_node16"><a xlink:href="MethodDT_8h.html" target="_top" xlink:title="tmva/tmva/inc/TMVA\l/MethodDT.h">
<polygon fill="#ffffff" stroke="#000000" points="597.5168,-268.5 597.5168,-298.5 715.5168,-298.5 715.5168,-268.5 597.5168,-268.5"/>
<text text-anchor="start" x="605.5168" y="-286.5" font-family="Helvetica,sans-Serif" font-size="10.00" fill="#000000">tmva/tmva/inc/TMVA</text>
<text text-anchor="middle" x="656.5168" y="-275.5" font-family="Helvetica,sans-Serif" font-size="10.00" fill="#000000">/MethodDT.h</text>
</a>
</g>
</g>
<!-- Node27&#45;&gt;Node41 -->
<g id="edge20" class="edge">
<title>Node27&#45;&gt;Node41</title>
<path fill="none" stroke="#191970" d="M1373.2752,-347.0224C1249.5948,-340.4242 982.6573,-324.4314 758.5168,-299 744.6348,-297.4249 729.743,-295.3707 715.7456,-293.2756"/>
<polygon fill="#191970" stroke="#191970" points="1373.1911,-350.5228 1383.3622,-347.5566 1373.5614,-343.5326 1373.1911,-350.5228"/>
</g>
<!-- Node43 -->
<g id="node18" class="node">
<title>Node43</title>
<g id="a_node18"><a xlink:href="MethodRuleFit_8h.html" target="_top" xlink:title="tmva/tmva/inc/TMVA\l/MethodRuleFit.h">
<polygon fill="#ffffff" stroke="#000000" points="1600.5168,-67.5 1600.5168,-97.5 1718.5168,-97.5 1718.5168,-67.5 1600.5168,-67.5"/>
<text text-anchor="start" x="1608.5168" y="-85.5" font-family="Helvetica,sans-Serif" font-size="10.00" fill="#000000">tmva/tmva/inc/TMVA</text>
<text text-anchor="middle" x="1659.5168" y="-74.5" font-family="Helvetica,sans-Serif" font-size="10.00" fill="#000000">/MethodRuleFit.h</text>
</a>
</g>
</g>
<!-- Node27&#45;&gt;Node43 -->
<g id="edge23" class="edge">
<title>Node27&#45;&gt;Node43</title>
<path fill="none" stroke="#191970" d="M1466.3413,-328.2673C1475.4441,-319.4263 1485.7387,-308.9939 1494.5168,-299 1557.5147,-227.2767 1623.8263,-133.9446 1648.9984,-97.7614"/>
<polygon fill="#191970" stroke="#191970" points="1463.8292,-325.8271 1459.0346,-335.275 1468.6745,-330.8791 1463.8292,-325.8271"/>
</g>
<!-- Node44 -->
<g id="node19" class="node">
<title>Node44</title>
<g id="a_node19"><a xlink:href="MethodRuleFit_8cxx.html" target="_top" xlink:title="tmva/tmva/src/MethodRule\lFit.cxx">
<polygon fill="#ffffff" stroke="#000000" points="1173.5168,-.5 1173.5168,-30.5 1321.5168,-30.5 1321.5168,-.5 1173.5168,-.5"/>
<text text-anchor="start" x="1181.5168" y="-18.5" font-family="Helvetica,sans-Serif" font-size="10.00" fill="#000000">tmva/tmva/src/MethodRule</text>
<text text-anchor="middle" x="1247.5168" y="-7.5" font-family="Helvetica,sans-Serif" font-size="10.00" fill="#000000">Fit.cxx</text>
</a>
</g>
</g>
<!-- Node27&#45;&gt;Node44 -->
<g id="edge51" class="edge">
<title>Node27&#45;&gt;Node44</title>
<path fill="none" stroke="#191970" d="M1454.7478,-326.0361C1458.3124,-317.6746 1461.7277,-308.126 1463.5168,-299 1472.0214,-255.6198 1469.0355,-239.0405 1446.5168,-201 1400.6833,-123.5741 1312.8676,-58.66 1270.9312,-30.5108"/>
<polygon fill="#191970" stroke="#191970" points="1451.5298,-324.6577 1450.5831,-335.2101 1457.9038,-327.5513 1451.5298,-324.6577"/>
</g>
<!-- Node46 -->
<g id="node21" class="node">
<title>Node46</title>
<g id="a_node21"><a xlink:href="RuleEnsemble_8cxx.html" target="_top" xlink:title="tmva/tmva/src/RuleEnsemble.cxx">
<polygon fill="#ffffff" stroke="#000000" points="1864.5168,-6 1864.5168,-25 2044.5168,-25 2044.5168,-6 1864.5168,-6"/>
<text text-anchor="middle" x="1954.5168" y="-13" font-family="Helvetica,sans-Serif" font-size="10.00" fill="#000000">tmva/tmva/src/RuleEnsemble.cxx</text>
</a>
</g>
</g>
<!-- Node27&#45;&gt;Node46 -->
<g id="edge53" class="edge">
<title>Node27&#45;&gt;Node46</title>
<path fill="none" stroke="#191970" d="M1511.7009,-335.0998C1606.6264,-323.0725 1810.0251,-338.9263 1878.5168,-299 1917.2391,-276.4274 1936.5168,-261.3212 1936.5168,-216.5 1936.5168,-216.5 1936.5168,-216.5 1936.5168,-149.5 1936.5168,-102.5543 1947.5031,-47.1742 1952.3097,-25.1918"/>
<polygon fill="#191970" stroke="#191970" points="1511.1675,-331.6404 1501.7683,-336.5296 1512.165,-338.569 1511.1675,-331.6404"/>
</g>
<!-- Node47 -->
<g id="node22" class="node">
<title>Node47</title>
<g id="a_node22"><a xlink:href="RuleFit_8cxx.html" target="_top" xlink:title="tmva/tmva/src/RuleFit.cxx">
<polygon fill="#ffffff" stroke="#000000" points="2063.0168,-6 2063.0168,-25 2206.0168,-25 2206.0168,-6 2063.0168,-6"/>
<text text-anchor="middle" x="2134.5168" y="-13" font-family="Helvetica,sans-Serif" font-size="10.00" fill="#000000">tmva/tmva/src/RuleFit.cxx</text>
</a>
</g>
</g>
<!-- Node27&#45;&gt;Node47 -->
<g id="edge54" class="edge">
<title>Node27&#45;&gt;Node47</title>
<path fill="none" stroke="#191970" d="M1511.9282,-335.0741C1614.813,-322.3679 1837.7202,-341.5574 1913.5168,-299 1953.2791,-276.6747 1974.5168,-262.1011 1974.5168,-216.5 1974.5168,-216.5 1974.5168,-216.5 1974.5168,-149.5 1974.5168,-82.2882 2058.5262,-42.1231 2104.797,-25.0983"/>
<polygon fill="#191970" stroke="#191970" points="1511.1804,-331.6446 1501.7635,-336.4998 1512.1528,-338.5768 1511.1804,-331.6446"/>
</g>
<!-- Node50 -->
<g id="node25" class="node">
<title>Node50</title>
<g id="a_node25"><a xlink:href="Rule_8h.html" target="_top" xlink:title="tmva/tmva/inc/TMVA\l/Rule.h">
<polygon fill="#ffffff" stroke="#000000" points="1546.5168,-268.5 1546.5168,-298.5 1664.5168,-298.5 1664.5168,-268.5 1546.5168,-268.5"/>
<text text-anchor="start" x="1554.5168" y="-286.5" font-family="Helvetica,sans-Serif" font-size="10.00" fill="#000000">tmva/tmva/inc/TMVA</text>
<text text-anchor="middle" x="1605.5168" y="-275.5" font-family="Helvetica,sans-Serif" font-size="10.00" fill="#000000">/Rule.h</text>
</a>
</g>
</g>
<!-- Node27&#45;&gt;Node50 -->
<g id="edge30" class="edge">
<title>Node27&#45;&gt;Node50</title>
<path fill="none" stroke="#191970" d="M1488.5226,-331.5897C1513.9162,-321.1518 1545.0233,-308.3654 1568.7769,-298.6017"/>
<polygon fill="#191970" stroke="#191970" points="1487.0157,-328.4248 1479.0972,-335.4639 1489.677,-334.8992 1487.0157,-328.4248"/>
</g>
<!-- Node51 -->
<g id="node26" class="node">
<title>Node51</title>
<g id="a_node26"><a xlink:href="RuleEnsemble_8h.html" target="_top" xlink:title="tmva/tmva/inc/TMVA\l/RuleEnsemble.h">
<polygon fill="#ffffff" stroke="#000000" points="1649.5168,-201.5 1649.5168,-231.5 1767.5168,-231.5 1767.5168,-201.5 1649.5168,-201.5"/>
<text text-anchor="start" x="1657.5168" y="-219.5" font-family="Helvetica,sans-Serif" font-size="10.00" fill="#000000">tmva/tmva/inc/TMVA</text>
<text text-anchor="middle" x="1708.5168" y="-208.5" font-family="Helvetica,sans-Serif" font-size="10.00" fill="#000000">/RuleEnsemble.h</text>
</a>
</g>
</g>
<!-- Node27&#45;&gt;Node51 -->
<g id="edge43" class="edge">
<title>Node27&#45;&gt;Node51</title>
<path fill="none" stroke="#191970" d="M1511.8867,-335.1512C1599.274,-325.0836 1793.1882,-351.7726 1840.5168,-299 1868.3034,-268.0173 1814.8914,-244.4557 1767.9176,-230.5987"/>
<polygon fill="#191970" stroke="#191970" points="1511.1919,-331.7143 1501.7748,-336.569 1512.1639,-338.6465 1511.1919,-331.7143"/>
</g>
<!-- Node52 -->
<g id="node27" class="node">
<title>Node52</title>
<g id="a_node27"><a xlink:href="RuleFit_8h.html" target="_top" xlink:title="tmva/tmva/inc/TMVA\l/RuleFit.h">
<polygon fill="#ffffff" stroke="#000000" points="1700.5168,-134.5 1700.5168,-164.5 1818.5168,-164.5 1818.5168,-134.5 1700.5168,-134.5"/>
<text text-anchor="start" x="1708.5168" y="-152.5" font-family="Helvetica,sans-Serif" font-size="10.00" fill="#000000">tmva/tmva/inc/TMVA</text>
<text text-anchor="middle" x="1759.5168" y="-141.5" font-family="Helvetica,sans-Serif" font-size="10.00" fill="#000000">/RuleFit.h</text>
</a>
</g>
</g>
<!-- Node27&#45;&gt;Node52 -->
<g id="edge44" class="edge">
<title>Node27&#45;&gt;Node52</title>
<path fill="none" stroke="#191970" d="M1511.8221,-335.1608C1603.265,-324.7636 1808.3795,-354.5915 1858.5168,-299 1898.5466,-254.6156 1822.8442,-192.714 1782.4911,-164.5373"/>
<polygon fill="#191970" stroke="#191970" points="1511.1984,-331.7136 1501.7715,-336.5493 1512.1564,-338.6477 1511.1984,-331.7136"/>
</g>
<!-- Node53 -->
<g id="node28" class="node">
<title>Node53</title>
<g id="a_node28"><a xlink:href="RuleCut_8cxx.html" target="_top" xlink:title="tmva/tmva/src/RuleCut.cxx">
<polygon fill="#ffffff" stroke="#000000" points="1683.0168,-274 1683.0168,-293 1832.0168,-293 1832.0168,-274 1683.0168,-274"/>
<text text-anchor="middle" x="1757.5168" y="-281" font-family="Helvetica,sans-Serif" font-size="10.00" fill="#000000">tmva/tmva/src/RuleCut.cxx</text>
</a>
</g>
</g>
<!-- Node27&#45;&gt;Node53 -->
<g id="edge52" class="edge">
<title>Node27&#45;&gt;Node53</title>
<path fill="none" stroke="#191970" d="M1511.9352,-334.7101C1586.9467,-318.4053 1662.9774,-302.7285 1710.5696,-293.0186"/>
<polygon fill="#191970" stroke="#191970" points="1510.8661,-331.3608 1501.8405,-336.9096 1512.3564,-338.2004 1510.8661,-331.3608"/>
</g>
<!-- Node54 -->
<g id="node29" class="node">
<title>Node54</title>
<g id="a_node29"><a xlink:href="BDT_8h.html" target="_top" xlink:title="tmva/tmvagui/inc/TMVA\l/BDT.h">
<polygon fill="#ffffff" stroke="#000000" points="2041.0168,-268.5 2041.0168,-298.5 2174.0168,-298.5 2174.0168,-268.5 2041.0168,-268.5"/>
<text text-anchor="start" x="2049.0168" y="-286.5" font-family="Helvetica,sans-Serif" font-size="10.00" fill="#000000">tmva/tmvagui/inc/TMVA</text>
<text text-anchor="middle" x="2107.5168" y="-275.5" font-family="Helvetica,sans-Serif" font-size="10.00" fill="#000000">/BDT.h</text>
</a>
</g>
</g>
<!-- Node27&#45;&gt;Node54 -->
<g id="edge55" class="edge">
<title>Node27&#45;&gt;Node54</title>
<path fill="none" stroke="#191970" d="M1511.6814,-334.9782C1739.6823,-302.116 1801.775,-328.2366 2026.5168,-299 2031.2022,-298.3905 2036.0255,-297.6805 2040.8735,-296.9062"/>
<polygon fill="#191970" stroke="#191970" points="1511.1408,-331.5199 1501.753,-336.4311 1512.1544,-338.4461 1511.1408,-331.5199"/>
</g>
<!-- Node55 -->
<g id="node30" class="node">
<title>Node55</title>
<g id="a_node30"><a xlink:href="BDT__Reg_8h.html" target="_top" xlink:title="tmva/tmvagui/inc/TMVA\l/BDT_Reg.h">
<polygon fill="#ffffff" stroke="#000000" points="2003.0168,-201.5 2003.0168,-231.5 2136.0168,-231.5 2136.0168,-201.5 2003.0168,-201.5"/>
<text text-anchor="start" x="2011.0168" y="-219.5" font-family="Helvetica,sans-Serif" font-size="10.00" fill="#000000">tmva/tmvagui/inc/TMVA</text>
<text text-anchor="middle" x="2069.5168" y="-208.5" font-family="Helvetica,sans-Serif" font-size="10.00" fill="#000000">/BDT_Reg.h</text>
</a>
</g>
</g>
<!-- Node27&#45;&gt;Node55 -->
<g id="edge59" class="edge">
<title>Node27&#45;&gt;Node55</title>
<path fill="none" stroke="#191970" d="M1511.8313,-335.0768C1631.3416,-320.4656 1894.6445,-342.6066 1988.5168,-299 2020.374,-284.2013 2046.5278,-251.0829 2059.8889,-231.6067"/>
<polygon fill="#191970" stroke="#191970" points="1511.1914,-331.6316 1501.7559,-336.4506 1512.1371,-338.5674 1511.1914,-331.6316"/>
</g>
<!-- Node56 -->
<g id="node31" class="node">
<title>Node56</title>
<g id="a_node31"><a xlink:href="BDT__Reg_8cxx.html" target="_top" xlink:title="tmva/tmvagui/src/BDT\l_Reg.cxx">
<polygon fill="#ffffff" stroke="#000000" points="2135.5168,-134.5 2135.5168,-164.5 2261.5168,-164.5 2261.5168,-134.5 2135.5168,-134.5"/>
<text text-anchor="start" x="2143.5168" y="-152.5" font-family="Helvetica,sans-Serif" font-size="10.00" fill="#000000">tmva/tmvagui/src/BDT</text>
<text text-anchor="middle" x="2198.5168" y="-141.5" font-family="Helvetica,sans-Serif" font-size="10.00" fill="#000000">_Reg.cxx</text>
</a>
</g>
</g>
<!-- Node27&#45;&gt;Node56 -->
<g id="edge61" class="edge">
<title>Node27&#45;&gt;Node56</title>
<path fill="none" stroke="#191970" d="M1511.8018,-335.0694C1680.3952,-314.9951 2064.9839,-347.4121 2209.5168,-299 2268.223,-279.336 2341.7419,-253.2416 2308.5168,-201 2297.5967,-183.8298 2279.2791,-172.2865 2260.6926,-164.5677"/>
<polygon fill="#191970" stroke="#191970" points="1511.2139,-331.6162 1501.7437,-336.3666 1512.1093,-338.5587 1511.2139,-331.6162"/>
</g>
<!-- Node57 -->
<g id="node32" class="node">
<title>Node57</title>
<g id="a_node32"><a xlink:href="BDT_8cxx.html" target="_top" xlink:title="tmva/tmvagui/src/BDT.cxx">
<polygon fill="#ffffff" stroke="#000000" points="2154.0168,-207 2154.0168,-226 2299.0168,-226 2299.0168,-207 2154.0168,-207"/>
<text text-anchor="middle" x="2226.5168" y="-214" font-family="Helvetica,sans-Serif" font-size="10.00" fill="#000000">tmva/tmvagui/src/BDT.cxx</text>
</a>
</g>
</g>
<!-- Node27&#45;&gt;Node57 -->
<g id="edge60" class="edge">
<title>Node27&#45;&gt;Node57</title>
<path fill="none" stroke="#191970" d="M1511.7994,-335.2606C1620.7605,-325.5941 2122.6998,-338.1435 2183.5168,-299 2209.5936,-282.2163 2220.7427,-244.2019 2224.6875,-226.2437"/>
<polygon fill="#191970" stroke="#191970" points="1511.2989,-331.7945 1501.7447,-336.3736 1512.0691,-338.752 1511.2989,-331.7945"/>
</g>
<!-- Node29 -->
<g id="node4" class="node">
<title>Node29</title>
<g id="a_node4"><a xlink:href="CCPruner_8cxx.html" target="_top" xlink:title="tmva/tmva/src/CCPruner.cxx">
<polygon fill="#ffffff" stroke="#000000" points="219.0168,-207 219.0168,-226 374.0168,-226 374.0168,-207 219.0168,-207"/>
<text text-anchor="middle" x="296.5168" y="-214" font-family="Helvetica,sans-Serif" font-size="10.00" fill="#000000">tmva/tmva/src/CCPruner.cxx</text>
</a>
</g>
</g>
<!-- Node28&#45;&gt;Node29 -->
<g id="edge3" class="edge">
<title>Node28&#45;&gt;Node29</title>
<path fill="none" stroke="#191970" d="M422.7728,-264.838C389.8026,-252.2151 347.6322,-236.0699 321.344,-226.0053"/>
<polygon fill="#191970" stroke="#191970" points="421.653,-268.157 432.2434,-268.4639 424.1559,-261.6197 421.653,-268.157"/>
</g>
<!-- Node28&#45;&gt;Node30 -->
<g id="edge4" class="edge">
<title>Node28&#45;&gt;Node30</title>
<path fill="none" stroke="#191970" d="M471.5168,-258.1199C471.5168,-246.9072 471.5168,-234.4031 471.5168,-226.055"/>
<polygon fill="#191970" stroke="#191970" points="468.0169,-258.2966 471.5168,-268.2967 475.0169,-258.2967 468.0169,-258.2966"/>
</g>
<!-- Node31&#45;&gt;Node29 -->
<g id="edge6" class="edge">
<title>Node31&#45;&gt;Node29</title>
<path fill="none" stroke="#191970" d="M296.5168,-258.1199C296.5168,-246.9072 296.5168,-234.4031 296.5168,-226.055"/>
<polygon fill="#191970" stroke="#191970" points="293.0169,-258.2966 296.5168,-268.2967 300.0169,-258.2967 293.0169,-258.2966"/>
</g>
<!-- Node31&#45;&gt;Node32 -->
<g id="edge7" class="edge">
<title>Node31&#45;&gt;Node32</title>
<path fill="none" stroke="#191970" d="M244.6073,-265.0003C209.1216,-252.3538 163.5506,-236.1131 135.1884,-226.0053"/>
<polygon fill="#191970" stroke="#191970" points="243.7313,-268.4037 254.3259,-268.4639 246.0812,-261.8099 243.7313,-268.4037"/>
</g>
<!-- Node33&#45;&gt;Node34 -->
<g id="edge9" class="edge">
<title>Node33&#45;&gt;Node34</title>
<path fill="none" stroke="#191970" d="M1154.9828,-196.9132C1175.6723,-186.645 1200.635,-174.2561 1219.8542,-164.7177"/>
<polygon fill="#191970" stroke="#191970" points="1153.215,-193.8831 1145.8134,-201.4639 1156.3269,-200.1534 1153.215,-193.8831"/>
</g>
<!-- Node33&#45;&gt;Node35 -->
<g id="edge10" class="edge">
<title>Node33&#45;&gt;Node35</title>
<path fill="none" stroke="#191970" d="M1037.1473,-199.2844C978.8198,-186.4715 901.3734,-169.4587 853.7871,-159.0053"/>
<polygon fill="#191970" stroke="#191970" points="1036.5508,-202.7367 1047.0689,-201.4639 1038.0527,-195.8998 1036.5508,-202.7367"/>
</g>
<!-- Node36&#45;&gt;Node33 -->
<g id="edge12" class="edge">
<title>Node36&#45;&gt;Node33</title>
<path fill="none" stroke="#191970" d="M1042.5244,-263.0761C1058.3507,-252.9774 1077.1239,-240.9983 1091.6681,-231.7177"/>
<polygon fill="#191970" stroke="#191970" points="1040.6282,-260.1342 1034.0809,-268.4639 1044.3936,-266.0352 1040.6282,-260.1342"/>
</g>
<!-- Node36&#45;&gt;Node35 -->
<g id="edge16" class="edge">
<title>Node36&#45;&gt;Node35</title>
<path fill="none" stroke="#191970" d="M941.4449,-271.3724C897.1677,-262.2249 845.1579,-248.4573 829.5168,-232 810.2786,-211.7578 809.1311,-176.1181 809.8181,-159.0869"/>
<polygon fill="#191970" stroke="#191970" points="940.8447,-274.8218 951.3393,-273.3678 942.2285,-267.9599 940.8447,-274.8218"/>
</g>
<!-- Node37 -->
<g id="node12" class="node">
<title>Node37</title>
<g id="a_node12"><a xlink:href="ExpectedErrorPruneTool_8h.html" target="_top" xlink:title="tmva/tmva/inc/TMVA\l/ExpectedErrorPruneTool.h">
<polygon fill="#ffffff" stroke="#000000" points="838.5168,-201.5 838.5168,-231.5 982.5168,-231.5 982.5168,-201.5 838.5168,-201.5"/>
<text text-anchor="start" x="846.5168" y="-219.5" font-family="Helvetica,sans-Serif" font-size="10.00" fill="#000000">tmva/tmva/inc/TMVA</text>
<text text-anchor="middle" x="910.5168" y="-208.5" font-family="Helvetica,sans-Serif" font-size="10.00" fill="#000000">/ExpectedErrorPruneTool.h</text>
</a>
</g>
</g>
<!-- Node36&#45;&gt;Node37 -->
<g id="edge13" class="edge">
<title>Node36&#45;&gt;Node37</title>
<path fill="none" stroke="#191970" d="M979.3655,-262.6286C964.3943,-252.5979 946.7819,-240.7976 933.1186,-231.6432"/>
<polygon fill="#191970" stroke="#191970" points="977.5694,-265.6382 987.8253,-268.2967 981.4657,-259.8228 977.5694,-265.6382"/>
</g>
<!-- Node36&#45;&gt;Node38 -->
<g id="edge17" class="edge">
<title>Node36&#45;&gt;Node38</title>
<path fill="none" stroke="#191970" d="M1010.5168,-258.3415C1010.5168,-230.8131 1010.5168,-187.5714 1010.5168,-164.7614"/>
<polygon fill="#191970" stroke="#191970" points="1007.0169,-258.3889 1010.5168,-268.389 1014.0169,-258.389 1007.0169,-258.3889"/>
</g>
<!-- Node37&#45;&gt;Node35 -->
<g id="edge14" class="edge">
<title>Node37&#45;&gt;Node35</title>
<path fill="none" stroke="#191970" d="M879.2413,-195.5454C861.0146,-183.3335 838.9077,-168.5219 824.778,-159.055"/>
<polygon fill="#191970" stroke="#191970" points="877.5694,-198.6382 887.8253,-201.2967 881.4657,-192.8228 877.5694,-198.6382"/>
</g>
<!-- Node37&#45;&gt;Node38 -->
<g id="edge15" class="edge">
<title>Node37&#45;&gt;Node38</title>
<path fill="none" stroke="#191970" d="M941.6681,-195.6286C956.6393,-185.5979 974.2517,-173.7976 987.9151,-164.6432"/>
<polygon fill="#191970" stroke="#191970" points="939.5679,-192.8228 933.2084,-201.2967 943.4642,-198.6382 939.5679,-192.8228"/>
</g>
<!-- Node39&#45;&gt;Node40 -->
<g id="edge19" class="edge">
<title>Node39&#45;&gt;Node40</title>
<path fill="none" stroke="#191970" d="M1346.6733,-258.8118C1342.5943,-247.4246 1337.9915,-234.5752 1334.9395,-226.055"/>
<polygon fill="#191970" stroke="#191970" points="1343.4035,-260.0627 1350.0708,-268.2967 1349.9935,-257.7021 1343.4035,-260.0627"/>
</g>
<!-- Node41&#45;&gt;Node30 -->
<g id="edge22" class="edge">
<title>Node41&#45;&gt;Node30</title>
<path fill="none" stroke="#191970" d="M605.4356,-265.0003C570.5162,-252.3538 525.6724,-236.1131 497.7627,-226.0053"/>
<polygon fill="#191970" stroke="#191970" points="604.405,-268.3495 614.9992,-268.4639 606.7887,-261.7678 604.405,-268.3495"/>
</g>
<!-- Node42 -->
<g id="node17" class="node">
<title>Node42</title>
<g id="a_node17"><a xlink:href="MethodBoost_8cxx.html" target="_top" xlink:title="tmva/tmva/src/MethodBoost.cxx">
<polygon fill="#ffffff" stroke="#000000" points="569.0168,-207 569.0168,-226 744.0168,-226 744.0168,-207 569.0168,-207"/>
<text text-anchor="middle" x="656.5168" y="-214" font-family="Helvetica,sans-Serif" font-size="10.00" fill="#000000">tmva/tmva/src/MethodBoost.cxx</text>
</a>
</g>
</g>
<!-- Node41&#45;&gt;Node42 -->
<g id="edge21" class="edge">
<title>Node41&#45;&gt;Node42</title>
<path fill="none" stroke="#191970" d="M656.5168,-258.1199C656.5168,-246.9072 656.5168,-234.4031 656.5168,-226.055"/>
<polygon fill="#191970" stroke="#191970" points="653.0169,-258.2966 656.5168,-268.2967 660.0169,-258.2967 653.0169,-258.2966"/>
</g>
<!-- Node43&#45;&gt;Node44 -->
<g id="edge24" class="edge">
<title>Node43&#45;&gt;Node44</title>
<path fill="none" stroke="#191970" d="M1590.3316,-72.2734C1523.6886,-62.28 1420.0798,-46.3693 1330.5168,-31 1327.6273,-30.5041 1324.6826,-29.9912 1321.7092,-29.4668"/>
<polygon fill="#191970" stroke="#191970" points="1589.8878,-75.7458 1600.2958,-73.7647 1590.9241,-68.823 1589.8878,-75.7458"/>
</g>
<!-- Node45 -->
<g id="node20" class="node">
<title>Node45</title>
<g id="a_node20"><a xlink:href="Rule_8cxx.html" target="_top" xlink:title="tmva/tmva/src/Rule.cxx">
<polygon fill="#ffffff" stroke="#000000" points="1339.5168,-6 1339.5168,-25 1471.5168,-25 1471.5168,-6 1339.5168,-6"/>
<text text-anchor="middle" x="1405.5168" y="-13" font-family="Helvetica,sans-Serif" font-size="10.00" fill="#000000">tmva/tmva/src/Rule.cxx</text>
</a>
</g>
</g>
<!-- Node43&#45;&gt;Node45 -->
<g id="edge25" class="edge">
<title>Node43&#45;&gt;Node45</title>
<path fill="none" stroke="#191970" d="M1592.7413,-64.886C1544.3474,-52.1207 1480.7716,-35.3507 1441.5518,-25.0053"/>
<polygon fill="#191970" stroke="#191970" points="1591.9523,-68.2975 1602.5143,-67.4639 1593.7377,-61.529 1591.9523,-68.2975"/>
</g>
<!-- Node43&#45;&gt;Node46 -->
<g id="edge26" class="edge">
<title>Node43&#45;&gt;Node46</title>
<path fill="none" stroke="#191970" d="M1728.8678,-66.7491C1785.8053,-53.8175 1864.5872,-35.9247 1912.4152,-25.0621"/>
<polygon fill="#191970" stroke="#191970" points="1727.8361,-63.3942 1718.8596,-69.0221 1729.3865,-70.2204 1727.8361,-63.3942"/>
</g>
<!-- Node43&#45;&gt;Node47 -->
<g id="edge27" class="edge">
<title>Node43&#45;&gt;Node47</title>
<path fill="none" stroke="#191970" d="M1729.0412,-74.6718C1807.9031,-65.5 1940.2627,-49.2215 2053.5168,-31 2064.4014,-29.2488 2076.0663,-27.1487 2087.0573,-25.0682"/>
<polygon fill="#191970" stroke="#191970" points="1728.28,-71.2364 1718.749,-75.8637 1729.0853,-78.19 1728.28,-71.2364"/>
</g>
<!-- Node48 -->
<g id="node23" class="node">
<title>Node48</title>
<g id="a_node23"><a xlink:href="RuleFitAPI_8cxx.html" target="_top" xlink:title="tmva/tmva/src/RuleFitAPI.cxx">
<polygon fill="#ffffff" stroke="#000000" points="1687.0168,-6 1687.0168,-25 1846.0168,-25 1846.0168,-6 1687.0168,-6"/>
<text text-anchor="middle" x="1766.5168" y="-13" font-family="Helvetica,sans-Serif" font-size="10.00" fill="#000000">tmva/tmva/src/RuleFitAPI.cxx</text>
</a>
</g>
</g>
<!-- Node43&#45;&gt;Node48 -->
<g id="edge28" class="edge">
<title>Node43&#45;&gt;Node48</title>
<path fill="none" stroke="#191970" d="M1692.1846,-62.0445C1711.8029,-49.7601 1735.8501,-34.7025 1751.1792,-25.1039"/>
<polygon fill="#191970" stroke="#191970" points="1690.1477,-59.1903 1683.5297,-67.4639 1693.8627,-65.1232 1690.1477,-59.1903"/>
</g>
<!-- Node49 -->
<g id="node24" class="node">
<title>Node49</title>
<g id="a_node24"><a xlink:href="RuleFitParams_8cxx.html" target="_top" xlink:title="tmva/tmva/src/RuleFitParams.cxx">
<polygon fill="#ffffff" stroke="#000000" points="1490.0168,-6 1490.0168,-25 1669.0168,-25 1669.0168,-6 1490.0168,-6"/>
<text text-anchor="middle" x="1579.5168" y="-13" font-family="Helvetica,sans-Serif" font-size="10.00" fill="#000000">tmva/tmva/src/RuleFitParams.cxx</text>
</a>
</g>
</g>
<!-- Node43&#45;&gt;Node49 -->
<g id="edge29" class="edge">
<title>Node43&#45;&gt;Node49</title>
<path fill="none" stroke="#191970" d="M1633.2966,-60.5406C1618.9551,-48.5296 1601.9212,-34.2637 1590.9257,-25.055"/>
<polygon fill="#191970" stroke="#191970" points="1631.4498,-63.5592 1641.3636,-67.2967 1635.9443,-58.1927 1631.4498,-63.5592"/>
</g>
<!-- Node50&#45;&gt;Node45 -->
<g id="edge42" class="edge">
<title>Node50&#45;&gt;Node45</title>
<path fill="none" stroke="#191970" d="M1588.0175,-260.0509C1546.0469,-203.8103 1441.0421,-63.1039 1412.6754,-25.0926"/>
<polygon fill="#191970" stroke="#191970" points="1585.405,-262.4022 1594.1909,-268.3233 1591.015,-258.2156 1585.405,-262.4022"/>
</g>
<!-- Node50&#45;&gt;Node51 -->
<g id="edge31" class="edge">
<title>Node50&#45;&gt;Node51</title>
<path fill="none" stroke="#191970" d="M1637.3468,-262.7951C1652.7802,-252.7558 1670.9873,-240.9124 1685.1224,-231.7177"/>
<polygon fill="#191970" stroke="#191970" points="1635.1061,-260.0772 1628.632,-268.4639 1638.9231,-265.945 1635.1061,-260.0772"/>
</g>
<!-- Node51&#45;&gt;Node45 -->
<g id="edge39" class="edge">
<title>Node51&#45;&gt;Node45</title>
<path fill="none" stroke="#191970" d="M1669.2,-196.9159C1651.5596,-187.7476 1630.6779,-176.3592 1612.5168,-165 1535.4697,-116.8095 1449.0795,-49.9321 1417.7162,-25.1983"/>
<polygon fill="#191970" stroke="#191970" points="1667.6047,-200.0312 1678.0978,-201.4961 1670.8085,-193.8074 1667.6047,-200.0312"/>
</g>
<!-- Node51&#45;&gt;Node46 -->
<g id="edge40" class="edge">
<title>Node51&#45;&gt;Node46</title>
<path fill="none" stroke="#191970" d="M1757.9803,-197.7214C1785.1828,-186.8848 1815.7446,-173.7196 1827.5168,-165 1884.1654,-123.0411 1932.2382,-51.1909 1948.5657,-25.223"/>
<polygon fill="#191970" stroke="#191970" points="1756.5537,-194.5216 1748.5349,-201.4462 1759.1217,-201.0336 1756.5537,-194.5216"/>
</g>
<!-- Node51&#45;&gt;Node49 -->
<g id="edge41" class="edge">
<title>Node51&#45;&gt;Node49</title>
<path fill="none" stroke="#191970" d="M1678.515,-195.1842C1651.0523,-173.9011 1611.7101,-138.5803 1591.5168,-98 1579.5235,-73.8982 1578.6232,-41.2681 1579.0276,-25.2256"/>
<polygon fill="#191970" stroke="#191970" points="1676.5385,-198.0778 1686.6222,-201.3288 1680.7668,-192.4991 1676.5385,-198.0778"/>
</g>
<!-- Node51&#45;&gt;Node52 -->
<g id="edge32" class="edge">
<title>Node51&#45;&gt;Node52</title>
<path fill="none" stroke="#191970" d="M1726.3572,-193.0626C1733.5361,-183.6315 1741.6077,-173.0276 1747.9899,-164.6432"/>
<polygon fill="#191970" stroke="#191970" points="1723.3614,-191.2197 1720.0895,-201.2967 1728.9314,-195.4595 1723.3614,-191.2197"/>
</g>
<!-- Node52&#45;&gt;Node43 -->
<g id="edge33" class="edge">
<title>Node52&#45;&gt;Node43</title>
<path fill="none" stroke="#191970" d="M1728.3655,-128.6286C1713.3943,-118.5979 1695.7819,-106.7976 1682.1186,-97.6432"/>
<polygon fill="#191970" stroke="#191970" points="1726.5694,-131.6382 1736.8253,-134.2967 1730.4657,-125.8228 1726.5694,-131.6382"/>
</g>
<!-- Node52&#45;&gt;Node45 -->
<g id="edge34" class="edge">
<title>Node52&#45;&gt;Node45</title>
<path fill="none" stroke="#191970" d="M1694.5327,-131.556C1663.1156,-122.3808 1625.0401,-110.5213 1591.5168,-98 1529.4683,-74.8242 1458.533,-41.3409 1425.0141,-25.0814"/>
<polygon fill="#191970" stroke="#191970" points="1693.906,-135.0183 1704.4849,-134.4381 1695.8532,-128.2945 1693.906,-135.0183"/>
</g>
<!-- Node52&#45;&gt;Node46 -->
<g id="edge35" class="edge">
<title>Node52&#45;&gt;Node46</title>
<path fill="none" stroke="#191970" d="M1779.8371,-126.6276C1796.5043,-108.807 1821.372,-84.273 1846.5168,-67 1872.7135,-49.0044 1906.1738,-34.1238 1928.8582,-25.0626"/>
<polygon fill="#191970" stroke="#191970" points="1776.9798,-124.5639 1772.7847,-134.2929 1782.1312,-129.3035 1776.9798,-124.5639"/>
</g>
<!-- Node52&#45;&gt;Node47 -->
<g id="edge36" class="edge">
<title>Node52&#45;&gt;Node47</title>
<path fill="none" stroke="#191970" d="M1802.5234,-130.3584C1842.8917,-112.7484 1905.1806,-86.4887 1960.5168,-67 2007.6147,-50.4128 2063.0924,-34.6234 2098.5192,-25.0025"/>
<polygon fill="#191970" stroke="#191970" points="1801.0079,-127.2011 1793.2521,-134.4189 1803.8162,-133.6131 1801.0079,-127.2011"/>
</g>
<!-- Node52&#45;&gt;Node48 -->
<g id="edge37" class="edge">
<title>Node52&#45;&gt;Node48</title>
<path fill="none" stroke="#191970" d="M1760.8355,-124.2559C1762.4039,-94.2327 1764.944,-45.6073 1766.0151,-25.1042"/>
<polygon fill="#191970" stroke="#191970" points="1757.3327,-124.22 1760.3062,-134.389 1764.3232,-124.5852 1757.3327,-124.22"/>
</g>
<!-- Node52&#45;&gt;Node49 -->
<g id="edge38" class="edge">
<title>Node52&#45;&gt;Node49</title>
<path fill="none" stroke="#191970" d="M1755.5499,-124.3659C1751.448,-106.1945 1743.3154,-82.2529 1727.5168,-67 1704.6172,-44.8914 1671.7354,-32.2342 1642.7789,-25.0073"/>
<polygon fill="#191970" stroke="#191970" points="1752.1403,-125.1655 1757.5267,-134.2889 1759.0054,-123.7978 1752.1403,-125.1655"/>
</g>
<!-- Node54&#45;&gt;Node55 -->
<g id="edge56" class="edge">
<title>Node54&#45;&gt;Node55</title>
<path fill="none" stroke="#191970" d="M2093.8956,-259.4837C2088.63,-250.1996 2082.7638,-239.8565 2078.1055,-231.6432"/>
<polygon fill="#191970" stroke="#191970" points="2090.9161,-261.325 2098.894,-268.2967 2097.005,-257.8716 2090.9161,-261.325"/>
</g>
<!-- Node54&#45;&gt;Node57 -->
<g id="edge58" class="edge">
<title>Node54&#45;&gt;Node57</title>
<path fill="none" stroke="#191970" d="M2142.9665,-263.5409C2164.9421,-251.1681 2192.1805,-235.8322 2209.4591,-226.1039"/>
<polygon fill="#191970" stroke="#191970" points="2141.2194,-260.5079 2134.2227,-268.4639 2144.6537,-266.6076 2141.2194,-260.5079"/>
</g>
<!-- Node55&#45;&gt;Node56 -->
<g id="edge57" class="edge">
<title>Node55&#45;&gt;Node56</title>
<path fill="none" stroke="#191970" d="M2107.4961,-196.7743C2127.2135,-186.5335 2150.9347,-174.2132 2169.217,-164.7177"/>
<polygon fill="#191970" stroke="#191970" points="2105.7281,-193.7486 2098.4669,-201.4639 2108.9546,-199.9607 2105.7281,-193.7486"/>
</g>
</g>
</svg>
