<?xml version="1.0" encoding="UTF-8" standalone="no"?>
<!DOCTYPE svg PUBLIC "-//W3C//DTD SVG 1.1//EN"
 "http://www.w3.org/Graphics/SVG/1.1/DTD/svg11.dtd">
<!-- Generated by graphviz version 2.40.1 (0)
 -->
<!-- Title: math/mathmore/inc/Math/Derivator.h Pages: 1 -->
<svg width="202pt" height="151pt"
 viewBox="0.00 0.00 201.50 151.00" xmlns="http://www.w3.org/2000/svg" xmlns:xlink="http://www.w3.org/1999/xlink">
<g id="graph0" class="graph" transform="scale(1 1) rotate(0) translate(4 147)">
<title>math/mathmore/inc/Math/Derivator.h</title>
<polygon fill="#ffffff" stroke="transparent" points="-4,4 -4,-147 197.5,-147 197.5,4 -4,4"/>
<!-- Node0 -->
<g id="node1" class="node">
<title>Node0</title>
<polygon fill="#bfbfbf" stroke="#000000" points="0,-112.5 0,-142.5 140,-142.5 140,-112.5 0,-112.5"/>
<text text-anchor="start" x="8" y="-130.5" font-family="Helvetica,sans-Serif" font-size="10.00" fill="#000000">math/mathmore/inc/Math</text>
<text text-anchor="middle" x="70" y="-119.5" font-family="Helvetica,sans-Serif" font-size="10.00" fill="#000000">/Derivator.h</text>
</g>
<!-- Node1 -->
<g id="node2" class="node">
<title>Node1</title>
<g id="a_node2"><a xlink:href="IFunctionfwd_8h.html" target="_top" xlink:title="Math/IFunctionfwd.h">
<polygon fill="#ffffff" stroke="#000000" points="13,-.5 13,-19.5 127,-19.5 127,-.5 13,-.5"/>
<text text-anchor="middle" x="70" y="-7.5" font-family="Helvetica,sans-Serif" font-size="10.00" fill="#000000">Math/IFunctionfwd.h</text>
</a>
</g>
</g>
<!-- Node0&#45;&gt;Node1 -->
<g id="edge1" class="edge">
<title>Node0&#45;&gt;Node1</title>
<path fill="none" stroke="#191970" d="M56.4704,-112.2592C45.5296,-98.0368 32.8728,-76.056 39,-56 42.1409,-45.7192 48.4366,-35.6582 54.5388,-27.5799"/>
<polygon fill="#191970" stroke="#191970" points="57.363,-29.6535 60.9259,-19.6757 51.9184,-25.2539 57.363,-29.6535"/>
</g>
<!-- Node2 -->
<g id="node3" class="node">
<title>Node2</title>
<g id="a_node3"><a xlink:href="IParamFunctionfwd_8h.html" target="_top" xlink:title="Math/IParamFunctionfwd.h">
<polygon fill="#ffffff" stroke="#000000" points="48.5,-56.5 48.5,-75.5 193.5,-75.5 193.5,-56.5 48.5,-56.5"/>
<text text-anchor="middle" x="121" y="-63.5" font-family="Helvetica,sans-Serif" font-size="10.00" fill="#000000">Math/IParamFunctionfwd.h</text>
</a>
</g>
</g>
<!-- Node0&#45;&gt;Node2 -->
<g id="edge2" class="edge">
<title>Node0&#45;&gt;Node2</title>
<path fill="none" stroke="#191970" d="M82.6067,-112.2977C89.7598,-103.672 98.7497,-92.8312 106.2318,-83.8087"/>
<polygon fill="#191970" stroke="#191970" points="109.145,-85.7787 112.8343,-75.8469 103.7567,-81.3103 109.145,-85.7787"/>
</g>
<!-- Node2&#45;&gt;Node1 -->
<g id="edge3" class="edge">
<title>Node2&#45;&gt;Node1</title>
<path fill="none" stroke="#191970" d="M112.1165,-56.2455C104.8034,-48.2155 94.2609,-36.6394 85.5533,-27.0781"/>
<polygon fill="#191970" stroke="#191970" points="88.1028,-24.6795 78.7817,-19.6427 82.9273,-29.3928 88.1028,-24.6795"/>
</g>
</g>
</svg>
