<?xml version="1.0" encoding="UTF-8" standalone="no"?>
<!DOCTYPE svg PUBLIC "-//W3C//DTD SVG 1.1//EN"
 "http://www.w3.org/Graphics/SVG/1.1/DTD/svg11.dtd">
<!-- Generated by graphviz version 2.40.1 (0)
 -->
<!-- Title: math/smatrix/inc/Math/Dinv.h Pages: 1 -->
<svg width="1938pt" height="442pt"
 viewBox="0.00 0.00 1937.50 442.00" xmlns="http://www.w3.org/2000/svg" xmlns:xlink="http://www.w3.org/1999/xlink">
<g id="graph0" class="graph" transform="scale(1 1) rotate(0) translate(4 438)">
<title>math/smatrix/inc/Math/Dinv.h</title>
<polygon fill="#ffffff" stroke="transparent" points="-4,4 -4,-438 1933.5,-438 1933.5,4 -4,4"/>
<!-- Node0 -->
<g id="node1" class="node">
<title>Node0</title>
<polygon fill="#bfbfbf" stroke="#000000" points="499.5,-403.5 499.5,-433.5 626.5,-433.5 626.5,-403.5 499.5,-403.5"/>
<text text-anchor="start" x="507.5" y="-421.5" font-family="Helvetica,sans-Serif" font-size="10.00" fill="#000000">math/smatrix/inc/Math</text>
<text text-anchor="middle" x="563" y="-410.5" font-family="Helvetica,sans-Serif" font-size="10.00" fill="#000000">/Dinv.h</text>
</g>
<!-- Node1 -->
<g id="node2" class="node">
<title>Node1</title>
<g id="a_node2"><a xlink:href="CholeskyDecomp_8h.html" target="_top" xlink:title="header file containing the templated implementation of matrix inversion routines for use with ROOT&#39;s ...">
<polygon fill="#ffffff" stroke="#000000" points="738,-235.5 738,-254.5 876,-254.5 876,-235.5 738,-235.5"/>
<text text-anchor="middle" x="807" y="-242.5" font-family="Helvetica,sans-Serif" font-size="10.00" fill="#000000">Math/CholeskyDecomp.h</text>
</a>
</g>
</g>
<!-- Node0&#45;&gt;Node1 -->
<g id="edge1" class="edge">
<title>Node0&#45;&gt;Node1</title>
<path fill="none" stroke="#191970" d="M584.2266,-403.4065C630.3017,-370.6441 739.055,-293.3133 785.4352,-260.334"/>
<polygon fill="#191970" stroke="#191970" points="787.4704,-263.1815 793.5919,-254.534 783.4139,-257.4766 787.4704,-263.1815"/>
</g>
<!-- Node4 -->
<g id="node5" class="node">
<title>Node4</title>
<g id="a_node5"><a xlink:href="MatrixRepresentationsStatic_8h.html" target="_top" xlink:title="Math/MatrixRepresentations\lStatic.h">
<polygon fill="#ffffff" stroke="#000000" points="937.5,-112.5 937.5,-142.5 1090.5,-142.5 1090.5,-112.5 937.5,-112.5"/>
<text text-anchor="start" x="945.5" y="-130.5" font-family="Helvetica,sans-Serif" font-size="10.00" fill="#000000">Math/MatrixRepresentations</text>
<text text-anchor="middle" x="1014" y="-119.5" font-family="Helvetica,sans-Serif" font-size="10.00" fill="#000000">Static.h</text>
</a>
</g>
</g>
<!-- Node0&#45;&gt;Node4 -->
<g id="edge4" class="edge">
<title>Node0&#45;&gt;Node4</title>
<path fill="none" stroke="#191970" d="M626.7449,-415.3073C751.9673,-407.2868 1018,-380.8509 1018,-301 1018,-301 1018,-301 1018,-245 1018,-213.283 1016.5262,-176.7781 1015.3678,-152.9837"/>
<polygon fill="#191970" stroke="#191970" points="1018.8487,-152.5151 1014.8483,-142.7045 1011.8576,-152.8685 1018.8487,-152.5151"/>
</g>
<!-- Node10 -->
<g id="node11" class="node">
<title>Node10</title>
<g id="a_node11"><a xlink:href="TError_8h.html" target="_top" xlink:title="TError.h">
<polygon fill="#ffffff" stroke="#000000" points="1203,-347.5 1203,-366.5 1257,-366.5 1257,-347.5 1203,-347.5"/>
<text text-anchor="middle" x="1230" y="-354.5" font-family="Helvetica,sans-Serif" font-size="10.00" fill="#000000">TError.h</text>
</a>
</g>
</g>
<!-- Node0&#45;&gt;Node10 -->
<g id="edge10" class="edge">
<title>Node0&#45;&gt;Node10</title>
<path fill="none" stroke="#191970" d="M626.6526,-412.631C763.7347,-399.9915 1083.2907,-370.5272 1192.5739,-360.4508"/>
<polygon fill="#191970" stroke="#191970" points="1193.1408,-363.9135 1202.7772,-359.51 1192.498,-356.9431 1193.1408,-363.9135"/>
</g>
<!-- Node31 -->
<g id="node32" class="node">
<title>Node31</title>
<g id="a_node32"><a xlink:href="CramerInversion_8icc.html" target="_top" xlink:title="CramerInversion.icc">
<polygon fill="#ffffff" stroke="#000000" points="275,-347.5 275,-366.5 389,-366.5 389,-347.5 275,-347.5"/>
<text text-anchor="middle" x="332" y="-354.5" font-family="Helvetica,sans-Serif" font-size="10.00" fill="#000000">CramerInversion.icc</text>
</a>
</g>
</g>
<!-- Node0&#45;&gt;Node31 -->
<g id="edge37" class="edge">
<title>Node0&#45;&gt;Node31</title>
<path fill="none" stroke="#191970" d="M506.491,-403.4554C466.9338,-392.9239 414.7573,-379.0328 377.7954,-369.1923"/>
<polygon fill="#191970" stroke="#191970" points="378.3607,-365.7209 367.7968,-366.5303 376.5597,-372.4853 378.3607,-365.7209"/>
</g>
<!-- Node32 -->
<g id="node33" class="node">
<title>Node32</title>
<g id="a_node33"><a xlink:href="CramerInversionSym_8icc.html" target="_top" xlink:title="CramerInversionSym.icc">
<polygon fill="#ffffff" stroke="#000000" points="0,-347.5 0,-366.5 136,-366.5 136,-347.5 0,-347.5"/>
<text text-anchor="middle" x="68" y="-354.5" font-family="Helvetica,sans-Serif" font-size="10.00" fill="#000000">CramerInversionSym.icc</text>
</a>
</g>
</g>
<!-- Node0&#45;&gt;Node32 -->
<g id="edge39" class="edge">
<title>Node0&#45;&gt;Node32</title>
<path fill="none" stroke="#191970" d="M499.3008,-410.5859C409.0162,-399.3687 243.9759,-378.8637 146.3228,-366.731"/>
<polygon fill="#191970" stroke="#191970" points="146.57,-363.2349 136.2147,-365.4752 145.7068,-370.1815 146.57,-363.2349"/>
</g>
<!-- Node33 -->
<g id="node34" class="node">
<title>Node33</title>
<g id="a_node34"><a xlink:href="MatrixInversion_8icc.html" target="_top" xlink:title="MatrixInversion.icc">
<polygon fill="#ffffff" stroke="#000000" points="467.5,-347.5 467.5,-366.5 576.5,-366.5 576.5,-347.5 467.5,-347.5"/>
<text text-anchor="middle" x="522" y="-354.5" font-family="Helvetica,sans-Serif" font-size="10.00" fill="#000000">MatrixInversion.icc</text>
</a>
</g>
</g>
<!-- Node0&#45;&gt;Node33 -->
<g id="edge41" class="edge">
<title>Node0&#45;&gt;Node33</title>
<path fill="none" stroke="#191970" d="M552.8652,-403.2977C547.2332,-394.8498 540.1849,-384.2773 534.246,-375.369"/>
<polygon fill="#191970" stroke="#191970" points="537.0238,-373.226 528.5646,-366.8469 531.1995,-377.1089 537.0238,-373.226"/>
</g>
<!-- Node2 -->
<g id="node3" class="node">
<title>Node2</title>
<polygon fill="#ffffff" stroke="#bfbfbf" points="184.5,-179.5 184.5,-198.5 231.5,-198.5 231.5,-179.5 184.5,-179.5"/>
<text text-anchor="middle" x="208" y="-186.5" font-family="Helvetica,sans-Serif" font-size="10.00" fill="#000000">cmath</text>
</g>
<!-- Node1&#45;&gt;Node2 -->
<g id="edge2" class="edge">
<title>Node1&#45;&gt;Node2</title>
<path fill="none" stroke="#191970" d="M737.6943,-235.9705C734.758,-235.6335 731.8504,-235.3084 729,-235 545.4347,-215.1372 324.7824,-197.8069 241.7679,-191.5173"/>
<polygon fill="#191970" stroke="#191970" points="241.8947,-188.017 231.6597,-190.7546 241.368,-194.9972 241.8947,-188.017"/>
</g>
<!-- Node3 -->
<g id="node4" class="node">
<title>Node3</title>
<polygon fill="#ffffff" stroke="#bfbfbf" points="775,-179.5 775,-198.5 839,-198.5 839,-179.5 775,-179.5"/>
<text text-anchor="middle" x="807" y="-186.5" font-family="Helvetica,sans-Serif" font-size="10.00" fill="#000000">algorithm</text>
</g>
<!-- Node1&#45;&gt;Node3 -->
<g id="edge3" class="edge">
<title>Node1&#45;&gt;Node3</title>
<path fill="none" stroke="#191970" d="M807,-235.2455C807,-227.9382 807,-217.6944 807,-208.7046"/>
<polygon fill="#191970" stroke="#191970" points="810.5001,-208.6426 807,-198.6427 803.5001,-208.6427 810.5001,-208.6426"/>
</g>
<!-- Node5 -->
<g id="node6" class="node">
<title>Node5</title>
<g id="a_node6"><a xlink:href="StaticCheck_8h.html" target="_top" xlink:title="Math/StaticCheck.h">
<polygon fill="#ffffff" stroke="#000000" points="799,-56.5 799,-75.5 909,-75.5 909,-56.5 799,-56.5"/>
<text text-anchor="middle" x="854" y="-63.5" font-family="Helvetica,sans-Serif" font-size="10.00" fill="#000000">Math/StaticCheck.h</text>
</a>
</g>
</g>
<!-- Node4&#45;&gt;Node5 -->
<g id="edge5" class="edge">
<title>Node4&#45;&gt;Node5</title>
<path fill="none" stroke="#191970" d="M974.8596,-112.4554C948.3974,-102.284 913.7819,-88.9787 888.3817,-79.2155"/>
<polygon fill="#191970" stroke="#191970" points="889.3843,-75.8512 878.7943,-75.5303 886.8728,-82.3852 889.3843,-75.8512"/>
</g>
<!-- Node6 -->
<g id="node7" class="node">
<title>Node6</title>
<polygon fill="#ffffff" stroke="#bfbfbf" points="987.5,-56.5 987.5,-75.5 1040.5,-75.5 1040.5,-56.5 987.5,-56.5"/>
<text text-anchor="middle" x="1014" y="-63.5" font-family="Helvetica,sans-Serif" font-size="10.00" fill="#000000">cstddef</text>
</g>
<!-- Node4&#45;&gt;Node6 -->
<g id="edge6" class="edge">
<title>Node4&#45;&gt;Node6</title>
<path fill="none" stroke="#191970" d="M1014,-112.2977C1014,-104.3834 1014,-94.6043 1014,-86.0759"/>
<polygon fill="#191970" stroke="#191970" points="1017.5001,-85.8469 1014,-75.8469 1010.5001,-85.847 1017.5001,-85.8469"/>
</g>
<!-- Node7 -->
<g id="node8" class="node">
<title>Node7</title>
<polygon fill="#ffffff" stroke="#bfbfbf" points="1058.5,-56.5 1058.5,-75.5 1103.5,-75.5 1103.5,-56.5 1058.5,-56.5"/>
<text text-anchor="middle" x="1081" y="-63.5" font-family="Helvetica,sans-Serif" font-size="10.00" fill="#000000">utility</text>
</g>
<!-- Node4&#45;&gt;Node7 -->
<g id="edge7" class="edge">
<title>Node4&#45;&gt;Node7</title>
<path fill="none" stroke="#191970" d="M1030.5618,-112.2977C1040.3465,-103.3163 1052.7474,-91.9334 1062.8043,-82.702"/>
<polygon fill="#191970" stroke="#191970" points="1065.2722,-85.1876 1070.2725,-75.8469 1060.5387,-80.0307 1065.2722,-85.1876"/>
</g>
<!-- Node8 -->
<g id="node9" class="node">
<title>Node8</title>
<polygon fill="#ffffff" stroke="#bfbfbf" points="1121.5,-56.5 1121.5,-75.5 1190.5,-75.5 1190.5,-56.5 1121.5,-56.5"/>
<text text-anchor="middle" x="1156" y="-63.5" font-family="Helvetica,sans-Serif" font-size="10.00" fill="#000000">type_traits</text>
</g>
<!-- Node4&#45;&gt;Node8 -->
<g id="edge8" class="edge">
<title>Node4&#45;&gt;Node8</title>
<path fill="none" stroke="#191970" d="M1048.7371,-112.4554C1071.9106,-102.419 1102.1292,-89.3314 1124.5842,-79.6061"/>
<polygon fill="#191970" stroke="#191970" points="1126.2097,-82.7164 1133.995,-75.5303 1123.4277,-76.2929 1126.2097,-82.7164"/>
</g>
<!-- Node9 -->
<g id="node10" class="node">
<title>Node9</title>
<polygon fill="#ffffff" stroke="#bfbfbf" points="927,-56.5 927,-75.5 969,-75.5 969,-56.5 927,-56.5"/>
<text text-anchor="middle" x="948" y="-63.5" font-family="Helvetica,sans-Serif" font-size="10.00" fill="#000000">array</text>
</g>
<!-- Node4&#45;&gt;Node9 -->
<g id="edge9" class="edge">
<title>Node4&#45;&gt;Node9</title>
<path fill="none" stroke="#191970" d="M997.6854,-112.2977C988.0467,-103.3163 975.8309,-91.9334 965.9241,-82.702"/>
<polygon fill="#191970" stroke="#191970" points="968.2696,-80.1036 958.5674,-75.8469 963.4975,-85.2249 968.2696,-80.1036"/>
</g>
<!-- Node11 -->
<g id="node12" class="node">
<title>Node11</title>
<g id="a_node12"><a xlink:href="Rtypes_8h.html" target="_top" xlink:title="Rtypes.h">
<polygon fill="#ffffff" stroke="#000000" points="1410.5,-291.5 1410.5,-310.5 1469.5,-310.5 1469.5,-291.5 1410.5,-291.5"/>
<text text-anchor="middle" x="1440" y="-298.5" font-family="Helvetica,sans-Serif" font-size="10.00" fill="#000000">Rtypes.h</text>
</a>
</g>
</g>
<!-- Node10&#45;&gt;Node11 -->
<g id="edge11" class="edge">
<title>Node10&#45;&gt;Node11</title>
<path fill="none" stroke="#191970" d="M1257.0239,-349.7936C1293.4565,-340.0783 1358.5824,-322.7114 1400.5068,-311.5315"/>
<polygon fill="#191970" stroke="#191970" points="1401.6144,-314.8586 1410.3749,-308.9 1399.8107,-308.0949 1401.6144,-314.8586"/>
</g>
<!-- Node30 -->
<g id="node31" class="node">
<title>Node30</title>
<polygon fill="#ffffff" stroke="#bfbfbf" points="1202,-291.5 1202,-310.5 1258,-310.5 1258,-291.5 1202,-291.5"/>
<text text-anchor="middle" x="1230" y="-298.5" font-family="Helvetica,sans-Serif" font-size="10.00" fill="#000000">stdarg.h</text>
</g>
<!-- Node10&#45;&gt;Node30 -->
<g id="edge36" class="edge">
<title>Node10&#45;&gt;Node30</title>
<path fill="none" stroke="#191970" d="M1230,-347.2455C1230,-339.9382 1230,-329.6944 1230,-320.7046"/>
<polygon fill="#191970" stroke="#191970" points="1233.5001,-320.6426 1230,-310.6427 1226.5001,-320.6427 1233.5001,-320.6426"/>
</g>
<!-- Node11&#45;&gt;Node8 -->
<g id="edge24" class="edge">
<title>Node11&#45;&gt;Node8</title>
<path fill="none" stroke="#191970" d="M1410.1679,-298.6248C1355.7603,-293.7077 1243.3956,-280.6655 1215,-255 1165.5436,-210.2988 1157.1597,-124.8571 1156.0014,-86.0567"/>
<polygon fill="#191970" stroke="#191970" points="1159.494,-85.5529 1155.8364,-75.6094 1152.4949,-85.6635 1159.494,-85.5529"/>
</g>
<!-- Node12 -->
<g id="node13" class="node">
<title>Node12</title>
<g id="a_node13"><a xlink:href="RtypesCore_8h.html" target="_top" xlink:title="RtypesCore.h">
<polygon fill="#ffffff" stroke="#000000" points="1617,-118 1617,-137 1699,-137 1699,-118 1617,-118"/>
<text text-anchor="middle" x="1658" y="-125" font-family="Helvetica,sans-Serif" font-size="10.00" fill="#000000">RtypesCore.h</text>
</a>
</g>
</g>
<!-- Node11&#45;&gt;Node12 -->
<g id="edge12" class="edge">
<title>Node11&#45;&gt;Node12</title>
<path fill="none" stroke="#191970" d="M1410.4576,-299.1984C1356.6995,-295.2375 1246.2741,-283.7249 1223,-255 1217.4041,-248.0936 1218.5384,-242.6881 1223,-235 1248.1792,-191.6116 1273.63,-195.5115 1321,-179 1418.3472,-145.0682 1539.2357,-133.4692 1606.5648,-129.521"/>
<polygon fill="#191970" stroke="#191970" points="1607.107,-132.9965 1616.899,-128.9508 1606.7213,-126.0071 1607.107,-132.9965"/>
</g>
<!-- Node17 -->
<g id="node18" class="node">
<title>Node17</title>
<g id="a_node18"><a xlink:href="DllImport_8h.html" target="_top" xlink:title="DllImport.h">
<polygon fill="#ffffff" stroke="#000000" points="1241.5,-235.5 1241.5,-254.5 1312.5,-254.5 1312.5,-235.5 1241.5,-235.5"/>
<text text-anchor="middle" x="1277" y="-242.5" font-family="Helvetica,sans-Serif" font-size="10.00" fill="#000000">DllImport.h</text>
</a>
</g>
</g>
<!-- Node11&#45;&gt;Node17 -->
<g id="edge17" class="edge">
<title>Node11&#45;&gt;Node17</title>
<path fill="none" stroke="#191970" d="M1411.9793,-291.3733C1384.9922,-282.1016 1343.9983,-268.0178 1314.2689,-257.804"/>
<polygon fill="#191970" stroke="#191970" points="1315.2497,-254.4403 1304.6551,-254.5011 1312.9752,-261.0605 1315.2497,-254.4403"/>
</g>
<!-- Node18 -->
<g id="node19" class="node">
<title>Node18</title>
<polygon fill="#ffffff" stroke="#bfbfbf" points="1331,-235.5 1331,-254.5 1393,-254.5 1393,-235.5 1331,-235.5"/>
<text text-anchor="middle" x="1362" y="-242.5" font-family="Helvetica,sans-Serif" font-size="10.00" fill="#000000">snprintf.h</text>
</g>
<!-- Node11&#45;&gt;Node18 -->
<g id="edge18" class="edge">
<title>Node11&#45;&gt;Node18</title>
<path fill="none" stroke="#191970" d="M1426.4134,-291.2455C1414.6695,-282.814 1397.4801,-270.4729 1383.8118,-260.6598"/>
<polygon fill="#191970" stroke="#191970" points="1385.5954,-257.6316 1375.4309,-254.6427 1381.5129,-263.3179 1385.5954,-257.6316"/>
</g>
<!-- Node19 -->
<g id="node20" class="node">
<title>Node19</title>
<polygon fill="#ffffff" stroke="#bfbfbf" points="1411.5,-235.5 1411.5,-254.5 1468.5,-254.5 1468.5,-235.5 1411.5,-235.5"/>
<text text-anchor="middle" x="1440" y="-242.5" font-family="Helvetica,sans-Serif" font-size="10.00" fill="#000000">strlcpy.h</text>
</g>
<!-- Node11&#45;&gt;Node19 -->
<g id="edge19" class="edge">
<title>Node11&#45;&gt;Node19</title>
<path fill="none" stroke="#191970" d="M1440,-291.2455C1440,-283.9382 1440,-273.6944 1440,-264.7046"/>
<polygon fill="#191970" stroke="#191970" points="1443.5001,-264.6426 1440,-254.6427 1436.5001,-264.6427 1443.5001,-264.6426"/>
</g>
<!-- Node20 -->
<g id="node21" class="node">
<title>Node20</title>
<polygon fill="#ffffff" stroke="#bfbfbf" points="1330,-179.5 1330,-198.5 1380,-198.5 1380,-179.5 1330,-179.5"/>
<text text-anchor="middle" x="1355" y="-186.5" font-family="Helvetica,sans-Serif" font-size="10.00" fill="#000000">atomic</text>
</g>
<!-- Node11&#45;&gt;Node20 -->
<g id="edge20" class="edge">
<title>Node11&#45;&gt;Node20</title>
<path fill="none" stroke="#191970" d="M1410.1818,-298.8439C1358.3082,-294.4054 1254.8838,-282.2807 1233,-255 1206.2993,-221.7145 1275.0131,-202.8867 1319.8465,-194.4494"/>
<polygon fill="#191970" stroke="#191970" points="1320.6039,-197.8696 1329.8323,-192.665 1319.3725,-190.9788 1320.6039,-197.8696"/>
</g>
<!-- Node21 -->
<g id="node22" class="node">
<title>Node21</title>
<polygon fill="#ffffff" stroke="#bfbfbf" points="1487,-235.5 1487,-254.5 1537,-254.5 1537,-235.5 1487,-235.5"/>
<text text-anchor="middle" x="1512" y="-242.5" font-family="Helvetica,sans-Serif" font-size="10.00" fill="#000000">stdio.h</text>
</g>
<!-- Node11&#45;&gt;Node21 -->
<g id="edge21" class="edge">
<title>Node11&#45;&gt;Node21</title>
<path fill="none" stroke="#191970" d="M1452.5414,-291.2455C1463.2787,-282.8943 1478.9473,-270.7076 1491.5047,-260.9408"/>
<polygon fill="#191970" stroke="#191970" points="1493.8575,-263.5449 1499.6023,-254.6427 1489.5599,-258.0194 1493.8575,-263.5449"/>
</g>
<!-- Node22 -->
<g id="node23" class="node">
<title>Node22</title>
<polygon fill="#ffffff" stroke="#bfbfbf" points="1555.5,-235.5 1555.5,-254.5 1608.5,-254.5 1608.5,-235.5 1555.5,-235.5"/>
<text text-anchor="middle" x="1582" y="-242.5" font-family="Helvetica,sans-Serif" font-size="10.00" fill="#000000">string.h</text>
</g>
<!-- Node11&#45;&gt;Node22 -->
<g id="edge22" class="edge">
<title>Node11&#45;&gt;Node22</title>
<path fill="none" stroke="#191970" d="M1464.4107,-291.3733C1487.6142,-282.2226 1522.7038,-268.3844 1548.5142,-258.2057"/>
<polygon fill="#191970" stroke="#191970" points="1549.8892,-261.4258 1557.9079,-254.5011 1547.3211,-254.9139 1549.8892,-261.4258"/>
</g>
<!-- Node23 -->
<g id="node24" class="node">
<title>Node23</title>
<polygon fill="#ffffff" stroke="#bfbfbf" points="1686.5,-179.5 1686.5,-198.5 1743.5,-198.5 1743.5,-179.5 1686.5,-179.5"/>
<text text-anchor="middle" x="1715" y="-186.5" font-family="Helvetica,sans-Serif" font-size="10.00" fill="#000000">typeinfo</text>
</g>
<!-- Node11&#45;&gt;Node23 -->
<g id="edge23" class="edge">
<title>Node11&#45;&gt;Node23</title>
<path fill="none" stroke="#191970" d="M1469.7858,-300.307C1532.9312,-298.1697 1677.083,-289.5334 1709,-255 1720.3259,-242.7456 1720.7447,-223.1932 1718.9796,-208.5449"/>
<polygon fill="#191970" stroke="#191970" points="1722.4063,-207.8109 1717.3486,-198.5013 1715.4968,-208.933 1722.4063,-207.8109"/>
</g>
<!-- Node24 -->
<g id="node25" class="node">
<title>Node24</title>
<g id="a_node25"><a xlink:href="TGenericClassInfo_8h.html" target="_top" xlink:title="TGenericClassInfo.h">
<polygon fill="#ffffff" stroke="#000000" points="1756,-235.5 1756,-254.5 1870,-254.5 1870,-235.5 1756,-235.5"/>
<text text-anchor="middle" x="1813" y="-242.5" font-family="Helvetica,sans-Serif" font-size="10.00" fill="#000000">TGenericClassInfo.h</text>
</a>
</g>
</g>
<!-- Node11&#45;&gt;Node24 -->
<g id="edge25" class="edge">
<title>Node11&#45;&gt;Node24</title>
<path fill="none" stroke="#191970" d="M1469.6789,-295.9316C1529.1955,-286.5238 1663.9693,-266.2348 1745.8874,-254.2987"/>
<polygon fill="#191970" stroke="#191970" points="1746.4599,-257.7523 1755.8524,-252.8501 1745.4529,-250.8251 1746.4599,-257.7523"/>
</g>
<!-- Node28 -->
<g id="node29" class="node">
<title>Node28</title>
<g id="a_node29"><a xlink:href="TIsAProxy_8h.html" target="_top" xlink:title="TIsAProxy.h">
<polygon fill="#ffffff" stroke="#000000" points="1626.5,-235.5 1626.5,-254.5 1699.5,-254.5 1699.5,-235.5 1626.5,-235.5"/>
<text text-anchor="middle" x="1663" y="-242.5" font-family="Helvetica,sans-Serif" font-size="10.00" fill="#000000">TIsAProxy.h</text>
</a>
</g>
</g>
<!-- Node11&#45;&gt;Node28 -->
<g id="edge31" class="edge">
<title>Node11&#45;&gt;Node28</title>
<path fill="none" stroke="#191970" d="M1469.6127,-293.5636C1507.0938,-284.1513 1572.0888,-267.8297 1616.2871,-256.7306"/>
<polygon fill="#191970" stroke="#191970" points="1617.3678,-260.068 1626.2142,-254.2377 1615.6628,-253.2788 1617.3678,-260.068"/>
</g>
<!-- Node13 -->
<g id="node14" class="node">
<title>Node13</title>
<g id="a_node14"><a xlink:href="RConfig_8hxx.html" target="_top" xlink:title="ROOT/RConfig.hxx">
<polygon fill="#ffffff" stroke="#000000" points="1555.5,-56.5 1555.5,-75.5 1660.5,-75.5 1660.5,-56.5 1555.5,-56.5"/>
<text text-anchor="middle" x="1608" y="-63.5" font-family="Helvetica,sans-Serif" font-size="10.00" fill="#000000">ROOT/RConfig.hxx</text>
</a>
</g>
</g>
<!-- Node12&#45;&gt;Node13 -->
<g id="edge13" class="edge">
<title>Node12&#45;&gt;Node13</title>
<path fill="none" stroke="#191970" d="M1650.1875,-117.8906C1642.746,-108.7376 1631.3666,-94.7409 1622.3008,-83.59"/>
<polygon fill="#191970" stroke="#191970" points="1624.9467,-81.2962 1615.9226,-75.7449 1619.5153,-85.712 1624.9467,-81.2962"/>
</g>
<!-- Node16 -->
<g id="node17" class="node">
<title>Node16</title>
<polygon fill="#ffffff" stroke="#bfbfbf" points="1679,-56.5 1679,-75.5 1735,-75.5 1735,-56.5 1679,-56.5"/>
<text text-anchor="middle" x="1707" y="-63.5" font-family="Helvetica,sans-Serif" font-size="10.00" fill="#000000">stddef.h</text>
</g>
<!-- Node12&#45;&gt;Node16 -->
<g id="edge16" class="edge">
<title>Node12&#45;&gt;Node16</title>
<path fill="none" stroke="#191970" d="M1665.6563,-117.8906C1672.9489,-108.7376 1684.1007,-94.7409 1692.9852,-83.59"/>
<polygon fill="#191970" stroke="#191970" points="1695.7417,-85.747 1699.2358,-75.7449 1690.267,-81.3849 1695.7417,-85.747"/>
</g>
<!-- Node14 -->
<g id="node15" class="node">
<title>Node14</title>
<g id="a_node15"><a xlink:href="RVersion_8h.html" target="_top" xlink:title="../RVersion.h">
<polygon fill="#ffffff" stroke="#000000" points="1521.5,-.5 1521.5,-19.5 1598.5,-19.5 1598.5,-.5 1521.5,-.5"/>
<text text-anchor="middle" x="1560" y="-7.5" font-family="Helvetica,sans-Serif" font-size="10.00" fill="#000000">../RVersion.h</text>
</a>
</g>
</g>
<!-- Node13&#45;&gt;Node14 -->
<g id="edge14" class="edge">
<title>Node13&#45;&gt;Node14</title>
<path fill="none" stroke="#191970" d="M1599.639,-56.2455C1592.825,-48.2958 1583.0319,-36.8706 1574.8848,-27.3656"/>
<polygon fill="#191970" stroke="#191970" points="1577.4305,-24.9575 1568.2651,-19.6427 1572.1157,-29.513 1577.4305,-24.9575"/>
</g>
<!-- Node15 -->
<g id="node16" class="node">
<title>Node15</title>
<polygon fill="#ffffff" stroke="#bfbfbf" points="1617,-.5 1617,-19.5 1695,-19.5 1695,-.5 1617,-.5"/>
<text text-anchor="middle" x="1656" y="-7.5" font-family="Helvetica,sans-Serif" font-size="10.00" fill="#000000">RConfigure.h</text>
</g>
<!-- Node13&#45;&gt;Node15 -->
<g id="edge15" class="edge">
<title>Node13&#45;&gt;Node15</title>
<path fill="none" stroke="#191970" d="M1616.361,-56.2455C1623.175,-48.2958 1632.9681,-36.8706 1641.1152,-27.3656"/>
<polygon fill="#191970" stroke="#191970" points="1643.8843,-29.513 1647.7349,-19.6427 1638.5695,-24.9575 1643.8843,-29.513"/>
</g>
<!-- Node24&#45;&gt;Node11 -->
<g id="edge30" class="edge">
<title>Node24&#45;&gt;Node11</title>
<path fill="none" stroke="#191970" d="M1755.7922,-254.3682C1679.3233,-266.2058 1545.9502,-286.1782 1479.6311,-295.6752"/>
<polygon fill="#191970" stroke="#191970" points="1478.9885,-292.2314 1469.5821,-297.1066 1479.9757,-299.1614 1478.9885,-292.2314"/>
</g>
<!-- Node25 -->
<g id="node26" class="node">
<title>Node25</title>
<polygon fill="#ffffff" stroke="#bfbfbf" points="1882.5,-179.5 1882.5,-198.5 1929.5,-198.5 1929.5,-179.5 1882.5,-179.5"/>
<text text-anchor="middle" x="1906" y="-186.5" font-family="Helvetica,sans-Serif" font-size="10.00" fill="#000000">vector</text>
</g>
<!-- Node24&#45;&gt;Node25 -->
<g id="edge26" class="edge">
<title>Node24&#45;&gt;Node25</title>
<path fill="none" stroke="#191970" d="M1829.1994,-235.2455C1843.6018,-226.5731 1864.8732,-213.7645 1881.3799,-203.825"/>
<polygon fill="#191970" stroke="#191970" points="1883.225,-206.7996 1889.9863,-198.6427 1879.614,-200.8028 1883.225,-206.7996"/>
</g>
<!-- Node26 -->
<g id="node27" class="node">
<title>Node26</title>
<g id="a_node27"><a xlink:href="TSchemaHelper_8h.html" target="_top" xlink:title="TSchemaHelper.h">
<polygon fill="#ffffff" stroke="#000000" points="1762,-179.5 1762,-198.5 1864,-198.5 1864,-179.5 1762,-179.5"/>
<text text-anchor="middle" x="1813" y="-186.5" font-family="Helvetica,sans-Serif" font-size="10.00" fill="#000000">TSchemaHelper.h</text>
</a>
</g>
</g>
<!-- Node24&#45;&gt;Node26 -->
<g id="edge27" class="edge">
<title>Node24&#45;&gt;Node26</title>
<path fill="none" stroke="#191970" d="M1813,-235.2455C1813,-227.9382 1813,-217.6944 1813,-208.7046"/>
<polygon fill="#191970" stroke="#191970" points="1816.5001,-208.6426 1813,-198.6427 1809.5001,-208.6427 1816.5001,-208.6426"/>
</g>
<!-- Node26&#45;&gt;Node12 -->
<g id="edge28" class="edge">
<title>Node26&#45;&gt;Node12</title>
<path fill="none" stroke="#191970" d="M1788.7813,-179.3906C1762.6194,-169.0103 1720.7571,-152.4004 1691.4612,-140.7766"/>
<polygon fill="#191970" stroke="#191970" points="1692.6346,-137.4767 1682.0487,-137.0419 1690.0529,-143.9833 1692.6346,-137.4767"/>
</g>
<!-- Node27 -->
<g id="node28" class="node">
<title>Node27</title>
<polygon fill="#ffffff" stroke="#bfbfbf" points="1791,-118 1791,-137 1835,-137 1835,-118 1791,-118"/>
<text text-anchor="middle" x="1813" y="-125" font-family="Helvetica,sans-Serif" font-size="10.00" fill="#000000">string</text>
</g>
<!-- Node26&#45;&gt;Node27 -->
<g id="edge29" class="edge">
<title>Node26&#45;&gt;Node27</title>
<path fill="none" stroke="#191970" d="M1813,-179.3906C1813,-170.8657 1813,-158.1392 1813,-147.4235"/>
<polygon fill="#191970" stroke="#191970" points="1816.5001,-147.2448 1813,-137.2449 1809.5001,-147.2449 1816.5001,-147.2448"/>
</g>
<!-- Node28&#45;&gt;Node12 -->
<g id="edge33" class="edge">
<title>Node28&#45;&gt;Node12</title>
<path fill="none" stroke="#191970" d="M1662.5908,-235.3845C1661.7741,-216.1913 1659.9271,-172.786 1658.8411,-147.2663"/>
<polygon fill="#191970" stroke="#191970" points="1662.3369,-147.0905 1658.4148,-137.2484 1655.3432,-147.3882 1662.3369,-147.0905"/>
</g>
<!-- Node28&#45;&gt;Node20 -->
<g id="edge34" class="edge">
<title>Node28&#45;&gt;Node20</title>
<path fill="none" stroke="#191970" d="M1626.1918,-236.6773C1623.4228,-236.0951 1620.669,-235.5297 1618,-235 1536.7141,-218.8683 1440.6926,-202.8332 1390.1623,-194.6275"/>
<polygon fill="#191970" stroke="#191970" points="1390.5225,-191.1404 1380.0919,-192.9982 1389.4044,-198.0505 1390.5225,-191.1404"/>
</g>
<!-- Node28&#45;&gt;Node23 -->
<g id="edge35" class="edge">
<title>Node28&#45;&gt;Node23</title>
<path fill="none" stroke="#191970" d="M1672.0577,-235.2455C1679.5142,-227.2155 1690.2634,-215.6394 1699.1417,-206.0781"/>
<polygon fill="#191970" stroke="#191970" points="1701.8063,-208.3522 1706.0461,-198.6427 1696.6768,-203.589 1701.8063,-208.3522"/>
</g>
<!-- Node29 -->
<g id="node30" class="node">
<title>Node29</title>
<g id="a_node30"><a xlink:href="TVirtualIsAProxy_8h.html" target="_top" xlink:title="TVirtualIsAProxy.h">
<polygon fill="#ffffff" stroke="#000000" points="1524.5,-179.5 1524.5,-198.5 1629.5,-198.5 1629.5,-179.5 1524.5,-179.5"/>
<text text-anchor="middle" x="1577" y="-186.5" font-family="Helvetica,sans-Serif" font-size="10.00" fill="#000000">TVirtualIsAProxy.h</text>
</a>
</g>
</g>
<!-- Node28&#45;&gt;Node29 -->
<g id="edge32" class="edge">
<title>Node28&#45;&gt;Node29</title>
<path fill="none" stroke="#191970" d="M1648.0199,-235.2455C1634.8249,-226.6534 1615.3949,-214.0014 1600.1921,-204.1018"/>
<polygon fill="#191970" stroke="#191970" points="1602.0983,-201.1665 1591.8084,-198.6427 1598.2785,-207.0325 1602.0983,-201.1665"/>
</g>
<!-- Node31&#45;&gt;Node2 -->
<g id="edge38" class="edge">
<title>Node31&#45;&gt;Node2</title>
<path fill="none" stroke="#191970" d="M274.8646,-351.8309C216.051,-343.0239 127.8309,-319.2323 90,-255 69.0801,-219.4805 132.3936,-201.6343 174.2164,-193.9291"/>
<polygon fill="#191970" stroke="#191970" points="175.0634,-197.3347 184.322,-192.184 173.8722,-190.4368 175.0634,-197.3347"/>
</g>
<!-- Node32&#45;&gt;Node2 -->
<g id="edge40" class="edge">
<title>Node32&#45;&gt;Node2</title>
<path fill="none" stroke="#191970" d="M65.9877,-347.1862C61.9712,-324.6705 55.4733,-268.6549 82,-235 93.7249,-220.1244 141.4252,-205.5799 174.6465,-196.9522"/>
<polygon fill="#191970" stroke="#191970" points="175.6024,-200.3207 184.4358,-194.4708 173.8824,-193.5353 175.6024,-200.3207"/>
</g>
<!-- Node34 -->
<g id="node35" class="node">
<title>Node34</title>
<g id="a_node35"><a xlink:href="SVector_8h.html" target="_top" xlink:title="Math/SVector.h">
<polygon fill="#ffffff" stroke="#000000" points="422.5,-291.5 422.5,-310.5 511.5,-310.5 511.5,-291.5 422.5,-291.5"/>
<text text-anchor="middle" x="467" y="-298.5" font-family="Helvetica,sans-Serif" font-size="10.00" fill="#000000">Math/SVector.h</text>
</a>
</g>
</g>
<!-- Node33&#45;&gt;Node34 -->
<g id="edge42" class="edge">
<title>Node33&#45;&gt;Node34</title>
<path fill="none" stroke="#191970" d="M512.4197,-347.2455C504.4542,-339.1352 492.9359,-327.4075 483.4921,-317.7919"/>
<polygon fill="#191970" stroke="#191970" points="485.9747,-315.3247 476.4705,-310.6427 480.9805,-320.2297 485.9747,-315.3247"/>
</g>
<!-- Node46 -->
<g id="node47" class="node">
<title>Node46</title>
<g id="a_node47"><a xlink:href="Math_8h.html" target="_top" xlink:title="Math/Math.h">
<polygon fill="#ffffff" stroke="#000000" points="199.5,-291.5 199.5,-310.5 276.5,-310.5 276.5,-291.5 199.5,-291.5"/>
<text text-anchor="middle" x="238" y="-298.5" font-family="Helvetica,sans-Serif" font-size="10.00" fill="#000000">Math/Math.h</text>
</a>
</g>
</g>
<!-- Node33&#45;&gt;Node46 -->
<g id="edge63" class="edge">
<title>Node33&#45;&gt;Node46</title>
<path fill="none" stroke="#191970" d="M473.5014,-347.4369C421.3695,-337.1574 338.9709,-320.9098 286.7443,-310.6115"/>
<polygon fill="#191970" stroke="#191970" points="287.2073,-307.1355 276.7191,-308.6348 285.8531,-314.0033 287.2073,-307.1355"/>
</g>
<!-- Node47 -->
<g id="node48" class="node">
<title>Node47</title>
<polygon fill="#ffffff" stroke="#bfbfbf" points="530,-291.5 530,-310.5 574,-310.5 574,-291.5 530,-291.5"/>
<text text-anchor="middle" x="552" y="-298.5" font-family="Helvetica,sans-Serif" font-size="10.00" fill="#000000">limits</text>
</g>
<!-- Node33&#45;&gt;Node47 -->
<g id="edge65" class="edge">
<title>Node33&#45;&gt;Node47</title>
<path fill="none" stroke="#191970" d="M527.2256,-347.2455C531.3123,-339.617 537.1135,-328.7881 542.075,-319.5267"/>
<polygon fill="#191970" stroke="#191970" points="545.1972,-321.1103 546.8343,-310.6427 539.0268,-317.8047 545.1972,-321.1103"/>
</g>
<!-- Node35 -->
<g id="node36" class="node">
<title>Node35</title>
<g id="a_node36"><a xlink:href="MConfig_8h.html" target="_top" xlink:title="Math/MConfig.h">
<polygon fill="#ffffff" stroke="#000000" points="108,-235.5 108,-254.5 200,-254.5 200,-235.5 108,-235.5"/>
<text text-anchor="middle" x="154" y="-242.5" font-family="Helvetica,sans-Serif" font-size="10.00" fill="#000000">Math/MConfig.h</text>
</a>
</g>
</g>
<!-- Node34&#45;&gt;Node35 -->
<g id="edge43" class="edge">
<title>Node34&#45;&gt;Node35</title>
<path fill="none" stroke="#191970" d="M422.4871,-293.036C366.7255,-283.0595 271.1317,-265.9565 210.3309,-255.0784"/>
<polygon fill="#191970" stroke="#191970" points="210.6026,-251.5715 200.1425,-253.2555 209.3697,-258.4621 210.6026,-251.5715"/>
</g>
<!-- Node36 -->
<g id="node37" class="node">
<title>Node36</title>
<polygon fill="#ffffff" stroke="#bfbfbf" points="218.5,-235.5 218.5,-254.5 267.5,-254.5 267.5,-235.5 218.5,-235.5"/>
<text text-anchor="middle" x="243" y="-242.5" font-family="Helvetica,sans-Serif" font-size="10.00" fill="#000000">iosfwd</text>
</g>
<!-- Node34&#45;&gt;Node36 -->
<g id="edge44" class="edge">
<title>Node34&#45;&gt;Node36</title>
<path fill="none" stroke="#191970" d="M424.9666,-291.4406C388.4781,-283.0041 334.0114,-270.0813 277.6422,-255.0816"/>
<polygon fill="#191970" stroke="#191970" points="278.4082,-251.6634 267.8432,-252.4579 276.5977,-258.4252 278.4082,-251.6634"/>
</g>
<!-- Node37 -->
<g id="node38" class="node">
<title>Node37</title>
<g id="a_node38"><a xlink:href="Expression_8h.html" target="_top" xlink:title="Math/Expression.h">
<polygon fill="#ffffff" stroke="#000000" points="507,-179.5 507,-198.5 613,-198.5 613,-179.5 507,-179.5"/>
<text text-anchor="middle" x="560" y="-186.5" font-family="Helvetica,sans-Serif" font-size="10.00" fill="#000000">Math/Expression.h</text>
</a>
</g>
</g>
<!-- Node34&#45;&gt;Node37 -->
<g id="edge45" class="edge">
<title>Node34&#45;&gt;Node37</title>
<path fill="none" stroke="#191970" d="M491.2949,-291.4669C507.591,-283.8914 528.3174,-271.7712 541,-255 551.1013,-241.6422 555.8378,-223.075 558.0556,-209.0355"/>
<polygon fill="#191970" stroke="#191970" points="561.5507,-209.2963 559.3486,-198.9328 554.6073,-208.4076 561.5507,-209.2963"/>
</g>
<!-- Node40 -->
<g id="node41" class="node">
<title>Node40</title>
<g id="a_node41"><a xlink:href="SVector_8icc.html" target="_top" xlink:title="Math/SVector.icc">
<polygon fill="#ffffff" stroke="#000000" points="894,-235.5 894,-254.5 990,-254.5 990,-235.5 894,-235.5"/>
<text text-anchor="middle" x="942" y="-242.5" font-family="Helvetica,sans-Serif" font-size="10.00" fill="#000000">Math/SVector.icc</text>
</a>
</g>
</g>
<!-- Node34&#45;&gt;Node40 -->
<g id="edge48" class="edge">
<title>Node34&#45;&gt;Node40</title>
<path fill="none" stroke="#191970" d="M511.7413,-292.4134C514.8699,-291.9058 517.9792,-291.4283 521,-291 678.6564,-268.6468 722.165,-276.7103 883.5441,-255.1079"/>
<polygon fill="#191970" stroke="#191970" points="884.3991,-258.524 893.8378,-253.7114 883.458,-251.5876 884.3991,-258.524"/>
</g>
<!-- Node42 -->
<g id="node43" class="node">
<title>Node42</title>
<g id="a_node43"><a xlink:href="UnaryOperators_8h.html" target="_top" xlink:title="Math/UnaryOperators.h">
<polygon fill="#ffffff" stroke="#000000" points="402,-235.5 402,-254.5 532,-254.5 532,-235.5 402,-235.5"/>
<text text-anchor="middle" x="467" y="-242.5" font-family="Helvetica,sans-Serif" font-size="10.00" fill="#000000">Math/UnaryOperators.h</text>
</a>
</g>
</g>
<!-- Node34&#45;&gt;Node42 -->
<g id="edge53" class="edge">
<title>Node34&#45;&gt;Node42</title>
<path fill="none" stroke="#191970" d="M467,-291.2455C467,-283.9382 467,-273.6944 467,-264.7046"/>
<polygon fill="#191970" stroke="#191970" points="470.5001,-264.6426 467,-254.6427 463.5001,-264.6427 470.5001,-264.6426"/>
</g>
<!-- Node43 -->
<g id="node44" class="node">
<title>Node43</title>
<g id="a_node44"><a xlink:href="BinaryOperators_8h.html" target="_top" xlink:title="Math/BinaryOperators.h">
<polygon fill="#ffffff" stroke="#000000" points="588,-235.5 588,-254.5 720,-254.5 720,-235.5 588,-235.5"/>
<text text-anchor="middle" x="654" y="-242.5" font-family="Helvetica,sans-Serif" font-size="10.00" fill="#000000">Math/BinaryOperators.h</text>
</a>
</g>
</g>
<!-- Node34&#45;&gt;Node43 -->
<g id="edge56" class="edge">
<title>Node34&#45;&gt;Node43</title>
<path fill="none" stroke="#191970" d="M499.1464,-291.3733C530.5109,-281.9807 578.3665,-267.6496 612.5716,-257.4064"/>
<polygon fill="#191970" stroke="#191970" points="613.6975,-260.7229 622.273,-254.5011 611.6893,-254.0171 613.6975,-260.7229"/>
</g>
<!-- Node45 -->
<g id="node46" class="node">
<title>Node45</title>
<g id="a_node46"><a xlink:href="math_2smatrix_2inc_2Math_2Functions_8h.html" target="_top" xlink:title="Math/Functions.h">
<polygon fill="#ffffff" stroke="#000000" points="286,-235.5 286,-254.5 384,-254.5 384,-235.5 286,-235.5"/>
<text text-anchor="middle" x="335" y="-242.5" font-family="Helvetica,sans-Serif" font-size="10.00" fill="#000000">Math/Functions.h</text>
</a>
</g>
</g>
<!-- Node34&#45;&gt;Node45 -->
<g id="edge60" class="edge">
<title>Node34&#45;&gt;Node45</title>
<path fill="none" stroke="#191970" d="M444.3084,-291.3733C422.9289,-282.3032 390.6943,-268.6279 366.7638,-258.4755"/>
<polygon fill="#191970" stroke="#191970" points="367.9683,-255.1846 357.3955,-254.5011 365.2344,-261.6287 367.9683,-255.1846"/>
</g>
<!-- Node38 -->
<g id="node39" class="node">
<title>Node38</title>
<polygon fill="#ffffff" stroke="#bfbfbf" points="532,-118 532,-137 588,-137 588,-118 532,-118"/>
<text text-anchor="middle" x="560" y="-125" font-family="Helvetica,sans-Serif" font-size="10.00" fill="#000000">iomanip</text>
</g>
<!-- Node37&#45;&gt;Node38 -->
<g id="edge46" class="edge">
<title>Node37&#45;&gt;Node38</title>
<path fill="none" stroke="#191970" d="M560,-179.3906C560,-170.8657 560,-158.1392 560,-147.4235"/>
<polygon fill="#191970" stroke="#191970" points="563.5001,-147.2448 560,-137.2449 556.5001,-147.2449 563.5001,-147.2448"/>
</g>
<!-- Node39 -->
<g id="node40" class="node">
<title>Node39</title>
<polygon fill="#ffffff" stroke="#bfbfbf" points="712,-118 712,-137 772,-137 772,-118 712,-118"/>
<text text-anchor="middle" x="742" y="-125" font-family="Helvetica,sans-Serif" font-size="10.00" fill="#000000">iostream</text>
</g>
<!-- Node37&#45;&gt;Node39 -->
<g id="edge47" class="edge">
<title>Node37&#45;&gt;Node39</title>
<path fill="none" stroke="#191970" d="M588.4375,-179.3906C619.5572,-168.8749 669.5964,-151.966 704.0485,-140.3243"/>
<polygon fill="#191970" stroke="#191970" points="705.4089,-143.5591 713.7622,-137.0419 703.168,-136.9274 705.4089,-143.5591"/>
</g>
<!-- Node40&#45;&gt;Node3 -->
<g id="edge51" class="edge">
<title>Node40&#45;&gt;Node3</title>
<path fill="none" stroke="#191970" d="M918.7927,-235.3733C896.8301,-226.2629 863.6668,-212.5062 839.1599,-202.3404"/>
<polygon fill="#191970" stroke="#191970" points="840.4824,-199.0999 829.9045,-198.5011 837.8003,-205.5657 840.4824,-199.0999"/>
</g>
<!-- Node40&#45;&gt;Node5 -->
<g id="edge52" class="edge">
<title>Node40&#45;&gt;Node5</title>
<path fill="none" stroke="#191970" d="M937.2687,-235.3762C923.3021,-206.9669 882.063,-123.0828 863.3836,-85.0871"/>
<polygon fill="#191970" stroke="#191970" points="866.3075,-83.1014 858.7547,-75.6714 860.0256,-86.1897 866.3075,-83.1014"/>
</g>
<!-- Node40&#45;&gt;Node39 -->
<g id="edge49" class="edge">
<title>Node40&#45;&gt;Node39</title>
<path fill="none" stroke="#191970" d="M929.6563,-235.3686C912.0827,-221.8837 878.5846,-197.0109 848,-179 823.8442,-164.775 795.1811,-151.0243 773.7551,-141.3152"/>
<polygon fill="#191970" stroke="#191970" points="775.0191,-138.0463 764.4621,-137.1514 772.1568,-144.4344 775.0191,-138.0463"/>
</g>
<!-- Node41 -->
<g id="node42" class="node">
<title>Node41</title>
<polygon fill="#ffffff" stroke="#bfbfbf" points="933,-179.5 933,-198.5 989,-198.5 989,-179.5 933,-179.5"/>
<text text-anchor="middle" x="961" y="-186.5" font-family="Helvetica,sans-Serif" font-size="10.00" fill="#000000">assert.h</text>
</g>
<!-- Node40&#45;&gt;Node41 -->
<g id="edge50" class="edge">
<title>Node40&#45;&gt;Node41</title>
<path fill="none" stroke="#191970" d="M945.3095,-235.2455C947.8433,-227.7776 951.4177,-217.2427 954.515,-208.1137"/>
<polygon fill="#191970" stroke="#191970" points="957.8298,-209.237 957.7284,-198.6427 951.2009,-206.9879 957.8298,-209.237"/>
</g>
<!-- Node42&#45;&gt;Node2 -->
<g id="edge54" class="edge">
<title>Node42&#45;&gt;Node2</title>
<path fill="none" stroke="#191970" d="M422.7706,-235.4369C371.4601,-224.3427 287.9988,-206.297 241.6754,-196.2812"/>
<polygon fill="#191970" stroke="#191970" points="242.3462,-192.8454 231.8324,-194.1529 240.8668,-199.6873 242.3462,-192.8454"/>
</g>
<!-- Node42&#45;&gt;Node37 -->
<g id="edge55" class="edge">
<title>Node42&#45;&gt;Node37</title>
<path fill="none" stroke="#191970" d="M483.1994,-235.2455C497.6018,-226.5731 518.8732,-213.7645 535.3799,-203.825"/>
<polygon fill="#191970" stroke="#191970" points="537.225,-206.7996 543.9863,-198.6427 533.614,-200.8028 537.225,-206.7996"/>
</g>
<!-- Node43&#45;&gt;Node37 -->
<g id="edge59" class="edge">
<title>Node43&#45;&gt;Node37</title>
<path fill="none" stroke="#191970" d="M637.6264,-235.2455C623.0692,-226.5731 601.569,-213.7645 584.8848,-203.825"/>
<polygon fill="#191970" stroke="#191970" points="586.5683,-200.7539 576.1859,-198.6427 582.9856,-206.7676 586.5683,-200.7539"/>
</g>
<!-- Node44 -->
<g id="node45" class="node">
<title>Node44</title>
<g id="a_node45"><a xlink:href="BinaryOpPolicy_8h.html" target="_top" xlink:title="Math/BinaryOpPolicy.h">
<polygon fill="#ffffff" stroke="#000000" points="631.5,-179.5 631.5,-198.5 756.5,-198.5 756.5,-179.5 631.5,-179.5"/>
<text text-anchor="middle" x="694" y="-186.5" font-family="Helvetica,sans-Serif" font-size="10.00" fill="#000000">Math/BinaryOpPolicy.h</text>
</a>
</g>
</g>
<!-- Node43&#45;&gt;Node44 -->
<g id="edge57" class="edge">
<title>Node43&#45;&gt;Node44</title>
<path fill="none" stroke="#191970" d="M660.9675,-235.2455C666.5311,-227.4564 674.478,-216.3308 681.1829,-206.9439"/>
<polygon fill="#191970" stroke="#191970" points="684.148,-208.8144 687.1124,-198.6427 678.4519,-204.7457 684.148,-208.8144"/>
</g>
<!-- Node44&#45;&gt;Node4 -->
<g id="edge58" class="edge">
<title>Node44&#45;&gt;Node4</title>
<path fill="none" stroke="#191970" d="M743.6489,-179.4581C792.6043,-170.0495 868.4329,-155.4762 927.3382,-144.1553"/>
<polygon fill="#191970" stroke="#191970" points="928.2233,-147.5493 937.383,-142.2248 926.9021,-140.6751 928.2233,-147.5493"/>
</g>
<!-- Node45&#45;&gt;Node2 -->
<g id="edge61" class="edge">
<title>Node45&#45;&gt;Node2</title>
<path fill="none" stroke="#191970" d="M313.1679,-235.3733C292.6897,-226.3435 261.8601,-212.7494 238.8681,-202.6111"/>
<polygon fill="#191970" stroke="#191970" points="240.1093,-199.3333 229.5472,-198.5011 237.285,-205.7383 240.1093,-199.3333"/>
</g>
<!-- Node45&#45;&gt;Node37 -->
<g id="edge62" class="edge">
<title>Node45&#45;&gt;Node37</title>
<path fill="none" stroke="#191970" d="M373.4232,-235.4369C411.6875,-225.9133 470.5337,-211.2672 511.8849,-200.9753"/>
<polygon fill="#191970" stroke="#191970" points="512.8766,-204.3353 521.7353,-198.5237 511.1859,-197.5426 512.8766,-204.3353"/>
</g>
<!-- Node46&#45;&gt;Node2 -->
<g id="edge64" class="edge">
<title>Node46&#45;&gt;Node2</title>
<path fill="none" stroke="#191970" d="M199.388,-293.4749C162.549,-285.4182 110.9453,-271.5355 99,-255 76.4766,-223.8215 134.8246,-204.5503 174.5836,-195.3938"/>
<polygon fill="#191970" stroke="#191970" points="175.4563,-198.7858 184.4784,-193.2314 173.9617,-191.9472 175.4563,-198.7858"/>
</g>
</g>
</svg>
