<?xml version="1.0" encoding="UTF-8" standalone="no"?>
<!DOCTYPE svg PUBLIC "-//W3C//DTD SVG 1.1//EN"
 "http://www.w3.org/Graphics/SVG/1.1/DTD/svg11.dtd">
<!-- Generated by graphviz version 2.40.1 (0)
 -->
<!-- Title: montecarlo/eg/inc Pages: 1 -->
<svg width="133pt" height="295pt"
 viewBox="0.00 0.00 133.00 295.00" xmlns="http://www.w3.org/2000/svg" xmlns:xlink="http://www.w3.org/1999/xlink">
<g id="graph0" class="graph" transform="scale(1 1) rotate(0) translate(4 291)">
<title>montecarlo/eg/inc</title>
<polygon fill="#ffffff" stroke="transparent" points="-4,4 -4,-291 129,-291 129,4 -4,4"/>
<g id="clust1" class="cluster">
<title>clusterdir_44000d1fcb99ae7ff41236791a09795c</title>
<g id="a_clust1"><a xlink:href="dir_44000d1fcb99ae7ff41236791a09795c.html" target="_top" xlink:title="eg">
<polygon fill="#ddddee" stroke="#000000" points="8,-208 8,-279 78,-279 78,-208 8,-208"/>
<text text-anchor="middle" x="43" y="-267" font-family="Helvetica,sans-Serif" font-size="10.00" fill="#000000">eg</text>
</a>
</g>
</g>
<!-- dir_8742f6bcc5de831ec92ed69a40cf2c74 -->
<g id="node1" class="node">
<title>dir_8742f6bcc5de831ec92ed69a40cf2c74</title>
<g id="a_node1"><a xlink:href="dir_8742f6bcc5de831ec92ed69a40cf2c74.html" target="_top" xlink:title="inc">
<polygon fill="#eeeeff" stroke="#000000" points="70,-252 16,-252 16,-216 70,-216 70,-252"/>
<text text-anchor="middle" x="43" y="-231.5" font-family="Helvetica,sans-Serif" font-size="10.00" fill="#000000">inc</text>
</a>
</g>
</g>
<!-- dir_296d53ceaeaa7e099814a6def439fe8a -->
<g id="node2" class="node">
<title>dir_296d53ceaeaa7e099814a6def439fe8a</title>
<g id="a_node2"><a xlink:href="dir_296d53ceaeaa7e099814a6def439fe8a.html" target="_top" xlink:title="math">
<polygon fill="#ffffff" stroke="#ff0000" points="79,-108 25,-108 25,-72 79,-72 79,-108"/>
<text text-anchor="middle" x="52" y="-87.5" font-family="Helvetica,sans-Serif" font-size="10.00" fill="#000000">math</text>
</a>
</g>
</g>
<!-- dir_8742f6bcc5de831ec92ed69a40cf2c74&#45;&gt;dir_296d53ceaeaa7e099814a6def439fe8a -->
<g id="edge1" class="edge">
<title>dir_8742f6bcc5de831ec92ed69a40cf2c74&#45;&gt;dir_296d53ceaeaa7e099814a6def439fe8a</title>
<path fill="none" stroke="#000000" d="M44.1399,-215.7623C45.6749,-191.201 48.422,-147.2474 50.2279,-118.3541"/>
<polygon fill="#000000" stroke="#000000" points="53.7387,-118.2885 50.8694,-108.0896 46.7523,-117.8518 53.7387,-118.2885"/>
<g id="a_edge1&#45;headlabel"><a xlink:href="dir_000319_000024.html" target="_top" xlink:title="1">
<text text-anchor="middle" x="56.3483" y="-119.5532" font-family="Helvetica,sans-Serif" font-size="10.00" fill="#000000">1</text>
</a>
</g>
</g>
<!-- dir_4270bfced15e0e73154b13468c7c9ad9 -->
<g id="node3" class="node">
<title>dir_4270bfced15e0e73154b13468c7c9ad9</title>
<g id="a_node3"><a xlink:href="dir_4270bfced15e0e73154b13468c7c9ad9.html" target="_top" xlink:title="core">
<polygon fill="#ffffff" stroke="#ff0000" points="79,-36 25,-36 25,0 79,0 79,-36"/>
<text text-anchor="middle" x="52" y="-15.5" font-family="Helvetica,sans-Serif" font-size="10.00" fill="#000000">core</text>
</a>
</g>
</g>
<!-- dir_8742f6bcc5de831ec92ed69a40cf2c74&#45;&gt;dir_4270bfced15e0e73154b13468c7c9ad9 -->
<g id="edge2" class="edge">
<title>dir_8742f6bcc5de831ec92ed69a40cf2c74&#45;&gt;dir_4270bfced15e0e73154b13468c7c9ad9</title>
<path fill="none" stroke="#000000" d="M34.6006,-215.672C21.8485,-185.2772 .6316,-122.7585 16,-72 18.9564,-62.2355 24.3252,-52.6229 30.03,-44.2762"/>
<polygon fill="#000000" stroke="#000000" points="32.9414,-46.2239 36.0095,-36.0831 27.2871,-42.0973 32.9414,-46.2239"/>
<g id="a_edge2&#45;headlabel"><a xlink:href="dir_000319_000010.html" target="_top" xlink:title="17">
<text text-anchor="middle" x="33.1158" y="-48.3013" font-family="Helvetica,sans-Serif" font-size="10.00" fill="#000000">17</text>
</a>
</g>
</g>
<!-- dir_37205437067f26ba90f7befa678de445 -->
<g id="node4" class="node">
<title>dir_37205437067f26ba90f7befa678de445</title>
<g id="a_node4"><a xlink:href="dir_37205437067f26ba90f7befa678de445.html" target="_top" xlink:title="graf3d">
<polygon fill="#ffffff" stroke="#ff0000" points="125,-180 71,-180 71,-144 125,-144 125,-180"/>
<text text-anchor="middle" x="98" y="-159.5" font-family="Helvetica,sans-Serif" font-size="10.00" fill="#000000">graf3d</text>
</a>
</g>
</g>
<!-- dir_8742f6bcc5de831ec92ed69a40cf2c74&#45;&gt;dir_37205437067f26ba90f7befa678de445 -->
<g id="edge3" class="edge">
<title>dir_8742f6bcc5de831ec92ed69a40cf2c74&#45;&gt;dir_37205437067f26ba90f7befa678de445</title>
<path fill="none" stroke="#000000" d="M56.8788,-215.8314C63.2136,-207.5386 70.8384,-197.557 77.7926,-188.4533"/>
<polygon fill="#000000" stroke="#000000" points="80.6452,-190.4847 83.9343,-180.4133 75.0825,-186.2353 80.6452,-190.4847"/>
<g id="a_edge3&#45;headlabel"><a xlink:href="dir_000319_000018.html" target="_top" xlink:title="1">
<text text-anchor="middle" x="80.7195" y="-192.5647" font-family="Helvetica,sans-Serif" font-size="10.00" fill="#000000">1</text>
</a>
</g>
</g>
<!-- dir_296d53ceaeaa7e099814a6def439fe8a&#45;&gt;dir_4270bfced15e0e73154b13468c7c9ad9 -->
<g id="edge4" class="edge">
<title>dir_296d53ceaeaa7e099814a6def439fe8a&#45;&gt;dir_4270bfced15e0e73154b13468c7c9ad9</title>
<path fill="none" stroke="#000000" d="M52,-71.8314C52,-64.131 52,-54.9743 52,-46.4166"/>
<polygon fill="#000000" stroke="#000000" points="55.5001,-46.4132 52,-36.4133 48.5001,-46.4133 55.5001,-46.4132"/>
<g id="a_edge4&#45;headlabel"><a xlink:href="dir_000024_000010.html" target="_top" xlink:title="205">
<text text-anchor="middle" x="58.3393" y="-47.5079" font-family="Helvetica,sans-Serif" font-size="10.00" fill="#000000">205</text>
</a>
</g>
</g>
<!-- dir_37205437067f26ba90f7befa678de445&#45;&gt;dir_296d53ceaeaa7e099814a6def439fe8a -->
<g id="edge5" class="edge">
<title>dir_37205437067f26ba90f7befa678de445&#45;&gt;dir_296d53ceaeaa7e099814a6def439fe8a</title>
<path fill="none" stroke="#000000" d="M86.3923,-143.8314C81.2022,-135.7079 74.9768,-125.9637 69.2575,-117.0118"/>
<polygon fill="#000000" stroke="#000000" points="72.0974,-114.9559 63.764,-108.4133 66.1985,-118.7246 72.0974,-114.9559"/>
<g id="a_edge5&#45;headlabel"><a xlink:href="dir_000018_000024.html" target="_top" xlink:title="95">
<text text-anchor="middle" x="76.4253" y="-113.9564" font-family="Helvetica,sans-Serif" font-size="10.00" fill="#000000">95</text>
</a>
</g>
</g>
<!-- dir_37205437067f26ba90f7befa678de445&#45;&gt;dir_4270bfced15e0e73154b13468c7c9ad9 -->
<g id="edge6" class="edge">
<title>dir_37205437067f26ba90f7befa678de445&#45;&gt;dir_4270bfced15e0e73154b13468c7c9ad9</title>
<path fill="none" stroke="#000000" d="M98.4698,-143.842C98.3849,-125.248 96.6632,-95.7823 88,-72 84.5081,-62.414 78.9827,-52.8535 73.299,-44.4998"/>
<polygon fill="#000000" stroke="#000000" points="76.073,-42.3622 67.3975,-36.2807 70.387,-46.445 76.073,-42.3622"/>
<g id="a_edge6&#45;headlabel"><a xlink:href="dir_000018_000010.html" target="_top" xlink:title="707">
<text text-anchor="middle" x="80.4759" y="-41.1261" font-family="Helvetica,sans-Serif" font-size="10.00" fill="#000000">707</text>
</a>
</g>
</g>
</g>
</svg>
