<?xml version="1.0" encoding="UTF-8" standalone="no"?>
<!DOCTYPE svg PUBLIC "-//W3C//DTD SVG 1.1//EN"
 "http://www.w3.org/Graphics/SVG/1.1/DTD/svg11.dtd">
<!-- Generated by graphviz version 2.40.1 (0)
 -->
<!-- Title: graf2d/gpadv7/v7 Pages: 1 -->
<svg width="182pt" height="303pt"
 viewBox="0.00 0.00 182.00 303.00" xmlns="http://www.w3.org/2000/svg" xmlns:xlink="http://www.w3.org/1999/xlink">
<g id="graph0" class="graph" transform="scale(1 1) rotate(0) translate(4 299)">
<title>graf2d/gpadv7/v7</title>
<polygon fill="#ffffff" stroke="transparent" points="-4,4 -4,-299 178,-299 178,4 -4,4"/>
<g id="clust1" class="cluster">
<title>clusterdir_440e8bb2a4d8e463ed6a673507a28769</title>
<g id="a_clust1"><a xlink:href="dir_440e8bb2a4d8e463ed6a673507a28769.html" target="_top" xlink:title="gpadv7">
<polygon fill="#ddddee" stroke="#000000" points="8,-128 8,-287 166,-287 166,-128 8,-128"/>
<text text-anchor="middle" x="87" y="-275" font-family="Helvetica,sans-Serif" font-size="10.00" fill="#000000">gpadv7</text>
</a>
</g>
</g>
<g id="clust2" class="cluster">
<title>clusterdir_e3c80ee9ceeacb0a7e40d5ea9fb34475</title>
<g id="a_clust2"><a xlink:href="dir_e3c80ee9ceeacb0a7e40d5ea9fb34475.html" target="_top">
<polygon fill="#eeeeff" stroke="#000000" points="16,-136 16,-260 158,-260 158,-136 16,-136"/>
</a>
</g>
</g>
<!-- dir_e3c80ee9ceeacb0a7e40d5ea9fb34475 -->
<g id="node1" class="node">
<title>dir_e3c80ee9ceeacb0a7e40d5ea9fb34475</title>
<text text-anchor="middle" x="123" y="-231.5" font-family="Helvetica,sans-Serif" font-size="10.00" fill="#000000">v7</text>
</g>
<!-- dir_931c574309e56d2f8ec8e786ec7066c7 -->
<g id="node2" class="node">
<title>dir_931c574309e56d2f8ec8e786ec7066c7</title>
<g id="a_node2"><a xlink:href="dir_931c574309e56d2f8ec8e786ec7066c7.html" target="_top" xlink:title="inc">
<polygon fill="#ffffff" stroke="#ff0000" points="78,-180 24,-180 24,-144 78,-144 78,-180"/>
<text text-anchor="middle" x="51" y="-159.5" font-family="Helvetica,sans-Serif" font-size="10.00" fill="#000000">inc</text>
</a>
</g>
</g>
<!-- dir_4270bfced15e0e73154b13468c7c9ad9 -->
<g id="node4" class="node">
<title>dir_4270bfced15e0e73154b13468c7c9ad9</title>
<g id="a_node4"><a xlink:href="dir_4270bfced15e0e73154b13468c7c9ad9.html" target="_top" xlink:title="core">
<polygon fill="#ffffff" stroke="#ff0000" points="116,-108 62,-108 62,-72 116,-72 116,-108"/>
<text text-anchor="middle" x="89" y="-87.5" font-family="Helvetica,sans-Serif" font-size="10.00" fill="#000000">core</text>
</a>
</g>
</g>
<!-- dir_931c574309e56d2f8ec8e786ec7066c7&#45;&gt;dir_4270bfced15e0e73154b13468c7c9ad9 -->
<g id="edge6" class="edge">
<title>dir_931c574309e56d2f8ec8e786ec7066c7&#45;&gt;dir_4270bfced15e0e73154b13468c7c9ad9</title>
<path fill="none" stroke="#000000" d="M60.589,-143.8314C64.8317,-135.7925 69.9121,-126.1666 74.596,-117.2918"/>
<polygon fill="#000000" stroke="#000000" points="77.7096,-118.8908 79.2819,-108.4133 71.5189,-115.6235 77.7096,-118.8908"/>
<g id="a_edge6&#45;headlabel"><a xlink:href="dir_000126_000010.html" target="_top" xlink:title="6">
<text text-anchor="middle" x="78.5428" y="-120.895" font-family="Helvetica,sans-Serif" font-size="10.00" fill="#000000">6</text>
</a>
</g>
</g>
<!-- dir_371c961ca681628b1b0f0ad84cb39114 -->
<g id="node3" class="node">
<title>dir_371c961ca681628b1b0f0ad84cb39114</title>
<g id="a_node3"><a xlink:href="dir_371c961ca681628b1b0f0ad84cb39114.html" target="_top" xlink:title="src">
<polygon fill="#ffffff" stroke="#000000" points="78,-252 24,-252 24,-216 78,-216 78,-252"/>
<text text-anchor="middle" x="51" y="-231.5" font-family="Helvetica,sans-Serif" font-size="10.00" fill="#000000">src</text>
</a>
</g>
</g>
<!-- dir_371c961ca681628b1b0f0ad84cb39114&#45;&gt;dir_931c574309e56d2f8ec8e786ec7066c7 -->
<g id="edge3" class="edge">
<title>dir_371c961ca681628b1b0f0ad84cb39114&#45;&gt;dir_931c574309e56d2f8ec8e786ec7066c7</title>
<path fill="none" stroke="#000000" d="M51,-215.8314C51,-208.131 51,-198.9743 51,-190.4166"/>
<polygon fill="#000000" stroke="#000000" points="54.5001,-190.4132 51,-180.4133 47.5001,-190.4133 54.5001,-190.4132"/>
<g id="a_edge3&#45;headlabel"><a xlink:href="dir_000128_000126.html" target="_top" xlink:title="35">
<text text-anchor="middle" x="57.3393" y="-191.5079" font-family="Helvetica,sans-Serif" font-size="10.00" fill="#000000">35</text>
</a>
</g>
</g>
<!-- dir_371c961ca681628b1b0f0ad84cb39114&#45;&gt;dir_4270bfced15e0e73154b13468c7c9ad9 -->
<g id="edge1" class="edge">
<title>dir_371c961ca681628b1b0f0ad84cb39114&#45;&gt;dir_4270bfced15e0e73154b13468c7c9ad9</title>
<path fill="none" stroke="#000000" d="M66.8706,-215.8799C74.5011,-205.9899 82.8707,-193.1113 87,-180 93.2891,-160.031 93.5441,-136.3173 92.3578,-118.2457"/>
<polygon fill="#000000" stroke="#000000" points="95.8276,-117.739 91.5009,-108.0679 88.8523,-118.3263 95.8276,-117.739"/>
<g id="a_edge1&#45;headlabel"><a xlink:href="dir_000128_000010.html" target="_top" xlink:title="32">
<text text-anchor="middle" x="98.9583" y="-118.5828" font-family="Helvetica,sans-Serif" font-size="10.00" fill="#000000">32</text>
</a>
</g>
</g>
<!-- dir_bc161955dc3a3d2485839eba21420d01 -->
<g id="node5" class="node">
<title>dir_bc161955dc3a3d2485839eba21420d01</title>
<g id="a_node5"><a xlink:href="dir_bc161955dc3a3d2485839eba21420d01.html" target="_top" xlink:title="io">
<polygon fill="#ffffff" stroke="#ff0000" points="116,-36 62,-36 62,0 116,0 116,-36"/>
<text text-anchor="middle" x="89" y="-15.5" font-family="Helvetica,sans-Serif" font-size="10.00" fill="#000000">io</text>
</a>
</g>
</g>
<!-- dir_371c961ca681628b1b0f0ad84cb39114&#45;&gt;dir_bc161955dc3a3d2485839eba21420d01 -->
<g id="edge2" class="edge">
<title>dir_371c961ca681628b1b0f0ad84cb39114&#45;&gt;dir_bc161955dc3a3d2485839eba21420d01</title>
<path fill="none" stroke="#000000" d="M72.7319,-215.8711C83.1633,-206.1699 95.0838,-193.4632 103,-180 119.9598,-151.1561 120.0569,-141.0934 125,-108 127.3637,-92.1756 129.6365,-87.3135 125,-72 122.0436,-62.2355 116.6748,-52.6229 110.97,-44.2762"/>
<polygon fill="#000000" stroke="#000000" points="113.7129,-42.0973 104.9905,-36.0831 108.0586,-46.2239 113.7129,-42.0973"/>
<g id="a_edge2&#45;headlabel"><a xlink:href="dir_000128_000221.html" target="_top" xlink:title="1">
<text text-anchor="middle" x="118.1253" y="-40.827" font-family="Helvetica,sans-Serif" font-size="10.00" fill="#000000">1</text>
</a>
</g>
</g>
<!-- dir_4270bfced15e0e73154b13468c7c9ad9&#45;&gt;dir_bc161955dc3a3d2485839eba21420d01 -->
<g id="edge4" class="edge">
<title>dir_4270bfced15e0e73154b13468c7c9ad9&#45;&gt;dir_bc161955dc3a3d2485839eba21420d01</title>
<path fill="none" stroke="#000000" d="M83.0476,-71.8314C82.2972,-64.131 82.0763,-54.9743 82.3849,-46.4166"/>
<polygon fill="#000000" stroke="#000000" points="85.8792,-46.6161 83.024,-36.4133 78.8935,-46.1697 85.8792,-46.6161"/>
<g id="a_edge4&#45;headlabel"><a xlink:href="dir_000010_000221.html" target="_top" xlink:title="5">
<text text-anchor="middle" x="88.4836" y="-47.8844" font-family="Helvetica,sans-Serif" font-size="10.00" fill="#000000">5</text>
</a>
</g>
</g>
<!-- dir_bc161955dc3a3d2485839eba21420d01&#45;&gt;dir_4270bfced15e0e73154b13468c7c9ad9 -->
<g id="edge5" class="edge">
<title>dir_bc161955dc3a3d2485839eba21420d01&#45;&gt;dir_4270bfced15e0e73154b13468c7c9ad9</title>
<path fill="none" stroke="#000000" d="M94.976,-36.4133C95.7071,-44.0593 95.9203,-53.1084 95.6155,-61.5726"/>
<polygon fill="#000000" stroke="#000000" points="92.1048,-61.6264 94.9524,-71.8314 99.0902,-62.078 92.1048,-61.6264"/>
<g id="a_edge5&#45;headlabel"><a xlink:href="dir_000221_000010.html" target="_top" xlink:title="433">
<text text-anchor="middle" x="89.5032" y="-55.3562" font-family="Helvetica,sans-Serif" font-size="10.00" fill="#000000">433</text>
</a>
</g>
</g>
</g>
</svg>
