<?xml version="1.0" encoding="UTF-8" standalone="no"?>
<!DOCTYPE svg PUBLIC "-//W3C//DTD SVG 1.1//EN"
 "http://www.w3.org/Graphics/SVG/1.1/DTD/svg11.dtd">
<!-- Generated by graphviz version 2.40.1 (0)
 -->
<!-- Title: math/unuran/src Pages: 1 -->
<svg width="189pt" height="367pt"
 viewBox="0.00 0.00 189.43 367.00" xmlns="http://www.w3.org/2000/svg" xmlns:xlink="http://www.w3.org/1999/xlink">
<g id="graph0" class="graph" transform="scale(1 1) rotate(0) translate(4 363)">
<title>math/unuran/src</title>
<polygon fill="#ffffff" stroke="transparent" points="-4,4 -4,-363 185.4301,-363 185.4301,4 -4,4"/>
<g id="clust1" class="cluster">
<title>clusterdir_8a7def89b99c0e4d96b67561c273d07e</title>
<g id="a_clust1"><a xlink:href="dir_8a7def89b99c0e4d96b67561c273d07e.html" target="_top" xlink:title="unuran">
<polygon fill="#ddddee" stroke="#000000" points="40.4301,-280 40.4301,-351 110.4301,-351 110.4301,-280 40.4301,-280"/>
<text text-anchor="middle" x="75.4301" y="-339" font-family="Helvetica,sans-Serif" font-size="10.00" fill="#000000">unuran</text>
</a>
</g>
</g>
<!-- dir_1907c078be4bd8e3fb68106600076aeb -->
<g id="node1" class="node">
<title>dir_1907c078be4bd8e3fb68106600076aeb</title>
<g id="a_node1"><a xlink:href="dir_1907c078be4bd8e3fb68106600076aeb.html" target="_top" xlink:title="src">
<polygon fill="#eeeeff" stroke="#000000" points="102.4301,-324 48.4301,-324 48.4301,-288 102.4301,-288 102.4301,-324"/>
<text text-anchor="middle" x="75.4301" y="-303.5" font-family="Helvetica,sans-Serif" font-size="10.00" fill="#000000">src</text>
</a>
</g>
</g>
<!-- dir_79c030ac71c6516976d5abab51772218 -->
<g id="node2" class="node">
<title>dir_79c030ac71c6516976d5abab51772218</title>
<g id="a_node2"><a xlink:href="dir_79c030ac71c6516976d5abab51772218.html" target="_top" xlink:title="mathcore">
<polygon fill="#ffffff" stroke="#ff0000" points="75.9301,-180 12.9301,-180 12.9301,-144 75.9301,-144 75.9301,-180"/>
<text text-anchor="middle" x="44.4301" y="-159.5" font-family="Helvetica,sans-Serif" font-size="10.00" fill="#000000">mathcore</text>
</a>
</g>
</g>
<!-- dir_1907c078be4bd8e3fb68106600076aeb&#45;&gt;dir_79c030ac71c6516976d5abab51772218 -->
<g id="edge3" class="edge">
<title>dir_1907c078be4bd8e3fb68106600076aeb&#45;&gt;dir_79c030ac71c6516976d5abab51772218</title>
<path fill="none" stroke="#000000" d="M71.5039,-287.7623C66.1931,-263.0928 56.6707,-218.8598 50.4521,-189.9731"/>
<polygon fill="#000000" stroke="#000000" points="53.8506,-189.129 48.3244,-180.0896 47.0074,-190.6023 53.8506,-189.129"/>
<g id="a_edge3&#45;headlabel"><a xlink:href="dir_000308_000025.html" target="_top" xlink:title="8">
<text text-anchor="middle" x="57.3827" y="-189.5456" font-family="Helvetica,sans-Serif" font-size="10.00" fill="#000000">8</text>
</a>
</g>
</g>
<!-- dir_4270bfced15e0e73154b13468c7c9ad9 -->
<g id="node3" class="node">
<title>dir_4270bfced15e0e73154b13468c7c9ad9</title>
<g id="a_node3"><a xlink:href="dir_4270bfced15e0e73154b13468c7c9ad9.html" target="_top" xlink:title="core">
<polygon fill="#ffffff" stroke="#ff0000" points="85.4301,-36 31.4301,-36 31.4301,0 85.4301,0 85.4301,-36"/>
<text text-anchor="middle" x="58.4301" y="-15.5" font-family="Helvetica,sans-Serif" font-size="10.00" fill="#000000">core</text>
</a>
</g>
</g>
<!-- dir_1907c078be4bd8e3fb68106600076aeb&#45;&gt;dir_4270bfced15e0e73154b13468c7c9ad9 -->
<g id="edge4" class="edge">
<title>dir_1907c078be4bd8e3fb68106600076aeb&#45;&gt;dir_4270bfced15e0e73154b13468c7c9ad9</title>
<path fill="none" stroke="#000000" d="M60.854,-287.733C43.2312,-264.3641 14.5527,-221.8829 3.4301,-180 -9.4613,-131.4565 18.6763,-76.3586 39.2642,-44.5464"/>
<polygon fill="#000000" stroke="#000000" points="42.1848,-46.4752 44.8305,-36.216 36.3646,-42.5861 42.1848,-46.4752"/>
<g id="a_edge4&#45;headlabel"><a xlink:href="dir_000308_000010.html" target="_top" xlink:title="3">
<text text-anchor="middle" x="42.5486" y="-48.5414" font-family="Helvetica,sans-Serif" font-size="10.00" fill="#000000">3</text>
</a>
</g>
</g>
<!-- dir_8b9334156f3646fccf89e63b9869c7f9 -->
<g id="node4" class="node">
<title>dir_8b9334156f3646fccf89e63b9869c7f9</title>
<g id="a_node4"><a xlink:href="dir_8b9334156f3646fccf89e63b9869c7f9.html" target="_top" xlink:title="hist">
<polygon fill="#ffffff" stroke="#ff0000" points="113.4301,-108 59.4301,-108 59.4301,-72 113.4301,-72 113.4301,-108"/>
<text text-anchor="middle" x="86.4301" y="-87.5" font-family="Helvetica,sans-Serif" font-size="10.00" fill="#000000">hist</text>
</a>
</g>
</g>
<!-- dir_1907c078be4bd8e3fb68106600076aeb&#45;&gt;dir_8b9334156f3646fccf89e63b9869c7f9 -->
<g id="edge5" class="edge">
<title>dir_1907c078be4bd8e3fb68106600076aeb&#45;&gt;dir_8b9334156f3646fccf89e63b9869c7f9</title>
<path fill="none" stroke="#000000" d="M77.0241,-287.6538C79.0891,-263.1399 82.636,-218.3368 84.4301,-180 85.392,-159.4437 85.8936,-136.224 86.1538,-118.5188"/>
<polygon fill="#000000" stroke="#000000" points="89.6565,-118.3252 86.2866,-108.2806 82.6571,-118.2343 89.6565,-118.3252"/>
<g id="a_edge5&#45;headlabel"><a xlink:href="dir_000308_000183.html" target="_top" xlink:title="9">
<text text-anchor="middle" x="92.449" y="-119.4563" font-family="Helvetica,sans-Serif" font-size="10.00" fill="#000000">9</text>
</a>
</g>
</g>
<!-- dir_f1ef3d1e8f2d0dc6243ec6528ce6d5a1 -->
<g id="node5" class="node">
<title>dir_f1ef3d1e8f2d0dc6243ec6528ce6d5a1</title>
<g id="a_node5"><a xlink:href="dir_f1ef3d1e8f2d0dc6243ec6528ce6d5a1.html" target="_top" xlink:title="inc">
<polygon fill="none" stroke="#000000" points="181.4301,-252 127.4301,-252 127.4301,-216 181.4301,-216 181.4301,-252"/>
<text text-anchor="middle" x="154.4301" y="-231.5" font-family="Helvetica,sans-Serif" font-size="10.00" fill="#000000">inc</text>
</a>
</g>
</g>
<!-- dir_1907c078be4bd8e3fb68106600076aeb&#45;&gt;dir_f1ef3d1e8f2d0dc6243ec6528ce6d5a1 -->
<g id="edge6" class="edge">
<title>dir_1907c078be4bd8e3fb68106600076aeb&#45;&gt;dir_f1ef3d1e8f2d0dc6243ec6528ce6d5a1</title>
<path fill="none" stroke="#000000" d="M95.3651,-287.8314C104.9083,-279.1337 116.4899,-268.5783 126.8607,-259.1265"/>
<polygon fill="#000000" stroke="#000000" points="129.4681,-261.4857 134.5014,-252.1628 124.7528,-256.3121 129.4681,-261.4857"/>
<g id="a_edge6&#45;headlabel"><a xlink:href="dir_000308_000307.html" target="_top" xlink:title="17">
<text text-anchor="middle" x="128.7239" y="-263.5055" font-family="Helvetica,sans-Serif" font-size="10.00" fill="#000000">17</text>
</a>
</g>
</g>
<!-- dir_79c030ac71c6516976d5abab51772218&#45;&gt;dir_4270bfced15e0e73154b13468c7c9ad9 -->
<g id="edge1" class="edge">
<title>dir_79c030ac71c6516976d5abab51772218&#45;&gt;dir_4270bfced15e0e73154b13468c7c9ad9</title>
<path fill="none" stroke="#000000" d="M45.2181,-143.6911C46.1037,-125.4793 47.7753,-96.757 50.4301,-72 51.3253,-63.6515 52.559,-54.6141 53.7897,-46.3644"/>
<polygon fill="#000000" stroke="#000000" points="57.2539,-46.8644 55.3213,-36.4473 50.3359,-45.7959 57.2539,-46.8644"/>
<g id="a_edge1&#45;headlabel"><a xlink:href="dir_000025_000010.html" target="_top" xlink:title="50">
<text text-anchor="middle" x="59.5114" y="-48.3502" font-family="Helvetica,sans-Serif" font-size="10.00" fill="#000000">50</text>
</a>
</g>
</g>
<!-- dir_79c030ac71c6516976d5abab51772218&#45;&gt;dir_8b9334156f3646fccf89e63b9869c7f9 -->
<g id="edge2" class="edge">
<title>dir_79c030ac71c6516976d5abab51772218&#45;&gt;dir_8b9334156f3646fccf89e63b9869c7f9</title>
<path fill="none" stroke="#000000" d="M49.0761,-143.8314C53.0231,-135.7079 58.5048,-125.9637 64.1138,-117.0118"/>
<polygon fill="#000000" stroke="#000000" points="67.1891,-118.7031 69.713,-108.4133 61.3231,-114.8833 67.1891,-118.7031"/>
<g id="a_edge2&#45;headlabel"><a xlink:href="dir_000025_000183.html" target="_top" xlink:title="1">
<text text-anchor="middle" x="67.6069" y="-120.7647" font-family="Helvetica,sans-Serif" font-size="10.00" fill="#000000">1</text>
</a>
</g>
</g>
<!-- dir_8b9334156f3646fccf89e63b9869c7f9&#45;&gt;dir_79c030ac71c6516976d5abab51772218 -->
<g id="edge7" class="edge">
<title>dir_8b9334156f3646fccf89e63b9869c7f9&#45;&gt;dir_79c030ac71c6516976d5abab51772218</title>
<path fill="none" stroke="#000000" d="M81.665,-108.4133C77.6873,-116.569 72.1891,-126.3212 66.5778,-135.257"/>
<polygon fill="#000000" stroke="#000000" points="63.5161,-133.5443 60.9808,-143.8314 69.3778,-137.3706 63.5161,-133.5443"/>
<g id="a_edge7&#45;headlabel"><a xlink:href="dir_000183_000025.html" target="_top" xlink:title="179">
<text text-anchor="middle" x="63.1033" y="-126.4823" font-family="Helvetica,sans-Serif" font-size="10.00" fill="#000000">179</text>
</a>
</g>
</g>
<!-- dir_8b9334156f3646fccf89e63b9869c7f9&#45;&gt;dir_4270bfced15e0e73154b13468c7c9ad9 -->
<g id="edge8" class="edge">
<title>dir_8b9334156f3646fccf89e63b9869c7f9&#45;&gt;dir_4270bfced15e0e73154b13468c7c9ad9</title>
<path fill="none" stroke="#000000" d="M79.3645,-71.8314C76.3041,-63.9617 72.6522,-54.5712 69.2619,-45.8533"/>
<polygon fill="#000000" stroke="#000000" points="72.4773,-44.4647 65.5908,-36.4133 65.9533,-47.0019 72.4773,-44.4647"/>
<g id="a_edge8&#45;headlabel"><a xlink:href="dir_000183_000010.html" target="_top" xlink:title="420">
<text text-anchor="middle" x="76.4263" y="-44.2859" font-family="Helvetica,sans-Serif" font-size="10.00" fill="#000000">420</text>
</a>
</g>
</g>
<!-- dir_f1ef3d1e8f2d0dc6243ec6528ce6d5a1&#45;&gt;dir_79c030ac71c6516976d5abab51772218 -->
<g id="edge9" class="edge">
<title>dir_f1ef3d1e8f2d0dc6243ec6528ce6d5a1&#45;&gt;dir_79c030ac71c6516976d5abab51772218</title>
<path fill="none" stroke="#000000" d="M127.2391,-216.2022C113.1986,-207.0121 95.877,-195.6744 80.7114,-185.7478"/>
<polygon fill="#000000" stroke="#000000" points="82.3562,-182.6413 72.0723,-180.0931 78.5225,-188.4982 82.3562,-182.6413"/>
<g id="a_edge9&#45;headlabel"><a xlink:href="dir_000307_000025.html" target="_top" xlink:title="4">
<text text-anchor="middle" x="86.9187" y="-179.7343" font-family="Helvetica,sans-Serif" font-size="10.00" fill="#000000">4</text>
</a>
</g>
</g>
<!-- dir_f1ef3d1e8f2d0dc6243ec6528ce6d5a1&#45;&gt;dir_4270bfced15e0e73154b13468c7c9ad9 -->
<g id="edge10" class="edge">
<title>dir_f1ef3d1e8f2d0dc6243ec6528ce6d5a1&#45;&gt;dir_4270bfced15e0e73154b13468c7c9ad9</title>
<path fill="none" stroke="#000000" d="M154.6478,-215.6106C154.2239,-184.0361 149.7919,-118.4347 122.4301,-72 115.3137,-59.9231 104.4788,-49.2831 93.7361,-40.7108"/>
<polygon fill="#000000" stroke="#000000" points="95.6917,-37.8017 85.6021,-34.569 91.4735,-43.3881 95.6917,-37.8017"/>
<g id="a_edge10&#45;headlabel"><a xlink:href="dir_000307_000010.html" target="_top" xlink:title="1">
<text text-anchor="middle" x="100.2713" y="-35.2019" font-family="Helvetica,sans-Serif" font-size="10.00" fill="#000000">1</text>
</a>
</g>
</g>
</g>
</svg>
