<?xml version="1.0" encoding="UTF-8" standalone="no"?>
<!DOCTYPE svg PUBLIC "-//W3C//DTD SVG 1.1//EN"
 "http://www.w3.org/Graphics/SVG/1.1/DTD/svg11.dtd">
<!-- Generated by graphviz version 2.40.1 (0)
 -->
<!-- Title: gui/guihtml/inc Pages: 1 -->
<svg width="105pt" height="223pt"
 viewBox="0.00 0.00 105.00 223.00" xmlns="http://www.w3.org/2000/svg" xmlns:xlink="http://www.w3.org/1999/xlink">
<g id="graph0" class="graph" transform="scale(1 1) rotate(0) translate(4 219)">
<title>gui/guihtml/inc</title>
<polygon fill="#ffffff" stroke="transparent" points="-4,4 -4,-219 101,-219 101,4 -4,4"/>
<g id="clust1" class="cluster">
<title>clusterdir_6dd1ac99910cbae2b2f7db7275b69fec</title>
<g id="a_clust1"><a xlink:href="dir_6dd1ac99910cbae2b2f7db7275b69fec.html" target="_top" xlink:title="guihtml">
<polygon fill="#ddddee" stroke="#000000" points="8,-136 8,-207 78,-207 78,-136 8,-136"/>
<text text-anchor="middle" x="43" y="-195" font-family="Helvetica,sans-Serif" font-size="10.00" fill="#000000">guihtml</text>
</a>
</g>
</g>
<!-- dir_5947610ec980910788cf9725c1c83fbb -->
<g id="node1" class="node">
<title>dir_5947610ec980910788cf9725c1c83fbb</title>
<g id="a_node1"><a xlink:href="dir_5947610ec980910788cf9725c1c83fbb.html" target="_top" xlink:title="inc">
<polygon fill="#eeeeff" stroke="#000000" points="70,-180 16,-180 16,-144 70,-144 70,-180"/>
<text text-anchor="middle" x="43" y="-159.5" font-family="Helvetica,sans-Serif" font-size="10.00" fill="#000000">inc</text>
</a>
</g>
</g>
<!-- dir_4270bfced15e0e73154b13468c7c9ad9 -->
<g id="node2" class="node">
<title>dir_4270bfced15e0e73154b13468c7c9ad9</title>
<g id="a_node2"><a xlink:href="dir_4270bfced15e0e73154b13468c7c9ad9.html" target="_top" xlink:title="core">
<polygon fill="#ffffff" stroke="#ff0000" points="69,-36 15,-36 15,0 69,0 69,-36"/>
<text text-anchor="middle" x="42" y="-15.5" font-family="Helvetica,sans-Serif" font-size="10.00" fill="#000000">core</text>
</a>
</g>
</g>
<!-- dir_5947610ec980910788cf9725c1c83fbb&#45;&gt;dir_4270bfced15e0e73154b13468c7c9ad9 -->
<g id="edge1" class="edge">
<title>dir_5947610ec980910788cf9725c1c83fbb&#45;&gt;dir_4270bfced15e0e73154b13468c7c9ad9</title>
<path fill="none" stroke="#000000" d="M39.1587,-143.6001C37.1834,-133.2025 34.9877,-119.9346 34,-108 32.6803,-92.0545 32.8244,-87.9568 34,-72 34.6169,-63.6264 35.7649,-54.5812 37.0026,-46.3322"/>
<polygon fill="#000000" stroke="#000000" points="40.4648,-46.8463 38.585,-36.4196 33.5523,-45.7428 40.4648,-46.8463"/>
<g id="a_edge1&#45;headlabel"><a xlink:href="dir_000175_000010.html" target="_top" xlink:title="1">
<text text-anchor="middle" x="42.702" y="-48.3436" font-family="Helvetica,sans-Serif" font-size="10.00" fill="#000000">1</text>
</a>
</g>
</g>
<!-- dir_168a153a33c7b994ede5e1099e6c87b0 -->
<g id="node3" class="node">
<title>dir_168a153a33c7b994ede5e1099e6c87b0</title>
<g id="a_node3"><a xlink:href="dir_168a153a33c7b994ede5e1099e6c87b0.html" target="_top" xlink:title="gui">
<polygon fill="#ffffff" stroke="#ff0000" points="97,-108 43,-108 43,-72 97,-72 97,-108"/>
<text text-anchor="middle" x="70" y="-87.5" font-family="Helvetica,sans-Serif" font-size="10.00" fill="#000000">gui</text>
</a>
</g>
</g>
<!-- dir_5947610ec980910788cf9725c1c83fbb&#45;&gt;dir_168a153a33c7b994ede5e1099e6c87b0 -->
<g id="edge2" class="edge">
<title>dir_5947610ec980910788cf9725c1c83fbb&#45;&gt;dir_168a153a33c7b994ede5e1099e6c87b0</title>
<path fill="none" stroke="#000000" d="M49.8132,-143.8314C52.7644,-135.9617 56.2858,-126.5712 59.555,-117.8533"/>
<polygon fill="#000000" stroke="#000000" points="62.8609,-119.0055 63.095,-108.4133 56.3066,-116.5476 62.8609,-119.0055"/>
<g id="a_edge2&#45;headlabel"><a xlink:href="dir_000175_000022.html" target="_top" xlink:title="2">
<text text-anchor="middle" x="64.2573" y="-120.8682" font-family="Helvetica,sans-Serif" font-size="10.00" fill="#000000">2</text>
</a>
</g>
</g>
<!-- dir_168a153a33c7b994ede5e1099e6c87b0&#45;&gt;dir_4270bfced15e0e73154b13468c7c9ad9 -->
<g id="edge3" class="edge">
<title>dir_168a153a33c7b994ede5e1099e6c87b0&#45;&gt;dir_4270bfced15e0e73154b13468c7c9ad9</title>
<path fill="none" stroke="#000000" d="M62.9344,-71.8314C59.874,-63.9617 56.2221,-54.5712 52.8318,-45.8533"/>
<polygon fill="#000000" stroke="#000000" points="56.0473,-44.4647 49.1607,-36.4133 49.5232,-47.0019 56.0473,-44.4647"/>
<g id="a_edge3&#45;headlabel"><a xlink:href="dir_000022_000010.html" target="_top" xlink:title="404">
<text text-anchor="middle" x="59.9963" y="-44.2859" font-family="Helvetica,sans-Serif" font-size="10.00" fill="#000000">404</text>
</a>
</g>
</g>
</g>
</svg>
