<?xml version="1.0" encoding="UTF-8" standalone="no"?>
<!DOCTYPE svg PUBLIC "-//W3C//DTD SVG 1.1//EN"
 "http://www.w3.org/Graphics/SVG/1.1/DTD/svg11.dtd">
<!-- Generated by graphviz version 2.40.1 (0)
 -->
<!-- Title: tmva/tmva/inc Pages: 1 -->
<svg width="382pt" height="447pt"
 viewBox="0.00 0.00 382.00 447.00" xmlns="http://www.w3.org/2000/svg" xmlns:xlink="http://www.w3.org/1999/xlink">
<g id="graph0" class="graph" transform="scale(1 1) rotate(0) translate(4 443)">
<title>tmva/tmva/inc</title>
<polygon fill="#ffffff" stroke="transparent" points="-4,4 -4,-443 378,-443 378,4 -4,4"/>
<g id="clust1" class="cluster">
<title>clusterdir_ed3dab6383bd5f321850908cd5a1281f</title>
<g id="a_clust1"><a xlink:href="dir_ed3dab6383bd5f321850908cd5a1281f.html" target="_top" xlink:title="tmva">
<polygon fill="#ddddee" stroke="#000000" points="189,-344 189,-431 347,-431 347,-344 189,-344"/>
<text text-anchor="middle" x="268" y="-419" font-family="Helvetica,sans-Serif" font-size="10.00" fill="#000000">tmva</text>
</a>
</g>
</g>
<g id="clust2" class="cluster">
<title>clusterdir_e5f324a990c4e53e87e3a4847f1d2164</title>
<g id="a_clust2"><a xlink:href="dir_e5f324a990c4e53e87e3a4847f1d2164.html" target="_top">
<polygon fill="#eeeeff" stroke="#000000" points="197,-352 197,-404 339,-404 339,-352 197,-352"/>
</a>
</g>
</g>
<!-- dir_e5f324a990c4e53e87e3a4847f1d2164 -->
<g id="node1" class="node">
<title>dir_e5f324a990c4e53e87e3a4847f1d2164</title>
<text text-anchor="middle" x="304" y="-375.5" font-family="Helvetica,sans-Serif" font-size="10.00" fill="#000000">inc</text>
</g>
<!-- dir_b2d93ebd3f51b5d9cf703b0851621985 -->
<g id="node2" class="node">
<title>dir_b2d93ebd3f51b5d9cf703b0851621985</title>
<g id="a_node2"><a xlink:href="dir_b2d93ebd3f51b5d9cf703b0851621985.html" target="_top" xlink:title="TMVA">
<polygon fill="#ffffff" stroke="#ff0000" points="259,-396 205,-396 205,-360 259,-360 259,-396"/>
<text text-anchor="middle" x="232" y="-375.5" font-family="Helvetica,sans-Serif" font-size="10.00" fill="#000000">TMVA</text>
</a>
</g>
</g>
<!-- dir_296d53ceaeaa7e099814a6def439fe8a -->
<g id="node3" class="node">
<title>dir_296d53ceaeaa7e099814a6def439fe8a</title>
<g id="a_node3"><a xlink:href="dir_296d53ceaeaa7e099814a6def439fe8a.html" target="_top" xlink:title="math">
<polygon fill="#ffffff" stroke="#ff0000" points="130,-396 76,-396 76,-360 130,-360 130,-396"/>
<text text-anchor="middle" x="103" y="-375.5" font-family="Helvetica,sans-Serif" font-size="10.00" fill="#000000">math</text>
</a>
</g>
</g>
<!-- dir_b2d93ebd3f51b5d9cf703b0851621985&#45;&gt;dir_296d53ceaeaa7e099814a6def439fe8a -->
<g id="edge18" class="edge">
<title>dir_b2d93ebd3f51b5d9cf703b0851621985&#45;&gt;dir_296d53ceaeaa7e099814a6def439fe8a</title>
<path fill="none" stroke="#000000" d="M204.9623,-378C183.4518,-378 161.9413,-378 140.4308,-378"/>
<polygon fill="#000000" stroke="#000000" points="140.211,-374.5001 130.2109,-378 140.2109,-381.5001 140.211,-374.5001"/>
<g id="a_edge18&#45;headlabel"><a xlink:href="dir_000268_000024.html" target="_top" xlink:title="53">
<text text-anchor="middle" x="143.8056" y="-369.1607" font-family="Helvetica,sans-Serif" font-size="10.00" fill="#000000">53</text>
</a>
</g>
</g>
<!-- dir_70093cb3a9d1f8840af4e997fde867c3 -->
<g id="node4" class="node">
<title>dir_70093cb3a9d1f8840af4e997fde867c3</title>
<g id="a_node4"><a xlink:href="dir_70093cb3a9d1f8840af4e997fde867c3.html" target="_top" xlink:title="tree">
<polygon fill="#ffffff" stroke="#ff0000" points="232,-324 178,-324 178,-288 232,-288 232,-324"/>
<text text-anchor="middle" x="205" y="-303.5" font-family="Helvetica,sans-Serif" font-size="10.00" fill="#000000">tree</text>
</a>
</g>
</g>
<!-- dir_b2d93ebd3f51b5d9cf703b0851621985&#45;&gt;dir_70093cb3a9d1f8840af4e997fde867c3 -->
<g id="edge19" class="edge">
<title>dir_b2d93ebd3f51b5d9cf703b0851621985&#45;&gt;dir_70093cb3a9d1f8840af4e997fde867c3</title>
<path fill="none" stroke="#000000" d="M225.1868,-359.8314C222.2356,-351.9617 218.7142,-342.5712 215.445,-333.8533"/>
<polygon fill="#000000" stroke="#000000" points="218.6934,-332.5476 211.905,-324.4133 212.1391,-335.0055 218.6934,-332.5476"/>
<g id="a_edge19&#45;headlabel"><a xlink:href="dir_000268_000427.html" target="_top" xlink:title="16">
<text text-anchor="middle" x="222.614" y="-332.4164" font-family="Helvetica,sans-Serif" font-size="10.00" fill="#000000">16</text>
</a>
</g>
</g>
<!-- dir_4270bfced15e0e73154b13468c7c9ad9 -->
<g id="node5" class="node">
<title>dir_4270bfced15e0e73154b13468c7c9ad9</title>
<g id="a_node5"><a xlink:href="dir_4270bfced15e0e73154b13468c7c9ad9.html" target="_top" xlink:title="core">
<polygon fill="#ffffff" stroke="#ff0000" points="249,-36 195,-36 195,0 249,0 249,-36"/>
<text text-anchor="middle" x="222" y="-15.5" font-family="Helvetica,sans-Serif" font-size="10.00" fill="#000000">core</text>
</a>
</g>
</g>
<!-- dir_b2d93ebd3f51b5d9cf703b0851621985&#45;&gt;dir_4270bfced15e0e73154b13468c7c9ad9 -->
<g id="edge20" class="edge">
<title>dir_b2d93ebd3f51b5d9cf703b0851621985&#45;&gt;dir_4270bfced15e0e73154b13468c7c9ad9</title>
<path fill="none" stroke="#000000" d="M251.1508,-359.9572C289.9107,-323.2589 374,-242.646 374,-234 374,-234 374,-234 374,-162 374,-98.5382 303.3092,-54.6632 258.3444,-33.1743"/>
<polygon fill="#000000" stroke="#000000" points="259.7197,-29.9542 249.1746,-28.9296 256.7792,-36.3066 259.7197,-29.9542"/>
<g id="a_edge20&#45;headlabel"><a xlink:href="dir_000268_000010.html" target="_top" xlink:title="138">
<text text-anchor="middle" x="264.1745" y="-26.3875" font-family="Helvetica,sans-Serif" font-size="10.00" fill="#000000">138</text>
</a>
</g>
</g>
<!-- dir_8b9334156f3646fccf89e63b9869c7f9 -->
<g id="node6" class="node">
<title>dir_8b9334156f3646fccf89e63b9869c7f9</title>
<g id="a_node6"><a xlink:href="dir_8b9334156f3646fccf89e63b9869c7f9.html" target="_top" xlink:title="hist">
<polygon fill="#ffffff" stroke="#ff0000" points="194,-180 140,-180 140,-144 194,-144 194,-180"/>
<text text-anchor="middle" x="167" y="-159.5" font-family="Helvetica,sans-Serif" font-size="10.00" fill="#000000">hist</text>
</a>
</g>
</g>
<!-- dir_b2d93ebd3f51b5d9cf703b0851621985&#45;&gt;dir_8b9334156f3646fccf89e63b9869c7f9 -->
<g id="edge21" class="edge">
<title>dir_b2d93ebd3f51b5d9cf703b0851621985&#45;&gt;dir_8b9334156f3646fccf89e63b9869c7f9</title>
<path fill="none" stroke="#000000" d="M237.048,-359.892C241.3961,-341.5893 246.2157,-312.5774 241,-288 232.8973,-249.8183 207.8042,-212.0187 189.0705,-187.9338"/>
<polygon fill="#000000" stroke="#000000" points="191.7201,-185.6427 182.7476,-180.0084 186.2481,-190.0083 191.7201,-185.6427"/>
<g id="a_edge21&#45;headlabel"><a xlink:href="dir_000268_000183.html" target="_top" xlink:title="31">
<text text-anchor="middle" x="196.1813" y="-184.1819" font-family="Helvetica,sans-Serif" font-size="10.00" fill="#000000">31</text>
</a>
</g>
</g>
<!-- dir_bc161955dc3a3d2485839eba21420d01 -->
<g id="node7" class="node">
<title>dir_bc161955dc3a3d2485839eba21420d01</title>
<g id="a_node7"><a xlink:href="dir_bc161955dc3a3d2485839eba21420d01.html" target="_top" xlink:title="io">
<polygon fill="#ffffff" stroke="#ff0000" points="249,-108 195,-108 195,-72 249,-72 249,-108"/>
<text text-anchor="middle" x="222" y="-87.5" font-family="Helvetica,sans-Serif" font-size="10.00" fill="#000000">io</text>
</a>
</g>
</g>
<!-- dir_b2d93ebd3f51b5d9cf703b0851621985&#45;&gt;dir_bc161955dc3a3d2485839eba21420d01 -->
<g id="edge22" class="edge">
<title>dir_b2d93ebd3f51b5d9cf703b0851621985&#45;&gt;dir_bc161955dc3a3d2485839eba21420d01</title>
<path fill="none" stroke="#000000" d="M242.4559,-359.6605C247.6458,-349.5026 253.3591,-336.4443 256,-324 271.6606,-250.2039 247.3174,-161.7761 232.3334,-117.7501"/>
<polygon fill="#000000" stroke="#000000" points="235.5442,-116.3291 228.9355,-108.0481 228.9377,-118.6429 235.5442,-116.3291"/>
<g id="a_edge22&#45;headlabel"><a xlink:href="dir_000268_000221.html" target="_top" xlink:title="2">
<text text-anchor="middle" x="239.412" y="-116.2832" font-family="Helvetica,sans-Serif" font-size="10.00" fill="#000000">2</text>
</a>
</g>
</g>
<!-- dir_2486e8ffb12756dbae41708f4979a859 -->
<g id="node8" class="node">
<title>dir_2486e8ffb12756dbae41708f4979a859</title>
<g id="a_node8"><a xlink:href="dir_2486e8ffb12756dbae41708f4979a859.html" target="_top" xlink:title="graf2d">
<polygon fill="#ffffff" stroke="#ff0000" points="138,-252 84,-252 84,-216 138,-216 138,-252"/>
<text text-anchor="middle" x="111" y="-231.5" font-family="Helvetica,sans-Serif" font-size="10.00" fill="#000000">graf2d</text>
</a>
</g>
</g>
<!-- dir_b2d93ebd3f51b5d9cf703b0851621985&#45;&gt;dir_2486e8ffb12756dbae41708f4979a859 -->
<g id="edge23" class="edge">
<title>dir_b2d93ebd3f51b5d9cf703b0851621985&#45;&gt;dir_2486e8ffb12756dbae41708f4979a859</title>
<path fill="none" stroke="#000000" d="M207.7829,-359.9889C195.4026,-350.1287 180.553,-337.2439 169,-324 152.0656,-304.5871 136.4685,-279.8171 125.7237,-261.1793"/>
<polygon fill="#000000" stroke="#000000" points="128.6792,-259.2951 120.7102,-252.3133 122.5859,-262.7407 128.6792,-259.2951"/>
<g id="a_edge23&#45;headlabel"><a xlink:href="dir_000268_000111.html" target="_top" xlink:title="1">
<text text-anchor="middle" x="132.92" y="-258.5265" font-family="Helvetica,sans-Serif" font-size="10.00" fill="#000000">1</text>
</a>
</g>
</g>
<!-- dir_296d53ceaeaa7e099814a6def439fe8a&#45;&gt;dir_b2d93ebd3f51b5d9cf703b0851621985 -->
<g id="edge4" class="edge">
<title>dir_296d53ceaeaa7e099814a6def439fe8a&#45;&gt;dir_b2d93ebd3f51b5d9cf703b0851621985</title>
<path fill="none" stroke="#000000" d="M130.2109,-378C151.7214,-378 173.2319,-378 194.7424,-378"/>
<polygon fill="#000000" stroke="#000000" points="194.9623,-381.5001 204.9623,-378 194.9622,-374.5001 194.9623,-381.5001"/>
<g id="a_edge4&#45;headlabel"><a xlink:href="dir_000024_000268.html" target="_top" xlink:title="2">
<text text-anchor="middle" x="191.3677" y="-381.8393" font-family="Helvetica,sans-Serif" font-size="10.00" fill="#000000">2</text>
</a>
</g>
</g>
<!-- dir_296d53ceaeaa7e099814a6def439fe8a&#45;&gt;dir_70093cb3a9d1f8840af4e997fde867c3 -->
<g id="edge1" class="edge">
<title>dir_296d53ceaeaa7e099814a6def439fe8a&#45;&gt;dir_70093cb3a9d1f8840af4e997fde867c3</title>
<path fill="none" stroke="#000000" d="M122.7865,-359.8314C136.0484,-349.7785 153.7286,-337.2439 169.3495,-326.7999"/>
<polygon fill="#000000" stroke="#000000" points="171.3548,-329.6701 177.7748,-321.2418 167.5001,-323.8269 171.3548,-329.6701"/>
<g id="a_edge1&#45;headlabel"><a xlink:href="dir_000024_000427.html" target="_top" xlink:title="14">
<text text-anchor="middle" x="169.9177" y="-331.5194" font-family="Helvetica,sans-Serif" font-size="10.00" fill="#000000">14</text>
</a>
</g>
</g>
<!-- dir_296d53ceaeaa7e099814a6def439fe8a&#45;&gt;dir_4270bfced15e0e73154b13468c7c9ad9 -->
<g id="edge2" class="edge">
<title>dir_296d53ceaeaa7e099814a6def439fe8a&#45;&gt;dir_4270bfced15e0e73154b13468c7c9ad9</title>
<path fill="none" stroke="#000000" d="M78.3289,-359.8169C47.8573,-335.0584 0,-287.6361 0,-234 0,-234 0,-234 0,-162 0,-74.9657 121.584,-37.8858 184.7953,-24.4892"/>
<polygon fill="#000000" stroke="#000000" points="185.6721,-27.8828 194.7784,-22.4675 184.2827,-21.022 185.6721,-27.8828"/>
<g id="a_edge2&#45;headlabel"><a xlink:href="dir_000024_000010.html" target="_top" xlink:title="205">
<text text-anchor="middle" x="182.7125" y="-28.8789" font-family="Helvetica,sans-Serif" font-size="10.00" fill="#000000">205</text>
</a>
</g>
</g>
<!-- dir_296d53ceaeaa7e099814a6def439fe8a&#45;&gt;dir_8b9334156f3646fccf89e63b9869c7f9 -->
<g id="edge3" class="edge">
<title>dir_296d53ceaeaa7e099814a6def439fe8a&#45;&gt;dir_8b9334156f3646fccf89e63b9869c7f9</title>
<path fill="none" stroke="#000000" d="M87.0436,-359.6384C66.9361,-328.1059 39.3374,-262.566 66,-216 79.2862,-192.7958 106.8477,-178.5892 129.9715,-170.6119"/>
<polygon fill="#000000" stroke="#000000" points="131.0851,-173.9306 139.5555,-167.5663 128.9651,-167.2593 131.0851,-173.9306"/>
<g id="a_edge3&#45;headlabel"><a xlink:href="dir_000024_000183.html" target="_top" xlink:title="46">
<text text-anchor="middle" x="128.5192" y="-175.2251" font-family="Helvetica,sans-Serif" font-size="10.00" fill="#000000">46</text>
</a>
</g>
</g>
<!-- dir_296d53ceaeaa7e099814a6def439fe8a&#45;&gt;dir_2486e8ffb12756dbae41708f4979a859 -->
<g id="edge5" class="edge">
<title>dir_296d53ceaeaa7e099814a6def439fe8a&#45;&gt;dir_2486e8ffb12756dbae41708f4979a859</title>
<path fill="none" stroke="#000000" d="M99.34,-359.7623C98.2447,-335.201 100.4119,-291.2474 103.9274,-262.3541"/>
<polygon fill="#000000" stroke="#000000" points="107.4438,-262.4728 105.3367,-252.0896 100.5089,-261.5205 107.4438,-262.4728"/>
<g id="a_edge5&#45;headlabel"><a xlink:href="dir_000024_000111.html" target="_top" xlink:title="10">
<text text-anchor="middle" x="109.7678" y="-263.9202" font-family="Helvetica,sans-Serif" font-size="10.00" fill="#000000">10</text>
</a>
</g>
</g>
<!-- dir_70093cb3a9d1f8840af4e997fde867c3&#45;&gt;dir_296d53ceaeaa7e099814a6def439fe8a -->
<g id="edge6" class="edge">
<title>dir_70093cb3a9d1f8840af4e997fde867c3&#45;&gt;dir_296d53ceaeaa7e099814a6def439fe8a</title>
<path fill="none" stroke="#000000" d="M185.3743,-324.0467C172.1139,-334.1055 154.3858,-346.6776 138.7183,-357.1548"/>
<polygon fill="#000000" stroke="#000000" points="136.6868,-354.3019 130.2676,-362.7307 140.542,-360.1447 136.6868,-354.3019"/>
<g id="a_edge6&#45;headlabel"><a xlink:href="dir_000427_000024.html" target="_top" xlink:title="33">
<text text-anchor="middle" x="138.1235" y="-347.4524" font-family="Helvetica,sans-Serif" font-size="10.00" fill="#000000">33</text>
</a>
</g>
</g>
<!-- dir_70093cb3a9d1f8840af4e997fde867c3&#45;&gt;dir_4270bfced15e0e73154b13468c7c9ad9 -->
<g id="edge7" class="edge">
<title>dir_70093cb3a9d1f8840af4e997fde867c3&#45;&gt;dir_4270bfced15e0e73154b13468c7c9ad9</title>
<path fill="none" stroke="#000000" d="M211.7994,-287.7872C224.2359,-253.3075 250.0968,-175.8649 258,-108 259.8508,-92.1074 262.6365,-87.3135 258,-72 255.0436,-62.2355 249.6748,-52.6229 243.97,-44.2762"/>
<polygon fill="#000000" stroke="#000000" points="246.7129,-42.0973 237.9905,-36.0831 241.0586,-46.2239 246.7129,-42.0973"/>
<g id="a_edge7&#45;headlabel"><a xlink:href="dir_000427_000010.html" target="_top" xlink:title="661">
<text text-anchor="middle" x="251.1253" y="-40.827" font-family="Helvetica,sans-Serif" font-size="10.00" fill="#000000">661</text>
</a>
</g>
</g>
<!-- dir_70093cb3a9d1f8840af4e997fde867c3&#45;&gt;dir_8b9334156f3646fccf89e63b9869c7f9 -->
<g id="edge8" class="edge">
<title>dir_70093cb3a9d1f8840af4e997fde867c3&#45;&gt;dir_8b9334156f3646fccf89e63b9869c7f9</title>
<path fill="none" stroke="#000000" d="M195.5141,-287.7623C186.5335,-263.0928 174.5946,-218.8598 168.9097,-189.9731"/>
<polygon fill="#000000" stroke="#000000" points="172.3455,-189.3035 167.1154,-180.0896 165.4581,-190.554 172.3455,-189.3035"/>
<g id="a_edge8&#45;headlabel"><a xlink:href="dir_000427_000183.html" target="_top" xlink:title="46">
<text text-anchor="middle" x="175.7811" y="-189.8332" font-family="Helvetica,sans-Serif" font-size="10.00" fill="#000000">46</text>
</a>
</g>
</g>
<!-- dir_70093cb3a9d1f8840af4e997fde867c3&#45;&gt;dir_bc161955dc3a3d2485839eba21420d01 -->
<g id="edge9" class="edge">
<title>dir_70093cb3a9d1f8840af4e997fde867c3&#45;&gt;dir_bc161955dc3a3d2485839eba21420d01</title>
<path fill="none" stroke="#000000" d="M206.4202,-287.9555C209.3827,-250.3144 216.2399,-163.1867 219.7865,-118.1246"/>
<polygon fill="#000000" stroke="#000000" points="223.2764,-118.3889 220.5719,-108.1451 216.298,-117.8396 223.2764,-118.3889"/>
<g id="a_edge9&#45;headlabel"><a xlink:href="dir_000427_000221.html" target="_top" xlink:title="73">
<text text-anchor="middle" x="225.825" y="-119.6952" font-family="Helvetica,sans-Serif" font-size="10.00" fill="#000000">73</text>
</a>
</g>
</g>
<!-- dir_70093cb3a9d1f8840af4e997fde867c3&#45;&gt;dir_2486e8ffb12756dbae41708f4979a859 -->
<g id="edge10" class="edge">
<title>dir_70093cb3a9d1f8840af4e997fde867c3&#45;&gt;dir_2486e8ffb12756dbae41708f4979a859</title>
<path fill="none" stroke="#000000" d="M181.2798,-287.8314C169.5906,-278.8779 155.3312,-267.9558 142.7191,-258.2955"/>
<polygon fill="#000000" stroke="#000000" points="144.7797,-255.4651 134.7126,-252.1628 140.5231,-261.0222 144.7797,-255.4651"/>
<g id="a_edge10&#45;headlabel"><a xlink:href="dir_000427_000111.html" target="_top" xlink:title="38">
<text text-anchor="middle" x="149.3598" y="-252.8968" font-family="Helvetica,sans-Serif" font-size="10.00" fill="#000000">38</text>
</a>
</g>
</g>
<!-- dir_4270bfced15e0e73154b13468c7c9ad9&#45;&gt;dir_bc161955dc3a3d2485839eba21420d01 -->
<g id="edge11" class="edge">
<title>dir_4270bfced15e0e73154b13468c7c9ad9&#45;&gt;dir_bc161955dc3a3d2485839eba21420d01</title>
<path fill="none" stroke="#000000" d="M227.976,-36.4133C228.7071,-44.0593 228.9203,-53.1084 228.6155,-61.5726"/>
<polygon fill="#000000" stroke="#000000" points="225.1048,-61.6264 227.9524,-71.8314 232.0902,-62.078 225.1048,-61.6264"/>
<g id="a_edge11&#45;headlabel"><a xlink:href="dir_000010_000221.html" target="_top" xlink:title="5">
<text text-anchor="middle" x="222.5032" y="-55.3562" font-family="Helvetica,sans-Serif" font-size="10.00" fill="#000000">5</text>
</a>
</g>
</g>
<!-- dir_8b9334156f3646fccf89e63b9869c7f9&#45;&gt;dir_296d53ceaeaa7e099814a6def439fe8a -->
<g id="edge12" class="edge">
<title>dir_8b9334156f3646fccf89e63b9869c7f9&#45;&gt;dir_296d53ceaeaa7e099814a6def439fe8a</title>
<path fill="none" stroke="#000000" d="M139.9083,-172.6148C120.5933,-180.8837 96.2394,-194.624 84,-216 59.7329,-258.3823 80.4149,-316.4823 94.1124,-350.3543"/>
<polygon fill="#000000" stroke="#000000" points="90.8858,-351.7108 97.9146,-359.6384 97.3636,-349.0579 90.8858,-351.7108"/>
<g id="a_edge12&#45;headlabel"><a xlink:href="dir_000183_000024.html" target="_top" xlink:title="228">
<text text-anchor="middle" x="86.896" y="-346.9604" font-family="Helvetica,sans-Serif" font-size="10.00" fill="#000000">228</text>
</a>
</g>
</g>
<!-- dir_8b9334156f3646fccf89e63b9869c7f9&#45;&gt;dir_70093cb3a9d1f8840af4e997fde867c3 -->
<g id="edge13" class="edge">
<title>dir_8b9334156f3646fccf89e63b9869c7f9&#45;&gt;dir_70093cb3a9d1f8840af4e997fde867c3</title>
<path fill="none" stroke="#000000" d="M176.4319,-180.0896C185.4007,-204.6805 197.3462,-248.905 203.056,-277.8531"/>
<polygon fill="#000000" stroke="#000000" points="199.6255,-278.5511 204.8604,-287.7623 206.5122,-277.297 199.6255,-278.5511"/>
<g id="a_edge13&#45;headlabel"><a xlink:href="dir_000183_000427.html" target="_top" xlink:title="5">
<text text-anchor="middle" x="196.1883" y="-273.0233" font-family="Helvetica,sans-Serif" font-size="10.00" fill="#000000">5</text>
</a>
</g>
</g>
<!-- dir_8b9334156f3646fccf89e63b9869c7f9&#45;&gt;dir_4270bfced15e0e73154b13468c7c9ad9 -->
<g id="edge14" class="edge">
<title>dir_8b9334156f3646fccf89e63b9869c7f9&#45;&gt;dir_4270bfced15e0e73154b13468c7c9ad9</title>
<path fill="none" stroke="#000000" d="M168.7905,-143.8083C171.0888,-125.1875 176.0345,-95.7008 186,-72 189.9544,-62.5953 195.6152,-53.0879 201.2805,-44.727"/>
<polygon fill="#000000" stroke="#000000" points="204.1959,-46.6664 207.1147,-36.4815 198.4816,-42.6231 204.1959,-46.6664"/>
<g id="a_edge14&#45;headlabel"><a xlink:href="dir_000183_000010.html" target="_top" xlink:title="420">
<text text-anchor="middle" x="204.4374" y="-48.7406" font-family="Helvetica,sans-Serif" font-size="10.00" fill="#000000">420</text>
</a>
</g>
</g>
<!-- dir_8b9334156f3646fccf89e63b9869c7f9&#45;&gt;dir_bc161955dc3a3d2485839eba21420d01 -->
<g id="edge15" class="edge">
<title>dir_8b9334156f3646fccf89e63b9869c7f9&#45;&gt;dir_bc161955dc3a3d2485839eba21420d01</title>
<path fill="none" stroke="#000000" d="M180.8788,-143.8314C187.2136,-135.5386 194.8384,-125.557 201.7926,-116.4533"/>
<polygon fill="#000000" stroke="#000000" points="204.6452,-118.4847 207.9343,-108.4133 199.0825,-114.2353 204.6452,-118.4847"/>
<g id="a_edge15&#45;headlabel"><a xlink:href="dir_000183_000221.html" target="_top" xlink:title="7">
<text text-anchor="middle" x="204.7195" y="-120.5647" font-family="Helvetica,sans-Serif" font-size="10.00" fill="#000000">7</text>
</a>
</g>
</g>
<!-- dir_8b9334156f3646fccf89e63b9869c7f9&#45;&gt;dir_2486e8ffb12756dbae41708f4979a859 -->
<g id="edge16" class="edge">
<title>dir_8b9334156f3646fccf89e63b9869c7f9&#45;&gt;dir_2486e8ffb12756dbae41708f4979a859</title>
<path fill="none" stroke="#000000" d="M158.6546,-180.4133C152.9172,-188.8239 145.2326,-198.9323 137.6589,-208.0923"/>
<polygon fill="#000000" stroke="#000000" points="134.8912,-205.9444 131.0836,-215.8314 140.2257,-210.4768 134.8912,-205.9444"/>
<g id="a_edge16&#45;headlabel"><a xlink:href="dir_000183_000111.html" target="_top" xlink:title="54">
<text text-anchor="middle" x="135.0549" y="-198.8666" font-family="Helvetica,sans-Serif" font-size="10.00" fill="#000000">54</text>
</a>
</g>
</g>
<!-- dir_bc161955dc3a3d2485839eba21420d01&#45;&gt;dir_4270bfced15e0e73154b13468c7c9ad9 -->
<g id="edge17" class="edge">
<title>dir_bc161955dc3a3d2485839eba21420d01&#45;&gt;dir_4270bfced15e0e73154b13468c7c9ad9</title>
<path fill="none" stroke="#000000" d="M216.0476,-71.8314C215.2972,-64.131 215.0763,-54.9743 215.3849,-46.4166"/>
<polygon fill="#000000" stroke="#000000" points="218.8792,-46.6161 216.024,-36.4133 211.8935,-46.1697 218.8792,-46.6161"/>
<g id="a_edge17&#45;headlabel"><a xlink:href="dir_000221_000010.html" target="_top" xlink:title="433">
<text text-anchor="middle" x="221.4836" y="-47.8844" font-family="Helvetica,sans-Serif" font-size="10.00" fill="#000000">433</text>
</a>
</g>
</g>
<!-- dir_2486e8ffb12756dbae41708f4979a859&#45;&gt;dir_296d53ceaeaa7e099814a6def439fe8a -->
<g id="edge24" class="edge">
<title>dir_2486e8ffb12756dbae41708f4979a859&#45;&gt;dir_296d53ceaeaa7e099814a6def439fe8a</title>
<path fill="none" stroke="#000000" d="M114.6533,-252.0896C115.7666,-276.6805 113.5848,-320.905 110.0474,-349.8531"/>
<polygon fill="#000000" stroke="#000000" points="106.5797,-349.379 108.6864,-359.7623 113.5146,-350.3316 106.5797,-349.379"/>
<g id="a_edge24&#45;headlabel"><a xlink:href="dir_000111_000024.html" target="_top" xlink:title="49">
<text text-anchor="middle" x="104.2559" y="-342.9315" font-family="Helvetica,sans-Serif" font-size="10.00" fill="#000000">49</text>
</a>
</g>
</g>
<!-- dir_2486e8ffb12756dbae41708f4979a859&#45;&gt;dir_4270bfced15e0e73154b13468c7c9ad9 -->
<g id="edge25" class="edge">
<title>dir_2486e8ffb12756dbae41708f4979a859&#45;&gt;dir_4270bfced15e0e73154b13468c7c9ad9</title>
<path fill="none" stroke="#000000" d="M108.0148,-215.7663C105.729,-197.1121 104.2691,-167.5992 113,-144 128.2802,-102.6986 163.9386,-65.9571 190.3317,-42.9601"/>
<polygon fill="#000000" stroke="#000000" points="192.8424,-45.4194 198.1923,-36.2745 188.3073,-40.0871 192.8424,-45.4194"/>
<g id="a_edge25&#45;headlabel"><a xlink:href="dir_000111_000010.html" target="_top" xlink:title="640">
<text text-anchor="middle" x="191.9437" y="-47.411" font-family="Helvetica,sans-Serif" font-size="10.00" fill="#000000">640</text>
</a>
</g>
</g>
<!-- dir_2486e8ffb12756dbae41708f4979a859&#45;&gt;dir_8b9334156f3646fccf89e63b9869c7f9 -->
<g id="edge26" class="edge">
<title>dir_2486e8ffb12756dbae41708f4979a859&#45;&gt;dir_8b9334156f3646fccf89e63b9869c7f9</title>
<path fill="none" stroke="#000000" d="M119.1788,-215.8314C124.8781,-207.454 132.5446,-197.3531 140.1203,-188.1749"/>
<polygon fill="#000000" stroke="#000000" points="142.9041,-190.3038 146.7026,-180.4133 137.5653,-185.7763 142.9041,-190.3038"/>
<g id="a_edge26&#45;headlabel"><a xlink:href="dir_000111_000183.html" target="_top" xlink:title="40">
<text text-anchor="middle" x="142.7446" y="-192.3817" font-family="Helvetica,sans-Serif" font-size="10.00" fill="#000000">40</text>
</a>
</g>
</g>
<!-- dir_2486e8ffb12756dbae41708f4979a859&#45;&gt;dir_bc161955dc3a3d2485839eba21420d01 -->
<g id="edge27" class="edge">
<title>dir_2486e8ffb12756dbae41708f4979a859&#45;&gt;dir_bc161955dc3a3d2485839eba21420d01</title>
<path fill="none" stroke="#000000" d="M110.9256,-215.7202C111.7229,-196.2151 115.5996,-165.2578 131,-144 144.4613,-125.4188 166.4483,-112.1149 185.4377,-103.3617"/>
<polygon fill="#000000" stroke="#000000" points="186.976,-106.5095 194.7502,-99.3114 184.1841,-100.0903 186.976,-106.5095"/>
<g id="a_edge27&#45;headlabel"><a xlink:href="dir_000111_000221.html" target="_top" xlink:title="5">
<text text-anchor="middle" x="184.8121" y="-108.0468" font-family="Helvetica,sans-Serif" font-size="10.00" fill="#000000">5</text>
</a>
</g>
</g>
</g>
</svg>
