<?xml version="1.0" encoding="UTF-8" standalone="no"?>
<!DOCTYPE svg PUBLIC "-//W3C//DTD SVG 1.1//EN"
 "http://www.w3.org/Graphics/SVG/1.1/DTD/svg11.dtd">
<!-- Generated by graphviz version 2.40.1 (0)
 -->
<!-- Title: roofit/roofit/inc Pages: 1 -->
<svg width="203pt" height="367pt"
 viewBox="0.00 0.00 203.07 367.00" xmlns="http://www.w3.org/2000/svg" xmlns:xlink="http://www.w3.org/1999/xlink">
<g id="graph0" class="graph" transform="scale(1 1) rotate(0) translate(4 363)">
<title>roofit/roofit/inc</title>
<polygon fill="#ffffff" stroke="transparent" points="-4,4 -4,-363 199.0727,-363 199.0727,4 -4,4"/>
<g id="clust1" class="cluster">
<title>clusterdir_87510eee763910db7f81d9122690f598</title>
<g id="a_clust1"><a xlink:href="dir_87510eee763910db7f81d9122690f598.html" target="_top" xlink:title="roofit">
<polygon fill="#ddddee" stroke="#000000" points="48.0727,-280 48.0727,-351 118.0727,-351 118.0727,-280 48.0727,-280"/>
<text text-anchor="middle" x="83.0727" y="-339" font-family="Helvetica,sans-Serif" font-size="10.00" fill="#000000">roofit</text>
</a>
</g>
</g>
<!-- dir_8f519d8e55d196217c1d418add13a1b6 -->
<g id="node1" class="node">
<title>dir_8f519d8e55d196217c1d418add13a1b6</title>
<g id="a_node1"><a xlink:href="dir_8f519d8e55d196217c1d418add13a1b6.html" target="_top" xlink:title="inc">
<polygon fill="#eeeeff" stroke="#000000" points="110.0727,-324 56.0727,-324 56.0727,-288 110.0727,-288 110.0727,-324"/>
<text text-anchor="middle" x="83.0727" y="-303.5" font-family="Helvetica,sans-Serif" font-size="10.00" fill="#000000">inc</text>
</a>
</g>
</g>
<!-- dir_296d53ceaeaa7e099814a6def439fe8a -->
<g id="node2" class="node">
<title>dir_296d53ceaeaa7e099814a6def439fe8a</title>
<g id="a_node2"><a xlink:href="dir_296d53ceaeaa7e099814a6def439fe8a.html" target="_top" xlink:title="math">
<polygon fill="#ffffff" stroke="#ff0000" points="195.0727,-180 141.0727,-180 141.0727,-144 195.0727,-144 195.0727,-180"/>
<text text-anchor="middle" x="168.0727" y="-159.5" font-family="Helvetica,sans-Serif" font-size="10.00" fill="#000000">math</text>
</a>
</g>
</g>
<!-- dir_8f519d8e55d196217c1d418add13a1b6&#45;&gt;dir_296d53ceaeaa7e099814a6def439fe8a -->
<g id="edge6" class="edge">
<title>dir_8f519d8e55d196217c1d418add13a1b6&#45;&gt;dir_296d53ceaeaa7e099814a6def439fe8a</title>
<path fill="none" stroke="#000000" d="M99.7952,-287.8963C108.5931,-277.8076 119.1635,-264.74 127.0727,-252 139.375,-232.1839 150.1658,-208.0561 157.5852,-189.7724"/>
<polygon fill="#000000" stroke="#000000" points="160.9164,-190.8665 161.3485,-180.2805 154.4092,-188.2866 160.9164,-190.8665"/>
<g id="a_edge6&#45;headlabel"><a xlink:href="dir_000032_000024.html" target="_top" xlink:title="11">
<text text-anchor="middle" x="162.2311" y="-192.7545" font-family="Helvetica,sans-Serif" font-size="10.00" fill="#000000">11</text>
</a>
</g>
</g>
<!-- dir_3dab1d31f497d3f4c28510407484ca66 -->
<g id="node3" class="node">
<title>dir_3dab1d31f497d3f4c28510407484ca66</title>
<g id="a_node3"><a xlink:href="dir_3dab1d31f497d3f4c28510407484ca66.html" target="_top" xlink:title="roofitcore">
<polygon fill="#ffffff" stroke="#ff0000" points="84.5727,-252 21.5727,-252 21.5727,-216 84.5727,-216 84.5727,-252"/>
<text text-anchor="middle" x="53.0727" y="-231.5" font-family="Helvetica,sans-Serif" font-size="10.00" fill="#000000">roofitcore</text>
</a>
</g>
</g>
<!-- dir_8f519d8e55d196217c1d418add13a1b6&#45;&gt;dir_3dab1d31f497d3f4c28510407484ca66 -->
<g id="edge7" class="edge">
<title>dir_8f519d8e55d196217c1d418add13a1b6&#45;&gt;dir_3dab1d31f497d3f4c28510407484ca66</title>
<path fill="none" stroke="#000000" d="M75.5025,-287.8314C72.2234,-279.9617 68.3107,-270.5712 64.6783,-261.8533"/>
<polygon fill="#000000" stroke="#000000" points="67.8219,-260.2979 60.7449,-252.4133 61.3604,-262.9902 67.8219,-260.2979"/>
<g id="a_edge7&#45;headlabel"><a xlink:href="dir_000032_000033.html" target="_top" xlink:title="198">
<text text-anchor="middle" x="71.8253" y="-260.024" font-family="Helvetica,sans-Serif" font-size="10.00" fill="#000000">198</text>
</a>
</g>
</g>
<!-- dir_4270bfced15e0e73154b13468c7c9ad9 -->
<g id="node4" class="node">
<title>dir_4270bfced15e0e73154b13468c7c9ad9</title>
<g id="a_node4"><a xlink:href="dir_4270bfced15e0e73154b13468c7c9ad9.html" target="_top" xlink:title="core">
<polygon fill="#ffffff" stroke="#ff0000" points="102.0727,-36 48.0727,-36 48.0727,0 102.0727,0 102.0727,-36"/>
<text text-anchor="middle" x="75.0727" y="-15.5" font-family="Helvetica,sans-Serif" font-size="10.00" fill="#000000">core</text>
</a>
</g>
</g>
<!-- dir_8f519d8e55d196217c1d418add13a1b6&#45;&gt;dir_4270bfced15e0e73154b13468c7c9ad9 -->
<g id="edge8" class="edge">
<title>dir_8f519d8e55d196217c1d418add13a1b6&#45;&gt;dir_4270bfced15e0e73154b13468c7c9ad9</title>
<path fill="none" stroke="#000000" d="M55.9881,-293.3611C40.0284,-284.3078 21.222,-270.4534 12.0727,-252 -22.8075,-181.6491 26.6596,-89.4988 56.0242,-44.7301"/>
<polygon fill="#000000" stroke="#000000" points="59.1008,-46.4269 61.7729,-36.1745 53.2906,-42.5228 59.1008,-46.4269"/>
<g id="a_edge8&#45;headlabel"><a xlink:href="dir_000032_000010.html" target="_top" xlink:title="18">
<text text-anchor="middle" x="59.4527" y="-48.494" font-family="Helvetica,sans-Serif" font-size="10.00" fill="#000000">18</text>
</a>
</g>
</g>
<!-- dir_8b9334156f3646fccf89e63b9869c7f9 -->
<g id="node5" class="node">
<title>dir_8b9334156f3646fccf89e63b9869c7f9</title>
<g id="a_node5"><a xlink:href="dir_8b9334156f3646fccf89e63b9869c7f9.html" target="_top" xlink:title="hist">
<polygon fill="#ffffff" stroke="#ff0000" points="140.0727,-108 86.0727,-108 86.0727,-72 140.0727,-72 140.0727,-108"/>
<text text-anchor="middle" x="113.0727" y="-87.5" font-family="Helvetica,sans-Serif" font-size="10.00" fill="#000000">hist</text>
</a>
</g>
</g>
<!-- dir_8f519d8e55d196217c1d418add13a1b6&#45;&gt;dir_8b9334156f3646fccf89e63b9869c7f9 -->
<g id="edge9" class="edge">
<title>dir_8f519d8e55d196217c1d418add13a1b6&#45;&gt;dir_8b9334156f3646fccf89e63b9869c7f9</title>
<path fill="none" stroke="#000000" d="M86.7738,-287.5525C88.7911,-277.14 91.2422,-263.8731 93.0727,-252 100.2888,-205.1967 106.6062,-150.4672 110.1233,-118.1029"/>
<polygon fill="#000000" stroke="#000000" points="113.6173,-118.3451 111.206,-108.0284 106.6574,-117.5971 113.6173,-118.3451"/>
<g id="a_edge9&#45;headlabel"><a xlink:href="dir_000032_000183.html" target="_top" xlink:title="2">
<text text-anchor="middle" x="116.0564" y="-119.7225" font-family="Helvetica,sans-Serif" font-size="10.00" fill="#000000">2</text>
</a>
</g>
</g>
<!-- dir_296d53ceaeaa7e099814a6def439fe8a&#45;&gt;dir_4270bfced15e0e73154b13468c7c9ad9 -->
<g id="edge1" class="edge">
<title>dir_296d53ceaeaa7e099814a6def439fe8a&#45;&gt;dir_4270bfced15e0e73154b13468c7c9ad9</title>
<path fill="none" stroke="#000000" d="M167.9701,-143.6499C167.0485,-124.3662 163.2119,-93.8552 149.0727,-72 139.7184,-57.5408 125.0383,-45.6524 111.2112,-36.7468"/>
<polygon fill="#000000" stroke="#000000" points="112.6741,-33.5398 102.3126,-31.3283 109.0334,-39.5186 112.6741,-33.5398"/>
<g id="a_edge1&#45;headlabel"><a xlink:href="dir_000024_000010.html" target="_top" xlink:title="205">
<text text-anchor="middle" x="117.2209" y="-30.4842" font-family="Helvetica,sans-Serif" font-size="10.00" fill="#000000">205</text>
</a>
</g>
</g>
<!-- dir_296d53ceaeaa7e099814a6def439fe8a&#45;&gt;dir_8b9334156f3646fccf89e63b9869c7f9 -->
<g id="edge2" class="edge">
<title>dir_296d53ceaeaa7e099814a6def439fe8a&#45;&gt;dir_8b9334156f3646fccf89e63b9869c7f9</title>
<path fill="none" stroke="#000000" d="M148.2415,-143.8314C141.1715,-135.6232 133.4393,-125.7606 126.9461,-116.7323"/>
<polygon fill="#000000" stroke="#000000" points="129.7445,-114.626 121.1624,-108.4133 123.9971,-118.6219 129.7445,-114.626"/>
<g id="a_edge2&#45;headlabel"><a xlink:href="dir_000024_000183.html" target="_top" xlink:title="46">
<text text-anchor="middle" x="134.1276" y="-113.4567" font-family="Helvetica,sans-Serif" font-size="10.00" fill="#000000">46</text>
</a>
</g>
</g>
<!-- dir_3dab1d31f497d3f4c28510407484ca66&#45;&gt;dir_296d53ceaeaa7e099814a6def439fe8a -->
<g id="edge3" class="edge">
<title>dir_3dab1d31f497d3f4c28510407484ca66&#45;&gt;dir_296d53ceaeaa7e099814a6def439fe8a</title>
<path fill="none" stroke="#000000" d="M82.0921,-215.8314C97.3627,-206.2706 116.2188,-194.4651 132.3778,-184.3481"/>
<polygon fill="#000000" stroke="#000000" points="134.4192,-187.1995 141.0377,-178.9263 130.7045,-181.2664 134.4192,-187.1995"/>
<g id="a_edge3&#45;headlabel"><a xlink:href="dir_000033_000024.html" target="_top" xlink:title="70">
<text text-anchor="middle" x="132.8791" y="-189.0135" font-family="Helvetica,sans-Serif" font-size="10.00" fill="#000000">70</text>
</a>
</g>
</g>
<!-- dir_3dab1d31f497d3f4c28510407484ca66&#45;&gt;dir_4270bfced15e0e73154b13468c7c9ad9 -->
<g id="edge4" class="edge">
<title>dir_3dab1d31f497d3f4c28510407484ca66&#45;&gt;dir_4270bfced15e0e73154b13468c7c9ad9</title>
<path fill="none" stroke="#000000" d="M54.9106,-215.9555C58.7444,-178.3144 67.6185,-91.1867 72.2082,-46.1246"/>
<polygon fill="#000000" stroke="#000000" points="75.6932,-46.4483 73.2246,-36.1451 68.7293,-45.7389 75.6932,-46.4483"/>
<g id="a_edge4&#45;headlabel"><a xlink:href="dir_000033_000010.html" target="_top" xlink:title="497">
<text text-anchor="middle" x="78.1538" y="-47.8121" font-family="Helvetica,sans-Serif" font-size="10.00" fill="#000000">497</text>
</a>
</g>
</g>
<!-- dir_3dab1d31f497d3f4c28510407484ca66&#45;&gt;dir_8b9334156f3646fccf89e63b9869c7f9 -->
<g id="edge5" class="edge">
<title>dir_3dab1d31f497d3f4c28510407484ca66&#45;&gt;dir_8b9334156f3646fccf89e63b9869c7f9</title>
<path fill="none" stroke="#000000" d="M60.6718,-215.7623C70.9958,-190.9846 89.543,-146.4714 101.5753,-117.5939"/>
<polygon fill="#000000" stroke="#000000" points="104.92,-118.6666 105.5354,-108.0896 98.4584,-115.9742 104.92,-118.6666"/>
<g id="a_edge5&#45;headlabel"><a xlink:href="dir_000033_000183.html" target="_top" xlink:title="40">
<text text-anchor="middle" x="106.1583" y="-120.5767" font-family="Helvetica,sans-Serif" font-size="10.00" fill="#000000">40</text>
</a>
</g>
</g>
<!-- dir_8b9334156f3646fccf89e63b9869c7f9&#45;&gt;dir_296d53ceaeaa7e099814a6def439fe8a -->
<g id="edge10" class="edge">
<title>dir_8b9334156f3646fccf89e63b9869c7f9&#45;&gt;dir_296d53ceaeaa7e099814a6def439fe8a</title>
<path fill="none" stroke="#000000" d="M133.1144,-108.4133C140.1974,-116.654 147.9237,-126.5245 154.3921,-135.536"/>
<polygon fill="#000000" stroke="#000000" points="151.5708,-137.6095 160.1463,-143.8314 157.3225,-133.6197 151.5708,-137.6095"/>
<g id="a_edge10&#45;headlabel"><a xlink:href="dir_000183_000024.html" target="_top" xlink:title="228">
<text text-anchor="middle" x="147.1891" y="-133.7742" font-family="Helvetica,sans-Serif" font-size="10.00" fill="#000000">228</text>
</a>
</g>
</g>
<!-- dir_8b9334156f3646fccf89e63b9869c7f9&#45;&gt;dir_4270bfced15e0e73154b13468c7c9ad9 -->
<g id="edge11" class="edge">
<title>dir_8b9334156f3646fccf89e63b9869c7f9&#45;&gt;dir_4270bfced15e0e73154b13468c7c9ad9</title>
<path fill="none" stroke="#000000" d="M103.4837,-71.8314C99.241,-63.7925 94.1606,-54.1666 89.4767,-45.2918"/>
<polygon fill="#000000" stroke="#000000" points="92.5538,-43.6235 84.7908,-36.4133 86.3631,-46.8908 92.5538,-43.6235"/>
<g id="a_edge11&#45;headlabel"><a xlink:href="dir_000183_000010.html" target="_top" xlink:title="420">
<text text-anchor="middle" x="96.7426" y="-42.9772" font-family="Helvetica,sans-Serif" font-size="10.00" fill="#000000">420</text>
</a>
</g>
</g>
</g>
</svg>
