<?xml version="1.0" encoding="UTF-8" standalone="no"?>
<!DOCTYPE svg PUBLIC "-//W3C//DTD SVG 1.1//EN"
 "http://www.w3.org/Graphics/SVG/1.1/DTD/svg11.dtd">
<!-- Generated by graphviz version 2.40.1 (0)
 -->
<!-- Title: math/minuit Pages: 1 -->
<svg width="229pt" height="447pt"
 viewBox="0.00 0.00 229.00 447.00" xmlns="http://www.w3.org/2000/svg" xmlns:xlink="http://www.w3.org/1999/xlink">
<g id="graph0" class="graph" transform="scale(1 1) rotate(0) translate(4 443)">
<title>math/minuit</title>
<polygon fill="#ffffff" stroke="transparent" points="-4,4 -4,-443 225,-443 225,4 -4,4"/>
<g id="clust1" class="cluster">
<title>clusterdir_296d53ceaeaa7e099814a6def439fe8a</title>
<g id="a_clust1"><a xlink:href="dir_296d53ceaeaa7e099814a6def439fe8a.html" target="_top" xlink:title="math">
<polygon fill="#ddddee" stroke="#000000" points="55,-272 55,-431 213,-431 213,-272 55,-272"/>
<text text-anchor="middle" x="134" y="-419" font-family="Helvetica,sans-Serif" font-size="10.00" fill="#000000">math</text>
</a>
</g>
</g>
<g id="clust2" class="cluster">
<title>clusterdir_0bf81e3b624a4c97afff8606ea43f2cb</title>
<g id="a_clust2"><a xlink:href="dir_0bf81e3b624a4c97afff8606ea43f2cb.html" target="_top">
<polygon fill="#eeeeff" stroke="#000000" points="63,-280 63,-404 205,-404 205,-280 63,-280"/>
</a>
</g>
</g>
<!-- dir_0bf81e3b624a4c97afff8606ea43f2cb -->
<g id="node1" class="node">
<title>dir_0bf81e3b624a4c97afff8606ea43f2cb</title>
<text text-anchor="middle" x="170" y="-375.5" font-family="Helvetica,sans-Serif" font-size="10.00" fill="#000000">minuit</text>
</g>
<!-- dir_9c1e2321bf8f598cef2d1ec111b1a86b -->
<g id="node2" class="node">
<title>dir_9c1e2321bf8f598cef2d1ec111b1a86b</title>
<g id="a_node2"><a xlink:href="dir_9c1e2321bf8f598cef2d1ec111b1a86b.html" target="_top" xlink:title="inc">
<polygon fill="#ffffff" stroke="#000000" points="185,-324 131,-324 131,-288 185,-288 185,-324"/>
<text text-anchor="middle" x="158" y="-303.5" font-family="Helvetica,sans-Serif" font-size="10.00" fill="#000000">inc</text>
</a>
</g>
</g>
<!-- dir_79c030ac71c6516976d5abab51772218 -->
<g id="node4" class="node">
<title>dir_79c030ac71c6516976d5abab51772218</title>
<g id="a_node4"><a xlink:href="dir_79c030ac71c6516976d5abab51772218.html" target="_top" xlink:title="mathcore">
<polygon fill="#ffffff" stroke="#ff0000" points="129.5,-252 66.5,-252 66.5,-216 129.5,-216 129.5,-252"/>
<text text-anchor="middle" x="98" y="-231.5" font-family="Helvetica,sans-Serif" font-size="10.00" fill="#000000">mathcore</text>
</a>
</g>
</g>
<!-- dir_9c1e2321bf8f598cef2d1ec111b1a86b&#45;&gt;dir_79c030ac71c6516976d5abab51772218 -->
<g id="edge13" class="edge">
<title>dir_9c1e2321bf8f598cef2d1ec111b1a86b&#45;&gt;dir_79c030ac71c6516976d5abab51772218</title>
<path fill="none" stroke="#000000" d="M142.8595,-287.8314C135.8783,-279.454 127.4609,-269.3531 119.8124,-260.1749"/>
<polygon fill="#000000" stroke="#000000" points="122.4351,-257.8548 113.3444,-252.4133 117.0575,-262.3362 122.4351,-257.8548"/>
<g id="a_edge13&#45;headlabel"><a xlink:href="dir_000279_000025.html" target="_top" xlink:title="2">
<text text-anchor="middle" x="126.9174" y="-256.2986" font-family="Helvetica,sans-Serif" font-size="10.00" fill="#000000">2</text>
</a>
</g>
</g>
<!-- dir_4270bfced15e0e73154b13468c7c9ad9 -->
<g id="node5" class="node">
<title>dir_4270bfced15e0e73154b13468c7c9ad9</title>
<g id="a_node5"><a xlink:href="dir_4270bfced15e0e73154b13468c7c9ad9.html" target="_top" xlink:title="core">
<polygon fill="#ffffff" stroke="#ff0000" points="127,-36 73,-36 73,0 127,0 127,-36"/>
<text text-anchor="middle" x="100" y="-15.5" font-family="Helvetica,sans-Serif" font-size="10.00" fill="#000000">core</text>
</a>
</g>
</g>
<!-- dir_9c1e2321bf8f598cef2d1ec111b1a86b&#45;&gt;dir_4270bfced15e0e73154b13468c7c9ad9 -->
<g id="edge14" class="edge">
<title>dir_9c1e2321bf8f598cef2d1ec111b1a86b&#45;&gt;dir_4270bfced15e0e73154b13468c7c9ad9</title>
<path fill="none" stroke="#000000" d="M167.7198,-287.8534C188.4061,-246.5319 231.7029,-143.4831 191,-72 179.3604,-51.5583 156.598,-38.0559 136.7517,-29.6651"/>
<polygon fill="#000000" stroke="#000000" points="137.8919,-26.3526 127.3047,-25.9486 135.3292,-32.8667 137.8919,-26.3526"/>
<g id="a_edge14&#45;headlabel"><a xlink:href="dir_000279_000010.html" target="_top" xlink:title="4">
<text text-anchor="middle" x="142.2764" y="-22.5264" font-family="Helvetica,sans-Serif" font-size="10.00" fill="#000000">4</text>
</a>
</g>
</g>
<!-- dir_8b9334156f3646fccf89e63b9869c7f9 -->
<g id="node6" class="node">
<title>dir_8b9334156f3646fccf89e63b9869c7f9</title>
<g id="a_node6"><a xlink:href="dir_8b9334156f3646fccf89e63b9869c7f9.html" target="_top" xlink:title="hist">
<polygon fill="#ffffff" stroke="#ff0000" points="127,-180 73,-180 73,-144 127,-144 127,-180"/>
<text text-anchor="middle" x="100" y="-159.5" font-family="Helvetica,sans-Serif" font-size="10.00" fill="#000000">hist</text>
</a>
</g>
</g>
<!-- dir_9c1e2321bf8f598cef2d1ec111b1a86b&#45;&gt;dir_8b9334156f3646fccf89e63b9869c7f9 -->
<g id="edge15" class="edge">
<title>dir_9c1e2321bf8f598cef2d1ec111b1a86b&#45;&gt;dir_8b9334156f3646fccf89e63b9869c7f9</title>
<path fill="none" stroke="#000000" d="M156.3923,-287.7295C154.2396,-269.0458 149.4079,-239.5099 139,-216 134.7165,-206.3244 128.5128,-196.6668 122.3087,-188.2504"/>
<polygon fill="#000000" stroke="#000000" points="125.0525,-186.0769 116.1756,-180.293 119.5082,-190.3501 125.0525,-186.0769"/>
<g id="a_edge15&#45;headlabel"><a xlink:href="dir_000279_000183.html" target="_top" xlink:title="2">
<text text-anchor="middle" x="129.4957" y="-184.6907" font-family="Helvetica,sans-Serif" font-size="10.00" fill="#000000">2</text>
</a>
</g>
</g>
<!-- dir_42835dfcd39ebddc4be81fbab21444c9 -->
<g id="node7" class="node">
<title>dir_42835dfcd39ebddc4be81fbab21444c9</title>
<g id="a_node7"><a xlink:href="dir_42835dfcd39ebddc4be81fbab21444c9.html" target="_top" xlink:title="matrix">
<polygon fill="#ffffff" stroke="#ff0000" points="182,-108 128,-108 128,-72 182,-72 182,-108"/>
<text text-anchor="middle" x="155" y="-87.5" font-family="Helvetica,sans-Serif" font-size="10.00" fill="#000000">matrix</text>
</a>
</g>
</g>
<!-- dir_9c1e2321bf8f598cef2d1ec111b1a86b&#45;&gt;dir_42835dfcd39ebddc4be81fbab21444c9 -->
<g id="edge16" class="edge">
<title>dir_9c1e2321bf8f598cef2d1ec111b1a86b&#45;&gt;dir_42835dfcd39ebddc4be81fbab21444c9</title>
<path fill="none" stroke="#000000" d="M158.1274,-287.7277C158.2241,-269.5437 158.2957,-240.842 158,-216 157.6012,-182.4968 156.6062,-143.9932 155.8708,-118.4578"/>
<polygon fill="#000000" stroke="#000000" points="159.3664,-118.2533 155.5741,-108.3605 152.3694,-118.459 159.3664,-118.2533"/>
<g id="a_edge16&#45;headlabel"><a xlink:href="dir_000279_000275.html" target="_top" xlink:title="2">
<text text-anchor="middle" x="162.31" y="-119.263" font-family="Helvetica,sans-Serif" font-size="10.00" fill="#000000">2</text>
</a>
</g>
</g>
<!-- dir_38cc1ac3c9d081455d1b6dbe90fe3b7f -->
<g id="node3" class="node">
<title>dir_38cc1ac3c9d081455d1b6dbe90fe3b7f</title>
<g id="a_node3"><a xlink:href="dir_38cc1ac3c9d081455d1b6dbe90fe3b7f.html" target="_top" xlink:title="src">
<polygon fill="#ffffff" stroke="#000000" points="125,-396 71,-396 71,-360 125,-360 125,-396"/>
<text text-anchor="middle" x="98" y="-375.5" font-family="Helvetica,sans-Serif" font-size="10.00" fill="#000000">src</text>
</a>
</g>
</g>
<!-- dir_38cc1ac3c9d081455d1b6dbe90fe3b7f&#45;&gt;dir_9c1e2321bf8f598cef2d1ec111b1a86b -->
<g id="edge12" class="edge">
<title>dir_38cc1ac3c9d081455d1b6dbe90fe3b7f&#45;&gt;dir_9c1e2321bf8f598cef2d1ec111b1a86b</title>
<path fill="none" stroke="#000000" d="M113.1405,-359.8314C120.1217,-351.454 128.5391,-341.3531 136.1876,-332.1749"/>
<polygon fill="#000000" stroke="#000000" points="138.9425,-334.3362 142.6556,-324.4133 133.5649,-329.8548 138.9425,-334.3362"/>
<g id="a_edge12&#45;headlabel"><a xlink:href="dir_000280_000279.html" target="_top" xlink:title="8">
<text text-anchor="middle" x="138.8225" y="-336.4152" font-family="Helvetica,sans-Serif" font-size="10.00" fill="#000000">8</text>
</a>
</g>
</g>
<!-- dir_38cc1ac3c9d081455d1b6dbe90fe3b7f&#45;&gt;dir_79c030ac71c6516976d5abab51772218 -->
<g id="edge8" class="edge">
<title>dir_38cc1ac3c9d081455d1b6dbe90fe3b7f&#45;&gt;dir_79c030ac71c6516976d5abab51772218</title>
<path fill="none" stroke="#000000" d="M98,-359.7623C98,-335.201 98,-291.2474 98,-262.3541"/>
<polygon fill="#000000" stroke="#000000" points="101.5001,-262.0896 98,-252.0896 94.5001,-262.0897 101.5001,-262.0896"/>
<g id="a_edge8&#45;headlabel"><a xlink:href="dir_000280_000025.html" target="_top" xlink:title="10">
<text text-anchor="middle" x="104.3393" y="-263.1842" font-family="Helvetica,sans-Serif" font-size="10.00" fill="#000000">10</text>
</a>
</g>
</g>
<!-- dir_38cc1ac3c9d081455d1b6dbe90fe3b7f&#45;&gt;dir_4270bfced15e0e73154b13468c7c9ad9 -->
<g id="edge9" class="edge">
<title>dir_38cc1ac3c9d081455d1b6dbe90fe3b7f&#45;&gt;dir_4270bfced15e0e73154b13468c7c9ad9</title>
<path fill="none" stroke="#000000" d="M74.7754,-359.7681C45.7954,-334.78 0,-286.9204 0,-234 0,-234 0,-234 0,-162 0,-113.1047 39.3778,-68.8706 68.7129,-42.7017"/>
<polygon fill="#000000" stroke="#000000" points="71.0343,-45.3214 76.3014,-36.1285 66.4512,-40.0304 71.0343,-45.3214"/>
<g id="a_edge9&#45;headlabel"><a xlink:href="dir_000280_000010.html" target="_top" xlink:title="15">
<text text-anchor="middle" x="70.1763" y="-47.321" font-family="Helvetica,sans-Serif" font-size="10.00" fill="#000000">15</text>
</a>
</g>
</g>
<!-- dir_38cc1ac3c9d081455d1b6dbe90fe3b7f&#45;&gt;dir_8b9334156f3646fccf89e63b9869c7f9 -->
<g id="edge10" class="edge">
<title>dir_38cc1ac3c9d081455d1b6dbe90fe3b7f&#45;&gt;dir_8b9334156f3646fccf89e63b9869c7f9</title>
<path fill="none" stroke="#000000" d="M86.7409,-359.7188C69.5524,-329.3913 40.5128,-266.967 58,-216 61.469,-205.8894 67.6899,-196.2137 74.299,-187.9166"/>
<polygon fill="#000000" stroke="#000000" points="77.1265,-189.9949 80.95,-180.1141 71.7992,-185.4539 77.1265,-189.9949"/>
<g id="a_edge10&#45;headlabel"><a xlink:href="dir_000280_000183.html" target="_top" xlink:title="14">
<text text-anchor="middle" x="76.9554" y="-192.0724" font-family="Helvetica,sans-Serif" font-size="10.00" fill="#000000">14</text>
</a>
</g>
</g>
<!-- dir_38cc1ac3c9d081455d1b6dbe90fe3b7f&#45;&gt;dir_42835dfcd39ebddc4be81fbab21444c9 -->
<g id="edge11" class="edge">
<title>dir_38cc1ac3c9d081455d1b6dbe90fe3b7f&#45;&gt;dir_42835dfcd39ebddc4be81fbab21444c9</title>
<path fill="none" stroke="#000000" d="M125.2456,-364.4614C152.2223,-350.7794 190.066,-330.7265 194,-324 232.9201,-257.4525 194.0728,-163.1165 170.3758,-117.2088"/>
<polygon fill="#000000" stroke="#000000" points="173.3614,-115.3681 165.5825,-108.1751 167.1779,-118.6491 173.3614,-115.3681"/>
<g id="a_edge11&#45;headlabel"><a xlink:href="dir_000280_000275.html" target="_top" xlink:title="2">
<text text-anchor="middle" x="177.5542" y="-114.7126" font-family="Helvetica,sans-Serif" font-size="10.00" fill="#000000">2</text>
</a>
</g>
</g>
<!-- dir_79c030ac71c6516976d5abab51772218&#45;&gt;dir_4270bfced15e0e73154b13468c7c9ad9 -->
<g id="edge1" class="edge">
<title>dir_79c030ac71c6516976d5abab51772218&#45;&gt;dir_4270bfced15e0e73154b13468c7c9ad9</title>
<path fill="none" stroke="#000000" d="M82.886,-215.7768C75.6451,-205.8586 67.7476,-192.9858 64,-180 50.534,-133.3396 70.4092,-77.8905 85.557,-45.4562"/>
<polygon fill="#000000" stroke="#000000" points="88.8488,-46.6894 90.0641,-36.1645 82.5506,-43.6343 88.8488,-46.6894"/>
<g id="a_edge1&#45;headlabel"><a xlink:href="dir_000025_000010.html" target="_top" xlink:title="50">
<text text-anchor="middle" x="89.8346" y="-48.6627" font-family="Helvetica,sans-Serif" font-size="10.00" fill="#000000">50</text>
</a>
</g>
</g>
<!-- dir_79c030ac71c6516976d5abab51772218&#45;&gt;dir_8b9334156f3646fccf89e63b9869c7f9 -->
<g id="edge2" class="edge">
<title>dir_79c030ac71c6516976d5abab51772218&#45;&gt;dir_8b9334156f3646fccf89e63b9869c7f9</title>
<path fill="none" stroke="#000000" d="M92.5523,-215.8314C92.0158,-208.131 92.0492,-198.9743 92.5956,-190.4166"/>
<polygon fill="#000000" stroke="#000000" points="96.085,-190.691 93.5125,-180.4133 89.1142,-190.052 96.085,-190.691"/>
<g id="a_edge2&#45;headlabel"><a xlink:href="dir_000025_000183.html" target="_top" xlink:title="1">
<text text-anchor="middle" x="98.5844" y="-192.0298" font-family="Helvetica,sans-Serif" font-size="10.00" fill="#000000">1</text>
</a>
</g>
</g>
<!-- dir_8b9334156f3646fccf89e63b9869c7f9&#45;&gt;dir_79c030ac71c6516976d5abab51772218 -->
<g id="edge3" class="edge">
<title>dir_8b9334156f3646fccf89e63b9869c7f9&#45;&gt;dir_79c030ac71c6516976d5abab51772218</title>
<path fill="none" stroke="#000000" d="M105.4645,-180.4133C105.989,-188.1442 105.9441,-197.3097 105.3869,-205.8545"/>
<polygon fill="#000000" stroke="#000000" points="101.9003,-205.5497 104.4571,-215.8314 108.8701,-206.1993 101.9003,-205.5497"/>
<g id="a_edge3&#45;headlabel"><a xlink:href="dir_000183_000025.html" target="_top" xlink:title="179">
<text text-anchor="middle" x="99.4067" y="-199.2071" font-family="Helvetica,sans-Serif" font-size="10.00" fill="#000000">179</text>
</a>
</g>
</g>
<!-- dir_8b9334156f3646fccf89e63b9869c7f9&#45;&gt;dir_4270bfced15e0e73154b13468c7c9ad9 -->
<g id="edge4" class="edge">
<title>dir_8b9334156f3646fccf89e63b9869c7f9&#45;&gt;dir_4270bfced15e0e73154b13468c7c9ad9</title>
<path fill="none" stroke="#000000" d="M100,-143.7623C100,-119.201 100,-75.2474 100,-46.3541"/>
<polygon fill="#000000" stroke="#000000" points="103.5001,-46.0896 100,-36.0896 96.5001,-46.0897 103.5001,-46.0896"/>
<g id="a_edge4&#45;headlabel"><a xlink:href="dir_000183_000010.html" target="_top" xlink:title="420">
<text text-anchor="middle" x="106.3393" y="-47.1842" font-family="Helvetica,sans-Serif" font-size="10.00" fill="#000000">420</text>
</a>
</g>
</g>
<!-- dir_8b9334156f3646fccf89e63b9869c7f9&#45;&gt;dir_42835dfcd39ebddc4be81fbab21444c9 -->
<g id="edge5" class="edge">
<title>dir_8b9334156f3646fccf89e63b9869c7f9&#45;&gt;dir_42835dfcd39ebddc4be81fbab21444c9</title>
<path fill="none" stroke="#000000" d="M113.8788,-143.8314C120.2136,-135.5386 127.8384,-125.557 134.7926,-116.4533"/>
<polygon fill="#000000" stroke="#000000" points="137.6452,-118.4847 140.9343,-108.4133 132.0825,-114.2353 137.6452,-118.4847"/>
<g id="a_edge5&#45;headlabel"><a xlink:href="dir_000183_000275.html" target="_top" xlink:title="49">
<text text-anchor="middle" x="137.7195" y="-120.5647" font-family="Helvetica,sans-Serif" font-size="10.00" fill="#000000">49</text>
</a>
</g>
</g>
<!-- dir_42835dfcd39ebddc4be81fbab21444c9&#45;&gt;dir_79c030ac71c6516976d5abab51772218 -->
<g id="edge6" class="edge">
<title>dir_42835dfcd39ebddc4be81fbab21444c9&#45;&gt;dir_79c030ac71c6516976d5abab51772218</title>
<path fill="none" stroke="#000000" d="M153.3326,-108.2443C151.1323,-126.9071 146.2634,-156.4266 136,-180 131.8565,-189.517 125.8901,-199.0573 119.9088,-207.4137"/>
<polygon fill="#000000" stroke="#000000" points="116.9389,-205.5406 113.746,-215.6429 122.5419,-209.7367 116.9389,-205.5406"/>
<g id="a_edge6&#45;headlabel"><a xlink:href="dir_000275_000025.html" target="_top" xlink:title="15">
<text text-anchor="middle" x="116.821" y="-198.4615" font-family="Helvetica,sans-Serif" font-size="10.00" fill="#000000">15</text>
</a>
</g>
</g>
<!-- dir_42835dfcd39ebddc4be81fbab21444c9&#45;&gt;dir_4270bfced15e0e73154b13468c7c9ad9 -->
<g id="edge7" class="edge">
<title>dir_42835dfcd39ebddc4be81fbab21444c9&#45;&gt;dir_4270bfced15e0e73154b13468c7c9ad9</title>
<path fill="none" stroke="#000000" d="M141.1212,-71.8314C134.7864,-63.5386 127.1616,-53.557 120.2074,-44.4533"/>
<polygon fill="#000000" stroke="#000000" points="122.9175,-42.2353 114.0657,-36.4133 117.3548,-46.4847 122.9175,-42.2353"/>
<g id="a_edge7&#45;headlabel"><a xlink:href="dir_000275_000010.html" target="_top" xlink:title="43">
<text text-anchor="middle" x="127.3558" y="-40.8683" font-family="Helvetica,sans-Serif" font-size="10.00" fill="#000000">43</text>
</a>
</g>
</g>
</g>
</svg>
