<?xml version="1.0" encoding="UTF-8" standalone="no"?>
<!DOCTYPE svg PUBLIC "-//W3C//DTD SVG 1.1//EN"
 "http://www.w3.org/Graphics/SVG/1.1/DTD/svg11.dtd">
<!-- Generated by graphviz version 2.40.1 (0)
 -->
<!-- Title: tmva/tmva/src/DNN/Architectures Pages: 1 -->
<svg width="219pt" height="375pt"
 viewBox="0.00 0.00 218.58 375.00" xmlns="http://www.w3.org/2000/svg" xmlns:xlink="http://www.w3.org/1999/xlink">
<g id="graph0" class="graph" transform="scale(1 1) rotate(0) translate(4 371)">
<title>tmva/tmva/src/DNN/Architectures</title>
<polygon fill="#ffffff" stroke="transparent" points="-4,4 -4,-371 214.575,-371 214.575,4 -4,4"/>
<g id="clust1" class="cluster">
<title>clusterdir_df7c32e2fe17754e3ce1c30d2c5e26f7</title>
<g id="a_clust1"><a xlink:href="dir_df7c32e2fe17754e3ce1c30d2c5e26f7.html" target="_top" xlink:title="DNN">
<polygon fill="#ddddee" stroke="#000000" points="8,-200 8,-359 194,-359 194,-200 8,-200"/>
<text text-anchor="middle" x="101" y="-347" font-family="Helvetica,sans-Serif" font-size="10.00" fill="#000000">DNN</text>
</a>
</g>
</g>
<g id="clust2" class="cluster">
<title>clusterdir_8d602a0373dbb3b30f0de52bdc58b0a7</title>
<g id="a_clust2"><a xlink:href="dir_8d602a0373dbb3b30f0de52bdc58b0a7.html" target="_top">
<polygon fill="#eeeeff" stroke="#000000" points="16,-208 16,-332 186,-332 186,-208 16,-208"/>
</a>
</g>
</g>
<!-- dir_8d602a0373dbb3b30f0de52bdc58b0a7 -->
<g id="node1" class="node">
<title>dir_8d602a0373dbb3b30f0de52bdc58b0a7</title>
<text text-anchor="middle" x="65" y="-303.5" font-family="Helvetica,sans-Serif" font-size="10.00" fill="#000000">Architectures</text>
</g>
<!-- dir_043c2a41e283188215704775ab600cc9 -->
<g id="node2" class="node">
<title>dir_043c2a41e283188215704775ab600cc9</title>
<g id="a_node2"><a xlink:href="dir_043c2a41e283188215704775ab600cc9.html" target="_top" xlink:title="Cpu">
<polygon fill="#ffffff" stroke="#000000" points="78,-252 24,-252 24,-216 78,-216 78,-252"/>
<text text-anchor="middle" x="51" y="-231.5" font-family="Helvetica,sans-Serif" font-size="10.00" fill="#000000">Cpu</text>
</a>
</g>
</g>
<!-- dir_8d602a0373dbb3b30f0de52bdc58b0a7&#45;&gt;dir_043c2a41e283188215704775ab600cc9 -->
<g id="edge9" class="edge">
<title>dir_8d602a0373dbb3b30f0de52bdc58b0a7&#45;&gt;dir_043c2a41e283188215704775ab600cc9</title>
<path fill="none" stroke="#000000" d="M61.4672,-287.8314C59.9699,-280.131 58.1895,-270.9743 56.5255,-262.4166"/>
<polygon fill="#000000" stroke="#000000" points="59.9248,-261.5614 54.5804,-252.4133 53.0535,-262.8975 59.9248,-261.5614"/>
<g id="a_edge9&#45;headlabel"><a xlink:href="dir_000419_000420.html" target="_top" xlink:title="9">
<text text-anchor="middle" x="63.3979" y="-262.048" font-family="Helvetica,sans-Serif" font-size="10.00" fill="#000000">9</text>
</a>
</g>
</g>
<!-- dir_f84f4e204271598043a6882ed9448908 -->
<g id="node4" class="node">
<title>dir_f84f4e204271598043a6882ed9448908</title>
<g id="a_node4"><a xlink:href="dir_f84f4e204271598043a6882ed9448908.html" target="_top" xlink:title="Reference">
<polygon fill="#ffffff" stroke="#000000" points="161.5,-252 96.5,-252 96.5,-216 161.5,-216 161.5,-252"/>
<text text-anchor="middle" x="129" y="-231.5" font-family="Helvetica,sans-Serif" font-size="10.00" fill="#000000">Reference</text>
</a>
</g>
</g>
<!-- dir_8d602a0373dbb3b30f0de52bdc58b0a7&#45;&gt;dir_f84f4e204271598043a6882ed9448908 -->
<g id="edge10" class="edge">
<title>dir_8d602a0373dbb3b30f0de52bdc58b0a7&#45;&gt;dir_f84f4e204271598043a6882ed9448908</title>
<path fill="none" stroke="#000000" d="M81.1499,-287.8314C88.6717,-279.3694 97.7565,-269.1489 105.9804,-259.8971"/>
<polygon fill="#000000" stroke="#000000" points="108.6049,-262.2127 112.6327,-252.4133 103.373,-257.5621 108.6049,-262.2127"/>
<g id="a_edge10&#45;headlabel"><a xlink:href="dir_000419_000421.html" target="_top" xlink:title="10">
<text text-anchor="middle" x="108.3389" y="-264.2856" font-family="Helvetica,sans-Serif" font-size="10.00" fill="#000000">10</text>
</a>
</g>
</g>
<!-- dir_e5f324a990c4e53e87e3a4847f1d2164 -->
<g id="node7" class="node">
<title>dir_e5f324a990c4e53e87e3a4847f1d2164</title>
<g id="a_node7"><a xlink:href="dir_e5f324a990c4e53e87e3a4847f1d2164.html" target="_top" xlink:title="inc">
<polygon fill="#ffffff" stroke="#ff0000" points="209,-180 155,-180 155,-144 209,-144 209,-180"/>
<text text-anchor="middle" x="182" y="-159.5" font-family="Helvetica,sans-Serif" font-size="10.00" fill="#000000">inc</text>
</a>
</g>
</g>
<!-- dir_8d602a0373dbb3b30f0de52bdc58b0a7&#45;&gt;dir_e5f324a990c4e53e87e3a4847f1d2164 -->
<g id="edge11" class="edge">
<title>dir_8d602a0373dbb3b30f0de52bdc58b0a7&#45;&gt;dir_e5f324a990c4e53e87e3a4847f1d2164</title>
<path fill="none" stroke="#000000" d="M105.7449,-289.9615C132.0066,-278.7767 162.7401,-263.8023 171,-252 183.4315,-234.2369 185.6703,-209.5354 185.0856,-190.5035"/>
<polygon fill="#000000" stroke="#000000" points="188.5683,-190.1016 184.4943,-180.3214 181.5801,-190.5075 188.5683,-190.1016"/>
<g id="a_edge11&#45;headlabel"><a xlink:href="dir_000419_000029.html" target="_top" xlink:title="38">
<text text-anchor="middle" x="191.6111" y="-191.0256" font-family="Helvetica,sans-Serif" font-size="10.00" fill="#000000">38</text>
</a>
</g>
</g>
<!-- dir_296d53ceaeaa7e099814a6def439fe8a -->
<g id="node5" class="node">
<title>dir_296d53ceaeaa7e099814a6def439fe8a</title>
<g id="a_node5"><a xlink:href="dir_296d53ceaeaa7e099814a6def439fe8a.html" target="_top" xlink:title="math">
<polygon fill="#ffffff" stroke="#ff0000" points="154,-108 100,-108 100,-72 154,-72 154,-108"/>
<text text-anchor="middle" x="127" y="-87.5" font-family="Helvetica,sans-Serif" font-size="10.00" fill="#000000">math</text>
</a>
</g>
</g>
<!-- dir_043c2a41e283188215704775ab600cc9&#45;&gt;dir_296d53ceaeaa7e099814a6def439fe8a -->
<g id="edge4" class="edge">
<title>dir_043c2a41e283188215704775ab600cc9&#45;&gt;dir_296d53ceaeaa7e099814a6def439fe8a</title>
<path fill="none" stroke="#000000" d="M60.6255,-215.7623C73.7597,-190.8764 97.401,-146.0822 112.6358,-117.2165"/>
<polygon fill="#000000" stroke="#000000" points="115.8804,-118.5671 117.4527,-108.0896 109.6897,-115.2998 115.8804,-118.5671"/>
<g id="a_edge4&#45;headlabel"><a xlink:href="dir_000420_000024.html" target="_top" xlink:title="2">
<text text-anchor="middle" x="116.7137" y="-120.5714" font-family="Helvetica,sans-Serif" font-size="10.00" fill="#000000">2</text>
</a>
</g>
</g>
<!-- dir_4270bfced15e0e73154b13468c7c9ad9 -->
<g id="node6" class="node">
<title>dir_4270bfced15e0e73154b13468c7c9ad9</title>
<g id="a_node6"><a xlink:href="dir_4270bfced15e0e73154b13468c7c9ad9.html" target="_top" xlink:title="core">
<polygon fill="#ffffff" stroke="#ff0000" points="154,-36 100,-36 100,0 154,0 154,-36"/>
<text text-anchor="middle" x="127" y="-15.5" font-family="Helvetica,sans-Serif" font-size="10.00" fill="#000000">core</text>
</a>
</g>
</g>
<!-- dir_043c2a41e283188215704775ab600cc9&#45;&gt;dir_4270bfced15e0e73154b13468c7c9ad9 -->
<g id="edge5" class="edge">
<title>dir_043c2a41e283188215704775ab600cc9&#45;&gt;dir_4270bfced15e0e73154b13468c7c9ad9</title>
<path fill="none" stroke="#000000" d="M53.3905,-215.8419C57.8814,-185.1642 69.156,-121.574 91,-72 95.1812,-62.5109 101.0087,-52.8655 106.7585,-44.4026"/>
<polygon fill="#000000" stroke="#000000" points="109.7361,-46.2538 112.65,-36.0675 104.0198,-42.2134 109.7361,-46.2538"/>
<g id="a_edge5&#45;headlabel"><a xlink:href="dir_000420_000010.html" target="_top" xlink:title="1">
<text text-anchor="middle" x="109.9799" y="-48.328" font-family="Helvetica,sans-Serif" font-size="10.00" fill="#000000">1</text>
</a>
</g>
</g>
<!-- dir_043c2a41e283188215704775ab600cc9&#45;&gt;dir_e5f324a990c4e53e87e3a4847f1d2164 -->
<g id="edge6" class="edge">
<title>dir_043c2a41e283188215704775ab600cc9&#45;&gt;dir_e5f324a990c4e53e87e3a4847f1d2164</title>
<path fill="none" stroke="#000000" d="M67.4601,-215.966C73.2449,-210.3366 80.0459,-204.4443 87,-200 104.9334,-188.5389 126.8894,-179.4822 145.1745,-173.0898"/>
<polygon fill="#000000" stroke="#000000" points="146.5453,-176.3214 154.9063,-169.8142 144.3123,-169.6871 146.5453,-176.3214"/>
<g id="a_edge6&#45;headlabel"><a xlink:href="dir_000420_000029.html" target="_top" xlink:title="18">
<text text-anchor="middle" x="144.0442" y="-177.659" font-family="Helvetica,sans-Serif" font-size="10.00" fill="#000000">18</text>
</a>
</g>
</g>
<!-- dir_fe04caad99dafca11159b7c40702e46a -->
<g id="node3" class="node">
<title>dir_fe04caad99dafca11159b7c40702e46a</title>
<g id="a_node3"><a xlink:href="dir_fe04caad99dafca11159b7c40702e46a.html" target="_top" xlink:title="Cuda">
<polygon fill="#ffffff" stroke="#000000" points="178,-324 124,-324 124,-288 178,-288 178,-324"/>
<text text-anchor="middle" x="151" y="-303.5" font-family="Helvetica,sans-Serif" font-size="10.00" fill="#000000">Cuda</text>
</a>
</g>
</g>
<!-- dir_fe04caad99dafca11159b7c40702e46a&#45;&gt;dir_e5f324a990c4e53e87e3a4847f1d2164 -->
<g id="edge1" class="edge">
<title>dir_fe04caad99dafca11159b7c40702e46a&#45;&gt;dir_e5f324a990c4e53e87e3a4847f1d2164</title>
<path fill="none" stroke="#000000" d="M176.0428,-287.8695C186.812,-278.5148 198.2346,-266.105 204,-252 212.7444,-230.607 209.995,-222.32 204,-200 203.0125,-196.3235 201.5732,-192.6354 199.8958,-189.0801"/>
<polygon fill="#000000" stroke="#000000" points="202.8706,-187.2224 195.0467,-180.0784 196.7079,-190.5422 202.8706,-187.2224"/>
<g id="a_edge1&#45;headlabel"><a xlink:href="dir_000422_000029.html" target="_top" xlink:title="5">
<text text-anchor="middle" x="207.075" y="-186.5405" font-family="Helvetica,sans-Serif" font-size="10.00" fill="#000000">5</text>
</a>
</g>
</g>
<!-- dir_f84f4e204271598043a6882ed9448908&#45;&gt;dir_296d53ceaeaa7e099814a6def439fe8a -->
<g id="edge7" class="edge">
<title>dir_f84f4e204271598043a6882ed9448908&#45;&gt;dir_296d53ceaeaa7e099814a6def439fe8a</title>
<path fill="none" stroke="#000000" d="M128.7467,-215.7623C128.4056,-191.201 127.7951,-147.2474 127.3938,-118.3541"/>
<polygon fill="#000000" stroke="#000000" points="130.8899,-118.04 127.2512,-108.0896 123.8906,-118.1373 130.8899,-118.04"/>
<g id="a_edge7&#45;headlabel"><a xlink:href="dir_000421_000024.html" target="_top" xlink:title="2">
<text text-anchor="middle" x="133.7787" y="-119.0949" font-family="Helvetica,sans-Serif" font-size="10.00" fill="#000000">2</text>
</a>
</g>
</g>
<!-- dir_f84f4e204271598043a6882ed9448908&#45;&gt;dir_e5f324a990c4e53e87e3a4847f1d2164 -->
<g id="edge8" class="edge">
<title>dir_f84f4e204271598043a6882ed9448908&#45;&gt;dir_e5f324a990c4e53e87e3a4847f1d2164</title>
<path fill="none" stroke="#000000" d="M142.3741,-215.8314C148.4162,-207.6232 155.6763,-197.7606 162.3221,-188.7323"/>
<polygon fill="#000000" stroke="#000000" points="165.3363,-190.5415 168.4458,-180.4133 159.6989,-186.3918 165.3363,-190.5415"/>
<g id="a_edge8&#45;headlabel"><a xlink:href="dir_000421_000029.html" target="_top" xlink:title="13">
<text text-anchor="middle" x="165.4919" y="-192.6195" font-family="Helvetica,sans-Serif" font-size="10.00" fill="#000000">13</text>
</a>
</g>
</g>
<!-- dir_296d53ceaeaa7e099814a6def439fe8a&#45;&gt;dir_4270bfced15e0e73154b13468c7c9ad9 -->
<g id="edge2" class="edge">
<title>dir_296d53ceaeaa7e099814a6def439fe8a&#45;&gt;dir_4270bfced15e0e73154b13468c7c9ad9</title>
<path fill="none" stroke="#000000" d="M127,-71.8314C127,-64.131 127,-54.9743 127,-46.4166"/>
<polygon fill="#000000" stroke="#000000" points="130.5001,-46.4132 127,-36.4133 123.5001,-46.4133 130.5001,-46.4132"/>
<g id="a_edge2&#45;headlabel"><a xlink:href="dir_000024_000010.html" target="_top" xlink:title="205">
<text text-anchor="middle" x="133.3393" y="-47.5079" font-family="Helvetica,sans-Serif" font-size="10.00" fill="#000000">205</text>
</a>
</g>
</g>
<!-- dir_296d53ceaeaa7e099814a6def439fe8a&#45;&gt;dir_e5f324a990c4e53e87e3a4847f1d2164 -->
<g id="edge3" class="edge">
<title>dir_296d53ceaeaa7e099814a6def439fe8a&#45;&gt;dir_e5f324a990c4e53e87e3a4847f1d2164</title>
<path fill="none" stroke="#000000" d="M147.0417,-108.4133C154.1246,-116.654 161.851,-126.5245 168.3194,-135.536"/>
<polygon fill="#000000" stroke="#000000" points="165.4981,-137.6095 174.0736,-143.8314 171.2498,-133.6197 165.4981,-137.6095"/>
<g id="a_edge3&#45;headlabel"><a xlink:href="dir_000024_000029.html" target="_top" xlink:title="2">
<text text-anchor="middle" x="161.1164" y="-133.7742" font-family="Helvetica,sans-Serif" font-size="10.00" fill="#000000">2</text>
</a>
</g>
</g>
<!-- dir_e5f324a990c4e53e87e3a4847f1d2164&#45;&gt;dir_296d53ceaeaa7e099814a6def439fe8a -->
<g id="edge12" class="edge">
<title>dir_e5f324a990c4e53e87e3a4847f1d2164&#45;&gt;dir_296d53ceaeaa7e099814a6def439fe8a</title>
<path fill="none" stroke="#000000" d="M162.1688,-143.8314C155.0988,-135.6232 147.3665,-125.7606 140.8734,-116.7323"/>
<polygon fill="#000000" stroke="#000000" points="143.6718,-114.626 135.0897,-108.4133 137.9243,-118.6219 143.6718,-114.626"/>
<g id="a_edge12&#45;headlabel"><a xlink:href="dir_000029_000024.html" target="_top" xlink:title="53">
<text text-anchor="middle" x="148.0549" y="-113.4567" font-family="Helvetica,sans-Serif" font-size="10.00" fill="#000000">53</text>
</a>
</g>
</g>
<!-- dir_e5f324a990c4e53e87e3a4847f1d2164&#45;&gt;dir_4270bfced15e0e73154b13468c7c9ad9 -->
<g id="edge13" class="edge">
<title>dir_e5f324a990c4e53e87e3a4847f1d2164&#45;&gt;dir_4270bfced15e0e73154b13468c7c9ad9</title>
<path fill="none" stroke="#000000" d="M180.2095,-143.8083C177.9112,-125.1875 172.9655,-95.7008 163,-72 159.0456,-62.5953 153.3848,-53.0879 147.7195,-44.727"/>
<polygon fill="#000000" stroke="#000000" points="150.5184,-42.6231 141.8853,-36.4815 144.8041,-46.6664 150.5184,-42.6231"/>
<g id="a_edge13&#45;headlabel"><a xlink:href="dir_000029_000010.html" target="_top" xlink:title="138">
<text text-anchor="middle" x="154.9124" y="-41.4175" font-family="Helvetica,sans-Serif" font-size="10.00" fill="#000000">138</text>
</a>
</g>
</g>
</g>
</svg>
