<?xml version="1.0" encoding="UTF-8" standalone="no"?>
<!DOCTYPE svg PUBLIC "-//W3C//DTD SVG 1.1//EN"
 "http://www.w3.org/Graphics/SVG/1.1/DTD/svg11.dtd">
<!-- Generated by graphviz version 2.40.1 (0)
 -->
<!-- Title: tmva/tmva/src Pages: 1 -->
<svg width="678pt" height="663pt"
 viewBox="0.00 0.00 678.00 663.00" xmlns="http://www.w3.org/2000/svg" xmlns:xlink="http://www.w3.org/1999/xlink">
<g id="graph0" class="graph" transform="scale(1 1) rotate(0) translate(4 659)">
<title>tmva/tmva/src</title>
<polygon fill="#ffffff" stroke="transparent" points="-4,4 -4,-659 674,-659 674,4 -4,4"/>
<g id="clust1" class="cluster">
<title>clusterdir_ed3dab6383bd5f321850908cd5a1281f</title>
<g id="a_clust1"><a xlink:href="dir_ed3dab6383bd5f321850908cd5a1281f.html" target="_top" xlink:title="tmva">
<polygon fill="#ddddee" stroke="#000000" points="431,-560 431,-647 589,-647 589,-560 431,-560"/>
<text text-anchor="middle" x="510" y="-635" font-family="Helvetica,sans-Serif" font-size="10.00" fill="#000000">tmva</text>
</a>
</g>
</g>
<g id="clust2" class="cluster">
<title>clusterdir_fa043daba8c93a66cb43f1b81507d7c7</title>
<g id="a_clust2"><a xlink:href="dir_fa043daba8c93a66cb43f1b81507d7c7.html" target="_top">
<polygon fill="#eeeeff" stroke="#000000" points="439,-568 439,-620 581,-620 581,-568 439,-568"/>
</a>
</g>
</g>
<!-- dir_fa043daba8c93a66cb43f1b81507d7c7 -->
<g id="node1" class="node">
<title>dir_fa043daba8c93a66cb43f1b81507d7c7</title>
<text text-anchor="middle" x="474" y="-591.5" font-family="Helvetica,sans-Serif" font-size="10.00" fill="#000000">src</text>
</g>
<!-- dir_d63739ff7c7d10df1d8b11cb930e324f -->
<g id="node3" class="node">
<title>dir_d63739ff7c7d10df1d8b11cb930e324f</title>
<g id="a_node3"><a xlink:href="dir_d63739ff7c7d10df1d8b11cb930e324f.html" target="_top" xlink:title="tmvagui">
<polygon fill="#ffffff" stroke="#ff0000" points="161.5,-540 104.5,-540 104.5,-504 161.5,-504 161.5,-540"/>
<text text-anchor="middle" x="133" y="-519.5" font-family="Helvetica,sans-Serif" font-size="10.00" fill="#000000">tmvagui</text>
</a>
</g>
</g>
<!-- dir_fa043daba8c93a66cb43f1b81507d7c7&#45;&gt;dir_d63739ff7c7d10df1d8b11cb930e324f -->
<g id="edge19" class="edge">
<title>dir_fa043daba8c93a66cb43f1b81507d7c7&#45;&gt;dir_d63739ff7c7d10df1d8b11cb930e324f</title>
<path fill="none" stroke="#000000" d="M446.8304,-591.0804C393.888,-584.9546 273.5537,-568.8832 176,-540 174.545,-539.5692 173.0725,-539.105 171.5928,-538.6145"/>
<polygon fill="#000000" stroke="#000000" points="172.4274,-535.1941 161.8333,-535.073 170.0396,-541.7742 172.4274,-535.1941"/>
<g id="a_edge19&#45;headlabel"><a xlink:href="dir_000270_000423.html" target="_top" xlink:title="1">
<text text-anchor="middle" x="176.7749" y="-531.2512" font-family="Helvetica,sans-Serif" font-size="10.00" fill="#000000">1</text>
</a>
</g>
</g>
<!-- dir_70093cb3a9d1f8840af4e997fde867c3 -->
<g id="node5" class="node">
<title>dir_70093cb3a9d1f8840af4e997fde867c3</title>
<g id="a_node5"><a xlink:href="dir_70093cb3a9d1f8840af4e997fde867c3.html" target="_top" xlink:title="tree">
<polygon fill="#ffffff" stroke="#ff0000" points="460,-324 406,-324 406,-288 460,-288 460,-324"/>
<text text-anchor="middle" x="433" y="-303.5" font-family="Helvetica,sans-Serif" font-size="10.00" fill="#000000">tree</text>
</a>
</g>
</g>
<!-- dir_fa043daba8c93a66cb43f1b81507d7c7&#45;&gt;dir_70093cb3a9d1f8840af4e997fde867c3 -->
<g id="edge20" class="edge">
<title>dir_fa043daba8c93a66cb43f1b81507d7c7&#45;&gt;dir_70093cb3a9d1f8840af4e997fde867c3</title>
<path fill="none" stroke="#000000" d="M471.4353,-575.9843C464.5037,-527.2939 445.3564,-392.7961 436.9943,-334.0573"/>
<polygon fill="#000000" stroke="#000000" points="440.4383,-333.4157 435.5638,-324.0089 433.5082,-334.4024 440.4383,-333.4157"/>
<g id="a_edge20&#45;headlabel"><a xlink:href="dir_000270_000427.html" target="_top" xlink:title="33">
<text text-anchor="middle" x="443.7558" y="-334.0743" font-family="Helvetica,sans-Serif" font-size="10.00" fill="#000000">33</text>
</a>
</g>
</g>
<!-- dir_8b9334156f3646fccf89e63b9869c7f9 -->
<g id="node7" class="node">
<title>dir_8b9334156f3646fccf89e63b9869c7f9</title>
<g id="a_node7"><a xlink:href="dir_8b9334156f3646fccf89e63b9869c7f9.html" target="_top" xlink:title="hist">
<polygon fill="#ffffff" stroke="#ff0000" points="338,-180 284,-180 284,-144 338,-144 338,-180"/>
<text text-anchor="middle" x="311" y="-159.5" font-family="Helvetica,sans-Serif" font-size="10.00" fill="#000000">hist</text>
</a>
</g>
</g>
<!-- dir_fa043daba8c93a66cb43f1b81507d7c7&#45;&gt;dir_8b9334156f3646fccf89e63b9869c7f9 -->
<g id="edge21" class="edge">
<title>dir_fa043daba8c93a66cb43f1b81507d7c7&#45;&gt;dir_8b9334156f3646fccf89e63b9869c7f9</title>
<path fill="none" stroke="#000000" d="M446.8279,-593.4323C369.6091,-591.3175 150.8553,-581.698 95,-540 66.7924,-518.942 69.506,-502.3914 62,-468 35.7489,-347.7202 81.4998,-293.6921 177,-216 205.5434,-192.7791 245.3779,-178.4387 274.1889,-170.4263"/>
<polygon fill="#000000" stroke="#000000" points="275.1167,-173.8013 283.8834,-167.852 273.3201,-167.0358 275.1167,-173.8013"/>
<g id="a_edge21&#45;headlabel"><a xlink:href="dir_000270_000183.html" target="_top" xlink:title="98">
<text text-anchor="middle" x="272.3712" y="-174.968" font-family="Helvetica,sans-Serif" font-size="10.00" fill="#000000">98</text>
</a>
</g>
</g>
<!-- dir_bc161955dc3a3d2485839eba21420d01 -->
<g id="node8" class="node">
<title>dir_bc161955dc3a3d2485839eba21420d01</title>
<g id="a_node8"><a xlink:href="dir_bc161955dc3a3d2485839eba21420d01.html" target="_top" xlink:title="io">
<polygon fill="#ffffff" stroke="#ff0000" points="448,-108 394,-108 394,-72 448,-72 448,-108"/>
<text text-anchor="middle" x="421" y="-87.5" font-family="Helvetica,sans-Serif" font-size="10.00" fill="#000000">io</text>
</a>
</g>
</g>
<!-- dir_fa043daba8c93a66cb43f1b81507d7c7&#45;&gt;dir_bc161955dc3a3d2485839eba21420d01 -->
<g id="edge22" class="edge">
<title>dir_fa043daba8c93a66cb43f1b81507d7c7&#45;&gt;dir_bc161955dc3a3d2485839eba21420d01</title>
<path fill="none" stroke="#000000" d="M488.8867,-575.7775C518.6379,-537.1456 581.0975,-443.6901 563,-360 540.7189,-256.9629 520.5335,-233.6054 465,-144 459.0137,-134.3409 451.4937,-124.497 444.3725,-115.9055"/>
<polygon fill="#000000" stroke="#000000" points="446.8762,-113.447 437.7303,-108.0989 441.5448,-117.9832 446.8762,-113.447"/>
<g id="a_edge22&#45;headlabel"><a xlink:href="dir_000270_000221.html" target="_top" xlink:title="28">
<text text-anchor="middle" x="451.368" y="-111.8448" font-family="Helvetica,sans-Serif" font-size="10.00" fill="#000000">28</text>
</a>
</g>
</g>
<!-- dir_2486e8ffb12756dbae41708f4979a859 -->
<g id="node10" class="node">
<title>dir_2486e8ffb12756dbae41708f4979a859</title>
<g id="a_node10"><a xlink:href="dir_2486e8ffb12756dbae41708f4979a859.html" target="_top" xlink:title="graf2d">
<polygon fill="#ffffff" stroke="#ff0000" points="358,-252 304,-252 304,-216 358,-216 358,-252"/>
<text text-anchor="middle" x="331" y="-231.5" font-family="Helvetica,sans-Serif" font-size="10.00" fill="#000000">graf2d</text>
</a>
</g>
</g>
<!-- dir_fa043daba8c93a66cb43f1b81507d7c7&#45;&gt;dir_2486e8ffb12756dbae41708f4979a859 -->
<g id="edge23" class="edge">
<title>dir_fa043daba8c93a66cb43f1b81507d7c7&#45;&gt;dir_2486e8ffb12756dbae41708f4979a859</title>
<path fill="none" stroke="#000000" d="M446.7689,-592.7699C375.686,-587.9569 190,-564.4326 190,-450 190,-450 190,-450 190,-378 190,-318.147 252.9577,-273.9858 294.7348,-251.2705"/>
<polygon fill="#000000" stroke="#000000" points="296.5981,-254.2449 303.8138,-246.487 293.3351,-248.0519 296.5981,-254.2449"/>
<g id="a_edge23&#45;headlabel"><a xlink:href="dir_000270_000111.html" target="_top" xlink:title="12">
<text text-anchor="middle" x="294.7413" y="-255.9323" font-family="Helvetica,sans-Serif" font-size="10.00" fill="#000000">12</text>
</a>
</g>
</g>
<!-- dir_df7c32e2fe17754e3ce1c30d2c5e26f7 -->
<g id="node2" class="node">
<title>dir_df7c32e2fe17754e3ce1c30d2c5e26f7</title>
<g id="a_node2"><a xlink:href="dir_df7c32e2fe17754e3ce1c30d2c5e26f7.html" target="_top" xlink:title="DNN">
<polygon fill="#ffffff" stroke="#ff0000" points="573,-612 519,-612 519,-576 573,-576 573,-612"/>
<text text-anchor="middle" x="546" y="-591.5" font-family="Helvetica,sans-Serif" font-size="10.00" fill="#000000">DNN</text>
</a>
</g>
</g>
<!-- dir_296d53ceaeaa7e099814a6def439fe8a -->
<g id="node4" class="node">
<title>dir_296d53ceaeaa7e099814a6def439fe8a</title>
<g id="a_node4"><a xlink:href="dir_296d53ceaeaa7e099814a6def439fe8a.html" target="_top" xlink:title="math">
<polygon fill="#ffffff" stroke="#ff0000" points="358,-468 304,-468 304,-432 358,-432 358,-468"/>
<text text-anchor="middle" x="331" y="-447.5" font-family="Helvetica,sans-Serif" font-size="10.00" fill="#000000">math</text>
</a>
</g>
</g>
<!-- dir_df7c32e2fe17754e3ce1c30d2c5e26f7&#45;&gt;dir_296d53ceaeaa7e099814a6def439fe8a -->
<g id="edge36" class="edge">
<title>dir_df7c32e2fe17754e3ce1c30d2c5e26f7&#45;&gt;dir_296d53ceaeaa7e099814a6def439fe8a</title>
<path fill="none" stroke="#000000" d="M528.3352,-575.9408C522.6923,-570.5554 516.2774,-564.8112 510,-560 463.295,-524.2039 404.3683,-489.8393 367.1722,-469.3179"/>
<polygon fill="#000000" stroke="#000000" points="368.6564,-466.1403 358.2044,-464.4064 365.2939,-472.2798 368.6564,-466.1403"/>
<g id="a_edge36&#45;headlabel"><a xlink:href="dir_000418_000024.html" target="_top" xlink:title="4">
<text text-anchor="middle" x="373.173" y="-462.8767" font-family="Helvetica,sans-Serif" font-size="10.00" fill="#000000">4</text>
</a>
</g>
</g>
<!-- dir_4270bfced15e0e73154b13468c7c9ad9 -->
<g id="node6" class="node">
<title>dir_4270bfced15e0e73154b13468c7c9ad9</title>
<g id="a_node6"><a xlink:href="dir_4270bfced15e0e73154b13468c7c9ad9.html" target="_top" xlink:title="core">
<polygon fill="#ffffff" stroke="#ff0000" points="448,-36 394,-36 394,0 448,0 448,-36"/>
<text text-anchor="middle" x="421" y="-15.5" font-family="Helvetica,sans-Serif" font-size="10.00" fill="#000000">core</text>
</a>
</g>
</g>
<!-- dir_df7c32e2fe17754e3ce1c30d2c5e26f7&#45;&gt;dir_4270bfced15e0e73154b13468c7c9ad9 -->
<g id="edge37" class="edge">
<title>dir_df7c32e2fe17754e3ce1c30d2c5e26f7&#45;&gt;dir_4270bfced15e0e73154b13468c7c9ad9</title>
<path fill="none" stroke="#000000" d="M573.2123,-578.5901C609.7138,-555.6659 670,-508.89 670,-450 670,-450 670,-450 670,-162 670,-65.3391 527.6471,-32.5257 458.2095,-22.2695"/>
<polygon fill="#000000" stroke="#000000" points="458.509,-18.7775 448.1214,-20.8628 457.5421,-25.7104 458.509,-18.7775"/>
<g id="a_edge37&#45;headlabel"><a xlink:href="dir_000418_000010.html" target="_top" xlink:title="1">
<text text-anchor="middle" x="462.4612" y="-13.9618" font-family="Helvetica,sans-Serif" font-size="10.00" fill="#000000">1</text>
</a>
</g>
</g>
<!-- dir_e5f324a990c4e53e87e3a4847f1d2164 -->
<g id="node9" class="node">
<title>dir_e5f324a990c4e53e87e3a4847f1d2164</title>
<g id="a_node9"><a xlink:href="dir_e5f324a990c4e53e87e3a4847f1d2164.html" target="_top" xlink:title="inc">
<polygon fill="#ffffff" stroke="#ff0000" points="554,-396 500,-396 500,-360 554,-360 554,-396"/>
<text text-anchor="middle" x="527" y="-375.5" font-family="Helvetica,sans-Serif" font-size="10.00" fill="#000000">inc</text>
</a>
</g>
</g>
<!-- dir_df7c32e2fe17754e3ce1c30d2c5e26f7&#45;&gt;dir_e5f324a990c4e53e87e3a4847f1d2164 -->
<g id="edge38" class="edge">
<title>dir_df7c32e2fe17754e3ce1c30d2c5e26f7&#45;&gt;dir_e5f324a990c4e53e87e3a4847f1d2164</title>
<path fill="none" stroke="#000000" d="M544.4128,-575.9555C541.1017,-538.3144 533.4377,-451.1867 529.4739,-406.1246"/>
<polygon fill="#000000" stroke="#000000" points="532.959,-405.7999 528.5961,-396.1451 525.9859,-406.4133 532.959,-405.7999"/>
<g id="a_edge38&#45;headlabel"><a xlink:href="dir_000418_000029.html" target="_top" xlink:title="38">
<text text-anchor="middle" x="536.1022" y="-406.6319" font-family="Helvetica,sans-Serif" font-size="10.00" fill="#000000">38</text>
</a>
</g>
</g>
<!-- dir_d63739ff7c7d10df1d8b11cb930e324f&#45;&gt;dir_296d53ceaeaa7e099814a6def439fe8a -->
<g id="edge1" class="edge">
<title>dir_d63739ff7c7d10df1d8b11cb930e324f&#45;&gt;dir_296d53ceaeaa7e099814a6def439fe8a</title>
<path fill="none" stroke="#000000" d="M161.7909,-511.5306C196.7432,-498.8207 255.7507,-477.3634 294.0325,-463.4427"/>
<polygon fill="#000000" stroke="#000000" points="295.565,-466.6098 303.7668,-459.903 293.1727,-460.0312 295.565,-466.6098"/>
<g id="a_edge1&#45;headlabel"><a xlink:href="dir_000423_000024.html" target="_top" xlink:title="2">
<text text-anchor="middle" x="293.157" y="-468.0065" font-family="Helvetica,sans-Serif" font-size="10.00" fill="#000000">2</text>
</a>
</g>
</g>
<!-- dir_d63739ff7c7d10df1d8b11cb930e324f&#45;&gt;dir_70093cb3a9d1f8840af4e997fde867c3 -->
<g id="edge2" class="edge">
<title>dir_d63739ff7c7d10df1d8b11cb930e324f&#45;&gt;dir_70093cb3a9d1f8840af4e997fde867c3</title>
<path fill="none" stroke="#000000" d="M161.8882,-518.3727C217.0953,-510.9593 334.9519,-492.6672 367,-468 409.2748,-435.4613 424.6089,-371.3021 430.07,-334.2368"/>
<polygon fill="#000000" stroke="#000000" points="433.568,-334.4827 431.415,-324.1089 426.6289,-333.5611 433.568,-334.4827"/>
<g id="a_edge2&#45;headlabel"><a xlink:href="dir_000423_000427.html" target="_top" xlink:title="12">
<text text-anchor="middle" x="435.9094" y="-335.9198" font-family="Helvetica,sans-Serif" font-size="10.00" fill="#000000">12</text>
</a>
</g>
</g>
<!-- dir_d63739ff7c7d10df1d8b11cb930e324f&#45;&gt;dir_4270bfced15e0e73154b13468c7c9ad9 -->
<g id="edge3" class="edge">
<title>dir_d63739ff7c7d10df1d8b11cb930e324f&#45;&gt;dir_4270bfced15e0e73154b13468c7c9ad9</title>
<path fill="none" stroke="#000000" d="M111.9258,-503.8349C74.4234,-469.3645 0,-390.3342 0,-306 0,-306 0,-306 0,-162 0,-81.2493 280.7921,-36.3505 383.7423,-22.6025"/>
<polygon fill="#000000" stroke="#000000" points="384.2416,-26.067 393.7014,-21.296 383.3311,-19.1265 384.2416,-26.067"/>
<g id="a_edge3&#45;headlabel"><a xlink:href="dir_000423_000010.html" target="_top" xlink:title="81">
<text text-anchor="middle" x="381.0468" y="-26.8496" font-family="Helvetica,sans-Serif" font-size="10.00" fill="#000000">81</text>
</a>
</g>
</g>
<!-- dir_d63739ff7c7d10df1d8b11cb930e324f&#45;&gt;dir_8b9334156f3646fccf89e63b9869c7f9 -->
<g id="edge4" class="edge">
<title>dir_d63739ff7c7d10df1d8b11cb930e324f&#45;&gt;dir_8b9334156f3646fccf89e63b9869c7f9</title>
<path fill="none" stroke="#000000" d="M128.7259,-503.9393C119.8724,-461.9078 103.9777,-355.9579 150,-288 182.2918,-240.3171 238.3231,-202.4632 275.0309,-181.133"/>
<polygon fill="#000000" stroke="#000000" points="276.9633,-184.0603 283.9209,-176.0702 273.4992,-177.9776 276.9633,-184.0603"/>
<g id="a_edge4&#45;headlabel"><a xlink:href="dir_000423_000183.html" target="_top" xlink:title="38">
<text text-anchor="middle" x="275.2448" y="-185.8064" font-family="Helvetica,sans-Serif" font-size="10.00" fill="#000000">38</text>
</a>
</g>
</g>
<!-- dir_d63739ff7c7d10df1d8b11cb930e324f&#45;&gt;dir_bc161955dc3a3d2485839eba21420d01 -->
<g id="edge5" class="edge">
<title>dir_d63739ff7c7d10df1d8b11cb930e324f&#45;&gt;dir_bc161955dc3a3d2485839eba21420d01</title>
<path fill="none" stroke="#000000" d="M120.6318,-503.8166C103.8677,-477.3548 76,-426.1283 76,-378 76,-378 76,-378 76,-306 76,-161.8927 294.919,-110.3105 383.9818,-95.2882"/>
<polygon fill="#000000" stroke="#000000" points="384.6191,-98.7306 393.9284,-93.6723 383.4966,-91.8212 384.6191,-98.7306"/>
<g id="a_edge5&#45;headlabel"><a xlink:href="dir_000423_000221.html" target="_top" xlink:title="33">
<text text-anchor="middle" x="381.5263" y="-99.6095" font-family="Helvetica,sans-Serif" font-size="10.00" fill="#000000">33</text>
</a>
</g>
</g>
<!-- dir_d63739ff7c7d10df1d8b11cb930e324f&#45;&gt;dir_e5f324a990c4e53e87e3a4847f1d2164 -->
<g id="edge6" class="edge">
<title>dir_d63739ff7c7d10df1d8b11cb930e324f&#45;&gt;dir_e5f324a990c4e53e87e3a4847f1d2164</title>
<path fill="none" stroke="#000000" d="M161.5943,-519.5505C229.5777,-513.3407 398.8516,-495.4972 448,-468 474.8305,-452.9891 497.0239,-425.2901 510.9849,-404.5699"/>
<polygon fill="#000000" stroke="#000000" points="513.9283,-406.4638 516.4537,-396.1744 508.0629,-402.6431 513.9283,-406.4638"/>
<g id="a_edge6&#45;headlabel"><a xlink:href="dir_000423_000029.html" target="_top" xlink:title="30">
<text text-anchor="middle" x="514.3454" y="-408.5254" font-family="Helvetica,sans-Serif" font-size="10.00" fill="#000000">30</text>
</a>
</g>
</g>
<!-- dir_d63739ff7c7d10df1d8b11cb930e324f&#45;&gt;dir_2486e8ffb12756dbae41708f4979a859 -->
<g id="edge7" class="edge">
<title>dir_d63739ff7c7d10df1d8b11cb930e324f&#45;&gt;dir_2486e8ffb12756dbae41708f4979a859</title>
<path fill="none" stroke="#000000" d="M130.7167,-503.9328C126.3423,-460.9584 121.5646,-351.5055 176,-288 191.5579,-269.8499 253.3018,-252.2955 294.0088,-242.3521"/>
<polygon fill="#000000" stroke="#000000" points="294.9538,-245.7249 303.8638,-239.9924 293.3237,-238.9173 294.9538,-245.7249"/>
<g id="a_edge7&#45;headlabel"><a xlink:href="dir_000423_000111.html" target="_top" xlink:title="90">
<text text-anchor="middle" x="292.1191" y="-246.8231" font-family="Helvetica,sans-Serif" font-size="10.00" fill="#000000">90</text>
</a>
</g>
</g>
<!-- dir_296d53ceaeaa7e099814a6def439fe8a&#45;&gt;dir_70093cb3a9d1f8840af4e997fde867c3 -->
<g id="edge8" class="edge">
<title>dir_296d53ceaeaa7e099814a6def439fe8a&#45;&gt;dir_70093cb3a9d1f8840af4e997fde867c3</title>
<path fill="none" stroke="#000000" d="M339.2452,-431.7623C354.5778,-406.5518 386.6845,-360.9103 409.1746,-332.0952"/>
<polygon fill="#000000" stroke="#000000" points="412.0531,-334.0983 415.5282,-324.0896 406.5701,-329.7467 412.0531,-334.0983"/>
<g id="a_edge8&#45;headlabel"><a xlink:href="dir_000024_000427.html" target="_top" xlink:title="14">
<text text-anchor="middle" x="412.0424" y="-336.179" font-family="Helvetica,sans-Serif" font-size="10.00" fill="#000000">14</text>
</a>
</g>
</g>
<!-- dir_296d53ceaeaa7e099814a6def439fe8a&#45;&gt;dir_4270bfced15e0e73154b13468c7c9ad9 -->
<g id="edge9" class="edge">
<title>dir_296d53ceaeaa7e099814a6def439fe8a&#45;&gt;dir_4270bfced15e0e73154b13468c7c9ad9</title>
<path fill="none" stroke="#000000" d="M319.221,-431.695C313.2005,-421.5473 306.2633,-408.4876 302,-396 265.6068,-289.4001 239.8582,-251.019 275,-144 287.3965,-106.2483 298.4212,-98.5322 328,-72 344.806,-56.925 366.4851,-44.0432 384.6839,-34.6461"/>
<polygon fill="#000000" stroke="#000000" points="386.4682,-37.6668 393.8393,-30.0565 383.3312,-31.4091 386.4682,-37.6668"/>
<g id="a_edge9&#45;headlabel"><a xlink:href="dir_000024_000010.html" target="_top" xlink:title="205">
<text text-anchor="middle" x="384.5272" y="-39.3159" font-family="Helvetica,sans-Serif" font-size="10.00" fill="#000000">205</text>
</a>
</g>
</g>
<!-- dir_296d53ceaeaa7e099814a6def439fe8a&#45;&gt;dir_8b9334156f3646fccf89e63b9869c7f9 -->
<g id="edge10" class="edge">
<title>dir_296d53ceaeaa7e099814a6def439fe8a&#45;&gt;dir_8b9334156f3646fccf89e63b9869c7f9</title>
<path fill="none" stroke="#000000" d="M319.6589,-431.8113C302.2424,-392.4753 274.319,-296.5412 286,-216 287.271,-207.2366 289.645,-197.9156 292.5811,-189.5282"/>
<polygon fill="#000000" stroke="#000000" points="295.8468,-190.7874 296.2536,-180.2004 289.3335,-188.223 295.8468,-190.7874"/>
<g id="a_edge10&#45;headlabel"><a xlink:href="dir_000024_000183.html" target="_top" xlink:title="46">
<text text-anchor="middle" x="297.1719" y="-192.6722" font-family="Helvetica,sans-Serif" font-size="10.00" fill="#000000">46</text>
</a>
</g>
</g>
<!-- dir_296d53ceaeaa7e099814a6def439fe8a&#45;&gt;dir_e5f324a990c4e53e87e3a4847f1d2164 -->
<g id="edge11" class="edge">
<title>dir_296d53ceaeaa7e099814a6def439fe8a&#45;&gt;dir_e5f324a990c4e53e87e3a4847f1d2164</title>
<path fill="none" stroke="#000000" d="M358.1991,-438.1107C392.6065,-424.6913 451.6674,-402.9997 490.0978,-389.6709"/>
<polygon fill="#000000" stroke="#000000" points="491.5551,-392.871 499.8739,-386.3098 489.2792,-386.2513 491.5551,-392.871"/>
<g id="a_edge11&#45;headlabel"><a xlink:href="dir_000024_000029.html" target="_top" xlink:title="2">
<text text-anchor="middle" x="489.0789" y="-394.2247" font-family="Helvetica,sans-Serif" font-size="10.00" fill="#000000">2</text>
</a>
</g>
</g>
<!-- dir_296d53ceaeaa7e099814a6def439fe8a&#45;&gt;dir_2486e8ffb12756dbae41708f4979a859 -->
<g id="edge12" class="edge">
<title>dir_296d53ceaeaa7e099814a6def439fe8a&#45;&gt;dir_2486e8ffb12756dbae41708f4979a859</title>
<path fill="none" stroke="#000000" d="M327.0541,-431.9555C323.5956,-394.3144 323.3363,-307.1867 326.2761,-262.1246"/>
<polygon fill="#000000" stroke="#000000" points="329.7664,-262.3844 327.0449,-252.1451 322.7871,-261.8467 329.7664,-262.3844"/>
<g id="a_edge12&#45;headlabel"><a xlink:href="dir_000024_000111.html" target="_top" xlink:title="10">
<text text-anchor="middle" x="332.3213" y="-263.6864" font-family="Helvetica,sans-Serif" font-size="10.00" fill="#000000">10</text>
</a>
</g>
</g>
<!-- dir_70093cb3a9d1f8840af4e997fde867c3&#45;&gt;dir_296d53ceaeaa7e099814a6def439fe8a -->
<g id="edge13" class="edge">
<title>dir_70093cb3a9d1f8840af4e997fde867c3&#45;&gt;dir_296d53ceaeaa7e099814a6def439fe8a</title>
<path fill="none" stroke="#000000" d="M424.8448,-324.0896C409.5781,-349.2198 377.4856,-394.8541 354.9579,-423.7351"/>
<polygon fill="#000000" stroke="#000000" points="352.0632,-421.7524 348.5915,-431.7623 357.5477,-426.1022 352.0632,-421.7524"/>
<g id="a_edge13&#45;headlabel"><a xlink:href="dir_000427_000024.html" target="_top" xlink:title="33">
<text text-anchor="middle" x="352.0723" y="-414.6717" font-family="Helvetica,sans-Serif" font-size="10.00" fill="#000000">33</text>
</a>
</g>
</g>
<!-- dir_70093cb3a9d1f8840af4e997fde867c3&#45;&gt;dir_4270bfced15e0e73154b13468c7c9ad9 -->
<g id="edge14" class="edge">
<title>dir_70093cb3a9d1f8840af4e997fde867c3&#45;&gt;dir_4270bfced15e0e73154b13468c7c9ad9</title>
<path fill="none" stroke="#000000" d="M439.5422,-287.9319C452.9849,-248.0344 480.5501,-149.7808 457,-72 454.0436,-62.2355 448.6748,-52.6229 442.97,-44.2762"/>
<polygon fill="#000000" stroke="#000000" points="445.7129,-42.0973 436.9905,-36.0831 440.0586,-46.2239 445.7129,-42.0973"/>
<g id="a_edge14&#45;headlabel"><a xlink:href="dir_000427_000010.html" target="_top" xlink:title="661">
<text text-anchor="middle" x="450.1253" y="-40.827" font-family="Helvetica,sans-Serif" font-size="10.00" fill="#000000">661</text>
</a>
</g>
</g>
<!-- dir_70093cb3a9d1f8840af4e997fde867c3&#45;&gt;dir_8b9334156f3646fccf89e63b9869c7f9 -->
<g id="edge15" class="edge">
<title>dir_70093cb3a9d1f8840af4e997fde867c3&#45;&gt;dir_8b9334156f3646fccf89e63b9869c7f9</title>
<path fill="none" stroke="#000000" d="M414.198,-287.7215C399.3392,-269.0316 378.5268,-239.4907 358,-216 349.4768,-206.2461 339.4802,-196.2216 330.7835,-187.4981"/>
<polygon fill="#000000" stroke="#000000" points="333.0743,-184.8378 323.5453,-180.2065 328.1064,-189.7693 333.0743,-184.8378"/>
<g id="a_edge15&#45;headlabel"><a xlink:href="dir_000427_000183.html" target="_top" xlink:title="46">
<text text-anchor="middle" x="337.6218" y="-182.8886" font-family="Helvetica,sans-Serif" font-size="10.00" fill="#000000">46</text>
</a>
</g>
</g>
<!-- dir_70093cb3a9d1f8840af4e997fde867c3&#45;&gt;dir_bc161955dc3a3d2485839eba21420d01 -->
<g id="edge16" class="edge">
<title>dir_70093cb3a9d1f8840af4e997fde867c3&#45;&gt;dir_bc161955dc3a3d2485839eba21420d01</title>
<path fill="none" stroke="#000000" d="M431.9975,-287.9555C429.9108,-250.3938 425.0863,-163.5541 422.5784,-118.4103"/>
<polygon fill="#000000" stroke="#000000" points="426.0575,-117.9355 422.0081,-108.1451 419.0682,-118.3238 426.0575,-117.9355"/>
<g id="a_edge16&#45;headlabel"><a xlink:href="dir_000427_000221.html" target="_top" xlink:title="73">
<text text-anchor="middle" x="429.0917" y="-118.8671" font-family="Helvetica,sans-Serif" font-size="10.00" fill="#000000">73</text>
</a>
</g>
</g>
<!-- dir_70093cb3a9d1f8840af4e997fde867c3&#45;&gt;dir_2486e8ffb12756dbae41708f4979a859 -->
<g id="edge17" class="edge">
<title>dir_70093cb3a9d1f8840af4e997fde867c3&#45;&gt;dir_2486e8ffb12756dbae41708f4979a859</title>
<path fill="none" stroke="#000000" d="M407.2611,-287.8314C394.4563,-278.7927 378.8091,-267.7476 365.0281,-258.0198"/>
<polygon fill="#000000" stroke="#000000" points="366.9188,-255.0703 356.7307,-252.1628 362.882,-260.7891 366.9188,-255.0703"/>
<g id="a_edge17&#45;headlabel"><a xlink:href="dir_000427_000111.html" target="_top" xlink:title="38">
<text text-anchor="middle" x="371.4928" y="-252.3236" font-family="Helvetica,sans-Serif" font-size="10.00" fill="#000000">38</text>
</a>
</g>
</g>
<!-- dir_4270bfced15e0e73154b13468c7c9ad9&#45;&gt;dir_bc161955dc3a3d2485839eba21420d01 -->
<g id="edge18" class="edge">
<title>dir_4270bfced15e0e73154b13468c7c9ad9&#45;&gt;dir_bc161955dc3a3d2485839eba21420d01</title>
<path fill="none" stroke="#000000" d="M426.976,-36.4133C427.7071,-44.0593 427.9203,-53.1084 427.6155,-61.5726"/>
<polygon fill="#000000" stroke="#000000" points="424.1048,-61.6264 426.9524,-71.8314 431.0902,-62.078 424.1048,-61.6264"/>
<g id="a_edge18&#45;headlabel"><a xlink:href="dir_000010_000221.html" target="_top" xlink:title="5">
<text text-anchor="middle" x="421.5032" y="-55.3562" font-family="Helvetica,sans-Serif" font-size="10.00" fill="#000000">5</text>
</a>
</g>
</g>
<!-- dir_8b9334156f3646fccf89e63b9869c7f9&#45;&gt;dir_296d53ceaeaa7e099814a6def439fe8a -->
<g id="edge24" class="edge">
<title>dir_8b9334156f3646fccf89e63b9869c7f9&#45;&gt;dir_296d53ceaeaa7e099814a6def439fe8a</title>
<path fill="none" stroke="#000000" d="M312.1074,-180.2004C309.6719,-190.5355 305.7683,-203.8075 304,-216 293.2087,-290.4062 316.2183,-377.9497 326.9519,-421.869"/>
<polygon fill="#000000" stroke="#000000" points="323.5998,-422.9002 329.3308,-431.8113 330.4076,-421.2713 323.5998,-422.9002"/>
<g id="a_edge24&#45;headlabel"><a xlink:href="dir_000183_000024.html" target="_top" xlink:title="228">
<text text-anchor="middle" x="320.0021" y="-417.565" font-family="Helvetica,sans-Serif" font-size="10.00" fill="#000000">228</text>
</a>
</g>
</g>
<!-- dir_8b9334156f3646fccf89e63b9869c7f9&#45;&gt;dir_70093cb3a9d1f8840af4e997fde867c3 -->
<g id="edge25" class="edge">
<title>dir_8b9334156f3646fccf89e63b9869c7f9&#45;&gt;dir_70093cb3a9d1f8840af4e997fde867c3</title>
<path fill="none" stroke="#000000" d="M338.056,-178.997C350.4057,-189.2711 364.5358,-202.8804 376,-216 393.56,-236.0956 411.3291,-260.6188 422.5979,-278.9887"/>
<polygon fill="#000000" stroke="#000000" points="419.6419,-280.8669 427.7205,-287.7215 425.6797,-277.3251 419.6419,-280.8669"/>
<g id="a_edge25&#45;headlabel"><a xlink:href="dir_000183_000427.html" target="_top" xlink:title="5">
<text text-anchor="middle" x="415.3741" y="-276.7029" font-family="Helvetica,sans-Serif" font-size="10.00" fill="#000000">5</text>
</a>
</g>
</g>
<!-- dir_8b9334156f3646fccf89e63b9869c7f9&#45;&gt;dir_4270bfced15e0e73154b13468c7c9ad9 -->
<g id="edge26" class="edge">
<title>dir_8b9334156f3646fccf89e63b9869c7f9&#45;&gt;dir_4270bfced15e0e73154b13468c7c9ad9</title>
<path fill="none" stroke="#000000" d="M316.4456,-143.7021C322.797,-124.4619 334.684,-93.987 352,-72 361.3153,-60.1719 373.7417,-49.418 385.481,-40.6757"/>
<polygon fill="#000000" stroke="#000000" points="387.7617,-43.3474 393.8533,-34.6789 383.6855,-37.6565 387.7617,-43.3474"/>
<g id="a_edge26&#45;headlabel"><a xlink:href="dir_000183_000010.html" target="_top" xlink:title="420">
<text text-anchor="middle" x="386.4927" y="-45.2487" font-family="Helvetica,sans-Serif" font-size="10.00" fill="#000000">420</text>
</a>
</g>
</g>
<!-- dir_8b9334156f3646fccf89e63b9869c7f9&#45;&gt;dir_bc161955dc3a3d2485839eba21420d01 -->
<g id="edge27" class="edge">
<title>dir_8b9334156f3646fccf89e63b9869c7f9&#45;&gt;dir_bc161955dc3a3d2485839eba21420d01</title>
<path fill="none" stroke="#000000" d="M338.191,-144.2022C352.3378,-134.9425 369.8157,-123.5025 385.063,-113.5224"/>
<polygon fill="#000000" stroke="#000000" points="387.2903,-116.2476 393.7406,-107.8425 383.4567,-110.3907 387.2903,-116.2476"/>
<g id="a_edge27&#45;headlabel"><a xlink:href="dir_000183_000221.html" target="_top" xlink:title="7">
<text text-anchor="middle" x="385.8377" y="-118.0918" font-family="Helvetica,sans-Serif" font-size="10.00" fill="#000000">7</text>
</a>
</g>
</g>
<!-- dir_8b9334156f3646fccf89e63b9869c7f9&#45;&gt;dir_2486e8ffb12756dbae41708f4979a859 -->
<g id="edge28" class="edge">
<title>dir_8b9334156f3646fccf89e63b9869c7f9&#45;&gt;dir_2486e8ffb12756dbae41708f4979a859</title>
<path fill="none" stroke="#000000" d="M322.0908,-180.4133C324.9775,-188.1442 327.7332,-197.3097 329.7869,-205.8545"/>
<polygon fill="#000000" stroke="#000000" points="326.4046,-206.7765 331.9055,-215.8314 333.2519,-205.3224 326.4046,-206.7765"/>
<g id="a_edge28&#45;headlabel"><a xlink:href="dir_000183_000111.html" target="_top" xlink:title="54">
<text text-anchor="middle" x="322.8807" y="-201.3501" font-family="Helvetica,sans-Serif" font-size="10.00" fill="#000000">54</text>
</a>
</g>
</g>
<!-- dir_bc161955dc3a3d2485839eba21420d01&#45;&gt;dir_4270bfced15e0e73154b13468c7c9ad9 -->
<g id="edge29" class="edge">
<title>dir_bc161955dc3a3d2485839eba21420d01&#45;&gt;dir_4270bfced15e0e73154b13468c7c9ad9</title>
<path fill="none" stroke="#000000" d="M415.0476,-71.8314C414.2972,-64.131 414.0763,-54.9743 414.3849,-46.4166"/>
<polygon fill="#000000" stroke="#000000" points="417.8792,-46.6161 415.024,-36.4133 410.8935,-46.1697 417.8792,-46.6161"/>
<g id="a_edge29&#45;headlabel"><a xlink:href="dir_000221_000010.html" target="_top" xlink:title="433">
<text text-anchor="middle" x="420.4836" y="-47.8844" font-family="Helvetica,sans-Serif" font-size="10.00" fill="#000000">433</text>
</a>
</g>
</g>
<!-- dir_e5f324a990c4e53e87e3a4847f1d2164&#45;&gt;dir_296d53ceaeaa7e099814a6def439fe8a -->
<g id="edge30" class="edge">
<title>dir_e5f324a990c4e53e87e3a4847f1d2164&#45;&gt;dir_296d53ceaeaa7e099814a6def439fe8a</title>
<path fill="none" stroke="#000000" d="M499.7038,-389.9272C465.3611,-403.3188 406.5657,-424.9139 368.1655,-438.2378"/>
<polygon fill="#000000" stroke="#000000" points="366.7094,-435.0373 358.3916,-441.5998 368.9863,-441.6567 366.7094,-435.0373"/>
<g id="a_edge30&#45;headlabel"><a xlink:href="dir_000029_000024.html" target="_top" xlink:title="53">
<text text-anchor="middle" x="369.185" y="-428.6833" font-family="Helvetica,sans-Serif" font-size="10.00" fill="#000000">53</text>
</a>
</g>
</g>
<!-- dir_e5f324a990c4e53e87e3a4847f1d2164&#45;&gt;dir_70093cb3a9d1f8840af4e997fde867c3 -->
<g id="edge31" class="edge">
<title>dir_e5f324a990c4e53e87e3a4847f1d2164&#45;&gt;dir_70093cb3a9d1f8840af4e997fde867c3</title>
<path fill="none" stroke="#000000" d="M503.2798,-359.8314C491.5906,-350.8779 477.3312,-339.9558 464.7191,-330.2955"/>
<polygon fill="#000000" stroke="#000000" points="466.7797,-327.4651 456.7126,-324.1628 462.5231,-333.0222 466.7797,-327.4651"/>
<g id="a_edge31&#45;headlabel"><a xlink:href="dir_000029_000427.html" target="_top" xlink:title="16">
<text text-anchor="middle" x="471.3598" y="-324.8968" font-family="Helvetica,sans-Serif" font-size="10.00" fill="#000000">16</text>
</a>
</g>
</g>
<!-- dir_e5f324a990c4e53e87e3a4847f1d2164&#45;&gt;dir_4270bfced15e0e73154b13468c7c9ad9 -->
<g id="edge32" class="edge">
<title>dir_e5f324a990c4e53e87e3a4847f1d2164&#45;&gt;dir_4270bfced15e0e73154b13468c7c9ad9</title>
<path fill="none" stroke="#000000" d="M527.808,-359.8174C529.2211,-310.3563 527.936,-170.4902 475,-72 469.2714,-61.3417 460.7642,-51.4197 452.1876,-43.0636"/>
<polygon fill="#000000" stroke="#000000" points="454.4203,-40.3612 444.7008,-36.1443 449.6692,-45.502 454.4203,-40.3612"/>
<g id="a_edge32&#45;headlabel"><a xlink:href="dir_000029_000010.html" target="_top" xlink:title="138">
<text text-anchor="middle" x="458.9872" y="-38.2158" font-family="Helvetica,sans-Serif" font-size="10.00" fill="#000000">138</text>
</a>
</g>
</g>
<!-- dir_e5f324a990c4e53e87e3a4847f1d2164&#45;&gt;dir_8b9334156f3646fccf89e63b9869c7f9 -->
<g id="edge33" class="edge">
<title>dir_e5f324a990c4e53e87e3a4847f1d2164&#45;&gt;dir_8b9334156f3646fccf89e63b9869c7f9</title>
<path fill="none" stroke="#000000" d="M517.3464,-359.9227C499.1844,-327.3627 457.0353,-258.32 405,-216 387.4682,-201.7415 365.7036,-188.9791 347.5335,-179.4459"/>
<polygon fill="#000000" stroke="#000000" points="348.8963,-176.2115 338.4008,-174.7642 345.703,-182.4407 348.8963,-176.2115"/>
<g id="a_edge33&#45;headlabel"><a xlink:href="dir_000029_000183.html" target="_top" xlink:title="31">
<text text-anchor="middle" x="353.3903" y="-172.8246" font-family="Helvetica,sans-Serif" font-size="10.00" fill="#000000">31</text>
</a>
</g>
</g>
<!-- dir_e5f324a990c4e53e87e3a4847f1d2164&#45;&gt;dir_bc161955dc3a3d2485839eba21420d01 -->
<g id="edge34" class="edge">
<title>dir_e5f324a990c4e53e87e3a4847f1d2164&#45;&gt;dir_bc161955dc3a3d2485839eba21420d01</title>
<path fill="none" stroke="#000000" d="M521.5332,-359.9652C515.9218,-341.7193 506.7916,-312.7508 498,-288 476.1847,-226.5841 447.798,-155.6138 432.3063,-117.5423"/>
<polygon fill="#000000" stroke="#000000" points="435.4944,-116.0911 428.476,-108.1543 429.013,-118.7355 435.4944,-116.0911"/>
<g id="a_edge34&#45;headlabel"><a xlink:href="dir_000029_000221.html" target="_top" xlink:title="2">
<text text-anchor="middle" x="439.4811" y="-115.8468" font-family="Helvetica,sans-Serif" font-size="10.00" fill="#000000">2</text>
</a>
</g>
</g>
<!-- dir_e5f324a990c4e53e87e3a4847f1d2164&#45;&gt;dir_2486e8ffb12756dbae41708f4979a859 -->
<g id="edge35" class="edge">
<title>dir_e5f324a990c4e53e87e3a4847f1d2164&#45;&gt;dir_2486e8ffb12756dbae41708f4979a859</title>
<path fill="none" stroke="#000000" d="M499.8823,-371.3973C471.9226,-363.5853 428.1338,-348.4574 397,-324 375.1647,-306.8471 357.0939,-280.6958 345.4152,-260.9955"/>
<polygon fill="#000000" stroke="#000000" points="348.3708,-259.1137 340.3579,-252.1823 342.2994,-262.5978 348.3708,-259.1137"/>
<g id="a_edge35&#45;headlabel"><a xlink:href="dir_000029_000111.html" target="_top" xlink:title="1">
<text text-anchor="middle" x="352.6224" y="-258.3184" font-family="Helvetica,sans-Serif" font-size="10.00" fill="#000000">1</text>
</a>
</g>
</g>
<!-- dir_2486e8ffb12756dbae41708f4979a859&#45;&gt;dir_296d53ceaeaa7e099814a6def439fe8a -->
<g id="edge39" class="edge">
<title>dir_2486e8ffb12756dbae41708f4979a859&#45;&gt;dir_296d53ceaeaa7e099814a6def439fe8a</title>
<path fill="none" stroke="#000000" d="M334.9551,-252.1451C338.4006,-289.7945 338.6604,-376.6409 335.7346,-421.7103"/>
<polygon fill="#000000" stroke="#000000" points="332.2239,-421.7163 334.9459,-431.9555 339.2032,-422.2537 332.2239,-421.7163"/>
<g id="a_edge39&#45;headlabel"><a xlink:href="dir_000111_000024.html" target="_top" xlink:title="49">
<text text-anchor="middle" x="329.6688" y="-415.4144" font-family="Helvetica,sans-Serif" font-size="10.00" fill="#000000">49</text>
</a>
</g>
</g>
<!-- dir_2486e8ffb12756dbae41708f4979a859&#45;&gt;dir_4270bfced15e0e73154b13468c7c9ad9 -->
<g id="edge40" class="edge">
<title>dir_2486e8ffb12756dbae41708f4979a859&#45;&gt;dir_4270bfced15e0e73154b13468c7c9ad9</title>
<path fill="none" stroke="#000000" d="M336.4049,-215.7756C347.3628,-179.1954 372.2353,-98.0991 385,-72 389.5558,-62.6849 395.4886,-53.0885 401.2196,-44.6168"/>
<polygon fill="#000000" stroke="#000000" points="404.2021,-46.4588 407.0526,-36.2546 398.4608,-42.454 404.2021,-46.4588"/>
<g id="a_edge40&#45;headlabel"><a xlink:href="dir_000111_000010.html" target="_top" xlink:title="640">
<text text-anchor="middle" x="404.4743" y="-48.5313" font-family="Helvetica,sans-Serif" font-size="10.00" fill="#000000">640</text>
</a>
</g>
</g>
<!-- dir_2486e8ffb12756dbae41708f4979a859&#45;&gt;dir_8b9334156f3646fccf89e63b9869c7f9 -->
<g id="edge41" class="edge">
<title>dir_2486e8ffb12756dbae41708f4979a859&#45;&gt;dir_8b9334156f3646fccf89e63b9869c7f9</title>
<path fill="none" stroke="#000000" d="M320.0008,-215.8314C317.1113,-208.131 314.3469,-198.9743 312.2784,-190.4166"/>
<polygon fill="#000000" stroke="#000000" points="315.6531,-189.46 310.1388,-180.4133 308.8079,-190.9242 315.6531,-189.46"/>
<g id="a_edge41&#45;headlabel"><a xlink:href="dir_000111_000183.html" target="_top" xlink:title="40">
<text text-anchor="middle" x="319.1813" y="-189.8813" font-family="Helvetica,sans-Serif" font-size="10.00" fill="#000000">40</text>
</a>
</g>
</g>
<!-- dir_2486e8ffb12756dbae41708f4979a859&#45;&gt;dir_bc161955dc3a3d2485839eba21420d01 -->
<g id="edge42" class="edge">
<title>dir_2486e8ffb12756dbae41708f4979a859&#45;&gt;dir_bc161955dc3a3d2485839eba21420d01</title>
<path fill="none" stroke="#000000" d="M350.2413,-215.7064C359.9814,-205.7689 371.508,-192.9002 380,-180 392.9044,-160.397 403.7171,-136.0696 410.993,-117.6515"/>
<polygon fill="#000000" stroke="#000000" points="414.3453,-118.6847 414.662,-108.0946 407.8104,-116.1758 414.3453,-118.6847"/>
<g id="a_edge42&#45;headlabel"><a xlink:href="dir_000111_000221.html" target="_top" xlink:title="5">
<text text-anchor="middle" x="415.7076" y="-120.5581" font-family="Helvetica,sans-Serif" font-size="10.00" fill="#000000">5</text>
</a>
</g>
</g>
</g>
</svg>
