<?xml version="1.0" encoding="UTF-8" standalone="no"?>
<!DOCTYPE svg PUBLIC "-//W3C//DTD SVG 1.1//EN"
 "http://www.w3.org/Graphics/SVG/1.1/DTD/svg11.dtd">
<!-- Generated by graphviz version 2.40.1 (0)
 -->
<!-- Title: tmva/rmva Pages: 1 -->
<svg width="262pt" height="447pt"
 viewBox="0.00 0.00 262.00 447.00" xmlns="http://www.w3.org/2000/svg" xmlns:xlink="http://www.w3.org/1999/xlink">
<g id="graph0" class="graph" transform="scale(1 1) rotate(0) translate(4 443)">
<title>tmva/rmva</title>
<polygon fill="#ffffff" stroke="transparent" points="-4,4 -4,-443 258,-443 258,4 -4,4"/>
<g id="clust1" class="cluster">
<title>clusterdir_a647c3f16b21786eaaa28427c9c80e3e</title>
<g id="a_clust1"><a xlink:href="dir_a647c3f16b21786eaaa28427c9c80e3e.html" target="_top" xlink:title="tmva">
<polygon fill="#ddddee" stroke="#000000" points="88,-272 88,-431 246,-431 246,-272 88,-272"/>
<text text-anchor="middle" x="167" y="-419" font-family="Helvetica,sans-Serif" font-size="10.00" fill="#000000">tmva</text>
</a>
</g>
</g>
<g id="clust2" class="cluster">
<title>clusterdir_c0c4f61f450419fd6deac4688d0d24ab</title>
<g id="a_clust2"><a xlink:href="dir_c0c4f61f450419fd6deac4688d0d24ab.html" target="_top">
<polygon fill="#eeeeff" stroke="#000000" points="96,-280 96,-404 238,-404 238,-280 96,-280"/>
</a>
</g>
</g>
<!-- dir_c0c4f61f450419fd6deac4688d0d24ab -->
<g id="node1" class="node">
<title>dir_c0c4f61f450419fd6deac4688d0d24ab</title>
<text text-anchor="middle" x="203" y="-375.5" font-family="Helvetica,sans-Serif" font-size="10.00" fill="#000000">rmva</text>
</g>
<!-- dir_93218c77ea3e418c26aeb480afe9d324 -->
<g id="node2" class="node">
<title>dir_93218c77ea3e418c26aeb480afe9d324</title>
<g id="a_node2"><a xlink:href="dir_93218c77ea3e418c26aeb480afe9d324.html" target="_top" xlink:title="inc">
<polygon fill="#ffffff" stroke="#ff0000" points="158,-324 104,-324 104,-288 158,-288 158,-324"/>
<text text-anchor="middle" x="131" y="-303.5" font-family="Helvetica,sans-Serif" font-size="10.00" fill="#000000">inc</text>
</a>
</g>
</g>
<!-- dir_00240dc4a1a4845ae58be68fbad02d02 -->
<g id="node4" class="node">
<title>dir_00240dc4a1a4845ae58be68fbad02d02</title>
<g id="a_node4"><a xlink:href="dir_00240dc4a1a4845ae58be68fbad02d02.html" target="_top" xlink:title="bindings">
<polygon fill="#ffffff" stroke="#ff0000" points="120,-252 62,-252 62,-216 120,-216 120,-252"/>
<text text-anchor="middle" x="91" y="-231.5" font-family="Helvetica,sans-Serif" font-size="10.00" fill="#000000">bindings</text>
</a>
</g>
</g>
<!-- dir_93218c77ea3e418c26aeb480afe9d324&#45;&gt;dir_00240dc4a1a4845ae58be68fbad02d02 -->
<g id="edge5" class="edge">
<title>dir_93218c77ea3e418c26aeb480afe9d324&#45;&gt;dir_00240dc4a1a4845ae58be68fbad02d02</title>
<path fill="none" stroke="#000000" d="M120.9063,-287.8314C116.4403,-279.7925 111.0925,-270.1666 106.1621,-261.2918"/>
<polygon fill="#000000" stroke="#000000" points="109.1456,-259.4551 101.2296,-252.4133 103.0265,-262.8546 109.1456,-259.4551"/>
<g id="a_edge5&#45;headlabel"><a xlink:href="dir_000409_000000.html" target="_top" xlink:title="1">
<text text-anchor="middle" x="113.3732" y="-258.7185" font-family="Helvetica,sans-Serif" font-size="10.00" fill="#000000">1</text>
</a>
</g>
</g>
<!-- dir_ed3dab6383bd5f321850908cd5a1281f -->
<g id="node7" class="node">
<title>dir_ed3dab6383bd5f321850908cd5a1281f</title>
<g id="a_node7"><a xlink:href="dir_ed3dab6383bd5f321850908cd5a1281f.html" target="_top" xlink:title="tmva">
<polygon fill="#ffffff" stroke="#ff0000" points="158,-108 104,-108 104,-72 158,-72 158,-108"/>
<text text-anchor="middle" x="131" y="-87.5" font-family="Helvetica,sans-Serif" font-size="10.00" fill="#000000">tmva</text>
</a>
</g>
</g>
<!-- dir_93218c77ea3e418c26aeb480afe9d324&#45;&gt;dir_ed3dab6383bd5f321850908cd5a1281f -->
<g id="edge6" class="edge">
<title>dir_93218c77ea3e418c26aeb480afe9d324&#45;&gt;dir_ed3dab6383bd5f321850908cd5a1281f</title>
<path fill="none" stroke="#000000" d="M131,-287.9555C131,-250.3938 131,-163.5541 131,-118.4103"/>
<polygon fill="#000000" stroke="#000000" points="134.5001,-118.145 131,-108.1451 127.5001,-118.1451 134.5001,-118.145"/>
<g id="a_edge6&#45;headlabel"><a xlink:href="dir_000409_000028.html" target="_top" xlink:title="1">
<text text-anchor="middle" x="137.3393" y="-119.2397" font-family="Helvetica,sans-Serif" font-size="10.00" fill="#000000">1</text>
</a>
</g>
</g>
<!-- dir_7472e7cc6ba7f0497f04f02e5741735f -->
<g id="node3" class="node">
<title>dir_7472e7cc6ba7f0497f04f02e5741735f</title>
<g id="a_node3"><a xlink:href="dir_7472e7cc6ba7f0497f04f02e5741735f.html" target="_top" xlink:title="src">
<polygon fill="#ffffff" stroke="#000000" points="158,-396 104,-396 104,-360 158,-360 158,-396"/>
<text text-anchor="middle" x="131" y="-375.5" font-family="Helvetica,sans-Serif" font-size="10.00" fill="#000000">src</text>
</a>
</g>
</g>
<!-- dir_7472e7cc6ba7f0497f04f02e5741735f&#45;&gt;dir_93218c77ea3e418c26aeb480afe9d324 -->
<g id="edge1" class="edge">
<title>dir_7472e7cc6ba7f0497f04f02e5741735f&#45;&gt;dir_93218c77ea3e418c26aeb480afe9d324</title>
<path fill="none" stroke="#000000" d="M131,-359.8314C131,-352.131 131,-342.9743 131,-334.4166"/>
<polygon fill="#000000" stroke="#000000" points="134.5001,-334.4132 131,-324.4133 127.5001,-334.4133 134.5001,-334.4132"/>
<g id="a_edge1&#45;headlabel"><a xlink:href="dir_000411_000409.html" target="_top" xlink:title="5">
<text text-anchor="middle" x="137.3393" y="-335.5079" font-family="Helvetica,sans-Serif" font-size="10.00" fill="#000000">5</text>
</a>
</g>
</g>
<!-- dir_296d53ceaeaa7e099814a6def439fe8a -->
<g id="node5" class="node">
<title>dir_296d53ceaeaa7e099814a6def439fe8a</title>
<g id="a_node5"><a xlink:href="dir_296d53ceaeaa7e099814a6def439fe8a.html" target="_top" xlink:title="math">
<polygon fill="#ffffff" stroke="#ff0000" points="120,-180 66,-180 66,-144 120,-144 120,-180"/>
<text text-anchor="middle" x="93" y="-159.5" font-family="Helvetica,sans-Serif" font-size="10.00" fill="#000000">math</text>
</a>
</g>
</g>
<!-- dir_7472e7cc6ba7f0497f04f02e5741735f&#45;&gt;dir_296d53ceaeaa7e099814a6def439fe8a -->
<g id="edge2" class="edge">
<title>dir_7472e7cc6ba7f0497f04f02e5741735f&#45;&gt;dir_296d53ceaeaa7e099814a6def439fe8a</title>
<path fill="none" stroke="#000000" d="M146.9905,-359.9169C154.6538,-350.0371 163.0166,-337.1563 167,-324 173.6972,-301.8805 173.7435,-294.1054 167,-272 157.2174,-239.9323 134.6091,-208.7439 116.9379,-187.8165"/>
<polygon fill="#000000" stroke="#000000" points="119.3979,-185.3109 110.2033,-180.0469 114.1084,-189.8958 119.3979,-185.3109"/>
<g id="a_edge2&#45;headlabel"><a xlink:href="dir_000411_000024.html" target="_top" xlink:title="16">
<text text-anchor="middle" x="123.8978" y="-183.6674" font-family="Helvetica,sans-Serif" font-size="10.00" fill="#000000">16</text>
</a>
</g>
</g>
<!-- dir_4270bfced15e0e73154b13468c7c9ad9 -->
<g id="node6" class="node">
<title>dir_4270bfced15e0e73154b13468c7c9ad9</title>
<g id="a_node6"><a xlink:href="dir_4270bfced15e0e73154b13468c7c9ad9.html" target="_top" xlink:title="core">
<polygon fill="#ffffff" stroke="#ff0000" points="84,-36 30,-36 30,0 84,0 84,-36"/>
<text text-anchor="middle" x="57" y="-15.5" font-family="Helvetica,sans-Serif" font-size="10.00" fill="#000000">core</text>
</a>
</g>
</g>
<!-- dir_7472e7cc6ba7f0497f04f02e5741735f&#45;&gt;dir_4270bfced15e0e73154b13468c7c9ad9 -->
<g id="edge3" class="edge">
<title>dir_7472e7cc6ba7f0497f04f02e5741735f&#45;&gt;dir_4270bfced15e0e73154b13468c7c9ad9</title>
<path fill="none" stroke="#000000" d="M103.8567,-363.9146C65.486,-341.8281 0,-295.1728 0,-234 0,-234 0,-234 0,-162 0,-118.7597 22.4945,-73.0187 39.2212,-44.9832"/>
<polygon fill="#000000" stroke="#000000" points="42.3756,-46.5353 44.6318,-36.1834 36.4126,-42.8688 42.3756,-46.5353"/>
<g id="a_edge3&#45;headlabel"><a xlink:href="dir_000411_000010.html" target="_top" xlink:title="5">
<text text-anchor="middle" x="42.9115" y="-48.5845" font-family="Helvetica,sans-Serif" font-size="10.00" fill="#000000">5</text>
</a>
</g>
</g>
<!-- dir_7472e7cc6ba7f0497f04f02e5741735f&#45;&gt;dir_ed3dab6383bd5f321850908cd5a1281f -->
<g id="edge4" class="edge">
<title>dir_7472e7cc6ba7f0497f04f02e5741735f&#45;&gt;dir_ed3dab6383bd5f321850908cd5a1281f</title>
<path fill="none" stroke="#000000" d="M156.0428,-359.8695C166.812,-350.5148 178.2346,-338.105 184,-324 213.2803,-252.3662 172.1481,-161.4632 147.3822,-116.987"/>
<polygon fill="#000000" stroke="#000000" points="150.3761,-115.1718 142.377,-108.2245 144.2978,-118.6438 150.3761,-115.1718"/>
<g id="a_edge4&#45;headlabel"><a xlink:href="dir_000411_000028.html" target="_top" xlink:title="37">
<text text-anchor="middle" x="154.6244" y="-114.3849" font-family="Helvetica,sans-Serif" font-size="10.00" fill="#000000">37</text>
</a>
</g>
</g>
<!-- dir_00240dc4a1a4845ae58be68fbad02d02&#45;&gt;dir_296d53ceaeaa7e099814a6def439fe8a -->
<g id="edge7" class="edge">
<title>dir_00240dc4a1a4845ae58be68fbad02d02&#45;&gt;dir_296d53ceaeaa7e099814a6def439fe8a</title>
<path fill="none" stroke="#000000" d="M85.5523,-215.8314C85.0158,-208.131 85.0492,-198.9743 85.5956,-190.4166"/>
<polygon fill="#000000" stroke="#000000" points="89.085,-190.691 86.5125,-180.4133 82.1142,-190.052 89.085,-190.691"/>
<g id="a_edge7&#45;headlabel"><a xlink:href="dir_000000_000024.html" target="_top" xlink:title="8">
<text text-anchor="middle" x="91.5844" y="-192.0298" font-family="Helvetica,sans-Serif" font-size="10.00" fill="#000000">8</text>
</a>
</g>
</g>
<!-- dir_00240dc4a1a4845ae58be68fbad02d02&#45;&gt;dir_4270bfced15e0e73154b13468c7c9ad9 -->
<g id="edge8" class="edge">
<title>dir_00240dc4a1a4845ae58be68fbad02d02&#45;&gt;dir_4270bfced15e0e73154b13468c7c9ad9</title>
<path fill="none" stroke="#000000" d="M75.886,-215.7768C68.6451,-205.8586 60.7476,-192.9858 57,-180 43.968,-134.8434 47.9498,-79.6108 52.2863,-46.6985"/>
<polygon fill="#000000" stroke="#000000" points="55.8024,-46.8329 53.7464,-36.4395 48.8722,-45.8465 55.8024,-46.8329"/>
<g id="a_edge8&#45;headlabel"><a xlink:href="dir_000000_000010.html" target="_top" xlink:title="122">
<text text-anchor="middle" x="58.1069" y="-48.2917" font-family="Helvetica,sans-Serif" font-size="10.00" fill="#000000">122</text>
</a>
</g>
</g>
<!-- dir_296d53ceaeaa7e099814a6def439fe8a&#45;&gt;dir_00240dc4a1a4845ae58be68fbad02d02 -->
<g id="edge9" class="edge">
<title>dir_296d53ceaeaa7e099814a6def439fe8a&#45;&gt;dir_00240dc4a1a4845ae58be68fbad02d02</title>
<path fill="none" stroke="#000000" d="M98.4645,-180.4133C98.989,-188.1442 98.9441,-197.3097 98.3869,-205.8545"/>
<polygon fill="#000000" stroke="#000000" points="94.9003,-205.5497 97.4571,-215.8314 101.8701,-206.1993 94.9003,-205.5497"/>
<g id="a_edge9&#45;headlabel"><a xlink:href="dir_000024_000000.html" target="_top" xlink:title="1">
<text text-anchor="middle" x="92.4067" y="-199.2071" font-family="Helvetica,sans-Serif" font-size="10.00" fill="#000000">1</text>
</a>
</g>
</g>
<!-- dir_296d53ceaeaa7e099814a6def439fe8a&#45;&gt;dir_4270bfced15e0e73154b13468c7c9ad9 -->
<g id="edge10" class="edge">
<title>dir_296d53ceaeaa7e099814a6def439fe8a&#45;&gt;dir_4270bfced15e0e73154b13468c7c9ad9</title>
<path fill="none" stroke="#000000" d="M88.4406,-143.7623C82.2732,-119.0928 71.2149,-74.8598 63.9933,-45.9731"/>
<polygon fill="#000000" stroke="#000000" points="67.3433,-44.9421 61.5224,-36.0896 60.5523,-46.6399 67.3433,-44.9421"/>
<g id="a_edge10&#45;headlabel"><a xlink:href="dir_000024_000010.html" target="_top" xlink:title="205">
<text text-anchor="middle" x="70.9696" y="-45.2408" font-family="Helvetica,sans-Serif" font-size="10.00" fill="#000000">205</text>
</a>
</g>
</g>
<!-- dir_296d53ceaeaa7e099814a6def439fe8a&#45;&gt;dir_ed3dab6383bd5f321850908cd5a1281f -->
<g id="edge11" class="edge">
<title>dir_296d53ceaeaa7e099814a6def439fe8a&#45;&gt;dir_ed3dab6383bd5f321850908cd5a1281f</title>
<path fill="none" stroke="#000000" d="M96.6366,-143.8314C100.1324,-135.7079 105.0727,-125.9637 110.1844,-117.0118"/>
<polygon fill="#000000" stroke="#000000" points="113.1955,-118.7958 115.3059,-108.4133 107.1815,-115.2137 113.1955,-118.7958"/>
<g id="a_edge11&#45;headlabel"><a xlink:href="dir_000024_000028.html" target="_top" xlink:title="2">
<text text-anchor="middle" x="113.7954" y="-120.837" font-family="Helvetica,sans-Serif" font-size="10.00" fill="#000000">2</text>
</a>
</g>
</g>
<!-- dir_ed3dab6383bd5f321850908cd5a1281f&#45;&gt;dir_296d53ceaeaa7e099814a6def439fe8a -->
<g id="edge12" class="edge">
<title>dir_ed3dab6383bd5f321850908cd5a1281f&#45;&gt;dir_296d53ceaeaa7e099814a6def439fe8a</title>
<path fill="none" stroke="#000000" d="M127.2579,-108.4133C123.77,-116.484 118.88,-126.1182 113.8218,-134.9775"/>
<polygon fill="#000000" stroke="#000000" points="110.6576,-133.45 108.5414,-143.8314 116.6696,-137.0355 110.6576,-133.45"/>
<g id="a_edge12&#45;headlabel"><a xlink:href="dir_000028_000024.html" target="_top" xlink:title="218">
<text text-anchor="middle" x="110.0602" y="-126.4085" font-family="Helvetica,sans-Serif" font-size="10.00" fill="#000000">218</text>
</a>
</g>
</g>
<!-- dir_ed3dab6383bd5f321850908cd5a1281f&#45;&gt;dir_4270bfced15e0e73154b13468c7c9ad9 -->
<g id="edge13" class="edge">
<title>dir_ed3dab6383bd5f321850908cd5a1281f&#45;&gt;dir_4270bfced15e0e73154b13468c7c9ad9</title>
<path fill="none" stroke="#000000" d="M112.3267,-71.8314C103.4751,-63.219 92.7514,-52.7851 83.1105,-43.4048"/>
<polygon fill="#000000" stroke="#000000" points="85.2754,-40.6279 75.6674,-36.1628 80.3939,-45.645 85.2754,-40.6279"/>
<g id="a_edge13&#45;headlabel"><a xlink:href="dir_000028_000010.html" target="_top" xlink:title="351">
<text text-anchor="middle" x="89.8317" y="-38.5996" font-family="Helvetica,sans-Serif" font-size="10.00" fill="#000000">351</text>
</a>
</g>
</g>
</g>
</svg>
