<?xml version="1.0" encoding="UTF-8" standalone="no"?>
<!DOCTYPE svg PUBLIC "-//W3C//DTD SVG 1.1//EN"
 "http://www.w3.org/Graphics/SVG/1.1/DTD/svg11.dtd">
<!-- Generated by graphviz version 2.40.1 (0)
 -->
<!-- Title: net/netx Pages: 1 -->
<svg width="236pt" height="375pt"
 viewBox="0.00 0.00 236.00 375.00" xmlns="http://www.w3.org/2000/svg" xmlns:xlink="http://www.w3.org/1999/xlink">
<g id="graph0" class="graph" transform="scale(1 1) rotate(0) translate(4 371)">
<title>net/netx</title>
<polygon fill="#ffffff" stroke="transparent" points="-4,4 -4,-371 232,-371 232,4 -4,4"/>
<g id="clust1" class="cluster">
<title>clusterdir_427baa8a9a5be237f298d4545d0d1ce2</title>
<g id="a_clust1"><a xlink:href="dir_427baa8a9a5be237f298d4545d0d1ce2.html" target="_top" xlink:title="net">
<polygon fill="#ddddee" stroke="#000000" points="8,-200 8,-359 166,-359 166,-200 8,-200"/>
<text text-anchor="middle" x="87" y="-347" font-family="Helvetica,sans-Serif" font-size="10.00" fill="#000000">net</text>
</a>
</g>
</g>
<g id="clust2" class="cluster">
<title>clusterdir_7e6026f4b54340c73a97ccd20b2e56f4</title>
<g id="a_clust2"><a xlink:href="dir_7e6026f4b54340c73a97ccd20b2e56f4.html" target="_top">
<polygon fill="#eeeeff" stroke="#000000" points="16,-208 16,-332 158,-332 158,-208 16,-208"/>
</a>
</g>
</g>
<!-- dir_7e6026f4b54340c73a97ccd20b2e56f4 -->
<g id="node1" class="node">
<title>dir_7e6026f4b54340c73a97ccd20b2e56f4</title>
<text text-anchor="middle" x="123" y="-303.5" font-family="Helvetica,sans-Serif" font-size="10.00" fill="#000000">netx</text>
</g>
<!-- dir_abe44b377e14a2365d81cf37ae104214 -->
<g id="node2" class="node">
<title>dir_abe44b377e14a2365d81cf37ae104214</title>
<g id="a_node2"><a xlink:href="dir_abe44b377e14a2365d81cf37ae104214.html" target="_top" xlink:title="inc">
<polygon fill="#ffffff" stroke="#000000" points="118,-252 64,-252 64,-216 118,-216 118,-252"/>
<text text-anchor="middle" x="91" y="-231.5" font-family="Helvetica,sans-Serif" font-size="10.00" fill="#000000">inc</text>
</a>
</g>
</g>
<!-- dir_f9f2b8691753bb6dc6dd70535846841d -->
<g id="node4" class="node">
<title>dir_f9f2b8691753bb6dc6dd70535846841d</title>
<g id="a_node4"><a xlink:href="dir_f9f2b8691753bb6dc6dd70535846841d.html" target="_top" xlink:title="net">
<polygon fill="#ffffff" stroke="#ff0000" points="80,-180 26,-180 26,-144 80,-144 80,-180"/>
<text text-anchor="middle" x="53" y="-159.5" font-family="Helvetica,sans-Serif" font-size="10.00" fill="#000000">net</text>
</a>
</g>
</g>
<!-- dir_abe44b377e14a2365d81cf37ae104214&#45;&gt;dir_f9f2b8691753bb6dc6dd70535846841d -->
<g id="edge3" class="edge">
<title>dir_abe44b377e14a2365d81cf37ae104214&#45;&gt;dir_f9f2b8691753bb6dc6dd70535846841d</title>
<path fill="none" stroke="#000000" d="M81.411,-215.8314C77.1683,-207.7925 72.0879,-198.1666 67.404,-189.2918"/>
<polygon fill="#000000" stroke="#000000" points="70.4811,-187.6235 62.7181,-180.4133 64.2904,-190.8908 70.4811,-187.6235"/>
<g id="a_edge3&#45;headlabel"><a xlink:href="dir_000352_000348.html" target="_top" xlink:title="3">
<text text-anchor="middle" x="74.6699" y="-186.9772" font-family="Helvetica,sans-Serif" font-size="10.00" fill="#000000">3</text>
</a>
</g>
</g>
<!-- dir_4270bfced15e0e73154b13468c7c9ad9 -->
<g id="node6" class="node">
<title>dir_4270bfced15e0e73154b13468c7c9ad9</title>
<g id="a_node6"><a xlink:href="dir_4270bfced15e0e73154b13468c7c9ad9.html" target="_top" xlink:title="core">
<polygon fill="#ffffff" stroke="#ff0000" points="144,-108 90,-108 90,-72 144,-72 144,-108"/>
<text text-anchor="middle" x="117" y="-87.5" font-family="Helvetica,sans-Serif" font-size="10.00" fill="#000000">core</text>
</a>
</g>
</g>
<!-- dir_abe44b377e14a2365d81cf37ae104214&#45;&gt;dir_4270bfced15e0e73154b13468c7c9ad9 -->
<g id="edge4" class="edge">
<title>dir_abe44b377e14a2365d81cf37ae104214&#45;&gt;dir_4270bfced15e0e73154b13468c7c9ad9</title>
<path fill="none" stroke="#000000" d="M94.2929,-215.7623C98.7471,-191.0928 106.7337,-146.8598 111.9493,-117.9731"/>
<polygon fill="#000000" stroke="#000000" points="115.4012,-118.5524 113.7338,-108.0896 108.5126,-117.3086 115.4012,-118.5524"/>
<g id="a_edge4&#45;headlabel"><a xlink:href="dir_000352_000010.html" target="_top" xlink:title="5">
<text text-anchor="middle" x="117.5567" y="-120.0943" font-family="Helvetica,sans-Serif" font-size="10.00" fill="#000000">5</text>
</a>
</g>
</g>
<!-- dir_696a0972e5d45dd9f2bef4e1f251a201 -->
<g id="node3" class="node">
<title>dir_696a0972e5d45dd9f2bef4e1f251a201</title>
<g id="a_node3"><a xlink:href="dir_696a0972e5d45dd9f2bef4e1f251a201.html" target="_top" xlink:title="src">
<polygon fill="#ffffff" stroke="#000000" points="78,-324 24,-324 24,-288 78,-288 78,-324"/>
<text text-anchor="middle" x="51" y="-303.5" font-family="Helvetica,sans-Serif" font-size="10.00" fill="#000000">src</text>
</a>
</g>
</g>
<!-- dir_696a0972e5d45dd9f2bef4e1f251a201&#45;&gt;dir_abe44b377e14a2365d81cf37ae104214 -->
<g id="edge11" class="edge">
<title>dir_696a0972e5d45dd9f2bef4e1f251a201&#45;&gt;dir_abe44b377e14a2365d81cf37ae104214</title>
<path fill="none" stroke="#000000" d="M61.0937,-287.8314C65.5597,-279.7925 70.9075,-270.1666 75.8379,-261.2918"/>
<polygon fill="#000000" stroke="#000000" points="78.9735,-262.8546 80.7704,-252.4133 72.8544,-259.4551 78.9735,-262.8546"/>
<g id="a_edge11&#45;headlabel"><a xlink:href="dir_000353_000352.html" target="_top" xlink:title="5">
<text text-anchor="middle" x="79.7098" y="-264.8757" font-family="Helvetica,sans-Serif" font-size="10.00" fill="#000000">5</text>
</a>
</g>
</g>
<!-- dir_696a0972e5d45dd9f2bef4e1f251a201&#45;&gt;dir_f9f2b8691753bb6dc6dd70535846841d -->
<g id="edge10" class="edge">
<title>dir_696a0972e5d45dd9f2bef4e1f251a201&#45;&gt;dir_f9f2b8691753bb6dc6dd70535846841d</title>
<path fill="none" stroke="#000000" d="M51.2533,-287.7623C51.5944,-263.201 52.2049,-219.2474 52.6062,-190.3541"/>
<polygon fill="#000000" stroke="#000000" points="56.1094,-190.1373 52.7488,-180.0896 49.1101,-190.04 56.1094,-190.1373"/>
<g id="a_edge10&#45;headlabel"><a xlink:href="dir_000353_000348.html" target="_top" xlink:title="4">
<text text-anchor="middle" x="58.8986" y="-191.271" font-family="Helvetica,sans-Serif" font-size="10.00" fill="#000000">4</text>
</a>
</g>
</g>
<!-- dir_fe12f41d3d3092bbef531b606df75bb2 -->
<g id="node5" class="node">
<title>dir_fe12f41d3d3092bbef531b606df75bb2</title>
<g id="a_node5"><a xlink:href="dir_fe12f41d3d3092bbef531b606df75bb2.html" target="_top" xlink:title="proof">
<polygon fill="#ffffff" stroke="#ff0000" points="228,-252 174,-252 174,-216 228,-216 228,-252"/>
<text text-anchor="middle" x="201" y="-231.5" font-family="Helvetica,sans-Serif" font-size="10.00" fill="#000000">proof</text>
</a>
</g>
</g>
<!-- dir_696a0972e5d45dd9f2bef4e1f251a201&#45;&gt;dir_fe12f41d3d3092bbef531b606df75bb2 -->
<g id="edge12" class="edge">
<title>dir_696a0972e5d45dd9f2bef4e1f251a201&#45;&gt;dir_fe12f41d3d3092bbef531b606df75bb2</title>
<path fill="none" stroke="#000000" d="M78.0963,-292.3747C81.096,-290.8893 84.1099,-289.4068 87,-288 112.8442,-275.4197 142.1537,-261.5449 164.5818,-251.0097"/>
<polygon fill="#000000" stroke="#000000" points="166.1753,-254.1282 173.7424,-246.7126 163.2025,-247.7908 166.1753,-254.1282"/>
<g id="a_edge12&#45;headlabel"><a xlink:href="dir_000353_000357.html" target="_top" xlink:title="10">
<text text-anchor="middle" x="164.1268" y="-255.7252" font-family="Helvetica,sans-Serif" font-size="10.00" fill="#000000">10</text>
</a>
</g>
</g>
<!-- dir_696a0972e5d45dd9f2bef4e1f251a201&#45;&gt;dir_4270bfced15e0e73154b13468c7c9ad9 -->
<g id="edge13" class="edge">
<title>dir_696a0972e5d45dd9f2bef4e1f251a201&#45;&gt;dir_4270bfced15e0e73154b13468c7c9ad9</title>
<path fill="none" stroke="#000000" d="M78.0352,-290.4733C97.6229,-278.5868 121.5802,-262.4994 127,-252 149.0213,-209.3392 137.3018,-151.7082 126.9985,-117.9287"/>
<polygon fill="#000000" stroke="#000000" points="130.2804,-116.7012 123.8853,-108.2541 123.6169,-118.8455 130.2804,-116.7012"/>
<g id="a_edge13&#45;headlabel"><a xlink:href="dir_000353_000010.html" target="_top" xlink:title="19">
<text text-anchor="middle" x="134.0842" y="-116.7533" font-family="Helvetica,sans-Serif" font-size="10.00" fill="#000000">19</text>
</a>
</g>
</g>
<!-- dir_bc161955dc3a3d2485839eba21420d01 -->
<g id="node7" class="node">
<title>dir_bc161955dc3a3d2485839eba21420d01</title>
<g id="a_node7"><a xlink:href="dir_bc161955dc3a3d2485839eba21420d01.html" target="_top" xlink:title="io">
<polygon fill="#ffffff" stroke="#ff0000" points="112,-36 58,-36 58,0 112,0 112,-36"/>
<text text-anchor="middle" x="85" y="-15.5" font-family="Helvetica,sans-Serif" font-size="10.00" fill="#000000">io</text>
</a>
</g>
</g>
<!-- dir_696a0972e5d45dd9f2bef4e1f251a201&#45;&gt;dir_bc161955dc3a3d2485839eba21420d01 -->
<g id="edge14" class="edge">
<title>dir_696a0972e5d45dd9f2bef4e1f251a201&#45;&gt;dir_bc161955dc3a3d2485839eba21420d01</title>
<path fill="none" stroke="#000000" d="M41.8273,-287.9111C27.7888,-257.86 3.9081,-195.8242 17,-144 26.3264,-107.0815 48.8399,-69.2295 65.4189,-44.7806"/>
<polygon fill="#000000" stroke="#000000" points="68.4033,-46.6188 71.2231,-36.4061 62.65,-42.6313 68.4033,-46.6188"/>
<g id="a_edge14&#45;headlabel"><a xlink:href="dir_000353_000221.html" target="_top" xlink:title="1">
<text text-anchor="middle" x="68.6893" y="-48.6905" font-family="Helvetica,sans-Serif" font-size="10.00" fill="#000000">1</text>
</a>
</g>
</g>
<!-- dir_f9f2b8691753bb6dc6dd70535846841d&#45;&gt;dir_4270bfced15e0e73154b13468c7c9ad9 -->
<g id="edge1" class="edge">
<title>dir_f9f2b8691753bb6dc6dd70535846841d&#45;&gt;dir_4270bfced15e0e73154b13468c7c9ad9</title>
<path fill="none" stroke="#000000" d="M63.1975,-143.8314C69.8946,-135.3694 78.7943,-125.1489 87.4724,-115.8971"/>
<polygon fill="#000000" stroke="#000000" points="90.2563,-118.0511 94.6566,-108.4133 85.2065,-113.2034 90.2563,-118.0511"/>
<g id="a_edge1&#45;headlabel"><a xlink:href="dir_000348_000010.html" target="_top" xlink:title="206">
<text text-anchor="middle" x="89.8152" y="-120.1105" font-family="Helvetica,sans-Serif" font-size="10.00" fill="#000000">206</text>
</a>
</g>
</g>
<!-- dir_f9f2b8691753bb6dc6dd70535846841d&#45;&gt;dir_bc161955dc3a3d2485839eba21420d01 -->
<g id="edge2" class="edge">
<title>dir_f9f2b8691753bb6dc6dd70535846841d&#45;&gt;dir_bc161955dc3a3d2485839eba21420d01</title>
<path fill="none" stroke="#000000" d="M52.3797,-143.7623C55.3911,-119.0928 64.9544,-74.8598 73.3117,-45.9731"/>
<polygon fill="#000000" stroke="#000000" points="76.7564,-46.6755 76.3218,-36.0896 70.0601,-44.6361 76.7564,-46.6755"/>
<g id="a_edge2&#45;headlabel"><a xlink:href="dir_000348_000221.html" target="_top" xlink:title="8">
<text text-anchor="middle" x="78.4253" y="-48.4414" font-family="Helvetica,sans-Serif" font-size="10.00" fill="#000000">8</text>
</a>
</g>
</g>
<!-- dir_fe12f41d3d3092bbef531b606df75bb2&#45;&gt;dir_f9f2b8691753bb6dc6dd70535846841d -->
<g id="edge5" class="edge">
<title>dir_fe12f41d3d3092bbef531b606df75bb2&#45;&gt;dir_f9f2b8691753bb6dc6dd70535846841d</title>
<path fill="none" stroke="#000000" d="M183.0781,-215.8335C176.8051,-210.1953 169.4566,-204.3313 162,-200 139.56,-186.9654 111.9325,-177.3946 90.1071,-171.1184"/>
<polygon fill="#000000" stroke="#000000" points="90.7889,-167.6757 80.2178,-168.3838 88.9232,-174.4225 90.7889,-167.6757"/>
<g id="a_edge5&#45;headlabel"><a xlink:href="dir_000357_000348.html" target="_top" xlink:title="64">
<text text-anchor="middle" x="95.0102" y="-163.3971" font-family="Helvetica,sans-Serif" font-size="10.00" fill="#000000">64</text>
</a>
</g>
</g>
<!-- dir_fe12f41d3d3092bbef531b606df75bb2&#45;&gt;dir_4270bfced15e0e73154b13468c7c9ad9 -->
<g id="edge6" class="edge">
<title>dir_fe12f41d3d3092bbef531b606df75bb2&#45;&gt;dir_4270bfced15e0e73154b13468c7c9ad9</title>
<path fill="none" stroke="#000000" d="M194.2211,-215.7532C186.9398,-197.0884 174.4483,-167.5673 160,-144 154.1141,-134.3992 146.7555,-124.5709 139.7984,-115.9756"/>
<polygon fill="#000000" stroke="#000000" points="142.3921,-113.6203 133.3125,-108.1603 137.0055,-118.0907 142.3921,-113.6203"/>
<g id="a_edge6&#45;headlabel"><a xlink:href="dir_000357_000010.html" target="_top" xlink:title="612">
<text text-anchor="middle" x="146.8725" y="-112.0731" font-family="Helvetica,sans-Serif" font-size="10.00" fill="#000000">612</text>
</a>
</g>
</g>
<!-- dir_fe12f41d3d3092bbef531b606df75bb2&#45;&gt;dir_bc161955dc3a3d2485839eba21420d01 -->
<g id="edge7" class="edge">
<title>dir_fe12f41d3d3092bbef531b606df75bb2&#45;&gt;dir_bc161955dc3a3d2485839eba21420d01</title>
<path fill="none" stroke="#000000" d="M199.751,-215.8619C196.7149,-183.8062 186.5175,-116.3453 153,-72 144.0762,-60.1934 131.9966,-49.5009 120.494,-40.8042"/>
<polygon fill="#000000" stroke="#000000" points="122.4223,-37.8791 112.2736,-34.837 118.3102,-43.544 122.4223,-37.8791"/>
<g id="a_edge7&#45;headlabel"><a xlink:href="dir_000357_000221.html" target="_top" xlink:title="37">
<text text-anchor="middle" x="126.9992" y="-35.193" font-family="Helvetica,sans-Serif" font-size="10.00" fill="#000000">37</text>
</a>
</g>
</g>
<!-- dir_4270bfced15e0e73154b13468c7c9ad9&#45;&gt;dir_f9f2b8691753bb6dc6dd70535846841d -->
<g id="edge8" class="edge">
<title>dir_4270bfced15e0e73154b13468c7c9ad9&#45;&gt;dir_f9f2b8691753bb6dc6dd70535846841d</title>
<path fill="none" stroke="#000000" d="M106.6087,-108.4133C99.8694,-116.9088 90.9509,-127.1366 82.2773,-136.3696"/>
<polygon fill="#000000" stroke="#000000" points="79.5106,-134.1972 75.1023,-143.8314 84.5564,-139.049 79.5106,-134.1972"/>
<g id="a_edge8&#45;headlabel"><a xlink:href="dir_000010_000348.html" target="_top" xlink:title="3">
<text text-anchor="middle" x="79.9555" y="-127.1382" font-family="Helvetica,sans-Serif" font-size="10.00" fill="#000000">3</text>
</a>
</g>
</g>
<!-- dir_4270bfced15e0e73154b13468c7c9ad9&#45;&gt;dir_bc161955dc3a3d2485839eba21420d01 -->
<g id="edge9" class="edge">
<title>dir_4270bfced15e0e73154b13468c7c9ad9&#45;&gt;dir_bc161955dc3a3d2485839eba21420d01</title>
<path fill="none" stroke="#000000" d="M102.9727,-71.8314C98.7081,-63.9617 94.3207,-54.5712 90.7853,-45.8533"/>
<polygon fill="#000000" stroke="#000000" points="94.0244,-44.5239 87.2077,-36.4133 87.4787,-47.0046 94.0244,-44.5239"/>
<g id="a_edge9&#45;headlabel"><a xlink:href="dir_000010_000221.html" target="_top" xlink:title="5">
<text text-anchor="middle" x="97.9533" y="-44.379" font-family="Helvetica,sans-Serif" font-size="10.00" fill="#000000">5</text>
</a>
</g>
</g>
<!-- dir_bc161955dc3a3d2485839eba21420d01&#45;&gt;dir_f9f2b8691753bb6dc6dd70535846841d -->
<g id="edge15" class="edge">
<title>dir_bc161955dc3a3d2485839eba21420d01&#45;&gt;dir_f9f2b8691753bb6dc6dd70535846841d</title>
<path fill="none" stroke="#000000" d="M85.6384,-36.0896C82.6532,-60.6805 73.1007,-104.905 64.7385,-133.8531"/>
<polygon fill="#000000" stroke="#000000" points="61.2861,-133.1766 61.726,-143.7623 67.9834,-135.2127 61.2861,-133.1766"/>
<g id="a_edge15&#45;headlabel"><a xlink:href="dir_000221_000348.html" target="_top" xlink:title="15">
<text text-anchor="middle" x="59.6151" y="-126.4116" font-family="Helvetica,sans-Serif" font-size="10.00" fill="#000000">15</text>
</a>
</g>
</g>
<!-- dir_bc161955dc3a3d2485839eba21420d01&#45;&gt;dir_4270bfced15e0e73154b13468c7c9ad9 -->
<g id="edge16" class="edge">
<title>dir_bc161955dc3a3d2485839eba21420d01&#45;&gt;dir_4270bfced15e0e73154b13468c7c9ad9</title>
<path fill="none" stroke="#000000" d="M99.1597,-36.4133C103.4267,-44.3141 107.8065,-53.7132 111.3241,-62.417"/>
<polygon fill="#000000" stroke="#000000" points="108.0717,-63.7115 114.8774,-71.8314 114.6207,-61.2396 108.0717,-63.7115"/>
<g id="a_edge16&#45;headlabel"><a xlink:href="dir_000221_000010.html" target="_top" xlink:title="433">
<text text-anchor="middle" x="104.1461" y="-58.851" font-family="Helvetica,sans-Serif" font-size="10.00" fill="#000000">433</text>
</a>
</g>
</g>
</g>
</svg>
