<?xml version="1.0" encoding="UTF-8" standalone="no"?>
<!DOCTYPE svg PUBLIC "-//W3C//DTD SVG 1.1//EN"
 "http://www.w3.org/Graphics/SVG/1.1/DTD/svg11.dtd">
<!-- Generated by graphviz version 2.40.1 (0)
 -->
<!-- Title: graf2d/x11/inc Pages: 1 -->
<svg width="182pt" height="159pt"
 viewBox="0.00 0.00 182.00 159.00" xmlns="http://www.w3.org/2000/svg" xmlns:xlink="http://www.w3.org/1999/xlink">
<g id="graph0" class="graph" transform="scale(1 1) rotate(0) translate(4 155)">
<title>graf2d/x11/inc</title>
<polygon fill="#ffffff" stroke="transparent" points="-4,4 -4,-155 178,-155 178,4 -4,4"/>
<g id="clust1" class="cluster">
<title>clusterdir_70db96dc5ddebced09df8de8ca65ccaa</title>
<g id="a_clust1"><a xlink:href="dir_70db96dc5ddebced09df8de8ca65ccaa.html" target="_top" xlink:title="x11">
<polygon fill="#ddddee" stroke="#000000" points="8,-56 8,-143 166,-143 166,-56 8,-56"/>
<text text-anchor="middle" x="87" y="-131" font-family="Helvetica,sans-Serif" font-size="10.00" fill="#000000">x11</text>
</a>
</g>
</g>
<g id="clust2" class="cluster">
<title>clusterdir_6e86f95be4dd2e4ef95868a35427e0c4</title>
<g id="a_clust2"><a xlink:href="dir_6e86f95be4dd2e4ef95868a35427e0c4.html" target="_top">
<polygon fill="#eeeeff" stroke="#000000" points="16,-64 16,-116 158,-116 158,-64 16,-64"/>
</a>
</g>
</g>
<!-- dir_6e86f95be4dd2e4ef95868a35427e0c4 -->
<g id="node1" class="node">
<title>dir_6e86f95be4dd2e4ef95868a35427e0c4</title>
<text text-anchor="middle" x="123" y="-87.5" font-family="Helvetica,sans-Serif" font-size="10.00" fill="#000000">inc</text>
</g>
<!-- dir_4270bfced15e0e73154b13468c7c9ad9 -->
<g id="node3" class="node">
<title>dir_4270bfced15e0e73154b13468c7c9ad9</title>
<g id="a_node3"><a xlink:href="dir_4270bfced15e0e73154b13468c7c9ad9.html" target="_top" xlink:title="core">
<polygon fill="#ffffff" stroke="#ff0000" points="150,-36 96,-36 96,0 150,0 150,-36"/>
<text text-anchor="middle" x="123" y="-15.5" font-family="Helvetica,sans-Serif" font-size="10.00" fill="#000000">core</text>
</a>
</g>
</g>
<!-- dir_6e86f95be4dd2e4ef95868a35427e0c4&#45;&gt;dir_4270bfced15e0e73154b13468c7c9ad9 -->
<g id="edge1" class="edge">
<title>dir_6e86f95be4dd2e4ef95868a35427e0c4&#45;&gt;dir_4270bfced15e0e73154b13468c7c9ad9</title>
<path fill="none" stroke="#000000" d="M123,-71.8314C123,-64.131 123,-54.9743 123,-46.4166"/>
<polygon fill="#000000" stroke="#000000" points="126.5001,-46.4132 123,-36.4133 119.5001,-46.4133 126.5001,-46.4132"/>
<g id="a_edge1&#45;headlabel"><a xlink:href="dir_000148_000010.html" target="_top" xlink:title="1">
<text text-anchor="middle" x="129.3393" y="-47.5079" font-family="Helvetica,sans-Serif" font-size="10.00" fill="#000000">1</text>
</a>
</g>
</g>
<!-- dir_8731dbdfbf3eb2f097ff5bf09b525989 -->
<g id="node2" class="node">
<title>dir_8731dbdfbf3eb2f097ff5bf09b525989</title>
<g id="a_node2"><a xlink:href="dir_8731dbdfbf3eb2f097ff5bf09b525989.html" target="_top" xlink:title="X11">
<polygon fill="#ffffff" stroke="#ff0000" points="78,-108 24,-108 24,-72 78,-72 78,-108"/>
<text text-anchor="middle" x="51" y="-87.5" font-family="Helvetica,sans-Serif" font-size="10.00" fill="#000000">X11</text>
</a>
</g>
</g>
</g>
</svg>
