<?xml version="1.0" encoding="UTF-8" standalone="no"?>
<!DOCTYPE svg PUBLIC "-//W3C//DTD SVG 1.1//EN"
 "http://www.w3.org/Graphics/SVG/1.1/DTD/svg11.dtd">
<!-- Generated by graphviz version 2.40.1 (0)
 -->
<!-- Title: tmva/tmva/inc/TMVA/DNN/DataLoader.h Pages: 1 -->
<svg width="4580pt" height="396pt"
 viewBox="0.00 0.00 4579.50 396.00" xmlns="http://www.w3.org/2000/svg" xmlns:xlink="http://www.w3.org/1999/xlink">
<g id="graph0" class="graph" transform="scale(1 1) rotate(0) translate(4 392)">
<title>tmva/tmva/inc/TMVA/DNN/DataLoader.h</title>
<polygon fill="#ffffff" stroke="transparent" points="-4,4 -4,-392 4575.5,-392 4575.5,4 -4,4"/>
<!-- Node65 -->
<g id="node1" class="node">
<title>Node65</title>
<polygon fill="#bfbfbf" stroke="#000000" points="1668.5,-357.5 1668.5,-387.5 1786.5,-387.5 1786.5,-357.5 1668.5,-357.5"/>
<text text-anchor="start" x="1676.5" y="-375.5" font-family="Helvetica,sans-Serif" font-size="10.00" fill="#000000">tmva/tmva/inc/TMVA</text>
<text text-anchor="middle" x="1727.5" y="-364.5" font-family="Helvetica,sans-Serif" font-size="10.00" fill="#000000">/DNN/DataLoader.h</text>
</g>
<!-- Node66 -->
<g id="node2" class="node">
<title>Node66</title>
<g id="a_node2"><a xlink:href="CpuBuffer_8h.html" target="_top" xlink:title="tmva/tmva/inc/TMVA\l/DNN/Architectures/Cpu\l/CpuBuffer.h">
<polygon fill="#ffffff" stroke="#000000" points="968,-279.5 968,-320.5 1099,-320.5 1099,-279.5 968,-279.5"/>
<text text-anchor="start" x="976" y="-308.5" font-family="Helvetica,sans-Serif" font-size="10.00" fill="#000000">tmva/tmva/inc/TMVA</text>
<text text-anchor="start" x="976" y="-297.5" font-family="Helvetica,sans-Serif" font-size="10.00" fill="#000000">/DNN/Architectures/Cpu</text>
<text text-anchor="middle" x="1033.5" y="-286.5" font-family="Helvetica,sans-Serif" font-size="10.00" fill="#000000">/CpuBuffer.h</text>
</a>
</g>
</g>
<!-- Node65&#45;&gt;Node66 -->
<g id="edge1" class="edge">
<title>Node65&#45;&gt;Node66</title>
<path fill="none" stroke="#191970" d="M1658.1688,-365.2572C1523.931,-351.2338 1230.2273,-320.5515 1099.0486,-306.8477"/>
<polygon fill="#191970" stroke="#191970" points="1658.0204,-368.7606 1668.33,-366.3187 1658.7478,-361.7985 1658.0204,-368.7606"/>
</g>
<!-- Node72 -->
<g id="node8" class="node">
<title>Node72</title>
<g id="a_node8"><a xlink:href="CpuBuffer_8cxx.html" target="_top" xlink:title="tmva/tmva/src/DNN/Architectures\l/Cpu/CpuBuffer.cxx">
<polygon fill="#ffffff" stroke="#000000" points="1432,-67.5 1432,-97.5 1613,-97.5 1613,-67.5 1432,-67.5"/>
<text text-anchor="start" x="1440" y="-85.5" font-family="Helvetica,sans-Serif" font-size="10.00" fill="#000000">tmva/tmva/src/DNN/Architectures</text>
<text text-anchor="middle" x="1522.5" y="-74.5" font-family="Helvetica,sans-Serif" font-size="10.00" fill="#000000">/Cpu/CpuBuffer.cxx</text>
</a>
</g>
</g>
<!-- Node65&#45;&gt;Node72 -->
<g id="edge60" class="edge">
<title>Node65&#45;&gt;Node72</title>
<path fill="none" stroke="#191970" d="M1658.6558,-358.4677C1635.9125,-350.7779 1612.1883,-338.9887 1595.5,-321 1534.2429,-254.9698 1524.3372,-138.7914 1522.7761,-97.5459"/>
<polygon fill="#191970" stroke="#191970" points="1657.7297,-361.8455 1668.3195,-361.5184 1659.8371,-355.1702 1657.7297,-361.8455"/>
</g>
<!-- Node79 -->
<g id="node15" class="node">
<title>Node79</title>
<g id="a_node15"><a xlink:href="Cuda_8h.html" target="_top" xlink:title="tmva/tmva/inc/TMVA\l/DNN/Architectures/Cuda.h">
<polygon fill="#ffffff" stroke="#000000" points="1604.5,-285 1604.5,-315 1750.5,-315 1750.5,-285 1604.5,-285"/>
<text text-anchor="start" x="1612.5" y="-303" font-family="Helvetica,sans-Serif" font-size="10.00" fill="#000000">tmva/tmva/inc/TMVA</text>
<text text-anchor="middle" x="1677.5" y="-292" font-family="Helvetica,sans-Serif" font-size="10.00" fill="#000000">/DNN/Architectures/Cuda.h</text>
</a>
</g>
</g>
<!-- Node65&#45;&gt;Node79 -->
<g id="edge22" class="edge">
<title>Node65&#45;&gt;Node79</title>
<path fill="none" stroke="#191970" d="M1711.3021,-349.013C1703.5978,-337.8418 1694.615,-324.8167 1687.8468,-315.0028"/>
<polygon fill="#191970" stroke="#191970" points="1708.5813,-351.2329 1717.14,-357.478 1714.3438,-347.2587 1708.5813,-351.2329"/>
</g>
<!-- Node80 -->
<g id="node16" class="node">
<title>Node80</title>
<g id="a_node16"><a xlink:href="CudaBuffers_8cxx.html" target="_top" xlink:title="tmva/tmva/src/DNN/Architectures\l/Cuda/CudaBuffers.cxx">
<polygon fill="#ffffff" stroke="#000000" points="1593,-207 1593,-237 1774,-237 1774,-207 1593,-207"/>
<text text-anchor="start" x="1601" y="-225" font-family="Helvetica,sans-Serif" font-size="10.00" fill="#000000">tmva/tmva/src/DNN/Architectures</text>
<text text-anchor="middle" x="1683.5" y="-214" font-family="Helvetica,sans-Serif" font-size="10.00" fill="#000000">/Cuda/CudaBuffers.cxx</text>
</a>
</g>
</g>
<!-- Node65&#45;&gt;Node80 -->
<g id="edge61" class="edge">
<title>Node65&#45;&gt;Node80</title>
<path fill="none" stroke="#191970" d="M1745.5498,-349.1959C1758.1899,-329.8464 1770.9445,-301.8891 1759.5,-279 1750.2801,-260.5602 1731.9442,-246.5382 1715.5928,-237.0161"/>
<polygon fill="#191970" stroke="#191970" points="1742.6611,-347.2197 1739.8377,-357.4314 1748.4129,-351.2092 1742.6611,-347.2197"/>
</g>
<!-- Node81 -->
<g id="node17" class="node">
<title>Node81</title>
<g id="a_node17"><a xlink:href="DNN_2Architectures_2Reference_2DataLoader_8h.html" target="_top" xlink:title="tmva/tmva/inc/TMVA\l/DNN/Architectures/Reference\l/DataLoader.h">
<polygon fill="#ffffff" stroke="#000000" points="2340,-279.5 2340,-320.5 2501,-320.5 2501,-279.5 2340,-279.5"/>
<text text-anchor="start" x="2348" y="-308.5" font-family="Helvetica,sans-Serif" font-size="10.00" fill="#000000">tmva/tmva/inc/TMVA</text>
<text text-anchor="start" x="2348" y="-297.5" font-family="Helvetica,sans-Serif" font-size="10.00" fill="#000000">/DNN/Architectures/Reference</text>
<text text-anchor="middle" x="2420.5" y="-286.5" font-family="Helvetica,sans-Serif" font-size="10.00" fill="#000000">/DataLoader.h</text>
</a>
</g>
</g>
<!-- Node65&#45;&gt;Node81 -->
<g id="edge24" class="edge">
<title>Node65&#45;&gt;Node81</title>
<path fill="none" stroke="#191970" d="M1796.7403,-365.2563C1925.8078,-351.7535 2202.4844,-322.8083 2339.7886,-308.4438"/>
<polygon fill="#191970" stroke="#191970" points="1796.1663,-361.7971 1786.5848,-366.3187 1796.8947,-368.7591 1796.1663,-361.7971"/>
</g>
<!-- Node103 -->
<g id="node39" class="node">
<title>Node103</title>
<g id="a_node39"><a xlink:href="Minimizers_8h.html" target="_top" xlink:title="tmva/tmva/inc/TMVA\l/DNN/Minimizers.h">
<polygon fill="#ffffff" stroke="#000000" points="1816.5,-207 1816.5,-237 1934.5,-237 1934.5,-207 1816.5,-207"/>
<text text-anchor="start" x="1824.5" y="-225" font-family="Helvetica,sans-Serif" font-size="10.00" fill="#000000">tmva/tmva/inc/TMVA</text>
<text text-anchor="middle" x="1875.5" y="-214" font-family="Helvetica,sans-Serif" font-size="10.00" fill="#000000">/DNN/Minimizers.h</text>
</a>
</g>
</g>
<!-- Node65&#45;&gt;Node103 -->
<g id="edge58" class="edge">
<title>Node65&#45;&gt;Node103</title>
<path fill="none" stroke="#191970" d="M1749.7235,-349.9011C1780.2321,-318.8772 1834.2763,-263.92 1860.4548,-237.2994"/>
<polygon fill="#191970" stroke="#191970" points="1747.0216,-347.6569 1742.5055,-357.241 1752.0127,-352.565 1747.0216,-347.6569"/>
</g>
<!-- Node67 -->
<g id="node3" class="node">
<title>Node67</title>
<g id="a_node3"><a xlink:href="CpuMatrix_8h.html" target="_top" xlink:title="tmva/tmva/inc/TMVA\l/DNN/Architectures/Cpu\l/CpuMatrix.h">
<polygon fill="#ffffff" stroke="#000000" points="874,-201.5 874,-242.5 1005,-242.5 1005,-201.5 874,-201.5"/>
<text text-anchor="start" x="882" y="-230.5" font-family="Helvetica,sans-Serif" font-size="10.00" fill="#000000">tmva/tmva/inc/TMVA</text>
<text text-anchor="start" x="882" y="-219.5" font-family="Helvetica,sans-Serif" font-size="10.00" fill="#000000">/DNN/Architectures/Cpu</text>
<text text-anchor="middle" x="939.5" y="-208.5" font-family="Helvetica,sans-Serif" font-size="10.00" fill="#000000">/CpuMatrix.h</text>
</a>
</g>
</g>
<!-- Node66&#45;&gt;Node67 -->
<g id="edge2" class="edge">
<title>Node66&#45;&gt;Node67</title>
<path fill="none" stroke="#191970" d="M1000.3737,-272.5122C988.5539,-262.7043 975.4481,-251.8293 964.4339,-242.6898"/>
<polygon fill="#191970" stroke="#191970" points="998.3791,-275.4051 1008.3097,-279.0974 1002.8491,-270.0182 998.3791,-275.4051"/>
</g>
<!-- Node68 -->
<g id="node4" class="node">
<title>Node68</title>
<g id="a_node4"><a xlink:href="Cpu_8h.html" target="_top" xlink:title="tmva/tmva/inc/TMVA\l/DNN/Architectures/Cpu.h">
<polygon fill="#ffffff" stroke="#000000" points="916.5,-134.5 916.5,-164.5 1056.5,-164.5 1056.5,-134.5 916.5,-134.5"/>
<text text-anchor="start" x="924.5" y="-152.5" font-family="Helvetica,sans-Serif" font-size="10.00" fill="#000000">tmva/tmva/inc/TMVA</text>
<text text-anchor="middle" x="986.5" y="-141.5" font-family="Helvetica,sans-Serif" font-size="10.00" fill="#000000">/DNN/Architectures/Cpu.h</text>
</a>
</g>
</g>
<!-- Node66&#45;&gt;Node68 -->
<g id="edge21" class="edge">
<title>Node66&#45;&gt;Node68</title>
<path fill="none" stroke="#191970" d="M1029.6116,-269.4091C1026.5308,-249.5323 1021.4059,-223.2712 1013.5,-201 1008.9746,-188.2518 1001.7891,-174.739 995.9682,-164.755"/>
<polygon fill="#191970" stroke="#191970" points="1026.1693,-270.0587 1031.0789,-279.4473 1033.0957,-269.0462 1026.1693,-270.0587"/>
</g>
<!-- Node67&#45;&gt;Node68 -->
<g id="edge3" class="edge">
<title>Node67&#45;&gt;Node68</title>
<path fill="none" stroke="#191970" d="M958.4208,-192.8136C964.6922,-183.1397 971.4162,-172.7676 976.7116,-164.5991"/>
<polygon fill="#191970" stroke="#191970" points="955.3455,-191.1234 952.8426,-201.4183 961.2192,-194.9312 955.3455,-191.1234"/>
</g>
<!-- Node78 -->
<g id="node14" class="node">
<title>Node78</title>
<g id="a_node14"><a xlink:href="CpuMatrix_8cxx.html" target="_top" xlink:title="tmva/tmva/src/DNN/Architectures\l/Cpu/CpuMatrix.cxx">
<polygon fill="#ffffff" stroke="#000000" points="717,-134.5 717,-164.5 898,-164.5 898,-134.5 717,-134.5"/>
<text text-anchor="start" x="725" y="-152.5" font-family="Helvetica,sans-Serif" font-size="10.00" fill="#000000">tmva/tmva/src/DNN/Architectures</text>
<text text-anchor="middle" x="807.5" y="-141.5" font-family="Helvetica,sans-Serif" font-size="10.00" fill="#000000">/Cpu/CpuMatrix.cxx</text>
</a>
</g>
</g>
<!-- Node67&#45;&gt;Node78 -->
<g id="edge20" class="edge">
<title>Node67&#45;&gt;Node78</title>
<path fill="none" stroke="#191970" d="M893.0275,-196.4753C873.6302,-185.8215 851.76,-173.8095 834.9908,-164.5991"/>
<polygon fill="#191970" stroke="#191970" points="891.5773,-199.6719 902.0272,-201.4183 894.9472,-193.5365 891.5773,-199.6719"/>
</g>
<!-- Node69 -->
<g id="node5" class="node">
<title>Node69</title>
<g id="a_node5"><a xlink:href="Cpu_2ActivationFunctions_8cxx.html" target="_top" xlink:title="tmva/tmva/src/DNN/Architectures\l/Cpu/ActivationFunctions.cxx">
<polygon fill="#ffffff" stroke="#000000" points="1194,-67.5 1194,-97.5 1375,-97.5 1375,-67.5 1194,-67.5"/>
<text text-anchor="start" x="1202" y="-85.5" font-family="Helvetica,sans-Serif" font-size="10.00" fill="#000000">tmva/tmva/src/DNN/Architectures</text>
<text text-anchor="middle" x="1284.5" y="-74.5" font-family="Helvetica,sans-Serif" font-size="10.00" fill="#000000">/Cpu/ActivationFunctions.cxx</text>
</a>
</g>
</g>
<!-- Node68&#45;&gt;Node69 -->
<g id="edge4" class="edge">
<title>Node68&#45;&gt;Node69</title>
<path fill="none" stroke="#191970" d="M1063.355,-132.2205C1111.0882,-121.4886 1171.8424,-107.8291 1217.5889,-97.5438"/>
<polygon fill="#191970" stroke="#191970" points="1062.3657,-128.8555 1053.377,-134.4639 1063.9012,-135.685 1062.3657,-128.8555"/>
</g>
<!-- Node70 -->
<g id="node6" class="node">
<title>Node70</title>
<g id="a_node6"><a xlink:href="Cpu_8cxx.html" target="_top" xlink:title="tmva/tmva/src/DNN/Architectures\l/Cpu.cxx">
<polygon fill="#ffffff" stroke="#000000" points="895,-.5 895,-30.5 1076,-30.5 1076,-.5 895,-.5"/>
<text text-anchor="start" x="903" y="-18.5" font-family="Helvetica,sans-Serif" font-size="10.00" fill="#000000">tmva/tmva/src/DNN/Architectures</text>
<text text-anchor="middle" x="985.5" y="-7.5" font-family="Helvetica,sans-Serif" font-size="10.00" fill="#000000">/Cpu.cxx</text>
</a>
</g>
</g>
<!-- Node68&#45;&gt;Node70 -->
<g id="edge19" class="edge">
<title>Node68&#45;&gt;Node70</title>
<path fill="none" stroke="#191970" d="M1066.7822,-144.686C1176.7283,-137.2615 1362.953,-121.3846 1383.5,-98 1392.5941,-87.6499 1392.5958,-77.3486 1383.5,-67 1363.5201,-44.2682 1187.3232,-28.6696 1076.1654,-20.9929"/>
<polygon fill="#191970" stroke="#191970" points="1066.4607,-141.1996 1056.7155,-145.3566 1066.926,-148.1841 1066.4607,-141.1996"/>
</g>
<!-- Node71 -->
<g id="node7" class="node">
<title>Node71</title>
<g id="a_node7"><a xlink:href="Cpu_2Arithmetic_8cxx.html" target="_top" xlink:title="tmva/tmva/src/DNN/Architectures\l/Cpu/Arithmetic.cxx">
<polygon fill="#ffffff" stroke="#000000" points="0,-67.5 0,-97.5 181,-97.5 181,-67.5 0,-67.5"/>
<text text-anchor="start" x="8" y="-85.5" font-family="Helvetica,sans-Serif" font-size="10.00" fill="#000000">tmva/tmva/src/DNN/Architectures</text>
<text text-anchor="middle" x="90.5" y="-74.5" font-family="Helvetica,sans-Serif" font-size="10.00" fill="#000000">/Cpu/Arithmetic.cxx</text>
</a>
</g>
</g>
<!-- Node68&#45;&gt;Node71 -->
<g id="edge6" class="edge">
<title>Node68&#45;&gt;Node71</title>
<path fill="none" stroke="#191970" d="M906.3784,-134.1272C588.0319,-96.2728 503.6313,-130.3866 189.5,-98 186.7312,-97.7145 183.9217,-97.4042 181.0876,-97.0732"/>
<polygon fill="#191970" stroke="#191970" points="906.0021,-137.6071 916.3486,-135.3271 906.8385,-130.6573 906.0021,-137.6071"/>
</g>
<!-- Node68&#45;&gt;Node72 -->
<g id="edge8" class="edge">
<title>Node68&#45;&gt;Node72</title>
<path fill="none" stroke="#191970" d="M1066.7728,-140.5795C1153.3941,-130.7968 1295.3536,-114.31 1417.5,-98 1422.1575,-97.3781 1426.9289,-96.7263 1431.7454,-96.0567"/>
<polygon fill="#191970" stroke="#191970" points="1066.2936,-137.1113 1056.7487,-141.7096 1067.0778,-144.0672 1066.2936,-137.1113"/>
</g>
<!-- Node73 -->
<g id="node9" class="node">
<title>Node73</title>
<g id="a_node9"><a xlink:href="Cpu_2Dropout_8cxx.html" target="_top" xlink:title="tmva/tmva/src/DNN/Architectures\l/Cpu/Dropout.cxx">
<polygon fill="#ffffff" stroke="#000000" points="199,-67.5 199,-97.5 380,-97.5 380,-67.5 199,-67.5"/>
<text text-anchor="start" x="207" y="-85.5" font-family="Helvetica,sans-Serif" font-size="10.00" fill="#000000">tmva/tmva/src/DNN/Architectures</text>
<text text-anchor="middle" x="289.5" y="-74.5" font-family="Helvetica,sans-Serif" font-size="10.00" fill="#000000">/Cpu/Dropout.cxx</text>
</a>
</g>
</g>
<!-- Node68&#45;&gt;Node73 -->
<g id="edge9" class="edge">
<title>Node68&#45;&gt;Node73</title>
<path fill="none" stroke="#191970" d="M906.3072,-134.1005C675.9521,-104.5495 614.5754,-123.506 388.5,-98 385.734,-97.6879 382.9271,-97.3543 380.0951,-97.0031"/>
<polygon fill="#191970" stroke="#191970" points="905.9712,-137.5862 916.3389,-135.4042 906.8734,-130.6446 905.9712,-137.5862"/>
</g>
<!-- Node74 -->
<g id="node10" class="node">
<title>Node74</title>
<g id="a_node10"><a xlink:href="Cpu_2Initialization_8cxx.html" target="_top" xlink:title="tmva/tmva/src/DNN/Architectures\l/Cpu/Initialization.cxx">
<polygon fill="#ffffff" stroke="#000000" points="398,-67.5 398,-97.5 579,-97.5 579,-67.5 398,-67.5"/>
<text text-anchor="start" x="406" y="-85.5" font-family="Helvetica,sans-Serif" font-size="10.00" fill="#000000">tmva/tmva/src/DNN/Architectures</text>
<text text-anchor="middle" x="488.5" y="-74.5" font-family="Helvetica,sans-Serif" font-size="10.00" fill="#000000">/Cpu/Initialization.cxx</text>
</a>
</g>
</g>
<!-- Node68&#45;&gt;Node74 -->
<g id="edge11" class="edge">
<title>Node68&#45;&gt;Node74</title>
<path fill="none" stroke="#191970" d="M906.3203,-134.057C763.7693,-112.6095 725.7257,-116.6115 587.5,-98 584.7414,-97.6286 581.9409,-97.243 579.1145,-96.8466"/>
<polygon fill="#191970" stroke="#191970" points="905.902,-137.5335 916.3145,-135.5763 906.9541,-130.613 905.902,-137.5335"/>
</g>
<!-- Node75 -->
<g id="node11" class="node">
<title>Node75</title>
<g id="a_node11"><a xlink:href="Cpu_2OutputFunctions_8cxx.html" target="_top" xlink:title="tmva/tmva/src/DNN/Architectures\l/Cpu/OutputFunctions.cxx">
<polygon fill="#ffffff" stroke="#000000" points="597,-67.5 597,-97.5 778,-97.5 778,-67.5 597,-67.5"/>
<text text-anchor="start" x="605" y="-85.5" font-family="Helvetica,sans-Serif" font-size="10.00" fill="#000000">tmva/tmva/src/DNN/Architectures</text>
<text text-anchor="middle" x="687.5" y="-74.5" font-family="Helvetica,sans-Serif" font-size="10.00" fill="#000000">/Cpu/OutputFunctions.cxx</text>
</a>
</g>
</g>
<!-- Node68&#45;&gt;Node75 -->
<g id="edge13" class="edge">
<title>Node68&#45;&gt;Node75</title>
<path fill="none" stroke="#191970" d="M909.3871,-132.2205C861.4937,-121.4886 800.5356,-107.8291 754.6356,-97.5438"/>
<polygon fill="#191970" stroke="#191970" points="908.8752,-135.6925 919.3986,-134.4639 910.4059,-128.8619 908.8752,-135.6925"/>
</g>
<!-- Node76 -->
<g id="node12" class="node">
<title>Node76</title>
<g id="a_node12"><a xlink:href="Cpu_2Propagation_8cxx.html" target="_top" xlink:title="tmva/tmva/src/DNN/Architectures\l/Cpu/Propagation.cxx">
<polygon fill="#ffffff" stroke="#000000" points="796,-67.5 796,-97.5 977,-97.5 977,-67.5 796,-67.5"/>
<text text-anchor="start" x="804" y="-85.5" font-family="Helvetica,sans-Serif" font-size="10.00" fill="#000000">tmva/tmva/src/DNN/Architectures</text>
<text text-anchor="middle" x="886.5" y="-74.5" font-family="Helvetica,sans-Serif" font-size="10.00" fill="#000000">/Cpu/Propagation.cxx</text>
</a>
</g>
</g>
<!-- Node68&#45;&gt;Node76 -->
<g id="edge15" class="edge">
<title>Node68&#45;&gt;Node76</title>
<path fill="none" stroke="#191970" d="M955.3487,-128.6286C940.3775,-118.5979 922.7651,-106.7976 909.1017,-97.6432"/>
<polygon fill="#191970" stroke="#191970" points="953.5526,-131.6382 963.8085,-134.2967 957.4489,-125.8228 953.5526,-131.6382"/>
</g>
<!-- Node77 -->
<g id="node13" class="node">
<title>Node77</title>
<g id="a_node13"><a xlink:href="Cpu_2RecurrentPropagation_8cxx.html" target="_top" xlink:title="tmva/tmva/src/DNN/Architectures\l/Cpu/RecurrentPropagation.cxx">
<polygon fill="#ffffff" stroke="#000000" points="995,-67.5 995,-97.5 1176,-97.5 1176,-67.5 995,-67.5"/>
<text text-anchor="start" x="1003" y="-85.5" font-family="Helvetica,sans-Serif" font-size="10.00" fill="#000000">tmva/tmva/src/DNN/Architectures</text>
<text text-anchor="middle" x="1085.5" y="-74.5" font-family="Helvetica,sans-Serif" font-size="10.00" fill="#000000">/Cpu/RecurrentPropagation.cxx</text>
</a>
</g>
</g>
<!-- Node68&#45;&gt;Node77 -->
<g id="edge17" class="edge">
<title>Node68&#45;&gt;Node77</title>
<path fill="none" stroke="#191970" d="M1017.3398,-128.6286C1032.1613,-118.5979 1049.5975,-106.7976 1063.1243,-97.6432"/>
<polygon fill="#191970" stroke="#191970" points="1015.2847,-125.7932 1008.9646,-134.2967 1019.208,-131.5904 1015.2847,-125.7932"/>
</g>
<!-- Node69&#45;&gt;Node70 -->
<g id="edge5" class="edge">
<title>Node69&#45;&gt;Node70</title>
<path fill="none" stroke="#191970" d="M1207.3871,-65.2205C1159.4937,-54.4886 1098.5356,-40.8291 1052.6356,-30.5438"/>
<polygon fill="#191970" stroke="#191970" points="1206.8752,-68.6925 1217.3986,-67.4639 1208.4059,-61.8619 1206.8752,-68.6925"/>
</g>
<!-- Node71&#45;&gt;Node70 -->
<g id="edge7" class="edge">
<title>Node71&#45;&gt;Node70</title>
<path fill="none" stroke="#191970" d="M191.137,-66.8778C451.9758,-38.5038 748.7335,-24.4177 894.8405,-18.6875"/>
<polygon fill="#191970" stroke="#191970" points="190.6519,-63.4099 181.0932,-67.9795 191.4152,-70.3682 190.6519,-63.4099"/>
</g>
<!-- Node73&#45;&gt;Node70 -->
<g id="edge10" class="edge">
<title>Node73&#45;&gt;Node70</title>
<path fill="none" stroke="#191970" d="M390.2766,-66.831C574.9864,-44.73 779.7143,-29.2409 894.7772,-21.3631"/>
<polygon fill="#191970" stroke="#191970" points="389.6114,-63.3858 380.1023,-68.0576 390.4493,-70.3354 389.6114,-63.3858"/>
</g>
<!-- Node74&#45;&gt;Node70 -->
<g id="edge12" class="edge">
<title>Node74&#45;&gt;Node70</title>
<path fill="none" stroke="#191970" d="M589.1371,-66.7847C699.929,-51.0399 816.5472,-36.2231 894.9118,-26.5247"/>
<polygon fill="#191970" stroke="#191970" points="588.5285,-63.336 579.1227,-68.2127 589.5167,-70.2659 588.5285,-63.336"/>
</g>
<!-- Node75&#45;&gt;Node70 -->
<g id="edge14" class="edge">
<title>Node75&#45;&gt;Node70</title>
<path fill="none" stroke="#191970" d="M764.355,-65.2205C812.0882,-54.4886 872.8424,-40.8291 918.5889,-30.5438"/>
<polygon fill="#191970" stroke="#191970" points="763.3657,-61.8555 754.377,-67.4639 764.9012,-68.685 763.3657,-61.8555"/>
</g>
<!-- Node76&#45;&gt;Node70 -->
<g id="edge16" class="edge">
<title>Node76&#45;&gt;Node70</title>
<path fill="none" stroke="#191970" d="M917.3398,-61.6286C932.1613,-51.5979 949.5975,-39.7976 963.1243,-30.6432"/>
<polygon fill="#191970" stroke="#191970" points="915.2847,-58.7932 908.9646,-67.2967 919.208,-64.5904 915.2847,-58.7932"/>
</g>
<!-- Node77&#45;&gt;Node70 -->
<g id="edge18" class="edge">
<title>Node77&#45;&gt;Node70</title>
<path fill="none" stroke="#191970" d="M1054.3487,-61.6286C1039.3775,-51.5979 1021.7651,-39.7976 1008.1017,-30.6432"/>
<polygon fill="#191970" stroke="#191970" points="1052.5526,-64.6382 1062.8085,-67.2967 1056.4489,-58.8228 1052.5526,-64.6382"/>
</g>
<!-- Node79&#45;&gt;Node80 -->
<g id="edge23" class="edge">
<title>Node79&#45;&gt;Node80</title>
<path fill="none" stroke="#191970" d="M1679.4394,-274.7875C1680.3909,-262.4187 1681.5057,-247.9264 1682.3262,-237.2592"/>
<polygon fill="#191970" stroke="#191970" points="1675.9342,-274.7218 1678.6569,-284.9608 1682.9136,-275.2587 1675.9342,-274.7218"/>
</g>
<!-- Node82 -->
<g id="node18" class="node">
<title>Node82</title>
<g id="a_node18"><a xlink:href="Reference_8h.html" target="_top" xlink:title="tmva/tmva/inc/TMVA\l/DNN/Architectures/Reference.h">
<polygon fill="#ffffff" stroke="#000000" points="2888.5,-207 2888.5,-237 3058.5,-237 3058.5,-207 2888.5,-207"/>
<text text-anchor="start" x="2896.5" y="-225" font-family="Helvetica,sans-Serif" font-size="10.00" fill="#000000">tmva/tmva/inc/TMVA</text>
<text text-anchor="middle" x="2973.5" y="-214" font-family="Helvetica,sans-Serif" font-size="10.00" fill="#000000">/DNN/Architectures/Reference.h</text>
</a>
</g>
</g>
<!-- Node81&#45;&gt;Node82 -->
<g id="edge25" class="edge">
<title>Node81&#45;&gt;Node82</title>
<path fill="none" stroke="#191970" d="M2511.4196,-287.1759C2615.886,-272.441 2785.9994,-248.4467 2888.0893,-234.0471"/>
<polygon fill="#191970" stroke="#191970" points="2510.62,-283.7539 2501.2069,-288.6164 2511.5977,-290.6853 2510.62,-283.7539"/>
</g>
<!-- Node83 -->
<g id="node19" class="node">
<title>Node83</title>
<g id="a_node19"><a xlink:href="MethodDL_8h.html" target="_top" xlink:title="tmva/tmva/inc/TMVA\l/MethodDL.h">
<polygon fill="#ffffff" stroke="#000000" points="4432.5,-134.5 4432.5,-164.5 4550.5,-164.5 4550.5,-134.5 4432.5,-134.5"/>
<text text-anchor="start" x="4440.5" y="-152.5" font-family="Helvetica,sans-Serif" font-size="10.00" fill="#000000">tmva/tmva/inc/TMVA</text>
<text text-anchor="middle" x="4491.5" y="-141.5" font-family="Helvetica,sans-Serif" font-size="10.00" fill="#000000">/MethodDL.h</text>
</a>
</g>
</g>
<!-- Node82&#45;&gt;Node83 -->
<g id="edge26" class="edge">
<title>Node82&#45;&gt;Node83</title>
<path fill="none" stroke="#191970" d="M3068.7828,-220.3543C3347.1724,-215.2109 4156.1126,-197.7901 4418.5,-165 4422.9997,-164.4377 4427.6334,-163.7394 4432.2806,-162.9528"/>
<polygon fill="#191970" stroke="#191970" points="3068.6409,-216.8562 3058.7069,-220.5394 3068.7696,-223.8551 3068.6409,-216.8562"/>
</g>
<!-- Node85 -->
<g id="node21" class="node">
<title>Node85</title>
<g id="a_node21"><a xlink:href="MethodDNN_8h.html" target="_top" xlink:title="tmva/tmva/inc/TMVA\l/MethodDNN.h">
<polygon fill="#ffffff" stroke="#000000" points="1828.5,-134.5 1828.5,-164.5 1946.5,-164.5 1946.5,-134.5 1828.5,-134.5"/>
<text text-anchor="start" x="1836.5" y="-152.5" font-family="Helvetica,sans-Serif" font-size="10.00" fill="#000000">tmva/tmva/inc/TMVA</text>
<text text-anchor="middle" x="1887.5" y="-141.5" font-family="Helvetica,sans-Serif" font-size="10.00" fill="#000000">/MethodDNN.h</text>
</a>
</g>
</g>
<!-- Node82&#45;&gt;Node85 -->
<g id="edge28" class="edge">
<title>Node82&#45;&gt;Node85</title>
<path fill="none" stroke="#191970" d="M2878.2413,-217.0546C2711.2814,-208.1718 2354.9663,-188.2564 2054.5,-165 2018.6469,-162.2249 1978.5204,-158.52 1946.5878,-155.4283"/>
<polygon fill="#191970" stroke="#191970" points="2878.0628,-220.55 2888.2344,-217.5852 2878.434,-213.5598 2878.0628,-220.55"/>
</g>
<!-- Node86 -->
<g id="node22" class="node">
<title>Node86</title>
<g id="a_node22"><a xlink:href="MethodDNN_8cxx.html" target="_top" xlink:title="tmva/tmva/src/MethodDNN.cxx">
<polygon fill="#ffffff" stroke="#000000" points="1983.5,-73 1983.5,-92 2153.5,-92 2153.5,-73 1983.5,-73"/>
<text text-anchor="middle" x="2068.5" y="-80" font-family="Helvetica,sans-Serif" font-size="10.00" fill="#000000">tmva/tmva/src/MethodDNN.cxx</text>
</a>
</g>
</g>
<!-- Node82&#45;&gt;Node86 -->
<g id="edge57" class="edge">
<title>Node82&#45;&gt;Node86</title>
<path fill="none" stroke="#191970" d="M2878.1642,-219.5242C2673.674,-213.6317 2206.1698,-196.8321 2141.5,-165 2108.3832,-148.699 2083.709,-110.086 2073.5703,-92.0683"/>
<polygon fill="#191970" stroke="#191970" points="2878.1968,-223.0265 2888.2926,-219.8133 2878.3966,-216.0293 2878.1968,-223.0265"/>
</g>
<!-- Node89 -->
<g id="node25" class="node">
<title>Node89</title>
<g id="a_node25"><a xlink:href="Cpu_2LossFunctions_8cxx.html" target="_top" xlink:title="tmva/tmva/src/DNN/Architectures\l/Cpu/LossFunctions.cxx">
<polygon fill="#ffffff" stroke="#000000" points="2172,-67.5 2172,-97.5 2353,-97.5 2353,-67.5 2172,-67.5"/>
<text text-anchor="start" x="2180" y="-85.5" font-family="Helvetica,sans-Serif" font-size="10.00" fill="#000000">tmva/tmva/src/DNN/Architectures</text>
<text text-anchor="middle" x="2262.5" y="-74.5" font-family="Helvetica,sans-Serif" font-size="10.00" fill="#000000">/Cpu/LossFunctions.cxx</text>
</a>
</g>
</g>
<!-- Node82&#45;&gt;Node89 -->
<g id="edge32" class="edge">
<title>Node82&#45;&gt;Node89</title>
<path fill="none" stroke="#191970" d="M2878.3125,-218.8221C2667.5112,-211.3217 2177.9082,-191.1638 2153.5,-165 2128.0018,-137.6678 2175.1363,-112.7397 2215.1826,-97.6031"/>
<polygon fill="#191970" stroke="#191970" points="2878.3244,-222.3246 2888.4419,-219.1804 2878.5719,-215.329 2878.3244,-222.3246"/>
</g>
<!-- Node90 -->
<g id="node26" class="node">
<title>Node90</title>
<g id="a_node26"><a xlink:href="Cpu_2Regularization_8cxx.html" target="_top" xlink:title="tmva/tmva/src/DNN/Architectures\l/Cpu/Regularization.cxx">
<polygon fill="#ffffff" stroke="#000000" points="2371,-67.5 2371,-97.5 2552,-97.5 2552,-67.5 2371,-67.5"/>
<text text-anchor="start" x="2379" y="-85.5" font-family="Helvetica,sans-Serif" font-size="10.00" fill="#000000">tmva/tmva/src/DNN/Architectures</text>
<text text-anchor="middle" x="2461.5" y="-74.5" font-family="Helvetica,sans-Serif" font-size="10.00" fill="#000000">/Cpu/Regularization.cxx</text>
</a>
</g>
</g>
<!-- Node82&#45;&gt;Node90 -->
<g id="edge34" class="edge">
<title>Node82&#45;&gt;Node90</title>
<path fill="none" stroke="#191970" d="M2878.4375,-218.7325C2669.8359,-211.1005 2188.526,-190.7784 2164.5,-165 2155.1062,-154.9211 2155.6288,-144.5418 2164.5,-134 2167.8958,-129.9646 2284.8492,-110.5801 2370.9569,-96.7839"/>
<polygon fill="#191970" stroke="#191970" points="2878.3432,-222.2313 2888.4638,-219.0972 2878.5977,-215.2359 2878.3432,-222.2313"/>
</g>
<!-- Node91 -->
<g id="node27" class="node">
<title>Node91</title>
<g id="a_node27"><a xlink:href="Reference_2ActivationFunctions_8cxx.html" target="_top" xlink:title="tmva/tmva/src/DNN/Architectures\l/Reference/ActivationFunctions.cxx">
<polygon fill="#ffffff" stroke="#000000" points="2372,-134.5 2372,-164.5 2559,-164.5 2559,-134.5 2372,-134.5"/>
<text text-anchor="start" x="2380" y="-152.5" font-family="Helvetica,sans-Serif" font-size="10.00" fill="#000000">tmva/tmva/src/DNN/Architectures</text>
<text text-anchor="middle" x="2465.5" y="-141.5" font-family="Helvetica,sans-Serif" font-size="10.00" fill="#000000">/Reference/ActivationFunctions.cxx</text>
</a>
</g>
</g>
<!-- Node82&#45;&gt;Node91 -->
<g id="edge36" class="edge">
<title>Node82&#45;&gt;Node91</title>
<path fill="none" stroke="#191970" d="M2878.0722,-208.8311C2795.9788,-197.4396 2674.3983,-180.4198 2568.5,-165 2565.4579,-164.557 2562.3657,-164.1046 2559.2433,-163.6458"/>
<polygon fill="#191970" stroke="#191970" points="2877.7482,-212.3196 2888.1343,-210.2265 2878.7099,-205.3859 2877.7482,-212.3196"/>
</g>
<!-- Node92 -->
<g id="node28" class="node">
<title>Node92</title>
<g id="a_node28"><a xlink:href="Reference_8cxx.html" target="_top" xlink:title="tmva/tmva/src/DNN/Architectures\l/Reference.cxx">
<polygon fill="#ffffff" stroke="#000000" points="3284,-67.5 3284,-97.5 3465,-97.5 3465,-67.5 3284,-67.5"/>
<text text-anchor="start" x="3292" y="-85.5" font-family="Helvetica,sans-Serif" font-size="10.00" fill="#000000">tmva/tmva/src/DNN/Architectures</text>
<text text-anchor="middle" x="3374.5" y="-74.5" font-family="Helvetica,sans-Serif" font-size="10.00" fill="#000000">/Reference.cxx</text>
</a>
</g>
</g>
<!-- Node82&#45;&gt;Node92 -->
<g id="edge56" class="edge">
<title>Node82&#45;&gt;Node92</title>
<path fill="none" stroke="#191970" d="M3068.9236,-221.7334C3378.8525,-220.4041 4339.9199,-212.4572 4385.5,-165 4395.0439,-155.0631 4394.9913,-143.9871 4385.5,-134 4354.0595,-100.9172 3707.8338,-87.613 3465.3539,-83.7731"/>
<polygon fill="#191970" stroke="#191970" points="3068.6027,-218.2346 3058.6173,-221.7762 3068.6318,-225.2345 3068.6027,-218.2346"/>
</g>
<!-- Node93 -->
<g id="node29" class="node">
<title>Node93</title>
<g id="a_node29"><a xlink:href="Reference_2Arithmetic_8cxx.html" target="_top" xlink:title="tmva/tmva/src/DNN/Architectures\l/Reference/Arithmetic.cxx">
<polygon fill="#ffffff" stroke="#000000" points="2577,-134.5 2577,-164.5 2758,-164.5 2758,-134.5 2577,-134.5"/>
<text text-anchor="start" x="2585" y="-152.5" font-family="Helvetica,sans-Serif" font-size="10.00" fill="#000000">tmva/tmva/src/DNN/Architectures</text>
<text text-anchor="middle" x="2667.5" y="-141.5" font-family="Helvetica,sans-Serif" font-size="10.00" fill="#000000">/Reference/Arithmetic.cxx</text>
</a>
</g>
</g>
<!-- Node82&#45;&gt;Node93 -->
<g id="edge38" class="edge">
<title>Node82&#45;&gt;Node93</title>
<path fill="none" stroke="#191970" d="M2900.3279,-204.6635C2848.6665,-192.4234 2780.1385,-176.1872 2730.8222,-164.5028"/>
<polygon fill="#191970" stroke="#191970" points="2899.559,-208.0781 2910.0966,-206.978 2901.1729,-201.2667 2899.559,-208.0781"/>
</g>
<!-- Node94 -->
<g id="node30" class="node">
<title>Node94</title>
<g id="a_node30"><a xlink:href="DNN_2Architectures_2Reference_2DataLoader_8cxx.html" target="_top" xlink:title="tmva/tmva/src/DNN/Architectures\l/Reference/DataLoader.cxx">
<polygon fill="#ffffff" stroke="#000000" points="3781,-134.5 3781,-164.5 3962,-164.5 3962,-134.5 3781,-134.5"/>
<text text-anchor="start" x="3789" y="-152.5" font-family="Helvetica,sans-Serif" font-size="10.00" fill="#000000">tmva/tmva/src/DNN/Architectures</text>
<text text-anchor="middle" x="3871.5" y="-141.5" font-family="Helvetica,sans-Serif" font-size="10.00" fill="#000000">/Reference/DataLoader.cxx</text>
</a>
</g>
</g>
<!-- Node82&#45;&gt;Node94 -->
<g id="edge40" class="edge">
<title>Node82&#45;&gt;Node94</title>
<path fill="none" stroke="#191970" d="M3068.6626,-217.8036C3218.6531,-210.6061 3519.0689,-193.8274 3772.5,-165 3775.2657,-164.6854 3778.0723,-164.3496 3780.9041,-163.9964"/>
<polygon fill="#191970" stroke="#191970" points="3068.3863,-214.3127 3058.5642,-218.2846 3068.7194,-221.3048 3068.3863,-214.3127"/>
</g>
<!-- Node95 -->
<g id="node31" class="node">
<title>Node95</title>
<g id="a_node31"><a xlink:href="DenoisePropagation_8cxx.html" target="_top" xlink:title="tmva/tmva/src/DNN/Architectures\l/Reference/DenoisePropagation.cxx">
<polygon fill="#ffffff" stroke="#000000" points="2776.5,-134.5 2776.5,-164.5 2966.5,-164.5 2966.5,-134.5 2776.5,-134.5"/>
<text text-anchor="start" x="2784.5" y="-152.5" font-family="Helvetica,sans-Serif" font-size="10.00" fill="#000000">tmva/tmva/src/DNN/Architectures</text>
<text text-anchor="middle" x="2871.5" y="-141.5" font-family="Helvetica,sans-Serif" font-size="10.00" fill="#000000">/Reference/DenoisePropagation.cxx</text>
</a>
</g>
</g>
<!-- Node82&#45;&gt;Node95 -->
<g id="edge41" class="edge">
<title>Node82&#45;&gt;Node95</title>
<path fill="none" stroke="#191970" d="M2944.1383,-201.1302C2927.6708,-189.4253 2907.5082,-175.0941 2892.6074,-164.5028"/>
<polygon fill="#191970" stroke="#191970" points="2942.187,-204.0372 2952.3655,-206.978 2946.2424,-198.3317 2942.187,-204.0372"/>
</g>
<!-- Node96 -->
<g id="node32" class="node">
<title>Node96</title>
<g id="a_node32"><a xlink:href="Reference_2Dropout_8cxx.html" target="_top" xlink:title="tmva/tmva/src/DNN/Architectures\l/Reference/Dropout.cxx">
<polygon fill="#ffffff" stroke="#000000" points="2985,-134.5 2985,-164.5 3166,-164.5 3166,-134.5 2985,-134.5"/>
<text text-anchor="start" x="2993" y="-152.5" font-family="Helvetica,sans-Serif" font-size="10.00" fill="#000000">tmva/tmva/src/DNN/Architectures</text>
<text text-anchor="middle" x="3075.5" y="-141.5" font-family="Helvetica,sans-Serif" font-size="10.00" fill="#000000">/Reference/Dropout.cxx</text>
</a>
</g>
</g>
<!-- Node82&#45;&gt;Node96 -->
<g id="edge43" class="edge">
<title>Node82&#45;&gt;Node96</title>
<path fill="none" stroke="#191970" d="M3002.8617,-201.1302C3019.3292,-189.4253 3039.4918,-175.0941 3054.3926,-164.5028"/>
<polygon fill="#191970" stroke="#191970" points="3000.7576,-198.3317 2994.6345,-206.978 3004.813,-204.0372 3000.7576,-198.3317"/>
</g>
<!-- Node97 -->
<g id="node33" class="node">
<title>Node97</title>
<g id="a_node33"><a xlink:href="Reference_2Initialization_8cxx.html" target="_top" xlink:title="tmva/tmva/src/DNN/Architectures\l/Reference/Initialization.cxx">
<polygon fill="#ffffff" stroke="#000000" points="3184,-134.5 3184,-164.5 3365,-164.5 3365,-134.5 3184,-134.5"/>
<text text-anchor="start" x="3192" y="-152.5" font-family="Helvetica,sans-Serif" font-size="10.00" fill="#000000">tmva/tmva/src/DNN/Architectures</text>
<text text-anchor="middle" x="3274.5" y="-141.5" font-family="Helvetica,sans-Serif" font-size="10.00" fill="#000000">/Reference/Initialization.cxx</text>
</a>
</g>
</g>
<!-- Node82&#45;&gt;Node97 -->
<g id="edge45" class="edge">
<title>Node82&#45;&gt;Node97</title>
<path fill="none" stroke="#191970" d="M3045.7937,-204.5871C3096.5739,-192.3559 3163.8028,-176.1629 3212.2125,-164.5028"/>
<polygon fill="#191970" stroke="#191970" points="3044.7698,-201.2335 3035.8674,-206.978 3046.409,-208.0389 3044.7698,-201.2335"/>
</g>
<!-- Node98 -->
<g id="node34" class="node">
<title>Node98</title>
<g id="a_node34"><a xlink:href="Reference_2LossFunctions_8cxx.html" target="_top" xlink:title="tmva/tmva/src/DNN/Architectures\l/Reference/LossFunctions.cxx">
<polygon fill="#ffffff" stroke="#000000" points="3383,-134.5 3383,-164.5 3564,-164.5 3564,-134.5 3383,-134.5"/>
<text text-anchor="start" x="3391" y="-152.5" font-family="Helvetica,sans-Serif" font-size="10.00" fill="#000000">tmva/tmva/src/DNN/Architectures</text>
<text text-anchor="middle" x="3473.5" y="-141.5" font-family="Helvetica,sans-Serif" font-size="10.00" fill="#000000">/Reference/LossFunctions.cxx</text>
</a>
</g>
</g>
<!-- Node82&#45;&gt;Node98 -->
<g id="edge47" class="edge">
<title>Node82&#45;&gt;Node98</title>
<path fill="none" stroke="#191970" d="M3069.0297,-208.8071C3150.3083,-197.4898 3270.1238,-180.5883 3374.5,-165 3377.253,-164.5889 3380.0485,-164.1685 3382.8706,-163.7418"/>
<polygon fill="#191970" stroke="#191970" points="3068.2388,-205.3833 3058.8166,-210.228 3069.2035,-212.3165 3068.2388,-205.3833"/>
</g>
<!-- Node99 -->
<g id="node35" class="node">
<title>Node99</title>
<g id="a_node35"><a xlink:href="Reference_2Propagation_8cxx.html" target="_top" xlink:title="tmva/tmva/src/DNN/Architectures\l/Reference/Propagation.cxx">
<polygon fill="#ffffff" stroke="#000000" points="3582,-134.5 3582,-164.5 3763,-164.5 3763,-134.5 3582,-134.5"/>
<text text-anchor="start" x="3590" y="-152.5" font-family="Helvetica,sans-Serif" font-size="10.00" fill="#000000">tmva/tmva/src/DNN/Architectures</text>
<text text-anchor="middle" x="3672.5" y="-141.5" font-family="Helvetica,sans-Serif" font-size="10.00" fill="#000000">/Reference/Propagation.cxx</text>
</a>
</g>
</g>
<!-- Node82&#45;&gt;Node99 -->
<g id="edge49" class="edge">
<title>Node82&#45;&gt;Node99</title>
<path fill="none" stroke="#191970" d="M3068.7621,-214.7424C3187.2699,-205.3015 3395.7009,-187.3432 3573.5,-165 3576.2618,-164.6529 3579.0651,-164.2887 3581.8939,-163.9108"/>
<polygon fill="#191970" stroke="#191970" points="3068.3241,-211.2661 3058.6322,-215.5461 3068.8778,-218.2441 3068.3241,-211.2661"/>
</g>
<!-- Node100 -->
<g id="node36" class="node">
<title>Node100</title>
<g id="a_node36"><a xlink:href="Reference_2RecurrentPropagation_8cxx.html" target="_top" xlink:title="tmva/tmva/src/DNN/Architectures\l/Reference/RecurrentPropagation.cxx">
<polygon fill="#ffffff" stroke="#000000" points="3980,-134.5 3980,-164.5 4177,-164.5 4177,-134.5 3980,-134.5"/>
<text text-anchor="start" x="3988" y="-152.5" font-family="Helvetica,sans-Serif" font-size="10.00" fill="#000000">tmva/tmva/src/DNN/Architectures</text>
<text text-anchor="middle" x="4078.5" y="-141.5" font-family="Helvetica,sans-Serif" font-size="10.00" fill="#000000">/Reference/RecurrentPropagation.cxx</text>
</a>
</g>
</g>
<!-- Node82&#45;&gt;Node100 -->
<g id="edge51" class="edge">
<title>Node82&#45;&gt;Node100</title>
<path fill="none" stroke="#191970" d="M3068.9166,-219.3075C3246.7944,-213.6761 3640.9911,-198.3136 3971.5,-165 3974.208,-164.7271 3976.9525,-164.4353 3979.7206,-164.1277"/>
<polygon fill="#191970" stroke="#191970" points="3068.6894,-215.8128 3058.804,-219.6245 3068.9088,-222.8093 3068.6894,-215.8128"/>
</g>
<!-- Node101 -->
<g id="node37" class="node">
<title>Node101</title>
<g id="a_node37"><a xlink:href="Reference_2Regularization_8cxx.html" target="_top" xlink:title="tmva/tmva/src/DNN/Architectures\l/Reference/Regularization.cxx">
<polygon fill="#ffffff" stroke="#000000" points="4195,-134.5 4195,-164.5 4376,-164.5 4376,-134.5 4195,-134.5"/>
<text text-anchor="start" x="4203" y="-152.5" font-family="Helvetica,sans-Serif" font-size="10.00" fill="#000000">tmva/tmva/src/DNN/Architectures</text>
<text text-anchor="middle" x="4285.5" y="-141.5" font-family="Helvetica,sans-Serif" font-size="10.00" fill="#000000">/Reference/Regularization.cxx</text>
</a>
</g>
</g>
<!-- Node82&#45;&gt;Node101 -->
<g id="edge53" class="edge">
<title>Node82&#45;&gt;Node101</title>
<path fill="none" stroke="#191970" d="M3068.7907,-221.0287C3273.773,-218.1698 3771.6528,-207.0974 4186.5,-165 4189.2693,-164.719 4192.0791,-164.4125 4194.9136,-164.085"/>
<polygon fill="#191970" stroke="#191970" points="3068.6129,-217.5307 3058.6615,-221.1665 3068.7083,-224.53 3068.6129,-217.5307"/>
</g>
<!-- Node102 -->
<g id="node38" class="node">
<title>Node102</title>
<g id="a_node38"><a xlink:href="TensorDataLoader_8cxx.html" target="_top" xlink:title="tmva/tmva/src/DNN/Architectures\l/Reference/TensorDataLoader.cxx">
<polygon fill="#ffffff" stroke="#000000" points="2173,-134.5 2173,-164.5 2354,-164.5 2354,-134.5 2173,-134.5"/>
<text text-anchor="start" x="2181" y="-152.5" font-family="Helvetica,sans-Serif" font-size="10.00" fill="#000000">tmva/tmva/src/DNN/Architectures</text>
<text text-anchor="middle" x="2263.5" y="-141.5" font-family="Helvetica,sans-Serif" font-size="10.00" fill="#000000">/Reference/TensorDataLoader.cxx</text>
</a>
</g>
</g>
<!-- Node82&#45;&gt;Node102 -->
<g id="edge55" class="edge">
<title>Node82&#45;&gt;Node102</title>
<path fill="none" stroke="#191970" d="M2878.186,-214.8921C2757.9768,-205.5145 2545.0401,-187.5301 2363.5,-165 2360.4489,-164.6213 2357.3477,-164.222 2354.2174,-163.8066"/>
<polygon fill="#191970" stroke="#191970" points="2878.2163,-218.405 2888.4574,-215.6901 2878.7586,-211.426 2878.2163,-218.405"/>
</g>
<!-- Node84 -->
<g id="node20" class="node">
<title>Node84</title>
<g id="a_node20"><a xlink:href="MethodDL_8cxx.html" target="_top" xlink:title="tmva/tmva/src/MethodDL.cxx">
<polygon fill="#ffffff" stroke="#000000" points="4411.5,-73 4411.5,-92 4571.5,-92 4571.5,-73 4411.5,-73"/>
<text text-anchor="middle" x="4491.5" y="-80" font-family="Helvetica,sans-Serif" font-size="10.00" fill="#000000">tmva/tmva/src/MethodDL.cxx</text>
</a>
</g>
</g>
<!-- Node83&#45;&gt;Node84 -->
<g id="edge27" class="edge">
<title>Node83&#45;&gt;Node84</title>
<path fill="none" stroke="#191970" d="M4491.5,-124.1199C4491.5,-112.9072 4491.5,-100.4031 4491.5,-92.055"/>
<polygon fill="#191970" stroke="#191970" points="4488.0001,-124.2966 4491.5,-134.2967 4495.0001,-124.2967 4488.0001,-124.2966"/>
</g>
<!-- Node85&#45;&gt;Node86 -->
<g id="edge29" class="edge">
<title>Node85&#45;&gt;Node86</title>
<path fill="none" stroke="#191970" d="M1937.9153,-130.838C1972.0158,-118.2151 2015.6321,-102.0699 2042.8215,-92.0053"/>
<polygon fill="#191970" stroke="#191970" points="1936.283,-127.71 1928.1199,-134.4639 1938.7131,-134.2747 1936.283,-127.71"/>
</g>
<!-- Node87 -->
<g id="node23" class="node">
<title>Node87</title>
<g id="a_node23"><a xlink:href="NeuralNet_8cxx.html" target="_top" xlink:title="tmva/tmva/src/NeuralNet.cxx">
<polygon fill="#ffffff" stroke="#000000" points="1631,-73 1631,-92 1792,-92 1792,-73 1631,-73"/>
<text text-anchor="middle" x="1711.5" y="-80" font-family="Helvetica,sans-Serif" font-size="10.00" fill="#000000">tmva/tmva/src/NeuralNet.cxx</text>
</a>
</g>
</g>
<!-- Node85&#45;&gt;Node87 -->
<g id="edge30" class="edge">
<title>Node85&#45;&gt;Node87</title>
<path fill="none" stroke="#191970" d="M1838.4774,-130.838C1805.3189,-118.2151 1762.9075,-102.0699 1736.4691,-92.0053"/>
<polygon fill="#191970" stroke="#191970" points="1837.4112,-134.1771 1848.0022,-134.4639 1839.9017,-127.6351 1837.4112,-134.1771"/>
</g>
<!-- Node88 -->
<g id="node24" class="node">
<title>Node88</title>
<g id="a_node24"><a xlink:href="VarTransformHandler_8cxx.html" target="_top" xlink:title="tmva/tmva/src/VarTransform\lHandler.cxx">
<polygon fill="#ffffff" stroke="#000000" points="1810,-67.5 1810,-97.5 1965,-97.5 1965,-67.5 1810,-67.5"/>
<text text-anchor="start" x="1818" y="-85.5" font-family="Helvetica,sans-Serif" font-size="10.00" fill="#000000">tmva/tmva/src/VarTransform</text>
<text text-anchor="middle" x="1887.5" y="-74.5" font-family="Helvetica,sans-Serif" font-size="10.00" fill="#000000">Handler.cxx</text>
</a>
</g>
</g>
<!-- Node85&#45;&gt;Node88 -->
<g id="edge31" class="edge">
<title>Node85&#45;&gt;Node88</title>
<path fill="none" stroke="#191970" d="M1887.5,-124.0249C1887.5,-115.128 1887.5,-105.4287 1887.5,-97.6432"/>
<polygon fill="#191970" stroke="#191970" points="1884.0001,-124.2966 1887.5,-134.2967 1891.0001,-124.2967 1884.0001,-124.2966"/>
</g>
<!-- Node89&#45;&gt;Node70 -->
<g id="edge33" class="edge">
<title>Node89&#45;&gt;Node70</title>
<path fill="none" stroke="#191970" d="M2161.5425,-67.0056C1932.8612,-45.5284 1310.2497,-25.2792 1076.0627,-18.1702"/>
<polygon fill="#191970" stroke="#191970" points="2161.5143,-70.5191 2171.8045,-67.9967 2162.1873,-63.5515 2161.5143,-70.5191"/>
</g>
<!-- Node90&#45;&gt;Node70 -->
<g id="edge35" class="edge">
<title>Node90&#45;&gt;Node70</title>
<path fill="none" stroke="#191970" d="M2360.8007,-66.9264C2092.2539,-42.279 1338.1131,-23.4704 1076.3101,-17.4961"/>
<polygon fill="#191970" stroke="#191970" points="2360.6327,-70.426 2370.9171,-67.8801 2361.2897,-63.4569 2360.6327,-70.426"/>
</g>
<!-- Node91&#45;&gt;Node92 -->
<g id="edge37" class="edge">
<title>Node91&#45;&gt;Node92</title>
<path fill="none" stroke="#191970" d="M2569.4342,-133.9633C2835.0747,-105.9409 3136.453,-91.6238 3283.9307,-85.7584"/>
<polygon fill="#191970" stroke="#191970" points="2568.7788,-130.5132 2559.205,-135.0511 2569.5191,-137.474 2568.7788,-130.5132"/>
</g>
<!-- Node93&#45;&gt;Node92 -->
<g id="edge39" class="edge">
<title>Node93&#45;&gt;Node92</title>
<path fill="none" stroke="#191970" d="M2768.359,-133.9508C2957.7377,-111.5573 3167.061,-96.0482 3283.8027,-88.2304"/>
<polygon fill="#191970" stroke="#191970" points="2767.729,-130.501 2758.2133,-135.1595 2768.5571,-137.4519 2767.729,-130.501"/>
</g>
<!-- Node95&#45;&gt;Node92 -->
<g id="edge42" class="edge">
<title>Node95&#45;&gt;Node92</title>
<path fill="none" stroke="#191970" d="M2976.9125,-133.9579C3088.9931,-118.4954 3205.5989,-103.5904 3283.9435,-93.7496"/>
<polygon fill="#191970" stroke="#191970" points="2976.2042,-130.5224 2966.7779,-135.3593 2977.1631,-137.4565 2976.2042,-130.5224"/>
</g>
<!-- Node96&#45;&gt;Node92 -->
<g id="edge44" class="edge">
<title>Node96&#45;&gt;Node92</title>
<path fill="none" stroke="#191970" d="M3152.6129,-132.2205C3200.5063,-121.4886 3261.4644,-107.8291 3307.3644,-97.5438"/>
<polygon fill="#191970" stroke="#191970" points="3151.5941,-128.8619 3142.6014,-134.4639 3153.1248,-135.6925 3151.5941,-128.8619"/>
</g>
<!-- Node97&#45;&gt;Node92 -->
<g id="edge46" class="edge">
<title>Node97&#45;&gt;Node92</title>
<path fill="none" stroke="#191970" d="M3305.6513,-128.6286C3320.6225,-118.5979 3338.2349,-106.7976 3351.8983,-97.6432"/>
<polygon fill="#191970" stroke="#191970" points="3303.5511,-125.8228 3297.1915,-134.2967 3307.4474,-131.6382 3303.5511,-125.8228"/>
</g>
<!-- Node98&#45;&gt;Node92 -->
<g id="edge48" class="edge">
<title>Node98&#45;&gt;Node92</title>
<path fill="none" stroke="#191970" d="M3442.6602,-128.6286C3427.8387,-118.5979 3410.4025,-106.7976 3396.8757,-97.6432"/>
<polygon fill="#191970" stroke="#191970" points="3440.792,-131.5904 3451.0354,-134.2967 3444.7153,-125.7932 3440.792,-131.5904"/>
</g>
<!-- Node99&#45;&gt;Node92 -->
<g id="edge50" class="edge">
<title>Node99&#45;&gt;Node92</title>
<path fill="none" stroke="#191970" d="M3595.645,-132.2205C3547.9118,-121.4886 3487.1576,-107.8291 3441.4111,-97.5438"/>
<polygon fill="#191970" stroke="#191970" points="3595.0988,-135.685 3605.623,-134.4639 3596.6343,-128.8555 3595.0988,-135.685"/>
</g>
<!-- Node100&#45;&gt;Node92 -->
<g id="edge52" class="edge">
<title>Node100&#45;&gt;Node92</title>
<path fill="none" stroke="#191970" d="M3969.8095,-133.842C3784.894,-112.7412 3580.2081,-96.8969 3465.1848,-88.6841"/>
<polygon fill="#191970" stroke="#191970" points="3969.6613,-137.3479 3979.9954,-135.012 3970.4602,-130.3937 3969.6613,-137.3479"/>
</g>
<!-- Node101&#45;&gt;Node92 -->
<g id="edge54" class="edge">
<title>Node101&#45;&gt;Node92</title>
<path fill="none" stroke="#191970" d="M4184.6278,-133.8541C3917.6618,-104.9946 3613.5344,-91.0847 3465.1555,-85.5274"/>
<polygon fill="#191970" stroke="#191970" points="4184.5869,-137.3703 4194.9073,-134.9748 4185.3456,-130.4115 4184.5869,-137.3703"/>
</g>
<!-- Node103&#45;&gt;Node85 -->
<g id="edge59" class="edge">
<title>Node103&#45;&gt;Node85</title>
<path fill="none" stroke="#191970" d="M1879.6643,-196.8409C1881.4487,-186.0601 1883.4728,-173.8309 1885.0168,-164.5028"/>
<polygon fill="#191970" stroke="#191970" points="1876.1664,-196.5406 1877.9864,-206.978 1883.0725,-197.6837 1876.1664,-196.5406"/>
</g>
</g>
</svg>
