<?xml version="1.0" encoding="UTF-8" standalone="no"?>
<!DOCTYPE svg PUBLIC "-//W3C//DTD SVG 1.1//EN"
 "http://www.w3.org/Graphics/SVG/1.1/DTD/svg11.dtd">
<!-- Generated by graphviz version 2.40.1 (0)
 -->
<!-- Title: math/minuit2/inc/Minuit2/FCNGradientBase.h Pages: 1 -->
<!--zoomable 173 -->
<svg id="main" version="1.1" xmlns="http://www.w3.org/2000/svg" xmlns:xlink="http://www.w3.org/1999/xlink" xml:space="preserve" onload="init(evt)">
<style type="text/css"><![CDATA[
.edge:hover path { stroke: red; }
.edge:hover polygon { stroke: red; fill: red; }
]]></style>
<script type="text/javascript"><![CDATA[
var edges = document.getElementsByTagName('g');
if (edges && edges.length) {
  for (var i=0;i<edges.length;i++) {
    if (edges[i].id.substr(0,4)=='edge') {
      edges[i].setAttribute('class','edge');
    }
  }
}
]]></script>
        <defs>
                <circle id="rim" cx="0" cy="0" r="7"/>
                <circle id="rim2" cx="0" cy="0" r="3.5"/>
                <g id="zoomPlus">
                        <use xlink:href="#rim" fill="#404040">
                                <set attributeName="fill" to="#808080" begin="zoomplus.mouseover" end="zoomplus.mouseout"/>
                        </use>
                        <path d="M-4,0h8M0,-4v8" fill="none" stroke="white" stroke-width="1.5" pointer-events="none"/>
                </g>
                <g id="zoomMin">
                        <use xlink:href="#rim" fill="#404040">
                                <set attributeName="fill" to="#808080" begin="zoomminus.mouseover" end="zoomminus.mouseout"/>
                        </use>
                        <path d="M-4,0h8" fill="none" stroke="white" stroke-width="1.5" pointer-events="none"/>
                </g>
                <g id="dirArrow">
                        <path fill="none" stroke="white" stroke-width="1.5" d="M0,-3.0v7 M-2.5,-0.5L0,-3.0L2.5,-0.5"/>
                </g>
               <g id="resetDef">
                       <use xlink:href="#rim2" fill="#404040">
                               <set attributeName="fill" to="#808080" begin="reset.mouseover" end="reset.mouseout"/>
                       </use>
               </g>
        </defs>

<script type="text/javascript">
var viewWidth = 906;
var viewHeight = 173;
var sectionId = 'dynsection-1';
</script>
<script xlink:href="svgpan.js"/>
<svg id="graph" class="graph">
<g id="viewport">
<title>math/minuit2/inc/Minuit2/FCNGradientBase.h</title>
<polygon fill="#ffffff" stroke="transparent" points="-4,4 -4,-169 901.5,-169 901.5,4 -4,4"/>
<!-- Node5 -->
<g id="node1" class="node">
<title>Node5</title>
<polygon fill="#bfbfbf" stroke="#000000" points="358,-134.5 358,-164.5 497,-164.5 497,-134.5 358,-134.5"/>
<text text-anchor="start" x="366" y="-152.5" font-family="Helvetica,sans-Serif" font-size="10.00" fill="#000000">math/minuit2/inc/Minuit2</text>
<text text-anchor="middle" x="427.5" y="-141.5" font-family="Helvetica,sans-Serif" font-size="10.00" fill="#000000">/FCNGradientBase.h</text>
</g>
<!-- Node6 -->
<g id="node2" class="node">
<title>Node6</title>
<g id="a_node2"><a xlink:href="FCNGradAdapter_8h.html" target="_top" xlink:title="math/minuit2/inc/Minuit2\l/FCNGradAdapter.h">
<polygon fill="#ffffff" stroke="#000000" points="0,-67.5 0,-97.5 139,-97.5 139,-67.5 0,-67.5"/>
<text text-anchor="start" x="8" y="-85.5" font-family="Helvetica,sans-Serif" font-size="10.00" fill="#000000">math/minuit2/inc/Minuit2</text>
<text text-anchor="middle" x="69.5" y="-74.5" font-family="Helvetica,sans-Serif" font-size="10.00" fill="#000000">/FCNGradAdapter.h</text>
</a>
</g>
</g>
<!-- Node5&#45;&gt;Node6 -->
<g id="edge1" class="edge">
<title>Node5&#45;&gt;Node6</title>
<path fill="none" stroke="#191970" d="M347.6278,-135.002C291.8151,-124.811 215.5746,-110.7703 148.5,-98 145.4794,-97.4249 142.3945,-96.8342 139.2787,-96.2348"/>
<polygon fill="#191970" stroke="#191970" points="347.3389,-138.507 357.8047,-136.8589 348.5954,-131.6207 347.3389,-138.507"/>
</g>
<!-- Node8 -->
<g id="node4" class="node">
<title>Node8</title>
<g id="a_node4"><a xlink:href="AnalyticalGradientCalculator_8cxx.html" target="_top" xlink:title="math/minuit2/src/Analytical\lGradientCalculator.cxx">
<polygon fill="#ffffff" stroke="#000000" points="157.5,-67.5 157.5,-97.5 309.5,-97.5 309.5,-67.5 157.5,-67.5"/>
<text text-anchor="start" x="165.5" y="-85.5" font-family="Helvetica,sans-Serif" font-size="10.00" fill="#000000">math/minuit2/src/Analytical</text>
<text text-anchor="middle" x="233.5" y="-74.5" font-family="Helvetica,sans-Serif" font-size="10.00" fill="#000000">GradientCalculator.cxx</text>
</a>
</g>
</g>
<!-- Node5&#45;&gt;Node8 -->
<g id="edge3" class="edge">
<title>Node5&#45;&gt;Node8</title>
<path fill="none" stroke="#191970" d="M374.336,-131.1392C343.8291,-120.6033 305.9966,-107.5375 277.2273,-97.6017"/>
<polygon fill="#191970" stroke="#191970" points="373.3679,-134.5077 383.9626,-134.4639 375.653,-127.8912 373.3679,-134.5077"/>
</g>
<!-- Node9 -->
<g id="node5" class="node">
<title>Node9</title>
<g id="a_node5"><a xlink:href="FumiliMinimizer_8cxx.html" target="_top" xlink:title="math/minuit2/src/FumiliMinimizer.cxx">
<polygon fill="#ffffff" stroke="#000000" points="327.5,-73 327.5,-92 527.5,-92 527.5,-73 327.5,-73"/>
<text text-anchor="middle" x="427.5" y="-80" font-family="Helvetica,sans-Serif" font-size="10.00" fill="#000000">math/minuit2/src/FumiliMinimizer.cxx</text>
</a>
</g>
</g>
<!-- Node5&#45;&gt;Node9 -->
<g id="edge4" class="edge">
<title>Node5&#45;&gt;Node9</title>
<path fill="none" stroke="#191970" d="M427.5,-124.1199C427.5,-112.9072 427.5,-100.4031 427.5,-92.055"/>
<polygon fill="#191970" stroke="#191970" points="424.0001,-124.2966 427.5,-134.2967 431.0001,-124.2967 424.0001,-124.2966"/>
</g>
<!-- Node10 -->
<g id="node6" class="node">
<title>Node10</title>
<g id="a_node6"><a xlink:href="MnApplication_8cxx.html" target="_top" xlink:title="math/minuit2/src/MnApplication.cxx">
<polygon fill="#ffffff" stroke="#000000" points="545.5,-73 545.5,-92 737.5,-92 737.5,-73 545.5,-73"/>
<text text-anchor="middle" x="641.5" y="-80" font-family="Helvetica,sans-Serif" font-size="10.00" fill="#000000">math/minuit2/src/MnApplication.cxx</text>
</a>
</g>
</g>
<!-- Node5&#45;&gt;Node10 -->
<g id="edge5" class="edge">
<title>Node5&#45;&gt;Node10</title>
<path fill="none" stroke="#191970" d="M485.2978,-131.4044C525.8711,-118.7016 578.5103,-102.2211 611.1398,-92.0053"/>
<polygon fill="#191970" stroke="#191970" points="484.0232,-128.1359 475.5258,-134.4639 486.1148,-134.8161 484.0232,-128.1359"/>
</g>
<!-- Node11 -->
<g id="node7" class="node">
<title>Node11</title>
<g id="a_node7"><a xlink:href="ModularFunctionMinimizer_8cxx.html" target="_top" xlink:title="math/minuit2/src/Modular\lFunctionMinimizer.cxx">
<polygon fill="#ffffff" stroke="#000000" points="755.5,-67.5 755.5,-97.5 897.5,-97.5 897.5,-67.5 755.5,-67.5"/>
<text text-anchor="start" x="763.5" y="-85.5" font-family="Helvetica,sans-Serif" font-size="10.00" fill="#000000">math/minuit2/src/Modular</text>
<text text-anchor="middle" x="826.5" y="-74.5" font-family="Helvetica,sans-Serif" font-size="10.00" fill="#000000">FunctionMinimizer.cxx</text>
</a>
</g>
</g>
<!-- Node5&#45;&gt;Node11 -->
<g id="edge6" class="edge">
<title>Node5&#45;&gt;Node11</title>
<path fill="none" stroke="#191970" d="M507.4175,-137.3083C572.0105,-127.2834 665.2331,-112.429 746.5,-98 749.4252,-97.4806 752.4087,-96.9422 755.4215,-96.3913"/>
<polygon fill="#191970" stroke="#191970" points="506.6492,-133.8855 497.3028,-138.8749 507.7207,-140.803 506.6492,-133.8855"/>
</g>
<!-- Node7 -->
<g id="node3" class="node">
<title>Node7</title>
<g id="a_node3"><a xlink:href="Minuit2Minimizer_8cxx.html" target="_top" xlink:title="math/minuit2/src/Minuit2\lMinimizer.cxx">
<polygon fill="#ffffff" stroke="#000000" points="0,-.5 0,-30.5 139,-30.5 139,-.5 0,-.5"/>
<text text-anchor="start" x="8" y="-18.5" font-family="Helvetica,sans-Serif" font-size="10.00" fill="#000000">math/minuit2/src/Minuit2</text>
<text text-anchor="middle" x="69.5" y="-7.5" font-family="Helvetica,sans-Serif" font-size="10.00" fill="#000000">Minimizer.cxx</text>
</a>
</g>
</g>
<!-- Node6&#45;&gt;Node7 -->
<g id="edge2" class="edge">
<title>Node6&#45;&gt;Node7</title>
<path fill="none" stroke="#191970" d="M69.5,-57.0249C69.5,-48.128 69.5,-38.4287 69.5,-30.6432"/>
<polygon fill="#191970" stroke="#191970" points="66.0001,-57.2966 69.5,-67.2967 73.0001,-57.2967 66.0001,-57.2966"/>
</g>
</g>
</svg>
        <g id="navigator" transform="translate(0 0)" fill="#404254">
                <rect fill="#f2f5e9" fill-opacity="0.5" stroke="#606060" stroke-width=".5" x="0" y="0" width="60" height="60"/>
                <use id="zoomplus" xlink:href="#zoomPlus" x="17" y="9" onmousedown="handleZoom(evt,'in')"/>
                <use id="zoomminus" xlink:href="#zoomMin" x="42" y="9" onmousedown="handleZoom(evt,'out')"/>
                <use id="reset" xlink:href="#resetDef" x="30" y="36" onmousedown="handleReset()"/>
                <g id="arrowUp" xlink:href="#dirArrow" transform="translate(30 24)" onmousedown="handlePan(0,-1)">
                  <use xlink:href="#rim" fill="#404040">
                        <set attributeName="fill" to="#808080" begin="arrowUp.mouseover" end="arrowUp.mouseout"/>
                  </use>
                  <path fill="none" stroke="white" stroke-width="1.5" d="M0,-3.0v7 M-2.5,-0.5L0,-3.0L2.5,-0.5"/>
                </g>
                <g id="arrowRight" xlink:href="#dirArrow" transform="rotate(90) translate(36 -43)" onmousedown="handlePan(1,0)">
                  <use xlink:href="#rim" fill="#404040">
                        <set attributeName="fill" to="#808080" begin="arrowRight.mouseover" end="arrowRight.mouseout"/>
                  </use>
                  <path fill="none" stroke="white" stroke-width="1.5" d="M0,-3.0v7 M-2.5,-0.5L0,-3.0L2.5,-0.5"/>
                </g>
                <g id="arrowDown" xlink:href="#dirArrow" transform="rotate(180) translate(-30 -48)" onmousedown="handlePan(0,1)">
                  <use xlink:href="#rim" fill="#404040">
                        <set attributeName="fill" to="#808080" begin="arrowDown.mouseover" end="arrowDown.mouseout"/>
                  </use>
                  <path fill="none" stroke="white" stroke-width="1.5" d="M0,-3.0v7 M-2.5,-0.5L0,-3.0L2.5,-0.5"/>
                </g>
                <g id="arrowLeft" xlink:href="#dirArrow" transform="rotate(270) translate(-36 17)" onmousedown="handlePan(-1,0)">
                  <use xlink:href="#rim" fill="#404040">
                        <set attributeName="fill" to="#808080" begin="arrowLeft.mouseover" end="arrowLeft.mouseout"/>
                  </use>
                  <path fill="none" stroke="white" stroke-width="1.5" d="M0,-3.0v7 M-2.5,-0.5L0,-3.0L2.5,-0.5"/>
                </g>
        </g>
        <svg viewBox="0 0 15 15" width="100%" height="30px" preserveAspectRatio="xMaxYMin meet">
         <g id="arrow_out" transform="scale(0.3 0.3)">
          <a xlink:href="FCNGradientBase_8h__dep__incl_org.svg" target="_base">
           <rect id="button" ry="5" rx="5" y="6" x="6" height="38" width="38"
                fill="#f2f5e9" fill-opacity="0.5" stroke="#606060" stroke-width="1.0"/>
           <path id="arrow"
             d="M 11.500037,31.436501 C 11.940474,20.09759 22.043105,11.32322 32.158766,21.979434 L 37.068811,17.246167 C 37.068811,17.246167 37.088388,32 37.088388,32 L 22.160133,31.978069 C 22.160133,31.978069 26.997745,27.140456 26.997745,27.140456 C 18.528582,18.264221 13.291696,25.230495 11.500037,31.436501 z"
             style="fill:#404040;"/>
          </a>
         </g>
        </svg>
</svg>
