<?xml version="1.0" encoding="UTF-8" standalone="no"?>
<!DOCTYPE svg PUBLIC "-//W3C//DTD SVG 1.1//EN"
 "http://www.w3.org/Graphics/SVG/1.1/DTD/svg11.dtd">
<!-- Generated by graphviz version 2.40.1 (0)
 -->
<!-- Title: math/minuit2/inc/Minuit2/FumiliStandardChi2FCN.h Pages: 1 -->
<!--zoomable 319 -->
<svg id="main" version="1.1" xmlns="http://www.w3.org/2000/svg" xmlns:xlink="http://www.w3.org/1999/xlink" xml:space="preserve" onload="init(evt)">
<style type="text/css"><![CDATA[
.edge:hover path { stroke: red; }
.edge:hover polygon { stroke: red; fill: red; }
]]></style>
<script type="text/javascript"><![CDATA[
var edges = document.getElementsByTagName('g');
if (edges && edges.length) {
  for (var i=0;i<edges.length;i++) {
    if (edges[i].id.substr(0,4)=='edge') {
      edges[i].setAttribute('class','edge');
    }
  }
}
]]></script>
        <defs>
                <circle id="rim" cx="0" cy="0" r="7"/>
                <circle id="rim2" cx="0" cy="0" r="3.5"/>
                <g id="zoomPlus">
                        <use xlink:href="#rim" fill="#404040">
                                <set attributeName="fill" to="#808080" begin="zoomplus.mouseover" end="zoomplus.mouseout"/>
                        </use>
                        <path d="M-4,0h8M0,-4v8" fill="none" stroke="white" stroke-width="1.5" pointer-events="none"/>
                </g>
                <g id="zoomMin">
                        <use xlink:href="#rim" fill="#404040">
                                <set attributeName="fill" to="#808080" begin="zoomminus.mouseover" end="zoomminus.mouseout"/>
                        </use>
                        <path d="M-4,0h8" fill="none" stroke="white" stroke-width="1.5" pointer-events="none"/>
                </g>
                <g id="dirArrow">
                        <path fill="none" stroke="white" stroke-width="1.5" d="M0,-3.0v7 M-2.5,-0.5L0,-3.0L2.5,-0.5"/>
                </g>
               <g id="resetDef">
                       <use xlink:href="#rim2" fill="#404040">
                               <set attributeName="fill" to="#808080" begin="reset.mouseover" end="reset.mouseout"/>
                       </use>
               </g>
        </defs>

<script type="text/javascript">
var viewWidth = 549;
var viewHeight = 319;
var sectionId = 'dynsection-0';
</script>
<script xlink:href="svgpan.js"/>
<svg id="graph" class="graph">
<g id="viewport">
<title>math/minuit2/inc/Minuit2/FumiliStandardChi2FCN.h</title>
<polygon fill="#ffffff" stroke="transparent" points="-4,4 -4,-315 544.5,-315 544.5,4 -4,4"/>
<!-- Node0 -->
<g id="node1" class="node">
<title>Node0</title>
<polygon fill="#bfbfbf" stroke="#000000" points="319.5,-280.5 319.5,-310.5 462.5,-310.5 462.5,-280.5 319.5,-280.5"/>
<text text-anchor="start" x="327.5" y="-298.5" font-family="Helvetica,sans-Serif" font-size="10.00" fill="#000000">math/minuit2/inc/Minuit2</text>
<text text-anchor="middle" x="391" y="-287.5" font-family="Helvetica,sans-Serif" font-size="10.00" fill="#000000">/FumiliStandardChi2FCN.h</text>
</g>
<!-- Node1 -->
<g id="node2" class="node">
<title>Node1</title>
<g id="a_node2"><a xlink:href="FumiliChi2FCN_8h.html" target="_top" xlink:title="Minuit2/FumiliChi2FCN.h">
<polygon fill="#ffffff" stroke="#000000" points="218.5,-224.5 218.5,-243.5 353.5,-243.5 353.5,-224.5 218.5,-224.5"/>
<text text-anchor="middle" x="286" y="-231.5" font-family="Helvetica,sans-Serif" font-size="10.00" fill="#000000">Minuit2/FumiliChi2FCN.h</text>
</a>
</g>
</g>
<!-- Node0&#45;&gt;Node1 -->
<g id="edge1" class="edge">
<title>Node0&#45;&gt;Node1</title>
<path fill="none" stroke="#191970" d="M365.3141,-280.4554C348.8703,-270.8241 327.6292,-258.3828 311.2677,-248.7996"/>
<polygon fill="#191970" stroke="#191970" points="312.669,-245.5643 302.2713,-243.5303 309.1312,-251.6045 312.669,-245.5643"/>
</g>
<!-- Node5 -->
<g id="node6" class="node">
<title>Node5</title>
<polygon fill="#ffffff" stroke="#bfbfbf" points="269.5,-.5 269.5,-19.5 316.5,-19.5 316.5,-.5 269.5,-.5"/>
<text text-anchor="middle" x="293" y="-7.5" font-family="Helvetica,sans-Serif" font-size="10.00" fill="#000000">vector</text>
</g>
<!-- Node0&#45;&gt;Node5 -->
<g id="edge18" class="edge">
<title>Node0&#45;&gt;Node5</title>
<path fill="none" stroke="#191970" d="M391,-280.2899C391,-257.892 391,-214.7188 391,-178 391,-178 391,-178 391,-122 391,-78.4482 348.5118,-43.6916 319.4879,-25.0299"/>
<polygon fill="#191970" stroke="#191970" points="321.3203,-22.0479 310.9747,-19.7631 317.6374,-28.0008 321.3203,-22.0479"/>
</g>
<!-- Node8 -->
<g id="node9" class="node">
<title>Node8</title>
<g id="a_node9"><a xlink:href="ParametricFunction_8h.html" target="_top" xlink:title="Minuit2/ParametricFunction.h">
<polygon fill="#ffffff" stroke="#000000" points="51,-168.5 51,-187.5 209,-187.5 209,-168.5 51,-168.5"/>
<text text-anchor="middle" x="130" y="-175.5" font-family="Helvetica,sans-Serif" font-size="10.00" fill="#000000">Minuit2/ParametricFunction.h</text>
</a>
</g>
</g>
<!-- Node0&#45;&gt;Node8 -->
<g id="edge16" class="edge">
<title>Node0&#45;&gt;Node8</title>
<path fill="none" stroke="#191970" d="M319.2338,-282.2591C284.9066,-274.1593 243.9879,-261.846 210,-244 185.2932,-231.0272 161.1803,-209.5718 145.9977,-194.6595"/>
<polygon fill="#191970" stroke="#191970" points="148.4491,-192.161 138.9163,-187.5373 143.4851,-197.0965 148.4491,-192.161"/>
</g>
<!-- Node9 -->
<g id="node10" class="node">
<title>Node9</title>
<polygon fill="#ffffff" stroke="#bfbfbf" points="419,-224.5 419,-243.5 475,-243.5 475,-224.5 419,-224.5"/>
<text text-anchor="middle" x="447" y="-231.5" font-family="Helvetica,sans-Serif" font-size="10.00" fill="#000000">assert.h</text>
</g>
<!-- Node0&#45;&gt;Node9 -->
<g id="edge17" class="edge">
<title>Node0&#45;&gt;Node9</title>
<path fill="none" stroke="#191970" d="M404.8427,-280.2977C412.859,-271.4941 422.9762,-260.3833 431.29,-251.2529"/>
<polygon fill="#191970" stroke="#191970" points="433.8888,-253.5974 438.0337,-243.8469 428.7131,-248.8845 433.8888,-253.5974"/>
</g>
<!-- Node10 -->
<g id="node11" class="node">
<title>Node10</title>
<polygon fill="#ffffff" stroke="#bfbfbf" points="493.5,-224.5 493.5,-243.5 540.5,-243.5 540.5,-224.5 493.5,-224.5"/>
<text text-anchor="middle" x="517" y="-231.5" font-family="Helvetica,sans-Serif" font-size="10.00" fill="#000000">cmath</text>
</g>
<!-- Node0&#45;&gt;Node10 -->
<g id="edge19" class="edge">
<title>Node0&#45;&gt;Node10</title>
<path fill="none" stroke="#191970" d="M421.8231,-280.4554C442.1088,-270.554 468.4788,-257.683 488.3162,-248.0004"/>
<polygon fill="#191970" stroke="#191970" points="490.023,-251.062 497.4745,-243.5303 486.9526,-244.7714 490.023,-251.062"/>
</g>
<!-- Node2 -->
<g id="node3" class="node">
<title>Node2</title>
<g id="a_node3"><a xlink:href="FumiliFCNBase_8h.html" target="_top" xlink:title="FumiliFCNBase.h">
<polygon fill="#ffffff" stroke="#000000" points="227,-168.5 227,-187.5 325,-187.5 325,-168.5 227,-168.5"/>
<text text-anchor="middle" x="276" y="-175.5" font-family="Helvetica,sans-Serif" font-size="10.00" fill="#000000">FumiliFCNBase.h</text>
</a>
</g>
</g>
<!-- Node1&#45;&gt;Node2 -->
<g id="edge2" class="edge">
<title>Node1&#45;&gt;Node2</title>
<path fill="none" stroke="#191970" d="M284.2581,-224.2455C282.9533,-216.9382 281.124,-206.6944 279.5187,-197.7046"/>
<polygon fill="#191970" stroke="#191970" points="282.9254,-196.8717 277.7219,-187.6427 276.0344,-198.1022 282.9254,-196.8717"/>
</g>
<!-- Node1&#45;&gt;Node5 -->
<g id="edge10" class="edge">
<title>Node1&#45;&gt;Node5</title>
<path fill="none" stroke="#191970" d="M301.3074,-224.4046C312.7037,-216.2816 327.3859,-203.4994 334,-188 357.6762,-132.5172 323.5294,-61.2083 304.4187,-28.2267"/>
<polygon fill="#191970" stroke="#191970" points="307.4111,-26.4112 299.2689,-19.6321 301.4065,-30.0091 307.4111,-26.4112"/>
</g>
<!-- Node1&#45;&gt;Node8 -->
<g id="edge11" class="edge">
<title>Node1&#45;&gt;Node8</title>
<path fill="none" stroke="#191970" d="M259.1826,-224.3733C233.4668,-215.1419 194.462,-201.1402 166.0401,-190.9375"/>
<polygon fill="#191970" stroke="#191970" points="167.0619,-187.5857 156.4674,-187.5011 164.6968,-194.174 167.0619,-187.5857"/>
</g>
<!-- Node3 -->
<g id="node4" class="node">
<title>Node3</title>
<g id="a_node4"><a xlink:href="FCNBase_8h.html" target="_top" xlink:title="Minuit2/FCNBase.h">
<polygon fill="#ffffff" stroke="#000000" points="217,-112.5 217,-131.5 325,-131.5 325,-112.5 217,-112.5"/>
<text text-anchor="middle" x="271" y="-119.5" font-family="Helvetica,sans-Serif" font-size="10.00" fill="#000000">Minuit2/FCNBase.h</text>
</a>
</g>
</g>
<!-- Node2&#45;&gt;Node3 -->
<g id="edge3" class="edge">
<title>Node2&#45;&gt;Node3</title>
<path fill="none" stroke="#191970" d="M275.1291,-168.2455C274.4766,-160.9382 273.562,-150.6944 272.7593,-141.7046"/>
<polygon fill="#191970" stroke="#191970" points="276.2365,-141.2918 271.861,-131.6427 269.2642,-141.9143 276.2365,-141.2918"/>
</g>
<!-- Node7 -->
<g id="node8" class="node">
<title>Node7</title>
<polygon fill="#ffffff" stroke="#bfbfbf" points="147,-112.5 147,-131.5 199,-131.5 199,-112.5 147,-112.5"/>
<text text-anchor="middle" x="173" y="-119.5" font-family="Helvetica,sans-Serif" font-size="10.00" fill="#000000">cassert</text>
</g>
<!-- Node2&#45;&gt;Node7 -->
<g id="edge9" class="edge">
<title>Node2&#45;&gt;Node7</title>
<path fill="none" stroke="#191970" d="M258.0588,-168.2455C241.96,-159.4928 218.1121,-146.527 199.7609,-136.5496"/>
<polygon fill="#191970" stroke="#191970" points="201.1929,-133.3444 190.7356,-131.6427 197.8493,-139.4942 201.1929,-133.3444"/>
</g>
<!-- Node4 -->
<g id="node5" class="node">
<title>Node4</title>
<g id="a_node5"><a xlink:href="MnConfig_8h.html" target="_top" xlink:title="Minuit2/MnConfig.h">
<polygon fill="#ffffff" stroke="#000000" points="0,-.5 0,-19.5 110,-19.5 110,-.5 0,-.5"/>
<text text-anchor="middle" x="55" y="-7.5" font-family="Helvetica,sans-Serif" font-size="10.00" fill="#000000">Minuit2/MnConfig.h</text>
</a>
</g>
</g>
<!-- Node3&#45;&gt;Node4 -->
<g id="edge4" class="edge">
<title>Node3&#45;&gt;Node4</title>
<path fill="none" stroke="#191970" d="M218.0003,-112.4781C163.3039,-102.2047 84.5017,-85.9802 74,-76 61.4647,-64.0871 57.0345,-44.4892 55.5491,-29.7374"/>
<polygon fill="#191970" stroke="#191970" points="59.0325,-29.365 54.9017,-19.6087 52.0468,-29.8116 59.0325,-29.365"/>
</g>
<!-- Node3&#45;&gt;Node5 -->
<g id="edge5" class="edge">
<title>Node3&#45;&gt;Node5</title>
<path fill="none" stroke="#191970" d="M272.8757,-112.4509C276.4801,-94.1013 284.4375,-53.5908 289.1953,-29.3693"/>
<polygon fill="#191970" stroke="#191970" points="292.6359,-30.012 291.129,-19.5249 285.7671,-28.6627 292.6359,-30.012"/>
</g>
<!-- Node6 -->
<g id="node7" class="node">
<title>Node6</title>
<g id="a_node7"><a xlink:href="GenericFunction_8h.html" target="_top" xlink:title="Minuit2/GenericFunction.h">
<polygon fill="#ffffff" stroke="#000000" points="83.5,-56.5 83.5,-75.5 226.5,-75.5 226.5,-56.5 83.5,-56.5"/>
<text text-anchor="middle" x="155" y="-63.5" font-family="Helvetica,sans-Serif" font-size="10.00" fill="#000000">Minuit2/GenericFunction.h</text>
</a>
</g>
</g>
<!-- Node3&#45;&gt;Node6 -->
<g id="edge6" class="edge">
<title>Node3&#45;&gt;Node6</title>
<path fill="none" stroke="#191970" d="M251.0589,-112.3733C232.5214,-103.4241 204.6972,-89.9917 183.7587,-79.8835"/>
<polygon fill="#191970" stroke="#191970" points="185.2081,-76.6967 174.6809,-75.5011 182.1648,-83.0006 185.2081,-76.6967"/>
</g>
<!-- Node6&#45;&gt;Node4 -->
<g id="edge7" class="edge">
<title>Node6&#45;&gt;Node4</title>
<path fill="none" stroke="#191970" d="M137.5813,-56.2455C121.9515,-47.4928 98.7981,-34.527 80.9815,-24.5496"/>
<polygon fill="#191970" stroke="#191970" points="82.6543,-21.475 72.2191,-19.6427 79.234,-27.5825 82.6543,-21.475"/>
</g>
<!-- Node6&#45;&gt;Node5 -->
<g id="edge8" class="edge">
<title>Node6&#45;&gt;Node5</title>
<path fill="none" stroke="#191970" d="M178.723,-56.3733C201.1737,-47.2629 235.0739,-33.5062 260.1255,-23.3404"/>
<polygon fill="#191970" stroke="#191970" points="261.6365,-26.5045 269.5865,-19.5011 259.0043,-20.0182 261.6365,-26.5045"/>
</g>
<!-- Node8&#45;&gt;Node3 -->
<g id="edge15" class="edge">
<title>Node8&#45;&gt;Node3</title>
<path fill="none" stroke="#191970" d="M154.2388,-168.3733C177.2789,-159.2226 212.1214,-145.3844 237.7501,-135.2057"/>
<polygon fill="#191970" stroke="#191970" points="239.0756,-138.4452 247.0775,-131.5011 236.4918,-131.9395 239.0756,-138.4452"/>
</g>
<!-- Node8&#45;&gt;Node4 -->
<g id="edge12" class="edge">
<title>Node8&#45;&gt;Node4</title>
<path fill="none" stroke="#191970" d="M120.4499,-168.3436C104.3614,-151.3653 72.3094,-114.3172 59,-76 53.8209,-61.0897 53.0514,-43.1563 53.4486,-29.7486"/>
<polygon fill="#191970" stroke="#191970" points="56.946,-29.8891 53.9856,-19.7163 49.956,-29.5149 56.946,-29.8891"/>
</g>
<!-- Node8&#45;&gt;Node5 -->
<g id="edge13" class="edge">
<title>Node8&#45;&gt;Node5</title>
<path fill="none" stroke="#191970" d="M128.2867,-168.3099C126.3876,-154.3008 125.1035,-128.2887 138,-112 166.8032,-75.6206 197.8412,-102.4006 236,-76 254.5592,-63.1596 270.8308,-42.8956 281.1865,-28.2066"/>
<polygon fill="#191970" stroke="#191970" points="284.108,-30.1345 286.8374,-19.8972 278.3197,-26.198 284.108,-30.1345"/>
</g>
<!-- Node8&#45;&gt;Node7 -->
<g id="edge14" class="edge">
<title>Node8&#45;&gt;Node7</title>
<path fill="none" stroke="#191970" d="M137.49,-168.2455C143.5326,-160.3761 152.1903,-149.101 159.4441,-139.6542"/>
<polygon fill="#191970" stroke="#191970" points="162.2815,-141.7058 165.5958,-131.6427 156.7295,-137.4426 162.2815,-141.7058"/>
</g>
</g>
</svg>
        <g id="navigator" transform="translate(0 0)" fill="#404254">
                <rect fill="#f2f5e9" fill-opacity="0.5" stroke="#606060" stroke-width=".5" x="0" y="0" width="60" height="60"/>
                <use id="zoomplus" xlink:href="#zoomPlus" x="17" y="9" onmousedown="handleZoom(evt,'in')"/>
                <use id="zoomminus" xlink:href="#zoomMin" x="42" y="9" onmousedown="handleZoom(evt,'out')"/>
                <use id="reset" xlink:href="#resetDef" x="30" y="36" onmousedown="handleReset()"/>
                <g id="arrowUp" xlink:href="#dirArrow" transform="translate(30 24)" onmousedown="handlePan(0,-1)">
                  <use xlink:href="#rim" fill="#404040">
                        <set attributeName="fill" to="#808080" begin="arrowUp.mouseover" end="arrowUp.mouseout"/>
                  </use>
                  <path fill="none" stroke="white" stroke-width="1.5" d="M0,-3.0v7 M-2.5,-0.5L0,-3.0L2.5,-0.5"/>
                </g>
                <g id="arrowRight" xlink:href="#dirArrow" transform="rotate(90) translate(36 -43)" onmousedown="handlePan(1,0)">
                  <use xlink:href="#rim" fill="#404040">
                        <set attributeName="fill" to="#808080" begin="arrowRight.mouseover" end="arrowRight.mouseout"/>
                  </use>
                  <path fill="none" stroke="white" stroke-width="1.5" d="M0,-3.0v7 M-2.5,-0.5L0,-3.0L2.5,-0.5"/>
                </g>
                <g id="arrowDown" xlink:href="#dirArrow" transform="rotate(180) translate(-30 -48)" onmousedown="handlePan(0,1)">
                  <use xlink:href="#rim" fill="#404040">
                        <set attributeName="fill" to="#808080" begin="arrowDown.mouseover" end="arrowDown.mouseout"/>
                  </use>
                  <path fill="none" stroke="white" stroke-width="1.5" d="M0,-3.0v7 M-2.5,-0.5L0,-3.0L2.5,-0.5"/>
                </g>
                <g id="arrowLeft" xlink:href="#dirArrow" transform="rotate(270) translate(-36 17)" onmousedown="handlePan(-1,0)">
                  <use xlink:href="#rim" fill="#404040">
                        <set attributeName="fill" to="#808080" begin="arrowLeft.mouseover" end="arrowLeft.mouseout"/>
                  </use>
                  <path fill="none" stroke="white" stroke-width="1.5" d="M0,-3.0v7 M-2.5,-0.5L0,-3.0L2.5,-0.5"/>
                </g>
        </g>
        <svg viewBox="0 0 15 15" width="100%" height="30px" preserveAspectRatio="xMaxYMin meet">
         <g id="arrow_out" transform="scale(0.3 0.3)">
          <a xlink:href="FumiliStandardChi2FCN_8h__incl_org.svg" target="_base">
           <rect id="button" ry="5" rx="5" y="6" x="6" height="38" width="38"
                fill="#f2f5e9" fill-opacity="0.5" stroke="#606060" stroke-width="1.0"/>
           <path id="arrow"
             d="M 11.500037,31.436501 C 11.940474,20.09759 22.043105,11.32322 32.158766,21.979434 L 37.068811,17.246167 C 37.068811,17.246167 37.088388,32 37.088388,32 L 22.160133,31.978069 C 22.160133,31.978069 26.997745,27.140456 26.997745,27.140456 C 18.528582,18.264221 13.291696,25.230495 11.500037,31.436501 z"
             style="fill:#404040;"/>
          </a>
         </g>
        </svg>
</svg>
