<?xml version="1.0" encoding="UTF-8" standalone="no"?>
<!DOCTYPE svg PUBLIC "-//W3C//DTD SVG 1.1//EN"
 "http://www.w3.org/Graphics/SVG/1.1/DTD/svg11.dtd">
<!-- Generated by graphviz version 2.40.1 (0)
 -->
<!-- Title: math/genvector/inc/Math/GenVector/Boost.h Pages: 1 -->
<!--zoomable 453 -->
<svg id="main" version="1.1" xmlns="http://www.w3.org/2000/svg" xmlns:xlink="http://www.w3.org/1999/xlink" xml:space="preserve" onload="init(evt)">
<style type="text/css"><![CDATA[
.edge:hover path { stroke: red; }
.edge:hover polygon { stroke: red; fill: red; }
]]></style>
<script type="text/javascript"><![CDATA[
var edges = document.getElementsByTagName('g');
if (edges && edges.length) {
  for (var i=0;i<edges.length;i++) {
    if (edges[i].id.substr(0,4)=='edge') {
      edges[i].setAttribute('class','edge');
    }
  }
}
]]></script>
        <defs>
                <circle id="rim" cx="0" cy="0" r="7"/>
                <circle id="rim2" cx="0" cy="0" r="3.5"/>
                <g id="zoomPlus">
                        <use xlink:href="#rim" fill="#404040">
                                <set attributeName="fill" to="#808080" begin="zoomplus.mouseover" end="zoomplus.mouseout"/>
                        </use>
                        <path d="M-4,0h8M0,-4v8" fill="none" stroke="white" stroke-width="1.5" pointer-events="none"/>
                </g>
                <g id="zoomMin">
                        <use xlink:href="#rim" fill="#404040">
                                <set attributeName="fill" to="#808080" begin="zoomminus.mouseover" end="zoomminus.mouseout"/>
                        </use>
                        <path d="M-4,0h8" fill="none" stroke="white" stroke-width="1.5" pointer-events="none"/>
                </g>
                <g id="dirArrow">
                        <path fill="none" stroke="white" stroke-width="1.5" d="M0,-3.0v7 M-2.5,-0.5L0,-3.0L2.5,-0.5"/>
                </g>
               <g id="resetDef">
                       <use xlink:href="#rim2" fill="#404040">
                               <set attributeName="fill" to="#808080" begin="reset.mouseover" end="reset.mouseout"/>
                       </use>
               </g>
        </defs>

<script type="text/javascript">
var viewWidth = 1248;
var viewHeight = 453;
var sectionId = 'dynsection-0';
</script>
<script xlink:href="svgpan.js"/>
<svg id="graph" class="graph">
<g id="viewport">
<title>math/genvector/inc/Math/GenVector/Boost.h</title>
<polygon fill="#ffffff" stroke="transparent" points="-4,4 -4,-449 1244.0919,-449 1244.0919,4 -4,4"/>
<!-- Node0 -->
<g id="node1" class="node">
<title>Node0</title>
<polygon fill="#bfbfbf" stroke="#000000" points="498.5919,-414.5 498.5919,-444.5 635.5919,-444.5 635.5919,-414.5 498.5919,-414.5"/>
<text text-anchor="start" x="506.5919" y="-432.5" font-family="Helvetica,sans-Serif" font-size="10.00" fill="#000000">math/genvector/inc</text>
<text text-anchor="middle" x="567.0919" y="-421.5" font-family="Helvetica,sans-Serif" font-size="10.00" fill="#000000">/Math/GenVector/Boost.h</text>
</g>
<!-- Node1 -->
<g id="node2" class="node">
<title>Node1</title>
<g id="a_node2"><a xlink:href="GenVector_2LorentzVector_8h.html" target="_top" xlink:title="Math/GenVector/LorentzVector.h">
<polygon fill="#ffffff" stroke="#000000" points="324.0919,-302.5 324.0919,-321.5 496.0919,-321.5 496.0919,-302.5 324.0919,-302.5"/>
<text text-anchor="middle" x="410.0919" y="-309.5" font-family="Helvetica,sans-Serif" font-size="10.00" fill="#000000">Math/GenVector/LorentzVector.h</text>
</a>
</g>
</g>
<!-- Node0&#45;&gt;Node1 -->
<g id="edge1" class="edge">
<title>Node0&#45;&gt;Node1</title>
<path fill="none" stroke="#191970" d="M498.3623,-423.918C436.361,-417.2868 351.8057,-403.7213 331.0919,-378 314.0719,-356.8653 345.0319,-337.5836 373.0443,-325.3916"/>
<polygon fill="#191970" stroke="#191970" points="374.4567,-328.595 382.3576,-321.5362 371.7793,-322.1273 374.4567,-328.595"/>
</g>
<!-- Node2 -->
<g id="node3" class="node">
<title>Node2</title>
<g id="a_node3"><a xlink:href="GenVector_2PxPyPzE4D_8h.html" target="_top" xlink:title="Math/GenVector/PxPyPzE4D.h">
<polygon fill="#ffffff" stroke="#000000" points="101.5919,-241 101.5919,-260 262.5919,-260 262.5919,-241 101.5919,-241"/>
<text text-anchor="middle" x="182.0919" y="-248" font-family="Helvetica,sans-Serif" font-size="10.00" fill="#000000">Math/GenVector/PxPyPzE4D.h</text>
</a>
</g>
</g>
<!-- Node0&#45;&gt;Node2 -->
<g id="edge35" class="edge">
<title>Node0&#45;&gt;Node2</title>
<path fill="none" stroke="#191970" d="M498.3672,-420.2281C448.6876,-412.2758 380.4981,-398.7614 323.0919,-378 272.9866,-359.879 254.1828,-360.2516 217.0919,-322 202.865,-307.3278 193.3958,-285.749 187.9349,-270.1382"/>
<polygon fill="#191970" stroke="#191970" points="191.2037,-268.872 184.7854,-260.4424 184.5461,-271.0346 191.2037,-268.872"/>
</g>
<!-- Node10 -->
<g id="node11" class="node">
<title>Node10</title>
<g id="a_node11"><a xlink:href="GenVector_2DisplacementVector3D_8h.html" target="_top" xlink:title="Math/GenVector/Displacement\lVector3D.h">
<polygon fill="#ffffff" stroke="#000000" points="485.0919,-235.5 485.0919,-265.5 649.0919,-265.5 649.0919,-235.5 485.0919,-235.5"/>
<text text-anchor="start" x="493.0919" y="-253.5" font-family="Helvetica,sans-Serif" font-size="10.00" fill="#000000">Math/GenVector/Displacement</text>
<text text-anchor="middle" x="567.0919" y="-242.5" font-family="Helvetica,sans-Serif" font-size="10.00" fill="#000000">Vector3D.h</text>
</a>
</g>
</g>
<!-- Node0&#45;&gt;Node10 -->
<g id="edge36" class="edge">
<title>Node0&#45;&gt;Node10</title>
<path fill="none" stroke="#191970" d="M635.8216,-423.918C697.8229,-417.2868 782.3782,-403.7213 803.0919,-378 850.2238,-319.4738 744.1771,-284.072 659.3283,-265.8957"/>
<polygon fill="#191970" stroke="#191970" points="659.8643,-262.4322 649.3604,-263.8173 658.4354,-269.2849 659.8643,-262.4322"/>
</g>
<!-- Node11 -->
<g id="node12" class="node">
<title>Node11</title>
<g id="a_node12"><a xlink:href="GenVector_2Cartesian3D_8h.html" target="_top" xlink:title="Math/GenVector/Cartesian3D.h">
<polygon fill="#ffffff" stroke="#000000" points="1074.0919,-174 1074.0919,-193 1240.0919,-193 1240.0919,-174 1074.0919,-174"/>
<text text-anchor="middle" x="1157.0919" y="-181" font-family="Helvetica,sans-Serif" font-size="10.00" fill="#000000">Math/GenVector/Cartesian3D.h</text>
</a>
</g>
</g>
<!-- Node0&#45;&gt;Node11 -->
<g id="edge37" class="edge">
<title>Node0&#45;&gt;Node11</title>
<path fill="none" stroke="#191970" d="M635.6214,-421.8397C687.9484,-414.5298 761.1794,-401.1125 822.0919,-378 949.3249,-329.723 1084.7221,-236.2452 1135.884,-199.1855"/>
<polygon fill="#191970" stroke="#191970" points="1138.1522,-201.8632 1144.1685,-193.1423 1134.0269,-196.2079 1138.1522,-201.8632"/>
</g>
<!-- Node24 -->
<g id="node25" class="node">
<title>Node24</title>
<g id="a_node25"><a xlink:href="GenVector_2BoostX_8h.html" target="_top" xlink:title="Math/GenVector/BoostX.h">
<polygon fill="#ffffff" stroke="#000000" points="654.0919,-358.5 654.0919,-377.5 794.0919,-377.5 794.0919,-358.5 654.0919,-358.5"/>
<text text-anchor="middle" x="724.0919" y="-365.5" font-family="Helvetica,sans-Serif" font-size="10.00" fill="#000000">Math/GenVector/BoostX.h</text>
</a>
</g>
</g>
<!-- Node0&#45;&gt;Node24 -->
<g id="edge38" class="edge">
<title>Node0&#45;&gt;Node24</title>
<path fill="none" stroke="#191970" d="M605.4985,-414.4554C631.4645,-404.284 665.4309,-390.9787 690.3549,-381.2155"/>
<polygon fill="#191970" stroke="#191970" points="691.728,-384.4366 699.7625,-377.5303 689.1748,-377.9188 691.728,-384.4366"/>
</g>
<!-- Node25 -->
<g id="node26" class="node">
<title>Node25</title>
<g id="a_node26"><a xlink:href="GenVector_2BoostY_8h.html" target="_top" xlink:title="Math/GenVector/BoostY.h">
<polygon fill="#ffffff" stroke="#000000" points="498.5919,-358.5 498.5919,-377.5 635.5919,-377.5 635.5919,-358.5 498.5919,-358.5"/>
<text text-anchor="middle" x="567.0919" y="-365.5" font-family="Helvetica,sans-Serif" font-size="10.00" fill="#000000">Math/GenVector/BoostY.h</text>
</a>
</g>
</g>
<!-- Node0&#45;&gt;Node25 -->
<g id="edge43" class="edge">
<title>Node0&#45;&gt;Node25</title>
<path fill="none" stroke="#191970" d="M567.0919,-414.2977C567.0919,-406.3834 567.0919,-396.6043 567.0919,-388.0759"/>
<polygon fill="#191970" stroke="#191970" points="570.592,-387.8469 567.0919,-377.8469 563.592,-387.847 570.592,-387.8469"/>
</g>
<!-- Node26 -->
<g id="node27" class="node">
<title>Node26</title>
<g id="a_node27"><a xlink:href="GenVector_2BoostZ_8h.html" target="_top" xlink:title="Math/GenVector/BoostZ.h">
<polygon fill="#ffffff" stroke="#000000" points="340.0919,-358.5 340.0919,-377.5 480.0919,-377.5 480.0919,-358.5 340.0919,-358.5"/>
<text text-anchor="middle" x="410.0919" y="-365.5" font-family="Helvetica,sans-Serif" font-size="10.00" fill="#000000">Math/GenVector/BoostZ.h</text>
</a>
</g>
</g>
<!-- Node0&#45;&gt;Node26 -->
<g id="edge48" class="edge">
<title>Node0&#45;&gt;Node26</title>
<path fill="none" stroke="#191970" d="M528.6854,-414.4554C502.7194,-404.284 468.753,-390.9787 443.829,-381.2155"/>
<polygon fill="#191970" stroke="#191970" points="445.0091,-377.9188 434.4214,-377.5303 442.4559,-384.4366 445.0091,-377.9188"/>
</g>
<!-- Node1&#45;&gt;Node2 -->
<g id="edge2" class="edge">
<title>Node1&#45;&gt;Node2</title>
<path fill="none" stroke="#191970" d="M374.4669,-302.3906C334.7288,-291.6718 270.3651,-274.3105 227.1571,-262.6557"/>
<polygon fill="#191970" stroke="#191970" points="228.0332,-259.267 217.4668,-260.0419 226.2102,-266.0255 228.0332,-259.267"/>
</g>
<!-- Node6 -->
<g id="node7" class="node">
<title>Node6</title>
<polygon fill="#ffffff" stroke="#bfbfbf" points="772.5919,-.5 772.5919,-19.5 819.5919,-19.5 819.5919,-.5 772.5919,-.5"/>
<text text-anchor="middle" x="796.0919" y="-7.5" font-family="Helvetica,sans-Serif" font-size="10.00" fill="#000000">cmath</text>
</g>
<!-- Node1&#45;&gt;Node6 -->
<g id="edge33" class="edge">
<title>Node1&#45;&gt;Node6</title>
<path fill="none" stroke="#191970" d="M392.8705,-302.4227C345.3441,-275.9531 215.6734,-203.4567 213.0919,-199 191.8533,-162.3329 216.5069,-135.0057 252.0919,-112 338.0068,-56.4562 657.3717,-22.743 762.3844,-12.9726"/>
<polygon fill="#191970" stroke="#191970" points="762.7891,-16.4503 772.4273,-12.0507 762.1492,-9.4796 762.7891,-16.4503"/>
</g>
<!-- Node1&#45;&gt;Node10 -->
<g id="edge13" class="edge">
<title>Node1&#45;&gt;Node10</title>
<path fill="none" stroke="#191970" d="M434.6232,-302.3906C457.15,-293.5664 491.1693,-280.2404 519.0919,-269.3026"/>
<polygon fill="#191970" stroke="#191970" points="520.6509,-272.4509 528.6854,-265.5446 518.0977,-265.9331 520.6509,-272.4509"/>
</g>
<!-- Node15 -->
<g id="node16" class="node">
<title>Node15</title>
<g id="a_node16"><a xlink:href="GenVectorIO_8h.html" target="_top" xlink:title="Math/GenVector/GenVectorIO.h">
<polygon fill="#ffffff" stroke="#000000" points="222.0919,-174 222.0919,-193 388.0919,-193 388.0919,-174 222.0919,-174"/>
<text text-anchor="middle" x="305.0919" y="-181" font-family="Helvetica,sans-Serif" font-size="10.00" fill="#000000">Math/GenVector/GenVectorIO.h</text>
</a>
</g>
</g>
<!-- Node1&#45;&gt;Node15 -->
<g id="edge32" class="edge">
<title>Node1&#45;&gt;Node15</title>
<path fill="none" stroke="#191970" d="M402.1999,-302.3416C384.6413,-280.8533 342.1252,-228.8216 319.6217,-201.2817"/>
<polygon fill="#191970" stroke="#191970" points="322.1133,-198.7995 313.0756,-193.2705 316.6928,-203.2287 322.1133,-198.7995"/>
</g>
<!-- Node23 -->
<g id="node24" class="node">
<title>Node23</title>
<polygon fill="#ffffff" stroke="#bfbfbf" points="382.0919,-241 382.0919,-260 438.0919,-260 438.0919,-241 382.0919,-241"/>
<text text-anchor="middle" x="410.0919" y="-248" font-family="Helvetica,sans-Serif" font-size="10.00" fill="#000000">sstream</text>
</g>
<!-- Node1&#45;&gt;Node23 -->
<g id="edge34" class="edge">
<title>Node1&#45;&gt;Node23</title>
<path fill="none" stroke="#191970" d="M410.0919,-302.3906C410.0919,-293.8657 410.0919,-281.1392 410.0919,-270.4235"/>
<polygon fill="#191970" stroke="#191970" points="413.592,-270.2448 410.0919,-260.2449 406.592,-270.2449 413.592,-270.2448"/>
</g>
<!-- Node3 -->
<g id="node4" class="node">
<title>Node3</title>
<g id="a_node4"><a xlink:href="eta_8h.html" target="_top" xlink:title="Math/GenVector/eta.h">
<polygon fill="#ffffff" stroke="#000000" points="881.0919,-112.5 881.0919,-131.5 1003.0919,-131.5 1003.0919,-112.5 881.0919,-112.5"/>
<text text-anchor="middle" x="942.0919" y="-119.5" font-family="Helvetica,sans-Serif" font-size="10.00" fill="#000000">Math/GenVector/eta.h</text>
</a>
</g>
</g>
<!-- Node2&#45;&gt;Node3 -->
<g id="edge3" class="edge">
<title>Node2&#45;&gt;Node3</title>
<path fill="none" stroke="#191970" d="M262.6264,-242.9275C374.6205,-232.0279 567.0917,-211.8213 597.0919,-199 617.1342,-190.4344 615.1595,-176.8181 635.0919,-168 676.1283,-149.8457 793.6778,-135.8456 870.836,-128.2769"/>
<polygon fill="#191970" stroke="#191970" points="871.3573,-131.7429 880.9739,-127.2965 870.6834,-124.7754 871.3573,-131.7429"/>
</g>
<!-- Node2&#45;&gt;Node6 -->
<g id="edge12" class="edge">
<title>Node2&#45;&gt;Node6</title>
<path fill="none" stroke="#191970" d="M124.4513,-240.9267C79.7422,-232.1878 23.0948,-217.7786 9.0919,-199 -16.4604,-164.7328 16.6613,-138.6374 50.0919,-112 99.2936,-72.7963 118.9942,-70.9932 180.0919,-56 292.0879,-28.5165 650.6515,-14.7457 762.4649,-11.0443"/>
<polygon fill="#191970" stroke="#191970" points="762.618,-14.5413 772.4987,-10.7174 762.39,-7.545 762.618,-14.5413"/>
</g>
<!-- Node7 -->
<g id="node8" class="node">
<title>Node7</title>
<g id="a_node8"><a xlink:href="GenVector__exception_8h.html" target="_top" xlink:title="Math/GenVector/GenVector\l_exception.h">
<polygon fill="#ffffff" stroke="#000000" points="18.5919,-168.5 18.5919,-198.5 165.5919,-198.5 165.5919,-168.5 18.5919,-168.5"/>
<text text-anchor="start" x="26.5919" y="-186.5" font-family="Helvetica,sans-Serif" font-size="10.00" fill="#000000">Math/GenVector/GenVector</text>
<text text-anchor="middle" x="92.0919" y="-175.5" font-family="Helvetica,sans-Serif" font-size="10.00" fill="#000000">_exception.h</text>
</a>
</g>
</g>
<!-- Node2&#45;&gt;Node7 -->
<g id="edge9" class="edge">
<title>Node2&#45;&gt;Node7</title>
<path fill="none" stroke="#191970" d="M169.1971,-240.9005C156.5317,-231.4718 136.7863,-216.7725 120.4481,-204.6096"/>
<polygon fill="#191970" stroke="#191970" points="122.3818,-201.6858 112.2704,-198.5218 118.2018,-207.3007 122.3818,-201.6858"/>
</g>
<!-- Node4 -->
<g id="node5" class="node">
<title>Node4</title>
<g id="a_node5"><a xlink:href="etaMax_8h.html" target="_top" xlink:title="Math/GenVector/etaMax.h">
<polygon fill="#ffffff" stroke="#000000" points="895.0919,-56.5 895.0919,-75.5 1037.0919,-75.5 1037.0919,-56.5 895.0919,-56.5"/>
<text text-anchor="middle" x="966.0919" y="-63.5" font-family="Helvetica,sans-Serif" font-size="10.00" fill="#000000">Math/GenVector/etaMax.h</text>
</a>
</g>
</g>
<!-- Node3&#45;&gt;Node4 -->
<g id="edge4" class="edge">
<title>Node3&#45;&gt;Node4</title>
<path fill="none" stroke="#191970" d="M946.2724,-112.2455C949.473,-104.7776 953.9879,-94.2427 957.9003,-85.1137"/>
<polygon fill="#191970" stroke="#191970" points="961.2371,-86.2129 961.9594,-75.6427 954.8031,-83.4554 961.2371,-86.2129"/>
</g>
<!-- Node5 -->
<g id="node6" class="node">
<title>Node5</title>
<polygon fill="#ffffff" stroke="#bfbfbf" points="1043.0919,-.5 1043.0919,-19.5 1087.0919,-19.5 1087.0919,-.5 1043.0919,-.5"/>
<text text-anchor="middle" x="1065.0919" y="-7.5" font-family="Helvetica,sans-Serif" font-size="10.00" fill="#000000">limits</text>
</g>
<!-- Node3&#45;&gt;Node5 -->
<g id="edge7" class="edge">
<title>Node3&#45;&gt;Node5</title>
<path fill="none" stroke="#191970" d="M984.211,-112.4707C1005.4964,-105.6333 1030.1284,-94.2994 1046.0919,-76 1057.2248,-63.2381 1061.8529,-44.3214 1063.7672,-30.0076"/>
<polygon fill="#191970" stroke="#191970" points="1067.2834,-30.0185 1064.793,-19.7206 1060.3179,-29.3239 1067.2834,-30.0185"/>
</g>
<!-- Node3&#45;&gt;Node6 -->
<g id="edge8" class="edge">
<title>Node3&#45;&gt;Node6</title>
<path fill="none" stroke="#191970" d="M929.6441,-112.4509C904.5388,-93.1921 847.6115,-49.5218 816.8102,-25.8935"/>
<polygon fill="#191970" stroke="#191970" points="818.573,-22.8345 808.5083,-19.5249 814.3123,-28.3885 818.573,-22.8345"/>
</g>
<!-- Node4&#45;&gt;Node5 -->
<g id="edge5" class="edge">
<title>Node4&#45;&gt;Node5</title>
<path fill="none" stroke="#191970" d="M983.3364,-56.2455C998.668,-47.5731 1021.3118,-34.7645 1038.8835,-24.825"/>
<polygon fill="#191970" stroke="#191970" points="1041.0643,-27.6126 1048.0451,-19.6427 1037.6178,-21.5198 1041.0643,-27.6126"/>
</g>
<!-- Node4&#45;&gt;Node6 -->
<g id="edge6" class="edge">
<title>Node4&#45;&gt;Node6</title>
<path fill="none" stroke="#191970" d="M936.8679,-56.3733C906.9719,-46.5252 860.5946,-31.2479 829.3206,-20.9459"/>
<polygon fill="#191970" stroke="#191970" points="830.3304,-17.5936 819.7374,-17.7891 828.1403,-24.2422 830.3304,-17.5936"/>
</g>
<!-- Node8 -->
<g id="node9" class="node">
<title>Node8</title>
<polygon fill="#ffffff" stroke="#bfbfbf" points="59.5919,-112.5 59.5919,-131.5 124.5919,-131.5 124.5919,-112.5 59.5919,-112.5"/>
<text text-anchor="middle" x="92.0919" y="-119.5" font-family="Helvetica,sans-Serif" font-size="10.00" fill="#000000">stdexcept</text>
</g>
<!-- Node7&#45;&gt;Node8 -->
<g id="edge10" class="edge">
<title>Node7&#45;&gt;Node8</title>
<path fill="none" stroke="#191970" d="M92.0919,-168.2977C92.0919,-160.3834 92.0919,-150.6043 92.0919,-142.0759"/>
<polygon fill="#191970" stroke="#191970" points="95.592,-141.8469 92.0919,-131.8469 88.592,-141.847 95.592,-141.8469"/>
</g>
<!-- Node9 -->
<g id="node10" class="node">
<title>Node9</title>
<polygon fill="#ffffff" stroke="#bfbfbf" points="329.0919,-112.5 329.0919,-131.5 373.0919,-131.5 373.0919,-112.5 329.0919,-112.5"/>
<text text-anchor="middle" x="351.0919" y="-119.5" font-family="Helvetica,sans-Serif" font-size="10.00" fill="#000000">string</text>
</g>
<!-- Node7&#45;&gt;Node9 -->
<g id="edge11" class="edge">
<title>Node7&#45;&gt;Node9</title>
<path fill="none" stroke="#191970" d="M165.0396,-168.4988C209.7302,-158.9255 267.9734,-145.7624 319.0919,-132 319.1903,-131.9735 319.2888,-131.9469 319.3875,-131.9202"/>
<polygon fill="#191970" stroke="#191970" points="320.134,-135.3474 328.7789,-129.2222 318.2012,-128.6195 320.134,-135.3474"/>
</g>
<!-- Node10&#45;&gt;Node11 -->
<g id="edge14" class="edge">
<title>Node10&#45;&gt;Node11</title>
<path fill="none" stroke="#191970" d="M649.2561,-236.8418C653.9323,-236.1867 658.5691,-235.5669 663.0919,-235 841.0808,-212.6898 887.1804,-221.9182 1065.0919,-199 1074.6303,-197.7713 1084.6931,-196.2787 1094.5239,-194.7108"/>
<polygon fill="#191970" stroke="#191970" points="1095.3475,-198.1228 1104.6531,-193.0575 1094.2198,-191.2142 1095.3475,-198.1228"/>
</g>
<!-- Node14 -->
<g id="node15" class="node">
<title>Node14</title>
<g id="a_node15"><a xlink:href="PositionVector3Dfwd_8h.html" target="_top" xlink:title="Math/GenVector/PositionVector3\lDfwd.h">
<polygon fill="#ffffff" stroke="#000000" points="882.5919,-168.5 882.5919,-198.5 1055.5919,-198.5 1055.5919,-168.5 882.5919,-168.5"/>
<text text-anchor="start" x="890.5919" y="-186.5" font-family="Helvetica,sans-Serif" font-size="10.00" fill="#000000">Math/GenVector/PositionVector3</text>
<text text-anchor="middle" x="969.0919" y="-175.5" font-family="Helvetica,sans-Serif" font-size="10.00" fill="#000000">Dfwd.h</text>
</a>
</g>
</g>
<!-- Node10&#45;&gt;Node14 -->
<g id="edge21" class="edge">
<title>Node10&#45;&gt;Node14</title>
<path fill="none" stroke="#191970" d="M649.4127,-236.7799C714.1095,-225.9971 804.3639,-210.9547 872.4801,-199.602"/>
<polygon fill="#191970" stroke="#191970" points="873.0752,-203.0512 882.3637,-197.9547 871.9243,-196.1464 873.0752,-203.0512"/>
</g>
<!-- Node10&#45;&gt;Node15 -->
<g id="edge22" class="edge">
<title>Node10&#45;&gt;Node15</title>
<path fill="none" stroke="#191970" d="M508.294,-235.4639C461.1245,-223.4015 395.7923,-206.6944 352.0675,-195.5128"/>
<polygon fill="#191970" stroke="#191970" points="352.8173,-192.092 342.2619,-193.0053 351.0829,-198.8738 352.8173,-192.092"/>
</g>
<!-- Node18 -->
<g id="node19" class="node">
<title>Node18</title>
<g id="a_node19"><a xlink:href="BitReproducible_8h.html" target="_top" xlink:title="Math/GenVector/BitReproducible.h">
<polygon fill="#ffffff" stroke="#000000" points="406.0919,-174 406.0919,-193 588.0919,-193 588.0919,-174 406.0919,-174"/>
<text text-anchor="middle" x="497.0919" y="-181" font-family="Helvetica,sans-Serif" font-size="10.00" fill="#000000">Math/GenVector/BitReproducible.h</text>
</a>
</g>
</g>
<!-- Node10&#45;&gt;Node18 -->
<g id="edge25" class="edge">
<title>Node10&#45;&gt;Node18</title>
<path fill="none" stroke="#191970" d="M551.2079,-235.2967C540.3015,-224.8578 525.8229,-210.9997 514.5863,-200.2446"/>
<polygon fill="#191970" stroke="#191970" points="516.7191,-197.4411 507.0747,-193.055 511.8788,-202.498 516.7191,-197.4411"/>
</g>
<!-- Node21 -->
<g id="node22" class="node">
<title>Node21</title>
<g id="a_node22"><a xlink:href="CoordinateSystemTags_8h.html" target="_top" xlink:title="Math/GenVector/Coordinate\lSystemTags.h">
<polygon fill="#ffffff" stroke="#000000" points="644.0919,-168.5 644.0919,-198.5 794.0919,-198.5 794.0919,-168.5 644.0919,-168.5"/>
<text text-anchor="start" x="652.0919" y="-186.5" font-family="Helvetica,sans-Serif" font-size="10.00" fill="#000000">Math/GenVector/Coordinate</text>
<text text-anchor="middle" x="719.0919" y="-175.5" font-family="Helvetica,sans-Serif" font-size="10.00" fill="#000000">SystemTags.h</text>
</a>
</g>
</g>
<!-- Node10&#45;&gt;Node21 -->
<g id="edge30" class="edge">
<title>Node10&#45;&gt;Node21</title>
<path fill="none" stroke="#191970" d="M601.2037,-235.4639C623.1286,-225.7996 651.8173,-213.154 675.4039,-202.7572"/>
<polygon fill="#191970" stroke="#191970" points="677.0926,-205.8379 684.8314,-198.6017 674.2692,-199.4325 677.0926,-205.8379"/>
</g>
<!-- Node22 -->
<g id="node23" class="node">
<title>Node22</title>
<polygon fill="#ffffff" stroke="#bfbfbf" points="812.0919,-174 812.0919,-193 864.0919,-193 864.0919,-174 812.0919,-174"/>
<text text-anchor="middle" x="838.0919" y="-181" font-family="Helvetica,sans-Serif" font-size="10.00" fill="#000000">cassert</text>
</g>
<!-- Node10&#45;&gt;Node22 -->
<g id="edge31" class="edge">
<title>Node10&#45;&gt;Node22</title>
<path fill="none" stroke="#191970" d="M649.2752,-236.7934C695.1408,-228.0964 752.966,-215.3821 803.0919,-199 804.987,-198.3807 806.9185,-197.6936 808.852,-196.9633"/>
<polygon fill="#191970" stroke="#191970" points="810.4477,-200.092 818.3752,-193.0632 807.7947,-193.6142 810.4477,-200.092"/>
</g>
<!-- Node11&#45;&gt;Node3 -->
<g id="edge20" class="edge">
<title>Node11&#45;&gt;Node3</title>
<path fill="none" stroke="#191970" d="M1123.4982,-173.8906C1086.1836,-163.2169 1025.8427,-145.9566 985.1033,-134.3033"/>
<polygon fill="#191970" stroke="#191970" points="986.0268,-130.9271 975.4498,-131.5419 984.1016,-137.6572 986.0268,-130.9271"/>
</g>
<!-- Node11&#45;&gt;Node5 -->
<g id="edge18" class="edge">
<title>Node11&#45;&gt;Node5</title>
<path fill="none" stroke="#191970" d="M1167.8216,-173.8099C1181.6519,-160.0851 1202.7274,-134.1829 1192.0919,-112 1172.2039,-70.5185 1126.3109,-40.5692 1095.4925,-24.2455"/>
<polygon fill="#191970" stroke="#191970" points="1096.9538,-21.0617 1086.4576,-19.6193 1093.7634,-27.2924 1096.9538,-21.0617"/>
</g>
<!-- Node11&#45;&gt;Node6 -->
<g id="edge19" class="edge">
<title>Node11&#45;&gt;Node6</title>
<path fill="none" stroke="#191970" d="M1101.2765,-173.9984C1019.6577,-160.0222 876.8375,-135.2204 872.0919,-132 834.9051,-106.7648 812.4271,-56.6573 802.3666,-29.1613"/>
<polygon fill="#191970" stroke="#191970" points="805.6032,-27.8124 799.0113,-19.5179 798.9919,-30.1127 805.6032,-27.8124"/>
</g>
<!-- Node12 -->
<g id="node13" class="node">
<title>Node12</title>
<g id="a_node13"><a xlink:href="Polar3Dfwd_8h.html" target="_top" xlink:title="Math/GenVector/Polar3Dfwd.h">
<polygon fill="#ffffff" stroke="#000000" points="1021.0919,-112.5 1021.0919,-131.5 1183.0919,-131.5 1183.0919,-112.5 1021.0919,-112.5"/>
<text text-anchor="middle" x="1102.0919" y="-119.5" font-family="Helvetica,sans-Serif" font-size="10.00" fill="#000000">Math/GenVector/Polar3Dfwd.h</text>
</a>
</g>
</g>
<!-- Node11&#45;&gt;Node12 -->
<g id="edge15" class="edge">
<title>Node11&#45;&gt;Node12</title>
<path fill="none" stroke="#191970" d="M1148.4982,-173.8906C1140.2323,-164.6478 1127.5493,-150.466 1117.5303,-139.2628"/>
<polygon fill="#191970" stroke="#191970" points="1120.082,-136.8657 1110.8069,-131.7449 1114.8642,-141.5321 1120.082,-136.8657"/>
</g>
<!-- Node13 -->
<g id="node14" class="node">
<title>Node13</title>
<g id="a_node14"><a xlink:href="Math_8h.html" target="_top" xlink:title="Math/Math.h">
<polygon fill="#ffffff" stroke="#000000" points="723.5919,-56.5 723.5919,-75.5 800.5919,-75.5 800.5919,-56.5 723.5919,-56.5"/>
<text text-anchor="middle" x="762.0919" y="-63.5" font-family="Helvetica,sans-Serif" font-size="10.00" fill="#000000">Math/Math.h</text>
</a>
</g>
</g>
<!-- Node11&#45;&gt;Node13 -->
<g id="edge16" class="edge">
<title>Node11&#45;&gt;Node13</title>
<path fill="none" stroke="#191970" d="M1101.6661,-173.9418C1089.6176,-171.9256 1076.9343,-169.85 1065.0919,-168 954.1799,-150.6737 912.5881,-187.6433 815.0919,-132 795.8275,-121.0054 780.8554,-100.0322 771.811,-84.6692"/>
<polygon fill="#191970" stroke="#191970" points="774.6563,-82.584 766.7379,-75.5449 768.5384,-85.9856 774.6563,-82.584"/>
</g>
<!-- Node13&#45;&gt;Node6 -->
<g id="edge17" class="edge">
<title>Node13&#45;&gt;Node6</title>
<path fill="none" stroke="#191970" d="M768.0143,-56.2455C772.6946,-48.5367 779.3592,-37.5598 785.0208,-28.2348"/>
<polygon fill="#191970" stroke="#191970" points="788.0394,-30.007 790.2375,-19.6427 782.0559,-26.3741 788.0394,-30.007"/>
</g>
<!-- Node16 -->
<g id="node17" class="node">
<title>Node16</title>
<polygon fill="#ffffff" stroke="#bfbfbf" points="261.5919,-112.5 261.5919,-131.5 310.5919,-131.5 310.5919,-112.5 261.5919,-112.5"/>
<text text-anchor="middle" x="286.0919" y="-119.5" font-family="Helvetica,sans-Serif" font-size="10.00" fill="#000000">cctype</text>
</g>
<!-- Node15&#45;&gt;Node16 -->
<g id="edge23" class="edge">
<title>Node15&#45;&gt;Node16</title>
<path fill="none" stroke="#191970" d="M302.1232,-173.8906C299.4618,-165.276 295.4748,-152.3708 292.1428,-141.5858"/>
<polygon fill="#191970" stroke="#191970" points="295.3984,-140.2661 289.1025,-131.7449 288.7103,-142.3324 295.3984,-140.2661"/>
</g>
<!-- Node17 -->
<g id="node18" class="node">
<title>Node17</title>
<polygon fill="#ffffff" stroke="#bfbfbf" points="391.0919,-112.5 391.0919,-131.5 451.0919,-131.5 451.0919,-112.5 391.0919,-112.5"/>
<text text-anchor="middle" x="421.0919" y="-119.5" font-family="Helvetica,sans-Serif" font-size="10.00" fill="#000000">iostream</text>
</g>
<!-- Node15&#45;&gt;Node17 -->
<g id="edge24" class="edge">
<title>Node15&#45;&gt;Node17</title>
<path fill="none" stroke="#191970" d="M323.2169,-173.8906C342.2002,-163.8262 372.2292,-147.9057 394.0226,-136.3514"/>
<polygon fill="#191970" stroke="#191970" points="395.8986,-139.3184 403.0942,-131.5419 392.6196,-133.1338 395.8986,-139.3184"/>
</g>
<!-- Node18&#45;&gt;Node9 -->
<g id="edge27" class="edge">
<title>Node18&#45;&gt;Node9</title>
<path fill="none" stroke="#191970" d="M474.2794,-173.8906C449.6003,-163.495 410.0888,-146.8514 382.4883,-135.2252"/>
<polygon fill="#191970" stroke="#191970" points="383.8407,-131.997 373.2662,-131.3405 381.1233,-138.4481 383.8407,-131.997"/>
</g>
<!-- Node18&#45;&gt;Node17 -->
<g id="edge26" class="edge">
<title>Node18&#45;&gt;Node17</title>
<path fill="none" stroke="#191970" d="M485.2169,-173.8906C473.4623,-164.3786 455.2434,-149.6357 441.2248,-138.2917"/>
<polygon fill="#191970" stroke="#191970" points="443.1097,-135.3146 433.1344,-131.7449 438.7063,-140.7562 443.1097,-135.3146"/>
</g>
<!-- Node19 -->
<g id="node20" class="node">
<title>Node19</title>
<polygon fill="#ffffff" stroke="#bfbfbf" points="543.5919,-112.5 543.5919,-131.5 608.5919,-131.5 608.5919,-112.5 543.5919,-112.5"/>
<text text-anchor="middle" x="576.0919" y="-119.5" font-family="Helvetica,sans-Serif" font-size="10.00" fill="#000000">exception</text>
</g>
<!-- Node18&#45;&gt;Node19 -->
<g id="edge28" class="edge">
<title>Node18&#45;&gt;Node19</title>
<path fill="none" stroke="#191970" d="M509.4357,-173.8906C521.8422,-164.2324 541.1763,-149.1812 555.8332,-137.771"/>
<polygon fill="#191970" stroke="#191970" points="558.094,-140.4466 563.8349,-131.5419 553.794,-134.923 558.094,-140.4466"/>
</g>
<!-- Node20 -->
<g id="node21" class="node">
<title>Node20</title>
<polygon fill="#ffffff" stroke="#bfbfbf" points="469.0919,-112.5 469.0919,-131.5 525.0919,-131.5 525.0919,-112.5 469.0919,-112.5"/>
<text text-anchor="middle" x="497.0919" y="-119.5" font-family="Helvetica,sans-Serif" font-size="10.00" fill="#000000">iomanip</text>
</g>
<!-- Node18&#45;&gt;Node20 -->
<g id="edge29" class="edge">
<title>Node18&#45;&gt;Node20</title>
<path fill="none" stroke="#191970" d="M497.0919,-173.8906C497.0919,-165.3657 497.0919,-152.6392 497.0919,-141.9235"/>
<polygon fill="#191970" stroke="#191970" points="500.592,-141.7448 497.0919,-131.7449 493.592,-141.7449 500.592,-141.7448"/>
</g>
<!-- Node24&#45;&gt;Node1 -->
<g id="edge39" class="edge">
<title>Node24&#45;&gt;Node1</title>
<path fill="none" stroke="#191970" d="M670.4702,-358.4369C615.9412,-348.712 531.4619,-333.6456 473.6124,-323.3285"/>
<polygon fill="#191970" stroke="#191970" points="473.9517,-319.8339 463.4925,-321.5237 472.7227,-326.7251 473.9517,-319.8339"/>
</g>
<!-- Node24&#45;&gt;Node2 -->
<g id="edge40" class="edge">
<title>Node24&#45;&gt;Node2</title>
<path fill="none" stroke="#191970" d="M653.8884,-359.0497C650.917,-358.691 647.9752,-358.3397 645.0919,-358 498.5687,-340.7355 455.6913,-366.7094 315.0919,-322 297.6493,-316.4534 295.1757,-310.7364 279.0919,-302 255.6225,-289.2519 228.7947,-275.0354 209.3107,-264.7743"/>
<polygon fill="#191970" stroke="#191970" points="210.8624,-261.6359 200.3826,-260.0786 207.6039,-267.8313 210.8624,-261.6359"/>
</g>
<!-- Node24&#45;&gt;Node10 -->
<g id="edge41" class="edge">
<title>Node24&#45;&gt;Node10</title>
<path fill="none" stroke="#191970" d="M711.244,-358.3845C686.0615,-339.5377 629.6848,-297.345 595.3725,-271.6654"/>
<polygon fill="#191970" stroke="#191970" points="597.2601,-268.7064 587.1568,-265.5167 593.0658,-274.3107 597.2601,-268.7064"/>
</g>
<!-- Node24&#45;&gt;Node11 -->
<g id="edge42" class="edge">
<title>Node24&#45;&gt;Node11</title>
<path fill="none" stroke="#191970" d="M746.4601,-358.469C818.0898,-327.9478 1041.9785,-232.5495 1125.3711,-197.0161"/>
<polygon fill="#191970" stroke="#191970" points="1126.77,-200.2246 1134.5977,-193.0847 1124.026,-193.7849 1126.77,-200.2246"/>
</g>
<!-- Node25&#45;&gt;Node1 -->
<g id="edge44" class="edge">
<title>Node25&#45;&gt;Node1</title>
<path fill="none" stroke="#191970" d="M540.1027,-358.3733C514.222,-349.1419 474.9671,-335.1402 446.3631,-324.9375"/>
<polygon fill="#191970" stroke="#191970" points="447.3237,-321.5642 436.729,-321.5011 444.9719,-328.1573 447.3237,-321.5642"/>
</g>
<!-- Node25&#45;&gt;Node2 -->
<g id="edge45" class="edge">
<title>Node25&#45;&gt;Node2</title>
<path fill="none" stroke="#191970" d="M498.5368,-358.6101C420.6553,-347.6792 301.7613,-330.0937 282.0919,-322 250.1139,-308.8413 218.5571,-283.6984 199.6978,-267.012"/>
<polygon fill="#191970" stroke="#191970" points="201.9623,-264.3408 192.1992,-260.2259 197.2653,-269.531 201.9623,-264.3408"/>
</g>
<!-- Node25&#45;&gt;Node10 -->
<g id="edge46" class="edge">
<title>Node25&#45;&gt;Node10</title>
<path fill="none" stroke="#191970" d="M567.0919,-358.3845C567.0919,-340.544 567.0919,-301.7839 567.0919,-275.9138"/>
<polygon fill="#191970" stroke="#191970" points="570.592,-275.7143 567.0919,-265.7143 563.592,-275.7143 570.592,-275.7143"/>
</g>
<!-- Node25&#45;&gt;Node11 -->
<g id="edge47" class="edge">
<title>Node25&#45;&gt;Node11</title>
<path fill="none" stroke="#191970" d="M593.8631,-358.3855C657.59,-335.6409 823.4769,-277.2697 964.0919,-235 1012.9747,-220.3056 1069.4469,-205.484 1108.6222,-195.539"/>
<polygon fill="#191970" stroke="#191970" points="1109.6061,-198.9005 1118.4431,-193.0561 1107.8903,-192.114 1109.6061,-198.9005"/>
</g>
<!-- Node26&#45;&gt;Node1 -->
<g id="edge49" class="edge">
<title>Node26&#45;&gt;Node1</title>
<path fill="none" stroke="#191970" d="M410.0919,-358.2455C410.0919,-350.9382 410.0919,-340.6944 410.0919,-331.7046"/>
<polygon fill="#191970" stroke="#191970" points="413.592,-331.6426 410.0919,-321.6427 406.592,-331.6427 413.592,-331.6426"/>
</g>
<!-- Node26&#45;&gt;Node2 -->
<g id="edge50" class="edge">
<title>Node26&#45;&gt;Node2</title>
<path fill="none" stroke="#191970" d="M342.176,-358.4835C310.5718,-351.8043 273.5475,-340.6062 244.0919,-322 222.726,-308.5037 204.6529,-285.4141 193.6287,-269.1312"/>
<polygon fill="#191970" stroke="#191970" points="196.3696,-266.9261 187.9808,-260.4546 190.503,-270.7449 196.3696,-266.9261"/>
</g>
<!-- Node26&#45;&gt;Node10 -->
<g id="edge51" class="edge">
<title>Node26&#45;&gt;Node10</title>
<path fill="none" stroke="#191970" d="M437.1212,-358.339C457.0848,-350.4212 484.2896,-337.9354 505.0919,-322 522.864,-308.3859 539.2819,-289.0084 550.7524,-273.8596"/>
<polygon fill="#191970" stroke="#191970" points="553.7942,-275.6316 556.9072,-265.5044 548.1582,-271.4799 553.7942,-275.6316"/>
</g>
<!-- Node26&#45;&gt;Node11 -->
<g id="edge52" class="edge">
<title>Node26&#45;&gt;Node11</title>
<path fill="none" stroke="#191970" d="M438.8774,-358.4168C510.4473,-334.851 702.4736,-273.2201 866.0919,-235 887.6522,-229.9637 1012.4434,-208.3041 1091.4486,-194.7288"/>
<polygon fill="#191970" stroke="#191970" points="1092.0594,-198.1752 1101.3228,-193.0332 1090.8747,-191.2762 1092.0594,-198.1752"/>
</g>
</g>
</svg>
        <g id="navigator" transform="translate(0 0)" fill="#404254">
                <rect fill="#f2f5e9" fill-opacity="0.5" stroke="#606060" stroke-width=".5" x="0" y="0" width="60" height="60"/>
                <use id="zoomplus" xlink:href="#zoomPlus" x="17" y="9" onmousedown="handleZoom(evt,'in')"/>
                <use id="zoomminus" xlink:href="#zoomMin" x="42" y="9" onmousedown="handleZoom(evt,'out')"/>
                <use id="reset" xlink:href="#resetDef" x="30" y="36" onmousedown="handleReset()"/>
                <g id="arrowUp" xlink:href="#dirArrow" transform="translate(30 24)" onmousedown="handlePan(0,-1)">
                  <use xlink:href="#rim" fill="#404040">
                        <set attributeName="fill" to="#808080" begin="arrowUp.mouseover" end="arrowUp.mouseout"/>
                  </use>
                  <path fill="none" stroke="white" stroke-width="1.5" d="M0,-3.0v7 M-2.5,-0.5L0,-3.0L2.5,-0.5"/>
                </g>
                <g id="arrowRight" xlink:href="#dirArrow" transform="rotate(90) translate(36 -43)" onmousedown="handlePan(1,0)">
                  <use xlink:href="#rim" fill="#404040">
                        <set attributeName="fill" to="#808080" begin="arrowRight.mouseover" end="arrowRight.mouseout"/>
                  </use>
                  <path fill="none" stroke="white" stroke-width="1.5" d="M0,-3.0v7 M-2.5,-0.5L0,-3.0L2.5,-0.5"/>
                </g>
                <g id="arrowDown" xlink:href="#dirArrow" transform="rotate(180) translate(-30 -48)" onmousedown="handlePan(0,1)">
                  <use xlink:href="#rim" fill="#404040">
                        <set attributeName="fill" to="#808080" begin="arrowDown.mouseover" end="arrowDown.mouseout"/>
                  </use>
                  <path fill="none" stroke="white" stroke-width="1.5" d="M0,-3.0v7 M-2.5,-0.5L0,-3.0L2.5,-0.5"/>
                </g>
                <g id="arrowLeft" xlink:href="#dirArrow" transform="rotate(270) translate(-36 17)" onmousedown="handlePan(-1,0)">
                  <use xlink:href="#rim" fill="#404040">
                        <set attributeName="fill" to="#808080" begin="arrowLeft.mouseover" end="arrowLeft.mouseout"/>
                  </use>
                  <path fill="none" stroke="white" stroke-width="1.5" d="M0,-3.0v7 M-2.5,-0.5L0,-3.0L2.5,-0.5"/>
                </g>
        </g>
        <svg viewBox="0 0 15 15" width="100%" height="30px" preserveAspectRatio="xMaxYMin meet">
         <g id="arrow_out" transform="scale(0.3 0.3)">
          <a xlink:href="GenVector_2Boost_8h__incl_org.svg" target="_base">
           <rect id="button" ry="5" rx="5" y="6" x="6" height="38" width="38"
                fill="#f2f5e9" fill-opacity="0.5" stroke="#606060" stroke-width="1.0"/>
           <path id="arrow"
             d="M 11.500037,31.436501 C 11.940474,20.09759 22.043105,11.32322 32.158766,21.979434 L 37.068811,17.246167 C 37.068811,17.246167 37.088388,32 37.088388,32 L 22.160133,31.978069 C 22.160133,31.978069 26.997745,27.140456 26.997745,27.140456 C 18.528582,18.264221 13.291696,25.230495 11.500037,31.436501 z"
             style="fill:#404040;"/>
          </a>
         </g>
        </svg>
</svg>
