<?xml version="1.0" encoding="UTF-8" standalone="no"?>
<!DOCTYPE svg PUBLIC "-//W3C//DTD SVG 1.1//EN"
 "http://www.w3.org/Graphics/SVG/1.1/DTD/svg11.dtd">
<!-- Generated by graphviz version 2.40.1 (0)
 -->
<!-- Title: math/genvector/inc/Math/GenVector/RotationZ.h Pages: 1 -->
<svg width="3006pt" height="397pt"
 viewBox="0.00 0.00 3005.50 397.00" xmlns="http://www.w3.org/2000/svg" xmlns:xlink="http://www.w3.org/1999/xlink">
<g id="graph0" class="graph" transform="scale(1 1) rotate(0) translate(4 393)">
<title>math/genvector/inc/Math/GenVector/RotationZ.h</title>
<polygon fill="#ffffff" stroke="transparent" points="-4,4 -4,-393 3001.5,-393 3001.5,4 -4,4"/>
<!-- Node0 -->
<g id="node1" class="node">
<title>Node0</title>
<polygon fill="#bfbfbf" stroke="#000000" points="1100,-358.5 1100,-388.5 1256,-388.5 1256,-358.5 1100,-358.5"/>
<text text-anchor="start" x="1108" y="-376.5" font-family="Helvetica,sans-Serif" font-size="10.00" fill="#000000">math/genvector/inc</text>
<text text-anchor="middle" x="1178" y="-365.5" font-family="Helvetica,sans-Serif" font-size="10.00" fill="#000000">/Math/GenVector/RotationZ.h</text>
</g>
<!-- Node1 -->
<g id="node2" class="node">
<title>Node1</title>
<g id="a_node2"><a xlink:href="GenVector_2Cartesian3D_8h.html" target="_top" xlink:title="Math/GenVector/Cartesian3D.h">
<polygon fill="#ffffff" stroke="#000000" points="0,-174 0,-193 166,-193 166,-174 0,-174"/>
<text text-anchor="middle" x="83" y="-181" font-family="Helvetica,sans-Serif" font-size="10.00" fill="#000000">Math/GenVector/Cartesian3D.h</text>
</a>
</g>
</g>
<!-- Node0&#45;&gt;Node1 -->
<g id="edge1" class="edge">
<title>Node0&#45;&gt;Node1</title>
<path fill="none" stroke="#191970" d="M1099.8117,-365.5659C959.9945,-350.7198 658.2407,-315.69 407,-266 305.0551,-245.8375 187.2356,-213.5264 125.6053,-195.9202"/>
<polygon fill="#191970" stroke="#191970" points="126.4247,-192.5142 115.8473,-193.1211 124.4946,-199.2428 126.4247,-192.5142"/>
</g>
<!-- Node4 -->
<g id="node5" class="node">
<title>Node4</title>
<polygon fill="#ffffff" stroke="#bfbfbf" points="648.5,-.5 648.5,-19.5 695.5,-19.5 695.5,-.5 648.5,-.5"/>
<text text-anchor="middle" x="672" y="-7.5" font-family="Helvetica,sans-Serif" font-size="10.00" fill="#000000">cmath</text>
</g>
<!-- Node0&#45;&gt;Node4 -->
<g id="edge54" class="edge">
<title>Node0&#45;&gt;Node4</title>
<path fill="none" stroke="#191970" d="M1248.6851,-358.4556C1335.1033,-337.9815 1470,-298.3573 1470,-250.5 1470,-250.5 1470,-250.5 1470,-122 1470,-43.4301 1382.5451,-73.7222 1306,-56 1190.1277,-29.1725 819.9179,-14.9106 705.8102,-11.0732"/>
<polygon fill="#191970" stroke="#191970" points="705.6946,-7.5676 695.5841,-10.7343 705.4627,-14.5637 705.6946,-7.5676"/>
</g>
<!-- Node8 -->
<g id="node9" class="node">
<title>Node8</title>
<g id="a_node9"><a xlink:href="GenVector_2DisplacementVector3D_8h.html" target="_top" xlink:title="Math/GenVector/Displacement\lVector3D.h">
<polygon fill="#ffffff" stroke="#000000" points="733,-235.5 733,-265.5 897,-265.5 897,-235.5 733,-235.5"/>
<text text-anchor="start" x="741" y="-253.5" font-family="Helvetica,sans-Serif" font-size="10.00" fill="#000000">Math/GenVector/Displacement</text>
<text text-anchor="middle" x="815" y="-242.5" font-family="Helvetica,sans-Serif" font-size="10.00" fill="#000000">Vector3D.h</text>
</a>
</g>
</g>
<!-- Node0&#45;&gt;Node8 -->
<g id="edge13" class="edge">
<title>Node0&#45;&gt;Node8</title>
<path fill="none" stroke="#191970" d="M1133.4891,-358.4178C1066.7685,-335.81 941.0006,-293.1944 869.0851,-268.8263"/>
<polygon fill="#191970" stroke="#191970" points="869.901,-265.4074 859.3066,-265.513 867.6545,-272.0371 869.901,-265.4074"/>
</g>
<!-- Node19 -->
<g id="node20" class="node">
<title>Node19</title>
<g id="a_node20"><a xlink:href="GenVector_2PositionVector3D_8h.html" target="_top" xlink:title="Math/GenVector/PositionVector3D.h">
<polygon fill="#ffffff" stroke="#000000" points="416.5,-241 416.5,-260 605.5,-260 605.5,-241 416.5,-241"/>
<text text-anchor="middle" x="511" y="-248" font-family="Helvetica,sans-Serif" font-size="10.00" fill="#000000">Math/GenVector/PositionVector3D.h</text>
</a>
</g>
</g>
<!-- Node0&#45;&gt;Node19 -->
<g id="edge26" class="edge">
<title>Node0&#45;&gt;Node19</title>
<path fill="none" stroke="#191970" d="M1099.8535,-359.0892C965.6783,-334.3462 694.2056,-284.2845 572.4829,-261.8379"/>
<polygon fill="#191970" stroke="#191970" points="573.0475,-258.3831 562.5786,-260.0115 571.778,-265.267 573.0475,-258.3831"/>
</g>
<!-- Node21 -->
<g id="node22" class="node">
<title>Node21</title>
<g id="a_node22"><a xlink:href="GenVector_2LorentzVector_8h.html" target="_top" xlink:title="Math/GenVector/LorentzVector.h">
<polygon fill="#ffffff" stroke="#000000" points="1092,-302.5 1092,-321.5 1264,-321.5 1264,-302.5 1092,-302.5"/>
<text text-anchor="middle" x="1178" y="-309.5" font-family="Helvetica,sans-Serif" font-size="10.00" fill="#000000">Math/GenVector/LorentzVector.h</text>
</a>
</g>
</g>
<!-- Node0&#45;&gt;Node21 -->
<g id="edge33" class="edge">
<title>Node0&#45;&gt;Node21</title>
<path fill="none" stroke="#191970" d="M1178,-358.2977C1178,-350.3834 1178,-340.6043 1178,-332.0759"/>
<polygon fill="#191970" stroke="#191970" points="1181.5001,-331.8469 1178,-321.8469 1174.5001,-331.847 1181.5001,-331.8469"/>
</g>
<!-- Node26 -->
<g id="node27" class="node">
<title>Node26</title>
<g id="a_node27"><a xlink:href="3DDistances_8h.html" target="_top" xlink:title="Math/GenVector/3DDistances.h">
<polygon fill="#ffffff" stroke="#000000" points="2046.5,-302.5 2046.5,-321.5 2213.5,-321.5 2213.5,-302.5 2046.5,-302.5"/>
<text text-anchor="middle" x="2130" y="-309.5" font-family="Helvetica,sans-Serif" font-size="10.00" fill="#000000">Math/GenVector/3DDistances.h</text>
</a>
</g>
</g>
<!-- Node0&#45;&gt;Node26 -->
<g id="edge44" class="edge">
<title>Node0&#45;&gt;Node26</title>
<path fill="none" stroke="#191970" d="M1256.3107,-368.4411C1430.353,-357.1978 1848.6832,-330.1733 2036.2462,-318.0566"/>
<polygon fill="#191970" stroke="#191970" points="2036.6082,-321.5406 2046.3617,-317.4031 2036.1568,-314.5551 2036.6082,-321.5406"/>
</g>
<!-- Node34 -->
<g id="node35" class="node">
<title>Node34</title>
<g id="a_node35"><a xlink:href="RotationZfwd_8h.html" target="_top" xlink:title="Math/GenVector/RotationZfwd.h">
<polygon fill="#ffffff" stroke="#000000" points="2826.5,-241 2826.5,-260 2997.5,-260 2997.5,-241 2826.5,-241"/>
<text text-anchor="middle" x="2912" y="-248" font-family="Helvetica,sans-Serif" font-size="10.00" fill="#000000">Math/GenVector/RotationZfwd.h</text>
</a>
</g>
</g>
<!-- Node0&#45;&gt;Node34 -->
<g id="edge53" class="edge">
<title>Node0&#45;&gt;Node34</title>
<path fill="none" stroke="#191970" d="M1256.3234,-370.8254C1430.2043,-364.627 1861.57,-347.8101 2222,-322 2487.3761,-302.9966 2554.1398,-300.1083 2818,-266 2827.719,-264.7437 2837.9744,-263.2386 2847.9974,-261.6672"/>
<polygon fill="#191970" stroke="#191970" points="2848.593,-265.1165 2857.9144,-260.0805 2847.487,-258.2044 2848.593,-265.1165"/>
</g>
<!-- Node2 -->
<g id="node3" class="node">
<title>Node2</title>
<g id="a_node3"><a xlink:href="Polar3Dfwd_8h.html" target="_top" xlink:title="Math/GenVector/Polar3Dfwd.h">
<polygon fill="#ffffff" stroke="#000000" points="111,-112.5 111,-131.5 273,-131.5 273,-112.5 111,-112.5"/>
<text text-anchor="middle" x="192" y="-119.5" font-family="Helvetica,sans-Serif" font-size="10.00" fill="#000000">Math/GenVector/Polar3Dfwd.h</text>
</a>
</g>
</g>
<!-- Node1&#45;&gt;Node2 -->
<g id="edge2" class="edge">
<title>Node1&#45;&gt;Node2</title>
<path fill="none" stroke="#191970" d="M100.0313,-173.8906C117.789,-163.8713 145.833,-148.0483 166.2882,-136.5071"/>
<polygon fill="#191970" stroke="#191970" points="168.0989,-139.5042 175.0883,-131.5419 164.6591,-133.4077 168.0989,-139.5042"/>
</g>
<!-- Node3 -->
<g id="node4" class="node">
<title>Node3</title>
<g id="a_node4"><a xlink:href="Math_8h.html" target="_top" xlink:title="Math/Math.h">
<polygon fill="#ffffff" stroke="#000000" points="633.5,-56.5 633.5,-75.5 710.5,-75.5 710.5,-56.5 633.5,-56.5"/>
<text text-anchor="middle" x="672" y="-63.5" font-family="Helvetica,sans-Serif" font-size="10.00" fill="#000000">Math/Math.h</text>
</a>
</g>
</g>
<!-- Node1&#45;&gt;Node3 -->
<g id="edge3" class="edge">
<title>Node1&#45;&gt;Node3</title>
<path fill="none" stroke="#191970" d="M134.9456,-173.9464C147.9899,-171.7686 161.9808,-169.6215 175,-168 273.2315,-155.7657 531.5439,-178.374 619,-132 638.7832,-121.5099 653.7927,-100.125 662.7026,-84.5312"/>
<polygon fill="#191970" stroke="#191970" points="665.7882,-86.1831 667.4501,-75.7195 659.6257,-82.8629 665.7882,-86.1831"/>
</g>
<!-- Node1&#45;&gt;Node4 -->
<g id="edge6" class="edge">
<title>Node1&#45;&gt;Node4</title>
<path fill="none" stroke="#191970" d="M135.9346,-173.9485C148.7005,-171.8204 162.3169,-169.6953 175,-168 335.6955,-146.5201 389.8801,-197.9161 538,-132 545.0185,-128.8766 619.3462,-59.4866 654.1766,-26.7775"/>
<polygon fill="#191970" stroke="#191970" points="656.8477,-29.0703 661.737,-19.671 652.0534,-23.9698 656.8477,-29.0703"/>
</g>
<!-- Node5 -->
<g id="node6" class="node">
<title>Node5</title>
<polygon fill="#ffffff" stroke="#bfbfbf" points="347,-.5 347,-19.5 391,-19.5 391,-.5 347,-.5"/>
<text text-anchor="middle" x="369" y="-7.5" font-family="Helvetica,sans-Serif" font-size="10.00" fill="#000000">limits</text>
</g>
<!-- Node1&#45;&gt;Node5 -->
<g id="edge5" class="edge">
<title>Node1&#45;&gt;Node5</title>
<path fill="none" stroke="#191970" d="M82.9117,-173.8827C83.2917,-158.8181 86.1905,-129.5664 102,-112 164.8376,-42.1794 280.7373,-19.8442 336.8663,-12.9453"/>
<polygon fill="#191970" stroke="#191970" points="337.4051,-16.4066 346.9437,-11.7952 336.6113,-9.4518 337.4051,-16.4066"/>
</g>
<!-- Node6 -->
<g id="node7" class="node">
<title>Node6</title>
<g id="a_node7"><a xlink:href="eta_8h.html" target="_top" xlink:title="Math/GenVector/eta.h">
<polygon fill="#ffffff" stroke="#000000" points="407,-112.5 407,-131.5 529,-131.5 529,-112.5 407,-112.5"/>
<text text-anchor="middle" x="468" y="-119.5" font-family="Helvetica,sans-Serif" font-size="10.00" fill="#000000">Math/GenVector/eta.h</text>
</a>
</g>
</g>
<!-- Node1&#45;&gt;Node6 -->
<g id="edge7" class="edge">
<title>Node1&#45;&gt;Node6</title>
<path fill="none" stroke="#191970" d="M138.9328,-173.9737C150.8339,-171.9756 163.3295,-169.8992 175,-168 250.6681,-155.6864 337.4267,-142.1364 396.7812,-132.9532"/>
<polygon fill="#191970" stroke="#191970" points="397.4519,-136.3911 406.7998,-131.4043 396.3824,-129.4733 397.4519,-136.3911"/>
</g>
<!-- Node3&#45;&gt;Node4 -->
<g id="edge4" class="edge">
<title>Node3&#45;&gt;Node4</title>
<path fill="none" stroke="#191970" d="M672,-56.2455C672,-48.9382 672,-38.6944 672,-29.7046"/>
<polygon fill="#191970" stroke="#191970" points="675.5001,-29.6426 672,-19.6427 668.5001,-29.6427 675.5001,-29.6426"/>
</g>
<!-- Node6&#45;&gt;Node4 -->
<g id="edge12" class="edge">
<title>Node6&#45;&gt;Node4</title>
<path fill="none" stroke="#191970" d="M485.3929,-112.4509C521.2243,-92.7788 603.4481,-47.6363 645.7706,-24.4005"/>
<polygon fill="#191970" stroke="#191970" points="647.5697,-27.4056 654.6511,-19.5249 644.2009,-21.2695 647.5697,-27.4056"/>
</g>
<!-- Node6&#45;&gt;Node5 -->
<g id="edge11" class="edge">
<title>Node6&#45;&gt;Node5</title>
<path fill="none" stroke="#191970" d="M440.6036,-112.459C423.1769,-105.0615 401.4387,-93.151 388,-76 377.5548,-62.6694 372.8513,-43.815 370.7336,-29.6694"/>
<polygon fill="#191970" stroke="#191970" points="374.1844,-29.0474 369.5294,-19.53 367.2333,-29.873 374.1844,-29.0474"/>
</g>
<!-- Node7 -->
<g id="node8" class="node">
<title>Node7</title>
<g id="a_node8"><a xlink:href="etaMax_8h.html" target="_top" xlink:title="Math/GenVector/etaMax.h">
<polygon fill="#ffffff" stroke="#000000" points="397,-56.5 397,-75.5 539,-75.5 539,-56.5 397,-56.5"/>
<text text-anchor="middle" x="468" y="-63.5" font-family="Helvetica,sans-Serif" font-size="10.00" fill="#000000">Math/GenVector/etaMax.h</text>
</a>
</g>
</g>
<!-- Node6&#45;&gt;Node7 -->
<g id="edge8" class="edge">
<title>Node6&#45;&gt;Node7</title>
<path fill="none" stroke="#191970" d="M468,-112.2455C468,-104.9382 468,-94.6944 468,-85.7046"/>
<polygon fill="#191970" stroke="#191970" points="471.5001,-85.6426 468,-75.6427 464.5001,-85.6427 471.5001,-85.6426"/>
</g>
<!-- Node7&#45;&gt;Node4 -->
<g id="edge10" class="edge">
<title>Node7&#45;&gt;Node4</title>
<path fill="none" stroke="#191970" d="M503.0689,-56.3733C540.9719,-45.9685 600.9516,-29.5035 638.3091,-19.2485"/>
<polygon fill="#191970" stroke="#191970" points="639.492,-22.5533 648.2087,-16.5309 637.6389,-15.803 639.492,-22.5533"/>
</g>
<!-- Node7&#45;&gt;Node5 -->
<g id="edge9" class="edge">
<title>Node7&#45;&gt;Node5</title>
<path fill="none" stroke="#191970" d="M450.7555,-56.2455C435.4239,-47.5731 412.7801,-34.7645 395.2084,-24.825"/>
<polygon fill="#191970" stroke="#191970" points="396.4741,-21.5198 386.0469,-19.6427 393.0276,-27.6126 396.4741,-21.5198"/>
</g>
<!-- Node8&#45;&gt;Node1 -->
<g id="edge14" class="edge">
<title>Node8&#45;&gt;Node1</title>
<path fill="none" stroke="#191970" d="M732.7103,-244.0689C566.088,-231.0207 202.2229,-202.3821 175,-199 165.2352,-197.7869 154.924,-196.2766 144.8757,-194.6786"/>
<polygon fill="#191970" stroke="#191970" points="145.3779,-191.2144 134.9449,-193.0591 144.2512,-198.1231 145.3779,-191.2144"/>
</g>
<!-- Node9 -->
<g id="node10" class="node">
<title>Node9</title>
<g id="a_node10"><a xlink:href="PositionVector3Dfwd_8h.html" target="_top" xlink:title="Math/GenVector/PositionVector3\lDfwd.h">
<polygon fill="#ffffff" stroke="#000000" points="604.5,-168.5 604.5,-198.5 777.5,-198.5 777.5,-168.5 604.5,-168.5"/>
<text text-anchor="start" x="612.5" y="-186.5" font-family="Helvetica,sans-Serif" font-size="10.00" fill="#000000">Math/GenVector/PositionVector3</text>
<text text-anchor="middle" x="691" y="-175.5" font-family="Helvetica,sans-Serif" font-size="10.00" fill="#000000">Dfwd.h</text>
</a>
</g>
</g>
<!-- Node8&#45;&gt;Node9 -->
<g id="edge15" class="edge">
<title>Node8&#45;&gt;Node9</title>
<path fill="none" stroke="#191970" d="M787.172,-235.4639C769.7447,-226.0475 747.0791,-213.8008 728.1291,-203.5617"/>
<polygon fill="#191970" stroke="#191970" points="729.6259,-200.3922 719.1642,-198.7177 726.2982,-206.5507 729.6259,-200.3922"/>
</g>
<!-- Node10 -->
<g id="node11" class="node">
<title>Node10</title>
<g id="a_node11"><a xlink:href="GenVectorIO_8h.html" target="_top" xlink:title="Math/GenVector/GenVectorIO.h">
<polygon fill="#ffffff" stroke="#000000" points="1034,-174 1034,-193 1200,-193 1200,-174 1034,-174"/>
<text text-anchor="middle" x="1117" y="-181" font-family="Helvetica,sans-Serif" font-size="10.00" fill="#000000">Math/GenVector/GenVectorIO.h</text>
</a>
</g>
</g>
<!-- Node8&#45;&gt;Node10 -->
<g id="edge16" class="edge">
<title>Node8&#45;&gt;Node10</title>
<path fill="none" stroke="#191970" d="M882.7747,-235.4639C937.6035,-223.2999 1013.7221,-206.4127 1064.1205,-195.2315"/>
<polygon fill="#191970" stroke="#191970" points="1065.1507,-198.5882 1074.1553,-193.0053 1063.6346,-191.7543 1065.1507,-198.5882"/>
</g>
<!-- Node13 -->
<g id="node14" class="node">
<title>Node13</title>
<g id="a_node14"><a xlink:href="BitReproducible_8h.html" target="_top" xlink:title="Math/GenVector/BitReproducible.h">
<polygon fill="#ffffff" stroke="#000000" points="834,-174 834,-193 1016,-193 1016,-174 834,-174"/>
<text text-anchor="middle" x="925" y="-181" font-family="Helvetica,sans-Serif" font-size="10.00" fill="#000000">Math/GenVector/BitReproducible.h</text>
</a>
</g>
</g>
<!-- Node8&#45;&gt;Node13 -->
<g id="edge19" class="edge">
<title>Node8&#45;&gt;Node13</title>
<path fill="none" stroke="#191970" d="M839.6861,-235.4639C857.8102,-224.4247 882.3209,-209.4954 900.42,-198.4715"/>
<polygon fill="#191970" stroke="#191970" points="902.5126,-201.2951 909.2324,-193.1039 898.8712,-195.3167 902.5126,-201.2951"/>
</g>
<!-- Node17 -->
<g id="node18" class="node">
<title>Node17</title>
<g id="a_node18"><a xlink:href="CoordinateSystemTags_8h.html" target="_top" xlink:title="Math/GenVector/Coordinate\lSystemTags.h">
<polygon fill="#ffffff" stroke="#000000" points="436,-168.5 436,-198.5 586,-198.5 586,-168.5 436,-168.5"/>
<text text-anchor="start" x="444" y="-186.5" font-family="Helvetica,sans-Serif" font-size="10.00" fill="#000000">Math/GenVector/Coordinate</text>
<text text-anchor="middle" x="511" y="-175.5" font-family="Helvetica,sans-Serif" font-size="10.00" fill="#000000">SystemTags.h</text>
</a>
</g>
</g>
<!-- Node8&#45;&gt;Node17 -->
<g id="edge24" class="edge">
<title>Node8&#45;&gt;Node17</title>
<path fill="none" stroke="#191970" d="M746.7765,-235.4639C700.0189,-225.1588 637.8802,-211.4637 589.1333,-200.7202"/>
<polygon fill="#191970" stroke="#191970" points="589.7773,-197.2782 579.2583,-198.5438 588.2706,-204.1141 589.7773,-197.2782"/>
</g>
<!-- Node18 -->
<g id="node19" class="node">
<title>Node18</title>
<polygon fill="#ffffff" stroke="#bfbfbf" points="366,-174 366,-193 418,-193 418,-174 366,-174"/>
<text text-anchor="middle" x="392" y="-181" font-family="Helvetica,sans-Serif" font-size="10.00" fill="#000000">cassert</text>
</g>
<!-- Node8&#45;&gt;Node18 -->
<g id="edge25" class="edge">
<title>Node8&#45;&gt;Node18</title>
<path fill="none" stroke="#191970" d="M732.6334,-246.3756C653.1398,-240.8124 530.0194,-228.0033 427,-199 424.8171,-198.3854 422.5942,-197.6593 420.3808,-196.8622"/>
<polygon fill="#191970" stroke="#191970" points="421.4746,-193.5296 410.8911,-193.04 418.8593,-200.0227 421.4746,-193.5296"/>
</g>
<!-- Node11 -->
<g id="node12" class="node">
<title>Node11</title>
<polygon fill="#ffffff" stroke="#bfbfbf" points="1092.5,-112.5 1092.5,-131.5 1141.5,-131.5 1141.5,-112.5 1092.5,-112.5"/>
<text text-anchor="middle" x="1117" y="-119.5" font-family="Helvetica,sans-Serif" font-size="10.00" fill="#000000">cctype</text>
</g>
<!-- Node10&#45;&gt;Node11 -->
<g id="edge17" class="edge">
<title>Node10&#45;&gt;Node11</title>
<path fill="none" stroke="#191970" d="M1117,-173.8906C1117,-165.3657 1117,-152.6392 1117,-141.9235"/>
<polygon fill="#191970" stroke="#191970" points="1120.5001,-141.7448 1117,-131.7449 1113.5001,-141.7449 1120.5001,-141.7448"/>
</g>
<!-- Node12 -->
<g id="node13" class="node">
<title>Node12</title>
<polygon fill="#ffffff" stroke="#bfbfbf" points="1005,-112.5 1005,-131.5 1065,-131.5 1065,-112.5 1005,-112.5"/>
<text text-anchor="middle" x="1035" y="-119.5" font-family="Helvetica,sans-Serif" font-size="10.00" fill="#000000">iostream</text>
</g>
<!-- Node10&#45;&gt;Node12 -->
<g id="edge18" class="edge">
<title>Node10&#45;&gt;Node12</title>
<path fill="none" stroke="#191970" d="M1104.1875,-173.8906C1091.3099,-164.2324 1071.2416,-149.1812 1056.028,-137.771"/>
<polygon fill="#191970" stroke="#191970" points="1057.8226,-134.7419 1047.7225,-131.5419 1053.6225,-140.3419 1057.8226,-134.7419"/>
</g>
<!-- Node13&#45;&gt;Node12 -->
<g id="edge20" class="edge">
<title>Node13&#45;&gt;Node12</title>
<path fill="none" stroke="#191970" d="M942.1875,-173.8906C960.1082,-163.8713 988.4095,-148.0483 1009.0523,-136.5071"/>
<polygon fill="#191970" stroke="#191970" points="1010.9128,-139.4769 1017.9332,-131.5419 1007.4967,-133.367 1010.9128,-139.4769"/>
</g>
<!-- Node14 -->
<g id="node15" class="node">
<title>Node14</title>
<polygon fill="#ffffff" stroke="#bfbfbf" points="1256,-112.5 1256,-131.5 1300,-131.5 1300,-112.5 1256,-112.5"/>
<text text-anchor="middle" x="1278" y="-119.5" font-family="Helvetica,sans-Serif" font-size="10.00" fill="#000000">string</text>
</g>
<!-- Node13&#45;&gt;Node14 -->
<g id="edge21" class="edge">
<title>Node13&#45;&gt;Node14</title>
<path fill="none" stroke="#191970" d="M979.7689,-173.9581C1054.3048,-160.9724 1185.3116,-138.1483 1245.7653,-127.616"/>
<polygon fill="#191970" stroke="#191970" points="1246.6131,-131.0211 1255.864,-125.8566 1245.4116,-124.1249 1246.6131,-131.0211"/>
</g>
<!-- Node15 -->
<g id="node16" class="node">
<title>Node15</title>
<polygon fill="#ffffff" stroke="#bfbfbf" points="902.5,-112.5 902.5,-131.5 967.5,-131.5 967.5,-112.5 902.5,-112.5"/>
<text text-anchor="middle" x="935" y="-119.5" font-family="Helvetica,sans-Serif" font-size="10.00" fill="#000000">exception</text>
</g>
<!-- Node13&#45;&gt;Node15 -->
<g id="edge22" class="edge">
<title>Node13&#45;&gt;Node15</title>
<path fill="none" stroke="#191970" d="M926.5625,-173.8906C927.9487,-165.3657 930.018,-152.6392 931.7604,-141.9235"/>
<polygon fill="#191970" stroke="#191970" points="935.2651,-142.177 933.4155,-131.7449 928.3558,-141.0535 935.2651,-142.177"/>
</g>
<!-- Node16 -->
<g id="node17" class="node">
<title>Node16</title>
<polygon fill="#ffffff" stroke="#bfbfbf" points="828,-112.5 828,-131.5 884,-131.5 884,-112.5 828,-112.5"/>
<text text-anchor="middle" x="856" y="-119.5" font-family="Helvetica,sans-Serif" font-size="10.00" fill="#000000">iomanip</text>
</g>
<!-- Node13&#45;&gt;Node16 -->
<g id="edge23" class="edge">
<title>Node13&#45;&gt;Node16</title>
<path fill="none" stroke="#191970" d="M914.2188,-173.8906C903.6474,-164.4683 887.3175,-149.9134 874.6397,-138.6137"/>
<polygon fill="#191970" stroke="#191970" points="876.7272,-135.7858 866.9333,-131.7449 872.0696,-141.0114 876.7272,-135.7858"/>
</g>
<!-- Node19&#45;&gt;Node1 -->
<g id="edge28" class="edge">
<title>Node19&#45;&gt;Node1</title>
<path fill="none" stroke="#191970" d="M446.8551,-240.9571C379.2074,-230.8254 269.5357,-214.2077 175,-199 166.5181,-197.6355 157.6018,-196.1711 148.795,-194.7068"/>
<polygon fill="#191970" stroke="#191970" points="149.3675,-191.254 138.9275,-193.0588 148.2143,-198.1583 149.3675,-191.254"/>
</g>
<!-- Node19&#45;&gt;Node10 -->
<g id="edge29" class="edge">
<title>Node19&#45;&gt;Node10</title>
<path fill="none" stroke="#191970" d="M605.9568,-242.9055C709.2795,-234.1946 879.2265,-218.5603 1025,-199 1034.4126,-197.737 1044.3396,-196.2395 1054.0516,-194.6811"/>
<polygon fill="#191970" stroke="#191970" points="1054.7608,-198.1116 1064.0642,-193.0423 1053.6301,-191.2036 1054.7608,-198.1116"/>
</g>
<!-- Node19&#45;&gt;Node13 -->
<g id="edge30" class="edge">
<title>Node19&#45;&gt;Node13</title>
<path fill="none" stroke="#191970" d="M569.8764,-240.9717C645.3404,-228.7589 775.9595,-207.6201 856.0068,-194.6656"/>
<polygon fill="#191970" stroke="#191970" points="856.6795,-198.1023 865.9919,-193.0496 855.5611,-191.1922 856.6795,-198.1023"/>
</g>
<!-- Node19&#45;&gt;Node17 -->
<g id="edge31" class="edge">
<title>Node19&#45;&gt;Node17</title>
<path fill="none" stroke="#191970" d="M511,-240.9005C511,-232.5099 511,-219.9451 511,-208.7085"/>
<polygon fill="#191970" stroke="#191970" points="514.5001,-208.5217 511,-198.5218 507.5001,-208.5218 514.5001,-208.5217"/>
</g>
<!-- Node19&#45;&gt;Node18 -->
<g id="edge32" class="edge">
<title>Node19&#45;&gt;Node18</title>
<path fill="none" stroke="#191970" d="M493.9502,-240.9005C474.0677,-229.7062 440.9895,-211.0823 417.922,-198.0947"/>
<polygon fill="#191970" stroke="#191970" points="419.4491,-194.938 409.0182,-193.0817 416.0148,-201.0376 419.4491,-194.938"/>
</g>
<!-- Node20 -->
<g id="node21" class="node">
<title>Node20</title>
<g id="a_node21"><a xlink:href="DisplacementVector3Dfwd_8h.html" target="_top" xlink:title="Math/GenVector/Displacement\lVector3Dfwd.h">
<polygon fill="#ffffff" stroke="#000000" points="184,-168.5 184,-198.5 348,-198.5 348,-168.5 184,-168.5"/>
<text text-anchor="start" x="192" y="-186.5" font-family="Helvetica,sans-Serif" font-size="10.00" fill="#000000">Math/GenVector/Displacement</text>
<text text-anchor="middle" x="266" y="-175.5" font-family="Helvetica,sans-Serif" font-size="10.00" fill="#000000">Vector3Dfwd.h</text>
</a>
</g>
</g>
<!-- Node19&#45;&gt;Node20 -->
<g id="edge27" class="edge">
<title>Node19&#45;&gt;Node20</title>
<path fill="none" stroke="#191970" d="M476.1577,-240.9717C438.4166,-230.6507 377.3641,-213.9547 330.7641,-201.211"/>
<polygon fill="#191970" stroke="#191970" points="331.6222,-197.8172 321.0531,-198.5553 329.7757,-204.5693 331.6222,-197.8172"/>
</g>
<!-- Node21&#45;&gt;Node4 -->
<g id="edge42" class="edge">
<title>Node21&#45;&gt;Node4</title>
<path fill="none" stroke="#191970" d="M1180.0979,-302.4518C1183.3675,-287.8343 1190.0304,-259.0709 1197,-235 1201.6906,-218.7999 1206.2984,-215.6477 1209,-199 1211.207,-185.4001 1214.4381,-180.6592 1209,-168 1194.7303,-134.782 1181.9877,-128.8478 1150,-112 997.8545,-31.8654 787.0532,-14.6836 705.8015,-11.0025"/>
<polygon fill="#191970" stroke="#191970" points="705.7937,-7.4993 695.6579,-10.5838 705.505,-14.4933 705.7937,-7.4993"/>
</g>
<!-- Node21&#45;&gt;Node8 -->
<g id="edge40" class="edge">
<title>Node21&#45;&gt;Node8</title>
<path fill="none" stroke="#191970" d="M1121.6795,-302.4581C1064.4756,-292.7665 974.9262,-277.5949 907.3317,-266.143"/>
<polygon fill="#191970" stroke="#191970" points="907.547,-262.6296 897.1028,-264.41 906.3776,-269.5313 907.547,-262.6296"/>
</g>
<!-- Node21&#45;&gt;Node10 -->
<g id="edge41" class="edge">
<title>Node21&#45;&gt;Node10</title>
<path fill="none" stroke="#191970" d="M1173.4151,-302.3416C1163.3469,-281.1323 1139.1537,-230.1679 1125.9563,-202.3669"/>
<polygon fill="#191970" stroke="#191970" points="1129.0884,-200.8033 1121.6381,-193.2705 1122.7648,-203.8052 1129.0884,-200.8033"/>
</g>
<!-- Node22 -->
<g id="node23" class="node">
<title>Node22</title>
<g id="a_node23"><a xlink:href="GenVector_2PxPyPzE4D_8h.html" target="_top" xlink:title="Math/GenVector/PxPyPzE4D.h">
<polygon fill="#ffffff" stroke="#000000" points="1206.5,-241 1206.5,-260 1367.5,-260 1367.5,-241 1206.5,-241"/>
<text text-anchor="middle" x="1287" y="-248" font-family="Helvetica,sans-Serif" font-size="10.00" fill="#000000">Math/GenVector/PxPyPzE4D.h</text>
</a>
</g>
</g>
<!-- Node21&#45;&gt;Node22 -->
<g id="edge34" class="edge">
<title>Node21&#45;&gt;Node22</title>
<path fill="none" stroke="#191970" d="M1195.0313,-302.3906C1212.789,-292.3713 1240.833,-276.5483 1261.2882,-265.0071"/>
<polygon fill="#191970" stroke="#191970" points="1263.0989,-268.0042 1270.0883,-260.0419 1259.6591,-261.9077 1263.0989,-268.0042"/>
</g>
<!-- Node25 -->
<g id="node26" class="node">
<title>Node25</title>
<polygon fill="#ffffff" stroke="#bfbfbf" points="1386,-241 1386,-260 1442,-260 1442,-241 1386,-241"/>
<text text-anchor="middle" x="1414" y="-248" font-family="Helvetica,sans-Serif" font-size="10.00" fill="#000000">sstream</text>
</g>
<!-- Node21&#45;&gt;Node25 -->
<g id="edge43" class="edge">
<title>Node21&#45;&gt;Node25</title>
<path fill="none" stroke="#191970" d="M1229.0571,-302.4654C1269.4015,-294.3759 1326.8971,-281.6091 1376,-266 1378.1516,-265.316 1380.3528,-264.5639 1382.5583,-263.771"/>
<polygon fill="#191970" stroke="#191970" points="1384.0238,-266.9579 1392.1151,-260.1182 1381.5245,-260.4192 1384.0238,-266.9579"/>
</g>
<!-- Node22&#45;&gt;Node4 -->
<g id="edge39" class="edge">
<title>Node22&#45;&gt;Node4</title>
<path fill="none" stroke="#191970" d="M1346.2978,-240.9697C1370.929,-233.7669 1397.1789,-221.1361 1412,-199 1434.0736,-166.0321 1419.8535,-140.2543 1392,-112 1342.0422,-61.3234 1311.4627,-71.4543 1242,-56 1138.7037,-33.0183 812.1834,-16.4135 705.839,-11.5015"/>
<polygon fill="#191970" stroke="#191970" points="705.8288,-7.9975 695.6793,-11.0371 705.509,-14.9902 705.8288,-7.9975"/>
</g>
<!-- Node22&#45;&gt;Node6 -->
<g id="edge35" class="edge">
<title>Node22&#45;&gt;Node6</title>
<path fill="none" stroke="#191970" d="M1206.3015,-246.8779C1092.7142,-240.8699 892.0509,-226.6643 825,-199 804.5316,-190.555 806.3278,-176.7779 786,-168 742.9045,-149.3905 619.0298,-135.3681 539.2155,-127.9446"/>
<polygon fill="#191970" stroke="#191970" points="539.504,-124.4565 529.2261,-127.0285 538.8647,-131.4272 539.504,-124.4565"/>
</g>
<!-- Node23 -->
<g id="node24" class="node">
<title>Node23</title>
<g id="a_node24"><a xlink:href="GenVector__exception_8h.html" target="_top" xlink:title="Math/GenVector/GenVector\l_exception.h">
<polygon fill="#ffffff" stroke="#000000" points="1256.5,-168.5 1256.5,-198.5 1403.5,-198.5 1403.5,-168.5 1256.5,-168.5"/>
<text text-anchor="start" x="1264.5" y="-186.5" font-family="Helvetica,sans-Serif" font-size="10.00" fill="#000000">Math/GenVector/GenVector</text>
<text text-anchor="middle" x="1330" y="-175.5" font-family="Helvetica,sans-Serif" font-size="10.00" fill="#000000">_exception.h</text>
</a>
</g>
</g>
<!-- Node22&#45;&gt;Node23 -->
<g id="edge36" class="edge">
<title>Node22&#45;&gt;Node23</title>
<path fill="none" stroke="#191970" d="M1293.1609,-240.9005C1298.8235,-232.0773 1307.4483,-218.6387 1314.9293,-206.9822"/>
<polygon fill="#191970" stroke="#191970" points="1317.9035,-208.8281 1320.3592,-198.5218 1312.0123,-205.0472 1317.9035,-208.8281"/>
</g>
<!-- Node23&#45;&gt;Node14 -->
<g id="edge38" class="edge">
<title>Node23&#45;&gt;Node14</title>
<path fill="none" stroke="#191970" d="M1317.1461,-168.2977C1309.7776,-159.5831 1300.4974,-148.6075 1292.8223,-139.5302"/>
<polygon fill="#191970" stroke="#191970" points="1295.4552,-137.2233 1286.3259,-131.8469 1290.1098,-141.743 1295.4552,-137.2233"/>
</g>
<!-- Node24 -->
<g id="node25" class="node">
<title>Node24</title>
<polygon fill="#ffffff" stroke="#bfbfbf" points="1318.5,-112.5 1318.5,-131.5 1383.5,-131.5 1383.5,-112.5 1318.5,-112.5"/>
<text text-anchor="middle" x="1351" y="-119.5" font-family="Helvetica,sans-Serif" font-size="10.00" fill="#000000">stdexcept</text>
</g>
<!-- Node23&#45;&gt;Node24 -->
<g id="edge37" class="edge">
<title>Node23&#45;&gt;Node24</title>
<path fill="none" stroke="#191970" d="M1335.191,-168.2977C1337.9542,-160.2055 1341.3831,-150.1639 1344.3405,-141.5029"/>
<polygon fill="#191970" stroke="#191970" points="1347.7184,-142.4415 1347.6376,-131.8469 1341.0939,-140.1794 1347.7184,-142.4415"/>
</g>
<!-- Node27 -->
<g id="node28" class="node">
<title>Node27</title>
<g id="a_node28"><a xlink:href="Rotation3Dfwd_8h.html" target="_top" xlink:title="Math/GenVector/Rotation3\lDfwd.h">
<polygon fill="#ffffff" stroke="#000000" points="1686.5,-235.5 1686.5,-265.5 1829.5,-265.5 1829.5,-235.5 1686.5,-235.5"/>
<text text-anchor="start" x="1694.5" y="-253.5" font-family="Helvetica,sans-Serif" font-size="10.00" fill="#000000">Math/GenVector/Rotation3</text>
<text text-anchor="middle" x="1758" y="-242.5" font-family="Helvetica,sans-Serif" font-size="10.00" fill="#000000">Dfwd.h</text>
</a>
</g>
</g>
<!-- Node26&#45;&gt;Node27 -->
<g id="edge45" class="edge">
<title>Node26&#45;&gt;Node27</title>
<path fill="none" stroke="#191970" d="M2065.2334,-302.4641C2008.2462,-293.9212 1922.7803,-280.741 1839.3988,-266.215"/>
<polygon fill="#191970" stroke="#191970" points="1839.9601,-262.7601 1829.5063,-264.4834 1838.7531,-269.6552 1839.9601,-262.7601"/>
</g>
<!-- Node28 -->
<g id="node29" class="node">
<title>Node28</title>
<g id="a_node29"><a xlink:href="AxisAnglefwd_8h.html" target="_top" xlink:title="Math/GenVector/AxisAnglefwd.h">
<polygon fill="#ffffff" stroke="#000000" points="1847.5,-241 1847.5,-260 2020.5,-260 2020.5,-241 1847.5,-241"/>
<text text-anchor="middle" x="1934" y="-248" font-family="Helvetica,sans-Serif" font-size="10.00" fill="#000000">Math/GenVector/AxisAnglefwd.h</text>
</a>
</g>
</g>
<!-- Node26&#45;&gt;Node28 -->
<g id="edge46" class="edge">
<title>Node26&#45;&gt;Node28</title>
<path fill="none" stroke="#191970" d="M2099.375,-302.3906C2065.7176,-291.8298 2011.5101,-274.8208 1974.3941,-263.1747"/>
<polygon fill="#191970" stroke="#191970" points="1974.9991,-259.6963 1964.4099,-260.0419 1972.9034,-266.3753 1974.9991,-259.6963"/>
</g>
<!-- Node29 -->
<g id="node30" class="node">
<title>Node29</title>
<g id="a_node30"><a xlink:href="EulerAnglesfwd_8h.html" target="_top" xlink:title="Math/GenVector/EulerAnglesfwd.h">
<polygon fill="#ffffff" stroke="#000000" points="2039,-241 2039,-260 2221,-260 2221,-241 2039,-241"/>
<text text-anchor="middle" x="2130" y="-248" font-family="Helvetica,sans-Serif" font-size="10.00" fill="#000000">Math/GenVector/EulerAnglesfwd.h</text>
</a>
</g>
</g>
<!-- Node26&#45;&gt;Node29 -->
<g id="edge47" class="edge">
<title>Node26&#45;&gt;Node29</title>
<path fill="none" stroke="#191970" d="M2130,-302.3906C2130,-293.8657 2130,-281.1392 2130,-270.4235"/>
<polygon fill="#191970" stroke="#191970" points="2133.5001,-270.2448 2130,-260.2449 2126.5001,-270.2449 2133.5001,-270.2448"/>
</g>
<!-- Node30 -->
<g id="node31" class="node">
<title>Node30</title>
<g id="a_node31"><a xlink:href="Quaternionfwd_8h.html" target="_top" xlink:title="Math/GenVector/Quaternionfwd.h">
<polygon fill="#ffffff" stroke="#000000" points="2239,-241 2239,-260 2417,-260 2417,-241 2239,-241"/>
<text text-anchor="middle" x="2328" y="-248" font-family="Helvetica,sans-Serif" font-size="10.00" fill="#000000">Math/GenVector/Quaternionfwd.h</text>
</a>
</g>
</g>
<!-- Node26&#45;&gt;Node30 -->
<g id="edge48" class="edge">
<title>Node26&#45;&gt;Node30</title>
<path fill="none" stroke="#191970" d="M2160.9375,-302.3906C2195.0837,-291.7846 2250.1674,-274.6753 2287.6735,-263.0257"/>
<polygon fill="#191970" stroke="#191970" points="2288.768,-266.3507 2297.2797,-260.0419 2286.6916,-259.6658 2288.768,-266.3507"/>
</g>
<!-- Node31 -->
<g id="node32" class="node">
<title>Node31</title>
<g id="a_node32"><a xlink:href="RotationZYXfwd_8h.html" target="_top" xlink:title="Math/GenVector/RotationZYXfwd.h">
<polygon fill="#ffffff" stroke="#000000" points="2435,-241 2435,-260 2619,-260 2619,-241 2435,-241"/>
<text text-anchor="middle" x="2527" y="-248" font-family="Helvetica,sans-Serif" font-size="10.00" fill="#000000">Math/GenVector/RotationZYXfwd.h</text>
</a>
</g>
</g>
<!-- Node26&#45;&gt;Node31 -->
<g id="edge49" class="edge">
<title>Node26&#45;&gt;Node31</title>
<path fill="none" stroke="#191970" d="M2191.5957,-302.4581C2262.8388,-291.4217 2379.9558,-273.2789 2455.249,-261.6151"/>
<polygon fill="#191970" stroke="#191970" points="2456.2402,-265.0034 2465.5865,-260.0137 2455.1685,-258.0859 2456.2402,-265.0034"/>
</g>
<!-- Node32 -->
<g id="node33" class="node">
<title>Node32</title>
<g id="a_node33"><a xlink:href="RotationXfwd_8h.html" target="_top" xlink:title="Math/GenVector/RotationXfwd.h">
<polygon fill="#ffffff" stroke="#000000" points="2637.5,-241 2637.5,-260 2808.5,-260 2808.5,-241 2637.5,-241"/>
<text text-anchor="middle" x="2723" y="-248" font-family="Helvetica,sans-Serif" font-size="10.00" fill="#000000">Math/GenVector/RotationXfwd.h</text>
</a>
</g>
</g>
<!-- Node26&#45;&gt;Node32 -->
<g id="edge50" class="edge">
<title>Node26&#45;&gt;Node32</title>
<path fill="none" stroke="#191970" d="M2213.903,-306.0422C2313.0438,-298.5881 2482.8743,-284.519 2628,-266 2637.946,-264.7308 2648.4484,-263.2051 2658.6999,-261.6129"/>
<polygon fill="#191970" stroke="#191970" points="2659.5094,-265.0283 2668.8379,-260.0055 2658.4132,-258.1147 2659.5094,-265.0283"/>
</g>
<!-- Node33 -->
<g id="node34" class="node">
<title>Node33</title>
<g id="a_node34"><a xlink:href="RotationYfwd_8h.html" target="_top" xlink:title="Math/GenVector/RotationYfwd.h">
<polygon fill="#ffffff" stroke="#000000" points="1498,-241 1498,-260 1668,-260 1668,-241 1498,-241"/>
<text text-anchor="middle" x="1583" y="-248" font-family="Helvetica,sans-Serif" font-size="10.00" fill="#000000">Math/GenVector/RotationYfwd.h</text>
</a>
</g>
</g>
<!-- Node26&#45;&gt;Node33 -->
<g id="edge51" class="edge">
<title>Node26&#45;&gt;Node33</title>
<path fill="none" stroke="#191970" d="M2046.3263,-305.0739C1955.2775,-297.1713 1805.5093,-283.1031 1677,-266 1667.2858,-264.7072 1657.0329,-263.1825 1647.0111,-261.6025"/>
<polygon fill="#191970" stroke="#191970" points="1647.5231,-258.14 1637.0948,-260.0107 1646.4136,-265.0515 1647.5231,-258.14"/>
</g>
<!-- Node26&#45;&gt;Node34 -->
<g id="edge52" class="edge">
<title>Node26&#45;&gt;Node34</title>
<path fill="none" stroke="#191970" d="M2213.637,-309.0169C2343.3758,-303.8018 2600.8239,-291.1062 2818,-266 2828.3345,-264.8053 2839.2651,-263.262 2849.8752,-261.6135"/>
<polygon fill="#191970" stroke="#191970" points="2850.597,-265.0426 2859.9195,-260.0087 2849.4925,-258.1303 2850.597,-265.0426"/>
</g>
</g>
</svg>
