<?xml version="1.0" encoding="UTF-8" standalone="no"?>
<!DOCTYPE svg PUBLIC "-//W3C//DTD SVG 1.1//EN"
 "http://www.w3.org/Graphics/SVG/1.1/DTD/svg11.dtd">
<!-- Generated by graphviz version 2.40.1 (0)
 -->
<!-- Title: math/genvector/inc/Math/GenVector/RotationZ.h Pages: 1 -->
<svg width="1054pt" height="106pt"
 viewBox="0.00 0.00 1054.00 106.00" xmlns="http://www.w3.org/2000/svg" xmlns:xlink="http://www.w3.org/1999/xlink">
<g id="graph0" class="graph" transform="scale(1 1) rotate(0) translate(4 102)">
<title>math/genvector/inc/Math/GenVector/RotationZ.h</title>
<polygon fill="#ffffff" stroke="transparent" points="-4,4 -4,-102 1050,-102 1050,4 -4,4"/>
<!-- Node35 -->
<g id="node1" class="node">
<title>Node35</title>
<polygon fill="#bfbfbf" stroke="#000000" points="438.5,-67.5 438.5,-97.5 594.5,-97.5 594.5,-67.5 438.5,-67.5"/>
<text text-anchor="start" x="446.5" y="-85.5" font-family="Helvetica,sans-Serif" font-size="10.00" fill="#000000">math/genvector/inc</text>
<text text-anchor="middle" x="516.5" y="-74.5" font-family="Helvetica,sans-Serif" font-size="10.00" fill="#000000">/Math/GenVector/RotationZ.h</text>
</g>
<!-- Node36 -->
<g id="node2" class="node">
<title>Node36</title>
<g id="a_node2"><a xlink:href="RotationZ_8h.html" target="_top" xlink:title="math/genvector/inc\l/Math/RotationZ.h">
<polygon fill="#ffffff" stroke="#000000" points="0,-.5 0,-30.5 111,-30.5 111,-.5 0,-.5"/>
<text text-anchor="start" x="8" y="-18.5" font-family="Helvetica,sans-Serif" font-size="10.00" fill="#000000">math/genvector/inc</text>
<text text-anchor="middle" x="55.5" y="-7.5" font-family="Helvetica,sans-Serif" font-size="10.00" fill="#000000">/Math/RotationZ.h</text>
</a>
</g>
</g>
<!-- Node35&#45;&gt;Node36 -->
<g id="edge1" class="edge">
<title>Node35&#45;&gt;Node36</title>
<path fill="none" stroke="#191970" d="M428.0157,-73.8058C347.2762,-65.2136 224.8456,-50.5299 119.5,-31 116.8022,-30.4999 114.0478,-29.9573 111.271,-29.3846"/>
<polygon fill="#191970" stroke="#191970" points="427.8297,-77.3055 438.1419,-74.8748 428.5646,-70.3442 427.8297,-77.3055"/>
</g>
<!-- Node37 -->
<g id="node3" class="node">
<title>Node37</title>
<g id="a_node3"><a xlink:href="3DConversions_8cxx.html" target="_top" xlink:title="math/genvector/src\l/3DConversions.cxx">
<polygon fill="#ffffff" stroke="#000000" points="129,-.5 129,-30.5 242,-30.5 242,-.5 129,-.5"/>
<text text-anchor="start" x="137" y="-18.5" font-family="Helvetica,sans-Serif" font-size="10.00" fill="#000000">math/genvector/src</text>
<text text-anchor="middle" x="185.5" y="-7.5" font-family="Helvetica,sans-Serif" font-size="10.00" fill="#000000">/3DConversions.cxx</text>
</a>
</g>
</g>
<!-- Node35&#45;&gt;Node37 -->
<g id="edge2" class="edge">
<title>Node35&#45;&gt;Node37</title>
<path fill="none" stroke="#191970" d="M428.4937,-66.441C376.5852,-56.7249 309.6766,-43.7781 250.5,-31 247.7785,-30.4123 244.9959,-29.7986 242.1877,-29.1689"/>
<polygon fill="#191970" stroke="#191970" points="427.8646,-69.884 438.3371,-68.2784 429.1492,-63.0028 427.8646,-69.884"/>
</g>
<!-- Node38 -->
<g id="node4" class="node">
<title>Node38</title>
<g id="a_node4"><a xlink:href="3DDistances_8cxx.html" target="_top" xlink:title="math/genvector/src\l/3DDistances.cxx">
<polygon fill="#ffffff" stroke="#000000" points="260,-.5 260,-30.5 371,-30.5 371,-.5 260,-.5"/>
<text text-anchor="start" x="268" y="-18.5" font-family="Helvetica,sans-Serif" font-size="10.00" fill="#000000">math/genvector/src</text>
<text text-anchor="middle" x="315.5" y="-7.5" font-family="Helvetica,sans-Serif" font-size="10.00" fill="#000000">/3DDistances.cxx</text>
</a>
</g>
</g>
<!-- Node35&#45;&gt;Node38 -->
<g id="edge3" class="edge">
<title>Node35&#45;&gt;Node38</title>
<path fill="none" stroke="#191970" d="M461.8277,-64.2759C430.1496,-53.7165 390.7415,-40.5805 360.8051,-30.6017"/>
<polygon fill="#191970" stroke="#191970" points="460.798,-67.6219 471.3917,-67.4639 463.0117,-60.9812 460.798,-67.6219"/>
</g>
<!-- Node39 -->
<g id="node5" class="node">
<title>Node39</title>
<g id="a_node5"><a xlink:href="AxisAngleXother_8cxx.html" target="_top" xlink:title="math/genvector/src\l/AxisAngleXother.cxx">
<polygon fill="#ffffff" stroke="#000000" points="389.5,-.5 389.5,-30.5 509.5,-30.5 509.5,-.5 389.5,-.5"/>
<text text-anchor="start" x="397.5" y="-18.5" font-family="Helvetica,sans-Serif" font-size="10.00" fill="#000000">math/genvector/src</text>
<text text-anchor="middle" x="449.5" y="-7.5" font-family="Helvetica,sans-Serif" font-size="10.00" fill="#000000">/AxisAngleXother.cxx</text>
</a>
</g>
</g>
<!-- Node35&#45;&gt;Node39 -->
<g id="edge4" class="edge">
<title>Node35&#45;&gt;Node39</title>
<path fill="none" stroke="#191970" d="M494.2113,-60.2113C484.5009,-50.5009 473.3698,-39.3698 464.6432,-30.6432"/>
<polygon fill="#191970" stroke="#191970" points="491.7507,-62.7004 501.2967,-67.2967 496.7004,-57.7507 491.7507,-62.7004"/>
</g>
<!-- Node40 -->
<g id="node6" class="node">
<title>Node40</title>
<g id="a_node6"><a xlink:href="EulerAngles_8cxx.html" target="_top" xlink:title="math/genvector/src\l/EulerAngles.cxx">
<polygon fill="#ffffff" stroke="#000000" points="528,-.5 528,-30.5 639,-30.5 639,-.5 528,-.5"/>
<text text-anchor="start" x="536" y="-18.5" font-family="Helvetica,sans-Serif" font-size="10.00" fill="#000000">math/genvector/src</text>
<text text-anchor="middle" x="583.5" y="-7.5" font-family="Helvetica,sans-Serif" font-size="10.00" fill="#000000">/EulerAngles.cxx</text>
</a>
</g>
</g>
<!-- Node35&#45;&gt;Node40 -->
<g id="edge5" class="edge">
<title>Node35&#45;&gt;Node40</title>
<path fill="none" stroke="#191970" d="M538.7887,-60.2113C548.4991,-50.5009 559.6302,-39.3698 568.3568,-30.6432"/>
<polygon fill="#191970" stroke="#191970" points="536.2996,-57.7507 531.7033,-67.2967 541.2493,-62.7004 536.2996,-57.7507"/>
</g>
<!-- Node41 -->
<g id="node7" class="node">
<title>Node41</title>
<g id="a_node7"><a xlink:href="LorentzRotation_8cxx.html" target="_top" xlink:title="math/genvector/src\l/LorentzRotation.cxx">
<polygon fill="#ffffff" stroke="#000000" points="657.5,-.5 657.5,-30.5 773.5,-30.5 773.5,-.5 657.5,-.5"/>
<text text-anchor="start" x="665.5" y="-18.5" font-family="Helvetica,sans-Serif" font-size="10.00" fill="#000000">math/genvector/src</text>
<text text-anchor="middle" x="715.5" y="-7.5" font-family="Helvetica,sans-Serif" font-size="10.00" fill="#000000">/LorentzRotation.cxx</text>
</a>
</g>
</g>
<!-- Node35&#45;&gt;Node41 -->
<g id="edge6" class="edge">
<title>Node35&#45;&gt;Node41</title>
<path fill="none" stroke="#191970" d="M571.0342,-64.1392C602.3274,-53.6033 641.135,-40.5375 670.6457,-30.6017"/>
<polygon fill="#191970" stroke="#191970" points="569.5199,-60.9559 561.1595,-67.4639 571.7536,-67.59 569.5199,-60.9559"/>
</g>
<!-- Node42 -->
<g id="node8" class="node">
<title>Node42</title>
<g id="a_node8"><a xlink:href="Rotation3DxAxial_8cxx.html" target="_top" xlink:title="math/genvector/src\l/Rotation3DxAxial.cxx">
<polygon fill="#ffffff" stroke="#000000" points="792,-.5 792,-30.5 917,-30.5 917,-.5 792,-.5"/>
<text text-anchor="start" x="800" y="-18.5" font-family="Helvetica,sans-Serif" font-size="10.00" fill="#000000">math/genvector/src</text>
<text text-anchor="middle" x="854.5" y="-7.5" font-family="Helvetica,sans-Serif" font-size="10.00" fill="#000000">/Rotation3DxAxial.cxx</text>
</a>
</g>
</g>
<!-- Node35&#45;&gt;Node42 -->
<g id="edge7" class="edge">
<title>Node35&#45;&gt;Node42</title>
<path fill="none" stroke="#191970" d="M604.4044,-65.9566C656.2782,-56.0754 723.1862,-43.125 782.5,-31 785.5066,-30.3854 788.5822,-29.7498 791.6875,-29.1026"/>
<polygon fill="#191970" stroke="#191970" points="603.7379,-62.5205 594.5682,-67.8278 605.0461,-69.3972 603.7379,-62.5205"/>
</g>
<!-- Node43 -->
<g id="node9" class="node">
<title>Node43</title>
<g id="a_node9"><a xlink:href="RotationZYX_8cxx.html" target="_top" xlink:title="math/genvector/src\l/RotationZYX.cxx">
<polygon fill="#ffffff" stroke="#000000" points="935,-.5 935,-30.5 1046,-30.5 1046,-.5 935,-.5"/>
<text text-anchor="start" x="943" y="-18.5" font-family="Helvetica,sans-Serif" font-size="10.00" fill="#000000">math/genvector/src</text>
<text text-anchor="middle" x="990.5" y="-7.5" font-family="Helvetica,sans-Serif" font-size="10.00" fill="#000000">/RotationZYX.cxx</text>
</a>
</g>
</g>
<!-- Node35&#45;&gt;Node43 -->
<g id="edge8" class="edge">
<title>Node35&#45;&gt;Node43</title>
<path fill="none" stroke="#191970" d="M604.9267,-74.2999C688.2617,-65.8862 816.4242,-51.1765 926.5,-31 929.1988,-30.5053 931.9541,-29.9672 934.7315,-29.398"/>
<polygon fill="#191970" stroke="#191970" points="604.3394,-70.8411 594.7378,-75.3197 605.0367,-77.8063 604.3394,-70.8411"/>
</g>
</g>
</svg>
