<?xml version="1.0" encoding="UTF-8" standalone="no"?>
<!DOCTYPE svg PUBLIC "-//W3C//DTD SVG 1.1//EN"
 "http://www.w3.org/Graphics/SVG/1.1/DTD/svg11.dtd">
<!-- Generated by graphviz version 2.40.1 (0)
 -->
<!-- Title: math/genvector/inc/Math/GenVector/Quaternion.h Pages: 1 -->
<svg width="1048pt" height="106pt"
 viewBox="0.00 0.00 1048.00 106.00" xmlns="http://www.w3.org/2000/svg" xmlns:xlink="http://www.w3.org/1999/xlink">
<g id="graph0" class="graph" transform="scale(1 1) rotate(0) translate(4 102)">
<title>math/genvector/inc/Math/GenVector/Quaternion.h</title>
<polygon fill="#ffffff" stroke="transparent" points="-4,4 -4,-102 1044,-102 1044,4 -4,4"/>
<!-- Node37 -->
<g id="node1" class="node">
<title>Node37</title>
<polygon fill="#bfbfbf" stroke="#000000" points="435,-67.5 435,-97.5 598,-97.5 598,-67.5 435,-67.5"/>
<text text-anchor="start" x="443" y="-85.5" font-family="Helvetica,sans-Serif" font-size="10.00" fill="#000000">math/genvector/inc</text>
<text text-anchor="middle" x="516.5" y="-74.5" font-family="Helvetica,sans-Serif" font-size="10.00" fill="#000000">/Math/GenVector/Quaternion.h</text>
</g>
<!-- Node38 -->
<g id="node2" class="node">
<title>Node38</title>
<g id="a_node2"><a xlink:href="Quaternion_8h.html" target="_top" xlink:title="math/genvector/inc\l/Math/Quaternion.h">
<polygon fill="#ffffff" stroke="#000000" points="0,-.5 0,-30.5 111,-30.5 111,-.5 0,-.5"/>
<text text-anchor="start" x="8" y="-18.5" font-family="Helvetica,sans-Serif" font-size="10.00" fill="#000000">math/genvector/inc</text>
<text text-anchor="middle" x="55.5" y="-7.5" font-family="Helvetica,sans-Serif" font-size="10.00" fill="#000000">/Math/Quaternion.h</text>
</a>
</g>
</g>
<!-- Node37&#45;&gt;Node38 -->
<g id="edge1" class="edge">
<title>Node37&#45;&gt;Node38</title>
<path fill="none" stroke="#191970" d="M424.601,-73.4414C343.8523,-64.8016 223.3711,-50.2565 119.5,-31 116.8022,-30.4999 114.0478,-29.9573 111.271,-29.3846"/>
<polygon fill="#191970" stroke="#191970" points="424.4258,-76.9424 434.7394,-74.5175 425.1647,-69.9815 424.4258,-76.9424"/>
</g>
<!-- Node39 -->
<g id="node3" class="node">
<title>Node39</title>
<g id="a_node3"><a xlink:href="3DConversions_8cxx.html" target="_top" xlink:title="math/genvector/src\l/3DConversions.cxx">
<polygon fill="#ffffff" stroke="#000000" points="129,-.5 129,-30.5 242,-30.5 242,-.5 129,-.5"/>
<text text-anchor="start" x="137" y="-18.5" font-family="Helvetica,sans-Serif" font-size="10.00" fill="#000000">math/genvector/src</text>
<text text-anchor="middle" x="185.5" y="-7.5" font-family="Helvetica,sans-Serif" font-size="10.00" fill="#000000">/3DConversions.cxx</text>
</a>
</g>
</g>
<!-- Node37&#45;&gt;Node39 -->
<g id="edge2" class="edge">
<title>Node37&#45;&gt;Node39</title>
<path fill="none" stroke="#191970" d="M424.7416,-65.738C373.3872,-56.1054 308.2604,-43.4723 250.5,-31 247.7785,-30.4123 244.9959,-29.7986 242.1877,-29.1689"/>
<polygon fill="#191970" stroke="#191970" points="424.3495,-69.2253 434.8225,-67.6236 425.6365,-62.3446 424.3495,-69.2253"/>
</g>
<!-- Node40 -->
<g id="node4" class="node">
<title>Node40</title>
<g id="a_node4"><a xlink:href="3DDistances_8cxx.html" target="_top" xlink:title="math/genvector/src\l/3DDistances.cxx">
<polygon fill="#ffffff" stroke="#000000" points="260,-.5 260,-30.5 371,-30.5 371,-.5 260,-.5"/>
<text text-anchor="start" x="268" y="-18.5" font-family="Helvetica,sans-Serif" font-size="10.00" fill="#000000">math/genvector/src</text>
<text text-anchor="middle" x="315.5" y="-7.5" font-family="Helvetica,sans-Serif" font-size="10.00" fill="#000000">/3DDistances.cxx</text>
</a>
</g>
</g>
<!-- Node37&#45;&gt;Node40 -->
<g id="edge3" class="edge">
<title>Node37&#45;&gt;Node40</title>
<path fill="none" stroke="#191970" d="M461.8277,-64.2759C430.1496,-53.7165 390.7415,-40.5805 360.8051,-30.6017"/>
<polygon fill="#191970" stroke="#191970" points="460.798,-67.6219 471.3917,-67.4639 463.0117,-60.9812 460.798,-67.6219"/>
</g>
<!-- Node41 -->
<g id="node5" class="node">
<title>Node41</title>
<g id="a_node5"><a xlink:href="AxisAngleXother_8cxx.html" target="_top" xlink:title="math/genvector/src\l/AxisAngleXother.cxx">
<polygon fill="#ffffff" stroke="#000000" points="389.5,-.5 389.5,-30.5 509.5,-30.5 509.5,-.5 389.5,-.5"/>
<text text-anchor="start" x="397.5" y="-18.5" font-family="Helvetica,sans-Serif" font-size="10.00" fill="#000000">math/genvector/src</text>
<text text-anchor="middle" x="449.5" y="-7.5" font-family="Helvetica,sans-Serif" font-size="10.00" fill="#000000">/AxisAngleXother.cxx</text>
</a>
</g>
</g>
<!-- Node37&#45;&gt;Node41 -->
<g id="edge4" class="edge">
<title>Node37&#45;&gt;Node41</title>
<path fill="none" stroke="#191970" d="M494.2113,-60.2113C484.5009,-50.5009 473.3698,-39.3698 464.6432,-30.6432"/>
<polygon fill="#191970" stroke="#191970" points="491.7507,-62.7004 501.2967,-67.2967 496.7004,-57.7507 491.7507,-62.7004"/>
</g>
<!-- Node42 -->
<g id="node6" class="node">
<title>Node42</title>
<g id="a_node6"><a xlink:href="EulerAngles_8cxx.html" target="_top" xlink:title="math/genvector/src\l/EulerAngles.cxx">
<polygon fill="#ffffff" stroke="#000000" points="528,-.5 528,-30.5 639,-30.5 639,-.5 528,-.5"/>
<text text-anchor="start" x="536" y="-18.5" font-family="Helvetica,sans-Serif" font-size="10.00" fill="#000000">math/genvector/src</text>
<text text-anchor="middle" x="583.5" y="-7.5" font-family="Helvetica,sans-Serif" font-size="10.00" fill="#000000">/EulerAngles.cxx</text>
</a>
</g>
</g>
<!-- Node37&#45;&gt;Node42 -->
<g id="edge5" class="edge">
<title>Node37&#45;&gt;Node42</title>
<path fill="none" stroke="#191970" d="M538.7887,-60.2113C548.4991,-50.5009 559.6302,-39.3698 568.3568,-30.6432"/>
<polygon fill="#191970" stroke="#191970" points="536.2996,-57.7507 531.7033,-67.2967 541.2493,-62.7004 536.2996,-57.7507"/>
</g>
<!-- Node43 -->
<g id="node7" class="node">
<title>Node43</title>
<g id="a_node7"><a xlink:href="Quaternion_8cxx.html" target="_top" xlink:title="math/genvector/src\l/Quaternion.cxx">
<polygon fill="#ffffff" stroke="#000000" points="657,-.5 657,-30.5 768,-30.5 768,-.5 657,-.5"/>
<text text-anchor="start" x="665" y="-18.5" font-family="Helvetica,sans-Serif" font-size="10.00" fill="#000000">math/genvector/src</text>
<text text-anchor="middle" x="712.5" y="-7.5" font-family="Helvetica,sans-Serif" font-size="10.00" fill="#000000">/Quaternion.cxx</text>
</a>
</g>
</g>
<!-- Node37&#45;&gt;Node43 -->
<g id="edge6" class="edge">
<title>Node37&#45;&gt;Node43</title>
<path fill="none" stroke="#191970" d="M570.2121,-64.1392C601.0335,-53.6033 639.256,-40.5375 668.3219,-30.6017"/>
<polygon fill="#191970" stroke="#191970" points="568.8165,-60.9174 560.4862,-67.4639 571.0808,-67.5411 568.8165,-60.9174"/>
</g>
<!-- Node44 -->
<g id="node8" class="node">
<title>Node44</title>
<g id="a_node8"><a xlink:href="QuaternionXaxial_8cxx.html" target="_top" xlink:title="math/genvector/src\l/QuaternionXaxial.cxx">
<polygon fill="#ffffff" stroke="#000000" points="786,-.5 786,-30.5 911,-30.5 911,-.5 786,-.5"/>
<text text-anchor="start" x="794" y="-18.5" font-family="Helvetica,sans-Serif" font-size="10.00" fill="#000000">math/genvector/src</text>
<text text-anchor="middle" x="848.5" y="-7.5" font-family="Helvetica,sans-Serif" font-size="10.00" fill="#000000">/QuaternionXaxial.cxx</text>
</a>
</g>
</g>
<!-- Node37&#45;&gt;Node44 -->
<g id="edge7" class="edge">
<title>Node37&#45;&gt;Node44</title>
<path fill="none" stroke="#191970" d="M604.744,-65.546C655.3553,-55.7076 720.0561,-42.9364 777.5,-31 780.2176,-30.4353 782.9925,-29.8532 785.7947,-29.2608"/>
<polygon fill="#191970" stroke="#191970" points="603.9655,-62.1317 594.8159,-67.4734 605.2997,-69.0034 603.9655,-62.1317"/>
</g>
<!-- Node45 -->
<g id="node9" class="node">
<title>Node45</title>
<g id="a_node9"><a xlink:href="RotationZYX_8cxx.html" target="_top" xlink:title="math/genvector/src\l/RotationZYX.cxx">
<polygon fill="#ffffff" stroke="#000000" points="929,-.5 929,-30.5 1040,-30.5 1040,-.5 929,-.5"/>
<text text-anchor="start" x="937" y="-18.5" font-family="Helvetica,sans-Serif" font-size="10.00" fill="#000000">math/genvector/src</text>
<text text-anchor="middle" x="984.5" y="-7.5" font-family="Helvetica,sans-Serif" font-size="10.00" fill="#000000">/RotationZYX.cxx</text>
</a>
</g>
</g>
<!-- Node37&#45;&gt;Node45 -->
<g id="edge8" class="edge">
<title>Node37&#45;&gt;Node45</title>
<path fill="none" stroke="#191970" d="M608.2221,-73.7366C690.3995,-65.1905 814.0307,-50.6165 920.5,-31 923.1983,-30.5028 925.9532,-29.9627 928.7304,-29.3919"/>
<polygon fill="#191970" stroke="#191970" points="607.7482,-70.2668 598.1601,-74.7744 608.4664,-77.2298 607.7482,-70.2668"/>
</g>
</g>
</svg>
