<?xml version="1.0" encoding="UTF-8" standalone="no"?>
<!DOCTYPE svg PUBLIC "-//W3C//DTD SVG 1.1//EN"
 "http://www.w3.org/Graphics/SVG/1.1/DTD/svg11.dtd">
<!-- Generated by graphviz version 2.40.1 (0)
 -->
<!-- Title: math/genvector/inc/Math/GenVector/BoostZ.h Pages: 1 -->
<svg width="642pt" height="240pt"
 viewBox="0.00 0.00 641.50 240.00" xmlns="http://www.w3.org/2000/svg" xmlns:xlink="http://www.w3.org/1999/xlink">
<g id="graph0" class="graph" transform="scale(1 1) rotate(0) translate(4 236)">
<title>math/genvector/inc/Math/GenVector/BoostZ.h</title>
<polygon fill="#ffffff" stroke="transparent" points="-4,4 -4,-236 637.5,-236 637.5,4 -4,4"/>
<!-- Node24 -->
<g id="node1" class="node">
<title>Node24</title>
<polygon fill="#bfbfbf" stroke="#000000" points="153.5,-201.5 153.5,-231.5 296.5,-231.5 296.5,-201.5 153.5,-201.5"/>
<text text-anchor="start" x="161.5" y="-219.5" font-family="Helvetica,sans-Serif" font-size="10.00" fill="#000000">math/genvector/inc</text>
<text text-anchor="middle" x="225" y="-208.5" font-family="Helvetica,sans-Serif" font-size="10.00" fill="#000000">/Math/GenVector/BoostZ.h</text>
</g>
<!-- Node25 -->
<g id="node2" class="node">
<title>Node25</title>
<g id="a_node2"><a xlink:href="BoostZ_8h.html" target="_top" xlink:title="math/genvector/inc\l/Math/BoostZ.h">
<polygon fill="#ffffff" stroke="#000000" points="37.5,-134.5 37.5,-164.5 148.5,-164.5 148.5,-134.5 37.5,-134.5"/>
<text text-anchor="start" x="45.5" y="-152.5" font-family="Helvetica,sans-Serif" font-size="10.00" fill="#000000">math/genvector/inc</text>
<text text-anchor="middle" x="93" y="-141.5" font-family="Helvetica,sans-Serif" font-size="10.00" fill="#000000">/Math/BoostZ.h</text>
</a>
</g>
</g>
<!-- Node24&#45;&gt;Node25 -->
<g id="edge1" class="edge">
<title>Node24&#45;&gt;Node25</title>
<path fill="none" stroke="#191970" d="M186.411,-196.9132C166.1813,-186.645 141.7733,-174.2561 122.9812,-164.7177"/>
<polygon fill="#191970" stroke="#191970" points="184.8754,-200.0587 195.3766,-201.4639 188.0437,-193.8168 184.8754,-200.0587"/>
</g>
<!-- Node26 -->
<g id="node3" class="node">
<title>Node26</title>
<g id="a_node3"><a xlink:href="GenVector_2Boost_8h.html" target="_top" xlink:title="math/genvector/inc\l/Math/GenVector/Boost.h">
<polygon fill="#ffffff" stroke="#000000" points="205.5,-134.5 205.5,-164.5 342.5,-164.5 342.5,-134.5 205.5,-134.5"/>
<text text-anchor="start" x="213.5" y="-152.5" font-family="Helvetica,sans-Serif" font-size="10.00" fill="#000000">math/genvector/inc</text>
<text text-anchor="middle" x="274" y="-141.5" font-family="Helvetica,sans-Serif" font-size="10.00" fill="#000000">/Math/GenVector/Boost.h</text>
</a>
</g>
</g>
<!-- Node24&#45;&gt;Node26 -->
<g id="edge2" class="edge">
<title>Node24&#45;&gt;Node26</title>
<path fill="none" stroke="#191970" d="M242.1408,-193.0626C249.0381,-183.6315 256.7932,-173.0276 262.9251,-164.6432"/>
<polygon fill="#191970" stroke="#191970" points="239.197,-191.1588 236.1189,-201.2967 244.8472,-195.2911 239.197,-191.1588"/>
</g>
<!-- Node28 -->
<g id="node5" class="node">
<title>Node28</title>
<g id="a_node5"><a xlink:href="GenVector_2LorentzRotation_8h.html" target="_top" xlink:title="math/genvector/inc\l/Math/GenVector/LorentzRotation.h">
<polygon fill="#ffffff" stroke="#000000" points="15.5,-67.5 15.5,-97.5 200.5,-97.5 200.5,-67.5 15.5,-67.5"/>
<text text-anchor="start" x="23.5" y="-85.5" font-family="Helvetica,sans-Serif" font-size="10.00" fill="#000000">math/genvector/inc</text>
<text text-anchor="middle" x="108" y="-74.5" font-family="Helvetica,sans-Serif" font-size="10.00" fill="#000000">/Math/GenVector/LorentzRotation.h</text>
</a>
</g>
</g>
<!-- Node24&#45;&gt;Node28 -->
<g id="edge11" class="edge">
<title>Node24&#45;&gt;Node28</title>
<path fill="none" stroke="#191970" d="M206.5268,-193.1968C193.0882,-176.467 174.2933,-153.5219 157,-134 145.8705,-121.4363 132.737,-107.6869 122.8698,-97.5574"/>
<polygon fill="#191970" stroke="#191970" points="204.0505,-195.7043 213.0297,-201.3278 209.5172,-191.3321 204.0505,-195.7043"/>
</g>
<!-- Node35 -->
<g id="node12" class="node">
<title>Node35</title>
<g id="a_node12"><a xlink:href="BoostZ_8cxx.html" target="_top" xlink:title="math/genvector/src\l/BoostZ.cxx">
<polygon fill="#ffffff" stroke="#000000" points="360.5,-134.5 360.5,-164.5 471.5,-164.5 471.5,-134.5 360.5,-134.5"/>
<text text-anchor="start" x="368.5" y="-152.5" font-family="Helvetica,sans-Serif" font-size="10.00" fill="#000000">math/genvector/src</text>
<text text-anchor="middle" x="416" y="-141.5" font-family="Helvetica,sans-Serif" font-size="10.00" fill="#000000">/BoostZ.cxx</text>
</a>
</g>
</g>
<!-- Node24&#45;&gt;Node35 -->
<g id="edge12" class="edge">
<title>Node24&#45;&gt;Node35</title>
<path fill="none" stroke="#191970" d="M277.3419,-198.1392C307.3771,-187.6033 344.6245,-174.5375 372.9489,-164.6017"/>
<polygon fill="#191970" stroke="#191970" points="276.1418,-194.851 267.8641,-201.4639 278.459,-201.4564 276.1418,-194.851"/>
</g>
<!-- Node27 -->
<g id="node4" class="node">
<title>Node27</title>
<g id="a_node4"><a xlink:href="Boost_8h.html" target="_top" xlink:title="math/genvector/inc\l/Math/Boost.h">
<polygon fill="#ffffff" stroke="#000000" points="218.5,-67.5 218.5,-97.5 329.5,-97.5 329.5,-67.5 218.5,-67.5"/>
<text text-anchor="start" x="226.5" y="-85.5" font-family="Helvetica,sans-Serif" font-size="10.00" fill="#000000">math/genvector/inc</text>
<text text-anchor="middle" x="274" y="-74.5" font-family="Helvetica,sans-Serif" font-size="10.00" fill="#000000">/Math/Boost.h</text>
</a>
</g>
</g>
<!-- Node26&#45;&gt;Node27 -->
<g id="edge3" class="edge">
<title>Node26&#45;&gt;Node27</title>
<path fill="none" stroke="#191970" d="M274,-124.0249C274,-115.128 274,-105.4287 274,-97.6432"/>
<polygon fill="#191970" stroke="#191970" points="270.5001,-124.2966 274,-134.2967 277.5001,-124.2967 270.5001,-124.2966"/>
</g>
<!-- Node26&#45;&gt;Node28 -->
<g id="edge4" class="edge">
<title>Node26&#45;&gt;Node28</title>
<path fill="none" stroke="#191970" d="M227.1475,-130.5897C201.2865,-120.1518 169.6069,-107.3654 145.4161,-97.6017"/>
<polygon fill="#191970" stroke="#191970" points="226.1632,-133.9667 236.7464,-134.4639 228.7832,-127.4754 226.1632,-133.9667"/>
</g>
<!-- Node31 -->
<g id="node8" class="node">
<title>Node31</title>
<g id="a_node8"><a xlink:href="GenVector_2VectorUtil_8h.html" target="_top" xlink:title="math/genvector/inc\l/Math/GenVector/VectorUtil.h">
<polygon fill="#ffffff" stroke="#000000" points="347.5,-67.5 347.5,-97.5 504.5,-97.5 504.5,-67.5 347.5,-67.5"/>
<text text-anchor="start" x="355.5" y="-85.5" font-family="Helvetica,sans-Serif" font-size="10.00" fill="#000000">math/genvector/inc</text>
<text text-anchor="middle" x="426" y="-74.5" font-family="Helvetica,sans-Serif" font-size="10.00" fill="#000000">/Math/GenVector/VectorUtil.h</text>
</a>
</g>
</g>
<!-- Node26&#45;&gt;Node31 -->
<g id="edge7" class="edge">
<title>Node26&#45;&gt;Node31</title>
<path fill="none" stroke="#191970" d="M317.5282,-130.3132C341.0917,-119.9267 369.784,-107.2794 391.7395,-97.6017"/>
<polygon fill="#191970" stroke="#191970" points="315.8505,-127.2277 308.1118,-134.4639 318.674,-133.6331 315.8505,-127.2277"/>
</g>
<!-- Node34 -->
<g id="node11" class="node">
<title>Node34</title>
<g id="a_node11"><a xlink:href="Boost_8cxx.html" target="_top" xlink:title="math/genvector/src\l/Boost.cxx">
<polygon fill="#ffffff" stroke="#000000" points="522.5,-67.5 522.5,-97.5 633.5,-97.5 633.5,-67.5 522.5,-67.5"/>
<text text-anchor="start" x="530.5" y="-85.5" font-family="Helvetica,sans-Serif" font-size="10.00" fill="#000000">math/genvector/src</text>
<text text-anchor="middle" x="578" y="-74.5" font-family="Helvetica,sans-Serif" font-size="10.00" fill="#000000">/Boost.cxx</text>
</a>
</g>
</g>
<!-- Node26&#45;&gt;Node34 -->
<g id="edge10" class="edge">
<title>Node26&#45;&gt;Node34</title>
<path fill="none" stroke="#191970" d="M352.4403,-133.2102C399.3803,-123.3272 460.1832,-110.2888 514,-98 516.6749,-97.3892 519.4108,-96.7567 522.1727,-96.1119"/>
<polygon fill="#191970" stroke="#191970" points="351.7079,-129.7876 342.6417,-135.2698 353.1478,-136.6379 351.7079,-129.7876"/>
</g>
<!-- Node29 -->
<g id="node6" class="node">
<title>Node29</title>
<g id="a_node6"><a xlink:href="LorentzRotation_8h.html" target="_top" xlink:title="math/genvector/inc\l/Math/LorentzRotation.h">
<polygon fill="#ffffff" stroke="#000000" points="0,-.5 0,-30.5 132,-30.5 132,-.5 0,-.5"/>
<text text-anchor="start" x="8" y="-18.5" font-family="Helvetica,sans-Serif" font-size="10.00" fill="#000000">math/genvector/inc</text>
<text text-anchor="middle" x="66" y="-7.5" font-family="Helvetica,sans-Serif" font-size="10.00" fill="#000000">/Math/LorentzRotation.h</text>
</a>
</g>
</g>
<!-- Node28&#45;&gt;Node29 -->
<g id="edge5" class="edge">
<title>Node28&#45;&gt;Node29</title>
<path fill="none" stroke="#191970" d="M93.1267,-58.7735C87.2604,-49.4154 80.695,-38.9421 75.4927,-30.6432"/>
<polygon fill="#191970" stroke="#191970" points="90.1926,-60.6828 98.4695,-67.2967 96.1237,-56.9648 90.1926,-60.6828"/>
</g>
<!-- Node30 -->
<g id="node7" class="node">
<title>Node30</title>
<g id="a_node7"><a xlink:href="LorentzRotation_8cxx.html" target="_top" xlink:title="math/genvector/src\l/LorentzRotation.cxx">
<polygon fill="#ffffff" stroke="#000000" points="150,-.5 150,-30.5 266,-30.5 266,-.5 150,-.5"/>
<text text-anchor="start" x="158" y="-18.5" font-family="Helvetica,sans-Serif" font-size="10.00" fill="#000000">math/genvector/src</text>
<text text-anchor="middle" x="208" y="-7.5" font-family="Helvetica,sans-Serif" font-size="10.00" fill="#000000">/LorentzRotation.cxx</text>
</a>
</g>
</g>
<!-- Node28&#45;&gt;Node30 -->
<g id="edge6" class="edge">
<title>Node28&#45;&gt;Node30</title>
<path fill="none" stroke="#191970" d="M139.1513,-61.6286C154.1225,-51.5979 171.7349,-39.7976 185.3983,-30.6432"/>
<polygon fill="#191970" stroke="#191970" points="137.0511,-58.8228 130.6915,-67.2967 140.9474,-64.6382 137.0511,-58.8228"/>
</g>
<!-- Node32 -->
<g id="node9" class="node">
<title>Node32</title>
<g id="a_node9"><a xlink:href="VectorUtil_8h.html" target="_top" xlink:title="math/genvector/inc\l/Math/VectorUtil.h">
<polygon fill="#ffffff" stroke="#000000" points="327.5,-.5 327.5,-30.5 438.5,-30.5 438.5,-.5 327.5,-.5"/>
<text text-anchor="start" x="335.5" y="-18.5" font-family="Helvetica,sans-Serif" font-size="10.00" fill="#000000">math/genvector/inc</text>
<text text-anchor="middle" x="383" y="-7.5" font-family="Helvetica,sans-Serif" font-size="10.00" fill="#000000">/Math/VectorUtil.h</text>
</a>
</g>
</g>
<!-- Node31&#45;&gt;Node32 -->
<g id="edge8" class="edge">
<title>Node31&#45;&gt;Node32</title>
<path fill="none" stroke="#191970" d="M410.7725,-58.7735C404.7666,-49.4154 398.0449,-38.9421 392.7188,-30.6432"/>
<polygon fill="#191970" stroke="#191970" points="407.8958,-60.7712 416.2426,-67.2967 413.7869,-56.9903 407.8958,-60.7712"/>
</g>
<!-- Node33 -->
<g id="node10" class="node">
<title>Node33</title>
<g id="a_node10"><a xlink:href="VectorUtil_8cxx.html" target="_top" xlink:title="math/genvector/src\l/VectorUtil.cxx">
<polygon fill="#ffffff" stroke="#000000" points="456.5,-.5 456.5,-30.5 567.5,-30.5 567.5,-.5 456.5,-.5"/>
<text text-anchor="start" x="464.5" y="-18.5" font-family="Helvetica,sans-Serif" font-size="10.00" fill="#000000">math/genvector/src</text>
<text text-anchor="middle" x="512" y="-7.5" font-family="Helvetica,sans-Serif" font-size="10.00" fill="#000000">/VectorUtil.cxx</text>
</a>
</g>
</g>
<!-- Node31&#45;&gt;Node33 -->
<g id="edge9" class="edge">
<title>Node31&#45;&gt;Node33</title>
<path fill="none" stroke="#191970" d="M453.5145,-61.0643C466.2304,-51.1577 481.0316,-39.6265 492.5625,-30.6432"/>
<polygon fill="#191970" stroke="#191970" points="451.2523,-58.3899 445.5147,-67.2967 455.5544,-63.9119 451.2523,-58.3899"/>
</g>
</g>
</svg>
