<?xml version="1.0" encoding="UTF-8" standalone="no"?>
<!DOCTYPE svg PUBLIC "-//W3C//DTD SVG 1.1//EN"
 "http://www.w3.org/Graphics/SVG/1.1/DTD/svg11.dtd">
<!-- Generated by graphviz version 2.40.1 (0)
 -->
<!-- Title: math/genvector/inc/Math/GenVector/Cylindrical3D.h Pages: 1 -->
<svg width="387pt" height="106pt"
 viewBox="0.00 0.00 387.00 106.00" xmlns="http://www.w3.org/2000/svg" xmlns:xlink="http://www.w3.org/1999/xlink">
<g id="graph0" class="graph" transform="scale(1 1) rotate(0) translate(4 102)">
<title>math/genvector/inc/Math/GenVector/Cylindrical3D.h</title>
<polygon fill="#ffffff" stroke="transparent" points="-4,4 -4,-102 383,-102 383,4 -4,4"/>
<!-- Node8 -->
<g id="node1" class="node">
<title>Node8</title>
<polygon fill="#bfbfbf" stroke="#000000" points="107.5,-67.5 107.5,-97.5 281.5,-97.5 281.5,-67.5 107.5,-67.5"/>
<text text-anchor="start" x="115.5" y="-85.5" font-family="Helvetica,sans-Serif" font-size="10.00" fill="#000000">math/genvector/inc</text>
<text text-anchor="middle" x="194.5" y="-74.5" font-family="Helvetica,sans-Serif" font-size="10.00" fill="#000000">/Math/GenVector/Cylindrical3D.h</text>
</g>
<!-- Node9 -->
<g id="node2" class="node">
<title>Node9</title>
<g id="a_node2"><a xlink:href="Cylindrical3D_8h.html" target="_top" xlink:title="math/genvector/inc\l/Math/Cylindrical3D.h">
<polygon fill="#ffffff" stroke="#000000" points="0,-.5 0,-30.5 121,-30.5 121,-.5 0,-.5"/>
<text text-anchor="start" x="8" y="-18.5" font-family="Helvetica,sans-Serif" font-size="10.00" fill="#000000">math/genvector/inc</text>
<text text-anchor="middle" x="60.5" y="-7.5" font-family="Helvetica,sans-Serif" font-size="10.00" fill="#000000">/Math/Cylindrical3D.h</text>
</a>
</g>
</g>
<!-- Node8&#45;&gt;Node9 -->
<g id="edge1" class="edge">
<title>Node8&#45;&gt;Node9</title>
<path fill="none" stroke="#191970" d="M155.3264,-62.9132C134.7901,-52.645 110.0123,-40.2561 90.9355,-30.7177"/>
<polygon fill="#191970" stroke="#191970" points="153.9182,-66.1222 164.4278,-67.4639 157.0488,-59.8612 153.9182,-66.1222"/>
</g>
<!-- Node10 -->
<g id="node3" class="node">
<title>Node10</title>
<g id="a_node3"><a xlink:href="Point3D_8h.html" target="_top" xlink:title="math/genvector/inc\l/Math/Point3D.h">
<polygon fill="#ffffff" stroke="#000000" points="139,-.5 139,-30.5 250,-30.5 250,-.5 139,-.5"/>
<text text-anchor="start" x="147" y="-18.5" font-family="Helvetica,sans-Serif" font-size="10.00" fill="#000000">math/genvector/inc</text>
<text text-anchor="middle" x="194.5" y="-7.5" font-family="Helvetica,sans-Serif" font-size="10.00" fill="#000000">/Math/Point3D.h</text>
</a>
</g>
</g>
<!-- Node8&#45;&gt;Node10 -->
<g id="edge2" class="edge">
<title>Node8&#45;&gt;Node10</title>
<path fill="none" stroke="#191970" d="M194.5,-57.0249C194.5,-48.128 194.5,-38.4287 194.5,-30.6432"/>
<polygon fill="#191970" stroke="#191970" points="191.0001,-57.2966 194.5,-67.2967 198.0001,-57.2967 191.0001,-57.2966"/>
</g>
<!-- Node11 -->
<g id="node4" class="node">
<title>Node11</title>
<g id="a_node4"><a xlink:href="Vector3D_8h.html" target="_top" xlink:title="math/genvector/inc\l/Math/Vector3D.h">
<polygon fill="#ffffff" stroke="#000000" points="268,-.5 268,-30.5 379,-30.5 379,-.5 268,-.5"/>
<text text-anchor="start" x="276" y="-18.5" font-family="Helvetica,sans-Serif" font-size="10.00" fill="#000000">math/genvector/inc</text>
<text text-anchor="middle" x="323.5" y="-7.5" font-family="Helvetica,sans-Serif" font-size="10.00" fill="#000000">/Math/Vector3D.h</text>
</a>
</g>
</g>
<!-- Node8&#45;&gt;Node11 -->
<g id="edge3" class="edge">
<title>Node8&#45;&gt;Node11</title>
<path fill="none" stroke="#191970" d="M232.4793,-62.7743C252.1967,-52.5335 275.9179,-40.2132 294.2002,-30.7177"/>
<polygon fill="#191970" stroke="#191970" points="230.7113,-59.7486 223.4501,-67.4639 233.9378,-65.9607 230.7113,-59.7486"/>
</g>
</g>
</svg>
