<?xml version="1.0" encoding="UTF-8" standalone="no"?>
<!DOCTYPE svg PUBLIC "-//W3C//DTD SVG 1.1//EN"
 "http://www.w3.org/Graphics/SVG/1.1/DTD/svg11.dtd">
<!-- Generated by graphviz version 2.40.1 (0)
 -->
<!-- Title: tmva/tmva/inc/TMVA/GiniIndexWithLaplace.h Pages: 1 -->
<svg width="564pt" height="106pt"
 viewBox="0.00 0.00 564.00 106.00" xmlns="http://www.w3.org/2000/svg" xmlns:xlink="http://www.w3.org/1999/xlink">
<g id="graph0" class="graph" transform="scale(1 1) rotate(0) translate(4 102)">
<title>tmva/tmva/inc/TMVA/GiniIndexWithLaplace.h</title>
<polygon fill="#ffffff" stroke="transparent" points="-4,4 -4,-102 560,-102 560,4 -4,4"/>
<!-- Node47 -->
<g id="node1" class="node">
<title>Node47</title>
<polygon fill="#bfbfbf" stroke="#000000" points="193.5,-67.5 193.5,-97.5 328.5,-97.5 328.5,-67.5 193.5,-67.5"/>
<text text-anchor="start" x="201.5" y="-85.5" font-family="Helvetica,sans-Serif" font-size="10.00" fill="#000000">tmva/tmva/inc/TMVA</text>
<text text-anchor="middle" x="261" y="-74.5" font-family="Helvetica,sans-Serif" font-size="10.00" fill="#000000">/GiniIndexWithLaplace.h</text>
</g>
<!-- Node48 -->
<g id="node2" class="node">
<title>Node48</title>
<g id="a_node2"><a xlink:href="GiniIndexWithLaplace_8cxx.html" target="_top" xlink:title="tmva/tmva/src/GiniIndexWith\lLaplace.cxx">
<polygon fill="#ffffff" stroke="#000000" points="0,-.5 0,-30.5 160,-30.5 160,-.5 0,-.5"/>
<text text-anchor="start" x="8" y="-18.5" font-family="Helvetica,sans-Serif" font-size="10.00" fill="#000000">tmva/tmva/src/GiniIndexWith</text>
<text text-anchor="middle" x="80" y="-7.5" font-family="Helvetica,sans-Serif" font-size="10.00" fill="#000000">Laplace.cxx</text>
</a>
</g>
</g>
<!-- Node47&#45;&gt;Node48 -->
<g id="edge1" class="edge">
<title>Node47&#45;&gt;Node48</title>
<path fill="none" stroke="#191970" d="M210.6577,-63.865C182.3253,-53.3773 147.4062,-40.4515 120.7971,-30.6017"/>
<polygon fill="#191970" stroke="#191970" points="209.7869,-67.2747 220.3801,-67.4639 212.217,-60.71 209.7869,-67.2747"/>
</g>
<!-- Node49 -->
<g id="node3" class="node">
<title>Node49</title>
<g id="a_node3"><a xlink:href="MethodBDT_8cxx.html" target="_top" xlink:title="tmva/tmva/src/MethodBDT.cxx">
<polygon fill="#ffffff" stroke="#000000" points="178,-6 178,-25 344,-25 344,-6 178,-6"/>
<text text-anchor="middle" x="261" y="-13" font-family="Helvetica,sans-Serif" font-size="10.00" fill="#000000">tmva/tmva/src/MethodBDT.cxx</text>
</a>
</g>
</g>
<!-- Node47&#45;&gt;Node49 -->
<g id="edge2" class="edge">
<title>Node47&#45;&gt;Node49</title>
<path fill="none" stroke="#191970" d="M261,-57.1199C261,-45.9072 261,-33.4031 261,-25.055"/>
<polygon fill="#191970" stroke="#191970" points="257.5001,-57.2966 261,-67.2967 264.5001,-57.2967 257.5001,-57.2966"/>
</g>
<!-- Node50 -->
<g id="node4" class="node">
<title>Node50</title>
<g id="a_node4"><a xlink:href="MethodPDEFoam_8cxx.html" target="_top" xlink:title="tmva/tmva/src/MethodPDEFoam.cxx">
<polygon fill="#ffffff" stroke="#000000" points="362,-6 362,-25 556,-25 556,-6 362,-6"/>
<text text-anchor="middle" x="459" y="-13" font-family="Helvetica,sans-Serif" font-size="10.00" fill="#000000">tmva/tmva/src/MethodPDEFoam.cxx</text>
</a>
</g>
</g>
<!-- Node47&#45;&gt;Node50 -->
<g id="edge3" class="edge">
<title>Node47&#45;&gt;Node50</title>
<path fill="none" stroke="#191970" d="M315.1921,-64.1623C352.6333,-51.4928 400.9113,-35.1563 430.9098,-25.0053"/>
<polygon fill="#191970" stroke="#191970" points="313.7856,-60.9432 305.4351,-67.4639 316.0293,-67.5739 313.7856,-60.9432"/>
</g>
</g>
</svg>
