<?xml version="1.0" encoding="UTF-8" standalone="no"?>
<!DOCTYPE svg PUBLIC "-//W3C//DTD SVG 1.1//EN"
 "http://www.w3.org/Graphics/SVG/1.1/DTD/svg11.dtd">
<!-- Generated by graphviz version 2.40.1 (0)
 -->
<!-- Title: math/mathmore/src/GSLDerivator.h Pages: 1 -->
<svg width="408pt" height="84pt"
 viewBox="0.00 0.00 408.00 84.00" xmlns="http://www.w3.org/2000/svg" xmlns:xlink="http://www.w3.org/1999/xlink">
<g id="graph0" class="graph" transform="scale(1 1) rotate(0) translate(4 80)">
<title>math/mathmore/src/GSLDerivator.h</title>
<polygon fill="#ffffff" stroke="transparent" points="-4,4 -4,-80 404,-80 404,4 -4,4"/>
<!-- Node7 -->
<g id="node1" class="node">
<title>Node7</title>
<polygon fill="#bfbfbf" stroke="#000000" points="100.5,-56.5 100.5,-75.5 289.5,-75.5 289.5,-56.5 100.5,-56.5"/>
<text text-anchor="middle" x="195" y="-63.5" font-family="Helvetica,sans-Serif" font-size="10.00" fill="#000000">math/mathmore/src/GSLDerivator.h</text>
</g>
<!-- Node8 -->
<g id="node2" class="node">
<title>Node8</title>
<g id="a_node2"><a xlink:href="Derivator_8cxx.html" target="_top" xlink:title="math/mathmore/src/Derivator.cxx">
<polygon fill="#ffffff" stroke="#000000" points="0,-.5 0,-19.5 182,-19.5 182,-.5 0,-.5"/>
<text text-anchor="middle" x="91" y="-7.5" font-family="Helvetica,sans-Serif" font-size="10.00" fill="#000000">math/mathmore/src/Derivator.cxx</text>
</a>
</g>
</g>
<!-- Node7&#45;&gt;Node8 -->
<g id="edge1" class="edge">
<title>Node7&#45;&gt;Node8</title>
<path fill="none" stroke="#191970" d="M167.9971,-51.46C149.3864,-41.4388 125.1701,-28.3993 108.9078,-19.6427"/>
<polygon fill="#191970" stroke="#191970" points="166.4205,-54.5861 176.8846,-56.2455 169.7392,-48.4228 166.4205,-54.5861"/>
</g>
<!-- Node9 -->
<g id="node3" class="node">
<title>Node9</title>
<g id="a_node3"><a xlink:href="GSLDerivator_8cxx.html" target="_top" xlink:title="math/mathmore/src/GSLDerivator.cxx">
<polygon fill="#ffffff" stroke="#000000" points="200,-.5 200,-19.5 400,-19.5 400,-.5 200,-.5"/>
<text text-anchor="middle" x="300" y="-7.5" font-family="Helvetica,sans-Serif" font-size="10.00" fill="#000000">math/mathmore/src/GSLDerivator.cxx</text>
</a>
</g>
</g>
<!-- Node7&#45;&gt;Node9 -->
<g id="edge2" class="edge">
<title>Node7&#45;&gt;Node9</title>
<path fill="none" stroke="#191970" d="M222.2625,-51.46C241.0522,-41.4388 265.5013,-28.3993 281.92,-19.6427"/>
<polygon fill="#191970" stroke="#191970" points="220.4661,-48.4514 213.2896,-56.2455 223.7602,-54.6278 220.4661,-48.4514"/>
</g>
</g>
</svg>
