<?xml version="1.0" encoding="UTF-8" standalone="no"?>
<!DOCTYPE svg PUBLIC "-//W3C//DTD SVG 1.1//EN"
 "http://www.w3.org/Graphics/SVG/1.1/DTD/svg11.dtd">
<!-- Generated by graphviz version 2.40.1 (0)
 -->
<!-- Title: math/mathmore/inc/Math/GSLMultiRootFinder.h Pages: 1 -->
<svg width="326pt" height="106pt"
 viewBox="0.00 0.00 325.50 106.00" xmlns="http://www.w3.org/2000/svg" xmlns:xlink="http://www.w3.org/1999/xlink">
<g id="graph0" class="graph" transform="scale(1 1) rotate(0) translate(4 102)">
<title>math/mathmore/inc/Math/GSLMultiRootFinder.h</title>
<polygon fill="#ffffff" stroke="transparent" points="-4,4 -4,-102 321.5,-102 321.5,4 -4,4"/>
<!-- Node6 -->
<g id="node1" class="node">
<title>Node6</title>
<polygon fill="#bfbfbf" stroke="#000000" points="84,-67.5 84,-97.5 224,-97.5 224,-67.5 84,-67.5"/>
<text text-anchor="start" x="92" y="-85.5" font-family="Helvetica,sans-Serif" font-size="10.00" fill="#000000">math/mathmore/inc/Math</text>
<text text-anchor="middle" x="154" y="-74.5" font-family="Helvetica,sans-Serif" font-size="10.00" fill="#000000">/GSLMultiRootFinder.h</text>
</g>
<!-- Node7 -->
<g id="node2" class="node">
<title>Node7</title>
<g id="a_node2"><a xlink:href="MultiRootFinder_8h.html" target="_top" xlink:title="math/mathmore/inc/Math\l/MultiRootFinder.h">
<polygon fill="#ffffff" stroke="#000000" points="0,-.5 0,-30.5 140,-30.5 140,-.5 0,-.5"/>
<text text-anchor="start" x="8" y="-18.5" font-family="Helvetica,sans-Serif" font-size="10.00" fill="#000000">math/mathmore/inc/Math</text>
<text text-anchor="middle" x="70" y="-7.5" font-family="Helvetica,sans-Serif" font-size="10.00" fill="#000000">/MultiRootFinder.h</text>
</a>
</g>
</g>
<!-- Node6&#45;&gt;Node7 -->
<g id="edge1" class="edge">
<title>Node6&#45;&gt;Node7</title>
<path fill="none" stroke="#191970" d="M126.77,-60.7808C114.4301,-50.9383 100.1409,-39.541 88.9855,-30.6432"/>
<polygon fill="#191970" stroke="#191970" points="124.9388,-63.7973 134.9391,-67.2967 129.3038,-58.3248 124.9388,-63.7973"/>
</g>
<!-- Node8 -->
<g id="node3" class="node">
<title>Node8</title>
<g id="a_node3"><a xlink:href="GSLMultiRootFinder_8cxx.html" target="_top" xlink:title="math/mathmore/src/GSLMulti\lRootFinder.cxx">
<polygon fill="#ffffff" stroke="#000000" points="158.5,-.5 158.5,-30.5 317.5,-30.5 317.5,-.5 158.5,-.5"/>
<text text-anchor="start" x="166.5" y="-18.5" font-family="Helvetica,sans-Serif" font-size="10.00" fill="#000000">math/mathmore/src/GSLMulti</text>
<text text-anchor="middle" x="238" y="-7.5" font-family="Helvetica,sans-Serif" font-size="10.00" fill="#000000">RootFinder.cxx</text>
</a>
</g>
</g>
<!-- Node6&#45;&gt;Node8 -->
<g id="edge2" class="edge">
<title>Node6&#45;&gt;Node8</title>
<path fill="none" stroke="#191970" d="M181.23,-60.7808C193.5699,-50.9383 207.8591,-39.541 219.0145,-30.6432"/>
<polygon fill="#191970" stroke="#191970" points="178.6962,-58.3248 173.0609,-67.2967 183.0612,-63.7973 178.6962,-58.3248"/>
</g>
</g>
</svg>
