<?xml version="1.0" encoding="UTF-8" standalone="no"?>
<!DOCTYPE svg PUBLIC "-//W3C//DTD SVG 1.1//EN"
 "http://www.w3.org/Graphics/SVG/1.1/DTD/svg11.dtd">
<!-- Generated by graphviz version 2.40.1 (0)
 -->
<!-- Title: math/mathmore/src/GSLMultiMinimizer.h Pages: 1 -->
<svg width="1018pt" height="543pt"
 viewBox="0.00 0.00 1017.56 543.00" xmlns="http://www.w3.org/2000/svg" xmlns:xlink="http://www.w3.org/1999/xlink">
<g id="graph0" class="graph" transform="scale(1 1) rotate(0) translate(4 539)">
<title>math/mathmore/src/GSLMultiMinimizer.h</title>
<polygon fill="#ffffff" stroke="transparent" points="-4,4 -4,-539 1013.5566,-539 1013.5566,4 -4,4"/>
<!-- Node0 -->
<g id="node1" class="node">
<title>Node0</title>
<polygon fill="#bfbfbf" stroke="#000000" points="539.0566,-504.5 539.0566,-534.5 698.0566,-534.5 698.0566,-504.5 539.0566,-504.5"/>
<text text-anchor="start" x="547.0566" y="-522.5" font-family="Helvetica,sans-Serif" font-size="10.00" fill="#000000">math/mathmore/src/GSLMulti</text>
<text text-anchor="middle" x="618.5566" y="-511.5" font-family="Helvetica,sans-Serif" font-size="10.00" fill="#000000">Minimizer.h</text>
</g>
<!-- Node1 -->
<g id="node2" class="node">
<title>Node1</title>
<polygon fill="#ffffff" stroke="#bfbfbf" points="418.5566,-336.5 418.5566,-355.5 510.5566,-355.5 510.5566,-336.5 418.5566,-336.5"/>
<text text-anchor="middle" x="464.5566" y="-343.5" font-family="Helvetica,sans-Serif" font-size="10.00" fill="#000000">gsl/gsl_vector.h</text>
</g>
<!-- Node0&#45;&gt;Node1 -->
<g id="edge1" class="edge">
<title>Node0&#45;&gt;Node1</title>
<path fill="none" stroke="#191970" d="M620.9513,-504.1304C624.12,-477.9267 626.5055,-424.3108 599.5566,-392 588.6693,-378.9465 550.6293,-366.6634 517.6931,-358.079"/>
<polygon fill="#191970" stroke="#191970" points="518.2247,-354.603 507.6711,-355.5368 516.5036,-361.3882 518.2247,-354.603"/>
</g>
<!-- Node2 -->
<g id="node3" class="node">
<title>Node2</title>
<polygon fill="#ffffff" stroke="#bfbfbf" points="231.0566,-392.5 231.0566,-411.5 338.0566,-411.5 338.0566,-392.5 231.0566,-392.5"/>
<text text-anchor="middle" x="284.5566" y="-399.5" font-family="Helvetica,sans-Serif" font-size="10.00" fill="#000000">gsl/gsl_multimin.h</text>
</g>
<!-- Node0&#45;&gt;Node2 -->
<g id="edge2" class="edge">
<title>Node0&#45;&gt;Node2</title>
<path fill="none" stroke="#191970" d="M538.8783,-508.933C473.279,-499.3261 386.1284,-484.2096 354.5566,-468 331.9503,-456.3935 311.4904,-435.2718 298.61,-420.044"/>
<polygon fill="#191970" stroke="#191970" points="300.9778,-417.4098 291.9432,-411.8757 295.5548,-421.8359 300.9778,-417.4098"/>
</g>
<!-- Node3 -->
<g id="node4" class="node">
<title>Node3</title>
<polygon fill="#ffffff" stroke="#bfbfbf" points="646.5566,-448.5 646.5566,-467.5 744.5566,-467.5 744.5566,-448.5 646.5566,-448.5"/>
<text text-anchor="middle" x="695.5566" y="-455.5" font-family="Helvetica,sans-Serif" font-size="10.00" fill="#000000">gsl/gsl_version.h</text>
</g>
<!-- Node0&#45;&gt;Node3 -->
<g id="edge3" class="edge">
<title>Node0&#45;&gt;Node3</title>
<path fill="none" stroke="#191970" d="M637.5903,-504.2977C649.058,-495.1384 663.6527,-483.4816 675.3285,-474.1562"/>
<polygon fill="#191970" stroke="#191970" points="677.5985,-476.8225 683.2279,-467.8469 673.23,-471.3529 677.5985,-476.8225"/>
</g>
<!-- Node4 -->
<g id="node5" class="node">
<title>Node4</title>
<g id="a_node5"><a xlink:href="GSLMultiMinFunctionWrapper_8h.html" target="_top" xlink:title="GSLMultiMinFunctionWrapper.h">
<polygon fill="#ffffff" stroke="#000000" points="363.5566,-448.5 363.5566,-467.5 529.5566,-467.5 529.5566,-448.5 363.5566,-448.5"/>
<text text-anchor="middle" x="446.5566" y="-455.5" font-family="Helvetica,sans-Serif" font-size="10.00" fill="#000000">GSLMultiMinFunctionWrapper.h</text>
</a>
</g>
</g>
<!-- Node0&#45;&gt;Node4 -->
<g id="edge4" class="edge">
<title>Node0&#45;&gt;Node4</title>
<path fill="none" stroke="#191970" d="M576.4806,-504.4554C547.782,-494.194 510.1629,-480.7429 482.7943,-470.9571"/>
<polygon fill="#191970" stroke="#191970" points="483.8051,-467.6015 473.2105,-467.5303 481.4482,-474.1929 483.8051,-467.6015"/>
</g>
<!-- Node6 -->
<g id="node7" class="node">
<title>Node6</title>
<polygon fill="#ffffff" stroke="#bfbfbf" points="538.5566,-392.5 538.5566,-411.5 590.5566,-411.5 590.5566,-392.5 538.5566,-392.5"/>
<text text-anchor="middle" x="564.5566" y="-399.5" font-family="Helvetica,sans-Serif" font-size="10.00" fill="#000000">cassert</text>
</g>
<!-- Node0&#45;&gt;Node6 -->
<g id="edge47" class="edge">
<title>Node0&#45;&gt;Node6</title>
<path fill="none" stroke="#191970" d="M611.497,-504.1389C601.6353,-482.6806 583.7547,-443.7738 573.1369,-420.6702"/>
<polygon fill="#191970" stroke="#191970" points="576.306,-419.1843 568.9499,-411.5595 569.9455,-422.1074 576.306,-419.1843"/>
</g>
<!-- Node7 -->
<g id="node8" class="node">
<title>Node7</title>
<g id="a_node8"><a xlink:href="Error_8h.html" target="_top" xlink:title="Math/Error.h">
<polygon fill="#ffffff" stroke="#000000" points="763.0566,-448.5 763.0566,-467.5 838.0566,-467.5 838.0566,-448.5 763.0566,-448.5"/>
<text text-anchor="middle" x="800.5566" y="-455.5" font-family="Helvetica,sans-Serif" font-size="10.00" fill="#000000">Math/Error.h</text>
</a>
</g>
</g>
<!-- Node0&#45;&gt;Node7 -->
<g id="edge9" class="edge">
<title>Node0&#45;&gt;Node7</title>
<path fill="none" stroke="#191970" d="M663.0788,-504.4554C693.5791,-494.149 733.6016,-480.6249 762.5924,-470.8286"/>
<polygon fill="#191970" stroke="#191970" points="763.9998,-474.0475 772.353,-467.5303 761.7588,-467.4159 763.9998,-474.0475"/>
</g>
<!-- Node35 -->
<g id="node36" class="node">
<title>Node35</title>
<g id="a_node36"><a xlink:href="IFunction_8h.html" target="_top" xlink:title="Math/IFunction.h">
<polygon fill="#ffffff" stroke="#000000" points="860.5566,-448.5 860.5566,-467.5 956.5566,-467.5 956.5566,-448.5 860.5566,-448.5"/>
<text text-anchor="middle" x="908.5566" y="-455.5" font-family="Helvetica,sans-Serif" font-size="10.00" fill="#000000">Math/IFunction.h</text>
</a>
</g>
</g>
<!-- Node0&#45;&gt;Node35 -->
<g id="edge45" class="edge">
<title>Node0&#45;&gt;Node35</title>
<path fill="none" stroke="#191970" d="M689.4985,-504.4554C740.1142,-493.7214 807.1873,-479.4973 853.7202,-469.6291"/>
<polygon fill="#191970" stroke="#191970" points="854.5605,-473.0288 863.6169,-467.5303 853.1083,-466.1811 854.5605,-473.0288"/>
</g>
<!-- Node4&#45;&gt;Node2 -->
<g id="edge5" class="edge">
<title>Node4&#45;&gt;Node2</title>
<path fill="none" stroke="#191970" d="M418.7078,-448.3733C391.8862,-439.1016 351.1438,-425.0178 321.5968,-414.804"/>
<polygon fill="#191970" stroke="#191970" points="322.6367,-411.4603 312.042,-411.5011 320.3497,-418.0762 322.6367,-411.4603"/>
</g>
<!-- Node5 -->
<g id="node6" class="node">
<title>Node5</title>
<g id="a_node6"><a xlink:href="GSLMultiMinFunctionAdapter_8h.html" target="_top" xlink:title="GSLMultiMinFunctionAdapter.h">
<polygon fill="#ffffff" stroke="#000000" points="356.5566,-392.5 356.5566,-411.5 520.5566,-411.5 520.5566,-392.5 356.5566,-392.5"/>
<text text-anchor="middle" x="438.5566" y="-399.5" font-family="Helvetica,sans-Serif" font-size="10.00" fill="#000000">GSLMultiMinFunctionAdapter.h</text>
</a>
</g>
</g>
<!-- Node4&#45;&gt;Node5 -->
<g id="edge6" class="edge">
<title>Node4&#45;&gt;Node5</title>
<path fill="none" stroke="#191970" d="M445.1631,-448.2455C444.1192,-440.9382 442.6558,-430.6944 441.3715,-421.7046"/>
<polygon fill="#191970" stroke="#191970" points="444.8132,-421.0472 439.9341,-411.6427 437.8836,-422.0372 444.8132,-421.0472"/>
</g>
<!-- Node4&#45;&gt;Node6 -->
<g id="edge8" class="edge">
<title>Node4&#45;&gt;Node6</title>
<path fill="none" stroke="#191970" d="M466.8415,-448.3733C485.6986,-439.4241 514.0025,-425.9917 535.3021,-415.8835"/>
<polygon fill="#191970" stroke="#191970" points="537.0027,-418.9506 544.5363,-411.5011 534.0014,-412.6266 537.0027,-418.9506"/>
</g>
<!-- Node5&#45;&gt;Node1 -->
<g id="edge7" class="edge">
<title>Node5&#45;&gt;Node1</title>
<path fill="none" stroke="#191970" d="M443.0854,-392.2455C446.5899,-384.6973 451.5492,-374.0158 455.8188,-364.8197"/>
<polygon fill="#191970" stroke="#191970" points="459.043,-366.1867 460.0796,-355.6427 452.6939,-363.2389 459.043,-366.1867"/>
</g>
<!-- Node8 -->
<g id="node9" class="node">
<title>Node8</title>
<g id="a_node9"><a xlink:href="TError_8h.html" target="_top" xlink:title="TError.h">
<polygon fill="#ffffff" stroke="#000000" points="646.5566,-392.5 646.5566,-411.5 700.5566,-411.5 700.5566,-392.5 646.5566,-392.5"/>
<text text-anchor="middle" x="673.5566" y="-399.5" font-family="Helvetica,sans-Serif" font-size="10.00" fill="#000000">TError.h</text>
</a>
</g>
</g>
<!-- Node7&#45;&gt;Node8 -->
<g id="edge10" class="edge">
<title>Node7&#45;&gt;Node8</title>
<path fill="none" stroke="#191970" d="M778.7245,-448.3733C758.2463,-439.3435 727.4167,-425.7494 704.4246,-415.6111"/>
<polygon fill="#191970" stroke="#191970" points="705.6659,-412.3333 695.1038,-411.5011 702.8416,-418.7383 705.6659,-412.3333"/>
</g>
<!-- Node30 -->
<g id="node31" class="node">
<title>Node30</title>
<g id="a_node31"><a xlink:href="Util_8h.html" target="_top" xlink:title="Math/Util.h">
<polygon fill="#ffffff" stroke="#000000" points="768.5566,-392.5 768.5566,-411.5 838.5566,-411.5 838.5566,-392.5 768.5566,-392.5"/>
<text text-anchor="middle" x="803.5566" y="-399.5" font-family="Helvetica,sans-Serif" font-size="10.00" fill="#000000">Math/Util.h</text>
</a>
</g>
</g>
<!-- Node7&#45;&gt;Node30 -->
<g id="edge37" class="edge">
<title>Node7&#45;&gt;Node30</title>
<path fill="none" stroke="#191970" d="M801.0791,-448.2455C801.4706,-440.9382 802.0194,-430.6944 802.501,-421.7046"/>
<polygon fill="#191970" stroke="#191970" points="805.9999,-421.8156 803.04,-411.6427 799.01,-421.4411 805.9999,-421.8156"/>
</g>
<!-- Node9 -->
<g id="node10" class="node">
<title>Node9</title>
<g id="a_node10"><a xlink:href="Rtypes_8h.html" target="_top" xlink:title="Rtypes.h">
<polygon fill="#ffffff" stroke="#000000" points="453.0566,-280.5 453.0566,-299.5 512.0566,-299.5 512.0566,-280.5 453.0566,-280.5"/>
<text text-anchor="middle" x="482.5566" y="-287.5" font-family="Helvetica,sans-Serif" font-size="10.00" fill="#000000">Rtypes.h</text>
</a>
</g>
</g>
<!-- Node8&#45;&gt;Node9 -->
<g id="edge11" class="edge">
<title>Node8&#45;&gt;Node9</title>
<path fill="none" stroke="#191970" d="M657.272,-392.4509C623.8649,-372.8615 547.3861,-328.0152 507.616,-304.6945"/>
<polygon fill="#191970" stroke="#191970" points="509.1967,-301.5641 498.7999,-299.5249 505.6558,-307.6025 509.1967,-301.5641"/>
</g>
<!-- Node29 -->
<g id="node30" class="node">
<title>Node29</title>
<polygon fill="#ffffff" stroke="#bfbfbf" points="641.5566,-336.5 641.5566,-355.5 697.5566,-355.5 697.5566,-336.5 641.5566,-336.5"/>
<text text-anchor="middle" x="669.5566" y="-343.5" font-family="Helvetica,sans-Serif" font-size="10.00" fill="#000000">stdarg.h</text>
</g>
<!-- Node8&#45;&gt;Node29 -->
<g id="edge36" class="edge">
<title>Node8&#45;&gt;Node29</title>
<path fill="none" stroke="#191970" d="M672.8598,-392.2455C672.3379,-384.9382 671.6062,-374.6944 670.964,-365.7046"/>
<polygon fill="#191970" stroke="#191970" points="674.449,-365.3679 670.2453,-355.6427 667.4668,-365.8667 674.449,-365.3679"/>
</g>
<!-- Node10 -->
<g id="node11" class="node">
<title>Node10</title>
<g id="a_node11"><a xlink:href="RtypesCore_8h.html" target="_top" xlink:title="RtypesCore.h">
<polygon fill="#ffffff" stroke="#000000" points="657.5566,-112.5 657.5566,-131.5 739.5566,-131.5 739.5566,-112.5 657.5566,-112.5"/>
<text text-anchor="middle" x="698.5566" y="-119.5" font-family="Helvetica,sans-Serif" font-size="10.00" fill="#000000">RtypesCore.h</text>
</a>
</g>
</g>
<!-- Node9&#45;&gt;Node10 -->
<g id="edge12" class="edge">
<title>Node9&#45;&gt;Node10</title>
<path fill="none" stroke="#191970" d="M512.3394,-281.6188C535.0542,-274.2308 566.2917,-261.8431 589.5566,-244 623.705,-217.8097 620.4549,-199.704 649.5566,-168 658.9547,-157.7615 670.2148,-147.0924 679.5698,-138.6098"/>
<polygon fill="#191970" stroke="#191970" points="682.0828,-141.058 687.2058,-131.784 677.4177,-135.8391 682.0828,-141.058"/>
</g>
<!-- Node15 -->
<g id="node16" class="node">
<title>Node15</title>
<g id="a_node16"><a xlink:href="DllImport_8h.html" target="_top" xlink:title="DllImport.h">
<polygon fill="#ffffff" stroke="#000000" points="18.0566,-224.5 18.0566,-243.5 89.0566,-243.5 89.0566,-224.5 18.0566,-224.5"/>
<text text-anchor="middle" x="53.5566" y="-231.5" font-family="Helvetica,sans-Serif" font-size="10.00" fill="#000000">DllImport.h</text>
</a>
</g>
</g>
<!-- Node9&#45;&gt;Node15 -->
<g id="edge17" class="edge">
<title>Node9&#45;&gt;Node15</title>
<path fill="none" stroke="#191970" d="M453.0258,-287.4722C389.9619,-281.8584 237.317,-267.1227 99.2675,-243.9733"/>
<polygon fill="#191970" stroke="#191970" points="99.7991,-240.5135 89.3546,-242.292 98.6285,-247.4149 99.7991,-240.5135"/>
</g>
<!-- Node16 -->
<g id="node17" class="node">
<title>Node16</title>
<polygon fill="#ffffff" stroke="#bfbfbf" points="107.5566,-224.5 107.5566,-243.5 169.5566,-243.5 169.5566,-224.5 107.5566,-224.5"/>
<text text-anchor="middle" x="138.5566" y="-231.5" font-family="Helvetica,sans-Serif" font-size="10.00" fill="#000000">snprintf.h</text>
</g>
<!-- Node9&#45;&gt;Node16 -->
<g id="edge18" class="edge">
<title>Node9&#45;&gt;Node16</title>
<path fill="none" stroke="#191970" d="M453.0483,-286.4799C400.1957,-279.9721 285.7329,-264.9585 179.8273,-244.1128"/>
<polygon fill="#191970" stroke="#191970" points="180.4268,-240.6635 169.9358,-242.1435 179.0599,-247.5288 180.4268,-240.6635"/>
</g>
<!-- Node17 -->
<g id="node18" class="node">
<title>Node17</title>
<polygon fill="#ffffff" stroke="#bfbfbf" points="188.0566,-224.5 188.0566,-243.5 245.0566,-243.5 245.0566,-224.5 188.0566,-224.5"/>
<text text-anchor="middle" x="216.5566" y="-231.5" font-family="Helvetica,sans-Serif" font-size="10.00" fill="#000000">strlcpy.h</text>
</g>
<!-- Node9&#45;&gt;Node17 -->
<g id="edge19" class="edge">
<title>Node9&#45;&gt;Node17</title>
<path fill="none" stroke="#191970" d="M452.9238,-284.5923C411.1032,-276.8367 332.177,-261.7476 255.0317,-244.005"/>
<polygon fill="#191970" stroke="#191970" points="255.6781,-240.5621 245.1461,-241.7143 254.0978,-247.3814 255.6781,-240.5621"/>
</g>
<!-- Node18 -->
<g id="node19" class="node">
<title>Node18</title>
<polygon fill="#ffffff" stroke="#bfbfbf" points="551.5566,-168.5 551.5566,-187.5 601.5566,-187.5 601.5566,-168.5 551.5566,-168.5"/>
<text text-anchor="middle" x="576.5566" y="-175.5" font-family="Helvetica,sans-Serif" font-size="10.00" fill="#000000">atomic</text>
</g>
<!-- Node9&#45;&gt;Node18 -->
<g id="edge20" class="edge">
<title>Node9&#45;&gt;Node18</title>
<path fill="none" stroke="#191970" d="M512.0867,-283.1626C532.7145,-276.7233 558.9133,-264.8506 572.5566,-244 581.3845,-230.5085 581.7297,-211.9543 580.2429,-197.9538"/>
<polygon fill="#191970" stroke="#191970" points="583.682,-197.2807 578.7847,-187.8856 576.7542,-198.2841 583.682,-197.2807"/>
</g>
<!-- Node19 -->
<g id="node20" class="node">
<title>Node19</title>
<polygon fill="#ffffff" stroke="#bfbfbf" points="263.5566,-224.5 263.5566,-243.5 313.5566,-243.5 313.5566,-224.5 263.5566,-224.5"/>
<text text-anchor="middle" x="288.5566" y="-231.5" font-family="Helvetica,sans-Serif" font-size="10.00" fill="#000000">stdio.h</text>
</g>
<!-- Node9&#45;&gt;Node19 -->
<g id="edge21" class="edge">
<title>Node9&#45;&gt;Node19</title>
<path fill="none" stroke="#191970" d="M453.0517,-281.5756C422.8794,-272.9479 374.3973,-259.0495 323.6403,-244.3042"/>
<polygon fill="#191970" stroke="#191970" points="324.3821,-240.875 313.8025,-241.4439 322.4277,-247.5967 324.3821,-240.875"/>
</g>
<!-- Node20 -->
<g id="node21" class="node">
<title>Node20</title>
<polygon fill="#ffffff" stroke="#bfbfbf" points="332.0566,-224.5 332.0566,-243.5 385.0566,-243.5 385.0566,-224.5 332.0566,-224.5"/>
<text text-anchor="middle" x="358.5566" y="-231.5" font-family="Helvetica,sans-Serif" font-size="10.00" fill="#000000">string.h</text>
</g>
<!-- Node9&#45;&gt;Node20 -->
<g id="edge22" class="edge">
<title>Node9&#45;&gt;Node20</title>
<path fill="none" stroke="#191970" d="M461.2402,-280.3733C441.335,-271.3838 411.413,-257.8706 388.9966,-247.7471"/>
<polygon fill="#191970" stroke="#191970" points="390.1491,-244.4272 379.5948,-243.5011 387.2679,-250.8068 390.1491,-244.4272"/>
</g>
<!-- Node21 -->
<g id="node22" class="node">
<title>Node21</title>
<polygon fill="#ffffff" stroke="#bfbfbf" points="138.0566,-168.5 138.0566,-187.5 195.0566,-187.5 195.0566,-168.5 138.0566,-168.5"/>
<text text-anchor="middle" x="166.5566" y="-175.5" font-family="Helvetica,sans-Serif" font-size="10.00" fill="#000000">typeinfo</text>
</g>
<!-- Node9&#45;&gt;Node21 -->
<g id="edge23" class="edge">
<title>Node9&#45;&gt;Node21</title>
<path fill="none" stroke="#191970" d="M452.9679,-289.3869C353.9156,-287.0325 38.4934,-276.9827 8.5566,-244 -28.2148,-203.4873 69.5485,-187.1135 127.4111,-181.1096"/>
<polygon fill="#191970" stroke="#191970" points="128.0963,-184.5594 137.7095,-180.1057 127.4171,-177.5925 128.0963,-184.5594"/>
</g>
<!-- Node22 -->
<g id="node23" class="node">
<title>Node22</title>
<polygon fill="#ffffff" stroke="#bfbfbf" points="403.0566,-224.5 403.0566,-243.5 472.0566,-243.5 472.0566,-224.5 403.0566,-224.5"/>
<text text-anchor="middle" x="437.5566" y="-231.5" font-family="Helvetica,sans-Serif" font-size="10.00" fill="#000000">type_traits</text>
</g>
<!-- Node9&#45;&gt;Node22 -->
<g id="edge24" class="edge">
<title>Node9&#45;&gt;Node22</title>
<path fill="none" stroke="#191970" d="M474.7182,-280.2455C468.3945,-272.3761 459.3342,-261.101 451.743,-251.6542"/>
<polygon fill="#191970" stroke="#191970" points="454.2974,-249.2454 445.3051,-243.6427 448.8408,-253.6302 454.2974,-249.2454"/>
</g>
<!-- Node23 -->
<g id="node24" class="node">
<title>Node23</title>
<g id="a_node24"><a xlink:href="TGenericClassInfo_8h.html" target="_top" xlink:title="TGenericClassInfo.h">
<polygon fill="#ffffff" stroke="#000000" points="657.5566,-224.5 657.5566,-243.5 771.5566,-243.5 771.5566,-224.5 657.5566,-224.5"/>
<text text-anchor="middle" x="714.5566" y="-231.5" font-family="Helvetica,sans-Serif" font-size="10.00" fill="#000000">TGenericClassInfo.h</text>
</a>
</g>
</g>
<!-- Node9&#45;&gt;Node23 -->
<g id="edge25" class="edge">
<title>Node9&#45;&gt;Node23</title>
<path fill="none" stroke="#191970" d="M512.3068,-281.6162C549.5249,-272.1219 613.6947,-256.5804 659.8366,-245.8489"/>
<polygon fill="#191970" stroke="#191970" points="660.732,-249.2342 669.6847,-243.5686 659.1529,-242.4147 660.732,-249.2342"/>
</g>
<!-- Node27 -->
<g id="node28" class="node">
<title>Node27</title>
<g id="a_node28"><a xlink:href="TIsAProxy_8h.html" target="_top" xlink:title="TIsAProxy.h">
<polygon fill="#ffffff" stroke="#000000" points="490.0566,-224.5 490.0566,-243.5 563.0566,-243.5 563.0566,-224.5 490.0566,-224.5"/>
<text text-anchor="middle" x="526.5566" y="-231.5" font-family="Helvetica,sans-Serif" font-size="10.00" fill="#000000">TIsAProxy.h</text>
</a>
</g>
</g>
<!-- Node9&#45;&gt;Node27 -->
<g id="edge31" class="edge">
<title>Node9&#45;&gt;Node27</title>
<path fill="none" stroke="#191970" d="M490.2208,-280.2455C496.4039,-272.3761 505.2629,-261.101 512.6854,-251.6542"/>
<polygon fill="#191970" stroke="#191970" points="515.554,-253.6683 518.9802,-243.6427 510.0498,-249.3435 515.554,-253.6683"/>
</g>
<!-- Node11 -->
<g id="node12" class="node">
<title>Node11</title>
<g id="a_node12"><a xlink:href="RConfig_8hxx.html" target="_top" xlink:title="ROOT/RConfig.hxx">
<polygon fill="#ffffff" stroke="#000000" points="646.0566,-56.5 646.0566,-75.5 751.0566,-75.5 751.0566,-56.5 646.0566,-56.5"/>
<text text-anchor="middle" x="698.5566" y="-63.5" font-family="Helvetica,sans-Serif" font-size="10.00" fill="#000000">ROOT/RConfig.hxx</text>
</a>
</g>
</g>
<!-- Node10&#45;&gt;Node11 -->
<g id="edge13" class="edge">
<title>Node10&#45;&gt;Node11</title>
<path fill="none" stroke="#191970" d="M698.5566,-112.2455C698.5566,-104.9382 698.5566,-94.6944 698.5566,-85.7046"/>
<polygon fill="#191970" stroke="#191970" points="702.0567,-85.6426 698.5566,-75.6427 695.0567,-85.6427 702.0567,-85.6426"/>
</g>
<!-- Node14 -->
<g id="node15" class="node">
<title>Node14</title>
<polygon fill="#ffffff" stroke="#bfbfbf" points="769.5566,-56.5 769.5566,-75.5 825.5566,-75.5 825.5566,-56.5 769.5566,-56.5"/>
<text text-anchor="middle" x="797.5566" y="-63.5" font-family="Helvetica,sans-Serif" font-size="10.00" fill="#000000">stddef.h</text>
</g>
<!-- Node10&#45;&gt;Node14 -->
<g id="edge16" class="edge">
<title>Node10&#45;&gt;Node14</title>
<path fill="none" stroke="#191970" d="M715.801,-112.2455C731.1327,-103.5731 753.7764,-90.7645 771.3481,-80.825"/>
<polygon fill="#191970" stroke="#191970" points="773.5289,-83.6126 780.5097,-75.6427 770.0825,-77.5198 773.5289,-83.6126"/>
</g>
<!-- Node12 -->
<g id="node13" class="node">
<title>Node12</title>
<g id="a_node13"><a xlink:href="RVersion_8h.html" target="_top" xlink:title="../RVersion.h">
<polygon fill="#ffffff" stroke="#000000" points="660.0566,-.5 660.0566,-19.5 737.0566,-19.5 737.0566,-.5 660.0566,-.5"/>
<text text-anchor="middle" x="698.5566" y="-7.5" font-family="Helvetica,sans-Serif" font-size="10.00" fill="#000000">../RVersion.h</text>
</a>
</g>
</g>
<!-- Node11&#45;&gt;Node12 -->
<g id="edge14" class="edge">
<title>Node11&#45;&gt;Node12</title>
<path fill="none" stroke="#191970" d="M698.5566,-56.2455C698.5566,-48.9382 698.5566,-38.6944 698.5566,-29.7046"/>
<polygon fill="#191970" stroke="#191970" points="702.0567,-29.6426 698.5566,-19.6427 695.0567,-29.6427 702.0567,-29.6426"/>
</g>
<!-- Node13 -->
<g id="node14" class="node">
<title>Node13</title>
<polygon fill="#ffffff" stroke="#bfbfbf" points="810.5566,-.5 810.5566,-19.5 888.5566,-19.5 888.5566,-.5 810.5566,-.5"/>
<text text-anchor="middle" x="849.5566" y="-7.5" font-family="Helvetica,sans-Serif" font-size="10.00" fill="#000000">RConfigure.h</text>
</g>
<!-- Node11&#45;&gt;Node13 -->
<g id="edge15" class="edge">
<title>Node11&#45;&gt;Node13</title>
<path fill="none" stroke="#191970" d="M724.5144,-56.3733C749.2973,-47.1822 786.8312,-33.2624 814.3106,-23.0713"/>
<polygon fill="#191970" stroke="#191970" points="815.7785,-26.26 823.9375,-19.5011 813.3444,-19.6968 815.7785,-26.26"/>
</g>
<!-- Node23&#45;&gt;Node9 -->
<g id="edge30" class="edge">
<title>Node23&#45;&gt;Node9</title>
<path fill="none" stroke="#191970" d="M680.2468,-243.543C637.9928,-254.2523 566.6309,-271.4574 522.1153,-281.6521"/>
<polygon fill="#191970" stroke="#191970" points="521.2028,-278.2701 512.2278,-283.9004 522.755,-285.0959 521.2028,-278.2701"/>
</g>
<!-- Node24 -->
<g id="node25" class="node">
<title>Node24</title>
<polygon fill="#ffffff" stroke="#bfbfbf" points="658.0566,-168.5 658.0566,-187.5 705.0566,-187.5 705.0566,-168.5 658.0566,-168.5"/>
<text text-anchor="middle" x="681.5566" y="-175.5" font-family="Helvetica,sans-Serif" font-size="10.00" fill="#000000">vector</text>
</g>
<!-- Node23&#45;&gt;Node24 -->
<g id="edge26" class="edge">
<title>Node23&#45;&gt;Node24</title>
<path fill="none" stroke="#191970" d="M708.8084,-224.2455C704.313,-216.617 697.9317,-205.7881 692.4741,-196.5267"/>
<polygon fill="#191970" stroke="#191970" points="695.3312,-194.4811 687.2389,-187.6427 689.3004,-198.035 695.3312,-194.4811"/>
</g>
<!-- Node25 -->
<g id="node26" class="node">
<title>Node25</title>
<g id="a_node26"><a xlink:href="TSchemaHelper_8h.html" target="_top" xlink:title="TSchemaHelper.h">
<polygon fill="#ffffff" stroke="#000000" points="723.5566,-168.5 723.5566,-187.5 825.5566,-187.5 825.5566,-168.5 723.5566,-168.5"/>
<text text-anchor="middle" x="774.5566" y="-175.5" font-family="Helvetica,sans-Serif" font-size="10.00" fill="#000000">TSchemaHelper.h</text>
</a>
</g>
</g>
<!-- Node23&#45;&gt;Node25 -->
<g id="edge27" class="edge">
<title>Node23&#45;&gt;Node25</title>
<path fill="none" stroke="#191970" d="M725.0078,-224.2455C733.7834,-216.0549 746.512,-204.1749 756.8706,-194.5069"/>
<polygon fill="#191970" stroke="#191970" points="759.3027,-197.0246 764.2251,-187.6427 754.5264,-191.9072 759.3027,-197.0246"/>
</g>
<!-- Node25&#45;&gt;Node10 -->
<g id="edge28" class="edge">
<title>Node25&#45;&gt;Node10</title>
<path fill="none" stroke="#191970" d="M761.3184,-168.2455C749.8756,-159.814 733.1269,-147.4729 719.8091,-137.6598"/>
<polygon fill="#191970" stroke="#191970" points="721.7698,-134.757 711.6431,-131.6427 717.6174,-140.3924 721.7698,-134.757"/>
</g>
<!-- Node26 -->
<g id="node27" class="node">
<title>Node26</title>
<polygon fill="#ffffff" stroke="#bfbfbf" points="789.5566,-112.5 789.5566,-131.5 833.5566,-131.5 833.5566,-112.5 789.5566,-112.5"/>
<text text-anchor="middle" x="811.5566" y="-119.5" font-family="Helvetica,sans-Serif" font-size="10.00" fill="#000000">string</text>
</g>
<!-- Node25&#45;&gt;Node26 -->
<g id="edge29" class="edge">
<title>Node25&#45;&gt;Node26</title>
<path fill="none" stroke="#191970" d="M781.0015,-168.2455C786.0948,-160.5367 793.3474,-149.5598 799.5086,-140.2348"/>
<polygon fill="#191970" stroke="#191970" points="802.5931,-141.9155 805.1855,-131.6427 796.7527,-138.0566 802.5931,-141.9155"/>
</g>
<!-- Node27&#45;&gt;Node10 -->
<g id="edge33" class="edge">
<title>Node27&#45;&gt;Node10</title>
<path fill="none" stroke="#191970" d="M494.0053,-224.497C465.5092,-215.4418 427.3222,-201.2611 418.5566,-188 413.655,-180.5847 412.8032,-174.7757 418.5566,-168 433.1551,-150.8074 570.1603,-134.6721 646.9676,-126.8798"/>
<polygon fill="#191970" stroke="#191970" points="647.7855,-130.3155 657.387,-125.8364 647.088,-123.3504 647.7855,-130.3155"/>
</g>
<!-- Node27&#45;&gt;Node18 -->
<g id="edge34" class="edge">
<title>Node27&#45;&gt;Node18</title>
<path fill="none" stroke="#191970" d="M535.2659,-224.2455C542.3639,-216.2958 552.565,-204.8706 561.0516,-195.3656"/>
<polygon fill="#191970" stroke="#191970" points="563.8976,-197.4331 567.947,-187.6427 558.6761,-192.771 563.8976,-197.4331"/>
</g>
<!-- Node27&#45;&gt;Node21 -->
<g id="edge35" class="edge">
<title>Node27&#45;&gt;Node21</title>
<path fill="none" stroke="#191970" d="M489.7646,-225.5924C486.9918,-225.0298 484.2327,-224.4921 481.5566,-224 382.5909,-205.8033 265.0641,-190.2224 205.4358,-182.7407"/>
<polygon fill="#191970" stroke="#191970" points="205.6942,-179.2459 195.338,-181.4818 204.8281,-186.1921 205.6942,-179.2459"/>
</g>
<!-- Node28 -->
<g id="node29" class="node">
<title>Node28</title>
<g id="a_node29"><a xlink:href="TVirtualIsAProxy_8h.html" target="_top" xlink:title="TVirtualIsAProxy.h">
<polygon fill="#ffffff" stroke="#000000" points="428.0566,-168.5 428.0566,-187.5 533.0566,-187.5 533.0566,-168.5 428.0566,-168.5"/>
<text text-anchor="middle" x="480.5566" y="-175.5" font-family="Helvetica,sans-Serif" font-size="10.00" fill="#000000">TVirtualIsAProxy.h</text>
</a>
</g>
</g>
<!-- Node27&#45;&gt;Node28 -->
<g id="edge32" class="edge">
<title>Node27&#45;&gt;Node28</title>
<path fill="none" stroke="#191970" d="M518.544,-224.2455C512.0798,-216.3761 502.8181,-205.101 495.0582,-195.6542"/>
<polygon fill="#191970" stroke="#191970" points="497.5293,-193.1484 488.4773,-187.6427 492.1202,-197.5916 497.5293,-193.1484"/>
</g>
<!-- Node30&#45;&gt;Node26 -->
<g id="edge38" class="edge">
<title>Node30&#45;&gt;Node26</title>
<path fill="none" stroke="#191970" d="M811.4118,-392.3119C818.3404,-383.3557 828.2846,-369.4392 834.5566,-356 847.4656,-328.3394 853.5566,-320.5246 853.5566,-290 853.5566,-290 853.5566,-290 853.5566,-234 853.5566,-199.2434 835.6047,-162.0613 823.174,-140.4811"/>
<polygon fill="#191970" stroke="#191970" points="826.0743,-138.5116 817.9355,-131.7285 820.0679,-142.1065 826.0743,-138.5116"/>
</g>
<!-- Node31 -->
<g id="node32" class="node">
<title>Node31</title>
<polygon fill="#ffffff" stroke="#bfbfbf" points="953.5566,-336.5 953.5566,-355.5 1009.5566,-355.5 1009.5566,-336.5 953.5566,-336.5"/>
<text text-anchor="middle" x="981.5566" y="-343.5" font-family="Helvetica,sans-Serif" font-size="10.00" fill="#000000">sstream</text>
</g>
<!-- Node30&#45;&gt;Node31 -->
<g id="edge39" class="edge">
<title>Node30&#45;&gt;Node31</title>
<path fill="none" stroke="#191970" d="M834.1559,-392.3733C864.5133,-382.8226 911.1009,-368.1658 943.7547,-357.8927"/>
<polygon fill="#191970" stroke="#191970" points="944.9193,-361.1955 953.408,-354.8557 942.8185,-354.5182 944.9193,-361.1955"/>
</g>
<!-- Node32 -->
<g id="node33" class="node">
<title>Node32</title>
<polygon fill="#ffffff" stroke="#bfbfbf" points="716.0566,-336.5 716.0566,-355.5 763.0566,-355.5 763.0566,-336.5 716.0566,-336.5"/>
<text text-anchor="middle" x="739.5566" y="-343.5" font-family="Helvetica,sans-Serif" font-size="10.00" fill="#000000">cmath</text>
</g>
<!-- Node30&#45;&gt;Node32 -->
<g id="edge40" class="edge">
<title>Node30&#45;&gt;Node32</title>
<path fill="none" stroke="#191970" d="M792.4086,-392.2455C783.0479,-384.0549 769.4708,-372.1749 758.4216,-362.5069"/>
<polygon fill="#191970" stroke="#191970" points="760.4073,-359.5937 750.5768,-355.6427 755.7978,-364.8618 760.4073,-359.5937"/>
</g>
<!-- Node33 -->
<g id="node34" class="node">
<title>Node33</title>
<polygon fill="#ffffff" stroke="#bfbfbf" points="781.5566,-336.5 781.5566,-355.5 825.5566,-355.5 825.5566,-336.5 781.5566,-336.5"/>
<text text-anchor="middle" x="803.5566" y="-343.5" font-family="Helvetica,sans-Serif" font-size="10.00" fill="#000000">limits</text>
</g>
<!-- Node30&#45;&gt;Node33 -->
<g id="edge41" class="edge">
<title>Node30&#45;&gt;Node33</title>
<path fill="none" stroke="#191970" d="M803.5566,-392.2455C803.5566,-384.9382 803.5566,-374.6944 803.5566,-365.7046"/>
<polygon fill="#191970" stroke="#191970" points="807.0567,-365.6426 803.5566,-355.6427 800.0567,-365.6427 807.0567,-365.6426"/>
</g>
<!-- Node34 -->
<g id="node35" class="node">
<title>Node34</title>
<g id="a_node35"><a xlink:href="math_2mathcore_2inc_2Math_2Types_8h.html" target="_top" xlink:title="Types.h">
<polygon fill="#ffffff" stroke="#000000" points="882.0566,-336.5 882.0566,-355.5 935.0566,-355.5 935.0566,-336.5 882.0566,-336.5"/>
<text text-anchor="middle" x="908.5566" y="-343.5" font-family="Helvetica,sans-Serif" font-size="10.00" fill="#000000">Types.h</text>
</a>
</g>
</g>
<!-- Node30&#45;&gt;Node34 -->
<g id="edge42" class="edge">
<title>Node30&#45;&gt;Node34</title>
<path fill="none" stroke="#191970" d="M821.8462,-392.2455C838.3328,-383.4527 862.7917,-370.4079 881.5331,-360.4125"/>
<polygon fill="#191970" stroke="#191970" points="883.3001,-363.4368 890.4766,-355.6427 880.0059,-357.2604 883.3001,-363.4368"/>
</g>
<!-- Node34&#45;&gt;Node9 -->
<g id="edge44" class="edge">
<title>Node34&#45;&gt;Node9</title>
<path fill="none" stroke="#191970" d="M881.8438,-342.3615C867.776,-340.4526 850.2348,-338.0838 834.5566,-336 721.4173,-320.9629 587.7636,-303.6093 522.4824,-295.1598"/>
<polygon fill="#191970" stroke="#191970" points="522.5973,-291.6455 512.2308,-293.8333 521.699,-298.5877 522.5973,-291.6455"/>
</g>
<!-- Node34&#45;&gt;Node13 -->
<g id="edge43" class="edge">
<title>Node34&#45;&gt;Node13</title>
<path fill="none" stroke="#191970" d="M907.2671,-336.4324C904.7785,-317.112 899.5566,-272.0389 899.5566,-234 899.5566,-234 899.5566,-234 899.5566,-122 899.5566,-86.2001 877.9923,-49.1175 863.1873,-27.8769"/>
<polygon fill="#191970" stroke="#191970" points="865.8515,-25.5886 857.1505,-19.5435 860.1826,-29.6952 865.8515,-25.5886"/>
</g>
<!-- Node36 -->
<g id="node37" class="node">
<title>Node36</title>
<g id="a_node37"><a xlink:href="IFunctionfwd_8h.html" target="_top" xlink:title="Math/IFunctionfwd.h">
<polygon fill="#ffffff" stroke="#000000" points="856.5566,-392.5 856.5566,-411.5 970.5566,-411.5 970.5566,-392.5 856.5566,-392.5"/>
<text text-anchor="middle" x="913.5566" y="-399.5" font-family="Helvetica,sans-Serif" font-size="10.00" fill="#000000">Math/IFunctionfwd.h</text>
</a>
</g>
</g>
<!-- Node35&#45;&gt;Node36 -->
<g id="edge46" class="edge">
<title>Node35&#45;&gt;Node36</title>
<path fill="none" stroke="#191970" d="M909.4275,-448.2455C910.0799,-440.9382 910.9946,-430.6944 911.7972,-421.7046"/>
<polygon fill="#191970" stroke="#191970" points="915.2923,-421.9143 912.6956,-411.6427 908.3201,-421.2918 915.2923,-421.9143"/>
</g>
</g>
</svg>
