<?xml version="1.0" encoding="UTF-8" standalone="no"?>
<!DOCTYPE svg PUBLIC "-//W3C//DTD SVG 1.1//EN"
 "http://www.w3.org/Graphics/SVG/1.1/DTD/svg11.dtd">
<!-- Generated by graphviz version 2.40.1 (0)
 -->
<!-- Title: math/mathmore/src/GSLMultiRootFunctionWrapper.h Pages: 1 -->
<svg width="167pt" height="173pt"
 viewBox="0.00 0.00 167.00 173.00" xmlns="http://www.w3.org/2000/svg" xmlns:xlink="http://www.w3.org/1999/xlink">
<g id="graph0" class="graph" transform="scale(1 1) rotate(0) translate(4 169)">
<title>math/mathmore/src/GSLMultiRootFunctionWrapper.h</title>
<polygon fill="#ffffff" stroke="transparent" points="-4,4 -4,-169 163,-169 163,4 -4,4"/>
<!-- Node6 -->
<g id="node1" class="node">
<title>Node6</title>
<polygon fill="#bfbfbf" stroke="#000000" points="0,-134.5 0,-164.5 159,-164.5 159,-134.5 0,-134.5"/>
<text text-anchor="start" x="8" y="-152.5" font-family="Helvetica,sans-Serif" font-size="10.00" fill="#000000">math/mathmore/src/GSLMulti</text>
<text text-anchor="middle" x="79.5" y="-141.5" font-family="Helvetica,sans-Serif" font-size="10.00" fill="#000000">RootFunctionWrapper.h</text>
</g>
<!-- Node7 -->
<g id="node2" class="node">
<title>Node7</title>
<g id="a_node2"><a xlink:href="GSLMultiRootSolver_8h.html" target="_top" xlink:title="math/mathmore/src/GSLMulti\lRootSolver.h">
<polygon fill="#ffffff" stroke="#000000" points="0,-67.5 0,-97.5 159,-97.5 159,-67.5 0,-67.5"/>
<text text-anchor="start" x="8" y="-85.5" font-family="Helvetica,sans-Serif" font-size="10.00" fill="#000000">math/mathmore/src/GSLMulti</text>
<text text-anchor="middle" x="79.5" y="-74.5" font-family="Helvetica,sans-Serif" font-size="10.00" fill="#000000">RootSolver.h</text>
</a>
</g>
</g>
<!-- Node6&#45;&gt;Node7 -->
<g id="edge1" class="edge">
<title>Node6&#45;&gt;Node7</title>
<path fill="none" stroke="#191970" d="M79.5,-124.0249C79.5,-115.128 79.5,-105.4287 79.5,-97.6432"/>
<polygon fill="#191970" stroke="#191970" points="76.0001,-124.2966 79.5,-134.2967 83.0001,-124.2967 76.0001,-124.2966"/>
</g>
<!-- Node8 -->
<g id="node3" class="node">
<title>Node8</title>
<g id="a_node3"><a xlink:href="GSLMultiRootFinder_8cxx.html" target="_top" xlink:title="math/mathmore/src/GSLMulti\lRootFinder.cxx">
<polygon fill="#ffffff" stroke="#000000" points="0,-.5 0,-30.5 159,-30.5 159,-.5 0,-.5"/>
<text text-anchor="start" x="8" y="-18.5" font-family="Helvetica,sans-Serif" font-size="10.00" fill="#000000">math/mathmore/src/GSLMulti</text>
<text text-anchor="middle" x="79.5" y="-7.5" font-family="Helvetica,sans-Serif" font-size="10.00" fill="#000000">RootFinder.cxx</text>
</a>
</g>
</g>
<!-- Node7&#45;&gt;Node8 -->
<g id="edge2" class="edge">
<title>Node7&#45;&gt;Node8</title>
<path fill="none" stroke="#191970" d="M79.5,-57.0249C79.5,-48.128 79.5,-38.4287 79.5,-30.6432"/>
<polygon fill="#191970" stroke="#191970" points="76.0001,-57.2966 79.5,-67.2967 83.0001,-57.2967 76.0001,-57.2966"/>
</g>
</g>
</svg>
