<?xml version="1.0" encoding="UTF-8" standalone="no"?>
<!DOCTYPE svg PUBLIC "-//W3C//DTD SVG 1.1//EN"
 "http://www.w3.org/Graphics/SVG/1.1/DTD/svg11.dtd">
<!-- Generated by graphviz version 2.40.1 (0)
 -->
<!-- Title: math/mathmore/inc/Math/GSLQuasiRandom.h Pages: 1 -->
<svg width="330pt" height="106pt"
 viewBox="0.00 0.00 329.50 106.00" xmlns="http://www.w3.org/2000/svg" xmlns:xlink="http://www.w3.org/1999/xlink">
<g id="graph0" class="graph" transform="scale(1 1) rotate(0) translate(4 102)">
<title>math/mathmore/inc/Math/GSLQuasiRandom.h</title>
<polygon fill="#ffffff" stroke="transparent" points="-4,4 -4,-102 325.5,-102 325.5,4 -4,4"/>
<!-- Node2 -->
<g id="node1" class="node">
<title>Node2</title>
<polygon fill="#bfbfbf" stroke="#000000" points="85,-67.5 85,-97.5 225,-97.5 225,-67.5 85,-67.5"/>
<text text-anchor="start" x="93" y="-85.5" font-family="Helvetica,sans-Serif" font-size="10.00" fill="#000000">math/mathmore/inc/Math</text>
<text text-anchor="middle" x="155" y="-74.5" font-family="Helvetica,sans-Serif" font-size="10.00" fill="#000000">/GSLQuasiRandom.h</text>
</g>
<!-- Node3 -->
<g id="node2" class="node">
<title>Node3</title>
<g id="a_node2"><a xlink:href="QuasiRandom_8h.html" target="_top" xlink:title="math/mathmore/inc/Math\l/QuasiRandom.h">
<polygon fill="#ffffff" stroke="#000000" points="0,-.5 0,-30.5 140,-30.5 140,-.5 0,-.5"/>
<text text-anchor="start" x="8" y="-18.5" font-family="Helvetica,sans-Serif" font-size="10.00" fill="#000000">math/mathmore/inc/Math</text>
<text text-anchor="middle" x="70" y="-7.5" font-family="Helvetica,sans-Serif" font-size="10.00" fill="#000000">/QuasiRandom.h</text>
</a>
</g>
</g>
<!-- Node2&#45;&gt;Node3 -->
<g id="edge1" class="edge">
<title>Node2&#45;&gt;Node3</title>
<path fill="none" stroke="#191970" d="M127.8055,-61.0643C115.2374,-51.1577 100.6083,-39.6265 89.2115,-30.6432"/>
<polygon fill="#191970" stroke="#191970" points="125.6919,-63.8549 135.7122,-67.2967 130.0253,-58.3574 125.6919,-63.8549"/>
</g>
<!-- Node4 -->
<g id="node3" class="node">
<title>Node4</title>
<g id="a_node3"><a xlink:href="GSLQuasiRandom_8cxx.html" target="_top" xlink:title="math/mathmore/src/GSLQuasi\lRandom.cxx">
<polygon fill="#ffffff" stroke="#000000" points="158.5,-.5 158.5,-30.5 321.5,-30.5 321.5,-.5 158.5,-.5"/>
<text text-anchor="start" x="166.5" y="-18.5" font-family="Helvetica,sans-Serif" font-size="10.00" fill="#000000">math/mathmore/src/GSLQuasi</text>
<text text-anchor="middle" x="240" y="-7.5" font-family="Helvetica,sans-Serif" font-size="10.00" fill="#000000">Random.cxx</text>
</a>
</g>
</g>
<!-- Node2&#45;&gt;Node4 -->
<g id="edge2" class="edge">
<title>Node2&#45;&gt;Node4</title>
<path fill="none" stroke="#191970" d="M182.1945,-61.0643C194.7626,-51.1577 209.3917,-39.6265 220.7885,-30.6432"/>
<polygon fill="#191970" stroke="#191970" points="179.9747,-58.3574 174.2878,-67.2967 184.3081,-63.8549 179.9747,-58.3574"/>
</g>
</g>
</svg>
