<?xml version="1.0" encoding="UTF-8" standalone="no"?>
<!DOCTYPE svg PUBLIC "-//W3C//DTD SVG 1.1//EN"
 "http://www.w3.org/Graphics/SVG/1.1/DTD/svg11.dtd">
<!-- Generated by graphviz version 2.40.1 (0)
 -->
<!-- Title: math/mathmore/inc/Math/GSLRandomFunctions.h Pages: 1 -->
<!--zoomable 173 -->
<svg id="main" version="1.1" xmlns="http://www.w3.org/2000/svg" xmlns:xlink="http://www.w3.org/1999/xlink" xml:space="preserve" onload="init(evt)">
<style type="text/css"><![CDATA[
.edge:hover path { stroke: red; }
.edge:hover polygon { stroke: red; fill: red; }
]]></style>
<script type="text/javascript"><![CDATA[
var edges = document.getElementsByTagName('g');
if (edges && edges.length) {
  for (var i=0;i<edges.length;i++) {
    if (edges[i].id.substr(0,4)=='edge') {
      edges[i].setAttribute('class','edge');
    }
  }
}
]]></script>
        <defs>
                <circle id="rim" cx="0" cy="0" r="7"/>
                <circle id="rim2" cx="0" cy="0" r="3.5"/>
                <g id="zoomPlus">
                        <use xlink:href="#rim" fill="#404040">
                                <set attributeName="fill" to="#808080" begin="zoomplus.mouseover" end="zoomplus.mouseout"/>
                        </use>
                        <path d="M-4,0h8M0,-4v8" fill="none" stroke="white" stroke-width="1.5" pointer-events="none"/>
                </g>
                <g id="zoomMin">
                        <use xlink:href="#rim" fill="#404040">
                                <set attributeName="fill" to="#808080" begin="zoomminus.mouseover" end="zoomminus.mouseout"/>
                        </use>
                        <path d="M-4,0h8" fill="none" stroke="white" stroke-width="1.5" pointer-events="none"/>
                </g>
                <g id="dirArrow">
                        <path fill="none" stroke="white" stroke-width="1.5" d="M0,-3.0v7 M-2.5,-0.5L0,-3.0L2.5,-0.5"/>
                </g>
               <g id="resetDef">
                       <use xlink:href="#rim2" fill="#404040">
                               <set attributeName="fill" to="#808080" begin="reset.mouseover" end="reset.mouseout"/>
                       </use>
               </g>
        </defs>

<script type="text/javascript">
var viewWidth = 738;
var viewHeight = 173;
var sectionId = 'dynsection-1';
</script>
<script xlink:href="svgpan.js"/>
<svg id="graph" class="graph">
<g id="viewport">
<title>math/mathmore/inc/Math/GSLRandomFunctions.h</title>
<polygon fill="#ffffff" stroke="transparent" points="-4,4 -4,-169 734,-169 734,4 -4,4"/>
<!-- Node34 -->
<g id="node1" class="node">
<title>Node34</title>
<polygon fill="#bfbfbf" stroke="#000000" points="301,-134.5 301,-164.5 441,-164.5 441,-134.5 301,-134.5"/>
<text text-anchor="start" x="309" y="-152.5" font-family="Helvetica,sans-Serif" font-size="10.00" fill="#000000">math/mathmore/inc/Math</text>
<text text-anchor="middle" x="371" y="-141.5" font-family="Helvetica,sans-Serif" font-size="10.00" fill="#000000">/GSLRandomFunctions.h</text>
</g>
<!-- Node35 -->
<g id="node2" class="node">
<title>Node35</title>
<g id="a_node2"><a xlink:href="GSLRndmEngines_8h.html" target="_top" xlink:title="math/mathmore/inc/Math\l/GSLRndmEngines.h">
<polygon fill="#ffffff" stroke="#000000" points="301,-67.5 301,-97.5 441,-97.5 441,-67.5 301,-67.5"/>
<text text-anchor="start" x="309" y="-85.5" font-family="Helvetica,sans-Serif" font-size="10.00" fill="#000000">math/mathmore/inc/Math</text>
<text text-anchor="middle" x="371" y="-74.5" font-family="Helvetica,sans-Serif" font-size="10.00" fill="#000000">/GSLRndmEngines.h</text>
</a>
</g>
</g>
<!-- Node34&#45;&gt;Node35 -->
<g id="edge1" class="edge">
<title>Node34&#45;&gt;Node35</title>
<path fill="none" stroke="#191970" d="M364.4384,-124.3179C364.0239,-115.3414 364.2933,-105.5143 365.2464,-97.6432"/>
<polygon fill="#191970" stroke="#191970" points="360.9504,-124.6087 365.2392,-134.2967 367.928,-124.0487 360.9504,-124.6087"/>
</g>
<!-- Node35&#45;&gt;Node34 -->
<g id="edge3" class="edge">
<title>Node35&#45;&gt;Node34</title>
<path fill="none" stroke="#191970" d="M377.5584,-107.6135C377.9764,-116.5857 377.7105,-126.4156 376.7608,-134.2967"/>
<polygon fill="#191970" stroke="#191970" points="381.0469,-107.3291 376.7536,-97.6432 374.0696,-107.8924 381.0469,-107.3291"/>
</g>
<!-- Node36 -->
<g id="node3" class="node">
<title>Node36</title>
<g id="a_node3"><a xlink:href="GSLRandom_8h.html" target="_top" xlink:title="math/mathmore/inc/Math\l/GSLRandom.h">
<polygon fill="#ffffff" stroke="#000000" points="0,-.5 0,-30.5 140,-30.5 140,-.5 0,-.5"/>
<text text-anchor="start" x="8" y="-18.5" font-family="Helvetica,sans-Serif" font-size="10.00" fill="#000000">math/mathmore/inc/Math</text>
<text text-anchor="middle" x="70" y="-7.5" font-family="Helvetica,sans-Serif" font-size="10.00" fill="#000000">/GSLRandom.h</text>
</a>
</g>
</g>
<!-- Node35&#45;&gt;Node36 -->
<g id="edge2" class="edge">
<title>Node35&#45;&gt;Node36</title>
<path fill="none" stroke="#191970" d="M293.6737,-65.2878C245.4144,-54.5457 183.8884,-40.8506 137.5847,-30.5438"/>
<polygon fill="#191970" stroke="#191970" points="292.9281,-68.7075 303.4497,-67.4639 294.4491,-61.8747 292.9281,-68.7075"/>
</g>
<!-- Node37 -->
<g id="node4" class="node">
<title>Node37</title>
<g id="a_node4"><a xlink:href="GSLMCIntegrator_8cxx.html" target="_top" xlink:title="math/mathmore/src/GSLMCIntegrator.cxx">
<polygon fill="#ffffff" stroke="#000000" points="158,-6 158,-25 376,-25 376,-6 158,-6"/>
<text text-anchor="middle" x="267" y="-13" font-family="Helvetica,sans-Serif" font-size="10.00" fill="#000000">math/mathmore/src/GSLMCIntegrator.cxx</text>
</a>
</g>
</g>
<!-- Node35&#45;&gt;Node37 -->
<g id="edge4" class="edge">
<title>Node35&#45;&gt;Node37</title>
<path fill="none" stroke="#191970" d="M339.2481,-62.0445C320.1799,-49.7601 296.8068,-34.7025 281.9076,-25.1039"/>
<polygon fill="#191970" stroke="#191970" points="337.3583,-64.9904 347.6604,-67.4639 341.1494,-59.1058 337.3583,-64.9904"/>
</g>
<!-- Node38 -->
<g id="node5" class="node">
<title>Node38</title>
<g id="a_node5"><a xlink:href="GSLRndmEngines_8cxx.html" target="_top" xlink:title="math/mathmore/src/GSLRndm\lEngines.cxx">
<polygon fill="#ffffff" stroke="#000000" points="394,-.5 394,-30.5 558,-30.5 558,-.5 394,-.5"/>
<text text-anchor="start" x="402" y="-18.5" font-family="Helvetica,sans-Serif" font-size="10.00" fill="#000000">math/mathmore/src/GSLRndm</text>
<text text-anchor="middle" x="476" y="-7.5" font-family="Helvetica,sans-Serif" font-size="10.00" fill="#000000">Engines.cxx</text>
</a>
</g>
</g>
<!-- Node35&#45;&gt;Node38 -->
<g id="edge5" class="edge">
<title>Node35&#45;&gt;Node38</title>
<path fill="none" stroke="#191970" d="M403.0076,-62.0761C418.8339,-51.9774 437.6071,-39.9983 452.1513,-30.7177"/>
<polygon fill="#191970" stroke="#191970" points="401.1113,-59.1342 394.564,-67.4639 404.8768,-65.0352 401.1113,-59.1342"/>
</g>
<!-- Node39 -->
<g id="node6" class="node">
<title>Node39</title>
<g id="a_node6"><a xlink:href="GSLSimAnnealing_8cxx.html" target="_top" xlink:title="math/mathmore/src/GSLSim\lAnnealing.cxx">
<polygon fill="#ffffff" stroke="#000000" points="576,-.5 576,-30.5 730,-30.5 730,-.5 576,-.5"/>
<text text-anchor="start" x="584" y="-18.5" font-family="Helvetica,sans-Serif" font-size="10.00" fill="#000000">math/mathmore/src/GSLSim</text>
<text text-anchor="middle" x="653" y="-7.5" font-family="Helvetica,sans-Serif" font-size="10.00" fill="#000000">Annealing.cxx</text>
</a>
</g>
</g>
<!-- Node35&#45;&gt;Node39 -->
<g id="edge6" class="edge">
<title>Node35&#45;&gt;Node39</title>
<path fill="none" stroke="#191970" d="M444.2783,-65.0899C489.2797,-54.3981 546.3511,-40.8386 589.4377,-30.6017"/>
<polygon fill="#191970" stroke="#191970" points="443.2064,-61.7471 434.2863,-67.4639 444.8245,-68.5575 443.2064,-61.7471"/>
</g>
</g>
</svg>
        <g id="navigator" transform="translate(0 0)" fill="#404254">
                <rect fill="#f2f5e9" fill-opacity="0.5" stroke="#606060" stroke-width=".5" x="0" y="0" width="60" height="60"/>
                <use id="zoomplus" xlink:href="#zoomPlus" x="17" y="9" onmousedown="handleZoom(evt,'in')"/>
                <use id="zoomminus" xlink:href="#zoomMin" x="42" y="9" onmousedown="handleZoom(evt,'out')"/>
                <use id="reset" xlink:href="#resetDef" x="30" y="36" onmousedown="handleReset()"/>
                <g id="arrowUp" xlink:href="#dirArrow" transform="translate(30 24)" onmousedown="handlePan(0,-1)">
                  <use xlink:href="#rim" fill="#404040">
                        <set attributeName="fill" to="#808080" begin="arrowUp.mouseover" end="arrowUp.mouseout"/>
                  </use>
                  <path fill="none" stroke="white" stroke-width="1.5" d="M0,-3.0v7 M-2.5,-0.5L0,-3.0L2.5,-0.5"/>
                </g>
                <g id="arrowRight" xlink:href="#dirArrow" transform="rotate(90) translate(36 -43)" onmousedown="handlePan(1,0)">
                  <use xlink:href="#rim" fill="#404040">
                        <set attributeName="fill" to="#808080" begin="arrowRight.mouseover" end="arrowRight.mouseout"/>
                  </use>
                  <path fill="none" stroke="white" stroke-width="1.5" d="M0,-3.0v7 M-2.5,-0.5L0,-3.0L2.5,-0.5"/>
                </g>
                <g id="arrowDown" xlink:href="#dirArrow" transform="rotate(180) translate(-30 -48)" onmousedown="handlePan(0,1)">
                  <use xlink:href="#rim" fill="#404040">
                        <set attributeName="fill" to="#808080" begin="arrowDown.mouseover" end="arrowDown.mouseout"/>
                  </use>
                  <path fill="none" stroke="white" stroke-width="1.5" d="M0,-3.0v7 M-2.5,-0.5L0,-3.0L2.5,-0.5"/>
                </g>
                <g id="arrowLeft" xlink:href="#dirArrow" transform="rotate(270) translate(-36 17)" onmousedown="handlePan(-1,0)">
                  <use xlink:href="#rim" fill="#404040">
                        <set attributeName="fill" to="#808080" begin="arrowLeft.mouseover" end="arrowLeft.mouseout"/>
                  </use>
                  <path fill="none" stroke="white" stroke-width="1.5" d="M0,-3.0v7 M-2.5,-0.5L0,-3.0L2.5,-0.5"/>
                </g>
        </g>
        <svg viewBox="0 0 15 15" width="100%" height="30px" preserveAspectRatio="xMaxYMin meet">
         <g id="arrow_out" transform="scale(0.3 0.3)">
          <a xlink:href="GSLRandomFunctions_8h__dep__incl_org.svg" target="_base">
           <rect id="button" ry="5" rx="5" y="6" x="6" height="38" width="38"
                fill="#f2f5e9" fill-opacity="0.5" stroke="#606060" stroke-width="1.0"/>
           <path id="arrow"
             d="M 11.500037,31.436501 C 11.940474,20.09759 22.043105,11.32322 32.158766,21.979434 L 37.068811,17.246167 C 37.068811,17.246167 37.088388,32 37.088388,32 L 22.160133,31.978069 C 22.160133,31.978069 26.997745,27.140456 26.997745,27.140456 C 18.528582,18.264221 13.291696,25.230495 11.500037,31.436501 z"
             style="fill:#404040;"/>
          </a>
         </g>
        </svg>
</svg>
