<?xml version="1.0" encoding="UTF-8" standalone="no"?>
<!DOCTYPE svg PUBLIC "-//W3C//DTD SVG 1.1//EN"
 "http://www.w3.org/Graphics/SVG/1.1/DTD/svg11.dtd">
<!-- Generated by graphviz version 2.40.1 (0)
 -->
<!-- Title: math/mathmore/src/GSLRootHelper.cxx Pages: 1 -->
<svg width="238pt" height="95pt"
 viewBox="0.00 0.00 238.00 95.00" xmlns="http://www.w3.org/2000/svg" xmlns:xlink="http://www.w3.org/1999/xlink">
<g id="graph0" class="graph" transform="scale(1 1) rotate(0) translate(4 91)">
<title>math/mathmore/src/GSLRootHelper.cxx</title>
<polygon fill="#ffffff" stroke="transparent" points="-4,4 -4,-91 234,-91 234,4 -4,4"/>
<!-- Node0 -->
<g id="node1" class="node">
<title>Node0</title>
<polygon fill="#bfbfbf" stroke="#000000" points="46,-56.5 46,-86.5 203,-86.5 203,-56.5 46,-56.5"/>
<text text-anchor="start" x="54" y="-74.5" font-family="Helvetica,sans-Serif" font-size="10.00" fill="#000000">math/mathmore/src/GSLRoot</text>
<text text-anchor="middle" x="124.5" y="-63.5" font-family="Helvetica,sans-Serif" font-size="10.00" fill="#000000">Helper.cxx</text>
</g>
<!-- Node1 -->
<g id="node2" class="node">
<title>Node1</title>
<g id="a_node2"><a xlink:href="GSLRootHelper_8h.html" target="_top" xlink:title="Math/GSLRootHelper.h">
<polygon fill="#ffffff" stroke="#000000" points="0,-.5 0,-19.5 125,-19.5 125,-.5 0,-.5"/>
<text text-anchor="middle" x="62.5" y="-7.5" font-family="Helvetica,sans-Serif" font-size="10.00" fill="#000000">Math/GSLRootHelper.h</text>
</a>
</g>
</g>
<!-- Node0&#45;&gt;Node1 -->
<g id="edge1" class="edge">
<title>Node0&#45;&gt;Node1</title>
<path fill="none" stroke="#191970" d="M109.1742,-56.2977C100.2093,-47.4052 88.8712,-36.1586 79.6149,-26.9769"/>
<polygon fill="#191970" stroke="#191970" points="81.9915,-24.4045 72.427,-19.8469 77.0618,-29.3742 81.9915,-24.4045"/>
</g>
<!-- Node2 -->
<g id="node3" class="node">
<title>Node2</title>
<polygon fill="#ffffff" stroke="#bfbfbf" points="143,-.5 143,-19.5 230,-19.5 230,-.5 143,-.5"/>
<text text-anchor="middle" x="186.5" y="-7.5" font-family="Helvetica,sans-Serif" font-size="10.00" fill="#000000">gsl/gsl_roots.h</text>
</g>
<!-- Node0&#45;&gt;Node2 -->
<g id="edge2" class="edge">
<title>Node0&#45;&gt;Node2</title>
<path fill="none" stroke="#191970" d="M139.8258,-56.2977C148.7907,-47.4052 160.1288,-36.1586 169.3851,-26.9769"/>
<polygon fill="#191970" stroke="#191970" points="171.9382,-29.3742 176.573,-19.8469 167.0085,-24.4045 171.9382,-29.3742"/>
</g>
</g>
</svg>
