<?xml version="1.0" encoding="UTF-8" standalone="no"?>
<!DOCTYPE svg PUBLIC "-//W3C//DTD SVG 1.1//EN"
 "http://www.w3.org/Graphics/SVG/1.1/DTD/svg11.dtd">
<!-- Generated by graphviz version 2.40.1 (0)
 -->
<!-- Title: math/mathmore/inc/Math/GSLSimAnnealing.h Pages: 1 -->
<svg width="327pt" height="173pt"
 viewBox="0.00 0.00 327.00 173.00" xmlns="http://www.w3.org/2000/svg" xmlns:xlink="http://www.w3.org/1999/xlink">
<g id="graph0" class="graph" transform="scale(1 1) rotate(0) translate(4 169)">
<title>math/mathmore/inc/Math/GSLSimAnnealing.h</title>
<polygon fill="#ffffff" stroke="transparent" points="-4,4 -4,-169 323,-169 323,4 -4,4"/>
<!-- Node3 -->
<g id="node1" class="node">
<title>Node3</title>
<polygon fill="#bfbfbf" stroke="#000000" points="89,-134.5 89,-164.5 229,-164.5 229,-134.5 89,-134.5"/>
<text text-anchor="start" x="97" y="-152.5" font-family="Helvetica,sans-Serif" font-size="10.00" fill="#000000">math/mathmore/inc/Math</text>
<text text-anchor="middle" x="159" y="-141.5" font-family="Helvetica,sans-Serif" font-size="10.00" fill="#000000">/GSLSimAnnealing.h</text>
</g>
<!-- Node4 -->
<g id="node2" class="node">
<title>Node4</title>
<g id="a_node2"><a xlink:href="GSLSimAnMinimizer_8h.html" target="_top" xlink:title="math/mathmore/inc/Math\l/GSLSimAnMinimizer.h">
<polygon fill="#ffffff" stroke="#000000" points="7,-67.5 7,-97.5 147,-97.5 147,-67.5 7,-67.5"/>
<text text-anchor="start" x="15" y="-85.5" font-family="Helvetica,sans-Serif" font-size="10.00" fill="#000000">math/mathmore/inc/Math</text>
<text text-anchor="middle" x="77" y="-74.5" font-family="Helvetica,sans-Serif" font-size="10.00" fill="#000000">/GSLSimAnMinimizer.h</text>
</a>
</g>
</g>
<!-- Node3&#45;&gt;Node4 -->
<g id="edge1" class="edge">
<title>Node3&#45;&gt;Node4</title>
<path fill="none" stroke="#191970" d="M132.4183,-127.7808C120.3722,-117.9383 106.4233,-106.541 95.5334,-97.6432"/>
<polygon fill="#191970" stroke="#191970" points="130.4346,-130.6797 140.3929,-134.2967 134.8637,-125.2591 130.4346,-130.6797"/>
</g>
<!-- Node6 -->
<g id="node4" class="node">
<title>Node6</title>
<g id="a_node4"><a xlink:href="GSLSimAnnealing_8cxx.html" target="_top" xlink:title="math/mathmore/src/GSLSim\lAnnealing.cxx">
<polygon fill="#ffffff" stroke="#000000" points="165,-67.5 165,-97.5 319,-97.5 319,-67.5 165,-67.5"/>
<text text-anchor="start" x="173" y="-85.5" font-family="Helvetica,sans-Serif" font-size="10.00" fill="#000000">math/mathmore/src/GSLSim</text>
<text text-anchor="middle" x="242" y="-74.5" font-family="Helvetica,sans-Serif" font-size="10.00" fill="#000000">Annealing.cxx</text>
</a>
</g>
</g>
<!-- Node3&#45;&gt;Node6 -->
<g id="edge3" class="edge">
<title>Node3&#45;&gt;Node6</title>
<path fill="none" stroke="#191970" d="M185.9058,-127.7808C198.0988,-117.9383 212.2179,-106.541 223.2405,-97.6432"/>
<polygon fill="#191970" stroke="#191970" points="183.4168,-125.292 177.834,-134.2967 187.8136,-130.7389 183.4168,-125.292"/>
</g>
<!-- Node5 -->
<g id="node3" class="node">
<title>Node5</title>
<g id="a_node3"><a xlink:href="GSLSimAnMinimizer_8cxx.html" target="_top" xlink:title="math/mathmore/src/GSLSim\lAnMinimizer.cxx">
<polygon fill="#ffffff" stroke="#000000" points="0,-.5 0,-30.5 154,-30.5 154,-.5 0,-.5"/>
<text text-anchor="start" x="8" y="-18.5" font-family="Helvetica,sans-Serif" font-size="10.00" fill="#000000">math/mathmore/src/GSLSim</text>
<text text-anchor="middle" x="77" y="-7.5" font-family="Helvetica,sans-Serif" font-size="10.00" fill="#000000">AnMinimizer.cxx</text>
</a>
</g>
</g>
<!-- Node4&#45;&gt;Node5 -->
<g id="edge2" class="edge">
<title>Node4&#45;&gt;Node5</title>
<path fill="none" stroke="#191970" d="M77,-57.0249C77,-48.128 77,-38.4287 77,-30.6432"/>
<polygon fill="#191970" stroke="#191970" points="73.5001,-57.2966 77,-67.2967 80.5001,-57.2967 73.5001,-57.2966"/>
</g>
</g>
</svg>
