<?xml version="1.0" encoding="UTF-8" standalone="no"?>
<!DOCTYPE svg PUBLIC "-//W3C//DTD SVG 1.1//EN"
 "http://www.w3.org/Graphics/SVG/1.1/DTD/svg11.dtd">
<!-- Generated by graphviz version 2.40.1 (0)
 -->
<!-- Title: math/minuit2/inc/Minuit2/HessianGradientCalculator.h Pages: 1 -->
<svg width="563pt" height="106pt"
 viewBox="0.00 0.00 562.50 106.00" xmlns="http://www.w3.org/2000/svg" xmlns:xlink="http://www.w3.org/1999/xlink">
<g id="graph0" class="graph" transform="scale(1 1) rotate(0) translate(4 102)">
<title>math/minuit2/inc/Minuit2/HessianGradientCalculator.h</title>
<polygon fill="#ffffff" stroke="transparent" points="-4,4 -4,-102 558.5,-102 558.5,4 -4,4"/>
<!-- Node22 -->
<g id="node1" class="node">
<title>Node22</title>
<polygon fill="#bfbfbf" stroke="#000000" points="165,-67.5 165,-97.5 323,-97.5 323,-67.5 165,-67.5"/>
<text text-anchor="start" x="173" y="-85.5" font-family="Helvetica,sans-Serif" font-size="10.00" fill="#000000">math/minuit2/inc/Minuit2</text>
<text text-anchor="middle" x="244" y="-74.5" font-family="Helvetica,sans-Serif" font-size="10.00" fill="#000000">/HessianGradientCalculator.h</text>
</g>
<!-- Node23 -->
<g id="node2" class="node">
<title>Node23</title>
<g id="a_node2"><a xlink:href="HessianGradientCalculator_8cxx.html" target="_top" xlink:title="math/minuit2/src/Hessian\lGradientCalculator.cxx">
<polygon fill="#ffffff" stroke="#000000" points="0,-.5 0,-30.5 142,-30.5 142,-.5 0,-.5"/>
<text text-anchor="start" x="8" y="-18.5" font-family="Helvetica,sans-Serif" font-size="10.00" fill="#000000">math/minuit2/src/Hessian</text>
<text text-anchor="middle" x="71" y="-7.5" font-family="Helvetica,sans-Serif" font-size="10.00" fill="#000000">GradientCalculator.cxx</text>
</a>
</g>
</g>
<!-- Node22&#45;&gt;Node23 -->
<g id="edge1" class="edge">
<title>Node22&#45;&gt;Node23</title>
<path fill="none" stroke="#191970" d="M195.5276,-63.7275C168.5113,-53.2645 135.3158,-40.4084 109.9939,-30.6017"/>
<polygon fill="#191970" stroke="#191970" points="194.5863,-67.1162 205.1754,-67.4639 197.1144,-60.5886 194.5863,-67.1162"/>
</g>
<!-- Node24 -->
<g id="node3" class="node">
<title>Node24</title>
<g id="a_node3"><a xlink:href="MnHesse_8cxx.html" target="_top" xlink:title="math/minuit2/src/MnHesse.cxx">
<polygon fill="#ffffff" stroke="#000000" points="160.5,-6 160.5,-25 327.5,-25 327.5,-6 160.5,-6"/>
<text text-anchor="middle" x="244" y="-13" font-family="Helvetica,sans-Serif" font-size="10.00" fill="#000000">math/minuit2/src/MnHesse.cxx</text>
</a>
</g>
</g>
<!-- Node22&#45;&gt;Node24 -->
<g id="edge2" class="edge">
<title>Node22&#45;&gt;Node24</title>
<path fill="none" stroke="#191970" d="M244,-57.1199C244,-45.9072 244,-33.4031 244,-25.055"/>
<polygon fill="#191970" stroke="#191970" points="240.5001,-57.2966 244,-67.2967 247.5001,-57.2967 240.5001,-57.2966"/>
</g>
<!-- Node25 -->
<g id="node4" class="node">
<title>Node25</title>
<g id="a_node4"><a xlink:href="MnSeedGenerator_8cxx.html" target="_top" xlink:title="math/minuit2/src/MnSeedGenerator.cxx">
<polygon fill="#ffffff" stroke="#000000" points="345.5,-6 345.5,-25 554.5,-25 554.5,-6 345.5,-6"/>
<text text-anchor="middle" x="450" y="-13" font-family="Helvetica,sans-Serif" font-size="10.00" fill="#000000">math/minuit2/src/MnSeedGenerator.cxx</text>
</a>
</g>
</g>
<!-- Node22&#45;&gt;Node25 -->
<g id="edge3" class="edge">
<title>Node22&#45;&gt;Node25</title>
<path fill="none" stroke="#191970" d="M299.885,-64.3238C338.9079,-51.6319 389.4314,-35.1995 420.7748,-25.0053"/>
<polygon fill="#191970" stroke="#191970" points="298.6575,-61.0425 290.2304,-67.4639 300.8226,-67.6993 298.6575,-61.0425"/>
</g>
</g>
</svg>
