<?xml version="1.0" encoding="UTF-8" standalone="no"?>
<!DOCTYPE svg PUBLIC "-//W3C//DTD SVG 1.1//EN"
 "http://www.w3.org/Graphics/SVG/1.1/DTD/svg11.dtd">
<!-- Generated by graphviz version 2.40.1 (0)
 -->
<!-- Title: roofit/histfactory/inc/RooStats/HistFactory/HistoToWorkspaceFactory.h Pages: 1 -->
<svg width="410pt" height="117pt"
 viewBox="0.00 0.00 409.50 117.00" xmlns="http://www.w3.org/2000/svg" xmlns:xlink="http://www.w3.org/1999/xlink">
<g id="graph0" class="graph" transform="scale(1 1) rotate(0) translate(4 113)">
<title>roofit/histfactory/inc/RooStats/HistFactory/HistoToWorkspaceFactory.h</title>
<polygon fill="#ffffff" stroke="transparent" points="-4,4 -4,-113 405.5,-113 405.5,4 -4,4"/>
<!-- Node147 -->
<g id="node1" class="node">
<title>Node147</title>
<polygon fill="#bfbfbf" stroke="#000000" points="119,-67.5 119,-108.5 271,-108.5 271,-67.5 119,-67.5"/>
<text text-anchor="start" x="127" y="-96.5" font-family="Helvetica,sans-Serif" font-size="10.00" fill="#000000">roofit/histfactory</text>
<text text-anchor="start" x="127" y="-85.5" font-family="Helvetica,sans-Serif" font-size="10.00" fill="#000000">/inc/RooStats/HistFactory</text>
<text text-anchor="middle" x="195" y="-74.5" font-family="Helvetica,sans-Serif" font-size="10.00" fill="#000000">/HistoToWorkspaceFactory.h</text>
</g>
<!-- Node148 -->
<g id="node2" class="node">
<title>Node148</title>
<g id="a_node2"><a xlink:href="HistoToWorkspaceFactory_8cxx.html" target="_top" xlink:title="roofit/histfactory\l/src/HistoToWorkspaceFactory.cxx">
<polygon fill="#ffffff" stroke="#000000" points="0,-.5 0,-30.5 180,-30.5 180,-.5 0,-.5"/>
<text text-anchor="start" x="8" y="-18.5" font-family="Helvetica,sans-Serif" font-size="10.00" fill="#000000">roofit/histfactory</text>
<text text-anchor="middle" x="90" y="-7.5" font-family="Helvetica,sans-Serif" font-size="10.00" fill="#000000">/src/HistoToWorkspaceFactory.cxx</text>
</a>
</g>
</g>
<!-- Node147&#45;&gt;Node148 -->
<g id="edge1" class="edge">
<title>Node147&#45;&gt;Node148</title>
<path fill="none" stroke="#191970" d="M156.5613,-61.459C141.5056,-51.0634 124.7843,-39.5177 111.8677,-30.5991"/>
<polygon fill="#191970" stroke="#191970" points="154.9744,-64.6165 165.1921,-67.4183 158.9518,-58.8562 154.9744,-64.6165"/>
</g>
<!-- Node149 -->
<g id="node3" class="node">
<title>Node149</title>
<g id="a_node3"><a xlink:href="MakeModelAndMeasurements_8cxx.html" target="_top" xlink:title="roofit/histfactory\l/src/MakeModelAndMeasurements.cxx">
<polygon fill="#ffffff" stroke="#000000" points="198.5,-.5 198.5,-30.5 401.5,-30.5 401.5,-.5 198.5,-.5"/>
<text text-anchor="start" x="206.5" y="-18.5" font-family="Helvetica,sans-Serif" font-size="10.00" fill="#000000">roofit/histfactory</text>
<text text-anchor="middle" x="300" y="-7.5" font-family="Helvetica,sans-Serif" font-size="10.00" fill="#000000">/src/MakeModelAndMeasurements.cxx</text>
</a>
</g>
</g>
<!-- Node147&#45;&gt;Node149 -->
<g id="edge2" class="edge">
<title>Node147&#45;&gt;Node149</title>
<path fill="none" stroke="#191970" d="M233.4387,-61.459C248.4944,-51.0634 265.2157,-39.5177 278.1323,-30.5991"/>
<polygon fill="#191970" stroke="#191970" points="231.0482,-58.8562 224.8079,-67.4183 235.0256,-64.6165 231.0482,-58.8562"/>
</g>
</g>
</svg>
