<?xml version="1.0" encoding="UTF-8" standalone="no"?>
<!DOCTYPE svg PUBLIC "-//W3C//DTD SVG 1.1//EN"
 "http://www.w3.org/Graphics/SVG/1.1/DTD/svg11.dtd">
<!-- Generated by graphviz version 2.40.1 (0)
 -->
<!-- Title: roofit/histfactory/inc/RooStats/HistFactory/HistFactoryException.h Pages: 1 -->
<svg width="152pt" height="106pt"
 viewBox="0.00 0.00 151.50 106.00" xmlns="http://www.w3.org/2000/svg" xmlns:xlink="http://www.w3.org/1999/xlink">
<g id="graph0" class="graph" transform="scale(1 1) rotate(0) translate(4 102)">
<title>roofit/histfactory/inc/RooStats/HistFactory/HistFactoryException.h</title>
<polygon fill="#ffffff" stroke="transparent" points="-4,4 -4,-102 147.5,-102 147.5,4 -4,4"/>
<!-- Node0 -->
<g id="node1" class="node">
<title>Node0</title>
<polygon fill="#bfbfbf" stroke="#000000" points="1.5,-56.5 1.5,-97.5 138.5,-97.5 138.5,-56.5 1.5,-56.5"/>
<text text-anchor="start" x="9.5" y="-85.5" font-family="Helvetica,sans-Serif" font-size="10.00" fill="#000000">roofit/histfactory</text>
<text text-anchor="start" x="9.5" y="-74.5" font-family="Helvetica,sans-Serif" font-size="10.00" fill="#000000">/inc/RooStats/HistFactory</text>
<text text-anchor="middle" x="70" y="-63.5" font-family="Helvetica,sans-Serif" font-size="10.00" fill="#000000">/HistFactoryException.h</text>
</g>
<!-- Node1 -->
<g id="node2" class="node">
<title>Node1</title>
<polygon fill="#ffffff" stroke="#bfbfbf" points="0,-.5 0,-19.5 60,-19.5 60,-.5 0,-.5"/>
<text text-anchor="middle" x="30" y="-7.5" font-family="Helvetica,sans-Serif" font-size="10.00" fill="#000000">iostream</text>
</g>
<!-- Node0&#45;&gt;Node1 -->
<g id="edge1" class="edge">
<title>Node0&#45;&gt;Node1</title>
<path fill="none" stroke="#191970" d="M57.563,-56.168C52.2976,-47.3484 46.2119,-37.155 41.1005,-28.5933"/>
<polygon fill="#191970" stroke="#191970" points="43.9704,-26.5725 35.8391,-19.7805 37.9601,-30.1609 43.9704,-26.5725"/>
</g>
<!-- Node2 -->
<g id="node3" class="node">
<title>Node2</title>
<polygon fill="#ffffff" stroke="#bfbfbf" points="78.5,-.5 78.5,-19.5 143.5,-19.5 143.5,-.5 78.5,-.5"/>
<text text-anchor="middle" x="111" y="-7.5" font-family="Helvetica,sans-Serif" font-size="10.00" fill="#000000">exception</text>
</g>
<!-- Node0&#45;&gt;Node2 -->
<g id="edge2" class="edge">
<title>Node0&#45;&gt;Node2</title>
<path fill="none" stroke="#191970" d="M82.7479,-56.168C88.203,-47.2536 94.517,-36.9356 99.7907,-28.3177"/>
<polygon fill="#191970" stroke="#191970" points="102.7806,-30.137 105.0149,-19.7805 96.8099,-26.4833 102.7806,-30.137"/>
</g>
</g>
</svg>
