<?xml version="1.0" encoding="UTF-8" standalone="no"?>
<!DOCTYPE svg PUBLIC "-//W3C//DTD SVG 1.1//EN"
 "http://www.w3.org/Graphics/SVG/1.1/DTD/svg11.dtd">
<!-- Generated by graphviz version 2.40.1 (0)
 -->
<!-- Title: Graphical Class Hierarchy Pages: 1 -->
<svg width="400pt" height="66pt"
 viewBox="0.00 0.00 400.00 66.00" xmlns="http://www.w3.org/2000/svg" xmlns:xlink="http://www.w3.org/1999/xlink">
<g id="graph0" class="graph" transform="scale(1 1) rotate(0) translate(4 62)">
<title>Graphical Class Hierarchy</title>
<polygon fill="#ffffff" stroke="transparent" points="-4,4 -4,-62 396,-62 396,4 -4,4"/>
<!-- Node0 -->
<g id="node1" class="node">
<title>Node0</title>
<g id="a_node1"><a xlink:href="classROOT_1_1Math_1_1GSLQuasiRandomEngine.html" target="_top" xlink:title="GSLQuasiRandomEngine Base class for all GSL quasi random engines, normally user instantiate the deriv...">
<polygon fill="#ffffff" stroke="#000000" points="0,-14 0,-44 167,-44 167,-14 0,-14"/>
<text text-anchor="start" x="8" y="-32" font-family="Helvetica,sans-Serif" font-size="10.00" fill="#000000">ROOT::Math::GSLQuasiRandom</text>
<text text-anchor="middle" x="83.5" y="-21" font-family="Helvetica,sans-Serif" font-size="10.00" fill="#000000">Engine</text>
</a>
</g>
</g>
<!-- Node1 -->
<g id="node2" class="node">
<title>Node1</title>
<g id="a_node2"><a xlink:href="classROOT_1_1Math_1_1GSLQRngNiederreiter2.html" target="_top" xlink:title="Niederreiter generator gsl_qrng_niederreiter_2 from here ">
<polygon fill="#ffffff" stroke="#000000" points="203,-38.5 203,-57.5 392,-57.5 392,-38.5 203,-38.5"/>
<text text-anchor="middle" x="297.5" y="-45.5" font-family="Helvetica,sans-Serif" font-size="10.00" fill="#000000">ROOT::Math::GSLQRngNiederreiter2</text>
</a>
</g>
</g>
<!-- Node0&#45;&gt;Node1 -->
<g id="edge1" class="edge">
<title>Node0&#45;&gt;Node1</title>
<path fill="none" stroke="#191970" d="M177.1284,-37.3128C185.6789,-38.072 194.3451,-38.8414 202.904,-39.6013"/>
<polygon fill="#191970" stroke="#191970" points="177.4278,-33.8257 167.1574,-36.4275 176.8087,-40.7983 177.4278,-33.8257"/>
</g>
<!-- Node2 -->
<g id="node3" class="node">
<title>Node2</title>
<g id="a_node3"><a xlink:href="classROOT_1_1Math_1_1GSLQRngSobol.html" target="_top" xlink:title="Sobol generator gsl_qrng_sobol from here ">
<polygon fill="#ffffff" stroke="#000000" points="221.5,-.5 221.5,-19.5 373.5,-19.5 373.5,-.5 221.5,-.5"/>
<text text-anchor="middle" x="297.5" y="-7.5" font-family="Helvetica,sans-Serif" font-size="10.00" fill="#000000">ROOT::Math::GSLQRngSobol</text>
</a>
</g>
</g>
<!-- Node0&#45;&gt;Node2 -->
<g id="edge2" class="edge">
<title>Node0&#45;&gt;Node2</title>
<path fill="none" stroke="#191970" d="M177.2623,-20.6753C191.9563,-19.3707 206.9886,-18.0361 221.2276,-16.7719"/>
<polygon fill="#191970" stroke="#191970" points="176.8087,-17.2017 167.1574,-21.5725 177.4278,-24.1743 176.8087,-17.2017"/>
</g>
</g>
</svg>
