<?xml version="1.0" encoding="UTF-8" standalone="no"?>
<!DOCTYPE svg PUBLIC "-//W3C//DTD SVG 1.1//EN"
 "http://www.w3.org/Graphics/SVG/1.1/DTD/svg11.dtd">
<!-- Generated by graphviz version 2.40.1 (0)
 -->
<!-- Title: Graphical Class Hierarchy Pages: 1 -->
<svg width="243pt" height="88pt"
 viewBox="0.00 0.00 243.00 88.00" xmlns="http://www.w3.org/2000/svg" xmlns:xlink="http://www.w3.org/1999/xlink">
<g id="graph0" class="graph" transform="scale(1 1) rotate(0) translate(4 84)">
<title>Graphical Class Hierarchy</title>
<polygon fill="#ffffff" stroke="transparent" points="-4,4 -4,-84 239,-84 239,4 -4,4"/>
<!-- Node178 -->
<g id="node1" class="node">
<title>Node178</title>
<polygon fill="#ffffff" stroke="#bfbfbf" points="0,-52 0,-71 48,-71 48,-52 0,-52"/>
<text text-anchor="middle" x="24" y="-59" font-family="Helvetica,sans-Serif" font-size="10.00" fill="#000000">Type_t</text>
</g>
<!-- Node0 -->
<g id="node2" class="node">
<title>Node0</title>
<g id="a_node2"><a xlink:href="classRgl_1_1Mc_1_1TMeshBuilder.html" target="_top" xlink:title="Rgl::Mc::TMeshBuilder\l\&lt; DataSource, ValueType \&gt;">
<polygon fill="#ffffff" stroke="#000000" points="84,-49.5 84,-79.5 235,-79.5 235,-49.5 84,-49.5"/>
<text text-anchor="start" x="92" y="-67.5" font-family="Helvetica,sans-Serif" font-size="10.00" fill="#000000">Rgl::Mc::TMeshBuilder</text>
<text text-anchor="middle" x="159.5" y="-56.5" font-family="Helvetica,sans-Serif" font-size="10.00" fill="#000000">&lt; DataSource, ValueType &gt;</text>
</a>
</g>
</g>
<!-- Node178&#45;&gt;Node0 -->
<g id="edge1" class="edge">
<title>Node178&#45;&gt;Node0</title>
<path fill="none" stroke="#191970" d="M58.3985,-62.2616C66.265,-62.4358 74.9308,-62.6276 83.7805,-62.8236"/>
<polygon fill="#191970" stroke="#191970" points="58.2997,-58.7586 48.2247,-62.0363 58.1447,-65.7569 58.2997,-58.7586"/>
</g>
<!-- Node177 -->
<g id="node3" class="node">
<title>Node177</title>
<g id="a_node3"><a xlink:href="classRgl_1_1Mc_1_1TMeshBuilder.html" target="_top" xlink:title="Rgl::Mc::TMeshBuilder\l\&lt; TKDEFGT, Float_t \&gt;">
<polygon fill="#ffffff" stroke="#000000" points="97.5,-.5 97.5,-30.5 221.5,-30.5 221.5,-.5 97.5,-.5"/>
<text text-anchor="start" x="105.5" y="-18.5" font-family="Helvetica,sans-Serif" font-size="10.00" fill="#000000">Rgl::Mc::TMeshBuilder</text>
<text text-anchor="middle" x="159.5" y="-7.5" font-family="Helvetica,sans-Serif" font-size="10.00" fill="#000000">&lt; TKDEFGT, Float_t &gt;</text>
</a>
</g>
</g>
<!-- Node178&#45;&gt;Node177 -->
<g id="edge2" class="edge">
<title>Node178&#45;&gt;Node177</title>
<path fill="none" stroke="#191970" d="M57.8488,-49.5406C66.3746,-46.5592 75.515,-43.3895 84,-40.5 93.5414,-37.2508 103.7805,-33.8218 113.5434,-30.5798"/>
<polygon fill="#191970" stroke="#191970" points="56.4763,-46.3129 48.1986,-52.9259 58.7935,-52.9183 56.4763,-46.3129"/>
</g>
<!-- Node175 -->
<g id="node4" class="node">
<title>Node175</title>
<polygon fill="#ffffff" stroke="#bfbfbf" points="0,-11 0,-30 48,-30 48,-11 0,-11"/>
<text text-anchor="middle" x="24" y="-18" font-family="Helvetica,sans-Serif" font-size="10.00" fill="#000000">Type_t</text>
</g>
<!-- Node175&#45;&gt;Node0 -->
<g id="edge3" class="edge">
<title>Node175&#45;&gt;Node0</title>
<path fill="none" stroke="#191970" d="M57.8561,-31.8772C66.3818,-34.7169 75.5202,-37.7391 84,-40.5 93.024,-43.4381 102.6683,-46.5359 111.943,-49.4939"/>
<polygon fill="#191970" stroke="#191970" points="58.7992,-28.5022 48.2055,-28.654 56.5817,-35.1417 58.7992,-28.5022"/>
</g>
<!-- Node175&#45;&gt;Node177 -->
<g id="edge4" class="edge">
<title>Node175&#45;&gt;Node177</title>
<path fill="none" stroke="#191970" d="M58.5387,-19.2255C70.386,-18.7883 84.0336,-18.2847 97.3871,-17.792"/>
<polygon fill="#191970" stroke="#191970" points="58.0888,-15.7396 48.2247,-19.6061 58.347,-22.7349 58.0888,-15.7396"/>
</g>
</g>
</svg>
