<?xml version="1.0" encoding="UTF-8" standalone="no"?>
<!DOCTYPE svg PUBLIC "-//W3C//DTD SVG 1.1//EN"
 "http://www.w3.org/Graphics/SVG/1.1/DTD/svg11.dtd">
<!-- Generated by graphviz version 2.40.1 (0)
 -->
<!-- Title: Graphical Class Hierarchy Pages: 1 -->
<svg width="404pt" height="142pt"
 viewBox="0.00 0.00 404.00 142.00" xmlns="http://www.w3.org/2000/svg" xmlns:xlink="http://www.w3.org/1999/xlink">
<g id="graph0" class="graph" transform="scale(1 1) rotate(0) translate(4 138)">
<title>Graphical Class Hierarchy</title>
<polygon fill="#ffffff" stroke="transparent" points="-4,4 -4,-138 400,-138 400,4 -4,4"/>
<!-- Node3302 -->
<g id="node1" class="node">
<title>Node3302</title>
<polygon fill="#ffffff" stroke="#bfbfbf" points="38,-114.5 38,-133.5 92,-133.5 92,-114.5 38,-114.5"/>
<text text-anchor="middle" x="65" y="-121.5" font-family="Helvetica,sans-Serif" font-size="10.00" fill="#000000">NSView</text>
</g>
<!-- Node0 -->
<g id="node2" class="node">
<title>Node0</title>
<g id="a_node2"><a xlink:href="interfaceQuartzView.html" target="_top" xlink:title="QuartzView">
<polygon fill="#ffffff" stroke="#000000" points="173.5,-95.5 173.5,-114.5 246.5,-114.5 246.5,-95.5 173.5,-95.5"/>
<text text-anchor="middle" x="210" y="-102.5" font-family="Helvetica,sans-Serif" font-size="10.00" fill="#000000">QuartzView</text>
</a>
</g>
</g>
<!-- Node3302&#45;&gt;Node0 -->
<g id="edge1" class="edge">
<title>Node3302&#45;&gt;Node0</title>
<path fill="none" stroke="#191970" d="M102.4742,-119.0896C124.263,-116.2345 151.6076,-112.6514 173.2684,-109.8131"/>
<polygon fill="#191970" stroke="#191970" points="101.7339,-115.6566 92.2734,-120.4262 102.6434,-122.5973 101.7339,-115.6566"/>
</g>
<!-- Node1 -->
<g id="node3" class="node">
<title>Node1</title>
<g id="a_node3"><a xlink:href="interfaceROOTOpenGLView.html" target="_top" xlink:title="ROOTOpenGLView">
<polygon fill="#ffffff" stroke="#000000" points="290,-95.5 290,-114.5 396,-114.5 396,-95.5 290,-95.5"/>
<text text-anchor="middle" x="343" y="-102.5" font-family="Helvetica,sans-Serif" font-size="10.00" fill="#000000">ROOTOpenGLView</text>
</a>
</g>
</g>
<!-- Node0&#45;&gt;Node1 -->
<g id="edge2" class="edge">
<title>Node0&#45;&gt;Node1</title>
<path fill="none" stroke="#191970" d="M256.7309,-105C267.4844,-105 278.9964,-105 289.9945,-105"/>
<polygon fill="#191970" stroke="#191970" points="256.6949,-101.5001 246.6949,-105 256.6949,-108.5001 256.6949,-101.5001"/>
</g>
<!-- Node3301 -->
<g id="node4" class="node">
<title>Node3301</title>
<polygon fill="#ffffff" stroke="#bfbfbf" points="30.5,-38.5 30.5,-57.5 99.5,-57.5 99.5,-38.5 30.5,-38.5"/>
<text text-anchor="middle" x="65" y="-45.5" font-family="Helvetica,sans-Serif" font-size="10.00" fill="#000000">NSWindow</text>
</g>
<!-- Node95 -->
<g id="node5" class="node">
<title>Node95</title>
<g id="a_node5"><a xlink:href="interfaceQuartzWindow.html" target="_top" xlink:title="QuartzWindow">
<polygon fill="#ffffff" stroke="#000000" points="166,-38.5 166,-57.5 254,-57.5 254,-38.5 166,-38.5"/>
<text text-anchor="middle" x="210" y="-45.5" font-family="Helvetica,sans-Serif" font-size="10.00" fill="#000000">QuartzWindow</text>
</a>
</g>
</g>
<!-- Node3301&#45;&gt;Node95 -->
<g id="edge3" class="edge">
<title>Node3301&#45;&gt;Node95</title>
<path fill="none" stroke="#191970" d="M109.8875,-48C127.7199,-48 148.1724,-48 165.9239,-48"/>
<polygon fill="#191970" stroke="#191970" points="109.7311,-44.5001 99.7311,-48 109.7311,-51.5001 109.7311,-44.5001"/>
</g>
<!-- Node3300 -->
<g id="node6" class="node">
<title>Node3300</title>
<polygon fill="#ffffff" stroke="#bfbfbf" points="0,-.5 0,-19.5 130,-19.5 130,-.5 0,-.5"/>
<text text-anchor="middle" x="65" y="-7.5" font-family="Helvetica,sans-Serif" font-size="10.00" fill="#000000">&lt;NSWindowDelegate&gt;</text>
</g>
<!-- Node3300&#45;&gt;Node95 -->
<g id="edge4" class="edge">
<title>Node3300&#45;&gt;Node95</title>
<path fill="none" stroke="#191970" d="M111.4928,-22.1843C131.6237,-27.46 154.8383,-33.5438 173.6735,-38.4799"/>
<polygon fill="#191970" stroke="#191970" points="112.1503,-18.7385 101.5896,-19.589 110.3757,-25.5098 112.1503,-18.7385"/>
</g>
<!-- Node92 -->
<g id="node7" class="node">
<title>Node92</title>
<polygon fill="#ffffff" stroke="#bfbfbf" points="19.5,-76.5 19.5,-95.5 110.5,-95.5 110.5,-76.5 19.5,-76.5"/>
<text text-anchor="middle" x="65" y="-83.5" font-family="Helvetica,sans-Serif" font-size="10.00" fill="#000000">&lt;X11Window&gt;</text>
</g>
<!-- Node92&#45;&gt;Node0 -->
<g id="edge5" class="edge">
<title>Node92&#45;&gt;Node0</title>
<path fill="none" stroke="#191970" d="M120.9838,-93.3358C138.4678,-95.6268 157.3053,-98.0952 173.1291,-100.1686"/>
<polygon fill="#191970" stroke="#191970" points="121.2489,-89.8407 110.8789,-92.0117 120.3394,-96.7814 121.2489,-89.8407"/>
</g>
<!-- Node92&#45;&gt;Node95 -->
<g id="edge6" class="edge">
<title>Node92&#45;&gt;Node95</title>
<path fill="none" stroke="#191970" d="M111.4928,-73.8157C131.6237,-68.54 154.8383,-62.4562 173.6735,-57.5201"/>
<polygon fill="#191970" stroke="#191970" points="110.3757,-70.4902 101.5896,-76.411 112.1503,-77.2615 110.3757,-70.4902"/>
</g>
</g>
</svg>
