<?xml version="1.0" encoding="UTF-8" standalone="no"?>
<!DOCTYPE svg PUBLIC "-//W3C//DTD SVG 1.1//EN"
 "http://www.w3.org/Graphics/SVG/1.1/DTD/svg11.dtd">
<!-- Generated by graphviz version 2.40.1 (0)
 -->
<!-- Title: Graphical Class Hierarchy Pages: 1 -->
<svg width="303pt" height="329pt"
 viewBox="0.00 0.00 303.00 328.50" xmlns="http://www.w3.org/2000/svg" xmlns:xlink="http://www.w3.org/1999/xlink">
<g id="graph0" class="graph" transform="scale(1 1) rotate(0) translate(4 324.5)">
<title>Graphical Class Hierarchy</title>
<polygon fill="#ffffff" stroke="transparent" points="-4,4 -4,-324.5 299,-324.5 299,4 -4,4"/>
<!-- Node3627 -->
<g id="node1" class="node">
<title>Node3627</title>
<polygon fill="#ffffff" stroke="#bfbfbf" points="0,-161.5 0,-180.5 38,-180.5 38,-161.5 0,-161.5"/>
<text text-anchor="middle" x="19" y="-168.5" font-family="Helvetica,sans-Serif" font-size="10.00" fill="#000000">Impl</text>
</g>
<!-- Node0 -->
<g id="node2" class="node">
<title>Node0</title>
<g id="a_node2"><a xlink:href="classROOT_1_1Math_1_1FunctorGradHandler.html" target="_top" xlink:title="Functor Handler class for gradient functions where both callable objects are provided for the functio...">
<polygon fill="#ffffff" stroke="#000000" points="92.5,-290 92.5,-320 276.5,-320 276.5,-290 92.5,-290"/>
<text text-anchor="start" x="100.5" y="-308" font-family="Helvetica,sans-Serif" font-size="10.00" fill="#000000">ROOT::Math::FunctorGradHandler</text>
<text text-anchor="middle" x="184.5" y="-297" font-family="Helvetica,sans-Serif" font-size="10.00" fill="#000000">&lt; ParentFunctor, Func, GradFunc &gt;</text>
</a>
</g>
</g>
<!-- Node3627&#45;&gt;Node0 -->
<g id="edge1" class="edge">
<title>Node3627&#45;&gt;Node0</title>
<path fill="none" stroke="#191970" d="M23.2593,-190.5181C29.7596,-215.4737 44.6255,-258.1782 74,-281 79.5809,-285.3359 85.7773,-288.927 92.3058,-291.8969"/>
<polygon fill="#191970" stroke="#191970" points="26.6458,-189.6307 20.9032,-180.7272 19.84,-191.2685 26.6458,-189.6307"/>
</g>
<!-- Node3629 -->
<g id="node3" class="node">
<title>Node3629</title>
<g id="a_node3"><a xlink:href="classROOT_1_1Math_1_1FunctorHandler.html" target="_top" xlink:title="Functor Handler class is responsible for wrapping any other functor and pointer to free C functions...">
<polygon fill="#ffffff" stroke="#000000" points="108,-241 108,-271 261,-271 261,-241 108,-241"/>
<text text-anchor="start" x="116" y="-259" font-family="Helvetica,sans-Serif" font-size="10.00" fill="#000000">ROOT::Math::FunctorHandler</text>
<text text-anchor="middle" x="184.5" y="-248" font-family="Helvetica,sans-Serif" font-size="10.00" fill="#000000">&lt; ParentFunctor, Func &gt;</text>
</a>
</g>
</g>
<!-- Node3627&#45;&gt;Node3629 -->
<g id="edge2" class="edge">
<title>Node3627&#45;&gt;Node3629</title>
<path fill="none" stroke="#191970" d="M31.1346,-189.365C41.0647,-202.9273 56.3224,-220.7449 74,-231 84.3781,-237.0206 96.0844,-241.5914 107.8966,-245.0616"/>
<polygon fill="#191970" stroke="#191970" points="33.7454,-186.9908 25.1469,-180.8008 28.0085,-191.0018 33.7454,-186.9908"/>
</g>
<!-- Node3630 -->
<g id="node4" class="node">
<title>Node3630</title>
<g id="a_node4"><a xlink:href="classROOT_1_1Math_1_1MemFunHandler.html" target="_top" xlink:title="Functor Handler to Wrap pointers to member functions The member function type must be (XXX means any ...">
<polygon fill="#ffffff" stroke="#000000" points="102.5,-180.5 102.5,-221.5 266.5,-221.5 266.5,-180.5 102.5,-180.5"/>
<text text-anchor="start" x="110.5" y="-209.5" font-family="Helvetica,sans-Serif" font-size="10.00" fill="#000000">ROOT::Math::MemFunHandler</text>
<text text-anchor="start" x="110.5" y="-198.5" font-family="Helvetica,sans-Serif" font-size="10.00" fill="#000000">&lt; ParentFunctor, PointerToObj,</text>
<text text-anchor="middle" x="184.5" y="-187.5" font-family="Helvetica,sans-Serif" font-size="10.00" fill="#000000"> PointerToMemFn &gt;</text>
</a>
</g>
</g>
<!-- Node3627&#45;&gt;Node3630 -->
<g id="edge3" class="edge">
<title>Node3627&#45;&gt;Node3630</title>
<path fill="none" stroke="#191970" d="M48.5505,-176.3566C63.6999,-179.1027 82.9788,-182.5974 102.2235,-186.0858"/>
<polygon fill="#191970" stroke="#191970" points="48.7728,-172.8399 38.3089,-174.5001 47.5242,-179.7277 48.7728,-172.8399"/>
</g>
<!-- Node3631 -->
<g id="node5" class="node">
<title>Node3631</title>
<g id="a_node5"><a xlink:href="classROOT_1_1Math_1_1MemGradFunHandler.html" target="_top" xlink:title="Functor Handler to Wrap pointers to member functions for the evaluation of the function and the gradi...">
<polygon fill="#ffffff" stroke="#000000" points="74,-120.5 74,-161.5 295,-161.5 295,-120.5 74,-120.5"/>
<text text-anchor="start" x="82" y="-149.5" font-family="Helvetica,sans-Serif" font-size="10.00" fill="#000000">ROOT::Math::MemGradFunHandler</text>
<text text-anchor="start" x="82" y="-138.5" font-family="Helvetica,sans-Serif" font-size="10.00" fill="#000000">&lt; ParentFunctor, PointerToObj,</text>
<text text-anchor="middle" x="184.5" y="-127.5" font-family="Helvetica,sans-Serif" font-size="10.00" fill="#000000"> PointerToMemFn, PointerToGradMemFn &gt;</text>
</a>
</g>
</g>
<!-- Node3627&#45;&gt;Node3631 -->
<g id="edge4" class="edge">
<title>Node3627&#45;&gt;Node3631</title>
<path fill="none" stroke="#191970" d="M48.2975,-165.6893C55.8974,-164.3117 64.5488,-162.7434 73.7213,-161.0807"/>
<polygon fill="#191970" stroke="#191970" points="47.5242,-162.2723 38.3089,-167.4999 48.7728,-169.1601 47.5242,-162.2723"/>
</g>
<!-- Node3632 -->
<g id="node6" class="node">
<title>Node3632</title>
<g id="a_node6"><a xlink:href="classROOT_1_1Math_1_1ParamFunctorHandler.html" target="_top" xlink:title="ParamFunctor Handler class is responsible for wrapping any other functor and pointer to free C functi...">
<polygon fill="#ffffff" stroke="#000000" points="111.5,-60.5 111.5,-101.5 257.5,-101.5 257.5,-60.5 111.5,-60.5"/>
<text text-anchor="start" x="119.5" y="-89.5" font-family="Helvetica,sans-Serif" font-size="10.00" fill="#000000">ROOT::Math::ParamFunctor</text>
<text text-anchor="start" x="119.5" y="-78.5" font-family="Helvetica,sans-Serif" font-size="10.00" fill="#000000">Handler&lt; ParentFunctor,</text>
<text text-anchor="middle" x="184.5" y="-67.5" font-family="Helvetica,sans-Serif" font-size="10.00" fill="#000000"> Func &gt;</text>
</a>
</g>
</g>
<!-- Node3627&#45;&gt;Node3632 -->
<g id="edge5" class="edge">
<title>Node3627&#45;&gt;Node3632</title>
<path fill="none" stroke="#191970" d="M31.2609,-152.8475C41.2583,-139.3983 56.5449,-121.6293 74,-111 85.3754,-104.0729 98.3654,-98.7168 111.3456,-94.5839"/>
<polygon fill="#191970" stroke="#191970" points="28.1721,-151.1513 25.2231,-161.3275 33.8744,-155.2114 28.1721,-151.1513"/>
</g>
<!-- Node3633 -->
<g id="node7" class="node">
<title>Node3633</title>
<g id="a_node7"><a xlink:href="classROOT_1_1Math_1_1ParamMemFunHandler.html" target="_top" xlink:title="ParamFunctor Handler to Wrap pointers to member functions. ">
<polygon fill="#ffffff" stroke="#000000" points="90,-.5 90,-41.5 279,-41.5 279,-.5 90,-.5"/>
<text text-anchor="start" x="98" y="-29.5" font-family="Helvetica,sans-Serif" font-size="10.00" fill="#000000">ROOT::Math::ParamMemFunHandler</text>
<text text-anchor="start" x="98" y="-18.5" font-family="Helvetica,sans-Serif" font-size="10.00" fill="#000000">&lt; ParentFunctor, PointerToObj,</text>
<text text-anchor="middle" x="184.5" y="-7.5" font-family="Helvetica,sans-Serif" font-size="10.00" fill="#000000"> PointerToMemFn &gt;</text>
</a>
</g>
</g>
<!-- Node3627&#45;&gt;Node3633 -->
<g id="edge6" class="edge">
<title>Node3627&#45;&gt;Node3633</title>
<path fill="none" stroke="#191970" d="M22.6652,-151.1496C28.65,-124.4184 43.0992,-77.1899 74,-51 78.8526,-46.8871 84.2187,-43.3338 89.894,-40.2642"/>
<polygon fill="#191970" stroke="#191970" points="19.1783,-150.7302 20.5952,-161.2298 26.0353,-152.1383 19.1783,-150.7302"/>
</g>
</g>
</svg>
