<?xml version="1.0" encoding="UTF-8" standalone="no"?>
<!DOCTYPE svg PUBLIC "-//W3C//DTD SVG 1.1//EN"
 "http://www.w3.org/Graphics/SVG/1.1/DTD/svg11.dtd">
<!-- Generated by graphviz version 2.40.1 (0)
 -->
<!-- Title: QuartzWindow Pages: 1 -->
<svg width="335pt" height="84pt"
 viewBox="0.00 0.00 334.50 84.00" xmlns="http://www.w3.org/2000/svg" xmlns:xlink="http://www.w3.org/1999/xlink">
<g id="graph0" class="graph" transform="scale(1 1) rotate(0) translate(4 80)">
<title>QuartzWindow</title>
<polygon fill="#ffffff" stroke="transparent" points="-4,4 -4,-80 330.5,-80 330.5,4 -4,4"/>
<!-- Node0 -->
<g id="node1" class="node">
<title>Node0</title>
<polygon fill="#bfbfbf" stroke="#000000" points="88.5,-.5 88.5,-19.5 176.5,-19.5 176.5,-.5 88.5,-.5"/>
<text text-anchor="middle" x="132.5" y="-7.5" font-family="Helvetica,sans-Serif" font-size="10.00" fill="#000000">QuartzWindow</text>
</g>
<!-- Node1 -->
<g id="node2" class="node">
<title>Node1</title>
<polygon fill="#ffffff" stroke="#bfbfbf" points="0,-56.5 0,-75.5 69,-75.5 69,-56.5 0,-56.5"/>
<text text-anchor="middle" x="34.5" y="-63.5" font-family="Helvetica,sans-Serif" font-size="10.00" fill="#000000">NSWindow</text>
</g>
<!-- Node1&#45;&gt;Node0 -->
<g id="edge1" class="edge">
<title>Node1&#45;&gt;Node0</title>
<path fill="none" stroke="#191970" d="M60.6686,-51.0465C78.1058,-41.0824 100.5111,-28.2794 115.6253,-19.6427"/>
<polygon fill="#191970" stroke="#191970" points="58.5162,-48.2453 51.5703,-56.2455 61.9892,-54.323 58.5162,-48.2453"/>
</g>
<!-- Node2 -->
<g id="node3" class="node">
<title>Node2</title>
<polygon fill="#ffffff" stroke="#bfbfbf" points="87,-56.5 87,-75.5 178,-75.5 178,-56.5 87,-56.5"/>
<text text-anchor="middle" x="132.5" y="-63.5" font-family="Helvetica,sans-Serif" font-size="10.00" fill="#000000">&lt;X11Window&gt;</text>
</g>
<!-- Node2&#45;&gt;Node0 -->
<g id="edge2" class="edge">
<title>Node2&#45;&gt;Node0</title>
<path fill="none" stroke="#191970" d="M132.5,-46.1575C132.5,-37.155 132.5,-26.9199 132.5,-19.6427"/>
<polygon fill="#191970" stroke="#191970" points="129.0001,-46.2455 132.5,-56.2455 136.0001,-46.2456 129.0001,-46.2455"/>
</g>
<!-- Node3 -->
<g id="node4" class="node">
<title>Node3</title>
<polygon fill="#ffffff" stroke="#bfbfbf" points="196.5,-56.5 196.5,-75.5 326.5,-75.5 326.5,-56.5 196.5,-56.5"/>
<text text-anchor="middle" x="261.5" y="-63.5" font-family="Helvetica,sans-Serif" font-size="10.00" fill="#000000">&lt;NSWindowDelegate&gt;</text>
</g>
<!-- Node3&#45;&gt;Node0 -->
<g id="edge3" class="edge">
<title>Node3&#45;&gt;Node0</title>
<path fill="none" stroke="#191970" d="M230.1329,-52.3833C206.6716,-42.1985 175.1815,-28.5284 154.3865,-19.5011"/>
<polygon fill="#191970" stroke="#191970" points="228.7574,-55.6017 239.3241,-56.3733 231.5449,-49.1806 228.7574,-55.6017"/>
</g>
</g>
</svg>
