<?xml version="1.0" encoding="UTF-8" standalone="no"?>
<!DOCTYPE svg PUBLIC "-//W3C//DTD SVG 1.1//EN"
 "http://www.w3.org/Graphics/SVG/1.1/DTD/svg11.dtd">
<!-- Generated by graphviz version 2.40.1 (0)
 -->
<!-- Title: ROOTOpenGLView Pages: 1 -->
<svg width="172pt" height="140pt"
 viewBox="0.00 0.00 171.50 140.00" xmlns="http://www.w3.org/2000/svg" xmlns:xlink="http://www.w3.org/1999/xlink">
<g id="graph0" class="graph" transform="scale(1 1) rotate(0) translate(4 136)">
<title>ROOTOpenGLView</title>
<polygon fill="#ffffff" stroke="transparent" points="-4,4 -4,-136 167.5,-136 167.5,4 -4,4"/>
<!-- Node0 -->
<g id="node1" class="node">
<title>Node0</title>
<polygon fill="#bfbfbf" stroke="#000000" points="19,-.5 19,-19.5 125,-19.5 125,-.5 19,-.5"/>
<text text-anchor="middle" x="72" y="-7.5" font-family="Helvetica,sans-Serif" font-size="10.00" fill="#000000">ROOTOpenGLView</text>
</g>
<!-- Node1 -->
<g id="node2" class="node">
<title>Node1</title>
<g id="a_node2"><a xlink:href="interfaceQuartzView.html" target="_top" xlink:title="QuartzView">
<polygon fill="#ffffff" stroke="#000000" points="35.5,-56.5 35.5,-75.5 108.5,-75.5 108.5,-56.5 35.5,-56.5"/>
<text text-anchor="middle" x="72" y="-63.5" font-family="Helvetica,sans-Serif" font-size="10.00" fill="#000000">QuartzView</text>
</a>
</g>
</g>
<!-- Node1&#45;&gt;Node0 -->
<g id="edge1" class="edge">
<title>Node1&#45;&gt;Node0</title>
<path fill="none" stroke="#191970" d="M72,-46.1575C72,-37.155 72,-26.9199 72,-19.6427"/>
<polygon fill="#191970" stroke="#191970" points="68.5001,-46.2455 72,-56.2455 75.5001,-46.2456 68.5001,-46.2455"/>
</g>
<!-- Node2 -->
<g id="node3" class="node">
<title>Node2</title>
<polygon fill="#ffffff" stroke="#bfbfbf" points="0,-112.5 0,-131.5 54,-131.5 54,-112.5 0,-112.5"/>
<text text-anchor="middle" x="27" y="-119.5" font-family="Helvetica,sans-Serif" font-size="10.00" fill="#000000">NSView</text>
</g>
<!-- Node2&#45;&gt;Node1 -->
<g id="edge2" class="edge">
<title>Node2&#45;&gt;Node1</title>
<path fill="none" stroke="#191970" d="M41.2946,-104.2112C48.8996,-94.7472 57.9538,-83.4797 64.2514,-75.6427"/>
<polygon fill="#191970" stroke="#191970" points="38.3741,-102.2581 34.8384,-112.2455 43.8306,-106.6428 38.3741,-102.2581"/>
</g>
<!-- Node3 -->
<g id="node4" class="node">
<title>Node3</title>
<polygon fill="#ffffff" stroke="#bfbfbf" points="72.5,-112.5 72.5,-131.5 163.5,-131.5 163.5,-112.5 72.5,-112.5"/>
<text text-anchor="middle" x="118" y="-119.5" font-family="Helvetica,sans-Serif" font-size="10.00" fill="#000000">&lt;X11Window&gt;</text>
</g>
<!-- Node3&#45;&gt;Node1 -->
<g id="edge3" class="edge">
<title>Node3&#45;&gt;Node1</title>
<path fill="none" stroke="#191970" d="M103.6253,-104.5004C95.8029,-94.9775 86.424,-83.5596 79.9208,-75.6427"/>
<polygon fill="#191970" stroke="#191970" points="100.9354,-106.7399 109.9874,-112.2455 106.3445,-102.2967 100.9354,-106.7399"/>
</g>
</g>
</svg>
