<?xml version="1.0" encoding="UTF-8" standalone="no"?>
<!DOCTYPE svg PUBLIC "-//W3C//DTD SVG 1.1//EN"
 "http://www.w3.org/Graphics/SVG/1.1/DTD/svg11.dtd">
<!-- Generated by graphviz version 2.40.1 (0)
 -->
<!-- Title: math/minuit2/inc/Minuit2/LaProd.h Pages: 1 -->
<!--zoomable 319 -->
<svg id="main" version="1.1" xmlns="http://www.w3.org/2000/svg" xmlns:xlink="http://www.w3.org/1999/xlink" xml:space="preserve" onload="init(evt)">
<style type="text/css"><![CDATA[
.edge:hover path { stroke: red; }
.edge:hover polygon { stroke: red; fill: red; }
]]></style>
<script type="text/javascript"><![CDATA[
var edges = document.getElementsByTagName('g');
if (edges && edges.length) {
  for (var i=0;i<edges.length;i++) {
    if (edges[i].id.substr(0,4)=='edge') {
      edges[i].setAttribute('class','edge');
    }
  }
}
]]></script>
        <defs>
                <circle id="rim" cx="0" cy="0" r="7"/>
                <circle id="rim2" cx="0" cy="0" r="3.5"/>
                <g id="zoomPlus">
                        <use xlink:href="#rim" fill="#404040">
                                <set attributeName="fill" to="#808080" begin="zoomplus.mouseover" end="zoomplus.mouseout"/>
                        </use>
                        <path d="M-4,0h8M0,-4v8" fill="none" stroke="white" stroke-width="1.5" pointer-events="none"/>
                </g>
                <g id="zoomMin">
                        <use xlink:href="#rim" fill="#404040">
                                <set attributeName="fill" to="#808080" begin="zoomminus.mouseover" end="zoomminus.mouseout"/>
                        </use>
                        <path d="M-4,0h8" fill="none" stroke="white" stroke-width="1.5" pointer-events="none"/>
                </g>
                <g id="dirArrow">
                        <path fill="none" stroke="white" stroke-width="1.5" d="M0,-3.0v7 M-2.5,-0.5L0,-3.0L2.5,-0.5"/>
                </g>
               <g id="resetDef">
                       <use xlink:href="#rim2" fill="#404040">
                               <set attributeName="fill" to="#808080" begin="reset.mouseover" end="reset.mouseout"/>
                       </use>
               </g>
        </defs>

<script type="text/javascript">
var viewWidth = 860;
var viewHeight = 319;
var sectionId = 'dynsection-0';
</script>
<script xlink:href="svgpan.js"/>
<svg id="graph" class="graph">
<g id="viewport">
<title>math/minuit2/inc/Minuit2/LaProd.h</title>
<polygon fill="#ffffff" stroke="transparent" points="-4,4 -4,-315 855.6649,-315 855.6649,4 -4,4"/>
<!-- Node0 -->
<g id="node1" class="node">
<title>Node0</title>
<polygon fill="#bfbfbf" stroke="#000000" points="397.1649,-280.5 397.1649,-310.5 536.1649,-310.5 536.1649,-280.5 397.1649,-280.5"/>
<text text-anchor="start" x="405.1649" y="-298.5" font-family="Helvetica,sans-Serif" font-size="10.00" fill="#000000">math/minuit2/inc/Minuit2</text>
<text text-anchor="middle" x="466.6649" y="-287.5" font-family="Helvetica,sans-Serif" font-size="10.00" fill="#000000">/LaProd.h</text>
</g>
<!-- Node1 -->
<g id="node2" class="node">
<title>Node1</title>
<g id="a_node2"><a xlink:href="ABProd_8h.html" target="_top" xlink:title="Minuit2/ABProd.h">
<polygon fill="#ffffff" stroke="#000000" points="286.6649,-168.5 286.6649,-187.5 386.6649,-187.5 386.6649,-168.5 286.6649,-168.5"/>
<text text-anchor="middle" x="336.6649" y="-175.5" font-family="Helvetica,sans-Serif" font-size="10.00" fill="#000000">Minuit2/ABProd.h</text>
</a>
</g>
</g>
<!-- Node0&#45;&gt;Node1 -->
<g id="edge1" class="edge">
<title>Node0&#45;&gt;Node1</title>
<path fill="none" stroke="#191970" d="M449.9358,-280.3795C425.4317,-258.2315 379.9595,-217.1316 354.7221,-194.3209"/>
<polygon fill="#191970" stroke="#191970" points="357.057,-191.7135 347.2913,-187.6046 352.3632,-196.9066 357.057,-191.7135"/>
</g>
<!-- Node4 -->
<g id="node5" class="node">
<title>Node4</title>
<g id="a_node5"><a xlink:href="LAVector_8h.html" target="_top" xlink:title="Minuit2/LAVector.h">
<polygon fill="#ffffff" stroke="#000000" points="494.6649,-224.5 494.6649,-243.5 600.6649,-243.5 600.6649,-224.5 494.6649,-224.5"/>
<text text-anchor="middle" x="547.6649" y="-231.5" font-family="Helvetica,sans-Serif" font-size="10.00" fill="#000000">Minuit2/LAVector.h</text>
</a>
</g>
</g>
<!-- Node0&#45;&gt;Node4 -->
<g id="edge4" class="edge">
<title>Node0&#45;&gt;Node4</title>
<path fill="none" stroke="#191970" d="M486.6874,-280.2977C498.7509,-271.1384 514.1038,-259.4816 526.386,-250.1562"/>
<polygon fill="#191970" stroke="#191970" points="528.8478,-252.6816 534.6958,-243.8469 524.6148,-247.1065 528.8478,-252.6816"/>
</g>
<!-- Node6 -->
<g id="node7" class="node">
<title>Node6</title>
<g id="a_node7"><a xlink:href="LASymMatrix_8h.html" target="_top" xlink:title="Minuit2/LASymMatrix.h">
<polygon fill="#ffffff" stroke="#000000" points="443.1649,-168.5 443.1649,-187.5 572.1649,-187.5 572.1649,-168.5 443.1649,-168.5"/>
<text text-anchor="middle" x="507.6649" y="-175.5" font-family="Helvetica,sans-Serif" font-size="10.00" fill="#000000">Minuit2/LASymMatrix.h</text>
</a>
</g>
</g>
<!-- Node0&#45;&gt;Node6 -->
<g id="edge27" class="edge">
<title>Node0&#45;&gt;Node6</title>
<path fill="none" stroke="#191970" d="M469.8025,-280.4601C473.0572,-265.8154 478.6507,-243.0428 485.6649,-224 489.0584,-214.7872 493.6407,-204.9233 497.7448,-196.7016"/>
<polygon fill="#191970" stroke="#191970" points="500.943,-198.1354 502.4017,-187.6415 494.7173,-194.9353 500.943,-198.1354"/>
</g>
<!-- Node2 -->
<g id="node3" class="node">
<title>Node2</title>
<g id="a_node3"><a xlink:href="ABObj_8h.html" target="_top" xlink:title="Minuit2/ABObj.h">
<polygon fill="#ffffff" stroke="#000000" points="130.1649,-56.5 130.1649,-75.5 225.1649,-75.5 225.1649,-56.5 130.1649,-56.5"/>
<text text-anchor="middle" x="177.6649" y="-63.5" font-family="Helvetica,sans-Serif" font-size="10.00" fill="#000000">Minuit2/ABObj.h</text>
</a>
</g>
</g>
<!-- Node1&#45;&gt;Node2 -->
<g id="edge2" class="edge">
<title>Node1&#45;&gt;Node2</title>
<path fill="none" stroke="#191970" d="M286.4211,-174.5397C199.0352,-168.0067 26.6107,-152.6381 8.6649,-132 -26.1844,-91.9222 58.1875,-76.0068 119.8498,-69.8112"/>
<polygon fill="#191970" stroke="#191970" points="120.2843,-73.2859 129.9124,-68.8643 119.6284,-66.3166 120.2843,-73.2859"/>
</g>
<!-- Node3 -->
<g id="node4" class="node">
<title>Node3</title>
<g id="a_node4"><a xlink:href="ABTypes_8h.html" target="_top" xlink:title="Minuit2/ABTypes.h">
<polygon fill="#ffffff" stroke="#000000" points="200.6649,-.5 200.6649,-19.5 306.6649,-19.5 306.6649,-.5 200.6649,-.5"/>
<text text-anchor="middle" x="253.6649" y="-7.5" font-family="Helvetica,sans-Serif" font-size="10.00" fill="#000000">Minuit2/ABTypes.h</text>
</a>
</g>
</g>
<!-- Node2&#45;&gt;Node3 -->
<g id="edge3" class="edge">
<title>Node2&#45;&gt;Node3</title>
<path fill="none" stroke="#191970" d="M190.9031,-56.2455C202.3459,-47.814 219.0946,-35.4729 232.4124,-25.6598"/>
<polygon fill="#191970" stroke="#191970" points="234.6041,-28.3924 240.5785,-19.6427 230.4517,-22.757 234.6041,-28.3924"/>
</g>
<!-- Node4&#45;&gt;Node1 -->
<g id="edge7" class="edge">
<title>Node4&#45;&gt;Node1</title>
<path fill="none" stroke="#191970" d="M511.3927,-224.3733C475.6991,-214.9001 421.077,-200.4032 382.4199,-190.1435"/>
<polygon fill="#191970" stroke="#191970" points="383.0271,-186.6835 372.4638,-187.5011 381.2313,-193.4493 383.0271,-186.6835"/>
</g>
<!-- Node5 -->
<g id="node6" class="node">
<title>Node5</title>
<g id="a_node6"><a xlink:href="ABSum_8h.html" target="_top" xlink:title="Minuit2/ABSum.h">
<polygon fill="#ffffff" stroke="#000000" points="17.6649,-112.5 17.6649,-131.5 117.6649,-131.5 117.6649,-112.5 17.6649,-112.5"/>
<text text-anchor="middle" x="67.6649" y="-119.5" font-family="Helvetica,sans-Serif" font-size="10.00" fill="#000000">Minuit2/ABSum.h</text>
</a>
</g>
</g>
<!-- Node4&#45;&gt;Node5 -->
<g id="edge5" class="edge">
<title>Node4&#45;&gt;Node5</title>
<path fill="none" stroke="#191970" d="M522.2625,-224.3907C499.1818,-215.4875 464.3116,-201.6046 434.6649,-188 416.9604,-179.8756 414.2546,-173.8207 395.6649,-168 283.5895,-132.9075 247.8057,-149.1631 127.7964,-132.0916"/>
<polygon fill="#191970" stroke="#191970" points="128.2608,-128.6223 117.8578,-130.6296 127.242,-135.5478 128.2608,-128.6223"/>
</g>
<!-- Node4&#45;&gt;Node6 -->
<g id="edge8" class="edge">
<title>Node4&#45;&gt;Node6</title>
<path fill="none" stroke="#191970" d="M540.6975,-224.2455C535.1338,-216.4564 527.1869,-205.3308 520.482,-195.9439"/>
<polygon fill="#191970" stroke="#191970" points="523.2131,-193.7457 514.5526,-187.6427 517.5169,-197.8144 523.2131,-193.7457"/>
</g>
<!-- Node10 -->
<g id="node11" class="node">
<title>Node10</title>
<polygon fill="#ffffff" stroke="#bfbfbf" points="799.6649,-112.5 799.6649,-131.5 851.6649,-131.5 851.6649,-112.5 799.6649,-112.5"/>
<text text-anchor="middle" x="825.6649" y="-119.5" font-family="Helvetica,sans-Serif" font-size="10.00" fill="#000000">cassert</text>
</g>
<!-- Node4&#45;&gt;Node10 -->
<g id="edge24" class="edge">
<title>Node4&#45;&gt;Node10</title>
<path fill="none" stroke="#191970" d="M571.3671,-224.4509C620.9142,-204.4895 735.5554,-158.3031 792.4297,-135.3897"/>
<polygon fill="#191970" stroke="#191970" points="794.0552,-138.5083 802.0228,-131.5249 791.4393,-132.0154 794.0552,-138.5083"/>
</g>
<!-- Node11 -->
<g id="node12" class="node">
<title>Node11</title>
<polygon fill="#ffffff" stroke="#bfbfbf" points="571.6649,-112.5 571.6649,-131.5 629.6649,-131.5 629.6649,-112.5 571.6649,-112.5"/>
<text text-anchor="middle" x="600.6649" y="-119.5" font-family="Helvetica,sans-Serif" font-size="10.00" fill="#000000">memory</text>
</g>
<!-- Node4&#45;&gt;Node11 -->
<g id="edge25" class="edge">
<title>Node4&#45;&gt;Node11</title>
<path fill="none" stroke="#191970" d="M556.3334,-224.4431C563.9682,-215.5751 574.8973,-201.7145 581.6649,-188 588.92,-173.2976 593.8628,-155.3487 596.8842,-141.8821"/>
<polygon fill="#191970" stroke="#191970" points="600.3727,-142.297 598.9789,-131.7942 593.5189,-140.8738 600.3727,-142.297"/>
</g>
<!-- Node12 -->
<g id="node13" class="node">
<title>Node12</title>
<g id="a_node13"><a xlink:href="StackAllocator_8h.html" target="_top" xlink:title="Minuit2/StackAllocator.h">
<polygon fill="#ffffff" stroke="#000000" points="647.6649,-112.5 647.6649,-131.5 781.6649,-131.5 781.6649,-112.5 647.6649,-112.5"/>
<text text-anchor="middle" x="714.6649" y="-119.5" font-family="Helvetica,sans-Serif" font-size="10.00" fill="#000000">Minuit2/StackAllocator.h</text>
</a>
</g>
</g>
<!-- Node4&#45;&gt;Node12 -->
<g id="edge26" class="edge">
<title>Node4&#45;&gt;Node12</title>
<path fill="none" stroke="#191970" d="M561.9033,-224.4509C590.8661,-205.0268 656.8556,-160.7703 691.8672,-137.2895"/>
<polygon fill="#191970" stroke="#191970" points="694.107,-140.0017 700.4627,-131.5249 690.208,-134.188 694.107,-140.0017"/>
</g>
<!-- Node5&#45;&gt;Node2 -->
<g id="edge6" class="edge">
<title>Node5&#45;&gt;Node2</title>
<path fill="none" stroke="#191970" d="M86.8255,-112.2455C104.1761,-103.4125 129.955,-90.2887 149.6232,-80.2758"/>
<polygon fill="#191970" stroke="#191970" points="151.4002,-83.2986 158.724,-75.6427 148.2244,-77.0605 151.4002,-83.2986"/>
</g>
<!-- Node6&#45;&gt;Node5 -->
<g id="edge10" class="edge">
<title>Node6&#45;&gt;Node5</title>
<path fill="none" stroke="#191970" d="M443.0004,-169.7758C438.1498,-169.1708 433.3302,-168.5733 428.6649,-168 297.7772,-151.9149 262.1747,-151.3201 128.104,-132.1533"/>
<polygon fill="#191970" stroke="#191970" points="128.2469,-128.6379 117.8506,-130.6789 127.2506,-135.5667 128.2469,-128.6379"/>
</g>
<!-- Node7 -->
<g id="node8" class="node">
<title>Node7</title>
<g id="a_node8"><a xlink:href="MnConfig_8h.html" target="_top" xlink:title="Minuit2/MnConfig.h">
<polygon fill="#ffffff" stroke="#000000" points="509.6649,-56.5 509.6649,-75.5 619.6649,-75.5 619.6649,-56.5 509.6649,-56.5"/>
<text text-anchor="middle" x="564.6649" y="-63.5" font-family="Helvetica,sans-Serif" font-size="10.00" fill="#000000">Minuit2/MnConfig.h</text>
</a>
</g>
</g>
<!-- Node6&#45;&gt;Node7 -->
<g id="edge9" class="edge">
<title>Node6&#45;&gt;Node7</title>
<path fill="none" stroke="#191970" d="M512.5247,-168.4509C521.9475,-149.936 542.8527,-108.8591 555.1385,-84.7187"/>
<polygon fill="#191970" stroke="#191970" points="558.401,-86.0246 559.8175,-75.5249 552.1624,-82.8496 558.401,-86.0246"/>
</g>
<!-- Node8 -->
<g id="node9" class="node">
<title>Node8</title>
<g id="a_node9"><a xlink:href="VectorOuterProduct_8h.html" target="_top" xlink:title="Minuit2/VectorOuterProduct.h">
<polygon fill="#ffffff" stroke="#000000" points="136.1649,-112.5 136.1649,-131.5 295.1649,-131.5 295.1649,-112.5 136.1649,-112.5"/>
<text text-anchor="middle" x="215.6649" y="-119.5" font-family="Helvetica,sans-Serif" font-size="10.00" fill="#000000">Minuit2/VectorOuterProduct.h</text>
</a>
</g>
</g>
<!-- Node6&#45;&gt;Node8 -->
<g id="edge11" class="edge">
<title>Node6&#45;&gt;Node8</title>
<path fill="none" stroke="#191970" d="M457.8001,-168.4369C407.3017,-158.7522 329.1814,-143.7703 275.4045,-133.4569"/>
<polygon fill="#191970" stroke="#191970" points="275.8044,-129.9699 265.3241,-131.5237 274.4859,-136.8446 275.8044,-129.9699"/>
</g>
<!-- Node9 -->
<g id="node10" class="node">
<title>Node9</title>
<g id="a_node10"><a xlink:href="MatrixInverse_8h.html" target="_top" xlink:title="Minuit2/MatrixInverse.h">
<polygon fill="#ffffff" stroke="#000000" points="384.1649,-112.5 384.1649,-131.5 515.1649,-131.5 515.1649,-112.5 384.1649,-112.5"/>
<text text-anchor="middle" x="449.6649" y="-119.5" font-family="Helvetica,sans-Serif" font-size="10.00" fill="#000000">Minuit2/MatrixInverse.h</text>
</a>
</g>
</g>
<!-- Node6&#45;&gt;Node9 -->
<g id="edge14" class="edge">
<title>Node6&#45;&gt;Node9</title>
<path fill="none" stroke="#191970" d="M497.5621,-168.2455C489.1621,-160.1352 477.0156,-148.4075 467.0566,-138.7919"/>
<polygon fill="#191970" stroke="#191970" points="469.2771,-136.0707 459.652,-131.6427 464.4149,-141.1066 469.2771,-136.0707"/>
</g>
<!-- Node6&#45;&gt;Node10 -->
<g id="edge17" class="edge">
<title>Node6&#45;&gt;Node10</title>
<path fill="none" stroke="#191970" d="M572.4232,-169.6749C627.6881,-162.07 709.4192,-149.6437 789.1583,-132.1419"/>
<polygon fill="#191970" stroke="#191970" points="790.3753,-135.4568 799.3764,-129.8684 788.8549,-128.6239 790.3753,-135.4568"/>
</g>
<!-- Node6&#45;&gt;Node11 -->
<g id="edge18" class="edge">
<title>Node6&#45;&gt;Node11</title>
<path fill="none" stroke="#191970" d="M523.8643,-168.2455C538.2667,-159.5731 559.5382,-146.7645 576.0449,-136.825"/>
<polygon fill="#191970" stroke="#191970" points="577.8899,-139.7996 584.6512,-131.6427 574.2789,-133.8028 577.8899,-139.7996"/>
</g>
<!-- Node6&#45;&gt;Node12 -->
<g id="edge19" class="edge">
<title>Node6&#45;&gt;Node12</title>
<path fill="none" stroke="#191970" d="M543.2495,-168.3733C578.2665,-158.9001 631.8531,-144.4032 669.7774,-134.1435"/>
<polygon fill="#191970" stroke="#191970" points="670.8057,-137.4912 679.5447,-131.5011 668.9777,-130.7341 670.8057,-137.4912"/>
</g>
<!-- Node15 -->
<g id="node16" class="node">
<title>Node15</title>
<polygon fill="#ffffff" stroke="#bfbfbf" points="313.1649,-112.5 313.1649,-131.5 366.1649,-131.5 366.1649,-112.5 313.1649,-112.5"/>
<text text-anchor="middle" x="339.6649" y="-119.5" font-family="Helvetica,sans-Serif" font-size="10.00" fill="#000000">string.h</text>
</g>
<!-- Node6&#45;&gt;Node15 -->
<g id="edge23" class="edge">
<title>Node6&#45;&gt;Node15</title>
<path fill="none" stroke="#191970" d="M478.7847,-168.3733C450.2563,-158.8638 406.5412,-144.2921 375.7423,-134.0258"/>
<polygon fill="#191970" stroke="#191970" points="376.8258,-130.6977 366.2322,-130.8557 374.6122,-137.3385 376.8258,-130.6977"/>
</g>
<!-- Node8&#45;&gt;Node2 -->
<g id="edge13" class="edge">
<title>Node8&#45;&gt;Node2</title>
<path fill="none" stroke="#191970" d="M209.0458,-112.2455C203.7604,-104.4564 196.2108,-93.3308 189.8412,-83.9439"/>
<polygon fill="#191970" stroke="#191970" points="192.7194,-81.9522 184.2082,-75.6427 186.9271,-85.8827 192.7194,-81.9522"/>
</g>
<!-- Node8&#45;&gt;Node3 -->
<g id="edge12" class="edge">
<title>Node8&#45;&gt;Node3</title>
<path fill="none" stroke="#191970" d="M219.7536,-112.2129C223.5584,-102.957 229.2842,-88.6406 233.6649,-76 238.9945,-60.6217 244.3034,-42.9655 248.1107,-29.7867"/>
<polygon fill="#191970" stroke="#191970" points="251.5484,-30.4943 250.9233,-19.918 244.8164,-28.5757 251.5484,-30.4943"/>
</g>
<!-- Node9&#45;&gt;Node2 -->
<g id="edge16" class="edge">
<title>Node9&#45;&gt;Node2</title>
<path fill="none" stroke="#191970" d="M403.2155,-112.4369C356.3714,-102.7925 284.011,-87.8948 233.9387,-77.5858"/>
<polygon fill="#191970" stroke="#191970" points="234.4232,-74.1122 223.9228,-75.5237 233.0115,-80.9684 234.4232,-74.1122"/>
</g>
<!-- Node9&#45;&gt;Node3 -->
<g id="edge15" class="edge">
<title>Node9&#45;&gt;Node3</title>
<path fill="none" stroke="#191970" d="M432.9541,-112.4509C398.6002,-92.8201 319.8603,-47.8259 279.1226,-24.5472"/>
<polygon fill="#191970" stroke="#191970" points="280.7524,-21.4475 270.3335,-19.5249 277.2794,-27.5252 280.7524,-21.4475"/>
</g>
<!-- Node12&#45;&gt;Node7 -->
<g id="edge20" class="edge">
<title>Node12&#45;&gt;Node7</title>
<path fill="none" stroke="#191970" d="M688.879,-112.3733C664.2602,-103.1822 626.9749,-89.2624 599.6775,-79.0713"/>
<polygon fill="#191970" stroke="#191970" points="600.707,-75.7198 590.1144,-75.5011 598.2586,-82.2777 600.707,-75.7198"/>
</g>
<!-- Node13 -->
<g id="node14" class="node">
<title>Node13</title>
<polygon fill="#ffffff" stroke="#bfbfbf" points="659.1649,-56.5 659.1649,-75.5 708.1649,-75.5 708.1649,-56.5 659.1649,-56.5"/>
<text text-anchor="middle" x="683.6649" y="-63.5" font-family="Helvetica,sans-Serif" font-size="10.00" fill="#000000">cstdlib</text>
</g>
<!-- Node12&#45;&gt;Node13 -->
<g id="edge21" class="edge">
<title>Node12&#45;&gt;Node13</title>
<path fill="none" stroke="#191970" d="M709.2652,-112.2455C705.0422,-104.617 699.0477,-93.7881 693.9208,-84.5267"/>
<polygon fill="#191970" stroke="#191970" points="696.9082,-82.6965 689.0028,-75.6427 690.7839,-86.0867 696.9082,-82.6965"/>
</g>
<!-- Node14 -->
<g id="node15" class="node">
<title>Node14</title>
<polygon fill="#ffffff" stroke="#bfbfbf" points="726.1649,-56.5 726.1649,-75.5 763.1649,-75.5 763.1649,-56.5 726.1649,-56.5"/>
<text text-anchor="middle" x="744.6649" y="-63.5" font-family="Helvetica,sans-Serif" font-size="10.00" fill="#000000">new</text>
</g>
<!-- Node12&#45;&gt;Node14 -->
<g id="edge22" class="edge">
<title>Node12&#45;&gt;Node14</title>
<path fill="none" stroke="#191970" d="M719.8905,-112.2455C723.9772,-104.617 729.7784,-93.7881 734.7399,-84.5267"/>
<polygon fill="#191970" stroke="#191970" points="737.8621,-86.1103 739.4992,-75.6427 731.6918,-82.8047 737.8621,-86.1103"/>
</g>
</g>
</svg>
        <g id="navigator" transform="translate(0 0)" fill="#404254">
                <rect fill="#f2f5e9" fill-opacity="0.5" stroke="#606060" stroke-width=".5" x="0" y="0" width="60" height="60"/>
                <use id="zoomplus" xlink:href="#zoomPlus" x="17" y="9" onmousedown="handleZoom(evt,'in')"/>
                <use id="zoomminus" xlink:href="#zoomMin" x="42" y="9" onmousedown="handleZoom(evt,'out')"/>
                <use id="reset" xlink:href="#resetDef" x="30" y="36" onmousedown="handleReset()"/>
                <g id="arrowUp" xlink:href="#dirArrow" transform="translate(30 24)" onmousedown="handlePan(0,-1)">
                  <use xlink:href="#rim" fill="#404040">
                        <set attributeName="fill" to="#808080" begin="arrowUp.mouseover" end="arrowUp.mouseout"/>
                  </use>
                  <path fill="none" stroke="white" stroke-width="1.5" d="M0,-3.0v7 M-2.5,-0.5L0,-3.0L2.5,-0.5"/>
                </g>
                <g id="arrowRight" xlink:href="#dirArrow" transform="rotate(90) translate(36 -43)" onmousedown="handlePan(1,0)">
                  <use xlink:href="#rim" fill="#404040">
                        <set attributeName="fill" to="#808080" begin="arrowRight.mouseover" end="arrowRight.mouseout"/>
                  </use>
                  <path fill="none" stroke="white" stroke-width="1.5" d="M0,-3.0v7 M-2.5,-0.5L0,-3.0L2.5,-0.5"/>
                </g>
                <g id="arrowDown" xlink:href="#dirArrow" transform="rotate(180) translate(-30 -48)" onmousedown="handlePan(0,1)">
                  <use xlink:href="#rim" fill="#404040">
                        <set attributeName="fill" to="#808080" begin="arrowDown.mouseover" end="arrowDown.mouseout"/>
                  </use>
                  <path fill="none" stroke="white" stroke-width="1.5" d="M0,-3.0v7 M-2.5,-0.5L0,-3.0L2.5,-0.5"/>
                </g>
                <g id="arrowLeft" xlink:href="#dirArrow" transform="rotate(270) translate(-36 17)" onmousedown="handlePan(-1,0)">
                  <use xlink:href="#rim" fill="#404040">
                        <set attributeName="fill" to="#808080" begin="arrowLeft.mouseover" end="arrowLeft.mouseout"/>
                  </use>
                  <path fill="none" stroke="white" stroke-width="1.5" d="M0,-3.0v7 M-2.5,-0.5L0,-3.0L2.5,-0.5"/>
                </g>
        </g>
        <svg viewBox="0 0 15 15" width="100%" height="30px" preserveAspectRatio="xMaxYMin meet">
         <g id="arrow_out" transform="scale(0.3 0.3)">
          <a xlink:href="LaProd_8h__incl_org.svg" target="_base">
           <rect id="button" ry="5" rx="5" y="6" x="6" height="38" width="38"
                fill="#f2f5e9" fill-opacity="0.5" stroke="#606060" stroke-width="1.0"/>
           <path id="arrow"
             d="M 11.500037,31.436501 C 11.940474,20.09759 22.043105,11.32322 32.158766,21.979434 L 37.068811,17.246167 C 37.068811,17.246167 37.088388,32 37.088388,32 L 22.160133,31.978069 C 22.160133,31.978069 26.997745,27.140456 26.997745,27.140456 C 18.528582,18.264221 13.291696,25.230495 11.500037,31.436501 z"
             style="fill:#404040;"/>
          </a>
         </g>
        </svg>
</svg>
