<?xml version="1.0" encoding="UTF-8" standalone="no"?>
<!DOCTYPE svg PUBLIC "-//W3C//DTD SVG 1.1//EN"
 "http://www.w3.org/Graphics/SVG/1.1/DTD/svg11.dtd">
<!-- Generated by graphviz version 2.40.1 (0)
 -->
<!-- Title: math/minuit2/inc/Minuit2/LaSum.h Pages: 1 -->
<!--zoomable 319 -->
<svg id="main" version="1.1" xmlns="http://www.w3.org/2000/svg" xmlns:xlink="http://www.w3.org/1999/xlink" xml:space="preserve" onload="init(evt)">
<style type="text/css"><![CDATA[
.edge:hover path { stroke: red; }
.edge:hover polygon { stroke: red; fill: red; }
]]></style>
<script type="text/javascript"><![CDATA[
var edges = document.getElementsByTagName('g');
if (edges && edges.length) {
  for (var i=0;i<edges.length;i++) {
    if (edges[i].id.substr(0,4)=='edge') {
      edges[i].setAttribute('class','edge');
    }
  }
}
]]></script>
        <defs>
                <circle id="rim" cx="0" cy="0" r="7"/>
                <circle id="rim2" cx="0" cy="0" r="3.5"/>
                <g id="zoomPlus">
                        <use xlink:href="#rim" fill="#404040">
                                <set attributeName="fill" to="#808080" begin="zoomplus.mouseover" end="zoomplus.mouseout"/>
                        </use>
                        <path d="M-4,0h8M0,-4v8" fill="none" stroke="white" stroke-width="1.5" pointer-events="none"/>
                </g>
                <g id="zoomMin">
                        <use xlink:href="#rim" fill="#404040">
                                <set attributeName="fill" to="#808080" begin="zoomminus.mouseover" end="zoomminus.mouseout"/>
                        </use>
                        <path d="M-4,0h8" fill="none" stroke="white" stroke-width="1.5" pointer-events="none"/>
                </g>
                <g id="dirArrow">
                        <path fill="none" stroke="white" stroke-width="1.5" d="M0,-3.0v7 M-2.5,-0.5L0,-3.0L2.5,-0.5"/>
                </g>
               <g id="resetDef">
                       <use xlink:href="#rim2" fill="#404040">
                               <set attributeName="fill" to="#808080" begin="reset.mouseover" end="reset.mouseout"/>
                       </use>
               </g>
        </defs>

<script type="text/javascript">
var viewWidth = 880;
var viewHeight = 319;
var sectionId = 'dynsection-0';
</script>
<script xlink:href="svgpan.js"/>
<svg id="graph" class="graph">
<g id="viewport">
<title>math/minuit2/inc/Minuit2/LaSum.h</title>
<polygon fill="#ffffff" stroke="transparent" points="-4,4 -4,-315 876,-315 876,4 -4,4"/>
<!-- Node0 -->
<g id="node1" class="node">
<title>Node0</title>
<polygon fill="#bfbfbf" stroke="#000000" points="373.5,-280.5 373.5,-310.5 512.5,-310.5 512.5,-280.5 373.5,-280.5"/>
<text text-anchor="start" x="381.5" y="-298.5" font-family="Helvetica,sans-Serif" font-size="10.00" fill="#000000">math/minuit2/inc/Minuit2</text>
<text text-anchor="middle" x="443" y="-287.5" font-family="Helvetica,sans-Serif" font-size="10.00" fill="#000000">/LaSum.h</text>
</g>
<!-- Node1 -->
<g id="node2" class="node">
<title>Node1</title>
<g id="a_node2"><a xlink:href="ABSum_8h.html" target="_top" xlink:title="Minuit2/ABSum.h">
<polygon fill="#ffffff" stroke="#000000" points="0,-112.5 0,-131.5 100,-131.5 100,-112.5 0,-112.5"/>
<text text-anchor="middle" x="50" y="-119.5" font-family="Helvetica,sans-Serif" font-size="10.00" fill="#000000">Minuit2/ABSum.h</text>
</a>
</g>
</g>
<!-- Node0&#45;&gt;Node1 -->
<g id="edge1" class="edge">
<title>Node0&#45;&gt;Node1</title>
<path fill="none" stroke="#191970" d="M407.4303,-280.4373C359.0126,-259.8668 269.7139,-221.69 194,-188 154.27,-170.3216 108.6812,-149.3017 79.6291,-135.8129"/>
<polygon fill="#191970" stroke="#191970" points="80.9865,-132.5843 70.443,-131.5429 78.0359,-138.932 80.9865,-132.5843"/>
</g>
<!-- Node4 -->
<g id="node5" class="node">
<title>Node4</title>
<g id="a_node5"><a xlink:href="LAVector_8h.html" target="_top" xlink:title="Minuit2/LAVector.h">
<polygon fill="#ffffff" stroke="#000000" points="471,-224.5 471,-243.5 577,-243.5 577,-224.5 471,-224.5"/>
<text text-anchor="middle" x="524" y="-231.5" font-family="Helvetica,sans-Serif" font-size="10.00" fill="#000000">Minuit2/LAVector.h</text>
</a>
</g>
</g>
<!-- Node0&#45;&gt;Node4 -->
<g id="edge4" class="edge">
<title>Node0&#45;&gt;Node4</title>
<path fill="none" stroke="#191970" d="M463.0225,-280.2977C475.086,-271.1384 490.4388,-259.4816 502.7211,-250.1562"/>
<polygon fill="#191970" stroke="#191970" points="505.1829,-252.6816 511.0309,-243.8469 500.9499,-247.1065 505.1829,-252.6816"/>
</g>
<!-- Node6 -->
<g id="node7" class="node">
<title>Node6</title>
<g id="a_node7"><a xlink:href="LASymMatrix_8h.html" target="_top" xlink:title="Minuit2/LASymMatrix.h">
<polygon fill="#ffffff" stroke="#000000" points="419.5,-168.5 419.5,-187.5 548.5,-187.5 548.5,-168.5 419.5,-168.5"/>
<text text-anchor="middle" x="484" y="-175.5" font-family="Helvetica,sans-Serif" font-size="10.00" fill="#000000">Minuit2/LASymMatrix.h</text>
</a>
</g>
</g>
<!-- Node0&#45;&gt;Node6 -->
<g id="edge27" class="edge">
<title>Node0&#45;&gt;Node6</title>
<path fill="none" stroke="#191970" d="M446.1376,-280.4601C449.3923,-265.8154 454.9858,-243.0428 462,-224 465.3935,-214.7872 469.9757,-204.9233 474.0799,-196.7016"/>
<polygon fill="#191970" stroke="#191970" points="477.2781,-198.1354 478.7368,-187.6415 471.0524,-194.9353 477.2781,-198.1354"/>
</g>
<!-- Node2 -->
<g id="node3" class="node">
<title>Node2</title>
<g id="a_node3"><a xlink:href="ABObj_8h.html" target="_top" xlink:title="Minuit2/ABObj.h">
<polygon fill="#ffffff" stroke="#000000" points="150.5,-56.5 150.5,-75.5 245.5,-75.5 245.5,-56.5 150.5,-56.5"/>
<text text-anchor="middle" x="198" y="-63.5" font-family="Helvetica,sans-Serif" font-size="10.00" fill="#000000">Minuit2/ABObj.h</text>
</a>
</g>
</g>
<!-- Node1&#45;&gt;Node2 -->
<g id="edge2" class="edge">
<title>Node1&#45;&gt;Node2</title>
<path fill="none" stroke="#191970" d="M75.4421,-112.3733C99.7326,-103.1822 136.5208,-89.2624 163.4543,-79.0713"/>
<polygon fill="#191970" stroke="#191970" points="164.7757,-82.3136 172.8899,-75.5011 162.2984,-75.7666 164.7757,-82.3136"/>
</g>
<!-- Node3 -->
<g id="node4" class="node">
<title>Node3</title>
<g id="a_node4"><a xlink:href="ABTypes_8h.html" target="_top" xlink:title="Minuit2/ABTypes.h">
<polygon fill="#ffffff" stroke="#000000" points="221,-.5 221,-19.5 327,-19.5 327,-.5 221,-.5"/>
<text text-anchor="middle" x="274" y="-7.5" font-family="Helvetica,sans-Serif" font-size="10.00" fill="#000000">Minuit2/ABTypes.h</text>
</a>
</g>
</g>
<!-- Node2&#45;&gt;Node3 -->
<g id="edge3" class="edge">
<title>Node2&#45;&gt;Node3</title>
<path fill="none" stroke="#191970" d="M211.2382,-56.2455C222.681,-47.814 239.4296,-35.4729 252.7475,-25.6598"/>
<polygon fill="#191970" stroke="#191970" points="254.9391,-28.3924 260.9135,-19.6427 250.7867,-22.757 254.9391,-28.3924"/>
</g>
<!-- Node4&#45;&gt;Node1 -->
<g id="edge5" class="edge">
<title>Node4&#45;&gt;Node1</title>
<path fill="none" stroke="#191970" d="M470.8273,-226.0828C419.385,-218.0121 339.3807,-204.3743 271,-188 205.9706,-172.4282 131.742,-149.088 87.9865,-134.7402"/>
<polygon fill="#191970" stroke="#191970" points="88.9281,-131.3654 78.335,-131.5589 86.7367,-138.0135 88.9281,-131.3654"/>
</g>
<!-- Node5 -->
<g id="node6" class="node">
<title>Node5</title>
<g id="a_node6"><a xlink:href="ABProd_8h.html" target="_top" xlink:title="Minuit2/ABProd.h">
<polygon fill="#ffffff" stroke="#000000" points="280,-168.5 280,-187.5 380,-187.5 380,-168.5 280,-168.5"/>
<text text-anchor="middle" x="330" y="-175.5" font-family="Helvetica,sans-Serif" font-size="10.00" fill="#000000">Minuit2/ABProd.h</text>
</a>
</g>
</g>
<!-- Node4&#45;&gt;Node5 -->
<g id="edge6" class="edge">
<title>Node4&#45;&gt;Node5</title>
<path fill="none" stroke="#191970" d="M490.6502,-224.3733C457.972,-214.9404 408.0382,-200.5265 372.523,-190.2747"/>
<polygon fill="#191970" stroke="#191970" points="373.493,-186.9119 362.9146,-187.5011 371.5516,-193.6373 373.493,-186.9119"/>
</g>
<!-- Node4&#45;&gt;Node6 -->
<g id="edge8" class="edge">
<title>Node4&#45;&gt;Node6</title>
<path fill="none" stroke="#191970" d="M517.0325,-224.2455C511.4689,-216.4564 503.522,-205.3308 496.8171,-195.9439"/>
<polygon fill="#191970" stroke="#191970" points="499.5481,-193.7457 490.8876,-187.6427 493.852,-197.8144 499.5481,-193.7457"/>
</g>
<!-- Node10 -->
<g id="node11" class="node">
<title>Node10</title>
<polygon fill="#ffffff" stroke="#bfbfbf" points="592,-112.5 592,-131.5 644,-131.5 644,-112.5 592,-112.5"/>
<text text-anchor="middle" x="618" y="-119.5" font-family="Helvetica,sans-Serif" font-size="10.00" fill="#000000">cassert</text>
</g>
<!-- Node4&#45;&gt;Node10 -->
<g id="edge24" class="edge">
<title>Node4&#45;&gt;Node10</title>
<path fill="none" stroke="#191970" d="M532.0144,-224.4509C547.8312,-205.6054 583.2663,-163.3849 603.3613,-139.4419"/>
<polygon fill="#191970" stroke="#191970" points="606.2581,-141.4347 610.0059,-131.5249 600.8962,-136.9346 606.2581,-141.4347"/>
</g>
<!-- Node11 -->
<g id="node12" class="node">
<title>Node11</title>
<polygon fill="#ffffff" stroke="#bfbfbf" points="662,-112.5 662,-131.5 720,-131.5 720,-112.5 662,-112.5"/>
<text text-anchor="middle" x="691" y="-119.5" font-family="Helvetica,sans-Serif" font-size="10.00" fill="#000000">memory</text>
</g>
<!-- Node4&#45;&gt;Node11 -->
<g id="edge25" class="edge">
<title>Node4&#45;&gt;Node11</title>
<path fill="none" stroke="#191970" d="M538.2383,-224.4509C567.2012,-205.0268 633.1907,-160.7703 668.2023,-137.2895"/>
<polygon fill="#191970" stroke="#191970" points="670.442,-140.0017 676.7977,-131.5249 666.543,-134.188 670.442,-140.0017"/>
</g>
<!-- Node12 -->
<g id="node13" class="node">
<title>Node12</title>
<g id="a_node13"><a xlink:href="StackAllocator_8h.html" target="_top" xlink:title="Minuit2/StackAllocator.h">
<polygon fill="#ffffff" stroke="#000000" points="738,-112.5 738,-131.5 872,-131.5 872,-112.5 738,-112.5"/>
<text text-anchor="middle" x="805" y="-119.5" font-family="Helvetica,sans-Serif" font-size="10.00" fill="#000000">Minuit2/StackAllocator.h</text>
</a>
</g>
</g>
<!-- Node4&#45;&gt;Node12 -->
<g id="edge26" class="edge">
<title>Node4&#45;&gt;Node12</title>
<path fill="none" stroke="#191970" d="M547.9579,-224.4509C598.1434,-204.4482 714.3982,-158.1117 771.7624,-135.2477"/>
<polygon fill="#191970" stroke="#191970" points="773.1093,-138.4787 781.1027,-131.5249 770.5175,-131.9762 773.1093,-138.4787"/>
</g>
<!-- Node5&#45;&gt;Node2 -->
<g id="edge7" class="edge">
<title>Node5&#45;&gt;Node2</title>
<path fill="none" stroke="#191970" d="M279.8,-172.2891C231.4159,-165.6288 163.2158,-152.7963 147,-132 133.4871,-114.6701 153.9175,-94.6932 172.7963,-81.2976"/>
<polygon fill="#191970" stroke="#191970" points="174.8779,-84.1158 181.2337,-75.6391 170.979,-78.3021 174.8779,-84.1158"/>
</g>
<!-- Node6&#45;&gt;Node1 -->
<g id="edge10" class="edge">
<title>Node6&#45;&gt;Node1</title>
<path fill="none" stroke="#191970" d="M419.4944,-169.6767C336.0492,-158.9096 191.7712,-140.2931 110.3869,-129.7919"/>
<polygon fill="#191970" stroke="#191970" points="110.665,-126.2988 100.2993,-128.4902 109.7692,-133.2413 110.665,-126.2988"/>
</g>
<!-- Node7 -->
<g id="node8" class="node">
<title>Node7</title>
<g id="a_node8"><a xlink:href="MnConfig_8h.html" target="_top" xlink:title="Minuit2/MnConfig.h">
<polygon fill="#ffffff" stroke="#000000" points="550,-56.5 550,-75.5 660,-75.5 660,-56.5 550,-56.5"/>
<text text-anchor="middle" x="605" y="-63.5" font-family="Helvetica,sans-Serif" font-size="10.00" fill="#000000">Minuit2/MnConfig.h</text>
</a>
</g>
</g>
<!-- Node6&#45;&gt;Node7 -->
<g id="edge9" class="edge">
<title>Node6&#45;&gt;Node7</title>
<path fill="none" stroke="#191970" d="M498.1479,-168.4678C510.9002,-159.6166 529.9095,-145.7665 545,-132 561.6742,-116.7888 578.8105,-97.5047 590.478,-83.716"/>
<polygon fill="#191970" stroke="#191970" points="593.2597,-85.8454 596.9829,-75.9263 587.8867,-81.3586 593.2597,-85.8454"/>
</g>
<!-- Node8 -->
<g id="node9" class="node">
<title>Node8</title>
<g id="a_node9"><a xlink:href="VectorOuterProduct_8h.html" target="_top" xlink:title="Minuit2/VectorOuterProduct.h">
<polygon fill="#ffffff" stroke="#000000" points="156.5,-112.5 156.5,-131.5 315.5,-131.5 315.5,-112.5 156.5,-112.5"/>
<text text-anchor="middle" x="236" y="-119.5" font-family="Helvetica,sans-Serif" font-size="10.00" fill="#000000">Minuit2/VectorOuterProduct.h</text>
</a>
</g>
</g>
<!-- Node6&#45;&gt;Node8 -->
<g id="edge11" class="edge">
<title>Node6&#45;&gt;Node8</title>
<path fill="none" stroke="#191970" d="M441.6491,-168.4369C399.2058,-158.8529 333.7881,-144.0812 288.1687,-133.78"/>
<polygon fill="#191970" stroke="#191970" points="288.7016,-130.3123 278.1763,-131.5237 287.1597,-137.1404 288.7016,-130.3123"/>
</g>
<!-- Node9 -->
<g id="node10" class="node">
<title>Node9</title>
<g id="a_node10"><a xlink:href="MatrixInverse_8h.html" target="_top" xlink:title="Minuit2/MatrixInverse.h">
<polygon fill="#ffffff" stroke="#000000" points="404.5,-112.5 404.5,-131.5 535.5,-131.5 535.5,-112.5 404.5,-112.5"/>
<text text-anchor="middle" x="470" y="-119.5" font-family="Helvetica,sans-Serif" font-size="10.00" fill="#000000">Minuit2/MatrixInverse.h</text>
</a>
</g>
</g>
<!-- Node6&#45;&gt;Node9 -->
<g id="edge14" class="edge">
<title>Node6&#45;&gt;Node9</title>
<path fill="none" stroke="#191970" d="M481.5614,-168.2455C479.7145,-160.8579 477.1172,-150.4689 474.8522,-141.4087"/>
<polygon fill="#191970" stroke="#191970" points="478.2316,-140.4952 472.4107,-131.6427 471.4406,-142.193 478.2316,-140.4952"/>
</g>
<!-- Node6&#45;&gt;Node10 -->
<g id="edge17" class="edge">
<title>Node6&#45;&gt;Node10</title>
<path fill="none" stroke="#191970" d="M507.0354,-168.3733C528.7388,-159.3032 561.4618,-145.6279 585.755,-135.4755"/>
<polygon fill="#191970" stroke="#191970" points="587.3881,-138.5865 595.2652,-131.5011 584.6889,-132.1278 587.3881,-138.5865"/>
</g>
<!-- Node6&#45;&gt;Node11 -->
<g id="edge18" class="edge">
<title>Node6&#45;&gt;Node11</title>
<path fill="none" stroke="#191970" d="M519.5846,-168.3733C556.5116,-158.3833 614.0892,-142.8068 652.1729,-132.5039"/>
<polygon fill="#191970" stroke="#191970" points="653.148,-135.8661 661.8869,-129.876 651.3199,-129.109 653.148,-135.8661"/>
</g>
<!-- Node6&#45;&gt;Node12 -->
<g id="edge19" class="edge">
<title>Node6&#45;&gt;Node12</title>
<path fill="none" stroke="#191970" d="M538.8171,-168.4369C594.6771,-158.6918 681.2821,-143.5832 740.4305,-133.2645"/>
<polygon fill="#191970" stroke="#191970" points="741.1593,-136.6903 750.409,-131.5237 739.9562,-129.7944 741.1593,-136.6903"/>
</g>
<!-- Node15 -->
<g id="node16" class="node">
<title>Node15</title>
<polygon fill="#ffffff" stroke="#bfbfbf" points="333.5,-112.5 333.5,-131.5 386.5,-131.5 386.5,-112.5 333.5,-112.5"/>
<text text-anchor="middle" x="360" y="-119.5" font-family="Helvetica,sans-Serif" font-size="10.00" fill="#000000">string.h</text>
</g>
<!-- Node6&#45;&gt;Node15 -->
<g id="edge23" class="edge">
<title>Node6&#45;&gt;Node15</title>
<path fill="none" stroke="#191970" d="M462.6836,-168.3733C442.7784,-159.3838 412.8564,-145.8706 390.44,-135.7471"/>
<polygon fill="#191970" stroke="#191970" points="391.5925,-132.4272 381.0382,-131.5011 388.7113,-138.8068 391.5925,-132.4272"/>
</g>
<!-- Node8&#45;&gt;Node2 -->
<g id="edge13" class="edge">
<title>Node8&#45;&gt;Node2</title>
<path fill="none" stroke="#191970" d="M229.3809,-112.2455C224.0954,-104.4564 216.5459,-93.3308 210.1762,-83.9439"/>
<polygon fill="#191970" stroke="#191970" points="213.0545,-81.9522 204.5432,-75.6427 207.2621,-85.8827 213.0545,-81.9522"/>
</g>
<!-- Node8&#45;&gt;Node3 -->
<g id="edge12" class="edge">
<title>Node8&#45;&gt;Node3</title>
<path fill="none" stroke="#191970" d="M240.0886,-112.2129C243.8934,-102.957 249.6192,-88.6406 254,-76 259.3296,-60.6217 264.6384,-42.9655 268.4458,-29.7867"/>
<polygon fill="#191970" stroke="#191970" points="271.8834,-30.4943 271.2583,-19.918 265.1515,-28.5757 271.8834,-30.4943"/>
</g>
<!-- Node9&#45;&gt;Node2 -->
<g id="edge16" class="edge">
<title>Node9&#45;&gt;Node2</title>
<path fill="none" stroke="#191970" d="M423.5506,-112.4369C376.7065,-102.7925 304.3461,-87.8948 254.2738,-77.5858"/>
<polygon fill="#191970" stroke="#191970" points="254.7582,-74.1122 244.2578,-75.5237 253.3466,-80.9684 254.7582,-74.1122"/>
</g>
<!-- Node9&#45;&gt;Node3 -->
<g id="edge15" class="edge">
<title>Node9&#45;&gt;Node3</title>
<path fill="none" stroke="#191970" d="M453.2892,-112.4509C418.9352,-92.8201 340.1953,-47.8259 299.4576,-24.5472"/>
<polygon fill="#191970" stroke="#191970" points="301.0875,-21.4475 290.6686,-19.5249 297.6145,-27.5252 301.0875,-21.4475"/>
</g>
<!-- Node12&#45;&gt;Node7 -->
<g id="edge20" class="edge">
<title>Node12&#45;&gt;Node7</title>
<path fill="none" stroke="#191970" d="M770.6188,-112.3733C736.9299,-102.9404 685.4518,-88.5265 648.8382,-78.2747"/>
<polygon fill="#191970" stroke="#191970" points="649.506,-74.8271 638.9326,-75.5011 647.6185,-81.5679 649.506,-74.8271"/>
</g>
<!-- Node13 -->
<g id="node14" class="node">
<title>Node13</title>
<polygon fill="#ffffff" stroke="#bfbfbf" points="749.5,-56.5 749.5,-75.5 798.5,-75.5 798.5,-56.5 749.5,-56.5"/>
<text text-anchor="middle" x="774" y="-63.5" font-family="Helvetica,sans-Serif" font-size="10.00" fill="#000000">cstdlib</text>
</g>
<!-- Node12&#45;&gt;Node13 -->
<g id="edge21" class="edge">
<title>Node12&#45;&gt;Node13</title>
<path fill="none" stroke="#191970" d="M799.6002,-112.2455C795.3773,-104.617 789.3827,-93.7881 784.2559,-84.5267"/>
<polygon fill="#191970" stroke="#191970" points="787.2432,-82.6965 779.3379,-75.6427 781.119,-86.0867 787.2432,-82.6965"/>
</g>
<!-- Node14 -->
<g id="node15" class="node">
<title>Node14</title>
<polygon fill="#ffffff" stroke="#bfbfbf" points="816.5,-56.5 816.5,-75.5 853.5,-75.5 853.5,-56.5 816.5,-56.5"/>
<text text-anchor="middle" x="835" y="-63.5" font-family="Helvetica,sans-Serif" font-size="10.00" fill="#000000">new</text>
</g>
<!-- Node12&#45;&gt;Node14 -->
<g id="edge22" class="edge">
<title>Node12&#45;&gt;Node14</title>
<path fill="none" stroke="#191970" d="M810.2256,-112.2455C814.3123,-104.617 820.1135,-93.7881 825.075,-84.5267"/>
<polygon fill="#191970" stroke="#191970" points="828.1972,-86.1103 829.8343,-75.6427 822.0268,-82.8047 828.1972,-86.1103"/>
</g>
</g>
</svg>
        <g id="navigator" transform="translate(0 0)" fill="#404254">
                <rect fill="#f2f5e9" fill-opacity="0.5" stroke="#606060" stroke-width=".5" x="0" y="0" width="60" height="60"/>
                <use id="zoomplus" xlink:href="#zoomPlus" x="17" y="9" onmousedown="handleZoom(evt,'in')"/>
                <use id="zoomminus" xlink:href="#zoomMin" x="42" y="9" onmousedown="handleZoom(evt,'out')"/>
                <use id="reset" xlink:href="#resetDef" x="30" y="36" onmousedown="handleReset()"/>
                <g id="arrowUp" xlink:href="#dirArrow" transform="translate(30 24)" onmousedown="handlePan(0,-1)">
                  <use xlink:href="#rim" fill="#404040">
                        <set attributeName="fill" to="#808080" begin="arrowUp.mouseover" end="arrowUp.mouseout"/>
                  </use>
                  <path fill="none" stroke="white" stroke-width="1.5" d="M0,-3.0v7 M-2.5,-0.5L0,-3.0L2.5,-0.5"/>
                </g>
                <g id="arrowRight" xlink:href="#dirArrow" transform="rotate(90) translate(36 -43)" onmousedown="handlePan(1,0)">
                  <use xlink:href="#rim" fill="#404040">
                        <set attributeName="fill" to="#808080" begin="arrowRight.mouseover" end="arrowRight.mouseout"/>
                  </use>
                  <path fill="none" stroke="white" stroke-width="1.5" d="M0,-3.0v7 M-2.5,-0.5L0,-3.0L2.5,-0.5"/>
                </g>
                <g id="arrowDown" xlink:href="#dirArrow" transform="rotate(180) translate(-30 -48)" onmousedown="handlePan(0,1)">
                  <use xlink:href="#rim" fill="#404040">
                        <set attributeName="fill" to="#808080" begin="arrowDown.mouseover" end="arrowDown.mouseout"/>
                  </use>
                  <path fill="none" stroke="white" stroke-width="1.5" d="M0,-3.0v7 M-2.5,-0.5L0,-3.0L2.5,-0.5"/>
                </g>
                <g id="arrowLeft" xlink:href="#dirArrow" transform="rotate(270) translate(-36 17)" onmousedown="handlePan(-1,0)">
                  <use xlink:href="#rim" fill="#404040">
                        <set attributeName="fill" to="#808080" begin="arrowLeft.mouseover" end="arrowLeft.mouseout"/>
                  </use>
                  <path fill="none" stroke="white" stroke-width="1.5" d="M0,-3.0v7 M-2.5,-0.5L0,-3.0L2.5,-0.5"/>
                </g>
        </g>
        <svg viewBox="0 0 15 15" width="100%" height="30px" preserveAspectRatio="xMaxYMin meet">
         <g id="arrow_out" transform="scale(0.3 0.3)">
          <a xlink:href="LaSum_8h__incl_org.svg" target="_base">
           <rect id="button" ry="5" rx="5" y="6" x="6" height="38" width="38"
                fill="#f2f5e9" fill-opacity="0.5" stroke="#606060" stroke-width="1.0"/>
           <path id="arrow"
             d="M 11.500037,31.436501 C 11.940474,20.09759 22.043105,11.32322 32.158766,21.979434 L 37.068811,17.246167 C 37.068811,17.246167 37.088388,32 37.088388,32 L 22.160133,31.978069 C 22.160133,31.978069 26.997745,27.140456 26.997745,27.140456 C 18.528582,18.264221 13.291696,25.230495 11.500037,31.436501 z"
             style="fill:#404040;"/>
          </a>
         </g>
        </svg>
</svg>
