<?xml version="1.0" encoding="UTF-8" standalone="no"?>
<!DOCTYPE svg PUBLIC "-//W3C//DTD SVG 1.1//EN"
 "http://www.w3.org/Graphics/SVG/1.1/DTD/svg11.dtd">
<!-- Generated by graphviz version 2.40.1 (0)
 -->
<!-- Title: math/minuit2/inc/Minuit2/LASymMatrix.h Pages: 1 -->
<!--zoomable 207 -->
<svg id="main" version="1.1" xmlns="http://www.w3.org/2000/svg" xmlns:xlink="http://www.w3.org/1999/xlink" xml:space="preserve" onload="init(evt)">
<style type="text/css"><![CDATA[
.edge:hover path { stroke: red; }
.edge:hover polygon { stroke: red; fill: red; }
]]></style>
<script type="text/javascript"><![CDATA[
var edges = document.getElementsByTagName('g');
if (edges && edges.length) {
  for (var i=0;i<edges.length;i++) {
    if (edges[i].id.substr(0,4)=='edge') {
      edges[i].setAttribute('class','edge');
    }
  }
}
]]></script>
        <defs>
                <circle id="rim" cx="0" cy="0" r="7"/>
                <circle id="rim2" cx="0" cy="0" r="3.5"/>
                <g id="zoomPlus">
                        <use xlink:href="#rim" fill="#404040">
                                <set attributeName="fill" to="#808080" begin="zoomplus.mouseover" end="zoomplus.mouseout"/>
                        </use>
                        <path d="M-4,0h8M0,-4v8" fill="none" stroke="white" stroke-width="1.5" pointer-events="none"/>
                </g>
                <g id="zoomMin">
                        <use xlink:href="#rim" fill="#404040">
                                <set attributeName="fill" to="#808080" begin="zoomminus.mouseover" end="zoomminus.mouseout"/>
                        </use>
                        <path d="M-4,0h8" fill="none" stroke="white" stroke-width="1.5" pointer-events="none"/>
                </g>
                <g id="dirArrow">
                        <path fill="none" stroke="white" stroke-width="1.5" d="M0,-3.0v7 M-2.5,-0.5L0,-3.0L2.5,-0.5"/>
                </g>
               <g id="resetDef">
                       <use xlink:href="#rim2" fill="#404040">
                               <set attributeName="fill" to="#808080" begin="reset.mouseover" end="reset.mouseout"/>
                       </use>
               </g>
        </defs>

<script type="text/javascript">
var viewWidth = 843;
var viewHeight = 207;
var sectionId = 'dynsection-0';
</script>
<script xlink:href="svgpan.js"/>
<svg id="graph" class="graph">
<g id="viewport">
<title>math/minuit2/inc/Minuit2/LASymMatrix.h</title>
<polygon fill="#ffffff" stroke="transparent" points="-4,4 -4,-203 839,-203 839,4 -4,4"/>
<!-- Node0 -->
<g id="node1" class="node">
<title>Node0</title>
<polygon fill="#bfbfbf" stroke="#000000" points="413,-168.5 413,-198.5 552,-198.5 552,-168.5 413,-168.5"/>
<text text-anchor="start" x="421" y="-186.5" font-family="Helvetica,sans-Serif" font-size="10.00" fill="#000000">math/minuit2/inc/Minuit2</text>
<text text-anchor="middle" x="482.5" y="-175.5" font-family="Helvetica,sans-Serif" font-size="10.00" fill="#000000">/LASymMatrix.h</text>
</g>
<!-- Node1 -->
<g id="node2" class="node">
<title>Node1</title>
<g id="a_node2"><a xlink:href="MnConfig_8h.html" target="_top" xlink:title="Minuit2/MnConfig.h">
<polygon fill="#ffffff" stroke="#000000" points="441.5,-56.5 441.5,-75.5 551.5,-75.5 551.5,-56.5 441.5,-56.5"/>
<text text-anchor="middle" x="496.5" y="-63.5" font-family="Helvetica,sans-Serif" font-size="10.00" fill="#000000">Minuit2/MnConfig.h</text>
</a>
</g>
</g>
<!-- Node0&#45;&gt;Node1 -->
<g id="edge1" class="edge">
<title>Node0&#45;&gt;Node1</title>
<path fill="none" stroke="#191970" d="M477.8899,-168.2718C474.1538,-153.6838 470.162,-131.1245 474.5,-112 476.644,-102.548 480.978,-92.7672 485.2367,-84.6675"/>
<polygon fill="#191970" stroke="#191970" points="488.3961,-86.1895 490.2417,-75.7567 482.2929,-82.7615 488.3961,-86.1895"/>
</g>
<!-- Node2 -->
<g id="node3" class="node">
<title>Node2</title>
<g id="a_node3"><a xlink:href="ABSum_8h.html" target="_top" xlink:title="Minuit2/ABSum.h">
<polygon fill="#ffffff" stroke="#000000" points="177.5,-112.5 177.5,-131.5 277.5,-131.5 277.5,-112.5 177.5,-112.5"/>
<text text-anchor="middle" x="227.5" y="-119.5" font-family="Helvetica,sans-Serif" font-size="10.00" fill="#000000">Minuit2/ABSum.h</text>
</a>
</g>
</g>
<!-- Node0&#45;&gt;Node2 -->
<g id="edge2" class="edge">
<title>Node0&#45;&gt;Node2</title>
<path fill="none" stroke="#191970" d="M420.12,-168.4554C375.9864,-157.8114 317.6232,-143.7356 276.7514,-133.8783"/>
<polygon fill="#191970" stroke="#191970" points="277.5578,-130.4725 267.0159,-131.5303 275.9166,-137.2774 277.5578,-130.4725"/>
</g>
<!-- Node5 -->
<g id="node6" class="node">
<title>Node5</title>
<g id="a_node6"><a xlink:href="VectorOuterProduct_8h.html" target="_top" xlink:title="Minuit2/VectorOuterProduct.h">
<polygon fill="#ffffff" stroke="#000000" points="0,-112.5 0,-131.5 159,-131.5 159,-112.5 0,-112.5"/>
<text text-anchor="middle" x="79.5" y="-119.5" font-family="Helvetica,sans-Serif" font-size="10.00" fill="#000000">Minuit2/VectorOuterProduct.h</text>
</a>
</g>
</g>
<!-- Node0&#45;&gt;Node5 -->
<g id="edge5" class="edge">
<title>Node0&#45;&gt;Node5</title>
<path fill="none" stroke="#191970" d="M412.7628,-172.8577C339.8233,-161.7268 225.8653,-144.3361 151.9338,-133.0538"/>
<polygon fill="#191970" stroke="#191970" points="152.1894,-129.5524 141.7758,-131.5036 151.1333,-136.4722 152.1894,-129.5524"/>
</g>
<!-- Node6 -->
<g id="node7" class="node">
<title>Node6</title>
<g id="a_node7"><a xlink:href="MatrixInverse_8h.html" target="_top" xlink:title="Minuit2/MatrixInverse.h">
<polygon fill="#ffffff" stroke="#000000" points="296,-112.5 296,-131.5 427,-131.5 427,-112.5 296,-112.5"/>
<text text-anchor="middle" x="361.5" y="-119.5" font-family="Helvetica,sans-Serif" font-size="10.00" fill="#000000">Minuit2/MatrixInverse.h</text>
</a>
</g>
</g>
<!-- Node0&#45;&gt;Node6 -->
<g id="edge8" class="edge">
<title>Node0&#45;&gt;Node6</title>
<path fill="none" stroke="#191970" d="M452.9001,-168.4554C433.5078,-158.599 408.3258,-145.7999 389.3057,-136.1327"/>
<polygon fill="#191970" stroke="#191970" points="390.7512,-132.9412 380.2507,-131.5303 387.5795,-139.1815 390.7512,-132.9412"/>
</g>
<!-- Node7 -->
<g id="node8" class="node">
<title>Node7</title>
<polygon fill="#ffffff" stroke="#bfbfbf" points="483.5,-112.5 483.5,-131.5 535.5,-131.5 535.5,-112.5 483.5,-112.5"/>
<text text-anchor="middle" x="509.5" y="-119.5" font-family="Helvetica,sans-Serif" font-size="10.00" fill="#000000">cassert</text>
</g>
<!-- Node0&#45;&gt;Node7 -->
<g id="edge11" class="edge">
<title>Node0&#45;&gt;Node7</title>
<path fill="none" stroke="#191970" d="M489.1742,-168.2977C492.7659,-160.1166 497.2324,-149.943 501.0629,-141.2179"/>
<polygon fill="#191970" stroke="#191970" points="504.3618,-142.4104 505.177,-131.8469 497.9522,-139.5964 504.3618,-142.4104"/>
</g>
<!-- Node8 -->
<g id="node9" class="node">
<title>Node8</title>
<polygon fill="#ffffff" stroke="#bfbfbf" points="553.5,-112.5 553.5,-131.5 611.5,-131.5 611.5,-112.5 553.5,-112.5"/>
<text text-anchor="middle" x="582.5" y="-119.5" font-family="Helvetica,sans-Serif" font-size="10.00" fill="#000000">memory</text>
</g>
<!-- Node0&#45;&gt;Node8 -->
<g id="edge12" class="edge">
<title>Node0&#45;&gt;Node8</title>
<path fill="none" stroke="#191970" d="M506.9628,-168.4554C522.6235,-158.8241 542.8532,-146.3828 558.4356,-136.7996"/>
<polygon fill="#191970" stroke="#191970" points="560.319,-139.7503 567.0035,-131.5303 556.652,-133.7876 560.319,-139.7503"/>
</g>
<!-- Node9 -->
<g id="node10" class="node">
<title>Node9</title>
<g id="a_node10"><a xlink:href="StackAllocator_8h.html" target="_top" xlink:title="Minuit2/StackAllocator.h">
<polygon fill="#ffffff" stroke="#000000" points="629.5,-112.5 629.5,-131.5 763.5,-131.5 763.5,-112.5 629.5,-112.5"/>
<text text-anchor="middle" x="696.5" y="-119.5" font-family="Helvetica,sans-Serif" font-size="10.00" fill="#000000">Minuit2/StackAllocator.h</text>
</a>
</g>
</g>
<!-- Node0&#45;&gt;Node9 -->
<g id="edge13" class="edge">
<title>Node0&#45;&gt;Node9</title>
<path fill="none" stroke="#191970" d="M534.8503,-168.4554C571.3398,-157.9689 619.4201,-144.1515 653.6351,-134.3187"/>
<polygon fill="#191970" stroke="#191970" points="654.6933,-137.6563 663.3376,-131.5303 652.7599,-130.9286 654.6933,-137.6563"/>
</g>
<!-- Node12 -->
<g id="node13" class="node">
<title>Node12</title>
<polygon fill="#ffffff" stroke="#bfbfbf" points="782,-112.5 782,-131.5 835,-131.5 835,-112.5 782,-112.5"/>
<text text-anchor="middle" x="808.5" y="-119.5" font-family="Helvetica,sans-Serif" font-size="10.00" fill="#000000">string.h</text>
</g>
<!-- Node0&#45;&gt;Node12 -->
<g id="edge17" class="edge">
<title>Node0&#45;&gt;Node12</title>
<path fill="none" stroke="#191970" d="M552.0139,-173.0617C608.691,-164.1142 690.971,-150.1343 771.9662,-131.9497"/>
<polygon fill="#191970" stroke="#191970" points="772.8573,-135.3366 781.8355,-129.7113 771.309,-128.51 772.8573,-135.3366"/>
</g>
<!-- Node3 -->
<g id="node4" class="node">
<title>Node3</title>
<g id="a_node4"><a xlink:href="ABObj_8h.html" target="_top" xlink:title="Minuit2/ABObj.h">
<polygon fill="#ffffff" stroke="#000000" points="180,-56.5 180,-75.5 275,-75.5 275,-56.5 180,-56.5"/>
<text text-anchor="middle" x="227.5" y="-63.5" font-family="Helvetica,sans-Serif" font-size="10.00" fill="#000000">Minuit2/ABObj.h</text>
</a>
</g>
</g>
<!-- Node2&#45;&gt;Node3 -->
<g id="edge3" class="edge">
<title>Node2&#45;&gt;Node3</title>
<path fill="none" stroke="#191970" d="M227.5,-112.2455C227.5,-104.9382 227.5,-94.6944 227.5,-85.7046"/>
<polygon fill="#191970" stroke="#191970" points="231.0001,-85.6426 227.5,-75.6427 224.0001,-85.6427 231.0001,-85.6426"/>
</g>
<!-- Node4 -->
<g id="node5" class="node">
<title>Node4</title>
<g id="a_node5"><a xlink:href="ABTypes_8h.html" target="_top" xlink:title="Minuit2/ABTypes.h">
<polygon fill="#ffffff" stroke="#000000" points="174.5,-.5 174.5,-19.5 280.5,-19.5 280.5,-.5 174.5,-.5"/>
<text text-anchor="middle" x="227.5" y="-7.5" font-family="Helvetica,sans-Serif" font-size="10.00" fill="#000000">Minuit2/ABTypes.h</text>
</a>
</g>
</g>
<!-- Node3&#45;&gt;Node4 -->
<g id="edge4" class="edge">
<title>Node3&#45;&gt;Node4</title>
<path fill="none" stroke="#191970" d="M227.5,-56.2455C227.5,-48.9382 227.5,-38.6944 227.5,-29.7046"/>
<polygon fill="#191970" stroke="#191970" points="231.0001,-29.6426 227.5,-19.6427 224.0001,-29.6427 231.0001,-29.6426"/>
</g>
<!-- Node5&#45;&gt;Node3 -->
<g id="edge7" class="edge">
<title>Node5&#45;&gt;Node3</title>
<path fill="none" stroke="#191970" d="M104.9421,-112.3733C129.2326,-103.1822 166.0208,-89.2624 192.9543,-79.0713"/>
<polygon fill="#191970" stroke="#191970" points="194.2757,-82.3136 202.3899,-75.5011 191.7984,-75.7666 194.2757,-82.3136"/>
</g>
<!-- Node5&#45;&gt;Node4 -->
<g id="edge6" class="edge">
<title>Node5&#45;&gt;Node4</title>
<path fill="none" stroke="#191970" d="M92.1184,-112.4509C117.6768,-93.1094 175.7707,-49.1465 206.8984,-25.5904"/>
<polygon fill="#191970" stroke="#191970" points="209.0515,-28.3503 214.9135,-19.5249 204.8274,-22.7684 209.0515,-28.3503"/>
</g>
<!-- Node6&#45;&gt;Node3 -->
<g id="edge10" class="edge">
<title>Node6&#45;&gt;Node3</title>
<path fill="none" stroke="#191970" d="M338.4646,-112.3733C316.7612,-103.3032 284.0382,-89.6279 259.745,-79.4755"/>
<polygon fill="#191970" stroke="#191970" points="260.8111,-76.1278 250.2348,-75.5011 258.1119,-82.5865 260.8111,-76.1278"/>
</g>
<!-- Node6&#45;&gt;Node4 -->
<g id="edge9" class="edge">
<title>Node6&#45;&gt;Node4</title>
<path fill="none" stroke="#191970" d="M350.6208,-112.4979C335.7844,-99.5803 308.3239,-75.816 284.5,-56 272.4658,-45.9903 258.826,-34.9713 247.907,-26.2279"/>
<polygon fill="#191970" stroke="#191970" points="249.8142,-23.2719 239.8161,-19.7665 245.446,-28.7417 249.8142,-23.2719"/>
</g>
<!-- Node9&#45;&gt;Node1 -->
<g id="edge14" class="edge">
<title>Node9&#45;&gt;Node1</title>
<path fill="none" stroke="#191970" d="M662.1188,-112.3733C628.4299,-102.9404 576.9518,-88.5265 540.3382,-78.2747"/>
<polygon fill="#191970" stroke="#191970" points="541.006,-74.8271 530.4326,-75.5011 539.1185,-81.5679 541.006,-74.8271"/>
</g>
<!-- Node10 -->
<g id="node11" class="node">
<title>Node10</title>
<polygon fill="#ffffff" stroke="#bfbfbf" points="641,-56.5 641,-75.5 690,-75.5 690,-56.5 641,-56.5"/>
<text text-anchor="middle" x="665.5" y="-63.5" font-family="Helvetica,sans-Serif" font-size="10.00" fill="#000000">cstdlib</text>
</g>
<!-- Node9&#45;&gt;Node10 -->
<g id="edge15" class="edge">
<title>Node9&#45;&gt;Node10</title>
<path fill="none" stroke="#191970" d="M691.1002,-112.2455C686.8773,-104.617 680.8827,-93.7881 675.7559,-84.5267"/>
<polygon fill="#191970" stroke="#191970" points="678.7432,-82.6965 670.8379,-75.6427 672.619,-86.0867 678.7432,-82.6965"/>
</g>
<!-- Node11 -->
<g id="node12" class="node">
<title>Node11</title>
<polygon fill="#ffffff" stroke="#bfbfbf" points="708,-56.5 708,-75.5 745,-75.5 745,-56.5 708,-56.5"/>
<text text-anchor="middle" x="726.5" y="-63.5" font-family="Helvetica,sans-Serif" font-size="10.00" fill="#000000">new</text>
</g>
<!-- Node9&#45;&gt;Node11 -->
<g id="edge16" class="edge">
<title>Node9&#45;&gt;Node11</title>
<path fill="none" stroke="#191970" d="M701.7256,-112.2455C705.8123,-104.617 711.6135,-93.7881 716.575,-84.5267"/>
<polygon fill="#191970" stroke="#191970" points="719.6972,-86.1103 721.3343,-75.6427 713.5268,-82.8047 719.6972,-86.1103"/>
</g>
</g>
</svg>
        <g id="navigator" transform="translate(0 0)" fill="#404254">
                <rect fill="#f2f5e9" fill-opacity="0.5" stroke="#606060" stroke-width=".5" x="0" y="0" width="60" height="60"/>
                <use id="zoomplus" xlink:href="#zoomPlus" x="17" y="9" onmousedown="handleZoom(evt,'in')"/>
                <use id="zoomminus" xlink:href="#zoomMin" x="42" y="9" onmousedown="handleZoom(evt,'out')"/>
                <use id="reset" xlink:href="#resetDef" x="30" y="36" onmousedown="handleReset()"/>
                <g id="arrowUp" xlink:href="#dirArrow" transform="translate(30 24)" onmousedown="handlePan(0,-1)">
                  <use xlink:href="#rim" fill="#404040">
                        <set attributeName="fill" to="#808080" begin="arrowUp.mouseover" end="arrowUp.mouseout"/>
                  </use>
                  <path fill="none" stroke="white" stroke-width="1.5" d="M0,-3.0v7 M-2.5,-0.5L0,-3.0L2.5,-0.5"/>
                </g>
                <g id="arrowRight" xlink:href="#dirArrow" transform="rotate(90) translate(36 -43)" onmousedown="handlePan(1,0)">
                  <use xlink:href="#rim" fill="#404040">
                        <set attributeName="fill" to="#808080" begin="arrowRight.mouseover" end="arrowRight.mouseout"/>
                  </use>
                  <path fill="none" stroke="white" stroke-width="1.5" d="M0,-3.0v7 M-2.5,-0.5L0,-3.0L2.5,-0.5"/>
                </g>
                <g id="arrowDown" xlink:href="#dirArrow" transform="rotate(180) translate(-30 -48)" onmousedown="handlePan(0,1)">
                  <use xlink:href="#rim" fill="#404040">
                        <set attributeName="fill" to="#808080" begin="arrowDown.mouseover" end="arrowDown.mouseout"/>
                  </use>
                  <path fill="none" stroke="white" stroke-width="1.5" d="M0,-3.0v7 M-2.5,-0.5L0,-3.0L2.5,-0.5"/>
                </g>
                <g id="arrowLeft" xlink:href="#dirArrow" transform="rotate(270) translate(-36 17)" onmousedown="handlePan(-1,0)">
                  <use xlink:href="#rim" fill="#404040">
                        <set attributeName="fill" to="#808080" begin="arrowLeft.mouseover" end="arrowLeft.mouseout"/>
                  </use>
                  <path fill="none" stroke="white" stroke-width="1.5" d="M0,-3.0v7 M-2.5,-0.5L0,-3.0L2.5,-0.5"/>
                </g>
        </g>
        <svg viewBox="0 0 15 15" width="100%" height="30px" preserveAspectRatio="xMaxYMin meet">
         <g id="arrow_out" transform="scale(0.3 0.3)">
          <a xlink:href="LASymMatrix_8h__incl_org.svg" target="_base">
           <rect id="button" ry="5" rx="5" y="6" x="6" height="38" width="38"
                fill="#f2f5e9" fill-opacity="0.5" stroke="#606060" stroke-width="1.0"/>
           <path id="arrow"
             d="M 11.500037,31.436501 C 11.940474,20.09759 22.043105,11.32322 32.158766,21.979434 L 37.068811,17.246167 C 37.068811,17.246167 37.088388,32 37.088388,32 L 22.160133,31.978069 C 22.160133,31.978069 26.997745,27.140456 26.997745,27.140456 C 18.528582,18.264221 13.291696,25.230495 11.500037,31.436501 z"
             style="fill:#404040;"/>
          </a>
         </g>
        </svg>
</svg>
