<?xml version="1.0" encoding="UTF-8" standalone="no"?>
<!DOCTYPE svg PUBLIC "-//W3C//DTD SVG 1.1//EN"
 "http://www.w3.org/Graphics/SVG/1.1/DTD/svg11.dtd">
<!-- Generated by graphviz version 2.40.1 (0)
 -->
<!-- Title: core/dictgen/res/LinkdefReader.h Pages: 1 -->
<svg width="479pt" height="95pt"
 viewBox="0.00 0.00 478.50 95.00" xmlns="http://www.w3.org/2000/svg" xmlns:xlink="http://www.w3.org/1999/xlink">
<g id="graph0" class="graph" transform="scale(1 1) rotate(0) translate(4 91)">
<title>core/dictgen/res/LinkdefReader.h</title>
<polygon fill="#ffffff" stroke="transparent" points="-4,4 -4,-91 474.5,-91 474.5,4 -4,4"/>
<!-- Node0 -->
<g id="node1" class="node">
<title>Node0</title>
<polygon fill="#bfbfbf" stroke="#000000" points="122.5,-56.5 122.5,-86.5 256.5,-86.5 256.5,-56.5 122.5,-56.5"/>
<text text-anchor="start" x="130.5" y="-74.5" font-family="Helvetica,sans-Serif" font-size="10.00" fill="#000000">core/dictgen/res/Linkdef</text>
<text text-anchor="middle" x="189.5" y="-63.5" font-family="Helvetica,sans-Serif" font-size="10.00" fill="#000000">Reader.h</text>
</g>
<!-- Node1 -->
<g id="node2" class="node">
<title>Node1</title>
<polygon fill="#ffffff" stroke="#bfbfbf" points="0,-.5 0,-19.5 55,-19.5 55,-.5 0,-.5"/>
<text text-anchor="middle" x="27.5" y="-7.5" font-family="Helvetica,sans-Serif" font-size="10.00" fill="#000000">fstream</text>
</g>
<!-- Node0&#45;&gt;Node1 -->
<g id="edge1" class="edge">
<title>Node0&#45;&gt;Node1</title>
<path fill="none" stroke="#191970" d="M149.8703,-56.4554C122.9588,-46.239 87.7189,-32.8609 61.9706,-23.0861"/>
<polygon fill="#191970" stroke="#191970" points="63.1955,-19.8074 52.6043,-19.5303 60.711,-26.3517 63.1955,-19.8074"/>
</g>
<!-- Node2 -->
<g id="node3" class="node">
<title>Node2</title>
<polygon fill="#ffffff" stroke="#bfbfbf" points="73,-.5 73,-19.5 120,-19.5 120,-.5 73,-.5"/>
<text text-anchor="middle" x="96.5" y="-7.5" font-family="Helvetica,sans-Serif" font-size="10.00" fill="#000000">vector</text>
</g>
<!-- Node0&#45;&gt;Node2 -->
<g id="edge2" class="edge">
<title>Node0&#45;&gt;Node2</title>
<path fill="none" stroke="#191970" d="M166.5112,-56.2977C152.3034,-46.9022 134.1215,-34.8787 119.8475,-25.4395"/>
<polygon fill="#191970" stroke="#191970" points="121.3845,-22.2598 111.1128,-19.6633 117.5233,-28.0986 121.3845,-22.2598"/>
</g>
<!-- Node3 -->
<g id="node4" class="node">
<title>Node3</title>
<polygon fill="#ffffff" stroke="#bfbfbf" points="138.5,-.5 138.5,-19.5 182.5,-19.5 182.5,-.5 138.5,-.5"/>
<text text-anchor="middle" x="160.5" y="-7.5" font-family="Helvetica,sans-Serif" font-size="10.00" fill="#000000">string</text>
</g>
<!-- Node0&#45;&gt;Node3 -->
<g id="edge3" class="edge">
<title>Node0&#45;&gt;Node3</title>
<path fill="none" stroke="#191970" d="M182.3315,-56.2977C178.4318,-48.0277 173.572,-37.7215 169.4282,-28.9339"/>
<polygon fill="#191970" stroke="#191970" points="172.5741,-27.399 165.1433,-19.8469 166.2427,-30.3846 172.5741,-27.399"/>
</g>
<!-- Node4 -->
<g id="node5" class="node">
<title>Node4</title>
<polygon fill="#ffffff" stroke="#bfbfbf" points="200.5,-.5 200.5,-19.5 238.5,-19.5 238.5,-.5 200.5,-.5"/>
<text text-anchor="middle" x="219.5" y="-7.5" font-family="Helvetica,sans-Serif" font-size="10.00" fill="#000000">map</text>
</g>
<!-- Node0&#45;&gt;Node4 -->
<g id="edge4" class="edge">
<title>Node0&#45;&gt;Node4</title>
<path fill="none" stroke="#191970" d="M196.9157,-56.2977C200.9499,-48.0277 205.9773,-37.7215 210.264,-28.9339"/>
<polygon fill="#191970" stroke="#191970" points="213.458,-30.3691 214.6966,-19.8469 207.1666,-27.3001 213.458,-30.3691"/>
</g>
<!-- Node5 -->
<g id="node6" class="node">
<title>Node5</title>
<polygon fill="#ffffff" stroke="#bfbfbf" points="257,-.5 257,-19.5 374,-19.5 374,-.5 257,-.5"/>
<text text-anchor="middle" x="315.5" y="-7.5" font-family="Helvetica,sans-Serif" font-size="10.00" fill="#000000">llvm/ADT/StringRef.h</text>
</g>
<!-- Node0&#45;&gt;Node5 -->
<g id="edge5" class="edge">
<title>Node0&#45;&gt;Node5</title>
<path fill="none" stroke="#191970" d="M220.3231,-56.4554C240.6088,-46.554 266.9788,-33.683 286.8162,-24.0004"/>
<polygon fill="#191970" stroke="#191970" points="288.523,-27.062 295.9745,-19.5303 285.4526,-20.7714 288.523,-27.062"/>
</g>
<!-- Node6 -->
<g id="node7" class="node">
<title>Node6</title>
<polygon fill="#ffffff" stroke="#bfbfbf" points="392.5,-.5 392.5,-19.5 470.5,-19.5 470.5,-.5 392.5,-.5"/>
<text text-anchor="middle" x="431.5" y="-7.5" font-family="Helvetica,sans-Serif" font-size="10.00" fill="#000000">TClingUtils.h</text>
</g>
<!-- Node0&#45;&gt;Node6 -->
<g id="edge6" class="edge">
<title>Node0&#45;&gt;Node6</title>
<path fill="none" stroke="#191970" d="M248.6999,-56.4554C290.3179,-45.8789 345.2693,-31.914 384.0195,-22.0663"/>
<polygon fill="#191970" stroke="#191970" points="385.1687,-25.3856 393.9986,-19.5303 383.4446,-18.6012 385.1687,-25.3856"/>
</g>
</g>
</svg>
