<?xml version="1.0" encoding="UTF-8" standalone="no"?>
<!DOCTYPE svg PUBLIC "-//W3C//DTD SVG 1.1//EN"
 "http://www.w3.org/Graphics/SVG/1.1/DTD/svg11.dtd">
<!-- Generated by graphviz version 2.40.1 (0)
 -->
<!-- Title: core/base/src/Match.cxx Pages: 1 -->
<svg width="282pt" height="140pt"
 viewBox="0.00 0.00 282.00 140.00" xmlns="http://www.w3.org/2000/svg" xmlns:xlink="http://www.w3.org/1999/xlink">
<g id="graph0" class="graph" transform="scale(1 1) rotate(0) translate(4 136)">
<title>core/base/src/Match.cxx</title>
<polygon fill="#ffffff" stroke="transparent" points="-4,4 -4,-136 278,-136 278,4 -4,4"/>
<!-- Node0 -->
<g id="node1" class="node">
<title>Node0</title>
<polygon fill="#bfbfbf" stroke="#000000" points="63,-112.5 63,-131.5 197,-131.5 197,-112.5 63,-112.5"/>
<text text-anchor="middle" x="130" y="-119.5" font-family="Helvetica,sans-Serif" font-size="10.00" fill="#000000">core/base/src/Match.cxx</text>
</g>
<!-- Node1 -->
<g id="node2" class="node">
<title>Node1</title>
<polygon fill="#ffffff" stroke="#bfbfbf" points="0,-56.5 0,-75.5 50,-75.5 50,-56.5 0,-56.5"/>
<text text-anchor="middle" x="25" y="-63.5" font-family="Helvetica,sans-Serif" font-size="10.00" fill="#000000">stdio.h</text>
</g>
<!-- Node0&#45;&gt;Node1 -->
<g id="edge1" class="edge">
<title>Node0&#45;&gt;Node1</title>
<path fill="none" stroke="#191970" d="M111.7104,-112.2455C95.2238,-103.4527 70.7648,-90.4079 52.0235,-80.4125"/>
<polygon fill="#191970" stroke="#191970" points="53.5506,-77.2604 43.08,-75.6427 50.2565,-83.4368 53.5506,-77.2604"/>
</g>
<!-- Node2 -->
<g id="node3" class="node">
<title>Node2</title>
<polygon fill="#ffffff" stroke="#bfbfbf" points="68.5,-56.5 68.5,-75.5 121.5,-75.5 121.5,-56.5 68.5,-56.5"/>
<text text-anchor="middle" x="95" y="-63.5" font-family="Helvetica,sans-Serif" font-size="10.00" fill="#000000">ctype.h</text>
</g>
<!-- Node0&#45;&gt;Node2 -->
<g id="edge2" class="edge">
<title>Node0&#45;&gt;Node2</title>
<path fill="none" stroke="#191970" d="M123.9035,-112.2455C119.0855,-104.5367 112.2249,-93.5598 106.3968,-84.2348"/>
<polygon fill="#191970" stroke="#191970" points="109.2947,-82.2677 101.0267,-75.6427 103.3587,-85.9777 109.2947,-82.2677"/>
</g>
<!-- Node3 -->
<g id="node4" class="node">
<title>Node3</title>
<polygon fill="#ffffff" stroke="#bfbfbf" points="139.5,-56.5 139.5,-75.5 192.5,-75.5 192.5,-56.5 139.5,-56.5"/>
<text text-anchor="middle" x="166" y="-63.5" font-family="Helvetica,sans-Serif" font-size="10.00" fill="#000000">string.h</text>
</g>
<!-- Node0&#45;&gt;Node3 -->
<g id="edge3" class="edge">
<title>Node0&#45;&gt;Node3</title>
<path fill="none" stroke="#191970" d="M136.2707,-112.2455C141.2264,-104.5367 148.283,-93.5598 154.2776,-84.2348"/>
<polygon fill="#191970" stroke="#191970" points="157.3376,-85.9471 159.8011,-75.6427 151.4494,-82.1618 157.3376,-85.9471"/>
</g>
<!-- Node4 -->
<g id="node5" class="node">
<title>Node4</title>
<g id="a_node5"><a xlink:href="Match_8h.html" target="_top" xlink:title="Match.h">
<polygon fill="#ffffff" stroke="#000000" points="210.5,-56.5 210.5,-75.5 265.5,-75.5 265.5,-56.5 210.5,-56.5"/>
<text text-anchor="middle" x="238" y="-63.5" font-family="Helvetica,sans-Serif" font-size="10.00" fill="#000000">Match.h</text>
</a>
</g>
</g>
<!-- Node0&#45;&gt;Node4 -->
<g id="edge4" class="edge">
<title>Node0&#45;&gt;Node4</title>
<path fill="none" stroke="#191970" d="M148.8122,-112.2455C165.8473,-103.4125 191.1575,-90.2887 210.4681,-80.2758"/>
<polygon fill="#191970" stroke="#191970" points="212.137,-83.353 219.4034,-75.6427 208.9147,-77.1388 212.137,-83.353"/>
</g>
<!-- Node5 -->
<g id="node6" class="node">
<title>Node5</title>
<polygon fill="#ffffff" stroke="#bfbfbf" points="202,-.5 202,-19.5 274,-19.5 274,-.5 202,-.5"/>
<text text-anchor="middle" x="238" y="-7.5" font-family="Helvetica,sans-Serif" font-size="10.00" fill="#000000">sys/types.h</text>
</g>
<!-- Node4&#45;&gt;Node5 -->
<g id="edge5" class="edge">
<title>Node4&#45;&gt;Node5</title>
<path fill="none" stroke="#191970" d="M238,-56.2455C238,-48.9382 238,-38.6944 238,-29.7046"/>
<polygon fill="#191970" stroke="#191970" points="241.5001,-29.6426 238,-19.6427 234.5001,-29.6427 241.5001,-29.6426"/>
</g>
</g>
</svg>
