<?xml version="1.0" encoding="UTF-8" standalone="no"?>
<!DOCTYPE svg PUBLIC "-//W3C//DTD SVG 1.1//EN"
 "http://www.w3.org/Graphics/SVG/1.1/DTD/svg11.dtd">
<!-- Generated by graphviz version 2.40.1 (0)
 -->
<!-- Title: tmva/pymva/inc/TMVA/MethodPyRandomForest.h Pages: 1 -->
<svg width="196pt" height="106pt"
 viewBox="0.00 0.00 196.00 106.00" xmlns="http://www.w3.org/2000/svg" xmlns:xlink="http://www.w3.org/1999/xlink">
<g id="graph0" class="graph" transform="scale(1 1) rotate(0) translate(4 102)">
<title>tmva/pymva/inc/TMVA/MethodPyRandomForest.h</title>
<polygon fill="#ffffff" stroke="transparent" points="-4,4 -4,-102 192,-102 192,4 -4,4"/>
<!-- Node118 -->
<g id="node1" class="node">
<title>Node118</title>
<polygon fill="#bfbfbf" stroke="#000000" points="20.5,-67.5 20.5,-97.5 167.5,-97.5 167.5,-67.5 20.5,-67.5"/>
<text text-anchor="start" x="28.5" y="-85.5" font-family="Helvetica,sans-Serif" font-size="10.00" fill="#000000">tmva/pymva/inc/TMVA</text>
<text text-anchor="middle" x="94" y="-74.5" font-family="Helvetica,sans-Serif" font-size="10.00" fill="#000000">/MethodPyRandomForest.h</text>
</g>
<!-- Node119 -->
<g id="node2" class="node">
<title>Node119</title>
<g id="a_node2"><a xlink:href="MethodPyRandomForest_8cxx.html" target="_top" xlink:title="tmva/pymva/src/MethodPyRandom\lForest.cxx">
<polygon fill="#ffffff" stroke="#000000" points="0,-.5 0,-30.5 188,-30.5 188,-.5 0,-.5"/>
<text text-anchor="start" x="8" y="-18.5" font-family="Helvetica,sans-Serif" font-size="10.00" fill="#000000">tmva/pymva/src/MethodPyRandom</text>
<text text-anchor="middle" x="94" y="-7.5" font-family="Helvetica,sans-Serif" font-size="10.00" fill="#000000">Forest.cxx</text>
</a>
</g>
</g>
<!-- Node118&#45;&gt;Node119 -->
<g id="edge1" class="edge">
<title>Node118&#45;&gt;Node119</title>
<path fill="none" stroke="#191970" d="M94,-57.0249C94,-48.128 94,-38.4287 94,-30.6432"/>
<polygon fill="#191970" stroke="#191970" points="90.5001,-57.2966 94,-67.2967 97.5001,-57.2967 90.5001,-57.2966"/>
</g>
</g>
</svg>
