<?xml version="1.0" encoding="UTF-8" standalone="no"?>
<!DOCTYPE svg PUBLIC "-//W3C//DTD SVG 1.1//EN"
 "http://www.w3.org/Graphics/SVG/1.1/DTD/svg11.dtd">
<!-- Generated by graphviz version 2.40.1 (0)
 -->
<!-- Title: math/mathcore/inc/Math/MinimizerVariableTransformation.h Pages: 1 -->
<!--zoomable 307 -->
<svg id="main" version="1.1" xmlns="http://www.w3.org/2000/svg" xmlns:xlink="http://www.w3.org/1999/xlink" xml:space="preserve" onload="init(evt)">
<style type="text/css"><![CDATA[
.edge:hover path { stroke: red; }
.edge:hover polygon { stroke: red; fill: red; }
]]></style>
<script type="text/javascript"><![CDATA[
var edges = document.getElementsByTagName('g');
if (edges && edges.length) {
  for (var i=0;i<edges.length;i++) {
    if (edges[i].id.substr(0,4)=='edge') {
      edges[i].setAttribute('class','edge');
    }
  }
}
]]></script>
        <defs>
                <circle id="rim" cx="0" cy="0" r="7"/>
                <circle id="rim2" cx="0" cy="0" r="3.5"/>
                <g id="zoomPlus">
                        <use xlink:href="#rim" fill="#404040">
                                <set attributeName="fill" to="#808080" begin="zoomplus.mouseover" end="zoomplus.mouseout"/>
                        </use>
                        <path d="M-4,0h8M0,-4v8" fill="none" stroke="white" stroke-width="1.5" pointer-events="none"/>
                </g>
                <g id="zoomMin">
                        <use xlink:href="#rim" fill="#404040">
                                <set attributeName="fill" to="#808080" begin="zoomminus.mouseover" end="zoomminus.mouseout"/>
                        </use>
                        <path d="M-4,0h8" fill="none" stroke="white" stroke-width="1.5" pointer-events="none"/>
                </g>
                <g id="dirArrow">
                        <path fill="none" stroke="white" stroke-width="1.5" d="M0,-3.0v7 M-2.5,-0.5L0,-3.0L2.5,-0.5"/>
                </g>
               <g id="resetDef">
                       <use xlink:href="#rim2" fill="#404040">
                               <set attributeName="fill" to="#808080" begin="reset.mouseover" end="reset.mouseout"/>
                       </use>
               </g>
        </defs>

<script type="text/javascript">
var viewWidth = 1242;
var viewHeight = 307;
var sectionId = 'dynsection-0';
</script>
<script xlink:href="svgpan.js"/>
<svg id="graph" class="graph">
<g id="viewport">
<title>math/mathcore/inc/Math/MinimizerVariableTransformation.h</title>
<polygon fill="#ffffff" stroke="transparent" points="-4,4 -4,-303 1238,-303 1238,4 -4,4"/>
<!-- Node1 -->
<g id="node1" class="node">
<title>Node1</title>
<polygon fill="#bfbfbf" stroke="#000000" points="544.5,-268.5 544.5,-298.5 734.5,-298.5 734.5,-268.5 544.5,-268.5"/>
<text text-anchor="start" x="552.5" y="-286.5" font-family="Helvetica,sans-Serif" font-size="10.00" fill="#000000">math/mathcore/inc/Math</text>
<text text-anchor="middle" x="639.5" y="-275.5" font-family="Helvetica,sans-Serif" font-size="10.00" fill="#000000">/MinimizerVariableTransformation.h</text>
</g>
<!-- Node2 -->
<g id="node2" class="node">
<title>Node2</title>
<g id="a_node2"><a xlink:href="MinimTransformVariable_8h.html" target="_top" xlink:title="math/mathcore/inc/Math\l/MinimTransformVariable.h">
<polygon fill="#ffffff" stroke="#000000" points="480,-201.5 480,-231.5 627,-231.5 627,-201.5 480,-201.5"/>
<text text-anchor="start" x="488" y="-219.5" font-family="Helvetica,sans-Serif" font-size="10.00" fill="#000000">math/mathcore/inc/Math</text>
<text text-anchor="middle" x="553.5" y="-208.5" font-family="Helvetica,sans-Serif" font-size="10.00" fill="#000000">/MinimTransformVariable.h</text>
</a>
</g>
</g>
<!-- Node1&#45;&gt;Node2 -->
<g id="edge1" class="edge">
<title>Node1&#45;&gt;Node2</title>
<path fill="none" stroke="#191970" d="M611.9855,-262.0643C599.2696,-252.1577 584.4684,-240.6265 572.9375,-231.6432"/>
<polygon fill="#191970" stroke="#191970" points="609.9456,-264.9119 619.9853,-268.2967 614.2477,-259.3899 609.9456,-264.9119"/>
</g>
<!-- Node15 -->
<g id="node15" class="node">
<title>Node15</title>
<g id="a_node15"><a xlink:href="MinimizerVariableTransformation_8cxx.html" target="_top" xlink:title="math/mathcore/src/Minimizer\lVariableTransformation.cxx">
<polygon fill="#ffffff" stroke="#000000" points="645.5,-201.5 645.5,-231.5 805.5,-231.5 805.5,-201.5 645.5,-201.5"/>
<text text-anchor="start" x="653.5" y="-219.5" font-family="Helvetica,sans-Serif" font-size="10.00" fill="#000000">math/mathcore/src/Minimizer</text>
<text text-anchor="middle" x="725.5" y="-208.5" font-family="Helvetica,sans-Serif" font-size="10.00" fill="#000000">VariableTransformation.cxx</text>
</a>
</g>
</g>
<!-- Node1&#45;&gt;Node15 -->
<g id="edge20" class="edge">
<title>Node1&#45;&gt;Node15</title>
<path fill="none" stroke="#191970" d="M667.0145,-262.0643C679.7304,-252.1577 694.5316,-240.6265 706.0625,-231.6432"/>
<polygon fill="#191970" stroke="#191970" points="664.7523,-259.3899 659.0147,-268.2967 669.0544,-264.9119 664.7523,-259.3899"/>
</g>
<!-- Node3 -->
<g id="node3" class="node">
<title>Node3</title>
<g id="a_node3"><a xlink:href="BasicMinimizer_8h.html" target="_top" xlink:title="math/mathcore/inc/Math\l/BasicMinimizer.h">
<polygon fill="#ffffff" stroke="#000000" points="690.5,-134.5 690.5,-164.5 826.5,-164.5 826.5,-134.5 690.5,-134.5"/>
<text text-anchor="start" x="698.5" y="-152.5" font-family="Helvetica,sans-Serif" font-size="10.00" fill="#000000">math/mathcore/inc/Math</text>
<text text-anchor="middle" x="758.5" y="-141.5" font-family="Helvetica,sans-Serif" font-size="10.00" fill="#000000">/BasicMinimizer.h</text>
</a>
</g>
</g>
<!-- Node2&#45;&gt;Node3 -->
<g id="edge2" class="edge">
<title>Node2&#45;&gt;Node3</title>
<path fill="none" stroke="#191970" d="M609.2603,-198.2759C641.5689,-187.7165 681.7612,-174.5805 712.2933,-164.6017"/>
<polygon fill="#191970" stroke="#191970" points="607.9239,-195.0304 599.506,-201.4639 610.0986,-201.6841 607.9239,-195.0304"/>
</g>
<!-- Node7 -->
<g id="node7" class="node">
<title>Node7</title>
<g id="a_node7"><a xlink:href="GSLNLSMinimizer_8h.html" target="_top" xlink:title="math/mathmore/inc/Math\l/GSLNLSMinimizer.h">
<polygon fill="#ffffff" stroke="#000000" points="321.5,-67.5 321.5,-97.5 461.5,-97.5 461.5,-67.5 321.5,-67.5"/>
<text text-anchor="start" x="329.5" y="-85.5" font-family="Helvetica,sans-Serif" font-size="10.00" fill="#000000">math/mathmore/inc/Math</text>
<text text-anchor="middle" x="391.5" y="-74.5" font-family="Helvetica,sans-Serif" font-size="10.00" fill="#000000">/GSLNLSMinimizer.h</text>
</a>
</g>
</g>
<!-- Node2&#45;&gt;Node7 -->
<g id="edge19" class="edge">
<title>Node2&#45;&gt;Node7</title>
<path fill="none" stroke="#191970" d="M527.3869,-194.9003C494.4786,-167.6798 438.7468,-121.5807 409.9503,-97.7614"/>
<polygon fill="#191970" stroke="#191970" points="525.2951,-197.7122 535.2314,-201.389 529.7567,-192.3183 525.2951,-197.7122"/>
</g>
<!-- Node13 -->
<g id="node13" class="node">
<title>Node13</title>
<g id="a_node13"><a xlink:href="MinimTransformFunction_8h.html" target="_top" xlink:title="math/mathcore/inc/Math\l/MinimTransformFunction.h">
<polygon fill="#ffffff" stroke="#000000" points="479.5,-67.5 479.5,-97.5 627.5,-97.5 627.5,-67.5 479.5,-67.5"/>
<text text-anchor="start" x="487.5" y="-85.5" font-family="Helvetica,sans-Serif" font-size="10.00" fill="#000000">math/mathcore/inc/Math</text>
<text text-anchor="middle" x="553.5" y="-74.5" font-family="Helvetica,sans-Serif" font-size="10.00" fill="#000000">/MinimTransformFunction.h</text>
</a>
</g>
</g>
<!-- Node2&#45;&gt;Node13 -->
<g id="edge13" class="edge">
<title>Node2&#45;&gt;Node13</title>
<path fill="none" stroke="#191970" d="M553.5,-191.3415C553.5,-163.8131 553.5,-120.5714 553.5,-97.7614"/>
<polygon fill="#191970" stroke="#191970" points="550.0001,-191.3889 553.5,-201.389 557.0001,-191.389 550.0001,-191.3889"/>
</g>
<!-- Node4 -->
<g id="node4" class="node">
<title>Node4</title>
<g id="a_node4"><a xlink:href="BasicMinimizer_8cxx.html" target="_top" xlink:title="math/mathcore/src/BasicMinimizer.cxx">
<polygon fill="#ffffff" stroke="#000000" points="448.5,-6 448.5,-25 654.5,-25 654.5,-6 448.5,-6"/>
<text text-anchor="middle" x="551.5" y="-13" font-family="Helvetica,sans-Serif" font-size="10.00" fill="#000000">math/mathcore/src/BasicMinimizer.cxx</text>
</a>
</g>
</g>
<!-- Node3&#45;&gt;Node4 -->
<g id="edge3" class="edge">
<title>Node3&#45;&gt;Node4</title>
<path fill="none" stroke="#191970" d="M726.2264,-128.9468C711.8232,-119.6499 694.7063,-108.4294 679.5,-98 660.0709,-84.6744 656.1462,-80.0035 636.5,-67 613.3352,-51.6676 585.6879,-35.251 568.3585,-25.1783"/>
<polygon fill="#191970" stroke="#191970" points="724.4985,-131.9969 734.8024,-134.4626 728.2851,-126.1094 724.4985,-131.9969"/>
</g>
<!-- Node5 -->
<g id="node5" class="node">
<title>Node5</title>
<g id="a_node5"><a xlink:href="GSLMinimizer_8h.html" target="_top" xlink:title="math/mathmore/inc/Math\l/GSLMinimizer.h">
<polygon fill="#ffffff" stroke="#000000" points="688.5,-67.5 688.5,-97.5 828.5,-97.5 828.5,-67.5 688.5,-67.5"/>
<text text-anchor="start" x="696.5" y="-85.5" font-family="Helvetica,sans-Serif" font-size="10.00" fill="#000000">math/mathmore/inc/Math</text>
<text text-anchor="middle" x="758.5" y="-74.5" font-family="Helvetica,sans-Serif" font-size="10.00" fill="#000000">/GSLMinimizer.h</text>
</a>
</g>
</g>
<!-- Node3&#45;&gt;Node5 -->
<g id="edge4" class="edge">
<title>Node3&#45;&gt;Node5</title>
<path fill="none" stroke="#191970" d="M758.5,-124.0249C758.5,-115.128 758.5,-105.4287 758.5,-97.6432"/>
<polygon fill="#191970" stroke="#191970" points="755.0001,-124.2966 758.5,-134.2967 762.0001,-124.2967 755.0001,-124.2966"/>
</g>
<!-- Node3&#45;&gt;Node7 -->
<g id="edge6" class="edge">
<title>Node3&#45;&gt;Node7</title>
<path fill="none" stroke="#191970" d="M680.1746,-135.86C622.2207,-125.6785 541.3787,-111.2896 470.5,-98 467.6151,-97.4591 464.672,-96.9026 461.6995,-96.3368"/>
<polygon fill="#191970" stroke="#191970" points="679.9043,-139.366 690.3588,-137.6472 681.1144,-132.4713 679.9043,-139.366"/>
</g>
<!-- Node9 -->
<g id="node9" class="node">
<title>Node9</title>
<g id="a_node9"><a xlink:href="GSLSimAnMinimizer_8h.html" target="_top" xlink:title="math/mathmore/inc/Math\l/GSLSimAnMinimizer.h">
<polygon fill="#ffffff" stroke="#000000" points="846.5,-67.5 846.5,-97.5 986.5,-97.5 986.5,-67.5 846.5,-67.5"/>
<text text-anchor="start" x="854.5" y="-85.5" font-family="Helvetica,sans-Serif" font-size="10.00" fill="#000000">math/mathmore/inc/Math</text>
<text text-anchor="middle" x="916.5" y="-74.5" font-family="Helvetica,sans-Serif" font-size="10.00" fill="#000000">/GSLSimAnMinimizer.h</text>
</a>
</g>
</g>
<!-- Node3&#45;&gt;Node9 -->
<g id="edge8" class="edge">
<title>Node3&#45;&gt;Node9</title>
<path fill="none" stroke="#191970" d="M803.4202,-130.4516C827.9748,-120.0392 857.9636,-107.3224 880.8871,-97.6017"/>
<polygon fill="#191970" stroke="#191970" points="801.7983,-127.3376 793.9583,-134.4639 804.5312,-133.7821 801.7983,-127.3376"/>
</g>
<!-- Node11 -->
<g id="node11" class="node">
<title>Node11</title>
<g id="a_node11"><a xlink:href="RMinimizer_8h.html" target="_top" xlink:title="math/rtools/inc/Math\l/RMinimizer.h">
<polygon fill="#ffffff" stroke="#000000" points="1005,-67.5 1005,-97.5 1122,-97.5 1122,-67.5 1005,-67.5"/>
<text text-anchor="start" x="1013" y="-85.5" font-family="Helvetica,sans-Serif" font-size="10.00" fill="#000000">math/rtools/inc/Math</text>
<text text-anchor="middle" x="1063.5" y="-74.5" font-family="Helvetica,sans-Serif" font-size="10.00" fill="#000000">/RMinimizer.h</text>
</a>
</g>
</g>
<!-- Node3&#45;&gt;Node11 -->
<g id="edge10" class="edge">
<title>Node3&#45;&gt;Node11</title>
<path fill="none" stroke="#191970" d="M836.682,-132.7195C882.9018,-122.7471 942.5635,-109.7844 995.5,-98 998.573,-97.3159 1001.7231,-96.6109 1004.9031,-95.8963"/>
<polygon fill="#191970" stroke="#191970" points="835.7705,-129.3355 826.7329,-134.8647 837.246,-136.1782 835.7705,-129.3355"/>
</g>
<!-- Node12 -->
<g id="node12" class="node">
<title>Node12</title>
<g id="a_node12"><a xlink:href="RMinimizer_8cxx.html" target="_top" xlink:title="math/rtools/src/RMinimizer.cxx">
<polygon fill="#ffffff" stroke="#000000" points="1067,-6 1067,-25 1234,-25 1234,-6 1067,-6"/>
<text text-anchor="middle" x="1150.5" y="-13" font-family="Helvetica,sans-Serif" font-size="10.00" fill="#000000">math/rtools/src/RMinimizer.cxx</text>
</a>
</g>
</g>
<!-- Node3&#45;&gt;Node12 -->
<g id="edge12" class="edge">
<title>Node3&#45;&gt;Node12</title>
<path fill="none" stroke="#191970" d="M836.8624,-143.4064C939.8188,-134.6881 1110.1421,-117.5338 1131.5,-98 1152.2154,-79.0538 1152.596,-42.4548 1151.4538,-25.0908"/>
<polygon fill="#191970" stroke="#191970" points="836.4819,-139.9259 826.8092,-144.2491 837.0667,-146.9015 836.4819,-139.9259"/>
</g>
<!-- Node6 -->
<g id="node6" class="node">
<title>Node6</title>
<g id="a_node6"><a xlink:href="GSLMinimizer_8cxx.html" target="_top" xlink:title="math/mathmore/src/GSLMinimizer.cxx">
<polygon fill="#ffffff" stroke="#000000" points="673,-6 673,-25 876,-25 876,-6 673,-6"/>
<text text-anchor="middle" x="774.5" y="-13" font-family="Helvetica,sans-Serif" font-size="10.00" fill="#000000">math/mathmore/src/GSLMinimizer.cxx</text>
</a>
</g>
</g>
<!-- Node5&#45;&gt;Node6 -->
<g id="edge5" class="edge">
<title>Node5&#45;&gt;Node6</title>
<path fill="none" stroke="#191970" d="M764.4782,-57.4663C767.1769,-46.1655 770.2041,-33.4891 772.2182,-25.055"/>
<polygon fill="#191970" stroke="#191970" points="761.0492,-56.7572 762.1306,-67.2967 767.8577,-58.3831 761.0492,-56.7572"/>
</g>
<!-- Node8 -->
<g id="node8" class="node">
<title>Node8</title>
<g id="a_node8"><a xlink:href="GSLNLSMinimizer_8cxx.html" target="_top" xlink:title="math/mathmore/src/GSLNLSMinimizer.cxx">
<polygon fill="#ffffff" stroke="#000000" points="0,-6 0,-25 221,-25 221,-6 0,-6"/>
<text text-anchor="middle" x="110.5" y="-13" font-family="Helvetica,sans-Serif" font-size="10.00" fill="#000000">math/mathmore/src/GSLNLSMinimizer.cxx</text>
</a>
</g>
</g>
<!-- Node7&#45;&gt;Node8 -->
<g id="edge7" class="edge">
<title>Node7&#45;&gt;Node8</title>
<path fill="none" stroke="#191970" d="M318.6302,-65.1254C264.9703,-52.331 194.026,-35.4155 150.3655,-25.0053"/>
<polygon fill="#191970" stroke="#191970" points="317.899,-68.5491 328.4381,-67.4639 319.5226,-61.7399 317.899,-68.5491"/>
</g>
<!-- Node10 -->
<g id="node10" class="node">
<title>Node10</title>
<g id="a_node10"><a xlink:href="GSLSimAnMinimizer_8cxx.html" target="_top" xlink:title="math/mathmore/src/GSLSim\lAnMinimizer.cxx">
<polygon fill="#ffffff" stroke="#000000" points="894.5,-.5 894.5,-30.5 1048.5,-30.5 1048.5,-.5 894.5,-.5"/>
<text text-anchor="start" x="902.5" y="-18.5" font-family="Helvetica,sans-Serif" font-size="10.00" fill="#000000">math/mathmore/src/GSLSim</text>
<text text-anchor="middle" x="971.5" y="-7.5" font-family="Helvetica,sans-Serif" font-size="10.00" fill="#000000">AnMinimizer.cxx</text>
</a>
</g>
</g>
<!-- Node9&#45;&gt;Node10 -->
<g id="edge9" class="edge">
<title>Node9&#45;&gt;Node10</title>
<path fill="none" stroke="#191970" d="M935.503,-59.3509C943.3037,-49.8482 952.116,-39.1132 959.069,-30.6432"/>
<polygon fill="#191970" stroke="#191970" points="932.6201,-57.3466 928.9804,-67.2967 938.0306,-61.7881 932.6201,-57.3466"/>
</g>
<!-- Node11&#45;&gt;Node12 -->
<g id="edge11" class="edge">
<title>Node11&#45;&gt;Node12</title>
<path fill="none" stroke="#191970" d="M1091.578,-60.8767C1107.264,-48.7967 1126.0234,-34.3498 1138.0928,-25.055"/>
<polygon fill="#191970" stroke="#191970" points="1089.029,-58.4221 1083.2416,-67.2967 1093.3001,-63.9681 1089.029,-58.4221"/>
</g>
<!-- Node13&#45;&gt;Node4 -->
<g id="edge14" class="edge">
<title>Node13&#45;&gt;Node4</title>
<path fill="none" stroke="#191970" d="M552.7424,-57.1199C552.4077,-45.9072 552.0344,-33.4031 551.7852,-25.055"/>
<polygon fill="#191970" stroke="#191970" points="549.2493,-57.4056 553.0462,-67.2967 556.2461,-57.1967 549.2493,-57.4056"/>
</g>
<!-- Node13&#45;&gt;Node6 -->
<g id="edge16" class="edge">
<title>Node13&#45;&gt;Node6</title>
<path fill="none" stroke="#191970" d="M612.9228,-64.4849C654.8589,-51.7713 709.3786,-35.2427 743.1467,-25.0053"/>
<polygon fill="#191970" stroke="#191970" points="611.6511,-61.2131 603.0967,-67.4639 613.6821,-67.912 611.6511,-61.2131"/>
</g>
<!-- Node13&#45;&gt;Node8 -->
<g id="edge17" class="edge">
<title>Node13&#45;&gt;Node8</title>
<path fill="none" stroke="#191970" d="M469.1696,-66.8182C364.1422,-49.6584 253.9288,-34.408 183.3827,-25.0009"/>
<polygon fill="#191970" stroke="#191970" points="468.8808,-70.3176 479.3158,-68.4846 470.0153,-63.4101 468.8808,-70.3176"/>
</g>
<!-- Node13&#45;&gt;Node10 -->
<g id="edge18" class="edge">
<title>Node13&#45;&gt;Node10</title>
<path fill="none" stroke="#191970" d="M637.5973,-69.9365C704.5479,-59.8089 800.6099,-44.9974 884.5,-31 887.6779,-30.4698 890.9198,-29.9222 894.194,-29.3637"/>
<polygon fill="#191970" stroke="#191970" points="636.8874,-66.504 627.5224,-71.4584 637.933,-73.4254 636.8874,-66.504"/>
</g>
<!-- Node14 -->
<g id="node14" class="node">
<title>Node14</title>
<g id="a_node14"><a xlink:href="MinimTransformFunction_8cxx.html" target="_top" xlink:title="math/mathcore/src/MinimTransform\lFunction.cxx">
<polygon fill="#ffffff" stroke="#000000" points="239,-.5 239,-30.5 430,-30.5 430,-.5 239,-.5"/>
<text text-anchor="start" x="247" y="-18.5" font-family="Helvetica,sans-Serif" font-size="10.00" fill="#000000">math/mathcore/src/MinimTransform</text>
<text text-anchor="middle" x="334.5" y="-7.5" font-family="Helvetica,sans-Serif" font-size="10.00" fill="#000000">Function.cxx</text>
</a>
</g>
</g>
<!-- Node13&#45;&gt;Node14 -->
<g id="edge15" class="edge">
<title>Node13&#45;&gt;Node14</title>
<path fill="none" stroke="#191970" d="M494.3776,-64.4123C459.787,-53.8298 416.6201,-40.6235 383.8622,-30.6017"/>
<polygon fill="#191970" stroke="#191970" points="493.7657,-67.8852 504.3521,-67.4639 495.8136,-61.1914 493.7657,-67.8852"/>
</g>
</g>
</svg>
        <g id="navigator" transform="translate(0 0)" fill="#404254">
                <rect fill="#f2f5e9" fill-opacity="0.5" stroke="#606060" stroke-width=".5" x="0" y="0" width="60" height="60"/>
                <use id="zoomplus" xlink:href="#zoomPlus" x="17" y="9" onmousedown="handleZoom(evt,'in')"/>
                <use id="zoomminus" xlink:href="#zoomMin" x="42" y="9" onmousedown="handleZoom(evt,'out')"/>
                <use id="reset" xlink:href="#resetDef" x="30" y="36" onmousedown="handleReset()"/>
                <g id="arrowUp" xlink:href="#dirArrow" transform="translate(30 24)" onmousedown="handlePan(0,-1)">
                  <use xlink:href="#rim" fill="#404040">
                        <set attributeName="fill" to="#808080" begin="arrowUp.mouseover" end="arrowUp.mouseout"/>
                  </use>
                  <path fill="none" stroke="white" stroke-width="1.5" d="M0,-3.0v7 M-2.5,-0.5L0,-3.0L2.5,-0.5"/>
                </g>
                <g id="arrowRight" xlink:href="#dirArrow" transform="rotate(90) translate(36 -43)" onmousedown="handlePan(1,0)">
                  <use xlink:href="#rim" fill="#404040">
                        <set attributeName="fill" to="#808080" begin="arrowRight.mouseover" end="arrowRight.mouseout"/>
                  </use>
                  <path fill="none" stroke="white" stroke-width="1.5" d="M0,-3.0v7 M-2.5,-0.5L0,-3.0L2.5,-0.5"/>
                </g>
                <g id="arrowDown" xlink:href="#dirArrow" transform="rotate(180) translate(-30 -48)" onmousedown="handlePan(0,1)">
                  <use xlink:href="#rim" fill="#404040">
                        <set attributeName="fill" to="#808080" begin="arrowDown.mouseover" end="arrowDown.mouseout"/>
                  </use>
                  <path fill="none" stroke="white" stroke-width="1.5" d="M0,-3.0v7 M-2.5,-0.5L0,-3.0L2.5,-0.5"/>
                </g>
                <g id="arrowLeft" xlink:href="#dirArrow" transform="rotate(270) translate(-36 17)" onmousedown="handlePan(-1,0)">
                  <use xlink:href="#rim" fill="#404040">
                        <set attributeName="fill" to="#808080" begin="arrowLeft.mouseover" end="arrowLeft.mouseout"/>
                  </use>
                  <path fill="none" stroke="white" stroke-width="1.5" d="M0,-3.0v7 M-2.5,-0.5L0,-3.0L2.5,-0.5"/>
                </g>
        </g>
        <svg viewBox="0 0 15 15" width="100%" height="30px" preserveAspectRatio="xMaxYMin meet">
         <g id="arrow_out" transform="scale(0.3 0.3)">
          <a xlink:href="MinimizerVariableTransformation_8h__dep__incl_org.svg" target="_base">
           <rect id="button" ry="5" rx="5" y="6" x="6" height="38" width="38"
                fill="#f2f5e9" fill-opacity="0.5" stroke="#606060" stroke-width="1.0"/>
           <path id="arrow"
             d="M 11.500037,31.436501 C 11.940474,20.09759 22.043105,11.32322 32.158766,21.979434 L 37.068811,17.246167 C 37.068811,17.246167 37.088388,32 37.088388,32 L 22.160133,31.978069 C 22.160133,31.978069 26.997745,27.140456 26.997745,27.140456 C 18.528582,18.264221 13.291696,25.230495 11.500037,31.436501 z"
             style="fill:#404040;"/>
          </a>
         </g>
        </svg>
</svg>
