<?xml version="1.0" encoding="UTF-8" standalone="no"?>
<!DOCTYPE svg PUBLIC "-//W3C//DTD SVG 1.1//EN"
 "http://www.w3.org/Graphics/SVG/1.1/DTD/svg11.dtd">
<!-- Generated by graphviz version 2.40.1 (0)
 -->
<!-- Title: tmva/tmva/inc/TMVA/DNN/Minimizers.h Pages: 1 -->
<svg width="531pt" height="173pt"
 viewBox="0.00 0.00 530.50 173.00" xmlns="http://www.w3.org/2000/svg" xmlns:xlink="http://www.w3.org/1999/xlink">
<g id="graph0" class="graph" transform="scale(1 1) rotate(0) translate(4 169)">
<title>tmva/tmva/inc/TMVA/DNN/Minimizers.h</title>
<polygon fill="#ffffff" stroke="transparent" points="-4,4 -4,-169 526.5,-169 526.5,4 -4,4"/>
<!-- Node67 -->
<g id="node1" class="node">
<title>Node67</title>
<polygon fill="#bfbfbf" stroke="#000000" points="210,-134.5 210,-164.5 328,-164.5 328,-134.5 210,-134.5"/>
<text text-anchor="start" x="218" y="-152.5" font-family="Helvetica,sans-Serif" font-size="10.00" fill="#000000">tmva/tmva/inc/TMVA</text>
<text text-anchor="middle" x="269" y="-141.5" font-family="Helvetica,sans-Serif" font-size="10.00" fill="#000000">/DNN/Minimizers.h</text>
</g>
<!-- Node68 -->
<g id="node2" class="node">
<title>Node68</title>
<g id="a_node2"><a xlink:href="MethodDNN_8h.html" target="_top" xlink:title="tmva/tmva/inc/TMVA\l/MethodDNN.h">
<polygon fill="#ffffff" stroke="#000000" points="210,-67.5 210,-97.5 328,-97.5 328,-67.5 210,-67.5"/>
<text text-anchor="start" x="218" y="-85.5" font-family="Helvetica,sans-Serif" font-size="10.00" fill="#000000">tmva/tmva/inc/TMVA</text>
<text text-anchor="middle" x="269" y="-74.5" font-family="Helvetica,sans-Serif" font-size="10.00" fill="#000000">/MethodDNN.h</text>
</a>
</g>
</g>
<!-- Node67&#45;&gt;Node68 -->
<g id="edge1" class="edge">
<title>Node67&#45;&gt;Node68</title>
<path fill="none" stroke="#191970" d="M269,-124.0249C269,-115.128 269,-105.4287 269,-97.6432"/>
<polygon fill="#191970" stroke="#191970" points="265.5001,-124.2966 269,-134.2967 272.5001,-124.2967 265.5001,-124.2966"/>
</g>
<!-- Node69 -->
<g id="node3" class="node">
<title>Node69</title>
<g id="a_node3"><a xlink:href="MethodDNN_8cxx.html" target="_top" xlink:title="tmva/tmva/src/MethodDNN.cxx">
<polygon fill="#ffffff" stroke="#000000" points="0,-6 0,-25 170,-25 170,-6 0,-6"/>
<text text-anchor="middle" x="85" y="-13" font-family="Helvetica,sans-Serif" font-size="10.00" fill="#000000">tmva/tmva/src/MethodDNN.cxx</text>
</a>
</g>
</g>
<!-- Node68&#45;&gt;Node69 -->
<g id="edge2" class="edge">
<title>Node68&#45;&gt;Node69</title>
<path fill="none" stroke="#191970" d="M218.1949,-64.0003C183.4643,-51.3538 138.8628,-35.1131 111.1041,-25.0053"/>
<polygon fill="#191970" stroke="#191970" points="217.1128,-67.3311 227.7068,-67.4639 219.5079,-60.7535 217.1128,-67.3311"/>
</g>
<!-- Node70 -->
<g id="node4" class="node">
<title>Node70</title>
<g id="a_node4"><a xlink:href="NeuralNet_8cxx.html" target="_top" xlink:title="tmva/tmva/src/NeuralNet.cxx">
<polygon fill="#ffffff" stroke="#000000" points="188.5,-6 188.5,-25 349.5,-25 349.5,-6 188.5,-6"/>
<text text-anchor="middle" x="269" y="-13" font-family="Helvetica,sans-Serif" font-size="10.00" fill="#000000">tmva/tmva/src/NeuralNet.cxx</text>
</a>
</g>
</g>
<!-- Node68&#45;&gt;Node70 -->
<g id="edge3" class="edge">
<title>Node68&#45;&gt;Node70</title>
<path fill="none" stroke="#191970" d="M269,-57.1199C269,-45.9072 269,-33.4031 269,-25.055"/>
<polygon fill="#191970" stroke="#191970" points="265.5001,-57.2966 269,-67.2967 272.5001,-57.2967 265.5001,-57.2966"/>
</g>
<!-- Node71 -->
<g id="node5" class="node">
<title>Node71</title>
<g id="a_node5"><a xlink:href="VarTransformHandler_8cxx.html" target="_top" xlink:title="tmva/tmva/src/VarTransform\lHandler.cxx">
<polygon fill="#ffffff" stroke="#000000" points="367.5,-.5 367.5,-30.5 522.5,-30.5 522.5,-.5 367.5,-.5"/>
<text text-anchor="start" x="375.5" y="-18.5" font-family="Helvetica,sans-Serif" font-size="10.00" fill="#000000">tmva/tmva/src/VarTransform</text>
<text text-anchor="middle" x="445" y="-7.5" font-family="Helvetica,sans-Serif" font-size="10.00" fill="#000000">Handler.cxx</text>
</a>
</g>
</g>
<!-- Node68&#45;&gt;Node71 -->
<g id="edge4" class="edge">
<title>Node68&#45;&gt;Node71</title>
<path fill="none" stroke="#191970" d="M317.9516,-63.865C345.5014,-53.3773 379.4559,-40.4515 405.3299,-30.6017"/>
<polygon fill="#191970" stroke="#191970" points="316.5983,-60.6351 308.4978,-67.4639 319.0888,-67.1771 316.5983,-60.6351"/>
</g>
</g>
</svg>
