<?xml version="1.0" encoding="UTF-8" standalone="no"?>
<!DOCTYPE svg PUBLIC "-//W3C//DTD SVG 1.1//EN"
 "http://www.w3.org/Graphics/SVG/1.1/DTD/svg11.dtd">
<!-- Generated by graphviz version 2.40.1 (0)
 -->
<!-- Title: math/minuit2/inc/Minuit2/MinimumSeedGenerator.h Pages: 1 -->
<svg width="1635pt" height="374pt"
 viewBox="0.00 0.00 1635.00 374.00" xmlns="http://www.w3.org/2000/svg" xmlns:xlink="http://www.w3.org/1999/xlink">
<g id="graph0" class="graph" transform="scale(1 1) rotate(0) translate(4 370)">
<title>math/minuit2/inc/Minuit2/MinimumSeedGenerator.h</title>
<polygon fill="#ffffff" stroke="transparent" points="-4,4 -4,-370 1631,-370 1631,4 -4,4"/>
<!-- Node1 -->
<g id="node1" class="node">
<title>Node1</title>
<polygon fill="#bfbfbf" stroke="#000000" points="978.5,-335.5 978.5,-365.5 1124.5,-365.5 1124.5,-335.5 978.5,-335.5"/>
<text text-anchor="start" x="986.5" y="-353.5" font-family="Helvetica,sans-Serif" font-size="10.00" fill="#000000">math/minuit2/inc/Minuit2</text>
<text text-anchor="middle" x="1051.5" y="-342.5" font-family="Helvetica,sans-Serif" font-size="10.00" fill="#000000">/MinimumSeedGenerator.h</text>
</g>
<!-- Node2 -->
<g id="node2" class="node">
<title>Node2</title>
<g id="a_node2"><a xlink:href="MnSeedGenerator_8h.html" target="_top" xlink:title="math/minuit2/inc/Minuit2\l/MnSeedGenerator.h">
<polygon fill="#ffffff" stroke="#000000" points="542,-268.5 542,-298.5 681,-298.5 681,-268.5 542,-268.5"/>
<text text-anchor="start" x="550" y="-286.5" font-family="Helvetica,sans-Serif" font-size="10.00" fill="#000000">math/minuit2/inc/Minuit2</text>
<text text-anchor="middle" x="611.5" y="-275.5" font-family="Helvetica,sans-Serif" font-size="10.00" fill="#000000">/MnSeedGenerator.h</text>
</a>
</g>
</g>
<!-- Node1&#45;&gt;Node2 -->
<g id="edge1" class="edge">
<title>Node1&#45;&gt;Node2</title>
<path fill="none" stroke="#191970" d="M968.4433,-337.8527C885.4095,-325.2089 759.1648,-305.9853 681.1908,-294.112"/>
<polygon fill="#191970" stroke="#191970" points="967.9361,-341.3158 978.349,-339.3611 968.9899,-334.3955 967.9361,-341.3158"/>
</g>
<!-- Node9 -->
<g id="node9" class="node">
<title>Node9</title>
<g id="a_node9"><a xlink:href="FumiliMinimizer_8cxx.html" target="_top" xlink:title="math/minuit2/src/FumiliMinimizer.cxx">
<polygon fill="#ffffff" stroke="#000000" points="1013.5,-140 1013.5,-159 1213.5,-159 1213.5,-140 1013.5,-140"/>
<text text-anchor="middle" x="1113.5" y="-147" font-family="Helvetica,sans-Serif" font-size="10.00" fill="#000000">math/minuit2/src/FumiliMinimizer.cxx</text>
</a>
</g>
</g>
<!-- Node1&#45;&gt;Node9 -->
<g id="edge31" class="edge">
<title>Node1&#45;&gt;Node9</title>
<path fill="none" stroke="#191970" d="M1034.8303,-326.6821C1029.8823,-318.3171 1025.0945,-308.6025 1022.5,-299 1011.1386,-256.95 999.4712,-238.5768 1021.5,-201 1033.9047,-179.84 1058.53,-166.7216 1079.1838,-159.0237"/>
<polygon fill="#191970" stroke="#191970" points="1031.8773,-328.5611 1040.1661,-335.1601 1037.8017,-324.8325 1031.8773,-328.5611"/>
</g>
<!-- Node17 -->
<g id="node17" class="node">
<title>Node17</title>
<g id="a_node17"><a xlink:href="SimplexSeedGenerator_8h.html" target="_top" xlink:title="math/minuit2/inc/Minuit2\l/SimplexSeedGenerator.h">
<polygon fill="#ffffff" stroke="#000000" points="1031.5,-268.5 1031.5,-298.5 1171.5,-298.5 1171.5,-268.5 1031.5,-268.5"/>
<text text-anchor="start" x="1039.5" y="-286.5" font-family="Helvetica,sans-Serif" font-size="10.00" fill="#000000">math/minuit2/inc/Minuit2</text>
<text text-anchor="middle" x="1101.5" y="-275.5" font-family="Helvetica,sans-Serif" font-size="10.00" fill="#000000">/SimplexSeedGenerator.h</text>
</a>
</g>
</g>
<!-- Node1&#45;&gt;Node17 -->
<g id="edge21" class="edge">
<title>Node1&#45;&gt;Node17</title>
<path fill="none" stroke="#191970" d="M1068.9906,-327.0626C1076.0287,-317.6315 1083.9421,-307.0276 1090.1991,-298.6432"/>
<polygon fill="#191970" stroke="#191970" points="1066.0216,-325.189 1062.8458,-335.2967 1071.6317,-329.3756 1066.0216,-325.189"/>
</g>
<!-- Node24 -->
<g id="node24" class="node">
<title>Node24</title>
<g id="a_node24"><a xlink:href="ModularFunctionMinimizer_8cxx.html" target="_top" xlink:title="math/minuit2/src/Modular\lFunctionMinimizer.cxx">
<polygon fill="#ffffff" stroke="#000000" points="1189.5,-268.5 1189.5,-298.5 1331.5,-298.5 1331.5,-268.5 1189.5,-268.5"/>
<text text-anchor="start" x="1197.5" y="-286.5" font-family="Helvetica,sans-Serif" font-size="10.00" fill="#000000">math/minuit2/src/Modular</text>
<text text-anchor="middle" x="1260.5" y="-275.5" font-family="Helvetica,sans-Serif" font-size="10.00" fill="#000000">FunctionMinimizer.cxx</text>
</a>
</g>
</g>
<!-- Node1&#45;&gt;Node24 -->
<g id="edge32" class="edge">
<title>Node1&#45;&gt;Node24</title>
<path fill="none" stroke="#191970" d="M1108.3483,-332.2759C1141.2873,-321.7165 1182.2639,-308.5805 1213.3917,-298.6017"/>
<polygon fill="#191970" stroke="#191970" points="1106.8579,-329.0782 1098.4037,-335.4639 1108.9948,-335.744 1106.8579,-329.0782"/>
</g>
<!-- Node3 -->
<g id="node3" class="node">
<title>Node3</title>
<g id="a_node3"><a xlink:href="CombinedMinimizer_8h.html" target="_top" xlink:title="math/minuit2/inc/Minuit2\l/CombinedMinimizer.h">
<polygon fill="#ffffff" stroke="#000000" points="414,-67.5 414,-97.5 553,-97.5 553,-67.5 414,-67.5"/>
<text text-anchor="start" x="422" y="-85.5" font-family="Helvetica,sans-Serif" font-size="10.00" fill="#000000">math/minuit2/inc/Minuit2</text>
<text text-anchor="middle" x="483.5" y="-74.5" font-family="Helvetica,sans-Serif" font-size="10.00" fill="#000000">/CombinedMinimizer.h</text>
</a>
</g>
</g>
<!-- Node2&#45;&gt;Node3 -->
<g id="edge2" class="edge">
<title>Node2&#45;&gt;Node3</title>
<path fill="none" stroke="#191970" d="M567.2945,-263.5019C553.5404,-255.4228 539.4029,-244.9122 529.5,-232 497.6047,-190.4121 487.6563,-126.559 484.6915,-97.6499"/>
<polygon fill="#191970" stroke="#191970" points="565.787,-266.6682 576.2291,-268.4607 569.184,-260.5476 565.787,-266.6682"/>
</g>
<!-- Node6 -->
<g id="node6" class="node">
<title>Node6</title>
<g id="a_node6"><a xlink:href="FumiliMinimizer_8h.html" target="_top" xlink:title="math/minuit2/inc/Minuit2\l/FumiliMinimizer.h">
<polygon fill="#ffffff" stroke="#000000" points="758,-201.5 758,-231.5 897,-231.5 897,-201.5 758,-201.5"/>
<text text-anchor="start" x="766" y="-219.5" font-family="Helvetica,sans-Serif" font-size="10.00" fill="#000000">math/minuit2/inc/Minuit2</text>
<text text-anchor="middle" x="827.5" y="-208.5" font-family="Helvetica,sans-Serif" font-size="10.00" fill="#000000">/FumiliMinimizer.h</text>
</a>
</g>
</g>
<!-- Node2&#45;&gt;Node6 -->
<g id="edge5" class="edge">
<title>Node2&#45;&gt;Node6</title>
<path fill="none" stroke="#191970" d="M669.8126,-265.4123C703.9292,-254.8298 746.5048,-241.6235 778.814,-231.6017"/>
<polygon fill="#191970" stroke="#191970" points="668.4888,-262.1583 659.9746,-268.4639 670.5626,-268.8441 668.4888,-262.1583"/>
</g>
<!-- Node10 -->
<g id="node10" class="node">
<title>Node10</title>
<g id="a_node10"><a xlink:href="VariableMetricMinimizer_8h.html" target="_top" xlink:title="math/minuit2/inc/Minuit2\l/VariableMetricMinimizer.h">
<polygon fill="#ffffff" stroke="#000000" points="538.5,-201.5 538.5,-231.5 684.5,-231.5 684.5,-201.5 538.5,-201.5"/>
<text text-anchor="start" x="546.5" y="-219.5" font-family="Helvetica,sans-Serif" font-size="10.00" fill="#000000">math/minuit2/inc/Minuit2</text>
<text text-anchor="middle" x="611.5" y="-208.5" font-family="Helvetica,sans-Serif" font-size="10.00" fill="#000000">/VariableMetricMinimizer.h</text>
</a>
</g>
</g>
<!-- Node2&#45;&gt;Node10 -->
<g id="edge11" class="edge">
<title>Node2&#45;&gt;Node10</title>
<path fill="none" stroke="#191970" d="M611.5,-258.0249C611.5,-249.128 611.5,-239.4287 611.5,-231.6432"/>
<polygon fill="#191970" stroke="#191970" points="608.0001,-258.2966 611.5,-268.2967 615.0001,-258.2967 608.0001,-258.2966"/>
</g>
<!-- Node16 -->
<g id="node16" class="node">
<title>Node16</title>
<g id="a_node16"><a xlink:href="MnSeedGenerator_8cxx.html" target="_top" xlink:title="math/minuit2/src/MnSeedGenerator.cxx">
<polygon fill="#ffffff" stroke="#000000" points="273,-207 273,-226 482,-226 482,-207 273,-207"/>
<text text-anchor="middle" x="377.5" y="-214" font-family="Helvetica,sans-Serif" font-size="10.00" fill="#000000">math/minuit2/src/MnSeedGenerator.cxx</text>
</a>
</g>
</g>
<!-- Node2&#45;&gt;Node16 -->
<g id="edge20" class="edge">
<title>Node2&#45;&gt;Node16</title>
<path fill="none" stroke="#191970" d="M549.1431,-265.6457C504.6663,-252.9109 446.6029,-236.2859 410.6976,-226.0053"/>
<polygon fill="#191970" stroke="#191970" points="548.4087,-269.076 558.9858,-268.4639 550.3356,-262.3464 548.4087,-269.076"/>
</g>
<!-- Node4 -->
<g id="node4" class="node">
<title>Node4</title>
<g id="a_node4"><a xlink:href="MnMinimize_8h.html" target="_top" xlink:title="math/minuit2/inc/Minuit2\l/MnMinimize.h">
<polygon fill="#ffffff" stroke="#000000" points="414,-.5 414,-30.5 553,-30.5 553,-.5 414,-.5"/>
<text text-anchor="start" x="422" y="-18.5" font-family="Helvetica,sans-Serif" font-size="10.00" fill="#000000">math/minuit2/inc/Minuit2</text>
<text text-anchor="middle" x="483.5" y="-7.5" font-family="Helvetica,sans-Serif" font-size="10.00" fill="#000000">/MnMinimize.h</text>
</a>
</g>
</g>
<!-- Node3&#45;&gt;Node4 -->
<g id="edge3" class="edge">
<title>Node3&#45;&gt;Node4</title>
<path fill="none" stroke="#191970" d="M483.5,-57.0249C483.5,-48.128 483.5,-38.4287 483.5,-30.6432"/>
<polygon fill="#191970" stroke="#191970" points="480.0001,-57.2966 483.5,-67.2967 487.0001,-57.2967 480.0001,-57.2966"/>
</g>
<!-- Node5 -->
<g id="node5" class="node">
<title>Node5</title>
<g id="a_node5"><a xlink:href="Minuit2Minimizer_8cxx.html" target="_top" xlink:title="math/minuit2/src/Minuit2\lMinimizer.cxx">
<polygon fill="#ffffff" stroke="#000000" points="645,-.5 645,-30.5 784,-30.5 784,-.5 645,-.5"/>
<text text-anchor="start" x="653" y="-18.5" font-family="Helvetica,sans-Serif" font-size="10.00" fill="#000000">math/minuit2/src/Minuit2</text>
<text text-anchor="middle" x="714.5" y="-7.5" font-family="Helvetica,sans-Serif" font-size="10.00" fill="#000000">Minimizer.cxx</text>
</a>
</g>
</g>
<!-- Node3&#45;&gt;Node5 -->
<g id="edge4" class="edge">
<title>Node3&#45;&gt;Node5</title>
<path fill="none" stroke="#191970" d="M545.3928,-64.5484C581.9569,-53.9432 627.7319,-40.6665 662.433,-30.6017"/>
<polygon fill="#191970" stroke="#191970" points="543.9701,-61.3167 535.3409,-67.4639 545.9201,-68.0397 543.9701,-61.3167"/>
</g>
<!-- Node6&#45;&gt;Node5 -->
<g id="edge9" class="edge">
<title>Node6&#45;&gt;Node5</title>
<path fill="none" stroke="#191970" d="M821.741,-191.4125C813.7761,-160.2825 797.27,-106.4891 770.5,-67 760.939,-52.8964 746.7941,-39.9296 735.1128,-30.5352"/>
<polygon fill="#191970" stroke="#191970" points="818.4152,-192.5448 824.2049,-201.4178 825.2122,-190.871 818.4152,-192.5448"/>
</g>
<!-- Node7 -->
<g id="node7" class="node">
<title>Node7</title>
<g id="a_node7"><a xlink:href="MnFumiliMinimize_8h.html" target="_top" xlink:title="math/minuit2/inc/Minuit2\l/MnFumiliMinimize.h">
<polygon fill="#ffffff" stroke="#000000" points="856,-134.5 856,-164.5 995,-164.5 995,-134.5 856,-134.5"/>
<text text-anchor="start" x="864" y="-152.5" font-family="Helvetica,sans-Serif" font-size="10.00" fill="#000000">math/minuit2/inc/Minuit2</text>
<text text-anchor="middle" x="925.5" y="-141.5" font-family="Helvetica,sans-Serif" font-size="10.00" fill="#000000">/MnFumiliMinimize.h</text>
</a>
</g>
</g>
<!-- Node6&#45;&gt;Node7 -->
<g id="edge6" class="edge">
<title>Node6&#45;&gt;Node7</title>
<path fill="none" stroke="#191970" d="M858.0283,-195.6286C872.7001,-185.5979 889.9602,-173.7976 903.3503,-164.6432"/>
<polygon fill="#191970" stroke="#191970" points="856.0175,-192.7635 849.7377,-201.2967 859.9682,-198.5421 856.0175,-192.7635"/>
</g>
<!-- Node8 -->
<g id="node8" class="node">
<title>Node8</title>
<g id="a_node8"><a xlink:href="MnFumiliMinimize_8cxx.html" target="_top" xlink:title="math/minuit2/src/MnFumili\lMinimize.cxx">
<polygon fill="#ffffff" stroke="#000000" points="835.5,-67.5 835.5,-97.5 981.5,-97.5 981.5,-67.5 835.5,-67.5"/>
<text text-anchor="start" x="843.5" y="-85.5" font-family="Helvetica,sans-Serif" font-size="10.00" fill="#000000">math/minuit2/src/MnFumili</text>
<text text-anchor="middle" x="908.5" y="-74.5" font-family="Helvetica,sans-Serif" font-size="10.00" fill="#000000">Minimize.cxx</text>
</a>
</g>
</g>
<!-- Node6&#45;&gt;Node8 -->
<g id="edge10" class="edge">
<title>Node6&#45;&gt;Node8</title>
<path fill="none" stroke="#191970" d="M829.5229,-191.0302C831.8421,-173.8595 836.8193,-151.2754 847.5,-134 856.6106,-119.2642 871.3677,-106.6402 884.0849,-97.5791"/>
<polygon fill="#191970" stroke="#191970" points="825.9937,-191.0923 828.3495,-201.4219 832.9495,-191.8778 825.9937,-191.0923"/>
</g>
<!-- Node6&#45;&gt;Node9 -->
<g id="edge8" class="edge">
<title>Node6&#45;&gt;Node9</title>
<path fill="none" stroke="#191970" d="M901.6664,-199.1254C956.2811,-186.331 1028.4877,-169.4155 1072.9252,-159.0053"/>
<polygon fill="#191970" stroke="#191970" points="900.622,-195.7752 891.684,-201.4639 902.2187,-202.5907 900.622,-195.7752"/>
</g>
<!-- Node7&#45;&gt;Node8 -->
<g id="edge7" class="edge">
<title>Node7&#45;&gt;Node8</title>
<path fill="none" stroke="#191970" d="M919.1105,-124.3179C916.8329,-115.3414 914.3394,-105.5143 912.3423,-97.6432"/>
<polygon fill="#191970" stroke="#191970" points="915.7905,-125.4646 921.6424,-134.2967 922.5755,-123.743 915.7905,-125.4646"/>
</g>
<!-- Node10&#45;&gt;Node5 -->
<g id="edge19" class="edge">
<title>Node10&#45;&gt;Node5</title>
<path fill="none" stroke="#191970" d="M600.7939,-191.7552C588.8011,-159.8088 574.2432,-103.9428 600.5,-67 612.704,-49.8292 632.0267,-38.2767 651.3212,-30.5503"/>
<polygon fill="#191970" stroke="#191970" points="597.6097,-193.2209 604.5425,-201.2326 604.1191,-190.6462 597.6097,-193.2209"/>
</g>
<!-- Node11 -->
<g id="node11" class="node">
<title>Node11</title>
<g id="a_node11"><a xlink:href="CombinedMinimumBuilder_8h.html" target="_top" xlink:title="math/minuit2/inc/Minuit2\l/CombinedMinimumBuilder.h">
<polygon fill="#ffffff" stroke="#000000" points="603.5,-134.5 603.5,-164.5 761.5,-164.5 761.5,-134.5 603.5,-134.5"/>
<text text-anchor="start" x="611.5" y="-152.5" font-family="Helvetica,sans-Serif" font-size="10.00" fill="#000000">math/minuit2/inc/Minuit2</text>
<text text-anchor="middle" x="682.5" y="-141.5" font-family="Helvetica,sans-Serif" font-size="10.00" fill="#000000">/CombinedMinimumBuilder.h</text>
</a>
</g>
</g>
<!-- Node10&#45;&gt;Node11 -->
<g id="edge12" class="edge">
<title>Node10&#45;&gt;Node11</title>
<path fill="none" stroke="#191970" d="M635.1194,-194.2113C645.4095,-184.5009 657.2051,-173.3698 666.4528,-164.6432"/>
<polygon fill="#191970" stroke="#191970" points="632.4819,-191.8879 627.611,-201.2967 637.2861,-196.979 632.4819,-191.8879"/>
</g>
<!-- Node13 -->
<g id="node13" class="node">
<title>Node13</title>
<g id="a_node13"><a xlink:href="MnMigrad_8h.html" target="_top" xlink:title="math/minuit2/inc/Minuit2\l/MnMigrad.h">
<polygon fill="#ffffff" stroke="#000000" points="263,-134.5 263,-164.5 402,-164.5 402,-134.5 263,-134.5"/>
<text text-anchor="start" x="271" y="-152.5" font-family="Helvetica,sans-Serif" font-size="10.00" fill="#000000">math/minuit2/inc/Minuit2</text>
<text text-anchor="middle" x="332.5" y="-141.5" font-family="Helvetica,sans-Serif" font-size="10.00" fill="#000000">/MnMigrad.h</text>
</a>
</g>
</g>
<!-- Node10&#45;&gt;Node13 -->
<g id="edge15" class="edge">
<title>Node10&#45;&gt;Node13</title>
<path fill="none" stroke="#191970" d="M539.0012,-199.0899C494.4786,-188.3981 438.0143,-174.8386 395.3861,-164.6017"/>
<polygon fill="#191970" stroke="#191970" points="538.3461,-202.532 548.887,-201.4639 539.9807,-195.7255 538.3461,-202.532"/>
</g>
<!-- Node11&#45;&gt;Node3 -->
<g id="edge13" class="edge">
<title>Node11&#45;&gt;Node3</title>
<path fill="none" stroke="#191970" d="M627.9658,-131.1392C596.6726,-120.6033 557.865,-107.5375 528.3543,-97.6017"/>
<polygon fill="#191970" stroke="#191970" points="627.2464,-134.59 637.8405,-134.4639 629.4801,-127.9559 627.2464,-134.59"/>
</g>
<!-- Node12 -->
<g id="node12" class="node">
<title>Node12</title>
<g id="a_node12"><a xlink:href="CombinedMinimumBuilder_8cxx.html" target="_top" xlink:title="math/minuit2/src/Combined\lMinimumBuilder.cxx">
<polygon fill="#ffffff" stroke="#000000" points="609.5,-67.5 609.5,-97.5 761.5,-97.5 761.5,-67.5 609.5,-67.5"/>
<text text-anchor="start" x="617.5" y="-85.5" font-family="Helvetica,sans-Serif" font-size="10.00" fill="#000000">math/minuit2/src/Combined</text>
<text text-anchor="middle" x="685.5" y="-74.5" font-family="Helvetica,sans-Serif" font-size="10.00" fill="#000000">MinimumBuilder.cxx</text>
</a>
</g>
</g>
<!-- Node11&#45;&gt;Node12 -->
<g id="edge14" class="edge">
<title>Node11&#45;&gt;Node12</title>
<path fill="none" stroke="#191970" d="M683.6407,-124.0249C684.039,-115.128 684.4733,-105.4287 684.8219,-97.6432"/>
<polygon fill="#191970" stroke="#191970" points="680.1317,-124.1501 683.1807,-134.2967 687.1246,-124.4633 680.1317,-124.1501"/>
</g>
<!-- Node13&#45;&gt;Node5 -->
<g id="edge16" class="edge">
<title>Node13&#45;&gt;Node5</title>
<path fill="none" stroke="#191970" d="M346.7204,-126.0094C359.5967,-106.9071 380.369,-80.9184 405.5,-67 445.5832,-44.8006 566.7691,-29.5132 644.9283,-21.6563"/>
<polygon fill="#191970" stroke="#191970" points="343.7229,-124.1989 341.2109,-134.4916 349.5932,-128.0119 343.7229,-124.1989"/>
</g>
<!-- Node14 -->
<g id="node14" class="node">
<title>Node14</title>
<g id="a_node14"><a xlink:href="MnContours_8cxx.html" target="_top" xlink:title="math/minuit2/src/MnContours.cxx">
<polygon fill="#ffffff" stroke="#000000" points="0,-73 0,-92 181,-92 181,-73 0,-73"/>
<text text-anchor="middle" x="90.5" y="-80" font-family="Helvetica,sans-Serif" font-size="10.00" fill="#000000">math/minuit2/src/MnContours.cxx</text>
</a>
</g>
</g>
<!-- Node13&#45;&gt;Node14 -->
<g id="edge17" class="edge">
<title>Node13&#45;&gt;Node14</title>
<path fill="none" stroke="#191970" d="M268.3009,-131.7259C222.2663,-118.9807 162.0434,-102.3075 124.8325,-92.0053"/>
<polygon fill="#191970" stroke="#191970" points="267.6191,-135.1687 278.1905,-134.4639 269.4869,-128.4225 267.6191,-135.1687"/>
</g>
<!-- Node15 -->
<g id="node15" class="node">
<title>Node15</title>
<g id="a_node15"><a xlink:href="MnFunctionCross_8cxx.html" target="_top" xlink:title="math/minuit2/src/MnFunction\lCross.cxx">
<polygon fill="#ffffff" stroke="#000000" points="199.5,-67.5 199.5,-97.5 357.5,-97.5 357.5,-67.5 199.5,-67.5"/>
<text text-anchor="start" x="207.5" y="-85.5" font-family="Helvetica,sans-Serif" font-size="10.00" fill="#000000">math/minuit2/src/MnFunction</text>
<text text-anchor="middle" x="278.5" y="-74.5" font-family="Helvetica,sans-Serif" font-size="10.00" fill="#000000">Cross.cxx</text>
</a>
</g>
</g>
<!-- Node13&#45;&gt;Node15 -->
<g id="edge18" class="edge">
<title>Node13&#45;&gt;Node15</title>
<path fill="none" stroke="#191970" d="M313.8425,-126.3509C306.1836,-116.8482 297.5315,-106.1132 290.7049,-97.6432"/>
<polygon fill="#191970" stroke="#191970" points="311.2462,-128.707 320.2466,-134.2967 316.6964,-124.3143 311.2462,-128.707"/>
</g>
<!-- Node18 -->
<g id="node18" class="node">
<title>Node18</title>
<g id="a_node18"><a xlink:href="ScanMinimizer_8h.html" target="_top" xlink:title="math/minuit2/inc/Minuit2\l/ScanMinimizer.h">
<polygon fill="#ffffff" stroke="#000000" points="1368,-201.5 1368,-231.5 1507,-231.5 1507,-201.5 1368,-201.5"/>
<text text-anchor="start" x="1376" y="-219.5" font-family="Helvetica,sans-Serif" font-size="10.00" fill="#000000">math/minuit2/inc/Minuit2</text>
<text text-anchor="middle" x="1437.5" y="-208.5" font-family="Helvetica,sans-Serif" font-size="10.00" fill="#000000">/ScanMinimizer.h</text>
</a>
</g>
</g>
<!-- Node17&#45;&gt;Node18 -->
<g id="edge22" class="edge">
<title>Node17&#45;&gt;Node18</title>
<path fill="none" stroke="#191970" d="M1181.5342,-267.5408C1238.2547,-256.2305 1313.609,-241.2045 1367.8507,-230.3884"/>
<polygon fill="#191970" stroke="#191970" points="1180.6501,-264.1481 1171.5276,-269.5362 1182.019,-271.013 1180.6501,-264.1481"/>
</g>
<!-- Node21 -->
<g id="node21" class="node">
<title>Node21</title>
<g id="a_node21"><a xlink:href="SimplexMinimizer_8h.html" target="_top" xlink:title="math/minuit2/inc/Minuit2\l/SimplexMinimizer.h">
<polygon fill="#ffffff" stroke="#000000" points="1191,-201.5 1191,-231.5 1330,-231.5 1330,-201.5 1191,-201.5"/>
<text text-anchor="start" x="1199" y="-219.5" font-family="Helvetica,sans-Serif" font-size="10.00" fill="#000000">math/minuit2/inc/Minuit2</text>
<text text-anchor="middle" x="1260.5" y="-208.5" font-family="Helvetica,sans-Serif" font-size="10.00" fill="#000000">/SimplexMinimizer.h</text>
</a>
</g>
</g>
<!-- Node17&#45;&gt;Node21 -->
<g id="edge26" class="edge">
<title>Node17&#45;&gt;Node21</title>
<path fill="none" stroke="#191970" d="M1146.7045,-264.4516C1171.4145,-254.0392 1201.5931,-241.3224 1224.6617,-231.6017"/>
<polygon fill="#191970" stroke="#191970" points="1145.0388,-261.3553 1137.1827,-268.4639 1147.7571,-267.806 1145.0388,-261.3553"/>
</g>
<!-- Node23 -->
<g id="node23" class="node">
<title>Node23</title>
<g id="a_node23"><a xlink:href="SimplexSeedGenerator_8cxx.html" target="_top" xlink:title="math/minuit2/src/Simplex\lSeedGenerator.cxx">
<polygon fill="#ffffff" stroke="#000000" points="1030,-201.5 1030,-231.5 1173,-231.5 1173,-201.5 1030,-201.5"/>
<text text-anchor="start" x="1038" y="-219.5" font-family="Helvetica,sans-Serif" font-size="10.00" fill="#000000">math/minuit2/src/Simplex</text>
<text text-anchor="middle" x="1101.5" y="-208.5" font-family="Helvetica,sans-Serif" font-size="10.00" fill="#000000">SeedGenerator.cxx</text>
</a>
</g>
</g>
<!-- Node17&#45;&gt;Node23 -->
<g id="edge30" class="edge">
<title>Node17&#45;&gt;Node23</title>
<path fill="none" stroke="#191970" d="M1101.5,-258.0249C1101.5,-249.128 1101.5,-239.4287 1101.5,-231.6432"/>
<polygon fill="#191970" stroke="#191970" points="1098.0001,-258.2966 1101.5,-268.2967 1105.0001,-258.2967 1098.0001,-258.2966"/>
</g>
<!-- Node18&#45;&gt;Node5 -->
<g id="edge25" class="edge">
<title>Node18&#45;&gt;Node5</title>
<path fill="none" stroke="#191970" d="M1438.4201,-191.3958C1437.6824,-173.0363 1433.5436,-148.8419 1418.5,-134 1329.5536,-46.2464 944.0169,-23.2151 784.2518,-17.3903"/>
<polygon fill="#191970" stroke="#191970" points="1434.9204,-191.4513 1438.5182,-201.4165 1441.9201,-191.3827 1434.9204,-191.4513"/>
</g>
<!-- Node19 -->
<g id="node19" class="node">
<title>Node19</title>
<g id="a_node19"><a xlink:href="MnScan_8h.html" target="_top" xlink:title="math/minuit2/inc/Minuit2\l/MnScan.h">
<polygon fill="#ffffff" stroke="#000000" points="1472,-134.5 1472,-164.5 1611,-164.5 1611,-134.5 1472,-134.5"/>
<text text-anchor="start" x="1480" y="-152.5" font-family="Helvetica,sans-Serif" font-size="10.00" fill="#000000">math/minuit2/inc/Minuit2</text>
<text text-anchor="middle" x="1541.5" y="-141.5" font-family="Helvetica,sans-Serif" font-size="10.00" fill="#000000">/MnScan.h</text>
</a>
</g>
</g>
<!-- Node18&#45;&gt;Node19 -->
<g id="edge23" class="edge">
<title>Node18&#45;&gt;Node19</title>
<path fill="none" stroke="#191970" d="M1469.639,-195.7951C1485.2223,-185.7558 1503.6061,-173.9124 1517.8784,-164.7177"/>
<polygon fill="#191970" stroke="#191970" points="1467.3506,-193.1058 1460.8396,-201.4639 1471.1417,-198.9904 1467.3506,-193.1058"/>
</g>
<!-- Node20 -->
<g id="node20" class="node">
<title>Node20</title>
<g id="a_node20"><a xlink:href="MnScan_8cxx.html" target="_top" xlink:title="math/minuit2/src/MnScan.cxx">
<polygon fill="#ffffff" stroke="#000000" points="1466,-73 1466,-92 1627,-92 1627,-73 1466,-73"/>
<text text-anchor="middle" x="1546.5" y="-80" font-family="Helvetica,sans-Serif" font-size="10.00" fill="#000000">math/minuit2/src/MnScan.cxx</text>
</a>
</g>
</g>
<!-- Node19&#45;&gt;Node20 -->
<g id="edge24" class="edge">
<title>Node19&#45;&gt;Node20</title>
<path fill="none" stroke="#191970" d="M1543.394,-124.1199C1544.2308,-112.9072 1545.1639,-100.4031 1545.7869,-92.055"/>
<polygon fill="#191970" stroke="#191970" points="1539.8886,-124.0639 1542.6346,-134.2967 1546.8692,-124.5849 1539.8886,-124.0639"/>
</g>
<!-- Node21&#45;&gt;Node5 -->
<g id="edge29" class="edge">
<title>Node21&#45;&gt;Node5</title>
<path fill="none" stroke="#191970" d="M1254.9814,-191.6184C1249.6516,-173.21 1239.7726,-148.8508 1222.5,-134 1157.0918,-77.7627 907.7268,-39.6035 784.4039,-23.7582"/>
<polygon fill="#191970" stroke="#191970" points="1251.624,-192.6134 1257.5539,-201.3933 1258.3935,-190.8318 1251.624,-192.6134"/>
</g>
<!-- Node21&#45;&gt;Node11 -->
<g id="edge27" class="edge">
<title>Node21&#45;&gt;Node11</title>
<path fill="none" stroke="#191970" d="M1180.6418,-200.8947C1114.0564,-192.1264 884.5786,-169.3227 761.529,-157.2296"/>
<polygon fill="#191970" stroke="#191970" points="1180.4272,-204.3986 1190.8155,-202.3169 1181.3964,-197.466 1180.4272,-204.3986"/>
</g>
<!-- Node22 -->
<g id="node22" class="node">
<title>Node22</title>
<g id="a_node22"><a xlink:href="MnSimplex_8h.html" target="_top" xlink:title="math/minuit2/inc/Minuit2\l/MnSimplex.h">
<polygon fill="#ffffff" stroke="#000000" points="1270,-134.5 1270,-164.5 1409,-164.5 1409,-134.5 1270,-134.5"/>
<text text-anchor="start" x="1278" y="-152.5" font-family="Helvetica,sans-Serif" font-size="10.00" fill="#000000">math/minuit2/inc/Minuit2</text>
<text text-anchor="middle" x="1339.5" y="-141.5" font-family="Helvetica,sans-Serif" font-size="10.00" fill="#000000">/MnSimplex.h</text>
</a>
</g>
</g>
<!-- Node21&#45;&gt;Node22 -->
<g id="edge28" class="edge">
<title>Node21&#45;&gt;Node22</title>
<path fill="none" stroke="#191970" d="M1286.1092,-194.7808C1297.7146,-184.9383 1311.1532,-173.541 1321.6446,-164.6432"/>
<polygon fill="#191970" stroke="#191970" points="1283.789,-192.1593 1278.4263,-201.2967 1288.3167,-197.4978 1283.789,-192.1593"/>
</g>
</g>
</svg>
