<?xml version="1.0" encoding="UTF-8" standalone="no"?>
<!DOCTYPE svg PUBLIC "-//W3C//DTD SVG 1.1//EN"
 "http://www.w3.org/Graphics/SVG/1.1/DTD/svg11.dtd">
<!-- Generated by graphviz version 2.40.1 (0)
 -->
<!-- Title: math/mathcore/inc/Math/MixMaxEngine.h Pages: 1 -->
<svg width="1276pt" height="543pt"
 viewBox="0.00 0.00 1276.00 543.00" xmlns="http://www.w3.org/2000/svg" xmlns:xlink="http://www.w3.org/1999/xlink">
<g id="graph0" class="graph" transform="scale(1 1) rotate(0) translate(4 539)">
<title>math/mathcore/inc/Math/MixMaxEngine.h</title>
<polygon fill="#ffffff" stroke="transparent" points="-4,4 -4,-539 1272,-539 1272,4 -4,4"/>
<!-- Node0 -->
<g id="node1" class="node">
<title>Node0</title>
<polygon fill="#bfbfbf" stroke="#000000" points="174,-504.5 174,-534.5 310,-534.5 310,-504.5 174,-504.5"/>
<text text-anchor="start" x="182" y="-522.5" font-family="Helvetica,sans-Serif" font-size="10.00" fill="#000000">math/mathcore/inc/Math</text>
<text text-anchor="middle" x="242" y="-511.5" font-family="Helvetica,sans-Serif" font-size="10.00" fill="#000000">/MixMaxEngine.h</text>
</g>
<!-- Node1 -->
<g id="node2" class="node">
<title>Node1</title>
<polygon fill="#ffffff" stroke="#bfbfbf" points="0,-448.5 0,-467.5 50,-467.5 50,-448.5 0,-448.5"/>
<text text-anchor="middle" x="25" y="-455.5" font-family="Helvetica,sans-Serif" font-size="10.00" fill="#000000">cstdint</text>
</g>
<!-- Node0&#45;&gt;Node1 -->
<g id="edge1" class="edge">
<title>Node0&#45;&gt;Node1</title>
<path fill="none" stroke="#191970" d="M188.9158,-504.4554C148.7172,-493.0627 94.646,-477.7384 59.8026,-467.8634"/>
<polygon fill="#191970" stroke="#191970" points="60.6536,-464.4668 50.0781,-465.1074 58.7448,-471.2015 60.6536,-464.4668"/>
</g>
<!-- Node2 -->
<g id="node3" class="node">
<title>Node2</title>
<polygon fill="#ffffff" stroke="#bfbfbf" points="451.5,-168.5 451.5,-187.5 498.5,-187.5 498.5,-168.5 451.5,-168.5"/>
<text text-anchor="middle" x="475" y="-175.5" font-family="Helvetica,sans-Serif" font-size="10.00" fill="#000000">vector</text>
</g>
<!-- Node0&#45;&gt;Node2 -->
<g id="edge2" class="edge">
<title>Node0&#45;&gt;Node2</title>
<path fill="none" stroke="#191970" d="M272.85,-504.4878C306.6116,-485.6434 356,-449.892 356,-402 356,-402 356,-402 356,-290 356,-259.3494 355.9042,-247.1434 376,-224 392.9487,-204.4809 419.941,-192.703 441.4629,-185.9583"/>
<polygon fill="#191970" stroke="#191970" points="442.5905,-189.2755 451.215,-183.1218 440.6354,-182.554 442.5905,-189.2755"/>
</g>
<!-- Node3 -->
<g id="node4" class="node">
<title>Node3</title>
<polygon fill="#ffffff" stroke="#bfbfbf" points="94,-112.5 94,-131.5 138,-131.5 138,-112.5 94,-112.5"/>
<text text-anchor="middle" x="116" y="-119.5" font-family="Helvetica,sans-Serif" font-size="10.00" fill="#000000">string</text>
</g>
<!-- Node0&#45;&gt;Node3 -->
<g id="edge3" class="edge">
<title>Node0&#45;&gt;Node3</title>
<path fill="none" stroke="#191970" d="M185.5605,-504.4146C138.1212,-487.9127 78,-456.2898 78,-402 78,-402 78,-402 78,-234 78,-199.6118 94.2634,-162.2832 105.511,-140.5791"/>
<polygon fill="#191970" stroke="#191970" points="108.7317,-141.9804 110.393,-131.5166 102.569,-138.6605 108.7317,-141.9804"/>
</g>
<!-- Node4 -->
<g id="node5" class="node">
<title>Node4</title>
<g id="a_node5"><a xlink:href="TRandomEngine_8h.html" target="_top" xlink:title="Math/TRandomEngine.h">
<polygon fill="#ffffff" stroke="#000000" points="384,-448.5 384,-467.5 516,-467.5 516,-448.5 384,-448.5"/>
<text text-anchor="middle" x="450" y="-455.5" font-family="Helvetica,sans-Serif" font-size="10.00" fill="#000000">Math/TRandomEngine.h</text>
</a>
</g>
</g>
<!-- Node0&#45;&gt;Node4 -->
<g id="edge4" class="edge">
<title>Node0&#45;&gt;Node4</title>
<path fill="none" stroke="#191970" d="M292.8825,-504.4554C328.1967,-494.0139 374.6803,-480.27 407.908,-470.4455"/>
<polygon fill="#191970" stroke="#191970" points="409.1702,-473.7221 417.7674,-467.5303 407.1854,-467.0094 409.1702,-473.7221"/>
</g>
<!-- Node5 -->
<g id="node6" class="node">
<title>Node5</title>
<g id="a_node6"><a xlink:href="MixMaxEngine_8icc.html" target="_top" xlink:title="Math/MixMaxEngine.icc">
<polygon fill="#ffffff" stroke="#000000" points="176.5,-448.5 176.5,-467.5 307.5,-467.5 307.5,-448.5 176.5,-448.5"/>
<text text-anchor="middle" x="242" y="-455.5" font-family="Helvetica,sans-Serif" font-size="10.00" fill="#000000">Math/MixMaxEngine.icc</text>
</a>
</g>
</g>
<!-- Node0&#45;&gt;Node5 -->
<g id="edge5" class="edge">
<title>Node0&#45;&gt;Node5</title>
<path fill="none" stroke="#191970" d="M242,-504.2977C242,-496.3834 242,-486.6043 242,-478.0759"/>
<polygon fill="#191970" stroke="#191970" points="245.5001,-477.8469 242,-467.8469 238.5001,-477.847 245.5001,-477.8469"/>
</g>
<!-- Node6 -->
<g id="node7" class="node">
<title>Node6</title>
<polygon fill="#ffffff" stroke="#bfbfbf" points="276,-392.5 276,-411.5 328,-411.5 328,-392.5 276,-392.5"/>
<text text-anchor="middle" x="302" y="-399.5" font-family="Helvetica,sans-Serif" font-size="10.00" fill="#000000">cassert</text>
</g>
<!-- Node5&#45;&gt;Node6 -->
<g id="edge6" class="edge">
<title>Node5&#45;&gt;Node6</title>
<path fill="none" stroke="#191970" d="M252.4512,-448.2455C261.2269,-440.0549 273.9554,-428.1749 284.314,-418.5069"/>
<polygon fill="#191970" stroke="#191970" points="286.7461,-421.0246 291.6686,-411.6427 281.9699,-415.9072 286.7461,-421.0246"/>
</g>
<!-- Node7 -->
<g id="node8" class="node">
<title>Node7</title>
<g id="a_node8"><a xlink:href="Util_8h.html" target="_top" xlink:title="Math/Util.h">
<polygon fill="#ffffff" stroke="#000000" points="188,-392.5 188,-411.5 258,-411.5 258,-392.5 188,-392.5"/>
<text text-anchor="middle" x="223" y="-399.5" font-family="Helvetica,sans-Serif" font-size="10.00" fill="#000000">Math/Util.h</text>
</a>
</g>
</g>
<!-- Node5&#45;&gt;Node7 -->
<g id="edge7" class="edge">
<title>Node5&#45;&gt;Node7</title>
<path fill="none" stroke="#191970" d="M238.6905,-448.2455C236.1567,-440.7776 232.5823,-430.2427 229.485,-421.1137"/>
<polygon fill="#191970" stroke="#191970" points="232.7991,-419.9879 226.2716,-411.6427 226.1702,-422.237 232.7991,-419.9879"/>
</g>
<!-- Node7&#45;&gt;Node3 -->
<g id="edge8" class="edge">
<title>Node7&#45;&gt;Node3</title>
<path fill="none" stroke="#191970" d="M191.1917,-392.4843C172.3386,-385.3057 149.3919,-373.6265 135,-356 115.6946,-332.3557 116,-320.5246 116,-290 116,-290 116,-290 116,-234 116,-201.7116 116,-164.1872 116,-141.8048"/>
<polygon fill="#191970" stroke="#191970" points="119.5001,-141.5883 116,-131.5884 112.5001,-141.5884 119.5001,-141.5883"/>
</g>
<!-- Node8 -->
<g id="node9" class="node">
<title>Node8</title>
<polygon fill="#ffffff" stroke="#bfbfbf" points="144,-336.5 144,-355.5 200,-355.5 200,-336.5 144,-336.5"/>
<text text-anchor="middle" x="172" y="-343.5" font-family="Helvetica,sans-Serif" font-size="10.00" fill="#000000">sstream</text>
</g>
<!-- Node7&#45;&gt;Node8 -->
<g id="edge9" class="edge">
<title>Node7&#45;&gt;Node8</title>
<path fill="none" stroke="#191970" d="M214.1165,-392.2455C206.8034,-384.2155 196.2609,-372.6394 187.5533,-363.0781"/>
<polygon fill="#191970" stroke="#191970" points="190.1028,-360.6795 180.7817,-355.6427 184.9273,-365.3928 190.1028,-360.6795"/>
</g>
<!-- Node9 -->
<g id="node10" class="node">
<title>Node9</title>
<polygon fill="#ffffff" stroke="#bfbfbf" points="218.5,-336.5 218.5,-355.5 265.5,-355.5 265.5,-336.5 218.5,-336.5"/>
<text text-anchor="middle" x="242" y="-343.5" font-family="Helvetica,sans-Serif" font-size="10.00" fill="#000000">cmath</text>
</g>
<!-- Node7&#45;&gt;Node9 -->
<g id="edge10" class="edge">
<title>Node7&#45;&gt;Node9</title>
<path fill="none" stroke="#191970" d="M226.3095,-392.2455C228.8433,-384.7776 232.4177,-374.2427 235.515,-365.1137"/>
<polygon fill="#191970" stroke="#191970" points="238.8298,-366.237 238.7284,-355.6427 232.2009,-363.9879 238.8298,-366.237"/>
</g>
<!-- Node10 -->
<g id="node11" class="node">
<title>Node10</title>
<polygon fill="#ffffff" stroke="#bfbfbf" points="284,-336.5 284,-355.5 328,-355.5 328,-336.5 284,-336.5"/>
<text text-anchor="middle" x="306" y="-343.5" font-family="Helvetica,sans-Serif" font-size="10.00" fill="#000000">limits</text>
</g>
<!-- Node7&#45;&gt;Node10 -->
<g id="edge11" class="edge">
<title>Node7&#45;&gt;Node10</title>
<path fill="none" stroke="#191970" d="M237.4575,-392.2455C250.0732,-383.7337 268.5944,-371.2375 283.2045,-361.3801"/>
<polygon fill="#191970" stroke="#191970" points="285.3761,-364.1371 291.7082,-355.6427 281.4609,-358.3343 285.3761,-364.1371"/>
</g>
<!-- Node11 -->
<g id="node12" class="node">
<title>Node11</title>
<g id="a_node12"><a xlink:href="math_2mathcore_2inc_2Math_2Types_8h.html" target="_top" xlink:title="Types.h">
<polygon fill="#ffffff" stroke="#000000" points="795.5,-336.5 795.5,-355.5 848.5,-355.5 848.5,-336.5 795.5,-336.5"/>
<text text-anchor="middle" x="822" y="-343.5" font-family="Helvetica,sans-Serif" font-size="10.00" fill="#000000">Types.h</text>
</a>
</g>
</g>
<!-- Node7&#45;&gt;Node11 -->
<g id="edge12" class="edge">
<title>Node7&#45;&gt;Node11</title>
<path fill="none" stroke="#191970" d="M258.4592,-393.4904C261.3395,-392.9369 264.2129,-392.43 267,-392 460.7429,-362.1069 695.7397,-350.71 785.1075,-347.2625"/>
<polygon fill="#191970" stroke="#191970" points="785.4099,-350.7537 795.2715,-346.8807 785.1471,-343.7586 785.4099,-350.7537"/>
</g>
<!-- Node12 -->
<g id="node13" class="node">
<title>Node12</title>
<polygon fill="#ffffff" stroke="#bfbfbf" points="1190,-.5 1190,-19.5 1268,-19.5 1268,-.5 1190,-.5"/>
<text text-anchor="middle" x="1229" y="-7.5" font-family="Helvetica,sans-Serif" font-size="10.00" fill="#000000">RConfigure.h</text>
</g>
<!-- Node11&#45;&gt;Node12 -->
<g id="edge13" class="edge">
<title>Node11&#45;&gt;Node12</title>
<path fill="none" stroke="#191970" d="M848.6785,-344.9417C943.5576,-340.4641 1259,-319.1732 1259,-234 1259,-234 1259,-234 1259,-122 1259,-88.4397 1246.2764,-51.0899 1237.4016,-29.12"/>
<polygon fill="#191970" stroke="#191970" points="1240.5255,-27.5191 1233.4266,-19.6542 1234.0714,-30.2294 1240.5255,-27.5191"/>
</g>
<!-- Node13 -->
<g id="node14" class="node">
<title>Node13</title>
<g id="a_node14"><a xlink:href="Rtypes_8h.html" target="_top" xlink:title="Rtypes.h">
<polygon fill="#ffffff" stroke="#000000" points="792.5,-280.5 792.5,-299.5 851.5,-299.5 851.5,-280.5 792.5,-280.5"/>
<text text-anchor="middle" x="822" y="-287.5" font-family="Helvetica,sans-Serif" font-size="10.00" fill="#000000">Rtypes.h</text>
</a>
</g>
</g>
<!-- Node11&#45;&gt;Node13 -->
<g id="edge14" class="edge">
<title>Node11&#45;&gt;Node13</title>
<path fill="none" stroke="#191970" d="M822,-336.2455C822,-328.9382 822,-318.6944 822,-309.7046"/>
<polygon fill="#191970" stroke="#191970" points="825.5001,-309.6426 822,-299.6427 818.5001,-309.6427 825.5001,-309.6426"/>
</g>
<!-- Node14 -->
<g id="node15" class="node">
<title>Node14</title>
<g id="a_node15"><a xlink:href="RtypesCore_8h.html" target="_top" xlink:title="RtypesCore.h">
<polygon fill="#ffffff" stroke="#000000" points="1142,-112.5 1142,-131.5 1224,-131.5 1224,-112.5 1142,-112.5"/>
<text text-anchor="middle" x="1183" y="-119.5" font-family="Helvetica,sans-Serif" font-size="10.00" fill="#000000">RtypesCore.h</text>
</a>
</g>
</g>
<!-- Node13&#45;&gt;Node14 -->
<g id="edge15" class="edge">
<title>Node13&#45;&gt;Node14</title>
<path fill="none" stroke="#191970" d="M851.6422,-289.0168C922.5178,-286.1679 1099.4975,-275.962 1148,-244 1172.3128,-227.9784 1173.9421,-215.9799 1182,-188 1186.3606,-172.8584 1186.3255,-154.9421 1185.3586,-141.5998"/>
<polygon fill="#191970" stroke="#191970" points="1188.8412,-141.2501 1184.4033,-131.6295 1181.8731,-141.9178 1188.8412,-141.2501"/>
</g>
<!-- Node18 -->
<g id="node19" class="node">
<title>Node18</title>
<g id="a_node19"><a xlink:href="DllImport_8h.html" target="_top" xlink:title="DllImport.h">
<polygon fill="#ffffff" stroke="#000000" points="384.5,-224.5 384.5,-243.5 455.5,-243.5 455.5,-224.5 384.5,-224.5"/>
<text text-anchor="middle" x="420" y="-231.5" font-family="Helvetica,sans-Serif" font-size="10.00" fill="#000000">DllImport.h</text>
</a>
</g>
</g>
<!-- Node13&#45;&gt;Node18 -->
<g id="edge20" class="edge">
<title>Node13&#45;&gt;Node18</title>
<path fill="none" stroke="#191970" d="M792.2426,-287.0865C732.3795,-281.0284 592.9646,-265.9263 465.7215,-243.9911"/>
<polygon fill="#191970" stroke="#191970" points="466.2554,-240.5315 455.803,-242.2629 465.0538,-247.4276 466.2554,-240.5315"/>
</g>
<!-- Node19 -->
<g id="node20" class="node">
<title>Node19</title>
<polygon fill="#ffffff" stroke="#bfbfbf" points="474,-224.5 474,-243.5 536,-243.5 536,-224.5 474,-224.5"/>
<text text-anchor="middle" x="505" y="-231.5" font-family="Helvetica,sans-Serif" font-size="10.00" fill="#000000">snprintf.h</text>
</g>
<!-- Node13&#45;&gt;Node19 -->
<g id="edge21" class="edge">
<title>Node13&#45;&gt;Node19</title>
<path fill="none" stroke="#191970" d="M792.4576,-285.8108C743.4903,-278.7087 642.2436,-263.3552 546.1639,-243.902"/>
<polygon fill="#191970" stroke="#191970" points="546.7837,-240.4564 536.2854,-241.8834 545.3822,-247.3147 546.7837,-240.4564"/>
</g>
<!-- Node20 -->
<g id="node21" class="node">
<title>Node20</title>
<polygon fill="#ffffff" stroke="#bfbfbf" points="554.5,-224.5 554.5,-243.5 611.5,-243.5 611.5,-224.5 554.5,-224.5"/>
<text text-anchor="middle" x="583" y="-231.5" font-family="Helvetica,sans-Serif" font-size="10.00" fill="#000000">strlcpy.h</text>
</g>
<!-- Node13&#45;&gt;Node20 -->
<g id="edge22" class="edge">
<title>Node13&#45;&gt;Node20</title>
<path fill="none" stroke="#191970" d="M792.2996,-283.518C754.8562,-275.2774 688.279,-260.3982 621.4647,-244.0557"/>
<polygon fill="#191970" stroke="#191970" points="622.1548,-240.6212 611.6086,-241.6345 620.4849,-247.4191 622.1548,-240.6212"/>
</g>
<!-- Node21 -->
<g id="node22" class="node">
<title>Node21</title>
<polygon fill="#ffffff" stroke="#bfbfbf" points="906,-168.5 906,-187.5 956,-187.5 956,-168.5 906,-168.5"/>
<text text-anchor="middle" x="931" y="-175.5" font-family="Helvetica,sans-Serif" font-size="10.00" fill="#000000">atomic</text>
</g>
<!-- Node13&#45;&gt;Node21 -->
<g id="edge23" class="edge">
<title>Node13&#45;&gt;Node21</title>
<path fill="none" stroke="#191970" d="M851.7722,-285.6261C893.1229,-278.8729 964.6104,-264.5091 980,-244 992.8815,-226.8333 973.7177,-207.0588 955.7138,-193.6648"/>
<polygon fill="#191970" stroke="#191970" points="957.3129,-190.5118 947.1142,-187.6416 953.297,-196.2453 957.3129,-190.5118"/>
</g>
<!-- Node22 -->
<g id="node23" class="node">
<title>Node22</title>
<polygon fill="#ffffff" stroke="#bfbfbf" points="762,-224.5 762,-243.5 812,-243.5 812,-224.5 762,-224.5"/>
<text text-anchor="middle" x="787" y="-231.5" font-family="Helvetica,sans-Serif" font-size="10.00" fill="#000000">stdio.h</text>
</g>
<!-- Node13&#45;&gt;Node22 -->
<g id="edge24" class="edge">
<title>Node13&#45;&gt;Node22</title>
<path fill="none" stroke="#191970" d="M815.9035,-280.2455C811.0855,-272.5367 804.2249,-261.5598 798.3968,-252.2348"/>
<polygon fill="#191970" stroke="#191970" points="801.2947,-250.2677 793.0267,-243.6427 795.3587,-253.9777 801.2947,-250.2677"/>
</g>
<!-- Node23 -->
<g id="node24" class="node">
<title>Node23</title>
<polygon fill="#ffffff" stroke="#bfbfbf" points="830.5,-224.5 830.5,-243.5 883.5,-243.5 883.5,-224.5 830.5,-224.5"/>
<text text-anchor="middle" x="857" y="-231.5" font-family="Helvetica,sans-Serif" font-size="10.00" fill="#000000">string.h</text>
</g>
<!-- Node13&#45;&gt;Node23 -->
<g id="edge25" class="edge">
<title>Node13&#45;&gt;Node23</title>
<path fill="none" stroke="#191970" d="M828.0965,-280.2455C832.9145,-272.5367 839.7751,-261.5598 845.6032,-252.2348"/>
<polygon fill="#191970" stroke="#191970" points="848.6413,-253.9777 850.9733,-243.6427 842.7053,-250.2677 848.6413,-253.9777"/>
</g>
<!-- Node24 -->
<g id="node25" class="node">
<title>Node24</title>
<polygon fill="#ffffff" stroke="#bfbfbf" points="974.5,-168.5 974.5,-187.5 1031.5,-187.5 1031.5,-168.5 974.5,-168.5"/>
<text text-anchor="middle" x="1003" y="-175.5" font-family="Helvetica,sans-Serif" font-size="10.00" fill="#000000">typeinfo</text>
</g>
<!-- Node13&#45;&gt;Node24 -->
<g id="edge26" class="edge">
<title>Node13&#45;&gt;Node24</title>
<path fill="none" stroke="#191970" d="M851.8359,-286.2055C896.4697,-279.882 977.3855,-265.7003 996,-244 1006.7608,-231.4553 1007.6606,-212.2482 1006.3714,-197.783"/>
<polygon fill="#191970" stroke="#191970" points="1009.8386,-197.3036 1005.0859,-187.8345 1002.8964,-198.2006 1009.8386,-197.3036"/>
</g>
<!-- Node25 -->
<g id="node26" class="node">
<title>Node25</title>
<polygon fill="#ffffff" stroke="#bfbfbf" points="901.5,-224.5 901.5,-243.5 970.5,-243.5 970.5,-224.5 901.5,-224.5"/>
<text text-anchor="middle" x="936" y="-231.5" font-family="Helvetica,sans-Serif" font-size="10.00" fill="#000000">type_traits</text>
</g>
<!-- Node13&#45;&gt;Node25 -->
<g id="edge27" class="edge">
<title>Node13&#45;&gt;Node25</title>
<path fill="none" stroke="#191970" d="M841.5973,-280.3733C859.7331,-271.4644 886.9135,-258.1127 907.4587,-248.0203"/>
<polygon fill="#191970" stroke="#191970" points="909.2261,-251.0517 916.6584,-243.5011 906.1397,-244.7688 909.2261,-251.0517"/>
</g>
<!-- Node26 -->
<g id="node27" class="node">
<title>Node26</title>
<g id="a_node27"><a xlink:href="TGenericClassInfo_8h.html" target="_top" xlink:title="TGenericClassInfo.h">
<polygon fill="#ffffff" stroke="#000000" points="630,-224.5 630,-243.5 744,-243.5 744,-224.5 630,-224.5"/>
<text text-anchor="middle" x="687" y="-231.5" font-family="Helvetica,sans-Serif" font-size="10.00" fill="#000000">TGenericClassInfo.h</text>
</a>
</g>
</g>
<!-- Node13&#45;&gt;Node26 -->
<g id="edge28" class="edge">
<title>Node13&#45;&gt;Node26</title>
<path fill="none" stroke="#191970" d="M793.5506,-280.3733C770.016,-271.3435 737.0299,-257.7494 713.927,-247.6111"/>
<polygon fill="#191970" stroke="#191970" points="715.2466,-244.3675 704.6872,-243.5011 712.4016,-250.7633 715.2466,-244.3675"/>
</g>
<!-- Node28 -->
<g id="node29" class="node">
<title>Node28</title>
<g id="a_node29"><a xlink:href="TIsAProxy_8h.html" target="_top" xlink:title="TIsAProxy.h">
<polygon fill="#ffffff" stroke="#000000" points="1065.5,-224.5 1065.5,-243.5 1138.5,-243.5 1138.5,-224.5 1065.5,-224.5"/>
<text text-anchor="middle" x="1102" y="-231.5" font-family="Helvetica,sans-Serif" font-size="10.00" fill="#000000">TIsAProxy.h</text>
</a>
</g>
</g>
<!-- Node13&#45;&gt;Node28 -->
<g id="edge34" class="edge">
<title>Node13&#45;&gt;Node28</title>
<path fill="none" stroke="#191970" d="M851.6998,-284.06C900.2947,-274.3411 997.1743,-254.9651 1055.1178,-243.3764"/>
<polygon fill="#191970" stroke="#191970" points="1055.9955,-246.7703 1065.1148,-241.377 1054.6226,-239.9062 1055.9955,-246.7703"/>
</g>
<!-- Node15 -->
<g id="node16" class="node">
<title>Node15</title>
<g id="a_node16"><a xlink:href="RConfig_8hxx.html" target="_top" xlink:title="ROOT/RConfig.hxx">
<polygon fill="#ffffff" stroke="#000000" points="1051.5,-56.5 1051.5,-75.5 1156.5,-75.5 1156.5,-56.5 1051.5,-56.5"/>
<text text-anchor="middle" x="1104" y="-63.5" font-family="Helvetica,sans-Serif" font-size="10.00" fill="#000000">ROOT/RConfig.hxx</text>
</a>
</g>
</g>
<!-- Node14&#45;&gt;Node15 -->
<g id="edge16" class="edge">
<title>Node14&#45;&gt;Node15</title>
<path fill="none" stroke="#191970" d="M1169.2393,-112.2455C1157.3448,-103.814 1139.935,-91.4729 1126.0915,-81.6598"/>
<polygon fill="#191970" stroke="#191970" points="1127.7854,-78.5704 1117.6031,-75.6427 1123.7372,-84.2811 1127.7854,-78.5704"/>
</g>
<!-- Node17 -->
<g id="node18" class="node">
<title>Node17</title>
<polygon fill="#ffffff" stroke="#bfbfbf" points="1175,-56.5 1175,-75.5 1231,-75.5 1231,-56.5 1175,-56.5"/>
<text text-anchor="middle" x="1203" y="-63.5" font-family="Helvetica,sans-Serif" font-size="10.00" fill="#000000">stddef.h</text>
</g>
<!-- Node14&#45;&gt;Node17 -->
<g id="edge19" class="edge">
<title>Node14&#45;&gt;Node17</title>
<path fill="none" stroke="#191970" d="M1186.4837,-112.2455C1189.1508,-104.7776 1192.9133,-94.2427 1196.1737,-85.1137"/>
<polygon fill="#191970" stroke="#191970" points="1199.4889,-86.2373 1199.5562,-75.6427 1192.8967,-83.8829 1199.4889,-86.2373"/>
</g>
<!-- Node15&#45;&gt;Node12 -->
<g id="edge18" class="edge">
<title>Node15&#45;&gt;Node12</title>
<path fill="none" stroke="#191970" d="M1125.4883,-56.3733C1145.644,-47.3435 1175.988,-33.7494 1198.618,-23.6111"/>
<polygon fill="#191970" stroke="#191970" points="1200.0971,-26.7838 1207.7921,-19.5011 1197.2351,-20.3955 1200.0971,-26.7838"/>
</g>
<!-- Node16 -->
<g id="node17" class="node">
<title>Node16</title>
<g id="a_node17"><a xlink:href="RVersion_8h.html" target="_top" xlink:title="../RVersion.h">
<polygon fill="#ffffff" stroke="#000000" points="1065.5,-.5 1065.5,-19.5 1142.5,-19.5 1142.5,-.5 1065.5,-.5"/>
<text text-anchor="middle" x="1104" y="-7.5" font-family="Helvetica,sans-Serif" font-size="10.00" fill="#000000">../RVersion.h</text>
</a>
</g>
</g>
<!-- Node15&#45;&gt;Node16 -->
<g id="edge17" class="edge">
<title>Node15&#45;&gt;Node16</title>
<path fill="none" stroke="#191970" d="M1104,-56.2455C1104,-48.9382 1104,-38.6944 1104,-29.7046"/>
<polygon fill="#191970" stroke="#191970" points="1107.5001,-29.6426 1104,-19.6427 1100.5001,-29.6427 1107.5001,-29.6426"/>
</g>
<!-- Node26&#45;&gt;Node2 -->
<g id="edge29" class="edge">
<title>Node26&#45;&gt;Node2</title>
<path fill="none" stroke="#191970" d="M650.5559,-224.3733C610.5634,-213.8092 546.9207,-196.9979 508.2458,-186.7819"/>
<polygon fill="#191970" stroke="#191970" points="509.0727,-183.3804 498.5105,-184.2103 507.285,-190.1482 509.0727,-183.3804"/>
</g>
<!-- Node26&#45;&gt;Node13 -->
<g id="edge33" class="edge">
<title>Node26&#45;&gt;Node13</title>
<path fill="none" stroke="#191970" d="M715.1218,-243.5011C738.5682,-252.4883 771.5558,-266.0771 794.7502,-276.2473"/>
<polygon fill="#191970" stroke="#191970" points="793.475,-279.5106 804.0347,-280.3733 796.3178,-273.1138 793.475,-279.5106"/>
</g>
<!-- Node27 -->
<g id="node28" class="node">
<title>Node27</title>
<g id="a_node28"><a xlink:href="TSchemaHelper_8h.html" target="_top" xlink:title="TSchemaHelper.h">
<polygon fill="#ffffff" stroke="#000000" points="636,-168.5 636,-187.5 738,-187.5 738,-168.5 636,-168.5"/>
<text text-anchor="middle" x="687" y="-175.5" font-family="Helvetica,sans-Serif" font-size="10.00" fill="#000000">TSchemaHelper.h</text>
</a>
</g>
</g>
<!-- Node26&#45;&gt;Node27 -->
<g id="edge30" class="edge">
<title>Node26&#45;&gt;Node27</title>
<path fill="none" stroke="#191970" d="M687,-224.2455C687,-216.9382 687,-206.6944 687,-197.7046"/>
<polygon fill="#191970" stroke="#191970" points="690.5001,-197.6426 687,-187.6427 683.5001,-197.6427 690.5001,-197.6426"/>
</g>
<!-- Node27&#45;&gt;Node3 -->
<g id="edge32" class="edge">
<title>Node27&#45;&gt;Node3</title>
<path fill="none" stroke="#191970" d="M635.825,-172.9811C520.51,-161.6717 243.0468,-134.4599 148.3258,-125.1703"/>
<polygon fill="#191970" stroke="#191970" points="148.5022,-121.6709 138.2083,-124.178 147.8189,-128.6375 148.5022,-121.6709"/>
</g>
<!-- Node27&#45;&gt;Node14 -->
<g id="edge31" class="edge">
<title>Node27&#45;&gt;Node14</title>
<path fill="none" stroke="#191970" d="M738.2125,-172.2179C833.4987,-161.4598 1036.9556,-138.4889 1132.0458,-127.7529"/>
<polygon fill="#191970" stroke="#191970" points="1132.454,-131.2291 1141.9982,-126.6292 1131.6686,-124.2733 1132.454,-131.2291"/>
</g>
<!-- Node28&#45;&gt;Node14 -->
<g id="edge36" class="edge">
<title>Node28&#45;&gt;Node14</title>
<path fill="none" stroke="#191970" d="M1120.9018,-224.3967C1134.7584,-216.4315 1153.0007,-203.8593 1164,-188 1173.5443,-174.2386 1178.3349,-155.7107 1180.7151,-141.7889"/>
<polygon fill="#191970" stroke="#191970" points="1184.1938,-142.1866 1182.152,-131.7904 1177.265,-141.1908 1184.1938,-142.1866"/>
</g>
<!-- Node28&#45;&gt;Node21 -->
<g id="edge37" class="edge">
<title>Node28&#45;&gt;Node21</title>
<path fill="none" stroke="#191970" d="M1072.6041,-224.3733C1042.963,-214.6663 997.2154,-199.6846 965.7854,-189.3917"/>
<polygon fill="#191970" stroke="#191970" points="966.7152,-186.0134 956.1225,-186.2273 964.5366,-192.6657 966.7152,-186.0134"/>
</g>
<!-- Node28&#45;&gt;Node24 -->
<g id="edge38" class="edge">
<title>Node28&#45;&gt;Node24</title>
<path fill="none" stroke="#191970" d="M1084.7555,-224.2455C1069.4239,-215.5731 1046.7801,-202.7645 1029.2084,-192.825"/>
<polygon fill="#191970" stroke="#191970" points="1030.4741,-189.5198 1020.0469,-187.6427 1027.0276,-195.6126 1030.4741,-189.5198"/>
</g>
<!-- Node29 -->
<g id="node30" class="node">
<title>Node29</title>
<g id="a_node30"><a xlink:href="TVirtualIsAProxy_8h.html" target="_top" xlink:title="TVirtualIsAProxy.h">
<polygon fill="#ffffff" stroke="#000000" points="1049.5,-168.5 1049.5,-187.5 1154.5,-187.5 1154.5,-168.5 1049.5,-168.5"/>
<text text-anchor="middle" x="1102" y="-175.5" font-family="Helvetica,sans-Serif" font-size="10.00" fill="#000000">TVirtualIsAProxy.h</text>
</a>
</g>
</g>
<!-- Node28&#45;&gt;Node29 -->
<g id="edge35" class="edge">
<title>Node28&#45;&gt;Node29</title>
<path fill="none" stroke="#191970" d="M1102,-224.2455C1102,-216.9382 1102,-206.6944 1102,-197.7046"/>
<polygon fill="#191970" stroke="#191970" points="1105.5001,-197.6426 1102,-187.6427 1098.5001,-197.6427 1105.5001,-197.6426"/>
</g>
</g>
</svg>
