<?xml version="1.0" encoding="UTF-8" standalone="no"?>
<!DOCTYPE svg PUBLIC "-//W3C//DTD SVG 1.1//EN"
 "http://www.w3.org/Graphics/SVG/1.1/DTD/svg11.dtd">
<!-- Generated by graphviz version 2.40.1 (0)
 -->
<!-- Title: math/minuit2/inc/Minuit2/MnLineSearch.h Pages: 1 -->
<svg width="1118pt" height="106pt"
 viewBox="0.00 0.00 1117.50 106.00" xmlns="http://www.w3.org/2000/svg" xmlns:xlink="http://www.w3.org/1999/xlink">
<g id="graph0" class="graph" transform="scale(1 1) rotate(0) translate(4 102)">
<title>math/minuit2/inc/Minuit2/MnLineSearch.h</title>
<polygon fill="#ffffff" stroke="transparent" points="-4,4 -4,-102 1113.5,-102 1113.5,4 -4,4"/>
<!-- Node20 -->
<g id="node1" class="node">
<title>Node20</title>
<polygon fill="#bfbfbf" stroke="#000000" points="545.5,-67.5 545.5,-97.5 684.5,-97.5 684.5,-67.5 545.5,-67.5"/>
<text text-anchor="start" x="553.5" y="-85.5" font-family="Helvetica,sans-Serif" font-size="10.00" fill="#000000">math/minuit2/inc/Minuit2</text>
<text text-anchor="middle" x="615" y="-74.5" font-family="Helvetica,sans-Serif" font-size="10.00" fill="#000000">/MnLineSearch.h</text>
</g>
<!-- Node21 -->
<g id="node2" class="node">
<title>Node21</title>
<g id="a_node2"><a xlink:href="FumiliBuilder_8cxx.html" target="_top" xlink:title="math/minuit2/src/FumiliBuilder.cxx">
<polygon fill="#ffffff" stroke="#000000" points="0,-6 0,-25 186,-25 186,-6 0,-6"/>
<text text-anchor="middle" x="93" y="-13" font-family="Helvetica,sans-Serif" font-size="10.00" fill="#000000">math/minuit2/src/FumiliBuilder.cxx</text>
</a>
</g>
</g>
<!-- Node20&#45;&gt;Node21 -->
<g id="edge1" class="edge">
<title>Node20&#45;&gt;Node21</title>
<path fill="none" stroke="#191970" d="M535.3923,-73.4301C450.8551,-63.6368 313.369,-47.2474 195,-31 181.6023,-29.161 167.2354,-27.0586 153.6361,-25.008"/>
<polygon fill="#191970" stroke="#191970" points="535.0985,-76.9194 545.4343,-74.5913 535.9026,-69.9657 535.0985,-76.9194"/>
</g>
<!-- Node22 -->
<g id="node3" class="node">
<title>Node22</title>
<g id="a_node3"><a xlink:href="MnLineSearch_8cxx.html" target="_top" xlink:title="math/minuit2/src/MnLineSearch.cxx">
<polygon fill="#ffffff" stroke="#000000" points="204.5,-6 204.5,-25 395.5,-25 395.5,-6 204.5,-6"/>
<text text-anchor="middle" x="300" y="-13" font-family="Helvetica,sans-Serif" font-size="10.00" fill="#000000">math/minuit2/src/MnLineSearch.cxx</text>
</a>
</g>
</g>
<!-- Node20&#45;&gt;Node22 -->
<g id="edge2" class="edge">
<title>Node20&#45;&gt;Node22</title>
<path fill="none" stroke="#191970" d="M535.6146,-65.6149C475.3416,-52.7949 394.6316,-35.628 345.0318,-25.0782"/>
<polygon fill="#191970" stroke="#191970" points="534.9726,-69.0565 545.482,-67.7136 536.4289,-62.2097 534.9726,-69.0565"/>
</g>
<!-- Node23 -->
<g id="node4" class="node">
<title>Node23</title>
<g id="a_node4"><a xlink:href="MnSeedGenerator_8cxx.html" target="_top" xlink:title="math/minuit2/src/MnSeedGenerator.cxx">
<polygon fill="#ffffff" stroke="#000000" points="413.5,-6 413.5,-25 622.5,-25 622.5,-6 413.5,-6"/>
<text text-anchor="middle" x="518" y="-13" font-family="Helvetica,sans-Serif" font-size="10.00" fill="#000000">math/minuit2/src/MnSeedGenerator.cxx</text>
</a>
</g>
</g>
<!-- Node20&#45;&gt;Node23 -->
<g id="edge3" class="edge">
<title>Node20&#45;&gt;Node23</title>
<path fill="none" stroke="#191970" d="M584.6627,-61.5454C566.9828,-49.3335 545.5392,-34.5219 531.8333,-25.055"/>
<polygon fill="#191970" stroke="#191970" points="582.772,-64.4932 592.9892,-67.2967 586.7503,-58.7335 582.772,-64.4932"/>
</g>
<!-- Node24 -->
<g id="node5" class="node">
<title>Node24</title>
<g id="a_node5"><a xlink:href="ModularFunctionMinimizer_8cxx.html" target="_top" xlink:title="math/minuit2/src/Modular\lFunctionMinimizer.cxx">
<polygon fill="#ffffff" stroke="#000000" points="641,-.5 641,-30.5 783,-30.5 783,-.5 641,-.5"/>
<text text-anchor="start" x="649" y="-18.5" font-family="Helvetica,sans-Serif" font-size="10.00" fill="#000000">math/minuit2/src/Modular</text>
<text text-anchor="middle" x="712" y="-7.5" font-family="Helvetica,sans-Serif" font-size="10.00" fill="#000000">FunctionMinimizer.cxx</text>
</a>
</g>
</g>
<!-- Node20&#45;&gt;Node24 -->
<g id="edge4" class="edge">
<title>Node20&#45;&gt;Node24</title>
<path fill="none" stroke="#191970" d="M645.6246,-61.3469C660.0578,-51.3776 676.9467,-39.7121 690.0763,-30.6432"/>
<polygon fill="#191970" stroke="#191970" points="643.2497,-58.7335 637.0108,-67.2967 647.228,-64.4932 643.2497,-58.7335"/>
</g>
<!-- Node25 -->
<g id="node6" class="node">
<title>Node25</title>
<g id="a_node6"><a xlink:href="NegativeG2LineSearch_8cxx.html" target="_top" xlink:title="math/minuit2/src/Negative\lG2LineSearch.cxx">
<polygon fill="#ffffff" stroke="#000000" points="801.5,-.5 801.5,-30.5 948.5,-30.5 948.5,-.5 801.5,-.5"/>
<text text-anchor="start" x="809.5" y="-18.5" font-family="Helvetica,sans-Serif" font-size="10.00" fill="#000000">math/minuit2/src/Negative</text>
<text text-anchor="middle" x="875" y="-7.5" font-family="Helvetica,sans-Serif" font-size="10.00" fill="#000000">G2LineSearch.cxx</text>
</a>
</g>
</g>
<!-- Node20&#45;&gt;Node25 -->
<g id="edge5" class="edge">
<title>Node20&#45;&gt;Node25</title>
<path fill="none" stroke="#191970" d="M683.0851,-64.955C724.4942,-54.2842 776.8382,-40.7955 816.3964,-30.6017"/>
<polygon fill="#191970" stroke="#191970" points="682.1593,-61.5791 673.3491,-67.4639 683.9061,-68.3577 682.1593,-61.5791"/>
</g>
<!-- Node26 -->
<g id="node7" class="node">
<title>Node26</title>
<g id="a_node7"><a xlink:href="VariableMetricBuilder_8cxx.html" target="_top" xlink:title="math/minuit2/src/Variable\lMetricBuilder.cxx">
<polygon fill="#ffffff" stroke="#000000" points="966.5,-.5 966.5,-30.5 1109.5,-30.5 1109.5,-.5 966.5,-.5"/>
<text text-anchor="start" x="974.5" y="-18.5" font-family="Helvetica,sans-Serif" font-size="10.00" fill="#000000">math/minuit2/src/Variable</text>
<text text-anchor="middle" x="1038" y="-7.5" font-family="Helvetica,sans-Serif" font-size="10.00" fill="#000000">MetricBuilder.cxx</text>
</a>
</g>
</g>
<!-- Node20&#45;&gt;Node26 -->
<g id="edge6" class="edge">
<title>Node20&#45;&gt;Node26</title>
<path fill="none" stroke="#191970" d="M694.7919,-71.4953C764.4068,-61.6615 868.063,-46.4573 958,-31 960.7885,-30.5207 963.6297,-30.0218 966.4981,-29.5091"/>
<polygon fill="#191970" stroke="#191970" points="694.1875,-68.0458 684.7736,-72.9066 695.1641,-74.9774 694.1875,-68.0458"/>
</g>
</g>
</svg>
