<?xml version="1.0" encoding="UTF-8" standalone="no"?>
<!DOCTYPE svg PUBLIC "-//W3C//DTD SVG 1.1//EN"
 "http://www.w3.org/Graphics/SVG/1.1/DTD/svg11.dtd">
<!-- Generated by graphviz version 2.40.1 (0)
 -->
<!-- Title: math/minuit2/inc/Minuit2/ModularFunctionMinimizer.h Pages: 1 -->
<svg width="201pt" height="151pt"
 viewBox="0.00 0.00 201.27 151.00" xmlns="http://www.w3.org/2000/svg" xmlns:xlink="http://www.w3.org/1999/xlink">
<g id="graph0" class="graph" transform="scale(1 1) rotate(0) translate(4 147)">
<title>math/minuit2/inc/Minuit2/ModularFunctionMinimizer.h</title>
<polygon fill="#ffffff" stroke="transparent" points="-4,4 -4,-147 197.2659,-147 197.2659,4 -4,4"/>
<!-- Node0 -->
<g id="node1" class="node">
<title>Node0</title>
<polygon fill="#bfbfbf" stroke="#000000" points="27.5,-112.5 27.5,-142.5 182.5,-142.5 182.5,-112.5 27.5,-112.5"/>
<text text-anchor="start" x="35.5" y="-130.5" font-family="Helvetica,sans-Serif" font-size="10.00" fill="#000000">math/minuit2/inc/Minuit2</text>
<text text-anchor="middle" x="105" y="-119.5" font-family="Helvetica,sans-Serif" font-size="10.00" fill="#000000">/ModularFunctionMinimizer.h</text>
</g>
<!-- Node1 -->
<g id="node2" class="node">
<title>Node1</title>
<g id="a_node2"><a xlink:href="MnConfig_8h.html" target="_top" xlink:title="Minuit2/MnConfig.h">
<polygon fill="#ffffff" stroke="#000000" points="0,-.5 0,-19.5 110,-19.5 110,-.5 0,-.5"/>
<text text-anchor="middle" x="55" y="-7.5" font-family="Helvetica,sans-Serif" font-size="10.00" fill="#000000">Minuit2/MnConfig.h</text>
</a>
</g>
</g>
<!-- Node0&#45;&gt;Node1 -->
<g id="edge1" class="edge">
<title>Node0&#45;&gt;Node1</title>
<path fill="none" stroke="#191970" d="M62.6841,-112.4897C46.3193,-104.3701 29.3156,-92.5362 20,-76 10.7407,-59.5637 23.3021,-40.4984 35.8773,-27.0976"/>
<polygon fill="#191970" stroke="#191970" points="38.4769,-29.449 43.1181,-19.9247 33.5506,-24.4759 38.4769,-29.449"/>
</g>
<!-- Node2 -->
<g id="node3" class="node">
<title>Node2</title>
<g id="a_node3"><a xlink:href="FunctionMinimizer_8h.html" target="_top" xlink:title="Minuit2/FunctionMinimizer.h">
<polygon fill="#ffffff" stroke="#000000" points="29,-56.5 29,-75.5 181,-75.5 181,-56.5 29,-56.5"/>
<text text-anchor="middle" x="105" y="-63.5" font-family="Helvetica,sans-Serif" font-size="10.00" fill="#000000">Minuit2/FunctionMinimizer.h</text>
</a>
</g>
</g>
<!-- Node0&#45;&gt;Node2 -->
<g id="edge2" class="edge">
<title>Node0&#45;&gt;Node2</title>
<path fill="none" stroke="#191970" d="M105,-112.2977C105,-104.3834 105,-94.6043 105,-86.0759"/>
<polygon fill="#191970" stroke="#191970" points="108.5001,-85.8469 105,-75.8469 101.5001,-85.847 108.5001,-85.8469"/>
</g>
<!-- Node3 -->
<g id="node4" class="node">
<title>Node3</title>
<polygon fill="#ffffff" stroke="#bfbfbf" points="131.5,-.5 131.5,-19.5 178.5,-19.5 178.5,-.5 131.5,-.5"/>
<text text-anchor="middle" x="155" y="-7.5" font-family="Helvetica,sans-Serif" font-size="10.00" fill="#000000">vector</text>
</g>
<!-- Node0&#45;&gt;Node3 -->
<g id="edge5" class="edge">
<title>Node0&#45;&gt;Node3</title>
<path fill="none" stroke="#191970" d="M147.3159,-112.4897C163.6807,-104.3701 180.6844,-92.5362 190,-76 199.2593,-59.5637 186.6979,-40.4984 174.1227,-27.0976"/>
<polygon fill="#191970" stroke="#191970" points="176.4494,-24.4759 166.8819,-19.9247 171.5231,-29.449 176.4494,-24.4759"/>
</g>
<!-- Node2&#45;&gt;Node1 -->
<g id="edge3" class="edge">
<title>Node2&#45;&gt;Node1</title>
<path fill="none" stroke="#191970" d="M96.2907,-56.2455C89.1927,-48.2958 78.9916,-36.8706 70.505,-27.3656"/>
<polygon fill="#191970" stroke="#191970" points="72.8805,-24.771 63.6095,-19.6427 67.6589,-29.4331 72.8805,-24.771"/>
</g>
<!-- Node2&#45;&gt;Node3 -->
<g id="edge4" class="edge">
<title>Node2&#45;&gt;Node3</title>
<path fill="none" stroke="#191970" d="M113.7093,-56.2455C120.8073,-48.2958 131.0084,-36.8706 139.495,-27.3656"/>
<polygon fill="#191970" stroke="#191970" points="142.3411,-29.4331 146.3905,-19.6427 137.1195,-24.771 142.3411,-29.4331"/>
</g>
</g>
</svg>
