<?xml version="1.0" encoding="UTF-8" standalone="no"?>
<!DOCTYPE svg PUBLIC "-//W3C//DTD SVG 1.1//EN"
 "http://www.w3.org/Graphics/SVG/1.1/DTD/svg11.dtd">
<!-- Generated by graphviz version 2.40.1 (0)
 -->
<!-- Title: math/minuit2/inc/Minuit2/MPIProcess.h Pages: 1 -->
<svg width="710pt" height="106pt"
 viewBox="0.00 0.00 709.50 106.00" xmlns="http://www.w3.org/2000/svg" xmlns:xlink="http://www.w3.org/1999/xlink">
<g id="graph0" class="graph" transform="scale(1 1) rotate(0) translate(4 102)">
<title>math/minuit2/inc/Minuit2/MPIProcess.h</title>
<polygon fill="#ffffff" stroke="transparent" points="-4,4 -4,-102 705.5,-102 705.5,4 -4,4"/>
<!-- Node20 -->
<g id="node1" class="node">
<title>Node20</title>
<polygon fill="#bfbfbf" stroke="#000000" points="269.5,-67.5 269.5,-97.5 408.5,-97.5 408.5,-67.5 269.5,-67.5"/>
<text text-anchor="start" x="277.5" y="-85.5" font-family="Helvetica,sans-Serif" font-size="10.00" fill="#000000">math/minuit2/inc/Minuit2</text>
<text text-anchor="middle" x="339" y="-74.5" font-family="Helvetica,sans-Serif" font-size="10.00" fill="#000000">/MPIProcess.h</text>
</g>
<!-- Node21 -->
<g id="node2" class="node">
<title>Node21</title>
<g id="a_node2"><a xlink:href="HessianGradientCalculator_8cxx.html" target="_top" xlink:title="math/minuit2/src/Hessian\lGradientCalculator.cxx">
<polygon fill="#ffffff" stroke="#000000" points="0,-.5 0,-30.5 142,-30.5 142,-.5 0,-.5"/>
<text text-anchor="start" x="8" y="-18.5" font-family="Helvetica,sans-Serif" font-size="10.00" fill="#000000">math/minuit2/src/Hessian</text>
<text text-anchor="middle" x="71" y="-7.5" font-family="Helvetica,sans-Serif" font-size="10.00" fill="#000000">GradientCalculator.cxx</text>
</a>
</g>
</g>
<!-- Node20&#45;&gt;Node21 -->
<g id="edge1" class="edge">
<title>Node20&#45;&gt;Node21</title>
<path fill="none" stroke="#191970" d="M269.0899,-65.0225C226.3645,-54.3411 172.2682,-40.8171 131.4068,-30.6017"/>
<polygon fill="#191970" stroke="#191970" points="268.3052,-68.434 278.8556,-67.4639 270.003,-61.643 268.3052,-68.434"/>
</g>
<!-- Node22 -->
<g id="node3" class="node">
<title>Node22</title>
<g id="a_node3"><a xlink:href="MnHesse_8cxx.html" target="_top" xlink:title="math/minuit2/src/MnHesse.cxx">
<polygon fill="#ffffff" stroke="#000000" points="160.5,-6 160.5,-25 327.5,-25 327.5,-6 160.5,-6"/>
<text text-anchor="middle" x="244" y="-13" font-family="Helvetica,sans-Serif" font-size="10.00" fill="#000000">math/minuit2/src/MnHesse.cxx</text>
</a>
</g>
</g>
<!-- Node20&#45;&gt;Node22 -->
<g id="edge2" class="edge">
<title>Node20&#45;&gt;Node22</title>
<path fill="none" stroke="#191970" d="M308.8151,-61.2117C291.5916,-49.0646 270.8493,-34.4358 257.5481,-25.055"/>
<polygon fill="#191970" stroke="#191970" points="307.2537,-64.3934 317.443,-67.2967 311.2882,-58.6729 307.2537,-64.3934"/>
</g>
<!-- Node23 -->
<g id="node4" class="node">
<title>Node23</title>
<g id="a_node4"><a xlink:href="MPIProcess_8cxx.html" target="_top" xlink:title="math/minuit2/src/MPIProcess.cxx">
<polygon fill="#ffffff" stroke="#000000" points="346,-6 346,-25 524,-25 524,-6 346,-6"/>
<text text-anchor="middle" x="435" y="-13" font-family="Helvetica,sans-Serif" font-size="10.00" fill="#000000">math/minuit2/src/MPIProcess.cxx</text>
</a>
</g>
</g>
<!-- Node20&#45;&gt;Node23 -->
<g id="edge3" class="edge">
<title>Node20&#45;&gt;Node23</title>
<path fill="none" stroke="#191970" d="M369.0245,-61.5454C386.5222,-49.3335 407.7448,-34.5219 421.3093,-25.055"/>
<polygon fill="#191970" stroke="#191970" points="366.9811,-58.7033 360.7839,-67.2967 370.9874,-64.4436 366.9811,-58.7033"/>
</g>
<!-- Node24 -->
<g id="node5" class="node">
<title>Node24</title>
<g id="a_node5"><a xlink:href="Numerical2PGradientCalculator_8cxx.html" target="_top" xlink:title="math/minuit2/src/Numerical2\lPGradientCalculator.cxx">
<polygon fill="#ffffff" stroke="#000000" points="542.5,-.5 542.5,-30.5 701.5,-30.5 701.5,-.5 542.5,-.5"/>
<text text-anchor="start" x="550.5" y="-18.5" font-family="Helvetica,sans-Serif" font-size="10.00" fill="#000000">math/minuit2/src/Numerical2</text>
<text text-anchor="middle" x="622" y="-7.5" font-family="Helvetica,sans-Serif" font-size="10.00" fill="#000000">PGradientCalculator.cxx</text>
</a>
</g>
</g>
<!-- Node20&#45;&gt;Node24 -->
<g id="edge4" class="edge">
<title>Node20&#45;&gt;Node24</title>
<path fill="none" stroke="#191970" d="M412.2537,-65.1573C457.4584,-54.4551 514.8821,-40.8601 558.2123,-30.6017"/>
<polygon fill="#191970" stroke="#191970" points="411.4354,-61.7542 402.5107,-67.4639 413.0481,-68.5659 411.4354,-61.7542"/>
</g>
</g>
</svg>
