<?xml version="1.0" encoding="UTF-8" standalone="no"?>
<!DOCTYPE svg PUBLIC "-//W3C//DTD SVG 1.1//EN"
 "http://www.w3.org/Graphics/SVG/1.1/DTD/svg11.dtd">
<!-- Generated by graphviz version 2.40.1 (0)
 -->
<!-- Title: tmva/tmvagui/inc/TMVA/network.h Pages: 1 -->
<svg width="364pt" height="162pt"
 viewBox="0.00 0.00 363.50 162.00" xmlns="http://www.w3.org/2000/svg" xmlns:xlink="http://www.w3.org/1999/xlink">
<g id="graph0" class="graph" transform="scale(1 1) rotate(0) translate(4 158)">
<title>tmva/tmvagui/inc/TMVA/network.h</title>
<polygon fill="#ffffff" stroke="transparent" points="-4,4 -4,-158 359.5,-158 359.5,4 -4,4"/>
<!-- Node142 -->
<g id="node1" class="node">
<title>Node142</title>
<polygon fill="#bfbfbf" stroke="#000000" points="95,-123.5 95,-153.5 228,-153.5 228,-123.5 95,-123.5"/>
<text text-anchor="start" x="103" y="-141.5" font-family="Helvetica,sans-Serif" font-size="10.00" fill="#000000">tmva/tmvagui/inc/TMVA</text>
<text text-anchor="middle" x="161.5" y="-130.5" font-family="Helvetica,sans-Serif" font-size="10.00" fill="#000000">/network.h</text>
</g>
<!-- Node143 -->
<g id="node2" class="node">
<title>Node143</title>
<g id="a_node2"><a xlink:href="MovieMaker_8h.html" target="_top" xlink:title="tmva/tmvagui/inc/TMVA\l/MovieMaker.h">
<polygon fill="#ffffff" stroke="#000000" points="0,-56.5 0,-86.5 133,-86.5 133,-56.5 0,-56.5"/>
<text text-anchor="start" x="8" y="-74.5" font-family="Helvetica,sans-Serif" font-size="10.00" fill="#000000">tmva/tmvagui/inc/TMVA</text>
<text text-anchor="middle" x="66.5" y="-63.5" font-family="Helvetica,sans-Serif" font-size="10.00" fill="#000000">/MovieMaker.h</text>
</a>
</g>
</g>
<!-- Node142&#45;&gt;Node143 -->
<g id="edge1" class="edge">
<title>Node142&#45;&gt;Node143</title>
<path fill="none" stroke="#191970" d="M131.5068,-117.3469C117.3712,-107.3776 100.8305,-95.7121 87.9717,-86.6432"/>
<polygon fill="#191970" stroke="#191970" points="129.7537,-120.3934 139.943,-123.2967 133.7882,-114.6729 129.7537,-120.3934"/>
</g>
<!-- Node144 -->
<g id="node3" class="node">
<title>Node144</title>
<g id="a_node3"><a xlink:href="MovieMaker_8cxx.html" target="_top" xlink:title="tmva/tmvagui/src/MovieMaker.cxx">
<polygon fill="#ffffff" stroke="#000000" points="21,-.5 21,-19.5 206,-19.5 206,-.5 21,-.5"/>
<text text-anchor="middle" x="113.5" y="-7.5" font-family="Helvetica,sans-Serif" font-size="10.00" fill="#000000">tmva/tmvagui/src/MovieMaker.cxx</text>
</a>
</g>
</g>
<!-- Node142&#45;&gt;Node144 -->
<g id="edge3" class="edge">
<title>Node142&#45;&gt;Node144</title>
<path fill="none" stroke="#191970" d="M157.9638,-113.3401C155.0759,-96.6405 150.1911,-74.4776 142.5,-56 136.9131,-42.5777 127.5535,-28.6577 120.982,-19.6961"/>
<polygon fill="#191970" stroke="#191970" points="154.5428,-114.1121 159.5826,-123.4315 161.4545,-113.0034 154.5428,-114.1121"/>
</g>
<!-- Node145 -->
<g id="node4" class="node">
<title>Node145</title>
<g id="a_node4"><a xlink:href="network_8cxx.html" target="_top" xlink:title="tmva/tmvagui/src/network.cxx">
<polygon fill="#ffffff" stroke="#000000" points="189.5,-62 189.5,-81 355.5,-81 355.5,-62 189.5,-62"/>
<text text-anchor="middle" x="272.5" y="-69" font-family="Helvetica,sans-Serif" font-size="10.00" fill="#000000">tmva/tmvagui/src/network.cxx</text>
</a>
</g>
</g>
<!-- Node142&#45;&gt;Node145 -->
<g id="edge4" class="edge">
<title>Node142&#45;&gt;Node145</title>
<path fill="none" stroke="#191970" d="M195.1143,-118.2103C215.5157,-105.8959 240.6153,-90.7457 256.589,-81.1039"/>
<polygon fill="#191970" stroke="#191970" points="193.1632,-115.2998 186.4106,-123.4639 196.7806,-121.2927 193.1632,-115.2998"/>
</g>
<!-- Node143&#45;&gt;Node144 -->
<g id="edge2" class="edge">
<title>Node143&#45;&gt;Node144</title>
<path fill="none" stroke="#191970" d="M84.402,-48.0751C91.8818,-38.2877 100.165,-27.449 105.9747,-19.8469"/>
<polygon fill="#191970" stroke="#191970" points="81.4092,-46.2271 78.118,-56.2977 86.971,-50.4776 81.4092,-46.2271"/>
</g>
</g>
</svg>
