<?xml version="1.0" encoding="UTF-8" standalone="no"?>
<!DOCTYPE svg PUBLIC "-//W3C//DTD SVG 1.1//EN"
 "http://www.w3.org/Graphics/SVG/1.1/DTD/svg11.dtd">
<!-- Generated by graphviz version 2.40.1 (0)
 -->
<!-- Title: tmva/tmva/inc/TMVA/NeuralNet.icc Pages: 1 -->
<svg width="531pt" height="240pt"
 viewBox="0.00 0.00 530.50 240.00" xmlns="http://www.w3.org/2000/svg" xmlns:xlink="http://www.w3.org/1999/xlink">
<g id="graph0" class="graph" transform="scale(1 1) rotate(0) translate(4 236)">
<title>tmva/tmva/inc/TMVA/NeuralNet.icc</title>
<polygon fill="#ffffff" stroke="transparent" points="-4,4 -4,-236 526.5,-236 526.5,4 -4,4"/>
<!-- Node122 -->
<g id="node1" class="node">
<title>Node122</title>
<polygon fill="#bfbfbf" stroke="#000000" points="207,-201.5 207,-231.5 325,-231.5 325,-201.5 207,-201.5"/>
<text text-anchor="start" x="215" y="-219.5" font-family="Helvetica,sans-Serif" font-size="10.00" fill="#000000">tmva/tmva/inc/TMVA</text>
<text text-anchor="middle" x="266" y="-208.5" font-family="Helvetica,sans-Serif" font-size="10.00" fill="#000000">/NeuralNet.icc</text>
</g>
<!-- Node123 -->
<g id="node2" class="node">
<title>Node123</title>
<g id="a_node2"><a xlink:href="NeuralNet_8h.html" target="_top" xlink:title="tmva/tmva/inc/TMVA\l/NeuralNet.h">
<polygon fill="#ffffff" stroke="#000000" points="207,-134.5 207,-164.5 325,-164.5 325,-134.5 207,-134.5"/>
<text text-anchor="start" x="215" y="-152.5" font-family="Helvetica,sans-Serif" font-size="10.00" fill="#000000">tmva/tmva/inc/TMVA</text>
<text text-anchor="middle" x="266" y="-141.5" font-family="Helvetica,sans-Serif" font-size="10.00" fill="#000000">/NeuralNet.h</text>
</a>
</g>
</g>
<!-- Node122&#45;&gt;Node123 -->
<g id="edge1" class="edge">
<title>Node122&#45;&gt;Node123</title>
<path fill="none" stroke="#191970" d="M266,-191.0249C266,-182.128 266,-172.4287 266,-164.6432"/>
<polygon fill="#191970" stroke="#191970" points="262.5001,-191.2966 266,-201.2967 269.5001,-191.2967 262.5001,-191.2966"/>
</g>
<!-- Node124 -->
<g id="node3" class="node">
<title>Node124</title>
<g id="a_node3"><a xlink:href="MethodDNN_8h.html" target="_top" xlink:title="tmva/tmva/inc/TMVA\l/MethodDNN.h">
<polygon fill="#ffffff" stroke="#000000" points="207,-67.5 207,-97.5 325,-97.5 325,-67.5 207,-67.5"/>
<text text-anchor="start" x="215" y="-85.5" font-family="Helvetica,sans-Serif" font-size="10.00" fill="#000000">tmva/tmva/inc/TMVA</text>
<text text-anchor="middle" x="266" y="-74.5" font-family="Helvetica,sans-Serif" font-size="10.00" fill="#000000">/MethodDNN.h</text>
</a>
</g>
</g>
<!-- Node123&#45;&gt;Node124 -->
<g id="edge2" class="edge">
<title>Node123&#45;&gt;Node124</title>
<path fill="none" stroke="#191970" d="M266,-124.0249C266,-115.128 266,-105.4287 266,-97.6432"/>
<polygon fill="#191970" stroke="#191970" points="262.5001,-124.2966 266,-134.2967 269.5001,-124.2967 262.5001,-124.2966"/>
</g>
<!-- Node125 -->
<g id="node4" class="node">
<title>Node125</title>
<g id="a_node4"><a xlink:href="MethodDNN_8cxx.html" target="_top" xlink:title="tmva/tmva/src/MethodDNN.cxx">
<polygon fill="#ffffff" stroke="#000000" points="0,-6 0,-25 170,-25 170,-6 0,-6"/>
<text text-anchor="middle" x="85" y="-13" font-family="Helvetica,sans-Serif" font-size="10.00" fill="#000000">tmva/tmva/src/MethodDNN.cxx</text>
</a>
</g>
</g>
<!-- Node123&#45;&gt;Node125 -->
<g id="edge6" class="edge">
<title>Node123&#45;&gt;Node125</title>
<path fill="none" stroke="#191970" d="M237.3385,-128.281C197.4779,-98.771 126.9427,-46.5515 97.9728,-25.1042"/>
<polygon fill="#191970" stroke="#191970" points="235.4691,-131.2518 245.5888,-134.389 239.6342,-125.6258 235.4691,-131.2518"/>
</g>
<!-- Node126 -->
<g id="node5" class="node">
<title>Node126</title>
<g id="a_node5"><a xlink:href="NeuralNet_8cxx.html" target="_top" xlink:title="tmva/tmva/src/NeuralNet.cxx">
<polygon fill="#ffffff" stroke="#000000" points="361.5,-6 361.5,-25 522.5,-25 522.5,-6 361.5,-6"/>
<text text-anchor="middle" x="442" y="-13" font-family="Helvetica,sans-Serif" font-size="10.00" fill="#000000">tmva/tmva/src/NeuralNet.cxx</text>
</a>
</g>
</g>
<!-- Node123&#45;&gt;Node126 -->
<g id="edge7" class="edge">
<title>Node123&#45;&gt;Node126</title>
<path fill="none" stroke="#191970" d="M294.0379,-128.3064C306.3127,-119.0174 320.8796,-107.9796 334,-98 368.5545,-71.7173 409.2299,-40.5964 429.3765,-25.1698"/>
<polygon fill="#191970" stroke="#191970" points="291.8155,-125.5989 285.9521,-134.4234 296.0387,-131.1815 291.8155,-125.5989"/>
</g>
<!-- Node124&#45;&gt;Node125 -->
<g id="edge3" class="edge">
<title>Node124&#45;&gt;Node125</title>
<path fill="none" stroke="#191970" d="M215.5847,-63.838C181.4842,-51.2151 137.8679,-35.0699 110.6785,-25.0053"/>
<polygon fill="#191970" stroke="#191970" points="214.7869,-67.2747 225.3801,-67.4639 217.217,-60.71 214.7869,-67.2747"/>
</g>
<!-- Node124&#45;&gt;Node126 -->
<g id="edge4" class="edge">
<title>Node124&#45;&gt;Node126</title>
<path fill="none" stroke="#191970" d="M315.0226,-63.838C348.1811,-51.2151 390.5925,-35.0699 417.0309,-25.0053"/>
<polygon fill="#191970" stroke="#191970" points="313.5983,-60.6351 305.4978,-67.4639 316.0888,-67.1771 313.5983,-60.6351"/>
</g>
<!-- Node127 -->
<g id="node6" class="node">
<title>Node127</title>
<g id="a_node6"><a xlink:href="VarTransformHandler_8cxx.html" target="_top" xlink:title="tmva/tmva/src/VarTransform\lHandler.cxx">
<polygon fill="#ffffff" stroke="#000000" points="188.5,-.5 188.5,-30.5 343.5,-30.5 343.5,-.5 188.5,-.5"/>
<text text-anchor="start" x="196.5" y="-18.5" font-family="Helvetica,sans-Serif" font-size="10.00" fill="#000000">tmva/tmva/src/VarTransform</text>
<text text-anchor="middle" x="266" y="-7.5" font-family="Helvetica,sans-Serif" font-size="10.00" fill="#000000">Handler.cxx</text>
</a>
</g>
</g>
<!-- Node124&#45;&gt;Node127 -->
<g id="edge5" class="edge">
<title>Node124&#45;&gt;Node127</title>
<path fill="none" stroke="#191970" d="M266,-57.0249C266,-48.128 266,-38.4287 266,-30.6432"/>
<polygon fill="#191970" stroke="#191970" points="262.5001,-57.2966 266,-67.2967 269.5001,-57.2967 262.5001,-57.2966"/>
</g>
</g>
</svg>
