<?xml version="1.0" encoding="UTF-8" standalone="no"?>
<!DOCTYPE svg PUBLIC "-//W3C//DTD SVG 1.1//EN"
 "http://www.w3.org/Graphics/SVG/1.1/DTD/svg11.dtd">
<!-- Generated by graphviz version 2.40.1 (0)
 -->
<!-- Title: tmva/tmva/src/PDEFoamCell.cxx Pages: 1 -->
<svg width="1048pt" height="588pt"
 viewBox="0.00 0.00 1048.00 588.00" xmlns="http://www.w3.org/2000/svg" xmlns:xlink="http://www.w3.org/1999/xlink">
<g id="graph0" class="graph" transform="scale(1 1) rotate(0) translate(4 584)">
<title>tmva/tmva/src/PDEFoamCell.cxx</title>
<polygon fill="#ffffff" stroke="transparent" points="-4,4 -4,-584 1044,-584 1044,4 -4,4"/>
<!-- Node0 -->
<g id="node1" class="node">
<title>Node0</title>
<polygon fill="#bfbfbf" stroke="#000000" points="560,-560.5 560,-579.5 736,-579.5 736,-560.5 560,-560.5"/>
<text text-anchor="middle" x="648" y="-567.5" font-family="Helvetica,sans-Serif" font-size="10.00" fill="#000000">tmva/tmva/src/PDEFoamCell.cxx</text>
</g>
<!-- Node1 -->
<g id="node2" class="node">
<title>Node1</title>
<g id="a_node2"><a xlink:href="PDEFoamCell_8h.html" target="_top" xlink:title="TMVA/PDEFoamCell.h">
<polygon fill="#ffffff" stroke="#000000" points="498.5,-504.5 498.5,-523.5 619.5,-523.5 619.5,-504.5 498.5,-504.5"/>
<text text-anchor="middle" x="559" y="-511.5" font-family="Helvetica,sans-Serif" font-size="10.00" fill="#000000">TMVA/PDEFoamCell.h</text>
</a>
</g>
</g>
<!-- Node0&#45;&gt;Node1 -->
<g id="edge1" class="edge">
<title>Node0&#45;&gt;Node1</title>
<path fill="none" stroke="#191970" d="M632.4974,-560.2455C618.842,-551.6534 598.7343,-539.0014 583.0011,-529.1018"/>
<polygon fill="#191970" stroke="#191970" points="584.6529,-526.006 574.325,-523.6427 580.9249,-531.9307 584.6529,-526.006"/>
</g>
<!-- Node2 -->
<g id="node3" class="node">
<title>Node2</title>
<g id="a_node3"><a xlink:href="TObject_8h.html" target="_top" xlink:title="TObject.h">
<polygon fill="#ffffff" stroke="#000000" points="552.5,-392.5 552.5,-411.5 615.5,-411.5 615.5,-392.5 552.5,-392.5"/>
<text text-anchor="middle" x="584" y="-399.5" font-family="Helvetica,sans-Serif" font-size="10.00" fill="#000000">TObject.h</text>
</a>
</g>
</g>
<!-- Node0&#45;&gt;Node2 -->
<g id="edge45" class="edge">
<title>Node0&#45;&gt;Node2</title>
<path fill="none" stroke="#191970" d="M653.4536,-560.3431C664.9235,-538.6236 688.7604,-484.9388 667,-448 657.773,-432.3369 641.0799,-421.6301 625.0712,-414.517"/>
<polygon fill="#191970" stroke="#191970" points="626.3677,-411.2659 615.7862,-410.7339 623.7263,-417.7485 626.3677,-411.2659"/>
</g>
<!-- Node4 -->
<g id="node5" class="node">
<title>Node4</title>
<g id="a_node5"><a xlink:href="Rtypes_8h.html" target="_top" xlink:title="Rtypes.h">
<polygon fill="#ffffff" stroke="#000000" points="435.5,-280.5 435.5,-299.5 494.5,-299.5 494.5,-280.5 435.5,-280.5"/>
<text text-anchor="middle" x="465" y="-287.5" font-family="Helvetica,sans-Serif" font-size="10.00" fill="#000000">Rtypes.h</text>
</a>
</g>
</g>
<!-- Node0&#45;&gt;Node4 -->
<g id="edge44" class="edge">
<title>Node0&#45;&gt;Node4</title>
<path fill="none" stroke="#191970" d="M588.1085,-560.4197C554.6543,-553.4506 512.9904,-542.0075 479,-524 439.1708,-502.8992 402,-503.0733 402,-458 402,-458 402,-458 402,-402 402,-371.4754 405.7869,-362.4634 421,-336 427.3254,-324.9969 436.8305,-314.6085 445.3895,-306.4976"/>
<polygon fill="#191970" stroke="#191970" points="447.7961,-309.0402 452.8654,-299.7369 443.1008,-303.8484 447.7961,-309.0402"/>
</g>
<!-- Node27 -->
<g id="node28" class="node">
<title>Node27</title>
<g id="a_node28"><a xlink:href="TRef_8h.html" target="_top" xlink:title="TRef.h">
<polygon fill="#ffffff" stroke="#000000" points="610.5,-448.5 610.5,-467.5 657.5,-467.5 657.5,-448.5 610.5,-448.5"/>
<text text-anchor="middle" x="634" y="-455.5" font-family="Helvetica,sans-Serif" font-size="10.00" fill="#000000">TRef.h</text>
</a>
</g>
</g>
<!-- Node0&#45;&gt;Node27 -->
<g id="edge46" class="edge">
<title>Node0&#45;&gt;Node27</title>
<path fill="none" stroke="#191970" d="M646.8064,-560.4509C644.523,-542.184 639.4944,-501.9553 636.4622,-477.6976"/>
<polygon fill="#191970" stroke="#191970" points="639.904,-477.0135 635.1906,-467.5249 632.9581,-477.8818 639.904,-477.0135"/>
</g>
<!-- Node28 -->
<g id="node29" class="node">
<title>Node28</title>
<g id="a_node29"><a xlink:href="PDEFoamVect_8h.html" target="_top" xlink:title="TMVA/PDEFoamVect.h">
<polygon fill="#ffffff" stroke="#000000" points="430.5,-448.5 430.5,-467.5 553.5,-467.5 553.5,-448.5 430.5,-448.5"/>
<text text-anchor="middle" x="492" y="-455.5" font-family="Helvetica,sans-Serif" font-size="10.00" fill="#000000">TMVA/PDEFoamVect.h</text>
</a>
</g>
</g>
<!-- Node0&#45;&gt;Node28 -->
<g id="edge41" class="edge">
<title>Node0&#45;&gt;Node28</title>
<path fill="none" stroke="#191970" d="M588.7842,-560.4607C548.8393,-552.6782 501.2594,-540.3088 489,-524 479.1142,-510.8487 481.2483,-491.7149 485.0363,-477.4312"/>
<polygon fill="#191970" stroke="#191970" points="488.4558,-478.2216 488.0836,-467.6333 481.7716,-476.1426 488.4558,-478.2216"/>
</g>
<!-- Node29 -->
<g id="node30" class="node">
<title>Node29</title>
<polygon fill="#ffffff" stroke="#bfbfbf" points="714,-504.5 714,-523.5 774,-523.5 774,-504.5 714,-504.5"/>
<text text-anchor="middle" x="744" y="-511.5" font-family="Helvetica,sans-Serif" font-size="10.00" fill="#000000">iostream</text>
</g>
<!-- Node0&#45;&gt;Node29 -->
<g id="edge42" class="edge">
<title>Node0&#45;&gt;Node29</title>
<path fill="none" stroke="#191970" d="M664.7219,-560.2455C679.5889,-551.5731 701.5466,-538.7645 718.5858,-528.825"/>
<polygon fill="#191970" stroke="#191970" points="720.5955,-531.7047 727.4697,-523.6427 717.0683,-525.6582 720.5955,-531.7047"/>
</g>
<!-- Node30 -->
<g id="node31" class="node">
<title>Node30</title>
<polygon fill="#ffffff" stroke="#bfbfbf" points="792.5,-504.5 792.5,-523.5 849.5,-523.5 849.5,-504.5 792.5,-504.5"/>
<text text-anchor="middle" x="821" y="-511.5" font-family="Helvetica,sans-Serif" font-size="10.00" fill="#000000">ostream</text>
</g>
<!-- Node0&#45;&gt;Node30 -->
<g id="edge43" class="edge">
<title>Node0&#45;&gt;Node30</title>
<path fill="none" stroke="#191970" d="M677.7398,-560.3733C706.6814,-551.0049 750.801,-536.7234 782.4285,-526.4856"/>
<polygon fill="#191970" stroke="#191970" points="783.7871,-529.7247 792.2232,-523.315 781.6313,-523.0649 783.7871,-529.7247"/>
</g>
<!-- Node1&#45;&gt;Node2 -->
<g id="edge2" class="edge">
<title>Node1&#45;&gt;Node2</title>
<path fill="none" stroke="#191970" d="M561.1315,-504.4509C565.2274,-486.1013 574.2699,-445.5908 579.6765,-421.3693"/>
<polygon fill="#191970" stroke="#191970" points="583.1112,-422.0472 581.8739,-411.5249 576.2794,-420.5222 583.1112,-422.0472"/>
</g>
<!-- Node1&#45;&gt;Node27 -->
<g id="edge37" class="edge">
<title>Node1&#45;&gt;Node27</title>
<path fill="none" stroke="#191970" d="M572.064,-504.2455C583.3562,-495.814 599.8845,-483.4729 613.0271,-473.6598"/>
<polygon fill="#191970" stroke="#191970" points="615.1669,-476.4301 621.0857,-467.6427 610.9789,-470.8211 615.1669,-476.4301"/>
</g>
<!-- Node1&#45;&gt;Node28 -->
<g id="edge39" class="edge">
<title>Node1&#45;&gt;Node28</title>
<path fill="none" stroke="#191970" d="M547.3295,-504.2455C537.4339,-495.9746 523.0373,-483.9416 511.4099,-474.2232"/>
<polygon fill="#191970" stroke="#191970" points="513.4542,-471.3703 503.5368,-467.6427 508.965,-476.7413 513.4542,-471.3703"/>
</g>
<!-- Node3 -->
<g id="node4" class="node">
<title>Node3</title>
<polygon fill="#ffffff" stroke="#bfbfbf" points="0,-.5 0,-19.5 78,-19.5 78,-.5 0,-.5"/>
<text text-anchor="middle" x="39" y="-7.5" font-family="Helvetica,sans-Serif" font-size="10.00" fill="#000000">RConfigure.h</text>
</g>
<!-- Node2&#45;&gt;Node3 -->
<g id="edge3" class="edge">
<title>Node2&#45;&gt;Node3</title>
<path fill="none" stroke="#191970" d="M552.2414,-399.3048C430.5823,-388.5625 1,-346.6219 1,-290 1,-290 1,-290 1,-122 1,-87.6118 17.2634,-50.2832 28.511,-28.5791"/>
<polygon fill="#191970" stroke="#191970" points="31.7317,-29.9804 33.393,-19.5166 25.569,-26.6605 31.7317,-29.9804"/>
</g>
<!-- Node2&#45;&gt;Node4 -->
<g id="edge4" class="edge">
<title>Node2&#45;&gt;Node4</title>
<path fill="none" stroke="#191970" d="M573.8541,-392.4509C553.5672,-373.3574 507.7866,-330.2697 482.538,-306.5063"/>
<polygon fill="#191970" stroke="#191970" points="484.801,-303.8299 475.1202,-299.5249 480.0034,-308.9273 484.801,-303.8299"/>
</g>
<!-- Node20 -->
<g id="node21" class="node">
<title>Node20</title>
<polygon fill="#ffffff" stroke="#bfbfbf" points="850,-112.5 850,-131.5 894,-131.5 894,-112.5 850,-112.5"/>
<text text-anchor="middle" x="872" y="-119.5" font-family="Helvetica,sans-Serif" font-size="10.00" fill="#000000">string</text>
</g>
<!-- Node2&#45;&gt;Node20 -->
<g id="edge35" class="edge">
<title>Node2&#45;&gt;Node20</title>
<path fill="none" stroke="#191970" d="M615.6418,-398.1434C698.2381,-387.1996 914,-352.619 914,-290 914,-290 914,-290 914,-234 914,-199.2434 896.0481,-162.0613 883.6174,-140.4811"/>
<polygon fill="#191970" stroke="#191970" points="886.5177,-138.5116 878.3789,-131.7285 880.5113,-142.1065 886.5177,-138.5116"/>
</g>
<!-- Node23 -->
<g id="node24" class="node">
<title>Node23</title>
<g id="a_node24"><a xlink:href="TStorage_8h.html" target="_top" xlink:title="TStorage.h">
<polygon fill="#ffffff" stroke="#000000" points="430.5,-336.5 430.5,-355.5 499.5,-355.5 499.5,-336.5 430.5,-336.5"/>
<text text-anchor="middle" x="465" y="-343.5" font-family="Helvetica,sans-Serif" font-size="10.00" fill="#000000">TStorage.h</text>
</a>
</g>
</g>
<!-- Node2&#45;&gt;Node23 -->
<g id="edge29" class="edge">
<title>Node2&#45;&gt;Node23</title>
<path fill="none" stroke="#191970" d="M563.5432,-392.3733C544.5262,-383.4241 515.9825,-369.9917 494.5024,-359.8835"/>
<polygon fill="#191970" stroke="#191970" points="495.7284,-356.5923 485.1899,-355.5011 492.7478,-362.926 495.7284,-356.5923"/>
</g>
<!-- Node24 -->
<g id="node25" class="node">
<title>Node24</title>
<g id="a_node25"><a xlink:href="TVersionCheck_8h.html" target="_top" xlink:title="TVersionCheck.h">
<polygon fill="#ffffff" stroke="#000000" points="942,-280.5 942,-299.5 1040,-299.5 1040,-280.5 942,-280.5"/>
<text text-anchor="middle" x="991" y="-287.5" font-family="Helvetica,sans-Serif" font-size="10.00" fill="#000000">TVersionCheck.h</text>
</a>
</g>
</g>
<!-- Node2&#45;&gt;Node24 -->
<g id="edge32" class="edge">
<title>Node2&#45;&gt;Node24</title>
<path fill="none" stroke="#191970" d="M615.6687,-400.4383C690.0323,-396.3486 873.63,-383.6722 928,-356 949.7141,-344.9484 968.078,-323.3513 979.2788,-307.8704"/>
<polygon fill="#191970" stroke="#191970" points="982.1989,-309.8013 985.0171,-299.5881 976.445,-305.8147 982.1989,-309.8013"/>
</g>
<!-- Node25 -->
<g id="node26" class="node">
<title>Node25</title>
<polygon fill="#ffffff" stroke="#bfbfbf" points="556,-336.5 556,-355.5 612,-355.5 612,-336.5 556,-336.5"/>
<text text-anchor="middle" x="584" y="-343.5" font-family="Helvetica,sans-Serif" font-size="10.00" fill="#000000">stdarg.h</text>
</g>
<!-- Node2&#45;&gt;Node25 -->
<g id="edge34" class="edge">
<title>Node2&#45;&gt;Node25</title>
<path fill="none" stroke="#191970" d="M584,-392.2455C584,-384.9382 584,-374.6944 584,-365.7046"/>
<polygon fill="#191970" stroke="#191970" points="587.5001,-365.6426 584,-355.6427 580.5001,-365.6427 587.5001,-365.6426"/>
</g>
<!-- Node26 -->
<g id="node27" class="node">
<title>Node26</title>
<polygon fill="#ffffff" stroke="#bfbfbf" points="630.5,-336.5 630.5,-355.5 679.5,-355.5 679.5,-336.5 630.5,-336.5"/>
<text text-anchor="middle" x="655" y="-343.5" font-family="Helvetica,sans-Serif" font-size="10.00" fill="#000000">iosfwd</text>
</g>
<!-- Node2&#45;&gt;Node26 -->
<g id="edge36" class="edge">
<title>Node2&#45;&gt;Node26</title>
<path fill="none" stroke="#191970" d="M596.3673,-392.2455C606.9554,-383.8943 622.4064,-371.7076 634.7893,-361.9408"/>
<polygon fill="#191970" stroke="#191970" points="637.0903,-364.5837 642.7745,-355.6427 632.7553,-359.0875 637.0903,-364.5837"/>
</g>
<!-- Node5 -->
<g id="node6" class="node">
<title>Node5</title>
<g id="a_node6"><a xlink:href="RtypesCore_8h.html" target="_top" xlink:title="RtypesCore.h">
<polygon fill="#ffffff" stroke="#000000" points="649,-112.5 649,-131.5 731,-131.5 731,-112.5 649,-112.5"/>
<text text-anchor="middle" x="690" y="-119.5" font-family="Helvetica,sans-Serif" font-size="10.00" fill="#000000">RtypesCore.h</text>
</a>
</g>
</g>
<!-- Node4&#45;&gt;Node5 -->
<g id="edge5" class="edge">
<title>Node4&#45;&gt;Node5</title>
<path fill="none" stroke="#191970" d="M494.9114,-288.6496C551.8922,-285.3834 672.6052,-274.8986 698,-244 710.4234,-228.8841 700.8043,-172.2679 694.4477,-141.7641"/>
<polygon fill="#191970" stroke="#191970" points="697.8346,-140.8669 692.3002,-131.8325 690.9927,-142.3463 697.8346,-140.8669"/>
</g>
<!-- Node9 -->
<g id="node10" class="node">
<title>Node9</title>
<g id="a_node10"><a xlink:href="DllImport_8h.html" target="_top" xlink:title="DllImport.h">
<polygon fill="#ffffff" stroke="#000000" points="461.5,-224.5 461.5,-243.5 532.5,-243.5 532.5,-224.5 461.5,-224.5"/>
<text text-anchor="middle" x="497" y="-231.5" font-family="Helvetica,sans-Serif" font-size="10.00" fill="#000000">DllImport.h</text>
</a>
</g>
</g>
<!-- Node4&#45;&gt;Node9 -->
<g id="edge10" class="edge">
<title>Node4&#45;&gt;Node9</title>
<path fill="none" stroke="#191970" d="M470.574,-280.2455C474.9331,-272.617 481.1211,-261.7881 486.4133,-252.5267"/>
<polygon fill="#191970" stroke="#191970" points="489.5673,-254.0616 491.4899,-243.6427 483.4896,-250.5886 489.5673,-254.0616"/>
</g>
<!-- Node10 -->
<g id="node11" class="node">
<title>Node10</title>
<polygon fill="#ffffff" stroke="#bfbfbf" points="551,-224.5 551,-243.5 613,-243.5 613,-224.5 551,-224.5"/>
<text text-anchor="middle" x="582" y="-231.5" font-family="Helvetica,sans-Serif" font-size="10.00" fill="#000000">snprintf.h</text>
</g>
<!-- Node4&#45;&gt;Node10 -->
<g id="edge11" class="edge">
<title>Node4&#45;&gt;Node10</title>
<path fill="none" stroke="#191970" d="M485.113,-280.3733C503.8103,-271.4241 531.8744,-257.9917 552.9934,-247.8835"/>
<polygon fill="#191970" stroke="#191970" points="554.6405,-250.9755 562.1494,-243.5011 551.6183,-244.6614 554.6405,-250.9755"/>
</g>
<!-- Node11 -->
<g id="node12" class="node">
<title>Node11</title>
<polygon fill="#ffffff" stroke="#bfbfbf" points="631.5,-224.5 631.5,-243.5 688.5,-243.5 688.5,-224.5 631.5,-224.5"/>
<text text-anchor="middle" x="660" y="-231.5" font-family="Helvetica,sans-Serif" font-size="10.00" fill="#000000">strlcpy.h</text>
</g>
<!-- Node4&#45;&gt;Node11 -->
<g id="edge12" class="edge">
<title>Node4&#45;&gt;Node11</title>
<path fill="none" stroke="#191970" d="M494.6163,-281.4948C528.5074,-271.762 584.1226,-255.7904 621.3871,-245.0888"/>
<polygon fill="#191970" stroke="#191970" points="622.7322,-248.3441 631.3777,-242.2198 620.8,-241.616 622.7322,-248.3441"/>
</g>
<!-- Node12 -->
<g id="node13" class="node">
<title>Node12</title>
<polygon fill="#ffffff" stroke="#bfbfbf" points="408,-168.5 408,-187.5 458,-187.5 458,-168.5 408,-168.5"/>
<text text-anchor="middle" x="433" y="-175.5" font-family="Helvetica,sans-Serif" font-size="10.00" fill="#000000">atomic</text>
</g>
<!-- Node4&#45;&gt;Node12 -->
<g id="edge13" class="edge">
<title>Node4&#45;&gt;Node12</title>
<path fill="none" stroke="#191970" d="M462.2717,-280.4509C457.0289,-262.1013 445.4545,-221.5908 438.5341,-197.3693"/>
<polygon fill="#191970" stroke="#191970" points="441.834,-196.1786 435.7214,-187.5249 435.1033,-198.1017 441.834,-196.1786"/>
</g>
<!-- Node13 -->
<g id="node14" class="node">
<title>Node13</title>
<polygon fill="#ffffff" stroke="#bfbfbf" points="105,-224.5 105,-243.5 155,-243.5 155,-224.5 105,-224.5"/>
<text text-anchor="middle" x="130" y="-231.5" font-family="Helvetica,sans-Serif" font-size="10.00" fill="#000000">stdio.h</text>
</g>
<!-- Node4&#45;&gt;Node13 -->
<g id="edge14" class="edge">
<title>Node4&#45;&gt;Node13</title>
<path fill="none" stroke="#191970" d="M435.2752,-286.8008C382.6776,-280.8524 269.6577,-266.7803 165.2296,-244.0355"/>
<polygon fill="#191970" stroke="#191970" points="165.6727,-240.549 155.1528,-241.8073 164.1613,-247.3839 165.6727,-240.549"/>
</g>
<!-- Node14 -->
<g id="node15" class="node">
<title>Node14</title>
<polygon fill="#ffffff" stroke="#bfbfbf" points="173.5,-224.5 173.5,-243.5 226.5,-243.5 226.5,-224.5 173.5,-224.5"/>
<text text-anchor="middle" x="200" y="-231.5" font-family="Helvetica,sans-Serif" font-size="10.00" fill="#000000">string.h</text>
</g>
<!-- Node4&#45;&gt;Node14 -->
<g id="edge15" class="edge">
<title>Node4&#45;&gt;Node14</title>
<path fill="none" stroke="#191970" d="M435.4239,-284.8758C393.2778,-277.4027 313.3397,-262.5977 236.5291,-244.2419"/>
<polygon fill="#191970" stroke="#191970" points="237.2361,-240.8121 226.6939,-241.8674 235.5933,-247.6166 237.2361,-240.8121"/>
</g>
<!-- Node15 -->
<g id="node16" class="node">
<title>Node15</title>
<polygon fill="#ffffff" stroke="#bfbfbf" points="119.5,-168.5 119.5,-187.5 176.5,-187.5 176.5,-168.5 119.5,-168.5"/>
<text text-anchor="middle" x="148" y="-175.5" font-family="Helvetica,sans-Serif" font-size="10.00" fill="#000000">typeinfo</text>
</g>
<!-- Node4&#45;&gt;Node15 -->
<g id="edge16" class="edge">
<title>Node4&#45;&gt;Node15</title>
<path fill="none" stroke="#191970" d="M435.4141,-288.5229C351.8106,-284.049 118.4081,-269.375 96,-244 81.1964,-227.2364 102.7738,-206.8803 122.4662,-193.247"/>
<polygon fill="#191970" stroke="#191970" points="124.5225,-196.0839 130.9607,-187.6696 120.6805,-190.2325 124.5225,-196.0839"/>
</g>
<!-- Node16 -->
<g id="node17" class="node">
<title>Node16</title>
<polygon fill="#ffffff" stroke="#bfbfbf" points="244.5,-224.5 244.5,-243.5 313.5,-243.5 313.5,-224.5 244.5,-224.5"/>
<text text-anchor="middle" x="279" y="-231.5" font-family="Helvetica,sans-Serif" font-size="10.00" fill="#000000">type_traits</text>
</g>
<!-- Node4&#45;&gt;Node16 -->
<g id="edge17" class="edge">
<title>Node4&#45;&gt;Node16</title>
<path fill="none" stroke="#191970" d="M435.1159,-281.0026C404.0855,-271.6601 355.3051,-256.9736 320.5343,-246.505"/>
<polygon fill="#191970" stroke="#191970" points="321.262,-243.0689 310.6775,-243.5373 319.2439,-249.7717 321.262,-243.0689"/>
</g>
<!-- Node17 -->
<g id="node18" class="node">
<title>Node17</title>
<g id="a_node18"><a xlink:href="TGenericClassInfo_8h.html" target="_top" xlink:title="TGenericClassInfo.h">
<polygon fill="#ffffff" stroke="#000000" points="745,-224.5 745,-243.5 859,-243.5 859,-224.5 745,-224.5"/>
<text text-anchor="middle" x="802" y="-231.5" font-family="Helvetica,sans-Serif" font-size="10.00" fill="#000000">TGenericClassInfo.h</text>
</a>
</g>
</g>
<!-- Node4&#45;&gt;Node17 -->
<g id="edge18" class="edge">
<title>Node4&#45;&gt;Node17</title>
<path fill="none" stroke="#191970" d="M494.5963,-284.3741C548.0516,-275.0099 661.5308,-256.0914 734.7028,-244.291"/>
<polygon fill="#191970" stroke="#191970" points="735.4325,-247.7187 744.7497,-242.6748 734.3208,-240.8075 735.4325,-247.7187"/>
</g>
<!-- Node21 -->
<g id="node22" class="node">
<title>Node21</title>
<g id="a_node22"><a xlink:href="TIsAProxy_8h.html" target="_top" xlink:title="TIsAProxy.h">
<polygon fill="#ffffff" stroke="#000000" points="331.5,-224.5 331.5,-243.5 404.5,-243.5 404.5,-224.5 331.5,-224.5"/>
<text text-anchor="middle" x="368" y="-231.5" font-family="Helvetica,sans-Serif" font-size="10.00" fill="#000000">TIsAProxy.h</text>
</a>
</g>
</g>
<!-- Node4&#45;&gt;Node21 -->
<g id="edge24" class="edge">
<title>Node4&#45;&gt;Node21</title>
<path fill="none" stroke="#191970" d="M448.1039,-280.2455C433.082,-271.5731 410.8957,-258.7645 393.679,-248.825"/>
<polygon fill="#191970" stroke="#191970" points="395.1128,-245.6114 384.7025,-243.6427 391.6129,-251.6737 395.1128,-245.6114"/>
</g>
<!-- Node6 -->
<g id="node7" class="node">
<title>Node6</title>
<g id="a_node7"><a xlink:href="RConfig_8hxx.html" target="_top" xlink:title="ROOT/RConfig.hxx">
<polygon fill="#ffffff" stroke="#000000" points="686.5,-56.5 686.5,-75.5 791.5,-75.5 791.5,-56.5 686.5,-56.5"/>
<text text-anchor="middle" x="739" y="-63.5" font-family="Helvetica,sans-Serif" font-size="10.00" fill="#000000">ROOT/RConfig.hxx</text>
</a>
</g>
</g>
<!-- Node5&#45;&gt;Node6 -->
<g id="edge6" class="edge">
<title>Node5&#45;&gt;Node6</title>
<path fill="none" stroke="#191970" d="M698.5351,-112.2455C705.4912,-104.2958 715.4883,-92.8706 723.8051,-83.3656"/>
<polygon fill="#191970" stroke="#191970" points="726.6116,-85.4732 730.5627,-75.6427 721.3436,-80.8637 726.6116,-85.4732"/>
</g>
<!-- Node8 -->
<g id="node9" class="node">
<title>Node8</title>
<polygon fill="#ffffff" stroke="#bfbfbf" points="612,-56.5 612,-75.5 668,-75.5 668,-56.5 612,-56.5"/>
<text text-anchor="middle" x="640" y="-63.5" font-family="Helvetica,sans-Serif" font-size="10.00" fill="#000000">stddef.h</text>
</g>
<!-- Node5&#45;&gt;Node8 -->
<g id="edge9" class="edge">
<title>Node5&#45;&gt;Node8</title>
<path fill="none" stroke="#191970" d="M681.2907,-112.2455C674.1927,-104.2958 663.9916,-92.8706 655.505,-83.3656"/>
<polygon fill="#191970" stroke="#191970" points="657.8805,-80.771 648.6095,-75.6427 652.6589,-85.4331 657.8805,-80.771"/>
</g>
<!-- Node6&#45;&gt;Node3 -->
<g id="edge8" class="edge">
<title>Node6&#45;&gt;Node3</title>
<path fill="none" stroke="#191970" d="M686.2787,-57.1731C683.1431,-56.7487 680.0323,-56.3532 677,-56 458.4273,-30.5435 195.9783,-16.9356 88.5278,-12.0855"/>
<polygon fill="#191970" stroke="#191970" points="88.4626,-8.5792 78.3166,-11.63 88.1506,-15.5722 88.4626,-8.5792"/>
</g>
<!-- Node7 -->
<g id="node8" class="node">
<title>Node7</title>
<g id="a_node8"><a xlink:href="RVersion_8h.html" target="_top" xlink:title="../RVersion.h">
<polygon fill="#ffffff" stroke="#000000" points="809.5,-.5 809.5,-19.5 886.5,-19.5 886.5,-.5 809.5,-.5"/>
<text text-anchor="middle" x="848" y="-7.5" font-family="Helvetica,sans-Serif" font-size="10.00" fill="#000000">../RVersion.h</text>
</a>
</g>
</g>
<!-- Node6&#45;&gt;Node7 -->
<g id="edge7" class="edge">
<title>Node6&#45;&gt;Node7</title>
<path fill="none" stroke="#191970" d="M757.9864,-56.2455C775.1792,-47.4125 800.7238,-34.2887 820.2132,-24.2758"/>
<polygon fill="#191970" stroke="#191970" points="821.9359,-27.3257 829.2312,-19.6427 818.737,-21.0993 821.9359,-27.3257"/>
</g>
<!-- Node17&#45;&gt;Node4 -->
<g id="edge23" class="edge">
<title>Node17&#45;&gt;Node4</title>
<path fill="none" stroke="#191970" d="M750.007,-243.5069C682.3338,-255.135 565.7436,-274.4602 504.7076,-284.1223"/>
<polygon fill="#191970" stroke="#191970" points="504.0266,-280.6863 494.6926,-285.6988 505.1152,-287.6011 504.0266,-280.6863"/>
</g>
<!-- Node18 -->
<g id="node19" class="node">
<title>Node18</title>
<polygon fill="#ffffff" stroke="#bfbfbf" points="718.5,-168.5 718.5,-187.5 765.5,-187.5 765.5,-168.5 718.5,-168.5"/>
<text text-anchor="middle" x="742" y="-175.5" font-family="Helvetica,sans-Serif" font-size="10.00" fill="#000000">vector</text>
</g>
<!-- Node17&#45;&gt;Node18 -->
<g id="edge19" class="edge">
<title>Node17&#45;&gt;Node18</title>
<path fill="none" stroke="#191970" d="M791.5488,-224.2455C782.7731,-216.0549 770.0446,-204.1749 759.686,-194.5069"/>
<polygon fill="#191970" stroke="#191970" points="762.0301,-191.9072 752.3314,-187.6427 757.2539,-197.0246 762.0301,-191.9072"/>
</g>
<!-- Node19 -->
<g id="node20" class="node">
<title>Node19</title>
<g id="a_node20"><a xlink:href="TSchemaHelper_8h.html" target="_top" xlink:title="TSchemaHelper.h">
<polygon fill="#ffffff" stroke="#000000" points="784,-168.5 784,-187.5 886,-187.5 886,-168.5 784,-168.5"/>
<text text-anchor="middle" x="835" y="-175.5" font-family="Helvetica,sans-Serif" font-size="10.00" fill="#000000">TSchemaHelper.h</text>
</a>
</g>
</g>
<!-- Node17&#45;&gt;Node19 -->
<g id="edge20" class="edge">
<title>Node17&#45;&gt;Node19</title>
<path fill="none" stroke="#191970" d="M807.7482,-224.2455C812.2435,-216.617 818.6248,-205.7881 824.0825,-196.5267"/>
<polygon fill="#191970" stroke="#191970" points="827.2561,-198.035 829.3177,-187.6427 821.2253,-194.4811 827.2561,-198.035"/>
</g>
<!-- Node19&#45;&gt;Node5 -->
<g id="edge21" class="edge">
<title>Node19&#45;&gt;Node5</title>
<path fill="none" stroke="#191970" d="M810.0736,-168.3733C786.3798,-159.2226 750.5489,-145.3844 724.1932,-135.2057"/>
<polygon fill="#191970" stroke="#191970" points="725.1906,-131.8389 714.6011,-131.5011 722.6686,-138.3689 725.1906,-131.8389"/>
</g>
<!-- Node19&#45;&gt;Node20 -->
<g id="edge22" class="edge">
<title>Node19&#45;&gt;Node20</title>
<path fill="none" stroke="#191970" d="M841.4449,-168.2455C846.5382,-160.5367 853.7908,-149.5598 859.952,-140.2348"/>
<polygon fill="#191970" stroke="#191970" points="863.0365,-141.9155 865.6289,-131.6427 857.1962,-138.0566 863.0365,-141.9155"/>
</g>
<!-- Node21&#45;&gt;Node5 -->
<g id="edge26" class="edge">
<title>Node21&#45;&gt;Node5</title>
<path fill="none" stroke="#191970" d="M369.6555,-224.1126C372.6814,-209.3583 380.5781,-181.8374 399,-168 435.884,-140.2949 565.263,-128.7946 638.4803,-124.4178"/>
<polygon fill="#191970" stroke="#191970" points="639.0745,-127.8896 648.8577,-123.8226 638.6737,-120.901 639.0745,-127.8896"/>
</g>
<!-- Node21&#45;&gt;Node12 -->
<g id="edge27" class="edge">
<title>Node21&#45;&gt;Node12</title>
<path fill="none" stroke="#191970" d="M379.3221,-224.2455C388.9223,-215.9746 402.8892,-203.9416 414.1695,-194.2232"/>
<polygon fill="#191970" stroke="#191970" points="416.516,-196.8214 421.8076,-187.6427 411.947,-191.5182 416.516,-196.8214"/>
</g>
<!-- Node21&#45;&gt;Node15 -->
<g id="edge28" class="edge">
<title>Node21&#45;&gt;Node15</title>
<path fill="none" stroke="#191970" d="M331.1769,-224.6269C291.0326,-214.4083 227.0907,-198.1322 186.3534,-187.7627"/>
<polygon fill="#191970" stroke="#191970" points="187.0794,-184.336 176.5251,-185.2609 185.3526,-191.1196 187.0794,-184.336"/>
</g>
<!-- Node22 -->
<g id="node23" class="node">
<title>Node22</title>
<g id="a_node23"><a xlink:href="TVirtualIsAProxy_8h.html" target="_top" xlink:title="TVirtualIsAProxy.h">
<polygon fill="#ffffff" stroke="#000000" points="246.5,-168.5 246.5,-187.5 351.5,-187.5 351.5,-168.5 246.5,-168.5"/>
<text text-anchor="middle" x="299" y="-175.5" font-family="Helvetica,sans-Serif" font-size="10.00" fill="#000000">TVirtualIsAProxy.h</text>
</a>
</g>
</g>
<!-- Node21&#45;&gt;Node22 -->
<g id="edge25" class="edge">
<title>Node21&#45;&gt;Node22</title>
<path fill="none" stroke="#191970" d="M355.9811,-224.2455C345.7902,-215.9746 330.9638,-203.9416 318.9893,-194.2232"/>
<polygon fill="#191970" stroke="#191970" points="320.8514,-191.2268 310.8812,-187.6427 316.4402,-196.662 320.8514,-191.2268"/>
</g>
<!-- Node23&#45;&gt;Node3 -->
<g id="edge30" class="edge">
<title>Node23&#45;&gt;Node3</title>
<path fill="none" stroke="#191970" d="M430.4995,-344.3339C329.0836,-338.5052 39,-314.7732 39,-234 39,-234 39,-234 39,-122 39,-89.7116 39,-52.1872 39,-29.8048"/>
<polygon fill="#191970" stroke="#191970" points="42.5001,-29.5883 39,-19.5884 35.5001,-29.5884 42.5001,-29.5883"/>
</g>
<!-- Node23&#45;&gt;Node4 -->
<g id="edge31" class="edge">
<title>Node23&#45;&gt;Node4</title>
<path fill="none" stroke="#191970" d="M465,-336.2455C465,-328.9382 465,-318.6944 465,-309.7046"/>
<polygon fill="#191970" stroke="#191970" points="468.5001,-309.6426 465,-299.6427 461.5001,-309.6427 468.5001,-309.6426"/>
</g>
<!-- Node24&#45;&gt;Node7 -->
<g id="edge33" class="edge">
<title>Node24&#45;&gt;Node7</title>
<path fill="none" stroke="#191970" d="M986.1307,-280.3939C976.9512,-261.3677 958,-217.3256 958,-178 958,-178 958,-178 958,-122 958,-76.2337 910.6699,-42.3178 878.1023,-24.3977"/>
<polygon fill="#191970" stroke="#191970" points="879.426,-21.1387 868.9491,-19.5625 876.1564,-27.3282 879.426,-21.1387"/>
</g>
<!-- Node27&#45;&gt;Node2 -->
<g id="edge38" class="edge">
<title>Node27&#45;&gt;Node2</title>
<path fill="none" stroke="#191970" d="M625.2907,-448.2455C618.1927,-440.2958 607.9916,-428.8706 599.505,-419.3656"/>
<polygon fill="#191970" stroke="#191970" points="601.8805,-416.771 592.6095,-411.6427 596.6589,-421.4331 601.8805,-416.771"/>
</g>
<!-- Node28&#45;&gt;Node2 -->
<g id="edge40" class="edge">
<title>Node28&#45;&gt;Node2</title>
<path fill="none" stroke="#191970" d="M508.0252,-448.2455C522.1408,-439.6534 542.9263,-427.0014 559.1899,-417.1018"/>
<polygon fill="#191970" stroke="#191970" points="561.4363,-419.8319 568.1585,-411.6427 557.7966,-413.8525 561.4363,-419.8319"/>
</g>
</g>
</svg>
