<?xml version="1.0" encoding="UTF-8" standalone="no"?>
<!DOCTYPE svg PUBLIC "-//W3C//DTD SVG 1.1//EN"
 "http://www.w3.org/Graphics/SVG/1.1/DTD/svg11.dtd">
<!-- Generated by graphviz version 2.40.1 (0)
 -->
<!-- Title: core/multiproc/inc/PoolUtils.h Pages: 1 -->
<svg width="1295pt" height="508pt"
 viewBox="0.00 0.00 1295.13 508.00" xmlns="http://www.w3.org/2000/svg" xmlns:xlink="http://www.w3.org/1999/xlink">
<g id="graph0" class="graph" transform="scale(1 1) rotate(0) translate(4 504)">
<title>core/multiproc/inc/PoolUtils.h</title>
<polygon fill="#ffffff" stroke="transparent" points="-4,4 -4,-504 1291.1324,-504 1291.1324,4 -4,4"/>
<!-- Node53 -->
<g id="node1" class="node">
<title>Node53</title>
<polygon fill="#bfbfbf" stroke="#000000" points="820,-469.5 820,-499.5 924,-499.5 924,-469.5 820,-469.5"/>
<text text-anchor="start" x="828" y="-487.5" font-family="Helvetica,sans-Serif" font-size="10.00" fill="#000000">core/multiproc/inc</text>
<text text-anchor="middle" x="872" y="-476.5" font-family="Helvetica,sans-Serif" font-size="10.00" fill="#000000">/PoolUtils.h</text>
</g>
<!-- Node54 -->
<g id="node2" class="node">
<title>Node54</title>
<g id="a_node2"><a xlink:href="TProcessExecutor_8hxx.html" target="_top" xlink:title="core/multiproc/inc\l/ROOT/TProcessExecutor.hxx">
<polygon fill="#ffffff" stroke="#000000" points="681.5,-268.5 681.5,-298.5 838.5,-298.5 838.5,-268.5 681.5,-268.5"/>
<text text-anchor="start" x="689.5" y="-286.5" font-family="Helvetica,sans-Serif" font-size="10.00" fill="#000000">core/multiproc/inc</text>
<text text-anchor="middle" x="760" y="-275.5" font-family="Helvetica,sans-Serif" font-size="10.00" fill="#000000">/ROOT/TProcessExecutor.hxx</text>
</a>
</g>
</g>
<!-- Node53&#45;&gt;Node54 -->
<g id="edge1" class="edge">
<title>Node53&#45;&gt;Node54</title>
<path fill="none" stroke="#191970" d="M816.29,-465.6018C772.6796,-447.5175 715.0349,-415.5674 688,-366 681.4028,-353.9044 681.6996,-347.2528 688,-335 696.1523,-319.1457 711.6998,-307.0853 726.2667,-298.6358"/>
<polygon fill="#191970" stroke="#191970" points="815.0615,-468.88 825.6454,-469.3601 817.6709,-462.3846 815.0615,-468.88"/>
</g>
<!-- Node68 -->
<g id="node16" class="node">
<title>Node68</title>
<g id="a_node16"><a xlink:href="TMPWorker_8h.html" target="_top" xlink:title="core/multiproc/inc\l/TMPWorker.h">
<polygon fill="#ffffff" stroke="#000000" points="881,-402.5 881,-432.5 985,-432.5 985,-402.5 881,-402.5"/>
<text text-anchor="start" x="889" y="-420.5" font-family="Helvetica,sans-Serif" font-size="10.00" fill="#000000">core/multiproc/inc</text>
<text text-anchor="middle" x="933" y="-409.5" font-family="Helvetica,sans-Serif" font-size="10.00" fill="#000000">/TMPWorker.h</text>
</a>
</g>
</g>
<!-- Node53&#45;&gt;Node68 -->
<g id="edge16" class="edge">
<title>Node53&#45;&gt;Node68</title>
<path fill="none" stroke="#191970" d="M892.8142,-461.6385C901.5301,-452.0653 911.4235,-441.1987 919.2129,-432.6432"/>
<polygon fill="#191970" stroke="#191970" points="889.986,-459.5459 885.8418,-469.2967 895.1621,-464.2585 889.986,-459.5459"/>
</g>
<!-- Node71 -->
<g id="node19" class="node">
<title>Node71</title>
<g id="a_node19"><a xlink:href="TTreeProcessorMP_8hxx.html" target="_top" xlink:title="tree/treeplayer/inc\l/ROOT/TTreeProcessorMP.hxx">
<polygon fill="#ffffff" stroke="#000000" points="981,-268.5 981,-298.5 1139,-298.5 1139,-268.5 981,-268.5"/>
<text text-anchor="start" x="989" y="-286.5" font-family="Helvetica,sans-Serif" font-size="10.00" fill="#000000">tree/treeplayer/inc</text>
<text text-anchor="middle" x="1060" y="-275.5" font-family="Helvetica,sans-Serif" font-size="10.00" fill="#000000">/ROOT/TTreeProcessorMP.hxx</text>
</a>
</g>
</g>
<!-- Node53&#45;&gt;Node71 -->
<g id="edge31" class="edge">
<title>Node53&#45;&gt;Node71</title>
<path fill="none" stroke="#191970" d="M933.8918,-473.9338C992.3116,-460.2522 1076.3917,-430.0711 1114,-366 1120.9745,-354.1179 1119.4229,-347.6657 1114,-335 1107.6771,-320.2325 1094.8101,-307.6881 1083.222,-298.678"/>
<polygon fill="#191970" stroke="#191970" points="933.0166,-470.5431 924.0245,-476.146 934.5479,-477.3735 933.0166,-470.5431"/>
</g>
<!-- Node73 -->
<g id="node21" class="node">
<title>Node73</title>
<g id="a_node21"><a xlink:href="TMPWorkerExecutor_8h.html" target="_top" xlink:title="core/multiproc/inc\l/TMPWorkerExecutor.h">
<polygon fill="#ffffff" stroke="#000000" points="697.5,-335.5 697.5,-365.5 822.5,-365.5 822.5,-335.5 697.5,-335.5"/>
<text text-anchor="start" x="705.5" y="-353.5" font-family="Helvetica,sans-Serif" font-size="10.00" fill="#000000">core/multiproc/inc</text>
<text text-anchor="middle" x="760" y="-342.5" font-family="Helvetica,sans-Serif" font-size="10.00" fill="#000000">/TMPWorkerExecutor.h</text>
</a>
</g>
</g>
<!-- Node53&#45;&gt;Node73 -->
<g id="edge30" class="edge">
<title>Node53&#45;&gt;Node73</title>
<path fill="none" stroke="#191970" d="M852.7762,-461.5001C829.8943,-434.1235 792.327,-389.177 772.7558,-365.7614"/>
<polygon fill="#191970" stroke="#191970" points="850.2713,-463.9607 859.3699,-469.389 855.6422,-459.4715 850.2713,-463.9607"/>
</g>
<!-- Node55 -->
<g id="node3" class="node">
<title>Node55</title>
<g id="a_node3"><a xlink:href="TProcPool_8h.html" target="_top" xlink:title="core/multiproc/inc\l/TProcPool.h">
<polygon fill="#ffffff" stroke="#000000" points="642,-201.5 642,-231.5 746,-231.5 746,-201.5 642,-201.5"/>
<text text-anchor="start" x="650" y="-219.5" font-family="Helvetica,sans-Serif" font-size="10.00" fill="#000000">core/multiproc/inc</text>
<text text-anchor="middle" x="694" y="-208.5" font-family="Helvetica,sans-Serif" font-size="10.00" fill="#000000">/TProcPool.h</text>
</a>
</g>
</g>
<!-- Node54&#45;&gt;Node55 -->
<g id="edge2" class="edge">
<title>Node54&#45;&gt;Node55</title>
<path fill="none" stroke="#191970" d="M737.7622,-260.9253C728.2637,-251.2828 717.4293,-240.2843 708.9172,-231.6432"/>
<polygon fill="#191970" stroke="#191970" points="735.5124,-263.6288 745.0236,-268.2967 740.4993,-258.7164 735.5124,-263.6288"/>
</g>
<!-- Node67 -->
<g id="node15" class="node">
<title>Node67</title>
<g id="a_node15"><a xlink:href="TProcessExecutor_8cxx.html" target="_top" xlink:title="core/multiproc/src\l/TProcessExecutor.cxx">
<polygon fill="#ffffff" stroke="#000000" points="764.5,-201.5 764.5,-231.5 889.5,-231.5 889.5,-201.5 764.5,-201.5"/>
<text text-anchor="start" x="772.5" y="-219.5" font-family="Helvetica,sans-Serif" font-size="10.00" fill="#000000">core/multiproc/src</text>
<text text-anchor="middle" x="827" y="-208.5" font-family="Helvetica,sans-Serif" font-size="10.00" fill="#000000">/TProcessExecutor.cxx</text>
</a>
</g>
</g>
<!-- Node54&#45;&gt;Node67 -->
<g id="edge15" class="edge">
<title>Node54&#45;&gt;Node67</title>
<path fill="none" stroke="#191970" d="M782.2887,-261.2113C791.9991,-251.5009 803.1302,-240.3698 811.8568,-231.6432"/>
<polygon fill="#191970" stroke="#191970" points="779.7996,-258.7507 775.2033,-268.2967 784.7493,-263.7004 779.7996,-258.7507"/>
</g>
<!-- Node56 -->
<g id="node4" class="node">
<title>Node56</title>
<g id="a_node4"><a xlink:href="Envelope_8h.html" target="_top" xlink:title="tmva/tmva/inc/TMVA\l/Envelope.h">
<polygon fill="#ffffff" stroke="#000000" points="635,-134.5 635,-164.5 753,-164.5 753,-134.5 635,-134.5"/>
<text text-anchor="start" x="643" y="-152.5" font-family="Helvetica,sans-Serif" font-size="10.00" fill="#000000">tmva/tmva/inc/TMVA</text>
<text text-anchor="middle" x="694" y="-141.5" font-family="Helvetica,sans-Serif" font-size="10.00" fill="#000000">/Envelope.h</text>
</a>
</g>
</g>
<!-- Node55&#45;&gt;Node56 -->
<g id="edge3" class="edge">
<title>Node55&#45;&gt;Node56</title>
<path fill="none" stroke="#191970" d="M694,-191.0249C694,-182.128 694,-172.4287 694,-164.6432"/>
<polygon fill="#191970" stroke="#191970" points="690.5001,-191.2966 694,-201.2967 697.5001,-191.2967 690.5001,-191.2966"/>
</g>
<!-- Node57 -->
<g id="node5" class="node">
<title>Node57</title>
<g id="a_node5"><a xlink:href="Classification_8h.html" target="_top" xlink:title="tmva/tmva/inc/TMVA\l/Classification.h">
<polygon fill="#ffffff" stroke="#000000" points="202,-67.5 202,-97.5 320,-97.5 320,-67.5 202,-67.5"/>
<text text-anchor="start" x="210" y="-85.5" font-family="Helvetica,sans-Serif" font-size="10.00" fill="#000000">tmva/tmva/inc/TMVA</text>
<text text-anchor="middle" x="261" y="-74.5" font-family="Helvetica,sans-Serif" font-size="10.00" fill="#000000">/Classification.h</text>
</a>
</g>
</g>
<!-- Node56&#45;&gt;Node57 -->
<g id="edge4" class="edge">
<title>Node56&#45;&gt;Node57</title>
<path fill="none" stroke="#191970" d="M624.7153,-138.7793C540.4696,-125.7436 399.7213,-103.965 320.2759,-91.672"/>
<polygon fill="#191970" stroke="#191970" points="624.2835,-142.254 634.7011,-140.3244 625.3539,-135.3364 624.2835,-142.254"/>
</g>
<!-- Node60 -->
<g id="node8" class="node">
<title>Node60</title>
<g id="a_node8"><a xlink:href="CrossValidation_8h.html" target="_top" xlink:title="tmva/tmva/inc/TMVA\l/CrossValidation.h">
<polygon fill="#ffffff" stroke="#000000" points="398,-67.5 398,-97.5 516,-97.5 516,-67.5 398,-67.5"/>
<text text-anchor="start" x="406" y="-85.5" font-family="Helvetica,sans-Serif" font-size="10.00" fill="#000000">tmva/tmva/inc/TMVA</text>
<text text-anchor="middle" x="457" y="-74.5" font-family="Helvetica,sans-Serif" font-size="10.00" fill="#000000">/CrossValidation.h</text>
</a>
</g>
</g>
<!-- Node56&#45;&gt;Node60 -->
<g id="edge7" class="edge">
<title>Node56&#45;&gt;Node60</title>
<path fill="none" stroke="#191970" d="M630.9801,-131.6842C593.3874,-121.0568 546.174,-107.7095 510.4194,-97.6017"/>
<polygon fill="#191970" stroke="#191970" points="630.2375,-135.1114 640.8126,-134.4639 632.1419,-128.3754 630.2375,-135.1114"/>
</g>
<!-- Node62 -->
<g id="node10" class="node">
<title>Node62</title>
<g id="a_node10"><a xlink:href="HyperParameterOptimisation_8h.html" target="_top" xlink:title="tmva/tmva/inc/TMVA\l/HyperParameterOptimisation.h">
<polygon fill="#ffffff" stroke="#000000" points="551.5,-67.5 551.5,-97.5 722.5,-97.5 722.5,-67.5 551.5,-67.5"/>
<text text-anchor="start" x="559.5" y="-85.5" font-family="Helvetica,sans-Serif" font-size="10.00" fill="#000000">tmva/tmva/inc/TMVA</text>
<text text-anchor="middle" x="637" y="-74.5" font-family="Helvetica,sans-Serif" font-size="10.00" fill="#000000">/HyperParameterOptimisation.h</text>
</a>
</g>
</g>
<!-- Node56&#45;&gt;Node62 -->
<g id="edge9" class="edge">
<title>Node56&#45;&gt;Node62</title>
<path fill="none" stroke="#191970" d="M674.5506,-126.6385C666.4063,-117.0653 657.1616,-106.1987 649.883,-97.6432"/>
<polygon fill="#191970" stroke="#191970" points="671.9202,-128.948 681.0658,-134.2967 677.2518,-124.4121 671.9202,-128.948"/>
</g>
<!-- Node64 -->
<g id="node12" class="node">
<title>Node64</title>
<g id="a_node12"><a xlink:href="VariableImportance_8h.html" target="_top" xlink:title="tmva/tmva/inc/TMVA\l/VariableImportance.h">
<polygon fill="#ffffff" stroke="#000000" points="779,-67.5 779,-97.5 903,-97.5 903,-67.5 779,-67.5"/>
<text text-anchor="start" x="787" y="-85.5" font-family="Helvetica,sans-Serif" font-size="10.00" fill="#000000">tmva/tmva/inc/TMVA</text>
<text text-anchor="middle" x="841" y="-74.5" font-family="Helvetica,sans-Serif" font-size="10.00" fill="#000000">/VariableImportance.h</text>
</a>
</g>
</g>
<!-- Node56&#45;&gt;Node64 -->
<g id="edge11" class="edge">
<title>Node56&#45;&gt;Node64</title>
<path fill="none" stroke="#191970" d="M736.0964,-130.3132C758.8847,-119.9267 786.6333,-107.2794 807.8664,-97.6017"/>
<polygon fill="#191970" stroke="#191970" points="734.6375,-127.1317 726.9897,-134.4639 737.5407,-133.5013 734.6375,-127.1317"/>
</g>
<!-- Node65 -->
<g id="node13" class="node">
<title>Node65</title>
<g id="a_node13"><a xlink:href="VariableImportance_8cxx.html" target="_top" xlink:title="tmva/tmva/src/VariableImportance.cxx">
<polygon fill="#ffffff" stroke="#000000" points="740,-6 740,-25 946,-25 946,-6 740,-6"/>
<text text-anchor="middle" x="843" y="-13" font-family="Helvetica,sans-Serif" font-size="10.00" fill="#000000">tmva/tmva/src/VariableImportance.cxx</text>
</a>
</g>
</g>
<!-- Node56&#45;&gt;Node65 -->
<g id="edge14" class="edge">
<title>Node56&#45;&gt;Node65</title>
<path fill="none" stroke="#191970" d="M712.9588,-126.3921C727.6562,-109.1302 748.9955,-85.4369 770,-67 788.5339,-50.7317 812.2055,-34.8052 827.4833,-25.0715"/>
<polygon fill="#191970" stroke="#191970" points="710.067,-124.3927 706.3078,-134.2982 715.4237,-128.8989 710.067,-124.3927"/>
</g>
<!-- Node66 -->
<g id="node14" class="node">
<title>Node66</title>
<g id="a_node14"><a xlink:href="Envelope_8cxx.html" target="_top" xlink:title="tmva/tmva/src/Envelope.cxx">
<polygon fill="#ffffff" stroke="#000000" points="921,-73 921,-92 1077,-92 1077,-73 921,-73"/>
<text text-anchor="middle" x="999" y="-80" font-family="Helvetica,sans-Serif" font-size="10.00" fill="#000000">tmva/tmva/src/Envelope.cxx</text>
</a>
</g>
</g>
<!-- Node56&#45;&gt;Node66 -->
<g id="edge13" class="edge">
<title>Node56&#45;&gt;Node66</title>
<path fill="none" stroke="#191970" d="M763.1817,-134.3027C822.3354,-121.3083 905.6226,-103.0124 955.7518,-92.0004"/>
<polygon fill="#191970" stroke="#191970" points="762.1849,-130.9382 753.1687,-136.5023 763.6868,-137.7751 762.1849,-130.9382"/>
</g>
<!-- Node58 -->
<g id="node6" class="node">
<title>Node58</title>
<g id="a_node6"><a xlink:href="Classification_8cxx.html" target="_top" xlink:title="tmva/tmva/src/Classification.cxx">
<polygon fill="#ffffff" stroke="#000000" points="0,-6 0,-25 176,-25 176,-6 0,-6"/>
<text text-anchor="middle" x="88" y="-13" font-family="Helvetica,sans-Serif" font-size="10.00" fill="#000000">tmva/tmva/src/Classification.cxx</text>
</a>
</g>
</g>
<!-- Node57&#45;&gt;Node58 -->
<g id="edge5" class="edge">
<title>Node57&#45;&gt;Node58</title>
<path fill="none" stroke="#191970" d="M212.813,-63.838C180.2197,-51.2151 138.5312,-35.0699 112.5435,-25.0053"/>
<polygon fill="#191970" stroke="#191970" points="211.5863,-67.1162 222.1754,-67.4639 214.1144,-60.5886 211.5863,-67.1162"/>
</g>
<!-- Node59 -->
<g id="node7" class="node">
<title>Node59</title>
<g id="a_node7"><a xlink:href="classification_8C.html" target="_top" xlink:title=" &lt;a href=&quot;http://nbviewer.jupyter.org/url/root.cern.ch/doc/master/notebooks/classification.C.nbconvert.ipynb&quot; target=&quot;_blank&quot;&gt;&lt;img src= notebook.gif alt=&quot;View in nbviewer&quot; style=&quot;height:1em&quot; &gt;&lt;/a&gt; &lt;a href=&quot;https://cern.ch/swanserver/cgi&#45;bin/go?projurl=https://root.cern.ch/doc/master/notebooks/classification.C.nbconvert.ipynb&quot; target=&quot;_blank&quot;&gt;&lt;img src=&quot;http://swanserver.web.cern.ch/swanserver/images/badge_swan_white_150.png&quot; &#160;alt=&quot;Open in SWAN&quot; style=&quot;height:1em&quot; &gt;&lt;/a&gt; &#160;">
<polygon fill="#ffffff" stroke="#000000" points="194,-.5 194,-30.5 328,-30.5 328,-.5 194,-.5"/>
<text text-anchor="start" x="202" y="-18.5" font-family="Helvetica,sans-Serif" font-size="10.00" fill="#000000">tutorials/tmva/envelope</text>
<text text-anchor="middle" x="261" y="-7.5" font-family="Helvetica,sans-Serif" font-size="10.00" fill="#000000">/classification.C</text>
</a>
</g>
</g>
<!-- Node57&#45;&gt;Node59 -->
<g id="edge6" class="edge">
<title>Node57&#45;&gt;Node59</title>
<path fill="none" stroke="#191970" d="M261,-57.0249C261,-48.128 261,-38.4287 261,-30.6432"/>
<polygon fill="#191970" stroke="#191970" points="257.5001,-57.2966 261,-67.2967 264.5001,-57.2967 257.5001,-57.2966"/>
</g>
<!-- Node61 -->
<g id="node9" class="node">
<title>Node61</title>
<g id="a_node9"><a xlink:href="CrossValidation_8cxx.html" target="_top" xlink:title="tmva/tmva/src/CrossValidation.cxx">
<polygon fill="#ffffff" stroke="#000000" points="346.5,-6 346.5,-25 533.5,-25 533.5,-6 346.5,-6"/>
<text text-anchor="middle" x="440" y="-13" font-family="Helvetica,sans-Serif" font-size="10.00" fill="#000000">tmva/tmva/src/CrossValidation.cxx</text>
</a>
</g>
</g>
<!-- Node60&#45;&gt;Node61 -->
<g id="edge8" class="edge">
<title>Node60&#45;&gt;Node61</title>
<path fill="none" stroke="#191970" d="M450.6482,-57.4663C447.7808,-46.1655 444.5644,-33.4891 442.4244,-25.055"/>
<polygon fill="#191970" stroke="#191970" points="447.2905,-58.4646 453.1424,-67.2967 454.0755,-56.743 447.2905,-58.4646"/>
</g>
<!-- Node63 -->
<g id="node11" class="node">
<title>Node63</title>
<g id="a_node11"><a xlink:href="HyperParameterOptimisation_8cxx.html" target="_top" xlink:title="tmva/tmva/src/HyperParameter\lOptimisation.cxx">
<polygon fill="#ffffff" stroke="#000000" points="552,-.5 552,-30.5 722,-30.5 722,-.5 552,-.5"/>
<text text-anchor="start" x="560" y="-18.5" font-family="Helvetica,sans-Serif" font-size="10.00" fill="#000000">tmva/tmva/src/HyperParameter</text>
<text text-anchor="middle" x="637" y="-7.5" font-family="Helvetica,sans-Serif" font-size="10.00" fill="#000000">Optimisation.cxx</text>
</a>
</g>
</g>
<!-- Node62&#45;&gt;Node63 -->
<g id="edge10" class="edge">
<title>Node62&#45;&gt;Node63</title>
<path fill="none" stroke="#191970" d="M637,-57.0249C637,-48.128 637,-38.4287 637,-30.6432"/>
<polygon fill="#191970" stroke="#191970" points="633.5001,-57.2966 637,-67.2967 640.5001,-57.2967 633.5001,-57.2966"/>
</g>
<!-- Node64&#45;&gt;Node65 -->
<g id="edge12" class="edge">
<title>Node64&#45;&gt;Node65</title>
<path fill="none" stroke="#191970" d="M841.7576,-57.1199C842.0923,-45.9072 842.4656,-33.4031 842.7148,-25.055"/>
<polygon fill="#191970" stroke="#191970" points="838.2539,-57.1967 841.4538,-67.2967 845.2507,-57.4056 838.2539,-57.1967"/>
</g>
<!-- Node69 -->
<g id="node17" class="node">
<title>Node69</title>
<g id="a_node17"><a xlink:href="TMPClient_8h.html" target="_top" xlink:title="core/multiproc/inc\l/TMPClient.h">
<polygon fill="#ffffff" stroke="#000000" points="841,-335.5 841,-365.5 945,-365.5 945,-335.5 841,-335.5"/>
<text text-anchor="start" x="849" y="-353.5" font-family="Helvetica,sans-Serif" font-size="10.00" fill="#000000">core/multiproc/inc</text>
<text text-anchor="middle" x="893" y="-342.5" font-family="Helvetica,sans-Serif" font-size="10.00" fill="#000000">/TMPClient.h</text>
</a>
</g>
</g>
<!-- Node68&#45;&gt;Node69 -->
<g id="edge17" class="edge">
<title>Node68&#45;&gt;Node69</title>
<path fill="none" stroke="#191970" d="M918.6619,-393.4837C913.1192,-384.1996 906.9442,-373.8565 902.0407,-365.6432"/>
<polygon fill="#191970" stroke="#191970" points="915.7921,-395.5046 923.9234,-402.2967 921.8024,-391.9163 915.7921,-395.5046"/>
</g>
<!-- Node70 -->
<g id="node18" class="node">
<title>Node70</title>
<g id="a_node18"><a xlink:href="TMPClient_8cxx.html" target="_top" xlink:title="core/multiproc/src\l/TMPClient.cxx">
<polygon fill="#ffffff" stroke="#000000" points="858,-268.5 858,-298.5 962,-298.5 962,-268.5 858,-268.5"/>
<text text-anchor="start" x="866" y="-286.5" font-family="Helvetica,sans-Serif" font-size="10.00" fill="#000000">core/multiproc/src</text>
<text text-anchor="middle" x="910" y="-275.5" font-family="Helvetica,sans-Serif" font-size="10.00" fill="#000000">/TMPClient.cxx</text>
</a>
</g>
</g>
<!-- Node68&#45;&gt;Node70 -->
<g id="edge24" class="edge">
<title>Node68&#45;&gt;Node70</title>
<path fill="none" stroke="#191970" d="M946.7843,-393.2449C954.4138,-376.5904 961.0574,-354.1249 954,-335 948.7889,-320.8782 937.7889,-308.0032 928.0917,-298.6587"/>
<polygon fill="#191970" stroke="#191970" points="943.595,-391.798 942.2744,-402.3102 949.8623,-394.9159 943.595,-391.798"/>
</g>
<!-- Node68&#45;&gt;Node73 -->
<g id="edge22" class="edge">
<title>Node68&#45;&gt;Node73</title>
<path fill="none" stroke="#191970" d="M884.5276,-398.7275C857.5113,-388.2645 824.3158,-375.4084 798.9939,-365.6017"/>
<polygon fill="#191970" stroke="#191970" points="883.5863,-402.1162 894.1754,-402.4639 886.1144,-395.5886 883.5863,-402.1162"/>
</g>
<!-- Node74 -->
<g id="node22" class="node">
<title>Node74</title>
<g id="a_node22"><a xlink:href="TMPWorker_8cxx.html" target="_top" xlink:title="core/multiproc/src\l/TMPWorker.cxx">
<polygon fill="#ffffff" stroke="#000000" points="1001,-335.5 1001,-365.5 1105,-365.5 1105,-335.5 1001,-335.5"/>
<text text-anchor="start" x="1009" y="-353.5" font-family="Helvetica,sans-Serif" font-size="10.00" fill="#000000">core/multiproc/src</text>
<text text-anchor="middle" x="1053" y="-342.5" font-family="Helvetica,sans-Serif" font-size="10.00" fill="#000000">/TMPWorker.cxx</text>
</a>
</g>
</g>
<!-- Node68&#45;&gt;Node74 -->
<g id="edge25" class="edge">
<title>Node68&#45;&gt;Node74</title>
<path fill="none" stroke="#191970" d="M969.0786,-397.3561C987.2695,-387.1995 1008.9685,-375.0843 1025.7444,-365.7177"/>
<polygon fill="#191970" stroke="#191970" points="966.9554,-394.5329 959.9303,-402.4639 970.3679,-400.6448 966.9554,-394.5329"/>
</g>
<!-- Node75 -->
<g id="node23" class="node">
<title>Node75</title>
<g id="a_node23"><a xlink:href="TMPWorkerTree_8h.html" target="_top" xlink:title="tree/treeplayer/inc\l/TMPWorkerTree.h">
<polygon fill="#ffffff" stroke="#000000" points="1161.5,-335.5 1161.5,-365.5 1268.5,-365.5 1268.5,-335.5 1161.5,-335.5"/>
<text text-anchor="start" x="1169.5" y="-353.5" font-family="Helvetica,sans-Serif" font-size="10.00" fill="#000000">tree/treeplayer/inc</text>
<text text-anchor="middle" x="1215" y="-342.5" font-family="Helvetica,sans-Serif" font-size="10.00" fill="#000000">/TMPWorkerTree.h</text>
</a>
</g>
</g>
<!-- Node68&#45;&gt;Node75 -->
<g id="edge26" class="edge">
<title>Node68&#45;&gt;Node75</title>
<path fill="none" stroke="#191970" d="M995.0476,-402.7582C1044.8099,-390.9352 1113.933,-374.5124 1161.3338,-363.2505"/>
<polygon fill="#191970" stroke="#191970" points="993.9719,-399.4163 985.0518,-405.1331 995.59,-406.2267 993.9719,-399.4163"/>
</g>
<!-- Node69&#45;&gt;Node54 -->
<g id="edge18" class="edge">
<title>Node69&#45;&gt;Node54</title>
<path fill="none" stroke="#191970" d="M854.1187,-330.9132C833.7357,-320.645 809.1428,-308.2561 790.2083,-298.7177"/>
<polygon fill="#191970" stroke="#191970" points="852.6467,-334.0906 863.1522,-335.4639 855.7961,-327.8391 852.6467,-334.0906"/>
</g>
<!-- Node69&#45;&gt;Node70 -->
<g id="edge19" class="edge">
<title>Node69&#45;&gt;Node70</title>
<path fill="none" stroke="#191970" d="M899.3895,-325.3179C901.6671,-316.3414 904.1606,-306.5143 906.1577,-298.6432"/>
<polygon fill="#191970" stroke="#191970" points="895.9245,-324.743 896.8576,-335.2967 902.7095,-326.4646 895.9245,-324.743"/>
</g>
<!-- Node69&#45;&gt;Node71 -->
<g id="edge20" class="edge">
<title>Node69&#45;&gt;Node71</title>
<path fill="none" stroke="#191970" d="M939.7912,-331.7275C965.8706,-321.2645 997.9148,-308.4084 1022.3585,-298.6017"/>
<polygon fill="#191970" stroke="#191970" points="938.4558,-328.492 930.4781,-335.4639 941.0622,-334.9887 938.4558,-328.492"/>
</g>
<!-- Node72 -->
<g id="node20" class="node">
<title>Node72</title>
<g id="a_node20"><a xlink:href="TTreeProcessorMP_8cxx.html" target="_top" xlink:title="tree/treeplayer/src\l/TTreeProcessorMP.cxx">
<polygon fill="#ffffff" stroke="#000000" points="1117,-201.5 1117,-231.5 1243,-231.5 1243,-201.5 1117,-201.5"/>
<text text-anchor="start" x="1125" y="-219.5" font-family="Helvetica,sans-Serif" font-size="10.00" fill="#000000">tree/treeplayer/src</text>
<text text-anchor="middle" x="1180" y="-208.5" font-family="Helvetica,sans-Serif" font-size="10.00" fill="#000000">/TTreeProcessorMP.cxx</text>
</a>
</g>
</g>
<!-- Node71&#45;&gt;Node72 -->
<g id="edge21" class="edge">
<title>Node71&#45;&gt;Node72</title>
<path fill="none" stroke="#191970" d="M1096.0786,-263.3561C1114.2695,-253.1995 1135.9685,-241.0843 1152.7444,-231.7177"/>
<polygon fill="#191970" stroke="#191970" points="1093.9554,-260.5329 1086.9303,-268.4639 1097.3679,-266.6448 1093.9554,-260.5329"/>
</g>
<!-- Node73&#45;&gt;Node54 -->
<g id="edge23" class="edge">
<title>Node73&#45;&gt;Node54</title>
<path fill="none" stroke="#191970" d="M760,-325.0249C760,-316.128 760,-306.4287 760,-298.6432"/>
<polygon fill="#191970" stroke="#191970" points="756.5001,-325.2966 760,-335.2967 763.5001,-325.2967 756.5001,-325.2966"/>
</g>
<!-- Node75&#45;&gt;Node71 -->
<g id="edge27" class="edge">
<title>Node75&#45;&gt;Node71</title>
<path fill="none" stroke="#191970" d="M1170.9328,-331.4516C1146.8444,-321.0392 1117.425,-308.3224 1094.9367,-298.6017"/>
<polygon fill="#191970" stroke="#191970" points="1169.6471,-334.7088 1180.215,-335.4639 1172.4246,-328.2834 1169.6471,-334.7088"/>
</g>
<!-- Node75&#45;&gt;Node72 -->
<g id="edge29" class="edge">
<title>Node75&#45;&gt;Node72</title>
<path fill="none" stroke="#191970" d="M1253.9203,-329.8045C1265.0654,-321.781 1275.8519,-311.4802 1282,-299 1288.0886,-286.6405 1289.2205,-279.7342 1282,-268 1271.4999,-250.9359 1253.4082,-239.3202 1235.3496,-231.5099"/>
<polygon fill="#191970" stroke="#191970" points="1251.7715,-327.0307 1245.3986,-335.4946 1255.6587,-332.8523 1251.7715,-327.0307"/>
</g>
<!-- Node76 -->
<g id="node24" class="node">
<title>Node76</title>
<g id="a_node24"><a xlink:href="TMPWorkerTree_8cxx.html" target="_top" xlink:title="tree/treeplayer/src\l/TMPWorkerTree.cxx">
<polygon fill="#ffffff" stroke="#000000" points="1157.5,-268.5 1157.5,-298.5 1272.5,-298.5 1272.5,-268.5 1157.5,-268.5"/>
<text text-anchor="start" x="1165.5" y="-286.5" font-family="Helvetica,sans-Serif" font-size="10.00" fill="#000000">tree/treeplayer/src</text>
<text text-anchor="middle" x="1215" y="-275.5" font-family="Helvetica,sans-Serif" font-size="10.00" fill="#000000">/TMPWorkerTree.cxx</text>
</a>
</g>
</g>
<!-- Node75&#45;&gt;Node76 -->
<g id="edge28" class="edge">
<title>Node75&#45;&gt;Node76</title>
<path fill="none" stroke="#191970" d="M1215,-325.0249C1215,-316.128 1215,-306.4287 1215,-298.6432"/>
<polygon fill="#191970" stroke="#191970" points="1211.5001,-325.2966 1215,-335.2967 1218.5001,-325.2967 1211.5001,-325.2966"/>
</g>
</g>
</svg>
