<?xml version="1.0" encoding="UTF-8" standalone="no"?>
<!DOCTYPE svg PUBLIC "-//W3C//DTD SVG 1.1//EN"
 "http://www.w3.org/Graphics/SVG/1.1/DTD/svg11.dtd">
<!-- Generated by graphviz version 2.40.1 (0)
 -->
<!-- Title: roofit/roostats/inc/RooStats/ProofConfig.h Pages: 1 -->
<svg width="1847pt" height="240pt"
 viewBox="0.00 0.00 1846.50 240.00" xmlns="http://www.w3.org/2000/svg" xmlns:xlink="http://www.w3.org/1999/xlink">
<g id="graph0" class="graph" transform="scale(1 1) rotate(0) translate(4 236)">
<title>roofit/roostats/inc/RooStats/ProofConfig.h</title>
<polygon fill="#ffffff" stroke="transparent" points="-4,4 -4,-236 1842.5,-236 1842.5,4 -4,4"/>
<!-- Node97 -->
<g id="node1" class="node">
<title>Node97</title>
<polygon fill="#bfbfbf" stroke="#000000" points="353,-201.5 353,-231.5 484,-231.5 484,-201.5 353,-201.5"/>
<text text-anchor="start" x="361" y="-219.5" font-family="Helvetica,sans-Serif" font-size="10.00" fill="#000000">roofit/roostats/inc</text>
<text text-anchor="middle" x="418.5" y="-208.5" font-family="Helvetica,sans-Serif" font-size="10.00" fill="#000000">/RooStats/ProofConfig.h</text>
</g>
<!-- Node98 -->
<g id="node2" class="node">
<title>Node98</title>
<g id="a_node2"><a xlink:href="ToyMCSampler_8h.html" target="_top" xlink:title="roofit/roostats/inc\l/RooStats/ToyMCSampler.h">
<polygon fill="#ffffff" stroke="#000000" points="697.5,-134.5 697.5,-164.5 843.5,-164.5 843.5,-134.5 697.5,-134.5"/>
<text text-anchor="start" x="705.5" y="-152.5" font-family="Helvetica,sans-Serif" font-size="10.00" fill="#000000">roofit/roostats/inc</text>
<text text-anchor="middle" x="770.5" y="-141.5" font-family="Helvetica,sans-Serif" font-size="10.00" fill="#000000">/RooStats/ToyMCSampler.h</text>
</a>
</g>
</g>
<!-- Node97&#45;&gt;Node98 -->
<g id="edge1" class="edge">
<title>Node97&#45;&gt;Node98</title>
<path fill="none" stroke="#191970" d="M494.4888,-202.0362C554.6232,-190.5902 638.0725,-174.7064 697.4339,-163.4075"/>
<polygon fill="#191970" stroke="#191970" points="493.4647,-198.6682 484.2956,-203.9764 494.7737,-205.5448 493.4647,-198.6682"/>
</g>
<!-- Node104 -->
<g id="node8" class="node">
<title>Node104</title>
<g id="a_node8"><a xlink:href="HypoTestInverter_8cxx.html" target="_top" xlink:title="roofit/roostats/src\l/HypoTestInverter.cxx">
<polygon fill="#ffffff" stroke="#000000" points="163.5,-.5 163.5,-30.5 285.5,-30.5 285.5,-.5 163.5,-.5"/>
<text text-anchor="start" x="171.5" y="-18.5" font-family="Helvetica,sans-Serif" font-size="10.00" fill="#000000">roofit/roostats/src</text>
<text text-anchor="middle" x="224.5" y="-7.5" font-family="Helvetica,sans-Serif" font-size="10.00" fill="#000000">/HypoTestInverter.cxx</text>
</a>
</g>
</g>
<!-- Node97&#45;&gt;Node104 -->
<g id="edge24" class="edge">
<title>Node97&#45;&gt;Node104</title>
<path fill="none" stroke="#191970" d="M342.987,-200.2178C254.414,-179.4097 115.7747,-140.9079 85.5,-98 77.5569,-86.7424 77.6299,-78.3088 85.5,-67 95.0919,-53.217 131.0253,-40.1034 163.9515,-30.5583"/>
<polygon fill="#191970" stroke="#191970" points="342.4628,-203.6892 352.9956,-202.544 344.0476,-196.8709 342.4628,-203.6892"/>
</g>
<!-- Node99 -->
<g id="node3" class="node">
<title>Node99</title>
<g id="a_node3"><a xlink:href="DebuggingTestStat_8h.html" target="_top" xlink:title="roofit/roostats/inc\l/RooStats/DebuggingTestStat.h">
<polygon fill="#ffffff" stroke="#000000" points="1500.5,-67.5 1500.5,-97.5 1666.5,-97.5 1666.5,-67.5 1500.5,-67.5"/>
<text text-anchor="start" x="1508.5" y="-85.5" font-family="Helvetica,sans-Serif" font-size="10.00" fill="#000000">roofit/roostats/inc</text>
<text text-anchor="middle" x="1583.5" y="-74.5" font-family="Helvetica,sans-Serif" font-size="10.00" fill="#000000">/RooStats/DebuggingTestStat.h</text>
</a>
</g>
</g>
<!-- Node98&#45;&gt;Node99 -->
<g id="edge2" class="edge">
<title>Node98&#45;&gt;Node99</title>
<path fill="none" stroke="#191970" d="M853.8662,-146.137C988.389,-140.1287 1261.5237,-125.5226 1491.5,-98 1494.3949,-97.6536 1497.3375,-97.2792 1500.3068,-96.8826"/>
<polygon fill="#191970" stroke="#191970" points="853.4735,-142.6509 843.6378,-146.5892 853.7827,-149.6441 853.4735,-142.6509"/>
</g>
<!-- Node100 -->
<g id="node4" class="node">
<title>Node100</title>
<g id="a_node4"><a xlink:href="FeldmanCousins_8h.html" target="_top" xlink:title="roofit/roostats/inc\l/RooStats/FeldmanCousins.h">
<polygon fill="#ffffff" stroke="#000000" points="1684.5,-67.5 1684.5,-97.5 1838.5,-97.5 1838.5,-67.5 1684.5,-67.5"/>
<text text-anchor="start" x="1692.5" y="-85.5" font-family="Helvetica,sans-Serif" font-size="10.00" fill="#000000">roofit/roostats/inc</text>
<text text-anchor="middle" x="1761.5" y="-74.5" font-family="Helvetica,sans-Serif" font-size="10.00" fill="#000000">/RooStats/FeldmanCousins.h</text>
</a>
</g>
</g>
<!-- Node98&#45;&gt;Node100 -->
<g id="edge3" class="edge">
<title>Node98&#45;&gt;Node100</title>
<path fill="none" stroke="#191970" d="M854.0293,-148.1333C1013.9894,-144.7671 1374.4231,-133.5651 1675.5,-98 1678.3626,-97.6619 1681.274,-97.2885 1684.2112,-96.8871"/>
<polygon fill="#191970" stroke="#191970" points="853.7116,-144.639 843.7857,-148.3439 853.8556,-151.6376 853.7116,-144.639"/>
</g>
<!-- Node102 -->
<g id="node6" class="node">
<title>Node102</title>
<g id="a_node6"><a xlink:href="FrequentistCalculator_8h.html" target="_top" xlink:title="roofit/roostats/inc\l/RooStats/FrequentistCalculator.h">
<polygon fill="#ffffff" stroke="#000000" points="95,-67.5 95,-97.5 272,-97.5 272,-67.5 95,-67.5"/>
<text text-anchor="start" x="103" y="-85.5" font-family="Helvetica,sans-Serif" font-size="10.00" fill="#000000">roofit/roostats/inc</text>
<text text-anchor="middle" x="183.5" y="-74.5" font-family="Helvetica,sans-Serif" font-size="10.00" fill="#000000">/RooStats/FrequentistCalculator.h</text>
</a>
</g>
</g>
<!-- Node98&#45;&gt;Node102 -->
<g id="edge5" class="edge">
<title>Node98&#45;&gt;Node102</title>
<path fill="none" stroke="#191970" d="M687.4182,-141.7647C590.9049,-132.5228 426.9473,-116.0312 286.5,-98 281.8366,-97.4013 277.0581,-96.7643 272.2358,-96.103"/>
<polygon fill="#191970" stroke="#191970" points="687.12,-145.252 697.4074,-142.7184 687.7853,-138.2837 687.12,-145.252"/>
</g>
<!-- Node103 -->
<g id="node7" class="node">
<title>Node103</title>
<g id="a_node7"><a xlink:href="FrequentistCalculator_8cxx.html" target="_top" xlink:title="roofit/roostats/src\l/FrequentistCalculator.cxx">
<polygon fill="#ffffff" stroke="#000000" points="0,-.5 0,-30.5 143,-30.5 143,-.5 0,-.5"/>
<text text-anchor="start" x="8" y="-18.5" font-family="Helvetica,sans-Serif" font-size="10.00" fill="#000000">roofit/roostats/src</text>
<text text-anchor="middle" x="71.5" y="-7.5" font-family="Helvetica,sans-Serif" font-size="10.00" fill="#000000">/FrequentistCalculator.cxx</text>
</a>
</g>
</g>
<!-- Node98&#45;&gt;Node103 -->
<g id="edge17" class="edge">
<title>Node98&#45;&gt;Node103</title>
<path fill="none" stroke="#191970" d="M687.1696,-148.8834C514.3028,-146.8047 129.0972,-137.718 85.5,-98 66.921,-81.0742 67.0592,-49.3485 69.1017,-30.5556"/>
<polygon fill="#191970" stroke="#191970" points="687.2034,-152.3839 697.2431,-148.9995 687.2842,-145.3844 687.2034,-152.3839"/>
</g>
<!-- Node98&#45;&gt;Node104 -->
<g id="edge20" class="edge">
<title>Node98&#45;&gt;Node104</title>
<path fill="none" stroke="#191970" d="M687.2708,-145.8822C575.4937,-140.0229 383.5073,-126.1547 319.5,-98 310.3522,-93.9762 265.7377,-53.5475 241.0374,-30.8178"/>
<polygon fill="#191970" stroke="#191970" points="687.332,-149.3899 697.4985,-146.4078 687.6913,-142.3991 687.332,-149.3899"/>
</g>
<!-- Node105 -->
<g id="node9" class="node">
<title>Node105</title>
<g id="a_node9"><a xlink:href="HybridCalculator_8h.html" target="_top" xlink:title="roofit/roostats/inc\l/RooStats/HybridCalculator.h">
<polygon fill="#ffffff" stroke="#000000" points="329,-67.5 329,-97.5 484,-97.5 484,-67.5 329,-67.5"/>
<text text-anchor="start" x="337" y="-85.5" font-family="Helvetica,sans-Serif" font-size="10.00" fill="#000000">roofit/roostats/inc</text>
<text text-anchor="middle" x="406.5" y="-74.5" font-family="Helvetica,sans-Serif" font-size="10.00" fill="#000000">/RooStats/HybridCalculator.h</text>
</a>
</g>
</g>
<!-- Node98&#45;&gt;Node105 -->
<g id="edge8" class="edge">
<title>Node98&#45;&gt;Node105</title>
<path fill="none" stroke="#191970" d="M687.2762,-134.1813C626.1624,-122.9324 543.7319,-107.7597 484.0065,-96.7663"/>
<polygon fill="#191970" stroke="#191970" points="686.8086,-137.654 697.277,-136.0221 688.0759,-130.7696 686.8086,-137.654"/>
</g>
<!-- Node106 -->
<g id="node10" class="node">
<title>Node106</title>
<g id="a_node10"><a xlink:href="HybridCalculator_8cxx.html" target="_top" xlink:title="roofit/roostats/src\l/HybridCalculator.cxx">
<polygon fill="#ffffff" stroke="#000000" points="382,-.5 382,-30.5 503,-30.5 503,-.5 382,-.5"/>
<text text-anchor="start" x="390" y="-18.5" font-family="Helvetica,sans-Serif" font-size="10.00" fill="#000000">roofit/roostats/src</text>
<text text-anchor="middle" x="442.5" y="-7.5" font-family="Helvetica,sans-Serif" font-size="10.00" fill="#000000">/HybridCalculator.cxx</text>
</a>
</g>
</g>
<!-- Node98&#45;&gt;Node106 -->
<g id="edge18" class="edge">
<title>Node98&#45;&gt;Node106</title>
<path fill="none" stroke="#191970" d="M687.297,-142.5829C639.5704,-135.9848 579.7448,-123.1091 531.5,-98 514.6798,-89.2459 477.5128,-52.0155 456.9273,-30.6815"/>
<polygon fill="#191970" stroke="#191970" points="686.918,-146.0631 697.2891,-143.8977 687.8313,-139.1229 686.918,-146.0631"/>
</g>
<!-- Node107 -->
<g id="node11" class="node">
<title>Node107</title>
<g id="a_node11"><a xlink:href="ToyMCImportanceSampler_8h.html" target="_top" xlink:title="roofit/roostats/inc\l/RooStats/ToyMCImportanceSampler.h">
<polygon fill="#ffffff" stroke="#000000" points="541,-67.5 541,-97.5 742,-97.5 742,-67.5 541,-67.5"/>
<text text-anchor="start" x="549" y="-85.5" font-family="Helvetica,sans-Serif" font-size="10.00" fill="#000000">roofit/roostats/inc</text>
<text text-anchor="middle" x="641.5" y="-74.5" font-family="Helvetica,sans-Serif" font-size="10.00" fill="#000000">/RooStats/ToyMCImportanceSampler.h</text>
</a>
</g>
</g>
<!-- Node98&#45;&gt;Node107 -->
<g id="edge11" class="edge">
<title>Node98&#45;&gt;Node107</title>
<path fill="none" stroke="#191970" d="M732.5207,-129.7743C712.8033,-119.5335 689.0821,-107.2132 670.7998,-97.7177"/>
<polygon fill="#191970" stroke="#191970" points="731.0622,-132.9607 741.5499,-134.4639 734.2887,-126.7486 731.0622,-132.9607"/>
</g>
<!-- Node109 -->
<g id="node13" class="node">
<title>Node109</title>
<g id="a_node13"><a xlink:href="ToyMCStudy_8h.html" target="_top" xlink:title="roofit/roostats/inc\l/RooStats/ToyMCStudy.h">
<polygon fill="#ffffff" stroke="#000000" points="798.5,-67.5 798.5,-97.5 930.5,-97.5 930.5,-67.5 798.5,-67.5"/>
<text text-anchor="start" x="806.5" y="-85.5" font-family="Helvetica,sans-Serif" font-size="10.00" fill="#000000">roofit/roostats/inc</text>
<text text-anchor="middle" x="864.5" y="-74.5" font-family="Helvetica,sans-Serif" font-size="10.00" fill="#000000">/RooStats/ToyMCStudy.h</text>
</a>
</g>
</g>
<!-- Node98&#45;&gt;Node109 -->
<g id="edge13" class="edge">
<title>Node98&#45;&gt;Node109</title>
<path fill="none" stroke="#191970" d="M800.1775,-128.3469C814.1643,-118.3776 830.5308,-106.7121 843.2544,-97.6432"/>
<polygon fill="#191970" stroke="#191970" points="797.9418,-125.6423 791.8301,-134.2967 802.0047,-131.3426 797.9418,-125.6423"/>
</g>
<!-- Node110 -->
<g id="node14" class="node">
<title>Node110</title>
<g id="a_node14"><a xlink:href="ToyMCSampler_8cxx.html" target="_top" xlink:title="roofit/roostats/src\l/ToyMCSampler.cxx">
<polygon fill="#ffffff" stroke="#000000" points="752,-.5 752,-30.5 863,-30.5 863,-.5 752,-.5"/>
<text text-anchor="start" x="760" y="-18.5" font-family="Helvetica,sans-Serif" font-size="10.00" fill="#000000">roofit/roostats/src</text>
<text text-anchor="middle" x="807.5" y="-7.5" font-family="Helvetica,sans-Serif" font-size="10.00" fill="#000000">/ToyMCSampler.cxx</text>
</a>
</g>
</g>
<!-- Node98&#45;&gt;Node110 -->
<g id="edge22" class="edge">
<title>Node98&#45;&gt;Node110</title>
<path fill="none" stroke="#191970" d="M775.5026,-124.5345C778.9833,-108.0764 783.9774,-86.1119 789.5,-67 793.0758,-54.6252 797.9324,-40.864 801.6998,-30.6819"/>
<polygon fill="#191970" stroke="#191970" points="772.0459,-123.9671 773.4435,-134.4693 778.9003,-125.3878 772.0459,-123.9671"/>
</g>
<!-- Node111 -->
<g id="node15" class="node">
<title>Node111</title>
<g id="a_node15"><a xlink:href="ToyMCStudy_8cxx.html" target="_top" xlink:title="roofit/roostats/src\l/ToyMCStudy.cxx">
<polygon fill="#ffffff" stroke="#000000" points="890.5,-.5 890.5,-30.5 992.5,-30.5 992.5,-.5 890.5,-.5"/>
<text text-anchor="start" x="898.5" y="-18.5" font-family="Helvetica,sans-Serif" font-size="10.00" fill="#000000">roofit/roostats/src</text>
<text text-anchor="middle" x="941.5" y="-7.5" font-family="Helvetica,sans-Serif" font-size="10.00" fill="#000000">/ToyMCStudy.cxx</text>
</a>
</g>
</g>
<!-- Node98&#45;&gt;Node111 -->
<g id="edge23" class="edge">
<title>Node98&#45;&gt;Node111</title>
<path fill="none" stroke="#191970" d="M853.6764,-133.7016C890.6678,-124.8449 928.3871,-112.6298 939.5,-98 954.2326,-78.6049 950.2804,-48.5881 945.9624,-30.6095"/>
<polygon fill="#191970" stroke="#191970" points="852.7461,-130.3244 843.7965,-135.9948 854.3289,-137.1431 852.7461,-130.3244"/>
</g>
<!-- Node112 -->
<g id="node16" class="node">
<title>Node112</title>
<g id="a_node16"><a xlink:href="AsymptoticCalculator_8cxx.html" target="_top" xlink:title="roofit/roostats/src\l/AsymptoticCalculator.cxx">
<polygon fill="#ffffff" stroke="#000000" points="986.5,-67.5 986.5,-97.5 1130.5,-97.5 1130.5,-67.5 986.5,-67.5"/>
<text text-anchor="start" x="994.5" y="-85.5" font-family="Helvetica,sans-Serif" font-size="10.00" fill="#000000">roofit/roostats/src</text>
<text text-anchor="middle" x="1058.5" y="-74.5" font-family="Helvetica,sans-Serif" font-size="10.00" fill="#000000">/AsymptoticCalculator.cxx</text>
</a>
</g>
</g>
<!-- Node98&#45;&gt;Node112 -->
<g id="edge16" class="edge">
<title>Node98&#45;&gt;Node112</title>
<path fill="none" stroke="#191970" d="M845.0479,-132.1573C891.0513,-121.4551 949.4896,-107.8601 993.5853,-97.6017"/>
<polygon fill="#191970" stroke="#191970" points="844.0796,-128.789 835.1328,-134.4639 845.6658,-135.6069 844.0796,-128.789"/>
</g>
<!-- Node113 -->
<g id="node17" class="node">
<title>Node113</title>
<g id="a_node17"><a xlink:href="HypoTestCalculatorGeneric_8cxx.html" target="_top" xlink:title="roofit/roostats/src\l/HypoTestCalculatorGeneric.cxx">
<polygon fill="#ffffff" stroke="#000000" points="1148.5,-67.5 1148.5,-97.5 1320.5,-97.5 1320.5,-67.5 1148.5,-67.5"/>
<text text-anchor="start" x="1156.5" y="-85.5" font-family="Helvetica,sans-Serif" font-size="10.00" fill="#000000">roofit/roostats/src</text>
<text text-anchor="middle" x="1234.5" y="-74.5" font-family="Helvetica,sans-Serif" font-size="10.00" fill="#000000">/HypoTestCalculatorGeneric.cxx</text>
</a>
</g>
</g>
<!-- Node98&#45;&gt;Node113 -->
<g id="edge19" class="edge">
<title>Node98&#45;&gt;Node113</title>
<path fill="none" stroke="#191970" d="M854.0387,-138.4C928.8805,-128.3224 1041.6158,-112.8139 1139.5,-98 1142.3915,-97.5624 1145.3317,-97.1122 1148.3002,-96.6531"/>
<polygon fill="#191970" stroke="#191970" points="853.1796,-134.9839 843.7352,-139.7853 854.1124,-141.9215 853.1796,-134.9839"/>
</g>
<!-- Node114 -->
<g id="node18" class="node">
<title>Node114</title>
<g id="a_node18"><a xlink:href="NeymanConstruction_8cxx.html" target="_top" xlink:title="roofit/roostats/src\l/NeymanConstruction.cxx">
<polygon fill="#ffffff" stroke="#000000" points="1339,-67.5 1339,-97.5 1482,-97.5 1482,-67.5 1339,-67.5"/>
<text text-anchor="start" x="1347" y="-85.5" font-family="Helvetica,sans-Serif" font-size="10.00" fill="#000000">roofit/roostats/src</text>
<text text-anchor="middle" x="1410.5" y="-74.5" font-family="Helvetica,sans-Serif" font-size="10.00" fill="#000000">/NeymanConstruction.cxx</text>
</a>
</g>
</g>
<!-- Node98&#45;&gt;Node114 -->
<g id="edge21" class="edge">
<title>Node98&#45;&gt;Node114</title>
<path fill="none" stroke="#191970" d="M853.5542,-144.3803C962.9875,-137.056 1161.2931,-121.7848 1329.5,-98 1332.4771,-97.579 1335.5108,-97.1228 1338.5718,-96.64"/>
<polygon fill="#191970" stroke="#191970" points="853.3148,-140.8883 843.5686,-145.043 853.7784,-147.873 853.3148,-140.8883"/>
</g>
<!-- Node101 -->
<g id="node5" class="node">
<title>Node101</title>
<g id="a_node5"><a xlink:href="FeldmanCousins_8cxx.html" target="_top" xlink:title="roofit/roostats/src\l/FeldmanCousins.cxx">
<polygon fill="#ffffff" stroke="#000000" points="1702,-.5 1702,-30.5 1821,-30.5 1821,-.5 1702,-.5"/>
<text text-anchor="start" x="1710" y="-18.5" font-family="Helvetica,sans-Serif" font-size="10.00" fill="#000000">roofit/roostats/src</text>
<text text-anchor="middle" x="1761.5" y="-7.5" font-family="Helvetica,sans-Serif" font-size="10.00" fill="#000000">/FeldmanCousins.cxx</text>
</a>
</g>
</g>
<!-- Node100&#45;&gt;Node101 -->
<g id="edge4" class="edge">
<title>Node100&#45;&gt;Node101</title>
<path fill="none" stroke="#191970" d="M1761.5,-57.0249C1761.5,-48.128 1761.5,-38.4287 1761.5,-30.6432"/>
<polygon fill="#191970" stroke="#191970" points="1758.0001,-57.2966 1761.5,-67.2967 1765.0001,-57.2967 1758.0001,-57.2966"/>
</g>
<!-- Node102&#45;&gt;Node103 -->
<g id="edge6" class="edge">
<title>Node102&#45;&gt;Node103</title>
<path fill="none" stroke="#191970" d="M149.3585,-62.0761C132.4772,-51.9774 112.4525,-39.9983 96.9386,-30.7177"/>
<polygon fill="#191970" stroke="#191970" points="147.9865,-65.3338 158.365,-67.4639 151.5801,-59.3266 147.9865,-65.3338"/>
</g>
<!-- Node102&#45;&gt;Node104 -->
<g id="edge7" class="edge">
<title>Node102&#45;&gt;Node104</title>
<path fill="none" stroke="#191970" d="M198.1965,-58.4837C203.8778,-49.1996 210.2072,-38.8565 215.2333,-30.6432"/>
<polygon fill="#191970" stroke="#191970" points="195.0378,-56.9401 192.8035,-67.2967 201.0086,-60.5939 195.0378,-56.9401"/>
</g>
<!-- Node105&#45;&gt;Node104 -->
<g id="edge10" class="edge">
<title>Node105&#45;&gt;Node104</title>
<path fill="none" stroke="#191970" d="M356.2524,-64.0023C327.6975,-53.4903 292.3954,-40.4945 265.5225,-30.6017"/>
<polygon fill="#191970" stroke="#191970" points="355.0622,-67.2937 365.6556,-67.4639 357.4805,-60.7247 355.0622,-67.2937"/>
</g>
<!-- Node105&#45;&gt;Node106 -->
<g id="edge9" class="edge">
<title>Node105&#45;&gt;Node106</title>
<path fill="none" stroke="#191970" d="M419.4043,-58.4837C424.3927,-49.1996 429.9502,-38.8565 434.3634,-30.6432"/>
<polygon fill="#191970" stroke="#191970" points="416.319,-56.8311 414.669,-67.2967 422.4853,-60.1443 416.319,-56.8311"/>
</g>
<!-- Node108 -->
<g id="node12" class="node">
<title>Node108</title>
<g id="a_node12"><a xlink:href="ToyMCImportanceSampler_8cxx.html" target="_top" xlink:title="roofit/roostats/src\l/ToyMCImportanceSampler.cxx">
<polygon fill="#ffffff" stroke="#000000" points="558,-.5 558,-30.5 725,-30.5 725,-.5 558,-.5"/>
<text text-anchor="start" x="566" y="-18.5" font-family="Helvetica,sans-Serif" font-size="10.00" fill="#000000">roofit/roostats/src</text>
<text text-anchor="middle" x="641.5" y="-7.5" font-family="Helvetica,sans-Serif" font-size="10.00" fill="#000000">/ToyMCImportanceSampler.cxx</text>
</a>
</g>
</g>
<!-- Node107&#45;&gt;Node108 -->
<g id="edge12" class="edge">
<title>Node107&#45;&gt;Node108</title>
<path fill="none" stroke="#191970" d="M641.5,-57.0249C641.5,-48.128 641.5,-38.4287 641.5,-30.6432"/>
<polygon fill="#191970" stroke="#191970" points="638.0001,-57.2966 641.5,-67.2967 645.0001,-57.2967 638.0001,-57.2966"/>
</g>
<!-- Node109&#45;&gt;Node110 -->
<g id="edge14" class="edge">
<title>Node109&#45;&gt;Node110</title>
<path fill="none" stroke="#191970" d="M845.0506,-59.6385C836.9063,-50.0653 827.6616,-39.1987 820.383,-30.6432"/>
<polygon fill="#191970" stroke="#191970" points="842.4202,-61.948 851.5658,-67.2967 847.7518,-57.4121 842.4202,-61.948"/>
</g>
<!-- Node109&#45;&gt;Node111 -->
<g id="edge15" class="edge">
<title>Node109&#45;&gt;Node111</title>
<path fill="none" stroke="#191970" d="M889.7876,-60.4965C901.024,-50.7193 913.9692,-39.4554 924.0967,-30.6432"/>
<polygon fill="#191970" stroke="#191970" points="887.219,-58.092 881.9725,-67.2967 891.8139,-63.3728 887.219,-58.092"/>
</g>
</g>
</svg>
