<?xml version="1.0" encoding="UTF-8" standalone="no"?>
<!DOCTYPE svg PUBLIC "-//W3C//DTD SVG 1.1//EN"
 "http://www.w3.org/Graphics/SVG/1.1/DTD/svg11.dtd">
<!-- Generated by graphviz version 2.40.1 (0)
 -->
<!-- Title: tmva/tmva/src/RegressionVariance.cxx Pages: 1 -->
<svg width="1682pt" height="554pt"
 viewBox="0.00 0.00 1681.50 554.00" xmlns="http://www.w3.org/2000/svg" xmlns:xlink="http://www.w3.org/1999/xlink">
<g id="graph0" class="graph" transform="scale(1 1) rotate(0) translate(4 550)">
<title>tmva/tmva/src/RegressionVariance.cxx</title>
<polygon fill="#ffffff" stroke="transparent" points="-4,4 -4,-550 1677.5,-550 1677.5,4 -4,4"/>
<!-- Node0 -->
<g id="node1" class="node">
<title>Node0</title>
<polygon fill="#bfbfbf" stroke="#000000" points="866,-515.5 866,-545.5 1010,-545.5 1010,-515.5 866,-515.5"/>
<text text-anchor="start" x="874" y="-533.5" font-family="Helvetica,sans-Serif" font-size="10.00" fill="#000000">tmva/tmva/src/Regression</text>
<text text-anchor="middle" x="938" y="-522.5" font-family="Helvetica,sans-Serif" font-size="10.00" fill="#000000">Variance.cxx</text>
</g>
<!-- Node1 -->
<g id="node2" class="node">
<title>Node1</title>
<polygon fill="#ffffff" stroke="#bfbfbf" points="784,-459.5 784,-478.5 844,-478.5 844,-459.5 784,-459.5"/>
<text text-anchor="middle" x="814" y="-466.5" font-family="Helvetica,sans-Serif" font-size="10.00" fill="#000000">iostream</text>
</g>
<!-- Node0&#45;&gt;Node1 -->
<g id="edge1" class="edge">
<title>Node0&#45;&gt;Node1</title>
<path fill="none" stroke="#191970" d="M907.6662,-515.4554C887.7024,-505.554 861.751,-492.683 842.2285,-483.0004"/>
<polygon fill="#191970" stroke="#191970" points="843.7294,-479.838 833.2156,-478.5303 840.6191,-486.1091 843.7294,-479.838"/>
</g>
<!-- Node2 -->
<g id="node3" class="node">
<title>Node2</title>
<g id="a_node3"><a xlink:href="TMath_8h.html" target="_top" xlink:title="TMath.h">
<polygon fill="#ffffff" stroke="#000000" points="1014,-403.5 1014,-422.5 1070,-422.5 1070,-403.5 1014,-403.5"/>
<text text-anchor="middle" x="1042" y="-410.5" font-family="Helvetica,sans-Serif" font-size="10.00" fill="#000000">TMath.h</text>
</a>
</g>
</g>
<!-- Node0&#45;&gt;Node2 -->
<g id="edge2" class="edge">
<title>Node0&#45;&gt;Node2</title>
<path fill="none" stroke="#191970" d="M974.5825,-515.4496C991.1715,-506.9599 1009.7683,-494.8413 1022,-479 1032.2774,-465.6897 1037.2977,-447.1179 1039.7359,-433.0646"/>
<polygon fill="#191970" stroke="#191970" points="1043.2314,-433.3457 1041.1888,-422.9496 1036.3025,-432.3504 1043.2314,-433.3457"/>
</g>
<!-- Node31 -->
<g id="node32" class="node">
<title>Node31</title>
<g id="a_node32"><a xlink:href="RegressionVariance_8h.html" target="_top" xlink:title="TMVA/RegressionVariance.h">
<polygon fill="#ffffff" stroke="#000000" points="862.5,-459.5 862.5,-478.5 1013.5,-478.5 1013.5,-459.5 862.5,-459.5"/>
<text text-anchor="middle" x="938" y="-466.5" font-family="Helvetica,sans-Serif" font-size="10.00" fill="#000000">TMVA/RegressionVariance.h</text>
</a>
</g>
</g>
<!-- Node0&#45;&gt;Node31 -->
<g id="edge40" class="edge">
<title>Node0&#45;&gt;Node31</title>
<path fill="none" stroke="#191970" d="M938,-515.2977C938,-507.3834 938,-497.6043 938,-489.0759"/>
<polygon fill="#191970" stroke="#191970" points="941.5001,-488.8469 938,-478.8469 934.5001,-488.847 941.5001,-488.8469"/>
</g>
<!-- Node3 -->
<g id="node4" class="node">
<title>Node3</title>
<g id="a_node4"><a xlink:href="Rtypes_8h.html" target="_top" xlink:title="Rtypes.h">
<polygon fill="#ffffff" stroke="#000000" points="1194.5,-286 1194.5,-305 1253.5,-305 1253.5,-286 1194.5,-286"/>
<text text-anchor="middle" x="1224" y="-293" font-family="Helvetica,sans-Serif" font-size="10.00" fill="#000000">Rtypes.h</text>
</a>
</g>
</g>
<!-- Node2&#45;&gt;Node3 -->
<g id="edge3" class="edge">
<title>Node2&#45;&gt;Node3</title>
<path fill="none" stroke="#191970" d="M1070.2791,-408.4702C1111.7603,-401.2717 1186.2251,-386.0649 1205,-367 1218.3437,-353.4502 1222.608,-331.6565 1223.8317,-315.6874"/>
<polygon fill="#191970" stroke="#191970" points="1227.3456,-315.4291 1224.2717,-305.29 1220.3519,-315.1331 1227.3456,-315.4291"/>
</g>
<!-- Node23 -->
<g id="node24" class="node">
<title>Node23</title>
<g id="a_node24"><a xlink:href="TMathBase_8h.html" target="_top" xlink:title="TMathBase.h">
<polygon fill="#ffffff" stroke="#000000" points="841,-347.5 841,-366.5 921,-366.5 921,-347.5 841,-347.5"/>
<text text-anchor="middle" x="881" y="-354.5" font-family="Helvetica,sans-Serif" font-size="10.00" fill="#000000">TMathBase.h</text>
</a>
</g>
</g>
<!-- Node2&#45;&gt;Node23 -->
<g id="edge28" class="edge">
<title>Node2&#45;&gt;Node23</title>
<path fill="none" stroke="#191970" d="M1014.3231,-403.3733C987.6672,-394.1016 947.1762,-380.0178 917.8116,-369.804"/>
<polygon fill="#191970" stroke="#191970" points="918.9105,-366.4807 908.3157,-366.5011 916.6109,-373.0921 918.9105,-366.4807"/>
</g>
<!-- Node25 -->
<g id="node26" class="node">
<title>Node25</title>
<polygon fill="#ffffff" stroke="#bfbfbf" points="949.5,-286 949.5,-305 996.5,-305 996.5,-286 949.5,-286"/>
<text text-anchor="middle" x="973" y="-293" font-family="Helvetica,sans-Serif" font-size="10.00" fill="#000000">cmath</text>
</g>
<!-- Node2&#45;&gt;Node25 -->
<g id="edge38" class="edge">
<title>Node2&#45;&gt;Node25</title>
<path fill="none" stroke="#191970" d="M1033.2853,-403.2592C1025.5136,-394.2675 1014.1393,-380.3285 1006,-367 995.6795,-350.0997 986.4735,-329.4347 980.4246,-314.6753"/>
<polygon fill="#191970" stroke="#191970" points="983.5647,-313.1006 976.6073,-305.1102 977.0633,-315.6952 983.5647,-313.1006"/>
</g>
<!-- Node26 -->
<g id="node27" class="node">
<title>Node26</title>
<polygon fill="#ffffff" stroke="#bfbfbf" points="795,-168.5 795,-187.5 859,-187.5 859,-168.5 795,-168.5"/>
<text text-anchor="middle" x="827" y="-175.5" font-family="Helvetica,sans-Serif" font-size="10.00" fill="#000000">algorithm</text>
</g>
<!-- Node2&#45;&gt;Node26 -->
<g id="edge36" class="edge">
<title>Node2&#45;&gt;Node26</title>
<path fill="none" stroke="#191970" d="M1013.8725,-411.0239C962.0959,-406.7454 854.8886,-394.6872 832,-367 791.4555,-317.9553 809.4506,-234.8056 820.5748,-197.3306"/>
<polygon fill="#191970" stroke="#191970" points="823.9595,-198.2337 823.6054,-187.6448 817.2789,-196.1434 823.9595,-198.2337"/>
</g>
<!-- Node27 -->
<g id="node28" class="node">
<title>Node27</title>
<g id="a_node28"><a xlink:href="TError_8h.html" target="_top" xlink:title="TError.h">
<polygon fill="#ffffff" stroke="#000000" points="1015,-347.5 1015,-366.5 1069,-366.5 1069,-347.5 1015,-347.5"/>
<text text-anchor="middle" x="1042" y="-354.5" font-family="Helvetica,sans-Serif" font-size="10.00" fill="#000000">TError.h</text>
</a>
</g>
</g>
<!-- Node2&#45;&gt;Node27 -->
<g id="edge33" class="edge">
<title>Node2&#45;&gt;Node27</title>
<path fill="none" stroke="#191970" d="M1042,-403.2455C1042,-395.9382 1042,-385.6944 1042,-376.7046"/>
<polygon fill="#191970" stroke="#191970" points="1045.5001,-376.6426 1042,-366.6427 1038.5001,-376.6427 1045.5001,-376.6426"/>
</g>
<!-- Node29 -->
<g id="node30" class="node">
<title>Node29</title>
<polygon fill="#ffffff" stroke="#bfbfbf" points="1087,-347.5 1087,-366.5 1131,-366.5 1131,-347.5 1087,-347.5"/>
<text text-anchor="middle" x="1109" y="-354.5" font-family="Helvetica,sans-Serif" font-size="10.00" fill="#000000">limits</text>
</g>
<!-- Node2&#45;&gt;Node29 -->
<g id="edge37" class="edge">
<title>Node2&#45;&gt;Node29</title>
<path fill="none" stroke="#191970" d="M1053.6705,-403.2455C1063.5661,-394.9746 1077.9627,-382.9416 1089.5901,-373.2232"/>
<polygon fill="#191970" stroke="#191970" points="1092.035,-375.7413 1097.4632,-366.6427 1087.5458,-370.3703 1092.035,-375.7413"/>
</g>
<!-- Node30 -->
<g id="node31" class="node">
<title>Node30</title>
<polygon fill="#ffffff" stroke="#bfbfbf" points="1149.5,-347.5 1149.5,-366.5 1196.5,-366.5 1196.5,-347.5 1149.5,-347.5"/>
<text text-anchor="middle" x="1173" y="-354.5" font-family="Helvetica,sans-Serif" font-size="10.00" fill="#000000">float.h</text>
</g>
<!-- Node2&#45;&gt;Node30 -->
<g id="edge39" class="edge">
<title>Node2&#45;&gt;Node30</title>
<path fill="none" stroke="#191970" d="M1064.5197,-403.3733C1085.7372,-394.3032 1117.7276,-380.6279 1141.4769,-370.4755"/>
<polygon fill="#191970" stroke="#191970" points="1142.9548,-373.6502 1150.7742,-366.5011 1140.2033,-367.2136 1142.9548,-373.6502"/>
</g>
<!-- Node4 -->
<g id="node5" class="node">
<title>Node4</title>
<g id="a_node5"><a xlink:href="RtypesCore_8h.html" target="_top" xlink:title="RtypesCore.h">
<polygon fill="#ffffff" stroke="#000000" points="1079,-112.5 1079,-131.5 1161,-131.5 1161,-112.5 1079,-112.5"/>
<text text-anchor="middle" x="1120" y="-119.5" font-family="Helvetica,sans-Serif" font-size="10.00" fill="#000000">RtypesCore.h</text>
</a>
</g>
</g>
<!-- Node3&#45;&gt;Node4 -->
<g id="edge4" class="edge">
<title>Node3&#45;&gt;Node4</title>
<path fill="none" stroke="#191970" d="M1214.1826,-285.89C1204.4375,-276.0015 1189.4791,-259.8457 1179,-244 1172.8812,-234.7477 1143.7585,-172.9184 1128.8456,-140.9981"/>
<polygon fill="#191970" stroke="#191970" points="1131.9495,-139.3727 1124.5502,-131.7898 1125.6058,-142.332 1131.9495,-139.3727"/>
</g>
<!-- Node9 -->
<g id="node10" class="node">
<title>Node9</title>
<g id="a_node10"><a xlink:href="DllImport_8h.html" target="_top" xlink:title="DllImport.h">
<polygon fill="#ffffff" stroke="#000000" points="1188.5,-224.5 1188.5,-243.5 1259.5,-243.5 1259.5,-224.5 1188.5,-224.5"/>
<text text-anchor="middle" x="1224" y="-231.5" font-family="Helvetica,sans-Serif" font-size="10.00" fill="#000000">DllImport.h</text>
</a>
</g>
</g>
<!-- Node3&#45;&gt;Node9 -->
<g id="edge9" class="edge">
<title>Node3&#45;&gt;Node9</title>
<path fill="none" stroke="#191970" d="M1224,-285.8906C1224,-277.3657 1224,-264.6392 1224,-253.9235"/>
<polygon fill="#191970" stroke="#191970" points="1227.5001,-253.7448 1224,-243.7449 1220.5001,-253.7449 1227.5001,-253.7448"/>
</g>
<!-- Node10 -->
<g id="node11" class="node">
<title>Node10</title>
<polygon fill="#ffffff" stroke="#bfbfbf" points="1278,-224.5 1278,-243.5 1340,-243.5 1340,-224.5 1278,-224.5"/>
<text text-anchor="middle" x="1309" y="-231.5" font-family="Helvetica,sans-Serif" font-size="10.00" fill="#000000">snprintf.h</text>
</g>
<!-- Node3&#45;&gt;Node10 -->
<g id="edge10" class="edge">
<title>Node3&#45;&gt;Node10</title>
<path fill="none" stroke="#191970" d="M1237.2813,-285.8906C1250.7548,-276.1421 1271.822,-260.8994 1287.6435,-249.4521"/>
<polygon fill="#191970" stroke="#191970" points="1289.7619,-252.2394 1295.812,-243.5419 1285.6586,-246.5682 1289.7619,-252.2394"/>
</g>
<!-- Node11 -->
<g id="node12" class="node">
<title>Node11</title>
<polygon fill="#ffffff" stroke="#bfbfbf" points="1358.5,-224.5 1358.5,-243.5 1415.5,-243.5 1415.5,-224.5 1358.5,-224.5"/>
<text text-anchor="middle" x="1387" y="-231.5" font-family="Helvetica,sans-Serif" font-size="10.00" fill="#000000">strlcpy.h</text>
</g>
<!-- Node3&#45;&gt;Node11 -->
<g id="edge11" class="edge">
<title>Node3&#45;&gt;Node11</title>
<path fill="none" stroke="#191970" d="M1249.4688,-285.8906C1277.1005,-275.4652 1321.3869,-258.7559 1352.2128,-247.1252"/>
<polygon fill="#191970" stroke="#191970" points="1353.5894,-250.3467 1361.7101,-243.5419 1351.1183,-243.7974 1353.5894,-250.3467"/>
</g>
<!-- Node12 -->
<g id="node13" class="node">
<title>Node12</title>
<polygon fill="#ffffff" stroke="#bfbfbf" points="1386,-168.5 1386,-187.5 1436,-187.5 1436,-168.5 1386,-168.5"/>
<text text-anchor="middle" x="1411" y="-175.5" font-family="Helvetica,sans-Serif" font-size="10.00" fill="#000000">atomic</text>
</g>
<!-- Node3&#45;&gt;Node12 -->
<g id="edge12" class="edge">
<title>Node3&#45;&gt;Node12</title>
<path fill="none" stroke="#191970" d="M1253.9117,-294.4545C1318.055,-291.5185 1465.4925,-280.8257 1496,-244 1515.0901,-220.9562 1477.0208,-200.9123 1445.8429,-189.1346"/>
<polygon fill="#191970" stroke="#191970" points="1446.6379,-185.7011 1436.0435,-185.6079 1444.2675,-192.2875 1446.6379,-185.7011"/>
</g>
<!-- Node13 -->
<g id="node14" class="node">
<title>Node13</title>
<polygon fill="#ffffff" stroke="#bfbfbf" points="898,-224.5 898,-243.5 948,-243.5 948,-224.5 898,-224.5"/>
<text text-anchor="middle" x="923" y="-231.5" font-family="Helvetica,sans-Serif" font-size="10.00" fill="#000000">stdio.h</text>
</g>
<!-- Node3&#45;&gt;Node13 -->
<g id="edge13" class="edge">
<title>Node3&#45;&gt;Node13</title>
<path fill="none" stroke="#191970" d="M1194.3889,-289.5182C1147.1398,-279.963 1051.7815,-260.6365 971,-244 966.873,-243.1501 962.5474,-242.255 958.2543,-241.3639"/>
<polygon fill="#191970" stroke="#191970" points="958.9079,-237.925 948.4047,-239.3153 957.4824,-244.7783 958.9079,-237.925"/>
</g>
<!-- Node14 -->
<g id="node15" class="node">
<title>Node14</title>
<polygon fill="#ffffff" stroke="#bfbfbf" points="1433.5,-224.5 1433.5,-243.5 1486.5,-243.5 1486.5,-224.5 1433.5,-224.5"/>
<text text-anchor="middle" x="1460" y="-231.5" font-family="Helvetica,sans-Serif" font-size="10.00" fill="#000000">string.h</text>
</g>
<!-- Node3&#45;&gt;Node14 -->
<g id="edge14" class="edge">
<title>Node3&#45;&gt;Node14</title>
<path fill="none" stroke="#191970" d="M1253.6963,-288.1623C1291.1356,-278.8523 1357.7083,-262.1026 1423.5609,-244.3458"/>
<polygon fill="#191970" stroke="#191970" points="1424.5293,-247.7097 1433.2681,-241.7194 1422.701,-240.9527 1424.5293,-247.7097"/>
</g>
<!-- Node15 -->
<g id="node16" class="node">
<title>Node15</title>
<polygon fill="#ffffff" stroke="#bfbfbf" points="1616.5,-168.5 1616.5,-187.5 1673.5,-187.5 1673.5,-168.5 1616.5,-168.5"/>
<text text-anchor="middle" x="1645" y="-175.5" font-family="Helvetica,sans-Serif" font-size="10.00" fill="#000000">typeinfo</text>
</g>
<!-- Node3&#45;&gt;Node15 -->
<g id="edge15" class="edge">
<title>Node3&#45;&gt;Node15</title>
<path fill="none" stroke="#191970" d="M1253.6579,-293.5682C1341.7933,-287.5725 1597.7607,-268.2213 1626,-244 1639.1262,-232.7415 1643.4778,-213.0565 1644.784,-198.1062"/>
<polygon fill="#191970" stroke="#191970" points="1648.2945,-197.9727 1645.2841,-187.8145 1641.3028,-197.6328 1648.2945,-197.9727"/>
</g>
<!-- Node16 -->
<g id="node17" class="node">
<title>Node16</title>
<polygon fill="#ffffff" stroke="#bfbfbf" points="877.5,-168.5 877.5,-187.5 946.5,-187.5 946.5,-168.5 877.5,-168.5"/>
<text text-anchor="middle" x="912" y="-175.5" font-family="Helvetica,sans-Serif" font-size="10.00" fill="#000000">type_traits</text>
</g>
<!-- Node3&#45;&gt;Node16 -->
<g id="edge16" class="edge">
<title>Node3&#45;&gt;Node16</title>
<path fill="none" stroke="#191970" d="M1194.4026,-291.8654C1151.9153,-285.891 1071.8369,-271.7815 1009,-244 979.5977,-231.0007 949.5805,-208.9439 930.8821,-193.9387"/>
<polygon fill="#191970" stroke="#191970" points="933.0869,-191.2203 923.1303,-187.5985 928.6551,-196.6388 933.0869,-191.2203"/>
</g>
<!-- Node17 -->
<g id="node18" class="node">
<title>Node17</title>
<g id="a_node18"><a xlink:href="TGenericClassInfo_8h.html" target="_top" xlink:title="TGenericClassInfo.h">
<polygon fill="#ffffff" stroke="#000000" points="1018,-224.5 1018,-243.5 1132,-243.5 1132,-224.5 1018,-224.5"/>
<text text-anchor="middle" x="1075" y="-231.5" font-family="Helvetica,sans-Serif" font-size="10.00" fill="#000000">TGenericClassInfo.h</text>
</a>
</g>
</g>
<!-- Node3&#45;&gt;Node17 -->
<g id="edge17" class="edge">
<title>Node3&#45;&gt;Node17</title>
<path fill="none" stroke="#191970" d="M1195.6563,-285.8906C1168.8361,-275.6457 1129.0905,-259.3326 1102.5426,-247.7339"/>
<polygon fill="#191970" stroke="#191970" points="1103.6295,-244.3876 1093.0685,-243.5419 1100.7971,-250.789 1103.6295,-244.3876"/>
</g>
<!-- Node21 -->
<g id="node22" class="node">
<title>Node21</title>
<g id="a_node22"><a xlink:href="TIsAProxy_8h.html" target="_top" xlink:title="TIsAProxy.h">
<polygon fill="#ffffff" stroke="#000000" points="1543.5,-224.5 1543.5,-243.5 1616.5,-243.5 1616.5,-224.5 1543.5,-224.5"/>
<text text-anchor="middle" x="1580" y="-231.5" font-family="Helvetica,sans-Serif" font-size="10.00" fill="#000000">TIsAProxy.h</text>
</a>
</g>
</g>
<!-- Node3&#45;&gt;Node21 -->
<g id="edge23" class="edge">
<title>Node3&#45;&gt;Node21</title>
<path fill="none" stroke="#191970" d="M1253.9176,-290.7168C1308.6087,-281.913 1428.3607,-262.3599 1529,-244 1530.4424,-243.7369 1531.9072,-243.4668 1533.3857,-243.1919"/>
<polygon fill="#191970" stroke="#191970" points="1534.0757,-246.6235 1543.2509,-241.3257 1532.7745,-239.7455 1534.0757,-246.6235"/>
</g>
<!-- Node5 -->
<g id="node6" class="node">
<title>Node5</title>
<g id="a_node6"><a xlink:href="RConfig_8hxx.html" target="_top" xlink:title="ROOT/RConfig.hxx">
<polygon fill="#ffffff" stroke="#000000" points="714.5,-56.5 714.5,-75.5 819.5,-75.5 819.5,-56.5 714.5,-56.5"/>
<text text-anchor="middle" x="767" y="-63.5" font-family="Helvetica,sans-Serif" font-size="10.00" fill="#000000">ROOT/RConfig.hxx</text>
</a>
</g>
</g>
<!-- Node4&#45;&gt;Node5 -->
<g id="edge5" class="edge">
<title>Node4&#45;&gt;Node5</title>
<path fill="none" stroke="#191970" d="M1078.8156,-115.4665C1017.5381,-105.7454 901.8779,-87.3971 829.9461,-75.9858"/>
<polygon fill="#191970" stroke="#191970" points="830.0871,-72.4645 819.6622,-74.3543 828.9902,-79.378 830.0871,-72.4645"/>
</g>
<!-- Node8 -->
<g id="node9" class="node">
<title>Node8</title>
<polygon fill="#ffffff" stroke="#bfbfbf" points="1092,-56.5 1092,-75.5 1148,-75.5 1148,-56.5 1092,-56.5"/>
<text text-anchor="middle" x="1120" y="-63.5" font-family="Helvetica,sans-Serif" font-size="10.00" fill="#000000">stddef.h</text>
</g>
<!-- Node4&#45;&gt;Node8 -->
<g id="edge8" class="edge">
<title>Node4&#45;&gt;Node8</title>
<path fill="none" stroke="#191970" d="M1120,-112.2455C1120,-104.9382 1120,-94.6944 1120,-85.7046"/>
<polygon fill="#191970" stroke="#191970" points="1123.5001,-85.6426 1120,-75.6427 1116.5001,-85.6427 1123.5001,-85.6426"/>
</g>
<!-- Node6 -->
<g id="node7" class="node">
<title>Node6</title>
<g id="a_node7"><a xlink:href="RVersion_8h.html" target="_top" xlink:title="../RVersion.h">
<polygon fill="#ffffff" stroke="#000000" points="728.5,-.5 728.5,-19.5 805.5,-19.5 805.5,-.5 728.5,-.5"/>
<text text-anchor="middle" x="767" y="-7.5" font-family="Helvetica,sans-Serif" font-size="10.00" fill="#000000">../RVersion.h</text>
</a>
</g>
</g>
<!-- Node5&#45;&gt;Node6 -->
<g id="edge6" class="edge">
<title>Node5&#45;&gt;Node6</title>
<path fill="none" stroke="#191970" d="M767,-56.2455C767,-48.9382 767,-38.6944 767,-29.7046"/>
<polygon fill="#191970" stroke="#191970" points="770.5001,-29.6426 767,-19.6427 763.5001,-29.6427 770.5001,-29.6426"/>
</g>
<!-- Node7 -->
<g id="node8" class="node">
<title>Node7</title>
<polygon fill="#ffffff" stroke="#bfbfbf" points="418,-.5 418,-19.5 496,-19.5 496,-.5 418,-.5"/>
<text text-anchor="middle" x="457" y="-7.5" font-family="Helvetica,sans-Serif" font-size="10.00" fill="#000000">RConfigure.h</text>
</g>
<!-- Node5&#45;&gt;Node7 -->
<g id="edge7" class="edge">
<title>Node5&#45;&gt;Node7</title>
<path fill="none" stroke="#191970" d="M714.4127,-56.5004C656.1943,-45.9835 563.0855,-29.1638 506.245,-18.8959"/>
<polygon fill="#191970" stroke="#191970" points="506.5333,-15.3914 496.0703,-17.0579 505.2888,-22.2799 506.5333,-15.3914"/>
</g>
<!-- Node17&#45;&gt;Node3 -->
<g id="edge22" class="edge">
<title>Node17&#45;&gt;Node3</title>
<path fill="none" stroke="#191970" d="M1103.1671,-243.5419C1130.0481,-253.8051 1170.0267,-270.2139 1196.633,-281.8428"/>
<polygon fill="#191970" stroke="#191970" points="1195.2202,-285.045 1205.7813,-285.8906 1198.0527,-278.6436 1195.2202,-285.045"/>
</g>
<!-- Node18 -->
<g id="node19" class="node">
<title>Node18</title>
<polygon fill="#ffffff" stroke="#bfbfbf" points="964.5,-168.5 964.5,-187.5 1011.5,-187.5 1011.5,-168.5 964.5,-168.5"/>
<text text-anchor="middle" x="988" y="-175.5" font-family="Helvetica,sans-Serif" font-size="10.00" fill="#000000">vector</text>
</g>
<!-- Node17&#45;&gt;Node18 -->
<g id="edge18" class="edge">
<title>Node17&#45;&gt;Node18</title>
<path fill="none" stroke="#191970" d="M1059.8458,-224.2455C1046.4973,-215.6534 1026.8414,-203.0014 1011.4617,-193.1018"/>
<polygon fill="#191970" stroke="#191970" points="1013.2836,-190.1121 1002.9806,-187.6427 1009.4949,-195.9982 1013.2836,-190.1121"/>
</g>
<!-- Node19 -->
<g id="node20" class="node">
<title>Node19</title>
<g id="a_node20"><a xlink:href="TSchemaHelper_8h.html" target="_top" xlink:title="TSchemaHelper.h">
<polygon fill="#ffffff" stroke="#000000" points="1030,-168.5 1030,-187.5 1132,-187.5 1132,-168.5 1030,-168.5"/>
<text text-anchor="middle" x="1081" y="-175.5" font-family="Helvetica,sans-Serif" font-size="10.00" fill="#000000">TSchemaHelper.h</text>
</a>
</g>
</g>
<!-- Node17&#45;&gt;Node19 -->
<g id="edge19" class="edge">
<title>Node17&#45;&gt;Node19</title>
<path fill="none" stroke="#191970" d="M1076.0451,-224.2455C1076.828,-216.9382 1077.9256,-206.6944 1078.8888,-197.7046"/>
<polygon fill="#191970" stroke="#191970" points="1082.3815,-197.9587 1079.9669,-187.6427 1075.4214,-197.2129 1082.3815,-197.9587"/>
</g>
<!-- Node19&#45;&gt;Node4 -->
<g id="edge20" class="edge">
<title>Node19&#45;&gt;Node4</title>
<path fill="none" stroke="#191970" d="M1087.7933,-168.2455C1093.2178,-160.4564 1100.9661,-149.3308 1107.5033,-139.9439"/>
<polygon fill="#191970" stroke="#191970" points="1110.4417,-141.849 1113.2846,-131.6427 1104.6975,-137.8485 1110.4417,-141.849"/>
</g>
<!-- Node20 -->
<g id="node21" class="node">
<title>Node20</title>
<polygon fill="#ffffff" stroke="#bfbfbf" points="294,-112.5 294,-131.5 338,-131.5 338,-112.5 294,-112.5"/>
<text text-anchor="middle" x="316" y="-119.5" font-family="Helvetica,sans-Serif" font-size="10.00" fill="#000000">string</text>
</g>
<!-- Node19&#45;&gt;Node20 -->
<g id="edge21" class="edge">
<title>Node19&#45;&gt;Node20</title>
<path fill="none" stroke="#191970" d="M1029.7954,-169.2351C1026.4853,-168.7832 1023.1986,-168.3658 1020,-168 761.9882,-138.4929 448.4496,-126.3089 348.344,-122.9937"/>
<polygon fill="#191970" stroke="#191970" points="348.3728,-119.4929 338.2644,-122.6662 348.1454,-126.4892 348.3728,-119.4929"/>
</g>
<!-- Node21&#45;&gt;Node4 -->
<g id="edge25" class="edge">
<title>Node21&#45;&gt;Node4</title>
<path fill="none" stroke="#191970" d="M1581.6377,-224.2713C1583.4706,-209.7245 1584.4133,-182.4709 1569,-168 1540.47,-141.2145 1283.0649,-128.222 1171.3516,-123.8064"/>
<polygon fill="#191970" stroke="#191970" points="1171.4545,-120.3079 1161.3264,-123.4178 1171.1833,-127.3026 1171.4545,-120.3079"/>
</g>
<!-- Node21&#45;&gt;Node12 -->
<g id="edge26" class="edge">
<title>Node21&#45;&gt;Node12</title>
<path fill="none" stroke="#191970" d="M1550.9479,-224.3733C1521.7387,-214.6945 1476.7036,-199.7716 1445.6498,-189.4816"/>
<polygon fill="#191970" stroke="#191970" points="1446.6898,-186.1391 1436.0965,-186.316 1444.488,-192.7838 1446.6898,-186.1391"/>
</g>
<!-- Node21&#45;&gt;Node15 -->
<g id="edge27" class="edge">
<title>Node21&#45;&gt;Node15</title>
<path fill="none" stroke="#191970" d="M1591.3221,-224.2455C1600.9223,-215.9746 1614.8892,-203.9416 1626.1695,-194.2232"/>
<polygon fill="#191970" stroke="#191970" points="1628.516,-196.8214 1633.8076,-187.6427 1623.947,-191.5182 1628.516,-196.8214"/>
</g>
<!-- Node22 -->
<g id="node23" class="node">
<title>Node22</title>
<g id="a_node23"><a xlink:href="TVirtualIsAProxy_8h.html" target="_top" xlink:title="TVirtualIsAProxy.h">
<polygon fill="#ffffff" stroke="#000000" points="1454.5,-168.5 1454.5,-187.5 1559.5,-187.5 1559.5,-168.5 1454.5,-168.5"/>
<text text-anchor="middle" x="1507" y="-175.5" font-family="Helvetica,sans-Serif" font-size="10.00" fill="#000000">TVirtualIsAProxy.h</text>
</a>
</g>
</g>
<!-- Node21&#45;&gt;Node22 -->
<g id="edge24" class="edge">
<title>Node21&#45;&gt;Node22</title>
<path fill="none" stroke="#191970" d="M1567.2844,-224.2455C1556.398,-215.8943 1540.5117,-203.7076 1527.78,-193.9408"/>
<polygon fill="#191970" stroke="#191970" points="1529.6346,-190.9523 1519.5699,-187.6427 1525.3739,-196.5063 1529.6346,-190.9523"/>
</g>
<!-- Node23&#45;&gt;Node3 -->
<g id="edge29" class="edge">
<title>Node23&#45;&gt;Node3</title>
<path fill="none" stroke="#191970" d="M921.0177,-349.8248C987.1089,-337.9746 1118.3069,-314.4508 1184.233,-302.6302"/>
<polygon fill="#191970" stroke="#191970" points="1185.008,-306.0472 1194.2333,-300.8372 1183.7726,-299.157 1185.008,-306.0472"/>
</g>
<!-- Node24 -->
<g id="node25" class="node">
<title>Node24</title>
<polygon fill="#ffffff" stroke="#bfbfbf" points="882.5,-286 882.5,-305 931.5,-305 931.5,-286 882.5,-286"/>
<text text-anchor="middle" x="907" y="-293" font-family="Helvetica,sans-Serif" font-size="10.00" fill="#000000">cstdlib</text>
</g>
<!-- Node23&#45;&gt;Node24 -->
<g id="edge30" class="edge">
<title>Node23&#45;&gt;Node24</title>
<path fill="none" stroke="#191970" d="M885.0625,-347.3906C888.7424,-338.6862 894.2742,-325.6015 898.862,-314.7494"/>
<polygon fill="#191970" stroke="#191970" points="902.21,-315.8185 902.8802,-305.2449 895.7625,-313.0927 902.21,-315.8185"/>
</g>
<!-- Node23&#45;&gt;Node25 -->
<g id="edge31" class="edge">
<title>Node23&#45;&gt;Node25</title>
<path fill="none" stroke="#191970" d="M895.375,-347.3906C910.0931,-337.5519 933.1832,-322.1167 950.3589,-310.6351"/>
<polygon fill="#191970" stroke="#191970" points="952.3575,-313.5091 958.7259,-305.0419 948.4673,-307.6896 952.3575,-313.5091"/>
</g>
<!-- Node23&#45;&gt;Node26 -->
<g id="edge32" class="edge">
<title>Node23&#45;&gt;Node26</title>
<path fill="none" stroke="#191970" d="M878.0967,-347.3762C869.5629,-319.0883 844.4365,-235.7987 832.9058,-197.5767"/>
<polygon fill="#191970" stroke="#191970" points="836.1567,-196.2343 829.9176,-187.6714 829.4551,-198.2561 836.1567,-196.2343"/>
</g>
<!-- Node27&#45;&gt;Node3 -->
<g id="edge34" class="edge">
<title>Node27&#45;&gt;Node3</title>
<path fill="none" stroke="#191970" d="M1069.2472,-347.7928C1100.2046,-337.332 1150.9437,-320.1866 1185.8322,-308.3974"/>
<polygon fill="#191970" stroke="#191970" points="1187.313,-311.5915 1195.6663,-305.0743 1185.0721,-304.9598 1187.313,-311.5915"/>
</g>
<!-- Node28 -->
<g id="node29" class="node">
<title>Node28</title>
<polygon fill="#ffffff" stroke="#bfbfbf" points="1015,-286 1015,-305 1071,-305 1071,-286 1015,-286"/>
<text text-anchor="middle" x="1043" y="-293" font-family="Helvetica,sans-Serif" font-size="10.00" fill="#000000">stdarg.h</text>
</g>
<!-- Node27&#45;&gt;Node28 -->
<g id="edge35" class="edge">
<title>Node27&#45;&gt;Node28</title>
<path fill="none" stroke="#191970" d="M1042.1563,-347.3906C1042.2949,-338.8657 1042.5018,-326.1392 1042.676,-315.4235"/>
<polygon fill="#191970" stroke="#191970" points="1046.1784,-315.3005 1042.8415,-305.2449 1039.1793,-315.1866 1046.1784,-315.3005"/>
</g>
<!-- Node31&#45;&gt;Node3 -->
<g id="edge41" class="edge">
<title>Node31&#45;&gt;Node3</title>
<path fill="none" stroke="#191970" d="M984.0936,-459.4475C1057.8852,-443.1027 1197.1025,-407.5797 1225,-367 1235.3,-352.0177 1233.4878,-330.7772 1230.0508,-315.3423"/>
<polygon fill="#191970" stroke="#191970" points="1233.3388,-314.0832 1227.4109,-305.3019 1226.5689,-315.8632 1233.3388,-314.0832"/>
</g>
<!-- Node32 -->
<g id="node33" class="node">
<title>Node32</title>
<g id="a_node33"><a xlink:href="TString_8h.html" target="_top" xlink:title="TString.h">
<polygon fill="#ffffff" stroke="#000000" points="718,-403.5 718,-422.5 778,-422.5 778,-403.5 718,-403.5"/>
<text text-anchor="middle" x="748" y="-410.5" font-family="Helvetica,sans-Serif" font-size="10.00" fill="#000000">TString.h</text>
</a>
</g>
</g>
<!-- Node31&#45;&gt;Node32 -->
<g id="edge42" class="edge">
<title>Node31&#45;&gt;Node32</title>
<path fill="none" stroke="#191970" d="M905.3378,-459.3733C872.7942,-449.7814 822.7765,-435.0394 787.9004,-424.7601"/>
<polygon fill="#191970" stroke="#191970" points="788.6278,-421.3257 778.0463,-421.8557 786.6488,-428.0402 788.6278,-421.3257"/>
</g>
<!-- Node32&#45;&gt;Node13 -->
<g id="edge77" class="edge">
<title>Node32&#45;&gt;Node13</title>
<path fill="none" stroke="#191970" d="M756.5604,-403.4241C776.4865,-381.2392 827.7237,-324.7969 873,-280 883.1168,-269.9903 894.8041,-259.1977 904.3341,-250.5838"/>
<polygon fill="#191970" stroke="#191970" points="906.956,-252.9336 912.06,-243.6492 902.2802,-247.7242 906.956,-252.9336"/>
</g>
<!-- Node32&#45;&gt;Node20 -->
<g id="edge78" class="edge">
<title>Node32&#45;&gt;Node20</title>
<path fill="none" stroke="#191970" d="M717.9313,-408.8527C636.7138,-396.8141 419,-358.6534 419,-295.5 419,-295.5 419,-295.5 419,-234 419,-203.3494 418.2604,-191.8431 399,-168 385.8458,-151.716 365.3023,-140.2646 347.9452,-132.8601"/>
<polygon fill="#191970" stroke="#191970" points="348.7589,-129.4166 338.1738,-128.9622 346.1652,-135.9183 348.7589,-129.4166"/>
</g>
<!-- Node32&#45;&gt;Node23 -->
<g id="edge43" class="edge">
<title>Node32&#45;&gt;Node23</title>
<path fill="none" stroke="#191970" d="M770.8635,-403.3733C792.405,-394.3032 824.8838,-380.6279 848.9956,-370.4755"/>
<polygon fill="#191970" stroke="#191970" points="850.5767,-373.6075 858.4348,-366.5011 847.8603,-367.156 850.5767,-373.6075"/>
</g>
<!-- Node32&#45;&gt;Node28 -->
<g id="edge76" class="edge">
<title>Node32&#45;&gt;Node28</title>
<path fill="none" stroke="#191970" d="M778.2589,-408.3755C815.167,-402.0586 878.9466,-388.9383 930,-367 964.6813,-352.097 1000.8927,-327.2813 1022.6996,-311.1569"/>
<polygon fill="#191970" stroke="#191970" points="1024.9563,-313.8393 1030.8512,-305.0358 1020.753,-308.2417 1024.9563,-313.8393"/>
</g>
<!-- Node33 -->
<g id="node34" class="node">
<title>Node33</title>
<g id="a_node34"><a xlink:href="RStringView_8hxx.html" target="_top" xlink:title="ROOT/RStringView.hxx">
<polygon fill="#ffffff" stroke="#000000" points="169.5,-347.5 169.5,-366.5 296.5,-366.5 296.5,-347.5 169.5,-347.5"/>
<text text-anchor="middle" x="233" y="-354.5" font-family="Helvetica,sans-Serif" font-size="10.00" fill="#000000">ROOT/RStringView.hxx</text>
</a>
</g>
</g>
<!-- Node32&#45;&gt;Node33 -->
<g id="edge44" class="edge">
<title>Node32&#45;&gt;Node33</title>
<path fill="none" stroke="#191970" d="M717.7071,-409.706C638.1749,-401.0579 421.6577,-377.5142 306.8158,-365.0266"/>
<polygon fill="#191970" stroke="#191970" points="307.0218,-361.5284 296.702,-363.9268 306.265,-368.4874 307.0218,-361.5284"/>
</g>
<!-- Node40 -->
<g id="node41" class="node">
<title>Node40</title>
<g id="a_node41"><a xlink:href="TypeTraits_8hxx.html" target="_top" xlink:title="ROOT/TypeTraits.hxx">
<polygon fill="#ffffff" stroke="#000000" points="562.5,-347.5 562.5,-366.5 679.5,-366.5 679.5,-347.5 562.5,-347.5"/>
<text text-anchor="middle" x="621" y="-354.5" font-family="Helvetica,sans-Serif" font-size="10.00" fill="#000000">ROOT/TypeTraits.hxx</text>
</a>
</g>
</g>
<!-- Node32&#45;&gt;Node40 -->
<g id="edge60" class="edge">
<title>Node32&#45;&gt;Node40</title>
<path fill="none" stroke="#191970" d="M726.1679,-403.3733C705.6897,-394.3435 674.8601,-380.7494 651.8681,-370.6111"/>
<polygon fill="#191970" stroke="#191970" points="653.1093,-367.3333 642.5472,-366.5011 650.285,-373.7383 653.1093,-367.3333"/>
</g>
<!-- Node47 -->
<g id="node48" class="node">
<title>Node47</title>
<polygon fill="#ffffff" stroke="#bfbfbf" points="697.5,-347.5 697.5,-366.5 746.5,-366.5 746.5,-347.5 697.5,-347.5"/>
<text text-anchor="middle" x="722" y="-354.5" font-family="Helvetica,sans-Serif" font-size="10.00" fill="#000000">iosfwd</text>
</g>
<!-- Node32&#45;&gt;Node47 -->
<g id="edge75" class="edge">
<title>Node32&#45;&gt;Node47</title>
<path fill="none" stroke="#191970" d="M743.4711,-403.2455C739.9666,-395.6973 735.0073,-385.0158 730.7377,-375.8197"/>
<polygon fill="#191970" stroke="#191970" points="733.8627,-374.2389 726.477,-366.6427 727.5136,-377.1867 733.8627,-374.2389"/>
</g>
<!-- Node33&#45;&gt;Node7 -->
<g id="edge45" class="edge">
<title>Node33&#45;&gt;Node7</title>
<path fill="none" stroke="#191970" d="M169.3317,-350.6311C100.3447,-339.8035 0,-310.8463 0,-234 0,-234 0,-234 0,-122 0,-38.8394 289.0767,-17.1134 407.4062,-11.7037"/>
<polygon fill="#191970" stroke="#191970" points="407.803,-15.1898 417.6409,-11.2573 407.4978,-8.1965 407.803,-15.1898"/>
</g>
<!-- Node34 -->
<g id="node35" class="node">
<title>Node34</title>
<g id="a_node35"><a xlink:href="RWrap__libcpp__string__view_8h.html" target="_top" xlink:title="RWrap_libcpp_string\l_view.h">
<polygon fill="#ffffff" stroke="#000000" points="175.5,-280.5 175.5,-310.5 290.5,-310.5 290.5,-280.5 175.5,-280.5"/>
<text text-anchor="start" x="183.5" y="-298.5" font-family="Helvetica,sans-Serif" font-size="10.00" fill="#000000">RWrap_libcpp_string</text>
<text text-anchor="middle" x="233" y="-287.5" font-family="Helvetica,sans-Serif" font-size="10.00" fill="#000000">_view.h</text>
</a>
</g>
</g>
<!-- Node33&#45;&gt;Node34 -->
<g id="edge46" class="edge">
<title>Node33&#45;&gt;Node34</title>
<path fill="none" stroke="#191970" d="M233,-347.3906C233,-340.2234 233,-330.0862 233,-320.671"/>
<polygon fill="#191970" stroke="#191970" points="236.5001,-320.5446 233,-310.5446 229.5001,-320.5446 236.5001,-320.5446"/>
</g>
<!-- Node34&#45;&gt;Node20 -->
<g id="edge47" class="edge">
<title>Node34&#45;&gt;Node20</title>
<path fill="none" stroke="#191970" d="M178.5527,-280.4837C112.4065,-259.6058 14.5887,-218.6075 57,-168 85.5614,-133.9189 220.5373,-125.0703 283.506,-122.7869"/>
<polygon fill="#191970" stroke="#191970" points="283.7972,-126.2793 293.6769,-122.4529 283.5674,-119.2831 283.7972,-126.2793"/>
</g>
<!-- Node34&#45;&gt;Node26 -->
<g id="edge48" class="edge">
<title>Node34&#45;&gt;Node26</title>
<path fill="none" stroke="#191970" d="M290.7722,-293.9118C371.5157,-290.4329 522.0279,-279.3417 645,-244 665.2572,-238.1782 668.4067,-231.7684 688,-224 720.0937,-211.2753 757.2588,-199.1046 785.0803,-190.4818"/>
<polygon fill="#191970" stroke="#191970" points="786.3496,-193.7534 794.8809,-187.4711 784.2939,-187.062 786.3496,-193.7534"/>
</g>
<!-- Node35 -->
<g id="node36" class="node">
<title>Node35</title>
<polygon fill="#ffffff" stroke="#bfbfbf" points="337.5,-168.5 337.5,-187.5 390.5,-187.5 390.5,-168.5 337.5,-168.5"/>
<text text-anchor="middle" x="364" y="-175.5" font-family="Helvetica,sans-Serif" font-size="10.00" fill="#000000">iterator</text>
</g>
<!-- Node34&#45;&gt;Node35 -->
<g id="edge49" class="edge">
<title>Node34&#45;&gt;Node35</title>
<path fill="none" stroke="#191970" d="M263.3626,-280.3981C279.9952,-271.2471 300.3464,-258.544 316,-244 331.0114,-230.0526 344.3813,-210.7997 353.1734,-196.6872"/>
<polygon fill="#191970" stroke="#191970" points="356.3256,-198.2376 358.4928,-187.8668 350.3313,-194.6226 356.3256,-198.2376"/>
</g>
<!-- Node36 -->
<g id="node37" class="node">
<title>Node36</title>
<polygon fill="#ffffff" stroke="#bfbfbf" points="66.5,-168.5 66.5,-187.5 123.5,-187.5 123.5,-168.5 66.5,-168.5"/>
<text text-anchor="middle" x="95" y="-175.5" font-family="Helvetica,sans-Serif" font-size="10.00" fill="#000000">ostream</text>
</g>
<!-- Node34&#45;&gt;Node36 -->
<g id="edge50" class="edge">
<title>Node34&#45;&gt;Node36</title>
<path fill="none" stroke="#191970" d="M208.4322,-280.4686C193.3207,-270.784 173.8767,-257.5141 158,-244 140.2192,-228.8652 122.0272,-209.2773 109.7928,-195.3826"/>
<polygon fill="#191970" stroke="#191970" points="112.1997,-192.8161 103.002,-187.5576 106.913,-197.4042 112.1997,-192.8161"/>
</g>
<!-- Node37 -->
<g id="node38" class="node">
<title>Node37</title>
<polygon fill="#ffffff" stroke="#bfbfbf" points="142,-168.5 142,-187.5 198,-187.5 198,-168.5 142,-168.5"/>
<text text-anchor="middle" x="170" y="-175.5" font-family="Helvetica,sans-Serif" font-size="10.00" fill="#000000">iomanip</text>
</g>
<!-- Node34&#45;&gt;Node37 -->
<g id="edge51" class="edge">
<title>Node34&#45;&gt;Node37</title>
<path fill="none" stroke="#191970" d="M202.6014,-280.4946C188.735,-271.8907 173.7152,-259.6614 166,-244 158.875,-229.5366 160.7722,-211.077 163.9364,-197.3599"/>
<polygon fill="#191970" stroke="#191970" points="167.3593,-198.11 166.5975,-187.5426 160.6031,-196.2786 167.3593,-198.11"/>
</g>
<!-- Node38 -->
<g id="node39" class="node">
<title>Node38</title>
<polygon fill="#ffffff" stroke="#bfbfbf" points="254.5,-168.5 254.5,-187.5 319.5,-187.5 319.5,-168.5 254.5,-168.5"/>
<text text-anchor="middle" x="287" y="-175.5" font-family="Helvetica,sans-Serif" font-size="10.00" fill="#000000">stdexcept</text>
</g>
<!-- Node34&#45;&gt;Node38 -->
<g id="edge52" class="edge">
<title>Node34&#45;&gt;Node38</title>
<path fill="none" stroke="#191970" d="M263.3986,-280.4946C277.265,-271.8907 292.2848,-259.6614 300,-244 307.2381,-229.307 302.6436,-210.9039 297.009,-197.2657"/>
<polygon fill="#191970" stroke="#191970" points="300.0533,-195.5104 292.6762,-187.9058 293.7009,-198.451 300.0533,-195.5104"/>
</g>
<!-- Node39 -->
<g id="node40" class="node">
<title>Node39</title>
<g id="a_node40"><a xlink:href="libcpp__string__view_8h.html" target="_top" xlink:title="libcpp_string_view.h">
<polygon fill="#ffffff" stroke="#000000" points="175,-224.5 175,-243.5 291,-243.5 291,-224.5 175,-224.5"/>
<text text-anchor="middle" x="233" y="-231.5" font-family="Helvetica,sans-Serif" font-size="10.00" fill="#000000">libcpp_string_view.h</text>
</a>
</g>
</g>
<!-- Node34&#45;&gt;Node39 -->
<g id="edge53" class="edge">
<title>Node34&#45;&gt;Node39</title>
<path fill="none" stroke="#191970" d="M233,-280.2977C233,-272.3834 233,-262.6043 233,-254.0759"/>
<polygon fill="#191970" stroke="#191970" points="236.5001,-253.8469 233,-243.8469 229.5001,-253.847 236.5001,-253.8469"/>
</g>
<!-- Node39&#45;&gt;Node20 -->
<g id="edge54" class="edge">
<title>Node39&#45;&gt;Node20</title>
<path fill="none" stroke="#191970" d="M232.4612,-224.1566C232.1925,-210.42 233.5031,-185.25 245,-168 254.622,-153.5632 270.4812,-142.6554 284.7729,-135.0937"/>
<polygon fill="#191970" stroke="#191970" points="286.4427,-138.1726 293.857,-130.6042 283.3413,-131.8971 286.4427,-138.1726"/>
</g>
<!-- Node39&#45;&gt;Node26 -->
<g id="edge55" class="edge">
<title>Node39&#45;&gt;Node26</title>
<path fill="none" stroke="#191970" d="M291.3623,-232.0253C392.4605,-227.9621 606.4734,-216.5253 785,-188 785.1018,-187.9837 785.2037,-187.9674 785.3057,-187.9509"/>
<polygon fill="#191970" stroke="#191970" points="785.8066,-191.4179 794.9959,-186.1447 784.5239,-184.5364 785.8066,-191.4179"/>
</g>
<!-- Node39&#45;&gt;Node35 -->
<g id="edge56" class="edge">
<title>Node39&#45;&gt;Node35</title>
<path fill="none" stroke="#191970" d="M255.5197,-224.3733C276.7372,-215.3032 308.7276,-201.6279 332.4769,-191.4755"/>
<polygon fill="#191970" stroke="#191970" points="333.9548,-194.6502 341.7742,-187.5011 331.2033,-188.2136 333.9548,-194.6502"/>
</g>
<!-- Node39&#45;&gt;Node36 -->
<g id="edge57" class="edge">
<title>Node39&#45;&gt;Node36</title>
<path fill="none" stroke="#191970" d="M209.277,-224.3733C186.8263,-215.2629 152.9261,-201.5062 127.8745,-191.3404"/>
<polygon fill="#191970" stroke="#191970" points="128.9957,-188.0182 118.4135,-187.5011 126.3635,-194.5045 128.9957,-188.0182"/>
</g>
<!-- Node39&#45;&gt;Node37 -->
<g id="edge58" class="edge">
<title>Node39&#45;&gt;Node37</title>
<path fill="none" stroke="#191970" d="M222.0262,-224.2455C212.8118,-216.0549 199.4468,-204.1749 188.5703,-194.5069"/>
<polygon fill="#191970" stroke="#191970" points="190.6474,-191.6704 180.848,-187.6427 185.9968,-196.9023 190.6474,-191.6704"/>
</g>
<!-- Node39&#45;&gt;Node38 -->
<g id="edge59" class="edge">
<title>Node39&#45;&gt;Node38</title>
<path fill="none" stroke="#191970" d="M242.4061,-224.2455C250.1493,-216.2155 261.312,-204.6394 270.5318,-195.0781"/>
<polygon fill="#191970" stroke="#191970" points="273.2798,-197.2706 277.7017,-187.6427 268.2409,-192.4117 273.2798,-197.2706"/>
</g>
<!-- Node40&#45;&gt;Node16 -->
<g id="edge62" class="edge">
<title>Node40&#45;&gt;Node16</title>
<path fill="none" stroke="#191970" d="M636.6454,-347.3762C684.6067,-317.8742 829.8241,-228.5481 887.757,-192.9123"/>
<polygon fill="#191970" stroke="#191970" points="889.5934,-195.892 896.2772,-187.6714 885.9258,-189.9296 889.5934,-195.892"/>
</g>
<!-- Node40&#45;&gt;Node18 -->
<g id="edge63" class="edge">
<title>Node40&#45;&gt;Node18</title>
<path fill="none" stroke="#191970" d="M647.6862,-347.363C671.0641,-338.6549 705.7737,-325.0777 735,-311 805.8236,-276.8859 819.0772,-259.9242 889,-224 911.3527,-212.5159 937.1098,-200.5874 956.7477,-191.7559"/>
<polygon fill="#191970" stroke="#191970" points="958.4298,-194.8378 966.1312,-187.5619 955.5734,-188.447 958.4298,-194.8378"/>
</g>
<!-- Node41 -->
<g id="node42" class="node">
<title>Node41</title>
<polygon fill="#ffffff" stroke="#bfbfbf" points="485,-168.5 485,-187.5 543,-187.5 543,-168.5 485,-168.5"/>
<text text-anchor="middle" x="514" y="-175.5" font-family="Helvetica,sans-Serif" font-size="10.00" fill="#000000">memory</text>
</g>
<!-- Node40&#45;&gt;Node41 -->
<g id="edge61" class="edge">
<title>Node40&#45;&gt;Node41</title>
<path fill="none" stroke="#191970" d="M586.1138,-347.3476C567.3973,-340.3364 545.641,-328.8757 533,-311 508.9721,-277.022 509.2075,-225.8031 511.557,-197.8796"/>
<polygon fill="#191970" stroke="#191970" points="515.0552,-198.0746 512.5906,-187.7704 508.0915,-197.3626 515.0552,-198.0746"/>
</g>
<!-- Node42 -->
<g id="node43" class="node">
<title>Node42</title>
<g id="a_node43"><a xlink:href="RSpan_8hxx.html" target="_top" xlink:title="ROOT/RSpan.hxx">
<polygon fill="#ffffff" stroke="#000000" points="542.5,-286 542.5,-305 641.5,-305 641.5,-286 542.5,-286"/>
<text text-anchor="middle" x="592" y="-293" font-family="Helvetica,sans-Serif" font-size="10.00" fill="#000000">ROOT/RSpan.hxx</text>
</a>
</g>
</g>
<!-- Node40&#45;&gt;Node42 -->
<g id="edge64" class="edge">
<title>Node40&#45;&gt;Node42</title>
<path fill="none" stroke="#191970" d="M616.4688,-347.3906C612.3219,-338.5965 606.0668,-325.3312 600.919,-314.4145"/>
<polygon fill="#191970" stroke="#191970" points="604.0259,-312.7969 596.5951,-305.2449 597.6945,-315.7825 604.0259,-312.7969"/>
</g>
<!-- Node42&#45;&gt;Node7 -->
<g id="edge65" class="edge">
<title>Node42&#45;&gt;Node7</title>
<path fill="none" stroke="#191970" d="M564.6807,-285.8977C525.2333,-270.0815 457,-234.5504 457,-178 457,-178 457,-178 457,-122 457,-89.7116 457,-52.1872 457,-29.8048"/>
<polygon fill="#191970" stroke="#191970" points="460.5001,-29.5883 457,-19.5884 453.5001,-29.5884 460.5001,-29.5883"/>
</g>
<!-- Node43 -->
<g id="node44" class="node">
<title>Node43</title>
<g id="a_node44"><a xlink:href="span_8hxx.html" target="_top" xlink:title="ROOT/span.hxx">
<polygon fill="#ffffff" stroke="#000000" points="544,-224.5 544,-243.5 636,-243.5 636,-224.5 544,-224.5"/>
<text text-anchor="middle" x="590" y="-231.5" font-family="Helvetica,sans-Serif" font-size="10.00" fill="#000000">ROOT/span.hxx</text>
</a>
</g>
</g>
<!-- Node42&#45;&gt;Node43 -->
<g id="edge66" class="edge">
<title>Node42&#45;&gt;Node43</title>
<path fill="none" stroke="#191970" d="M591.6875,-285.8906C591.4103,-277.3657 590.9964,-264.6392 590.6479,-253.9235"/>
<polygon fill="#191970" stroke="#191970" points="594.1402,-253.6258 590.3169,-243.7449 587.1439,-253.8534 594.1402,-253.6258"/>
</g>
<!-- Node43&#45;&gt;Node16 -->
<g id="edge73" class="edge">
<title>Node43&#45;&gt;Node16</title>
<path fill="none" stroke="#191970" d="M636.3894,-227.1876C689.7052,-219.1661 780.0462,-204.9882 867.6192,-187.98"/>
<polygon fill="#191970" stroke="#191970" points="868.3124,-191.4108 877.4541,-186.0555 866.968,-184.5411 868.3124,-191.4108"/>
</g>
<!-- Node43&#45;&gt;Node18 -->
<g id="edge70" class="edge">
<title>Node43&#45;&gt;Node18</title>
<path fill="none" stroke="#191970" d="M636.2252,-230.6912C704.0076,-225.29 834.3948,-212.8163 954.2501,-187.8317"/>
<polygon fill="#191970" stroke="#191970" points="955.2749,-191.1923 964.3318,-185.6948 953.8234,-184.3444 955.2749,-191.1923"/>
</g>
<!-- Node43&#45;&gt;Node35 -->
<g id="edge68" class="edge">
<title>Node43&#45;&gt;Node35</title>
<path fill="none" stroke="#191970" d="M551.406,-224.4369C509.2176,-213.9831 442.1201,-197.3572 400.6968,-187.093"/>
<polygon fill="#191970" stroke="#191970" points="401.2977,-183.6361 390.7494,-184.6282 399.6141,-190.4307 401.2977,-183.6361"/>
</g>
<!-- Node43&#45;&gt;Node38 -->
<g id="edge71" class="edge">
<title>Node43&#45;&gt;Node38</title>
<path fill="none" stroke="#191970" d="M543.9171,-226.8455C493.5,-218.8096 410.0944,-204.907 329.4487,-188.212"/>
<polygon fill="#191970" stroke="#191970" points="330.1341,-184.7798 319.6299,-186.1624 328.7037,-191.6321 330.1341,-184.7798"/>
</g>
<!-- Node43&#45;&gt;Node41 -->
<g id="edge72" class="edge">
<title>Node43&#45;&gt;Node41</title>
<path fill="none" stroke="#191970" d="M576.7618,-224.2455C565.319,-215.814 548.5704,-203.4729 535.2525,-193.6598"/>
<polygon fill="#191970" stroke="#191970" points="537.2133,-190.757 527.0865,-187.6427 533.0609,-196.3924 537.2133,-190.757"/>
</g>
<!-- Node44 -->
<g id="node45" class="node">
<title>Node44</title>
<polygon fill="#ffffff" stroke="#bfbfbf" points="561.5,-168.5 561.5,-187.5 614.5,-187.5 614.5,-168.5 561.5,-168.5"/>
<text text-anchor="middle" x="588" y="-175.5" font-family="Helvetica,sans-Serif" font-size="10.00" fill="#000000">cstddef</text>
</g>
<!-- Node43&#45;&gt;Node44 -->
<g id="edge67" class="edge">
<title>Node43&#45;&gt;Node44</title>
<path fill="none" stroke="#191970" d="M589.6516,-224.2455C589.3907,-216.9382 589.0248,-206.6944 588.7037,-197.7046"/>
<polygon fill="#191970" stroke="#191970" points="592.1992,-197.5113 588.3444,-187.6427 585.2036,-197.7613 592.1992,-197.5113"/>
</g>
<!-- Node45 -->
<g id="node46" class="node">
<title>Node45</title>
<polygon fill="#ffffff" stroke="#bfbfbf" points="633,-168.5 633,-187.5 675,-187.5 675,-168.5 633,-168.5"/>
<text text-anchor="middle" x="654" y="-175.5" font-family="Helvetica,sans-Serif" font-size="10.00" fill="#000000">array</text>
</g>
<!-- Node43&#45;&gt;Node45 -->
<g id="edge69" class="edge">
<title>Node43&#45;&gt;Node45</title>
<path fill="none" stroke="#191970" d="M601.1479,-224.2455C610.5087,-216.0549 624.0858,-204.1749 635.1349,-194.5069"/>
<polygon fill="#191970" stroke="#191970" points="637.7588,-196.8618 642.9798,-187.6427 633.1492,-191.5937 637.7588,-196.8618"/>
</g>
<!-- Node46 -->
<g id="node47" class="node">
<title>Node46</title>
<polygon fill="#ffffff" stroke="#bfbfbf" points="693.5,-168.5 693.5,-187.5 776.5,-187.5 776.5,-168.5 693.5,-168.5"/>
<text text-anchor="middle" x="735" y="-175.5" font-family="Helvetica,sans-Serif" font-size="10.00" fill="#000000">initializer_list</text>
</g>
<!-- Node43&#45;&gt;Node46 -->
<g id="edge74" class="edge">
<title>Node43&#45;&gt;Node46</title>
<path fill="none" stroke="#191970" d="M614.9264,-224.3733C638.6202,-215.2226 674.4511,-201.3844 700.8068,-191.2057"/>
<polygon fill="#191970" stroke="#191970" points="702.3314,-194.3689 710.3989,-187.5011 699.8094,-187.8389 702.3314,-194.3689"/>
</g>
</g>
</svg>
