<?xml version="1.0" encoding="UTF-8" standalone="no"?>
<!DOCTYPE svg PUBLIC "-//W3C//DTD SVG 1.1//EN"
 "http://www.w3.org/Graphics/SVG/1.1/DTD/svg11.dtd">
<!-- Generated by graphviz version 2.40.1 (0)
 -->
<!-- Title: tmva/tmva/inc/TMVA/ResultsClassification.h Pages: 1 -->
<svg width="1838pt" height="173pt"
 viewBox="0.00 0.00 1838.00 173.00" xmlns="http://www.w3.org/2000/svg" xmlns:xlink="http://www.w3.org/1999/xlink">
<g id="graph0" class="graph" transform="scale(1 1) rotate(0) translate(4 169)">
<title>tmva/tmva/inc/TMVA/ResultsClassification.h</title>
<polygon fill="#ffffff" stroke="transparent" points="-4,4 -4,-169 1834,-169 1834,4 -4,4"/>
<!-- Node95 -->
<g id="node1" class="node">
<title>Node95</title>
<polygon fill="#bfbfbf" stroke="#000000" points="813.5,-134.5 813.5,-164.5 942.5,-164.5 942.5,-134.5 813.5,-134.5"/>
<text text-anchor="start" x="821.5" y="-152.5" font-family="Helvetica,sans-Serif" font-size="10.00" fill="#000000">tmva/tmva/inc/TMVA</text>
<text text-anchor="middle" x="878" y="-141.5" font-family="Helvetica,sans-Serif" font-size="10.00" fill="#000000">/ResultsClassification.h</text>
</g>
<!-- Node96 -->
<g id="node2" class="node">
<title>Node96</title>
<g id="a_node2"><a xlink:href="MethodPyGTB_8cxx.html" target="_top" xlink:title="tmva/pymva/src/MethodPyGTB.cxx">
<polygon fill="#ffffff" stroke="#000000" points="0,-73 0,-92 188,-92 188,-73 0,-73"/>
<text text-anchor="middle" x="94" y="-80" font-family="Helvetica,sans-Serif" font-size="10.00" fill="#000000">tmva/pymva/src/MethodPyGTB.cxx</text>
</a>
</g>
</g>
<!-- Node95&#45;&gt;Node96 -->
<g id="edge1" class="edge">
<title>Node95&#45;&gt;Node96</title>
<path fill="none" stroke="#191970" d="M802.7832,-145.6328C677.0762,-138.7619 416.4526,-122.7759 197,-98 182.445,-96.3568 166.789,-94.2016 152.1858,-92.0231"/>
<polygon fill="#191970" stroke="#191970" points="802.8862,-149.1435 813.0612,-146.1907 803.2657,-142.1537 802.8862,-149.1435"/>
</g>
<!-- Node97 -->
<g id="node3" class="node">
<title>Node97</title>
<g id="a_node3"><a xlink:href="Classification_8h.html" target="_top" xlink:title="tmva/tmva/inc/TMVA\l/Classification.h">
<polygon fill="#ffffff" stroke="#000000" points="206,-67.5 206,-97.5 324,-97.5 324,-67.5 206,-67.5"/>
<text text-anchor="start" x="214" y="-85.5" font-family="Helvetica,sans-Serif" font-size="10.00" fill="#000000">tmva/tmva/inc/TMVA</text>
<text text-anchor="middle" x="265" y="-74.5" font-family="Helvetica,sans-Serif" font-size="10.00" fill="#000000">/Classification.h</text>
</a>
</g>
</g>
<!-- Node95&#45;&gt;Node97 -->
<g id="edge2" class="edge">
<title>Node95&#45;&gt;Node97</title>
<path fill="none" stroke="#191970" d="M802.9802,-145.4105C697.7069,-138.9886 500.3804,-124.4543 334,-98 330.7261,-97.4795 327.3753,-96.8963 324.0002,-96.2695"/>
<polygon fill="#191970" stroke="#191970" points="802.9938,-148.9176 813.1861,-146.0252 803.4147,-141.9302 802.9938,-148.9176"/>
</g>
<!-- Node100 -->
<g id="node6" class="node">
<title>Node100</title>
<g id="a_node6"><a xlink:href="CrossValidation_8cxx.html" target="_top" xlink:title="tmva/tmva/src/CrossValidation.cxx">
<polygon fill="#ffffff" stroke="#000000" points="342.5,-73 342.5,-92 529.5,-92 529.5,-73 342.5,-73"/>
<text text-anchor="middle" x="436" y="-80" font-family="Helvetica,sans-Serif" font-size="10.00" fill="#000000">tmva/tmva/src/CrossValidation.cxx</text>
</a>
</g>
</g>
<!-- Node95&#45;&gt;Node100 -->
<g id="edge5" class="edge">
<title>Node95&#45;&gt;Node100</title>
<path fill="none" stroke="#191970" d="M803.3482,-138.184C717.7721,-125.2121 579.0138,-104.1786 498.7706,-92.015"/>
<polygon fill="#191970" stroke="#191970" points="802.8444,-141.6475 813.256,-139.6859 803.8936,-134.7266 802.8444,-141.6475"/>
</g>
<!-- Node101 -->
<g id="node7" class="node">
<title>Node101</title>
<g id="a_node7"><a xlink:href="DataSet_8cxx.html" target="_top" xlink:title="tmva/tmva/src/DataSet.cxx">
<polygon fill="#ffffff" stroke="#000000" points="548,-73 548,-92 698,-92 698,-73 548,-73"/>
<text text-anchor="middle" x="623" y="-80" font-family="Helvetica,sans-Serif" font-size="10.00" fill="#000000">tmva/tmva/src/DataSet.cxx</text>
</a>
</g>
</g>
<!-- Node95&#45;&gt;Node101 -->
<g id="edge6" class="edge">
<title>Node95&#45;&gt;Node101</title>
<path fill="none" stroke="#191970" d="M810.9616,-131.886C762.3772,-119.1207 698.551,-102.3507 659.1768,-92.0053"/>
<polygon fill="#191970" stroke="#191970" points="810.2118,-135.3077 820.773,-134.4639 811.9907,-128.5375 810.2118,-135.3077"/>
</g>
<!-- Node102 -->
<g id="node8" class="node">
<title>Node102</title>
<g id="a_node8"><a xlink:href="Envelope_8cxx.html" target="_top" xlink:title="tmva/tmva/src/Envelope.cxx">
<polygon fill="#ffffff" stroke="#000000" points="716,-73 716,-92 872,-92 872,-73 716,-73"/>
<text text-anchor="middle" x="794" y="-80" font-family="Helvetica,sans-Serif" font-size="10.00" fill="#000000">tmva/tmva/src/Envelope.cxx</text>
</a>
</g>
</g>
<!-- Node95&#45;&gt;Node102 -->
<g id="edge7" class="edge">
<title>Node95&#45;&gt;Node102</title>
<path fill="none" stroke="#191970" d="M850.8903,-127.8767C835.7451,-115.7967 817.6325,-101.3498 805.9794,-92.055"/>
<polygon fill="#191970" stroke="#191970" points="848.9388,-130.7973 858.9391,-134.2967 853.3038,-125.3248 848.9388,-130.7973"/>
</g>
<!-- Node103 -->
<g id="node9" class="node">
<title>Node103</title>
<g id="a_node9"><a xlink:href="tmva_2tmva_2src_2Factory_8cxx.html" target="_top" xlink:title="tmva/tmva/src/Factory.cxx">
<polygon fill="#ffffff" stroke="#000000" points="890.5,-73 890.5,-92 1035.5,-92 1035.5,-73 890.5,-73"/>
<text text-anchor="middle" x="963" y="-80" font-family="Helvetica,sans-Serif" font-size="10.00" fill="#000000">tmva/tmva/src/Factory.cxx</text>
</a>
</g>
</g>
<!-- Node95&#45;&gt;Node103 -->
<g id="edge8" class="edge">
<title>Node95&#45;&gt;Node103</title>
<path fill="none" stroke="#191970" d="M905.4325,-127.8767C920.758,-115.7967 939.0861,-101.3498 950.878,-92.055"/>
<polygon fill="#191970" stroke="#191970" points="902.9747,-125.3574 897.2878,-134.2967 907.3081,-130.8549 902.9747,-125.3574"/>
</g>
<!-- Node104 -->
<g id="node10" class="node">
<title>Node104</title>
<g id="a_node10"><a xlink:href="HyperParameterOptimisation_8cxx.html" target="_top" xlink:title="tmva/tmva/src/HyperParameter\lOptimisation.cxx">
<polygon fill="#ffffff" stroke="#000000" points="1054,-67.5 1054,-97.5 1224,-97.5 1224,-67.5 1054,-67.5"/>
<text text-anchor="start" x="1062" y="-85.5" font-family="Helvetica,sans-Serif" font-size="10.00" fill="#000000">tmva/tmva/src/HyperParameter</text>
<text text-anchor="middle" x="1139" y="-74.5" font-family="Helvetica,sans-Serif" font-size="10.00" fill="#000000">Optimisation.cxx</text>
</a>
</g>
</g>
<!-- Node95&#45;&gt;Node104 -->
<g id="edge9" class="edge">
<title>Node95&#45;&gt;Node104</title>
<path fill="none" stroke="#191970" d="M946.347,-131.955C987.9153,-121.2842 1040.4606,-107.7955 1080.171,-97.6017"/>
<polygon fill="#191970" stroke="#191970" points="945.3892,-128.5873 936.5735,-134.4639 947.1297,-135.3675 945.3892,-128.5873"/>
</g>
<!-- Node105 -->
<g id="node11" class="node">
<title>Node105</title>
<g id="a_node11"><a xlink:href="MethodBase_8cxx.html" target="_top" xlink:title="tmva/tmva/src/MethodBase.cxx">
<polygon fill="#ffffff" stroke="#000000" points="1242.5,-73 1242.5,-92 1413.5,-92 1413.5,-73 1242.5,-73"/>
<text text-anchor="middle" x="1328" y="-80" font-family="Helvetica,sans-Serif" font-size="10.00" fill="#000000">tmva/tmva/src/MethodBase.cxx</text>
</a>
</g>
</g>
<!-- Node95&#45;&gt;Node105 -->
<g id="edge10" class="edge">
<title>Node95&#45;&gt;Node105</title>
<path fill="none" stroke="#191970" d="M952.8169,-139.0377C1024.7,-128.8931 1136.3488,-112.8941 1233,-98 1245.222,-96.1166 1258.316,-94.0269 1270.7568,-92.0075"/>
<polygon fill="#191970" stroke="#191970" points="951.9198,-135.6295 942.5062,-140.4911 952.8969,-142.5609 951.9198,-135.6295"/>
</g>
<!-- Node106 -->
<g id="node12" class="node">
<title>Node106</title>
<g id="a_node12"><a xlink:href="MethodSVM_8cxx.html" target="_top" xlink:title="tmva/tmva/src/MethodSVM.cxx">
<polygon fill="#ffffff" stroke="#000000" points="1432,-73 1432,-92 1600,-92 1600,-73 1432,-73"/>
<text text-anchor="middle" x="1516" y="-80" font-family="Helvetica,sans-Serif" font-size="10.00" fill="#000000">tmva/tmva/src/MethodSVM.cxx</text>
</a>
</g>
</g>
<!-- Node95&#45;&gt;Node106 -->
<g id="edge11" class="edge">
<title>Node95&#45;&gt;Node106</title>
<path fill="none" stroke="#191970" d="M952.968,-144.1078C1058.2117,-136.1534 1255.6399,-119.8261 1423,-98 1435.9849,-96.3066 1449.9362,-94.1579 1462.982,-92.0038"/>
<polygon fill="#191970" stroke="#191970" points="952.475,-140.6349 942.7655,-144.8745 952.9997,-147.6153 952.475,-140.6349"/>
</g>
<!-- Node107 -->
<g id="node13" class="node">
<title>Node107</title>
<g id="a_node13"><a xlink:href="ResultsClassification_8cxx.html" target="_top" xlink:title="tmva/tmva/src/ResultsClassification.cxx">
<polygon fill="#ffffff" stroke="#000000" points="1618,-73 1618,-92 1830,-92 1830,-73 1618,-73"/>
<text text-anchor="middle" x="1724" y="-80" font-family="Helvetica,sans-Serif" font-size="10.00" fill="#000000">tmva/tmva/src/ResultsClassification.cxx</text>
</a>
</g>
</g>
<!-- Node95&#45;&gt;Node107 -->
<g id="edge12" class="edge">
<title>Node95&#45;&gt;Node107</title>
<path fill="none" stroke="#191970" d="M952.6949,-145.8107C1085.1319,-138.9186 1369.7057,-122.5305 1609,-98 1625.1328,-96.3462 1642.4909,-94.1998 1658.7084,-92.0342"/>
<polygon fill="#191970" stroke="#191970" points="952.4631,-142.3179 942.6573,-146.33 952.8248,-149.3085 952.4631,-142.3179"/>
</g>
<!-- Node98 -->
<g id="node4" class="node">
<title>Node98</title>
<g id="a_node4"><a xlink:href="Classification_8cxx.html" target="_top" xlink:title="tmva/tmva/src/Classification.cxx">
<polygon fill="#ffffff" stroke="#000000" points="90,-6 90,-25 266,-25 266,-6 90,-6"/>
<text text-anchor="middle" x="178" y="-13" font-family="Helvetica,sans-Serif" font-size="10.00" fill="#000000">tmva/tmva/src/Classification.cxx</text>
</a>
</g>
</g>
<!-- Node97&#45;&gt;Node98 -->
<g id="edge3" class="edge">
<title>Node97&#45;&gt;Node98</title>
<path fill="none" stroke="#191970" d="M236.922,-60.8767C221.236,-48.7967 202.4766,-34.3498 190.4072,-25.055"/>
<polygon fill="#191970" stroke="#191970" points="235.1999,-63.9681 245.2584,-67.2967 239.471,-58.4221 235.1999,-63.9681"/>
</g>
<!-- Node99 -->
<g id="node5" class="node">
<title>Node99</title>
<g id="a_node5"><a xlink:href="classification_8C.html" target="_top" xlink:title=" &lt;a href=&quot;http://nbviewer.jupyter.org/url/root.cern.ch/doc/master/notebooks/classification.C.nbconvert.ipynb&quot; target=&quot;_blank&quot;&gt;&lt;img src= notebook.gif alt=&quot;View in nbviewer&quot; style=&quot;height:1em&quot; &gt;&lt;/a&gt; &lt;a href=&quot;https://cern.ch/swanserver/cgi&#45;bin/go?projurl=https://root.cern.ch/doc/master/notebooks/classification.C.nbconvert.ipynb&quot; target=&quot;_blank&quot;&gt;&lt;img src=&quot;http://swanserver.web.cern.ch/swanserver/images/badge_swan_white_150.png&quot; &#160;alt=&quot;Open in SWAN&quot; style=&quot;height:1em&quot; &gt;&lt;/a&gt; &#160;">
<polygon fill="#ffffff" stroke="#000000" points="284,-.5 284,-30.5 418,-30.5 418,-.5 284,-.5"/>
<text text-anchor="start" x="292" y="-18.5" font-family="Helvetica,sans-Serif" font-size="10.00" fill="#000000">tutorials/tmva/envelope</text>
<text text-anchor="middle" x="351" y="-7.5" font-family="Helvetica,sans-Serif" font-size="10.00" fill="#000000">/classification.C</text>
</a>
</g>
</g>
<!-- Node97&#45;&gt;Node99 -->
<g id="edge4" class="edge">
<title>Node97&#45;&gt;Node99</title>
<path fill="none" stroke="#191970" d="M292.5145,-61.0643C305.2304,-51.1577 320.0316,-39.6265 331.5625,-30.6432"/>
<polygon fill="#191970" stroke="#191970" points="290.2523,-58.3899 284.5147,-67.2967 294.5544,-63.9119 290.2523,-58.3899"/>
</g>
</g>
</svg>
