<?xml version="1.0" encoding="UTF-8" standalone="no"?>
<!DOCTYPE svg PUBLIC "-//W3C//DTD SVG 1.1//EN"
 "http://www.w3.org/Graphics/SVG/1.1/DTD/svg11.dtd">
<!-- Generated by graphviz version 2.40.1 (0)
 -->
<!-- Title: tree/ntuple/v7/inc/ROOT/RField.hxx Pages: 1 -->
<!--zoomable 307 -->
<svg id="main" version="1.1" xmlns="http://www.w3.org/2000/svg" xmlns:xlink="http://www.w3.org/1999/xlink" xml:space="preserve" onload="init(evt)">
<style type="text/css"><![CDATA[
.edge:hover path { stroke: red; }
.edge:hover polygon { stroke: red; fill: red; }
]]></style>
<script type="text/javascript"><![CDATA[
var edges = document.getElementsByTagName('g');
if (edges && edges.length) {
  for (var i=0;i<edges.length;i++) {
    if (edges[i].id.substr(0,4)=='edge') {
      edges[i].setAttribute('class','edge');
    }
  }
}
]]></script>
        <defs>
                <circle id="rim" cx="0" cy="0" r="7"/>
                <circle id="rim2" cx="0" cy="0" r="3.5"/>
                <g id="zoomPlus">
                        <use xlink:href="#rim" fill="#404040">
                                <set attributeName="fill" to="#808080" begin="zoomplus.mouseover" end="zoomplus.mouseout"/>
                        </use>
                        <path d="M-4,0h8M0,-4v8" fill="none" stroke="white" stroke-width="1.5" pointer-events="none"/>
                </g>
                <g id="zoomMin">
                        <use xlink:href="#rim" fill="#404040">
                                <set attributeName="fill" to="#808080" begin="zoomminus.mouseover" end="zoomminus.mouseout"/>
                        </use>
                        <path d="M-4,0h8" fill="none" stroke="white" stroke-width="1.5" pointer-events="none"/>
                </g>
                <g id="dirArrow">
                        <path fill="none" stroke="white" stroke-width="1.5" d="M0,-3.0v7 M-2.5,-0.5L0,-3.0L2.5,-0.5"/>
                </g>
               <g id="resetDef">
                       <use xlink:href="#rim2" fill="#404040">
                               <set attributeName="fill" to="#808080" begin="reset.mouseover" end="reset.mouseout"/>
                       </use>
               </g>
        </defs>

<script type="text/javascript">
var viewWidth = 568;
var viewHeight = 307;
var sectionId = 'dynsection-1';
</script>
<script xlink:href="svgpan.js"/>
<svg id="graph" class="graph">
<g id="viewport">
<title>tree/ntuple/v7/inc/ROOT/RField.hxx</title>
<polygon fill="#ffffff" stroke="transparent" points="-4,4 -4,-303 563.503,-303 563.503,4 -4,4"/>
<!-- Node58 -->
<g id="node1" class="node">
<title>Node58</title>
<polygon fill="#bfbfbf" stroke="#000000" points="270.212,-268.5 270.212,-298.5 372.212,-298.5 372.212,-268.5 270.212,-268.5"/>
<text text-anchor="start" x="278.212" y="-286.5" font-family="Helvetica,sans-Serif" font-size="10.00" fill="#000000">tree/ntuple/v7/inc</text>
<text text-anchor="middle" x="321.212" y="-275.5" font-family="Helvetica,sans-Serif" font-size="10.00" fill="#000000">/ROOT/RField.hxx</text>
</g>
<!-- Node58&#45;&gt;Node58 -->
<g id="edge14" class="edge">
<title>Node58&#45;&gt;Node58</title>
<path fill="none" stroke="#191970" d="M382.2254,-292.9701C387.1559,-290.9096 390.212,-287.7529 390.212,-283.5 390.212,-276.8613 382.7655,-272.8937 372.3665,-271.5971"/>
<polygon fill="#191970" stroke="#191970" points="381.2368,-289.609 372.3665,-295.4029 382.9139,-296.4052 381.2368,-289.609"/>
</g>
<!-- Node59 -->
<g id="node2" class="node">
<title>Node59</title>
<g id="a_node2"><a xlink:href="REntry_8hxx.html" target="_top" xlink:title="tree/ntuple/v7/inc\l/ROOT/REntry.hxx">
<polygon fill="#ffffff" stroke="#000000" points="87.212,-201.5 87.212,-231.5 189.212,-231.5 189.212,-201.5 87.212,-201.5"/>
<text text-anchor="start" x="95.212" y="-219.5" font-family="Helvetica,sans-Serif" font-size="10.00" fill="#000000">tree/ntuple/v7/inc</text>
<text text-anchor="middle" x="138.212" y="-208.5" font-family="Helvetica,sans-Serif" font-size="10.00" fill="#000000">/ROOT/REntry.hxx</text>
</a>
</g>
</g>
<!-- Node58&#45;&gt;Node59 -->
<g id="edge1" class="edge">
<title>Node58&#45;&gt;Node59</title>
<path fill="none" stroke="#191970" d="M270.6883,-265.0023C241.9765,-254.4903 206.4804,-241.4945 179.4599,-231.6017"/>
<polygon fill="#191970" stroke="#191970" points="269.5494,-268.3125 280.1432,-268.4639 271.9561,-261.7392 269.5494,-268.3125"/>
</g>
<!-- Node60 -->
<g id="node3" class="node">
<title>Node60</title>
<g id="a_node3"><a xlink:href="RNTupleModel_8hxx.html" target="_top" xlink:title="tree/ntuple/v7/inc\l/ROOT/RNTupleModel.hxx">
<polygon fill="#ffffff" stroke="#000000" points="294.212,-134.5 294.212,-164.5 434.212,-164.5 434.212,-134.5 294.212,-134.5"/>
<text text-anchor="start" x="302.212" y="-152.5" font-family="Helvetica,sans-Serif" font-size="10.00" fill="#000000">tree/ntuple/v7/inc</text>
<text text-anchor="middle" x="364.212" y="-141.5" font-family="Helvetica,sans-Serif" font-size="10.00" fill="#000000">/ROOT/RNTupleModel.hxx</text>
</a>
</g>
</g>
<!-- Node58&#45;&gt;Node60 -->
<g id="edge15" class="edge">
<title>Node58&#45;&gt;Node60</title>
<path fill="none" stroke="#191970" d="M336.8175,-259.7998C341.7754,-251.3282 346.8401,-241.5179 350.212,-232 358.2166,-209.4053 361.7186,-181.6644 363.1969,-164.7974"/>
<polygon fill="#191970" stroke="#191970" points="333.7958,-258.0324 331.5648,-268.3897 339.7677,-261.6843 333.7958,-258.0324"/>
</g>
<!-- Node63 -->
<g id="node6" class="node">
<title>Node63</title>
<g id="a_node6"><a xlink:href="RField_8cxx.html" target="_top" xlink:title="tree/ntuple/v7/src\l/RField.cxx">
<polygon fill="#ffffff" stroke="#000000" points="72.212,-.5 72.212,-30.5 174.212,-30.5 174.212,-.5 72.212,-.5"/>
<text text-anchor="start" x="80.212" y="-18.5" font-family="Helvetica,sans-Serif" font-size="10.00" fill="#000000">tree/ntuple/v7/src</text>
<text text-anchor="middle" x="123.212" y="-7.5" font-family="Helvetica,sans-Serif" font-size="10.00" fill="#000000">/RField.cxx</text>
</a>
</g>
</g>
<!-- Node58&#45;&gt;Node63 -->
<g id="edge18" class="edge">
<title>Node58&#45;&gt;Node63</title>
<path fill="none" stroke="#191970" d="M259.9855,-279.5269C208.9541,-274.1613 135.5968,-261.5626 78.212,-232 39.0634,-211.832 22.932,-205.3157 5.212,-165 -19.4021,-108.9992 53.1822,-55.8634 95.3372,-30.6971"/>
<polygon fill="#191970" stroke="#191970" points="259.9067,-283.036 270.2023,-280.536 260.5948,-276.0699 259.9067,-283.036"/>
</g>
<!-- Node65 -->
<g id="node8" class="node">
<title>Node65</title>
<g id="a_node8"><a xlink:href="RNTupleModel_8cxx.html" target="_top" xlink:title="tree/ntuple/v7/src\l/RNTupleModel.cxx">
<polygon fill="#ffffff" stroke="#000000" points="438.712,-.5 438.712,-30.5 547.712,-30.5 547.712,-.5 438.712,-.5"/>
<text text-anchor="start" x="446.712" y="-18.5" font-family="Helvetica,sans-Serif" font-size="10.00" fill="#000000">tree/ntuple/v7/src</text>
<text text-anchor="middle" x="493.212" y="-7.5" font-family="Helvetica,sans-Serif" font-size="10.00" fill="#000000">/RNTupleModel.cxx</text>
</a>
</g>
</g>
<!-- Node58&#45;&gt;Node65 -->
<g id="edge19" class="edge">
<title>Node58&#45;&gt;Node65</title>
<path fill="none" stroke="#191970" d="M367.0361,-264.007C424.4179,-236.645 519.5248,-180.7448 555.212,-98 560.6684,-85.3487 561.0658,-79.4724 555.212,-67 548.0182,-51.6728 533.7738,-39.3293 520.7509,-30.5731"/>
<polygon fill="#191970" stroke="#191970" points="365.3997,-260.9083 357.8202,-268.3111 368.3619,-267.2507 365.3997,-260.9083"/>
</g>
<!-- Node66 -->
<g id="node9" class="node">
<title>Node66</title>
<g id="a_node9"><a xlink:href="RPageStorageRoot_8cxx.html" target="_top" xlink:title="tree/ntuple/v7/src\l/RPageStorageRoot.cxx">
<polygon fill="#ffffff" stroke="#000000" points="416.712,-67.5 416.712,-97.5 545.712,-97.5 545.712,-67.5 416.712,-67.5"/>
<text text-anchor="start" x="424.712" y="-85.5" font-family="Helvetica,sans-Serif" font-size="10.00" fill="#000000">tree/ntuple/v7/src</text>
<text text-anchor="middle" x="481.212" y="-74.5" font-family="Helvetica,sans-Serif" font-size="10.00" fill="#000000">/RPageStorageRoot.cxx</text>
</a>
</g>
</g>
<!-- Node58&#45;&gt;Node66 -->
<g id="edge20" class="edge">
<title>Node58&#45;&gt;Node66</title>
<path fill="none" stroke="#191970" d="M348.5528,-262.0685C375.3446,-239.9843 416.009,-203.4452 443.212,-165 458.4231,-143.5026 469.9594,-114.9445 476.1423,-97.686"/>
<polygon fill="#191970" stroke="#191970" points="346.2633,-259.4191 340.7138,-268.4443 350.6802,-264.8497 346.2633,-259.4191"/>
</g>
<!-- Node68 -->
<g id="node11" class="node">
<title>Node68</title>
<g id="a_node11"><a xlink:href="RNTupleView_8hxx.html" target="_top" xlink:title="tree/ntuple/v7/inc\l/ROOT/RNTupleView.hxx">
<polygon fill="#ffffff" stroke="#000000" points="207.212,-201.5 207.212,-231.5 341.212,-231.5 341.212,-201.5 207.212,-201.5"/>
<text text-anchor="start" x="215.212" y="-219.5" font-family="Helvetica,sans-Serif" font-size="10.00" fill="#000000">tree/ntuple/v7/inc</text>
<text text-anchor="middle" x="274.212" y="-208.5" font-family="Helvetica,sans-Serif" font-size="10.00" fill="#000000">/ROOT/RNTupleView.hxx</text>
</a>
</g>
</g>
<!-- Node58&#45;&gt;Node68 -->
<g id="edge16" class="edge">
<title>Node58&#45;&gt;Node68</title>
<path fill="none" stroke="#191970" d="M304.7708,-260.0626C298.155,-250.6315 290.7164,-240.0276 284.8348,-231.6432"/>
<polygon fill="#191970" stroke="#191970" points="301.9388,-262.1201 310.5469,-268.2967 307.6694,-258.1001 301.9388,-262.1201"/>
</g>
<!-- Node59&#45;&gt;Node60 -->
<g id="edge2" class="edge">
<title>Node59&#45;&gt;Node60</title>
<path fill="none" stroke="#191970" d="M198.7651,-198.5484C234.5378,-187.9432 279.322,-174.6665 313.272,-164.6017"/>
<polygon fill="#191970" stroke="#191970" points="197.5235,-195.2658 188.9308,-201.4639 199.5132,-201.9771 197.5235,-195.2658"/>
</g>
<!-- Node59&#45;&gt;Node63 -->
<g id="edge13" class="edge">
<title>Node59&#45;&gt;Node63</title>
<path fill="none" stroke="#191970" d="M136.335,-191.348C133.1751,-149.0061 126.8884,-64.7637 124.332,-30.5088"/>
<polygon fill="#191970" stroke="#191970" points="132.85,-191.6806 137.0845,-201.3923 139.8305,-191.1596 132.85,-191.6806"/>
</g>
<!-- Node67 -->
<g id="node10" class="node">
<title>Node67</title>
<g id="a_node10"><a xlink:href="REntry_8cxx.html" target="_top" xlink:title="tree/ntuple/v7/src\l/REntry.cxx">
<polygon fill="#ffffff" stroke="#000000" points="14.212,-134.5 14.212,-164.5 116.212,-164.5 116.212,-134.5 14.212,-134.5"/>
<text text-anchor="start" x="22.212" y="-152.5" font-family="Helvetica,sans-Serif" font-size="10.00" fill="#000000">tree/ntuple/v7/src</text>
<text text-anchor="middle" x="65.212" y="-141.5" font-family="Helvetica,sans-Serif" font-size="10.00" fill="#000000">/REntry.cxx</text>
</a>
</g>
</g>
<!-- Node59&#45;&gt;Node67 -->
<g id="edge12" class="edge">
<title>Node59&#45;&gt;Node67</title>
<path fill="none" stroke="#191970" d="M114.238,-194.4965C103.5853,-184.7193 91.3126,-173.4554 81.7113,-164.6432"/>
<polygon fill="#191970" stroke="#191970" points="111.9131,-197.1134 121.6471,-201.2967 116.6464,-191.9562 111.9131,-197.1134"/>
</g>
<!-- Node61 -->
<g id="node4" class="node">
<title>Node61</title>
<g id="a_node4"><a xlink:href="RNTuple_8hxx.html" target="_top" xlink:title="tree/ntuple/v7/inc\l/ROOT/RNTuple.hxx">
<polygon fill="#ffffff" stroke="#000000" points="210.712,-67.5 210.712,-97.5 321.712,-97.5 321.712,-67.5 210.712,-67.5"/>
<text text-anchor="start" x="218.712" y="-85.5" font-family="Helvetica,sans-Serif" font-size="10.00" fill="#000000">tree/ntuple/v7/inc</text>
<text text-anchor="middle" x="266.212" y="-74.5" font-family="Helvetica,sans-Serif" font-size="10.00" fill="#000000">/ROOT/RNTuple.hxx</text>
</a>
</g>
</g>
<!-- Node60&#45;&gt;Node61 -->
<g id="edge3" class="edge">
<title>Node60&#45;&gt;Node61</title>
<path fill="none" stroke="#191970" d="M333.6837,-128.6286C319.0119,-118.5979 301.7518,-106.7976 288.3617,-97.6432"/>
<polygon fill="#191970" stroke="#191970" points="331.7438,-131.5421 341.9743,-134.2967 335.6945,-125.7635 331.7438,-131.5421"/>
</g>
<!-- Node60&#45;&gt;Node63 -->
<g id="edge8" class="edge">
<title>Node60&#45;&gt;Node63</title>
<path fill="none" stroke="#191970" d="M284.1966,-132.9277C256.576,-125.0038 226.2953,-113.7165 201.212,-98 172.4827,-79.9991 147.1479,-48.9451 133.6152,-30.504"/>
<polygon fill="#191970" stroke="#191970" points="283.2715,-136.3032 293.8425,-135.5919 285.1352,-129.5558 283.2715,-136.3032"/>
</g>
<!-- Node64 -->
<g id="node7" class="node">
<title>Node64</title>
<g id="a_node7"><a xlink:href="RNTuple_8cxx.html" target="_top" xlink:title="tree/ntuple/v7/src\l/RNTuple.cxx">
<polygon fill="#ffffff" stroke="#000000" points="318.212,-.5 318.212,-30.5 420.212,-30.5 420.212,-.5 318.212,-.5"/>
<text text-anchor="start" x="326.212" y="-18.5" font-family="Helvetica,sans-Serif" font-size="10.00" fill="#000000">tree/ntuple/v7/src</text>
<text text-anchor="middle" x="369.212" y="-7.5" font-family="Helvetica,sans-Serif" font-size="10.00" fill="#000000">/RNTuple.cxx</text>
</a>
</g>
</g>
<!-- Node60&#45;&gt;Node64 -->
<g id="edge9" class="edge">
<title>Node60&#45;&gt;Node64</title>
<path fill="none" stroke="#191970" d="M365.1507,-124.3415C366.1779,-96.8131 367.7914,-53.5714 368.6425,-30.7614"/>
<polygon fill="#191970" stroke="#191970" points="361.6512,-124.2654 364.7758,-134.389 368.6464,-124.5265 361.6512,-124.2654"/>
</g>
<!-- Node60&#45;&gt;Node65 -->
<g id="edge10" class="edge">
<title>Node60&#45;&gt;Node65</title>
<path fill="none" stroke="#191970" d="M372.9496,-124.6478C380.0888,-107.0069 391.5609,-83.6044 407.212,-67 421.6556,-51.6767 441.6582,-39.3334 458.7381,-30.5764"/>
<polygon fill="#191970" stroke="#191970" points="369.5705,-123.6838 369.2481,-134.2737 376.1041,-126.1963 369.5705,-123.6838"/>
</g>
<!-- Node60&#45;&gt;Node66 -->
<g id="edge11" class="edge">
<title>Node60&#45;&gt;Node66</title>
<path fill="none" stroke="#191970" d="M399.3886,-129.3561C417.1248,-119.1995 438.2812,-107.0843 454.6377,-97.7177"/>
<polygon fill="#191970" stroke="#191970" points="397.4076,-126.4572 390.4691,-134.4639 400.8862,-132.5317 397.4076,-126.4572"/>
</g>
<!-- Node62 -->
<g id="node5" class="node">
<title>Node62</title>
<g id="a_node5"><a xlink:href="RNTupleDS_8cxx.html" target="_top" xlink:title="tree/dataframe/src\l/RNTupleDS.cxx">
<polygon fill="#ffffff" stroke="#000000" points="192.712,-.5 192.712,-30.5 299.712,-30.5 299.712,-.5 192.712,-.5"/>
<text text-anchor="start" x="200.712" y="-18.5" font-family="Helvetica,sans-Serif" font-size="10.00" fill="#000000">tree/dataframe/src</text>
<text text-anchor="middle" x="246.212" y="-7.5" font-family="Helvetica,sans-Serif" font-size="10.00" fill="#000000">/RNTupleDS.cxx</text>
</a>
</g>
</g>
<!-- Node61&#45;&gt;Node62 -->
<g id="edge4" class="edge">
<title>Node61&#45;&gt;Node62</title>
<path fill="none" stroke="#191970" d="M258.7822,-57.6103C256.0792,-48.5553 253.1075,-38.5998 250.7323,-30.6432"/>
<polygon fill="#191970" stroke="#191970" points="255.4595,-58.7156 261.6737,-67.2967 262.167,-56.7133 255.4595,-58.7156"/>
</g>
<!-- Node61&#45;&gt;Node63 -->
<g id="edge5" class="edge">
<title>Node61&#45;&gt;Node63</title>
<path fill="none" stroke="#191970" d="M224.9985,-63.1902C202.9686,-52.8685 176.2331,-40.3421 155.6916,-30.7177"/>
<polygon fill="#191970" stroke="#191970" points="223.5797,-66.3905 234.12,-67.4639 226.5496,-60.0517 223.5797,-66.3905"/>
</g>
<!-- Node61&#45;&gt;Node64 -->
<g id="edge6" class="edge">
<title>Node61&#45;&gt;Node64</title>
<path fill="none" stroke="#191970" d="M298.0419,-61.7951C313.4754,-51.7558 331.6824,-39.9124 345.8175,-30.7177"/>
<polygon fill="#191970" stroke="#191970" points="295.8013,-59.0772 289.3272,-67.4639 299.6183,-64.945 295.8013,-59.0772"/>
</g>
<!-- Node61&#45;&gt;Node65 -->
<g id="edge7" class="edge">
<title>Node61&#45;&gt;Node65</title>
<path fill="none" stroke="#191970" d="M327.033,-64.5484C362.964,-53.9432 407.9463,-40.6665 442.0466,-30.6017"/>
<polygon fill="#191970" stroke="#191970" points="325.7554,-61.2762 317.1552,-67.4639 327.737,-67.9898 325.7554,-61.2762"/>
</g>
<!-- Node68&#45;&gt;Node61 -->
<g id="edge17" class="edge">
<title>Node68&#45;&gt;Node61</title>
<path fill="none" stroke="#191970" d="M272.71,-191.3415C271.0665,-163.8131 268.4849,-120.5714 267.1231,-97.7614"/>
<polygon fill="#191970" stroke="#191970" points="269.22,-191.6154 273.3098,-201.389 276.2076,-191.1981 269.22,-191.6154"/>
</g>
</g>
</svg>
        <g id="navigator" transform="translate(0 0)" fill="#404254">
                <rect fill="#f2f5e9" fill-opacity="0.5" stroke="#606060" stroke-width=".5" x="0" y="0" width="60" height="60"/>
                <use id="zoomplus" xlink:href="#zoomPlus" x="17" y="9" onmousedown="handleZoom(evt,'in')"/>
                <use id="zoomminus" xlink:href="#zoomMin" x="42" y="9" onmousedown="handleZoom(evt,'out')"/>
                <use id="reset" xlink:href="#resetDef" x="30" y="36" onmousedown="handleReset()"/>
                <g id="arrowUp" xlink:href="#dirArrow" transform="translate(30 24)" onmousedown="handlePan(0,-1)">
                  <use xlink:href="#rim" fill="#404040">
                        <set attributeName="fill" to="#808080" begin="arrowUp.mouseover" end="arrowUp.mouseout"/>
                  </use>
                  <path fill="none" stroke="white" stroke-width="1.5" d="M0,-3.0v7 M-2.5,-0.5L0,-3.0L2.5,-0.5"/>
                </g>
                <g id="arrowRight" xlink:href="#dirArrow" transform="rotate(90) translate(36 -43)" onmousedown="handlePan(1,0)">
                  <use xlink:href="#rim" fill="#404040">
                        <set attributeName="fill" to="#808080" begin="arrowRight.mouseover" end="arrowRight.mouseout"/>
                  </use>
                  <path fill="none" stroke="white" stroke-width="1.5" d="M0,-3.0v7 M-2.5,-0.5L0,-3.0L2.5,-0.5"/>
                </g>
                <g id="arrowDown" xlink:href="#dirArrow" transform="rotate(180) translate(-30 -48)" onmousedown="handlePan(0,1)">
                  <use xlink:href="#rim" fill="#404040">
                        <set attributeName="fill" to="#808080" begin="arrowDown.mouseover" end="arrowDown.mouseout"/>
                  </use>
                  <path fill="none" stroke="white" stroke-width="1.5" d="M0,-3.0v7 M-2.5,-0.5L0,-3.0L2.5,-0.5"/>
                </g>
                <g id="arrowLeft" xlink:href="#dirArrow" transform="rotate(270) translate(-36 17)" onmousedown="handlePan(-1,0)">
                  <use xlink:href="#rim" fill="#404040">
                        <set attributeName="fill" to="#808080" begin="arrowLeft.mouseover" end="arrowLeft.mouseout"/>
                  </use>
                  <path fill="none" stroke="white" stroke-width="1.5" d="M0,-3.0v7 M-2.5,-0.5L0,-3.0L2.5,-0.5"/>
                </g>
        </g>
        <svg viewBox="0 0 15 15" width="100%" height="30px" preserveAspectRatio="xMaxYMin meet">
         <g id="arrow_out" transform="scale(0.3 0.3)">
          <a xlink:href="RField_8hxx__dep__incl_org.svg" target="_base">
           <rect id="button" ry="5" rx="5" y="6" x="6" height="38" width="38"
                fill="#f2f5e9" fill-opacity="0.5" stroke="#606060" stroke-width="1.0"/>
           <path id="arrow"
             d="M 11.500037,31.436501 C 11.940474,20.09759 22.043105,11.32322 32.158766,21.979434 L 37.068811,17.246167 C 37.068811,17.246167 37.088388,32 37.088388,32 L 22.160133,31.978069 C 22.160133,31.978069 26.997745,27.140456 26.997745,27.140456 C 18.528582,18.264221 13.291696,25.230495 11.500037,31.436501 z"
             style="fill:#404040;"/>
          </a>
         </g>
        </svg>
</svg>
