<?xml version="1.0" encoding="UTF-8" standalone="no"?>
<!DOCTYPE svg PUBLIC "-//W3C//DTD SVG 1.1//EN"
 "http://www.w3.org/Graphics/SVG/1.1/DTD/svg11.dtd">
<!-- Generated by graphviz version 2.40.1 (0)
 -->
<!-- Title: hist/hist/v7/inc/ROOT/RHistData.hxx Pages: 1 -->
<svg width="556pt" height="240pt"
 viewBox="0.00 0.00 555.50 240.00" xmlns="http://www.w3.org/2000/svg" xmlns:xlink="http://www.w3.org/1999/xlink">
<g id="graph0" class="graph" transform="scale(1 1) rotate(0) translate(4 236)">
<title>hist/hist/v7/inc/ROOT/RHistData.hxx</title>
<polygon fill="#ffffff" stroke="transparent" points="-4,4 -4,-236 551.5,-236 551.5,4 -4,4"/>
<!-- Node14 -->
<g id="node1" class="node">
<title>Node14</title>
<polygon fill="#bfbfbf" stroke="#000000" points="202,-201.5 202,-231.5 321,-231.5 321,-201.5 202,-201.5"/>
<text text-anchor="start" x="210" y="-219.5" font-family="Helvetica,sans-Serif" font-size="10.00" fill="#000000">hist/hist/v7/inc/ROOT</text>
<text text-anchor="middle" x="261.5" y="-208.5" font-family="Helvetica,sans-Serif" font-size="10.00" fill="#000000">/RHistData.hxx</text>
</g>
<!-- Node15 -->
<g id="node2" class="node">
<title>Node15</title>
<g id="a_node2"><a xlink:href="RHist_8hxx.html" target="_top" xlink:title="hist/hist/v7/inc/ROOT\l/RHist.hxx">
<polygon fill="#ffffff" stroke="#000000" points="202,-134.5 202,-164.5 321,-164.5 321,-134.5 202,-134.5"/>
<text text-anchor="start" x="210" y="-152.5" font-family="Helvetica,sans-Serif" font-size="10.00" fill="#000000">hist/hist/v7/inc/ROOT</text>
<text text-anchor="middle" x="261.5" y="-141.5" font-family="Helvetica,sans-Serif" font-size="10.00" fill="#000000">/RHist.hxx</text>
</a>
</g>
</g>
<!-- Node14&#45;&gt;Node15 -->
<g id="edge1" class="edge">
<title>Node14&#45;&gt;Node15</title>
<path fill="none" stroke="#191970" d="M261.5,-191.0249C261.5,-182.128 261.5,-172.4287 261.5,-164.6432"/>
<polygon fill="#191970" stroke="#191970" points="258.0001,-191.2966 261.5,-201.2967 265.0001,-191.2967 258.0001,-191.2966"/>
</g>
<!-- Node16 -->
<g id="node3" class="node">
<title>Node16</title>
<g id="a_node3"><a xlink:href="RHistView_8hxx.html" target="_top" xlink:title="hist/hist/v7/inc/ROOT\l/RHistView.hxx">
<polygon fill="#ffffff" stroke="#000000" points="0,-67.5 0,-97.5 119,-97.5 119,-67.5 0,-67.5"/>
<text text-anchor="start" x="8" y="-85.5" font-family="Helvetica,sans-Serif" font-size="10.00" fill="#000000">hist/hist/v7/inc/ROOT</text>
<text text-anchor="middle" x="59.5" y="-74.5" font-family="Helvetica,sans-Serif" font-size="10.00" fill="#000000">/RHistView.hxx</text>
</a>
</g>
</g>
<!-- Node15&#45;&gt;Node16 -->
<g id="edge2" class="edge">
<title>Node15&#45;&gt;Node16</title>
<path fill="none" stroke="#191970" d="M206.5557,-131.2759C174.72,-120.7165 135.1158,-107.5805 105.0305,-97.6017"/>
<polygon fill="#191970" stroke="#191970" points="205.5738,-134.6377 216.1673,-134.4639 207.7776,-127.9936 205.5738,-134.6377"/>
</g>
<!-- Node17 -->
<g id="node4" class="node">
<title>Node17</title>
<g id="a_node4"><a xlink:href="histspeedtest_8cxx.html" target="_top" xlink:title="hist/hist/v7/speed\l/histspeedtest.cxx">
<polygon fill="#ffffff" stroke="#000000" points="137.5,-67.5 137.5,-97.5 243.5,-97.5 243.5,-67.5 137.5,-67.5"/>
<text text-anchor="start" x="145.5" y="-85.5" font-family="Helvetica,sans-Serif" font-size="10.00" fill="#000000">hist/hist/v7/speed</text>
<text text-anchor="middle" x="190.5" y="-74.5" font-family="Helvetica,sans-Serif" font-size="10.00" fill="#000000">/histspeedtest.cxx</text>
</a>
</g>
</g>
<!-- Node15&#45;&gt;Node17 -->
<g id="edge3" class="edge">
<title>Node15&#45;&gt;Node17</title>
<path fill="none" stroke="#191970" d="M237.8806,-127.2113C227.5905,-117.5009 215.7949,-106.3698 206.5472,-97.6432"/>
<polygon fill="#191970" stroke="#191970" points="235.7139,-129.979 245.389,-134.2967 240.5181,-124.8879 235.7139,-129.979"/>
</g>
<!-- Node18 -->
<g id="node5" class="node">
<title>Node18</title>
<g id="a_node5"><a xlink:href="RHistDrawable_8hxx.html" target="_top" xlink:title="hist/histdraw/v7/inc\l/ROOT/RHistDrawable.hxx">
<polygon fill="#ffffff" stroke="#000000" points="261.5,-67.5 261.5,-97.5 405.5,-97.5 405.5,-67.5 261.5,-67.5"/>
<text text-anchor="start" x="269.5" y="-85.5" font-family="Helvetica,sans-Serif" font-size="10.00" fill="#000000">hist/histdraw/v7/inc</text>
<text text-anchor="middle" x="333.5" y="-74.5" font-family="Helvetica,sans-Serif" font-size="10.00" fill="#000000">/ROOT/RHistDrawable.hxx</text>
</a>
</g>
</g>
<!-- Node15&#45;&gt;Node18 -->
<g id="edge4" class="edge">
<title>Node15&#45;&gt;Node18</title>
<path fill="none" stroke="#191970" d="M285.452,-127.2113C295.8871,-117.5009 307.8488,-106.3698 317.2267,-97.6432"/>
<polygon fill="#191970" stroke="#191970" points="282.7743,-124.9221 277.8379,-134.2967 287.5429,-130.0466 282.7743,-124.9221"/>
</g>
<!-- Node21 -->
<g id="node8" class="node">
<title>Node21</title>
<g id="a_node8"><a xlink:href="RFit_8hxx.html" target="_top" xlink:title="math/mathcore/v7/inc\l/ROOT/RFit.hxx">
<polygon fill="#ffffff" stroke="#000000" points="423.5,-67.5 423.5,-97.5 547.5,-97.5 547.5,-67.5 423.5,-67.5"/>
<text text-anchor="start" x="431.5" y="-85.5" font-family="Helvetica,sans-Serif" font-size="10.00" fill="#000000">math/mathcore/v7/inc</text>
<text text-anchor="middle" x="485.5" y="-74.5" font-family="Helvetica,sans-Serif" font-size="10.00" fill="#000000">/ROOT/RFit.hxx</text>
</a>
</g>
</g>
<!-- Node15&#45;&gt;Node21 -->
<g id="edge7" class="edge">
<title>Node15&#45;&gt;Node21</title>
<path fill="none" stroke="#191970" d="M321.5172,-131.5484C356.9733,-120.9432 401.3612,-107.6665 435.0108,-97.6017"/>
<polygon fill="#191970" stroke="#191970" points="320.3476,-128.245 311.77,-134.4639 322.3536,-134.9514 320.3476,-128.245"/>
</g>
<!-- Node19 -->
<g id="node6" class="node">
<title>Node19</title>
<g id="a_node6"><a xlink:href="RHistDrawable_8cxx.html" target="_top" xlink:title="hist/histdraw/v7/src\l/RHistDrawable.cxx">
<polygon fill="#ffffff" stroke="#000000" points="210,-.5 210,-30.5 323,-30.5 323,-.5 210,-.5"/>
<text text-anchor="start" x="218" y="-18.5" font-family="Helvetica,sans-Serif" font-size="10.00" fill="#000000">hist/histdraw/v7/src</text>
<text text-anchor="middle" x="266.5" y="-7.5" font-family="Helvetica,sans-Serif" font-size="10.00" fill="#000000">/RHistDrawable.cxx</text>
</a>
</g>
</g>
<!-- Node18&#45;&gt;Node19 -->
<g id="edge5" class="edge">
<title>Node18&#45;&gt;Node19</title>
<path fill="none" stroke="#191970" d="M311.2113,-60.2113C301.5009,-50.5009 290.3698,-39.3698 281.6432,-30.6432"/>
<polygon fill="#191970" stroke="#191970" points="308.7507,-62.7004 318.2967,-67.2967 313.7004,-57.7507 308.7507,-62.7004"/>
</g>
<!-- Node20 -->
<g id="node7" class="node">
<title>Node20</title>
<g id="a_node7"><a xlink:href="RHistPainter_8cxx.html" target="_top" xlink:title="hist/histpainter/v7\l/src/RHistPainter.cxx">
<polygon fill="#ffffff" stroke="#000000" points="341.5,-.5 341.5,-30.5 457.5,-30.5 457.5,-.5 341.5,-.5"/>
<text text-anchor="start" x="349.5" y="-18.5" font-family="Helvetica,sans-Serif" font-size="10.00" fill="#000000">hist/histpainter/v7</text>
<text text-anchor="middle" x="399.5" y="-7.5" font-family="Helvetica,sans-Serif" font-size="10.00" fill="#000000">/src/RHistPainter.cxx</text>
</a>
</g>
</g>
<!-- Node18&#45;&gt;Node20 -->
<g id="edge6" class="edge">
<title>Node18&#45;&gt;Node20</title>
<path fill="none" stroke="#191970" d="M355.7378,-59.9253C365.2363,-50.2828 376.0707,-39.2843 384.5828,-30.6432"/>
<polygon fill="#191970" stroke="#191970" points="353.0007,-57.7164 348.4764,-67.2967 357.9876,-62.6288 353.0007,-57.7164"/>
</g>
</g>
</svg>
