<?xml version="1.0" encoding="UTF-8" standalone="no"?>
<!DOCTYPE svg PUBLIC "-//W3C//DTD SVG 1.1//EN"
 "http://www.w3.org/Graphics/SVG/1.1/DTD/svg11.dtd">
<!-- Generated by graphviz version 2.40.1 (0)
 -->
<!-- Title: roofit/roofitcore/inc/RooAbsStudy.h Pages: 1 -->
<svg width="1035pt" height="173pt"
 viewBox="0.00 0.00 1034.50 173.00" xmlns="http://www.w3.org/2000/svg" xmlns:xlink="http://www.w3.org/1999/xlink">
<g id="graph0" class="graph" transform="scale(1 1) rotate(0) translate(4 169)">
<title>roofit/roofitcore/inc/RooAbsStudy.h</title>
<polygon fill="#ffffff" stroke="transparent" points="-4,4 -4,-169 1030.5,-169 1030.5,4 -4,4"/>
<!-- Node82 -->
<g id="node1" class="node">
<title>Node82</title>
<polygon fill="#bfbfbf" stroke="#000000" points="437,-134.5 437,-164.5 546,-164.5 546,-134.5 437,-134.5"/>
<text text-anchor="start" x="445" y="-152.5" font-family="Helvetica,sans-Serif" font-size="10.00" fill="#000000">roofit/roofitcore/inc</text>
<text text-anchor="middle" x="491.5" y="-141.5" font-family="Helvetica,sans-Serif" font-size="10.00" fill="#000000">/RooAbsStudy.h</text>
</g>
<!-- Node83 -->
<g id="node2" class="node">
<title>Node83</title>
<g id="a_node2"><a xlink:href="RooGenFitStudy_8h.html" target="_top" xlink:title="roofit/roofitcore/inc\l/RooGenFitStudy.h">
<polygon fill="#ffffff" stroke="#000000" points="3,-67.5 3,-97.5 112,-97.5 112,-67.5 3,-67.5"/>
<text text-anchor="start" x="11" y="-85.5" font-family="Helvetica,sans-Serif" font-size="10.00" fill="#000000">roofit/roofitcore/inc</text>
<text text-anchor="middle" x="57.5" y="-74.5" font-family="Helvetica,sans-Serif" font-size="10.00" fill="#000000">/RooGenFitStudy.h</text>
</a>
</g>
</g>
<!-- Node82&#45;&gt;Node83 -->
<g id="edge1" class="edge">
<title>Node82&#45;&gt;Node83</title>
<path fill="none" stroke="#191970" d="M426.6928,-142.5598C352.3846,-134.1268 227.0859,-118.4529 120.5,-98 117.7345,-97.4693 114.9084,-96.8945 112.0598,-96.2892"/>
<polygon fill="#191970" stroke="#191970" points="426.5035,-146.0605 436.8324,-143.7014 427.2868,-139.1044 426.5035,-146.0605"/>
</g>
<!-- Node85 -->
<g id="node4" class="node">
<title>Node85</title>
<g id="a_node4"><a xlink:href="RooAbsStudy_8cxx.html" target="_top" xlink:title=" &#160;">
<polygon fill="#ffffff" stroke="#000000" points="130,-67.5 130,-97.5 239,-97.5 239,-67.5 130,-67.5"/>
<text text-anchor="start" x="138" y="-85.5" font-family="Helvetica,sans-Serif" font-size="10.00" fill="#000000">roofit/roofitcore/src</text>
<text text-anchor="middle" x="184.5" y="-74.5" font-family="Helvetica,sans-Serif" font-size="10.00" fill="#000000">/RooAbsStudy.cxx</text>
</a>
</g>
</g>
<!-- Node82&#45;&gt;Node85 -->
<g id="edge3" class="edge">
<title>Node82&#45;&gt;Node85</title>
<path fill="none" stroke="#191970" d="M427.0337,-136.3639C377.9966,-126.2443 308.893,-111.7099 248.5,-98 245.4899,-97.3167 242.4028,-96.6051 239.2884,-95.8787"/>
<polygon fill="#191970" stroke="#191970" points="426.3731,-139.8013 436.8736,-138.3909 427.7854,-132.9452 426.3731,-139.8013"/>
</g>
<!-- Node86 -->
<g id="node5" class="node">
<title>Node86</title>
<g id="a_node5"><a xlink:href="RooProofDriverSelector_8cxx.html" target="_top" xlink:title="roofit/roofitcore/src\l/RooProofDriverSelector.cxx">
<polygon fill="#ffffff" stroke="#000000" points="257.5,-67.5 257.5,-97.5 409.5,-97.5 409.5,-67.5 257.5,-67.5"/>
<text text-anchor="start" x="265.5" y="-85.5" font-family="Helvetica,sans-Serif" font-size="10.00" fill="#000000">roofit/roofitcore/src</text>
<text text-anchor="middle" x="333.5" y="-74.5" font-family="Helvetica,sans-Serif" font-size="10.00" fill="#000000">/RooProofDriverSelector.cxx</text>
</a>
</g>
</g>
<!-- Node82&#45;&gt;Node86 -->
<g id="edge4" class="edge">
<title>Node82&#45;&gt;Node86</title>
<path fill="none" stroke="#191970" d="M446.5798,-130.4516C422.0252,-120.0392 392.0364,-107.3224 369.1129,-97.6017"/>
<polygon fill="#191970" stroke="#191970" points="445.4688,-133.7821 456.0417,-134.4639 448.2017,-127.3376 445.4688,-133.7821"/>
</g>
<!-- Node87 -->
<g id="node6" class="node">
<title>Node87</title>
<g id="a_node6"><a xlink:href="RooStudyManager_8cxx.html" target="_top" xlink:title=" &#160;">
<polygon fill="#ffffff" stroke="#000000" points="428,-67.5 428,-97.5 555,-97.5 555,-67.5 428,-67.5"/>
<text text-anchor="start" x="436" y="-85.5" font-family="Helvetica,sans-Serif" font-size="10.00" fill="#000000">roofit/roofitcore/src</text>
<text text-anchor="middle" x="491.5" y="-74.5" font-family="Helvetica,sans-Serif" font-size="10.00" fill="#000000">/RooStudyManager.cxx</text>
</a>
</g>
</g>
<!-- Node82&#45;&gt;Node87 -->
<g id="edge5" class="edge">
<title>Node82&#45;&gt;Node87</title>
<path fill="none" stroke="#191970" d="M491.5,-124.0249C491.5,-115.128 491.5,-105.4287 491.5,-97.6432"/>
<polygon fill="#191970" stroke="#191970" points="488.0001,-124.2966 491.5,-134.2967 495.0001,-124.2967 488.0001,-124.2966"/>
</g>
<!-- Node88 -->
<g id="node7" class="node">
<title>Node88</title>
<g id="a_node7"><a xlink:href="RooStudyPackage_8cxx.html" target="_top" xlink:title=" &#160;">
<polygon fill="#ffffff" stroke="#000000" points="573.5,-67.5 573.5,-97.5 699.5,-97.5 699.5,-67.5 573.5,-67.5"/>
<text text-anchor="start" x="581.5" y="-85.5" font-family="Helvetica,sans-Serif" font-size="10.00" fill="#000000">roofit/roofitcore/src</text>
<text text-anchor="middle" x="636.5" y="-74.5" font-family="Helvetica,sans-Serif" font-size="10.00" fill="#000000">/RooStudyPackage.cxx</text>
</a>
</g>
</g>
<!-- Node82&#45;&gt;Node88 -->
<g id="edge6" class="edge">
<title>Node82&#45;&gt;Node88</title>
<path fill="none" stroke="#191970" d="M533.3236,-130.1746C555.7451,-119.8143 582.966,-107.2364 603.8172,-97.6017"/>
<polygon fill="#191970" stroke="#191970" points="531.6505,-127.0921 524.0408,-134.4639 534.5867,-133.4465 531.6505,-127.0921"/>
</g>
<!-- Node89 -->
<g id="node8" class="node">
<title>Node89</title>
<g id="a_node8"><a xlink:href="RooWorkspace_8cxx.html" target="_top" xlink:title=" &#160;">
<polygon fill="#ffffff" stroke="#000000" points="718,-67.5 718,-97.5 829,-97.5 829,-67.5 718,-67.5"/>
<text text-anchor="start" x="726" y="-85.5" font-family="Helvetica,sans-Serif" font-size="10.00" fill="#000000">roofit/roofitcore/src</text>
<text text-anchor="middle" x="773.5" y="-74.5" font-family="Helvetica,sans-Serif" font-size="10.00" fill="#000000">/RooWorkspace.cxx</text>
</a>
</g>
</g>
<!-- Node82&#45;&gt;Node89 -->
<g id="edge7" class="edge">
<title>Node82&#45;&gt;Node89</title>
<path fill="none" stroke="#191970" d="M556.1546,-134.1749C599.3033,-123.9426 657.3032,-110.1794 708.5,-98 711.5473,-97.2751 714.6748,-96.5306 717.8317,-95.7789"/>
<polygon fill="#191970" stroke="#191970" points="555.2747,-130.7864 546.352,-136.4993 556.8898,-137.5975 555.2747,-130.7864"/>
</g>
<!-- Node90 -->
<g id="node9" class="node">
<title>Node90</title>
<g id="a_node9"><a xlink:href="ToyMCStudy_8h.html" target="_top" xlink:title="roofit/roostats/inc\l/RooStats/ToyMCStudy.h">
<polygon fill="#ffffff" stroke="#000000" points="847.5,-67.5 847.5,-97.5 979.5,-97.5 979.5,-67.5 847.5,-67.5"/>
<text text-anchor="start" x="855.5" y="-85.5" font-family="Helvetica,sans-Serif" font-size="10.00" fill="#000000">roofit/roostats/inc</text>
<text text-anchor="middle" x="913.5" y="-74.5" font-family="Helvetica,sans-Serif" font-size="10.00" fill="#000000">/RooStats/ToyMCStudy.h</text>
</a>
</g>
</g>
<!-- Node82&#45;&gt;Node90 -->
<g id="edge8" class="edge">
<title>Node82&#45;&gt;Node90</title>
<path fill="none" stroke="#191970" d="M556.015,-141.0345C625.8262,-131.6154 740.335,-115.414 838.5,-98 841.3802,-97.4891 844.3192,-96.9515 847.2857,-96.3956"/>
<polygon fill="#191970" stroke="#191970" points="555.4912,-137.5733 546.0465,-142.3743 556.4237,-144.5109 555.4912,-137.5733"/>
</g>
<!-- Node84 -->
<g id="node3" class="node">
<title>Node84</title>
<g id="a_node3"><a xlink:href="RooGenFitStudy_8cxx.html" target="_top" xlink:title=" &#160;">
<polygon fill="#ffffff" stroke="#000000" points="0,-.5 0,-30.5 115,-30.5 115,-.5 0,-.5"/>
<text text-anchor="start" x="8" y="-18.5" font-family="Helvetica,sans-Serif" font-size="10.00" fill="#000000">roofit/roofitcore/src</text>
<text text-anchor="middle" x="57.5" y="-7.5" font-family="Helvetica,sans-Serif" font-size="10.00" fill="#000000">/RooGenFitStudy.cxx</text>
</a>
</g>
</g>
<!-- Node83&#45;&gt;Node84 -->
<g id="edge2" class="edge">
<title>Node83&#45;&gt;Node84</title>
<path fill="none" stroke="#191970" d="M57.5,-57.0249C57.5,-48.128 57.5,-38.4287 57.5,-30.6432"/>
<polygon fill="#191970" stroke="#191970" points="54.0001,-57.2966 57.5,-67.2967 61.0001,-57.2967 54.0001,-57.2966"/>
</g>
<!-- Node91 -->
<g id="node10" class="node">
<title>Node91</title>
<g id="a_node10"><a xlink:href="ToyMCSampler_8cxx.html" target="_top" xlink:title="roofit/roostats/src\l/ToyMCSampler.cxx">
<polygon fill="#ffffff" stroke="#000000" points="795,-.5 795,-30.5 906,-30.5 906,-.5 795,-.5"/>
<text text-anchor="start" x="803" y="-18.5" font-family="Helvetica,sans-Serif" font-size="10.00" fill="#000000">roofit/roostats/src</text>
<text text-anchor="middle" x="850.5" y="-7.5" font-family="Helvetica,sans-Serif" font-size="10.00" fill="#000000">/ToyMCSampler.cxx</text>
</a>
</g>
</g>
<!-- Node90&#45;&gt;Node91 -->
<g id="edge9" class="edge">
<title>Node90&#45;&gt;Node91</title>
<path fill="none" stroke="#191970" d="M892.273,-59.9253C883.2062,-50.2828 872.8643,-39.2843 864.7391,-30.6432"/>
<polygon fill="#191970" stroke="#191970" points="889.8042,-62.409 899.2043,-67.2967 894.9039,-57.6138 889.8042,-62.409"/>
</g>
<!-- Node92 -->
<g id="node11" class="node">
<title>Node92</title>
<g id="a_node11"><a xlink:href="ToyMCStudy_8cxx.html" target="_top" xlink:title="roofit/roostats/src\l/ToyMCStudy.cxx">
<polygon fill="#ffffff" stroke="#000000" points="924.5,-.5 924.5,-30.5 1026.5,-30.5 1026.5,-.5 924.5,-.5"/>
<text text-anchor="start" x="932.5" y="-18.5" font-family="Helvetica,sans-Serif" font-size="10.00" fill="#000000">roofit/roostats/src</text>
<text text-anchor="middle" x="975.5" y="-7.5" font-family="Helvetica,sans-Serif" font-size="10.00" fill="#000000">/ToyMCStudy.cxx</text>
</a>
</g>
</g>
<!-- Node90&#45;&gt;Node92 -->
<g id="edge10" class="edge">
<title>Node90&#45;&gt;Node92</title>
<path fill="none" stroke="#191970" d="M934.39,-59.9253C943.3129,-50.2828 953.4907,-39.2843 961.4869,-30.6432"/>
<polygon fill="#191970" stroke="#191970" points="931.7918,-57.5798 927.5688,-67.2967 936.9296,-62.3342 931.7918,-57.5798"/>
</g>
</g>
</svg>
