<?xml version="1.0" encoding="UTF-8" standalone="no"?>
<!DOCTYPE svg PUBLIC "-//W3C//DTD SVG 1.1//EN"
 "http://www.w3.org/Graphics/SVG/1.1/DTD/svg11.dtd">
<!-- Generated by graphviz version 2.40.1 (0)
 -->
<!-- Title: roofit/roofitcore/inc/RooConstVar.h Pages: 1 -->
<!--zoomable 318 -->
<svg id="main" version="1.1" xmlns="http://www.w3.org/2000/svg" xmlns:xlink="http://www.w3.org/1999/xlink" xml:space="preserve" onload="init(evt)">
<style type="text/css"><![CDATA[
.edge:hover path { stroke: red; }
.edge:hover polygon { stroke: red; fill: red; }
]]></style>
<script type="text/javascript"><![CDATA[
var edges = document.getElementsByTagName('g');
if (edges && edges.length) {
  for (var i=0;i<edges.length;i++) {
    if (edges[i].id.substr(0,4)=='edge') {
      edges[i].setAttribute('class','edge');
    }
  }
}
]]></script>
        <defs>
                <circle id="rim" cx="0" cy="0" r="7"/>
                <circle id="rim2" cx="0" cy="0" r="3.5"/>
                <g id="zoomPlus">
                        <use xlink:href="#rim" fill="#404040">
                                <set attributeName="fill" to="#808080" begin="zoomplus.mouseover" end="zoomplus.mouseout"/>
                        </use>
                        <path d="M-4,0h8M0,-4v8" fill="none" stroke="white" stroke-width="1.5" pointer-events="none"/>
                </g>
                <g id="zoomMin">
                        <use xlink:href="#rim" fill="#404040">
                                <set attributeName="fill" to="#808080" begin="zoomminus.mouseover" end="zoomminus.mouseout"/>
                        </use>
                        <path d="M-4,0h8" fill="none" stroke="white" stroke-width="1.5" pointer-events="none"/>
                </g>
                <g id="dirArrow">
                        <path fill="none" stroke="white" stroke-width="1.5" d="M0,-3.0v7 M-2.5,-0.5L0,-3.0L2.5,-0.5"/>
                </g>
               <g id="resetDef">
                       <use xlink:href="#rim2" fill="#404040">
                               <set attributeName="fill" to="#808080" begin="reset.mouseover" end="reset.mouseout"/>
                       </use>
               </g>
        </defs>

<script type="text/javascript">
var viewWidth = 3163;
var viewHeight = 318;
var sectionId = 'dynsection-1';
</script>
<script xlink:href="svgpan.js"/>
<svg id="graph" class="graph">
<g id="viewport">
<title>roofit/roofitcore/inc/RooConstVar.h</title>
<polygon fill="#ffffff" stroke="transparent" points="-4,4 -4,-314 3159,-314 3159,4 -4,4"/>
<!-- Node97 -->
<g id="node1" class="node">
<title>Node97</title>
<polygon fill="#bfbfbf" stroke="#000000" points="1660.5,-279.5 1660.5,-309.5 1769.5,-309.5 1769.5,-279.5 1660.5,-279.5"/>
<text text-anchor="start" x="1668.5" y="-297.5" font-family="Helvetica,sans-Serif" font-size="10.00" fill="#000000">roofit/roofitcore/inc</text>
<text text-anchor="middle" x="1715" y="-286.5" font-family="Helvetica,sans-Serif" font-size="10.00" fill="#000000">/RooConstVar.h</text>
</g>
<!-- Node98 -->
<g id="node2" class="node">
<title>Node98</title>
<g id="a_node2"><a xlink:href="HistoToWorkspaceFactory_8cxx.html" target="_top" xlink:title="roofit/histfactory\l/src/HistoToWorkspaceFactory.cxx">
<polygon fill="#ffffff" stroke="#000000" points="0,-207 0,-237 180,-237 180,-207 0,-207"/>
<text text-anchor="start" x="8" y="-225" font-family="Helvetica,sans-Serif" font-size="10.00" fill="#000000">roofit/histfactory</text>
<text text-anchor="middle" x="90" y="-214" font-family="Helvetica,sans-Serif" font-size="10.00" fill="#000000">/src/HistoToWorkspaceFactory.cxx</text>
</a>
</g>
</g>
<!-- Node97&#45;&gt;Node98 -->
<g id="edge1" class="edge">
<title>Node97&#45;&gt;Node98</title>
<path fill="none" stroke="#191970" d="M1650.3836,-293.8286C1398.0181,-290.9725 478.5421,-278.318 189,-243 177.1404,-241.5534 164.596,-239.3936 152.5676,-237.0016"/>
<polygon fill="#191970" stroke="#191970" points="1650.4515,-297.3295 1660.49,-293.9418 1650.5299,-290.3299 1650.4515,-297.3295"/>
</g>
<!-- Node99 -->
<g id="node3" class="node">
<title>Node99</title>
<g id="a_node3"><a xlink:href="HistoToWorkspaceFactoryFast_8cxx.html" target="_top" xlink:title="roofit/histfactory\l/src/HistoToWorkspaceFactory\lFast.cxx">
<polygon fill="#ffffff" stroke="#000000" points="198.5,-201.5 198.5,-242.5 359.5,-242.5 359.5,-201.5 198.5,-201.5"/>
<text text-anchor="start" x="206.5" y="-230.5" font-family="Helvetica,sans-Serif" font-size="10.00" fill="#000000">roofit/histfactory</text>
<text text-anchor="start" x="206.5" y="-219.5" font-family="Helvetica,sans-Serif" font-size="10.00" fill="#000000">/src/HistoToWorkspaceFactory</text>
<text text-anchor="middle" x="279" y="-208.5" font-family="Helvetica,sans-Serif" font-size="10.00" fill="#000000">Fast.cxx</text>
</a>
</g>
</g>
<!-- Node97&#45;&gt;Node99 -->
<g id="edge2" class="edge">
<title>Node97&#45;&gt;Node99</title>
<path fill="none" stroke="#191970" d="M1650.3273,-293.6857C1417.188,-290.4917 620.3495,-277.2668 368,-243 365.3257,-242.6369 362.6141,-242.2293 359.8819,-241.7849"/>
<polygon fill="#191970" stroke="#191970" points="1650.3011,-297.1856 1660.3476,-293.8215 1650.396,-290.1862 1650.3011,-297.1856"/>
</g>
<!-- Node100 -->
<g id="node4" class="node">
<title>Node100</title>
<g id="a_node4"><a xlink:href="ParamHistFunc_8cxx.html" target="_top" xlink:title="roofit/histfactory\l/src/ParamHistFunc.cxx">
<polygon fill="#ffffff" stroke="#000000" points="377.5,-207 377.5,-237 506.5,-237 506.5,-207 377.5,-207"/>
<text text-anchor="start" x="385.5" y="-225" font-family="Helvetica,sans-Serif" font-size="10.00" fill="#000000">roofit/histfactory</text>
<text text-anchor="middle" x="442" y="-214" font-family="Helvetica,sans-Serif" font-size="10.00" fill="#000000">/src/ParamHistFunc.cxx</text>
</a>
</g>
</g>
<!-- Node97&#45;&gt;Node100 -->
<g id="edge3" class="edge">
<title>Node97&#45;&gt;Node100</title>
<path fill="none" stroke="#191970" d="M1649.913,-293.7055C1433.1909,-290.7465 737.2323,-278.6388 516,-243 507.0345,-241.5557 497.6107,-239.397 488.6047,-237.0054"/>
<polygon fill="#191970" stroke="#191970" points="1650.1248,-297.2086 1660.171,-293.8436 1650.2191,-290.2092 1650.1248,-297.2086"/>
</g>
<!-- Node101 -->
<g id="node5" class="node">
<title>Node101</title>
<g id="a_node5"><a xlink:href="RooJohnson_8h.html" target="_top" xlink:title="roofit/roofit/inc/RooJohnson.h">
<polygon fill="#ffffff" stroke="#000000" points="525,-212.5 525,-231.5 681,-231.5 681,-212.5 525,-212.5"/>
<text text-anchor="middle" x="603" y="-219.5" font-family="Helvetica,sans-Serif" font-size="10.00" fill="#000000">roofit/roofit/inc/RooJohnson.h</text>
</a>
</g>
</g>
<!-- Node97&#45;&gt;Node101 -->
<g id="edge4" class="edge">
<title>Node97&#45;&gt;Node101</title>
<path fill="none" stroke="#191970" d="M1650.3355,-292.7083C1456.2682,-287.0979 880.8145,-268.6988 695,-243 676.0126,-240.374 655.1641,-235.7619 638.1218,-231.5276"/>
<polygon fill="#191970" stroke="#191970" points="1650.2854,-296.2082 1660.3819,-292.9971 1650.4866,-289.2111 1650.2854,-296.2082"/>
</g>
<!-- Node103 -->
<g id="node7" class="node">
<title>Node103</title>
<g id="a_node7"><a xlink:href="RooRealConstant_8h.html" target="_top" xlink:title="roofit/roofitcore/inc\l/RooRealConstant.h">
<polygon fill="#ffffff" stroke="#000000" points="1192.5,-207 1192.5,-237 1303.5,-237 1303.5,-207 1192.5,-207"/>
<text text-anchor="start" x="1200.5" y="-225" font-family="Helvetica,sans-Serif" font-size="10.00" fill="#000000">roofit/roofitcore/inc</text>
<text text-anchor="middle" x="1248" y="-214" font-family="Helvetica,sans-Serif" font-size="10.00" fill="#000000">/RooRealConstant.h</text>
</a>
</g>
</g>
<!-- Node97&#45;&gt;Node103 -->
<g id="edge6" class="edge">
<title>Node97&#45;&gt;Node103</title>
<path fill="none" stroke="#191970" d="M1649.9707,-289.3307C1570.8854,-282.2958 1433.6269,-267.6728 1318,-243 1310.3067,-241.3584 1302.234,-239.2802 1294.417,-237.0731"/>
<polygon fill="#191970" stroke="#191970" points="1649.9966,-292.8463 1660.2639,-290.2326 1650.6076,-285.873 1649.9966,-292.8463"/>
</g>
<!-- Node109 -->
<g id="node13" class="node">
<title>Node109</title>
<g id="a_node13"><a xlink:href="ProposalHelper_8cxx.html" target="_top" xlink:title="roofit/roostats/src\l/ProposalHelper.cxx">
<polygon fill="#ffffff" stroke="#000000" points="219.5,-67.5 219.5,-97.5 332.5,-97.5 332.5,-67.5 219.5,-67.5"/>
<text text-anchor="start" x="227.5" y="-85.5" font-family="Helvetica,sans-Serif" font-size="10.00" fill="#000000">roofit/roostats/src</text>
<text text-anchor="middle" x="276" y="-74.5" font-family="Helvetica,sans-Serif" font-size="10.00" fill="#000000">/ProposalHelper.cxx</text>
</a>
</g>
</g>
<!-- Node97&#45;&gt;Node109 -->
<g id="edge43" class="edge">
<title>Node97&#45;&gt;Node109</title>
<path fill="none" stroke="#191970" d="M1650.0088,-288.4613C1487.96,-273.4284 1052.9189,-233.218 690,-201 643.6765,-196.8876 304.4385,-199.2695 273,-165 256.432,-146.94 263.3364,-116.197 269.7478,-97.7728"/>
<polygon fill="#191970" stroke="#191970" points="1650.0036,-291.9757 1660.2842,-289.4147 1650.6504,-285.0057 1650.0036,-291.9757"/>
</g>
<!-- Node119 -->
<g id="node23" class="node">
<title>Node119</title>
<g id="a_node23"><a xlink:href="RooCustomizer_8cxx.html" target="_top" xlink:title="roofit/roofitcore/src\l/RooCustomizer.cxx">
<polygon fill="#ffffff" stroke="#000000" points="2365.5,-134.5 2365.5,-164.5 2478.5,-164.5 2478.5,-134.5 2365.5,-134.5"/>
<text text-anchor="start" x="2373.5" y="-152.5" font-family="Helvetica,sans-Serif" font-size="10.00" fill="#000000">roofit/roofitcore/src</text>
<text text-anchor="middle" x="2422" y="-141.5" font-family="Helvetica,sans-Serif" font-size="10.00" fill="#000000">/RooCustomizer.cxx</text>
</a>
</g>
</g>
<!-- Node97&#45;&gt;Node119 -->
<g id="edge31" class="edge">
<title>Node97&#45;&gt;Node119</title>
<path fill="none" stroke="#191970" d="M1650.265,-289.7626C1552.1093,-281.9139 1374.9695,-264.8849 1356,-243 1343.7737,-228.8946 1343.0403,-214.4347 1356,-201 1394.5956,-160.99 2300.9018,-172.3899 2356,-165 2359.0331,-164.5932 2362.1308,-164.1091 2365.2488,-163.5677"/>
<polygon fill="#191970" stroke="#191970" points="1650.1342,-293.263 1660.3787,-290.5611 1650.6853,-286.2848 1650.1342,-293.263"/>
</g>
<!-- Node121 -->
<g id="node25" class="node">
<title>Node121</title>
<g id="a_node25"><a xlink:href="RooRealConstant_8cxx.html" target="_top" xlink:title=" &#160;">
<polygon fill="#ffffff" stroke="#000000" points="2497,-134.5 2497,-164.5 2619,-164.5 2619,-134.5 2497,-134.5"/>
<text text-anchor="start" x="2505" y="-152.5" font-family="Helvetica,sans-Serif" font-size="10.00" fill="#000000">roofit/roofitcore/src</text>
<text text-anchor="middle" x="2558" y="-141.5" font-family="Helvetica,sans-Serif" font-size="10.00" fill="#000000">/RooRealConstant.cxx</text>
</a>
</g>
</g>
<!-- Node97&#45;&gt;Node121 -->
<g id="edge38" class="edge">
<title>Node97&#45;&gt;Node121</title>
<path fill="none" stroke="#191970" d="M1650.2199,-288.7208C1560.2797,-280.0328 1406.6782,-262.5291 1390,-243 1377.8775,-228.8053 1377.0187,-214.4138 1390,-201 1432.4437,-157.1419 2427.446,-172.6301 2488,-165 2490.8404,-164.6421 2493.7354,-164.2234 2496.6524,-163.7577"/>
<polygon fill="#191970" stroke="#191970" points="1650.0361,-292.2191 1660.3235,-289.6857 1650.7015,-285.2508 1650.0361,-292.2191"/>
</g>
<!-- Node125 -->
<g id="node29" class="node">
<title>Node125</title>
<g id="a_node29"><a xlink:href="RooAbsArg_8cxx.html" target="_top" xlink:title="roofit/roofitcore/src\l/RooAbsArg.cxx">
<polygon fill="#ffffff" stroke="#000000" points="1398.5,-207 1398.5,-237 1507.5,-237 1507.5,-207 1398.5,-207"/>
<text text-anchor="start" x="1406.5" y="-225" font-family="Helvetica,sans-Serif" font-size="10.00" fill="#000000">roofit/roofitcore/src</text>
<text text-anchor="middle" x="1453" y="-214" font-family="Helvetica,sans-Serif" font-size="10.00" fill="#000000">/RooAbsArg.cxx</text>
</a>
</g>
</g>
<!-- Node97&#45;&gt;Node125 -->
<g id="edge28" class="edge">
<title>Node97&#45;&gt;Node125</title>
<path fill="none" stroke="#191970" d="M1650.0079,-278.6855C1611.2299,-268.9791 1561.1089,-255.9592 1517,-243 1510.7169,-241.154 1504.1202,-239.1108 1497.6477,-237.0449"/>
<polygon fill="#191970" stroke="#191970" points="1649.57,-282.1833 1660.1196,-281.2058 1651.263,-275.3911 1649.57,-282.1833"/>
</g>
<!-- Node126 -->
<g id="node30" class="node">
<title>Node126</title>
<g id="a_node30"><a xlink:href="RooAbsMoment_8cxx.html" target="_top" xlink:title=" &#160;">
<polygon fill="#ffffff" stroke="#000000" points="1526,-207 1526,-237 1642,-237 1642,-207 1526,-207"/>
<text text-anchor="start" x="1534" y="-225" font-family="Helvetica,sans-Serif" font-size="10.00" fill="#000000">roofit/roofitcore/src</text>
<text text-anchor="middle" x="1584" y="-214" font-family="Helvetica,sans-Serif" font-size="10.00" fill="#000000">/RooAbsMoment.cxx</text>
</a>
</g>
</g>
<!-- Node97&#45;&gt;Node126 -->
<g id="edge29" class="edge">
<title>Node97&#45;&gt;Node126</title>
<path fill="none" stroke="#191970" d="M1679.0257,-274.5905C1657.5715,-262.717 1630.7726,-247.8856 1611.1085,-237.0028"/>
<polygon fill="#191970" stroke="#191970" points="1677.4125,-277.698 1687.8567,-279.478 1680.8021,-271.5733 1677.4125,-277.698"/>
</g>
<!-- Node127 -->
<g id="node31" class="node">
<title>Node127</title>
<g id="a_node31"><a xlink:href="RooConstVar_8cxx.html" target="_top" xlink:title=" &#160;">
<polygon fill="#ffffff" stroke="#000000" points="1660.5,-207 1660.5,-237 1769.5,-237 1769.5,-207 1660.5,-207"/>
<text text-anchor="start" x="1668.5" y="-225" font-family="Helvetica,sans-Serif" font-size="10.00" fill="#000000">roofit/roofitcore/src</text>
<text text-anchor="middle" x="1715" y="-214" font-family="Helvetica,sans-Serif" font-size="10.00" fill="#000000">/RooConstVar.cxx</text>
</a>
</g>
</g>
<!-- Node97&#45;&gt;Node127 -->
<g id="edge30" class="edge">
<title>Node97&#45;&gt;Node127</title>
<path fill="none" stroke="#191970" d="M1715,-269.3409C1715,-258.5601 1715,-246.3309 1715,-237.0028"/>
<polygon fill="#191970" stroke="#191970" points="1711.5001,-269.4779 1715,-279.478 1718.5001,-269.478 1711.5001,-269.4779"/>
</g>
<!-- Node128 -->
<g id="node32" class="node">
<title>Node128</title>
<g id="a_node32"><a xlink:href="RooFactoryWSTool_8cxx.html" target="_top" xlink:title=" &#160;">
<polygon fill="#ffffff" stroke="#000000" points="1788,-207 1788,-237 1916,-237 1916,-207 1788,-207"/>
<text text-anchor="start" x="1796" y="-225" font-family="Helvetica,sans-Serif" font-size="10.00" fill="#000000">roofit/roofitcore/src</text>
<text text-anchor="middle" x="1852" y="-214" font-family="Helvetica,sans-Serif" font-size="10.00" fill="#000000">/RooFactoryWSTool.cxx</text>
</a>
</g>
</g>
<!-- Node97&#45;&gt;Node128 -->
<g id="edge32" class="edge">
<title>Node97&#45;&gt;Node128</title>
<path fill="none" stroke="#191970" d="M1752.3219,-274.7494C1774.8085,-262.8495 1802.9933,-247.9342 1823.6499,-237.0028"/>
<polygon fill="#191970" stroke="#191970" points="1750.5881,-271.707 1743.3865,-279.478 1753.8623,-277.894 1750.5881,-271.707"/>
</g>
<!-- Node129 -->
<g id="node33" class="node">
<title>Node129</title>
<g id="a_node33"><a xlink:href="RooFFTConvPdf_8cxx.html" target="_top" xlink:title="roofit/roofitcore/src\l/RooFFTConvPdf.cxx">
<polygon fill="#ffffff" stroke="#000000" points="1934.5,-207 1934.5,-237 2047.5,-237 2047.5,-207 1934.5,-207"/>
<text text-anchor="start" x="1942.5" y="-225" font-family="Helvetica,sans-Serif" font-size="10.00" fill="#000000">roofit/roofitcore/src</text>
<text text-anchor="middle" x="1991" y="-214" font-family="Helvetica,sans-Serif" font-size="10.00" fill="#000000">/RooFFTConvPdf.cxx</text>
</a>
</g>
</g>
<!-- Node97&#45;&gt;Node129 -->
<g id="edge33" class="edge">
<title>Node97&#45;&gt;Node129</title>
<path fill="none" stroke="#191970" d="M1779.409,-279.8937C1821.1143,-270.1437 1876.4922,-256.6483 1925,-243 1931.482,-241.1762 1938.2863,-239.1455 1944.9617,-237.0855"/>
<polygon fill="#191970" stroke="#191970" points="1778.599,-276.4886 1769.6528,-282.1646 1780.1859,-283.3064 1778.599,-276.4886"/>
</g>
<!-- Node130 -->
<g id="node34" class="node">
<title>Node130</title>
<g id="a_node34"><a xlink:href="RooFirstMoment_8cxx.html" target="_top" xlink:title=" &#160;">
<polygon fill="#ffffff" stroke="#000000" points="2066,-207 2066,-237 2184,-237 2184,-207 2066,-207"/>
<text text-anchor="start" x="2074" y="-225" font-family="Helvetica,sans-Serif" font-size="10.00" fill="#000000">roofit/roofitcore/src</text>
<text text-anchor="middle" x="2125" y="-214" font-family="Helvetica,sans-Serif" font-size="10.00" fill="#000000">/RooFirstMoment.cxx</text>
</a>
</g>
</g>
<!-- Node97&#45;&gt;Node130 -->
<g id="edge34" class="edge">
<title>Node97&#45;&gt;Node130</title>
<path fill="none" stroke="#191970" d="M1779.9765,-287.6582C1849.178,-279.6885 1961.649,-264.773 2057,-243 2064.3478,-241.3221 2072.0549,-239.2516 2079.5327,-237.0707"/>
<polygon fill="#191970" stroke="#191970" points="1779.2097,-284.2227 1769.6694,-288.8306 1780.001,-291.1779 1779.2097,-284.2227"/>
</g>
<!-- Node131 -->
<g id="node35" class="node">
<title>Node131</title>
<g id="a_node35"><a xlink:href="RooMoment_8cxx.html" target="_top" xlink:title=" &#160;">
<polygon fill="#ffffff" stroke="#000000" points="2202.5,-207 2202.5,-237 2311.5,-237 2311.5,-207 2202.5,-207"/>
<text text-anchor="start" x="2210.5" y="-225" font-family="Helvetica,sans-Serif" font-size="10.00" fill="#000000">roofit/roofitcore/src</text>
<text text-anchor="middle" x="2257" y="-214" font-family="Helvetica,sans-Serif" font-size="10.00" fill="#000000">/RooMoment.cxx</text>
</a>
</g>
</g>
<!-- Node97&#45;&gt;Node131 -->
<g id="edge35" class="edge">
<title>Node97&#45;&gt;Node131</title>
<path fill="none" stroke="#191970" d="M1779.7669,-291.8296C1872.3117,-287.0441 2047.308,-274.387 2193,-243 2200.3163,-241.4238 2207.9744,-239.3232 2215.3462,-237.0589"/>
<polygon fill="#191970" stroke="#191970" points="1779.5242,-288.3373 1769.7126,-292.3352 1779.8758,-295.3285 1779.5242,-288.3373"/>
</g>
<!-- Node132 -->
<g id="node36" class="node">
<title>Node132</title>
<g id="a_node36"><a xlink:href="RooMultiVarGaussian_8cxx.html" target="_top" xlink:title=" &#160;">
<polygon fill="#ffffff" stroke="#000000" points="2329.5,-207 2329.5,-237 2472.5,-237 2472.5,-207 2329.5,-207"/>
<text text-anchor="start" x="2337.5" y="-225" font-family="Helvetica,sans-Serif" font-size="10.00" fill="#000000">roofit/roofitcore/src</text>
<text text-anchor="middle" x="2401" y="-214" font-family="Helvetica,sans-Serif" font-size="10.00" fill="#000000">/RooMultiVarGaussian.cxx</text>
</a>
</g>
</g>
<!-- Node97&#45;&gt;Node132 -->
<g id="edge36" class="edge">
<title>Node97&#45;&gt;Node132</title>
<path fill="none" stroke="#191970" d="M1779.7866,-292.646C1891.1532,-288.6472 2125.7543,-276.6648 2321,-243 2330.0564,-241.4385 2339.5846,-239.3452 2348.7827,-237.0837"/>
<polygon fill="#191970" stroke="#191970" points="1779.5934,-289.1505 1769.7218,-292.9976 1779.8379,-296.1463 1779.5934,-289.1505"/>
</g>
<!-- Node133 -->
<g id="node37" class="node">
<title>Node133</title>
<g id="a_node37"><a xlink:href="RooProdPdf_8cxx.html" target="_top" xlink:title=" &#160;">
<polygon fill="#ffffff" stroke="#000000" points="2490.5,-207 2490.5,-237 2599.5,-237 2599.5,-207 2490.5,-207"/>
<text text-anchor="start" x="2498.5" y="-225" font-family="Helvetica,sans-Serif" font-size="10.00" fill="#000000">roofit/roofitcore/src</text>
<text text-anchor="middle" x="2545" y="-214" font-family="Helvetica,sans-Serif" font-size="10.00" fill="#000000">/RooProdPdf.cxx</text>
</a>
</g>
</g>
<!-- Node97&#45;&gt;Node133 -->
<g id="edge37" class="edge">
<title>Node97&#45;&gt;Node133</title>
<path fill="none" stroke="#191970" d="M1779.6401,-292.2768C1939.137,-286.4509 2348.1817,-269.3466 2482,-243 2489.4659,-241.5301 2497.2696,-239.4223 2504.7408,-237.1032"/>
<polygon fill="#191970" stroke="#191970" points="1779.3675,-288.7843 1769.5008,-292.6442 1779.621,-295.7797 1779.3675,-288.7843"/>
</g>
<!-- Node134 -->
<g id="node38" class="node">
<title>Node134</title>
<g id="a_node38"><a xlink:href="RooRealIntegral_8cxx.html" target="_top" xlink:title=" &#160;">
<polygon fill="#ffffff" stroke="#000000" points="2618,-207 2618,-237 2734,-237 2734,-207 2618,-207"/>
<text text-anchor="start" x="2626" y="-225" font-family="Helvetica,sans-Serif" font-size="10.00" fill="#000000">roofit/roofitcore/src</text>
<text text-anchor="middle" x="2676" y="-214" font-family="Helvetica,sans-Serif" font-size="10.00" fill="#000000">/RooRealIntegral.cxx</text>
</a>
</g>
</g>
<!-- Node97&#45;&gt;Node134 -->
<g id="edge39" class="edge">
<title>Node97&#45;&gt;Node134</title>
<path fill="none" stroke="#191970" d="M1779.8306,-292.8357C1957.5245,-287.9442 2449.6791,-272.0967 2609,-243 2617.0344,-241.5327 2625.4525,-239.395 2633.5032,-237.0383"/>
<polygon fill="#191970" stroke="#191970" points="1779.4917,-289.3435 1769.5909,-293.115 1779.6826,-296.3409 1779.4917,-289.3435"/>
</g>
<!-- Node135 -->
<g id="node39" class="node">
<title>Node135</title>
<g id="a_node39"><a xlink:href="RooSecondMoment_8cxx.html" target="_top" xlink:title=" &#160;">
<polygon fill="#ffffff" stroke="#000000" points="2752.5,-207 2752.5,-237 2885.5,-237 2885.5,-207 2752.5,-207"/>
<text text-anchor="start" x="2760.5" y="-225" font-family="Helvetica,sans-Serif" font-size="10.00" fill="#000000">roofit/roofitcore/src</text>
<text text-anchor="middle" x="2819" y="-214" font-family="Helvetica,sans-Serif" font-size="10.00" fill="#000000">/RooSecondMoment.cxx</text>
</a>
</g>
</g>
<!-- Node97&#45;&gt;Node135 -->
<g id="edge40" class="edge">
<title>Node97&#45;&gt;Node135</title>
<path fill="none" stroke="#191970" d="M1779.8882,-293.1122C1975.306,-288.6381 2556.2503,-273.1035 2743,-243 2752.0547,-241.5404 2761.5755,-239.4064 2770.6983,-237.051"/>
<polygon fill="#191970" stroke="#191970" points="1779.6913,-289.6156 1769.7733,-293.3417 1779.8502,-296.6138 1779.6913,-289.6156"/>
</g>
<!-- Node136 -->
<g id="node40" class="node">
<title>Node136</title>
<g id="a_node40"><a xlink:href="RooWorkspace_8cxx.html" target="_top" xlink:title=" &#160;">
<polygon fill="#ffffff" stroke="#000000" points="2903.5,-207 2903.5,-237 3014.5,-237 3014.5,-207 2903.5,-207"/>
<text text-anchor="start" x="2911.5" y="-225" font-family="Helvetica,sans-Serif" font-size="10.00" fill="#000000">roofit/roofitcore/src</text>
<text text-anchor="middle" x="2959" y="-214" font-family="Helvetica,sans-Serif" font-size="10.00" fill="#000000">/RooWorkspace.cxx</text>
</a>
</g>
</g>
<!-- Node97&#45;&gt;Node136 -->
<g id="edge41" class="edge">
<title>Node97&#45;&gt;Node136</title>
<path fill="none" stroke="#191970" d="M1779.8482,-293.9985C1994.1541,-291.9765 2678.2843,-282.5109 2895,-243 2902.8229,-241.5737 2911.0056,-239.4235 2918.8048,-237.0345"/>
<polygon fill="#191970" stroke="#191970" points="1779.6685,-290.5 1769.7012,-294.092 1779.733,-297.4997 1779.6685,-290.5"/>
</g>
<!-- Node137 -->
<g id="node41" class="node">
<title>Node137</title>
<g id="a_node41"><a xlink:href="HypoTestInverter_8cxx.html" target="_top" xlink:title="roofit/roostats/src\l/HypoTestInverter.cxx">
<polygon fill="#ffffff" stroke="#000000" points="3033,-207 3033,-237 3155,-237 3155,-207 3033,-207"/>
<text text-anchor="start" x="3041" y="-225" font-family="Helvetica,sans-Serif" font-size="10.00" fill="#000000">roofit/roostats/src</text>
<text text-anchor="middle" x="3094" y="-214" font-family="Helvetica,sans-Serif" font-size="10.00" fill="#000000">/HypoTestInverter.cxx</text>
</a>
</g>
</g>
<!-- Node97&#45;&gt;Node137 -->
<g id="edge42" class="edge">
<title>Node97&#45;&gt;Node137</title>
<path fill="none" stroke="#191970" d="M1779.8127,-294.108C2009.0167,-292.3854 2780.5587,-283.6339 3024,-243 3032.51,-241.5796 3041.4381,-239.432 3049.9616,-237.0439"/>
<polygon fill="#191970" stroke="#191970" points="1779.6068,-290.6094 1769.6327,-294.1826 1779.6581,-297.6092 1779.6068,-290.6094"/>
</g>
<!-- Node102 -->
<g id="node6" class="node">
<title>Node102</title>
<g id="a_node6"><a xlink:href="RooJohnson_8cxx.html" target="_top" xlink:title="roofit/roofit/src/RooJohnson.cxx">
<polygon fill="#ffffff" stroke="#000000" points="58.5,-140 58.5,-159 225.5,-159 225.5,-140 58.5,-140"/>
<text text-anchor="middle" x="142" y="-147" font-family="Helvetica,sans-Serif" font-size="10.00" fill="#000000">roofit/roofit/src/RooJohnson.cxx</text>
</a>
</g>
</g>
<!-- Node101&#45;&gt;Node102 -->
<g id="edge5" class="edge">
<title>Node101&#45;&gt;Node102</title>
<path fill="none" stroke="#191970" d="M556.815,-210.0238C543.3903,-206.8024 528.6631,-203.5175 515,-201 393.7756,-178.6637 361.9978,-182.6299 240,-165 227.2138,-163.1523 213.5081,-161.0568 200.5191,-159.0174"/>
<polygon fill="#191970" stroke="#191970" points="556.2429,-213.4869 566.7879,-212.4611 557.9048,-206.687 556.2429,-213.4869"/>
</g>
<!-- Node104 -->
<g id="node8" class="node">
<title>Node104</title>
<g id="a_node8"><a xlink:href="RooNDKeysPdf_8h.html" target="_top" xlink:title="roofit/roofit/inc/RooNDKeys\lPdf.h">
<polygon fill="#ffffff" stroke="#000000" points="543.5,-134.5 543.5,-164.5 690.5,-164.5 690.5,-134.5 543.5,-134.5"/>
<text text-anchor="start" x="551.5" y="-152.5" font-family="Helvetica,sans-Serif" font-size="10.00" fill="#000000">roofit/roofit/inc/RooNDKeys</text>
<text text-anchor="middle" x="617" y="-141.5" font-family="Helvetica,sans-Serif" font-size="10.00" fill="#000000">Pdf.h</text>
</a>
</g>
</g>
<!-- Node103&#45;&gt;Node104 -->
<g id="edge7" class="edge">
<title>Node103&#45;&gt;Node104</title>
<path fill="none" stroke="#191970" d="M1182.2152,-216.9539C1078.9664,-208.6328 872.713,-190.3908 699,-165 696.2762,-164.6019 693.505,-164.1775 690.7085,-163.7329"/>
<polygon fill="#191970" stroke="#191970" points="1182.2355,-220.4666 1192.483,-217.776 1182.7942,-213.4889 1182.2355,-220.4666"/>
</g>
<!-- Node110 -->
<g id="node14" class="node">
<title>Node110</title>
<g id="a_node14"><a xlink:href="RooArgusBG_8cxx.html" target="_top" xlink:title="roofit/roofit/src/RooArgus\lBG.cxx">
<polygon fill="#ffffff" stroke="#000000" points="708.5,-134.5 708.5,-164.5 845.5,-164.5 845.5,-134.5 708.5,-134.5"/>
<text text-anchor="start" x="716.5" y="-152.5" font-family="Helvetica,sans-Serif" font-size="10.00" fill="#000000">roofit/roofit/src/RooArgus</text>
<text text-anchor="middle" x="777" y="-141.5" font-family="Helvetica,sans-Serif" font-size="10.00" fill="#000000">BG.cxx</text>
</a>
</g>
</g>
<!-- Node103&#45;&gt;Node110 -->
<g id="edge13" class="edge">
<title>Node103&#45;&gt;Node110</title>
<path fill="none" stroke="#191970" d="M1182.1775,-213.6028C1103.8039,-203.3447 969.0402,-184.8847 854,-165 851.3126,-164.5355 848.5752,-164.0489 845.8119,-163.5467"/>
<polygon fill="#191970" stroke="#191970" points="1182.0173,-217.1115 1192.386,-214.9343 1182.9227,-210.1703 1182.0173,-217.1115"/>
</g>
<!-- Node111 -->
<g id="node15" class="node">
<title>Node111</title>
<g id="a_node15"><a xlink:href="RooGaussModel_8cxx.html" target="_top" xlink:title="roofit/roofit/src/RooGauss\lModel.cxx">
<polygon fill="#ffffff" stroke="#000000" points="863.5,-134.5 863.5,-164.5 1002.5,-164.5 1002.5,-134.5 863.5,-134.5"/>
<text text-anchor="start" x="871.5" y="-152.5" font-family="Helvetica,sans-Serif" font-size="10.00" fill="#000000">roofit/roofit/src/RooGauss</text>
<text text-anchor="middle" x="933" y="-141.5" font-family="Helvetica,sans-Serif" font-size="10.00" fill="#000000">Model.cxx</text>
</a>
</g>
</g>
<!-- Node103&#45;&gt;Node111 -->
<g id="edge14" class="edge">
<title>Node103&#45;&gt;Node111</title>
<path fill="none" stroke="#191970" d="M1182.5979,-206.9471C1128.6091,-194.5212 1052.363,-176.9724 998.3802,-164.5478"/>
<polygon fill="#191970" stroke="#191970" points="1181.8792,-210.3731 1192.4094,-209.2053 1183.4493,-203.5515 1181.8792,-210.3731"/>
</g>
<!-- Node112 -->
<g id="node16" class="node">
<title>Node112</title>
<g id="a_node16"><a xlink:href="RooGExpModel_8cxx.html" target="_top" xlink:title="roofit/roofit/src/RooGExp\lModel.cxx">
<polygon fill="#ffffff" stroke="#000000" points="1021,-134.5 1021,-164.5 1155,-164.5 1155,-134.5 1021,-134.5"/>
<text text-anchor="start" x="1029" y="-152.5" font-family="Helvetica,sans-Serif" font-size="10.00" fill="#000000">roofit/roofit/src/RooGExp</text>
<text text-anchor="middle" x="1088" y="-141.5" font-family="Helvetica,sans-Serif" font-size="10.00" fill="#000000">Model.cxx</text>
</a>
</g>
</g>
<!-- Node103&#45;&gt;Node112 -->
<g id="edge15" class="edge">
<title>Node103&#45;&gt;Node112</title>
<path fill="none" stroke="#191970" d="M1205.4593,-202.7237C1179.03,-190.748 1145.5557,-175.5799 1121.1096,-164.5028"/>
<polygon fill="#191970" stroke="#191970" points="1204.2948,-206.0386 1214.8479,-206.978 1207.1839,-199.6626 1204.2948,-206.0386"/>
</g>
<!-- Node113 -->
<g id="node17" class="node">
<title>Node113</title>
<g id="a_node17"><a xlink:href="RooMomentMorph_8cxx.html" target="_top" xlink:title="roofit/roofit/src/RooMoment\lMorph.cxx">
<polygon fill="#ffffff" stroke="#000000" points="1173.5,-134.5 1173.5,-164.5 1322.5,-164.5 1322.5,-134.5 1173.5,-134.5"/>
<text text-anchor="start" x="1181.5" y="-152.5" font-family="Helvetica,sans-Serif" font-size="10.00" fill="#000000">roofit/roofit/src/RooMoment</text>
<text text-anchor="middle" x="1248" y="-141.5" font-family="Helvetica,sans-Serif" font-size="10.00" fill="#000000">Morph.cxx</text>
</a>
</g>
</g>
<!-- Node103&#45;&gt;Node113 -->
<g id="edge16" class="edge">
<title>Node103&#45;&gt;Node113</title>
<path fill="none" stroke="#191970" d="M1248,-196.8409C1248,-186.0601 1248,-173.8309 1248,-164.5028"/>
<polygon fill="#191970" stroke="#191970" points="1244.5001,-196.9779 1248,-206.978 1251.5001,-196.978 1244.5001,-196.9779"/>
</g>
<!-- Node114 -->
<g id="node18" class="node">
<title>Node114</title>
<g id="a_node18"><a xlink:href="RooMomentMorphFunc_8cxx.html" target="_top" xlink:title="roofit/roofit/src/RooMoment\lMorphFunc.cxx">
<polygon fill="#ffffff" stroke="#000000" points="1340.5,-134.5 1340.5,-164.5 1489.5,-164.5 1489.5,-134.5 1340.5,-134.5"/>
<text text-anchor="start" x="1348.5" y="-152.5" font-family="Helvetica,sans-Serif" font-size="10.00" fill="#000000">roofit/roofit/src/RooMoment</text>
<text text-anchor="middle" x="1415" y="-141.5" font-family="Helvetica,sans-Serif" font-size="10.00" fill="#000000">MorphFunc.cxx</text>
</a>
</g>
</g>
<!-- Node103&#45;&gt;Node114 -->
<g id="edge17" class="edge">
<title>Node103&#45;&gt;Node114</title>
<path fill="none" stroke="#191970" d="M1292.0393,-202.8811C1319.6808,-190.8811 1354.8143,-175.6285 1380.4418,-164.5028"/>
<polygon fill="#191970" stroke="#191970" points="1290.3816,-199.7851 1282.6025,-206.978 1293.1692,-206.2062 1290.3816,-199.7851"/>
</g>
<!-- Node115 -->
<g id="node19" class="node">
<title>Node115</title>
<g id="a_node19"><a xlink:href="RooMomentMorphFuncND_8cxx.html" target="_top" xlink:title="roofit/roofit/src/RooMoment\lMorphFuncND.cxx">
<polygon fill="#ffffff" stroke="#000000" points="1507.5,-134.5 1507.5,-164.5 1656.5,-164.5 1656.5,-134.5 1507.5,-134.5"/>
<text text-anchor="start" x="1515.5" y="-152.5" font-family="Helvetica,sans-Serif" font-size="10.00" fill="#000000">roofit/roofit/src/RooMoment</text>
<text text-anchor="middle" x="1582" y="-141.5" font-family="Helvetica,sans-Serif" font-size="10.00" fill="#000000">MorphFuncND.cxx</text>
</a>
</g>
</g>
<!-- Node103&#45;&gt;Node115 -->
<g id="edge18" class="edge">
<title>Node103&#45;&gt;Node115</title>
<path fill="none" stroke="#191970" d="M1305.7,-204.2026C1309.8499,-203.0726 1313.9813,-201.9922 1318,-201 1336.2477,-196.4947 1435.9613,-177.2868 1507.4546,-163.6513"/>
<polygon fill="#191970" stroke="#191970" points="1304.7131,-200.8442 1296.0272,-206.911 1306.6006,-207.585 1304.7131,-200.8442"/>
</g>
<!-- Node116 -->
<g id="node20" class="node">
<title>Node116</title>
<g id="a_node20"><a xlink:href="RooMomentMorphND_8cxx.html" target="_top" xlink:title="roofit/roofit/src/RooMoment\lMorphND.cxx">
<polygon fill="#ffffff" stroke="#000000" points="1674.5,-134.5 1674.5,-164.5 1823.5,-164.5 1823.5,-134.5 1674.5,-134.5"/>
<text text-anchor="start" x="1682.5" y="-152.5" font-family="Helvetica,sans-Serif" font-size="10.00" fill="#000000">roofit/roofit/src/RooMoment</text>
<text text-anchor="middle" x="1749" y="-141.5" font-family="Helvetica,sans-Serif" font-size="10.00" fill="#000000">MorphND.cxx</text>
</a>
</g>
</g>
<!-- Node103&#45;&gt;Node116 -->
<g id="edge19" class="edge">
<title>Node103&#45;&gt;Node116</title>
<path fill="none" stroke="#191970" d="M1303.5454,-204.3065C1308.4055,-203.0721 1313.2721,-201.945 1318,-201 1470.4764,-170.5248 1512.114,-187.2906 1666,-165 1668.7564,-164.6007 1671.5609,-164.1753 1674.3911,-163.7299"/>
<polygon fill="#191970" stroke="#191970" points="1302.3774,-200.996 1293.6254,-206.9669 1304.1907,-207.757 1302.3774,-200.996"/>
</g>
<!-- Node117 -->
<g id="node21" class="node">
<title>Node117</title>
<g id="a_node21"><a xlink:href="RooAddModel_8cxx.html" target="_top" xlink:title="roofit/roofitcore/src\l/RooAddModel.cxx">
<polygon fill="#ffffff" stroke="#000000" points="1841.5,-134.5 1841.5,-164.5 1950.5,-164.5 1950.5,-134.5 1841.5,-134.5"/>
<text text-anchor="start" x="1849.5" y="-152.5" font-family="Helvetica,sans-Serif" font-size="10.00" fill="#000000">roofit/roofitcore/src</text>
<text text-anchor="middle" x="1896" y="-141.5" font-family="Helvetica,sans-Serif" font-size="10.00" fill="#000000">/RooAddModel.cxx</text>
</a>
</g>
</g>
<!-- Node103&#45;&gt;Node117 -->
<g id="edge20" class="edge">
<title>Node103&#45;&gt;Node117</title>
<path fill="none" stroke="#191970" d="M1302.6602,-204.346C1307.8098,-203.0637 1312.9801,-201.9167 1318,-201 1543.7148,-159.7815 1606.3216,-200.5388 1833,-165 1835.7819,-164.5638 1838.6213,-164.0651 1841.4805,-163.52"/>
<polygon fill="#191970" stroke="#191970" points="1301.5964,-201.007 1292.8278,-206.9537 1303.3909,-207.7731 1301.5964,-201.007"/>
</g>
<!-- Node118 -->
<g id="node22" class="node">
<title>Node118</title>
<g id="a_node22"><a xlink:href="RooAddPdf_8cxx.html" target="_top" xlink:title="roofit/roofitcore/src\l/RooAddPdf.cxx">
<polygon fill="#ffffff" stroke="#000000" points="1968.5,-134.5 1968.5,-164.5 2077.5,-164.5 2077.5,-134.5 1968.5,-134.5"/>
<text text-anchor="start" x="1976.5" y="-152.5" font-family="Helvetica,sans-Serif" font-size="10.00" fill="#000000">roofit/roofitcore/src</text>
<text text-anchor="middle" x="2023" y="-141.5" font-family="Helvetica,sans-Serif" font-size="10.00" fill="#000000">/RooAddPdf.cxx</text>
</a>
</g>
</g>
<!-- Node103&#45;&gt;Node118 -->
<g id="edge21" class="edge">
<title>Node103&#45;&gt;Node118</title>
<path fill="none" stroke="#191970" d="M1302.4128,-204.3299C1307.6425,-203.0395 1312.8978,-201.8955 1318,-201 1599.4794,-151.5987 1677.3691,-207.319 1960,-165 1962.7849,-164.583 1965.6266,-164.0997 1968.4876,-163.5669"/>
<polygon fill="#191970" stroke="#191970" points="1301.209,-201.0278 1292.4343,-206.9652 1302.9965,-207.7957 1301.209,-201.0278"/>
</g>
<!-- Node103&#45;&gt;Node119 -->
<g id="edge22" class="edge">
<title>Node103&#45;&gt;Node119</title>
<path fill="none" stroke="#191970" d="M1301.7504,-204.3708C1307.1958,-203.0389 1312.6792,-201.8754 1318,-201 1773.4873,-126.0617 1898.4457,-226.0616 2356,-165 2359.0333,-164.5952 2362.1313,-164.1127 2365.2495,-163.5726"/>
<polygon fill="#191970" stroke="#191970" points="1300.8153,-200.9976 1292.0331,-206.924 1302.5943,-207.7678 1300.8153,-200.9976"/>
</g>
<!-- Node120 -->
<g id="node24" class="node">
<title>Node120</title>
<g id="a_node24"><a xlink:href="RooGlobalFunc_8cxx.html" target="_top" xlink:title="roofit/roofitcore/src\l/RooGlobalFunc.cxx">
<polygon fill="#ffffff" stroke="#000000" points="2095.5,-134.5 2095.5,-164.5 2206.5,-164.5 2206.5,-134.5 2095.5,-134.5"/>
<text text-anchor="start" x="2103.5" y="-152.5" font-family="Helvetica,sans-Serif" font-size="10.00" fill="#000000">roofit/roofitcore/src</text>
<text text-anchor="middle" x="2151" y="-141.5" font-family="Helvetica,sans-Serif" font-size="10.00" fill="#000000">/RooGlobalFunc.cxx</text>
</a>
</g>
</g>
<!-- Node103&#45;&gt;Node120 -->
<g id="edge23" class="edge">
<title>Node103&#45;&gt;Node120</title>
<path fill="none" stroke="#191970" d="M1302.4042,-204.28C1307.6356,-202.9998 1312.8937,-201.8719 1318,-201 1655.2708,-143.4112 1748.3012,-213.4889 2087,-165 2089.7161,-164.6112 2092.4854,-164.159 2095.2741,-163.6588"/>
<polygon fill="#191970" stroke="#191970" points="1301.2058,-200.9759 1292.4233,-206.902 1302.9845,-207.7462 1301.2058,-200.9759"/>
</g>
<!-- Node103&#45;&gt;Node121 -->
<g id="edge24" class="edge">
<title>Node103&#45;&gt;Node121</title>
<path fill="none" stroke="#191970" d="M1313.5215,-207.5175C1327.4784,-204.9227 1342.1768,-202.5536 1356,-201 1856.2162,-144.781 1988.5527,-227.683 2488,-165 2490.8406,-164.6435 2493.7357,-164.2259 2496.6528,-163.7612"/>
<polygon fill="#191970" stroke="#191970" points="1312.6738,-204.1163 1303.5128,-209.4385 1313.9933,-210.9908 1312.6738,-204.1163"/>
</g>
<!-- Node122 -->
<g id="node26" class="node">
<title>Node122</title>
<g id="a_node26"><a xlink:href="RooRealSumFunc_8cxx.html" target="_top" xlink:title="roofit/roofitcore/src\l/RooRealSumFunc.cxx">
<polygon fill="#ffffff" stroke="#000000" points="2225,-134.5 2225,-164.5 2347,-164.5 2347,-134.5 2225,-134.5"/>
<text text-anchor="start" x="2233" y="-152.5" font-family="Helvetica,sans-Serif" font-size="10.00" fill="#000000">roofit/roofitcore/src</text>
<text text-anchor="middle" x="2286" y="-141.5" font-family="Helvetica,sans-Serif" font-size="10.00" fill="#000000">/RooRealSumFunc.cxx</text>
</a>
</g>
</g>
<!-- Node103&#45;&gt;Node122 -->
<g id="edge25" class="edge">
<title>Node103&#45;&gt;Node122</title>
<path fill="none" stroke="#191970" d="M1301.7553,-204.4007C1307.1997,-203.0629 1312.6816,-201.8898 1318,-201 1711.9566,-135.0921 1819.8867,-216.38 2216,-165 2218.8391,-164.6317 2221.733,-164.2045 2224.6491,-163.732"/>
<polygon fill="#191970" stroke="#191970" points="1300.8172,-201.0284 1292.0393,-206.9612 1302.601,-207.7973 1300.8172,-201.0284"/>
</g>
<!-- Node123 -->
<g id="node27" class="node">
<title>Node123</title>
<g id="a_node27"><a xlink:href="RooRealSumPdf_8cxx.html" target="_top" xlink:title="roofit/roofitcore/src\l/RooRealSumPdf.cxx">
<polygon fill="#ffffff" stroke="#000000" points="282,-134.5 282,-164.5 398,-164.5 398,-134.5 282,-134.5"/>
<text text-anchor="start" x="290" y="-152.5" font-family="Helvetica,sans-Serif" font-size="10.00" fill="#000000">roofit/roofitcore/src</text>
<text text-anchor="middle" x="340" y="-141.5" font-family="Helvetica,sans-Serif" font-size="10.00" fill="#000000">/RooRealSumPdf.cxx</text>
</a>
</g>
</g>
<!-- Node103&#45;&gt;Node123 -->
<g id="edge26" class="edge">
<title>Node103&#45;&gt;Node123</title>
<path fill="none" stroke="#191970" d="M1182.0214,-221.103C1039.6883,-218.3863 693.4974,-207.57 407,-165 404.1657,-164.5789 401.274,-164.1005 398.3605,-163.5792"/>
<polygon fill="#191970" stroke="#191970" points="1182.2573,-224.6079 1192.3199,-221.2922 1182.3859,-217.6091 1182.2573,-224.6079"/>
</g>
<!-- Node124 -->
<g id="node28" class="node">
<title>Node124</title>
<g id="a_node28"><a xlink:href="RooSentinel_8cxx.html" target="_top" xlink:title=" &#160;">
<polygon fill="#ffffff" stroke="#000000" points="416.5,-134.5 416.5,-164.5 525.5,-164.5 525.5,-134.5 416.5,-134.5"/>
<text text-anchor="start" x="424.5" y="-152.5" font-family="Helvetica,sans-Serif" font-size="10.00" fill="#000000">roofit/roofitcore/src</text>
<text text-anchor="middle" x="471" y="-141.5" font-family="Helvetica,sans-Serif" font-size="10.00" fill="#000000">/RooSentinel.cxx</text>
</a>
</g>
</g>
<!-- Node103&#45;&gt;Node124 -->
<g id="edge27" class="edge">
<title>Node103&#45;&gt;Node124</title>
<path fill="none" stroke="#191970" d="M1181.7892,-220.2833C1055.2027,-216.214 770.4097,-203.2612 534,-165 531.2203,-164.5501 528.3826,-164.0403 525.5249,-163.4865"/>
<polygon fill="#191970" stroke="#191970" points="1181.9808,-223.7909 1192.0855,-220.6058 1182.2,-216.7944 1181.9808,-223.7909"/>
</g>
<!-- Node105 -->
<g id="node9" class="node">
<title>Node105</title>
<g id="a_node9"><a xlink:href="RooNDKeysPdf_8cxx.html" target="_top" xlink:title="roofit/roofit/src/RooNDKeys\lPdf.cxx">
<polygon fill="#ffffff" stroke="#000000" points="371.5,-67.5 371.5,-97.5 518.5,-97.5 518.5,-67.5 371.5,-67.5"/>
<text text-anchor="start" x="379.5" y="-85.5" font-family="Helvetica,sans-Serif" font-size="10.00" fill="#000000">roofit/roofit/src/RooNDKeys</text>
<text text-anchor="middle" x="445" y="-74.5" font-family="Helvetica,sans-Serif" font-size="10.00" fill="#000000">Pdf.cxx</text>
</a>
</g>
</g>
<!-- Node104&#45;&gt;Node105 -->
<g id="edge8" class="edge">
<title>Node104&#45;&gt;Node105</title>
<path fill="none" stroke="#191970" d="M568.8078,-130.7275C541.9477,-120.2645 508.9441,-107.4084 483.7685,-97.6017"/>
<polygon fill="#191970" stroke="#191970" points="567.8114,-134.0954 578.3998,-134.4639 570.3522,-127.5728 567.8114,-134.0954"/>
</g>
<!-- Node106 -->
<g id="node10" class="node">
<title>Node106</title>
<g id="a_node10"><a xlink:href="MCMCIntervalPlot_8h.html" target="_top" xlink:title="roofit/roostats/inc\l/RooStats/MCMCIntervalPlot.h">
<polygon fill="#ffffff" stroke="#000000" points="536.5,-67.5 536.5,-97.5 697.5,-97.5 697.5,-67.5 536.5,-67.5"/>
<text text-anchor="start" x="544.5" y="-85.5" font-family="Helvetica,sans-Serif" font-size="10.00" fill="#000000">roofit/roostats/inc</text>
<text text-anchor="middle" x="617" y="-74.5" font-family="Helvetica,sans-Serif" font-size="10.00" fill="#000000">/RooStats/MCMCIntervalPlot.h</text>
</a>
</g>
</g>
<!-- Node104&#45;&gt;Node106 -->
<g id="edge9" class="edge">
<title>Node104&#45;&gt;Node106</title>
<path fill="none" stroke="#191970" d="M617,-124.0249C617,-115.128 617,-105.4287 617,-97.6432"/>
<polygon fill="#191970" stroke="#191970" points="613.5001,-124.2966 617,-134.2967 620.5001,-124.2967 613.5001,-124.2966"/>
</g>
<!-- Node108 -->
<g id="node12" class="node">
<title>Node108</title>
<g id="a_node12"><a xlink:href="MCMCInterval_8cxx.html" target="_top" xlink:title="roofit/roostats/src\l/MCMCInterval.cxx">
<polygon fill="#ffffff" stroke="#000000" points="715.5,-67.5 715.5,-97.5 822.5,-97.5 822.5,-67.5 715.5,-67.5"/>
<text text-anchor="start" x="723.5" y="-85.5" font-family="Helvetica,sans-Serif" font-size="10.00" fill="#000000">roofit/roostats/src</text>
<text text-anchor="middle" x="769" y="-74.5" font-family="Helvetica,sans-Serif" font-size="10.00" fill="#000000">/MCMCInterval.cxx</text>
</a>
</g>
</g>
<!-- Node104&#45;&gt;Node108 -->
<g id="edge11" class="edge">
<title>Node104&#45;&gt;Node108</title>
<path fill="none" stroke="#191970" d="M660.5282,-130.3132C684.0917,-119.9267 712.784,-107.2794 734.7395,-97.6017"/>
<polygon fill="#191970" stroke="#191970" points="658.8505,-127.2277 651.1118,-134.4639 661.674,-133.6331 658.8505,-127.2277"/>
</g>
<!-- Node104&#45;&gt;Node109 -->
<g id="edge12" class="edge">
<title>Node104&#45;&gt;Node109</title>
<path fill="none" stroke="#191970" d="M533.5952,-133.1126C471.142,-120.8417 387.3748,-104.383 332.567,-93.6143"/>
<polygon fill="#191970" stroke="#191970" points="532.9407,-136.5508 543.4279,-135.0445 534.2903,-129.6821 532.9407,-136.5508"/>
</g>
<!-- Node107 -->
<g id="node11" class="node">
<title>Node107</title>
<g id="a_node11"><a xlink:href="MCMCIntervalPlot_8cxx.html" target="_top" xlink:title="roofit/roostats/src\l/MCMCIntervalPlot.cxx">
<polygon fill="#ffffff" stroke="#000000" points="554,-.5 554,-30.5 680,-30.5 680,-.5 554,-.5"/>
<text text-anchor="start" x="562" y="-18.5" font-family="Helvetica,sans-Serif" font-size="10.00" fill="#000000">roofit/roostats/src</text>
<text text-anchor="middle" x="617" y="-7.5" font-family="Helvetica,sans-Serif" font-size="10.00" fill="#000000">/MCMCIntervalPlot.cxx</text>
</a>
</g>
</g>
<!-- Node106&#45;&gt;Node107 -->
<g id="edge10" class="edge">
<title>Node106&#45;&gt;Node107</title>
<path fill="none" stroke="#191970" d="M617,-57.0249C617,-48.128 617,-38.4287 617,-30.6432"/>
<polygon fill="#191970" stroke="#191970" points="613.5001,-57.2966 617,-67.2967 620.5001,-57.2967 613.5001,-57.2966"/>
</g>
</g>
</svg>
        <g id="navigator" transform="translate(0 0)" fill="#404254">
                <rect fill="#f2f5e9" fill-opacity="0.5" stroke="#606060" stroke-width=".5" x="0" y="0" width="60" height="60"/>
                <use id="zoomplus" xlink:href="#zoomPlus" x="17" y="9" onmousedown="handleZoom(evt,'in')"/>
                <use id="zoomminus" xlink:href="#zoomMin" x="42" y="9" onmousedown="handleZoom(evt,'out')"/>
                <use id="reset" xlink:href="#resetDef" x="30" y="36" onmousedown="handleReset()"/>
                <g id="arrowUp" xlink:href="#dirArrow" transform="translate(30 24)" onmousedown="handlePan(0,-1)">
                  <use xlink:href="#rim" fill="#404040">
                        <set attributeName="fill" to="#808080" begin="arrowUp.mouseover" end="arrowUp.mouseout"/>
                  </use>
                  <path fill="none" stroke="white" stroke-width="1.5" d="M0,-3.0v7 M-2.5,-0.5L0,-3.0L2.5,-0.5"/>
                </g>
                <g id="arrowRight" xlink:href="#dirArrow" transform="rotate(90) translate(36 -43)" onmousedown="handlePan(1,0)">
                  <use xlink:href="#rim" fill="#404040">
                        <set attributeName="fill" to="#808080" begin="arrowRight.mouseover" end="arrowRight.mouseout"/>
                  </use>
                  <path fill="none" stroke="white" stroke-width="1.5" d="M0,-3.0v7 M-2.5,-0.5L0,-3.0L2.5,-0.5"/>
                </g>
                <g id="arrowDown" xlink:href="#dirArrow" transform="rotate(180) translate(-30 -48)" onmousedown="handlePan(0,1)">
                  <use xlink:href="#rim" fill="#404040">
                        <set attributeName="fill" to="#808080" begin="arrowDown.mouseover" end="arrowDown.mouseout"/>
                  </use>
                  <path fill="none" stroke="white" stroke-width="1.5" d="M0,-3.0v7 M-2.5,-0.5L0,-3.0L2.5,-0.5"/>
                </g>
                <g id="arrowLeft" xlink:href="#dirArrow" transform="rotate(270) translate(-36 17)" onmousedown="handlePan(-1,0)">
                  <use xlink:href="#rim" fill="#404040">
                        <set attributeName="fill" to="#808080" begin="arrowLeft.mouseover" end="arrowLeft.mouseout"/>
                  </use>
                  <path fill="none" stroke="white" stroke-width="1.5" d="M0,-3.0v7 M-2.5,-0.5L0,-3.0L2.5,-0.5"/>
                </g>
        </g>
        <svg viewBox="0 0 15 15" width="100%" height="30px" preserveAspectRatio="xMaxYMin meet">
         <g id="arrow_out" transform="scale(0.3 0.3)">
          <a xlink:href="RooConstVar_8h__dep__incl_org.svg" target="_base">
           <rect id="button" ry="5" rx="5" y="6" x="6" height="38" width="38"
                fill="#f2f5e9" fill-opacity="0.5" stroke="#606060" stroke-width="1.0"/>
           <path id="arrow"
             d="M 11.500037,31.436501 C 11.940474,20.09759 22.043105,11.32322 32.158766,21.979434 L 37.068811,17.246167 C 37.068811,17.246167 37.088388,32 37.088388,32 L 22.160133,31.978069 C 22.160133,31.978069 26.997745,27.140456 26.997745,27.140456 C 18.528582,18.264221 13.291696,25.230495 11.500037,31.436501 z"
             style="fill:#404040;"/>
          </a>
         </g>
        </svg>
</svg>
