<?xml version="1.0" encoding="UTF-8" standalone="no"?>
<!DOCTYPE svg PUBLIC "-//W3C//DTD SVG 1.1//EN"
 "http://www.w3.org/Graphics/SVG/1.1/DTD/svg11.dtd">
<!-- Generated by graphviz version 2.40.1 (0)
 -->
<!-- Title: roofit/roofitcore/inc/RooErrorHandler.h Pages: 1 -->
<!--zoomable 106 -->
<svg id="main" version="1.1" xmlns="http://www.w3.org/2000/svg" xmlns:xlink="http://www.w3.org/1999/xlink" xml:space="preserve" onload="init(evt)">
<style type="text/css"><![CDATA[
.edge:hover path { stroke: red; }
.edge:hover polygon { stroke: red; fill: red; }
]]></style>
<script type="text/javascript"><![CDATA[
var edges = document.getElementsByTagName('g');
if (edges && edges.length) {
  for (var i=0;i<edges.length;i++) {
    if (edges[i].id.substr(0,4)=='edge') {
      edges[i].setAttribute('class','edge');
    }
  }
}
]]></script>
        <defs>
                <circle id="rim" cx="0" cy="0" r="7"/>
                <circle id="rim2" cx="0" cy="0" r="3.5"/>
                <g id="zoomPlus">
                        <use xlink:href="#rim" fill="#404040">
                                <set attributeName="fill" to="#808080" begin="zoomplus.mouseover" end="zoomplus.mouseout"/>
                        </use>
                        <path d="M-4,0h8M0,-4v8" fill="none" stroke="white" stroke-width="1.5" pointer-events="none"/>
                </g>
                <g id="zoomMin">
                        <use xlink:href="#rim" fill="#404040">
                                <set attributeName="fill" to="#808080" begin="zoomminus.mouseover" end="zoomminus.mouseout"/>
                        </use>
                        <path d="M-4,0h8" fill="none" stroke="white" stroke-width="1.5" pointer-events="none"/>
                </g>
                <g id="dirArrow">
                        <path fill="none" stroke="white" stroke-width="1.5" d="M0,-3.0v7 M-2.5,-0.5L0,-3.0L2.5,-0.5"/>
                </g>
               <g id="resetDef">
                       <use xlink:href="#rim2" fill="#404040">
                               <set attributeName="fill" to="#808080" begin="reset.mouseover" end="reset.mouseout"/>
                       </use>
               </g>
        </defs>

<script type="text/javascript">
var viewWidth = 3625;
var viewHeight = 106;
var sectionId = 'dynsection-1';
</script>
<script xlink:href="svgpan.js"/>
<svg id="graph" class="graph">
<g id="viewport">
<title>roofit/roofitcore/inc/RooErrorHandler.h</title>
<polygon fill="#ffffff" stroke="transparent" points="-4,4 -4,-102 3621,-102 3621,4 -4,4"/>
<!-- Node22 -->
<g id="node1" class="node">
<title>Node22</title>
<polygon fill="#bfbfbf" stroke="#000000" points="1798,-67.5 1798,-97.5 1907,-97.5 1907,-67.5 1798,-67.5"/>
<text text-anchor="start" x="1806" y="-85.5" font-family="Helvetica,sans-Serif" font-size="10.00" fill="#000000">roofit/roofitcore/inc</text>
<text text-anchor="middle" x="1852.5" y="-74.5" font-family="Helvetica,sans-Serif" font-size="10.00" fill="#000000">/RooErrorHandler.h</text>
</g>
<!-- Node23 -->
<g id="node2" class="node">
<title>Node23</title>
<g id="a_node2"><a xlink:href="ParamHistFunc_8cxx.html" target="_top" xlink:title="roofit/histfactory\l/src/ParamHistFunc.cxx">
<polygon fill="#ffffff" stroke="#000000" points="0,-.5 0,-30.5 129,-30.5 129,-.5 0,-.5"/>
<text text-anchor="start" x="8" y="-18.5" font-family="Helvetica,sans-Serif" font-size="10.00" fill="#000000">roofit/histfactory</text>
<text text-anchor="middle" x="64.5" y="-7.5" font-family="Helvetica,sans-Serif" font-size="10.00" fill="#000000">/src/ParamHistFunc.cxx</text>
</a>
</g>
</g>
<!-- Node22&#45;&gt;Node23 -->
<g id="edge1" class="edge">
<title>Node22&#45;&gt;Node23</title>
<path fill="none" stroke="#191970" d="M1787.7225,-82.083C1515.9709,-80.0977 466.8554,-70.012 138.5,-31 135.5021,-30.6438 132.4456,-30.2265 129.3651,-29.762"/>
<polygon fill="#191970" stroke="#191970" points="1787.7918,-85.5835 1797.8168,-82.1556 1787.8422,-78.5837 1787.7918,-85.5835"/>
</g>
<!-- Node24 -->
<g id="node3" class="node">
<title>Node24</title>
<g id="a_node3"><a xlink:href="PiecewiseInterpolation_8cxx.html" target="_top" xlink:title="roofit/histfactory\l/src/PiecewiseInterpolation.cxx">
<polygon fill="#ffffff" stroke="#000000" points="147.5,-.5 147.5,-30.5 315.5,-30.5 315.5,-.5 147.5,-.5"/>
<text text-anchor="start" x="155.5" y="-18.5" font-family="Helvetica,sans-Serif" font-size="10.00" fill="#000000">roofit/histfactory</text>
<text text-anchor="middle" x="231.5" y="-7.5" font-family="Helvetica,sans-Serif" font-size="10.00" fill="#000000">/src/PiecewiseInterpolation.cxx</text>
</a>
</g>
</g>
<!-- Node22&#45;&gt;Node24 -->
<g id="edge2" class="edge">
<title>Node22&#45;&gt;Node24</title>
<path fill="none" stroke="#191970" d="M1787.8407,-81.4547C1535.3008,-77.1963 615.1278,-59.9898 324.5,-31 321.5682,-30.7076 318.5889,-30.3796 315.5833,-30.0226"/>
<polygon fill="#191970" stroke="#191970" points="1787.8967,-84.9561 1797.954,-81.6244 1788.0142,-77.9571 1787.8967,-84.9561"/>
</g>
<!-- Node25 -->
<g id="node4" class="node">
<title>Node25</title>
<g id="a_node4"><a xlink:href="RooBlindTools_8cxx.html" target="_top" xlink:title="roofit/roofit/src/RooBlind\lTools.cxx">
<polygon fill="#ffffff" stroke="#000000" points="333.5,-.5 333.5,-30.5 467.5,-30.5 467.5,-.5 333.5,-.5"/>
<text text-anchor="start" x="341.5" y="-18.5" font-family="Helvetica,sans-Serif" font-size="10.00" fill="#000000">roofit/roofit/src/RooBlind</text>
<text text-anchor="middle" x="400.5" y="-7.5" font-family="Helvetica,sans-Serif" font-size="10.00" fill="#000000">Tools.cxx</text>
</a>
</g>
</g>
<!-- Node22&#45;&gt;Node25 -->
<g id="edge3" class="edge">
<title>Node22&#45;&gt;Node25</title>
<path fill="none" stroke="#191970" d="M1787.6767,-81.4831C1551.1932,-77.5537 735.2299,-62.0135 476.5,-31 473.5585,-30.6474 470.5613,-30.241 467.5397,-29.7925"/>
<polygon fill="#191970" stroke="#191970" points="1787.7792,-84.9852 1797.8356,-81.6507 1787.8947,-77.9861 1787.7792,-84.9852"/>
</g>
<!-- Node26 -->
<g id="node5" class="node">
<title>Node26</title>
<g id="a_node5"><a xlink:href="RooJeffreysPrior_8cxx.html" target="_top" xlink:title="roofit/roofit/src/RooJeffreys\lPrior.cxx">
<polygon fill="#ffffff" stroke="#000000" points="485.5,-.5 485.5,-30.5 631.5,-30.5 631.5,-.5 485.5,-.5"/>
<text text-anchor="start" x="493.5" y="-18.5" font-family="Helvetica,sans-Serif" font-size="10.00" fill="#000000">roofit/roofit/src/RooJeffreys</text>
<text text-anchor="middle" x="558.5" y="-7.5" font-family="Helvetica,sans-Serif" font-size="10.00" fill="#000000">Prior.cxx</text>
</a>
</g>
</g>
<!-- Node22&#45;&gt;Node26 -->
<g id="edge4" class="edge">
<title>Node22&#45;&gt;Node26</title>
<path fill="none" stroke="#191970" d="M1787.5623,-80.9789C1569.6875,-75.6812 865.7801,-56.9406 640.5,-31 637.6214,-30.6685 634.6921,-30.2943 631.7375,-29.8859"/>
<polygon fill="#191970" stroke="#191970" points="1787.7897,-84.4853 1797.8715,-81.2283 1787.9591,-77.4874 1787.7897,-84.4853"/>
</g>
<!-- Node27 -->
<g id="node6" class="node">
<title>Node27</title>
<g id="a_node6"><a xlink:href="RooAbsMoment_8cxx.html" target="_top" xlink:title=" &#160;">
<polygon fill="#ffffff" stroke="#000000" points="649.5,-.5 649.5,-30.5 765.5,-30.5 765.5,-.5 649.5,-.5"/>
<text text-anchor="start" x="657.5" y="-18.5" font-family="Helvetica,sans-Serif" font-size="10.00" fill="#000000">roofit/roofitcore/src</text>
<text text-anchor="middle" x="707.5" y="-7.5" font-family="Helvetica,sans-Serif" font-size="10.00" fill="#000000">/RooAbsMoment.cxx</text>
</a>
</g>
</g>
<!-- Node22&#45;&gt;Node27 -->
<g id="edge5" class="edge">
<title>Node22&#45;&gt;Node27</title>
<path fill="none" stroke="#191970" d="M1787.6376,-80.9304C1586.0208,-75.8103 971.975,-58.3334 774.5,-31 771.6617,-30.6071 768.7666,-30.1517 765.8505,-29.6489"/>
<polygon fill="#191970" stroke="#191970" points="1787.6906,-84.4328 1797.7758,-81.1863 1787.8673,-77.435 1787.6906,-84.4328"/>
</g>
<!-- Node28 -->
<g id="node7" class="node">
<title>Node28</title>
<g id="a_node7"><a xlink:href="RooAbsNumGenerator_8cxx.html" target="_top" xlink:title=" &#160;">
<polygon fill="#ffffff" stroke="#000000" points="784,-.5 784,-30.5 931,-30.5 931,-.5 784,-.5"/>
<text text-anchor="start" x="792" y="-18.5" font-family="Helvetica,sans-Serif" font-size="10.00" fill="#000000">roofit/roofitcore/src</text>
<text text-anchor="middle" x="857.5" y="-7.5" font-family="Helvetica,sans-Serif" font-size="10.00" fill="#000000">/RooAbsNumGenerator.cxx</text>
</a>
</g>
</g>
<!-- Node22&#45;&gt;Node28 -->
<g id="edge6" class="edge">
<title>Node22&#45;&gt;Node28</title>
<path fill="none" stroke="#191970" d="M1787.4121,-81.6848C1637.4917,-79.1835 1256.4469,-69.2617 940.5,-31 937.444,-30.6299 934.3308,-30.2162 931.1904,-29.7686"/>
<polygon fill="#191970" stroke="#191970" points="1787.7478,-85.1906 1797.8029,-81.8524 1787.8607,-78.1915 1787.7478,-85.1906"/>
</g>
<!-- Node29 -->
<g id="node8" class="node">
<title>Node29</title>
<g id="a_node8"><a xlink:href="RooAbsOptTestStatistic_8cxx.html" target="_top" xlink:title=" &#160;">
<polygon fill="#ffffff" stroke="#000000" points="949.5,-.5 949.5,-30.5 1101.5,-30.5 1101.5,-.5 949.5,-.5"/>
<text text-anchor="start" x="957.5" y="-18.5" font-family="Helvetica,sans-Serif" font-size="10.00" fill="#000000">roofit/roofitcore/src</text>
<text text-anchor="middle" x="1025.5" y="-7.5" font-family="Helvetica,sans-Serif" font-size="10.00" fill="#000000">/RooAbsOptTestStatistic.cxx</text>
</a>
</g>
</g>
<!-- Node22&#45;&gt;Node29 -->
<g id="edge7" class="edge">
<title>Node22&#45;&gt;Node29</title>
<path fill="none" stroke="#191970" d="M1787.7195,-80.4245C1658.497,-75.7506 1359.6806,-62.2687 1110.5,-31 1107.6721,-30.6451 1104.7958,-30.2576 1101.8938,-29.8441"/>
<polygon fill="#191970" stroke="#191970" points="1787.7223,-83.9267 1797.8406,-80.785 1787.9715,-76.9312 1787.7223,-83.9267"/>
</g>
<!-- Node30 -->
<g id="node9" class="node">
<title>Node30</title>
<g id="a_node9"><a xlink:href="RooAbsTestStatistic_8cxx.html" target="_top" xlink:title=" &#160;">
<polygon fill="#ffffff" stroke="#000000" points="1120,-.5 1120,-30.5 1255,-30.5 1255,-.5 1120,-.5"/>
<text text-anchor="start" x="1128" y="-18.5" font-family="Helvetica,sans-Serif" font-size="10.00" fill="#000000">roofit/roofitcore/src</text>
<text text-anchor="middle" x="1187.5" y="-7.5" font-family="Helvetica,sans-Serif" font-size="10.00" fill="#000000">/RooAbsTestStatistic.cxx</text>
</a>
</g>
</g>
<!-- Node22&#45;&gt;Node30 -->
<g id="edge8" class="edge">
<title>Node22&#45;&gt;Node30</title>
<path fill="none" stroke="#191970" d="M1787.6987,-79.255C1678.9304,-73.2674 1452.934,-58.5076 1263.5,-31 1260.8347,-30.613 1258.1221,-30.1918 1255.3856,-29.7442"/>
<polygon fill="#191970" stroke="#191970" points="1787.6782,-82.7589 1797.8536,-79.8072 1788.0584,-75.7693 1787.6782,-82.7589"/>
</g>
<!-- Node31 -->
<g id="node10" class="node">
<title>Node31</title>
<g id="a_node10"><a xlink:href="RooAcceptReject_8cxx.html" target="_top" xlink:title=" &#160;">
<polygon fill="#ffffff" stroke="#000000" points="1273,-.5 1273,-30.5 1394,-30.5 1394,-.5 1273,-.5"/>
<text text-anchor="start" x="1281" y="-18.5" font-family="Helvetica,sans-Serif" font-size="10.00" fill="#000000">roofit/roofitcore/src</text>
<text text-anchor="middle" x="1333.5" y="-7.5" font-family="Helvetica,sans-Serif" font-size="10.00" fill="#000000">/RooAcceptReject.cxx</text>
</a>
</g>
</g>
<!-- Node22&#45;&gt;Node31 -->
<g id="edge9" class="edge">
<title>Node22&#45;&gt;Node31</title>
<path fill="none" stroke="#191970" d="M1787.7946,-77.2865C1700.098,-69.7217 1538.7986,-54.0402 1402.5,-31 1399.7156,-30.5293 1396.8746,-30.0181 1394.0096,-29.4774"/>
<polygon fill="#191970" stroke="#191970" points="1787.5972,-80.7823 1797.859,-78.1468 1788.1935,-73.8077 1787.5972,-80.7823"/>
</g>
<!-- Node32 -->
<g id="node11" class="node">
<title>Node32</title>
<g id="a_node11"><a xlink:href="RooAddition_8cxx.html" target="_top" xlink:title=" &#160;">
<polygon fill="#ffffff" stroke="#000000" points="1412,-.5 1412,-30.5 1521,-30.5 1521,-.5 1412,-.5"/>
<text text-anchor="start" x="1420" y="-18.5" font-family="Helvetica,sans-Serif" font-size="10.00" fill="#000000">roofit/roofitcore/src</text>
<text text-anchor="middle" x="1466.5" y="-7.5" font-family="Helvetica,sans-Serif" font-size="10.00" fill="#000000">/RooAddition.cxx</text>
</a>
</g>
</g>
<!-- Node22&#45;&gt;Node32 -->
<g id="edge10" class="edge">
<title>Node22&#45;&gt;Node32</title>
<path fill="none" stroke="#191970" d="M1787.7994,-73.7981C1722.386,-64.6222 1618.5188,-49.015 1529.5,-31 1526.74,-30.4415 1523.9183,-29.8442 1521.0732,-29.2211"/>
<polygon fill="#191970" stroke="#191970" points="1787.5719,-77.3002 1797.9595,-75.2149 1788.5388,-70.3672 1787.5719,-77.3002"/>
</g>
<!-- Node33 -->
<g id="node12" class="node">
<title>Node33</title>
<g id="a_node12"><a xlink:href="RooArgList_8cxx.html" target="_top" xlink:title="roofit/roofitcore/src\l/RooArgList.cxx">
<polygon fill="#ffffff" stroke="#000000" points="1539,-.5 1539,-30.5 1648,-30.5 1648,-.5 1539,-.5"/>
<text text-anchor="start" x="1547" y="-18.5" font-family="Helvetica,sans-Serif" font-size="10.00" fill="#000000">roofit/roofitcore/src</text>
<text text-anchor="middle" x="1593.5" y="-7.5" font-family="Helvetica,sans-Serif" font-size="10.00" fill="#000000">/RooArgList.cxx</text>
</a>
</g>
</g>
<!-- Node22&#45;&gt;Node33 -->
<g id="edge11" class="edge">
<title>Node22&#45;&gt;Node33</title>
<path fill="none" stroke="#191970" d="M1788.0701,-65.8328C1744.9828,-54.6867 1688.911,-40.1816 1648.0361,-29.6078"/>
<polygon fill="#191970" stroke="#191970" points="1787.3313,-69.2568 1797.8892,-68.3729 1789.0845,-62.4799 1787.3313,-69.2568"/>
</g>
<!-- Node34 -->
<g id="node13" class="node">
<title>Node34</title>
<g id="a_node13"><a xlink:href="RooArgSet_8cxx.html" target="_top" xlink:title="roofit/roofitcore/src\l/RooArgSet.cxx">
<polygon fill="#ffffff" stroke="#000000" points="1666,-.5 1666,-30.5 1775,-30.5 1775,-.5 1666,-.5"/>
<text text-anchor="start" x="1674" y="-18.5" font-family="Helvetica,sans-Serif" font-size="10.00" fill="#000000">roofit/roofitcore/src</text>
<text text-anchor="middle" x="1720.5" y="-7.5" font-family="Helvetica,sans-Serif" font-size="10.00" fill="#000000">/RooArgSet.cxx</text>
</a>
</g>
</g>
<!-- Node22&#45;&gt;Node34 -->
<g id="edge12" class="edge">
<title>Node22&#45;&gt;Node34</title>
<path fill="none" stroke="#191970" d="M1813.911,-62.9132C1793.6813,-52.645 1769.2733,-40.2561 1750.4812,-30.7177"/>
<polygon fill="#191970" stroke="#191970" points="1812.3754,-66.0587 1822.8766,-67.4639 1815.5437,-59.8168 1812.3754,-66.0587"/>
</g>
<!-- Node35 -->
<g id="node14" class="node">
<title>Node35</title>
<g id="a_node14"><a xlink:href="RooClassFactory_8cxx.html" target="_top" xlink:title=" &#160;">
<polygon fill="#ffffff" stroke="#000000" points="1793.5,-.5 1793.5,-30.5 1911.5,-30.5 1911.5,-.5 1793.5,-.5"/>
<text text-anchor="start" x="1801.5" y="-18.5" font-family="Helvetica,sans-Serif" font-size="10.00" fill="#000000">roofit/roofitcore/src</text>
<text text-anchor="middle" x="1852.5" y="-7.5" font-family="Helvetica,sans-Serif" font-size="10.00" fill="#000000">/RooClassFactory.cxx</text>
</a>
</g>
</g>
<!-- Node22&#45;&gt;Node35 -->
<g id="edge13" class="edge">
<title>Node22&#45;&gt;Node35</title>
<path fill="none" stroke="#191970" d="M1852.5,-57.0249C1852.5,-48.128 1852.5,-38.4287 1852.5,-30.6432"/>
<polygon fill="#191970" stroke="#191970" points="1849.0001,-57.2966 1852.5,-67.2967 1856.0001,-57.2967 1849.0001,-57.2966"/>
</g>
<!-- Node36 -->
<g id="node15" class="node">
<title>Node36</title>
<g id="a_node15"><a xlink:href="RooConstraintSum_8cxx.html" target="_top" xlink:title=" &#160;">
<polygon fill="#ffffff" stroke="#000000" points="1929.5,-.5 1929.5,-30.5 2059.5,-30.5 2059.5,-.5 1929.5,-.5"/>
<text text-anchor="start" x="1937.5" y="-18.5" font-family="Helvetica,sans-Serif" font-size="10.00" fill="#000000">roofit/roofitcore/src</text>
<text text-anchor="middle" x="1994.5" y="-7.5" font-family="Helvetica,sans-Serif" font-size="10.00" fill="#000000">/RooConstraintSum.cxx</text>
</a>
</g>
</g>
<!-- Node22&#45;&gt;Node36 -->
<g id="edge14" class="edge">
<title>Node22&#45;&gt;Node36</title>
<path fill="none" stroke="#191970" d="M1893.4253,-63.1902C1915.3011,-52.8685 1941.8496,-40.3421 1962.2475,-30.7177"/>
<polygon fill="#191970" stroke="#191970" points="1891.9179,-60.0313 1884.3676,-67.4639 1894.905,-66.362 1891.9179,-60.0313"/>
</g>
<!-- Node37 -->
<g id="node16" class="node">
<title>Node37</title>
<g id="a_node16"><a xlink:href="RooConvGenContext_8cxx.html" target="_top" xlink:title=" &#160;">
<polygon fill="#ffffff" stroke="#000000" points="2077.5,-.5 2077.5,-30.5 2217.5,-30.5 2217.5,-.5 2077.5,-.5"/>
<text text-anchor="start" x="2085.5" y="-18.5" font-family="Helvetica,sans-Serif" font-size="10.00" fill="#000000">roofit/roofitcore/src</text>
<text text-anchor="middle" x="2147.5" y="-7.5" font-family="Helvetica,sans-Serif" font-size="10.00" fill="#000000">/RooConvGenContext.cxx</text>
</a>
</g>
</g>
<!-- Node22&#45;&gt;Node37 -->
<g id="edge15" class="edge">
<title>Node22&#45;&gt;Node37</title>
<path fill="none" stroke="#191970" d="M1917.0937,-67.8296C1965.7852,-56.7708 2032.3281,-41.6577 2081.3859,-30.5157"/>
<polygon fill="#191970" stroke="#191970" points="1916.2723,-64.4269 1907.2959,-70.0548 1917.8227,-71.2531 1916.2723,-64.4269"/>
</g>
<!-- Node38 -->
<g id="node17" class="node">
<title>Node38</title>
<g id="a_node17"><a xlink:href="RooDerivative_8cxx.html" target="_top" xlink:title=" &#160;">
<polygon fill="#ffffff" stroke="#000000" points="2236,-.5 2236,-30.5 2345,-30.5 2345,-.5 2236,-.5"/>
<text text-anchor="start" x="2244" y="-18.5" font-family="Helvetica,sans-Serif" font-size="10.00" fill="#000000">roofit/roofitcore/src</text>
<text text-anchor="middle" x="2290.5" y="-7.5" font-family="Helvetica,sans-Serif" font-size="10.00" fill="#000000">/RooDerivative.cxx</text>
</a>
</g>
</g>
<!-- Node22&#45;&gt;Node38 -->
<g id="edge16" class="edge">
<title>Node22&#45;&gt;Node38</title>
<path fill="none" stroke="#191970" d="M1917.4984,-75.5628C1992.3565,-67.1081 2118.8663,-51.3907 2226.5,-31 2229.5328,-30.4255 2232.6378,-29.7997 2235.766,-29.1399"/>
<polygon fill="#191970" stroke="#191970" points="1916.8337,-72.1153 1907.2857,-76.7074 1917.6134,-79.0718 1916.8337,-72.1153"/>
</g>
<!-- Node39 -->
<g id="node18" class="node">
<title>Node39</title>
<g id="a_node18"><a xlink:href="RooFirstMoment_8cxx.html" target="_top" xlink:title=" &#160;">
<polygon fill="#ffffff" stroke="#000000" points="2363.5,-.5 2363.5,-30.5 2481.5,-30.5 2481.5,-.5 2363.5,-.5"/>
<text text-anchor="start" x="2371.5" y="-18.5" font-family="Helvetica,sans-Serif" font-size="10.00" fill="#000000">roofit/roofitcore/src</text>
<text text-anchor="middle" x="2422.5" y="-7.5" font-family="Helvetica,sans-Serif" font-size="10.00" fill="#000000">/RooFirstMoment.cxx</text>
</a>
</g>
</g>
<!-- Node22&#45;&gt;Node39 -->
<g id="edge17" class="edge">
<title>Node22&#45;&gt;Node39</title>
<path fill="none" stroke="#191970" d="M1917.1385,-78.3989C2013.054,-71.7426 2198.5283,-56.6785 2354.5,-31 2357.3674,-30.5279 2360.2948,-30.0081 2363.2458,-29.4537"/>
<polygon fill="#191970" stroke="#191970" points="1916.7533,-74.917 1907.0163,-79.0932 1917.2323,-81.9006 1916.7533,-74.917"/>
</g>
<!-- Node40 -->
<g id="node19" class="node">
<title>Node40</title>
<g id="a_node19"><a xlink:href="RooFoamGenerator_8cxx.html" target="_top" xlink:title=" &#160;">
<polygon fill="#ffffff" stroke="#000000" points="2500,-.5 2500,-30.5 2633,-30.5 2633,-.5 2500,-.5"/>
<text text-anchor="start" x="2508" y="-18.5" font-family="Helvetica,sans-Serif" font-size="10.00" fill="#000000">roofit/roofitcore/src</text>
<text text-anchor="middle" x="2566.5" y="-7.5" font-family="Helvetica,sans-Serif" font-size="10.00" fill="#000000">/RooFoamGenerator.cxx</text>
</a>
</g>
</g>
<!-- Node22&#45;&gt;Node40 -->
<g id="edge18" class="edge">
<title>Node22&#45;&gt;Node40</title>
<path fill="none" stroke="#191970" d="M1917.4702,-79.8474C2033.1508,-74.5482 2282.2398,-60.5327 2490.5,-31 2493.5665,-30.5651 2496.6955,-30.0833 2499.8509,-29.5665"/>
<polygon fill="#191970" stroke="#191970" points="1917.1974,-76.356 1907.3654,-80.3035 1917.5132,-83.3489 1917.1974,-76.356"/>
</g>
<!-- Node41 -->
<g id="node20" class="node">
<title>Node41</title>
<g id="a_node20"><a xlink:href="RooFracRemainder_8cxx.html" target="_top" xlink:title=" &#160;">
<polygon fill="#ffffff" stroke="#000000" points="2651,-.5 2651,-30.5 2780,-30.5 2780,-.5 2651,-.5"/>
<text text-anchor="start" x="2659" y="-18.5" font-family="Helvetica,sans-Serif" font-size="10.00" fill="#000000">roofit/roofitcore/src</text>
<text text-anchor="middle" x="2715.5" y="-7.5" font-family="Helvetica,sans-Serif" font-size="10.00" fill="#000000">/RooFracRemainder.cxx</text>
</a>
</g>
</g>
<!-- Node22&#45;&gt;Node41 -->
<g id="edge19" class="edge">
<title>Node22&#45;&gt;Node41</title>
<path fill="none" stroke="#191970" d="M1917.5724,-81.4264C2053.0673,-78.4956 2375.1174,-67.9058 2642.5,-31 2645.1952,-30.628 2647.9395,-30.2127 2650.7066,-29.7638"/>
<polygon fill="#191970" stroke="#191970" points="1917.2912,-77.9314 1907.3668,-81.6402 1917.4379,-84.9299 1917.2912,-77.9314"/>
</g>
<!-- Node42 -->
<g id="node21" class="node">
<title>Node42</title>
<g id="a_node21"><a xlink:href="RooGenContext_8cxx.html" target="_top" xlink:title=" &#160;">
<polygon fill="#ffffff" stroke="#000000" points="2798.5,-.5 2798.5,-30.5 2914.5,-30.5 2914.5,-.5 2798.5,-.5"/>
<text text-anchor="start" x="2806.5" y="-18.5" font-family="Helvetica,sans-Serif" font-size="10.00" fill="#000000">roofit/roofitcore/src</text>
<text text-anchor="middle" x="2856.5" y="-7.5" font-family="Helvetica,sans-Serif" font-size="10.00" fill="#000000">/RooGenContext.cxx</text>
</a>
</g>
</g>
<!-- Node22&#45;&gt;Node42 -->
<g id="edge20" class="edge">
<title>Node22&#45;&gt;Node42</title>
<path fill="none" stroke="#191970" d="M1917.1885,-80.3992C2100.4079,-74.2176 2620.5077,-55.0087 2789.5,-31 2792.3369,-30.597 2795.2308,-30.1333 2798.146,-29.6238"/>
<polygon fill="#191970" stroke="#191970" points="1917.0397,-76.9021 1907.1628,-80.7357 1917.2746,-83.8981 1917.0397,-76.9021"/>
</g>
<!-- Node43 -->
<g id="node22" class="node">
<title>Node43</title>
<g id="a_node22"><a xlink:href="RooGenProdProj_8cxx.html" target="_top" xlink:title=" &#160;">
<polygon fill="#ffffff" stroke="#000000" points="2932.5,-.5 2932.5,-30.5 3050.5,-30.5 3050.5,-.5 2932.5,-.5"/>
<text text-anchor="start" x="2940.5" y="-18.5" font-family="Helvetica,sans-Serif" font-size="10.00" fill="#000000">roofit/roofitcore/src</text>
<text text-anchor="middle" x="2991.5" y="-7.5" font-family="Helvetica,sans-Serif" font-size="10.00" fill="#000000">/RooGenProdProj.cxx</text>
</a>
</g>
</g>
<!-- Node22&#45;&gt;Node43 -->
<g id="edge21" class="edge">
<title>Node22&#45;&gt;Node43</title>
<path fill="none" stroke="#191970" d="M1917.2849,-80.8817C2117.9388,-75.6333 2727.3782,-57.8543 2923.5,-31 2926.3791,-30.6058 2929.3161,-30.1492 2932.2747,-29.6455"/>
<polygon fill="#191970" stroke="#191970" points="1917.0993,-77.3853 1907.1937,-81.1441 1917.2813,-84.3829 1917.0993,-77.3853"/>
</g>
<!-- Node44 -->
<g id="node23" class="node">
<title>Node44</title>
<g id="a_node23"><a xlink:href="RooMoment_8cxx.html" target="_top" xlink:title=" &#160;">
<polygon fill="#ffffff" stroke="#000000" points="3069,-.5 3069,-30.5 3178,-30.5 3178,-.5 3069,-.5"/>
<text text-anchor="start" x="3077" y="-18.5" font-family="Helvetica,sans-Serif" font-size="10.00" fill="#000000">roofit/roofitcore/src</text>
<text text-anchor="middle" x="3123.5" y="-7.5" font-family="Helvetica,sans-Serif" font-size="10.00" fill="#000000">/RooMoment.cxx</text>
</a>
</g>
</g>
<!-- Node22&#45;&gt;Node44 -->
<g id="edge22" class="edge">
<title>Node22&#45;&gt;Node44</title>
<path fill="none" stroke="#191970" d="M1917.5975,-81.3959C2135.1785,-77.4431 2836.0064,-62.5241 3059.5,-31 3062.5565,-30.5689 3065.6801,-30.0563 3068.8228,-29.4842"/>
<polygon fill="#191970" stroke="#191970" points="1917.2358,-77.9017 1907.3005,-81.5813 1917.3619,-84.9006 1917.2358,-77.9017"/>
</g>
<!-- Node45 -->
<g id="node24" class="node">
<title>Node45</title>
<g id="a_node24"><a xlink:href="RooProduct_8cxx.html" target="_top" xlink:title=" &#160;">
<polygon fill="#ffffff" stroke="#000000" points="3196,-.5 3196,-30.5 3305,-30.5 3305,-.5 3196,-.5"/>
<text text-anchor="start" x="3204" y="-18.5" font-family="Helvetica,sans-Serif" font-size="10.00" fill="#000000">roofit/roofitcore/src</text>
<text text-anchor="middle" x="3250.5" y="-7.5" font-family="Helvetica,sans-Serif" font-size="10.00" fill="#000000">/RooProduct.cxx</text>
</a>
</g>
</g>
<!-- Node22&#45;&gt;Node45 -->
<g id="edge23" class="edge">
<title>Node22&#45;&gt;Node45</title>
<path fill="none" stroke="#191970" d="M1917.3454,-81.7387C2149.3848,-78.7433 2937.8311,-66.1581 3187.5,-31 3190.2884,-30.6073 3193.133,-30.1436 3195.9963,-29.6263"/>
<polygon fill="#191970" stroke="#191970" points="1916.9993,-78.2428 1907.0448,-81.8701 1917.0886,-85.2422 1916.9993,-78.2428"/>
</g>
<!-- Node46 -->
<g id="node25" class="node">
<title>Node46</title>
<g id="a_node25"><a xlink:href="RooRecursiveFraction_8cxx.html" target="_top" xlink:title=" &#160;">
<polygon fill="#ffffff" stroke="#000000" points="3323,-.5 3323,-30.5 3466,-30.5 3466,-.5 3323,-.5"/>
<text text-anchor="start" x="3331" y="-18.5" font-family="Helvetica,sans-Serif" font-size="10.00" fill="#000000">roofit/roofitcore/src</text>
<text text-anchor="middle" x="3394.5" y="-7.5" font-family="Helvetica,sans-Serif" font-size="10.00" fill="#000000">/RooRecursiveFraction.cxx</text>
</a>
</g>
</g>
<!-- Node22&#45;&gt;Node46 -->
<g id="edge24" class="edge">
<title>Node22&#45;&gt;Node46</title>
<path fill="none" stroke="#191970" d="M1917.2136,-81.5655C2162.8905,-77.809 3037.8929,-62.473 3314.5,-31 3317.1707,-30.6961 3319.8857,-30.352 3322.6236,-29.9752"/>
<polygon fill="#191970" stroke="#191970" points="1916.9661,-78.0688 1907.0204,-81.7203 1917.0724,-85.068 1916.9661,-78.0688"/>
</g>
<!-- Node47 -->
<g id="node26" class="node">
<title>Node47</title>
<g id="a_node26"><a xlink:href="RooSecondMoment_8cxx.html" target="_top" xlink:title=" &#160;">
<polygon fill="#ffffff" stroke="#000000" points="3484,-.5 3484,-30.5 3617,-30.5 3617,-.5 3484,-.5"/>
<text text-anchor="start" x="3492" y="-18.5" font-family="Helvetica,sans-Serif" font-size="10.00" fill="#000000">roofit/roofitcore/src</text>
<text text-anchor="middle" x="3550.5" y="-7.5" font-family="Helvetica,sans-Serif" font-size="10.00" fill="#000000">/RooSecondMoment.cxx</text>
</a>
</g>
</g>
<!-- Node22&#45;&gt;Node47 -->
<g id="edge25" class="edge">
<title>Node22&#45;&gt;Node47</title>
<path fill="none" stroke="#191970" d="M1917.2611,-81.9335C2179.8449,-79.4062 3165.9057,-67.627 3475.5,-31 3478.2728,-30.672 3481.0954,-30.2934 3483.9409,-29.8749"/>
<polygon fill="#191970" stroke="#191970" points="1917.0939,-78.4348 1907.1276,-82.0298 1917.1605,-85.4345 1917.0939,-78.4348"/>
</g>
</g>
</svg>
        <g id="navigator" transform="translate(0 0)" fill="#404254">
                <rect fill="#f2f5e9" fill-opacity="0.5" stroke="#606060" stroke-width=".5" x="0" y="0" width="60" height="60"/>
                <use id="zoomplus" xlink:href="#zoomPlus" x="17" y="9" onmousedown="handleZoom(evt,'in')"/>
                <use id="zoomminus" xlink:href="#zoomMin" x="42" y="9" onmousedown="handleZoom(evt,'out')"/>
                <use id="reset" xlink:href="#resetDef" x="30" y="36" onmousedown="handleReset()"/>
                <g id="arrowUp" xlink:href="#dirArrow" transform="translate(30 24)" onmousedown="handlePan(0,-1)">
                  <use xlink:href="#rim" fill="#404040">
                        <set attributeName="fill" to="#808080" begin="arrowUp.mouseover" end="arrowUp.mouseout"/>
                  </use>
                  <path fill="none" stroke="white" stroke-width="1.5" d="M0,-3.0v7 M-2.5,-0.5L0,-3.0L2.5,-0.5"/>
                </g>
                <g id="arrowRight" xlink:href="#dirArrow" transform="rotate(90) translate(36 -43)" onmousedown="handlePan(1,0)">
                  <use xlink:href="#rim" fill="#404040">
                        <set attributeName="fill" to="#808080" begin="arrowRight.mouseover" end="arrowRight.mouseout"/>
                  </use>
                  <path fill="none" stroke="white" stroke-width="1.5" d="M0,-3.0v7 M-2.5,-0.5L0,-3.0L2.5,-0.5"/>
                </g>
                <g id="arrowDown" xlink:href="#dirArrow" transform="rotate(180) translate(-30 -48)" onmousedown="handlePan(0,1)">
                  <use xlink:href="#rim" fill="#404040">
                        <set attributeName="fill" to="#808080" begin="arrowDown.mouseover" end="arrowDown.mouseout"/>
                  </use>
                  <path fill="none" stroke="white" stroke-width="1.5" d="M0,-3.0v7 M-2.5,-0.5L0,-3.0L2.5,-0.5"/>
                </g>
                <g id="arrowLeft" xlink:href="#dirArrow" transform="rotate(270) translate(-36 17)" onmousedown="handlePan(-1,0)">
                  <use xlink:href="#rim" fill="#404040">
                        <set attributeName="fill" to="#808080" begin="arrowLeft.mouseover" end="arrowLeft.mouseout"/>
                  </use>
                  <path fill="none" stroke="white" stroke-width="1.5" d="M0,-3.0v7 M-2.5,-0.5L0,-3.0L2.5,-0.5"/>
                </g>
        </g>
        <svg viewBox="0 0 15 15" width="100%" height="30px" preserveAspectRatio="xMaxYMin meet">
         <g id="arrow_out" transform="scale(0.3 0.3)">
          <a xlink:href="RooErrorHandler_8h__dep__incl_org.svg" target="_base">
           <rect id="button" ry="5" rx="5" y="6" x="6" height="38" width="38"
                fill="#f2f5e9" fill-opacity="0.5" stroke="#606060" stroke-width="1.0"/>
           <path id="arrow"
             d="M 11.500037,31.436501 C 11.940474,20.09759 22.043105,11.32322 32.158766,21.979434 L 37.068811,17.246167 C 37.068811,17.246167 37.088388,32 37.088388,32 L 22.160133,31.978069 C 22.160133,31.978069 26.997745,27.140456 26.997745,27.140456 C 18.528582,18.264221 13.291696,25.230495 11.500037,31.436501 z"
             style="fill:#404040;"/>
          </a>
         </g>
        </svg>
</svg>
