<?xml version="1.0" encoding="UTF-8" standalone="no"?>
<!DOCTYPE svg PUBLIC "-//W3C//DTD SVG 1.1//EN"
 "http://www.w3.org/Graphics/SVG/1.1/DTD/svg11.dtd">
<!-- Generated by graphviz version 2.40.1 (0)
 -->
<!-- Title: roofit/roofitcore/inc/RooMinimizerFcn.h Pages: 1 -->
<!--zoomable 184 -->
<svg id="main" version="1.1" xmlns="http://www.w3.org/2000/svg" xmlns:xlink="http://www.w3.org/1999/xlink" xml:space="preserve" onload="init(evt)">
<style type="text/css"><![CDATA[
.edge:hover path { stroke: red; }
.edge:hover polygon { stroke: red; fill: red; }
]]></style>
<script type="text/javascript"><![CDATA[
var edges = document.getElementsByTagName('g');
if (edges && edges.length) {
  for (var i=0;i<edges.length;i++) {
    if (edges[i].id.substr(0,4)=='edge') {
      edges[i].setAttribute('class','edge');
    }
  }
}
]]></script>
        <defs>
                <circle id="rim" cx="0" cy="0" r="7"/>
                <circle id="rim2" cx="0" cy="0" r="3.5"/>
                <g id="zoomPlus">
                        <use xlink:href="#rim" fill="#404040">
                                <set attributeName="fill" to="#808080" begin="zoomplus.mouseover" end="zoomplus.mouseout"/>
                        </use>
                        <path d="M-4,0h8M0,-4v8" fill="none" stroke="white" stroke-width="1.5" pointer-events="none"/>
                </g>
                <g id="zoomMin">
                        <use xlink:href="#rim" fill="#404040">
                                <set attributeName="fill" to="#808080" begin="zoomminus.mouseover" end="zoomminus.mouseout"/>
                        </use>
                        <path d="M-4,0h8" fill="none" stroke="white" stroke-width="1.5" pointer-events="none"/>
                </g>
                <g id="dirArrow">
                        <path fill="none" stroke="white" stroke-width="1.5" d="M0,-3.0v7 M-2.5,-0.5L0,-3.0L2.5,-0.5"/>
                </g>
               <g id="resetDef">
                       <use xlink:href="#rim2" fill="#404040">
                               <set attributeName="fill" to="#808080" begin="reset.mouseover" end="reset.mouseout"/>
                       </use>
               </g>
        </defs>

<script type="text/javascript">
var viewWidth = 1807;
var viewHeight = 184;
var sectionId = 'dynsection-1';
</script>
<script xlink:href="svgpan.js"/>
<svg id="graph" class="graph">
<g id="viewport">
<title>roofit/roofitcore/inc/RooMinimizerFcn.h</title>
<polygon fill="#ffffff" stroke="transparent" points="-4,4 -4,-180 1803,-180 1803,4 -4,4"/>
<!-- Node117 -->
<g id="node1" class="node">
<title>Node117</title>
<polygon fill="#bfbfbf" stroke="#000000" points="320.5,-145.5 320.5,-175.5 431.5,-175.5 431.5,-145.5 320.5,-145.5"/>
<text text-anchor="start" x="328.5" y="-163.5" font-family="Helvetica,sans-Serif" font-size="10.00" fill="#000000">roofit/roofitcore/inc</text>
<text text-anchor="middle" x="376" y="-152.5" font-family="Helvetica,sans-Serif" font-size="10.00" fill="#000000">/RooMinimizerFcn.h</text>
</g>
<!-- Node118 -->
<g id="node2" class="node">
<title>Node118</title>
<g id="a_node2"><a xlink:href="RooMinimizer_8h.html" target="_top" xlink:title="roofit/roofitcore/inc\l/RooMinimizer.h">
<polygon fill="#ffffff" stroke="#000000" points="637.5,-78.5 637.5,-108.5 746.5,-108.5 746.5,-78.5 637.5,-78.5"/>
<text text-anchor="start" x="645.5" y="-96.5" font-family="Helvetica,sans-Serif" font-size="10.00" fill="#000000">roofit/roofitcore/inc</text>
<text text-anchor="middle" x="692" y="-85.5" font-family="Helvetica,sans-Serif" font-size="10.00" fill="#000000">/RooMinimizer.h</text>
</a>
</g>
</g>
<!-- Node117&#45;&gt;Node118 -->
<g id="edge1" class="edge">
<title>Node117&#45;&gt;Node118</title>
<path fill="none" stroke="#191970" d="M441.5504,-146.6017C499.4609,-134.3232 582.9326,-116.6251 637.3192,-105.0937"/>
<polygon fill="#191970" stroke="#191970" points="440.8236,-143.1779 431.7671,-148.676 442.2756,-150.0256 440.8236,-143.1779"/>
</g>
<!-- Node123 -->
<g id="node7" class="node">
<title>Node123</title>
<g id="a_node7"><a xlink:href="RooMinimizerFcn_8cxx.html" target="_top" xlink:title="roofit/roofitcore/src\l/RooMinimizerFcn.cxx">
<polygon fill="#ffffff" stroke="#000000" points="0,-6 0,-36 122,-36 122,-6 0,-6"/>
<text text-anchor="start" x="8" y="-24" font-family="Helvetica,sans-Serif" font-size="10.00" fill="#000000">roofit/roofitcore/src</text>
<text text-anchor="middle" x="61" y="-13" font-family="Helvetica,sans-Serif" font-size="10.00" fill="#000000">/RooMinimizerFcn.cxx</text>
</a>
</g>
</g>
<!-- Node117&#45;&gt;Node123 -->
<g id="edge14" class="edge">
<title>Node117&#45;&gt;Node123</title>
<path fill="none" stroke="#191970" d="M332.6847,-141.3175C269.4362,-113.3075 153.0745,-61.7758 95.3454,-36.2101"/>
<polygon fill="#191970" stroke="#191970" points="331.4294,-144.5894 341.9902,-145.4385 334.264,-138.189 331.4294,-144.5894"/>
</g>
<!-- Node119 -->
<g id="node3" class="node">
<title>Node119</title>
<g id="a_node3"><a xlink:href="Helper_8cxx.html" target="_top" xlink:title="roofit/histfactory\l/src/Helper.cxx">
<polygon fill="#ffffff" stroke="#000000" points="140,-6 140,-36 238,-36 238,-6 140,-6"/>
<text text-anchor="start" x="148" y="-24" font-family="Helvetica,sans-Serif" font-size="10.00" fill="#000000">roofit/histfactory</text>
<text text-anchor="middle" x="189" y="-13" font-family="Helvetica,sans-Serif" font-size="10.00" fill="#000000">/src/Helper.cxx</text>
</a>
</g>
</g>
<!-- Node118&#45;&gt;Node119 -->
<g id="edge2" class="edge">
<title>Node118&#45;&gt;Node119</title>
<path fill="none" stroke="#191970" d="M627.3224,-90.5892C540.1775,-85.6296 380.6791,-72.8858 248,-42 241.2228,-40.4224 234.1467,-38.321 227.3447,-36.0565"/>
<polygon fill="#191970" stroke="#191970" points="627.1491,-94.0848 637.3271,-91.1423 627.5356,-87.0955 627.1491,-94.0848"/>
</g>
<!-- Node120 -->
<g id="node4" class="node">
<title>Node120</title>
<g id="a_node4"><a xlink:href="RooAbsPdf_8cxx.html" target="_top" xlink:title="roofit/roofitcore/src\l/RooAbsPdf.cxx">
<polygon fill="#ffffff" stroke="#000000" points="256.5,-6 256.5,-36 365.5,-36 365.5,-6 256.5,-6"/>
<text text-anchor="start" x="264.5" y="-24" font-family="Helvetica,sans-Serif" font-size="10.00" fill="#000000">roofit/roofitcore/src</text>
<text text-anchor="middle" x="311" y="-13" font-family="Helvetica,sans-Serif" font-size="10.00" fill="#000000">/RooAbsPdf.cxx</text>
</a>
</g>
</g>
<!-- Node118&#45;&gt;Node120 -->
<g id="edge3" class="edge">
<title>Node118&#45;&gt;Node120</title>
<path fill="none" stroke="#191970" d="M627.3333,-85.9986C562.8519,-77.8172 461.2568,-63.0221 375,-42 368.0695,-40.3109 360.8081,-38.2345 353.7669,-36.0512"/>
<polygon fill="#191970" stroke="#191970" points="626.9978,-89.4838 637.3555,-87.2548 627.8685,-82.5382 626.9978,-89.4838"/>
</g>
<!-- Node121 -->
<g id="node5" class="node">
<title>Node121</title>
<g id="a_node5"><a xlink:href="RooAbsReal_8cxx.html" target="_top" xlink:title="roofit/roofitcore/src\l/RooAbsReal.cxx">
<polygon fill="#ffffff" stroke="#000000" points="383.5,-6 383.5,-36 492.5,-36 492.5,-6 383.5,-6"/>
<text text-anchor="start" x="391.5" y="-24" font-family="Helvetica,sans-Serif" font-size="10.00" fill="#000000">roofit/roofitcore/src</text>
<text text-anchor="middle" x="438" y="-13" font-family="Helvetica,sans-Serif" font-size="10.00" fill="#000000">/RooAbsReal.cxx</text>
</a>
</g>
</g>
<!-- Node118&#45;&gt;Node121 -->
<g id="edge4" class="edge">
<title>Node118&#45;&gt;Node121</title>
<path fill="none" stroke="#191970" d="M627.2105,-76.8382C590.368,-67.1388 543.449,-54.4084 502,-42 495.8385,-40.1555 489.3704,-38.1342 483.0119,-36.0972"/>
<polygon fill="#191970" stroke="#191970" points="626.761,-80.3386 637.3219,-79.4907 628.5373,-73.5677 626.761,-80.3386"/>
</g>
<!-- Node122 -->
<g id="node6" class="node">
<title>Node122</title>
<g id="a_node6"><a xlink:href="RooMinimizer_8cxx.html" target="_top" xlink:title=" &#160;">
<polygon fill="#ffffff" stroke="#000000" points="510.5,-6 510.5,-36 619.5,-36 619.5,-6 510.5,-6"/>
<text text-anchor="start" x="518.5" y="-24" font-family="Helvetica,sans-Serif" font-size="10.00" fill="#000000">roofit/roofitcore/src</text>
<text text-anchor="middle" x="565" y="-13" font-family="Helvetica,sans-Serif" font-size="10.00" fill="#000000">/RooMinimizer.cxx</text>
</a>
</g>
</g>
<!-- Node118&#45;&gt;Node122 -->
<g id="edge5" class="edge">
<title>Node118&#45;&gt;Node122</title>
<path fill="none" stroke="#191970" d="M656.8452,-73.4313C636.0932,-61.5847 610.2593,-46.837 591.2808,-36.0028"/>
<polygon fill="#191970" stroke="#191970" points="655.2658,-76.5598 665.6855,-78.478 658.7362,-70.4806 655.2658,-76.5598"/>
</g>
<!-- Node118&#45;&gt;Node123 -->
<g id="edge6" class="edge">
<title>Node118&#45;&gt;Node123</title>
<path fill="none" stroke="#191970" d="M627.2059,-91.7508C522.1436,-87.9782 308.4832,-76.4097 131,-42 122.9036,-40.4303 114.4059,-38.3039 106.2326,-36.0047"/>
<polygon fill="#191970" stroke="#191970" points="627.2195,-95.2533 637.3349,-92.1023 627.4623,-88.2575 627.2195,-95.2533"/>
</g>
<!-- Node124 -->
<g id="node8" class="node">
<title>Node124</title>
<g id="a_node8"><a xlink:href="RooProfileLL_8cxx.html" target="_top" xlink:title=" &#160;">
<polygon fill="#ffffff" stroke="#000000" points="637.5,-6 637.5,-36 746.5,-36 746.5,-6 637.5,-6"/>
<text text-anchor="start" x="645.5" y="-24" font-family="Helvetica,sans-Serif" font-size="10.00" fill="#000000">roofit/roofitcore/src</text>
<text text-anchor="middle" x="692" y="-13" font-family="Helvetica,sans-Serif" font-size="10.00" fill="#000000">/RooProfileLL.cxx</text>
</a>
</g>
</g>
<!-- Node118&#45;&gt;Node124 -->
<g id="edge7" class="edge">
<title>Node118&#45;&gt;Node124</title>
<path fill="none" stroke="#191970" d="M692,-68.3409C692,-57.5601 692,-45.3309 692,-36.0028"/>
<polygon fill="#191970" stroke="#191970" points="688.5001,-68.4779 692,-78.478 695.5001,-68.478 688.5001,-68.4779"/>
</g>
<!-- Node125 -->
<g id="node9" class="node">
<title>Node125</title>
<g id="a_node9"><a xlink:href="MaxLikelihoodEstimateTestStat_8h.html" target="_top" xlink:title="roofit/roostats/inc\l/RooStats/MaxLikelihoodEstimate\lTestStat.h">
<polygon fill="#ffffff" stroke="#000000" points="764.5,-.5 764.5,-41.5 943.5,-41.5 943.5,-.5 764.5,-.5"/>
<text text-anchor="start" x="772.5" y="-29.5" font-family="Helvetica,sans-Serif" font-size="10.00" fill="#000000">roofit/roostats/inc</text>
<text text-anchor="start" x="772.5" y="-18.5" font-family="Helvetica,sans-Serif" font-size="10.00" fill="#000000">/RooStats/MaxLikelihoodEstimate</text>
<text text-anchor="middle" x="854" y="-7.5" font-family="Helvetica,sans-Serif" font-size="10.00" fill="#000000">TestStat.h</text>
</a>
</g>
</g>
<!-- Node118&#45;&gt;Node125 -->
<g id="edge8" class="edge">
<title>Node118&#45;&gt;Node125</title>
<path fill="none" stroke="#191970" d="M734.9035,-74.2993C757.4877,-64.1923 785.1884,-51.7953 808.1897,-41.5015"/>
<polygon fill="#191970" stroke="#191970" points="733.2644,-71.1983 725.5665,-78.478 736.1239,-77.5877 733.2644,-71.1983"/>
</g>
<!-- Node126 -->
<g id="node10" class="node">
<title>Node126</title>
<g id="a_node10"><a xlink:href="MinNLLTestStat_8h.html" target="_top" xlink:title="roofit/roostats/inc\l/RooStats/MinNLLTestStat.h">
<polygon fill="#ffffff" stroke="#000000" points="961.5,-6 961.5,-36 1108.5,-36 1108.5,-6 961.5,-6"/>
<text text-anchor="start" x="969.5" y="-24" font-family="Helvetica,sans-Serif" font-size="10.00" fill="#000000">roofit/roostats/inc</text>
<text text-anchor="middle" x="1035" y="-13" font-family="Helvetica,sans-Serif" font-size="10.00" fill="#000000">/RooStats/MinNLLTestStat.h</text>
</a>
</g>
</g>
<!-- Node118&#45;&gt;Node126 -->
<g id="edge9" class="edge">
<title>Node118&#45;&gt;Node126</title>
<path fill="none" stroke="#191970" d="M756.6061,-81.792C809.554,-71.9473 886.3497,-57.0977 953,-42 961.0262,-40.1819 969.4647,-38.1543 977.7511,-36.0959"/>
<polygon fill="#191970" stroke="#191970" points="755.8702,-78.3687 746.6751,-83.6318 757.1453,-85.2516 755.8702,-78.3687"/>
</g>
<!-- Node127 -->
<g id="node11" class="node">
<title>Node127</title>
<g id="a_node11"><a xlink:href="AsymptoticCalculator_8cxx.html" target="_top" xlink:title="roofit/roostats/src\l/AsymptoticCalculator.cxx">
<polygon fill="#ffffff" stroke="#000000" points="1127,-6 1127,-36 1271,-36 1271,-6 1127,-6"/>
<text text-anchor="start" x="1135" y="-24" font-family="Helvetica,sans-Serif" font-size="10.00" fill="#000000">roofit/roostats/src</text>
<text text-anchor="middle" x="1199" y="-13" font-family="Helvetica,sans-Serif" font-size="10.00" fill="#000000">/AsymptoticCalculator.cxx</text>
</a>
</g>
</g>
<!-- Node118&#45;&gt;Node127 -->
<g id="edge10" class="edge">
<title>Node118&#45;&gt;Node127</title>
<path fill="none" stroke="#191970" d="M756.9723,-88.3596C840.8672,-81.1026 991.1673,-65.9969 1118,-42 1126.85,-40.3256 1136.1643,-38.2304 1145.1989,-36.0166"/>
<polygon fill="#191970" stroke="#191970" points="756.4934,-84.8877 746.8279,-89.2268 757.0897,-91.8623 756.4934,-84.8877"/>
</g>
<!-- Node128 -->
<g id="node12" class="node">
<title>Node128</title>
<g id="a_node12"><a xlink:href="FrequentistCalculator_8cxx.html" target="_top" xlink:title="roofit/roostats/src\l/FrequentistCalculator.cxx">
<polygon fill="#ffffff" stroke="#000000" points="1289.5,-6 1289.5,-36 1432.5,-36 1432.5,-6 1289.5,-6"/>
<text text-anchor="start" x="1297.5" y="-24" font-family="Helvetica,sans-Serif" font-size="10.00" fill="#000000">roofit/roostats/src</text>
<text text-anchor="middle" x="1361" y="-13" font-family="Helvetica,sans-Serif" font-size="10.00" fill="#000000">/FrequentistCalculator.cxx</text>
</a>
</g>
</g>
<!-- Node118&#45;&gt;Node128 -->
<g id="edge11" class="edge">
<title>Node118&#45;&gt;Node128</title>
<path fill="none" stroke="#191970" d="M756.8651,-91.3434C865.7016,-86.9396 1091.6733,-74.428 1280,-42 1289.1627,-40.4223 1298.8066,-38.3209 1308.1183,-36.0563"/>
<polygon fill="#191970" stroke="#191970" points="756.5574,-87.8528 746.7034,-91.7447 756.8337,-94.8473 756.5574,-87.8528"/>
</g>
<!-- Node129 -->
<g id="node13" class="node">
<title>Node129</title>
<g id="a_node13"><a xlink:href="ProfileLikelihoodCalculator_8cxx.html" target="_top" xlink:title="roofit/roostats/src\l/ProfileLikelihoodCalculator.cxx">
<polygon fill="#ffffff" stroke="#000000" points="1451,-6 1451,-36 1621,-36 1621,-6 1451,-6"/>
<text text-anchor="start" x="1459" y="-24" font-family="Helvetica,sans-Serif" font-size="10.00" fill="#000000">roofit/roostats/src</text>
<text text-anchor="middle" x="1536" y="-13" font-family="Helvetica,sans-Serif" font-size="10.00" fill="#000000">/ProfileLikelihoodCalculator.cxx</text>
</a>
</g>
</g>
<!-- Node118&#45;&gt;Node129 -->
<g id="edge12" class="edge">
<title>Node118&#45;&gt;Node129</title>
<path fill="none" stroke="#191970" d="M757.1048,-92.337C887.6603,-89.2772 1190.4896,-78.5154 1442,-42 1452.7564,-40.4383 1464.1105,-38.3159 1475.0655,-36.0181"/>
<polygon fill="#191970" stroke="#191970" points="756.7994,-88.8429 746.8814,-92.569 756.9583,-95.8411 756.7994,-88.8429"/>
</g>
<!-- Node130 -->
<g id="node14" class="node">
<title>Node130</title>
<g id="a_node14"><a xlink:href="ProfileLikelihoodTestStat_8cxx.html" target="_top" xlink:title="roofit/roostats/src\l/ProfileLikelihoodTestStat.cxx">
<polygon fill="#ffffff" stroke="#000000" points="1639,-6 1639,-36 1799,-36 1799,-6 1639,-6"/>
<text text-anchor="start" x="1647" y="-24" font-family="Helvetica,sans-Serif" font-size="10.00" fill="#000000">roofit/roostats/src</text>
<text text-anchor="middle" x="1719" y="-13" font-family="Helvetica,sans-Serif" font-size="10.00" fill="#000000">/ProfileLikelihoodTestStat.cxx</text>
</a>
</g>
</g>
<!-- Node118&#45;&gt;Node130 -->
<g id="edge13" class="edge">
<title>Node118&#45;&gt;Node130</title>
<path fill="none" stroke="#191970" d="M756.7627,-91.4377C940.1916,-85.3593 1460.8802,-66.3992 1630,-42 1640.3706,-40.5038 1651.3094,-38.3833 1661.8342,-36.0598"/>
<polygon fill="#191970" stroke="#191970" points="756.6048,-87.941 746.7256,-91.7686 756.8355,-94.9372 756.6048,-87.941"/>
</g>
</g>
</svg>
        <g id="navigator" transform="translate(0 0)" fill="#404254">
                <rect fill="#f2f5e9" fill-opacity="0.5" stroke="#606060" stroke-width=".5" x="0" y="0" width="60" height="60"/>
                <use id="zoomplus" xlink:href="#zoomPlus" x="17" y="9" onmousedown="handleZoom(evt,'in')"/>
                <use id="zoomminus" xlink:href="#zoomMin" x="42" y="9" onmousedown="handleZoom(evt,'out')"/>
                <use id="reset" xlink:href="#resetDef" x="30" y="36" onmousedown="handleReset()"/>
                <g id="arrowUp" xlink:href="#dirArrow" transform="translate(30 24)" onmousedown="handlePan(0,-1)">
                  <use xlink:href="#rim" fill="#404040">
                        <set attributeName="fill" to="#808080" begin="arrowUp.mouseover" end="arrowUp.mouseout"/>
                  </use>
                  <path fill="none" stroke="white" stroke-width="1.5" d="M0,-3.0v7 M-2.5,-0.5L0,-3.0L2.5,-0.5"/>
                </g>
                <g id="arrowRight" xlink:href="#dirArrow" transform="rotate(90) translate(36 -43)" onmousedown="handlePan(1,0)">
                  <use xlink:href="#rim" fill="#404040">
                        <set attributeName="fill" to="#808080" begin="arrowRight.mouseover" end="arrowRight.mouseout"/>
                  </use>
                  <path fill="none" stroke="white" stroke-width="1.5" d="M0,-3.0v7 M-2.5,-0.5L0,-3.0L2.5,-0.5"/>
                </g>
                <g id="arrowDown" xlink:href="#dirArrow" transform="rotate(180) translate(-30 -48)" onmousedown="handlePan(0,1)">
                  <use xlink:href="#rim" fill="#404040">
                        <set attributeName="fill" to="#808080" begin="arrowDown.mouseover" end="arrowDown.mouseout"/>
                  </use>
                  <path fill="none" stroke="white" stroke-width="1.5" d="M0,-3.0v7 M-2.5,-0.5L0,-3.0L2.5,-0.5"/>
                </g>
                <g id="arrowLeft" xlink:href="#dirArrow" transform="rotate(270) translate(-36 17)" onmousedown="handlePan(-1,0)">
                  <use xlink:href="#rim" fill="#404040">
                        <set attributeName="fill" to="#808080" begin="arrowLeft.mouseover" end="arrowLeft.mouseout"/>
                  </use>
                  <path fill="none" stroke="white" stroke-width="1.5" d="M0,-3.0v7 M-2.5,-0.5L0,-3.0L2.5,-0.5"/>
                </g>
        </g>
        <svg viewBox="0 0 15 15" width="100%" height="30px" preserveAspectRatio="xMaxYMin meet">
         <g id="arrow_out" transform="scale(0.3 0.3)">
          <a xlink:href="RooMinimizerFcn_8h__dep__incl_org.svg" target="_base">
           <rect id="button" ry="5" rx="5" y="6" x="6" height="38" width="38"
                fill="#f2f5e9" fill-opacity="0.5" stroke="#606060" stroke-width="1.0"/>
           <path id="arrow"
             d="M 11.500037,31.436501 C 11.940474,20.09759 22.043105,11.32322 32.158766,21.979434 L 37.068811,17.246167 C 37.068811,17.246167 37.088388,32 37.088388,32 L 22.160133,31.978069 C 22.160133,31.978069 26.997745,27.140456 26.997745,27.140456 C 18.528582,18.264221 13.291696,25.230495 11.500037,31.436501 z"
             style="fill:#404040;"/>
          </a>
         </g>
        </svg>
</svg>
