<?xml version="1.0" encoding="UTF-8" standalone="no"?>
<!DOCTYPE svg PUBLIC "-//W3C//DTD SVG 1.1//EN"
 "http://www.w3.org/Graphics/SVG/1.1/DTD/svg11.dtd">
<!-- Generated by graphviz version 2.40.1 (0)
 -->
<!-- Title: roofit/roofitcore/inc/RooRealSumPdf.h Pages: 1 -->
<!--zoomable 117 -->
<svg id="main" version="1.1" xmlns="http://www.w3.org/2000/svg" xmlns:xlink="http://www.w3.org/1999/xlink" xml:space="preserve" onload="init(evt)">
<style type="text/css"><![CDATA[
.edge:hover path { stroke: red; }
.edge:hover polygon { stroke: red; fill: red; }
]]></style>
<script type="text/javascript"><![CDATA[
var edges = document.getElementsByTagName('g');
if (edges && edges.length) {
  for (var i=0;i<edges.length;i++) {
    if (edges[i].id.substr(0,4)=='edge') {
      edges[i].setAttribute('class','edge');
    }
  }
}
]]></script>
        <defs>
                <circle id="rim" cx="0" cy="0" r="7"/>
                <circle id="rim2" cx="0" cy="0" r="3.5"/>
                <g id="zoomPlus">
                        <use xlink:href="#rim" fill="#404040">
                                <set attributeName="fill" to="#808080" begin="zoomplus.mouseover" end="zoomplus.mouseout"/>
                        </use>
                        <path d="M-4,0h8M0,-4v8" fill="none" stroke="white" stroke-width="1.5" pointer-events="none"/>
                </g>
                <g id="zoomMin">
                        <use xlink:href="#rim" fill="#404040">
                                <set attributeName="fill" to="#808080" begin="zoomminus.mouseover" end="zoomminus.mouseout"/>
                        </use>
                        <path d="M-4,0h8" fill="none" stroke="white" stroke-width="1.5" pointer-events="none"/>
                </g>
                <g id="dirArrow">
                        <path fill="none" stroke="white" stroke-width="1.5" d="M0,-3.0v7 M-2.5,-0.5L0,-3.0L2.5,-0.5"/>
                </g>
               <g id="resetDef">
                       <use xlink:href="#rim2" fill="#404040">
                               <set attributeName="fill" to="#808080" begin="reset.mouseover" end="reset.mouseout"/>
                       </use>
               </g>
        </defs>

<script type="text/javascript">
var viewWidth = 1085;
var viewHeight = 117;
var sectionId = 'dynsection-1';
</script>
<script xlink:href="svgpan.js"/>
<svg id="graph" class="graph">
<g id="viewport">
<title>roofit/roofitcore/inc/RooRealSumPdf.h</title>
<polygon fill="#ffffff" stroke="transparent" points="-4,4 -4,-113 1080.5,-113 1080.5,4 -4,4"/>
<!-- Node106 -->
<g id="node1" class="node">
<title>Node106</title>
<polygon fill="#bfbfbf" stroke="#000000" points="546,-78.5 546,-108.5 655,-108.5 655,-78.5 546,-78.5"/>
<text text-anchor="start" x="554" y="-96.5" font-family="Helvetica,sans-Serif" font-size="10.00" fill="#000000">roofit/roofitcore/inc</text>
<text text-anchor="middle" x="600.5" y="-85.5" font-family="Helvetica,sans-Serif" font-size="10.00" fill="#000000">/RooRealSumPdf.h</text>
</g>
<!-- Node107 -->
<g id="node2" class="node">
<title>Node107</title>
<g id="a_node2"><a xlink:href="HistFactoryNavigation_8cxx.html" target="_top" xlink:title="roofit/histfactory\l/src/HistFactoryNavigation.cxx">
<polygon fill="#ffffff" stroke="#000000" points="0,-6 0,-36 165,-36 165,-6 0,-6"/>
<text text-anchor="start" x="8" y="-24" font-family="Helvetica,sans-Serif" font-size="10.00" fill="#000000">roofit/histfactory</text>
<text text-anchor="middle" x="82.5" y="-13" font-family="Helvetica,sans-Serif" font-size="10.00" fill="#000000">/src/HistFactoryNavigation.cxx</text>
</a>
</g>
</g>
<!-- Node106&#45;&gt;Node107 -->
<g id="edge1" class="edge">
<title>Node106&#45;&gt;Node107</title>
<path fill="none" stroke="#191970" d="M535.821,-87.868C451.9011,-80.0651 301.1175,-64.3552 173.5,-42 163.7579,-40.2934 153.4917,-38.2078 143.5044,-36.0207"/>
<polygon fill="#191970" stroke="#191970" points="535.6872,-91.3704 545.9662,-88.803 536.3297,-84.4 535.6872,-91.3704"/>
</g>
<!-- Node108 -->
<g id="node3" class="node">
<title>Node108</title>
<g id="a_node3"><a xlink:href="HistoToWorkspaceFactoryFast_8cxx.html" target="_top" xlink:title="roofit/histfactory\l/src/HistoToWorkspaceFactory\lFast.cxx">
<polygon fill="#ffffff" stroke="#000000" points="183,-.5 183,-41.5 344,-41.5 344,-.5 183,-.5"/>
<text text-anchor="start" x="191" y="-29.5" font-family="Helvetica,sans-Serif" font-size="10.00" fill="#000000">roofit/histfactory</text>
<text text-anchor="start" x="191" y="-18.5" font-family="Helvetica,sans-Serif" font-size="10.00" fill="#000000">/src/HistoToWorkspaceFactory</text>
<text text-anchor="middle" x="263.5" y="-7.5" font-family="Helvetica,sans-Serif" font-size="10.00" fill="#000000">Fast.cxx</text>
</a>
</g>
</g>
<!-- Node106&#45;&gt;Node108 -->
<g id="edge2" class="edge">
<title>Node106&#45;&gt;Node108</title>
<path fill="none" stroke="#191970" d="M535.9657,-80.4798C486.0769,-70.3092 415.3251,-55.6562 353.5,-42 350.5233,-41.3425 347.4926,-40.6669 344.4325,-39.9795"/>
<polygon fill="#191970" stroke="#191970" points="535.4728,-83.9512 545.97,-82.5163 536.8691,-77.0919 535.4728,-83.9512"/>
</g>
<!-- Node109 -->
<g id="node4" class="node">
<title>Node109</title>
<g id="a_node4"><a xlink:href="RooAbsOptTestStatistic_8cxx.html" target="_top" xlink:title=" &#160;">
<polygon fill="#ffffff" stroke="#000000" points="362.5,-6 362.5,-36 514.5,-36 514.5,-6 362.5,-6"/>
<text text-anchor="start" x="370.5" y="-24" font-family="Helvetica,sans-Serif" font-size="10.00" fill="#000000">roofit/roofitcore/src</text>
<text text-anchor="middle" x="438.5" y="-13" font-family="Helvetica,sans-Serif" font-size="10.00" fill="#000000">/RooAbsOptTestStatistic.cxx</text>
</a>
</g>
</g>
<!-- Node106&#45;&gt;Node109 -->
<g id="edge3" class="edge">
<title>Node106&#45;&gt;Node109</title>
<path fill="none" stroke="#191970" d="M557.7792,-74.3811C530.9654,-62.3811 496.8837,-47.1285 472.0235,-36.0028"/>
<polygon fill="#191970" stroke="#191970" points="556.3761,-77.5877 566.9335,-78.478 559.2356,-71.1983 556.3761,-77.5877"/>
</g>
<!-- Node110 -->
<g id="node5" class="node">
<title>Node110</title>
<g id="a_node5"><a xlink:href="RooAbsTestStatistic_8cxx.html" target="_top" xlink:title=" &#160;">
<polygon fill="#ffffff" stroke="#000000" points="533,-6 533,-36 668,-36 668,-6 533,-6"/>
<text text-anchor="start" x="541" y="-24" font-family="Helvetica,sans-Serif" font-size="10.00" fill="#000000">roofit/roofitcore/src</text>
<text text-anchor="middle" x="600.5" y="-13" font-family="Helvetica,sans-Serif" font-size="10.00" fill="#000000">/RooAbsTestStatistic.cxx</text>
</a>
</g>
</g>
<!-- Node106&#45;&gt;Node110 -->
<g id="edge4" class="edge">
<title>Node106&#45;&gt;Node110</title>
<path fill="none" stroke="#191970" d="M600.5,-68.3409C600.5,-57.5601 600.5,-45.3309 600.5,-36.0028"/>
<polygon fill="#191970" stroke="#191970" points="597.0001,-68.4779 600.5,-78.478 604.0001,-68.478 597.0001,-68.4779"/>
</g>
<!-- Node111 -->
<g id="node6" class="node">
<title>Node111</title>
<g id="a_node6"><a xlink:href="RooFactoryWSTool_8cxx.html" target="_top" xlink:title=" &#160;">
<polygon fill="#ffffff" stroke="#000000" points="686.5,-6 686.5,-36 814.5,-36 814.5,-6 686.5,-6"/>
<text text-anchor="start" x="694.5" y="-24" font-family="Helvetica,sans-Serif" font-size="10.00" fill="#000000">roofit/roofitcore/src</text>
<text text-anchor="middle" x="750.5" y="-13" font-family="Helvetica,sans-Serif" font-size="10.00" fill="#000000">/RooFactoryWSTool.cxx</text>
</a>
</g>
</g>
<!-- Node106&#45;&gt;Node111 -->
<g id="edge5" class="edge">
<title>Node106&#45;&gt;Node111</title>
<path fill="none" stroke="#191970" d="M640.7083,-74.066C665.4345,-62.115 696.642,-47.0313 719.4597,-36.0028"/>
<polygon fill="#191970" stroke="#191970" points="639.0605,-70.975 631.5801,-78.478 642.1067,-77.2774 639.0605,-70.975"/>
</g>
<!-- Node112 -->
<g id="node7" class="node">
<title>Node112</title>
<g id="a_node7"><a xlink:href="RooNLLVar_8cxx.html" target="_top" xlink:title=" &#160;">
<polygon fill="#ffffff" stroke="#000000" points="833,-6 833,-36 942,-36 942,-6 833,-6"/>
<text text-anchor="start" x="841" y="-24" font-family="Helvetica,sans-Serif" font-size="10.00" fill="#000000">roofit/roofitcore/src</text>
<text text-anchor="middle" x="887.5" y="-13" font-family="Helvetica,sans-Serif" font-size="10.00" fill="#000000">/RooNLLVar.cxx</text>
</a>
</g>
</g>
<!-- Node106&#45;&gt;Node112 -->
<g id="edge6" class="edge">
<title>Node106&#45;&gt;Node112</title>
<path fill="none" stroke="#191970" d="M665.238,-80.1637C709.9564,-70.558 770.6603,-56.7382 823.5,-42 829.9205,-40.2092 836.6547,-38.1747 843.2446,-36.094"/>
<polygon fill="#191970" stroke="#191970" points="664.4251,-76.7582 655.3765,-82.2693 665.8869,-83.6039 664.4251,-76.7582"/>
</g>
<!-- Node113 -->
<g id="node8" class="node">
<title>Node113</title>
<g id="a_node8"><a xlink:href="RooRealSumPdf_8cxx.html" target="_top" xlink:title="roofit/roofitcore/src\l/RooRealSumPdf.cxx">
<polygon fill="#ffffff" stroke="#000000" points="960.5,-6 960.5,-36 1076.5,-36 1076.5,-6 960.5,-6"/>
<text text-anchor="start" x="968.5" y="-24" font-family="Helvetica,sans-Serif" font-size="10.00" fill="#000000">roofit/roofitcore/src</text>
<text text-anchor="middle" x="1018.5" y="-13" font-family="Helvetica,sans-Serif" font-size="10.00" fill="#000000">/RooRealSumPdf.cxx</text>
</a>
</g>
</g>
<!-- Node106&#45;&gt;Node113 -->
<g id="edge7" class="edge">
<title>Node106&#45;&gt;Node113</title>
<path fill="none" stroke="#191970" d="M665.2253,-87.1056C736.0879,-79.3871 852.7833,-64.5636 951.5,-42 958.8677,-40.316 966.5966,-38.2159 974.0795,-36"/>
<polygon fill="#191970" stroke="#191970" points="664.679,-83.6441 655.1103,-88.1929 665.4272,-90.604 664.679,-83.6441"/>
</g>
</g>
</svg>
        <g id="navigator" transform="translate(0 0)" fill="#404254">
                <rect fill="#f2f5e9" fill-opacity="0.5" stroke="#606060" stroke-width=".5" x="0" y="0" width="60" height="60"/>
                <use id="zoomplus" xlink:href="#zoomPlus" x="17" y="9" onmousedown="handleZoom(evt,'in')"/>
                <use id="zoomminus" xlink:href="#zoomMin" x="42" y="9" onmousedown="handleZoom(evt,'out')"/>
                <use id="reset" xlink:href="#resetDef" x="30" y="36" onmousedown="handleReset()"/>
                <g id="arrowUp" xlink:href="#dirArrow" transform="translate(30 24)" onmousedown="handlePan(0,-1)">
                  <use xlink:href="#rim" fill="#404040">
                        <set attributeName="fill" to="#808080" begin="arrowUp.mouseover" end="arrowUp.mouseout"/>
                  </use>
                  <path fill="none" stroke="white" stroke-width="1.5" d="M0,-3.0v7 M-2.5,-0.5L0,-3.0L2.5,-0.5"/>
                </g>
                <g id="arrowRight" xlink:href="#dirArrow" transform="rotate(90) translate(36 -43)" onmousedown="handlePan(1,0)">
                  <use xlink:href="#rim" fill="#404040">
                        <set attributeName="fill" to="#808080" begin="arrowRight.mouseover" end="arrowRight.mouseout"/>
                  </use>
                  <path fill="none" stroke="white" stroke-width="1.5" d="M0,-3.0v7 M-2.5,-0.5L0,-3.0L2.5,-0.5"/>
                </g>
                <g id="arrowDown" xlink:href="#dirArrow" transform="rotate(180) translate(-30 -48)" onmousedown="handlePan(0,1)">
                  <use xlink:href="#rim" fill="#404040">
                        <set attributeName="fill" to="#808080" begin="arrowDown.mouseover" end="arrowDown.mouseout"/>
                  </use>
                  <path fill="none" stroke="white" stroke-width="1.5" d="M0,-3.0v7 M-2.5,-0.5L0,-3.0L2.5,-0.5"/>
                </g>
                <g id="arrowLeft" xlink:href="#dirArrow" transform="rotate(270) translate(-36 17)" onmousedown="handlePan(-1,0)">
                  <use xlink:href="#rim" fill="#404040">
                        <set attributeName="fill" to="#808080" begin="arrowLeft.mouseover" end="arrowLeft.mouseout"/>
                  </use>
                  <path fill="none" stroke="white" stroke-width="1.5" d="M0,-3.0v7 M-2.5,-0.5L0,-3.0L2.5,-0.5"/>
                </g>
        </g>
        <svg viewBox="0 0 15 15" width="100%" height="30px" preserveAspectRatio="xMaxYMin meet">
         <g id="arrow_out" transform="scale(0.3 0.3)">
          <a xlink:href="RooRealSumPdf_8h__dep__incl_org.svg" target="_base">
           <rect id="button" ry="5" rx="5" y="6" x="6" height="38" width="38"
                fill="#f2f5e9" fill-opacity="0.5" stroke="#606060" stroke-width="1.0"/>
           <path id="arrow"
             d="M 11.500037,31.436501 C 11.940474,20.09759 22.043105,11.32322 32.158766,21.979434 L 37.068811,17.246167 C 37.068811,17.246167 37.088388,32 37.088388,32 L 22.160133,31.978069 C 22.160133,31.978069 26.997745,27.140456 26.997745,27.140456 C 18.528582,18.264221 13.291696,25.230495 11.500037,31.436501 z"
             style="fill:#404040;"/>
          </a>
         </g>
        </svg>
</svg>
