<?xml version="1.0" encoding="UTF-8" standalone="no"?>
<!DOCTYPE svg PUBLIC "-//W3C//DTD SVG 1.1//EN"
 "http://www.w3.org/Graphics/SVG/1.1/DTD/svg11.dtd">
<!-- Generated by graphviz version 2.40.1 (0)
 -->
<!-- Title: roofit/roofitcore/inc/RooRecursiveFraction.h Pages: 1 -->
<svg width="278pt" height="106pt"
 viewBox="0.00 0.00 278.00 106.00" xmlns="http://www.w3.org/2000/svg" xmlns:xlink="http://www.w3.org/1999/xlink">
<g id="graph0" class="graph" transform="scale(1 1) rotate(0) translate(4 102)">
<title>roofit/roofitcore/inc/RooRecursiveFraction.h</title>
<polygon fill="#ffffff" stroke="transparent" points="-4,4 -4,-102 274,-102 274,4 -4,4"/>
<!-- Node97 -->
<g id="node1" class="node">
<title>Node97</title>
<polygon fill="#bfbfbf" stroke="#000000" points="60.5,-67.5 60.5,-97.5 192.5,-97.5 192.5,-67.5 60.5,-67.5"/>
<text text-anchor="start" x="68.5" y="-85.5" font-family="Helvetica,sans-Serif" font-size="10.00" fill="#000000">roofit/roofitcore/inc</text>
<text text-anchor="middle" x="126.5" y="-74.5" font-family="Helvetica,sans-Serif" font-size="10.00" fill="#000000">/RooRecursiveFraction.h</text>
</g>
<!-- Node98 -->
<g id="node2" class="node">
<title>Node98</title>
<g id="a_node2"><a xlink:href="RooAddPdf_8cxx.html" target="_top" xlink:title="roofit/roofitcore/src\l/RooAddPdf.cxx">
<polygon fill="#ffffff" stroke="#000000" points="0,-.5 0,-30.5 109,-30.5 109,-.5 0,-.5"/>
<text text-anchor="start" x="8" y="-18.5" font-family="Helvetica,sans-Serif" font-size="10.00" fill="#000000">roofit/roofitcore/src</text>
<text text-anchor="middle" x="54.5" y="-7.5" font-family="Helvetica,sans-Serif" font-size="10.00" fill="#000000">/RooAddPdf.cxx</text>
</a>
</g>
</g>
<!-- Node97&#45;&gt;Node98 -->
<g id="edge1" class="edge">
<title>Node97&#45;&gt;Node98</title>
<path fill="none" stroke="#191970" d="M102.548,-60.2113C92.1129,-50.5009 80.1512,-39.3698 70.7733,-30.6432"/>
<polygon fill="#191970" stroke="#191970" points="100.4571,-63.0466 110.1621,-67.2967 105.2257,-57.9221 100.4571,-63.0466"/>
</g>
<!-- Node99 -->
<g id="node3" class="node">
<title>Node99</title>
<g id="a_node3"><a xlink:href="RooRecursiveFraction_8cxx.html" target="_top" xlink:title=" &#160;">
<polygon fill="#ffffff" stroke="#000000" points="127,-.5 127,-30.5 270,-30.5 270,-.5 127,-.5"/>
<text text-anchor="start" x="135" y="-18.5" font-family="Helvetica,sans-Serif" font-size="10.00" fill="#000000">roofit/roofitcore/src</text>
<text text-anchor="middle" x="198.5" y="-7.5" font-family="Helvetica,sans-Serif" font-size="10.00" fill="#000000">/RooRecursiveFraction.cxx</text>
</a>
</g>
</g>
<!-- Node97&#45;&gt;Node99 -->
<g id="edge2" class="edge">
<title>Node97&#45;&gt;Node99</title>
<path fill="none" stroke="#191970" d="M150.452,-60.2113C160.8871,-50.5009 172.8488,-39.3698 182.2267,-30.6432"/>
<polygon fill="#191970" stroke="#191970" points="147.7743,-57.9221 142.8379,-67.2967 152.5429,-63.0466 147.7743,-57.9221"/>
</g>
</g>
</svg>
