<?xml version="1.0" encoding="UTF-8" standalone="no"?>
<!DOCTYPE svg PUBLIC "-//W3C//DTD SVG 1.1//EN"
 "http://www.w3.org/Graphics/SVG/1.1/DTD/svg11.dtd">
<!-- Generated by graphviz version 2.40.1 (0)
 -->
<!-- Title: roofit/roofitcore/inc/RooSuperCategory.h Pages: 1 -->
<svg width="844pt" height="106pt"
 viewBox="0.00 0.00 843.50 106.00" xmlns="http://www.w3.org/2000/svg" xmlns:xlink="http://www.w3.org/1999/xlink">
<g id="graph0" class="graph" transform="scale(1 1) rotate(0) translate(4 102)">
<title>roofit/roofitcore/inc/RooSuperCategory.h</title>
<polygon fill="#ffffff" stroke="transparent" points="-4,4 -4,-102 839.5,-102 839.5,4 -4,4"/>
<!-- Node88 -->
<g id="node1" class="node">
<title>Node88</title>
<polygon fill="#bfbfbf" stroke="#000000" points="366,-67.5 366,-97.5 483,-97.5 483,-67.5 366,-67.5"/>
<text text-anchor="start" x="374" y="-85.5" font-family="Helvetica,sans-Serif" font-size="10.00" fill="#000000">roofit/roofitcore/inc</text>
<text text-anchor="middle" x="424.5" y="-74.5" font-family="Helvetica,sans-Serif" font-size="10.00" fill="#000000">/RooSuperCategory.h</text>
</g>
<!-- Node89 -->
<g id="node2" class="node">
<title>Node89</title>
<g id="a_node2"><a xlink:href="RooDataProjBinding_8cxx.html" target="_top" xlink:title=" &#160;">
<polygon fill="#ffffff" stroke="#000000" points="0,-.5 0,-30.5 137,-30.5 137,-.5 0,-.5"/>
<text text-anchor="start" x="8" y="-18.5" font-family="Helvetica,sans-Serif" font-size="10.00" fill="#000000">roofit/roofitcore/src</text>
<text text-anchor="middle" x="68.5" y="-7.5" font-family="Helvetica,sans-Serif" font-size="10.00" fill="#000000">/RooDataProjBinding.cxx</text>
</a>
</g>
</g>
<!-- Node88&#45;&gt;Node89 -->
<g id="edge1" class="edge">
<title>Node88&#45;&gt;Node89</title>
<path fill="none" stroke="#191970" d="M356.0282,-70.0713C299.73,-59.7908 217.8949,-44.7061 146.5,-31 143.5171,-30.4273 140.4707,-29.8386 137.394,-29.2409"/>
<polygon fill="#191970" stroke="#191970" points="355.419,-73.5179 365.8849,-71.8698 356.6756,-66.6316 355.419,-73.5179"/>
</g>
<!-- Node90 -->
<g id="node3" class="node">
<title>Node90</title>
<g id="a_node3"><a xlink:href="RooRealIntegral_8cxx.html" target="_top" xlink:title=" &#160;">
<polygon fill="#ffffff" stroke="#000000" points="155.5,-.5 155.5,-30.5 271.5,-30.5 271.5,-.5 155.5,-.5"/>
<text text-anchor="start" x="163.5" y="-18.5" font-family="Helvetica,sans-Serif" font-size="10.00" fill="#000000">roofit/roofitcore/src</text>
<text text-anchor="middle" x="213.5" y="-7.5" font-family="Helvetica,sans-Serif" font-size="10.00" fill="#000000">/RooRealIntegral.cxx</text>
</a>
</g>
</g>
<!-- Node88&#45;&gt;Node90 -->
<g id="edge2" class="edge">
<title>Node88&#45;&gt;Node90</title>
<path fill="none" stroke="#191970" d="M367.5373,-64.4123C334.2103,-53.8298 292.6203,-40.6235 261.059,-30.6017"/>
<polygon fill="#191970" stroke="#191970" points="366.5572,-67.7732 377.1475,-67.4639 368.6757,-61.1015 366.5572,-67.7732"/>
</g>
<!-- Node91 -->
<g id="node4" class="node">
<title>Node91</title>
<g id="a_node4"><a xlink:href="RooSimPdfBuilder_8cxx.html" target="_top" xlink:title="roofit/roofitcore/src\l/RooSimPdfBuilder.cxx">
<polygon fill="#ffffff" stroke="#000000" points="289.5,-.5 289.5,-30.5 415.5,-30.5 415.5,-.5 289.5,-.5"/>
<text text-anchor="start" x="297.5" y="-18.5" font-family="Helvetica,sans-Serif" font-size="10.00" fill="#000000">roofit/roofitcore/src</text>
<text text-anchor="middle" x="352.5" y="-7.5" font-family="Helvetica,sans-Serif" font-size="10.00" fill="#000000">/RooSimPdfBuilder.cxx</text>
</a>
</g>
</g>
<!-- Node88&#45;&gt;Node91 -->
<g id="edge3" class="edge">
<title>Node88&#45;&gt;Node91</title>
<path fill="none" stroke="#191970" d="M400.548,-60.2113C390.1129,-50.5009 378.1512,-39.3698 368.7733,-30.6432"/>
<polygon fill="#191970" stroke="#191970" points="398.4571,-63.0466 408.1621,-67.2967 403.2257,-57.9221 398.4571,-63.0466"/>
</g>
<!-- Node92 -->
<g id="node5" class="node">
<title>Node92</title>
<g id="a_node5"><a xlink:href="RooSimultaneous_8cxx.html" target="_top" xlink:title=" &#160;">
<polygon fill="#ffffff" stroke="#000000" points="434,-.5 434,-30.5 559,-30.5 559,-.5 434,-.5"/>
<text text-anchor="start" x="442" y="-18.5" font-family="Helvetica,sans-Serif" font-size="10.00" fill="#000000">roofit/roofitcore/src</text>
<text text-anchor="middle" x="496.5" y="-7.5" font-family="Helvetica,sans-Serif" font-size="10.00" fill="#000000">/RooSimultaneous.cxx</text>
</a>
</g>
</g>
<!-- Node88&#45;&gt;Node92 -->
<g id="edge4" class="edge">
<title>Node88&#45;&gt;Node92</title>
<path fill="none" stroke="#191970" d="M448.452,-60.2113C458.8871,-50.5009 470.8488,-39.3698 480.2267,-30.6432"/>
<polygon fill="#191970" stroke="#191970" points="445.7743,-57.9221 440.8379,-67.2967 450.5429,-63.0466 445.7743,-57.9221"/>
</g>
<!-- Node93 -->
<g id="node6" class="node">
<title>Node93</title>
<g id="a_node6"><a xlink:href="RooSimWSTool_8cxx.html" target="_top" xlink:title="roofit/roofitcore/src\l/RooSimWSTool.cxx">
<polygon fill="#ffffff" stroke="#000000" points="577.5,-.5 577.5,-30.5 689.5,-30.5 689.5,-.5 577.5,-.5"/>
<text text-anchor="start" x="585.5" y="-18.5" font-family="Helvetica,sans-Serif" font-size="10.00" fill="#000000">roofit/roofitcore/src</text>
<text text-anchor="middle" x="633.5" y="-7.5" font-family="Helvetica,sans-Serif" font-size="10.00" fill="#000000">/RooSimWSTool.cxx</text>
</a>
</g>
</g>
<!-- Node88&#45;&gt;Node93 -->
<g id="edge5" class="edge">
<title>Node88&#45;&gt;Node93</title>
<path fill="none" stroke="#191970" d="M481.3483,-64.2759C514.2873,-53.7165 555.2639,-40.5805 586.3917,-30.6017"/>
<polygon fill="#191970" stroke="#191970" points="479.8579,-61.0782 471.4037,-67.4639 481.9948,-67.744 479.8579,-61.0782"/>
</g>
<!-- Node94 -->
<g id="node7" class="node">
<title>Node94</title>
<g id="a_node7"><a xlink:href="RooSuperCategory_8cxx.html" target="_top" xlink:title=" &#160;">
<polygon fill="#ffffff" stroke="#000000" points="707.5,-.5 707.5,-30.5 835.5,-30.5 835.5,-.5 707.5,-.5"/>
<text text-anchor="start" x="715.5" y="-18.5" font-family="Helvetica,sans-Serif" font-size="10.00" fill="#000000">roofit/roofitcore/src</text>
<text text-anchor="middle" x="771.5" y="-7.5" font-family="Helvetica,sans-Serif" font-size="10.00" fill="#000000">/RooSuperCategory.cxx</text>
</a>
</g>
</g>
<!-- Node88&#45;&gt;Node94 -->
<g id="edge6" class="edge">
<title>Node88&#45;&gt;Node94</title>
<path fill="none" stroke="#191970" d="M493.1681,-70.0542C548.6396,-59.8893 628.6867,-44.9706 698.5,-31 701.422,-30.4153 704.4082,-29.8105 707.4234,-29.194"/>
<polygon fill="#191970" stroke="#191970" points="492.3111,-66.6528 483.1044,-71.8956 493.571,-73.5385 492.3111,-66.6528"/>
</g>
</g>
</svg>
