<?xml version="1.0" encoding="UTF-8" standalone="no"?>
<!DOCTYPE svg PUBLIC "-//W3C//DTD SVG 1.1//EN"
 "http://www.w3.org/Graphics/SVG/1.1/DTD/svg11.dtd">
<!-- Generated by graphviz version 2.40.1 (0)
 -->
<!-- Title: math/mathmore/src/RootFinderAlgorithms.cxx Pages: 1 -->
<!--zoomable 711 -->
<svg id="main" version="1.1" xmlns="http://www.w3.org/2000/svg" xmlns:xlink="http://www.w3.org/1999/xlink" xml:space="preserve" onload="init(evt)">
<style type="text/css"><![CDATA[
.edge:hover path { stroke: red; }
.edge:hover polygon { stroke: red; fill: red; }
]]></style>
<script type="text/javascript"><![CDATA[
var edges = document.getElementsByTagName('g');
if (edges && edges.length) {
  for (var i=0;i<edges.length;i++) {
    if (edges[i].id.substr(0,4)=='edge') {
      edges[i].setAttribute('class','edge');
    }
  }
}
]]></script>
        <defs>
                <circle id="rim" cx="0" cy="0" r="7"/>
                <circle id="rim2" cx="0" cy="0" r="3.5"/>
                <g id="zoomPlus">
                        <use xlink:href="#rim" fill="#404040">
                                <set attributeName="fill" to="#808080" begin="zoomplus.mouseover" end="zoomplus.mouseout"/>
                        </use>
                        <path d="M-4,0h8M0,-4v8" fill="none" stroke="white" stroke-width="1.5" pointer-events="none"/>
                </g>
                <g id="zoomMin">
                        <use xlink:href="#rim" fill="#404040">
                                <set attributeName="fill" to="#808080" begin="zoomminus.mouseover" end="zoomminus.mouseout"/>
                        </use>
                        <path d="M-4,0h8" fill="none" stroke="white" stroke-width="1.5" pointer-events="none"/>
                </g>
                <g id="dirArrow">
                        <path fill="none" stroke="white" stroke-width="1.5" d="M0,-3.0v7 M-2.5,-0.5L0,-3.0L2.5,-0.5"/>
                </g>
               <g id="resetDef">
                       <use xlink:href="#rim2" fill="#404040">
                               <set attributeName="fill" to="#808080" begin="reset.mouseover" end="reset.mouseout"/>
                       </use>
               </g>
        </defs>

<script type="text/javascript">
var viewWidth = 1291;
var viewHeight = 711;
var sectionId = 'dynsection-0';
</script>
<script xlink:href="svgpan.js"/>
<svg id="graph" class="graph">
<g id="viewport">
<title>math/mathmore/src/RootFinderAlgorithms.cxx</title>
<polygon fill="#ffffff" stroke="transparent" points="-4,4 -4,-707 1287,-707 1287,4 -4,4"/>
<!-- Node0 -->
<g id="node1" class="node">
<title>Node0</title>
<polygon fill="#bfbfbf" stroke="#000000" points="978,-672.5 978,-702.5 1145,-702.5 1145,-672.5 978,-672.5"/>
<text text-anchor="start" x="986" y="-690.5" font-family="Helvetica,sans-Serif" font-size="10.00" fill="#000000">math/mathmore/src/RootFinder</text>
<text text-anchor="middle" x="1061.5" y="-679.5" font-family="Helvetica,sans-Serif" font-size="10.00" fill="#000000">Algorithms.cxx</text>
</g>
<!-- Node1 -->
<g id="node2" class="node">
<title>Node1</title>
<g id="a_node2"><a xlink:href="RootFinderAlgorithms_8h.html" target="_top" xlink:title="Math/RootFinderAlgorithms.h">
<polygon fill="#ffffff" stroke="#000000" points="837,-616.5 837,-635.5 994,-635.5 994,-616.5 837,-616.5"/>
<text text-anchor="middle" x="915.5" y="-623.5" font-family="Helvetica,sans-Serif" font-size="10.00" fill="#000000">Math/RootFinderAlgorithms.h</text>
</a>
</g>
</g>
<!-- Node0&#45;&gt;Node1 -->
<g id="edge1" class="edge">
<title>Node0&#45;&gt;Node1</title>
<path fill="none" stroke="#191970" d="M1025.7844,-672.4554C1001.8513,-662.374 970.6095,-649.2139 947.4906,-639.4755"/>
<polygon fill="#191970" stroke="#191970" points="948.6993,-636.1868 938.1248,-635.5303 945.9819,-642.6379 948.6993,-636.1868"/>
</g>
<!-- Node37 -->
<g id="node38" class="node">
<title>Node37</title>
<g id="a_node38"><a xlink:href="GSLRootFSolver_8h.html" target="_top" xlink:title="GSLRootFSolver.h">
<polygon fill="#ffffff" stroke="#000000" points="1051,-616.5 1051,-635.5 1152,-635.5 1152,-616.5 1051,-616.5"/>
<text text-anchor="middle" x="1101.5" y="-623.5" font-family="Helvetica,sans-Serif" font-size="10.00" fill="#000000">GSLRootFSolver.h</text>
</a>
</g>
</g>
<!-- Node0&#45;&gt;Node37 -->
<g id="edge51" class="edge">
<title>Node0&#45;&gt;Node37</title>
<path fill="none" stroke="#191970" d="M1071.3876,-672.2977C1076.8822,-663.8498 1083.7586,-653.2773 1089.5527,-644.369"/>
<polygon fill="#191970" stroke="#191970" points="1092.5772,-646.1381 1095.0955,-635.8469 1086.7092,-642.3215 1092.5772,-646.1381"/>
</g>
<!-- Node38 -->
<g id="node39" class="node">
<title>Node38</title>
<polygon fill="#ffffff" stroke="#bfbfbf" points="1058,-560.5 1058,-579.5 1145,-579.5 1145,-560.5 1058,-560.5"/>
<text text-anchor="middle" x="1101.5" y="-567.5" font-family="Helvetica,sans-Serif" font-size="10.00" fill="#000000">gsl/gsl_roots.h</text>
</g>
<!-- Node0&#45;&gt;Node38 -->
<g id="edge55" class="edge">
<title>Node0&#45;&gt;Node38</title>
<path fill="none" stroke="#191970" d="M1051.5238,-672.3872C1043.0381,-657.488 1033.5383,-634.3506 1042.5,-616 1048.9041,-602.8865 1061.0521,-592.4229 1072.6685,-584.8092"/>
<polygon fill="#191970" stroke="#191970" points="1074.6098,-587.7252 1081.3439,-579.5457 1070.9789,-581.7405 1074.6098,-587.7252"/>
</g>
<!-- Node39 -->
<g id="node40" class="node">
<title>Node39</title>
<g id="a_node40"><a xlink:href="GSLRootFdFSolver_8h.html" target="_top" xlink:title="GSLRootFdFSolver.h">
<polygon fill="#ffffff" stroke="#000000" points="1170,-616.5 1170,-635.5 1283,-635.5 1283,-616.5 1170,-616.5"/>
<text text-anchor="middle" x="1226.5" y="-623.5" font-family="Helvetica,sans-Serif" font-size="10.00" fill="#000000">GSLRootFdFSolver.h</text>
</a>
</g>
</g>
<!-- Node0&#45;&gt;Node39 -->
<g id="edge53" class="edge">
<title>Node0&#45;&gt;Node39</title>
<path fill="none" stroke="#191970" d="M1101.8635,-672.4554C1129.2735,-662.239 1165.1659,-648.8609 1191.391,-639.0861"/>
<polygon fill="#191970" stroke="#191970" points="1192.783,-642.3025 1200.9309,-635.5303 1190.3382,-635.7433 1192.783,-642.3025"/>
</g>
<!-- Node2 -->
<g id="node3" class="node">
<title>Node2</title>
<g id="a_node3"><a xlink:href="GSLRootFinder_8h.html" target="_top" xlink:title="Math/GSLRootFinder.h">
<polygon fill="#ffffff" stroke="#000000" points="726.5,-560.5 726.5,-579.5 848.5,-579.5 848.5,-560.5 726.5,-560.5"/>
<text text-anchor="middle" x="787.5" y="-567.5" font-family="Helvetica,sans-Serif" font-size="10.00" fill="#000000">Math/GSLRootFinder.h</text>
</a>
</g>
</g>
<!-- Node1&#45;&gt;Node2 -->
<g id="edge2" class="edge">
<title>Node1&#45;&gt;Node2</title>
<path fill="none" stroke="#191970" d="M893.496,-616.3733C872.8565,-607.3435 841.7842,-593.7494 818.6111,-583.6111"/>
<polygon fill="#191970" stroke="#191970" points="819.7813,-580.3028 809.2169,-579.5011 816.9755,-586.7159 819.7813,-580.3028"/>
</g>
<!-- Node35 -->
<g id="node36" class="node">
<title>Node35</title>
<g id="a_node36"><a xlink:href="GSLRootFinderDeriv_8h.html" target="_top" xlink:title="Math/GSLRootFinderDeriv.h">
<polygon fill="#ffffff" stroke="#000000" points="866.5,-560.5 866.5,-579.5 1014.5,-579.5 1014.5,-560.5 866.5,-560.5"/>
<text text-anchor="middle" x="940.5" y="-567.5" font-family="Helvetica,sans-Serif" font-size="10.00" fill="#000000">Math/GSLRootFinderDeriv.h</text>
</a>
</g>
</g>
<!-- Node1&#45;&gt;Node35 -->
<g id="edge44" class="edge">
<title>Node1&#45;&gt;Node35</title>
<path fill="none" stroke="#191970" d="M919.8547,-616.2455C923.2244,-608.6973 927.993,-598.0158 932.0983,-588.8197"/>
<polygon fill="#191970" stroke="#191970" points="935.3147,-590.2009 936.1952,-579.6427 928.9227,-587.3473 935.3147,-590.2009"/>
</g>
<!-- Node3 -->
<g id="node4" class="node">
<title>Node3</title>
<g id="a_node4"><a xlink:href="GSLFunctionAdapter_8h.html" target="_top" xlink:title="Math/GSLFunctionAdapter.h">
<polygon fill="#ffffff" stroke="#000000" points="743,-504.5 743,-523.5 892,-523.5 892,-504.5 743,-504.5"/>
<text text-anchor="middle" x="817.5" y="-511.5" font-family="Helvetica,sans-Serif" font-size="10.00" fill="#000000">Math/GSLFunctionAdapter.h</text>
</a>
</g>
</g>
<!-- Node2&#45;&gt;Node3 -->
<g id="edge3" class="edge">
<title>Node2&#45;&gt;Node3</title>
<path fill="none" stroke="#191970" d="M792.7256,-560.2455C796.8123,-552.617 802.6135,-541.7881 807.575,-532.5267"/>
<polygon fill="#191970" stroke="#191970" points="810.6972,-534.1103 812.3343,-523.6427 804.5268,-530.8047 810.6972,-534.1103"/>
</g>
<!-- Node4 -->
<g id="node5" class="node">
<title>Node4</title>
<g id="a_node5"><a xlink:href="IFunctionfwd_8h.html" target="_top" xlink:title="Math/IFunctionfwd.h">
<polygon fill="#ffffff" stroke="#000000" points="844.5,-448.5 844.5,-467.5 958.5,-467.5 958.5,-448.5 844.5,-448.5"/>
<text text-anchor="middle" x="901.5" y="-455.5" font-family="Helvetica,sans-Serif" font-size="10.00" fill="#000000">Math/IFunctionfwd.h</text>
</a>
</g>
</g>
<!-- Node2&#45;&gt;Node4 -->
<g id="edge4" class="edge">
<title>Node2&#45;&gt;Node4</title>
<path fill="none" stroke="#191970" d="M726.2407,-565.3281C669.652,-559.5884 591.5516,-547.559 572.5,-524 566.9107,-517.0883 566.666,-510.7065 572.5,-504 589.4199,-484.5498 743.1916,-469.8299 834.3994,-462.7205"/>
<polygon fill="#191970" stroke="#191970" points="834.6803,-466.2094 844.3826,-461.9532 834.1438,-459.2299 834.6803,-466.2094"/>
</g>
<!-- Node5 -->
<g id="node6" class="node">
<title>Node5</title>
<g id="a_node6"><a xlink:href="IRootFinderMethod_8h.html" target="_top" xlink:title="Math/IRootFinderMethod.h">
<polygon fill="#ffffff" stroke="#000000" points="582,-504.5 582,-523.5 725,-523.5 725,-504.5 582,-504.5"/>
<text text-anchor="middle" x="653.5" y="-511.5" font-family="Helvetica,sans-Serif" font-size="10.00" fill="#000000">Math/IRootFinderMethod.h</text>
</a>
</g>
</g>
<!-- Node2&#45;&gt;Node5 -->
<g id="edge5" class="edge">
<title>Node2&#45;&gt;Node5</title>
<path fill="none" stroke="#191970" d="M764.4646,-560.3733C742.7612,-551.3032 710.0382,-537.6279 685.745,-527.4755"/>
<polygon fill="#191970" stroke="#191970" points="686.8111,-524.1278 676.2348,-523.5011 684.1119,-530.5865 686.8111,-524.1278"/>
</g>
<!-- Node34 -->
<g id="node35" class="node">
<title>Node34</title>
<polygon fill="#ffffff" stroke="#bfbfbf" points="910.5,-504.5 910.5,-523.5 970.5,-523.5 970.5,-504.5 910.5,-504.5"/>
<text text-anchor="middle" x="940.5" y="-511.5" font-family="Helvetica,sans-Serif" font-size="10.00" fill="#000000">iostream</text>
</g>
<!-- Node2&#45;&gt;Node34 -->
<g id="edge43" class="edge">
<title>Node2&#45;&gt;Node34</title>
<path fill="none" stroke="#191970" d="M813.8016,-560.3733C838.9128,-551.1822 876.9438,-537.2624 904.7872,-527.0713"/>
<polygon fill="#191970" stroke="#191970" points="906.3538,-530.2251 914.5416,-523.5011 903.9478,-523.6516 906.3538,-530.2251"/>
</g>
<!-- Node5&#45;&gt;Node4 -->
<g id="edge42" class="edge">
<title>Node5&#45;&gt;Node4</title>
<path fill="none" stroke="#191970" d="M695.8509,-504.4369C738.2942,-494.8529 803.7119,-480.0812 849.3313,-469.78"/>
<polygon fill="#191970" stroke="#191970" points="850.3403,-473.1404 859.3237,-467.5237 848.7984,-466.3123 850.3403,-473.1404"/>
</g>
<!-- Node6 -->
<g id="node7" class="node">
<title>Node6</title>
<g id="a_node7"><a xlink:href="Error_8h.html" target="_top" xlink:title="Math/Error.h">
<polygon fill="#ffffff" stroke="#000000" points="616,-448.5 616,-467.5 691,-467.5 691,-448.5 616,-448.5"/>
<text text-anchor="middle" x="653.5" y="-455.5" font-family="Helvetica,sans-Serif" font-size="10.00" fill="#000000">Math/Error.h</text>
</a>
</g>
</g>
<!-- Node5&#45;&gt;Node6 -->
<g id="edge6" class="edge">
<title>Node5&#45;&gt;Node6</title>
<path fill="none" stroke="#191970" d="M653.5,-504.2455C653.5,-496.9382 653.5,-486.6944 653.5,-477.7046"/>
<polygon fill="#191970" stroke="#191970" points="657.0001,-477.6426 653.5,-467.6427 650.0001,-477.6427 657.0001,-477.6426"/>
</g>
<!-- Node7 -->
<g id="node8" class="node">
<title>Node7</title>
<g id="a_node8"><a xlink:href="TError_8h.html" target="_top" xlink:title="TError.h">
<polygon fill="#ffffff" stroke="#000000" points="568.5,-392.5 568.5,-411.5 622.5,-411.5 622.5,-392.5 568.5,-392.5"/>
<text text-anchor="middle" x="595.5" y="-399.5" font-family="Helvetica,sans-Serif" font-size="10.00" fill="#000000">TError.h</text>
</a>
</g>
</g>
<!-- Node6&#45;&gt;Node7 -->
<g id="edge7" class="edge">
<title>Node6&#45;&gt;Node7</title>
<path fill="none" stroke="#191970" d="M643.3972,-448.2455C634.9972,-440.1352 622.8506,-428.4075 612.8916,-418.7919"/>
<polygon fill="#191970" stroke="#191970" points="615.1122,-416.0707 605.4871,-411.6427 610.25,-421.1066 615.1122,-416.0707"/>
</g>
<!-- Node29 -->
<g id="node30" class="node">
<title>Node29</title>
<g id="a_node30"><a xlink:href="Util_8h.html" target="_top" xlink:title="Math/Util.h">
<polygon fill="#ffffff" stroke="#000000" points="788.5,-392.5 788.5,-411.5 858.5,-411.5 858.5,-392.5 788.5,-392.5"/>
<text text-anchor="middle" x="823.5" y="-399.5" font-family="Helvetica,sans-Serif" font-size="10.00" fill="#000000">Math/Util.h</text>
</a>
</g>
</g>
<!-- Node6&#45;&gt;Node29 -->
<g id="edge34" class="edge">
<title>Node6&#45;&gt;Node29</title>
<path fill="none" stroke="#191970" d="M682.724,-448.3733C710.9925,-439.0613 753.9965,-424.8953 785.0344,-414.671"/>
<polygon fill="#191970" stroke="#191970" points="786.2544,-417.9542 794.6573,-411.5011 784.0643,-411.3056 786.2544,-417.9542"/>
</g>
<!-- Node8 -->
<g id="node9" class="node">
<title>Node8</title>
<g id="a_node9"><a xlink:href="Rtypes_8h.html" target="_top" xlink:title="Rtypes.h">
<polygon fill="#ffffff" stroke="#000000" points="486,-280.5 486,-299.5 545,-299.5 545,-280.5 486,-280.5"/>
<text text-anchor="middle" x="515.5" y="-287.5" font-family="Helvetica,sans-Serif" font-size="10.00" fill="#000000">Rtypes.h</text>
</a>
</g>
</g>
<!-- Node7&#45;&gt;Node8 -->
<g id="edge8" class="edge">
<title>Node7&#45;&gt;Node8</title>
<path fill="none" stroke="#191970" d="M594.633,-392.2227C593.0151,-378.5646 588.5276,-353.4872 576.5,-336 567.8148,-323.3724 554.5428,-312.7727 542.5939,-304.9428"/>
<polygon fill="#191970" stroke="#191970" points="544.1574,-301.7944 533.8124,-299.5074 540.4733,-307.7465 544.1574,-301.7944"/>
</g>
<!-- Node28 -->
<g id="node29" class="node">
<title>Node28</title>
<polygon fill="#ffffff" stroke="#bfbfbf" points="511.5,-336.5 511.5,-355.5 567.5,-355.5 567.5,-336.5 511.5,-336.5"/>
<text text-anchor="middle" x="539.5" y="-343.5" font-family="Helvetica,sans-Serif" font-size="10.00" fill="#000000">stdarg.h</text>
</g>
<!-- Node7&#45;&gt;Node28 -->
<g id="edge33" class="edge">
<title>Node7&#45;&gt;Node28</title>
<path fill="none" stroke="#191970" d="M585.7455,-392.2455C577.6352,-384.1352 565.9075,-372.4075 556.2919,-362.7919"/>
<polygon fill="#191970" stroke="#191970" points="558.6887,-360.2389 549.1427,-355.6427 553.7389,-365.1887 558.6887,-360.2389"/>
</g>
<!-- Node9 -->
<g id="node10" class="node">
<title>Node9</title>
<g id="a_node10"><a xlink:href="RtypesCore_8h.html" target="_top" xlink:title="RtypesCore.h">
<polygon fill="#ffffff" stroke="#000000" points="644.5,-112.5 644.5,-131.5 726.5,-131.5 726.5,-112.5 644.5,-112.5"/>
<text text-anchor="middle" x="685.5" y="-119.5" font-family="Helvetica,sans-Serif" font-size="10.00" fill="#000000">RtypesCore.h</text>
</a>
</g>
</g>
<!-- Node8&#45;&gt;Node9 -->
<g id="edge9" class="edge">
<title>Node8&#45;&gt;Node9</title>
<path fill="none" stroke="#191970" d="M545.0543,-280.6641C565.225,-273.1791 591.609,-261.0859 610.5,-244 643.0753,-214.5373 666.4072,-167.6403 677.7404,-141.4015"/>
<polygon fill="#191970" stroke="#191970" points="681.1126,-142.4088 681.7343,-131.8322 674.6526,-139.7126 681.1126,-142.4088"/>
</g>
<!-- Node14 -->
<g id="node15" class="node">
<title>Node14</title>
<g id="a_node15"><a xlink:href="DllImport_8h.html" target="_top" xlink:title="DllImport.h">
<polygon fill="#ffffff" stroke="#000000" points="0,-224.5 0,-243.5 71,-243.5 71,-224.5 0,-224.5"/>
<text text-anchor="middle" x="35.5" y="-231.5" font-family="Helvetica,sans-Serif" font-size="10.00" fill="#000000">DllImport.h</text>
</a>
</g>
</g>
<!-- Node8&#45;&gt;Node14 -->
<g id="edge14" class="edge">
<title>Node8&#45;&gt;Node14</title>
<path fill="none" stroke="#191970" d="M485.8086,-288.0262C416.6566,-283.181 239.3652,-269.3285 81.1988,-243.9467"/>
<polygon fill="#191970" stroke="#191970" points="81.7223,-240.4859 71.2905,-242.3372 80.5999,-247.3953 81.7223,-240.4859"/>
</g>
<!-- Node15 -->
<g id="node16" class="node">
<title>Node15</title>
<polygon fill="#ffffff" stroke="#bfbfbf" points="89.5,-224.5 89.5,-243.5 151.5,-243.5 151.5,-224.5 89.5,-224.5"/>
<text text-anchor="middle" x="120.5" y="-231.5" font-family="Helvetica,sans-Serif" font-size="10.00" fill="#000000">snprintf.h</text>
</g>
<!-- Node8&#45;&gt;Node15 -->
<g id="edge15" class="edge">
<title>Node8&#45;&gt;Node15</title>
<path fill="none" stroke="#191970" d="M485.8625,-287.3342C426.3104,-281.7268 287.7495,-267.4174 162.0491,-244.12"/>
<polygon fill="#191970" stroke="#191970" points="162.3411,-240.6137 151.8668,-242.2075 161.0488,-247.4934 162.3411,-240.6137"/>
</g>
<!-- Node16 -->
<g id="node17" class="node">
<title>Node16</title>
<polygon fill="#ffffff" stroke="#bfbfbf" points="170,-224.5 170,-243.5 227,-243.5 227,-224.5 170,-224.5"/>
<text text-anchor="middle" x="198.5" y="-231.5" font-family="Helvetica,sans-Serif" font-size="10.00" fill="#000000">strlcpy.h</text>
</g>
<!-- Node8&#45;&gt;Node16 -->
<g id="edge16" class="edge">
<title>Node8&#45;&gt;Node16</title>
<path fill="none" stroke="#191970" d="M485.5978,-286.0105C436.0425,-279.1965 333.6151,-264.2565 236.9966,-243.937"/>
<polygon fill="#191970" stroke="#191970" points="237.5743,-240.4817 227.0649,-241.8246 236.1179,-247.3285 237.5743,-240.4817"/>
</g>
<!-- Node17 -->
<g id="node18" class="node">
<title>Node17</title>
<polygon fill="#ffffff" stroke="#bfbfbf" points="572.5,-168.5 572.5,-187.5 622.5,-187.5 622.5,-168.5 572.5,-168.5"/>
<text text-anchor="middle" x="597.5" y="-175.5" font-family="Helvetica,sans-Serif" font-size="10.00" fill="#000000">atomic</text>
</g>
<!-- Node8&#45;&gt;Node17 -->
<g id="edge17" class="edge">
<title>Node8&#45;&gt;Node17</title>
<path fill="none" stroke="#191970" d="M544.5852,-280.3819C561.5531,-273.1646 581.6871,-261.4809 592.5,-244 600.9903,-230.2739 601.6693,-211.7426 600.5527,-197.8105"/>
<polygon fill="#191970" stroke="#191970" points="604.0205,-197.3308 599.387,-187.8029 597.0675,-198.1407 604.0205,-197.3308"/>
</g>
<!-- Node18 -->
<g id="node19" class="node">
<title>Node18</title>
<polygon fill="#ffffff" stroke="#bfbfbf" points="245.5,-224.5 245.5,-243.5 295.5,-243.5 295.5,-224.5 245.5,-224.5"/>
<text text-anchor="middle" x="270.5" y="-231.5" font-family="Helvetica,sans-Serif" font-size="10.00" fill="#000000">stdio.h</text>
</g>
<!-- Node8&#45;&gt;Node18 -->
<g id="edge18" class="edge">
<title>Node8&#45;&gt;Node18</title>
<path fill="none" stroke="#191970" d="M485.9886,-284.2588C446.8868,-276.5018 375.5725,-261.8356 305.5622,-244.1441"/>
<polygon fill="#191970" stroke="#191970" points="306.2504,-240.7077 295.6956,-241.6281 304.5207,-247.4906 306.2504,-240.7077"/>
</g>
<!-- Node19 -->
<g id="node20" class="node">
<title>Node19</title>
<polygon fill="#ffffff" stroke="#bfbfbf" points="314,-224.5 314,-243.5 367,-243.5 367,-224.5 314,-224.5"/>
<text text-anchor="middle" x="340.5" y="-231.5" font-family="Helvetica,sans-Serif" font-size="10.00" fill="#000000">string.h</text>
</g>
<!-- Node8&#45;&gt;Node19 -->
<g id="edge19" class="edge">
<title>Node8&#45;&gt;Node19</title>
<path fill="none" stroke="#191970" d="M485.8136,-280.5004C455.808,-270.8986 409.3846,-256.0431 377.1139,-245.7164"/>
<polygon fill="#191970" stroke="#191970" points="377.7634,-242.2495 367.1724,-242.5352 375.6299,-248.9165 377.7634,-242.2495"/>
</g>
<!-- Node20 -->
<g id="node21" class="node">
<title>Node20</title>
<polygon fill="#ffffff" stroke="#bfbfbf" points="336,-168.5 336,-187.5 393,-187.5 393,-168.5 336,-168.5"/>
<text text-anchor="middle" x="364.5" y="-175.5" font-family="Helvetica,sans-Serif" font-size="10.00" fill="#000000">typeinfo</text>
</g>
<!-- Node8&#45;&gt;Node20 -->
<g id="edge20" class="edge">
<title>Node8&#45;&gt;Node20</title>
<path fill="none" stroke="#191970" d="M509.7571,-280.3273C501.0467,-266.3398 483.2904,-240.3544 462.5,-224 444.5552,-209.8841 421.5743,-198.807 402.3772,-191.0632"/>
<polygon fill="#191970" stroke="#191970" points="403.6026,-187.7844 393.0138,-187.4251 401.0674,-194.3092 403.6026,-187.7844"/>
</g>
<!-- Node21 -->
<g id="node22" class="node">
<title>Node21</title>
<polygon fill="#ffffff" stroke="#bfbfbf" points="385,-224.5 385,-243.5 454,-243.5 454,-224.5 385,-224.5"/>
<text text-anchor="middle" x="419.5" y="-231.5" font-family="Helvetica,sans-Serif" font-size="10.00" fill="#000000">type_traits</text>
</g>
<!-- Node8&#45;&gt;Node21 -->
<g id="edge21" class="edge">
<title>Node8&#45;&gt;Node21</title>
<path fill="none" stroke="#191970" d="M498.7781,-280.2455C483.9111,-271.5731 461.9534,-258.7645 444.9142,-248.825"/>
<polygon fill="#191970" stroke="#191970" points="446.4317,-245.6582 436.0303,-243.6427 442.9045,-251.7047 446.4317,-245.6582"/>
</g>
<!-- Node22 -->
<g id="node23" class="node">
<title>Node22</title>
<g id="a_node23"><a xlink:href="TGenericClassInfo_8h.html" target="_top" xlink:title="TGenericClassInfo.h">
<polygon fill="#ffffff" stroke="#000000" points="678.5,-224.5 678.5,-243.5 792.5,-243.5 792.5,-224.5 678.5,-224.5"/>
<text text-anchor="middle" x="735.5" y="-231.5" font-family="Helvetica,sans-Serif" font-size="10.00" fill="#000000">TGenericClassInfo.h</text>
</a>
</g>
</g>
<!-- Node8&#45;&gt;Node22 -->
<g id="edge22" class="edge">
<title>Node8&#45;&gt;Node22</title>
<path fill="none" stroke="#191970" d="M545.2709,-281.1266C580.58,-271.6274 639.8134,-256.5023 682.874,-245.9579"/>
<polygon fill="#191970" stroke="#191970" points="683.7363,-249.3502 692.6232,-243.582 682.0788,-242.5493 683.7363,-249.3502"/>
</g>
<!-- Node26 -->
<g id="node27" class="node">
<title>Node26</title>
<g id="a_node27"><a xlink:href="TIsAProxy_8h.html" target="_top" xlink:title="TIsAProxy.h">
<polygon fill="#ffffff" stroke="#000000" points="511,-224.5 511,-243.5 584,-243.5 584,-224.5 511,-224.5"/>
<text text-anchor="middle" x="547.5" y="-231.5" font-family="Helvetica,sans-Serif" font-size="10.00" fill="#000000">TIsAProxy.h</text>
</a>
</g>
</g>
<!-- Node8&#45;&gt;Node26 -->
<g id="edge28" class="edge">
<title>Node8&#45;&gt;Node26</title>
<path fill="none" stroke="#191970" d="M521.074,-280.2455C525.4331,-272.617 531.6211,-261.7881 536.9133,-252.5267"/>
<polygon fill="#191970" stroke="#191970" points="540.0673,-254.0616 541.9899,-243.6427 533.9896,-250.5886 540.0673,-254.0616"/>
</g>
<!-- Node10 -->
<g id="node11" class="node">
<title>Node10</title>
<g id="a_node11"><a xlink:href="RConfig_8hxx.html" target="_top" xlink:title="ROOT/RConfig.hxx">
<polygon fill="#ffffff" stroke="#000000" points="633,-56.5 633,-75.5 738,-75.5 738,-56.5 633,-56.5"/>
<text text-anchor="middle" x="685.5" y="-63.5" font-family="Helvetica,sans-Serif" font-size="10.00" fill="#000000">ROOT/RConfig.hxx</text>
</a>
</g>
</g>
<!-- Node9&#45;&gt;Node10 -->
<g id="edge10" class="edge">
<title>Node9&#45;&gt;Node10</title>
<path fill="none" stroke="#191970" d="M685.5,-112.2455C685.5,-104.9382 685.5,-94.6944 685.5,-85.7046"/>
<polygon fill="#191970" stroke="#191970" points="689.0001,-85.6426 685.5,-75.6427 682.0001,-85.6427 689.0001,-85.6426"/>
</g>
<!-- Node13 -->
<g id="node14" class="node">
<title>Node13</title>
<polygon fill="#ffffff" stroke="#bfbfbf" points="756.5,-56.5 756.5,-75.5 812.5,-75.5 812.5,-56.5 756.5,-56.5"/>
<text text-anchor="middle" x="784.5" y="-63.5" font-family="Helvetica,sans-Serif" font-size="10.00" fill="#000000">stddef.h</text>
</g>
<!-- Node9&#45;&gt;Node13 -->
<g id="edge13" class="edge">
<title>Node9&#45;&gt;Node13</title>
<path fill="none" stroke="#191970" d="M702.7445,-112.2455C718.0761,-103.5731 740.7199,-90.7645 758.2916,-80.825"/>
<polygon fill="#191970" stroke="#191970" points="760.4724,-83.6126 767.4531,-75.6427 757.0259,-77.5198 760.4724,-83.6126"/>
</g>
<!-- Node11 -->
<g id="node12" class="node">
<title>Node11</title>
<g id="a_node12"><a xlink:href="RVersion_8h.html" target="_top" xlink:title="../RVersion.h">
<polygon fill="#ffffff" stroke="#000000" points="647,-.5 647,-19.5 724,-19.5 724,-.5 647,-.5"/>
<text text-anchor="middle" x="685.5" y="-7.5" font-family="Helvetica,sans-Serif" font-size="10.00" fill="#000000">../RVersion.h</text>
</a>
</g>
</g>
<!-- Node10&#45;&gt;Node11 -->
<g id="edge11" class="edge">
<title>Node10&#45;&gt;Node11</title>
<path fill="none" stroke="#191970" d="M685.5,-56.2455C685.5,-48.9382 685.5,-38.6944 685.5,-29.7046"/>
<polygon fill="#191970" stroke="#191970" points="689.0001,-29.6426 685.5,-19.6427 682.0001,-29.6427 689.0001,-29.6426"/>
</g>
<!-- Node12 -->
<g id="node13" class="node">
<title>Node12</title>
<polygon fill="#ffffff" stroke="#bfbfbf" points="771.5,-.5 771.5,-19.5 849.5,-19.5 849.5,-.5 771.5,-.5"/>
<text text-anchor="middle" x="810.5" y="-7.5" font-family="Helvetica,sans-Serif" font-size="10.00" fill="#000000">RConfigure.h</text>
</g>
<!-- Node10&#45;&gt;Node12 -->
<g id="edge12" class="edge">
<title>Node10&#45;&gt;Node12</title>
<path fill="none" stroke="#191970" d="M706.9883,-56.3733C727.144,-47.3435 757.488,-33.7494 780.118,-23.6111"/>
<polygon fill="#191970" stroke="#191970" points="781.5971,-26.7838 789.2921,-19.5011 778.7351,-20.3955 781.5971,-26.7838"/>
</g>
<!-- Node22&#45;&gt;Node8 -->
<g id="edge27" class="edge">
<title>Node22&#45;&gt;Node8</title>
<path fill="none" stroke="#191970" d="M703.3305,-243.5175C663.9915,-254.062 597.6898,-270.9266 555.2211,-281.1815"/>
<polygon fill="#191970" stroke="#191970" points="554.1395,-277.8416 545.2308,-283.5761 555.7711,-284.6488 554.1395,-277.8416"/>
</g>
<!-- Node23 -->
<g id="node24" class="node">
<title>Node23</title>
<polygon fill="#ffffff" stroke="#bfbfbf" points="799,-168.5 799,-187.5 846,-187.5 846,-168.5 799,-168.5"/>
<text text-anchor="middle" x="822.5" y="-175.5" font-family="Helvetica,sans-Serif" font-size="10.00" fill="#000000">vector</text>
</g>
<!-- Node22&#45;&gt;Node23 -->
<g id="edge23" class="edge">
<title>Node22&#45;&gt;Node23</title>
<path fill="none" stroke="#191970" d="M750.6542,-224.2455C764.0027,-215.6534 783.6586,-203.0014 799.0383,-193.1018"/>
<polygon fill="#191970" stroke="#191970" points="801.0051,-195.9982 807.5194,-187.6427 797.2164,-190.1121 801.0051,-195.9982"/>
</g>
<!-- Node24 -->
<g id="node25" class="node">
<title>Node24</title>
<g id="a_node25"><a xlink:href="TSchemaHelper_8h.html" target="_top" xlink:title="TSchemaHelper.h">
<polygon fill="#ffffff" stroke="#000000" points="678.5,-168.5 678.5,-187.5 780.5,-187.5 780.5,-168.5 678.5,-168.5"/>
<text text-anchor="middle" x="729.5" y="-175.5" font-family="Helvetica,sans-Serif" font-size="10.00" fill="#000000">TSchemaHelper.h</text>
</a>
</g>
</g>
<!-- Node22&#45;&gt;Node24 -->
<g id="edge24" class="edge">
<title>Node22&#45;&gt;Node24</title>
<path fill="none" stroke="#191970" d="M734.4549,-224.2455C733.672,-216.9382 732.5744,-206.6944 731.6112,-197.7046"/>
<polygon fill="#191970" stroke="#191970" points="735.0786,-197.2129 730.5331,-187.6427 728.1185,-197.9587 735.0786,-197.2129"/>
</g>
<!-- Node24&#45;&gt;Node9 -->
<g id="edge25" class="edge">
<title>Node24&#45;&gt;Node9</title>
<path fill="none" stroke="#191970" d="M721.8358,-168.2455C715.6527,-160.3761 706.7937,-149.101 699.3711,-139.6542"/>
<polygon fill="#191970" stroke="#191970" points="702.0068,-137.3435 693.0764,-131.6427 696.5025,-141.6683 702.0068,-137.3435"/>
</g>
<!-- Node25 -->
<g id="node26" class="node">
<title>Node25</title>
<polygon fill="#ffffff" stroke="#bfbfbf" points="773.5,-112.5 773.5,-131.5 817.5,-131.5 817.5,-112.5 773.5,-112.5"/>
<text text-anchor="middle" x="795.5" y="-119.5" font-family="Helvetica,sans-Serif" font-size="10.00" fill="#000000">string</text>
</g>
<!-- Node24&#45;&gt;Node25 -->
<g id="edge26" class="edge">
<title>Node24&#45;&gt;Node25</title>
<path fill="none" stroke="#191970" d="M740.9963,-168.2455C750.7442,-159.9746 764.9259,-147.9416 776.3798,-138.2232"/>
<polygon fill="#191970" stroke="#191970" points="778.7747,-140.7813 784.1354,-131.6427 774.2459,-135.4437 778.7747,-140.7813"/>
</g>
<!-- Node26&#45;&gt;Node9 -->
<g id="edge30" class="edge">
<title>Node26&#45;&gt;Node9</title>
<path fill="none" stroke="#191970" d="M547.1762,-224.2067C547.2429,-210.0692 549.442,-183.8986 563.5,-168 581.5548,-147.5813 609.6156,-136.1939 634.2754,-129.8593"/>
<polygon fill="#191970" stroke="#191970" points="635.3049,-133.2128 644.2394,-127.5184 633.7039,-126.3984 635.3049,-133.2128"/>
</g>
<!-- Node26&#45;&gt;Node17 -->
<g id="edge31" class="edge">
<title>Node26&#45;&gt;Node17</title>
<path fill="none" stroke="#191970" d="M556.2093,-224.2455C563.3073,-216.2958 573.5084,-204.8706 581.995,-195.3656"/>
<polygon fill="#191970" stroke="#191970" points="584.8411,-197.4331 588.8905,-187.6427 579.6195,-192.771 584.8411,-197.4331"/>
</g>
<!-- Node26&#45;&gt;Node20 -->
<g id="edge32" class="edge">
<title>Node26&#45;&gt;Node20</title>
<path fill="none" stroke="#191970" d="M516.0412,-224.3733C484.7384,-214.7943 436.6504,-200.0788 403.0652,-189.8014"/>
<polygon fill="#191970" stroke="#191970" points="403.7289,-186.3443 393.1425,-186.7649 401.6806,-193.0379 403.7289,-186.3443"/>
</g>
<!-- Node27 -->
<g id="node28" class="node">
<title>Node27</title>
<g id="a_node28"><a xlink:href="TVirtualIsAProxy_8h.html" target="_top" xlink:title="TVirtualIsAProxy.h">
<polygon fill="#ffffff" stroke="#000000" points="411,-168.5 411,-187.5 516,-187.5 516,-168.5 411,-168.5"/>
<text text-anchor="middle" x="463.5" y="-175.5" font-family="Helvetica,sans-Serif" font-size="10.00" fill="#000000">TVirtualIsAProxy.h</text>
</a>
</g>
</g>
<!-- Node26&#45;&gt;Node27 -->
<g id="edge29" class="edge">
<title>Node26&#45;&gt;Node27</title>
<path fill="none" stroke="#191970" d="M532.8683,-224.2455C520.1006,-215.7337 501.3562,-203.2375 486.5701,-193.3801"/>
<polygon fill="#191970" stroke="#191970" points="488.226,-190.2775 477.964,-187.6427 484.3431,-196.1019 488.226,-190.2775"/>
</g>
<!-- Node29&#45;&gt;Node25 -->
<g id="edge35" class="edge">
<title>Node29&#45;&gt;Node25</title>
<path fill="none" stroke="#191970" d="M845.4377,-392.3601C860.6981,-384.5996 880.4011,-372.3005 892.5,-356 910.7678,-331.3881 912.5,-320.6506 912.5,-290 912.5,-290 912.5,-290 912.5,-234 912.5,-186.4502 861.4494,-152.8497 826.7914,-135.5175"/>
<polygon fill="#191970" stroke="#191970" points="828.0368,-132.233 817.5068,-131.0622 825.0083,-138.544 828.0368,-132.233"/>
</g>
<!-- Node30 -->
<g id="node31" class="node">
<title>Node30</title>
<polygon fill="#ffffff" stroke="#bfbfbf" points="940.5,-336.5 940.5,-355.5 996.5,-355.5 996.5,-336.5 940.5,-336.5"/>
<text text-anchor="middle" x="968.5" y="-343.5" font-family="Helvetica,sans-Serif" font-size="10.00" fill="#000000">sstream</text>
</g>
<!-- Node29&#45;&gt;Node30 -->
<g id="edge36" class="edge">
<title>Node29&#45;&gt;Node30</title>
<path fill="none" stroke="#191970" d="M848.4264,-392.3733C872.1202,-383.2226 907.9511,-369.3844 934.3068,-359.2057"/>
<polygon fill="#191970" stroke="#191970" points="935.8314,-362.3689 943.8989,-355.5011 933.3094,-355.8389 935.8314,-362.3689"/>
</g>
<!-- Node31 -->
<g id="node32" class="node">
<title>Node31</title>
<polygon fill="#ffffff" stroke="#bfbfbf" points="703,-336.5 703,-355.5 750,-355.5 750,-336.5 703,-336.5"/>
<text text-anchor="middle" x="726.5" y="-343.5" font-family="Helvetica,sans-Serif" font-size="10.00" fill="#000000">cmath</text>
</g>
<!-- Node29&#45;&gt;Node31 -->
<g id="edge37" class="edge">
<title>Node29&#45;&gt;Node31</title>
<path fill="none" stroke="#191970" d="M806.6039,-392.2455C791.582,-383.5731 769.3957,-370.7645 752.179,-360.825"/>
<polygon fill="#191970" stroke="#191970" points="753.6128,-357.6114 743.2025,-355.6427 750.1129,-363.6737 753.6128,-357.6114"/>
</g>
<!-- Node32 -->
<g id="node33" class="node">
<title>Node32</title>
<polygon fill="#ffffff" stroke="#bfbfbf" points="768.5,-336.5 768.5,-355.5 812.5,-355.5 812.5,-336.5 768.5,-336.5"/>
<text text-anchor="middle" x="790.5" y="-343.5" font-family="Helvetica,sans-Serif" font-size="10.00" fill="#000000">limits</text>
</g>
<!-- Node29&#45;&gt;Node32 -->
<g id="edge38" class="edge">
<title>Node29&#45;&gt;Node32</title>
<path fill="none" stroke="#191970" d="M817.7518,-392.2455C813.2565,-384.617 806.8752,-373.7881 801.4175,-364.5267"/>
<polygon fill="#191970" stroke="#191970" points="804.2747,-362.4811 796.1823,-355.6427 798.2439,-366.035 804.2747,-362.4811"/>
</g>
<!-- Node33 -->
<g id="node34" class="node">
<title>Node33</title>
<g id="a_node34"><a xlink:href="math_2mathcore_2inc_2Math_2Types_8h.html" target="_top" xlink:title="Types.h">
<polygon fill="#ffffff" stroke="#000000" points="831,-336.5 831,-355.5 884,-355.5 884,-336.5 831,-336.5"/>
<text text-anchor="middle" x="857.5" y="-343.5" font-family="Helvetica,sans-Serif" font-size="10.00" fill="#000000">Types.h</text>
</a>
</g>
</g>
<!-- Node29&#45;&gt;Node33 -->
<g id="edge39" class="edge">
<title>Node29&#45;&gt;Node33</title>
<path fill="none" stroke="#191970" d="M829.4223,-392.2455C834.1027,-384.5367 840.7673,-373.5598 846.4289,-364.2348"/>
<polygon fill="#191970" stroke="#191970" points="849.4475,-366.007 851.6455,-355.6427 843.4639,-362.3741 849.4475,-366.007"/>
</g>
<!-- Node33&#45;&gt;Node8 -->
<g id="edge41" class="edge">
<title>Node33&#45;&gt;Node8</title>
<path fill="none" stroke="#191970" d="M830.8531,-338.2088C827.714,-337.4067 824.5451,-336.6493 821.5,-336 726.8311,-315.8143 613.8375,-301.2558 555.2116,-294.4029"/>
<polygon fill="#191970" stroke="#191970" points="555.5911,-290.9235 545.2554,-293.2523 554.7875,-297.8772 555.5911,-290.9235"/>
</g>
<!-- Node33&#45;&gt;Node12 -->
<g id="edge40" class="edge">
<title>Node33&#45;&gt;Node12</title>
<path fill="none" stroke="#191970" d="M859.9357,-336.4856C864.6363,-317.2608 874.5,-272.351 874.5,-234 874.5,-234 874.5,-234 874.5,-122 874.5,-84.2379 846.7346,-47.6312 827.7798,-27.0404"/>
<polygon fill="#191970" stroke="#191970" points="830.2231,-24.5312 820.7827,-19.7219 825.1635,-29.3686 830.2231,-24.5312"/>
</g>
<!-- Node35&#45;&gt;Node3 -->
<g id="edge45" class="edge">
<title>Node35&#45;&gt;Node3</title>
<path fill="none" stroke="#191970" d="M919.3555,-560.3733C899.6108,-551.3838 869.9302,-537.8706 847.6945,-527.7471"/>
<polygon fill="#191970" stroke="#191970" points="848.92,-524.4594 838.3685,-523.5011 846.0194,-530.8302 848.92,-524.4594"/>
</g>
<!-- Node35&#45;&gt;Node4 -->
<g id="edge46" class="edge">
<title>Node35&#45;&gt;Node4</title>
<path fill="none" stroke="#191970" d="M1014.6751,-562.4109C1065.6621,-554.1379 1119.79,-537.3326 1093.5,-504 1078.0103,-484.3608 1017.7794,-472.1636 968.8556,-465.306"/>
<polygon fill="#191970" stroke="#191970" points="969.3019,-461.8346 958.9233,-463.964 968.3646,-468.7716 969.3019,-461.8346"/>
</g>
<!-- Node35&#45;&gt;Node5 -->
<g id="edge49" class="edge">
<title>Node35&#45;&gt;Node5</title>
<path fill="none" stroke="#191970" d="M891.489,-560.4369C841.8553,-550.7522 765.0727,-535.7703 712.2166,-525.4569"/>
<polygon fill="#191970" stroke="#191970" points="712.794,-522.0036 702.3088,-523.5237 711.4534,-528.8741 712.794,-522.0036"/>
</g>
<!-- Node35&#45;&gt;Node34 -->
<g id="edge50" class="edge">
<title>Node35&#45;&gt;Node34</title>
<path fill="none" stroke="#191970" d="M940.5,-560.2455C940.5,-552.9382 940.5,-542.6944 940.5,-533.7046"/>
<polygon fill="#191970" stroke="#191970" points="944.0001,-533.6426 940.5,-523.6427 937.0001,-533.6427 944.0001,-533.6426"/>
</g>
<!-- Node36 -->
<g id="node37" class="node">
<title>Node36</title>
<g id="a_node37"><a xlink:href="IFunction_8h.html" target="_top" xlink:title="Math/IFunction.h">
<polygon fill="#ffffff" stroke="#000000" points="988.5,-504.5 988.5,-523.5 1084.5,-523.5 1084.5,-504.5 988.5,-504.5"/>
<text text-anchor="middle" x="1036.5" y="-511.5" font-family="Helvetica,sans-Serif" font-size="10.00" fill="#000000">Math/IFunction.h</text>
</a>
</g>
</g>
<!-- Node35&#45;&gt;Node36 -->
<g id="edge47" class="edge">
<title>Node35&#45;&gt;Node36</title>
<path fill="none" stroke="#191970" d="M957.2219,-560.2455C972.0889,-551.5731 994.0466,-538.7645 1011.0858,-528.825"/>
<polygon fill="#191970" stroke="#191970" points="1013.0955,-531.7047 1019.9697,-523.6427 1009.5683,-525.6582 1013.0955,-531.7047"/>
</g>
<!-- Node36&#45;&gt;Node4 -->
<g id="edge48" class="edge">
<title>Node36&#45;&gt;Node4</title>
<path fill="none" stroke="#191970" d="M1013.2927,-504.3733C991.3301,-495.2629 958.1668,-481.5062 933.6599,-471.3404"/>
<polygon fill="#191970" stroke="#191970" points="934.9824,-468.0999 924.4045,-467.5011 932.3003,-474.5657 934.9824,-468.0999"/>
</g>
<!-- Node37&#45;&gt;Node38 -->
<g id="edge52" class="edge">
<title>Node37&#45;&gt;Node38</title>
<path fill="none" stroke="#191970" d="M1101.5,-616.2455C1101.5,-608.9382 1101.5,-598.6944 1101.5,-589.7046"/>
<polygon fill="#191970" stroke="#191970" points="1105.0001,-589.6426 1101.5,-579.6427 1098.0001,-589.6427 1105.0001,-589.6426"/>
</g>
<!-- Node39&#45;&gt;Node38 -->
<g id="edge54" class="edge">
<title>Node39&#45;&gt;Node38</title>
<path fill="none" stroke="#191970" d="M1205.0117,-616.3733C1184.856,-607.3435 1154.512,-593.7494 1131.882,-583.6111"/>
<polygon fill="#191970" stroke="#191970" points="1133.2649,-580.3955 1122.7079,-579.5011 1130.4029,-586.7838 1133.2649,-580.3955"/>
</g>
</g>
</svg>
        <g id="navigator" transform="translate(0 0)" fill="#404254">
                <rect fill="#f2f5e9" fill-opacity="0.5" stroke="#606060" stroke-width=".5" x="0" y="0" width="60" height="60"/>
                <use id="zoomplus" xlink:href="#zoomPlus" x="17" y="9" onmousedown="handleZoom(evt,'in')"/>
                <use id="zoomminus" xlink:href="#zoomMin" x="42" y="9" onmousedown="handleZoom(evt,'out')"/>
                <use id="reset" xlink:href="#resetDef" x="30" y="36" onmousedown="handleReset()"/>
                <g id="arrowUp" xlink:href="#dirArrow" transform="translate(30 24)" onmousedown="handlePan(0,-1)">
                  <use xlink:href="#rim" fill="#404040">
                        <set attributeName="fill" to="#808080" begin="arrowUp.mouseover" end="arrowUp.mouseout"/>
                  </use>
                  <path fill="none" stroke="white" stroke-width="1.5" d="M0,-3.0v7 M-2.5,-0.5L0,-3.0L2.5,-0.5"/>
                </g>
                <g id="arrowRight" xlink:href="#dirArrow" transform="rotate(90) translate(36 -43)" onmousedown="handlePan(1,0)">
                  <use xlink:href="#rim" fill="#404040">
                        <set attributeName="fill" to="#808080" begin="arrowRight.mouseover" end="arrowRight.mouseout"/>
                  </use>
                  <path fill="none" stroke="white" stroke-width="1.5" d="M0,-3.0v7 M-2.5,-0.5L0,-3.0L2.5,-0.5"/>
                </g>
                <g id="arrowDown" xlink:href="#dirArrow" transform="rotate(180) translate(-30 -48)" onmousedown="handlePan(0,1)">
                  <use xlink:href="#rim" fill="#404040">
                        <set attributeName="fill" to="#808080" begin="arrowDown.mouseover" end="arrowDown.mouseout"/>
                  </use>
                  <path fill="none" stroke="white" stroke-width="1.5" d="M0,-3.0v7 M-2.5,-0.5L0,-3.0L2.5,-0.5"/>
                </g>
                <g id="arrowLeft" xlink:href="#dirArrow" transform="rotate(270) translate(-36 17)" onmousedown="handlePan(-1,0)">
                  <use xlink:href="#rim" fill="#404040">
                        <set attributeName="fill" to="#808080" begin="arrowLeft.mouseover" end="arrowLeft.mouseout"/>
                  </use>
                  <path fill="none" stroke="white" stroke-width="1.5" d="M0,-3.0v7 M-2.5,-0.5L0,-3.0L2.5,-0.5"/>
                </g>
        </g>
        <svg viewBox="0 0 15 15" width="100%" height="30px" preserveAspectRatio="xMaxYMin meet">
         <g id="arrow_out" transform="scale(0.3 0.3)">
          <a xlink:href="RootFinderAlgorithms_8cxx__incl_org.svg" target="_base">
           <rect id="button" ry="5" rx="5" y="6" x="6" height="38" width="38"
                fill="#f2f5e9" fill-opacity="0.5" stroke="#606060" stroke-width="1.0"/>
           <path id="arrow"
             d="M 11.500037,31.436501 C 11.940474,20.09759 22.043105,11.32322 32.158766,21.979434 L 37.068811,17.246167 C 37.068811,17.246167 37.088388,32 37.088388,32 L 22.160133,31.978069 C 22.160133,31.978069 26.997745,27.140456 26.997745,27.140456 C 18.528582,18.264221 13.291696,25.230495 11.500037,31.436501 z"
             style="fill:#404040;"/>
          </a>
         </g>
        </svg>
</svg>
