<?xml version="1.0" encoding="UTF-8" standalone="no"?>
<!DOCTYPE svg PUBLIC "-//W3C//DTD SVG 1.1//EN"
 "http://www.w3.org/Graphics/SVG/1.1/DTD/svg11.dtd">
<!-- Generated by graphviz version 2.40.1 (0)
 -->
<!-- Title: roofit/roofitcore/inc/RooTruthModel.h Pages: 1 -->
<svg width="574pt" height="106pt"
 viewBox="0.00 0.00 573.50 106.00" xmlns="http://www.w3.org/2000/svg" xmlns:xlink="http://www.w3.org/1999/xlink">
<g id="graph0" class="graph" transform="scale(1 1) rotate(0) translate(4 102)">
<title>roofit/roofitcore/inc/RooTruthModel.h</title>
<polygon fill="#ffffff" stroke="transparent" points="-4,4 -4,-102 569.5,-102 569.5,4 -4,4"/>
<!-- Node130 -->
<g id="node1" class="node">
<title>Node130</title>
<polygon fill="#bfbfbf" stroke="#000000" points="242.5,-67.5 242.5,-97.5 351.5,-97.5 351.5,-67.5 242.5,-67.5"/>
<text text-anchor="start" x="250.5" y="-85.5" font-family="Helvetica,sans-Serif" font-size="10.00" fill="#000000">roofit/roofitcore/inc</text>
<text text-anchor="middle" x="297" y="-74.5" font-family="Helvetica,sans-Serif" font-size="10.00" fill="#000000">/RooTruthModel.h</text>
</g>
<!-- Node131 -->
<g id="node2" class="node">
<title>Node131</title>
<g id="a_node2"><a xlink:href="RooAbsAnaConvPdf_8cxx.html" target="_top" xlink:title="roofit/roofitcore/src\l/RooAbsAnaConvPdf.cxx">
<polygon fill="#ffffff" stroke="#000000" points="0,-.5 0,-30.5 134,-30.5 134,-.5 0,-.5"/>
<text text-anchor="start" x="8" y="-18.5" font-family="Helvetica,sans-Serif" font-size="10.00" fill="#000000">roofit/roofitcore/src</text>
<text text-anchor="middle" x="67" y="-7.5" font-family="Helvetica,sans-Serif" font-size="10.00" fill="#000000">/RooAbsAnaConvPdf.cxx</text>
</a>
</g>
</g>
<!-- Node130&#45;&gt;Node131 -->
<g id="edge1" class="edge">
<title>Node130&#45;&gt;Node131</title>
<path fill="none" stroke="#191970" d="M235.3752,-64.5484C198.9693,-53.9432 153.3925,-40.6665 118.8416,-30.6017"/>
<polygon fill="#191970" stroke="#191970" points="234.8037,-68.0274 245.3835,-67.4639 236.7615,-61.3067 234.8037,-68.0274"/>
</g>
<!-- Node132 -->
<g id="node3" class="node">
<title>Node132</title>
<g id="a_node3"><a xlink:href="RooConvGenContext_8cxx.html" target="_top" xlink:title=" &#160;">
<polygon fill="#ffffff" stroke="#000000" points="152,-.5 152,-30.5 292,-30.5 292,-.5 152,-.5"/>
<text text-anchor="start" x="160" y="-18.5" font-family="Helvetica,sans-Serif" font-size="10.00" fill="#000000">roofit/roofitcore/src</text>
<text text-anchor="middle" x="222" y="-7.5" font-family="Helvetica,sans-Serif" font-size="10.00" fill="#000000">/RooConvGenContext.cxx</text>
</a>
</g>
</g>
<!-- Node130&#45;&gt;Node132 -->
<g id="edge2" class="edge">
<title>Node130&#45;&gt;Node132</title>
<path fill="none" stroke="#191970" d="M272.3692,-60.4965C261.4246,-50.7193 248.8157,-39.4554 238.9513,-30.6432"/>
<polygon fill="#191970" stroke="#191970" points="270.1919,-63.2447 279.9813,-67.2967 274.8555,-58.0243 270.1919,-63.2447"/>
</g>
<!-- Node133 -->
<g id="node4" class="node">
<title>Node133</title>
<g id="a_node4"><a xlink:href="RooSimPdfBuilder_8cxx.html" target="_top" xlink:title="roofit/roofitcore/src\l/RooSimPdfBuilder.cxx">
<polygon fill="#ffffff" stroke="#000000" points="310,-.5 310,-30.5 436,-30.5 436,-.5 310,-.5"/>
<text text-anchor="start" x="318" y="-18.5" font-family="Helvetica,sans-Serif" font-size="10.00" fill="#000000">roofit/roofitcore/src</text>
<text text-anchor="middle" x="373" y="-7.5" font-family="Helvetica,sans-Serif" font-size="10.00" fill="#000000">/RooSimPdfBuilder.cxx</text>
</a>
</g>
</g>
<!-- Node130&#45;&gt;Node133 -->
<g id="edge3" class="edge">
<title>Node130&#45;&gt;Node133</title>
<path fill="none" stroke="#191970" d="M321.9592,-60.4965C333.0497,-50.7193 345.8267,-39.4554 355.8227,-30.6432"/>
<polygon fill="#191970" stroke="#191970" points="319.4323,-58.0582 314.2456,-67.2967 324.0614,-63.3091 319.4323,-58.0582"/>
</g>
<!-- Node134 -->
<g id="node5" class="node">
<title>Node134</title>
<g id="a_node5"><a xlink:href="RooTruthModel_8cxx.html" target="_top" xlink:title=" &#160;">
<polygon fill="#ffffff" stroke="#000000" points="454.5,-.5 454.5,-30.5 565.5,-30.5 565.5,-.5 454.5,-.5"/>
<text text-anchor="start" x="462.5" y="-18.5" font-family="Helvetica,sans-Serif" font-size="10.00" fill="#000000">roofit/roofitcore/src</text>
<text text-anchor="middle" x="510" y="-7.5" font-family="Helvetica,sans-Serif" font-size="10.00" fill="#000000">/RooTruthModel.cxx</text>
</a>
</g>
</g>
<!-- Node130&#45;&gt;Node134 -->
<g id="edge4" class="edge">
<title>Node130&#45;&gt;Node134</title>
<path fill="none" stroke="#191970" d="M354.5027,-64.4123C388.1455,-53.8298 430.1298,-40.6235 461.9902,-30.6017"/>
<polygon fill="#191970" stroke="#191970" points="353.2903,-61.1245 344.8014,-67.4639 355.3908,-67.802 353.2903,-61.1245"/>
</g>
</g>
</svg>
