<?xml version="1.0" encoding="UTF-8" standalone="no"?>
<!DOCTYPE svg PUBLIC "-//W3C//DTD SVG 1.1//EN"
 "http://www.w3.org/Graphics/SVG/1.1/DTD/svg11.dtd">
<!-- Generated by graphviz version 2.40.1 (0)
 -->
<!-- Title: roofit/roofitcore/inc/RooVectorDataStore.h Pages: 1 -->
<svg width="1215pt" height="106pt"
 viewBox="0.00 0.00 1215.00 106.00" xmlns="http://www.w3.org/2000/svg" xmlns:xlink="http://www.w3.org/1999/xlink">
<g id="graph0" class="graph" transform="scale(1 1) rotate(0) translate(4 102)">
<title>roofit/roofitcore/inc/RooVectorDataStore.h</title>
<polygon fill="#ffffff" stroke="transparent" points="-4,4 -4,-102 1211,-102 1211,4 -4,4"/>
<!-- Node123 -->
<g id="node1" class="node">
<title>Node123</title>
<polygon fill="#bfbfbf" stroke="#000000" points="553.5,-67.5 553.5,-97.5 679.5,-97.5 679.5,-67.5 553.5,-67.5"/>
<text text-anchor="start" x="561.5" y="-85.5" font-family="Helvetica,sans-Serif" font-size="10.00" fill="#000000">roofit/roofitcore/inc</text>
<text text-anchor="middle" x="616.5" y="-74.5" font-family="Helvetica,sans-Serif" font-size="10.00" fill="#000000">/RooVectorDataStore.h</text>
</g>
<!-- Node124 -->
<g id="node2" class="node">
<title>Node124</title>
<g id="a_node2"><a xlink:href="RooAbsArg_8cxx.html" target="_top" xlink:title="roofit/roofitcore/src\l/RooAbsArg.cxx">
<polygon fill="#ffffff" stroke="#000000" points="0,-.5 0,-30.5 109,-30.5 109,-.5 0,-.5"/>
<text text-anchor="start" x="8" y="-18.5" font-family="Helvetica,sans-Serif" font-size="10.00" fill="#000000">roofit/roofitcore/src</text>
<text text-anchor="middle" x="54.5" y="-7.5" font-family="Helvetica,sans-Serif" font-size="10.00" fill="#000000">/RooAbsArg.cxx</text>
</a>
</g>
</g>
<!-- Node123&#45;&gt;Node124 -->
<g id="edge1" class="edge">
<title>Node123&#45;&gt;Node124</title>
<path fill="none" stroke="#191970" d="M543.4351,-78.1378C445.8186,-71.5863 267.7083,-57.1001 117.5,-31 114.7257,-30.5179 111.8924,-29.9822 109.0381,-29.4079"/>
<polygon fill="#191970" stroke="#191970" points="543.2822,-81.6352 553.4916,-78.8037 543.7447,-74.6505 543.2822,-81.6352"/>
</g>
<!-- Node125 -->
<g id="node3" class="node">
<title>Node125</title>
<g id="a_node3"><a xlink:href="RooAbsCategory_8cxx.html" target="_top" xlink:title=" &#160;">
<polygon fill="#ffffff" stroke="#000000" points="127,-.5 127,-30.5 246,-30.5 246,-.5 127,-.5"/>
<text text-anchor="start" x="135" y="-18.5" font-family="Helvetica,sans-Serif" font-size="10.00" fill="#000000">roofit/roofitcore/src</text>
<text text-anchor="middle" x="186.5" y="-7.5" font-family="Helvetica,sans-Serif" font-size="10.00" fill="#000000">/RooAbsCategory.cxx</text>
</a>
</g>
</g>
<!-- Node123&#45;&gt;Node125 -->
<g id="edge2" class="edge">
<title>Node123&#45;&gt;Node125</title>
<path fill="none" stroke="#191970" d="M543.4057,-73.9055C470.0839,-64.861 354.064,-49.397 254.5,-31 251.7614,-30.494 248.9661,-29.9538 246.1462,-29.3896"/>
<polygon fill="#191970" stroke="#191970" points="543.1105,-77.3955 553.4622,-75.1388 543.9626,-70.4475 543.1105,-77.3955"/>
</g>
<!-- Node126 -->
<g id="node4" class="node">
<title>Node126</title>
<g id="a_node4"><a xlink:href="RooAbsData_8cxx.html" target="_top" xlink:title=" &#160;">
<polygon fill="#ffffff" stroke="#000000" points="264,-.5 264,-30.5 373,-30.5 373,-.5 264,-.5"/>
<text text-anchor="start" x="272" y="-18.5" font-family="Helvetica,sans-Serif" font-size="10.00" fill="#000000">roofit/roofitcore/src</text>
<text text-anchor="middle" x="318.5" y="-7.5" font-family="Helvetica,sans-Serif" font-size="10.00" fill="#000000">/RooAbsData.cxx</text>
</a>
</g>
</g>
<!-- Node123&#45;&gt;Node126 -->
<g id="edge3" class="edge">
<title>Node123&#45;&gt;Node126</title>
<path fill="none" stroke="#191970" d="M543.4313,-66.831C497.2361,-56.8229 436.3058,-43.435 382.5,-31 379.4925,-30.3049 376.4076,-29.5841 373.2949,-28.8506"/>
<polygon fill="#191970" stroke="#191970" points="542.8394,-70.2839 553.3534,-68.9778 544.3197,-63.4422 542.8394,-70.2839"/>
</g>
<!-- Node127 -->
<g id="node5" class="node">
<title>Node127</title>
<g id="a_node5"><a xlink:href="RooAbsOptTestStatistic_8cxx.html" target="_top" xlink:title=" &#160;">
<polygon fill="#ffffff" stroke="#000000" points="391.5,-.5 391.5,-30.5 543.5,-30.5 543.5,-.5 391.5,-.5"/>
<text text-anchor="start" x="399.5" y="-18.5" font-family="Helvetica,sans-Serif" font-size="10.00" fill="#000000">roofit/roofitcore/src</text>
<text text-anchor="middle" x="467.5" y="-7.5" font-family="Helvetica,sans-Serif" font-size="10.00" fill="#000000">/RooAbsOptTestStatistic.cxx</text>
</a>
</g>
</g>
<!-- Node123&#45;&gt;Node127 -->
<g id="edge4" class="edge">
<title>Node123&#45;&gt;Node127</title>
<path fill="none" stroke="#191970" d="M573.8309,-63.3132C550.7325,-52.9267 522.6064,-40.2794 501.0844,-30.6017"/>
<polygon fill="#191970" stroke="#191970" points="572.5057,-66.5549 583.0615,-67.4639 575.3765,-60.1706 572.5057,-66.5549"/>
</g>
<!-- Node128 -->
<g id="node6" class="node">
<title>Node128</title>
<g id="a_node6"><a xlink:href="RooAbsReal_8cxx.html" target="_top" xlink:title="roofit/roofitcore/src\l/RooAbsReal.cxx">
<polygon fill="#ffffff" stroke="#000000" points="562,-.5 562,-30.5 671,-30.5 671,-.5 562,-.5"/>
<text text-anchor="start" x="570" y="-18.5" font-family="Helvetica,sans-Serif" font-size="10.00" fill="#000000">roofit/roofitcore/src</text>
<text text-anchor="middle" x="616.5" y="-7.5" font-family="Helvetica,sans-Serif" font-size="10.00" fill="#000000">/RooAbsReal.cxx</text>
</a>
</g>
</g>
<!-- Node123&#45;&gt;Node128 -->
<g id="edge5" class="edge">
<title>Node123&#45;&gt;Node128</title>
<path fill="none" stroke="#191970" d="M616.5,-57.0249C616.5,-48.128 616.5,-38.4287 616.5,-30.6432"/>
<polygon fill="#191970" stroke="#191970" points="613.0001,-57.2966 616.5,-67.2967 620.0001,-57.2967 613.0001,-57.2966"/>
</g>
<!-- Node129 -->
<g id="node7" class="node">
<title>Node129</title>
<g id="a_node7"><a xlink:href="RooDataHist_8cxx.html" target="_top" xlink:title=" &#160;">
<polygon fill="#ffffff" stroke="#000000" points="689,-.5 689,-30.5 798,-30.5 798,-.5 689,-.5"/>
<text text-anchor="start" x="697" y="-18.5" font-family="Helvetica,sans-Serif" font-size="10.00" fill="#000000">roofit/roofitcore/src</text>
<text text-anchor="middle" x="743.5" y="-7.5" font-family="Helvetica,sans-Serif" font-size="10.00" fill="#000000">/RooDataHist.cxx</text>
</a>
</g>
</g>
<!-- Node123&#45;&gt;Node129 -->
<g id="edge6" class="edge">
<title>Node123&#45;&gt;Node129</title>
<path fill="none" stroke="#191970" d="M653.8905,-62.7743C673.3022,-52.5335 696.6556,-40.2132 714.6544,-30.7177"/>
<polygon fill="#191970" stroke="#191970" points="652.2128,-59.7021 645.0013,-67.4639 655.4791,-65.8934 652.2128,-59.7021"/>
</g>
<!-- Node130 -->
<g id="node8" class="node">
<title>Node130</title>
<g id="a_node8"><a xlink:href="RooDataSet_8cxx.html" target="_top" xlink:title=" &#160;">
<polygon fill="#ffffff" stroke="#000000" points="816,-.5 816,-30.5 925,-30.5 925,-.5 816,-.5"/>
<text text-anchor="start" x="824" y="-18.5" font-family="Helvetica,sans-Serif" font-size="10.00" fill="#000000">roofit/roofitcore/src</text>
<text text-anchor="middle" x="870.5" y="-7.5" font-family="Helvetica,sans-Serif" font-size="10.00" fill="#000000">/RooDataSet.cxx</text>
</a>
</g>
</g>
<!-- Node123&#45;&gt;Node130 -->
<g id="edge7" class="edge">
<title>Node123&#45;&gt;Node130</title>
<path fill="none" stroke="#191970" d="M683.2189,-64.9009C724.5607,-53.9958 776.9989,-40.1637 815.8656,-29.9114"/>
<polygon fill="#191970" stroke="#191970" points="682.2791,-61.529 673.5026,-67.4639 684.0645,-68.2975 682.2791,-61.529"/>
</g>
<!-- Node131 -->
<g id="node9" class="node">
<title>Node131</title>
<g id="a_node9"><a xlink:href="RooRealVar_8cxx.html" target="_top" xlink:title=" &#160;">
<polygon fill="#ffffff" stroke="#000000" points="943,-.5 943,-30.5 1052,-30.5 1052,-.5 943,-.5"/>
<text text-anchor="start" x="951" y="-18.5" font-family="Helvetica,sans-Serif" font-size="10.00" fill="#000000">roofit/roofitcore/src</text>
<text text-anchor="middle" x="997.5" y="-7.5" font-family="Helvetica,sans-Serif" font-size="10.00" fill="#000000">/RooRealVar.cxx</text>
</a>
</g>
</g>
<!-- Node123&#45;&gt;Node131 -->
<g id="edge8" class="edge">
<title>Node123&#45;&gt;Node131</title>
<path fill="none" stroke="#191970" d="M689.6163,-72.3709C754.2672,-63.0076 851.0081,-48.0027 934.5,-31 937.2593,-30.4381 940.0805,-29.8381 942.9251,-29.2128"/>
<polygon fill="#191970" stroke="#191970" points="688.9216,-68.9347 679.5227,-73.8246 689.9196,-75.8632 688.9216,-68.9347"/>
</g>
<!-- Node132 -->
<g id="node10" class="node">
<title>Node132</title>
<g id="a_node10"><a xlink:href="RooVectorDataStore_8cxx.html" target="_top" xlink:title=" &#160;">
<polygon fill="#ffffff" stroke="#000000" points="1070,-.5 1070,-30.5 1207,-30.5 1207,-.5 1070,-.5"/>
<text text-anchor="start" x="1078" y="-18.5" font-family="Helvetica,sans-Serif" font-size="10.00" fill="#000000">roofit/roofitcore/src</text>
<text text-anchor="middle" x="1138.5" y="-7.5" font-family="Helvetica,sans-Serif" font-size="10.00" fill="#000000">/RooVectorDataStore.cxx</text>
</a>
</g>
</g>
<!-- Node123&#45;&gt;Node132 -->
<g id="edge9" class="edge">
<title>Node123&#45;&gt;Node132</title>
<path fill="none" stroke="#191970" d="M689.9286,-75.8963C778.3597,-67.5068 931.2667,-51.6071 1061.5,-31 1064.1937,-30.5738 1066.9365,-30.1195 1069.7043,-29.6443"/>
<polygon fill="#191970" stroke="#191970" points="689.3607,-72.4342 679.7333,-76.8573 690.0176,-79.4033 689.3607,-72.4342"/>
</g>
</g>
</svg>
