<?xml version="1.0" encoding="UTF-8" standalone="no"?>
<!DOCTYPE svg PUBLIC "-//W3C//DTD SVG 1.1//EN"
 "http://www.w3.org/Graphics/SVG/1.1/DTD/svg11.dtd">
<!-- Generated by graphviz version 2.40.1 (0)
 -->
<!-- Title: graf2d/gpadv7/v7/inc/ROOT/RPadPos.hxx Pages: 1 -->
<svg width="592pt" height="374pt"
 viewBox="0.00 0.00 592.26 374.00" xmlns="http://www.w3.org/2000/svg" xmlns:xlink="http://www.w3.org/1999/xlink">
<g id="graph0" class="graph" transform="scale(1 1) rotate(0) translate(4 370)">
<title>graf2d/gpadv7/v7/inc/ROOT/RPadPos.hxx</title>
<polygon fill="#ffffff" stroke="transparent" points="-4,4 -4,-370 588.2584,-370 588.2584,4 -4,4"/>
<!-- Node5 -->
<g id="node1" class="node">
<title>Node5</title>
<polygon fill="#bfbfbf" stroke="#000000" points="240.2584,-335.5 240.2584,-365.5 359.2584,-365.5 359.2584,-335.5 240.2584,-335.5"/>
<text text-anchor="start" x="248.2584" y="-353.5" font-family="Helvetica,sans-Serif" font-size="10.00" fill="#000000">graf2d/gpadv7/v7/inc</text>
<text text-anchor="middle" x="299.7584" y="-342.5" font-family="Helvetica,sans-Serif" font-size="10.00" fill="#000000">/ROOT/RPadPos.hxx</text>
</g>
<!-- Node6 -->
<g id="node2" class="node">
<title>Node6</title>
<g id="a_node2"><a xlink:href="RAttrBox_8hxx.html" target="_top" xlink:title="graf2d/gpadv7/v7/inc\l/ROOT/RAttrBox.hxx">
<polygon fill="#ffffff" stroke="#000000" points="89.2584,-268.5 89.2584,-298.5 208.2584,-298.5 208.2584,-268.5 89.2584,-268.5"/>
<text text-anchor="start" x="97.2584" y="-286.5" font-family="Helvetica,sans-Serif" font-size="10.00" fill="#000000">graf2d/gpadv7/v7/inc</text>
<text text-anchor="middle" x="148.7584" y="-275.5" font-family="Helvetica,sans-Serif" font-size="10.00" fill="#000000">/ROOT/RAttrBox.hxx</text>
</a>
</g>
</g>
<!-- Node5&#45;&gt;Node6 -->
<g id="edge1" class="edge">
<title>Node5&#45;&gt;Node6</title>
<path fill="none" stroke="#191970" d="M256.5166,-331.3132C233.1081,-320.9267 204.6045,-308.2794 182.7935,-298.6017"/>
<polygon fill="#191970" stroke="#191970" points="255.3109,-334.6073 265.8711,-335.4639 258.15,-328.2089 255.3109,-334.6073"/>
</g>
<!-- Node8 -->
<g id="node4" class="node">
<title>Node8</title>
<g id="a_node4"><a xlink:href="RPad_8hxx.html" target="_top" xlink:title="graf2d/gpadv7/v7/inc\l/ROOT/RPad.hxx">
<polygon fill="#ffffff" stroke="#000000" points="152.2584,-134.5 152.2584,-164.5 271.2584,-164.5 271.2584,-134.5 152.2584,-134.5"/>
<text text-anchor="start" x="160.2584" y="-152.5" font-family="Helvetica,sans-Serif" font-size="10.00" fill="#000000">graf2d/gpadv7/v7/inc</text>
<text text-anchor="middle" x="211.7584" y="-141.5" font-family="Helvetica,sans-Serif" font-size="10.00" fill="#000000">/ROOT/RPad.hxx</text>
</a>
</g>
</g>
<!-- Node5&#45;&gt;Node8 -->
<g id="edge14" class="edge">
<title>Node5&#45;&gt;Node8</title>
<path fill="none" stroke="#191970" d="M289.0986,-326.152C270.6795,-284.0812 233.4221,-198.9819 218.3294,-164.5088"/>
<polygon fill="#191970" stroke="#191970" points="285.9273,-327.6355 293.1441,-335.3923 292.3396,-324.8281 285.9273,-327.6355"/>
</g>
<!-- Node11 -->
<g id="node7" class="node">
<title>Node11</title>
<g id="a_node7"><a xlink:href="RPad_8cxx.html" target="_top" xlink:title="graf2d/gpadv7/v7/src\l/RPad.cxx">
<polygon fill="#ffffff" stroke="#000000" points="202.2584,-.5 202.2584,-30.5 321.2584,-30.5 321.2584,-.5 202.2584,-.5"/>
<text text-anchor="start" x="210.2584" y="-18.5" font-family="Helvetica,sans-Serif" font-size="10.00" fill="#000000">graf2d/gpadv7/v7/src</text>
<text text-anchor="middle" x="261.7584" y="-7.5" font-family="Helvetica,sans-Serif" font-size="10.00" fill="#000000">/RPad.cxx</text>
</a>
</g>
</g>
<!-- Node5&#45;&gt;Node11 -->
<g id="edge15" class="edge">
<title>Node5&#45;&gt;Node11</title>
<path fill="none" stroke="#191970" d="M299.7584,-325.1092C299.7584,-298.1594 299.7584,-254.3265 299.7584,-216.5 299.7584,-216.5 299.7584,-216.5 299.7584,-149.5 299.7584,-105.0065 280.1275,-55.2478 269.0852,-30.778"/>
<polygon fill="#191970" stroke="#191970" points="296.2585,-325.227 299.7584,-335.2271 303.2585,-325.2271 296.2585,-325.227"/>
</g>
<!-- Node15 -->
<g id="node11" class="node">
<title>Node15</title>
<g id="a_node11"><a xlink:href="RPadPos_8cxx.html" target="_top" xlink:title="graf2d/gpadv7/v7/src\l/RPadPos.cxx">
<polygon fill="#ffffff" stroke="#000000" points="328.2584,-268.5 328.2584,-298.5 447.2584,-298.5 447.2584,-268.5 328.2584,-268.5"/>
<text text-anchor="start" x="336.2584" y="-286.5" font-family="Helvetica,sans-Serif" font-size="10.00" fill="#000000">graf2d/gpadv7/v7/src</text>
<text text-anchor="middle" x="387.7584" y="-275.5" font-family="Helvetica,sans-Serif" font-size="10.00" fill="#000000">/RPadPos.cxx</text>
</a>
</g>
</g>
<!-- Node5&#45;&gt;Node15 -->
<g id="edge16" class="edge">
<title>Node5&#45;&gt;Node15</title>
<path fill="none" stroke="#191970" d="M327.9127,-329.0643C340.9244,-319.1577 356.0698,-307.6265 367.8689,-298.6432"/>
<polygon fill="#191970" stroke="#191970" points="325.5632,-326.4542 319.727,-335.2967 329.8036,-332.0237 325.5632,-326.4542"/>
</g>
<!-- Node16 -->
<g id="node12" class="node">
<title>Node16</title>
<g id="a_node12"><a xlink:href="RStyle_8cxx.html" target="_top" xlink:title="graf2d/gpadv7/v7/src\l/RStyle.cxx">
<polygon fill="#ffffff" stroke="#000000" points="465.2584,-268.5 465.2584,-298.5 584.2584,-298.5 584.2584,-268.5 465.2584,-268.5"/>
<text text-anchor="start" x="473.2584" y="-286.5" font-family="Helvetica,sans-Serif" font-size="10.00" fill="#000000">graf2d/gpadv7/v7/src</text>
<text text-anchor="middle" x="524.7584" y="-275.5" font-family="Helvetica,sans-Serif" font-size="10.00" fill="#000000">/RStyle.cxx</text>
</a>
</g>
</g>
<!-- Node5&#45;&gt;Node16 -->
<g id="edge17" class="edge">
<title>Node5&#45;&gt;Node16</title>
<path fill="none" stroke="#191970" d="M360.0436,-332.5484C395.658,-321.9432 440.244,-308.6665 474.0438,-298.6017"/>
<polygon fill="#191970" stroke="#191970" points="358.838,-329.2555 350.2528,-335.4639 360.8358,-335.9643 358.838,-329.2555"/>
</g>
<!-- Node7 -->
<g id="node3" class="node">
<title>Node7</title>
<g id="a_node3"><a xlink:href="RFrame_8hxx.html" target="_top" xlink:title="graf2d/gpadv7/v7/inc\l/ROOT/RFrame.hxx">
<polygon fill="#ffffff" stroke="#000000" points="40.2584,-201.5 40.2584,-231.5 159.2584,-231.5 159.2584,-201.5 40.2584,-201.5"/>
<text text-anchor="start" x="48.2584" y="-219.5" font-family="Helvetica,sans-Serif" font-size="10.00" fill="#000000">graf2d/gpadv7/v7/inc</text>
<text text-anchor="middle" x="99.7584" y="-208.5" font-family="Helvetica,sans-Serif" font-size="10.00" fill="#000000">/ROOT/RFrame.hxx</text>
</a>
</g>
</g>
<!-- Node6&#45;&gt;Node7 -->
<g id="edge2" class="edge">
<title>Node6&#45;&gt;Node7</title>
<path fill="none" stroke="#191970" d="M131.6176,-260.0626C124.7203,-250.6315 116.9652,-240.0276 110.8333,-231.6432"/>
<polygon fill="#191970" stroke="#191970" points="128.9112,-262.2911 137.6395,-268.2967 134.5614,-258.1588 128.9112,-262.2911"/>
</g>
<!-- Node7&#45;&gt;Node8 -->
<g id="edge3" class="edge">
<title>Node7&#45;&gt;Node8</title>
<path fill="none" stroke="#191970" d="M133.8999,-196.0761C150.7812,-185.9774 170.8059,-173.9983 186.3198,-164.7177"/>
<polygon fill="#191970" stroke="#191970" points="131.6783,-193.3266 124.8934,-201.4639 135.2719,-199.3338 131.6783,-193.3266"/>
</g>
<!-- Node12 -->
<g id="node8" class="node">
<title>Node12</title>
<g id="a_node8"><a xlink:href="RPadDisplayItem_8hxx.html" target="_top" xlink:title="graf2d/gpadv7/v7/inc\l/ROOT/RPadDisplayItem.hxx">
<polygon fill="#ffffff" stroke="#000000" points="78.2584,-67.5 78.2584,-97.5 233.2584,-97.5 233.2584,-67.5 78.2584,-67.5"/>
<text text-anchor="start" x="86.2584" y="-85.5" font-family="Helvetica,sans-Serif" font-size="10.00" fill="#000000">graf2d/gpadv7/v7/inc</text>
<text text-anchor="middle" x="155.7584" y="-74.5" font-family="Helvetica,sans-Serif" font-size="10.00" fill="#000000">/ROOT/RPadDisplayItem.hxx</text>
</a>
</g>
</g>
<!-- Node7&#45;&gt;Node12 -->
<g id="edge12" class="edge">
<title>Node7&#45;&gt;Node12</title>
<path fill="none" stroke="#191970" d="M41.311,-196.7814C27.2401,-189.1303 13.9272,-178.7899 5.7584,-165 -1.2636,-153.146 -2.2474,-145.2131 5.7584,-134 15.9577,-119.7145 53.2052,-106.8841 88.0283,-97.6029"/>
<polygon fill="#191970" stroke="#191970" points="40.1103,-200.0939 50.6205,-201.4302 43.2376,-193.8313 40.1103,-200.0939"/>
</g>
<!-- Node14 -->
<g id="node10" class="node">
<title>Node14</title>
<g id="a_node10"><a xlink:href="RFrame_8cxx.html" target="_top" xlink:title="graf2d/gpadv7/v7/src\l/RFrame.cxx">
<polygon fill="#ffffff" stroke="#000000" points="15.2584,-134.5 15.2584,-164.5 134.2584,-164.5 134.2584,-134.5 15.2584,-134.5"/>
<text text-anchor="start" x="23.2584" y="-152.5" font-family="Helvetica,sans-Serif" font-size="10.00" fill="#000000">graf2d/gpadv7/v7/src</text>
<text text-anchor="middle" x="74.7584" y="-141.5" font-family="Helvetica,sans-Serif" font-size="10.00" fill="#000000">/RFrame.cxx</text>
</a>
</g>
</g>
<!-- Node7&#45;&gt;Node14 -->
<g id="edge13" class="edge">
<title>Node7&#45;&gt;Node14</title>
<path fill="none" stroke="#191970" d="M90.5801,-191.9021C87.1724,-182.7696 83.4097,-172.6854 80.4088,-164.6432"/>
<polygon fill="#191970" stroke="#191970" points="87.3104,-193.1512 94.0855,-201.2967 93.8687,-190.704 87.3104,-193.1512"/>
</g>
<!-- Node9 -->
<g id="node5" class="node">
<title>Node9</title>
<g id="a_node5"><a xlink:href="RCanvas_8hxx.html" target="_top" xlink:title="graf2d/gpadv7/v7/inc\l/ROOT/RCanvas.hxx">
<polygon fill="#ffffff" stroke="#000000" points="328.2584,-67.5 328.2584,-97.5 447.2584,-97.5 447.2584,-67.5 328.2584,-67.5"/>
<text text-anchor="start" x="336.2584" y="-85.5" font-family="Helvetica,sans-Serif" font-size="10.00" fill="#000000">graf2d/gpadv7/v7/inc</text>
<text text-anchor="middle" x="387.7584" y="-74.5" font-family="Helvetica,sans-Serif" font-size="10.00" fill="#000000">/ROOT/RCanvas.hxx</text>
</a>
</g>
</g>
<!-- Node8&#45;&gt;Node9 -->
<g id="edge4" class="edge">
<title>Node8&#45;&gt;Node9</title>
<path fill="none" stroke="#191970" d="M260.71,-130.865C288.2598,-120.3773 322.2143,-107.4515 348.0883,-97.6017"/>
<polygon fill="#191970" stroke="#191970" points="259.3567,-127.6351 251.2562,-134.4639 261.8472,-134.1771 259.3567,-127.6351"/>
</g>
<!-- Node8&#45;&gt;Node11 -->
<g id="edge10" class="edge">
<title>Node8&#45;&gt;Node11</title>
<path fill="none" stroke="#191970" d="M228.163,-125.8036C233.4398,-117.3323 238.9102,-107.5212 242.7584,-98 251.9011,-75.3793 257.1758,-47.406 259.7546,-30.533"/>
<polygon fill="#191970" stroke="#191970" points="225.0984,-124.0969 222.599,-134.3928 230.9734,-127.9027 225.0984,-124.0969"/>
</g>
<!-- Node8&#45;&gt;Node12 -->
<g id="edge7" class="edge">
<title>Node8&#45;&gt;Node12</title>
<path fill="none" stroke="#191970" d="M192.4099,-126.3509C184.4673,-116.8482 175.4948,-106.1132 168.4154,-97.6432"/>
<polygon fill="#191970" stroke="#191970" points="189.9525,-128.8684 199.0511,-134.2967 195.3235,-124.3792 189.9525,-128.8684"/>
</g>
<!-- Node13 -->
<g id="node9" class="node">
<title>Node13</title>
<g id="a_node9"><a xlink:href="RPadPainter_8cxx.html" target="_top" xlink:title="graf2d/gpadv7/v7/src\l/RPadPainter.cxx">
<polygon fill="#ffffff" stroke="#000000" points="28.2584,-.5 28.2584,-30.5 147.2584,-30.5 147.2584,-.5 28.2584,-.5"/>
<text text-anchor="start" x="36.2584" y="-18.5" font-family="Helvetica,sans-Serif" font-size="10.00" fill="#000000">graf2d/gpadv7/v7/src</text>
<text text-anchor="middle" x="87.7584" y="-7.5" font-family="Helvetica,sans-Serif" font-size="10.00" fill="#000000">/RPadPainter.cxx</text>
</a>
</g>
</g>
<!-- Node8&#45;&gt;Node13 -->
<g id="edge11" class="edge">
<title>Node8&#45;&gt;Node13</title>
<path fill="none" stroke="#191970" d="M142.4002,-132.6371C110.621,-123.3697 77.9705,-111.1089 68.7584,-98 54.4767,-77.6769 67.3316,-48.2326 77.7184,-30.5669"/>
<polygon fill="#191970" stroke="#191970" points="141.6325,-136.0573 152.2079,-135.4147 143.54,-129.3222 141.6325,-136.0573"/>
</g>
<!-- Node10 -->
<g id="node6" class="node">
<title>Node10</title>
<g id="a_node6"><a xlink:href="RCanvas_8cxx.html" target="_top" xlink:title="graf2d/gpadv7/v7/src\l/RCanvas.cxx">
<polygon fill="#ffffff" stroke="#000000" points="339.2584,-.5 339.2584,-30.5 458.2584,-30.5 458.2584,-.5 339.2584,-.5"/>
<text text-anchor="start" x="347.2584" y="-18.5" font-family="Helvetica,sans-Serif" font-size="10.00" fill="#000000">graf2d/gpadv7/v7/src</text>
<text text-anchor="middle" x="398.7584" y="-7.5" font-family="Helvetica,sans-Serif" font-size="10.00" fill="#000000">/RCanvas.cxx</text>
</a>
</g>
</g>
<!-- Node9&#45;&gt;Node10 -->
<g id="edge5" class="edge">
<title>Node9&#45;&gt;Node10</title>
<path fill="none" stroke="#191970" d="M391.8928,-57.3179C393.3665,-48.3414 394.9799,-38.5143 396.2722,-30.6432"/>
<polygon fill="#191970" stroke="#191970" points="388.4209,-56.8617 390.2545,-67.2967 395.3284,-57.9958 388.4209,-56.8617"/>
</g>
<!-- Node9&#45;&gt;Node11 -->
<g id="edge6" class="edge">
<title>Node9&#45;&gt;Node11</title>
<path fill="none" stroke="#191970" d="M350.4006,-62.6352C331.1939,-52.422 308.1531,-40.1702 290.3768,-30.7177"/>
<polygon fill="#191970" stroke="#191970" points="349.0089,-65.8591 359.4815,-67.4639 352.2954,-59.6786 349.0089,-65.8591"/>
</g>
<!-- Node12&#45;&gt;Node11 -->
<g id="edge8" class="edge">
<title>Node12&#45;&gt;Node11</title>
<path fill="none" stroke="#191970" d="M188.0709,-62.0761C204.0478,-51.9774 222.9998,-39.9983 237.6826,-30.7177"/>
<polygon fill="#191970" stroke="#191970" points="186.1298,-59.1624 179.5469,-67.4639 189.8699,-65.0795 186.1298,-59.1624"/>
</g>
<!-- Node12&#45;&gt;Node13 -->
<g id="edge9" class="edge">
<title>Node12&#45;&gt;Node13</title>
<path fill="none" stroke="#191970" d="M133.137,-60.2113C123.2817,-50.5009 111.9845,-39.3698 103.1276,-30.6432"/>
<polygon fill="#191970" stroke="#191970" points="130.7484,-62.7713 140.3281,-67.2967 135.6614,-57.785 130.7484,-62.7713"/>
</g>
</g>
</svg>
