<?xml version="1.0" encoding="UTF-8" standalone="no"?>
<!DOCTYPE svg PUBLIC "-//W3C//DTD SVG 1.1//EN"
 "http://www.w3.org/Graphics/SVG/1.1/DTD/svg11.dtd">
<!-- Generated by graphviz version 2.40.1 (0)
 -->
<!-- Title: math/minuit2/inc/Minuit2/SimplexParameters.h Pages: 1 -->
<svg width="312pt" height="106pt"
 viewBox="0.00 0.00 312.00 106.00" xmlns="http://www.w3.org/2000/svg" xmlns:xlink="http://www.w3.org/1999/xlink">
<g id="graph0" class="graph" transform="scale(1 1) rotate(0) translate(4 102)">
<title>math/minuit2/inc/Minuit2/SimplexParameters.h</title>
<polygon fill="#ffffff" stroke="transparent" points="-4,4 -4,-102 308,-102 308,4 -4,4"/>
<!-- Node21 -->
<g id="node1" class="node">
<title>Node21</title>
<polygon fill="#bfbfbf" stroke="#000000" points="82,-67.5 82,-97.5 221,-97.5 221,-67.5 82,-67.5"/>
<text text-anchor="start" x="90" y="-85.5" font-family="Helvetica,sans-Serif" font-size="10.00" fill="#000000">math/minuit2/inc/Minuit2</text>
<text text-anchor="middle" x="151.5" y="-74.5" font-family="Helvetica,sans-Serif" font-size="10.00" fill="#000000">/SimplexParameters.h</text>
</g>
<!-- Node22 -->
<g id="node2" class="node">
<title>Node22</title>
<g id="a_node2"><a xlink:href="SimplexBuilder_8cxx.html" target="_top" xlink:title="math/minuit2/src/Simplex\lBuilder.cxx">
<polygon fill="#ffffff" stroke="#000000" points="0,-.5 0,-30.5 143,-30.5 143,-.5 0,-.5"/>
<text text-anchor="start" x="8" y="-18.5" font-family="Helvetica,sans-Serif" font-size="10.00" fill="#000000">math/minuit2/src/Simplex</text>
<text text-anchor="middle" x="71.5" y="-7.5" font-family="Helvetica,sans-Serif" font-size="10.00" fill="#000000">Builder.cxx</text>
</a>
</g>
</g>
<!-- Node21&#45;&gt;Node22 -->
<g id="edge1" class="edge">
<title>Node21&#45;&gt;Node22</title>
<path fill="none" stroke="#191970" d="M125.5667,-60.7808C113.8144,-50.9383 100.2056,-39.541 89.5814,-30.6432"/>
<polygon fill="#191970" stroke="#191970" points="123.433,-63.5592 133.3468,-67.2967 127.9275,-58.1927 123.433,-63.5592"/>
</g>
<!-- Node23 -->
<g id="node3" class="node">
<title>Node23</title>
<g id="a_node3"><a xlink:href="SimplexParameters_8cxx.html" target="_top" xlink:title="math/minuit2/src/Simplex\lParameters.cxx">
<polygon fill="#ffffff" stroke="#000000" points="161,-.5 161,-30.5 304,-30.5 304,-.5 161,-.5"/>
<text text-anchor="start" x="169" y="-18.5" font-family="Helvetica,sans-Serif" font-size="10.00" fill="#000000">math/minuit2/src/Simplex</text>
<text text-anchor="middle" x="232.5" y="-7.5" font-family="Helvetica,sans-Serif" font-size="10.00" fill="#000000">Parameters.cxx</text>
</a>
</g>
</g>
<!-- Node21&#45;&gt;Node23 -->
<g id="edge2" class="edge">
<title>Node21&#45;&gt;Node23</title>
<path fill="none" stroke="#191970" d="M177.7575,-60.7808C189.6567,-50.9383 203.4356,-39.541 214.1926,-30.6432"/>
<polygon fill="#191970" stroke="#191970" points="175.3549,-58.2259 169.8802,-67.2967 179.8165,-63.6198 175.3549,-58.2259"/>
</g>
</g>
</svg>
