<?xml version="1.0" encoding="UTF-8" standalone="no"?>
<!DOCTYPE svg PUBLIC "-//W3C//DTD SVG 1.1//EN"
 "http://www.w3.org/Graphics/SVG/1.1/DTD/svg11.dtd">
<!-- Generated by graphviz version 2.40.1 (0)
 -->
<!-- Title: math/minuit2/src/SqrtLowParameterTransformation.cxx Pages: 1 -->
<svg width="336pt" height="162pt"
 viewBox="0.00 0.00 335.50 162.00" xmlns="http://www.w3.org/2000/svg" xmlns:xlink="http://www.w3.org/1999/xlink">
<g id="graph0" class="graph" transform="scale(1 1) rotate(0) translate(4 158)">
<title>math/minuit2/src/SqrtLowParameterTransformation.cxx</title>
<polygon fill="#ffffff" stroke="transparent" points="-4,4 -4,-158 331.5,-158 331.5,4 -4,4"/>
<!-- Node0 -->
<g id="node1" class="node">
<title>Node0</title>
<polygon fill="#bfbfbf" stroke="#000000" points="78,-123.5 78,-153.5 239,-153.5 239,-123.5 78,-123.5"/>
<text text-anchor="start" x="86" y="-141.5" font-family="Helvetica,sans-Serif" font-size="10.00" fill="#000000">math/minuit2/src/SqrtLow</text>
<text text-anchor="middle" x="158.5" y="-130.5" font-family="Helvetica,sans-Serif" font-size="10.00" fill="#000000">ParameterTransformation.cxx</text>
</g>
<!-- Node1 -->
<g id="node2" class="node">
<title>Node1</title>
<g id="a_node2"><a xlink:href="SqrtLowParameterTransformation_8h.html" target="_top" xlink:title="Minuit2/SqrtLowParameter\lTransformation.h">
<polygon fill="#ffffff" stroke="#000000" points="0,-56.5 0,-86.5 145,-86.5 145,-56.5 0,-56.5"/>
<text text-anchor="start" x="8" y="-74.5" font-family="Helvetica,sans-Serif" font-size="10.00" fill="#000000">Minuit2/SqrtLowParameter</text>
<text text-anchor="middle" x="72.5" y="-63.5" font-family="Helvetica,sans-Serif" font-size="10.00" fill="#000000">Transformation.h</text>
</a>
</g>
</g>
<!-- Node0&#45;&gt;Node1 -->
<g id="edge1" class="edge">
<title>Node0&#45;&gt;Node1</title>
<path fill="none" stroke="#191970" d="M138.9853,-123.2967C127.4398,-114.302 112.636,-102.7687 99.9294,-92.8694"/>
<polygon fill="#191970" stroke="#191970" points="101.9771,-90.028 91.9375,-86.6432 97.6751,-95.55 101.9771,-90.028"/>
</g>
<!-- Node2 -->
<g id="node3" class="node">
<title>Node2</title>
<g id="a_node3"><a xlink:href="MnMachinePrecision_8h.html" target="_top" xlink:title="Minuit2/MnMachinePrecision.h">
<polygon fill="#ffffff" stroke="#000000" points="163.5,-62 163.5,-81 327.5,-81 327.5,-62 163.5,-62"/>
<text text-anchor="middle" x="245.5" y="-69" font-family="Helvetica,sans-Serif" font-size="10.00" fill="#000000">Minuit2/MnMachinePrecision.h</text>
</a>
</g>
</g>
<!-- Node0&#45;&gt;Node2 -->
<g id="edge2" class="edge">
<title>Node0&#45;&gt;Node2</title>
<path fill="none" stroke="#191970" d="M178.2416,-123.2967C192.1915,-112.5537 210.8435,-98.1895 224.9668,-87.3129"/>
<polygon fill="#191970" stroke="#191970" points="227.3055,-89.9295 233.0928,-81.055 223.0344,-84.3835 227.3055,-89.9295"/>
</g>
<!-- Node3 -->
<g id="node4" class="node">
<title>Node3</title>
<polygon fill="#ffffff" stroke="#bfbfbf" points="220,-.5 220,-19.5 271,-19.5 271,-.5 220,-.5"/>
<text text-anchor="middle" x="245.5" y="-7.5" font-family="Helvetica,sans-Serif" font-size="10.00" fill="#000000">math.h</text>
</g>
<!-- Node2&#45;&gt;Node3 -->
<g id="edge3" class="edge">
<title>Node2&#45;&gt;Node3</title>
<path fill="none" stroke="#191970" d="M245.5,-61.8906C245.5,-53.3657 245.5,-40.6392 245.5,-29.9235"/>
<polygon fill="#191970" stroke="#191970" points="249.0001,-29.7448 245.5,-19.7449 242.0001,-29.7449 249.0001,-29.7448"/>
</g>
</g>
</svg>
