<?xml version="1.0" encoding="UTF-8" standalone="no"?>
<!DOCTYPE svg PUBLIC "-//W3C//DTD SVG 1.1//EN"
 "http://www.w3.org/Graphics/SVG/1.1/DTD/svg11.dtd">
<!-- Generated by graphviz version 2.40.1 (0)
 -->
<!-- Title: ROOT::Experimental::Internal::RFieldHeader Pages: 1 -->
<svg width="141pt" height="196pt"
 viewBox="0.00 0.00 140.50 196.00" xmlns="http://www.w3.org/2000/svg" xmlns:xlink="http://www.w3.org/1999/xlink">
<g id="graph0" class="graph" transform="scale(1 1) rotate(0) translate(4 192)">
<title>ROOT::Experimental::Internal::RFieldHeader</title>
<polygon fill="#ffffff" stroke="transparent" points="-4,4 -4,-192 136.5,-192 136.5,4 -4,4"/>
<!-- Node1 -->
<g id="node1" class="node">
<title>Node1</title>
<polygon fill="#bfbfbf" stroke="#000000" points="0,-.5 0,-30.5 131,-30.5 131,-.5 0,-.5"/>
<text text-anchor="start" x="8" y="-18.5" font-family="Helvetica,sans-Serif" font-size="10.00" fill="#000000">ROOT::Experimental</text>
<text text-anchor="middle" x="65.5" y="-7.5" font-family="Helvetica,sans-Serif" font-size="10.00" fill="#000000">::Internal::RFieldHeader</text>
</g>
<!-- Node2 -->
<g id="node2" class="node">
<title>Node2</title>
<g id="a_node2"><a xlink:title="STL class. ">
<polygon fill="#ffffff" stroke="#bfbfbf" points="33,-100.5 33,-119.5 98,-119.5 98,-100.5 33,-100.5"/>
<text text-anchor="middle" x="65.5" y="-107.5" font-family="Helvetica,sans-Serif" font-size="10.00" fill="#000000">std::string</text>
</a>
</g>
</g>
<!-- Node2&#45;&gt;Node1 -->
<g id="edge1" class="edge">
<title>Node2&#45;&gt;Node1</title>
<path fill="none" stroke="#9a32cd" stroke-dasharray="5,2" d="M65.5,-90.1282C65.5,-72.3779 65.5,-46.7574 65.5,-30.6257"/>
<polygon fill="#9a32cd" stroke="#9a32cd" points="62.0001,-90.2427 65.5,-100.2428 69.0001,-90.2428 62.0001,-90.2427"/>
<text text-anchor="middle" x="99" y="-74" font-family="Helvetica,sans-Serif" font-size="10.00" fill="#000000"> fParentName</text>
<text text-anchor="middle" x="99" y="-63" font-family="Helvetica,sans-Serif" font-size="10.00" fill="#000000">fType</text>
<text text-anchor="middle" x="99" y="-52" font-family="Helvetica,sans-Serif" font-size="10.00" fill="#000000">fName</text>
</g>
<!-- Node3 -->
<g id="node3" class="node">
<title>Node3</title>
<polygon fill="#ffffff" stroke="#bfbfbf" points="13.5,-157.5 13.5,-187.5 117.5,-187.5 117.5,-157.5 13.5,-157.5"/>
<text text-anchor="start" x="21.5" y="-175.5" font-family="Helvetica,sans-Serif" font-size="10.00" fill="#000000">std::basic_string&lt;</text>
<text text-anchor="middle" x="65.5" y="-164.5" font-family="Helvetica,sans-Serif" font-size="10.00" fill="#000000"> char &gt;</text>
</g>
<!-- Node3&#45;&gt;Node2 -->
<g id="edge2" class="edge">
<title>Node3&#45;&gt;Node2</title>
<path fill="none" stroke="#191970" d="M65.5,-147.3498C65.5,-137.6481 65.5,-127.1303 65.5,-119.7356"/>
<polygon fill="#191970" stroke="#191970" points="62.0001,-147.3705 65.5,-157.3705 69.0001,-147.3705 62.0001,-147.3705"/>
</g>
</g>
</svg>
