<?xml version="1.0" encoding="UTF-8" standalone="no"?>
<!DOCTYPE svg PUBLIC "-//W3C//DTD SVG 1.1//EN"
 "http://www.w3.org/Graphics/SVG/1.1/DTD/svg11.dtd">
<!-- Generated by graphviz version 2.40.1 (0)
 -->
<!-- Title: ROOT::Detail::TCollectionProxyInfo::Pushback&lt; Internal::TStdBitsetHelper&lt; Bitset_t &gt; &gt; Pages: 1 -->
<svg width="578pt" height="50pt"
 viewBox="0.00 0.00 578.00 50.00" xmlns="http://www.w3.org/2000/svg" xmlns:xlink="http://www.w3.org/1999/xlink">
<g id="graph0" class="graph" transform="scale(1 1) rotate(0) translate(4 46)">
<title>ROOT::Detail::TCollectionProxyInfo::Pushback&lt; Internal::TStdBitsetHelper&lt; Bitset_t &gt; &gt;</title>
<polygon fill="#ffffff" stroke="transparent" points="-4,4 -4,-46 574,-46 574,4 -4,4"/>
<!-- Node3 -->
<g id="node1" class="node">
<title>Node3</title>
<polygon fill="#bfbfbf" stroke="#000000" points="394,-.5 394,-41.5 570,-41.5 570,-.5 394,-.5"/>
<text text-anchor="start" x="402" y="-29.5" font-family="Helvetica,sans-Serif" font-size="10.00" fill="#000000">ROOT::Detail::TCollection</text>
<text text-anchor="start" x="402" y="-18.5" font-family="Helvetica,sans-Serif" font-size="10.00" fill="#000000">ProxyInfo::Pushback&lt; Internal</text>
<text text-anchor="middle" x="482" y="-7.5" font-family="Helvetica,sans-Serif" font-size="10.00" fill="#000000">::TStdBitsetHelper&lt; Bitset_t &gt; &gt;</text>
</g>
<!-- Node4 -->
<g id="node2" class="node">
<title>Node4</title>
<g id="a_node2"><a xlink:href="structROOT_1_1Detail_1_1TCollectionProxyInfo_1_1Type_3_01Internal_1_1TStdBitsetHelper_3_01Bitset__t_01_4_01_4.html" target="_top" xlink:title="ROOT::Detail::TCollection\lProxyInfo::Type\&lt; Internal\l::TStdBitsetHelper\&lt; Bitset_t \&gt; \&gt;">
<polygon fill="#ffffff" stroke="#000000" points="182,-.5 182,-41.5 358,-41.5 358,-.5 182,-.5"/>
<text text-anchor="start" x="190" y="-29.5" font-family="Helvetica,sans-Serif" font-size="10.00" fill="#000000">ROOT::Detail::TCollection</text>
<text text-anchor="start" x="190" y="-18.5" font-family="Helvetica,sans-Serif" font-size="10.00" fill="#000000">ProxyInfo::Type&lt; Internal</text>
<text text-anchor="middle" x="270" y="-7.5" font-family="Helvetica,sans-Serif" font-size="10.00" fill="#000000">::TStdBitsetHelper&lt; Bitset_t &gt; &gt;</text>
</a>
</g>
</g>
<!-- Node4&#45;&gt;Node3 -->
<g id="edge1" class="edge">
<title>Node4&#45;&gt;Node3</title>
<path fill="none" stroke="#191970" d="M368.1073,-21C376.7003,-21 385.363,-21 393.8676,-21"/>
<polygon fill="#191970" stroke="#191970" points="368.0654,-17.5001 358.0653,-21 368.0653,-24.5001 368.0654,-17.5001"/>
</g>
<!-- Node5 -->
<g id="node3" class="node">
<title>Node5</title>
<g id="a_node3"><a xlink:href="structROOT_1_1Detail_1_1TCollectionProxyInfo_1_1Address.html" target="_top" xlink:title="ROOT::Detail::TCollection\lProxyInfo::Address\&lt; const\l Bool_t &amp;\&gt;">
<polygon fill="#ffffff" stroke="#000000" points="0,-.5 0,-41.5 146,-41.5 146,-.5 0,-.5"/>
<text text-anchor="start" x="8" y="-29.5" font-family="Helvetica,sans-Serif" font-size="10.00" fill="#000000">ROOT::Detail::TCollection</text>
<text text-anchor="start" x="8" y="-18.5" font-family="Helvetica,sans-Serif" font-size="10.00" fill="#000000">ProxyInfo::Address&lt; const</text>
<text text-anchor="middle" x="73" y="-7.5" font-family="Helvetica,sans-Serif" font-size="10.00" fill="#000000"> Bool_t &amp;&gt;</text>
</a>
</g>
</g>
<!-- Node5&#45;&gt;Node4 -->
<g id="edge2" class="edge">
<title>Node5&#45;&gt;Node4</title>
<path fill="none" stroke="#191970" d="M156.2507,-21C164.6684,-21 173.2384,-21 181.7067,-21"/>
<polygon fill="#191970" stroke="#191970" points="156.0756,-17.5001 146.0756,-21 156.0755,-24.5001 156.0756,-17.5001"/>
</g>
</g>
</svg>
