<?xml version="1.0" encoding="UTF-8" standalone="no"?>
<!DOCTYPE svg PUBLIC "-//W3C//DTD SVG 1.1//EN"
 "http://www.w3.org/Graphics/SVG/1.1/DTD/svg11.dtd">
<!-- Generated by graphviz version 2.40.1 (0)
 -->
<!-- Title: tmva/tmva/src/SVKernelFunction.cxx Pages: 1 -->
<svg width="950pt" height="476pt"
 viewBox="0.00 0.00 949.50 476.00" xmlns="http://www.w3.org/2000/svg" xmlns:xlink="http://www.w3.org/1999/xlink">
<g id="graph0" class="graph" transform="scale(1 1) rotate(0) translate(4 472)">
<title>tmva/tmva/src/SVKernelFunction.cxx</title>
<polygon fill="#ffffff" stroke="transparent" points="-4,4 -4,-472 945.5,-472 945.5,4 -4,4"/>
<!-- Node0 -->
<g id="node1" class="node">
<title>Node0</title>
<polygon fill="#bfbfbf" stroke="#000000" points="111.5,-448.5 111.5,-467.5 306.5,-467.5 306.5,-448.5 111.5,-448.5"/>
<text text-anchor="middle" x="209" y="-455.5" font-family="Helvetica,sans-Serif" font-size="10.00" fill="#000000">tmva/tmva/src/SVKernelFunction.cxx</text>
</g>
<!-- Node1 -->
<g id="node2" class="node">
<title>Node1</title>
<g id="a_node2"><a xlink:href="SVKernelFunction_8h.html" target="_top" xlink:title="TMVA/SVKernelFunction.h">
<polygon fill="#ffffff" stroke="#000000" points="180,-392.5 180,-411.5 320,-411.5 320,-392.5 180,-392.5"/>
<text text-anchor="middle" x="250" y="-399.5" font-family="Helvetica,sans-Serif" font-size="10.00" fill="#000000">TMVA/SVKernelFunction.h</text>
</a>
</g>
</g>
<!-- Node0&#45;&gt;Node1 -->
<g id="edge1" class="edge">
<title>Node0&#45;&gt;Node1</title>
<path fill="none" stroke="#191970" d="M216.1417,-448.2455C221.8444,-440.4564 229.99,-429.3308 236.8625,-419.9439"/>
<polygon fill="#191970" stroke="#191970" points="239.8568,-421.7789 242.9402,-411.6427 234.2087,-417.6437 239.8568,-421.7789"/>
</g>
<!-- Node17 -->
<g id="node18" class="node">
<title>Node17</title>
<polygon fill="#ffffff" stroke="#bfbfbf" points="61.5,-168.5 61.5,-187.5 108.5,-187.5 108.5,-168.5 61.5,-168.5"/>
<text text-anchor="middle" x="85" y="-175.5" font-family="Helvetica,sans-Serif" font-size="10.00" fill="#000000">vector</text>
</g>
<!-- Node0&#45;&gt;Node17 -->
<g id="edge45" class="edge">
<title>Node0&#45;&gt;Node17</title>
<path fill="none" stroke="#191970" d="M199.5827,-448.4474C191.232,-439.5823 179.1326,-425.7236 171,-412 127.5436,-338.6686 100.052,-239.6763 89.6806,-197.9058"/>
<polygon fill="#191970" stroke="#191970" points="93.0182,-196.8174 87.2606,-187.9235 86.2153,-198.4667 93.0182,-196.8174"/>
</g>
<!-- Node22 -->
<g id="node23" class="node">
<title>Node22</title>
<g id="a_node23"><a xlink:href="SVEvent_8h.html" target="_top" xlink:title="TMVA/SVEvent.h">
<polygon fill="#ffffff" stroke="#000000" points="0,-336.5 0,-355.5 96,-355.5 96,-336.5 0,-336.5"/>
<text text-anchor="middle" x="48" y="-343.5" font-family="Helvetica,sans-Serif" font-size="10.00" fill="#000000">TMVA/SVEvent.h</text>
</a>
</g>
</g>
<!-- Node0&#45;&gt;Node22 -->
<g id="edge27" class="edge">
<title>Node0&#45;&gt;Node22</title>
<path fill="none" stroke="#191970" d="M181.4343,-448.4694C160.6787,-440.5423 132.1194,-427.9858 110,-412 91.0066,-398.2734 73.1112,-378.1552 61.4748,-363.7426"/>
<polygon fill="#191970" stroke="#191970" points="64.0164,-361.3125 55.0844,-355.6143 58.5134,-365.6389 64.0164,-361.3125"/>
</g>
<!-- Node24 -->
<g id="node25" class="node">
<title>Node24</title>
<g id="a_node25"><a xlink:href="TMath_8h.html" target="_top" xlink:title="TMath.h">
<polygon fill="#ffffff" stroke="#000000" points="497,-392.5 497,-411.5 553,-411.5 553,-392.5 497,-392.5"/>
<text text-anchor="middle" x="525" y="-399.5" font-family="Helvetica,sans-Serif" font-size="10.00" fill="#000000">TMath.h</text>
</a>
</g>
</g>
<!-- Node0&#45;&gt;Node24 -->
<g id="edge31" class="edge">
<title>Node0&#45;&gt;Node24</title>
<path fill="none" stroke="#191970" d="M262.9633,-448.4369C326.5549,-437.1675 430.6218,-418.7253 486.5572,-408.8127"/>
<polygon fill="#191970" stroke="#191970" points="487.5128,-412.1979 496.7486,-407.0066 486.2913,-405.3053 487.5128,-412.1979"/>
</g>
<!-- Node2 -->
<g id="node3" class="node">
<title>Node2</title>
<g id="a_node3"><a xlink:href="Rtypes_8h.html" target="_top" xlink:title="Rtypes.h">
<polygon fill="#ffffff" stroke="#000000" points="396.5,-280.5 396.5,-299.5 455.5,-299.5 455.5,-280.5 396.5,-280.5"/>
<text text-anchor="middle" x="426" y="-287.5" font-family="Helvetica,sans-Serif" font-size="10.00" fill="#000000">Rtypes.h</text>
</a>
</g>
</g>
<!-- Node1&#45;&gt;Node2 -->
<g id="edge2" class="edge">
<title>Node1&#45;&gt;Node2</title>
<path fill="none" stroke="#191970" d="M265.0057,-392.4509C295.6592,-372.9441 365.6678,-328.3932 402.4429,-304.9909"/>
<polygon fill="#191970" stroke="#191970" points="404.4748,-307.8465 411.0323,-299.5249 400.7166,-301.9409 404.4748,-307.8465"/>
</g>
<!-- Node3 -->
<g id="node4" class="node">
<title>Node3</title>
<g id="a_node4"><a xlink:href="RtypesCore_8h.html" target="_top" xlink:title="RtypesCore.h">
<polygon fill="#ffffff" stroke="#000000" points="639,-112.5 639,-131.5 721,-131.5 721,-112.5 639,-112.5"/>
<text text-anchor="middle" x="680" y="-119.5" font-family="Helvetica,sans-Serif" font-size="10.00" fill="#000000">RtypesCore.h</text>
</a>
</g>
</g>
<!-- Node2&#45;&gt;Node3 -->
<g id="edge3" class="edge">
<title>Node2&#45;&gt;Node3</title>
<path fill="none" stroke="#191970" d="M455.7156,-281.9237C458.8372,-281.2124 461.9747,-280.5536 465,-280 536.0424,-266.999 726.8707,-282.4611 788,-244 819.4758,-224.1962 844.9024,-198.0533 823,-168 811.8733,-152.7326 767.5405,-140.013 731.15,-131.8472"/>
<polygon fill="#191970" stroke="#191970" points="731.6465,-128.3734 721.1309,-129.6665 730.1577,-135.2133 731.6465,-128.3734"/>
</g>
<!-- Node8 -->
<g id="node9" class="node">
<title>Node8</title>
<g id="a_node9"><a xlink:href="DllImport_8h.html" target="_top" xlink:title="DllImport.h">
<polygon fill="#ffffff" stroke="#000000" points="870.5,-224.5 870.5,-243.5 941.5,-243.5 941.5,-224.5 870.5,-224.5"/>
<text text-anchor="middle" x="906" y="-231.5" font-family="Helvetica,sans-Serif" font-size="10.00" fill="#000000">DllImport.h</text>
</a>
</g>
</g>
<!-- Node2&#45;&gt;Node8 -->
<g id="edge8" class="edge">
<title>Node2&#45;&gt;Node8</title>
<path fill="none" stroke="#191970" d="M455.7049,-281.864C458.8287,-281.1643 461.9695,-280.5246 465,-280 636.9554,-250.2334 683.3086,-269.1474 856,-244 857.4509,-243.7887 858.9233,-243.5629 860.4084,-243.3254"/>
<polygon fill="#191970" stroke="#191970" points="861.0421,-246.7678 870.3002,-241.6162 859.8502,-239.87 861.0421,-246.7678"/>
</g>
<!-- Node9 -->
<g id="node10" class="node">
<title>Node9</title>
<polygon fill="#ffffff" stroke="#bfbfbf" points="113,-224.5 113,-243.5 175,-243.5 175,-224.5 113,-224.5"/>
<text text-anchor="middle" x="144" y="-231.5" font-family="Helvetica,sans-Serif" font-size="10.00" fill="#000000">snprintf.h</text>
</g>
<!-- Node2&#45;&gt;Node9 -->
<g id="edge9" class="edge">
<title>Node2&#45;&gt;Node9</title>
<path fill="none" stroke="#191970" d="M396.4601,-284.9462C352.5442,-277.3114 267.2321,-262.0152 185.3664,-244.2138"/>
<polygon fill="#191970" stroke="#191970" points="185.9203,-240.7522 175.4029,-242.0308 184.4221,-247.59 185.9203,-240.7522"/>
</g>
<!-- Node10 -->
<g id="node11" class="node">
<title>Node10</title>
<polygon fill="#ffffff" stroke="#bfbfbf" points="193.5,-224.5 193.5,-243.5 250.5,-243.5 250.5,-224.5 193.5,-224.5"/>
<text text-anchor="middle" x="222" y="-231.5" font-family="Helvetica,sans-Serif" font-size="10.00" fill="#000000">strlcpy.h</text>
</g>
<!-- Node2&#45;&gt;Node10 -->
<g id="edge10" class="edge">
<title>Node2&#45;&gt;Node10</title>
<path fill="none" stroke="#191970" d="M396.3366,-281.8571C360.4519,-272.0064 299.957,-255.4 260.5048,-244.57"/>
<polygon fill="#191970" stroke="#191970" points="261.2803,-241.1534 250.7105,-241.8813 259.4272,-247.9037 261.2803,-241.1534"/>
</g>
<!-- Node11 -->
<g id="node12" class="node">
<title>Node11</title>
<polygon fill="#ffffff" stroke="#bfbfbf" points="526,-168.5 526,-187.5 576,-187.5 576,-168.5 526,-168.5"/>
<text text-anchor="middle" x="551" y="-175.5" font-family="Helvetica,sans-Serif" font-size="10.00" fill="#000000">atomic</text>
</g>
<!-- Node2&#45;&gt;Node11 -->
<g id="edge11" class="edge">
<title>Node2&#45;&gt;Node11</title>
<path fill="none" stroke="#191970" d="M455.3293,-280.4423C482.8915,-270.9179 521.4408,-256.0191 532,-244 543.1775,-231.2772 547.8007,-212.3561 549.7018,-198.0308"/>
<polygon fill="#191970" stroke="#191970" points="553.2188,-198.0286 550.716,-187.7337 546.2525,-197.3424 553.2188,-198.0286"/>
</g>
<!-- Node12 -->
<g id="node13" class="node">
<title>Node12</title>
<polygon fill="#ffffff" stroke="#bfbfbf" points="401,-224.5 401,-243.5 451,-243.5 451,-224.5 401,-224.5"/>
<text text-anchor="middle" x="426" y="-231.5" font-family="Helvetica,sans-Serif" font-size="10.00" fill="#000000">stdio.h</text>
</g>
<!-- Node2&#45;&gt;Node12 -->
<g id="edge12" class="edge">
<title>Node2&#45;&gt;Node12</title>
<path fill="none" stroke="#191970" d="M426,-280.2455C426,-272.9382 426,-262.6944 426,-253.7046"/>
<polygon fill="#191970" stroke="#191970" points="429.5001,-253.6426 426,-243.6427 422.5001,-253.6427 429.5001,-253.6426"/>
</g>
<!-- Node13 -->
<g id="node14" class="node">
<title>Node13</title>
<polygon fill="#ffffff" stroke="#bfbfbf" points="469.5,-224.5 469.5,-243.5 522.5,-243.5 522.5,-224.5 469.5,-224.5"/>
<text text-anchor="middle" x="496" y="-231.5" font-family="Helvetica,sans-Serif" font-size="10.00" fill="#000000">string.h</text>
</g>
<!-- Node2&#45;&gt;Node13 -->
<g id="edge13" class="edge">
<title>Node2&#45;&gt;Node13</title>
<path fill="none" stroke="#191970" d="M438.1931,-280.2455C448.6321,-271.8943 463.8655,-259.7076 476.074,-249.9408"/>
<polygon fill="#191970" stroke="#191970" points="478.3244,-252.6227 483.9467,-243.6427 473.9515,-247.1566 478.3244,-252.6227"/>
</g>
<!-- Node14 -->
<g id="node15" class="node">
<title>Node14</title>
<polygon fill="#ffffff" stroke="#bfbfbf" points="594.5,-168.5 594.5,-187.5 651.5,-187.5 651.5,-168.5 594.5,-168.5"/>
<text text-anchor="middle" x="623" y="-175.5" font-family="Helvetica,sans-Serif" font-size="10.00" fill="#000000">typeinfo</text>
</g>
<!-- Node2&#45;&gt;Node14 -->
<g id="edge14" class="edge">
<title>Node2&#45;&gt;Node14</title>
<path fill="none" stroke="#191970" d="M455.7616,-282.1514C458.8743,-281.3956 461.9971,-280.6643 465,-280 507.5988,-270.5766 630.1214,-277.5595 658,-244 670.447,-229.0165 656.2431,-208.8978 642.3748,-194.8262"/>
<polygon fill="#191970" stroke="#191970" points="644.5366,-192.0523 634.8761,-187.7018 639.7151,-197.1271 644.5366,-192.0523"/>
</g>
<!-- Node15 -->
<g id="node16" class="node">
<title>Node15</title>
<polygon fill="#ffffff" stroke="#bfbfbf" points="579.5,-224.5 579.5,-243.5 648.5,-243.5 648.5,-224.5 579.5,-224.5"/>
<text text-anchor="middle" x="614" y="-231.5" font-family="Helvetica,sans-Serif" font-size="10.00" fill="#000000">type_traits</text>
</g>
<!-- Node2&#45;&gt;Node15 -->
<g id="edge15" class="edge">
<title>Node2&#45;&gt;Node15</title>
<path fill="none" stroke="#191970" d="M455.7892,-281.1266C487.0751,-271.8074 536.5391,-257.0735 571.8273,-246.5621"/>
<polygon fill="#191970" stroke="#191970" points="573.2472,-249.7912 581.8319,-243.582 571.2488,-243.0825 573.2472,-249.7912"/>
</g>
<!-- Node16 -->
<g id="node17" class="node">
<title>Node16</title>
<g id="a_node17"><a xlink:href="TGenericClassInfo_8h.html" target="_top" xlink:title="TGenericClassInfo.h">
<polygon fill="#ffffff" stroke="#000000" points="269,-224.5 269,-243.5 383,-243.5 383,-224.5 269,-224.5"/>
<text text-anchor="middle" x="326" y="-231.5" font-family="Helvetica,sans-Serif" font-size="10.00" fill="#000000">TGenericClassInfo.h</text>
</a>
</g>
</g>
<!-- Node2&#45;&gt;Node16 -->
<g id="edge16" class="edge">
<title>Node2&#45;&gt;Node16</title>
<path fill="none" stroke="#191970" d="M403.5674,-280.3733C386.475,-271.7466 363.36,-258.954 346.7105,-248.9889"/>
<polygon fill="#191970" stroke="#191970" points="348.1049,-245.7387 337.749,-243.5011 344.4492,-251.7083 348.1049,-245.7387"/>
</g>
<!-- Node20 -->
<g id="node21" class="node">
<title>Node20</title>
<g id="a_node21"><a xlink:href="TIsAProxy_8h.html" target="_top" xlink:title="TIsAProxy.h">
<polygon fill="#ffffff" stroke="#000000" points="705.5,-224.5 705.5,-243.5 778.5,-243.5 778.5,-224.5 705.5,-224.5"/>
<text text-anchor="middle" x="742" y="-231.5" font-family="Helvetica,sans-Serif" font-size="10.00" fill="#000000">TIsAProxy.h</text>
</a>
</g>
</g>
<!-- Node2&#45;&gt;Node20 -->
<g id="edge22" class="edge">
<title>Node2&#45;&gt;Node20</title>
<path fill="none" stroke="#191970" d="M455.744,-282.0696C458.8602,-281.3298 461.9885,-280.6245 465,-280 564.5917,-259.3464 590.8568,-261.7881 691,-244 692.4436,-243.7436 693.9094,-243.4794 695.3888,-243.2095"/>
<polygon fill="#191970" stroke="#191970" points="696.0706,-246.6428 705.2582,-241.3666 694.7857,-239.7617 696.0706,-246.6428"/>
</g>
<!-- Node4 -->
<g id="node5" class="node">
<title>Node4</title>
<g id="a_node5"><a xlink:href="RConfig_8hxx.html" target="_top" xlink:title="ROOT/RConfig.hxx">
<polygon fill="#ffffff" stroke="#000000" points="577.5,-56.5 577.5,-75.5 682.5,-75.5 682.5,-56.5 577.5,-56.5"/>
<text text-anchor="middle" x="630" y="-63.5" font-family="Helvetica,sans-Serif" font-size="10.00" fill="#000000">ROOT/RConfig.hxx</text>
</a>
</g>
</g>
<!-- Node3&#45;&gt;Node4 -->
<g id="edge4" class="edge">
<title>Node3&#45;&gt;Node4</title>
<path fill="none" stroke="#191970" d="M671.2907,-112.2455C664.1927,-104.2958 653.9916,-92.8706 645.505,-83.3656"/>
<polygon fill="#191970" stroke="#191970" points="647.8805,-80.771 638.6095,-75.6427 642.6589,-85.4331 647.8805,-80.771"/>
</g>
<!-- Node7 -->
<g id="node8" class="node">
<title>Node7</title>
<polygon fill="#ffffff" stroke="#bfbfbf" points="701,-56.5 701,-75.5 757,-75.5 757,-56.5 701,-56.5"/>
<text text-anchor="middle" x="729" y="-63.5" font-family="Helvetica,sans-Serif" font-size="10.00" fill="#000000">stddef.h</text>
</g>
<!-- Node3&#45;&gt;Node7 -->
<g id="edge7" class="edge">
<title>Node3&#45;&gt;Node7</title>
<path fill="none" stroke="#191970" d="M688.5351,-112.2455C695.4912,-104.2958 705.4883,-92.8706 713.8051,-83.3656"/>
<polygon fill="#191970" stroke="#191970" points="716.6116,-85.4732 720.5627,-75.6427 711.3436,-80.8637 716.6116,-85.4732"/>
</g>
<!-- Node5 -->
<g id="node6" class="node">
<title>Node5</title>
<g id="a_node6"><a xlink:href="RVersion_8h.html" target="_top" xlink:title="../RVersion.h">
<polygon fill="#ffffff" stroke="#000000" points="543.5,-.5 543.5,-19.5 620.5,-19.5 620.5,-.5 543.5,-.5"/>
<text text-anchor="middle" x="582" y="-7.5" font-family="Helvetica,sans-Serif" font-size="10.00" fill="#000000">../RVersion.h</text>
</a>
</g>
</g>
<!-- Node4&#45;&gt;Node5 -->
<g id="edge5" class="edge">
<title>Node4&#45;&gt;Node5</title>
<path fill="none" stroke="#191970" d="M621.639,-56.2455C614.825,-48.2958 605.0319,-36.8706 596.8848,-27.3656"/>
<polygon fill="#191970" stroke="#191970" points="599.4305,-24.9575 590.2651,-19.6427 594.1157,-29.513 599.4305,-24.9575"/>
</g>
<!-- Node6 -->
<g id="node7" class="node">
<title>Node6</title>
<polygon fill="#ffffff" stroke="#bfbfbf" points="639,-.5 639,-19.5 717,-19.5 717,-.5 639,-.5"/>
<text text-anchor="middle" x="678" y="-7.5" font-family="Helvetica,sans-Serif" font-size="10.00" fill="#000000">RConfigure.h</text>
</g>
<!-- Node4&#45;&gt;Node6 -->
<g id="edge6" class="edge">
<title>Node4&#45;&gt;Node6</title>
<path fill="none" stroke="#191970" d="M638.361,-56.2455C645.175,-48.2958 654.9681,-36.8706 663.1152,-27.3656"/>
<polygon fill="#191970" stroke="#191970" points="665.8843,-29.513 669.7349,-19.6427 660.5695,-24.9575 665.8843,-29.513"/>
</g>
<!-- Node16&#45;&gt;Node2 -->
<g id="edge21" class="edge">
<title>Node16&#45;&gt;Node2</title>
<path fill="none" stroke="#191970" d="M348.4642,-243.6427C365.4153,-252.1994 388.2771,-264.8456 404.8846,-274.769"/>
<polygon fill="#191970" stroke="#191970" points="403.49,-278.0185 413.8482,-280.2455 407.1397,-272.0451 403.49,-278.0185"/>
</g>
<!-- Node16&#45;&gt;Node17 -->
<g id="edge17" class="edge">
<title>Node16&#45;&gt;Node17</title>
<path fill="none" stroke="#191970" d="M284.8445,-224.4369C237.9228,-213.5339 162.1072,-195.917 118.5943,-185.8061"/>
<polygon fill="#191970" stroke="#191970" points="119.3162,-182.3807 108.7835,-183.5265 117.7318,-189.1991 119.3162,-182.3807"/>
</g>
<!-- Node18 -->
<g id="node19" class="node">
<title>Node18</title>
<g id="a_node19"><a xlink:href="TSchemaHelper_8h.html" target="_top" xlink:title="TSchemaHelper.h">
<polygon fill="#ffffff" stroke="#000000" points="341,-168.5 341,-187.5 443,-187.5 443,-168.5 341,-168.5"/>
<text text-anchor="middle" x="392" y="-175.5" font-family="Helvetica,sans-Serif" font-size="10.00" fill="#000000">TSchemaHelper.h</text>
</a>
</g>
</g>
<!-- Node16&#45;&gt;Node18 -->
<g id="edge18" class="edge">
<title>Node16&#45;&gt;Node18</title>
<path fill="none" stroke="#191970" d="M337.4963,-224.2455C347.2442,-215.9746 361.4259,-203.9416 372.8798,-194.2232"/>
<polygon fill="#191970" stroke="#191970" points="375.2747,-196.7813 380.6354,-187.6427 370.7459,-191.4437 375.2747,-196.7813"/>
</g>
<!-- Node18&#45;&gt;Node3 -->
<g id="edge19" class="edge">
<title>Node18&#45;&gt;Node3</title>
<path fill="none" stroke="#191970" d="M441.1817,-168.4369C493.5542,-158.2533 576.0493,-142.2126 629.0778,-131.9015"/>
<polygon fill="#191970" stroke="#191970" points="629.7995,-135.3268 638.9476,-129.9824 628.4634,-128.4555 629.7995,-135.3268"/>
</g>
<!-- Node19 -->
<g id="node20" class="node">
<title>Node19</title>
<polygon fill="#ffffff" stroke="#bfbfbf" points="370,-112.5 370,-131.5 414,-131.5 414,-112.5 370,-112.5"/>
<text text-anchor="middle" x="392" y="-119.5" font-family="Helvetica,sans-Serif" font-size="10.00" fill="#000000">string</text>
</g>
<!-- Node18&#45;&gt;Node19 -->
<g id="edge20" class="edge">
<title>Node18&#45;&gt;Node19</title>
<path fill="none" stroke="#191970" d="M392,-168.2455C392,-160.9382 392,-150.6944 392,-141.7046"/>
<polygon fill="#191970" stroke="#191970" points="395.5001,-141.6426 392,-131.6427 388.5001,-141.6427 395.5001,-141.6426"/>
</g>
<!-- Node20&#45;&gt;Node3 -->
<g id="edge24" class="edge">
<title>Node20&#45;&gt;Node3</title>
<path fill="none" stroke="#191970" d="M730.8604,-224.4674C721.4091,-215.8261 708.1262,-202.2884 700,-188 691.8614,-173.6897 686.6957,-155.7117 683.6572,-142.1342"/>
<polygon fill="#191970" stroke="#191970" points="687.0074,-141.0444 681.5867,-131.9413 680.1475,-142.4379 687.0074,-141.0444"/>
</g>
<!-- Node20&#45;&gt;Node11 -->
<g id="edge25" class="edge">
<title>Node20&#45;&gt;Node11</title>
<path fill="none" stroke="#191970" d="M709.1659,-224.3733C674.8007,-214.2976 621.0525,-198.539 585.925,-188.2398"/>
<polygon fill="#191970" stroke="#191970" points="586.6842,-184.8151 576.1033,-185.3601 584.7147,-191.5323 586.6842,-184.8151"/>
</g>
<!-- Node20&#45;&gt;Node14 -->
<g id="edge26" class="edge">
<title>Node20&#45;&gt;Node14</title>
<path fill="none" stroke="#191970" d="M721.5432,-224.3733C702.5262,-215.4241 673.9825,-201.9917 652.5024,-191.8835"/>
<polygon fill="#191970" stroke="#191970" points="653.7284,-188.5923 643.1899,-187.5011 650.7478,-194.926 653.7284,-188.5923"/>
</g>
<!-- Node21 -->
<g id="node22" class="node">
<title>Node21</title>
<g id="a_node22"><a xlink:href="TVirtualIsAProxy_8h.html" target="_top" xlink:title="TVirtualIsAProxy.h">
<polygon fill="#ffffff" stroke="#000000" points="708.5,-168.5 708.5,-187.5 813.5,-187.5 813.5,-168.5 708.5,-168.5"/>
<text text-anchor="middle" x="761" y="-175.5" font-family="Helvetica,sans-Serif" font-size="10.00" fill="#000000">TVirtualIsAProxy.h</text>
</a>
</g>
</g>
<!-- Node20&#45;&gt;Node21 -->
<g id="edge23" class="edge">
<title>Node20&#45;&gt;Node21</title>
<path fill="none" stroke="#191970" d="M745.3095,-224.2455C747.8433,-216.7776 751.4177,-206.2427 754.515,-197.1137"/>
<polygon fill="#191970" stroke="#191970" points="757.8298,-198.237 757.7284,-187.6427 751.2009,-195.9879 757.8298,-198.237"/>
</g>
<!-- Node22&#45;&gt;Node2 -->
<g id="edge30" class="edge">
<title>Node22&#45;&gt;Node2</title>
<path fill="none" stroke="#191970" d="M96.2579,-338.8507C171.6045,-327.6882 315.7984,-306.3262 385.8384,-295.9499"/>
<polygon fill="#191970" stroke="#191970" points="386.6402,-299.3694 396.0193,-294.4416 385.6143,-292.4449 386.6402,-299.3694"/>
</g>
<!-- Node22&#45;&gt;Node17 -->
<g id="edge28" class="edge">
<title>Node22&#45;&gt;Node17</title>
<path fill="none" stroke="#191970" d="M41.2701,-336.2492C33.2749,-323.4484 21.6513,-300.2272 27,-280 35.497,-247.8671 56.723,-215.2604 71.001,-195.8365"/>
<polygon fill="#191970" stroke="#191970" points="73.9475,-197.7427 77.1837,-187.6542 68.3625,-193.5226 73.9475,-197.7427"/>
</g>
<!-- Node23 -->
<g id="node24" class="node">
<title>Node23</title>
<polygon fill="#ffffff" stroke="#bfbfbf" points="36,-280.5 36,-299.5 96,-299.5 96,-280.5 36,-280.5"/>
<text text-anchor="middle" x="66" y="-287.5" font-family="Helvetica,sans-Serif" font-size="10.00" fill="#000000">iostream</text>
</g>
<!-- Node22&#45;&gt;Node23 -->
<g id="edge29" class="edge">
<title>Node22&#45;&gt;Node23</title>
<path fill="none" stroke="#191970" d="M51.1354,-336.2455C53.51,-328.8579 56.8493,-318.4689 59.7615,-309.4087"/>
<polygon fill="#191970" stroke="#191970" points="63.1725,-310.234 62.9006,-299.6427 56.5083,-308.0919 63.1725,-310.234"/>
</g>
<!-- Node24&#45;&gt;Node2 -->
<g id="edge32" class="edge">
<title>Node24&#45;&gt;Node2</title>
<path fill="none" stroke="#191970" d="M496.794,-396.39C461.0651,-388.6448 402.6096,-373.6181 390,-356 378.6552,-340.1491 392.7987,-320.3307 406.5529,-306.5684"/>
<polygon fill="#191970" stroke="#191970" points="409.0794,-308.9976 413.9898,-299.6094 404.2966,-303.8864 409.0794,-308.9976"/>
</g>
<!-- Node25 -->
<g id="node26" class="node">
<title>Node25</title>
<g id="a_node26"><a xlink:href="TMathBase_8h.html" target="_top" xlink:title="TMathBase.h">
<polygon fill="#ffffff" stroke="#000000" points="637,-336.5 637,-355.5 717,-355.5 717,-336.5 637,-336.5"/>
<text text-anchor="middle" x="677" y="-343.5" font-family="Helvetica,sans-Serif" font-size="10.00" fill="#000000">TMathBase.h</text>
</a>
</g>
</g>
<!-- Node24&#45;&gt;Node25 -->
<g id="edge33" class="edge">
<title>Node24&#45;&gt;Node25</title>
<path fill="none" stroke="#191970" d="M551.1297,-392.3733C576.0768,-383.1822 613.8592,-369.2624 641.5206,-359.0713"/>
<polygon fill="#191970" stroke="#191970" points="643.0378,-362.2424 651.2112,-355.5011 640.6178,-355.674 643.0378,-362.2424"/>
</g>
<!-- Node27 -->
<g id="node28" class="node">
<title>Node27</title>
<polygon fill="#ffffff" stroke="#bfbfbf" points="721.5,-280.5 721.5,-299.5 768.5,-299.5 768.5,-280.5 721.5,-280.5"/>
<text text-anchor="middle" x="745" y="-287.5" font-family="Helvetica,sans-Serif" font-size="10.00" fill="#000000">cmath</text>
</g>
<!-- Node24&#45;&gt;Node27 -->
<g id="edge43" class="edge">
<title>Node24&#45;&gt;Node27</title>
<path fill="none" stroke="#191970" d="M553.2652,-399.0647C602.5431,-393.3905 701.2968,-379.3731 726,-356 738.5615,-344.1148 742.9883,-324.5132 744.4657,-309.753"/>
<polygon fill="#191970" stroke="#191970" points="747.9685,-309.8183 745.1065,-299.6174 740.9824,-309.3766 747.9685,-309.8183"/>
</g>
<!-- Node28 -->
<g id="node29" class="node">
<title>Node28</title>
<polygon fill="#ffffff" stroke="#bfbfbf" points="572,-280.5 572,-299.5 636,-299.5 636,-280.5 572,-280.5"/>
<text text-anchor="middle" x="604" y="-287.5" font-family="Helvetica,sans-Serif" font-size="10.00" fill="#000000">algorithm</text>
</g>
<!-- Node24&#45;&gt;Node28 -->
<g id="edge41" class="edge">
<title>Node24&#45;&gt;Node28</title>
<path fill="none" stroke="#191970" d="M546.0792,-392.35C560.6551,-384.5846 579.2853,-372.2839 590,-356 599.0431,-342.2566 602.3774,-323.727 603.5451,-309.7999"/>
<polygon fill="#191970" stroke="#191970" points="607.0409,-309.9708 604.0847,-299.7967 600.0511,-309.5937 607.0409,-309.9708"/>
</g>
<!-- Node29 -->
<g id="node30" class="node">
<title>Node29</title>
<g id="a_node30"><a xlink:href="TError_8h.html" target="_top" xlink:title="TError.h">
<polygon fill="#ffffff" stroke="#000000" points="399,-336.5 399,-355.5 453,-355.5 453,-336.5 399,-336.5"/>
<text text-anchor="middle" x="426" y="-343.5" font-family="Helvetica,sans-Serif" font-size="10.00" fill="#000000">TError.h</text>
</a>
</g>
</g>
<!-- Node24&#45;&gt;Node29 -->
<g id="edge38" class="edge">
<title>Node24&#45;&gt;Node29</title>
<path fill="none" stroke="#191970" d="M507.7555,-392.2455C492.4239,-383.5731 469.7801,-370.7645 452.2084,-360.825"/>
<polygon fill="#191970" stroke="#191970" points="453.4741,-357.5198 443.0469,-355.6427 450.0276,-363.6126 453.4741,-357.5198"/>
</g>
<!-- Node31 -->
<g id="node32" class="node">
<title>Node31</title>
<polygon fill="#ffffff" stroke="#bfbfbf" points="471,-336.5 471,-355.5 515,-355.5 515,-336.5 471,-336.5"/>
<text text-anchor="middle" x="493" y="-343.5" font-family="Helvetica,sans-Serif" font-size="10.00" fill="#000000">limits</text>
</g>
<!-- Node24&#45;&gt;Node31 -->
<g id="edge42" class="edge">
<title>Node24&#45;&gt;Node31</title>
<path fill="none" stroke="#191970" d="M519.426,-392.2455C515.0669,-384.617 508.8789,-373.7881 503.5867,-364.5267"/>
<polygon fill="#191970" stroke="#191970" points="506.5104,-362.5886 498.5101,-355.6427 500.4327,-366.0616 506.5104,-362.5886"/>
</g>
<!-- Node32 -->
<g id="node33" class="node">
<title>Node32</title>
<polygon fill="#ffffff" stroke="#bfbfbf" points="533.5,-336.5 533.5,-355.5 580.5,-355.5 580.5,-336.5 533.5,-336.5"/>
<text text-anchor="middle" x="557" y="-343.5" font-family="Helvetica,sans-Serif" font-size="10.00" fill="#000000">float.h</text>
</g>
<!-- Node24&#45;&gt;Node32 -->
<g id="edge44" class="edge">
<title>Node24&#45;&gt;Node32</title>
<path fill="none" stroke="#191970" d="M530.574,-392.2455C534.9331,-384.617 541.1211,-373.7881 546.4133,-364.5267"/>
<polygon fill="#191970" stroke="#191970" points="549.5673,-366.0616 551.4899,-355.6427 543.4896,-362.5886 549.5673,-366.0616"/>
</g>
<!-- Node25&#45;&gt;Node2 -->
<g id="edge34" class="edge">
<title>Node25&#45;&gt;Node2</title>
<path fill="none" stroke="#191970" d="M636.6515,-337.7129C596.0109,-329.2619 531.2671,-315.5167 465.8576,-300.139"/>
<polygon fill="#191970" stroke="#191970" points="466.3191,-296.6518 455.7822,-297.7584 464.7094,-303.4642 466.3191,-296.6518"/>
</g>
<!-- Node26 -->
<g id="node27" class="node">
<title>Node26</title>
<polygon fill="#ffffff" stroke="#bfbfbf" points="654.5,-280.5 654.5,-299.5 703.5,-299.5 703.5,-280.5 654.5,-280.5"/>
<text text-anchor="middle" x="679" y="-287.5" font-family="Helvetica,sans-Serif" font-size="10.00" fill="#000000">cstdlib</text>
</g>
<!-- Node25&#45;&gt;Node26 -->
<g id="edge35" class="edge">
<title>Node25&#45;&gt;Node26</title>
<path fill="none" stroke="#191970" d="M677.3484,-336.2455C677.6093,-328.9382 677.9752,-318.6944 678.2963,-309.7046"/>
<polygon fill="#191970" stroke="#191970" points="681.7964,-309.7613 678.6556,-299.6427 674.8008,-309.5113 681.7964,-309.7613"/>
</g>
<!-- Node25&#45;&gt;Node27 -->
<g id="edge36" class="edge">
<title>Node25&#45;&gt;Node27</title>
<path fill="none" stroke="#191970" d="M688.8447,-336.2455C698.888,-327.9746 713.4995,-315.9416 725.3004,-306.2232"/>
<polygon fill="#191970" stroke="#191970" points="727.7967,-308.7015 733.291,-299.6427 723.3467,-303.298 727.7967,-308.7015"/>
</g>
<!-- Node25&#45;&gt;Node28 -->
<g id="edge37" class="edge">
<title>Node25&#45;&gt;Node28</title>
<path fill="none" stroke="#191970" d="M664.2844,-336.2455C653.398,-327.8943 637.5117,-315.7076 624.78,-305.9408"/>
<polygon fill="#191970" stroke="#191970" points="626.6346,-302.9523 616.5699,-299.6427 622.3739,-308.5063 626.6346,-302.9523"/>
</g>
<!-- Node29&#45;&gt;Node2 -->
<g id="edge39" class="edge">
<title>Node29&#45;&gt;Node2</title>
<path fill="none" stroke="#191970" d="M426,-336.2455C426,-328.9382 426,-318.6944 426,-309.7046"/>
<polygon fill="#191970" stroke="#191970" points="429.5001,-309.6426 426,-299.6427 422.5001,-309.6427 429.5001,-309.6426"/>
</g>
<!-- Node30 -->
<g id="node31" class="node">
<title>Node30</title>
<polygon fill="#ffffff" stroke="#bfbfbf" points="474,-280.5 474,-299.5 530,-299.5 530,-280.5 474,-280.5"/>
<text text-anchor="middle" x="502" y="-287.5" font-family="Helvetica,sans-Serif" font-size="10.00" fill="#000000">stdarg.h</text>
</g>
<!-- Node29&#45;&gt;Node30 -->
<g id="edge40" class="edge">
<title>Node29&#45;&gt;Node30</title>
<path fill="none" stroke="#191970" d="M439.2382,-336.2455C450.681,-327.814 467.4296,-315.4729 480.7475,-305.6598"/>
<polygon fill="#191970" stroke="#191970" points="482.9391,-308.3924 488.9135,-299.6427 478.7867,-302.757 482.9391,-308.3924"/>
</g>
</g>
</svg>
