<?xml version="1.0" encoding="UTF-8" standalone="no"?>
<!DOCTYPE svg PUBLIC "-//W3C//DTD SVG 1.1//EN"
 "http://www.w3.org/Graphics/SVG/1.1/DTD/svg11.dtd">
<!-- Generated by graphviz version 2.40.1 (0)
 -->
<!-- Title: net/alien/inc/TAlienResult.h Pages: 1 -->
<svg width="678pt" height="84pt"
 viewBox="0.00 0.00 678.00 84.00" xmlns="http://www.w3.org/2000/svg" xmlns:xlink="http://www.w3.org/1999/xlink">
<g id="graph0" class="graph" transform="scale(1 1) rotate(0) translate(4 80)">
<title>net/alien/inc/TAlienResult.h</title>
<polygon fill="#ffffff" stroke="transparent" points="-4,4 -4,-80 674,-80 674,4 -4,4"/>
<!-- Node53 -->
<g id="node1" class="node">
<title>Node53</title>
<polygon fill="#bfbfbf" stroke="#000000" points="253.5,-56.5 253.5,-75.5 402.5,-75.5 402.5,-56.5 253.5,-56.5"/>
<text text-anchor="middle" x="328" y="-63.5" font-family="Helvetica,sans-Serif" font-size="10.00" fill="#000000">net/alien/inc/TAlienResult.h</text>
</g>
<!-- Node54 -->
<g id="node2" class="node">
<title>Node54</title>
<g id="a_node2"><a xlink:href="TAlien_8cxx.html" target="_top" xlink:title="net/alien/src/TAlien.cxx">
<polygon fill="#ffffff" stroke="#000000" points="0,-.5 0,-19.5 130,-19.5 130,-.5 0,-.5"/>
<text text-anchor="middle" x="65" y="-7.5" font-family="Helvetica,sans-Serif" font-size="10.00" fill="#000000">net/alien/src/TAlien.cxx</text>
</a>
</g>
</g>
<!-- Node53&#45;&gt;Node54 -->
<g id="edge1" class="edge">
<title>Node53&#45;&gt;Node54</title>
<path fill="none" stroke="#191970" d="M273.086,-54.3073C224.6237,-43.9883 154.8595,-29.1336 109.7272,-19.5237"/>
<polygon fill="#191970" stroke="#191970" points="272.5778,-57.7775 283.0875,-56.4369 274.0357,-50.931 272.5778,-57.7775"/>
</g>
<!-- Node55 -->
<g id="node3" class="node">
<title>Node55</title>
<g id="a_node3"><a xlink:href="TAlienCollection_8cxx.html" target="_top" xlink:title="net/alien/src/TAlienCollection.cxx">
<polygon fill="#ffffff" stroke="#000000" points="148.5,-.5 148.5,-19.5 327.5,-19.5 327.5,-.5 148.5,-.5"/>
<text text-anchor="middle" x="238" y="-7.5" font-family="Helvetica,sans-Serif" font-size="10.00" fill="#000000">net/alien/src/TAlienCollection.cxx</text>
</a>
</g>
</g>
<!-- Node53&#45;&gt;Node55 -->
<g id="edge2" class="edge">
<title>Node53&#45;&gt;Node55</title>
<path fill="none" stroke="#191970" d="M303.5216,-50.769C287.5734,-40.8456 267.249,-28.1994 253.4972,-19.6427"/>
<polygon fill="#191970" stroke="#191970" points="301.9835,-53.9342 312.3232,-56.2455 305.6817,-47.9908 301.9835,-53.9342"/>
</g>
<!-- Node56 -->
<g id="node4" class="node">
<title>Node56</title>
<g id="a_node4"><a xlink:href="TAlienFile_8cxx.html" target="_top" xlink:title="net/alien/src/TAlienFile.cxx">
<polygon fill="#ffffff" stroke="#000000" points="346,-.5 346,-19.5 492,-19.5 492,-.5 346,-.5"/>
<text text-anchor="middle" x="419" y="-7.5" font-family="Helvetica,sans-Serif" font-size="10.00" fill="#000000">net/alien/src/TAlienFile.cxx</text>
</a>
</g>
</g>
<!-- Node53&#45;&gt;Node56 -->
<g id="edge3" class="edge">
<title>Node53&#45;&gt;Node56</title>
<path fill="none" stroke="#191970" d="M352.7504,-50.769C368.8758,-40.8456 389.426,-28.1994 403.3307,-19.6427"/>
<polygon fill="#191970" stroke="#191970" points="350.5332,-48.0237 343.851,-56.2455 354.2019,-53.9853 350.5332,-48.0237"/>
</g>
<!-- Node57 -->
<g id="node5" class="node">
<title>Node57</title>
<g id="a_node5"><a xlink:href="TAlienResult_8cxx.html" target="_top" xlink:title="net/alien/src/TAlienResult.cxx">
<polygon fill="#ffffff" stroke="#000000" points="510,-.5 510,-19.5 670,-19.5 670,-.5 510,-.5"/>
<text text-anchor="middle" x="590" y="-7.5" font-family="Helvetica,sans-Serif" font-size="10.00" fill="#000000">net/alien/src/TAlienResult.cxx</text>
</a>
</g>
</g>
<!-- Node53&#45;&gt;Node57 -->
<g id="edge4" class="edge">
<title>Node53&#45;&gt;Node57</title>
<path fill="none" stroke="#191970" d="M382.7052,-54.3073C430.9832,-43.9883 500.4822,-29.1336 545.4428,-19.5237"/>
<polygon fill="#191970" stroke="#191970" points="381.7892,-50.9239 372.7417,-56.4369 383.2524,-57.7693 381.7892,-50.9239"/>
</g>
</g>
</svg>
