<?xml version="1.0" encoding="UTF-8" standalone="no"?>
<!DOCTYPE svg PUBLIC "-//W3C//DTD SVG 1.1//EN"
 "http://www.w3.org/Graphics/SVG/1.1/DTD/svg11.dtd">
<!-- Generated by graphviz version 2.40.1 (0)
 -->
<!-- Title: net/auth/inc/TAuthenticate.h Pages: 1 -->
<svg width="607pt" height="196pt"
 viewBox="0.00 0.00 607.08 196.00" xmlns="http://www.w3.org/2000/svg" xmlns:xlink="http://www.w3.org/1999/xlink">
<g id="graph0" class="graph" transform="scale(1 1) rotate(0) translate(4 192)">
<title>net/auth/inc/TAuthenticate.h</title>
<polygon fill="#ffffff" stroke="transparent" points="-4,4 -4,-192 603.0786,-192 603.0786,4 -4,4"/>
<!-- Node54 -->
<g id="node1" class="node">
<title>Node54</title>
<polygon fill="#bfbfbf" stroke="#000000" points="348.0786,-168.5 348.0786,-187.5 502.0786,-187.5 502.0786,-168.5 348.0786,-168.5"/>
<text text-anchor="middle" x="425.0786" y="-175.5" font-family="Helvetica,sans-Serif" font-size="10.00" fill="#000000">net/auth/inc/TAuthenticate.h</text>
</g>
<!-- Node55 -->
<g id="node2" class="node">
<title>Node55</title>
<g id="a_node2"><a xlink:href="TRootSecContext_8h.html" target="_top" xlink:title="net/auth/inc/TRootSecContext.h">
<polygon fill="#ffffff" stroke="#000000" points="224.0786,-112.5 224.0786,-131.5 394.0786,-131.5 394.0786,-112.5 224.0786,-112.5"/>
<text text-anchor="middle" x="309.0786" y="-119.5" font-family="Helvetica,sans-Serif" font-size="10.00" fill="#000000">net/auth/inc/TRootSecContext.h</text>
</a>
</g>
</g>
<!-- Node54&#45;&gt;Node55 -->
<g id="edge1" class="edge">
<title>Node54&#45;&gt;Node55</title>
<path fill="none" stroke="#191970" d="M396.0248,-163.9741C375.0221,-153.8348 347.2095,-140.408 328.7595,-131.5011"/>
<polygon fill="#191970" stroke="#191970" points="394.6103,-167.1776 405.1374,-168.3733 397.6536,-160.8738 394.6103,-167.1776"/>
</g>
<!-- Node57 -->
<g id="node4" class="node">
<title>Node57</title>
<g id="a_node4"><a xlink:href="TAuthenticate_8cxx.html" target="_top" xlink:title="net/auth/src/TAuthenticate.cxx">
<polygon fill="#ffffff" stroke="#000000" points="100.5786,-.5 100.5786,-19.5 265.5786,-19.5 265.5786,-.5 100.5786,-.5"/>
<text text-anchor="middle" x="183.0786" y="-7.5" font-family="Helvetica,sans-Serif" font-size="10.00" fill="#000000">net/auth/src/TAuthenticate.cxx</text>
</a>
</g>
</g>
<!-- Node54&#45;&gt;Node57 -->
<g id="edge10" class="edge">
<title>Node54&#45;&gt;Node57</title>
<path fill="none" stroke="#191970" d="M337.8867,-169.5536C226.7799,-156.7617 44.2634,-128.2413 4.0786,-76 -1.341,-68.9544 -1.3688,-63.0242 4.0786,-56 17.4003,-38.8219 66.7675,-26.9413 110.2905,-19.5628"/>
<polygon fill="#191970" stroke="#191970" points="337.7472,-173.0601 348.0772,-170.7059 338.5338,-166.1044 337.7472,-173.0601"/>
</g>
<!-- Node58 -->
<g id="node5" class="node">
<title>Node58</title>
<g id="a_node5"><a xlink:href="THostAuth_8cxx.html" target="_top" xlink:title="net/auth/src/THostAuth.cxx">
<polygon fill="#ffffff" stroke="#000000" points="283.5786,-.5 283.5786,-19.5 432.5786,-19.5 432.5786,-.5 283.5786,-.5"/>
<text text-anchor="middle" x="358.0786" y="-7.5" font-family="Helvetica,sans-Serif" font-size="10.00" fill="#000000">net/auth/src/THostAuth.cxx</text>
</a>
</g>
</g>
<!-- Node54&#45;&gt;Node58 -->
<g id="edge11" class="edge">
<title>Node54&#45;&gt;Node58</title>
<path fill="none" stroke="#191970" d="M433.2293,-158.7934C442.6193,-133.4606 454.5375,-88.316 436.0786,-56 425.9417,-38.2536 405.986,-26.6687 388.7977,-19.5638"/>
<polygon fill="#191970" stroke="#191970" points="429.8761,-157.7557 429.4558,-168.3422 436.3862,-160.3285 429.8761,-157.7557"/>
</g>
<!-- Node59 -->
<g id="node6" class="node">
<title>Node59</title>
<g id="a_node6"><a xlink:href="TRootAuth_8cxx.html" target="_top" xlink:title="net/auth/src/TRootAuth.cxx">
<polygon fill="#ffffff" stroke="#000000" points="451.0786,-.5 451.0786,-19.5 599.0786,-19.5 599.0786,-.5 451.0786,-.5"/>
<text text-anchor="middle" x="525.0786" y="-7.5" font-family="Helvetica,sans-Serif" font-size="10.00" fill="#000000">net/auth/src/TRootAuth.cxx</text>
</a>
</g>
</g>
<!-- Node54&#45;&gt;Node59 -->
<g id="edge12" class="edge">
<title>Node54&#45;&gt;Node59</title>
<path fill="none" stroke="#191970" d="M438.1836,-160.0486C444.1478,-151.6584 451.1759,-141.4537 457.0786,-132 482.5063,-91.2744 509.2785,-40.5651 520.1044,-19.678"/>
<polygon fill="#191970" stroke="#191970" points="435.2322,-158.1579 432.233,-168.3194 440.9143,-162.2461 435.2322,-158.1579"/>
</g>
<!-- Node56 -->
<g id="node3" class="node">
<title>Node56</title>
<g id="a_node3"><a xlink:href="THostAuth_8h.html" target="_top" xlink:title="net/auth/inc/THostAuth.h">
<polygon fill="#ffffff" stroke="#000000" points="289.5786,-56.5 289.5786,-75.5 426.5786,-75.5 426.5786,-56.5 289.5786,-56.5"/>
<text text-anchor="middle" x="358.0786" y="-63.5" font-family="Helvetica,sans-Serif" font-size="10.00" fill="#000000">net/auth/inc/THostAuth.h</text>
</a>
</g>
</g>
<!-- Node55&#45;&gt;Node56 -->
<g id="edge2" class="edge">
<title>Node55&#45;&gt;Node56</title>
<path fill="none" stroke="#191970" d="M324.3907,-104.5004C332.7233,-94.9775 342.7139,-83.5596 349.6412,-75.6427"/>
<polygon fill="#191970" stroke="#191970" points="321.5648,-102.415 317.6137,-112.2455 326.8328,-107.0245 321.5648,-102.415"/>
</g>
<!-- Node55&#45;&gt;Node57 -->
<g id="edge6" class="edge">
<title>Node55&#45;&gt;Node57</title>
<path fill="none" stroke="#191970" d="M290.8212,-105.7713C264.1431,-82.0573 215.3444,-38.6807 193.7941,-19.5249"/>
<polygon fill="#191970" stroke="#191970" points="288.5365,-108.4232 298.3359,-112.4509 293.187,-103.1913 288.5365,-108.4232"/>
</g>
<!-- Node55&#45;&gt;Node58 -->
<g id="edge7" class="edge">
<title>Node55&#45;&gt;Node58</title>
<path fill="none" stroke="#191970" d="M292.5411,-104.6337C281.6857,-91.0366 271.0309,-71.8397 280.0786,-56 290.2154,-38.2536 310.1711,-26.6687 327.3594,-19.5638"/>
<polygon fill="#191970" stroke="#191970" points="289.9693,-107.0107 299.1517,-112.296 295.2694,-102.4381 289.9693,-107.0107"/>
</g>
<!-- Node55&#45;&gt;Node59 -->
<g id="edge8" class="edge">
<title>Node55&#45;&gt;Node59</title>
<path fill="none" stroke="#191970" d="M353.2613,-109.4869C378.3175,-101.5432 409.8144,-90.1034 436.0786,-76 466.5841,-59.619 498.1915,-33.6444 514.2697,-19.6657"/>
<polygon fill="#191970" stroke="#191970" points="352.1677,-106.1615 343.651,-112.4635 354.2389,-112.8481 352.1677,-106.1615"/>
</g>
<!-- Node60 -->
<g id="node7" class="node">
<title>Node60</title>
<g id="a_node7"><a xlink:href="TRootSecContext_8cxx.html" target="_top" xlink:title="net/auth/src/TRootSecContext.cxx">
<polygon fill="#ffffff" stroke="#000000" points="13.5786,-56.5 13.5786,-75.5 194.5786,-75.5 194.5786,-56.5 13.5786,-56.5"/>
<text text-anchor="middle" x="104.0786" y="-63.5" font-family="Helvetica,sans-Serif" font-size="10.00" fill="#000000">net/auth/src/TRootSecContext.cxx</text>
</a>
</g>
</g>
<!-- Node55&#45;&gt;Node60 -->
<g id="edge9" class="edge">
<title>Node55&#45;&gt;Node60</title>
<path fill="none" stroke="#191970" d="M264.1246,-109.7199C226.4299,-99.4228 173.3745,-84.9296 138.8595,-75.5011"/>
<polygon fill="#191970" stroke="#191970" points="263.2689,-113.1143 273.8378,-112.3733 265.1136,-106.3617 263.2689,-113.1143"/>
</g>
<!-- Node56&#45;&gt;Node57 -->
<g id="edge3" class="edge">
<title>Node56&#45;&gt;Node57</title>
<path fill="none" stroke="#191970" d="M318.4645,-53.3235C286.371,-43.0536 241.8575,-28.8093 212.7696,-19.5011"/>
<polygon fill="#191970" stroke="#191970" points="317.404,-56.6589 327.995,-56.3733 319.5375,-49.9919 317.404,-56.6589"/>
</g>
<!-- Node56&#45;&gt;Node58 -->
<g id="edge4" class="edge">
<title>Node56&#45;&gt;Node58</title>
<path fill="none" stroke="#191970" d="M358.0786,-46.1575C358.0786,-37.155 358.0786,-26.9199 358.0786,-19.6427"/>
<polygon fill="#191970" stroke="#191970" points="354.5787,-46.2455 358.0786,-56.2455 361.5787,-46.2456 354.5787,-46.2455"/>
</g>
<!-- Node56&#45;&gt;Node59 -->
<g id="edge5" class="edge">
<title>Node56&#45;&gt;Node59</title>
<path fill="none" stroke="#191970" d="M396.2784,-53.1905C426.8739,-42.9309 469.1063,-28.7691 496.7449,-19.5011"/>
<polygon fill="#191970" stroke="#191970" points="395.1552,-49.8755 386.7869,-56.3733 397.3808,-56.5123 395.1552,-49.8755"/>
</g>
</g>
</svg>
