<?xml version="1.0" encoding="UTF-8" standalone="no"?>
<!DOCTYPE svg PUBLIC "-//W3C//DTD SVG 1.1//EN"
 "http://www.w3.org/Graphics/SVG/1.1/DTD/svg11.dtd">
<!-- Generated by graphviz version 2.40.1 (0)
 -->
<!-- Title: graf3d/g3d/inc/TAxis3D.h Pages: 1 -->
<svg width="328pt" height="84pt"
 viewBox="0.00 0.00 328.00 84.00" xmlns="http://www.w3.org/2000/svg" xmlns:xlink="http://www.w3.org/1999/xlink">
<g id="graph0" class="graph" transform="scale(1 1) rotate(0) translate(4 80)">
<title>graf3d/g3d/inc/TAxis3D.h</title>
<polygon fill="#ffffff" stroke="transparent" points="-4,4 -4,-80 324,-80 324,4 -4,4"/>
<!-- Node50 -->
<g id="node1" class="node">
<title>Node50</title>
<polygon fill="#bfbfbf" stroke="#000000" points="89.5,-56.5 89.5,-75.5 227.5,-75.5 227.5,-56.5 89.5,-56.5"/>
<text text-anchor="middle" x="158.5" y="-63.5" font-family="Helvetica,sans-Serif" font-size="10.00" fill="#000000">graf3d/g3d/inc/TAxis3D.h</text>
</g>
<!-- Node51 -->
<g id="node2" class="node">
<title>Node51</title>
<g id="a_node2"><a xlink:href="TAxis3D_8cxx.html" target="_top" xlink:title="graf3d/g3d/src/TAxis3D.cxx">
<polygon fill="#ffffff" stroke="#000000" points="0,-.5 0,-19.5 149,-19.5 149,-.5 0,-.5"/>
<text text-anchor="middle" x="74.5" y="-7.5" font-family="Helvetica,sans-Serif" font-size="10.00" fill="#000000">graf3d/g3d/src/TAxis3D.cxx</text>
</a>
</g>
</g>
<!-- Node50&#45;&gt;Node51 -->
<g id="edge1" class="edge">
<title>Node50&#45;&gt;Node51</title>
<path fill="none" stroke="#191970" d="M135.2351,-50.49C120.4144,-40.6096 101.6791,-28.1194 88.964,-19.6427"/>
<polygon fill="#191970" stroke="#191970" points="133.6063,-53.6107 143.8683,-56.2455 137.4893,-47.7863 133.6063,-53.6107"/>
</g>
<!-- Node52 -->
<g id="node3" class="node">
<title>Node52</title>
<g id="a_node3"><a xlink:href="TView3D_8cxx.html" target="_top" xlink:title="graf3d/g3d/src/TView3D.cxx">
<polygon fill="#ffffff" stroke="#000000" points="167,-.5 167,-19.5 320,-19.5 320,-.5 167,-.5"/>
<text text-anchor="middle" x="243.5" y="-7.5" font-family="Helvetica,sans-Serif" font-size="10.00" fill="#000000">graf3d/g3d/src/TView3D.cxx</text>
</a>
</g>
</g>
<!-- Node50&#45;&gt;Node52 -->
<g id="edge2" class="edge">
<title>Node50&#45;&gt;Node52</title>
<path fill="none" stroke="#191970" d="M182.0419,-50.49C197.039,-40.6096 215.9973,-28.1194 228.8638,-19.6427"/>
<polygon fill="#191970" stroke="#191970" points="179.7309,-47.8212 173.3059,-56.2455 183.5821,-53.6666 179.7309,-47.8212"/>
</g>
</g>
</svg>
