<?xml version="1.0" encoding="UTF-8" standalone="no"?>
<!DOCTYPE svg PUBLIC "-//W3C//DTD SVG 1.1//EN"
 "http://www.w3.org/Graphics/SVG/1.1/DTD/svg11.dtd">
<!-- Generated by graphviz version 2.40.1 (0)
 -->
<!-- Title: tree/tree/inc/TBranchRef.h Pages: 1 -->
<svg width="1256pt" height="95pt"
 viewBox="0.00 0.00 1255.50 95.00" xmlns="http://www.w3.org/2000/svg" xmlns:xlink="http://www.w3.org/1999/xlink">
<g id="graph0" class="graph" transform="scale(1 1) rotate(0) translate(4 91)">
<title>tree/tree/inc/TBranchRef.h</title>
<polygon fill="#ffffff" stroke="transparent" points="-4,4 -4,-91 1251.5,-91 1251.5,4 -4,4"/>
<!-- Node77 -->
<g id="node1" class="node">
<title>Node77</title>
<polygon fill="#bfbfbf" stroke="#000000" points="595,-67.5 595,-86.5 738,-86.5 738,-67.5 595,-67.5"/>
<text text-anchor="middle" x="666.5" y="-74.5" font-family="Helvetica,sans-Serif" font-size="10.00" fill="#000000">tree/tree/inc/TBranchRef.h</text>
</g>
<!-- Node78 -->
<g id="node2" class="node">
<title>Node78</title>
<g id="a_node2"><a xlink:href="TBranchElement_8cxx.html" target="_top" xlink:title="tree/tree/src/TBranchElement.cxx">
<polygon fill="#ffffff" stroke="#000000" points="0,-6 0,-25 179,-25 179,-6 0,-6"/>
<text text-anchor="middle" x="89.5" y="-13" font-family="Helvetica,sans-Serif" font-size="10.00" fill="#000000">tree/tree/src/TBranchElement.cxx</text>
</a>
</g>
</g>
<!-- Node77&#45;&gt;Node78 -->
<g id="edge1" class="edge">
<title>Node77&#45;&gt;Node78</title>
<path fill="none" stroke="#191970" d="M584.5331,-70.6012C489.1975,-62.814 327.1606,-48.511 188.5,-31 174.8648,-29.278 160.2172,-27.1428 146.4807,-25.0133"/>
<polygon fill="#191970" stroke="#191970" points="584.4336,-74.1046 594.6843,-71.4264 585.0008,-67.1276 584.4336,-74.1046"/>
</g>
<!-- Node79 -->
<g id="node3" class="node">
<title>Node79</title>
<g id="a_node3"><a xlink:href="TBranchRef_8cxx.html" target="_top" xlink:title="tree/tree/src/TBranchRef.cxx">
<polygon fill="#ffffff" stroke="#000000" points="197.5,-6 197.5,-25 351.5,-25 351.5,-6 197.5,-6"/>
<text text-anchor="middle" x="274.5" y="-13" font-family="Helvetica,sans-Serif" font-size="10.00" fill="#000000">tree/tree/src/TBranchRef.cxx</text>
</a>
</g>
</g>
<!-- Node77&#45;&gt;Node79 -->
<g id="edge2" class="edge">
<title>Node77&#45;&gt;Node79</title>
<path fill="none" stroke="#191970" d="M589.1718,-66.0106C527.2467,-57.0572 438.197,-43.8389 360.5,-31 349.2739,-29.145 337.2441,-27.0465 325.8452,-25.0064"/>
<polygon fill="#191970" stroke="#191970" points="588.8577,-69.5014 599.2551,-67.4655 589.8574,-62.5732 588.8577,-69.5014"/>
</g>
<!-- Node80 -->
<g id="node4" class="node">
<title>Node80</title>
<g id="a_node4"><a xlink:href="TTree_8cxx.html" target="_top" xlink:title="tree/tree/src/TTree.cxx">
<polygon fill="#ffffff" stroke="#000000" points="370,-6 370,-25 495,-25 495,-6 370,-6"/>
<text text-anchor="middle" x="432.5" y="-13" font-family="Helvetica,sans-Serif" font-size="10.00" fill="#000000">tree/tree/src/TTree.cxx</text>
</a>
</g>
</g>
<!-- Node77&#45;&gt;Node80 -->
<g id="edge3" class="edge">
<title>Node77&#45;&gt;Node80</title>
<path fill="none" stroke="#191970" d="M620.5156,-64.9144C576.1069,-53.2428 509.7426,-35.8009 468.8909,-25.0643"/>
<polygon fill="#191970" stroke="#191970" points="619.633,-68.3012 630.1942,-67.4581 621.4124,-61.5311 619.633,-68.3012"/>
</g>
<!-- Node81 -->
<g id="node5" class="node">
<title>Node81</title>
<g id="a_node5"><a xlink:href="TTreeCloner_8cxx.html" target="_top" xlink:title="tree/tree/src/TTreeCloner.cxx">
<polygon fill="#ffffff" stroke="#000000" points="513.5,-6 513.5,-25 669.5,-25 669.5,-6 513.5,-6"/>
<text text-anchor="middle" x="591.5" y="-13" font-family="Helvetica,sans-Serif" font-size="10.00" fill="#000000">tree/tree/src/TTreeCloner.cxx</text>
</a>
</g>
</g>
<!-- Node77&#45;&gt;Node81 -->
<g id="edge4" class="edge">
<title>Node77&#45;&gt;Node81</title>
<path fill="none" stroke="#191970" d="M646.8283,-60.8692C633.0337,-49.5576 615.0442,-34.8062 603.384,-25.2449"/>
<polygon fill="#191970" stroke="#191970" points="644.8293,-63.7562 654.7813,-67.3906 649.2678,-58.3433 644.8293,-63.7562"/>
</g>
<!-- Node82 -->
<g id="node6" class="node">
<title>Node82</title>
<g id="a_node6"><a xlink:href="TRefProxy_8cxx.html" target="_top" xlink:title="tree/treeplayer/src\l/TRefProxy.cxx">
<polygon fill="#ffffff" stroke="#000000" points="688,-.5 688,-30.5 795,-30.5 795,-.5 688,-.5"/>
<text text-anchor="start" x="696" y="-18.5" font-family="Helvetica,sans-Serif" font-size="10.00" fill="#000000">tree/treeplayer/src</text>
<text text-anchor="middle" x="741.5" y="-7.5" font-family="Helvetica,sans-Serif" font-size="10.00" fill="#000000">/TRefProxy.cxx</text>
</a>
</g>
</g>
<!-- Node77&#45;&gt;Node82 -->
<g id="edge5" class="edge">
<title>Node77&#45;&gt;Node82</title>
<path fill="none" stroke="#191970" d="M685.9653,-61.0385C697.442,-51.6276 711.8766,-39.7911 723.1529,-30.5446"/>
<polygon fill="#191970" stroke="#191970" points="683.7322,-58.3433 678.2188,-67.3906 688.1707,-63.7562 683.7322,-58.3433"/>
</g>
<!-- Node83 -->
<g id="node7" class="node">
<title>Node83</title>
<g id="a_node7"><a xlink:href="TTreeReaderArray_8cxx.html" target="_top" xlink:title="tree/treeplayer/src\l/TTreeReaderArray.cxx">
<polygon fill="#ffffff" stroke="#000000" points="813,-.5 813,-30.5 938,-30.5 938,-.5 813,-.5"/>
<text text-anchor="start" x="821" y="-18.5" font-family="Helvetica,sans-Serif" font-size="10.00" fill="#000000">tree/treeplayer/src</text>
<text text-anchor="middle" x="875.5" y="-7.5" font-family="Helvetica,sans-Serif" font-size="10.00" fill="#000000">/TTreeReaderArray.cxx</text>
</a>
</g>
</g>
<!-- Node77&#45;&gt;Node83 -->
<g id="edge6" class="edge">
<title>Node77&#45;&gt;Node83</title>
<path fill="none" stroke="#191970" d="M709.0619,-64.4758C742.431,-54.6567 788.9835,-40.9582 824.3728,-30.5446"/>
<polygon fill="#191970" stroke="#191970" points="707.7615,-61.21 699.1563,-67.3906 709.7376,-67.9253 707.7615,-61.21"/>
</g>
<!-- Node84 -->
<g id="node8" class="node">
<title>Node84</title>
<g id="a_node8"><a xlink:href="TTreeReaderValue_8cxx.html" target="_top" xlink:title="tree/treeplayer/src\l/TTreeReaderValue.cxx">
<polygon fill="#ffffff" stroke="#000000" points="956,-.5 956,-30.5 1083,-30.5 1083,-.5 956,-.5"/>
<text text-anchor="start" x="964" y="-18.5" font-family="Helvetica,sans-Serif" font-size="10.00" fill="#000000">tree/treeplayer/src</text>
<text text-anchor="middle" x="1019.5" y="-7.5" font-family="Helvetica,sans-Serif" font-size="10.00" fill="#000000">/TTreeReaderValue.cxx</text>
</a>
</g>
</g>
<!-- Node77&#45;&gt;Node84 -->
<g id="edge7" class="edge">
<title>Node77&#45;&gt;Node84</title>
<path fill="none" stroke="#191970" d="M740.2369,-65.9563C797.0186,-57.2037 877.3957,-44.2755 947.5,-31 950.2639,-30.4766 953.0845,-29.9287 955.9316,-29.3644"/>
<polygon fill="#191970" stroke="#191970" points="739.6244,-62.5092 730.2716,-67.4868 740.6871,-69.4281 739.6244,-62.5092"/>
</g>
<!-- Node85 -->
<g id="node9" class="node">
<title>Node85</title>
<g id="a_node9"><a xlink:href="TTreeReaderValueFast_8cxx.html" target="_top" xlink:title="tree/treeplayer/src\l/TTreeReaderValueFast.cxx">
<polygon fill="#ffffff" stroke="#000000" points="1101.5,-.5 1101.5,-30.5 1247.5,-30.5 1247.5,-.5 1101.5,-.5"/>
<text text-anchor="start" x="1109.5" y="-18.5" font-family="Helvetica,sans-Serif" font-size="10.00" fill="#000000">tree/treeplayer/src</text>
<text text-anchor="middle" x="1174.5" y="-7.5" font-family="Helvetica,sans-Serif" font-size="10.00" fill="#000000">/TTreeReaderValueFast.cxx</text>
</a>
</g>
</g>
<!-- Node77&#45;&gt;Node85 -->
<g id="edge8" class="edge">
<title>Node77&#45;&gt;Node85</title>
<path fill="none" stroke="#191970" d="M748.543,-70.0856C834.5065,-62.3862 973.3545,-48.6651 1092.5,-31 1095.3663,-30.575 1098.2852,-30.1219 1101.2311,-29.6475"/>
<polygon fill="#191970" stroke="#191970" points="747.9772,-66.622 738.3267,-70.9946 748.5976,-73.5945 747.9772,-66.622"/>
</g>
</g>
</svg>
