<?xml version="1.0" encoding="UTF-8" standalone="no"?>
<!DOCTYPE svg PUBLIC "-//W3C//DTD SVG 1.1//EN"
 "http://www.w3.org/Graphics/SVG/1.1/DTD/svg11.dtd">
<!-- Generated by graphviz version 2.40.1 (0)
 -->
<!-- Title: bindings/pyroot/src/TCallContext.cxx Pages: 1 -->
<svg width="891pt" height="431pt"
 viewBox="0.00 0.00 891.20 431.00" xmlns="http://www.w3.org/2000/svg" xmlns:xlink="http://www.w3.org/1999/xlink">
<g id="graph0" class="graph" transform="scale(1 1) rotate(0) translate(4 427)">
<title>bindings/pyroot/src/TCallContext.cxx</title>
<polygon fill="#ffffff" stroke="transparent" points="-4,4 -4,-427 887.2045,-427 887.2045,4 -4,4"/>
<!-- Node0 -->
<g id="node1" class="node">
<title>Node0</title>
<polygon fill="#bfbfbf" stroke="#000000" points="24,-392.5 24,-422.5 134,-422.5 134,-392.5 24,-392.5"/>
<text text-anchor="start" x="32" y="-410.5" font-family="Helvetica,sans-Serif" font-size="10.00" fill="#000000">bindings/pyroot/src</text>
<text text-anchor="middle" x="79" y="-399.5" font-family="Helvetica,sans-Serif" font-size="10.00" fill="#000000">/TCallContext.cxx</text>
</g>
<!-- Node1 -->
<g id="node2" class="node">
<title>Node1</title>
<g id="a_node2"><a xlink:href="PyROOT_8h.html" target="_top" xlink:title="PyROOT.h">
<polygon fill="#ffffff" stroke="#000000" points="0,-336.5 0,-355.5 64,-355.5 64,-336.5 0,-336.5"/>
<text text-anchor="middle" x="32" y="-343.5" font-family="Helvetica,sans-Serif" font-size="10.00" fill="#000000">PyROOT.h</text>
</a>
</g>
</g>
<!-- Node0&#45;&gt;Node1 -->
<g id="edge1" class="edge">
<title>Node0&#45;&gt;Node1</title>
<path fill="none" stroke="#191970" d="M67.382,-392.2977C60.79,-383.672 52.5052,-372.8312 45.6099,-363.8087"/>
<polygon fill="#191970" stroke="#191970" points="48.3783,-361.6671 39.5253,-355.8469 42.8165,-365.9176 48.3783,-361.6671"/>
</g>
<!-- Node24 -->
<g id="node25" class="node">
<title>Node24</title>
<g id="a_node25"><a xlink:href="TCallContext_8h.html" target="_top" xlink:title="TCallContext.h">
<polygon fill="#ffffff" stroke="#000000" points="82,-336.5 82,-355.5 170,-355.5 170,-336.5 82,-336.5"/>
<text text-anchor="middle" x="126" y="-343.5" font-family="Helvetica,sans-Serif" font-size="10.00" fill="#000000">TCallContext.h</text>
</a>
</g>
</g>
<!-- Node0&#45;&gt;Node24 -->
<g id="edge32" class="edge">
<title>Node0&#45;&gt;Node24</title>
<path fill="none" stroke="#191970" d="M90.618,-392.2977C97.21,-383.672 105.4948,-372.8312 112.3901,-363.8087"/>
<polygon fill="#191970" stroke="#191970" points="115.1835,-365.9176 118.4747,-355.8469 109.6217,-361.6671 115.1835,-365.9176"/>
</g>
<!-- Node2 -->
<g id="node3" class="node">
<title>Node2</title>
<polygon fill="#ffffff" stroke="#bfbfbf" points="20.5,-280.5 20.5,-299.5 79.5,-299.5 79.5,-280.5 20.5,-280.5"/>
<text text-anchor="middle" x="50" y="-287.5" font-family="Helvetica,sans-Serif" font-size="10.00" fill="#000000">Python.h</text>
</g>
<!-- Node1&#45;&gt;Node2 -->
<g id="edge2" class="edge">
<title>Node1&#45;&gt;Node2</title>
<path fill="none" stroke="#191970" d="M35.1354,-336.2455C37.51,-328.8579 40.8493,-318.4689 43.7615,-309.4087"/>
<polygon fill="#191970" stroke="#191970" points="47.1725,-310.234 46.9006,-299.6427 40.5083,-308.0919 47.1725,-310.234"/>
</g>
<!-- Node3 -->
<g id="node4" class="node">
<title>Node3</title>
<g id="a_node4"><a xlink:href="Rtypes_8h.html" target="_top" xlink:title="Rtypes.h">
<polygon fill="#ffffff" stroke="#000000" points="488.5,-280.5 488.5,-299.5 547.5,-299.5 547.5,-280.5 488.5,-280.5"/>
<text text-anchor="middle" x="518" y="-287.5" font-family="Helvetica,sans-Serif" font-size="10.00" fill="#000000">Rtypes.h</text>
</a>
</g>
</g>
<!-- Node1&#45;&gt;Node3 -->
<g id="edge3" class="edge">
<title>Node1&#45;&gt;Node3</title>
<path fill="none" stroke="#191970" d="M64.1421,-337.722C67.1257,-337.0863 70.1121,-336.4991 73,-336 221.2025,-310.3894 399.8124,-297.2038 478.0326,-292.2997"/>
<polygon fill="#191970" stroke="#191970" points="478.6238,-295.77 488.3899,-291.6622 478.1938,-288.7832 478.6238,-295.77"/>
</g>
<!-- Node23 -->
<g id="node24" class="node">
<title>Node23</title>
<g id="a_node24"><a xlink:href="Cppyy_8h.html" target="_top" xlink:title="Cppyy.h">
<polygon fill="#ffffff" stroke="#000000" points="1.5,-224.5 1.5,-243.5 56.5,-243.5 56.5,-224.5 1.5,-224.5"/>
<text text-anchor="middle" x="29" y="-231.5" font-family="Helvetica,sans-Serif" font-size="10.00" fill="#000000">Cppyy.h</text>
</a>
</g>
</g>
<!-- Node1&#45;&gt;Node23 -->
<g id="edge28" class="edge">
<title>Node1&#45;&gt;Node23</title>
<path fill="none" stroke="#191970" d="M26.0235,-336.2032C20.8888,-327.1737 13.8729,-313.2108 11,-300 7.5349,-284.0659 12.964,-266.2393 18.7438,-253.1334"/>
<polygon fill="#191970" stroke="#191970" points="22.0748,-254.2859 23.291,-243.7611 15.7769,-251.2303 22.0748,-254.2859"/>
</g>
<!-- Node4 -->
<g id="node5" class="node">
<title>Node4</title>
<g id="a_node5"><a xlink:href="RtypesCore_8h.html" target="_top" xlink:title="RtypesCore.h">
<polygon fill="#ffffff" stroke="#000000" points="205,-112.5 205,-131.5 287,-131.5 287,-112.5 205,-112.5"/>
<text text-anchor="middle" x="246" y="-119.5" font-family="Helvetica,sans-Serif" font-size="10.00" fill="#000000">RtypesCore.h</text>
</a>
</g>
</g>
<!-- Node3&#45;&gt;Node4 -->
<g id="edge4" class="edge">
<title>Node3&#45;&gt;Node4</title>
<path fill="none" stroke="#191970" d="M547.5345,-288.4397C629.8325,-283.7925 857.1562,-268.8039 879,-244 884.8747,-237.3292 884.0684,-231.3023 879,-224 838.4243,-165.5405 798.3494,-183.9549 729,-168 647.9675,-149.3572 404.6588,-132.1108 297.5602,-125.1946"/>
<polygon fill="#191970" stroke="#191970" points="297.5288,-121.6855 287.3253,-124.5384 297.0808,-128.6711 297.5288,-121.6855"/>
</g>
<!-- Node9 -->
<g id="node10" class="node">
<title>Node9</title>
<g id="a_node10"><a xlink:href="DllImport_8h.html" target="_top" xlink:title="DllImport.h">
<polygon fill="#ffffff" stroke="#000000" points="397.5,-224.5 397.5,-243.5 468.5,-243.5 468.5,-224.5 397.5,-224.5"/>
<text text-anchor="middle" x="433" y="-231.5" font-family="Helvetica,sans-Serif" font-size="10.00" fill="#000000">DllImport.h</text>
</a>
</g>
</g>
<!-- Node3&#45;&gt;Node9 -->
<g id="edge9" class="edge">
<title>Node3&#45;&gt;Node9</title>
<path fill="none" stroke="#191970" d="M503.1941,-280.2455C490.2744,-271.7337 471.3069,-259.2375 456.3448,-249.3801"/>
<polygon fill="#191970" stroke="#191970" points="457.9124,-246.2216 447.6362,-243.6427 454.0613,-252.067 457.9124,-246.2216"/>
</g>
<!-- Node10 -->
<g id="node11" class="node">
<title>Node10</title>
<polygon fill="#ffffff" stroke="#bfbfbf" points="487,-224.5 487,-243.5 549,-243.5 549,-224.5 487,-224.5"/>
<text text-anchor="middle" x="518" y="-231.5" font-family="Helvetica,sans-Serif" font-size="10.00" fill="#000000">snprintf.h</text>
</g>
<!-- Node3&#45;&gt;Node10 -->
<g id="edge10" class="edge">
<title>Node3&#45;&gt;Node10</title>
<path fill="none" stroke="#191970" d="M518,-280.2455C518,-272.9382 518,-262.6944 518,-253.7046"/>
<polygon fill="#191970" stroke="#191970" points="521.5001,-253.6426 518,-243.6427 514.5001,-253.6427 521.5001,-253.6426"/>
</g>
<!-- Node11 -->
<g id="node12" class="node">
<title>Node11</title>
<polygon fill="#ffffff" stroke="#bfbfbf" points="567.5,-224.5 567.5,-243.5 624.5,-243.5 624.5,-224.5 567.5,-224.5"/>
<text text-anchor="middle" x="596" y="-231.5" font-family="Helvetica,sans-Serif" font-size="10.00" fill="#000000">strlcpy.h</text>
</g>
<!-- Node3&#45;&gt;Node11 -->
<g id="edge11" class="edge">
<title>Node3&#45;&gt;Node11</title>
<path fill="none" stroke="#191970" d="M531.5866,-280.2455C543.3305,-271.814 560.5199,-259.4729 574.1882,-249.6598"/>
<polygon fill="#191970" stroke="#191970" points="576.4871,-252.3179 582.5691,-243.6427 572.4046,-246.6316 576.4871,-252.3179"/>
</g>
<!-- Node12 -->
<g id="node13" class="node">
<title>Node12</title>
<polygon fill="#ffffff" stroke="#bfbfbf" points="262,-168.5 262,-187.5 312,-187.5 312,-168.5 262,-168.5"/>
<text text-anchor="middle" x="287" y="-175.5" font-family="Helvetica,sans-Serif" font-size="10.00" fill="#000000">atomic</text>
</g>
<!-- Node3&#45;&gt;Node12 -->
<g id="edge12" class="edge">
<title>Node3&#45;&gt;Node12</title>
<path fill="none" stroke="#191970" d="M488.3182,-287.9355C434.2444,-283.5364 322.8639,-271.3227 297,-244 285.4454,-231.7937 283.7733,-212.2348 284.4947,-197.5719"/>
<polygon fill="#191970" stroke="#191970" points="287.9893,-197.7871 285.3889,-187.5164 281.0168,-197.167 287.9893,-197.7871"/>
</g>
<!-- Node13 -->
<g id="node14" class="node">
<title>Node13</title>
<polygon fill="#ffffff" stroke="#bfbfbf" points="643,-224.5 643,-243.5 693,-243.5 693,-224.5 643,-224.5"/>
<text text-anchor="middle" x="668" y="-231.5" font-family="Helvetica,sans-Serif" font-size="10.00" fill="#000000">stdio.h</text>
</g>
<!-- Node3&#45;&gt;Node13 -->
<g id="edge13" class="edge">
<title>Node3&#45;&gt;Node13</title>
<path fill="none" stroke="#191970" d="M543.7859,-280.3733C568.4047,-271.1822 605.69,-257.2624 632.9875,-247.0713"/>
<polygon fill="#191970" stroke="#191970" points="634.4063,-250.2777 642.5506,-243.5011 631.958,-243.7198 634.4063,-250.2777"/>
</g>
<!-- Node14 -->
<g id="node15" class="node">
<title>Node14</title>
<polygon fill="#ffffff" stroke="#bfbfbf" points="711.5,-224.5 711.5,-243.5 764.5,-243.5 764.5,-224.5 711.5,-224.5"/>
<text text-anchor="middle" x="738" y="-231.5" font-family="Helvetica,sans-Serif" font-size="10.00" fill="#000000">string.h</text>
</g>
<!-- Node3&#45;&gt;Node14 -->
<g id="edge14" class="edge">
<title>Node3&#45;&gt;Node14</title>
<path fill="none" stroke="#191970" d="M547.6981,-282.8269C582.2723,-274.4211 641.3274,-259.8942 701.6037,-244.0564"/>
<polygon fill="#191970" stroke="#191970" points="702.5073,-247.4379 711.2846,-241.504 700.7227,-240.6692 702.5073,-247.4379"/>
</g>
<!-- Node15 -->
<g id="node16" class="node">
<title>Node15</title>
<polygon fill="#ffffff" stroke="#bfbfbf" points="662.5,-168.5 662.5,-187.5 719.5,-187.5 719.5,-168.5 662.5,-168.5"/>
<text text-anchor="middle" x="691" y="-175.5" font-family="Helvetica,sans-Serif" font-size="10.00" fill="#000000">typeinfo</text>
</g>
<!-- Node3&#45;&gt;Node15 -->
<g id="edge15" class="edge">
<title>Node3&#45;&gt;Node15</title>
<path fill="none" stroke="#191970" d="M547.771,-288.2166C627.3653,-283.1473 840.4535,-267.486 861,-244 900.0182,-199.3997 791.1047,-184.7362 729.7192,-180.0753"/>
<polygon fill="#191970" stroke="#191970" points="729.8014,-176.5725 719.5806,-179.3629 729.3107,-183.5553 729.8014,-176.5725"/>
</g>
<!-- Node16 -->
<g id="node17" class="node">
<title>Node16</title>
<polygon fill="#ffffff" stroke="#bfbfbf" points="782.5,-224.5 782.5,-243.5 851.5,-243.5 851.5,-224.5 782.5,-224.5"/>
<text text-anchor="middle" x="817" y="-231.5" font-family="Helvetica,sans-Serif" font-size="10.00" fill="#000000">type_traits</text>
</g>
<!-- Node3&#45;&gt;Node16 -->
<g id="edge16" class="edge">
<title>Node3&#45;&gt;Node16</title>
<path fill="none" stroke="#191970" d="M547.6581,-285.173C593.6755,-277.5749 685.272,-262.0192 772.2648,-244.2884"/>
<polygon fill="#191970" stroke="#191970" points="773.2072,-247.668 782.2994,-242.229 771.7999,-240.8109 773.2072,-247.668"/>
</g>
<!-- Node17 -->
<g id="node18" class="node">
<title>Node17</title>
<g id="a_node18"><a xlink:href="TGenericClassInfo_8h.html" target="_top" xlink:title="TGenericClassInfo.h">
<polygon fill="#ffffff" stroke="#000000" points="136,-224.5 136,-243.5 250,-243.5 250,-224.5 136,-224.5"/>
<text text-anchor="middle" x="193" y="-231.5" font-family="Helvetica,sans-Serif" font-size="10.00" fill="#000000">TGenericClassInfo.h</text>
</a>
</g>
</g>
<!-- Node3&#45;&gt;Node17 -->
<g id="edge17" class="edge">
<title>Node3&#45;&gt;Node17</title>
<path fill="none" stroke="#191970" d="M488.3658,-285.559C435.1841,-276.9414 323.0232,-257.7121 253.1915,-245.3274"/>
<polygon fill="#191970" stroke="#191970" points="253.6661,-241.8569 243.2077,-243.5519 252.4404,-248.7488 253.6661,-241.8569"/>
</g>
<!-- Node21 -->
<g id="node22" class="node">
<title>Node21</title>
<g id="a_node22"><a xlink:href="TIsAProxy_8h.html" target="_top" xlink:title="TIsAProxy.h">
<polygon fill="#ffffff" stroke="#000000" points="306.5,-224.5 306.5,-243.5 379.5,-243.5 379.5,-224.5 306.5,-224.5"/>
<text text-anchor="middle" x="343" y="-231.5" font-family="Helvetica,sans-Serif" font-size="10.00" fill="#000000">TIsAProxy.h</text>
</a>
</g>
</g>
<!-- Node3&#45;&gt;Node21 -->
<g id="edge23" class="edge">
<title>Node3&#45;&gt;Node21</title>
<path fill="none" stroke="#191970" d="M488.3136,-280.5004C459.1502,-271.1681 414.4777,-256.8729 382.364,-246.5965"/>
<polygon fill="#191970" stroke="#191970" points="383.423,-243.2606 372.832,-243.5462 381.2895,-249.9276 383.423,-243.2606"/>
</g>
<!-- Node5 -->
<g id="node6" class="node">
<title>Node5</title>
<g id="a_node6"><a xlink:href="RConfig_8hxx.html" target="_top" xlink:title="ROOT/RConfig.hxx">
<polygon fill="#ffffff" stroke="#000000" points="193.5,-56.5 193.5,-75.5 298.5,-75.5 298.5,-56.5 193.5,-56.5"/>
<text text-anchor="middle" x="246" y="-63.5" font-family="Helvetica,sans-Serif" font-size="10.00" fill="#000000">ROOT/RConfig.hxx</text>
</a>
</g>
</g>
<!-- Node4&#45;&gt;Node5 -->
<g id="edge5" class="edge">
<title>Node4&#45;&gt;Node5</title>
<path fill="none" stroke="#191970" d="M246,-112.2455C246,-104.9382 246,-94.6944 246,-85.7046"/>
<polygon fill="#191970" stroke="#191970" points="249.5001,-85.6426 246,-75.6427 242.5001,-85.6427 249.5001,-85.6426"/>
</g>
<!-- Node8 -->
<g id="node9" class="node">
<title>Node8</title>
<polygon fill="#ffffff" stroke="#bfbfbf" points="77,-56.5 77,-75.5 133,-75.5 133,-56.5 77,-56.5"/>
<text text-anchor="middle" x="105" y="-63.5" font-family="Helvetica,sans-Serif" font-size="10.00" fill="#000000">stddef.h</text>
</g>
<!-- Node4&#45;&gt;Node8 -->
<g id="edge8" class="edge">
<title>Node4&#45;&gt;Node8</title>
<path fill="none" stroke="#191970" d="M221.7612,-112.3733C198.7211,-103.2226 163.8786,-89.3844 138.2499,-79.2057"/>
<polygon fill="#191970" stroke="#191970" points="139.5082,-75.9395 128.9225,-75.5011 136.9244,-82.4452 139.5082,-75.9395"/>
</g>
<!-- Node6 -->
<g id="node7" class="node">
<title>Node6</title>
<g id="a_node7"><a xlink:href="RVersion_8h.html" target="_top" xlink:title="../RVersion.h">
<polygon fill="#ffffff" stroke="#000000" points="159.5,-.5 159.5,-19.5 236.5,-19.5 236.5,-.5 159.5,-.5"/>
<text text-anchor="middle" x="198" y="-7.5" font-family="Helvetica,sans-Serif" font-size="10.00" fill="#000000">../RVersion.h</text>
</a>
</g>
</g>
<!-- Node5&#45;&gt;Node6 -->
<g id="edge6" class="edge">
<title>Node5&#45;&gt;Node6</title>
<path fill="none" stroke="#191970" d="M237.639,-56.2455C230.825,-48.2958 221.0319,-36.8706 212.8848,-27.3656"/>
<polygon fill="#191970" stroke="#191970" points="215.4305,-24.9575 206.2651,-19.6427 210.1157,-29.513 215.4305,-24.9575"/>
</g>
<!-- Node7 -->
<g id="node8" class="node">
<title>Node7</title>
<polygon fill="#ffffff" stroke="#bfbfbf" points="255,-.5 255,-19.5 333,-19.5 333,-.5 255,-.5"/>
<text text-anchor="middle" x="294" y="-7.5" font-family="Helvetica,sans-Serif" font-size="10.00" fill="#000000">RConfigure.h</text>
</g>
<!-- Node5&#45;&gt;Node7 -->
<g id="edge7" class="edge">
<title>Node5&#45;&gt;Node7</title>
<path fill="none" stroke="#191970" d="M254.361,-56.2455C261.175,-48.2958 270.9681,-36.8706 279.1152,-27.3656"/>
<polygon fill="#191970" stroke="#191970" points="281.8843,-29.513 285.7349,-19.6427 276.5695,-24.9575 281.8843,-29.513"/>
</g>
<!-- Node17&#45;&gt;Node3 -->
<g id="edge22" class="edge">
<title>Node17&#45;&gt;Node3</title>
<path fill="none" stroke="#191970" d="M250.0094,-242.9438C315.5362,-253.8403 421.2011,-272.0638 478.3721,-282.3423"/>
<polygon fill="#191970" stroke="#191970" points="477.9992,-285.8315 488.4622,-284.1655 479.2439,-278.9431 477.9992,-285.8315"/>
</g>
<!-- Node18 -->
<g id="node19" class="node">
<title>Node18</title>
<polygon fill="#ffffff" stroke="#bfbfbf" points="76.5,-168.5 76.5,-187.5 123.5,-187.5 123.5,-168.5 76.5,-168.5"/>
<text text-anchor="middle" x="100" y="-175.5" font-family="Helvetica,sans-Serif" font-size="10.00" fill="#000000">vector</text>
</g>
<!-- Node17&#45;&gt;Node18 -->
<g id="edge18" class="edge">
<title>Node17&#45;&gt;Node18</title>
<path fill="none" stroke="#191970" d="M176.8006,-224.2455C162.3982,-215.5731 141.1268,-202.7645 124.6201,-192.825"/>
<polygon fill="#191970" stroke="#191970" points="126.386,-189.8028 116.0137,-187.6427 122.775,-195.7996 126.386,-189.8028"/>
</g>
<!-- Node19 -->
<g id="node20" class="node">
<title>Node19</title>
<g id="a_node20"><a xlink:href="TSchemaHelper_8h.html" target="_top" xlink:title="TSchemaHelper.h">
<polygon fill="#ffffff" stroke="#000000" points="142,-168.5 142,-187.5 244,-187.5 244,-168.5 142,-168.5"/>
<text text-anchor="middle" x="193" y="-175.5" font-family="Helvetica,sans-Serif" font-size="10.00" fill="#000000">TSchemaHelper.h</text>
</a>
</g>
</g>
<!-- Node17&#45;&gt;Node19 -->
<g id="edge19" class="edge">
<title>Node17&#45;&gt;Node19</title>
<path fill="none" stroke="#191970" d="M193,-224.2455C193,-216.9382 193,-206.6944 193,-197.7046"/>
<polygon fill="#191970" stroke="#191970" points="196.5001,-197.6426 193,-187.6427 189.5001,-197.6427 196.5001,-197.6426"/>
</g>
<!-- Node19&#45;&gt;Node4 -->
<g id="edge20" class="edge">
<title>Node19&#45;&gt;Node4</title>
<path fill="none" stroke="#191970" d="M202.2319,-168.2455C209.8317,-160.2155 220.7877,-148.6394 229.8368,-139.0781"/>
<polygon fill="#191970" stroke="#191970" points="232.5421,-141.3115 236.8739,-131.6427 227.458,-136.4998 232.5421,-141.3115"/>
</g>
<!-- Node20 -->
<g id="node21" class="node">
<title>Node20</title>
<polygon fill="#ffffff" stroke="#bfbfbf" points="117,-112.5 117,-131.5 161,-131.5 161,-112.5 117,-112.5"/>
<text text-anchor="middle" x="139" y="-119.5" font-family="Helvetica,sans-Serif" font-size="10.00" fill="#000000">string</text>
</g>
<!-- Node19&#45;&gt;Node20 -->
<g id="edge21" class="edge">
<title>Node19&#45;&gt;Node20</title>
<path fill="none" stroke="#191970" d="M183.5939,-168.2455C175.8507,-160.2155 164.688,-148.6394 155.4682,-139.0781"/>
<polygon fill="#191970" stroke="#191970" points="157.7591,-136.4117 148.2983,-131.6427 152.7202,-141.2706 157.7591,-136.4117"/>
</g>
<!-- Node21&#45;&gt;Node4 -->
<g id="edge25" class="edge">
<title>Node21&#45;&gt;Node4</title>
<path fill="none" stroke="#191970" d="M379.699,-225.5186C417.1367,-215.1379 466.858,-195.4869 445,-168 426.8954,-145.233 350.2642,-132.7546 297.558,-126.7281"/>
<polygon fill="#191970" stroke="#191970" points="297.6827,-123.2208 287.3602,-125.6077 296.9181,-130.179 297.6827,-123.2208"/>
</g>
<!-- Node21&#45;&gt;Node12 -->
<g id="edge26" class="edge">
<title>Node21&#45;&gt;Node12</title>
<path fill="none" stroke="#191970" d="M333.2455,-224.2455C325.1352,-216.1352 313.4075,-204.4075 303.7919,-194.7919"/>
<polygon fill="#191970" stroke="#191970" points="306.1887,-192.2389 296.6427,-187.6427 301.2389,-197.1887 306.1887,-192.2389"/>
</g>
<!-- Node21&#45;&gt;Node15 -->
<g id="edge27" class="edge">
<title>Node21&#45;&gt;Node15</title>
<path fill="none" stroke="#191970" d="M379.7951,-225.6095C382.5672,-225.0429 385.3252,-224.4996 388,-224 482.5363,-206.3411 594.6265,-190.6869 652.355,-183.0097"/>
<polygon fill="#191970" stroke="#191970" points="653.0301,-186.451 662.4851,-181.6704 652.1125,-179.5114 653.0301,-186.451"/>
</g>
<!-- Node22 -->
<g id="node23" class="node">
<title>Node22</title>
<g id="a_node23"><a xlink:href="TVirtualIsAProxy_8h.html" target="_top" xlink:title="TVirtualIsAProxy.h">
<polygon fill="#ffffff" stroke="#000000" points="330.5,-168.5 330.5,-187.5 435.5,-187.5 435.5,-168.5 330.5,-168.5"/>
<text text-anchor="middle" x="383" y="-175.5" font-family="Helvetica,sans-Serif" font-size="10.00" fill="#000000">TVirtualIsAProxy.h</text>
</a>
</g>
</g>
<!-- Node21&#45;&gt;Node22 -->
<g id="edge24" class="edge">
<title>Node21&#45;&gt;Node22</title>
<path fill="none" stroke="#191970" d="M349.9675,-224.2455C355.5311,-216.4564 363.478,-205.3308 370.1829,-195.9439"/>
<polygon fill="#191970" stroke="#191970" points="373.148,-197.8144 376.1124,-187.6427 367.4519,-193.7457 373.148,-197.8144"/>
</g>
<!-- Node23&#45;&gt;Node8 -->
<g id="edge31" class="edge">
<title>Node23&#45;&gt;Node8</title>
<path fill="none" stroke="#191970" d="M31.0412,-224.3672C33.973,-211.3017 39.9256,-187.3702 48,-168 60.7443,-137.427 80.4198,-104.3593 93.0002,-84.4166"/>
<polygon fill="#191970" stroke="#191970" points="96.1042,-86.0593 98.5447,-75.7493 90.2075,-82.2871 96.1042,-86.0593"/>
</g>
<!-- Node23&#45;&gt;Node18 -->
<g id="edge30" class="edge">
<title>Node23&#45;&gt;Node18</title>
<path fill="none" stroke="#191970" d="M41.3673,-224.2455C51.9554,-215.8943 67.4064,-203.7076 79.7893,-193.9408"/>
<polygon fill="#191970" stroke="#191970" points="82.0903,-196.5837 87.7745,-187.6427 77.7553,-191.0875 82.0903,-196.5837"/>
</g>
<!-- Node23&#45;&gt;Node20 -->
<g id="edge29" class="edge">
<title>Node23&#45;&gt;Node20</title>
<path fill="none" stroke="#191970" d="M32.9068,-224.0929C38.7241,-210.2805 50.7465,-185.021 67,-168 79.2689,-155.1518 95.8168,-144.2572 109.9546,-136.3005"/>
<polygon fill="#191970" stroke="#191970" points="111.6946,-139.3386 118.828,-131.505 108.3664,-133.1804 111.6946,-139.3386"/>
</g>
<!-- Node24&#45;&gt;Node18 -->
<g id="edge33" class="edge">
<title>Node24&#45;&gt;Node18</title>
<path fill="none" stroke="#191970" d="M124.5276,-336.4862C120.4176,-309.9293 108.7541,-234.5651 103.1209,-198.1655"/>
<polygon fill="#191970" stroke="#191970" points="106.5093,-197.1749 101.521,-187.8279 99.5917,-198.2456 106.5093,-197.1749"/>
</g>
</g>
</svg>
