<?xml version="1.0" encoding="UTF-8" standalone="no"?>
<!DOCTYPE svg PUBLIC "-//W3C//DTD SVG 1.1//EN"
 "http://www.w3.org/Graphics/SVG/1.1/DTD/svg11.dtd">
<!-- Generated by graphviz version 2.40.1 (0)
 -->
<!-- Title: core/meta/inc/TClassStreamer.h Pages: 1 -->
<!--zoomable 229 -->
<svg id="main" version="1.1" xmlns="http://www.w3.org/2000/svg" xmlns:xlink="http://www.w3.org/1999/xlink" xml:space="preserve" onload="init(evt)">
<style type="text/css"><![CDATA[
.edge:hover path { stroke: red; }
.edge:hover polygon { stroke: red; fill: red; }
]]></style>
<script type="text/javascript"><![CDATA[
var edges = document.getElementsByTagName('g');
if (edges && edges.length) {
  for (var i=0;i<edges.length;i++) {
    if (edges[i].id.substr(0,4)=='edge') {
      edges[i].setAttribute('class','edge');
    }
  }
}
]]></script>
        <defs>
                <circle id="rim" cx="0" cy="0" r="7"/>
                <circle id="rim2" cx="0" cy="0" r="3.5"/>
                <g id="zoomPlus">
                        <use xlink:href="#rim" fill="#404040">
                                <set attributeName="fill" to="#808080" begin="zoomplus.mouseover" end="zoomplus.mouseout"/>
                        </use>
                        <path d="M-4,0h8M0,-4v8" fill="none" stroke="white" stroke-width="1.5" pointer-events="none"/>
                </g>
                <g id="zoomMin">
                        <use xlink:href="#rim" fill="#404040">
                                <set attributeName="fill" to="#808080" begin="zoomminus.mouseover" end="zoomminus.mouseout"/>
                        </use>
                        <path d="M-4,0h8" fill="none" stroke="white" stroke-width="1.5" pointer-events="none"/>
                </g>
                <g id="dirArrow">
                        <path fill="none" stroke="white" stroke-width="1.5" d="M0,-3.0v7 M-2.5,-0.5L0,-3.0L2.5,-0.5"/>
                </g>
               <g id="resetDef">
                       <use xlink:href="#rim2" fill="#404040">
                               <set attributeName="fill" to="#808080" begin="reset.mouseover" end="reset.mouseout"/>
                       </use>
               </g>
        </defs>

<script type="text/javascript">
var viewWidth = 2020;
var viewHeight = 229;
var sectionId = 'dynsection-1';
</script>
<script xlink:href="svgpan.js"/>
<svg id="graph" class="graph">
<g id="viewport">
<title>core/meta/inc/TClassStreamer.h</title>
<polygon fill="#ffffff" stroke="transparent" points="-4,4 -4,-225 2016,-225 2016,4 -4,4"/>
<!-- Node63 -->
<g id="node1" class="node">
<title>Node63</title>
<polygon fill="#bfbfbf" stroke="#000000" points="1470.5,-201.5 1470.5,-220.5 1641.5,-220.5 1641.5,-201.5 1470.5,-201.5"/>
<text text-anchor="middle" x="1556" y="-208.5" font-family="Helvetica,sans-Serif" font-size="10.00" fill="#000000">core/meta/inc/TClassStreamer.h</text>
</g>
<!-- Node64 -->
<g id="node2" class="node">
<title>Node64</title>
<g id="a_node2"><a xlink:href="TStreamer_8h.html" target="_top" xlink:title="core/meta/inc/TStreamer.h">
<polygon fill="#ffffff" stroke="#000000" points="813,-140 813,-159 959,-159 959,-140 813,-140"/>
<text text-anchor="middle" x="886" y="-147" font-family="Helvetica,sans-Serif" font-size="10.00" fill="#000000">core/meta/inc/TStreamer.h</text>
</a>
</g>
</g>
<!-- Node63&#45;&gt;Node64 -->
<g id="edge1" class="edge">
<title>Node63&#45;&gt;Node64</title>
<path fill="none" stroke="#191970" d="M1460.1168,-202.1988C1324.8503,-189.7825 1080.9464,-167.3943 959.2305,-156.2219"/>
<polygon fill="#191970" stroke="#191970" points="1460.1854,-205.7197 1470.4635,-203.1485 1460.8253,-198.749 1460.1854,-205.7197"/>
</g>
<!-- Node75 -->
<g id="node13" class="node">
<title>Node75</title>
<g id="a_node13"><a xlink:href="TStreamerElement_8cxx.html" target="_top" xlink:title="core/meta/src/TStreamerElement.cxx">
<polygon fill="#ffffff" stroke="#000000" points="1364,-140 1364,-159 1562,-159 1562,-140 1364,-140"/>
<text text-anchor="middle" x="1463" y="-147" font-family="Helvetica,sans-Serif" font-size="10.00" fill="#000000">core/meta/src/TStreamerElement.cxx</text>
</a>
</g>
</g>
<!-- Node63&#45;&gt;Node75 -->
<g id="edge12" class="edge">
<title>Node63&#45;&gt;Node75</title>
<path fill="none" stroke="#191970" d="M1532.9935,-195.786C1515.6038,-184.2864 1492.2685,-168.855 1477.4292,-159.0419"/>
<polygon fill="#191970" stroke="#191970" points="1531.197,-198.7941 1541.4688,-201.3906 1535.0582,-192.9553 1531.197,-198.7941"/>
</g>
<!-- Node76 -->
<g id="node14" class="node">
<title>Node76</title>
<g id="a_node14"><a xlink:href="TCollectionProxyFactory_8h.html" target="_top" xlink:title="io/io/inc/TCollectionProxy\lFactory.h">
<polygon fill="#ffffff" stroke="#000000" points="1580,-134.5 1580,-164.5 1720,-164.5 1720,-134.5 1580,-134.5"/>
<text text-anchor="start" x="1588" y="-152.5" font-family="Helvetica,sans-Serif" font-size="10.00" fill="#000000">io/io/inc/TCollectionProxy</text>
<text text-anchor="middle" x="1650" y="-141.5" font-family="Helvetica,sans-Serif" font-size="10.00" fill="#000000">Factory.h</text>
</a>
</g>
</g>
<!-- Node63&#45;&gt;Node76 -->
<g id="edge13" class="edge">
<title>Node63&#45;&gt;Node76</title>
<path fill="none" stroke="#191970" d="M1579.1493,-195.8545C1593.7234,-186.3193 1612.4604,-174.0605 1627.005,-164.5446"/>
<polygon fill="#191970" stroke="#191970" points="1577.1394,-192.9868 1570.6875,-201.3906 1580.9719,-198.8445 1577.1394,-192.9868"/>
</g>
<!-- Node79 -->
<g id="node17" class="node">
<title>Node79</title>
<g id="a_node17"><a xlink:href="TContainerConverters_8cxx.html" target="_top" xlink:title="io/io/src/TContainerConverters.cxx">
<polygon fill="#ffffff" stroke="#000000" points="1828,-6 1828,-25 2012,-25 2012,-6 1828,-6"/>
<text text-anchor="middle" x="1920" y="-13" font-family="Helvetica,sans-Serif" font-size="10.00" fill="#000000">io/io/src/TContainerConverters.cxx</text>
</a>
</g>
</g>
<!-- Node63&#45;&gt;Node79 -->
<g id="edge20" class="edge">
<title>Node63&#45;&gt;Node79</title>
<path fill="none" stroke="#191970" d="M1623.2289,-199.3453C1656.1615,-192.1016 1695.7758,-181.0454 1729,-165 1807.8719,-126.9094 1884.6668,-52.0227 1910.6921,-25.2793"/>
<polygon fill="#191970" stroke="#191970" points="1622.2895,-195.9667 1613.2374,-201.4722 1623.747,-202.8133 1622.2895,-195.9667"/>
</g>
<!-- Node65 -->
<g id="node3" class="node">
<title>Node65</title>
<g id="a_node3"><a xlink:href="TClass_8cxx.html" target="_top" xlink:title="core/meta/src/TClass.cxx">
<polygon fill="#ffffff" stroke="#000000" points="0,-73 0,-92 138,-92 138,-73 0,-73"/>
<text text-anchor="middle" x="69" y="-80" font-family="Helvetica,sans-Serif" font-size="10.00" fill="#000000">core/meta/src/TClass.cxx</text>
</a>
</g>
</g>
<!-- Node64&#45;&gt;Node65 -->
<g id="edge2" class="edge">
<title>Node64&#45;&gt;Node65</title>
<path fill="none" stroke="#191970" d="M802.7664,-147.1328C665.5804,-142.4629 383.6025,-129.6235 147,-98 135.5048,-96.4636 123.1554,-94.2666 111.75,-92.008"/>
<polygon fill="#191970" stroke="#191970" points="802.6792,-150.6317 812.7907,-147.4682 802.9133,-143.6357 802.6792,-150.6317"/>
</g>
<!-- Node66 -->
<g id="node4" class="node">
<title>Node66</title>
<g id="a_node4"><a xlink:href="TGenericClassInfo_8cxx.html" target="_top" xlink:title="core/meta/src/TGenericClass\lInfo.cxx">
<polygon fill="#ffffff" stroke="#000000" points="156,-67.5 156,-97.5 312,-97.5 312,-67.5 156,-67.5"/>
<text text-anchor="start" x="164" y="-85.5" font-family="Helvetica,sans-Serif" font-size="10.00" fill="#000000">core/meta/src/TGenericClass</text>
<text text-anchor="middle" x="234" y="-74.5" font-family="Helvetica,sans-Serif" font-size="10.00" fill="#000000">Info.cxx</text>
</a>
</g>
</g>
<!-- Node64&#45;&gt;Node66 -->
<g id="edge3" class="edge">
<title>Node64&#45;&gt;Node66</title>
<path fill="none" stroke="#191970" d="M802.5597,-144.1327C692.097,-136.5157 491.3949,-120.9021 321,-98 318.111,-97.6117 315.1716,-97.1957 312.2052,-96.7581"/>
<polygon fill="#191970" stroke="#191970" points="802.4219,-147.6313 812.6377,-144.8226 802.9001,-140.6477 802.4219,-147.6313"/>
</g>
<!-- Node67 -->
<g id="node5" class="node">
<title>Node67</title>
<g id="a_node5"><a xlink:href="TRealData_8cxx.html" target="_top" xlink:title="core/meta/src/TRealData.cxx">
<polygon fill="#ffffff" stroke="#000000" points="330.5,-73 330.5,-92 487.5,-92 487.5,-73 330.5,-73"/>
<text text-anchor="middle" x="409" y="-80" font-family="Helvetica,sans-Serif" font-size="10.00" fill="#000000">core/meta/src/TRealData.cxx</text>
</a>
</g>
</g>
<!-- Node64&#45;&gt;Node67 -->
<g id="edge4" class="edge">
<title>Node64&#45;&gt;Node67</title>
<path fill="none" stroke="#191970" d="M802.3763,-139.4772C723.5008,-129.7755 602.0296,-114.1947 497,-98 485.3479,-96.2033 472.8583,-94.1074 461.0555,-92.0481"/>
<polygon fill="#191970" stroke="#191970" points="802.3857,-143.0045 812.7375,-140.748 803.2379,-136.0566 802.3857,-143.0045"/>
</g>
<!-- Node68 -->
<g id="node6" class="node">
<title>Node68</title>
<g id="a_node6"><a xlink:href="TBufferFile_8cxx.html" target="_top" xlink:title=" &#160;">
<polygon fill="#ffffff" stroke="#000000" points="506,-73 506,-92 636,-92 636,-73 506,-73"/>
<text text-anchor="middle" x="571" y="-80" font-family="Helvetica,sans-Serif" font-size="10.00" fill="#000000">io/io/src/TBufferFile.cxx</text>
</a>
</g>
</g>
<!-- Node64&#45;&gt;Node68 -->
<g id="edge5" class="edge">
<title>Node64&#45;&gt;Node68</title>
<path fill="none" stroke="#191970" d="M831.3631,-137.8788C770.3279,-124.8967 672.6622,-104.1234 615.8975,-92.0496"/>
<polygon fill="#191970" stroke="#191970" points="830.6933,-141.3146 841.2027,-139.9717 832.1497,-134.4677 830.6933,-141.3146"/>
</g>
<!-- Node69 -->
<g id="node7" class="node">
<title>Node69</title>
<g id="a_node7"><a xlink:href="TBufferJSON_8cxx.html" target="_top" xlink:title="io/io/src/TBufferJSON.cxx">
<polygon fill="#ffffff" stroke="#000000" points="654.5,-73 654.5,-92 791.5,-92 791.5,-73 654.5,-73"/>
<text text-anchor="middle" x="723" y="-80" font-family="Helvetica,sans-Serif" font-size="10.00" fill="#000000">io/io/src/TBufferJSON.cxx</text>
</a>
</g>
</g>
<!-- Node64&#45;&gt;Node69 -->
<g id="edge6" class="edge">
<title>Node64&#45;&gt;Node69</title>
<path fill="none" stroke="#191970" d="M853.3528,-136.0806C821.6685,-123.057 774.3721,-103.6162 746.3106,-92.0817"/>
<polygon fill="#191970" stroke="#191970" points="852.0663,-139.3359 862.6461,-139.9005 854.7276,-132.8615 852.0663,-139.3359"/>
</g>
<!-- Node70 -->
<g id="node8" class="node">
<title>Node70</title>
<g id="a_node8"><a xlink:href="TStreamerInfo_8cxx.html" target="_top" xlink:title="io/io/src/TStreamerInfo.cxx">
<polygon fill="#ffffff" stroke="#000000" points="1474,-73 1474,-92 1622,-92 1622,-73 1474,-73"/>
<text text-anchor="middle" x="1548" y="-80" font-family="Helvetica,sans-Serif" font-size="10.00" fill="#000000">io/io/src/TStreamerInfo.cxx</text>
</a>
</g>
</g>
<!-- Node64&#45;&gt;Node70 -->
<g id="edge7" class="edge">
<title>Node64&#45;&gt;Node70</title>
<path fill="none" stroke="#191970" d="M969.5093,-144.5219C1082.1331,-137.2467 1288.7971,-121.9164 1464,-98 1475.9015,-96.3754 1488.6811,-94.2271 1500.5916,-92.0491"/>
<polygon fill="#191970" stroke="#191970" points="968.996,-141.0475 959.2403,-145.1797 969.4436,-148.0332 968.996,-141.0475"/>
</g>
<!-- Node71 -->
<g id="node9" class="node">
<title>Node71</title>
<g id="a_node9"><a xlink:href="TStreamerInfoReadBuffer_8cxx.html" target="_top" xlink:title="io/io/src/TStreamerInfoRead\lBuffer.cxx">
<polygon fill="#ffffff" stroke="#000000" points="810,-67.5 810,-97.5 962,-97.5 962,-67.5 810,-67.5"/>
<text text-anchor="start" x="818" y="-85.5" font-family="Helvetica,sans-Serif" font-size="10.00" fill="#000000">io/io/src/TStreamerInfoRead</text>
<text text-anchor="middle" x="886" y="-74.5" font-family="Helvetica,sans-Serif" font-size="10.00" fill="#000000">Buffer.cxx</text>
</a>
</g>
</g>
<!-- Node64&#45;&gt;Node71 -->
<g id="edge8" class="edge">
<title>Node64&#45;&gt;Node71</title>
<path fill="none" stroke="#191970" d="M886,-129.7758C886,-119.4641 886,-107.0437 886,-97.5218"/>
<polygon fill="#191970" stroke="#191970" points="882.5001,-129.9005 886,-139.9005 889.5001,-129.9006 882.5001,-129.9005"/>
</g>
<!-- Node72 -->
<g id="node10" class="node">
<title>Node72</title>
<g id="a_node10"><a xlink:href="TStreamerInfoWriteBuffer_8cxx.html" target="_top" xlink:title="io/io/src/TStreamerInfoWrite\lBuffer.cxx">
<polygon fill="#ffffff" stroke="#000000" points="980.5,-67.5 980.5,-97.5 1133.5,-97.5 1133.5,-67.5 980.5,-67.5"/>
<text text-anchor="start" x="988.5" y="-85.5" font-family="Helvetica,sans-Serif" font-size="10.00" fill="#000000">io/io/src/TStreamerInfoWrite</text>
<text text-anchor="middle" x="1057" y="-74.5" font-family="Helvetica,sans-Serif" font-size="10.00" fill="#000000">Buffer.cxx</text>
</a>
</g>
</g>
<!-- Node64&#45;&gt;Node72 -->
<g id="edge9" class="edge">
<title>Node64&#45;&gt;Node72</title>
<path fill="none" stroke="#191970" d="M920.0226,-136.1695C948.4804,-125.0194 989.0587,-109.1203 1018.6609,-97.5218"/>
<polygon fill="#191970" stroke="#191970" points="918.5341,-132.9936 910.5001,-139.9005 921.0878,-139.5112 918.5341,-132.9936"/>
</g>
<!-- Node73 -->
<g id="node11" class="node">
<title>Node73</title>
<g id="a_node11"><a xlink:href="TBufferSQL2_8cxx.html" target="_top" xlink:title="io/sql/src/TBufferSQL2.cxx">
<polygon fill="#ffffff" stroke="#000000" points="1151.5,-73 1151.5,-92 1294.5,-92 1294.5,-73 1151.5,-73"/>
<text text-anchor="middle" x="1223" y="-80" font-family="Helvetica,sans-Serif" font-size="10.00" fill="#000000">io/sql/src/TBufferSQL2.cxx</text>
</a>
</g>
</g>
<!-- Node64&#45;&gt;Node73 -->
<g id="edge10" class="edge">
<title>Node64&#45;&gt;Node73</title>
<path fill="none" stroke="#191970" d="M944.0494,-137.959C1009.3198,-124.9824 1114.1123,-104.1483 1174.9668,-92.0496"/>
<polygon fill="#191970" stroke="#191970" points="943.0515,-134.5888 933.926,-139.9717 944.4165,-141.4545 943.0515,-134.5888"/>
</g>
<!-- Node74 -->
<g id="node12" class="node">
<title>Node74</title>
<g id="a_node12"><a xlink:href="TBufferXML_8cxx.html" target="_top" xlink:title="io/xml/src/TBufferXML.cxx">
<polygon fill="#ffffff" stroke="#000000" points="1312.5,-73 1312.5,-92 1455.5,-92 1455.5,-73 1312.5,-73"/>
<text text-anchor="middle" x="1384" y="-80" font-family="Helvetica,sans-Serif" font-size="10.00" fill="#000000">io/xml/src/TBufferXML.cxx</text>
</a>
</g>
</g>
<!-- Node64&#45;&gt;Node74 -->
<g id="edge11" class="edge">
<title>Node64&#45;&gt;Node74</title>
<path fill="none" stroke="#191970" d="M969.3069,-140.8533C1053.6435,-131.7145 1187.7063,-116.1303 1303,-98 1314.0322,-96.2652 1325.8612,-94.1485 1336.9774,-92.0439"/>
<polygon fill="#191970" stroke="#191970" points="968.84,-137.3833 959.273,-141.9356 969.5907,-144.3429 968.84,-137.3833"/>
</g>
<!-- Node76&#45;&gt;Node70 -->
<g id="edge19" class="edge">
<title>Node76&#45;&gt;Node70</title>
<path fill="none" stroke="#191970" d="M1618.6058,-128.8783C1599.9509,-116.6246 1577.1678,-101.6593 1562.6209,-92.1039"/>
<polygon fill="#191970" stroke="#191970" points="1616.8295,-131.8991 1627.1092,-134.4639 1620.6726,-126.0484 1616.8295,-131.8991"/>
</g>
<!-- Node77 -->
<g id="node15" class="node">
<title>Node77</title>
<g id="a_node15"><a xlink:href="TGenCollectionStreamer_8h.html" target="_top" xlink:title="io/io/inc/TGenCollection\lStreamer.h">
<polygon fill="#ffffff" stroke="#000000" points="1678,-67.5 1678,-97.5 1810,-97.5 1810,-67.5 1678,-67.5"/>
<text text-anchor="start" x="1686" y="-85.5" font-family="Helvetica,sans-Serif" font-size="10.00" fill="#000000">io/io/inc/TGenCollection</text>
<text text-anchor="middle" x="1744" y="-74.5" font-family="Helvetica,sans-Serif" font-size="10.00" fill="#000000">Streamer.h</text>
</a>
</g>
</g>
<!-- Node76&#45;&gt;Node77 -->
<g id="edge14" class="edge">
<title>Node76&#45;&gt;Node77</title>
<path fill="none" stroke="#191970" d="M1679.6775,-128.3469C1693.6643,-118.3776 1710.0308,-106.7121 1722.7544,-97.6432"/>
<polygon fill="#191970" stroke="#191970" points="1677.4418,-125.6423 1671.3301,-134.2967 1681.5047,-131.3426 1677.4418,-125.6423"/>
</g>
<!-- Node78 -->
<g id="node16" class="node">
<title>Node78</title>
<g id="a_node16"><a xlink:href="TCollectionProxyFactory_8cxx.html" target="_top" xlink:title="io/io/src/TCollectionProxy\lFactory.cxx">
<polygon fill="#ffffff" stroke="#000000" points="1520,-.5 1520,-30.5 1660,-30.5 1660,-.5 1520,-.5"/>
<text text-anchor="start" x="1528" y="-18.5" font-family="Helvetica,sans-Serif" font-size="10.00" fill="#000000">io/io/src/TCollectionProxy</text>
<text text-anchor="middle" x="1590" y="-7.5" font-family="Helvetica,sans-Serif" font-size="10.00" fill="#000000">Factory.cxx</text>
</a>
</g>
</g>
<!-- Node76&#45;&gt;Node78 -->
<g id="edge18" class="edge">
<title>Node76&#45;&gt;Node78</title>
<path fill="none" stroke="#191970" d="M1647.1231,-124.0442C1644.5149,-107.2191 1639.6941,-85.0274 1631,-67 1624.5463,-53.618 1614.0743,-40.5466 1605.3294,-30.9213"/>
<polygon fill="#191970" stroke="#191970" points="1643.6949,-124.8039 1648.536,-134.228 1650.6284,-123.8419 1643.6949,-124.8039"/>
</g>
<!-- Node77&#45;&gt;Node78 -->
<g id="edge15" class="edge">
<title>Node77&#45;&gt;Node78</title>
<path fill="none" stroke="#191970" d="M1700.2171,-63.4516C1676.2841,-53.0392 1647.0545,-40.3224 1624.7113,-30.6017"/>
<polygon fill="#191970" stroke="#191970" points="1698.8733,-66.6838 1709.4394,-67.4639 1701.666,-60.265 1698.8733,-66.6838"/>
</g>
<!-- Node77&#45;&gt;Node79 -->
<g id="edge16" class="edge">
<title>Node77&#45;&gt;Node79</title>
<path fill="none" stroke="#191970" d="M1793.0226,-63.838C1826.1811,-51.2151 1868.5925,-35.0699 1895.0309,-25.0053"/>
<polygon fill="#191970" stroke="#191970" points="1791.5983,-60.6351 1783.4978,-67.4639 1794.0888,-67.1771 1791.5983,-60.6351"/>
</g>
<!-- Node80 -->
<g id="node18" class="node">
<title>Node80</title>
<g id="a_node18"><a xlink:href="TGenCollectionStreamer_8cxx.html" target="_top" xlink:title="io/io/src/TGenCollection\lStreamer.cxx">
<polygon fill="#ffffff" stroke="#000000" points="1678,-.5 1678,-30.5 1810,-30.5 1810,-.5 1678,-.5"/>
<text text-anchor="start" x="1686" y="-18.5" font-family="Helvetica,sans-Serif" font-size="10.00" fill="#000000">io/io/src/TGenCollection</text>
<text text-anchor="middle" x="1744" y="-7.5" font-family="Helvetica,sans-Serif" font-size="10.00" fill="#000000">Streamer.cxx</text>
</a>
</g>
</g>
<!-- Node77&#45;&gt;Node80 -->
<g id="edge17" class="edge">
<title>Node77&#45;&gt;Node80</title>
<path fill="none" stroke="#191970" d="M1744,-57.0249C1744,-48.128 1744,-38.4287 1744,-30.6432"/>
<polygon fill="#191970" stroke="#191970" points="1740.5001,-57.2966 1744,-67.2967 1747.5001,-57.2967 1740.5001,-57.2966"/>
</g>
</g>
</svg>
        <g id="navigator" transform="translate(0 0)" fill="#404254">
                <rect fill="#f2f5e9" fill-opacity="0.5" stroke="#606060" stroke-width=".5" x="0" y="0" width="60" height="60"/>
                <use id="zoomplus" xlink:href="#zoomPlus" x="17" y="9" onmousedown="handleZoom(evt,'in')"/>
                <use id="zoomminus" xlink:href="#zoomMin" x="42" y="9" onmousedown="handleZoom(evt,'out')"/>
                <use id="reset" xlink:href="#resetDef" x="30" y="36" onmousedown="handleReset()"/>
                <g id="arrowUp" xlink:href="#dirArrow" transform="translate(30 24)" onmousedown="handlePan(0,-1)">
                  <use xlink:href="#rim" fill="#404040">
                        <set attributeName="fill" to="#808080" begin="arrowUp.mouseover" end="arrowUp.mouseout"/>
                  </use>
                  <path fill="none" stroke="white" stroke-width="1.5" d="M0,-3.0v7 M-2.5,-0.5L0,-3.0L2.5,-0.5"/>
                </g>
                <g id="arrowRight" xlink:href="#dirArrow" transform="rotate(90) translate(36 -43)" onmousedown="handlePan(1,0)">
                  <use xlink:href="#rim" fill="#404040">
                        <set attributeName="fill" to="#808080" begin="arrowRight.mouseover" end="arrowRight.mouseout"/>
                  </use>
                  <path fill="none" stroke="white" stroke-width="1.5" d="M0,-3.0v7 M-2.5,-0.5L0,-3.0L2.5,-0.5"/>
                </g>
                <g id="arrowDown" xlink:href="#dirArrow" transform="rotate(180) translate(-30 -48)" onmousedown="handlePan(0,1)">
                  <use xlink:href="#rim" fill="#404040">
                        <set attributeName="fill" to="#808080" begin="arrowDown.mouseover" end="arrowDown.mouseout"/>
                  </use>
                  <path fill="none" stroke="white" stroke-width="1.5" d="M0,-3.0v7 M-2.5,-0.5L0,-3.0L2.5,-0.5"/>
                </g>
                <g id="arrowLeft" xlink:href="#dirArrow" transform="rotate(270) translate(-36 17)" onmousedown="handlePan(-1,0)">
                  <use xlink:href="#rim" fill="#404040">
                        <set attributeName="fill" to="#808080" begin="arrowLeft.mouseover" end="arrowLeft.mouseout"/>
                  </use>
                  <path fill="none" stroke="white" stroke-width="1.5" d="M0,-3.0v7 M-2.5,-0.5L0,-3.0L2.5,-0.5"/>
                </g>
        </g>
        <svg viewBox="0 0 15 15" width="100%" height="30px" preserveAspectRatio="xMaxYMin meet">
         <g id="arrow_out" transform="scale(0.3 0.3)">
          <a xlink:href="TClassStreamer_8h__dep__incl_org.svg" target="_base">
           <rect id="button" ry="5" rx="5" y="6" x="6" height="38" width="38"
                fill="#f2f5e9" fill-opacity="0.5" stroke="#606060" stroke-width="1.0"/>
           <path id="arrow"
             d="M 11.500037,31.436501 C 11.940474,20.09759 22.043105,11.32322 32.158766,21.979434 L 37.068811,17.246167 C 37.068811,17.246167 37.088388,32 37.088388,32 L 22.160133,31.978069 C 22.160133,31.978069 26.997745,27.140456 26.997745,27.140456 C 18.528582,18.264221 13.291696,25.230495 11.500037,31.436501 z"
             style="fill:#404040;"/>
          </a>
         </g>
        </svg>
</svg>
