<?xml version="1.0" encoding="UTF-8" standalone="no"?>
<!DOCTYPE svg PUBLIC "-//W3C//DTD SVG 1.1//EN"
 "http://www.w3.org/Graphics/SVG/1.1/DTD/svg11.dtd">
<!-- Generated by graphviz version 2.40.1 (0)
 -->
<!-- Title: core/meta/inc/TClassGenerator.h Pages: 1 -->
<svg width="719pt" height="162pt"
 viewBox="0.00 0.00 719.00 162.00" xmlns="http://www.w3.org/2000/svg" xmlns:xlink="http://www.w3.org/1999/xlink">
<g id="graph0" class="graph" transform="scale(1 1) rotate(0) translate(4 158)">
<title>core/meta/inc/TClassGenerator.h</title>
<polygon fill="#ffffff" stroke="transparent" points="-4,4 -4,-158 715,-158 715,4 -4,4"/>
<!-- Node26 -->
<g id="node1" class="node">
<title>Node26</title>
<polygon fill="#bfbfbf" stroke="#000000" points="272.5,-134.5 272.5,-153.5 447.5,-153.5 447.5,-134.5 272.5,-134.5"/>
<text text-anchor="middle" x="360" y="-141.5" font-family="Helvetica,sans-Serif" font-size="10.00" fill="#000000">core/meta/inc/TClassGenerator.h</text>
</g>
<!-- Node27 -->
<g id="node2" class="node">
<title>Node27</title>
<g id="a_node2"><a xlink:href="TPyClassGenerator_8h.html" target="_top" xlink:title="bindings/pyroot/src\l/TPyClassGenerator.h">
<polygon fill="#ffffff" stroke="#000000" points="74.5,-67.5 74.5,-97.5 195.5,-97.5 195.5,-67.5 74.5,-67.5"/>
<text text-anchor="start" x="82.5" y="-85.5" font-family="Helvetica,sans-Serif" font-size="10.00" fill="#000000">bindings/pyroot/src</text>
<text text-anchor="middle" x="135" y="-74.5" font-family="Helvetica,sans-Serif" font-size="10.00" fill="#000000">/TPyClassGenerator.h</text>
</a>
</g>
</g>
<!-- Node26&#45;&gt;Node27 -->
<g id="edge1" class="edge">
<title>Node26&#45;&gt;Node27</title>
<path fill="none" stroke="#191970" d="M315.1056,-131.7289C279.1211,-121.8931 228.4682,-108.048 190.0412,-97.5446"/>
<polygon fill="#191970" stroke="#191970" points="314.2748,-135.1301 324.8438,-134.3906 316.1204,-128.3778 314.2748,-135.1301"/>
</g>
<!-- Node30 -->
<g id="node5" class="node">
<title>Node30</title>
<g id="a_node5"><a xlink:href="TROOT_8cxx.html" target="_top" xlink:title="core/base/src/TROOT.cxx">
<polygon fill="#ffffff" stroke="#000000" points="213.5,-73 213.5,-92 350.5,-92 350.5,-73 213.5,-73"/>
<text text-anchor="middle" x="282" y="-80" font-family="Helvetica,sans-Serif" font-size="10.00" fill="#000000">core/base/src/TROOT.cxx</text>
</a>
</g>
</g>
<!-- Node26&#45;&gt;Node30 -->
<g id="edge4" class="edge">
<title>Node26&#45;&gt;Node30</title>
<path fill="none" stroke="#191970" d="M339.8964,-128.1491C325.4035,-116.722 306.3194,-101.6749 294.1019,-92.0419"/>
<polygon fill="#191970" stroke="#191970" points="337.7927,-130.9475 347.8125,-134.3906 342.1268,-125.4506 337.7927,-130.9475"/>
</g>
<!-- Node31 -->
<g id="node6" class="node">
<title>Node31</title>
<g id="a_node6"><a xlink:href="TClass_8cxx.html" target="_top" xlink:title="core/meta/src/TClass.cxx">
<polygon fill="#ffffff" stroke="#000000" points="369,-73 369,-92 507,-92 507,-73 369,-73"/>
<text text-anchor="middle" x="438" y="-80" font-family="Helvetica,sans-Serif" font-size="10.00" fill="#000000">core/meta/src/TClass.cxx</text>
</a>
</g>
</g>
<!-- Node26&#45;&gt;Node31 -->
<g id="edge5" class="edge">
<title>Node26&#45;&gt;Node31</title>
<path fill="none" stroke="#191970" d="M380.1036,-128.1491C394.5965,-116.722 413.6806,-101.6749 425.8981,-92.0419"/>
<polygon fill="#191970" stroke="#191970" points="377.8732,-125.4506 372.1875,-134.3906 382.2073,-130.9475 377.8732,-125.4506"/>
</g>
<!-- Node32 -->
<g id="node7" class="node">
<title>Node32</title>
<g id="a_node7"><a xlink:href="TClassGenerator_8cxx.html" target="_top" xlink:title="core/meta/src/TClassGenerator.cxx">
<polygon fill="#ffffff" stroke="#000000" points="525,-73 525,-92 711,-92 711,-73 525,-73"/>
<text text-anchor="middle" x="618" y="-80" font-family="Helvetica,sans-Serif" font-size="10.00" fill="#000000">core/meta/src/TClassGenerator.cxx</text>
</a>
</g>
</g>
<!-- Node26&#45;&gt;Node32 -->
<g id="edge6" class="edge">
<title>Node26&#45;&gt;Node32</title>
<path fill="none" stroke="#191970" d="M409.7779,-132.1343C458.7407,-120.463 532.5512,-102.8686 577.8767,-92.0643"/>
<polygon fill="#191970" stroke="#191970" points="408.9453,-128.7347 400.0294,-134.4581 410.5685,-135.5439 408.9453,-128.7347"/>
</g>
<!-- Node28 -->
<g id="node3" class="node">
<title>Node28</title>
<g id="a_node3"><a xlink:href="TPyClassGenerator_8cxx.html" target="_top" xlink:title="bindings/pyroot/src\l/TPyClassGenerator.cxx">
<polygon fill="#ffffff" stroke="#000000" points="0,-.5 0,-30.5 132,-30.5 132,-.5 0,-.5"/>
<text text-anchor="start" x="8" y="-18.5" font-family="Helvetica,sans-Serif" font-size="10.00" fill="#000000">bindings/pyroot/src</text>
<text text-anchor="middle" x="66" y="-7.5" font-family="Helvetica,sans-Serif" font-size="10.00" fill="#000000">/TPyClassGenerator.cxx</text>
</a>
</g>
</g>
<!-- Node27&#45;&gt;Node28 -->
<g id="edge2" class="edge">
<title>Node27&#45;&gt;Node28</title>
<path fill="none" stroke="#191970" d="M112.046,-60.2113C102.0457,-50.5009 90.5824,-39.3698 81.5952,-30.6432"/>
<polygon fill="#191970" stroke="#191970" points="109.7303,-62.8413 119.3428,-67.2967 114.6068,-57.8193 109.7303,-62.8413"/>
</g>
<!-- Node29 -->
<g id="node4" class="node">
<title>Node29</title>
<g id="a_node4"><a xlink:href="TPython_8cxx.html" target="_top" xlink:title="bindings/pyroot/src\l/TPython.cxx">
<polygon fill="#ffffff" stroke="#000000" points="150,-.5 150,-30.5 260,-30.5 260,-.5 150,-.5"/>
<text text-anchor="start" x="158" y="-18.5" font-family="Helvetica,sans-Serif" font-size="10.00" fill="#000000">bindings/pyroot/src</text>
<text text-anchor="middle" x="205" y="-7.5" font-family="Helvetica,sans-Serif" font-size="10.00" fill="#000000">/TPython.cxx</text>
</a>
</g>
</g>
<!-- Node27&#45;&gt;Node29 -->
<g id="edge3" class="edge">
<title>Node27&#45;&gt;Node29</title>
<path fill="none" stroke="#191970" d="M158.2867,-60.2113C168.4319,-50.5009 180.0614,-39.3698 189.1788,-30.6432"/>
<polygon fill="#191970" stroke="#191970" points="155.6882,-57.8536 150.8841,-67.2967 160.5284,-62.9105 155.6882,-57.8536"/>
</g>
</g>
</svg>
