<?xml version="1.0" encoding="UTF-8" standalone="no"?>
<!DOCTYPE svg PUBLIC "-//W3C//DTD SVG 1.1//EN"
 "http://www.w3.org/Graphics/SVG/1.1/DTD/svg11.dtd">
<!-- Generated by graphviz version 2.40.1 (0)
 -->
<!-- Title: bindings/pyroot/src/TClassMethodHolder.cxx Pages: 1 -->
<!--zoomable 431 -->
<svg id="main" version="1.1" xmlns="http://www.w3.org/2000/svg" xmlns:xlink="http://www.w3.org/1999/xlink" xml:space="preserve" onload="init(evt)">
<style type="text/css"><![CDATA[
.edge:hover path { stroke: red; }
.edge:hover polygon { stroke: red; fill: red; }
]]></style>
<script type="text/javascript"><![CDATA[
var edges = document.getElementsByTagName('g');
if (edges && edges.length) {
  for (var i=0;i<edges.length;i++) {
    if (edges[i].id.substr(0,4)=='edge') {
      edges[i].setAttribute('class','edge');
    }
  }
}
]]></script>
        <defs>
                <circle id="rim" cx="0" cy="0" r="7"/>
                <circle id="rim2" cx="0" cy="0" r="3.5"/>
                <g id="zoomPlus">
                        <use xlink:href="#rim" fill="#404040">
                                <set attributeName="fill" to="#808080" begin="zoomplus.mouseover" end="zoomplus.mouseout"/>
                        </use>
                        <path d="M-4,0h8M0,-4v8" fill="none" stroke="white" stroke-width="1.5" pointer-events="none"/>
                </g>
                <g id="zoomMin">
                        <use xlink:href="#rim" fill="#404040">
                                <set attributeName="fill" to="#808080" begin="zoomminus.mouseover" end="zoomminus.mouseout"/>
                        </use>
                        <path d="M-4,0h8" fill="none" stroke="white" stroke-width="1.5" pointer-events="none"/>
                </g>
                <g id="dirArrow">
                        <path fill="none" stroke="white" stroke-width="1.5" d="M0,-3.0v7 M-2.5,-0.5L0,-3.0L2.5,-0.5"/>
                </g>
               <g id="resetDef">
                       <use xlink:href="#rim2" fill="#404040">
                               <set attributeName="fill" to="#808080" begin="reset.mouseover" end="reset.mouseout"/>
                       </use>
               </g>
        </defs>

<script type="text/javascript">
var viewWidth = 1156;
var viewHeight = 431;
var sectionId = 'dynsection-0';
</script>
<script xlink:href="svgpan.js"/>
<svg id="graph" class="graph">
<g id="viewport">
<title>bindings/pyroot/src/TClassMethodHolder.cxx</title>
<polygon fill="#ffffff" stroke="transparent" points="-4,4 -4,-427 1151.5,-427 1151.5,4 -4,4"/>
<!-- Node0 -->
<g id="node1" class="node">
<title>Node0</title>
<polygon fill="#bfbfbf" stroke="#000000" points="690,-392.5 690,-422.5 829,-422.5 829,-392.5 690,-392.5"/>
<text text-anchor="start" x="698" y="-410.5" font-family="Helvetica,sans-Serif" font-size="10.00" fill="#000000">bindings/pyroot/src</text>
<text text-anchor="middle" x="759.5" y="-399.5" font-family="Helvetica,sans-Serif" font-size="10.00" fill="#000000">/TClassMethodHolder.cxx</text>
</g>
<!-- Node1 -->
<g id="node2" class="node">
<title>Node1</title>
<g id="a_node2"><a xlink:href="PyROOT_8h.html" target="_top" xlink:title="PyROOT.h">
<polygon fill="#ffffff" stroke="#000000" points="671.5,-336.5 671.5,-355.5 735.5,-355.5 735.5,-336.5 671.5,-336.5"/>
<text text-anchor="middle" x="703.5" y="-343.5" font-family="Helvetica,sans-Serif" font-size="10.00" fill="#000000">PyROOT.h</text>
</a>
</g>
</g>
<!-- Node0&#45;&gt;Node1 -->
<g id="edge1" class="edge">
<title>Node0&#45;&gt;Node1</title>
<path fill="none" stroke="#191970" d="M745.6573,-392.2977C737.641,-383.4941 727.5238,-372.3833 719.21,-363.2529"/>
<polygon fill="#191970" stroke="#191970" points="721.7869,-360.8845 712.4663,-355.8469 716.6112,-365.5974 721.7869,-360.8845"/>
</g>
<!-- Node24 -->
<g id="node25" class="node">
<title>Node24</title>
<g id="a_node25"><a xlink:href="TClassMethodHolder_8h.html" target="_top" xlink:title="TClassMethodHolder.h">
<polygon fill="#ffffff" stroke="#000000" points="855,-336.5 855,-355.5 980,-355.5 980,-336.5 855,-336.5"/>
<text text-anchor="middle" x="917.5" y="-343.5" font-family="Helvetica,sans-Serif" font-size="10.00" fill="#000000">TClassMethodHolder.h</text>
</a>
</g>
</g>
<!-- Node0&#45;&gt;Node24 -->
<g id="edge32" class="edge">
<title>Node0&#45;&gt;Node24</title>
<path fill="none" stroke="#191970" d="M798.1511,-392.4554C824.2826,-382.284 858.4653,-368.9787 883.5481,-359.2155"/>
<polygon fill="#191970" stroke="#191970" points="884.9662,-362.4193 893.0156,-355.5303 882.4271,-355.8961 884.9662,-362.4193"/>
</g>
<!-- Node2 -->
<g id="node3" class="node">
<title>Node2</title>
<polygon fill="#ffffff" stroke="#bfbfbf" points="395,-280.5 395,-299.5 454,-299.5 454,-280.5 395,-280.5"/>
<text text-anchor="middle" x="424.5" y="-287.5" font-family="Helvetica,sans-Serif" font-size="10.00" fill="#000000">Python.h</text>
</g>
<!-- Node1&#45;&gt;Node2 -->
<g id="edge2" class="edge">
<title>Node1&#45;&gt;Node2</title>
<path fill="none" stroke="#191970" d="M671.1495,-340.4527C626.733,-332.6941 544.1755,-317.7656 464.0248,-300.0121"/>
<polygon fill="#191970" stroke="#191970" points="464.7873,-296.5962 454.265,-297.8333 463.2621,-303.4281 464.7873,-296.5962"/>
</g>
<!-- Node3 -->
<g id="node4" class="node">
<title>Node3</title>
<g id="a_node4"><a xlink:href="Rtypes_8h.html" target="_top" xlink:title="Rtypes.h">
<polygon fill="#ffffff" stroke="#000000" points="472,-280.5 472,-299.5 531,-299.5 531,-280.5 472,-280.5"/>
<text text-anchor="middle" x="501.5" y="-287.5" font-family="Helvetica,sans-Serif" font-size="10.00" fill="#000000">Rtypes.h</text>
</a>
</g>
</g>
<!-- Node1&#45;&gt;Node3 -->
<g id="edge3" class="edge">
<title>Node1&#45;&gt;Node3</title>
<path fill="none" stroke="#191970" d="M671.4925,-337.1266C636.0564,-327.3028 578.9159,-311.4618 540.7931,-300.8931"/>
<polygon fill="#191970" stroke="#191970" points="541.6292,-297.493 531.0576,-298.1942 539.7591,-304.2386 541.6292,-297.493"/>
</g>
<!-- Node23 -->
<g id="node24" class="node">
<title>Node23</title>
<g id="a_node24"><a xlink:href="Cppyy_8h.html" target="_top" xlink:title="Cppyy.h">
<polygon fill="#ffffff" stroke="#000000" points="910,-168.5 910,-187.5 965,-187.5 965,-168.5 910,-168.5"/>
<text text-anchor="middle" x="937.5" y="-175.5" font-family="Helvetica,sans-Serif" font-size="10.00" fill="#000000">Cppyy.h</text>
</a>
</g>
</g>
<!-- Node1&#45;&gt;Node23 -->
<g id="edge28" class="edge">
<title>Node1&#45;&gt;Node23</title>
<path fill="none" stroke="#191970" d="M719.4318,-336.4847C748.1536,-319.1348 810.2102,-280.7494 859.5,-244 880.6186,-228.2544 903.4826,-208.5678 918.9608,-194.8106"/>
<polygon fill="#191970" stroke="#191970" points="921.6287,-197.1197 926.742,-187.8404 916.9581,-191.9057 921.6287,-197.1197"/>
</g>
<!-- Node4 -->
<g id="node5" class="node">
<title>Node4</title>
<g id="a_node5"><a xlink:href="RtypesCore_8h.html" target="_top" xlink:title="RtypesCore.h">
<polygon fill="#ffffff" stroke="#000000" points="683.5,-112.5 683.5,-131.5 765.5,-131.5 765.5,-112.5 683.5,-112.5"/>
<text text-anchor="middle" x="724.5" y="-119.5" font-family="Helvetica,sans-Serif" font-size="10.00" fill="#000000">RtypesCore.h</text>
</a>
</g>
</g>
<!-- Node3&#45;&gt;Node4 -->
<g id="edge4" class="edge">
<title>Node3&#45;&gt;Node4</title>
<path fill="none" stroke="#191970" d="M496.4395,-280.3839C489.4673,-267.3373 476.3102,-243.4271 463.5,-224 452.4902,-207.3032 442.8246,-206.9737 436.5,-188 433.6891,-179.5673 430.7315,-174.7629 436.5,-168 451.6535,-150.2341 594.5072,-134.1869 673.1571,-126.6062"/>
<polygon fill="#191970" stroke="#191970" points="673.7216,-130.0684 683.3452,-125.6369 673.0586,-123.0998 673.7216,-130.0684"/>
</g>
<!-- Node9 -->
<g id="node10" class="node">
<title>Node9</title>
<g id="a_node10"><a xlink:href="DllImport_8h.html" target="_top" xlink:title="DllImport.h">
<polygon fill="#ffffff" stroke="#000000" points="0,-224.5 0,-243.5 71,-243.5 71,-224.5 0,-224.5"/>
<text text-anchor="middle" x="35.5" y="-231.5" font-family="Helvetica,sans-Serif" font-size="10.00" fill="#000000">DllImport.h</text>
</a>
</g>
</g>
<!-- Node3&#45;&gt;Node9 -->
<g id="edge9" class="edge">
<title>Node3&#45;&gt;Node9</title>
<path fill="none" stroke="#191970" d="M471.7316,-281.6738C468.9617,-281.0482 466.1868,-280.4765 463.5,-280 298.3602,-250.713 251.1786,-269.8358 81.3172,-243.9352"/>
<polygon fill="#191970" stroke="#191970" points="81.7034,-240.4533 71.2844,-242.3752 80.6279,-247.3702 81.7034,-240.4533"/>
</g>
<!-- Node10 -->
<g id="node11" class="node">
<title>Node10</title>
<polygon fill="#ffffff" stroke="#bfbfbf" points="89.5,-224.5 89.5,-243.5 151.5,-243.5 151.5,-224.5 89.5,-224.5"/>
<text text-anchor="middle" x="120.5" y="-231.5" font-family="Helvetica,sans-Serif" font-size="10.00" fill="#000000">snprintf.h</text>
</g>
<!-- Node3&#45;&gt;Node10 -->
<g id="edge10" class="edge">
<title>Node3&#45;&gt;Node10</title>
<path fill="none" stroke="#191970" d="M471.7187,-281.7441C468.9515,-281.1038 466.1808,-280.5094 463.5,-280 333.5231,-255.3005 295.7178,-267.8436 162.077,-244.0918"/>
<polygon fill="#191970" stroke="#191970" points="162.3249,-240.5798 151.8609,-242.2393 161.0759,-247.4675 162.3249,-240.5798"/>
</g>
<!-- Node11 -->
<g id="node12" class="node">
<title>Node11</title>
<polygon fill="#ffffff" stroke="#bfbfbf" points="170,-224.5 170,-243.5 227,-243.5 227,-224.5 170,-224.5"/>
<text text-anchor="middle" x="198.5" y="-231.5" font-family="Helvetica,sans-Serif" font-size="10.00" fill="#000000">strlcpy.h</text>
</g>
<!-- Node3&#45;&gt;Node11 -->
<g id="edge11" class="edge">
<title>Node3&#45;&gt;Node11</title>
<path fill="none" stroke="#191970" d="M471.6964,-281.8556C468.9339,-281.1919 466.1703,-280.5616 463.5,-280 366.6612,-259.6325 338.226,-264.6729 237.0808,-243.9329"/>
<polygon fill="#191970" stroke="#191970" points="237.5648,-240.4586 227.0609,-241.8436 236.1359,-247.3112 237.5648,-240.4586"/>
</g>
<!-- Node12 -->
<g id="node13" class="node">
<title>Node12</title>
<polygon fill="#ffffff" stroke="#bfbfbf" points="445.5,-168.5 445.5,-187.5 495.5,-187.5 495.5,-168.5 445.5,-168.5"/>
<text text-anchor="middle" x="470.5" y="-175.5" font-family="Helvetica,sans-Serif" font-size="10.00" fill="#000000">atomic</text>
</g>
<!-- Node3&#45;&gt;Node12 -->
<g id="edge12" class="edge">
<title>Node3&#45;&gt;Node12</title>
<path fill="none" stroke="#191970" d="M502.0632,-280.3615C502.5387,-267.2894 502.3807,-243.3506 496.5,-224 493.5475,-214.2848 488.2876,-204.3712 483.2675,-196.2471"/>
<polygon fill="#191970" stroke="#191970" points="486.0443,-194.0987 477.6372,-187.6511 480.1886,-197.9341 486.0443,-194.0987"/>
</g>
<!-- Node13 -->
<g id="node14" class="node">
<title>Node13</title>
<polygon fill="#ffffff" stroke="#bfbfbf" points="245.5,-224.5 245.5,-243.5 295.5,-243.5 295.5,-224.5 245.5,-224.5"/>
<text text-anchor="middle" x="270.5" y="-231.5" font-family="Helvetica,sans-Serif" font-size="10.00" fill="#000000">stdio.h</text>
</g>
<!-- Node3&#45;&gt;Node13 -->
<g id="edge13" class="edge">
<title>Node3&#45;&gt;Node13</title>
<path fill="none" stroke="#191970" d="M471.6541,-282.0414C468.9005,-281.3387 466.1505,-280.6486 463.5,-280 396.1453,-263.5177 376.3095,-262.3091 305.5493,-244.1559"/>
<polygon fill="#191970" stroke="#191970" points="306.2596,-240.7245 295.7015,-241.6054 304.5045,-247.5009 306.2596,-240.7245"/>
</g>
<!-- Node14 -->
<g id="node15" class="node">
<title>Node14</title>
<polygon fill="#ffffff" stroke="#bfbfbf" points="314,-224.5 314,-243.5 367,-243.5 367,-224.5 314,-224.5"/>
<text text-anchor="middle" x="340.5" y="-231.5" font-family="Helvetica,sans-Serif" font-size="10.00" fill="#000000">string.h</text>
</g>
<!-- Node3&#45;&gt;Node14 -->
<g id="edge14" class="edge">
<title>Node3&#45;&gt;Node14</title>
<path fill="none" stroke="#191970" d="M473.8231,-280.3733C446.9248,-271.0173 405.9389,-256.7614 376.5135,-246.5264"/>
<polygon fill="#191970" stroke="#191970" points="377.6095,-243.202 367.0147,-243.2225 375.3098,-249.8135 377.6095,-243.202"/>
</g>
<!-- Node15 -->
<g id="node16" class="node">
<title>Node15</title>
<polygon fill="#ffffff" stroke="#bfbfbf" points="676,-168.5 676,-187.5 733,-187.5 733,-168.5 676,-168.5"/>
<text text-anchor="middle" x="704.5" y="-175.5" font-family="Helvetica,sans-Serif" font-size="10.00" fill="#000000">typeinfo</text>
</g>
<!-- Node3&#45;&gt;Node15 -->
<g id="edge15" class="edge">
<title>Node3&#45;&gt;Node15</title>
<path fill="none" stroke="#191970" d="M531.0905,-283.112C558.4283,-275.9397 599.5233,-263.0631 631.5,-244 653.7884,-230.7126 675.3242,-209.9617 689.1557,-195.2795"/>
<polygon fill="#191970" stroke="#191970" points="691.8106,-197.5631 696.0031,-187.8331 686.6579,-192.825 691.8106,-197.5631"/>
</g>
<!-- Node16 -->
<g id="node17" class="node">
<title>Node16</title>
<polygon fill="#ffffff" stroke="#bfbfbf" points="385,-224.5 385,-243.5 454,-243.5 454,-224.5 385,-224.5"/>
<text text-anchor="middle" x="419.5" y="-231.5" font-family="Helvetica,sans-Serif" font-size="10.00" fill="#000000">type_traits</text>
</g>
<!-- Node3&#45;&gt;Node16 -->
<g id="edge16" class="edge">
<title>Node3&#45;&gt;Node16</title>
<path fill="none" stroke="#191970" d="M487.2167,-280.2455C474.753,-271.7337 456.4549,-259.2375 442.0208,-249.3801"/>
<polygon fill="#191970" stroke="#191970" points="443.8515,-246.392 433.6196,-243.6427 439.9038,-252.1726 443.8515,-246.392"/>
</g>
<!-- Node17 -->
<g id="node18" class="node">
<title>Node17</title>
<g id="a_node18"><a xlink:href="TGenericClassInfo_8h.html" target="_top" xlink:title="TGenericClassInfo.h">
<polygon fill="#ffffff" stroke="#000000" points="736.5,-224.5 736.5,-243.5 850.5,-243.5 850.5,-224.5 736.5,-224.5"/>
<text text-anchor="middle" x="793.5" y="-231.5" font-family="Helvetica,sans-Serif" font-size="10.00" fill="#000000">TGenericClassInfo.h</text>
</a>
</g>
</g>
<!-- Node3&#45;&gt;Node17 -->
<g id="edge17" class="edge">
<title>Node3&#45;&gt;Node17</title>
<path fill="none" stroke="#191970" d="M531.0432,-283.4665C577.1399,-274.1331 666.9306,-256.847 728.5871,-245.3833"/>
<polygon fill="#191970" stroke="#191970" points="729.4159,-248.7894 738.6104,-243.5253 728.1399,-241.9067 729.4159,-248.7894"/>
</g>
<!-- Node21 -->
<g id="node22" class="node">
<title>Node21</title>
<g id="a_node22"><a xlink:href="TIsAProxy_8h.html" target="_top" xlink:title="TIsAProxy.h">
<polygon fill="#ffffff" stroke="#000000" points="549,-224.5 549,-243.5 622,-243.5 622,-224.5 549,-224.5"/>
<text text-anchor="middle" x="585.5" y="-231.5" font-family="Helvetica,sans-Serif" font-size="10.00" fill="#000000">TIsAProxy.h</text>
</a>
</g>
</g>
<!-- Node3&#45;&gt;Node21 -->
<g id="edge23" class="edge">
<title>Node3&#45;&gt;Node21</title>
<path fill="none" stroke="#191970" d="M516.1317,-280.2455C528.8994,-271.7337 547.6438,-259.2375 562.4299,-249.3801"/>
<polygon fill="#191970" stroke="#191970" points="564.6569,-252.1019 571.036,-243.6427 560.774,-246.2775 564.6569,-252.1019"/>
</g>
<!-- Node5 -->
<g id="node6" class="node">
<title>Node5</title>
<g id="a_node6"><a xlink:href="RConfig_8hxx.html" target="_top" xlink:title="ROOT/RConfig.hxx">
<polygon fill="#ffffff" stroke="#000000" points="672,-56.5 672,-75.5 777,-75.5 777,-56.5 672,-56.5"/>
<text text-anchor="middle" x="724.5" y="-63.5" font-family="Helvetica,sans-Serif" font-size="10.00" fill="#000000">ROOT/RConfig.hxx</text>
</a>
</g>
</g>
<!-- Node4&#45;&gt;Node5 -->
<g id="edge5" class="edge">
<title>Node4&#45;&gt;Node5</title>
<path fill="none" stroke="#191970" d="M724.5,-112.2455C724.5,-104.9382 724.5,-94.6944 724.5,-85.7046"/>
<polygon fill="#191970" stroke="#191970" points="728.0001,-85.6426 724.5,-75.6427 721.0001,-85.6427 728.0001,-85.6426"/>
</g>
<!-- Node8 -->
<g id="node9" class="node">
<title>Node8</title>
<polygon fill="#ffffff" stroke="#bfbfbf" points="814.5,-56.5 814.5,-75.5 870.5,-75.5 870.5,-56.5 814.5,-56.5"/>
<text text-anchor="middle" x="842.5" y="-63.5" font-family="Helvetica,sans-Serif" font-size="10.00" fill="#000000">stddef.h</text>
</g>
<!-- Node4&#45;&gt;Node8 -->
<g id="edge8" class="edge">
<title>Node4&#45;&gt;Node8</title>
<path fill="none" stroke="#191970" d="M744.7849,-112.3733C763.6421,-103.4241 791.946,-89.9917 813.2455,-79.8835"/>
<polygon fill="#191970" stroke="#191970" points="814.9461,-82.9506 822.4798,-75.5011 811.9449,-76.6266 814.9461,-82.9506"/>
</g>
<!-- Node6 -->
<g id="node7" class="node">
<title>Node6</title>
<g id="a_node7"><a xlink:href="RVersion_8h.html" target="_top" xlink:title="../RVersion.h">
<polygon fill="#ffffff" stroke="#000000" points="638,-.5 638,-19.5 715,-19.5 715,-.5 638,-.5"/>
<text text-anchor="middle" x="676.5" y="-7.5" font-family="Helvetica,sans-Serif" font-size="10.00" fill="#000000">../RVersion.h</text>
</a>
</g>
</g>
<!-- Node5&#45;&gt;Node6 -->
<g id="edge6" class="edge">
<title>Node5&#45;&gt;Node6</title>
<path fill="none" stroke="#191970" d="M716.139,-56.2455C709.325,-48.2958 699.5319,-36.8706 691.3848,-27.3656"/>
<polygon fill="#191970" stroke="#191970" points="693.9305,-24.9575 684.7651,-19.6427 688.6157,-29.513 693.9305,-24.9575"/>
</g>
<!-- Node7 -->
<g id="node8" class="node">
<title>Node7</title>
<polygon fill="#ffffff" stroke="#bfbfbf" points="733.5,-.5 733.5,-19.5 811.5,-19.5 811.5,-.5 733.5,-.5"/>
<text text-anchor="middle" x="772.5" y="-7.5" font-family="Helvetica,sans-Serif" font-size="10.00" fill="#000000">RConfigure.h</text>
</g>
<!-- Node5&#45;&gt;Node7 -->
<g id="edge7" class="edge">
<title>Node5&#45;&gt;Node7</title>
<path fill="none" stroke="#191970" d="M732.861,-56.2455C739.675,-48.2958 749.4681,-36.8706 757.6152,-27.3656"/>
<polygon fill="#191970" stroke="#191970" points="760.3843,-29.513 764.2349,-19.6427 755.0695,-24.9575 760.3843,-29.513"/>
</g>
<!-- Node17&#45;&gt;Node3 -->
<g id="edge22" class="edge">
<title>Node17&#45;&gt;Node3</title>
<path fill="none" stroke="#191970" d="M749.1509,-243.5061C692.479,-254.8038 595.4639,-273.3684 541.1371,-283.276"/>
<polygon fill="#191970" stroke="#191970" points="540.4028,-279.852 531.1874,-285.0795 541.6513,-286.7397 540.4028,-279.852"/>
</g>
<!-- Node18 -->
<g id="node19" class="node">
<title>Node18</title>
<polygon fill="#ffffff" stroke="#bfbfbf" points="989,-112.5 989,-131.5 1036,-131.5 1036,-112.5 989,-112.5"/>
<text text-anchor="middle" x="1012.5" y="-119.5" font-family="Helvetica,sans-Serif" font-size="10.00" fill="#000000">vector</text>
</g>
<!-- Node17&#45;&gt;Node18 -->
<g id="edge18" class="edge">
<title>Node17&#45;&gt;Node18</title>
<path fill="none" stroke="#191970" d="M850.9306,-224.4269C896.3109,-215.9578 955.1216,-202.6898 974.5,-188 989.9312,-176.3024 1000.1431,-156.3884 1006.0572,-141.4873"/>
<polygon fill="#191970" stroke="#191970" points="1009.4838,-142.3061 1009.6172,-131.7121 1002.9064,-139.9107 1009.4838,-142.3061"/>
</g>
<!-- Node19 -->
<g id="node20" class="node">
<title>Node19</title>
<g id="a_node20"><a xlink:href="TSchemaHelper_8h.html" target="_top" xlink:title="TSchemaHelper.h">
<polygon fill="#ffffff" stroke="#000000" points="751.5,-168.5 751.5,-187.5 853.5,-187.5 853.5,-168.5 751.5,-168.5"/>
<text text-anchor="middle" x="802.5" y="-175.5" font-family="Helvetica,sans-Serif" font-size="10.00" fill="#000000">TSchemaHelper.h</text>
</a>
</g>
</g>
<!-- Node17&#45;&gt;Node19 -->
<g id="edge19" class="edge">
<title>Node17&#45;&gt;Node19</title>
<path fill="none" stroke="#191970" d="M795.0677,-224.2455C796.2421,-216.9382 797.8884,-206.6944 799.3332,-197.7046"/>
<polygon fill="#191970" stroke="#191970" points="802.8191,-198.0714 800.9503,-187.6427 795.9078,-196.9606 802.8191,-198.0714"/>
</g>
<!-- Node19&#45;&gt;Node4 -->
<g id="edge20" class="edge">
<title>Node19&#45;&gt;Node4</title>
<path fill="none" stroke="#191970" d="M788.9134,-168.2455C777.1695,-159.814 759.9801,-147.4729 746.3118,-137.6598"/>
<polygon fill="#191970" stroke="#191970" points="748.0954,-134.6316 737.9309,-131.6427 744.0129,-140.3179 748.0954,-134.6316"/>
</g>
<!-- Node20 -->
<g id="node21" class="node">
<title>Node20</title>
<polygon fill="#ffffff" stroke="#bfbfbf" points="859.5,-112.5 859.5,-131.5 903.5,-131.5 903.5,-112.5 859.5,-112.5"/>
<text text-anchor="middle" x="881.5" y="-119.5" font-family="Helvetica,sans-Serif" font-size="10.00" fill="#000000">string</text>
</g>
<!-- Node19&#45;&gt;Node20 -->
<g id="edge21" class="edge">
<title>Node19&#45;&gt;Node20</title>
<path fill="none" stroke="#191970" d="M816.2607,-168.2455C828.1552,-159.814 845.565,-147.4729 859.4085,-137.6598"/>
<polygon fill="#191970" stroke="#191970" points="861.7628,-140.2811 867.8969,-131.6427 857.7146,-134.5704 861.7628,-140.2811"/>
</g>
<!-- Node21&#45;&gt;Node4 -->
<g id="edge25" class="edge">
<title>Node21&#45;&gt;Node4</title>
<path fill="none" stroke="#191970" d="M597.3511,-224.4509C621.2527,-205.1921 675.4506,-161.5218 704.775,-137.8935"/>
<polygon fill="#191970" stroke="#191970" points="707.0881,-140.5245 712.6789,-131.5249 702.6961,-135.0738 707.0881,-140.5245"/>
</g>
<!-- Node21&#45;&gt;Node12 -->
<g id="edge26" class="edge">
<title>Node21&#45;&gt;Node12</title>
<path fill="none" stroke="#191970" d="M565.7308,-224.3733C547.3531,-215.4241 519.7688,-201.9917 499.0107,-191.8835"/>
<polygon fill="#191970" stroke="#191970" points="500.5343,-188.7325 490.0112,-187.5011 497.4696,-195.026 500.5343,-188.7325"/>
</g>
<!-- Node21&#45;&gt;Node15 -->
<g id="edge27" class="edge">
<title>Node21&#45;&gt;Node15</title>
<path fill="none" stroke="#191970" d="M605.9568,-224.3733C624.9738,-215.4241 653.5175,-201.9917 674.9976,-191.8835"/>
<polygon fill="#191970" stroke="#191970" points="676.7522,-194.926 684.3101,-187.5011 673.7716,-188.5923 676.7522,-194.926"/>
</g>
<!-- Node22 -->
<g id="node23" class="node">
<title>Node22</title>
<g id="a_node23"><a xlink:href="TVirtualIsAProxy_8h.html" target="_top" xlink:title="TVirtualIsAProxy.h">
<polygon fill="#ffffff" stroke="#000000" points="514,-168.5 514,-187.5 619,-187.5 619,-168.5 514,-168.5"/>
<text text-anchor="middle" x="566.5" y="-175.5" font-family="Helvetica,sans-Serif" font-size="10.00" fill="#000000">TVirtualIsAProxy.h</text>
</a>
</g>
</g>
<!-- Node21&#45;&gt;Node22 -->
<g id="edge24" class="edge">
<title>Node21&#45;&gt;Node22</title>
<path fill="none" stroke="#191970" d="M582.1905,-224.2455C579.6567,-216.7776 576.0823,-206.2427 572.985,-197.1137"/>
<polygon fill="#191970" stroke="#191970" points="576.2991,-195.9879 569.7716,-187.6427 569.6702,-198.237 576.2991,-195.9879"/>
</g>
<!-- Node23&#45;&gt;Node8 -->
<g id="edge31" class="edge">
<title>Node23&#45;&gt;Node8</title>
<path fill="none" stroke="#191970" d="M935.751,-168.0917C932.8995,-154.278 926.1418,-129.017 912.5,-112 902.0058,-98.9094 886.7526,-88.2749 873.1616,-80.5416"/>
<polygon fill="#191970" stroke="#191970" points="874.5604,-77.3196 864.0969,-75.6567 871.2396,-83.4818 874.5604,-77.3196"/>
</g>
<!-- Node23&#45;&gt;Node18 -->
<g id="edge30" class="edge">
<title>Node23&#45;&gt;Node18</title>
<path fill="none" stroke="#191970" d="M950.564,-168.2455C961.8562,-159.814 978.3845,-147.4729 991.5271,-137.6598"/>
<polygon fill="#191970" stroke="#191970" points="993.6669,-140.4301 999.5857,-131.6427 989.4789,-134.8211 993.6669,-140.4301"/>
</g>
<!-- Node23&#45;&gt;Node20 -->
<g id="edge29" class="edge">
<title>Node23&#45;&gt;Node20</title>
<path fill="none" stroke="#191970" d="M927.7455,-168.2455C919.6352,-160.1352 907.9075,-148.4075 898.2919,-138.7919"/>
<polygon fill="#191970" stroke="#191970" points="900.6887,-136.2389 891.1427,-131.6427 895.7389,-141.1887 900.6887,-136.2389"/>
</g>
<!-- Node25 -->
<g id="node26" class="node">
<title>Node25</title>
<g id="a_node26"><a xlink:href="TMethodHolder_8h.html" target="_top" xlink:title="TMethodHolder.h">
<polygon fill="#ffffff" stroke="#000000" points="969,-280.5 969,-299.5 1068,-299.5 1068,-280.5 969,-280.5"/>
<text text-anchor="middle" x="1018.5" y="-287.5" font-family="Helvetica,sans-Serif" font-size="10.00" fill="#000000">TMethodHolder.h</text>
</a>
</g>
</g>
<!-- Node24&#45;&gt;Node25 -->
<g id="edge33" class="edge">
<title>Node24&#45;&gt;Node25</title>
<path fill="none" stroke="#191970" d="M935.0929,-336.2455C950.879,-327.4928 974.2639,-314.527 992.2587,-304.5496"/>
<polygon fill="#191970" stroke="#191970" points="994.0603,-307.5528 1001.1087,-299.6427 990.6659,-301.4308 994.0603,-307.5528"/>
</g>
<!-- Node25&#45;&gt;Node18 -->
<g id="edge38" class="edge">
<title>Node25&#45;&gt;Node18</title>
<path fill="none" stroke="#191970" d="M1018.1602,-280.4862C1017.2118,-253.9293 1014.5202,-178.5651 1013.2202,-142.1655"/>
<polygon fill="#191970" stroke="#191970" points="1016.7058,-141.6966 1012.851,-131.8279 1009.7102,-141.9465 1016.7058,-141.6966"/>
</g>
<!-- Node25&#45;&gt;Node20 -->
<g id="edge37" class="edge">
<title>Node25&#45;&gt;Node20</title>
<path fill="none" stroke="#191970" d="M1002.74,-280.4749C977.6168,-264.4888 928.5706,-229.8634 901.5,-188 892.3687,-173.8789 887.2369,-155.386 884.4645,-141.569"/>
<polygon fill="#191970" stroke="#191970" points="887.9011,-140.9026 882.7157,-131.6634 881.0077,-142.1197 887.9011,-140.9026"/>
</g>
<!-- Node26 -->
<g id="node27" class="node">
<title>Node26</title>
<g id="a_node27"><a xlink:href="PyCallable_8h.html" target="_top" xlink:title="PyCallable.h">
<polygon fill="#ffffff" stroke="#000000" points="1063,-224.5 1063,-243.5 1140,-243.5 1140,-224.5 1063,-224.5"/>
<text text-anchor="middle" x="1101.5" y="-231.5" font-family="Helvetica,sans-Serif" font-size="10.00" fill="#000000">PyCallable.h</text>
</a>
</g>
</g>
<!-- Node25&#45;&gt;Node26 -->
<g id="edge34" class="edge">
<title>Node25&#45;&gt;Node26</title>
<path fill="none" stroke="#191970" d="M1032.9575,-280.2455C1045.5732,-271.7337 1064.0944,-259.2375 1078.7045,-249.3801"/>
<polygon fill="#191970" stroke="#191970" points="1080.8761,-252.1371 1087.2082,-243.6427 1076.9609,-246.3343 1080.8761,-252.1371"/>
</g>
<!-- Node27 -->
<g id="node28" class="node">
<title>Node27</title>
<g id="a_node28"><a xlink:href="TCallContext_8h.html" target="_top" xlink:title="TCallContext.h">
<polygon fill="#ffffff" stroke="#000000" points="1059.5,-168.5 1059.5,-187.5 1147.5,-187.5 1147.5,-168.5 1059.5,-168.5"/>
<text text-anchor="middle" x="1103.5" y="-175.5" font-family="Helvetica,sans-Serif" font-size="10.00" fill="#000000">TCallContext.h</text>
</a>
</g>
</g>
<!-- Node26&#45;&gt;Node27 -->
<g id="edge35" class="edge">
<title>Node26&#45;&gt;Node27</title>
<path fill="none" stroke="#191970" d="M1101.8484,-224.2455C1102.1093,-216.9382 1102.4752,-206.6944 1102.7963,-197.7046"/>
<polygon fill="#191970" stroke="#191970" points="1106.2964,-197.7613 1103.1556,-187.6427 1099.3008,-197.5113 1106.2964,-197.7613"/>
</g>
<!-- Node27&#45;&gt;Node18 -->
<g id="edge36" class="edge">
<title>Node27&#45;&gt;Node18</title>
<path fill="none" stroke="#191970" d="M1087.649,-168.2455C1073.6868,-159.6534 1053.1272,-147.0014 1037.0404,-137.1018"/>
<polygon fill="#191970" stroke="#191970" points="1038.5203,-133.9029 1028.1693,-131.6427 1034.8516,-139.8645 1038.5203,-133.9029"/>
</g>
</g>
</svg>
        <g id="navigator" transform="translate(0 0)" fill="#404254">
                <rect fill="#f2f5e9" fill-opacity="0.5" stroke="#606060" stroke-width=".5" x="0" y="0" width="60" height="60"/>
                <use id="zoomplus" xlink:href="#zoomPlus" x="17" y="9" onmousedown="handleZoom(evt,'in')"/>
                <use id="zoomminus" xlink:href="#zoomMin" x="42" y="9" onmousedown="handleZoom(evt,'out')"/>
                <use id="reset" xlink:href="#resetDef" x="30" y="36" onmousedown="handleReset()"/>
                <g id="arrowUp" xlink:href="#dirArrow" transform="translate(30 24)" onmousedown="handlePan(0,-1)">
                  <use xlink:href="#rim" fill="#404040">
                        <set attributeName="fill" to="#808080" begin="arrowUp.mouseover" end="arrowUp.mouseout"/>
                  </use>
                  <path fill="none" stroke="white" stroke-width="1.5" d="M0,-3.0v7 M-2.5,-0.5L0,-3.0L2.5,-0.5"/>
                </g>
                <g id="arrowRight" xlink:href="#dirArrow" transform="rotate(90) translate(36 -43)" onmousedown="handlePan(1,0)">
                  <use xlink:href="#rim" fill="#404040">
                        <set attributeName="fill" to="#808080" begin="arrowRight.mouseover" end="arrowRight.mouseout"/>
                  </use>
                  <path fill="none" stroke="white" stroke-width="1.5" d="M0,-3.0v7 M-2.5,-0.5L0,-3.0L2.5,-0.5"/>
                </g>
                <g id="arrowDown" xlink:href="#dirArrow" transform="rotate(180) translate(-30 -48)" onmousedown="handlePan(0,1)">
                  <use xlink:href="#rim" fill="#404040">
                        <set attributeName="fill" to="#808080" begin="arrowDown.mouseover" end="arrowDown.mouseout"/>
                  </use>
                  <path fill="none" stroke="white" stroke-width="1.5" d="M0,-3.0v7 M-2.5,-0.5L0,-3.0L2.5,-0.5"/>
                </g>
                <g id="arrowLeft" xlink:href="#dirArrow" transform="rotate(270) translate(-36 17)" onmousedown="handlePan(-1,0)">
                  <use xlink:href="#rim" fill="#404040">
                        <set attributeName="fill" to="#808080" begin="arrowLeft.mouseover" end="arrowLeft.mouseout"/>
                  </use>
                  <path fill="none" stroke="white" stroke-width="1.5" d="M0,-3.0v7 M-2.5,-0.5L0,-3.0L2.5,-0.5"/>
                </g>
        </g>
        <svg viewBox="0 0 15 15" width="100%" height="30px" preserveAspectRatio="xMaxYMin meet">
         <g id="arrow_out" transform="scale(0.3 0.3)">
          <a xlink:href="TClassMethodHolder_8cxx__incl_org.svg" target="_base">
           <rect id="button" ry="5" rx="5" y="6" x="6" height="38" width="38"
                fill="#f2f5e9" fill-opacity="0.5" stroke="#606060" stroke-width="1.0"/>
           <path id="arrow"
             d="M 11.500037,31.436501 C 11.940474,20.09759 22.043105,11.32322 32.158766,21.979434 L 37.068811,17.246167 C 37.068811,17.246167 37.088388,32 37.088388,32 L 22.160133,31.978069 C 22.160133,31.978069 26.997745,27.140456 26.997745,27.140456 C 18.528582,18.264221 13.291696,25.230495 11.500037,31.436501 z"
             style="fill:#404040;"/>
          </a>
         </g>
        </svg>
</svg>
