<?xml version="1.0" encoding="UTF-8" standalone="no"?>
<!DOCTYPE svg PUBLIC "-//W3C//DTD SVG 1.1//EN"
 "http://www.w3.org/Graphics/SVG/1.1/DTD/svg11.dtd">
<!-- Generated by graphviz version 2.40.1 (0)
 -->
<!-- Title: core/base/inc/TControlBarImp.h Pages: 1 -->
<svg width="2415pt" height="307pt"
 viewBox="0.00 0.00 2414.50 307.00" xmlns="http://www.w3.org/2000/svg" xmlns:xlink="http://www.w3.org/1999/xlink">
<g id="graph0" class="graph" transform="scale(1 1) rotate(0) translate(4 303)">
<title>core/base/inc/TControlBarImp.h</title>
<polygon fill="#ffffff" stroke="transparent" points="-4,4 -4,-303 2410.5,-303 2410.5,4 -4,4"/>
<!-- Node21 -->
<g id="node1" class="node">
<title>Node21</title>
<polygon fill="#bfbfbf" stroke="#000000" points="888,-268.5 888,-298.5 1029,-298.5 1029,-268.5 888,-268.5"/>
<text text-anchor="start" x="896" y="-286.5" font-family="Helvetica,sans-Serif" font-size="10.00" fill="#000000">core/base/inc/TControlBar</text>
<text text-anchor="middle" x="958.5" y="-275.5" font-family="Helvetica,sans-Serif" font-size="10.00" fill="#000000">Imp.h</text>
</g>
<!-- Node22 -->
<g id="node2" class="node">
<title>Node22</title>
<g id="a_node2"><a xlink:href="TControlBarImp_8cxx.html" target="_top" xlink:title="core/base/src/TControlBar\lImp.cxx">
<polygon fill="#ffffff" stroke="#000000" points="636,-201.5 636,-231.5 777,-231.5 777,-201.5 636,-201.5"/>
<text text-anchor="start" x="644" y="-219.5" font-family="Helvetica,sans-Serif" font-size="10.00" fill="#000000">core/base/src/TControlBar</text>
<text text-anchor="middle" x="706.5" y="-208.5" font-family="Helvetica,sans-Serif" font-size="10.00" fill="#000000">Imp.cxx</text>
</a>
</g>
</g>
<!-- Node21&#45;&gt;Node22 -->
<g id="edge1" class="edge">
<title>Node21&#45;&gt;Node22</title>
<path fill="none" stroke="#191970" d="M892.2556,-265.8874C852.1609,-255.2273 801.5606,-241.774 763.3004,-231.6017"/>
<polygon fill="#191970" stroke="#191970" points="891.3827,-269.2768 901.9463,-268.4639 893.1814,-262.5119 891.3827,-269.2768"/>
</g>
<!-- Node23 -->
<g id="node3" class="node">
<title>Node23</title>
<g id="a_node3"><a xlink:href="TGuiFactory_8cxx.html" target="_top" xlink:title="core/base/src/TGuiFactory.cxx">
<polygon fill="#ffffff" stroke="#000000" points="795,-207 795,-226 956,-226 956,-207 795,-207"/>
<text text-anchor="middle" x="875.5" y="-214" font-family="Helvetica,sans-Serif" font-size="10.00" fill="#000000">core/base/src/TGuiFactory.cxx</text>
</a>
</g>
</g>
<!-- Node21&#45;&gt;Node23 -->
<g id="edge2" class="edge">
<title>Node21&#45;&gt;Node23</title>
<path fill="none" stroke="#191970" d="M931.713,-261.8767C916.7481,-249.7967 898.8512,-235.3498 887.3368,-226.055"/>
<polygon fill="#191970" stroke="#191970" points="929.6864,-264.7389 939.666,-268.2967 934.0832,-259.292 929.6864,-264.7389"/>
</g>
<!-- Node24 -->
<g id="node4" class="node">
<title>Node24</title>
<g id="a_node4"><a xlink:href="TControlBar_8h.html" target="_top" xlink:title="graf2d/gpad/inc/TControl\lBar.h">
<polygon fill="#ffffff" stroke="#000000" points="974.5,-201.5 974.5,-231.5 1110.5,-231.5 1110.5,-201.5 974.5,-201.5"/>
<text text-anchor="start" x="982.5" y="-219.5" font-family="Helvetica,sans-Serif" font-size="10.00" fill="#000000">graf2d/gpad/inc/TControl</text>
<text text-anchor="middle" x="1042.5" y="-208.5" font-family="Helvetica,sans-Serif" font-size="10.00" fill="#000000">Bar.h</text>
</a>
</g>
</g>
<!-- Node21&#45;&gt;Node24 -->
<g id="edge3" class="edge">
<title>Node21&#45;&gt;Node24</title>
<path fill="none" stroke="#191970" d="M985.73,-261.7808C998.0699,-251.9383 1012.3591,-240.541 1023.5145,-231.6432"/>
<polygon fill="#191970" stroke="#191970" points="983.1962,-259.3248 977.5609,-268.2967 987.5612,-264.7973 983.1962,-259.3248"/>
</g>
<!-- Node45 -->
<g id="node25" class="node">
<title>Node45</title>
<g id="a_node25"><a xlink:href="TRootControlBar_8h.html" target="_top" xlink:title="gui/gui/inc/TRootControl\lBar.h">
<polygon fill="#ffffff" stroke="#000000" points="1996,-201.5 1996,-231.5 2129,-231.5 2129,-201.5 1996,-201.5"/>
<text text-anchor="start" x="2004" y="-219.5" font-family="Helvetica,sans-Serif" font-size="10.00" fill="#000000">gui/gui/inc/TRootControl</text>
<text text-anchor="middle" x="2062.5" y="-208.5" font-family="Helvetica,sans-Serif" font-size="10.00" fill="#000000">Bar.h</text>
</a>
</g>
</g>
<!-- Node21&#45;&gt;Node45 -->
<g id="edge33" class="edge">
<title>Node21&#45;&gt;Node45</title>
<path fill="none" stroke="#191970" d="M1039.2214,-278.6011C1248.1251,-265.9231 1803.5714,-232.214 1995.8666,-220.5439"/>
<polygon fill="#191970" stroke="#191970" points="1039.0092,-275.1075 1029.2396,-279.2069 1039.4333,-282.0946 1039.0092,-275.1075"/>
</g>
<!-- Node25 -->
<g id="node5" class="node">
<title>Node25</title>
<g id="a_node5"><a xlink:href="TCanvas_8cxx.html" target="_top" xlink:title="graf2d/gpad/src/TCanvas.cxx">
<polygon fill="#ffffff" stroke="#000000" points="0,-140 0,-159 157,-159 157,-140 0,-140"/>
<text text-anchor="middle" x="78.5" y="-147" font-family="Helvetica,sans-Serif" font-size="10.00" fill="#000000">graf2d/gpad/src/TCanvas.cxx</text>
</a>
</g>
</g>
<!-- Node24&#45;&gt;Node25 -->
<g id="edge4" class="edge">
<title>Node24&#45;&gt;Node25</title>
<path fill="none" stroke="#191970" d="M964.1023,-201.1002C610.3106,-159.1182 516.1188,-203.5131 166.5,-165 153.3933,-163.5562 139.2887,-161.3624 126.2938,-159.0758"/>
<polygon fill="#191970" stroke="#191970" points="963.7638,-204.5846 974.1099,-202.3025 964.5988,-197.6346 963.7638,-204.5846"/>
</g>
<!-- Node26 -->
<g id="node6" class="node">
<title>Node26</title>
<g id="a_node6"><a xlink:href="TControlBar_8cxx.html" target="_top" xlink:title="graf2d/gpad/src/TControl\lBar.cxx">
<polygon fill="#ffffff" stroke="#000000" points="175.5,-134.5 175.5,-164.5 311.5,-164.5 311.5,-134.5 175.5,-134.5"/>
<text text-anchor="start" x="183.5" y="-152.5" font-family="Helvetica,sans-Serif" font-size="10.00" fill="#000000">graf2d/gpad/src/TControl</text>
<text text-anchor="middle" x="243.5" y="-141.5" font-family="Helvetica,sans-Serif" font-size="10.00" fill="#000000">Bar.cxx</text>
</a>
</g>
</g>
<!-- Node24&#45;&gt;Node26 -->
<g id="edge5" class="edge">
<title>Node24&#45;&gt;Node26</title>
<path fill="none" stroke="#191970" d="M963.935,-201.0693C680.5388,-165.9862 604.5429,-199.0855 325.5,-165 321.0418,-164.4554 316.4609,-163.8154 311.8524,-163.1112"/>
<polygon fill="#191970" stroke="#191970" points="963.7463,-204.573 974.1045,-202.3463 964.6185,-197.6275 963.7463,-204.573"/>
</g>
<!-- Node27 -->
<g id="node7" class="node">
<title>Node27</title>
<g id="a_node7"><a xlink:href="TRootControlBar_8cxx.html" target="_top" xlink:title="gui/gui/src/TRootControl\lBar.cxx">
<polygon fill="#ffffff" stroke="#000000" points="1915,-134.5 1915,-164.5 2048,-164.5 2048,-134.5 1915,-134.5"/>
<text text-anchor="start" x="1923" y="-152.5" font-family="Helvetica,sans-Serif" font-size="10.00" fill="#000000">gui/gui/src/TRootControl</text>
<text text-anchor="middle" x="1981.5" y="-141.5" font-family="Helvetica,sans-Serif" font-size="10.00" fill="#000000">Bar.cxx</text>
</a>
</g>
</g>
<!-- Node24&#45;&gt;Node27 -->
<g id="edge6" class="edge">
<title>Node24&#45;&gt;Node27</title>
<path fill="none" stroke="#191970" d="M1120.7584,-215.6083C1272.8159,-213.043 1618.5371,-203.1358 1906.5,-165 1909.268,-164.6334 1912.0865,-164.2227 1914.9287,-163.7775"/>
<polygon fill="#191970" stroke="#191970" points="1120.5284,-212.1115 1110.5867,-215.7737 1120.6423,-219.1105 1120.5284,-212.1115"/>
</g>
<!-- Node28 -->
<g id="node8" class="node">
<title>Node28</title>
<g id="a_node8"><a xlink:href="BDT_8h.html" target="_top" xlink:title="tmva/tmvagui/inc/TMVA\l/BDT.h">
<polygon fill="#ffffff" stroke="#000000" points="368,-134.5 368,-164.5 501,-164.5 501,-134.5 368,-134.5"/>
<text text-anchor="start" x="376" y="-152.5" font-family="Helvetica,sans-Serif" font-size="10.00" fill="#000000">tmva/tmvagui/inc/TMVA</text>
<text text-anchor="middle" x="434.5" y="-141.5" font-family="Helvetica,sans-Serif" font-size="10.00" fill="#000000">/BDT.h</text>
</a>
</g>
</g>
<!-- Node24&#45;&gt;Node28 -->
<g id="edge7" class="edge">
<title>Node24&#45;&gt;Node28</title>
<path fill="none" stroke="#191970" d="M964.163,-201.074C764.4855,-174.0253 710.6902,-191.4204 515.5,-165 510.8179,-164.3662 505.9969,-163.6383 501.1507,-162.851"/>
<polygon fill="#191970" stroke="#191970" points="963.7086,-204.5444 974.0921,-202.4391 964.6621,-197.6096 963.7086,-204.5444"/>
</g>
<!-- Node29 -->
<g id="node9" class="node">
<title>Node29</title>
<g id="a_node9"><a xlink:href="BDT__Reg_8h.html" target="_top" xlink:title="tmva/tmvagui/inc/TMVA\l/BDT_Reg.h">
<polygon fill="#ffffff" stroke="#000000" points="243,-67.5 243,-97.5 376,-97.5 376,-67.5 243,-67.5"/>
<text text-anchor="start" x="251" y="-85.5" font-family="Helvetica,sans-Serif" font-size="10.00" fill="#000000">tmva/tmvagui/inc/TMVA</text>
<text text-anchor="middle" x="309.5" y="-74.5" font-family="Helvetica,sans-Serif" font-size="10.00" fill="#000000">/BDT_Reg.h</text>
</a>
</g>
</g>
<!-- Node24&#45;&gt;Node29 -->
<g id="edge11" class="edge">
<title>Node24&#45;&gt;Node29</title>
<path fill="none" stroke="#191970" d="M963.955,-201.3201C862.4457,-192.9177 413.9691,-198.7867 358.5,-165 333.7446,-149.9212 320.0043,-117.2272 313.7418,-97.8297"/>
<polygon fill="#191970" stroke="#191970" points="963.7986,-204.8223 974.1029,-202.3583 964.5111,-197.8586 963.7986,-204.8223"/>
</g>
<!-- Node30 -->
<g id="node10" class="node">
<title>Node30</title>
<g id="a_node10"><a xlink:href="BDT__Reg_8cxx.html" target="_top" xlink:title="tmva/tmvagui/src/BDT\l_Reg.cxx">
<polygon fill="#ffffff" stroke="#000000" points="375.5,-.5 375.5,-30.5 501.5,-30.5 501.5,-.5 375.5,-.5"/>
<text text-anchor="start" x="383.5" y="-18.5" font-family="Helvetica,sans-Serif" font-size="10.00" fill="#000000">tmva/tmvagui/src/BDT</text>
<text text-anchor="middle" x="438.5" y="-7.5" font-family="Helvetica,sans-Serif" font-size="10.00" fill="#000000">_Reg.cxx</text>
</a>
</g>
</g>
<!-- Node24&#45;&gt;Node30 -->
<g id="edge25" class="edge">
<title>Node24&#45;&gt;Node30</title>
<path fill="none" stroke="#191970" d="M964.0826,-201.2266C865.6804,-190.5073 651.6968,-213.8976 586.5,-165 548.9977,-136.8733 579.5933,-101.1694 547.5,-67 531.9534,-50.4477 510.0053,-38.6751 489.8745,-30.6039"/>
<polygon fill="#191970" stroke="#191970" points="963.7223,-204.7088 974.0838,-202.4975 964.6048,-197.7647 963.7223,-204.7088"/>
</g>
<!-- Node31 -->
<g id="node11" class="node">
<title>Node31</title>
<g id="a_node11"><a xlink:href="BDT_8cxx.html" target="_top" xlink:title="tmva/tmvagui/src/BDT.cxx">
<polygon fill="#ffffff" stroke="#000000" points="394,-73 394,-92 539,-92 539,-73 394,-73"/>
<text text-anchor="middle" x="466.5" y="-80" font-family="Helvetica,sans-Serif" font-size="10.00" fill="#000000">tmva/tmvagui/src/BDT.cxx</text>
</a>
</g>
</g>
<!-- Node24&#45;&gt;Node31 -->
<g id="edge24" class="edge">
<title>Node24&#45;&gt;Node31</title>
<path fill="none" stroke="#191970" d="M963.9712,-201.1613C858.6436,-188.9327 634.4039,-201.4319 553.5,-165 516.8689,-148.5047 486.0221,-109.9903 473.0581,-92.033"/>
<polygon fill="#191970" stroke="#191970" points="963.7221,-204.6581 974.0881,-202.4679 964.6188,-197.7157 963.7221,-204.6581"/>
</g>
<!-- Node32 -->
<g id="node12" class="node">
<title>Node32</title>
<g id="a_node12"><a xlink:href="CorrGui_8h.html" target="_top" xlink:title="tmva/tmvagui/inc/TMVA\l/CorrGui.h">
<polygon fill="#ffffff" stroke="#000000" points="596,-134.5 596,-164.5 729,-164.5 729,-134.5 596,-134.5"/>
<text text-anchor="start" x="604" y="-152.5" font-family="Helvetica,sans-Serif" font-size="10.00" fill="#000000">tmva/tmvagui/inc/TMVA</text>
<text text-anchor="middle" x="662.5" y="-141.5" font-family="Helvetica,sans-Serif" font-size="10.00" fill="#000000">/CorrGui.h</text>
</a>
</g>
</g>
<!-- Node24&#45;&gt;Node32 -->
<g id="edge12" class="edge">
<title>Node24&#45;&gt;Node32</title>
<path fill="none" stroke="#191970" d="M964.8059,-201.0553C964.7039,-201.0369 964.6019,-201.0184 964.5,-201 866.57,-183.2991 841.4921,-182.3536 743.5,-165 738.8476,-164.1761 734.0486,-163.307 729.2183,-162.4182"/>
<polygon fill="#191970" stroke="#191970" points="963.9932,-204.4644 974.4621,-202.8353 965.2623,-197.5804 963.9932,-204.4644"/>
</g>
<!-- Node33 -->
<g id="node13" class="node">
<title>Node33</title>
<g id="a_node13"><a xlink:href="CorrGui_8cxx.html" target="_top" xlink:title="tmva/tmvagui/src/CorrGui.cxx">
<polygon fill="#ffffff" stroke="#000000" points="634,-73 634,-92 797,-92 797,-73 634,-73"/>
<text text-anchor="middle" x="715.5" y="-80" font-family="Helvetica,sans-Serif" font-size="10.00" fill="#000000">tmva/tmvagui/src/CorrGui.cxx</text>
</a>
</g>
</g>
<!-- Node24&#45;&gt;Node33 -->
<g id="edge26" class="edge">
<title>Node24&#45;&gt;Node33</title>
<path fill="none" stroke="#191970" d="M964.8051,-201.0595C964.7033,-201.0397 964.6016,-201.0198 964.5,-201 881.0007,-184.7092 848.5041,-210.3094 776.5,-165 747.7041,-146.8798 727.9211,-109.8743 719.7314,-92.2505"/>
<polygon fill="#191970" stroke="#191970" points="963.9549,-204.4594 974.4412,-202.9465 965.3002,-197.5899 963.9549,-204.4594"/>
</g>
<!-- Node34 -->
<g id="node14" class="node">
<title>Node34</title>
<g id="a_node14"><a xlink:href="CorrGuiMultiClass_8h.html" target="_top" xlink:title="tmva/tmvagui/inc/TMVA\l/CorrGuiMultiClass.h">
<polygon fill="#ffffff" stroke="#000000" points="786,-134.5 786,-164.5 919,-164.5 919,-134.5 786,-134.5"/>
<text text-anchor="start" x="794" y="-152.5" font-family="Helvetica,sans-Serif" font-size="10.00" fill="#000000">tmva/tmvagui/inc/TMVA</text>
<text text-anchor="middle" x="852.5" y="-141.5" font-family="Helvetica,sans-Serif" font-size="10.00" fill="#000000">/CorrGuiMultiClass.h</text>
</a>
</g>
</g>
<!-- Node24&#45;&gt;Node34 -->
<g id="edge14" class="edge">
<title>Node24&#45;&gt;Node34</title>
<path fill="none" stroke="#191970" d="M990.0437,-198.0023C960.2336,-187.4903 923.3798,-174.4945 895.3257,-164.6017"/>
<polygon fill="#191970" stroke="#191970" points="989.2655,-201.439 999.8603,-201.4639 991.5935,-194.8374 989.2655,-201.439"/>
</g>
<!-- Node35 -->
<g id="node15" class="node">
<title>Node35</title>
<g id="a_node15"><a xlink:href="CorrGuiMultiClass_8cxx.html" target="_top" xlink:title="tmva/tmvagui/src/CorrGui\lMultiClass.cxx">
<polygon fill="#ffffff" stroke="#000000" points="835,-67.5 835,-97.5 978,-97.5 978,-67.5 835,-67.5"/>
<text text-anchor="start" x="843" y="-85.5" font-family="Helvetica,sans-Serif" font-size="10.00" fill="#000000">tmva/tmvagui/src/CorrGui</text>
<text text-anchor="middle" x="906.5" y="-74.5" font-family="Helvetica,sans-Serif" font-size="10.00" fill="#000000">MultiClass.cxx</text>
</a>
</g>
</g>
<!-- Node24&#45;&gt;Node35 -->
<g id="edge27" class="edge">
<title>Node24&#45;&gt;Node35</title>
<path fill="none" stroke="#191970" d="M1006.923,-196.0287C993.4755,-187.3899 978.5287,-176.6354 966.5,-165 945.1145,-144.3139 925.9577,-115.2485 915.3143,-97.7104"/>
<polygon fill="#191970" stroke="#191970" points="1005.1627,-199.0559 1015.4977,-201.3881 1008.8729,-193.1199 1005.1627,-199.0559"/>
</g>
<!-- Node36 -->
<g id="node16" class="node">
<title>Node36</title>
<g id="a_node16"><a xlink:href="PlotFoams_8h.html" target="_top" xlink:title="tmva/tmvagui/inc/TMVA\l/PlotFoams.h">
<polygon fill="#ffffff" stroke="#000000" points="976,-134.5 976,-164.5 1109,-164.5 1109,-134.5 976,-134.5"/>
<text text-anchor="start" x="984" y="-152.5" font-family="Helvetica,sans-Serif" font-size="10.00" fill="#000000">tmva/tmvagui/inc/TMVA</text>
<text text-anchor="middle" x="1042.5" y="-141.5" font-family="Helvetica,sans-Serif" font-size="10.00" fill="#000000">/PlotFoams.h</text>
</a>
</g>
</g>
<!-- Node24&#45;&gt;Node36 -->
<g id="edge16" class="edge">
<title>Node24&#45;&gt;Node36</title>
<path fill="none" stroke="#191970" d="M1042.5,-191.0249C1042.5,-182.128 1042.5,-172.4287 1042.5,-164.6432"/>
<polygon fill="#191970" stroke="#191970" points="1039.0001,-191.2966 1042.5,-201.2967 1046.0001,-191.2967 1039.0001,-191.2966"/>
</g>
<!-- Node37 -->
<g id="node17" class="node">
<title>Node37</title>
<g id="a_node17"><a xlink:href="PlotFoams_8cxx.html" target="_top" xlink:title="tmva/tmvagui/src/PlotFoams.cxx">
<polygon fill="#ffffff" stroke="#000000" points="1006,-73 1006,-92 1183,-92 1183,-73 1006,-73"/>
<text text-anchor="middle" x="1094.5" y="-80" font-family="Helvetica,sans-Serif" font-size="10.00" fill="#000000">tmva/tmvagui/src/PlotFoams.cxx</text>
</a>
</g>
</g>
<!-- Node24&#45;&gt;Node37 -->
<g id="edge29" class="edge">
<title>Node24&#45;&gt;Node37</title>
<path fill="none" stroke="#191970" d="M1086.8573,-196.1431C1099.0053,-188.2467 1110.6916,-177.9341 1117.5,-165 1130.3824,-140.527 1112.4035,-108.0651 1101.6081,-92.1424"/>
<polygon fill="#191970" stroke="#191970" points="1084.7625,-193.3185 1077.9931,-201.4687 1088.3676,-199.3188 1084.7625,-193.3185"/>
</g>
<!-- Node38 -->
<g id="node18" class="node">
<title>Node38</title>
<g id="a_node18"><a xlink:href="TMVAGui_8h.html" target="_top" xlink:title="tmva/tmvagui/inc/TMVA\l/TMVAGui.h">
<polygon fill="#ffffff" stroke="#000000" points="1166,-134.5 1166,-164.5 1299,-164.5 1299,-134.5 1166,-134.5"/>
<text text-anchor="start" x="1174" y="-152.5" font-family="Helvetica,sans-Serif" font-size="10.00" fill="#000000">tmva/tmvagui/inc/TMVA</text>
<text text-anchor="middle" x="1232.5" y="-141.5" font-family="Helvetica,sans-Serif" font-size="10.00" fill="#000000">/TMVAGui.h</text>
</a>
</g>
</g>
<!-- Node24&#45;&gt;Node38 -->
<g id="edge18" class="edge">
<title>Node24&#45;&gt;Node38</title>
<path fill="none" stroke="#191970" d="M1094.9563,-198.0023C1124.7664,-187.4903 1161.6202,-174.4945 1189.6743,-164.6017"/>
<polygon fill="#191970" stroke="#191970" points="1093.4065,-194.8374 1085.1397,-201.4639 1095.7345,-201.439 1093.4065,-194.8374"/>
</g>
<!-- Node39 -->
<g id="node19" class="node">
<title>Node39</title>
<g id="a_node19"><a xlink:href="TMVAGui_8cxx.html" target="_top" xlink:title="tmva/tmvagui/src/TMVAGui.cxx">
<polygon fill="#ffffff" stroke="#000000" points="1206.5,-73 1206.5,-92 1376.5,-92 1376.5,-73 1206.5,-73"/>
<text text-anchor="middle" x="1291.5" y="-80" font-family="Helvetica,sans-Serif" font-size="10.00" fill="#000000">tmva/tmvagui/src/TMVAGui.cxx</text>
</a>
</g>
</g>
<!-- Node24&#45;&gt;Node39 -->
<g id="edge30" class="edge">
<title>Node24&#45;&gt;Node39</title>
<path fill="none" stroke="#191970" d="M1120.8386,-212.0382C1190.2688,-206.2524 1284.1644,-193.3073 1307.5,-165 1325.0401,-143.723 1307.9602,-108.8954 1297.8185,-92.1228"/>
<polygon fill="#191970" stroke="#191970" points="1120.4733,-208.5562 1110.7836,-212.8409 1121.0304,-215.534 1120.4733,-208.5562"/>
</g>
<!-- Node40 -->
<g id="node20" class="node">
<title>Node40</title>
<g id="a_node20"><a xlink:href="TMVAMultiClassGui_8h.html" target="_top" xlink:title="tmva/tmvagui/inc/TMVA\l/TMVAMultiClassGui.h">
<polygon fill="#ffffff" stroke="#000000" points="1356,-134.5 1356,-164.5 1489,-164.5 1489,-134.5 1356,-134.5"/>
<text text-anchor="start" x="1364" y="-152.5" font-family="Helvetica,sans-Serif" font-size="10.00" fill="#000000">tmva/tmvagui/inc/TMVA</text>
<text text-anchor="middle" x="1422.5" y="-141.5" font-family="Helvetica,sans-Serif" font-size="10.00" fill="#000000">/TMVAMultiClassGui.h</text>
</a>
</g>
</g>
<!-- Node24&#45;&gt;Node40 -->
<g id="edge20" class="edge">
<title>Node24&#45;&gt;Node40</title>
<path fill="none" stroke="#191970" d="M1120.7643,-203.4268C1181.1256,-193.2456 1266.6668,-178.6034 1341.5,-165 1346.1486,-164.155 1350.9448,-163.2702 1355.7731,-162.37"/>
<polygon fill="#191970" stroke="#191970" points="1119.8277,-200.0352 1110.5482,-205.148 1120.9907,-206.9379 1119.8277,-200.0352"/>
</g>
<!-- Node41 -->
<g id="node21" class="node">
<title>Node41</title>
<g id="a_node21"><a xlink:href="TMVAMultiClassGui_8cxx.html" target="_top" xlink:title="tmva/tmvagui/src/TMVAMulti\lClassGui.cxx">
<polygon fill="#ffffff" stroke="#000000" points="1397,-67.5 1397,-97.5 1554,-97.5 1554,-67.5 1397,-67.5"/>
<text text-anchor="start" x="1405" y="-85.5" font-family="Helvetica,sans-Serif" font-size="10.00" fill="#000000">tmva/tmvagui/src/TMVAMulti</text>
<text text-anchor="middle" x="1475.5" y="-74.5" font-family="Helvetica,sans-Serif" font-size="10.00" fill="#000000">ClassGui.cxx</text>
</a>
</g>
</g>
<!-- Node24&#45;&gt;Node41 -->
<g id="edge31" class="edge">
<title>Node24&#45;&gt;Node41</title>
<path fill="none" stroke="#191970" d="M1120.8741,-213.2167C1244.3897,-207.2286 1472.9041,-192.5369 1497.5,-165 1514.2871,-146.2057 1499.0773,-115.9918 1486.9637,-97.8129"/>
<polygon fill="#191970" stroke="#191970" points="1120.5348,-209.7288 1110.7129,-213.7011 1120.8683,-216.7208 1120.5348,-209.7288"/>
</g>
<!-- Node42 -->
<g id="node22" class="node">
<title>Node42</title>
<g id="a_node22"><a xlink:href="TMVARegGui_8h.html" target="_top" xlink:title="tmva/tmvagui/inc/TMVA\l/TMVARegGui.h">
<polygon fill="#ffffff" stroke="#000000" points="1546,-134.5 1546,-164.5 1679,-164.5 1679,-134.5 1546,-134.5"/>
<text text-anchor="start" x="1554" y="-152.5" font-family="Helvetica,sans-Serif" font-size="10.00" fill="#000000">tmva/tmvagui/inc/TMVA</text>
<text text-anchor="middle" x="1612.5" y="-141.5" font-family="Helvetica,sans-Serif" font-size="10.00" fill="#000000">/TMVARegGui.h</text>
</a>
</g>
</g>
<!-- Node24&#45;&gt;Node42 -->
<g id="edge22" class="edge">
<title>Node24&#45;&gt;Node42</title>
<path fill="none" stroke="#191970" d="M1120.7561,-210.3019C1217.5248,-202.1677 1387.1417,-186.375 1531.5,-165 1536.1739,-164.3079 1540.9887,-163.5367 1545.8305,-162.7183"/>
<polygon fill="#191970" stroke="#191970" points="1120.4344,-206.8165 1110.7604,-211.1366 1121.017,-213.7922 1120.4344,-206.8165"/>
</g>
<!-- Node43 -->
<g id="node23" class="node">
<title>Node43</title>
<g id="a_node23"><a xlink:href="TMVARegGui_8cxx.html" target="_top" xlink:title="tmva/tmvagui/src/TMVAReg\lGui.cxx">
<polygon fill="#ffffff" stroke="#000000" points="1573,-67.5 1573,-97.5 1724,-97.5 1724,-67.5 1573,-67.5"/>
<text text-anchor="start" x="1581" y="-85.5" font-family="Helvetica,sans-Serif" font-size="10.00" fill="#000000">tmva/tmvagui/src/TMVAReg</text>
<text text-anchor="middle" x="1648.5" y="-74.5" font-family="Helvetica,sans-Serif" font-size="10.00" fill="#000000">Gui.cxx</text>
</a>
</g>
</g>
<!-- Node24&#45;&gt;Node43 -->
<g id="edge32" class="edge">
<title>Node24&#45;&gt;Node43</title>
<path fill="none" stroke="#191970" d="M1120.7243,-213.0709C1288.5313,-205.3357 1669.4842,-185.5921 1688.5,-165 1706.7503,-145.2369 1683.4722,-115.6132 1665.5426,-97.7609"/>
<polygon fill="#191970" stroke="#191970" points="1120.5412,-209.5755 1110.7119,-213.5298 1120.8617,-216.5681 1120.5412,-209.5755"/>
</g>
<!-- Node44 -->
<g id="node24" class="node">
<title>Node44</title>
<g id="a_node24"><a xlink:href="efficienciesMulticlass_8cxx.html" target="_top" xlink:title="tmva/tmvagui/src/efficiencies\lMulticlass.cxx">
<polygon fill="#ffffff" stroke="#000000" points="1736,-134.5 1736,-164.5 1897,-164.5 1897,-134.5 1736,-134.5"/>
<text text-anchor="start" x="1744" y="-152.5" font-family="Helvetica,sans-Serif" font-size="10.00" fill="#000000">tmva/tmvagui/src/efficiencies</text>
<text text-anchor="middle" x="1816.5" y="-141.5" font-family="Helvetica,sans-Serif" font-size="10.00" fill="#000000">Multiclass.cxx</text>
</a>
</g>
</g>
<!-- Node24&#45;&gt;Node44 -->
<g id="edge28" class="edge">
<title>Node24&#45;&gt;Node44</title>
<path fill="none" stroke="#191970" d="M1120.6206,-212.7638C1247.1495,-206.2212 1504.6286,-190.868 1721.5,-165 1726.2292,-164.4359 1731.0828,-163.8053 1735.9745,-163.13"/>
<polygon fill="#191970" stroke="#191970" points="1120.4401,-209.2684 1110.6325,-213.276 1120.7986,-216.2592 1120.4401,-209.2684"/>
</g>
<!-- Node28&#45;&gt;Node29 -->
<g id="edge8" class="edge">
<title>Node28&#45;&gt;Node29</title>
<path fill="none" stroke="#191970" d="M397.4387,-129.6352C378.3844,-119.422 355.5265,-107.1702 337.8913,-97.7177"/>
<polygon fill="#191970" stroke="#191970" points="395.9803,-132.8245 406.4476,-134.4639 399.2873,-126.6549 395.9803,-132.8245"/>
</g>
<!-- Node28&#45;&gt;Node31 -->
<g id="edge10" class="edge">
<title>Node28&#45;&gt;Node31</title>
<path fill="none" stroke="#191970" d="M446.1268,-125.1564C451.6058,-113.6846 457.826,-100.6613 461.9364,-92.055"/>
<polygon fill="#191970" stroke="#191970" points="442.9129,-123.7646 441.7613,-134.2967 449.2294,-126.7815 442.9129,-123.7646"/>
</g>
<!-- Node29&#45;&gt;Node30 -->
<g id="edge9" class="edge">
<title>Node29&#45;&gt;Node30</title>
<path fill="none" stroke="#191970" d="M347.4793,-62.7743C367.1967,-52.5335 390.9179,-40.2132 409.2002,-30.7177"/>
<polygon fill="#191970" stroke="#191970" points="345.7113,-59.7486 338.4501,-67.4639 348.9378,-65.9607 345.7113,-59.7486"/>
</g>
<!-- Node32&#45;&gt;Node33 -->
<g id="edge13" class="edge">
<title>Node32&#45;&gt;Node33</title>
<path fill="none" stroke="#191970" d="M680.9436,-126.1845C690.2103,-114.47 700.9294,-100.9195 707.9416,-92.055"/>
<polygon fill="#191970" stroke="#191970" points="677.9856,-124.2824 674.5265,-134.2967 683.4756,-128.6252 677.9856,-124.2824"/>
</g>
<!-- Node34&#45;&gt;Node35 -->
<g id="edge15" class="edge">
<title>Node34&#45;&gt;Node35</title>
<path fill="none" stroke="#191970" d="M871.1575,-126.3509C878.8164,-116.8482 887.4685,-106.1132 894.2951,-97.6432"/>
<polygon fill="#191970" stroke="#191970" points="868.3036,-124.3143 864.7534,-134.2967 873.7538,-128.707 868.3036,-124.3143"/>
</g>
<!-- Node36&#45;&gt;Node37 -->
<g id="edge17" class="edge">
<title>Node36&#45;&gt;Node37</title>
<path fill="none" stroke="#191970" d="M1060.5956,-126.1845C1069.6874,-114.47 1080.2043,-100.9195 1087.0842,-92.055"/>
<polygon fill="#191970" stroke="#191970" points="1057.6659,-124.2508 1054.2996,-134.2967 1063.1958,-128.5427 1057.6659,-124.2508"/>
</g>
<!-- Node38&#45;&gt;Node39 -->
<g id="edge19" class="edge">
<title>Node38&#45;&gt;Node39</title>
<path fill="none" stroke="#191970" d="M1252.7316,-126.5252C1263.1152,-114.7336 1275.2041,-101.0055 1283.0859,-92.055"/>
<polygon fill="#191970" stroke="#191970" points="1249.8701,-124.4786 1245.888,-134.2967 1255.1236,-129.1048 1249.8701,-124.4786"/>
</g>
<!-- Node40&#45;&gt;Node41 -->
<g id="edge21" class="edge">
<title>Node40&#45;&gt;Node41</title>
<path fill="none" stroke="#191970" d="M1440.812,-126.3509C1448.3291,-116.8482 1456.8209,-106.1132 1463.5211,-97.6432"/>
<polygon fill="#191970" stroke="#191970" points="1437.9856,-124.2824 1434.5265,-134.2967 1443.4756,-128.6252 1437.9856,-124.2824"/>
</g>
<!-- Node42&#45;&gt;Node43 -->
<g id="edge23" class="edge">
<title>Node42&#45;&gt;Node43</title>
<path fill="none" stroke="#191970" d="M1625.4043,-125.4837C1630.3927,-116.1996 1635.9502,-105.8565 1640.3634,-97.6432"/>
<polygon fill="#191970" stroke="#191970" points="1622.319,-123.8311 1620.669,-134.2967 1628.4853,-127.1443 1622.319,-123.8311"/>
</g>
<!-- Node45&#45;&gt;Node27 -->
<g id="edge35" class="edge">
<title>Node45&#45;&gt;Node27</title>
<path fill="none" stroke="#191970" d="M2036.2425,-194.7808C2024.3433,-184.9383 2010.5644,-173.541 1999.8074,-164.6432"/>
<polygon fill="#191970" stroke="#191970" points="2034.1835,-197.6198 2044.1198,-201.2967 2038.6451,-192.2259 2034.1835,-197.6198"/>
</g>
<!-- Node46 -->
<g id="node26" class="node">
<title>Node46</title>
<g id="a_node26"><a xlink:href="TRootCanvas_8cxx.html" target="_top" xlink:title="gui/gui/src/TRootCanvas.cxx">
<polygon fill="#ffffff" stroke="#000000" points="2066.5,-140 2066.5,-159 2220.5,-159 2220.5,-140 2066.5,-140"/>
<text text-anchor="middle" x="2143.5" y="-147" font-family="Helvetica,sans-Serif" font-size="10.00" fill="#000000">gui/gui/src/TRootCanvas.cxx</text>
</a>
</g>
</g>
<!-- Node45&#45;&gt;Node46 -->
<g id="edge34" class="edge">
<title>Node45&#45;&gt;Node46</title>
<path fill="none" stroke="#191970" d="M2088.6415,-194.8767C2103.2458,-182.7967 2120.7115,-168.3498 2131.9485,-159.055"/>
<polygon fill="#191970" stroke="#191970" points="2086.3549,-192.2259 2080.8802,-201.2967 2090.8165,-197.6198 2086.3549,-192.2259"/>
</g>
<!-- Node47 -->
<g id="node27" class="node">
<title>Node47</title>
<g id="a_node27"><a xlink:href="TRootGuiFactory_8cxx.html" target="_top" xlink:title="gui/gui/src/TRootGuiFactory.cxx">
<polygon fill="#ffffff" stroke="#000000" points="2238.5,-140 2238.5,-159 2406.5,-159 2406.5,-140 2238.5,-140"/>
<text text-anchor="middle" x="2322.5" y="-147" font-family="Helvetica,sans-Serif" font-size="10.00" fill="#000000">gui/gui/src/TRootGuiFactory.cxx</text>
</a>
</g>
</g>
<!-- Node45&#45;&gt;Node47 -->
<g id="edge36" class="edge">
<title>Node45&#45;&gt;Node47</title>
<path fill="none" stroke="#191970" d="M2130.5428,-198.9659C2180.1181,-186.1907 2245.3837,-169.3723 2285.6138,-159.0053"/>
<polygon fill="#191970" stroke="#191970" points="2129.6593,-195.5791 2120.8491,-201.4639 2131.4061,-202.3577 2129.6593,-195.5791"/>
</g>
</g>
</svg>
