<?xml version="1.0" encoding="UTF-8" standalone="no"?>
<!DOCTYPE svg PUBLIC "-//W3C//DTD SVG 1.1//EN"
 "http://www.w3.org/Graphics/SVG/1.1/DTD/svg11.dtd">
<!-- Generated by graphviz version 2.40.1 (0)
 -->
<!-- Title: proof/proof/inc/TCondor.h Pages: 1 -->
<svg width="512pt" height="84pt"
 viewBox="0.00 0.00 512.00 84.00" xmlns="http://www.w3.org/2000/svg" xmlns:xlink="http://www.w3.org/1999/xlink">
<g id="graph0" class="graph" transform="scale(1 1) rotate(0) translate(4 80)">
<title>proof/proof/inc/TCondor.h</title>
<polygon fill="#ffffff" stroke="transparent" points="-4,4 -4,-80 508,-80 508,4 -4,4"/>
<!-- Node45 -->
<g id="node1" class="node">
<title>Node45</title>
<polygon fill="#bfbfbf" stroke="#000000" points="169.5,-56.5 169.5,-75.5 308.5,-75.5 308.5,-56.5 169.5,-56.5"/>
<text text-anchor="middle" x="239" y="-63.5" font-family="Helvetica,sans-Serif" font-size="10.00" fill="#000000">proof/proof/inc/TCondor.h</text>
</g>
<!-- Node46 -->
<g id="node2" class="node">
<title>Node46</title>
<g id="a_node2"><a xlink:href="TCondor_8cxx.html" target="_top" xlink:title="proof/proof/src/TCondor.cxx">
<polygon fill="#ffffff" stroke="#000000" points="0,-.5 0,-19.5 150,-19.5 150,-.5 0,-.5"/>
<text text-anchor="middle" x="75" y="-7.5" font-family="Helvetica,sans-Serif" font-size="10.00" fill="#000000">proof/proof/src/TCondor.cxx</text>
</a>
</g>
</g>
<!-- Node45&#45;&gt;Node46 -->
<g id="edge1" class="edge">
<title>Node45&#45;&gt;Node46</title>
<path fill="none" stroke="#191970" d="M201.0956,-53.057C171.0816,-42.8084 129.8493,-28.729 102.8247,-19.5011"/>
<polygon fill="#191970" stroke="#191970" points="200.2129,-56.454 210.8074,-56.3733 202.4749,-49.8295 200.2129,-56.454"/>
</g>
<!-- Node47 -->
<g id="node3" class="node">
<title>Node47</title>
<g id="a_node3"><a xlink:href="TProof_8cxx.html" target="_top" xlink:title="proof/proof/src/TProof.cxx">
<polygon fill="#ffffff" stroke="#000000" points="168,-.5 168,-19.5 310,-19.5 310,-.5 168,-.5"/>
<text text-anchor="middle" x="239" y="-7.5" font-family="Helvetica,sans-Serif" font-size="10.00" fill="#000000">proof/proof/src/TProof.cxx</text>
</a>
</g>
</g>
<!-- Node45&#45;&gt;Node47 -->
<g id="edge2" class="edge">
<title>Node45&#45;&gt;Node47</title>
<path fill="none" stroke="#191970" d="M239,-46.1575C239,-37.155 239,-26.9199 239,-19.6427"/>
<polygon fill="#191970" stroke="#191970" points="235.5001,-46.2455 239,-56.2455 242.5001,-46.2456 235.5001,-46.2455"/>
</g>
<!-- Node48 -->
<g id="node4" class="node">
<title>Node48</title>
<g id="a_node4"><a xlink:href="TProofCondor_8cxx.html" target="_top" xlink:title="proof/proof/src/TProofCondor.cxx">
<polygon fill="#ffffff" stroke="#000000" points="328,-.5 328,-19.5 504,-19.5 504,-.5 328,-.5"/>
<text text-anchor="middle" x="416" y="-7.5" font-family="Helvetica,sans-Serif" font-size="10.00" fill="#000000">proof/proof/src/TProofCondor.cxx</text>
</a>
</g>
</g>
<!-- Node45&#45;&gt;Node48 -->
<g id="edge3" class="edge">
<title>Node45&#45;&gt;Node48</title>
<path fill="none" stroke="#191970" d="M279.0668,-53.3235C311.527,-43.0536 356.5493,-28.8093 385.9697,-19.5011"/>
<polygon fill="#191970" stroke="#191970" points="277.9058,-50.0197 269.4274,-56.3733 280.0174,-56.6937 277.9058,-50.0197"/>
</g>
</g>
</svg>
