<?xml version="1.0" encoding="UTF-8" standalone="no"?>
<!DOCTYPE svg PUBLIC "-//W3C//DTD SVG 1.1//EN"
 "http://www.w3.org/Graphics/SVG/1.1/DTD/svg11.dtd">
<!-- Generated by graphviz version 2.40.1 (0)
 -->
<!-- Title: graf2d/graf/inc/TDiamond.h Pages: 1 -->
<svg width="478pt" height="140pt"
 viewBox="0.00 0.00 478.00 140.00" xmlns="http://www.w3.org/2000/svg" xmlns:xlink="http://www.w3.org/1999/xlink">
<g id="graph0" class="graph" transform="scale(1 1) rotate(0) translate(4 136)">
<title>graf2d/graf/inc/TDiamond.h</title>
<polygon fill="#ffffff" stroke="transparent" points="-4,4 -4,-136 474,-136 474,4 -4,4"/>
<!-- Node57 -->
<g id="node1" class="node">
<title>Node57</title>
<polygon fill="#bfbfbf" stroke="#000000" points="217.5,-112.5 217.5,-131.5 367.5,-131.5 367.5,-112.5 217.5,-112.5"/>
<text text-anchor="middle" x="292.5" y="-119.5" font-family="Helvetica,sans-Serif" font-size="10.00" fill="#000000">graf2d/graf/inc/TDiamond.h</text>
</g>
<!-- Node58 -->
<g id="node2" class="node">
<title>Node58</title>
<g id="a_node2"><a xlink:href="TCreatePrimitives_8h.html" target="_top" xlink:title="graf2d/gpad/inc/TCreatePrimitives.h">
<polygon fill="#ffffff" stroke="#000000" points="100,-56.5 100,-75.5 291,-75.5 291,-56.5 100,-56.5"/>
<text text-anchor="middle" x="195.5" y="-63.5" font-family="Helvetica,sans-Serif" font-size="10.00" fill="#000000">graf2d/gpad/inc/TCreatePrimitives.h</text>
</a>
</g>
</g>
<!-- Node57&#45;&gt;Node58 -->
<g id="edge1" class="edge">
<title>Node57&#45;&gt;Node58</title>
<path fill="none" stroke="#191970" d="M266.5984,-107.0465C249.3391,-97.0824 227.1624,-84.2794 212.2025,-75.6427"/>
<polygon fill="#191970" stroke="#191970" points="265.1936,-110.2768 275.6039,-112.2455 268.6935,-104.2146 265.1936,-110.2768"/>
</g>
<!-- Node61 -->
<g id="node5" class="node">
<title>Node61</title>
<g id="a_node5"><a xlink:href="TDiamond_8cxx.html" target="_top" xlink:title="graf2d/graf/src/TDiamond.cxx">
<polygon fill="#ffffff" stroke="#000000" points="309,-56.5 309,-75.5 470,-75.5 470,-56.5 309,-56.5"/>
<text text-anchor="middle" x="389.5" y="-63.5" font-family="Helvetica,sans-Serif" font-size="10.00" fill="#000000">graf2d/graf/src/TDiamond.cxx</text>
</a>
</g>
</g>
<!-- Node57&#45;&gt;Node61 -->
<g id="edge4" class="edge">
<title>Node57&#45;&gt;Node61</title>
<path fill="none" stroke="#191970" d="M318.4016,-107.0465C335.6609,-97.0824 357.8376,-84.2794 372.7975,-75.6427"/>
<polygon fill="#191970" stroke="#191970" points="316.3065,-104.2146 309.3961,-112.2455 319.8064,-110.2768 316.3065,-104.2146"/>
</g>
<!-- Node59 -->
<g id="node3" class="node">
<title>Node59</title>
<g id="a_node3"><a xlink:href="TCreatePrimitives_8cxx.html" target="_top" xlink:title="graf2d/gpad/src/TCreatePrimitives.cxx">
<polygon fill="#ffffff" stroke="#000000" points="0,-.5 0,-19.5 203,-19.5 203,-.5 0,-.5"/>
<text text-anchor="middle" x="101.5" y="-7.5" font-family="Helvetica,sans-Serif" font-size="10.00" fill="#000000">graf2d/gpad/src/TCreatePrimitives.cxx</text>
</a>
</g>
</g>
<!-- Node58&#45;&gt;Node59 -->
<g id="edge2" class="edge">
<title>Node58&#45;&gt;Node59</title>
<path fill="none" stroke="#191970" d="M170.3995,-51.0465C153.674,-41.0824 132.1832,-28.2794 117.6859,-19.6427"/>
<polygon fill="#191970" stroke="#191970" points="168.7441,-54.1343 179.1264,-56.2455 172.3268,-48.1206 168.7441,-54.1343"/>
</g>
<!-- Node60 -->
<g id="node4" class="node">
<title>Node60</title>
<g id="a_node4"><a xlink:href="TPad_8cxx.html" target="_top" xlink:title="graf2d/gpad/src/TPad.cxx">
<polygon fill="#ffffff" stroke="#000000" points="221,-.5 221,-19.5 360,-19.5 360,-.5 221,-.5"/>
<text text-anchor="middle" x="290.5" y="-7.5" font-family="Helvetica,sans-Serif" font-size="10.00" fill="#000000">graf2d/gpad/src/TPad.cxx</text>
</a>
</g>
</g>
<!-- Node58&#45;&gt;Node60 -->
<g id="edge3" class="edge">
<title>Node58&#45;&gt;Node60</title>
<path fill="none" stroke="#191970" d="M220.8676,-51.0465C237.771,-41.0824 259.4904,-28.2794 274.1419,-19.6427"/>
<polygon fill="#191970" stroke="#191970" points="218.8851,-48.1522 212.0477,-56.2455 222.4398,-54.1825 218.8851,-48.1522"/>
</g>
</g>
</svg>
