<?xml version="1.0" encoding="UTF-8" standalone="no"?>
<!DOCTYPE svg PUBLIC "-//W3C//DTD SVG 1.1//EN"
 "http://www.w3.org/Graphics/SVG/1.1/DTD/svg11.dtd">
<!-- Generated by graphviz version 2.40.1 (0)
 -->
<!-- Title: proof/proof/inc/TDSet.h Pages: 1 -->
<svg width="3780pt" height="162pt"
 viewBox="0.00 0.00 3780.00 162.00" xmlns="http://www.w3.org/2000/svg" xmlns:xlink="http://www.w3.org/1999/xlink">
<g id="graph0" class="graph" transform="scale(1 1) rotate(0) translate(4 158)">
<title>proof/proof/inc/TDSet.h</title>
<polygon fill="#ffffff" stroke="transparent" points="-4,4 -4,-158 3776,-158 3776,4 -4,4"/>
<!-- Node48 -->
<g id="node1" class="node">
<title>Node48</title>
<polygon fill="#bfbfbf" stroke="#000000" points="1829.5,-134.5 1829.5,-153.5 1958.5,-153.5 1958.5,-134.5 1829.5,-134.5"/>
<text text-anchor="middle" x="1894" y="-141.5" font-family="Helvetica,sans-Serif" font-size="10.00" fill="#000000">proof/proof/inc/TDSet.h</text>
</g>
<!-- Node49 -->
<g id="node2" class="node">
<title>Node49</title>
<g id="a_node2"><a xlink:href="TSessionDialogs_8cxx.html" target="_top" xlink:title="gui/sessionviewer/src\l/TSessionDialogs.cxx">
<polygon fill="#ffffff" stroke="#000000" points="0,-67.5 0,-97.5 122,-97.5 122,-67.5 0,-67.5"/>
<text text-anchor="start" x="8" y="-85.5" font-family="Helvetica,sans-Serif" font-size="10.00" fill="#000000">gui/sessionviewer/src</text>
<text text-anchor="middle" x="61" y="-74.5" font-family="Helvetica,sans-Serif" font-size="10.00" fill="#000000">/TSessionDialogs.cxx</text>
</a>
</g>
</g>
<!-- Node48&#45;&gt;Node49 -->
<g id="edge1" class="edge">
<title>Node48&#45;&gt;Node49</title>
<path fill="none" stroke="#191970" d="M1818.8553,-142.8902C1504.0509,-138.1253 299.8388,-118.701 131,-98 128.1584,-97.6516 125.2624,-97.2407 122.3447,-96.7813"/>
<polygon fill="#191970" stroke="#191970" points="1819.1832,-146.3955 1829.2349,-143.0469 1819.2889,-139.3963 1819.1832,-146.3955"/>
</g>
<!-- Node50 -->
<g id="node3" class="node">
<title>Node50</title>
<g id="a_node3"><a xlink:href="TSessionViewer_8cxx.html" target="_top" xlink:title="gui/sessionviewer/src\l/TSessionViewer.cxx">
<polygon fill="#ffffff" stroke="#000000" points="140,-67.5 140,-97.5 262,-97.5 262,-67.5 140,-67.5"/>
<text text-anchor="start" x="148" y="-85.5" font-family="Helvetica,sans-Serif" font-size="10.00" fill="#000000">gui/sessionviewer/src</text>
<text text-anchor="middle" x="201" y="-74.5" font-family="Helvetica,sans-Serif" font-size="10.00" fill="#000000">/TSessionViewer.cxx</text>
</a>
</g>
</g>
<!-- Node48&#45;&gt;Node50 -->
<g id="edge2" class="edge">
<title>Node48&#45;&gt;Node50</title>
<path fill="none" stroke="#191970" d="M1818.7062,-143.7597C1541.2652,-142.5796 576.372,-135.7897 271,-98 268.1588,-97.6484 265.2631,-97.2349 262.3457,-96.7734"/>
<polygon fill="#191970" stroke="#191970" points="1819.0504,-147.2611 1829.0648,-143.8025 1819.0794,-140.2612 1819.0504,-147.2611"/>
</g>
<!-- Node51 -->
<g id="node4" class="node">
<title>Node51</title>
<g id="a_node4"><a xlink:href="TAlienCollection_8cxx.html" target="_top" xlink:title="net/alien/src/TAlienCollection.cxx">
<polygon fill="#ffffff" stroke="#000000" points="280.5,-73 280.5,-92 459.5,-92 459.5,-73 280.5,-73"/>
<text text-anchor="middle" x="370" y="-80" font-family="Helvetica,sans-Serif" font-size="10.00" fill="#000000">net/alien/src/TAlienCollection.cxx</text>
</a>
</g>
</g>
<!-- Node48&#45;&gt;Node51 -->
<g id="edge3" class="edge">
<title>Node48&#45;&gt;Node51</title>
<path fill="none" stroke="#191970" d="M1819.0922,-142.8177C1564.5602,-138.6066 734.0223,-123.2291 468,-98 453.1666,-96.5932 437.1687,-94.3675 422.4867,-92.0368"/>
<polygon fill="#191970" stroke="#191970" points="1819.2853,-146.3212 1829.3416,-142.9863 1819.4006,-139.3222 1819.2853,-146.3212"/>
</g>
<!-- Node52 -->
<g id="node5" class="node">
<title>Node52</title>
<g id="a_node5"><a xlink:href="TDSetProxy_8h.html" target="_top" xlink:title="proof/proof/inc/TDSetProxy.h">
<polygon fill="#ffffff" stroke="#000000" points="477.5,-73 477.5,-92 632.5,-92 632.5,-73 477.5,-73"/>
<text text-anchor="middle" x="555" y="-80" font-family="Helvetica,sans-Serif" font-size="10.00" fill="#000000">proof/proof/inc/TDSetProxy.h</text>
</a>
</g>
</g>
<!-- Node48&#45;&gt;Node52 -->
<g id="edge4" class="edge">
<title>Node48&#45;&gt;Node52</title>
<path fill="none" stroke="#191970" d="M1819.1618,-142.5177C1586.2796,-137.7034 876.3485,-121.4498 647,-98 633.1425,-96.5831 618.213,-94.369 604.4955,-92.0531"/>
<polygon fill="#191970" stroke="#191970" points="1819.1586,-146.0183 1829.2286,-142.7249 1819.3027,-139.0198 1819.1586,-146.0183"/>
</g>
<!-- Node55 -->
<g id="node8" class="node">
<title>Node55</title>
<g id="a_node8"><a xlink:href="TProofPlayer_8cxx.html" target="_top" xlink:title="proof/proofplayer/src\l/TProofPlayer.cxx">
<polygon fill="#ffffff" stroke="#000000" points="551.5,-.5 551.5,-30.5 670.5,-30.5 670.5,-.5 551.5,-.5"/>
<text text-anchor="start" x="559.5" y="-18.5" font-family="Helvetica,sans-Serif" font-size="10.00" fill="#000000">proof/proofplayer/src</text>
<text text-anchor="middle" x="611" y="-7.5" font-family="Helvetica,sans-Serif" font-size="10.00" fill="#000000">/TProofPlayer.cxx</text>
</a>
</g>
</g>
<!-- Node48&#45;&gt;Node55 -->
<g id="edge27" class="edge">
<title>Node48&#45;&gt;Node55</title>
<path fill="none" stroke="#191970" d="M1819.003,-142.4662C1566.1422,-137.116 757.7599,-118.4875 706,-98 670.4559,-83.931 639.1137,-50.5447 622.8384,-30.8259"/>
<polygon fill="#191970" stroke="#191970" points="1819.1227,-145.9694 1829.1943,-142.681 1819.2703,-138.9709 1819.1227,-145.9694"/>
</g>
<!-- Node56 -->
<g id="node9" class="node">
<title>Node56</title>
<g id="a_node9"><a xlink:href="TProofPlayerLite_8cxx.html" target="_top" xlink:title="proof/proofplayer/src\l/TProofPlayerLite.cxx">
<polygon fill="#ffffff" stroke="#000000" points="689,-.5 689,-30.5 809,-30.5 809,-.5 689,-.5"/>
<text text-anchor="start" x="697" y="-18.5" font-family="Helvetica,sans-Serif" font-size="10.00" fill="#000000">proof/proofplayer/src</text>
<text text-anchor="middle" x="749" y="-7.5" font-family="Helvetica,sans-Serif" font-size="10.00" fill="#000000">/TProofPlayerLite.cxx</text>
</a>
</g>
</g>
<!-- Node48&#45;&gt;Node56 -->
<g id="edge28" class="edge">
<title>Node48&#45;&gt;Node56</title>
<path fill="none" stroke="#191970" d="M1819.1387,-142.4572C1563.1131,-137.0058 737.1419,-117.9053 718,-98 699.8643,-79.141 719.7884,-48.6664 735.0186,-30.5085"/>
<polygon fill="#191970" stroke="#191970" points="1819.3811,-145.963 1829.4531,-142.676 1819.5296,-138.9646 1819.3811,-145.963"/>
</g>
<!-- Node57 -->
<g id="node10" class="node">
<title>Node57</title>
<g id="a_node10"><a xlink:href="TDSet_8cxx.html" target="_top" xlink:title="proof/proof/src/TDSet.cxx">
<polygon fill="#ffffff" stroke="#000000" points="727,-73 727,-92 867,-92 867,-73 727,-73"/>
<text text-anchor="middle" x="797" y="-80" font-family="Helvetica,sans-Serif" font-size="10.00" fill="#000000">proof/proof/src/TDSet.cxx</text>
</a>
</g>
</g>
<!-- Node48&#45;&gt;Node57 -->
<g id="edge9" class="edge">
<title>Node48&#45;&gt;Node57</title>
<path fill="none" stroke="#191970" d="M1818.9858,-142.0583C1615.9308,-136.5709 1058.5815,-119.9134 876,-98 864.0656,-96.5676 851.2342,-94.3484 839.4553,-92.0326"/>
<polygon fill="#191970" stroke="#191970" points="1819.1617,-145.5642 1829.2522,-142.3343 1819.3499,-138.5667 1819.1617,-145.5642"/>
</g>
<!-- Node58 -->
<g id="node11" class="node">
<title>Node58</title>
<g id="a_node11"><a xlink:href="TProof_8cxx.html" target="_top" xlink:title="proof/proof/src/TProof.cxx">
<polygon fill="#ffffff" stroke="#000000" points="885,-73 885,-92 1027,-92 1027,-73 885,-73"/>
<text text-anchor="middle" x="956" y="-80" font-family="Helvetica,sans-Serif" font-size="10.00" fill="#000000">proof/proof/src/TProof.cxx</text>
</a>
</g>
</g>
<!-- Node48&#45;&gt;Node58 -->
<g id="edge10" class="edge">
<title>Node48&#45;&gt;Node58</title>
<path fill="none" stroke="#191970" d="M1819.0314,-141.3098C1639.0834,-134.6377 1186.5003,-116.5245 1036,-98 1024.065,-96.531 1011.236,-94.3287 999.4224,-92.042"/>
<polygon fill="#191970" stroke="#191970" points="1819.0763,-144.8138 1829.1988,-141.6854 1819.3348,-137.8185 1819.0763,-144.8138"/>
</g>
<!-- Node59 -->
<g id="node12" class="node">
<title>Node59</title>
<g id="a_node12"><a xlink:href="TProofChain_8cxx.html" target="_top" xlink:title="proof/proof/src/TProofChain.cxx">
<polygon fill="#ffffff" stroke="#000000" points="1045,-73 1045,-92 1215,-92 1215,-73 1045,-73"/>
<text text-anchor="middle" x="1130" y="-80" font-family="Helvetica,sans-Serif" font-size="10.00" fill="#000000">proof/proof/src/TProofChain.cxx</text>
</a>
</g>
</g>
<!-- Node48&#45;&gt;Node59 -->
<g id="edge11" class="edge">
<title>Node48&#45;&gt;Node59</title>
<path fill="none" stroke="#191970" d="M1819.0994,-141.1266C1695.1846,-135.8629 1439.8488,-122.8589 1225,-98 1211.3877,-96.425 1196.7487,-94.2687 1183.1375,-92.065"/>
<polygon fill="#191970" stroke="#191970" points="1819.0965,-144.6295 1829.2346,-141.5523 1819.3903,-137.6357 1819.0965,-144.6295"/>
</g>
<!-- Node60 -->
<g id="node13" class="node">
<title>Node60</title>
<g id="a_node13"><a xlink:href="TProofLite_8cxx.html" target="_top" xlink:title="proof/proof/src/TProofLite.cxx">
<polygon fill="#ffffff" stroke="#000000" points="1233.5,-73 1233.5,-92 1394.5,-92 1394.5,-73 1233.5,-73"/>
<text text-anchor="middle" x="1314" y="-80" font-family="Helvetica,sans-Serif" font-size="10.00" fill="#000000">proof/proof/src/TProofLite.cxx</text>
</a>
</g>
</g>
<!-- Node48&#45;&gt;Node60 -->
<g id="edge12" class="edge">
<title>Node48&#45;&gt;Node60</title>
<path fill="none" stroke="#191970" d="M1818.9986,-138.7616C1722.6857,-131.6216 1550.486,-117.4606 1404,-98 1391.4264,-96.3296 1377.9223,-94.1895 1365.2971,-92.0365"/>
<polygon fill="#191970" stroke="#191970" points="1818.9895,-142.2703 1829.2196,-139.514 1819.5035,-135.2892 1818.9895,-142.2703"/>
</g>
<!-- Node61 -->
<g id="node14" class="node">
<title>Node61</title>
<g id="a_node14"><a xlink:href="TProofQueryResult_8cxx.html" target="_top" xlink:title="proof/proof/src/TProofQuery\lResult.cxx">
<polygon fill="#ffffff" stroke="#000000" points="1413,-67.5 1413,-97.5 1565,-97.5 1565,-67.5 1413,-67.5"/>
<text text-anchor="start" x="1421" y="-85.5" font-family="Helvetica,sans-Serif" font-size="10.00" fill="#000000">proof/proof/src/TProofQuery</text>
<text text-anchor="middle" x="1489" y="-74.5" font-family="Helvetica,sans-Serif" font-size="10.00" fill="#000000">Result.cxx</text>
</a>
</g>
</g>
<!-- Node48&#45;&gt;Node61 -->
<g id="edge13" class="edge">
<title>Node48&#45;&gt;Node61</title>
<path fill="none" stroke="#191970" d="M1819.0867,-134.0419C1754.158,-125.2174 1657.7377,-111.6486 1574,-98 1571.1871,-97.5415 1568.3235,-97.0657 1565.4322,-96.5777"/>
<polygon fill="#191970" stroke="#191970" points="1818.8506,-137.5418 1829.2301,-135.4167 1819.7909,-130.6052 1818.8506,-137.5418"/>
</g>
<!-- Node62 -->
<g id="node15" class="node">
<title>Node62</title>
<g id="a_node15"><a xlink:href="TProofSuperMaster_8cxx.html" target="_top" xlink:title="proof/proof/src/TProofSuper\lMaster.cxx">
<polygon fill="#ffffff" stroke="#000000" points="1583,-67.5 1583,-97.5 1733,-97.5 1733,-67.5 1583,-67.5"/>
<text text-anchor="start" x="1591" y="-85.5" font-family="Helvetica,sans-Serif" font-size="10.00" fill="#000000">proof/proof/src/TProofSuper</text>
<text text-anchor="middle" x="1658" y="-74.5" font-family="Helvetica,sans-Serif" font-size="10.00" fill="#000000">Master.cxx</text>
</a>
</g>
</g>
<!-- Node48&#45;&gt;Node62 -->
<g id="edge14" class="edge">
<title>Node48&#45;&gt;Node62</title>
<path fill="none" stroke="#191970" d="M1847.6622,-131.9247C1809.915,-122.088 1756.4201,-108.1476 1715.8619,-97.5784"/>
<polygon fill="#191970" stroke="#191970" points="1846.8245,-135.3232 1857.3839,-134.4581 1848.5897,-128.5494 1846.8245,-135.3232"/>
</g>
<!-- Node63 -->
<g id="node16" class="node">
<title>Node63</title>
<g id="a_node16"><a xlink:href="TSelVerifyDataSet_8cxx.html" target="_top" xlink:title="proof/proof/src/TSelVerify\lDataSet.cxx">
<polygon fill="#ffffff" stroke="#000000" points="1751,-67.5 1751,-97.5 1891,-97.5 1891,-67.5 1751,-67.5"/>
<text text-anchor="start" x="1759" y="-85.5" font-family="Helvetica,sans-Serif" font-size="10.00" fill="#000000">proof/proof/src/TSelVerify</text>
<text text-anchor="middle" x="1821" y="-74.5" font-family="Helvetica,sans-Serif" font-size="10.00" fill="#000000">DataSet.cxx</text>
</a>
</g>
</g>
<!-- Node48&#45;&gt;Node63 -->
<g id="edge15" class="edge">
<title>Node48&#45;&gt;Node63</title>
<path fill="none" stroke="#191970" d="M1874.7276,-127.7637C1863.6106,-118.398 1849.7268,-106.7014 1838.8578,-97.5446"/>
<polygon fill="#191970" stroke="#191970" points="1872.6909,-130.6243 1882.5938,-134.3906 1877.201,-125.2709 1872.6909,-130.6243"/>
</g>
<!-- Node64 -->
<g id="node17" class="node">
<title>Node64</title>
<g id="a_node17"><a xlink:href="TSelEventGen_8cxx.html" target="_top" xlink:title="proof/proofbench/src\l/TSelEventGen.cxx">
<polygon fill="#ffffff" stroke="#000000" points="1909.5,-67.5 1909.5,-97.5 2026.5,-97.5 2026.5,-67.5 1909.5,-67.5"/>
<text text-anchor="start" x="1917.5" y="-85.5" font-family="Helvetica,sans-Serif" font-size="10.00" fill="#000000">proof/proofbench/src</text>
<text text-anchor="middle" x="1968" y="-74.5" font-family="Helvetica,sans-Serif" font-size="10.00" fill="#000000">/TSelEventGen.cxx</text>
</a>
</g>
</g>
<!-- Node48&#45;&gt;Node64 -->
<g id="edge16" class="edge">
<title>Node48&#45;&gt;Node64</title>
<path fill="none" stroke="#191970" d="M1913.5364,-127.7637C1924.8057,-118.398 1938.8796,-106.7014 1949.8976,-97.5446"/>
<polygon fill="#191970" stroke="#191970" points="1911.0162,-125.3072 1905.5625,-134.3906 1915.4903,-130.6907 1911.0162,-125.3072"/>
</g>
<!-- Node65 -->
<g id="node18" class="node">
<title>Node65</title>
<g id="a_node18"><a xlink:href="TSelHandleDataSet_8cxx.html" target="_top" xlink:title="proof/proofbench/src\l/TSelHandleDataSet.cxx">
<polygon fill="#ffffff" stroke="#000000" points="2045,-67.5 2045,-97.5 2179,-97.5 2179,-67.5 2045,-67.5"/>
<text text-anchor="start" x="2053" y="-85.5" font-family="Helvetica,sans-Serif" font-size="10.00" fill="#000000">proof/proofbench/src</text>
<text text-anchor="middle" x="2112" y="-74.5" font-family="Helvetica,sans-Serif" font-size="10.00" fill="#000000">/TSelHandleDataSet.cxx</text>
</a>
</g>
</g>
<!-- Node48&#45;&gt;Node65 -->
<g id="edge17" class="edge">
<title>Node48&#45;&gt;Node65</title>
<path fill="none" stroke="#191970" d="M1937.9454,-131.6025C1972.7819,-121.7748 2021.5989,-108.0031 2058.6712,-97.5446"/>
<polygon fill="#191970" stroke="#191970" points="1936.7365,-128.3069 1928.0625,-134.3906 1938.6372,-135.044 1936.7365,-128.3069"/>
</g>
<!-- Node66 -->
<g id="node19" class="node">
<title>Node66</title>
<g id="a_node19"><a xlink:href="TEventIter_8cxx.html" target="_top" xlink:title="proof/proofplayer/src\l/TEventIter.cxx">
<polygon fill="#ffffff" stroke="#000000" points="2197.5,-67.5 2197.5,-97.5 2316.5,-97.5 2316.5,-67.5 2197.5,-67.5"/>
<text text-anchor="start" x="2205.5" y="-85.5" font-family="Helvetica,sans-Serif" font-size="10.00" fill="#000000">proof/proofplayer/src</text>
<text text-anchor="middle" x="2257" y="-74.5" font-family="Helvetica,sans-Serif" font-size="10.00" fill="#000000">/TEventIter.cxx</text>
</a>
</g>
</g>
<!-- Node48&#45;&gt;Node66 -->
<g id="edge18" class="edge">
<title>Node48&#45;&gt;Node66</title>
<path fill="none" stroke="#191970" d="M1968.8036,-133.6818C2028.3622,-125.133 2113.7571,-112.1312 2188,-98 2191.0153,-97.4261 2194.0997,-96.8164 2197.211,-96.1835"/>
<polygon fill="#191970" stroke="#191970" points="1968.1382,-130.2412 1958.7336,-135.1201 1969.128,-137.1709 1968.1382,-130.2412"/>
</g>
<!-- Node67 -->
<g id="node20" class="node">
<title>Node67</title>
<g id="a_node20"><a xlink:href="TPacketizer_8cxx.html" target="_top" xlink:title="proof/proofplayer/src\l/TPacketizer.cxx">
<polygon fill="#ffffff" stroke="#000000" points="2334.5,-67.5 2334.5,-97.5 2453.5,-97.5 2453.5,-67.5 2334.5,-67.5"/>
<text text-anchor="start" x="2342.5" y="-85.5" font-family="Helvetica,sans-Serif" font-size="10.00" fill="#000000">proof/proofplayer/src</text>
<text text-anchor="middle" x="2394" y="-74.5" font-family="Helvetica,sans-Serif" font-size="10.00" fill="#000000">/TPacketizer.cxx</text>
</a>
</g>
</g>
<!-- Node48&#45;&gt;Node67 -->
<g id="edge19" class="edge">
<title>Node48&#45;&gt;Node67</title>
<path fill="none" stroke="#191970" d="M1968.7067,-138.7374C2055.1197,-132.0283 2201.4771,-118.7472 2326,-98 2328.7471,-97.5423 2331.5494,-97.0417 2334.3749,-96.5097"/>
<polygon fill="#191970" stroke="#191970" points="1968.4321,-135.2481 1958.7294,-139.5035 1968.968,-142.2276 1968.4321,-135.2481"/>
</g>
<!-- Node68 -->
<g id="node21" class="node">
<title>Node68</title>
<g id="a_node21"><a xlink:href="TPacketizerAdaptive_8cxx.html" target="_top" xlink:title="proof/proofplayer/src\l/TPacketizerAdaptive.cxx">
<polygon fill="#ffffff" stroke="#000000" points="2472,-67.5 2472,-97.5 2612,-97.5 2612,-67.5 2472,-67.5"/>
<text text-anchor="start" x="2480" y="-85.5" font-family="Helvetica,sans-Serif" font-size="10.00" fill="#000000">proof/proofplayer/src</text>
<text text-anchor="middle" x="2542" y="-74.5" font-family="Helvetica,sans-Serif" font-size="10.00" fill="#000000">/TPacketizerAdaptive.cxx</text>
</a>
</g>
</g>
<!-- Node48&#45;&gt;Node68 -->
<g id="edge20" class="edge">
<title>Node48&#45;&gt;Node68</title>
<path fill="none" stroke="#191970" d="M1968.9262,-140.6466C2078.0245,-135.152 2286.8131,-122.3265 2463,-98 2465.9075,-97.5985 2468.8697,-97.1587 2471.8578,-96.6893"/>
<polygon fill="#191970" stroke="#191970" points="1968.4979,-137.1635 1958.6839,-141.1556 1968.8454,-144.1549 1968.4979,-137.1635"/>
</g>
<!-- Node69 -->
<g id="node22" class="node">
<title>Node69</title>
<g id="a_node22"><a xlink:href="TPacketizerFile_8cxx.html" target="_top" xlink:title="proof/proofplayer/src\l/TPacketizerFile.cxx">
<polygon fill="#ffffff" stroke="#000000" points="2630.5,-67.5 2630.5,-97.5 2749.5,-97.5 2749.5,-67.5 2630.5,-67.5"/>
<text text-anchor="start" x="2638.5" y="-85.5" font-family="Helvetica,sans-Serif" font-size="10.00" fill="#000000">proof/proofplayer/src</text>
<text text-anchor="middle" x="2690" y="-74.5" font-family="Helvetica,sans-Serif" font-size="10.00" fill="#000000">/TPacketizerFile.cxx</text>
</a>
</g>
</g>
<!-- Node48&#45;&gt;Node69 -->
<g id="edge21" class="edge">
<title>Node48&#45;&gt;Node69</title>
<path fill="none" stroke="#191970" d="M1968.5479,-143.1546C2100.6659,-140.7961 2384.2916,-131.8596 2621,-98 2624.0385,-97.5654 2627.1416,-97.0678 2630.2676,-96.5237"/>
<polygon fill="#191970" stroke="#191970" points="1968.4726,-139.6553 1958.534,-143.3258 1968.5924,-146.6542 1968.4726,-139.6553"/>
</g>
<!-- Node70 -->
<g id="node23" class="node">
<title>Node70</title>
<g id="a_node23"><a xlink:href="TPacketizerMulti_8cxx.html" target="_top" xlink:title="proof/proofplayer/src\l/TPacketizerMulti.cxx">
<polygon fill="#ffffff" stroke="#000000" points="2768,-67.5 2768,-97.5 2888,-97.5 2888,-67.5 2768,-67.5"/>
<text text-anchor="start" x="2776" y="-85.5" font-family="Helvetica,sans-Serif" font-size="10.00" fill="#000000">proof/proofplayer/src</text>
<text text-anchor="middle" x="2828" y="-74.5" font-family="Helvetica,sans-Serif" font-size="10.00" fill="#000000">/TPacketizerMulti.cxx</text>
</a>
</g>
</g>
<!-- Node48&#45;&gt;Node70 -->
<g id="edge22" class="edge">
<title>Node48&#45;&gt;Node70</title>
<path fill="none" stroke="#191970" d="M1968.9617,-141.6316C2150.0149,-135.6499 2607.381,-118.9104 2759,-98 2761.919,-97.5974 2764.8972,-97.1341 2767.8977,-96.625"/>
<polygon fill="#191970" stroke="#191970" points="1968.6138,-138.141 1958.7342,-141.9677 1968.8438,-145.1372 1968.6138,-138.141"/>
</g>
<!-- Node71 -->
<g id="node24" class="node">
<title>Node71</title>
<g id="a_node24"><a xlink:href="TPacketizerUnit_8cxx.html" target="_top" xlink:title="proof/proofplayer/src\l/TPacketizerUnit.cxx">
<polygon fill="#ffffff" stroke="#000000" points="2906.5,-67.5 2906.5,-97.5 3025.5,-97.5 3025.5,-67.5 2906.5,-67.5"/>
<text text-anchor="start" x="2914.5" y="-85.5" font-family="Helvetica,sans-Serif" font-size="10.00" fill="#000000">proof/proofplayer/src</text>
<text text-anchor="middle" x="2966" y="-74.5" font-family="Helvetica,sans-Serif" font-size="10.00" fill="#000000">/TPacketizerUnit.cxx</text>
</a>
</g>
</g>
<!-- Node48&#45;&gt;Node71 -->
<g id="edge23" class="edge">
<title>Node48&#45;&gt;Node71</title>
<path fill="none" stroke="#191970" d="M1968.6533,-142.2725C2169.3878,-137.3562 2717.6343,-122.0703 2897,-98 2900.0422,-97.5918 2903.1482,-97.1154 2906.2766,-96.5882"/>
<polygon fill="#191970" stroke="#191970" points="1968.4136,-138.7772 1958.5017,-142.5195 1968.584,-145.7751 1968.4136,-138.7772"/>
</g>
<!-- Node72 -->
<g id="node25" class="node">
<title>Node72</title>
<g id="a_node25"><a xlink:href="TPerfStats_8cxx.html" target="_top" xlink:title="proof/proofplayer/src\l/TPerfStats.cxx">
<polygon fill="#ffffff" stroke="#000000" points="3043.5,-67.5 3043.5,-97.5 3162.5,-97.5 3162.5,-67.5 3043.5,-67.5"/>
<text text-anchor="start" x="3051.5" y="-85.5" font-family="Helvetica,sans-Serif" font-size="10.00" fill="#000000">proof/proofplayer/src</text>
<text text-anchor="middle" x="3103" y="-74.5" font-family="Helvetica,sans-Serif" font-size="10.00" fill="#000000">/TPerfStats.cxx</text>
</a>
</g>
</g>
<!-- Node48&#45;&gt;Node72 -->
<g id="edge24" class="edge">
<title>Node48&#45;&gt;Node72</title>
<path fill="none" stroke="#191970" d="M1968.842,-142.7792C2188.3274,-138.9142 2827.887,-125.5416 3035,-98 3037.7606,-97.6329 3040.5741,-97.2066 3043.4086,-96.7348"/>
<polygon fill="#191970" stroke="#191970" points="1968.6486,-139.282 1958.7112,-142.9561 1968.7709,-146.2809 1968.6486,-139.282"/>
</g>
<!-- Node73 -->
<g id="node26" class="node">
<title>Node73</title>
<g id="a_node26"><a xlink:href="TProofMonSenderML_8cxx.html" target="_top" xlink:title="proof/proofplayer/src\l/TProofMonSenderML.cxx">
<polygon fill="#ffffff" stroke="#000000" points="3180.5,-67.5 3180.5,-97.5 3319.5,-97.5 3319.5,-67.5 3180.5,-67.5"/>
<text text-anchor="start" x="3188.5" y="-85.5" font-family="Helvetica,sans-Serif" font-size="10.00" fill="#000000">proof/proofplayer/src</text>
<text text-anchor="middle" x="3250" y="-74.5" font-family="Helvetica,sans-Serif" font-size="10.00" fill="#000000">/TProofMonSenderML.cxx</text>
</a>
</g>
</g>
<!-- Node48&#45;&gt;Node73 -->
<g id="edge25" class="edge">
<title>Node48&#45;&gt;Node73</title>
<path fill="none" stroke="#191970" d="M1969.0802,-142.8778C2206.1235,-139.0859 2936.7787,-125.4255 3172,-98 3174.7427,-97.6802 3177.5329,-97.3158 3180.3465,-96.9157"/>
<polygon fill="#191970" stroke="#191970" points="1968.7821,-139.382 1958.8389,-143.0404 1968.8932,-146.3812 1968.7821,-139.382"/>
</g>
<!-- Node74 -->
<g id="node27" class="node">
<title>Node74</title>
<g id="a_node27"><a xlink:href="TProofMonSenderSQL_8cxx.html" target="_top" xlink:title="proof/proofplayer/src\l/TProofMonSenderSQL.cxx">
<polygon fill="#ffffff" stroke="#000000" points="3338,-67.5 3338,-97.5 3482,-97.5 3482,-67.5 3338,-67.5"/>
<text text-anchor="start" x="3346" y="-85.5" font-family="Helvetica,sans-Serif" font-size="10.00" fill="#000000">proof/proofplayer/src</text>
<text text-anchor="middle" x="3410" y="-74.5" font-family="Helvetica,sans-Serif" font-size="10.00" fill="#000000">/TProofMonSenderSQL.cxx</text>
</a>
</g>
</g>
<!-- Node48&#45;&gt;Node74 -->
<g id="edge26" class="edge">
<title>Node48&#45;&gt;Node74</title>
<path fill="none" stroke="#191970" d="M1968.9747,-143.1521C2224.7024,-140.0165 3061.5883,-127.6857 3329,-98 3331.846,-97.6841 3334.7418,-97.3229 3337.6621,-96.9255"/>
<polygon fill="#191970" stroke="#191970" points="1968.6352,-139.6559 1958.6785,-143.2772 1968.7203,-146.6554 1968.6352,-139.6559"/>
</g>
<!-- Node75 -->
<g id="node28" class="node">
<title>Node75</title>
<g id="a_node28"><a xlink:href="TVirtualPacketizer_8cxx.html" target="_top" xlink:title="proof/proofplayer/src\l/TVirtualPacketizer.cxx">
<polygon fill="#ffffff" stroke="#000000" points="3500,-67.5 3500,-97.5 3628,-97.5 3628,-67.5 3500,-67.5"/>
<text text-anchor="start" x="3508" y="-85.5" font-family="Helvetica,sans-Serif" font-size="10.00" fill="#000000">proof/proofplayer/src</text>
<text text-anchor="middle" x="3564" y="-74.5" font-family="Helvetica,sans-Serif" font-size="10.00" fill="#000000">/TVirtualPacketizer.cxx</text>
</a>
</g>
</g>
<!-- Node48&#45;&gt;Node75 -->
<g id="edge29" class="edge">
<title>Node48&#45;&gt;Node75</title>
<path fill="none" stroke="#191970" d="M1969.006,-143.6346C2243.1844,-142.0191 3190.7054,-133.9074 3491,-98 3493.8302,-97.6616 3496.7131,-97.2669 3499.6187,-96.828"/>
<polygon fill="#191970" stroke="#191970" points="1968.7457,-140.1359 1958.7662,-143.6937 1968.7862,-147.1358 1968.7457,-140.1359"/>
</g>
<!-- Node76 -->
<g id="node29" class="node">
<title>Node76</title>
<g id="a_node29"><a xlink:href="RooStudyPackage_8cxx.html" target="_top" xlink:title=" &#160;">
<polygon fill="#ffffff" stroke="#000000" points="3646,-67.5 3646,-97.5 3772,-97.5 3772,-67.5 3646,-67.5"/>
<text text-anchor="start" x="3654" y="-85.5" font-family="Helvetica,sans-Serif" font-size="10.00" fill="#000000">roofit/roofitcore/src</text>
<text text-anchor="middle" x="3709" y="-74.5" font-family="Helvetica,sans-Serif" font-size="10.00" fill="#000000">/RooStudyPackage.cxx</text>
</a>
</g>
</g>
<!-- Node48&#45;&gt;Node76 -->
<g id="edge30" class="edge">
<title>Node48&#45;&gt;Node76</title>
<path fill="none" stroke="#191970" d="M1968.8093,-142.8455C2280.8341,-137.9184 3470.1117,-117.9901 3637,-98 3639.92,-97.6502 3642.8965,-97.2382 3645.8957,-96.7779"/>
<polygon fill="#191970" stroke="#191970" points="1968.4633,-139.3504 1958.5197,-143.0075 1968.5736,-146.3495 1968.4633,-139.3504"/>
</g>
<!-- Node53 -->
<g id="node6" class="node">
<title>Node53</title>
<g id="a_node6"><a xlink:href="TDSetProxy_8cxx.html" target="_top" xlink:title="proof/proof/src/TDSetProxy.cxx">
<polygon fill="#ffffff" stroke="#000000" points="183.5,-6 183.5,-25 350.5,-25 350.5,-6 183.5,-6"/>
<text text-anchor="middle" x="267" y="-13" font-family="Helvetica,sans-Serif" font-size="10.00" fill="#000000">proof/proof/src/TDSetProxy.cxx</text>
</a>
</g>
</g>
<!-- Node52&#45;&gt;Node53 -->
<g id="edge5" class="edge">
<title>Node52&#45;&gt;Node53</title>
<path fill="none" stroke="#191970" d="M504.0217,-70.6405C448.2392,-57.6633 359.8985,-37.1118 308.2825,-25.1039"/>
<polygon fill="#191970" stroke="#191970" points="503.5095,-74.1147 514.0425,-72.9717 505.0957,-67.2968 503.5095,-74.1147"/>
</g>
<!-- Node54 -->
<g id="node7" class="node">
<title>Node54</title>
<g id="a_node7"><a xlink:href="TProofServ_8cxx.html" target="_top" xlink:title="proof/proof/src/TProofServ.cxx">
<polygon fill="#ffffff" stroke="#000000" points="369,-6 369,-25 533,-25 533,-6 369,-6"/>
<text text-anchor="middle" x="451" y="-13" font-family="Helvetica,sans-Serif" font-size="10.00" fill="#000000">proof/proof/src/TProofServ.cxx</text>
</a>
</g>
</g>
<!-- Node52&#45;&gt;Node54 -->
<g id="edge6" class="edge">
<title>Node52&#45;&gt;Node54</title>
<path fill="none" stroke="#191970" d="M531.502,-67.3619C511.3755,-54.3957 483.0056,-36.119 465.873,-25.0817"/>
<polygon fill="#191970" stroke="#191970" points="529.7973,-70.427 540.0993,-72.9005 533.5883,-64.5425 529.7973,-70.427"/>
</g>
<!-- Node52&#45;&gt;Node55 -->
<g id="edge7" class="edge">
<title>Node52&#45;&gt;Node55</title>
<path fill="none" stroke="#191970" d="M569.5915,-65.0423C578.5451,-54.33 589.8932,-40.7528 598.4445,-30.5218"/>
<polygon fill="#191970" stroke="#191970" points="566.7511,-62.9831 563.0234,-72.9005 572.1221,-67.4723 566.7511,-62.9831"/>
</g>
<!-- Node52&#45;&gt;Node56 -->
<g id="edge8" class="edge">
<title>Node52&#45;&gt;Node56</title>
<path fill="none" stroke="#191970" d="M592.3371,-69.6052C624.6759,-58.4367 671.4805,-42.2722 705.5041,-30.5218"/>
<polygon fill="#191970" stroke="#191970" points="591.1051,-66.3278 582.7955,-72.9005 593.3902,-72.9443 591.1051,-66.3278"/>
</g>
</g>
</svg>
