<?xml version="1.0" encoding="UTF-8" standalone="no"?>
<!DOCTYPE svg PUBLIC "-//W3C//DTD SVG 1.1//EN"
 "http://www.w3.org/Graphics/SVG/1.1/DTD/svg11.dtd">
<!-- Generated by graphviz version 2.40.1 (0)
 -->
<!-- Title: graf2d/graf/inc/TEllipse.h Pages: 1 -->
<svg width="2451pt" height="218pt"
 viewBox="0.00 0.00 2451.00 218.00" xmlns="http://www.w3.org/2000/svg" xmlns:xlink="http://www.w3.org/1999/xlink">
<g id="graph0" class="graph" transform="scale(1 1) rotate(0) translate(4 214)">
<title>graf2d/graf/inc/TEllipse.h</title>
<polygon fill="#ffffff" stroke="transparent" points="-4,4 -4,-214 2447,-214 2447,4 -4,4"/>
<!-- Node31 -->
<g id="node1" class="node">
<title>Node31</title>
<polygon fill="#bfbfbf" stroke="#000000" points="1753.5,-190.5 1753.5,-209.5 1891.5,-209.5 1891.5,-190.5 1753.5,-190.5"/>
<text text-anchor="middle" x="1822.5" y="-197.5" font-family="Helvetica,sans-Serif" font-size="10.00" fill="#000000">graf2d/graf/inc/TEllipse.h</text>
</g>
<!-- Node32 -->
<g id="node2" class="node">
<title>Node32</title>
<g id="a_node2"><a xlink:href="TArc_8h.html" target="_top" xlink:title="graf2d/graf/inc/TArc.h">
<polygon fill="#ffffff" stroke="#000000" points="660,-129 660,-148 781,-148 781,-129 660,-129"/>
<text text-anchor="middle" x="720.5" y="-136" font-family="Helvetica,sans-Serif" font-size="10.00" fill="#000000">graf2d/graf/inc/TArc.h</text>
</a>
</g>
</g>
<!-- Node31&#45;&gt;Node32 -->
<g id="edge1" class="edge">
<title>Node31&#45;&gt;Node32</title>
<path fill="none" stroke="#191970" d="M1743.1314,-195.5706C1533.3728,-183.8645 967.6438,-152.2925 781.0916,-141.8815"/>
<polygon fill="#191970" stroke="#191970" points="1742.968,-199.0669 1753.1475,-196.1296 1743.3581,-192.0777 1742.968,-199.0669"/>
</g>
<!-- Node41 -->
<g id="node11" class="node">
<title>Node41</title>
<g id="a_node11"><a xlink:href="TCrown_8h.html" target="_top" xlink:title="graf2d/graf/inc/TCrown.h">
<polygon fill="#ffffff" stroke="#000000" points="1110.5,-129 1110.5,-148 1246.5,-148 1246.5,-129 1110.5,-129"/>
<text text-anchor="middle" x="1178.5" y="-136" font-family="Helvetica,sans-Serif" font-size="10.00" fill="#000000">graf2d/graf/inc/TCrown.h</text>
</a>
</g>
</g>
<!-- Node31&#45;&gt;Node41 -->
<g id="edge10" class="edge">
<title>Node31&#45;&gt;Node41</title>
<path fill="none" stroke="#191970" d="M1743.2459,-196.5184C1633.3286,-191.0199 1428.5771,-178.3546 1255.5,-154 1244.2924,-152.4229 1232.2581,-150.2391 1221.1114,-148.0079"/>
<polygon fill="#191970" stroke="#191970" points="1743.0988,-200.0153 1753.2592,-197.0126 1743.4439,-193.0238 1743.0988,-200.0153"/>
</g>
<!-- Node44 -->
<g id="node14" class="node">
<title>Node44</title>
<g id="a_node14"><a xlink:href="TEllipse_8cxx.html" target="_top" xlink:title="graf2d/graf/src/TEllipse.cxx">
<polygon fill="#ffffff" stroke="#000000" points="1265,-129 1265,-148 1414,-148 1414,-129 1265,-129"/>
<text text-anchor="middle" x="1339.5" y="-136" font-family="Helvetica,sans-Serif" font-size="10.00" fill="#000000">graf2d/graf/src/TEllipse.cxx</text>
</a>
</g>
</g>
<!-- Node31&#45;&gt;Node44 -->
<g id="edge13" class="edge">
<title>Node31&#45;&gt;Node44</title>
<path fill="none" stroke="#191970" d="M1743.3919,-192.4739C1662.7382,-184.4269 1534.1065,-170.5612 1423.5,-154 1412.0605,-152.2872 1399.7938,-150.1791 1388.2661,-148.0758"/>
<polygon fill="#191970" stroke="#191970" points="1743.1753,-195.9695 1753.4721,-193.4742 1743.8667,-189.0037 1743.1753,-195.9695"/>
</g>
<!-- Node45 -->
<g id="node15" class="node">
<title>Node45</title>
<g id="a_node15"><a xlink:href="TGraphPolargram_8cxx.html" target="_top" xlink:title="graf2d/graf/src/TGraphPolargram.cxx">
<polygon fill="#ffffff" stroke="#000000" points="1432,-129 1432,-148 1629,-148 1629,-129 1432,-129"/>
<text text-anchor="middle" x="1530.5" y="-136" font-family="Helvetica,sans-Serif" font-size="10.00" fill="#000000">graf2d/graf/src/TGraphPolargram.cxx</text>
</a>
</g>
</g>
<!-- Node31&#45;&gt;Node45 -->
<g id="edge14" class="edge">
<title>Node31&#45;&gt;Node45</title>
<path fill="none" stroke="#191970" d="M1767.2002,-188.3529C1711.7946,-176.6836 1627.5307,-158.9363 1575.9109,-148.0643"/>
<polygon fill="#191970" stroke="#191970" points="1766.6887,-191.8219 1777.1954,-190.4581 1768.1314,-184.9722 1766.6887,-191.8219"/>
</g>
<!-- Node46 -->
<g id="node16" class="node">
<title>Node46</title>
<g id="a_node16"><a xlink:href="TGraphNode_8cxx.html" target="_top" xlink:title="graf2d/gviz/src/TGraphNode.cxx">
<polygon fill="#ffffff" stroke="#000000" points="1647,-129 1647,-148 1820,-148 1820,-129 1647,-129"/>
<text text-anchor="middle" x="1733.5" y="-136" font-family="Helvetica,sans-Serif" font-size="10.00" fill="#000000">graf2d/gviz/src/TGraphNode.cxx</text>
</a>
</g>
</g>
<!-- Node31&#45;&gt;Node46 -->
<g id="edge15" class="edge">
<title>Node31&#45;&gt;Node46</title>
<path fill="none" stroke="#191970" d="M1800.0236,-184.4685C1783.4322,-173.0037 1761.3794,-157.765 1747.3086,-148.0419"/>
<polygon fill="#191970" stroke="#191970" points="1798.3771,-187.5851 1808.5938,-190.3906 1802.3565,-181.8263 1798.3771,-187.5851"/>
</g>
<!-- Node47 -->
<g id="node17" class="node">
<title>Node47</title>
<g id="a_node17"><a xlink:href="TSpectrum2Painter_8cxx.html" target="_top" xlink:title="hist/spectrumpainter\l/src/TSpectrum2Painter.cxx">
<polygon fill="#ffffff" stroke="#000000" points="1838,-123.5 1838,-153.5 1987,-153.5 1987,-123.5 1838,-123.5"/>
<text text-anchor="start" x="1846" y="-141.5" font-family="Helvetica,sans-Serif" font-size="10.00" fill="#000000">hist/spectrumpainter</text>
<text text-anchor="middle" x="1912.5" y="-130.5" font-family="Helvetica,sans-Serif" font-size="10.00" fill="#000000">/src/TSpectrum2Painter.cxx</text>
</a>
</g>
</g>
<!-- Node31&#45;&gt;Node47 -->
<g id="edge16" class="edge">
<title>Node31&#45;&gt;Node47</title>
<path fill="none" stroke="#191970" d="M1845.0602,-184.5839C1858.9563,-175.0882 1876.6892,-162.9707 1890.4835,-153.5446"/>
<polygon fill="#191970" stroke="#191970" points="1842.8443,-181.8589 1836.5625,-190.3906 1846.7936,-187.6384 1842.8443,-181.8589"/>
</g>
<!-- Node48 -->
<g id="node18" class="node">
<title>Node48</title>
<g id="a_node18"><a xlink:href="network_8h.html" target="_top" xlink:title="tmva/tmvagui/inc/TMVA\l/network.h">
<polygon fill="#ffffff" stroke="#000000" points="2005,-123.5 2005,-153.5 2138,-153.5 2138,-123.5 2005,-123.5"/>
<text text-anchor="start" x="2013" y="-141.5" font-family="Helvetica,sans-Serif" font-size="10.00" fill="#000000">tmva/tmvagui/inc/TMVA</text>
<text text-anchor="middle" x="2071.5" y="-130.5" font-family="Helvetica,sans-Serif" font-size="10.00" fill="#000000">/network.h</text>
</a>
</g>
</g>
<!-- Node31&#45;&gt;Node48 -->
<g id="edge17" class="edge">
<title>Node31&#45;&gt;Node48</title>
<path fill="none" stroke="#191970" d="M1870.8828,-188.05C1910.7362,-178.2067 1967.4763,-164.1926 2010.4508,-153.5784"/>
<polygon fill="#191970" stroke="#191970" points="1870.0021,-184.6623 1861.133,-190.4581 1871.6806,-191.4581 1870.0021,-184.6623"/>
</g>
<!-- Node51 -->
<g id="node21" class="node">
<title>Node51</title>
<g id="a_node21"><a xlink:href="network_8cxx.html" target="_top" xlink:title="tmva/tmvagui/src/network.cxx">
<polygon fill="#ffffff" stroke="#000000" points="2091.5,-62 2091.5,-81 2257.5,-81 2257.5,-62 2091.5,-62"/>
<text text-anchor="middle" x="2174.5" y="-69" font-family="Helvetica,sans-Serif" font-size="10.00" fill="#000000">tmva/tmvagui/src/network.cxx</text>
</a>
</g>
</g>
<!-- Node31&#45;&gt;Node51 -->
<g id="edge22" class="edge">
<title>Node31&#45;&gt;Node51</title>
<path fill="none" stroke="#191970" d="M1902.068,-193.1377C1992.1793,-184.6855 2128.9699,-169.5305 2147.5,-154 2169.5609,-135.5103 2173.7325,-98.6866 2174.4287,-81.179"/>
<polygon fill="#191970" stroke="#191970" points="1901.5005,-189.6753 1891.8669,-194.0847 1902.1476,-196.6453 1901.5005,-189.6753"/>
</g>
<!-- Node52 -->
<g id="node22" class="node">
<title>Node52</title>
<g id="a_node22"><a xlink:href="fitEllipseTGraphDLSF_8cxx.html" target="_top" xlink:title="tutorials/fit/fitEllipse\lTGraphDLSF.cxx">
<polygon fill="#ffffff" stroke="#000000" points="2195,-123.5 2195,-153.5 2310,-153.5 2310,-123.5 2195,-123.5"/>
<text text-anchor="start" x="2203" y="-141.5" font-family="Helvetica,sans-Serif" font-size="10.00" fill="#000000">tutorials/fit/fitEllipse</text>
<text text-anchor="middle" x="2252.5" y="-130.5" font-family="Helvetica,sans-Serif" font-size="10.00" fill="#000000">TGraphDLSF.cxx</text>
</a>
</g>
</g>
<!-- Node31&#45;&gt;Node52 -->
<g id="edge23" class="edge">
<title>Node31&#45;&gt;Node52</title>
<path fill="none" stroke="#191970" d="M1901.7285,-191.7588C1974.4623,-183.7339 2085.0887,-170.3698 2180.5,-154 2185.1628,-153.2 2189.9818,-152.3075 2194.8145,-151.3658"/>
<polygon fill="#191970" stroke="#191970" points="1901.2815,-188.2867 1891.7224,-192.8555 1902.0442,-195.2451 1901.2815,-188.2867"/>
</g>
<!-- Node53 -->
<g id="node23" class="node">
<title>Node53</title>
<g id="a_node23"><a xlink:href="fitEllipseTGraphRMM_8cxx.html" target="_top" xlink:title="tutorials/fit/fitEllipse\lTGraphRMM.cxx">
<polygon fill="#ffffff" stroke="#000000" points="2328,-123.5 2328,-153.5 2443,-153.5 2443,-123.5 2328,-123.5"/>
<text text-anchor="start" x="2336" y="-141.5" font-family="Helvetica,sans-Serif" font-size="10.00" fill="#000000">tutorials/fit/fitEllipse</text>
<text text-anchor="middle" x="2385.5" y="-130.5" font-family="Helvetica,sans-Serif" font-size="10.00" fill="#000000">TGraphRMM.cxx</text>
</a>
</g>
</g>
<!-- Node31&#45;&gt;Node53 -->
<g id="edge24" class="edge">
<title>Node31&#45;&gt;Node53</title>
<path fill="none" stroke="#191970" d="M1901.7891,-196.0523C2000.2415,-190.373 2173.0863,-177.8506 2319.5,-154 2322.1719,-153.5648 2324.8964,-153.0826 2327.6426,-152.5655"/>
<polygon fill="#191970" stroke="#191970" points="1901.4061,-192.5684 1891.6206,-196.6298 1901.803,-199.5571 1901.4061,-192.5684"/>
</g>
<!-- Node33 -->
<g id="node3" class="node">
<title>Node33</title>
<g id="a_node3"><a xlink:href="TCreatePrimitives_8h.html" target="_top" xlink:title="graf2d/gpad/inc/TCreatePrimitives.h">
<polygon fill="#ffffff" stroke="#000000" points="100,-62 100,-81 291,-81 291,-62 100,-62"/>
<text text-anchor="middle" x="195.5" y="-69" font-family="Helvetica,sans-Serif" font-size="10.00" fill="#000000">graf2d/gpad/inc/TCreatePrimitives.h</text>
</a>
</g>
</g>
<!-- Node32&#45;&gt;Node33 -->
<g id="edge2" class="edge">
<title>Node32&#45;&gt;Node33</title>
<path fill="none" stroke="#191970" d="M649.6219,-130.4044C565.8918,-120.7078 422.4294,-103.6765 299.5,-87 285.933,-85.1595 271.3891,-83.0671 257.605,-81.0283"/>
<polygon fill="#191970" stroke="#191970" points="649.4454,-133.9072 659.7812,-131.5788 650.2494,-126.9535 649.4454,-133.9072"/>
</g>
<!-- Node36 -->
<g id="node6" class="node">
<title>Node36</title>
<g id="a_node6"><a xlink:href="TColorWheel_8cxx.html" target="_top" xlink:title="graf2d/gpad/src/TColorWheel.cxx">
<polygon fill="#ffffff" stroke="#000000" points="309,-62 309,-81 486,-81 486,-62 309,-62"/>
<text text-anchor="middle" x="397.5" y="-69" font-family="Helvetica,sans-Serif" font-size="10.00" fill="#000000">graf2d/gpad/src/TColorWheel.cxx</text>
</a>
</g>
</g>
<!-- Node32&#45;&gt;Node36 -->
<g id="edge5" class="edge">
<title>Node32&#45;&gt;Node36</title>
<path fill="none" stroke="#191970" d="M664.4755,-126.8788C601.8901,-113.8967 501.7441,-93.1234 443.5377,-81.0496"/>
<polygon fill="#191970" stroke="#191970" points="664.0625,-130.3676 674.565,-128.9717 665.4843,-123.5135 664.0625,-130.3676"/>
</g>
<!-- Node37 -->
<g id="node7" class="node">
<title>Node37</title>
<g id="a_node7"><a xlink:href="TArc_8cxx.html" target="_top" xlink:title="graf2d/graf/src/TArc.cxx">
<polygon fill="#ffffff" stroke="#000000" points="504.5,-62 504.5,-81 636.5,-81 636.5,-62 504.5,-62"/>
<text text-anchor="middle" x="570.5" y="-69" font-family="Helvetica,sans-Serif" font-size="10.00" fill="#000000">graf2d/graf/src/TArc.cxx</text>
</a>
</g>
</g>
<!-- Node32&#45;&gt;Node37 -->
<g id="edge6" class="edge">
<title>Node32&#45;&gt;Node37</title>
<path fill="none" stroke="#191970" d="M689.6993,-124.7424C660.5501,-111.7224 617.5524,-92.5167 591.9515,-81.0817"/>
<polygon fill="#191970" stroke="#191970" points="688.4506,-128.0179 699.0087,-128.9005 691.3055,-121.6265 688.4506,-128.0179"/>
</g>
<!-- Node38 -->
<g id="node8" class="node">
<title>Node38</title>
<g id="a_node8"><a xlink:href="TPie_8cxx.html" target="_top" xlink:title="graf2d/graf/src/TPie.cxx">
<polygon fill="#ffffff" stroke="#000000" points="654.5,-62 654.5,-81 786.5,-81 786.5,-62 654.5,-62"/>
<text text-anchor="middle" x="720.5" y="-69" font-family="Helvetica,sans-Serif" font-size="10.00" fill="#000000">graf2d/graf/src/TPie.cxx</text>
</a>
</g>
</g>
<!-- Node32&#45;&gt;Node38 -->
<g id="edge7" class="edge">
<title>Node32&#45;&gt;Node38</title>
<path fill="none" stroke="#191970" d="M720.5,-118.6079C720.5,-106.214 720.5,-90.8263 720.5,-81.0817"/>
<polygon fill="#191970" stroke="#191970" points="717.0001,-118.9005 720.5,-128.9005 724.0001,-118.9006 717.0001,-118.9005"/>
</g>
<!-- Node39 -->
<g id="node9" class="node">
<title>Node39</title>
<g id="a_node9"><a xlink:href="TPieSlice_8cxx.html" target="_top" xlink:title="graf2d/graf/src/TPieSlice.cxx">
<polygon fill="#ffffff" stroke="#000000" points="805,-62 805,-81 960,-81 960,-62 805,-62"/>
<text text-anchor="middle" x="882.5" y="-69" font-family="Helvetica,sans-Serif" font-size="10.00" fill="#000000">graf2d/graf/src/TPieSlice.cxx</text>
</a>
</g>
</g>
<!-- Node32&#45;&gt;Node39 -->
<g id="edge8" class="edge">
<title>Node32&#45;&gt;Node39</title>
<path fill="none" stroke="#191970" d="M753.355,-124.9118C784.8417,-111.8895 831.5632,-92.5664 859.3324,-81.0817"/>
<polygon fill="#191970" stroke="#191970" points="751.6139,-121.8443 743.7107,-128.9005 754.2892,-128.3129 751.6139,-121.8443"/>
</g>
<!-- Node40 -->
<g id="node10" class="node">
<title>Node40</title>
<g id="a_node10"><a xlink:href="TSpider_8cxx.html" target="_top" xlink:title="tree/treeviewer/src\l/TSpider.cxx">
<polygon fill="#ffffff" stroke="#000000" points="978,-56.5 978,-86.5 1087,-86.5 1087,-56.5 978,-56.5"/>
<text text-anchor="start" x="986" y="-74.5" font-family="Helvetica,sans-Serif" font-size="10.00" fill="#000000">tree/treeviewer/src</text>
<text text-anchor="middle" x="1032.5" y="-63.5" font-family="Helvetica,sans-Serif" font-size="10.00" fill="#000000">/TSpider.cxx</text>
</a>
</g>
</g>
<!-- Node32&#45;&gt;Node40 -->
<g id="edge9" class="edge">
<title>Node32&#45;&gt;Node40</title>
<path fill="none" stroke="#191970" d="M778.6519,-126.9858C828.9846,-116.8857 903.6777,-101.576 968.5,-87 971.5115,-86.3228 974.5997,-85.6161 977.7149,-84.8935"/>
<polygon fill="#191970" stroke="#191970" points="777.7253,-123.6018 768.6072,-128.9972 779.0998,-130.4655 777.7253,-123.6018"/>
</g>
<!-- Node34 -->
<g id="node4" class="node">
<title>Node34</title>
<g id="a_node4"><a xlink:href="TCreatePrimitives_8cxx.html" target="_top" xlink:title="graf2d/gpad/src/TCreatePrimitives.cxx">
<polygon fill="#ffffff" stroke="#000000" points="0,-.5 0,-19.5 203,-19.5 203,-.5 0,-.5"/>
<text text-anchor="middle" x="101.5" y="-7.5" font-family="Helvetica,sans-Serif" font-size="10.00" fill="#000000">graf2d/gpad/src/TCreatePrimitives.cxx</text>
</a>
</g>
</g>
<!-- Node33&#45;&gt;Node34 -->
<g id="edge3" class="edge">
<title>Node33&#45;&gt;Node34</title>
<path fill="none" stroke="#191970" d="M172.2461,-56.286C154.6694,-44.7864 131.0832,-29.355 116.0844,-19.5419"/>
<polygon fill="#191970" stroke="#191970" points="170.5281,-59.3445 180.8125,-61.8906 174.3606,-53.4868 170.5281,-59.3445"/>
</g>
<!-- Node35 -->
<g id="node5" class="node">
<title>Node35</title>
<g id="a_node5"><a xlink:href="TPad_8cxx.html" target="_top" xlink:title="graf2d/gpad/src/TPad.cxx">
<polygon fill="#ffffff" stroke="#000000" points="221,-.5 221,-19.5 360,-19.5 360,-.5 221,-.5"/>
<text text-anchor="middle" x="290.5" y="-7.5" font-family="Helvetica,sans-Serif" font-size="10.00" fill="#000000">graf2d/gpad/src/TPad.cxx</text>
</a>
</g>
</g>
<!-- Node33&#45;&gt;Node35 -->
<g id="edge4" class="edge">
<title>Node33&#45;&gt;Node35</title>
<path fill="none" stroke="#191970" d="M219.0013,-56.286C236.7649,-44.7864 260.6021,-29.355 275.7605,-19.5419"/>
<polygon fill="#191970" stroke="#191970" points="216.8362,-53.5182 210.3438,-61.8906 220.6403,-59.3943 216.8362,-53.5182"/>
</g>
<!-- Node42 -->
<g id="node12" class="node">
<title>Node42</title>
<g id="a_node12"><a xlink:href="TCrown_8cxx.html" target="_top" xlink:title="graf2d/graf/src/TCrown.cxx">
<polygon fill="#ffffff" stroke="#000000" points="1105,-62 1105,-81 1252,-81 1252,-62 1105,-62"/>
<text text-anchor="middle" x="1178.5" y="-69" font-family="Helvetica,sans-Serif" font-size="10.00" fill="#000000">graf2d/graf/src/TCrown.cxx</text>
</a>
</g>
</g>
<!-- Node41&#45;&gt;Node42 -->
<g id="edge11" class="edge">
<title>Node41&#45;&gt;Node42</title>
<path fill="none" stroke="#191970" d="M1178.5,-118.6079C1178.5,-106.214 1178.5,-90.8263 1178.5,-81.0817"/>
<polygon fill="#191970" stroke="#191970" points="1175.0001,-118.9005 1178.5,-128.9005 1182.0001,-118.9006 1175.0001,-118.9005"/>
</g>
<!-- Node43 -->
<g id="node13" class="node">
<title>Node43</title>
<g id="a_node13"><a xlink:href="THistPainter_8cxx.html" target="_top" xlink:title="hist/histpainter/src\l/THistPainter.cxx">
<polygon fill="#ffffff" stroke="#000000" points="1270,-56.5 1270,-86.5 1377,-86.5 1377,-56.5 1270,-56.5"/>
<text text-anchor="start" x="1278" y="-74.5" font-family="Helvetica,sans-Serif" font-size="10.00" fill="#000000">hist/histpainter/src</text>
<text text-anchor="middle" x="1323.5" y="-63.5" font-family="Helvetica,sans-Serif" font-size="10.00" fill="#000000">/THistPainter.cxx</text>
</a>
</g>
</g>
<!-- Node41&#45;&gt;Node43 -->
<g id="edge12" class="edge">
<title>Node41&#45;&gt;Node43</title>
<path fill="none" stroke="#191970" d="M1208.6234,-124.5809C1232.6797,-113.4653 1266.3274,-97.9177 1290.9902,-86.5218"/>
<polygon fill="#191970" stroke="#191970" points="1206.8846,-121.5287 1199.275,-128.9005 1209.8208,-127.8831 1206.8846,-121.5287"/>
</g>
<!-- Node49 -->
<g id="node19" class="node">
<title>Node49</title>
<g id="a_node19"><a xlink:href="MovieMaker_8h.html" target="_top" xlink:title="tmva/tmvagui/inc/TMVA\l/MovieMaker.h">
<polygon fill="#ffffff" stroke="#000000" points="1902,-56.5 1902,-86.5 2035,-86.5 2035,-56.5 1902,-56.5"/>
<text text-anchor="start" x="1910" y="-74.5" font-family="Helvetica,sans-Serif" font-size="10.00" fill="#000000">tmva/tmvagui/inc/TMVA</text>
<text text-anchor="middle" x="1968.5" y="-63.5" font-family="Helvetica,sans-Serif" font-size="10.00" fill="#000000">/MovieMaker.h</text>
</a>
</g>
</g>
<!-- Node48&#45;&gt;Node49 -->
<g id="edge18" class="edge">
<title>Node48&#45;&gt;Node49</title>
<path fill="none" stroke="#191970" d="M2039.6701,-117.7951C2024.2366,-107.7558 2006.0295,-95.9124 1991.8944,-86.7177"/>
<polygon fill="#191970" stroke="#191970" points="2038.0937,-120.945 2048.3848,-123.4639 2041.9107,-115.0772 2038.0937,-120.945"/>
</g>
<!-- Node50 -->
<g id="node20" class="node">
<title>Node50</title>
<g id="a_node20"><a xlink:href="MovieMaker_8cxx.html" target="_top" xlink:title="tmva/tmvagui/src/MovieMaker.cxx">
<polygon fill="#ffffff" stroke="#000000" points="1923,-.5 1923,-19.5 2108,-19.5 2108,-.5 1923,-.5"/>
<text text-anchor="middle" x="2015.5" y="-7.5" font-family="Helvetica,sans-Serif" font-size="10.00" fill="#000000">tmva/tmvagui/src/MovieMaker.cxx</text>
</a>
</g>
</g>
<!-- Node48&#45;&gt;Node50 -->
<g id="edge20" class="edge">
<title>Node48&#45;&gt;Node50</title>
<path fill="none" stroke="#191970" d="M2065.029,-113.4024C2060.3118,-96.7292 2053.2297,-74.5724 2044.5,-56 2038.3154,-42.8424 2029.0772,-28.8687 2022.6973,-19.8222"/>
<polygon fill="#191970" stroke="#191970" points="2061.769,-114.7505 2067.781,-123.4744 2068.5215,-112.9054 2061.769,-114.7505"/>
</g>
<!-- Node48&#45;&gt;Node51 -->
<g id="edge21" class="edge">
<title>Node48&#45;&gt;Node51</title>
<path fill="none" stroke="#191970" d="M2103.202,-117.8783C2122.0398,-105.6246 2145.0462,-90.6593 2159.7358,-81.1039"/>
<polygon fill="#191970" stroke="#191970" points="2101.0893,-115.0772 2094.6152,-123.4639 2104.9063,-120.945 2101.0893,-115.0772"/>
</g>
<!-- Node49&#45;&gt;Node50 -->
<g id="edge19" class="edge">
<title>Node49&#45;&gt;Node50</title>
<path fill="none" stroke="#191970" d="M1986.402,-48.0751C1993.8818,-38.2877 2002.165,-27.449 2007.9747,-19.8469"/>
<polygon fill="#191970" stroke="#191970" points="1983.4092,-46.2271 1980.118,-56.2977 1988.971,-50.4776 1983.4092,-46.2271"/>
</g>
</g>
</svg>
