<?xml version="1.0" encoding="UTF-8" standalone="no"?>
<!DOCTYPE svg PUBLIC "-//W3C//DTD SVG 1.1//EN"
 "http://www.w3.org/Graphics/SVG/1.1/DTD/svg11.dtd">
<!-- Generated by graphviz version 2.40.1 (0)
 -->
<!-- Title: graf3d/eve/inc/TEveArrowEditor.h Pages: 1 -->
<svg width="150pt" height="106pt"
 viewBox="0.00 0.00 150.00 106.00" xmlns="http://www.w3.org/2000/svg" xmlns:xlink="http://www.w3.org/1999/xlink">
<g id="graph0" class="graph" transform="scale(1 1) rotate(0) translate(4 102)">
<title>graf3d/eve/inc/TEveArrowEditor.h</title>
<polygon fill="#ffffff" stroke="transparent" points="-4,4 -4,-102 146,-102 146,4 -4,4"/>
<!-- Node79 -->
<g id="node1" class="node">
<title>Node79</title>
<polygon fill="#bfbfbf" stroke="#000000" points="0,-67.5 0,-97.5 142,-97.5 142,-67.5 0,-67.5"/>
<text text-anchor="start" x="8" y="-85.5" font-family="Helvetica,sans-Serif" font-size="10.00" fill="#000000">graf3d/eve/inc/TEveArrow</text>
<text text-anchor="middle" x="71" y="-74.5" font-family="Helvetica,sans-Serif" font-size="10.00" fill="#000000">Editor.h</text>
</g>
<!-- Node80 -->
<g id="node2" class="node">
<title>Node80</title>
<g id="a_node2"><a xlink:href="TEveArrowEditor_8cxx.html" target="_top" xlink:title="graf3d/eve/src/TEveArrow\lEditor.cxx">
<polygon fill="#ffffff" stroke="#000000" points="0,-.5 0,-30.5 142,-30.5 142,-.5 0,-.5"/>
<text text-anchor="start" x="8" y="-18.5" font-family="Helvetica,sans-Serif" font-size="10.00" fill="#000000">graf3d/eve/src/TEveArrow</text>
<text text-anchor="middle" x="71" y="-7.5" font-family="Helvetica,sans-Serif" font-size="10.00" fill="#000000">Editor.cxx</text>
</a>
</g>
</g>
<!-- Node79&#45;&gt;Node80 -->
<g id="edge1" class="edge">
<title>Node79&#45;&gt;Node80</title>
<path fill="none" stroke="#191970" d="M71,-57.0249C71,-48.128 71,-38.4287 71,-30.6432"/>
<polygon fill="#191970" stroke="#191970" points="67.5001,-57.2966 71,-67.2967 74.5001,-57.2967 67.5001,-57.2966"/>
</g>
</g>
</svg>
