<?xml version="1.0" encoding="UTF-8" standalone="no"?>
<!DOCTYPE svg PUBLIC "-//W3C//DTD SVG 1.1//EN"
 "http://www.w3.org/Graphics/SVG/1.1/DTD/svg11.dtd">
<!-- Generated by graphviz version 2.40.1 (0)
 -->
<!-- Title: graf3d/eve/inc/TEvePlot3D.h Pages: 1 -->
<svg width="302pt" height="95pt"
 viewBox="0.00 0.00 302.00 95.00" xmlns="http://www.w3.org/2000/svg" xmlns:xlink="http://www.w3.org/1999/xlink">
<g id="graph0" class="graph" transform="scale(1 1) rotate(0) translate(4 91)">
<title>graf3d/eve/inc/TEvePlot3D.h</title>
<polygon fill="#ffffff" stroke="transparent" points="-4,4 -4,-91 298,-91 298,4 -4,4"/>
<!-- Node57 -->
<g id="node1" class="node">
<title>Node57</title>
<polygon fill="#bfbfbf" stroke="#000000" points="69.5,-67.5 69.5,-86.5 224.5,-86.5 224.5,-67.5 69.5,-67.5"/>
<text text-anchor="middle" x="147" y="-74.5" font-family="Helvetica,sans-Serif" font-size="10.00" fill="#000000">graf3d/eve/inc/TEvePlot3D.h</text>
</g>
<!-- Node58 -->
<g id="node2" class="node">
<title>Node58</title>
<g id="a_node2"><a xlink:href="TEvePlot3D_8cxx.html" target="_top" xlink:title="graf3d/eve/src/TEvePlot3\lD.cxx">
<polygon fill="#ffffff" stroke="#000000" points="0,-.5 0,-30.5 138,-30.5 138,-.5 0,-.5"/>
<text text-anchor="start" x="8" y="-18.5" font-family="Helvetica,sans-Serif" font-size="10.00" fill="#000000">graf3d/eve/src/TEvePlot3</text>
<text text-anchor="middle" x="69" y="-7.5" font-family="Helvetica,sans-Serif" font-size="10.00" fill="#000000">D.cxx</text>
</a>
</g>
</g>
<!-- Node57&#45;&gt;Node58 -->
<g id="edge1" class="edge">
<title>Node57&#45;&gt;Node58</title>
<path fill="none" stroke="#191970" d="M126.7561,-61.0385C114.8203,-51.6276 99.8083,-39.7911 88.0809,-30.5446"/>
<polygon fill="#191970" stroke="#191970" points="124.7927,-63.9475 134.8125,-67.3906 129.1268,-58.4506 124.7927,-63.9475"/>
</g>
<!-- Node59 -->
<g id="node3" class="node">
<title>Node59</title>
<g id="a_node3"><a xlink:href="TEvePlot3DGL_8cxx.html" target="_top" xlink:title="graf3d/eve/src/TEvePlot3\lDGL.cxx">
<polygon fill="#ffffff" stroke="#000000" points="156,-.5 156,-30.5 294,-30.5 294,-.5 156,-.5"/>
<text text-anchor="start" x="164" y="-18.5" font-family="Helvetica,sans-Serif" font-size="10.00" fill="#000000">graf3d/eve/src/TEvePlot3</text>
<text text-anchor="middle" x="225" y="-7.5" font-family="Helvetica,sans-Serif" font-size="10.00" fill="#000000">DGL.cxx</text>
</a>
</g>
</g>
<!-- Node57&#45;&gt;Node59 -->
<g id="edge2" class="edge">
<title>Node57&#45;&gt;Node59</title>
<path fill="none" stroke="#191970" d="M167.2439,-61.0385C179.1797,-51.6276 194.1917,-39.7911 205.9191,-30.5446"/>
<polygon fill="#191970" stroke="#191970" points="164.8732,-58.4506 159.1875,-67.3906 169.2073,-63.9475 164.8732,-58.4506"/>
</g>
</g>
</svg>
