<?xml version="1.0" encoding="UTF-8" standalone="no"?>
<!DOCTYPE svg PUBLIC "-//W3C//DTD SVG 1.1//EN"
 "http://www.w3.org/Graphics/SVG/1.1/DTD/svg11.dtd">
<!-- Generated by graphviz version 2.40.1 (0)
 -->
<!-- Title: graf3d/eve/inc/TEveChunkManager.h Pages: 1 -->
<!--zoomable 307 -->
<svg id="main" version="1.1" xmlns="http://www.w3.org/2000/svg" xmlns:xlink="http://www.w3.org/1999/xlink" xml:space="preserve" onload="init(evt)">
<style type="text/css"><![CDATA[
.edge:hover path { stroke: red; }
.edge:hover polygon { stroke: red; fill: red; }
]]></style>
<script type="text/javascript"><![CDATA[
var edges = document.getElementsByTagName('g');
if (edges && edges.length) {
  for (var i=0;i<edges.length;i++) {
    if (edges[i].id.substr(0,4)=='edge') {
      edges[i].setAttribute('class','edge');
    }
  }
}
]]></script>
        <defs>
                <circle id="rim" cx="0" cy="0" r="7"/>
                <circle id="rim2" cx="0" cy="0" r="3.5"/>
                <g id="zoomPlus">
                        <use xlink:href="#rim" fill="#404040">
                                <set attributeName="fill" to="#808080" begin="zoomplus.mouseover" end="zoomplus.mouseout"/>
                        </use>
                        <path d="M-4,0h8M0,-4v8" fill="none" stroke="white" stroke-width="1.5" pointer-events="none"/>
                </g>
                <g id="zoomMin">
                        <use xlink:href="#rim" fill="#404040">
                                <set attributeName="fill" to="#808080" begin="zoomminus.mouseover" end="zoomminus.mouseout"/>
                        </use>
                        <path d="M-4,0h8" fill="none" stroke="white" stroke-width="1.5" pointer-events="none"/>
                </g>
                <g id="dirArrow">
                        <path fill="none" stroke="white" stroke-width="1.5" d="M0,-3.0v7 M-2.5,-0.5L0,-3.0L2.5,-0.5"/>
                </g>
               <g id="resetDef">
                       <use xlink:href="#rim2" fill="#404040">
                               <set attributeName="fill" to="#808080" begin="reset.mouseover" end="reset.mouseout"/>
                       </use>
               </g>
        </defs>

<script type="text/javascript">
var viewWidth = 1916;
var viewHeight = 307;
var sectionId = 'dynsection-1';
</script>
<script xlink:href="svgpan.js"/>
<svg id="graph" class="graph">
<g id="viewport">
<title>graf3d/eve/inc/TEveChunkManager.h</title>
<polygon fill="#ffffff" stroke="transparent" points="-4,4 -4,-303 1911.7351,-303 1911.7351,4 -4,4"/>
<!-- Node54 -->
<g id="node1" class="node">
<title>Node54</title>
<polygon fill="#bfbfbf" stroke="#000000" points="1526.7351,-268.5 1526.7351,-298.5 1670.7351,-298.5 1670.7351,-268.5 1526.7351,-268.5"/>
<text text-anchor="start" x="1534.7351" y="-286.5" font-family="Helvetica,sans-Serif" font-size="10.00" fill="#000000">graf3d/eve/inc/TEveChunk</text>
<text text-anchor="middle" x="1598.7351" y="-275.5" font-family="Helvetica,sans-Serif" font-size="10.00" fill="#000000">Manager.h</text>
</g>
<!-- Node55 -->
<g id="node2" class="node">
<title>Node55</title>
<g id="a_node2"><a xlink:href="TEveDigitSet_8h.html" target="_top" xlink:title="graf3d/eve/inc/TEveDigit\lSet.h">
<polygon fill="#ffffff" stroke="#000000" points="648.2351,-201.5 648.2351,-231.5 785.2351,-231.5 785.2351,-201.5 648.2351,-201.5"/>
<text text-anchor="start" x="656.2351" y="-219.5" font-family="Helvetica,sans-Serif" font-size="10.00" fill="#000000">graf3d/eve/inc/TEveDigit</text>
<text text-anchor="middle" x="716.7351" y="-208.5" font-family="Helvetica,sans-Serif" font-size="10.00" fill="#000000">Set.h</text>
</a>
</g>
</g>
<!-- Node54&#45;&gt;Node55 -->
<g id="edge1" class="edge">
<title>Node54&#45;&gt;Node55</title>
<path fill="none" stroke="#191970" d="M1516.5004,-277.2532C1343.6655,-264.124 945.4936,-233.8773 785.3175,-221.7098"/>
<polygon fill="#191970" stroke="#191970" points="1516.3209,-280.7495 1526.5573,-278.0171 1516.8512,-273.7696 1516.3209,-280.7495"/>
</g>
<!-- Node68 -->
<g id="node15" class="node">
<title>Node68</title>
<g id="a_node15"><a xlink:href="TEveStraightLineSet_8h.html" target="_top" xlink:title="graf3d/eve/inc/TEveStraight\lLineSet.h">
<polygon fill="#ffffff" stroke="#000000" points="1385.7351,-201.5 1385.7351,-231.5 1537.7351,-231.5 1537.7351,-201.5 1385.7351,-201.5"/>
<text text-anchor="start" x="1393.7351" y="-219.5" font-family="Helvetica,sans-Serif" font-size="10.00" fill="#000000">graf3d/eve/inc/TEveStraight</text>
<text text-anchor="middle" x="1461.7351" y="-208.5" font-family="Helvetica,sans-Serif" font-size="10.00" fill="#000000">LineSet.h</text>
</a>
</g>
</g>
<!-- Node54&#45;&gt;Node68 -->
<g id="edge17" class="edge">
<title>Node54&#45;&gt;Node68</title>
<path fill="none" stroke="#191970" d="M1558.9679,-264.0518C1537.9167,-253.7567 1512.4437,-241.2991 1492.8519,-231.7177"/>
<polygon fill="#191970" stroke="#191970" points="1557.4686,-267.2147 1567.9896,-268.4639 1560.544,-260.9264 1557.4686,-267.2147"/>
</g>
<!-- Node70 -->
<g id="node17" class="node">
<title>Node70</title>
<g id="a_node17"><a xlink:href="TEveScalableStraightLineSet_8cxx.html" target="_top" xlink:title="graf3d/eve/src/TEveScalable\lStraightLineSet.cxx">
<polygon fill="#ffffff" stroke="#000000" points="1350.2351,-67.5 1350.2351,-97.5 1505.2351,-97.5 1505.2351,-67.5 1350.2351,-67.5"/>
<text text-anchor="start" x="1358.2351" y="-85.5" font-family="Helvetica,sans-Serif" font-size="10.00" fill="#000000">graf3d/eve/src/TEveScalable</text>
<text text-anchor="middle" x="1427.7351" y="-74.5" font-family="Helvetica,sans-Serif" font-size="10.00" fill="#000000">StraightLineSet.cxx</text>
</a>
</g>
</g>
<!-- Node54&#45;&gt;Node70 -->
<g id="edge24" class="edge">
<title>Node54&#45;&gt;Node70</title>
<path fill="none" stroke="#191970" d="M1635.0535,-263.1304C1682.3149,-234.0777 1754.6319,-179.247 1716.7351,-134 1690.229,-102.3529 1581.5391,-90.1359 1505.2937,-85.4309"/>
<polygon fill="#191970" stroke="#191970" points="1633.0295,-260.2634 1626.2641,-268.4169 1636.6375,-266.262 1633.0295,-260.2634"/>
</g>
<!-- Node74 -->
<g id="node21" class="node">
<title>Node74</title>
<g id="a_node21"><a xlink:href="TEveChunkManager_8cxx.html" target="_top" xlink:title="graf3d/eve/src/TEveChunk\lManager.cxx">
<polygon fill="#ffffff" stroke="#000000" points="1763.7351,-201.5 1763.7351,-231.5 1907.7351,-231.5 1907.7351,-201.5 1763.7351,-201.5"/>
<text text-anchor="start" x="1771.7351" y="-219.5" font-family="Helvetica,sans-Serif" font-size="10.00" fill="#000000">graf3d/eve/src/TEveChunk</text>
<text text-anchor="middle" x="1835.7351" y="-208.5" font-family="Helvetica,sans-Serif" font-size="10.00" fill="#000000">Manager.cxx</text>
</a>
</g>
</g>
<!-- Node54&#45;&gt;Node74 -->
<g id="edge23" class="edge">
<title>Node54&#45;&gt;Node74</title>
<path fill="none" stroke="#191970" d="M1661.755,-265.6842C1699.3477,-255.0568 1746.5611,-241.7095 1782.3157,-231.6017"/>
<polygon fill="#191970" stroke="#191970" points="1660.5932,-262.3754 1651.9225,-268.4639 1662.4975,-269.1114 1660.5932,-262.3754"/>
</g>
<!-- Node56 -->
<g id="node3" class="node">
<title>Node56</title>
<g id="a_node3"><a xlink:href="TEveBoxSet_8h.html" target="_top" xlink:title="graf3d/eve/inc/TEveBoxSet.h">
<polygon fill="#ffffff" stroke="#000000" points="115.2351,-140 115.2351,-159 272.2351,-159 272.2351,-140 115.2351,-140"/>
<text text-anchor="middle" x="193.7351" y="-147" font-family="Helvetica,sans-Serif" font-size="10.00" fill="#000000">graf3d/eve/inc/TEveBoxSet.h</text>
</a>
</g>
</g>
<!-- Node55&#45;&gt;Node56 -->
<g id="edge2" class="edge">
<title>Node55&#45;&gt;Node56</title>
<path fill="none" stroke="#191970" d="M638.0282,-206.4171C537.8198,-193.5797 365.9601,-171.5632 267.9498,-159.0074"/>
<polygon fill="#191970" stroke="#191970" points="637.7295,-209.9074 648.0933,-207.7065 638.6191,-202.9641 637.7295,-209.9074"/>
</g>
<!-- Node60 -->
<g id="node7" class="node">
<title>Node60</title>
<g id="a_node7"><a xlink:href="TEveDigitSetGL_8h.html" target="_top" xlink:title="graf3d/eve/inc/TEveDigit\lSetGL.h">
<polygon fill="#ffffff" stroke="#000000" points="391.2351,-134.5 391.2351,-164.5 528.2351,-164.5 528.2351,-134.5 391.2351,-134.5"/>
<text text-anchor="start" x="399.2351" y="-152.5" font-family="Helvetica,sans-Serif" font-size="10.00" fill="#000000">graf3d/eve/inc/TEveDigit</text>
<text text-anchor="middle" x="459.7351" y="-141.5" font-family="Helvetica,sans-Serif" font-size="10.00" fill="#000000">SetGL.h</text>
</a>
</g>
</g>
<!-- Node55&#45;&gt;Node60 -->
<g id="edge7" class="edge">
<title>Node55&#45;&gt;Node60</title>
<path fill="none" stroke="#191970" d="M649.1763,-198.8874C608.286,-188.2273 556.6818,-174.774 517.6624,-164.6017"/>
<polygon fill="#191970" stroke="#191970" points="648.4997,-202.3279 659.0593,-201.4639 650.2656,-195.5543 648.4997,-202.3279"/>
</g>
<!-- Node64 -->
<g id="node11" class="node">
<title>Node64</title>
<g id="a_node11"><a xlink:href="TEveQuadSet_8h.html" target="_top" xlink:title="graf3d/eve/inc/TEveQuadSet.h">
<polygon fill="#ffffff" stroke="#000000" points="549.7351,-140 549.7351,-159 713.7351,-159 713.7351,-140 549.7351,-140"/>
<text text-anchor="middle" x="631.7351" y="-147" font-family="Helvetica,sans-Serif" font-size="10.00" fill="#000000">graf3d/eve/inc/TEveQuadSet.h</text>
</a>
</g>
</g>
<!-- Node55&#45;&gt;Node64 -->
<g id="edge12" class="edge">
<title>Node55&#45;&gt;Node64</title>
<path fill="none" stroke="#191970" d="M689.3026,-194.8767C673.9771,-182.7967 655.6489,-168.3498 643.857,-159.055"/>
<polygon fill="#191970" stroke="#191970" points="687.427,-197.8549 697.4473,-201.2967 691.7603,-192.3574 687.427,-197.8549"/>
</g>
<!-- Node66 -->
<g id="node13" class="node">
<title>Node66</title>
<g id="a_node13"><a xlink:href="TEveDigitSet_8cxx.html" target="_top" xlink:title="graf3d/eve/src/TEveDigit\lSet.cxx">
<polygon fill="#ffffff" stroke="#000000" points="732.2351,-134.5 732.2351,-164.5 869.2351,-164.5 869.2351,-134.5 732.2351,-134.5"/>
<text text-anchor="start" x="740.2351" y="-152.5" font-family="Helvetica,sans-Serif" font-size="10.00" fill="#000000">graf3d/eve/src/TEveDigit</text>
<text text-anchor="middle" x="800.7351" y="-141.5" font-family="Helvetica,sans-Serif" font-size="10.00" fill="#000000">Set.cxx</text>
</a>
</g>
</g>
<!-- Node55&#45;&gt;Node66 -->
<g id="edge15" class="edge">
<title>Node55&#45;&gt;Node66</title>
<path fill="none" stroke="#191970" d="M743.9651,-194.7808C756.305,-184.9383 770.5942,-173.541 781.7496,-164.6432"/>
<polygon fill="#191970" stroke="#191970" points="741.4313,-192.3248 735.796,-201.2967 745.7962,-197.7973 741.4313,-192.3248"/>
</g>
<!-- Node67 -->
<g id="node14" class="node">
<title>Node67</title>
<g id="a_node14"><a xlink:href="TEveDigitSetEditor_8cxx.html" target="_top" xlink:title="graf3d/eve/src/TEveDigit\lSetEditor.cxx">
<polygon fill="#ffffff" stroke="#000000" points="887.2351,-134.5 887.2351,-164.5 1024.2351,-164.5 1024.2351,-134.5 887.2351,-134.5"/>
<text text-anchor="start" x="895.2351" y="-152.5" font-family="Helvetica,sans-Serif" font-size="10.00" fill="#000000">graf3d/eve/src/TEveDigit</text>
<text text-anchor="middle" x="955.7351" y="-141.5" font-family="Helvetica,sans-Serif" font-size="10.00" fill="#000000">SetEditor.cxx</text>
</a>
</g>
</g>
<!-- Node55&#45;&gt;Node67 -->
<g id="edge16" class="edge">
<title>Node55&#45;&gt;Node67</title>
<path fill="none" stroke="#191970" d="M780.2868,-198.6842C818.1967,-188.0568 865.8086,-174.7095 901.8649,-164.6017"/>
<polygon fill="#191970" stroke="#191970" points="779.0554,-195.3945 770.3713,-201.4639 780.9449,-202.1346 779.0554,-195.3945"/>
</g>
<!-- Node57 -->
<g id="node4" class="node">
<title>Node57</title>
<g id="a_node4"><a xlink:href="TEveBoxSetGL_8h.html" target="_top" xlink:title="graf3d/eve/inc/TEveBoxSetGL.h">
<polygon fill="#ffffff" stroke="#000000" points="201.7351,-73 201.7351,-92 371.7351,-92 371.7351,-73 201.7351,-73"/>
<text text-anchor="middle" x="286.7351" y="-80" font-family="Helvetica,sans-Serif" font-size="10.00" fill="#000000">graf3d/eve/inc/TEveBoxSetGL.h</text>
</a>
</g>
</g>
<!-- Node56&#45;&gt;Node57 -->
<g id="edge3" class="edge">
<title>Node56&#45;&gt;Node57</title>
<path fill="none" stroke="#191970" d="M215.2359,-134.0102C233.2017,-121.067 258.2527,-103.0195 273.4352,-92.0817"/>
<polygon fill="#191970" stroke="#191970" points="213.1275,-131.2153 207.0597,-139.9005 217.2193,-136.8949 213.1275,-131.2153"/>
</g>
<!-- Node58 -->
<g id="node5" class="node">
<title>Node58</title>
<g id="a_node5"><a xlink:href="TEveBoxSetGL_8cxx.html" target="_top" xlink:title="graf3d/eve/src/TEveBoxSet\lGL.cxx">
<polygon fill="#ffffff" stroke="#000000" points="63.7351,-.5 63.7351,-30.5 211.7351,-30.5 211.7351,-.5 63.7351,-.5"/>
<text text-anchor="start" x="71.7351" y="-18.5" font-family="Helvetica,sans-Serif" font-size="10.00" fill="#000000">graf3d/eve/src/TEveBoxSet</text>
<text text-anchor="middle" x="137.7351" y="-7.5" font-family="Helvetica,sans-Serif" font-size="10.00" fill="#000000">GL.cxx</text>
</a>
</g>
</g>
<!-- Node56&#45;&gt;Node58 -->
<g id="edge6" class="edge">
<title>Node56&#45;&gt;Node58</title>
<path fill="none" stroke="#191970" d="M118.156,-138.1714C72.5355,-129.6148 20.6135,-116.2173 6.7351,-98 -17.208,-66.5716 29.5403,-44.0342 73.69,-30.5399"/>
<polygon fill="#191970" stroke="#191970" points="117.614,-141.6301 128.079,-139.9767 118.867,-134.7432 117.614,-141.6301"/>
</g>
<!-- Node59 -->
<g id="node6" class="node">
<title>Node59</title>
<g id="a_node6"><a xlink:href="TEveBoxSet_8cxx.html" target="_top" xlink:title="graf3d/eve/src/TEveBoxSet.cxx">
<polygon fill="#ffffff" stroke="#000000" points="15.7351,-73 15.7351,-92 183.7351,-92 183.7351,-73 15.7351,-73"/>
<text text-anchor="middle" x="99.7351" y="-80" font-family="Helvetica,sans-Serif" font-size="10.00" fill="#000000">graf3d/eve/src/TEveBoxSet.cxx</text>
</a>
</g>
</g>
<!-- Node56&#45;&gt;Node59 -->
<g id="edge5" class="edge">
<title>Node56&#45;&gt;Node59</title>
<path fill="none" stroke="#191970" d="M172.0031,-134.0102C153.844,-121.067 128.5237,-103.0195 113.178,-92.0817"/>
<polygon fill="#191970" stroke="#191970" points="170.0925,-136.9464 180.2672,-139.9005 174.1554,-131.2462 170.0925,-136.9464"/>
</g>
<!-- Node57&#45;&gt;Node58 -->
<g id="edge4" class="edge">
<title>Node57&#45;&gt;Node58</title>
<path fill="none" stroke="#191970" d="M256.1097,-68.7289C231.3683,-57.6035 196.5974,-41.9683 171.1417,-30.5218"/>
<polygon fill="#191970" stroke="#191970" points="254.8312,-71.9915 265.387,-72.9005 257.702,-65.6072 254.8312,-71.9915"/>
</g>
<!-- Node60&#45;&gt;Node57 -->
<g id="edge8" class="edge">
<title>Node60&#45;&gt;Node57</title>
<path fill="none" stroke="#191970" d="M411.5481,-130.838C378.9548,-118.2151 337.2663,-102.0699 311.2786,-92.0053"/>
<polygon fill="#191970" stroke="#191970" points="410.3214,-134.1162 420.9105,-134.4639 412.8494,-127.5886 410.3214,-134.1162"/>
</g>
<!-- Node61 -->
<g id="node8" class="node">
<title>Node61</title>
<g id="a_node8"><a xlink:href="TEveQuadSetGL_8h.html" target="_top" xlink:title="graf3d/eve/inc/TEveQuadSetGL.h">
<polygon fill="#ffffff" stroke="#000000" points="545.7351,-73 545.7351,-92 721.7351,-92 721.7351,-73 545.7351,-73"/>
<text text-anchor="middle" x="633.7351" y="-80" font-family="Helvetica,sans-Serif" font-size="10.00" fill="#000000">graf3d/eve/inc/TEveQuadSetGL.h</text>
</a>
</g>
</g>
<!-- Node60&#45;&gt;Node61 -->
<g id="edge9" class="edge">
<title>Node60&#45;&gt;Node61</title>
<path fill="none" stroke="#191970" d="M508.2006,-130.838C540.9823,-118.2151 582.9118,-102.0699 609.0497,-92.0053"/>
<polygon fill="#191970" stroke="#191970" points="506.8584,-127.6042 498.7841,-134.4639 509.3738,-134.1367 506.8584,-127.6042"/>
</g>
<!-- Node63 -->
<g id="node10" class="node">
<title>Node63</title>
<g id="a_node10"><a xlink:href="TEveDigitSetGL_8cxx.html" target="_top" xlink:title="graf3d/eve/src/TEveDigit\lSetGL.cxx">
<polygon fill="#ffffff" stroke="#000000" points="390.2351,-67.5 390.2351,-97.5 527.2351,-97.5 527.2351,-67.5 390.2351,-67.5"/>
<text text-anchor="start" x="398.2351" y="-85.5" font-family="Helvetica,sans-Serif" font-size="10.00" fill="#000000">graf3d/eve/src/TEveDigit</text>
<text text-anchor="middle" x="458.7351" y="-74.5" font-family="Helvetica,sans-Serif" font-size="10.00" fill="#000000">SetGL.cxx</text>
</a>
</g>
</g>
<!-- Node60&#45;&gt;Node63 -->
<g id="edge11" class="edge">
<title>Node60&#45;&gt;Node63</title>
<path fill="none" stroke="#191970" d="M459.3548,-124.0249C459.2221,-115.128 459.0773,-105.4287 458.9611,-97.6432"/>
<polygon fill="#191970" stroke="#191970" points="455.8592,-124.35 459.5082,-134.2967 462.8584,-124.2455 455.8592,-124.35"/>
</g>
<!-- Node62 -->
<g id="node9" class="node">
<title>Node62</title>
<g id="a_node9"><a xlink:href="TEveQuadSetGL_8cxx.html" target="_top" xlink:title="graf3d/eve/src/TEveQuadSet\lGL.cxx">
<polygon fill="#ffffff" stroke="#000000" points="556.2351,-.5 556.2351,-30.5 711.2351,-30.5 711.2351,-.5 556.2351,-.5"/>
<text text-anchor="start" x="564.2351" y="-18.5" font-family="Helvetica,sans-Serif" font-size="10.00" fill="#000000">graf3d/eve/src/TEveQuadSet</text>
<text text-anchor="middle" x="633.7351" y="-7.5" font-family="Helvetica,sans-Serif" font-size="10.00" fill="#000000">GL.cxx</text>
</a>
</g>
</g>
<!-- Node61&#45;&gt;Node62 -->
<g id="edge10" class="edge">
<title>Node61&#45;&gt;Node62</title>
<path fill="none" stroke="#191970" d="M633.7351,-62.7758C633.7351,-52.4641 633.7351,-40.0437 633.7351,-30.5218"/>
<polygon fill="#191970" stroke="#191970" points="630.2352,-62.9005 633.7351,-72.9005 637.2352,-62.9006 630.2352,-62.9005"/>
</g>
<!-- Node64&#45;&gt;Node61 -->
<g id="edge13" class="edge">
<title>Node64&#45;&gt;Node61</title>
<path fill="none" stroke="#191970" d="M632.3289,-129.6079C632.6988,-117.214 633.1582,-101.8263 633.449,-92.0817"/>
<polygon fill="#191970" stroke="#191970" points="628.8216,-129.8005 632.0216,-139.9005 635.8185,-130.0094 628.8216,-129.8005"/>
</g>
<!-- Node65 -->
<g id="node12" class="node">
<title>Node65</title>
<g id="a_node12"><a xlink:href="TEveQuadSet_8cxx.html" target="_top" xlink:title="graf3d/eve/src/TEveQuadSet.cxx">
<polygon fill="#ffffff" stroke="#000000" points="740.2351,-73 740.2351,-92 915.2351,-92 915.2351,-73 740.2351,-73"/>
<text text-anchor="middle" x="827.7351" y="-80" font-family="Helvetica,sans-Serif" font-size="10.00" fill="#000000">graf3d/eve/src/TEveQuadSet.cxx</text>
</a>
</g>
</g>
<!-- Node64&#45;&gt;Node65 -->
<g id="edge14" class="edge">
<title>Node64&#45;&gt;Node65</title>
<path fill="none" stroke="#191970" d="M669.5233,-136.5826C707.6161,-123.5611 765.5261,-103.7653 799.7051,-92.0817"/>
<polygon fill="#191970" stroke="#191970" points="668.1474,-133.354 659.8171,-139.9005 670.4116,-139.9777 668.1474,-133.354"/>
</g>
<!-- Node69 -->
<g id="node16" class="node">
<title>Node69</title>
<g id="a_node16"><a xlink:href="TEveScalableStraightLineSet_8h.html" target="_top" xlink:title="graf3d/eve/inc/TEveScalable\lStraightLineSet.h">
<polygon fill="#ffffff" stroke="#000000" points="1042.2351,-134.5 1042.2351,-164.5 1197.2351,-164.5 1197.2351,-134.5 1042.2351,-134.5"/>
<text text-anchor="start" x="1050.2351" y="-152.5" font-family="Helvetica,sans-Serif" font-size="10.00" fill="#000000">graf3d/eve/inc/TEveScalable</text>
<text text-anchor="middle" x="1119.7351" y="-141.5" font-family="Helvetica,sans-Serif" font-size="10.00" fill="#000000">StraightLineSet.h</text>
</a>
</g>
</g>
<!-- Node68&#45;&gt;Node69 -->
<g id="edge18" class="edge">
<title>Node68&#45;&gt;Node69</title>
<path fill="none" stroke="#191970" d="M1375.3142,-199.5696C1320.2327,-188.7788 1249.5023,-174.9222 1196.4183,-164.5227"/>
<polygon fill="#191970" stroke="#191970" points="1374.9229,-203.0594 1385.4093,-201.5473 1376.2687,-196.19 1374.9229,-203.0594"/>
</g>
<!-- Node71 -->
<g id="node18" class="node">
<title>Node71</title>
<g id="a_node18"><a xlink:href="TEveStraightLineSet_8cxx.html" target="_top" xlink:title="graf3d/eve/src/TEveStraight\lLineSet.cxx">
<polygon fill="#ffffff" stroke="#000000" points="1215.7351,-134.5 1215.7351,-164.5 1367.7351,-164.5 1367.7351,-134.5 1215.7351,-134.5"/>
<text text-anchor="start" x="1223.7351" y="-152.5" font-family="Helvetica,sans-Serif" font-size="10.00" fill="#000000">graf3d/eve/src/TEveStraight</text>
<text text-anchor="middle" x="1291.7351" y="-141.5" font-family="Helvetica,sans-Serif" font-size="10.00" fill="#000000">LineSet.cxx</text>
</a>
</g>
</g>
<!-- Node68&#45;&gt;Node71 -->
<g id="edge20" class="edge">
<title>Node68&#45;&gt;Node71</title>
<path fill="none" stroke="#191970" d="M1414.1033,-197.7275C1387.5554,-187.2645 1354.9356,-174.4084 1330.0528,-164.6017"/>
<polygon fill="#191970" stroke="#191970" points="1412.9969,-201.0534 1423.5837,-201.4639 1415.5636,-194.5409 1412.9969,-201.0534"/>
</g>
<!-- Node72 -->
<g id="node19" class="node">
<title>Node72</title>
<g id="a_node19"><a xlink:href="TEveStraightLineSetEditor_8cxx.html" target="_top" xlink:title="graf3d/eve/src/TEveStraight\lLineSetEditor.cxx">
<polygon fill="#ffffff" stroke="#000000" points="1385.7351,-134.5 1385.7351,-164.5 1537.7351,-164.5 1537.7351,-134.5 1385.7351,-134.5"/>
<text text-anchor="start" x="1393.7351" y="-152.5" font-family="Helvetica,sans-Serif" font-size="10.00" fill="#000000">graf3d/eve/src/TEveStraight</text>
<text text-anchor="middle" x="1461.7351" y="-141.5" font-family="Helvetica,sans-Serif" font-size="10.00" fill="#000000">LineSetEditor.cxx</text>
</a>
</g>
</g>
<!-- Node68&#45;&gt;Node72 -->
<g id="edge21" class="edge">
<title>Node68&#45;&gt;Node72</title>
<path fill="none" stroke="#191970" d="M1461.7351,-191.0249C1461.7351,-182.128 1461.7351,-172.4287 1461.7351,-164.6432"/>
<polygon fill="#191970" stroke="#191970" points="1458.2352,-191.2966 1461.7351,-201.2967 1465.2352,-191.2967 1458.2352,-191.2966"/>
</g>
<!-- Node73 -->
<g id="node20" class="node">
<title>Node73</title>
<g id="a_node20"><a xlink:href="TEveStraightLineSetGL_8cxx.html" target="_top" xlink:title="graf3d/eve/src/TEveStraight\lLineSetGL.cxx">
<polygon fill="#ffffff" stroke="#000000" points="1555.7351,-134.5 1555.7351,-164.5 1707.7351,-164.5 1707.7351,-134.5 1555.7351,-134.5"/>
<text text-anchor="start" x="1563.7351" y="-152.5" font-family="Helvetica,sans-Serif" font-size="10.00" fill="#000000">graf3d/eve/src/TEveStraight</text>
<text text-anchor="middle" x="1631.7351" y="-141.5" font-family="Helvetica,sans-Serif" font-size="10.00" fill="#000000">LineSetGL.cxx</text>
</a>
</g>
</g>
<!-- Node68&#45;&gt;Node73 -->
<g id="edge22" class="edge">
<title>Node68&#45;&gt;Node73</title>
<path fill="none" stroke="#191970" d="M1509.3669,-197.7275C1535.9147,-187.2645 1568.5346,-174.4084 1593.4174,-164.6017"/>
<polygon fill="#191970" stroke="#191970" points="1507.9066,-194.5409 1499.8864,-201.4639 1510.4733,-201.0534 1507.9066,-194.5409"/>
</g>
<!-- Node69&#45;&gt;Node70 -->
<g id="edge19" class="edge">
<title>Node69&#45;&gt;Node70</title>
<path fill="none" stroke="#191970" d="M1198.8597,-132.2878C1248.2413,-121.5457 1311.1981,-107.8506 1358.5786,-97.5438"/>
<polygon fill="#191970" stroke="#191970" points="1197.8838,-128.9182 1188.8563,-134.4639 1199.3717,-135.7582 1197.8838,-128.9182"/>
</g>
</g>
</svg>
        <g id="navigator" transform="translate(0 0)" fill="#404254">
                <rect fill="#f2f5e9" fill-opacity="0.5" stroke="#606060" stroke-width=".5" x="0" y="0" width="60" height="60"/>
                <use id="zoomplus" xlink:href="#zoomPlus" x="17" y="9" onmousedown="handleZoom(evt,'in')"/>
                <use id="zoomminus" xlink:href="#zoomMin" x="42" y="9" onmousedown="handleZoom(evt,'out')"/>
                <use id="reset" xlink:href="#resetDef" x="30" y="36" onmousedown="handleReset()"/>
                <g id="arrowUp" xlink:href="#dirArrow" transform="translate(30 24)" onmousedown="handlePan(0,-1)">
                  <use xlink:href="#rim" fill="#404040">
                        <set attributeName="fill" to="#808080" begin="arrowUp.mouseover" end="arrowUp.mouseout"/>
                  </use>
                  <path fill="none" stroke="white" stroke-width="1.5" d="M0,-3.0v7 M-2.5,-0.5L0,-3.0L2.5,-0.5"/>
                </g>
                <g id="arrowRight" xlink:href="#dirArrow" transform="rotate(90) translate(36 -43)" onmousedown="handlePan(1,0)">
                  <use xlink:href="#rim" fill="#404040">
                        <set attributeName="fill" to="#808080" begin="arrowRight.mouseover" end="arrowRight.mouseout"/>
                  </use>
                  <path fill="none" stroke="white" stroke-width="1.5" d="M0,-3.0v7 M-2.5,-0.5L0,-3.0L2.5,-0.5"/>
                </g>
                <g id="arrowDown" xlink:href="#dirArrow" transform="rotate(180) translate(-30 -48)" onmousedown="handlePan(0,1)">
                  <use xlink:href="#rim" fill="#404040">
                        <set attributeName="fill" to="#808080" begin="arrowDown.mouseover" end="arrowDown.mouseout"/>
                  </use>
                  <path fill="none" stroke="white" stroke-width="1.5" d="M0,-3.0v7 M-2.5,-0.5L0,-3.0L2.5,-0.5"/>
                </g>
                <g id="arrowLeft" xlink:href="#dirArrow" transform="rotate(270) translate(-36 17)" onmousedown="handlePan(-1,0)">
                  <use xlink:href="#rim" fill="#404040">
                        <set attributeName="fill" to="#808080" begin="arrowLeft.mouseover" end="arrowLeft.mouseout"/>
                  </use>
                  <path fill="none" stroke="white" stroke-width="1.5" d="M0,-3.0v7 M-2.5,-0.5L0,-3.0L2.5,-0.5"/>
                </g>
        </g>
        <svg viewBox="0 0 15 15" width="100%" height="30px" preserveAspectRatio="xMaxYMin meet">
         <g id="arrow_out" transform="scale(0.3 0.3)">
          <a xlink:href="TEveChunkManager_8h__dep__incl_org.svg" target="_base">
           <rect id="button" ry="5" rx="5" y="6" x="6" height="38" width="38"
                fill="#f2f5e9" fill-opacity="0.5" stroke="#606060" stroke-width="1.0"/>
           <path id="arrow"
             d="M 11.500037,31.436501 C 11.940474,20.09759 22.043105,11.32322 32.158766,21.979434 L 37.068811,17.246167 C 37.068811,17.246167 37.088388,32 37.088388,32 L 22.160133,31.978069 C 22.160133,31.978069 26.997745,27.140456 26.997745,27.140456 C 18.528582,18.264221 13.291696,25.230495 11.500037,31.436501 z"
             style="fill:#404040;"/>
          </a>
         </g>
        </svg>
</svg>
