<?xml version="1.0" encoding="UTF-8" standalone="no"?>
<!DOCTYPE svg PUBLIC "-//W3C//DTD SVG 1.1//EN"
 "http://www.w3.org/Graphics/SVG/1.1/DTD/svg11.dtd">
<!-- Generated by graphviz version 2.40.1 (0)
 -->
<!-- Title: core/base/inc/TException.h Pages: 1 -->
<svg width="2442pt" height="95pt"
 viewBox="0.00 0.00 2442.00 95.00" xmlns="http://www.w3.org/2000/svg" xmlns:xlink="http://www.w3.org/1999/xlink">
<g id="graph0" class="graph" transform="scale(1 1) rotate(0) translate(4 91)">
<title>core/base/inc/TException.h</title>
<polygon fill="#ffffff" stroke="transparent" points="-4,4 -4,-91 2438,-91 2438,4 -4,4"/>
<!-- Node6 -->
<g id="node1" class="node">
<title>Node6</title>
<polygon fill="#bfbfbf" stroke="#000000" points="1167,-67.5 1167,-86.5 1314,-86.5 1314,-67.5 1167,-67.5"/>
<text text-anchor="middle" x="1240.5" y="-74.5" font-family="Helvetica,sans-Serif" font-size="10.00" fill="#000000">core/base/inc/TException.h</text>
</g>
<!-- Node7 -->
<g id="node2" class="node">
<title>Node7</title>
<g id="a_node2"><a xlink:href="TMethodHolder_8cxx.html" target="_top" xlink:title="bindings/pyroot/src\l/TMethodHolder.cxx">
<polygon fill="#ffffff" stroke="#000000" points="0,-.5 0,-30.5 113,-30.5 113,-.5 0,-.5"/>
<text text-anchor="start" x="8" y="-18.5" font-family="Helvetica,sans-Serif" font-size="10.00" fill="#000000">bindings/pyroot/src</text>
<text text-anchor="middle" x="56.5" y="-7.5" font-family="Helvetica,sans-Serif" font-size="10.00" fill="#000000">/TMethodHolder.cxx</text>
</a>
</g>
</g>
<!-- Node6&#45;&gt;Node7 -->
<g id="edge1" class="edge">
<title>Node6&#45;&gt;Node7</title>
<path fill="none" stroke="#191970" d="M1156.6184,-75.6089C932.302,-71.5593 322.1273,-58.2966 122.5,-31 119.468,-30.5854 116.3711,-30.0952 113.2537,-29.5489"/>
<polygon fill="#191970" stroke="#191970" points="1156.6237,-79.1094 1166.6848,-75.7891 1156.7491,-72.1105 1156.6237,-79.1094"/>
</g>
<!-- Node8 -->
<g id="node3" class="node">
<title>Node8</title>
<g id="a_node3"><a xlink:href="TApplication_8cxx.html" target="_top" xlink:title="core/base/src/TApplication.cxx">
<polygon fill="#ffffff" stroke="#000000" points="131.5,-6 131.5,-25 295.5,-25 295.5,-6 131.5,-6"/>
<text text-anchor="middle" x="213.5" y="-13" font-family="Helvetica,sans-Serif" font-size="10.00" fill="#000000">core/base/src/TApplication.cxx</text>
</a>
</g>
</g>
<!-- Node6&#45;&gt;Node8 -->
<g id="edge2" class="edge">
<title>Node6&#45;&gt;Node8</title>
<path fill="none" stroke="#191970" d="M1156.8264,-76.2388C992.8207,-74.0067 617.7665,-65.2528 304.5,-31 290.9585,-29.5194 276.3771,-27.3132 262.9393,-25.0265"/>
<polygon fill="#191970" stroke="#191970" points="1156.8026,-79.7387 1166.8478,-76.3706 1156.8947,-72.7393 1156.8026,-79.7387"/>
</g>
<!-- Node9 -->
<g id="node4" class="node">
<title>Node9</title>
<g id="a_node4"><a xlink:href="TException_8cxx.html" target="_top" xlink:title="core/base/src/TException.cxx">
<polygon fill="#ffffff" stroke="#000000" points="313.5,-6 313.5,-25 471.5,-25 471.5,-6 313.5,-6"/>
<text text-anchor="middle" x="392.5" y="-13" font-family="Helvetica,sans-Serif" font-size="10.00" fill="#000000">core/base/src/TException.cxx</text>
</a>
</g>
</g>
<!-- Node6&#45;&gt;Node9 -->
<g id="edge3" class="edge">
<title>Node6&#45;&gt;Node9</title>
<path fill="none" stroke="#191970" d="M1156.6362,-75.0441C1016.2838,-71.0729 725.1157,-59.8506 480.5,-31 467.5588,-29.4737 453.6357,-27.2802 440.7683,-25.0217"/>
<polygon fill="#191970" stroke="#191970" points="1156.7934,-78.5497 1166.8867,-75.3288 1156.9878,-71.5524 1156.7934,-78.5497"/>
</g>
<!-- Node10 -->
<g id="node5" class="node">
<title>Node10</title>
<g id="a_node5"><a xlink:href="TSystem_8cxx.html" target="_top" xlink:title="core/base/src/TSystem.cxx">
<polygon fill="#ffffff" stroke="#000000" points="490,-6 490,-25 637,-25 637,-6 490,-6"/>
<text text-anchor="middle" x="563.5" y="-13" font-family="Helvetica,sans-Serif" font-size="10.00" fill="#000000">core/base/src/TSystem.cxx</text>
</a>
</g>
</g>
<!-- Node6&#45;&gt;Node10 -->
<g id="edge4" class="edge">
<title>Node6&#45;&gt;Node10</title>
<path fill="none" stroke="#191970" d="M1156.7708,-73.4254C1041.3274,-67.8376 826.9481,-55.0892 645.5,-31 633.5794,-29.4174 620.7689,-27.2317 608.8986,-25.0003"/>
<polygon fill="#191970" stroke="#191970" points="1156.7937,-76.9304 1166.9495,-73.9119 1157.128,-69.9384 1156.7937,-76.9304"/>
</g>
<!-- Node11 -->
<g id="node6" class="node">
<title>Node11</title>
<g id="a_node6"><a xlink:href="TRint_8cxx.html" target="_top" xlink:title="core/rint/src/TRint.cxx">
<polygon fill="#ffffff" stroke="#000000" points="655,-6 655,-25 778,-25 778,-6 655,-6"/>
<text text-anchor="middle" x="716.5" y="-13" font-family="Helvetica,sans-Serif" font-size="10.00" fill="#000000">core/rint/src/TRint.cxx</text>
</a>
</g>
</g>
<!-- Node6&#45;&gt;Node11 -->
<g id="edge5" class="edge">
<title>Node6&#45;&gt;Node11</title>
<path fill="none" stroke="#191970" d="M1156.6064,-71.4519C1065.2016,-64.7207 914.8546,-51.6407 786.5,-31 776.4228,-29.3795 765.6193,-27.2068 755.5887,-25.002"/>
<polygon fill="#191970" stroke="#191970" points="1156.4053,-74.9464 1166.6332,-72.1822 1156.9139,-67.9649 1156.4053,-74.9464"/>
</g>
<!-- Node12 -->
<g id="node7" class="node">
<title>Node12</title>
<g id="a_node7"><a xlink:href="TUnixSystem_8cxx.html" target="_top" xlink:title="core/unix/src/TUnixSystem.cxx">
<polygon fill="#ffffff" stroke="#000000" points="796,-6 796,-25 963,-25 963,-6 796,-6"/>
<text text-anchor="middle" x="879.5" y="-13" font-family="Helvetica,sans-Serif" font-size="10.00" fill="#000000">core/unix/src/TUnixSystem.cxx</text>
</a>
</g>
</g>
<!-- Node6&#45;&gt;Node12 -->
<g id="edge6" class="edge">
<title>Node6&#45;&gt;Node12</title>
<path fill="none" stroke="#191970" d="M1174.2374,-65.7115C1105.6793,-54.0319 999.7915,-35.9929 935.3445,-25.0137"/>
<polygon fill="#191970" stroke="#191970" points="1174.044,-69.2289 1184.4898,-67.4581 1175.2197,-62.3283 1174.044,-69.2289"/>
</g>
<!-- Node13 -->
<g id="node8" class="node">
<title>Node13</title>
<g id="a_node8"><a xlink:href="TWinNTSystem_8cxx.html" target="_top" xlink:title="core/winnt/src/TWinNTSystem.cxx">
<polygon fill="#ffffff" stroke="#000000" points="981,-6 981,-25 1164,-25 1164,-6 981,-6"/>
<text text-anchor="middle" x="1072.5" y="-13" font-family="Helvetica,sans-Serif" font-size="10.00" fill="#000000">core/winnt/src/TWinNTSystem.cxx</text>
</a>
</g>
</g>
<!-- Node6&#45;&gt;Node13 -->
<g id="edge7" class="edge">
<title>Node6&#45;&gt;Node13</title>
<path fill="none" stroke="#191970" d="M1204.8523,-63.9504C1173.0038,-52.2916 1127.0937,-35.4852 1098.5657,-25.0419"/>
<polygon fill="#191970" stroke="#191970" points="1203.6562,-67.2396 1214.25,-67.3906 1206.0626,-60.6662 1203.6562,-67.2396"/>
</g>
<!-- Node14 -->
<g id="node9" class="node">
<title>Node14</title>
<g id="a_node9"><a xlink:href="TGWin32_8cxx.html" target="_top" xlink:title="graf2d/win32gdk/src\l/TGWin32.cxx">
<polygon fill="#ffffff" stroke="#000000" points="1182.5,-.5 1182.5,-30.5 1298.5,-30.5 1298.5,-.5 1182.5,-.5"/>
<text text-anchor="start" x="1190.5" y="-18.5" font-family="Helvetica,sans-Serif" font-size="10.00" fill="#000000">graf2d/win32gdk/src</text>
<text text-anchor="middle" x="1240.5" y="-7.5" font-family="Helvetica,sans-Serif" font-size="10.00" fill="#000000">/TGWin32.cxx</text>
</a>
</g>
</g>
<!-- Node6&#45;&gt;Node14 -->
<g id="edge8" class="edge">
<title>Node6&#45;&gt;Node14</title>
<path fill="none" stroke="#191970" d="M1240.5,-57.3693C1240.5,-48.681 1240.5,-38.6241 1240.5,-30.5446"/>
<polygon fill="#191970" stroke="#191970" points="1237.0001,-57.3906 1240.5,-67.3906 1244.0001,-57.3907 1237.0001,-57.3906"/>
</g>
<!-- Node15 -->
<g id="node10" class="node">
<title>Node15</title>
<g id="a_node10"><a xlink:href="GX11Gui_8cxx.html" target="_top" xlink:title="graf2d/x11/src/GX11Gui.cxx">
<polygon fill="#ffffff" stroke="#000000" points="1316.5,-6 1316.5,-25 1468.5,-25 1468.5,-6 1316.5,-6"/>
<text text-anchor="middle" x="1392.5" y="-13" font-family="Helvetica,sans-Serif" font-size="10.00" fill="#000000">graf2d/x11/src/GX11Gui.cxx</text>
</a>
</g>
</g>
<!-- Node6&#45;&gt;Node15 -->
<g id="edge9" class="edge">
<title>Node6&#45;&gt;Node15</title>
<path fill="none" stroke="#191970" d="M1273.8769,-63.4955C1302.6396,-51.858 1343.4395,-35.3501 1368.9168,-25.0419"/>
<polygon fill="#191970" stroke="#191970" points="1272.2072,-60.3954 1264.25,-67.3906 1274.8327,-66.8844 1272.2072,-60.3954"/>
</g>
<!-- Node16 -->
<g id="node11" class="node">
<title>Node16</title>
<g id="a_node11"><a xlink:href="TApplicationServer_8cxx.html" target="_top" xlink:title="net/net/src/TApplication\lServer.cxx">
<polygon fill="#ffffff" stroke="#000000" points="1487,-.5 1487,-30.5 1618,-30.5 1618,-.5 1487,-.5"/>
<text text-anchor="start" x="1495" y="-18.5" font-family="Helvetica,sans-Serif" font-size="10.00" fill="#000000">net/net/src/TApplication</text>
<text text-anchor="middle" x="1552.5" y="-7.5" font-family="Helvetica,sans-Serif" font-size="10.00" fill="#000000">Server.cxx</text>
</a>
</g>
</g>
<!-- Node6&#45;&gt;Node16 -->
<g id="edge10" class="edge">
<title>Node6&#45;&gt;Node16</title>
<path fill="none" stroke="#191970" d="M1300.3699,-65.587C1348.3105,-56.3981 1417.2627,-43.0699 1477.5,-31 1480.4985,-30.3992 1483.5636,-29.7812 1486.6591,-29.154"/>
<polygon fill="#191970" stroke="#191970" points="1299.6327,-62.1645 1290.4695,-67.4831 1300.9494,-69.0396 1299.6327,-62.1645"/>
</g>
<!-- Node17 -->
<g id="node12" class="node">
<title>Node17</title>
<g id="a_node12"><a xlink:href="TProofServ_8cxx.html" target="_top" xlink:title="proof/proof/src/TProofServ.cxx">
<polygon fill="#ffffff" stroke="#000000" points="1636.5,-6 1636.5,-25 1800.5,-25 1800.5,-6 1636.5,-6"/>
<text text-anchor="middle" x="1718.5" y="-13" font-family="Helvetica,sans-Serif" font-size="10.00" fill="#000000">proof/proof/src/TProofServ.cxx</text>
</a>
</g>
</g>
<!-- Node6&#45;&gt;Node17 -->
<g id="edge11" class="edge">
<title>Node6&#45;&gt;Node17</title>
<path fill="none" stroke="#191970" d="M1324.4294,-68.258C1402.9261,-59.7897 1523.3578,-46.0488 1627.5,-31 1639.7133,-29.2351 1652.8122,-27.1297 1665.1591,-25.0482"/>
<polygon fill="#191970" stroke="#191970" points="1323.684,-64.8179 1314.1153,-69.3664 1324.432,-71.7778 1323.684,-64.8179"/>
</g>
<!-- Node18 -->
<g id="node13" class="node">
<title>Node18</title>
<g id="a_node13"><a xlink:href="TProofServLite_8cxx.html" target="_top" xlink:title="proof/proof/src/TProofServ\lLite.cxx">
<polygon fill="#ffffff" stroke="#000000" points="1818.5,-.5 1818.5,-30.5 1962.5,-30.5 1962.5,-.5 1818.5,-.5"/>
<text text-anchor="start" x="1826.5" y="-18.5" font-family="Helvetica,sans-Serif" font-size="10.00" fill="#000000">proof/proof/src/TProofServ</text>
<text text-anchor="middle" x="1890.5" y="-7.5" font-family="Helvetica,sans-Serif" font-size="10.00" fill="#000000">Lite.cxx</text>
</a>
</g>
</g>
<!-- Node6&#45;&gt;Node18 -->
<g id="edge12" class="edge">
<title>Node6&#45;&gt;Node18</title>
<path fill="none" stroke="#191970" d="M1324.5857,-73.0576C1435.8904,-67.187 1638.0789,-54.2608 1809.5,-31 1812.3375,-30.615 1815.2261,-30.1955 1818.1404,-29.7493"/>
<polygon fill="#191970" stroke="#191970" points="1324.2351,-69.571 1314.4308,-73.5868 1324.5995,-76.5615 1324.2351,-69.571"/>
</g>
<!-- Node19 -->
<g id="node14" class="node">
<title>Node19</title>
<g id="a_node14"><a xlink:href="TProofPlayer_8cxx.html" target="_top" xlink:title="proof/proofplayer/src\l/TProofPlayer.cxx">
<polygon fill="#ffffff" stroke="#000000" points="1981,-.5 1981,-30.5 2100,-30.5 2100,-.5 1981,-.5"/>
<text text-anchor="start" x="1989" y="-18.5" font-family="Helvetica,sans-Serif" font-size="10.00" fill="#000000">proof/proofplayer/src</text>
<text text-anchor="middle" x="2040.5" y="-7.5" font-family="Helvetica,sans-Serif" font-size="10.00" fill="#000000">/TProofPlayer.cxx</text>
</a>
</g>
</g>
<!-- Node6&#45;&gt;Node19 -->
<g id="edge13" class="edge">
<title>Node6&#45;&gt;Node19</title>
<path fill="none" stroke="#191970" d="M1324.2237,-73.4008C1488.7186,-66.0538 1848.7385,-48.5386 1971.5,-31 1974.5386,-30.5659 1977.6417,-30.0687 1980.7678,-29.525"/>
<polygon fill="#191970" stroke="#191970" points="1323.9872,-69.9078 1314.1527,-73.8488 1324.2984,-76.9008 1323.9872,-69.9078"/>
</g>
<!-- Node20 -->
<g id="node15" class="node">
<title>Node20</title>
<g id="a_node15"><a xlink:href="TXProofServ_8cxx.html" target="_top" xlink:title="proof/proofx/src/TXProof\lServ.cxx">
<polygon fill="#ffffff" stroke="#000000" points="2118,-.5 2118,-30.5 2253,-30.5 2253,-.5 2118,-.5"/>
<text text-anchor="start" x="2126" y="-18.5" font-family="Helvetica,sans-Serif" font-size="10.00" fill="#000000">proof/proofx/src/TXProof</text>
<text text-anchor="middle" x="2185.5" y="-7.5" font-family="Helvetica,sans-Serif" font-size="10.00" fill="#000000">Serv.cxx</text>
</a>
</g>
</g>
<!-- Node6&#45;&gt;Node20 -->
<g id="edge14" class="edge">
<title>Node6&#45;&gt;Node20</title>
<path fill="none" stroke="#191970" d="M1324.3139,-74.1508C1511.5882,-67.526 1959.3106,-50.1829 2109.5,-31 2112.1715,-30.6588 2114.8895,-30.2763 2117.6303,-29.861"/>
<polygon fill="#191970" stroke="#191970" points="1324.1156,-70.6555 1314.245,-74.5055 1324.3621,-77.6512 1324.1156,-70.6555"/>
</g>
<!-- Node21 -->
<g id="node16" class="node">
<title>Node21</title>
<g id="a_node16"><a xlink:href="TXSocket_8cxx.html" target="_top" xlink:title="proof/proofx/src/TXSocket.cxx">
<polygon fill="#ffffff" stroke="#000000" points="2271,-6 2271,-25 2434,-25 2434,-6 2271,-6"/>
<text text-anchor="middle" x="2352.5" y="-13" font-family="Helvetica,sans-Serif" font-size="10.00" fill="#000000">proof/proofx/src/TXSocket.cxx</text>
</a>
</g>
</g>
<!-- Node6&#45;&gt;Node21 -->
<g id="edge15" class="edge">
<title>Node6&#45;&gt;Node21</title>
<path fill="none" stroke="#191970" d="M1324.4191,-74.5834C1534.9342,-68.3022 2081.4903,-50.5822 2262.5,-31 2275.8986,-29.5505 2290.3217,-27.3548 2303.6119,-25.0681"/>
<polygon fill="#191970" stroke="#191970" points="1324.2411,-71.087 1314.3496,-74.8828 1324.4492,-78.084 1324.2411,-71.087"/>
</g>
</g>
</svg>
