<?xml version="1.0" encoding="UTF-8" standalone="no"?>
<!DOCTYPE svg PUBLIC "-//W3C//DTD SVG 1.1//EN"
 "http://www.w3.org/Graphics/SVG/1.1/DTD/svg11.dtd">
<!-- Generated by graphviz version 2.40.1 (0)
 -->
<!-- Title: hist/hist/inc/TF1.h Pages: 1 -->
<svg width="2829pt" height="991pt"
 viewBox="0.00 0.00 2829.00 991.00" xmlns="http://www.w3.org/2000/svg" xmlns:xlink="http://www.w3.org/1999/xlink">
<g id="graph0" class="graph" transform="scale(1 1) rotate(0) translate(4 987)">
<title>hist/hist/inc/TF1.h</title>
<polygon fill="#ffffff" stroke="transparent" points="-4,4 -4,-987 2825,-987 2825,4 -4,4"/>
<!-- Node0 -->
<g id="node1" class="node">
<title>Node0</title>
<polygon fill="#bfbfbf" stroke="#000000" points="459.5,-963.5 459.5,-982.5 561.5,-982.5 561.5,-963.5 459.5,-963.5"/>
<text text-anchor="middle" x="510.5" y="-970.5" font-family="Helvetica,sans-Serif" font-size="10.00" fill="#000000">hist/hist/inc/TF1.h</text>
</g>
<!-- Node1 -->
<g id="node2" class="node">
<title>Node1</title>
<polygon fill="#ffffff" stroke="#bfbfbf" points="1372.5,-.5 1372.5,-19.5 1450.5,-19.5 1450.5,-.5 1372.5,-.5"/>
<text text-anchor="middle" x="1411.5" y="-7.5" font-family="Helvetica,sans-Serif" font-size="10.00" fill="#000000">RConfigure.h</text>
</g>
<!-- Node0&#45;&gt;Node1 -->
<g id="edge1" class="edge">
<title>Node0&#45;&gt;Node1</title>
<path fill="none" stroke="#191970" d="M561.574,-971.7024C886.482,-963.2853 2651.5,-915.0722 2651.5,-861 2651.5,-861 2651.5,-861 2651.5,-122 2651.5,-105.3598 2847.3074,-120.0694 2389.5,-56 2207.1064,-30.4743 1632.7366,-15.2024 1460.6779,-11.1148"/>
<polygon fill="#191970" stroke="#191970" points="1460.7233,-7.615 1450.6436,-10.8783 1460.5583,-14.613 1460.7233,-7.615"/>
</g>
<!-- Node2 -->
<g id="node3" class="node">
<title>Node2</title>
<polygon fill="#ffffff" stroke="#bfbfbf" points="59,-403.5 59,-422.5 124,-422.5 124,-403.5 59,-403.5"/>
<text text-anchor="middle" x="91.5" y="-410.5" font-family="Helvetica,sans-Serif" font-size="10.00" fill="#000000">functional</text>
</g>
<!-- Node0&#45;&gt;Node2 -->
<g id="edge2" class="edge">
<title>Node0&#45;&gt;Node2</title>
<path fill="none" stroke="#191970" d="M459.3202,-969.9253C348.5542,-961.8688 96.5,-935.3657 96.5,-861 96.5,-861 96.5,-861 96.5,-525 96.5,-492.6794 94.3963,-455.1646 92.918,-432.7929"/>
<polygon fill="#191970" stroke="#191970" points="96.3937,-432.3185 92.2164,-422.5819 89.4102,-432.7984 96.3937,-432.3185"/>
</g>
<!-- Node3 -->
<g id="node4" class="node">
<title>Node3</title>
<polygon fill="#ffffff" stroke="#bfbfbf" points="2679.5,-907.5 2679.5,-926.5 2731.5,-926.5 2731.5,-907.5 2679.5,-907.5"/>
<text text-anchor="middle" x="2705.5" y="-914.5" font-family="Helvetica,sans-Serif" font-size="10.00" fill="#000000">cassert</text>
</g>
<!-- Node0&#45;&gt;Node3 -->
<g id="edge3" class="edge">
<title>Node0&#45;&gt;Node3</title>
<path fill="none" stroke="#191970" d="M561.5156,-972.5946C867.2985,-970.0738 2451.1869,-955.7079 2665.5,-927 2666.7771,-926.8289 2668.0723,-926.6325 2669.3768,-926.4151"/>
<polygon fill="#191970" stroke="#191970" points="2670.2914,-929.8016 2679.4124,-924.4111 2668.9206,-922.9371 2670.2914,-929.8016"/>
</g>
<!-- Node4 -->
<g id="node5" class="node">
<title>Node4</title>
<polygon fill="#ffffff" stroke="#bfbfbf" points="2750,-907.5 2750,-926.5 2821,-926.5 2821,-907.5 2750,-907.5"/>
<text text-anchor="middle" x="2785.5" y="-914.5" font-family="Helvetica,sans-Serif" font-size="10.00" fill="#000000">TFormula.h</text>
</g>
<!-- Node0&#45;&gt;Node4 -->
<g id="edge4" class="edge">
<title>Node0&#45;&gt;Node4</title>
<path fill="none" stroke="#191970" d="M561.7509,-972.5517C870.0479,-969.7753 2473.2946,-954.1851 2739.4584,-926.7619"/>
<polygon fill="#191970" stroke="#191970" points="2740.1983,-930.2012 2749.7489,-925.6147 2739.4226,-923.2443 2740.1983,-930.2012"/>
</g>
<!-- Node5 -->
<g id="node6" class="node">
<title>Node5</title>
<g id="a_node6"><a xlink:href="TAttLine_8h.html" target="_top" xlink:title="TAttLine.h">
<polygon fill="#ffffff" stroke="#000000" points="0,-851.5 0,-870.5 65,-870.5 65,-851.5 0,-851.5"/>
<text text-anchor="middle" x="32.5" y="-858.5" font-family="Helvetica,sans-Serif" font-size="10.00" fill="#000000">TAttLine.h</text>
</a>
</g>
</g>
<!-- Node0&#45;&gt;Node5 -->
<g id="edge5" class="edge">
<title>Node0&#45;&gt;Node5</title>
<path fill="none" stroke="#191970" d="M459.1013,-969.7643C352.5204,-962.7258 114.6584,-945.1898 82.5,-927 63.6143,-916.3177 49.6172,-895.2885 41.3093,-879.827"/>
<polygon fill="#191970" stroke="#191970" points="44.3031,-877.9902 36.6771,-870.6352 38.052,-881.1405 44.3031,-877.9902"/>
</g>
<!-- Node25 -->
<g id="node26" class="node">
<title>Node25</title>
<g id="a_node26"><a xlink:href="TAttFill_8h.html" target="_top" xlink:title="TAttFill.h">
<polygon fill="#ffffff" stroke="#000000" points="218,-851.5 218,-870.5 277,-870.5 277,-851.5 218,-851.5"/>
<text text-anchor="middle" x="247.5" y="-858.5" font-family="Helvetica,sans-Serif" font-size="10.00" fill="#000000">TAttFill.h</text>
</a>
</g>
</g>
<!-- Node0&#45;&gt;Node25 -->
<g id="edge31" class="edge">
<title>Node0&#45;&gt;Node25</title>
<path fill="none" stroke="#191970" d="M459.4887,-966.8126C403.6315,-959.2587 318.407,-945.2079 291.5,-927 274.6345,-915.5871 262.572,-895.3374 255.3912,-880.2679"/>
<polygon fill="#191970" stroke="#191970" points="258.4592,-878.5529 251.2007,-870.835 252.062,-881.3948 258.4592,-878.5529"/>
</g>
<!-- Node26 -->
<g id="node27" class="node">
<title>Node26</title>
<g id="a_node27"><a xlink:href="TAttMarker_8h.html" target="_top" xlink:title="TAttMarker.h">
<polygon fill="#ffffff" stroke="#000000" points="393.5,-795.5 393.5,-814.5 471.5,-814.5 471.5,-795.5 393.5,-795.5"/>
<text text-anchor="middle" x="432.5" y="-802.5" font-family="Helvetica,sans-Serif" font-size="10.00" fill="#000000">TAttMarker.h</text>
</a>
</g>
</g>
<!-- Node0&#45;&gt;Node26 -->
<g id="edge33" class="edge">
<title>Node0&#45;&gt;Node26</title>
<path fill="none" stroke="#191970" d="M506.0829,-963.4862C493.6462,-936.6994 458.1548,-860.2565 441.4277,-824.2289"/>
<polygon fill="#191970" stroke="#191970" points="444.4486,-822.4241 437.0629,-814.8279 438.0996,-825.3719 444.4486,-822.4241"/>
</g>
<!-- Node27 -->
<g id="node28" class="node">
<title>Node27</title>
<g id="a_node28"><a xlink:href="TROOT_8h.html" target="_top" xlink:title="TROOT.h">
<polygon fill="#ffffff" stroke="#000000" points="1240.5,-907.5 1240.5,-926.5 1298.5,-926.5 1298.5,-907.5 1240.5,-907.5"/>
<text text-anchor="middle" x="1269.5" y="-914.5" font-family="Helvetica,sans-Serif" font-size="10.00" fill="#000000">TROOT.h</text>
</a>
</g>
</g>
<!-- Node0&#45;&gt;Node27 -->
<g id="edge35" class="edge">
<title>Node0&#45;&gt;Node27</title>
<path fill="none" stroke="#191970" d="M561.7752,-969.2169C704.2959,-958.7015 1103.0371,-929.2819 1230.0837,-919.9082"/>
<polygon fill="#191970" stroke="#191970" points="1230.4272,-923.3924 1240.1425,-919.166 1229.9121,-916.4114 1230.4272,-923.3924"/>
</g>
<!-- Node75 -->
<g id="node76" class="node">
<title>Node75</title>
<g id="a_node76"><a xlink:href="TF1AbsComposition_8h.html" target="_top" xlink:title="TF1AbsComposition.h">
<polygon fill="#ffffff" stroke="#000000" points="1259.5,-459.5 1259.5,-478.5 1381.5,-478.5 1381.5,-459.5 1259.5,-459.5"/>
<text text-anchor="middle" x="1320.5" y="-466.5" font-family="Helvetica,sans-Serif" font-size="10.00" fill="#000000">TF1AbsComposition.h</text>
</a>
</g>
</g>
<!-- Node0&#45;&gt;Node75 -->
<g id="edge144" class="edge">
<title>Node0&#45;&gt;Node75</title>
<path fill="none" stroke="#191970" d="M531.8108,-963.4567C637.4064,-915.8553 1099.5,-703.7356 1099.5,-637 1099.5,-637 1099.5,-637 1099.5,-581 1099.5,-512.7125 1184.4918,-486.0484 1249.0612,-475.6446"/>
<polygon fill="#191970" stroke="#191970" points="1249.8665,-479.0628 1259.2327,-474.1105 1248.8225,-472.141 1249.8665,-479.0628"/>
</g>
<!-- Node77 -->
<g id="node78" class="node">
<title>Node77</title>
<g id="a_node78"><a xlink:href="TMath_8h.html" target="_top" xlink:title="TMath.h">
<polygon fill="#ffffff" stroke="#000000" points="787.5,-403.5 787.5,-422.5 843.5,-422.5 843.5,-403.5 787.5,-403.5"/>
<text text-anchor="middle" x="815.5" y="-410.5" font-family="Helvetica,sans-Serif" font-size="10.00" fill="#000000">TMath.h</text>
</a>
</g>
</g>
<!-- Node0&#45;&gt;Node77 -->
<g id="edge148" class="edge">
<title>Node0&#45;&gt;Node77</title>
<path fill="none" stroke="#191970" d="M512.5294,-963.2254C518.8085,-932.0981 537.5,-832.4329 537.5,-749 537.5,-749 537.5,-749 537.5,-525 537.5,-473.9373 700.9054,-435.3391 777.1588,-420.1071"/>
<polygon fill="#191970" stroke="#191970" points="778.1753,-423.4745 787.314,-418.114 776.8271,-416.6055 778.1753,-423.4745"/>
</g>
<!-- Node81 -->
<g id="node82" class="node">
<title>Node81</title>
<g id="a_node82"><a xlink:href="math_2mathcore_2inc_2Math_2Types_8h.html" target="_top" xlink:title="Math/Types.h">
<polygon fill="#ffffff" stroke="#000000" points="188.5,-342 188.5,-361 268.5,-361 268.5,-342 188.5,-342"/>
<text text-anchor="middle" x="228.5" y="-349" font-family="Helvetica,sans-Serif" font-size="10.00" fill="#000000">Math/Types.h</text>
</a>
</g>
</g>
<!-- Node0&#45;&gt;Node81 -->
<g id="edge158" class="edge">
<title>Node0&#45;&gt;Node81</title>
<path fill="none" stroke="#191970" d="M502.063,-963.3722C481.0764,-939.2281 425.2758,-873.8223 384.5,-815 351.4543,-767.329 339.5587,-756.6466 317.5,-703 275.0309,-599.7155 285.781,-567.0347 257.5,-459 253.2947,-442.9355 251.8547,-439.0247 247.5,-423 242.7225,-405.4192 237.4061,-385.37 233.6148,-370.9851"/>
<polygon fill="#191970" stroke="#191970" points="236.976,-370.0043 231.047,-361.2238 230.2063,-371.7852 236.976,-370.0043"/>
</g>
<!-- Node82 -->
<g id="node83" class="node">
<title>Node82</title>
<g id="a_node83"><a xlink:href="ParamFunctor_8h.html" target="_top" xlink:title="Math/ParamFunctor.h">
<polygon fill="#ffffff" stroke="#000000" points="130.5,-459.5 130.5,-478.5 248.5,-478.5 248.5,-459.5 130.5,-459.5"/>
<text text-anchor="middle" x="189.5" y="-466.5" font-family="Helvetica,sans-Serif" font-size="10.00" fill="#000000">Math/ParamFunctor.h</text>
</a>
</g>
</g>
<!-- Node0&#45;&gt;Node82 -->
<g id="edge161" class="edge">
<title>Node0&#45;&gt;Node82</title>
<path fill="none" stroke="#191970" d="M459.416,-966.4499C398.4994,-958.1 300.7377,-942.8378 267.5,-927 226.5045,-907.4656 189.5,-906.4117 189.5,-861 189.5,-861 189.5,-861 189.5,-581 189.5,-548.7116 189.5,-511.1872 189.5,-488.8048"/>
<polygon fill="#191970" stroke="#191970" points="193.0001,-488.5883 189.5,-478.5884 186.0001,-488.5884 193.0001,-488.5883"/>
</g>
<!-- Node6 -->
<g id="node7" class="node">
<title>Node6</title>
<g id="a_node7"><a xlink:href="Rtypes_8h.html" target="_top" xlink:title="Rtypes.h">
<polygon fill="#ffffff" stroke="#000000" points="643,-280.5 643,-299.5 702,-299.5 702,-280.5 643,-280.5"/>
<text text-anchor="middle" x="672.5" y="-287.5" font-family="Helvetica,sans-Serif" font-size="10.00" fill="#000000">Rtypes.h</text>
</a>
</g>
</g>
<!-- Node5&#45;&gt;Node6 -->
<g id="edge6" class="edge">
<title>Node5&#45;&gt;Node6</title>
<path fill="none" stroke="#191970" d="M32.2134,-851.4127C31.6604,-832.0567 30.5,-786.9227 30.5,-749 30.5,-749 30.5,-749 30.5,-469 30.5,-380.2334 94.3006,-360.9112 179.5,-336 264.3672,-311.1859 531.1973,-296.5476 632.7383,-291.7547"/>
<polygon fill="#191970" stroke="#191970" points="633.0558,-295.2439 642.8823,-291.2829 632.7304,-288.2514 633.0558,-295.2439"/>
</g>
<!-- Node7 -->
<g id="node8" class="node">
<title>Node7</title>
<g id="a_node8"><a xlink:href="RtypesCore_8h.html" target="_top" xlink:title="RtypesCore.h">
<polygon fill="#ffffff" stroke="#000000" points="788.5,-112.5 788.5,-131.5 870.5,-131.5 870.5,-112.5 788.5,-112.5"/>
<text text-anchor="middle" x="829.5" y="-119.5" font-family="Helvetica,sans-Serif" font-size="10.00" fill="#000000">RtypesCore.h</text>
</a>
</g>
</g>
<!-- Node6&#45;&gt;Node7 -->
<g id="edge7" class="edge">
<title>Node6&#45;&gt;Node7</title>
<path fill="none" stroke="#191970" d="M642.9765,-288.075C558.8951,-282.3628 322.4211,-264.6157 294.5,-244 265.8942,-222.8788 245.4076,-194.1525 269.5,-168 303.5661,-131.0209 645.9623,-123.769 777.9739,-122.3469"/>
<polygon fill="#191970" stroke="#191970" points="778.2616,-125.8442 788.2258,-122.2437 778.191,-118.8446 778.2616,-125.8442"/>
</g>
<!-- Node11 -->
<g id="node12" class="node">
<title>Node11</title>
<g id="a_node12"><a xlink:href="DllImport_8h.html" target="_top" xlink:title="DllImport.h">
<polygon fill="#ffffff" stroke="#000000" points="537,-224.5 537,-243.5 608,-243.5 608,-224.5 537,-224.5"/>
<text text-anchor="middle" x="572.5" y="-231.5" font-family="Helvetica,sans-Serif" font-size="10.00" fill="#000000">DllImport.h</text>
</a>
</g>
</g>
<!-- Node6&#45;&gt;Node11 -->
<g id="edge12" class="edge">
<title>Node6&#45;&gt;Node11</title>
<path fill="none" stroke="#191970" d="M655.0813,-280.2455C639.4515,-271.4928 616.2981,-258.527 598.4815,-248.5496"/>
<polygon fill="#191970" stroke="#191970" points="600.1543,-245.475 589.7191,-243.6427 596.734,-251.5825 600.1543,-245.475"/>
</g>
<!-- Node12 -->
<g id="node13" class="node">
<title>Node12</title>
<polygon fill="#ffffff" stroke="#bfbfbf" points="626.5,-224.5 626.5,-243.5 688.5,-243.5 688.5,-224.5 626.5,-224.5"/>
<text text-anchor="middle" x="657.5" y="-231.5" font-family="Helvetica,sans-Serif" font-size="10.00" fill="#000000">snprintf.h</text>
</g>
<!-- Node6&#45;&gt;Node12 -->
<g id="edge13" class="edge">
<title>Node6&#45;&gt;Node12</title>
<path fill="none" stroke="#191970" d="M669.8872,-280.2455C667.9084,-272.8579 665.1256,-262.4689 662.6988,-253.4087"/>
<polygon fill="#191970" stroke="#191970" points="666.0511,-252.3966 660.0829,-243.6427 659.2895,-254.2078 666.0511,-252.3966"/>
</g>
<!-- Node13 -->
<g id="node14" class="node">
<title>Node13</title>
<polygon fill="#ffffff" stroke="#bfbfbf" points="707,-224.5 707,-243.5 764,-243.5 764,-224.5 707,-224.5"/>
<text text-anchor="middle" x="735.5" y="-231.5" font-family="Helvetica,sans-Serif" font-size="10.00" fill="#000000">strlcpy.h</text>
</g>
<!-- Node6&#45;&gt;Node13 -->
<g id="edge14" class="edge">
<title>Node6&#45;&gt;Node13</title>
<path fill="none" stroke="#191970" d="M683.4738,-280.2455C692.6882,-272.0549 706.0532,-260.1749 716.9297,-250.5069"/>
<polygon fill="#191970" stroke="#191970" points="719.5032,-252.9023 724.652,-243.6427 714.8526,-247.6704 719.5032,-252.9023"/>
</g>
<!-- Node14 -->
<g id="node15" class="node">
<title>Node14</title>
<polygon fill="#ffffff" stroke="#bfbfbf" points="515.5,-168.5 515.5,-187.5 565.5,-187.5 565.5,-168.5 515.5,-168.5"/>
<text text-anchor="middle" x="540.5" y="-175.5" font-family="Helvetica,sans-Serif" font-size="10.00" fill="#000000">atomic</text>
</g>
<!-- Node6&#45;&gt;Node14 -->
<g id="edge15" class="edge">
<title>Node6&#45;&gt;Node14</title>
<path fill="none" stroke="#191970" d="M642.7676,-284.7319C604.7185,-277.3151 542.0826,-262.5977 528.5,-244 518.551,-230.3775 523.7017,-211.0419 530.0503,-196.8189"/>
<polygon fill="#191970" stroke="#191970" points="533.3564,-198.0319 534.6861,-187.5208 527.0918,-194.9086 533.3564,-198.0319"/>
</g>
<!-- Node15 -->
<g id="node16" class="node">
<title>Node15</title>
<polygon fill="#ffffff" stroke="#bfbfbf" points="1181.5,-224.5 1181.5,-243.5 1231.5,-243.5 1231.5,-224.5 1181.5,-224.5"/>
<text text-anchor="middle" x="1206.5" y="-231.5" font-family="Helvetica,sans-Serif" font-size="10.00" fill="#000000">stdio.h</text>
</g>
<!-- Node6&#45;&gt;Node15 -->
<g id="edge16" class="edge">
<title>Node6&#45;&gt;Node15</title>
<path fill="none" stroke="#191970" d="M702.3544,-286.8692C794.2223,-277.2351 1072.4344,-248.0593 1171.2286,-237.6989"/>
<polygon fill="#191970" stroke="#191970" points="1171.7153,-241.1671 1181.2957,-236.6431 1170.9852,-234.2053 1171.7153,-241.1671"/>
</g>
<!-- Node16 -->
<g id="node17" class="node">
<title>Node16</title>
<polygon fill="#ffffff" stroke="#bfbfbf" points="915,-224.5 915,-243.5 968,-243.5 968,-224.5 915,-224.5"/>
<text text-anchor="middle" x="941.5" y="-231.5" font-family="Helvetica,sans-Serif" font-size="10.00" fill="#000000">string.h</text>
</g>
<!-- Node6&#45;&gt;Node16 -->
<g id="edge17" class="edge">
<title>Node6&#45;&gt;Node16</title>
<path fill="none" stroke="#191970" d="M702.08,-284.9046C744.6562,-277.4096 825.8678,-262.5147 904.7207,-244.0432"/>
<polygon fill="#191970" stroke="#191970" points="905.8963,-247.3617 914.8221,-241.6538 904.285,-240.5497 905.8963,-247.3617"/>
</g>
<!-- Node17 -->
<g id="node18" class="node">
<title>Node17</title>
<polygon fill="#ffffff" stroke="#bfbfbf" points="278,-168.5 278,-187.5 335,-187.5 335,-168.5 278,-168.5"/>
<text text-anchor="middle" x="306.5" y="-175.5" font-family="Helvetica,sans-Serif" font-size="10.00" fill="#000000">typeinfo</text>
</g>
<!-- Node6&#45;&gt;Node17 -->
<g id="edge18" class="edge">
<title>Node6&#45;&gt;Node17</title>
<path fill="none" stroke="#191970" d="M642.9559,-288.4649C560.0515,-283.86 329.8151,-268.9208 307.5,-244 296.5348,-231.7544 297.5433,-212.5113 300.5502,-197.9565"/>
<polygon fill="#191970" stroke="#191970" points="304.0261,-198.4858 303.0738,-187.9338 297.238,-196.7765 304.0261,-198.4858"/>
</g>
<!-- Node18 -->
<g id="node19" class="node">
<title>Node18</title>
<polygon fill="#ffffff" stroke="#bfbfbf" points="1440,-224.5 1440,-243.5 1509,-243.5 1509,-224.5 1440,-224.5"/>
<text text-anchor="middle" x="1474.5" y="-231.5" font-family="Helvetica,sans-Serif" font-size="10.00" fill="#000000">type_traits</text>
</g>
<!-- Node6&#45;&gt;Node18 -->
<g id="edge19" class="edge">
<title>Node6&#45;&gt;Node18</title>
<path fill="none" stroke="#191970" d="M702.4756,-287.9069C824.4035,-279.3933 1283.5435,-247.3336 1429.5957,-237.1355"/>
<polygon fill="#191970" stroke="#191970" points="1430.2303,-240.5998 1439.9622,-236.4116 1429.7427,-233.6168 1430.2303,-240.5998"/>
</g>
<!-- Node19 -->
<g id="node20" class="node">
<title>Node19</title>
<g id="a_node20"><a xlink:href="TGenericClassInfo_8h.html" target="_top" xlink:title="TGenericClassInfo.h">
<polygon fill="#ffffff" stroke="#000000" points="782.5,-224.5 782.5,-243.5 896.5,-243.5 896.5,-224.5 782.5,-224.5"/>
<text text-anchor="middle" x="839.5" y="-231.5" font-family="Helvetica,sans-Serif" font-size="10.00" fill="#000000">TGenericClassInfo.h</text>
</a>
</g>
</g>
<!-- Node6&#45;&gt;Node19 -->
<g id="edge20" class="edge">
<title>Node6&#45;&gt;Node19</title>
<path fill="none" stroke="#191970" d="M695.9663,-280.3733C722.0265,-271.021 764.3527,-256.7725 796.3722,-246.5385"/>
<polygon fill="#191970" stroke="#191970" points="797.4751,-249.8606 805.949,-243.5011 795.3588,-243.1881 797.4751,-249.8606"/>
</g>
<!-- Node23 -->
<g id="node24" class="node">
<title>Node23</title>
<g id="a_node24"><a xlink:href="TIsAProxy_8h.html" target="_top" xlink:title="TIsAProxy.h">
<polygon fill="#ffffff" stroke="#000000" points="316,-224.5 316,-243.5 389,-243.5 389,-224.5 316,-224.5"/>
<text text-anchor="middle" x="352.5" y="-231.5" font-family="Helvetica,sans-Serif" font-size="10.00" fill="#000000">TIsAProxy.h</text>
</a>
</g>
</g>
<!-- Node6&#45;&gt;Node23 -->
<g id="edge26" class="edge">
<title>Node6&#45;&gt;Node23</title>
<path fill="none" stroke="#191970" d="M642.9688,-284.832C587.1916,-275.071 465.9609,-253.8557 399.0982,-242.1547"/>
<polygon fill="#191970" stroke="#191970" points="399.7008,-238.707 389.2471,-240.4307 398.494,-245.6022 399.7008,-238.707"/>
</g>
<!-- Node8 -->
<g id="node9" class="node">
<title>Node8</title>
<g id="a_node9"><a xlink:href="RConfig_8hxx.html" target="_top" xlink:title="ROOT/RConfig.hxx">
<polygon fill="#ffffff" stroke="#000000" points="876,-56.5 876,-75.5 981,-75.5 981,-56.5 876,-56.5"/>
<text text-anchor="middle" x="928.5" y="-63.5" font-family="Helvetica,sans-Serif" font-size="10.00" fill="#000000">ROOT/RConfig.hxx</text>
</a>
</g>
</g>
<!-- Node7&#45;&gt;Node8 -->
<g id="edge8" class="edge">
<title>Node7&#45;&gt;Node8</title>
<path fill="none" stroke="#191970" d="M846.7445,-112.2455C862.0761,-103.5731 884.7199,-90.7645 902.2916,-80.825"/>
<polygon fill="#191970" stroke="#191970" points="904.4724,-83.6126 911.4531,-75.6427 901.0259,-77.5198 904.4724,-83.6126"/>
</g>
<!-- Node10 -->
<g id="node11" class="node">
<title>Node10</title>
<polygon fill="#ffffff" stroke="#bfbfbf" points="801.5,-56.5 801.5,-75.5 857.5,-75.5 857.5,-56.5 801.5,-56.5"/>
<text text-anchor="middle" x="829.5" y="-63.5" font-family="Helvetica,sans-Serif" font-size="10.00" fill="#000000">stddef.h</text>
</g>
<!-- Node7&#45;&gt;Node10 -->
<g id="edge11" class="edge">
<title>Node7&#45;&gt;Node10</title>
<path fill="none" stroke="#191970" d="M829.5,-112.2455C829.5,-104.9382 829.5,-94.6944 829.5,-85.7046"/>
<polygon fill="#191970" stroke="#191970" points="833.0001,-85.6426 829.5,-75.6427 826.0001,-85.6427 833.0001,-85.6426"/>
</g>
<!-- Node8&#45;&gt;Node1 -->
<g id="edge10" class="edge">
<title>Node8&#45;&gt;Node1</title>
<path fill="none" stroke="#191970" d="M981.238,-57.306C984.3694,-56.8481 987.4747,-56.409 990.5,-56 1124.5592,-37.8769 1283.3834,-22.0434 1362.1279,-14.5696"/>
<polygon fill="#191970" stroke="#191970" points="1362.6142,-18.0394 1372.2405,-13.6141 1361.9556,-11.0704 1362.6142,-18.0394"/>
</g>
<!-- Node9 -->
<g id="node10" class="node">
<title>Node9</title>
<g id="a_node10"><a xlink:href="RVersion_8h.html" target="_top" xlink:title="../RVersion.h">
<polygon fill="#ffffff" stroke="#000000" points="950,-.5 950,-19.5 1027,-19.5 1027,-.5 950,-.5"/>
<text text-anchor="middle" x="988.5" y="-7.5" font-family="Helvetica,sans-Serif" font-size="10.00" fill="#000000">../RVersion.h</text>
</a>
</g>
</g>
<!-- Node8&#45;&gt;Node9 -->
<g id="edge9" class="edge">
<title>Node8&#45;&gt;Node9</title>
<path fill="none" stroke="#191970" d="M938.9512,-56.2455C947.7269,-48.0549 960.4554,-36.1749 970.814,-26.5069"/>
<polygon fill="#191970" stroke="#191970" points="973.2461,-29.0246 978.1686,-19.6427 968.4699,-23.9072 973.2461,-29.0246"/>
</g>
<!-- Node19&#45;&gt;Node6 -->
<g id="edge25" class="edge">
<title>Node19&#45;&gt;Node6</title>
<path fill="none" stroke="#191970" d="M816.3408,-243.5165C789.2482,-253.247 744.2861,-268.3603 711.7588,-278.6945"/>
<polygon fill="#191970" stroke="#191970" points="710.5838,-275.395 702.0968,-281.737 712.6864,-282.0718 710.5838,-275.395"/>
</g>
<!-- Node20 -->
<g id="node21" class="node">
<title>Node20</title>
<polygon fill="#ffffff" stroke="#bfbfbf" points="1929,-168.5 1929,-187.5 1976,-187.5 1976,-168.5 1929,-168.5"/>
<text text-anchor="middle" x="1952.5" y="-175.5" font-family="Helvetica,sans-Serif" font-size="10.00" fill="#000000">vector</text>
</g>
<!-- Node19&#45;&gt;Node20 -->
<g id="edge21" class="edge">
<title>Node19&#45;&gt;Node20</title>
<path fill="none" stroke="#191970" d="M896.8337,-225.0413C900.0999,-224.6561 903.3392,-224.3045 906.5,-224 1303.3516,-185.763 1788.0068,-179.2801 1918.6969,-178.2074"/>
<polygon fill="#191970" stroke="#191970" points="1918.8972,-181.7061 1928.87,-178.1292 1918.8433,-174.7063 1918.8972,-181.7061"/>
</g>
<!-- Node21 -->
<g id="node22" class="node">
<title>Node21</title>
<g id="a_node22"><a xlink:href="TSchemaHelper_8h.html" target="_top" xlink:title="TSchemaHelper.h">
<polygon fill="#ffffff" stroke="#000000" points="788.5,-168.5 788.5,-187.5 890.5,-187.5 890.5,-168.5 788.5,-168.5"/>
<text text-anchor="middle" x="839.5" y="-175.5" font-family="Helvetica,sans-Serif" font-size="10.00" fill="#000000">TSchemaHelper.h</text>
</a>
</g>
</g>
<!-- Node19&#45;&gt;Node21 -->
<g id="edge22" class="edge">
<title>Node19&#45;&gt;Node21</title>
<path fill="none" stroke="#191970" d="M839.5,-224.2455C839.5,-216.9382 839.5,-206.6944 839.5,-197.7046"/>
<polygon fill="#191970" stroke="#191970" points="843.0001,-197.6426 839.5,-187.6427 836.0001,-197.6427 843.0001,-197.6426"/>
</g>
<!-- Node21&#45;&gt;Node7 -->
<g id="edge23" class="edge">
<title>Node21&#45;&gt;Node7</title>
<path fill="none" stroke="#191970" d="M837.7581,-168.2455C836.4533,-160.9382 834.624,-150.6944 833.0187,-141.7046"/>
<polygon fill="#191970" stroke="#191970" points="836.4254,-140.8717 831.2219,-131.6427 829.5344,-142.1022 836.4254,-140.8717"/>
</g>
<!-- Node22 -->
<g id="node23" class="node">
<title>Node22</title>
<polygon fill="#ffffff" stroke="#bfbfbf" points="1288.5,-112.5 1288.5,-131.5 1332.5,-131.5 1332.5,-112.5 1288.5,-112.5"/>
<text text-anchor="middle" x="1310.5" y="-119.5" font-family="Helvetica,sans-Serif" font-size="10.00" fill="#000000">string</text>
</g>
<!-- Node21&#45;&gt;Node22 -->
<g id="edge24" class="edge">
<title>Node21&#45;&gt;Node22</title>
<path fill="none" stroke="#191970" d="M890.8019,-171.9004C988.3483,-160.3025 1197.9911,-135.3769 1278.2947,-125.8291"/>
<polygon fill="#191970" stroke="#191970" points="1278.7902,-129.2949 1288.307,-124.6387 1277.9637,-122.3439 1278.7902,-129.2949"/>
</g>
<!-- Node23&#45;&gt;Node7 -->
<g id="edge28" class="edge">
<title>Node23&#45;&gt;Node7</title>
<path fill="none" stroke="#191970" d="M353.9695,-224.4738C356.8005,-209.6791 364.5048,-181.4816 383.5,-168 415.1313,-145.5501 667.8764,-130.1733 778.2439,-124.4648"/>
<polygon fill="#191970" stroke="#191970" points="778.6595,-127.9482 788.4679,-123.9426 778.3024,-120.9573 778.6595,-127.9482"/>
</g>
<!-- Node23&#45;&gt;Node14 -->
<g id="edge29" class="edge">
<title>Node23&#45;&gt;Node14</title>
<path fill="none" stroke="#191970" d="M384.8184,-224.3733C418.4527,-214.3545 470.9506,-198.7168 505.5358,-188.4149"/>
<polygon fill="#191970" stroke="#191970" points="506.634,-191.7398 515.2187,-185.5306 504.6357,-185.0311 506.634,-191.7398"/>
</g>
<!-- Node23&#45;&gt;Node17 -->
<g id="edge30" class="edge">
<title>Node23&#45;&gt;Node17</title>
<path fill="none" stroke="#191970" d="M344.4874,-224.2455C338.0232,-216.3761 328.7615,-205.101 321.0017,-195.6542"/>
<polygon fill="#191970" stroke="#191970" points="323.4727,-193.1484 314.4208,-187.6427 318.0636,-197.5916 323.4727,-193.1484"/>
</g>
<!-- Node24 -->
<g id="node25" class="node">
<title>Node24</title>
<g id="a_node25"><a xlink:href="TVirtualIsAProxy_8h.html" target="_top" xlink:title="TVirtualIsAProxy.h">
<polygon fill="#ffffff" stroke="#000000" points="392,-168.5 392,-187.5 497,-187.5 497,-168.5 392,-168.5"/>
<text text-anchor="middle" x="444.5" y="-175.5" font-family="Helvetica,sans-Serif" font-size="10.00" fill="#000000">TVirtualIsAProxy.h</text>
</a>
</g>
</g>
<!-- Node23&#45;&gt;Node24 -->
<g id="edge27" class="edge">
<title>Node23&#45;&gt;Node24</title>
<path fill="none" stroke="#191970" d="M368.5252,-224.2455C382.6408,-215.6534 403.4263,-203.0014 419.6899,-193.1018"/>
<polygon fill="#191970" stroke="#191970" points="421.9363,-195.8319 428.6585,-187.6427 418.2966,-189.8525 421.9363,-195.8319"/>
</g>
<!-- Node25&#45;&gt;Node6 -->
<g id="edge32" class="edge">
<title>Node25&#45;&gt;Node6</title>
<path fill="none" stroke="#191970" d="M252.5084,-851.2487C264.9007,-826.8226 297.4418,-760.8241 317.5,-703 372.6812,-543.9225 287.9862,-450.4332 411.5,-336 442.9922,-306.8231 567.2591,-295.7403 632.3105,-291.8758"/>
<polygon fill="#191970" stroke="#191970" points="632.8109,-295.3533 642.5979,-291.2957 632.4167,-288.3644 632.8109,-295.3533"/>
</g>
<!-- Node26&#45;&gt;Node6 -->
<g id="edge34" class="edge">
<title>Node26&#45;&gt;Node6</title>
<path fill="none" stroke="#191970" d="M430.7807,-795.4486C427.4626,-776.1572 420.5,-731.1337 420.5,-693 420.5,-693 420.5,-693 420.5,-469 420.5,-409.5623 394.3177,-379.7976 434.5,-336 460.6551,-307.4917 572.0087,-296.2053 632.6873,-292.1082"/>
<polygon fill="#191970" stroke="#191970" points="632.9276,-295.6001 642.6832,-291.4674 632.4797,-288.6144 632.9276,-295.6001"/>
</g>
<!-- Node27&#45;&gt;Node1 -->
<g id="edge140" class="edge">
<title>Node27&#45;&gt;Node1</title>
<path fill="none" stroke="#191970" d="M1298.8173,-916.2024C1442.1634,-912.2171 2070.2029,-893.7487 2264.5,-871 2421.2894,-852.6428 2613.5,-962.8604 2613.5,-805 2613.5,-805 2613.5,-805 2613.5,-122 2613.5,-111.5121 2630.0402,-96.1829 2303.5,-56 2138.3113,-35.6725 1622.968,-17.0916 1460.843,-11.6209"/>
<polygon fill="#191970" stroke="#191970" points="1460.7942,-8.1173 1450.6823,-11.2796 1460.5592,-15.1134 1460.7942,-8.1173"/>
</g>
<!-- Node27&#45;&gt;Node14 -->
<g id="edge141" class="edge">
<title>Node27&#45;&gt;Node14</title>
<path fill="none" stroke="#191970" d="M1240.2219,-915.1046C1158.5562,-909.6007 929.5347,-892.6261 857.5,-871 700.2506,-823.791 648.0465,-815.5375 528.5,-703 407.7125,-589.2943 421.9793,-497.3529 460.5,-336 473.5214,-281.4568 508.5939,-224.4358 527.6885,-196.1514"/>
<polygon fill="#191970" stroke="#191970" points="530.7138,-197.929 533.4966,-187.7061 524.9461,-193.9624 530.7138,-197.929"/>
</g>
<!-- Node27&#45;&gt;Node20 -->
<g id="edge143" class="edge">
<title>Node27&#45;&gt;Node20</title>
<path fill="none" stroke="#191970" d="M1298.5713,-916.0199C1488.6531,-909.4261 2546.5,-869.8184 2546.5,-805 2546.5,-805 2546.5,-805 2546.5,-351.5 2546.5,-279.2081 2509.0477,-258.4647 2445.5,-224 2405.2739,-202.1836 2090.8765,-184.8345 1986.2422,-179.615"/>
<polygon fill="#191970" stroke="#191970" points="1986.3839,-176.1178 1976.2235,-179.1205 1986.0387,-183.1093 1986.3839,-176.1178"/>
</g>
<!-- Node27&#45;&gt;Node22 -->
<g id="edge142" class="edge">
<title>Node27&#45;&gt;Node22</title>
<path fill="none" stroke="#191970" d="M1240.2341,-915.1001C1148.3209,-908.3417 871.5,-881.6262 871.5,-805 871.5,-805 871.5,-805 871.5,-413 871.5,-343.5571 895.098,-317.5702 953.5,-280 1064.9608,-208.2969 1214.4323,-153.9494 1278.8182,-132.2778"/>
<polygon fill="#191970" stroke="#191970" points="1280.0227,-135.5657 1288.4024,-129.0825 1277.8087,-128.925 1280.0227,-135.5657"/>
</g>
<!-- Node28 -->
<g id="node29" class="node">
<title>Node28</title>
<g id="a_node29"><a xlink:href="TDirectory_8h.html" target="_top" xlink:title="TDirectory.h">
<polygon fill="#ffffff" stroke="#000000" points="1232,-851.5 1232,-870.5 1307,-870.5 1307,-851.5 1232,-851.5"/>
<text text-anchor="middle" x="1269.5" y="-858.5" font-family="Helvetica,sans-Serif" font-size="10.00" fill="#000000">TDirectory.h</text>
</a>
</g>
</g>
<!-- Node27&#45;&gt;Node28 -->
<g id="edge36" class="edge">
<title>Node27&#45;&gt;Node28</title>
<path fill="none" stroke="#191970" d="M1269.5,-907.2455C1269.5,-899.9382 1269.5,-889.6944 1269.5,-880.7046"/>
<polygon fill="#191970" stroke="#191970" points="1273.0001,-880.6426 1269.5,-870.6427 1266.0001,-880.6427 1273.0001,-880.6426"/>
</g>
<!-- Node72 -->
<g id="node73" class="node">
<title>Node72</title>
<g id="a_node73"><a xlink:href="TList_8h.html" target="_top" xlink:title="TList.h">
<polygon fill="#ffffff" stroke="#000000" points="1981,-683.5 1981,-702.5 2030,-702.5 2030,-683.5 1981,-683.5"/>
<text text-anchor="middle" x="2005.5" y="-690.5" font-family="Helvetica,sans-Serif" font-size="10.00" fill="#000000">TList.h</text>
</a>
</g>
</g>
<!-- Node27&#45;&gt;Node72 -->
<g id="edge139" class="edge">
<title>Node27&#45;&gt;Node72</title>
<path fill="none" stroke="#191970" d="M1298.7958,-911.1148C1386.1795,-893.1578 1652.0517,-835.593 1863.5,-759 1904.6561,-744.092 1950.2157,-721.8277 1978.3581,-707.3584"/>
<polygon fill="#191970" stroke="#191970" points="1980.285,-710.3019 1987.5503,-702.5904 1977.0618,-704.088 1980.285,-710.3019"/>
</g>
<!-- Node29 -->
<g id="node30" class="node">
<title>Node29</title>
<g id="a_node30"><a xlink:href="TBuffer_8h.html" target="_top" xlink:title="TBuffer.h">
<polygon fill="#ffffff" stroke="#000000" points="1406.5,-795.5 1406.5,-814.5 1466.5,-814.5 1466.5,-795.5 1406.5,-795.5"/>
<text text-anchor="middle" x="1436.5" y="-802.5" font-family="Helvetica,sans-Serif" font-size="10.00" fill="#000000">TBuffer.h</text>
</a>
</g>
</g>
<!-- Node28&#45;&gt;Node29 -->
<g id="edge37" class="edge">
<title>Node28&#45;&gt;Node29</title>
<path fill="none" stroke="#191970" d="M1298.2083,-851.3733C1325.8577,-842.1016 1367.8576,-828.0178 1398.3166,-817.804"/>
<polygon fill="#191970" stroke="#191970" points="1399.7979,-820.9989 1408.1663,-814.5011 1397.5724,-814.3621 1399.7979,-820.9989"/>
</g>
<!-- Node32 -->
<g id="node33" class="node">
<title>Node32</title>
<g id="a_node33"><a xlink:href="TNamed_8h.html" target="_top" xlink:title="TNamed.h">
<polygon fill="#ffffff" stroke="#000000" points="1408,-571.5 1408,-590.5 1475,-590.5 1475,-571.5 1408,-571.5"/>
<text text-anchor="middle" x="1441.5" y="-578.5" font-family="Helvetica,sans-Serif" font-size="10.00" fill="#000000">TNamed.h</text>
</a>
</g>
</g>
<!-- Node28&#45;&gt;Node32 -->
<g id="edge128" class="edge">
<title>Node28&#45;&gt;Node32</title>
<path fill="none" stroke="#191970" d="M1269.5,-851.4116C1269.5,-832.0538 1269.5,-786.9167 1269.5,-749 1269.5,-749 1269.5,-749 1269.5,-693 1269.5,-631.6986 1347.1718,-602.209 1398.1249,-589.4587"/>
<polygon fill="#191970" stroke="#191970" points="1399.0094,-592.8461 1407.9284,-587.1274 1397.3899,-586.036 1399.0094,-592.8461"/>
</g>
<!-- Node28&#45;&gt;Node72 -->
<g id="edge129" class="edge">
<title>Node28&#45;&gt;Node72</title>
<path fill="none" stroke="#191970" d="M1307.2263,-856.0571C1396.8762,-843.865 1629.3312,-809.626 1818.5,-759 1873.5232,-744.2745 1935.5301,-721.0164 1972.5127,-706.4047"/>
<polygon fill="#191970" stroke="#191970" points="1974.2572,-709.4775 1982.2535,-702.5271 1971.6681,-702.9739 1974.2572,-709.4775"/>
</g>
<!-- Node73 -->
<g id="node74" class="node">
<title>Node73</title>
<g id="a_node74"><a xlink:href="TDatime_8h.html" target="_top" xlink:title="TDatime.h">
<polygon fill="#ffffff" stroke="#000000" points="899.5,-342 899.5,-361 967.5,-361 967.5,-342 899.5,-342"/>
<text text-anchor="middle" x="933.5" y="-349" font-family="Helvetica,sans-Serif" font-size="10.00" fill="#000000">TDatime.h</text>
</a>
</g>
</g>
<!-- Node28&#45;&gt;Node73 -->
<g id="edge134" class="edge">
<title>Node28&#45;&gt;Node73</title>
<path fill="none" stroke="#191970" d="M1231.787,-854.3265C1154.5334,-839.5815 985.5,-801.3387 985.5,-749 985.5,-749 985.5,-749 985.5,-469 985.5,-430.9637 962.4319,-391.4702 947.0245,-369.3342"/>
<polygon fill="#191970" stroke="#191970" points="949.8618,-367.2847 941.1728,-361.2223 944.1847,-371.38 949.8618,-367.2847"/>
</g>
<!-- Node74 -->
<g id="node75" class="node">
<title>Node74</title>
<g id="a_node75"><a xlink:href="TUUID_8h.html" target="_top" xlink:title="TUUID.h">
<polygon fill="#ffffff" stroke="#000000" points="900,-795.5 900,-814.5 957,-814.5 957,-795.5 900,-795.5"/>
<text text-anchor="middle" x="928.5" y="-802.5" font-family="Helvetica,sans-Serif" font-size="10.00" fill="#000000">TUUID.h</text>
</a>
</g>
</g>
<!-- Node28&#45;&gt;Node74 -->
<g id="edge137" class="edge">
<title>Node28&#45;&gt;Node74</title>
<path fill="none" stroke="#191970" d="M1231.7091,-856.0963C1174.9788,-848.5252 1064.5315,-832.9714 971.5,-815 970.042,-814.7183 968.5583,-814.422 967.0613,-814.1149"/>
<polygon fill="#191970" stroke="#191970" points="967.6299,-810.6572 957.1169,-811.9717 966.155,-817.5 967.6299,-810.6572"/>
</g>
<!-- Node29&#45;&gt;Node20 -->
<g id="edge127" class="edge">
<title>Node29&#45;&gt;Node20</title>
<path fill="none" stroke="#191970" d="M1466.7486,-804.5414C1625.6871,-801.3465 2360.1669,-776.5724 2445.5,-591 2513.7789,-442.5152 2540.5964,-336.9733 2422.5,-224 2391.0651,-193.9287 2088.704,-182.1016 1986.2505,-178.9368"/>
<polygon fill="#191970" stroke="#191970" points="1986.2459,-175.4352 1976.1452,-178.6329 1986.0354,-182.432 1986.2459,-175.4352"/>
</g>
<!-- Node30 -->
<g id="node31" class="node">
<title>Node30</title>
<g id="a_node31"><a xlink:href="TDataType_8h.html" target="_top" xlink:title="TDataType.h">
<polygon fill="#ffffff" stroke="#000000" points="1732,-739.5 1732,-758.5 1809,-758.5 1809,-739.5 1732,-739.5"/>
<text text-anchor="middle" x="1770.5" y="-746.5" font-family="Helvetica,sans-Serif" font-size="10.00" fill="#000000">TDataType.h</text>
</a>
</g>
</g>
<!-- Node29&#45;&gt;Node30 -->
<g id="edge38" class="edge">
<title>Node29&#45;&gt;Node30</title>
<path fill="none" stroke="#191970" d="M1466.7294,-799.9316C1524.7365,-790.2059 1652.1026,-768.8511 1722.0824,-757.1179"/>
<polygon fill="#191970" stroke="#191970" points="1722.6922,-760.5646 1731.9758,-755.4592 1721.5347,-753.661 1722.6922,-760.5646"/>
</g>
<!-- Node33 -->
<g id="node34" class="node">
<title>Node33</title>
<g id="a_node34"><a xlink:href="TObject_8h.html" target="_top" xlink:title="TObject.h">
<polygon fill="#ffffff" stroke="#000000" points="1476,-403.5 1476,-422.5 1539,-422.5 1539,-403.5 1476,-403.5"/>
<text text-anchor="middle" x="1507.5" y="-410.5" font-family="Helvetica,sans-Serif" font-size="10.00" fill="#000000">TObject.h</text>
</a>
</g>
</g>
<!-- Node29&#45;&gt;Node33 -->
<g id="edge94" class="edge">
<title>Node29&#45;&gt;Node33</title>
<path fill="none" stroke="#191970" d="M1410.823,-795.443C1376.7809,-781.2045 1318.1444,-750.8499 1293.5,-703 1289.43,-695.0976 1292.1948,-691.7925 1293.5,-683 1301.1383,-631.5429 1301.8002,-616.2294 1327.5,-571 1344.1307,-541.7314 1353.8818,-537.9604 1378.5,-515 1413.9542,-481.9334 1459.1305,-447.8564 1485.533,-428.6575"/>
<polygon fill="#191970" stroke="#191970" points="1487.6687,-431.4325 1493.726,-422.7399 1483.57,-425.7578 1487.6687,-431.4325"/>
</g>
<!-- Node58 -->
<g id="node59" class="node">
<title>Node58</title>
<g id="a_node59"><a xlink:href="TClass_8h.html" target="_top" xlink:title="TClass.h">
<polygon fill="#ffffff" stroke="#000000" points="1517,-739.5 1517,-758.5 1574,-758.5 1574,-739.5 1517,-739.5"/>
<text text-anchor="middle" x="1545.5" y="-746.5" font-family="Helvetica,sans-Serif" font-size="10.00" fill="#000000">TClass.h</text>
</a>
</g>
</g>
<!-- Node29&#45;&gt;Node58 -->
<g id="edge95" class="edge">
<title>Node29&#45;&gt;Node58</title>
<path fill="none" stroke="#191970" d="M1455.4864,-795.2455C1472.6792,-786.4125 1498.2238,-773.2887 1517.7132,-763.2758"/>
<polygon fill="#191970" stroke="#191970" points="1519.4359,-766.3257 1526.7312,-758.6427 1516.237,-760.0993 1519.4359,-766.3257"/>
</g>
<!-- Node71 -->
<g id="node72" class="node">
<title>Node71</title>
<g id="a_node72"><a xlink:href="Bytes_8h.html" target="_top" xlink:title="Bytes.h">
<polygon fill="#ffffff" stroke="#000000" points="477,-342 477,-361 530,-361 530,-342 477,-342"/>
<text text-anchor="middle" x="503.5" y="-349" font-family="Helvetica,sans-Serif" font-size="10.00" fill="#000000">Bytes.h</text>
</a>
</g>
</g>
<!-- Node29&#45;&gt;Node71 -->
<g id="edge124" class="edge">
<title>Node29&#45;&gt;Node71</title>
<path fill="none" stroke="#191970" d="M1406.4654,-803.343C1311.427,-797.2897 1023.5,-772.3987 1023.5,-693 1023.5,-693 1023.5,-693 1023.5,-581 1023.5,-577.6437 647.5231,-414.0592 534.9655,-365.1616"/>
<polygon fill="#191970" stroke="#191970" points="536.0782,-361.829 525.5116,-361.0552 533.2893,-368.2495 536.0782,-361.829"/>
</g>
<!-- Node31 -->
<g id="node32" class="node">
<title>Node31</title>
<g id="a_node32"><a xlink:href="TDictionary_8h.html" target="_top" xlink:title="TDictionary.h">
<polygon fill="#ffffff" stroke="#000000" points="1870.5,-683.5 1870.5,-702.5 1950.5,-702.5 1950.5,-683.5 1870.5,-683.5"/>
<text text-anchor="middle" x="1910.5" y="-690.5" font-family="Helvetica,sans-Serif" font-size="10.00" fill="#000000">TDictionary.h</text>
</a>
</g>
</g>
<!-- Node30&#45;&gt;Node31 -->
<g id="edge39" class="edge">
<title>Node30&#45;&gt;Node31</title>
<path fill="none" stroke="#191970" d="M1794.5669,-739.3733C1817.3428,-730.2629 1851.7344,-716.5062 1877.149,-706.3404"/>
<polygon fill="#191970" stroke="#191970" points="1878.7623,-709.4648 1886.7472,-702.5011 1876.1625,-702.9654 1878.7623,-709.4648"/>
</g>
<!-- Node31&#45;&gt;Node32 -->
<g id="edge40" class="edge">
<title>Node31&#45;&gt;Node32</title>
<path fill="none" stroke="#191970" d="M1870.406,-689.0477C1814.305,-682.9656 1709.4908,-669.5854 1622.5,-647 1568.6425,-633.017 1508.3475,-609.3361 1472.7254,-594.4664"/>
<polygon fill="#191970" stroke="#191970" points="1473.9328,-591.1772 1463.3582,-590.5214 1471.2158,-597.6284 1473.9328,-591.1772"/>
</g>
<!-- Node57 -->
<g id="node58" class="node">
<title>Node57</title>
<g id="a_node58"><a xlink:href="ESTLType_8h.html" target="_top" xlink:title="ESTLType.h">
<polygon fill="#ffffff" stroke="#000000" points="1870.5,-627.5 1870.5,-646.5 1940.5,-646.5 1940.5,-627.5 1870.5,-627.5"/>
<text text-anchor="middle" x="1905.5" y="-634.5" font-family="Helvetica,sans-Serif" font-size="10.00" fill="#000000">ESTLType.h</text>
</a>
</g>
</g>
<!-- Node31&#45;&gt;Node57 -->
<g id="edge93" class="edge">
<title>Node31&#45;&gt;Node57</title>
<path fill="none" stroke="#191970" d="M1909.6291,-683.2455C1908.9766,-675.9382 1908.062,-665.6944 1907.2593,-656.7046"/>
<polygon fill="#191970" stroke="#191970" points="1910.7365,-656.2918 1906.361,-646.6427 1903.7642,-656.9143 1910.7365,-656.2918"/>
</g>
<!-- Node32&#45;&gt;Node33 -->
<g id="edge41" class="edge">
<title>Node32&#45;&gt;Node33</title>
<path fill="none" stroke="#191970" d="M1423.2081,-571.3588C1402.3616,-559.043 1372.8371,-536.7136 1386.5,-515 1406.1916,-483.7054 1433.3354,-502.9555 1461.5,-479 1477.0595,-465.7659 1489.8541,-446.1123 1497.9648,-431.6932"/>
<polygon fill="#191970" stroke="#191970" points="1501.1527,-433.155 1502.808,-422.6902 1494.9881,-429.8387 1501.1527,-433.155"/>
</g>
<!-- Node38 -->
<g id="node39" class="node">
<title>Node38</title>
<g id="a_node39"><a xlink:href="TString_8h.html" target="_top" xlink:title="TString.h">
<polygon fill="#ffffff" stroke="#000000" points="1783.5,-459.5 1783.5,-478.5 1843.5,-478.5 1843.5,-459.5 1783.5,-459.5"/>
<text text-anchor="middle" x="1813.5" y="-466.5" font-family="Helvetica,sans-Serif" font-size="10.00" fill="#000000">TString.h</text>
</a>
</g>
</g>
<!-- Node32&#45;&gt;Node38 -->
<g id="edge52" class="edge">
<title>Node32&#45;&gt;Node38</title>
<path fill="none" stroke="#191970" d="M1448.3007,-571.4524C1459.4395,-556.6285 1483.0955,-528.3916 1510.5,-515 1609.3833,-466.6794 1646.8182,-496.3512 1755.5,-479 1761.3176,-478.0712 1767.4568,-477.0535 1773.4775,-476.0341"/>
<polygon fill="#191970" stroke="#191970" points="1774.1543,-479.4693 1783.4205,-474.3323 1772.9733,-472.5696 1774.1543,-479.4693"/>
</g>
<!-- Node33&#45;&gt;Node1 -->
<g id="edge42" class="edge">
<title>Node33&#45;&gt;Node1</title>
<path fill="none" stroke="#191970" d="M1515.044,-403.2997C1532.2928,-379.8635 1571,-319.2047 1542.5,-280 1512.0044,-238.0501 1467.8155,-281.0265 1431.5,-244 1410.0379,-222.1177 1411.5,-208.6506 1411.5,-178 1411.5,-178 1411.5,-178 1411.5,-122 1411.5,-89.7116 1411.5,-52.1872 1411.5,-29.8048"/>
<polygon fill="#191970" stroke="#191970" points="1415.0001,-29.5883 1411.5,-19.5884 1408.0001,-29.5884 1415.0001,-29.5883"/>
</g>
<!-- Node33&#45;&gt;Node6 -->
<g id="edge43" class="edge">
<title>Node33&#45;&gt;Node6</title>
<path fill="none" stroke="#191970" d="M1475.67,-411.9394C1365.8793,-408.0766 1003.5617,-393.5746 890.5,-367 854.9881,-358.6531 848.7644,-348.5186 814.5,-336 780.0983,-323.4313 740.3998,-310.7196 711.7392,-301.8539"/>
<polygon fill="#191970" stroke="#191970" points="712.6758,-298.4802 702.0886,-298.885 710.6174,-305.1708 712.6758,-298.4802"/>
</g>
<!-- Node33&#45;&gt;Node22 -->
<g id="edge50" class="edge">
<title>Node33&#45;&gt;Node22</title>
<path fill="none" stroke="#191970" d="M1487.8993,-403.4536C1456.0231,-386.9087 1393.1365,-349.8409 1359.5,-300 1325.6709,-249.8736 1315.0906,-176.9495 1311.8653,-142.0586"/>
<polygon fill="#191970" stroke="#191970" points="1315.328,-141.456 1311.0305,-131.7719 1308.3509,-142.0223 1315.328,-141.456"/>
</g>
<!-- Node34 -->
<g id="node35" class="node">
<title>Node34</title>
<g id="a_node35"><a xlink:href="TStorage_8h.html" target="_top" xlink:title="TStorage.h">
<polygon fill="#ffffff" stroke="#000000" points="1236,-342 1236,-361 1305,-361 1305,-342 1236,-342"/>
<text text-anchor="middle" x="1270.5" y="-349" font-family="Helvetica,sans-Serif" font-size="10.00" fill="#000000">TStorage.h</text>
</a>
</g>
</g>
<!-- Node33&#45;&gt;Node34 -->
<g id="edge44" class="edge">
<title>Node33&#45;&gt;Node34</title>
<path fill="none" stroke="#191970" d="M1475.5371,-404.7058C1434.1024,-393.9538 1361.6306,-375.1478 1314.8787,-363.016"/>
<polygon fill="#191970" stroke="#191970" points="1315.5838,-359.5831 1305.0252,-360.4591 1313.8255,-366.3587 1315.5838,-359.5831"/>
</g>
<!-- Node35 -->
<g id="node36" class="node">
<title>Node35</title>
<g id="a_node36"><a xlink:href="TVersionCheck_8h.html" target="_top" xlink:title="TVersionCheck.h">
<polygon fill="#ffffff" stroke="#000000" points="999.5,-56.5 999.5,-75.5 1097.5,-75.5 1097.5,-56.5 999.5,-56.5"/>
<text text-anchor="middle" x="1048.5" y="-63.5" font-family="Helvetica,sans-Serif" font-size="10.00" fill="#000000">TVersionCheck.h</text>
</a>
</g>
</g>
<!-- Node33&#45;&gt;Node35 -->
<g id="edge47" class="edge">
<title>Node33&#45;&gt;Node35</title>
<path fill="none" stroke="#191970" d="M1497.8631,-403.4808C1467.1381,-372.7129 1373.5,-275.5368 1373.5,-234 1373.5,-234 1373.5,-234 1373.5,-178 1373.5,-145.4007 1367.6957,-131.4036 1341.5,-112 1305.44,-85.2897 1182.6555,-73.6271 1107.9587,-68.9035"/>
<polygon fill="#191970" stroke="#191970" points="1107.946,-65.3964 1097.7518,-68.2822 1107.5207,-72.3834 1107.946,-65.3964"/>
</g>
<!-- Node36 -->
<g id="node37" class="node">
<title>Node36</title>
<polygon fill="#ffffff" stroke="#bfbfbf" points="1477.5,-280.5 1477.5,-299.5 1533.5,-299.5 1533.5,-280.5 1477.5,-280.5"/>
<text text-anchor="middle" x="1505.5" y="-287.5" font-family="Helvetica,sans-Serif" font-size="10.00" fill="#000000">stdarg.h</text>
</g>
<!-- Node33&#45;&gt;Node36 -->
<g id="edge49" class="edge">
<title>Node33&#45;&gt;Node36</title>
<path fill="none" stroke="#191970" d="M1507.3431,-403.3484C1507.0159,-383.2295 1506.2555,-336.4608 1505.8205,-309.7098"/>
<polygon fill="#191970" stroke="#191970" points="1509.3184,-309.5485 1505.6562,-299.6068 1502.3193,-309.6624 1509.3184,-309.5485"/>
</g>
<!-- Node37 -->
<g id="node38" class="node">
<title>Node37</title>
<polygon fill="#ffffff" stroke="#bfbfbf" points="1590,-342 1590,-361 1639,-361 1639,-342 1590,-342"/>
<text text-anchor="middle" x="1614.5" y="-349" font-family="Helvetica,sans-Serif" font-size="10.00" fill="#000000">iosfwd</text>
</g>
<!-- Node33&#45;&gt;Node37 -->
<g id="edge51" class="edge">
<title>Node33&#45;&gt;Node37</title>
<path fill="none" stroke="#191970" d="M1524.2188,-403.3906C1541.5722,-393.4165 1568.9323,-377.6908 1588.9882,-366.1633"/>
<polygon fill="#191970" stroke="#191970" points="1590.9728,-369.0596 1597.8987,-361.0419 1587.4846,-362.9907 1590.9728,-369.0596"/>
</g>
<!-- Node34&#45;&gt;Node1 -->
<g id="edge45" class="edge">
<title>Node34&#45;&gt;Node1</title>
<path fill="none" stroke="#191970" d="M1267.5626,-341.646C1262.7229,-326.7821 1251.8445,-298.4108 1234.5,-280 1212.6504,-256.8072 1188.3979,-271.6146 1172.5,-244 1168.0651,-236.2965 1169.1923,-232.2506 1172.5,-224 1212.4823,-124.2697 1327.9294,-53.3218 1382.3981,-24.4119"/>
<polygon fill="#191970" stroke="#191970" points="1384.2671,-27.3848 1391.5203,-19.662 1381.0342,-21.1761 1384.2671,-27.3848"/>
</g>
<!-- Node34&#45;&gt;Node6 -->
<g id="edge46" class="edge">
<title>Node34&#45;&gt;Node6</title>
<path fill="none" stroke="#191970" d="M1235.878,-346.7251C1211.9267,-343.4962 1179.3066,-339.2456 1150.5,-336 988.1956,-317.7131 794.364,-300.4752 712.3147,-293.3906"/>
<polygon fill="#191970" stroke="#191970" points="712.4451,-289.889 702.1817,-292.5183 711.8447,-296.8632 712.4451,-289.889"/>
</g>
<!-- Node35&#45;&gt;Node9 -->
<g id="edge48" class="edge">
<title>Node35&#45;&gt;Node9</title>
<path fill="none" stroke="#191970" d="M1038.0488,-56.2455C1029.2731,-48.0549 1016.5446,-36.1749 1006.186,-26.5069"/>
<polygon fill="#191970" stroke="#191970" points="1008.5301,-23.9072 998.8314,-19.6427 1003.7539,-29.0246 1008.5301,-23.9072"/>
</g>
<!-- Node38&#45;&gt;Node15 -->
<g id="edge91" class="edge">
<title>Node38&#45;&gt;Node15</title>
<path fill="none" stroke="#191970" d="M1802.6171,-459.2925C1792.3834,-450.0929 1776.7051,-435.8146 1763.5,-423 1724.7059,-385.3531 1723.3039,-366.247 1678.5,-336 1624.3222,-299.4247 1605.6147,-297.0153 1542.5,-280 1435.2908,-251.0971 1303.6933,-239.8145 1241.8222,-235.8767"/>
<polygon fill="#191970" stroke="#191970" points="1241.9972,-232.3809 1231.8025,-235.265 1241.5706,-239.3679 1241.9972,-232.3809"/>
</g>
<!-- Node38&#45;&gt;Node22 -->
<g id="edge92" class="edge">
<title>Node38&#45;&gt;Node22</title>
<path fill="none" stroke="#191970" d="M1843.8895,-467.6264C1985.0082,-460.1979 2562.9149,-417.6459 2404.5,-224 2335.4392,-139.5802 1516.578,-124.589 1342.7881,-122.3522"/>
<polygon fill="#191970" stroke="#191970" points="1342.7757,-118.8519 1332.7332,-122.2279 1342.6892,-125.8513 1342.7757,-118.8519"/>
</g>
<!-- Node38&#45;&gt;Node36 -->
<g id="edge90" class="edge">
<title>Node38&#45;&gt;Node36</title>
<path fill="none" stroke="#191970" d="M1791.6348,-459.4134C1773.9642,-451.1218 1748.924,-438.1079 1729.5,-423 1687.7982,-390.5644 1693.0876,-364.3383 1648.5,-336 1616.2106,-315.478 1573.968,-303.3704 1543.7834,-296.7726"/>
<polygon fill="#191970" stroke="#191970" points="1544.1489,-293.2738 1533.6457,-294.664 1542.7233,-300.1271 1544.1489,-293.2738"/>
</g>
<!-- Node38&#45;&gt;Node37 -->
<g id="edge89" class="edge">
<title>Node38&#45;&gt;Node37</title>
<path fill="none" stroke="#191970" d="M1783.4304,-461.2147C1757.7836,-453.7664 1720.5596,-440.9959 1691.5,-423 1667.1986,-407.9508 1643.7995,-384.5384 1629.3019,-368.6381"/>
<polygon fill="#191970" stroke="#191970" points="1631.8415,-366.2273 1622.5743,-361.0921 1626.6165,-370.8856 1631.8415,-366.2273"/>
</g>
<!-- Node39 -->
<g id="node40" class="node">
<title>Node39</title>
<g id="a_node40"><a xlink:href="TMathBase_8h.html" target="_top" xlink:title="TMathBase.h">
<polygon fill="#ffffff" stroke="#000000" points="1061.5,-342 1061.5,-361 1141.5,-361 1141.5,-342 1061.5,-342"/>
<text text-anchor="middle" x="1101.5" y="-349" font-family="Helvetica,sans-Serif" font-size="10.00" fill="#000000">TMathBase.h</text>
</a>
</g>
</g>
<!-- Node38&#45;&gt;Node39 -->
<g id="edge53" class="edge">
<title>Node38&#45;&gt;Node39</title>
<path fill="none" stroke="#191970" d="M1783.1798,-460.0529C1734.2368,-445.9276 1634.5954,-418.4788 1548.5,-403 1407.2044,-377.5969 1370.0789,-383.7643 1227.5,-367 1202.6336,-364.0762 1175.0246,-360.6951 1152.0038,-357.8382"/>
<polygon fill="#191970" stroke="#191970" points="1152.1314,-354.3272 1141.7758,-356.5661 1151.2673,-361.2737 1152.1314,-354.3272"/>
</g>
<!-- Node43 -->
<g id="node44" class="node">
<title>Node43</title>
<g id="a_node44"><a xlink:href="RStringView_8hxx.html" target="_top" xlink:title="ROOT/RStringView.hxx">
<polygon fill="#ffffff" stroke="#000000" points="2045,-403.5 2045,-422.5 2172,-422.5 2172,-403.5 2045,-403.5"/>
<text text-anchor="middle" x="2108.5" y="-410.5" font-family="Helvetica,sans-Serif" font-size="10.00" fill="#000000">ROOT/RStringView.hxx</text>
</a>
</g>
</g>
<!-- Node38&#45;&gt;Node43 -->
<g id="edge58" class="edge">
<title>Node38&#45;&gt;Node43</title>
<path fill="none" stroke="#191970" d="M1843.6838,-463.2702C1891.6048,-454.1733 1986.0178,-436.2509 2048.1903,-424.4486"/>
<polygon fill="#191970" stroke="#191970" points="2049.0887,-427.8407 2058.2605,-422.537 2047.7831,-420.9635 2049.0887,-427.8407"/>
</g>
<!-- Node50 -->
<g id="node51" class="node">
<title>Node50</title>
<g id="a_node51"><a xlink:href="TypeTraits_8hxx.html" target="_top" xlink:title="ROOT/TypeTraits.hxx">
<polygon fill="#ffffff" stroke="#000000" points="1772,-403.5 1772,-422.5 1889,-422.5 1889,-403.5 1772,-403.5"/>
<text text-anchor="middle" x="1830.5" y="-410.5" font-family="Helvetica,sans-Serif" font-size="10.00" fill="#000000">ROOT/TypeTraits.hxx</text>
</a>
</g>
</g>
<!-- Node38&#45;&gt;Node50 -->
<g id="edge74" class="edge">
<title>Node38&#45;&gt;Node50</title>
<path fill="none" stroke="#191970" d="M1816.4612,-459.2455C1818.7038,-451.8579 1821.8577,-441.4689 1824.6081,-432.4087"/>
<polygon fill="#191970" stroke="#191970" points="1828.017,-433.2282 1827.5728,-422.6427 1821.3188,-431.1948 1828.017,-433.2282"/>
</g>
<!-- Node39&#45;&gt;Node6 -->
<g id="edge54" class="edge">
<title>Node39&#45;&gt;Node6</title>
<path fill="none" stroke="#191970" d="M1061.1407,-345.7142C979.1972,-333.9671 794.1891,-307.4449 712.5259,-295.738"/>
<polygon fill="#191970" stroke="#191970" points="712.5656,-292.208 702.1701,-294.2534 711.5722,-299.1371 712.5656,-292.208"/>
</g>
<!-- Node40 -->
<g id="node41" class="node">
<title>Node40</title>
<polygon fill="#ffffff" stroke="#bfbfbf" points="1067,-280.5 1067,-299.5 1116,-299.5 1116,-280.5 1067,-280.5"/>
<text text-anchor="middle" x="1091.5" y="-287.5" font-family="Helvetica,sans-Serif" font-size="10.00" fill="#000000">cstdlib</text>
</g>
<!-- Node39&#45;&gt;Node40 -->
<g id="edge55" class="edge">
<title>Node39&#45;&gt;Node40</title>
<path fill="none" stroke="#191970" d="M1099.9375,-341.8906C1098.5513,-333.3657 1096.482,-320.6392 1094.7396,-309.9235"/>
<polygon fill="#191970" stroke="#191970" points="1098.1442,-309.0535 1093.0845,-299.7449 1091.2349,-310.177 1098.1442,-309.0535"/>
</g>
<!-- Node41 -->
<g id="node42" class="node">
<title>Node41</title>
<polygon fill="#ffffff" stroke="#bfbfbf" points="1002,-280.5 1002,-299.5 1049,-299.5 1049,-280.5 1002,-280.5"/>
<text text-anchor="middle" x="1025.5" y="-287.5" font-family="Helvetica,sans-Serif" font-size="10.00" fill="#000000">cmath</text>
</g>
<!-- Node39&#45;&gt;Node41 -->
<g id="edge56" class="edge">
<title>Node39&#45;&gt;Node41</title>
<path fill="none" stroke="#191970" d="M1089.625,-341.8906C1077.8703,-332.3786 1059.6514,-317.6357 1045.6328,-306.2917"/>
<polygon fill="#191970" stroke="#191970" points="1047.5178,-303.3146 1037.5424,-299.7449 1043.1144,-308.7562 1047.5178,-303.3146"/>
</g>
<!-- Node42 -->
<g id="node43" class="node">
<title>Node42</title>
<polygon fill="#ffffff" stroke="#bfbfbf" points="1565.5,-224.5 1565.5,-243.5 1629.5,-243.5 1629.5,-224.5 1565.5,-224.5"/>
<text text-anchor="middle" x="1597.5" y="-231.5" font-family="Helvetica,sans-Serif" font-size="10.00" fill="#000000">algorithm</text>
</g>
<!-- Node39&#45;&gt;Node42 -->
<g id="edge57" class="edge">
<title>Node39&#45;&gt;Node42</title>
<path fill="none" stroke="#191970" d="M1140.2557,-341.9953C1196.7723,-328.1673 1305.1364,-301.7765 1397.5,-280 1452.0068,-267.149 1514.9761,-252.7377 1555.4686,-243.5266"/>
<polygon fill="#191970" stroke="#191970" points="1556.2847,-246.9305 1565.2602,-241.301 1554.7331,-240.1046 1556.2847,-246.9305"/>
</g>
<!-- Node43&#45;&gt;Node1 -->
<g id="edge59" class="edge">
<title>Node43&#45;&gt;Node1</title>
<path fill="none" stroke="#191970" d="M2172.4552,-409.7202C2300.3547,-399.3609 2575.5,-356.3491 2575.5,-178 2575.5,-178 2575.5,-178 2575.5,-122 2575.5,-65.0755 1681.8086,-21.9178 1460.5813,-12.1064"/>
<polygon fill="#191970" stroke="#191970" points="1460.7057,-8.6086 1450.5612,-11.6645 1460.3972,-15.6018 1460.7057,-8.6086"/>
</g>
<!-- Node44 -->
<g id="node45" class="node">
<title>Node44</title>
<g id="a_node45"><a xlink:href="RWrap__libcpp__string__view_8h.html" target="_top" xlink:title="RWrap_libcpp_string\l_view.h">
<polygon fill="#ffffff" stroke="#000000" points="2051,-336.5 2051,-366.5 2166,-366.5 2166,-336.5 2051,-336.5"/>
<text text-anchor="start" x="2059" y="-354.5" font-family="Helvetica,sans-Serif" font-size="10.00" fill="#000000">RWrap_libcpp_string</text>
<text text-anchor="middle" x="2108.5" y="-343.5" font-family="Helvetica,sans-Serif" font-size="10.00" fill="#000000">_view.h</text>
</a>
</g>
</g>
<!-- Node43&#45;&gt;Node44 -->
<g id="edge60" class="edge">
<title>Node43&#45;&gt;Node44</title>
<path fill="none" stroke="#191970" d="M2108.5,-403.3906C2108.5,-396.2234 2108.5,-386.0862 2108.5,-376.671"/>
<polygon fill="#191970" stroke="#191970" points="2112.0001,-376.5446 2108.5,-366.5446 2105.0001,-376.5446 2112.0001,-376.5446"/>
</g>
<!-- Node44&#45;&gt;Node22 -->
<g id="edge61" class="edge">
<title>Node44&#45;&gt;Node22</title>
<path fill="none" stroke="#191970" d="M2103.6279,-336.4414C2090.9376,-299.9752 2053.0688,-207.0617 1985.5,-168 1929.4872,-135.6189 1469.8962,-124.9022 1342.9028,-122.5444"/>
<polygon fill="#191970" stroke="#191970" points="1342.7264,-119.0407 1332.6647,-122.3592 1342.5998,-126.0396 1342.7264,-119.0407"/>
</g>
<!-- Node44&#45;&gt;Node42 -->
<g id="edge62" class="edge">
<title>Node44&#45;&gt;Node42</title>
<path fill="none" stroke="#191970" d="M2050.8119,-339.5005C1990.5518,-326.9255 1900.0747,-307.9189 1865.5,-300 1785.3658,-281.6463 1692.2732,-258.2506 1639.5808,-244.8139"/>
<polygon fill="#191970" stroke="#191970" points="1640.152,-241.3474 1629.5968,-242.2637 1638.4196,-248.1297 1640.152,-241.3474"/>
</g>
<!-- Node45 -->
<g id="node46" class="node">
<title>Node45</title>
<polygon fill="#ffffff" stroke="#bfbfbf" points="2259,-224.5 2259,-243.5 2312,-243.5 2312,-224.5 2259,-224.5"/>
<text text-anchor="middle" x="2285.5" y="-231.5" font-family="Helvetica,sans-Serif" font-size="10.00" fill="#000000">iterator</text>
</g>
<!-- Node44&#45;&gt;Node45 -->
<g id="edge63" class="edge">
<title>Node44&#45;&gt;Node45</title>
<path fill="none" stroke="#191970" d="M2166.1203,-344.4671C2197.878,-337.834 2235.9296,-324.9619 2261.5,-300 2274.0142,-287.7836 2280.0395,-268.537 2282.9186,-253.9734"/>
<polygon fill="#191970" stroke="#191970" points="2286.399,-254.3779 2284.5625,-243.9435 2279.4911,-253.2457 2286.399,-254.3779"/>
</g>
<!-- Node46 -->
<g id="node47" class="node">
<title>Node46</title>
<polygon fill="#ffffff" stroke="#bfbfbf" points="2071,-224.5 2071,-243.5 2128,-243.5 2128,-224.5 2071,-224.5"/>
<text text-anchor="middle" x="2099.5" y="-231.5" font-family="Helvetica,sans-Serif" font-size="10.00" fill="#000000">ostream</text>
</g>
<!-- Node44&#45;&gt;Node46 -->
<g id="edge64" class="edge">
<title>Node44&#45;&gt;Node46</title>
<path fill="none" stroke="#191970" d="M2103.2545,-336.3942C2100.0144,-326.2442 2096.1674,-312.4902 2094.5,-300 2093.3238,-291.1893 2094.019,-288.8759 2094.5,-280 2094.9662,-271.3971 2095.9193,-261.9288 2096.8696,-253.8301"/>
<polygon fill="#191970" stroke="#191970" points="2100.3502,-254.2023 2098.1176,-243.8453 2093.4043,-253.334 2100.3502,-254.2023"/>
</g>
<!-- Node47 -->
<g id="node48" class="node">
<title>Node47</title>
<polygon fill="#ffffff" stroke="#bfbfbf" points="2146.5,-224.5 2146.5,-243.5 2202.5,-243.5 2202.5,-224.5 2146.5,-224.5"/>
<text text-anchor="middle" x="2174.5" y="-231.5" font-family="Helvetica,sans-Serif" font-size="10.00" fill="#000000">iomanip</text>
</g>
<!-- Node44&#45;&gt;Node47 -->
<g id="edge65" class="edge">
<title>Node44&#45;&gt;Node47</title>
<path fill="none" stroke="#191970" d="M2110.1443,-336.3662C2112.3138,-321.244 2117.1476,-297.7524 2127.5,-280 2134.1728,-268.5574 2144.4503,-258.0387 2153.6949,-249.9566"/>
<polygon fill="#191970" stroke="#191970" points="2155.9851,-252.6041 2161.4364,-243.5193 2151.5095,-247.2218 2155.9851,-252.6041"/>
</g>
<!-- Node48 -->
<g id="node49" class="node">
<title>Node48</title>
<polygon fill="#ffffff" stroke="#bfbfbf" points="2330,-224.5 2330,-243.5 2395,-243.5 2395,-224.5 2330,-224.5"/>
<text text-anchor="middle" x="2362.5" y="-231.5" font-family="Helvetica,sans-Serif" font-size="10.00" fill="#000000">stdexcept</text>
</g>
<!-- Node44&#45;&gt;Node48 -->
<g id="edge66" class="edge">
<title>Node44&#45;&gt;Node48</title>
<path fill="none" stroke="#191970" d="M2166.0041,-340.3837C2200.761,-332.2297 2245.2116,-319.194 2281.5,-300 2306.0784,-286.9998 2330.263,-265.906 2345.7139,-251.0714"/>
<polygon fill="#191970" stroke="#191970" points="2348.2719,-253.4649 2352.9534,-243.9604 2343.3666,-248.4709 2348.2719,-253.4649"/>
</g>
<!-- Node49 -->
<g id="node50" class="node">
<title>Node49</title>
<g id="a_node50"><a xlink:href="libcpp__string__view_8h.html" target="_top" xlink:title="libcpp_string_view.h">
<polygon fill="#ffffff" stroke="#000000" points="2136.5,-280.5 2136.5,-299.5 2252.5,-299.5 2252.5,-280.5 2136.5,-280.5"/>
<text text-anchor="middle" x="2194.5" y="-287.5" font-family="Helvetica,sans-Serif" font-size="10.00" fill="#000000">libcpp_string_view.h</text>
</a>
</g>
</g>
<!-- Node44&#45;&gt;Node49 -->
<g id="edge67" class="edge">
<title>Node44&#45;&gt;Node49</title>
<path fill="none" stroke="#191970" d="M2129.7584,-336.2977C2142.7718,-326.9917 2159.3903,-315.1075 2172.5317,-305.7099"/>
<polygon fill="#191970" stroke="#191970" points="2174.8889,-308.3271 2180.9871,-299.6633 2170.8171,-302.6332 2174.8889,-308.3271"/>
</g>
<!-- Node49&#45;&gt;Node22 -->
<g id="edge68" class="edge">
<title>Node49&#45;&gt;Node22</title>
<path fill="none" stroke="#191970" d="M2201.643,-280.1534C2210.6551,-266.4129 2223.6008,-241.2383 2211.5,-224 2169.4162,-164.0493 2128.2262,-182.8491 2056.5,-168 1916.828,-139.0845 1466.8939,-125.9084 1342.5827,-122.7632"/>
<polygon fill="#191970" stroke="#191970" points="1342.6429,-119.2637 1332.5588,-122.5136 1342.4686,-126.2616 1342.6429,-119.2637"/>
</g>
<!-- Node49&#45;&gt;Node42 -->
<g id="edge69" class="edge">
<title>Node49&#45;&gt;Node42</title>
<path fill="none" stroke="#191970" d="M2136.1036,-288.1772C2036.2026,-284.402 1826.0358,-273.598 1639.6146,-243.9507"/>
<polygon fill="#191970" stroke="#191970" points="1640.0612,-240.4776 1629.6315,-242.3412 1638.9469,-247.3884 1640.0612,-240.4776"/>
</g>
<!-- Node49&#45;&gt;Node45 -->
<g id="edge70" class="edge">
<title>Node49&#45;&gt;Node45</title>
<path fill="none" stroke="#191970" d="M2210.351,-280.2455C2224.3132,-271.6534 2244.8728,-259.0014 2260.9596,-249.1018"/>
<polygon fill="#191970" stroke="#191970" points="2263.1484,-251.8645 2269.8307,-243.6427 2259.4797,-245.9029 2263.1484,-251.8645"/>
</g>
<!-- Node49&#45;&gt;Node46 -->
<g id="edge71" class="edge">
<title>Node49&#45;&gt;Node46</title>
<path fill="none" stroke="#191970" d="M2177.9523,-280.2455C2163.2401,-271.5731 2141.5112,-258.7645 2124.6495,-248.825"/>
<polygon fill="#191970" stroke="#191970" points="2126.2502,-245.7057 2115.8581,-243.6427 2122.6954,-251.736 2126.2502,-245.7057"/>
</g>
<!-- Node49&#45;&gt;Node47 -->
<g id="edge72" class="edge">
<title>Node49&#45;&gt;Node47</title>
<path fill="none" stroke="#191970" d="M2191.0163,-280.2455C2188.3492,-272.7776 2184.5867,-262.2427 2181.3263,-253.1137"/>
<polygon fill="#191970" stroke="#191970" points="2184.6033,-251.8829 2177.9438,-243.6427 2178.0111,-254.2373 2184.6033,-251.8829"/>
</g>
<!-- Node49&#45;&gt;Node48 -->
<g id="edge73" class="edge">
<title>Node49&#45;&gt;Node48</title>
<path fill="none" stroke="#191970" d="M2223.3802,-280.3733C2251.3161,-271.0613 2293.8142,-256.8953 2324.4869,-246.671"/>
<polygon fill="#191970" stroke="#191970" points="2325.6166,-249.9839 2333.9966,-243.5011 2323.403,-243.3431 2325.6166,-249.9839"/>
</g>
<!-- Node50&#45;&gt;Node18 -->
<g id="edge76" class="edge">
<title>Node50&#45;&gt;Node18</title>
<path fill="none" stroke="#191970" d="M1823.3806,-403.3213C1811.3228,-387.4833 1785.4527,-355.8136 1757.5,-336 1745.0838,-327.1991 1646.7845,-285.2507 1632.5,-280 1594.8743,-266.1696 1551.0282,-253.681 1519.084,-245.2182"/>
<polygon fill="#191970" stroke="#191970" points="1519.7143,-241.7652 1509.1537,-242.6154 1517.9395,-248.5365 1519.7143,-241.7652"/>
</g>
<!-- Node50&#45;&gt;Node20 -->
<g id="edge77" class="edge">
<title>Node50&#45;&gt;Node20</title>
<path fill="none" stroke="#191970" d="M1827.5081,-403.4897C1822.0827,-387.6124 1809.2251,-355.5271 1788.5,-336 1745.9566,-295.9157 1723.9091,-301.3622 1669.5,-280 1620.4368,-260.7367 1587.604,-286.5536 1556.5,-244 1551.2546,-236.8238 1550.5883,-230.6381 1556.5,-224 1580.4651,-197.0899 1827.501,-183.5207 1918.8149,-179.3953"/>
<polygon fill="#191970" stroke="#191970" points="1919.0697,-182.8875 1928.9054,-178.9494 1918.7607,-175.8943 1919.0697,-182.8875"/>
</g>
<!-- Node51 -->
<g id="node52" class="node">
<title>Node51</title>
<polygon fill="#ffffff" stroke="#bfbfbf" points="1647.5,-224.5 1647.5,-243.5 1705.5,-243.5 1705.5,-224.5 1647.5,-224.5"/>
<text text-anchor="middle" x="1676.5" y="-231.5" font-family="Helvetica,sans-Serif" font-size="10.00" fill="#000000">memory</text>
</g>
<!-- Node50&#45;&gt;Node51 -->
<g id="edge75" class="edge">
<title>Node50&#45;&gt;Node51</title>
<path fill="none" stroke="#191970" d="M1833.8652,-403.2875C1838.556,-387.9474 1845.2436,-357.634 1833.5,-336 1808.589,-290.109 1753.1189,-261.6474 1715.252,-246.8116"/>
<polygon fill="#191970" stroke="#191970" points="1716.1483,-243.4092 1705.5565,-243.1581 1713.6799,-249.9596 1716.1483,-243.4092"/>
</g>
<!-- Node52 -->
<g id="node53" class="node">
<title>Node52</title>
<g id="a_node53"><a xlink:href="RSpan_8hxx.html" target="_top" xlink:title="ROOT/RSpan.hxx">
<polygon fill="#ffffff" stroke="#000000" points="1924,-342 1924,-361 2023,-361 2023,-342 1924,-342"/>
<text text-anchor="middle" x="1973.5" y="-349" font-family="Helvetica,sans-Serif" font-size="10.00" fill="#000000">ROOT/RSpan.hxx</text>
</a>
</g>
</g>
<!-- Node50&#45;&gt;Node52 -->
<g id="edge78" class="edge">
<title>Node50&#45;&gt;Node52</title>
<path fill="none" stroke="#191970" d="M1852.8438,-403.3906C1876.7703,-393.1005 1914.9309,-376.6888 1941.9216,-365.0809"/>
<polygon fill="#191970" stroke="#191970" points="1943.5095,-368.208 1951.3131,-361.0419 1940.7439,-361.7775 1943.5095,-368.208"/>
</g>
<!-- Node52&#45;&gt;Node1 -->
<g id="edge79" class="edge">
<title>Node52&#45;&gt;Node1</title>
<path fill="none" stroke="#191970" d="M1976.4724,-341.8256C1984.2315,-315.6854 2004.5,-241.339 2004.5,-178 2004.5,-178 2004.5,-178 2004.5,-122 2004.5,-66.8685 1603.6264,-26.682 1461.0741,-14.1344"/>
<polygon fill="#191970" stroke="#191970" points="1461.1339,-10.6264 1450.8676,-13.2445 1460.5258,-17.5999 1461.1339,-10.6264"/>
</g>
<!-- Node53 -->
<g id="node54" class="node">
<title>Node53</title>
<g id="a_node54"><a xlink:href="span_8hxx.html" target="_top" xlink:title="ROOT/span.hxx">
<polygon fill="#ffffff" stroke="#000000" points="1874.5,-280.5 1874.5,-299.5 1966.5,-299.5 1966.5,-280.5 1874.5,-280.5"/>
<text text-anchor="middle" x="1920.5" y="-287.5" font-family="Helvetica,sans-Serif" font-size="10.00" fill="#000000">ROOT/span.hxx</text>
</a>
</g>
</g>
<!-- Node52&#45;&gt;Node53 -->
<g id="edge80" class="edge">
<title>Node52&#45;&gt;Node53</title>
<path fill="none" stroke="#191970" d="M1965.2188,-341.8906C1957.3307,-332.7376 1945.2686,-318.7409 1935.6588,-307.59"/>
<polygon fill="#191970" stroke="#191970" points="1938.0775,-305.0352 1928.898,-299.7449 1932.7749,-309.6049 1938.0775,-305.0352"/>
</g>
<!-- Node53&#45;&gt;Node18 -->
<g id="edge87" class="edge">
<title>Node53&#45;&gt;Node18</title>
<path fill="none" stroke="#191970" d="M1874.45,-284.2179C1788.4552,-273.4204 1604.4792,-250.3203 1519.3811,-239.6353"/>
<polygon fill="#191970" stroke="#191970" points="1519.6214,-236.1381 1509.2633,-238.3649 1518.7493,-243.0835 1519.6214,-236.1381"/>
</g>
<!-- Node53&#45;&gt;Node20 -->
<g id="edge84" class="edge">
<title>Node53&#45;&gt;Node20</title>
<path fill="none" stroke="#191970" d="M1927.9155,-280.3934C1934.3364,-271.492 1943.2422,-257.6102 1947.5,-244 1952.1703,-229.0711 1953.2876,-211.3576 1953.3099,-198.0418"/>
<polygon fill="#191970" stroke="#191970" points="1956.8018,-197.5833 1953.1094,-187.6527 1949.8031,-197.7184 1956.8018,-197.5833"/>
</g>
<!-- Node53&#45;&gt;Node45 -->
<g id="edge82" class="edge">
<title>Node53&#45;&gt;Node45</title>
<path fill="none" stroke="#191970" d="M1966.7275,-282.9076C2040.1088,-271.6491 2181.7822,-249.9129 2248.7376,-239.6403"/>
<polygon fill="#191970" stroke="#191970" points="2249.4666,-243.0695 2258.8201,-238.0934 2248.4049,-236.1504 2249.4666,-243.0695"/>
</g>
<!-- Node53&#45;&gt;Node48 -->
<g id="edge85" class="edge">
<title>Node53&#45;&gt;Node48</title>
<path fill="none" stroke="#191970" d="M1966.7796,-286.5828C2039.8793,-280.7724 2186.6609,-267.4325 2319.9263,-244.1094"/>
<polygon fill="#191970" stroke="#191970" points="2320.6694,-247.5323 2329.9045,-242.3396 2319.4469,-240.6398 2320.6694,-247.5323"/>
</g>
<!-- Node53&#45;&gt;Node51 -->
<g id="edge86" class="edge">
<title>Node53&#45;&gt;Node51</title>
<path fill="none" stroke="#191970" d="M1876.0221,-280.4263C1836.5491,-271.8385 1777.0699,-258.676 1715.7228,-243.9987"/>
<polygon fill="#191970" stroke="#191970" points="1716.4046,-240.563 1705.8637,-241.6306 1714.7696,-247.3694 1716.4046,-240.563"/>
</g>
<!-- Node54 -->
<g id="node55" class="node">
<title>Node54</title>
<polygon fill="#ffffff" stroke="#bfbfbf" points="1825,-224.5 1825,-243.5 1878,-243.5 1878,-224.5 1825,-224.5"/>
<text text-anchor="middle" x="1851.5" y="-231.5" font-family="Helvetica,sans-Serif" font-size="10.00" fill="#000000">cstddef</text>
</g>
<!-- Node53&#45;&gt;Node54 -->
<g id="edge81" class="edge">
<title>Node53&#45;&gt;Node54</title>
<path fill="none" stroke="#191970" d="M1908.4811,-280.2455C1898.2902,-271.9746 1883.4638,-259.9416 1871.4893,-250.2232"/>
<polygon fill="#191970" stroke="#191970" points="1873.3514,-247.2268 1863.3812,-243.6427 1868.9402,-252.662 1873.3514,-247.2268"/>
</g>
<!-- Node55 -->
<g id="node56" class="node">
<title>Node55</title>
<polygon fill="#ffffff" stroke="#bfbfbf" points="1896.5,-224.5 1896.5,-243.5 1938.5,-243.5 1938.5,-224.5 1896.5,-224.5"/>
<text text-anchor="middle" x="1917.5" y="-231.5" font-family="Helvetica,sans-Serif" font-size="10.00" fill="#000000">array</text>
</g>
<!-- Node53&#45;&gt;Node55 -->
<g id="edge83" class="edge">
<title>Node53&#45;&gt;Node55</title>
<path fill="none" stroke="#191970" d="M1919.9774,-280.2455C1919.586,-272.9382 1919.0372,-262.6944 1918.5556,-253.7046"/>
<polygon fill="#191970" stroke="#191970" points="1922.0466,-253.4411 1918.0166,-243.6427 1915.0566,-253.8156 1922.0466,-253.4411"/>
</g>
<!-- Node56 -->
<g id="node57" class="node">
<title>Node56</title>
<polygon fill="#ffffff" stroke="#bfbfbf" points="1724,-224.5 1724,-243.5 1807,-243.5 1807,-224.5 1724,-224.5"/>
<text text-anchor="middle" x="1765.5" y="-231.5" font-family="Helvetica,sans-Serif" font-size="10.00" fill="#000000">initializer_list</text>
</g>
<!-- Node53&#45;&gt;Node56 -->
<g id="edge88" class="edge">
<title>Node53&#45;&gt;Node56</title>
<path fill="none" stroke="#191970" d="M1893.8546,-280.3733C1868.3036,-271.1419 1829.5488,-257.1402 1801.3091,-246.9375"/>
<polygon fill="#191970" stroke="#191970" points="1802.3921,-243.6074 1791.7978,-243.5011 1800.0135,-250.1909 1802.3921,-243.6074"/>
</g>
<!-- Node58&#45;&gt;Node14 -->
<g id="edge119" class="edge">
<title>Node58&#45;&gt;Node14</title>
<path fill="none" stroke="#191970" d="M1516.673,-748.5435C1412.4768,-746.1272 1061.5,-731.0105 1061.5,-637 1061.5,-637 1061.5,-637 1061.5,-525 1061.5,-444.4035 1130.0533,-444.9598 1150.5,-367 1160.7064,-328.0847 1154.7629,-307.6089 1125.5,-280 1045.2283,-204.2655 690.0684,-183.8659 575.9426,-179.2166"/>
<polygon fill="#191970" stroke="#191970" points="575.7972,-175.7083 565.668,-178.8145 575.5234,-182.703 575.7972,-175.7083"/>
</g>
<!-- Node58&#45;&gt;Node20 -->
<g id="edge118" class="edge">
<title>Node58&#45;&gt;Node20</title>
<path fill="none" stroke="#191970" d="M1574.0167,-745.3322C1627.999,-738.0705 1742.9003,-721.0011 1778.5,-703 1823.1354,-680.43 1820.4619,-655.5937 1861.5,-627 2023.9391,-513.8189 2090.669,-529.6014 2257.5,-423 2332.4903,-375.0828 2376.4187,-379.9516 2415.5,-300 2424.9818,-280.6025 2415.1763,-233.7314 2404.5,-224 2373.7056,-195.9311 2085.81,-182.8594 1986.2121,-179.1503"/>
<polygon fill="#191970" stroke="#191970" points="1986.2172,-175.6482 1976.0964,-178.7818 1985.9624,-182.6436 1986.2172,-175.6482"/>
</g>
<!-- Node58&#45;&gt;Node22 -->
<g id="edge115" class="edge">
<title>Node58&#45;&gt;Node22</title>
<path fill="none" stroke="#191970" d="M1516.9259,-744.333C1488.266,-738.5259 1443.9808,-726.3813 1412.5,-703 1313.8658,-629.7429 1288.3393,-595.891 1250.5,-479 1233.8174,-427.4651 1311.4276,-376.7968 1314.5,-367 1318.6229,-353.8536 1314.6396,-349.7771 1314.5,-336 1313.8333,-270.2121 1312.665,-253.781 1311.5,-188 1311.2269,-172.5802 1310.9646,-155.1332 1310.7772,-142.0517"/>
<polygon fill="#191970" stroke="#191970" points="1314.2739,-141.7899 1310.6334,-131.8402 1307.2746,-141.8886 1314.2739,-141.7899"/>
</g>
<!-- Node58&#45;&gt;Node31 -->
<g id="edge96" class="edge">
<title>Node58&#45;&gt;Node31</title>
<path fill="none" stroke="#191970" d="M1574.282,-745.0983C1629.2346,-737.5702 1752.8592,-720.2553 1856.5,-703 1857.7697,-702.7886 1859.0556,-702.5717 1860.3525,-702.3505"/>
<polygon fill="#191970" stroke="#191970" points="1861.1767,-705.7595 1870.424,-700.5886 1859.9704,-698.8642 1861.1767,-705.7595"/>
</g>
<!-- Node58&#45;&gt;Node38 -->
<g id="edge97" class="edge">
<title>Node58&#45;&gt;Node38</title>
<path fill="none" stroke="#191970" d="M1574.2002,-745.3005C1623.7902,-738.471 1722.9497,-722.759 1751.5,-703 1824.8871,-652.2105 1835.9915,-620.5251 1861.5,-535 1864.0406,-526.4819 1864.9888,-523.1756 1861.5,-515 1856.3844,-503.0122 1846.4425,-492.6498 1836.9273,-484.8114"/>
<polygon fill="#191970" stroke="#191970" points="1838.8754,-481.8949 1828.8074,-478.5954 1834.6203,-487.4532 1838.8754,-481.8949"/>
</g>
<!-- Node59 -->
<g id="node60" class="node">
<title>Node59</title>
<g id="a_node60"><a xlink:href="TObjArray_8h.html" target="_top" xlink:title="TObjArray.h">
<polygon fill="#ffffff" stroke="#000000" points="1421,-683.5 1421,-702.5 1494,-702.5 1494,-683.5 1421,-683.5"/>
<text text-anchor="middle" x="1457.5" y="-690.5" font-family="Helvetica,sans-Serif" font-size="10.00" fill="#000000">TObjArray.h</text>
</a>
</g>
</g>
<!-- Node58&#45;&gt;Node59 -->
<g id="edge98" class="edge">
<title>Node58&#45;&gt;Node59</title>
<path fill="none" stroke="#191970" d="M1530.1716,-739.2455C1516.6697,-730.6534 1496.7878,-718.0014 1481.2314,-708.1018"/>
<polygon fill="#191970" stroke="#191970" points="1482.9685,-705.0587 1472.6528,-702.6427 1479.2103,-710.9643 1482.9685,-705.0587"/>
</g>
<!-- Node66 -->
<g id="node67" class="node">
<title>Node66</title>
<g id="a_node67"><a xlink:href="TObjString_8h.html" target="_top" xlink:title="TObjString.h">
<polygon fill="#ffffff" stroke="#000000" points="1519,-515.5 1519,-534.5 1596,-534.5 1596,-515.5 1519,-515.5"/>
<text text-anchor="middle" x="1557.5" y="-522.5" font-family="Helvetica,sans-Serif" font-size="10.00" fill="#000000">TObjString.h</text>
</a>
</g>
</g>
<!-- Node58&#45;&gt;Node66 -->
<g id="edge111" class="edge">
<title>Node58&#45;&gt;Node66</title>
<path fill="none" stroke="#191970" d="M1544.394,-739.1456C1543.4089,-729.8422 1542.0422,-715.4936 1541.5,-703 1538.9971,-645.324 1548.5844,-577.4585 1554.0096,-544.6823"/>
<polygon fill="#191970" stroke="#191970" points="1557.4934,-545.0733 1555.7283,-534.6265 1550.5935,-543.8939 1557.4934,-545.0733"/>
</g>
<!-- Node67 -->
<g id="node68" class="node">
<title>Node67</title>
<polygon fill="#ffffff" stroke="#bfbfbf" points="1550.5,-683.5 1550.5,-702.5 1588.5,-702.5 1588.5,-683.5 1550.5,-683.5"/>
<text text-anchor="middle" x="1569.5" y="-690.5" font-family="Helvetica,sans-Serif" font-size="10.00" fill="#000000">map</text>
</g>
<!-- Node58&#45;&gt;Node67 -->
<g id="edge114" class="edge">
<title>Node58&#45;&gt;Node67</title>
<path fill="none" stroke="#191970" d="M1549.6805,-739.2455C1552.881,-731.7776 1557.396,-721.2427 1561.3084,-712.1137"/>
<polygon fill="#191970" stroke="#191970" points="1564.6452,-713.2129 1565.3674,-702.6427 1558.2112,-710.4554 1564.6452,-713.2129"/>
</g>
<!-- Node68 -->
<g id="node69" class="node">
<title>Node68</title>
<polygon fill="#ffffff" stroke="#bfbfbf" points="1606.5,-683.5 1606.5,-702.5 1638.5,-702.5 1638.5,-683.5 1606.5,-683.5"/>
<text text-anchor="middle" x="1622.5" y="-690.5" font-family="Helvetica,sans-Serif" font-size="10.00" fill="#000000">set</text>
</g>
<!-- Node58&#45;&gt;Node68 -->
<g id="edge116" class="edge">
<title>Node58&#45;&gt;Node68</title>
<path fill="none" stroke="#191970" d="M1558.9124,-739.2455C1570.5057,-730.814 1587.4748,-718.4729 1600.9678,-708.6598"/>
<polygon fill="#191970" stroke="#191970" points="1603.2126,-711.355 1609.2413,-702.6427 1599.0953,-705.6938 1603.2126,-711.355"/>
</g>
<!-- Node69 -->
<g id="node70" class="node">
<title>Node69</title>
<polygon fill="#ffffff" stroke="#bfbfbf" points="1656.5,-683.5 1656.5,-702.5 1742.5,-702.5 1742.5,-683.5 1656.5,-683.5"/>
<text text-anchor="middle" x="1699.5" y="-690.5" font-family="Helvetica,sans-Serif" font-size="10.00" fill="#000000">unordered_set</text>
</g>
<!-- Node58&#45;&gt;Node69 -->
<g id="edge117" class="edge">
<title>Node58&#45;&gt;Node69</title>
<path fill="none" stroke="#191970" d="M1571.9735,-739.3733C1597.3597,-730.1419 1635.8645,-716.1402 1663.922,-705.9375"/>
<polygon fill="#191970" stroke="#191970" points="1665.1701,-709.2079 1673.3719,-702.5011 1662.7778,-702.6293 1665.1701,-709.2079"/>
</g>
<!-- Node70 -->
<g id="node71" class="node">
<title>Node70</title>
<g id="a_node71"><a xlink:href="ThreadLocalStorage_8h.html" target="_top" xlink:title="ThreadLocalStorage.h">
<polygon fill="#ffffff" stroke="#000000" points="933.5,-112.5 933.5,-131.5 1055.5,-131.5 1055.5,-112.5 933.5,-112.5"/>
<text text-anchor="middle" x="994.5" y="-119.5" font-family="Helvetica,sans-Serif" font-size="10.00" fill="#000000">ThreadLocalStorage.h</text>
</a>
</g>
</g>
<!-- Node58&#45;&gt;Node70 -->
<g id="edge120" class="edge">
<title>Node58&#45;&gt;Node70</title>
<path fill="none" stroke="#191970" d="M1516.9194,-743.6368C1483.6506,-736.7867 1427.5217,-723.3289 1382.5,-703 1291.3783,-661.8552 1193.5,-680.9802 1193.5,-581 1193.5,-581 1193.5,-581 1193.5,-525 1193.5,-414.2085 1205.2402,-374.556 1147.5,-280 1110.7824,-219.8708 1047.5128,-164.34 1015.04,-138.0149"/>
<polygon fill="#191970" stroke="#191970" points="1017.1087,-135.1877 1007.1132,-131.6748 1012.7363,-140.6543 1017.1087,-135.1877"/>
</g>
<!-- Node59&#45;&gt;Node45 -->
<g id="edge110" class="edge">
<title>Node59&#45;&gt;Node45</title>
<path fill="none" stroke="#191970" d="M1450.1721,-683.3644C1432.7746,-659.7148 1389.6081,-596.2576 1378.5,-535 1376.914,-526.2537 1376.8835,-523.7407 1378.5,-515 1379.7712,-508.1264 1462.8384,-284.0997 1468.5,-280 1535.4442,-231.5243 2129.1924,-251.5413 2211.5,-244 2223.6817,-242.8839 2236.9369,-241.2319 2248.8192,-239.5908"/>
<polygon fill="#191970" stroke="#191970" points="2249.4386,-243.038 2258.8463,-238.1652 2248.4532,-236.1077 2249.4386,-243.038"/>
</g>
<!-- Node60 -->
<g id="node61" class="node">
<title>Node60</title>
<g id="a_node61"><a xlink:href="TSeqCollection_8h.html" target="_top" xlink:title="TSeqCollection.h">
<polygon fill="#ffffff" stroke="#000000" points="1631.5,-627.5 1631.5,-646.5 1729.5,-646.5 1729.5,-627.5 1631.5,-627.5"/>
<text text-anchor="middle" x="1680.5" y="-634.5" font-family="Helvetica,sans-Serif" font-size="10.00" fill="#000000">TSeqCollection.h</text>
</a>
</g>
</g>
<!-- Node59&#45;&gt;Node60 -->
<g id="edge99" class="edge">
<title>Node59&#45;&gt;Node60</title>
<path fill="none" stroke="#191970" d="M1494.3239,-683.7527C1532.1521,-674.2533 1591.2035,-659.4242 1632.6343,-649.0201"/>
<polygon fill="#191970" stroke="#191970" points="1633.6549,-652.3725 1642.5013,-646.5423 1631.95,-645.5833 1633.6549,-652.3725"/>
</g>
<!-- Node61 -->
<g id="node62" class="node">
<title>Node61</title>
<g id="a_node62"><a xlink:href="TCollection_8h.html" target="_top" xlink:title="TCollection.h">
<polygon fill="#ffffff" stroke="#000000" points="1640.5,-571.5 1640.5,-590.5 1720.5,-590.5 1720.5,-571.5 1640.5,-571.5"/>
<text text-anchor="middle" x="1680.5" y="-578.5" font-family="Helvetica,sans-Serif" font-size="10.00" fill="#000000">TCollection.h</text>
</a>
</g>
</g>
<!-- Node60&#45;&gt;Node61 -->
<g id="edge100" class="edge">
<title>Node60&#45;&gt;Node61</title>
<path fill="none" stroke="#191970" d="M1680.5,-627.2455C1680.5,-619.9382 1680.5,-609.6944 1680.5,-600.7046"/>
<polygon fill="#191970" stroke="#191970" points="1684.0001,-600.6426 1680.5,-590.6427 1677.0001,-600.6427 1684.0001,-600.6426"/>
</g>
<!-- Node61&#45;&gt;Node33 -->
<g id="edge101" class="edge">
<title>Node61&#45;&gt;Node33</title>
<path fill="none" stroke="#191970" d="M1670.7031,-571.4862C1642.5271,-544.1246 1560.999,-464.9528 1524.9712,-429.9663"/>
<polygon fill="#191970" stroke="#191970" points="1527.2327,-427.2836 1517.6204,-422.8279 1522.3561,-432.3055 1527.2327,-427.2836"/>
</g>
<!-- Node61&#45;&gt;Node38 -->
<g id="edge104" class="edge">
<title>Node61&#45;&gt;Node38</title>
<path fill="none" stroke="#191970" d="M1720.6236,-575.4201C1764.4489,-568.407 1830.4382,-554.8353 1845.5,-535 1856.9588,-519.9096 1844.2863,-500.0642 1831.6632,-486.0894"/>
<polygon fill="#191970" stroke="#191970" points="1833.8939,-483.3621 1824.4195,-478.62 1828.8688,-488.2353 1833.8939,-483.3621"/>
</g>
<!-- Node62 -->
<g id="node63" class="node">
<title>Node62</title>
<g id="a_node63"><a xlink:href="TIterator_8h.html" target="_top" xlink:title="TIterator.h">
<polygon fill="#ffffff" stroke="#000000" points="1395,-515.5 1395,-534.5 1462,-534.5 1462,-515.5 1395,-515.5"/>
<text text-anchor="middle" x="1428.5" y="-522.5" font-family="Helvetica,sans-Serif" font-size="10.00" fill="#000000">TIterator.h</text>
</a>
</g>
</g>
<!-- Node61&#45;&gt;Node62 -->
<g id="edge102" class="edge">
<title>Node61&#45;&gt;Node62</title>
<path fill="none" stroke="#191970" d="M1640.2912,-572.0647C1594.3333,-561.8518 1519.3761,-545.1947 1472.0612,-534.6803"/>
<polygon fill="#191970" stroke="#191970" points="1472.6359,-531.2227 1462.1148,-532.47 1471.1174,-538.056 1472.6359,-531.2227"/>
</g>
<!-- Node63 -->
<g id="node64" class="node">
<title>Node63</title>
<g id="a_node64"><a xlink:href="TVirtualRWMutex_8h.html" target="_top" xlink:title="TVirtualRWMutex.h">
<polygon fill="#ffffff" stroke="#000000" points="1726.5,-515.5 1726.5,-534.5 1836.5,-534.5 1836.5,-515.5 1726.5,-515.5"/>
<text text-anchor="middle" x="1781.5" y="-522.5" font-family="Helvetica,sans-Serif" font-size="10.00" fill="#000000">TVirtualRWMutex.h</text>
</a>
</g>
</g>
<!-- Node61&#45;&gt;Node63 -->
<g id="edge105" class="edge">
<title>Node61&#45;&gt;Node63</title>
<path fill="none" stroke="#191970" d="M1698.0929,-571.2455C1713.879,-562.4928 1737.2639,-549.527 1755.2587,-539.5496"/>
<polygon fill="#191970" stroke="#191970" points="1757.0603,-542.5528 1764.1087,-534.6427 1753.6659,-536.4308 1757.0603,-542.5528"/>
</g>
<!-- Node65 -->
<g id="node66" class="node">
<title>Node65</title>
<polygon fill="#ffffff" stroke="#bfbfbf" points="1652.5,-515.5 1652.5,-534.5 1708.5,-534.5 1708.5,-515.5 1652.5,-515.5"/>
<text text-anchor="middle" x="1680.5" y="-522.5" font-family="Helvetica,sans-Serif" font-size="10.00" fill="#000000">assert.h</text>
</g>
<!-- Node61&#45;&gt;Node65 -->
<g id="edge109" class="edge">
<title>Node61&#45;&gt;Node65</title>
<path fill="none" stroke="#191970" d="M1680.5,-571.2455C1680.5,-563.9382 1680.5,-553.6944 1680.5,-544.7046"/>
<polygon fill="#191970" stroke="#191970" points="1684.0001,-544.6426 1680.5,-534.6427 1677.0001,-544.6427 1684.0001,-544.6426"/>
</g>
<!-- Node62&#45;&gt;Node6 -->
<g id="edge103" class="edge">
<title>Node62&#45;&gt;Node6</title>
<path fill="none" stroke="#191970" d="M1394.6159,-518.4336C1264.3869,-493.0293 800.4416,-400.9238 742.5,-367 729.1991,-359.2126 702.5325,-327.6003 686.2254,-307.3813"/>
<polygon fill="#191970" stroke="#191970" points="688.9172,-305.1432 679.94,-299.5163 683.4488,-309.5132 688.9172,-305.1432"/>
</g>
<!-- Node64 -->
<g id="node65" class="node">
<title>Node64</title>
<g id="a_node65"><a xlink:href="TVirtualMutex_8h.html" target="_top" xlink:title="TVirtualMutex.h">
<polygon fill="#ffffff" stroke="#000000" points="1652.5,-459.5 1652.5,-478.5 1746.5,-478.5 1746.5,-459.5 1652.5,-459.5"/>
<text text-anchor="middle" x="1699.5" y="-466.5" font-family="Helvetica,sans-Serif" font-size="10.00" fill="#000000">TVirtualMutex.h</text>
</a>
</g>
</g>
<!-- Node63&#45;&gt;Node64 -->
<g id="edge106" class="edge">
<title>Node63&#45;&gt;Node64</title>
<path fill="none" stroke="#191970" d="M1767.2167,-515.2455C1754.753,-506.7337 1736.4549,-494.2375 1722.0208,-484.3801"/>
<polygon fill="#191970" stroke="#191970" points="1723.8515,-481.392 1713.6196,-478.6427 1719.9038,-487.1726 1723.8515,-481.392"/>
</g>
<!-- Node64&#45;&gt;Node33 -->
<g id="edge107" class="edge">
<title>Node64&#45;&gt;Node33</title>
<path fill="none" stroke="#191970" d="M1666.494,-459.3733C1633.9982,-449.8953 1584.261,-435.3886 1549.0818,-425.128"/>
<polygon fill="#191970" stroke="#191970" points="1549.7,-421.6626 1539.12,-422.2225 1547.74,-428.3826 1549.7,-421.6626"/>
</g>
<!-- Node64&#45;&gt;Node51 -->
<g id="edge108" class="edge">
<title>Node64&#45;&gt;Node51</title>
<path fill="none" stroke="#191970" d="M1698.5699,-459.4967C1695.1387,-424.4391 1683.1465,-301.9096 1678.4281,-253.7"/>
<polygon fill="#191970" stroke="#191970" points="1681.8992,-253.2331 1677.4417,-243.6216 1674.9325,-253.915 1681.8992,-253.2331"/>
</g>
<!-- Node66&#45;&gt;Node33 -->
<g id="edge112" class="edge">
<title>Node66&#45;&gt;Node33</title>
<path fill="none" stroke="#191970" d="M1553.237,-515.4509C1544.9714,-496.936 1526.6335,-455.8591 1515.8566,-431.7187"/>
<polygon fill="#191970" stroke="#191970" points="1519.0247,-430.2295 1511.7522,-422.5249 1512.6328,-433.0831 1519.0247,-430.2295"/>
</g>
<!-- Node66&#45;&gt;Node38 -->
<g id="edge113" class="edge">
<title>Node66&#45;&gt;Node38</title>
<path fill="none" stroke="#191970" d="M1596.103,-516.5556C1643.9612,-506.0866 1725.122,-488.3327 1773.5813,-477.7322"/>
<polygon fill="#191970" stroke="#191970" points="1774.3809,-481.1402 1783.4019,-475.584 1772.885,-474.3018 1774.3809,-481.1402"/>
</g>
<!-- Node70&#45;&gt;Node1 -->
<g id="edge123" class="edge">
<title>Node70&#45;&gt;Node1</title>
<path fill="none" stroke="#191970" d="M1018.6664,-112.4449C1041.4405,-103.3529 1076.4589,-89.1473 1106.5,-76 1125.809,-67.5495 1129.3929,-62.3208 1149.5,-56 1221.5733,-33.3431 1308.5243,-20.8585 1361.9056,-14.7975"/>
<polygon fill="#191970" stroke="#191970" points="1362.5644,-18.2461 1372.1199,-13.6699 1361.7962,-11.2884 1362.5644,-18.2461"/>
</g>
<!-- Node70&#45;&gt;Node8 -->
<g id="edge122" class="edge">
<title>Node70&#45;&gt;Node8</title>
<path fill="none" stroke="#191970" d="M983.0037,-112.2455C973.2558,-103.9746 959.0741,-91.9416 947.6202,-82.2232"/>
<polygon fill="#191970" stroke="#191970" points="949.7541,-79.4437 939.8646,-75.6427 945.2253,-84.7813 949.7541,-79.4437"/>
</g>
<!-- Node70&#45;&gt;Node10 -->
<g id="edge121" class="edge">
<title>Node70&#45;&gt;Node10</title>
<path fill="none" stroke="#191970" d="M966.1355,-112.3733C938.8173,-103.1016 897.3204,-89.0178 867.2262,-78.804"/>
<polygon fill="#191970" stroke="#191970" points="868.0887,-75.4008 857.4944,-75.5011 865.839,-82.0294 868.0887,-75.4008"/>
</g>
<!-- Node71&#45;&gt;Node6 -->
<g id="edge125" class="edge">
<title>Node71&#45;&gt;Node6</title>
<path fill="none" stroke="#191970" d="M525.0957,-341.8961C529.8161,-339.8827 534.8049,-337.8199 539.5,-336 570.7094,-323.9031 606.6045,-311.5798 633.2324,-302.7368"/>
<polygon fill="#191970" stroke="#191970" points="634.5571,-305.9853 642.955,-299.5257 632.3618,-299.3384 634.5571,-305.9853"/>
</g>
<!-- Node71&#45;&gt;Node16 -->
<g id="edge126" class="edge">
<title>Node71&#45;&gt;Node16</title>
<path fill="none" stroke="#191970" d="M523.7909,-341.9236C528.8479,-339.7717 534.3099,-337.6422 539.5,-336 613.9623,-312.4392 635.6915,-318.7836 711.5,-300 780.477,-282.909 859.9683,-259.1893 905.1235,-245.3309"/>
<polygon fill="#191970" stroke="#191970" points="906.2335,-248.6514 914.7602,-242.363 904.173,-241.9615 906.2335,-248.6514"/>
</g>
<!-- Node72&#45;&gt;Node38 -->
<g id="edge131" class="edge">
<title>Node72&#45;&gt;Node38</title>
<path fill="none" stroke="#191970" d="M2003.0983,-683.1066C1995.4746,-653.645 1969.161,-565.4124 1916.5,-515 1898.9137,-498.1646 1874.1193,-486.8326 1853.2642,-479.6291"/>
<polygon fill="#191970" stroke="#191970" points="1854.2887,-476.2818 1843.6963,-476.5117 1852.1201,-482.9375 1854.2887,-476.2818"/>
</g>
<!-- Node72&#45;&gt;Node45 -->
<g id="edge132" class="edge">
<title>Node72&#45;&gt;Node45</title>
<path fill="none" stroke="#191970" d="M2030.303,-691.8842C2121.4352,-687.1207 2432.5,-664.7288 2432.5,-581 2432.5,-581 2432.5,-581 2432.5,-351.5 2432.5,-294.9705 2365.3506,-261.1802 2321.8201,-245.2143"/>
<polygon fill="#191970" stroke="#191970" points="2322.7154,-241.8191 2312.1206,-241.8054 2320.3944,-248.4231 2322.7154,-241.8191"/>
</g>
<!-- Node72&#45;&gt;Node51 -->
<g id="edge133" class="edge">
<title>Node72&#45;&gt;Node51</title>
<path fill="none" stroke="#191970" d="M2007.076,-683.4427C2010.1176,-664.1407 2016.5,-619.0991 2016.5,-581 2016.5,-581 2016.5,-581 2016.5,-525 2016.5,-453.2924 1865.6369,-320.5562 1806.5,-280 1791.3806,-269.6311 1747.8221,-255.2045 1715.2644,-245.2866"/>
<polygon fill="#191970" stroke="#191970" points="1716.1416,-241.8956 1705.5571,-242.3629 1714.1228,-248.5981 1716.1416,-241.8956"/>
</g>
<!-- Node72&#45;&gt;Node60 -->
<g id="edge130" class="edge">
<title>Node72&#45;&gt;Node60</title>
<path fill="none" stroke="#191970" d="M1980.7191,-687.3719C1973.8602,-685.8799 1966.4037,-684.3186 1959.5,-683 1883.9184,-668.5635 1796.2973,-654.5605 1739.7145,-645.8723"/>
<polygon fill="#191970" stroke="#191970" points="1739.9346,-642.3653 1729.5203,-644.3129 1738.8761,-649.2848 1739.9346,-642.3653"/>
</g>
<!-- Node73&#45;&gt;Node6 -->
<g id="edge136" class="edge">
<title>Node73&#45;&gt;Node6</title>
<path fill="none" stroke="#191970" d="M899.3788,-343.4599C851.1603,-332.0981 763.2787,-311.3904 712.1982,-299.3542"/>
<polygon fill="#191970" stroke="#191970" points="712.7261,-295.8828 702.1899,-296.9959 711.1206,-302.6962 712.7261,-295.8828"/>
</g>
<!-- Node73&#45;&gt;Node22 -->
<g id="edge135" class="edge">
<title>Node73&#45;&gt;Node22</title>
<path fill="none" stroke="#191970" d="M936.3897,-341.9606C941.7131,-326.1735 954.6656,-294.8818 977.5,-280 1076.3405,-215.5829 1142.8604,-310.2233 1240.5,-244 1272.6188,-222.2157 1264.1212,-201.6249 1283.5,-168 1288.7409,-158.9063 1294.6337,-148.8478 1299.5738,-140.4615"/>
<polygon fill="#191970" stroke="#191970" points="1302.5913,-142.2348 1304.661,-131.8441 1296.5633,-138.6762 1302.5913,-142.2348"/>
</g>
<!-- Node74&#45;&gt;Node6 -->
<g id="edge138" class="edge">
<title>Node74&#45;&gt;Node6</title>
<path fill="none" stroke="#191970" d="M899.686,-800.1874C803.4988,-783.3181 499.5,-723.1855 499.5,-637 499.5,-637 499.5,-637 499.5,-581 499.5,-553.5607 451.3638,-357.4305 468.5,-336 488.6404,-310.8124 579.0723,-298.4303 632.5359,-293.2107"/>
<polygon fill="#191970" stroke="#191970" points="633.0729,-296.6759 642.7039,-292.2606 632.4216,-289.7062 633.0729,-296.6759"/>
</g>
<!-- Node75&#45;&gt;Node33 -->
<g id="edge145" class="edge">
<title>Node75&#45;&gt;Node33</title>
<path fill="none" stroke="#191970" d="M1352.6464,-459.3733C1384.0109,-449.9807 1431.8665,-435.6496 1466.0716,-425.4064"/>
<polygon fill="#191970" stroke="#191970" points="1467.1975,-428.7229 1475.773,-422.5011 1465.1893,-422.0171 1467.1975,-428.7229"/>
</g>
<!-- Node75&#45;&gt;Node51 -->
<g id="edge147" class="edge">
<title>Node75&#45;&gt;Node51</title>
<path fill="none" stroke="#191970" d="M1323.292,-459.1544C1332.8769,-427.2968 1367.6537,-326.4008 1435.5,-280 1508.5483,-230.0415 1546.3744,-261.3578 1637.2481,-244.0203"/>
<polygon fill="#191970" stroke="#191970" points="1638.011,-247.4367 1647.0992,-241.991 1636.5987,-240.5806 1638.011,-247.4367"/>
</g>
<!-- Node76 -->
<g id="node77" class="node">
<title>Node76</title>
<polygon fill="#ffffff" stroke="#bfbfbf" points="256.5,-403.5 256.5,-422.5 316.5,-422.5 316.5,-403.5 256.5,-403.5"/>
<text text-anchor="middle" x="286.5" y="-410.5" font-family="Helvetica,sans-Serif" font-size="10.00" fill="#000000">iostream</text>
</g>
<!-- Node75&#45;&gt;Node76 -->
<g id="edge146" class="edge">
<title>Node75&#45;&gt;Node76</title>
<path fill="none" stroke="#191970" d="M1259.2975,-465.6854C1068.2449,-455.3382 486.167,-423.8137 327.0629,-415.1968"/>
<polygon fill="#191970" stroke="#191970" points="326.9502,-411.6857 316.7755,-414.6397 326.5716,-418.6754 326.9502,-411.6857"/>
</g>
<!-- Node77&#45;&gt;Node6 -->
<g id="edge149" class="edge">
<title>Node77&#45;&gt;Node6</title>
<path fill="none" stroke="#191970" d="M787.1823,-406.6027C763.8489,-400.071 731.1835,-387.8642 709.5,-367 693.1059,-351.2253 683.0738,-326.7081 677.6658,-309.5896"/>
<polygon fill="#191970" stroke="#191970" points="680.9079,-308.2032 674.7593,-299.575 674.1853,-310.1543 680.9079,-308.2032"/>
</g>
<!-- Node77&#45;&gt;Node39 -->
<g id="edge150" class="edge">
<title>Node77&#45;&gt;Node39</title>
<path fill="none" stroke="#191970" d="M843.5202,-408.2269C887.2968,-400.5942 974.4684,-384.6887 1047.5,-367 1051.6058,-366.0056 1055.868,-364.9039 1060.1162,-363.7598"/>
<polygon fill="#191970" stroke="#191970" points="1061.2201,-367.0859 1069.9231,-361.0437 1059.3516,-360.3399 1061.2201,-367.0859"/>
</g>
<!-- Node77&#45;&gt;Node41 -->
<g id="edge156" class="edge">
<title>Node77&#45;&gt;Node41</title>
<path fill="none" stroke="#191970" d="M843.7233,-410.0156C891.8217,-404.3477 986.6954,-390.4507 1009.5,-367 1024.1797,-351.9043 1026.9793,-327.0527 1026.885,-309.6777"/>
<polygon fill="#191970" stroke="#191970" points="1030.3763,-309.3778 1026.5009,-299.5172 1023.3813,-309.6423 1030.3763,-309.3778"/>
</g>
<!-- Node77&#45;&gt;Node42 -->
<g id="edge154" class="edge">
<title>Node77&#45;&gt;Node42</title>
<path fill="none" stroke="#191970" d="M843.5961,-408.5759C884.7824,-401.5154 958.6093,-386.4863 976.5,-367 1003.145,-337.9786 963.9622,-306.0714 993.5,-280 1037.3369,-241.3075 1460.3056,-249.6737 1518.5,-244 1530.4192,-242.8379 1543.3174,-241.3173 1555.1675,-239.8138"/>
<polygon fill="#191970" stroke="#191970" points="1555.7929,-243.2621 1565.2604,-238.5064 1554.8936,-236.3201 1555.7929,-243.2621"/>
</g>
<!-- Node78 -->
<g id="node79" class="node">
<title>Node78</title>
<g id="a_node79"><a xlink:href="TError_8h.html" target="_top" xlink:title="TError.h">
<polygon fill="#ffffff" stroke="#000000" points="751.5,-342 751.5,-361 805.5,-361 805.5,-342 751.5,-342"/>
<text text-anchor="middle" x="778.5" y="-349" font-family="Helvetica,sans-Serif" font-size="10.00" fill="#000000">TError.h</text>
</a>
</g>
</g>
<!-- Node77&#45;&gt;Node78 -->
<g id="edge151" class="edge">
<title>Node77&#45;&gt;Node78</title>
<path fill="none" stroke="#191970" d="M809.7188,-403.3906C804.374,-394.5068 796.2841,-381.0601 789.6789,-370.0811"/>
<polygon fill="#191970" stroke="#191970" points="792.5171,-368.0093 784.3628,-361.2449 786.5189,-371.618 792.5171,-368.0093"/>
</g>
<!-- Node79 -->
<g id="node80" class="node">
<title>Node79</title>
<polygon fill="#ffffff" stroke="#bfbfbf" points="613.5,-342 613.5,-361 657.5,-361 657.5,-342 613.5,-342"/>
<text text-anchor="middle" x="635.5" y="-349" font-family="Helvetica,sans-Serif" font-size="10.00" fill="#000000">limits</text>
</g>
<!-- Node77&#45;&gt;Node79 -->
<g id="edge155" class="edge">
<title>Node77&#45;&gt;Node79</title>
<path fill="none" stroke="#191970" d="M787.3492,-404.8926C758.119,-396.2686 711.1995,-381.8471 671.5,-367 669.6835,-366.3207 667.8253,-365.6005 665.9572,-364.857"/>
<polygon fill="#191970" stroke="#191970" points="667.2599,-361.6083 656.6811,-361.026 664.5878,-368.0782 667.2599,-361.6083"/>
</g>
<!-- Node80 -->
<g id="node81" class="node">
<title>Node80</title>
<polygon fill="#ffffff" stroke="#bfbfbf" points="548,-342 548,-361 595,-361 595,-342 548,-342"/>
<text text-anchor="middle" x="571.5" y="-349" font-family="Helvetica,sans-Serif" font-size="10.00" fill="#000000">float.h</text>
</g>
<!-- Node77&#45;&gt;Node80 -->
<g id="edge157" class="edge">
<title>Node77&#45;&gt;Node80</title>
<path fill="none" stroke="#191970" d="M787.0549,-406.1304C782.5249,-405.0643 777.8871,-403.9894 773.5,-403 698.5851,-386.105 677.2884,-391.4851 604.5,-367 602.8502,-366.445 601.174,-365.8304 599.4962,-365.1754"/>
<polygon fill="#191970" stroke="#191970" points="600.6104,-361.8449 590.0407,-361.1157 597.8488,-368.2771 600.6104,-361.8449"/>
</g>
<!-- Node78&#45;&gt;Node6 -->
<g id="edge152" class="edge">
<title>Node78&#45;&gt;Node6</title>
<path fill="none" stroke="#191970" d="M761.9375,-341.8906C744.7463,-331.9165 717.6418,-316.1908 697.7734,-304.6633"/>
<polygon fill="#191970" stroke="#191970" points="699.3523,-301.533 688.9462,-299.5419 695.8394,-307.5877 699.3523,-301.533"/>
</g>
<!-- Node78&#45;&gt;Node36 -->
<g id="edge153" class="edge">
<title>Node78&#45;&gt;Node36</title>
<path fill="none" stroke="#191970" d="M805.5997,-347.2633C828.2465,-343.8398 861.4161,-339.0971 890.5,-336 1108.0548,-312.833 1370.1373,-297.342 1467.0531,-292.0334"/>
<polygon fill="#191970" stroke="#191970" points="1467.4498,-295.5171 1477.2451,-291.4794 1467.0699,-288.5274 1467.4498,-295.5171"/>
</g>
<!-- Node81&#45;&gt;Node1 -->
<g id="edge159" class="edge">
<title>Node81&#45;&gt;Node1</title>
<path fill="none" stroke="#191970" d="M226.1362,-341.8197C221.4651,-321.8133 211.5,-274.3989 211.5,-234 211.5,-234 211.5,-234 211.5,-122 211.5,-63.2344 1135.8662,-21.3483 1362.0211,-11.9798"/>
<polygon fill="#191970" stroke="#191970" points="1362.4086,-15.4669 1372.2561,-11.5584 1362.1205,-8.4729 1362.4086,-15.4669"/>
</g>
<!-- Node81&#45;&gt;Node6 -->
<g id="edge160" class="edge">
<title>Node81&#45;&gt;Node6</title>
<path fill="none" stroke="#191970" d="M258.5612,-341.9376C266.3008,-339.7339 274.6591,-337.5769 282.5,-336 409.0157,-310.5562 561.6538,-297.5901 632.6197,-292.56"/>
<polygon fill="#191970" stroke="#191970" points="633.1548,-296.0314 642.8885,-291.8475 632.6702,-289.0482 633.1548,-296.0314"/>
</g>
<!-- Node82&#45;&gt;Node2 -->
<g id="edge163" class="edge">
<title>Node82&#45;&gt;Node2</title>
<path fill="none" stroke="#191970" d="M172.4297,-459.2455C157.253,-450.5731 134.8379,-437.7645 117.4437,-427.825"/>
<polygon fill="#191970" stroke="#191970" points="118.7936,-424.5653 108.3747,-422.6427 115.3206,-430.643 118.7936,-424.5653"/>
</g>
<!-- Node82&#45;&gt;Node6 -->
<g id="edge162" class="edge">
<title>Node82&#45;&gt;Node6</title>
<path fill="none" stroke="#191970" d="M196.5711,-459.2034C206.7665,-445.5224 226.6707,-420.418 247.5,-403 291.7047,-366.0347 304.2574,-355.4482 358.5,-336 408.3026,-318.1437 560.1057,-301.1897 632.835,-293.8341"/>
<polygon fill="#191970" stroke="#191970" points="633.3686,-297.2983 642.9702,-292.8195 632.6713,-290.3331 633.3686,-297.2983"/>
</g>
<!-- Node82&#45;&gt;Node20 -->
<g id="edge164" class="edge">
<title>Node82&#45;&gt;Node20</title>
<path fill="none" stroke="#191970" d="M184.9845,-459.4907C174.5423,-435.9609 151.6655,-374.1653 179.5,-336 227.4952,-270.1914 448.2424,-237.8936 528.5,-224 669.3218,-199.622 1716.4855,-181.769 1918.7403,-178.5284"/>
<polygon fill="#191970" stroke="#191970" points="1918.8324,-182.0275 1928.7754,-178.3686 1918.7208,-175.0284 1918.8324,-182.0275"/>
</g>
<!-- Node82&#45;&gt;Node76 -->
<g id="edge165" class="edge">
<title>Node82&#45;&gt;Node76</title>
<path fill="none" stroke="#191970" d="M206.3961,-459.2455C221.418,-450.5731 243.6043,-437.7645 260.821,-427.825"/>
<polygon fill="#191970" stroke="#191970" points="262.8871,-430.6737 269.7975,-422.6427 259.3872,-424.6114 262.8871,-430.6737"/>
</g>
</g>
</svg>
