<?xml version="1.0" encoding="UTF-8" standalone="no"?>
<!DOCTYPE svg PUBLIC "-//W3C//DTD SVG 1.1//EN"
 "http://www.w3.org/Graphics/SVG/1.1/DTD/svg11.dtd">
<!-- Generated by graphviz version 2.40.1 (0)
 -->
<!-- Title: hist/hist/inc/TF1Convolution.h Pages: 1 -->
<svg width="487pt" height="84pt"
 viewBox="0.00 0.00 486.50 84.00" xmlns="http://www.w3.org/2000/svg" xmlns:xlink="http://www.w3.org/1999/xlink">
<g id="graph0" class="graph" transform="scale(1 1) rotate(0) translate(4 80)">
<title>hist/hist/inc/TF1Convolution.h</title>
<polygon fill="#ffffff" stroke="transparent" points="-4,4 -4,-80 482.5,-80 482.5,4 -4,4"/>
<!-- Node88 -->
<g id="node1" class="node">
<title>Node88</title>
<polygon fill="#bfbfbf" stroke="#000000" points="151,-56.5 151,-75.5 312,-75.5 312,-56.5 151,-56.5"/>
<text text-anchor="middle" x="231.5" y="-63.5" font-family="Helvetica,sans-Serif" font-size="10.00" fill="#000000">hist/hist/inc/TF1Convolution.h</text>
</g>
<!-- Node89 -->
<g id="node2" class="node">
<title>Node89</title>
<g id="a_node2"><a xlink:href="TFitEditor_8cxx.html" target="_top" xlink:title="gui/fitpanel/src/TFitEditor.cxx">
<polygon fill="#ffffff" stroke="#000000" points="0,-.5 0,-19.5 157,-19.5 157,-.5 0,-.5"/>
<text text-anchor="middle" x="78.5" y="-7.5" font-family="Helvetica,sans-Serif" font-size="10.00" fill="#000000">gui/fitpanel/src/TFitEditor.cxx</text>
</a>
</g>
</g>
<!-- Node88&#45;&gt;Node89 -->
<g id="edge1" class="edge">
<title>Node88&#45;&gt;Node89</title>
<path fill="none" stroke="#191970" d="M195.7721,-52.9231C167.8029,-42.686 129.5607,-28.6889 104.4584,-19.5011"/>
<polygon fill="#191970" stroke="#191970" points="194.6046,-56.2228 205.1984,-56.3733 197.0106,-49.6493 194.6046,-56.2228"/>
</g>
<!-- Node90 -->
<g id="node3" class="node">
<title>Node90</title>
<g id="a_node3"><a xlink:href="TF1_8cxx.html" target="_top" xlink:title="hist/hist/src/TF1.cxx">
<polygon fill="#ffffff" stroke="#000000" points="175,-.5 175,-19.5 288,-19.5 288,-.5 175,-.5"/>
<text text-anchor="middle" x="231.5" y="-7.5" font-family="Helvetica,sans-Serif" font-size="10.00" fill="#000000">hist/hist/src/TF1.cxx</text>
</a>
</g>
</g>
<!-- Node88&#45;&gt;Node90 -->
<g id="edge2" class="edge">
<title>Node88&#45;&gt;Node90</title>
<path fill="none" stroke="#191970" d="M231.5,-46.1575C231.5,-37.155 231.5,-26.9199 231.5,-19.6427"/>
<polygon fill="#191970" stroke="#191970" points="228.0001,-46.2455 231.5,-56.2455 235.0001,-46.2456 228.0001,-46.2455"/>
</g>
<!-- Node91 -->
<g id="node4" class="node">
<title>Node91</title>
<g id="a_node4"><a xlink:href="TF1Convolution_8cxx.html" target="_top" xlink:title="hist/hist/src/TF1Convolution.cxx">
<polygon fill="#ffffff" stroke="#000000" points="306.5,-.5 306.5,-19.5 478.5,-19.5 478.5,-.5 306.5,-.5"/>
<text text-anchor="middle" x="392.5" y="-7.5" font-family="Helvetica,sans-Serif" font-size="10.00" fill="#000000">hist/hist/src/TF1Convolution.cxx</text>
</a>
</g>
</g>
<!-- Node88&#45;&gt;Node91 -->
<g id="edge3" class="edge">
<title>Node88&#45;&gt;Node91</title>
<path fill="none" stroke="#191970" d="M268.7111,-53.057C298.1759,-42.8084 338.6541,-28.729 365.1843,-19.5011"/>
<polygon fill="#191970" stroke="#191970" points="267.472,-49.7822 259.1769,-56.3733 269.7717,-56.3937 267.472,-49.7822"/>
</g>
</g>
</svg>
