<?xml version="1.0" encoding="UTF-8" standalone="no"?>
<!DOCTYPE svg PUBLIC "-//W3C//DTD SVG 1.1//EN"
 "http://www.w3.org/Graphics/SVG/1.1/DTD/svg11.dtd">
<!-- Generated by graphviz version 2.40.1 (0)
 -->
<!-- Title: hist/hist/inc/v5/TF1Data.h Pages: 1 -->
<svg width="256pt" height="95pt"
 viewBox="0.00 0.00 255.50 95.00" xmlns="http://www.w3.org/2000/svg" xmlns:xlink="http://www.w3.org/1999/xlink">
<g id="graph0" class="graph" transform="scale(1 1) rotate(0) translate(4 91)">
<title>hist/hist/inc/v5/TF1Data.h</title>
<polygon fill="#ffffff" stroke="transparent" points="-4,4 -4,-91 251.5,-91 251.5,4 -4,4"/>
<!-- Node67 -->
<g id="node1" class="node">
<title>Node67</title>
<polygon fill="#bfbfbf" stroke="#000000" points="52.5,-67.5 52.5,-86.5 192.5,-86.5 192.5,-67.5 52.5,-67.5"/>
<text text-anchor="middle" x="122.5" y="-74.5" font-family="Helvetica,sans-Serif" font-size="10.00" fill="#000000">hist/hist/inc/v5/TF1Data.h</text>
</g>
<!-- Node68 -->
<g id="node2" class="node">
<title>Node68</title>
<g id="a_node2"><a xlink:href="TF1_8cxx.html" target="_top" xlink:title="hist/hist/src/TF1.cxx">
<polygon fill="#ffffff" stroke="#000000" points="0,-6 0,-25 113,-25 113,-6 0,-6"/>
<text text-anchor="middle" x="56.5" y="-13" font-family="Helvetica,sans-Serif" font-size="10.00" fill="#000000">hist/hist/src/TF1.cxx</text>
</a>
</g>
</g>
<!-- Node67&#45;&gt;Node68 -->
<g id="edge1" class="edge">
<title>Node67&#45;&gt;Node68</title>
<path fill="none" stroke="#191970" d="M104.8444,-60.5482C92.7515,-49.2798 77.1221,-34.716 66.9579,-25.2449"/>
<polygon fill="#191970" stroke="#191970" points="102.4853,-63.134 112.1875,-67.3906 107.2574,-58.0127 102.4853,-63.134"/>
</g>
<!-- Node69 -->
<g id="node3" class="node">
<title>Node69</title>
<g id="a_node3"><a xlink:href="TF1Data__v5_8cxx.html" target="_top" xlink:title="hist/hist/src/TF1Data\l_v5.cxx">
<polygon fill="#ffffff" stroke="#000000" points="131.5,-.5 131.5,-30.5 247.5,-30.5 247.5,-.5 131.5,-.5"/>
<text text-anchor="start" x="139.5" y="-18.5" font-family="Helvetica,sans-Serif" font-size="10.00" fill="#000000">hist/hist/src/TF1Data</text>
<text text-anchor="middle" x="189.5" y="-7.5" font-family="Helvetica,sans-Serif" font-size="10.00" fill="#000000">_v5.cxx</text>
</a>
</g>
</g>
<!-- Node67&#45;&gt;Node69 -->
<g id="edge2" class="edge">
<title>Node67&#45;&gt;Node69</title>
<path fill="none" stroke="#191970" d="M140.4892,-60.4875C150.6412,-51.1689 163.2321,-39.6116 173.11,-30.5446"/>
<polygon fill="#191970" stroke="#191970" points="137.969,-58.0499 132.9688,-67.3906 142.7025,-63.2068 137.969,-58.0499"/>
</g>
</g>
</svg>
