<?xml version="1.0" encoding="UTF-8" standalone="no"?>
<!DOCTYPE svg PUBLIC "-//W3C//DTD SVG 1.1//EN"
 "http://www.w3.org/Graphics/SVG/1.1/DTD/svg11.dtd">
<!-- Generated by graphviz version 2.40.1 (0)
 -->
<!-- Title: net/http/src/TFastCgi.h Pages: 1 -->
<svg width="316pt" height="84pt"
 viewBox="0.00 0.00 316.00 84.00" xmlns="http://www.w3.org/2000/svg" xmlns:xlink="http://www.w3.org/1999/xlink">
<g id="graph0" class="graph" transform="scale(1 1) rotate(0) translate(4 80)">
<title>net/http/src/TFastCgi.h</title>
<polygon fill="#ffffff" stroke="transparent" points="-4,4 -4,-80 312,-80 312,4 -4,4"/>
<!-- Node47 -->
<g id="node1" class="node">
<title>Node47</title>
<polygon fill="#bfbfbf" stroke="#000000" points="87,-56.5 87,-75.5 212,-75.5 212,-56.5 87,-56.5"/>
<text text-anchor="middle" x="149.5" y="-63.5" font-family="Helvetica,sans-Serif" font-size="10.00" fill="#000000">net/http/src/TFastCgi.h</text>
</g>
<!-- Node48 -->
<g id="node2" class="node">
<title>Node48</title>
<g id="a_node2"><a xlink:href="TFastCgi_8cxx.html" target="_top" xlink:title="net/http/src/TFastCgi.cxx">
<polygon fill="#ffffff" stroke="#000000" points="0,-.5 0,-19.5 137,-19.5 137,-.5 0,-.5"/>
<text text-anchor="middle" x="68.5" y="-7.5" font-family="Helvetica,sans-Serif" font-size="10.00" fill="#000000">net/http/src/TFastCgi.cxx</text>
</a>
</g>
</g>
<!-- Node47&#45;&gt;Node48 -->
<g id="edge1" class="edge">
<title>Node47&#45;&gt;Node48</title>
<path fill="none" stroke="#191970" d="M127.066,-50.49C112.7746,-40.6096 94.7084,-28.1194 82.4474,-19.6427"/>
<polygon fill="#191970" stroke="#191970" points="125.1749,-53.4376 135.3909,-56.2455 129.1557,-47.6797 125.1749,-53.4376"/>
</g>
<!-- Node49 -->
<g id="node3" class="node">
<title>Node49</title>
<g id="a_node3"><a xlink:href="THttpServer_8cxx.html" target="_top" xlink:title="net/http/src/THttpServer.cxx">
<polygon fill="#ffffff" stroke="#000000" points="155,-.5 155,-19.5 308,-19.5 308,-.5 155,-.5"/>
<text text-anchor="middle" x="231.5" y="-7.5" font-family="Helvetica,sans-Serif" font-size="10.00" fill="#000000">net/http/src/THttpServer.cxx</text>
</a>
</g>
</g>
<!-- Node47&#45;&gt;Node49 -->
<g id="edge2" class="edge">
<title>Node47&#45;&gt;Node49</title>
<path fill="none" stroke="#191970" d="M172.211,-50.49C186.6788,-40.6096 204.968,-28.1194 217.3804,-19.6427"/>
<polygon fill="#191970" stroke="#191970" points="170.0675,-47.7156 163.7833,-56.2455 174.0152,-53.4962 170.0675,-47.7156"/>
</g>
</g>
</svg>
