<?xml version="1.0" encoding="UTF-8" standalone="no"?>
<!DOCTYPE svg PUBLIC "-//W3C//DTD SVG 1.1//EN"
 "http://www.w3.org/Graphics/SVG/1.1/DTD/svg11.dtd">
<!-- Generated by graphviz version 2.40.1 (0)
 -->
<!-- Title: io/io/inc/TFilePrefetch.h Pages: 1 -->
<svg width="473pt" height="84pt"
 viewBox="0.00 0.00 472.50 84.00" xmlns="http://www.w3.org/2000/svg" xmlns:xlink="http://www.w3.org/1999/xlink">
<g id="graph0" class="graph" transform="scale(1 1) rotate(0) translate(4 80)">
<title>io/io/inc/TFilePrefetch.h</title>
<polygon fill="#ffffff" stroke="transparent" points="-4,4 -4,-80 468.5,-80 468.5,4 -4,4"/>
<!-- Node99 -->
<g id="node1" class="node">
<title>Node99</title>
<polygon fill="#bfbfbf" stroke="#000000" points="178.5,-56.5 178.5,-75.5 308.5,-75.5 308.5,-56.5 178.5,-56.5"/>
<text text-anchor="middle" x="243.5" y="-63.5" font-family="Helvetica,sans-Serif" font-size="10.00" fill="#000000">io/io/inc/TFilePrefetch.h</text>
</g>
<!-- Node100 -->
<g id="node2" class="node">
<title>Node100</title>
<g id="a_node2"><a xlink:href="TFileCacheRead_8cxx.html" target="_top" xlink:title="io/io/src/TFileCacheRead.cxx">
<polygon fill="#ffffff" stroke="#000000" points="0,-.5 0,-19.5 155,-19.5 155,-.5 0,-.5"/>
<text text-anchor="middle" x="77.5" y="-7.5" font-family="Helvetica,sans-Serif" font-size="10.00" fill="#000000">io/io/src/TFileCacheRead.cxx</text>
</a>
</g>
</g>
<!-- Node99&#45;&gt;Node100 -->
<g id="edge1" class="edge">
<title>Node99&#45;&gt;Node100</title>
<path fill="none" stroke="#191970" d="M205.1333,-53.057C174.7534,-42.8084 133.0181,-28.729 105.664,-19.5011"/>
<polygon fill="#191970" stroke="#191970" points="204.3694,-56.4931 214.9636,-56.3733 206.607,-49.8603 204.3694,-56.4931"/>
</g>
<!-- Node101 -->
<g id="node3" class="node">
<title>Node101</title>
<g id="a_node3"><a xlink:href="TFilePrefetch_8cxx.html" target="_top" xlink:title="io/io/src/TFilePrefetch.cxx">
<polygon fill="#ffffff" stroke="#000000" points="173,-.5 173,-19.5 314,-19.5 314,-.5 173,-.5"/>
<text text-anchor="middle" x="243.5" y="-7.5" font-family="Helvetica,sans-Serif" font-size="10.00" fill="#000000">io/io/src/TFilePrefetch.cxx</text>
</a>
</g>
</g>
<!-- Node99&#45;&gt;Node101 -->
<g id="edge2" class="edge">
<title>Node99&#45;&gt;Node101</title>
<path fill="none" stroke="#191970" d="M243.5,-46.1575C243.5,-37.155 243.5,-26.9199 243.5,-19.6427"/>
<polygon fill="#191970" stroke="#191970" points="240.0001,-46.2455 243.5,-56.2455 247.0001,-46.2456 240.0001,-46.2455"/>
</g>
<!-- Node102 -->
<g id="node4" class="node">
<title>Node102</title>
<g id="a_node4"><a xlink:href="TChain_8cxx.html" target="_top" xlink:title="tree/tree/src/TChain.cxx">
<polygon fill="#ffffff" stroke="#000000" points="332.5,-.5 332.5,-19.5 464.5,-19.5 464.5,-.5 332.5,-.5"/>
<text text-anchor="middle" x="398.5" y="-7.5" font-family="Helvetica,sans-Serif" font-size="10.00" fill="#000000">tree/tree/src/TChain.cxx</text>
</a>
</g>
</g>
<!-- Node99&#45;&gt;Node102 -->
<g id="edge3" class="edge">
<title>Node99&#45;&gt;Node102</title>
<path fill="none" stroke="#191970" d="M279.6949,-52.9231C308.0297,-42.686 346.7718,-28.6889 372.2022,-19.5011"/>
<polygon fill="#191970" stroke="#191970" points="278.3612,-49.6835 270.1454,-56.3733 280.7398,-56.267 278.3612,-49.6835"/>
</g>
</g>
</svg>
