<?xml version="1.0" encoding="UTF-8" standalone="no"?>
<!DOCTYPE svg PUBLIC "-//W3C//DTD SVG 1.1//EN"
 "http://www.w3.org/Graphics/SVG/1.1/DTD/svg11.dtd">
<!-- Generated by graphviz version 2.40.1 (0)
 -->
<!-- Title: math/foam/inc/TFoamCell.h Pages: 1 -->
<svg width="334pt" height="84pt"
 viewBox="0.00 0.00 333.50 84.00" xmlns="http://www.w3.org/2000/svg" xmlns:xlink="http://www.w3.org/1999/xlink">
<g id="graph0" class="graph" transform="scale(1 1) rotate(0) translate(4 80)">
<title>math/foam/inc/TFoamCell.h</title>
<polygon fill="#ffffff" stroke="transparent" points="-4,4 -4,-80 329.5,-80 329.5,4 -4,4"/>
<!-- Node27 -->
<g id="node1" class="node">
<title>Node27</title>
<polygon fill="#bfbfbf" stroke="#000000" points="82,-56.5 82,-75.5 234,-75.5 234,-56.5 82,-56.5"/>
<text text-anchor="middle" x="158" y="-63.5" font-family="Helvetica,sans-Serif" font-size="10.00" fill="#000000">math/foam/inc/TFoamCell.h</text>
</g>
<!-- Node28 -->
<g id="node2" class="node">
<title>Node28</title>
<g id="a_node2"><a xlink:href="TFoam_8cxx.html" target="_top" xlink:title="math/foam/src/TFoam.cxx">
<polygon fill="#ffffff" stroke="#000000" points="0,-.5 0,-19.5 144,-19.5 144,-.5 0,-.5"/>
<text text-anchor="middle" x="72" y="-7.5" font-family="Helvetica,sans-Serif" font-size="10.00" fill="#000000">math/foam/src/TFoam.cxx</text>
</a>
</g>
</g>
<!-- Node27&#45;&gt;Node28 -->
<g id="edge1" class="edge">
<title>Node27&#45;&gt;Node28</title>
<path fill="none" stroke="#191970" d="M134.6095,-50.769C119.3701,-40.8456 99.9491,-28.1994 86.8084,-19.6427"/>
<polygon fill="#191970" stroke="#191970" points="132.7301,-53.7218 143.0199,-56.2455 136.5498,-47.8558 132.7301,-53.7218"/>
</g>
<!-- Node29 -->
<g id="node3" class="node">
<title>Node29</title>
<g id="a_node3"><a xlink:href="TFoamCell_8cxx.html" target="_top" xlink:title="math/foam/src/TFoamCell.cxx">
<polygon fill="#ffffff" stroke="#000000" points="162.5,-.5 162.5,-19.5 325.5,-19.5 325.5,-.5 162.5,-.5"/>
<text text-anchor="middle" x="244" y="-7.5" font-family="Helvetica,sans-Serif" font-size="10.00" fill="#000000">math/foam/src/TFoamCell.cxx</text>
</a>
</g>
</g>
<!-- Node27&#45;&gt;Node29 -->
<g id="edge2" class="edge">
<title>Node27&#45;&gt;Node29</title>
<path fill="none" stroke="#191970" d="M181.3905,-50.769C196.6299,-40.8456 216.0509,-28.1994 229.1916,-19.6427"/>
<polygon fill="#191970" stroke="#191970" points="179.4502,-47.8558 172.9801,-56.2455 183.2699,-53.7218 179.4502,-47.8558"/>
</g>
</g>
</svg>
