<?xml version="1.0" encoding="UTF-8" standalone="no"?>
<!DOCTYPE svg PUBLIC "-//W3C//DTD SVG 1.1//EN"
 "http://www.w3.org/Graphics/SVG/1.1/DTD/svg11.dtd">
<!-- Generated by graphviz version 2.40.1 (0)
 -->
<!-- Title: io/io/inc/TFree.h Pages: 1 -->
<svg width="516pt" height="84pt"
 viewBox="0.00 0.00 515.50 84.00" xmlns="http://www.w3.org/2000/svg" xmlns:xlink="http://www.w3.org/1999/xlink">
<g id="graph0" class="graph" transform="scale(1 1) rotate(0) translate(4 80)">
<title>io/io/inc/TFree.h</title>
<polygon fill="#ffffff" stroke="transparent" points="-4,4 -4,-80 511.5,-80 511.5,4 -4,4"/>
<!-- Node26 -->
<g id="node1" class="node">
<title>Node26</title>
<polygon fill="#bfbfbf" stroke="#000000" points="228.5,-56.5 228.5,-75.5 321.5,-75.5 321.5,-56.5 228.5,-56.5"/>
<text text-anchor="middle" x="275" y="-63.5" font-family="Helvetica,sans-Serif" font-size="10.00" fill="#000000">io/io/inc/TFree.h</text>
</g>
<!-- Node27 -->
<g id="node2" class="node">
<title>Node27</title>
<g id="a_node2"><a xlink:href="TDirectoryFile_8cxx.html" target="_top" xlink:title="io/io/src/TDirectoryFile.cxx">
<polygon fill="#ffffff" stroke="#000000" points="0,-.5 0,-19.5 146,-19.5 146,-.5 0,-.5"/>
<text text-anchor="middle" x="73" y="-7.5" font-family="Helvetica,sans-Serif" font-size="10.00" fill="#000000">io/io/src/TDirectoryFile.cxx</text>
</a>
</g>
</g>
<!-- Node26&#45;&gt;Node27 -->
<g id="edge1" class="edge">
<title>Node26&#45;&gt;Node27</title>
<path fill="none" stroke="#191970" d="M230.2289,-53.5882C193.1162,-43.2996 141.1371,-28.8895 107.2719,-19.5011"/>
<polygon fill="#191970" stroke="#191970" points="229.7034,-57.0745 240.275,-56.3733 231.5735,-50.3289 229.7034,-57.0745"/>
</g>
<!-- Node28 -->
<g id="node3" class="node">
<title>Node28</title>
<g id="a_node3"><a xlink:href="TFile_8cxx.html" target="_top" xlink:title=" &#160;">
<polygon fill="#ffffff" stroke="#000000" points="164.5,-.5 164.5,-19.5 265.5,-19.5 265.5,-.5 164.5,-.5"/>
<text text-anchor="middle" x="215" y="-7.5" font-family="Helvetica,sans-Serif" font-size="10.00" fill="#000000">io/io/src/TFile.cxx</text>
</a>
</g>
</g>
<!-- Node26&#45;&gt;Node28 -->
<g id="edge2" class="edge">
<title>Node26&#45;&gt;Node28</title>
<path fill="none" stroke="#191970" d="M257.1722,-49.3607C246.7922,-39.6727 234.0709,-27.7995 225.3314,-19.6427"/>
<polygon fill="#191970" stroke="#191970" points="254.8501,-51.981 264.5488,-56.2455 259.6263,-46.8636 254.8501,-51.981"/>
</g>
<!-- Node29 -->
<g id="node4" class="node">
<title>Node29</title>
<g id="a_node4"><a xlink:href="TFree_8cxx.html" target="_top" xlink:title="io/io/src/TFree.cxx">
<polygon fill="#ffffff" stroke="#000000" points="284,-.5 284,-19.5 388,-19.5 388,-.5 284,-.5"/>
<text text-anchor="middle" x="336" y="-7.5" font-family="Helvetica,sans-Serif" font-size="10.00" fill="#000000">io/io/src/TFree.cxx</text>
</a>
</g>
</g>
<!-- Node26&#45;&gt;Node29 -->
<g id="edge3" class="edge">
<title>Node26&#45;&gt;Node29</title>
<path fill="none" stroke="#191970" d="M293.1249,-49.3607C303.678,-39.6727 316.6112,-27.7995 325.4964,-19.6427"/>
<polygon fill="#191970" stroke="#191970" points="290.625,-46.9045 285.6254,-56.2455 295.3589,-52.0611 290.625,-46.9045"/>
</g>
<!-- Node30 -->
<g id="node5" class="node">
<title>Node30</title>
<g id="a_node5"><a xlink:href="TKey_8cxx.html" target="_top" xlink:title="io/io/src/TKey.cxx">
<polygon fill="#ffffff" stroke="#000000" points="406.5,-.5 406.5,-19.5 507.5,-19.5 507.5,-.5 406.5,-.5"/>
<text text-anchor="middle" x="457" y="-7.5" font-family="Helvetica,sans-Serif" font-size="10.00" fill="#000000">io/io/src/TKey.cxx</text>
</a>
</g>
</g>
<!-- Node26&#45;&gt;Node30 -->
<g id="edge4" class="edge">
<title>Node26&#45;&gt;Node30</title>
<path fill="none" stroke="#191970" d="M316.1986,-53.3235C349.5758,-43.0536 395.8699,-28.8093 426.1214,-19.5011"/>
<polygon fill="#191970" stroke="#191970" points="314.8154,-50.0871 306.2869,-56.3733 316.874,-56.7776 314.8154,-50.0871"/>
</g>
</g>
</svg>
