<?xml version="1.0" encoding="UTF-8" standalone="no"?>
<!DOCTYPE svg PUBLIC "-//W3C//DTD SVG 1.1//EN"
 "http://www.w3.org/Graphics/SVG/1.1/DTD/svg11.dtd">
<!-- Generated by graphviz version 2.40.1 (0)
 -->
<!-- Title: geom/geom/inc/TGDMLMatrix.h Pages: 1 -->
<!--zoomable 151 -->
<svg id="main" version="1.1" xmlns="http://www.w3.org/2000/svg" xmlns:xlink="http://www.w3.org/1999/xlink" xml:space="preserve" onload="init(evt)">
<style type="text/css"><![CDATA[
.edge:hover path { stroke: red; }
.edge:hover polygon { stroke: red; fill: red; }
]]></style>
<script type="text/javascript"><![CDATA[
var edges = document.getElementsByTagName('g');
if (edges && edges.length) {
  for (var i=0;i<edges.length;i++) {
    if (edges[i].id.substr(0,4)=='edge') {
      edges[i].setAttribute('class','edge');
    }
  }
}
]]></script>
        <defs>
                <circle id="rim" cx="0" cy="0" r="7"/>
                <circle id="rim2" cx="0" cy="0" r="3.5"/>
                <g id="zoomPlus">
                        <use xlink:href="#rim" fill="#404040">
                                <set attributeName="fill" to="#808080" begin="zoomplus.mouseover" end="zoomplus.mouseout"/>
                        </use>
                        <path d="M-4,0h8M0,-4v8" fill="none" stroke="white" stroke-width="1.5" pointer-events="none"/>
                </g>
                <g id="zoomMin">
                        <use xlink:href="#rim" fill="#404040">
                                <set attributeName="fill" to="#808080" begin="zoomminus.mouseover" end="zoomminus.mouseout"/>
                        </use>
                        <path d="M-4,0h8" fill="none" stroke="white" stroke-width="1.5" pointer-events="none"/>
                </g>
                <g id="dirArrow">
                        <path fill="none" stroke="white" stroke-width="1.5" d="M0,-3.0v7 M-2.5,-0.5L0,-3.0L2.5,-0.5"/>
                </g>
               <g id="resetDef">
                       <use xlink:href="#rim2" fill="#404040">
                               <set attributeName="fill" to="#808080" begin="reset.mouseover" end="reset.mouseout"/>
                       </use>
               </g>
        </defs>

<script type="text/javascript">
var viewWidth = 1138;
var viewHeight = 151;
var sectionId = 'dynsection-1';
</script>
<script xlink:href="svgpan.js"/>
<svg id="graph" class="graph">
<g id="viewport">
<title>geom/geom/inc/TGDMLMatrix.h</title>
<polygon fill="#ffffff" stroke="transparent" points="-4,4 -4,-147 1133.5,-147 1133.5,4 -4,4"/>
<!-- Node46 -->
<g id="node1" class="node">
<title>Node46</title>
<polygon fill="#bfbfbf" stroke="#000000" points="481,-123.5 481,-142.5 651,-142.5 651,-123.5 481,-123.5"/>
<text text-anchor="middle" x="566" y="-130.5" font-family="Helvetica,sans-Serif" font-size="10.00" fill="#000000">geom/geom/inc/TGDMLMatrix.h</text>
</g>
<!-- Node47 -->
<g id="node2" class="node">
<title>Node47</title>
<g id="a_node2"><a xlink:href="TGDMLWrite_8h.html" target="_top" xlink:title="geom/gdml/inc/TGDMLWrite.h">
<polygon fill="#ffffff" stroke="#000000" points="5.5,-62 5.5,-81 166.5,-81 166.5,-62 5.5,-62"/>
<text text-anchor="middle" x="86" y="-69" font-family="Helvetica,sans-Serif" font-size="10.00" fill="#000000">geom/gdml/inc/TGDMLWrite.h</text>
</a>
</g>
</g>
<!-- Node46&#45;&gt;Node47 -->
<g id="edge1" class="edge">
<title>Node46&#45;&gt;Node47</title>
<path fill="none" stroke="#191970" d="M470.1934,-123.1353C391.1321,-114.6502 276.0882,-101.5109 176,-87 163.9179,-85.2483 150.9618,-83.1481 138.7503,-81.0675"/>
<polygon fill="#191970" stroke="#191970" points="470.3049,-126.667 480.6202,-124.2497 471.0489,-119.7067 470.3049,-126.667"/>
</g>
<!-- Node49 -->
<g id="node4" class="node">
<title>Node49</title>
<g id="a_node4"><a xlink:href="TGDMLParse_8cxx.html" target="_top" xlink:title="geom/gdml/src/TGDMLParse.cxx">
<polygon fill="#ffffff" stroke="#000000" points="184.5,-62 184.5,-81 357.5,-81 357.5,-62 184.5,-62"/>
<text text-anchor="middle" x="271" y="-69" font-family="Helvetica,sans-Serif" font-size="10.00" fill="#000000">geom/gdml/src/TGDMLParse.cxx</text>
</a>
</g>
</g>
<!-- Node46&#45;&gt;Node49 -->
<g id="edge3" class="edge">
<title>Node46&#45;&gt;Node49</title>
<path fill="none" stroke="#191970" d="M510.132,-121.3529C454.1572,-109.6836 369.0276,-91.9363 316.8775,-81.0643"/>
<polygon fill="#191970" stroke="#191970" points="509.7261,-124.8435 520.2299,-123.4581 511.1547,-117.9908 509.7261,-124.8435"/>
</g>
<!-- Node50 -->
<g id="node5" class="node">
<title>Node50</title>
<g id="a_node5"><a xlink:href="TGDMLMatrix_8cxx.html" target="_top" xlink:title="geom/geom/src/TGDMLMatrix.cxx">
<polygon fill="#ffffff" stroke="#000000" points="375.5,-62 375.5,-81 556.5,-81 556.5,-62 375.5,-62"/>
<text text-anchor="middle" x="466" y="-69" font-family="Helvetica,sans-Serif" font-size="10.00" fill="#000000">geom/geom/src/TGDMLMatrix.cxx</text>
</a>
</g>
</g>
<!-- Node46&#45;&gt;Node50 -->
<g id="edge4" class="edge">
<title>Node46&#45;&gt;Node50</title>
<path fill="none" stroke="#191970" d="M541.7748,-118.1015C523.0244,-106.57 497.6179,-90.945 481.5153,-81.0419"/>
<polygon fill="#191970" stroke="#191970" points="540.0234,-121.1333 550.375,-123.3906 543.6905,-115.1707 540.0234,-121.1333"/>
</g>
<!-- Node51 -->
<g id="node6" class="node">
<title>Node51</title>
<g id="a_node6"><a xlink:href="TGeoManager_8cxx.html" target="_top" xlink:title="geom/geom/src/TGeoManager.cxx">
<polygon fill="#ffffff" stroke="#000000" points="575,-62 575,-81 757,-81 757,-62 575,-62"/>
<text text-anchor="middle" x="666" y="-69" font-family="Helvetica,sans-Serif" font-size="10.00" fill="#000000">geom/geom/src/TGeoManager.cxx</text>
</a>
</g>
</g>
<!-- Node46&#45;&gt;Node51 -->
<g id="edge5" class="edge">
<title>Node46&#45;&gt;Node51</title>
<path fill="none" stroke="#191970" d="M590.2252,-118.1015C608.9756,-106.57 634.3821,-90.945 650.4847,-81.0419"/>
<polygon fill="#191970" stroke="#191970" points="588.3095,-115.1707 581.625,-123.3906 591.9766,-121.1333 588.3095,-115.1707"/>
</g>
<!-- Node52 -->
<g id="node7" class="node">
<title>Node52</title>
<g id="a_node7"><a xlink:href="TGeoMaterial_8cxx.html" target="_top" xlink:title="geom/geom/src/TGeoMaterial.cxx">
<polygon fill="#ffffff" stroke="#000000" points="775.5,-62 775.5,-81 956.5,-81 956.5,-62 775.5,-62"/>
<text text-anchor="middle" x="866" y="-69" font-family="Helvetica,sans-Serif" font-size="10.00" fill="#000000">geom/geom/src/TGeoMaterial.cxx</text>
</a>
</g>
</g>
<!-- Node46&#45;&gt;Node52 -->
<g id="edge6" class="edge">
<title>Node46&#45;&gt;Node52</title>
<path fill="none" stroke="#191970" d="M622.461,-121.4255C679.3791,-109.7573 766.2009,-91.9588 819.345,-81.0643"/>
<polygon fill="#191970" stroke="#191970" points="621.6392,-118.0211 612.5458,-123.4581 623.045,-124.8785 621.6392,-118.0211"/>
</g>
<!-- Node53 -->
<g id="node8" class="node">
<title>Node53</title>
<g id="a_node8"><a xlink:href="TGeoOpticalSurface_8cxx.html" target="_top" xlink:title="geom/geom/src/TGeoOptical\lSurface.cxx">
<polygon fill="#ffffff" stroke="#000000" points="974.5,-56.5 974.5,-86.5 1129.5,-86.5 1129.5,-56.5 974.5,-56.5"/>
<text text-anchor="start" x="982.5" y="-74.5" font-family="Helvetica,sans-Serif" font-size="10.00" fill="#000000">geom/geom/src/TGeoOptical</text>
<text text-anchor="middle" x="1052" y="-63.5" font-family="Helvetica,sans-Serif" font-size="10.00" fill="#000000">Surface.cxx</text>
</a>
</g>
</g>
<!-- Node46&#45;&gt;Node53 -->
<g id="edge7" class="edge">
<title>Node46&#45;&gt;Node53</title>
<path fill="none" stroke="#191970" d="M661.4601,-123.7524C742.6391,-115.4745 862.2125,-102.3048 966,-87 968.7016,-86.6016 971.4484,-86.1826 974.2208,-85.7479"/>
<polygon fill="#191970" stroke="#191970" points="660.8546,-120.2958 651.259,-124.7874 661.5613,-127.26 660.8546,-120.2958"/>
</g>
<!-- Node48 -->
<g id="node3" class="node">
<title>Node48</title>
<g id="a_node3"><a xlink:href="TGDMLWrite_8cxx.html" target="_top" xlink:title="geom/gdml/src/TGDMLWrite.cxx">
<polygon fill="#ffffff" stroke="#000000" points="0,-.5 0,-19.5 172,-19.5 172,-.5 0,-.5"/>
<text text-anchor="middle" x="86" y="-7.5" font-family="Helvetica,sans-Serif" font-size="10.00" fill="#000000">geom/gdml/src/TGDMLWrite.cxx</text>
</a>
</g>
</g>
<!-- Node47&#45;&gt;Node48 -->
<g id="edge2" class="edge">
<title>Node47&#45;&gt;Node48</title>
<path fill="none" stroke="#191970" d="M86,-51.7462C86,-41.0519 86,-28.314 86,-19.7449"/>
<polygon fill="#191970" stroke="#191970" points="82.5001,-51.8906 86,-61.8906 89.5001,-51.8907 82.5001,-51.8906"/>
</g>
</g>
</svg>
        <g id="navigator" transform="translate(0 0)" fill="#404254">
                <rect fill="#f2f5e9" fill-opacity="0.5" stroke="#606060" stroke-width=".5" x="0" y="0" width="60" height="60"/>
                <use id="zoomplus" xlink:href="#zoomPlus" x="17" y="9" onmousedown="handleZoom(evt,'in')"/>
                <use id="zoomminus" xlink:href="#zoomMin" x="42" y="9" onmousedown="handleZoom(evt,'out')"/>
                <use id="reset" xlink:href="#resetDef" x="30" y="36" onmousedown="handleReset()"/>
                <g id="arrowUp" xlink:href="#dirArrow" transform="translate(30 24)" onmousedown="handlePan(0,-1)">
                  <use xlink:href="#rim" fill="#404040">
                        <set attributeName="fill" to="#808080" begin="arrowUp.mouseover" end="arrowUp.mouseout"/>
                  </use>
                  <path fill="none" stroke="white" stroke-width="1.5" d="M0,-3.0v7 M-2.5,-0.5L0,-3.0L2.5,-0.5"/>
                </g>
                <g id="arrowRight" xlink:href="#dirArrow" transform="rotate(90) translate(36 -43)" onmousedown="handlePan(1,0)">
                  <use xlink:href="#rim" fill="#404040">
                        <set attributeName="fill" to="#808080" begin="arrowRight.mouseover" end="arrowRight.mouseout"/>
                  </use>
                  <path fill="none" stroke="white" stroke-width="1.5" d="M0,-3.0v7 M-2.5,-0.5L0,-3.0L2.5,-0.5"/>
                </g>
                <g id="arrowDown" xlink:href="#dirArrow" transform="rotate(180) translate(-30 -48)" onmousedown="handlePan(0,1)">
                  <use xlink:href="#rim" fill="#404040">
                        <set attributeName="fill" to="#808080" begin="arrowDown.mouseover" end="arrowDown.mouseout"/>
                  </use>
                  <path fill="none" stroke="white" stroke-width="1.5" d="M0,-3.0v7 M-2.5,-0.5L0,-3.0L2.5,-0.5"/>
                </g>
                <g id="arrowLeft" xlink:href="#dirArrow" transform="rotate(270) translate(-36 17)" onmousedown="handlePan(-1,0)">
                  <use xlink:href="#rim" fill="#404040">
                        <set attributeName="fill" to="#808080" begin="arrowLeft.mouseover" end="arrowLeft.mouseout"/>
                  </use>
                  <path fill="none" stroke="white" stroke-width="1.5" d="M0,-3.0v7 M-2.5,-0.5L0,-3.0L2.5,-0.5"/>
                </g>
        </g>
        <svg viewBox="0 0 15 15" width="100%" height="30px" preserveAspectRatio="xMaxYMin meet">
         <g id="arrow_out" transform="scale(0.3 0.3)">
          <a xlink:href="TGDMLMatrix_8h__dep__incl_org.svg" target="_base">
           <rect id="button" ry="5" rx="5" y="6" x="6" height="38" width="38"
                fill="#f2f5e9" fill-opacity="0.5" stroke="#606060" stroke-width="1.0"/>
           <path id="arrow"
             d="M 11.500037,31.436501 C 11.940474,20.09759 22.043105,11.32322 32.158766,21.979434 L 37.068811,17.246167 C 37.068811,17.246167 37.088388,32 37.088388,32 L 22.160133,31.978069 C 22.160133,31.978069 26.997745,27.140456 26.997745,27.140456 C 18.528582,18.264221 13.291696,25.230495 11.500037,31.436501 z"
             style="fill:#404040;"/>
          </a>
         </g>
        </svg>
</svg>
