<?xml version="1.0" encoding="UTF-8" standalone="no"?>
<!DOCTYPE svg PUBLIC "-//W3C//DTD SVG 1.1//EN"
 "http://www.w3.org/Graphics/SVG/1.1/DTD/svg11.dtd">
<!-- Generated by graphviz version 2.40.1 (0)
 -->
<!-- Title: geom/vecgeom/inc/TGeoVGConverter.h Pages: 1 -->
<svg width="1791pt" height="1271pt"
 viewBox="0.00 0.00 1790.57 1271.00" xmlns="http://www.w3.org/2000/svg" xmlns:xlink="http://www.w3.org/1999/xlink">
<g id="graph0" class="graph" transform="scale(1 1) rotate(0) translate(4 1267)">
<title>geom/vecgeom/inc/TGeoVGConverter.h</title>
<polygon fill="#ffffff" stroke="transparent" points="-4,4 -4,-1267 1786.5746,-1267 1786.5746,4 -4,4"/>
<!-- Node0 -->
<g id="node1" class="node">
<title>Node0</title>
<polygon fill="#bfbfbf" stroke="#000000" points="1283.0746,-1243.5 1283.0746,-1262.5 1492.0746,-1262.5 1492.0746,-1243.5 1283.0746,-1243.5"/>
<text text-anchor="middle" x="1387.5746" y="-1250.5" font-family="Helvetica,sans-Serif" font-size="10.00" fill="#000000">geom/vecgeom/inc/TGeoVGConverter.h</text>
</g>
<!-- Node1 -->
<g id="node2" class="node">
<title>Node1</title>
<g id="a_node2"><a xlink:href="TVirtualGeoConverter_8h.html" target="_top" xlink:title="TVirtualGeoConverter.h">
<polygon fill="#ffffff" stroke="#000000" points="1369.0746,-1075.5 1369.0746,-1094.5 1500.0746,-1094.5 1500.0746,-1075.5 1369.0746,-1075.5"/>
<text text-anchor="middle" x="1434.5746" y="-1082.5" font-family="Helvetica,sans-Serif" font-size="10.00" fill="#000000">TVirtualGeoConverter.h</text>
</a>
</g>
</g>
<!-- Node0&#45;&gt;Node1 -->
<g id="edge1" class="edge">
<title>Node0&#45;&gt;Node1</title>
<path fill="none" stroke="#191970" d="M1391.1027,-1243.2545C1397.5473,-1225.2199 1411.4026,-1185.3454 1420.5746,-1151 1424.6828,-1135.6164 1428.3756,-1117.9605 1430.9357,-1104.7832"/>
<polygon fill="#191970" stroke="#191970" points="1434.3825,-1105.3924 1432.8041,-1094.9158 1427.5047,-1104.0901 1434.3825,-1105.3924"/>
</g>
<!-- Node27 -->
<g id="node28" class="node">
<title>Node27</title>
<g id="a_node28"><a xlink:href="TGeoManager_8h.html" target="_top" xlink:title="TGeoManager.h">
<polygon fill="#ffffff" stroke="#000000" points="1289.5746,-1187.5 1289.5746,-1206.5 1381.5746,-1206.5 1381.5746,-1187.5 1289.5746,-1187.5"/>
<text text-anchor="middle" x="1335.5746" y="-1194.5" font-family="Helvetica,sans-Serif" font-size="10.00" fill="#000000">TGeoManager.h</text>
</a>
</g>
</g>
<!-- Node0&#45;&gt;Node27 -->
<g id="edge37" class="edge">
<title>Node0&#45;&gt;Node27</title>
<path fill="none" stroke="#191970" d="M1378.5168,-1243.2455C1371.0604,-1235.2155 1360.3111,-1223.6394 1351.4328,-1214.0781"/>
<polygon fill="#191970" stroke="#191970" points="1353.8978,-1211.589 1344.5285,-1206.6427 1348.7682,-1216.3522 1353.8978,-1211.589"/>
</g>
<!-- Node2 -->
<g id="node3" class="node">
<title>Node2</title>
<g id="a_node3"><a xlink:href="TObject_8h.html" target="_top" xlink:title="TObject.h">
<polygon fill="#ffffff" stroke="#000000" points="1255.0746,-403.5 1255.0746,-422.5 1318.0746,-422.5 1318.0746,-403.5 1255.0746,-403.5"/>
<text text-anchor="middle" x="1286.5746" y="-410.5" font-family="Helvetica,sans-Serif" font-size="10.00" fill="#000000">TObject.h</text>
</a>
</g>
</g>
<!-- Node1&#45;&gt;Node2 -->
<g id="edge2" class="edge">
<title>Node1&#45;&gt;Node2</title>
<path fill="none" stroke="#191970" d="M1431.9956,-1075.4945C1427.0184,-1056.2857 1416.5746,-1011.4032 1416.5746,-973 1416.5746,-973 1416.5746,-973 1416.5746,-525 1416.5746,-492.9599 1410.0783,-481.8068 1387.5746,-459 1371.2928,-442.499 1348.0068,-431.3478 1327.8963,-424.1626"/>
<polygon fill="#191970" stroke="#191970" points="1328.9176,-420.8135 1318.3236,-420.9478 1326.6891,-427.4493 1328.9176,-420.8135"/>
</g>
<!-- Node3 -->
<g id="node4" class="node">
<title>Node3</title>
<polygon fill="#ffffff" stroke="#bfbfbf" points="1629.5746,-.5 1629.5746,-19.5 1707.5746,-19.5 1707.5746,-.5 1629.5746,-.5"/>
<text text-anchor="middle" x="1668.5746" y="-7.5" font-family="Helvetica,sans-Serif" font-size="10.00" fill="#000000">RConfigure.h</text>
</g>
<!-- Node2&#45;&gt;Node3 -->
<g id="edge3" class="edge">
<title>Node2&#45;&gt;Node3</title>
<path fill="none" stroke="#191970" d="M1318.3561,-412.313C1427.8285,-409.0994 1782.5746,-391.2952 1782.5746,-295.5 1782.5746,-295.5 1782.5746,-295.5 1782.5746,-122 1782.5746,-75.4628 1733.6363,-41.828 1699.8881,-24.1659"/>
<polygon fill="#191970" stroke="#191970" points="1701.3322,-20.9746 1690.8255,-19.6105 1698.1883,-27.2289 1701.3322,-20.9746"/>
</g>
<!-- Node4 -->
<g id="node5" class="node">
<title>Node4</title>
<g id="a_node5"><a xlink:href="Rtypes_8h.html" target="_top" xlink:title="Rtypes.h">
<polygon fill="#ffffff" stroke="#000000" points="540.0746,-286 540.0746,-305 599.0746,-305 599.0746,-286 540.0746,-286"/>
<text text-anchor="middle" x="569.5746" y="-293" font-family="Helvetica,sans-Serif" font-size="10.00" fill="#000000">Rtypes.h</text>
</a>
</g>
</g>
<!-- Node2&#45;&gt;Node4 -->
<g id="edge4" class="edge">
<title>Node2&#45;&gt;Node4</title>
<path fill="none" stroke="#191970" d="M1254.9841,-408.4364C1242.1472,-406.6436 1227.1646,-404.6293 1213.5746,-403 1058.3101,-384.3858 1017.6825,-393.538 863.5746,-367 771.4669,-351.1387 665.3745,-322.7868 609.2299,-306.9687"/>
<polygon fill="#191970" stroke="#191970" points="609.9178,-303.5259 599.3424,-304.1668 608.0093,-310.2607 609.9178,-303.5259"/>
</g>
<!-- Node20 -->
<g id="node21" class="node">
<title>Node20</title>
<polygon fill="#ffffff" stroke="#bfbfbf" points="1500.5746,-112.5 1500.5746,-131.5 1544.5746,-131.5 1544.5746,-112.5 1500.5746,-112.5"/>
<text text-anchor="middle" x="1522.5746" y="-119.5" font-family="Helvetica,sans-Serif" font-size="10.00" fill="#000000">string</text>
</g>
<!-- Node2&#45;&gt;Node20 -->
<g id="edge35" class="edge">
<title>Node2&#45;&gt;Node20</title>
<path fill="none" stroke="#191970" d="M1318.2609,-411.9998C1394.543,-409.1038 1586.1108,-398.7839 1640.5746,-367 1667.4448,-351.3191 1672.7364,-340.5146 1682.5746,-311 1699.0019,-261.7179 1652.1547,-175.8381 1644.5746,-168 1620.5746,-143.183 1581.8692,-131.6092 1554.4987,-126.3073"/>
<polygon fill="#191970" stroke="#191970" points="1555.0734,-122.8547 1544.618,-124.5679 1553.8597,-129.7487 1555.0734,-122.8547"/>
</g>
<!-- Node23 -->
<g id="node24" class="node">
<title>Node23</title>
<g id="a_node24"><a xlink:href="TStorage_8h.html" target="_top" xlink:title="TStorage.h">
<polygon fill="#ffffff" stroke="#000000" points="1379.0746,-347.5 1379.0746,-366.5 1448.0746,-366.5 1448.0746,-347.5 1379.0746,-347.5"/>
<text text-anchor="middle" x="1413.5746" y="-354.5" font-family="Helvetica,sans-Serif" font-size="10.00" fill="#000000">TStorage.h</text>
</a>
</g>
</g>
<!-- Node2&#45;&gt;Node23 -->
<g id="edge29" class="edge">
<title>Node2&#45;&gt;Node23</title>
<path fill="none" stroke="#191970" d="M1308.4066,-403.3733C1328.8849,-394.3435 1359.7144,-380.7494 1382.7065,-370.6111"/>
<polygon fill="#191970" stroke="#191970" points="1384.2895,-373.7383 1392.0274,-366.5011 1381.4653,-367.3333 1384.2895,-373.7383"/>
</g>
<!-- Node24 -->
<g id="node25" class="node">
<title>Node24</title>
<g id="a_node25"><a xlink:href="TVersionCheck_8h.html" target="_top" xlink:title="TVersionCheck.h">
<polygon fill="#ffffff" stroke="#000000" points="1042.5746,-112.5 1042.5746,-131.5 1140.5746,-131.5 1140.5746,-112.5 1042.5746,-112.5"/>
<text text-anchor="middle" x="1091.5746" y="-119.5" font-family="Helvetica,sans-Serif" font-size="10.00" fill="#000000">TVersionCheck.h</text>
</a>
</g>
</g>
<!-- Node2&#45;&gt;Node24 -->
<g id="edge32" class="edge">
<title>Node2&#45;&gt;Node24</title>
<path fill="none" stroke="#191970" d="M1254.7558,-407.7007C1202.1297,-398.6179 1101.721,-379.8185 1091.5746,-367 1064.2133,-332.4333 1081.1623,-193.2097 1088.6028,-141.4801"/>
<polygon fill="#191970" stroke="#191970" points="1092.0659,-141.9865 1090.0658,-131.5822 1085.1411,-140.9629 1092.0659,-141.9865"/>
</g>
<!-- Node25 -->
<g id="node26" class="node">
<title>Node25</title>
<polygon fill="#ffffff" stroke="#bfbfbf" points="1304.5746,-347.5 1304.5746,-366.5 1360.5746,-366.5 1360.5746,-347.5 1304.5746,-347.5"/>
<text text-anchor="middle" x="1332.5746" y="-354.5" font-family="Helvetica,sans-Serif" font-size="10.00" fill="#000000">stdarg.h</text>
</g>
<!-- Node2&#45;&gt;Node25 -->
<g id="edge34" class="edge">
<title>Node2&#45;&gt;Node25</title>
<path fill="none" stroke="#191970" d="M1294.5871,-403.2455C1301.0513,-395.3761 1310.313,-384.101 1318.0729,-374.6542"/>
<polygon fill="#191970" stroke="#191970" points="1321.0109,-376.5916 1324.6538,-366.6427 1315.6018,-372.1484 1321.0109,-376.5916"/>
</g>
<!-- Node26 -->
<g id="node27" class="node">
<title>Node26</title>
<polygon fill="#ffffff" stroke="#bfbfbf" points="1237.0746,-347.5 1237.0746,-366.5 1286.0746,-366.5 1286.0746,-347.5 1237.0746,-347.5"/>
<text text-anchor="middle" x="1261.5746" y="-354.5" font-family="Helvetica,sans-Serif" font-size="10.00" fill="#000000">iosfwd</text>
</g>
<!-- Node2&#45;&gt;Node26 -->
<g id="edge36" class="edge">
<title>Node2&#45;&gt;Node26</title>
<path fill="none" stroke="#191970" d="M1282.2199,-403.2455C1278.8501,-395.6973 1274.0816,-385.0158 1269.9762,-375.8197"/>
<polygon fill="#191970" stroke="#191970" points="1273.1519,-374.3473 1265.8793,-366.6427 1266.7599,-377.2009 1273.1519,-374.3473"/>
</g>
<!-- Node5 -->
<g id="node6" class="node">
<title>Node5</title>
<g id="a_node6"><a xlink:href="RtypesCore_8h.html" target="_top" xlink:title="RtypesCore.h">
<polygon fill="#ffffff" stroke="#000000" points="343.5746,-112.5 343.5746,-131.5 425.5746,-131.5 425.5746,-112.5 343.5746,-112.5"/>
<text text-anchor="middle" x="384.5746" y="-119.5" font-family="Helvetica,sans-Serif" font-size="10.00" fill="#000000">RtypesCore.h</text>
</a>
</g>
</g>
<!-- Node4&#45;&gt;Node5 -->
<g id="edge5" class="edge">
<title>Node4&#45;&gt;Node5</title>
<path fill="none" stroke="#191970" d="M539.7663,-294.1158C434.242,-289.0104 82.4283,-270.1656 39.5746,-244 14.3216,-228.581 11.9125,-216.389 3.5746,-188 1.0697,-179.4713 -2.3221,-174.6514 3.5746,-168 25.1051,-143.7136 234.5915,-129.7483 333.435,-124.4626"/>
<polygon fill="#191970" stroke="#191970" points="333.6975,-127.9538 343.5001,-123.934 333.3303,-120.9634 333.6975,-127.9538"/>
</g>
<!-- Node9 -->
<g id="node10" class="node">
<title>Node9</title>
<g id="a_node10"><a xlink:href="DllImport_8h.html" target="_top" xlink:title="DllImport.h">
<polygon fill="#ffffff" stroke="#000000" points="196.0746,-224.5 196.0746,-243.5 267.0746,-243.5 267.0746,-224.5 196.0746,-224.5"/>
<text text-anchor="middle" x="231.5746" y="-231.5" font-family="Helvetica,sans-Serif" font-size="10.00" fill="#000000">DllImport.h</text>
</a>
</g>
</g>
<!-- Node4&#45;&gt;Node9 -->
<g id="edge10" class="edge">
<title>Node4&#45;&gt;Node9</title>
<path fill="none" stroke="#191970" d="M539.9651,-290.745C488.6494,-282.4072 379.6587,-264.2723 277.2894,-244.0746"/>
<polygon fill="#191970" stroke="#191970" points="277.8954,-240.6267 267.4055,-242.1138 276.5332,-247.4929 277.8954,-240.6267"/>
</g>
<!-- Node10 -->
<g id="node11" class="node">
<title>Node10</title>
<polygon fill="#ffffff" stroke="#bfbfbf" points="285.5746,-224.5 285.5746,-243.5 347.5746,-243.5 347.5746,-224.5 285.5746,-224.5"/>
<text text-anchor="middle" x="316.5746" y="-231.5" font-family="Helvetica,sans-Serif" font-size="10.00" fill="#000000">snprintf.h</text>
</g>
<!-- Node4&#45;&gt;Node10 -->
<g id="edge11" class="edge">
<title>Node4&#45;&gt;Node10</title>
<path fill="none" stroke="#191970" d="M539.9232,-288.4075C500.6056,-278.9861 428.7931,-261.7205 357.6136,-244.2427"/>
<polygon fill="#191970" stroke="#191970" points="358.124,-240.764 347.5776,-241.7759 356.4531,-247.5617 358.124,-240.764"/>
</g>
<!-- Node11 -->
<g id="node12" class="node">
<title>Node11</title>
<polygon fill="#ffffff" stroke="#bfbfbf" points="437.0746,-224.5 437.0746,-243.5 494.0746,-243.5 494.0746,-224.5 437.0746,-224.5"/>
<text text-anchor="middle" x="465.5746" y="-231.5" font-family="Helvetica,sans-Serif" font-size="10.00" fill="#000000">strlcpy.h</text>
</g>
<!-- Node4&#45;&gt;Node11 -->
<g id="edge12" class="edge">
<title>Node4&#45;&gt;Node11</title>
<path fill="none" stroke="#191970" d="M553.3246,-285.8906C536.4577,-275.9165 509.8646,-260.1908 490.3711,-248.6633"/>
<polygon fill="#191970" stroke="#191970" points="492.0996,-245.6194 481.7104,-243.5419 488.5365,-251.6447 492.0996,-245.6194"/>
</g>
<!-- Node12 -->
<g id="node13" class="node">
<title>Node12</title>
<polygon fill="#ffffff" stroke="#bfbfbf" points="12.5746,-168.5 12.5746,-187.5 62.5746,-187.5 62.5746,-168.5 12.5746,-168.5"/>
<text text-anchor="middle" x="37.5746" y="-175.5" font-family="Helvetica,sans-Serif" font-size="10.00" fill="#000000">atomic</text>
</g>
<!-- Node4&#45;&gt;Node12 -->
<g id="edge13" class="edge">
<title>Node4&#45;&gt;Node12</title>
<path fill="none" stroke="#191970" d="M539.7215,-294.4305C435.7478,-290.4463 93.8192,-275.0711 56.5746,-244 43.2956,-232.9221 38.9643,-213.2131 37.7044,-198.208"/>
<polygon fill="#191970" stroke="#191970" points="41.1855,-197.705 37.2424,-187.8713 34.1925,-198.0177 41.1855,-197.705"/>
</g>
<!-- Node13 -->
<g id="node14" class="node">
<title>Node13</title>
<polygon fill="#ffffff" stroke="#bfbfbf" points="720.5746,-224.5 720.5746,-243.5 770.5746,-243.5 770.5746,-224.5 720.5746,-224.5"/>
<text text-anchor="middle" x="745.5746" y="-231.5" font-family="Helvetica,sans-Serif" font-size="10.00" fill="#000000">stdio.h</text>
</g>
<!-- Node4&#45;&gt;Node13 -->
<g id="edge14" class="edge">
<title>Node4&#45;&gt;Node13</title>
<path fill="none" stroke="#191970" d="M597.0746,-285.8906C627.7401,-275.1751 677.4033,-257.8212 710.7566,-246.1665"/>
<polygon fill="#191970" stroke="#191970" points="712.2593,-249.349 720.545,-242.7461 709.9501,-242.7408 712.2593,-249.349"/>
</g>
<!-- Node14 -->
<g id="node15" class="node">
<title>Node14</title>
<polygon fill="#ffffff" stroke="#bfbfbf" points="366.0746,-224.5 366.0746,-243.5 419.0746,-243.5 419.0746,-224.5 366.0746,-224.5"/>
<text text-anchor="middle" x="392.5746" y="-231.5" font-family="Helvetica,sans-Serif" font-size="10.00" fill="#000000">string.h</text>
</g>
<!-- Node4&#45;&gt;Node14 -->
<g id="edge15" class="edge">
<title>Node4&#45;&gt;Node14</title>
<path fill="none" stroke="#191970" d="M541.9183,-285.8906C511.5191,-275.3282 462.5563,-258.3157 429.0378,-246.6694"/>
<polygon fill="#191970" stroke="#191970" points="429.7638,-243.2165 419.169,-243.2404 427.4663,-249.8287 429.7638,-243.2165"/>
</g>
<!-- Node15 -->
<g id="node16" class="node">
<title>Node15</title>
<polygon fill="#ffffff" stroke="#bfbfbf" points="243.0746,-168.5 243.0746,-187.5 300.0746,-187.5 300.0746,-168.5 243.0746,-168.5"/>
<text text-anchor="middle" x="271.5746" y="-175.5" font-family="Helvetica,sans-Serif" font-size="10.00" fill="#000000">typeinfo</text>
</g>
<!-- Node4&#45;&gt;Node15 -->
<g id="edge16" class="edge">
<title>Node4&#45;&gt;Node15</title>
<path fill="none" stroke="#191970" d="M539.7816,-293.7164C453.7909,-288.2676 209.8173,-270.5773 186.5746,-244 167.5412,-222.2361 202.5799,-202.667 233.2727,-190.5922"/>
<polygon fill="#191970" stroke="#191970" points="234.8758,-193.7291 243.0111,-186.9418 232.4188,-187.1745 234.8758,-193.7291"/>
</g>
<!-- Node16 -->
<g id="node17" class="node">
<title>Node16</title>
<polygon fill="#ffffff" stroke="#bfbfbf" points="761.0746,-168.5 761.0746,-187.5 830.0746,-187.5 830.0746,-168.5 761.0746,-168.5"/>
<text text-anchor="middle" x="795.5746" y="-175.5" font-family="Helvetica,sans-Serif" font-size="10.00" fill="#000000">type_traits</text>
</g>
<!-- Node4&#45;&gt;Node16 -->
<g id="edge17" class="edge">
<title>Node4&#45;&gt;Node16</title>
<path fill="none" stroke="#191970" d="M588.0691,-285.8845C627.8154,-265.2199 721.5454,-216.4886 768.2018,-192.2314"/>
<polygon fill="#191970" stroke="#191970" points="769.8835,-195.3019 777.1414,-187.5836 766.6544,-189.0912 769.8835,-195.3019"/>
</g>
<!-- Node17 -->
<g id="node18" class="node">
<title>Node17</title>
<g id="a_node18"><a xlink:href="TGenericClassInfo_8h.html" target="_top" xlink:title="TGenericClassInfo.h">
<polygon fill="#ffffff" stroke="#000000" points="512.5746,-224.5 512.5746,-243.5 626.5746,-243.5 626.5746,-224.5 512.5746,-224.5"/>
<text text-anchor="middle" x="569.5746" y="-231.5" font-family="Helvetica,sans-Serif" font-size="10.00" fill="#000000">TGenericClassInfo.h</text>
</a>
</g>
</g>
<!-- Node4&#45;&gt;Node17 -->
<g id="edge18" class="edge">
<title>Node4&#45;&gt;Node17</title>
<path fill="none" stroke="#191970" d="M564.5121,-285.8906C562.8487,-277.3657 562.415,-264.6392 563.2111,-253.9235"/>
<polygon fill="#191970" stroke="#191970" points="566.7159,-254.1023 564.4858,-243.7449 559.7702,-253.2324 566.7159,-254.1023"/>
</g>
<!-- Node21 -->
<g id="node22" class="node">
<title>Node21</title>
<g id="a_node22"><a xlink:href="TIsAProxy_8h.html" target="_top" xlink:title="TIsAProxy.h">
<polygon fill="#ffffff" stroke="#000000" points="66.0746,-224.5 66.0746,-243.5 139.0746,-243.5 139.0746,-224.5 66.0746,-224.5"/>
<text text-anchor="middle" x="102.5746" y="-231.5" font-family="Helvetica,sans-Serif" font-size="10.00" fill="#000000">TIsAProxy.h</text>
</a>
</g>
</g>
<!-- Node4&#45;&gt;Node21 -->
<g id="edge24" class="edge">
<title>Node4&#45;&gt;Node21</title>
<path fill="none" stroke="#191970" d="M539.9672,-292.5591C471.6589,-285.616 297.8386,-267.044 153.5746,-244 152.1267,-243.7687 150.6572,-243.5265 149.1746,-243.2757"/>
<polygon fill="#191970" stroke="#191970" points="149.7485,-239.8229 139.2905,-241.52 148.5242,-246.7151 149.7485,-239.8229"/>
</g>
<!-- Node6 -->
<g id="node7" class="node">
<title>Node6</title>
<g id="a_node7"><a xlink:href="RConfig_8hxx.html" target="_top" xlink:title="ROOT/RConfig.hxx">
<polygon fill="#ffffff" stroke="#000000" points="958.0746,-56.5 958.0746,-75.5 1063.0746,-75.5 1063.0746,-56.5 958.0746,-56.5"/>
<text text-anchor="middle" x="1010.5746" y="-63.5" font-family="Helvetica,sans-Serif" font-size="10.00" fill="#000000">ROOT/RConfig.hxx</text>
</a>
</g>
</g>
<!-- Node5&#45;&gt;Node6 -->
<g id="edge6" class="edge">
<title>Node5&#45;&gt;Node6</title>
<path fill="none" stroke="#191970" d="M425.6482,-118.3257C532.5095,-108.7662 819.7608,-83.0696 947.6577,-71.6283"/>
<polygon fill="#191970" stroke="#191970" points="948.0428,-75.108 957.6912,-70.7308 947.4191,-68.1358 948.0428,-75.108"/>
</g>
<!-- Node8 -->
<g id="node9" class="node">
<title>Node8</title>
<polygon fill="#ffffff" stroke="#bfbfbf" points="356.5746,-56.5 356.5746,-75.5 412.5746,-75.5 412.5746,-56.5 356.5746,-56.5"/>
<text text-anchor="middle" x="384.5746" y="-63.5" font-family="Helvetica,sans-Serif" font-size="10.00" fill="#000000">stddef.h</text>
</g>
<!-- Node5&#45;&gt;Node8 -->
<g id="edge9" class="edge">
<title>Node5&#45;&gt;Node8</title>
<path fill="none" stroke="#191970" d="M384.5746,-112.2455C384.5746,-104.9382 384.5746,-94.6944 384.5746,-85.7046"/>
<polygon fill="#191970" stroke="#191970" points="388.0747,-85.6426 384.5746,-75.6427 381.0747,-85.6427 388.0747,-85.6426"/>
</g>
<!-- Node6&#45;&gt;Node3 -->
<g id="edge8" class="edge">
<title>Node6&#45;&gt;Node3</title>
<path fill="none" stroke="#191970" d="M1063.3092,-61.5119C1187.7661,-50.9199 1498.3667,-24.4858 1619.2956,-14.194"/>
<polygon fill="#191970" stroke="#191970" points="1619.7094,-17.6715 1629.3766,-13.336 1619.1158,-10.6967 1619.7094,-17.6715"/>
</g>
<!-- Node7 -->
<g id="node8" class="node">
<title>Node7</title>
<g id="a_node8"><a xlink:href="RVersion_8h.html" target="_top" xlink:title="../RVersion.h">
<polygon fill="#ffffff" stroke="#000000" points="1013.0746,-.5 1013.0746,-19.5 1090.0746,-19.5 1090.0746,-.5 1013.0746,-.5"/>
<text text-anchor="middle" x="1051.5746" y="-7.5" font-family="Helvetica,sans-Serif" font-size="10.00" fill="#000000">../RVersion.h</text>
</a>
</g>
</g>
<!-- Node6&#45;&gt;Node7 -->
<g id="edge7" class="edge">
<title>Node6&#45;&gt;Node7</title>
<path fill="none" stroke="#191970" d="M1017.7162,-56.2455C1023.419,-48.4564 1031.5645,-37.3308 1038.437,-27.9439"/>
<polygon fill="#191970" stroke="#191970" points="1041.4313,-29.7789 1044.5147,-19.6427 1035.7833,-25.6437 1041.4313,-29.7789"/>
</g>
<!-- Node17&#45;&gt;Node4 -->
<g id="edge23" class="edge">
<title>Node17&#45;&gt;Node4</title>
<path fill="none" stroke="#191970" d="M574.6633,-243.7449C576.3137,-252.314 576.7344,-265.0519 575.9253,-275.7462"/>
<polygon fill="#191970" stroke="#191970" points="572.4249,-275.5293 574.6371,-285.8906 579.3691,-276.4113 572.4249,-275.5293"/>
</g>
<!-- Node18 -->
<g id="node19" class="node">
<title>Node18</title>
<polygon fill="#ffffff" stroke="#bfbfbf" points="696.0746,-168.5 696.0746,-187.5 743.0746,-187.5 743.0746,-168.5 696.0746,-168.5"/>
<text text-anchor="middle" x="719.5746" y="-175.5" font-family="Helvetica,sans-Serif" font-size="10.00" fill="#000000">vector</text>
</g>
<!-- Node17&#45;&gt;Node18 -->
<g id="edge19" class="edge">
<title>Node17&#45;&gt;Node18</title>
<path fill="none" stroke="#191970" d="M595.3605,-224.3733C620.4269,-215.0151 658.6246,-200.7547 686.0409,-190.5192"/>
<polygon fill="#191970" stroke="#191970" points="687.4653,-193.7235 695.6096,-186.9469 685.017,-187.1656 687.4653,-193.7235"/>
</g>
<!-- Node19 -->
<g id="node20" class="node">
<title>Node19</title>
<g id="a_node20"><a xlink:href="TSchemaHelper_8h.html" target="_top" xlink:title="TSchemaHelper.h">
<polygon fill="#ffffff" stroke="#000000" points="499.5746,-168.5 499.5746,-187.5 601.5746,-187.5 601.5746,-168.5 499.5746,-168.5"/>
<text text-anchor="middle" x="550.5746" y="-175.5" font-family="Helvetica,sans-Serif" font-size="10.00" fill="#000000">TSchemaHelper.h</text>
</a>
</g>
</g>
<!-- Node17&#45;&gt;Node19 -->
<g id="edge20" class="edge">
<title>Node17&#45;&gt;Node19</title>
<path fill="none" stroke="#191970" d="M566.265,-224.2455C563.7313,-216.7776 560.1569,-206.2427 557.0596,-197.1137"/>
<polygon fill="#191970" stroke="#191970" points="560.3736,-195.9879 553.8462,-187.6427 553.7448,-198.237 560.3736,-195.9879"/>
</g>
<!-- Node19&#45;&gt;Node5 -->
<g id="edge21" class="edge">
<title>Node19&#45;&gt;Node5</title>
<path fill="none" stroke="#191970" d="M522.0381,-168.3733C494.5544,-159.1016 452.806,-145.0178 422.5294,-134.804"/>
<polygon fill="#191970" stroke="#191970" points="423.3328,-131.3813 412.7386,-131.5011 421.0952,-138.0141 423.3328,-131.3813"/>
</g>
<!-- Node19&#45;&gt;Node20 -->
<g id="edge22" class="edge">
<title>Node19&#45;&gt;Node20</title>
<path fill="none" stroke="#191970" d="M601.5827,-169.0896C604.6204,-168.6862 607.6348,-168.3181 610.5746,-168 786.4613,-148.9706 1348.847,-128.1584 1490.132,-123.1357"/>
<polygon fill="#191970" stroke="#191970" points="1490.4327,-126.6273 1500.3026,-122.7756 1490.185,-119.6317 1490.4327,-126.6273"/>
</g>
<!-- Node21&#45;&gt;Node5 -->
<g id="edge26" class="edge">
<title>Node21&#45;&gt;Node5</title>
<path fill="none" stroke="#191970" d="M121.9874,-224.3653C140.6268,-215.0976 169.5625,-200.666 194.5746,-188 211.953,-179.1997 215.5192,-175.3117 233.5746,-168 267.3499,-154.3222 306.7764,-142.443 336.8715,-134.1841"/>
<polygon fill="#191970" stroke="#191970" points="337.9599,-137.5155 346.6983,-131.5246 336.1312,-130.7586 337.9599,-137.5155"/>
</g>
<!-- Node21&#45;&gt;Node12 -->
<g id="edge27" class="edge">
<title>Node21&#45;&gt;Node12</title>
<path fill="none" stroke="#191970" d="M91.2524,-224.2455C81.6522,-215.9746 67.6854,-203.9416 56.4051,-194.2232"/>
<polygon fill="#191970" stroke="#191970" points="58.6276,-191.5182 48.7669,-187.6427 54.0586,-196.8214 58.6276,-191.5182"/>
</g>
<!-- Node21&#45;&gt;Node15 -->
<g id="edge28" class="edge">
<title>Node21&#45;&gt;Node15</title>
<path fill="none" stroke="#191970" d="M131.6267,-224.3733C159.7288,-215.0613 202.4799,-200.8953 233.3352,-190.671"/>
<polygon fill="#191970" stroke="#191970" points="234.51,-193.969 242.9015,-187.5011 232.3082,-187.3243 234.51,-193.969"/>
</g>
<!-- Node22 -->
<g id="node23" class="node">
<title>Node22</title>
<g id="a_node23"><a xlink:href="TVirtualIsAProxy_8h.html" target="_top" xlink:title="TVirtualIsAProxy.h">
<polygon fill="#ffffff" stroke="#000000" points="81.0746,-168.5 81.0746,-187.5 186.0746,-187.5 186.0746,-168.5 81.0746,-168.5"/>
<text text-anchor="middle" x="133.5746" y="-175.5" font-family="Helvetica,sans-Serif" font-size="10.00" fill="#000000">TVirtualIsAProxy.h</text>
</a>
</g>
</g>
<!-- Node21&#45;&gt;Node22 -->
<g id="edge25" class="edge">
<title>Node21&#45;&gt;Node22</title>
<path fill="none" stroke="#191970" d="M107.9743,-224.2455C112.1973,-216.617 118.1918,-205.7881 123.3187,-196.5267"/>
<polygon fill="#191970" stroke="#191970" points="126.4556,-198.0867 128.2366,-187.6427 120.3313,-194.6965 126.4556,-198.0867"/>
</g>
<!-- Node23&#45;&gt;Node3 -->
<g id="edge30" class="edge">
<title>Node23&#45;&gt;Node3</title>
<path fill="none" stroke="#191970" d="M1448.2304,-348.0541C1517.9521,-329.0354 1668.5746,-282.3532 1668.5746,-234 1668.5746,-234 1668.5746,-234 1668.5746,-122 1668.5746,-89.7116 1668.5746,-52.1872 1668.5746,-29.8048"/>
<polygon fill="#191970" stroke="#191970" points="1672.0747,-29.5883 1668.5746,-19.5884 1665.0747,-29.5884 1672.0747,-29.5883"/>
</g>
<!-- Node23&#45;&gt;Node4 -->
<g id="edge31" class="edge">
<title>Node23&#45;&gt;Node4</title>
<path fill="none" stroke="#191970" d="M1378.6042,-348.5242C1375.5615,-347.9473 1372.5206,-347.4268 1369.5746,-347 1220.2314,-325.3628 749.8717,-303.4293 609.5025,-297.2268"/>
<polygon fill="#191970" stroke="#191970" points="609.3594,-293.7172 599.2152,-296.7744 609.0517,-300.7105 609.3594,-293.7172"/>
</g>
<!-- Node24&#45;&gt;Node7 -->
<g id="edge33" class="edge">
<title>Node24&#45;&gt;Node7</title>
<path fill="none" stroke="#191970" d="M1089.0654,-112.487C1085.5707,-99.5571 1078.8433,-75.7789 1071.5746,-56 1068.2431,-46.9347 1064.0444,-37.0906 1060.3553,-28.8438"/>
<polygon fill="#191970" stroke="#191970" points="1063.5354,-27.3818 1056.2005,-19.7365 1057.1668,-30.2872 1063.5354,-27.3818"/>
</g>
<!-- Node28 -->
<g id="node29" class="node">
<title>Node28</title>
<polygon fill="#ffffff" stroke="#bfbfbf" points="585.5746,-851.5 585.5746,-870.5 633.5746,-870.5 633.5746,-851.5 585.5746,-851.5"/>
<text text-anchor="middle" x="609.5746" y="-858.5" font-family="Helvetica,sans-Serif" font-size="10.00" fill="#000000">mutex</text>
</g>
<!-- Node27&#45;&gt;Node28 -->
<g id="edge38" class="edge">
<title>Node27&#45;&gt;Node28</title>
<path fill="none" stroke="#191970" d="M1289.4447,-1194.232C1137.2312,-1184.491 660.5746,-1148.8866 660.5746,-1085 660.5746,-1085 660.5746,-1085 660.5746,-973 660.5746,-937.0802 638.579,-900.0352 623.4779,-878.8345"/>
<polygon fill="#191970" stroke="#191970" points="626.084,-876.4725 617.3204,-870.5185 620.4583,-880.638 626.084,-876.4725"/>
</g>
<!-- Node29 -->
<g id="node30" class="node">
<title>Node29</title>
<polygon fill="#ffffff" stroke="#bfbfbf" points="1363.5746,-1131.5 1363.5746,-1150.5 1411.5746,-1150.5 1411.5746,-1131.5 1363.5746,-1131.5"/>
<text text-anchor="middle" x="1387.5746" y="-1138.5" font-family="Helvetica,sans-Serif" font-size="10.00" fill="#000000">thread</text>
</g>
<!-- Node27&#45;&gt;Node29 -->
<g id="edge39" class="edge">
<title>Node27&#45;&gt;Node29</title>
<path fill="none" stroke="#191970" d="M1344.6323,-1187.2455C1352.0887,-1179.2155 1362.838,-1167.6394 1371.7163,-1158.0781"/>
<polygon fill="#191970" stroke="#191970" points="1374.3809,-1160.3522 1378.6206,-1150.6427 1369.2513,-1155.589 1374.3809,-1160.3522"/>
</g>
<!-- Node30 -->
<g id="node31" class="node">
<title>Node30</title>
<g id="a_node31"><a xlink:href="TObjArray_8h.html" target="_top" xlink:title="TObjArray.h">
<polygon fill="#ffffff" stroke="#000000" points="1204.0746,-683.5 1204.0746,-702.5 1277.0746,-702.5 1277.0746,-683.5 1204.0746,-683.5"/>
<text text-anchor="middle" x="1240.5746" y="-690.5" font-family="Helvetica,sans-Serif" font-size="10.00" fill="#000000">TObjArray.h</text>
</a>
</g>
</g>
<!-- Node27&#45;&gt;Node30 -->
<g id="edge40" class="edge">
<title>Node27&#45;&gt;Node30</title>
<path fill="none" stroke="#191970" d="M1335.5746,-1187.4116C1335.5746,-1168.0538 1335.5746,-1122.9167 1335.5746,-1085 1335.5746,-1085 1335.5746,-1085 1335.5746,-805 1335.5746,-761.9765 1294.3011,-727.0102 1266.1636,-708.1715"/>
<polygon fill="#191970" stroke="#191970" points="1267.8615,-705.102 1257.5587,-702.632 1264.0725,-710.9879 1267.8615,-705.102"/>
</g>
<!-- Node56 -->
<g id="node57" class="node">
<title>Node56</title>
<g id="a_node57"><a xlink:href="TGeoNavigator_8h.html" target="_top" xlink:title="TGeoNavigator.h">
<polygon fill="#ffffff" stroke="#000000" points="1209.5746,-1131.5 1209.5746,-1150.5 1307.5746,-1150.5 1307.5746,-1131.5 1209.5746,-1131.5"/>
<text text-anchor="middle" x="1258.5746" y="-1138.5" font-family="Helvetica,sans-Serif" font-size="10.00" fill="#000000">TGeoNavigator.h</text>
</a>
</g>
</g>
<!-- Node27&#45;&gt;Node56 -->
<g id="edge93" class="edge">
<title>Node27&#45;&gt;Node56</title>
<path fill="none" stroke="#191970" d="M1322.1622,-1187.2455C1310.5688,-1178.814 1293.5998,-1166.4729 1280.1067,-1156.6598"/>
<polygon fill="#191970" stroke="#191970" points="1281.9792,-1153.6938 1271.8332,-1150.6427 1277.862,-1159.355 1281.9792,-1153.6938"/>
</g>
<!-- Node31 -->
<g id="node32" class="node">
<title>Node31</title>
<g id="a_node32"><a xlink:href="TSeqCollection_8h.html" target="_top" xlink:title="TSeqCollection.h">
<polygon fill="#ffffff" stroke="#000000" points="992.5746,-627.5 992.5746,-646.5 1090.5746,-646.5 1090.5746,-627.5 992.5746,-627.5"/>
<text text-anchor="middle" x="1041.5746" y="-634.5" font-family="Helvetica,sans-Serif" font-size="10.00" fill="#000000">TSeqCollection.h</text>
</a>
</g>
</g>
<!-- Node30&#45;&gt;Node31 -->
<g id="edge41" class="edge">
<title>Node30&#45;&gt;Node31</title>
<path fill="none" stroke="#191970" d="M1206.3652,-683.3733C1172.8448,-673.9404 1121.6241,-659.5265 1085.1935,-649.2747"/>
<polygon fill="#191970" stroke="#191970" points="1085.9117,-645.8409 1075.3375,-646.5011 1084.0155,-652.5792 1085.9117,-645.8409"/>
</g>
<!-- Node41 -->
<g id="node42" class="node">
<title>Node41</title>
<polygon fill="#ffffff" stroke="#bfbfbf" points="1120.0746,-168.5 1120.0746,-187.5 1173.0746,-187.5 1173.0746,-168.5 1120.0746,-168.5"/>
<text text-anchor="middle" x="1146.5746" y="-175.5" font-family="Helvetica,sans-Serif" font-size="10.00" fill="#000000">iterator</text>
</g>
<!-- Node30&#45;&gt;Node41 -->
<g id="edge92" class="edge">
<title>Node30&#45;&gt;Node41</title>
<path fill="none" stroke="#191970" d="M1277.1906,-683.7332C1343.4786,-665.8764 1476.5746,-624.5947 1476.5746,-581 1476.5746,-581 1476.5746,-581 1476.5746,-413 1476.5746,-382.3494 1477.8854,-369.0296 1456.5746,-347 1421.9814,-311.2401 1396.625,-329.8366 1350.5746,-311 1287.0995,-285.036 1267.3467,-283.9084 1211.5746,-244 1191.8951,-229.9181 1172.8939,-209.5889 1160.5724,-195.2212"/>
<polygon fill="#191970" stroke="#191970" points="1163.2417,-192.9573 1154.1348,-187.5429 1157.8775,-197.4546 1163.2417,-192.9573"/>
</g>
<!-- Node32 -->
<g id="node33" class="node">
<title>Node32</title>
<g id="a_node33"><a xlink:href="TCollection_8h.html" target="_top" xlink:title="TCollection.h">
<polygon fill="#ffffff" stroke="#000000" points="1001.5746,-571.5 1001.5746,-590.5 1081.5746,-590.5 1081.5746,-571.5 1001.5746,-571.5"/>
<text text-anchor="middle" x="1041.5746" y="-578.5" font-family="Helvetica,sans-Serif" font-size="10.00" fill="#000000">TCollection.h</text>
</a>
</g>
</g>
<!-- Node31&#45;&gt;Node32 -->
<g id="edge42" class="edge">
<title>Node31&#45;&gt;Node32</title>
<path fill="none" stroke="#191970" d="M1041.5746,-627.2455C1041.5746,-619.9382 1041.5746,-609.6944 1041.5746,-600.7046"/>
<polygon fill="#191970" stroke="#191970" points="1045.0747,-600.6426 1041.5746,-590.6427 1038.0747,-600.6427 1045.0747,-600.6426"/>
</g>
<!-- Node32&#45;&gt;Node2 -->
<g id="edge43" class="edge">
<title>Node32&#45;&gt;Node2</title>
<path fill="none" stroke="#191970" d="M1065.5688,-571.4596C1085.0088,-563.1949 1112.6694,-550.1945 1134.5746,-535 1175.1369,-506.864 1176.7045,-489.4312 1215.5746,-459 1230.0892,-447.6365 1247.4373,-436.3587 1261.3519,-427.8139"/>
<polygon fill="#191970" stroke="#191970" points="1263.1919,-430.7915 1269.9357,-422.62 1259.568,-424.8025 1263.1919,-430.7915"/>
</g>
<!-- Node33 -->
<g id="node34" class="node">
<title>Node33</title>
<g id="a_node34"><a xlink:href="TIterator_8h.html" target="_top" xlink:title="TIterator.h">
<polygon fill="#ffffff" stroke="#000000" points="721.0746,-459.5 721.0746,-478.5 788.0746,-478.5 788.0746,-459.5 721.0746,-459.5"/>
<text text-anchor="middle" x="754.5746" y="-466.5" font-family="Helvetica,sans-Serif" font-size="10.00" fill="#000000">TIterator.h</text>
</a>
</g>
</g>
<!-- Node32&#45;&gt;Node33 -->
<g id="edge44" class="edge">
<title>Node32&#45;&gt;Node33</title>
<path fill="none" stroke="#191970" d="M1006.3582,-571.4533C976.2835,-562.9523 932.0688,-549.6247 894.5746,-535 854.4897,-519.3648 809.7785,-497.4681 781.9102,-483.2595"/>
<polygon fill="#191970" stroke="#191970" points="783.285,-480.031 772.7904,-478.5772 780.0878,-486.2582 783.285,-480.031"/>
</g>
<!-- Node34 -->
<g id="node35" class="node">
<title>Node34</title>
<g id="a_node35"><a xlink:href="TString_8h.html" target="_top" xlink:title="TString.h">
<polygon fill="#ffffff" stroke="#000000" points="1144.5746,-403.5 1144.5746,-422.5 1204.5746,-422.5 1204.5746,-403.5 1144.5746,-403.5"/>
<text text-anchor="middle" x="1174.5746" y="-410.5" font-family="Helvetica,sans-Serif" font-size="10.00" fill="#000000">TString.h</text>
</a>
</g>
</g>
<!-- Node32&#45;&gt;Node34 -->
<g id="edge46" class="edge">
<title>Node32&#45;&gt;Node34</title>
<path fill="none" stroke="#191970" d="M1042.6484,-571.3587C1044.5122,-557.8622 1049.2898,-532.9755 1060.5746,-515 1083.9421,-477.7776 1124.7369,-446.0552 1150.6628,-428.2765"/>
<polygon fill="#191970" stroke="#191970" points="1152.8005,-431.0572 1159.1601,-422.5833 1148.9042,-425.2418 1152.8005,-431.0572"/>
</g>
<!-- Node53 -->
<g id="node54" class="node">
<title>Node53</title>
<g id="a_node54"><a xlink:href="TVirtualRWMutex_8h.html" target="_top" xlink:title="TVirtualRWMutex.h">
<polygon fill="#ffffff" stroke="#000000" points="903.5746,-515.5 903.5746,-534.5 1013.5746,-534.5 1013.5746,-515.5 903.5746,-515.5"/>
<text text-anchor="middle" x="958.5746" y="-522.5" font-family="Helvetica,sans-Serif" font-size="10.00" fill="#000000">TVirtualRWMutex.h</text>
</a>
</g>
</g>
<!-- Node32&#45;&gt;Node53 -->
<g id="edge87" class="edge">
<title>Node32&#45;&gt;Node53</title>
<path fill="none" stroke="#191970" d="M1027.1171,-571.2455C1014.5013,-562.7337 995.9801,-550.2375 981.37,-540.3801"/>
<polygon fill="#191970" stroke="#191970" points="983.1136,-537.3343 972.8664,-534.6427 979.1985,-543.1371 983.1136,-537.3343"/>
</g>
<!-- Node55 -->
<g id="node56" class="node">
<title>Node55</title>
<polygon fill="#ffffff" stroke="#bfbfbf" points="1069.5746,-515.5 1069.5746,-534.5 1125.5746,-534.5 1125.5746,-515.5 1069.5746,-515.5"/>
<text text-anchor="middle" x="1097.5746" y="-522.5" font-family="Helvetica,sans-Serif" font-size="10.00" fill="#000000">assert.h</text>
</g>
<!-- Node32&#45;&gt;Node55 -->
<g id="edge91" class="edge">
<title>Node32&#45;&gt;Node55</title>
<path fill="none" stroke="#191970" d="M1051.329,-571.2455C1059.4393,-563.1352 1071.167,-551.4075 1080.7826,-541.7919"/>
<polygon fill="#191970" stroke="#191970" points="1083.3357,-544.1887 1087.9319,-534.6427 1078.3859,-539.2389 1083.3357,-544.1887"/>
</g>
<!-- Node33&#45;&gt;Node4 -->
<g id="edge45" class="edge">
<title>Node33&#45;&gt;Node4</title>
<path fill="none" stroke="#191970" d="M749.329,-459.3508C736.8972,-437.1812 703.6591,-381.8436 663.5746,-347 645.4331,-331.2305 621.666,-318.2627 602.5697,-309.2843"/>
<polygon fill="#191970" stroke="#191970" points="603.8917,-306.0406 593.3404,-305.081 600.9903,-312.411 603.8917,-306.0406"/>
</g>
<!-- Node34&#45;&gt;Node13 -->
<g id="edge85" class="edge">
<title>Node34&#45;&gt;Node13</title>
<path fill="none" stroke="#191970" d="M1144.358,-411.1572C1076.0267,-406.5741 911.8186,-393.1037 863.5746,-367 813.3281,-339.8128 774.0587,-282.4206 756.1569,-252.7076"/>
<polygon fill="#191970" stroke="#191970" points="758.9972,-250.632 750.92,-243.7757 752.9586,-254.1726 758.9972,-250.632"/>
</g>
<!-- Node34&#45;&gt;Node20 -->
<g id="edge86" class="edge">
<title>Node34&#45;&gt;Node20</title>
<path fill="none" stroke="#191970" d="M1179.1891,-403.3994C1186.9103,-388.5029 1203.9579,-360.1683 1227.5746,-347 1341.3959,-283.5349 1405.6917,-376.1197 1518.5746,-311 1584.2448,-273.1163 1650.9996,-232.7566 1611.5746,-168 1599.1944,-147.6653 1574.6104,-135.9252 1554.4116,-129.4023"/>
<polygon fill="#191970" stroke="#191970" points="1555.2106,-125.9891 1544.6294,-126.5266 1553.2363,-132.7049 1555.2106,-125.9891"/>
</g>
<!-- Node34&#45;&gt;Node25 -->
<g id="edge84" class="edge">
<title>Node34&#45;&gt;Node25</title>
<path fill="none" stroke="#191970" d="M1201.7357,-403.3733C1227.7813,-394.1419 1267.2861,-380.1402 1296.0724,-369.9375"/>
<polygon fill="#191970" stroke="#191970" points="1297.5116,-373.1408 1305.7678,-366.5011 1295.1731,-366.5429 1297.5116,-373.1408"/>
</g>
<!-- Node34&#45;&gt;Node26 -->
<g id="edge83" class="edge">
<title>Node34&#45;&gt;Node26</title>
<path fill="none" stroke="#191970" d="M1189.7288,-403.2455C1203.0773,-394.6534 1222.7332,-382.0014 1238.1128,-372.1018"/>
<polygon fill="#191970" stroke="#191970" points="1240.0797,-374.9982 1246.594,-366.6427 1236.2909,-369.1121 1240.0797,-374.9982"/>
</g>
<!-- Node35 -->
<g id="node36" class="node">
<title>Node35</title>
<g id="a_node36"><a xlink:href="TMathBase_8h.html" target="_top" xlink:title="TMathBase.h">
<polygon fill="#ffffff" stroke="#000000" points="1100.5746,-347.5 1100.5746,-366.5 1180.5746,-366.5 1180.5746,-347.5 1100.5746,-347.5"/>
<text text-anchor="middle" x="1140.5746" y="-354.5" font-family="Helvetica,sans-Serif" font-size="10.00" fill="#000000">TMathBase.h</text>
</a>
</g>
</g>
<!-- Node34&#45;&gt;Node35 -->
<g id="edge47" class="edge">
<title>Node34&#45;&gt;Node35</title>
<path fill="none" stroke="#191970" d="M1168.6522,-403.2455C1163.9719,-395.5367 1157.3073,-384.5598 1151.6457,-375.2348"/>
<polygon fill="#191970" stroke="#191970" points="1154.6106,-373.3741 1146.429,-366.6427 1148.6271,-377.007 1154.6106,-373.3741"/>
</g>
<!-- Node39 -->
<g id="node40" class="node">
<title>Node39</title>
<g id="a_node40"><a xlink:href="RStringView_8hxx.html" target="_top" xlink:title="ROOT/RStringView.hxx">
<polygon fill="#ffffff" stroke="#000000" points="1505.0746,-347.5 1505.0746,-366.5 1632.0746,-366.5 1632.0746,-347.5 1505.0746,-347.5"/>
<text text-anchor="middle" x="1568.5746" y="-354.5" font-family="Helvetica,sans-Serif" font-size="10.00" fill="#000000">ROOT/RStringView.hxx</text>
</a>
</g>
</g>
<!-- Node34&#45;&gt;Node39 -->
<g id="edge52" class="edge">
<title>Node34&#45;&gt;Node39</title>
<path fill="none" stroke="#191970" d="M1204.8369,-408.6988C1266.3699,-399.953 1407.6234,-379.8763 1494.8865,-367.4734"/>
<polygon fill="#191970" stroke="#191970" points="1495.5816,-370.9099 1504.9895,-366.0375 1494.5965,-363.9796 1495.5816,-370.9099"/>
</g>
<!-- Node46 -->
<g id="node47" class="node">
<title>Node46</title>
<g id="a_node47"><a xlink:href="TypeTraits_8hxx.html" target="_top" xlink:title="ROOT/TypeTraits.hxx">
<polygon fill="#ffffff" stroke="#000000" points="873.0746,-347.5 873.0746,-366.5 990.0746,-366.5 990.0746,-347.5 873.0746,-347.5"/>
<text text-anchor="middle" x="931.5746" y="-354.5" font-family="Helvetica,sans-Serif" font-size="10.00" fill="#000000">ROOT/TypeTraits.hxx</text>
</a>
</g>
</g>
<!-- Node34&#45;&gt;Node46 -->
<g id="edge68" class="edge">
<title>Node34&#45;&gt;Node46</title>
<path fill="none" stroke="#191970" d="M1144.2898,-406.0208C1103.8205,-396.6945 1031.5344,-380.036 982.5844,-368.7554"/>
<polygon fill="#191970" stroke="#191970" points="983.3483,-365.3397 972.8177,-366.5046 981.7763,-372.1609 983.3483,-365.3397"/>
</g>
<!-- Node35&#45;&gt;Node4 -->
<g id="edge48" class="edge">
<title>Node35&#45;&gt;Node4</title>
<path fill="none" stroke="#191970" d="M1100.4229,-352.6754C995.5049,-341.3752 714.0563,-311.0615 609.4494,-299.7948"/>
<polygon fill="#191970" stroke="#191970" points="609.6291,-296.2939 599.3118,-298.7029 608.8795,-303.2537 609.6291,-296.2939"/>
</g>
<!-- Node36 -->
<g id="node37" class="node">
<title>Node36</title>
<polygon fill="#ffffff" stroke="#bfbfbf" points="1139.0746,-286 1139.0746,-305 1188.0746,-305 1188.0746,-286 1139.0746,-286"/>
<text text-anchor="middle" x="1163.5746" y="-293" font-family="Helvetica,sans-Serif" font-size="10.00" fill="#000000">cstdlib</text>
</g>
<!-- Node35&#45;&gt;Node36 -->
<g id="edge49" class="edge">
<title>Node35&#45;&gt;Node36</title>
<path fill="none" stroke="#191970" d="M1144.1683,-347.3906C1147.4236,-338.6862 1152.3171,-325.6015 1156.3756,-314.7494"/>
<polygon fill="#191970" stroke="#191970" points="1159.7054,-315.8373 1159.9301,-305.2449 1153.1489,-313.3852 1159.7054,-315.8373"/>
</g>
<!-- Node37 -->
<g id="node38" class="node">
<title>Node37</title>
<polygon fill="#ffffff" stroke="#bfbfbf" points="1206.0746,-286 1206.0746,-305 1253.0746,-305 1253.0746,-286 1206.0746,-286"/>
<text text-anchor="middle" x="1229.5746" y="-293" font-family="Helvetica,sans-Serif" font-size="10.00" fill="#000000">cmath</text>
</g>
<!-- Node35&#45;&gt;Node37 -->
<g id="edge50" class="edge">
<title>Node35&#45;&gt;Node37</title>
<path fill="none" stroke="#191970" d="M1154.4808,-347.3906C1168.5884,-337.6421 1190.647,-322.3994 1207.213,-310.9521"/>
<polygon fill="#191970" stroke="#191970" points="1209.5288,-313.6063 1215.766,-305.0419 1205.5493,-307.8474 1209.5288,-313.6063"/>
</g>
<!-- Node38 -->
<g id="node39" class="node">
<title>Node38</title>
<polygon fill="#ffffff" stroke="#bfbfbf" points="1538.5746,-168.5 1538.5746,-187.5 1602.5746,-187.5 1602.5746,-168.5 1538.5746,-168.5"/>
<text text-anchor="middle" x="1570.5746" y="-175.5" font-family="Helvetica,sans-Serif" font-size="10.00" fill="#000000">algorithm</text>
</g>
<!-- Node35&#45;&gt;Node38 -->
<g id="edge51" class="edge">
<title>Node35&#45;&gt;Node38</title>
<path fill="none" stroke="#191970" d="M1180.6341,-349.3088C1185.3268,-348.4888 1190.0519,-347.6998 1194.5746,-347 1322.4894,-327.2068 1367.9455,-369.1712 1483.5746,-311 1520.3617,-292.493 1526.0884,-279.1304 1547.5746,-244 1556.4668,-229.4609 1562.525,-211.0087 1566.1821,-197.3136"/>
<polygon fill="#191970" stroke="#191970" points="1569.6019,-198.0641 1568.6087,-187.5159 1562.8072,-196.3812 1569.6019,-198.0641"/>
</g>
<!-- Node39&#45;&gt;Node3 -->
<g id="edge53" class="edge">
<title>Node39&#45;&gt;Node3</title>
<path fill="none" stroke="#191970" d="M1627.0913,-347.4429C1648.1999,-340.8619 1669.9199,-329.7523 1682.5746,-311 1743.0877,-221.3286 1696.7035,-80.1225 1676.6354,-29.1497"/>
<polygon fill="#191970" stroke="#191970" points="1679.802,-27.6449 1672.8004,-19.6933 1673.3152,-30.2757 1679.802,-27.6449"/>
</g>
<!-- Node40 -->
<g id="node41" class="node">
<title>Node40</title>
<g id="a_node41"><a xlink:href="RWrap__libcpp__string__view_8h.html" target="_top" xlink:title="RWrap_libcpp_string\l_view.h">
<polygon fill="#ffffff" stroke="#000000" points="1360.0746,-280.5 1360.0746,-310.5 1475.0746,-310.5 1475.0746,-280.5 1360.0746,-280.5"/>
<text text-anchor="start" x="1368.0746" y="-298.5" font-family="Helvetica,sans-Serif" font-size="10.00" fill="#000000">RWrap_libcpp_string</text>
<text text-anchor="middle" x="1417.5746" y="-287.5" font-family="Helvetica,sans-Serif" font-size="10.00" fill="#000000">_view.h</text>
</a>
</g>
</g>
<!-- Node39&#45;&gt;Node40 -->
<g id="edge54" class="edge">
<title>Node39&#45;&gt;Node40</title>
<path fill="none" stroke="#191970" d="M1544.9808,-347.3906C1523.4095,-338.6049 1490.8813,-325.3567 1464.0923,-314.446"/>
<polygon fill="#191970" stroke="#191970" points="1465.0949,-311.0752 1454.5133,-310.5446 1462.4544,-317.5581 1465.0949,-311.0752"/>
</g>
<!-- Node40&#45;&gt;Node20 -->
<g id="edge55" class="edge">
<title>Node40&#45;&gt;Node20</title>
<path fill="none" stroke="#191970" d="M1445.5873,-280.4594C1459.7287,-271.5663 1476.0678,-259.0881 1486.5746,-244 1508.5605,-212.4274 1517.2946,-167.325 1520.6313,-141.7304"/>
<polygon fill="#191970" stroke="#191970" points="1524.1127,-142.0921 1521.7835,-131.7565 1517.159,-141.2888 1524.1127,-142.0921"/>
</g>
<!-- Node40&#45;&gt;Node38 -->
<g id="edge56" class="edge">
<title>Node40&#45;&gt;Node38</title>
<path fill="none" stroke="#191970" d="M1461.1843,-280.4873C1481.8716,-271.9451 1506.0523,-259.7711 1524.5746,-244 1540.127,-230.7576 1552.9226,-211.1052 1561.0355,-196.6886"/>
<polygon fill="#191970" stroke="#191970" points="1564.2226,-198.1519 1565.8802,-187.6876 1558.0587,-194.8342 1564.2226,-198.1519"/>
</g>
<!-- Node40&#45;&gt;Node41 -->
<g id="edge57" class="edge">
<title>Node40&#45;&gt;Node41</title>
<path fill="none" stroke="#191970" d="M1359.7482,-281.746C1326.9355,-272.9445 1285.5619,-260.1437 1250.5746,-244 1220.1291,-229.952 1187.9639,-208.3531 1167.6069,-193.723"/>
<polygon fill="#191970" stroke="#191970" points="1169.5318,-190.795 1159.3891,-187.7329 1165.4085,-196.4517 1169.5318,-190.795"/>
</g>
<!-- Node42 -->
<g id="node43" class="node">
<title>Node42</title>
<polygon fill="#ffffff" stroke="#bfbfbf" points="1387.0746,-168.5 1387.0746,-187.5 1444.0746,-187.5 1444.0746,-168.5 1387.0746,-168.5"/>
<text text-anchor="middle" x="1415.5746" y="-175.5" font-family="Helvetica,sans-Serif" font-size="10.00" fill="#000000">ostream</text>
</g>
<!-- Node40&#45;&gt;Node42 -->
<g id="edge58" class="edge">
<title>Node40&#45;&gt;Node42</title>
<path fill="none" stroke="#191970" d="M1417.3131,-280.1389C1416.9528,-258.9692 1416.3034,-220.8174 1415.9084,-197.6112"/>
<polygon fill="#191970" stroke="#191970" points="1419.4071,-197.4984 1415.7373,-187.5595 1412.4081,-197.6176 1419.4071,-197.4984"/>
</g>
<!-- Node43 -->
<g id="node44" class="node">
<title>Node43</title>
<polygon fill="#ffffff" stroke="#bfbfbf" points="1274.5746,-168.5 1274.5746,-187.5 1330.5746,-187.5 1330.5746,-168.5 1274.5746,-168.5"/>
<text text-anchor="middle" x="1302.5746" y="-175.5" font-family="Helvetica,sans-Serif" font-size="10.00" fill="#000000">iomanip</text>
</g>
<!-- Node40&#45;&gt;Node43 -->
<g id="edge59" class="edge">
<title>Node40&#45;&gt;Node43</title>
<path fill="none" stroke="#191970" d="M1359.7954,-280.7167C1327.1781,-271.0754 1291.0796,-257.7631 1281.5746,-244 1271.5972,-229.553 1279.8333,-210.1149 1288.7518,-196.0792"/>
<polygon fill="#191970" stroke="#191970" points="1291.7094,-197.9561 1294.5266,-187.7427 1285.9551,-193.9701 1291.7094,-197.9561"/>
</g>
<!-- Node44 -->
<g id="node45" class="node">
<title>Node44</title>
<polygon fill="#ffffff" stroke="#bfbfbf" points="1191.0746,-168.5 1191.0746,-187.5 1256.0746,-187.5 1256.0746,-168.5 1191.0746,-168.5"/>
<text text-anchor="middle" x="1223.5746" y="-175.5" font-family="Helvetica,sans-Serif" font-size="10.00" fill="#000000">stdexcept</text>
</g>
<!-- Node40&#45;&gt;Node44 -->
<g id="edge60" class="edge">
<title>Node40&#45;&gt;Node44</title>
<path fill="none" stroke="#191970" d="M1359.8805,-283.0965C1331.9559,-275.1321 1299.0492,-262.6898 1273.5746,-244 1256.4606,-231.4441 1242.4548,-211.4155 1233.6652,-196.7115"/>
<polygon fill="#191970" stroke="#191970" points="1236.6602,-194.8983 1228.6621,-187.9499 1230.5815,-198.3694 1236.6602,-194.8983"/>
</g>
<!-- Node45 -->
<g id="node46" class="node">
<title>Node45</title>
<g id="a_node46"><a xlink:href="libcpp__string__view_8h.html" target="_top" xlink:title="libcpp_string_view.h">
<polygon fill="#ffffff" stroke="#000000" points="1290.5746,-224.5 1290.5746,-243.5 1406.5746,-243.5 1406.5746,-224.5 1290.5746,-224.5"/>
<text text-anchor="middle" x="1348.5746" y="-231.5" font-family="Helvetica,sans-Serif" font-size="10.00" fill="#000000">libcpp_string_view.h</text>
</a>
</g>
</g>
<!-- Node40&#45;&gt;Node45 -->
<g id="edge61" class="edge">
<title>Node40&#45;&gt;Node45</title>
<path fill="none" stroke="#191970" d="M1400.5184,-280.2977C1390.4416,-271.3163 1377.6705,-259.9334 1367.3134,-250.702"/>
<polygon fill="#191970" stroke="#191970" points="1369.4163,-247.8879 1359.6223,-243.8469 1364.7587,-253.1135 1369.4163,-247.8879"/>
</g>
<!-- Node45&#45;&gt;Node20 -->
<g id="edge62" class="edge">
<title>Node45&#45;&gt;Node20</title>
<path fill="none" stroke="#191970" d="M1350.1959,-224.4602C1353.1215,-210.16 1360.631,-183.2242 1377.5746,-168 1409.0792,-139.6924 1458.0154,-128.7992 1490.1795,-124.6109"/>
<polygon fill="#191970" stroke="#191970" points="1490.8621,-128.0554 1500.3949,-123.4321 1490.0596,-121.1016 1490.8621,-128.0554"/>
</g>
<!-- Node45&#45;&gt;Node38 -->
<g id="edge63" class="edge">
<title>Node45&#45;&gt;Node38</title>
<path fill="none" stroke="#191970" d="M1386.4855,-224.4369C1425.8723,-214.5015 1487.3607,-198.9909 1528.2942,-188.6653"/>
<polygon fill="#191970" stroke="#191970" points="1529.392,-191.9981 1538.2322,-186.1584 1527.6798,-185.2107 1529.392,-191.9981"/>
</g>
<!-- Node45&#45;&gt;Node41 -->
<g id="edge64" class="edge">
<title>Node45&#45;&gt;Node41</title>
<path fill="none" stroke="#191970" d="M1313.6838,-224.4932C1281.9265,-215.8171 1233.4908,-202.5274 1183.0863,-188.409"/>
<polygon fill="#191970" stroke="#191970" points="1183.8938,-185.0005 1173.3201,-185.6699 1182.0034,-191.7404 1183.8938,-185.0005"/>
</g>
<!-- Node45&#45;&gt;Node42 -->
<g id="edge65" class="edge">
<title>Node45&#45;&gt;Node42</title>
<path fill="none" stroke="#191970" d="M1360.2451,-224.2455C1370.1406,-215.9746 1384.5373,-203.9416 1396.1646,-194.2232"/>
<polygon fill="#191970" stroke="#191970" points="1398.6095,-196.7413 1404.0378,-187.6427 1394.1203,-191.3703 1398.6095,-196.7413"/>
</g>
<!-- Node45&#45;&gt;Node43 -->
<g id="edge66" class="edge">
<title>Node45&#45;&gt;Node43</title>
<path fill="none" stroke="#191970" d="M1340.562,-224.2455C1334.0978,-216.3761 1324.8361,-205.101 1317.0762,-195.6542"/>
<polygon fill="#191970" stroke="#191970" points="1319.5473,-193.1484 1310.4953,-187.6427 1314.1382,-197.5916 1319.5473,-193.1484"/>
</g>
<!-- Node45&#45;&gt;Node44 -->
<g id="edge67" class="edge">
<title>Node45&#45;&gt;Node44</title>
<path fill="none" stroke="#191970" d="M1327.0863,-224.3733C1306.9306,-215.3435 1276.5865,-201.7494 1253.9565,-191.6111"/>
<polygon fill="#191970" stroke="#191970" points="1255.3394,-188.3955 1244.7824,-187.5011 1252.4775,-194.7838 1255.3394,-188.3955"/>
</g>
<!-- Node46&#45;&gt;Node16 -->
<g id="edge70" class="edge">
<title>Node46&#45;&gt;Node16</title>
<path fill="none" stroke="#191970" d="M931.3458,-347.3879C930.2873,-323.6234 924.445,-261.3344 892.5746,-224 878.8694,-207.9452 858.3052,-197.0926 839.6335,-189.9815"/>
<polygon fill="#191970" stroke="#191970" points="840.683,-186.6401 830.0882,-186.5961 838.3431,-193.2375 840.683,-186.6401"/>
</g>
<!-- Node46&#45;&gt;Node18 -->
<g id="edge71" class="edge">
<title>Node46&#45;&gt;Node18</title>
<path fill="none" stroke="#191970" d="M928.6584,-347.3989C920.7972,-323.1112 896.8556,-258.6976 854.5746,-224 850.4894,-220.6476 791.8004,-201.3045 753.1622,-188.7923"/>
<polygon fill="#191970" stroke="#191970" points="753.9292,-185.3621 743.3374,-185.6179 751.777,-192.023 753.9292,-185.3621"/>
</g>
<!-- Node47 -->
<g id="node48" class="node">
<title>Node47</title>
<polygon fill="#ffffff" stroke="#bfbfbf" points="619.5746,-168.5 619.5746,-187.5 677.5746,-187.5 677.5746,-168.5 619.5746,-168.5"/>
<text text-anchor="middle" x="648.5746" y="-175.5" font-family="Helvetica,sans-Serif" font-size="10.00" fill="#000000">memory</text>
</g>
<!-- Node46&#45;&gt;Node47 -->
<g id="edge69" class="edge">
<title>Node46&#45;&gt;Node47</title>
<path fill="none" stroke="#191970" d="M924.1033,-347.3268C902.5743,-319.6798 840.1868,-241.2031 812.5746,-224 807.1527,-220.622 734.3119,-200.8414 687.5489,-188.3436"/>
<polygon fill="#191970" stroke="#191970" points="688.2775,-184.9156 677.7133,-185.7195 686.473,-191.6791 688.2775,-184.9156"/>
</g>
<!-- Node48 -->
<g id="node49" class="node">
<title>Node48</title>
<g id="a_node49"><a xlink:href="RSpan_8hxx.html" target="_top" xlink:title="ROOT/RSpan.hxx">
<polygon fill="#ffffff" stroke="#000000" points="945.0746,-286 945.0746,-305 1044.0746,-305 1044.0746,-286 945.0746,-286"/>
<text text-anchor="middle" x="994.5746" y="-293" font-family="Helvetica,sans-Serif" font-size="10.00" fill="#000000">ROOT/RSpan.hxx</text>
</a>
</g>
</g>
<!-- Node46&#45;&gt;Node48 -->
<g id="edge72" class="edge">
<title>Node46&#45;&gt;Node48</title>
<path fill="none" stroke="#191970" d="M941.4183,-347.3906C950.9785,-338.0581 965.6968,-323.6902 977.2241,-312.4374"/>
<polygon fill="#191970" stroke="#191970" points="979.8811,-314.7348 984.592,-305.2449 974.9914,-309.7257 979.8811,-314.7348"/>
</g>
<!-- Node48&#45;&gt;Node3 -->
<g id="edge73" class="edge">
<title>Node48&#45;&gt;Node3</title>
<path fill="none" stroke="#191970" d="M1044.3693,-289.6429C1154.9265,-276.6078 1411.4988,-246.1744 1415.5746,-244 1449.771,-225.7565 1472.5746,-216.7585 1472.5746,-178 1472.5746,-178 1472.5746,-178 1472.5746,-122 1472.5746,-54.5267 1561.22,-27.1521 1619.2806,-16.4588"/>
<polygon fill="#191970" stroke="#191970" points="1620.1267,-19.8644 1629.3821,-14.708 1618.9313,-12.9672 1620.1267,-19.8644"/>
</g>
<!-- Node49 -->
<g id="node50" class="node">
<title>Node49</title>
<g id="a_node50"><a xlink:href="span_8hxx.html" target="_top" xlink:title="ROOT/span.hxx">
<polygon fill="#ffffff" stroke="#000000" points="944.5746,-224.5 944.5746,-243.5 1036.5746,-243.5 1036.5746,-224.5 944.5746,-224.5"/>
<text text-anchor="middle" x="990.5746" y="-231.5" font-family="Helvetica,sans-Serif" font-size="10.00" fill="#000000">ROOT/span.hxx</text>
</a>
</g>
</g>
<!-- Node48&#45;&gt;Node49 -->
<g id="edge74" class="edge">
<title>Node48&#45;&gt;Node49</title>
<path fill="none" stroke="#191970" d="M993.9496,-285.8906C993.3951,-277.3657 992.5674,-264.6392 991.8704,-253.9235"/>
<polygon fill="#191970" stroke="#191970" points="995.3501,-253.4966 991.2084,-243.7449 988.3649,-253.951 995.3501,-253.4966"/>
</g>
<!-- Node49&#45;&gt;Node16 -->
<g id="edge81" class="edge">
<title>Node49&#45;&gt;Node16</title>
<path fill="none" stroke="#191970" d="M957.0529,-224.3733C924.2062,-214.9404 874.015,-200.5265 838.3168,-190.2747"/>
<polygon fill="#191970" stroke="#191970" points="839.2364,-186.8974 828.6588,-187.5011 837.3042,-193.6255 839.2364,-186.8974"/>
</g>
<!-- Node49&#45;&gt;Node18 -->
<g id="edge78" class="edge">
<title>Node49&#45;&gt;Node18</title>
<path fill="none" stroke="#191970" d="M944.4187,-226.705C898.2062,-219.048 824.9123,-205.9484 753.3403,-188.2541"/>
<polygon fill="#191970" stroke="#191970" points="753.8065,-184.7627 743.2556,-185.7269 752.1049,-191.5528 753.8065,-184.7627"/>
</g>
<!-- Node49&#45;&gt;Node41 -->
<g id="edge76" class="edge">
<title>Node49&#45;&gt;Node41</title>
<path fill="none" stroke="#191970" d="M1017.3919,-224.3733C1043.1078,-215.1419 1082.1126,-201.1402 1110.5345,-190.9375"/>
<polygon fill="#191970" stroke="#191970" points="1111.8777,-194.174 1120.1071,-187.5011 1109.5126,-187.5857 1111.8777,-194.174"/>
</g>
<!-- Node49&#45;&gt;Node44 -->
<g id="edge79" class="edge">
<title>Node49&#45;&gt;Node44</title>
<path fill="none" stroke="#191970" d="M1030.3639,-224.4369C1072.2385,-214.3726 1137.9154,-198.5876 1180.8598,-188.2662"/>
<polygon fill="#191970" stroke="#191970" points="1181.8208,-191.635 1190.7259,-185.8949 1180.1849,-184.8288 1181.8208,-191.635"/>
</g>
<!-- Node49&#45;&gt;Node47 -->
<g id="edge80" class="edge">
<title>Node49&#45;&gt;Node47</title>
<path fill="none" stroke="#191970" d="M944.4656,-228.5857C886.651,-221.452 784.3499,-207.6923 687.8765,-188.1042"/>
<polygon fill="#191970" stroke="#191970" points="688.4594,-184.6509 677.9595,-186.0655 687.0498,-191.5075 688.4594,-184.6509"/>
</g>
<!-- Node50 -->
<g id="node51" class="node">
<title>Node50</title>
<polygon fill="#ffffff" stroke="#bfbfbf" points="848.0746,-168.5 848.0746,-187.5 901.0746,-187.5 901.0746,-168.5 848.0746,-168.5"/>
<text text-anchor="middle" x="874.5746" y="-175.5" font-family="Helvetica,sans-Serif" font-size="10.00" fill="#000000">cstddef</text>
</g>
<!-- Node49&#45;&gt;Node50 -->
<g id="edge75" class="edge">
<title>Node49&#45;&gt;Node50</title>
<path fill="none" stroke="#191970" d="M970.6334,-224.3733C952.0959,-215.4241 924.2717,-201.9917 903.3332,-191.8835"/>
<polygon fill="#191970" stroke="#191970" points="904.7826,-188.6967 894.2555,-187.5011 901.7393,-195.0006 904.7826,-188.6967"/>
</g>
<!-- Node51 -->
<g id="node52" class="node">
<title>Node51</title>
<polygon fill="#ffffff" stroke="#bfbfbf" points="919.5746,-168.5 919.5746,-187.5 961.5746,-187.5 961.5746,-168.5 919.5746,-168.5"/>
<text text-anchor="middle" x="940.5746" y="-175.5" font-family="Helvetica,sans-Serif" font-size="10.00" fill="#000000">array</text>
</g>
<!-- Node49&#45;&gt;Node51 -->
<g id="edge77" class="edge">
<title>Node49&#45;&gt;Node51</title>
<path fill="none" stroke="#191970" d="M981.8652,-224.2455C974.7673,-216.2958 964.5661,-204.8706 956.0795,-195.3656"/>
<polygon fill="#191970" stroke="#191970" points="958.4551,-192.771 949.1841,-187.6427 953.2335,-197.4331 958.4551,-192.771"/>
</g>
<!-- Node52 -->
<g id="node53" class="node">
<title>Node52</title>
<polygon fill="#ffffff" stroke="#bfbfbf" points="980.0746,-168.5 980.0746,-187.5 1063.0746,-187.5 1063.0746,-168.5 980.0746,-168.5"/>
<text text-anchor="middle" x="1021.5746" y="-175.5" font-family="Helvetica,sans-Serif" font-size="10.00" fill="#000000">initializer_list</text>
</g>
<!-- Node49&#45;&gt;Node52 -->
<g id="edge82" class="edge">
<title>Node49&#45;&gt;Node52</title>
<path fill="none" stroke="#191970" d="M995.9743,-224.2455C1000.1973,-216.617 1006.1918,-205.7881 1011.3187,-196.5267"/>
<polygon fill="#191970" stroke="#191970" points="1014.4556,-198.0867 1016.2366,-187.6427 1008.3313,-194.6965 1014.4556,-198.0867"/>
</g>
<!-- Node54 -->
<g id="node55" class="node">
<title>Node54</title>
<g id="a_node55"><a xlink:href="TVirtualMutex_8h.html" target="_top" xlink:title="TVirtualMutex.h">
<polygon fill="#ffffff" stroke="#000000" points="911.5746,-459.5 911.5746,-478.5 1005.5746,-478.5 1005.5746,-459.5 911.5746,-459.5"/>
<text text-anchor="middle" x="958.5746" y="-466.5" font-family="Helvetica,sans-Serif" font-size="10.00" fill="#000000">TVirtualMutex.h</text>
</a>
</g>
</g>
<!-- Node53&#45;&gt;Node54 -->
<g id="edge88" class="edge">
<title>Node53&#45;&gt;Node54</title>
<path fill="none" stroke="#191970" d="M958.5746,-515.2455C958.5746,-507.9382 958.5746,-497.6944 958.5746,-488.7046"/>
<polygon fill="#191970" stroke="#191970" points="962.0747,-488.6426 958.5746,-478.6427 955.0747,-488.6427 962.0747,-488.6426"/>
</g>
<!-- Node54&#45;&gt;Node2 -->
<g id="edge89" class="edge">
<title>Node54&#45;&gt;Node2</title>
<path fill="none" stroke="#191970" d="M1005.9183,-460.9169C1070.1499,-449.9505 1183.8809,-430.5331 1244.9867,-420.1004"/>
<polygon fill="#191970" stroke="#191970" points="1245.7754,-423.5164 1255.0437,-418.3833 1244.5973,-416.6163 1245.7754,-423.5164"/>
</g>
<!-- Node54&#45;&gt;Node47 -->
<g id="edge90" class="edge">
<title>Node54&#45;&gt;Node47</title>
<path fill="none" stroke="#191970" d="M948.0755,-459.2327C929.6617,-441.7913 890.9065,-403.6716 863.5746,-367 819.5263,-307.8998 836.4842,-270.8443 779.5746,-224 765.2386,-212.1996 720.7132,-197.9424 687.5268,-188.4593"/>
<polygon fill="#191970" stroke="#191970" points="688.2117,-185.0162 677.6376,-185.6775 686.3162,-191.7547 688.2117,-185.0162"/>
</g>
<!-- Node56&#45;&gt;Node2 -->
<g id="edge94" class="edge">
<title>Node56&#45;&gt;Node2</title>
<path fill="none" stroke="#191970" d="M1267.9855,-1131.2193C1295.4509,-1101.5987 1373.5746,-1009.2376 1373.5746,-917 1373.5746,-917 1373.5746,-917 1373.5746,-525 1373.5746,-483.4126 1335.7015,-447.9469 1309.9319,-428.6288"/>
<polygon fill="#191970" stroke="#191970" points="1311.8864,-425.7232 1301.7288,-422.711 1307.791,-431.4001 1311.8864,-425.7232"/>
</g>
<!-- Node56&#45;&gt;Node30 -->
<g id="edge138" class="edge">
<title>Node56&#45;&gt;Node30</title>
<path fill="none" stroke="#191970" d="M1264.4978,-1131.2094C1275.4079,-1112.2164 1297.5746,-1068.7379 1297.5746,-1029 1297.5746,-1029 1297.5746,-1029 1297.5746,-917 1297.5746,-838.8723 1264.6055,-750.0188 1248.8153,-711.9435"/>
<polygon fill="#191970" stroke="#191970" points="1251.9817,-710.4451 1244.8588,-702.6019 1245.536,-713.1751 1251.9817,-710.4451"/>
</g>
<!-- Node57 -->
<g id="node58" class="node">
<title>Node57</title>
<g id="a_node58"><a xlink:href="TGeoCache_8h.html" target="_top" xlink:title="TGeoCache.h">
<polygon fill="#ffffff" stroke="#000000" points="1143.0746,-1075.5 1143.0746,-1094.5 1224.0746,-1094.5 1224.0746,-1075.5 1143.0746,-1075.5"/>
<text text-anchor="middle" x="1183.5746" y="-1082.5" font-family="Helvetica,sans-Serif" font-size="10.00" fill="#000000">TGeoCache.h</text>
</a>
</g>
</g>
<!-- Node56&#45;&gt;Node57 -->
<g id="edge95" class="edge">
<title>Node56&#45;&gt;Node57</title>
<path fill="none" stroke="#191970" d="M1245.5106,-1131.2455C1234.2183,-1122.814 1217.6901,-1110.4729 1204.5475,-1100.6598"/>
<polygon fill="#191970" stroke="#191970" points="1206.5957,-1097.8211 1196.4889,-1094.6427 1202.4076,-1103.4301 1206.5957,-1097.8211"/>
</g>
<!-- Node58 -->
<g id="node59" class="node">
<title>Node58</title>
<g id="a_node59"><a xlink:href="TGeoNode_8h.html" target="_top" xlink:title="TGeoNode.h">
<polygon fill="#ffffff" stroke="#000000" points="1041.0746,-1019.5 1041.0746,-1038.5 1118.0746,-1038.5 1118.0746,-1019.5 1041.0746,-1019.5"/>
<text text-anchor="middle" x="1079.5746" y="-1026.5" font-family="Helvetica,sans-Serif" font-size="10.00" fill="#000000">TGeoNode.h</text>
</a>
</g>
</g>
<!-- Node57&#45;&gt;Node58 -->
<g id="edge96" class="edge">
<title>Node57&#45;&gt;Node58</title>
<path fill="none" stroke="#191970" d="M1165.4591,-1075.2455C1149.1295,-1066.4527 1124.9035,-1053.4079 1106.3406,-1043.4125"/>
<polygon fill="#191970" stroke="#191970" points="1107.9465,-1040.3021 1097.4824,-1038.6427 1104.6277,-1046.4654 1107.9465,-1040.3021"/>
</g>
<!-- Node73 -->
<g id="node74" class="node">
<title>Node73</title>
<g id="a_node74"><a xlink:href="TGeoStateInfo_8h.html" target="_top" xlink:title="TGeoStateInfo.h">
<polygon fill="#ffffff" stroke="#000000" points="1136.0746,-1019.5 1136.0746,-1038.5 1231.0746,-1038.5 1231.0746,-1019.5 1136.0746,-1019.5"/>
<text text-anchor="middle" x="1183.5746" y="-1026.5" font-family="Helvetica,sans-Serif" font-size="10.00" fill="#000000">TGeoStateInfo.h</text>
</a>
</g>
</g>
<!-- Node57&#45;&gt;Node73 -->
<g id="edge135" class="edge">
<title>Node57&#45;&gt;Node73</title>
<path fill="none" stroke="#191970" d="M1183.5746,-1075.2455C1183.5746,-1067.9382 1183.5746,-1057.6944 1183.5746,-1048.7046"/>
<polygon fill="#191970" stroke="#191970" points="1187.0747,-1048.6426 1183.5746,-1038.6427 1180.0747,-1048.6427 1187.0747,-1048.6426"/>
</g>
<!-- Node59 -->
<g id="node60" class="node">
<title>Node59</title>
<g id="a_node60"><a xlink:href="TGeoAtt_8h.html" target="_top" xlink:title="TGeoAtt.h">
<polygon fill="#ffffff" stroke="#000000" points="1166.0746,-851.5 1166.0746,-870.5 1231.0746,-870.5 1231.0746,-851.5 1166.0746,-851.5"/>
<text text-anchor="middle" x="1198.5746" y="-858.5" font-family="Helvetica,sans-Serif" font-size="10.00" fill="#000000">TGeoAtt.h</text>
</a>
</g>
</g>
<!-- Node58&#45;&gt;Node59 -->
<g id="edge97" class="edge">
<title>Node58&#45;&gt;Node59</title>
<path fill="none" stroke="#191970" d="M1086.9504,-1019.1879C1093.892,-1009.9143 1104.5415,-995.586 1113.5746,-983 1139.8848,-946.3416 1169.8941,-902.8656 1186.2848,-878.9728"/>
<polygon fill="#191970" stroke="#191970" points="1189.2873,-880.7828 1192.0517,-870.5549 1183.5125,-876.8266 1189.2873,-880.7828"/>
</g>
<!-- Node60 -->
<g id="node61" class="node">
<title>Node60</title>
<g id="a_node61"><a xlink:href="TNamed_8h.html" target="_top" xlink:title="TNamed.h">
<polygon fill="#ffffff" stroke="#000000" points="1066.0746,-683.5 1066.0746,-702.5 1133.0746,-702.5 1133.0746,-683.5 1066.0746,-683.5"/>
<text text-anchor="middle" x="1099.5746" y="-690.5" font-family="Helvetica,sans-Serif" font-size="10.00" fill="#000000">TNamed.h</text>
</a>
</g>
</g>
<!-- Node58&#45;&gt;Node60 -->
<g id="edge99" class="edge">
<title>Node58&#45;&gt;Node60</title>
<path fill="none" stroke="#191970" d="M1082.5256,-1019.2168C1088.089,-999.8801 1099.5746,-955.3189 1099.5746,-917 1099.5746,-917 1099.5746,-917 1099.5746,-805 1099.5746,-772.7116 1099.5746,-735.1872 1099.5746,-712.8048"/>
<polygon fill="#191970" stroke="#191970" points="1103.0747,-712.5883 1099.5746,-702.5884 1096.0747,-712.5884 1103.0747,-712.5883"/>
</g>
<!-- Node61 -->
<g id="node62" class="node">
<title>Node61</title>
<g id="a_node62"><a xlink:href="TGeoVolume_8h.html" target="_top" xlink:title="TGeoVolume.h">
<polygon fill="#ffffff" stroke="#000000" points="881.5746,-907.5 881.5746,-926.5 969.5746,-926.5 969.5746,-907.5 881.5746,-907.5"/>
<text text-anchor="middle" x="925.5746" y="-914.5" font-family="Helvetica,sans-Serif" font-size="10.00" fill="#000000">TGeoVolume.h</text>
</a>
</g>
</g>
<!-- Node58&#45;&gt;Node61 -->
<g id="edge102" class="edge">
<title>Node58&#45;&gt;Node61</title>
<path fill="none" stroke="#191970" d="M1041.0322,-1025.2395C1011.1293,-1020.3322 970.6712,-1009.0283 945.5746,-983 933.6543,-970.6372 928.8131,-951.4082 926.8605,-936.8885"/>
<polygon fill="#191970" stroke="#191970" points="930.3389,-936.4969 925.8609,-926.8949 923.3736,-937.1936 930.3389,-936.4969"/>
</g>
<!-- Node72 -->
<g id="node73" class="node">
<title>Node72</title>
<g id="a_node73"><a xlink:href="TGeoPatternFinder_8h.html" target="_top" xlink:title="TGeoPatternFinder.h">
<polygon fill="#ffffff" stroke="#000000" points="954.5746,-963.5 954.5746,-982.5 1068.5746,-982.5 1068.5746,-963.5 954.5746,-963.5"/>
<text text-anchor="middle" x="1011.5746" y="-970.5" font-family="Helvetica,sans-Serif" font-size="10.00" fill="#000000">TGeoPatternFinder.h</text>
</a>
</g>
</g>
<!-- Node58&#45;&gt;Node72 -->
<g id="edge131" class="edge">
<title>Node58&#45;&gt;Node72</title>
<path fill="none" stroke="#191970" d="M1067.7299,-1019.2455C1057.6866,-1010.9746 1043.0751,-998.9416 1031.2742,-989.2232"/>
<polygon fill="#191970" stroke="#191970" points="1033.2278,-986.298 1023.2835,-982.6427 1028.7779,-991.7015 1033.2278,-986.298"/>
</g>
<!-- Node59&#45;&gt;Node2 -->
<g id="edge98" class="edge">
<title>Node59&#45;&gt;Node2</title>
<path fill="none" stroke="#191970" d="M1207.3308,-851.0987C1232.8855,-821.1413 1305.5746,-727.9365 1305.5746,-637 1305.5746,-637 1305.5746,-637 1305.5746,-525 1305.5746,-492.2688 1297.5894,-454.9052 1291.9723,-432.6716"/>
<polygon fill="#191970" stroke="#191970" points="1295.3035,-431.5763 1289.3781,-422.7934 1288.5331,-433.3545 1295.3035,-431.5763"/>
</g>
<!-- Node60&#45;&gt;Node2 -->
<g id="edge100" class="edge">
<title>Node60&#45;&gt;Node2</title>
<path fill="none" stroke="#191970" d="M1127.1442,-683.4257C1165.3045,-668.2096 1229.5746,-634.6227 1229.5746,-581 1229.5746,-581 1229.5746,-581 1229.5746,-525 1229.5746,-488.1826 1254.3421,-451.2377 1271.2246,-430.3313"/>
<polygon fill="#191970" stroke="#191970" points="1273.9256,-432.5574 1277.6683,-422.6456 1268.5615,-428.06 1273.9256,-432.5574"/>
</g>
<!-- Node60&#45;&gt;Node34 -->
<g id="edge101" class="edge">
<title>Node60&#45;&gt;Node34</title>
<path fill="none" stroke="#191970" d="M1116.0223,-683.232C1142.4848,-666.1274 1191.5746,-628.0556 1191.5746,-581 1191.5746,-581 1191.5746,-581 1191.5746,-525 1191.5746,-492.192 1184.3561,-454.584 1179.3266,-432.3624"/>
<polygon fill="#191970" stroke="#191970" points="1182.707,-431.4474 1177.0102,-422.5144 1175.8929,-433.0502 1182.707,-431.4474"/>
</g>
<!-- Node61&#45;&gt;Node28 -->
<g id="edge103" class="edge">
<title>Node61&#45;&gt;Node28</title>
<path fill="none" stroke="#191970" d="M881.5204,-911.0072C826.5012,-903.2257 729.618,-888.5429 647.5746,-871 646.2987,-870.7272 645.0014,-870.4393 643.693,-870.1402"/>
<polygon fill="#191970" stroke="#191970" points="644.16,-866.6518 633.6161,-867.6888 642.5054,-873.4534 644.16,-866.6518"/>
</g>
<!-- Node61&#45;&gt;Node30 -->
<g id="edge111" class="edge">
<title>Node61&#45;&gt;Node30</title>
<path fill="none" stroke="#191970" d="M947.1889,-907.4858C994.6539,-885.902 1110.0907,-829.5761 1189.5746,-759 1205.3853,-744.9611 1219.7516,-725.4656 1229.1776,-711.3052"/>
<polygon fill="#191970" stroke="#191970" points="1232.1337,-713.1793 1234.6239,-702.8812 1226.2553,-709.3787 1232.1337,-713.1793"/>
</g>
<!-- Node61&#45;&gt;Node59 -->
<g id="edge104" class="edge">
<title>Node61&#45;&gt;Node59</title>
<path fill="none" stroke="#191970" d="M969.7697,-908.1247C1015.3449,-898.944 1088.4619,-884.1368 1151.5746,-871 1153.0294,-870.6972 1154.5093,-870.3881 1156.0037,-870.0751"/>
<polygon fill="#191970" stroke="#191970" points="1156.9023,-873.4627 1165.9664,-867.9769 1155.4597,-866.6129 1156.9023,-873.4627"/>
</g>
<!-- Node62 -->
<g id="node63" class="node">
<title>Node62</title>
<g id="a_node63"><a xlink:href="TAttLine_8h.html" target="_top" xlink:title="TAttLine.h">
<polygon fill="#ffffff" stroke="#000000" points="709.0746,-683.5 709.0746,-702.5 774.0746,-702.5 774.0746,-683.5 709.0746,-683.5"/>
<text text-anchor="middle" x="741.5746" y="-690.5" font-family="Helvetica,sans-Serif" font-size="10.00" fill="#000000">TAttLine.h</text>
</a>
</g>
</g>
<!-- Node61&#45;&gt;Node62 -->
<g id="edge105" class="edge">
<title>Node61&#45;&gt;Node62</title>
<path fill="none" stroke="#191970" d="M912.1088,-907.243C900.4511,-898.458 883.4815,-884.8353 870.5746,-871 821.0518,-817.9153 773.9002,-745.4407 752.9392,-711.7016"/>
<polygon fill="#191970" stroke="#191970" points="755.743,-709.5797 747.5204,-702.8985 749.7819,-713.2492 755.743,-709.5797"/>
</g>
<!-- Node63 -->
<g id="node64" class="node">
<title>Node63</title>
<g id="a_node64"><a xlink:href="TAttFill_8h.html" target="_top" xlink:title="TAttFill.h">
<polygon fill="#ffffff" stroke="#000000" points="632.0746,-683.5 632.0746,-702.5 691.0746,-702.5 691.0746,-683.5 632.0746,-683.5"/>
<text text-anchor="middle" x="661.5746" y="-690.5" font-family="Helvetica,sans-Serif" font-size="10.00" fill="#000000">TAttFill.h</text>
</a>
</g>
</g>
<!-- Node61&#45;&gt;Node63 -->
<g id="edge107" class="edge">
<title>Node61&#45;&gt;Node63</title>
<path fill="none" stroke="#191970" d="M907.3687,-907.4283C891.5173,-898.762 868.2204,-885.2095 849.5746,-871 780.3651,-818.2575 708.3187,-743.4913 677.3054,-710.1734"/>
<polygon fill="#191970" stroke="#191970" points="679.6913,-707.5986 670.3314,-702.6345 674.5528,-712.352 679.6913,-707.5986"/>
</g>
<!-- Node64 -->
<g id="node65" class="node">
<title>Node64</title>
<g id="a_node65"><a xlink:href="TAtt3D_8h.html" target="_top" xlink:title="TAtt3D.h">
<polygon fill="#ffffff" stroke="#000000" points="549.0746,-795.5 549.0746,-814.5 608.0746,-814.5 608.0746,-795.5 549.0746,-795.5"/>
<text text-anchor="middle" x="578.5746" y="-802.5" font-family="Helvetica,sans-Serif" font-size="10.00" fill="#000000">TAtt3D.h</text>
</a>
</g>
</g>
<!-- Node61&#45;&gt;Node64 -->
<g id="edge109" class="edge">
<title>Node61&#45;&gt;Node64</title>
<path fill="none" stroke="#191970" d="M881.3333,-913.3629C832.1458,-908.2249 751.0103,-896.4579 685.5746,-871 653.0038,-858.3283 619.3161,-835.687 598.6515,-820.5055"/>
<polygon fill="#191970" stroke="#191970" points="600.7376,-817.6951 590.6339,-814.5067 596.544,-823.2999 600.7376,-817.6951"/>
</g>
<!-- Node65 -->
<g id="node66" class="node">
<title>Node65</title>
<g id="a_node66"><a xlink:href="TGeoMedium_8h.html" target="_top" xlink:title="TGeoMedium.h">
<polygon fill="#ffffff" stroke="#000000" points="879.5746,-851.5 879.5746,-870.5 969.5746,-870.5 969.5746,-851.5 879.5746,-851.5"/>
<text text-anchor="middle" x="924.5746" y="-858.5" font-family="Helvetica,sans-Serif" font-size="10.00" fill="#000000">TGeoMedium.h</text>
</a>
</g>
</g>
<!-- Node61&#45;&gt;Node65 -->
<g id="edge112" class="edge">
<title>Node61&#45;&gt;Node65</title>
<path fill="none" stroke="#191970" d="M925.4004,-907.2455C925.2699,-899.9382 925.087,-889.6944 924.9264,-880.7046"/>
<polygon fill="#191970" stroke="#191970" points="928.4248,-880.5786 924.7467,-870.6427 921.4259,-880.7036 928.4248,-880.5786"/>
</g>
<!-- Node71 -->
<g id="node72" class="node">
<title>Node71</title>
<g id="a_node72"><a xlink:href="TGeoShape_8h.html" target="_top" xlink:title="TGeoShape.h">
<polygon fill="#ffffff" stroke="#000000" points="990.0746,-739.5 990.0746,-758.5 1071.0746,-758.5 1071.0746,-739.5 990.0746,-739.5"/>
<text text-anchor="middle" x="1030.5746" y="-746.5" font-family="Helvetica,sans-Serif" font-size="10.00" fill="#000000">TGeoShape.h</text>
</a>
</g>
</g>
<!-- Node61&#45;&gt;Node71 -->
<g id="edge129" class="edge">
<title>Node61&#45;&gt;Node71</title>
<path fill="none" stroke="#191970" d="M939.7761,-907.4698C951.4688,-899.0268 967.8157,-885.7731 978.5746,-871 1002.1888,-838.5749 1017.7452,-793.7803 1025.2746,-768.4694"/>
<polygon fill="#191970" stroke="#191970" points="1028.7079,-769.1928 1028.0899,-758.616 1021.9772,-767.2696 1028.7079,-769.1928"/>
</g>
<!-- Node62&#45;&gt;Node4 -->
<g id="edge106" class="edge">
<title>Node62&#45;&gt;Node4</title>
<path fill="none" stroke="#191970" d="M708.9291,-683.4767C679.105,-674.1681 637.9699,-659.5985 626.5746,-647 606.0985,-624.3619 607.5746,-611.5246 607.5746,-581 607.5746,-581 607.5746,-581 607.5746,-413 607.5746,-376.7454 590.994,-337.1181 579.7376,-314.3929"/>
<polygon fill="#191970" stroke="#191970" points="582.7037,-312.5073 575.019,-305.2137 576.4781,-315.7076 582.7037,-312.5073"/>
</g>
<!-- Node63&#45;&gt;Node4 -->
<g id="edge108" class="edge">
<title>Node63&#45;&gt;Node4</title>
<path fill="none" stroke="#191970" d="M640.8508,-683.4185C625.8586,-675.5413 606.1097,-663.0714 593.5746,-647 574.3784,-622.3884 569.5746,-612.2125 569.5746,-581 569.5746,-581 569.5746,-581 569.5746,-413 569.5746,-378.6399 569.5746,-338.628 569.5746,-315.2764"/>
<polygon fill="#191970" stroke="#191970" points="573.0747,-315.2489 569.5746,-305.2489 566.0747,-315.249 573.0747,-315.2489"/>
</g>
<!-- Node64&#45;&gt;Node4 -->
<g id="edge110" class="edge">
<title>Node64&#45;&gt;Node4</title>
<path fill="none" stroke="#191970" d="M571.4363,-795.3839C558.2882,-776.6891 531.5746,-733.6982 531.5746,-693 531.5746,-693 531.5746,-693 531.5746,-413 531.5746,-376.7454 548.1551,-337.1181 559.4115,-314.3929"/>
<polygon fill="#191970" stroke="#191970" points="562.671,-315.7076 564.1301,-305.2137 556.4454,-312.5073 562.671,-315.7076"/>
</g>
<!-- Node66 -->
<g id="node67" class="node">
<title>Node66</title>
<g id="a_node67"><a xlink:href="TGeoMaterial_8h.html" target="_top" xlink:title="TGeoMaterial.h">
<polygon fill="#ffffff" stroke="#000000" points="878.0746,-795.5 878.0746,-814.5 969.0746,-814.5 969.0746,-795.5 878.0746,-795.5"/>
<text text-anchor="middle" x="923.5746" y="-802.5" font-family="Helvetica,sans-Serif" font-size="10.00" fill="#000000">TGeoMaterial.h</text>
</a>
</g>
</g>
<!-- Node65&#45;&gt;Node66 -->
<g id="edge113" class="edge">
<title>Node65&#45;&gt;Node66</title>
<path fill="none" stroke="#191970" d="M924.4004,-851.2455C924.2699,-843.9382 924.087,-833.6944 923.9264,-824.7046"/>
<polygon fill="#191970" stroke="#191970" points="927.4248,-824.5786 923.7467,-814.6427 920.4259,-824.7036 927.4248,-824.5786"/>
</g>
<!-- Node66&#45;&gt;Node60 -->
<g id="edge114" class="edge">
<title>Node66&#45;&gt;Node60</title>
<path fill="none" stroke="#191970" d="M929.7719,-795.1525C939.1659,-780.9473 958.2946,-754.6933 980.5746,-739 1003.3119,-722.9846 1032.3726,-711.6134 1056.0838,-704.1835"/>
<polygon fill="#191970" stroke="#191970" points="1057.3146,-707.4684 1065.8843,-701.2385 1055.3,-700.7645 1057.3146,-707.4684"/>
</g>
<!-- Node66&#45;&gt;Node63 -->
<g id="edge115" class="edge">
<title>Node66&#45;&gt;Node63</title>
<path fill="none" stroke="#191970" d="M893.7332,-795.473C867.3389,-786.7841 827.9499,-773.1732 794.5746,-759 756.961,-743.027 714.9291,-721.5268 688.3754,-707.4705"/>
<polygon fill="#191970" stroke="#191970" points="689.8011,-704.2644 679.3296,-702.6527 686.5105,-710.4428 689.8011,-704.2644"/>
</g>
<!-- Node67 -->
<g id="node68" class="node">
<title>Node67</title>
<g id="a_node68"><a xlink:href="TList_8h.html" target="_top" xlink:title="TList.h">
<polygon fill="#ffffff" stroke="#000000" points="887.0746,-683.5 887.0746,-702.5 936.0746,-702.5 936.0746,-683.5 887.0746,-683.5"/>
<text text-anchor="middle" x="911.5746" y="-690.5" font-family="Helvetica,sans-Serif" font-size="10.00" fill="#000000">TList.h</text>
</a>
</g>
</g>
<!-- Node66&#45;&gt;Node67 -->
<g id="edge116" class="edge">
<title>Node66&#45;&gt;Node67</title>
<path fill="none" stroke="#191970" d="M922.5514,-795.4509C920.5943,-777.184 916.2841,-736.9553 913.685,-712.6976"/>
<polygon fill="#191970" stroke="#191970" points="917.1406,-712.0951 912.5951,-702.5249 910.1804,-712.8409 917.1406,-712.0951"/>
</g>
<!-- Node68 -->
<g id="node69" class="node">
<title>Node68</title>
<g id="a_node69"><a xlink:href="TGeoElement_8h.html" target="_top" xlink:title="TGeoElement.h">
<polygon fill="#ffffff" stroke="#000000" points="803.5746,-739.5 803.5746,-758.5 895.5746,-758.5 895.5746,-739.5 803.5746,-739.5"/>
<text text-anchor="middle" x="849.5746" y="-746.5" font-family="Helvetica,sans-Serif" font-size="10.00" fill="#000000">TGeoElement.h</text>
</a>
</g>
</g>
<!-- Node66&#45;&gt;Node68 -->
<g id="edge121" class="edge">
<title>Node66&#45;&gt;Node68</title>
<path fill="none" stroke="#191970" d="M910.6847,-795.2455C899.6492,-786.8943 883.5453,-774.7076 870.6392,-764.9408"/>
<polygon fill="#191970" stroke="#191970" points="872.4028,-761.8862 862.3167,-758.6427 868.1787,-767.4681 872.4028,-761.8862"/>
</g>
<!-- Node67&#45;&gt;Node31 -->
<g id="edge117" class="edge">
<title>Node67&#45;&gt;Node31</title>
<path fill="none" stroke="#191970" d="M933.9224,-683.3733C954.9779,-674.3032 986.7241,-660.6279 1010.292,-650.4755"/>
<polygon fill="#191970" stroke="#191970" points="1011.719,-653.6719 1019.5184,-646.5011 1008.9495,-647.243 1011.719,-653.6719"/>
</g>
<!-- Node67&#45;&gt;Node34 -->
<g id="edge118" class="edge">
<title>Node67&#45;&gt;Node34</title>
<path fill="none" stroke="#191970" d="M906.2626,-683.4462C896.2486,-664.5117 875.5746,-620.623 875.5746,-581 875.5746,-581 875.5746,-581 875.5746,-525 875.5746,-493.307 877.8317,-478.805 902.5746,-459 937.6223,-430.9467 1067.2052,-419.312 1134.0704,-415.0933"/>
<polygon fill="#191970" stroke="#191970" points="1134.4688,-418.5757 1144.2393,-414.4785 1134.0463,-411.5885 1134.4688,-418.5757"/>
</g>
<!-- Node67&#45;&gt;Node41 -->
<g id="edge119" class="edge">
<title>Node67&#45;&gt;Node41</title>
<path fill="none" stroke="#191970" d="M902.7618,-683.1823C895.3521,-674.3583 885.1085,-660.7126 879.5746,-647 848.3043,-569.5152 832.1722,-527.1098 880.5746,-459 919.0967,-404.7933 949.1487,-411.4905 998.5746,-367 1024.2723,-343.8682 1030.5331,-337.6389 1052.5746,-311 1084.8424,-272.0017 1117.947,-222.5089 1134.9394,-196.2686"/>
<polygon fill="#191970" stroke="#191970" points="1137.9744,-198.0198 1140.4394,-187.7157 1132.0867,-194.2337 1137.9744,-198.0198"/>
</g>
<!-- Node67&#45;&gt;Node47 -->
<g id="edge120" class="edge">
<title>Node67&#45;&gt;Node47</title>
<path fill="none" stroke="#191970" d="M895.471,-683.3053C844.8956,-651.4967 692.5746,-544.7595 692.5746,-413 692.5746,-413 692.5746,-413 692.5746,-295.5 692.5746,-258.4993 673.2027,-218.8689 660.1665,-196.3889"/>
<polygon fill="#191970" stroke="#191970" points="663.033,-194.3642 654.8787,-187.5998 657.0349,-197.9729 663.033,-194.3642"/>
</g>
<!-- Node68&#45;&gt;Node30 -->
<g id="edge127" class="edge">
<title>Node68&#45;&gt;Node30</title>
<path fill="none" stroke="#191970" d="M895.577,-742.4114C970.577,-731.6697 1118.3891,-710.4997 1193.8521,-699.6917"/>
<polygon fill="#191970" stroke="#191970" points="1194.6023,-703.1201 1204.005,-698.2376 1193.6098,-696.1908 1194.6023,-703.1201"/>
</g>
<!-- Node68&#45;&gt;Node60 -->
<g id="edge122" class="edge">
<title>Node68&#45;&gt;Node60</title>
<path fill="none" stroke="#191970" d="M892.267,-739.4369C937.905,-729.214 1009.8935,-713.0886 1055.9038,-702.7823"/>
<polygon fill="#191970" stroke="#191970" points="1056.8816,-706.15 1065.8747,-700.5488 1055.3514,-699.3193 1056.8816,-706.15"/>
</g>
<!-- Node68&#45;&gt;Node62 -->
<g id="edge123" class="edge">
<title>Node68&#45;&gt;Node62</title>
<path fill="none" stroke="#191970" d="M830.7624,-739.2455C813.7273,-730.4125 788.4171,-717.2887 769.1064,-707.2758"/>
<polygon fill="#191970" stroke="#191970" points="770.6598,-704.1388 760.1711,-702.6427 767.4376,-710.353 770.6598,-704.1388"/>
</g>
<!-- Node68&#45;&gt;Node63 -->
<g id="edge124" class="edge">
<title>Node68&#45;&gt;Node63</title>
<path fill="none" stroke="#191970" d="M817.2562,-739.3733C785.0551,-729.7814 735.5639,-715.0394 701.0549,-704.7601"/>
<polygon fill="#191970" stroke="#191970" points="701.8876,-701.3562 691.3045,-701.8557 699.8892,-708.0649 701.8876,-701.3562"/>
</g>
<!-- Node69 -->
<g id="node70" class="node">
<title>Node69</title>
<g id="a_node70"><a xlink:href="TAttMarker_8h.html" target="_top" xlink:title="TAttMarker.h">
<polygon fill="#ffffff" stroke="#000000" points="635.5746,-627.5 635.5746,-646.5 713.5746,-646.5 713.5746,-627.5 635.5746,-627.5"/>
<text text-anchor="middle" x="674.5746" y="-634.5" font-family="Helvetica,sans-Serif" font-size="10.00" fill="#000000">TAttMarker.h</text>
</a>
</g>
</g>
<!-- Node68&#45;&gt;Node69 -->
<g id="edge125" class="edge">
<title>Node68&#45;&gt;Node69</title>
<path fill="none" stroke="#191970" d="M841.8215,-739.3282C830.1959,-725.3419 806.9915,-699.3579 782.5746,-683 761.819,-669.0949 736.1768,-657.9591 715.0872,-650.1287"/>
<polygon fill="#191970" stroke="#191970" points="716.0417,-646.7525 705.4473,-646.6593 713.6712,-653.3389 716.0417,-646.7525"/>
</g>
<!-- Node70 -->
<g id="node71" class="node">
<title>Node70</title>
<polygon fill="#ffffff" stroke="#bfbfbf" points="830.5746,-683.5 830.5746,-702.5 868.5746,-702.5 868.5746,-683.5 830.5746,-683.5"/>
<text text-anchor="middle" x="849.5746" y="-690.5" font-family="Helvetica,sans-Serif" font-size="10.00" fill="#000000">map</text>
</g>
<!-- Node68&#45;&gt;Node70 -->
<g id="edge128" class="edge">
<title>Node68&#45;&gt;Node70</title>
<path fill="none" stroke="#191970" d="M849.5746,-739.2455C849.5746,-731.9382 849.5746,-721.6944 849.5746,-712.7046"/>
<polygon fill="#191970" stroke="#191970" points="853.0747,-712.6426 849.5746,-702.6427 846.0747,-712.6427 853.0747,-712.6426"/>
</g>
<!-- Node69&#45;&gt;Node4 -->
<g id="edge126" class="edge">
<title>Node69&#45;&gt;Node4</title>
<path fill="none" stroke="#191970" d="M670.8857,-627.2751C663.9316,-608.0407 649.5746,-563.6505 649.5746,-525 649.5746,-525 649.5746,-525 649.5746,-413 649.5746,-370.8353 613.9403,-332.6145 590.2367,-311.8547"/>
<polygon fill="#191970" stroke="#191970" points="592.3268,-309.0387 582.4279,-305.262 587.8111,-314.3874 592.3268,-309.0387"/>
</g>
<!-- Node71&#45;&gt;Node60 -->
<g id="edge130" class="edge">
<title>Node71&#45;&gt;Node60</title>
<path fill="none" stroke="#191970" d="M1042.5934,-739.2455C1052.7844,-730.9746 1067.6108,-718.9416 1079.5852,-709.2232"/>
<polygon fill="#191970" stroke="#191970" points="1082.1344,-711.662 1087.6934,-702.6427 1077.7232,-706.2268 1082.1344,-711.662"/>
</g>
<!-- Node72&#45;&gt;Node2 -->
<g id="edge133" class="edge">
<title>Node72&#45;&gt;Node2</title>
<path fill="none" stroke="#191970" d="M1017.3781,-963.3573C1039.6182,-926.5027 1121.8151,-791.1875 1194.5746,-683 1225.6851,-636.7411 1267.5746,-636.7472 1267.5746,-581 1267.5746,-581 1267.5746,-581 1267.5746,-525 1267.5746,-492.2688 1275.5598,-454.9052 1281.1768,-432.6716"/>
<polygon fill="#191970" stroke="#191970" points="1284.6161,-433.3545 1283.771,-422.7934 1277.8457,-431.5763 1284.6161,-433.3545"/>
</g>
<!-- Node72&#45;&gt;Node28 -->
<g id="edge132" class="edge">
<title>Node72&#45;&gt;Node28</title>
<path fill="none" stroke="#191970" d="M975.4821,-963.4856C910.8434,-946.3518 770.8599,-908.8195 643.5809,-871.5359"/>
<polygon fill="#191970" stroke="#191970" points="644.2417,-868.0823 633.6607,-868.6229 642.2694,-874.7987 644.2417,-868.0823"/>
</g>
<!-- Node72&#45;&gt;Node61 -->
<g id="edge134" class="edge">
<title>Node72&#45;&gt;Node61</title>
<path fill="none" stroke="#191970" d="M996.5945,-963.2455C983.3995,-954.6534 963.9695,-942.0014 948.7666,-932.1018"/>
<polygon fill="#191970" stroke="#191970" points="950.6728,-929.1665 940.383,-926.6427 946.8531,-935.0325 950.6728,-929.1665"/>
</g>
<!-- Node74 -->
<g id="node75" class="node">
<title>Node74</title>
<g id="a_node75"><a xlink:href="TGeoMatrix_8h.html" target="_top" xlink:title="TGeoMatrix.h">
<polygon fill="#ffffff" stroke="#000000" points="1182.5746,-907.5 1182.5746,-926.5 1264.5746,-926.5 1264.5746,-907.5 1182.5746,-907.5"/>
<text text-anchor="middle" x="1223.5746" y="-914.5" font-family="Helvetica,sans-Serif" font-size="10.00" fill="#000000">TGeoMatrix.h</text>
</a>
</g>
</g>
<!-- Node73&#45;&gt;Node74 -->
<g id="edge136" class="edge">
<title>Node73&#45;&gt;Node74</title>
<path fill="none" stroke="#191970" d="M1186.9849,-1019.4509C1193.5679,-1001.0186 1208.1369,-960.2254 1216.7735,-936.043"/>
<polygon fill="#191970" stroke="#191970" points="1220.1055,-937.1195 1220.1728,-926.5249 1213.5133,-934.7651 1220.1055,-937.1195"/>
</g>
<!-- Node74&#45;&gt;Node60 -->
<g id="edge137" class="edge">
<title>Node74&#45;&gt;Node60</title>
<path fill="none" stroke="#191970" d="M1229.4415,-907.3766C1236.6115,-894.3216 1246.9337,-870.402 1239.5746,-851 1215.7118,-788.0871 1154.0708,-734.1488 1121.1111,-708.6701"/>
<polygon fill="#191970" stroke="#191970" points="1123.0947,-705.782 1113.0096,-702.5354 1118.8689,-711.3626 1123.0947,-705.782"/>
</g>
</g>
</svg>
