<?xml version="1.0" encoding="UTF-8" standalone="no"?>
<!DOCTYPE svg PUBLIC "-//W3C//DTD SVG 1.1//EN"
 "http://www.w3.org/Graphics/SVG/1.1/DTD/svg11.dtd">
<!-- Generated by graphviz version 2.40.1 (0)
 -->
<!-- Title: gui/gui/inc/TGFontDialog.h Pages: 1 -->
<svg width="496pt" height="95pt"
 viewBox="0.00 0.00 495.50 95.00" xmlns="http://www.w3.org/2000/svg" xmlns:xlink="http://www.w3.org/1999/xlink">
<g id="graph0" class="graph" transform="scale(1 1) rotate(0) translate(4 91)">
<title>gui/gui/inc/TGFontDialog.h</title>
<polygon fill="#ffffff" stroke="transparent" points="-4,4 -4,-91 491.5,-91 491.5,4 -4,4"/>
<!-- Node78 -->
<g id="node1" class="node">
<title>Node78</title>
<polygon fill="#bfbfbf" stroke="#000000" points="177.5,-67.5 177.5,-86.5 322.5,-86.5 322.5,-67.5 177.5,-67.5"/>
<text text-anchor="middle" x="250" y="-74.5" font-family="Helvetica,sans-Serif" font-size="10.00" fill="#000000">gui/gui/inc/TGFontDialog.h</text>
</g>
<!-- Node79 -->
<g id="node2" class="node">
<title>Node79</title>
<g id="a_node2"><a xlink:href="TGFontDialog_8cxx.html" target="_top" xlink:title="gui/gui/src/TGFontDialog.cxx">
<polygon fill="#ffffff" stroke="#000000" points="0,-6 0,-25 156,-25 156,-6 0,-6"/>
<text text-anchor="middle" x="78" y="-13" font-family="Helvetica,sans-Serif" font-size="10.00" fill="#000000">gui/gui/src/TGFontDialog.cxx</text>
</a>
</g>
</g>
<!-- Node78&#45;&gt;Node79 -->
<g id="edge1" class="edge">
<title>Node78&#45;&gt;Node79</title>
<path fill="none" stroke="#191970" d="M213.5035,-63.9504C180.8968,-52.2916 133.8935,-35.4852 104.6863,-25.0419"/>
<polygon fill="#191970" stroke="#191970" points="212.5304,-67.3194 223.125,-67.3906 214.8872,-60.7281 212.5304,-67.3194"/>
</g>
<!-- Node80 -->
<g id="node3" class="node">
<title>Node80</title>
<g id="a_node3"><a xlink:href="TGTextEditor_8cxx.html" target="_top" xlink:title="gui/gui/src/TGTextEditor.cxx">
<polygon fill="#ffffff" stroke="#000000" points="174,-6 174,-25 326,-25 326,-6 174,-6"/>
<text text-anchor="middle" x="250" y="-13" font-family="Helvetica,sans-Serif" font-size="10.00" fill="#000000">gui/gui/src/TGTextEditor.cxx</text>
</a>
</g>
</g>
<!-- Node78&#45;&gt;Node80 -->
<g id="edge2" class="edge">
<title>Node78&#45;&gt;Node80</title>
<path fill="none" stroke="#191970" d="M250,-57.2462C250,-46.5519 250,-33.814 250,-25.2449"/>
<polygon fill="#191970" stroke="#191970" points="246.5001,-57.3906 250,-67.3906 253.5001,-57.3907 246.5001,-57.3906"/>
</g>
<!-- Node81 -->
<g id="node4" class="node">
<title>Node81</title>
<g id="a_node4"><a xlink:href="TGuiBldDragManager_8cxx.html" target="_top" xlink:title="gui/guibuilder/src\l/TGuiBldDragManager.cxx">
<polygon fill="#ffffff" stroke="#000000" points="344.5,-.5 344.5,-30.5 487.5,-30.5 487.5,-.5 344.5,-.5"/>
<text text-anchor="start" x="352.5" y="-18.5" font-family="Helvetica,sans-Serif" font-size="10.00" fill="#000000">gui/guibuilder/src</text>
<text text-anchor="middle" x="416" y="-7.5" font-family="Helvetica,sans-Serif" font-size="10.00" fill="#000000">/TGuiBldDragManager.cxx</text>
</a>
</g>
</g>
<!-- Node78&#45;&gt;Node81 -->
<g id="edge3" class="edge">
<title>Node78&#45;&gt;Node81</title>
<path fill="none" stroke="#191970" d="M285.5332,-63.8356C311.8984,-54.0678 347.8894,-40.7338 375.3918,-30.5446"/>
<polygon fill="#191970" stroke="#191970" points="284.0987,-60.6345 275.9375,-67.3906 286.5306,-67.1985 284.0987,-60.6345"/>
</g>
</g>
</svg>
