<?xml version="1.0" encoding="UTF-8" standalone="no"?>
<!DOCTYPE svg PUBLIC "-//W3C//DTD SVG 1.1//EN"
 "http://www.w3.org/Graphics/SVG/1.1/DTD/svg11.dtd">
<!-- Generated by graphviz version 2.40.1 (0)
 -->
<!-- Title: gui/gui/inc/TGIdleHandler.h Pages: 1 -->
<svg width="486pt" height="84pt"
 viewBox="0.00 0.00 486.00 84.00" xmlns="http://www.w3.org/2000/svg" xmlns:xlink="http://www.w3.org/1999/xlink">
<g id="graph0" class="graph" transform="scale(1 1) rotate(0) translate(4 80)">
<title>gui/gui/inc/TGIdleHandler.h</title>
<polygon fill="#ffffff" stroke="transparent" points="-4,4 -4,-80 482,-80 482,4 -4,4"/>
<!-- Node26 -->
<g id="node1" class="node">
<title>Node26</title>
<polygon fill="#bfbfbf" stroke="#000000" points="156,-56.5 156,-75.5 304,-75.5 304,-56.5 156,-56.5"/>
<text text-anchor="middle" x="230" y="-63.5" font-family="Helvetica,sans-Serif" font-size="10.00" fill="#000000">gui/gui/inc/TGIdleHandler.h</text>
</g>
<!-- Node27 -->
<g id="node2" class="node">
<title>Node27</title>
<g id="a_node2"><a xlink:href="TGClient_8cxx.html" target="_top" xlink:title="gui/gui/src/TGClient.cxx">
<polygon fill="#ffffff" stroke="#000000" points="0,-.5 0,-19.5 132,-19.5 132,-.5 0,-.5"/>
<text text-anchor="middle" x="66" y="-7.5" font-family="Helvetica,sans-Serif" font-size="10.00" fill="#000000">gui/gui/src/TGClient.cxx</text>
</a>
</g>
</g>
<!-- Node26&#45;&gt;Node27 -->
<g id="edge1" class="edge">
<title>Node26&#45;&gt;Node27</title>
<path fill="none" stroke="#191970" d="M192.0956,-53.057C162.0816,-42.8084 120.8493,-28.729 93.8247,-19.5011"/>
<polygon fill="#191970" stroke="#191970" points="191.2129,-56.454 201.8074,-56.3733 193.4749,-49.8295 191.2129,-56.454"/>
</g>
<!-- Node28 -->
<g id="node3" class="node">
<title>Node28</title>
<g id="a_node3"><a xlink:href="TGIdleHandler_8cxx.html" target="_top" xlink:title="gui/gui/src/TGIdleHandler.cxx">
<polygon fill="#ffffff" stroke="#000000" points="150.5,-.5 150.5,-19.5 309.5,-19.5 309.5,-.5 150.5,-.5"/>
<text text-anchor="middle" x="230" y="-7.5" font-family="Helvetica,sans-Serif" font-size="10.00" fill="#000000">gui/gui/src/TGIdleHandler.cxx</text>
</a>
</g>
</g>
<!-- Node26&#45;&gt;Node28 -->
<g id="edge2" class="edge">
<title>Node26&#45;&gt;Node28</title>
<path fill="none" stroke="#191970" d="M230,-46.1575C230,-37.155 230,-26.9199 230,-19.6427"/>
<polygon fill="#191970" stroke="#191970" points="226.5001,-46.2455 230,-56.2455 233.5001,-46.2456 226.5001,-46.2455"/>
</g>
<!-- Node29 -->
<g id="node4" class="node">
<title>Node29</title>
<g id="a_node4"><a xlink:href="TGHtml_8cxx.html" target="_top" xlink:title="gui/guihtml/src/TGHtml.cxx">
<polygon fill="#ffffff" stroke="#000000" points="328,-.5 328,-19.5 478,-19.5 478,-.5 328,-.5"/>
<text text-anchor="middle" x="403" y="-7.5" font-family="Helvetica,sans-Serif" font-size="10.00" fill="#000000">gui/guihtml/src/TGHtml.cxx</text>
</a>
</g>
</g>
<!-- Node26&#45;&gt;Node29 -->
<g id="edge3" class="edge">
<title>Node26&#45;&gt;Node29</title>
<path fill="none" stroke="#191970" d="M269.5723,-53.1905C301.2671,-42.9309 345.0168,-28.7691 373.6483,-19.5011"/>
<polygon fill="#191970" stroke="#191970" points="268.1758,-49.9636 259.7398,-56.3733 270.3316,-56.6234 268.1758,-49.9636"/>
</g>
</g>
</svg>
