<?xml version="1.0" encoding="UTF-8" standalone="no"?>
<!DOCTYPE svg PUBLIC "-//W3C//DTD SVG 1.1//EN"
 "http://www.w3.org/Graphics/SVG/1.1/DTD/svg11.dtd">
<!-- Generated by graphviz version 2.40.1 (0)
 -->
<!-- Title: graf3d/gl/inc/TGLIsoMesh.h Pages: 1 -->
<!--zoomable 285 -->
<svg id="main" version="1.1" xmlns="http://www.w3.org/2000/svg" xmlns:xlink="http://www.w3.org/1999/xlink" xml:space="preserve" onload="init(evt)">
<style type="text/css"><![CDATA[
.edge:hover path { stroke: red; }
.edge:hover polygon { stroke: red; fill: red; }
]]></style>
<script type="text/javascript"><![CDATA[
var edges = document.getElementsByTagName('g');
if (edges && edges.length) {
  for (var i=0;i<edges.length;i++) {
    if (edges[i].id.substr(0,4)=='edge') {
      edges[i].setAttribute('class','edge');
    }
  }
}
]]></script>
        <defs>
                <circle id="rim" cx="0" cy="0" r="7"/>
                <circle id="rim2" cx="0" cy="0" r="3.5"/>
                <g id="zoomPlus">
                        <use xlink:href="#rim" fill="#404040">
                                <set attributeName="fill" to="#808080" begin="zoomplus.mouseover" end="zoomplus.mouseout"/>
                        </use>
                        <path d="M-4,0h8M0,-4v8" fill="none" stroke="white" stroke-width="1.5" pointer-events="none"/>
                </g>
                <g id="zoomMin">
                        <use xlink:href="#rim" fill="#404040">
                                <set attributeName="fill" to="#808080" begin="zoomminus.mouseover" end="zoomminus.mouseout"/>
                        </use>
                        <path d="M-4,0h8" fill="none" stroke="white" stroke-width="1.5" pointer-events="none"/>
                </g>
                <g id="dirArrow">
                        <path fill="none" stroke="white" stroke-width="1.5" d="M0,-3.0v7 M-2.5,-0.5L0,-3.0L2.5,-0.5"/>
                </g>
               <g id="resetDef">
                       <use xlink:href="#rim2" fill="#404040">
                               <set attributeName="fill" to="#808080" begin="reset.mouseover" end="reset.mouseout"/>
                       </use>
               </g>
        </defs>

<script type="text/javascript">
var viewWidth = 1321;
var viewHeight = 285;
var sectionId = 'dynsection-1';
</script>
<script xlink:href="svgpan.js"/>
<svg id="graph" class="graph">
<g id="viewport">
<title>graf3d/gl/inc/TGLIsoMesh.h</title>
<polygon fill="#ffffff" stroke="transparent" points="-4,4 -4,-281 1317,-281 1317,4 -4,4"/>
<!-- Node50 -->
<g id="node1" class="node">
<title>Node50</title>
<polygon fill="#bfbfbf" stroke="#000000" points="425.5,-257.5 425.5,-276.5 573.5,-276.5 573.5,-257.5 425.5,-257.5"/>
<text text-anchor="middle" x="499.5" y="-264.5" font-family="Helvetica,sans-Serif" font-size="10.00" fill="#000000">graf3d/gl/inc/TGLIsoMesh.h</text>
</g>
<!-- Node51 -->
<g id="node2" class="node">
<title>Node51</title>
<g id="a_node2"><a xlink:href="TGLMarchingCubes_8h.html" target="_top" xlink:title="graf3d/gl/inc/TGLMarching\lCubes.h">
<polygon fill="#ffffff" stroke="#000000" points="323,-134.5 323,-164.5 466,-164.5 466,-134.5 323,-134.5"/>
<text text-anchor="start" x="331" y="-152.5" font-family="Helvetica,sans-Serif" font-size="10.00" fill="#000000">graf3d/gl/inc/TGLMarching</text>
<text text-anchor="middle" x="394.5" y="-141.5" font-family="Helvetica,sans-Serif" font-size="10.00" fill="#000000">Cubes.h</text>
</a>
</g>
</g>
<!-- Node50&#45;&gt;Node51 -->
<g id="edge1" class="edge">
<title>Node50&#45;&gt;Node51</title>
<path fill="none" stroke="#191970" d="M458.9227,-253.4974C442.6751,-246.2151 425.0976,-235.6483 413.5,-221 400.5842,-204.6867 396.4063,-180.3876 395.0797,-164.7425"/>
<polygon fill="#191970" stroke="#191970" points="457.704,-256.7815 468.2801,-257.4116 460.4054,-250.3237 457.704,-256.7815"/>
</g>
<!-- Node52 -->
<g id="node3" class="node">
<title>Node52</title>
<g id="a_node3"><a xlink:href="TGL5DPainter_8h.html" target="_top" xlink:title="graf3d/gl/inc/TGL5DPainter.h">
<polygon fill="#ffffff" stroke="#000000" points="150,-73 150,-92 305,-92 305,-73 150,-73"/>
<text text-anchor="middle" x="227.5" y="-80" font-family="Helvetica,sans-Serif" font-size="10.00" fill="#000000">graf3d/gl/inc/TGL5DPainter.h</text>
</a>
</g>
</g>
<!-- Node50&#45;&gt;Node52 -->
<g id="edge12" class="edge">
<title>Node50&#45;&gt;Node52</title>
<path fill="none" stroke="#191970" d="M466.7647,-253.3843C446.9441,-244.7879 421.3564,-233.0587 399.5,-221 359.5637,-198.9662 349.2253,-193.3566 313.5,-165 283.1959,-140.9465 251.2759,-108.0129 236.2706,-92.0071"/>
<polygon fill="#191970" stroke="#191970" points="465.4199,-256.6158 475.99,-257.3404 468.1788,-250.1824 465.4199,-256.6158"/>
</g>
<!-- Node59 -->
<g id="node10" class="node">
<title>Node59</title>
<g id="a_node10"><a xlink:href="TKDEAdapter_8h.html" target="_top" xlink:title="graf3d/gl/inc/TKDEAdapter.h">
<polygon fill="#ffffff" stroke="#000000" points="423,-201.5 423,-220.5 576,-220.5 576,-201.5 423,-201.5"/>
<text text-anchor="middle" x="499.5" y="-208.5" font-family="Helvetica,sans-Serif" font-size="10.00" fill="#000000">graf3d/gl/inc/TKDEAdapter.h</text>
</a>
</g>
</g>
<!-- Node50&#45;&gt;Node59 -->
<g id="edge9" class="edge">
<title>Node50&#45;&gt;Node59</title>
<path fill="none" stroke="#191970" d="M499.5,-247.1575C499.5,-238.155 499.5,-227.9199 499.5,-220.6427"/>
<polygon fill="#191970" stroke="#191970" points="496.0001,-247.2455 499.5,-257.2455 503.0001,-247.2456 496.0001,-247.2455"/>
</g>
<!-- Node61 -->
<g id="node12" class="node">
<title>Node61</title>
<g id="a_node12"><a xlink:href="TGLTF3Painter_8h.html" target="_top" xlink:title="graf3d/gl/inc/TGLTF3Painter.h">
<polygon fill="#ffffff" stroke="#000000" points="696,-140 696,-159 853,-159 853,-140 696,-140"/>
<text text-anchor="middle" x="774.5" y="-147" font-family="Helvetica,sans-Serif" font-size="10.00" fill="#000000">graf3d/gl/inc/TGLTF3Painter.h</text>
</a>
</g>
</g>
<!-- Node50&#45;&gt;Node61 -->
<g id="edge13" class="edge">
<title>Node50&#45;&gt;Node61</title>
<path fill="none" stroke="#191970" d="M526.3405,-252.6928C561.5592,-233.9396 619.5119,-203.1577 624.5,-201 664.0489,-183.8926 711.3014,-168.455 742.0584,-159.039"/>
<polygon fill="#191970" stroke="#191970" points="524.6781,-249.6127 517.4976,-257.4031 527.969,-255.7909 524.6781,-249.6127"/>
</g>
<!-- Node66 -->
<g id="node17" class="node">
<title>Node66</title>
<g id="a_node17"><a xlink:href="TGLIsoMesh_8cxx.html" target="_top" xlink:title="graf3d/gl/src/TGLIsoMesh.cxx">
<polygon fill="#ffffff" stroke="#000000" points="633,-201.5 633,-220.5 792,-220.5 792,-201.5 633,-201.5"/>
<text text-anchor="middle" x="712.5" y="-208.5" font-family="Helvetica,sans-Serif" font-size="10.00" fill="#000000">graf3d/gl/src/TGLIsoMesh.cxx</text>
</a>
</g>
</g>
<!-- Node50&#45;&gt;Node66 -->
<g id="edge20" class="edge">
<title>Node50&#45;&gt;Node66</title>
<path fill="none" stroke="#191970" d="M545.9585,-254.7856C585.1393,-244.4845 640.4235,-229.9497 676.3618,-220.5011"/>
<polygon fill="#191970" stroke="#191970" points="544.8974,-251.4455 536.116,-257.3733 546.6773,-258.2155 544.8974,-251.4455"/>
</g>
<!-- Node51&#45;&gt;Node52 -->
<g id="edge2" class="edge">
<title>Node51&#45;&gt;Node52</title>
<path fill="none" stroke="#191970" d="M347.6076,-130.6869C316.3035,-118.1278 276.4406,-102.1349 251.4381,-92.1039"/>
<polygon fill="#191970" stroke="#191970" points="346.4378,-133.9887 357.0219,-134.4639 349.0442,-127.492 346.4378,-133.9887"/>
</g>
<!-- Node57 -->
<g id="node8" class="node">
<title>Node57</title>
<g id="a_node8"><a xlink:href="TGLMarchingCubes_8cxx.html" target="_top" xlink:title="graf3d/gl/src/TGLMarching\lCubes.cxx">
<polygon fill="#ffffff" stroke="#000000" points="323,-67.5 323,-97.5 466,-97.5 466,-67.5 323,-67.5"/>
<text text-anchor="start" x="331" y="-85.5" font-family="Helvetica,sans-Serif" font-size="10.00" fill="#000000">graf3d/gl/src/TGLMarching</text>
<text text-anchor="middle" x="394.5" y="-74.5" font-family="Helvetica,sans-Serif" font-size="10.00" fill="#000000">Cubes.cxx</text>
</a>
</g>
</g>
<!-- Node51&#45;&gt;Node57 -->
<g id="edge7" class="edge">
<title>Node51&#45;&gt;Node57</title>
<path fill="none" stroke="#191970" d="M394.5,-124.0249C394.5,-115.128 394.5,-105.4287 394.5,-97.6432"/>
<polygon fill="#191970" stroke="#191970" points="391.0001,-124.2966 394.5,-134.2967 398.0001,-124.2967 391.0001,-124.2966"/>
</g>
<!-- Node58 -->
<g id="node9" class="node">
<title>Node58</title>
<g id="a_node9"><a xlink:href="TGLTF3Painter_8cxx.html" target="_top" xlink:title="graf3d/gl/src/TGLTF3Painter.cxx">
<polygon fill="#ffffff" stroke="#000000" points="484.5,-73 484.5,-92 652.5,-92 652.5,-73 484.5,-73"/>
<text text-anchor="middle" x="568.5" y="-80" font-family="Helvetica,sans-Serif" font-size="10.00" fill="#000000">graf3d/gl/src/TGLTF3Painter.cxx</text>
</a>
</g>
</g>
<!-- Node51&#45;&gt;Node58 -->
<g id="edge8" class="edge">
<title>Node51&#45;&gt;Node58</title>
<path fill="none" stroke="#191970" d="M442.9655,-130.838C475.7473,-118.2151 517.6767,-102.0699 543.8146,-92.0053"/>
<polygon fill="#191970" stroke="#191970" points="441.6234,-127.6042 433.549,-134.4639 444.1388,-134.1367 441.6234,-127.6042"/>
</g>
<!-- Node53 -->
<g id="node4" class="node">
<title>Node53</title>
<g id="a_node4"><a xlink:href="TGL5D_8cxx.html" target="_top" xlink:title="graf3d/gl/src/TGL5D.cxx">
<polygon fill="#ffffff" stroke="#000000" points="0,-6 0,-25 133,-25 133,-6 0,-6"/>
<text text-anchor="middle" x="66.5" y="-13" font-family="Helvetica,sans-Serif" font-size="10.00" fill="#000000">graf3d/gl/src/TGL5D.cxx</text>
</a>
</g>
</g>
<!-- Node52&#45;&gt;Node53 -->
<g id="edge3" class="edge">
<title>Node52&#45;&gt;Node53</title>
<path fill="none" stroke="#191970" d="M194.8478,-68.9118C163.5555,-55.8895 117.1223,-36.5664 89.5246,-25.0817"/>
<polygon fill="#191970" stroke="#191970" points="193.8554,-72.2898 204.4326,-72.9005 196.5449,-65.827 193.8554,-72.2898"/>
</g>
<!-- Node54 -->
<g id="node5" class="node">
<title>Node54</title>
<g id="a_node5"><a xlink:href="TGL5DDataSetEditor_8cxx.html" target="_top" xlink:title="graf3d/gl/src/TGL5DDataSet\lEditor.cxx">
<polygon fill="#ffffff" stroke="#000000" points="151.5,-.5 151.5,-30.5 303.5,-30.5 303.5,-.5 151.5,-.5"/>
<text text-anchor="start" x="159.5" y="-18.5" font-family="Helvetica,sans-Serif" font-size="10.00" fill="#000000">graf3d/gl/src/TGL5DDataSet</text>
<text text-anchor="middle" x="227.5" y="-7.5" font-family="Helvetica,sans-Serif" font-size="10.00" fill="#000000">Editor.cxx</text>
</a>
</g>
</g>
<!-- Node52&#45;&gt;Node54 -->
<g id="edge4" class="edge">
<title>Node52&#45;&gt;Node54</title>
<path fill="none" stroke="#191970" d="M227.5,-62.7758C227.5,-52.4641 227.5,-40.0437 227.5,-30.5218"/>
<polygon fill="#191970" stroke="#191970" points="224.0001,-62.9005 227.5,-72.9005 231.0001,-62.9006 224.0001,-62.9005"/>
</g>
<!-- Node55 -->
<g id="node6" class="node">
<title>Node55</title>
<g id="a_node6"><a xlink:href="TGL5DPainter_8cxx.html" target="_top" xlink:title="graf3d/gl/src/TGL5DPainter.cxx">
<polygon fill="#ffffff" stroke="#000000" points="321.5,-6 321.5,-25 487.5,-25 487.5,-6 321.5,-6"/>
<text text-anchor="middle" x="404.5" y="-13" font-family="Helvetica,sans-Serif" font-size="10.00" fill="#000000">graf3d/gl/src/TGL5DPainter.cxx</text>
</a>
</g>
</g>
<!-- Node52&#45;&gt;Node55 -->
<g id="edge5" class="edge">
<title>Node52&#45;&gt;Node55</title>
<path fill="none" stroke="#191970" d="M262.5073,-69.2487C296.9138,-56.2247 348.5842,-36.6659 379.1873,-25.0817"/>
<polygon fill="#191970" stroke="#191970" points="260.9731,-66.087 252.8598,-72.9005 263.4513,-72.6336 260.9731,-66.087"/>
</g>
<!-- Node56 -->
<g id="node7" class="node">
<title>Node56</title>
<g id="a_node7"><a xlink:href="TGLHistPainter_8cxx.html" target="_top" xlink:title="graf3d/gl/src/TGLHistPainter.cxx">
<polygon fill="#ffffff" stroke="#000000" points="550.5,-6 550.5,-25 722.5,-25 722.5,-6 550.5,-6"/>
<text text-anchor="middle" x="636.5" y="-13" font-family="Helvetica,sans-Serif" font-size="10.00" fill="#000000">graf3d/gl/src/TGLHistPainter.cxx</text>
</a>
</g>
</g>
<!-- Node52&#45;&gt;Node56 -->
<g id="edge6" class="edge">
<title>Node52&#45;&gt;Node56</title>
<path fill="none" stroke="#191970" d="M289.196,-71.2252C297.3646,-69.7779 305.6312,-68.3363 313.5,-67 404.1928,-51.5986 509.4484,-35.0663 574.5177,-25.002"/>
<polygon fill="#191970" stroke="#191970" points="288.5446,-67.7861 279.314,-72.9867 289.773,-74.6774 288.5446,-67.7861"/>
</g>
<!-- Node59&#45;&gt;Node51 -->
<g id="edge10" class="edge">
<title>Node59&#45;&gt;Node51</title>
<path fill="none" stroke="#191970" d="M474.1013,-196.1236C457.7575,-186.5508 436.5858,-174.1502 420.1859,-164.5446"/>
<polygon fill="#191970" stroke="#191970" points="472.696,-199.3566 483.0938,-201.3906 476.2338,-193.3165 472.696,-199.3566"/>
</g>
<!-- Node60 -->
<g id="node11" class="node">
<title>Node60</title>
<g id="a_node11"><a xlink:href="TKDEAdapter_8cxx.html" target="_top" xlink:title="graf3d/gl/src/TKDEAdapter.cxx">
<polygon fill="#ffffff" stroke="#000000" points="484.5,-140 484.5,-159 648.5,-159 648.5,-140 484.5,-140"/>
<text text-anchor="middle" x="566.5" y="-147" font-family="Helvetica,sans-Serif" font-size="10.00" fill="#000000">graf3d/gl/src/TKDEAdapter.cxx</text>
</a>
</g>
</g>
<!-- Node59&#45;&gt;Node60 -->
<g id="edge11" class="edge">
<title>Node59&#45;&gt;Node60</title>
<path fill="none" stroke="#191970" d="M517.4231,-194.5482C529.6993,-183.2798 545.5655,-168.716 555.8837,-159.2449"/>
<polygon fill="#191970" stroke="#191970" points="514.969,-192.0499 509.9688,-201.3906 519.7025,-197.2068 514.969,-192.0499"/>
</g>
<!-- Node61&#45;&gt;Node56 -->
<g id="edge15" class="edge">
<title>Node61&#45;&gt;Node56</title>
<path fill="none" stroke="#191970" d="M749.0962,-134.5392C734.1124,-125.0755 715.2576,-112.0125 700.5,-98 675.9178,-74.6589 653.0993,-41.397 642.5844,-25.1624"/>
<polygon fill="#191970" stroke="#191970" points="747.506,-137.6706 757.8543,-139.9428 751.1816,-131.7132 747.506,-137.6706"/>
</g>
<!-- Node61&#45;&gt;Node58 -->
<g id="edge17" class="edge">
<title>Node61&#45;&gt;Node58</title>
<path fill="none" stroke="#191970" d="M735.2937,-136.7484C695.266,-123.7297 634.0358,-103.815 597.96,-92.0817"/>
<polygon fill="#191970" stroke="#191970" points="734.393,-140.1359 744.9852,-139.9005 736.5581,-133.4791 734.393,-140.1359"/>
</g>
<!-- Node62 -->
<g id="node13" class="node">
<title>Node62</title>
<g id="a_node13"><a xlink:href="TF2GL_8cxx.html" target="_top" xlink:title="graf3d/gl/src/TF2GL.cxx">
<polygon fill="#ffffff" stroke="#000000" points="709,-73 709,-92 840,-92 840,-73 709,-73"/>
<text text-anchor="middle" x="774.5" y="-80" font-family="Helvetica,sans-Serif" font-size="10.00" fill="#000000">graf3d/gl/src/TF2GL.cxx</text>
</a>
</g>
</g>
<!-- Node61&#45;&gt;Node62 -->
<g id="edge14" class="edge">
<title>Node61&#45;&gt;Node62</title>
<path fill="none" stroke="#191970" d="M774.5,-129.6079C774.5,-117.214 774.5,-101.8263 774.5,-92.0817"/>
<polygon fill="#191970" stroke="#191970" points="771.0001,-129.9005 774.5,-139.9005 778.0001,-129.9006 771.0001,-129.9005"/>
</g>
<!-- Node63 -->
<g id="node14" class="node">
<title>Node63</title>
<g id="a_node14"><a xlink:href="TGLParametricEquationGL_8cxx.html" target="_top" xlink:title="graf3d/gl/src/TGLParametric\lEquationGL.cxx">
<polygon fill="#ffffff" stroke="#000000" points="858.5,-67.5 858.5,-97.5 1010.5,-97.5 1010.5,-67.5 858.5,-67.5"/>
<text text-anchor="start" x="866.5" y="-85.5" font-family="Helvetica,sans-Serif" font-size="10.00" fill="#000000">graf3d/gl/src/TGLParametric</text>
<text text-anchor="middle" x="934.5" y="-74.5" font-family="Helvetica,sans-Serif" font-size="10.00" fill="#000000">EquationGL.cxx</text>
</a>
</g>
</g>
<!-- Node61&#45;&gt;Node63 -->
<g id="edge16" class="edge">
<title>Node61&#45;&gt;Node63</title>
<path fill="none" stroke="#191970" d="M806.6835,-136.0231C833.2926,-124.8806 871.0502,-109.0696 898.6271,-97.5218"/>
<polygon fill="#191970" stroke="#191970" points="805.2961,-132.8096 797.4241,-139.9005 807.9999,-139.2663 805.2961,-132.8096"/>
</g>
<!-- Node64 -->
<g id="node15" class="node">
<title>Node64</title>
<g id="a_node15"><a xlink:href="TH2GL_8cxx.html" target="_top" xlink:title="graf3d/gl/src/TH2GL.cxx">
<polygon fill="#ffffff" stroke="#000000" points="1029,-73 1029,-92 1162,-92 1162,-73 1029,-73"/>
<text text-anchor="middle" x="1095.5" y="-80" font-family="Helvetica,sans-Serif" font-size="10.00" fill="#000000">graf3d/gl/src/TH2GL.cxx</text>
</a>
</g>
</g>
<!-- Node61&#45;&gt;Node64 -->
<g id="edge18" class="edge">
<title>Node61&#45;&gt;Node64</title>
<path fill="none" stroke="#191970" d="M830.1776,-137.8788C892.3754,-124.8967 991.9013,-104.1234 1049.7473,-92.0496"/>
<polygon fill="#191970" stroke="#191970" points="829.2245,-134.5022 820.1506,-139.9717 830.6548,-141.3546 829.2245,-134.5022"/>
</g>
<!-- Node65 -->
<g id="node16" class="node">
<title>Node65</title>
<g id="a_node16"><a xlink:href="TH3GL_8cxx.html" target="_top" xlink:title="graf3d/gl/src/TH3GL.cxx">
<polygon fill="#ffffff" stroke="#000000" points="1180,-73 1180,-92 1313,-92 1313,-73 1180,-73"/>
<text text-anchor="middle" x="1246.5" y="-80" font-family="Helvetica,sans-Serif" font-size="10.00" fill="#000000">graf3d/gl/src/TH3GL.cxx</text>
</a>
</g>
</g>
<!-- Node61&#45;&gt;Node65 -->
<g id="edge19" class="edge">
<title>Node61&#45;&gt;Node65</title>
<path fill="none" stroke="#191970" d="M863.2112,-139.9161C943.8536,-130.7475 1066.0036,-115.7184 1171.5,-98 1181.7276,-96.2822 1192.6854,-94.1723 1202.9789,-92.0686"/>
<polygon fill="#191970" stroke="#191970" points="862.6396,-136.4583 853.0964,-141.0601 863.4264,-143.414 862.6396,-136.4583"/>
</g>
</g>
</svg>
        <g id="navigator" transform="translate(0 0)" fill="#404254">
                <rect fill="#f2f5e9" fill-opacity="0.5" stroke="#606060" stroke-width=".5" x="0" y="0" width="60" height="60"/>
                <use id="zoomplus" xlink:href="#zoomPlus" x="17" y="9" onmousedown="handleZoom(evt,'in')"/>
                <use id="zoomminus" xlink:href="#zoomMin" x="42" y="9" onmousedown="handleZoom(evt,'out')"/>
                <use id="reset" xlink:href="#resetDef" x="30" y="36" onmousedown="handleReset()"/>
                <g id="arrowUp" xlink:href="#dirArrow" transform="translate(30 24)" onmousedown="handlePan(0,-1)">
                  <use xlink:href="#rim" fill="#404040">
                        <set attributeName="fill" to="#808080" begin="arrowUp.mouseover" end="arrowUp.mouseout"/>
                  </use>
                  <path fill="none" stroke="white" stroke-width="1.5" d="M0,-3.0v7 M-2.5,-0.5L0,-3.0L2.5,-0.5"/>
                </g>
                <g id="arrowRight" xlink:href="#dirArrow" transform="rotate(90) translate(36 -43)" onmousedown="handlePan(1,0)">
                  <use xlink:href="#rim" fill="#404040">
                        <set attributeName="fill" to="#808080" begin="arrowRight.mouseover" end="arrowRight.mouseout"/>
                  </use>
                  <path fill="none" stroke="white" stroke-width="1.5" d="M0,-3.0v7 M-2.5,-0.5L0,-3.0L2.5,-0.5"/>
                </g>
                <g id="arrowDown" xlink:href="#dirArrow" transform="rotate(180) translate(-30 -48)" onmousedown="handlePan(0,1)">
                  <use xlink:href="#rim" fill="#404040">
                        <set attributeName="fill" to="#808080" begin="arrowDown.mouseover" end="arrowDown.mouseout"/>
                  </use>
                  <path fill="none" stroke="white" stroke-width="1.5" d="M0,-3.0v7 M-2.5,-0.5L0,-3.0L2.5,-0.5"/>
                </g>
                <g id="arrowLeft" xlink:href="#dirArrow" transform="rotate(270) translate(-36 17)" onmousedown="handlePan(-1,0)">
                  <use xlink:href="#rim" fill="#404040">
                        <set attributeName="fill" to="#808080" begin="arrowLeft.mouseover" end="arrowLeft.mouseout"/>
                  </use>
                  <path fill="none" stroke="white" stroke-width="1.5" d="M0,-3.0v7 M-2.5,-0.5L0,-3.0L2.5,-0.5"/>
                </g>
        </g>
        <svg viewBox="0 0 15 15" width="100%" height="30px" preserveAspectRatio="xMaxYMin meet">
         <g id="arrow_out" transform="scale(0.3 0.3)">
          <a xlink:href="TGLIsoMesh_8h__dep__incl_org.svg" target="_base">
           <rect id="button" ry="5" rx="5" y="6" x="6" height="38" width="38"
                fill="#f2f5e9" fill-opacity="0.5" stroke="#606060" stroke-width="1.0"/>
           <path id="arrow"
             d="M 11.500037,31.436501 C 11.940474,20.09759 22.043105,11.32322 32.158766,21.979434 L 37.068811,17.246167 C 37.068811,17.246167 37.088388,32 37.088388,32 L 22.160133,31.978069 C 22.160133,31.978069 26.997745,27.140456 26.997745,27.140456 C 18.528582,18.264221 13.291696,25.230495 11.500037,31.436501 z"
             style="fill:#404040;"/>
          </a>
         </g>
        </svg>
</svg>
