<?xml version="1.0" encoding="UTF-8" standalone="no"?>
<!DOCTYPE svg PUBLIC "-//W3C//DTD SVG 1.1//EN"
 "http://www.w3.org/Graphics/SVG/1.1/DTD/svg11.dtd">
<!-- Generated by graphviz version 2.40.1 (0)
 -->
<!-- Title: graf3d/gl/inc/TGLLegoPainter.h Pages: 1 -->
<svg width="677pt" height="84pt"
 viewBox="0.00 0.00 676.50 84.00" xmlns="http://www.w3.org/2000/svg" xmlns:xlink="http://www.w3.org/1999/xlink">
<g id="graph0" class="graph" transform="scale(1 1) rotate(0) translate(4 80)">
<title>graf3d/gl/inc/TGLLegoPainter.h</title>
<polygon fill="#ffffff" stroke="transparent" points="-4,4 -4,-80 672.5,-80 672.5,4 -4,4"/>
<!-- Node56 -->
<g id="node1" class="node">
<title>Node56</title>
<polygon fill="#bfbfbf" stroke="#000000" points="282,-56.5 282,-75.5 446,-75.5 446,-56.5 282,-56.5"/>
<text text-anchor="middle" x="364" y="-63.5" font-family="Helvetica,sans-Serif" font-size="10.00" fill="#000000">graf3d/gl/inc/TGLLegoPainter.h</text>
</g>
<!-- Node57 -->
<g id="node2" class="node">
<title>Node57</title>
<g id="a_node2"><a xlink:href="TGLHistPainter_8cxx.html" target="_top" xlink:title="graf3d/gl/src/TGLHistPainter.cxx">
<polygon fill="#ffffff" stroke="#000000" points="0,-.5 0,-19.5 172,-19.5 172,-.5 0,-.5"/>
<text text-anchor="middle" x="86" y="-7.5" font-family="Helvetica,sans-Serif" font-size="10.00" fill="#000000">graf3d/gl/src/TGLHistPainter.cxx</text>
</a>
</g>
</g>
<!-- Node56&#45;&gt;Node57 -->
<g id="edge1" class="edge">
<title>Node56&#45;&gt;Node57</title>
<path fill="none" stroke="#191970" d="M306.5959,-54.4366C255.3453,-44.1127 181.1842,-29.1738 133.2782,-19.5237"/>
<polygon fill="#191970" stroke="#191970" points="306.0317,-57.8932 316.526,-56.4369 307.4141,-51.031 306.0317,-57.8932"/>
</g>
<!-- Node58 -->
<g id="node3" class="node">
<title>Node58</title>
<g id="a_node3"><a xlink:href="TGLLegoPainter_8cxx.html" target="_top" xlink:title="graf3d/gl/src/TGLLegoPainter.cxx">
<polygon fill="#ffffff" stroke="#000000" points="190,-.5 190,-19.5 366,-19.5 366,-.5 190,-.5"/>
<text text-anchor="middle" x="278" y="-7.5" font-family="Helvetica,sans-Serif" font-size="10.00" fill="#000000">graf3d/gl/src/TGLLegoPainter.cxx</text>
</a>
</g>
</g>
<!-- Node56&#45;&gt;Node58 -->
<g id="edge2" class="edge">
<title>Node56&#45;&gt;Node58</title>
<path fill="none" stroke="#191970" d="M340.6095,-50.769C325.3701,-40.8456 305.9491,-28.1994 292.8084,-19.6427"/>
<polygon fill="#191970" stroke="#191970" points="338.7301,-53.7218 349.0199,-56.2455 342.5498,-47.8558 338.7301,-53.7218"/>
</g>
<!-- Node59 -->
<g id="node4" class="node">
<title>Node59</title>
<g id="a_node4"><a xlink:href="TH2GL_8cxx.html" target="_top" xlink:title="graf3d/gl/src/TH2GL.cxx">
<polygon fill="#ffffff" stroke="#000000" points="384.5,-.5 384.5,-19.5 517.5,-19.5 517.5,-.5 384.5,-.5"/>
<text text-anchor="middle" x="451" y="-7.5" font-family="Helvetica,sans-Serif" font-size="10.00" fill="#000000">graf3d/gl/src/TH2GL.cxx</text>
</a>
</g>
</g>
<!-- Node56&#45;&gt;Node59 -->
<g id="edge3" class="edge">
<title>Node56&#45;&gt;Node59</title>
<path fill="none" stroke="#191970" d="M387.6625,-50.769C403.0791,-40.8456 422.726,-28.1994 436.0194,-19.6427"/>
<polygon fill="#191970" stroke="#191970" points="385.6685,-47.89 379.1542,-56.2455 389.4573,-53.7761 385.6685,-47.89"/>
</g>
<!-- Node60 -->
<g id="node5" class="node">
<title>Node60</title>
<g id="a_node5"><a xlink:href="TH3GL_8cxx.html" target="_top" xlink:title="graf3d/gl/src/TH3GL.cxx">
<polygon fill="#ffffff" stroke="#000000" points="535.5,-.5 535.5,-19.5 668.5,-19.5 668.5,-.5 535.5,-.5"/>
<text text-anchor="middle" x="602" y="-7.5" font-family="Helvetica,sans-Serif" font-size="10.00" fill="#000000">graf3d/gl/src/TH3GL.cxx</text>
</a>
</g>
</g>
<!-- Node56&#45;&gt;Node60 -->
<g id="edge4" class="edge">
<title>Node56&#45;&gt;Node60</title>
<path fill="none" stroke="#191970" d="M414.522,-54.1125C458.3412,-43.8021 520.9386,-29.0733 561.5244,-19.5237"/>
<polygon fill="#191970" stroke="#191970" points="413.5757,-50.7395 404.6432,-56.4369 415.1791,-57.5534 413.5757,-50.7395"/>
</g>
</g>
</svg>
