<?xml version="1.0" encoding="UTF-8" standalone="no"?>
<!DOCTYPE svg PUBLIC "-//W3C//DTD SVG 1.1//EN"
 "http://www.w3.org/Graphics/SVG/1.1/DTD/svg11.dtd">
<!-- Generated by graphviz version 2.40.1 (0)
 -->
<!-- Title: graf3d/gl/inc/TGLParametricEquationGL.h Pages: 1 -->
<svg width="330pt" height="106pt"
 viewBox="0.00 0.00 330.00 106.00" xmlns="http://www.w3.org/2000/svg" xmlns:xlink="http://www.w3.org/1999/xlink">
<g id="graph0" class="graph" transform="scale(1 1) rotate(0) translate(4 102)">
<title>graf3d/gl/inc/TGLParametricEquationGL.h</title>
<polygon fill="#ffffff" stroke="transparent" points="-4,4 -4,-102 326,-102 326,4 -4,4"/>
<!-- Node66 -->
<g id="node1" class="node">
<title>Node66</title>
<polygon fill="#bfbfbf" stroke="#000000" points="85,-67.5 85,-97.5 237,-97.5 237,-67.5 85,-67.5"/>
<text text-anchor="start" x="93" y="-85.5" font-family="Helvetica,sans-Serif" font-size="10.00" fill="#000000">graf3d/gl/inc/TGLParametric</text>
<text text-anchor="middle" x="161" y="-74.5" font-family="Helvetica,sans-Serif" font-size="10.00" fill="#000000">EquationGL.h</text>
</g>
<!-- Node67 -->
<g id="node2" class="node">
<title>Node67</title>
<g id="a_node2"><a xlink:href="TGLParametricEquationGL_8cxx.html" target="_top" xlink:title="graf3d/gl/src/TGLParametric\lEquationGL.cxx">
<polygon fill="#ffffff" stroke="#000000" points="0,-.5 0,-30.5 152,-30.5 152,-.5 0,-.5"/>
<text text-anchor="start" x="8" y="-18.5" font-family="Helvetica,sans-Serif" font-size="10.00" fill="#000000">graf3d/gl/src/TGLParametric</text>
<text text-anchor="middle" x="76" y="-7.5" font-family="Helvetica,sans-Serif" font-size="10.00" fill="#000000">EquationGL.cxx</text>
</a>
</g>
</g>
<!-- Node66&#45;&gt;Node67 -->
<g id="edge1" class="edge">
<title>Node66&#45;&gt;Node67</title>
<path fill="none" stroke="#191970" d="M133.8055,-61.0643C121.2374,-51.1577 106.6083,-39.6265 95.2115,-30.6432"/>
<polygon fill="#191970" stroke="#191970" points="131.6919,-63.8549 141.7122,-67.2967 136.0253,-58.3574 131.6919,-63.8549"/>
</g>
<!-- Node68 -->
<g id="node3" class="node">
<title>Node68</title>
<g id="a_node3"><a xlink:href="TGLPlot3D_8cxx.html" target="_top" xlink:title="graf3d/gl/src/TGLPlot3D.cxx">
<polygon fill="#ffffff" stroke="#000000" points="170,-6 170,-25 322,-25 322,-6 170,-6"/>
<text text-anchor="middle" x="246" y="-13" font-family="Helvetica,sans-Serif" font-size="10.00" fill="#000000">graf3d/gl/src/TGLPlot3D.cxx</text>
</a>
</g>
</g>
<!-- Node66&#45;&gt;Node68 -->
<g id="edge2" class="edge">
<title>Node66&#45;&gt;Node68</title>
<path fill="none" stroke="#191970" d="M188.4325,-60.8767C203.758,-48.7967 222.0861,-34.3498 233.878,-25.055"/>
<polygon fill="#191970" stroke="#191970" points="185.9747,-58.3574 180.2878,-67.2967 190.3081,-63.8549 185.9747,-58.3574"/>
</g>
</g>
</svg>
