<?xml version="1.0" encoding="UTF-8" standalone="no"?>
<!DOCTYPE svg PUBLIC "-//W3C//DTD SVG 1.1//EN"
 "http://www.w3.org/Graphics/SVG/1.1/DTD/svg11.dtd">
<!-- Generated by graphviz version 2.40.1 (0)
 -->
<!-- Title: graf3d/gl/src/TGLSelectBuffer.cxx Pages: 1 -->
<!--zoomable 476 -->
<svg id="main" version="1.1" xmlns="http://www.w3.org/2000/svg" xmlns:xlink="http://www.w3.org/1999/xlink" xml:space="preserve" onload="init(evt)">
<style type="text/css"><![CDATA[
.edge:hover path { stroke: red; }
.edge:hover polygon { stroke: red; fill: red; }
]]></style>
<script type="text/javascript"><![CDATA[
var edges = document.getElementsByTagName('g');
if (edges && edges.length) {
  for (var i=0;i<edges.length;i++) {
    if (edges[i].id.substr(0,4)=='edge') {
      edges[i].setAttribute('class','edge');
    }
  }
}
]]></script>
        <defs>
                <circle id="rim" cx="0" cy="0" r="7"/>
                <circle id="rim2" cx="0" cy="0" r="3.5"/>
                <g id="zoomPlus">
                        <use xlink:href="#rim" fill="#404040">
                                <set attributeName="fill" to="#808080" begin="zoomplus.mouseover" end="zoomplus.mouseout"/>
                        </use>
                        <path d="M-4,0h8M0,-4v8" fill="none" stroke="white" stroke-width="1.5" pointer-events="none"/>
                </g>
                <g id="zoomMin">
                        <use xlink:href="#rim" fill="#404040">
                                <set attributeName="fill" to="#808080" begin="zoomminus.mouseover" end="zoomminus.mouseout"/>
                        </use>
                        <path d="M-4,0h8" fill="none" stroke="white" stroke-width="1.5" pointer-events="none"/>
                </g>
                <g id="dirArrow">
                        <path fill="none" stroke="white" stroke-width="1.5" d="M0,-3.0v7 M-2.5,-0.5L0,-3.0L2.5,-0.5"/>
                </g>
               <g id="resetDef">
                       <use xlink:href="#rim2" fill="#404040">
                               <set attributeName="fill" to="#808080" begin="reset.mouseover" end="reset.mouseout"/>
                       </use>
               </g>
        </defs>

<script type="text/javascript">
var viewWidth = 833;
var viewHeight = 476;
var sectionId = 'dynsection-0';
</script>
<script xlink:href="svgpan.js"/>
<svg id="graph" class="graph">
<g id="viewport">
<title>graf3d/gl/src/TGLSelectBuffer.cxx</title>
<polygon fill="#ffffff" stroke="transparent" points="-4,4 -4,-472 829.0921,-472 829.0921,4 -4,4"/>
<!-- Node0 -->
<g id="node1" class="node">
<title>Node0</title>
<polygon fill="#bfbfbf" stroke="#000000" points="389.5,-448.5 389.5,-467.5 567.5,-467.5 567.5,-448.5 389.5,-448.5"/>
<text text-anchor="middle" x="478.5" y="-455.5" font-family="Helvetica,sans-Serif" font-size="10.00" fill="#000000">graf3d/gl/src/TGLSelectBuffer.cxx</text>
</g>
<!-- Node1 -->
<g id="node2" class="node">
<title>Node1</title>
<g id="a_node2"><a xlink:href="TGLSelectBuffer_8h.html" target="_top" xlink:title="TGLSelectBuffer.h">
<polygon fill="#ffffff" stroke="#000000" points="219,-336.5 219,-355.5 322,-355.5 322,-336.5 219,-336.5"/>
<text text-anchor="middle" x="270.5" y="-343.5" font-family="Helvetica,sans-Serif" font-size="10.00" fill="#000000">TGLSelectBuffer.h</text>
</a>
</g>
</g>
<!-- Node0&#45;&gt;Node1 -->
<g id="edge1" class="edge">
<title>Node0&#45;&gt;Node1</title>
<path fill="none" stroke="#191970" d="M450.3197,-448.4941C426.9718,-440.1592 393.2435,-427.0445 365.5,-412 338.2196,-397.2066 309.2591,-376.2247 290.5867,-361.9155"/>
<polygon fill="#191970" stroke="#191970" points="292.5833,-359.0346 282.5369,-355.6701 288.2924,-364.5653 292.5833,-359.0346"/>
</g>
<!-- Node22 -->
<g id="node23" class="node">
<title>Node22</title>
<g id="a_node23"><a xlink:href="TGLSelectRecord_8h.html" target="_top" xlink:title="TGLSelectRecord.h">
<polygon fill="#ffffff" stroke="#000000" points="375,-392.5 375,-411.5 482,-411.5 482,-392.5 375,-392.5"/>
<text text-anchor="middle" x="428.5" y="-399.5" font-family="Helvetica,sans-Serif" font-size="10.00" fill="#000000">TGLSelectRecord.h</text>
</a>
</g>
</g>
<!-- Node0&#45;&gt;Node22 -->
<g id="edge28" class="edge">
<title>Node0&#45;&gt;Node22</title>
<path fill="none" stroke="#191970" d="M469.7907,-448.2455C462.6927,-440.2958 452.4916,-428.8706 444.005,-419.3656"/>
<polygon fill="#191970" stroke="#191970" points="446.3805,-416.771 437.1095,-411.6427 441.1589,-421.4331 446.3805,-416.771"/>
</g>
<!-- Node23 -->
<g id="node24" class="node">
<title>Node23</title>
<g id="a_node24"><a xlink:href="TMath_8h.html" target="_top" xlink:title="TMath.h">
<polygon fill="#ffffff" stroke="#000000" points="514.5,-392.5 514.5,-411.5 570.5,-411.5 570.5,-392.5 514.5,-392.5"/>
<text text-anchor="middle" x="542.5" y="-399.5" font-family="Helvetica,sans-Serif" font-size="10.00" fill="#000000">TMath.h</text>
</a>
</g>
</g>
<!-- Node0&#45;&gt;Node23 -->
<g id="edge30" class="edge">
<title>Node0&#45;&gt;Node23</title>
<path fill="none" stroke="#191970" d="M489.6479,-448.2455C499.0087,-440.0549 512.5858,-428.1749 523.6349,-418.5069"/>
<polygon fill="#191970" stroke="#191970" points="526.2588,-420.8618 531.4798,-411.6427 521.6492,-415.5937 526.2588,-420.8618"/>
</g>
<!-- Node27 -->
<g id="node28" class="node">
<title>Node27</title>
<polygon fill="#ffffff" stroke="#bfbfbf" points="736.5,-280.5 736.5,-299.5 800.5,-299.5 800.5,-280.5 736.5,-280.5"/>
<text text-anchor="middle" x="768.5" y="-287.5" font-family="Helvetica,sans-Serif" font-size="10.00" fill="#000000">algorithm</text>
</g>
<!-- Node0&#45;&gt;Node27 -->
<g id="edge44" class="edge">
<title>Node0&#45;&gt;Node27</title>
<path fill="none" stroke="#191970" d="M522.5961,-448.486C595.1903,-431.8617 734.8127,-395.5112 764.5,-356 774.2939,-342.9651 774.4516,-324.0783 772.6509,-309.8453"/>
<polygon fill="#191970" stroke="#191970" points="776.0429,-308.9105 770.9335,-299.6291 769.1398,-310.071 776.0429,-308.9105"/>
</g>
<!-- Node2 -->
<g id="node3" class="node">
<title>Node2</title>
<g id="a_node3"><a xlink:href="Rtypes_8h.html" target="_top" xlink:title="Rtypes.h">
<polygon fill="#ffffff" stroke="#000000" points="359,-280.5 359,-299.5 418,-299.5 418,-280.5 359,-280.5"/>
<text text-anchor="middle" x="388.5" y="-287.5" font-family="Helvetica,sans-Serif" font-size="10.00" fill="#000000">Rtypes.h</text>
</a>
</g>
</g>
<!-- Node1&#45;&gt;Node2 -->
<g id="edge2" class="edge">
<title>Node1&#45;&gt;Node2</title>
<path fill="none" stroke="#191970" d="M290.7849,-336.3733C309.6421,-327.4241 337.946,-313.9917 359.2455,-303.8835"/>
<polygon fill="#191970" stroke="#191970" points="360.9461,-306.9506 368.4798,-299.5011 357.9449,-300.6266 360.9461,-306.9506"/>
</g>
<!-- Node17 -->
<g id="node18" class="node">
<title>Node17</title>
<polygon fill="#ffffff" stroke="#bfbfbf" points="0,-168.5 0,-187.5 47,-187.5 47,-168.5 0,-168.5"/>
<text text-anchor="middle" x="23.5" y="-175.5" font-family="Helvetica,sans-Serif" font-size="10.00" fill="#000000">vector</text>
</g>
<!-- Node1&#45;&gt;Node17 -->
<g id="edge27" class="edge">
<title>Node1&#45;&gt;Node17</title>
<path fill="none" stroke="#191970" d="M222.5704,-336.4926C171.4773,-323.9232 91.5878,-296.8882 44.5,-244 33.1435,-231.2446 27.9243,-212.3271 25.528,-198.0114"/>
<polygon fill="#191970" stroke="#191970" points="28.9464,-197.1687 24.1481,-187.7227 22.0085,-198.0993 28.9464,-197.1687"/>
</g>
<!-- Node3 -->
<g id="node4" class="node">
<title>Node3</title>
<g id="a_node4"><a xlink:href="RtypesCore_8h.html" target="_top" xlink:title="RtypesCore.h">
<polygon fill="#ffffff" stroke="#000000" points="155.5,-112.5 155.5,-131.5 237.5,-131.5 237.5,-112.5 155.5,-112.5"/>
<text text-anchor="middle" x="196.5" y="-119.5" font-family="Helvetica,sans-Serif" font-size="10.00" fill="#000000">RtypesCore.h</text>
</a>
</g>
</g>
<!-- Node2&#45;&gt;Node3 -->
<g id="edge3" class="edge">
<title>Node2&#45;&gt;Node3</title>
<path fill="none" stroke="#191970" d="M358.9498,-287.8459C326.3667,-284.0201 274.117,-273.4093 240.5,-244 210.399,-217.6666 200.8863,-169.1422 197.883,-141.8986"/>
<polygon fill="#191970" stroke="#191970" points="201.3428,-141.2952 196.9534,-131.6524 194.3714,-141.9278 201.3428,-141.2952"/>
</g>
<!-- Node8 -->
<g id="node9" class="node">
<title>Node8</title>
<g id="a_node9"><a xlink:href="DllImport_8h.html" target="_top" xlink:title="DllImport.h">
<polygon fill="#ffffff" stroke="#000000" points="353,-224.5 353,-243.5 424,-243.5 424,-224.5 353,-224.5"/>
<text text-anchor="middle" x="388.5" y="-231.5" font-family="Helvetica,sans-Serif" font-size="10.00" fill="#000000">DllImport.h</text>
</a>
</g>
</g>
<!-- Node2&#45;&gt;Node8 -->
<g id="edge8" class="edge">
<title>Node2&#45;&gt;Node8</title>
<path fill="none" stroke="#191970" d="M388.5,-280.2455C388.5,-272.9382 388.5,-262.6944 388.5,-253.7046"/>
<polygon fill="#191970" stroke="#191970" points="392.0001,-253.6426 388.5,-243.6427 385.0001,-253.6427 392.0001,-253.6426"/>
</g>
<!-- Node9 -->
<g id="node10" class="node">
<title>Node9</title>
<polygon fill="#ffffff" stroke="#bfbfbf" points="442.5,-224.5 442.5,-243.5 504.5,-243.5 504.5,-224.5 442.5,-224.5"/>
<text text-anchor="middle" x="473.5" y="-231.5" font-family="Helvetica,sans-Serif" font-size="10.00" fill="#000000">snprintf.h</text>
</g>
<!-- Node2&#45;&gt;Node9 -->
<g id="edge9" class="edge">
<title>Node2&#45;&gt;Node9</title>
<path fill="none" stroke="#191970" d="M403.3059,-280.2455C416.2256,-271.7337 435.1931,-259.2375 450.1552,-249.3801"/>
<polygon fill="#191970" stroke="#191970" points="452.4387,-252.067 458.8638,-243.6427 448.5876,-246.2216 452.4387,-252.067"/>
</g>
<!-- Node10 -->
<g id="node11" class="node">
<title>Node10</title>
<polygon fill="#ffffff" stroke="#bfbfbf" points="523,-224.5 523,-243.5 580,-243.5 580,-224.5 523,-224.5"/>
<text text-anchor="middle" x="551.5" y="-231.5" font-family="Helvetica,sans-Serif" font-size="10.00" fill="#000000">strlcpy.h</text>
</g>
<!-- Node2&#45;&gt;Node10 -->
<g id="edge10" class="edge">
<title>Node2&#45;&gt;Node10</title>
<path fill="none" stroke="#191970" d="M416.5207,-280.3733C443.5078,-271.1016 484.5017,-257.0178 514.2311,-246.804"/>
<polygon fill="#191970" stroke="#191970" points="515.5248,-250.0605 523.8449,-243.5011 513.2503,-243.4403 515.5248,-250.0605"/>
</g>
<!-- Node11 -->
<g id="node12" class="node">
<title>Node11</title>
<polygon fill="#ffffff" stroke="#bfbfbf" points="223.5,-168.5 223.5,-187.5 273.5,-187.5 273.5,-168.5 223.5,-168.5"/>
<text text-anchor="middle" x="248.5" y="-175.5" font-family="Helvetica,sans-Serif" font-size="10.00" fill="#000000">atomic</text>
</g>
<!-- Node2&#45;&gt;Node11 -->
<g id="edge11" class="edge">
<title>Node2&#45;&gt;Node11</title>
<path fill="none" stroke="#191970" d="M358.6988,-283.9624C322.766,-276.0284 265.5545,-261.0805 252.5,-244 242.5993,-231.046 242.4534,-212.1503 244.2857,-197.8933"/>
<polygon fill="#191970" stroke="#191970" points="247.8005,-198.1022 246.0307,-187.6562 240.9,-196.9258 247.8005,-198.1022"/>
</g>
<!-- Node12 -->
<g id="node13" class="node">
<title>Node12</title>
<polygon fill="#ffffff" stroke="#bfbfbf" points="598.5,-224.5 598.5,-243.5 648.5,-243.5 648.5,-224.5 598.5,-224.5"/>
<text text-anchor="middle" x="623.5" y="-231.5" font-family="Helvetica,sans-Serif" font-size="10.00" fill="#000000">stdio.h</text>
</g>
<!-- Node2&#45;&gt;Node12 -->
<g id="edge12" class="edge">
<title>Node2&#45;&gt;Node12</title>
<path fill="none" stroke="#191970" d="M418.2859,-282.257C421.3938,-281.4807 424.5089,-280.7156 427.5,-280 496.1497,-263.5756 516.3624,-262.4834 588.2912,-244.188"/>
<polygon fill="#191970" stroke="#191970" points="589.4866,-247.4946 598.3014,-241.6167 587.7451,-240.7147 589.4866,-247.4946"/>
</g>
<!-- Node13 -->
<g id="node14" class="node">
<title>Node13</title>
<polygon fill="#ffffff" stroke="#bfbfbf" points="667,-224.5 667,-243.5 720,-243.5 720,-224.5 667,-224.5"/>
<text text-anchor="middle" x="693.5" y="-231.5" font-family="Helvetica,sans-Serif" font-size="10.00" fill="#000000">string.h</text>
</g>
<!-- Node2&#45;&gt;Node13 -->
<g id="edge13" class="edge">
<title>Node2&#45;&gt;Node13</title>
<path fill="none" stroke="#191970" d="M418.2423,-282.0612C421.3588,-281.323 424.4877,-280.6205 427.5,-280 525.7716,-259.7587 554.6389,-265.499 657.0394,-243.8794"/>
<polygon fill="#191970" stroke="#191970" points="657.8068,-247.2945 666.8491,-241.773 656.3372,-240.4505 657.8068,-247.2945"/>
</g>
<!-- Node14 -->
<g id="node15" class="node">
<title>Node14</title>
<polygon fill="#ffffff" stroke="#bfbfbf" points="630,-168.5 630,-187.5 687,-187.5 687,-168.5 630,-168.5"/>
<text text-anchor="middle" x="658.5" y="-175.5" font-family="Helvetica,sans-Serif" font-size="10.00" fill="#000000">typeinfo</text>
</g>
<!-- Node2&#45;&gt;Node14 -->
<g id="edge14" class="edge">
<title>Node2&#45;&gt;Node14</title>
<path fill="none" stroke="#191970" d="M418.2052,-281.8654C421.3289,-281.1654 424.4697,-280.5253 427.5,-280 470.2691,-272.5861 787.2551,-276.0764 816.5,-244 853.3617,-203.5694 755.5589,-187.1596 697.6669,-181.129"/>
<polygon fill="#191970" stroke="#191970" points="697.6566,-177.6114 687.3631,-180.1203 696.9745,-184.5781 697.6566,-177.6114"/>
</g>
<!-- Node15 -->
<g id="node16" class="node">
<title>Node15</title>
<polygon fill="#ffffff" stroke="#bfbfbf" points="738,-224.5 738,-243.5 807,-243.5 807,-224.5 738,-224.5"/>
<text text-anchor="middle" x="772.5" y="-231.5" font-family="Helvetica,sans-Serif" font-size="10.00" fill="#000000">type_traits</text>
</g>
<!-- Node2&#45;&gt;Node15 -->
<g id="edge15" class="edge">
<title>Node2&#45;&gt;Node15</title>
<path fill="none" stroke="#191970" d="M418.22,-281.9475C421.3408,-281.2315 424.4768,-280.5652 427.5,-280 557.1264,-255.7653 594.5436,-266.7715 727.657,-244.1678"/>
<polygon fill="#191970" stroke="#191970" points="728.5766,-247.5607 737.8333,-242.4066 727.3829,-240.6633 728.5766,-247.5607"/>
</g>
<!-- Node16 -->
<g id="node17" class="node">
<title>Node16</title>
<g id="a_node17"><a xlink:href="TGenericClassInfo_8h.html" target="_top" xlink:title="TGenericClassInfo.h">
<polygon fill="#ffffff" stroke="#000000" points="53.5,-224.5 53.5,-243.5 167.5,-243.5 167.5,-224.5 53.5,-224.5"/>
<text text-anchor="middle" x="110.5" y="-231.5" font-family="Helvetica,sans-Serif" font-size="10.00" fill="#000000">TGenericClassInfo.h</text>
</a>
</g>
</g>
<!-- Node2&#45;&gt;Node16 -->
<g id="edge16" class="edge">
<title>Node2&#45;&gt;Node16</title>
<path fill="none" stroke="#191970" d="M358.9956,-284.8819C312.1841,-276.0434 220.6613,-257.7079 162.6475,-245.6321"/>
<polygon fill="#191970" stroke="#191970" points="163.0816,-242.1473 152.5771,-243.528 161.6499,-248.9993 163.0816,-242.1473"/>
</g>
<!-- Node20 -->
<g id="node21" class="node">
<title>Node20</title>
<g id="a_node21"><a xlink:href="TIsAProxy_8h.html" target="_top" xlink:title="TIsAProxy.h">
<polygon fill="#ffffff" stroke="#000000" points="262,-224.5 262,-243.5 335,-243.5 335,-224.5 262,-224.5"/>
<text text-anchor="middle" x="298.5" y="-231.5" font-family="Helvetica,sans-Serif" font-size="10.00" fill="#000000">TIsAProxy.h</text>
</a>
</g>
</g>
<!-- Node2&#45;&gt;Node20 -->
<g id="edge22" class="edge">
<title>Node2&#45;&gt;Node20</title>
<path fill="none" stroke="#191970" d="M372.8232,-280.2455C359.0144,-271.6534 338.6807,-259.0014 322.7708,-249.1018"/>
<polygon fill="#191970" stroke="#191970" points="324.3368,-245.954 313.9972,-243.6427 320.6387,-251.8974 324.3368,-245.954"/>
</g>
<!-- Node4 -->
<g id="node5" class="node">
<title>Node4</title>
<g id="a_node5"><a xlink:href="RConfig_8hxx.html" target="_top" xlink:title="ROOT/RConfig.hxx">
<polygon fill="#ffffff" stroke="#000000" points="94,-56.5 94,-75.5 199,-75.5 199,-56.5 94,-56.5"/>
<text text-anchor="middle" x="146.5" y="-63.5" font-family="Helvetica,sans-Serif" font-size="10.00" fill="#000000">ROOT/RConfig.hxx</text>
</a>
</g>
</g>
<!-- Node3&#45;&gt;Node4 -->
<g id="edge4" class="edge">
<title>Node3&#45;&gt;Node4</title>
<path fill="none" stroke="#191970" d="M187.7907,-112.2455C180.6927,-104.2958 170.4916,-92.8706 162.005,-83.3656"/>
<polygon fill="#191970" stroke="#191970" points="164.3805,-80.771 155.1095,-75.6427 159.1589,-85.4331 164.3805,-80.771"/>
</g>
<!-- Node7 -->
<g id="node8" class="node">
<title>Node7</title>
<polygon fill="#ffffff" stroke="#bfbfbf" points="217.5,-56.5 217.5,-75.5 273.5,-75.5 273.5,-56.5 217.5,-56.5"/>
<text text-anchor="middle" x="245.5" y="-63.5" font-family="Helvetica,sans-Serif" font-size="10.00" fill="#000000">stddef.h</text>
</g>
<!-- Node3&#45;&gt;Node7 -->
<g id="edge7" class="edge">
<title>Node3&#45;&gt;Node7</title>
<path fill="none" stroke="#191970" d="M205.0351,-112.2455C211.9912,-104.2958 221.9883,-92.8706 230.3051,-83.3656"/>
<polygon fill="#191970" stroke="#191970" points="233.1116,-85.4732 237.0627,-75.6427 227.8436,-80.8637 233.1116,-85.4732"/>
</g>
<!-- Node5 -->
<g id="node6" class="node">
<title>Node5</title>
<g id="a_node6"><a xlink:href="RVersion_8h.html" target="_top" xlink:title="../RVersion.h">
<polygon fill="#ffffff" stroke="#000000" points="60,-.5 60,-19.5 137,-19.5 137,-.5 60,-.5"/>
<text text-anchor="middle" x="98.5" y="-7.5" font-family="Helvetica,sans-Serif" font-size="10.00" fill="#000000">../RVersion.h</text>
</a>
</g>
</g>
<!-- Node4&#45;&gt;Node5 -->
<g id="edge5" class="edge">
<title>Node4&#45;&gt;Node5</title>
<path fill="none" stroke="#191970" d="M138.139,-56.2455C131.325,-48.2958 121.5319,-36.8706 113.3848,-27.3656"/>
<polygon fill="#191970" stroke="#191970" points="115.9305,-24.9575 106.7651,-19.6427 110.6157,-29.513 115.9305,-24.9575"/>
</g>
<!-- Node6 -->
<g id="node7" class="node">
<title>Node6</title>
<polygon fill="#ffffff" stroke="#bfbfbf" points="155.5,-.5 155.5,-19.5 233.5,-19.5 233.5,-.5 155.5,-.5"/>
<text text-anchor="middle" x="194.5" y="-7.5" font-family="Helvetica,sans-Serif" font-size="10.00" fill="#000000">RConfigure.h</text>
</g>
<!-- Node4&#45;&gt;Node6 -->
<g id="edge6" class="edge">
<title>Node4&#45;&gt;Node6</title>
<path fill="none" stroke="#191970" d="M154.861,-56.2455C161.675,-48.2958 171.4681,-36.8706 179.6152,-27.3656"/>
<polygon fill="#191970" stroke="#191970" points="182.3843,-29.513 186.2349,-19.6427 177.0695,-24.9575 182.3843,-29.513"/>
</g>
<!-- Node16&#45;&gt;Node2 -->
<g id="edge21" class="edge">
<title>Node16&#45;&gt;Node2</title>
<path fill="none" stroke="#191970" d="M163.0115,-243.5259C217.1037,-254.0049 300.0393,-270.7184 348.8801,-280.9881"/>
<polygon fill="#191970" stroke="#191970" points="348.2543,-284.4331 358.762,-283.0771 349.7022,-277.5844 348.2543,-284.4331"/>
</g>
<!-- Node16&#45;&gt;Node17 -->
<g id="edge17" class="edge">
<title>Node16&#45;&gt;Node17</title>
<path fill="none" stroke="#191970" d="M95.3458,-224.2455C81.9973,-215.6534 62.3414,-203.0014 46.9617,-193.1018"/>
<polygon fill="#191970" stroke="#191970" points="48.7836,-190.1121 38.4806,-187.6427 44.9949,-195.9982 48.7836,-190.1121"/>
</g>
<!-- Node18 -->
<g id="node19" class="node">
<title>Node18</title>
<g id="a_node19"><a xlink:href="TSchemaHelper_8h.html" target="_top" xlink:title="TSchemaHelper.h">
<polygon fill="#ffffff" stroke="#000000" points="65.5,-168.5 65.5,-187.5 167.5,-187.5 167.5,-168.5 65.5,-168.5"/>
<text text-anchor="middle" x="116.5" y="-175.5" font-family="Helvetica,sans-Serif" font-size="10.00" fill="#000000">TSchemaHelper.h</text>
</a>
</g>
</g>
<!-- Node16&#45;&gt;Node18 -->
<g id="edge18" class="edge">
<title>Node16&#45;&gt;Node18</title>
<path fill="none" stroke="#191970" d="M111.5451,-224.2455C112.328,-216.9382 113.4256,-206.6944 114.3888,-197.7046"/>
<polygon fill="#191970" stroke="#191970" points="117.8815,-197.9587 115.4669,-187.6427 110.9214,-197.2129 117.8815,-197.9587"/>
</g>
<!-- Node18&#45;&gt;Node3 -->
<g id="edge19" class="edge">
<title>Node18&#45;&gt;Node3</title>
<path fill="none" stroke="#191970" d="M130.4349,-168.2455C142.5947,-159.7337 160.4464,-147.2375 174.5285,-137.3801"/>
<polygon fill="#191970" stroke="#191970" points="176.5395,-140.2447 182.7248,-131.6427 172.5253,-134.51 176.5395,-140.2447"/>
</g>
<!-- Node19 -->
<g id="node20" class="node">
<title>Node19</title>
<polygon fill="#ffffff" stroke="#bfbfbf" points="93.5,-112.5 93.5,-131.5 137.5,-131.5 137.5,-112.5 93.5,-112.5"/>
<text text-anchor="middle" x="115.5" y="-119.5" font-family="Helvetica,sans-Serif" font-size="10.00" fill="#000000">string</text>
</g>
<!-- Node18&#45;&gt;Node19 -->
<g id="edge20" class="edge">
<title>Node18&#45;&gt;Node19</title>
<path fill="none" stroke="#191970" d="M116.3258,-168.2455C116.1953,-160.9382 116.0124,-150.6944 115.8519,-141.7046"/>
<polygon fill="#191970" stroke="#191970" points="119.3503,-141.5786 115.6722,-131.6427 112.3514,-141.7036 119.3503,-141.5786"/>
</g>
<!-- Node20&#45;&gt;Node3 -->
<g id="edge24" class="edge">
<title>Node20&#45;&gt;Node3</title>
<path fill="none" stroke="#191970" d="M331.0513,-224.497C359.5474,-215.4418 397.7344,-201.2611 406.5,-188 411.4016,-180.5847 412.0725,-174.9253 406.5,-168 386.9511,-143.7054 303.45,-131.5278 247.8131,-125.9998"/>
<polygon fill="#191970" stroke="#191970" points="248.0572,-122.5073 237.7704,-125.0436 247.3936,-129.4758 248.0572,-122.5073"/>
</g>
<!-- Node20&#45;&gt;Node11 -->
<g id="edge25" class="edge">
<title>Node20&#45;&gt;Node11</title>
<path fill="none" stroke="#191970" d="M289.7907,-224.2455C282.6927,-216.2958 272.4916,-204.8706 264.005,-195.3656"/>
<polygon fill="#191970" stroke="#191970" points="266.3805,-192.771 257.1095,-187.6427 261.1589,-197.4331 266.3805,-192.771"/>
</g>
<!-- Node20&#45;&gt;Node14 -->
<g id="edge26" class="edge">
<title>Node20&#45;&gt;Node14</title>
<path fill="none" stroke="#191970" d="M335.292,-225.5924C338.0647,-225.0298 340.8238,-224.4921 343.5,-224 442.4657,-205.8033 559.9924,-190.2224 619.6208,-182.7407"/>
<polygon fill="#191970" stroke="#191970" points="620.2284,-186.1921 629.7186,-181.4818 619.3624,-179.2459 620.2284,-186.1921"/>
</g>
<!-- Node21 -->
<g id="node22" class="node">
<title>Node21</title>
<g id="a_node22"><a xlink:href="TVirtualIsAProxy_8h.html" target="_top" xlink:title="TVirtualIsAProxy.h">
<polygon fill="#ffffff" stroke="#000000" points="292,-168.5 292,-187.5 397,-187.5 397,-168.5 292,-168.5"/>
<text text-anchor="middle" x="344.5" y="-175.5" font-family="Helvetica,sans-Serif" font-size="10.00" fill="#000000">TVirtualIsAProxy.h</text>
</a>
</g>
</g>
<!-- Node20&#45;&gt;Node21 -->
<g id="edge23" class="edge">
<title>Node20&#45;&gt;Node21</title>
<path fill="none" stroke="#191970" d="M306.5126,-224.2455C312.9768,-216.3761 322.2385,-205.101 329.9983,-195.6542"/>
<polygon fill="#191970" stroke="#191970" points="332.9364,-197.5916 336.5792,-187.6427 327.5273,-193.1484 332.9364,-197.5916"/>
</g>
<!-- Node22&#45;&gt;Node2 -->
<g id="edge29" class="edge">
<title>Node22&#45;&gt;Node2</title>
<path fill="none" stroke="#191970" d="M410.5401,-392.3701C397.8676,-384.4681 381.8833,-371.9885 374.5,-356 367.6127,-341.0856 372.4738,-322.7036 378.2777,-309.1299"/>
<polygon fill="#191970" stroke="#191970" points="381.5705,-310.3566 382.7208,-299.8244 375.2536,-307.3404 381.5705,-310.3566"/>
</g>
<!-- Node23&#45;&gt;Node2 -->
<g id="edge31" class="edge">
<title>Node23&#45;&gt;Node2</title>
<path fill="none" stroke="#191970" d="M514.3947,-395.6646C479.3874,-387.241 422.3617,-371.5943 407.5,-356 395.7007,-343.619 391.1589,-324.3922 389.4461,-309.878"/>
<polygon fill="#191970" stroke="#191970" points="392.9321,-309.5639 388.6144,-299.8889 385.9563,-310.1448 392.9321,-309.5639"/>
</g>
<!-- Node24 -->
<g id="node25" class="node">
<title>Node24</title>
<g id="a_node25"><a xlink:href="TMathBase_8h.html" target="_top" xlink:title="TMathBase.h">
<polygon fill="#ffffff" stroke="#000000" points="654.5,-336.5 654.5,-355.5 734.5,-355.5 734.5,-336.5 654.5,-336.5"/>
<text text-anchor="middle" x="694.5" y="-343.5" font-family="Helvetica,sans-Serif" font-size="10.00" fill="#000000">TMathBase.h</text>
</a>
</g>
</g>
<!-- Node23&#45;&gt;Node24 -->
<g id="edge32" class="edge">
<title>Node23&#45;&gt;Node24</title>
<path fill="none" stroke="#191970" d="M568.6297,-392.3733C593.5768,-383.1822 631.3592,-369.2624 659.0206,-359.0713"/>
<polygon fill="#191970" stroke="#191970" points="660.5378,-362.2424 668.7112,-355.5011 658.1178,-355.674 660.5378,-362.2424"/>
</g>
<!-- Node26 -->
<g id="node27" class="node">
<title>Node26</title>
<polygon fill="#ffffff" stroke="#bfbfbf" points="603,-280.5 603,-299.5 650,-299.5 650,-280.5 603,-280.5"/>
<text text-anchor="middle" x="626.5" y="-287.5" font-family="Helvetica,sans-Serif" font-size="10.00" fill="#000000">cmath</text>
</g>
<!-- Node23&#45;&gt;Node26 -->
<g id="edge42" class="edge">
<title>Node23&#45;&gt;Node26</title>
<path fill="none" stroke="#191970" d="M562.6215,-392.4453C577.1116,-384.5817 596.0518,-372.1172 607.5,-356 617.1981,-342.3466 621.9738,-323.8082 624.3092,-309.8549"/>
<polygon fill="#191970" stroke="#191970" points="627.7926,-310.2159 625.7063,-299.8285 620.8596,-309.2498 627.7926,-310.2159"/>
</g>
<!-- Node23&#45;&gt;Node27 -->
<g id="edge40" class="edge">
<title>Node23&#45;&gt;Node27</title>
<path fill="none" stroke="#191970" d="M570.5788,-398.8594C619.5611,-392.8597 717.8619,-378.3436 743.5,-356 756.8968,-344.3247 763.1381,-324.6952 766.0318,-309.8713"/>
<polygon fill="#191970" stroke="#191970" points="769.5379,-310.1096 767.6551,-299.6834 762.6251,-309.0081 769.5379,-310.1096"/>
</g>
<!-- Node28 -->
<g id="node29" class="node">
<title>Node28</title>
<g id="a_node29"><a xlink:href="TError_8h.html" target="_top" xlink:title="TError.h">
<polygon fill="#ffffff" stroke="#000000" points="416.5,-336.5 416.5,-355.5 470.5,-355.5 470.5,-336.5 416.5,-336.5"/>
<text text-anchor="middle" x="443.5" y="-343.5" font-family="Helvetica,sans-Serif" font-size="10.00" fill="#000000">TError.h</text>
</a>
</g>
</g>
<!-- Node23&#45;&gt;Node28 -->
<g id="edge37" class="edge">
<title>Node23&#45;&gt;Node28</title>
<path fill="none" stroke="#191970" d="M525.2555,-392.2455C509.9239,-383.5731 487.2801,-370.7645 469.7084,-360.825"/>
<polygon fill="#191970" stroke="#191970" points="470.9741,-357.5198 460.5469,-355.6427 467.5276,-363.6126 470.9741,-357.5198"/>
</g>
<!-- Node30 -->
<g id="node31" class="node">
<title>Node30</title>
<polygon fill="#ffffff" stroke="#bfbfbf" points="488.5,-336.5 488.5,-355.5 532.5,-355.5 532.5,-336.5 488.5,-336.5"/>
<text text-anchor="middle" x="510.5" y="-343.5" font-family="Helvetica,sans-Serif" font-size="10.00" fill="#000000">limits</text>
</g>
<!-- Node23&#45;&gt;Node30 -->
<g id="edge41" class="edge">
<title>Node23&#45;&gt;Node30</title>
<path fill="none" stroke="#191970" d="M536.926,-392.2455C532.5669,-384.617 526.3789,-373.7881 521.0867,-364.5267"/>
<polygon fill="#191970" stroke="#191970" points="524.0104,-362.5886 516.0101,-355.6427 517.9327,-366.0616 524.0104,-362.5886"/>
</g>
<!-- Node31 -->
<g id="node32" class="node">
<title>Node31</title>
<polygon fill="#ffffff" stroke="#bfbfbf" points="551,-336.5 551,-355.5 598,-355.5 598,-336.5 551,-336.5"/>
<text text-anchor="middle" x="574.5" y="-343.5" font-family="Helvetica,sans-Serif" font-size="10.00" fill="#000000">float.h</text>
</g>
<!-- Node23&#45;&gt;Node31 -->
<g id="edge43" class="edge">
<title>Node23&#45;&gt;Node31</title>
<path fill="none" stroke="#191970" d="M548.074,-392.2455C552.4331,-384.617 558.6211,-373.7881 563.9133,-364.5267"/>
<polygon fill="#191970" stroke="#191970" points="567.0673,-366.0616 568.9899,-355.6427 560.9896,-362.5886 567.0673,-366.0616"/>
</g>
<!-- Node24&#45;&gt;Node2 -->
<g id="edge33" class="edge">
<title>Node24&#45;&gt;Node2</title>
<path fill="none" stroke="#191970" d="M654.0482,-340.0676C603.5221,-332.4297 514.2419,-318.1844 428.1853,-300.01"/>
<polygon fill="#191970" stroke="#191970" points="428.7624,-296.5544 418.2523,-297.8913 427.3021,-303.4004 428.7624,-296.5544"/>
</g>
<!-- Node25 -->
<g id="node26" class="node">
<title>Node25</title>
<polygon fill="#ffffff" stroke="#bfbfbf" points="669,-280.5 669,-299.5 718,-299.5 718,-280.5 669,-280.5"/>
<text text-anchor="middle" x="693.5" y="-287.5" font-family="Helvetica,sans-Serif" font-size="10.00" fill="#000000">cstdlib</text>
</g>
<!-- Node24&#45;&gt;Node25 -->
<g id="edge34" class="edge">
<title>Node24&#45;&gt;Node25</title>
<path fill="none" stroke="#191970" d="M694.3258,-336.2455C694.1953,-328.9382 694.0124,-318.6944 693.8519,-309.7046"/>
<polygon fill="#191970" stroke="#191970" points="697.3503,-309.5786 693.6722,-299.6427 690.3514,-309.7036 697.3503,-309.5786"/>
</g>
<!-- Node24&#45;&gt;Node26 -->
<g id="edge35" class="edge">
<title>Node24&#45;&gt;Node26</title>
<path fill="none" stroke="#191970" d="M682.6553,-336.2455C672.612,-327.9746 658.0005,-315.9416 646.1996,-306.2232"/>
<polygon fill="#191970" stroke="#191970" points="648.1533,-303.298 638.209,-299.6427 643.7033,-308.7015 648.1533,-303.298"/>
</g>
<!-- Node24&#45;&gt;Node27 -->
<g id="edge36" class="edge">
<title>Node24&#45;&gt;Node27</title>
<path fill="none" stroke="#191970" d="M707.3898,-336.2455C718.4254,-327.8943 734.5292,-315.7076 747.4353,-305.9408"/>
<polygon fill="#191970" stroke="#191970" points="749.8959,-308.4681 755.7579,-299.6427 745.6717,-302.8862 749.8959,-308.4681"/>
</g>
<!-- Node28&#45;&gt;Node2 -->
<g id="edge38" class="edge">
<title>Node28&#45;&gt;Node2</title>
<path fill="none" stroke="#191970" d="M433.9197,-336.2455C425.9542,-328.1352 414.4359,-316.4075 404.9921,-306.7919"/>
<polygon fill="#191970" stroke="#191970" points="407.4747,-304.3247 397.9705,-299.6427 402.4805,-309.2297 407.4747,-304.3247"/>
</g>
<!-- Node29 -->
<g id="node30" class="node">
<title>Node29</title>
<polygon fill="#ffffff" stroke="#bfbfbf" points="436.5,-280.5 436.5,-299.5 492.5,-299.5 492.5,-280.5 436.5,-280.5"/>
<text text-anchor="middle" x="464.5" y="-287.5" font-family="Helvetica,sans-Serif" font-size="10.00" fill="#000000">stdarg.h</text>
</g>
<!-- Node28&#45;&gt;Node29 -->
<g id="edge39" class="edge">
<title>Node28&#45;&gt;Node29</title>
<path fill="none" stroke="#191970" d="M447.1579,-336.2455C449.9584,-328.7776 453.909,-318.2427 457.3324,-309.1137"/>
<polygon fill="#191970" stroke="#191970" points="460.6499,-310.2349 460.884,-299.6427 454.0955,-307.777 460.6499,-310.2349"/>
</g>
</g>
</svg>
        <g id="navigator" transform="translate(0 0)" fill="#404254">
                <rect fill="#f2f5e9" fill-opacity="0.5" stroke="#606060" stroke-width=".5" x="0" y="0" width="60" height="60"/>
                <use id="zoomplus" xlink:href="#zoomPlus" x="17" y="9" onmousedown="handleZoom(evt,'in')"/>
                <use id="zoomminus" xlink:href="#zoomMin" x="42" y="9" onmousedown="handleZoom(evt,'out')"/>
                <use id="reset" xlink:href="#resetDef" x="30" y="36" onmousedown="handleReset()"/>
                <g id="arrowUp" xlink:href="#dirArrow" transform="translate(30 24)" onmousedown="handlePan(0,-1)">
                  <use xlink:href="#rim" fill="#404040">
                        <set attributeName="fill" to="#808080" begin="arrowUp.mouseover" end="arrowUp.mouseout"/>
                  </use>
                  <path fill="none" stroke="white" stroke-width="1.5" d="M0,-3.0v7 M-2.5,-0.5L0,-3.0L2.5,-0.5"/>
                </g>
                <g id="arrowRight" xlink:href="#dirArrow" transform="rotate(90) translate(36 -43)" onmousedown="handlePan(1,0)">
                  <use xlink:href="#rim" fill="#404040">
                        <set attributeName="fill" to="#808080" begin="arrowRight.mouseover" end="arrowRight.mouseout"/>
                  </use>
                  <path fill="none" stroke="white" stroke-width="1.5" d="M0,-3.0v7 M-2.5,-0.5L0,-3.0L2.5,-0.5"/>
                </g>
                <g id="arrowDown" xlink:href="#dirArrow" transform="rotate(180) translate(-30 -48)" onmousedown="handlePan(0,1)">
                  <use xlink:href="#rim" fill="#404040">
                        <set attributeName="fill" to="#808080" begin="arrowDown.mouseover" end="arrowDown.mouseout"/>
                  </use>
                  <path fill="none" stroke="white" stroke-width="1.5" d="M0,-3.0v7 M-2.5,-0.5L0,-3.0L2.5,-0.5"/>
                </g>
                <g id="arrowLeft" xlink:href="#dirArrow" transform="rotate(270) translate(-36 17)" onmousedown="handlePan(-1,0)">
                  <use xlink:href="#rim" fill="#404040">
                        <set attributeName="fill" to="#808080" begin="arrowLeft.mouseover" end="arrowLeft.mouseout"/>
                  </use>
                  <path fill="none" stroke="white" stroke-width="1.5" d="M0,-3.0v7 M-2.5,-0.5L0,-3.0L2.5,-0.5"/>
                </g>
        </g>
        <svg viewBox="0 0 15 15" width="100%" height="30px" preserveAspectRatio="xMaxYMin meet">
         <g id="arrow_out" transform="scale(0.3 0.3)">
          <a xlink:href="TGLSelectBuffer_8cxx__incl_org.svg" target="_base">
           <rect id="button" ry="5" rx="5" y="6" x="6" height="38" width="38"
                fill="#f2f5e9" fill-opacity="0.5" stroke="#606060" stroke-width="1.0"/>
           <path id="arrow"
             d="M 11.500037,31.436501 C 11.940474,20.09759 22.043105,11.32322 32.158766,21.979434 L 37.068811,17.246167 C 37.068811,17.246167 37.088388,32 37.088388,32 L 22.160133,31.978069 C 22.160133,31.978069 26.997745,27.140456 26.997745,27.140456 C 18.528582,18.264221 13.291696,25.230495 11.500037,31.436501 z"
             style="fill:#404040;"/>
          </a>
         </g>
        </svg>
</svg>
