<?xml version="1.0" encoding="UTF-8" standalone="no"?>
<!DOCTYPE svg PUBLIC "-//W3C//DTD SVG 1.1//EN"
 "http://www.w3.org/Graphics/SVG/1.1/DTD/svg11.dtd">
<!-- Generated by graphviz version 2.40.1 (0)
 -->
<!-- Title: graf3d/gl/inc/TGLScenePad.h Pages: 1 -->
<svg width="1081pt" height="95pt"
 viewBox="0.00 0.00 1080.50 95.00" xmlns="http://www.w3.org/2000/svg" xmlns:xlink="http://www.w3.org/1999/xlink">
<g id="graph0" class="graph" transform="scale(1 1) rotate(0) translate(4 91)">
<title>graf3d/gl/inc/TGLScenePad.h</title>
<polygon fill="#ffffff" stroke="transparent" points="-4,4 -4,-91 1076.5,-91 1076.5,4 -4,4"/>
<!-- Node58 -->
<g id="node1" class="node">
<title>Node58</title>
<polygon fill="#bfbfbf" stroke="#000000" points="465,-67.5 465,-86.5 620,-86.5 620,-67.5 465,-67.5"/>
<text text-anchor="middle" x="542.5" y="-74.5" font-family="Helvetica,sans-Serif" font-size="10.00" fill="#000000">graf3d/gl/inc/TGLScenePad.h</text>
</g>
<!-- Node59 -->
<g id="node2" class="node">
<title>Node59</title>
<g id="a_node2"><a xlink:href="TEveGeoNode_8cxx.html" target="_top" xlink:title="graf3d/eve/src/TEveGeoNode.cxx">
<polygon fill="#ffffff" stroke="#000000" points="0,-6 0,-25 179,-25 179,-6 0,-6"/>
<text text-anchor="middle" x="89.5" y="-13" font-family="Helvetica,sans-Serif" font-size="10.00" fill="#000000">graf3d/eve/src/TEveGeoNode.cxx</text>
</a>
</g>
</g>
<!-- Node58&#45;&gt;Node59 -->
<g id="edge1" class="edge">
<title>Node58&#45;&gt;Node59</title>
<path fill="none" stroke="#191970" d="M454.3927,-66.199C382.7175,-57.2564 278.9873,-43.9605 188.5,-31 175.5841,-29.1501 161.7389,-27.0537 148.6175,-25.0141"/>
<polygon fill="#191970" stroke="#191970" points="454.3739,-69.7236 464.7298,-67.4862 455.239,-62.7772 454.3739,-69.7236"/>
</g>
<!-- Node60 -->
<g id="node3" class="node">
<title>Node60</title>
<g id="a_node3"><a xlink:href="TEveGeoPolyShape_8cxx.html" target="_top" xlink:title="graf3d/eve/src/TEveGeoPoly\lShape.cxx">
<polygon fill="#ffffff" stroke="#000000" points="197.5,-.5 197.5,-30.5 351.5,-30.5 351.5,-.5 197.5,-.5"/>
<text text-anchor="start" x="205.5" y="-18.5" font-family="Helvetica,sans-Serif" font-size="10.00" fill="#000000">graf3d/eve/src/TEveGeoPoly</text>
<text text-anchor="middle" x="274.5" y="-7.5" font-family="Helvetica,sans-Serif" font-size="10.00" fill="#000000">Shape.cxx</text>
</a>
</g>
</g>
<!-- Node58&#45;&gt;Node60 -->
<g id="edge2" class="edge">
<title>Node58&#45;&gt;Node60</title>
<path fill="none" stroke="#191970" d="M490.952,-65.1709C447.9524,-55.3035 386.4237,-41.184 339.95,-30.5193"/>
<polygon fill="#191970" stroke="#191970" points="490.3895,-68.6327 500.919,-67.4581 491.9552,-61.8101 490.3895,-68.6327"/>
</g>
<!-- Node61 -->
<g id="node4" class="node">
<title>Node61</title>
<g id="a_node4"><a xlink:href="TEveScene_8cxx.html" target="_top" xlink:title="graf3d/eve/src/TEveScene.cxx">
<polygon fill="#ffffff" stroke="#000000" points="370,-6 370,-25 533,-25 533,-6 370,-6"/>
<text text-anchor="middle" x="451.5" y="-13" font-family="Helvetica,sans-Serif" font-size="10.00" fill="#000000">graf3d/eve/src/TEveScene.cxx</text>
</a>
</g>
</g>
<!-- Node58&#45;&gt;Node61 -->
<g id="edge3" class="edge">
<title>Node58&#45;&gt;Node61</title>
<path fill="none" stroke="#191970" d="M519.9883,-61.786C502.9725,-50.2864 480.1391,-34.855 465.6189,-25.0419"/>
<polygon fill="#191970" stroke="#191970" points="518.0361,-64.691 528.2813,-67.3906 521.9557,-58.8913 518.0361,-64.691"/>
</g>
<!-- Node62 -->
<g id="node5" class="node">
<title>Node62</title>
<g id="a_node5"><a xlink:href="TEveViewer_8cxx.html" target="_top" xlink:title="graf3d/eve/src/TEveViewer.cxx">
<polygon fill="#ffffff" stroke="#000000" points="551,-6 551,-25 718,-25 718,-6 551,-6"/>
<text text-anchor="middle" x="634.5" y="-13" font-family="Helvetica,sans-Serif" font-size="10.00" fill="#000000">graf3d/eve/src/TEveViewer.cxx</text>
</a>
</g>
</g>
<!-- Node58&#45;&gt;Node62 -->
<g id="edge4" class="edge">
<title>Node58&#45;&gt;Node62</title>
<path fill="none" stroke="#191970" d="M565.2591,-61.786C582.4618,-50.2864 605.5462,-34.855 620.2259,-25.0419"/>
<polygon fill="#191970" stroke="#191970" points="563.2434,-58.9234 556.875,-67.3906 567.1337,-64.7429 563.2434,-58.9234"/>
</g>
<!-- Node63 -->
<g id="node6" class="node">
<title>Node63</title>
<g id="a_node6"><a xlink:href="TGLScenePad_8cxx.html" target="_top" xlink:title="graf3d/gl/src/TGLScenePad.cxx">
<polygon fill="#ffffff" stroke="#000000" points="736.5,-6 736.5,-25 902.5,-25 902.5,-6 736.5,-6"/>
<text text-anchor="middle" x="819.5" y="-13" font-family="Helvetica,sans-Serif" font-size="10.00" fill="#000000">graf3d/gl/src/TGLScenePad.cxx</text>
</a>
</g>
</g>
<!-- Node58&#45;&gt;Node63 -->
<g id="edge5" class="edge">
<title>Node58&#45;&gt;Node63</title>
<path fill="none" stroke="#191970" d="M595.2866,-65.2802C647.85,-53.61 727.5553,-35.9137 776.4219,-25.0643"/>
<polygon fill="#191970" stroke="#191970" points="594.481,-61.8738 585.4773,-67.4581 595.9982,-68.7074 594.481,-61.8738"/>
</g>
<!-- Node64 -->
<g id="node7" class="node">
<title>Node64</title>
<g id="a_node7"><a xlink:href="TGLViewer_8cxx.html" target="_top" xlink:title="graf3d/gl/src/TGLViewer.cxx">
<polygon fill="#ffffff" stroke="#000000" points="920.5,-6 920.5,-25 1072.5,-25 1072.5,-6 920.5,-6"/>
<text text-anchor="middle" x="996.5" y="-13" font-family="Helvetica,sans-Serif" font-size="10.00" fill="#000000">graf3d/gl/src/TGLViewer.cxx</text>
</a>
</g>
</g>
<!-- Node58&#45;&gt;Node64 -->
<g id="edge6" class="edge">
<title>Node58&#45;&gt;Node64</title>
<path fill="none" stroke="#191970" d="M630.3916,-67.4541C705.2739,-58.9839 815.6631,-45.6997 911.5,-31 922.9167,-29.2489 935.1555,-27.1489 946.6889,-25.0683"/>
<polygon fill="#191970" stroke="#191970" points="629.6116,-64.0197 620.0662,-68.617 630.3951,-70.9758 629.6116,-64.0197"/>
</g>
</g>
</svg>
