<?xml version="1.0" encoding="UTF-8" standalone="no"?>
<!DOCTYPE svg PUBLIC "-//W3C//DTD SVG 1.1//EN"
 "http://www.w3.org/Graphics/SVG/1.1/DTD/svg11.dtd">
<!-- Generated by graphviz version 2.40.1 (0)
 -->
<!-- Title: graf3d/gl/inc/TGLText.h Pages: 1 -->
<svg width="304pt" height="84pt"
 viewBox="0.00 0.00 304.00 84.00" xmlns="http://www.w3.org/2000/svg" xmlns:xlink="http://www.w3.org/1999/xlink">
<g id="graph0" class="graph" transform="scale(1 1) rotate(0) translate(4 80)">
<title>graf3d/gl/inc/TGLText.h</title>
<polygon fill="#ffffff" stroke="transparent" points="-4,4 -4,-80 300,-80 300,4 -4,4"/>
<!-- Node22 -->
<g id="node1" class="node">
<title>Node22</title>
<polygon fill="#bfbfbf" stroke="#000000" points="84.5,-56.5 84.5,-75.5 211.5,-75.5 211.5,-56.5 84.5,-56.5"/>
<text text-anchor="middle" x="148" y="-63.5" font-family="Helvetica,sans-Serif" font-size="10.00" fill="#000000">graf3d/gl/inc/TGLText.h</text>
</g>
<!-- Node23 -->
<g id="node2" class="node">
<title>Node23</title>
<g id="a_node2"><a xlink:href="TGLAxis_8cxx.html" target="_top" xlink:title="graf3d/gl/src/TGLAxis.cxx">
<polygon fill="#ffffff" stroke="#000000" points="0,-.5 0,-19.5 140,-19.5 140,-.5 0,-.5"/>
<text text-anchor="middle" x="70" y="-7.5" font-family="Helvetica,sans-Serif" font-size="10.00" fill="#000000">graf3d/gl/src/TGLAxis.cxx</text>
</a>
</g>
</g>
<!-- Node22&#45;&gt;Node23 -->
<g id="edge1" class="edge">
<title>Node22&#45;&gt;Node23</title>
<path fill="none" stroke="#191970" d="M126.0064,-50.2097C112.3071,-40.3743 95.1264,-28.0394 83.4309,-19.6427"/>
<polygon fill="#191970" stroke="#191970" points="124.2489,-53.2566 134.4134,-56.2455 128.3314,-47.5703 124.2489,-53.2566"/>
</g>
<!-- Node24 -->
<g id="node3" class="node">
<title>Node24</title>
<g id="a_node3"><a xlink:href="TGLText_8cxx.html" target="_top" xlink:title="graf3d/gl/src/TGLText.cxx">
<polygon fill="#ffffff" stroke="#000000" points="158,-.5 158,-19.5 296,-19.5 296,-.5 158,-.5"/>
<text text-anchor="middle" x="227" y="-7.5" font-family="Helvetica,sans-Serif" font-size="10.00" fill="#000000">graf3d/gl/src/TGLText.cxx</text>
</a>
</g>
</g>
<!-- Node22&#45;&gt;Node24 -->
<g id="edge2" class="edge">
<title>Node22&#45;&gt;Node24</title>
<path fill="none" stroke="#191970" d="M170.2756,-50.2097C184.1505,-40.3743 201.5515,-28.0394 213.3969,-19.6427"/>
<polygon fill="#191970" stroke="#191970" points="167.8949,-47.6071 161.7607,-56.2455 171.9431,-53.3178 167.8949,-47.6071"/>
</g>
</g>
</svg>
