<?xml version="1.0" encoding="UTF-8" standalone="no"?>
<!DOCTYPE svg PUBLIC "-//W3C//DTD SVG 1.1//EN"
 "http://www.w3.org/Graphics/SVG/1.1/DTD/svg11.dtd">
<!-- Generated by graphviz version 2.40.1 (0)
 -->
<!-- Title: gui/gui/inc/TGShutter.h Pages: 1 -->
<!--zoomable 95 -->
<svg id="main" version="1.1" xmlns="http://www.w3.org/2000/svg" xmlns:xlink="http://www.w3.org/1999/xlink" xml:space="preserve" onload="init(evt)">
<style type="text/css"><![CDATA[
.edge:hover path { stroke: red; }
.edge:hover polygon { stroke: red; fill: red; }
]]></style>
<script type="text/javascript"><![CDATA[
var edges = document.getElementsByTagName('g');
if (edges && edges.length) {
  for (var i=0;i<edges.length;i++) {
    if (edges[i].id.substr(0,4)=='edge') {
      edges[i].setAttribute('class','edge');
    }
  }
}
]]></script>
        <defs>
                <circle id="rim" cx="0" cy="0" r="7"/>
                <circle id="rim2" cx="0" cy="0" r="3.5"/>
                <g id="zoomPlus">
                        <use xlink:href="#rim" fill="#404040">
                                <set attributeName="fill" to="#808080" begin="zoomplus.mouseover" end="zoomplus.mouseout"/>
                        </use>
                        <path d="M-4,0h8M0,-4v8" fill="none" stroke="white" stroke-width="1.5" pointer-events="none"/>
                </g>
                <g id="zoomMin">
                        <use xlink:href="#rim" fill="#404040">
                                <set attributeName="fill" to="#808080" begin="zoomminus.mouseover" end="zoomminus.mouseout"/>
                        </use>
                        <path d="M-4,0h8" fill="none" stroke="white" stroke-width="1.5" pointer-events="none"/>
                </g>
                <g id="dirArrow">
                        <path fill="none" stroke="white" stroke-width="1.5" d="M0,-3.0v7 M-2.5,-0.5L0,-3.0L2.5,-0.5"/>
                </g>
               <g id="resetDef">
                       <use xlink:href="#rim2" fill="#404040">
                               <set attributeName="fill" to="#808080" begin="reset.mouseover" end="reset.mouseout"/>
                       </use>
               </g>
        </defs>

<script type="text/javascript">
var viewWidth = 584;
var viewHeight = 95;
var sectionId = 'dynsection-1';
</script>
<script xlink:href="svgpan.js"/>
<svg id="graph" class="graph">
<g id="viewport">
<title>gui/gui/inc/TGShutter.h</title>
<polygon fill="#ffffff" stroke="transparent" points="-4,4 -4,-91 579.5,-91 579.5,4 -4,4"/>
<!-- Node81 -->
<g id="node1" class="node">
<title>Node81</title>
<polygon fill="#bfbfbf" stroke="#000000" points="231,-67.5 231,-86.5 358,-86.5 358,-67.5 231,-67.5"/>
<text text-anchor="middle" x="294.5" y="-74.5" font-family="Helvetica,sans-Serif" font-size="10.00" fill="#000000">gui/gui/inc/TGShutter.h</text>
</g>
<!-- Node82 -->
<g id="node2" class="node">
<title>Node82</title>
<g id="a_node2"><a xlink:href="TGeoManagerEditor_8cxx.html" target="_top" xlink:title="geom/geombuilder/src\l/TGeoManagerEditor.cxx">
<polygon fill="#ffffff" stroke="#000000" points="0,-.5 0,-30.5 135,-30.5 135,-.5 0,-.5"/>
<text text-anchor="start" x="8" y="-18.5" font-family="Helvetica,sans-Serif" font-size="10.00" fill="#000000">geom/geombuilder/src</text>
<text text-anchor="middle" x="67.5" y="-7.5" font-family="Helvetica,sans-Serif" font-size="10.00" fill="#000000">/TGeoManagerEditor.cxx</text>
</a>
</g>
</g>
<!-- Node81&#45;&gt;Node82 -->
<g id="edge1" class="edge">
<title>Node81&#45;&gt;Node82</title>
<path fill="none" stroke="#191970" d="M249.2065,-64.7289C212.9022,-54.8931 161.799,-41.048 123.0304,-30.5446"/>
<polygon fill="#191970" stroke="#191970" points="248.4639,-68.1538 259.0313,-67.3906 250.2945,-61.3974 248.4639,-68.1538"/>
</g>
<!-- Node83 -->
<g id="node3" class="node">
<title>Node83</title>
<g id="a_node3"><a xlink:href="TGeoVolumeEditor_8cxx.html" target="_top" xlink:title="geom/geombuilder/src\l/TGeoVolumeEditor.cxx">
<polygon fill="#ffffff" stroke="#000000" points="153.5,-.5 153.5,-30.5 283.5,-30.5 283.5,-.5 153.5,-.5"/>
<text text-anchor="start" x="161.5" y="-18.5" font-family="Helvetica,sans-Serif" font-size="10.00" fill="#000000">geom/geombuilder/src</text>
<text text-anchor="middle" x="218.5" y="-7.5" font-family="Helvetica,sans-Serif" font-size="10.00" fill="#000000">/TGeoVolumeEditor.cxx</text>
</a>
</g>
</g>
<!-- Node81&#45;&gt;Node83 -->
<g id="edge2" class="edge">
<title>Node81&#45;&gt;Node83</title>
<path fill="none" stroke="#191970" d="M274.7752,-61.0385C263.1455,-51.6276 248.5183,-39.7911 237.0917,-30.5446"/>
<polygon fill="#191970" stroke="#191970" points="272.6496,-63.8209 282.625,-67.3906 277.053,-58.3793 272.6496,-63.8209"/>
</g>
<!-- Node84 -->
<g id="node4" class="node">
<title>Node84</title>
<g id="a_node4"><a xlink:href="TGShutter_8cxx.html" target="_top" xlink:title="gui/gui/src/TGShutter.cxx">
<polygon fill="#ffffff" stroke="#000000" points="301.5,-6 301.5,-25 439.5,-25 439.5,-6 301.5,-6"/>
<text text-anchor="middle" x="370.5" y="-13" font-family="Helvetica,sans-Serif" font-size="10.00" fill="#000000">gui/gui/src/TGShutter.cxx</text>
</a>
</g>
</g>
<!-- Node81&#45;&gt;Node84 -->
<g id="edge3" class="edge">
<title>Node81&#45;&gt;Node84</title>
<path fill="none" stroke="#191970" d="M314.434,-60.8692C328.4125,-49.5576 346.6419,-34.8062 358.4576,-25.2449"/>
<polygon fill="#191970" stroke="#191970" points="311.947,-58.3793 306.375,-67.3906 316.3504,-63.8209 311.947,-58.3793"/>
</g>
<!-- Node85 -->
<g id="node5" class="node">
<title>Node85</title>
<g id="a_node5"><a xlink:href="TRootGuiBuilder_8cxx.html" target="_top" xlink:title="gui/guibuilder/src\l/TRootGuiBuilder.cxx">
<polygon fill="#ffffff" stroke="#000000" points="457.5,-.5 457.5,-30.5 575.5,-30.5 575.5,-.5 457.5,-.5"/>
<text text-anchor="start" x="465.5" y="-18.5" font-family="Helvetica,sans-Serif" font-size="10.00" fill="#000000">gui/guibuilder/src</text>
<text text-anchor="middle" x="516.5" y="-7.5" font-family="Helvetica,sans-Serif" font-size="10.00" fill="#000000">/TRootGuiBuilder.cxx</text>
</a>
</g>
</g>
<!-- Node81&#45;&gt;Node85 -->
<g id="edge4" class="edge">
<title>Node81&#45;&gt;Node85</title>
<path fill="none" stroke="#191970" d="M339.2518,-64.6025C374.7274,-54.7748 424.4401,-41.0031 462.1927,-30.5446"/>
<polygon fill="#191970" stroke="#191970" points="337.8901,-61.3479 329.1875,-67.3906 339.759,-68.0938 337.8901,-61.3479"/>
</g>
</g>
</svg>
        <g id="navigator" transform="translate(0 0)" fill="#404254">
                <rect fill="#f2f5e9" fill-opacity="0.5" stroke="#606060" stroke-width=".5" x="0" y="0" width="60" height="60"/>
                <use id="zoomplus" xlink:href="#zoomPlus" x="17" y="9" onmousedown="handleZoom(evt,'in')"/>
                <use id="zoomminus" xlink:href="#zoomMin" x="42" y="9" onmousedown="handleZoom(evt,'out')"/>
                <use id="reset" xlink:href="#resetDef" x="30" y="36" onmousedown="handleReset()"/>
                <g id="arrowUp" xlink:href="#dirArrow" transform="translate(30 24)" onmousedown="handlePan(0,-1)">
                  <use xlink:href="#rim" fill="#404040">
                        <set attributeName="fill" to="#808080" begin="arrowUp.mouseover" end="arrowUp.mouseout"/>
                  </use>
                  <path fill="none" stroke="white" stroke-width="1.5" d="M0,-3.0v7 M-2.5,-0.5L0,-3.0L2.5,-0.5"/>
                </g>
                <g id="arrowRight" xlink:href="#dirArrow" transform="rotate(90) translate(36 -43)" onmousedown="handlePan(1,0)">
                  <use xlink:href="#rim" fill="#404040">
                        <set attributeName="fill" to="#808080" begin="arrowRight.mouseover" end="arrowRight.mouseout"/>
                  </use>
                  <path fill="none" stroke="white" stroke-width="1.5" d="M0,-3.0v7 M-2.5,-0.5L0,-3.0L2.5,-0.5"/>
                </g>
                <g id="arrowDown" xlink:href="#dirArrow" transform="rotate(180) translate(-30 -48)" onmousedown="handlePan(0,1)">
                  <use xlink:href="#rim" fill="#404040">
                        <set attributeName="fill" to="#808080" begin="arrowDown.mouseover" end="arrowDown.mouseout"/>
                  </use>
                  <path fill="none" stroke="white" stroke-width="1.5" d="M0,-3.0v7 M-2.5,-0.5L0,-3.0L2.5,-0.5"/>
                </g>
                <g id="arrowLeft" xlink:href="#dirArrow" transform="rotate(270) translate(-36 17)" onmousedown="handlePan(-1,0)">
                  <use xlink:href="#rim" fill="#404040">
                        <set attributeName="fill" to="#808080" begin="arrowLeft.mouseover" end="arrowLeft.mouseout"/>
                  </use>
                  <path fill="none" stroke="white" stroke-width="1.5" d="M0,-3.0v7 M-2.5,-0.5L0,-3.0L2.5,-0.5"/>
                </g>
        </g>
        <svg viewBox="0 0 15 15" width="100%" height="30px" preserveAspectRatio="xMaxYMin meet">
         <g id="arrow_out" transform="scale(0.3 0.3)">
          <a xlink:href="TGShutter_8h__dep__incl_org.svg" target="_base">
           <rect id="button" ry="5" rx="5" y="6" x="6" height="38" width="38"
                fill="#f2f5e9" fill-opacity="0.5" stroke="#606060" stroke-width="1.0"/>
           <path id="arrow"
             d="M 11.500037,31.436501 C 11.940474,20.09759 22.043105,11.32322 32.158766,21.979434 L 37.068811,17.246167 C 37.068811,17.246167 37.088388,32 37.088388,32 L 22.160133,31.978069 C 22.160133,31.978069 26.997745,27.140456 26.997745,27.140456 C 18.528582,18.264221 13.291696,25.230495 11.500037,31.436501 z"
             style="fill:#404040;"/>
          </a>
         </g>
        </svg>
</svg>
