<?xml version="1.0" encoding="UTF-8" standalone="no"?>
<!DOCTYPE svg PUBLIC "-//W3C//DTD SVG 1.1//EN"
 "http://www.w3.org/Graphics/SVG/1.1/DTD/svg11.dtd">
<!-- Generated by graphviz version 2.40.1 (0)
 -->
<!-- Title: gui/gui/inc/TGSplitter.h Pages: 1 -->
<svg width="2398pt" height="296pt"
 viewBox="0.00 0.00 2397.50 296.00" xmlns="http://www.w3.org/2000/svg" xmlns:xlink="http://www.w3.org/1999/xlink">
<g id="graph0" class="graph" transform="scale(1 1) rotate(0) translate(4 292)">
<title>gui/gui/inc/TGSplitter.h</title>
<polygon fill="#ffffff" stroke="transparent" points="-4,4 -4,-292 2393.5,-292 2393.5,4 -4,4"/>
<!-- Node78 -->
<g id="node1" class="node">
<title>Node78</title>
<polygon fill="#bfbfbf" stroke="#000000" points="1193,-268.5 1193,-287.5 1320,-287.5 1320,-268.5 1193,-268.5"/>
<text text-anchor="middle" x="1256.5" y="-275.5" font-family="Helvetica,sans-Serif" font-size="10.00" fill="#000000">gui/gui/inc/TGSplitter.h</text>
</g>
<!-- Node79 -->
<g id="node2" class="node">
<title>Node79</title>
<g id="a_node2"><a xlink:href="TEveBrowser_8cxx.html" target="_top" xlink:title="graf3d/eve/src/TEveBrowser.cxx">
<polygon fill="#ffffff" stroke="#000000" points="0,-207 0,-226 173,-226 173,-207 0,-207"/>
<text text-anchor="middle" x="86.5" y="-214" font-family="Helvetica,sans-Serif" font-size="10.00" fill="#000000">graf3d/eve/src/TEveBrowser.cxx</text>
</a>
</g>
</g>
<!-- Node78&#45;&gt;Node79 -->
<g id="edge1" class="edge">
<title>Node78&#45;&gt;Node79</title>
<path fill="none" stroke="#191970" d="M1182.5795,-275.9652C972.9185,-270.0137 377.0698,-251.8053 182.5,-232 168.2236,-230.5468 152.8442,-228.3498 138.668,-226.0632"/>
<polygon fill="#191970" stroke="#191970" points="1182.769,-279.4718 1192.8639,-276.2561 1182.9669,-272.4746 1182.769,-279.4718"/>
</g>
<!-- Node80 -->
<g id="node3" class="node">
<title>Node80</title>
<g id="a_node3"><a xlink:href="TGLSAViewer_8cxx.html" target="_top" xlink:title="graf3d/gl/src/TGLSAViewer.cxx">
<polygon fill="#ffffff" stroke="#000000" points="191.5,-207 191.5,-226 355.5,-226 355.5,-207 191.5,-207"/>
<text text-anchor="middle" x="273.5" y="-214" font-family="Helvetica,sans-Serif" font-size="10.00" fill="#000000">graf3d/gl/src/TGLSAViewer.cxx</text>
</a>
</g>
</g>
<!-- Node78&#45;&gt;Node80 -->
<g id="edge2" class="edge">
<title>Node78&#45;&gt;Node80</title>
<path fill="none" stroke="#191970" d="M1182.5326,-277.1126C1029.4181,-274.632 666.7733,-265.4207 364.5,-232 350.9603,-230.503 336.3795,-228.2913 322.9417,-226.0045"/>
<polygon fill="#191970" stroke="#191970" points="1182.698,-280.6156 1192.7518,-277.2732 1182.808,-273.6164 1182.698,-280.6156"/>
</g>
<!-- Node81 -->
<g id="node4" class="node">
<title>Node81</title>
<g id="a_node4"><a xlink:href="TStructViewerGUI_8cxx.html" target="_top" xlink:title="graf3d/gviz3d/src/TStruct\lViewerGUI.cxx">
<polygon fill="#ffffff" stroke="#000000" points="373.5,-201.5 373.5,-231.5 511.5,-231.5 511.5,-201.5 373.5,-201.5"/>
<text text-anchor="start" x="381.5" y="-219.5" font-family="Helvetica,sans-Serif" font-size="10.00" fill="#000000">graf3d/gviz3d/src/TStruct</text>
<text text-anchor="middle" x="442.5" y="-208.5" font-family="Helvetica,sans-Serif" font-size="10.00" fill="#000000">ViewerGUI.cxx</text>
</a>
</g>
</g>
<!-- Node78&#45;&gt;Node81 -->
<g id="edge3" class="edge">
<title>Node78&#45;&gt;Node81</title>
<path fill="none" stroke="#191970" d="M1182.6835,-276.3246C1050.4688,-272.6634 764.705,-261.7494 525.5,-232 520.9905,-231.4392 516.3561,-230.7869 511.6931,-230.0735"/>
<polygon fill="#191970" stroke="#191970" points="1182.6095,-279.8237 1192.7007,-276.5961 1182.7992,-272.8263 1182.6095,-279.8237"/>
</g>
<!-- Node82 -->
<g id="node5" class="node">
<title>Node82</title>
<g id="a_node5"><a xlink:href="TGListView_8h.html" target="_top" xlink:title="gui/gui/inc/TGListView.h">
<polygon fill="#ffffff" stroke="#000000" points="794,-207 794,-226 927,-226 927,-207 794,-207"/>
<text text-anchor="middle" x="860.5" y="-214" font-family="Helvetica,sans-Serif" font-size="10.00" fill="#000000">gui/gui/inc/TGListView.h</text>
</a>
</g>
</g>
<!-- Node78&#45;&gt;Node82 -->
<g id="edge4" class="edge">
<title>Node78&#45;&gt;Node82</title>
<path fill="none" stroke="#191970" d="M1184.7375,-266.8551C1109.5629,-255.1802 992.7444,-237.038 921.7588,-226.0137"/>
<polygon fill="#191970" stroke="#191970" points="1184.6408,-270.3819 1195.0595,-268.4581 1185.7151,-263.4648 1184.6408,-270.3819"/>
</g>
<!-- Node87 -->
<g id="node10" class="node">
<title>Node87</title>
<g id="a_node10"><a xlink:href="TRootBrowserLite_8cxx.html" target="_top" xlink:title="gui/gui/src/TRootBrowser\lLite.cxx">
<polygon fill="#ffffff" stroke="#000000" points="1055,-67.5 1055,-97.5 1192,-97.5 1192,-67.5 1055,-67.5"/>
<text text-anchor="start" x="1063" y="-85.5" font-family="Helvetica,sans-Serif" font-size="10.00" fill="#000000">gui/gui/src/TRootBrowser</text>
<text text-anchor="middle" x="1123.5" y="-74.5" font-family="Helvetica,sans-Serif" font-size="10.00" fill="#000000">Lite.cxx</text>
</a>
</g>
</g>
<!-- Node78&#45;&gt;Node87 -->
<g id="edge34" class="edge">
<title>Node78&#45;&gt;Node87</title>
<path fill="none" stroke="#191970" d="M1197.3503,-265.144C1178.7844,-258.2735 1159.9168,-247.8245 1147.5,-232 1116.1814,-192.0862 1118.4444,-127.3829 1121.4549,-97.954"/>
<polygon fill="#191970" stroke="#191970" points="1196.4015,-268.518 1206.9959,-268.4201 1198.6528,-261.8899 1196.4015,-268.518"/>
</g>
<!-- Node93 -->
<g id="node16" class="node">
<title>Node93</title>
<g id="a_node16"><a xlink:href="TSessionViewer_8cxx.html" target="_top" xlink:title="gui/sessionviewer/src\l/TSessionViewer.cxx">
<polygon fill="#ffffff" stroke="#000000" points="1498.5,-.5 1498.5,-30.5 1620.5,-30.5 1620.5,-.5 1498.5,-.5"/>
<text text-anchor="start" x="1506.5" y="-18.5" font-family="Helvetica,sans-Serif" font-size="10.00" fill="#000000">gui/sessionviewer/src</text>
<text text-anchor="middle" x="1559.5" y="-7.5" font-family="Helvetica,sans-Serif" font-size="10.00" fill="#000000">/TSessionViewer.cxx</text>
</a>
</g>
</g>
<!-- Node78&#45;&gt;Node93 -->
<g id="edge38" class="edge">
<title>Node78&#45;&gt;Node93</title>
<path fill="none" stroke="#191970" d="M1217.6516,-264.0943C1203.3355,-256.8605 1188.638,-246.4382 1180.5,-232 1173.7349,-219.9975 1171.4119,-211.3554 1180.5,-201 1221.1541,-154.6771 1397.3674,-185.4736 1455.5,-165 1509.493,-145.9843 1537.4621,-147.9071 1565.5,-98 1577.3169,-76.9661 1571.0402,-48.0094 1565.3285,-30.5871"/>
<polygon fill="#191970" stroke="#191970" points="1216.387,-267.3658 1226.9315,-268.3976 1219.3319,-261.0154 1216.387,-267.3658"/>
</g>
<!-- Node96 -->
<g id="node19" class="node">
<title>Node96</title>
<g id="a_node19"><a xlink:href="TTreeViewer_8cxx.html" target="_top" xlink:title="tree/treeviewer/src\l/TTreeViewer.cxx">
<polygon fill="#ffffff" stroke="#000000" points="287,-67.5 287,-97.5 396,-97.5 396,-67.5 287,-67.5"/>
<text text-anchor="start" x="295" y="-85.5" font-family="Helvetica,sans-Serif" font-size="10.00" fill="#000000">tree/treeviewer/src</text>
<text text-anchor="middle" x="341.5" y="-74.5" font-family="Helvetica,sans-Serif" font-size="10.00" fill="#000000">/TTreeViewer.cxx</text>
</a>
</g>
</g>
<!-- Node78&#45;&gt;Node96 -->
<g id="edge39" class="edge">
<title>Node78&#45;&gt;Node96</title>
<path fill="none" stroke="#191970" d="M1182.6595,-271.7859C1089.8343,-263.7448 925.6595,-248.763 785.5,-232 772.3239,-230.4241 321.2005,-175.0198 312.5,-165 295.578,-145.5121 313.919,-115.5258 328.1515,-97.5781"/>
<polygon fill="#191970" stroke="#191970" points="1182.529,-275.2876 1192.793,-272.6607 1183.1311,-268.3136 1182.529,-275.2876"/>
</g>
<!-- Node99 -->
<g id="node22" class="node">
<title>Node99</title>
<g id="a_node22"><a xlink:href="TGFrame_8cxx.html" target="_top" xlink:title="gui/gui/src/TGFrame.cxx">
<polygon fill="#ffffff" stroke="#000000" points="1189.5,-207 1189.5,-226 1323.5,-226 1323.5,-207 1189.5,-207"/>
<text text-anchor="middle" x="1256.5" y="-214" font-family="Helvetica,sans-Serif" font-size="10.00" fill="#000000">gui/gui/src/TGFrame.cxx</text>
</a>
</g>
</g>
<!-- Node78&#45;&gt;Node99 -->
<g id="edge29" class="edge">
<title>Node78&#45;&gt;Node99</title>
<path fill="none" stroke="#191970" d="M1256.5,-258.2462C1256.5,-247.5519 1256.5,-234.814 1256.5,-226.2449"/>
<polygon fill="#191970" stroke="#191970" points="1253.0001,-258.3906 1256.5,-268.3906 1260.0001,-258.3907 1253.0001,-258.3906"/>
</g>
<!-- Node100 -->
<g id="node23" class="node">
<title>Node100</title>
<g id="a_node23"><a xlink:href="TGPack_8cxx.html" target="_top" xlink:title="gui/gui/src/TGPack.cxx">
<polygon fill="#ffffff" stroke="#000000" points="1341.5,-207 1341.5,-226 1467.5,-226 1467.5,-207 1341.5,-207"/>
<text text-anchor="middle" x="1404.5" y="-214" font-family="Helvetica,sans-Serif" font-size="10.00" fill="#000000">gui/gui/src/TGPack.cxx</text>
</a>
</g>
</g>
<!-- Node78&#45;&gt;Node100 -->
<g id="edge30" class="edge">
<title>Node78&#45;&gt;Node100</title>
<path fill="none" stroke="#191970" d="M1288.9985,-264.4955C1317.0044,-252.858 1356.7306,-236.3501 1381.5374,-226.0419"/>
<polygon fill="#191970" stroke="#191970" points="1287.5164,-261.3212 1279.625,-268.3906 1290.2025,-267.7853 1287.5164,-261.3212"/>
</g>
<!-- Node101 -->
<g id="node24" class="node">
<title>Node101</title>
<g id="a_node24"><a xlink:href="TGSplitFrame_8cxx.html" target="_top" xlink:title="gui/gui/src/TGSplitFrame.cxx">
<polygon fill="#ffffff" stroke="#000000" points="1486,-207 1486,-226 1641,-226 1641,-207 1486,-207"/>
<text text-anchor="middle" x="1563.5" y="-214" font-family="Helvetica,sans-Serif" font-size="10.00" fill="#000000">gui/gui/src/TGSplitFrame.cxx</text>
</a>
</g>
</g>
<!-- Node78&#45;&gt;Node101 -->
<g id="edge31" class="edge">
<title>Node78&#45;&gt;Node101</title>
<path fill="none" stroke="#191970" d="M1314.2938,-266.4224C1372.6304,-254.7361 1461.6524,-236.9027 1516.0089,-226.0137"/>
<polygon fill="#191970" stroke="#191970" points="1313.2496,-263.062 1304.1319,-268.4581 1314.6246,-269.9256 1313.2496,-263.062"/>
</g>
<!-- Node102 -->
<g id="node25" class="node">
<title>Node102</title>
<g id="a_node25"><a xlink:href="TGSplitter_8cxx.html" target="_top" xlink:title="gui/gui/src/TGSplitter.cxx">
<polygon fill="#ffffff" stroke="#000000" points="1659.5,-207 1659.5,-226 1797.5,-226 1797.5,-207 1659.5,-207"/>
<text text-anchor="middle" x="1728.5" y="-214" font-family="Helvetica,sans-Serif" font-size="10.00" fill="#000000">gui/gui/src/TGSplitter.cxx</text>
</a>
</g>
</g>
<!-- Node78&#45;&gt;Node102 -->
<g id="edge32" class="edge">
<title>Node78&#45;&gt;Node102</title>
<path fill="none" stroke="#191970" d="M1330.5567,-271.137C1409.9255,-263.3658 1539.4944,-249.4808 1650.5,-232 1661.2743,-230.3033 1672.8268,-228.1777 1683.6512,-226.0495"/>
<polygon fill="#191970" stroke="#191970" points="1329.7902,-267.6949 1320.176,-272.1465 1330.4678,-274.662 1329.7902,-267.6949"/>
</g>
<!-- Node103 -->
<g id="node26" class="node">
<title>Node103</title>
<g id="a_node26"><a xlink:href="TRootBrowser_8cxx.html" target="_top" xlink:title="gui/gui/src/TRootBrowser.cxx">
<polygon fill="#ffffff" stroke="#000000" points="1816,-207 1816,-226 1973,-226 1973,-207 1816,-207"/>
<text text-anchor="middle" x="1894.5" y="-214" font-family="Helvetica,sans-Serif" font-size="10.00" fill="#000000">gui/gui/src/TRootBrowser.cxx</text>
</a>
</g>
</g>
<!-- Node78&#45;&gt;Node103 -->
<g id="edge33" class="edge">
<title>Node78&#45;&gt;Node103</title>
<path fill="none" stroke="#191970" d="M1330.4677,-273.9555C1436.2806,-267.6838 1636.8295,-253.9916 1806.5,-232 1818.9613,-230.3849 1832.3468,-228.24 1844.8242,-226.0624"/>
<polygon fill="#191970" stroke="#191970" points="1329.9945,-270.4771 1320.2169,-274.5573 1330.4048,-277.4651 1329.9945,-270.4771"/>
</g>
<!-- Node104 -->
<g id="node27" class="node">
<title>Node104</title>
<g id="a_node27"><a xlink:href="TGuiBldEditor_8cxx.html" target="_top" xlink:title="gui/guibuilder/src\l/TGuiBldEditor.cxx">
<polygon fill="#ffffff" stroke="#000000" points="1991.5,-201.5 1991.5,-231.5 2097.5,-231.5 2097.5,-201.5 1991.5,-201.5"/>
<text text-anchor="start" x="1999.5" y="-219.5" font-family="Helvetica,sans-Serif" font-size="10.00" fill="#000000">gui/guibuilder/src</text>
<text text-anchor="middle" x="2044.5" y="-208.5" font-family="Helvetica,sans-Serif" font-size="10.00" fill="#000000">/TGuiBldEditor.cxx</text>
</a>
</g>
</g>
<!-- Node78&#45;&gt;Node104 -->
<g id="edge35" class="edge">
<title>Node78&#45;&gt;Node104</title>
<path fill="none" stroke="#191970" d="M1330.2595,-275.0315C1488.9426,-268.3668 1858.3995,-251.2802 1982.5,-232 1985.3505,-231.5571 1988.2616,-231.0444 1991.1915,-230.4804"/>
<polygon fill="#191970" stroke="#191970" points="1329.9621,-271.5408 1320.117,-275.4554 1330.2545,-278.5347 1329.9621,-271.5408"/>
</g>
<!-- Node105 -->
<g id="node28" class="node">
<title>Node105</title>
<g id="a_node28"><a xlink:href="TGuiBldNameFrame_8cxx.html" target="_top" xlink:title="gui/guibuilder/src\l/TGuiBldNameFrame.cxx">
<polygon fill="#ffffff" stroke="#000000" points="2116,-201.5 2116,-231.5 2253,-231.5 2253,-201.5 2116,-201.5"/>
<text text-anchor="start" x="2124" y="-219.5" font-family="Helvetica,sans-Serif" font-size="10.00" fill="#000000">gui/guibuilder/src</text>
<text text-anchor="middle" x="2184.5" y="-208.5" font-family="Helvetica,sans-Serif" font-size="10.00" fill="#000000">/TGuiBldNameFrame.cxx</text>
</a>
</g>
</g>
<!-- Node78&#45;&gt;Node105 -->
<g id="edge36" class="edge">
<title>Node78&#45;&gt;Node105</title>
<path fill="none" stroke="#191970" d="M1330.1313,-275.3619C1507.9761,-268.7724 1957.2681,-250.769 2106.5,-232 2109.5137,-231.621 2112.5854,-231.1926 2115.683,-230.7262"/>
<polygon fill="#191970" stroke="#191970" points="1329.9492,-271.8661 1320.0851,-275.7327 1330.2074,-278.8614 1329.9492,-271.8661"/>
</g>
<!-- Node106 -->
<g id="node29" class="node">
<title>Node106</title>
<g id="a_node29"><a xlink:href="TRootGuiBuilder_8cxx.html" target="_top" xlink:title="gui/guibuilder/src\l/TRootGuiBuilder.cxx">
<polygon fill="#ffffff" stroke="#000000" points="2271.5,-201.5 2271.5,-231.5 2389.5,-231.5 2389.5,-201.5 2271.5,-201.5"/>
<text text-anchor="start" x="2279.5" y="-219.5" font-family="Helvetica,sans-Serif" font-size="10.00" fill="#000000">gui/guibuilder/src</text>
<text text-anchor="middle" x="2330.5" y="-208.5" font-family="Helvetica,sans-Serif" font-size="10.00" fill="#000000">/TRootGuiBuilder.cxx</text>
</a>
</g>
</g>
<!-- Node78&#45;&gt;Node106 -->
<g id="edge37" class="edge">
<title>Node78&#45;&gt;Node106</title>
<path fill="none" stroke="#191970" d="M1330.3117,-276.3347C1530.7722,-271.539 2082.3161,-256.4559 2262.5,-232 2265.3796,-231.6092 2268.3169,-231.1554 2271.2759,-230.6539"/>
<polygon fill="#191970" stroke="#191970" points="1330.0917,-272.8388 1320.1777,-276.5755 1330.258,-279.8369 1330.0917,-272.8388"/>
</g>
<!-- Node83 -->
<g id="node6" class="node">
<title>Node83</title>
<g id="a_node6"><a xlink:href="TGeoMaterialEditor_8cxx.html" target="_top" xlink:title="geom/geombuilder/src\l/TGeoMaterialEditor.cxx">
<polygon fill="#ffffff" stroke="#000000" points="322,-134.5 322,-164.5 455,-164.5 455,-134.5 322,-134.5"/>
<text text-anchor="start" x="330" y="-152.5" font-family="Helvetica,sans-Serif" font-size="10.00" fill="#000000">geom/geombuilder/src</text>
<text text-anchor="middle" x="388.5" y="-141.5" font-family="Helvetica,sans-Serif" font-size="10.00" fill="#000000">/TGeoMaterialEditor.cxx</text>
</a>
</g>
</g>
<!-- Node82&#45;&gt;Node83 -->
<g id="edge5" class="edge">
<title>Node82&#45;&gt;Node83</title>
<path fill="none" stroke="#191970" d="M783.7353,-208.1726C703.7795,-199.1118 575.0016,-183.4292 464.5,-165 461.445,-164.4905 458.3255,-163.9474 455.1777,-163.3809"/>
<polygon fill="#191970" stroke="#191970" points="783.392,-211.656 793.7212,-209.2986 784.1763,-204.7001 783.392,-211.656"/>
</g>
<!-- Node84 -->
<g id="node7" class="node">
<title>Node84</title>
<g id="a_node7"><a xlink:href="TGFSContainer_8h.html" target="_top" xlink:title="gui/gui/inc/TGFSContainer.h">
<polygon fill="#ffffff" stroke="#000000" points="907.5,-140 907.5,-159 1057.5,-159 1057.5,-140 907.5,-140"/>
<text text-anchor="middle" x="982.5" y="-147" font-family="Helvetica,sans-Serif" font-size="10.00" fill="#000000">gui/gui/inc/TGFSContainer.h</text>
</a>
</g>
</g>
<!-- Node82&#45;&gt;Node84 -->
<g id="edge6" class="edge">
<title>Node82&#45;&gt;Node84</title>
<path fill="none" stroke="#191970" d="M886.7982,-202.0575C910.4714,-189.0567 944.5929,-170.3179 965.0528,-159.0817"/>
<polygon fill="#191970" stroke="#191970" points="885.06,-199.019 877.9796,-206.9005 888.4296,-205.1546 885.06,-199.019"/>
</g>
<!-- Node85 -->
<g id="node8" class="node">
<title>Node85</title>
<g id="a_node8"><a xlink:href="TGFileDialog_8cxx.html" target="_top" xlink:title="gui/gui/src/TGFileDialog.cxx">
<polygon fill="#ffffff" stroke="#000000" points="667.5,-73 667.5,-92 819.5,-92 819.5,-73 667.5,-73"/>
<text text-anchor="middle" x="743.5" y="-80" font-family="Helvetica,sans-Serif" font-size="10.00" fill="#000000">gui/gui/src/TGFileDialog.cxx</text>
</a>
</g>
</g>
<!-- Node82&#45;&gt;Node85 -->
<g id="edge12" class="edge">
<title>Node82&#45;&gt;Node85</title>
<path fill="none" stroke="#191970" d="M864.6103,-196.9174C867.2372,-178.9607 868.1172,-152.4358 855.5,-134 840.5723,-112.1881 813.9816,-99.4357 790.4551,-92.078"/>
<polygon fill="#191970" stroke="#191970" points="861.1503,-196.3849 862.854,-206.8418 868.0432,-197.6048 861.1503,-196.3849"/>
</g>
<!-- Node82&#45;&gt;Node87 -->
<g id="edge14" class="edge">
<title>Node82&#45;&gt;Node87</title>
<path fill="none" stroke="#191970" d="M927.4509,-205.0521C978.6144,-195.3403 1044.0525,-180.542 1066.5,-165 1091.1186,-147.9548 1108.3866,-116.5723 1117.0682,-97.8127"/>
<polygon fill="#191970" stroke="#191970" points="926.6125,-201.6481 917.4255,-206.9253 927.8982,-208.529 926.6125,-201.6481"/>
</g>
<!-- Node88 -->
<g id="node11" class="node">
<title>Node88</title>
<g id="a_node11"><a xlink:href="TSessionDialogs_8cxx.html" target="_top" xlink:title="gui/sessionviewer/src\l/TSessionDialogs.cxx">
<polygon fill="#ffffff" stroke="#000000" points="973.5,-.5 973.5,-30.5 1095.5,-30.5 1095.5,-.5 973.5,-.5"/>
<text text-anchor="start" x="981.5" y="-18.5" font-family="Helvetica,sans-Serif" font-size="10.00" fill="#000000">gui/sessionviewer/src</text>
<text text-anchor="middle" x="1034.5" y="-7.5" font-family="Helvetica,sans-Serif" font-size="10.00" fill="#000000">/TSessionDialogs.cxx</text>
</a>
</g>
</g>
<!-- Node82&#45;&gt;Node88 -->
<g id="edge22" class="edge">
<title>Node82&#45;&gt;Node88</title>
<path fill="none" stroke="#191970" d="M855.5758,-197.1966C849.7099,-178.2013 838.0234,-149.8133 817.5,-134 760.1054,-89.7775 703.7244,-154.6086 658.5,-98 649.9003,-87.2356 649.4428,-77.3824 658.5,-67 678.8571,-43.6645 872.094,-26.8287 973.3148,-19.5312"/>
<polygon fill="#191970" stroke="#191970" points="852.2271,-198.2172 858.3176,-206.8865 858.9627,-196.3114 852.2271,-198.2172"/>
</g>
<!-- Node89 -->
<g id="node12" class="node">
<title>Node89</title>
<g id="a_node12"><a xlink:href="TGCanvas_8cxx.html" target="_top" xlink:title="gui/gui/src/TGCanvas.cxx">
<polygon fill="#ffffff" stroke="#000000" points="473.5,-140 473.5,-159 613.5,-159 613.5,-140 473.5,-140"/>
<text text-anchor="middle" x="543.5" y="-147" font-family="Helvetica,sans-Serif" font-size="10.00" fill="#000000">gui/gui/src/TGCanvas.cxx</text>
</a>
</g>
</g>
<!-- Node82&#45;&gt;Node89 -->
<g id="edge11" class="edge">
<title>Node82&#45;&gt;Node89</title>
<path fill="none" stroke="#191970" d="M805.5162,-204.8788C744.0934,-191.8967 645.8077,-171.1234 588.6825,-159.0496"/>
<polygon fill="#191970" stroke="#191970" points="804.9106,-208.3281 815.4183,-206.9717 806.3582,-201.4794 804.9106,-208.3281"/>
</g>
<!-- Node90 -->
<g id="node13" class="node">
<title>Node90</title>
<g id="a_node13"><a xlink:href="TGListView_8cxx.html" target="_top" xlink:title="gui/gui/src/TGListView.cxx">
<polygon fill="#ffffff" stroke="#000000" points="631.5,-140 631.5,-159 775.5,-159 775.5,-140 631.5,-140"/>
<text text-anchor="middle" x="703.5" y="-147" font-family="Helvetica,sans-Serif" font-size="10.00" fill="#000000">gui/gui/src/TGListView.cxx</text>
</a>
</g>
</g>
<!-- Node82&#45;&gt;Node90 -->
<g id="edge13" class="edge">
<title>Node82&#45;&gt;Node90</title>
<path fill="none" stroke="#191970" d="M828.6591,-202.9118C798.1442,-189.8895 752.8646,-170.5664 725.9525,-159.0817"/>
<polygon fill="#191970" stroke="#191970" points="827.4344,-206.1946 838.0057,-206.9005 830.182,-199.7563 827.4344,-206.1946"/>
</g>
<!-- Node91 -->
<g id="node14" class="node">
<title>Node91</title>
<g id="a_node14"><a xlink:href="TSessionViewer_8h.html" target="_top" xlink:title="gui/sessionviewer/inc\l/TSessionViewer.h">
<polygon fill="#ffffff" stroke="#000000" points="1248.5,-134.5 1248.5,-164.5 1370.5,-164.5 1370.5,-134.5 1248.5,-134.5"/>
<text text-anchor="start" x="1256.5" y="-152.5" font-family="Helvetica,sans-Serif" font-size="10.00" fill="#000000">gui/sessionviewer/inc</text>
<text text-anchor="middle" x="1309.5" y="-141.5" font-family="Helvetica,sans-Serif" font-size="10.00" fill="#000000">/TSessionViewer.h</text>
</a>
</g>
</g>
<!-- Node82&#45;&gt;Node91 -->
<g id="edge15" class="edge">
<title>Node82&#45;&gt;Node91</title>
<path fill="none" stroke="#191970" d="M934.4979,-205.458C1022.2102,-192.3695 1166.7407,-170.8026 1248.3858,-158.6195"/>
<polygon fill="#191970" stroke="#191970" points="933.7278,-202.0341 924.3539,-206.9717 934.761,-208.9574 933.7278,-202.0341"/>
</g>
<!-- Node82&#45;&gt;Node93 -->
<g id="edge23" class="edge">
<title>Node82&#45;&gt;Node93</title>
<path fill="none" stroke="#191970" d="M937.3105,-211.5698C1060.7536,-203.1935 1297.7215,-185.122 1379.5,-165 1456.7562,-145.9907 1495.6192,-159.9821 1545.5,-98 1560.9839,-78.7596 1562.077,-48.6921 1561.0639,-30.6618"/>
<polygon fill="#191970" stroke="#191970" points="936.9167,-208.0883 927.1748,-212.2531 937.3876,-215.0725 936.9167,-208.0883"/>
</g>
<!-- Node95 -->
<g id="node18" class="node">
<title>Node95</title>
<g id="a_node18"><a xlink:href="TTVLVContainer_8h.html" target="_top" xlink:title="tree/treeviewer/inc\l/TTVLVContainer.h">
<polygon fill="#ffffff" stroke="#000000" points="156,-134.5 156,-164.5 265,-164.5 265,-134.5 156,-134.5"/>
<text text-anchor="start" x="164" y="-152.5" font-family="Helvetica,sans-Serif" font-size="10.00" fill="#000000">tree/treeviewer/inc</text>
<text text-anchor="middle" x="210.5" y="-141.5" font-family="Helvetica,sans-Serif" font-size="10.00" fill="#000000">/TTVLVContainer.h</text>
</a>
</g>
</g>
<!-- Node82&#45;&gt;Node95 -->
<g id="edge24" class="edge">
<title>Node82&#45;&gt;Node95</title>
<path fill="none" stroke="#191970" d="M783.7453,-210.6778C677.6242,-202.3112 480.1828,-185.6028 312.5,-165 297.1221,-163.1106 280.4909,-160.7283 265.2091,-158.402"/>
<polygon fill="#191970" stroke="#191970" points="783.4826,-214.1679 793.7259,-211.4613 784.0305,-207.1894 783.4826,-214.1679"/>
</g>
<!-- Node82&#45;&gt;Node96 -->
<g id="edge28" class="edge">
<title>Node82&#45;&gt;Node96</title>
<path fill="none" stroke="#191970" d="M849.3715,-198.1655C836.428,-178.6395 813.1326,-148.5826 784.5,-134 717.8337,-100.0469 499.3752,-88.0079 396.2848,-84.1459"/>
<polygon fill="#191970" stroke="#191970" points="846.5442,-200.2414 854.8721,-206.791 852.4463,-196.4776 846.5442,-200.2414"/>
</g>
<!-- Node84&#45;&gt;Node85 -->
<g id="edge7" class="edge">
<title>Node84&#45;&gt;Node85</title>
<path fill="none" stroke="#191970" d="M938.7458,-137.2342C892.3857,-124.2378 820.1485,-103.9872 777.7588,-92.1039"/>
<polygon fill="#191970" stroke="#191970" points="937.9374,-140.6424 948.5109,-139.9717 939.8269,-133.9022 937.9374,-140.6424"/>
</g>
<!-- Node86 -->
<g id="node9" class="node">
<title>Node86</title>
<g id="a_node9"><a xlink:href="TGFSContainer_8cxx.html" target="_top" xlink:title="gui/gui/src/TGFSContainer.cxx">
<polygon fill="#ffffff" stroke="#000000" points="876,-73 876,-92 1037,-92 1037,-73 876,-73"/>
<text text-anchor="middle" x="956.5" y="-80" font-family="Helvetica,sans-Serif" font-size="10.00" fill="#000000">gui/gui/src/TGFSContainer.cxx</text>
</a>
</g>
</g>
<!-- Node84&#45;&gt;Node86 -->
<g id="edge8" class="edge">
<title>Node84&#45;&gt;Node86</title>
<path fill="none" stroke="#191970" d="M975.0736,-130.3628C970.2157,-117.8444 964.0769,-102.0252 960.2183,-92.0817"/>
<polygon fill="#191970" stroke="#191970" points="971.8941,-131.8441 978.7748,-139.9005 978.42,-129.3116 971.8941,-131.8441"/>
</g>
<!-- Node84&#45;&gt;Node87 -->
<g id="edge9" class="edge">
<title>Node84&#45;&gt;Node87</title>
<path fill="none" stroke="#191970" d="M1011.7924,-135.5809C1035.185,-124.4653 1067.9046,-108.9177 1091.887,-97.5218"/>
<polygon fill="#191970" stroke="#191970" points="1010.2319,-132.4473 1002.7019,-139.9005 1013.2362,-138.7699 1010.2319,-132.4473"/>
</g>
<!-- Node84&#45;&gt;Node88 -->
<g id="edge10" class="edge">
<title>Node84&#45;&gt;Node88</title>
<path fill="none" stroke="#191970" d="M936.388,-136.7824C895.0135,-122.9988 844.1299,-98.6631 867.5,-67 880.3826,-49.546 930.9814,-35.522 973.1406,-26.5422"/>
<polygon fill="#191970" stroke="#191970" points="935.5214,-140.1798 946.1123,-139.8923 937.6537,-133.5125 935.5214,-140.1798"/>
</g>
<!-- Node91&#45;&gt;Node88 -->
<g id="edge19" class="edge">
<title>Node91&#45;&gt;Node88</title>
<path fill="none" stroke="#191970" d="M1280.1374,-128.3989C1267.5212,-119.2037 1252.6777,-108.2124 1239.5,-98 1222.272,-84.6487 1220.7137,-77.2906 1201.5,-67 1168.4689,-49.3089 1128.4416,-36.7013 1095.8557,-28.3897"/>
<polygon fill="#191970" stroke="#191970" points="1278.3193,-131.404 1288.468,-134.4462 1282.4315,-125.7392 1278.3193,-131.404"/>
</g>
<!-- Node92 -->
<g id="node15" class="node">
<title>Node92</title>
<g id="a_node15"><a xlink:href="TSessionDialogs_8h.html" target="_top" xlink:title="gui/sessionviewer/inc\l/TSessionDialogs.h">
<polygon fill="#ffffff" stroke="#000000" points="1248.5,-67.5 1248.5,-97.5 1370.5,-97.5 1370.5,-67.5 1248.5,-67.5"/>
<text text-anchor="start" x="1256.5" y="-85.5" font-family="Helvetica,sans-Serif" font-size="10.00" fill="#000000">gui/sessionviewer/inc</text>
<text text-anchor="middle" x="1309.5" y="-74.5" font-family="Helvetica,sans-Serif" font-size="10.00" fill="#000000">/TSessionDialogs.h</text>
</a>
</g>
</g>
<!-- Node91&#45;&gt;Node92 -->
<g id="edge16" class="edge">
<title>Node91&#45;&gt;Node92</title>
<path fill="none" stroke="#191970" d="M1309.5,-124.0249C1309.5,-115.128 1309.5,-105.4287 1309.5,-97.6432"/>
<polygon fill="#191970" stroke="#191970" points="1306.0001,-124.2966 1309.5,-134.2967 1313.0001,-124.2967 1306.0001,-124.2966"/>
</g>
<!-- Node91&#45;&gt;Node93 -->
<g id="edge21" class="edge">
<title>Node91&#45;&gt;Node93</title>
<path fill="none" stroke="#191970" d="M1380.6097,-139.0253C1433.4861,-130.0067 1500.0377,-115.6679 1521.5,-98 1542.4405,-80.7616 1552.396,-49.4455 1556.6747,-30.7503"/>
<polygon fill="#191970" stroke="#191970" points="1379.8589,-135.6022 1370.5724,-140.7022 1381.0124,-142.5065 1379.8589,-135.6022"/>
</g>
<!-- Node94 -->
<g id="node17" class="node">
<title>Node94</title>
<g id="a_node17"><a xlink:href="TSessionLogView_8cxx.html" target="_top" xlink:title="gui/sessionviewer/src\l/TSessionLogView.cxx">
<polygon fill="#ffffff" stroke="#000000" points="1388.5,-67.5 1388.5,-97.5 1512.5,-97.5 1512.5,-67.5 1388.5,-67.5"/>
<text text-anchor="start" x="1396.5" y="-85.5" font-family="Helvetica,sans-Serif" font-size="10.00" fill="#000000">gui/sessionviewer/src</text>
<text text-anchor="middle" x="1450.5" y="-74.5" font-family="Helvetica,sans-Serif" font-size="10.00" fill="#000000">/TSessionLogView.cxx</text>
</a>
</g>
</g>
<!-- Node91&#45;&gt;Node94 -->
<g id="edge20" class="edge">
<title>Node91&#45;&gt;Node94</title>
<path fill="none" stroke="#191970" d="M1350.4283,-130.0518C1372.0941,-119.7567 1398.3108,-107.2991 1418.4746,-97.7177"/>
<polygon fill="#191970" stroke="#191970" points="1348.6731,-127.0107 1341.1432,-134.4639 1351.6775,-133.3332 1348.6731,-127.0107"/>
</g>
<!-- Node92&#45;&gt;Node88 -->
<g id="edge17" class="edge">
<title>Node92&#45;&gt;Node88</title>
<path fill="none" stroke="#191970" d="M1238.6584,-65.2404C1194.4538,-54.4706 1138.124,-40.7466 1095.8357,-30.4436"/>
<polygon fill="#191970" stroke="#191970" points="1237.9243,-68.6639 1248.4686,-67.6305 1239.5813,-61.8628 1237.9243,-68.6639"/>
</g>
<!-- Node92&#45;&gt;Node93 -->
<g id="edge18" class="edge">
<title>Node92&#45;&gt;Node93</title>
<path fill="none" stroke="#191970" d="M1375.4711,-64.8198C1415.2074,-54.1704 1465.2741,-40.7525 1503.1504,-30.6017"/>
<polygon fill="#191970" stroke="#191970" points="1374.358,-61.4945 1365.6049,-67.4639 1376.1701,-68.2559 1374.358,-61.4945"/>
</g>
<!-- Node95&#45;&gt;Node96 -->
<g id="edge25" class="edge">
<title>Node95&#45;&gt;Node96</title>
<path fill="none" stroke="#191970" d="M249.0682,-129.7743C269.0913,-119.5335 293.1802,-107.2132 311.7459,-97.7177"/>
<polygon fill="#191970" stroke="#191970" points="247.2083,-126.7942 239.899,-134.4639 250.3958,-133.0264 247.2083,-126.7942"/>
</g>
<!-- Node97 -->
<g id="node20" class="node">
<title>Node97</title>
<g id="a_node20"><a xlink:href="TTVLVContainer_8cxx.html" target="_top" xlink:title="tree/treeviewer/src\l/TTVLVContainer.cxx">
<polygon fill="#ffffff" stroke="#000000" points="152.5,-67.5 152.5,-97.5 268.5,-97.5 268.5,-67.5 152.5,-67.5"/>
<text text-anchor="start" x="160.5" y="-85.5" font-family="Helvetica,sans-Serif" font-size="10.00" fill="#000000">tree/treeviewer/src</text>
<text text-anchor="middle" x="210.5" y="-74.5" font-family="Helvetica,sans-Serif" font-size="10.00" fill="#000000">/TTVLVContainer.cxx</text>
</a>
</g>
</g>
<!-- Node95&#45;&gt;Node97 -->
<g id="edge26" class="edge">
<title>Node95&#45;&gt;Node97</title>
<path fill="none" stroke="#191970" d="M210.5,-124.0249C210.5,-115.128 210.5,-105.4287 210.5,-97.6432"/>
<polygon fill="#191970" stroke="#191970" points="207.0001,-124.2966 210.5,-134.2967 214.0001,-124.2967 207.0001,-124.2966"/>
</g>
<!-- Node98 -->
<g id="node21" class="node">
<title>Node98</title>
<g id="a_node21"><a xlink:href="TTVSession_8cxx.html" target="_top" xlink:title="tree/treeviewer/src\l/TTVSession.cxx">
<polygon fill="#ffffff" stroke="#000000" points="25,-67.5 25,-97.5 134,-97.5 134,-67.5 25,-67.5"/>
<text text-anchor="start" x="33" y="-85.5" font-family="Helvetica,sans-Serif" font-size="10.00" fill="#000000">tree/treeviewer/src</text>
<text text-anchor="middle" x="79.5" y="-74.5" font-family="Helvetica,sans-Serif" font-size="10.00" fill="#000000">/TTVSession.cxx</text>
</a>
</g>
</g>
<!-- Node95&#45;&gt;Node98 -->
<g id="edge27" class="edge">
<title>Node95&#45;&gt;Node98</title>
<path fill="none" stroke="#191970" d="M171.9318,-129.7743C151.9087,-119.5335 127.8198,-107.2132 109.2541,-97.7177"/>
<polygon fill="#191970" stroke="#191970" points="170.6042,-133.0264 181.101,-134.4639 173.7917,-126.7942 170.6042,-133.0264"/>
</g>
</g>
</svg>
