<?xml version="1.0" encoding="UTF-8" standalone="no"?>
<!DOCTYPE svg PUBLIC "-//W3C//DTD SVG 1.1//EN"
 "http://www.w3.org/Graphics/SVG/1.1/DTD/svg11.dtd">
<!-- Generated by graphviz version 2.40.1 (0)
 -->
<!-- Title: gui/gui/inc/TGStatusBar.h Pages: 1 -->
<svg width="2185pt" height="95pt"
 viewBox="0.00 0.00 2185.00 95.00" xmlns="http://www.w3.org/2000/svg" xmlns:xlink="http://www.w3.org/1999/xlink">
<g id="graph0" class="graph" transform="scale(1 1) rotate(0) translate(4 91)">
<title>gui/gui/inc/TGStatusBar.h</title>
<polygon fill="#ffffff" stroke="transparent" points="-4,4 -4,-91 2181,-91 2181,4 -4,4"/>
<!-- Node78 -->
<g id="node1" class="node">
<title>Node78</title>
<polygon fill="#bfbfbf" stroke="#000000" points="1090,-67.5 1090,-86.5 1229,-86.5 1229,-67.5 1090,-67.5"/>
<text text-anchor="middle" x="1159.5" y="-74.5" font-family="Helvetica,sans-Serif" font-size="10.00" fill="#000000">gui/gui/inc/TGStatusBar.h</text>
</g>
<!-- Node79 -->
<g id="node2" class="node">
<title>Node79</title>
<g id="a_node2"><a xlink:href="TEveBrowser_8cxx.html" target="_top" xlink:title="graf3d/eve/src/TEveBrowser.cxx">
<polygon fill="#ffffff" stroke="#000000" points="0,-6 0,-25 173,-25 173,-6 0,-6"/>
<text text-anchor="middle" x="86.5" y="-13" font-family="Helvetica,sans-Serif" font-size="10.00" fill="#000000">graf3d/eve/src/TEveBrowser.cxx</text>
</a>
</g>
</g>
<!-- Node78&#45;&gt;Node79 -->
<g id="edge1" class="edge">
<title>Node78&#45;&gt;Node79</title>
<path fill="none" stroke="#191970" d="M1079.7384,-76.3436C912.6713,-74.2883 513.917,-65.8197 181.5,-31 167.3728,-29.5202 152.1537,-27.3143 138.1252,-25.0276"/>
<polygon fill="#191970" stroke="#191970" points="1079.8838,-79.8455 1089.9247,-76.4644 1079.9669,-72.846 1079.8838,-79.8455"/>
</g>
<!-- Node80 -->
<g id="node3" class="node">
<title>Node80</title>
<g id="a_node3"><a xlink:href="TEveManager_8cxx.html" target="_top" xlink:title="graf3d/eve/src/TEveManager.cxx">
<polygon fill="#ffffff" stroke="#000000" points="191,-6 191,-25 366,-25 366,-6 191,-6"/>
<text text-anchor="middle" x="278.5" y="-13" font-family="Helvetica,sans-Serif" font-size="10.00" fill="#000000">graf3d/eve/src/TEveManager.cxx</text>
</a>
</g>
</g>
<!-- Node78&#45;&gt;Node80 -->
<g id="edge2" class="edge">
<title>Node78&#45;&gt;Node80</title>
<path fill="none" stroke="#191970" d="M1079.6347,-74.998C937.4757,-70.8382 631.338,-59.1858 374.5,-31 360.4872,-29.4622 345.4023,-27.2786 331.4355,-25.034"/>
<polygon fill="#191970" stroke="#191970" points="1079.8992,-78.507 1089.9959,-75.2964 1080.1008,-71.5099 1079.8992,-78.507"/>
</g>
<!-- Node81 -->
<g id="node4" class="node">
<title>Node81</title>
<g id="a_node4"><a xlink:href="TFitEditor_8cxx.html" target="_top" xlink:title="gui/fitpanel/src/TFitEditor.cxx">
<polygon fill="#ffffff" stroke="#000000" points="384,-6 384,-25 541,-25 541,-6 384,-6"/>
<text text-anchor="middle" x="462.5" y="-13" font-family="Helvetica,sans-Serif" font-size="10.00" fill="#000000">gui/fitpanel/src/TFitEditor.cxx</text>
</a>
</g>
</g>
<!-- Node78&#45;&gt;Node81 -->
<g id="edge3" class="edge">
<title>Node78&#45;&gt;Node81</title>
<path fill="none" stroke="#191970" d="M1079.4627,-73.5465C962.6354,-67.9211 738.7134,-54.9273 549.5,-31 537.019,-29.4217 523.6074,-27.2642 511.1419,-25.0605"/>
<polygon fill="#191970" stroke="#191970" points="1079.589,-77.0564 1089.7441,-74.0358 1079.9218,-70.0643 1079.589,-77.0564"/>
</g>
<!-- Node82 -->
<g id="node5" class="node">
<title>Node82</title>
<g id="a_node5"><a xlink:href="TStyleManager_8cxx.html" target="_top" xlink:title="gui/ged/src/TStyleManager.cxx">
<polygon fill="#ffffff" stroke="#000000" points="559,-6 559,-25 724,-25 724,-6 559,-6"/>
<text text-anchor="middle" x="641.5" y="-13" font-family="Helvetica,sans-Serif" font-size="10.00" fill="#000000">gui/ged/src/TStyleManager.cxx</text>
</a>
</g>
</g>
<!-- Node78&#45;&gt;Node82 -->
<g id="edge4" class="edge">
<title>Node78&#45;&gt;Node82</title>
<path fill="none" stroke="#191970" d="M1079.8075,-69.8194C994.0913,-61.7635 853.8776,-47.6248 733.5,-31 720.9849,-29.2716 707.5554,-27.1575 694.9306,-25.0532"/>
<polygon fill="#191970" stroke="#191970" points="1079.703,-73.3248 1089.9855,-70.7714 1080.355,-66.3552 1079.703,-73.3248"/>
</g>
<!-- Node83 -->
<g id="node6" class="node">
<title>Node83</title>
<g id="a_node6"><a xlink:href="TGStatusBar_8cxx.html" target="_top" xlink:title="gui/gui/src/TGStatusBar.cxx">
<polygon fill="#ffffff" stroke="#000000" points="742.5,-6 742.5,-25 892.5,-25 892.5,-6 742.5,-6"/>
<text text-anchor="middle" x="817.5" y="-13" font-family="Helvetica,sans-Serif" font-size="10.00" fill="#000000">gui/gui/src/TGStatusBar.cxx</text>
</a>
</g>
</g>
<!-- Node78&#45;&gt;Node83 -->
<g id="edge5" class="edge">
<title>Node78&#45;&gt;Node83</title>
<path fill="none" stroke="#191970" d="M1095.5003,-65.6998C1043.2818,-56.4531 967.6018,-42.9914 901.5,-31 890.9942,-29.0942 879.7534,-27.0343 869.022,-25.0578"/>
<polygon fill="#191970" stroke="#191970" points="1095.1644,-69.1946 1105.6214,-67.4912 1096.3845,-62.3018 1095.1644,-69.1946"/>
</g>
<!-- Node84 -->
<g id="node7" class="node">
<title>Node84</title>
<g id="a_node7"><a xlink:href="TGTextEditor_8cxx.html" target="_top" xlink:title="gui/gui/src/TGTextEditor.cxx">
<polygon fill="#ffffff" stroke="#000000" points="910.5,-6 910.5,-25 1062.5,-25 1062.5,-6 910.5,-6"/>
<text text-anchor="middle" x="986.5" y="-13" font-family="Helvetica,sans-Serif" font-size="10.00" fill="#000000">gui/gui/src/TGTextEditor.cxx</text>
</a>
</g>
</g>
<!-- Node78&#45;&gt;Node84 -->
<g id="edge6" class="edge">
<title>Node78&#45;&gt;Node84</title>
<path fill="none" stroke="#191970" d="M1122.7913,-63.9504C1089.995,-52.2916 1042.7185,-35.4852 1013.3414,-25.0419"/>
<polygon fill="#191970" stroke="#191970" points="1121.874,-67.3388 1132.4688,-67.3906 1124.2188,-60.7432 1121.874,-67.3388"/>
</g>
<!-- Node85 -->
<g id="node8" class="node">
<title>Node85</title>
<g id="a_node8"><a xlink:href="TRootBrowser_8cxx.html" target="_top" xlink:title="gui/gui/src/TRootBrowser.cxx">
<polygon fill="#ffffff" stroke="#000000" points="1081,-6 1081,-25 1238,-25 1238,-6 1081,-6"/>
<text text-anchor="middle" x="1159.5" y="-13" font-family="Helvetica,sans-Serif" font-size="10.00" fill="#000000">gui/gui/src/TRootBrowser.cxx</text>
</a>
</g>
</g>
<!-- Node78&#45;&gt;Node85 -->
<g id="edge7" class="edge">
<title>Node78&#45;&gt;Node85</title>
<path fill="none" stroke="#191970" d="M1159.5,-57.2462C1159.5,-46.5519 1159.5,-33.814 1159.5,-25.2449"/>
<polygon fill="#191970" stroke="#191970" points="1156.0001,-57.3906 1159.5,-67.3906 1163.0001,-57.3907 1156.0001,-57.3906"/>
</g>
<!-- Node86 -->
<g id="node9" class="node">
<title>Node86</title>
<g id="a_node9"><a xlink:href="TRootBrowserLite_8cxx.html" target="_top" xlink:title="gui/gui/src/TRootBrowser\lLite.cxx">
<polygon fill="#ffffff" stroke="#000000" points="1256,-.5 1256,-30.5 1393,-30.5 1393,-.5 1256,-.5"/>
<text text-anchor="start" x="1264" y="-18.5" font-family="Helvetica,sans-Serif" font-size="10.00" fill="#000000">gui/gui/src/TRootBrowser</text>
<text text-anchor="middle" x="1324.5" y="-7.5" font-family="Helvetica,sans-Serif" font-size="10.00" fill="#000000">Lite.cxx</text>
</a>
</g>
</g>
<!-- Node78&#45;&gt;Node86 -->
<g id="edge8" class="edge">
<title>Node78&#45;&gt;Node86</title>
<path fill="none" stroke="#191970" d="M1194.8191,-63.8356C1221.0255,-54.0678 1256.7997,-40.7338 1284.1365,-30.5446"/>
<polygon fill="#191970" stroke="#191970" points="1193.4291,-60.6184 1185.2813,-67.3906 1195.8739,-67.1776 1193.4291,-60.6184"/>
</g>
<!-- Node87 -->
<g id="node10" class="node">
<title>Node87</title>
<g id="a_node10"><a xlink:href="TRootCanvas_8cxx.html" target="_top" xlink:title="gui/gui/src/TRootCanvas.cxx">
<polygon fill="#ffffff" stroke="#000000" points="1411.5,-6 1411.5,-25 1565.5,-25 1565.5,-6 1411.5,-6"/>
<text text-anchor="middle" x="1488.5" y="-13" font-family="Helvetica,sans-Serif" font-size="10.00" fill="#000000">gui/gui/src/TRootCanvas.cxx</text>
</a>
</g>
</g>
<!-- Node78&#45;&gt;Node87 -->
<g id="edge9" class="edge">
<title>Node78&#45;&gt;Node87</title>
<path fill="none" stroke="#191970" d="M1220.6604,-65.5673C1283.1618,-53.8839 1379.1127,-35.9478 1437.6057,-25.0137"/>
<polygon fill="#191970" stroke="#191970" points="1219.7319,-62.1801 1210.5453,-67.4581 1221.0182,-69.061 1219.7319,-62.1801"/>
</g>
<!-- Node88 -->
<g id="node11" class="node">
<title>Node88</title>
<g id="a_node11"><a xlink:href="TRootGuiBuilder_8cxx.html" target="_top" xlink:title="gui/guibuilder/src\l/TRootGuiBuilder.cxx">
<polygon fill="#ffffff" stroke="#000000" points="1583.5,-.5 1583.5,-30.5 1701.5,-30.5 1701.5,-.5 1583.5,-.5"/>
<text text-anchor="start" x="1591.5" y="-18.5" font-family="Helvetica,sans-Serif" font-size="10.00" fill="#000000">gui/guibuilder/src</text>
<text text-anchor="middle" x="1642.5" y="-7.5" font-family="Helvetica,sans-Serif" font-size="10.00" fill="#000000">/TRootGuiBuilder.cxx</text>
</a>
</g>
</g>
<!-- Node78&#45;&gt;Node88 -->
<g id="edge10" class="edge">
<title>Node78&#45;&gt;Node88</title>
<path fill="none" stroke="#191970" d="M1239.4422,-70.8551C1323.2867,-63.7764 1458.7098,-50.5488 1574.5,-31 1577.3655,-30.5162 1580.2913,-29.9869 1583.241,-29.4249"/>
<polygon fill="#191970" stroke="#191970" points="1238.8991,-67.3882 1229.2253,-71.7087 1239.482,-74.3639 1238.8991,-67.3882"/>
</g>
<!-- Node89 -->
<g id="node12" class="node">
<title>Node89</title>
<g id="a_node12"><a xlink:href="TGHtmlBrowser_8cxx.html" target="_top" xlink:title="gui/guihtml/src/TGHtmlBrowser.cxx">
<polygon fill="#ffffff" stroke="#000000" points="1720,-6 1720,-25 1909,-25 1909,-6 1720,-6"/>
<text text-anchor="middle" x="1814.5" y="-13" font-family="Helvetica,sans-Serif" font-size="10.00" fill="#000000">gui/guihtml/src/TGHtmlBrowser.cxx</text>
</a>
</g>
</g>
<!-- Node78&#45;&gt;Node89 -->
<g id="edge11" class="edge">
<title>Node78&#45;&gt;Node89</title>
<path fill="none" stroke="#191970" d="M1239.331,-71.9612C1346.6521,-64.8159 1543.3069,-50.4175 1710.5,-31 1725.0065,-29.3152 1740.6027,-27.1698 1755.1908,-25.0161"/>
<polygon fill="#191970" stroke="#191970" points="1238.9749,-68.477 1229.2279,-72.6299 1239.4373,-75.4617 1238.9749,-68.477"/>
</g>
<!-- Node90 -->
<g id="node13" class="node">
<title>Node90</title>
<g id="a_node13"><a xlink:href="TSessionViewer_8cxx.html" target="_top" xlink:title="gui/sessionviewer/src\l/TSessionViewer.cxx">
<polygon fill="#ffffff" stroke="#000000" points="1927.5,-.5 1927.5,-30.5 2049.5,-30.5 2049.5,-.5 1927.5,-.5"/>
<text text-anchor="start" x="1935.5" y="-18.5" font-family="Helvetica,sans-Serif" font-size="10.00" fill="#000000">gui/sessionviewer/src</text>
<text text-anchor="middle" x="1988.5" y="-7.5" font-family="Helvetica,sans-Serif" font-size="10.00" fill="#000000">/TSessionViewer.cxx</text>
</a>
</g>
</g>
<!-- Node78&#45;&gt;Node90 -->
<g id="edge12" class="edge">
<title>Node78&#45;&gt;Node90</title>
<path fill="none" stroke="#191970" d="M1239.467,-73.7508C1406.8404,-66.6885 1789.2453,-49.1123 1918.5,-31 1921.3351,-30.6027 1924.2259,-30.1517 1927.1393,-29.6598"/>
<polygon fill="#191970" stroke="#191970" points="1239.0853,-70.2637 1229.2411,-74.1805 1239.3792,-77.2575 1239.0853,-70.2637"/>
</g>
<!-- Node91 -->
<g id="node14" class="node">
<title>Node91</title>
<g id="a_node14"><a xlink:href="TTreeViewer_8cxx.html" target="_top" xlink:title="tree/treeviewer/src\l/TTreeViewer.cxx">
<polygon fill="#ffffff" stroke="#000000" points="2068,-.5 2068,-30.5 2177,-30.5 2177,-.5 2068,-.5"/>
<text text-anchor="start" x="2076" y="-18.5" font-family="Helvetica,sans-Serif" font-size="10.00" fill="#000000">tree/treeviewer/src</text>
<text text-anchor="middle" x="2122.5" y="-7.5" font-family="Helvetica,sans-Serif" font-size="10.00" fill="#000000">/TTreeViewer.cxx</text>
</a>
</g>
</g>
<!-- Node78&#45;&gt;Node91 -->
<g id="edge13" class="edge">
<title>Node78&#45;&gt;Node91</title>
<path fill="none" stroke="#191970" d="M1239.2611,-74.8272C1428.7154,-69.3575 1901.6089,-53.8087 2058.5,-31 2061.5546,-30.5559 2064.6768,-30.0331 2067.8184,-29.4531"/>
<polygon fill="#191970" stroke="#191970" points="1238.991,-71.3334 1229.0955,-75.1188 1239.1918,-78.3305 1238.991,-71.3334"/>
</g>
</g>
</svg>
