<?xml version="1.0" encoding="UTF-8" standalone="no"?>
<!DOCTYPE svg PUBLIC "-//W3C//DTD SVG 1.1//EN"
 "http://www.w3.org/Graphics/SVG/1.1/DTD/svg11.dtd">
<!-- Generated by graphviz version 2.40.1 (0)
 -->
<!-- Title: gui/guibuilder/inc/TGuiBldDragManager.h Pages: 1 -->
<svg width="1990pt" height="1114pt"
 viewBox="0.00 0.00 1989.73 1114.00" xmlns="http://www.w3.org/2000/svg" xmlns:xlink="http://www.w3.org/1999/xlink">
<g id="graph0" class="graph" transform="scale(1 1) rotate(0) translate(4 1110)">
<title>gui/guibuilder/inc/TGuiBldDragManager.h</title>
<polygon fill="#ffffff" stroke="transparent" points="-4,4 -4,-1110 1985.7266,-1110 1985.7266,4 -4,4"/>
<!-- Node0 -->
<g id="node1" class="node">
<title>Node0</title>
<polygon fill="#bfbfbf" stroke="#000000" points="1170.2266,-1075.5 1170.2266,-1105.5 1301.2266,-1105.5 1301.2266,-1075.5 1170.2266,-1075.5"/>
<text text-anchor="start" x="1178.2266" y="-1093.5" font-family="Helvetica,sans-Serif" font-size="10.00" fill="#000000">gui/guibuilder/inc</text>
<text text-anchor="middle" x="1235.7266" y="-1082.5" font-family="Helvetica,sans-Serif" font-size="10.00" fill="#000000">/TGuiBldDragManager.h</text>
</g>
<!-- Node1 -->
<g id="node2" class="node">
<title>Node1</title>
<g id="a_node2"><a xlink:href="TGFrame_8h.html" target="_top" xlink:title="TGFrame.h">
<polygon fill="#ffffff" stroke="#000000" points="1201.2266,-963.5 1201.2266,-982.5 1270.2266,-982.5 1270.2266,-963.5 1201.2266,-963.5"/>
<text text-anchor="middle" x="1235.7266" y="-970.5" font-family="Helvetica,sans-Serif" font-size="10.00" fill="#000000">TGFrame.h</text>
</a>
</g>
</g>
<!-- Node0&#45;&gt;Node1 -->
<g id="edge1" class="edge">
<title>Node0&#45;&gt;Node1</title>
<path fill="none" stroke="#191970" d="M1224.1004,-1075.437C1214.5113,-1061.1558 1203.2976,-1038.9746 1208.7266,-1019 1211.4442,-1009.0015 1216.9441,-998.9556 1222.275,-990.8139"/>
<polygon fill="#191970" stroke="#191970" points="1225.2022,-992.7354 1228.0647,-982.5346 1219.4656,-988.7239 1225.2022,-992.7354"/>
</g>
<!-- Node78 -->
<g id="node79" class="node">
<title>Node78</title>
<g id="a_node79"><a xlink:href="TVirtualDragManager_8h.html" target="_top" xlink:title="TVirtualDragManager.h">
<polygon fill="#ffffff" stroke="#000000" points="1217.7266,-1019.5 1217.7266,-1038.5 1345.7266,-1038.5 1345.7266,-1019.5 1217.7266,-1019.5"/>
<text text-anchor="middle" x="1281.7266" y="-1026.5" font-family="Helvetica,sans-Serif" font-size="10.00" fill="#000000">TVirtualDragManager.h</text>
</a>
</g>
</g>
<!-- Node0&#45;&gt;Node78 -->
<g id="edge151" class="edge">
<title>Node0&#45;&gt;Node78</title>
<path fill="none" stroke="#191970" d="M1247.0974,-1075.2977C1253.4827,-1066.7609 1261.4907,-1056.0545 1268.1972,-1047.0883"/>
<polygon fill="#191970" stroke="#191970" points="1271.1746,-1048.9511 1274.3615,-1038.8469 1265.5691,-1044.7584 1271.1746,-1048.9511"/>
</g>
<!-- Node2 -->
<g id="node3" class="node">
<title>Node2</title>
<g id="a_node3"><a xlink:href="TGWindow_8h.html" target="_top" xlink:title="TGWindow.h">
<polygon fill="#ffffff" stroke="#000000" points="1364.2266,-907.5 1364.2266,-926.5 1441.2266,-926.5 1441.2266,-907.5 1364.2266,-907.5"/>
<text text-anchor="middle" x="1402.7266" y="-914.5" font-family="Helvetica,sans-Serif" font-size="10.00" fill="#000000">TGWindow.h</text>
</a>
</g>
</g>
<!-- Node1&#45;&gt;Node2 -->
<g id="edge2" class="edge">
<title>Node1&#45;&gt;Node2</title>
<path fill="none" stroke="#191970" d="M1264.435,-963.3733C1292.0843,-954.1016 1334.0842,-940.0178 1364.5432,-929.804"/>
<polygon fill="#191970" stroke="#191970" points="1366.0246,-932.9989 1374.3929,-926.5011 1363.799,-926.3621 1366.0246,-932.9989"/>
</g>
<!-- Node50 -->
<g id="node51" class="node">
<title>Node50</title>
<g id="a_node51"><a xlink:href="TQObject_8h.html" target="_top" xlink:title="TQObject.h">
<polygon fill="#ffffff" stroke="#000000" points="649.2266,-795.5 649.2266,-814.5 720.2266,-814.5 720.2266,-795.5 649.2266,-795.5"/>
<text text-anchor="middle" x="684.7266" y="-802.5" font-family="Helvetica,sans-Serif" font-size="10.00" fill="#000000">TQObject.h</text>
</a>
</g>
</g>
<!-- Node1&#45;&gt;Node50 -->
<g id="edge132" class="edge">
<title>Node1&#45;&gt;Node50</title>
<path fill="none" stroke="#191970" d="M1204.5238,-963.4862C1110.6827,-934.8741 831.0295,-849.6078 725.5771,-817.4553"/>
<polygon fill="#191970" stroke="#191970" points="726.514,-814.082 715.928,-814.5133 724.4724,-820.7777 726.514,-814.082"/>
</g>
<!-- Node51 -->
<g id="node52" class="node">
<title>Node51</title>
<g id="a_node52"><a xlink:href="TList_8h.html" target="_top" xlink:title="TList.h">
<polygon fill="#ffffff" stroke="#000000" points="454.2266,-683.5 454.2266,-702.5 503.2266,-702.5 503.2266,-683.5 454.2266,-683.5"/>
<text text-anchor="middle" x="478.7266" y="-690.5" font-family="Helvetica,sans-Serif" font-size="10.00" fill="#000000">TList.h</text>
</a>
</g>
</g>
<!-- Node1&#45;&gt;Node51 -->
<g id="edge150" class="edge">
<title>Node1&#45;&gt;Node51</title>
<path fill="none" stroke="#191970" d="M1200.9834,-971.5778C1052.4977,-965.0476 478.7266,-935.0247 478.7266,-861 478.7266,-861 478.7266,-861 478.7266,-805 478.7266,-772.7116 478.7266,-735.1872 478.7266,-712.8048"/>
<polygon fill="#191970" stroke="#191970" points="482.2267,-712.5883 478.7266,-702.5884 475.2267,-712.5884 482.2267,-712.5883"/>
</g>
<!-- Node72 -->
<g id="node73" class="node">
<title>Node72</title>
<g id="a_node73"><a xlink:href="TGDimension_8h.html" target="_top" xlink:title="TGDimension.h">
<polygon fill="#ffffff" stroke="#000000" points="1168.7266,-515.5 1168.7266,-534.5 1260.7266,-534.5 1260.7266,-515.5 1168.7266,-515.5"/>
<text text-anchor="middle" x="1214.7266" y="-522.5" font-family="Helvetica,sans-Serif" font-size="10.00" fill="#000000">TGDimension.h</text>
</a>
</g>
</g>
<!-- Node1&#45;&gt;Node72 -->
<g id="edge133" class="edge">
<title>Node1&#45;&gt;Node72</title>
<path fill="none" stroke="#191970" d="M1229.1959,-963.2931C1217.1667,-944.4432 1192.7266,-901.1986 1192.7266,-861 1192.7266,-861 1192.7266,-861 1192.7266,-637 1192.7266,-604.1132 1201.9726,-566.7958 1208.4766,-544.6138"/>
<polygon fill="#191970" stroke="#191970" points="1211.9119,-545.3474 1211.4805,-534.7614 1205.2162,-543.3059 1211.9119,-545.3474"/>
</g>
<!-- Node73 -->
<g id="node74" class="node">
<title>Node73</title>
<g id="a_node74"><a xlink:href="TGGC_8h.html" target="_top" xlink:title="TGGC.h">
<polygon fill="#ffffff" stroke="#000000" points="1585.2266,-571.5 1585.2266,-590.5 1638.2266,-590.5 1638.2266,-571.5 1585.2266,-571.5"/>
<text text-anchor="middle" x="1611.7266" y="-578.5" font-family="Helvetica,sans-Serif" font-size="10.00" fill="#000000">TGGC.h</text>
</a>
</g>
</g>
<!-- Node1&#45;&gt;Node73 -->
<g id="edge135" class="edge">
<title>Node1&#45;&gt;Node73</title>
<path fill="none" stroke="#191970" d="M1270.4411,-969.4474C1359.2453,-959.403 1587.7266,-927.134 1587.7266,-861 1587.7266,-861 1587.7266,-861 1587.7266,-693 1587.7266,-659.8465 1597.9055,-622.3737 1605.0054,-600.2684"/>
<polygon fill="#191970" stroke="#191970" points="1608.3404,-601.3312 1608.1854,-590.7375 1601.7002,-599.1157 1608.3404,-601.3312"/>
</g>
<!-- Node75 -->
<g id="node76" class="node">
<title>Node75</title>
<g id="a_node76"><a xlink:href="TGFont_8h.html" target="_top" xlink:title="TGFont.h">
<polygon fill="#ffffff" stroke="#000000" points="1506.7266,-571.5 1506.7266,-590.5 1566.7266,-590.5 1566.7266,-571.5 1506.7266,-571.5"/>
<text text-anchor="middle" x="1536.7266" y="-578.5" font-family="Helvetica,sans-Serif" font-size="10.00" fill="#000000">TGFont.h</text>
</a>
</g>
</g>
<!-- Node1&#45;&gt;Node75 -->
<g id="edge139" class="edge">
<title>Node1&#45;&gt;Node75</title>
<path fill="none" stroke="#191970" d="M1270.2399,-970.929C1314.2271,-967.1298 1391.6411,-956.4901 1450.7266,-927 1490.7547,-907.0217 1526.7266,-905.7368 1526.7266,-861 1526.7266,-861 1526.7266,-861 1526.7266,-693 1526.7266,-660.5831 1530.9341,-623.0969 1533.8907,-600.7572"/>
<polygon fill="#191970" stroke="#191970" points="1537.3976,-600.9466 1535.2939,-590.5627 1530.4629,-599.992 1537.3976,-600.9466"/>
</g>
<!-- Node76 -->
<g id="node77" class="node">
<title>Node76</title>
<g id="a_node77"><a xlink:href="TGLayout_8h.html" target="_top" xlink:title="TGLayout.h">
<polygon fill="#ffffff" stroke="#000000" points="1247.7266,-571.5 1247.7266,-590.5 1319.7266,-590.5 1319.7266,-571.5 1247.7266,-571.5"/>
<text text-anchor="middle" x="1283.7266" y="-578.5" font-family="Helvetica,sans-Serif" font-size="10.00" fill="#000000">TGLayout.h</text>
</a>
</g>
</g>
<!-- Node1&#45;&gt;Node76 -->
<g id="edge143" class="edge">
<title>Node1&#45;&gt;Node76</title>
<path fill="none" stroke="#191970" d="M1241.3337,-963.4834C1251.904,-944.6141 1273.7266,-900.8343 1273.7266,-861 1273.7266,-861 1273.7266,-861 1273.7266,-693 1273.7266,-660.5831 1277.9341,-623.0969 1280.8907,-600.7572"/>
<polygon fill="#191970" stroke="#191970" points="1284.3976,-600.9466 1282.2939,-590.5627 1277.4629,-599.992 1284.3976,-600.9466"/>
</g>
<!-- Node77 -->
<g id="node78" class="node">
<title>Node77</title>
<g id="a_node78"><a xlink:href="TGString_8h.html" target="_top" xlink:title="TGString.h">
<polygon fill="#ffffff" stroke="#000000" points="1082.7266,-515.5 1082.7266,-534.5 1150.7266,-534.5 1150.7266,-515.5 1082.7266,-515.5"/>
<text text-anchor="middle" x="1116.7266" y="-522.5" font-family="Helvetica,sans-Serif" font-size="10.00" fill="#000000">TGString.h</text>
</a>
</g>
</g>
<!-- Node1&#45;&gt;Node77 -->
<g id="edge147" class="edge">
<title>Node1&#45;&gt;Node77</title>
<path fill="none" stroke="#191970" d="M1211.9312,-963.4085C1177.204,-947.6512 1116.7266,-912.777 1116.7266,-861 1116.7266,-861 1116.7266,-861 1116.7266,-637 1116.7266,-604.7116 1116.7266,-567.1872 1116.7266,-544.8048"/>
<polygon fill="#191970" stroke="#191970" points="1120.2267,-544.5883 1116.7266,-534.5884 1113.2267,-544.5884 1120.2267,-544.5883"/>
</g>
<!-- Node3 -->
<g id="node4" class="node">
<title>Node3</title>
<g id="a_node4"><a xlink:href="TGObject_8h.html" target="_top" xlink:title="TGObject.h">
<polygon fill="#ffffff" stroke="#000000" points="1431.2266,-515.5 1431.2266,-534.5 1502.2266,-534.5 1502.2266,-515.5 1431.2266,-515.5"/>
<text text-anchor="middle" x="1466.7266" y="-522.5" font-family="Helvetica,sans-Serif" font-size="10.00" fill="#000000">TGObject.h</text>
</a>
</g>
</g>
<!-- Node2&#45;&gt;Node3 -->
<g id="edge3" class="edge">
<title>Node2&#45;&gt;Node3</title>
<path fill="none" stroke="#191970" d="M1408.3337,-907.4834C1418.904,-888.6141 1440.7266,-844.8343 1440.7266,-805 1440.7266,-805 1440.7266,-805 1440.7266,-637 1440.7266,-603.7204 1451.7538,-566.2857 1459.4453,-544.2224"/>
<polygon fill="#191970" stroke="#191970" points="1462.7753,-545.3059 1462.8902,-534.7117 1456.1937,-542.9219 1462.7753,-545.3059"/>
</g>
<!-- Node30 -->
<g id="node31" class="node">
<title>Node30</title>
<g id="a_node31"><a xlink:href="TGClient_8h.html" target="_top" xlink:title="TGClient.h">
<polygon fill="#ffffff" stroke="#000000" points="1330.7266,-851.5 1330.7266,-870.5 1398.7266,-870.5 1398.7266,-851.5 1330.7266,-851.5"/>
<text text-anchor="middle" x="1364.7266" y="-858.5" font-family="Helvetica,sans-Serif" font-size="10.00" fill="#000000">TGClient.h</text>
</a>
</g>
</g>
<!-- Node2&#45;&gt;Node30 -->
<g id="edge41" class="edge">
<title>Node2&#45;&gt;Node30</title>
<path fill="none" stroke="#191970" d="M1396.1075,-907.2455C1390.8221,-899.4564 1383.2725,-888.3308 1376.9029,-878.9439"/>
<polygon fill="#191970" stroke="#191970" points="1379.7811,-876.9522 1371.2699,-870.6427 1373.9888,-880.8827 1379.7811,-876.9522"/>
</g>
<!-- Node66 -->
<g id="node67" class="node">
<title>Node66</title>
<g id="a_node67"><a xlink:href="TVirtualX_8h.html" target="_top" xlink:title="TVirtualX.h">
<polygon fill="#ffffff" stroke="#000000" points="1520.2266,-515.5 1520.2266,-534.5 1591.2266,-534.5 1591.2266,-515.5 1520.2266,-515.5"/>
<text text-anchor="middle" x="1555.7266" y="-522.5" font-family="Helvetica,sans-Serif" font-size="10.00" fill="#000000">TVirtualX.h</text>
</a>
</g>
</g>
<!-- Node2&#45;&gt;Node66 -->
<g id="edge119" class="edge">
<title>Node2&#45;&gt;Node66</title>
<path fill="none" stroke="#191970" d="M1415.2765,-907.4082C1436.8626,-889.7155 1478.7266,-849.6472 1478.7266,-805 1478.7266,-805 1478.7266,-805 1478.7266,-637 1478.7266,-606.4754 1480.7366,-596.3593 1497.7266,-571 1506.0491,-558.5778 1518.7864,-547.9457 1530.2067,-540.0423"/>
<polygon fill="#191970" stroke="#191970" points="1532.1453,-542.9566 1538.5883,-534.546 1528.3066,-537.1029 1532.1453,-542.9566"/>
</g>
<!-- Node4 -->
<g id="node5" class="node">
<title>Node4</title>
<g id="a_node5"><a xlink:href="TObject_8h.html" target="_top" xlink:title="TObject.h">
<polygon fill="#ffffff" stroke="#000000" points="1079.2266,-403.5 1079.2266,-422.5 1142.2266,-422.5 1142.2266,-403.5 1079.2266,-403.5"/>
<text text-anchor="middle" x="1110.7266" y="-410.5" font-family="Helvetica,sans-Serif" font-size="10.00" fill="#000000">TObject.h</text>
</a>
</g>
</g>
<!-- Node3&#45;&gt;Node4 -->
<g id="edge4" class="edge">
<title>Node3&#45;&gt;Node4</title>
<path fill="none" stroke="#191970" d="M1461.1126,-515.478C1451.8372,-500.6892 1431.8191,-472.4995 1406.7266,-459 1363.6,-435.7982 1223.7283,-421.8384 1152.7976,-416.0796"/>
<polygon fill="#191970" stroke="#191970" points="1152.6871,-412.5599 1142.4414,-415.2574 1152.133,-419.5379 1152.6871,-412.5599"/>
</g>
<!-- Node29 -->
<g id="node30" class="node">
<title>Node29</title>
<g id="a_node30"><a xlink:href="GuiTypes_8h.html" target="_top" xlink:title="GuiTypes.h">
<polygon fill="#ffffff" stroke="#000000" points="1327.7266,-459.5 1327.7266,-478.5 1397.7266,-478.5 1397.7266,-459.5 1327.7266,-459.5"/>
<text text-anchor="middle" x="1362.7266" y="-466.5" font-family="Helvetica,sans-Serif" font-size="10.00" fill="#000000">GuiTypes.h</text>
</a>
</g>
</g>
<!-- Node3&#45;&gt;Node29 -->
<g id="edge39" class="edge">
<title>Node3&#45;&gt;Node29</title>
<path fill="none" stroke="#191970" d="M1448.6112,-515.2455C1432.2816,-506.4527 1408.0556,-493.4079 1389.4927,-483.4125"/>
<polygon fill="#191970" stroke="#191970" points="1391.0985,-480.3021 1380.6345,-478.6427 1387.7798,-486.4654 1391.0985,-480.3021"/>
</g>
<!-- Node5 -->
<g id="node6" class="node">
<title>Node5</title>
<polygon fill="#ffffff" stroke="#bfbfbf" points="1042.7266,-.5 1042.7266,-19.5 1120.7266,-19.5 1120.7266,-.5 1042.7266,-.5"/>
<text text-anchor="middle" x="1081.7266" y="-7.5" font-family="Helvetica,sans-Serif" font-size="10.00" fill="#000000">RConfigure.h</text>
</g>
<!-- Node4&#45;&gt;Node5 -->
<g id="edge5" class="edge">
<title>Node4&#45;&gt;Node5</title>
<path fill="none" stroke="#191970" d="M1108.0504,-403.3872C1100.8712,-376.7236 1081.7266,-299.4817 1081.7266,-234 1081.7266,-234 1081.7266,-234 1081.7266,-122 1081.7266,-89.7116 1081.7266,-52.1872 1081.7266,-29.8048"/>
<polygon fill="#191970" stroke="#191970" points="1085.2267,-29.5883 1081.7266,-19.5884 1078.2267,-29.5884 1085.2267,-29.5883"/>
</g>
<!-- Node6 -->
<g id="node7" class="node">
<title>Node6</title>
<g id="a_node7"><a xlink:href="Rtypes_8h.html" target="_top" xlink:title="Rtypes.h">
<polygon fill="#ffffff" stroke="#000000" points="1490.2266,-286 1490.2266,-305 1549.2266,-305 1549.2266,-286 1490.2266,-286"/>
<text text-anchor="middle" x="1519.7266" y="-293" font-family="Helvetica,sans-Serif" font-size="10.00" fill="#000000">Rtypes.h</text>
</a>
</g>
</g>
<!-- Node4&#45;&gt;Node6 -->
<g id="edge6" class="edge">
<title>Node4&#45;&gt;Node6</title>
<path fill="none" stroke="#191970" d="M1142.5104,-404.8217C1177.0925,-395.8484 1233.968,-380.8712 1282.7266,-367 1352.4324,-347.1696 1433.1386,-322.441 1480.1089,-307.8712"/>
<polygon fill="#191970" stroke="#191970" points="1481.3743,-311.1431 1489.8858,-304.834 1479.2976,-304.4583 1481.3743,-311.1431"/>
</g>
<!-- Node22 -->
<g id="node23" class="node">
<title>Node22</title>
<polygon fill="#ffffff" stroke="#bfbfbf" points="557.7266,-112.5 557.7266,-131.5 601.7266,-131.5 601.7266,-112.5 557.7266,-112.5"/>
<text text-anchor="middle" x="579.7266" y="-119.5" font-family="Helvetica,sans-Serif" font-size="10.00" fill="#000000">string</text>
</g>
<!-- Node4&#45;&gt;Node22 -->
<g id="edge37" class="edge">
<title>Node4&#45;&gt;Node22</title>
<path fill="none" stroke="#191970" d="M1105.0276,-403.299C1099.7288,-394.1039 1091.7666,-379.8286 1085.7266,-367 1045.1219,-280.7569 1081.724,-225.5414 1005.7266,-168 974.4613,-144.3275 705.6547,-128.4423 611.8573,-123.5774"/>
<polygon fill="#191970" stroke="#191970" points="611.9816,-120.0793 601.816,-123.0643 611.6243,-127.0702 611.9816,-120.0793"/>
</g>
<!-- Node25 -->
<g id="node26" class="node">
<title>Node25</title>
<g id="a_node26"><a xlink:href="TStorage_8h.html" target="_top" xlink:title="TStorage.h">
<polygon fill="#ffffff" stroke="#000000" points="1204.2266,-347.5 1204.2266,-366.5 1273.2266,-366.5 1273.2266,-347.5 1204.2266,-347.5"/>
<text text-anchor="middle" x="1238.7266" y="-354.5" font-family="Helvetica,sans-Serif" font-size="10.00" fill="#000000">TStorage.h</text>
</a>
</g>
</g>
<!-- Node4&#45;&gt;Node25 -->
<g id="edge31" class="edge">
<title>Node4&#45;&gt;Node25</title>
<path fill="none" stroke="#191970" d="M1132.7306,-403.3733C1153.3701,-394.3435 1184.4424,-380.7494 1207.6155,-370.6111"/>
<polygon fill="#191970" stroke="#191970" points="1209.2511,-373.7159 1217.0098,-366.5011 1206.4453,-367.3028 1209.2511,-373.7159"/>
</g>
<!-- Node26 -->
<g id="node27" class="node">
<title>Node26</title>
<g id="a_node27"><a xlink:href="TVersionCheck_8h.html" target="_top" xlink:title="TVersionCheck.h">
<polygon fill="#ffffff" stroke="#000000" points="1231.7266,-112.5 1231.7266,-131.5 1329.7266,-131.5 1329.7266,-112.5 1231.7266,-112.5"/>
<text text-anchor="middle" x="1280.7266" y="-119.5" font-family="Helvetica,sans-Serif" font-size="10.00" fill="#000000">TVersionCheck.h</text>
</a>
</g>
</g>
<!-- Node4&#45;&gt;Node26 -->
<g id="edge34" class="edge">
<title>Node4&#45;&gt;Node26</title>
<path fill="none" stroke="#191970" d="M1116.3828,-403.3179C1140.7857,-361.546 1237.2886,-196.3557 1269.8962,-140.5391"/>
<polygon fill="#191970" stroke="#191970" points="1273.027,-142.1185 1275.0492,-131.7185 1266.9828,-138.5875 1273.027,-142.1185"/>
</g>
<!-- Node27 -->
<g id="node28" class="node">
<title>Node27</title>
<polygon fill="#ffffff" stroke="#bfbfbf" points="781.7266,-347.5 781.7266,-366.5 837.7266,-366.5 837.7266,-347.5 781.7266,-347.5"/>
<text text-anchor="middle" x="809.7266" y="-354.5" font-family="Helvetica,sans-Serif" font-size="10.00" fill="#000000">stdarg.h</text>
</g>
<!-- Node4&#45;&gt;Node27 -->
<g id="edge36" class="edge">
<title>Node4&#45;&gt;Node27</title>
<path fill="none" stroke="#191970" d="M1078.845,-408.4085C1030.8348,-401.2858 936.9494,-386.5489 847.9306,-367.1162"/>
<polygon fill="#191970" stroke="#191970" points="848.462,-363.6493 837.9426,-364.9112 846.9529,-370.4847 848.462,-363.6493"/>
</g>
<!-- Node28 -->
<g id="node29" class="node">
<title>Node28</title>
<polygon fill="#ffffff" stroke="#bfbfbf" points="984.2266,-347.5 984.2266,-366.5 1033.2266,-366.5 1033.2266,-347.5 984.2266,-347.5"/>
<text text-anchor="middle" x="1008.7266" y="-354.5" font-family="Helvetica,sans-Serif" font-size="10.00" fill="#000000">iosfwd</text>
</g>
<!-- Node4&#45;&gt;Node28 -->
<g id="edge38" class="edge">
<title>Node4&#45;&gt;Node28</title>
<path fill="none" stroke="#191970" d="M1092.9596,-403.2455C1077.0171,-394.4928 1053.4007,-381.527 1035.2277,-371.5496"/>
<polygon fill="#191970" stroke="#191970" points="1036.7403,-368.3873 1026.2901,-366.6427 1033.3714,-374.5233 1036.7403,-368.3873"/>
</g>
<!-- Node7 -->
<g id="node8" class="node">
<title>Node7</title>
<g id="a_node8"><a xlink:href="RtypesCore_8h.html" target="_top" xlink:title="RtypesCore.h">
<polygon fill="#ffffff" stroke="#000000" points="1433.7266,-112.5 1433.7266,-131.5 1515.7266,-131.5 1515.7266,-112.5 1433.7266,-112.5"/>
<text text-anchor="middle" x="1474.7266" y="-119.5" font-family="Helvetica,sans-Serif" font-size="10.00" fill="#000000">RtypesCore.h</text>
</a>
</g>
</g>
<!-- Node6&#45;&gt;Node7 -->
<g id="edge7" class="edge">
<title>Node6&#45;&gt;Node7</title>
<path fill="none" stroke="#191970" d="M1522.2299,-285.641C1525.3586,-271.7157 1529.7306,-245.5768 1524.7266,-224 1517.4517,-192.631 1499.1164,-159.7827 1486.7892,-140.1034"/>
<polygon fill="#191970" stroke="#191970" points="1489.6495,-138.0804 1481.2951,-131.5646 1483.7628,-141.8681 1489.6495,-138.0804"/>
</g>
<!-- Node11 -->
<g id="node12" class="node">
<title>Node11</title>
<g id="a_node12"><a xlink:href="DllImport_8h.html" target="_top" xlink:title="DllImport.h">
<polygon fill="#ffffff" stroke="#000000" points="1610.2266,-224.5 1610.2266,-243.5 1681.2266,-243.5 1681.2266,-224.5 1610.2266,-224.5"/>
<text text-anchor="middle" x="1645.7266" y="-231.5" font-family="Helvetica,sans-Serif" font-size="10.00" fill="#000000">DllImport.h</text>
</a>
</g>
</g>
<!-- Node6&#45;&gt;Node11 -->
<g id="edge12" class="edge">
<title>Node6&#45;&gt;Node11</title>
<path fill="none" stroke="#191970" d="M1539.4141,-285.8906C1560.2188,-275.7359 1593.2376,-259.6196 1616.9585,-248.0416"/>
<polygon fill="#191970" stroke="#191970" points="1618.726,-251.0736 1626.1774,-243.5419 1615.6555,-244.783 1618.726,-251.0736"/>
</g>
<!-- Node12 -->
<g id="node13" class="node">
<title>Node12</title>
<polygon fill="#ffffff" stroke="#bfbfbf" points="1699.7266,-224.5 1699.7266,-243.5 1761.7266,-243.5 1761.7266,-224.5 1699.7266,-224.5"/>
<text text-anchor="middle" x="1730.7266" y="-231.5" font-family="Helvetica,sans-Serif" font-size="10.00" fill="#000000">snprintf.h</text>
</g>
<!-- Node6&#45;&gt;Node12 -->
<g id="edge13" class="edge">
<title>Node6&#45;&gt;Node12</title>
<path fill="none" stroke="#191970" d="M1549.5103,-286.819C1586.2411,-276.1131 1648.8522,-257.8639 1690.0065,-245.8687"/>
<polygon fill="#191970" stroke="#191970" points="1691.1011,-249.1954 1699.7222,-243.0368 1689.1422,-242.475 1691.1011,-249.1954"/>
</g>
<!-- Node13 -->
<g id="node14" class="node">
<title>Node13</title>
<polygon fill="#ffffff" stroke="#bfbfbf" points="1780.2266,-224.5 1780.2266,-243.5 1837.2266,-243.5 1837.2266,-224.5 1780.2266,-224.5"/>
<text text-anchor="middle" x="1808.7266" y="-231.5" font-family="Helvetica,sans-Serif" font-size="10.00" fill="#000000">strlcpy.h</text>
</g>
<!-- Node6&#45;&gt;Node13 -->
<g id="edge14" class="edge">
<title>Node6&#45;&gt;Node13</title>
<path fill="none" stroke="#191970" d="M1549.5935,-289.9228C1594.9947,-281.3256 1684.2964,-263.9497 1770.2184,-244.0195"/>
<polygon fill="#191970" stroke="#191970" points="1771.1925,-247.3862 1780.1348,-241.7041 1769.6009,-240.5696 1771.1925,-247.3862"/>
</g>
<!-- Node14 -->
<g id="node15" class="node">
<title>Node14</title>
<polygon fill="#ffffff" stroke="#bfbfbf" points="1931.7266,-168.5 1931.7266,-187.5 1981.7266,-187.5 1981.7266,-168.5 1931.7266,-168.5"/>
<text text-anchor="middle" x="1956.7266" y="-175.5" font-family="Helvetica,sans-Serif" font-size="10.00" fill="#000000">atomic</text>
</g>
<!-- Node6&#45;&gt;Node14 -->
<g id="edge15" class="edge">
<title>Node6&#45;&gt;Node14</title>
<path fill="none" stroke="#191970" d="M1549.2731,-293.7288C1639.6715,-288.0552 1908.1814,-269.2178 1937.7266,-244 1950.8799,-232.7732 1955.2279,-213.084 1956.5259,-198.1241"/>
<polygon fill="#191970" stroke="#191970" points="1960.0367,-197.9805 1957.0193,-187.8245 1953.0447,-197.6455 1960.0367,-197.9805"/>
</g>
<!-- Node15 -->
<g id="node16" class="node">
<title>Node15</title>
<polygon fill="#ffffff" stroke="#bfbfbf" points="1109.7266,-224.5 1109.7266,-243.5 1159.7266,-243.5 1159.7266,-224.5 1109.7266,-224.5"/>
<text text-anchor="middle" x="1134.7266" y="-231.5" font-family="Helvetica,sans-Serif" font-size="10.00" fill="#000000">stdio.h</text>
</g>
<!-- Node6&#45;&gt;Node15 -->
<g id="edge16" class="edge">
<title>Node6&#45;&gt;Node15</title>
<path fill="none" stroke="#191970" d="M1489.9256,-292.1166C1429.8004,-285.0592 1289.8064,-267.4557 1173.7266,-244 1172.4548,-243.743 1171.1624,-243.4707 1169.8591,-243.1867"/>
<polygon fill="#191970" stroke="#191970" points="1170.3482,-239.7067 1159.814,-240.8387 1168.7549,-246.523 1170.3482,-239.7067"/>
</g>
<!-- Node16 -->
<g id="node17" class="node">
<title>Node16</title>
<polygon fill="#ffffff" stroke="#bfbfbf" points="1462.2266,-224.5 1462.2266,-243.5 1515.2266,-243.5 1515.2266,-224.5 1462.2266,-224.5"/>
<text text-anchor="middle" x="1488.7266" y="-231.5" font-family="Helvetica,sans-Serif" font-size="10.00" fill="#000000">string.h</text>
</g>
<!-- Node6&#45;&gt;Node16 -->
<g id="edge17" class="edge">
<title>Node6&#45;&gt;Node16</title>
<path fill="none" stroke="#191970" d="M1514.8829,-285.8906C1510.4501,-277.0965 1503.7635,-263.8312 1498.2608,-252.9145"/>
<polygon fill="#191970" stroke="#191970" points="1501.2653,-251.0992 1493.6387,-243.7449 1495.0145,-254.25 1501.2653,-251.0992"/>
</g>
<!-- Node17 -->
<g id="node18" class="node">
<title>Node17</title>
<polygon fill="#ffffff" stroke="#bfbfbf" points="1572.2266,-168.5 1572.2266,-187.5 1629.2266,-187.5 1629.2266,-168.5 1572.2266,-168.5"/>
<text text-anchor="middle" x="1600.7266" y="-175.5" font-family="Helvetica,sans-Serif" font-size="10.00" fill="#000000">typeinfo</text>
</g>
<!-- Node6&#45;&gt;Node17 -->
<g id="edge18" class="edge">
<title>Node6&#45;&gt;Node17</title>
<path fill="none" stroke="#191970" d="M1527.1839,-285.7505C1534.9739,-275.4843 1547.4655,-258.7895 1557.7266,-244 1568.7674,-228.0869 1580.7526,-209.5811 1589.2581,-196.2216"/>
<polygon fill="#191970" stroke="#191970" points="1592.3792,-197.8349 1594.7732,-187.514 1586.4656,-194.0893 1592.3792,-197.8349"/>
</g>
<!-- Node18 -->
<g id="node19" class="node">
<title>Node18</title>
<polygon fill="#ffffff" stroke="#bfbfbf" points="843.2266,-168.5 843.2266,-187.5 912.2266,-187.5 912.2266,-168.5 843.2266,-168.5"/>
<text text-anchor="middle" x="877.7266" y="-175.5" font-family="Helvetica,sans-Serif" font-size="10.00" fill="#000000">type_traits</text>
</g>
<!-- Node6&#45;&gt;Node18 -->
<g id="edge19" class="edge">
<title>Node6&#45;&gt;Node18</title>
<path fill="none" stroke="#191970" d="M1489.7863,-288.8024C1429.316,-275.4083 1288.1942,-244.8217 1168.7266,-224 1062.2178,-205.4368 1031.9348,-208.4322 922.5334,-188.2242"/>
<polygon fill="#191970" stroke="#191970" points="922.8804,-184.7285 912.4073,-186.3299 921.5932,-191.6091 922.8804,-184.7285"/>
</g>
<!-- Node19 -->
<g id="node20" class="node">
<title>Node19</title>
<g id="a_node20"><a xlink:href="TGenericClassInfo_8h.html" target="_top" xlink:title="TGenericClassInfo.h">
<polygon fill="#ffffff" stroke="#000000" points="1329.7266,-224.5 1329.7266,-243.5 1443.7266,-243.5 1443.7266,-224.5 1329.7266,-224.5"/>
<text text-anchor="middle" x="1386.7266" y="-231.5" font-family="Helvetica,sans-Serif" font-size="10.00" fill="#000000">TGenericClassInfo.h</text>
</a>
</g>
</g>
<!-- Node6&#45;&gt;Node19 -->
<g id="edge20" class="edge">
<title>Node6&#45;&gt;Node19</title>
<path fill="none" stroke="#191970" d="M1493.8829,-285.8906C1469.9409,-275.7359 1434.8513,-259.6196 1411.3209,-248.0416"/>
<polygon fill="#191970" stroke="#191970" points="1412.8227,-244.8795 1402.3127,-243.5419 1409.6947,-251.1417 1412.8227,-244.8795"/>
</g>
<!-- Node23 -->
<g id="node24" class="node">
<title>Node23</title>
<g id="a_node24"><a xlink:href="TIsAProxy_8h.html" target="_top" xlink:title="TIsAProxy.h">
<polygon fill="#ffffff" stroke="#000000" points="1855.2266,-224.5 1855.2266,-243.5 1928.2266,-243.5 1928.2266,-224.5 1855.2266,-224.5"/>
<text text-anchor="middle" x="1891.7266" y="-231.5" font-family="Helvetica,sans-Serif" font-size="10.00" fill="#000000">TIsAProxy.h</text>
</a>
</g>
</g>
<!-- Node6&#45;&gt;Node23 -->
<g id="edge26" class="edge">
<title>Node6&#45;&gt;Node23</title>
<path fill="none" stroke="#191970" d="M1549.5915,-291.4335C1605.5994,-283.6705 1730.4169,-265.7237 1844.9427,-244.2593"/>
<polygon fill="#191970" stroke="#191970" points="1845.7515,-247.6686 1854.9283,-242.3738 1844.4525,-240.7901 1845.7515,-247.6686"/>
</g>
<!-- Node8 -->
<g id="node9" class="node">
<title>Node8</title>
<g id="a_node9"><a xlink:href="RConfig_8hxx.html" target="_top" xlink:title="ROOT/RConfig.hxx">
<polygon fill="#ffffff" stroke="#000000" points="1216.2266,-56.5 1216.2266,-75.5 1321.2266,-75.5 1321.2266,-56.5 1216.2266,-56.5"/>
<text text-anchor="middle" x="1268.7266" y="-63.5" font-family="Helvetica,sans-Serif" font-size="10.00" fill="#000000">ROOT/RConfig.hxx</text>
</a>
</g>
</g>
<!-- Node7&#45;&gt;Node8 -->
<g id="edge8" class="edge">
<title>Node7&#45;&gt;Node8</title>
<path fill="none" stroke="#191970" d="M1439.314,-112.3733C1404.4661,-102.9001 1351.1384,-88.4032 1313.3973,-78.1435"/>
<polygon fill="#191970" stroke="#191970" points="1314.2452,-74.747 1303.6772,-75.5011 1312.4088,-81.5019 1314.2452,-74.747"/>
</g>
<!-- Node10 -->
<g id="node11" class="node">
<title>Node10</title>
<polygon fill="#ffffff" stroke="#bfbfbf" points="1446.7266,-56.5 1446.7266,-75.5 1502.7266,-75.5 1502.7266,-56.5 1446.7266,-56.5"/>
<text text-anchor="middle" x="1474.7266" y="-63.5" font-family="Helvetica,sans-Serif" font-size="10.00" fill="#000000">stddef.h</text>
</g>
<!-- Node7&#45;&gt;Node10 -->
<g id="edge11" class="edge">
<title>Node7&#45;&gt;Node10</title>
<path fill="none" stroke="#191970" d="M1474.7266,-112.2455C1474.7266,-104.9382 1474.7266,-94.6944 1474.7266,-85.7046"/>
<polygon fill="#191970" stroke="#191970" points="1478.2267,-85.6426 1474.7266,-75.6427 1471.2267,-85.6427 1478.2267,-85.6426"/>
</g>
<!-- Node8&#45;&gt;Node5 -->
<g id="edge10" class="edge">
<title>Node8&#45;&gt;Node5</title>
<path fill="none" stroke="#191970" d="M1236.5802,-56.3733C1205.2157,-46.9807 1157.3601,-32.6496 1123.155,-22.4064"/>
<polygon fill="#191970" stroke="#191970" points="1124.0374,-19.0171 1113.4536,-19.5011 1122.0292,-25.7229 1124.0374,-19.0171"/>
</g>
<!-- Node9 -->
<g id="node10" class="node">
<title>Node9</title>
<g id="a_node10"><a xlink:href="RVersion_8h.html" target="_top" xlink:title="../RVersion.h">
<polygon fill="#ffffff" stroke="#000000" points="1270.2266,-.5 1270.2266,-19.5 1347.2266,-19.5 1347.2266,-.5 1270.2266,-.5"/>
<text text-anchor="middle" x="1308.7266" y="-7.5" font-family="Helvetica,sans-Serif" font-size="10.00" fill="#000000">../RVersion.h</text>
</a>
</g>
</g>
<!-- Node8&#45;&gt;Node9 -->
<g id="edge9" class="edge">
<title>Node8&#45;&gt;Node9</title>
<path fill="none" stroke="#191970" d="M1275.6941,-56.2455C1281.2578,-48.4564 1289.2047,-37.3308 1295.9095,-27.9439"/>
<polygon fill="#191970" stroke="#191970" points="1298.8747,-29.8144 1301.839,-19.6427 1293.1785,-25.7457 1298.8747,-29.8144"/>
</g>
<!-- Node19&#45;&gt;Node6 -->
<g id="edge25" class="edge">
<title>Node19&#45;&gt;Node6</title>
<path fill="none" stroke="#191970" d="M1412.4112,-243.5419C1436.3036,-253.6701 1471.3941,-269.7832 1494.9757,-281.3813"/>
<polygon fill="#191970" stroke="#191970" points="1493.4975,-284.5553 1504.0079,-285.8906 1496.6243,-278.2924 1493.4975,-284.5553"/>
</g>
<!-- Node20 -->
<g id="node21" class="node">
<title>Node20</title>
<polygon fill="#ffffff" stroke="#bfbfbf" points="930.2266,-168.5 930.2266,-187.5 977.2266,-187.5 977.2266,-168.5 930.2266,-168.5"/>
<text text-anchor="middle" x="953.7266" y="-175.5" font-family="Helvetica,sans-Serif" font-size="10.00" fill="#000000">vector</text>
</g>
<!-- Node19&#45;&gt;Node20 -->
<g id="edge21" class="edge">
<title>Node19&#45;&gt;Node20</title>
<path fill="none" stroke="#191970" d="M1329.6742,-226.6214C1238.1822,-214.7887 1061.4415,-191.9308 987.5207,-182.3706"/>
<polygon fill="#191970" stroke="#191970" points="987.7492,-178.8711 977.3828,-181.0595 986.8513,-185.8133 987.7492,-178.8711"/>
</g>
<!-- Node21 -->
<g id="node22" class="node">
<title>Node21</title>
<g id="a_node22"><a xlink:href="TSchemaHelper_8h.html" target="_top" xlink:title="TSchemaHelper.h">
<polygon fill="#ffffff" stroke="#000000" points="1335.7266,-168.5 1335.7266,-187.5 1437.7266,-187.5 1437.7266,-168.5 1335.7266,-168.5"/>
<text text-anchor="middle" x="1386.7266" y="-175.5" font-family="Helvetica,sans-Serif" font-size="10.00" fill="#000000">TSchemaHelper.h</text>
</a>
</g>
</g>
<!-- Node19&#45;&gt;Node21 -->
<g id="edge22" class="edge">
<title>Node19&#45;&gt;Node21</title>
<path fill="none" stroke="#191970" d="M1386.7266,-224.2455C1386.7266,-216.9382 1386.7266,-206.6944 1386.7266,-197.7046"/>
<polygon fill="#191970" stroke="#191970" points="1390.2267,-197.6426 1386.7266,-187.6427 1383.2267,-197.6427 1390.2267,-197.6426"/>
</g>
<!-- Node21&#45;&gt;Node7 -->
<g id="edge23" class="edge">
<title>Node21&#45;&gt;Node7</title>
<path fill="none" stroke="#191970" d="M1402.0551,-168.2455C1415.557,-159.6534 1435.4388,-147.0014 1450.9952,-137.1018"/>
<polygon fill="#191970" stroke="#191970" points="1453.0163,-139.9643 1459.5739,-131.6427 1449.2581,-134.0587 1453.0163,-139.9643"/>
</g>
<!-- Node21&#45;&gt;Node22 -->
<g id="edge24" class="edge">
<title>Node21&#45;&gt;Node22</title>
<path fill="none" stroke="#191970" d="M1335.6329,-174.4545C1183.4615,-163.8949 736.1329,-132.8535 611.999,-124.2395"/>
<polygon fill="#191970" stroke="#191970" points="612.2024,-120.7453 601.984,-123.5445 611.7177,-127.7285 612.2024,-120.7453"/>
</g>
<!-- Node23&#45;&gt;Node7 -->
<g id="edge28" class="edge">
<title>Node23&#45;&gt;Node7</title>
<path fill="none" stroke="#191970" d="M1856.1734,-224.4509C1780.4679,-204.1176 1603.4485,-156.5728 1519.902,-134.1334"/>
<polygon fill="#191970" stroke="#191970" points="1520.7555,-130.7387 1510.1898,-131.5249 1518.9397,-137.4991 1520.7555,-130.7387"/>
</g>
<!-- Node23&#45;&gt;Node14 -->
<g id="edge29" class="edge">
<title>Node23&#45;&gt;Node14</title>
<path fill="none" stroke="#191970" d="M1903.0488,-224.2455C1912.6489,-215.9746 1926.6158,-203.9416 1937.8961,-194.2232"/>
<polygon fill="#191970" stroke="#191970" points="1940.2426,-196.8214 1945.5342,-187.6427 1935.6736,-191.5182 1940.2426,-196.8214"/>
</g>
<!-- Node23&#45;&gt;Node17 -->
<g id="edge30" class="edge">
<title>Node23&#45;&gt;Node17</title>
<path fill="none" stroke="#191970" d="M1854.9113,-225.7125C1852.144,-225.1221 1849.3925,-224.5453 1846.7266,-224 1773.7571,-209.0744 1688.2077,-193.5119 1639.6444,-184.8579"/>
<polygon fill="#191970" stroke="#191970" points="1640.0295,-181.3715 1629.5713,-183.0674 1638.8045,-188.2635 1640.0295,-181.3715"/>
</g>
<!-- Node24 -->
<g id="node25" class="node">
<title>Node24</title>
<g id="a_node25"><a xlink:href="TVirtualIsAProxy_8h.html" target="_top" xlink:title="TVirtualIsAProxy.h">
<polygon fill="#ffffff" stroke="#000000" points="1808.2266,-168.5 1808.2266,-187.5 1913.2266,-187.5 1913.2266,-168.5 1808.2266,-168.5"/>
<text text-anchor="middle" x="1860.7266" y="-175.5" font-family="Helvetica,sans-Serif" font-size="10.00" fill="#000000">TVirtualIsAProxy.h</text>
</a>
</g>
</g>
<!-- Node23&#45;&gt;Node24 -->
<g id="edge27" class="edge">
<title>Node23&#45;&gt;Node24</title>
<path fill="none" stroke="#191970" d="M1886.3268,-224.2455C1882.1039,-216.617 1876.1094,-205.7881 1870.9825,-196.5267"/>
<polygon fill="#191970" stroke="#191970" points="1873.9699,-194.6965 1866.0645,-187.6427 1867.8456,-198.0867 1873.9699,-194.6965"/>
</g>
<!-- Node25&#45;&gt;Node5 -->
<g id="edge32" class="edge">
<title>Node25&#45;&gt;Node5</title>
<path fill="none" stroke="#191970" d="M1234.3637,-347.3571C1213.0183,-300.1796 1119.4454,-93.3658 1090.3747,-29.1139"/>
<polygon fill="#191970" stroke="#191970" points="1093.454,-27.4289 1086.1429,-19.7608 1087.0764,-30.3144 1093.454,-27.4289"/>
</g>
<!-- Node25&#45;&gt;Node6 -->
<g id="edge33" class="edge">
<title>Node25&#45;&gt;Node6</title>
<path fill="none" stroke="#191970" d="M1273.4646,-349.3972C1325.8851,-337.9244 1424.9274,-316.2479 1480.0928,-304.1743"/>
<polygon fill="#191970" stroke="#191970" points="1481.1674,-307.522 1490.1879,-301.9649 1479.6708,-300.6839 1481.1674,-307.522"/>
</g>
<!-- Node26&#45;&gt;Node9 -->
<g id="edge35" class="edge">
<title>Node26&#45;&gt;Node9</title>
<path fill="none" stroke="#191970" d="M1297.1443,-112.2212C1308.9342,-104.1641 1323.9013,-91.5536 1330.7266,-76 1337.667,-60.1841 1329.9891,-41.4437 1321.8587,-27.9811"/>
<polygon fill="#191970" stroke="#191970" points="1324.7606,-26.0239 1316.3317,-19.6048 1318.9179,-29.8791 1324.7606,-26.0239"/>
</g>
<!-- Node29&#45;&gt;Node6 -->
<g id="edge40" class="edge">
<title>Node29&#45;&gt;Node6</title>
<path fill="none" stroke="#191970" d="M1371.7562,-459.1453C1380.2733,-449.8416 1393.3895,-435.4928 1404.7266,-423 1440.3867,-383.7045 1482.0589,-337.4087 1504.1396,-312.8483"/>
<polygon fill="#191970" stroke="#191970" points="1507.009,-314.8916 1511.0908,-305.1146 1501.8029,-310.2123 1507.009,-314.8916"/>
</g>
<!-- Node30&#45;&gt;Node4 -->
<g id="edge42" class="edge">
<title>Node30&#45;&gt;Node4</title>
<path fill="none" stroke="#191970" d="M1364.7266,-851.4116C1364.7266,-832.0538 1364.7266,-786.9167 1364.7266,-749 1364.7266,-749 1364.7266,-749 1364.7266,-581 1364.7266,-480.4681 1224.594,-436.5937 1152.5006,-420.6739"/>
<polygon fill="#191970" stroke="#191970" points="1152.8914,-417.1788 1142.3823,-418.5245 1151.4368,-424.026 1152.8914,-417.1788"/>
</g>
<!-- Node30&#45;&gt;Node29 -->
<g id="edge43" class="edge">
<title>Node30&#45;&gt;Node29</title>
<path fill="none" stroke="#191970" d="M1370.3337,-851.4834C1380.904,-832.6141 1402.7266,-788.8343 1402.7266,-749 1402.7266,-749 1402.7266,-749 1402.7266,-581 1402.7266,-546.4432 1385.6296,-509.1996 1373.7909,-487.5529"/>
<polygon fill="#191970" stroke="#191970" points="1376.7844,-485.7365 1368.8018,-478.7703 1370.6979,-489.1941 1376.7844,-485.7365"/>
</g>
<!-- Node31 -->
<g id="node32" class="node">
<title>Node31</title>
<g id="a_node32"><a xlink:href="TString_8h.html" target="_top" xlink:title="TString.h">
<polygon fill="#ffffff" stroke="#000000" points="527.7266,-403.5 527.7266,-422.5 587.7266,-422.5 587.7266,-403.5 527.7266,-403.5"/>
<text text-anchor="middle" x="557.7266" y="-410.5" font-family="Helvetica,sans-Serif" font-size="10.00" fill="#000000">TString.h</text>
</a>
</g>
</g>
<!-- Node30&#45;&gt;Node31 -->
<g id="edge44" class="edge">
<title>Node30&#45;&gt;Node31</title>
<path fill="none" stroke="#191970" d="M1331.2666,-851.4134C1191.3606,-811.2829 659.8248,-658.3367 645.7266,-647 577.4397,-592.0888 562.1285,-478.2522 558.7068,-432.5832"/>
<polygon fill="#191970" stroke="#191970" points="562.1944,-432.2767 558.068,-422.5185 555.2085,-432.7202 562.1944,-432.2767"/>
</g>
<!-- Node30&#45;&gt;Node50 -->
<g id="edge85" class="edge">
<title>Node30&#45;&gt;Node50</title>
<path fill="none" stroke="#191970" d="M1330.5393,-858.1846C1218.0288,-848.919 859.1757,-819.3664 730.8792,-808.8008"/>
<polygon fill="#191970" stroke="#191970" points="730.8698,-805.2883 720.6162,-807.9556 730.2952,-812.2646 730.8698,-805.2883"/>
</g>
<!-- Node31&#45;&gt;Node15 -->
<g id="edge83" class="edge">
<title>Node31&#45;&gt;Node15</title>
<path fill="none" stroke="#191970" d="M587.931,-407.2047C623.4932,-399.9051 684.0119,-385.9827 733.7266,-367 751.9248,-360.0513 754.6965,-354.3737 772.7266,-347 889.5721,-299.2143 1034.4632,-259.619 1099.8388,-242.7523"/>
<polygon fill="#191970" stroke="#191970" points="1100.8139,-246.1156 1109.632,-240.2427 1099.0762,-239.3347 1100.8139,-246.1156"/>
</g>
<!-- Node31&#45;&gt;Node22 -->
<g id="edge84" class="edge">
<title>Node31&#45;&gt;Node22</title>
<path fill="none" stroke="#191970" d="M527.5409,-411.7267C451.4732,-408.1154 253.8559,-396.1207 195.7266,-367 90.946,-314.5087 -56.6582,-254.2112 22.7266,-168 58.3835,-129.2771 433.8071,-123.1496 547.3664,-122.1814"/>
<polygon fill="#191970" stroke="#191970" points="547.5458,-125.6802 557.5184,-122.1029 547.4916,-118.6804 547.5458,-125.6802"/>
</g>
<!-- Node31&#45;&gt;Node27 -->
<g id="edge82" class="edge">
<title>Node31&#45;&gt;Node27</title>
<path fill="none" stroke="#191970" d="M588.0202,-406.5443C628.8732,-397.7972 703.8717,-381.5941 767.7266,-367 768.9597,-366.7182 770.2127,-366.4301 771.4777,-366.1377"/>
<polygon fill="#191970" stroke="#191970" points="772.3355,-369.5316 781.2765,-363.8474 770.7423,-362.7153 772.3355,-369.5316"/>
</g>
<!-- Node31&#45;&gt;Node28 -->
<g id="edge81" class="edge">
<title>Node31&#45;&gt;Node28</title>
<path fill="none" stroke="#191970" d="M587.8375,-411.501C655.3702,-407.752 824.0871,-396.2301 974.1165,-366.7942"/>
<polygon fill="#191970" stroke="#191970" points="974.8479,-370.2173 983.9704,-364.8293 973.479,-363.3525 974.8479,-370.2173"/>
</g>
<!-- Node32 -->
<g id="node33" class="node">
<title>Node32</title>
<g id="a_node33"><a xlink:href="TMathBase_8h.html" target="_top" xlink:title="TMathBase.h">
<polygon fill="#ffffff" stroke="#000000" points="395.7266,-347.5 395.7266,-366.5 475.7266,-366.5 475.7266,-347.5 395.7266,-347.5"/>
<text text-anchor="middle" x="435.7266" y="-354.5" font-family="Helvetica,sans-Serif" font-size="10.00" fill="#000000">TMathBase.h</text>
</a>
</g>
</g>
<!-- Node31&#45;&gt;Node32 -->
<g id="edge45" class="edge">
<title>Node31&#45;&gt;Node32</title>
<path fill="none" stroke="#191970" d="M536.7541,-403.3733C517.1699,-394.3838 487.7305,-380.8706 465.6757,-370.7471"/>
<polygon fill="#191970" stroke="#191970" points="466.9739,-367.4919 456.4255,-366.5011 464.0537,-373.8538 466.9739,-367.4919"/>
</g>
<!-- Node36 -->
<g id="node37" class="node">
<title>Node36</title>
<g id="a_node37"><a xlink:href="RStringView_8hxx.html" target="_top" xlink:title="ROOT/RStringView.hxx">
<polygon fill="#ffffff" stroke="#000000" points="205.2266,-347.5 205.2266,-366.5 332.2266,-366.5 332.2266,-347.5 205.2266,-347.5"/>
<text text-anchor="middle" x="268.7266" y="-354.5" font-family="Helvetica,sans-Serif" font-size="10.00" fill="#000000">ROOT/RStringView.hxx</text>
</a>
</g>
</g>
<!-- Node31&#45;&gt;Node36 -->
<g id="edge50" class="edge">
<title>Node31&#45;&gt;Node36</title>
<path fill="none" stroke="#191970" d="M527.6164,-407.1655C480.5068,-398.037 388.4963,-380.208 327.821,-368.4508"/>
<polygon fill="#191970" stroke="#191970" points="328.4753,-365.0126 317.992,-366.5462 327.1436,-371.8847 328.4753,-365.0126"/>
</g>
<!-- Node43 -->
<g id="node44" class="node">
<title>Node43</title>
<g id="a_node44"><a xlink:href="TypeTraits_8hxx.html" target="_top" xlink:title="ROOT/TypeTraits.hxx">
<polygon fill="#ffffff" stroke="#000000" points="608.2266,-347.5 608.2266,-366.5 725.2266,-366.5 725.2266,-347.5 608.2266,-347.5"/>
<text text-anchor="middle" x="666.7266" y="-354.5" font-family="Helvetica,sans-Serif" font-size="10.00" fill="#000000">ROOT/TypeTraits.hxx</text>
</a>
</g>
</g>
<!-- Node31&#45;&gt;Node43 -->
<g id="edge66" class="edge">
<title>Node31&#45;&gt;Node43</title>
<path fill="none" stroke="#191970" d="M576.713,-403.2455C593.9058,-394.4125 619.4504,-381.2887 638.9399,-371.2758"/>
<polygon fill="#191970" stroke="#191970" points="640.6625,-374.3257 647.9579,-366.6427 637.4636,-368.0993 640.6625,-374.3257"/>
</g>
<!-- Node32&#45;&gt;Node6 -->
<g id="edge46" class="edge">
<title>Node32&#45;&gt;Node6</title>
<path fill="none" stroke="#191970" d="M475.9146,-354.4737C508.9038,-352.4146 556.8379,-349.4561 598.7266,-347 939.6594,-327.01 1351.6929,-304.5868 1479.7847,-297.656"/>
<polygon fill="#191970" stroke="#191970" points="1480.1101,-301.1436 1489.9065,-297.1086 1479.7321,-294.1538 1480.1101,-301.1436"/>
</g>
<!-- Node33 -->
<g id="node34" class="node">
<title>Node33</title>
<polygon fill="#ffffff" stroke="#bfbfbf" points="392.2266,-286 392.2266,-305 441.2266,-305 441.2266,-286 392.2266,-286"/>
<text text-anchor="middle" x="416.7266" y="-293" font-family="Helvetica,sans-Serif" font-size="10.00" fill="#000000">cstdlib</text>
</g>
<!-- Node32&#45;&gt;Node33 -->
<g id="edge47" class="edge">
<title>Node32&#45;&gt;Node33</title>
<path fill="none" stroke="#191970" d="M432.7579,-347.3906C430.0964,-338.776 426.1095,-325.8708 422.7775,-315.0858"/>
<polygon fill="#191970" stroke="#191970" points="426.0331,-313.7661 419.7372,-305.2449 419.345,-315.8324 426.0331,-313.7661"/>
</g>
<!-- Node34 -->
<g id="node35" class="node">
<title>Node34</title>
<polygon fill="#ffffff" stroke="#bfbfbf" points="459.2266,-286 459.2266,-305 506.2266,-305 506.2266,-286 459.2266,-286"/>
<text text-anchor="middle" x="482.7266" y="-293" font-family="Helvetica,sans-Serif" font-size="10.00" fill="#000000">cmath</text>
</g>
<!-- Node32&#45;&gt;Node34 -->
<g id="edge48" class="edge">
<title>Node32&#45;&gt;Node34</title>
<path fill="none" stroke="#191970" d="M443.0704,-347.3906C449.9968,-338.3273 460.5527,-324.5149 469.0326,-313.4188"/>
<polygon fill="#191970" stroke="#191970" points="471.9881,-315.3155 475.2793,-305.2449 466.4263,-311.065 471.9881,-315.3155"/>
</g>
<!-- Node35 -->
<g id="node36" class="node">
<title>Node35</title>
<polygon fill="#ffffff" stroke="#bfbfbf" points="31.7266,-168.5 31.7266,-187.5 95.7266,-187.5 95.7266,-168.5 31.7266,-168.5"/>
<text text-anchor="middle" x="63.7266" y="-175.5" font-family="Helvetica,sans-Serif" font-size="10.00" fill="#000000">algorithm</text>
</g>
<!-- Node32&#45;&gt;Node35 -->
<g id="edge49" class="edge">
<title>Node32&#45;&gt;Node35</title>
<path fill="none" stroke="#191970" d="M395.3185,-351.8639C337.6002,-344.0561 234.8608,-328.2722 201.7266,-311 146.643,-282.2859 98.5099,-224.7214 76.4836,-195.655"/>
<polygon fill="#191970" stroke="#191970" points="79.2811,-193.5516 70.5072,-187.6128 73.6626,-197.7268 79.2811,-193.5516"/>
</g>
<!-- Node36&#45;&gt;Node5 -->
<g id="edge51" class="edge">
<title>Node36&#45;&gt;Node5</title>
<path fill="none" stroke="#191970" d="M234.7446,-347.4432C151.7547,-322.5188 -49.354,-251.6327 22.7266,-168 89.8653,-90.1013 832.2334,-28.8164 1032.3055,-13.6299"/>
<polygon fill="#191970" stroke="#191970" points="1032.8089,-17.1019 1042.5171,-12.8592 1032.282,-10.1218 1032.8089,-17.1019"/>
</g>
<!-- Node37 -->
<g id="node38" class="node">
<title>Node37</title>
<g id="a_node38"><a xlink:href="RWrap__libcpp__string__view_8h.html" target="_top" xlink:title="RWrap_libcpp_string\l_view.h">
<polygon fill="#ffffff" stroke="#000000" points="211.2266,-280.5 211.2266,-310.5 326.2266,-310.5 326.2266,-280.5 211.2266,-280.5"/>
<text text-anchor="start" x="219.2266" y="-298.5" font-family="Helvetica,sans-Serif" font-size="10.00" fill="#000000">RWrap_libcpp_string</text>
<text text-anchor="middle" x="268.7266" y="-287.5" font-family="Helvetica,sans-Serif" font-size="10.00" fill="#000000">_view.h</text>
</a>
</g>
</g>
<!-- Node36&#45;&gt;Node37 -->
<g id="edge52" class="edge">
<title>Node36&#45;&gt;Node37</title>
<path fill="none" stroke="#191970" d="M268.7266,-347.3906C268.7266,-340.2234 268.7266,-330.0862 268.7266,-320.671"/>
<polygon fill="#191970" stroke="#191970" points="272.2267,-320.5446 268.7266,-310.5446 265.2267,-320.5446 272.2267,-320.5446"/>
</g>
<!-- Node37&#45;&gt;Node22 -->
<g id="edge53" class="edge">
<title>Node37&#45;&gt;Node22</title>
<path fill="none" stroke="#191970" d="M298.758,-280.3386C315.5679,-271.0825 336.3689,-258.2962 352.7266,-244 385.5495,-215.3137 378.2444,-191.8599 414.7266,-168 455.7764,-141.1528 512.4229,-129.8054 547.5287,-125.1295"/>
<polygon fill="#191970" stroke="#191970" points="548.1915,-128.5745 557.6909,-123.8828 547.3391,-121.6266 548.1915,-128.5745"/>
</g>
<!-- Node37&#45;&gt;Node35 -->
<g id="edge54" class="edge">
<title>Node37&#45;&gt;Node35</title>
<path fill="none" stroke="#191970" d="M240.2813,-280.4972C221.313,-270.3907 195.8864,-256.6464 173.7266,-244 143.9388,-227.0003 110.1829,-206.5695 88.0126,-192.9874"/>
<polygon fill="#191970" stroke="#191970" points="89.6187,-189.8664 79.2657,-187.6158 85.9555,-195.8314 89.6187,-189.8664"/>
</g>
<!-- Node38 -->
<g id="node39" class="node">
<title>Node38</title>
<polygon fill="#ffffff" stroke="#bfbfbf" points="424.2266,-168.5 424.2266,-187.5 477.2266,-187.5 477.2266,-168.5 424.2266,-168.5"/>
<text text-anchor="middle" x="450.7266" y="-175.5" font-family="Helvetica,sans-Serif" font-size="10.00" fill="#000000">iterator</text>
</g>
<!-- Node37&#45;&gt;Node38 -->
<g id="edge55" class="edge">
<title>Node37&#45;&gt;Node38</title>
<path fill="none" stroke="#191970" d="M326.5398,-282.6668C352.9609,-274.7216 383.4752,-262.4206 406.7266,-244 422.5133,-231.4933 434.6228,-211.736 442.1042,-197.0943"/>
<polygon fill="#191970" stroke="#191970" points="445.3344,-198.4538 446.5327,-187.927 439.0313,-195.409 445.3344,-198.4538"/>
</g>
<!-- Node39 -->
<g id="node40" class="node">
<title>Node39</title>
<polygon fill="#ffffff" stroke="#bfbfbf" points="114.2266,-168.5 114.2266,-187.5 171.2266,-187.5 171.2266,-168.5 114.2266,-168.5"/>
<text text-anchor="middle" x="142.7266" y="-175.5" font-family="Helvetica,sans-Serif" font-size="10.00" fill="#000000">ostream</text>
</g>
<!-- Node37&#45;&gt;Node39 -->
<g id="edge56" class="edge">
<title>Node37&#45;&gt;Node39</title>
<path fill="none" stroke="#191970" d="M243.3557,-280.4954C228.3863,-271.0177 209.535,-257.9552 194.7266,-244 179.2253,-229.3918 164.4902,-209.9764 154.6901,-195.9899"/>
<polygon fill="#191970" stroke="#191970" points="157.5426,-193.9608 149.0043,-187.6879 151.7672,-197.9162 157.5426,-193.9608"/>
</g>
<!-- Node40 -->
<g id="node41" class="node">
<title>Node40</title>
<polygon fill="#ffffff" stroke="#bfbfbf" points="189.7266,-168.5 189.7266,-187.5 245.7266,-187.5 245.7266,-168.5 189.7266,-168.5"/>
<text text-anchor="middle" x="217.7266" y="-175.5" font-family="Helvetica,sans-Serif" font-size="10.00" fill="#000000">iomanip</text>
</g>
<!-- Node37&#45;&gt;Node40 -->
<g id="edge57" class="edge">
<title>Node37&#45;&gt;Node40</title>
<path fill="none" stroke="#191970" d="M238.328,-280.4946C224.4617,-271.8907 209.4419,-259.6614 201.7266,-244 194.3476,-229.021 200.0299,-210.4158 206.5804,-196.781"/>
<polygon fill="#191970" stroke="#191970" points="209.7226,-198.3264 211.3292,-187.8541 203.5426,-195.0389 209.7226,-198.3264"/>
</g>
<!-- Node41 -->
<g id="node42" class="node">
<title>Node41</title>
<polygon fill="#ffffff" stroke="#bfbfbf" points="302.2266,-168.5 302.2266,-187.5 367.2266,-187.5 367.2266,-168.5 302.2266,-168.5"/>
<text text-anchor="middle" x="334.7266" y="-175.5" font-family="Helvetica,sans-Serif" font-size="10.00" fill="#000000">stdexcept</text>
</g>
<!-- Node37&#45;&gt;Node41 -->
<g id="edge58" class="edge">
<title>Node37&#45;&gt;Node41</title>
<path fill="none" stroke="#191970" d="M299.1253,-280.4946C312.9916,-271.8907 328.0114,-259.6614 335.7266,-244 342.8394,-229.5615 341.8464,-211.0994 339.501,-197.375"/>
<polygon fill="#191970" stroke="#191970" points="342.921,-196.6298 337.4591,-187.5514 336.0675,-198.0544 342.921,-196.6298"/>
</g>
<!-- Node42 -->
<g id="node43" class="node">
<title>Node42</title>
<g id="a_node43"><a xlink:href="libcpp__string__view_8h.html" target="_top" xlink:title="libcpp_string_view.h">
<polygon fill="#ffffff" stroke="#000000" points="210.7266,-224.5 210.7266,-243.5 326.7266,-243.5 326.7266,-224.5 210.7266,-224.5"/>
<text text-anchor="middle" x="268.7266" y="-231.5" font-family="Helvetica,sans-Serif" font-size="10.00" fill="#000000">libcpp_string_view.h</text>
</a>
</g>
</g>
<!-- Node37&#45;&gt;Node42 -->
<g id="edge59" class="edge">
<title>Node37&#45;&gt;Node42</title>
<path fill="none" stroke="#191970" d="M268.7266,-280.2977C268.7266,-272.3834 268.7266,-262.6043 268.7266,-254.0759"/>
<polygon fill="#191970" stroke="#191970" points="272.2267,-253.8469 268.7266,-243.8469 265.2267,-253.847 272.2267,-253.8469"/>
</g>
<!-- Node42&#45;&gt;Node22 -->
<g id="edge60" class="edge">
<title>Node42&#45;&gt;Node22</title>
<path fill="none" stroke="#191970" d="M269.2951,-224.1867C270.7061,-209.5292 275.6193,-182.133 292.7266,-168 331.0527,-136.3374 480.3923,-126.1644 547.1585,-123.1578"/>
<polygon fill="#191970" stroke="#191970" points="547.665,-126.6396 557.508,-122.7198 547.369,-119.6458 547.665,-126.6396"/>
</g>
<!-- Node42&#45;&gt;Node35 -->
<g id="edge61" class="edge">
<title>Node42&#45;&gt;Node35</title>
<path fill="none" stroke="#191970" d="M233.4859,-224.3733C197.9665,-214.6704 143.1545,-199.6974 105.4768,-189.4049"/>
<polygon fill="#191970" stroke="#191970" points="106.3813,-186.0238 95.8124,-186.7649 104.5367,-192.7764 106.3813,-186.0238"/>
</g>
<!-- Node42&#45;&gt;Node38 -->
<g id="edge62" class="edge">
<title>Node42&#45;&gt;Node38</title>
<path fill="none" stroke="#191970" d="M300.0135,-224.3733C331.6979,-214.6242 380.6737,-199.5547 414.1371,-189.2583"/>
<polygon fill="#191970" stroke="#191970" points="415.4596,-192.5134 423.988,-186.2273 413.4009,-185.823 415.4596,-192.5134"/>
</g>
<!-- Node42&#45;&gt;Node39 -->
<g id="edge63" class="edge">
<title>Node42&#45;&gt;Node39</title>
<path fill="none" stroke="#191970" d="M247.0665,-224.3733C226.7495,-215.3435 196.1627,-201.7494 173.3516,-191.6111"/>
<polygon fill="#191970" stroke="#191970" points="174.6638,-188.3642 164.1042,-187.5011 171.8208,-194.7609 174.6638,-188.3642"/>
</g>
<!-- Node42&#45;&gt;Node40 -->
<g id="edge64" class="edge">
<title>Node42&#45;&gt;Node40</title>
<path fill="none" stroke="#191970" d="M259.8431,-224.2455C252.5301,-216.2155 241.9875,-204.6394 233.2799,-195.0781"/>
<polygon fill="#191970" stroke="#191970" points="235.8294,-192.6795 226.5084,-187.6427 230.654,-197.3928 235.8294,-192.6795"/>
</g>
<!-- Node42&#45;&gt;Node41 -->
<g id="edge65" class="edge">
<title>Node42&#45;&gt;Node41</title>
<path fill="none" stroke="#191970" d="M280.223,-224.2455C289.9708,-215.9746 304.1526,-203.9416 315.6064,-194.2232"/>
<polygon fill="#191970" stroke="#191970" points="318.0014,-196.7813 323.3621,-187.6427 313.4725,-191.4437 318.0014,-196.7813"/>
</g>
<!-- Node43&#45;&gt;Node18 -->
<g id="edge68" class="edge">
<title>Node43&#45;&gt;Node18</title>
<path fill="none" stroke="#191970" d="M711.6875,-347.463C736.6206,-340.4891 767.069,-329.0273 789.7266,-311 829.2839,-279.5267 857.1781,-225.2964 869.9245,-196.7784"/>
<polygon fill="#191970" stroke="#191970" points="873.1695,-198.0924 873.9288,-187.5248 866.7452,-195.3124 873.1695,-198.0924"/>
</g>
<!-- Node43&#45;&gt;Node20 -->
<g id="edge69" class="edge">
<title>Node43&#45;&gt;Node20</title>
<path fill="none" stroke="#191970" d="M721.0641,-347.4543C751.5649,-340.4776 789.4561,-329.0159 819.7266,-311 871.8291,-279.9906 918.5995,-224.3525 940.5397,-195.8689"/>
<polygon fill="#191970" stroke="#191970" points="943.5227,-197.727 946.7659,-187.6407 937.9407,-193.503 943.5227,-197.727"/>
</g>
<!-- Node44 -->
<g id="node45" class="node">
<title>Node44</title>
<polygon fill="#ffffff" stroke="#bfbfbf" points="495.7266,-168.5 495.7266,-187.5 553.7266,-187.5 553.7266,-168.5 495.7266,-168.5"/>
<text text-anchor="middle" x="524.7266" y="-175.5" font-family="Helvetica,sans-Serif" font-size="10.00" fill="#000000">memory</text>
</g>
<!-- Node43&#45;&gt;Node44 -->
<g id="edge67" class="edge">
<title>Node43&#45;&gt;Node44</title>
<path fill="none" stroke="#191970" d="M663.0861,-347.3623C653.9323,-324.0651 628.0633,-263.6915 591.7266,-224 580.3473,-211.57 565.0021,-200.7256 551.8685,-192.693"/>
<polygon fill="#191970" stroke="#191970" points="553.5991,-189.6504 543.2053,-187.5962 550.0496,-195.6837 553.5991,-189.6504"/>
</g>
<!-- Node45 -->
<g id="node46" class="node">
<title>Node45</title>
<g id="a_node46"><a xlink:href="RSpan_8hxx.html" target="_top" xlink:title="ROOT/RSpan.hxx">
<polygon fill="#ffffff" stroke="#000000" points="682.2266,-286 682.2266,-305 781.2266,-305 781.2266,-286 682.2266,-286"/>
<text text-anchor="middle" x="731.7266" y="-293" font-family="Helvetica,sans-Serif" font-size="10.00" fill="#000000">ROOT/RSpan.hxx</text>
</a>
</g>
</g>
<!-- Node43&#45;&gt;Node45 -->
<g id="edge70" class="edge">
<title>Node43&#45;&gt;Node45</title>
<path fill="none" stroke="#191970" d="M676.8829,-347.3906C686.7465,-338.0581 701.9322,-323.6902 713.8253,-312.4374"/>
<polygon fill="#191970" stroke="#191970" points="716.5687,-314.6601 721.4272,-305.2449 711.7577,-309.5753 716.5687,-314.6601"/>
</g>
<!-- Node45&#45;&gt;Node5 -->
<g id="edge71" class="edge">
<title>Node45&#45;&gt;Node5</title>
<path fill="none" stroke="#191970" d="M742.4845,-285.7786C753.2424,-275.8034 769.9768,-259.5816 782.7266,-244 808.4871,-212.518 804.6228,-196.4198 833.7266,-168 901.6979,-101.6263 1001.8981,-48.2593 1051.5533,-24.0626"/>
<polygon fill="#191970" stroke="#191970" points="1053.2944,-27.109 1060.7858,-19.617 1050.2574,-20.802 1053.2944,-27.109"/>
</g>
<!-- Node46 -->
<g id="node47" class="node">
<title>Node46</title>
<g id="a_node47"><a xlink:href="span_8hxx.html" target="_top" xlink:title="ROOT/span.hxx">
<polygon fill="#ffffff" stroke="#000000" points="681.7266,-224.5 681.7266,-243.5 773.7266,-243.5 773.7266,-224.5 681.7266,-224.5"/>
<text text-anchor="middle" x="727.7266" y="-231.5" font-family="Helvetica,sans-Serif" font-size="10.00" fill="#000000">ROOT/span.hxx</text>
</a>
</g>
</g>
<!-- Node45&#45;&gt;Node46 -->
<g id="edge72" class="edge">
<title>Node45&#45;&gt;Node46</title>
<path fill="none" stroke="#191970" d="M731.1016,-285.8906C730.5472,-277.3657 729.7194,-264.6392 729.0225,-253.9235"/>
<polygon fill="#191970" stroke="#191970" points="732.5022,-253.4966 728.3604,-243.7449 725.517,-253.951 732.5022,-253.4966"/>
</g>
<!-- Node46&#45;&gt;Node18 -->
<g id="edge79" class="edge">
<title>Node46&#45;&gt;Node18</title>
<path fill="none" stroke="#191970" d="M753.5126,-224.3733C778.1313,-215.1822 815.4166,-201.2624 842.7141,-191.0713"/>
<polygon fill="#191970" stroke="#191970" points="844.1329,-194.2777 852.2772,-187.5011 841.6846,-187.7198 844.1329,-194.2777"/>
</g>
<!-- Node46&#45;&gt;Node20 -->
<g id="edge76" class="edge">
<title>Node46&#45;&gt;Node20</title>
<path fill="none" stroke="#191970" d="M771.2239,-224.4203C808.3188,-216.0741 863.2685,-203.2958 920.1032,-188.0518"/>
<polygon fill="#191970" stroke="#191970" points="921.2423,-191.3696 929.9828,-185.3818 919.416,-184.612 921.2423,-191.3696"/>
</g>
<!-- Node46&#45;&gt;Node38 -->
<g id="edge74" class="edge">
<title>Node46&#45;&gt;Node38</title>
<path fill="none" stroke="#191970" d="M681.2867,-226.3055C634.672,-218.321 560.6226,-204.9298 487.273,-187.9775"/>
<polygon fill="#191970" stroke="#191970" points="487.9339,-184.5377 477.4001,-185.6727 486.3426,-191.3544 487.9339,-184.5377"/>
</g>
<!-- Node46&#45;&gt;Node41 -->
<g id="edge77" class="edge">
<title>Node46&#45;&gt;Node41</title>
<path fill="none" stroke="#191970" d="M681.4889,-227.4114C604.6518,-216.4626 451.7811,-194.6795 377.383,-184.0783"/>
<polygon fill="#191970" stroke="#191970" points="377.8158,-180.6047 367.422,-182.6589 376.8283,-187.5347 377.8158,-180.6047"/>
</g>
<!-- Node46&#45;&gt;Node44 -->
<g id="edge78" class="edge">
<title>Node46&#45;&gt;Node44</title>
<path fill="none" stroke="#191970" d="M692.8297,-224.3733C656.9776,-214.483 601.276,-199.1171 563.9271,-188.8139"/>
<polygon fill="#191970" stroke="#191970" points="564.4819,-185.3363 553.9112,-186.0509 562.6203,-192.0842 564.4819,-185.3363"/>
</g>
<!-- Node47 -->
<g id="node48" class="node">
<title>Node47</title>
<polygon fill="#ffffff" stroke="#bfbfbf" points="673.2266,-168.5 673.2266,-187.5 726.2266,-187.5 726.2266,-168.5 673.2266,-168.5"/>
<text text-anchor="middle" x="699.7266" y="-175.5" font-family="Helvetica,sans-Serif" font-size="10.00" fill="#000000">cstddef</text>
</g>
<!-- Node46&#45;&gt;Node47 -->
<g id="edge73" class="edge">
<title>Node46&#45;&gt;Node47</title>
<path fill="none" stroke="#191970" d="M722.8494,-224.2455C719.0753,-216.6973 713.7345,-206.0158 709.1365,-196.8197"/>
<polygon fill="#191970" stroke="#191970" points="712.1507,-195.0217 704.548,-187.6427 705.8897,-198.1522 712.1507,-195.0217"/>
</g>
<!-- Node48 -->
<g id="node49" class="node">
<title>Node48</title>
<polygon fill="#ffffff" stroke="#bfbfbf" points="744.7266,-168.5 744.7266,-187.5 786.7266,-187.5 786.7266,-168.5 744.7266,-168.5"/>
<text text-anchor="middle" x="765.7266" y="-175.5" font-family="Helvetica,sans-Serif" font-size="10.00" fill="#000000">array</text>
</g>
<!-- Node46&#45;&gt;Node48 -->
<g id="edge75" class="edge">
<title>Node46&#45;&gt;Node48</title>
<path fill="none" stroke="#191970" d="M734.3457,-224.2455C739.6312,-216.4564 747.1808,-205.3308 753.5504,-195.9439"/>
<polygon fill="#191970" stroke="#191970" points="756.4645,-197.8827 759.1834,-187.6427 750.6722,-193.9522 756.4645,-197.8827"/>
</g>
<!-- Node49 -->
<g id="node50" class="node">
<title>Node49</title>
<polygon fill="#ffffff" stroke="#bfbfbf" points="572.2266,-168.5 572.2266,-187.5 655.2266,-187.5 655.2266,-168.5 572.2266,-168.5"/>
<text text-anchor="middle" x="613.7266" y="-175.5" font-family="Helvetica,sans-Serif" font-size="10.00" fill="#000000">initializer_list</text>
</g>
<!-- Node46&#45;&gt;Node49 -->
<g id="edge80" class="edge">
<title>Node46&#45;&gt;Node49</title>
<path fill="none" stroke="#191970" d="M708.1293,-224.3733C689.9935,-215.4644 662.8131,-202.1127 642.2679,-192.0203"/>
<polygon fill="#191970" stroke="#191970" points="643.5869,-188.7688 633.0682,-187.5011 640.5006,-195.0517 643.5869,-188.7688"/>
</g>
<!-- Node50&#45;&gt;Node31 -->
<g id="edge101" class="edge">
<title>Node50&#45;&gt;Node31</title>
<path fill="none" stroke="#191970" d="M657.157,-795.4257C618.9967,-780.2096 554.7266,-746.6227 554.7266,-693 554.7266,-693 554.7266,-693 554.7266,-637 554.7266,-557.8689 544.7573,-537.9056 550.7266,-459 551.3802,-450.361 552.7147,-440.8868 554.045,-432.7935"/>
<polygon fill="#191970" stroke="#191970" points="557.5138,-433.2753 555.7919,-422.8213 550.6188,-432.0674 557.5138,-433.2753"/>
</g>
<!-- Node50&#45;&gt;Node51 -->
<g id="edge86" class="edge">
<title>Node50&#45;&gt;Node51</title>
<path fill="none" stroke="#191970" d="M649.141,-798.8697C618.6109,-792.4332 574.3522,-780.2185 540.7266,-759 520.688,-746.3552 502.7541,-725.7225 491.3926,-710.8906"/>
<polygon fill="#191970" stroke="#191970" points="493.9682,-708.487 485.2076,-702.5285 488.3403,-712.6496 493.9682,-708.487"/>
</g>
<!-- Node58 -->
<g id="node59" class="node">
<title>Node58</title>
<g id="a_node59"><a xlink:href="TVirtualQConnection_8h.html" target="_top" xlink:title="TVirtualQConnection.h">
<polygon fill="#ffffff" stroke="#000000" points="621.7266,-739.5 621.7266,-758.5 747.7266,-758.5 747.7266,-739.5 621.7266,-739.5"/>
<text text-anchor="middle" x="684.7266" y="-746.5" font-family="Helvetica,sans-Serif" font-size="10.00" fill="#000000">TVirtualQConnection.h</text>
</a>
</g>
</g>
<!-- Node50&#45;&gt;Node58 -->
<g id="edge102" class="edge">
<title>Node50&#45;&gt;Node58</title>
<path fill="none" stroke="#191970" d="M684.7266,-795.2455C684.7266,-787.9382 684.7266,-777.6944 684.7266,-768.7046"/>
<polygon fill="#191970" stroke="#191970" points="688.2267,-768.6426 684.7266,-758.6427 681.2267,-768.6427 688.2267,-768.6426"/>
</g>
<!-- Node51&#45;&gt;Node31 -->
<g id="edge98" class="edge">
<title>Node51&#45;&gt;Node31</title>
<path fill="none" stroke="#191970" d="M478.078,-683.4679C476.236,-650.4253 473.4128,-538.4799 512.7266,-459 518.3393,-447.653 527.7997,-437.3387 536.6019,-429.366"/>
<polygon fill="#191970" stroke="#191970" points="539.0337,-431.8921 544.3713,-422.74 534.4914,-426.566 539.0337,-431.8921"/>
</g>
<!-- Node51&#45;&gt;Node38 -->
<g id="edge99" class="edge">
<title>Node51&#45;&gt;Node38</title>
<path fill="none" stroke="#191970" d="M454.6679,-683.491C437.4208,-675.7236 414.5357,-663.3598 398.7266,-647 375.6541,-623.1237 363.7266,-614.2027 363.7266,-581 363.7266,-581 363.7266,-581 363.7266,-357 363.7266,-321.7513 363.4231,-309.4931 382.7266,-280 397.1364,-257.984 414.5969,-265.5276 429.7266,-244 439.4376,-230.1826 444.8141,-211.6601 447.6891,-197.7546"/>
<polygon fill="#191970" stroke="#191970" points="451.1592,-198.2337 449.4936,-187.7706 444.2708,-196.9887 451.1592,-198.2337"/>
</g>
<!-- Node51&#45;&gt;Node44 -->
<g id="edge100" class="edge">
<title>Node51&#45;&gt;Node44</title>
<path fill="none" stroke="#191970" d="M468.1226,-683.3425C449.4659,-665.2361 412.7266,-624.1076 412.7266,-581 412.7266,-581 412.7266,-581 412.7266,-525 412.7266,-419.6376 487.6487,-412.8235 514.7266,-311 525.1461,-271.8189 525.9907,-224.0184 525.4837,-197.7171"/>
<polygon fill="#191970" stroke="#191970" points="528.9776,-197.4479 525.1966,-187.5507 521.9804,-197.6456 528.9776,-197.4479"/>
</g>
<!-- Node52 -->
<g id="node53" class="node">
<title>Node52</title>
<g id="a_node53"><a xlink:href="TSeqCollection_8h.html" target="_top" xlink:title="TSeqCollection.h">
<polygon fill="#ffffff" stroke="#000000" points="654.7266,-627.5 654.7266,-646.5 752.7266,-646.5 752.7266,-627.5 654.7266,-627.5"/>
<text text-anchor="middle" x="703.7266" y="-634.5" font-family="Helvetica,sans-Serif" font-size="10.00" fill="#000000">TSeqCollection.h</text>
</a>
</g>
</g>
<!-- Node51&#45;&gt;Node52 -->
<g id="edge87" class="edge">
<title>Node51&#45;&gt;Node52</title>
<path fill="none" stroke="#191970" d="M503.2339,-686.9004C539.6299,-677.8419 608.6932,-660.6528 655.4692,-649.0107"/>
<polygon fill="#191970" stroke="#191970" points="656.5256,-652.3547 665.3842,-646.543 654.8349,-645.5619 656.5256,-652.3547"/>
</g>
<!-- Node53 -->
<g id="node54" class="node">
<title>Node53</title>
<g id="a_node54"><a xlink:href="TCollection_8h.html" target="_top" xlink:title="TCollection.h">
<polygon fill="#ffffff" stroke="#000000" points="670.7266,-571.5 670.7266,-590.5 750.7266,-590.5 750.7266,-571.5 670.7266,-571.5"/>
<text text-anchor="middle" x="710.7266" y="-578.5" font-family="Helvetica,sans-Serif" font-size="10.00" fill="#000000">TCollection.h</text>
</a>
</g>
</g>
<!-- Node52&#45;&gt;Node53 -->
<g id="edge88" class="edge">
<title>Node52&#45;&gt;Node53</title>
<path fill="none" stroke="#191970" d="M704.9459,-627.2455C705.8594,-619.9382 707.1398,-609.6944 708.2636,-600.7046"/>
<polygon fill="#191970" stroke="#191970" points="711.7538,-600.9996 709.5213,-590.6427 704.8079,-600.1313 711.7538,-600.9996"/>
</g>
<!-- Node53&#45;&gt;Node4 -->
<g id="edge89" class="edge">
<title>Node53&#45;&gt;Node4</title>
<path fill="none" stroke="#191970" d="M709.8853,-571.252C708.4602,-547.867 708.4621,-488.3519 741.7266,-459 765.9354,-437.6387 977.6213,-421.5737 1069.0101,-415.571"/>
<polygon fill="#191970" stroke="#191970" points="1069.2701,-419.0616 1079.0227,-414.9221 1068.8173,-412.0762 1069.2701,-419.0616"/>
</g>
<!-- Node53&#45;&gt;Node31 -->
<g id="edge92" class="edge">
<title>Node53&#45;&gt;Node31</title>
<path fill="none" stroke="#191970" d="M703.4649,-571.3588C693.5097,-558.2837 674.8982,-534.3414 657.7266,-515 629.9647,-483.73 595.3908,-449.4016 575.0225,-429.6097"/>
<polygon fill="#191970" stroke="#191970" points="577.3324,-426.9745 567.7113,-422.5375 572.4655,-432.0058 577.3324,-426.9745"/>
</g>
<!-- Node54 -->
<g id="node55" class="node">
<title>Node54</title>
<g id="a_node55"><a xlink:href="TIterator_8h.html" target="_top" xlink:title="TIterator.h">
<polygon fill="#ffffff" stroke="#000000" points="1328.2266,-403.5 1328.2266,-422.5 1395.2266,-422.5 1395.2266,-403.5 1328.2266,-403.5"/>
<text text-anchor="middle" x="1361.7266" y="-410.5" font-family="Helvetica,sans-Serif" font-size="10.00" fill="#000000">TIterator.h</text>
</a>
</g>
</g>
<!-- Node53&#45;&gt;Node54 -->
<g id="edge90" class="edge">
<title>Node53&#45;&gt;Node54</title>
<path fill="none" stroke="#191970" d="M748.9606,-571.4987C779.9087,-563.3004 824.3414,-550.3714 861.7266,-535 879.3781,-527.7424 881.5467,-520.8085 899.7266,-515 1013.7868,-478.5576 1050.1446,-506.3204 1166.7266,-479 1225.0234,-465.3384 1290.5296,-441.2927 1328.8435,-426.3044"/>
<polygon fill="#191970" stroke="#191970" points="1330.4223,-429.4441 1338.439,-422.5171 1327.8523,-422.9329 1330.4223,-429.4441"/>
</g>
<!-- Node55 -->
<g id="node56" class="node">
<title>Node55</title>
<g id="a_node56"><a xlink:href="TVirtualRWMutex_8h.html" target="_top" xlink:title="TVirtualRWMutex.h">
<polygon fill="#ffffff" stroke="#000000" points="742.7266,-515.5 742.7266,-534.5 852.7266,-534.5 852.7266,-515.5 742.7266,-515.5"/>
<text text-anchor="middle" x="797.7266" y="-522.5" font-family="Helvetica,sans-Serif" font-size="10.00" fill="#000000">TVirtualRWMutex.h</text>
</a>
</g>
</g>
<!-- Node53&#45;&gt;Node55 -->
<g id="edge93" class="edge">
<title>Node53&#45;&gt;Node55</title>
<path fill="none" stroke="#191970" d="M725.8809,-571.2455C739.2294,-562.6534 758.8852,-550.0014 774.2649,-540.1018"/>
<polygon fill="#191970" stroke="#191970" points="776.2318,-542.9982 782.7461,-534.6427 772.443,-537.1121 776.2318,-542.9982"/>
</g>
<!-- Node57 -->
<g id="node58" class="node">
<title>Node57</title>
<polygon fill="#ffffff" stroke="#bfbfbf" points="592.7266,-515.5 592.7266,-534.5 648.7266,-534.5 648.7266,-515.5 592.7266,-515.5"/>
<text text-anchor="middle" x="620.7266" y="-522.5" font-family="Helvetica,sans-Serif" font-size="10.00" fill="#000000">assert.h</text>
</g>
<!-- Node53&#45;&gt;Node57 -->
<g id="edge97" class="edge">
<title>Node53&#45;&gt;Node57</title>
<path fill="none" stroke="#191970" d="M695.0498,-571.2455C681.2411,-562.6534 660.9074,-550.0014 644.9974,-540.1018"/>
<polygon fill="#191970" stroke="#191970" points="646.5634,-536.954 636.2238,-534.6427 642.8653,-542.8974 646.5634,-536.954"/>
</g>
<!-- Node54&#45;&gt;Node6 -->
<g id="edge91" class="edge">
<title>Node54&#45;&gt;Node6</title>
<path fill="none" stroke="#191970" d="M1366.7054,-403.295C1374.3171,-389.2673 1390.0567,-363.2322 1409.7266,-347 1422.0929,-336.7951 1458.5826,-320.5415 1486.1723,-309.0264"/>
<polygon fill="#191970" stroke="#191970" points="1487.601,-312.2231 1495.5058,-305.1687 1484.9271,-305.7539 1487.601,-312.2231"/>
</g>
<!-- Node56 -->
<g id="node57" class="node">
<title>Node56</title>
<g id="a_node57"><a xlink:href="TVirtualMutex_8h.html" target="_top" xlink:title="TVirtualMutex.h">
<polygon fill="#ffffff" stroke="#000000" points="750.7266,-459.5 750.7266,-478.5 844.7266,-478.5 844.7266,-459.5 750.7266,-459.5"/>
<text text-anchor="middle" x="797.7266" y="-466.5" font-family="Helvetica,sans-Serif" font-size="10.00" fill="#000000">TVirtualMutex.h</text>
</a>
</g>
</g>
<!-- Node55&#45;&gt;Node56 -->
<g id="edge94" class="edge">
<title>Node55&#45;&gt;Node56</title>
<path fill="none" stroke="#191970" d="M797.7266,-515.2455C797.7266,-507.9382 797.7266,-497.6944 797.7266,-488.7046"/>
<polygon fill="#191970" stroke="#191970" points="801.2267,-488.6426 797.7266,-478.6427 794.2267,-488.6427 801.2267,-488.6426"/>
</g>
<!-- Node56&#45;&gt;Node4 -->
<g id="edge95" class="edge">
<title>Node56&#45;&gt;Node4</title>
<path fill="none" stroke="#191970" d="M844.9248,-460.5556C905.8232,-449.66 1010.8251,-430.8738 1068.9578,-420.473"/>
<polygon fill="#191970" stroke="#191970" points="1069.6751,-423.9003 1078.9024,-418.6938 1068.4422,-417.0098 1069.6751,-423.9003"/>
</g>
<!-- Node56&#45;&gt;Node44 -->
<g id="edge96" class="edge">
<title>Node56&#45;&gt;Node44</title>
<path fill="none" stroke="#191970" d="M761.2922,-459.4046C716.9119,-445.9156 642.4663,-417.1979 598.7266,-367 554.4956,-316.2383 575.4795,-285.7853 548.7266,-224 544.7135,-214.7316 539.6117,-204.7578 535.1448,-196.4744"/>
<polygon fill="#191970" stroke="#191970" points="538.1861,-194.7414 530.296,-187.6706 532.0546,-198.1185 538.1861,-194.7414"/>
</g>
<!-- Node58&#45;&gt;Node51 -->
<g id="edge103" class="edge">
<title>Node58&#45;&gt;Node51</title>
<path fill="none" stroke="#191970" d="M649.314,-739.3733C611.2496,-729.0257 551.1365,-712.6842 513.3718,-702.4181"/>
<polygon fill="#191970" stroke="#191970" points="513.9176,-698.9395 503.3497,-699.6936 512.0813,-705.6944 513.9176,-698.9395"/>
</g>
<!-- Node59 -->
<g id="node60" class="node">
<title>Node59</title>
<g id="a_node60"><a xlink:href="TInterpreter_8h.html" target="_top" xlink:title="TInterpreter.h">
<polygon fill="#ffffff" stroke="#000000" points="857.2266,-627.5 857.2266,-646.5 940.2266,-646.5 940.2266,-627.5 857.2266,-627.5"/>
<text text-anchor="middle" x="898.7266" y="-634.5" font-family="Helvetica,sans-Serif" font-size="10.00" fill="#000000">TInterpreter.h</text>
</a>
</g>
</g>
<!-- Node58&#45;&gt;Node59 -->
<g id="edge104" class="edge">
<title>Node58&#45;&gt;Node59</title>
<path fill="none" stroke="#191970" d="M702.9722,-739.4509C740.639,-719.7375 827.177,-674.4465 871.4907,-651.2543"/>
<polygon fill="#191970" stroke="#191970" points="873.2903,-654.2629 880.5273,-646.5249 870.0444,-648.0609 873.2903,-654.2629"/>
</g>
<!-- Node59&#45;&gt;Node17 -->
<g id="edge117" class="edge">
<title>Node59&#45;&gt;Node17</title>
<path fill="none" stroke="#191970" d="M940.5309,-628.1019C978.0714,-619.3673 1029.5443,-605.3077 1044.7266,-591 1071.0376,-566.2049 1048.2239,-540.6256 1073.7266,-515 1104.9916,-483.5843 1129.3783,-502.8651 1166.7266,-479 1227.1153,-440.4123 1246.4153,-428.7842 1282.7266,-367 1316.0469,-310.3052 1272.0289,-268.1936 1320.7266,-224 1355.4409,-192.4965 1493.293,-182.4106 1561.7449,-179.309"/>
<polygon fill="#191970" stroke="#191970" points="1562.2663,-182.7901 1572.1088,-178.869 1561.9693,-175.7964 1562.2663,-182.7901"/>
</g>
<!-- Node59&#45;&gt;Node20 -->
<g id="edge118" class="edge">
<title>Node59&#45;&gt;Node20</title>
<path fill="none" stroke="#191970" d="M856.886,-634.3158C808.2462,-629.9825 726.3843,-618.8865 661.7266,-591 565.3299,-549.4246 473.2129,-497.601 518.7266,-403 578.1096,-279.5717 653.7034,-289.977 782.7266,-244 831.0168,-226.792 886.2466,-205.1054 920.559,-191.3912"/>
<polygon fill="#191970" stroke="#191970" points="922.1015,-194.5437 930.0819,-187.575 919.4976,-188.046 922.1015,-194.5437"/>
</g>
<!-- Node59&#45;&gt;Node55 -->
<g id="edge115" class="edge">
<title>Node59&#45;&gt;Node55</title>
<path fill="none" stroke="#191970" d="M870.2571,-627.4617C852.4649,-620.121 830.4097,-608.2734 816.7266,-591 806.2109,-577.725 801.5152,-558.8645 799.4183,-544.7025"/>
<polygon fill="#191970" stroke="#191970" points="802.8689,-544.075 798.2324,-534.5486 795.9162,-544.8872 802.8689,-544.075"/>
</g>
<!-- Node60 -->
<g id="node61" class="node">
<title>Node60</title>
<g id="a_node61"><a xlink:href="TDataType_8h.html" target="_top" xlink:title="TDataType.h">
<polygon fill="#ffffff" stroke="#000000" points="826.2266,-571.5 826.2266,-590.5 903.2266,-590.5 903.2266,-571.5 826.2266,-571.5"/>
<text text-anchor="middle" x="864.7266" y="-578.5" font-family="Helvetica,sans-Serif" font-size="10.00" fill="#000000">TDataType.h</text>
</a>
</g>
</g>
<!-- Node59&#45;&gt;Node60 -->
<g id="edge105" class="edge">
<title>Node59&#45;&gt;Node60</title>
<path fill="none" stroke="#191970" d="M892.8043,-627.2455C888.1239,-619.5367 881.4594,-608.5598 875.7978,-599.2348"/>
<polygon fill="#191970" stroke="#191970" points="878.7627,-597.3741 870.5811,-590.6427 872.7792,-601.007 878.7627,-597.3741"/>
</g>
<!-- Node61 -->
<g id="node62" class="node">
<title>Node61</title>
<g id="a_node62"><a xlink:href="TDictionary_8h.html" target="_top" xlink:title="TDictionary.h">
<polygon fill="#ffffff" stroke="#000000" points="908.7266,-515.5 908.7266,-534.5 988.7266,-534.5 988.7266,-515.5 908.7266,-515.5"/>
<text text-anchor="middle" x="948.7266" y="-522.5" font-family="Helvetica,sans-Serif" font-size="10.00" fill="#000000">TDictionary.h</text>
</a>
</g>
</g>
<!-- Node59&#45;&gt;Node61 -->
<g id="edge111" class="edge">
<title>Node59&#45;&gt;Node61</title>
<path fill="none" stroke="#191970" d="M902.9896,-627.4509C911.2552,-608.936 929.5931,-567.8591 940.3701,-543.7187"/>
<polygon fill="#191970" stroke="#191970" points="943.5939,-545.0831 944.4745,-534.5249 937.2019,-542.2295 943.5939,-545.0831"/>
</g>
<!-- Node64 -->
<g id="node65" class="node">
<title>Node64</title>
<g id="a_node65"><a xlink:href="TInterpreterValue_8h.html" target="_top" xlink:title="TInterpreterValue.h">
<polygon fill="#ffffff" stroke="#000000" points="855.7266,-347.5 855.7266,-366.5 965.7266,-366.5 965.7266,-347.5 855.7266,-347.5"/>
<text text-anchor="middle" x="910.7266" y="-354.5" font-family="Helvetica,sans-Serif" font-size="10.00" fill="#000000">TInterpreterValue.h</text>
</a>
</g>
</g>
<!-- Node59&#45;&gt;Node64 -->
<g id="edge112" class="edge">
<title>Node59&#45;&gt;Node64</title>
<path fill="none" stroke="#191970" d="M913.7657,-627.319C936.9851,-611.363 980.6636,-577.0793 997.7266,-535 1022.3921,-474.1725 961.9432,-405.1229 929.5668,-373.9081"/>
<polygon fill="#191970" stroke="#191970" points="931.6962,-371.1065 922.0093,-366.8153 926.9059,-376.2108 931.6962,-371.1065"/>
</g>
<!-- Node65 -->
<g id="node66" class="node">
<title>Node65</title>
<polygon fill="#ffffff" stroke="#bfbfbf" points="997.7266,-571.5 997.7266,-590.5 1035.7266,-590.5 1035.7266,-571.5 997.7266,-571.5"/>
<text text-anchor="middle" x="1016.7266" y="-578.5" font-family="Helvetica,sans-Serif" font-size="10.00" fill="#000000">map</text>
</g>
<!-- Node59&#45;&gt;Node65 -->
<g id="edge116" class="edge">
<title>Node59&#45;&gt;Node65</title>
<path fill="none" stroke="#191970" d="M919.0116,-627.3733C938.0973,-618.3156 966.8601,-604.6655 988.2435,-594.5174"/>
<polygon fill="#191970" stroke="#191970" points="989.9541,-597.5798 997.4878,-590.1303 986.9529,-591.2558 989.9541,-597.5798"/>
</g>
<!-- Node60&#45;&gt;Node61 -->
<g id="edge106" class="edge">
<title>Node60&#45;&gt;Node61</title>
<path fill="none" stroke="#191970" d="M879.3583,-571.2455C892.126,-562.7337 910.8704,-550.2375 925.6565,-540.3801"/>
<polygon fill="#191970" stroke="#191970" points="927.8836,-543.1019 934.2626,-534.6427 924.0006,-537.2775 927.8836,-543.1019"/>
</g>
<!-- Node62 -->
<g id="node63" class="node">
<title>Node62</title>
<g id="a_node63"><a xlink:href="TNamed_8h.html" target="_top" xlink:title="TNamed.h">
<polygon fill="#ffffff" stroke="#000000" points="1090.2266,-459.5 1090.2266,-478.5 1157.2266,-478.5 1157.2266,-459.5 1090.2266,-459.5"/>
<text text-anchor="middle" x="1123.7266" y="-466.5" font-family="Helvetica,sans-Serif" font-size="10.00" fill="#000000">TNamed.h</text>
</a>
</g>
</g>
<!-- Node61&#45;&gt;Node62 -->
<g id="edge107" class="edge">
<title>Node61&#45;&gt;Node62</title>
<path fill="none" stroke="#191970" d="M978.8102,-515.3733C1007.91,-506.0613 1052.1789,-491.8953 1084.1297,-481.671"/>
<polygon fill="#191970" stroke="#191970" points="1085.5781,-484.8824 1094.0356,-478.5011 1083.4446,-478.2155 1085.5781,-484.8824"/>
</g>
<!-- Node63 -->
<g id="node64" class="node">
<title>Node63</title>
<g id="a_node64"><a xlink:href="ESTLType_8h.html" target="_top" xlink:title="ESTLType.h">
<polygon fill="#ffffff" stroke="#000000" points="887.7266,-459.5 887.7266,-478.5 957.7266,-478.5 957.7266,-459.5 887.7266,-459.5"/>
<text text-anchor="middle" x="922.7266" y="-466.5" font-family="Helvetica,sans-Serif" font-size="10.00" fill="#000000">ESTLType.h</text>
</a>
</g>
</g>
<!-- Node61&#45;&gt;Node63 -->
<g id="edge110" class="edge">
<title>Node61&#45;&gt;Node63</title>
<path fill="none" stroke="#191970" d="M944.1978,-515.2455C940.6932,-507.6973 935.7339,-497.0158 931.4644,-487.8197"/>
<polygon fill="#191970" stroke="#191970" points="934.5893,-486.2389 927.2036,-478.6427 928.2402,-489.1867 934.5893,-486.2389"/>
</g>
<!-- Node62&#45;&gt;Node4 -->
<g id="edge108" class="edge">
<title>Node62&#45;&gt;Node4</title>
<path fill="none" stroke="#191970" d="M1121.4622,-459.2455C1119.7472,-451.8579 1117.3355,-441.4689 1115.2322,-432.4087"/>
<polygon fill="#191970" stroke="#191970" points="1118.6358,-431.5922 1112.9651,-422.6427 1111.8171,-433.1751 1118.6358,-431.5922"/>
</g>
<!-- Node62&#45;&gt;Node31 -->
<g id="edge109" class="edge">
<title>Node62&#45;&gt;Node31</title>
<path fill="none" stroke="#191970" d="M1089.8421,-464.8998C1074.0165,-463.026 1054.9161,-460.8229 1037.7266,-459 874.832,-441.7258 680.5244,-423.9841 597.9922,-416.5817"/>
<polygon fill="#191970" stroke="#191970" points="598.068,-413.0745 587.7957,-415.6688 597.4437,-420.0466 598.068,-413.0745"/>
</g>
<!-- Node64&#45;&gt;Node6 -->
<g id="edge113" class="edge">
<title>Node64&#45;&gt;Node6</title>
<path fill="none" stroke="#191970" d="M965.8546,-348.1685C968.8533,-347.7561 971.8254,-347.3634 974.7266,-347 1163.4057,-323.367 1390.0601,-305.2173 1480.0796,-298.4156"/>
<polygon fill="#191970" stroke="#191970" points="1480.4092,-301.9008 1490.1189,-297.6615 1479.8847,-294.9205 1480.4092,-301.9008"/>
</g>
<!-- Node64&#45;&gt;Node22 -->
<g id="edge114" class="edge">
<title>Node64&#45;&gt;Node22</title>
<path fill="none" stroke="#191970" d="M921.0298,-347.1163C951.4288,-316.8022 1035.5783,-223.8188 985.7266,-168 960.9265,-140.2314 703.7615,-127.0715 612.0206,-123.2348"/>
<polygon fill="#191970" stroke="#191970" points="612.0607,-119.7336 601.9262,-122.8226 611.775,-126.7278 612.0607,-119.7336"/>
</g>
<!-- Node66&#45;&gt;Node20 -->
<g id="edge121" class="edge">
<title>Node66&#45;&gt;Node20</title>
<path fill="none" stroke="#191970" d="M1538.7969,-515.4734C1523.7897,-506.7327 1501.5537,-493.0449 1483.7266,-479 1445.4561,-448.8488 1448.2019,-424.9916 1404.7266,-403 1320.6182,-360.4544 1281.9137,-405.1594 1195.7266,-367 1098.7474,-324.0624 1006.3422,-233.7117 969.9749,-195.5764"/>
<polygon fill="#191970" stroke="#191970" points="972.1124,-192.7412 962.7074,-187.863 967.0176,-197.5415 972.1124,-192.7412"/>
</g>
<!-- Node66&#45;&gt;Node29 -->
<g id="edge131" class="edge">
<title>Node66&#45;&gt;Node29</title>
<path fill="none" stroke="#191970" d="M1522.5488,-515.3733C1490.1779,-505.9807 1440.7869,-491.6496 1405.4842,-481.4064"/>
<polygon fill="#191970" stroke="#191970" points="1406.0508,-477.9264 1395.4716,-478.5011 1404.1001,-484.6492 1406.0508,-477.9264"/>
</g>
<!-- Node66&#45;&gt;Node62 -->
<g id="edge122" class="edge">
<title>Node66&#45;&gt;Node62</title>
<path fill="none" stroke="#191970" d="M1519.7703,-516.5033C1517.055,-515.9613 1514.3514,-515.4526 1511.7266,-515 1387.6454,-493.6059 1239.5135,-479.0525 1167.4435,-472.6675"/>
<polygon fill="#191970" stroke="#191970" points="1167.6414,-469.1716 1157.374,-471.7849 1167.0301,-476.1448 1167.6414,-469.1716"/>
</g>
<!-- Node67 -->
<g id="node68" class="node">
<title>Node67</title>
<polygon fill="#ffffff" stroke="#bfbfbf" points="1492.2266,-459.5 1492.2266,-478.5 1537.2266,-478.5 1537.2266,-459.5 1492.2266,-459.5"/>
<text text-anchor="middle" x="1514.7266" y="-466.5" font-family="Helvetica,sans-Serif" font-size="10.00" fill="#000000">utility</text>
</g>
<!-- Node66&#45;&gt;Node67 -->
<g id="edge120" class="edge">
<title>Node66&#45;&gt;Node67</title>
<path fill="none" stroke="#191970" d="M1548.585,-515.2455C1542.8822,-507.4564 1534.7367,-496.3308 1527.8642,-486.9439"/>
<polygon fill="#191970" stroke="#191970" points="1530.5179,-484.6437 1521.7864,-478.6427 1524.8699,-488.7789 1530.5179,-484.6437"/>
</g>
<!-- Node68 -->
<g id="node69" class="node">
<title>Node68</title>
<g id="a_node69"><a xlink:href="TAttLine_8h.html" target="_top" xlink:title="TAttLine.h">
<polygon fill="#ffffff" stroke="#000000" points="1689.2266,-403.5 1689.2266,-422.5 1754.2266,-422.5 1754.2266,-403.5 1689.2266,-403.5"/>
<text text-anchor="middle" x="1721.7266" y="-410.5" font-family="Helvetica,sans-Serif" font-size="10.00" fill="#000000">TAttLine.h</text>
</a>
</g>
</g>
<!-- Node66&#45;&gt;Node68 -->
<g id="edge123" class="edge">
<title>Node66&#45;&gt;Node68</title>
<path fill="none" stroke="#191970" d="M1591.3947,-516.9457C1627.6286,-508.1375 1680.5163,-493.3554 1695.7266,-479 1708.5734,-466.8753 1715.1864,-447.6176 1718.5182,-433.0266"/>
<polygon fill="#191970" stroke="#191970" points="1721.9997,-433.4585 1720.4753,-422.9739 1715.1287,-432.1208 1721.9997,-433.4585"/>
</g>
<!-- Node69 -->
<g id="node70" class="node">
<title>Node69</title>
<g id="a_node70"><a xlink:href="TAttFill_8h.html" target="_top" xlink:title="TAttFill.h">
<polygon fill="#ffffff" stroke="#000000" points="1490.2266,-403.5 1490.2266,-422.5 1549.2266,-422.5 1549.2266,-403.5 1490.2266,-403.5"/>
<text text-anchor="middle" x="1519.7266" y="-410.5" font-family="Helvetica,sans-Serif" font-size="10.00" fill="#000000">TAttFill.h</text>
</a>
</g>
</g>
<!-- Node66&#45;&gt;Node69 -->
<g id="edge125" class="edge">
<title>Node66&#45;&gt;Node69</title>
<path fill="none" stroke="#191970" d="M1555.5892,-515.3274C1555.1405,-502.2167 1553.3826,-478.2342 1546.7266,-459 1543.3383,-449.2084 1537.754,-439.1886 1532.5406,-431.0106"/>
<polygon fill="#191970" stroke="#191970" points="1535.4247,-429.0272 1526.9489,-422.6703 1529.6105,-432.9253 1535.4247,-429.0272"/>
</g>
<!-- Node70 -->
<g id="node71" class="node">
<title>Node70</title>
<g id="a_node71"><a xlink:href="TAttText_8h.html" target="_top" xlink:title="TAttText.h">
<polygon fill="#ffffff" stroke="#000000" points="1606.2266,-403.5 1606.2266,-422.5 1671.2266,-422.5 1671.2266,-403.5 1606.2266,-403.5"/>
<text text-anchor="middle" x="1638.7266" y="-410.5" font-family="Helvetica,sans-Serif" font-size="10.00" fill="#000000">TAttText.h</text>
</a>
</g>
</g>
<!-- Node66&#45;&gt;Node70 -->
<g id="edge127" class="edge">
<title>Node66&#45;&gt;Node70</title>
<path fill="none" stroke="#191970" d="M1591.4354,-516.6863C1624.5365,-508.171 1670.2089,-494.0778 1680.7266,-479 1692.3724,-462.305 1675.9867,-442.5366 1660.3998,-429.0157"/>
<polygon fill="#191970" stroke="#191970" points="1662.4393,-426.1628 1652.4744,-422.5639 1658.02,-431.5915 1662.4393,-426.1628"/>
</g>
<!-- Node71 -->
<g id="node72" class="node">
<title>Node71</title>
<g id="a_node72"><a xlink:href="TAttMarker_8h.html" target="_top" xlink:title="TAttMarker.h">
<polygon fill="#ffffff" stroke="#000000" points="1593.7266,-459.5 1593.7266,-478.5 1671.7266,-478.5 1671.7266,-459.5 1593.7266,-459.5"/>
<text text-anchor="middle" x="1632.7266" y="-466.5" font-family="Helvetica,sans-Serif" font-size="10.00" fill="#000000">TAttMarker.h</text>
</a>
</g>
</g>
<!-- Node66&#45;&gt;Node71 -->
<g id="edge129" class="edge">
<title>Node66&#45;&gt;Node71</title>
<path fill="none" stroke="#191970" d="M1569.139,-515.2455C1580.7324,-506.814 1597.7014,-494.4729 1611.1945,-484.6598"/>
<polygon fill="#191970" stroke="#191970" points="1613.4392,-487.355 1619.468,-478.6427 1609.322,-481.6938 1613.4392,-487.355"/>
</g>
<!-- Node68&#45;&gt;Node6 -->
<g id="edge124" class="edge">
<title>Node68&#45;&gt;Node6</title>
<path fill="none" stroke="#191970" d="M1706.4829,-403.3701C1685.6911,-390.3078 1647.1947,-366.38 1613.7266,-347 1591.4098,-334.0772 1565.7077,-320.0533 1546.8258,-309.9077"/>
<polygon fill="#191970" stroke="#191970" points="1548.3565,-306.7572 1537.8887,-305.1214 1545.0517,-312.928 1548.3565,-306.7572"/>
</g>
<!-- Node69&#45;&gt;Node6 -->
<g id="edge126" class="edge">
<title>Node69&#45;&gt;Node6</title>
<path fill="none" stroke="#191970" d="M1519.7266,-403.3845C1519.7266,-384.1913 1519.7266,-340.786 1519.7266,-315.2663"/>
<polygon fill="#191970" stroke="#191970" points="1523.2267,-315.2483 1519.7266,-305.2484 1516.2267,-315.2484 1523.2267,-315.2483"/>
</g>
<!-- Node70&#45;&gt;Node6 -->
<g id="edge128" class="edge">
<title>Node70&#45;&gt;Node6</title>
<path fill="none" stroke="#191970" d="M1633.2216,-403.2886C1625.227,-389.7087 1609.4133,-364.7237 1591.7266,-347 1577.7023,-332.9463 1559.4969,-319.9617 1544.9017,-310.5461"/>
<polygon fill="#191970" stroke="#191970" points="1546.6785,-307.5289 1536.3503,-305.1671 1542.9514,-313.4542 1546.6785,-307.5289"/>
</g>
<!-- Node71&#45;&gt;Node6 -->
<g id="edge130" class="edge">
<title>Node71&#45;&gt;Node6</title>
<path fill="none" stroke="#191970" d="M1624.9219,-459.342C1617.6263,-450.1774 1606.5623,-435.9227 1597.7266,-423 1571.9966,-385.3681 1544.8478,-339.3414 1530.3448,-314.164"/>
<polygon fill="#191970" stroke="#191970" points="1533.279,-312.2448 1525.2706,-305.3081 1527.2053,-315.7248 1533.279,-312.2448"/>
</g>
<!-- Node72&#45;&gt;Node4 -->
<g id="edge134" class="edge">
<title>Node72&#45;&gt;Node4</title>
<path fill="none" stroke="#191970" d="M1169.6475,-515.4253C1135.0216,-507.0495 1091.3746,-493.9132 1080.7266,-479 1069.8439,-463.7581 1081.7472,-443.9372 1093.6249,-430.0097"/>
<polygon fill="#191970" stroke="#191970" points="1096.2672,-432.3068 1100.4429,-422.5695 1091.1064,-427.5775 1096.2672,-432.3068"/>
</g>
<!-- Node73&#45;&gt;Node3 -->
<g id="edge136" class="edge">
<title>Node73&#45;&gt;Node3</title>
<path fill="none" stroke="#191970" d="M1586.8002,-571.3733C1563.1065,-562.2226 1527.2755,-548.3844 1500.9198,-538.2057"/>
<polygon fill="#191970" stroke="#191970" points="1501.9172,-534.8389 1491.3278,-534.5011 1499.3953,-541.3689 1501.9172,-534.8389"/>
</g>
<!-- Node74 -->
<g id="node75" class="node">
<title>Node74</title>
<g id="a_node75"><a xlink:href="TRefCnt_8h.html" target="_top" xlink:title="TRefCnt.h">
<polygon fill="#ffffff" stroke="#000000" points="1609.7266,-515.5 1609.7266,-534.5 1673.7266,-534.5 1673.7266,-515.5 1609.7266,-515.5"/>
<text text-anchor="middle" x="1641.7266" y="-522.5" font-family="Helvetica,sans-Serif" font-size="10.00" fill="#000000">TRefCnt.h</text>
</a>
</g>
</g>
<!-- Node73&#45;&gt;Node74 -->
<g id="edge137" class="edge">
<title>Node73&#45;&gt;Node74</title>
<path fill="none" stroke="#191970" d="M1616.9522,-571.2455C1621.0389,-563.617 1626.8401,-552.7881 1631.8016,-543.5267"/>
<polygon fill="#191970" stroke="#191970" points="1634.9238,-545.1103 1636.5609,-534.6427 1628.7535,-541.8047 1634.9238,-545.1103"/>
</g>
<!-- Node74&#45;&gt;Node6 -->
<g id="edge138" class="edge">
<title>Node74&#45;&gt;Node6</title>
<path fill="none" stroke="#191970" d="M1665.5586,-515.4772C1709.2278,-496.5726 1794.8617,-451.8881 1763.7266,-403 1718.8985,-332.6111 1616.2032,-308.0487 1559.3739,-299.6767"/>
<polygon fill="#191970" stroke="#191970" points="1559.7043,-296.1892 1549.3207,-298.2944 1558.7507,-303.124 1559.7043,-296.1892"/>
</g>
<!-- Node75&#45;&gt;Node3 -->
<g id="edge141" class="edge">
<title>Node75&#45;&gt;Node3</title>
<path fill="none" stroke="#191970" d="M1524.5336,-571.2455C1514.0945,-562.8943 1498.8612,-550.7076 1486.6527,-540.9408"/>
<polygon fill="#191970" stroke="#191970" points="1488.7751,-538.1566 1478.78,-534.6427 1484.4022,-543.6227 1488.7751,-538.1566"/>
</g>
<!-- Node75&#45;&gt;Node62 -->
<g id="edge140" class="edge">
<title>Node75&#45;&gt;Node62</title>
<path fill="none" stroke="#191970" d="M1506.692,-572.855C1434.5409,-553.2886 1251.2182,-503.574 1167.1064,-480.764"/>
<polygon fill="#191970" stroke="#191970" points="1167.9224,-477.3589 1157.3549,-478.1195 1166.0902,-484.1149 1167.9224,-477.3589"/>
</g>
<!-- Node75&#45;&gt;Node74 -->
<g id="edge142" class="edge">
<title>Node75&#45;&gt;Node74</title>
<path fill="none" stroke="#191970" d="M1555.0162,-571.2455C1571.5029,-562.4527 1595.9618,-549.4079 1614.7032,-539.4125"/>
<polygon fill="#191970" stroke="#191970" points="1616.4702,-542.4368 1623.6466,-534.6427 1613.176,-536.2604 1616.4702,-542.4368"/>
</g>
<!-- Node76&#45;&gt;Node4 -->
<g id="edge144" class="edge">
<title>Node76&#45;&gt;Node4</title>
<path fill="none" stroke="#191970" d="M1283.9209,-571.1294C1283.7184,-557.3605 1281.5803,-532.1522 1269.7266,-515 1239.4314,-471.1628 1183.5422,-441.8829 1146.7514,-426.3405"/>
<polygon fill="#191970" stroke="#191970" points="1147.9582,-423.0527 1137.3777,-422.5023 1145.3057,-429.5307 1147.9582,-423.0527"/>
</g>
<!-- Node76&#45;&gt;Node72 -->
<g id="edge145" class="edge">
<title>Node76&#45;&gt;Node72</title>
<path fill="none" stroke="#191970" d="M1271.7078,-571.2455C1261.5168,-562.9746 1246.6904,-550.9416 1234.716,-541.2232"/>
<polygon fill="#191970" stroke="#191970" points="1236.578,-538.2268 1226.6078,-534.6427 1232.1668,-543.662 1236.578,-538.2268"/>
</g>
<!-- Node76&#45;&gt;Node74 -->
<g id="edge146" class="edge">
<title>Node76&#45;&gt;Node74</title>
<path fill="none" stroke="#191970" d="M1320.0461,-576.8703C1377.368,-570.1049 1492.486,-555.5169 1599.5589,-535.0824"/>
<polygon fill="#191970" stroke="#191970" points="1600.406,-538.4835 1609.5613,-533.1515 1599.0792,-531.6104 1600.406,-538.4835"/>
</g>
<!-- Node77&#45;&gt;Node29 -->
<g id="edge149" class="edge">
<title>Node77&#45;&gt;Node29</title>
<path fill="none" stroke="#191970" d="M1150.9901,-517.0133C1153.9446,-516.3303 1156.888,-515.6517 1159.7266,-515 1213.9494,-502.5517 1276.3717,-488.4394 1317.5214,-479.1666"/>
<polygon fill="#191970" stroke="#191970" points="1318.5205,-482.5293 1327.5069,-476.9173 1316.9822,-475.7004 1318.5205,-482.5293"/>
</g>
<!-- Node77&#45;&gt;Node31 -->
<g id="edge148" class="edge">
<title>Node77&#45;&gt;Node31</title>
<path fill="none" stroke="#191970" d="M1099.3548,-515.2656C1072.0474,-500.453 1016.9983,-472.5486 966.7266,-459 897.7768,-440.4175 687.1719,-422.8109 598.1407,-415.984"/>
<polygon fill="#191970" stroke="#191970" points="598.1402,-412.474 587.9036,-415.2056 597.6094,-419.4538 598.1402,-412.474"/>
</g>
<!-- Node78&#45;&gt;Node1 -->
<g id="edge152" class="edge">
<title>Node78&#45;&gt;Node1</title>
<path fill="none" stroke="#191970" d="M1273.714,-1019.2455C1267.2499,-1011.3761 1257.9882,-1000.101 1250.2283,-990.6542"/>
<polygon fill="#191970" stroke="#191970" points="1252.6994,-988.1484 1243.6474,-982.6427 1247.2903,-992.5916 1252.6994,-988.1484"/>
</g>
</g>
</svg>
