<?xml version="1.0" encoding="UTF-8" standalone="no"?>
<!DOCTYPE svg PUBLIC "-//W3C//DTD SVG 1.1//EN"
 "http://www.w3.org/Graphics/SVG/1.1/DTD/svg11.dtd">
<!-- Generated by graphviz version 2.40.1 (0)
 -->
<!-- Title: gui/gui/inc/TGuiBuilder.h Pages: 1 -->
<!--zoomable 162 -->
<svg id="main" version="1.1" xmlns="http://www.w3.org/2000/svg" xmlns:xlink="http://www.w3.org/1999/xlink" xml:space="preserve" onload="init(evt)">
<style type="text/css"><![CDATA[
.edge:hover path { stroke: red; }
.edge:hover polygon { stroke: red; fill: red; }
]]></style>
<script type="text/javascript"><![CDATA[
var edges = document.getElementsByTagName('g');
if (edges && edges.length) {
  for (var i=0;i<edges.length;i++) {
    if (edges[i].id.substr(0,4)=='edge') {
      edges[i].setAttribute('class','edge');
    }
  }
}
]]></script>
        <defs>
                <circle id="rim" cx="0" cy="0" r="7"/>
                <circle id="rim2" cx="0" cy="0" r="3.5"/>
                <g id="zoomPlus">
                        <use xlink:href="#rim" fill="#404040">
                                <set attributeName="fill" to="#808080" begin="zoomplus.mouseover" end="zoomplus.mouseout"/>
                        </use>
                        <path d="M-4,0h8M0,-4v8" fill="none" stroke="white" stroke-width="1.5" pointer-events="none"/>
                </g>
                <g id="zoomMin">
                        <use xlink:href="#rim" fill="#404040">
                                <set attributeName="fill" to="#808080" begin="zoomminus.mouseover" end="zoomminus.mouseout"/>
                        </use>
                        <path d="M-4,0h8" fill="none" stroke="white" stroke-width="1.5" pointer-events="none"/>
                </g>
                <g id="dirArrow">
                        <path fill="none" stroke="white" stroke-width="1.5" d="M0,-3.0v7 M-2.5,-0.5L0,-3.0L2.5,-0.5"/>
                </g>
               <g id="resetDef">
                       <use xlink:href="#rim2" fill="#404040">
                               <set attributeName="fill" to="#808080" begin="reset.mouseover" end="reset.mouseout"/>
                       </use>
               </g>
        </defs>

<script type="text/javascript">
var viewWidth = 1144;
var viewHeight = 162;
var sectionId = 'dynsection-1';
</script>
<script xlink:href="svgpan.js"/>
<svg id="graph" class="graph">
<g id="viewport">
<title>gui/gui/inc/TGuiBuilder.h</title>
<polygon fill="#ffffff" stroke="transparent" points="-4,4 -4,-158 1140,-158 1140,4 -4,4"/>
<!-- Node46 -->
<g id="node1" class="node">
<title>Node46</title>
<polygon fill="#bfbfbf" stroke="#000000" points="317.5,-134.5 317.5,-153.5 452.5,-153.5 452.5,-134.5 317.5,-134.5"/>
<text text-anchor="middle" x="385" y="-141.5" font-family="Helvetica,sans-Serif" font-size="10.00" fill="#000000">gui/gui/inc/TGuiBuilder.h</text>
</g>
<!-- Node47 -->
<g id="node2" class="node">
<title>Node47</title>
<g id="a_node2"><a xlink:href="TGFrame_8cxx.html" target="_top" xlink:title="gui/gui/src/TGFrame.cxx">
<polygon fill="#ffffff" stroke="#000000" points="0,-73 0,-92 134,-92 134,-73 0,-73"/>
<text text-anchor="middle" x="67" y="-80" font-family="Helvetica,sans-Serif" font-size="10.00" fill="#000000">gui/gui/src/TGFrame.cxx</text>
</a>
</g>
</g>
<!-- Node46&#45;&gt;Node47 -->
<g id="edge1" class="edge">
<title>Node46&#45;&gt;Node47</title>
<path fill="none" stroke="#191970" d="M323.3953,-132.5247C274.4615,-123.3529 204.3062,-110.0777 143,-98 133.3552,-96.0999 123.031,-94.0231 113.1993,-92.0249"/>
<polygon fill="#191970" stroke="#191970" points="323.031,-136.0172 333.5043,-134.4176 324.3194,-129.1368 323.031,-136.0172"/>
</g>
<!-- Node48 -->
<g id="node3" class="node">
<title>Node48</title>
<g id="a_node3"><a xlink:href="TGuiBuilder_8cxx.html" target="_top" xlink:title="gui/gui/src/TGuiBuilder.cxx">
<polygon fill="#ffffff" stroke="#000000" points="152,-73 152,-92 298,-92 298,-73 152,-73"/>
<text text-anchor="middle" x="225" y="-80" font-family="Helvetica,sans-Serif" font-size="10.00" fill="#000000">gui/gui/src/TGuiBuilder.cxx</text>
</a>
</g>
</g>
<!-- Node46&#45;&gt;Node48 -->
<g id="edge2" class="edge">
<title>Node46&#45;&gt;Node48</title>
<path fill="none" stroke="#191970" d="M350.6568,-130.7993C320.3413,-119.1468 276.8769,-102.4402 249.8244,-92.0419"/>
<polygon fill="#191970" stroke="#191970" points="349.41,-134.0697 360,-134.3906 351.9216,-127.5357 349.41,-134.0697"/>
</g>
<!-- Node49 -->
<g id="node4" class="node">
<title>Node49</title>
<g id="a_node4"><a xlink:href="TRootBrowserLite_8cxx.html" target="_top" xlink:title="gui/gui/src/TRootBrowser\lLite.cxx">
<polygon fill="#ffffff" stroke="#000000" points="316.5,-67.5 316.5,-97.5 453.5,-97.5 453.5,-67.5 316.5,-67.5"/>
<text text-anchor="start" x="324.5" y="-85.5" font-family="Helvetica,sans-Serif" font-size="10.00" fill="#000000">gui/gui/src/TRootBrowser</text>
<text text-anchor="middle" x="385" y="-74.5" font-family="Helvetica,sans-Serif" font-size="10.00" fill="#000000">Lite.cxx</text>
</a>
</g>
</g>
<!-- Node46&#45;&gt;Node49 -->
<g id="edge3" class="edge">
<title>Node46&#45;&gt;Node49</title>
<path fill="none" stroke="#191970" d="M385,-124.3693C385,-115.681 385,-105.6241 385,-97.5446"/>
<polygon fill="#191970" stroke="#191970" points="381.5001,-124.3906 385,-134.3906 388.5001,-124.3907 381.5001,-124.3906"/>
</g>
<!-- Node50 -->
<g id="node5" class="node">
<title>Node50</title>
<g id="a_node5"><a xlink:href="TRootCanvas_8cxx.html" target="_top" xlink:title="gui/gui/src/TRootCanvas.cxx">
<polygon fill="#ffffff" stroke="#000000" points="472,-73 472,-92 626,-92 626,-73 472,-73"/>
<text text-anchor="middle" x="549" y="-80" font-family="Helvetica,sans-Serif" font-size="10.00" fill="#000000">gui/gui/src/TRootCanvas.cxx</text>
</a>
</g>
</g>
<!-- Node46&#45;&gt;Node50 -->
<g id="edge4" class="edge">
<title>Node46&#45;&gt;Node50</title>
<path fill="none" stroke="#191970" d="M420.2018,-130.7993C451.2752,-119.1468 495.8262,-102.4402 523.5549,-92.0419"/>
<polygon fill="#191970" stroke="#191970" points="418.7593,-127.6022 410.625,-134.3906 421.2173,-134.1565 418.7593,-127.6022"/>
</g>
<!-- Node51 -->
<g id="node6" class="node">
<title>Node51</title>
<g id="a_node6"><a xlink:href="TRootGuiBuilder_8h.html" target="_top" xlink:title="gui/guibuilder/inc\l/TRootGuiBuilder.h">
<polygon fill="#ffffff" stroke="#000000" points="644.5,-67.5 644.5,-97.5 751.5,-97.5 751.5,-67.5 644.5,-67.5"/>
<text text-anchor="start" x="652.5" y="-85.5" font-family="Helvetica,sans-Serif" font-size="10.00" fill="#000000">gui/guibuilder/inc</text>
<text text-anchor="middle" x="698" y="-74.5" font-family="Helvetica,sans-Serif" font-size="10.00" fill="#000000">/TRootGuiBuilder.h</text>
</a>
</g>
</g>
<!-- Node46&#45;&gt;Node51 -->
<g id="edge5" class="edge">
<title>Node46&#45;&gt;Node51</title>
<path fill="none" stroke="#191970" d="M452.4117,-132.7116C502.8492,-123.9954 573.4417,-111.2239 635,-98 638.0835,-97.3376 641.2461,-96.6347 644.4337,-95.908"/>
<polygon fill="#191970" stroke="#191970" points="451.5455,-129.3091 442.2838,-134.4542 452.7324,-136.2078 451.5455,-129.3091"/>
</g>
<!-- Node52 -->
<g id="node7" class="node">
<title>Node52</title>
<g id="a_node7"><a xlink:href="TGuiBldDragManager_8cxx.html" target="_top" xlink:title="gui/guibuilder/src\l/TGuiBldDragManager.cxx">
<polygon fill="#ffffff" stroke="#000000" points="252.5,-.5 252.5,-30.5 395.5,-30.5 395.5,-.5 252.5,-.5"/>
<text text-anchor="start" x="260.5" y="-18.5" font-family="Helvetica,sans-Serif" font-size="10.00" fill="#000000">gui/guibuilder/src</text>
<text text-anchor="middle" x="324" y="-7.5" font-family="Helvetica,sans-Serif" font-size="10.00" fill="#000000">/TGuiBldDragManager.cxx</text>
</a>
</g>
</g>
<!-- Node51&#45;&gt;Node52 -->
<g id="edge6" class="edge">
<title>Node51&#45;&gt;Node52</title>
<path fill="none" stroke="#191970" d="M634.6099,-67.0281C531.8789,-46.7309 503.8512,-48.1891 405,-31 401.8967,-30.4604 398.7285,-29.899 395.5296,-29.3237"/>
<polygon fill="#191970" stroke="#191970" points="633.9623,-70.4678 644.4541,-68.9939 635.3331,-63.6033 633.9623,-70.4678"/>
</g>
<!-- Node53 -->
<g id="node8" class="node">
<title>Node53</title>
<g id="a_node8"><a xlink:href="TGuiBldEditor_8cxx.html" target="_top" xlink:title="gui/guibuilder/src\l/TGuiBldEditor.cxx">
<polygon fill="#ffffff" stroke="#000000" points="414,-.5 414,-30.5 520,-30.5 520,-.5 414,-.5"/>
<text text-anchor="start" x="422" y="-18.5" font-family="Helvetica,sans-Serif" font-size="10.00" fill="#000000">gui/guibuilder/src</text>
<text text-anchor="middle" x="467" y="-7.5" font-family="Helvetica,sans-Serif" font-size="10.00" fill="#000000">/TGuiBldEditor.cxx</text>
</a>
</g>
</g>
<!-- Node51&#45;&gt;Node53 -->
<g id="edge7" class="edge">
<title>Node51&#45;&gt;Node53</title>
<path fill="none" stroke="#191970" d="M636.1072,-64.5484C599.5431,-53.9432 553.7681,-40.6665 519.067,-30.6017"/>
<polygon fill="#191970" stroke="#191970" points="635.5799,-68.0397 646.1591,-67.4639 637.5299,-61.3167 635.5799,-68.0397"/>
</g>
<!-- Node54 -->
<g id="node9" class="node">
<title>Node54</title>
<g id="a_node9"><a xlink:href="TGuiBldGeometryFrame_8cxx.html" target="_top" xlink:title="gui/guibuilder/src\l/TGuiBldGeometryFrame.cxx">
<polygon fill="#ffffff" stroke="#000000" points="538.5,-.5 538.5,-30.5 695.5,-30.5 695.5,-.5 538.5,-.5"/>
<text text-anchor="start" x="546.5" y="-18.5" font-family="Helvetica,sans-Serif" font-size="10.00" fill="#000000">gui/guibuilder/src</text>
<text text-anchor="middle" x="617" y="-7.5" font-family="Helvetica,sans-Serif" font-size="10.00" fill="#000000">/TGuiBldGeometryFrame.cxx</text>
</a>
</g>
</g>
<!-- Node51&#45;&gt;Node54 -->
<g id="edge8" class="edge">
<title>Node51&#45;&gt;Node54</title>
<path fill="none" stroke="#191970" d="M671.7425,-60.7808C659.8433,-50.9383 646.0644,-39.541 635.3074,-30.6432"/>
<polygon fill="#191970" stroke="#191970" points="669.6835,-63.6198 679.6198,-67.2967 674.1451,-58.2259 669.6835,-63.6198"/>
</g>
<!-- Node55 -->
<g id="node10" class="node">
<title>Node55</title>
<g id="a_node10"><a xlink:href="TGuiBldHintsEditor_8cxx.html" target="_top" xlink:title="gui/guibuilder/src\l/TGuiBldHintsEditor.cxx">
<polygon fill="#ffffff" stroke="#000000" points="713.5,-.5 713.5,-30.5 844.5,-30.5 844.5,-.5 713.5,-.5"/>
<text text-anchor="start" x="721.5" y="-18.5" font-family="Helvetica,sans-Serif" font-size="10.00" fill="#000000">gui/guibuilder/src</text>
<text text-anchor="middle" x="779" y="-7.5" font-family="Helvetica,sans-Serif" font-size="10.00" fill="#000000">/TGuiBldHintsEditor.cxx</text>
</a>
</g>
</g>
<!-- Node51&#45;&gt;Node55 -->
<g id="edge9" class="edge">
<title>Node51&#45;&gt;Node55</title>
<path fill="none" stroke="#191970" d="M724.2575,-60.7808C736.1567,-50.9383 749.9356,-39.541 760.6926,-30.6432"/>
<polygon fill="#191970" stroke="#191970" points="721.8549,-58.2259 716.3802,-67.2967 726.3165,-63.6198 721.8549,-58.2259"/>
</g>
<!-- Node56 -->
<g id="node11" class="node">
<title>Node56</title>
<g id="a_node11"><a xlink:href="TGuiBldNameFrame_8cxx.html" target="_top" xlink:title="gui/guibuilder/src\l/TGuiBldNameFrame.cxx">
<polygon fill="#ffffff" stroke="#000000" points="862.5,-.5 862.5,-30.5 999.5,-30.5 999.5,-.5 862.5,-.5"/>
<text text-anchor="start" x="870.5" y="-18.5" font-family="Helvetica,sans-Serif" font-size="10.00" fill="#000000">gui/guibuilder/src</text>
<text text-anchor="middle" x="931" y="-7.5" font-family="Helvetica,sans-Serif" font-size="10.00" fill="#000000">/TGuiBldNameFrame.cxx</text>
</a>
</g>
</g>
<!-- Node51&#45;&gt;Node56 -->
<g id="edge10" class="edge">
<title>Node51&#45;&gt;Node56</title>
<path fill="none" stroke="#191970" d="M759.9563,-64.6842C796.9145,-54.0568 843.3311,-40.7095 878.4822,-30.6017"/>
<polygon fill="#191970" stroke="#191970" points="758.933,-61.3366 750.2897,-67.4639 760.8676,-68.064 758.933,-61.3366"/>
</g>
<!-- Node57 -->
<g id="node12" class="node">
<title>Node57</title>
<g id="a_node12"><a xlink:href="TRootGuiBuilder_8cxx.html" target="_top" xlink:title="gui/guibuilder/src\l/TRootGuiBuilder.cxx">
<polygon fill="#ffffff" stroke="#000000" points="1018,-.5 1018,-30.5 1136,-30.5 1136,-.5 1018,-.5"/>
<text text-anchor="start" x="1026" y="-18.5" font-family="Helvetica,sans-Serif" font-size="10.00" fill="#000000">gui/guibuilder/src</text>
<text text-anchor="middle" x="1077" y="-7.5" font-family="Helvetica,sans-Serif" font-size="10.00" fill="#000000">/TRootGuiBuilder.cxx</text>
</a>
</g>
</g>
<!-- Node51&#45;&gt;Node57 -->
<g id="edge11" class="edge">
<title>Node51&#45;&gt;Node57</title>
<path fill="none" stroke="#191970" d="M761.7348,-73.0909C824.7403,-63.5203 923.795,-47.75 1009,-31 1011.8514,-30.4395 1014.7659,-29.8478 1017.7065,-29.2357"/>
<polygon fill="#191970" stroke="#191970" points="760.9199,-69.6743 751.556,-74.6308 761.9671,-76.5955 760.9199,-69.6743"/>
</g>
</g>
</svg>
        <g id="navigator" transform="translate(0 0)" fill="#404254">
                <rect fill="#f2f5e9" fill-opacity="0.5" stroke="#606060" stroke-width=".5" x="0" y="0" width="60" height="60"/>
                <use id="zoomplus" xlink:href="#zoomPlus" x="17" y="9" onmousedown="handleZoom(evt,'in')"/>
                <use id="zoomminus" xlink:href="#zoomMin" x="42" y="9" onmousedown="handleZoom(evt,'out')"/>
                <use id="reset" xlink:href="#resetDef" x="30" y="36" onmousedown="handleReset()"/>
                <g id="arrowUp" xlink:href="#dirArrow" transform="translate(30 24)" onmousedown="handlePan(0,-1)">
                  <use xlink:href="#rim" fill="#404040">
                        <set attributeName="fill" to="#808080" begin="arrowUp.mouseover" end="arrowUp.mouseout"/>
                  </use>
                  <path fill="none" stroke="white" stroke-width="1.5" d="M0,-3.0v7 M-2.5,-0.5L0,-3.0L2.5,-0.5"/>
                </g>
                <g id="arrowRight" xlink:href="#dirArrow" transform="rotate(90) translate(36 -43)" onmousedown="handlePan(1,0)">
                  <use xlink:href="#rim" fill="#404040">
                        <set attributeName="fill" to="#808080" begin="arrowRight.mouseover" end="arrowRight.mouseout"/>
                  </use>
                  <path fill="none" stroke="white" stroke-width="1.5" d="M0,-3.0v7 M-2.5,-0.5L0,-3.0L2.5,-0.5"/>
                </g>
                <g id="arrowDown" xlink:href="#dirArrow" transform="rotate(180) translate(-30 -48)" onmousedown="handlePan(0,1)">
                  <use xlink:href="#rim" fill="#404040">
                        <set attributeName="fill" to="#808080" begin="arrowDown.mouseover" end="arrowDown.mouseout"/>
                  </use>
                  <path fill="none" stroke="white" stroke-width="1.5" d="M0,-3.0v7 M-2.5,-0.5L0,-3.0L2.5,-0.5"/>
                </g>
                <g id="arrowLeft" xlink:href="#dirArrow" transform="rotate(270) translate(-36 17)" onmousedown="handlePan(-1,0)">
                  <use xlink:href="#rim" fill="#404040">
                        <set attributeName="fill" to="#808080" begin="arrowLeft.mouseover" end="arrowLeft.mouseout"/>
                  </use>
                  <path fill="none" stroke="white" stroke-width="1.5" d="M0,-3.0v7 M-2.5,-0.5L0,-3.0L2.5,-0.5"/>
                </g>
        </g>
        <svg viewBox="0 0 15 15" width="100%" height="30px" preserveAspectRatio="xMaxYMin meet">
         <g id="arrow_out" transform="scale(0.3 0.3)">
          <a xlink:href="TGuiBuilder_8h__dep__incl_org.svg" target="_base">
           <rect id="button" ry="5" rx="5" y="6" x="6" height="38" width="38"
                fill="#f2f5e9" fill-opacity="0.5" stroke="#606060" stroke-width="1.0"/>
           <path id="arrow"
             d="M 11.500037,31.436501 C 11.940474,20.09759 22.043105,11.32322 32.158766,21.979434 L 37.068811,17.246167 C 37.068811,17.246167 37.088388,32 37.088388,32 L 22.160133,31.978069 C 22.160133,31.978069 26.997745,27.140456 26.997745,27.140456 C 18.528582,18.264221 13.291696,25.230495 11.500037,31.436501 z"
             style="fill:#404040;"/>
          </a>
         </g>
        </svg>
</svg>
