<?xml version="1.0" encoding="UTF-8" standalone="no"?>
<!DOCTYPE svg PUBLIC "-//W3C//DTD SVG 1.1//EN"
 "http://www.w3.org/Graphics/SVG/1.1/DTD/svg11.dtd">
<!-- Generated by graphviz version 2.40.1 (0)
 -->
<!-- Title: hist/hist/inc/THnSparse_Internal.h Pages: 1 -->
<svg width="790pt" height="363pt"
 viewBox="0.00 0.00 789.62 363.00" xmlns="http://www.w3.org/2000/svg" xmlns:xlink="http://www.w3.org/1999/xlink">
<g id="graph0" class="graph" transform="scale(1 1) rotate(0) translate(4 359)">
<title>hist/hist/inc/THnSparse_Internal.h</title>
<polygon fill="#ffffff" stroke="transparent" points="-4,4 -4,-359 785.6204,-359 785.6204,4 -4,4"/>
<!-- Node28 -->
<g id="node1" class="node">
<title>Node28</title>
<polygon fill="#bfbfbf" stroke="#000000" points="534.0127,-324.5 534.0127,-354.5 662.0127,-354.5 662.0127,-324.5 534.0127,-324.5"/>
<text text-anchor="start" x="542.0127" y="-342.5" font-family="Helvetica,sans-Serif" font-size="10.00" fill="#000000">hist/hist/inc/THnSparse</text>
<text text-anchor="middle" x="598.0127" y="-331.5" font-family="Helvetica,sans-Serif" font-size="10.00" fill="#000000">_Internal.h</text>
</g>
<!-- Node29 -->
<g id="node2" class="node">
<title>Node29</title>
<g id="a_node2"><a xlink:href="THnSparse_8h.html" target="_top" xlink:title="hist/hist/inc/THnSparse.h">
<polygon fill="#ffffff" stroke="#000000" points="529.5127,-268.5 529.5127,-287.5 666.5127,-287.5 666.5127,-268.5 529.5127,-268.5"/>
<text text-anchor="middle" x="598.0127" y="-275.5" font-family="Helvetica,sans-Serif" font-size="10.00" fill="#000000">hist/hist/inc/THnSparse.h</text>
</a>
</g>
</g>
<!-- Node28&#45;&gt;Node29 -->
<g id="edge1" class="edge">
<title>Node28&#45;&gt;Node29</title>
<path fill="none" stroke="#191970" d="M598.0127,-314.2849C598.0127,-304.9858 598.0127,-294.9883 598.0127,-287.8469"/>
<polygon fill="#191970" stroke="#191970" points="594.5128,-314.2977 598.0127,-324.2977 601.5128,-314.2978 594.5128,-314.2977"/>
</g>
<!-- Node30 -->
<g id="node3" class="node">
<title>Node30</title>
<g id="a_node3"><a xlink:href="THnBase_8cxx.html" target="_top" xlink:title="hist/hist/src/THnBase.cxx">
<polygon fill="#ffffff" stroke="#000000" points="203.0127,-207 203.0127,-226 343.0127,-226 343.0127,-207 203.0127,-207"/>
<text text-anchor="middle" x="273.0127" y="-214" font-family="Helvetica,sans-Serif" font-size="10.00" fill="#000000">hist/hist/src/THnBase.cxx</text>
</a>
</g>
</g>
<!-- Node29&#45;&gt;Node30 -->
<g id="edge2" class="edge">
<title>Node29&#45;&gt;Node30</title>
<path fill="none" stroke="#191970" d="M536.1932,-266.5975C486.4264,-257.3801 414.6903,-244.0086 352.0127,-232 342.1291,-230.1064 331.5561,-228.0519 321.4632,-226.0767"/>
<polygon fill="#191970" stroke="#191970" points="535.6861,-270.063 546.1561,-268.4416 536.9602,-263.1799 535.6861,-270.063"/>
</g>
<!-- Node31 -->
<g id="node4" class="node">
<title>Node31</title>
<g id="a_node4"><a xlink:href="THnSparse_8cxx.html" target="_top" xlink:title="hist/hist/src/THnSparse.cxx">
<polygon fill="#ffffff" stroke="#000000" points="361.5127,-207 361.5127,-226 510.5127,-226 510.5127,-207 361.5127,-207"/>
<text text-anchor="middle" x="436.0127" y="-214" font-family="Helvetica,sans-Serif" font-size="10.00" fill="#000000">hist/hist/src/THnSparse.cxx</text>
</a>
</g>
</g>
<!-- Node29&#45;&gt;Node31 -->
<g id="edge3" class="edge">
<title>Node29&#45;&gt;Node31</title>
<path fill="none" stroke="#191970" d="M563.2402,-264.7993C532.5457,-253.1468 488.538,-236.4402 461.1474,-226.0419"/>
<polygon fill="#191970" stroke="#191970" points="562.1089,-268.1136 572.7002,-268.3906 564.5934,-261.5693 562.1089,-268.1136"/>
</g>
<!-- Node32 -->
<g id="node5" class="node">
<title>Node32</title>
<g id="a_node5"><a xlink:href="MarkovChain_8h.html" target="_top" xlink:title="roofit/roostats/inc\l/RooStats/MarkovChain.h">
<polygon fill="#ffffff" stroke="#000000" points="529.0127,-201.5 529.0127,-231.5 667.0127,-231.5 667.0127,-201.5 529.0127,-201.5"/>
<text text-anchor="start" x="537.0127" y="-219.5" font-family="Helvetica,sans-Serif" font-size="10.00" fill="#000000">roofit/roostats/inc</text>
<text text-anchor="middle" x="598.0127" y="-208.5" font-family="Helvetica,sans-Serif" font-size="10.00" fill="#000000">/RooStats/MarkovChain.h</text>
</a>
</g>
</g>
<!-- Node29&#45;&gt;Node32 -->
<g id="edge4" class="edge">
<title>Node29&#45;&gt;Node32</title>
<path fill="none" stroke="#191970" d="M598.0127,-258.3693C598.0127,-249.681 598.0127,-239.6241 598.0127,-231.5446"/>
<polygon fill="#191970" stroke="#191970" points="594.5128,-258.3906 598.0127,-268.3906 601.5128,-258.3907 594.5128,-258.3906"/>
</g>
<!-- Node38 -->
<g id="node11" class="node">
<title>Node38</title>
<g id="a_node11"><a xlink:href="MCMCInterval_8cxx.html" target="_top" xlink:title="roofit/roostats/src\l/MCMCInterval.cxx">
<polygon fill="#ffffff" stroke="#000000" points="650.5127,-67.5 650.5127,-97.5 757.5127,-97.5 757.5127,-67.5 650.5127,-67.5"/>
<text text-anchor="start" x="658.5127" y="-85.5" font-family="Helvetica,sans-Serif" font-size="10.00" fill="#000000">roofit/roostats/src</text>
<text text-anchor="middle" x="704.0127" y="-74.5" font-family="Helvetica,sans-Serif" font-size="10.00" fill="#000000">/MCMCInterval.cxx</text>
</a>
</g>
</g>
<!-- Node29&#45;&gt;Node38 -->
<g id="edge23" class="edge">
<title>Node29&#45;&gt;Node38</title>
<path fill="none" stroke="#191970" d="M643.2169,-265.1655C687.6444,-249.7155 752.2709,-218.8689 777.0127,-165 782.7632,-152.4797 783.353,-146.2322 777.0127,-134 768.7332,-118.0266 752.9685,-105.955 738.202,-97.5289"/>
<polygon fill="#191970" stroke="#191970" points="641.8841,-261.9206 633.5093,-268.4101 644.1031,-268.5596 641.8841,-261.9206"/>
</g>
<!-- Node41 -->
<g id="node14" class="node">
<title>Node41</title>
<g id="a_node14"><a xlink:href="MarkovChain_8cxx.html" target="_top" xlink:title="roofit/roostats/src\l/MarkovChain.cxx">
<polygon fill="#ffffff" stroke="#000000" points="664.0127,-134.5 664.0127,-164.5 768.0127,-164.5 768.0127,-134.5 664.0127,-134.5"/>
<text text-anchor="start" x="672.0127" y="-152.5" font-family="Helvetica,sans-Serif" font-size="10.00" fill="#000000">roofit/roostats/src</text>
<text text-anchor="middle" x="716.0127" y="-141.5" font-family="Helvetica,sans-Serif" font-size="10.00" fill="#000000">/MarkovChain.cxx</text>
</a>
</g>
</g>
<!-- Node29&#45;&gt;Node41 -->
<g id="edge22" class="edge">
<title>Node29&#45;&gt;Node41</title>
<path fill="none" stroke="#191970" d="M631.093,-263.958C646.252,-256.2522 663.5712,-245.4976 676.0127,-232 694.2448,-212.2201 705.837,-182.6018 711.6105,-164.7551"/>
<polygon fill="#191970" stroke="#191970" points="629.4738,-260.8532 621.9965,-268.3592 632.5226,-267.1544 629.4738,-260.8532"/>
</g>
<!-- Node33 -->
<g id="node6" class="node">
<title>Node33</title>
<g id="a_node6"><a xlink:href="MCMCInterval_8h.html" target="_top" xlink:title="roofit/roostats/inc\l/RooStats/MCMCInterval.h">
<polygon fill="#ffffff" stroke="#000000" points="404.0127,-134.5 404.0127,-164.5 546.0127,-164.5 546.0127,-134.5 404.0127,-134.5"/>
<text text-anchor="start" x="412.0127" y="-152.5" font-family="Helvetica,sans-Serif" font-size="10.00" fill="#000000">roofit/roostats/inc</text>
<text text-anchor="middle" x="475.0127" y="-141.5" font-family="Helvetica,sans-Serif" font-size="10.00" fill="#000000">/RooStats/MCMCInterval.h</text>
</a>
</g>
</g>
<!-- Node32&#45;&gt;Node33 -->
<g id="edge5" class="edge">
<title>Node32&#45;&gt;Node33</title>
<path fill="none" stroke="#191970" d="M561.5444,-196.6352C542.7949,-186.422 520.3027,-174.1702 502.9497,-164.7177"/>
<polygon fill="#191970" stroke="#191970" points="559.9531,-199.7539 570.4091,-201.4639 563.3016,-193.6067 559.9531,-199.7539"/>
</g>
<!-- Node35 -->
<g id="node8" class="node">
<title>Node35</title>
<g id="a_node8"><a xlink:href="MCMCCalculator_8cxx.html" target="_top" xlink:title="roofit/roostats/src\l/MCMCCalculator.cxx">
<polygon fill="#ffffff" stroke="#000000" points="40.5127,-.5 40.5127,-30.5 159.5127,-30.5 159.5127,-.5 40.5127,-.5"/>
<text text-anchor="start" x="48.5127" y="-18.5" font-family="Helvetica,sans-Serif" font-size="10.00" fill="#000000">roofit/roostats/src</text>
<text text-anchor="middle" x="100.0127" y="-7.5" font-family="Helvetica,sans-Serif" font-size="10.00" fill="#000000">/MCMCCalculator.cxx</text>
</a>
</g>
</g>
<!-- Node32&#45;&gt;Node35 -->
<g id="edge18" class="edge">
<title>Node32&#45;&gt;Node35</title>
<path fill="none" stroke="#191970" d="M518.5851,-201.3932C428.1589,-194.5091 44.2657,-204.9643 7.0127,-165 -5.9808,-151.0609 1.5121,-89.2699 16.0127,-67 26.56,-50.8014 44.1625,-38.8689 60.5368,-30.5925"/>
<polygon fill="#191970" stroke="#191970" points="518.4328,-204.8953 528.7306,-202.4041 519.1269,-197.9298 518.4328,-204.8953"/>
</g>
<!-- Node37 -->
<g id="node10" class="node">
<title>Node37</title>
<g id="a_node10"><a xlink:href="MCMCIntervalPlot_8cxx.html" target="_top" xlink:title="roofit/roostats/src\l/MCMCIntervalPlot.cxx">
<polygon fill="#ffffff" stroke="#000000" points="521.0127,-.5 521.0127,-30.5 647.0127,-30.5 647.0127,-.5 521.0127,-.5"/>
<text text-anchor="start" x="529.0127" y="-18.5" font-family="Helvetica,sans-Serif" font-size="10.00" fill="#000000">roofit/roostats/src</text>
<text text-anchor="middle" x="584.0127" y="-7.5" font-family="Helvetica,sans-Serif" font-size="10.00" fill="#000000">/MCMCIntervalPlot.cxx</text>
</a>
</g>
</g>
<!-- Node32&#45;&gt;Node37 -->
<g id="edge20" class="edge">
<title>Node32&#45;&gt;Node37</title>
<path fill="none" stroke="#191970" d="M596.2608,-191.348C593.3116,-149.0061 587.444,-64.7637 585.058,-30.5088"/>
<polygon fill="#191970" stroke="#191970" points="592.7739,-191.6597 596.9604,-201.3923 599.757,-191.1733 592.7739,-191.6597"/>
</g>
<!-- Node32&#45;&gt;Node38 -->
<g id="edge19" class="edge">
<title>Node32&#45;&gt;Node38</title>
<path fill="none" stroke="#191970" d="M613.0321,-192.7056C624.0191,-175.833 639.6319,-152.9206 655.0127,-134 665.4442,-121.1677 678.3806,-107.6588 688.3414,-97.6976"/>
<polygon fill="#191970" stroke="#191970" points="609.9082,-191.0921 607.435,-201.3942 615.7929,-194.8829 609.9082,-191.0921"/>
</g>
<!-- Node39 -->
<g id="node12" class="node">
<title>Node39</title>
<g id="a_node12"><a xlink:href="MetropolisHastings_8cxx.html" target="_top" xlink:title="roofit/roostats/src\l/MetropolisHastings.cxx">
<polygon fill="#ffffff" stroke="#000000" points="33.0127,-67.5 33.0127,-97.5 167.0127,-97.5 167.0127,-67.5 33.0127,-67.5"/>
<text text-anchor="start" x="41.0127" y="-85.5" font-family="Helvetica,sans-Serif" font-size="10.00" fill="#000000">roofit/roostats/src</text>
<text text-anchor="middle" x="100.0127" y="-74.5" font-family="Helvetica,sans-Serif" font-size="10.00" fill="#000000">/MetropolisHastings.cxx</text>
</a>
</g>
</g>
<!-- Node32&#45;&gt;Node39 -->
<g id="edge21" class="edge">
<title>Node32&#45;&gt;Node39</title>
<path fill="none" stroke="#191970" d="M527.3626,-199.0232C488.288,-189.2451 438.8976,-176.7013 395.0127,-165 309.8418,-142.2904 211.2949,-114.4035 152.397,-97.5635"/>
<polygon fill="#191970" stroke="#191970" points="526.5148,-202.4189 537.065,-201.4474 528.2117,-195.6277 526.5148,-202.4189"/>
</g>
<!-- Node40 -->
<g id="node13" class="node">
<title>Node40</title>
<g id="a_node13"><a xlink:href="MetropolisHastings_8h.html" target="_top" xlink:title="roofit/roostats/inc\l/RooStats/MetropolisHastings.h">
<polygon fill="#ffffff" stroke="#000000" points="16.0127,-134.5 16.0127,-164.5 184.0127,-164.5 184.0127,-134.5 16.0127,-134.5"/>
<text text-anchor="start" x="24.0127" y="-152.5" font-family="Helvetica,sans-Serif" font-size="10.00" fill="#000000">roofit/roostats/inc</text>
<text text-anchor="middle" x="100.0127" y="-141.5" font-family="Helvetica,sans-Serif" font-size="10.00" fill="#000000">/RooStats/MetropolisHastings.h</text>
</a>
</g>
</g>
<!-- Node32&#45;&gt;Node40 -->
<g id="edge14" class="edge">
<title>Node32&#45;&gt;Node40</title>
<path fill="none" stroke="#191970" d="M518.7702,-201.0348C396.3327,-181.7636 266.6736,-166.8531 184.1298,-158.0524"/>
<polygon fill="#191970" stroke="#191970" points="518.2756,-204.5 528.7005,-202.61 519.3724,-197.5865 518.2756,-204.5"/>
</g>
<!-- Node32&#45;&gt;Node41 -->
<g id="edge17" class="edge">
<title>Node32&#45;&gt;Node41</title>
<path fill="none" stroke="#191970" d="M633.49,-196.3561C651.3777,-186.1995 672.715,-174.0843 689.2113,-164.7177"/>
<polygon fill="#191970" stroke="#191970" points="631.462,-193.4827 624.4942,-201.4639 634.9183,-199.5699 631.462,-193.4827"/>
</g>
<!-- Node34 -->
<g id="node7" class="node">
<title>Node34</title>
<g id="a_node7"><a xlink:href="MCMCCalculator_8h.html" target="_top" xlink:title="roofit/roostats/inc\l/RooStats/MCMCCalculator.h">
<polygon fill="#ffffff" stroke="#000000" points="223.5127,-67.5 223.5127,-97.5 376.5127,-97.5 376.5127,-67.5 223.5127,-67.5"/>
<text text-anchor="start" x="231.5127" y="-85.5" font-family="Helvetica,sans-Serif" font-size="10.00" fill="#000000">roofit/roostats/inc</text>
<text text-anchor="middle" x="300.0127" y="-74.5" font-family="Helvetica,sans-Serif" font-size="10.00" fill="#000000">/RooStats/MCMCCalculator.h</text>
</a>
</g>
</g>
<!-- Node33&#45;&gt;Node34 -->
<g id="edge6" class="edge">
<title>Node33&#45;&gt;Node34</title>
<path fill="none" stroke="#191970" d="M426.3391,-130.865C398.946,-120.3773 365.1844,-107.4515 339.4574,-97.6017"/>
<polygon fill="#191970" stroke="#191970" points="425.1488,-134.157 435.7392,-134.4639 427.6517,-127.6197 425.1488,-134.157"/>
</g>
<!-- Node33&#45;&gt;Node35 -->
<g id="edge10" class="edge">
<title>Node33&#45;&gt;Node35</title>
<path fill="none" stroke="#191970" d="M393.9078,-143.7463C340.7067,-137.5463 270.7508,-124.6804 214.0127,-98 194.2886,-88.725 193.496,-80.0151 176.0127,-67 158.7531,-54.1515 138.562,-40.5324 123.331,-30.5286"/>
<polygon fill="#191970" stroke="#191970" points="393.6521,-147.2393 403.9772,-144.8639 394.4244,-140.2821 393.6521,-147.2393"/>
</g>
<!-- Node36 -->
<g id="node9" class="node">
<title>Node36</title>
<g id="a_node9"><a xlink:href="MCMCIntervalPlot_8h.html" target="_top" xlink:title="roofit/roostats/inc\l/RooStats/MCMCIntervalPlot.h">
<polygon fill="#ffffff" stroke="#000000" points="394.5127,-67.5 394.5127,-97.5 555.5127,-97.5 555.5127,-67.5 394.5127,-67.5"/>
<text text-anchor="start" x="402.5127" y="-85.5" font-family="Helvetica,sans-Serif" font-size="10.00" fill="#000000">roofit/roostats/inc</text>
<text text-anchor="middle" x="475.0127" y="-74.5" font-family="Helvetica,sans-Serif" font-size="10.00" fill="#000000">/RooStats/MCMCIntervalPlot.h</text>
</a>
</g>
</g>
<!-- Node33&#45;&gt;Node36 -->
<g id="edge8" class="edge">
<title>Node33&#45;&gt;Node36</title>
<path fill="none" stroke="#191970" d="M475.0127,-124.0249C475.0127,-115.128 475.0127,-105.4287 475.0127,-97.6432"/>
<polygon fill="#191970" stroke="#191970" points="471.5128,-124.2966 475.0127,-134.2967 478.5128,-124.2967 471.5128,-124.2966"/>
</g>
<!-- Node33&#45;&gt;Node37 -->
<g id="edge12" class="edge">
<title>Node33&#45;&gt;Node37</title>
<path fill="none" stroke="#191970" d="M524.9499,-129.7701C539.4269,-121.8583 554.0091,-111.379 564.0127,-98 578.9274,-78.0525 582.8662,-48.4879 583.8207,-30.6971"/>
<polygon fill="#191970" stroke="#191970" points="523.2903,-126.6878 515.9915,-134.3675 526.4864,-132.9156 523.2903,-126.6878"/>
</g>
<!-- Node33&#45;&gt;Node38 -->
<g id="edge11" class="edge">
<title>Node33&#45;&gt;Node38</title>
<path fill="none" stroke="#191970" d="M536.3695,-131.5484C572.6171,-120.9432 617.9958,-107.6665 652.3964,-97.6017"/>
<polygon fill="#191970" stroke="#191970" points="535.0195,-128.2966 526.4047,-134.4639 536.9852,-135.015 535.0195,-128.2966"/>
</g>
<!-- Node33&#45;&gt;Node39 -->
<g id="edge13" class="edge">
<title>Node33&#45;&gt;Node39</title>
<path fill="none" stroke="#191970" d="M393.9489,-135.6514C334.8713,-125.4732 252.9253,-111.1782 181.0127,-98 176.5061,-97.1742 171.8605,-96.3126 167.1811,-95.4371"/>
<polygon fill="#191970" stroke="#191970" points="393.5172,-139.1285 403.966,-137.3755 394.7046,-132.2299 393.5172,-139.1285"/>
</g>
<!-- Node34&#45;&gt;Node35 -->
<g id="edge7" class="edge">
<title>Node34&#45;&gt;Node35</title>
<path fill="none" stroke="#191970" d="M245.6124,-64.2759C214.0918,-53.7165 174.8798,-40.5805 145.0923,-30.6017"/>
<polygon fill="#191970" stroke="#191970" points="244.5349,-67.6061 255.1288,-67.4639 246.7585,-60.9686 244.5349,-67.6061"/>
</g>
<!-- Node36&#45;&gt;Node37 -->
<g id="edge9" class="edge">
<title>Node36&#45;&gt;Node37</title>
<path fill="none" stroke="#191970" d="M508.2396,-62.0761C524.6688,-51.9774 544.1571,-39.9983 559.2554,-30.7177"/>
<polygon fill="#191970" stroke="#191970" points="506.1608,-59.2455 499.4744,-67.4639 509.8265,-65.209 506.1608,-59.2455"/>
</g>
<!-- Node40&#45;&gt;Node35 -->
<g id="edge15" class="edge">
<title>Node40&#45;&gt;Node35</title>
<path fill="none" stroke="#191970" d="M54.7567,-129.0543C42.5627,-121.1896 30.863,-110.917 24.0127,-98 17.5574,-85.828 17.5574,-79.172 24.0127,-67 32.5257,-50.9479 48.5278,-38.9795 63.661,-30.6411"/>
<polygon fill="#191970" stroke="#191970" points="53.2786,-132.2477 63.661,-134.3589 56.8612,-126.234 53.2786,-132.2477"/>
</g>
<!-- Node40&#45;&gt;Node39 -->
<g id="edge16" class="edge">
<title>Node40&#45;&gt;Node39</title>
<path fill="none" stroke="#191970" d="M100.0127,-124.0249C100.0127,-115.128 100.0127,-105.4287 100.0127,-97.6432"/>
<polygon fill="#191970" stroke="#191970" points="96.5128,-124.2966 100.0127,-134.2967 103.5128,-124.2967 96.5128,-124.2966"/>
</g>
</g>
</svg>
