<?xml version="1.0" encoding="UTF-8" standalone="no"?>
<!DOCTYPE svg PUBLIC "-//W3C//DTD SVG 1.1//EN"
 "http://www.w3.org/Graphics/SVG/1.1/DTD/svg11.dtd">
<!-- Generated by graphviz version 2.40.1 (0)
 -->
<!-- Title: tmva/tmva/inc/TMVA/Timer.h Pages: 1 -->
<svg width="1853pt" height="554pt"
 viewBox="0.00 0.00 1853.00 554.00" xmlns="http://www.w3.org/2000/svg" xmlns:xlink="http://www.w3.org/1999/xlink">
<g id="graph0" class="graph" transform="scale(1 1) rotate(0) translate(4 550)">
<title>tmva/tmva/inc/TMVA/Timer.h</title>
<polygon fill="#ffffff" stroke="transparent" points="-4,4 -4,-550 1849,-550 1849,4 -4,4"/>
<!-- Node0 -->
<g id="node1" class="node">
<title>Node0</title>
<polygon fill="#bfbfbf" stroke="#000000" points="973,-515.5 973,-545.5 1091,-545.5 1091,-515.5 973,-515.5"/>
<text text-anchor="start" x="981" y="-533.5" font-family="Helvetica,sans-Serif" font-size="10.00" fill="#000000">tmva/tmva/inc/TMVA</text>
<text text-anchor="middle" x="1032" y="-522.5" font-family="Helvetica,sans-Serif" font-size="10.00" fill="#000000">/Timer.h</text>
</g>
<!-- Node1 -->
<g id="node2" class="node">
<title>Node1</title>
<polygon fill="#ffffff" stroke="#bfbfbf" points="956,-459.5 956,-478.5 1004,-478.5 1004,-459.5 956,-459.5"/>
<text text-anchor="middle" x="980" y="-466.5" font-family="Helvetica,sans-Serif" font-size="10.00" fill="#000000">time.h</text>
</g>
<!-- Node0&#45;&gt;Node1 -->
<g id="edge1" class="edge">
<title>Node0&#45;&gt;Node1</title>
<path fill="none" stroke="#191970" d="M1019.1461,-515.2977C1011.7776,-506.5831 1002.4974,-495.6075 994.8223,-486.5302"/>
<polygon fill="#191970" stroke="#191970" points="997.4552,-484.2233 988.3259,-478.8469 992.1098,-488.743 997.4552,-484.2233"/>
</g>
<!-- Node2 -->
<g id="node3" class="node">
<title>Node2</title>
<g id="a_node3"><a xlink:href="TString_8h.html" target="_top" xlink:title="TString.h">
<polygon fill="#ffffff" stroke="#000000" points="989,-403.5 989,-422.5 1049,-422.5 1049,-403.5 989,-403.5"/>
<text text-anchor="middle" x="1019" y="-410.5" font-family="Helvetica,sans-Serif" font-size="10.00" fill="#000000">TString.h</text>
</a>
</g>
</g>
<!-- Node0&#45;&gt;Node2 -->
<g id="edge2" class="edge">
<title>Node0&#45;&gt;Node2</title>
<path fill="none" stroke="#191970" d="M1030.3005,-515.1389C1027.9583,-493.9692 1023.7372,-455.8174 1021.1697,-432.6112"/>
<polygon fill="#191970" stroke="#191970" points="1024.6362,-432.1139 1020.0576,-422.5595 1017.6786,-432.8837 1024.6362,-432.1139"/>
</g>
<!-- Node43 -->
<g id="node44" class="node">
<title>Node43</title>
<g id="a_node44"><a xlink:href="TStopwatch_8h.html" target="_top" xlink:title="TStopwatch.h">
<polygon fill="#ffffff" stroke="#000000" points="1087.5,-459.5 1087.5,-478.5 1170.5,-478.5 1170.5,-459.5 1087.5,-459.5"/>
<text text-anchor="middle" x="1129" y="-466.5" font-family="Helvetica,sans-Serif" font-size="10.00" fill="#000000">TStopwatch.h</text>
</a>
</g>
</g>
<!-- Node0&#45;&gt;Node43 -->
<g id="edge67" class="edge">
<title>Node0&#45;&gt;Node43</title>
<path fill="none" stroke="#191970" d="M1055.9775,-515.2977C1070.9376,-505.8127 1090.122,-493.6495 1105.0726,-484.1705"/>
<polygon fill="#191970" stroke="#191970" points="1107.1873,-486.9739 1113.7587,-478.6633 1103.439,-481.062 1107.1873,-486.9739"/>
</g>
<!-- Node3 -->
<g id="node4" class="node">
<title>Node3</title>
<g id="a_node4"><a xlink:href="TMathBase_8h.html" target="_top" xlink:title="TMathBase.h">
<polygon fill="#ffffff" stroke="#000000" points="945,-347.5 945,-366.5 1025,-366.5 1025,-347.5 945,-347.5"/>
<text text-anchor="middle" x="985" y="-354.5" font-family="Helvetica,sans-Serif" font-size="10.00" fill="#000000">TMathBase.h</text>
</a>
</g>
</g>
<!-- Node2&#45;&gt;Node3 -->
<g id="edge3" class="edge">
<title>Node2&#45;&gt;Node3</title>
<path fill="none" stroke="#191970" d="M1013.0777,-403.2455C1008.3973,-395.5367 1001.7327,-384.5598 996.0711,-375.2348"/>
<polygon fill="#191970" stroke="#191970" points="999.0361,-373.3741 990.8545,-366.6427 993.0525,-377.007 999.0361,-373.3741"/>
</g>
<!-- Node14 -->
<g id="node15" class="node">
<title>Node14</title>
<polygon fill="#ffffff" stroke="#bfbfbf" points="910,-224.5 910,-243.5 960,-243.5 960,-224.5 910,-224.5"/>
<text text-anchor="middle" x="935" y="-231.5" font-family="Helvetica,sans-Serif" font-size="10.00" fill="#000000">stdio.h</text>
</g>
<!-- Node2&#45;&gt;Node14 -->
<g id="edge65" class="edge">
<title>Node2&#45;&gt;Node14</title>
<path fill="none" stroke="#191970" d="M1023.8397,-403.3496C1034.7844,-380.0244 1058.57,-319.5932 1033,-280 1025.5736,-268.5008 994.8699,-255.1947 969.7828,-245.8609"/>
<polygon fill="#191970" stroke="#191970" points="970.751,-242.489 960.1568,-242.3674 968.3629,-249.0691 970.751,-242.489"/>
</g>
<!-- Node21 -->
<g id="node22" class="node">
<title>Node21</title>
<polygon fill="#ffffff" stroke="#bfbfbf" points="204,-112.5 204,-131.5 248,-131.5 248,-112.5 204,-112.5"/>
<text text-anchor="middle" x="226" y="-119.5" font-family="Helvetica,sans-Serif" font-size="10.00" fill="#000000">string</text>
</g>
<!-- Node2&#45;&gt;Node21 -->
<g id="edge66" class="edge">
<title>Node2&#45;&gt;Node21</title>
<path fill="none" stroke="#191970" d="M988.7798,-412.7707C819.8466,-411.1008 0,-397.7302 0,-295.5 0,-295.5 0,-295.5 0,-234 0,-197.1996 19.4017,-188.4454 50,-168 94.0957,-138.5358 156.0702,-127.9333 193.495,-124.1253"/>
<polygon fill="#191970" stroke="#191970" points="194.1782,-127.5777 203.8194,-123.1847 193.543,-120.6065 194.1782,-127.5777"/>
</g>
<!-- Node27 -->
<g id="node28" class="node">
<title>Node27</title>
<g id="a_node28"><a xlink:href="RStringView_8hxx.html" target="_top" xlink:title="ROOT/RStringView.hxx">
<polygon fill="#ffffff" stroke="#000000" points="345.5,-347.5 345.5,-366.5 472.5,-366.5 472.5,-347.5 345.5,-347.5"/>
<text text-anchor="middle" x="409" y="-354.5" font-family="Helvetica,sans-Serif" font-size="10.00" fill="#000000">ROOT/RStringView.hxx</text>
</a>
</g>
</g>
<!-- Node2&#45;&gt;Node27 -->
<g id="edge32" class="edge">
<title>Node2&#45;&gt;Node27</title>
<path fill="none" stroke="#191970" d="M988.9609,-410.8393C907.8771,-404.9126 677.8058,-387.4715 487,-367 485.7019,-366.8607 484.392,-366.7179 483.0729,-366.572"/>
<polygon fill="#191970" stroke="#191970" points="483.1583,-363.0591 472.8254,-365.4005 482.3632,-370.0138 483.1583,-363.0591"/>
</g>
<!-- Node34 -->
<g id="node35" class="node">
<title>Node34</title>
<g id="a_node35"><a xlink:href="TypeTraits_8hxx.html" target="_top" xlink:title="ROOT/TypeTraits.hxx">
<polygon fill="#ffffff" stroke="#000000" points="785.5,-347.5 785.5,-366.5 902.5,-366.5 902.5,-347.5 785.5,-347.5"/>
<text text-anchor="middle" x="844" y="-354.5" font-family="Helvetica,sans-Serif" font-size="10.00" fill="#000000">ROOT/TypeTraits.hxx</text>
</a>
</g>
</g>
<!-- Node2&#45;&gt;Node34 -->
<g id="edge48" class="edge">
<title>Node2&#45;&gt;Node34</title>
<path fill="none" stroke="#191970" d="M988.9164,-403.3733C959.8166,-394.0613 915.5477,-379.8953 883.597,-369.671"/>
<polygon fill="#191970" stroke="#191970" points="884.282,-366.2155 873.691,-366.5011 882.1485,-372.8824 884.282,-366.2155"/>
</g>
<!-- Node41 -->
<g id="node42" class="node">
<title>Node41</title>
<polygon fill="#ffffff" stroke="#bfbfbf" points="1081.5,-347.5 1081.5,-366.5 1130.5,-366.5 1130.5,-347.5 1081.5,-347.5"/>
<text text-anchor="middle" x="1106" y="-354.5" font-family="Helvetica,sans-Serif" font-size="10.00" fill="#000000">iosfwd</text>
</g>
<!-- Node2&#45;&gt;Node41 -->
<g id="edge63" class="edge">
<title>Node2&#45;&gt;Node41</title>
<path fill="none" stroke="#191970" d="M1034.1542,-403.2455C1047.5027,-394.6534 1067.1586,-382.0014 1082.5383,-372.1018"/>
<polygon fill="#191970" stroke="#191970" points="1084.5051,-374.9982 1091.0194,-366.6427 1080.7164,-369.1121 1084.5051,-374.9982"/>
</g>
<!-- Node42 -->
<g id="node43" class="node">
<title>Node42</title>
<polygon fill="#ffffff" stroke="#bfbfbf" points="1149,-347.5 1149,-366.5 1205,-366.5 1205,-347.5 1149,-347.5"/>
<text text-anchor="middle" x="1177" y="-354.5" font-family="Helvetica,sans-Serif" font-size="10.00" fill="#000000">stdarg.h</text>
</g>
<!-- Node2&#45;&gt;Node42 -->
<g id="edge64" class="edge">
<title>Node2&#45;&gt;Node42</title>
<path fill="none" stroke="#191970" d="M1046.1612,-403.3733C1072.2067,-394.1419 1111.7116,-380.1402 1140.4979,-369.9375"/>
<polygon fill="#191970" stroke="#191970" points="1141.937,-373.1408 1150.1933,-366.5011 1139.5985,-366.5429 1141.937,-373.1408"/>
</g>
<!-- Node4 -->
<g id="node5" class="node">
<title>Node4</title>
<g id="a_node5"><a xlink:href="Rtypes_8h.html" target="_top" xlink:title="Rtypes.h">
<polygon fill="#ffffff" stroke="#000000" points="1239.5,-286 1239.5,-305 1298.5,-305 1298.5,-286 1239.5,-286"/>
<text text-anchor="middle" x="1269" y="-293" font-family="Helvetica,sans-Serif" font-size="10.00" fill="#000000">Rtypes.h</text>
</a>
</g>
</g>
<!-- Node3&#45;&gt;Node4 -->
<g id="edge4" class="edge">
<title>Node3&#45;&gt;Node4</title>
<path fill="none" stroke="#191970" d="M1025.0879,-348.319C1079.2411,-336.5922 1175.1887,-315.8148 1229.1956,-304.1196"/>
<polygon fill="#191970" stroke="#191970" points="1230.0599,-307.5137 1239.0926,-301.9764 1228.5783,-300.6722 1230.0599,-307.5137"/>
</g>
<!-- Node24 -->
<g id="node25" class="node">
<title>Node24</title>
<polygon fill="#ffffff" stroke="#bfbfbf" points="975.5,-286 975.5,-305 1024.5,-305 1024.5,-286 975.5,-286"/>
<text text-anchor="middle" x="1000" y="-293" font-family="Helvetica,sans-Serif" font-size="10.00" fill="#000000">cstdlib</text>
</g>
<!-- Node3&#45;&gt;Node24 -->
<g id="edge29" class="edge">
<title>Node3&#45;&gt;Node24</title>
<path fill="none" stroke="#191970" d="M987.3438,-347.3906C989.4449,-338.776 992.5925,-325.8708 995.223,-315.0858"/>
<polygon fill="#191970" stroke="#191970" points="998.6539,-315.7894 997.6232,-305.2449 991.8532,-314.1307 998.6539,-315.7894"/>
</g>
<!-- Node25 -->
<g id="node26" class="node">
<title>Node25</title>
<polygon fill="#ffffff" stroke="#bfbfbf" points="910.5,-286 910.5,-305 957.5,-305 957.5,-286 910.5,-286"/>
<text text-anchor="middle" x="934" y="-293" font-family="Helvetica,sans-Serif" font-size="10.00" fill="#000000">cmath</text>
</g>
<!-- Node3&#45;&gt;Node25 -->
<g id="edge30" class="edge">
<title>Node3&#45;&gt;Node25</title>
<path fill="none" stroke="#191970" d="M977.0313,-347.3906C969.4409,-338.2376 957.8339,-324.2409 948.5868,-313.09"/>
<polygon fill="#191970" stroke="#191970" points="951.1587,-310.7083 942.0811,-305.2449 945.7703,-315.1766 951.1587,-310.7083"/>
</g>
<!-- Node26 -->
<g id="node27" class="node">
<title>Node26</title>
<polygon fill="#ffffff" stroke="#bfbfbf" points="254,-168.5 254,-187.5 318,-187.5 318,-168.5 254,-168.5"/>
<text text-anchor="middle" x="286" y="-175.5" font-family="Helvetica,sans-Serif" font-size="10.00" fill="#000000">algorithm</text>
</g>
<!-- Node3&#45;&gt;Node26 -->
<g id="edge31" class="edge">
<title>Node3&#45;&gt;Node26</title>
<path fill="none" stroke="#191970" d="M944.9939,-351.0971C879.3158,-341.2858 751.4833,-321.6497 707,-311 561.405,-276.1431 392.9148,-217.0569 321.2131,-191.0022"/>
<polygon fill="#191970" stroke="#191970" points="322.3444,-187.6893 311.7505,-187.5509 319.9459,-194.2656 322.3444,-187.6893"/>
</g>
<!-- Node5 -->
<g id="node6" class="node">
<title>Node5</title>
<g id="a_node6"><a xlink:href="RtypesCore_8h.html" target="_top" xlink:title="RtypesCore.h">
<polygon fill="#ffffff" stroke="#000000" points="1559,-112.5 1559,-131.5 1641,-131.5 1641,-112.5 1559,-112.5"/>
<text text-anchor="middle" x="1600" y="-119.5" font-family="Helvetica,sans-Serif" font-size="10.00" fill="#000000">RtypesCore.h</text>
</a>
</g>
</g>
<!-- Node4&#45;&gt;Node5 -->
<g id="edge5" class="edge">
<title>Node4&#45;&gt;Node5</title>
<path fill="none" stroke="#191970" d="M1298.6427,-293.396C1380.1005,-287.3157 1602.732,-268.576 1624,-244 1649.4132,-214.634 1627.2548,-166.2903 1611.8368,-140.1454"/>
<polygon fill="#191970" stroke="#191970" points="1614.7907,-138.2674 1606.562,-131.5937 1608.8329,-141.9423 1614.7907,-138.2674"/>
</g>
<!-- Node10 -->
<g id="node11" class="node">
<title>Node10</title>
<g id="a_node11"><a xlink:href="DllImport_8h.html" target="_top" xlink:title="DllImport.h">
<polygon fill="#ffffff" stroke="#000000" points="1148.5,-224.5 1148.5,-243.5 1219.5,-243.5 1219.5,-224.5 1148.5,-224.5"/>
<text text-anchor="middle" x="1184" y="-231.5" font-family="Helvetica,sans-Serif" font-size="10.00" fill="#000000">DllImport.h</text>
</a>
</g>
</g>
<!-- Node4&#45;&gt;Node10 -->
<g id="edge10" class="edge">
<title>Node4&#45;&gt;Node10</title>
<path fill="none" stroke="#191970" d="M1255.7188,-285.8906C1242.2452,-276.1421 1221.178,-260.8994 1205.3565,-249.4521"/>
<polygon fill="#191970" stroke="#191970" points="1207.3414,-246.5682 1197.188,-243.5419 1203.2381,-252.2394 1207.3414,-246.5682"/>
</g>
<!-- Node11 -->
<g id="node12" class="node">
<title>Node11</title>
<polygon fill="#ffffff" stroke="#bfbfbf" points="1238,-224.5 1238,-243.5 1300,-243.5 1300,-224.5 1238,-224.5"/>
<text text-anchor="middle" x="1269" y="-231.5" font-family="Helvetica,sans-Serif" font-size="10.00" fill="#000000">snprintf.h</text>
</g>
<!-- Node4&#45;&gt;Node11 -->
<g id="edge11" class="edge">
<title>Node4&#45;&gt;Node11</title>
<path fill="none" stroke="#191970" d="M1269,-285.8906C1269,-277.3657 1269,-264.6392 1269,-253.9235"/>
<polygon fill="#191970" stroke="#191970" points="1272.5001,-253.7448 1269,-243.7449 1265.5001,-253.7449 1272.5001,-253.7448"/>
</g>
<!-- Node12 -->
<g id="node13" class="node">
<title>Node12</title>
<polygon fill="#ffffff" stroke="#bfbfbf" points="1318.5,-224.5 1318.5,-243.5 1375.5,-243.5 1375.5,-224.5 1318.5,-224.5"/>
<text text-anchor="middle" x="1347" y="-231.5" font-family="Helvetica,sans-Serif" font-size="10.00" fill="#000000">strlcpy.h</text>
</g>
<!-- Node4&#45;&gt;Node12 -->
<g id="edge12" class="edge">
<title>Node4&#45;&gt;Node12</title>
<path fill="none" stroke="#191970" d="M1281.1875,-285.8906C1293.437,-276.2324 1312.5263,-261.1812 1326.9977,-249.771"/>
<polygon fill="#191970" stroke="#191970" points="1329.2124,-252.4819 1334.8981,-243.5419 1324.8783,-246.985 1329.2124,-252.4819"/>
</g>
<!-- Node13 -->
<g id="node14" class="node">
<title>Node13</title>
<polygon fill="#ffffff" stroke="#bfbfbf" points="1328,-168.5 1328,-187.5 1378,-187.5 1378,-168.5 1328,-168.5"/>
<text text-anchor="middle" x="1353" y="-175.5" font-family="Helvetica,sans-Serif" font-size="10.00" fill="#000000">atomic</text>
</g>
<!-- Node4&#45;&gt;Node13 -->
<g id="edge13" class="edge">
<title>Node4&#45;&gt;Node13</title>
<path fill="none" stroke="#191970" d="M1298.6567,-291.6967C1346.4203,-284.8953 1436.9709,-268.9782 1456,-244 1461.3867,-236.9292 1460.837,-231.4576 1456,-224 1448.1095,-211.8345 1414.8837,-198.3516 1388.273,-189.1459"/>
<polygon fill="#191970" stroke="#191970" points="1389.0588,-185.7173 1378.4647,-185.8389 1386.8223,-192.3505 1389.0588,-185.7173"/>
</g>
<!-- Node4&#45;&gt;Node14 -->
<g id="edge14" class="edge">
<title>Node4&#45;&gt;Node14</title>
<path fill="none" stroke="#191970" d="M1239.1215,-291.075C1185.6839,-282.9852 1070.3168,-264.7225 974,-244 972.7315,-243.7271 971.442,-243.4412 970.141,-243.1456"/>
<polygon fill="#191970" stroke="#191970" points="970.6468,-239.6679 960.1069,-240.7452 969.0181,-246.4758 970.6468,-239.6679"/>
</g>
<!-- Node15 -->
<g id="node16" class="node">
<title>Node15</title>
<polygon fill="#ffffff" stroke="#bfbfbf" points="1393.5,-224.5 1393.5,-243.5 1446.5,-243.5 1446.5,-224.5 1393.5,-224.5"/>
<text text-anchor="middle" x="1420" y="-231.5" font-family="Helvetica,sans-Serif" font-size="10.00" fill="#000000">string.h</text>
</g>
<!-- Node4&#45;&gt;Node15 -->
<g id="edge15" class="edge">
<title>Node4&#45;&gt;Node15</title>
<path fill="none" stroke="#191970" d="M1292.5938,-285.8906C1317.9696,-275.5554 1358.5081,-259.0447 1387.0293,-247.4284"/>
<polygon fill="#191970" stroke="#191970" points="1388.6308,-250.5554 1396.5719,-243.5419 1385.9904,-244.0725 1388.6308,-250.5554"/>
</g>
<!-- Node16 -->
<g id="node17" class="node">
<title>Node16</title>
<polygon fill="#ffffff" stroke="#bfbfbf" points="1396.5,-168.5 1396.5,-187.5 1453.5,-187.5 1453.5,-168.5 1396.5,-168.5"/>
<text text-anchor="middle" x="1425" y="-175.5" font-family="Helvetica,sans-Serif" font-size="10.00" fill="#000000">typeinfo</text>
</g>
<!-- Node4&#45;&gt;Node16 -->
<g id="edge16" class="edge">
<title>Node4&#45;&gt;Node16</title>
<path fill="none" stroke="#191970" d="M1298.551,-292.3615C1349.3836,-286.2869 1449.9597,-271.0776 1471,-244 1483.9617,-227.3191 1465.5501,-207.3105 1448.3128,-193.7291"/>
<polygon fill="#191970" stroke="#191970" points="1450.2028,-190.7731 1440.0877,-187.621 1446.0293,-196.393 1450.2028,-190.7731"/>
</g>
<!-- Node17 -->
<g id="node18" class="node">
<title>Node17</title>
<polygon fill="#ffffff" stroke="#bfbfbf" points="914.5,-168.5 914.5,-187.5 983.5,-187.5 983.5,-168.5 914.5,-168.5"/>
<text text-anchor="middle" x="949" y="-175.5" font-family="Helvetica,sans-Serif" font-size="10.00" fill="#000000">type_traits</text>
</g>
<!-- Node4&#45;&gt;Node17 -->
<g id="edge17" class="edge">
<title>Node4&#45;&gt;Node17</title>
<path fill="none" stroke="#191970" d="M1239.0597,-292.0718C1179.0391,-284.8056 1046.3802,-266.6501 1007,-244 987.0706,-232.5373 970.5038,-211.6948 960.2482,-196.4904"/>
<polygon fill="#191970" stroke="#191970" points="963.063,-194.3969 954.7046,-187.8864 957.1786,-198.1883 963.063,-194.3969"/>
</g>
<!-- Node18 -->
<g id="node19" class="node">
<title>Node18</title>
<g id="a_node19"><a xlink:href="TGenericClassInfo_8h.html" target="_top" xlink:title="TGenericClassInfo.h">
<polygon fill="#ffffff" stroke="#000000" points="1016,-224.5 1016,-243.5 1130,-243.5 1130,-224.5 1016,-224.5"/>
<text text-anchor="middle" x="1073" y="-231.5" font-family="Helvetica,sans-Serif" font-size="10.00" fill="#000000">TGenericClassInfo.h</text>
</a>
</g>
</g>
<!-- Node4&#45;&gt;Node18 -->
<g id="edge18" class="edge">
<title>Node4&#45;&gt;Node18</title>
<path fill="none" stroke="#191970" d="M1239.0754,-287.5859C1203.9006,-277.296 1145.8939,-259.1905 1108.5018,-246.9017"/>
<polygon fill="#191970" stroke="#191970" points="1109.1314,-243.4233 1098.538,-243.6012 1106.9302,-250.0682 1109.1314,-243.4233"/>
</g>
<!-- Node22 -->
<g id="node23" class="node">
<title>Node22</title>
<g id="a_node23"><a xlink:href="TIsAProxy_8h.html" target="_top" xlink:title="TIsAProxy.h">
<polygon fill="#ffffff" stroke="#000000" points="1541.5,-224.5 1541.5,-243.5 1614.5,-243.5 1614.5,-224.5 1541.5,-224.5"/>
<text text-anchor="middle" x="1578" y="-231.5" font-family="Helvetica,sans-Serif" font-size="10.00" fill="#000000">TIsAProxy.h</text>
</a>
</g>
</g>
<!-- Node4&#45;&gt;Node22 -->
<g id="edge24" class="edge">
<title>Node4&#45;&gt;Node22</title>
<path fill="none" stroke="#191970" d="M1298.6282,-289.6031C1352.5407,-278.873 1467.0438,-256.0835 1531.4668,-243.2615"/>
<polygon fill="#191970" stroke="#191970" points="1532.2349,-246.6773 1541.3593,-241.2926 1530.8684,-239.812 1532.2349,-246.6773"/>
</g>
<!-- Node6 -->
<g id="node7" class="node">
<title>Node6</title>
<g id="a_node7"><a xlink:href="RConfig_8hxx.html" target="_top" xlink:title="ROOT/RConfig.hxx">
<polygon fill="#ffffff" stroke="#000000" points="1547.5,-56.5 1547.5,-75.5 1652.5,-75.5 1652.5,-56.5 1547.5,-56.5"/>
<text text-anchor="middle" x="1600" y="-63.5" font-family="Helvetica,sans-Serif" font-size="10.00" fill="#000000">ROOT/RConfig.hxx</text>
</a>
</g>
</g>
<!-- Node5&#45;&gt;Node6 -->
<g id="edge6" class="edge">
<title>Node5&#45;&gt;Node6</title>
<path fill="none" stroke="#191970" d="M1600,-112.2455C1600,-104.9382 1600,-94.6944 1600,-85.7046"/>
<polygon fill="#191970" stroke="#191970" points="1603.5001,-85.6426 1600,-75.6427 1596.5001,-85.6427 1603.5001,-85.6426"/>
</g>
<!-- Node9 -->
<g id="node10" class="node">
<title>Node9</title>
<polygon fill="#ffffff" stroke="#bfbfbf" points="1473,-56.5 1473,-75.5 1529,-75.5 1529,-56.5 1473,-56.5"/>
<text text-anchor="middle" x="1501" y="-63.5" font-family="Helvetica,sans-Serif" font-size="10.00" fill="#000000">stddef.h</text>
</g>
<!-- Node5&#45;&gt;Node9 -->
<g id="edge9" class="edge">
<title>Node5&#45;&gt;Node9</title>
<path fill="none" stroke="#191970" d="M1582.7555,-112.2455C1567.4239,-103.5731 1544.7801,-90.7645 1527.2084,-80.825"/>
<polygon fill="#191970" stroke="#191970" points="1528.4741,-77.5198 1518.0469,-75.6427 1525.0276,-83.6126 1528.4741,-77.5198"/>
</g>
<!-- Node7 -->
<g id="node8" class="node">
<title>Node7</title>
<g id="a_node8"><a xlink:href="RVersion_8h.html" target="_top" xlink:title="../RVersion.h">
<polygon fill="#ffffff" stroke="#000000" points="1697.5,-.5 1697.5,-19.5 1774.5,-19.5 1774.5,-.5 1697.5,-.5"/>
<text text-anchor="middle" x="1736" y="-7.5" font-family="Helvetica,sans-Serif" font-size="10.00" fill="#000000">../RVersion.h</text>
</a>
</g>
</g>
<!-- Node6&#45;&gt;Node7 -->
<g id="edge7" class="edge">
<title>Node6&#45;&gt;Node7</title>
<path fill="none" stroke="#191970" d="M1623.3792,-56.3733C1645.5045,-47.2629 1678.9134,-33.5062 1703.6019,-23.3404"/>
<polygon fill="#191970" stroke="#191970" points="1705.0117,-26.5451 1712.9258,-19.5011 1702.3464,-20.0723 1705.0117,-26.5451"/>
</g>
<!-- Node8 -->
<g id="node9" class="node">
<title>Node8</title>
<polygon fill="#ffffff" stroke="#bfbfbf" points="1561,-.5 1561,-19.5 1639,-19.5 1639,-.5 1561,-.5"/>
<text text-anchor="middle" x="1600" y="-7.5" font-family="Helvetica,sans-Serif" font-size="10.00" fill="#000000">RConfigure.h</text>
</g>
<!-- Node6&#45;&gt;Node8 -->
<g id="edge8" class="edge">
<title>Node6&#45;&gt;Node8</title>
<path fill="none" stroke="#191970" d="M1600,-56.2455C1600,-48.9382 1600,-38.6944 1600,-29.7046"/>
<polygon fill="#191970" stroke="#191970" points="1603.5001,-29.6426 1600,-19.6427 1596.5001,-29.6427 1603.5001,-29.6426"/>
</g>
<!-- Node18&#45;&gt;Node4 -->
<g id="edge23" class="edge">
<title>Node18&#45;&gt;Node4</title>
<path fill="none" stroke="#191970" d="M1108.4592,-243.5419C1143.9452,-254.0302 1198.0144,-270.9366 1233.506,-282.6009"/>
<polygon fill="#191970" stroke="#191970" points="1232.8442,-286.0686 1243.4375,-285.8906 1235.0453,-279.4237 1232.8442,-286.0686"/>
</g>
<!-- Node19 -->
<g id="node20" class="node">
<title>Node19</title>
<polygon fill="#ffffff" stroke="#bfbfbf" points="1001.5,-168.5 1001.5,-187.5 1048.5,-187.5 1048.5,-168.5 1001.5,-168.5"/>
<text text-anchor="middle" x="1025" y="-175.5" font-family="Helvetica,sans-Serif" font-size="10.00" fill="#000000">vector</text>
</g>
<!-- Node18&#45;&gt;Node19 -->
<g id="edge19" class="edge">
<title>Node18&#45;&gt;Node19</title>
<path fill="none" stroke="#191970" d="M1064.639,-224.2455C1057.825,-216.2958 1048.0319,-204.8706 1039.8848,-195.3656"/>
<polygon fill="#191970" stroke="#191970" points="1042.4305,-192.9575 1033.2651,-187.6427 1037.1157,-197.513 1042.4305,-192.9575"/>
</g>
<!-- Node20 -->
<g id="node21" class="node">
<title>Node20</title>
<g id="a_node21"><a xlink:href="TSchemaHelper_8h.html" target="_top" xlink:title="TSchemaHelper.h">
<polygon fill="#ffffff" stroke="#000000" points="1067,-168.5 1067,-187.5 1169,-187.5 1169,-168.5 1067,-168.5"/>
<text text-anchor="middle" x="1118" y="-175.5" font-family="Helvetica,sans-Serif" font-size="10.00" fill="#000000">TSchemaHelper.h</text>
</a>
</g>
</g>
<!-- Node18&#45;&gt;Node20 -->
<g id="edge20" class="edge">
<title>Node18&#45;&gt;Node20</title>
<path fill="none" stroke="#191970" d="M1080.8384,-224.2455C1087.162,-216.3761 1096.2224,-205.101 1103.8136,-195.6542"/>
<polygon fill="#191970" stroke="#191970" points="1106.7158,-197.6302 1110.2514,-187.6427 1101.2592,-193.2454 1106.7158,-197.6302"/>
</g>
<!-- Node20&#45;&gt;Node5 -->
<g id="edge21" class="edge">
<title>Node20&#45;&gt;Node5</title>
<path fill="none" stroke="#191970" d="M1169.1261,-172.06C1261.72,-161.3022 1456.1499,-138.7129 1548.7988,-127.9487"/>
<polygon fill="#191970" stroke="#191970" points="1549.2492,-131.42 1558.7784,-126.7892 1548.4413,-124.4668 1549.2492,-131.42"/>
</g>
<!-- Node20&#45;&gt;Node21 -->
<g id="edge22" class="edge">
<title>Node20&#45;&gt;Node21</title>
<path fill="none" stroke="#191970" d="M1066.7996,-169.1979C1063.4885,-168.7551 1060.2004,-168.3499 1057,-168 747.362,-134.1484 369.9458,-124.6898 258.4622,-122.5466"/>
<polygon fill="#191970" stroke="#191970" points="258.2854,-119.0428 248.2221,-122.3562 258.1552,-126.0416 258.2854,-119.0428"/>
</g>
<!-- Node22&#45;&gt;Node5 -->
<g id="edge26" class="edge">
<title>Node22&#45;&gt;Node5</title>
<path fill="none" stroke="#191970" d="M1579.8757,-224.4509C1583.4801,-206.1013 1591.4375,-165.5908 1596.1953,-141.3693"/>
<polygon fill="#191970" stroke="#191970" points="1599.6359,-142.012 1598.129,-131.5249 1592.7671,-140.6627 1599.6359,-142.012"/>
</g>
<!-- Node22&#45;&gt;Node13 -->
<g id="edge27" class="edge">
<title>Node22&#45;&gt;Node13</title>
<path fill="none" stroke="#191970" d="M1541.4646,-225.6209C1503.1272,-216.7196 1441.1627,-202.0239 1388,-188 1387.9007,-187.9738 1387.8013,-187.9475 1387.7017,-187.9212"/>
<polygon fill="#191970" stroke="#191970" points="1388.7696,-184.5847 1378.2012,-185.333 1386.9296,-191.3385 1388.7696,-184.5847"/>
</g>
<!-- Node22&#45;&gt;Node16 -->
<g id="edge28" class="edge">
<title>Node22&#45;&gt;Node16</title>
<path fill="none" stroke="#191970" d="M1551.6984,-224.3733C1526.5872,-215.1822 1488.5562,-201.2624 1460.7128,-191.0713"/>
<polygon fill="#191970" stroke="#191970" points="1461.5522,-187.6516 1450.9584,-187.5011 1459.1462,-194.2251 1461.5522,-187.6516"/>
</g>
<!-- Node23 -->
<g id="node24" class="node">
<title>Node23</title>
<g id="a_node24"><a xlink:href="TVirtualIsAProxy_8h.html" target="_top" xlink:title="TVirtualIsAProxy.h">
<polygon fill="#ffffff" stroke="#000000" points="1471.5,-168.5 1471.5,-187.5 1576.5,-187.5 1576.5,-168.5 1471.5,-168.5"/>
<text text-anchor="middle" x="1524" y="-175.5" font-family="Helvetica,sans-Serif" font-size="10.00" fill="#000000">TVirtualIsAProxy.h</text>
</a>
</g>
</g>
<!-- Node22&#45;&gt;Node23 -->
<g id="edge25" class="edge">
<title>Node22&#45;&gt;Node23</title>
<path fill="none" stroke="#191970" d="M1568.5939,-224.2455C1560.8507,-216.2155 1549.688,-204.6394 1540.4682,-195.0781"/>
<polygon fill="#191970" stroke="#191970" points="1542.7591,-192.4117 1533.2983,-187.6427 1537.7202,-197.2706 1542.7591,-192.4117"/>
</g>
<!-- Node27&#45;&gt;Node8 -->
<g id="edge33" class="edge">
<title>Node27&#45;&gt;Node8</title>
<path fill="none" stroke="#191970" d="M447.3733,-347.4818C511.5839,-330.8506 644.0838,-293.501 749,-244 806.4341,-216.9017 814.7012,-199.2255 870,-168 986.7097,-102.0978 1018.9396,-84.0608 1150,-56 1293.4179,-25.2934 1467.0804,-14.9077 1550.5272,-11.536"/>
<polygon fill="#191970" stroke="#191970" points="1550.8727,-15.0253 1560.7297,-11.1408 1550.6017,-8.0305 1550.8727,-15.0253"/>
</g>
<!-- Node28 -->
<g id="node29" class="node">
<title>Node28</title>
<g id="a_node29"><a xlink:href="RWrap__libcpp__string__view_8h.html" target="_top" xlink:title="RWrap_libcpp_string\l_view.h">
<polygon fill="#ffffff" stroke="#000000" points="187.5,-280.5 187.5,-310.5 302.5,-310.5 302.5,-280.5 187.5,-280.5"/>
<text text-anchor="start" x="195.5" y="-298.5" font-family="Helvetica,sans-Serif" font-size="10.00" fill="#000000">RWrap_libcpp_string</text>
<text text-anchor="middle" x="245" y="-287.5" font-family="Helvetica,sans-Serif" font-size="10.00" fill="#000000">_view.h</text>
</a>
</g>
</g>
<!-- Node27&#45;&gt;Node28 -->
<g id="edge34" class="edge">
<title>Node27&#45;&gt;Node28</title>
<path fill="none" stroke="#191970" d="M383.375,-347.3906C359.741,-338.5279 323.9972,-325.1239 294.7584,-314.1594"/>
<polygon fill="#191970" stroke="#191970" points="295.7112,-310.7787 285.1189,-310.5446 293.2533,-317.333 295.7112,-310.7787"/>
</g>
<!-- Node28&#45;&gt;Node21 -->
<g id="edge35" class="edge">
<title>Node28&#45;&gt;Node21</title>
<path fill="none" stroke="#191970" d="M187.1031,-281.4689C141.3743,-266.8134 81.3491,-238.6614 57,-188 53.1494,-179.9884 51.6027,-175.0627 57,-168 73.5375,-146.3595 149.6838,-132.4808 193.9172,-126.0976"/>
<polygon fill="#191970" stroke="#191970" points="194.4723,-129.5542 203.8932,-124.7068 193.5057,-122.6212 194.4723,-129.5542"/>
</g>
<!-- Node28&#45;&gt;Node26 -->
<g id="edge36" class="edge">
<title>Node28&#45;&gt;Node26</title>
<path fill="none" stroke="#191970" d="M265.1974,-280.232C275.6416,-271.029 287.3577,-258.3293 293,-244 298.8629,-229.1107 296.3048,-210.9529 292.7367,-197.4545"/>
<polygon fill="#191970" stroke="#191970" points="296.0538,-196.3319 289.8003,-187.7794 289.3555,-198.3649 296.0538,-196.3319"/>
</g>
<!-- Node29 -->
<g id="node30" class="node">
<title>Node29</title>
<polygon fill="#ffffff" stroke="#bfbfbf" points="336.5,-168.5 336.5,-187.5 389.5,-187.5 389.5,-168.5 336.5,-168.5"/>
<text text-anchor="middle" x="363" y="-175.5" font-family="Helvetica,sans-Serif" font-size="10.00" fill="#000000">iterator</text>
</g>
<!-- Node28&#45;&gt;Node29 -->
<g id="edge37" class="edge">
<title>Node28&#45;&gt;Node29</title>
<path fill="none" stroke="#191970" d="M266.0929,-280.2879C279.0364,-270.5354 295.6343,-257.2574 309,-244 324.1754,-228.9475 339.4091,-209.8815 349.8087,-196.1164"/>
<polygon fill="#191970" stroke="#191970" points="352.7364,-198.0447 355.8954,-187.9317 347.1194,-193.8674 352.7364,-198.0447"/>
</g>
<!-- Node30 -->
<g id="node31" class="node">
<title>Node30</title>
<polygon fill="#ffffff" stroke="#bfbfbf" points="140.5,-168.5 140.5,-187.5 197.5,-187.5 197.5,-168.5 140.5,-168.5"/>
<text text-anchor="middle" x="169" y="-175.5" font-family="Helvetica,sans-Serif" font-size="10.00" fill="#000000">ostream</text>
</g>
<!-- Node28&#45;&gt;Node30 -->
<g id="edge38" class="edge">
<title>Node28&#45;&gt;Node30</title>
<path fill="none" stroke="#191970" d="M201.7481,-280.3832C185.3324,-272.2891 168.3532,-260.503 159,-244 150.8947,-229.6987 154.8413,-210.9834 159.9728,-197.1359"/>
<polygon fill="#191970" stroke="#191970" points="163.3113,-198.225 163.9479,-187.6493 156.8552,-195.5197 163.3113,-198.225"/>
</g>
<!-- Node31 -->
<g id="node32" class="node">
<title>Node31</title>
<polygon fill="#ffffff" stroke="#bfbfbf" points="66,-168.5 66,-187.5 122,-187.5 122,-168.5 66,-168.5"/>
<text text-anchor="middle" x="94" y="-175.5" font-family="Helvetica,sans-Serif" font-size="10.00" fill="#000000">iomanip</text>
</g>
<!-- Node28&#45;&gt;Node31 -->
<g id="edge39" class="edge">
<title>Node28&#45;&gt;Node31</title>
<path fill="none" stroke="#191970" d="M210.5582,-280.332C191.9244,-271.244 169.0891,-258.6227 151,-244 133.8079,-230.1024 117.684,-210.5869 107.0029,-196.3834"/>
<polygon fill="#191970" stroke="#191970" points="109.5447,-193.9303 100.8133,-187.9292 103.8966,-198.0655 109.5447,-193.9303"/>
</g>
<!-- Node32 -->
<g id="node33" class="node">
<title>Node32</title>
<polygon fill="#ffffff" stroke="#bfbfbf" points="407.5,-168.5 407.5,-187.5 472.5,-187.5 472.5,-168.5 407.5,-168.5"/>
<text text-anchor="middle" x="440" y="-175.5" font-family="Helvetica,sans-Serif" font-size="10.00" fill="#000000">stdexcept</text>
</g>
<!-- Node28&#45;&gt;Node32 -->
<g id="edge40" class="edge">
<title>Node28&#45;&gt;Node32</title>
<path fill="none" stroke="#191970" d="M270.562,-280.4959C287.9267,-270.2721 311.394,-256.3944 332,-244 360.8336,-226.6568 393.8138,-206.4478 415.6641,-193.0063"/>
<polygon fill="#191970" stroke="#191970" points="417.6218,-195.9112 424.3025,-187.6881 413.952,-189.9503 417.6218,-195.9112"/>
</g>
<!-- Node33 -->
<g id="node34" class="node">
<title>Node33</title>
<g id="a_node34"><a xlink:href="libcpp__string__view_8h.html" target="_top" xlink:title="libcpp_string_view.h">
<polygon fill="#ffffff" stroke="#000000" points="168,-224.5 168,-243.5 284,-243.5 284,-224.5 168,-224.5"/>
<text text-anchor="middle" x="226" y="-231.5" font-family="Helvetica,sans-Serif" font-size="10.00" fill="#000000">libcpp_string_view.h</text>
</a>
</g>
</g>
<!-- Node28&#45;&gt;Node33 -->
<g id="edge41" class="edge">
<title>Node28&#45;&gt;Node33</title>
<path fill="none" stroke="#191970" d="M240.3034,-280.2977C237.8033,-272.2055 234.701,-262.1639 232.0253,-253.5029"/>
<polygon fill="#191970" stroke="#191970" points="235.338,-252.3682 229.0421,-243.8469 228.6499,-254.4345 235.338,-252.3682"/>
</g>
<!-- Node33&#45;&gt;Node21 -->
<g id="edge42" class="edge">
<title>Node33&#45;&gt;Node21</title>
<path fill="none" stroke="#191970" d="M226,-224.4509C226,-206.184 226,-165.9553 226,-141.6976"/>
<polygon fill="#191970" stroke="#191970" points="229.5001,-141.5249 226,-131.5249 222.5001,-141.5249 229.5001,-141.5249"/>
</g>
<!-- Node33&#45;&gt;Node26 -->
<g id="edge43" class="edge">
<title>Node33&#45;&gt;Node26</title>
<path fill="none" stroke="#191970" d="M236.4512,-224.2455C245.2269,-216.0549 257.9554,-204.1749 268.314,-194.5069"/>
<polygon fill="#191970" stroke="#191970" points="270.7461,-197.0246 275.6686,-187.6427 265.9699,-191.9072 270.7461,-197.0246"/>
</g>
<!-- Node33&#45;&gt;Node29 -->
<g id="edge44" class="edge">
<title>Node33&#45;&gt;Node29</title>
<path fill="none" stroke="#191970" d="M249.5511,-224.3733C271.8391,-215.2629 305.4937,-201.5062 330.3637,-191.3404"/>
<polygon fill="#191970" stroke="#191970" points="331.8239,-194.5247 339.7562,-187.5011 329.1753,-188.0451 331.8239,-194.5247"/>
</g>
<!-- Node33&#45;&gt;Node30 -->
<g id="edge45" class="edge">
<title>Node33&#45;&gt;Node30</title>
<path fill="none" stroke="#191970" d="M216.0714,-224.2455C207.8162,-216.1352 195.8791,-204.4075 186.0918,-194.7919"/>
<polygon fill="#191970" stroke="#191970" points="188.4011,-192.1542 178.8149,-187.6427 183.4954,-197.1476 188.4011,-192.1542"/>
</g>
<!-- Node33&#45;&gt;Node31 -->
<g id="edge46" class="edge">
<title>Node33&#45;&gt;Node31</title>
<path fill="none" stroke="#191970" d="M203.3084,-224.3733C181.9289,-215.3032 149.6943,-201.6279 125.7638,-191.4755"/>
<polygon fill="#191970" stroke="#191970" points="126.9683,-188.1846 116.3955,-187.5011 124.2344,-194.6287 126.9683,-188.1846"/>
</g>
<!-- Node33&#45;&gt;Node32 -->
<g id="edge47" class="edge">
<title>Node33&#45;&gt;Node32</title>
<path fill="none" stroke="#191970" d="M262.7879,-224.3733C300.1654,-214.5922 358.0084,-199.4557 397.3641,-189.1571"/>
<polygon fill="#191970" stroke="#191970" points="398.4076,-192.5019 407.1958,-186.5843 396.6354,-185.7299 398.4076,-192.5019"/>
</g>
<!-- Node34&#45;&gt;Node17 -->
<g id="edge50" class="edge">
<title>Node34&#45;&gt;Node17</title>
<path fill="none" stroke="#191970" d="M843.1194,-347.2559C841.5072,-323.7225 840.464,-262.8641 868,-224 878.22,-209.5756 894.4808,-199.0825 909.7602,-191.7934"/>
<polygon fill="#191970" stroke="#191970" points="911.3591,-194.9132 919.0842,-187.6624 908.5236,-188.5132 911.3591,-194.9132"/>
</g>
<!-- Node34&#45;&gt;Node19 -->
<g id="edge51" class="edge">
<title>Node34&#45;&gt;Node19</title>
<path fill="none" stroke="#191970" d="M847.0088,-347.4217C855.7767,-320.0319 881.8909,-242.1829 901,-224 907.8507,-217.4813 957.2333,-200.3035 991.5716,-188.8845"/>
<polygon fill="#191970" stroke="#191970" points="992.8489,-192.1486 1001.2453,-185.687 990.652,-185.5023 992.8489,-192.1486"/>
</g>
<!-- Node35 -->
<g id="node36" class="node">
<title>Node35</title>
<polygon fill="#ffffff" stroke="#bfbfbf" points="529,-168.5 529,-187.5 587,-187.5 587,-168.5 529,-168.5"/>
<text text-anchor="middle" x="558" y="-175.5" font-family="Helvetica,sans-Serif" font-size="10.00" fill="#000000">memory</text>
</g>
<!-- Node34&#45;&gt;Node35 -->
<g id="edge49" class="edge">
<title>Node34&#45;&gt;Node35</title>
<path fill="none" stroke="#191970" d="M801.3618,-347.4528C773.3248,-340.0527 736.5038,-328.1416 707,-311 651.5717,-278.7963 598.493,-223.7425 573.2777,-195.6369"/>
<polygon fill="#191970" stroke="#191970" points="575.6226,-193.0053 566.375,-187.8348 570.3798,-197.6436 575.6226,-193.0053"/>
</g>
<!-- Node36 -->
<g id="node37" class="node">
<title>Node36</title>
<g id="a_node37"><a xlink:href="RSpan_8hxx.html" target="_top" xlink:title="ROOT/RSpan.hxx">
<polygon fill="#ffffff" stroke="#000000" points="716.5,-286 716.5,-305 815.5,-305 815.5,-286 716.5,-286"/>
<text text-anchor="middle" x="766" y="-293" font-family="Helvetica,sans-Serif" font-size="10.00" fill="#000000">ROOT/RSpan.hxx</text>
</a>
</g>
</g>
<!-- Node34&#45;&gt;Node36 -->
<g id="edge52" class="edge">
<title>Node34&#45;&gt;Node36</title>
<path fill="none" stroke="#191970" d="M831.8125,-347.3906C819.563,-337.7324 800.4737,-322.6812 786.0023,-311.271"/>
<polygon fill="#191970" stroke="#191970" points="788.1217,-308.485 778.1019,-305.0419 783.7876,-313.9819 788.1217,-308.485"/>
</g>
<!-- Node36&#45;&gt;Node8 -->
<g id="edge53" class="edge">
<title>Node36&#45;&gt;Node8</title>
<path fill="none" stroke="#191970" d="M773.5522,-285.6949C792.6984,-261.5657 845.8363,-199.0201 905,-168 1126.7987,-51.7088 1432.2928,-20.5397 1550.5122,-12.5852"/>
<polygon fill="#191970" stroke="#191970" points="1550.9437,-16.0647 1560.697,-11.9267 1550.492,-9.0793 1550.9437,-16.0647"/>
</g>
<!-- Node37 -->
<g id="node38" class="node">
<title>Node37</title>
<g id="a_node38"><a xlink:href="span_8hxx.html" target="_top" xlink:title="ROOT/span.hxx">
<polygon fill="#ffffff" stroke="#000000" points="648,-224.5 648,-243.5 740,-243.5 740,-224.5 648,-224.5"/>
<text text-anchor="middle" x="694" y="-231.5" font-family="Helvetica,sans-Serif" font-size="10.00" fill="#000000">ROOT/span.hxx</text>
</a>
</g>
</g>
<!-- Node36&#45;&gt;Node37 -->
<g id="edge54" class="edge">
<title>Node36&#45;&gt;Node37</title>
<path fill="none" stroke="#191970" d="M754.75,-285.8906C743.614,-276.3786 726.354,-261.6357 713.0732,-250.2917"/>
<polygon fill="#191970" stroke="#191970" points="715.2856,-247.5784 705.4086,-243.7449 710.7392,-252.9011 715.2856,-247.5784"/>
</g>
<!-- Node37&#45;&gt;Node17 -->
<g id="edge61" class="edge">
<title>Node37&#45;&gt;Node17</title>
<path fill="none" stroke="#191970" d="M737.5463,-224.4369C784.0623,-214.2216 857.4157,-198.1126 904.3507,-187.8053"/>
<polygon fill="#191970" stroke="#191970" points="905.2181,-191.1983 914.2346,-185.6348 903.7166,-184.3613 905.2181,-191.1983"/>
</g>
<!-- Node37&#45;&gt;Node19 -->
<g id="edge58" class="edge">
<title>Node37&#45;&gt;Node19</title>
<path fill="none" stroke="#191970" d="M740.0703,-228.9346C796.9387,-222.2313 896.7054,-209.0053 991.2935,-187.8862"/>
<polygon fill="#191970" stroke="#191970" points="992.3355,-191.2388 1001.3141,-185.6143 990.7877,-184.4121 992.3355,-191.2388"/>
</g>
<!-- Node37&#45;&gt;Node29 -->
<g id="edge56" class="edge">
<title>Node37&#45;&gt;Node29</title>
<path fill="none" stroke="#191970" d="M647.7811,-228.6227C591.2551,-221.6478 492.5339,-208.1811 399.5179,-188.1403"/>
<polygon fill="#191970" stroke="#191970" points="400.1827,-184.7031 389.6661,-185.9879 398.6886,-191.5418 400.1827,-184.7031"/>
</g>
<!-- Node37&#45;&gt;Node32 -->
<g id="edge59" class="edge">
<title>Node37&#45;&gt;Node32</title>
<path fill="none" stroke="#191970" d="M650.6244,-224.4369C603.6309,-214.0761 529.138,-197.6525 482.4924,-187.3684"/>
<polygon fill="#191970" stroke="#191970" points="483.2153,-183.9438 472.6962,-185.2086 481.7081,-190.7796 483.2153,-183.9438"/>
</g>
<!-- Node37&#45;&gt;Node35 -->
<g id="edge60" class="edge">
<title>Node37&#45;&gt;Node35</title>
<path fill="none" stroke="#191970" d="M670.6208,-224.3733C648.4955,-215.2629 615.0866,-201.5062 590.3981,-191.3404"/>
<polygon fill="#191970" stroke="#191970" points="591.6536,-188.0723 581.0742,-187.5011 588.9883,-194.5451 591.6536,-188.0723"/>
</g>
<!-- Node38 -->
<g id="node39" class="node">
<title>Node38</title>
<polygon fill="#ffffff" stroke="#bfbfbf" points="706.5,-168.5 706.5,-187.5 759.5,-187.5 759.5,-168.5 706.5,-168.5"/>
<text text-anchor="middle" x="733" y="-175.5" font-family="Helvetica,sans-Serif" font-size="10.00" fill="#000000">cstddef</text>
</g>
<!-- Node37&#45;&gt;Node38 -->
<g id="edge55" class="edge">
<title>Node37&#45;&gt;Node38</title>
<path fill="none" stroke="#191970" d="M700.7933,-224.2455C706.2178,-216.4564 713.9661,-205.3308 720.5033,-195.9439"/>
<polygon fill="#191970" stroke="#191970" points="723.4417,-197.849 726.2846,-187.6427 717.6975,-193.8485 723.4417,-197.849"/>
</g>
<!-- Node39 -->
<g id="node40" class="node">
<title>Node39</title>
<polygon fill="#ffffff" stroke="#bfbfbf" points="778,-168.5 778,-187.5 820,-187.5 820,-168.5 778,-168.5"/>
<text text-anchor="middle" x="799" y="-175.5" font-family="Helvetica,sans-Serif" font-size="10.00" fill="#000000">array</text>
</g>
<!-- Node37&#45;&gt;Node39 -->
<g id="edge57" class="edge">
<title>Node37&#45;&gt;Node39</title>
<path fill="none" stroke="#191970" d="M712.2896,-224.2455C728.7762,-215.4527 753.2352,-202.4079 771.9765,-192.4125"/>
<polygon fill="#191970" stroke="#191970" points="773.7435,-195.4368 780.92,-187.6427 770.4494,-189.2604 773.7435,-195.4368"/>
</g>
<!-- Node40 -->
<g id="node41" class="node">
<title>Node40</title>
<polygon fill="#ffffff" stroke="#bfbfbf" points="605.5,-168.5 605.5,-187.5 688.5,-187.5 688.5,-168.5 605.5,-168.5"/>
<text text-anchor="middle" x="647" y="-175.5" font-family="Helvetica,sans-Serif" font-size="10.00" fill="#000000">initializer_list</text>
</g>
<!-- Node37&#45;&gt;Node40 -->
<g id="edge62" class="edge">
<title>Node37&#45;&gt;Node40</title>
<path fill="none" stroke="#191970" d="M685.8132,-224.2455C679.1411,-216.2958 669.5521,-204.8706 661.5747,-195.3656"/>
<polygon fill="#191970" stroke="#191970" points="664.2026,-193.0524 655.093,-187.6427 658.8408,-197.5525 664.2026,-193.0524"/>
</g>
<!-- Node44 -->
<g id="node45" class="node">
<title>Node44</title>
<g id="a_node45"><a xlink:href="TObject_8h.html" target="_top" xlink:title="TObject.h">
<polygon fill="#ffffff" stroke="#000000" points="1173.5,-403.5 1173.5,-422.5 1236.5,-422.5 1236.5,-403.5 1173.5,-403.5"/>
<text text-anchor="middle" x="1205" y="-410.5" font-family="Helvetica,sans-Serif" font-size="10.00" fill="#000000">TObject.h</text>
</a>
</g>
</g>
<!-- Node43&#45;&gt;Node44 -->
<g id="edge68" class="edge">
<title>Node43&#45;&gt;Node44</title>
<path fill="none" stroke="#191970" d="M1142.2382,-459.2455C1153.681,-450.814 1170.4296,-438.4729 1183.7475,-428.6598"/>
<polygon fill="#191970" stroke="#191970" points="1185.9391,-431.3924 1191.9135,-422.6427 1181.7867,-425.757 1185.9391,-431.3924"/>
</g>
<!-- Node44&#45;&gt;Node4 -->
<g id="edge70" class="edge">
<title>Node44&#45;&gt;Node4</title>
<path fill="none" stroke="#191970" d="M1210.2374,-403.3845C1220.8322,-383.9331 1244.9721,-339.6138 1258.7893,-314.2462"/>
<polygon fill="#191970" stroke="#191970" points="1261.9805,-315.7044 1263.6902,-305.2484 1255.8333,-312.356 1261.9805,-315.7044"/>
</g>
<!-- Node44&#45;&gt;Node8 -->
<g id="edge69" class="edge">
<title>Node44&#45;&gt;Node8</title>
<path fill="none" stroke="#191970" d="M1236.7651,-412.5732C1348.8287,-410.2227 1719,-394.9332 1719,-295.5 1719,-295.5 1719,-295.5 1719,-122 1719,-74.6726 1668.4706,-41.4677 1633.2643,-24.0761"/>
<polygon fill="#191970" stroke="#191970" points="1634.3312,-20.7087 1623.7954,-19.5915 1631.3349,-27.035 1634.3312,-20.7087"/>
</g>
<!-- Node44&#45;&gt;Node21 -->
<g id="edge77" class="edge">
<title>Node44&#45;&gt;Node21</title>
<path fill="none" stroke="#191970" d="M1173.285,-411.2059C1101.8705,-406.8161 923.1916,-393.8746 776,-367 651.768,-344.3174 501,-421.7858 501,-295.5 501,-295.5 501,-295.5 501,-234 501,-203.3494 503.8907,-188.3832 481,-168 448.5142,-139.0729 319.5897,-127.5996 258.4693,-123.7178"/>
<polygon fill="#191970" stroke="#191970" points="258.422,-120.2086 248.2289,-123.0986 257.9994,-127.1959 258.422,-120.2086"/>
</g>
<!-- Node44&#45;&gt;Node41 -->
<g id="edge78" class="edge">
<title>Node44&#45;&gt;Node41</title>
<path fill="none" stroke="#191970" d="M1187.7555,-403.2455C1172.4239,-394.5731 1149.7801,-381.7645 1132.2084,-371.825"/>
<polygon fill="#191970" stroke="#191970" points="1133.4741,-368.5198 1123.0469,-366.6427 1130.0276,-374.6126 1133.4741,-368.5198"/>
</g>
<!-- Node44&#45;&gt;Node42 -->
<g id="edge76" class="edge">
<title>Node44&#45;&gt;Node42</title>
<path fill="none" stroke="#191970" d="M1200.1228,-403.2455C1196.3487,-395.6973 1191.0079,-385.0158 1186.4099,-375.8197"/>
<polygon fill="#191970" stroke="#191970" points="1189.424,-374.0217 1181.8213,-366.6427 1183.163,-377.1522 1189.424,-374.0217"/>
</g>
<!-- Node45 -->
<g id="node46" class="node">
<title>Node45</title>
<g id="a_node46"><a xlink:href="TStorage_8h.html" target="_top" xlink:title="TStorage.h">
<polygon fill="#ffffff" stroke="#000000" points="1261.5,-347.5 1261.5,-366.5 1330.5,-366.5 1330.5,-347.5 1261.5,-347.5"/>
<text text-anchor="middle" x="1296" y="-354.5" font-family="Helvetica,sans-Serif" font-size="10.00" fill="#000000">TStorage.h</text>
</a>
</g>
</g>
<!-- Node44&#45;&gt;Node45 -->
<g id="edge71" class="edge">
<title>Node44&#45;&gt;Node45</title>
<path fill="none" stroke="#191970" d="M1220.851,-403.2455C1234.8132,-394.6534 1255.3728,-382.0014 1271.4596,-372.1018"/>
<polygon fill="#191970" stroke="#191970" points="1273.6484,-374.8645 1280.3307,-366.6427 1269.9797,-368.9029 1273.6484,-374.8645"/>
</g>
<!-- Node46 -->
<g id="node47" class="node">
<title>Node46</title>
<g id="a_node47"><a xlink:href="TVersionCheck_8h.html" target="_top" xlink:title="TVersionCheck.h">
<polygon fill="#ffffff" stroke="#000000" points="1747,-112.5 1747,-131.5 1845,-131.5 1845,-112.5 1747,-112.5"/>
<text text-anchor="middle" x="1796" y="-119.5" font-family="Helvetica,sans-Serif" font-size="10.00" fill="#000000">TVersionCheck.h</text>
</a>
</g>
</g>
<!-- Node44&#45;&gt;Node46 -->
<g id="edge74" class="edge">
<title>Node44&#45;&gt;Node46</title>
<path fill="none" stroke="#191970" d="M1236.5566,-411.9091C1343.9383,-407.9713 1690.8526,-393.3144 1733,-367 1764.4546,-347.3616 1776,-332.5818 1776,-295.5 1776,-295.5 1776,-295.5 1776,-234 1776,-201.2193 1784.4055,-163.8705 1790.3181,-141.6533"/>
<polygon fill="#191970" stroke="#191970" points="1793.7555,-142.3545 1793.0489,-131.7832 1787.009,-140.4878 1793.7555,-142.3545"/>
</g>
<!-- Node45&#45;&gt;Node4 -->
<g id="edge73" class="edge">
<title>Node45&#45;&gt;Node4</title>
<path fill="none" stroke="#191970" d="M1291.7813,-347.3906C1287.9204,-338.5965 1282.0966,-325.3312 1277.3039,-314.4145"/>
<polygon fill="#191970" stroke="#191970" points="1280.5029,-312.9943 1273.2782,-305.2449 1274.0934,-315.8083 1280.5029,-312.9943"/>
</g>
<!-- Node45&#45;&gt;Node8 -->
<g id="edge72" class="edge">
<title>Node45&#45;&gt;Node8</title>
<path fill="none" stroke="#191970" d="M1330.505,-353.4612C1425.0037,-342.8211 1681,-307.2384 1681,-234 1681,-234 1681,-234 1681,-122 1681,-91.4754 1679.3961,-81.0824 1662,-56 1653.2349,-43.3622 1639.8705,-32.8116 1627.7911,-25.0163"/>
<polygon fill="#191970" stroke="#191970" points="1629.2632,-21.8149 1618.9018,-19.6033 1625.6225,-27.7937 1629.2632,-21.8149"/>
</g>
<!-- Node46&#45;&gt;Node7 -->
<g id="edge75" class="edge">
<title>Node46&#45;&gt;Node7</title>
<path fill="none" stroke="#191970" d="M1790.8844,-112.4509C1780.9214,-93.8533 1758.7635,-52.4919 1745.8552,-28.3964"/>
<polygon fill="#191970" stroke="#191970" points="1748.9101,-26.6869 1741.1026,-19.5249 1742.7397,-29.9925 1748.9101,-26.6869"/>
</g>
</g>
</svg>
