<?xml version="1.0" encoding="UTF-8" standalone="no"?>
<!DOCTYPE svg PUBLIC "-//W3C//DTD SVG 1.1//EN"
 "http://www.w3.org/Graphics/SVG/1.1/DTD/svg11.dtd">
<!-- Generated by graphviz version 2.40.1 (0)
 -->
<!-- Title: core/base/inc/TInspectorImp.h Pages: 1 -->
<svg width="322pt" height="106pt"
 viewBox="0.00 0.00 322.00 106.00" xmlns="http://www.w3.org/2000/svg" xmlns:xlink="http://www.w3.org/1999/xlink">
<g id="graph0" class="graph" transform="scale(1 1) rotate(0) translate(4 102)">
<title>core/base/inc/TInspectorImp.h</title>
<polygon fill="#ffffff" stroke="transparent" points="-4,4 -4,-102 318,-102 318,4 -4,4"/>
<!-- Node21 -->
<g id="node1" class="node">
<title>Node21</title>
<polygon fill="#bfbfbf" stroke="#000000" points="96,-67.5 96,-97.5 231,-97.5 231,-67.5 96,-67.5"/>
<text text-anchor="start" x="104" y="-85.5" font-family="Helvetica,sans-Serif" font-size="10.00" fill="#000000">core/base/inc/TInspector</text>
<text text-anchor="middle" x="163.5" y="-74.5" font-family="Helvetica,sans-Serif" font-size="10.00" fill="#000000">Imp.h</text>
</g>
<!-- Node22 -->
<g id="node2" class="node">
<title>Node22</title>
<g id="a_node2"><a xlink:href="TGuiFactory_8cxx.html" target="_top" xlink:title="core/base/src/TGuiFactory.cxx">
<polygon fill="#ffffff" stroke="#000000" points="0,-6 0,-25 161,-25 161,-6 0,-6"/>
<text text-anchor="middle" x="80.5" y="-13" font-family="Helvetica,sans-Serif" font-size="10.00" fill="#000000">core/base/src/TGuiFactory.cxx</text>
</a>
</g>
</g>
<!-- Node21&#45;&gt;Node22 -->
<g id="edge1" class="edge">
<title>Node21&#45;&gt;Node22</title>
<path fill="none" stroke="#191970" d="M136.713,-60.8767C121.7481,-48.7967 103.8512,-34.3498 92.3368,-25.055"/>
<polygon fill="#191970" stroke="#191970" points="134.6864,-63.7389 144.666,-67.2967 139.0832,-58.292 134.6864,-63.7389"/>
</g>
<!-- Node23 -->
<g id="node3" class="node">
<title>Node23</title>
<g id="a_node3"><a xlink:href="TInspectorImp_8cxx.html" target="_top" xlink:title="core/base/src/TInspector\lImp.cxx">
<polygon fill="#ffffff" stroke="#000000" points="179,-.5 179,-30.5 314,-30.5 314,-.5 179,-.5"/>
<text text-anchor="start" x="187" y="-18.5" font-family="Helvetica,sans-Serif" font-size="10.00" fill="#000000">core/base/src/TInspector</text>
<text text-anchor="middle" x="246.5" y="-7.5" font-family="Helvetica,sans-Serif" font-size="10.00" fill="#000000">Imp.cxx</text>
</a>
</g>
</g>
<!-- Node21&#45;&gt;Node23 -->
<g id="edge2" class="edge">
<title>Node21&#45;&gt;Node23</title>
<path fill="none" stroke="#191970" d="M190.4058,-60.7808C202.5988,-50.9383 216.7179,-39.541 227.7405,-30.6432"/>
<polygon fill="#191970" stroke="#191970" points="187.9168,-58.292 182.334,-67.2967 192.3136,-63.7389 187.9168,-58.292"/>
</g>
</g>
</svg>
