<?xml version="1.0" encoding="UTF-8" standalone="no"?>
<!DOCTYPE svg PUBLIC "-//W3C//DTD SVG 1.1//EN"
 "http://www.w3.org/Graphics/SVG/1.1/DTD/svg11.dtd">
<!-- Generated by graphviz version 2.40.1 (0)
 -->
<!-- Title: io/sql/inc/TKeySQL.h Pages: 1 -->
<svg width="278pt" height="84pt"
 viewBox="0.00 0.00 277.50 84.00" xmlns="http://www.w3.org/2000/svg" xmlns:xlink="http://www.w3.org/1999/xlink">
<g id="graph0" class="graph" transform="scale(1 1) rotate(0) translate(4 80)">
<title>io/sql/inc/TKeySQL.h</title>
<polygon fill="#ffffff" stroke="transparent" points="-4,4 -4,-80 273.5,-80 273.5,4 -4,4"/>
<!-- Node66 -->
<g id="node1" class="node">
<title>Node66</title>
<polygon fill="#bfbfbf" stroke="#000000" points="77.5,-56.5 77.5,-75.5 192.5,-75.5 192.5,-56.5 77.5,-56.5"/>
<text text-anchor="middle" x="135" y="-63.5" font-family="Helvetica,sans-Serif" font-size="10.00" fill="#000000">io/sql/inc/TKeySQL.h</text>
</g>
<!-- Node67 -->
<g id="node2" class="node">
<title>Node67</title>
<g id="a_node2"><a xlink:href="TKeySQL_8cxx.html" target="_top" xlink:title="io/sql/src/TKeySQL.cxx">
<polygon fill="#ffffff" stroke="#000000" points="0,-.5 0,-19.5 126,-19.5 126,-.5 0,-.5"/>
<text text-anchor="middle" x="63" y="-7.5" font-family="Helvetica,sans-Serif" font-size="10.00" fill="#000000">io/sql/src/TKeySQL.cxx</text>
</a>
</g>
</g>
<!-- Node66&#45;&gt;Node67 -->
<g id="edge1" class="edge">
<title>Node66&#45;&gt;Node67</title>
<path fill="none" stroke="#191970" d="M114.336,-49.928C101.7511,-40.1397 86.0908,-27.9595 75.3977,-19.6427"/>
<polygon fill="#191970" stroke="#191970" points="112.4162,-52.8688 122.4586,-56.2455 116.7138,-47.3434 112.4162,-52.8688"/>
</g>
<!-- Node68 -->
<g id="node3" class="node">
<title>Node68</title>
<g id="a_node3"><a xlink:href="TSQLFile_8cxx.html" target="_top" xlink:title="io/sql/src/TSQLFile.cxx">
<polygon fill="#ffffff" stroke="#000000" points="144.5,-.5 144.5,-19.5 269.5,-19.5 269.5,-.5 144.5,-.5"/>
<text text-anchor="middle" x="207" y="-7.5" font-family="Helvetica,sans-Serif" font-size="10.00" fill="#000000">io/sql/src/TSQLFile.cxx</text>
</a>
</g>
</g>
<!-- Node66&#45;&gt;Node68 -->
<g id="edge2" class="edge">
<title>Node66&#45;&gt;Node68</title>
<path fill="none" stroke="#191970" d="M155.664,-49.928C168.2489,-40.1397 183.9092,-27.9595 194.6023,-19.6427"/>
<polygon fill="#191970" stroke="#191970" points="153.2862,-47.3434 147.5414,-56.2455 157.5838,-52.8688 153.2862,-47.3434"/>
</g>
</g>
</svg>
