<?xml version="1.0" encoding="UTF-8" standalone="no"?>
<!DOCTYPE svg PUBLIC "-//W3C//DTD SVG 1.1//EN"
 "http://www.w3.org/Graphics/SVG/1.1/DTD/svg11.dtd">
<!-- Generated by graphviz version 2.40.1 (0)
 -->
<!-- Title: core/meta/src/TListOfEnumsWithLock.cxx Pages: 1 -->
<svg width="2411pt" height="946pt"
 viewBox="0.00 0.00 2410.94 946.00" xmlns="http://www.w3.org/2000/svg" xmlns:xlink="http://www.w3.org/1999/xlink">
<g id="graph0" class="graph" transform="scale(1 1) rotate(0) translate(4 942)">
<title>core/meta/src/TListOfEnumsWithLock.cxx</title>
<polygon fill="#ffffff" stroke="transparent" points="-4,4 -4,-942 2406.9353,-942 2406.9353,4 -4,4"/>
<!-- Node0 -->
<g id="node1" class="node">
<title>Node0</title>
<polygon fill="#bfbfbf" stroke="#000000" points="1753.9353,-907.5 1753.9353,-937.5 1907.9353,-937.5 1907.9353,-907.5 1753.9353,-907.5"/>
<text text-anchor="start" x="1761.9353" y="-925.5" font-family="Helvetica,sans-Serif" font-size="10.00" fill="#000000">core/meta/src/TListOfEnums</text>
<text text-anchor="middle" x="1830.9353" y="-914.5" font-family="Helvetica,sans-Serif" font-size="10.00" fill="#000000">WithLock.cxx</text>
</g>
<!-- Node1 -->
<g id="node2" class="node">
<title>Node1</title>
<polygon fill="#ffffff" stroke="#bfbfbf" points="1514.9353,-851.5 1514.9353,-870.5 1588.9353,-870.5 1588.9353,-851.5 1514.9353,-851.5"/>
<text text-anchor="middle" x="1551.9353" y="-858.5" font-family="Helvetica,sans-Serif" font-size="10.00" fill="#000000">forward_list</text>
</g>
<!-- Node0&#45;&gt;Node1 -->
<g id="edge1" class="edge">
<title>Node0&#45;&gt;Node1</title>
<path fill="none" stroke="#191970" d="M1762.6842,-907.4554C1711.9477,-896.2716 1644.023,-881.2989 1599.1699,-871.4119"/>
<polygon fill="#191970" stroke="#191970" points="1599.6465,-867.933 1589.1274,-869.1983 1598.1396,-874.7689 1599.6465,-867.933"/>
</g>
<!-- Node2 -->
<g id="node3" class="node">
<title>Node2</title>
<g id="a_node3"><a xlink:href="TListOfEnumsWithLock_8h.html" target="_top" xlink:title="TListOfEnumsWithLock.h">
<polygon fill="#ffffff" stroke="#000000" points="1702.9353,-851.5 1702.9353,-870.5 1840.9353,-870.5 1840.9353,-851.5 1702.9353,-851.5"/>
<text text-anchor="middle" x="1771.9353" y="-858.5" font-family="Helvetica,sans-Serif" font-size="10.00" fill="#000000">TListOfEnumsWithLock.h</text>
</a>
</g>
</g>
<!-- Node0&#45;&gt;Node2 -->
<g id="edge2" class="edge">
<title>Node0&#45;&gt;Node2</title>
<path fill="none" stroke="#191970" d="M1816.351,-907.2977C1807.9053,-898.4941 1797.2461,-887.3833 1788.4869,-878.2529"/>
<polygon fill="#191970" stroke="#191970" points="1790.8306,-875.6402 1781.382,-870.8469 1785.7792,-880.4862 1790.8306,-875.6402"/>
</g>
<!-- Node54 -->
<g id="node55" class="node">
<title>Node54</title>
<g id="a_node55"><a xlink:href="TVirtualMutex_8h.html" target="_top" xlink:title="TVirtualMutex.h">
<polygon fill="#ffffff" stroke="#000000" points="1889.9353,-459.5 1889.9353,-478.5 1983.9353,-478.5 1983.9353,-459.5 1889.9353,-459.5"/>
<text text-anchor="middle" x="1936.9353" y="-466.5" font-family="Helvetica,sans-Serif" font-size="10.00" fill="#000000">TVirtualMutex.h</text>
</a>
</g>
</g>
<!-- Node0&#45;&gt;Node54 -->
<g id="edge140" class="edge">
<title>Node0&#45;&gt;Node54</title>
<path fill="none" stroke="#191970" d="M1908.188,-915.1766C1975.6769,-904.0177 2062.9353,-875.8839 2062.9353,-805 2062.9353,-805 2062.9353,-805 2062.9353,-749 2062.9353,-693.6756 2006.2946,-562.5031 1977.9353,-515 1971.6188,-504.4194 1962.6858,-494.0474 1954.7697,-485.8383"/>
<polygon fill="#191970" stroke="#191970" points="1957.1612,-483.2802 1947.6103,-478.6942 1952.2168,-488.2353 1957.1612,-483.2802"/>
</g>
<!-- Node59 -->
<g id="node60" class="node">
<title>Node59</title>
<g id="a_node60"><a xlink:href="TClass_8h.html" target="_top" xlink:title="TClass.h">
<polygon fill="#ffffff" stroke="#000000" points="259.4353,-739.5 259.4353,-758.5 316.4353,-758.5 316.4353,-739.5 259.4353,-739.5"/>
<text text-anchor="middle" x="287.9353" y="-746.5" font-family="Helvetica,sans-Serif" font-size="10.00" fill="#000000">TClass.h</text>
</a>
</g>
</g>
<!-- Node0&#45;&gt;Node59 -->
<g id="edge99" class="edge">
<title>Node0&#45;&gt;Node59</title>
<path fill="none" stroke="#191970" d="M1786.1541,-907.4689C1729.2886,-888.6082 1634.2049,-857.8898 1597.9353,-851 1344.4397,-802.8454 515.9882,-760.1462 326.6938,-750.8645"/>
<polygon fill="#191970" stroke="#191970" points="326.8101,-747.3661 316.6512,-750.3741 326.4686,-754.3577 326.8101,-747.3661"/>
</g>
<!-- Node66 -->
<g id="node67" class="node">
<title>Node66</title>
<g id="a_node67"><a xlink:href="TExMap_8h.html" target="_top" xlink:title="TExMap.h">
<polygon fill="#ffffff" stroke="#000000" points="2052.9353,-627.5 2052.9353,-646.5 2116.9353,-646.5 2116.9353,-627.5 2052.9353,-627.5"/>
<text text-anchor="middle" x="2084.9353" y="-634.5" font-family="Helvetica,sans-Serif" font-size="10.00" fill="#000000">TExMap.h</text>
</a>
</g>
</g>
<!-- Node0&#45;&gt;Node66 -->
<g id="edge118" class="edge">
<title>Node0&#45;&gt;Node66</title>
<path fill="none" stroke="#191970" d="M1908.1134,-918.0033C2035.7644,-908.4294 2276.9353,-880.3683 2276.9353,-805 2276.9353,-805 2276.9353,-805 2276.9353,-749 2276.9353,-680.1566 2183.6971,-652.8728 2127.1689,-642.6576"/>
<polygon fill="#191970" stroke="#191970" points="2127.5167,-639.1666 2117.0718,-640.9426 2126.3445,-646.0677 2127.5167,-639.1666"/>
</g>
<!-- Node67 -->
<g id="node68" class="node">
<title>Node67</title>
<g id="a_node68"><a xlink:href="TEnum_8h.html" target="_top" xlink:title="TEnum.h">
<polygon fill="#ffffff" stroke="#000000" points="1645.4353,-795.5 1645.4353,-814.5 1704.4353,-814.5 1704.4353,-795.5 1645.4353,-795.5"/>
<text text-anchor="middle" x="1674.9353" y="-802.5" font-family="Helvetica,sans-Serif" font-size="10.00" fill="#000000">TEnum.h</text>
</a>
</g>
</g>
<!-- Node0&#45;&gt;Node67 -->
<g id="edge120" class="edge">
<title>Node0&#45;&gt;Node67</title>
<path fill="none" stroke="#191970" d="M1754.1848,-907.44C1732.1931,-899.7775 1709.8835,-888.2653 1693.9353,-871 1682.4441,-858.5598 1677.8553,-839.6078 1676.047,-825.1988"/>
<polygon fill="#191970" stroke="#191970" points="1679.4961,-824.4745 1675.1142,-814.8284 1672.5242,-825.1017 1679.4961,-824.4745"/>
</g>
<!-- Node69 -->
<g id="node70" class="node">
<title>Node69</title>
<g id="a_node70"><a xlink:href="TGlobal_8h.html" target="_top" xlink:title="TGlobal.h">
<polygon fill="#ffffff" stroke="#000000" points="1859.4353,-851.5 1859.4353,-870.5 1922.4353,-870.5 1922.4353,-851.5 1859.4353,-851.5"/>
<text text-anchor="middle" x="1890.9353" y="-858.5" font-family="Helvetica,sans-Serif" font-size="10.00" fill="#000000">TGlobal.h</text>
</a>
</g>
</g>
<!-- Node0&#45;&gt;Node69 -->
<g id="edge127" class="edge">
<title>Node0&#45;&gt;Node69</title>
<path fill="none" stroke="#191970" d="M1845.7668,-907.2977C1854.3557,-898.4941 1865.1956,-887.3833 1874.1032,-878.2529"/>
<polygon fill="#191970" stroke="#191970" points="1876.8505,-880.4489 1881.3286,-870.8469 1871.84,-875.5606 1876.8505,-880.4489"/>
</g>
<!-- Node71 -->
<g id="node72" class="node">
<title>Node71</title>
<g id="a_node72"><a xlink:href="TInterpreter_8h.html" target="_top" xlink:title="TInterpreter.h">
<polygon fill="#ffffff" stroke="#000000" points="1926.4353,-739.5 1926.4353,-758.5 2009.4353,-758.5 2009.4353,-739.5 1926.4353,-739.5"/>
<text text-anchor="middle" x="1967.9353" y="-746.5" font-family="Helvetica,sans-Serif" font-size="10.00" fill="#000000">TInterpreter.h</text>
</a>
</g>
</g>
<!-- Node0&#45;&gt;Node71 -->
<g id="edge130" class="edge">
<title>Node0&#45;&gt;Node71</title>
<path fill="none" stroke="#191970" d="M1869.3478,-907.4089C1888.9916,-898.5761 1912.5639,-886.1688 1930.9353,-871 1955.3431,-850.8471 1964.5892,-844.9138 1974.9353,-815 1980.1658,-799.877 1977.6614,-781.739 1974.275,-768.3077"/>
<polygon fill="#191970" stroke="#191970" points="1977.6359,-767.3305 1971.5009,-758.6926 1970.9102,-769.271 1977.6359,-767.3305"/>
</g>
<!-- Node3 -->
<g id="node4" class="node">
<title>Node3</title>
<g id="a_node4"><a xlink:href="TListOfEnums_8h.html" target="_top" xlink:title="TListOfEnums.h">
<polygon fill="#ffffff" stroke="#000000" points="1723.4353,-795.5 1723.4353,-814.5 1816.4353,-814.5 1816.4353,-795.5 1723.4353,-795.5"/>
<text text-anchor="middle" x="1769.9353" y="-802.5" font-family="Helvetica,sans-Serif" font-size="10.00" fill="#000000">TListOfEnums.h</text>
</a>
</g>
</g>
<!-- Node2&#45;&gt;Node3 -->
<g id="edge3" class="edge">
<title>Node2&#45;&gt;Node3</title>
<path fill="none" stroke="#191970" d="M1771.5869,-851.2455C1771.326,-843.9382 1770.9601,-833.6944 1770.6391,-824.7046"/>
<polygon fill="#191970" stroke="#191970" points="1774.1345,-824.5113 1770.2797,-814.6427 1767.1389,-824.7613 1774.1345,-824.5113"/>
</g>
<!-- Node4 -->
<g id="node5" class="node">
<title>Node4</title>
<g id="a_node5"><a xlink:href="THashList_8h.html" target="_top" xlink:title="THashList.h">
<polygon fill="#ffffff" stroke="#000000" points="1667.9353,-739.5 1667.9353,-758.5 1741.9353,-758.5 1741.9353,-739.5 1667.9353,-739.5"/>
<text text-anchor="middle" x="1704.9353" y="-746.5" font-family="Helvetica,sans-Serif" font-size="10.00" fill="#000000">THashList.h</text>
</a>
</g>
</g>
<!-- Node3&#45;&gt;Node4 -->
<g id="edge4" class="edge">
<title>Node3&#45;&gt;Node4</title>
<path fill="none" stroke="#191970" d="M1758.6132,-795.2455C1749.013,-786.9746 1735.0461,-774.9416 1723.7658,-765.2232"/>
<polygon fill="#191970" stroke="#191970" points="1725.9883,-762.5182 1716.1277,-758.6427 1721.4193,-767.8214 1725.9883,-762.5182"/>
</g>
<!-- Node56 -->
<g id="node57" class="node">
<title>Node56</title>
<g id="a_node57"><a xlink:href="TDictionary_8h.html" target="_top" xlink:title="TDictionary.h">
<polygon fill="#ffffff" stroke="#000000" points="1698.9353,-627.5 1698.9353,-646.5 1778.9353,-646.5 1778.9353,-627.5 1698.9353,-627.5"/>
<text text-anchor="middle" x="1738.9353" y="-634.5" font-family="Helvetica,sans-Serif" font-size="10.00" fill="#000000">TDictionary.h</text>
</a>
</g>
</g>
<!-- Node3&#45;&gt;Node56 -->
<g id="edge94" class="edge">
<title>Node3&#45;&gt;Node56</title>
<path fill="none" stroke="#191970" d="M1768.1798,-795.4862C1763.2582,-768.8144 1749.2524,-692.9117 1742.5695,-656.695"/>
<polygon fill="#191970" stroke="#191970" points="1746.0054,-656.0267 1740.7488,-646.8279 1739.1216,-657.297 1746.0054,-656.0267"/>
</g>
<!-- Node5 -->
<g id="node6" class="node">
<title>Node5</title>
<g id="a_node6"><a xlink:href="TList_8h.html" target="_top" xlink:title="TList.h">
<polygon fill="#ffffff" stroke="#000000" points="1486.4353,-683.5 1486.4353,-702.5 1535.4353,-702.5 1535.4353,-683.5 1486.4353,-683.5"/>
<text text-anchor="middle" x="1510.9353" y="-690.5" font-family="Helvetica,sans-Serif" font-size="10.00" fill="#000000">TList.h</text>
</a>
</g>
</g>
<!-- Node4&#45;&gt;Node5 -->
<g id="edge5" class="edge">
<title>Node4&#45;&gt;Node5</title>
<path fill="none" stroke="#191970" d="M1671.5855,-739.3733C1636.3847,-729.2122 1581.1614,-713.2715 1545.5059,-702.9791"/>
<polygon fill="#191970" stroke="#191970" points="1546.1355,-699.518 1535.5571,-700.1073 1544.1941,-706.2434 1546.1355,-699.518"/>
</g>
<!-- Node6 -->
<g id="node7" class="node">
<title>Node6</title>
<g id="a_node7"><a xlink:href="TSeqCollection_8h.html" target="_top" xlink:title="TSeqCollection.h">
<polygon fill="#ffffff" stroke="#000000" points="1152.9353,-627.5 1152.9353,-646.5 1250.9353,-646.5 1250.9353,-627.5 1152.9353,-627.5"/>
<text text-anchor="middle" x="1201.9353" y="-634.5" font-family="Helvetica,sans-Serif" font-size="10.00" fill="#000000">TSeqCollection.h</text>
</a>
</g>
</g>
<!-- Node5&#45;&gt;Node6 -->
<g id="edge6" class="edge">
<title>Node5&#45;&gt;Node6</title>
<path fill="none" stroke="#191970" d="M1486.4303,-688.559C1438.1625,-679.8114 1329.5614,-660.1296 1261.3722,-647.7717"/>
<polygon fill="#191970" stroke="#191970" points="1261.6678,-644.2684 1251.2039,-645.9289 1260.4194,-651.1562 1261.6678,-644.2684"/>
</g>
<!-- Node34 -->
<g id="node35" class="node">
<title>Node34</title>
<g id="a_node35"><a xlink:href="TString_8h.html" target="_top" xlink:title="TString.h">
<polygon fill="#ffffff" stroke="#000000" points="1165.9353,-459.5 1165.9353,-478.5 1225.9353,-478.5 1225.9353,-459.5 1165.9353,-459.5"/>
<text text-anchor="middle" x="1195.9353" y="-466.5" font-family="Helvetica,sans-Serif" font-size="10.00" fill="#000000">TString.h</text>
</a>
</g>
</g>
<!-- Node5&#45;&gt;Node34 -->
<g id="edge91" class="edge">
<title>Node5&#45;&gt;Node34</title>
<path fill="none" stroke="#191970" d="M1486.1131,-685.7126C1431.2798,-668.4219 1298.6956,-619.8832 1222.9353,-535 1211.1109,-521.7517 1204.0606,-502.6295 1200.1467,-488.3749"/>
<polygon fill="#191970" stroke="#191970" points="1203.5293,-487.473 1197.738,-478.6011 1196.7326,-489.1481 1203.5293,-487.473"/>
</g>
<!-- Node41 -->
<g id="node42" class="node">
<title>Node41</title>
<polygon fill="#ffffff" stroke="#bfbfbf" points="689.4353,-224.5 689.4353,-243.5 742.4353,-243.5 742.4353,-224.5 689.4353,-224.5"/>
<text text-anchor="middle" x="715.9353" y="-231.5" font-family="Helvetica,sans-Serif" font-size="10.00" fill="#000000">iterator</text>
</g>
<!-- Node5&#45;&gt;Node41 -->
<g id="edge92" class="edge">
<title>Node5&#45;&gt;Node41</title>
<path fill="none" stroke="#191970" d="M1509.1768,-683.1907C1503.0905,-652.3929 1479.8568,-557.174 1418.9353,-515 1307.4086,-437.7937 1254.4072,-472.0293 1127.9353,-423 1072.6839,-401.5807 1060.3313,-392.6979 1006.9353,-367 929.0271,-329.5051 911.9131,-315.1862 832.9353,-280 806.0703,-268.0311 775.0707,-255.9174 751.7325,-247.1275"/>
<polygon fill="#191970" stroke="#191970" points="752.8262,-243.7998 742.2338,-243.574 750.3735,-250.356 752.8262,-243.7998"/>
</g>
<!-- Node47 -->
<g id="node48" class="node">
<title>Node47</title>
<polygon fill="#ffffff" stroke="#bfbfbf" points="2114.9353,-224.5 2114.9353,-243.5 2172.9353,-243.5 2172.9353,-224.5 2114.9353,-224.5"/>
<text text-anchor="middle" x="2143.9353" y="-231.5" font-family="Helvetica,sans-Serif" font-size="10.00" fill="#000000">memory</text>
</g>
<!-- Node5&#45;&gt;Node47 -->
<g id="edge93" class="edge">
<title>Node5&#45;&gt;Node47</title>
<path fill="none" stroke="#191970" d="M1524.1564,-683.4131C1604.1219,-625.4287 2023.0254,-321.674 2122.6566,-249.4296"/>
<polygon fill="#191970" stroke="#191970" points="2124.7459,-252.2379 2130.787,-243.5341 2120.6367,-246.571 2124.7459,-252.2379"/>
</g>
<!-- Node7 -->
<g id="node8" class="node">
<title>Node7</title>
<g id="a_node8"><a xlink:href="TCollection_8h.html" target="_top" xlink:title="TCollection.h">
<polygon fill="#ffffff" stroke="#000000" points="1373.9353,-571.5 1373.9353,-590.5 1453.9353,-590.5 1453.9353,-571.5 1373.9353,-571.5"/>
<text text-anchor="middle" x="1413.9353" y="-578.5" font-family="Helvetica,sans-Serif" font-size="10.00" fill="#000000">TCollection.h</text>
</a>
</g>
</g>
<!-- Node6&#45;&gt;Node7 -->
<g id="edge7" class="edge">
<title>Node6&#45;&gt;Node7</title>
<path fill="none" stroke="#191970" d="M1238.3794,-627.3733C1274.2422,-617.9001 1329.1232,-603.4032 1367.9635,-593.1435"/>
<polygon fill="#191970" stroke="#191970" points="1369.1923,-596.439 1377.9668,-590.5011 1367.4045,-589.6712 1369.1923,-596.439"/>
</g>
<!-- Node8 -->
<g id="node9" class="node">
<title>Node8</title>
<g id="a_node9"><a xlink:href="TObject_8h.html" target="_top" xlink:title="TObject.h">
<polygon fill="#ffffff" stroke="#000000" points="1570.4353,-403.5 1570.4353,-422.5 1633.4353,-422.5 1633.4353,-403.5 1570.4353,-403.5"/>
<text text-anchor="middle" x="1601.9353" y="-410.5" font-family="Helvetica,sans-Serif" font-size="10.00" fill="#000000">TObject.h</text>
</a>
</g>
</g>
<!-- Node7&#45;&gt;Node8 -->
<g id="edge8" class="edge">
<title>Node7&#45;&gt;Node8</title>
<path fill="none" stroke="#191970" d="M1425.3352,-571.2723C1446.3815,-553.2667 1492.6829,-513.4375 1530.9353,-479 1549.3371,-462.4334 1570.0381,-443.1096 1584.3176,-429.6696"/>
<polygon fill="#191970" stroke="#191970" points="1587.0442,-431.9092 1591.9173,-422.5016 1582.2411,-426.817 1587.0442,-431.9092"/>
</g>
<!-- Node33 -->
<g id="node34" class="node">
<title>Node33</title>
<g id="a_node34"><a xlink:href="TIterator_8h.html" target="_top" xlink:title="TIterator.h">
<polygon fill="#ffffff" stroke="#000000" points="1455.4353,-459.5 1455.4353,-478.5 1522.4353,-478.5 1522.4353,-459.5 1455.4353,-459.5"/>
<text text-anchor="middle" x="1488.9353" y="-466.5" font-family="Helvetica,sans-Serif" font-size="10.00" fill="#000000">TIterator.h</text>
</a>
</g>
</g>
<!-- Node7&#45;&gt;Node33 -->
<g id="edge43" class="edge">
<title>Node7&#45;&gt;Node33</title>
<path fill="none" stroke="#191970" d="M1420.3298,-571.4509C1432.8389,-552.7707 1460.7274,-511.1238 1476.8308,-487.0761"/>
<polygon fill="#191970" stroke="#191970" points="1479.9011,-488.7814 1482.557,-478.5249 1474.0847,-484.8865 1479.9011,-488.7814"/>
</g>
<!-- Node7&#45;&gt;Node34 -->
<g id="edge45" class="edge">
<title>Node7&#45;&gt;Node34</title>
<path fill="none" stroke="#191970" d="M1373.7438,-576.8182C1338.4362,-571.5888 1286.9178,-560.0507 1248.9353,-535 1230.6201,-522.9205 1215.6415,-502.4829 1206.337,-487.5444"/>
<polygon fill="#191970" stroke="#191970" points="1209.1793,-485.4759 1201.0639,-478.6648 1203.1605,-489.0501 1209.1793,-485.4759"/>
</g>
<!-- Node53 -->
<g id="node54" class="node">
<title>Node53</title>
<g id="a_node54"><a xlink:href="TVirtualRWMutex_8h.html" target="_top" xlink:title="TVirtualRWMutex.h">
<polygon fill="#ffffff" stroke="#000000" points="1858.9353,-515.5 1858.9353,-534.5 1968.9353,-534.5 1968.9353,-515.5 1858.9353,-515.5"/>
<text text-anchor="middle" x="1913.9353" y="-522.5" font-family="Helvetica,sans-Serif" font-size="10.00" fill="#000000">TVirtualRWMutex.h</text>
</a>
</g>
</g>
<!-- Node7&#45;&gt;Node53 -->
<g id="edge86" class="edge">
<title>Node7&#45;&gt;Node53</title>
<path fill="none" stroke="#191970" d="M1454.0072,-576.5119C1540.1256,-566.8667 1743.533,-544.0851 1848.5959,-532.318"/>
<polygon fill="#191970" stroke="#191970" points="1849.2082,-535.7714 1858.7564,-531.18 1848.429,-528.8149 1849.2082,-535.7714"/>
</g>
<!-- Node55 -->
<g id="node56" class="node">
<title>Node55</title>
<polygon fill="#ffffff" stroke="#bfbfbf" points="1353.9353,-515.5 1353.9353,-534.5 1409.9353,-534.5 1409.9353,-515.5 1353.9353,-515.5"/>
<text text-anchor="middle" x="1381.9353" y="-522.5" font-family="Helvetica,sans-Serif" font-size="10.00" fill="#000000">assert.h</text>
</g>
<!-- Node7&#45;&gt;Node55 -->
<g id="edge90" class="edge">
<title>Node7&#45;&gt;Node55</title>
<path fill="none" stroke="#191970" d="M1408.3613,-571.2455C1404.0022,-563.617 1397.8143,-552.7881 1392.522,-543.5267"/>
<polygon fill="#191970" stroke="#191970" points="1395.4457,-541.5886 1387.4454,-534.6427 1389.368,-545.0616 1395.4457,-541.5886"/>
</g>
<!-- Node9 -->
<g id="node10" class="node">
<title>Node9</title>
<polygon fill="#ffffff" stroke="#bfbfbf" points="1259.9353,-.5 1259.9353,-19.5 1337.9353,-19.5 1337.9353,-.5 1259.9353,-.5"/>
<text text-anchor="middle" x="1298.9353" y="-7.5" font-family="Helvetica,sans-Serif" font-size="10.00" fill="#000000">RConfigure.h</text>
</g>
<!-- Node8&#45;&gt;Node9 -->
<g id="edge9" class="edge">
<title>Node8&#45;&gt;Node9</title>
<path fill="none" stroke="#191970" d="M1633.5866,-409.0724C1767.0367,-391.6495 2276.9353,-316.0461 2276.9353,-178 2276.9353,-178 2276.9353,-178 2276.9353,-122 2276.9353,-74.7527 1546.9697,-25.5475 1348.3262,-13.0321"/>
<polygon fill="#191970" stroke="#191970" points="1348.3805,-9.5287 1338.181,-12.3958 1347.9422,-16.515 1348.3805,-9.5287"/>
</g>
<!-- Node10 -->
<g id="node11" class="node">
<title>Node10</title>
<g id="a_node11"><a xlink:href="Rtypes_8h.html" target="_top" xlink:title="Rtypes.h">
<polygon fill="#ffffff" stroke="#000000" points="1578.4353,-280.5 1578.4353,-299.5 1637.4353,-299.5 1637.4353,-280.5 1578.4353,-280.5"/>
<text text-anchor="middle" x="1607.9353" y="-287.5" font-family="Helvetica,sans-Serif" font-size="10.00" fill="#000000">Rtypes.h</text>
</a>
</g>
</g>
<!-- Node8&#45;&gt;Node10 -->
<g id="edge10" class="edge">
<title>Node8&#45;&gt;Node10</title>
<path fill="none" stroke="#191970" d="M1615.2663,-403.3825C1625.5526,-395.0729 1638.9965,-382.0499 1644.9353,-367 1649.9927,-354.184 1649.513,-348.9951 1644.9353,-336 1641.1044,-325.125 1633.4951,-314.9246 1626.1681,-306.9061"/>
<polygon fill="#191970" stroke="#191970" points="1628.5819,-304.3686 1619.0855,-299.6707 1623.5796,-309.2652 1628.5819,-304.3686"/>
</g>
<!-- Node26 -->
<g id="node27" class="node">
<title>Node26</title>
<polygon fill="#ffffff" stroke="#bfbfbf" points="825.9353,-112.5 825.9353,-131.5 869.9353,-131.5 869.9353,-112.5 825.9353,-112.5"/>
<text text-anchor="middle" x="847.9353" y="-119.5" font-family="Helvetica,sans-Serif" font-size="10.00" fill="#000000">string</text>
</g>
<!-- Node8&#45;&gt;Node26 -->
<g id="edge41" class="edge">
<title>Node8&#45;&gt;Node26</title>
<path fill="none" stroke="#191970" d="M1587.3096,-403.2707C1564.8616,-388.4166 1520.4641,-359.3485 1481.9353,-336 1454.3553,-319.2865 1446.1176,-317.3529 1418.9353,-300 1376.2142,-272.7274 1280.2252,-186.2362 1232.9353,-168 1168.619,-143.1979 960.7999,-128.6387 880.252,-123.8075"/>
<polygon fill="#191970" stroke="#191970" points="880.3853,-120.3094 870.1969,-123.2155 879.9739,-127.2973 880.3853,-120.3094"/>
</g>
<!-- Node29 -->
<g id="node30" class="node">
<title>Node29</title>
<g id="a_node30"><a xlink:href="TStorage_8h.html" target="_top" xlink:title="TStorage.h">
<polygon fill="#ffffff" stroke="#000000" points="1567.4353,-342 1567.4353,-361 1636.4353,-361 1636.4353,-342 1567.4353,-342"/>
<text text-anchor="middle" x="1601.9353" y="-349" font-family="Helvetica,sans-Serif" font-size="10.00" fill="#000000">TStorage.h</text>
</a>
</g>
</g>
<!-- Node8&#45;&gt;Node29 -->
<g id="edge35" class="edge">
<title>Node8&#45;&gt;Node29</title>
<path fill="none" stroke="#191970" d="M1601.9353,-403.3906C1601.9353,-394.8657 1601.9353,-382.1392 1601.9353,-371.4235"/>
<polygon fill="#191970" stroke="#191970" points="1605.4354,-371.2448 1601.9353,-361.2449 1598.4354,-371.2449 1605.4354,-371.2448"/>
</g>
<!-- Node30 -->
<g id="node31" class="node">
<title>Node30</title>
<g id="a_node31"><a xlink:href="TVersionCheck_8h.html" target="_top" xlink:title="TVersionCheck.h">
<polygon fill="#ffffff" stroke="#000000" points="2304.9353,-56.5 2304.9353,-75.5 2402.9353,-75.5 2402.9353,-56.5 2304.9353,-56.5"/>
<text text-anchor="middle" x="2353.9353" y="-63.5" font-family="Helvetica,sans-Serif" font-size="10.00" fill="#000000">TVersionCheck.h</text>
</a>
</g>
</g>
<!-- Node8&#45;&gt;Node30 -->
<g id="edge38" class="edge">
<title>Node8&#45;&gt;Node30</title>
<path fill="none" stroke="#191970" d="M1633.5824,-412.4942C1743.5762,-410.4496 2108.6013,-401.1867 2219.9353,-367 2285.5973,-346.8375 2353.9353,-358.6879 2353.9353,-290 2353.9353,-290 2353.9353,-290 2353.9353,-178 2353.9353,-145.7116 2353.9353,-108.1872 2353.9353,-85.8048"/>
<polygon fill="#191970" stroke="#191970" points="2357.4354,-85.5883 2353.9353,-75.5884 2350.4354,-85.5884 2357.4354,-85.5883"/>
</g>
<!-- Node31 -->
<g id="node32" class="node">
<title>Node31</title>
<polygon fill="#ffffff" stroke="#bfbfbf" points="1416.9353,-342 1416.9353,-361 1472.9353,-361 1472.9353,-342 1416.9353,-342"/>
<text text-anchor="middle" x="1444.9353" y="-349" font-family="Helvetica,sans-Serif" font-size="10.00" fill="#000000">stdarg.h</text>
</g>
<!-- Node8&#45;&gt;Node31 -->
<g id="edge40" class="edge">
<title>Node8&#45;&gt;Node31</title>
<path fill="none" stroke="#191970" d="M1577.4041,-403.3906C1550.9047,-393.0103 1508.5022,-376.4004 1478.8283,-364.7766"/>
<polygon fill="#191970" stroke="#191970" points="1479.882,-361.4304 1469.2943,-361.0419 1477.3288,-367.9482 1479.882,-361.4304"/>
</g>
<!-- Node32 -->
<g id="node33" class="node">
<title>Node32</title>
<polygon fill="#ffffff" stroke="#bfbfbf" points="1349.4353,-342 1349.4353,-361 1398.4353,-361 1398.4353,-342 1349.4353,-342"/>
<text text-anchor="middle" x="1373.9353" y="-349" font-family="Helvetica,sans-Serif" font-size="10.00" fill="#000000">iosfwd</text>
</g>
<!-- Node8&#45;&gt;Node32 -->
<g id="edge42" class="edge">
<title>Node8&#45;&gt;Node32</title>
<path fill="none" stroke="#191970" d="M1570.1526,-407.4389C1531.2805,-400.1892 1463.7632,-386.1396 1407.9353,-367 1406.0943,-366.3689 1404.2179,-365.6728 1402.3396,-364.9356"/>
<polygon fill="#191970" stroke="#191970" points="1403.6616,-361.6946 1393.0884,-361.0185 1400.9322,-368.1406 1403.6616,-361.6946"/>
</g>
<!-- Node11 -->
<g id="node12" class="node">
<title>Node11</title>
<g id="a_node12"><a xlink:href="RtypesCore_8h.html" target="_top" xlink:title="RtypesCore.h">
<polygon fill="#ffffff" stroke="#000000" points="1523.9353,-112.5 1523.9353,-131.5 1605.9353,-131.5 1605.9353,-112.5 1523.9353,-112.5"/>
<text text-anchor="middle" x="1564.9353" y="-119.5" font-family="Helvetica,sans-Serif" font-size="10.00" fill="#000000">RtypesCore.h</text>
</a>
</g>
</g>
<!-- Node10&#45;&gt;Node11 -->
<g id="edge11" class="edge">
<title>Node10&#45;&gt;Node11</title>
<path fill="none" stroke="#191970" d="M1637.6537,-282.6843C1642.4098,-281.6759 1647.293,-280.7358 1651.9353,-280 1738.9903,-266.2027 1979.9976,-301.3435 2046.9353,-244 2073.0189,-221.655 2084.0731,-193.383 2060.9353,-168 2031.3924,-135.5904 1737.278,-125.6608 1616.3983,-122.9343"/>
<polygon fill="#191970" stroke="#191970" points="1616.3552,-119.4327 1606.2813,-122.7139 1616.2026,-126.431 1616.3552,-119.4327"/>
</g>
<!-- Node15 -->
<g id="node16" class="node">
<title>Node15</title>
<g id="a_node16"><a xlink:href="DllImport_8h.html" target="_top" xlink:title="DllImport.h">
<polygon fill="#ffffff" stroke="#000000" points="1461.4353,-224.5 1461.4353,-243.5 1532.4353,-243.5 1532.4353,-224.5 1461.4353,-224.5"/>
<text text-anchor="middle" x="1496.9353" y="-231.5" font-family="Helvetica,sans-Serif" font-size="10.00" fill="#000000">DllImport.h</text>
</a>
</g>
</g>
<!-- Node10&#45;&gt;Node15 -->
<g id="edge16" class="edge">
<title>Node10&#45;&gt;Node15</title>
<path fill="none" stroke="#191970" d="M1588.8537,-280.3733C1571.1952,-271.4644 1544.7301,-258.1127 1524.7255,-248.0203"/>
<polygon fill="#191970" stroke="#191970" points="1526.2726,-244.8806 1515.7679,-243.5011 1523.1195,-251.1303 1526.2726,-244.8806"/>
</g>
<!-- Node16 -->
<g id="node17" class="node">
<title>Node16</title>
<polygon fill="#ffffff" stroke="#bfbfbf" points="1682.9353,-224.5 1682.9353,-243.5 1744.9353,-243.5 1744.9353,-224.5 1682.9353,-224.5"/>
<text text-anchor="middle" x="1713.9353" y="-231.5" font-family="Helvetica,sans-Serif" font-size="10.00" fill="#000000">snprintf.h</text>
</g>
<!-- Node10&#45;&gt;Node16 -->
<g id="edge17" class="edge">
<title>Node10&#45;&gt;Node16</title>
<path fill="none" stroke="#191970" d="M1626.3991,-280.2455C1643.0428,-271.4527 1667.7346,-258.4079 1686.6545,-248.4125"/>
<polygon fill="#191970" stroke="#191970" points="1688.4761,-251.4086 1695.6831,-243.6427 1685.2062,-245.2193 1688.4761,-251.4086"/>
</g>
<!-- Node17 -->
<g id="node18" class="node">
<title>Node17</title>
<polygon fill="#ffffff" stroke="#bfbfbf" points="1801.4353,-224.5 1801.4353,-243.5 1858.4353,-243.5 1858.4353,-224.5 1801.4353,-224.5"/>
<text text-anchor="middle" x="1829.9353" y="-231.5" font-family="Helvetica,sans-Serif" font-size="10.00" fill="#000000">strlcpy.h</text>
</g>
<!-- Node10&#45;&gt;Node17 -->
<g id="edge18" class="edge">
<title>Node10&#45;&gt;Node17</title>
<path fill="none" stroke="#191970" d="M1637.8752,-282.4476C1677.539,-272.4423 1747.5654,-254.778 1791.2127,-243.7679"/>
<polygon fill="#191970" stroke="#191970" points="1792.3321,-247.0952 1801.1722,-241.2556 1790.6199,-240.3078 1792.3321,-247.0952"/>
</g>
<!-- Node18 -->
<g id="node19" class="node">
<title>Node18</title>
<polygon fill="#ffffff" stroke="#bfbfbf" points="1747.9353,-168.5 1747.9353,-187.5 1797.9353,-187.5 1797.9353,-168.5 1747.9353,-168.5"/>
<text text-anchor="middle" x="1772.9353" y="-175.5" font-family="Helvetica,sans-Serif" font-size="10.00" fill="#000000">atomic</text>
</g>
<!-- Node10&#45;&gt;Node18 -->
<g id="edge19" class="edge">
<title>Node10&#45;&gt;Node18</title>
<path fill="none" stroke="#191970" d="M1637.6989,-282.2393C1677.9394,-271.5045 1745.6546,-252.4897 1753.9353,-244 1765.8773,-231.7566 1770.4019,-212.5132 1772.072,-197.9578"/>
<polygon fill="#191970" stroke="#191970" points="1775.5653,-198.1803 1772.8683,-187.9345 1768.5872,-197.6259 1775.5653,-198.1803"/>
</g>
<!-- Node19 -->
<g id="node20" class="node">
<title>Node19</title>
<polygon fill="#ffffff" stroke="#bfbfbf" points="1354.9353,-224.5 1354.9353,-243.5 1404.9353,-243.5 1404.9353,-224.5 1354.9353,-224.5"/>
<text text-anchor="middle" x="1379.9353" y="-231.5" font-family="Helvetica,sans-Serif" font-size="10.00" fill="#000000">stdio.h</text>
</g>
<!-- Node10&#45;&gt;Node19 -->
<g id="edge20" class="edge">
<title>Node10&#45;&gt;Node19</title>
<path fill="none" stroke="#191970" d="M1578.1283,-282.679C1536.1342,-272.3646 1459.7017,-253.5917 1415.0212,-242.6176"/>
<polygon fill="#191970" stroke="#191970" points="1415.7355,-239.1891 1405.1893,-240.2027 1414.0658,-245.987 1415.7355,-239.1891"/>
</g>
<!-- Node20 -->
<g id="node21" class="node">
<title>Node20</title>
<polygon fill="#ffffff" stroke="#bfbfbf" points="1876.4353,-224.5 1876.4353,-243.5 1929.4353,-243.5 1929.4353,-224.5 1876.4353,-224.5"/>
<text text-anchor="middle" x="1902.9353" y="-231.5" font-family="Helvetica,sans-Serif" font-size="10.00" fill="#000000">string.h</text>
</g>
<!-- Node10&#45;&gt;Node20 -->
<g id="edge21" class="edge">
<title>Node10&#45;&gt;Node20</title>
<path fill="none" stroke="#191970" d="M1637.7079,-282.9895C1642.4571,-281.9417 1647.3239,-280.9093 1651.9353,-280 1743.9274,-261.8603 1770.6445,-264.7768 1866.4697,-243.9066"/>
<polygon fill="#191970" stroke="#191970" points="1867.2674,-247.3149 1876.2774,-241.7409 1865.758,-240.4796 1867.2674,-247.3149"/>
</g>
<!-- Node21 -->
<g id="node22" class="node">
<title>Node21</title>
<polygon fill="#ffffff" stroke="#bfbfbf" points="1995.4353,-168.5 1995.4353,-187.5 2052.4353,-187.5 2052.4353,-168.5 1995.4353,-168.5"/>
<text text-anchor="middle" x="2023.9353" y="-175.5" font-family="Helvetica,sans-Serif" font-size="10.00" fill="#000000">typeinfo</text>
</g>
<!-- Node10&#45;&gt;Node21 -->
<g id="edge22" class="edge">
<title>Node10&#45;&gt;Node21</title>
<path fill="none" stroke="#191970" d="M1637.6565,-282.7019C1642.4123,-281.6913 1647.2946,-280.7458 1651.9353,-280 1693.4817,-273.3234 2000.6302,-275.1368 2028.9353,-244 2040.1312,-231.6841 2037.0573,-212.1765 2032.2771,-197.5579"/>
<polygon fill="#191970" stroke="#191970" points="2035.4627,-196.0846 2028.6744,-187.9501 2028.9083,-198.5424 2035.4627,-196.0846"/>
</g>
<!-- Node22 -->
<g id="node23" class="node">
<title>Node22</title>
<polygon fill="#ffffff" stroke="#bfbfbf" points="1229.4353,-224.5 1229.4353,-243.5 1298.4353,-243.5 1298.4353,-224.5 1229.4353,-224.5"/>
<text text-anchor="middle" x="1263.9353" y="-231.5" font-family="Helvetica,sans-Serif" font-size="10.00" fill="#000000">type_traits</text>
</g>
<!-- Node10&#45;&gt;Node22 -->
<g id="edge23" class="edge">
<title>Node10&#45;&gt;Node22</title>
<path fill="none" stroke="#191970" d="M1578.3083,-285.177C1517.8837,-275.3404 1380.1165,-252.9132 1308.7086,-241.2887"/>
<polygon fill="#191970" stroke="#191970" points="1309.104,-237.8071 1298.6716,-239.6547 1307.9792,-244.7161 1309.104,-237.8071"/>
</g>
<!-- Node23 -->
<g id="node24" class="node">
<title>Node23</title>
<g id="a_node24"><a xlink:href="TGenericClassInfo_8h.html" target="_top" xlink:title="TGenericClassInfo.h">
<polygon fill="#ffffff" stroke="#000000" points="1550.9353,-224.5 1550.9353,-243.5 1664.9353,-243.5 1664.9353,-224.5 1550.9353,-224.5"/>
<text text-anchor="middle" x="1607.9353" y="-231.5" font-family="Helvetica,sans-Serif" font-size="10.00" fill="#000000">TGenericClassInfo.h</text>
</a>
</g>
</g>
<!-- Node10&#45;&gt;Node23 -->
<g id="edge24" class="edge">
<title>Node10&#45;&gt;Node23</title>
<path fill="none" stroke="#191970" d="M1602.6685,-280.2455C1601.2574,-272.9382 1600.8532,-262.6944 1601.4558,-253.7046"/>
<polygon fill="#191970" stroke="#191970" points="1604.9464,-253.9945 1602.6902,-243.6427 1597.9985,-253.1421 1604.9464,-253.9945"/>
</g>
<!-- Node27 -->
<g id="node28" class="node">
<title>Node27</title>
<g id="a_node28"><a xlink:href="TIsAProxy_8h.html" target="_top" xlink:title="TIsAProxy.h">
<polygon fill="#ffffff" stroke="#000000" points="1947.4353,-224.5 1947.4353,-243.5 2020.4353,-243.5 2020.4353,-224.5 1947.4353,-224.5"/>
<text text-anchor="middle" x="1983.9353" y="-231.5" font-family="Helvetica,sans-Serif" font-size="10.00" fill="#000000">TIsAProxy.h</text>
</a>
</g>
</g>
<!-- Node10&#45;&gt;Node27 -->
<g id="edge30" class="edge">
<title>Node10&#45;&gt;Node27</title>
<path fill="none" stroke="#191970" d="M1637.6771,-282.8242C1642.4302,-281.7978 1647.3064,-280.8153 1651.9353,-280 1774.9037,-258.341 1809.8966,-265.2496 1937.194,-243.9842"/>
<polygon fill="#191970" stroke="#191970" points="1938.0606,-247.3873 1947.3343,-242.2638 1936.8897,-240.4859 1938.0606,-247.3873"/>
</g>
<!-- Node12 -->
<g id="node13" class="node">
<title>Node12</title>
<g id="a_node13"><a xlink:href="RConfig_8hxx.html" target="_top" xlink:title="ROOT/RConfig.hxx">
<polygon fill="#ffffff" stroke="#000000" points="1468.4353,-56.5 1468.4353,-75.5 1573.4353,-75.5 1573.4353,-56.5 1468.4353,-56.5"/>
<text text-anchor="middle" x="1520.9353" y="-63.5" font-family="Helvetica,sans-Serif" font-size="10.00" fill="#000000">ROOT/RConfig.hxx</text>
</a>
</g>
</g>
<!-- Node11&#45;&gt;Node12 -->
<g id="edge12" class="edge">
<title>Node11&#45;&gt;Node12</title>
<path fill="none" stroke="#191970" d="M1557.2711,-112.2455C1551.088,-104.3761 1542.229,-93.101 1534.8065,-83.6542"/>
<polygon fill="#191970" stroke="#191970" points="1537.4421,-81.3435 1528.5117,-75.6427 1531.9378,-85.6683 1537.4421,-81.3435"/>
</g>
<!-- Node14 -->
<g id="node15" class="node">
<title>Node14</title>
<polygon fill="#ffffff" stroke="#bfbfbf" points="803.9353,-56.5 803.9353,-75.5 859.9353,-75.5 859.9353,-56.5 803.9353,-56.5"/>
<text text-anchor="middle" x="831.9353" y="-63.5" font-family="Helvetica,sans-Serif" font-size="10.00" fill="#000000">stddef.h</text>
</g>
<!-- Node11&#45;&gt;Node14 -->
<g id="edge15" class="edge">
<title>Node11&#45;&gt;Node14</title>
<path fill="none" stroke="#191970" d="M1523.691,-118.849C1394.0585,-108.9453 996.0133,-78.5353 870.3611,-68.9357"/>
<polygon fill="#191970" stroke="#191970" points="870.3196,-65.4224 860.082,-68.1504 869.7863,-72.402 870.3196,-65.4224"/>
</g>
<!-- Node12&#45;&gt;Node9 -->
<g id="edge14" class="edge">
<title>Node12&#45;&gt;Node9</title>
<path fill="none" stroke="#191970" d="M1483.0244,-56.4369C1445.2703,-46.9133 1387.2088,-32.2672 1346.4089,-21.9753"/>
<polygon fill="#191970" stroke="#191970" points="1347.2422,-18.576 1336.6899,-19.5237 1345.53,-25.3633 1347.2422,-18.576"/>
</g>
<!-- Node13 -->
<g id="node14" class="node">
<title>Node13</title>
<g id="a_node14"><a xlink:href="RVersion_8h.html" target="_top" xlink:title="../RVersion.h">
<polygon fill="#ffffff" stroke="#000000" points="1616.4353,-.5 1616.4353,-19.5 1693.4353,-19.5 1693.4353,-.5 1616.4353,-.5"/>
<text text-anchor="middle" x="1654.9353" y="-7.5" font-family="Helvetica,sans-Serif" font-size="10.00" fill="#000000">../RVersion.h</text>
</a>
</g>
</g>
<!-- Node12&#45;&gt;Node13 -->
<g id="edge13" class="edge">
<title>Node12&#45;&gt;Node13</title>
<path fill="none" stroke="#191970" d="M1543.9707,-56.3733C1565.6741,-47.3032 1598.3972,-33.6279 1622.6903,-23.4755"/>
<polygon fill="#191970" stroke="#191970" points="1624.3234,-26.5865 1632.2005,-19.5011 1621.6242,-20.1278 1624.3234,-26.5865"/>
</g>
<!-- Node23&#45;&gt;Node10 -->
<g id="edge29" class="edge">
<title>Node23&#45;&gt;Node10</title>
<path fill="none" stroke="#191970" d="M1613.1805,-243.6427C1614.6018,-250.9199 1615.0163,-261.155 1614.424,-270.1575"/>
<polygon fill="#191970" stroke="#191970" points="1610.93,-269.8972 1613.2022,-280.2455 1617.8792,-270.739 1610.93,-269.8972"/>
</g>
<!-- Node24 -->
<g id="node25" class="node">
<title>Node24</title>
<polygon fill="#ffffff" stroke="#bfbfbf" points="1177.4353,-168.5 1177.4353,-187.5 1224.4353,-187.5 1224.4353,-168.5 1177.4353,-168.5"/>
<text text-anchor="middle" x="1200.9353" y="-175.5" font-family="Helvetica,sans-Serif" font-size="10.00" fill="#000000">vector</text>
</g>
<!-- Node23&#45;&gt;Node24 -->
<g id="edge25" class="edge">
<title>Node23&#45;&gt;Node24</title>
<path fill="none" stroke="#191970" d="M1550.9226,-225.4364C1547.5441,-224.9458 1544.1955,-224.4638 1540.9353,-224 1428.8377,-208.0522 1295.7533,-190.4258 1234.6533,-182.4064"/>
<polygon fill="#191970" stroke="#191970" points="1234.8165,-178.8979 1224.4463,-181.0682 1233.9065,-185.8385 1234.8165,-178.8979"/>
</g>
<!-- Node25 -->
<g id="node26" class="node">
<title>Node25</title>
<g id="a_node26"><a xlink:href="TSchemaHelper_8h.html" target="_top" xlink:title="TSchemaHelper.h">
<polygon fill="#ffffff" stroke="#000000" points="1513.9353,-168.5 1513.9353,-187.5 1615.9353,-187.5 1615.9353,-168.5 1513.9353,-168.5"/>
<text text-anchor="middle" x="1564.9353" y="-175.5" font-family="Helvetica,sans-Serif" font-size="10.00" fill="#000000">TSchemaHelper.h</text>
</a>
</g>
</g>
<!-- Node23&#45;&gt;Node25 -->
<g id="edge26" class="edge">
<title>Node23&#45;&gt;Node25</title>
<path fill="none" stroke="#191970" d="M1600.4453,-224.2455C1594.4027,-216.3761 1585.745,-205.101 1578.4912,-195.6542"/>
<polygon fill="#191970" stroke="#191970" points="1581.2058,-193.4426 1572.3395,-187.6427 1575.6538,-197.7058 1581.2058,-193.4426"/>
</g>
<!-- Node25&#45;&gt;Node11 -->
<g id="edge27" class="edge">
<title>Node25&#45;&gt;Node11</title>
<path fill="none" stroke="#191970" d="M1564.9353,-168.2455C1564.9353,-160.9382 1564.9353,-150.6944 1564.9353,-141.7046"/>
<polygon fill="#191970" stroke="#191970" points="1568.4354,-141.6426 1564.9353,-131.6427 1561.4354,-141.6427 1568.4354,-141.6426"/>
</g>
<!-- Node25&#45;&gt;Node26 -->
<g id="edge28" class="edge">
<title>Node25&#45;&gt;Node26</title>
<path fill="none" stroke="#191970" d="M1513.6582,-173.9951C1374.7098,-163.1428 993.7906,-133.3918 880.2736,-124.5257"/>
<polygon fill="#191970" stroke="#191970" points="880.3821,-121.0236 870.1399,-123.7342 879.837,-128.0024 880.3821,-121.0236"/>
</g>
<!-- Node27&#45;&gt;Node11 -->
<g id="edge32" class="edge">
<title>Node27&#45;&gt;Node11</title>
<path fill="none" stroke="#191970" d="M1981.5679,-224.4649C1977.3481,-209.6581 1967.0215,-181.4443 1946.9353,-168 1919.988,-149.9634 1714.1491,-132.8236 1616.2987,-125.597"/>
<polygon fill="#191970" stroke="#191970" points="1616.2753,-122.086 1606.0465,-124.8469 1615.7644,-129.0673 1616.2753,-122.086"/>
</g>
<!-- Node27&#45;&gt;Node18 -->
<g id="edge33" class="edge">
<title>Node27&#45;&gt;Node18</title>
<path fill="none" stroke="#191970" d="M1947.6631,-224.3733C1908.5083,-213.9814 1846.5761,-197.5445 1807.9267,-187.2868"/>
<polygon fill="#191970" stroke="#191970" points="1808.7193,-183.8761 1798.156,-184.6936 1806.9236,-190.6418 1808.7193,-183.8761"/>
</g>
<!-- Node27&#45;&gt;Node21 -->
<g id="edge34" class="edge">
<title>Node27&#45;&gt;Node21</title>
<path fill="none" stroke="#191970" d="M1990.9028,-224.2455C1996.4664,-216.4564 2004.4133,-205.3308 2011.1182,-195.9439"/>
<polygon fill="#191970" stroke="#191970" points="2014.0833,-197.8144 2017.0477,-187.6427 2008.3872,-193.7457 2014.0833,-197.8144"/>
</g>
<!-- Node28 -->
<g id="node29" class="node">
<title>Node28</title>
<g id="a_node29"><a xlink:href="TVirtualIsAProxy_8h.html" target="_top" xlink:title="TVirtualIsAProxy.h">
<polygon fill="#ffffff" stroke="#000000" points="1833.4353,-168.5 1833.4353,-187.5 1938.4353,-187.5 1938.4353,-168.5 1833.4353,-168.5"/>
<text text-anchor="middle" x="1885.9353" y="-175.5" font-family="Helvetica,sans-Serif" font-size="10.00" fill="#000000">TVirtualIsAProxy.h</text>
</a>
</g>
</g>
<!-- Node27&#45;&gt;Node28 -->
<g id="edge31" class="edge">
<title>Node27&#45;&gt;Node28</title>
<path fill="none" stroke="#191970" d="M1966.865,-224.2455C1951.6883,-215.5731 1929.2732,-202.7645 1911.879,-192.825"/>
<polygon fill="#191970" stroke="#191970" points="1913.2289,-189.5653 1902.81,-187.6427 1909.7559,-195.643 1913.2289,-189.5653"/>
</g>
<!-- Node29&#45;&gt;Node9 -->
<g id="edge36" class="edge">
<title>Node29&#45;&gt;Node9</title>
<path fill="none" stroke="#191970" d="M1567.3278,-343.9173C1517.8847,-330.8123 1432.9353,-298.8589 1432.9353,-234 1432.9353,-234 1432.9353,-234 1432.9353,-122 1432.9353,-71.8615 1377.0223,-39.7644 1337.4311,-23.3216"/>
<polygon fill="#191970" stroke="#191970" points="1338.5968,-20.0186 1328.0113,-19.5723 1336.0081,-26.5223 1338.5968,-20.0186"/>
</g>
<!-- Node29&#45;&gt;Node10 -->
<g id="edge37" class="edge">
<title>Node29&#45;&gt;Node10</title>
<path fill="none" stroke="#191970" d="M1602.8728,-341.8906C1603.7045,-333.3657 1604.9461,-320.6392 1605.9916,-309.9235"/>
<polygon fill="#191970" stroke="#191970" points="1609.497,-310.0375 1606.9846,-299.7449 1602.53,-309.3577 1609.497,-310.0375"/>
</g>
<!-- Node30&#45;&gt;Node13 -->
<g id="edge39" class="edge">
<title>Node30&#45;&gt;Node13</title>
<path fill="none" stroke="#191970" d="M2304.8101,-57.788C2300.1277,-57.1302 2295.4459,-56.5201 2290.9353,-56 2072.7494,-30.8396 1810.768,-17.0496 1703.9113,-12.1174"/>
<polygon fill="#191970" stroke="#191970" points="1703.909,-8.6138 1693.7598,-11.6541 1703.5898,-15.6065 1703.909,-8.6138"/>
</g>
<!-- Node33&#45;&gt;Node10 -->
<g id="edge44" class="edge">
<title>Node33&#45;&gt;Node10</title>
<path fill="none" stroke="#191970" d="M1492.5901,-459.315C1501.5095,-436.418 1526.0181,-377.7414 1557.9353,-336 1566.3583,-324.9844 1577.5897,-314.3852 1587.2737,-306.143"/>
<polygon fill="#191970" stroke="#191970" points="1589.78,-308.6132 1595.2762,-299.5554 1585.3311,-303.2088 1589.78,-308.6132"/>
</g>
<!-- Node34&#45;&gt;Node19 -->
<g id="edge84" class="edge">
<title>Node34&#45;&gt;Node19</title>
<path fill="none" stroke="#191970" d="M1213.9524,-459.4152C1228.3817,-451.1247 1248.5231,-438.1113 1262.9353,-423 1314.3271,-369.1156 1354.716,-289.0884 1371.4928,-252.9389"/>
<polygon fill="#191970" stroke="#191970" points="1374.7942,-254.1346 1375.7586,-243.5837 1368.4251,-251.2303 1374.7942,-254.1346"/>
</g>
<!-- Node34&#45;&gt;Node26 -->
<g id="edge85" class="edge">
<title>Node34&#45;&gt;Node26</title>
<path fill="none" stroke="#191970" d="M1165.6027,-468.7287C1039.2148,-467.0385 555.5262,-454.842 436.9353,-367 408.6941,-346.0813 404.6468,-333.7764 394.9353,-300 385.397,-266.8258 385.8599,-247.7219 410.9353,-224 542.9783,-99.0846 635.2058,-178.0043 815.8722,-132.0386"/>
<polygon fill="#191970" stroke="#191970" points="816.8839,-135.3914 825.6557,-129.4494 815.093,-128.6244 816.8839,-135.3914"/>
</g>
<!-- Node34&#45;&gt;Node31 -->
<g id="edge83" class="edge">
<title>Node34&#45;&gt;Node31</title>
<path fill="none" stroke="#191970" d="M1226.0629,-459.952C1252.4172,-451.6214 1291.4514,-438.2672 1323.9353,-423 1359.4165,-406.3241 1398.0234,-382.4159 1421.8559,-366.9225"/>
<polygon fill="#191970" stroke="#191970" points="1424.0838,-369.6469 1430.5239,-361.234 1420.2431,-363.7946 1424.0838,-369.6469"/>
</g>
<!-- Node34&#45;&gt;Node32 -->
<g id="edge82" class="edge">
<title>Node34&#45;&gt;Node32</title>
<path fill="none" stroke="#191970" d="M1222.8875,-459.461C1243.9679,-451.3691 1273.5271,-438.6012 1296.9353,-423 1320.462,-407.3199 1343.7241,-384.4194 1358.4191,-368.7882"/>
<polygon fill="#191970" stroke="#191970" points="1361.07,-371.0764 1365.2787,-361.3534 1355.9252,-366.3297 1361.07,-371.0764"/>
</g>
<!-- Node35 -->
<g id="node36" class="node">
<title>Node35</title>
<g id="a_node36"><a xlink:href="TMathBase_8h.html" target="_top" xlink:title="TMathBase.h">
<polygon fill="#ffffff" stroke="#000000" points="445.9353,-342 445.9353,-361 525.9353,-361 525.9353,-342 445.9353,-342"/>
<text text-anchor="middle" x="485.9353" y="-349" font-family="Helvetica,sans-Serif" font-size="10.00" fill="#000000">TMathBase.h</text>
</a>
</g>
</g>
<!-- Node34&#45;&gt;Node35 -->
<g id="edge46" class="edge">
<title>Node34&#45;&gt;Node35</title>
<path fill="none" stroke="#191970" d="M1165.877,-467.9955C1091.2698,-465.0803 891.8722,-454.7034 728.9353,-423 654.1346,-408.4457 569.2589,-380.8345 522.2204,-364.5113"/>
<polygon fill="#191970" stroke="#191970" points="523.0909,-361.1079 512.496,-361.1101 520.7798,-367.7154 523.0909,-361.1079"/>
</g>
<!-- Node39 -->
<g id="node40" class="node">
<title>Node39</title>
<g id="a_node40"><a xlink:href="RStringView_8hxx.html" target="_top" xlink:title="ROOT/RStringView.hxx">
<polygon fill="#ffffff" stroke="#000000" points="738.4353,-403.5 738.4353,-422.5 865.4353,-422.5 865.4353,-403.5 738.4353,-403.5"/>
<text text-anchor="middle" x="801.9353" y="-410.5" font-family="Helvetica,sans-Serif" font-size="10.00" fill="#000000">ROOT/RStringView.hxx</text>
</a>
</g>
</g>
<!-- Node34&#45;&gt;Node39 -->
<g id="edge51" class="edge">
<title>Node34&#45;&gt;Node39</title>
<path fill="none" stroke="#191970" d="M1165.673,-464.6988C1104.14,-455.953 962.8865,-435.8763 875.6234,-423.4734"/>
<polygon fill="#191970" stroke="#191970" points="875.9134,-419.9796 865.5203,-422.0375 874.9283,-426.9099 875.9134,-419.9796"/>
</g>
<!-- Node46 -->
<g id="node47" class="node">
<title>Node46</title>
<g id="a_node47"><a xlink:href="TypeTraits_8hxx.html" target="_top" xlink:title="ROOT/TypeTraits.hxx">
<polygon fill="#ffffff" stroke="#000000" points="1137.4353,-403.5 1137.4353,-422.5 1254.4353,-422.5 1254.4353,-403.5 1137.4353,-403.5"/>
<text text-anchor="middle" x="1195.9353" y="-410.5" font-family="Helvetica,sans-Serif" font-size="10.00" fill="#000000">ROOT/TypeTraits.hxx</text>
</a>
</g>
</g>
<!-- Node34&#45;&gt;Node46 -->
<g id="edge67" class="edge">
<title>Node34&#45;&gt;Node46</title>
<path fill="none" stroke="#191970" d="M1195.9353,-459.2455C1195.9353,-451.9382 1195.9353,-441.6944 1195.9353,-432.7046"/>
<polygon fill="#191970" stroke="#191970" points="1199.4354,-432.6426 1195.9353,-422.6427 1192.4354,-432.6427 1199.4354,-432.6426"/>
</g>
<!-- Node35&#45;&gt;Node10 -->
<g id="edge47" class="edge">
<title>Node35&#45;&gt;Node10</title>
<path fill="none" stroke="#191970" d="M526.0354,-348.8859C575.2375,-345.7056 661.2086,-340.237 734.9353,-336 1056.2682,-317.5333 1444.3059,-298.0951 1568.0217,-291.9675"/>
<polygon fill="#191970" stroke="#191970" points="1568.3425,-295.456 1578.1573,-291.466 1567.9965,-288.4646 1568.3425,-295.456"/>
</g>
<!-- Node36 -->
<g id="node37" class="node">
<title>Node36</title>
<polygon fill="#ffffff" stroke="#bfbfbf" points="411.4353,-280.5 411.4353,-299.5 460.4353,-299.5 460.4353,-280.5 411.4353,-280.5"/>
<text text-anchor="middle" x="435.9353" y="-287.5" font-family="Helvetica,sans-Serif" font-size="10.00" fill="#000000">cstdlib</text>
</g>
<!-- Node35&#45;&gt;Node36 -->
<g id="edge48" class="edge">
<title>Node35&#45;&gt;Node36</title>
<path fill="none" stroke="#191970" d="M478.1228,-341.8906C470.6813,-332.7376 459.3019,-318.7409 450.2361,-307.59"/>
<polygon fill="#191970" stroke="#191970" points="452.882,-305.2962 443.858,-299.7449 447.4506,-309.712 452.882,-305.2962"/>
</g>
<!-- Node37 -->
<g id="node38" class="node">
<title>Node37</title>
<polygon fill="#ffffff" stroke="#bfbfbf" points="478.4353,-280.5 478.4353,-299.5 525.4353,-299.5 525.4353,-280.5 478.4353,-280.5"/>
<text text-anchor="middle" x="501.9353" y="-287.5" font-family="Helvetica,sans-Serif" font-size="10.00" fill="#000000">cmath</text>
</g>
<!-- Node35&#45;&gt;Node37 -->
<g id="edge49" class="edge">
<title>Node35&#45;&gt;Node37</title>
<path fill="none" stroke="#191970" d="M488.4353,-341.8906C490.6765,-333.276 494.034,-320.3708 496.8398,-309.5858"/>
<polygon fill="#191970" stroke="#191970" points="500.2694,-310.304 499.4001,-299.7449 493.4949,-308.5414 500.2694,-310.304"/>
</g>
<!-- Node38 -->
<g id="node39" class="node">
<title>Node38</title>
<polygon fill="#ffffff" stroke="#bfbfbf" points="419.9353,-224.5 419.9353,-243.5 483.9353,-243.5 483.9353,-224.5 419.9353,-224.5"/>
<text text-anchor="middle" x="451.9353" y="-231.5" font-family="Helvetica,sans-Serif" font-size="10.00" fill="#000000">algorithm</text>
</g>
<!-- Node35&#45;&gt;Node38 -->
<g id="edge50" class="edge">
<title>Node35&#45;&gt;Node38</title>
<path fill="none" stroke="#191970" d="M456.1978,-341.8901C436.9761,-333.9537 413.4676,-320.5976 401.9353,-300 391.5549,-281.4598 409.8308,-262.3264 427.1317,-249.4657"/>
<polygon fill="#191970" stroke="#191970" points="429.2175,-252.2781 435.4167,-243.6862 425.2126,-246.537 429.2175,-252.2781"/>
</g>
<!-- Node39&#45;&gt;Node9 -->
<g id="edge52" class="edge">
<title>Node39&#45;&gt;Node9</title>
<path fill="none" stroke="#191970" d="M780.6701,-403.4401C739.218,-384.6499 644.9259,-341.1451 567.9353,-300 552.4732,-291.7368 550.0263,-286.9598 533.9353,-280 481.6559,-257.3878 462.3245,-268.5681 410.9353,-244 364.5518,-221.825 315.9353,-229.4117 315.9353,-178 315.9353,-178 315.9353,-178 315.9353,-122 315.9353,-26.9757 1050.4479,-12.5444 1249.624,-10.3779"/>
<polygon fill="#191970" stroke="#191970" points="1249.8306,-13.876 1259.7939,-10.273 1249.7583,-6.8764 1249.8306,-13.876"/>
</g>
<!-- Node40 -->
<g id="node41" class="node">
<title>Node40</title>
<g id="a_node41"><a xlink:href="RWrap__libcpp__string__view_8h.html" target="_top" xlink:title="RWrap_libcpp_string\l_view.h">
<polygon fill="#ffffff" stroke="#000000" points="744.4353,-336.5 744.4353,-366.5 859.4353,-366.5 859.4353,-336.5 744.4353,-336.5"/>
<text text-anchor="start" x="752.4353" y="-354.5" font-family="Helvetica,sans-Serif" font-size="10.00" fill="#000000">RWrap_libcpp_string</text>
<text text-anchor="middle" x="801.9353" y="-343.5" font-family="Helvetica,sans-Serif" font-size="10.00" fill="#000000">_view.h</text>
</a>
</g>
</g>
<!-- Node39&#45;&gt;Node40 -->
<g id="edge53" class="edge">
<title>Node39&#45;&gt;Node40</title>
<path fill="none" stroke="#191970" d="M801.9353,-403.3906C801.9353,-396.2234 801.9353,-386.0862 801.9353,-376.671"/>
<polygon fill="#191970" stroke="#191970" points="805.4354,-376.5446 801.9353,-366.5446 798.4354,-376.5446 805.4354,-376.5446"/>
</g>
<!-- Node40&#45;&gt;Node26 -->
<g id="edge54" class="edge">
<title>Node40&#45;&gt;Node26</title>
<path fill="none" stroke="#191970" d="M833.1307,-336.3802C847.1018,-327.8126 862.157,-315.6483 869.9353,-300 883.5835,-272.543 863.2119,-181.9847 853.0865,-141.6642"/>
<polygon fill="#191970" stroke="#191970" points="856.4648,-140.7476 850.594,-131.9281 849.6835,-142.4838 856.4648,-140.7476"/>
</g>
<!-- Node40&#45;&gt;Node38 -->
<g id="edge55" class="edge">
<title>Node40&#45;&gt;Node38</title>
<path fill="none" stroke="#191970" d="M744.2408,-339.9728C704.6093,-331.1806 651.1894,-317.5895 605.9353,-300 588.1465,-293.0858 585.2752,-287.9735 567.9353,-280 541.5844,-267.8829 511.0706,-255.8591 487.9543,-247.1449"/>
<polygon fill="#191970" stroke="#191970" points="489.1264,-243.8465 478.5339,-243.6222 486.6745,-250.4031 489.1264,-243.8465"/>
</g>
<!-- Node40&#45;&gt;Node41 -->
<g id="edge56" class="edge">
<title>Node40&#45;&gt;Node41</title>
<path fill="none" stroke="#191970" d="M810.8271,-336.3529C818.5521,-321.0062 826.9219,-297.147 815.9353,-280 808.4849,-268.3719 777.5711,-255.2109 752.0632,-245.9546"/>
<polygon fill="#191970" stroke="#191970" points="753.2068,-242.6467 742.612,-242.6096 750.8712,-249.2455 753.2068,-242.6467"/>
</g>
<!-- Node42 -->
<g id="node43" class="node">
<title>Node42</title>
<polygon fill="#ffffff" stroke="#bfbfbf" points="614.4353,-224.5 614.4353,-243.5 671.4353,-243.5 671.4353,-224.5 614.4353,-224.5"/>
<text text-anchor="middle" x="642.9353" y="-231.5" font-family="Helvetica,sans-Serif" font-size="10.00" fill="#000000">ostream</text>
</g>
<!-- Node40&#45;&gt;Node42 -->
<g id="edge57" class="edge">
<title>Node40&#45;&gt;Node42</title>
<path fill="none" stroke="#191970" d="M801.9394,-336.3694C801.125,-320.3536 797.3939,-295.3183 782.9353,-280 775.7416,-272.3785 720.4006,-255.668 681.4946,-244.626"/>
<polygon fill="#191970" stroke="#191970" points="682.0787,-241.1544 671.5043,-241.8122 680.1809,-247.8922 682.0787,-241.1544"/>
</g>
<!-- Node43 -->
<g id="node44" class="node">
<title>Node43</title>
<polygon fill="#ffffff" stroke="#bfbfbf" points="501.9353,-224.5 501.9353,-243.5 557.9353,-243.5 557.9353,-224.5 501.9353,-224.5"/>
<text text-anchor="middle" x="529.9353" y="-231.5" font-family="Helvetica,sans-Serif" font-size="10.00" fill="#000000">iomanip</text>
</g>
<!-- Node40&#45;&gt;Node43 -->
<g id="edge58" class="edge">
<title>Node40&#45;&gt;Node43</title>
<path fill="none" stroke="#191970" d="M749.3458,-336.3938C719.4095,-327.1556 681.5004,-314.3687 648.9353,-300 614.78,-284.9297 577.4485,-263.3163 553.8762,-248.98"/>
<polygon fill="#191970" stroke="#191970" points="555.6093,-245.9371 545.256,-243.6879 551.9469,-251.9026 555.6093,-245.9371"/>
</g>
<!-- Node44 -->
<g id="node45" class="node">
<title>Node44</title>
<polygon fill="#ffffff" stroke="#bfbfbf" points="760.4353,-224.5 760.4353,-243.5 825.4353,-243.5 825.4353,-224.5 760.4353,-224.5"/>
<text text-anchor="middle" x="792.9353" y="-231.5" font-family="Helvetica,sans-Serif" font-size="10.00" fill="#000000">stdexcept</text>
</g>
<!-- Node40&#45;&gt;Node44 -->
<g id="edge59" class="edge">
<title>Node40&#45;&gt;Node44</title>
<path fill="none" stroke="#191970" d="M825.502,-336.2978C843.7902,-322.4524 864.4101,-301.0183 853.9353,-280 847.335,-266.756 834.9026,-256.3192 822.9748,-248.7581"/>
<polygon fill="#191970" stroke="#191970" points="824.4552,-245.5691 814.0569,-243.5378 820.9189,-251.6102 824.4552,-245.5691"/>
</g>
<!-- Node45 -->
<g id="node46" class="node">
<title>Node45</title>
<g id="a_node46"><a xlink:href="libcpp__string__view_8h.html" target="_top" xlink:title="libcpp_string_view.h">
<polygon fill="#ffffff" stroke="#000000" points="657.9353,-280.5 657.9353,-299.5 773.9353,-299.5 773.9353,-280.5 657.9353,-280.5"/>
<text text-anchor="middle" x="715.9353" y="-287.5" font-family="Helvetica,sans-Serif" font-size="10.00" fill="#000000">libcpp_string_view.h</text>
</a>
</g>
</g>
<!-- Node40&#45;&gt;Node45 -->
<g id="edge60" class="edge">
<title>Node40&#45;&gt;Node45</title>
<path fill="none" stroke="#191970" d="M780.6769,-336.2977C767.6636,-326.9917 751.045,-315.1075 737.9036,-305.7099"/>
<polygon fill="#191970" stroke="#191970" points="739.6183,-302.6332 729.4482,-299.6633 735.5464,-308.3271 739.6183,-302.6332"/>
</g>
<!-- Node45&#45;&gt;Node26 -->
<g id="edge61" class="edge">
<title>Node45&#45;&gt;Node26</title>
<path fill="none" stroke="#191970" d="M667.2659,-280.4181C629.3026,-270.5619 585.9451,-252.5665 604.9353,-224 617.3476,-205.3285 753.2142,-155.4509 816.2057,-133.1012"/>
<polygon fill="#191970" stroke="#191970" points="817.3978,-136.3922 825.6597,-129.7596 815.0649,-129.7923 817.3978,-136.3922"/>
</g>
<!-- Node45&#45;&gt;Node38 -->
<g id="edge62" class="edge">
<title>Node45&#45;&gt;Node38</title>
<path fill="none" stroke="#191970" d="M667.1053,-280.4505C624.0631,-271.9149 559.4079,-258.8085 494.1849,-244.2267"/>
<polygon fill="#191970" stroke="#191970" points="494.6627,-240.7469 484.1387,-241.9698 493.1283,-247.5767 494.6627,-240.7469"/>
</g>
<!-- Node45&#45;&gt;Node41 -->
<g id="edge63" class="edge">
<title>Node45&#45;&gt;Node41</title>
<path fill="none" stroke="#191970" d="M715.9353,-280.2455C715.9353,-272.9382 715.9353,-262.6944 715.9353,-253.7046"/>
<polygon fill="#191970" stroke="#191970" points="719.4354,-253.6426 715.9353,-243.6427 712.4354,-253.6427 719.4354,-253.6426"/>
</g>
<!-- Node45&#45;&gt;Node42 -->
<g id="edge64" class="edge">
<title>Node45&#45;&gt;Node42</title>
<path fill="none" stroke="#191970" d="M703.2197,-280.2455C692.3333,-271.8943 676.447,-259.7076 663.7153,-249.9408"/>
<polygon fill="#191970" stroke="#191970" points="665.5699,-246.9523 655.5052,-243.6427 661.3092,-252.5063 665.5699,-246.9523"/>
</g>
<!-- Node45&#45;&gt;Node43 -->
<g id="edge65" class="edge">
<title>Node45&#45;&gt;Node43</title>
<path fill="none" stroke="#191970" d="M683.9608,-280.3733C651.7241,-270.6676 601.9728,-255.6887 567.7863,-245.396"/>
<polygon fill="#191970" stroke="#191970" points="568.7337,-242.0261 558.1492,-242.4945 566.7156,-248.7289 568.7337,-242.0261"/>
</g>
<!-- Node45&#45;&gt;Node44 -->
<g id="edge66" class="edge">
<title>Node45&#45;&gt;Node44</title>
<path fill="none" stroke="#191970" d="M729.3477,-280.2455C740.941,-271.814 757.9101,-259.4729 771.4031,-249.6598"/>
<polygon fill="#191970" stroke="#191970" points="773.6479,-252.355 779.6766,-243.6427 769.5306,-246.6938 773.6479,-252.355"/>
</g>
<!-- Node46&#45;&gt;Node22 -->
<g id="edge69" class="edge">
<title>Node46&#45;&gt;Node22</title>
<path fill="none" stroke="#191970" d="M1200.1231,-403.174C1204.0488,-393.8906 1210.0316,-379.5556 1214.9353,-367 1230.6017,-326.8877 1247.7469,-279.4655 1257.0282,-253.4719"/>
<polygon fill="#191970" stroke="#191970" points="1260.4406,-254.3222 1260.4972,-243.7275 1253.8461,-251.9745 1260.4406,-254.3222"/>
</g>
<!-- Node46&#45;&gt;Node24 -->
<g id="edge70" class="edge">
<title>Node46&#45;&gt;Node24</title>
<path fill="none" stroke="#191970" d="M1196.1375,-403.4967C1196.8834,-368.4391 1199.4904,-245.9096 1200.5162,-197.7"/>
<polygon fill="#191970" stroke="#191970" points="1204.017,-197.6938 1200.7306,-187.6216 1197.0186,-197.5448 1204.017,-197.6938"/>
</g>
<!-- Node46&#45;&gt;Node47 -->
<g id="edge68" class="edge">
<title>Node46&#45;&gt;Node47</title>
<path fill="none" stroke="#191970" d="M1209.8577,-403.2346C1234.6872,-386.3669 1288.8124,-352.0426 1339.9353,-336 1470.5912,-294.9995 1510.0524,-316.9656 1645.9353,-300 1834.5518,-276.4503 1881.5285,-269.1721 2069.9353,-244 2081.2492,-242.4884 2093.5341,-240.8337 2104.7837,-239.3131"/>
<polygon fill="#191970" stroke="#191970" points="2105.3262,-242.7717 2114.7665,-237.9623 2104.3875,-235.8349 2105.3262,-242.7717"/>
</g>
<!-- Node48 -->
<g id="node49" class="node">
<title>Node48</title>
<g id="a_node49"><a xlink:href="RSpan_8hxx.html" target="_top" xlink:title="ROOT/RSpan.hxx">
<polygon fill="#ffffff" stroke="#000000" points="1016.4353,-342 1016.4353,-361 1115.4353,-361 1115.4353,-342 1016.4353,-342"/>
<text text-anchor="middle" x="1065.9353" y="-349" font-family="Helvetica,sans-Serif" font-size="10.00" fill="#000000">ROOT/RSpan.hxx</text>
</a>
</g>
</g>
<!-- Node46&#45;&gt;Node48 -->
<g id="edge71" class="edge">
<title>Node46&#45;&gt;Node48</title>
<path fill="none" stroke="#191970" d="M1175.6228,-403.3906C1154.0622,-393.1908 1119.7876,-376.9763 1095.291,-365.3875"/>
<polygon fill="#191970" stroke="#191970" points="1096.6414,-362.1545 1086.1052,-361.0419 1093.6479,-368.4822 1096.6414,-362.1545"/>
</g>
<!-- Node48&#45;&gt;Node9 -->
<g id="edge72" class="edge">
<title>Node48&#45;&gt;Node9</title>
<path fill="none" stroke="#191970" d="M1051.649,-341.7632C1021.0611,-320.5701 951.0264,-270.0756 938.9353,-244 935.196,-235.9359 934.5399,-231.7261 938.9353,-224 1006.4092,-105.3953 1168.4278,-45.6779 1250.1082,-22.2494"/>
<polygon fill="#191970" stroke="#191970" points="1251.2125,-25.5749 1259.8966,-19.5057 1249.3231,-18.8347 1251.2125,-25.5749"/>
</g>
<!-- Node49 -->
<g id="node50" class="node">
<title>Node49</title>
<g id="a_node50"><a xlink:href="span_8hxx.html" target="_top" xlink:title="ROOT/span.hxx">
<polygon fill="#ffffff" stroke="#000000" points="1019.9353,-280.5 1019.9353,-299.5 1111.9353,-299.5 1111.9353,-280.5 1019.9353,-280.5"/>
<text text-anchor="middle" x="1065.9353" y="-287.5" font-family="Helvetica,sans-Serif" font-size="10.00" fill="#000000">ROOT/span.hxx</text>
</a>
</g>
</g>
<!-- Node48&#45;&gt;Node49 -->
<g id="edge73" class="edge">
<title>Node48&#45;&gt;Node49</title>
<path fill="none" stroke="#191970" d="M1065.9353,-341.8906C1065.9353,-333.3657 1065.9353,-320.6392 1065.9353,-309.9235"/>
<polygon fill="#191970" stroke="#191970" points="1069.4354,-309.7448 1065.9353,-299.7449 1062.4354,-309.7449 1069.4354,-309.7448"/>
</g>
<!-- Node49&#45;&gt;Node22 -->
<g id="edge80" class="edge">
<title>Node49&#45;&gt;Node22</title>
<path fill="none" stroke="#191970" d="M1099.9727,-280.3733C1133.3247,-270.9404 1184.2881,-256.5265 1220.5355,-246.2747"/>
<polygon fill="#191970" stroke="#191970" points="1221.6721,-249.5906 1230.3421,-243.5011 1219.767,-242.8548 1221.6721,-249.5906"/>
</g>
<!-- Node49&#45;&gt;Node24 -->
<g id="edge77" class="edge">
<title>Node49&#45;&gt;Node24</title>
<path fill="none" stroke="#191970" d="M1019.622,-281.3919C977.3631,-271.506 924.8869,-252.8356 948.9353,-224 976.3328,-191.1487 1104.8531,-181.6945 1167.0481,-179.0242"/>
<polygon fill="#191970" stroke="#191970" points="1167.2898,-182.5175 1177.1439,-178.6257 1167.0136,-175.523 1167.2898,-182.5175"/>
</g>
<!-- Node49&#45;&gt;Node41 -->
<g id="edge75" class="edge">
<title>Node49&#45;&gt;Node41</title>
<path fill="none" stroke="#191970" d="M1019.6847,-285.201C959.9624,-278.5741 852.6921,-265.2154 752.572,-244.1442"/>
<polygon fill="#191970" stroke="#191970" points="753.1064,-240.6795 742.5959,-242.0135 751.6442,-247.5251 753.1064,-240.6795"/>
</g>
<!-- Node49&#45;&gt;Node44 -->
<g id="edge78" class="edge">
<title>Node49&#45;&gt;Node44</title>
<path fill="none" stroke="#191970" d="M1019.9333,-280.5637C968.4697,-270.0071 885.7699,-253.043 835.6738,-242.7669"/>
<polygon fill="#191970" stroke="#191970" points="836.3044,-239.3234 825.805,-240.7425 834.8977,-246.1806 836.3044,-239.3234"/>
</g>
<!-- Node49&#45;&gt;Node47 -->
<g id="edge79" class="edge">
<title>Node49&#45;&gt;Node47</title>
<path fill="none" stroke="#191970" d="M1112.078,-288.4351C1250.8542,-283.5911 1676.5654,-267.7273 2028.9353,-244 2054.1373,-242.303 2082.3992,-239.853 2104.5991,-237.8028"/>
<polygon fill="#191970" stroke="#191970" points="2105.0232,-241.2786 2114.6542,-236.8634 2104.372,-234.3089 2105.0232,-241.2786"/>
</g>
<!-- Node50 -->
<g id="node51" class="node">
<title>Node50</title>
<polygon fill="#ffffff" stroke="#bfbfbf" points="1119.4353,-224.5 1119.4353,-243.5 1172.4353,-243.5 1172.4353,-224.5 1119.4353,-224.5"/>
<text text-anchor="middle" x="1145.9353" y="-231.5" font-family="Helvetica,sans-Serif" font-size="10.00" fill="#000000">cstddef</text>
</g>
<!-- Node49&#45;&gt;Node50 -->
<g id="edge74" class="edge">
<title>Node49&#45;&gt;Node50</title>
<path fill="none" stroke="#191970" d="M1079.8703,-280.2455C1092.03,-271.7337 1109.8818,-259.2375 1123.9638,-249.3801"/>
<polygon fill="#191970" stroke="#191970" points="1125.9749,-252.2447 1132.1601,-243.6427 1121.9606,-246.51 1125.9749,-252.2447"/>
</g>
<!-- Node51 -->
<g id="node52" class="node">
<title>Node51</title>
<polygon fill="#ffffff" stroke="#bfbfbf" points="957.9353,-224.5 957.9353,-243.5 999.9353,-243.5 999.9353,-224.5 957.9353,-224.5"/>
<text text-anchor="middle" x="978.9353" y="-231.5" font-family="Helvetica,sans-Serif" font-size="10.00" fill="#000000">array</text>
</g>
<!-- Node49&#45;&gt;Node51 -->
<g id="edge76" class="edge">
<title>Node49&#45;&gt;Node51</title>
<path fill="none" stroke="#191970" d="M1050.7811,-280.2455C1037.4326,-271.6534 1017.7767,-259.0014 1002.3971,-249.1018"/>
<polygon fill="#191970" stroke="#191970" points="1004.2189,-246.1121 993.9159,-243.6427 1000.4302,-251.9982 1004.2189,-246.1121"/>
</g>
<!-- Node52 -->
<g id="node53" class="node">
<title>Node52</title>
<polygon fill="#ffffff" stroke="#bfbfbf" points="1018.4353,-224.5 1018.4353,-243.5 1101.4353,-243.5 1101.4353,-224.5 1018.4353,-224.5"/>
<text text-anchor="middle" x="1059.9353" y="-231.5" font-family="Helvetica,sans-Serif" font-size="10.00" fill="#000000">initializer_list</text>
</g>
<!-- Node49&#45;&gt;Node52 -->
<g id="edge81" class="edge">
<title>Node49&#45;&gt;Node52</title>
<path fill="none" stroke="#191970" d="M1064.8902,-280.2455C1064.1073,-272.9382 1063.0097,-262.6944 1062.0465,-253.7046"/>
<polygon fill="#191970" stroke="#191970" points="1065.514,-253.2129 1060.9685,-243.6427 1058.5538,-253.9587 1065.514,-253.2129"/>
</g>
<!-- Node53&#45;&gt;Node54 -->
<g id="edge87" class="edge">
<title>Node53&#45;&gt;Node54</title>
<path fill="none" stroke="#191970" d="M1917.9416,-515.2455C1921.0088,-507.7776 1925.3356,-497.2427 1929.085,-488.1137"/>
<polygon fill="#191970" stroke="#191970" points="1932.4133,-489.2226 1932.9749,-478.6427 1925.9381,-486.5631 1932.4133,-489.2226"/>
</g>
<!-- Node54&#45;&gt;Node8 -->
<g id="edge88" class="edge">
<title>Node54&#45;&gt;Node8</title>
<path fill="none" stroke="#191970" d="M1889.6485,-461.0953C1823.8727,-450.1 1705.8239,-430.3664 1643.3428,-419.9218"/>
<polygon fill="#191970" stroke="#191970" points="1643.8833,-416.4637 1633.4431,-418.267 1642.7291,-423.3679 1643.8833,-416.4637"/>
</g>
<!-- Node54&#45;&gt;Node47 -->
<g id="edge89" class="edge">
<title>Node54&#45;&gt;Node47</title>
<path fill="none" stroke="#191970" d="M1945.3063,-459.4967C1976.708,-423.8474 2087.7822,-297.7487 2128.6761,-251.3233"/>
<polygon fill="#191970" stroke="#191970" points="2131.4766,-253.4391 2135.4601,-243.6216 2126.2238,-248.8121 2131.4766,-253.4391"/>
</g>
<!-- Node57 -->
<g id="node58" class="node">
<title>Node57</title>
<g id="a_node58"><a xlink:href="TNamed_8h.html" target="_top" xlink:title="TNamed.h">
<polygon fill="#ffffff" stroke="#000000" points="1568.4353,-571.5 1568.4353,-590.5 1635.4353,-590.5 1635.4353,-571.5 1568.4353,-571.5"/>
<text text-anchor="middle" x="1601.9353" y="-578.5" font-family="Helvetica,sans-Serif" font-size="10.00" fill="#000000">TNamed.h</text>
</a>
</g>
</g>
<!-- Node56&#45;&gt;Node57 -->
<g id="edge95" class="edge">
<title>Node56&#45;&gt;Node57</title>
<path fill="none" stroke="#191970" d="M1715.3842,-627.3733C1693.0963,-618.2629 1659.4417,-604.5062 1634.5716,-594.3404"/>
<polygon fill="#191970" stroke="#191970" points="1635.76,-591.0451 1625.1791,-590.5011 1633.1114,-597.5247 1635.76,-591.0451"/>
</g>
<!-- Node58 -->
<g id="node59" class="node">
<title>Node58</title>
<g id="a_node59"><a xlink:href="ESTLType_8h.html" target="_top" xlink:title="ESTLType.h">
<polygon fill="#ffffff" stroke="#000000" points="1703.9353,-571.5 1703.9353,-590.5 1773.9353,-590.5 1773.9353,-571.5 1703.9353,-571.5"/>
<text text-anchor="middle" x="1738.9353" y="-578.5" font-family="Helvetica,sans-Serif" font-size="10.00" fill="#000000">ESTLType.h</text>
</a>
</g>
</g>
<!-- Node56&#45;&gt;Node58 -->
<g id="edge98" class="edge">
<title>Node56&#45;&gt;Node58</title>
<path fill="none" stroke="#191970" d="M1738.9353,-627.2455C1738.9353,-619.9382 1738.9353,-609.6944 1738.9353,-600.7046"/>
<polygon fill="#191970" stroke="#191970" points="1742.4354,-600.6426 1738.9353,-590.6427 1735.4354,-600.6427 1742.4354,-600.6426"/>
</g>
<!-- Node57&#45;&gt;Node8 -->
<g id="edge96" class="edge">
<title>Node57&#45;&gt;Node8</title>
<path fill="none" stroke="#191970" d="M1601.9353,-571.4862C1601.9353,-544.9293 1601.9353,-469.5651 1601.9353,-433.1655"/>
<polygon fill="#191970" stroke="#191970" points="1605.4354,-432.8278 1601.9353,-422.8279 1598.4354,-432.8279 1605.4354,-432.8278"/>
</g>
<!-- Node57&#45;&gt;Node34 -->
<g id="edge97" class="edge">
<title>Node57&#45;&gt;Node34</title>
<path fill="none" stroke="#191970" d="M1578.883,-571.4804C1544.5201,-557.5676 1477.6103,-531.5411 1418.9353,-515 1355.9286,-497.2377 1281.1227,-483.2067 1236.1481,-475.5123"/>
<polygon fill="#191970" stroke="#191970" points="1236.6444,-472.0467 1226.2009,-473.8308 1235.4776,-478.9487 1236.6444,-472.0467"/>
</g>
<!-- Node59&#45;&gt;Node18 -->
<g id="edge113" class="edge">
<title>Node59&#45;&gt;Node18</title>
<path fill="none" stroke="#191970" d="M285.1318,-739.2066C279.8466,-719.8521 268.9353,-675.2612 268.9353,-637 268.9353,-637 268.9353,-637 268.9353,-351.5 268.9353,-309.0909 371.5617,-239.7558 410.9353,-224 536.2246,-173.864 1490.1462,-194.5499 1624.9353,-188 1663.5917,-186.1216 1707.8652,-183.0024 1737.8394,-180.7466"/>
<polygon fill="#191970" stroke="#191970" points="1738.107,-184.2365 1747.8127,-179.9881 1737.5761,-177.2566 1738.107,-184.2365"/>
</g>
<!-- Node59&#45;&gt;Node24 -->
<g id="edge112" class="edge">
<title>Node59&#45;&gt;Node24</title>
<path fill="none" stroke="#191970" d="M279.0291,-739.3544C262.9978,-720.945 230.9353,-678.8901 230.9353,-637 230.9353,-637 230.9353,-637 230.9353,-351.5 230.9353,-265.0156 293.9614,-244.6867 377.9353,-224 531.317,-186.2149 1032.2251,-179.3898 1167.1828,-178.2269"/>
<polygon fill="#191970" stroke="#191970" points="1167.3567,-181.7257 1177.3279,-178.1444 1167.2997,-174.726 1167.3567,-181.7257"/>
</g>
<!-- Node59&#45;&gt;Node26 -->
<g id="edge109" class="edge">
<title>Node59&#45;&gt;Node26</title>
<path fill="none" stroke="#191970" d="M259.1976,-747.8341C197.4615,-744.749 54.9302,-734.3327 19.9353,-703 -2.8059,-682.6386 .9353,-667.5246 .9353,-637 .9353,-637 .9353,-637 .9353,-234 .9353,-132.4904 352.1776,-180.332 452.9353,-168 610.9891,-148.6554 655.9494,-164.4654 815.559,-131.8978"/>
<polygon fill="#191970" stroke="#191970" points="816.6559,-135.2449 825.7372,-129.7877 815.2349,-128.3906 816.6559,-135.2449"/>
</g>
<!-- Node59&#45;&gt;Node34 -->
<g id="edge101" class="edge">
<title>Node59&#45;&gt;Node34</title>
<path fill="none" stroke="#191970" d="M295.8463,-739.1329C307.7274,-724.9033 331.5115,-698.6192 356.9353,-683 420.7722,-643.7816 444.1151,-648.333 515.9353,-627 755.4309,-555.8618 1050.1297,-496.8438 1155.8474,-476.5514"/>
<polygon fill="#191970" stroke="#191970" points="1156.6061,-479.9698 1165.7708,-474.654 1155.2914,-473.0944 1156.6061,-479.9698"/>
</g>
<!-- Node59&#45;&gt;Node56 -->
<g id="edge100" class="edge">
<title>Node59&#45;&gt;Node56</title>
<path fill="none" stroke="#191970" d="M316.5471,-748.4486C492.0622,-745.0001 1419.6579,-725.8052 1543.9353,-703 1603.7962,-692.0154 1670.2996,-666.4423 1708.1232,-650.5486"/>
<polygon fill="#191970" stroke="#191970" points="1709.7198,-653.673 1717.5509,-646.5369 1706.9789,-647.2318 1709.7198,-653.673"/>
</g>
<!-- Node60 -->
<g id="node61" class="node">
<title>Node60</title>
<g id="a_node61"><a xlink:href="TObjArray_8h.html" target="_top" xlink:title="TObjArray.h">
<polygon fill="#ffffff" stroke="#000000" points="411.4353,-683.5 411.4353,-702.5 484.4353,-702.5 484.4353,-683.5 411.4353,-683.5"/>
<text text-anchor="middle" x="447.9353" y="-690.5" font-family="Helvetica,sans-Serif" font-size="10.00" fill="#000000">TObjArray.h</text>
</a>
</g>
</g>
<!-- Node59&#45;&gt;Node60 -->
<g id="edge102" class="edge">
<title>Node59&#45;&gt;Node60</title>
<path fill="none" stroke="#191970" d="M315.4403,-739.3733C341.8155,-730.1419 381.8205,-716.1402 410.9711,-705.9375"/>
<polygon fill="#191970" stroke="#191970" points="412.5069,-709.1082 420.7893,-702.5011 410.1944,-702.5012 412.5069,-709.1082"/>
</g>
<!-- Node61 -->
<g id="node62" class="node">
<title>Node61</title>
<g id="a_node62"><a xlink:href="TObjString_8h.html" target="_top" xlink:title="TObjString.h">
<polygon fill="#ffffff" stroke="#000000" points="1258.4353,-515.5 1258.4353,-534.5 1335.4353,-534.5 1335.4353,-515.5 1258.4353,-515.5"/>
<text text-anchor="middle" x="1296.9353" y="-522.5" font-family="Helvetica,sans-Serif" font-size="10.00" fill="#000000">TObjString.h</text>
</a>
</g>
</g>
<!-- Node59&#45;&gt;Node61 -->
<g id="edge105" class="edge">
<title>Node59&#45;&gt;Node61</title>
<path fill="none" stroke="#191970" d="M300.867,-739.459C321.2583,-724.9051 362.6185,-697.3413 401.9353,-683 711.0959,-570.2296 1110.5645,-536.3366 1247.9837,-527.6483"/>
<polygon fill="#191970" stroke="#191970" points="1248.4183,-531.1282 1258.1841,-527.0196 1247.9877,-524.1415 1248.4183,-531.1282"/>
</g>
<!-- Node62 -->
<g id="node63" class="node">
<title>Node62</title>
<polygon fill="#ffffff" stroke="#bfbfbf" points="1669.9353,-683.5 1669.9353,-702.5 1707.9353,-702.5 1707.9353,-683.5 1669.9353,-683.5"/>
<text text-anchor="middle" x="1688.9353" y="-690.5" font-family="Helvetica,sans-Serif" font-size="10.00" fill="#000000">map</text>
</g>
<!-- Node59&#45;&gt;Node62 -->
<g id="edge108" class="edge">
<title>Node59&#45;&gt;Node62</title>
<path fill="none" stroke="#191970" d="M316.5646,-748.5537C455.4618,-746.2682 1073.0236,-734.7227 1577.9353,-703 1605.6493,-701.2588 1637.1752,-698.327 1659.529,-696.0868"/>
<polygon fill="#191970" stroke="#191970" points="1660.1147,-699.5454 1669.709,-695.0509 1659.406,-692.5814 1660.1147,-699.5454"/>
</g>
<!-- Node63 -->
<g id="node64" class="node">
<title>Node63</title>
<polygon fill="#ffffff" stroke="#bfbfbf" points="28.9353,-683.5 28.9353,-702.5 60.9353,-702.5 60.9353,-683.5 28.9353,-683.5"/>
<text text-anchor="middle" x="44.9353" y="-690.5" font-family="Helvetica,sans-Serif" font-size="10.00" fill="#000000">set</text>
</g>
<!-- Node59&#45;&gt;Node63 -->
<g id="edge110" class="edge">
<title>Node59&#45;&gt;Node63</title>
<path fill="none" stroke="#191970" d="M259.3212,-744.5833C219.0812,-738.025 143.4326,-724.4269 70.9393,-702.9184"/>
<polygon fill="#191970" stroke="#191970" points="71.7824,-699.5169 61.1974,-699.9734 69.7568,-706.2174 71.7824,-699.5169"/>
</g>
<!-- Node64 -->
<g id="node65" class="node">
<title>Node64</title>
<polygon fill="#ffffff" stroke="#bfbfbf" points="78.9353,-683.5 78.9353,-702.5 164.9353,-702.5 164.9353,-683.5 78.9353,-683.5"/>
<text text-anchor="middle" x="121.9353" y="-690.5" font-family="Helvetica,sans-Serif" font-size="10.00" fill="#000000">unordered_set</text>
</g>
<!-- Node59&#45;&gt;Node64 -->
<g id="edge111" class="edge">
<title>Node59&#45;&gt;Node64</title>
<path fill="none" stroke="#191970" d="M259.3989,-739.3733C231.9151,-730.1016 190.1667,-716.0178 159.8901,-705.804"/>
<polygon fill="#191970" stroke="#191970" points="160.6935,-702.3813 150.0994,-702.5011 158.4559,-709.0141 160.6935,-702.3813"/>
</g>
<!-- Node65 -->
<g id="node66" class="node">
<title>Node65</title>
<g id="a_node66"><a xlink:href="ThreadLocalStorage_8h.html" target="_top" xlink:title="ThreadLocalStorage.h">
<polygon fill="#ffffff" stroke="#000000" points="685.9353,-112.5 685.9353,-131.5 807.9353,-131.5 807.9353,-112.5 685.9353,-112.5"/>
<text text-anchor="middle" x="746.9353" y="-119.5" font-family="Helvetica,sans-Serif" font-size="10.00" fill="#000000">ThreadLocalStorage.h</text>
</a>
</g>
</g>
<!-- Node59&#45;&gt;Node65 -->
<g id="edge114" class="edge">
<title>Node59&#45;&gt;Node65</title>
<path fill="none" stroke="#191970" d="M270.9512,-739.368C243.6259,-722.4638 192.9353,-684.6798 192.9353,-637 192.9353,-637 192.9353,-637 192.9353,-234 192.9353,-185.2894 526.2273,-144.7618 675.7852,-129.0279"/>
<polygon fill="#191970" stroke="#191970" points="676.2146,-132.5022 685.7971,-127.9829 675.4878,-125.5401 676.2146,-132.5022"/>
</g>
<!-- Node60&#45;&gt;Node6 -->
<g id="edge103" class="edge">
<title>Node60&#45;&gt;Node6</title>
<path fill="none" stroke="#191970" d="M484.5571,-690.2801C605.5195,-681.2961 993.0491,-652.5141 1142.4329,-641.4193"/>
<polygon fill="#191970" stroke="#191970" points="1143.0567,-644.8827 1152.77,-640.6515 1142.5382,-637.9019 1143.0567,-644.8827"/>
</g>
<!-- Node60&#45;&gt;Node41 -->
<g id="edge104" class="edge">
<title>Node60&#45;&gt;Node41</title>
<path fill="none" stroke="#191970" d="M429.0435,-683.4787C399.3083,-666.9949 344.9353,-630.1354 344.9353,-581 344.9353,-581 344.9353,-581 344.9353,-351.5 344.9353,-310.8601 366.5321,-299.9554 401.9353,-280 507.7128,-220.3773 555.3837,-266.272 679.447,-243.7551"/>
<polygon fill="#191970" stroke="#191970" points="680.1459,-247.1849 689.3012,-241.8529 678.8191,-240.3118 680.1459,-247.1849"/>
</g>
<!-- Node61&#45;&gt;Node8 -->
<g id="edge106" class="edge">
<title>Node61&#45;&gt;Node8</title>
<path fill="none" stroke="#191970" d="M1316.3633,-515.4161C1344.4897,-501.7675 1398.395,-476.4539 1445.9353,-459 1484.0842,-444.994 1528.6454,-432.1972 1560.3512,-423.6767"/>
<polygon fill="#191970" stroke="#191970" points="1561.4053,-427.0181 1570.1691,-421.0645 1559.6054,-420.2535 1561.4053,-427.0181"/>
</g>
<!-- Node61&#45;&gt;Node34 -->
<g id="edge107" class="edge">
<title>Node61&#45;&gt;Node34</title>
<path fill="none" stroke="#191970" d="M1279.3425,-515.2455C1263.5563,-506.4928 1240.1714,-493.527 1222.1766,-483.5496"/>
<polygon fill="#191970" stroke="#191970" points="1223.7694,-480.4308 1213.3266,-478.6427 1220.375,-486.5528 1223.7694,-480.4308"/>
</g>
<!-- Node65&#45;&gt;Node9 -->
<g id="edge117" class="edge">
<title>Node65&#45;&gt;Node9</title>
<path fill="none" stroke="#191970" d="M750.8108,-112.3297C757.3873,-97.3375 772.2666,-68.8743 794.9353,-56 833.8711,-33.887 1130.3664,-17.8234 1249.5546,-12.1962"/>
<polygon fill="#191970" stroke="#191970" points="1250.024,-15.6782 1259.8498,-11.7154 1249.6974,-8.6858 1250.024,-15.6782"/>
</g>
<!-- Node65&#45;&gt;Node12 -->
<g id="edge116" class="edge">
<title>Node65&#45;&gt;Node12</title>
<path fill="none" stroke="#191970" d="M807.9846,-112.9977C811.0086,-112.64 814.0048,-112.3046 816.9353,-112 1053.0372,-87.4585 1335.13,-73.7118 1458.2683,-68.4806"/>
<polygon fill="#191970" stroke="#191970" points="1458.4281,-71.9771 1468.2721,-68.0596 1458.1337,-64.9833 1458.4281,-71.9771"/>
</g>
<!-- Node65&#45;&gt;Node14 -->
<g id="edge115" class="edge">
<title>Node65&#45;&gt;Node14</title>
<path fill="none" stroke="#191970" d="M761.7412,-112.2455C774.6609,-103.7337 793.6284,-91.2375 808.5906,-81.3801"/>
<polygon fill="#191970" stroke="#191970" points="810.8741,-84.067 817.2991,-75.6427 807.0229,-78.2216 810.8741,-84.067"/>
</g>
<!-- Node66&#45;&gt;Node8 -->
<g id="edge119" class="edge">
<title>Node66&#45;&gt;Node8</title>
<path fill="none" stroke="#191970" d="M2083.1771,-627.1903C2077.0917,-596.3912 2053.8604,-501.1688 1992.9353,-459 1964.6312,-439.4095 1738.7563,-422.1666 1643.777,-415.7074"/>
<polygon fill="#191970" stroke="#191970" points="1643.877,-412.2063 1633.6646,-415.0269 1643.407,-419.1906 1643.877,-412.2063"/>
</g>
<!-- Node67&#45;&gt;Node4 -->
<g id="edge124" class="edge">
<title>Node67&#45;&gt;Node4</title>
<path fill="none" stroke="#191970" d="M1680.1609,-795.2455C1684.2476,-787.617 1690.0488,-776.7881 1695.0103,-767.5267"/>
<polygon fill="#191970" stroke="#191970" points="1698.1325,-769.1103 1699.7696,-758.6427 1691.9621,-765.8047 1698.1325,-769.1103"/>
</g>
<!-- Node67&#45;&gt;Node34 -->
<g id="edge126" class="edge">
<title>Node67&#45;&gt;Node34</title>
<path fill="none" stroke="#191970" d="M1645.3649,-802.158C1531.1243,-790.7885 1124.9353,-746.5952 1124.9353,-693 1124.9353,-693 1124.9353,-693 1124.9353,-581 1124.9353,-542.2128 1155.6862,-505.9698 1176.7129,-485.7214"/>
<polygon fill="#191970" stroke="#191970" points="1179.2557,-488.1368 1184.2111,-478.7722 1174.4975,-483.0026 1179.2557,-488.1368"/>
</g>
<!-- Node67&#45;&gt;Node56 -->
<g id="edge123" class="edge">
<title>Node67&#45;&gt;Node56</title>
<path fill="none" stroke="#191970" d="M1670.0883,-795.3004C1659.9401,-773.4935 1639.1292,-719.6413 1660.9353,-683 1669.5751,-668.4823 1684.7056,-658.0473 1699.3551,-650.8255"/>
<polygon fill="#191970" stroke="#191970" points="1701.1722,-653.8449 1708.8395,-646.5331 1698.2859,-647.4676 1701.1722,-653.8449"/>
</g>
<!-- Node67&#45;&gt;Node57 -->
<g id="edge125" class="edge">
<title>Node67&#45;&gt;Node57</title>
<path fill="none" stroke="#191970" d="M1668.6011,-795.4947C1662.8024,-786.4379 1654.3271,-772.2561 1648.9353,-759 1626.4217,-703.6484 1611.7245,-634.209 1605.4345,-600.7797"/>
<polygon fill="#191970" stroke="#191970" points="1608.8036,-599.7462 1603.5613,-590.5392 1601.9179,-601.0058 1608.8036,-599.7462"/>
</g>
<!-- Node68 -->
<g id="node69" class="node">
<title>Node68</title>
<g id="a_node69"><a xlink:href="TDataType_8h.html" target="_top" xlink:title="TDataType.h">
<polygon fill="#ffffff" stroke="#000000" points="1767.4353,-683.5 1767.4353,-702.5 1844.4353,-702.5 1844.4353,-683.5 1767.4353,-683.5"/>
<text text-anchor="middle" x="1805.9353" y="-690.5" font-family="Helvetica,sans-Serif" font-size="10.00" fill="#000000">TDataType.h</text>
</a>
</g>
</g>
<!-- Node67&#45;&gt;Node68 -->
<g id="edge121" class="edge">
<title>Node67&#45;&gt;Node68</title>
<path fill="none" stroke="#191970" d="M1694.5354,-795.4615C1710.6234,-787.1073 1733.5104,-773.9823 1750.9353,-759 1767.4491,-744.801 1783.0178,-725.328 1793.3471,-711.2165"/>
<polygon fill="#191970" stroke="#191970" points="1796.3746,-712.9995 1799.3356,-702.8269 1790.6771,-708.9327 1796.3746,-712.9995"/>
</g>
<!-- Node68&#45;&gt;Node56 -->
<g id="edge122" class="edge">
<title>Node68&#45;&gt;Node56</title>
<path fill="none" stroke="#191970" d="M1794.2648,-683.2455C1784.3692,-674.9746 1769.9726,-662.9416 1758.3452,-653.2232"/>
<polygon fill="#191970" stroke="#191970" points="1760.3895,-650.3703 1750.4721,-646.6427 1755.9003,-655.7413 1760.3895,-650.3703"/>
</g>
<!-- Node69&#45;&gt;Node56 -->
<g id="edge128" class="edge">
<title>Node69&#45;&gt;Node56</title>
<path fill="none" stroke="#191970" d="M1890.05,-851.2346C1886.8486,-817.8858 1874.8892,-709.1282 1852.9353,-683 1836.8497,-663.8558 1811.6097,-652.5998 1788.9637,-646.0217"/>
<polygon fill="#191970" stroke="#191970" points="1789.6827,-642.5912 1779.1186,-643.3982 1787.8802,-649.3551 1789.6827,-642.5912"/>
</g>
<!-- Node70 -->
<g id="node71" class="node">
<title>Node70</title>
<polygon fill="#ffffff" stroke="#bfbfbf" points="1901.4353,-795.5 1901.4353,-814.5 1966.4353,-814.5 1966.4353,-795.5 1901.4353,-795.5"/>
<text text-anchor="middle" x="1933.9353" y="-802.5" font-family="Helvetica,sans-Serif" font-size="10.00" fill="#000000">functional</text>
</g>
<!-- Node69&#45;&gt;Node70 -->
<g id="edge129" class="edge">
<title>Node69&#45;&gt;Node70</title>
<path fill="none" stroke="#191970" d="M1898.4253,-851.2455C1904.4679,-843.3761 1913.1256,-832.101 1920.3794,-822.6542"/>
<polygon fill="#191970" stroke="#191970" points="1923.2169,-824.7058 1926.5311,-814.6427 1917.6648,-820.4426 1923.2169,-824.7058"/>
</g>
<!-- Node71&#45;&gt;Node21 -->
<g id="edge138" class="edge">
<title>Node71&#45;&gt;Node21</title>
<path fill="none" stroke="#191970" d="M2009.6852,-740.7898C2085.7028,-724.6368 2238.9353,-685.9993 2238.9353,-637 2238.9353,-637 2238.9353,-637 2238.9353,-290 2238.9353,-258.7875 2238.3387,-244.6519 2214.9353,-224 2163.3586,-178.487 2129.6811,-203.9067 2062.4173,-189.1989"/>
<polygon fill="#191970" stroke="#191970" points="2063.2406,-185.7972 2052.6978,-186.8457 2061.5934,-192.6007 2063.2406,-185.7972"/>
</g>
<!-- Node71&#45;&gt;Node24 -->
<g id="edge139" class="edge">
<title>Node71&#45;&gt;Node24</title>
<path fill="none" stroke="#191970" d="M1973.8814,-739.2622C1996.0935,-702.5237 2072.9353,-572.0296 2072.9353,-525 2072.9353,-525 2072.9353,-525 2072.9353,-413 2072.9353,-377.7513 2074.7842,-366.7946 2091.9353,-336 2123.007,-280.2113 2226.0195,-270.1997 2181.9353,-224 2173.5719,-215.2353 1406.1925,-185.7522 1234.6778,-179.2681"/>
<polygon fill="#191970" stroke="#191970" points="1234.6032,-175.7629 1224.4782,-178.8831 1234.3391,-182.7579 1234.6032,-175.7629"/>
</g>
<!-- Node71&#45;&gt;Node53 -->
<g id="edge136" class="edge">
<title>Node71&#45;&gt;Node53</title>
<path fill="none" stroke="#191970" d="M1965.615,-739.375C1957.4278,-705.4133 1929.7851,-590.7472 1918.6457,-544.5392"/>
<polygon fill="#191970" stroke="#191970" points="1921.9932,-543.4904 1916.247,-534.5891 1915.1881,-545.1309 1921.9932,-543.4904"/>
</g>
<!-- Node71&#45;&gt;Node56 -->
<g id="edge132" class="edge">
<title>Node71&#45;&gt;Node56</title>
<path fill="none" stroke="#191970" d="M1958.3643,-739.0853C1944.0629,-724.7965 1915.7058,-698.4393 1886.9353,-683 1856.2894,-666.5542 1818.8591,-654.9886 1789.3087,-647.5677"/>
<polygon fill="#191970" stroke="#191970" points="1789.7526,-644.0738 1779.209,-645.1145 1788.1003,-650.876 1789.7526,-644.0738"/>
</g>
<!-- Node71&#45;&gt;Node62 -->
<g id="edge137" class="edge">
<title>Node71&#45;&gt;Node62</title>
<path fill="none" stroke="#191970" d="M1926.1662,-740.6162C1868.9504,-729.1321 1767.655,-708.8004 1718.0076,-698.8353"/>
<polygon fill="#191970" stroke="#191970" points="1718.4442,-695.3532 1707.9509,-696.8168 1717.0666,-702.2163 1718.4442,-695.3532"/>
</g>
<!-- Node71&#45;&gt;Node68 -->
<g id="edge131" class="edge">
<title>Node71&#45;&gt;Node68</title>
<path fill="none" stroke="#191970" d="M1940.0865,-739.3733C1913.265,-730.1016 1872.5226,-716.0178 1842.9755,-705.804"/>
<polygon fill="#191970" stroke="#191970" points="1844.0155,-702.4603 1833.4207,-702.5011 1841.7285,-709.0762 1844.0155,-702.4603"/>
</g>
<!-- Node72 -->
<g id="node73" class="node">
<title>Node72</title>
<g id="a_node73"><a xlink:href="TInterpreterValue_8h.html" target="_top" xlink:title="TInterpreterValue.h">
<polygon fill="#ffffff" stroke="#000000" points="2100.9353,-342 2100.9353,-361 2210.9353,-361 2210.9353,-342 2100.9353,-342"/>
<text text-anchor="middle" x="2155.9353" y="-349" font-family="Helvetica,sans-Serif" font-size="10.00" fill="#000000">TInterpreterValue.h</text>
</a>
</g>
</g>
<!-- Node71&#45;&gt;Node72 -->
<g id="edge133" class="edge">
<title>Node71&#45;&gt;Node72</title>
<path fill="none" stroke="#191970" d="M1993.0536,-739.4786C2028.0764,-724.9164 2091.1811,-693.7838 2125.9353,-647 2144.1381,-622.4967 2144.9353,-611.5246 2144.9353,-581 2144.9353,-581 2144.9353,-581 2144.9353,-469 2144.9353,-434.4897 2149.6973,-394.5252 2152.9549,-371.2236"/>
<polygon fill="#191970" stroke="#191970" points="2156.4341,-371.619 2154.4058,-361.2201 2149.5066,-370.6142 2156.4341,-371.619"/>
</g>
<!-- Node72&#45;&gt;Node10 -->
<g id="edge134" class="edge">
<title>Node72&#45;&gt;Node10</title>
<path fill="none" stroke="#191970" d="M2100.8819,-345.3216C1990.4827,-332.9319 1744.3802,-305.3127 1647.8663,-294.4813"/>
<polygon fill="#191970" stroke="#191970" points="1647.9859,-290.9728 1637.6579,-293.3357 1647.2051,-297.9292 1647.9859,-290.9728"/>
</g>
<!-- Node72&#45;&gt;Node26 -->
<g id="edge135" class="edge">
<title>Node72&#45;&gt;Node26</title>
<path fill="none" stroke="#191970" d="M2166.8297,-341.9338C2190.6487,-319.8539 2243.0608,-264.1547 2214.9353,-224 2173.1534,-164.3479 2132.4076,-181.9931 2060.9353,-168 1942.2439,-144.7622 1061.0361,-126.2111 880.2806,-122.627"/>
<polygon fill="#191970" stroke="#191970" points="880.1594,-119.1241 870.0923,-122.4262 880.0214,-126.1227 880.1594,-119.1241"/>
</g>
</g>
</svg>
