<?xml version="1.0" encoding="UTF-8" standalone="no"?>
<!DOCTYPE svg PUBLIC "-//W3C//DTD SVG 1.1//EN"
 "http://www.w3.org/Graphics/SVG/1.1/DTD/svg11.dtd">
<!-- Generated by graphviz version 2.40.1 (0)
 -->
<!-- Title: core/meta/inc/TListOfEnums.h Pages: 1 -->
<svg width="962pt" height="162pt"
 viewBox="0.00 0.00 962.00 162.00" xmlns="http://www.w3.org/2000/svg" xmlns:xlink="http://www.w3.org/1999/xlink">
<g id="graph0" class="graph" transform="scale(1 1) rotate(0) translate(4 158)">
<title>core/meta/inc/TListOfEnums.h</title>
<polygon fill="#ffffff" stroke="transparent" points="-4,4 -4,-158 958,-158 958,4 -4,4"/>
<!-- Node56 -->
<g id="node1" class="node">
<title>Node56</title>
<polygon fill="#bfbfbf" stroke="#000000" points="330.5,-134.5 330.5,-153.5 493.5,-153.5 493.5,-134.5 330.5,-134.5"/>
<text text-anchor="middle" x="412" y="-141.5" font-family="Helvetica,sans-Serif" font-size="10.00" fill="#000000">core/meta/inc/TListOfEnums.h</text>
</g>
<!-- Node57 -->
<g id="node2" class="node">
<title>Node57</title>
<g id="a_node2"><a xlink:href="TListOfTypes_8cxx.html" target="_top" xlink:title="core/base/src/TListOfTypes.cxx">
<polygon fill="#ffffff" stroke="#000000" points="6.5,-73 6.5,-92 173.5,-92 173.5,-73 6.5,-73"/>
<text text-anchor="middle" x="90" y="-80" font-family="Helvetica,sans-Serif" font-size="10.00" fill="#000000">core/base/src/TListOfTypes.cxx</text>
</a>
</g>
</g>
<!-- Node56&#45;&gt;Node57 -->
<g id="edge1" class="edge">
<title>Node56&#45;&gt;Node57</title>
<path fill="none" stroke="#191970" d="M352.1409,-132.5673C290.9693,-120.8839 197.0599,-102.9478 139.8115,-92.0137"/>
<polygon fill="#191970" stroke="#191970" points="351.5617,-136.0199 362.0408,-134.4581 352.875,-129.1441 351.5617,-136.0199"/>
</g>
<!-- Node58 -->
<g id="node3" class="node">
<title>Node58</title>
<g id="a_node3"><a xlink:href="TListOfEnumsWithLock_8h.html" target="_top" xlink:title="core/meta/inc/TListOfEnums\lWithLock.h">
<polygon fill="#ffffff" stroke="#000000" points="230,-67.5 230,-97.5 384,-97.5 384,-67.5 230,-67.5"/>
<text text-anchor="start" x="238" y="-85.5" font-family="Helvetica,sans-Serif" font-size="10.00" fill="#000000">core/meta/inc/TListOfEnums</text>
<text text-anchor="middle" x="307" y="-74.5" font-family="Helvetica,sans-Serif" font-size="10.00" fill="#000000">WithLock.h</text>
</a>
</g>
</g>
<!-- Node56&#45;&gt;Node58 -->
<g id="edge2" class="edge">
<title>Node56&#45;&gt;Node58</title>
<path fill="none" stroke="#191970" d="M386.6013,-129.1236C370.2575,-119.5508 349.0858,-107.1502 332.6859,-97.5446"/>
<polygon fill="#191970" stroke="#191970" points="385.196,-132.3566 395.5938,-134.3906 388.7338,-126.3165 385.196,-132.3566"/>
</g>
<!-- Node60 -->
<g id="node5" class="node">
<title>Node60</title>
<g id="a_node5"><a xlink:href="TClass_8cxx.html" target="_top" xlink:title="core/meta/src/TClass.cxx">
<polygon fill="#ffffff" stroke="#000000" points="0,-6 0,-25 138,-25 138,-6 0,-6"/>
<text text-anchor="middle" x="69" y="-13" font-family="Helvetica,sans-Serif" font-size="10.00" fill="#000000">core/meta/src/TClass.cxx</text>
</a>
</g>
</g>
<!-- Node56&#45;&gt;Node60 -->
<g id="edge7" class="edge">
<title>Node56&#45;&gt;Node60</title>
<path fill="none" stroke="#191970" d="M329.8391,-132.5537C295.0297,-125.6187 254.7919,-114.7554 221,-98 201.4728,-88.3176 201.5324,-78.4723 183,-67 154.5628,-49.3962 119.0851,-34.3353 95.3282,-25.1283"/>
<polygon fill="#191970" stroke="#191970" points="329.4976,-136.0518 339.9774,-134.4945 330.8138,-129.1767 329.4976,-136.0518"/>
</g>
<!-- Node62 -->
<g id="node7" class="node">
<title>Node62</title>
<g id="a_node7"><a xlink:href="TCling_8cxx.html" target="_top" xlink:title="core/metacling/src\l/TCling.cxx">
<polygon fill="#ffffff" stroke="#000000" points="484.5,-.5 484.5,-30.5 591.5,-30.5 591.5,-.5 484.5,-.5"/>
<text text-anchor="start" x="492.5" y="-18.5" font-family="Helvetica,sans-Serif" font-size="10.00" fill="#000000">core/metacling/src</text>
<text text-anchor="middle" x="538" y="-7.5" font-family="Helvetica,sans-Serif" font-size="10.00" fill="#000000">/TCling.cxx</text>
</a>
</g>
</g>
<!-- Node56&#45;&gt;Node62 -->
<g id="edge11" class="edge">
<title>Node56&#45;&gt;Node62</title>
<path fill="none" stroke="#191970" d="M412.349,-123.9526C413.6309,-107.0686 417.8824,-83.153 431,-67 444.6462,-50.1961 465.0986,-38.5129 484.4784,-30.5768"/>
<polygon fill="#191970" stroke="#191970" points="408.8345,-124.1837 411.8636,-134.3363 415.8269,-124.5107 408.8345,-124.1837"/>
</g>
<!-- Node63 -->
<g id="node8" class="node">
<title>Node63</title>
<g id="a_node8"><a xlink:href="TEnum_8cxx.html" target="_top" xlink:title="core/meta/src/TEnum.cxx">
<polygon fill="#ffffff" stroke="#000000" points="440,-73 440,-92 580,-92 580,-73 440,-73"/>
<text text-anchor="middle" x="510" y="-80" font-family="Helvetica,sans-Serif" font-size="10.00" fill="#000000">core/meta/src/TEnum.cxx</text>
</a>
</g>
</g>
<!-- Node56&#45;&gt;Node63 -->
<g id="edge8" class="edge">
<title>Node56&#45;&gt;Node63</title>
<path fill="none" stroke="#191970" d="M435.9916,-128.944C454.3422,-117.4281 479.0862,-101.9 494.795,-92.0419"/>
<polygon fill="#191970" stroke="#191970" points="433.9223,-126.1105 427.3125,-134.3906 437.6432,-132.0397 433.9223,-126.1105"/>
</g>
<!-- Node64 -->
<g id="node9" class="node">
<title>Node64</title>
<g id="a_node9"><a xlink:href="TListOfEnums_8cxx.html" target="_top" xlink:title="core/meta/src/TListOfEnums.cxx">
<polygon fill="#ffffff" stroke="#000000" points="598,-73 598,-92 772,-92 772,-73 598,-73"/>
<text text-anchor="middle" x="685" y="-80" font-family="Helvetica,sans-Serif" font-size="10.00" fill="#000000">core/meta/src/TListOfEnums.cxx</text>
</a>
</g>
</g>
<!-- Node56&#45;&gt;Node64 -->
<g id="edge9" class="edge">
<title>Node56&#45;&gt;Node64</title>
<path fill="none" stroke="#191970" d="M464.3478,-132.2074C516.1552,-120.5365 594.4832,-102.8912 642.5439,-92.0643"/>
<polygon fill="#191970" stroke="#191970" points="463.343,-128.8459 454.3567,-134.4581 464.8815,-135.6748 463.343,-128.8459"/>
</g>
<!-- Node65 -->
<g id="node10" class="node">
<title>Node65</title>
<g id="a_node10"><a xlink:href="TProtoClass_8cxx.html" target="_top" xlink:title="core/meta/src/TProtoClass.cxx">
<polygon fill="#ffffff" stroke="#000000" points="790,-73 790,-92 954,-92 954,-73 790,-73"/>
<text text-anchor="middle" x="872" y="-80" font-family="Helvetica,sans-Serif" font-size="10.00" fill="#000000">core/meta/src/TProtoClass.cxx</text>
</a>
</g>
</g>
<!-- Node56&#45;&gt;Node65 -->
<g id="edge10" class="edge">
<title>Node56&#45;&gt;Node65</title>
<path fill="none" stroke="#191970" d="M504.1712,-133.6676C578.9105,-125.0109 686.909,-111.8709 781,-98 793.0496,-96.2236 805.9651,-94.1359 818.1702,-92.0782"/>
<polygon fill="#191970" stroke="#191970" points="503.3834,-130.2352 493.8508,-134.859 504.1862,-137.1891 503.3834,-130.2352"/>
</g>
<!-- Node59 -->
<g id="node4" class="node">
<title>Node59</title>
<g id="a_node4"><a xlink:href="TROOT_8cxx.html" target="_top" xlink:title="core/base/src/TROOT.cxx">
<polygon fill="#ffffff" stroke="#000000" points="156.5,-6 156.5,-25 293.5,-25 293.5,-6 156.5,-6"/>
<text text-anchor="middle" x="225" y="-13" font-family="Helvetica,sans-Serif" font-size="10.00" fill="#000000">core/base/src/TROOT.cxx</text>
</a>
</g>
</g>
<!-- Node58&#45;&gt;Node59 -->
<g id="edge3" class="edge">
<title>Node58&#45;&gt;Node59</title>
<path fill="none" stroke="#191970" d="M280.5357,-60.8767C265.7511,-48.7967 248.0699,-34.3498 236.6941,-25.055"/>
<polygon fill="#191970" stroke="#191970" points="278.4346,-63.6797 288.3929,-67.2967 282.8637,-58.2591 278.4346,-63.6797"/>
</g>
<!-- Node58&#45;&gt;Node60 -->
<g id="edge4" class="edge">
<title>Node58&#45;&gt;Node60</title>
<path fill="none" stroke="#191970" d="M243.8621,-64.7259C198.5883,-51.9807 139.3609,-35.3075 102.765,-25.0053"/>
<polygon fill="#191970" stroke="#191970" points="243.0138,-68.1231 253.5882,-67.4639 244.9108,-61.385 243.0138,-68.1231"/>
</g>
<!-- Node61 -->
<g id="node6" class="node">
<title>Node61</title>
<g id="a_node6"><a xlink:href="TListOfEnumsWithLock_8cxx.html" target="_top" xlink:title="core/meta/src/TListOfEnums\lWithLock.cxx">
<polygon fill="#ffffff" stroke="#000000" points="312,-.5 312,-30.5 466,-30.5 466,-.5 312,-.5"/>
<text text-anchor="start" x="320" y="-18.5" font-family="Helvetica,sans-Serif" font-size="10.00" fill="#000000">core/meta/src/TListOfEnums</text>
<text text-anchor="middle" x="389" y="-7.5" font-family="Helvetica,sans-Serif" font-size="10.00" fill="#000000">WithLock.cxx</text>
</a>
</g>
</g>
<!-- Node58&#45;&gt;Node61 -->
<g id="edge5" class="edge">
<title>Node58&#45;&gt;Node61</title>
<path fill="none" stroke="#191970" d="M333.5817,-60.7808C345.6278,-50.9383 359.5767,-39.541 370.4666,-30.6432"/>
<polygon fill="#191970" stroke="#191970" points="331.1363,-58.2591 325.6071,-67.2967 335.5654,-63.6797 331.1363,-58.2591"/>
</g>
<!-- Node58&#45;&gt;Node62 -->
<g id="edge6" class="edge">
<title>Node58&#45;&gt;Node62</title>
<path fill="none" stroke="#191970" d="M368.8928,-64.5484C405.4569,-53.9432 451.2319,-40.6665 485.933,-30.6017"/>
<polygon fill="#191970" stroke="#191970" points="367.4701,-61.3167 358.8409,-67.4639 369.4201,-68.0397 367.4701,-61.3167"/>
</g>
</g>
</svg>
