<?xml version="1.0" encoding="UTF-8" standalone="no"?>
<!DOCTYPE svg PUBLIC "-//W3C//DTD SVG 1.1//EN"
 "http://www.w3.org/Graphics/SVG/1.1/DTD/svg11.dtd">
<!-- Generated by graphviz version 2.40.1 (0)
 -->
<!-- Title: math/physics/inc/TLorentzVector.h Pages: 1 -->
<!--zoomable 374 -->
<svg id="main" version="1.1" xmlns="http://www.w3.org/2000/svg" xmlns:xlink="http://www.w3.org/1999/xlink" xml:space="preserve" onload="init(evt)">
<style type="text/css"><![CDATA[
.edge:hover path { stroke: red; }
.edge:hover polygon { stroke: red; fill: red; }
]]></style>
<script type="text/javascript"><![CDATA[
var edges = document.getElementsByTagName('g');
if (edges && edges.length) {
  for (var i=0;i<edges.length;i++) {
    if (edges[i].id.substr(0,4)=='edge') {
      edges[i].setAttribute('class','edge');
    }
  }
}
]]></script>
        <defs>
                <circle id="rim" cx="0" cy="0" r="7"/>
                <circle id="rim2" cx="0" cy="0" r="3.5"/>
                <g id="zoomPlus">
                        <use xlink:href="#rim" fill="#404040">
                                <set attributeName="fill" to="#808080" begin="zoomplus.mouseover" end="zoomplus.mouseout"/>
                        </use>
                        <path d="M-4,0h8M0,-4v8" fill="none" stroke="white" stroke-width="1.5" pointer-events="none"/>
                </g>
                <g id="zoomMin">
                        <use xlink:href="#rim" fill="#404040">
                                <set attributeName="fill" to="#808080" begin="zoomminus.mouseover" end="zoomminus.mouseout"/>
                        </use>
                        <path d="M-4,0h8" fill="none" stroke="white" stroke-width="1.5" pointer-events="none"/>
                </g>
                <g id="dirArrow">
                        <path fill="none" stroke="white" stroke-width="1.5" d="M0,-3.0v7 M-2.5,-0.5L0,-3.0L2.5,-0.5"/>
                </g>
               <g id="resetDef">
                       <use xlink:href="#rim2" fill="#404040">
                               <set attributeName="fill" to="#808080" begin="reset.mouseover" end="reset.mouseout"/>
                       </use>
               </g>
        </defs>

<script type="text/javascript">
var viewWidth = 2677;
var viewHeight = 374;
var sectionId = 'dynsection-1';
</script>
<script xlink:href="svgpan.js"/>
<svg id="graph" class="graph">
<g id="viewport">
<title>math/physics/inc/TLorentzVector.h</title>
<polygon fill="#ffffff" stroke="transparent" points="-4,4 -4,-370 2673,-370 2673,4 -4,4"/>
<!-- Node64 -->
<g id="node1" class="node">
<title>Node64</title>
<polygon fill="#bfbfbf" stroke="#000000" points="1604.5,-335.5 1604.5,-365.5 1748.5,-365.5 1748.5,-335.5 1604.5,-335.5"/>
<text text-anchor="start" x="1612.5" y="-353.5" font-family="Helvetica,sans-Serif" font-size="10.00" fill="#000000">math/physics/inc/TLorentz</text>
<text text-anchor="middle" x="1676.5" y="-342.5" font-family="Helvetica,sans-Serif" font-size="10.00" fill="#000000">Vector.h</text>
</g>
<!-- Node65 -->
<g id="node2" class="node">
<title>Node65</title>
<g id="a_node2"><a xlink:href="TGenPhaseSpace_8h.html" target="_top" xlink:title="math/physics/inc/TGenPhase\lSpace.h">
<polygon fill="#ffffff" stroke="#000000" points="213,-268.5 213,-298.5 370,-298.5 370,-268.5 213,-268.5"/>
<text text-anchor="start" x="221" y="-286.5" font-family="Helvetica,sans-Serif" font-size="10.00" fill="#000000">math/physics/inc/TGenPhase</text>
<text text-anchor="middle" x="291.5" y="-275.5" font-family="Helvetica,sans-Serif" font-size="10.00" fill="#000000">Space.h</text>
</a>
</g>
</g>
<!-- Node64&#45;&gt;Node65 -->
<g id="edge1" class="edge">
<title>Node64&#45;&gt;Node65</title>
<path fill="none" stroke="#191970" d="M1594.2452,-348.4111C1397.9446,-343.1218 886.6532,-327.5494 460.5,-299 430.9555,-297.0207 398.5622,-294.2067 370.1101,-291.5183"/>
<polygon fill="#191970" stroke="#191970" points="1594.3872,-351.9161 1604.4774,-348.6852 1594.5747,-344.9186 1594.3872,-351.9161"/>
</g>
<!-- Node67 -->
<g id="node4" class="node">
<title>Node67</title>
<g id="a_node4"><a xlink:href="TLorentzRotation_8h.html" target="_top" xlink:title="math/physics/inc/TLorentz\lRotation.h">
<polygon fill="#ffffff" stroke="#000000" points="469.5,-268.5 469.5,-298.5 613.5,-298.5 613.5,-268.5 469.5,-268.5"/>
<text text-anchor="start" x="477.5" y="-286.5" font-family="Helvetica,sans-Serif" font-size="10.00" fill="#000000">math/physics/inc/TLorentz</text>
<text text-anchor="middle" x="541.5" y="-275.5" font-family="Helvetica,sans-Serif" font-size="10.00" fill="#000000">Rotation.h</text>
</a>
</g>
</g>
<!-- Node64&#45;&gt;Node67 -->
<g id="edge3" class="edge">
<title>Node64&#45;&gt;Node67</title>
<path fill="none" stroke="#191970" d="M1594.0271,-345.6316C1380.9759,-333.055 814.8804,-299.6379 613.6988,-287.762"/>
<polygon fill="#191970" stroke="#191970" points="1594.0185,-349.1371 1604.2074,-346.2325 1594.4311,-342.1492 1594.0185,-349.1371"/>
</g>
<!-- Node69 -->
<g id="node6" class="node">
<title>Node69</title>
<g id="a_node6"><a xlink:href="TLorentzVector_8cxx.html" target="_top" xlink:title="math/physics/src/TLorentz\lVector.cxx">
<polygon fill="#ffffff" stroke="#000000" points="469.5,-201.5 469.5,-231.5 613.5,-231.5 613.5,-201.5 469.5,-201.5"/>
<text text-anchor="start" x="477.5" y="-219.5" font-family="Helvetica,sans-Serif" font-size="10.00" fill="#000000">math/physics/src/TLorentz</text>
<text text-anchor="middle" x="541.5" y="-208.5" font-family="Helvetica,sans-Serif" font-size="10.00" fill="#000000">Vector.cxx</text>
</a>
</g>
</g>
<!-- Node64&#45;&gt;Node69 -->
<g id="edge6" class="edge">
<title>Node64&#45;&gt;Node69</title>
<path fill="none" stroke="#191970" d="M1593.9453,-347.4921C1462.5625,-342.0187 1197.999,-328.1914 975.5,-299 844.1326,-281.7649 692.433,-250.2231 607.6614,-231.5313"/>
<polygon fill="#191970" stroke="#191970" points="1594.1875,-351.0049 1604.3228,-347.9186 1594.4749,-344.0108 1594.1875,-351.0049"/>
</g>
<!-- Node70 -->
<g id="node7" class="node">
<title>Node70</title>
<g id="a_node7"><a xlink:href="TParticle_8h.html" target="_top" xlink:title="montecarlo/eg/inc/TParticle.h">
<polygon fill="#ffffff" stroke="#000000" points="1478.5,-274 1478.5,-293 1636.5,-293 1636.5,-274 1478.5,-274"/>
<text text-anchor="middle" x="1557.5" y="-281" font-family="Helvetica,sans-Serif" font-size="10.00" fill="#000000">montecarlo/eg/inc/TParticle.h</text>
</a>
</g>
</g>
<!-- Node64&#45;&gt;Node70 -->
<g id="edge7" class="edge">
<title>Node64&#45;&gt;Node70</title>
<path fill="none" stroke="#191970" d="M1641.0503,-330.5409C1619.0747,-318.1681 1591.8363,-302.8322 1574.5577,-293.1039"/>
<polygon fill="#191970" stroke="#191970" points="1639.3631,-333.6076 1649.7941,-335.4639 1642.7974,-327.5079 1639.3631,-333.6076"/>
</g>
<!-- Node86 -->
<g id="node23" class="node">
<title>Node86</title>
<g id="a_node23"><a xlink:href="TPythia8_8cxx.html" target="_top" xlink:title="montecarlo/pythia8\l/src/TPythia8.cxx">
<polygon fill="#ffffff" stroke="#000000" points="631.5,-201.5 631.5,-231.5 743.5,-231.5 743.5,-201.5 631.5,-201.5"/>
<text text-anchor="start" x="639.5" y="-219.5" font-family="Helvetica,sans-Serif" font-size="10.00" fill="#000000">montecarlo/pythia8</text>
<text text-anchor="middle" x="687.5" y="-208.5" font-family="Helvetica,sans-Serif" font-size="10.00" fill="#000000">/src/TPythia8.cxx</text>
</a>
</g>
</g>
<!-- Node64&#45;&gt;Node86 -->
<g id="edge39" class="edge">
<title>Node64&#45;&gt;Node86</title>
<path fill="none" stroke="#191970" d="M1593.8341,-342.8825C1431.6606,-327.281 1060.7379,-288.3511 752.5,-232 749.647,-231.4784 746.7313,-230.9109 743.7925,-230.3114"/>
<polygon fill="#191970" stroke="#191970" points="1593.9232,-346.407 1604.2114,-343.8763 1594.5906,-339.4388 1593.9232,-346.407"/>
</g>
<!-- Node87 -->
<g id="node24" class="node">
<title>Node87</title>
<g id="a_node24"><a xlink:href="TMCParticleStatus_8h.html" target="_top" xlink:title="montecarlo/vmc/inc\l/TMCParticleStatus.h">
<polygon fill="#ffffff" stroke="#000000" points="2018.5,-201.5 2018.5,-231.5 2134.5,-231.5 2134.5,-201.5 2018.5,-201.5"/>
<text text-anchor="start" x="2026.5" y="-219.5" font-family="Helvetica,sans-Serif" font-size="10.00" fill="#000000">montecarlo/vmc/inc</text>
<text text-anchor="middle" x="2076.5" y="-208.5" font-family="Helvetica,sans-Serif" font-size="10.00" fill="#000000">/TMCParticleStatus.h</text>
</a>
</g>
</g>
<!-- Node64&#45;&gt;Node87 -->
<g id="edge41" class="edge">
<title>Node64&#45;&gt;Node87</title>
<path fill="none" stroke="#191970" d="M1706.4047,-329.4649C1734.5753,-310.6206 1778.5979,-283.6163 1820.5,-268 1898.582,-238.9 1922.8765,-248.7692 2004.5,-232 2009.0089,-231.0737 2013.6735,-230.1013 2018.3609,-229.1143"/>
<polygon fill="#191970" stroke="#191970" points="1704.152,-326.7636 1697.8382,-335.2717 1708.0796,-332.5579 1704.152,-326.7636"/>
</g>
<!-- Node89 -->
<g id="node26" class="node">
<title>Node89</title>
<g id="a_node26"><a xlink:href="TMCManager_8cxx.html" target="_top" xlink:title="montecarlo/vmc/src\l/TMCManager.cxx">
<polygon fill="#ffffff" stroke="#000000" points="2120,-67.5 2120,-97.5 2233,-97.5 2233,-67.5 2120,-67.5"/>
<text text-anchor="start" x="2128" y="-85.5" font-family="Helvetica,sans-Serif" font-size="10.00" fill="#000000">montecarlo/vmc/src</text>
<text text-anchor="middle" x="2176.5" y="-74.5" font-family="Helvetica,sans-Serif" font-size="10.00" fill="#000000">/TMCManager.cxx</text>
</a>
</g>
</g>
<!-- Node64&#45;&gt;Node89 -->
<g id="edge50" class="edge">
<title>Node64&#45;&gt;Node89</title>
<path fill="none" stroke="#191970" d="M1728.9104,-331.8841C1752.4593,-322.8952 1780.3274,-311.3795 1804.5,-299 1827.4371,-287.2532 1829.2379,-276.6861 1853.5,-268 1914.639,-246.1115 2095.48,-275.7169 2143.5,-232 2182.0231,-196.929 2180.9017,-127.9263 2178.2599,-97.5078"/>
<polygon fill="#191970" stroke="#191970" points="1727.5673,-328.6498 1719.4438,-335.4512 1730.0357,-335.2002 1727.5673,-328.6498"/>
</g>
<!-- Node95 -->
<g id="node32" class="node">
<title>Node95</title>
<g id="a_node32"><a xlink:href="TPythia6Decayer_8cxx.html" target="_top" xlink:title="montecarlo/pythia6\l/src/TPythia6Decayer.cxx">
<polygon fill="#ffffff" stroke="#000000" points="1862.5,-268.5 1862.5,-298.5 2002.5,-298.5 2002.5,-268.5 1862.5,-268.5"/>
<text text-anchor="start" x="1870.5" y="-286.5" font-family="Helvetica,sans-Serif" font-size="10.00" fill="#000000">montecarlo/pythia6</text>
<text text-anchor="middle" x="1932.5" y="-275.5" font-family="Helvetica,sans-Serif" font-size="10.00" fill="#000000">/src/TPythia6Decayer.cxx</text>
</a>
</g>
</g>
<!-- Node64&#45;&gt;Node95 -->
<g id="edge38" class="edge">
<title>Node64&#45;&gt;Node95</title>
<path fill="none" stroke="#191970" d="M1743.7959,-332.8874C1784.527,-322.2273 1835.9305,-308.774 1874.798,-298.6017"/>
<polygon fill="#191970" stroke="#191970" points="1742.7394,-329.546 1733.9514,-335.4639 1744.5118,-336.3179 1742.7394,-329.546"/>
</g>
<!-- Node96 -->
<g id="node33" class="node">
<title>Node96</title>
<g id="a_node33"><a xlink:href="TPythia8Decayer_8cxx.html" target="_top" xlink:title="montecarlo/pythia8\l/src/TPythia8Decayer.cxx">
<polygon fill="#ffffff" stroke="#000000" points="2020.5,-268.5 2020.5,-298.5 2160.5,-298.5 2160.5,-268.5 2020.5,-268.5"/>
<text text-anchor="start" x="2028.5" y="-286.5" font-family="Helvetica,sans-Serif" font-size="10.00" fill="#000000">montecarlo/pythia8</text>
<text text-anchor="middle" x="2090.5" y="-275.5" font-family="Helvetica,sans-Serif" font-size="10.00" fill="#000000">/src/TPythia8Decayer.cxx</text>
</a>
</g>
</g>
<!-- Node64&#45;&gt;Node96 -->
<g id="edge40" class="edge">
<title>Node64&#45;&gt;Node96</title>
<path fill="none" stroke="#191970" d="M1758.7315,-338.8232C1826.642,-328.9485 1925.4926,-314.0419 2011.5,-299 2014.3912,-298.4944 2017.3397,-297.9674 2020.3166,-297.4259"/>
<polygon fill="#191970" stroke="#191970" points="1757.9177,-335.4046 1748.5235,-340.3035 1758.9224,-342.3321 1757.9177,-335.4046"/>
</g>
<!-- Node97 -->
<g id="node34" class="node">
<title>Node97</title>
<g id="a_node34"><a xlink:href="TMCManagerStack_8h.html" target="_top" xlink:title="montecarlo/vmc/inc\l/TMCManagerStack.h">
<polygon fill="#ffffff" stroke="#000000" points="2179,-268.5 2179,-298.5 2298,-298.5 2298,-268.5 2179,-268.5"/>
<text text-anchor="start" x="2187" y="-286.5" font-family="Helvetica,sans-Serif" font-size="10.00" fill="#000000">montecarlo/vmc/inc</text>
<text text-anchor="middle" x="2238.5" y="-275.5" font-family="Helvetica,sans-Serif" font-size="10.00" fill="#000000">/TMCManagerStack.h</text>
</a>
</g>
</g>
<!-- Node64&#45;&gt;Node97 -->
<g id="edge42" class="edge">
<title>Node64&#45;&gt;Node97</title>
<path fill="none" stroke="#191970" d="M1758.8563,-344.8552C1857.063,-337.4425 2025.9662,-322.5358 2169.5,-299 2172.529,-298.5033 2175.6244,-297.9558 2178.7444,-297.3722"/>
<polygon fill="#191970" stroke="#191970" points="1758.4112,-341.3786 1748.6998,-345.6141 1758.9328,-348.3591 1758.4112,-341.3786"/>
</g>
<!-- Node66 -->
<g id="node3" class="node">
<title>Node66</title>
<g id="a_node3"><a xlink:href="TGenPhaseSpace_8cxx.html" target="_top" xlink:title="math/physics/src/TGenPhase\lSpace.cxx">
<polygon fill="#ffffff" stroke="#000000" points="132,-201.5 132,-231.5 289,-231.5 289,-201.5 132,-201.5"/>
<text text-anchor="start" x="140" y="-219.5" font-family="Helvetica,sans-Serif" font-size="10.00" fill="#000000">math/physics/src/TGenPhase</text>
<text text-anchor="middle" x="210.5" y="-208.5" font-family="Helvetica,sans-Serif" font-size="10.00" fill="#000000">Space.cxx</text>
</a>
</g>
</g>
<!-- Node65&#45;&gt;Node66 -->
<g id="edge2" class="edge">
<title>Node65&#45;&gt;Node66</title>
<path fill="none" stroke="#191970" d="M265.2425,-261.7808C253.3433,-251.9383 239.5644,-240.541 228.8074,-231.6432"/>
<polygon fill="#191970" stroke="#191970" points="263.1835,-264.6198 273.1198,-268.2967 267.6451,-259.2259 263.1835,-264.6198"/>
</g>
<!-- Node68 -->
<g id="node5" class="node">
<title>Node68</title>
<g id="a_node5"><a xlink:href="TLorentzRotation_8cxx.html" target="_top" xlink:title="math/physics/src/TLorentz\lRotation.cxx">
<polygon fill="#ffffff" stroke="#000000" points="307.5,-201.5 307.5,-231.5 451.5,-231.5 451.5,-201.5 307.5,-201.5"/>
<text text-anchor="start" x="315.5" y="-219.5" font-family="Helvetica,sans-Serif" font-size="10.00" fill="#000000">math/physics/src/TLorentz</text>
<text text-anchor="middle" x="379.5" y="-208.5" font-family="Helvetica,sans-Serif" font-size="10.00" fill="#000000">Rotation.cxx</text>
</a>
</g>
</g>
<!-- Node67&#45;&gt;Node68 -->
<g id="edge4" class="edge">
<title>Node67&#45;&gt;Node68</title>
<path fill="none" stroke="#191970" d="M495.7765,-264.5897C470.5386,-254.1518 439.6224,-241.3654 416.0145,-231.6017"/>
<polygon fill="#191970" stroke="#191970" points="494.5655,-267.8763 505.144,-268.4639 497.2408,-261.4077 494.5655,-267.8763"/>
</g>
<!-- Node67&#45;&gt;Node69 -->
<g id="edge5" class="edge">
<title>Node67&#45;&gt;Node69</title>
<path fill="none" stroke="#191970" d="M541.5,-258.0249C541.5,-249.128 541.5,-239.4287 541.5,-231.6432"/>
<polygon fill="#191970" stroke="#191970" points="538.0001,-258.2966 541.5,-268.2967 545.0001,-258.2967 538.0001,-258.2966"/>
</g>
<!-- Node71 -->
<g id="node8" class="node">
<title>Node71</title>
<g id="a_node8"><a xlink:href="TEveVSDStructs_8h.html" target="_top" xlink:title="graf3d/eve/inc/TEveVSDStructs.h">
<polygon fill="#ffffff" stroke="#000000" points="761.5,-207 761.5,-226 937.5,-226 937.5,-207 761.5,-207"/>
<text text-anchor="middle" x="849.5" y="-214" font-family="Helvetica,sans-Serif" font-size="10.00" fill="#000000">graf3d/eve/inc/TEveVSDStructs.h</text>
</a>
</g>
</g>
<!-- Node70&#45;&gt;Node71 -->
<g id="edge8" class="edge">
<title>Node70&#45;&gt;Node71</title>
<path fill="none" stroke="#191970" d="M1468.3068,-277.7703C1349.9639,-269.7451 1134.6407,-253.6731 951.5,-232 937.27,-230.316 921.9728,-228.1708 907.6651,-226.0172"/>
<polygon fill="#191970" stroke="#191970" points="1468.1911,-281.2704 1478.404,-278.4515 1468.6623,-274.2863 1468.1911,-281.2704"/>
</g>
<!-- Node74 -->
<g id="node11" class="node">
<title>Node74</title>
<g id="a_node11"><a xlink:href="TEveTrack_8cxx.html" target="_top" xlink:title="graf3d/eve/src/TEveTrack.cxx">
<polygon fill="#ffffff" stroke="#000000" points="581,-6 581,-25 740,-25 740,-6 581,-6"/>
<text text-anchor="middle" x="660.5" y="-13" font-family="Helvetica,sans-Serif" font-size="10.00" fill="#000000">graf3d/eve/src/TEveTrack.cxx</text>
</a>
</g>
</g>
<!-- Node70&#45;&gt;Node74 -->
<g id="edge22" class="edge">
<title>Node70&#45;&gt;Node74</title>
<path fill="none" stroke="#191970" d="M1468.0444,-280.701C1316.455,-275.192 1021.8316,-260.8844 984.5,-232 922.904,-184.3417 984.5785,-117.7456 925.5,-67 898.1243,-43.4856 807.7875,-29.6253 740.1463,-22.3133"/>
<polygon fill="#191970" stroke="#191970" points="1468.1434,-284.2067 1478.2623,-281.0668 1468.3939,-277.2111 1468.1434,-284.2067"/>
</g>
<!-- Node83 -->
<g id="node20" class="node">
<title>Node83</title>
<g id="a_node20"><a xlink:href="TGenerator_8cxx.html" target="_top" xlink:title="montecarlo/eg/src/TGenerator.cxx">
<polygon fill="#ffffff" stroke="#000000" points="1272.5,-207 1272.5,-226 1454.5,-226 1454.5,-207 1272.5,-207"/>
<text text-anchor="middle" x="1363.5" y="-214" font-family="Helvetica,sans-Serif" font-size="10.00" fill="#000000">montecarlo/eg/src/TGenerator.cxx</text>
</a>
</g>
</g>
<!-- Node70&#45;&gt;Node83 -->
<g id="edge23" class="edge">
<title>Node70&#45;&gt;Node83</title>
<path fill="none" stroke="#191970" d="M1520.0973,-270.5826C1482.3933,-257.5611 1425.0742,-237.7653 1391.2439,-226.0817"/>
<polygon fill="#191970" stroke="#191970" points="1519.1098,-273.9443 1529.7045,-273.9005 1521.3949,-267.3278 1519.1098,-273.9443"/>
</g>
<!-- Node84 -->
<g id="node21" class="node">
<title>Node84</title>
<g id="a_node21"><a xlink:href="TParticle_8cxx.html" target="_top" xlink:title="montecarlo/eg/src/TParticle.cxx">
<polygon fill="#ffffff" stroke="#000000" points="1472.5,-207 1472.5,-226 1642.5,-226 1642.5,-207 1472.5,-207"/>
<text text-anchor="middle" x="1557.5" y="-214" font-family="Helvetica,sans-Serif" font-size="10.00" fill="#000000">montecarlo/eg/src/TParticle.cxx</text>
</a>
</g>
</g>
<!-- Node70&#45;&gt;Node84 -->
<g id="edge24" class="edge">
<title>Node70&#45;&gt;Node84</title>
<path fill="none" stroke="#191970" d="M1557.5,-263.6079C1557.5,-251.214 1557.5,-235.8263 1557.5,-226.0817"/>
<polygon fill="#191970" stroke="#191970" points="1554.0001,-263.9005 1557.5,-273.9005 1561.0001,-263.9006 1554.0001,-263.9005"/>
</g>
<!-- Node85 -->
<g id="node22" class="node">
<title>Node85</title>
<g id="a_node22"><a xlink:href="TPythia6_8cxx.html" target="_top" xlink:title="montecarlo/pythia6\l/src/TPythia6.cxx">
<polygon fill="#ffffff" stroke="#000000" points="1660.5,-201.5 1660.5,-231.5 1772.5,-231.5 1772.5,-201.5 1660.5,-201.5"/>
<text text-anchor="start" x="1668.5" y="-219.5" font-family="Helvetica,sans-Serif" font-size="10.00" fill="#000000">montecarlo/pythia6</text>
<text text-anchor="middle" x="1716.5" y="-208.5" font-family="Helvetica,sans-Serif" font-size="10.00" fill="#000000">/src/TPythia6.cxx</text>
</a>
</g>
</g>
<!-- Node70&#45;&gt;Node85 -->
<g id="edge25" class="edge">
<title>Node70&#45;&gt;Node85</title>
<path fill="none" stroke="#191970" d="M1589.8309,-269.8763C1616.2541,-258.742 1653.5669,-243.019 1680.8513,-231.5218"/>
<polygon fill="#191970" stroke="#191970" points="1588.137,-266.792 1580.2808,-273.9005 1590.8552,-273.2427 1588.137,-266.792"/>
</g>
<!-- Node70&#45;&gt;Node86 -->
<g id="edge26" class="edge">
<title>Node70&#45;&gt;Node86</title>
<path fill="none" stroke="#191970" d="M1468.1473,-278.645C1273.2238,-267.9293 821.6764,-242.3835 752.5,-232 749.6318,-231.5695 746.704,-231.0752 743.7554,-230.5338"/>
<polygon fill="#191970" stroke="#191970" points="1468.1834,-282.1522 1478.3602,-279.2058 1468.5672,-275.1627 1468.1834,-282.1522"/>
</g>
<!-- Node70&#45;&gt;Node87 -->
<g id="edge27" class="edge">
<title>Node70&#45;&gt;Node87</title>
<path fill="none" stroke="#191970" d="M1646.7855,-274.2549C1756.9304,-262.6675 1937.791,-242.9965 2004.5,-232 2009.0418,-231.2513 2013.73,-230.4067 2018.4337,-229.5079"/>
<polygon fill="#191970" stroke="#191970" points="1646.2619,-270.7905 1636.6822,-275.3159 1646.9931,-277.7522 1646.2619,-270.7905"/>
</g>
<!-- Node70&#45;&gt;Node89 -->
<g id="edge33" class="edge">
<title>Node70&#45;&gt;Node89</title>
<path fill="none" stroke="#191970" d="M1646.7464,-275.1013C1750.1759,-264.773 1909.5669,-246.7929 1933.5,-232 1978.3807,-204.2596 1957.8015,-164.9943 2000.5,-134 2035.5398,-108.5651 2083.0217,-95.6201 2119.8368,-89.0729"/>
<polygon fill="#191970" stroke="#191970" points="1646.2127,-271.637 1636.6071,-276.1072 1646.9038,-278.6028 1646.2127,-271.637"/>
</g>
<!-- Node91 -->
<g id="node28" class="node">
<title>Node91</title>
<g id="a_node28"><a xlink:href="TMCManagerStack_8cxx.html" target="_top" xlink:title="montecarlo/vmc/src\l/TMCManagerStack.cxx">
<polygon fill="#ffffff" stroke="#000000" points="2018.5,-134.5 2018.5,-164.5 2148.5,-164.5 2148.5,-134.5 2018.5,-134.5"/>
<text text-anchor="start" x="2026.5" y="-152.5" font-family="Helvetica,sans-Serif" font-size="10.00" fill="#000000">montecarlo/vmc/src</text>
<text text-anchor="middle" x="2083.5" y="-141.5" font-family="Helvetica,sans-Serif" font-size="10.00" fill="#000000">/TMCManagerStack.cxx</text>
</a>
</g>
</g>
<!-- Node70&#45;&gt;Node91 -->
<g id="edge34" class="edge">
<title>Node70&#45;&gt;Node91</title>
<path fill="none" stroke="#191970" d="M1646.9526,-277.4228C1749.3232,-269.5626 1910.1067,-254.1944 1966.5,-232 1988.423,-223.3719 1990.275,-214.6183 2009.5,-201 2026.9982,-188.6049 2046.9609,-174.7272 2061.7389,-164.5037"/>
<polygon fill="#191970" stroke="#191970" points="1646.6329,-273.9369 1636.9262,-278.183 1647.1622,-280.9169 1646.6329,-273.9369"/>
</g>
<!-- Node92 -->
<g id="node29" class="node">
<title>Node92</title>
<g id="a_node29"><a xlink:href="collection__proxies_8C.html" target="_top" xlink:title="This example display collection of ??? in web browser. ">
<polygon fill="#ffffff" stroke="#000000" points="1790.5,-201.5 1790.5,-231.5 1924.5,-231.5 1924.5,-201.5 1790.5,-201.5"/>
<text text-anchor="start" x="1798.5" y="-219.5" font-family="Helvetica,sans-Serif" font-size="10.00" fill="#000000">tutorials/eve7/collection</text>
<text text-anchor="middle" x="1857.5" y="-208.5" font-family="Helvetica,sans-Serif" font-size="10.00" fill="#000000">_proxies.C</text>
</a>
</g>
</g>
<!-- Node70&#45;&gt;Node92 -->
<g id="edge35" class="edge">
<title>Node70&#45;&gt;Node92</title>
<path fill="none" stroke="#191970" d="M1610.1453,-271.7425C1660.2717,-260.5476 1735.9346,-243.6496 1790.373,-231.4917"/>
<polygon fill="#191970" stroke="#191970" points="1609.1608,-268.3761 1600.1641,-273.9717 1610.6866,-275.2078 1609.1608,-268.3761"/>
</g>
<!-- Node93 -->
<g id="node30" class="node">
<title>Node93</title>
<g id="a_node30"><a xlink:href="event__demo_8C.html" target="_top" xlink:title="This example display geometry, tracks and hits in web browser. ">
<polygon fill="#ffffff" stroke="#000000" points="994,-201.5 994,-231.5 1109,-231.5 1109,-201.5 994,-201.5"/>
<text text-anchor="start" x="1002" y="-219.5" font-family="Helvetica,sans-Serif" font-size="10.00" fill="#000000">tutorials/eve7/event</text>
<text text-anchor="middle" x="1051.5" y="-208.5" font-family="Helvetica,sans-Serif" font-size="10.00" fill="#000000">_demo.C</text>
</a>
</g>
</g>
<!-- Node70&#45;&gt;Node93 -->
<g id="edge36" class="edge">
<title>Node70&#45;&gt;Node93</title>
<path fill="none" stroke="#191970" d="M1468.3407,-276.0739C1379.1453,-267.9392 1238.2211,-253.1693 1117.5,-232 1114.7176,-231.5121 1111.8769,-230.9794 1109.0132,-230.4147"/>
<polygon fill="#191970" stroke="#191970" points="1468.1442,-279.5703 1478.4187,-276.9848 1468.7744,-272.5987 1468.1442,-279.5703"/>
</g>
<!-- Node94 -->
<g id="node31" class="node">
<title>Node94</title>
<g id="a_node31"><a xlink:href="tracks_8C.html" target="_top" xlink:title="This example display only points in web browser. ">
<polygon fill="#ffffff" stroke="#000000" points="1127,-207 1127,-226 1254,-226 1254,-207 1127,-207"/>
<text text-anchor="middle" x="1190.5" y="-214" font-family="Helvetica,sans-Serif" font-size="10.00" fill="#000000">tutorials/eve7/tracks.C</text>
</a>
</g>
</g>
<!-- Node70&#45;&gt;Node94 -->
<g id="edge37" class="edge">
<title>Node70&#45;&gt;Node94</title>
<path fill="none" stroke="#191970" d="M1489.5972,-272.3147C1429.927,-262.3164 1340.8067,-246.9731 1263.5,-232 1253.9602,-230.1523 1243.7445,-228.0568 1234.0677,-226.0174"/>
<polygon fill="#191970" stroke="#191970" points="1489.2092,-275.7983 1499.6494,-273.9951 1490.3634,-268.8941 1489.2092,-275.7983"/>
</g>
<!-- Node72 -->
<g id="node9" class="node">
<title>Node72</title>
<g id="a_node9"><a xlink:href="TEveTrack_8h.html" target="_top" xlink:title="graf3d/eve/inc/TEveTrack.h">
<polygon fill="#ffffff" stroke="#000000" points="426.5,-140 426.5,-159 574.5,-159 574.5,-140 426.5,-140"/>
<text text-anchor="middle" x="500.5" y="-147" font-family="Helvetica,sans-Serif" font-size="10.00" fill="#000000">graf3d/eve/inc/TEveTrack.h</text>
</a>
</g>
</g>
<!-- Node71&#45;&gt;Node72 -->
<g id="edge9" class="edge">
<title>Node71&#45;&gt;Node72</title>
<path fill="none" stroke="#191970" d="M789.8003,-205.039C722.2358,-192.0682 613.3946,-171.1732 550.2436,-159.0496"/>
<polygon fill="#191970" stroke="#191970" points="789.3869,-208.5235 799.8674,-206.9717 790.7067,-201.649 789.3869,-208.5235"/>
</g>
<!-- Node80 -->
<g id="node17" class="node">
<title>Node80</title>
<g id="a_node17"><a xlink:href="TEveVSD_8h.html" target="_top" xlink:title="graf3d/eve/inc/TEveVSD.h">
<polygon fill="#ffffff" stroke="#000000" points="778,-140 778,-159 921,-159 921,-140 778,-140"/>
<text text-anchor="middle" x="849.5" y="-147" font-family="Helvetica,sans-Serif" font-size="10.00" fill="#000000">graf3d/eve/inc/TEveVSD.h</text>
</a>
</g>
</g>
<!-- Node71&#45;&gt;Node80 -->
<g id="edge18" class="edge">
<title>Node71&#45;&gt;Node80</title>
<path fill="none" stroke="#191970" d="M849.5,-196.6079C849.5,-184.214 849.5,-168.8263 849.5,-159.0817"/>
<polygon fill="#191970" stroke="#191970" points="846.0001,-196.9005 849.5,-206.9005 853.0001,-196.9006 846.0001,-196.9005"/>
</g>
<!-- Node82 -->
<g id="node19" class="node">
<title>Node82</title>
<g id="a_node19"><a xlink:href="TEveVSDStructs_8cxx.html" target="_top" xlink:title="graf3d/eve/src/TEveVSDStructs.cxx">
<polygon fill="#ffffff" stroke="#000000" points="220.5,-140 220.5,-159 408.5,-159 408.5,-140 220.5,-140"/>
<text text-anchor="middle" x="314.5" y="-147" font-family="Helvetica,sans-Serif" font-size="10.00" fill="#000000">graf3d/eve/src/TEveVSDStructs.cxx</text>
</a>
</g>
</g>
<!-- Node71&#45;&gt;Node82 -->
<g id="edge21" class="edge">
<title>Node71&#45;&gt;Node82</title>
<path fill="none" stroke="#191970" d="M783.0379,-205.4162C772.8233,-203.8469 762.3888,-202.3205 752.5,-201 604.0715,-181.1791 566.0171,-184.1461 417.5,-165 403.6902,-163.2197 388.8694,-161.1081 374.8953,-159.0255"/>
<polygon fill="#191970" stroke="#191970" points="782.7307,-208.9105 793.1507,-206.9936 783.8097,-201.9941 782.7307,-208.9105"/>
</g>
<!-- Node73 -->
<g id="node10" class="node">
<title>Node73</title>
<g id="a_node10"><a xlink:href="TEveTrackProjected_8h.html" target="_top" xlink:title="graf3d/eve/inc/TEveTrack\lProjected.h">
<polygon fill="#ffffff" stroke="#000000" points="78,-67.5 78,-97.5 217,-97.5 217,-67.5 78,-67.5"/>
<text text-anchor="start" x="86" y="-85.5" font-family="Helvetica,sans-Serif" font-size="10.00" fill="#000000">graf3d/eve/inc/TEveTrack</text>
<text text-anchor="middle" x="147.5" y="-74.5" font-family="Helvetica,sans-Serif" font-size="10.00" fill="#000000">Projected.h</text>
</a>
</g>
</g>
<!-- Node72&#45;&gt;Node73 -->
<g id="edge10" class="edge">
<title>Node72&#45;&gt;Node73</title>
<path fill="none" stroke="#191970" d="M440.3059,-138.0751C378.4961,-126.3434 282.3886,-108.1021 217.2888,-95.746"/>
<polygon fill="#191970" stroke="#191970" points="439.8213,-141.5455 450.2986,-139.9717 441.1267,-134.6683 439.8213,-141.5455"/>
</g>
<!-- Node72&#45;&gt;Node74 -->
<g id="edge14" class="edge">
<title>Node72&#45;&gt;Node74</title>
<path fill="none" stroke="#191970" d="M438.9797,-138.0512C370.9273,-125.0938 270.0511,-104.893 264.5,-98 255.8584,-87.2692 255.4075,-77.3515 264.5,-67 285.003,-43.658 470.9421,-27.7548 580.59,-20.3172"/>
<polygon fill="#191970" stroke="#191970" points="438.7061,-141.5616 449.1832,-139.9866 440.0107,-134.6843 438.7061,-141.5616"/>
</g>
<!-- Node77 -->
<g id="node14" class="node">
<title>Node77</title>
<g id="a_node14"><a xlink:href="TEveTrackEditor_8cxx.html" target="_top" xlink:title="graf3d/eve/src/TEveTrack\lEditor.cxx">
<polygon fill="#ffffff" stroke="#000000" points="588,-67.5 588,-97.5 727,-97.5 727,-67.5 588,-67.5"/>
<text text-anchor="start" x="596" y="-85.5" font-family="Helvetica,sans-Serif" font-size="10.00" fill="#000000">graf3d/eve/src/TEveTrack</text>
<text text-anchor="middle" x="657.5" y="-74.5" font-family="Helvetica,sans-Serif" font-size="10.00" fill="#000000">Editor.cxx</text>
</a>
</g>
</g>
<!-- Node72&#45;&gt;Node77 -->
<g id="edge15" class="edge">
<title>Node72&#45;&gt;Node77</title>
<path fill="none" stroke="#191970" d="M532.4243,-135.8763C558.515,-124.742 595.3585,-109.019 622.2997,-97.5218"/>
<polygon fill="#191970" stroke="#191970" points="530.818,-132.7563 522.9943,-139.9005 533.5656,-139.1946 530.818,-132.7563"/>
</g>
<!-- Node78 -->
<g id="node15" class="node">
<title>Node78</title>
<g id="a_node15"><a xlink:href="TEveTrackGL_8cxx.html" target="_top" xlink:title="graf3d/eve/src/TEveTrack\lGL.cxx">
<polygon fill="#ffffff" stroke="#000000" points="274,-67.5 274,-97.5 413,-97.5 413,-67.5 274,-67.5"/>
<text text-anchor="start" x="282" y="-85.5" font-family="Helvetica,sans-Serif" font-size="10.00" fill="#000000">graf3d/eve/src/TEveTrack</text>
<text text-anchor="middle" x="343.5" y="-74.5" font-family="Helvetica,sans-Serif" font-size="10.00" fill="#000000">GL.cxx</text>
</a>
</g>
</g>
<!-- Node72&#45;&gt;Node78 -->
<g id="edge16" class="edge">
<title>Node72&#45;&gt;Node78</title>
<path fill="none" stroke="#191970" d="M468.5757,-135.8763C442.485,-124.742 405.6415,-109.019 378.7003,-97.5218"/>
<polygon fill="#191970" stroke="#191970" points="467.4344,-139.1946 478.0057,-139.9005 470.182,-132.7563 467.4344,-139.1946"/>
</g>
<!-- Node79 -->
<g id="node16" class="node">
<title>Node79</title>
<g id="a_node16"><a xlink:href="TEveTrackPropagator_8cxx.html" target="_top" xlink:title="graf3d/eve/src/TEveTrack\lPropagator.cxx">
<polygon fill="#ffffff" stroke="#000000" points="431,-67.5 431,-97.5 570,-97.5 570,-67.5 431,-67.5"/>
<text text-anchor="start" x="439" y="-85.5" font-family="Helvetica,sans-Serif" font-size="10.00" fill="#000000">graf3d/eve/src/TEveTrack</text>
<text text-anchor="middle" x="500.5" y="-74.5" font-family="Helvetica,sans-Serif" font-size="10.00" fill="#000000">Propagator.cxx</text>
</a>
</g>
</g>
<!-- Node72&#45;&gt;Node79 -->
<g id="edge17" class="edge">
<title>Node72&#45;&gt;Node79</title>
<path fill="none" stroke="#191970" d="M500.5,-129.7758C500.5,-119.4641 500.5,-107.0437 500.5,-97.5218"/>
<polygon fill="#191970" stroke="#191970" points="497.0001,-129.9005 500.5,-139.9005 504.0001,-129.9006 497.0001,-129.9005"/>
</g>
<!-- Node73&#45;&gt;Node74 -->
<g id="edge11" class="edge">
<title>Node73&#45;&gt;Node74</title>
<path fill="none" stroke="#191970" d="M227.0641,-67.687C228.5542,-67.4523 230.0339,-67.223 231.5,-67 352.9381,-48.5255 494.5462,-32.6142 580.8345,-23.5458"/>
<polygon fill="#191970" stroke="#191970" points="226.4232,-64.2451 217.1149,-69.3053 227.5471,-71.1543 226.4232,-64.2451"/>
</g>
<!-- Node75 -->
<g id="node12" class="node">
<title>Node75</title>
<g id="a_node12"><a xlink:href="TEveTrackProjected_8cxx.html" target="_top" xlink:title="graf3d/eve/src/TEveTrack\lProjected.cxx">
<polygon fill="#ffffff" stroke="#000000" points="157,-.5 157,-30.5 296,-30.5 296,-.5 157,-.5"/>
<text text-anchor="start" x="165" y="-18.5" font-family="Helvetica,sans-Serif" font-size="10.00" fill="#000000">graf3d/eve/src/TEveTrack</text>
<text text-anchor="middle" x="226.5" y="-7.5" font-family="Helvetica,sans-Serif" font-size="10.00" fill="#000000">Projected.cxx</text>
</a>
</g>
</g>
<!-- Node73&#45;&gt;Node75 -->
<g id="edge12" class="edge">
<title>Node73&#45;&gt;Node75</title>
<path fill="none" stroke="#191970" d="M173.1092,-60.7808C184.7146,-50.9383 198.1532,-39.541 208.6446,-30.6432"/>
<polygon fill="#191970" stroke="#191970" points="170.789,-58.1593 165.4263,-67.2967 175.3167,-63.4978 170.789,-58.1593"/>
</g>
<!-- Node76 -->
<g id="node13" class="node">
<title>Node76</title>
<g id="a_node13"><a xlink:href="TEveTrackProjectedGL_8cxx.html" target="_top" xlink:title="graf3d/eve/src/TEveTrack\lProjectedGL.cxx">
<polygon fill="#ffffff" stroke="#000000" points="0,-.5 0,-30.5 139,-30.5 139,-.5 0,-.5"/>
<text text-anchor="start" x="8" y="-18.5" font-family="Helvetica,sans-Serif" font-size="10.00" fill="#000000">graf3d/eve/src/TEveTrack</text>
<text text-anchor="middle" x="69.5" y="-7.5" font-family="Helvetica,sans-Serif" font-size="10.00" fill="#000000">ProjectedGL.cxx</text>
</a>
</g>
</g>
<!-- Node73&#45;&gt;Node76 -->
<g id="edge13" class="edge">
<title>Node73&#45;&gt;Node76</title>
<path fill="none" stroke="#191970" d="M121.884,-60.4965C110.5016,-50.7193 97.3884,-39.4554 87.1294,-30.6432"/>
<polygon fill="#191970" stroke="#191970" points="119.9343,-63.4357 129.8006,-67.2967 124.4955,-58.1257 119.9343,-63.4357"/>
</g>
<!-- Node80&#45;&gt;Node74 -->
<g id="edge19" class="edge">
<title>Node80&#45;&gt;Node74</title>
<path fill="none" stroke="#191970" d="M873.6167,-134.1086C897.1115,-117.2154 926.8113,-89.5045 908.5,-67 887.4765,-41.1622 804.4808,-27.8693 740.2258,-21.3223"/>
<polygon fill="#191970" stroke="#191970" points="871.5884,-131.2557 865.3419,-139.8132 875.5616,-137.0189 871.5884,-131.2557"/>
</g>
<!-- Node81 -->
<g id="node18" class="node">
<title>Node81</title>
<g id="a_node18"><a xlink:href="TEveVSD_8cxx.html" target="_top" xlink:title="graf3d/eve/src/TEveVSD.cxx">
<polygon fill="#ffffff" stroke="#000000" points="745.5,-73 745.5,-92 899.5,-92 899.5,-73 745.5,-73"/>
<text text-anchor="middle" x="822.5" y="-80" font-family="Helvetica,sans-Serif" font-size="10.00" fill="#000000">graf3d/eve/src/TEveVSD.cxx</text>
</a>
</g>
</g>
<!-- Node80&#45;&gt;Node81 -->
<g id="edge20" class="edge">
<title>Node80&#45;&gt;Node81</title>
<path fill="none" stroke="#191970" d="M841.788,-130.3628C836.7433,-117.8444 830.3684,-102.0252 826.3613,-92.0817"/>
<polygon fill="#191970" stroke="#191970" points="838.6474,-131.9336 845.6316,-139.9005 845.1401,-129.3171 838.6474,-131.9336"/>
</g>
<!-- Node88 -->
<g id="node25" class="node">
<title>Node88</title>
<g id="a_node25"><a xlink:href="TMCManager_8h.html" target="_top" xlink:title="montecarlo/vmc/inc\l/TMCManager.h">
<polygon fill="#ffffff" stroke="#000000" points="2255,-134.5 2255,-164.5 2368,-164.5 2368,-134.5 2255,-134.5"/>
<text text-anchor="start" x="2263" y="-152.5" font-family="Helvetica,sans-Serif" font-size="10.00" fill="#000000">montecarlo/vmc/inc</text>
<text text-anchor="middle" x="2311.5" y="-141.5" font-family="Helvetica,sans-Serif" font-size="10.00" fill="#000000">/TMCManager.h</text>
</a>
</g>
</g>
<!-- Node87&#45;&gt;Node88 -->
<g id="edge28" class="edge">
<title>Node87&#45;&gt;Node88</title>
<path fill="none" stroke="#191970" d="M2138.9881,-198.6842C2176.2636,-188.0568 2223.0785,-174.7095 2258.5314,-164.6017"/>
<polygon fill="#191970" stroke="#191970" points="2137.8957,-195.3561 2129.2386,-201.4639 2139.815,-202.0879 2137.8957,-195.3561"/>
</g>
<!-- Node87&#45;&gt;Node89 -->
<g id="edge31" class="edge">
<title>Node87&#45;&gt;Node89</title>
<path fill="none" stroke="#191970" d="M2040.757,-195.6187C2017.2728,-179.1903 1993.5932,-155.5514 2009.5,-134 2022.878,-115.8747 2076.9294,-101.4483 2119.9651,-92.5285"/>
<polygon fill="#191970" stroke="#191970" points="2039.0637,-198.6962 2049.3266,-201.3278 2042.9448,-192.8706 2039.0637,-198.6962"/>
</g>
<!-- Node87&#45;&gt;Node91 -->
<g id="edge32" class="edge">
<title>Node87&#45;&gt;Node91</title>
<path fill="none" stroke="#191970" d="M2079.131,-191.3179C2080.0688,-182.3414 2081.0955,-172.5143 2081.9179,-164.6432"/>
<polygon fill="#191970" stroke="#191970" points="2075.6466,-190.9871 2078.0884,-201.2967 2082.6087,-191.7145 2075.6466,-190.9871"/>
</g>
<!-- Node88&#45;&gt;Node89 -->
<g id="edge29" class="edge">
<title>Node88&#45;&gt;Node89</title>
<path fill="none" stroke="#191970" d="M2272.034,-129.9132C2251.3445,-119.645 2226.3818,-107.2561 2207.1626,-97.7177"/>
<polygon fill="#191970" stroke="#191970" points="2270.6899,-133.1534 2281.2034,-134.4639 2273.8018,-126.8831 2270.6899,-133.1534"/>
</g>
<!-- Node90 -->
<g id="node27" class="node">
<title>Node90</title>
<g id="a_node27"><a xlink:href="TVirtualMCApplication_8cxx.html" target="_top" xlink:title="montecarlo/vmc/src\l/TVirtualMCApplication.cxx">
<polygon fill="#ffffff" stroke="#000000" points="2287.5,-67.5 2287.5,-97.5 2435.5,-97.5 2435.5,-67.5 2287.5,-67.5"/>
<text text-anchor="start" x="2295.5" y="-85.5" font-family="Helvetica,sans-Serif" font-size="10.00" fill="#000000">montecarlo/vmc/src</text>
<text text-anchor="middle" x="2361.5" y="-74.5" font-family="Helvetica,sans-Serif" font-size="10.00" fill="#000000">/TVirtualMCApplication.cxx</text>
</a>
</g>
</g>
<!-- Node88&#45;&gt;Node90 -->
<g id="edge30" class="edge">
<title>Node88&#45;&gt;Node90</title>
<path fill="none" stroke="#191970" d="M2328.9906,-126.0626C2336.0287,-116.6315 2343.9421,-106.0276 2350.1991,-97.6432"/>
<polygon fill="#191970" stroke="#191970" points="2326.0216,-124.189 2322.8458,-134.2967 2331.6317,-128.3756 2326.0216,-124.189"/>
</g>
<!-- Node97&#45;&gt;Node89 -->
<g id="edge48" class="edge">
<title>Node97&#45;&gt;Node89</title>
<path fill="none" stroke="#191970" d="M2230.8247,-258.6171C2217.7914,-216.364 2191.7182,-131.8364 2181.1296,-97.5088"/>
<polygon fill="#191970" stroke="#191970" points="2227.5478,-259.8683 2233.8399,-268.3923 2234.2368,-257.8049 2227.5478,-259.8683"/>
</g>
<!-- Node97&#45;&gt;Node91 -->
<g id="edge49" class="edge">
<title>Node97&#45;&gt;Node91</title>
<path fill="none" stroke="#191970" d="M2213.3321,-261.5741C2194.2039,-244.9269 2167.2268,-221.4849 2143.5,-201 2129.2646,-188.7097 2113.082,-174.8246 2101.1132,-164.5716"/>
<polygon fill="#191970" stroke="#191970" points="2211.1765,-264.338 2221.017,-268.2642 2215.7727,-259.0583 2211.1765,-264.338"/>
</g>
<!-- Node98 -->
<g id="node35" class="node">
<title>Node98</title>
<g id="a_node35"><a xlink:href="TVirtualMC_8h.html" target="_top" xlink:title="montecarlo/vmc/inc\l/TVirtualMC.h">
<polygon fill="#ffffff" stroke="#000000" points="2340,-201.5 2340,-231.5 2453,-231.5 2453,-201.5 2340,-201.5"/>
<text text-anchor="start" x="2348" y="-219.5" font-family="Helvetica,sans-Serif" font-size="10.00" fill="#000000">montecarlo/vmc/inc</text>
<text text-anchor="middle" x="2396.5" y="-208.5" font-family="Helvetica,sans-Serif" font-size="10.00" fill="#000000">/TVirtualMC.h</text>
</a>
</g>
</g>
<!-- Node97&#45;&gt;Node98 -->
<g id="edge43" class="edge">
<title>Node97&#45;&gt;Node98</title>
<path fill="none" stroke="#191970" d="M2283.4202,-264.4516C2307.9748,-254.0392 2337.9636,-241.3224 2360.8871,-231.6017"/>
<polygon fill="#191970" stroke="#191970" points="2281.7983,-261.3376 2273.9583,-268.4639 2284.5312,-267.7821 2281.7983,-261.3376"/>
</g>
<!-- Node98&#45;&gt;Node88 -->
<g id="edge44" class="edge">
<title>Node98&#45;&gt;Node88</title>
<path fill="none" stroke="#191970" d="M2369.3055,-195.0643C2356.7374,-185.1577 2342.1083,-173.6265 2330.7115,-164.6432"/>
<polygon fill="#191970" stroke="#191970" points="2367.1919,-197.8549 2377.2122,-201.2967 2371.5253,-192.3574 2367.1919,-197.8549"/>
</g>
<!-- Node98&#45;&gt;Node90 -->
<g id="edge47" class="edge">
<title>Node98&#45;&gt;Node90</title>
<path fill="none" stroke="#191970" d="M2390.7155,-191.3436C2386.8717,-174.9633 2381.6092,-153.1573 2376.5,-134 2373.2364,-121.7627 2369.207,-107.9929 2366.1465,-97.7725"/>
<polygon fill="#191970" stroke="#191970" points="2387.3437,-192.2964 2393.0207,-201.2419 2394.1612,-190.7087 2387.3437,-192.2964"/>
</g>
<!-- Node99 -->
<g id="node36" class="node">
<title>Node99</title>
<g id="a_node36"><a xlink:href="TMCVerbose_8cxx.html" target="_top" xlink:title="montecarlo/vmc/src\l/TMCVerbose.cxx">
<polygon fill="#ffffff" stroke="#000000" points="2425,-134.5 2425,-164.5 2538,-164.5 2538,-134.5 2425,-134.5"/>
<text text-anchor="start" x="2433" y="-152.5" font-family="Helvetica,sans-Serif" font-size="10.00" fill="#000000">montecarlo/vmc/src</text>
<text text-anchor="middle" x="2481.5" y="-141.5" font-family="Helvetica,sans-Serif" font-size="10.00" fill="#000000">/TMCVerbose.cxx</text>
</a>
</g>
</g>
<!-- Node98&#45;&gt;Node99 -->
<g id="edge45" class="edge">
<title>Node98&#45;&gt;Node99</title>
<path fill="none" stroke="#191970" d="M2423.6945,-195.0643C2436.2626,-185.1577 2450.8917,-173.6265 2462.2885,-164.6432"/>
<polygon fill="#191970" stroke="#191970" points="2421.4747,-192.3574 2415.7878,-201.2967 2425.8081,-197.8549 2421.4747,-192.3574"/>
</g>
<!-- Node100 -->
<g id="node37" class="node">
<title>Node100</title>
<g id="a_node37"><a xlink:href="TVirtualMC_8cxx.html" target="_top" xlink:title="montecarlo/vmc/src\l/TVirtualMC.cxx">
<polygon fill="#ffffff" stroke="#000000" points="2556,-134.5 2556,-164.5 2669,-164.5 2669,-134.5 2556,-134.5"/>
<text text-anchor="start" x="2564" y="-152.5" font-family="Helvetica,sans-Serif" font-size="10.00" fill="#000000">montecarlo/vmc/src</text>
<text text-anchor="middle" x="2612.5" y="-141.5" font-family="Helvetica,sans-Serif" font-size="10.00" fill="#000000">/TVirtualMC.cxx</text>
</a>
</g>
</g>
<!-- Node98&#45;&gt;Node100 -->
<g id="edge46" class="edge">
<title>Node98&#45;&gt;Node100</title>
<path fill="none" stroke="#191970" d="M2454.8126,-198.4123C2488.9292,-187.8298 2531.5048,-174.6235 2563.814,-164.6017"/>
<polygon fill="#191970" stroke="#191970" points="2453.4888,-195.1583 2444.9746,-201.4639 2455.5626,-201.8441 2453.4888,-195.1583"/>
</g>
</g>
</svg>
        <g id="navigator" transform="translate(0 0)" fill="#404254">
                <rect fill="#f2f5e9" fill-opacity="0.5" stroke="#606060" stroke-width=".5" x="0" y="0" width="60" height="60"/>
                <use id="zoomplus" xlink:href="#zoomPlus" x="17" y="9" onmousedown="handleZoom(evt,'in')"/>
                <use id="zoomminus" xlink:href="#zoomMin" x="42" y="9" onmousedown="handleZoom(evt,'out')"/>
                <use id="reset" xlink:href="#resetDef" x="30" y="36" onmousedown="handleReset()"/>
                <g id="arrowUp" xlink:href="#dirArrow" transform="translate(30 24)" onmousedown="handlePan(0,-1)">
                  <use xlink:href="#rim" fill="#404040">
                        <set attributeName="fill" to="#808080" begin="arrowUp.mouseover" end="arrowUp.mouseout"/>
                  </use>
                  <path fill="none" stroke="white" stroke-width="1.5" d="M0,-3.0v7 M-2.5,-0.5L0,-3.0L2.5,-0.5"/>
                </g>
                <g id="arrowRight" xlink:href="#dirArrow" transform="rotate(90) translate(36 -43)" onmousedown="handlePan(1,0)">
                  <use xlink:href="#rim" fill="#404040">
                        <set attributeName="fill" to="#808080" begin="arrowRight.mouseover" end="arrowRight.mouseout"/>
                  </use>
                  <path fill="none" stroke="white" stroke-width="1.5" d="M0,-3.0v7 M-2.5,-0.5L0,-3.0L2.5,-0.5"/>
                </g>
                <g id="arrowDown" xlink:href="#dirArrow" transform="rotate(180) translate(-30 -48)" onmousedown="handlePan(0,1)">
                  <use xlink:href="#rim" fill="#404040">
                        <set attributeName="fill" to="#808080" begin="arrowDown.mouseover" end="arrowDown.mouseout"/>
                  </use>
                  <path fill="none" stroke="white" stroke-width="1.5" d="M0,-3.0v7 M-2.5,-0.5L0,-3.0L2.5,-0.5"/>
                </g>
                <g id="arrowLeft" xlink:href="#dirArrow" transform="rotate(270) translate(-36 17)" onmousedown="handlePan(-1,0)">
                  <use xlink:href="#rim" fill="#404040">
                        <set attributeName="fill" to="#808080" begin="arrowLeft.mouseover" end="arrowLeft.mouseout"/>
                  </use>
                  <path fill="none" stroke="white" stroke-width="1.5" d="M0,-3.0v7 M-2.5,-0.5L0,-3.0L2.5,-0.5"/>
                </g>
        </g>
        <svg viewBox="0 0 15 15" width="100%" height="30px" preserveAspectRatio="xMaxYMin meet">
         <g id="arrow_out" transform="scale(0.3 0.3)">
          <a xlink:href="TLorentzVector_8h__dep__incl_org.svg" target="_base">
           <rect id="button" ry="5" rx="5" y="6" x="6" height="38" width="38"
                fill="#f2f5e9" fill-opacity="0.5" stroke="#606060" stroke-width="1.0"/>
           <path id="arrow"
             d="M 11.500037,31.436501 C 11.940474,20.09759 22.043105,11.32322 32.158766,21.979434 L 37.068811,17.246167 C 37.068811,17.246167 37.088388,32 37.088388,32 L 22.160133,31.978069 C 22.160133,31.978069 26.997745,27.140456 26.997745,27.140456 C 18.528582,18.264221 13.291696,25.230495 11.500037,31.436501 z"
             style="fill:#404040;"/>
          </a>
         </g>
        </svg>
</svg>
