<?xml version="1.0" encoding="UTF-8" standalone="no"?>
<!DOCTYPE svg PUBLIC "-//W3C//DTD SVG 1.1//EN"
 "http://www.w3.org/Graphics/SVG/1.1/DTD/svg11.dtd">
<!-- Generated by graphviz version 2.40.1 (0)
 -->
<!-- Title: math/matrix/inc/TMatrixFBase.h Pages: 1 -->
<svg width="250pt" height="97pt"
 viewBox="0.00 0.00 249.50 96.72" xmlns="http://www.w3.org/2000/svg" xmlns:xlink="http://www.w3.org/1999/xlink">
<g id="graph0" class="graph" transform="scale(1 1) rotate(0) translate(4 92.7185)">
<title>math/matrix/inc/TMatrixFBase.h</title>
<polygon fill="#ffffff" stroke="transparent" points="-4,4 -4,-92.7185 245.5,-92.7185 245.5,4 -4,4"/>
<!-- Node52 -->
<g id="node1" class="node">
<title>Node52</title>
<polygon fill="#bfbfbf" stroke="#000000" points="36.5,-67.5 36.5,-86.5 209.5,-86.5 209.5,-67.5 36.5,-67.5"/>
<text text-anchor="middle" x="123" y="-74.5" font-family="Helvetica,sans-Serif" font-size="10.00" fill="#000000">math/matrix/inc/TMatrixFBase.h</text>
</g>
<!-- Node52&#45;&gt;Node52 -->
<g id="edge3" class="edge">
<title>Node52&#45;&gt;Node52</title>
<path fill="none" stroke="#191970" d="M171.7913,-87.5805C200.5489,-89.8565 227.5,-86.3297 227.5,-77 227.5,-66.5703 193.819,-63.3925 161.5852,-67.4666"/>
<polygon fill="#191970" stroke="#191970" points="171.8902,-84.0723 161.5852,-86.5334 171.1758,-91.0358 171.8902,-84.0723"/>
</g>
<!-- Node53 -->
<g id="node2" class="node">
<title>Node53</title>
<g id="a_node2"><a xlink:href="TH2_8cxx.html" target="_top" xlink:title="hist/hist/src/TH2.cxx">
<polygon fill="#ffffff" stroke="#000000" points="0,-6 0,-25 116,-25 116,-6 0,-6"/>
<text text-anchor="middle" x="58" y="-13" font-family="Helvetica,sans-Serif" font-size="10.00" fill="#000000">hist/hist/src/TH2.cxx</text>
</a>
</g>
</g>
<!-- Node52&#45;&gt;Node53 -->
<g id="edge1" class="edge">
<title>Node52&#45;&gt;Node53</title>
<path fill="none" stroke="#191970" d="M105.2707,-60.2253C93.4095,-49.0028 78.2143,-34.6258 68.2994,-25.2449"/>
<polygon fill="#191970" stroke="#191970" points="103.1743,-63.0602 112.8438,-67.3906 107.9853,-57.9754 103.1743,-63.0602"/>
</g>
<!-- Node54 -->
<g id="node3" class="node">
<title>Node54</title>
<g id="a_node3"><a xlink:href="THistPainter_8cxx.html" target="_top" xlink:title="hist/histpainter/src\l/THistPainter.cxx">
<polygon fill="#ffffff" stroke="#000000" points="134.5,-.5 134.5,-30.5 241.5,-30.5 241.5,-.5 134.5,-.5"/>
<text text-anchor="start" x="142.5" y="-18.5" font-family="Helvetica,sans-Serif" font-size="10.00" fill="#000000">hist/histpainter/src</text>
<text text-anchor="middle" x="188" y="-7.5" font-family="Helvetica,sans-Serif" font-size="10.00" fill="#000000">/THistPainter.cxx</text>
</a>
</g>
</g>
<!-- Node52&#45;&gt;Node54 -->
<g id="edge2" class="edge">
<title>Node52&#45;&gt;Node54</title>
<path fill="none" stroke="#191970" d="M140.4522,-60.4875C150.3012,-51.1689 162.5162,-39.6116 172.0992,-30.5446"/>
<polygon fill="#191970" stroke="#191970" points="138.0147,-57.9754 133.1563,-67.3906 142.8257,-63.0602 138.0147,-57.9754"/>
</g>
</g>
</svg>
