<?xml version="1.0" encoding="UTF-8" standalone="no"?>
<!DOCTYPE svg PUBLIC "-//W3C//DTD SVG 1.1//EN"
 "http://www.w3.org/Graphics/SVG/1.1/DTD/svg11.dtd">
<!-- Generated by graphviz version 2.40.1 (0)
 -->
<!-- Title: bindings/pyroot/src/TMethodHolder.h Pages: 1 -->
<svg width="196pt" height="207pt"
 viewBox="0.00 0.00 196.00 207.00" xmlns="http://www.w3.org/2000/svg" xmlns:xlink="http://www.w3.org/1999/xlink">
<g id="graph0" class="graph" transform="scale(1 1) rotate(0) translate(4 203)">
<title>bindings/pyroot/src/TMethodHolder.h</title>
<polygon fill="#ffffff" stroke="transparent" points="-4,4 -4,-203 192,-203 192,4 -4,4"/>
<!-- Node0 -->
<g id="node1" class="node">
<title>Node0</title>
<polygon fill="#bfbfbf" stroke="#000000" points="61,-168.5 61,-198.5 171,-198.5 171,-168.5 61,-168.5"/>
<text text-anchor="start" x="69" y="-186.5" font-family="Helvetica,sans-Serif" font-size="10.00" fill="#000000">bindings/pyroot/src</text>
<text text-anchor="middle" x="116" y="-175.5" font-family="Helvetica,sans-Serif" font-size="10.00" fill="#000000">/TMethodHolder.h</text>
</g>
<!-- Node1 -->
<g id="node2" class="node">
<title>Node1</title>
<g id="a_node2"><a xlink:href="PyCallable_8h.html" target="_top" xlink:title="PyCallable.h">
<polygon fill="#ffffff" stroke="#000000" points="8.5,-112.5 8.5,-131.5 85.5,-131.5 85.5,-112.5 8.5,-112.5"/>
<text text-anchor="middle" x="47" y="-119.5" font-family="Helvetica,sans-Serif" font-size="10.00" fill="#000000">PyCallable.h</text>
</a>
</g>
</g>
<!-- Node0&#45;&gt;Node1 -->
<g id="edge1" class="edge">
<title>Node0&#45;&gt;Node1</title>
<path fill="none" stroke="#191970" d="M98.9438,-168.2977C88.8671,-159.3163 76.096,-147.9334 65.7389,-138.702"/>
<polygon fill="#191970" stroke="#191970" points="67.8417,-135.8879 58.0478,-131.8469 63.1841,-141.1135 67.8417,-135.8879"/>
</g>
<!-- Node3 -->
<g id="node4" class="node">
<title>Node3</title>
<polygon fill="#ffffff" stroke="#bfbfbf" points="56.5,-.5 56.5,-19.5 103.5,-19.5 103.5,-.5 56.5,-.5"/>
<text text-anchor="middle" x="80" y="-7.5" font-family="Helvetica,sans-Serif" font-size="10.00" fill="#000000">vector</text>
</g>
<!-- Node0&#45;&gt;Node3 -->
<g id="edge5" class="edge">
<title>Node0&#45;&gt;Node3</title>
<path fill="none" stroke="#191970" d="M114.7634,-168.3825C112.5677,-144.3042 107.2263,-95.8889 97,-56 94.6808,-46.9537 91.2281,-37.2147 88.039,-29.0372"/>
<polygon fill="#191970" stroke="#191970" points="91.2474,-27.6354 84.2455,-19.684 84.7606,-30.2663 91.2474,-27.6354"/>
</g>
<!-- Node4 -->
<g id="node5" class="node">
<title>Node4</title>
<polygon fill="#ffffff" stroke="#bfbfbf" points="144,-112.5 144,-131.5 188,-131.5 188,-112.5 144,-112.5"/>
<text text-anchor="middle" x="166" y="-119.5" font-family="Helvetica,sans-Serif" font-size="10.00" fill="#000000">string</text>
</g>
<!-- Node0&#45;&gt;Node4 -->
<g id="edge4" class="edge">
<title>Node0&#45;&gt;Node4</title>
<path fill="none" stroke="#191970" d="M128.3596,-168.2977C135.3724,-159.672 144.186,-148.8312 151.5214,-139.8087"/>
<polygon fill="#191970" stroke="#191970" points="154.4018,-141.8141 157.9944,-131.8469 148.9703,-137.3982 154.4018,-141.8141"/>
</g>
<!-- Node2 -->
<g id="node3" class="node">
<title>Node2</title>
<g id="a_node3"><a xlink:href="TCallContext_8h.html" target="_top" xlink:title="TCallContext.h">
<polygon fill="#ffffff" stroke="#000000" points="0,-56.5 0,-75.5 88,-75.5 88,-56.5 0,-56.5"/>
<text text-anchor="middle" x="44" y="-63.5" font-family="Helvetica,sans-Serif" font-size="10.00" fill="#000000">TCallContext.h</text>
</a>
</g>
</g>
<!-- Node1&#45;&gt;Node2 -->
<g id="edge2" class="edge">
<title>Node1&#45;&gt;Node2</title>
<path fill="none" stroke="#191970" d="M46.4774,-112.2455C46.086,-104.9382 45.5372,-94.6944 45.0556,-85.7046"/>
<polygon fill="#191970" stroke="#191970" points="48.5466,-85.4411 44.5166,-75.6427 41.5566,-85.8156 48.5466,-85.4411"/>
</g>
<!-- Node2&#45;&gt;Node3 -->
<g id="edge3" class="edge">
<title>Node2&#45;&gt;Node3</title>
<path fill="none" stroke="#191970" d="M50.2707,-56.2455C55.2264,-48.5367 62.283,-37.5598 68.2776,-28.2348"/>
<polygon fill="#191970" stroke="#191970" points="71.3376,-29.9471 73.8011,-19.6427 65.4494,-26.1618 71.3376,-29.9471"/>
</g>
</g>
</svg>
