<?xml version="1.0" encoding="UTF-8" standalone="no"?>
<!DOCTYPE svg PUBLIC "-//W3C//DTD SVG 1.1//EN"
 "http://www.w3.org/Graphics/SVG/1.1/DTD/svg11.dtd">
<!-- Generated by graphviz version 2.40.1 (0)
 -->
<!-- Title: hist/hist/inc/TMultiGraph.h Pages: 1 -->
<svg width="3617pt" height="162pt"
 viewBox="0.00 0.00 3616.50 162.00" xmlns="http://www.w3.org/2000/svg" xmlns:xlink="http://www.w3.org/1999/xlink">
<g id="graph0" class="graph" transform="scale(1 1) rotate(0) translate(4 158)">
<title>hist/hist/inc/TMultiGraph.h</title>
<polygon fill="#ffffff" stroke="transparent" points="-4,4 -4,-158 3612.5,-158 3612.5,4 -4,4"/>
<!-- Node85 -->
<g id="node1" class="node">
<title>Node85</title>
<polygon fill="#bfbfbf" stroke="#000000" points="1912.5,-134.5 1912.5,-153.5 2056.5,-153.5 2056.5,-134.5 1912.5,-134.5"/>
<text text-anchor="middle" x="1984.5" y="-141.5" font-family="Helvetica,sans-Serif" font-size="10.00" fill="#000000">hist/hist/inc/TMultiGraph.h</text>
</g>
<!-- Node86 -->
<g id="node2" class="node">
<title>Node86</title>
<g id="a_node2"><a xlink:href="TPad_8cxx.html" target="_top" xlink:title="graf2d/gpad/src/TPad.cxx">
<polygon fill="#ffffff" stroke="#000000" points="0,-73 0,-92 139,-92 139,-73 0,-73"/>
<text text-anchor="middle" x="69.5" y="-80" font-family="Helvetica,sans-Serif" font-size="10.00" fill="#000000">graf2d/gpad/src/TPad.cxx</text>
</a>
</g>
</g>
<!-- Node85&#45;&gt;Node86 -->
<g id="edge1" class="edge">
<title>Node85&#45;&gt;Node86</title>
<path fill="none" stroke="#191970" d="M1902.0677,-143.7831C1591.9599,-142.6796 495.4755,-136.1097 148.5,-98 136.274,-96.6572 123.1184,-94.406 111.117,-92.0296"/>
<polygon fill="#191970" stroke="#191970" points="1902.3157,-147.2839 1912.3278,-143.8186 1902.34,-140.2839 1902.3157,-147.2839"/>
</g>
<!-- Node87 -->
<g id="node3" class="node">
<title>Node87</title>
<g id="a_node3"><a xlink:href="TLegend_8cxx.html" target="_top" xlink:title="graf2d/graf/src/TLegend.cxx">
<polygon fill="#ffffff" stroke="#000000" points="157.5,-73 157.5,-92 309.5,-92 309.5,-73 157.5,-73"/>
<text text-anchor="middle" x="233.5" y="-80" font-family="Helvetica,sans-Serif" font-size="10.00" fill="#000000">graf2d/graf/src/TLegend.cxx</text>
</a>
</g>
</g>
<!-- Node85&#45;&gt;Node87 -->
<g id="edge2" class="edge">
<title>Node85&#45;&gt;Node87</title>
<path fill="none" stroke="#191970" d="M1902.2309,-143.3931C1611.1564,-140.9858 630.8187,-130.5948 318.5,-98 305.5202,-96.6454 291.5457,-94.4213 278.7516,-92.0752"/>
<polygon fill="#191970" stroke="#191970" points="1902.264,-146.8934 1912.2924,-143.4754 1902.3214,-139.8936 1902.264,-146.8934"/>
</g>
<!-- Node88 -->
<g id="node4" class="node">
<title>Node88</title>
<g id="a_node4"><a xlink:href="TGLH2PolyPainter_8cxx.html" target="_top" xlink:title="graf3d/gl/src/TGLH2PolyPainter.cxx">
<polygon fill="#ffffff" stroke="#000000" points="328,-73 328,-92 515,-92 515,-73 328,-73"/>
<text text-anchor="middle" x="421.5" y="-80" font-family="Helvetica,sans-Serif" font-size="10.00" fill="#000000">graf3d/gl/src/TGLH2PolyPainter.cxx</text>
</a>
</g>
</g>
<!-- Node85&#45;&gt;Node88 -->
<g id="edge3" class="edge">
<title>Node85&#45;&gt;Node88</title>
<path fill="none" stroke="#191970" d="M1902.1828,-142.7026C1635.0855,-138.2892 794.2183,-122.7421 523.5,-98 508.0707,-96.5899 491.4229,-94.363 476.1416,-92.0324"/>
<polygon fill="#191970" stroke="#191970" points="1902.143,-146.2023 1912.1993,-142.8673 1902.2582,-139.2033 1902.143,-146.2023"/>
</g>
<!-- Node89 -->
<g id="node5" class="node">
<title>Node89</title>
<g id="a_node5"><a xlink:href="TFitEditor_8cxx.html" target="_top" xlink:title="gui/fitpanel/src/TFitEditor.cxx">
<polygon fill="#ffffff" stroke="#000000" points="533,-73 533,-92 690,-92 690,-73 533,-73"/>
<text text-anchor="middle" x="611.5" y="-80" font-family="Helvetica,sans-Serif" font-size="10.00" fill="#000000">gui/fitpanel/src/TFitEditor.cxx</text>
</a>
</g>
</g>
<!-- Node85&#45;&gt;Node89 -->
<g id="edge4" class="edge">
<title>Node85&#45;&gt;Node89</title>
<path fill="none" stroke="#191970" d="M1901.8093,-142.5392C1656.2658,-137.9638 933.9523,-122.7238 699.5,-98 686.2324,-96.6009 671.9478,-94.3926 658.8269,-92.0766"/>
<polygon fill="#191970" stroke="#191970" points="1902.0288,-146.0438 1912.092,-142.7297 1902.1586,-139.045 1902.0288,-146.0438"/>
</g>
<!-- Node90 -->
<g id="node6" class="node">
<title>Node90</title>
<g id="a_node6"><a xlink:href="TProofProgressMemoryPlot_8cxx.html" target="_top" xlink:title="gui/sessionviewer/src\l/TProofProgressMemoryPlot.cxx">
<polygon fill="#ffffff" stroke="#000000" points="708.5,-67.5 708.5,-97.5 880.5,-97.5 880.5,-67.5 708.5,-67.5"/>
<text text-anchor="start" x="716.5" y="-85.5" font-family="Helvetica,sans-Serif" font-size="10.00" fill="#000000">gui/sessionviewer/src</text>
<text text-anchor="middle" x="794.5" y="-74.5" font-family="Helvetica,sans-Serif" font-size="10.00" fill="#000000">/TProofProgressMemoryPlot.cxx</text>
</a>
</g>
</g>
<!-- Node85&#45;&gt;Node90 -->
<g id="edge5" class="edge">
<title>Node85&#45;&gt;Node90</title>
<path fill="none" stroke="#191970" d="M1902.104,-141.8194C1682.3553,-135.7987 1085.7267,-118.0568 889.5,-98 886.5907,-97.7026 883.6352,-97.3735 880.6535,-97.0183"/>
<polygon fill="#191970" stroke="#191970" points="1902.1885,-145.3229 1912.2803,-142.0972 1902.3795,-138.3255 1902.1885,-145.3229"/>
</g>
<!-- Node91 -->
<g id="node7" class="node">
<title>Node91</title>
<g id="a_node7"><a xlink:href="HFitImpl_8cxx.html" target="_top" xlink:title="hist/hist/src/HFitImpl.cxx">
<polygon fill="#ffffff" stroke="#000000" points="899,-73 899,-92 1036,-92 1036,-73 899,-73"/>
<text text-anchor="middle" x="967.5" y="-80" font-family="Helvetica,sans-Serif" font-size="10.00" fill="#000000">hist/hist/src/HFitImpl.cxx</text>
</a>
</g>
</g>
<!-- Node85&#45;&gt;Node91 -->
<g id="edge6" class="edge">
<title>Node85&#45;&gt;Node91</title>
<path fill="none" stroke="#191970" d="M1902.1967,-141.5254C1705.0788,-135.3469 1210.0975,-118.274 1045.5,-98 1033.7155,-96.5485 1021.0461,-94.3229 1009.4163,-92.0073"/>
<polygon fill="#191970" stroke="#191970" points="1902.1008,-145.024 1912.2051,-141.8378 1902.3192,-138.0274 1902.1008,-145.024"/>
</g>
<!-- Node92 -->
<g id="node8" class="node">
<title>Node92</title>
<g id="a_node8"><a xlink:href="HFitInterface_8cxx.html" target="_top" xlink:title="hist/hist/src/HFitInterface.cxx">
<polygon fill="#ffffff" stroke="#000000" points="1054.5,-73 1054.5,-92 1212.5,-92 1212.5,-73 1054.5,-73"/>
<text text-anchor="middle" x="1133.5" y="-80" font-family="Helvetica,sans-Serif" font-size="10.00" fill="#000000">hist/hist/src/HFitInterface.cxx</text>
</a>
</g>
</g>
<!-- Node85&#45;&gt;Node92 -->
<g id="edge7" class="edge">
<title>Node85&#45;&gt;Node92</title>
<path fill="none" stroke="#191970" d="M1902.2321,-142.1166C1762.078,-138.2209 1468.2062,-127.0675 1221.5,-98 1208.5586,-96.4752 1194.6354,-94.2822 1181.7681,-92.0238"/>
<polygon fill="#191970" stroke="#191970" points="1902.3705,-145.6216 1912.4623,-142.3956 1902.5614,-138.6242 1902.3705,-145.6216"/>
</g>
<!-- Node93 -->
<g id="node9" class="node">
<title>Node93</title>
<g id="a_node9"><a xlink:href="TBackCompFitter_8cxx.html" target="_top" xlink:title="hist/hist/src/TBackCompFitter.cxx">
<polygon fill="#ffffff" stroke="#000000" points="1231,-73 1231,-92 1410,-92 1410,-73 1231,-73"/>
<text text-anchor="middle" x="1320.5" y="-80" font-family="Helvetica,sans-Serif" font-size="10.00" fill="#000000">hist/hist/src/TBackCompFitter.cxx</text>
</a>
</g>
</g>
<!-- Node85&#45;&gt;Node93 -->
<g id="edge8" class="edge">
<title>Node85&#45;&gt;Node93</title>
<path fill="none" stroke="#191970" d="M1902.3423,-139.2816C1792.0393,-132.4995 1590.0813,-118.5114 1418.5,-98 1404.6461,-96.3439 1389.748,-94.184 1375.8535,-92.005"/>
<polygon fill="#191970" stroke="#191970" points="1902.2064,-142.7797 1912.4011,-139.8957 1902.633,-135.7927 1902.2064,-142.7797"/>
</g>
<!-- Node94 -->
<g id="node10" class="node">
<title>Node94</title>
<g id="a_node10"><a xlink:href="TH2Poly_8cxx.html" target="_top" xlink:title="hist/hist/src/TH2Poly.cxx">
<polygon fill="#ffffff" stroke="#000000" points="1428,-73 1428,-92 1563,-92 1563,-73 1428,-73"/>
<text text-anchor="middle" x="1495.5" y="-80" font-family="Helvetica,sans-Serif" font-size="10.00" fill="#000000">hist/hist/src/TH2Poly.cxx</text>
</a>
</g>
</g>
<!-- Node85&#45;&gt;Node94 -->
<g id="edge9" class="edge">
<title>Node85&#45;&gt;Node94</title>
<path fill="none" stroke="#191970" d="M1902.0453,-137.0245C1818.4718,-129.4367 1685.5813,-115.949 1571.5,-98 1560.8581,-96.3257 1549.4455,-94.1841 1538.7831,-92.0309"/>
<polygon fill="#191970" stroke="#191970" points="1901.9665,-140.5315 1912.2403,-137.9431 1902.5947,-133.5597 1901.9665,-140.5315"/>
</g>
<!-- Node95 -->
<g id="node11" class="node">
<title>Node95</title>
<g id="a_node11"><a xlink:href="TMultiGraph_8cxx.html" target="_top" xlink:title="hist/hist/src/TMultiGraph.cxx">
<polygon fill="#ffffff" stroke="#000000" points="1581,-73 1581,-92 1736,-92 1736,-73 1581,-73"/>
<text text-anchor="middle" x="1658.5" y="-80" font-family="Helvetica,sans-Serif" font-size="10.00" fill="#000000">hist/hist/src/TMultiGraph.cxx</text>
</a>
</g>
</g>
<!-- Node85&#45;&gt;Node95 -->
<g id="edge10" class="edge">
<title>Node85&#45;&gt;Node95</title>
<path fill="none" stroke="#191970" d="M1923.8973,-132.5673C1861.9658,-120.8839 1766.8898,-102.9478 1708.9302,-92.0137"/>
<polygon fill="#191970" stroke="#191970" points="1923.4447,-136.0436 1933.9202,-134.4581 1924.7424,-129.1649 1923.4447,-136.0436"/>
</g>
<!-- Node96 -->
<g id="node12" class="node">
<title>Node96</title>
<g id="a_node12"><a xlink:href="TProfile2Poly_8cxx.html" target="_top" xlink:title="hist/hist/src/TProfile2Poly.cxx">
<polygon fill="#ffffff" stroke="#000000" points="1754.5,-73 1754.5,-92 1912.5,-92 1912.5,-73 1754.5,-73"/>
<text text-anchor="middle" x="1833.5" y="-80" font-family="Helvetica,sans-Serif" font-size="10.00" fill="#000000">hist/hist/src/TProfile2Poly.cxx</text>
</a>
</g>
</g>
<!-- Node85&#45;&gt;Node96 -->
<g id="edge11" class="edge">
<title>Node85&#45;&gt;Node96</title>
<path fill="none" stroke="#191970" d="M1951.3427,-130.4955C1922.7692,-118.858 1882.2377,-102.3501 1856.9281,-92.0419"/>
<polygon fill="#191970" stroke="#191970" points="1950.3247,-133.86 1960.9063,-134.3906 1952.9651,-127.3771 1950.3247,-133.86"/>
</g>
<!-- Node97 -->
<g id="node13" class="node">
<title>Node97</title>
<g id="a_node13"><a xlink:href="THistPainter_8cxx.html" target="_top" xlink:title="hist/histpainter/src\l/THistPainter.cxx">
<polygon fill="#ffffff" stroke="#000000" points="1931,-67.5 1931,-97.5 2038,-97.5 2038,-67.5 1931,-67.5"/>
<text text-anchor="start" x="1939" y="-85.5" font-family="Helvetica,sans-Serif" font-size="10.00" fill="#000000">hist/histpainter/src</text>
<text text-anchor="middle" x="1984.5" y="-74.5" font-family="Helvetica,sans-Serif" font-size="10.00" fill="#000000">/THistPainter.cxx</text>
</a>
</g>
</g>
<!-- Node85&#45;&gt;Node97 -->
<g id="edge12" class="edge">
<title>Node85&#45;&gt;Node97</title>
<path fill="none" stroke="#191970" d="M1984.5,-124.3693C1984.5,-115.681 1984.5,-105.6241 1984.5,-97.5446"/>
<polygon fill="#191970" stroke="#191970" points="1981.0001,-124.3906 1984.5,-134.3906 1988.0001,-124.3907 1981.0001,-124.3906"/>
</g>
<!-- Node98 -->
<g id="node14" class="node">
<title>Node98</title>
<g id="a_node14"><a xlink:href="TFitter_8cxx.html" target="_top" xlink:title="math/minuit/src/TFitter.cxx">
<polygon fill="#ffffff" stroke="#000000" points="2056,-73 2056,-92 2203,-92 2203,-73 2056,-73"/>
<text text-anchor="middle" x="2129.5" y="-80" font-family="Helvetica,sans-Serif" font-size="10.00" fill="#000000">math/minuit/src/TFitter.cxx</text>
</a>
</g>
</g>
<!-- Node85&#45;&gt;Node98 -->
<g id="edge13" class="edge">
<title>Node85&#45;&gt;Node98</title>
<path fill="none" stroke="#191970" d="M2016.6999,-130.3428C2044.1176,-118.7139 2082.805,-102.3051 2107.0028,-92.0419"/>
<polygon fill="#191970" stroke="#191970" points="2014.9958,-127.2637 2007.1563,-134.3906 2017.7291,-133.708 2014.9958,-127.2637"/>
</g>
<!-- Node99 -->
<g id="node15" class="node">
<title>Node99</title>
<g id="a_node15"><a xlink:href="TLinearFitter_8cxx.html" target="_top" xlink:title="math/minuit/src/TLinearFitter.cxx">
<polygon fill="#ffffff" stroke="#000000" points="2221,-73 2221,-92 2398,-92 2398,-73 2221,-73"/>
<text text-anchor="middle" x="2309.5" y="-80" font-family="Helvetica,sans-Serif" font-size="10.00" fill="#000000">math/minuit/src/TLinearFitter.cxx</text>
</a>
</g>
</g>
<!-- Node85&#45;&gt;Node99 -->
<g id="edge14" class="edge">
<title>Node85&#45;&gt;Node99</title>
<path fill="none" stroke="#191970" d="M2044.9168,-132.5673C2106.6583,-120.8839 2201.4426,-102.9478 2259.2245,-92.0137"/>
<polygon fill="#191970" stroke="#191970" points="2044.0995,-129.1597 2034.9247,-134.4581 2045.4011,-136.0377 2044.0995,-129.1597"/>
</g>
<!-- Node100 -->
<g id="node16" class="node">
<title>Node100</title>
<g id="a_node16"><a xlink:href="TMultiLayerPerceptron_8cxx.html" target="_top" xlink:title="math/mlp/src/TMultiLayer\lPerceptron.cxx">
<polygon fill="#ffffff" stroke="#000000" points="2416,-67.5 2416,-97.5 2557,-97.5 2557,-67.5 2416,-67.5"/>
<text text-anchor="start" x="2424" y="-85.5" font-family="Helvetica,sans-Serif" font-size="10.00" fill="#000000">math/mlp/src/TMultiLayer</text>
<text text-anchor="middle" x="2486.5" y="-74.5" font-family="Helvetica,sans-Serif" font-size="10.00" fill="#000000">Perceptron.cxx</text>
</a>
</g>
</g>
<!-- Node85&#45;&gt;Node100 -->
<g id="edge15" class="edge">
<title>Node85&#45;&gt;Node100</title>
<path fill="none" stroke="#191970" d="M2066.9277,-137.0499C2152.1797,-129.3855 2289.0346,-115.7504 2406.5,-98 2409.5774,-97.535 2412.7168,-97.0354 2415.8846,-96.5106"/>
<polygon fill="#191970" stroke="#191970" points="2066.4408,-133.5794 2056.7917,-137.9549 2067.0634,-140.5517 2066.4408,-133.5794"/>
</g>
<!-- Node101 -->
<g id="node17" class="node">
<title>Node101</title>
<g id="a_node17"><a xlink:href="Classification_8h.html" target="_top" xlink:title="tmva/tmva/inc/TMVA\l/Classification.h">
<polygon fill="#ffffff" stroke="#000000" points="2613.5,-67.5 2613.5,-97.5 2731.5,-97.5 2731.5,-67.5 2613.5,-67.5"/>
<text text-anchor="start" x="2621.5" y="-85.5" font-family="Helvetica,sans-Serif" font-size="10.00" fill="#000000">tmva/tmva/inc/TMVA</text>
<text text-anchor="middle" x="2672.5" y="-74.5" font-family="Helvetica,sans-Serif" font-size="10.00" fill="#000000">/Classification.h</text>
</a>
</g>
</g>
<!-- Node85&#45;&gt;Node101 -->
<g id="edge16" class="edge">
<title>Node85&#45;&gt;Node101</title>
<path fill="none" stroke="#191970" d="M2066.871,-141.3609C2185.2205,-136.7717 2409.9973,-125.0801 2599.5,-98 2603.989,-97.3585 2608.6151,-96.6027 2613.2569,-95.7758"/>
<polygon fill="#191970" stroke="#191970" points="2066.6573,-137.8664 2056.7976,-141.7443 2066.9235,-144.8613 2066.6573,-137.8664"/>
</g>
<!-- Node102 -->
<g id="node18" class="node">
<title>Node102</title>
<g id="a_node18"><a xlink:href="Classification_8cxx.html" target="_top" xlink:title="tmva/tmva/src/Classification.cxx">
<polygon fill="#ffffff" stroke="#000000" points="2421.5,-6 2421.5,-25 2597.5,-25 2597.5,-6 2421.5,-6"/>
<text text-anchor="middle" x="2509.5" y="-13" font-family="Helvetica,sans-Serif" font-size="10.00" fill="#000000">tmva/tmva/src/Classification.cxx</text>
</a>
</g>
</g>
<!-- Node85&#45;&gt;Node102 -->
<g id="edge23" class="edge">
<title>Node85&#45;&gt;Node102</title>
<path fill="none" stroke="#191970" d="M2066.7297,-140.4101C2222.9887,-133.1878 2548.8283,-116.0439 2565.5,-98 2587.4682,-74.2238 2547.4615,-41.1624 2524.2994,-25.0675"/>
<polygon fill="#191970" stroke="#191970" points="2066.5164,-136.9161 2056.6875,-140.8713 2066.8376,-143.9087 2066.5164,-136.9161"/>
</g>
<!-- Node104 -->
<g id="node20" class="node">
<title>Node104</title>
<g id="a_node20"><a xlink:href="CrossValidation_8h.html" target="_top" xlink:title="tmva/tmva/inc/TMVA\l/CrossValidation.h">
<polygon fill="#ffffff" stroke="#000000" points="2749.5,-67.5 2749.5,-97.5 2867.5,-97.5 2867.5,-67.5 2749.5,-67.5"/>
<text text-anchor="start" x="2757.5" y="-85.5" font-family="Helvetica,sans-Serif" font-size="10.00" fill="#000000">tmva/tmva/inc/TMVA</text>
<text text-anchor="middle" x="2808.5" y="-74.5" font-family="Helvetica,sans-Serif" font-size="10.00" fill="#000000">/CrossValidation.h</text>
</a>
</g>
</g>
<!-- Node85&#45;&gt;Node104 -->
<g id="edge19" class="edge">
<title>Node85&#45;&gt;Node104</title>
<path fill="none" stroke="#191970" d="M2066.7157,-140.6974C2234.7501,-133.6681 2612.4664,-116.3617 2740.5,-98 2743.3766,-97.5875 2746.3115,-97.116 2749.2684,-96.6004"/>
<polygon fill="#191970" stroke="#191970" points="2066.5297,-137.202 2056.6841,-141.1152 2066.8211,-144.1959 2066.5297,-137.202"/>
</g>
<!-- Node106 -->
<g id="node22" class="node">
<title>Node106</title>
<g id="a_node22"><a xlink:href="HyperParameterOptimisation_8h.html" target="_top" xlink:title="tmva/tmva/inc/TMVA\l/HyperParameterOptimisation.h">
<polygon fill="#ffffff" stroke="#000000" points="2886,-67.5 2886,-97.5 3057,-97.5 3057,-67.5 2886,-67.5"/>
<text text-anchor="start" x="2894" y="-85.5" font-family="Helvetica,sans-Serif" font-size="10.00" fill="#000000">tmva/tmva/inc/TMVA</text>
<text text-anchor="middle" x="2971.5" y="-74.5" font-family="Helvetica,sans-Serif" font-size="10.00" fill="#000000">/HyperParameterOptimisation.h</text>
</a>
</g>
</g>
<!-- Node85&#45;&gt;Node106 -->
<g id="edge21" class="edge">
<title>Node85&#45;&gt;Node106</title>
<path fill="none" stroke="#191970" d="M2066.7779,-142.784C2224.353,-139.7853 2579.4676,-129.7927 2876.5,-98 2879.574,-97.671 2882.6998,-97.3086 2885.854,-96.9193"/>
<polygon fill="#191970" stroke="#191970" points="2066.6203,-139.2863 2056.6871,-142.9716 2066.7505,-146.285 2066.6203,-139.2863"/>
</g>
<!-- Node107 -->
<g id="node23" class="node">
<title>Node107</title>
<g id="a_node23"><a xlink:href="HyperParameterOptimisation_8cxx.html" target="_top" xlink:title="tmva/tmva/src/HyperParameter\lOptimisation.cxx">
<polygon fill="#ffffff" stroke="#000000" points="2991.5,-.5 2991.5,-30.5 3161.5,-30.5 3161.5,-.5 2991.5,-.5"/>
<text text-anchor="start" x="2999.5" y="-18.5" font-family="Helvetica,sans-Serif" font-size="10.00" fill="#000000">tmva/tmva/src/HyperParameter</text>
<text text-anchor="middle" x="3076.5" y="-7.5" font-family="Helvetica,sans-Serif" font-size="10.00" fill="#000000">Optimisation.cxx</text>
</a>
</g>
</g>
<!-- Node85&#45;&gt;Node107 -->
<g id="edge25" class="edge">
<title>Node85&#45;&gt;Node107</title>
<path fill="none" stroke="#191970" d="M2067.1751,-143.3793C2313.8688,-141.1492 3029.9698,-131.7819 3066.5,-98 3084.8253,-81.0534 3082.9496,-49.3351 3079.807,-30.5491"/>
<polygon fill="#191970" stroke="#191970" points="2066.8073,-139.8823 2056.8388,-143.471 2066.8695,-146.882 2066.8073,-139.8823"/>
</g>
<!-- Node108 -->
<g id="node24" class="node">
<title>Node108</title>
<g id="a_node24"><a xlink:href="tmva_2tmva_2src_2Factory_8cxx.html" target="_top" xlink:title="tmva/tmva/src/Factory.cxx">
<polygon fill="#ffffff" stroke="#000000" points="3114,-73 3114,-92 3259,-92 3259,-73 3114,-73"/>
<text text-anchor="middle" x="3186.5" y="-80" font-family="Helvetica,sans-Serif" font-size="10.00" fill="#000000">tmva/tmva/src/Factory.cxx</text>
</a>
</g>
</g>
<!-- Node85&#45;&gt;Node108 -->
<g id="edge24" class="edge">
<title>Node85&#45;&gt;Node108</title>
<path fill="none" stroke="#191970" d="M2066.8301,-142.048C2289.3341,-136.5418 2899.3675,-119.855 3099.5,-98 3112.6162,-96.5677 3126.7382,-94.3485 3139.7101,-92.0327"/>
<polygon fill="#191970" stroke="#191970" points="2066.4415,-138.5565 2056.5307,-142.3018 2066.6139,-145.5543 2066.4415,-138.5565"/>
</g>
<!-- Node109 -->
<g id="node25" class="node">
<title>Node109</title>
<g id="a_node25"><a xlink:href="MethodBase_8cxx.html" target="_top" xlink:title="tmva/tmva/src/MethodBase.cxx">
<polygon fill="#ffffff" stroke="#000000" points="3277,-73 3277,-92 3448,-92 3448,-73 3277,-73"/>
<text text-anchor="middle" x="3362.5" y="-80" font-family="Helvetica,sans-Serif" font-size="10.00" fill="#000000">tmva/tmva/src/MethodBase.cxx</text>
</a>
</g>
</g>
<!-- Node85&#45;&gt;Node109 -->
<g id="edge26" class="edge">
<title>Node85&#45;&gt;Node109</title>
<path fill="none" stroke="#191970" d="M2067.1143,-142.4202C2312.4328,-137.5103 3034.0988,-121.4278 3268.5,-98 3282.6537,-96.5854 3297.9062,-94.372 3311.9219,-92.0561"/>
<polygon fill="#191970" stroke="#191970" points="2066.7693,-138.9263 2056.841,-142.6249 2066.9088,-145.9249 2066.7693,-138.9263"/>
</g>
<!-- Node110 -->
<g id="node26" class="node">
<title>Node110</title>
<g id="a_node26"><a xlink:href="HypoTestInverterPlot_8cxx.html" target="_top" xlink:title="roofit/roostats/src\l/HypoTestInverterPlot.cxx">
<polygon fill="#ffffff" stroke="#000000" points="3466.5,-67.5 3466.5,-97.5 3608.5,-97.5 3608.5,-67.5 3466.5,-67.5"/>
<text text-anchor="start" x="3474.5" y="-85.5" font-family="Helvetica,sans-Serif" font-size="10.00" fill="#000000">roofit/roostats/src</text>
<text text-anchor="middle" x="3537.5" y="-74.5" font-family="Helvetica,sans-Serif" font-size="10.00" fill="#000000">/HypoTestInverterPlot.cxx</text>
</a>
</g>
</g>
<!-- Node85&#45;&gt;Node110 -->
<g id="edge27" class="edge">
<title>Node85&#45;&gt;Node110</title>
<path fill="none" stroke="#191970" d="M2066.6091,-143.1678C2335.0122,-140.1754 3184.8048,-128.4766 3457.5,-98 3460.4525,-97.67 3463.459,-97.2899 3466.4907,-96.87"/>
<polygon fill="#191970" stroke="#191970" points="2066.5068,-139.6687 2056.5461,-143.279 2066.5842,-146.6682 2066.5068,-139.6687"/>
</g>
<!-- Node101&#45;&gt;Node102 -->
<g id="edge17" class="edge">
<title>Node101&#45;&gt;Node102</title>
<path fill="none" stroke="#191970" d="M2626.3352,-63.5243C2595.8414,-50.99 2557.1632,-35.0916 2532.8648,-25.1039"/>
<polygon fill="#191970" stroke="#191970" points="2625.3398,-66.8992 2635.9196,-67.4639 2628.0011,-60.4248 2625.3398,-66.8992"/>
</g>
<!-- Node103 -->
<g id="node19" class="node">
<title>Node103</title>
<g id="a_node19"><a xlink:href="classification_8C.html" target="_top" xlink:title=" &lt;a href=&quot;http://nbviewer.jupyter.org/url/root.cern.ch/doc/master/notebooks/classification.C.nbconvert.ipynb&quot; target=&quot;_blank&quot;&gt;&lt;img src= notebook.gif alt=&quot;View in nbviewer&quot; style=&quot;height:1em&quot; &gt;&lt;/a&gt; &lt;a href=&quot;https://cern.ch/swanserver/cgi&#45;bin/go?projurl=https://root.cern.ch/doc/master/notebooks/classification.C.nbconvert.ipynb&quot; target=&quot;_blank&quot;&gt;&lt;img src=&quot;http://swanserver.web.cern.ch/swanserver/images/badge_swan_white_150.png&quot; &#160;alt=&quot;Open in SWAN&quot; style=&quot;height:1em&quot; &gt;&lt;/a&gt; &#160;">
<polygon fill="#ffffff" stroke="#000000" points="2615.5,-.5 2615.5,-30.5 2749.5,-30.5 2749.5,-.5 2615.5,-.5"/>
<text text-anchor="start" x="2623.5" y="-18.5" font-family="Helvetica,sans-Serif" font-size="10.00" fill="#000000">tutorials/tmva/envelope</text>
<text text-anchor="middle" x="2682.5" y="-7.5" font-family="Helvetica,sans-Serif" font-size="10.00" fill="#000000">/classification.C</text>
</a>
</g>
</g>
<!-- Node101&#45;&gt;Node103 -->
<g id="edge18" class="edge">
<title>Node101&#45;&gt;Node103</title>
<path fill="none" stroke="#191970" d="M2676.2585,-57.3179C2677.5983,-48.3414 2679.065,-38.5143 2680.2398,-30.6432"/>
<polygon fill="#191970" stroke="#191970" points="2672.7838,-56.8895 2674.7692,-67.2967 2679.7071,-57.9229 2672.7838,-56.8895"/>
</g>
<!-- Node105 -->
<g id="node21" class="node">
<title>Node105</title>
<g id="a_node21"><a xlink:href="CrossValidation_8cxx.html" target="_top" xlink:title="tmva/tmva/src/CrossValidation.cxx">
<polygon fill="#ffffff" stroke="#000000" points="2768,-6 2768,-25 2955,-25 2955,-6 2768,-6"/>
<text text-anchor="middle" x="2861.5" y="-13" font-family="Helvetica,sans-Serif" font-size="10.00" fill="#000000">tmva/tmva/src/CrossValidation.cxx</text>
</a>
</g>
</g>
<!-- Node104&#45;&gt;Node105 -->
<g id="edge20" class="edge">
<title>Node104&#45;&gt;Node105</title>
<path fill="none" stroke="#191970" d="M2826.9436,-59.1845C2836.2103,-47.47 2846.9294,-33.9195 2853.9416,-25.055"/>
<polygon fill="#191970" stroke="#191970" points="2823.9856,-57.2824 2820.5265,-67.2967 2829.4756,-61.6252 2823.9856,-57.2824"/>
</g>
<!-- Node106&#45;&gt;Node107 -->
<g id="edge22" class="edge">
<title>Node106&#45;&gt;Node107</title>
<path fill="none" stroke="#191970" d="M3003.5076,-62.0761C3019.3339,-51.9774 3038.1071,-39.9983 3052.6513,-30.7177"/>
<polygon fill="#191970" stroke="#191970" points="3001.6113,-59.1342 2995.064,-67.4639 3005.3768,-65.0352 3001.6113,-59.1342"/>
</g>
</g>
</svg>
