<?xml version="1.0" encoding="UTF-8" standalone="no"?>
<!DOCTYPE svg PUBLIC "-//W3C//DTD SVG 1.1//EN"
 "http://www.w3.org/Graphics/SVG/1.1/DTD/svg11.dtd">
<!-- Generated by graphviz version 2.40.1 (0)
 -->
<!-- Title: tree/tree/inc/TNtuple.h Pages: 1 -->
<svg width="1198pt" height="95pt"
 viewBox="0.00 0.00 1198.00 95.00" xmlns="http://www.w3.org/2000/svg" xmlns:xlink="http://www.w3.org/1999/xlink">
<g id="graph0" class="graph" transform="scale(1 1) rotate(0) translate(4 91)">
<title>tree/tree/inc/TNtuple.h</title>
<polygon fill="#ffffff" stroke="transparent" points="-4,4 -4,-91 1194,-91 1194,4 -4,4"/>
<!-- Node87 -->
<g id="node1" class="node">
<title>Node87</title>
<polygon fill="#bfbfbf" stroke="#000000" points="539.5,-67.5 539.5,-86.5 665.5,-86.5 665.5,-67.5 539.5,-67.5"/>
<text text-anchor="middle" x="602.5" y="-74.5" font-family="Helvetica,sans-Serif" font-size="10.00" fill="#000000">tree/tree/inc/TNtuple.h</text>
</g>
<!-- Node88 -->
<g id="node2" class="node">
<title>Node88</title>
<g id="a_node2"><a xlink:href="TGeoChecker_8cxx.html" target="_top" xlink:title="geom/geompainter/src\l/TGeoChecker.cxx">
<polygon fill="#ffffff" stroke="#000000" points="0,-.5 0,-30.5 127,-30.5 127,-.5 0,-.5"/>
<text text-anchor="start" x="8" y="-18.5" font-family="Helvetica,sans-Serif" font-size="10.00" fill="#000000">geom/geompainter/src</text>
<text text-anchor="middle" x="63.5" y="-7.5" font-family="Helvetica,sans-Serif" font-size="10.00" fill="#000000">/TGeoChecker.cxx</text>
</a>
</g>
</g>
<!-- Node87&#45;&gt;Node88 -->
<g id="edge1" class="edge">
<title>Node87&#45;&gt;Node88</title>
<path fill="none" stroke="#191970" d="M529.0664,-72.3633C436.8032,-65.9423 273.7904,-52.6244 135.5,-31 132.7208,-30.5654 129.8875,-30.0911 127.03,-29.587"/>
<polygon fill="#191970" stroke="#191970" points="528.9225,-75.8616 539.1392,-73.0564 529.4031,-68.8781 528.9225,-75.8616"/>
</g>
<!-- Node89 -->
<g id="node3" class="node">
<title>Node89</title>
<g id="a_node3"><a xlink:href="TProofProgressDialog_8cxx.html" target="_top" xlink:title="gui/sessionviewer/src\l/TProofProgressDialog.cxx">
<polygon fill="#ffffff" stroke="#000000" points="145,-.5 145,-30.5 290,-30.5 290,-.5 145,-.5"/>
<text text-anchor="start" x="153" y="-18.5" font-family="Helvetica,sans-Serif" font-size="10.00" fill="#000000">gui/sessionviewer/src</text>
<text text-anchor="middle" x="217.5" y="-7.5" font-family="Helvetica,sans-Serif" font-size="10.00" fill="#000000">/TProofProgressDialog.cxx</text>
</a>
</g>
</g>
<!-- Node87&#45;&gt;Node89 -->
<g id="edge2" class="edge">
<title>Node87&#45;&gt;Node89</title>
<path fill="none" stroke="#191970" d="M529.4404,-66.6642C467.9948,-57.7904 377.8784,-44.3527 299.5,-31 296.5007,-30.489 293.4417,-29.9576 290.3529,-29.4125"/>
<polygon fill="#191970" stroke="#191970" points="529.032,-70.1414 539.4289,-68.103 530.0301,-63.2129 529.032,-70.1414"/>
</g>
<!-- Node90 -->
<g id="node4" class="node">
<title>Node90</title>
<g id="a_node4"><a xlink:href="TVirtualPacketizer_8cxx.html" target="_top" xlink:title="proof/proofplayer/src\l/TVirtualPacketizer.cxx">
<polygon fill="#ffffff" stroke="#000000" points="308.5,-.5 308.5,-30.5 436.5,-30.5 436.5,-.5 308.5,-.5"/>
<text text-anchor="start" x="316.5" y="-18.5" font-family="Helvetica,sans-Serif" font-size="10.00" fill="#000000">proof/proofplayer/src</text>
<text text-anchor="middle" x="372.5" y="-7.5" font-family="Helvetica,sans-Serif" font-size="10.00" fill="#000000">/TVirtualPacketizer.cxx</text>
</a>
</g>
</g>
<!-- Node87&#45;&gt;Node90 -->
<g id="edge3" class="edge">
<title>Node87&#45;&gt;Node90</title>
<path fill="none" stroke="#191970" d="M556.8698,-64.7989C520.1093,-54.9694 468.2497,-41.1026 428.8908,-30.5784"/>
<polygon fill="#191970" stroke="#191970" points="556.2501,-68.2561 566.8149,-67.4581 558.0584,-61.4937 556.2501,-68.2561"/>
</g>
<!-- Node91 -->
<g id="node5" class="node">
<title>Node91</title>
<g id="a_node5"><a xlink:href="TNtuple_8cxx.html" target="_top" xlink:title="tree/tree/src/TNtuple.cxx">
<polygon fill="#ffffff" stroke="#000000" points="455,-6 455,-25 592,-25 592,-6 455,-6"/>
<text text-anchor="middle" x="523.5" y="-13" font-family="Helvetica,sans-Serif" font-size="10.00" fill="#000000">tree/tree/src/TNtuple.cxx</text>
</a>
</g>
</g>
<!-- Node87&#45;&gt;Node91 -->
<g id="edge4" class="edge">
<title>Node87&#45;&gt;Node91</title>
<path fill="none" stroke="#191970" d="M582.1387,-61.1491C567.46,-49.722 548.1312,-34.6749 535.7571,-25.0419"/>
<polygon fill="#191970" stroke="#191970" points="580.1154,-64.0095 590.1563,-67.3906 584.4154,-58.4859 580.1154,-64.0095"/>
</g>
<!-- Node92 -->
<g id="node6" class="node">
<title>Node92</title>
<g id="a_node6"><a xlink:href="TreeUtils_8cxx.html" target="_top" xlink:title="tree/tree/src/TreeUtils.cxx">
<polygon fill="#ffffff" stroke="#000000" points="610.5,-6 610.5,-25 752.5,-25 752.5,-6 610.5,-6"/>
<text text-anchor="middle" x="681.5" y="-13" font-family="Helvetica,sans-Serif" font-size="10.00" fill="#000000">tree/tree/src/TreeUtils.cxx</text>
</a>
</g>
</g>
<!-- Node87&#45;&gt;Node92 -->
<g id="edge5" class="edge">
<title>Node87&#45;&gt;Node92</title>
<path fill="none" stroke="#191970" d="M622.8613,-61.1491C637.54,-49.722 656.8688,-34.6749 669.2429,-25.0419"/>
<polygon fill="#191970" stroke="#191970" points="620.5846,-58.4859 614.8438,-67.3906 624.8846,-64.0095 620.5846,-58.4859"/>
</g>
<!-- Node93 -->
<g id="node7" class="node">
<title>Node93</title>
<g id="a_node7"><a xlink:href="TTreeReaderValue_8cxx.html" target="_top" xlink:title="tree/treeplayer/src\l/TTreeReaderValue.cxx">
<polygon fill="#ffffff" stroke="#000000" points="771,-.5 771,-30.5 898,-30.5 898,-.5 771,-.5"/>
<text text-anchor="start" x="779" y="-18.5" font-family="Helvetica,sans-Serif" font-size="10.00" fill="#000000">tree/treeplayer/src</text>
<text text-anchor="middle" x="834.5" y="-7.5" font-family="Helvetica,sans-Serif" font-size="10.00" fill="#000000">/TTreeReaderValue.cxx</text>
</a>
</g>
</g>
<!-- Node87&#45;&gt;Node93 -->
<g id="edge6" class="edge">
<title>Node87&#45;&gt;Node93</title>
<path fill="none" stroke="#191970" d="M648.527,-64.7989C685.6072,-54.9694 737.9177,-41.1026 777.6188,-30.5784"/>
<polygon fill="#191970" stroke="#191970" points="647.2647,-61.5125 638.4954,-67.4581 649.0584,-68.2788 647.2647,-61.5125"/>
</g>
<!-- Node94 -->
<g id="node8" class="node">
<title>Node94</title>
<g id="a_node8"><a xlink:href="TTreeReaderValueFast_8cxx.html" target="_top" xlink:title="tree/treeplayer/src\l/TTreeReaderValueFast.cxx">
<polygon fill="#ffffff" stroke="#000000" points="916.5,-.5 916.5,-30.5 1062.5,-30.5 1062.5,-.5 916.5,-.5"/>
<text text-anchor="start" x="924.5" y="-18.5" font-family="Helvetica,sans-Serif" font-size="10.00" fill="#000000">tree/treeplayer/src</text>
<text text-anchor="middle" x="989.5" y="-7.5" font-family="Helvetica,sans-Serif" font-size="10.00" fill="#000000">/TTreeReaderValueFast.cxx</text>
</a>
</g>
</g>
<!-- Node87&#45;&gt;Node94 -->
<g id="edge7" class="edge">
<title>Node87&#45;&gt;Node94</title>
<path fill="none" stroke="#191970" d="M675.7506,-66.7311C737.6098,-57.8727 828.4843,-44.4218 907.5,-31 910.3567,-30.5148 913.2676,-30.0107 916.2066,-29.4938"/>
<polygon fill="#191970" stroke="#191970" points="675.101,-63.2883 665.6964,-68.1671 676.0908,-70.218 675.101,-63.2883"/>
</g>
<!-- Node95 -->
<g id="node9" class="node">
<title>Node95</title>
<g id="a_node9"><a xlink:href="TSpider_8cxx.html" target="_top" xlink:title="tree/treeviewer/src\l/TSpider.cxx">
<polygon fill="#ffffff" stroke="#000000" points="1081,-.5 1081,-30.5 1190,-30.5 1190,-.5 1081,-.5"/>
<text text-anchor="start" x="1089" y="-18.5" font-family="Helvetica,sans-Serif" font-size="10.00" fill="#000000">tree/treeviewer/src</text>
<text text-anchor="middle" x="1135.5" y="-7.5" font-family="Helvetica,sans-Serif" font-size="10.00" fill="#000000">/TSpider.cxx</text>
</a>
</g>
</g>
<!-- Node87&#45;&gt;Node95 -->
<g id="edge8" class="edge">
<title>Node87&#45;&gt;Node95</title>
<path fill="none" stroke="#191970" d="M675.9523,-72.9836C768.6374,-67.1859 932.7127,-54.4939 1071.5,-31 1074.5434,-30.4848 1077.6568,-29.9059 1080.7915,-29.2824"/>
<polygon fill="#191970" stroke="#191970" points="675.6007,-69.4985 665.8348,-73.6068 676.0311,-76.4853 675.6007,-69.4985"/>
</g>
</g>
</svg>
