<?xml version="1.0" encoding="UTF-8" standalone="no"?>
<!DOCTYPE svg PUBLIC "-//W3C//DTD SVG 1.1//EN"
 "http://www.w3.org/Graphics/SVG/1.1/DTD/svg11.dtd">
<!-- Generated by graphviz version 2.40.1 (0)
 -->
<!-- Title: sql/oracle/inc/TOracleStatement.h Pages: 1 -->
<svg width="392pt" height="84pt"
 viewBox="0.00 0.00 392.00 84.00" xmlns="http://www.w3.org/2000/svg" xmlns:xlink="http://www.w3.org/1999/xlink">
<g id="graph0" class="graph" transform="scale(1 1) rotate(0) translate(4 80)">
<title>sql/oracle/inc/TOracleStatement.h</title>
<polygon fill="#ffffff" stroke="transparent" points="-4,4 -4,-80 388,-80 388,4 -4,4"/>
<!-- Node48 -->
<g id="node1" class="node">
<title>Node48</title>
<polygon fill="#bfbfbf" stroke="#000000" points="95.5,-56.5 95.5,-75.5 277.5,-75.5 277.5,-56.5 95.5,-56.5"/>
<text text-anchor="middle" x="186.5" y="-63.5" font-family="Helvetica,sans-Serif" font-size="10.00" fill="#000000">sql/oracle/inc/TOracleStatement.h</text>
</g>
<!-- Node49 -->
<g id="node2" class="node">
<title>Node49</title>
<g id="a_node2"><a xlink:href="TOracleServer_8cxx.html" target="_top" xlink:title="sql/oracle/src/TOracleServer.cxx">
<polygon fill="#ffffff" stroke="#000000" points="0,-.5 0,-19.5 173,-19.5 173,-.5 0,-.5"/>
<text text-anchor="middle" x="86.5" y="-7.5" font-family="Helvetica,sans-Serif" font-size="10.00" fill="#000000">sql/oracle/src/TOracleServer.cxx</text>
</a>
</g>
</g>
<!-- Node48&#45;&gt;Node49 -->
<g id="edge1" class="edge">
<title>Node48&#45;&gt;Node49</title>
<path fill="none" stroke="#191970" d="M160.2902,-51.3225C142.4283,-41.3198 119.2845,-28.3593 103.7191,-19.6427"/>
<polygon fill="#191970" stroke="#191970" points="158.6461,-54.4132 169.0813,-56.2455 162.0664,-48.3057 158.6461,-54.4132"/>
</g>
<!-- Node50 -->
<g id="node3" class="node">
<title>Node50</title>
<g id="a_node3"><a xlink:href="TOracleStatement_8cxx.html" target="_top" xlink:title="sql/oracle/src/TOracleStatement.cxx">
<polygon fill="#ffffff" stroke="#000000" points="191,-.5 191,-19.5 384,-19.5 384,-.5 191,-.5"/>
<text text-anchor="middle" x="287.5" y="-7.5" font-family="Helvetica,sans-Serif" font-size="10.00" fill="#000000">sql/oracle/src/TOracleStatement.cxx</text>
</a>
</g>
</g>
<!-- Node48&#45;&gt;Node50 -->
<g id="edge2" class="edge">
<title>Node48&#45;&gt;Node50</title>
<path fill="none" stroke="#191970" d="M212.9719,-51.3225C231.0125,-41.3198 254.3877,-28.3593 270.1087,-19.6427"/>
<polygon fill="#191970" stroke="#191970" points="211.1413,-48.3354 204.0929,-56.2455 214.5357,-54.4574 211.1413,-48.3354"/>
</g>
</g>
</svg>
