<?xml version="1.0" encoding="UTF-8" standalone="no"?>
<!DOCTYPE svg PUBLIC "-//W3C//DTD SVG 1.1//EN"
 "http://www.w3.org/Graphics/SVG/1.1/DTD/svg11.dtd">
<!-- Generated by graphviz version 2.40.1 (0)
 -->
<!-- Title: graf2d/gpad/inc/TPaveClass.h Pages: 1 -->
<svg width="364pt" height="84pt"
 viewBox="0.00 0.00 364.00 84.00" xmlns="http://www.w3.org/2000/svg" xmlns:xlink="http://www.w3.org/1999/xlink">
<g id="graph0" class="graph" transform="scale(1 1) rotate(0) translate(4 80)">
<title>graf2d/gpad/inc/TPaveClass.h</title>
<polygon fill="#ffffff" stroke="transparent" points="-4,4 -4,-80 360,-80 360,4 -4,4"/>
<!-- Node56 -->
<g id="node1" class="node">
<title>Node56</title>
<polygon fill="#bfbfbf" stroke="#000000" points="96.5,-56.5 96.5,-75.5 256.5,-75.5 256.5,-56.5 96.5,-56.5"/>
<text text-anchor="middle" x="176.5" y="-63.5" font-family="Helvetica,sans-Serif" font-size="10.00" fill="#000000">graf2d/gpad/inc/TPaveClass.h</text>
</g>
<!-- Node57 -->
<g id="node2" class="node">
<title>Node57</title>
<g id="a_node2"><a xlink:href="TClassTree_8cxx.html" target="_top" xlink:title="graf2d/gpad/src/TClassTree.cxx">
<polygon fill="#ffffff" stroke="#000000" points="0,-.5 0,-19.5 167,-19.5 167,-.5 0,-.5"/>
<text text-anchor="middle" x="83.5" y="-7.5" font-family="Helvetica,sans-Serif" font-size="10.00" fill="#000000">graf2d/gpad/src/TClassTree.cxx</text>
</a>
</g>
</g>
<!-- Node56&#45;&gt;Node57 -->
<g id="edge1" class="edge">
<title>Node56&#45;&gt;Node57</title>
<path fill="none" stroke="#191970" d="M151.6665,-51.0465C135.1189,-41.0824 113.8568,-28.2794 99.5137,-19.6427"/>
<polygon fill="#191970" stroke="#191970" points="149.9283,-54.0854 160.3006,-56.2455 153.5393,-48.0886 149.9283,-54.0854"/>
</g>
<!-- Node58 -->
<g id="node3" class="node">
<title>Node58</title>
<g id="a_node3"><a xlink:href="TPaveClass_8cxx.html" target="_top" xlink:title="graf2d/gpad/src/TPaveClass.cxx">
<polygon fill="#ffffff" stroke="#000000" points="185,-.5 185,-19.5 356,-19.5 356,-.5 185,-.5"/>
<text text-anchor="middle" x="270.5" y="-7.5" font-family="Helvetica,sans-Serif" font-size="10.00" fill="#000000">graf2d/gpad/src/TPaveClass.cxx</text>
</a>
</g>
</g>
<!-- Node56&#45;&gt;Node58 -->
<g id="edge2" class="edge">
<title>Node56&#45;&gt;Node58</title>
<path fill="none" stroke="#191970" d="M201.6005,-51.0465C218.326,-41.0824 239.8168,-28.2794 254.3141,-19.6427"/>
<polygon fill="#191970" stroke="#191970" points="199.6732,-48.1206 192.8736,-56.2455 203.2559,-54.1343 199.6732,-48.1206"/>
</g>
</g>
</svg>
