<?xml version="1.0" encoding="UTF-8" standalone="no"?>
<!DOCTYPE svg PUBLIC "-//W3C//DTD SVG 1.1//EN"
 "http://www.w3.org/Graphics/SVG/1.1/DTD/svg11.dtd">
<!-- Generated by graphviz version 2.40.1 (0)
 -->
<!-- Title: graf3d/g3d/inc/TPolyLine3D.h Pages: 1 -->
<!--zoomable 162 -->
<svg id="main" version="1.1" xmlns="http://www.w3.org/2000/svg" xmlns:xlink="http://www.w3.org/1999/xlink" xml:space="preserve" onload="init(evt)">
<style type="text/css"><![CDATA[
.edge:hover path { stroke: red; }
.edge:hover polygon { stroke: red; fill: red; }
]]></style>
<script type="text/javascript"><![CDATA[
var edges = document.getElementsByTagName('g');
if (edges && edges.length) {
  for (var i=0;i<edges.length;i++) {
    if (edges[i].id.substr(0,4)=='edge') {
      edges[i].setAttribute('class','edge');
    }
  }
}
]]></script>
        <defs>
                <circle id="rim" cx="0" cy="0" r="7"/>
                <circle id="rim2" cx="0" cy="0" r="3.5"/>
                <g id="zoomPlus">
                        <use xlink:href="#rim" fill="#404040">
                                <set attributeName="fill" to="#808080" begin="zoomplus.mouseover" end="zoomplus.mouseout"/>
                        </use>
                        <path d="M-4,0h8M0,-4v8" fill="none" stroke="white" stroke-width="1.5" pointer-events="none"/>
                </g>
                <g id="zoomMin">
                        <use xlink:href="#rim" fill="#404040">
                                <set attributeName="fill" to="#808080" begin="zoomminus.mouseover" end="zoomminus.mouseout"/>
                        </use>
                        <path d="M-4,0h8" fill="none" stroke="white" stroke-width="1.5" pointer-events="none"/>
                </g>
                <g id="dirArrow">
                        <path fill="none" stroke="white" stroke-width="1.5" d="M0,-3.0v7 M-2.5,-0.5L0,-3.0L2.5,-0.5"/>
                </g>
               <g id="resetDef">
                       <use xlink:href="#rim2" fill="#404040">
                               <set attributeName="fill" to="#808080" begin="reset.mouseover" end="reset.mouseout"/>
                       </use>
               </g>
        </defs>

<script type="text/javascript">
var viewWidth = 1737;
var viewHeight = 162;
var sectionId = 'dynsection-1';
</script>
<script xlink:href="svgpan.js"/>
<svg id="graph" class="graph">
<g id="viewport">
<title>graf3d/g3d/inc/TPolyLine3D.h</title>
<polygon fill="#ffffff" stroke="transparent" points="-4,4 -4,-158 1732.5,-158 1732.5,4 -4,4"/>
<!-- Node54 -->
<g id="node1" class="node">
<title>Node54</title>
<polygon fill="#bfbfbf" stroke="#000000" points="700,-134.5 700,-153.5 859,-153.5 859,-134.5 700,-134.5"/>
<text text-anchor="middle" x="779.5" y="-141.5" font-family="Helvetica,sans-Serif" font-size="10.00" fill="#000000">graf3d/g3d/inc/TPolyLine3D.h</text>
</g>
<!-- Node55 -->
<g id="node2" class="node">
<title>Node55</title>
<g id="a_node2"><a xlink:href="TGeoTrack_8h.html" target="_top" xlink:title="geom/geompainter/inc\l/TGeoTrack.h">
<polygon fill="#ffffff" stroke="#000000" points="53,-67.5 53,-97.5 180,-97.5 180,-67.5 53,-67.5"/>
<text text-anchor="start" x="61" y="-85.5" font-family="Helvetica,sans-Serif" font-size="10.00" fill="#000000">geom/geompainter/inc</text>
<text text-anchor="middle" x="116.5" y="-74.5" font-family="Helvetica,sans-Serif" font-size="10.00" fill="#000000">/TGeoTrack.h</text>
</a>
</g>
</g>
<!-- Node54&#45;&gt;Node55 -->
<g id="edge1" class="edge">
<title>Node54&#45;&gt;Node55</title>
<path fill="none" stroke="#191970" d="M689.5205,-140.2164C574.3553,-134.62 368.8696,-122.0955 194.5,-98 189.85,-97.3574 185.0593,-96.6121 180.2473,-95.8027"/>
<polygon fill="#191970" stroke="#191970" points="689.5416,-143.7214 699.6978,-140.7043 689.8769,-136.7294 689.5416,-143.7214"/>
</g>
<!-- Node57 -->
<g id="node4" class="node">
<title>Node57</title>
<g id="a_node4"><a xlink:href="TGeoTrack_8cxx.html" target="_top" xlink:title="geom/geompainter/src\l/TGeoTrack.cxx">
<polygon fill="#ffffff" stroke="#000000" points="145,-.5 145,-30.5 272,-30.5 272,-.5 145,-.5"/>
<text text-anchor="start" x="153" y="-18.5" font-family="Helvetica,sans-Serif" font-size="10.00" fill="#000000">geom/geompainter/src</text>
<text text-anchor="middle" x="208.5" y="-7.5" font-family="Helvetica,sans-Serif" font-size="10.00" fill="#000000">/TGeoTrack.cxx</text>
</a>
</g>
</g>
<!-- Node54&#45;&gt;Node57 -->
<g id="edge5" class="edge">
<title>Node54&#45;&gt;Node57</title>
<path fill="none" stroke="#191970" d="M689.4029,-142.2211C541.8505,-138.4701 261.5735,-127.5125 227.5,-98 208.2799,-81.3527 206.36,-49.5291 207.1355,-30.6435"/>
<polygon fill="#191970" stroke="#191970" points="689.7083,-145.7297 699.7921,-142.4789 689.882,-138.7318 689.7083,-145.7297"/>
</g>
<!-- Node58 -->
<g id="node5" class="node">
<title>Node58</title>
<g id="a_node5"><a xlink:href="TGeoChecker_8cxx.html" target="_top" xlink:title="geom/geompainter/src\l/TGeoChecker.cxx">
<polygon fill="#ffffff" stroke="#000000" points="237,-67.5 237,-97.5 364,-97.5 364,-67.5 237,-67.5"/>
<text text-anchor="start" x="245" y="-85.5" font-family="Helvetica,sans-Serif" font-size="10.00" fill="#000000">geom/geompainter/src</text>
<text text-anchor="middle" x="300.5" y="-74.5" font-family="Helvetica,sans-Serif" font-size="10.00" fill="#000000">/TGeoChecker.cxx</text>
</a>
</g>
</g>
<!-- Node54&#45;&gt;Node58 -->
<g id="edge4" class="edge">
<title>Node54&#45;&gt;Node58</title>
<path fill="none" stroke="#191970" d="M689.5108,-136.4203C606.8037,-128.8405 480.9583,-115.7582 372.5,-98 369.724,-97.5455 366.8933,-97.0546 364.038,-96.537"/>
<polygon fill="#191970" stroke="#191970" points="689.3544,-139.9204 699.6301,-137.3399 689.988,-132.9491 689.3544,-139.9204"/>
</g>
<!-- Node59 -->
<g id="node6" class="node">
<title>Node59</title>
<g id="a_node6"><a xlink:href="TEveTrack_8cxx.html" target="_top" xlink:title="graf3d/eve/src/TEveTrack.cxx">
<polygon fill="#ffffff" stroke="#000000" points="382,-73 382,-92 541,-92 541,-73 382,-73"/>
<text text-anchor="middle" x="461.5" y="-80" font-family="Helvetica,sans-Serif" font-size="10.00" fill="#000000">graf3d/eve/src/TEveTrack.cxx</text>
</a>
</g>
</g>
<!-- Node54&#45;&gt;Node59 -->
<g id="edge6" class="edge">
<title>Node54&#45;&gt;Node59</title>
<path fill="none" stroke="#191970" d="M720.0104,-132.4949C659.5905,-120.81 567.1134,-102.9252 510.6927,-92.0137"/>
<polygon fill="#191970" stroke="#191970" points="719.6787,-135.9956 730.1614,-134.4581 721.0079,-129.1229 719.6787,-135.9956"/>
</g>
<!-- Node60 -->
<g id="node7" class="node">
<title>Node60</title>
<g id="a_node7"><a xlink:href="THelix_8h.html" target="_top" xlink:title="graf3d/g3d/inc/THelix.h">
<polygon fill="#ffffff" stroke="#000000" points="559.5,-73 559.5,-92 689.5,-92 689.5,-73 559.5,-73"/>
<text text-anchor="middle" x="624.5" y="-80" font-family="Helvetica,sans-Serif" font-size="10.00" fill="#000000">graf3d/g3d/inc/THelix.h</text>
</a>
</g>
</g>
<!-- Node54&#45;&gt;Node60 -->
<g id="edge7" class="edge">
<title>Node54&#45;&gt;Node60</title>
<path fill="none" stroke="#191970" d="M745.8479,-130.6477C716.4976,-119.0023 674.6423,-102.3952 648.5487,-92.0419"/>
<polygon fill="#191970" stroke="#191970" points="744.6953,-133.9558 755.2813,-134.3906 747.277,-127.4492 744.6953,-133.9558"/>
</g>
<!-- Node62 -->
<g id="node9" class="node">
<title>Node62</title>
<g id="a_node9"><a xlink:href="TPolyLine3D_8cxx.html" target="_top" xlink:title="graf3d/g3d/src/TPolyLine3\lD.cxx">
<polygon fill="#ffffff" stroke="#000000" points="708,-67.5 708,-97.5 851,-97.5 851,-67.5 708,-67.5"/>
<text text-anchor="start" x="716" y="-85.5" font-family="Helvetica,sans-Serif" font-size="10.00" fill="#000000">graf3d/g3d/src/TPolyLine3</text>
<text text-anchor="middle" x="779.5" y="-74.5" font-family="Helvetica,sans-Serif" font-size="10.00" fill="#000000">D.cxx</text>
</a>
</g>
</g>
<!-- Node54&#45;&gt;Node62 -->
<g id="edge9" class="edge">
<title>Node54&#45;&gt;Node62</title>
<path fill="none" stroke="#191970" d="M779.5,-124.3693C779.5,-115.681 779.5,-105.6241 779.5,-97.5446"/>
<polygon fill="#191970" stroke="#191970" points="776.0001,-124.3906 779.5,-134.3906 783.0001,-124.3907 776.0001,-124.3906"/>
</g>
<!-- Node63 -->
<g id="node10" class="node">
<title>Node63</title>
<g id="a_node10"><a xlink:href="TView3D_8cxx.html" target="_top" xlink:title="graf3d/g3d/src/TView3D.cxx">
<polygon fill="#ffffff" stroke="#000000" points="869,-73 869,-92 1022,-92 1022,-73 869,-73"/>
<text text-anchor="middle" x="945.5" y="-80" font-family="Helvetica,sans-Serif" font-size="10.00" fill="#000000">graf3d/g3d/src/TView3D.cxx</text>
</a>
</g>
</g>
<!-- Node54&#45;&gt;Node63 -->
<g id="edge10" class="edge">
<title>Node54&#45;&gt;Node63</title>
<path fill="none" stroke="#191970" d="M815.1311,-130.7993C846.5834,-119.1468 891.6778,-102.4402 919.7446,-92.0419"/>
<polygon fill="#191970" stroke="#191970" points="813.5987,-127.6345 805.4375,-134.3906 816.0306,-134.1985 813.5987,-127.6345"/>
</g>
<!-- Node64 -->
<g id="node11" class="node">
<title>Node64</title>
<g id="a_node11"><a xlink:href="TStructViewerGUI_8cxx.html" target="_top" xlink:title="graf3d/gviz3d/src/TStruct\lViewerGUI.cxx">
<polygon fill="#ffffff" stroke="#000000" points="1040.5,-67.5 1040.5,-97.5 1178.5,-97.5 1178.5,-67.5 1040.5,-67.5"/>
<text text-anchor="start" x="1048.5" y="-85.5" font-family="Helvetica,sans-Serif" font-size="10.00" fill="#000000">graf3d/gviz3d/src/TStruct</text>
<text text-anchor="middle" x="1109.5" y="-74.5" font-family="Helvetica,sans-Serif" font-size="10.00" fill="#000000">ViewerGUI.cxx</text>
</a>
</g>
</g>
<!-- Node54&#45;&gt;Node64 -->
<g id="edge11" class="edge">
<title>Node54&#45;&gt;Node64</title>
<path fill="none" stroke="#191970" d="M843.0176,-132.6885C894.0038,-123.5405 967.404,-110.2178 1031.5,-98 1034.3481,-97.4571 1037.2538,-96.899 1040.1884,-96.3318"/>
<polygon fill="#191970" stroke="#191970" points="842.3543,-129.2516 833.1287,-134.4609 843.5893,-136.1418 842.3543,-129.2516"/>
</g>
<!-- Node65 -->
<g id="node12" class="node">
<title>Node65</title>
<g id="a_node12"><a xlink:href="TMultiGraph_8cxx.html" target="_top" xlink:title="hist/hist/src/TMultiGraph.cxx">
<polygon fill="#ffffff" stroke="#000000" points="1197,-73 1197,-92 1352,-92 1352,-73 1197,-73"/>
<text text-anchor="middle" x="1274.5" y="-80" font-family="Helvetica,sans-Serif" font-size="10.00" fill="#000000">hist/hist/src/TMultiGraph.cxx</text>
</a>
</g>
</g>
<!-- Node54&#45;&gt;Node65 -->
<g id="edge12" class="edge">
<title>Node54&#45;&gt;Node65</title>
<path fill="none" stroke="#191970" d="M869.1838,-135.5554C951.9916,-127.3632 1078.3064,-113.8659 1187.5,-98 1199.3424,-96.2793 1212.0449,-94.1682 1223.9841,-92.0644"/>
<polygon fill="#191970" stroke="#191970" points="868.6628,-132.0897 859.0538,-136.5525 869.3486,-139.056 868.6628,-132.0897"/>
</g>
<!-- Node66 -->
<g id="node13" class="node">
<title>Node66</title>
<g id="a_node13"><a xlink:href="TParticle_8cxx.html" target="_top" xlink:title="montecarlo/eg/src/TParticle.cxx">
<polygon fill="#ffffff" stroke="#000000" points="1370.5,-73 1370.5,-92 1540.5,-92 1540.5,-73 1370.5,-73"/>
<text text-anchor="middle" x="1455.5" y="-80" font-family="Helvetica,sans-Serif" font-size="10.00" fill="#000000">montecarlo/eg/src/TParticle.cxx</text>
</a>
</g>
</g>
<!-- Node54&#45;&gt;Node66 -->
<g id="edge13" class="edge">
<title>Node54&#45;&gt;Node66</title>
<path fill="none" stroke="#191970" d="M869.3834,-139.2597C983.9257,-132.6766 1187.8983,-119.1351 1361.5,-98 1374.7991,-96.3809 1389.0929,-94.2347 1402.4207,-92.0569"/>
<polygon fill="#191970" stroke="#191970" points="869.0447,-135.7732 859.2601,-139.8367 869.4431,-142.7619 869.0447,-135.7732"/>
</g>
<!-- Node67 -->
<g id="node14" class="node">
<title>Node67</title>
<g id="a_node14"><a xlink:href="TPrimary_8cxx.html" target="_top" xlink:title="montecarlo/eg/src/TPrimary.cxx">
<polygon fill="#ffffff" stroke="#000000" points="1558.5,-73 1558.5,-92 1728.5,-92 1728.5,-73 1558.5,-73"/>
<text text-anchor="middle" x="1643.5" y="-80" font-family="Helvetica,sans-Serif" font-size="10.00" fill="#000000">montecarlo/eg/src/TPrimary.cxx</text>
</a>
</g>
</g>
<!-- Node54&#45;&gt;Node67 -->
<g id="edge14" class="edge">
<title>Node54&#45;&gt;Node67</title>
<path fill="none" stroke="#191970" d="M869.3737,-141.6546C1013.3273,-137.2187 1304.349,-125.4596 1549.5,-98 1563.1427,-96.4719 1577.8201,-94.3053 1591.4271,-92.0749"/>
<polygon fill="#191970" stroke="#191970" points="869.155,-138.1595 859.2658,-141.9614 869.3674,-145.1563 869.155,-138.1595"/>
</g>
<!-- Node56 -->
<g id="node3" class="node">
<title>Node56</title>
<g id="a_node3"><a xlink:href="TGeoPainter_8cxx.html" target="_top" xlink:title="geom/geompainter/src\l/TGeoPainter.cxx">
<polygon fill="#ffffff" stroke="#000000" points="0,-.5 0,-30.5 127,-30.5 127,-.5 0,-.5"/>
<text text-anchor="start" x="8" y="-18.5" font-family="Helvetica,sans-Serif" font-size="10.00" fill="#000000">geom/geompainter/src</text>
<text text-anchor="middle" x="63.5" y="-7.5" font-family="Helvetica,sans-Serif" font-size="10.00" fill="#000000">/TGeoPainter.cxx</text>
</a>
</g>
</g>
<!-- Node55&#45;&gt;Node56 -->
<g id="edge2" class="edge">
<title>Node55&#45;&gt;Node56</title>
<path fill="none" stroke="#191970" d="M98.188,-59.3509C90.6709,-49.8482 82.1791,-39.1132 75.4789,-30.6432"/>
<polygon fill="#191970" stroke="#191970" points="95.5244,-61.6252 104.4735,-67.2967 101.0144,-57.2824 95.5244,-61.6252"/>
</g>
<!-- Node55&#45;&gt;Node57 -->
<g id="edge3" class="edge">
<title>Node55&#45;&gt;Node57</title>
<path fill="none" stroke="#191970" d="M145.546,-61.3469C159.2353,-51.3776 175.2536,-39.7121 187.7064,-30.6432"/>
<polygon fill="#191970" stroke="#191970" points="143.3994,-58.5804 137.3762,-67.2967 147.5202,-64.2389 143.3994,-58.5804"/>
</g>
<!-- Node61 -->
<g id="node8" class="node">
<title>Node61</title>
<g id="a_node8"><a xlink:href="THelix_8cxx.html" target="_top" xlink:title="graf3d/g3d/src/THelix.cxx">
<polygon fill="#ffffff" stroke="#000000" points="554,-6 554,-25 695,-25 695,-6 554,-6"/>
<text text-anchor="middle" x="624.5" y="-13" font-family="Helvetica,sans-Serif" font-size="10.00" fill="#000000">graf3d/g3d/src/THelix.cxx</text>
</a>
</g>
</g>
<!-- Node60&#45;&gt;Node61 -->
<g id="edge8" class="edge">
<title>Node60&#45;&gt;Node61</title>
<path fill="none" stroke="#191970" d="M624.5,-62.6079C624.5,-50.214 624.5,-34.8263 624.5,-25.0817"/>
<polygon fill="#191970" stroke="#191970" points="621.0001,-62.9005 624.5,-72.9005 628.0001,-62.9006 621.0001,-62.9005"/>
</g>
</g>
</svg>
        <g id="navigator" transform="translate(0 0)" fill="#404254">
                <rect fill="#f2f5e9" fill-opacity="0.5" stroke="#606060" stroke-width=".5" x="0" y="0" width="60" height="60"/>
                <use id="zoomplus" xlink:href="#zoomPlus" x="17" y="9" onmousedown="handleZoom(evt,'in')"/>
                <use id="zoomminus" xlink:href="#zoomMin" x="42" y="9" onmousedown="handleZoom(evt,'out')"/>
                <use id="reset" xlink:href="#resetDef" x="30" y="36" onmousedown="handleReset()"/>
                <g id="arrowUp" xlink:href="#dirArrow" transform="translate(30 24)" onmousedown="handlePan(0,-1)">
                  <use xlink:href="#rim" fill="#404040">
                        <set attributeName="fill" to="#808080" begin="arrowUp.mouseover" end="arrowUp.mouseout"/>
                  </use>
                  <path fill="none" stroke="white" stroke-width="1.5" d="M0,-3.0v7 M-2.5,-0.5L0,-3.0L2.5,-0.5"/>
                </g>
                <g id="arrowRight" xlink:href="#dirArrow" transform="rotate(90) translate(36 -43)" onmousedown="handlePan(1,0)">
                  <use xlink:href="#rim" fill="#404040">
                        <set attributeName="fill" to="#808080" begin="arrowRight.mouseover" end="arrowRight.mouseout"/>
                  </use>
                  <path fill="none" stroke="white" stroke-width="1.5" d="M0,-3.0v7 M-2.5,-0.5L0,-3.0L2.5,-0.5"/>
                </g>
                <g id="arrowDown" xlink:href="#dirArrow" transform="rotate(180) translate(-30 -48)" onmousedown="handlePan(0,1)">
                  <use xlink:href="#rim" fill="#404040">
                        <set attributeName="fill" to="#808080" begin="arrowDown.mouseover" end="arrowDown.mouseout"/>
                  </use>
                  <path fill="none" stroke="white" stroke-width="1.5" d="M0,-3.0v7 M-2.5,-0.5L0,-3.0L2.5,-0.5"/>
                </g>
                <g id="arrowLeft" xlink:href="#dirArrow" transform="rotate(270) translate(-36 17)" onmousedown="handlePan(-1,0)">
                  <use xlink:href="#rim" fill="#404040">
                        <set attributeName="fill" to="#808080" begin="arrowLeft.mouseover" end="arrowLeft.mouseout"/>
                  </use>
                  <path fill="none" stroke="white" stroke-width="1.5" d="M0,-3.0v7 M-2.5,-0.5L0,-3.0L2.5,-0.5"/>
                </g>
        </g>
        <svg viewBox="0 0 15 15" width="100%" height="30px" preserveAspectRatio="xMaxYMin meet">
         <g id="arrow_out" transform="scale(0.3 0.3)">
          <a xlink:href="TPolyLine3D_8h__dep__incl_org.svg" target="_base">
           <rect id="button" ry="5" rx="5" y="6" x="6" height="38" width="38"
                fill="#f2f5e9" fill-opacity="0.5" stroke="#606060" stroke-width="1.0"/>
           <path id="arrow"
             d="M 11.500037,31.436501 C 11.940474,20.09759 22.043105,11.32322 32.158766,21.979434 L 37.068811,17.246167 C 37.068811,17.246167 37.088388,32 37.088388,32 L 22.160133,31.978069 C 22.160133,31.978069 26.997745,27.140456 26.997745,27.140456 C 18.528582,18.264221 13.291696,25.230495 11.500037,31.436501 z"
             style="fill:#404040;"/>
          </a>
         </g>
        </svg>
</svg>
