<?xml version="1.0" encoding="UTF-8" standalone="no"?>
<!DOCTYPE svg PUBLIC "-//W3C//DTD SVG 1.1//EN"
 "http://www.w3.org/Graphics/SVG/1.1/DTD/svg11.dtd">
<!-- Generated by graphviz version 2.40.1 (0)
 -->
<!-- Title: proof/proofbench/inc/TProofBench.h Pages: 1 -->
<svg width="1966pt" height="554pt"
 viewBox="0.00 0.00 1966.00 554.00" xmlns="http://www.w3.org/2000/svg" xmlns:xlink="http://www.w3.org/1999/xlink">
<g id="graph0" class="graph" transform="scale(1 1) rotate(0) translate(4 550)">
<title>proof/proofbench/inc/TProofBench.h</title>
<polygon fill="#ffffff" stroke="transparent" points="-4,4 -4,-550 1962,-550 1962,4 -4,4"/>
<!-- Node0 -->
<g id="node1" class="node">
<title>Node0</title>
<polygon fill="#bfbfbf" stroke="#000000" points="816.5,-515.5 816.5,-545.5 933.5,-545.5 933.5,-515.5 816.5,-515.5"/>
<text text-anchor="start" x="824.5" y="-533.5" font-family="Helvetica,sans-Serif" font-size="10.00" fill="#000000">proof/proofbench/inc</text>
<text text-anchor="middle" x="875" y="-522.5" font-family="Helvetica,sans-Serif" font-size="10.00" fill="#000000">/TProofBench.h</text>
</g>
<!-- Node1 -->
<g id="node2" class="node">
<title>Node1</title>
<g id="a_node2"><a xlink:href="TObject_8h.html" target="_top" xlink:title="TObject.h">
<polygon fill="#ffffff" stroke="#000000" points="751.5,-403.5 751.5,-422.5 814.5,-422.5 814.5,-403.5 751.5,-403.5"/>
<text text-anchor="middle" x="783" y="-410.5" font-family="Helvetica,sans-Serif" font-size="10.00" fill="#000000">TObject.h</text>
</a>
</g>
</g>
<!-- Node0&#45;&gt;Node1 -->
<g id="edge1" class="edge">
<title>Node0&#45;&gt;Node1</title>
<path fill="none" stroke="#191970" d="M848.9118,-515.4108C835.1642,-506.3466 818.9339,-493.723 808,-479 797.7395,-465.1838 791.2125,-446.6612 787.4107,-432.7554"/>
<polygon fill="#191970" stroke="#191970" points="790.7376,-431.6302 784.9268,-422.771 783.9446,-433.3202 790.7376,-431.6302"/>
</g>
<!-- Node26 -->
<g id="node27" class="node">
<title>Node26</title>
<g id="a_node27"><a xlink:href="TProofBenchTypes_8h.html" target="_top" xlink:title="TProofBenchTypes.h">
<polygon fill="#ffffff" stroke="#000000" points="817.5,-459.5 817.5,-478.5 932.5,-478.5 932.5,-459.5 817.5,-459.5"/>
<text text-anchor="middle" x="875" y="-466.5" font-family="Helvetica,sans-Serif" font-size="10.00" fill="#000000">TProofBenchTypes.h</text>
</a>
</g>
</g>
<!-- Node0&#45;&gt;Node26 -->
<g id="edge36" class="edge">
<title>Node0&#45;&gt;Node26</title>
<path fill="none" stroke="#191970" d="M875,-515.2977C875,-507.3834 875,-497.6043 875,-489.0759"/>
<polygon fill="#191970" stroke="#191970" points="878.5001,-488.8469 875,-478.8469 871.5001,-488.847 878.5001,-488.8469"/>
</g>
<!-- Node27 -->
<g id="node28" class="node">
<title>Node27</title>
<g id="a_node28"><a xlink:href="TString_8h.html" target="_top" xlink:title="TString.h">
<polygon fill="#ffffff" stroke="#000000" points="933,-403.5 933,-422.5 993,-422.5 993,-403.5 933,-403.5"/>
<text text-anchor="middle" x="963" y="-410.5" font-family="Helvetica,sans-Serif" font-size="10.00" fill="#000000">TString.h</text>
</a>
</g>
</g>
<!-- Node0&#45;&gt;Node27 -->
<g id="edge79" class="edge">
<title>Node0&#45;&gt;Node27</title>
<path fill="none" stroke="#191970" d="M901.7365,-515.4221C915.5061,-506.4412 931.5521,-493.8929 942,-479 951.6992,-465.1743 957.0768,-446.6527 959.9553,-432.7496"/>
<polygon fill="#191970" stroke="#191970" points="963.4249,-433.2313 961.7628,-422.7677 956.5369,-431.984 963.4249,-433.2313"/>
</g>
<!-- Node2 -->
<g id="node3" class="node">
<title>Node2</title>
<polygon fill="#ffffff" stroke="#bfbfbf" points="780,-.5 780,-19.5 858,-19.5 858,-.5 780,-.5"/>
<text text-anchor="middle" x="819" y="-7.5" font-family="Helvetica,sans-Serif" font-size="10.00" fill="#000000">RConfigure.h</text>
</g>
<!-- Node1&#45;&gt;Node2 -->
<g id="edge2" class="edge">
<title>Node1&#45;&gt;Node2</title>
<path fill="none" stroke="#191970" d="M751.3115,-410.7358C620.0733,-400.9438 126,-359.8091 126,-295.5 126,-295.5 126,-295.5 126,-122 126,-84.0995 146.3557,-73.45 180,-56 231.8343,-29.1156 628.6002,-15.3849 769.5298,-11.3181"/>
<polygon fill="#191970" stroke="#191970" points="769.7237,-14.8141 779.6201,-11.0309 769.5245,-7.8169 769.7237,-14.8141"/>
</g>
<!-- Node3 -->
<g id="node4" class="node">
<title>Node3</title>
<g id="a_node4"><a xlink:href="Rtypes_8h.html" target="_top" xlink:title="Rtypes.h">
<polygon fill="#ffffff" stroke="#000000" points="583.5,-286 583.5,-305 642.5,-305 642.5,-286 583.5,-286"/>
<text text-anchor="middle" x="613" y="-293" font-family="Helvetica,sans-Serif" font-size="10.00" fill="#000000">Rtypes.h</text>
</a>
</g>
</g>
<!-- Node1&#45;&gt;Node3 -->
<g id="edge3" class="edge">
<title>Node1&#45;&gt;Node3</title>
<path fill="none" stroke="#191970" d="M751.119,-403.4593C728.7715,-395.8148 698.9195,-383.6151 676,-367 655.3969,-352.0641 636.809,-329.2648 625.2523,-313.4431"/>
<polygon fill="#191970" stroke="#191970" points="627.9375,-311.179 619.2983,-305.0459 622.2273,-315.2279 627.9375,-311.179"/>
</g>
<!-- Node19 -->
<g id="node20" class="node">
<title>Node19</title>
<polygon fill="#ffffff" stroke="#bfbfbf" points="924,-112.5 924,-131.5 968,-131.5 968,-112.5 924,-112.5"/>
<text text-anchor="middle" x="946" y="-119.5" font-family="Helvetica,sans-Serif" font-size="10.00" fill="#000000">string</text>
</g>
<!-- Node1&#45;&gt;Node19 -->
<g id="edge34" class="edge">
<title>Node1&#45;&gt;Node19</title>
<path fill="none" stroke="#191970" d="M783.8219,-403.1914C785.3863,-389.496 789.8105,-364.3747 802,-347 846.7775,-283.1753 908.0093,-313.1613 944,-244 952.9745,-226.7542 950.1078,-171.5207 947.7665,-141.6392"/>
<polygon fill="#191970" stroke="#191970" points="951.2447,-141.2325 946.9206,-131.5603 944.2692,-141.818 951.2447,-141.2325"/>
</g>
<!-- Node22 -->
<g id="node23" class="node">
<title>Node22</title>
<g id="a_node23"><a xlink:href="TStorage_8h.html" target="_top" xlink:title="TStorage.h">
<polygon fill="#ffffff" stroke="#000000" points="685.5,-347.5 685.5,-366.5 754.5,-366.5 754.5,-347.5 685.5,-347.5"/>
<text text-anchor="middle" x="720" y="-354.5" font-family="Helvetica,sans-Serif" font-size="10.00" fill="#000000">TStorage.h</text>
</a>
</g>
</g>
<!-- Node1&#45;&gt;Node22 -->
<g id="edge28" class="edge">
<title>Node1&#45;&gt;Node22</title>
<path fill="none" stroke="#191970" d="M772.0262,-403.2455C762.8118,-395.0549 749.4468,-383.1749 738.5703,-373.5069"/>
<polygon fill="#191970" stroke="#191970" points="740.6474,-370.6704 730.848,-366.6427 735.9968,-375.9023 740.6474,-370.6704"/>
</g>
<!-- Node23 -->
<g id="node24" class="node">
<title>Node23</title>
<g id="a_node24"><a xlink:href="TVersionCheck_8h.html" target="_top" xlink:title="TVersionCheck.h">
<polygon fill="#ffffff" stroke="#000000" points="0,-112.5 0,-131.5 98,-131.5 98,-112.5 0,-112.5"/>
<text text-anchor="middle" x="49" y="-119.5" font-family="Helvetica,sans-Serif" font-size="10.00" fill="#000000">TVersionCheck.h</text>
</a>
</g>
</g>
<!-- Node1&#45;&gt;Node23 -->
<g id="edge31" class="edge">
<title>Node1&#45;&gt;Node23</title>
<path fill="none" stroke="#191970" d="M751.464,-412.5361C626.0744,-410.4633 166.9742,-400.6217 112,-367 80.3655,-347.6526 69,-332.5818 69,-295.5 69,-295.5 69,-295.5 69,-234 69,-201.2193 60.5945,-163.8705 54.6819,-141.6533"/>
<polygon fill="#191970" stroke="#191970" points="57.991,-140.4878 51.9511,-131.7832 51.2445,-142.3545 57.991,-140.4878"/>
</g>
<!-- Node24 -->
<g id="node25" class="node">
<title>Node24</title>
<polygon fill="#ffffff" stroke="#bfbfbf" points="879,-347.5 879,-366.5 935,-366.5 935,-347.5 879,-347.5"/>
<text text-anchor="middle" x="907" y="-354.5" font-family="Helvetica,sans-Serif" font-size="10.00" fill="#000000">stdarg.h</text>
</g>
<!-- Node1&#45;&gt;Node24 -->
<g id="edge33" class="edge">
<title>Node1&#45;&gt;Node24</title>
<path fill="none" stroke="#191970" d="M804.3164,-403.3733C824.2216,-394.3838 854.1436,-380.8706 876.56,-370.7471"/>
<polygon fill="#191970" stroke="#191970" points="878.2887,-373.8068 885.9618,-366.5011 875.4075,-367.4272 878.2887,-373.8068"/>
</g>
<!-- Node25 -->
<g id="node26" class="node">
<title>Node25</title>
<polygon fill="#ffffff" stroke="#bfbfbf" points="811.5,-347.5 811.5,-366.5 860.5,-366.5 860.5,-347.5 811.5,-347.5"/>
<text text-anchor="middle" x="836" y="-354.5" font-family="Helvetica,sans-Serif" font-size="10.00" fill="#000000">iosfwd</text>
</g>
<!-- Node1&#45;&gt;Node25 -->
<g id="edge35" class="edge">
<title>Node1&#45;&gt;Node25</title>
<path fill="none" stroke="#191970" d="M792.2319,-403.2455C799.8317,-395.2155 810.7877,-383.6394 819.8368,-374.0781"/>
<polygon fill="#191970" stroke="#191970" points="822.5421,-376.3115 826.8739,-366.6427 817.458,-371.4998 822.5421,-376.3115"/>
</g>
<!-- Node4 -->
<g id="node5" class="node">
<title>Node4</title>
<g id="a_node5"><a xlink:href="RtypesCore_8h.html" target="_top" xlink:title="RtypesCore.h">
<polygon fill="#ffffff" stroke="#000000" points="237,-112.5 237,-131.5 319,-131.5 319,-112.5 237,-112.5"/>
<text text-anchor="middle" x="278" y="-119.5" font-family="Helvetica,sans-Serif" font-size="10.00" fill="#000000">RtypesCore.h</text>
</a>
</g>
</g>
<!-- Node3&#45;&gt;Node4 -->
<g id="edge4" class="edge">
<title>Node3&#45;&gt;Node4</title>
<path fill="none" stroke="#191970" d="M583.3574,-293.3732C495.2454,-286.8246 239.1768,-266.0698 209,-244 180.1844,-222.9256 164.0389,-198.2481 183,-168 193.0187,-152.0174 210.3404,-141.4506 227.4721,-134.5282"/>
<polygon fill="#191970" stroke="#191970" points="228.7493,-137.7877 236.9226,-131.0462 226.3292,-131.2194 228.7493,-137.7877"/>
</g>
<!-- Node8 -->
<g id="node9" class="node">
<title>Node8</title>
<g id="a_node9"><a xlink:href="DllImport_8h.html" target="_top" xlink:title="DllImport.h">
<polygon fill="#ffffff" stroke="#000000" points="492.5,-224.5 492.5,-243.5 563.5,-243.5 563.5,-224.5 492.5,-224.5"/>
<text text-anchor="middle" x="528" y="-231.5" font-family="Helvetica,sans-Serif" font-size="10.00" fill="#000000">DllImport.h</text>
</a>
</g>
</g>
<!-- Node3&#45;&gt;Node8 -->
<g id="edge9" class="edge">
<title>Node3&#45;&gt;Node8</title>
<path fill="none" stroke="#191970" d="M599.7188,-285.8906C586.2452,-276.1421 565.178,-260.8994 549.3565,-249.4521"/>
<polygon fill="#191970" stroke="#191970" points="551.3414,-246.5682 541.188,-243.5419 547.2381,-252.2394 551.3414,-246.5682"/>
</g>
<!-- Node9 -->
<g id="node10" class="node">
<title>Node9</title>
<polygon fill="#ffffff" stroke="#bfbfbf" points="582,-224.5 582,-243.5 644,-243.5 644,-224.5 582,-224.5"/>
<text text-anchor="middle" x="613" y="-231.5" font-family="Helvetica,sans-Serif" font-size="10.00" fill="#000000">snprintf.h</text>
</g>
<!-- Node3&#45;&gt;Node9 -->
<g id="edge10" class="edge">
<title>Node3&#45;&gt;Node9</title>
<path fill="none" stroke="#191970" d="M613,-285.8906C613,-277.3657 613,-264.6392 613,-253.9235"/>
<polygon fill="#191970" stroke="#191970" points="616.5001,-253.7448 613,-243.7449 609.5001,-253.7449 616.5001,-253.7448"/>
</g>
<!-- Node10 -->
<g id="node11" class="node">
<title>Node10</title>
<polygon fill="#ffffff" stroke="#bfbfbf" points="733.5,-224.5 733.5,-243.5 790.5,-243.5 790.5,-224.5 733.5,-224.5"/>
<text text-anchor="middle" x="762" y="-231.5" font-family="Helvetica,sans-Serif" font-size="10.00" fill="#000000">strlcpy.h</text>
</g>
<!-- Node3&#45;&gt;Node10 -->
<g id="edge11" class="edge">
<title>Node3&#45;&gt;Node10</title>
<path fill="none" stroke="#191970" d="M636.2813,-285.8906C661.321,-275.5554 701.3225,-259.0447 729.466,-247.4284"/>
<polygon fill="#191970" stroke="#191970" points="730.974,-250.5925 738.8822,-243.5419 728.3033,-244.122 730.974,-250.5925"/>
</g>
<!-- Node11 -->
<g id="node12" class="node">
<title>Node11</title>
<polygon fill="#ffffff" stroke="#bfbfbf" points="430,-168.5 430,-187.5 480,-187.5 480,-168.5 430,-168.5"/>
<text text-anchor="middle" x="455" y="-175.5" font-family="Helvetica,sans-Serif" font-size="10.00" fill="#000000">atomic</text>
</g>
<!-- Node3&#45;&gt;Node11 -->
<g id="edge12" class="edge">
<title>Node3&#45;&gt;Node11</title>
<path fill="none" stroke="#191970" d="M583.2376,-294.2252C520.9404,-290.8676 380.1542,-279.4428 351,-244 345.3532,-237.1352 346.1497,-231.4489 351,-224 359.0595,-211.6225 393.2251,-197.9997 420.2271,-188.8155"/>
<polygon fill="#191970" stroke="#191970" points="421.4002,-192.1139 429.7894,-185.6431 419.196,-185.47 421.4002,-192.1139"/>
</g>
<!-- Node12 -->
<g id="node13" class="node">
<title>Node12</title>
<polygon fill="#ffffff" stroke="#bfbfbf" points="885,-224.5 885,-243.5 935,-243.5 935,-224.5 885,-224.5"/>
<text text-anchor="middle" x="910" y="-231.5" font-family="Helvetica,sans-Serif" font-size="10.00" fill="#000000">stdio.h</text>
</g>
<!-- Node3&#45;&gt;Node12 -->
<g id="edge13" class="edge">
<title>Node3&#45;&gt;Node12</title>
<path fill="none" stroke="#191970" d="M642.5161,-290.1448C690.5645,-281.307 788.612,-262.771 871,-244 872.2651,-243.7118 873.5517,-243.4128 874.8502,-243.1061"/>
<polygon fill="#191970" stroke="#191970" points="875.9908,-246.4304 884.8732,-240.6552 874.328,-239.6307 875.9908,-246.4304"/>
</g>
<!-- Node13 -->
<g id="node14" class="node">
<title>Node13</title>
<polygon fill="#ffffff" stroke="#bfbfbf" points="662.5,-224.5 662.5,-243.5 715.5,-243.5 715.5,-224.5 662.5,-224.5"/>
<text text-anchor="middle" x="689" y="-231.5" font-family="Helvetica,sans-Serif" font-size="10.00" fill="#000000">string.h</text>
</g>
<!-- Node3&#45;&gt;Node13 -->
<g id="edge14" class="edge">
<title>Node3&#45;&gt;Node13</title>
<path fill="none" stroke="#191970" d="M624.875,-285.8906C636.6297,-276.3786 654.8486,-261.6357 668.8672,-250.2917"/>
<polygon fill="#191970" stroke="#191970" points="671.3856,-252.7562 676.9576,-243.7449 666.9822,-247.3146 671.3856,-252.7562"/>
</g>
<!-- Node14 -->
<g id="node15" class="node">
<title>Node14</title>
<polygon fill="#ffffff" stroke="#bfbfbf" points="192.5,-168.5 192.5,-187.5 249.5,-187.5 249.5,-168.5 192.5,-168.5"/>
<text text-anchor="middle" x="221" y="-175.5" font-family="Helvetica,sans-Serif" font-size="10.00" fill="#000000">typeinfo</text>
</g>
<!-- Node3&#45;&gt;Node14 -->
<g id="edge15" class="edge">
<title>Node3&#45;&gt;Node14</title>
<path fill="none" stroke="#191970" d="M583.4445,-293.8273C496.2889,-288.5962 244.9054,-271.2515 221,-244 210.1616,-231.6446 211.4688,-212.4147 214.7137,-197.8928"/>
<polygon fill="#191970" stroke="#191970" points="218.1846,-198.4634 217.4038,-187.8974 211.4252,-196.6441 218.1846,-198.4634"/>
</g>
<!-- Node15 -->
<g id="node16" class="node">
<title>Node15</title>
<polygon fill="#ffffff" stroke="#bfbfbf" points="1039.5,-168.5 1039.5,-187.5 1108.5,-187.5 1108.5,-168.5 1039.5,-168.5"/>
<text text-anchor="middle" x="1074" y="-175.5" font-family="Helvetica,sans-Serif" font-size="10.00" fill="#000000">type_traits</text>
</g>
<!-- Node3&#45;&gt;Node15 -->
<g id="edge16" class="edge">
<title>Node3&#45;&gt;Node15</title>
<path fill="none" stroke="#191970" d="M642.8807,-286.9868C691.5692,-273.2032 791.1166,-245.3879 876,-224 941.4984,-207.4965 960.435,-204.2827 1029.2197,-188.4056"/>
<polygon fill="#191970" stroke="#191970" points="1030.3142,-191.7448 1039.2664,-186.0785 1028.7345,-184.9253 1030.3142,-191.7448"/>
</g>
<!-- Node16 -->
<g id="node17" class="node">
<title>Node16</title>
<g id="a_node17"><a xlink:href="TGenericClassInfo_8h.html" target="_top" xlink:title="TGenericClassInfo.h">
<polygon fill="#ffffff" stroke="#000000" points="360,-224.5 360,-243.5 474,-243.5 474,-224.5 360,-224.5"/>
<text text-anchor="middle" x="417" y="-231.5" font-family="Helvetica,sans-Serif" font-size="10.00" fill="#000000">TGenericClassInfo.h</text>
</a>
</g>
</g>
<!-- Node3&#45;&gt;Node16 -->
<g id="edge17" class="edge">
<title>Node3&#45;&gt;Node16</title>
<path fill="none" stroke="#191970" d="M583.0754,-287.5859C547.9006,-277.296 489.8939,-259.1905 452.5018,-246.9017"/>
<polygon fill="#191970" stroke="#191970" points="453.1314,-243.4233 442.538,-243.6012 450.9302,-250.0682 453.1314,-243.4233"/>
</g>
<!-- Node20 -->
<g id="node21" class="node">
<title>Node20</title>
<g id="a_node21"><a xlink:href="TIsAProxy_8h.html" target="_top" xlink:title="TIsAProxy.h">
<polygon fill="#ffffff" stroke="#000000" points="230.5,-224.5 230.5,-243.5 303.5,-243.5 303.5,-224.5 230.5,-224.5"/>
<text text-anchor="middle" x="267" y="-231.5" font-family="Helvetica,sans-Serif" font-size="10.00" fill="#000000">TIsAProxy.h</text>
</a>
</g>
</g>
<!-- Node3&#45;&gt;Node20 -->
<g id="edge23" class="edge">
<title>Node3&#45;&gt;Node20</title>
<path fill="none" stroke="#191970" d="M583.2338,-290.514C529.9722,-281.5453 414.8716,-261.951 318,-244 316.5583,-243.7329 315.0942,-243.4593 313.6163,-243.1813"/>
<polygon fill="#191970" stroke="#191970" points="314.2322,-239.7358 303.7536,-241.3013 312.9213,-246.6119 314.2322,-239.7358"/>
</g>
<!-- Node5 -->
<g id="node6" class="node">
<title>Node5</title>
<g id="a_node6"><a xlink:href="RConfig_8hxx.html" target="_top" xlink:title="ROOT/RConfig.hxx">
<polygon fill="#ffffff" stroke="#000000" points="189.5,-56.5 189.5,-75.5 294.5,-75.5 294.5,-56.5 189.5,-56.5"/>
<text text-anchor="middle" x="242" y="-63.5" font-family="Helvetica,sans-Serif" font-size="10.00" fill="#000000">ROOT/RConfig.hxx</text>
</a>
</g>
</g>
<!-- Node4&#45;&gt;Node5 -->
<g id="edge5" class="edge">
<title>Node4&#45;&gt;Node5</title>
<path fill="none" stroke="#191970" d="M271.7293,-112.2455C266.7736,-104.5367 259.717,-93.5598 253.7224,-84.2348"/>
<polygon fill="#191970" stroke="#191970" points="256.5506,-82.1618 248.1989,-75.6427 250.6624,-85.9471 256.5506,-82.1618"/>
</g>
<!-- Node7 -->
<g id="node8" class="node">
<title>Node7</title>
<polygon fill="#ffffff" stroke="#bfbfbf" points="313,-56.5 313,-75.5 369,-75.5 369,-56.5 313,-56.5"/>
<text text-anchor="middle" x="341" y="-63.5" font-family="Helvetica,sans-Serif" font-size="10.00" fill="#000000">stddef.h</text>
</g>
<!-- Node4&#45;&gt;Node7 -->
<g id="edge8" class="edge">
<title>Node4&#45;&gt;Node7</title>
<path fill="none" stroke="#191970" d="M288.9738,-112.2455C298.1882,-104.0549 311.5532,-92.1749 322.4297,-82.5069"/>
<polygon fill="#191970" stroke="#191970" points="325.0032,-84.9023 330.152,-75.6427 320.3526,-79.6704 325.0032,-84.9023"/>
</g>
<!-- Node5&#45;&gt;Node2 -->
<g id="edge7" class="edge">
<title>Node5&#45;&gt;Node2</title>
<path fill="none" stroke="#191970" d="M294.7287,-57.2348C297.8625,-56.7949 300.9708,-56.3791 304,-56 474.459,-34.6678 677.8656,-19.523 769.6999,-13.236"/>
<polygon fill="#191970" stroke="#191970" points="770.0726,-16.7188 779.8122,-12.5487 769.5979,-9.7349 770.0726,-16.7188"/>
</g>
<!-- Node6 -->
<g id="node7" class="node">
<title>Node6</title>
<g id="a_node7"><a xlink:href="RVersion_8h.html" target="_top" xlink:title="../RVersion.h">
<polygon fill="#ffffff" stroke="#000000" points="117.5,-.5 117.5,-19.5 194.5,-19.5 194.5,-.5 117.5,-.5"/>
<text text-anchor="middle" x="156" y="-7.5" font-family="Helvetica,sans-Serif" font-size="10.00" fill="#000000">../RVersion.h</text>
</a>
</g>
</g>
<!-- Node5&#45;&gt;Node6 -->
<g id="edge6" class="edge">
<title>Node5&#45;&gt;Node6</title>
<path fill="none" stroke="#191970" d="M227.0199,-56.2455C213.8249,-47.6534 194.3949,-35.0014 179.1921,-25.1018"/>
<polygon fill="#191970" stroke="#191970" points="181.0983,-22.1665 170.8084,-19.6427 177.2785,-28.0325 181.0983,-22.1665"/>
</g>
<!-- Node16&#45;&gt;Node3 -->
<g id="edge22" class="edge">
<title>Node16&#45;&gt;Node3</title>
<path fill="none" stroke="#191970" d="M452.4592,-243.5419C487.9452,-254.0302 542.0144,-270.9366 577.506,-282.6009"/>
<polygon fill="#191970" stroke="#191970" points="576.8442,-286.0686 587.4375,-285.8906 579.0453,-279.4237 576.8442,-286.0686"/>
</g>
<!-- Node17 -->
<g id="node18" class="node">
<title>Node17</title>
<polygon fill="#ffffff" stroke="#bfbfbf" points="974.5,-168.5 974.5,-187.5 1021.5,-187.5 1021.5,-168.5 974.5,-168.5"/>
<text text-anchor="middle" x="998" y="-175.5" font-family="Helvetica,sans-Serif" font-size="10.00" fill="#000000">vector</text>
</g>
<!-- Node16&#45;&gt;Node17 -->
<g id="edge18" class="edge">
<title>Node16&#45;&gt;Node17</title>
<path fill="none" stroke="#191970" d="M474.2082,-225.1128C477.1793,-224.7199 480.1235,-224.3461 483,-224 664.0068,-202.2243 881.9534,-186.0475 964.3009,-180.2916"/>
<polygon fill="#191970" stroke="#191970" points="964.5997,-183.7793 974.3333,-179.5951 964.1149,-176.7961 964.5997,-183.7793"/>
</g>
<!-- Node18 -->
<g id="node19" class="node">
<title>Node18</title>
<g id="a_node19"><a xlink:href="TSchemaHelper_8h.html" target="_top" xlink:title="TSchemaHelper.h">
<polygon fill="#ffffff" stroke="#000000" points="498,-168.5 498,-187.5 600,-187.5 600,-168.5 498,-168.5"/>
<text text-anchor="middle" x="549" y="-175.5" font-family="Helvetica,sans-Serif" font-size="10.00" fill="#000000">TSchemaHelper.h</text>
</a>
</g>
</g>
<!-- Node16&#45;&gt;Node18 -->
<g id="edge19" class="edge">
<title>Node16&#45;&gt;Node18</title>
<path fill="none" stroke="#191970" d="M439.6916,-224.3733C461.0711,-215.3032 493.3057,-201.6279 517.2362,-191.4755"/>
<polygon fill="#191970" stroke="#191970" points="518.7656,-194.6287 526.6045,-187.5011 516.0317,-188.1846 518.7656,-194.6287"/>
</g>
<!-- Node18&#45;&gt;Node4 -->
<g id="edge20" class="edge">
<title>Node18&#45;&gt;Node4</title>
<path fill="none" stroke="#191970" d="M502.7214,-168.4369C454.4938,-158.471 379.1206,-142.8958 329.1539,-132.5705"/>
<polygon fill="#191970" stroke="#191970" points="329.7071,-129.111 319.2057,-130.5148 328.2905,-135.9662 329.7071,-129.111"/>
</g>
<!-- Node18&#45;&gt;Node19 -->
<g id="edge21" class="edge">
<title>Node18&#45;&gt;Node19</title>
<path fill="none" stroke="#191970" d="M600.0881,-170.7936C682.9818,-159.1008 844.449,-136.3246 913.4568,-126.5905"/>
<polygon fill="#191970" stroke="#191970" points="914.299,-130.0064 923.7121,-125.1439 913.3212,-123.075 914.299,-130.0064"/>
</g>
<!-- Node20&#45;&gt;Node4 -->
<g id="edge25" class="edge">
<title>Node20&#45;&gt;Node4</title>
<path fill="none" stroke="#191970" d="M267.9379,-224.4509C269.7319,-206.184 273.683,-165.9553 276.0654,-141.6976"/>
<polygon fill="#191970" stroke="#191970" points="279.5702,-141.8191 277.0645,-131.5249 272.6038,-141.1349 279.5702,-141.8191"/>
</g>
<!-- Node20&#45;&gt;Node11 -->
<g id="edge26" class="edge">
<title>Node20&#45;&gt;Node11</title>
<path fill="none" stroke="#191970" d="M299.3184,-224.3733C332.9527,-214.3545 385.4506,-198.7168 420.0358,-188.4149"/>
<polygon fill="#191970" stroke="#191970" points="421.134,-191.7398 429.7187,-185.5306 419.1357,-185.0311 421.134,-191.7398"/>
</g>
<!-- Node20&#45;&gt;Node14 -->
<g id="edge27" class="edge">
<title>Node20&#45;&gt;Node14</title>
<path fill="none" stroke="#191970" d="M258.9874,-224.2455C252.5232,-216.3761 243.2615,-205.101 235.5017,-195.6542"/>
<polygon fill="#191970" stroke="#191970" points="237.9727,-193.1484 228.9208,-187.6427 232.5636,-197.5916 237.9727,-193.1484"/>
</g>
<!-- Node21 -->
<g id="node22" class="node">
<title>Node21</title>
<g id="a_node22"><a xlink:href="TVirtualIsAProxy_8h.html" target="_top" xlink:title="TVirtualIsAProxy.h">
<polygon fill="#ffffff" stroke="#000000" points="306.5,-168.5 306.5,-187.5 411.5,-187.5 411.5,-168.5 306.5,-168.5"/>
<text text-anchor="middle" x="359" y="-175.5" font-family="Helvetica,sans-Serif" font-size="10.00" fill="#000000">TVirtualIsAProxy.h</text>
</a>
</g>
</g>
<!-- Node20&#45;&gt;Node21 -->
<g id="edge24" class="edge">
<title>Node20&#45;&gt;Node21</title>
<path fill="none" stroke="#191970" d="M283.0252,-224.2455C297.1408,-215.6534 317.9263,-203.0014 334.1899,-193.1018"/>
<polygon fill="#191970" stroke="#191970" points="336.4363,-195.8319 343.1585,-187.6427 332.7966,-189.8525 336.4363,-195.8319"/>
</g>
<!-- Node22&#45;&gt;Node2 -->
<g id="edge29" class="edge">
<title>Node22&#45;&gt;Node2</title>
<path fill="none" stroke="#191970" d="M735.9061,-347.364C763.8911,-329.056 819,-286.3567 819,-234 819,-234 819,-234 819,-122 819,-89.7116 819,-52.1872 819,-29.8048"/>
<polygon fill="#191970" stroke="#191970" points="822.5001,-29.5883 819,-19.5884 815.5001,-29.5884 822.5001,-29.5883"/>
</g>
<!-- Node22&#45;&gt;Node3 -->
<g id="edge30" class="edge">
<title>Node22&#45;&gt;Node3</title>
<path fill="none" stroke="#191970" d="M703.2813,-347.3906C685.9278,-337.4165 658.5677,-321.6908 638.5118,-310.1633"/>
<polygon fill="#191970" stroke="#191970" points="640.0154,-306.9907 629.6013,-305.0419 636.5272,-313.0596 640.0154,-306.9907"/>
</g>
<!-- Node23&#45;&gt;Node6 -->
<g id="edge32" class="edge">
<title>Node23&#45;&gt;Node6</title>
<path fill="none" stroke="#191970" d="M58.3895,-112.157C70.6971,-99.2565 92.9585,-75.9277 112,-56 121.2357,-46.3345 131.5677,-35.5323 139.8977,-26.8258"/>
<polygon fill="#191970" stroke="#191970" points="142.5113,-29.157 146.8961,-19.512 137.4537,-24.3175 142.5113,-29.157"/>
</g>
<!-- Node26&#45;&gt;Node1 -->
<g id="edge37" class="edge">
<title>Node26&#45;&gt;Node1</title>
<path fill="none" stroke="#191970" d="M858.9748,-459.2455C844.8592,-450.6534 824.0737,-438.0014 807.8101,-428.1018"/>
<polygon fill="#191970" stroke="#191970" points="809.2034,-424.8525 798.8415,-422.6427 805.5637,-430.8319 809.2034,-424.8525"/>
</g>
<!-- Node26&#45;&gt;Node27 -->
<g id="edge38" class="edge">
<title>Node26&#45;&gt;Node27</title>
<path fill="none" stroke="#191970" d="M890.3284,-459.2455C903.8303,-450.6534 923.7122,-438.0014 939.2686,-428.1018"/>
<polygon fill="#191970" stroke="#191970" points="941.2897,-430.9643 947.8472,-422.6427 937.5315,-425.0587 941.2897,-430.9643"/>
</g>
<!-- Node27&#45;&gt;Node12 -->
<g id="edge77" class="edge">
<title>Node27&#45;&gt;Node12</title>
<path fill="none" stroke="#191970" d="M960.204,-403.1493C956.5308,-390.2406 949.8588,-366.9028 944,-347 934.3052,-314.0658 922.7337,-275.8283 915.8968,-253.343"/>
<polygon fill="#191970" stroke="#191970" points="919.2104,-252.2096 912.9498,-243.6624 912.5139,-254.2482 919.2104,-252.2096"/>
</g>
<!-- Node27&#45;&gt;Node19 -->
<g id="edge78" class="edge">
<title>Node27&#45;&gt;Node19</title>
<path fill="none" stroke="#191970" d="M965.2697,-403.1048C971.3989,-374.9451 987.1588,-292.0115 977,-224 974.5284,-207.4533 970.8704,-204.0056 966,-188 961.262,-172.4293 955.9164,-154.785 951.9445,-141.6598"/>
<polygon fill="#191970" stroke="#191970" points="955.2203,-140.4004 948.9747,-131.8421 948.5201,-142.4272 955.2203,-140.4004"/>
</g>
<!-- Node27&#45;&gt;Node24 -->
<g id="edge76" class="edge">
<title>Node27&#45;&gt;Node24</title>
<path fill="none" stroke="#191970" d="M953.2455,-403.2455C945.1352,-395.1352 933.4075,-383.4075 923.7919,-373.7919"/>
<polygon fill="#191970" stroke="#191970" points="926.1887,-371.2389 916.6427,-366.6427 921.2389,-376.1887 926.1887,-371.2389"/>
</g>
<!-- Node27&#45;&gt;Node25 -->
<g id="edge75" class="edge">
<title>Node27&#45;&gt;Node25</title>
<path fill="none" stroke="#191970" d="M941.1679,-403.3733C920.6897,-394.3435 889.8601,-380.7494 866.8681,-370.6111"/>
<polygon fill="#191970" stroke="#191970" points="868.1093,-367.3333 857.5472,-366.5011 865.285,-373.7383 868.1093,-367.3333"/>
</g>
<!-- Node28 -->
<g id="node29" class="node">
<title>Node28</title>
<g id="a_node29"><a xlink:href="TMathBase_8h.html" target="_top" xlink:title="TMathBase.h">
<polygon fill="#ffffff" stroke="#000000" points="1740,-347.5 1740,-366.5 1820,-366.5 1820,-347.5 1740,-347.5"/>
<text text-anchor="middle" x="1780" y="-354.5" font-family="Helvetica,sans-Serif" font-size="10.00" fill="#000000">TMathBase.h</text>
</a>
</g>
</g>
<!-- Node27&#45;&gt;Node28 -->
<g id="edge39" class="edge">
<title>Node27&#45;&gt;Node28</title>
<path fill="none" stroke="#191970" d="M993.2086,-411.2755C1090.7761,-405.6524 1406.2691,-387.0523 1667,-367 1687.4736,-365.4254 1710.0139,-363.4747 1729.5416,-361.7154"/>
<polygon fill="#191970" stroke="#191970" points="1730.1063,-365.1786 1739.7489,-360.7887 1729.4734,-358.2073 1730.1063,-365.1786"/>
</g>
<!-- Node32 -->
<g id="node33" class="node">
<title>Node32</title>
<g id="a_node33"><a xlink:href="RStringView_8hxx.html" target="_top" xlink:title="ROOT/RStringView.hxx">
<polygon fill="#ffffff" stroke="#000000" points="1530.5,-347.5 1530.5,-366.5 1657.5,-366.5 1657.5,-347.5 1530.5,-347.5"/>
<text text-anchor="middle" x="1594" y="-354.5" font-family="Helvetica,sans-Serif" font-size="10.00" fill="#000000">ROOT/RStringView.hxx</text>
</a>
</g>
</g>
<!-- Node27&#45;&gt;Node32 -->
<g id="edge44" class="edge">
<title>Node27&#45;&gt;Node32</title>
<path fill="none" stroke="#191970" d="M993.0099,-410.3367C1087.6309,-401.9393 1381.6339,-375.8471 1520.2569,-363.5446"/>
<polygon fill="#191970" stroke="#191970" points="1520.7151,-367.0177 1530.3665,-362.6473 1520.0962,-360.0451 1520.7151,-367.0177"/>
</g>
<!-- Node39 -->
<g id="node40" class="node">
<title>Node39</title>
<g id="a_node40"><a xlink:href="TypeTraits_8hxx.html" target="_top" xlink:title="ROOT/TypeTraits.hxx">
<polygon fill="#ffffff" stroke="#000000" points="1029.5,-347.5 1029.5,-366.5 1146.5,-366.5 1146.5,-347.5 1029.5,-347.5"/>
<text text-anchor="middle" x="1088" y="-354.5" font-family="Helvetica,sans-Serif" font-size="10.00" fill="#000000">ROOT/TypeTraits.hxx</text>
</a>
</g>
</g>
<!-- Node27&#45;&gt;Node39 -->
<g id="edge60" class="edge">
<title>Node27&#45;&gt;Node39</title>
<path fill="none" stroke="#191970" d="M984.4883,-403.3733C1004.644,-394.3435 1034.988,-380.7494 1057.618,-370.6111"/>
<polygon fill="#191970" stroke="#191970" points="1059.0971,-373.7838 1066.7921,-366.5011 1056.2351,-367.3955 1059.0971,-373.7838"/>
</g>
<!-- Node28&#45;&gt;Node3 -->
<g id="edge40" class="edge">
<title>Node28&#45;&gt;Node3</title>
<path fill="none" stroke="#191970" d="M1739.7606,-353.0507C1718.1977,-351.0325 1691.1676,-348.6591 1667,-347 1271.9891,-319.8818 792.7395,-301.8467 653.0081,-296.8857"/>
<polygon fill="#191970" stroke="#191970" points="652.9033,-293.3799 642.786,-296.5247 652.6562,-300.3756 652.9033,-293.3799"/>
</g>
<!-- Node29 -->
<g id="node30" class="node">
<title>Node29</title>
<polygon fill="#ffffff" stroke="#bfbfbf" points="1755.5,-286 1755.5,-305 1804.5,-305 1804.5,-286 1755.5,-286"/>
<text text-anchor="middle" x="1780" y="-293" font-family="Helvetica,sans-Serif" font-size="10.00" fill="#000000">cstdlib</text>
</g>
<!-- Node28&#45;&gt;Node29 -->
<g id="edge41" class="edge">
<title>Node28&#45;&gt;Node29</title>
<path fill="none" stroke="#191970" d="M1780,-347.3906C1780,-338.8657 1780,-326.1392 1780,-315.4235"/>
<polygon fill="#191970" stroke="#191970" points="1783.5001,-315.2448 1780,-305.2449 1776.5001,-315.2449 1783.5001,-315.2448"/>
</g>
<!-- Node30 -->
<g id="node31" class="node">
<title>Node30</title>
<polygon fill="#ffffff" stroke="#bfbfbf" points="1822.5,-286 1822.5,-305 1869.5,-305 1869.5,-286 1822.5,-286"/>
<text text-anchor="middle" x="1846" y="-293" font-family="Helvetica,sans-Serif" font-size="10.00" fill="#000000">cmath</text>
</g>
<!-- Node28&#45;&gt;Node30 -->
<g id="edge42" class="edge">
<title>Node28&#45;&gt;Node30</title>
<path fill="none" stroke="#191970" d="M1790.3125,-347.3906C1800.4242,-337.9683 1816.0442,-323.4134 1828.1707,-312.1137"/>
<polygon fill="#191970" stroke="#191970" points="1830.612,-314.6228 1835.5421,-305.2449 1825.8399,-309.5015 1830.612,-314.6228"/>
</g>
<!-- Node31 -->
<g id="node32" class="node">
<title>Node31</title>
<polygon fill="#ffffff" stroke="#bfbfbf" points="1894,-168.5 1894,-187.5 1958,-187.5 1958,-168.5 1894,-168.5"/>
<text text-anchor="middle" x="1926" y="-175.5" font-family="Helvetica,sans-Serif" font-size="10.00" fill="#000000">algorithm</text>
</g>
<!-- Node28&#45;&gt;Node31 -->
<g id="edge43" class="edge">
<title>Node28&#45;&gt;Node31</title>
<path fill="none" stroke="#191970" d="M1817.2621,-347.4633C1837.9327,-340.4511 1862.6827,-328.9511 1879,-311 1908.5346,-278.5082 1919.7533,-226.289 1923.8246,-197.9139"/>
<polygon fill="#191970" stroke="#191970" points="1927.3394,-198.0192 1925.1296,-187.6574 1920.3954,-197.1356 1927.3394,-198.0192"/>
</g>
<!-- Node32&#45;&gt;Node2 -->
<g id="edge45" class="edge">
<title>Node32&#45;&gt;Node2</title>
<path fill="none" stroke="#191970" d="M1594,-347.4309C1594,-326.738 1594,-276.2813 1594,-234 1594,-234 1594,-234 1594,-122 1594,-48.3884 1039.2473,-19.1651 868.4451,-11.9121"/>
<polygon fill="#191970" stroke="#191970" points="868.3677,-8.4059 858.2303,-11.4852 868.0754,-15.3998 868.3677,-8.4059"/>
</g>
<!-- Node33 -->
<g id="node34" class="node">
<title>Node33</title>
<g id="a_node34"><a xlink:href="RWrap__libcpp__string__view_8h.html" target="_top" xlink:title="RWrap_libcpp_string\l_view.h">
<polygon fill="#ffffff" stroke="#000000" points="1622.5,-280.5 1622.5,-310.5 1737.5,-310.5 1737.5,-280.5 1622.5,-280.5"/>
<text text-anchor="start" x="1630.5" y="-298.5" font-family="Helvetica,sans-Serif" font-size="10.00" fill="#000000">RWrap_libcpp_string</text>
<text text-anchor="middle" x="1680" y="-287.5" font-family="Helvetica,sans-Serif" font-size="10.00" fill="#000000">_view.h</text>
</a>
</g>
</g>
<!-- Node32&#45;&gt;Node33 -->
<g id="edge46" class="edge">
<title>Node32&#45;&gt;Node33</title>
<path fill="none" stroke="#191970" d="M1607.4375,-347.3906C1618.9688,-339.1444 1635.9976,-326.9669 1650.6611,-316.4807"/>
<polygon fill="#191970" stroke="#191970" points="1652.8638,-319.2084 1658.962,-310.5446 1648.792,-313.5145 1652.8638,-319.2084"/>
</g>
<!-- Node33&#45;&gt;Node19 -->
<g id="edge47" class="edge">
<title>Node33&#45;&gt;Node19</title>
<path fill="none" stroke="#191970" d="M1653.2964,-280.4462C1598.2764,-249.6973 1473.547,-181.4389 1427,-168 1342.2164,-143.5214 1071.911,-128.2084 978.2881,-123.529"/>
<polygon fill="#191970" stroke="#191970" points="978.4317,-120.032 968.2715,-123.0355 978.0871,-127.0235 978.4317,-120.032"/>
</g>
<!-- Node33&#45;&gt;Node31 -->
<g id="edge48" class="edge">
<title>Node33&#45;&gt;Node31</title>
<path fill="none" stroke="#191970" d="M1731.1562,-280.3933C1759.2154,-271.3238 1794.245,-258.7007 1824,-244 1853.6504,-229.3509 1885.2442,-207.8873 1905.2777,-193.4522"/>
<polygon fill="#191970" stroke="#191970" points="1907.352,-196.2714 1913.3683,-187.5504 1903.2267,-190.6161 1907.352,-196.2714"/>
</g>
<!-- Node34 -->
<g id="node35" class="node">
<title>Node34</title>
<polygon fill="#ffffff" stroke="#bfbfbf" points="1512.5,-168.5 1512.5,-187.5 1565.5,-187.5 1565.5,-168.5 1512.5,-168.5"/>
<text text-anchor="middle" x="1539" y="-175.5" font-family="Helvetica,sans-Serif" font-size="10.00" fill="#000000">iterator</text>
</g>
<!-- Node33&#45;&gt;Node34 -->
<g id="edge49" class="edge">
<title>Node33&#45;&gt;Node34</title>
<path fill="none" stroke="#191970" d="M1661.8554,-280.3795C1635.1627,-258.1356 1585.5305,-216.7754 1558.2308,-194.0256"/>
<polygon fill="#191970" stroke="#191970" points="1560.4484,-191.3177 1550.5255,-187.6046 1555.9671,-196.6953 1560.4484,-191.3177"/>
</g>
<!-- Node35 -->
<g id="node36" class="node">
<title>Node35</title>
<polygon fill="#ffffff" stroke="#bfbfbf" points="1744.5,-168.5 1744.5,-187.5 1801.5,-187.5 1801.5,-168.5 1744.5,-168.5"/>
<text text-anchor="middle" x="1773" y="-175.5" font-family="Helvetica,sans-Serif" font-size="10.00" fill="#000000">ostream</text>
</g>
<!-- Node33&#45;&gt;Node35 -->
<g id="edge50" class="edge">
<title>Node33&#45;&gt;Node35</title>
<path fill="none" stroke="#191970" d="M1737.763,-280.5137C1756.0721,-272.7415 1774.3134,-261.1443 1785,-244 1793.8241,-229.8436 1789.0173,-210.8672 1783.0704,-196.896"/>
<polygon fill="#191970" stroke="#191970" points="1786.1746,-195.2739 1778.7172,-187.748 1779.8537,-198.2817 1786.1746,-195.2739"/>
</g>
<!-- Node36 -->
<g id="node37" class="node">
<title>Node36</title>
<polygon fill="#ffffff" stroke="#bfbfbf" points="1820,-168.5 1820,-187.5 1876,-187.5 1876,-168.5 1820,-168.5"/>
<text text-anchor="middle" x="1848" y="-175.5" font-family="Helvetica,sans-Serif" font-size="10.00" fill="#000000">iomanip</text>
</g>
<!-- Node33&#45;&gt;Node36 -->
<g id="edge51" class="edge">
<title>Node33&#45;&gt;Node36</title>
<path fill="none" stroke="#191970" d="M1731.9644,-280.4863C1754.733,-272.1995 1780.8053,-260.237 1801,-244 1817.0331,-231.1091 1830.0865,-211.4065 1838.3321,-196.8824"/>
<polygon fill="#191970" stroke="#191970" points="1841.5653,-198.262 1843.25,-187.8019 1835.41,-194.9283 1841.5653,-198.262"/>
</g>
<!-- Node37 -->
<g id="node38" class="node">
<title>Node37</title>
<polygon fill="#ffffff" stroke="#bfbfbf" points="1622.5,-168.5 1622.5,-187.5 1687.5,-187.5 1687.5,-168.5 1622.5,-168.5"/>
<text text-anchor="middle" x="1655" y="-175.5" font-family="Helvetica,sans-Serif" font-size="10.00" fill="#000000">stdexcept</text>
</g>
<!-- Node33&#45;&gt;Node37 -->
<g id="edge52" class="edge">
<title>Node33&#45;&gt;Node37</title>
<path fill="none" stroke="#191970" d="M1668.5974,-280.1784C1662.0381,-270.3846 1654.4352,-257.1017 1651,-244 1646.9968,-228.732 1648.4478,-210.825 1650.649,-197.5186"/>
<polygon fill="#191970" stroke="#191970" points="1654.1081,-198.0649 1652.5711,-187.5821 1647.2355,-196.7354 1654.1081,-198.0649"/>
</g>
<!-- Node38 -->
<g id="node39" class="node">
<title>Node38</title>
<g id="a_node39"><a xlink:href="libcpp__string__view_8h.html" target="_top" xlink:title="libcpp_string_view.h">
<polygon fill="#ffffff" stroke="#000000" points="1660,-224.5 1660,-243.5 1776,-243.5 1776,-224.5 1660,-224.5"/>
<text text-anchor="middle" x="1718" y="-231.5" font-family="Helvetica,sans-Serif" font-size="10.00" fill="#000000">libcpp_string_view.h</text>
</a>
</g>
</g>
<!-- Node33&#45;&gt;Node38 -->
<g id="edge53" class="edge">
<title>Node33&#45;&gt;Node38</title>
<path fill="none" stroke="#191970" d="M1689.3933,-280.2977C1694.6131,-271.8498 1701.1457,-261.2773 1706.65,-252.369"/>
<polygon fill="#191970" stroke="#191970" points="1709.6368,-254.1938 1711.9157,-243.8469 1703.6818,-250.5143 1709.6368,-254.1938"/>
</g>
<!-- Node38&#45;&gt;Node19 -->
<g id="edge54" class="edge">
<title>Node38&#45;&gt;Node19</title>
<path fill="none" stroke="#191970" d="M1718.0775,-224.0158C1717.5938,-209.1352 1714.2621,-181.4515 1697,-168 1668.2546,-145.6002 1118.82,-127.2944 978.4376,-122.9695"/>
<polygon fill="#191970" stroke="#191970" points="978.4175,-119.4674 968.3152,-122.6602 978.2036,-126.4641 978.4175,-119.4674"/>
</g>
<!-- Node38&#45;&gt;Node31 -->
<g id="edge55" class="edge">
<title>Node38&#45;&gt;Node31</title>
<path fill="none" stroke="#191970" d="M1753.7565,-224.3733C1789.9023,-214.6417 1845.739,-199.6087 1883.9777,-189.3137"/>
<polygon fill="#191970" stroke="#191970" points="1885.0345,-192.6539 1893.7807,-186.6744 1883.2146,-185.8946 1885.0345,-192.6539"/>
</g>
<!-- Node38&#45;&gt;Node34 -->
<g id="edge56" class="edge">
<title>Node38&#45;&gt;Node34</title>
<path fill="none" stroke="#191970" d="M1687.2288,-224.3733C1656.1573,-214.6526 1608.1781,-199.6423 1575.2738,-189.3482"/>
<polygon fill="#191970" stroke="#191970" points="1576.1704,-185.9615 1565.5815,-186.316 1574.0803,-192.6422 1576.1704,-185.9615"/>
</g>
<!-- Node38&#45;&gt;Node35 -->
<g id="edge57" class="edge">
<title>Node38&#45;&gt;Node35</title>
<path fill="none" stroke="#191970" d="M1727.5803,-224.2455C1735.5458,-216.1352 1747.0641,-204.4075 1756.5079,-194.7919"/>
<polygon fill="#191970" stroke="#191970" points="1759.0195,-197.2297 1763.5295,-187.6427 1754.0253,-192.3247 1759.0195,-197.2297"/>
</g>
<!-- Node38&#45;&gt;Node36 -->
<g id="edge58" class="edge">
<title>Node38&#45;&gt;Node36</title>
<path fill="none" stroke="#191970" d="M1740.3478,-224.3733C1761.4033,-215.3032 1793.1495,-201.6279 1816.7175,-191.4755"/>
<polygon fill="#191970" stroke="#191970" points="1818.1444,-194.6719 1825.9438,-187.5011 1815.375,-188.243 1818.1444,-194.6719"/>
</g>
<!-- Node38&#45;&gt;Node37 -->
<g id="edge59" class="edge">
<title>Node38&#45;&gt;Node37</title>
<path fill="none" stroke="#191970" d="M1707.0262,-224.2455C1697.8118,-216.0549 1684.4468,-204.1749 1673.5703,-194.5069"/>
<polygon fill="#191970" stroke="#191970" points="1675.6474,-191.6704 1665.848,-187.6427 1670.9968,-196.9023 1675.6474,-191.6704"/>
</g>
<!-- Node39&#45;&gt;Node15 -->
<g id="edge62" class="edge">
<title>Node39&#45;&gt;Node15</title>
<path fill="none" stroke="#191970" d="M1087.2473,-347.3762C1085.0443,-319.2097 1078.5764,-236.5126 1075.5698,-198.0713"/>
<polygon fill="#191970" stroke="#191970" points="1079.0256,-197.368 1074.7564,-187.6714 1072.0469,-197.9139 1079.0256,-197.368"/>
</g>
<!-- Node39&#45;&gt;Node17 -->
<g id="edge63" class="edge">
<title>Node39&#45;&gt;Node17</title>
<path fill="none" stroke="#191970" d="M1083.1612,-347.3762C1068.8772,-318.9669 1026.7008,-235.0828 1007.5968,-197.0871"/>
<polygon fill="#191970" stroke="#191970" points="1010.4819,-195.0334 1002.8627,-187.6714 1004.2279,-198.1779 1010.4819,-195.0334"/>
</g>
<!-- Node40 -->
<g id="node41" class="node">
<title>Node40</title>
<polygon fill="#ffffff" stroke="#bfbfbf" points="1127,-168.5 1127,-187.5 1185,-187.5 1185,-168.5 1127,-168.5"/>
<text text-anchor="middle" x="1156" y="-175.5" font-family="Helvetica,sans-Serif" font-size="10.00" fill="#000000">memory</text>
</g>
<!-- Node39&#45;&gt;Node40 -->
<g id="edge61" class="edge">
<title>Node39&#45;&gt;Node40</title>
<path fill="none" stroke="#191970" d="M1091.656,-347.3762C1102.4483,-318.9669 1134.3149,-235.0828 1148.7491,-197.0871"/>
<polygon fill="#191970" stroke="#191970" points="1152.0465,-198.2626 1152.3259,-187.6714 1145.5028,-195.7766 1152.0465,-198.2626"/>
</g>
<!-- Node41 -->
<g id="node42" class="node">
<title>Node41</title>
<g id="a_node42"><a xlink:href="RSpan_8hxx.html" target="_top" xlink:title="ROOT/RSpan.hxx">
<polygon fill="#ffffff" stroke="#000000" points="1220.5,-286 1220.5,-305 1319.5,-305 1319.5,-286 1220.5,-286"/>
<text text-anchor="middle" x="1270" y="-293" font-family="Helvetica,sans-Serif" font-size="10.00" fill="#000000">ROOT/RSpan.hxx</text>
</a>
</g>
</g>
<!-- Node39&#45;&gt;Node41 -->
<g id="edge64" class="edge">
<title>Node39&#45;&gt;Node41</title>
<path fill="none" stroke="#191970" d="M1116.4375,-347.3906C1147.5572,-336.8749 1197.5964,-319.966 1232.0485,-308.3243"/>
<polygon fill="#191970" stroke="#191970" points="1233.4089,-311.5591 1241.7622,-305.0419 1231.168,-304.9274 1233.4089,-311.5591"/>
</g>
<!-- Node41&#45;&gt;Node2 -->
<g id="edge65" class="edge">
<title>Node41&#45;&gt;Node2</title>
<path fill="none" stroke="#191970" d="M1319.6338,-290.1024C1382.8516,-280.1603 1484,-252.597 1484,-178 1484,-178 1484,-178 1484,-122 1484,-59.5545 1022.1314,-23.4035 868.2277,-13.0907"/>
<polygon fill="#191970" stroke="#191970" points="868.3256,-9.5896 858.1161,-12.4208 867.8628,-16.5743 868.3256,-9.5896"/>
</g>
<!-- Node42 -->
<g id="node43" class="node">
<title>Node42</title>
<g id="a_node43"><a xlink:href="span_8hxx.html" target="_top" xlink:title="ROOT/span.hxx">
<polygon fill="#ffffff" stroke="#000000" points="1224,-224.5 1224,-243.5 1316,-243.5 1316,-224.5 1224,-224.5"/>
<text text-anchor="middle" x="1270" y="-231.5" font-family="Helvetica,sans-Serif" font-size="10.00" fill="#000000">ROOT/span.hxx</text>
</a>
</g>
</g>
<!-- Node41&#45;&gt;Node42 -->
<g id="edge66" class="edge">
<title>Node41&#45;&gt;Node42</title>
<path fill="none" stroke="#191970" d="M1270,-285.8906C1270,-277.3657 1270,-264.6392 1270,-253.9235"/>
<polygon fill="#191970" stroke="#191970" points="1273.5001,-253.7448 1270,-243.7449 1266.5001,-253.7449 1273.5001,-253.7448"/>
</g>
<!-- Node42&#45;&gt;Node15 -->
<g id="edge73" class="edge">
<title>Node42&#45;&gt;Node15</title>
<path fill="none" stroke="#191970" d="M1236.3064,-224.3733C1203.2913,-214.9404 1152.8427,-200.5265 1116.9614,-190.2747"/>
<polygon fill="#191970" stroke="#191970" points="1117.8307,-186.8831 1107.2539,-187.5011 1115.9076,-193.6137 1117.8307,-186.8831"/>
</g>
<!-- Node42&#45;&gt;Node17 -->
<g id="edge70" class="edge">
<title>Node42&#45;&gt;Node17</title>
<path fill="none" stroke="#191970" d="M1223.8731,-226.5888C1177.5887,-218.8255 1104.1078,-205.6141 1031.4853,-187.9182"/>
<polygon fill="#191970" stroke="#191970" points="1032.2584,-184.504 1021.7112,-185.5076 1030.5822,-191.3004 1032.2584,-184.504"/>
</g>
<!-- Node42&#45;&gt;Node34 -->
<g id="edge68" class="edge">
<title>Node42&#45;&gt;Node34</title>
<path fill="none" stroke="#191970" d="M1315.9371,-224.4369C1368.6417,-213.4649 1454.0067,-195.6938 1502.4204,-185.6151"/>
<polygon fill="#191970" stroke="#191970" points="1503.3765,-188.9912 1512.4532,-183.5265 1501.9498,-182.1381 1503.3765,-188.9912"/>
</g>
<!-- Node42&#45;&gt;Node37 -->
<g id="edge71" class="edge">
<title>Node42&#45;&gt;Node37</title>
<path fill="none" stroke="#191970" d="M1316.0576,-227.3007C1391.201,-216.3708 1539.1005,-194.8581 1612.1281,-184.2359"/>
<polygon fill="#191970" stroke="#191970" points="1612.9498,-187.6533 1622.3418,-182.7503 1611.9422,-180.7262 1612.9498,-187.6533"/>
</g>
<!-- Node42&#45;&gt;Node40 -->
<g id="edge72" class="edge">
<title>Node42&#45;&gt;Node40</title>
<path fill="none" stroke="#191970" d="M1250.4027,-224.3733C1232.2669,-215.4644 1205.0865,-202.1127 1184.5413,-192.0203"/>
<polygon fill="#191970" stroke="#191970" points="1185.8603,-188.7688 1175.3416,-187.5011 1182.7739,-195.0517 1185.8603,-188.7688"/>
</g>
<!-- Node43 -->
<g id="node44" class="node">
<title>Node43</title>
<polygon fill="#ffffff" stroke="#bfbfbf" points="1364.5,-168.5 1364.5,-187.5 1417.5,-187.5 1417.5,-168.5 1364.5,-168.5"/>
<text text-anchor="middle" x="1391" y="-175.5" font-family="Helvetica,sans-Serif" font-size="10.00" fill="#000000">cstddef</text>
</g>
<!-- Node42&#45;&gt;Node43 -->
<g id="edge67" class="edge">
<title>Node42&#45;&gt;Node43</title>
<path fill="none" stroke="#191970" d="M1290.8006,-224.3733C1310.2243,-215.3838 1339.4224,-201.8706 1361.2964,-191.7471"/>
<polygon fill="#191970" stroke="#191970" points="1362.8656,-194.8776 1370.4708,-187.5011 1359.9255,-188.5249 1362.8656,-194.8776"/>
</g>
<!-- Node44 -->
<g id="node45" class="node">
<title>Node44</title>
<polygon fill="#ffffff" stroke="#bfbfbf" points="1203,-168.5 1203,-187.5 1245,-187.5 1245,-168.5 1203,-168.5"/>
<text text-anchor="middle" x="1224" y="-175.5" font-family="Helvetica,sans-Serif" font-size="10.00" fill="#000000">array</text>
</g>
<!-- Node42&#45;&gt;Node44 -->
<g id="edge69" class="edge">
<title>Node42&#45;&gt;Node44</title>
<path fill="none" stroke="#191970" d="M1261.9874,-224.2455C1255.5232,-216.3761 1246.2615,-205.101 1238.5017,-195.6542"/>
<polygon fill="#191970" stroke="#191970" points="1240.9727,-193.1484 1231.9208,-187.6427 1235.5636,-197.5916 1240.9727,-193.1484"/>
</g>
<!-- Node45 -->
<g id="node46" class="node">
<title>Node45</title>
<polygon fill="#ffffff" stroke="#bfbfbf" points="1263.5,-168.5 1263.5,-187.5 1346.5,-187.5 1346.5,-168.5 1263.5,-168.5"/>
<text text-anchor="middle" x="1305" y="-175.5" font-family="Helvetica,sans-Serif" font-size="10.00" fill="#000000">initializer_list</text>
</g>
<!-- Node42&#45;&gt;Node45 -->
<g id="edge74" class="edge">
<title>Node42&#45;&gt;Node45</title>
<path fill="none" stroke="#191970" d="M1276.0965,-224.2455C1280.9145,-216.5367 1287.7751,-205.5598 1293.6032,-196.2348"/>
<polygon fill="#191970" stroke="#191970" points="1296.6413,-197.9777 1298.9733,-187.6427 1290.7053,-194.2677 1296.6413,-197.9777"/>
</g>
</g>
</svg>
