<?xml version="1.0" encoding="UTF-8" standalone="no"?>
<!DOCTYPE svg PUBLIC "-//W3C//DTD SVG 1.1//EN"
 "http://www.w3.org/Graphics/SVG/1.1/DTD/svg11.dtd">
<!-- Generated by graphviz version 2.40.1 (0)
 -->
<!-- Title: proof/proofbench/inc/TProofBenchRun.h Pages: 1 -->
<svg width="526pt" height="173pt"
 viewBox="0.00 0.00 525.50 173.00" xmlns="http://www.w3.org/2000/svg" xmlns:xlink="http://www.w3.org/1999/xlink">
<g id="graph0" class="graph" transform="scale(1 1) rotate(0) translate(4 169)">
<title>proof/proofbench/inc/TProofBenchRun.h</title>
<polygon fill="#ffffff" stroke="transparent" points="-4,4 -4,-169 521.5,-169 521.5,4 -4,4"/>
<!-- Node46 -->
<g id="node1" class="node">
<title>Node46</title>
<polygon fill="#bfbfbf" stroke="#000000" points="244.5,-134.5 244.5,-164.5 361.5,-164.5 361.5,-134.5 244.5,-134.5"/>
<text text-anchor="start" x="252.5" y="-152.5" font-family="Helvetica,sans-Serif" font-size="10.00" fill="#000000">proof/proofbench/inc</text>
<text text-anchor="middle" x="303" y="-141.5" font-family="Helvetica,sans-Serif" font-size="10.00" fill="#000000">/TProofBenchRun.h</text>
</g>
<!-- Node47 -->
<g id="node2" class="node">
<title>Node47</title>
<g id="a_node2"><a xlink:href="TProofBenchRunCPU_8h.html" target="_top" xlink:title="proof/proofbench/inc\l/TProofBenchRunCPU.h">
<polygon fill="#ffffff" stroke="#000000" points="79,-67.5 79,-97.5 207,-97.5 207,-67.5 79,-67.5"/>
<text text-anchor="start" x="87" y="-85.5" font-family="Helvetica,sans-Serif" font-size="10.00" fill="#000000">proof/proofbench/inc</text>
<text text-anchor="middle" x="143" y="-74.5" font-family="Helvetica,sans-Serif" font-size="10.00" fill="#000000">/TProofBenchRunCPU.h</text>
</a>
</g>
</g>
<!-- Node46&#45;&gt;Node47 -->
<g id="edge1" class="edge">
<title>Node46&#45;&gt;Node47</title>
<path fill="none" stroke="#191970" d="M257.841,-130.5897C232.9147,-120.1518 202.3801,-107.3654 179.0637,-97.6017"/>
<polygon fill="#191970" stroke="#191970" points="256.517,-133.8297 267.0929,-134.4639 259.2208,-127.3729 256.517,-133.8297"/>
</g>
<!-- Node50 -->
<g id="node5" class="node">
<title>Node50</title>
<g id="a_node5"><a xlink:href="TProofBenchRunDataRead_8h.html" target="_top" xlink:title="proof/proofbench/inc\l/TProofBenchRunDataRead.h">
<polygon fill="#ffffff" stroke="#000000" points="225.5,-67.5 225.5,-97.5 380.5,-97.5 380.5,-67.5 225.5,-67.5"/>
<text text-anchor="start" x="233.5" y="-85.5" font-family="Helvetica,sans-Serif" font-size="10.00" fill="#000000">proof/proofbench/inc</text>
<text text-anchor="middle" x="303" y="-74.5" font-family="Helvetica,sans-Serif" font-size="10.00" fill="#000000">/TProofBenchRunDataRead.h</text>
</a>
</g>
</g>
<!-- Node46&#45;&gt;Node50 -->
<g id="edge4" class="edge">
<title>Node46&#45;&gt;Node50</title>
<path fill="none" stroke="#191970" d="M303,-124.0249C303,-115.128 303,-105.4287 303,-97.6432"/>
<polygon fill="#191970" stroke="#191970" points="299.5001,-124.2966 303,-134.2967 306.5001,-124.2967 299.5001,-124.2966"/>
</g>
<!-- Node52 -->
<g id="node7" class="node">
<title>Node52</title>
<g id="a_node7"><a xlink:href="TProofBenchRun_8cxx.html" target="_top" xlink:title="proof/proofbench/src\l/TProofBenchRun.cxx">
<polygon fill="#ffffff" stroke="#000000" points="398.5,-67.5 398.5,-97.5 517.5,-97.5 517.5,-67.5 398.5,-67.5"/>
<text text-anchor="start" x="406.5" y="-85.5" font-family="Helvetica,sans-Serif" font-size="10.00" fill="#000000">proof/proofbench/src</text>
<text text-anchor="middle" x="458" y="-74.5" font-family="Helvetica,sans-Serif" font-size="10.00" fill="#000000">/TProofBenchRun.cxx</text>
</a>
</g>
</g>
<!-- Node46&#45;&gt;Node52 -->
<g id="edge7" class="edge">
<title>Node46&#45;&gt;Node52</title>
<path fill="none" stroke="#191970" d="M347.0672,-130.4516C371.1556,-120.0392 400.575,-107.3224 423.0633,-97.6017"/>
<polygon fill="#191970" stroke="#191970" points="345.5754,-127.2834 337.785,-134.4639 348.3529,-133.7088 345.5754,-127.2834"/>
</g>
<!-- Node48 -->
<g id="node3" class="node">
<title>Node48</title>
<g id="a_node3"><a xlink:href="TProofBench_8cxx.html" target="_top" xlink:title="proof/proofbench/src\l/TProofBench.cxx">
<polygon fill="#ffffff" stroke="#000000" points="158.5,-.5 158.5,-30.5 275.5,-30.5 275.5,-.5 158.5,-.5"/>
<text text-anchor="start" x="166.5" y="-18.5" font-family="Helvetica,sans-Serif" font-size="10.00" fill="#000000">proof/proofbench/src</text>
<text text-anchor="middle" x="217" y="-7.5" font-family="Helvetica,sans-Serif" font-size="10.00" fill="#000000">/TProofBench.cxx</text>
</a>
</g>
</g>
<!-- Node47&#45;&gt;Node48 -->
<g id="edge2" class="edge">
<title>Node47&#45;&gt;Node48</title>
<path fill="none" stroke="#191970" d="M167.3024,-60.4965C178.101,-50.7193 190.5418,-39.4554 200.2747,-30.6432"/>
<polygon fill="#191970" stroke="#191970" points="164.8556,-57.9903 159.7917,-67.2967 169.5539,-63.1794 164.8556,-57.9903"/>
</g>
<!-- Node49 -->
<g id="node4" class="node">
<title>Node49</title>
<g id="a_node4"><a xlink:href="TProofBenchRunCPU_8cxx.html" target="_top" xlink:title="proof/proofbench/src\l/TProofBenchRunCPU.cxx">
<polygon fill="#ffffff" stroke="#000000" points="0,-.5 0,-30.5 140,-30.5 140,-.5 0,-.5"/>
<text text-anchor="start" x="8" y="-18.5" font-family="Helvetica,sans-Serif" font-size="10.00" fill="#000000">proof/proofbench/src</text>
<text text-anchor="middle" x="70" y="-7.5" font-family="Helvetica,sans-Serif" font-size="10.00" fill="#000000">/TProofBenchRunCPU.cxx</text>
</a>
</g>
</g>
<!-- Node47&#45;&gt;Node49 -->
<g id="edge3" class="edge">
<title>Node47&#45;&gt;Node49</title>
<path fill="none" stroke="#191970" d="M119.026,-60.4965C108.3733,-50.7193 96.1007,-39.4554 86.4993,-30.6432"/>
<polygon fill="#191970" stroke="#191970" points="116.7011,-63.1134 126.4352,-67.2967 121.4344,-57.9562 116.7011,-63.1134"/>
</g>
<!-- Node50&#45;&gt;Node48 -->
<g id="edge5" class="edge">
<title>Node50&#45;&gt;Node48</title>
<path fill="none" stroke="#191970" d="M275.4855,-61.0643C262.7696,-51.1577 247.9684,-39.6265 236.4375,-30.6432"/>
<polygon fill="#191970" stroke="#191970" points="273.4456,-63.9119 283.4853,-67.2967 277.7477,-58.3899 273.4456,-63.9119"/>
</g>
<!-- Node51 -->
<g id="node6" class="node">
<title>Node51</title>
<g id="a_node6"><a xlink:href="TProofBenchRunDataRead_8cxx.html" target="_top" xlink:title="proof/proofbench/src\l/TProofBenchRunDataRead.cxx">
<polygon fill="#ffffff" stroke="#000000" points="293.5,-.5 293.5,-30.5 460.5,-30.5 460.5,-.5 293.5,-.5"/>
<text text-anchor="start" x="301.5" y="-18.5" font-family="Helvetica,sans-Serif" font-size="10.00" fill="#000000">proof/proofbench/src</text>
<text text-anchor="middle" x="377" y="-7.5" font-family="Helvetica,sans-Serif" font-size="10.00" fill="#000000">/TProofBenchRunDataRead.cxx</text>
</a>
</g>
</g>
<!-- Node50&#45;&gt;Node51 -->
<g id="edge6" class="edge">
<title>Node50&#45;&gt;Node51</title>
<path fill="none" stroke="#191970" d="M327.3024,-60.4965C338.101,-50.7193 350.5418,-39.4554 360.2747,-30.6432"/>
<polygon fill="#191970" stroke="#191970" points="324.8556,-57.9903 319.7917,-67.2967 329.5539,-63.1794 324.8556,-57.9903"/>
</g>
</g>
</svg>
