<?xml version="1.0" encoding="UTF-8" standalone="no"?>
<!DOCTYPE svg PUBLIC "-//W3C//DTD SVG 1.1//EN"
 "http://www.w3.org/Graphics/SVG/1.1/DTD/svg11.dtd">
<!-- Generated by graphviz version 2.40.1 (0)
 -->
<!-- Title: bindings/r/inc/TRInterface_Binding.h Pages: 1 -->
<!--zoomable 285 -->
<svg id="main" version="1.1" xmlns="http://www.w3.org/2000/svg" xmlns:xlink="http://www.w3.org/1999/xlink" xml:space="preserve" onload="init(evt)">
<style type="text/css"><![CDATA[
.edge:hover path { stroke: red; }
.edge:hover polygon { stroke: red; fill: red; }
]]></style>
<script type="text/javascript"><![CDATA[
var edges = document.getElementsByTagName('g');
if (edges && edges.length) {
  for (var i=0;i<edges.length;i++) {
    if (edges[i].id.substr(0,4)=='edge') {
      edges[i].setAttribute('class','edge');
    }
  }
}
]]></script>
        <defs>
                <circle id="rim" cx="0" cy="0" r="7"/>
                <circle id="rim2" cx="0" cy="0" r="3.5"/>
                <g id="zoomPlus">
                        <use xlink:href="#rim" fill="#404040">
                                <set attributeName="fill" to="#808080" begin="zoomplus.mouseover" end="zoomplus.mouseout"/>
                        </use>
                        <path d="M-4,0h8M0,-4v8" fill="none" stroke="white" stroke-width="1.5" pointer-events="none"/>
                </g>
                <g id="zoomMin">
                        <use xlink:href="#rim" fill="#404040">
                                <set attributeName="fill" to="#808080" begin="zoomminus.mouseover" end="zoomminus.mouseout"/>
                        </use>
                        <path d="M-4,0h8" fill="none" stroke="white" stroke-width="1.5" pointer-events="none"/>
                </g>
                <g id="dirArrow">
                        <path fill="none" stroke="white" stroke-width="1.5" d="M0,-3.0v7 M-2.5,-0.5L0,-3.0L2.5,-0.5"/>
                </g>
               <g id="resetDef">
                       <use xlink:href="#rim2" fill="#404040">
                               <set attributeName="fill" to="#808080" begin="reset.mouseover" end="reset.mouseout"/>
                       </use>
               </g>
        </defs>

<script type="text/javascript">
var viewWidth = 2316;
var viewHeight = 285;
var sectionId = 'dynsection-0';
</script>
<script xlink:href="svgpan.js"/>
<svg id="graph" class="graph">
<g id="viewport">
<title>bindings/r/inc/TRInterface_Binding.h</title>
<polygon fill="#ffffff" stroke="transparent" points="-4,4 -4,-281 2311.5,-281 2311.5,4 -4,4"/>
<!-- Node1 -->
<g id="node1" class="node">
<title>Node1</title>
<polygon fill="#bfbfbf" stroke="#000000" points="1201.5,-246.5 1201.5,-276.5 1342.5,-276.5 1342.5,-246.5 1201.5,-246.5"/>
<text text-anchor="start" x="1209.5" y="-264.5" font-family="Helvetica,sans-Serif" font-size="10.00" fill="#000000">bindings/r/inc/TRInterface</text>
<text text-anchor="middle" x="1272" y="-253.5" font-family="Helvetica,sans-Serif" font-size="10.00" fill="#000000">_Binding.h</text>
</g>
<!-- Node2 -->
<g id="node2" class="node">
<title>Node2</title>
<g id="a_node2"><a xlink:href="TRInterface_8h.html" target="_top" xlink:title="bindings/r/inc/TRInterface.h">
<polygon fill="#ffffff" stroke="#000000" points="1197,-190.5 1197,-209.5 1347,-209.5 1347,-190.5 1197,-190.5"/>
<text text-anchor="middle" x="1272" y="-197.5" font-family="Helvetica,sans-Serif" font-size="10.00" fill="#000000">bindings/r/inc/TRInterface.h</text>
</a>
</g>
</g>
<!-- Node1&#45;&gt;Node2 -->
<g id="edge1" class="edge">
<title>Node1&#45;&gt;Node2</title>
<path fill="none" stroke="#191970" d="M1272,-236.2849C1272,-226.9858 1272,-216.9883 1272,-209.8469"/>
<polygon fill="#191970" stroke="#191970" points="1268.5001,-236.2977 1272,-246.2977 1275.5001,-236.2978 1268.5001,-236.2977"/>
</g>
<!-- Node3 -->
<g id="node3" class="node">
<title>Node3</title>
<g id="a_node3"><a xlink:href="RMinimizer_8cxx.html" target="_top" xlink:title="math/rtools/src/RMinimizer.cxx">
<polygon fill="#ffffff" stroke="#000000" points="211.5,-129 211.5,-148 378.5,-148 378.5,-129 211.5,-129"/>
<text text-anchor="middle" x="295" y="-136" font-family="Helvetica,sans-Serif" font-size="10.00" fill="#000000">math/rtools/src/RMinimizer.cxx</text>
</a>
</g>
</g>
<!-- Node2&#45;&gt;Node3 -->
<g id="edge2" class="edge">
<title>Node2&#45;&gt;Node3</title>
<path fill="none" stroke="#191970" d="M1186.8462,-198.769C1028.9113,-195.7759 680.0715,-185.8351 388,-154 374.3314,-152.5102 359.6198,-150.3292 346.0215,-148.0711"/>
<polygon fill="#191970" stroke="#191970" points="1186.9073,-202.2706 1196.9703,-198.9563 1187.0368,-195.2718 1186.9073,-202.2706"/>
</g>
<!-- Node4 -->
<g id="node4" class="node">
<title>Node4</title>
<g id="a_node4"><a xlink:href="RMethodBase_8h.html" target="_top" xlink:title="tmva/rmva/inc/TMVA\l/RMethodBase.h">
<polygon fill="#ffffff" stroke="#000000" points="397,-123.5 397,-153.5 515,-153.5 515,-123.5 397,-123.5"/>
<text text-anchor="start" x="405" y="-141.5" font-family="Helvetica,sans-Serif" font-size="10.00" fill="#000000">tmva/rmva/inc/TMVA</text>
<text text-anchor="middle" x="456" y="-130.5" font-family="Helvetica,sans-Serif" font-size="10.00" fill="#000000">/RMethodBase.h</text>
</a>
</g>
</g>
<!-- Node2&#45;&gt;Node4 -->
<g id="edge3" class="edge">
<title>Node2&#45;&gt;Node4</title>
<path fill="none" stroke="#191970" d="M1186.6952,-196.4623C1018.716,-189.2131 650.5126,-171.8457 525,-154 521.8396,-153.5506 518.6094,-153.0327 515.3562,-152.4647"/>
<polygon fill="#191970" stroke="#191970" points="1186.5944,-199.9612 1196.7355,-196.8939 1186.895,-192.9676 1186.5944,-199.9612"/>
</g>
<!-- Node14 -->
<g id="node14" class="node">
<title>Node14</title>
<g id="a_node14"><a xlink:href="TRInterface_8cxx.html" target="_top" xlink:title="bindings/r/src/TRInterface.cxx">
<polygon fill="#ffffff" stroke="#000000" points="533.5,-129 533.5,-148 694.5,-148 694.5,-129 533.5,-129"/>
<text text-anchor="middle" x="614" y="-136" font-family="Helvetica,sans-Serif" font-size="10.00" fill="#000000">bindings/r/src/TRInterface.cxx</text>
</a>
</g>
</g>
<!-- Node2&#45;&gt;Node14 -->
<g id="edge13" class="edge">
<title>Node2&#45;&gt;Node14</title>
<path fill="none" stroke="#191970" d="M1186.7326,-195.4869C1075.4047,-189.047 874.6141,-175.5563 704,-154 691.2587,-152.3902 677.5701,-150.2474 664.8092,-148.0699"/>
<polygon fill="#191970" stroke="#191970" points="1186.7099,-198.9912 1196.8938,-196.0694 1187.1106,-192.0027 1186.7099,-198.9912"/>
</g>
<!-- Node15 -->
<g id="node15" class="node">
<title>Node15</title>
<g id="a_node15"><a xlink:href="Binding_8C.html" target="_top" xlink:title="bindings/r/tests/Binding.C">
<polygon fill="#ffffff" stroke="#000000" points="712.5,-129 712.5,-148 853.5,-148 853.5,-129 712.5,-129"/>
<text text-anchor="middle" x="783" y="-136" font-family="Helvetica,sans-Serif" font-size="10.00" fill="#000000">bindings/r/tests/Binding.C</text>
</a>
</g>
</g>
<!-- Node2&#45;&gt;Node15 -->
<g id="edge14" class="edge">
<title>Node2&#45;&gt;Node15</title>
<path fill="none" stroke="#191970" d="M1186.628,-192.3892C1103.7061,-184.5279 974.3714,-171.0246 863,-154 851.9521,-152.3112 840.1044,-150.1886 829.0026,-148.0608"/>
<polygon fill="#191970" stroke="#191970" points="1186.4727,-195.89 1196.7568,-193.3433 1187.1292,-188.9209 1186.4727,-195.89"/>
</g>
<!-- Node16 -->
<g id="node16" class="node">
<title>Node16</title>
<g id="a_node16"><a xlink:href="Class_8C.html" target="_top" xlink:title="bindings/r/tests/Class.C">
<polygon fill="#ffffff" stroke="#000000" points="871.5,-129 871.5,-148 1002.5,-148 1002.5,-129 871.5,-129"/>
<text text-anchor="middle" x="937" y="-136" font-family="Helvetica,sans-Serif" font-size="10.00" fill="#000000">bindings/r/tests/Class.C</text>
</a>
</g>
</g>
<!-- Node2&#45;&gt;Node16 -->
<g id="edge15" class="edge">
<title>Node2&#45;&gt;Node16</title>
<path fill="none" stroke="#191970" d="M1205.4858,-188.773C1152.8976,-179.7661 1077.6613,-166.5908 1012,-154 1002.337,-152.1471 991.9937,-150.0702 982.1707,-148.0538"/>
<polygon fill="#191970" stroke="#191970" points="1204.916,-192.2262 1215.3627,-190.4612 1206.0954,-185.3263 1204.916,-192.2262"/>
</g>
<!-- Node17 -->
<g id="node17" class="node">
<title>Node17</title>
<g id="a_node17"><a xlink:href="bindings_2r_2tests_2DataFrame_8C.html" target="_top" xlink:title="bindings/r/tests/DataFrame.C">
<polygon fill="#ffffff" stroke="#000000" points="1021,-129 1021,-148 1179,-148 1179,-129 1021,-129"/>
<text text-anchor="middle" x="1100" y="-136" font-family="Helvetica,sans-Serif" font-size="10.00" fill="#000000">bindings/r/tests/DataFrame.C</text>
</a>
</g>
</g>
<!-- Node2&#45;&gt;Node17 -->
<g id="edge16" class="edge">
<title>Node2&#45;&gt;Node17</title>
<path fill="none" stroke="#191970" d="M1235.5035,-186.9504C1202.8968,-175.2916 1155.8935,-158.4852 1126.6863,-148.0419"/>
<polygon fill="#191970" stroke="#191970" points="1234.5304,-190.3194 1245.125,-190.3906 1236.8872,-183.7281 1234.5304,-190.3194"/>
</g>
<!-- Node18 -->
<g id="node18" class="node">
<title>Node18</title>
<g id="a_node18"><a xlink:href="ExpClass_8C.html" target="_top" xlink:title="bindings/r/tests/ExpClass.C">
<polygon fill="#ffffff" stroke="#000000" points="1197.5,-129 1197.5,-148 1346.5,-148 1346.5,-129 1197.5,-129"/>
<text text-anchor="middle" x="1272" y="-136" font-family="Helvetica,sans-Serif" font-size="10.00" fill="#000000">bindings/r/tests/ExpClass.C</text>
</a>
</g>
</g>
<!-- Node2&#45;&gt;Node18 -->
<g id="edge17" class="edge">
<title>Node2&#45;&gt;Node18</title>
<path fill="none" stroke="#191970" d="M1272,-180.2462C1272,-169.5519 1272,-156.814 1272,-148.2449"/>
<polygon fill="#191970" stroke="#191970" points="1268.5001,-180.3906 1272,-190.3906 1275.5001,-180.3907 1268.5001,-180.3906"/>
</g>
<!-- Node19 -->
<g id="node19" class="node">
<title>Node19</title>
<g id="a_node19"><a xlink:href="Functions_8C.html" target="_top" xlink:title="bindings/r/tests/Functions.C">
<polygon fill="#ffffff" stroke="#000000" points="1365,-129 1365,-148 1515,-148 1515,-129 1365,-129"/>
<text text-anchor="middle" x="1440" y="-136" font-family="Helvetica,sans-Serif" font-size="10.00" fill="#000000">bindings/r/tests/Functions.C</text>
</a>
</g>
</g>
<!-- Node2&#45;&gt;Node19 -->
<g id="edge18" class="edge">
<title>Node2&#45;&gt;Node19</title>
<path fill="none" stroke="#191970" d="M1307.6477,-186.9504C1339.4962,-175.2916 1385.4063,-158.4852 1413.9343,-148.0419"/>
<polygon fill="#191970" stroke="#191970" points="1306.4374,-183.6662 1298.25,-190.3906 1308.8438,-190.2396 1306.4374,-183.6662"/>
</g>
<!-- Node20 -->
<g id="node20" class="node">
<title>Node20</title>
<g id="a_node20"><a xlink:href="bindings_2r_2tests_2Functor_8C.html" target="_top" xlink:title="bindings/r/tests/Functor.C">
<polygon fill="#ffffff" stroke="#000000" points="1533.5,-129 1533.5,-148 1672.5,-148 1672.5,-129 1533.5,-129"/>
<text text-anchor="middle" x="1603" y="-136" font-family="Helvetica,sans-Serif" font-size="10.00" fill="#000000">bindings/r/tests/Functor.C</text>
</a>
</g>
</g>
<!-- Node2&#45;&gt;Node20 -->
<g id="edge19" class="edge">
<title>Node2&#45;&gt;Node20</title>
<path fill="none" stroke="#191970" d="M1335.5096,-188.6461C1386.4912,-179.4743 1459.8892,-166.1402 1524,-154 1534.0249,-152.1017 1544.7563,-150.0256 1554.9761,-148.0275"/>
<polygon fill="#191970" stroke="#191970" points="1334.8446,-185.2095 1325.6215,-190.4234 1336.083,-192.099 1334.8446,-185.2095"/>
</g>
<!-- Node21 -->
<g id="node21" class="node">
<title>Node21</title>
<g id="a_node21"><a xlink:href="FunModule_8C.html" target="_top" xlink:title="bindings/r/tests/FunModule.C">
<polygon fill="#ffffff" stroke="#000000" points="1691,-129 1691,-148 1847,-148 1847,-129 1691,-129"/>
<text text-anchor="middle" x="1769" y="-136" font-family="Helvetica,sans-Serif" font-size="10.00" fill="#000000">bindings/r/tests/FunModule.C</text>
</a>
</g>
</g>
<!-- Node2&#45;&gt;Node21 -->
<g id="edge20" class="edge">
<title>Node2&#45;&gt;Node21</title>
<path fill="none" stroke="#191970" d="M1357.1467,-192.0654C1440.2153,-183.943 1570.062,-170.2336 1682,-154 1693.8429,-152.2825 1706.5456,-150.1727 1718.4848,-148.069"/>
<polygon fill="#191970" stroke="#191970" points="1356.6155,-188.6004 1347.0014,-193.0523 1357.2934,-195.5675 1356.6155,-188.6004"/>
</g>
<!-- Node22 -->
<g id="node22" class="node">
<title>Node22</title>
<g id="a_node22"><a xlink:href="Object_8C.html" target="_top" xlink:title="bindings/r/tests/Object.C">
<polygon fill="#ffffff" stroke="#000000" points="1865,-129 1865,-148 2001,-148 2001,-129 1865,-129"/>
<text text-anchor="middle" x="1933" y="-136" font-family="Helvetica,sans-Serif" font-size="10.00" fill="#000000">bindings/r/tests/Object.C</text>
</a>
</g>
</g>
<!-- Node2&#45;&gt;Node22 -->
<g id="edge21" class="edge">
<title>Node2&#45;&gt;Node22</title>
<path fill="none" stroke="#191970" d="M1357.5185,-196.4821C1471.6221,-191.0545 1679.7582,-178.5891 1856,-154 1867.2095,-152.4361 1879.2444,-150.2569 1890.3912,-148.0259"/>
<polygon fill="#191970" stroke="#191970" points="1357.2726,-192.9897 1347.4476,-196.9545 1357.6006,-199.982 1357.2726,-192.9897"/>
</g>
<!-- Node23 -->
<g id="node23" class="node">
<title>Node23</title>
<g id="a_node23"><a xlink:href="Proxy_8C.html" target="_top" xlink:title="bindings/r/tests/Proxy.C">
<polygon fill="#ffffff" stroke="#000000" points="2019.5,-129 2019.5,-148 2150.5,-148 2150.5,-129 2019.5,-129"/>
<text text-anchor="middle" x="2085" y="-136" font-family="Helvetica,sans-Serif" font-size="10.00" fill="#000000">bindings/r/tests/Proxy.C</text>
</a>
</g>
</g>
<!-- Node2&#45;&gt;Node23 -->
<g id="edge22" class="edge">
<title>Node2&#45;&gt;Node23</title>
<path fill="none" stroke="#191970" d="M1357.3209,-198.5976C1495.1464,-195.4546 1775.0781,-185.4358 2010,-154 2021.2017,-152.501 2033.2332,-150.2887 2044.3084,-148.0019"/>
<polygon fill="#191970" stroke="#191970" points="1357.1635,-195.1001 1347.2435,-198.8208 1357.3186,-202.0984 1357.1635,-195.1001"/>
</g>
<!-- Node24 -->
<g id="node24" class="node">
<title>Node24</title>
<g id="a_node24"><a xlink:href="ROOTR_8C.html" target="_top" xlink:title="bindings/r/tests/ROOTR.C">
<polygon fill="#ffffff" stroke="#000000" points="2168.5,-129 2168.5,-148 2307.5,-148 2307.5,-129 2168.5,-129"/>
<text text-anchor="middle" x="2238" y="-136" font-family="Helvetica,sans-Serif" font-size="10.00" fill="#000000">bindings/r/tests/ROOTR.C</text>
</a>
</g>
</g>
<!-- Node2&#45;&gt;Node24 -->
<g id="edge23" class="edge">
<title>Node2&#45;&gt;Node24</title>
<path fill="none" stroke="#191970" d="M1357.2881,-197.1553C1548.433,-190.5238 2006.3823,-173.1404 2160,-154 2171.6454,-152.549 2184.1567,-150.3528 2195.6749,-148.0661"/>
<polygon fill="#191970" stroke="#191970" points="1356.8852,-193.6671 1347.0121,-197.5104 1357.127,-200.6629 1356.8852,-193.6671"/>
</g>
<!-- Node5 -->
<g id="node5" class="node">
<title>Node5</title>
<g id="a_node5"><a xlink:href="MethodC50_8h.html" target="_top" xlink:title="tmva/rmva/inc/TMVA\l/MethodC50.h">
<polygon fill="#ffffff" stroke="#000000" points="67,-56.5 67,-86.5 185,-86.5 185,-56.5 67,-56.5"/>
<text text-anchor="start" x="75" y="-74.5" font-family="Helvetica,sans-Serif" font-size="10.00" fill="#000000">tmva/rmva/inc/TMVA</text>
<text text-anchor="middle" x="126" y="-63.5" font-family="Helvetica,sans-Serif" font-size="10.00" fill="#000000">/MethodC50.h</text>
</a>
</g>
</g>
<!-- Node4&#45;&gt;Node5 -->
<g id="edge4" class="edge">
<title>Node4&#45;&gt;Node5</title>
<path fill="none" stroke="#191970" d="M387.3043,-123.0642C387.2028,-123.0428 387.1014,-123.0214 387,-123 317.8567,-108.4149 238.1339,-92.8681 185.1749,-82.7189"/>
<polygon fill="#191970" stroke="#191970" points="386.4161,-126.4533 396.9271,-125.1234 387.8809,-119.6083 386.4161,-126.4533"/>
</g>
<!-- Node7 -->
<g id="node7" class="node">
<title>Node7</title>
<g id="a_node7"><a xlink:href="MethodRSNNS_8h.html" target="_top" xlink:title="tmva/rmva/inc/TMVA\l/MethodRSNNS.h">
<polygon fill="#ffffff" stroke="#000000" points="231,-56.5 231,-86.5 349,-86.5 349,-56.5 231,-56.5"/>
<text text-anchor="start" x="239" y="-74.5" font-family="Helvetica,sans-Serif" font-size="10.00" fill="#000000">tmva/rmva/inc/TMVA</text>
<text text-anchor="middle" x="290" y="-63.5" font-family="Helvetica,sans-Serif" font-size="10.00" fill="#000000">/MethodRSNNS.h</text>
</a>
</g>
</g>
<!-- Node4&#45;&gt;Node7 -->
<g id="edge6" class="edge">
<title>Node4&#45;&gt;Node7</title>
<path fill="none" stroke="#191970" d="M409.1475,-119.5897C383.2865,-109.1518 351.6069,-96.3654 327.4161,-86.6017"/>
<polygon fill="#191970" stroke="#191970" points="408.1632,-122.9667 418.7464,-123.4639 410.7832,-116.4754 408.1632,-122.9667"/>
</g>
<!-- Node9 -->
<g id="node9" class="node">
<title>Node9</title>
<g id="a_node9"><a xlink:href="MethodRSVM_8h.html" target="_top" xlink:title="tmva/rmva/inc/TMVA\l/MethodRSVM.h">
<polygon fill="#ffffff" stroke="#000000" points="397,-56.5 397,-86.5 515,-86.5 515,-56.5 397,-56.5"/>
<text text-anchor="start" x="405" y="-74.5" font-family="Helvetica,sans-Serif" font-size="10.00" fill="#000000">tmva/rmva/inc/TMVA</text>
<text text-anchor="middle" x="456" y="-63.5" font-family="Helvetica,sans-Serif" font-size="10.00" fill="#000000">/MethodRSVM.h</text>
</a>
</g>
</g>
<!-- Node4&#45;&gt;Node9 -->
<g id="edge8" class="edge">
<title>Node4&#45;&gt;Node9</title>
<path fill="none" stroke="#191970" d="M456,-113.0249C456,-104.128 456,-94.4287 456,-86.6432"/>
<polygon fill="#191970" stroke="#191970" points="452.5001,-113.2966 456,-123.2967 459.5001,-113.2967 452.5001,-113.2966"/>
</g>
<!-- Node11 -->
<g id="node11" class="node">
<title>Node11</title>
<g id="a_node11"><a xlink:href="MethodRXGB_8h.html" target="_top" xlink:title="tmva/rmva/inc/TMVA\l/MethodRXGB.h">
<polygon fill="#ffffff" stroke="#000000" points="533,-56.5 533,-86.5 651,-86.5 651,-56.5 533,-56.5"/>
<text text-anchor="start" x="541" y="-74.5" font-family="Helvetica,sans-Serif" font-size="10.00" fill="#000000">tmva/rmva/inc/TMVA</text>
<text text-anchor="middle" x="592" y="-63.5" font-family="Helvetica,sans-Serif" font-size="10.00" fill="#000000">/MethodRXGB.h</text>
</a>
</g>
</g>
<!-- Node4&#45;&gt;Node11 -->
<g id="edge10" class="edge">
<title>Node4&#45;&gt;Node11</title>
<path fill="none" stroke="#191970" d="M495.7583,-118.9132C516.6011,-108.645 541.7487,-96.2561 561.1103,-86.7177"/>
<polygon fill="#191970" stroke="#191970" points="493.9448,-115.9049 486.5211,-123.4639 497.0383,-122.1842 493.9448,-115.9049"/>
</g>
<!-- Node13 -->
<g id="node13" class="node">
<title>Node13</title>
<g id="a_node13"><a xlink:href="RMethodBase_8cxx.html" target="_top" xlink:title="tmva/rmva/src/RMethodBase.cxx">
<polygon fill="#ffffff" stroke="#000000" points="669,-62 669,-81 847,-81 847,-62 669,-62"/>
<text text-anchor="middle" x="758" y="-69" font-family="Helvetica,sans-Serif" font-size="10.00" fill="#000000">tmva/rmva/src/RMethodBase.cxx</text>
</a>
</g>
</g>
<!-- Node4&#45;&gt;Node13 -->
<g id="edge12" class="edge">
<title>Node4&#45;&gt;Node13</title>
<path fill="none" stroke="#191970" d="M524.6964,-123.0677C524.7977,-123.0451 524.8989,-123.0225 525,-123 591.1128,-108.2679 667.8179,-91.3468 714.6178,-81.0421"/>
<polygon fill="#191970" stroke="#191970" points="524.0892,-119.617 515.092,-125.2117 525.6144,-126.4488 524.0892,-119.617"/>
</g>
<!-- Node6 -->
<g id="node6" class="node">
<title>Node6</title>
<g id="a_node6"><a xlink:href="MethodC50_8cxx.html" target="_top" xlink:title="tmva/rmva/src/MethodC50.cxx">
<polygon fill="#ffffff" stroke="#000000" points="0,-.5 0,-19.5 166,-19.5 166,-.5 0,-.5"/>
<text text-anchor="middle" x="83" y="-7.5" font-family="Helvetica,sans-Serif" font-size="10.00" fill="#000000">tmva/rmva/src/MethodC50.cxx</text>
</a>
</g>
</g>
<!-- Node5&#45;&gt;Node6 -->
<g id="edge5" class="edge">
<title>Node5&#45;&gt;Node6</title>
<path fill="none" stroke="#191970" d="M109.6216,-48.0751C102.7784,-38.2877 95.2001,-27.449 89.8848,-19.8469"/>
<polygon fill="#191970" stroke="#191970" points="106.7722,-50.1079 115.3708,-56.2977 112.509,-46.0967 106.7722,-50.1079"/>
</g>
<!-- Node8 -->
<g id="node8" class="node">
<title>Node8</title>
<g id="a_node8"><a xlink:href="MethodRSNNS_8cxx.html" target="_top" xlink:title="tmva/rmva/src/MethodRSNNS.cxx">
<polygon fill="#ffffff" stroke="#000000" points="184.5,-.5 184.5,-19.5 365.5,-19.5 365.5,-.5 184.5,-.5"/>
<text text-anchor="middle" x="275" y="-7.5" font-family="Helvetica,sans-Serif" font-size="10.00" fill="#000000">tmva/rmva/src/MethodRSNNS.cxx</text>
</a>
</g>
</g>
<!-- Node7&#45;&gt;Node8 -->
<g id="edge7" class="edge">
<title>Node7&#45;&gt;Node8</title>
<path fill="none" stroke="#191970" d="M283.85,-46.2849C281.5819,-36.9858 279.1435,-26.9883 277.4017,-19.8469"/>
<polygon fill="#191970" stroke="#191970" points="280.5222,-47.4119 286.2921,-56.2977 287.3228,-45.7532 280.5222,-47.4119"/>
</g>
<!-- Node10 -->
<g id="node10" class="node">
<title>Node10</title>
<g id="a_node10"><a xlink:href="MethodRSVM_8cxx.html" target="_top" xlink:title="tmva/rmva/src/MethodRSVM.cxx">
<polygon fill="#ffffff" stroke="#000000" points="383.5,-.5 383.5,-19.5 558.5,-19.5 558.5,-.5 383.5,-.5"/>
<text text-anchor="middle" x="471" y="-7.5" font-family="Helvetica,sans-Serif" font-size="10.00" fill="#000000">tmva/rmva/src/MethodRSVM.cxx</text>
</a>
</g>
</g>
<!-- Node9&#45;&gt;Node10 -->
<g id="edge9" class="edge">
<title>Node9&#45;&gt;Node10</title>
<path fill="none" stroke="#191970" d="M462.15,-46.2849C464.4181,-36.9858 466.8565,-26.9883 468.5983,-19.8469"/>
<polygon fill="#191970" stroke="#191970" points="458.6772,-45.7532 459.7079,-56.2977 465.4778,-47.4119 458.6772,-45.7532"/>
</g>
<!-- Node12 -->
<g id="node12" class="node">
<title>Node12</title>
<g id="a_node12"><a xlink:href="MethodRXGB_8cxx.html" target="_top" xlink:title="tmva/rmva/src/MethodRXGB.cxx">
<polygon fill="#ffffff" stroke="#000000" points="576.5,-.5 576.5,-19.5 751.5,-19.5 751.5,-.5 576.5,-.5"/>
<text text-anchor="middle" x="664" y="-7.5" font-family="Helvetica,sans-Serif" font-size="10.00" fill="#000000">tmva/rmva/src/MethodRXGB.cxx</text>
</a>
</g>
</g>
<!-- Node11&#45;&gt;Node12 -->
<g id="edge11" class="edge">
<title>Node11&#45;&gt;Node12</title>
<path fill="none" stroke="#191970" d="M617.6982,-49.5494C629.5913,-39.3907 643.1224,-27.8329 652.4719,-19.8469"/>
<polygon fill="#191970" stroke="#191970" points="615.1283,-47.1415 609.7978,-56.2977 619.6747,-52.4642 615.1283,-47.1415"/>
</g>
</g>
</svg>
        <g id="navigator" transform="translate(0 0)" fill="#404254">
                <rect fill="#f2f5e9" fill-opacity="0.5" stroke="#606060" stroke-width=".5" x="0" y="0" width="60" height="60"/>
                <use id="zoomplus" xlink:href="#zoomPlus" x="17" y="9" onmousedown="handleZoom(evt,'in')"/>
                <use id="zoomminus" xlink:href="#zoomMin" x="42" y="9" onmousedown="handleZoom(evt,'out')"/>
                <use id="reset" xlink:href="#resetDef" x="30" y="36" onmousedown="handleReset()"/>
                <g id="arrowUp" xlink:href="#dirArrow" transform="translate(30 24)" onmousedown="handlePan(0,-1)">
                  <use xlink:href="#rim" fill="#404040">
                        <set attributeName="fill" to="#808080" begin="arrowUp.mouseover" end="arrowUp.mouseout"/>
                  </use>
                  <path fill="none" stroke="white" stroke-width="1.5" d="M0,-3.0v7 M-2.5,-0.5L0,-3.0L2.5,-0.5"/>
                </g>
                <g id="arrowRight" xlink:href="#dirArrow" transform="rotate(90) translate(36 -43)" onmousedown="handlePan(1,0)">
                  <use xlink:href="#rim" fill="#404040">
                        <set attributeName="fill" to="#808080" begin="arrowRight.mouseover" end="arrowRight.mouseout"/>
                  </use>
                  <path fill="none" stroke="white" stroke-width="1.5" d="M0,-3.0v7 M-2.5,-0.5L0,-3.0L2.5,-0.5"/>
                </g>
                <g id="arrowDown" xlink:href="#dirArrow" transform="rotate(180) translate(-30 -48)" onmousedown="handlePan(0,1)">
                  <use xlink:href="#rim" fill="#404040">
                        <set attributeName="fill" to="#808080" begin="arrowDown.mouseover" end="arrowDown.mouseout"/>
                  </use>
                  <path fill="none" stroke="white" stroke-width="1.5" d="M0,-3.0v7 M-2.5,-0.5L0,-3.0L2.5,-0.5"/>
                </g>
                <g id="arrowLeft" xlink:href="#dirArrow" transform="rotate(270) translate(-36 17)" onmousedown="handlePan(-1,0)">
                  <use xlink:href="#rim" fill="#404040">
                        <set attributeName="fill" to="#808080" begin="arrowLeft.mouseover" end="arrowLeft.mouseout"/>
                  </use>
                  <path fill="none" stroke="white" stroke-width="1.5" d="M0,-3.0v7 M-2.5,-0.5L0,-3.0L2.5,-0.5"/>
                </g>
        </g>
        <svg viewBox="0 0 15 15" width="100%" height="30px" preserveAspectRatio="xMaxYMin meet">
         <g id="arrow_out" transform="scale(0.3 0.3)">
          <a xlink:href="TRInterface__Binding_8h__dep__incl_org.svg" target="_base">
           <rect id="button" ry="5" rx="5" y="6" x="6" height="38" width="38"
                fill="#f2f5e9" fill-opacity="0.5" stroke="#606060" stroke-width="1.0"/>
           <path id="arrow"
             d="M 11.500037,31.436501 C 11.940474,20.09759 22.043105,11.32322 32.158766,21.979434 L 37.068811,17.246167 C 37.068811,17.246167 37.088388,32 37.088388,32 L 22.160133,31.978069 C 22.160133,31.978069 26.997745,27.140456 26.997745,27.140456 C 18.528582,18.264221 13.291696,25.230495 11.500037,31.436501 z"
             style="fill:#404040;"/>
          </a>
         </g>
        </svg>
</svg>
