<?xml version="1.0" encoding="UTF-8" standalone="no"?>
<!DOCTYPE svg PUBLIC "-//W3C//DTD SVG 1.1//EN"
 "http://www.w3.org/Graphics/SVG/1.1/DTD/svg11.dtd">
<!-- Generated by graphviz version 2.40.1 (0)
 -->
<!-- Title: gui/sessionviewer/inc/TSessionViewer.h Pages: 1 -->
<svg width="390pt" height="173pt"
 viewBox="0.00 0.00 390.00 173.00" xmlns="http://www.w3.org/2000/svg" xmlns:xlink="http://www.w3.org/1999/xlink">
<g id="graph0" class="graph" transform="scale(1 1) rotate(0) translate(4 169)">
<title>gui/sessionviewer/inc/TSessionViewer.h</title>
<polygon fill="#ffffff" stroke="transparent" points="-4,4 -4,-169 386,-169 386,4 -4,4"/>
<!-- Node90 -->
<g id="node1" class="node">
<title>Node90</title>
<polygon fill="#bfbfbf" stroke="#000000" points="124,-134.5 124,-164.5 246,-164.5 246,-134.5 124,-134.5"/>
<text text-anchor="start" x="132" y="-152.5" font-family="Helvetica,sans-Serif" font-size="10.00" fill="#000000">gui/sessionviewer/inc</text>
<text text-anchor="middle" x="185" y="-141.5" font-family="Helvetica,sans-Serif" font-size="10.00" fill="#000000">/TSessionViewer.h</text>
</g>
<!-- Node91 -->
<g id="node2" class="node">
<title>Node91</title>
<g id="a_node2"><a xlink:href="TSessionDialogs_8h.html" target="_top" xlink:title="gui/sessionviewer/inc\l/TSessionDialogs.h">
<polygon fill="#ffffff" stroke="#000000" points="80,-67.5 80,-97.5 202,-97.5 202,-67.5 80,-67.5"/>
<text text-anchor="start" x="88" y="-85.5" font-family="Helvetica,sans-Serif" font-size="10.00" fill="#000000">gui/sessionviewer/inc</text>
<text text-anchor="middle" x="141" y="-74.5" font-family="Helvetica,sans-Serif" font-size="10.00" fill="#000000">/TSessionDialogs.h</text>
</a>
</g>
</g>
<!-- Node90&#45;&gt;Node91 -->
<g id="edge1" class="edge">
<title>Node90&#45;&gt;Node91</title>
<path fill="none" stroke="#191970" d="M169.4184,-125.7735C163.2728,-116.4154 156.3948,-105.9421 150.9448,-97.6432"/>
<polygon fill="#191970" stroke="#191970" points="166.6008,-127.8592 175.0157,-134.2967 172.4519,-124.0167 166.6008,-127.8592"/>
</g>
<!-- Node92 -->
<g id="node3" class="node">
<title>Node92</title>
<g id="a_node3"><a xlink:href="TSessionDialogs_8cxx.html" target="_top" xlink:title="gui/sessionviewer/src\l/TSessionDialogs.cxx">
<polygon fill="#ffffff" stroke="#000000" points="0,-.5 0,-30.5 122,-30.5 122,-.5 0,-.5"/>
<text text-anchor="start" x="8" y="-18.5" font-family="Helvetica,sans-Serif" font-size="10.00" fill="#000000">gui/sessionviewer/src</text>
<text text-anchor="middle" x="61" y="-7.5" font-family="Helvetica,sans-Serif" font-size="10.00" fill="#000000">/TSessionDialogs.cxx</text>
</a>
</g>
</g>
<!-- Node90&#45;&gt;Node92 -->
<g id="edge4" class="edge">
<title>Node90&#45;&gt;Node92</title>
<path fill="none" stroke="#191970" d="M114.6152,-131.0079C97.9292,-123.3956 81.8481,-112.768 71,-98 56.565,-78.3491 56.8307,-48.6895 58.6784,-30.7998"/>
<polygon fill="#191970" stroke="#191970" points="113.3441,-134.2703 123.9181,-134.9339 116.0658,-127.8211 113.3441,-134.2703"/>
</g>
<!-- Node93 -->
<g id="node4" class="node">
<title>Node93</title>
<g id="a_node4"><a xlink:href="TSessionViewer_8cxx.html" target="_top" xlink:title="gui/sessionviewer/src\l/TSessionViewer.cxx">
<polygon fill="#ffffff" stroke="#000000" points="159,-.5 159,-30.5 281,-30.5 281,-.5 159,-.5"/>
<text text-anchor="start" x="167" y="-18.5" font-family="Helvetica,sans-Serif" font-size="10.00" fill="#000000">gui/sessionviewer/src</text>
<text text-anchor="middle" x="220" y="-7.5" font-family="Helvetica,sans-Serif" font-size="10.00" fill="#000000">/TSessionViewer.cxx</text>
</a>
</g>
</g>
<!-- Node90&#45;&gt;Node93 -->
<g id="edge6" class="edge">
<title>Node90&#45;&gt;Node93</title>
<path fill="none" stroke="#191970" d="M199.3869,-125.4516C203.8057,-117.0363 208.2294,-107.3494 211,-98 217.7545,-75.2067 219.5408,-47.5232 219.9573,-30.7221"/>
<polygon fill="#191970" stroke="#191970" points="196.2564,-123.8804 194.4885,-134.3267 202.3849,-127.2629 196.2564,-123.8804"/>
</g>
<!-- Node94 -->
<g id="node5" class="node">
<title>Node94</title>
<g id="a_node5"><a xlink:href="TSessionLogView_8cxx.html" target="_top" xlink:title="gui/sessionviewer/src\l/TSessionLogView.cxx">
<polygon fill="#ffffff" stroke="#000000" points="258,-67.5 258,-97.5 382,-97.5 382,-67.5 258,-67.5"/>
<text text-anchor="start" x="266" y="-85.5" font-family="Helvetica,sans-Serif" font-size="10.00" fill="#000000">gui/sessionviewer/src</text>
<text text-anchor="middle" x="320" y="-74.5" font-family="Helvetica,sans-Serif" font-size="10.00" fill="#000000">/TSessionLogView.cxx</text>
</a>
</g>
</g>
<!-- Node90&#45;&gt;Node94 -->
<g id="edge5" class="edge">
<title>Node90&#45;&gt;Node94</title>
<path fill="none" stroke="#191970" d="M224.466,-129.9132C245.1555,-119.645 270.1182,-107.2561 289.3374,-97.7177"/>
<polygon fill="#191970" stroke="#191970" points="222.6982,-126.8831 215.2966,-134.4639 225.8101,-133.1534 222.6982,-126.8831"/>
</g>
<!-- Node91&#45;&gt;Node92 -->
<g id="edge2" class="edge">
<title>Node91&#45;&gt;Node92</title>
<path fill="none" stroke="#191970" d="M115.0667,-60.7808C103.3144,-50.9383 89.7056,-39.541 79.0814,-30.6432"/>
<polygon fill="#191970" stroke="#191970" points="112.933,-63.5592 122.8468,-67.2967 117.4275,-58.1927 112.933,-63.5592"/>
</g>
<!-- Node91&#45;&gt;Node93 -->
<g id="edge3" class="edge">
<title>Node91&#45;&gt;Node93</title>
<path fill="none" stroke="#191970" d="M166.6092,-60.7808C178.2146,-50.9383 191.6532,-39.541 202.1446,-30.6432"/>
<polygon fill="#191970" stroke="#191970" points="164.289,-58.1593 158.9263,-67.2967 168.8167,-63.4978 164.289,-58.1593"/>
</g>
</g>
</svg>
