<?xml version="1.0" encoding="UTF-8" standalone="no"?>
<!DOCTYPE svg PUBLIC "-//W3C//DTD SVG 1.1//EN"
 "http://www.w3.org/Graphics/SVG/1.1/DTD/svg11.dtd">
<!-- Generated by graphviz version 2.40.1 (0)
 -->
<!-- Title: tree/treeplayer/inc/TSimpleAnalysis.h Pages: 1 -->
<svg width="247pt" height="95pt"
 viewBox="0.00 0.00 247.00 95.00" xmlns="http://www.w3.org/2000/svg" xmlns:xlink="http://www.w3.org/1999/xlink">
<g id="graph0" class="graph" transform="scale(1 1) rotate(0) translate(4 91)">
<title>tree/treeplayer/inc/TSimpleAnalysis.h</title>
<polygon fill="#ffffff" stroke="transparent" points="-4,4 -4,-91 243,-91 243,4 -4,4"/>
<!-- Node0 -->
<g id="node1" class="node">
<title>Node0</title>
<polygon fill="#bfbfbf" stroke="#000000" points="69,-56.5 69,-86.5 179,-86.5 179,-56.5 69,-56.5"/>
<text text-anchor="start" x="77" y="-74.5" font-family="Helvetica,sans-Serif" font-size="10.00" fill="#000000">tree/treeplayer/inc</text>
<text text-anchor="middle" x="124" y="-63.5" font-family="Helvetica,sans-Serif" font-size="10.00" fill="#000000">/TSimpleAnalysis.h</text>
</g>
<!-- Node1 -->
<g id="node2" class="node">
<title>Node1</title>
<polygon fill="#ffffff" stroke="#bfbfbf" points="0,-.5 0,-19.5 44,-19.5 44,-.5 0,-.5"/>
<text text-anchor="middle" x="22" y="-7.5" font-family="Helvetica,sans-Serif" font-size="10.00" fill="#000000">string</text>
</g>
<!-- Node0&#45;&gt;Node1 -->
<g id="edge1" class="edge">
<title>Node0&#45;&gt;Node1</title>
<path fill="none" stroke="#191970" d="M99.048,-56.4554C83.0741,-46.8241 62.4398,-34.3828 46.5457,-24.7996"/>
<polygon fill="#191970" stroke="#191970" points="48.1774,-21.6965 37.8064,-19.5303 44.563,-27.6912 48.1774,-21.6965"/>
</g>
<!-- Node2 -->
<g id="node3" class="node">
<title>Node2</title>
<polygon fill="#ffffff" stroke="#bfbfbf" points="62.5,-.5 62.5,-19.5 117.5,-19.5 117.5,-.5 62.5,-.5"/>
<text text-anchor="middle" x="90" y="-7.5" font-family="Helvetica,sans-Serif" font-size="10.00" fill="#000000">fstream</text>
</g>
<!-- Node0&#45;&gt;Node2 -->
<g id="edge2" class="edge">
<title>Node0&#45;&gt;Node2</title>
<path fill="none" stroke="#191970" d="M115.5955,-56.2977C110.9743,-47.9388 105.2031,-37.4997 100.3111,-28.6509"/>
<polygon fill="#191970" stroke="#191970" points="103.3452,-26.9051 95.4438,-19.8469 97.2191,-30.292 103.3452,-26.9051"/>
</g>
<!-- Node3 -->
<g id="node4" class="node">
<title>Node3</title>
<polygon fill="#ffffff" stroke="#bfbfbf" points="135.5,-.5 135.5,-19.5 182.5,-19.5 182.5,-.5 135.5,-.5"/>
<text text-anchor="middle" x="159" y="-7.5" font-family="Helvetica,sans-Serif" font-size="10.00" fill="#000000">vector</text>
</g>
<!-- Node0&#45;&gt;Node3 -->
<g id="edge3" class="edge">
<title>Node0&#45;&gt;Node3</title>
<path fill="none" stroke="#191970" d="M132.6517,-56.2977C137.4088,-47.9388 143.3498,-37.4997 148.3857,-28.6509"/>
<polygon fill="#191970" stroke="#191970" points="151.4917,-30.2692 153.3961,-19.8469 145.4079,-26.8069 151.4917,-30.2692"/>
</g>
<!-- Node4 -->
<g id="node5" class="node">
<title>Node4</title>
<polygon fill="#ffffff" stroke="#bfbfbf" points="201,-.5 201,-19.5 239,-19.5 239,-.5 201,-.5"/>
<text text-anchor="middle" x="220" y="-7.5" font-family="Helvetica,sans-Serif" font-size="10.00" fill="#000000">map</text>
</g>
<!-- Node0&#45;&gt;Node4 -->
<g id="edge4" class="edge">
<title>Node0&#45;&gt;Node4</title>
<path fill="none" stroke="#191970" d="M147.7303,-56.2977C162.5362,-46.8127 181.5228,-34.6495 196.3193,-25.1705"/>
<polygon fill="#191970" stroke="#191970" points="198.3835,-28.0047 204.9159,-19.6633 194.6075,-22.1105 198.3835,-28.0047"/>
</g>
</g>
</svg>
