<?xml version="1.0" encoding="UTF-8" standalone="no"?>
<!DOCTYPE svg PUBLIC "-//W3C//DTD SVG 1.1//EN"
 "http://www.w3.org/Graphics/SVG/1.1/DTD/svg11.dtd">
<!-- Generated by graphviz version 2.40.1 (0)
 -->
<!-- Title: net/net/inc/TSQLTableInfo.h Pages: 1 -->
<svg width="1577pt" height="84pt"
 viewBox="0.00 0.00 1576.50 84.00" xmlns="http://www.w3.org/2000/svg" xmlns:xlink="http://www.w3.org/1999/xlink">
<g id="graph0" class="graph" transform="scale(1 1) rotate(0) translate(4 80)">
<title>net/net/inc/TSQLTableInfo.h</title>
<polygon fill="#ffffff" stroke="transparent" points="-4,4 -4,-80 1572.5,-80 1572.5,4 -4,4"/>
<!-- Node46 -->
<g id="node1" class="node">
<title>Node46</title>
<polygon fill="#bfbfbf" stroke="#000000" points="660.5,-56.5 660.5,-75.5 808.5,-75.5 808.5,-56.5 660.5,-56.5"/>
<text text-anchor="middle" x="734.5" y="-63.5" font-family="Helvetica,sans-Serif" font-size="10.00" fill="#000000">net/net/inc/TSQLTableInfo.h</text>
</g>
<!-- Node47 -->
<g id="node2" class="node">
<title>Node47</title>
<g id="a_node2"><a xlink:href="TSQLFile_8cxx.html" target="_top" xlink:title="io/sql/src/TSQLFile.cxx">
<polygon fill="#ffffff" stroke="#000000" points="0,-.5 0,-19.5 125,-19.5 125,-.5 0,-.5"/>
<text text-anchor="middle" x="62.5" y="-7.5" font-family="Helvetica,sans-Serif" font-size="10.00" fill="#000000">io/sql/src/TSQLFile.cxx</text>
</a>
</g>
</g>
<!-- Node46&#45;&gt;Node47 -->
<g id="edge1" class="edge">
<title>Node46&#45;&gt;Node47</title>
<path fill="none" stroke="#191970" d="M650.0754,-61.2349C533.6393,-54.2763 317.2947,-39.9566 133.5,-20 130.7774,-19.7044 127.9985,-19.3857 125.1929,-19.0502"/>
<polygon fill="#191970" stroke="#191970" points="650.1513,-64.7455 660.3413,-61.8448 650.5665,-57.7578 650.1513,-64.7455"/>
</g>
<!-- Node48 -->
<g id="node3" class="node">
<title>Node48</title>
<g id="a_node3"><a xlink:href="TSQLServer_8cxx.html" target="_top" xlink:title="net/net/src/TSQLServer.cxx">
<polygon fill="#ffffff" stroke="#000000" points="143,-.5 143,-19.5 290,-19.5 290,-.5 143,-.5"/>
<text text-anchor="middle" x="216.5" y="-7.5" font-family="Helvetica,sans-Serif" font-size="10.00" fill="#000000">net/net/src/TSQLServer.cxx</text>
</a>
</g>
</g>
<!-- Node46&#45;&gt;Node48 -->
<g id="edge2" class="edge">
<title>Node46&#45;&gt;Node48</title>
<path fill="none" stroke="#191970" d="M650.223,-57.518C562.3709,-48.5801 420.7146,-33.8983 298.5,-20 295.7926,-19.6921 293.0353,-19.3748 290.2505,-19.0513"/>
<polygon fill="#191970" stroke="#191970" points="650.0979,-61.0232 660.4006,-58.5522 650.8057,-54.0591 650.0979,-61.0232"/>
</g>
<!-- Node49 -->
<g id="node4" class="node">
<title>Node49</title>
<g id="a_node4"><a xlink:href="TSQLTableInfo_8cxx.html" target="_top" xlink:title="net/net/src/TSQLTableInfo.cxx">
<polygon fill="#ffffff" stroke="#000000" points="308,-.5 308,-19.5 467,-19.5 467,-.5 308,-.5"/>
<text text-anchor="middle" x="387.5" y="-7.5" font-family="Helvetica,sans-Serif" font-size="10.00" fill="#000000">net/net/src/TSQLTableInfo.cxx</text>
</a>
</g>
</g>
<!-- Node46&#45;&gt;Node49 -->
<g id="edge3" class="edge">
<title>Node46&#45;&gt;Node49</title>
<path fill="none" stroke="#191970" d="M665.2335,-54.8215C601.1963,-44.487 507.0565,-29.2944 446.5127,-19.5237"/>
<polygon fill="#191970" stroke="#191970" points="664.8129,-58.2989 675.2428,-56.4369 665.9282,-51.3883 664.8129,-58.2989"/>
</g>
<!-- Node50 -->
<g id="node5" class="node">
<title>Node50</title>
<g id="a_node5"><a xlink:href="TTreeSQL_8cxx.html" target="_top" xlink:title="tree/tree/src/TTreeSQL.cxx">
<polygon fill="#ffffff" stroke="#000000" points="485.5,-.5 485.5,-19.5 629.5,-19.5 629.5,-.5 485.5,-.5"/>
<text text-anchor="middle" x="557.5" y="-7.5" font-family="Helvetica,sans-Serif" font-size="10.00" fill="#000000">tree/tree/src/TTreeSQL.cxx</text>
</a>
</g>
</g>
<!-- Node46&#45;&gt;Node50 -->
<g id="edge4" class="edge">
<title>Node46&#45;&gt;Node50</title>
<path fill="none" stroke="#191970" d="M694.4332,-53.3235C661.973,-43.0536 616.9507,-28.8093 587.5303,-19.5011"/>
<polygon fill="#191970" stroke="#191970" points="693.4826,-56.6937 704.0726,-56.3733 695.5942,-50.0197 693.4826,-56.6937"/>
</g>
<!-- Node51 -->
<g id="node6" class="node">
<title>Node51</title>
<g id="a_node6"><a xlink:href="TMySQLServer_8cxx.html" target="_top" xlink:title="sql/mysql/src/TMySQLServer.cxx">
<polygon fill="#ffffff" stroke="#000000" points="647.5,-.5 647.5,-19.5 821.5,-19.5 821.5,-.5 647.5,-.5"/>
<text text-anchor="middle" x="734.5" y="-7.5" font-family="Helvetica,sans-Serif" font-size="10.00" fill="#000000">sql/mysql/src/TMySQLServer.cxx</text>
</a>
</g>
</g>
<!-- Node46&#45;&gt;Node51 -->
<g id="edge5" class="edge">
<title>Node46&#45;&gt;Node51</title>
<path fill="none" stroke="#191970" d="M734.5,-46.1575C734.5,-37.155 734.5,-26.9199 734.5,-19.6427"/>
<polygon fill="#191970" stroke="#191970" points="731.0001,-46.2455 734.5,-56.2455 738.0001,-46.2456 731.0001,-46.2455"/>
</g>
<!-- Node52 -->
<g id="node7" class="node">
<title>Node52</title>
<g id="a_node7"><a xlink:href="TODBCServer_8cxx.html" target="_top" xlink:title="sql/odbc/src/TODBCServer.cxx">
<polygon fill="#ffffff" stroke="#000000" points="840,-.5 840,-19.5 1003,-19.5 1003,-.5 840,-.5"/>
<text text-anchor="middle" x="921.5" y="-7.5" font-family="Helvetica,sans-Serif" font-size="10.00" fill="#000000">sql/odbc/src/TODBCServer.cxx</text>
</a>
</g>
</g>
<!-- Node46&#45;&gt;Node52 -->
<g id="edge6" class="edge">
<title>Node46&#45;&gt;Node52</title>
<path fill="none" stroke="#191970" d="M776.3877,-53.4561C810.7143,-43.1765 858.5565,-28.8494 889.773,-19.5011"/>
<polygon fill="#191970" stroke="#191970" points="775.222,-50.1515 766.6464,-56.3733 777.2302,-56.8573 775.222,-50.1515"/>
</g>
<!-- Node53 -->
<g id="node8" class="node">
<title>Node53</title>
<g id="a_node8"><a xlink:href="TOracleServer_8cxx.html" target="_top" xlink:title="sql/oracle/src/TOracleServer.cxx">
<polygon fill="#ffffff" stroke="#000000" points="1021,-.5 1021,-19.5 1194,-19.5 1194,-.5 1021,-.5"/>
<text text-anchor="middle" x="1107.5" y="-7.5" font-family="Helvetica,sans-Serif" font-size="10.00" fill="#000000">sql/oracle/src/TOracleServer.cxx</text>
</a>
</g>
</g>
<!-- Node46&#45;&gt;Node53 -->
<g id="edge7" class="edge">
<title>Node46&#45;&gt;Node53</title>
<path fill="none" stroke="#191970" d="M808.1083,-54.9489C876.9583,-44.6122 978.7176,-29.3346 1044.0656,-19.5237"/>
<polygon fill="#191970" stroke="#191970" points="807.5667,-51.4909 798.1972,-56.4369 808.606,-58.4133 807.5667,-51.4909"/>
</g>
<!-- Node54 -->
<g id="node9" class="node">
<title>Node54</title>
<g id="a_node9"><a xlink:href="TPgSQLServer_8cxx.html" target="_top" xlink:title="sql/pgsql/src/TPgSQLServer.cxx">
<polygon fill="#ffffff" stroke="#000000" points="1212.5,-.5 1212.5,-19.5 1380.5,-19.5 1380.5,-.5 1212.5,-.5"/>
<text text-anchor="middle" x="1296.5" y="-7.5" font-family="Helvetica,sans-Serif" font-size="10.00" fill="#000000">sql/pgsql/src/TPgSQLServer.cxx</text>
</a>
</g>
</g>
<!-- Node46&#45;&gt;Node54 -->
<g id="edge8" class="edge">
<title>Node46&#45;&gt;Node54</title>
<path fill="none" stroke="#191970" d="M818.8583,-57.9655C912.7648,-48.9658 1069.0273,-33.824 1203.5,-20 1206.4077,-19.7011 1209.3662,-19.3948 1212.3542,-19.0836"/>
<polygon fill="#191970" stroke="#191970" points="818.4664,-54.4869 808.8456,-58.9244 819.1338,-61.455 818.4664,-54.4869"/>
</g>
<!-- Node55 -->
<g id="node10" class="node">
<title>Node55</title>
<g id="a_node10"><a xlink:href="TSQLiteServer_8cxx.html" target="_top" xlink:title="sql/sqlite/src/TSQLiteServer.cxx">
<polygon fill="#ffffff" stroke="#000000" points="1398.5,-.5 1398.5,-19.5 1568.5,-19.5 1568.5,-.5 1398.5,-.5"/>
<text text-anchor="middle" x="1483.5" y="-7.5" font-family="Helvetica,sans-Serif" font-size="10.00" fill="#000000">sql/sqlite/src/TSQLiteServer.cxx</text>
</a>
</g>
</g>
<!-- Node46&#45;&gt;Node55 -->
<g id="edge9" class="edge">
<title>Node46&#45;&gt;Node55</title>
<path fill="none" stroke="#191970" d="M818.9813,-61.0386C943.8236,-53.4867 1184.8936,-38.0621 1389.5,-20 1392.4426,-19.7402 1395.4362,-19.4676 1398.4589,-19.1851"/>
<polygon fill="#191970" stroke="#191970" points="818.5025,-57.561 808.7314,-61.6568 818.9239,-64.5483 818.5025,-57.561"/>
</g>
</g>
</svg>
