<?xml version="1.0" encoding="UTF-8" standalone="no"?>
<!DOCTYPE svg PUBLIC "-//W3C//DTD SVG 1.1//EN"
 "http://www.w3.org/Graphics/SVG/1.1/DTD/svg11.dtd">
<!-- Generated by graphviz version 2.40.1 (0)
 -->
<!-- Title: core/base/inc/TStorage.h Pages: 1 -->
<svg width="882pt" height="364pt"
 viewBox="0.00 0.00 882.00 364.00" xmlns="http://www.w3.org/2000/svg" xmlns:xlink="http://www.w3.org/1999/xlink">
<g id="graph0" class="graph" transform="scale(1 1) rotate(0) translate(4 360)">
<title>core/base/inc/TStorage.h</title>
<polygon fill="#ffffff" stroke="transparent" points="-4,4 -4,-360 878,-360 878,4 -4,4"/>
<!-- Node0 -->
<g id="node1" class="node">
<title>Node0</title>
<polygon fill="#bfbfbf" stroke="#000000" points="137.5,-336.5 137.5,-355.5 274.5,-355.5 274.5,-336.5 137.5,-336.5"/>
<text text-anchor="middle" x="206" y="-343.5" font-family="Helvetica,sans-Serif" font-size="10.00" fill="#000000">core/base/inc/TStorage.h</text>
</g>
<!-- Node1 -->
<g id="node2" class="node">
<title>Node1</title>
<polygon fill="#ffffff" stroke="#bfbfbf" points="199,-.5 199,-19.5 277,-19.5 277,-.5 199,-.5"/>
<text text-anchor="middle" x="238" y="-7.5" font-family="Helvetica,sans-Serif" font-size="10.00" fill="#000000">RConfigure.h</text>
</g>
<!-- Node0&#45;&gt;Node1 -->
<g id="edge1" class="edge">
<title>Node0&#45;&gt;Node1</title>
<path fill="none" stroke="#191970" d="M137.405,-337.3798C77.4795,-325.5564 0,-297.9116 0,-234 0,-234 0,-234 0,-122 0,-80.4332 120.3548,-41.3469 189.8909,-22.2332"/>
<polygon fill="#191970" stroke="#191970" points="191.0238,-25.5525 199.7612,-19.5601 189.1939,-18.7959 191.0238,-25.5525"/>
</g>
<!-- Node2 -->
<g id="node3" class="node">
<title>Node2</title>
<g id="a_node3"><a xlink:href="Rtypes_8h.html" target="_top" xlink:title="Rtypes.h">
<polygon fill="#ffffff" stroke="#000000" points="383.5,-280.5 383.5,-299.5 442.5,-299.5 442.5,-280.5 383.5,-280.5"/>
<text text-anchor="middle" x="413" y="-287.5" font-family="Helvetica,sans-Serif" font-size="10.00" fill="#000000">Rtypes.h</text>
</a>
</g>
</g>
<!-- Node0&#45;&gt;Node2 -->
<g id="edge2" class="edge">
<title>Node0&#45;&gt;Node2</title>
<path fill="none" stroke="#191970" d="M241.5846,-336.3733C278.2994,-326.4408 335.4281,-310.9856 373.5144,-300.6821"/>
<polygon fill="#191970" stroke="#191970" points="374.5014,-304.041 383.2404,-298.0509 372.6734,-297.2839 374.5014,-304.041"/>
</g>
<!-- Node3 -->
<g id="node4" class="node">
<title>Node3</title>
<g id="a_node4"><a xlink:href="RtypesCore_8h.html" target="_top" xlink:title="RtypesCore.h">
<polygon fill="#ffffff" stroke="#000000" points="401,-112.5 401,-131.5 483,-131.5 483,-112.5 401,-112.5"/>
<text text-anchor="middle" x="442" y="-119.5" font-family="Helvetica,sans-Serif" font-size="10.00" fill="#000000">RtypesCore.h</text>
</a>
</g>
</g>
<!-- Node2&#45;&gt;Node3 -->
<g id="edge3" class="edge">
<title>Node2&#45;&gt;Node3</title>
<path fill="none" stroke="#191970" d="M442.6032,-288.9828C501.6908,-286.2644 630.918,-276.6401 658,-244 709.0591,-182.4622 572.4435,-146.0145 493.5191,-130.6318"/>
<polygon fill="#191970" stroke="#191970" points="493.7364,-127.1107 483.2595,-128.6869 492.4326,-133.9883 493.7364,-127.1107"/>
</g>
<!-- Node7 -->
<g id="node8" class="node">
<title>Node7</title>
<g id="a_node8"><a xlink:href="DllImport_8h.html" target="_top" xlink:title="DllImport.h">
<polygon fill="#ffffff" stroke="#000000" points="119.5,-224.5 119.5,-243.5 190.5,-243.5 190.5,-224.5 119.5,-224.5"/>
<text text-anchor="middle" x="155" y="-231.5" font-family="Helvetica,sans-Serif" font-size="10.00" fill="#000000">DllImport.h</text>
</a>
</g>
</g>
<!-- Node2&#45;&gt;Node7 -->
<g id="edge8" class="edge">
<title>Node2&#45;&gt;Node7</title>
<path fill="none" stroke="#191970" d="M383.3542,-283.6561C344.0427,-275.231 272.2372,-259.7981 200.9144,-244.1911"/>
<polygon fill="#191970" stroke="#191970" points="201.3744,-240.709 190.8571,-241.9885 199.8768,-247.5469 201.3744,-240.709"/>
</g>
<!-- Node8 -->
<g id="node9" class="node">
<title>Node8</title>
<polygon fill="#ffffff" stroke="#bfbfbf" points="209,-224.5 209,-243.5 271,-243.5 271,-224.5 209,-224.5"/>
<text text-anchor="middle" x="240" y="-231.5" font-family="Helvetica,sans-Serif" font-size="10.00" fill="#000000">snprintf.h</text>
</g>
<!-- Node2&#45;&gt;Node8 -->
<g id="edge9" class="edge">
<title>Node2&#45;&gt;Node8</title>
<path fill="none" stroke="#191970" d="M383.2602,-280.3733C354.493,-271.0613 310.73,-256.8953 279.1444,-246.671"/>
<polygon fill="#191970" stroke="#191970" points="279.9436,-243.251 269.3517,-243.5011 277.7878,-249.9107 279.9436,-243.251"/>
</g>
<!-- Node9 -->
<g id="node10" class="node">
<title>Node9</title>
<polygon fill="#ffffff" stroke="#bfbfbf" points="289.5,-224.5 289.5,-243.5 346.5,-243.5 346.5,-224.5 289.5,-224.5"/>
<text text-anchor="middle" x="318" y="-231.5" font-family="Helvetica,sans-Serif" font-size="10.00" fill="#000000">strlcpy.h</text>
</g>
<!-- Node2&#45;&gt;Node9 -->
<g id="edge10" class="edge">
<title>Node2&#45;&gt;Node9</title>
<path fill="none" stroke="#191970" d="M396.4523,-280.2455C381.7401,-271.5731 360.0112,-258.7645 343.1495,-248.825"/>
<polygon fill="#191970" stroke="#191970" points="344.7502,-245.7057 334.3581,-243.6427 341.1954,-251.736 344.7502,-245.7057"/>
</g>
<!-- Node10 -->
<g id="node11" class="node">
<title>Node10</title>
<polygon fill="#ffffff" stroke="#bfbfbf" points="258,-168.5 258,-187.5 308,-187.5 308,-168.5 258,-168.5"/>
<text text-anchor="middle" x="283" y="-175.5" font-family="Helvetica,sans-Serif" font-size="10.00" fill="#000000">atomic</text>
</g>
<!-- Node2&#45;&gt;Node10 -->
<g id="edge11" class="edge">
<title>Node2&#45;&gt;Node10</title>
<path fill="none" stroke="#191970" d="M405.8667,-280.2769C395.5973,-266.6832 375.6058,-241.6818 355,-224 341.0563,-212.0349 323.7496,-200.8792 309.5989,-192.5509"/>
<polygon fill="#191970" stroke="#191970" points="311.2366,-189.4553 300.8226,-187.5062 307.7482,-195.5242 311.2366,-189.4553"/>
</g>
<!-- Node11 -->
<g id="node12" class="node">
<title>Node11</title>
<polygon fill="#ffffff" stroke="#bfbfbf" points="441,-224.5 441,-243.5 491,-243.5 491,-224.5 441,-224.5"/>
<text text-anchor="middle" x="466" y="-231.5" font-family="Helvetica,sans-Serif" font-size="10.00" fill="#000000">stdio.h</text>
</g>
<!-- Node2&#45;&gt;Node11 -->
<g id="edge12" class="edge">
<title>Node2&#45;&gt;Node11</title>
<path fill="none" stroke="#191970" d="M422.2319,-280.2455C429.8317,-272.2155 440.7877,-260.6394 449.8368,-251.0781"/>
<polygon fill="#191970" stroke="#191970" points="452.5421,-253.3115 456.8739,-243.6427 447.458,-248.4998 452.5421,-253.3115"/>
</g>
<!-- Node12 -->
<g id="node13" class="node">
<title>Node12</title>
<polygon fill="#ffffff" stroke="#bfbfbf" points="509.5,-224.5 509.5,-243.5 562.5,-243.5 562.5,-224.5 509.5,-224.5"/>
<text text-anchor="middle" x="536" y="-231.5" font-family="Helvetica,sans-Serif" font-size="10.00" fill="#000000">string.h</text>
</g>
<!-- Node2&#45;&gt;Node12 -->
<g id="edge13" class="edge">
<title>Node2&#45;&gt;Node12</title>
<path fill="none" stroke="#191970" d="M434.1445,-280.3733C453.8892,-271.3838 483.5698,-257.8706 505.8055,-247.7471"/>
<polygon fill="#191970" stroke="#191970" points="507.4806,-250.8302 515.1315,-243.5011 504.58,-244.4594 507.4806,-250.8302"/>
</g>
<!-- Node13 -->
<g id="node14" class="node">
<title>Node13</title>
<polygon fill="#ffffff" stroke="#bfbfbf" points="338.5,-168.5 338.5,-187.5 395.5,-187.5 395.5,-168.5 338.5,-168.5"/>
<text text-anchor="middle" x="367" y="-175.5" font-family="Helvetica,sans-Serif" font-size="10.00" fill="#000000">typeinfo</text>
</g>
<!-- Node2&#45;&gt;Node13 -->
<g id="edge14" class="edge">
<title>Node2&#45;&gt;Node13</title>
<path fill="none" stroke="#191970" d="M409.8669,-280.4891C405.5348,-267.5616 397.3057,-243.786 389,-224 385.1999,-214.9473 380.5633,-205.1048 376.5283,-196.8559"/>
<polygon fill="#191970" stroke="#191970" points="379.5854,-195.1428 372.0014,-187.7446 373.3165,-198.2575 379.5854,-195.1428"/>
</g>
<!-- Node14 -->
<g id="node15" class="node">
<title>Node14</title>
<polygon fill="#ffffff" stroke="#bfbfbf" points="580.5,-224.5 580.5,-243.5 649.5,-243.5 649.5,-224.5 580.5,-224.5"/>
<text text-anchor="middle" x="615" y="-231.5" font-family="Helvetica,sans-Serif" font-size="10.00" fill="#000000">type_traits</text>
</g>
<!-- Node2&#45;&gt;Node14 -->
<g id="edge15" class="edge">
<title>Node2&#45;&gt;Node14</title>
<path fill="none" stroke="#191970" d="M442.8058,-281.737C476.5547,-272.3809 531.8817,-257.0427 570.6913,-246.2836"/>
<polygon fill="#191970" stroke="#191970" points="571.9712,-249.5609 580.6727,-243.5165 570.1011,-242.8153 571.9712,-249.5609"/>
</g>
<!-- Node15 -->
<g id="node16" class="node">
<title>Node15</title>
<g id="a_node16"><a xlink:href="TGenericClassInfo_8h.html" target="_top" xlink:title="TGenericClassInfo.h">
<polygon fill="#ffffff" stroke="#000000" points="706,-224.5 706,-243.5 820,-243.5 820,-224.5 706,-224.5"/>
<text text-anchor="middle" x="763" y="-231.5" font-family="Helvetica,sans-Serif" font-size="10.00" fill="#000000">TGenericClassInfo.h</text>
</a>
</g>
</g>
<!-- Node2&#45;&gt;Node15 -->
<g id="edge16" class="edge">
<title>Node2&#45;&gt;Node15</title>
<path fill="none" stroke="#191970" d="M442.6825,-284.5796C498.3901,-275.1883 619.4358,-255.7622 695.7896,-243.9063"/>
<polygon fill="#191970" stroke="#191970" points="696.4474,-247.3462 705.7938,-242.3568 695.3759,-240.4287 696.4474,-247.3462"/>
</g>
<!-- Node19 -->
<g id="node20" class="node">
<title>Node19</title>
<g id="a_node20"><a xlink:href="TIsAProxy_8h.html" target="_top" xlink:title="TIsAProxy.h">
<polygon fill="#ffffff" stroke="#000000" points="28.5,-224.5 28.5,-243.5 101.5,-243.5 101.5,-224.5 28.5,-224.5"/>
<text text-anchor="middle" x="65" y="-231.5" font-family="Helvetica,sans-Serif" font-size="10.00" fill="#000000">TIsAProxy.h</text>
</a>
</g>
</g>
<!-- Node2&#45;&gt;Node19 -->
<g id="edge22" class="edge">
<title>Node2&#45;&gt;Node19</title>
<path fill="none" stroke="#191970" d="M383.2111,-286.1621C330.4716,-279.2201 217.0186,-263.6265 111.936,-244.2748"/>
<polygon fill="#191970" stroke="#191970" points="112.2663,-240.7763 101.7951,-242.3905 110.9874,-247.6585 112.2663,-240.7763"/>
</g>
<!-- Node4 -->
<g id="node5" class="node">
<title>Node4</title>
<g id="a_node5"><a xlink:href="RConfig_8hxx.html" target="_top" xlink:title="ROOT/RConfig.hxx">
<polygon fill="#ffffff" stroke="#000000" points="284.5,-56.5 284.5,-75.5 389.5,-75.5 389.5,-56.5 284.5,-56.5"/>
<text text-anchor="middle" x="337" y="-63.5" font-family="Helvetica,sans-Serif" font-size="10.00" fill="#000000">ROOT/RConfig.hxx</text>
</a>
</g>
</g>
<!-- Node3&#45;&gt;Node4 -->
<g id="edge4" class="edge">
<title>Node3&#45;&gt;Node4</title>
<path fill="none" stroke="#191970" d="M423.7104,-112.2455C407.2238,-103.4527 382.7648,-90.4079 364.0235,-80.4125"/>
<polygon fill="#191970" stroke="#191970" points="365.5506,-77.2604 355.08,-75.6427 362.2565,-83.4368 365.5506,-77.2604"/>
</g>
<!-- Node6 -->
<g id="node7" class="node">
<title>Node6</title>
<polygon fill="#ffffff" stroke="#bfbfbf" points="414,-56.5 414,-75.5 470,-75.5 470,-56.5 414,-56.5"/>
<text text-anchor="middle" x="442" y="-63.5" font-family="Helvetica,sans-Serif" font-size="10.00" fill="#000000">stddef.h</text>
</g>
<!-- Node3&#45;&gt;Node6 -->
<g id="edge7" class="edge">
<title>Node3&#45;&gt;Node6</title>
<path fill="none" stroke="#191970" d="M442,-112.2455C442,-104.9382 442,-94.6944 442,-85.7046"/>
<polygon fill="#191970" stroke="#191970" points="445.5001,-85.6426 442,-75.6427 438.5001,-85.6427 445.5001,-85.6426"/>
</g>
<!-- Node4&#45;&gt;Node1 -->
<g id="edge6" class="edge">
<title>Node4&#45;&gt;Node1</title>
<path fill="none" stroke="#191970" d="M319.7555,-56.2455C304.4239,-47.5731 281.7801,-34.7645 264.2084,-24.825"/>
<polygon fill="#191970" stroke="#191970" points="265.4741,-21.5198 255.0469,-19.6427 262.0276,-27.6126 265.4741,-21.5198"/>
</g>
<!-- Node5 -->
<g id="node6" class="node">
<title>Node5</title>
<g id="a_node6"><a xlink:href="RVersion_8h.html" target="_top" xlink:title="../RVersion.h">
<polygon fill="#ffffff" stroke="#000000" points="298.5,-.5 298.5,-19.5 375.5,-19.5 375.5,-.5 298.5,-.5"/>
<text text-anchor="middle" x="337" y="-7.5" font-family="Helvetica,sans-Serif" font-size="10.00" fill="#000000">../RVersion.h</text>
</a>
</g>
</g>
<!-- Node4&#45;&gt;Node5 -->
<g id="edge5" class="edge">
<title>Node4&#45;&gt;Node5</title>
<path fill="none" stroke="#191970" d="M337,-56.2455C337,-48.9382 337,-38.6944 337,-29.7046"/>
<polygon fill="#191970" stroke="#191970" points="340.5001,-29.6426 337,-19.6427 333.5001,-29.6427 340.5001,-29.6426"/>
</g>
<!-- Node15&#45;&gt;Node2 -->
<g id="edge21" class="edge">
<title>Node15&#45;&gt;Node2</title>
<path fill="none" stroke="#191970" d="M708.7566,-243.5141C637.8677,-255.2272 515.5815,-274.7425 452.7061,-284.3307"/>
<polygon fill="#191970" stroke="#191970" points="452.1389,-280.8766 442.7768,-285.8366 453.1886,-287.7975 452.1389,-280.8766"/>
</g>
<!-- Node16 -->
<g id="node17" class="node">
<title>Node16</title>
<polygon fill="#ffffff" stroke="#bfbfbf" points="706.5,-168.5 706.5,-187.5 753.5,-187.5 753.5,-168.5 706.5,-168.5"/>
<text text-anchor="middle" x="730" y="-175.5" font-family="Helvetica,sans-Serif" font-size="10.00" fill="#000000">vector</text>
</g>
<!-- Node15&#45;&gt;Node16 -->
<g id="edge17" class="edge">
<title>Node15&#45;&gt;Node16</title>
<path fill="none" stroke="#191970" d="M757.2518,-224.2455C752.7565,-216.617 746.3752,-205.7881 740.9175,-196.5267"/>
<polygon fill="#191970" stroke="#191970" points="743.7747,-194.4811 735.6823,-187.6427 737.7439,-198.035 743.7747,-194.4811"/>
</g>
<!-- Node17 -->
<g id="node18" class="node">
<title>Node17</title>
<g id="a_node18"><a xlink:href="TSchemaHelper_8h.html" target="_top" xlink:title="TSchemaHelper.h">
<polygon fill="#ffffff" stroke="#000000" points="772,-168.5 772,-187.5 874,-187.5 874,-168.5 772,-168.5"/>
<text text-anchor="middle" x="823" y="-175.5" font-family="Helvetica,sans-Serif" font-size="10.00" fill="#000000">TSchemaHelper.h</text>
</a>
</g>
</g>
<!-- Node15&#45;&gt;Node17 -->
<g id="edge18" class="edge">
<title>Node15&#45;&gt;Node17</title>
<path fill="none" stroke="#191970" d="M773.4512,-224.2455C782.2269,-216.0549 794.9554,-204.1749 805.314,-194.5069"/>
<polygon fill="#191970" stroke="#191970" points="807.7461,-197.0246 812.6686,-187.6427 802.9699,-191.9072 807.7461,-197.0246"/>
</g>
<!-- Node17&#45;&gt;Node3 -->
<g id="edge19" class="edge">
<title>Node17&#45;&gt;Node3</title>
<path fill="none" stroke="#191970" d="M771.9497,-169.4102C768.9226,-168.9262 765.922,-168.4528 763,-168 667.8754,-153.2591 556.6241,-137.6891 493.2217,-128.9731"/>
<polygon fill="#191970" stroke="#191970" points="493.4718,-125.4747 483.0888,-127.5825 492.5201,-132.4097 493.4718,-125.4747"/>
</g>
<!-- Node18 -->
<g id="node19" class="node">
<title>Node18</title>
<polygon fill="#ffffff" stroke="#bfbfbf" points="801,-112.5 801,-131.5 845,-131.5 845,-112.5 801,-112.5"/>
<text text-anchor="middle" x="823" y="-119.5" font-family="Helvetica,sans-Serif" font-size="10.00" fill="#000000">string</text>
</g>
<!-- Node17&#45;&gt;Node18 -->
<g id="edge20" class="edge">
<title>Node17&#45;&gt;Node18</title>
<path fill="none" stroke="#191970" d="M823,-168.2455C823,-160.9382 823,-150.6944 823,-141.7046"/>
<polygon fill="#191970" stroke="#191970" points="826.5001,-141.6426 823,-131.6427 819.5001,-141.6427 826.5001,-141.6426"/>
</g>
<!-- Node19&#45;&gt;Node3 -->
<g id="edge24" class="edge">
<title>Node19&#45;&gt;Node3</title>
<path fill="none" stroke="#191970" d="M88.8308,-224.4952C123.642,-210.8309 190.6121,-185.3721 249,-168 296.6831,-153.8129 351.9931,-140.9924 391.1472,-132.5121"/>
<polygon fill="#191970" stroke="#191970" points="391.9473,-135.9202 400.9893,-130.3982 390.4772,-129.0763 391.9473,-135.9202"/>
</g>
<!-- Node19&#45;&gt;Node10 -->
<g id="edge25" class="edge">
<title>Node19&#45;&gt;Node10</title>
<path fill="none" stroke="#191970" d="M101.9807,-224.5004C142.7693,-214.0226 207.9118,-197.2887 247.9231,-187.0106"/>
<polygon fill="#191970" stroke="#191970" points="248.9533,-190.3597 257.768,-184.4816 247.2116,-183.5798 248.9533,-190.3597"/>
</g>
<!-- Node19&#45;&gt;Node13 -->
<g id="edge26" class="edge">
<title>Node19&#45;&gt;Node13</title>
<path fill="none" stroke="#191970" d="M101.8076,-225.6744C104.5768,-225.0928 107.3308,-224.5284 110,-224 201.6034,-205.8665 225.2089,-205.1581 317,-188 320.6982,-187.3087 324.5466,-186.5713 328.3933,-185.8222"/>
<polygon fill="#191970" stroke="#191970" points="329.3339,-189.2042 338.4677,-183.8355 327.9795,-182.3365 329.3339,-189.2042"/>
</g>
<!-- Node20 -->
<g id="node21" class="node">
<title>Node20</title>
<g id="a_node21"><a xlink:href="TVirtualIsAProxy_8h.html" target="_top" xlink:title="TVirtualIsAProxy.h">
<polygon fill="#ffffff" stroke="#000000" points="28.5,-168.5 28.5,-187.5 133.5,-187.5 133.5,-168.5 28.5,-168.5"/>
<text text-anchor="middle" x="81" y="-175.5" font-family="Helvetica,sans-Serif" font-size="10.00" fill="#000000">TVirtualIsAProxy.h</text>
</a>
</g>
</g>
<!-- Node19&#45;&gt;Node20 -->
<g id="edge23" class="edge">
<title>Node19&#45;&gt;Node20</title>
<path fill="none" stroke="#191970" d="M67.787,-224.2455C69.8977,-216.8579 72.866,-206.4689 75.4547,-197.4087"/>
<polygon fill="#191970" stroke="#191970" points="78.863,-198.2195 78.245,-187.6427 72.1323,-196.2964 78.863,-198.2195"/>
</g>
</g>
</svg>
