<?xml version="1.0" encoding="UTF-8" standalone="no"?>
<!DOCTYPE svg PUBLIC "-//W3C//DTD SVG 1.1//EN"
 "http://www.w3.org/Graphics/SVG/1.1/DTD/svg11.dtd">
<!-- Generated by graphviz version 2.40.1 (0)
 -->
<!-- Title: io/io/inc/TStreamerInfoActions.h Pages: 1 -->
<!--zoomable 363 -->
<svg id="main" version="1.1" xmlns="http://www.w3.org/2000/svg" xmlns:xlink="http://www.w3.org/1999/xlink" xml:space="preserve" onload="init(evt)">
<style type="text/css"><![CDATA[
.edge:hover path { stroke: red; }
.edge:hover polygon { stroke: red; fill: red; }
]]></style>
<script type="text/javascript"><![CDATA[
var edges = document.getElementsByTagName('g');
if (edges && edges.length) {
  for (var i=0;i<edges.length;i++) {
    if (edges[i].id.substr(0,4)=='edge') {
      edges[i].setAttribute('class','edge');
    }
  }
}
]]></script>
        <defs>
                <circle id="rim" cx="0" cy="0" r="7"/>
                <circle id="rim2" cx="0" cy="0" r="3.5"/>
                <g id="zoomPlus">
                        <use xlink:href="#rim" fill="#404040">
                                <set attributeName="fill" to="#808080" begin="zoomplus.mouseover" end="zoomplus.mouseout"/>
                        </use>
                        <path d="M-4,0h8M0,-4v8" fill="none" stroke="white" stroke-width="1.5" pointer-events="none"/>
                </g>
                <g id="zoomMin">
                        <use xlink:href="#rim" fill="#404040">
                                <set attributeName="fill" to="#808080" begin="zoomminus.mouseover" end="zoomminus.mouseout"/>
                        </use>
                        <path d="M-4,0h8" fill="none" stroke="white" stroke-width="1.5" pointer-events="none"/>
                </g>
                <g id="dirArrow">
                        <path fill="none" stroke="white" stroke-width="1.5" d="M0,-3.0v7 M-2.5,-0.5L0,-3.0L2.5,-0.5"/>
                </g>
               <g id="resetDef">
                       <use xlink:href="#rim2" fill="#404040">
                               <set attributeName="fill" to="#808080" begin="reset.mouseover" end="reset.mouseout"/>
                       </use>
               </g>
        </defs>

<script type="text/javascript">
var viewWidth = 2758;
var viewHeight = 363;
var sectionId = 'dynsection-1';
</script>
<script xlink:href="svgpan.js"/>
<svg id="graph" class="graph">
<g id="viewport">
<title>io/io/inc/TStreamerInfoActions.h</title>
<polygon fill="#ffffff" stroke="transparent" points="-4,4 -4,-359 2754.4896,-359 2754.4896,4 -4,4"/>
<!-- Node70 -->
<g id="node1" class="node">
<title>Node70</title>
<polygon fill="#bfbfbf" stroke="#000000" points="529.5,-335.5 529.5,-354.5 702.5,-354.5 702.5,-335.5 529.5,-335.5"/>
<text text-anchor="middle" x="616" y="-342.5" font-family="Helvetica,sans-Serif" font-size="10.00" fill="#000000">io/io/inc/TStreamerInfoActions.h</text>
</g>
<!-- Node71 -->
<g id="node2" class="node">
<title>Node71</title>
<g id="a_node2"><a xlink:href="TBufferFile_8cxx.html" target="_top" xlink:title=" &#160;">
<polygon fill="#ffffff" stroke="#000000" points="0,-274 0,-293 130,-293 130,-274 0,-274"/>
<text text-anchor="middle" x="65" y="-281" font-family="Helvetica,sans-Serif" font-size="10.00" fill="#000000">io/io/src/TBufferFile.cxx</text>
</a>
</g>
</g>
<!-- Node70&#45;&gt;Node71 -->
<g id="edge1" class="edge">
<title>Node70&#45;&gt;Node71</title>
<path fill="none" stroke="#191970" d="M519.4295,-338.827C422.7971,-331.9133 270.0678,-318.9842 139,-299 128.4894,-297.3974 117.2217,-295.2572 106.7282,-293.0801"/>
<polygon fill="#191970" stroke="#191970" points="519.2522,-342.3231 529.4745,-339.5385 519.7468,-335.3406 519.2522,-342.3231"/>
</g>
<!-- Node72 -->
<g id="node3" class="node">
<title>Node72</title>
<g id="a_node3"><a xlink:href="TBufferText_8cxx.html" target="_top" xlink:title="io/io/src/TBufferText.cxx">
<polygon fill="#ffffff" stroke="#000000" points="148,-274 148,-293 282,-293 282,-274 148,-274"/>
<text text-anchor="middle" x="215" y="-281" font-family="Helvetica,sans-Serif" font-size="10.00" fill="#000000">io/io/src/TBufferText.cxx</text>
</a>
</g>
</g>
<!-- Node70&#45;&gt;Node72 -->
<g id="edge2" class="edge">
<title>Node70&#45;&gt;Node72</title>
<path fill="none" stroke="#191970" d="M529.0025,-334.1421C463.423,-325.6047 371.3561,-312.8678 291,-299 280.7822,-297.2366 269.8353,-295.1317 259.5224,-293.0503"/>
<polygon fill="#191970" stroke="#191970" points="528.9274,-337.6615 539.2943,-335.4757 529.827,-330.7196 528.9274,-337.6615"/>
</g>
<!-- Node73 -->
<g id="node4" class="node">
<title>Node73</title>
<g id="a_node4"><a xlink:href="TGenCollectionProxy_8cxx.html" target="_top" xlink:title="io/io/src/TGenCollection\lProxy.cxx">
<polygon fill="#ffffff" stroke="#000000" points="300,-268.5 300,-298.5 432,-298.5 432,-268.5 300,-268.5"/>
<text text-anchor="start" x="308" y="-286.5" font-family="Helvetica,sans-Serif" font-size="10.00" fill="#000000">io/io/src/TGenCollection</text>
<text text-anchor="middle" x="366" y="-275.5" font-family="Helvetica,sans-Serif" font-size="10.00" fill="#000000">Proxy.cxx</text>
</a>
</g>
</g>
<!-- Node70&#45;&gt;Node73 -->
<g id="edge3" class="edge">
<title>Node70&#45;&gt;Node73</title>
<path fill="none" stroke="#191970" d="M567.4229,-333.05C527.4094,-323.2067 470.4414,-309.1926 427.2944,-298.5784"/>
<polygon fill="#191970" stroke="#191970" points="566.6652,-336.4679 577.2118,-335.4581 568.3374,-329.6706 566.6652,-336.4679"/>
</g>
<!-- Node74 -->
<g id="node5" class="node">
<title>Node74</title>
<g id="a_node5"><a xlink:href="TStreamerInfo_8cxx.html" target="_top" xlink:title="io/io/src/TStreamerInfo.cxx">
<polygon fill="#ffffff" stroke="#000000" points="450,-274 450,-293 598,-293 598,-274 450,-274"/>
<text text-anchor="middle" x="524" y="-281" font-family="Helvetica,sans-Serif" font-size="10.00" fill="#000000">io/io/src/TStreamerInfo.cxx</text>
</a>
</g>
</g>
<!-- Node70&#45;&gt;Node74 -->
<g id="edge4" class="edge">
<title>Node70&#45;&gt;Node74</title>
<path fill="none" stroke="#191970" d="M593.2409,-329.786C576.0382,-318.2864 552.9538,-302.855 538.2741,-293.0419"/>
<polygon fill="#191970" stroke="#191970" points="591.3663,-332.7429 601.625,-335.3906 595.2566,-326.9234 591.3663,-332.7429"/>
</g>
<!-- Node75 -->
<g id="node6" class="node">
<title>Node75</title>
<g id="a_node6"><a xlink:href="TStreamerInfoActions_8cxx.html" target="_top" xlink:title="io/io/src/TStreamerInfoActions.cxx">
<polygon fill="#ffffff" stroke="#000000" points="616,-274 616,-293 800,-293 800,-274 616,-274"/>
<text text-anchor="middle" x="708" y="-281" font-family="Helvetica,sans-Serif" font-size="10.00" fill="#000000">io/io/src/TStreamerInfoActions.cxx</text>
</a>
</g>
</g>
<!-- Node70&#45;&gt;Node75 -->
<g id="edge5" class="edge">
<title>Node70&#45;&gt;Node75</title>
<path fill="none" stroke="#191970" d="M638.7591,-329.786C655.9618,-318.2864 679.0462,-302.855 693.7259,-293.0419"/>
<polygon fill="#191970" stroke="#191970" points="636.7434,-326.9234 630.375,-335.3906 640.6337,-332.7429 636.7434,-326.9234"/>
</g>
<!-- Node76 -->
<g id="node7" class="node">
<title>Node76</title>
<g id="a_node7"><a xlink:href="TBufferSQL2_8cxx.html" target="_top" xlink:title="io/sql/src/TBufferSQL2.cxx">
<polygon fill="#ffffff" stroke="#000000" points="818.5,-274 818.5,-293 961.5,-293 961.5,-274 818.5,-274"/>
<text text-anchor="middle" x="890" y="-281" font-family="Helvetica,sans-Serif" font-size="10.00" fill="#000000">io/sql/src/TBufferSQL2.cxx</text>
</a>
</g>
</g>
<!-- Node70&#45;&gt;Node76 -->
<g id="edge6" class="edge">
<title>Node70&#45;&gt;Node76</title>
<path fill="none" stroke="#191970" d="M668.5395,-333.2074C720.5367,-321.5365 799.1516,-303.8912 847.3884,-293.0643"/>
<polygon fill="#191970" stroke="#191970" points="667.5026,-329.853 658.5119,-335.4581 669.0356,-336.683 667.5026,-329.853"/>
</g>
<!-- Node77 -->
<g id="node8" class="node">
<title>Node77</title>
<g id="a_node8"><a xlink:href="TBranchElement_8h.html" target="_top" xlink:title="tree/tree/inc/TBranchElement.h">
<polygon fill="#ffffff" stroke="#000000" points="1314,-274 1314,-293 1482,-293 1482,-274 1314,-274"/>
<text text-anchor="middle" x="1398" y="-281" font-family="Helvetica,sans-Serif" font-size="10.00" fill="#000000">tree/tree/inc/TBranchElement.h</text>
</a>
</g>
</g>
<!-- Node70&#45;&gt;Node77 -->
<g id="edge7" class="edge">
<title>Node70&#45;&gt;Node77</title>
<path fill="none" stroke="#191970" d="M712.6452,-337.3994C867.251,-325.2405 1167.6338,-301.617 1313.9034,-290.1137"/>
<polygon fill="#191970" stroke="#191970" points="712.3703,-333.9101 702.6755,-338.1834 712.9192,-340.8886 712.3703,-333.9101"/>
</g>
<!-- Node82 -->
<g id="node13" class="node">
<title>Node82</title>
<g id="a_node13"><a xlink:href="TBranchElement_8cxx.html" target="_top" xlink:title="tree/tree/src/TBranchElement.cxx">
<polygon fill="#ffffff" stroke="#000000" points="900.5,-140 900.5,-159 1079.5,-159 1079.5,-140 900.5,-140"/>
<text text-anchor="middle" x="990" y="-147" font-family="Helvetica,sans-Serif" font-size="10.00" fill="#000000">tree/tree/src/TBranchElement.cxx</text>
</a>
</g>
</g>
<!-- Node70&#45;&gt;Node82 -->
<g id="edge50" class="edge">
<title>Node70&#45;&gt;Node82</title>
<path fill="none" stroke="#191970" d="M712.6828,-338.4452C811.1714,-330.8281 951.9597,-316.9724 970,-299 1008.5866,-260.5586 997.6731,-185.8911 992.224,-159.2423"/>
<polygon fill="#191970" stroke="#191970" points="712.3964,-334.9567 702.6918,-339.2078 712.9292,-341.9364 712.3964,-334.9567"/>
</g>
<!-- Node78 -->
<g id="node9" class="node">
<title>Node78</title>
<g id="a_node9"><a xlink:href="Pythonize_8cxx.html" target="_top" xlink:title="bindings/pyroot/src\l/Pythonize.cxx">
<polygon fill="#ffffff" stroke="#000000" points="1763,-134.5 1763,-164.5 1873,-164.5 1873,-134.5 1763,-134.5"/>
<text text-anchor="start" x="1771" y="-152.5" font-family="Helvetica,sans-Serif" font-size="10.00" fill="#000000">bindings/pyroot/src</text>
<text text-anchor="middle" x="1818" y="-141.5" font-family="Helvetica,sans-Serif" font-size="10.00" fill="#000000">/Pythonize.cxx</text>
</a>
</g>
</g>
<!-- Node77&#45;&gt;Node78 -->
<g id="edge8" class="edge">
<title>Node77&#45;&gt;Node78</title>
<path fill="none" stroke="#191970" d="M1492.5452,-281.5589C1791.6239,-275.1969 2698.7324,-254.1122 2720,-232 2729.5509,-222.0698 2729.4606,-211.0162 2720,-201 2690.819,-170.1054 2064.4383,-154.6078 1873.0505,-150.5819"/>
<polygon fill="#191970" stroke="#191970" points="1492.0885,-278.0677 1482.165,-281.779 1492.237,-285.0661 1492.0885,-278.0677"/>
</g>
<!-- Node79 -->
<g id="node10" class="node">
<title>Node79</title>
<g id="a_node10"><a xlink:href="RDFUtils_8cxx.html" target="_top" xlink:title="tree/dataframe/src\l/RDFUtils.cxx">
<polygon fill="#ffffff" stroke="#000000" points="1344.5,-201.5 1344.5,-231.5 1451.5,-231.5 1451.5,-201.5 1344.5,-201.5"/>
<text text-anchor="start" x="1352.5" y="-219.5" font-family="Helvetica,sans-Serif" font-size="10.00" fill="#000000">tree/dataframe/src</text>
<text text-anchor="middle" x="1398" y="-208.5" font-family="Helvetica,sans-Serif" font-size="10.00" fill="#000000">/RDFUtils.cxx</text>
</a>
</g>
</g>
<!-- Node77&#45;&gt;Node79 -->
<g id="edge9" class="edge">
<title>Node77&#45;&gt;Node79</title>
<path fill="none" stroke="#191970" d="M1398,-263.7758C1398,-253.4641 1398,-241.0437 1398,-231.5218"/>
<polygon fill="#191970" stroke="#191970" points="1394.5001,-263.9005 1398,-273.9005 1401.5001,-263.9006 1394.5001,-263.9005"/>
</g>
<!-- Node80 -->
<g id="node11" class="node">
<title>Node80</title>
<g id="a_node11"><a xlink:href="RLoopManager_8cxx.html" target="_top" xlink:title="tree/dataframe/src\l/RLoopManager.cxx">
<polygon fill="#ffffff" stroke="#000000" points="1469.5,-201.5 1469.5,-231.5 1580.5,-231.5 1580.5,-201.5 1469.5,-201.5"/>
<text text-anchor="start" x="1477.5" y="-219.5" font-family="Helvetica,sans-Serif" font-size="10.00" fill="#000000">tree/dataframe/src</text>
<text text-anchor="middle" x="1525" y="-208.5" font-family="Helvetica,sans-Serif" font-size="10.00" fill="#000000">/RLoopManager.cxx</text>
</a>
</g>
</g>
<!-- Node77&#45;&gt;Node80 -->
<g id="edge10" class="edge">
<title>Node77&#45;&gt;Node80</title>
<path fill="none" stroke="#191970" d="M1425.2312,-269.1339C1446.2384,-258.0514 1475.2127,-242.7657 1496.5259,-231.5218"/>
<polygon fill="#191970" stroke="#191970" points="1423.4075,-266.1388 1416.196,-273.9005 1426.6738,-272.33 1423.4075,-266.1388"/>
</g>
<!-- Node81 -->
<g id="node12" class="node">
<title>Node81</title>
<g id="a_node12"><a xlink:href="TBranchSTL_8h.html" target="_top" xlink:title="tree/tree/inc/TBranchSTL.h">
<polygon fill="#ffffff" stroke="#000000" points="736.5,-207 736.5,-226 881.5,-226 881.5,-207 736.5,-207"/>
<text text-anchor="middle" x="809" y="-214" font-family="Helvetica,sans-Serif" font-size="10.00" fill="#000000">tree/tree/inc/TBranchSTL.h</text>
</a>
</g>
</g>
<!-- Node77&#45;&gt;Node81 -->
<g id="edge11" class="edge">
<title>Node77&#45;&gt;Node81</title>
<path fill="none" stroke="#191970" d="M1304.1853,-272.8284C1186.8236,-259.4782 988.3648,-236.9031 881.8108,-224.7824"/>
<polygon fill="#191970" stroke="#191970" points="1303.9046,-276.3189 1314.2362,-273.9717 1304.6959,-269.3638 1303.9046,-276.3189"/>
</g>
<!-- Node77&#45;&gt;Node82 -->
<g id="edge36" class="edge">
<title>Node77&#45;&gt;Node82</title>
<path fill="none" stroke="#191970" d="M1303.7262,-276.2863C1246.8639,-269.5625 1173.8903,-256.6594 1113,-232 1067.4798,-213.5652 1021.4156,-176.7145 1000.9582,-159.1897"/>
<polygon fill="#191970" stroke="#191970" points="1303.4564,-279.7781 1313.7881,-277.4318 1304.2482,-272.823 1303.4564,-279.7781"/>
</g>
<!-- Node83 -->
<g id="node14" class="node">
<title>Node83</title>
<g id="a_node14"><a xlink:href="TBranchSTL_8cxx.html" target="_top" xlink:title="tree/tree/src/TBranchSTL.cxx">
<polygon fill="#ffffff" stroke="#000000" points="273,-140 273,-159 429,-159 429,-140 273,-140"/>
<text text-anchor="middle" x="351" y="-147" font-family="Helvetica,sans-Serif" font-size="10.00" fill="#000000">tree/tree/src/TBranchSTL.cxx</text>
</a>
</g>
</g>
<!-- Node77&#45;&gt;Node83 -->
<g id="edge37" class="edge">
<title>Node77&#45;&gt;Node83</title>
<path fill="none" stroke="#191970" d="M1303.7584,-280.3677C1123.1928,-273.8754 734.7044,-257.4027 603,-232 515.9866,-215.2172 417.344,-177.0259 373.7617,-159.112"/>
<polygon fill="#191970" stroke="#191970" points="1303.6548,-283.8662 1313.7733,-280.7252 1303.9046,-276.8706 1303.6548,-283.8662"/>
</g>
<!-- Node84 -->
<g id="node15" class="node">
<title>Node84</title>
<g id="a_node15"><a xlink:href="TTree_8cxx.html" target="_top" xlink:title="tree/tree/src/TTree.cxx">
<polygon fill="#ffffff" stroke="#000000" points="1097.5,-140 1097.5,-159 1222.5,-159 1222.5,-140 1097.5,-140"/>
<text text-anchor="middle" x="1160" y="-147" font-family="Helvetica,sans-Serif" font-size="10.00" fill="#000000">tree/tree/src/TTree.cxx</text>
</a>
</g>
</g>
<!-- Node77&#45;&gt;Node84 -->
<g id="edge38" class="edge">
<title>Node77&#45;&gt;Node84</title>
<path fill="none" stroke="#191970" d="M1303.6615,-278.4129C1233.3996,-272.4185 1145.8431,-259.5181 1123,-232 1104.1506,-209.293 1132.9406,-175.4441 1149.5652,-159.064"/>
<polygon fill="#191970" stroke="#191970" points="1303.6411,-281.9227 1313.8927,-279.2481 1304.2107,-274.946 1303.6411,-281.9227"/>
</g>
<!-- Node85 -->
<g id="node16" class="node">
<title>Node85</title>
<g id="a_node16"><a xlink:href="TTreeReaderArray_8cxx.html" target="_top" xlink:title="tree/treeplayer/src\l/TTreeReaderArray.cxx">
<polygon fill="#ffffff" stroke="#000000" points="447.5,-134.5 447.5,-164.5 572.5,-164.5 572.5,-134.5 447.5,-134.5"/>
<text text-anchor="start" x="455.5" y="-152.5" font-family="Helvetica,sans-Serif" font-size="10.00" fill="#000000">tree/treeplayer/src</text>
<text text-anchor="middle" x="510" y="-141.5" font-family="Helvetica,sans-Serif" font-size="10.00" fill="#000000">/TTreeReaderArray.cxx</text>
</a>
</g>
</g>
<!-- Node77&#45;&gt;Node85 -->
<g id="edge46" class="edge">
<title>Node77&#45;&gt;Node85</title>
<path fill="none" stroke="#191970" d="M1303.5213,-280.9358C1137.4515,-275.7189 800.0083,-261.7521 686,-232 628.8583,-217.0881 567.5952,-184.0113 534.5477,-164.5727"/>
<polygon fill="#191970" stroke="#191970" points="1303.6198,-284.4405 1313.7235,-281.2521 1303.8367,-277.4438 1303.6198,-284.4405"/>
</g>
<!-- Node86 -->
<g id="node17" class="node">
<title>Node86</title>
<g id="a_node17"><a xlink:href="TTreeReaderValue_8cxx.html" target="_top" xlink:title="tree/treeplayer/src\l/TTreeReaderValue.cxx">
<polygon fill="#ffffff" stroke="#000000" points="590.5,-134.5 590.5,-164.5 717.5,-164.5 717.5,-134.5 590.5,-134.5"/>
<text text-anchor="start" x="598.5" y="-152.5" font-family="Helvetica,sans-Serif" font-size="10.00" fill="#000000">tree/treeplayer/src</text>
<text text-anchor="middle" x="654" y="-141.5" font-family="Helvetica,sans-Serif" font-size="10.00" fill="#000000">/TTreeReaderValue.cxx</text>
</a>
</g>
</g>
<!-- Node77&#45;&gt;Node86 -->
<g id="edge48" class="edge">
<title>Node77&#45;&gt;Node86</title>
<path fill="none" stroke="#191970" d="M1303.6962,-280.1789C1131.0763,-273.5267 777.3231,-257.0271 727,-232 697.0327,-217.0964 673.9234,-184.0165 662.2996,-164.5752"/>
<polygon fill="#191970" stroke="#191970" points="1303.6663,-283.6802 1313.7927,-280.5647 1303.9336,-276.6853 1303.6663,-283.6802"/>
</g>
<!-- Node87 -->
<g id="node18" class="node">
<title>Node87</title>
<g id="a_node18"><a xlink:href="TTreeReaderValueFast_8cxx.html" target="_top" xlink:title="tree/treeplayer/src\l/TTreeReaderValueFast.cxx">
<polygon fill="#ffffff" stroke="#000000" points="736,-134.5 736,-164.5 882,-164.5 882,-134.5 736,-134.5"/>
<text text-anchor="start" x="744" y="-152.5" font-family="Helvetica,sans-Serif" font-size="10.00" fill="#000000">tree/treeplayer/src</text>
<text text-anchor="middle" x="809" y="-141.5" font-family="Helvetica,sans-Serif" font-size="10.00" fill="#000000">/TTreeReaderValueFast.cxx</text>
</a>
</g>
</g>
<!-- Node77&#45;&gt;Node87 -->
<g id="edge49" class="edge">
<title>Node77&#45;&gt;Node87</title>
<path fill="none" stroke="#191970" d="M1303.7897,-274.0185C1233.9418,-265.8848 1136.7378,-252.2361 1053,-232 978.4561,-213.9857 894.2833,-183.0821 846.8378,-164.6436"/>
<polygon fill="#191970" stroke="#191970" points="1303.5577,-277.5148 1313.8918,-275.1787 1304.3564,-270.5605 1303.5577,-277.5148"/>
</g>
<!-- Node88 -->
<g id="node19" class="node">
<title>Node88</title>
<g id="a_node19"><a xlink:href="TLeafElement_8h.html" target="_top" xlink:title="tree/tree/inc/TLeafElement.h">
<polygon fill="#ffffff" stroke="#000000" points="1132.5,-207 1132.5,-226 1287.5,-226 1287.5,-207 1132.5,-207"/>
<text text-anchor="middle" x="1210" y="-214" font-family="Helvetica,sans-Serif" font-size="10.00" fill="#000000">tree/tree/inc/TLeafElement.h</text>
</a>
</g>
</g>
<!-- Node77&#45;&gt;Node88 -->
<g id="edge18" class="edge">
<title>Node77&#45;&gt;Node88</title>
<path fill="none" stroke="#191970" d="M1361.2866,-270.416C1324.7439,-257.3928 1269.5303,-237.7156 1236.8858,-226.0817"/>
<polygon fill="#191970" stroke="#191970" points="1360.4695,-273.8403 1371.0642,-273.9005 1362.8195,-267.2466 1360.4695,-273.8403"/>
</g>
<!-- Node95 -->
<g id="node26" class="node">
<title>Node95</title>
<g id="a_node26"><a xlink:href="TTreeFormula_8cxx.html" target="_top" xlink:title="tree/treeplayer/src\l/TTreeFormula.cxx">
<polygon fill="#ffffff" stroke="#000000" points="1590.5,-.5 1590.5,-30.5 1697.5,-30.5 1697.5,-.5 1590.5,-.5"/>
<text text-anchor="start" x="1598.5" y="-18.5" font-family="Helvetica,sans-Serif" font-size="10.00" fill="#000000">tree/treeplayer/src</text>
<text text-anchor="middle" x="1644" y="-7.5" font-family="Helvetica,sans-Serif" font-size="10.00" fill="#000000">/TTreeFormula.cxx</text>
</a>
</g>
</g>
<!-- Node77&#45;&gt;Node95 -->
<g id="edge42" class="edge">
<title>Node77&#45;&gt;Node95</title>
<path fill="none" stroke="#191970" d="M1372.7094,-268.2948C1347.2632,-251.1732 1314.5056,-222.8875 1335,-201 1418.2623,-112.0778 1786.2436,-240.3024 1882,-165 1917.0144,-137.4648 1931.2598,-101.4323 1903,-67 1877.5503,-35.9916 1765.8643,-23.3116 1697.7359,-18.3918"/>
<polygon fill="#191970" stroke="#191970" points="1371.0086,-271.3631 1381.3059,-273.8565 1374.8111,-265.4858 1371.0086,-271.3631"/>
</g>
<!-- Node98 -->
<g id="node29" class="node">
<title>Node98</title>
<g id="a_node29"><a xlink:href="TTreeProxyGenerator_8cxx.html" target="_top" xlink:title="tree/treeplayer/src\l/TTreeProxyGenerator.cxx">
<polygon fill="#ffffff" stroke="#000000" points="1752,-67.5 1752,-97.5 1894,-97.5 1894,-67.5 1752,-67.5"/>
<text text-anchor="start" x="1760" y="-85.5" font-family="Helvetica,sans-Serif" font-size="10.00" fill="#000000">tree/treeplayer/src</text>
<text text-anchor="middle" x="1823" y="-74.5" font-family="Helvetica,sans-Serif" font-size="10.00" fill="#000000">/TTreeProxyGenerator.cxx</text>
</a>
</g>
</g>
<!-- Node77&#45;&gt;Node98 -->
<g id="edge45" class="edge">
<title>Node77&#45;&gt;Node98</title>
<path fill="none" stroke="#191970" d="M1492.2655,-281.6127C1793.6482,-275.3579 2715.4182,-254.4278 2737,-232 2856.9899,-107.3063 2129.0213,-86.6093 1894.2253,-83.1797"/>
<polygon fill="#191970" stroke="#191970" points="1492.1639,-278.114 1482.2385,-281.8201 1492.3087,-285.1125 1492.1639,-278.114"/>
</g>
<!-- Node100 -->
<g id="node31" class="node">
<title>Node100</title>
<g id="a_node31"><a xlink:href="TBranchBrowsable_8cxx.html" target="_top" xlink:title="tree/tree/src/TBranchBrowsable.cxx">
<polygon fill="#ffffff" stroke="#000000" points="1599,-207 1599,-226 1789,-226 1789,-207 1599,-207"/>
<text text-anchor="middle" x="1694" y="-214" font-family="Helvetica,sans-Serif" font-size="10.00" fill="#000000">tree/tree/src/TBranchBrowsable.cxx</text>
</a>
</g>
</g>
<!-- Node77&#45;&gt;Node100 -->
<g id="edge35" class="edge">
<title>Node77&#45;&gt;Node100</title>
<path fill="none" stroke="#191970" d="M1450.0379,-271.7211C1507.3495,-258.7486 1598.4109,-238.1367 1651.5707,-226.1039"/>
<polygon fill="#191970" stroke="#191970" points="1449.0758,-268.3503 1440.0952,-273.9717 1450.6212,-275.1776 1449.0758,-268.3503"/>
</g>
<!-- Node101 -->
<g id="node32" class="node">
<title>Node101</title>
<g id="a_node32"><a xlink:href="TTreeCache_8cxx.html" target="_top" xlink:title="tree/tree/src/TTreeCache.cxx">
<polygon fill="#ffffff" stroke="#000000" points="1807.5,-207 1807.5,-226 1962.5,-226 1962.5,-207 1807.5,-207"/>
<text text-anchor="middle" x="1885" y="-214" font-family="Helvetica,sans-Serif" font-size="10.00" fill="#000000">tree/tree/src/TTreeCache.cxx</text>
</a>
</g>
</g>
<!-- Node77&#45;&gt;Node101 -->
<g id="edge39" class="edge">
<title>Node77&#45;&gt;Node101</title>
<path fill="none" stroke="#191970" d="M1491.4812,-272.758C1572.661,-263.1208 1693.3016,-248.057 1798,-232 1809.6768,-230.2092 1822.2001,-228.0934 1834.0043,-226.0101"/>
<polygon fill="#191970" stroke="#191970" points="1490.8053,-269.3134 1481.2859,-273.9644 1491.6279,-276.2649 1490.8053,-269.3134"/>
</g>
<!-- Node102 -->
<g id="node33" class="node">
<title>Node102</title>
<g id="a_node33"><a xlink:href="TTreeCloner_8cxx.html" target="_top" xlink:title="tree/tree/src/TTreeCloner.cxx">
<polygon fill="#ffffff" stroke="#000000" points="1981,-207 1981,-226 2137,-226 2137,-207 1981,-207"/>
<text text-anchor="middle" x="2059" y="-214" font-family="Helvetica,sans-Serif" font-size="10.00" fill="#000000">tree/tree/src/TTreeCloner.cxx</text>
</a>
</g>
</g>
<!-- Node77&#45;&gt;Node102 -->
<g id="edge40" class="edge">
<title>Node77&#45;&gt;Node102</title>
<path fill="none" stroke="#191970" d="M1492.3051,-277.4837C1606.088,-269.6578 1803.0467,-254.2982 1971,-232 1983.4562,-230.3463 1996.8399,-228.1873 2009.3171,-226.0083"/>
<polygon fill="#191970" stroke="#191970" points="1491.9714,-273.9983 1482.2332,-278.1717 1492.4485,-280.982 1491.9714,-273.9983"/>
</g>
<!-- Node103 -->
<g id="node34" class="node">
<title>Node103</title>
<g id="a_node34"><a xlink:href="TBranchProxy_8cxx.html" target="_top" xlink:title="tree/treeplayer/src\l/TBranchProxy.cxx">
<polygon fill="#ffffff" stroke="#000000" points="2155.5,-201.5 2155.5,-231.5 2262.5,-231.5 2262.5,-201.5 2155.5,-201.5"/>
<text text-anchor="start" x="2163.5" y="-219.5" font-family="Helvetica,sans-Serif" font-size="10.00" fill="#000000">tree/treeplayer/src</text>
<text text-anchor="middle" x="2209" y="-208.5" font-family="Helvetica,sans-Serif" font-size="10.00" fill="#000000">/TBranchProxy.cxx</text>
</a>
</g>
</g>
<!-- Node77&#45;&gt;Node103 -->
<g id="edge41" class="edge">
<title>Node77&#45;&gt;Node103</title>
<path fill="none" stroke="#191970" d="M1492.1115,-282.2148C1634.4688,-279.1021 1912.7092,-268.4503 2146,-232 2149.0047,-231.5305 2152.0765,-230.9877 2155.1676,-230.3921"/>
<polygon fill="#191970" stroke="#191970" points="1492.0229,-278.7158 1482.099,-282.4262 1492.1707,-285.7143 1492.0229,-278.7158"/>
</g>
<!-- Node104 -->
<g id="node35" class="node">
<title>Node104</title>
<g id="a_node35"><a xlink:href="TTreeGeneratorBase_8cxx.html" target="_top" xlink:title="tree/treeplayer/src\l/TTreeGeneratorBase.cxx">
<polygon fill="#ffffff" stroke="#000000" points="2280.5,-201.5 2280.5,-231.5 2419.5,-231.5 2419.5,-201.5 2280.5,-201.5"/>
<text text-anchor="start" x="2288.5" y="-219.5" font-family="Helvetica,sans-Serif" font-size="10.00" fill="#000000">tree/treeplayer/src</text>
<text text-anchor="middle" x="2350" y="-208.5" font-family="Helvetica,sans-Serif" font-size="10.00" fill="#000000">/TTreeGeneratorBase.cxx</text>
</a>
</g>
</g>
<!-- Node77&#45;&gt;Node104 -->
<g id="edge43" class="edge">
<title>Node77&#45;&gt;Node104</title>
<path fill="none" stroke="#191970" d="M1492.3279,-282.0966C1652.8455,-278.7797 1989.1355,-267.7993 2271,-232 2274.0504,-231.6126 2277.1599,-231.1773 2280.2959,-230.7052"/>
<polygon fill="#191970" stroke="#191970" points="1491.9391,-278.6036 1482.0115,-282.3042 1492.0799,-285.6022 1491.9391,-278.6036"/>
</g>
<!-- Node105 -->
<g id="node36" class="node">
<title>Node105</title>
<g id="a_node36"><a xlink:href="TTreePlayer_8cxx.html" target="_top" xlink:title="tree/treeplayer/src\l/TTreePlayer.cxx">
<polygon fill="#ffffff" stroke="#000000" points="2437.5,-201.5 2437.5,-231.5 2544.5,-231.5 2544.5,-201.5 2437.5,-201.5"/>
<text text-anchor="start" x="2445.5" y="-219.5" font-family="Helvetica,sans-Serif" font-size="10.00" fill="#000000">tree/treeplayer/src</text>
<text text-anchor="middle" x="2491" y="-208.5" font-family="Helvetica,sans-Serif" font-size="10.00" fill="#000000">/TTreePlayer.cxx</text>
</a>
</g>
</g>
<!-- Node77&#45;&gt;Node105 -->
<g id="edge44" class="edge">
<title>Node77&#45;&gt;Node105</title>
<path fill="none" stroke="#191970" d="M1492.2294,-281.1456C1711.3157,-275.2905 2249.9175,-258.5977 2429,-232 2431.7437,-231.5925 2434.5428,-231.1168 2437.3603,-230.59"/>
<polygon fill="#191970" stroke="#191970" points="1491.9445,-277.6519 1482.041,-281.4163 1492.1304,-284.6494 1491.9445,-277.6519"/>
</g>
<!-- Node106 -->
<g id="node37" class="node">
<title>Node106</title>
<g id="a_node37"><a xlink:href="TTreeReaderGenerator_8cxx.html" target="_top" xlink:title="tree/treeplayer/src\l/TTreeReaderGenerator.cxx">
<polygon fill="#ffffff" stroke="#000000" points="2563,-201.5 2563,-231.5 2711,-231.5 2711,-201.5 2563,-201.5"/>
<text text-anchor="start" x="2571" y="-219.5" font-family="Helvetica,sans-Serif" font-size="10.00" fill="#000000">tree/treeplayer/src</text>
<text text-anchor="middle" x="2637" y="-208.5" font-family="Helvetica,sans-Serif" font-size="10.00" fill="#000000">/TTreeReaderGenerator.cxx</text>
</a>
</g>
</g>
<!-- Node77&#45;&gt;Node106 -->
<g id="edge47" class="edge">
<title>Node77&#45;&gt;Node106</title>
<path fill="none" stroke="#191970" d="M1492.3824,-281.0025C1730.1342,-274.4365 2349.2566,-255.5607 2554,-232 2556.9125,-231.6648 2559.8766,-231.2874 2562.8663,-230.8765"/>
<polygon fill="#191970" stroke="#191970" points="1492.2759,-277.504 1482.376,-281.2778 1492.4685,-284.5014 1492.2759,-277.504"/>
</g>
<!-- Node81&#45;&gt;Node82 -->
<g id="edge12" class="edge">
<title>Node81&#45;&gt;Node82</title>
<path fill="none" stroke="#191970" d="M844.3464,-203.416C879.5285,-190.3928 932.6862,-170.7156 964.1152,-159.0817"/>
<polygon fill="#191970" stroke="#191970" points="843.096,-200.1467 834.9329,-206.9005 845.526,-206.7114 843.096,-200.1467"/>
</g>
<!-- Node81&#45;&gt;Node83 -->
<g id="edge13" class="edge">
<title>Node81&#45;&gt;Node83</title>
<path fill="none" stroke="#191970" d="M726.007,-205.9061C650.7297,-196.0769 536.7592,-180.6462 438,-165 426.4837,-163.1755 414.1375,-161.0682 402.4691,-159.0068"/>
<polygon fill="#191970" stroke="#191970" points="725.9983,-209.4345 736.3666,-207.2553 726.9024,-202.4931 725.9983,-209.4345"/>
</g>
<!-- Node81&#45;&gt;Node84 -->
<g id="edge14" class="edge">
<title>Node81&#45;&gt;Node84</title>
<path fill="none" stroke="#191970" d="M873.2453,-205.1964C929.8608,-195.1029 1014.5272,-179.6863 1088,-165 1097.2784,-163.1454 1107.2088,-161.0678 1116.639,-159.0512"/>
<polygon fill="#191970" stroke="#191970" points="872.5914,-201.7577 863.3593,-206.9556 873.8179,-208.6494 872.5914,-201.7577"/>
</g>
<!-- Node81&#45;&gt;Node85 -->
<g id="edge15" class="edge">
<title>Node81&#45;&gt;Node85</title>
<path fill="none" stroke="#191970" d="M756.598,-204.7577C705.333,-193.2703 627.222,-175.7671 572.6902,-163.5476"/>
<polygon fill="#191970" stroke="#191970" points="755.9548,-208.2003 766.4781,-206.9717 757.4854,-201.3697 755.9548,-208.2003"/>
</g>
<!-- Node81&#45;&gt;Node86 -->
<g id="edge16" class="edge">
<title>Node81&#45;&gt;Node86</title>
<path fill="none" stroke="#191970" d="M777.4824,-202.8763C751.724,-191.742 715.3499,-176.019 688.7518,-164.5218"/>
<polygon fill="#191970" stroke="#191970" points="776.2244,-206.1454 786.7923,-206.9005 779.0019,-199.72 776.2244,-206.1454"/>
</g>
<!-- Node81&#45;&gt;Node87 -->
<g id="edge17" class="edge">
<title>Node81&#45;&gt;Node87</title>
<path fill="none" stroke="#191970" d="M809,-196.7758C809,-186.4641 809,-174.0437 809,-164.5218"/>
<polygon fill="#191970" stroke="#191970" points="805.5001,-196.9005 809,-206.9005 812.5001,-196.9006 805.5001,-196.9005"/>
</g>
<!-- Node88&#45;&gt;Node78 -->
<g id="edge19" class="edge">
<title>Node88&#45;&gt;Node78</title>
<path fill="none" stroke="#191970" d="M1271.8765,-205.3281C1281.9248,-203.7293 1292.2357,-202.217 1302,-201 1498.0212,-176.5683 1549.5394,-193.5728 1745,-165 1750.769,-164.1567 1756.7654,-163.1309 1762.7311,-162.0129"/>
<polygon fill="#191970" stroke="#191970" points="1271.2518,-201.8837 1261.9458,-206.9481 1272.3789,-208.7924 1271.2518,-201.8837"/>
</g>
<!-- Node88&#45;&gt;Node82 -->
<g id="edge20" class="edge">
<title>Node88&#45;&gt;Node82</title>
<path fill="none" stroke="#191970" d="M1168.6714,-203.9136C1125.9358,-190.8986 1060.1529,-170.8647 1021.4622,-159.0817"/>
<polygon fill="#191970" stroke="#191970" points="1167.8935,-207.3353 1178.4794,-206.9005 1169.9328,-200.6389 1167.8935,-207.3353"/>
</g>
<!-- Node88&#45;&gt;Node84 -->
<g id="edge22" class="edge">
<title>Node88&#45;&gt;Node84</title>
<path fill="none" stroke="#191970" d="M1196.8273,-198.8486C1187.3279,-186.1194 1174.8679,-169.4229 1167.1505,-159.0817"/>
<polygon fill="#191970" stroke="#191970" points="1194.0503,-200.9795 1202.8362,-206.9005 1199.6604,-196.7929 1194.0503,-200.9795"/>
</g>
<!-- Node89 -->
<g id="node20" class="node">
<title>Node89</title>
<g id="a_node20"><a xlink:href="TLeafElement_8cxx.html" target="_top" xlink:title="tree/tree/src/TLeafElement.cxx">
<polygon fill="#ffffff" stroke="#000000" points="1240.5,-140 1240.5,-159 1407.5,-159 1407.5,-140 1240.5,-140"/>
<text text-anchor="middle" x="1324" y="-147" font-family="Helvetica,sans-Serif" font-size="10.00" fill="#000000">tree/tree/src/TLeafElement.cxx</text>
</a>
</g>
</g>
<!-- Node88&#45;&gt;Node89 -->
<g id="edge21" class="edge">
<title>Node88&#45;&gt;Node89</title>
<path fill="none" stroke="#191970" d="M1235.1633,-201.711C1257.2579,-188.7256 1288.7478,-170.2184 1307.6969,-159.0817"/>
<polygon fill="#191970" stroke="#191970" points="1233.1813,-198.8161 1226.3334,-206.9005 1236.7282,-204.851 1233.1813,-198.8161"/>
</g>
<!-- Node90 -->
<g id="node21" class="node">
<title>Node90</title>
<g id="a_node21"><a xlink:href="TFormLeafInfo_8h.html" target="_top" xlink:title="tree/treeplayer/inc\l/TFormLeafInfo.h">
<polygon fill="#ffffff" stroke="#000000" points="1464.5,-134.5 1464.5,-164.5 1571.5,-164.5 1571.5,-134.5 1464.5,-134.5"/>
<text text-anchor="start" x="1472.5" y="-152.5" font-family="Helvetica,sans-Serif" font-size="10.00" fill="#000000">tree/treeplayer/inc</text>
<text text-anchor="middle" x="1518" y="-141.5" font-family="Helvetica,sans-Serif" font-size="10.00" fill="#000000">/TFormLeafInfo.h</text>
</a>
</g>
</g>
<!-- Node88&#45;&gt;Node90 -->
<g id="edge23" class="edge">
<title>Node88&#45;&gt;Node90</title>
<path fill="none" stroke="#191970" d="M1265.1628,-204.8714C1313.8354,-194.5612 1386.6813,-179.0094 1450,-165 1454.6108,-163.9799 1459.3949,-162.9108 1464.1925,-161.8314"/>
<polygon fill="#191970" stroke="#191970" points="1264.2141,-201.4945 1255.1556,-206.9894 1265.6637,-208.3428 1264.2141,-201.4945"/>
</g>
<!-- Node88&#45;&gt;Node95 -->
<g id="edge33" class="edge">
<title>Node88&#45;&gt;Node95</title>
<path fill="none" stroke="#191970" d="M1271.9677,-204.9872C1329.2837,-193.7112 1406.9577,-176.5812 1416,-165 1443.1168,-130.2695 1373.2602,-101.235 1401,-67 1412.8947,-52.3202 1522.3826,-33.6043 1590.2705,-23.2578"/>
<polygon fill="#191970" stroke="#191970" points="1271.0289,-201.6042 1261.8831,-206.9525 1272.368,-208.475 1271.0289,-201.6042"/>
</g>
<!-- Node99 -->
<g id="node30" class="node">
<title>Node99</title>
<g id="a_node30"><a xlink:href="TTreeFormulaManager_8cxx.html" target="_top" xlink:title="tree/treeplayer/src\l/TTreeFormulaManager.cxx">
<polygon fill="#ffffff" stroke="#000000" points="1589.5,-134.5 1589.5,-164.5 1736.5,-164.5 1736.5,-134.5 1589.5,-134.5"/>
<text text-anchor="start" x="1597.5" y="-152.5" font-family="Helvetica,sans-Serif" font-size="10.00" fill="#000000">tree/treeplayer/src</text>
<text text-anchor="middle" x="1663" y="-141.5" font-family="Helvetica,sans-Serif" font-size="10.00" fill="#000000">/TTreeFormulaManager.cxx</text>
</a>
</g>
</g>
<!-- Node88&#45;&gt;Node99 -->
<g id="edge34" class="edge">
<title>Node88&#45;&gt;Node99</title>
<path fill="none" stroke="#191970" d="M1274.3849,-205.3319C1283.6429,-203.8194 1293.0585,-202.3317 1302,-201 1425.2281,-182.6474 1456.9393,-184.443 1580,-165 1583.0406,-164.5196 1586.1409,-164.0137 1589.2707,-163.4897"/>
<polygon fill="#191970" stroke="#191970" points="1273.7264,-201.8932 1264.4308,-206.9766 1274.8676,-208.7995 1273.7264,-201.8932"/>
</g>
<!-- Node91 -->
<g id="node22" class="node">
<title>Node91</title>
<g id="a_node22"><a xlink:href="TFormLeafInfoReference_8h.html" target="_top" xlink:title="tree/treeplayer/inc\l/TFormLeafInfoReference.h">
<polygon fill="#ffffff" stroke="#000000" points="1206,-67.5 1206,-97.5 1354,-97.5 1354,-67.5 1206,-67.5"/>
<text text-anchor="start" x="1214" y="-85.5" font-family="Helvetica,sans-Serif" font-size="10.00" fill="#000000">tree/treeplayer/inc</text>
<text text-anchor="middle" x="1280" y="-74.5" font-family="Helvetica,sans-Serif" font-size="10.00" fill="#000000">/TFormLeafInfoReference.h</text>
</a>
</g>
</g>
<!-- Node90&#45;&gt;Node91 -->
<g id="edge24" class="edge">
<title>Node90&#45;&gt;Node91</title>
<path fill="none" stroke="#191970" d="M1454.7142,-131.6842C1416.9629,-121.0568 1369.5502,-107.7095 1333.6448,-97.6017"/>
<polygon fill="#191970" stroke="#191970" points="1454.0138,-135.1231 1464.5882,-134.4639 1455.9108,-128.385 1454.0138,-135.1231"/>
</g>
<!-- Node90&#45;&gt;Node95 -->
<g id="edge31" class="edge">
<title>Node90&#45;&gt;Node95</title>
<path fill="none" stroke="#191970" d="M1581.5752,-132.9506C1635.0092,-118.8943 1703.0249,-100.5926 1705,-98 1722.7033,-74.7621 1692.6898,-47.4397 1668.8313,-30.8029"/>
<polygon fill="#191970" stroke="#191970" points="1580.5698,-129.5959 1571.7868,-135.5211 1582.3478,-136.3663 1580.5698,-129.5959"/>
</g>
<!-- Node96 -->
<g id="node27" class="node">
<title>Node96</title>
<g id="a_node27"><a xlink:href="TBranchProxyDescriptor_8cxx.html" target="_top" xlink:title="tree/treeplayer/src\l/TBranchProxyDescriptor.cxx">
<polygon fill="#ffffff" stroke="#000000" points="1410.5,-67.5 1410.5,-97.5 1567.5,-97.5 1567.5,-67.5 1410.5,-67.5"/>
<text text-anchor="start" x="1418.5" y="-85.5" font-family="Helvetica,sans-Serif" font-size="10.00" fill="#000000">tree/treeplayer/src</text>
<text text-anchor="middle" x="1489" y="-74.5" font-family="Helvetica,sans-Serif" font-size="10.00" fill="#000000">/TBranchProxyDescriptor.cxx</text>
</a>
</g>
</g>
<!-- Node90&#45;&gt;Node96 -->
<g id="edge29" class="edge">
<title>Node90&#45;&gt;Node96</title>
<path fill="none" stroke="#191970" d="M1507.3532,-124.9021C1503.4003,-115.7696 1499.0355,-105.6854 1495.5545,-97.6432"/>
<polygon fill="#191970" stroke="#191970" points="1504.2351,-126.5097 1511.4195,-134.2967 1510.6592,-123.7291 1504.2351,-126.5097"/>
</g>
<!-- Node97 -->
<g id="node28" class="node">
<title>Node97</title>
<g id="a_node28"><a xlink:href="TFormLeafInfo_8cxx.html" target="_top" xlink:title="tree/treeplayer/src\l/TFormLeafInfo.cxx">
<polygon fill="#ffffff" stroke="#000000" points="1586,-67.5 1586,-97.5 1696,-97.5 1696,-67.5 1586,-67.5"/>
<text text-anchor="start" x="1594" y="-85.5" font-family="Helvetica,sans-Serif" font-size="10.00" fill="#000000">tree/treeplayer/src</text>
<text text-anchor="middle" x="1641" y="-74.5" font-family="Helvetica,sans-Serif" font-size="10.00" fill="#000000">/TFormLeafInfo.cxx</text>
</a>
</g>
</g>
<!-- Node90&#45;&gt;Node97 -->
<g id="edge30" class="edge">
<title>Node90&#45;&gt;Node97</title>
<path fill="none" stroke="#191970" d="M1554.4683,-129.6352C1573.2177,-119.422 1595.7099,-107.1702 1613.063,-97.7177"/>
<polygon fill="#191970" stroke="#191970" points="1552.711,-126.6067 1545.6036,-134.4639 1556.0595,-132.7539 1552.711,-126.6067"/>
</g>
<!-- Node90&#45;&gt;Node98 -->
<g id="edge32" class="edge">
<title>Node90&#45;&gt;Node98</title>
<path fill="none" stroke="#191970" d="M1581.7799,-133.6262C1644.2976,-119.2887 1705.8152,-106.337 1751.8753,-96.8682"/>
<polygon fill="#191970" stroke="#191970" points="1580.699,-130.2834 1571.7399,-135.9389 1582.2703,-137.1048 1580.699,-130.2834"/>
</g>
<!-- Node92 -->
<g id="node23" class="node">
<title>Node92</title>
<g id="a_node23"><a xlink:href="TFormLeafInfoReference_8cxx.html" target="_top" xlink:title="tree/treeplayer/src\l/TFormLeafInfoReference.cxx">
<polygon fill="#ffffff" stroke="#000000" points="1200.5,-.5 1200.5,-30.5 1359.5,-30.5 1359.5,-.5 1200.5,-.5"/>
<text text-anchor="start" x="1208.5" y="-18.5" font-family="Helvetica,sans-Serif" font-size="10.00" fill="#000000">tree/treeplayer/src</text>
<text text-anchor="middle" x="1280" y="-7.5" font-family="Helvetica,sans-Serif" font-size="10.00" fill="#000000">/TFormLeafInfoReference.cxx</text>
</a>
</g>
</g>
<!-- Node91&#45;&gt;Node92 -->
<g id="edge25" class="edge">
<title>Node91&#45;&gt;Node92</title>
<path fill="none" stroke="#191970" d="M1280,-57.0249C1280,-48.128 1280,-38.4287 1280,-30.6432"/>
<polygon fill="#191970" stroke="#191970" points="1276.5001,-57.2966 1280,-67.2967 1283.5001,-57.2967 1276.5001,-57.2966"/>
</g>
<!-- Node93 -->
<g id="node24" class="node">
<title>Node93</title>
<g id="a_node24"><a xlink:href="TRefArrayProxy_8cxx.html" target="_top" xlink:title="tree/treeplayer/src\l/TRefArrayProxy.cxx">
<polygon fill="#ffffff" stroke="#000000" points="1378,-.5 1378,-30.5 1492,-30.5 1492,-.5 1378,-.5"/>
<text text-anchor="start" x="1386" y="-18.5" font-family="Helvetica,sans-Serif" font-size="10.00" fill="#000000">tree/treeplayer/src</text>
<text text-anchor="middle" x="1435" y="-7.5" font-family="Helvetica,sans-Serif" font-size="10.00" fill="#000000">/TRefArrayProxy.cxx</text>
</a>
</g>
</g>
<!-- Node91&#45;&gt;Node93 -->
<g id="edge26" class="edge">
<title>Node91&#45;&gt;Node93</title>
<path fill="none" stroke="#191970" d="M1324.0672,-63.4516C1348.1556,-53.0392 1377.575,-40.3224 1400.0633,-30.6017"/>
<polygon fill="#191970" stroke="#191970" points="1322.5754,-60.2834 1314.785,-67.4639 1325.3529,-66.7088 1322.5754,-60.2834"/>
</g>
<!-- Node94 -->
<g id="node25" class="node">
<title>Node94</title>
<g id="a_node25"><a xlink:href="TRefProxy_8cxx.html" target="_top" xlink:title="tree/treeplayer/src\l/TRefProxy.cxx">
<polygon fill="#ffffff" stroke="#000000" points="1075.5,-.5 1075.5,-30.5 1182.5,-30.5 1182.5,-.5 1075.5,-.5"/>
<text text-anchor="start" x="1083.5" y="-18.5" font-family="Helvetica,sans-Serif" font-size="10.00" fill="#000000">tree/treeplayer/src</text>
<text text-anchor="middle" x="1129" y="-7.5" font-family="Helvetica,sans-Serif" font-size="10.00" fill="#000000">/TRefProxy.cxx</text>
</a>
</g>
</g>
<!-- Node91&#45;&gt;Node94 -->
<g id="edge27" class="edge">
<title>Node91&#45;&gt;Node94</title>
<path fill="none" stroke="#191970" d="M1236.7582,-63.3132C1213.3497,-52.9267 1184.8461,-40.2794 1163.0351,-30.6017"/>
<polygon fill="#191970" stroke="#191970" points="1235.5525,-66.6073 1246.1127,-67.4639 1238.3916,-60.2089 1235.5525,-66.6073"/>
</g>
<!-- Node91&#45;&gt;Node95 -->
<g id="edge28" class="edge">
<title>Node91&#45;&gt;Node95</title>
<path fill="none" stroke="#191970" d="M1364.1782,-67.0057C1433.88,-54.1759 1530.8165,-36.3332 1590.3781,-25.37"/>
<polygon fill="#191970" stroke="#191970" points="1363.3007,-63.6083 1354.0996,-68.8608 1364.568,-70.4926 1363.3007,-63.6083"/>
</g>
</g>
</svg>
        <g id="navigator" transform="translate(0 0)" fill="#404254">
                <rect fill="#f2f5e9" fill-opacity="0.5" stroke="#606060" stroke-width=".5" x="0" y="0" width="60" height="60"/>
                <use id="zoomplus" xlink:href="#zoomPlus" x="17" y="9" onmousedown="handleZoom(evt,'in')"/>
                <use id="zoomminus" xlink:href="#zoomMin" x="42" y="9" onmousedown="handleZoom(evt,'out')"/>
                <use id="reset" xlink:href="#resetDef" x="30" y="36" onmousedown="handleReset()"/>
                <g id="arrowUp" xlink:href="#dirArrow" transform="translate(30 24)" onmousedown="handlePan(0,-1)">
                  <use xlink:href="#rim" fill="#404040">
                        <set attributeName="fill" to="#808080" begin="arrowUp.mouseover" end="arrowUp.mouseout"/>
                  </use>
                  <path fill="none" stroke="white" stroke-width="1.5" d="M0,-3.0v7 M-2.5,-0.5L0,-3.0L2.5,-0.5"/>
                </g>
                <g id="arrowRight" xlink:href="#dirArrow" transform="rotate(90) translate(36 -43)" onmousedown="handlePan(1,0)">
                  <use xlink:href="#rim" fill="#404040">
                        <set attributeName="fill" to="#808080" begin="arrowRight.mouseover" end="arrowRight.mouseout"/>
                  </use>
                  <path fill="none" stroke="white" stroke-width="1.5" d="M0,-3.0v7 M-2.5,-0.5L0,-3.0L2.5,-0.5"/>
                </g>
                <g id="arrowDown" xlink:href="#dirArrow" transform="rotate(180) translate(-30 -48)" onmousedown="handlePan(0,1)">
                  <use xlink:href="#rim" fill="#404040">
                        <set attributeName="fill" to="#808080" begin="arrowDown.mouseover" end="arrowDown.mouseout"/>
                  </use>
                  <path fill="none" stroke="white" stroke-width="1.5" d="M0,-3.0v7 M-2.5,-0.5L0,-3.0L2.5,-0.5"/>
                </g>
                <g id="arrowLeft" xlink:href="#dirArrow" transform="rotate(270) translate(-36 17)" onmousedown="handlePan(-1,0)">
                  <use xlink:href="#rim" fill="#404040">
                        <set attributeName="fill" to="#808080" begin="arrowLeft.mouseover" end="arrowLeft.mouseout"/>
                  </use>
                  <path fill="none" stroke="white" stroke-width="1.5" d="M0,-3.0v7 M-2.5,-0.5L0,-3.0L2.5,-0.5"/>
                </g>
        </g>
        <svg viewBox="0 0 15 15" width="100%" height="30px" preserveAspectRatio="xMaxYMin meet">
         <g id="arrow_out" transform="scale(0.3 0.3)">
          <a xlink:href="TStreamerInfoActions_8h__dep__incl_org.svg" target="_base">
           <rect id="button" ry="5" rx="5" y="6" x="6" height="38" width="38"
                fill="#f2f5e9" fill-opacity="0.5" stroke="#606060" stroke-width="1.0"/>
           <path id="arrow"
             d="M 11.500037,31.436501 C 11.940474,20.09759 22.043105,11.32322 32.158766,21.979434 L 37.068811,17.246167 C 37.068811,17.246167 37.088388,32 37.088388,32 L 22.160133,31.978069 C 22.160133,31.978069 26.997745,27.140456 26.997745,27.140456 C 18.528582,18.264221 13.291696,25.230495 11.500037,31.436501 z"
             style="fill:#404040;"/>
          </a>
         </g>
        </svg>
</svg>
