<?xml version="1.0" encoding="UTF-8" standalone="no"?>
<!DOCTYPE svg PUBLIC "-//W3C//DTD SVG 1.1//EN"
 "http://www.w3.org/Graphics/SVG/1.1/DTD/svg11.dtd">
<!-- Generated by graphviz version 2.40.1 (0)
 -->
<!-- Title: tree/tree/inc/TTreeSQL.h Pages: 1 -->
<svg width="328pt" height="84pt"
 viewBox="0.00 0.00 328.00 84.00" xmlns="http://www.w3.org/2000/svg" xmlns:xlink="http://www.w3.org/1999/xlink">
<g id="graph0" class="graph" transform="scale(1 1) rotate(0) translate(4 80)">
<title>tree/tree/inc/TTreeSQL.h</title>
<polygon fill="#ffffff" stroke="transparent" points="-4,4 -4,-80 324,-80 324,4 -4,4"/>
<!-- Node87 -->
<g id="node1" class="node">
<title>Node87</title>
<polygon fill="#bfbfbf" stroke="#000000" points="96.5,-56.5 96.5,-75.5 229.5,-75.5 229.5,-56.5 96.5,-56.5"/>
<text text-anchor="middle" x="163" y="-63.5" font-family="Helvetica,sans-Serif" font-size="10.00" fill="#000000">tree/tree/inc/TTreeSQL.h</text>
</g>
<!-- Node88 -->
<g id="node2" class="node">
<title>Node88</title>
<g id="a_node2"><a xlink:href="TBasketSQL_8cxx.html" target="_top" xlink:title="tree/tree/src/TBasketSQL.cxx">
<polygon fill="#ffffff" stroke="#000000" points="0,-.5 0,-19.5 158,-19.5 158,-.5 0,-.5"/>
<text text-anchor="middle" x="79" y="-7.5" font-family="Helvetica,sans-Serif" font-size="10.00" fill="#000000">tree/tree/src/TBasketSQL.cxx</text>
</a>
</g>
</g>
<!-- Node87&#45;&gt;Node88 -->
<g id="edge1" class="edge">
<title>Node87&#45;&gt;Node88</title>
<path fill="none" stroke="#191970" d="M139.7351,-50.49C124.9144,-40.6096 106.1791,-28.1194 93.464,-19.6427"/>
<polygon fill="#191970" stroke="#191970" points="138.1063,-53.6107 148.3683,-56.2455 141.9893,-47.7863 138.1063,-53.6107"/>
</g>
<!-- Node89 -->
<g id="node3" class="node">
<title>Node89</title>
<g id="a_node3"><a xlink:href="TTreeSQL_8cxx.html" target="_top" xlink:title="tree/tree/src/TTreeSQL.cxx">
<polygon fill="#ffffff" stroke="#000000" points="176,-.5 176,-19.5 320,-19.5 320,-.5 176,-.5"/>
<text text-anchor="middle" x="248" y="-7.5" font-family="Helvetica,sans-Serif" font-size="10.00" fill="#000000">tree/tree/src/TTreeSQL.cxx</text>
</a>
</g>
</g>
<!-- Node87&#45;&gt;Node89 -->
<g id="edge2" class="edge">
<title>Node87&#45;&gt;Node89</title>
<path fill="none" stroke="#191970" d="M186.5419,-50.49C201.539,-40.6096 220.4973,-28.1194 233.3638,-19.6427"/>
<polygon fill="#191970" stroke="#191970" points="184.2309,-47.8212 177.8059,-56.2455 188.0821,-53.6666 184.2309,-47.8212"/>
</g>
</g>
</svg>
