<?xml version="1.0" encoding="UTF-8" standalone="no"?>
<!DOCTYPE svg PUBLIC "-//W3C//DTD SVG 1.1//EN"
 "http://www.w3.org/Graphics/SVG/1.1/DTD/svg11.dtd">
<!-- Generated by graphviz version 2.40.1 (0)
 -->
<!-- Title: tree/treeplayer/inc/TTreeReaderGenerator.h Pages: 1 -->
<svg width="282pt" height="106pt"
 viewBox="0.00 0.00 281.50 106.00" xmlns="http://www.w3.org/2000/svg" xmlns:xlink="http://www.w3.org/1999/xlink">
<g id="graph0" class="graph" transform="scale(1 1) rotate(0) translate(4 102)">
<title>tree/treeplayer/inc/TTreeReaderGenerator.h</title>
<polygon fill="#ffffff" stroke="transparent" points="-4,4 -4,-102 277.5,-102 277.5,4 -4,4"/>
<!-- Node54 -->
<g id="node1" class="node">
<title>Node54</title>
<polygon fill="#bfbfbf" stroke="#000000" points="58,-67.5 58,-97.5 195,-97.5 195,-67.5 58,-67.5"/>
<text text-anchor="start" x="66" y="-85.5" font-family="Helvetica,sans-Serif" font-size="10.00" fill="#000000">tree/treeplayer/inc</text>
<text text-anchor="middle" x="126.5" y="-74.5" font-family="Helvetica,sans-Serif" font-size="10.00" fill="#000000">/TTreeReaderGenerator.h</text>
</g>
<!-- Node55 -->
<g id="node2" class="node">
<title>Node55</title>
<g id="a_node2"><a xlink:href="TTreePlayer_8cxx.html" target="_top" xlink:title="tree/treeplayer/src\l/TTreePlayer.cxx">
<polygon fill="#ffffff" stroke="#000000" points="0,-.5 0,-30.5 107,-30.5 107,-.5 0,-.5"/>
<text text-anchor="start" x="8" y="-18.5" font-family="Helvetica,sans-Serif" font-size="10.00" fill="#000000">tree/treeplayer/src</text>
<text text-anchor="middle" x="53.5" y="-7.5" font-family="Helvetica,sans-Serif" font-size="10.00" fill="#000000">/TTreePlayer.cxx</text>
</a>
</g>
</g>
<!-- Node54&#45;&gt;Node55 -->
<g id="edge1" class="edge">
<title>Node54&#45;&gt;Node55</title>
<path fill="none" stroke="#191970" d="M102.526,-60.4965C91.8733,-50.7193 79.6007,-39.4554 69.9993,-30.6432"/>
<polygon fill="#191970" stroke="#191970" points="100.2011,-63.1134 109.9352,-67.2967 104.9344,-57.9562 100.2011,-63.1134"/>
</g>
<!-- Node56 -->
<g id="node3" class="node">
<title>Node56</title>
<g id="a_node3"><a xlink:href="TTreeReaderGenerator_8cxx.html" target="_top" xlink:title="tree/treeplayer/src\l/TTreeReaderGenerator.cxx">
<polygon fill="#ffffff" stroke="#000000" points="125.5,-.5 125.5,-30.5 273.5,-30.5 273.5,-.5 125.5,-.5"/>
<text text-anchor="start" x="133.5" y="-18.5" font-family="Helvetica,sans-Serif" font-size="10.00" fill="#000000">tree/treeplayer/src</text>
<text text-anchor="middle" x="199.5" y="-7.5" font-family="Helvetica,sans-Serif" font-size="10.00" fill="#000000">/TTreeReaderGenerator.cxx</text>
</a>
</g>
</g>
<!-- Node54&#45;&gt;Node56 -->
<g id="edge2" class="edge">
<title>Node54&#45;&gt;Node56</title>
<path fill="none" stroke="#191970" d="M150.474,-60.4965C161.1267,-50.7193 173.3993,-39.4554 183.0007,-30.6432"/>
<polygon fill="#191970" stroke="#191970" points="148.0656,-57.9562 143.0648,-67.2967 152.7989,-63.1134 148.0656,-57.9562"/>
</g>
</g>
</svg>
