<?xml version="1.0" encoding="UTF-8" standalone="no"?>
<!DOCTYPE svg PUBLIC "-//W3C//DTD SVG 1.1//EN"
 "http://www.w3.org/Graphics/SVG/1.1/DTD/svg11.dtd">
<!-- Generated by graphviz version 2.40.1 (0)
 -->
<!-- Title: tree/treeviewer/inc/TTVSession.h Pages: 1 -->
<svg width="244pt" height="106pt"
 viewBox="0.00 0.00 244.00 106.00" xmlns="http://www.w3.org/2000/svg" xmlns:xlink="http://www.w3.org/1999/xlink">
<g id="graph0" class="graph" transform="scale(1 1) rotate(0) translate(4 102)">
<title>tree/treeviewer/inc/TTVSession.h</title>
<polygon fill="#ffffff" stroke="transparent" points="-4,4 -4,-102 240,-102 240,4 -4,4"/>
<!-- Node78 -->
<g id="node1" class="node">
<title>Node78</title>
<polygon fill="#bfbfbf" stroke="#000000" points="63,-67.5 63,-97.5 172,-97.5 172,-67.5 63,-67.5"/>
<text text-anchor="start" x="71" y="-85.5" font-family="Helvetica,sans-Serif" font-size="10.00" fill="#000000">tree/treeviewer/inc</text>
<text text-anchor="middle" x="117.5" y="-74.5" font-family="Helvetica,sans-Serif" font-size="10.00" fill="#000000">/TTVSession.h</text>
</g>
<!-- Node79 -->
<g id="node2" class="node">
<title>Node79</title>
<g id="a_node2"><a xlink:href="TTreeViewer_8cxx.html" target="_top" xlink:title="tree/treeviewer/src\l/TTreeViewer.cxx">
<polygon fill="#ffffff" stroke="#000000" points="0,-.5 0,-30.5 109,-30.5 109,-.5 0,-.5"/>
<text text-anchor="start" x="8" y="-18.5" font-family="Helvetica,sans-Serif" font-size="10.00" fill="#000000">tree/treeviewer/src</text>
<text text-anchor="middle" x="54.5" y="-7.5" font-family="Helvetica,sans-Serif" font-size="10.00" fill="#000000">/TTreeViewer.cxx</text>
</a>
</g>
</g>
<!-- Node78&#45;&gt;Node79 -->
<g id="edge1" class="edge">
<title>Node78&#45;&gt;Node79</title>
<path fill="none" stroke="#191970" d="M96.273,-59.9253C87.2062,-50.2828 76.8643,-39.2843 68.7391,-30.6432"/>
<polygon fill="#191970" stroke="#191970" points="93.8042,-62.409 103.2043,-67.2967 98.9039,-57.6138 93.8042,-62.409"/>
</g>
<!-- Node80 -->
<g id="node3" class="node">
<title>Node80</title>
<g id="a_node3"><a xlink:href="TTVSession_8cxx.html" target="_top" xlink:title="tree/treeviewer/src\l/TTVSession.cxx">
<polygon fill="#ffffff" stroke="#000000" points="127,-.5 127,-30.5 236,-30.5 236,-.5 127,-.5"/>
<text text-anchor="start" x="135" y="-18.5" font-family="Helvetica,sans-Serif" font-size="10.00" fill="#000000">tree/treeviewer/src</text>
<text text-anchor="middle" x="181.5" y="-7.5" font-family="Helvetica,sans-Serif" font-size="10.00" fill="#000000">/TTVSession.cxx</text>
</a>
</g>
</g>
<!-- Node78&#45;&gt;Node80 -->
<g id="edge2" class="edge">
<title>Node78&#45;&gt;Node80</title>
<path fill="none" stroke="#191970" d="M139.0639,-59.9253C148.2746,-50.2828 158.7807,-39.2843 167.0349,-30.6432"/>
<polygon fill="#191970" stroke="#191970" points="136.399,-57.648 132.0226,-67.2967 141.4608,-62.4831 136.399,-57.648"/>
</g>
</g>
</svg>
