<?xml version="1.0" encoding="UTF-8" standalone="no"?>
<!DOCTYPE svg PUBLIC "-//W3C//DTD SVG 1.1//EN"
 "http://www.w3.org/Graphics/SVG/1.1/DTD/svg11.dtd">
<!-- Generated by graphviz version 2.40.1 (0)
 -->
<!-- Title: core/meta/src/TViewPubFunctions.h Pages: 1 -->
<svg width="364pt" height="84pt"
 viewBox="0.00 0.00 364.00 84.00" xmlns="http://www.w3.org/2000/svg" xmlns:xlink="http://www.w3.org/1999/xlink">
<g id="graph0" class="graph" transform="scale(1 1) rotate(0) translate(4 80)">
<title>core/meta/src/TViewPubFunctions.h</title>
<polygon fill="#ffffff" stroke="transparent" points="-4,4 -4,-80 360,-80 360,4 -4,4"/>
<!-- Node52 -->
<g id="node1" class="node">
<title>Node52</title>
<polygon fill="#bfbfbf" stroke="#000000" points="67.5,-56.5 67.5,-75.5 256.5,-75.5 256.5,-56.5 67.5,-56.5"/>
<text text-anchor="middle" x="162" y="-63.5" font-family="Helvetica,sans-Serif" font-size="10.00" fill="#000000">core/meta/src/TViewPubFunctions.h</text>
</g>
<!-- Node53 -->
<g id="node2" class="node">
<title>Node53</title>
<g id="a_node2"><a xlink:href="TClass_8cxx.html" target="_top" xlink:title="core/meta/src/TClass.cxx">
<polygon fill="#ffffff" stroke="#000000" points="0,-.5 0,-19.5 138,-19.5 138,-.5 0,-.5"/>
<text text-anchor="middle" x="69" y="-7.5" font-family="Helvetica,sans-Serif" font-size="10.00" fill="#000000">core/meta/src/TClass.cxx</text>
</a>
</g>
</g>
<!-- Node52&#45;&gt;Node53 -->
<g id="edge1" class="edge">
<title>Node52&#45;&gt;Node53</title>
<path fill="none" stroke="#191970" d="M137.1665,-51.0465C120.6189,-41.0824 99.3568,-28.2794 85.0137,-19.6427"/>
<polygon fill="#191970" stroke="#191970" points="135.4283,-54.0854 145.8006,-56.2455 139.0393,-48.0886 135.4283,-54.0854"/>
</g>
<!-- Node54 -->
<g id="node3" class="node">
<title>Node54</title>
<g id="a_node3"><a xlink:href="TViewPubFunctions_8cxx.html" target="_top" xlink:title="core/meta/src/TViewPubFunctions.cxx">
<polygon fill="#ffffff" stroke="#000000" points="156,-.5 156,-19.5 356,-19.5 356,-.5 156,-.5"/>
<text text-anchor="middle" x="256" y="-7.5" font-family="Helvetica,sans-Serif" font-size="10.00" fill="#000000">core/meta/src/TViewPubFunctions.cxx</text>
</a>
</g>
</g>
<!-- Node52&#45;&gt;Node54 -->
<g id="edge2" class="edge">
<title>Node52&#45;&gt;Node54</title>
<path fill="none" stroke="#191970" d="M187.1005,-51.0465C203.826,-41.0824 225.3168,-28.2794 239.8141,-19.6427"/>
<polygon fill="#191970" stroke="#191970" points="185.1732,-48.1206 178.3736,-56.2455 188.7559,-54.1343 185.1732,-48.1206"/>
</g>
</g>
</svg>
