<?xml version="1.0" encoding="UTF-8" standalone="no"?>
<!DOCTYPE svg PUBLIC "-//W3C//DTD SVG 1.1//EN"
 "http://www.w3.org/Graphics/SVG/1.1/DTD/svg11.dtd">
<!-- Generated by graphviz version 2.40.1 (0)
 -->
<!-- Title: io/xml/src/TXMLSetup.cxx Pages: 1 -->
<svg width="2434pt" height="991pt"
 viewBox="0.00 0.00 2434.50 991.00" xmlns="http://www.w3.org/2000/svg" xmlns:xlink="http://www.w3.org/1999/xlink">
<g id="graph0" class="graph" transform="scale(1 1) rotate(0) translate(4 987)">
<title>io/xml/src/TXMLSetup.cxx</title>
<polygon fill="#ffffff" stroke="transparent" points="-4,4 -4,-987 2430.4997,-987 2430.4997,4 -4,4"/>
<!-- Node0 -->
<g id="node1" class="node">
<title>Node0</title>
<polygon fill="#bfbfbf" stroke="#000000" points="1055.4997,-963.5 1055.4997,-982.5 1197.4997,-982.5 1197.4997,-963.5 1055.4997,-963.5"/>
<text text-anchor="middle" x="1126.4997" y="-970.5" font-family="Helvetica,sans-Serif" font-size="10.00" fill="#000000">io/xml/src/TXMLSetup.cxx</text>
</g>
<!-- Node1 -->
<g id="node2" class="node">
<title>Node1</title>
<g id="a_node2"><a xlink:href="TXMLSetup_8h.html" target="_top" xlink:title="TXMLSetup.h">
<polygon fill="#ffffff" stroke="#000000" points="698.4997,-459.5 698.4997,-478.5 778.4997,-478.5 778.4997,-459.5 698.4997,-459.5"/>
<text text-anchor="middle" x="738.4997" y="-466.5" font-family="Helvetica,sans-Serif" font-size="10.00" fill="#000000">TXMLSetup.h</text>
</a>
</g>
</g>
<!-- Node0&#45;&gt;Node1 -->
<g id="edge1" class="edge">
<title>Node0&#45;&gt;Node1</title>
<path fill="none" stroke="#191970" d="M1055.2354,-968.7368C880.046,-957.3069 442.4997,-922.5946 442.4997,-861 442.4997,-861 442.4997,-861 442.4997,-693 442.4997,-570.2284 606.4184,-506.1345 690.2912,-481.3751"/>
<polygon fill="#191970" stroke="#191970" points="691.465,-484.6794 700.1063,-478.5494 689.5283,-477.9526 691.465,-484.6794"/>
</g>
<!-- Node46 -->
<g id="node47" class="node">
<title>Node46</title>
<g id="a_node47"><a xlink:href="TROOT_8h.html" target="_top" xlink:title="TROOT.h">
<polygon fill="#ffffff" stroke="#000000" points="1251.4997,-907.5 1251.4997,-926.5 1309.4997,-926.5 1309.4997,-907.5 1251.4997,-907.5"/>
<text text-anchor="middle" x="1280.4997" y="-914.5" font-family="Helvetica,sans-Serif" font-size="10.00" fill="#000000">TROOT.h</text>
</a>
</g>
</g>
<!-- Node0&#45;&gt;Node46 -->
<g id="edge78" class="edge">
<title>Node0&#45;&gt;Node46</title>
<path fill="none" stroke="#191970" d="M1152.9733,-963.3733C1178.3594,-954.1419 1216.8642,-940.1402 1244.9217,-929.9375"/>
<polygon fill="#191970" stroke="#191970" points="1246.1698,-933.2079 1254.3716,-926.5011 1243.7776,-926.6293 1246.1698,-933.2079"/>
</g>
<!-- Node53 -->
<g id="node54" class="node">
<title>Node53</title>
<g id="a_node54"><a xlink:href="TClass_8h.html" target="_top" xlink:title="TClass.h">
<polygon fill="#ffffff" stroke="#000000" points="1019.9997,-739.5 1019.9997,-758.5 1076.9997,-758.5 1076.9997,-739.5 1019.9997,-739.5"/>
<text text-anchor="middle" x="1048.4997" y="-746.5" font-family="Helvetica,sans-Serif" font-size="10.00" fill="#000000">TClass.h</text>
</a>
</g>
</g>
<!-- Node0&#45;&gt;Node53 -->
<g id="edge137" class="edge">
<title>Node0&#45;&gt;Node53</title>
<path fill="none" stroke="#191970" d="M1123.1482,-963.375C1111.2972,-929.3415 1071.2249,-814.262 1055.2018,-768.247"/>
<polygon fill="#191970" stroke="#191970" points="1058.4327,-766.882 1051.8388,-758.5891 1051.822,-769.184 1058.4327,-766.882"/>
</g>
<!-- Node70 -->
<g id="node71" class="node">
<title>Node70</title>
<g id="a_node71"><a xlink:href="TStreamerElement_8h.html" target="_top" xlink:title="TStreamerElement.h">
<polygon fill="#ffffff" stroke="#000000" points="736.9997,-571.5 736.9997,-590.5 853.9997,-590.5 853.9997,-571.5 736.9997,-571.5"/>
<text text-anchor="middle" x="795.4997" y="-578.5" font-family="Helvetica,sans-Serif" font-size="10.00" fill="#000000">TStreamerElement.h</text>
</a>
</g>
</g>
<!-- Node0&#45;&gt;Node70 -->
<g id="edge138" class="edge">
<title>Node0&#45;&gt;Node70</title>
<path fill="none" stroke="#191970" d="M1055.3423,-968.0543C927.7277,-957.789 667.04,-930.031 600.4997,-871 536.5964,-814.3083 513.6382,-754.4253 560.4997,-683 597.0768,-627.25 671.407,-601.8157 726.728,-590.3096"/>
<polygon fill="#191970" stroke="#191970" points="727.6891,-593.6875 736.8231,-588.319 726.3349,-586.8198 727.6891,-593.6875"/>
</g>
<!-- Node73 -->
<g id="node74" class="node">
<title>Node73</title>
<g id="a_node74"><a xlink:href="Riostream_8h.html" target="_top" xlink:title="Riostream.h">
<polygon fill="#ffffff" stroke="#000000" points="1327.4997,-907.5 1327.4997,-926.5 1403.4997,-926.5 1403.4997,-907.5 1327.4997,-907.5"/>
<text text-anchor="middle" x="1365.4997" y="-914.5" font-family="Helvetica,sans-Serif" font-size="10.00" fill="#000000">Riostream.h</text>
</a>
</g>
</g>
<!-- Node0&#45;&gt;Node73 -->
<g id="edge148" class="edge">
<title>Node0&#45;&gt;Node73</title>
<path fill="none" stroke="#191970" d="M1167.3137,-963.4369C1208.8729,-953.6992 1273.2889,-938.6059 1317.3253,-928.2877"/>
<polygon fill="#191970" stroke="#191970" points="1318.2867,-931.6573 1327.2245,-925.9682 1316.6897,-924.8419 1318.2867,-931.6573"/>
</g>
<!-- Node76 -->
<g id="node77" class="node">
<title>Node76</title>
<polygon fill="#ffffff" stroke="#bfbfbf" points="1421.9997,-907.5 1421.9997,-926.5 1474.9997,-926.5 1474.9997,-907.5 1421.9997,-907.5"/>
<text text-anchor="middle" x="1448.4997" y="-914.5" font-family="Helvetica,sans-Serif" font-size="10.00" fill="#000000">stdlib.h</text>
</g>
<!-- Node0&#45;&gt;Node76 -->
<g id="edge152" class="edge">
<title>Node0&#45;&gt;Node76</title>
<path fill="none" stroke="#191970" d="M1197.7273,-963.7928C1253.4592,-956.0724 1333.0566,-943.916 1411.7552,-926.962"/>
<polygon fill="#191970" stroke="#191970" points="1412.8221,-930.3117 1421.8461,-924.7603 1411.3298,-923.4726 1412.8221,-930.3117"/>
</g>
<!-- Node2 -->
<g id="node3" class="node">
<title>Node2</title>
<g id="a_node3"><a xlink:href="TObject_8h.html" target="_top" xlink:title="TObject.h">
<polygon fill="#ffffff" stroke="#000000" points="1088.9997,-403.5 1088.9997,-422.5 1151.9997,-422.5 1151.9997,-403.5 1088.9997,-403.5"/>
<text text-anchor="middle" x="1120.4997" y="-410.5" font-family="Helvetica,sans-Serif" font-size="10.00" fill="#000000">TObject.h</text>
</a>
</g>
</g>
<!-- Node1&#45;&gt;Node2 -->
<g id="edge2" class="edge">
<title>Node1&#45;&gt;Node2</title>
<path fill="none" stroke="#191970" d="M778.5718,-460.6044C781.5888,-460.039 784.5899,-459.4974 787.4997,-459 891.8548,-441.1627 1015.5216,-425.5072 1078.7335,-417.8978"/>
<polygon fill="#191970" stroke="#191970" points="1079.2018,-421.3668 1088.7147,-416.7028 1078.3695,-414.4165 1079.2018,-421.3668"/>
</g>
<!-- Node27 -->
<g id="node28" class="node">
<title>Node27</title>
<g id="a_node28"><a xlink:href="TString_8h.html" target="_top" xlink:title="TString.h">
<polygon fill="#ffffff" stroke="#000000" points="754.4997,-403.5 754.4997,-422.5 814.4997,-422.5 814.4997,-403.5 754.4997,-403.5"/>
<text text-anchor="middle" x="784.4997" y="-410.5" font-family="Helvetica,sans-Serif" font-size="10.00" fill="#000000">TString.h</text>
</a>
</g>
</g>
<!-- Node1&#45;&gt;Node27 -->
<g id="edge37" class="edge">
<title>Node1&#45;&gt;Node27</title>
<path fill="none" stroke="#191970" d="M746.5123,-459.2455C752.9765,-451.3761 762.2382,-440.101 769.9981,-430.6542"/>
<polygon fill="#191970" stroke="#191970" points="772.9361,-432.5916 776.579,-422.6427 767.527,-428.1484 772.9361,-432.5916"/>
</g>
<!-- Node3 -->
<g id="node4" class="node">
<title>Node3</title>
<polygon fill="#ffffff" stroke="#bfbfbf" points="1190.4997,-.5 1190.4997,-19.5 1268.4997,-19.5 1268.4997,-.5 1190.4997,-.5"/>
<text text-anchor="middle" x="1229.4997" y="-7.5" font-family="Helvetica,sans-Serif" font-size="10.00" fill="#000000">RConfigure.h</text>
</g>
<!-- Node2&#45;&gt;Node3 -->
<g id="edge3" class="edge">
<title>Node2&#45;&gt;Node3</title>
<path fill="none" stroke="#191970" d="M1122.873,-403.2187C1130.4396,-371.1454 1153.4997,-266.1657 1153.4997,-178 1153.4997,-178 1153.4997,-178 1153.4997,-122 1153.4997,-82.2361 1186.7068,-46.1042 1209.2205,-26.177"/>
<polygon fill="#191970" stroke="#191970" points="1211.6077,-28.7412 1216.9499,-19.5918 1207.068,-23.4128 1211.6077,-28.7412"/>
</g>
<!-- Node4 -->
<g id="node5" class="node">
<title>Node4</title>
<g id="a_node5"><a xlink:href="Rtypes_8h.html" target="_top" xlink:title="Rtypes.h">
<polygon fill="#ffffff" stroke="#000000" points="1562.9997,-286 1562.9997,-305 1621.9997,-305 1621.9997,-286 1562.9997,-286"/>
<text text-anchor="middle" x="1592.4997" y="-293" font-family="Helvetica,sans-Serif" font-size="10.00" fill="#000000">Rtypes.h</text>
</a>
</g>
</g>
<!-- Node2&#45;&gt;Node4 -->
<g id="edge4" class="edge">
<title>Node2&#45;&gt;Node4</title>
<path fill="none" stroke="#191970" d="M1152.2019,-405.108C1235.6781,-384.3274 1461.4126,-328.1329 1553.0435,-305.3222"/>
<polygon fill="#191970" stroke="#191970" points="1553.9103,-308.7134 1562.7686,-302.9013 1552.2193,-301.9207 1553.9103,-308.7134"/>
</g>
<!-- Node20 -->
<g id="node21" class="node">
<title>Node20</title>
<polygon fill="#ffffff" stroke="#bfbfbf" points="848.4997,-112.5 848.4997,-131.5 892.4997,-131.5 892.4997,-112.5 848.4997,-112.5"/>
<text text-anchor="middle" x="870.4997" y="-119.5" font-family="Helvetica,sans-Serif" font-size="10.00" fill="#000000">string</text>
</g>
<!-- Node2&#45;&gt;Node20 -->
<g id="edge35" class="edge">
<title>Node2&#45;&gt;Node20</title>
<path fill="none" stroke="#191970" d="M1112.7423,-403.3936C1092.4316,-378.0613 1036.4382,-307.053 995.4997,-244 974.3657,-211.4496 979.9922,-195.3922 952.4997,-168 938.1938,-153.7462 918.5637,-142.5259 902.0968,-134.7361"/>
<polygon fill="#191970" stroke="#191970" points="903.385,-131.4775 892.831,-130.549 900.5024,-137.8565 903.385,-131.4775"/>
</g>
<!-- Node23 -->
<g id="node24" class="node">
<title>Node23</title>
<g id="a_node24"><a xlink:href="TStorage_8h.html" target="_top" xlink:title="TStorage.h">
<polygon fill="#ffffff" stroke="#000000" points="1179.9997,-347.5 1179.9997,-366.5 1248.9997,-366.5 1248.9997,-347.5 1179.9997,-347.5"/>
<text text-anchor="middle" x="1214.4997" y="-354.5" font-family="Helvetica,sans-Serif" font-size="10.00" fill="#000000">TStorage.h</text>
</a>
</g>
</g>
<!-- Node2&#45;&gt;Node23 -->
<g id="edge29" class="edge">
<title>Node2&#45;&gt;Node23</title>
<path fill="none" stroke="#191970" d="M1136.8733,-403.2455C1151.4306,-394.5731 1172.9307,-381.7645 1189.6149,-371.825"/>
<polygon fill="#191970" stroke="#191970" points="1191.5141,-374.7676 1198.3138,-366.6427 1187.9314,-368.7539 1191.5141,-374.7676"/>
</g>
<!-- Node24 -->
<g id="node25" class="node">
<title>Node24</title>
<g id="a_node25"><a xlink:href="TVersionCheck_8h.html" target="_top" xlink:title="TVersionCheck.h">
<polygon fill="#ffffff" stroke="#000000" points="2292.4997,-56.5 2292.4997,-75.5 2390.4997,-75.5 2390.4997,-56.5 2292.4997,-56.5"/>
<text text-anchor="middle" x="2341.4997" y="-63.5" font-family="Helvetica,sans-Serif" font-size="10.00" fill="#000000">TVersionCheck.h</text>
</a>
</g>
</g>
<!-- Node2&#45;&gt;Node24 -->
<g id="edge32" class="edge">
<title>Node2&#45;&gt;Node24</title>
<path fill="none" stroke="#191970" d="M1152.1757,-412.2785C1271.5109,-409.3517 1693.7919,-397.0547 1824.4997,-367 1965.7417,-334.5231 2000.7698,-316.0834 2126.4997,-244 2208.6198,-196.9189 2290.5986,-118.0493 2324.8381,-83.3158"/>
<polygon fill="#191970" stroke="#191970" points="2327.6444,-85.4517 2332.1279,-75.8523 2322.6367,-80.5606 2327.6444,-85.4517"/>
</g>
<!-- Node25 -->
<g id="node26" class="node">
<title>Node25</title>
<polygon fill="#ffffff" stroke="#bfbfbf" points="991.4997,-347.5 991.4997,-366.5 1047.4997,-366.5 1047.4997,-347.5 991.4997,-347.5"/>
<text text-anchor="middle" x="1019.4997" y="-354.5" font-family="Helvetica,sans-Serif" font-size="10.00" fill="#000000">stdarg.h</text>
</g>
<!-- Node2&#45;&gt;Node25 -->
<g id="edge34" class="edge">
<title>Node2&#45;&gt;Node25</title>
<path fill="none" stroke="#191970" d="M1102.9069,-403.2455C1087.1207,-394.4928 1063.7359,-381.527 1045.741,-371.5496"/>
<polygon fill="#191970" stroke="#191970" points="1047.3338,-368.4308 1036.891,-366.6427 1043.9395,-374.5528 1047.3338,-368.4308"/>
</g>
<!-- Node26 -->
<g id="node27" class="node">
<title>Node26</title>
<polygon fill="#ffffff" stroke="#bfbfbf" points="885.9997,-347.5 885.9997,-366.5 934.9997,-366.5 934.9997,-347.5 885.9997,-347.5"/>
<text text-anchor="middle" x="910.4997" y="-354.5" font-family="Helvetica,sans-Serif" font-size="10.00" fill="#000000">iosfwd</text>
</g>
<!-- Node2&#45;&gt;Node26 -->
<g id="edge36" class="edge">
<title>Node2&#45;&gt;Node26</title>
<path fill="none" stroke="#191970" d="M1088.6052,-404.4948C1049.8677,-394.1648 984.7759,-376.807 944.929,-366.1811"/>
<polygon fill="#191970" stroke="#191970" points="945.6952,-362.7632 935.131,-363.5683 943.8915,-369.5269 945.6952,-362.7632"/>
</g>
<!-- Node5 -->
<g id="node6" class="node">
<title>Node5</title>
<g id="a_node6"><a xlink:href="RtypesCore_8h.html" target="_top" xlink:title="RtypesCore.h">
<polygon fill="#ffffff" stroke="#000000" points="1950.4997,-112.5 1950.4997,-131.5 2032.4997,-131.5 2032.4997,-112.5 1950.4997,-112.5"/>
<text text-anchor="middle" x="1991.4997" y="-119.5" font-family="Helvetica,sans-Serif" font-size="10.00" fill="#000000">RtypesCore.h</text>
</a>
</g>
</g>
<!-- Node4&#45;&gt;Node5 -->
<g id="edge5" class="edge">
<title>Node4&#45;&gt;Node5</title>
<path fill="none" stroke="#191970" d="M1622.2221,-294.1363C1714.4646,-289.6031 1991.2512,-273.6212 2017.4997,-244 2043.3391,-214.8405 2020.0202,-166.4131 2003.8745,-140.2001"/>
<polygon fill="#191970" stroke="#191970" points="2006.7103,-138.1391 1998.355,-131.6246 2000.8242,-141.9277 2006.7103,-138.1391"/>
</g>
<!-- Node9 -->
<g id="node10" class="node">
<title>Node9</title>
<g id="a_node10"><a xlink:href="DllImport_8h.html" target="_top" xlink:title="DllImport.h">
<polygon fill="#ffffff" stroke="#000000" points="1484.9997,-224.5 1484.9997,-243.5 1555.9997,-243.5 1555.9997,-224.5 1484.9997,-224.5"/>
<text text-anchor="middle" x="1520.4997" y="-231.5" font-family="Helvetica,sans-Serif" font-size="10.00" fill="#000000">DllImport.h</text>
</a>
</g>
</g>
<!-- Node4&#45;&gt;Node9 -->
<g id="edge10" class="edge">
<title>Node4&#45;&gt;Node9</title>
<path fill="none" stroke="#191970" d="M1581.2497,-285.8906C1570.1137,-276.3786 1552.8537,-261.6357 1539.5729,-250.2917"/>
<polygon fill="#191970" stroke="#191970" points="1541.7853,-247.5784 1531.9083,-243.7449 1537.2389,-252.9011 1541.7853,-247.5784"/>
</g>
<!-- Node10 -->
<g id="node11" class="node">
<title>Node10</title>
<polygon fill="#ffffff" stroke="#bfbfbf" points="1574.4997,-224.5 1574.4997,-243.5 1636.4997,-243.5 1636.4997,-224.5 1574.4997,-224.5"/>
<text text-anchor="middle" x="1605.4997" y="-231.5" font-family="Helvetica,sans-Serif" font-size="10.00" fill="#000000">snprintf.h</text>
</g>
<!-- Node4&#45;&gt;Node10 -->
<g id="edge11" class="edge">
<title>Node4&#45;&gt;Node10</title>
<path fill="none" stroke="#191970" d="M1594.531,-285.8906C1596.352,-277.276 1599.0799,-264.3708 1601.3596,-253.5858"/>
<polygon fill="#191970" stroke="#191970" points="1604.796,-254.2525 1603.4398,-243.7449 1597.9473,-252.8048 1604.796,-254.2525"/>
</g>
<!-- Node11 -->
<g id="node12" class="node">
<title>Node11</title>
<polygon fill="#ffffff" stroke="#bfbfbf" points="1409.9997,-224.5 1409.9997,-243.5 1466.9997,-243.5 1466.9997,-224.5 1409.9997,-224.5"/>
<text text-anchor="middle" x="1438.4997" y="-231.5" font-family="Helvetica,sans-Serif" font-size="10.00" fill="#000000">strlcpy.h</text>
</g>
<!-- Node4&#45;&gt;Node11 -->
<g id="edge12" class="edge">
<title>Node4&#45;&gt;Node11</title>
<path fill="none" stroke="#191970" d="M1568.4372,-285.8906C1542.4442,-275.5103 1500.852,-258.9004 1471.7451,-247.2766"/>
<polygon fill="#191970" stroke="#191970" points="1472.9782,-244.0003 1462.3933,-243.5419 1470.382,-250.5011 1472.9782,-244.0003"/>
</g>
<!-- Node12 -->
<g id="node13" class="node">
<title>Node12</title>
<polygon fill="#ffffff" stroke="#bfbfbf" points="2140.4997,-168.5 2140.4997,-187.5 2190.4997,-187.5 2190.4997,-168.5 2140.4997,-168.5"/>
<text text-anchor="middle" x="2165.4997" y="-175.5" font-family="Helvetica,sans-Serif" font-size="10.00" fill="#000000">atomic</text>
</g>
<!-- Node4&#45;&gt;Node12 -->
<g id="edge13" class="edge">
<title>Node4&#45;&gt;Node12</title>
<path fill="none" stroke="#191970" d="M1622.2291,-293.7405C1710.5459,-288.2651 1970.1816,-270.3046 2050.4997,-244 2085.8779,-232.4135 2122.4505,-209.1276 2144.5903,-193.5474"/>
<polygon fill="#191970" stroke="#191970" points="2146.7964,-196.2722 2152.8787,-187.5971 2142.7141,-190.5858 2146.7964,-196.2722"/>
</g>
<!-- Node13 -->
<g id="node14" class="node">
<title>Node13</title>
<polygon fill="#ffffff" stroke="#bfbfbf" points="1075.4997,-224.5 1075.4997,-243.5 1125.4997,-243.5 1125.4997,-224.5 1075.4997,-224.5"/>
<text text-anchor="middle" x="1100.4997" y="-231.5" font-family="Helvetica,sans-Serif" font-size="10.00" fill="#000000">stdio.h</text>
</g>
<!-- Node4&#45;&gt;Node13 -->
<g id="edge14" class="edge">
<title>Node4&#45;&gt;Node13</title>
<path fill="none" stroke="#191970" d="M1562.8309,-291.7914C1476.9111,-281.0514 1228.1494,-249.9562 1135.6702,-238.3963"/>
<polygon fill="#191970" stroke="#191970" points="1136.0495,-234.9166 1125.6926,-237.1491 1135.1812,-241.8625 1136.0495,-234.9166"/>
</g>
<!-- Node14 -->
<g id="node15" class="node">
<title>Node14</title>
<polygon fill="#ffffff" stroke="#bfbfbf" points="1824.9997,-224.5 1824.9997,-243.5 1877.9997,-243.5 1877.9997,-224.5 1824.9997,-224.5"/>
<text text-anchor="middle" x="1851.4997" y="-231.5" font-family="Helvetica,sans-Serif" font-size="10.00" fill="#000000">string.h</text>
</g>
<!-- Node4&#45;&gt;Node14 -->
<g id="edge15" class="edge">
<title>Node4&#45;&gt;Node14</title>
<path fill="none" stroke="#191970" d="M1622.1349,-288.5708C1664.0886,-278.745 1743.1898,-260.1589 1810.4997,-244 1811.9246,-243.6579 1813.3771,-243.3083 1814.8441,-242.9543"/>
<polygon fill="#191970" stroke="#191970" points="1815.7057,-246.3469 1824.6002,-240.5904 1814.0572,-239.5438 1815.7057,-246.3469"/>
</g>
<!-- Node15 -->
<g id="node16" class="node">
<title>Node15</title>
<polygon fill="#ffffff" stroke="#bfbfbf" points="1781.9997,-168.5 1781.9997,-187.5 1838.9997,-187.5 1838.9997,-168.5 1781.9997,-168.5"/>
<text text-anchor="middle" x="1810.4997" y="-175.5" font-family="Helvetica,sans-Serif" font-size="10.00" fill="#000000">typeinfo</text>
</g>
<!-- Node4&#45;&gt;Node15 -->
<g id="edge16" class="edge">
<title>Node4&#45;&gt;Node15</title>
<path fill="none" stroke="#191970" d="M1622.1782,-290.2697C1668.1511,-281.6765 1753.7665,-263.5611 1777.4997,-244 1791.9777,-232.0671 1800.6907,-212.1871 1805.4965,-197.3581"/>
<polygon fill="#191970" stroke="#191970" points="1808.8912,-198.2189 1808.3318,-187.6388 1802.1713,-196.2585 1808.8912,-198.2189"/>
</g>
<!-- Node16 -->
<g id="node17" class="node">
<title>Node16</title>
<polygon fill="#ffffff" stroke="#bfbfbf" points="797.9997,-168.5 797.9997,-187.5 866.9997,-187.5 866.9997,-168.5 797.9997,-168.5"/>
<text text-anchor="middle" x="832.4997" y="-175.5" font-family="Helvetica,sans-Serif" font-size="10.00" fill="#000000">type_traits</text>
</g>
<!-- Node4&#45;&gt;Node16 -->
<g id="edge17" class="edge">
<title>Node4&#45;&gt;Node16</title>
<path fill="none" stroke="#191970" d="M1562.7864,-290.6903C1489.8836,-278.9268 1296.311,-247.918 1134.4997,-224 1023.0984,-207.5333 992.066,-208.7649 876.9421,-187.9476"/>
<polygon fill="#191970" stroke="#191970" points="877.4958,-184.4909 867.0299,-186.1388 876.2391,-191.3772 877.4958,-184.4909"/>
</g>
<!-- Node17 -->
<g id="node18" class="node">
<title>Node17</title>
<g id="a_node18"><a xlink:href="TGenericClassInfo_8h.html" target="_top" xlink:title="TGenericClassInfo.h">
<polygon fill="#ffffff" stroke="#000000" points="1654.4997,-224.5 1654.4997,-243.5 1768.4997,-243.5 1768.4997,-224.5 1654.4997,-224.5"/>
<text text-anchor="middle" x="1711.4997" y="-231.5" font-family="Helvetica,sans-Serif" font-size="10.00" fill="#000000">TGenericClassInfo.h</text>
</a>
</g>
</g>
<!-- Node4&#45;&gt;Node17 -->
<g id="edge18" class="edge">
<title>Node4&#45;&gt;Node17</title>
<path fill="none" stroke="#191970" d="M1606.031,-285.8906C1623.777,-275.6908 1654.9217,-259.4763 1678.8761,-247.8875"/>
<polygon fill="#191970" stroke="#191970" points="1680.4681,-251.006 1687.9873,-243.5419 1677.4546,-244.6878 1680.4681,-251.006"/>
</g>
<!-- Node21 -->
<g id="node22" class="node">
<title>Node21</title>
<g id="a_node22"><a xlink:href="TIsAProxy_8h.html" target="_top" xlink:title="TIsAProxy.h">
<polygon fill="#ffffff" stroke="#000000" points="1934.9997,-224.5 1934.9997,-243.5 2007.9997,-243.5 2007.9997,-224.5 1934.9997,-224.5"/>
<text text-anchor="middle" x="1971.4997" y="-231.5" font-family="Helvetica,sans-Serif" font-size="10.00" fill="#000000">TIsAProxy.h</text>
</a>
</g>
</g>
<!-- Node4&#45;&gt;Node21 -->
<g id="edge24" class="edge">
<title>Node4&#45;&gt;Node21</title>
<path fill="none" stroke="#191970" d="M1622.2392,-290.6742C1687.8722,-280.024 1845.5497,-254.4378 1924.623,-241.6066"/>
<polygon fill="#191970" stroke="#191970" points="1925.4726,-245.0146 1934.7829,-239.958 1924.3514,-238.105 1925.4726,-245.0146"/>
</g>
<!-- Node6 -->
<g id="node7" class="node">
<title>Node6</title>
<g id="a_node7"><a xlink:href="RConfig_8hxx.html" target="_top" xlink:title="ROOT/RConfig.hxx">
<polygon fill="#ffffff" stroke="#000000" points="1921.9997,-56.5 1921.9997,-75.5 2026.9997,-75.5 2026.9997,-56.5 1921.9997,-56.5"/>
<text text-anchor="middle" x="1974.4997" y="-63.5" font-family="Helvetica,sans-Serif" font-size="10.00" fill="#000000">ROOT/RConfig.hxx</text>
</a>
</g>
</g>
<!-- Node5&#45;&gt;Node6 -->
<g id="edge6" class="edge">
<title>Node5&#45;&gt;Node6</title>
<path fill="none" stroke="#191970" d="M1988.5386,-112.2455C1986.2959,-104.8579 1983.1421,-94.4689 1980.3916,-85.4087"/>
<polygon fill="#191970" stroke="#191970" points="1983.6809,-84.1948 1977.427,-75.6427 1976.9828,-86.2282 1983.6809,-84.1948"/>
</g>
<!-- Node8 -->
<g id="node9" class="node">
<title>Node8</title>
<polygon fill="#ffffff" stroke="#bfbfbf" points="2045.4997,-56.5 2045.4997,-75.5 2101.4997,-75.5 2101.4997,-56.5 2045.4997,-56.5"/>
<text text-anchor="middle" x="2073.4997" y="-63.5" font-family="Helvetica,sans-Serif" font-size="10.00" fill="#000000">stddef.h</text>
</g>
<!-- Node5&#45;&gt;Node8 -->
<g id="edge9" class="edge">
<title>Node5&#45;&gt;Node8</title>
<path fill="none" stroke="#191970" d="M2005.783,-112.2455C2018.2468,-103.7337 2036.5448,-91.2375 2050.9789,-81.3801"/>
<polygon fill="#191970" stroke="#191970" points="2053.096,-84.1726 2059.3801,-75.6427 2049.1482,-78.392 2053.096,-84.1726"/>
</g>
<!-- Node6&#45;&gt;Node3 -->
<g id="edge8" class="edge">
<title>Node6&#45;&gt;Node3</title>
<path fill="none" stroke="#191970" d="M1921.8159,-62.0399C1783.7275,-51.6601 1412.7335,-23.7733 1278.6788,-13.6967"/>
<polygon fill="#191970" stroke="#191970" points="1278.9265,-10.2055 1268.6923,-12.946 1278.4018,-17.1858 1278.9265,-10.2055"/>
</g>
<!-- Node7 -->
<g id="node8" class="node">
<title>Node7</title>
<g id="a_node8"><a xlink:href="RVersion_8h.html" target="_top" xlink:title="../RVersion.h">
<polygon fill="#ffffff" stroke="#000000" points="2127.9997,-.5 2127.9997,-19.5 2204.9997,-19.5 2204.9997,-.5 2127.9997,-.5"/>
<text text-anchor="middle" x="2166.4997" y="-7.5" font-family="Helvetica,sans-Serif" font-size="10.00" fill="#000000">../RVersion.h</text>
</a>
</g>
</g>
<!-- Node6&#45;&gt;Node7 -->
<g id="edge7" class="edge">
<title>Node6&#45;&gt;Node7</title>
<path fill="none" stroke="#191970" d="M2007.5057,-56.3733C2039.7088,-46.9807 2088.844,-32.6496 2123.9637,-22.4064"/>
<polygon fill="#191970" stroke="#191970" points="2125.3045,-25.6612 2133.9244,-19.5011 2123.3444,-18.9412 2125.3045,-25.6612"/>
</g>
<!-- Node17&#45;&gt;Node4 -->
<g id="edge23" class="edge">
<title>Node17&#45;&gt;Node4</title>
<path fill="none" stroke="#191970" d="M1698.0858,-243.5419C1680.3991,-253.7151 1649.2682,-269.9265 1625.2821,-281.5357"/>
<polygon fill="#191970" stroke="#191970" points="1623.6737,-278.4251 1616.156,-285.8906 1626.6884,-284.7426 1623.6737,-278.4251"/>
</g>
<!-- Node18 -->
<g id="node19" class="node">
<title>Node18</title>
<polygon fill="#ffffff" stroke="#bfbfbf" points="1281.9997,-168.5 1281.9997,-187.5 1328.9997,-187.5 1328.9997,-168.5 1281.9997,-168.5"/>
<text text-anchor="middle" x="1305.4997" y="-175.5" font-family="Helvetica,sans-Serif" font-size="10.00" fill="#000000">vector</text>
</g>
<!-- Node17&#45;&gt;Node18 -->
<g id="edge19" class="edge">
<title>Node17&#45;&gt;Node18</title>
<path fill="none" stroke="#191970" d="M1654.2705,-225.272C1651.3049,-224.8375 1648.3677,-224.4112 1645.4997,-224 1533.4198,-207.9283 1400.3269,-190.362 1339.2212,-182.3817"/>
<polygon fill="#191970" stroke="#191970" points="1339.382,-178.8731 1329.0133,-181.0504 1338.4766,-185.8144 1339.382,-178.8731"/>
</g>
<!-- Node19 -->
<g id="node20" class="node">
<title>Node19</title>
<g id="a_node20"><a xlink:href="TSchemaHelper_8h.html" target="_top" xlink:title="TSchemaHelper.h">
<polygon fill="#ffffff" stroke="#000000" points="1660.4997,-168.5 1660.4997,-187.5 1762.4997,-187.5 1762.4997,-168.5 1660.4997,-168.5"/>
<text text-anchor="middle" x="1711.4997" y="-175.5" font-family="Helvetica,sans-Serif" font-size="10.00" fill="#000000">TSchemaHelper.h</text>
</a>
</g>
</g>
<!-- Node17&#45;&gt;Node19 -->
<g id="edge20" class="edge">
<title>Node17&#45;&gt;Node19</title>
<path fill="none" stroke="#191970" d="M1711.4997,-224.2455C1711.4997,-216.9382 1711.4997,-206.6944 1711.4997,-197.7046"/>
<polygon fill="#191970" stroke="#191970" points="1714.9998,-197.6426 1711.4997,-187.6427 1707.9998,-197.6427 1714.9998,-197.6426"/>
</g>
<!-- Node19&#45;&gt;Node5 -->
<g id="edge21" class="edge">
<title>Node19&#45;&gt;Node5</title>
<path fill="none" stroke="#191970" d="M1759.3153,-168.4369C1809.6879,-158.3624 1888.7225,-142.5554 1940.3263,-132.2347"/>
<polygon fill="#191970" stroke="#191970" points="1941.1453,-135.6403 1950.2647,-130.247 1939.7725,-128.7762 1941.1453,-135.6403"/>
</g>
<!-- Node19&#45;&gt;Node20 -->
<g id="edge22" class="edge">
<title>Node19&#45;&gt;Node20</title>
<path fill="none" stroke="#191970" d="M1660.4718,-174.6022C1503.6514,-164.1599 1031.611,-132.728 903.1055,-124.1711"/>
<polygon fill="#191970" stroke="#191970" points="902.9716,-120.6546 892.7611,-123.4823 902.5065,-127.6391 902.9716,-120.6546"/>
</g>
<!-- Node21&#45;&gt;Node5 -->
<g id="edge26" class="edge">
<title>Node21&#45;&gt;Node5</title>
<path fill="none" stroke="#191970" d="M1973.2049,-224.4509C1976.4816,-206.1013 1983.7157,-165.5908 1988.0409,-141.3693"/>
<polygon fill="#191970" stroke="#191970" points="1991.4864,-141.9845 1989.7989,-131.5249 1984.5954,-140.7539 1991.4864,-141.9845"/>
</g>
<!-- Node21&#45;&gt;Node12 -->
<g id="edge27" class="edge">
<title>Node21&#45;&gt;Node12</title>
<path fill="none" stroke="#191970" d="M2004.8495,-224.3733C2039.8531,-214.2691 2094.6555,-198.4499 2130.3281,-188.1526"/>
<polygon fill="#191970" stroke="#191970" points="2131.6583,-191.4116 2140.2954,-185.2755 2129.7169,-184.6862 2131.6583,-191.4116"/>
</g>
<!-- Node21&#45;&gt;Node15 -->
<g id="edge28" class="edge">
<title>Node21&#45;&gt;Node15</title>
<path fill="none" stroke="#191970" d="M1943.8228,-224.3733C1917.1669,-215.1016 1876.676,-201.0178 1847.3113,-190.804"/>
<polygon fill="#191970" stroke="#191970" points="1848.4103,-187.4807 1837.8155,-187.5011 1846.1106,-194.0921 1848.4103,-187.4807"/>
</g>
<!-- Node22 -->
<g id="node23" class="node">
<title>Node22</title>
<g id="a_node23"><a xlink:href="TVirtualIsAProxy_8h.html" target="_top" xlink:title="TVirtualIsAProxy.h">
<polygon fill="#ffffff" stroke="#000000" points="1857.9997,-168.5 1857.9997,-187.5 1962.9997,-187.5 1962.9997,-168.5 1857.9997,-168.5"/>
<text text-anchor="middle" x="1910.4997" y="-175.5" font-family="Helvetica,sans-Serif" font-size="10.00" fill="#000000">TVirtualIsAProxy.h</text>
</a>
</g>
</g>
<!-- Node21&#45;&gt;Node22 -->
<g id="edge25" class="edge">
<title>Node21&#45;&gt;Node22</title>
<path fill="none" stroke="#191970" d="M1960.8743,-224.2455C1951.9524,-216.0549 1939.0117,-204.1749 1928.4805,-194.5069"/>
<polygon fill="#191970" stroke="#191970" points="1930.7369,-191.8271 1921.0034,-187.6427 1926.0029,-196.9837 1930.7369,-191.8271"/>
</g>
<!-- Node23&#45;&gt;Node3 -->
<g id="edge30" class="edge">
<title>Node23&#45;&gt;Node3</title>
<path fill="none" stroke="#191970" d="M1216.4607,-347.4791C1220.5266,-326.8799 1229.4997,-276.5945 1229.4997,-234 1229.4997,-234 1229.4997,-234 1229.4997,-122 1229.4997,-89.7116 1229.4997,-52.1872 1229.4997,-29.8048"/>
<polygon fill="#191970" stroke="#191970" points="1232.9998,-29.5883 1229.4997,-19.5884 1225.9998,-29.5884 1232.9998,-29.5883"/>
</g>
<!-- Node23&#45;&gt;Node4 -->
<g id="edge31" class="edge">
<title>Node23&#45;&gt;Node4</title>
<path fill="none" stroke="#191970" d="M1249.2603,-349.7003C1254.0378,-348.7572 1258.8856,-347.8315 1263.4997,-347 1367.5748,-328.2447 1490.8906,-309.9986 1552.8163,-301.1094"/>
<polygon fill="#191970" stroke="#191970" points="1553.5282,-304.5433 1562.9318,-299.6623 1552.5369,-297.6139 1553.5282,-304.5433"/>
</g>
<!-- Node24&#45;&gt;Node7 -->
<g id="edge33" class="edge">
<title>Node24&#45;&gt;Node7</title>
<path fill="none" stroke="#191970" d="M2311.4162,-56.3733C2282.3163,-47.0613 2238.0474,-32.8953 2206.0967,-22.671"/>
<polygon fill="#191970" stroke="#191970" points="2206.7817,-19.2155 2196.1907,-19.5011 2204.6482,-25.8824 2206.7817,-19.2155"/>
</g>
<!-- Node27&#45;&gt;Node13 -->
<g id="edge76" class="edge">
<title>Node27&#45;&gt;Node13</title>
<path fill="none" stroke="#191970" d="M796.5833,-403.4023C813.7858,-389.9576 846.5746,-365.1321 876.4997,-347 942.995,-306.7095 1025.6647,-267.6671 1069.6245,-247.7207"/>
<polygon fill="#191970" stroke="#191970" points="1071.2351,-250.8338 1078.9105,-243.5304 1068.356,-244.4533 1071.2351,-250.8338"/>
</g>
<!-- Node27&#45;&gt;Node20 -->
<g id="edge77" class="edge">
<title>Node27&#45;&gt;Node20</title>
<path fill="none" stroke="#191970" d="M754.3241,-405.5992C722.3339,-397.0708 674.9923,-382.2592 664.4997,-367 659.4633,-359.6756 661.8481,-355.4842 664.4997,-347 668.1085,-335.4533 779.5506,-176.1402 788.4997,-168 803.3379,-154.5031 822.8248,-143.3647 839.0786,-135.4303"/>
<polygon fill="#191970" stroke="#191970" points="840.6544,-138.557 848.2154,-131.1353 837.6765,-132.222 840.6544,-138.557"/>
</g>
<!-- Node27&#45;&gt;Node25 -->
<g id="edge75" class="edge">
<title>Node27&#45;&gt;Node25</title>
<path fill="none" stroke="#191970" d="M814.7408,-405.7936C857.2673,-395.6596 934.73,-377.2004 981.2206,-366.1218"/>
<polygon fill="#191970" stroke="#191970" points="982.2927,-369.4645 991.2089,-363.7416 980.67,-362.6551 982.2927,-369.4645"/>
</g>
<!-- Node27&#45;&gt;Node26 -->
<g id="edge74" class="edge">
<title>Node27&#45;&gt;Node26</title>
<path fill="none" stroke="#191970" d="M806.1599,-403.3733C826.4769,-394.3435 857.0637,-380.7494 879.8747,-370.6111"/>
<polygon fill="#191970" stroke="#191970" points="881.4056,-373.7609 889.1222,-366.5011 878.5626,-367.3642 881.4056,-373.7609"/>
</g>
<!-- Node28 -->
<g id="node29" class="node">
<title>Node28</title>
<g id="a_node29"><a xlink:href="TMathBase_8h.html" target="_top" xlink:title="TMathBase.h">
<polygon fill="#ffffff" stroke="#000000" points="371.4997,-347.5 371.4997,-366.5 451.4997,-366.5 451.4997,-347.5 371.4997,-347.5"/>
<text text-anchor="middle" x="411.4997" y="-354.5" font-family="Helvetica,sans-Serif" font-size="10.00" fill="#000000">TMathBase.h</text>
</a>
</g>
</g>
<!-- Node27&#45;&gt;Node28 -->
<g id="edge38" class="edge">
<title>Node27&#45;&gt;Node28</title>
<path fill="none" stroke="#191970" d="M754.2915,-408.4647C690.3054,-398.8582 540.5448,-376.3741 461.8477,-364.5589"/>
<polygon fill="#191970" stroke="#191970" points="462.1004,-361.0577 451.6916,-363.0342 461.0611,-367.9802 462.1004,-361.0577"/>
</g>
<!-- Node32 -->
<g id="node33" class="node">
<title>Node32</title>
<g id="a_node33"><a xlink:href="RStringView_8hxx.html" target="_top" xlink:title="ROOT/RStringView.hxx">
<polygon fill="#ffffff" stroke="#000000" points="197.9997,-347.5 197.9997,-366.5 324.9997,-366.5 324.9997,-347.5 197.9997,-347.5"/>
<text text-anchor="middle" x="261.4997" y="-354.5" font-family="Helvetica,sans-Serif" font-size="10.00" fill="#000000">ROOT/RStringView.hxx</text>
</a>
</g>
</g>
<!-- Node27&#45;&gt;Node32 -->
<g id="edge43" class="edge">
<title>Node27&#45;&gt;Node32</title>
<path fill="none" stroke="#191970" d="M754.1204,-409.7472C673.4922,-401.1139 452.3089,-377.4308 335.6974,-364.9447"/>
<polygon fill="#191970" stroke="#191970" points="335.7473,-361.4301 325.4315,-363.8455 335.002,-368.3903 335.7473,-361.4301"/>
</g>
<!-- Node39 -->
<g id="node40" class="node">
<title>Node39</title>
<g id="a_node40"><a xlink:href="TypeTraits_8hxx.html" target="_top" xlink:title="ROOT/TypeTraits.hxx">
<polygon fill="#ffffff" stroke="#000000" points="673.9997,-347.5 673.9997,-366.5 790.9997,-366.5 790.9997,-347.5 673.9997,-347.5"/>
<text text-anchor="middle" x="732.4997" y="-354.5" font-family="Helvetica,sans-Serif" font-size="10.00" fill="#000000">ROOT/TypeTraits.hxx</text>
</a>
</g>
</g>
<!-- Node27&#45;&gt;Node39 -->
<g id="edge59" class="edge">
<title>Node27&#45;&gt;Node39</title>
<path fill="none" stroke="#191970" d="M775.442,-403.2455C767.9856,-395.2155 757.2363,-383.6394 748.358,-374.0781"/>
<polygon fill="#191970" stroke="#191970" points="750.823,-371.589 741.4536,-366.6427 745.6934,-376.3522 750.823,-371.589"/>
</g>
<!-- Node28&#45;&gt;Node4 -->
<g id="edge39" class="edge">
<title>Node28&#45;&gt;Node4</title>
<path fill="none" stroke="#191970" d="M451.8108,-354.9008C633.1495,-345.4577 1372.2877,-306.9674 1552.6589,-297.5747"/>
<polygon fill="#191970" stroke="#191970" points="1552.9596,-301.0639 1562.764,-297.0485 1552.5955,-294.0733 1552.9596,-301.0639"/>
</g>
<!-- Node29 -->
<g id="node30" class="node">
<title>Node29</title>
<polygon fill="#ffffff" stroke="#bfbfbf" points="401.9997,-286 401.9997,-305 450.9997,-305 450.9997,-286 401.9997,-286"/>
<text text-anchor="middle" x="426.4997" y="-293" font-family="Helvetica,sans-Serif" font-size="10.00" fill="#000000">cstdlib</text>
</g>
<!-- Node28&#45;&gt;Node29 -->
<g id="edge40" class="edge">
<title>Node28&#45;&gt;Node29</title>
<path fill="none" stroke="#191970" d="M413.8435,-347.3906C415.9446,-338.776 419.0922,-325.8708 421.7227,-315.0858"/>
<polygon fill="#191970" stroke="#191970" points="425.1536,-315.7894 424.1229,-305.2449 418.353,-314.1307 425.1536,-315.7894"/>
</g>
<!-- Node30 -->
<g id="node31" class="node">
<title>Node30</title>
<polygon fill="#ffffff" stroke="#bfbfbf" points="336.9997,-286 336.9997,-305 383.9997,-305 383.9997,-286 336.9997,-286"/>
<text text-anchor="middle" x="360.4997" y="-293" font-family="Helvetica,sans-Serif" font-size="10.00" fill="#000000">cmath</text>
</g>
<!-- Node28&#45;&gt;Node30 -->
<g id="edge41" class="edge">
<title>Node28&#45;&gt;Node30</title>
<path fill="none" stroke="#191970" d="M403.531,-347.3906C395.9406,-338.2376 384.3337,-324.2409 375.0865,-313.09"/>
<polygon fill="#191970" stroke="#191970" points="377.6584,-310.7083 368.5808,-305.2449 372.2701,-315.1766 377.6584,-310.7083"/>
</g>
<!-- Node31 -->
<g id="node32" class="node">
<title>Node31</title>
<polygon fill="#ffffff" stroke="#bfbfbf" points="98.4997,-168.5 98.4997,-187.5 162.4997,-187.5 162.4997,-168.5 98.4997,-168.5"/>
<text text-anchor="middle" x="130.4997" y="-175.5" font-family="Helvetica,sans-Serif" font-size="10.00" fill="#000000">algorithm</text>
</g>
<!-- Node28&#45;&gt;Node31 -->
<g id="edge42" class="edge">
<title>Node28&#45;&gt;Node31</title>
<path fill="none" stroke="#191970" d="M371.0414,-350.4036C312.1464,-340.5055 208.282,-321.8205 194.4997,-311 157.6838,-282.0955 140.8224,-226.7256 134.1831,-197.3742"/>
<polygon fill="#191970" stroke="#191970" points="137.5927,-196.5795 132.1188,-187.5083 130.7411,-198.0132 137.5927,-196.5795"/>
</g>
<!-- Node32&#45;&gt;Node3 -->
<g id="edge44" class="edge">
<title>Node32&#45;&gt;Node3</title>
<path fill="none" stroke="#191970" d="M227.5551,-347.4753C144.6528,-322.6261 -56.2672,-251.902 15.4997,-168 92.7665,-77.6681 962.0647,-24.5562 1180.1211,-12.5954"/>
<polygon fill="#191970" stroke="#191970" points="1180.5093,-16.0795 1190.3042,-12.0409 1180.1286,-9.0899 1180.5093,-16.0795"/>
</g>
<!-- Node33 -->
<g id="node34" class="node">
<title>Node33</title>
<g id="a_node34"><a xlink:href="RWrap__libcpp__string__view_8h.html" target="_top" xlink:title="RWrap_libcpp_string\l_view.h">
<polygon fill="#ffffff" stroke="#000000" points="203.9997,-280.5 203.9997,-310.5 318.9997,-310.5 318.9997,-280.5 203.9997,-280.5"/>
<text text-anchor="start" x="211.9997" y="-298.5" font-family="Helvetica,sans-Serif" font-size="10.00" fill="#000000">RWrap_libcpp_string</text>
<text text-anchor="middle" x="261.4997" y="-287.5" font-family="Helvetica,sans-Serif" font-size="10.00" fill="#000000">_view.h</text>
</a>
</g>
</g>
<!-- Node32&#45;&gt;Node33 -->
<g id="edge45" class="edge">
<title>Node32&#45;&gt;Node33</title>
<path fill="none" stroke="#191970" d="M261.4997,-347.3906C261.4997,-340.2234 261.4997,-330.0862 261.4997,-320.671"/>
<polygon fill="#191970" stroke="#191970" points="264.9998,-320.5446 261.4997,-310.5446 257.9998,-320.5446 264.9998,-320.5446"/>
</g>
<!-- Node33&#45;&gt;Node20 -->
<g id="edge46" class="edge">
<title>Node33&#45;&gt;Node20</title>
<path fill="none" stroke="#191970" d="M303.3943,-280.4886C322.9785,-271.9776 345.639,-259.8297 362.4997,-244 391.1183,-217.1315 374.4006,-189.1042 407.4997,-168 443.7257,-144.902 739.5067,-128.4256 838.4187,-123.5175"/>
<polygon fill="#191970" stroke="#191970" points="838.608,-127.0125 848.4247,-123.0273 838.2654,-120.0209 838.608,-127.0125"/>
</g>
<!-- Node33&#45;&gt;Node31 -->
<g id="edge47" class="edge">
<title>Node33&#45;&gt;Node31</title>
<path fill="none" stroke="#191970" d="M244.642,-280.3795C219.9493,-258.2315 174.1273,-217.1316 148.6957,-194.3209"/>
<polygon fill="#191970" stroke="#191970" points="150.9891,-191.6762 141.2078,-187.6046 146.3151,-196.8872 150.9891,-191.6762"/>
</g>
<!-- Node34 -->
<g id="node35" class="node">
<title>Node34</title>
<polygon fill="#ffffff" stroke="#bfbfbf" points="416.9997,-168.5 416.9997,-187.5 469.9997,-187.5 469.9997,-168.5 416.9997,-168.5"/>
<text text-anchor="middle" x="443.4997" y="-175.5" font-family="Helvetica,sans-Serif" font-size="10.00" fill="#000000">iterator</text>
</g>
<!-- Node33&#45;&gt;Node34 -->
<g id="edge48" class="edge">
<title>Node33&#45;&gt;Node34</title>
<path fill="none" stroke="#191970" d="M319.218,-281.9143C357.3711,-271.9309 402.9382,-257.7624 417.4997,-244 430.338,-231.8663 436.952,-212.6097 440.2863,-198.0214"/>
<polygon fill="#191970" stroke="#191970" points="443.7674,-198.4559 442.2455,-187.9709 436.8968,-197.1165 443.7674,-198.4559"/>
</g>
<!-- Node35 -->
<g id="node36" class="node">
<title>Node35</title>
<polygon fill="#ffffff" stroke="#bfbfbf" points="180.9997,-168.5 180.9997,-187.5 237.9997,-187.5 237.9997,-168.5 180.9997,-168.5"/>
<text text-anchor="middle" x="209.4997" y="-175.5" font-family="Helvetica,sans-Serif" font-size="10.00" fill="#000000">ostream</text>
</g>
<!-- Node33&#45;&gt;Node35 -->
<g id="edge49" class="edge">
<title>Node33&#45;&gt;Node35</title>
<path fill="none" stroke="#191970" d="M241.3948,-280.4314C230.7536,-271.2053 218.6462,-258.418 212.4997,-244 206.3148,-229.4918 205.9084,-211.5285 206.8574,-198.007"/>
<polygon fill="#191970" stroke="#191970" points="210.3588,-198.1669 207.8762,-187.8671 203.3939,-197.467 210.3588,-198.1669"/>
</g>
<!-- Node36 -->
<g id="node37" class="node">
<title>Node36</title>
<polygon fill="#ffffff" stroke="#bfbfbf" points="24.4997,-168.5 24.4997,-187.5 80.4997,-187.5 80.4997,-168.5 24.4997,-168.5"/>
<text text-anchor="middle" x="52.4997" y="-175.5" font-family="Helvetica,sans-Serif" font-size="10.00" fill="#000000">iomanip</text>
</g>
<!-- Node33&#45;&gt;Node36 -->
<g id="edge50" class="edge">
<title>Node33&#45;&gt;Node36</title>
<path fill="none" stroke="#191970" d="M234.6045,-280.3795C194.1861,-257.6562 118.2836,-214.9838 78.4354,-192.5811"/>
<polygon fill="#191970" stroke="#191970" points="80.0158,-189.4544 69.5837,-187.6046 76.5853,-195.5562 80.0158,-189.4544"/>
</g>
<!-- Node37 -->
<g id="node38" class="node">
<title>Node37</title>
<polygon fill="#ffffff" stroke="#bfbfbf" points="294.9997,-168.5 294.9997,-187.5 359.9997,-187.5 359.9997,-168.5 294.9997,-168.5"/>
<text text-anchor="middle" x="327.4997" y="-175.5" font-family="Helvetica,sans-Serif" font-size="10.00" fill="#000000">stdexcept</text>
</g>
<!-- Node33&#45;&gt;Node37 -->
<g id="edge51" class="edge">
<title>Node33&#45;&gt;Node37</title>
<path fill="none" stroke="#191970" d="M303.8156,-280.4897C320.1805,-272.3701 337.1841,-260.5362 346.4997,-244 354.8686,-229.1442 347.9594,-210.2914 340.2292,-196.5423"/>
<polygon fill="#191970" stroke="#191970" points="343.1562,-194.6206 334.9241,-187.951 337.2002,-198.2985 343.1562,-194.6206"/>
</g>
<!-- Node38 -->
<g id="node39" class="node">
<title>Node38</title>
<g id="a_node39"><a xlink:href="libcpp__string__view_8h.html" target="_top" xlink:title="libcpp_string_view.h">
<polygon fill="#ffffff" stroke="#000000" points="221.4997,-224.5 221.4997,-243.5 337.4997,-243.5 337.4997,-224.5 221.4997,-224.5"/>
<text text-anchor="middle" x="279.4997" y="-231.5" font-family="Helvetica,sans-Serif" font-size="10.00" fill="#000000">libcpp_string_view.h</text>
</a>
</g>
</g>
<!-- Node33&#45;&gt;Node38 -->
<g id="edge52" class="edge">
<title>Node33&#45;&gt;Node38</title>
<path fill="none" stroke="#191970" d="M265.9492,-280.2977C268.3176,-272.2055 271.2566,-262.1639 273.7916,-253.5029"/>
<polygon fill="#191970" stroke="#191970" points="277.1677,-254.4275 276.6177,-243.8469 270.4496,-252.4611 277.1677,-254.4275"/>
</g>
<!-- Node38&#45;&gt;Node20 -->
<g id="edge53" class="edge">
<title>Node38&#45;&gt;Node20</title>
<path fill="none" stroke="#191970" d="M276.9797,-224.3329C273.8549,-209.8664 270.6028,-182.7164 285.4997,-168 324.9888,-128.9894 721.2476,-123.0615 838.1814,-122.1611"/>
<polygon fill="#191970" stroke="#191970" points="838.3215,-125.6603 848.2968,-122.0907 838.2726,-118.6605 838.3215,-125.6603"/>
</g>
<!-- Node38&#45;&gt;Node31 -->
<g id="edge54" class="edge">
<title>Node38&#45;&gt;Node31</title>
<path fill="none" stroke="#191970" d="M253.8857,-224.3733C229.431,-215.1822 192.3943,-201.2624 165.2788,-191.0713"/>
<polygon fill="#191970" stroke="#191970" points="166.3716,-187.7431 155.7795,-187.5011 163.9088,-194.2956 166.3716,-187.7431"/>
</g>
<!-- Node38&#45;&gt;Node34 -->
<g id="edge55" class="edge">
<title>Node38&#45;&gt;Node34</title>
<path fill="none" stroke="#191970" d="M307.6923,-224.3733C335.1741,-214.9892 377.0923,-200.6757 407.0849,-190.4343"/>
<polygon fill="#191970" stroke="#191970" points="408.4285,-193.674 416.761,-187.1303 406.1665,-187.0496 408.4285,-193.674"/>
</g>
<!-- Node38&#45;&gt;Node35 -->
<g id="edge56" class="edge">
<title>Node38&#45;&gt;Node35</title>
<path fill="none" stroke="#191970" d="M267.3067,-224.2455C256.8676,-215.8943 241.6343,-203.7076 229.4258,-193.9408"/>
<polygon fill="#191970" stroke="#191970" points="231.5482,-191.1566 221.5531,-187.6427 227.1753,-196.6227 231.5482,-191.1566"/>
</g>
<!-- Node38&#45;&gt;Node36 -->
<g id="edge57" class="edge">
<title>Node38&#45;&gt;Node36</title>
<path fill="none" stroke="#191970" d="M238.6527,-224.4402C202.2307,-215.8424 147.2164,-202.6759 90.6,-188.2385"/>
<polygon fill="#191970" stroke="#191970" points="91.3168,-184.8092 80.7612,-185.7207 89.5813,-191.5907 91.3168,-184.8092"/>
</g>
<!-- Node38&#45;&gt;Node37 -->
<g id="edge58" class="edge">
<title>Node38&#45;&gt;Node37</title>
<path fill="none" stroke="#191970" d="M287.8607,-224.2455C294.6747,-216.2958 304.4678,-204.8706 312.6149,-195.3656"/>
<polygon fill="#191970" stroke="#191970" points="315.384,-197.513 319.2346,-187.6427 310.0692,-192.9575 315.384,-197.513"/>
</g>
<!-- Node39&#45;&gt;Node16 -->
<g id="edge61" class="edge">
<title>Node39&#45;&gt;Node16</title>
<path fill="none" stroke="#191970" d="M732.8285,-347.3807C734.0586,-324.1245 739.8875,-263.8349 767.4997,-224 776.499,-211.0171 790.4145,-200.4596 803.0645,-192.7488"/>
<polygon fill="#191970" stroke="#191970" points="805.0315,-195.6555 811.9637,-187.6433 801.5481,-189.5837 805.0315,-195.6555"/>
</g>
<!-- Node39&#45;&gt;Node18 -->
<g id="edge62" class="edge">
<title>Node39&#45;&gt;Node18</title>
<path fill="none" stroke="#191970" d="M771.1108,-347.4414C843.1707,-329.317 1002.7685,-287.8278 1134.4997,-244 1183.5549,-227.679 1239.2163,-205.4922 1273.3425,-191.4579"/>
<polygon fill="#191970" stroke="#191970" points="1274.8862,-194.6071 1282.7919,-187.5537 1272.2131,-188.1376 1274.8862,-194.6071"/>
</g>
<!-- Node40 -->
<g id="node41" class="node">
<title>Node40</title>
<polygon fill="#ffffff" stroke="#bfbfbf" points="885.4997,-168.5 885.4997,-187.5 943.4997,-187.5 943.4997,-168.5 885.4997,-168.5"/>
<text text-anchor="middle" x="914.4997" y="-175.5" font-family="Helvetica,sans-Serif" font-size="10.00" fill="#000000">memory</text>
</g>
<!-- Node39&#45;&gt;Node40 -->
<g id="edge60" class="edge">
<title>Node39&#45;&gt;Node40</title>
<path fill="none" stroke="#191970" d="M737.3094,-347.3925C751.8742,-318.4249 795.1351,-233.3519 805.4997,-224 816.5009,-214.0737 849.7247,-200.7247 876.6274,-190.9641"/>
<polygon fill="#191970" stroke="#191970" points="877.961,-194.2044 886.2001,-187.5434 875.6055,-187.6126 877.961,-194.2044"/>
</g>
<!-- Node41 -->
<g id="node42" class="node">
<title>Node41</title>
<g id="a_node42"><a xlink:href="RSpan_8hxx.html" target="_top" xlink:title="ROOT/RSpan.hxx">
<polygon fill="#ffffff" stroke="#000000" points="577.9997,-286 577.9997,-305 676.9997,-305 676.9997,-286 577.9997,-286"/>
<text text-anchor="middle" x="627.4997" y="-293" font-family="Helvetica,sans-Serif" font-size="10.00" fill="#000000">ROOT/RSpan.hxx</text>
</a>
</g>
</g>
<!-- Node39&#45;&gt;Node41 -->
<g id="edge63" class="edge">
<title>Node39&#45;&gt;Node41</title>
<path fill="none" stroke="#191970" d="M716.0935,-347.3906C699.0644,-337.4165 672.2157,-321.6908 652.5347,-310.1633"/>
<polygon fill="#191970" stroke="#191970" points="654.1885,-307.0759 643.7908,-305.0419 650.6507,-313.1161 654.1885,-307.0759"/>
</g>
<!-- Node41&#45;&gt;Node3 -->
<g id="edge64" class="edge">
<title>Node41&#45;&gt;Node3</title>
<path fill="none" stroke="#191970" d="M611.2185,-285.7923C585.5432,-269.4088 536.6058,-233.5551 517.4997,-188 514.0618,-179.8029 511.9367,-174.9329 517.4997,-168 601.3666,-63.482 1033.3091,-23.7846 1180.3884,-13.1703"/>
<polygon fill="#191970" stroke="#191970" points="1180.7494,-16.6536 1190.4771,-12.4558 1180.2548,-9.6711 1180.7494,-16.6536"/>
</g>
<!-- Node42 -->
<g id="node43" class="node">
<title>Node42</title>
<g id="a_node43"><a xlink:href="span_8hxx.html" target="_top" xlink:title="ROOT/span.hxx">
<polygon fill="#ffffff" stroke="#000000" points="583.4997,-224.5 583.4997,-243.5 675.4997,-243.5 675.4997,-224.5 583.4997,-224.5"/>
<text text-anchor="middle" x="629.4997" y="-231.5" font-family="Helvetica,sans-Serif" font-size="10.00" fill="#000000">ROOT/span.hxx</text>
</a>
</g>
</g>
<!-- Node41&#45;&gt;Node42 -->
<g id="edge65" class="edge">
<title>Node41&#45;&gt;Node42</title>
<path fill="none" stroke="#191970" d="M627.8122,-285.8906C628.0895,-277.3657 628.5033,-264.6392 628.8518,-253.9235"/>
<polygon fill="#191970" stroke="#191970" points="632.3558,-253.8534 629.1828,-243.7449 625.3595,-253.6258 632.3558,-253.8534"/>
</g>
<!-- Node42&#45;&gt;Node16 -->
<g id="edge72" class="edge">
<title>Node42&#45;&gt;Node16</title>
<path fill="none" stroke="#191970" d="M664.3967,-224.3733C698.5909,-214.9404 750.8412,-200.5265 788.004,-190.2747"/>
<polygon fill="#191970" stroke="#191970" points="789.349,-193.5345 798.0582,-187.5011 787.4875,-186.7865 789.349,-193.5345"/>
</g>
<!-- Node42&#45;&gt;Node18 -->
<g id="edge69" class="edge">
<title>Node42&#45;&gt;Node18</title>
<path fill="none" stroke="#191970" d="M675.6979,-230.1729C803.6159,-219.5762 1160.3319,-190.0257 1271.7833,-180.7931"/>
<polygon fill="#191970" stroke="#191970" points="1272.1104,-184.2781 1281.7873,-179.9643 1271.5325,-177.302 1272.1104,-184.2781"/>
</g>
<!-- Node42&#45;&gt;Node34 -->
<g id="edge67" class="edge">
<title>Node42&#45;&gt;Node34</title>
<path fill="none" stroke="#191970" d="M597.5252,-224.3733C564.8159,-214.5253 514.0745,-199.2483 479.857,-188.9463"/>
<polygon fill="#191970" stroke="#191970" points="480.8247,-185.5825 470.2402,-186.0509 478.8066,-192.2853 480.8247,-185.5825"/>
</g>
<!-- Node42&#45;&gt;Node37 -->
<g id="edge70" class="edge">
<title>Node42&#45;&gt;Node37</title>
<path fill="none" stroke="#191970" d="M583.3037,-225.4338C525.2831,-214.6751 426.5265,-196.3626 370.2005,-185.918"/>
<polygon fill="#191970" stroke="#191970" points="370.6669,-182.4449 360.1964,-184.063 369.3906,-189.3276 370.6669,-182.4449"/>
</g>
<!-- Node42&#45;&gt;Node40 -->
<g id="edge71" class="edge">
<title>Node42&#45;&gt;Node40</title>
<path fill="none" stroke="#191970" d="M675.9315,-226.2609C723.3986,-218.1388 799.4655,-204.544 874.9948,-187.9912"/>
<polygon fill="#191970" stroke="#191970" points="876.1533,-191.3197 885.1622,-185.744 874.6425,-184.4847 876.1533,-191.3197"/>
</g>
<!-- Node43 -->
<g id="node44" class="node">
<title>Node43</title>
<polygon fill="#ffffff" stroke="#bfbfbf" points="687.9997,-168.5 687.9997,-187.5 740.9997,-187.5 740.9997,-168.5 687.9997,-168.5"/>
<text text-anchor="middle" x="714.4997" y="-175.5" font-family="Helvetica,sans-Serif" font-size="10.00" fill="#000000">cstddef</text>
</g>
<!-- Node42&#45;&gt;Node43 -->
<g id="edge66" class="edge">
<title>Node42&#45;&gt;Node43</title>
<path fill="none" stroke="#191970" d="M644.3056,-224.2455C657.2253,-215.7337 676.1928,-203.2375 691.155,-193.3801"/>
<polygon fill="#191970" stroke="#191970" points="693.4385,-196.067 699.8635,-187.6427 689.5873,-190.2216 693.4385,-196.067"/>
</g>
<!-- Node44 -->
<g id="node45" class="node">
<title>Node44</title>
<polygon fill="#ffffff" stroke="#bfbfbf" points="526.4997,-168.5 526.4997,-187.5 568.4997,-187.5 568.4997,-168.5 526.4997,-168.5"/>
<text text-anchor="middle" x="547.4997" y="-175.5" font-family="Helvetica,sans-Serif" font-size="10.00" fill="#000000">array</text>
</g>
<!-- Node42&#45;&gt;Node44 -->
<g id="edge68" class="edge">
<title>Node42&#45;&gt;Node44</title>
<path fill="none" stroke="#191970" d="M615.2164,-224.2455C602.7527,-215.7337 584.4546,-203.2375 570.0206,-193.3801"/>
<polygon fill="#191970" stroke="#191970" points="571.8513,-190.392 561.6194,-187.6427 567.9035,-196.1726 571.8513,-190.392"/>
</g>
<!-- Node45 -->
<g id="node46" class="node">
<title>Node45</title>
<polygon fill="#ffffff" stroke="#bfbfbf" points="586.9997,-168.5 586.9997,-187.5 669.9997,-187.5 669.9997,-168.5 586.9997,-168.5"/>
<text text-anchor="middle" x="628.4997" y="-175.5" font-family="Helvetica,sans-Serif" font-size="10.00" fill="#000000">initializer_list</text>
</g>
<!-- Node42&#45;&gt;Node45 -->
<g id="edge73" class="edge">
<title>Node42&#45;&gt;Node45</title>
<path fill="none" stroke="#191970" d="M629.3255,-224.2455C629.1951,-216.9382 629.0121,-206.6944 628.8516,-197.7046"/>
<polygon fill="#191970" stroke="#191970" points="632.35,-197.5786 628.6719,-187.6427 625.3511,-197.7036 632.35,-197.5786"/>
</g>
<!-- Node46&#45;&gt;Node3 -->
<g id="edge133" class="edge">
<title>Node46&#45;&gt;Node3</title>
<path fill="none" stroke="#191970" d="M1309.8311,-908.638C1312.7431,-908.0019 1315.6683,-907.4383 1318.4997,-907 1636.006,-857.853 1723.7451,-924.779 2040.4997,-871 2142.8225,-853.6275 2264.4997,-908.7871 2264.4997,-805 2264.4997,-805 2264.4997,-805 2264.4997,-122 2264.4997,-54.8139 2193.5727,-72.7177 2128.4997,-56 2046.1792,-34.8513 1454.5876,-16.4286 1278.6976,-11.3707"/>
<polygon fill="#191970" stroke="#191970" points="1278.7845,-7.8718 1268.6885,-11.0844 1278.5843,-14.8689 1278.7845,-7.8718"/>
</g>
<!-- Node46&#45;&gt;Node12 -->
<g id="edge134" class="edge">
<title>Node46&#45;&gt;Node12</title>
<path fill="none" stroke="#191970" d="M1309.8381,-908.682C1312.7486,-908.037 1315.6716,-907.4593 1318.4997,-907 1562.9262,-867.3061 1629.1549,-904.5533 1874.4997,-871 2015.7896,-851.6772 2188.4997,-947.605 2188.4997,-805 2188.4997,-805 2188.4997,-805 2188.4997,-295.5 2188.4997,-260.3287 2178.4521,-220.3199 2171.6388,-197.2331"/>
<polygon fill="#191970" stroke="#191970" points="2174.9712,-196.1617 2168.6978,-187.6239 2168.2777,-198.2104 2174.9712,-196.1617"/>
</g>
<!-- Node46&#45;&gt;Node18 -->
<g id="edge136" class="edge">
<title>Node46&#45;&gt;Node18</title>
<path fill="none" stroke="#191970" d="M1309.8981,-908.998C1312.7965,-908.289 1315.7002,-907.61 1318.4997,-907 1448.0774,-878.7656 1906.4997,-937.6181 1906.4997,-805 1906.4997,-805 1906.4997,-805 1906.4997,-295.5 1906.4997,-262.6194 1912.7545,-245.0555 1887.4997,-224 1845.3182,-188.8322 1457.4056,-180.2407 1339.3994,-178.4325"/>
<polygon fill="#191970" stroke="#191970" points="1339.2055,-174.9294 1329.1553,-178.2824 1339.1029,-181.9287 1339.2055,-174.9294"/>
</g>
<!-- Node46&#45;&gt;Node20 -->
<g id="edge135" class="edge">
<title>Node46&#45;&gt;Node20</title>
<path fill="none" stroke="#191970" d="M1251.227,-916.3423C1128.5343,-913.4077 659.3324,-900.3437 600.4997,-871 242.8365,-692.6099 152.0115,-563.6468 15.4997,-188 12.4637,-179.6457 9.3855,-174.452 15.4997,-168 44.3326,-137.5742 686.2623,-125.0513 838.3841,-122.5052"/>
<polygon fill="#191970" stroke="#191970" points="838.5343,-126.0033 848.4753,-122.339 838.4189,-119.0042 838.5343,-126.0033"/>
</g>
<!-- Node47 -->
<g id="node48" class="node">
<title>Node47</title>
<g id="a_node48"><a xlink:href="TDirectory_8h.html" target="_top" xlink:title="TDirectory.h">
<polygon fill="#ffffff" stroke="#000000" points="1293.9997,-851.5 1293.9997,-870.5 1368.9997,-870.5 1368.9997,-851.5 1293.9997,-851.5"/>
<text text-anchor="middle" x="1331.4997" y="-858.5" font-family="Helvetica,sans-Serif" font-size="10.00" fill="#000000">TDirectory.h</text>
</a>
</g>
</g>
<!-- Node46&#45;&gt;Node47 -->
<g id="edge79" class="edge">
<title>Node46&#45;&gt;Node47</title>
<path fill="none" stroke="#191970" d="M1289.3832,-907.2455C1296.6963,-899.2155 1307.2389,-887.6394 1315.9464,-878.0781"/>
<polygon fill="#191970" stroke="#191970" points="1318.5724,-880.3928 1322.718,-870.6427 1313.397,-875.6795 1318.5724,-880.3928"/>
</g>
<!-- Node67 -->
<g id="node68" class="node">
<title>Node67</title>
<g id="a_node68"><a xlink:href="TList_8h.html" target="_top" xlink:title="TList.h">
<polygon fill="#ffffff" stroke="#000000" points="569.9997,-683.5 569.9997,-702.5 618.9997,-702.5 618.9997,-683.5 569.9997,-683.5"/>
<text text-anchor="middle" x="594.4997" y="-690.5" font-family="Helvetica,sans-Serif" font-size="10.00" fill="#000000">TList.h</text>
</a>
</g>
</g>
<!-- Node46&#45;&gt;Node67 -->
<g id="edge132" class="edge">
<title>Node46&#45;&gt;Node67</title>
<path fill="none" stroke="#191970" d="M1251.0822,-915.9838C1125.782,-911.5255 641.9036,-892.9378 618.4997,-871 574.5844,-829.8357 583.2505,-749.5461 590.1706,-712.5386"/>
<polygon fill="#191970" stroke="#191970" points="593.642,-713.0309 592.2021,-702.5343 586.782,-711.6378 593.642,-713.0309"/>
</g>
<!-- Node48 -->
<g id="node49" class="node">
<title>Node48</title>
<g id="a_node49"><a xlink:href="TBuffer_8h.html" target="_top" xlink:title="TBuffer.h">
<polygon fill="#ffffff" stroke="#000000" points="1350.4997,-795.5 1350.4997,-814.5 1410.4997,-814.5 1410.4997,-795.5 1350.4997,-795.5"/>
<text text-anchor="middle" x="1380.4997" y="-802.5" font-family="Helvetica,sans-Serif" font-size="10.00" fill="#000000">TBuffer.h</text>
</a>
</g>
</g>
<!-- Node47&#45;&gt;Node48 -->
<g id="edge80" class="edge">
<title>Node47&#45;&gt;Node48</title>
<path fill="none" stroke="#191970" d="M1340.0349,-851.2455C1346.9909,-843.2958 1356.988,-831.8706 1365.3048,-822.3656"/>
<polygon fill="#191970" stroke="#191970" points="1368.1113,-824.4732 1372.0624,-814.6427 1362.8433,-819.8637 1368.1113,-824.4732"/>
</g>
<!-- Node51 -->
<g id="node52" class="node">
<title>Node51</title>
<g id="a_node52"><a xlink:href="TNamed_8h.html" target="_top" xlink:title="TNamed.h">
<polygon fill="#ffffff" stroke="#000000" points="796.9997,-459.5 796.9997,-478.5 863.9997,-478.5 863.9997,-459.5 796.9997,-459.5"/>
<text text-anchor="middle" x="830.4997" y="-466.5" font-family="Helvetica,sans-Serif" font-size="10.00" fill="#000000">TNamed.h</text>
</a>
</g>
</g>
<!-- Node47&#45;&gt;Node51 -->
<g id="edge121" class="edge">
<title>Node47&#45;&gt;Node51</title>
<path fill="none" stroke="#191970" d="M1315.8229,-851.4175C1290.0373,-834.3156 1241.4997,-795.8956 1241.4997,-749 1241.4997,-749 1241.4997,-749 1241.4997,-693 1241.4997,-671.2201 953.1892,-528.7909 859.5155,-483.0896"/>
<polygon fill="#191970" stroke="#191970" points="860.8459,-479.8445 850.3231,-478.6107 857.7797,-486.1373 860.8459,-479.8445"/>
</g>
<!-- Node47&#45;&gt;Node67 -->
<g id="edge122" class="edge">
<title>Node47&#45;&gt;Node67</title>
<path fill="none" stroke="#191970" d="M1293.9386,-852.4379C1166.5323,-823.3955 751.9379,-728.8882 629.0992,-700.887"/>
<polygon fill="#191970" stroke="#191970" points="629.6442,-697.4215 619.1164,-698.6114 628.0884,-704.2464 629.6442,-697.4215"/>
</g>
<!-- Node68 -->
<g id="node69" class="node">
<title>Node68</title>
<g id="a_node69"><a xlink:href="TDatime_8h.html" target="_top" xlink:title="TDatime.h">
<polygon fill="#ffffff" stroke="#000000" points="1419.4997,-347.5 1419.4997,-366.5 1487.4997,-366.5 1487.4997,-347.5 1419.4997,-347.5"/>
<text text-anchor="middle" x="1453.4997" y="-354.5" font-family="Helvetica,sans-Serif" font-size="10.00" fill="#000000">TDatime.h</text>
</a>
</g>
</g>
<!-- Node47&#45;&gt;Node68 -->
<g id="edge127" class="edge">
<title>Node47&#45;&gt;Node68</title>
<path fill="none" stroke="#191970" d="M1369.0831,-857.505C1462.0845,-847.8227 1695.4997,-816.7712 1695.4997,-749 1695.4997,-749 1695.4997,-749 1695.4997,-637 1695.4997,-527.6522 1698.4917,-478.6123 1619.4997,-403 1602.0496,-386.2965 1540.5181,-372.3562 1497.4893,-364.3434"/>
<polygon fill="#191970" stroke="#191970" points="1497.9945,-360.8779 1487.5297,-362.5322 1496.7421,-367.765 1497.9945,-360.8779"/>
</g>
<!-- Node69 -->
<g id="node70" class="node">
<title>Node69</title>
<g id="a_node70"><a xlink:href="TUUID_8h.html" target="_top" xlink:title="TUUID.h">
<polygon fill="#ffffff" stroke="#000000" points="1723.9997,-795.5 1723.9997,-814.5 1780.9997,-814.5 1780.9997,-795.5 1723.9997,-795.5"/>
<text text-anchor="middle" x="1752.4997" y="-802.5" font-family="Helvetica,sans-Serif" font-size="10.00" fill="#000000">TUUID.h</text>
</a>
</g>
</g>
<!-- Node47&#45;&gt;Node69 -->
<g id="edge130" class="edge">
<title>Node47&#45;&gt;Node69</title>
<path fill="none" stroke="#191970" d="M1369.2541,-857.7598C1437.502,-851.6021 1585.8064,-836.8442 1709.4997,-815 1710.9621,-814.7417 1712.4494,-814.4653 1713.9495,-814.1749"/>
<polygon fill="#191970" stroke="#191970" points="1714.8306,-817.5666 1723.9067,-812.1007 1713.403,-810.7137 1714.8306,-817.5666"/>
</g>
<!-- Node48&#45;&gt;Node2 -->
<g id="edge87" class="edge">
<title>Node48&#45;&gt;Node2</title>
<path fill="none" stroke="#191970" d="M1386.8786,-795.2715C1398.628,-776.3847 1422.4997,-733.0797 1422.4997,-693 1422.4997,-693 1422.4997,-693 1422.4997,-581 1422.4997,-463.3382 1245.2699,-427.3579 1162.349,-416.9628"/>
<polygon fill="#191970" stroke="#191970" points="1162.5908,-413.4671 1152.2482,-415.7651 1161.7665,-420.4184 1162.5908,-413.4671"/>
</g>
<!-- Node48&#45;&gt;Node18 -->
<g id="edge120" class="edge">
<title>Node48&#45;&gt;Node18</title>
<path fill="none" stroke="#191970" d="M1410.7692,-797.5962C1475.0808,-780.9811 1619.4997,-738.594 1619.4997,-693 1619.4997,-693 1619.4997,-693 1619.4997,-525 1619.4997,-461.5829 1596.2492,-441.0292 1545.4997,-403 1495.8069,-365.7626 1459.3253,-405.3675 1410.4997,-367 1353.5765,-322.2694 1368.1607,-287.003 1332.4997,-224 1327.3296,-214.8659 1321.4449,-204.8028 1316.4919,-196.4238"/>
<polygon fill="#191970" stroke="#191970" points="1319.4978,-194.6308 1311.3833,-187.8186 1313.4786,-198.2042 1319.4978,-194.6308"/>
</g>
<!-- Node49 -->
<g id="node50" class="node">
<title>Node49</title>
<g id="a_node50"><a xlink:href="TDataType_8h.html" target="_top" xlink:title="TDataType.h">
<polygon fill="#ffffff" stroke="#000000" points="1300.9997,-739.5 1300.9997,-758.5 1377.9997,-758.5 1377.9997,-739.5 1300.9997,-739.5"/>
<text text-anchor="middle" x="1339.4997" y="-746.5" font-family="Helvetica,sans-Serif" font-size="10.00" fill="#000000">TDataType.h</text>
</a>
</g>
</g>
<!-- Node48&#45;&gt;Node49 -->
<g id="edge81" class="edge">
<title>Node48&#45;&gt;Node49</title>
<path fill="none" stroke="#191970" d="M1373.3581,-795.2455C1367.6553,-787.4564 1359.5098,-776.3308 1352.6373,-766.9439"/>
<polygon fill="#191970" stroke="#191970" points="1355.291,-764.6437 1346.5595,-758.6427 1349.6429,-768.7789 1355.291,-764.6437"/>
</g>
<!-- Node48&#45;&gt;Node53 -->
<g id="edge88" class="edge">
<title>Node48&#45;&gt;Node53</title>
<path fill="none" stroke="#191970" d="M1350.4514,-799.9316C1290.1492,-789.7601 1154.4394,-766.8693 1087.4355,-755.5675"/>
<polygon fill="#191970" stroke="#191970" points="1087.7366,-752.0689 1077.2937,-753.8568 1086.5723,-758.9714 1087.7366,-752.0689"/>
</g>
<!-- Node66 -->
<g id="node67" class="node">
<title>Node66</title>
<g id="a_node67"><a xlink:href="Bytes_8h.html" target="_top" xlink:title="Bytes.h">
<polygon fill="#ffffff" stroke="#000000" points="1761.9997,-347.5 1761.9997,-366.5 1814.9997,-366.5 1814.9997,-347.5 1761.9997,-347.5"/>
<text text-anchor="middle" x="1788.4997" y="-354.5" font-family="Helvetica,sans-Serif" font-size="10.00" fill="#000000">Bytes.h</text>
</a>
</g>
</g>
<!-- Node48&#45;&gt;Node66 -->
<g id="edge117" class="edge">
<title>Node48&#45;&gt;Node66</title>
<path fill="none" stroke="#191970" d="M1410.6238,-803.2226C1470.188,-799.1296 1600.149,-787.1445 1633.4997,-759 1657.3535,-738.8699 1657.4997,-724.2125 1657.4997,-693 1657.4997,-693 1657.4997,-693 1657.4997,-637 1657.4997,-528.5481 1739.126,-416.8447 1773.5123,-374.5995"/>
<polygon fill="#191970" stroke="#191970" points="1776.2217,-376.8153 1779.9045,-366.8811 1770.8305,-372.3504 1776.2217,-376.8153"/>
</g>
<!-- Node50 -->
<g id="node51" class="node">
<title>Node50</title>
<g id="a_node51"><a xlink:href="TDictionary_8h.html" target="_top" xlink:title="TDictionary.h">
<polygon fill="#ffffff" stroke="#000000" points="940.4997,-627.5 940.4997,-646.5 1020.4997,-646.5 1020.4997,-627.5 940.4997,-627.5"/>
<text text-anchor="middle" x="980.4997" y="-634.5" font-family="Helvetica,sans-Serif" font-size="10.00" fill="#000000">TDictionary.h</text>
</a>
</g>
</g>
<!-- Node49&#45;&gt;Node50 -->
<g id="edge82" class="edge">
<title>Node49&#45;&gt;Node50</title>
<path fill="none" stroke="#191970" d="M1308.8916,-739.4509C1244.1132,-719.2415 1093.1731,-672.1516 1020.7163,-649.5467"/>
<polygon fill="#191970" stroke="#191970" points="1021.619,-646.162 1011.0304,-646.5249 1019.5342,-652.8443 1021.619,-646.162"/>
</g>
<!-- Node50&#45;&gt;Node51 -->
<g id="edge83" class="edge">
<title>Node50&#45;&gt;Node51</title>
<path fill="none" stroke="#191970" d="M968.6828,-627.2545C958.0287,-618.2597 942.1407,-604.3186 929.4997,-591 896.3651,-556.089 861.8726,-511.3414 843.6369,-486.9043"/>
<polygon fill="#191970" stroke="#191970" points="846.2462,-484.5468 837.4805,-478.5958 840.6219,-488.7143 846.2462,-484.5468"/>
</g>
<!-- Node52 -->
<g id="node53" class="node">
<title>Node52</title>
<g id="a_node53"><a xlink:href="ESTLType_8h.html" target="_top" xlink:title="ESTLType.h">
<polygon fill="#ffffff" stroke="#000000" points="715.4997,-515.5 715.4997,-534.5 785.4997,-534.5 785.4997,-515.5 715.4997,-515.5"/>
<text text-anchor="middle" x="750.4997" y="-522.5" font-family="Helvetica,sans-Serif" font-size="10.00" fill="#000000">ESTLType.h</text>
</a>
</g>
</g>
<!-- Node50&#45;&gt;Node52 -->
<g id="edge86" class="edge">
<title>Node50&#45;&gt;Node52</title>
<path fill="none" stroke="#191970" d="M940.4055,-628.727C937.3937,-628.1332 934.3997,-627.5517 931.4997,-627 886.277,-618.3968 757.0872,-626.266 727.4997,-591 715.8743,-577.1434 725.5853,-557.0465 735.7269,-542.6746"/>
<polygon fill="#191970" stroke="#191970" points="738.6255,-544.6456 741.9102,-534.5727 733.061,-540.3987 738.6255,-544.6456"/>
</g>
<!-- Node51&#45;&gt;Node2 -->
<g id="edge84" class="edge">
<title>Node51&#45;&gt;Node2</title>
<path fill="none" stroke="#191970" d="M864.0497,-462.5214C917.2157,-452.2548 1020.7196,-432.2679 1078.6554,-421.0803"/>
<polygon fill="#191970" stroke="#191970" points="1079.4225,-424.4969 1088.5775,-419.1643 1078.0953,-417.6239 1079.4225,-424.4969"/>
</g>
<!-- Node51&#45;&gt;Node27 -->
<g id="edge85" class="edge">
<title>Node51&#45;&gt;Node27</title>
<path fill="none" stroke="#191970" d="M822.4871,-459.2455C816.023,-451.3761 806.7613,-440.101 799.0014,-430.6542"/>
<polygon fill="#191970" stroke="#191970" points="801.4725,-428.1484 792.4205,-422.6427 796.0634,-432.5916 801.4725,-428.1484"/>
</g>
<!-- Node53&#45;&gt;Node12 -->
<g id="edge112" class="edge">
<title>Node53&#45;&gt;Node12</title>
<path fill="none" stroke="#191970" d="M1077.3311,-748.1778C1179.3692,-745.0276 1519.314,-732.3968 1557.4997,-703 1582.2323,-683.96 1581.4997,-668.2125 1581.4997,-637 1581.4997,-637 1581.4997,-637 1581.4997,-525 1581.4997,-324.3133 1835.919,-475.8838 2004.4997,-367 2069.1785,-325.225 2079.4432,-304.9441 2126.4997,-244 2138.0195,-229.0805 2148.7294,-210.469 2155.9999,-196.8166"/>
<polygon fill="#191970" stroke="#191970" points="2159.1407,-198.3628 2160.6484,-187.8758 2152.93,-195.1337 2159.1407,-198.3628"/>
</g>
<!-- Node53&#45;&gt;Node18 -->
<g id="edge111" class="edge">
<title>Node53&#45;&gt;Node18</title>
<path fill="none" stroke="#191970" d="M1077.0871,-748.165C1177.1356,-744.4793 1505.4997,-725.6317 1505.4997,-637 1505.4997,-637 1505.4997,-637 1505.4997,-525 1505.4997,-434.6257 1428.9207,-441.3195 1377.4997,-367 1339.4619,-312.0233 1318.1782,-234.2801 1309.7675,-198.044"/>
<polygon fill="#191970" stroke="#191970" points="1313.0795,-196.8158 1307.4842,-187.8189 1306.2478,-198.3414 1313.0795,-196.8158"/>
</g>
<!-- Node53&#45;&gt;Node20 -->
<g id="edge108" class="edge">
<title>Node53&#45;&gt;Node20</title>
<path fill="none" stroke="#191970" d="M1077.0318,-741.8446C1158.6169,-719.6967 1384.4068,-645.7695 1342.4997,-515 1333.1656,-485.873 1324.252,-480.5022 1302.4997,-459 1251.6431,-408.7279 1225.3295,-412.9061 1170.4997,-367 1111.2225,-317.3703 1101.6134,-299.2141 1047.4997,-244 1014.7169,-210.5505 1012.8621,-194.8684 974.4997,-168 952.303,-152.4538 924.0104,-140.3542 902.5402,-132.4746"/>
<polygon fill="#191970" stroke="#191970" points="903.4988,-129.1009 892.904,-129.0515 901.1555,-135.6971 903.4988,-129.1009"/>
</g>
<!-- Node53&#45;&gt;Node27 -->
<g id="edge90" class="edge">
<title>Node53&#45;&gt;Node27</title>
<path fill="none" stroke="#191970" d="M1019.7414,-747.119C939.0011,-741.5905 714.4798,-724.4263 689.4997,-703 666.3305,-683.1269 670.4997,-667.5246 670.4997,-637 670.4997,-637 670.4997,-637 670.4997,-525 670.4997,-494.4754 669.8334,-482.345 689.4997,-459 703.6756,-442.1726 725.4523,-431.0108 744.5814,-423.9018"/>
<polygon fill="#191970" stroke="#191970" points="745.9819,-427.121 754.2891,-420.5452 743.6943,-420.5053 745.9819,-427.121"/>
</g>
<!-- Node53&#45;&gt;Node50 -->
<g id="edge89" class="edge">
<title>Node53&#45;&gt;Node50</title>
<path fill="none" stroke="#191970" d="M1042.7021,-739.4509C1031.3605,-720.7707 1006.0749,-679.1238 991.4745,-655.0761"/>
<polygon fill="#191970" stroke="#191970" points="994.4643,-653.2563 986.2827,-646.5249 988.4808,-656.8892 994.4643,-653.2563"/>
</g>
<!-- Node54 -->
<g id="node55" class="node">
<title>Node54</title>
<g id="a_node55"><a xlink:href="TObjArray_8h.html" target="_top" xlink:title="TObjArray.h">
<polygon fill="#ffffff" stroke="#000000" points="908.9997,-683.5 908.9997,-702.5 981.9997,-702.5 981.9997,-683.5 908.9997,-683.5"/>
<text text-anchor="middle" x="945.4997" y="-690.5" font-family="Helvetica,sans-Serif" font-size="10.00" fill="#000000">TObjArray.h</text>
</a>
</g>
</g>
<!-- Node53&#45;&gt;Node54 -->
<g id="edge91" class="edge">
<title>Node53&#45;&gt;Node54</title>
<path fill="none" stroke="#191970" d="M1030.5585,-739.2455C1014.4597,-730.4928 990.6118,-717.527 972.2606,-707.5496"/>
<polygon fill="#191970" stroke="#191970" points="973.6927,-704.3444 963.2354,-702.6427 970.349,-710.4942 973.6927,-704.3444"/>
</g>
<!-- Node61 -->
<g id="node62" class="node">
<title>Node61</title>
<g id="a_node62"><a xlink:href="TObjString_8h.html" target="_top" xlink:title="TObjString.h">
<polygon fill="#ffffff" stroke="#000000" points="920.9997,-459.5 920.9997,-478.5 997.9997,-478.5 997.9997,-459.5 920.9997,-459.5"/>
<text text-anchor="middle" x="959.4997" y="-466.5" font-family="Helvetica,sans-Serif" font-size="10.00" fill="#000000">TObjString.h</text>
</a>
</g>
</g>
<!-- Node53&#45;&gt;Node61 -->
<g id="edge104" class="edge">
<title>Node53&#45;&gt;Node61</title>
<path fill="none" stroke="#191970" d="M1047.8583,-739.3214C1046.2871,-718.4331 1041.4644,-667.7217 1029.4997,-627 1014.066,-574.4713 985.0667,-516.5467 969.684,-487.6101"/>
<polygon fill="#191970" stroke="#191970" points="972.6772,-485.7864 964.8553,-478.6402 966.5135,-489.1045 972.6772,-485.7864"/>
</g>
<!-- Node62 -->
<g id="node63" class="node">
<title>Node62</title>
<polygon fill="#ffffff" stroke="#bfbfbf" points="698.4997,-683.5 698.4997,-702.5 736.4997,-702.5 736.4997,-683.5 698.4997,-683.5"/>
<text text-anchor="middle" x="717.4997" y="-690.5" font-family="Helvetica,sans-Serif" font-size="10.00" fill="#000000">map</text>
</g>
<!-- Node53&#45;&gt;Node62 -->
<g id="edge107" class="edge">
<title>Node53&#45;&gt;Node62</title>
<path fill="none" stroke="#191970" d="M1019.7299,-746.4928C967.1103,-741.5113 851.8199,-728.765 746.4651,-702.846"/>
<polygon fill="#191970" stroke="#191970" points="747.1802,-699.417 736.6292,-700.3798 745.4778,-706.2069 747.1802,-699.417"/>
</g>
<!-- Node63 -->
<g id="node64" class="node">
<title>Node63</title>
<polygon fill="#ffffff" stroke="#bfbfbf" points="754.4997,-683.5 754.4997,-702.5 786.4997,-702.5 786.4997,-683.5 754.4997,-683.5"/>
<text text-anchor="middle" x="770.4997" y="-690.5" font-family="Helvetica,sans-Serif" font-size="10.00" fill="#000000">set</text>
</g>
<!-- Node53&#45;&gt;Node63 -->
<g id="edge109" class="edge">
<title>Node53&#45;&gt;Node63</title>
<path fill="none" stroke="#191970" d="M1019.995,-745.7134C974.4059,-740.0527 882.2722,-726.9547 796.3731,-702.8042"/>
<polygon fill="#191970" stroke="#191970" points="797.3192,-699.4345 786.7418,-700.0414 795.389,-706.1632 797.3192,-699.4345"/>
</g>
<!-- Node64 -->
<g id="node65" class="node">
<title>Node64</title>
<polygon fill="#ffffff" stroke="#bfbfbf" points="804.4997,-683.5 804.4997,-702.5 890.4997,-702.5 890.4997,-683.5 804.4997,-683.5"/>
<text text-anchor="middle" x="847.4997" y="-690.5" font-family="Helvetica,sans-Serif" font-size="10.00" fill="#000000">unordered_set</text>
</g>
<!-- Node53&#45;&gt;Node64 -->
<g id="edge110" class="edge">
<title>Node53&#45;&gt;Node64</title>
<path fill="none" stroke="#191970" d="M1019.7013,-740.9766C986.22,-731.6484 930.5851,-716.1482 891.6386,-705.2974"/>
<polygon fill="#191970" stroke="#191970" points="892.1976,-701.8199 881.6251,-702.5076 890.3188,-708.5631 892.1976,-701.8199"/>
</g>
<!-- Node65 -->
<g id="node66" class="node">
<title>Node65</title>
<g id="a_node66"><a xlink:href="ThreadLocalStorage_8h.html" target="_top" xlink:title="ThreadLocalStorage.h">
<polygon fill="#ffffff" stroke="#000000" points="2051.4997,-112.5 2051.4997,-131.5 2173.4997,-131.5 2173.4997,-112.5 2051.4997,-112.5"/>
<text text-anchor="middle" x="2112.4997" y="-119.5" font-family="Helvetica,sans-Serif" font-size="10.00" fill="#000000">ThreadLocalStorage.h</text>
</a>
</g>
</g>
<!-- Node53&#45;&gt;Node65 -->
<g id="edge113" class="edge">
<title>Node53&#45;&gt;Node65</title>
<path fill="none" stroke="#191970" d="M1077.2292,-747.8845C1159.0074,-744.3832 1391.6442,-732.0675 1461.4997,-703 1504.6925,-685.0271 1543.4997,-683.7829 1543.4997,-637 1543.4997,-637 1543.4997,-637 1543.4997,-525 1543.4997,-456.8201 1576.7008,-435.7504 1636.4997,-403 1711.1158,-362.1346 1744.8037,-396.7671 1824.4997,-367 1926.5463,-328.8848 1958.2731,-319.8081 2036.4997,-244 2068.1574,-213.3211 2092.3143,-166.8865 2104.2471,-141.051"/>
<polygon fill="#191970" stroke="#191970" points="2107.5691,-142.197 2108.4708,-131.6406 2101.1829,-139.3306 2107.5691,-142.197"/>
</g>
<!-- Node54&#45;&gt;Node34 -->
<g id="edge103" class="edge">
<title>Node54&#45;&gt;Node34</title>
<path fill="none" stroke="#191970" d="M914.8929,-683.4214C835.9084,-658.1517 628.0698,-587.9876 580.4997,-535 531.577,-480.5057 502.8214,-290.1968 471.4997,-224 466.9675,-214.4213 460.9598,-204.3073 455.6716,-196.0097"/>
<polygon fill="#191970" stroke="#191970" points="458.5305,-193.9866 450.1238,-187.5386 452.6745,-197.8218 458.5305,-193.9866"/>
</g>
<!-- Node55 -->
<g id="node56" class="node">
<title>Node55</title>
<g id="a_node56"><a xlink:href="TSeqCollection_8h.html" target="_top" xlink:title="TSeqCollection.h">
<polygon fill="#ffffff" stroke="#000000" points="824.4997,-627.5 824.4997,-646.5 922.4997,-646.5 922.4997,-627.5 824.4997,-627.5"/>
<text text-anchor="middle" x="873.4997" y="-634.5" font-family="Helvetica,sans-Serif" font-size="10.00" fill="#000000">TSeqCollection.h</text>
</a>
</g>
</g>
<!-- Node54&#45;&gt;Node55 -->
<g id="edge92" class="edge">
<title>Node54&#45;&gt;Node55</title>
<path fill="none" stroke="#191970" d="M932.9583,-683.2455C922.221,-674.8943 906.5524,-662.7076 893.9951,-652.9408"/>
<polygon fill="#191970" stroke="#191970" points="895.9398,-650.0194 885.8975,-646.6427 891.6422,-655.5449 895.9398,-650.0194"/>
</g>
<!-- Node56 -->
<g id="node57" class="node">
<title>Node56</title>
<g id="a_node57"><a xlink:href="TCollection_8h.html" target="_top" xlink:title="TCollection.h">
<polygon fill="#ffffff" stroke="#000000" points="1165.4997,-571.5 1165.4997,-590.5 1245.4997,-590.5 1245.4997,-571.5 1165.4997,-571.5"/>
<text text-anchor="middle" x="1205.4997" y="-578.5" font-family="Helvetica,sans-Serif" font-size="10.00" fill="#000000">TCollection.h</text>
</a>
</g>
</g>
<!-- Node55&#45;&gt;Node56 -->
<g id="edge93" class="edge">
<title>Node55&#45;&gt;Node56</title>
<path fill="none" stroke="#191970" d="M922.5448,-628.5283C925.5748,-628.0098 928.5785,-627.497 931.4997,-627 1009.4535,-613.7364 1099.9288,-598.5966 1154.9222,-589.4226"/>
<polygon fill="#191970" stroke="#191970" points="1155.812,-592.8227 1165.1,-587.7253 1154.6604,-585.918 1155.812,-592.8227"/>
</g>
<!-- Node56&#45;&gt;Node2 -->
<g id="edge94" class="edge">
<title>Node56&#45;&gt;Node2</title>
<path fill="none" stroke="#191970" d="M1245.7541,-575.7803C1287.6067,-568.3316 1344.7932,-551.3076 1327.4997,-515 1297.6821,-452.398 1213.5665,-427.8214 1162.2015,-418.4681"/>
<polygon fill="#191970" stroke="#191970" points="1162.5258,-414.973 1152.0801,-416.7442 1161.3505,-421.8736 1162.5258,-414.973"/>
</g>
<!-- Node56&#45;&gt;Node27 -->
<g id="edge97" class="edge">
<title>Node56&#45;&gt;Node27</title>
<path fill="none" stroke="#191970" d="M1165.3252,-574.3093C1126.2546,-567.1012 1065.6288,-554.0417 1015.4997,-535 948.2164,-509.4422 936.1704,-492.5602 872.4997,-459 852.2977,-448.3517 829.4401,-436.4065 812.0845,-427.3577"/>
<polygon fill="#191970" stroke="#191970" points="813.5459,-424.1726 803.0603,-422.6552 810.311,-430.3804 813.5459,-424.1726"/>
</g>
<!-- Node57 -->
<g id="node58" class="node">
<title>Node57</title>
<g id="a_node58"><a xlink:href="TIterator_8h.html" target="_top" xlink:title="TIterator.h">
<polygon fill="#ffffff" stroke="#000000" points="1468.9997,-403.5 1468.9997,-422.5 1535.9997,-422.5 1535.9997,-403.5 1468.9997,-403.5"/>
<text text-anchor="middle" x="1502.4997" y="-410.5" font-family="Helvetica,sans-Serif" font-size="10.00" fill="#000000">TIterator.h</text>
</a>
</g>
</g>
<!-- Node56&#45;&gt;Node57 -->
<g id="edge95" class="edge">
<title>Node56&#45;&gt;Node57</title>
<path fill="none" stroke="#191970" d="M1244.9805,-571.4456C1273.1335,-563.761 1311.3585,-551.5183 1342.4997,-535 1399.2348,-504.9059 1457.0019,-455.1134 1485.0566,-429.4377"/>
<polygon fill="#191970" stroke="#191970" points="1487.5036,-431.942 1492.4665,-422.5813 1482.7495,-426.804 1487.5036,-431.942"/>
</g>
<!-- Node58 -->
<g id="node59" class="node">
<title>Node58</title>
<g id="a_node59"><a xlink:href="TVirtualRWMutex_8h.html" target="_top" xlink:title="TVirtualRWMutex.h">
<polygon fill="#ffffff" stroke="#000000" points="1208.4997,-515.5 1208.4997,-534.5 1318.4997,-534.5 1318.4997,-515.5 1208.4997,-515.5"/>
<text text-anchor="middle" x="1263.4997" y="-522.5" font-family="Helvetica,sans-Serif" font-size="10.00" fill="#000000">TVirtualRWMutex.h</text>
</a>
</g>
</g>
<!-- Node56&#45;&gt;Node58 -->
<g id="edge98" class="edge">
<title>Node56&#45;&gt;Node58</title>
<path fill="none" stroke="#191970" d="M1215.6026,-571.2455C1224.0025,-563.1352 1236.1491,-551.4075 1246.1081,-541.7919"/>
<polygon fill="#191970" stroke="#191970" points="1248.7497,-544.1066 1253.5127,-534.6427 1243.8875,-539.0707 1248.7497,-544.1066"/>
</g>
<!-- Node60 -->
<g id="node61" class="node">
<title>Node60</title>
<polygon fill="#ffffff" stroke="#bfbfbf" points="1134.4997,-515.5 1134.4997,-534.5 1190.4997,-534.5 1190.4997,-515.5 1134.4997,-515.5"/>
<text text-anchor="middle" x="1162.4997" y="-522.5" font-family="Helvetica,sans-Serif" font-size="10.00" fill="#000000">assert.h</text>
</g>
<!-- Node56&#45;&gt;Node60 -->
<g id="edge102" class="edge">
<title>Node56&#45;&gt;Node60</title>
<path fill="none" stroke="#191970" d="M1198.0097,-571.2455C1191.9671,-563.3761 1183.3094,-552.101 1176.0556,-542.6542"/>
<polygon fill="#191970" stroke="#191970" points="1178.7703,-540.4426 1169.9039,-534.6427 1173.2182,-544.7058 1178.7703,-540.4426"/>
</g>
<!-- Node57&#45;&gt;Node4 -->
<g id="edge96" class="edge">
<title>Node57&#45;&gt;Node4</title>
<path fill="none" stroke="#191970" d="M1509.8648,-403.3845C1524.9615,-383.6749 1559.615,-338.4328 1578.907,-313.2461"/>
<polygon fill="#191970" stroke="#191970" points="1581.7307,-315.3155 1585.0329,-305.2484 1576.1735,-311.0589 1581.7307,-315.3155"/>
</g>
<!-- Node59 -->
<g id="node60" class="node">
<title>Node59</title>
<g id="a_node60"><a xlink:href="TVirtualMutex_8h.html" target="_top" xlink:title="TVirtualMutex.h">
<polygon fill="#ffffff" stroke="#000000" points="1155.4997,-459.5 1155.4997,-478.5 1249.4997,-478.5 1249.4997,-459.5 1155.4997,-459.5"/>
<text text-anchor="middle" x="1202.4997" y="-466.5" font-family="Helvetica,sans-Serif" font-size="10.00" fill="#000000">TVirtualMutex.h</text>
</a>
</g>
</g>
<!-- Node58&#45;&gt;Node59 -->
<g id="edge99" class="edge">
<title>Node58&#45;&gt;Node59</title>
<path fill="none" stroke="#191970" d="M1252.8743,-515.2455C1243.9524,-507.0549 1231.0117,-495.1749 1220.4805,-485.5069"/>
<polygon fill="#191970" stroke="#191970" points="1222.7369,-482.8271 1213.0034,-478.6427 1218.0029,-487.9837 1222.7369,-482.8271"/>
</g>
<!-- Node59&#45;&gt;Node2 -->
<g id="edge100" class="edge">
<title>Node59&#45;&gt;Node2</title>
<path fill="none" stroke="#191970" d="M1188.2164,-459.2455C1175.7527,-450.7337 1157.4546,-438.2375 1143.0206,-428.3801"/>
<polygon fill="#191970" stroke="#191970" points="1144.8513,-425.392 1134.6194,-422.6427 1140.9035,-431.1726 1144.8513,-425.392"/>
</g>
<!-- Node59&#45;&gt;Node40 -->
<g id="edge101" class="edge">
<title>Node59&#45;&gt;Node40</title>
<path fill="none" stroke="#191970" d="M1155.2986,-459.5867C1105.0913,-447.0987 1026.918,-420.1336 982.4997,-367 939.5292,-315.5982 922.7566,-234.8983 917.0619,-197.8273"/>
<polygon fill="#191970" stroke="#191970" points="920.5093,-197.21 915.6334,-187.8039 913.5794,-198.1977 920.5093,-197.21"/>
</g>
<!-- Node61&#45;&gt;Node2 -->
<g id="edge105" class="edge">
<title>Node61&#45;&gt;Node2</title>
<path fill="none" stroke="#191970" d="M987.1766,-459.3733C1013.8326,-450.1016 1054.3235,-436.0178 1083.6881,-425.804"/>
<polygon fill="#191970" stroke="#191970" points="1084.8889,-429.0921 1093.184,-422.5011 1082.5892,-422.4807 1084.8889,-429.0921"/>
</g>
<!-- Node61&#45;&gt;Node27 -->
<g id="edge106" class="edge">
<title>Node61&#45;&gt;Node27</title>
<path fill="none" stroke="#191970" d="M929.4162,-459.3733C900.3163,-450.0613 856.0474,-435.8953 824.0967,-425.671"/>
<polygon fill="#191970" stroke="#191970" points="824.7817,-422.2155 814.1907,-422.5011 822.6482,-428.8824 824.7817,-422.2155"/>
</g>
<!-- Node65&#45;&gt;Node3 -->
<g id="edge116" class="edge">
<title>Node65&#45;&gt;Node3</title>
<path fill="none" stroke="#191970" d="M2115.7525,-112.3823C2119.9458,-97.9803 2125.0904,-70.9133 2110.4997,-56 2081.2444,-26.0977 1460.0839,-13.7285 1278.7705,-10.7468"/>
<polygon fill="#191970" stroke="#191970" points="1278.7714,-7.2465 1268.716,-10.5837 1278.6578,-14.2455 1278.7714,-7.2465"/>
</g>
<!-- Node65&#45;&gt;Node6 -->
<g id="edge115" class="edge">
<title>Node65&#45;&gt;Node6</title>
<path fill="none" stroke="#191970" d="M2088.7767,-112.3733C2066.3261,-103.2629 2032.4258,-89.5062 2007.3743,-79.3404"/>
<polygon fill="#191970" stroke="#191970" points="2008.4954,-76.0182 1997.9132,-75.5011 2005.8633,-82.5045 2008.4954,-76.0182"/>
</g>
<!-- Node65&#45;&gt;Node8 -->
<g id="edge114" class="edge">
<title>Node65&#45;&gt;Node8</title>
<path fill="none" stroke="#191970" d="M2105.7064,-112.2455C2100.2819,-104.4564 2092.5337,-93.3308 2085.9964,-83.9439"/>
<polygon fill="#191970" stroke="#191970" points="2088.8023,-81.8485 2080.2152,-75.6427 2083.058,-85.849 2088.8023,-81.8485"/>
</g>
<!-- Node66&#45;&gt;Node4 -->
<g id="edge118" class="edge">
<title>Node66&#45;&gt;Node4</title>
<path fill="none" stroke="#191970" d="M1761.6577,-348.5776C1728.1654,-338.0686 1670.6152,-320.0107 1632.0664,-307.9151"/>
<polygon fill="#191970" stroke="#191970" points="1632.8072,-304.4793 1622.218,-304.8249 1630.7115,-311.1582 1632.8072,-304.4793"/>
</g>
<!-- Node66&#45;&gt;Node14 -->
<g id="edge119" class="edge">
<title>Node66&#45;&gt;Node14</title>
<path fill="none" stroke="#191970" d="M1793.4432,-347.3484C1803.886,-326.9601 1828.3468,-279.2033 1841.9494,-252.6459"/>
<polygon fill="#191970" stroke="#191970" points="1845.1355,-254.1028 1846.5792,-243.6068 1838.9052,-250.9116 1845.1355,-254.1028"/>
</g>
<!-- Node67&#45;&gt;Node27 -->
<g id="edge124" class="edge">
<title>Node67&#45;&gt;Node27</title>
<path fill="none" stroke="#191970" d="M594.0853,-683.0411C593.1658,-647.6087 594.8445,-526.1992 656.4997,-459 679.1065,-434.3604 715.8694,-422.9047 744.2096,-417.5867"/>
<polygon fill="#191970" stroke="#191970" points="744.9517,-421.011 754.2279,-415.8921 743.7842,-414.109 744.9517,-421.011"/>
</g>
<!-- Node67&#45;&gt;Node34 -->
<g id="edge125" class="edge">
<title>Node67&#45;&gt;Node34</title>
<path fill="none" stroke="#191970" d="M590.9081,-683.4615C581.753,-658.99 557.0295,-591.9033 539.4997,-535 500.2491,-407.5892 461.489,-251.8947 448.2664,-197.7051"/>
<polygon fill="#191970" stroke="#191970" points="451.6044,-196.6194 445.8414,-187.729 444.8025,-198.2728 451.6044,-196.6194"/>
</g>
<!-- Node67&#45;&gt;Node40 -->
<g id="edge126" class="edge">
<title>Node67&#45;&gt;Node40</title>
<path fill="none" stroke="#191970" d="M594.4997,-683.4116C594.4997,-664.0538 594.4997,-618.9167 594.4997,-581 594.4997,-581 594.4997,-581 594.4997,-525 594.4997,-438.7217 675.3392,-453.214 745.4997,-403 768.9557,-386.2125 779.53,-387.8137 799.4997,-367 850.8093,-313.522 890.1038,-233.2886 906.3464,-197.0129"/>
<polygon fill="#191970" stroke="#191970" points="909.6536,-198.1865 910.4719,-187.6233 903.2449,-195.3706 909.6536,-198.1865"/>
</g>
<!-- Node67&#45;&gt;Node55 -->
<g id="edge123" class="edge">
<title>Node67&#45;&gt;Node55</title>
<path fill="none" stroke="#191970" d="M619.2591,-688.0304C663.0683,-679.2371 755.3184,-660.721 815.8168,-648.5779"/>
<polygon fill="#191970" stroke="#191970" points="816.8666,-651.9371 825.9823,-646.5376 815.489,-645.074 816.8666,-651.9371"/>
</g>
<!-- Node68&#45;&gt;Node4 -->
<g id="edge129" class="edge">
<title>Node68&#45;&gt;Node4</title>
<path fill="none" stroke="#191970" d="M1475.2185,-347.3906C1498.3737,-337.1457 1535.2438,-320.8326 1561.4588,-309.2339"/>
<polygon fill="#191970" stroke="#191970" points="1563.2048,-312.2888 1570.9335,-305.0419 1560.3724,-305.8874 1563.2048,-312.2888"/>
</g>
<!-- Node68&#45;&gt;Node20 -->
<g id="edge128" class="edge">
<title>Node68&#45;&gt;Node20</title>
<path fill="none" stroke="#191970" d="M1419.2898,-347.7637C1327.3292,-322.8355 1080.7638,-255.3008 1066.4997,-244 1036.0801,-219.8998 1053.8232,-192.2211 1023.4997,-168 988.2995,-139.8835 936.1769,-128.9278 902.7747,-124.6752"/>
<polygon fill="#191970" stroke="#191970" points="902.9654,-121.1743 892.6327,-123.5167 902.1709,-128.129 902.9654,-121.1743"/>
</g>
<!-- Node69&#45;&gt;Node4 -->
<g id="edge131" class="edge">
<title>Node69&#45;&gt;Node4</title>
<path fill="none" stroke="#191970" d="M1749.6962,-795.2066C1744.411,-775.8521 1733.4997,-731.2612 1733.4997,-693 1733.4997,-693 1733.4997,-693 1733.4997,-413 1733.4997,-359.6406 1673.1687,-325.8128 1631.4347,-308.7957"/>
<polygon fill="#191970" stroke="#191970" points="1632.6457,-305.5112 1622.0579,-305.1239 1630.0932,-312.0293 1632.6457,-305.5112"/>
</g>
<!-- Node70&#45;&gt;Node51 -->
<g id="edge139" class="edge">
<title>Node70&#45;&gt;Node51</title>
<path fill="none" stroke="#191970" d="M798.4838,-571.4509C804.2181,-553.1013 816.8776,-512.5908 824.4468,-488.3693"/>
<polygon fill="#191970" stroke="#191970" points="827.8811,-489.1137 827.5232,-478.5249 821.1997,-487.0257 827.8811,-489.1137"/>
</g>
<!-- Node70&#45;&gt;Node52 -->
<g id="edge140" class="edge">
<title>Node70&#45;&gt;Node52</title>
<path fill="none" stroke="#191970" d="M787.6613,-571.2455C781.3377,-563.3761 772.2773,-552.101 764.6861,-542.6542"/>
<polygon fill="#191970" stroke="#191970" points="767.2405,-540.2454 758.2483,-534.6427 761.784,-544.6302 767.2405,-540.2454"/>
</g>
<!-- Node71 -->
<g id="node72" class="node">
<title>Node71</title>
<g id="a_node72"><a xlink:href="TSchemaRule_8h.html" target="_top" xlink:title="TSchemaRule.h">
<polygon fill="#ffffff" stroke="#000000" points="1024.4997,-515.5 1024.4997,-534.5 1116.4997,-534.5 1116.4997,-515.5 1024.4997,-515.5"/>
<text text-anchor="middle" x="1070.4997" y="-522.5" font-family="Helvetica,sans-Serif" font-size="10.00" fill="#000000">TSchemaRule.h</text>
</a>
</g>
</g>
<!-- Node70&#45;&gt;Node71 -->
<g id="edge141" class="edge">
<title>Node70&#45;&gt;Node71</title>
<path fill="none" stroke="#191970" d="M842.4614,-571.4369C890.0649,-561.7431 963.7312,-546.742 1014.3817,-536.4277"/>
<polygon fill="#191970" stroke="#191970" points="1015.0899,-539.8554 1024.1904,-534.4303 1013.6931,-532.9961 1015.0899,-539.8554"/>
</g>
<!-- Node71&#45;&gt;Node2 -->
<g id="edge142" class="edge">
<title>Node71&#45;&gt;Node2</title>
<path fill="none" stroke="#191970" d="M1078.9894,-515.442C1086.4509,-506.5734 1097.0911,-492.7124 1103.4997,-479 1110.3883,-464.2608 1114.7813,-446.3146 1117.3723,-432.8585"/>
<polygon fill="#191970" stroke="#191970" points="1120.8596,-433.2348 1119.1401,-422.7804 1113.9649,-432.0253 1120.8596,-433.2348"/>
</g>
<!-- Node71&#45;&gt;Node4 -->
<g id="edge144" class="edge">
<title>Node71&#45;&gt;Node4</title>
<path fill="none" stroke="#191970" d="M1116.7101,-516.5802C1119.6843,-516.0438 1122.6338,-515.5134 1125.4997,-515 1216.1246,-498.7652 1244.0929,-513.3819 1329.4997,-479 1382.5945,-457.6258 1520.0501,-352.2192 1572.1099,-311.5482"/>
<polygon fill="#191970" stroke="#191970" points="1574.5406,-314.0902 1580.2548,-305.1683 1570.2241,-308.5794 1574.5406,-314.0902"/>
</g>
<!-- Node71&#45;&gt;Node18 -->
<g id="edge146" class="edge">
<title>Node71&#45;&gt;Node18</title>
<path fill="none" stroke="#191970" d="M1116.6711,-516.5177C1169.1988,-506.4364 1248.9789,-489.6439 1258.4997,-479 1334.6884,-393.8246 1267.4461,-335.7183 1291.4997,-224 1293.4056,-215.1481 1296.2098,-205.5392 1298.8089,-197.4039"/>
<polygon fill="#191970" stroke="#191970" points="1302.1861,-198.3392 1302.0147,-187.7458 1295.5426,-196.134 1302.1861,-198.3392"/>
</g>
<!-- Node71&#45;&gt;Node27 -->
<g id="edge145" class="edge">
<title>Node71&#45;&gt;Node27</title>
<path fill="none" stroke="#191970" d="M1073.855,-515.1286C1078.0049,-500.8937 1082.9916,-474.6031 1069.4997,-459 1053.6689,-440.692 899.4652,-423.8227 824.7201,-416.6446"/>
<polygon fill="#191970" stroke="#191970" points="825.009,-413.1563 814.7233,-415.6969 824.3483,-420.1251 825.009,-413.1563"/>
</g>
<!-- Node71&#45;&gt;Node51 -->
<g id="edge143" class="edge">
<title>Node71&#45;&gt;Node51</title>
<path fill="none" stroke="#191970" d="M1029.515,-515.4369C986.2914,-505.3514 918.4467,-489.521 874.2181,-479.2009"/>
<polygon fill="#191970" stroke="#191970" points="874.869,-475.7589 864.3352,-476.8949 873.2783,-482.5758 874.869,-475.7589"/>
</g>
<!-- Node72 -->
<g id="node73" class="node">
<title>Node72</title>
<polygon fill="#ffffff" stroke="#bfbfbf" points="1015.9997,-459.5 1015.9997,-478.5 1060.9997,-478.5 1060.9997,-459.5 1015.9997,-459.5"/>
<text text-anchor="middle" x="1038.4997" y="-466.5" font-family="Helvetica,sans-Serif" font-size="10.00" fill="#000000">utility</text>
</g>
<!-- Node71&#45;&gt;Node72 -->
<g id="edge147" class="edge">
<title>Node71&#45;&gt;Node72</title>
<path fill="none" stroke="#191970" d="M1064.9258,-515.2455C1060.5666,-507.617 1054.3787,-496.7881 1049.0864,-487.5267"/>
<polygon fill="#191970" stroke="#191970" points="1052.0101,-485.5886 1044.0098,-478.6427 1045.9324,-489.0616 1052.0101,-485.5886"/>
</g>
<!-- Node73&#45;&gt;Node36 -->
<g id="edge151" class="edge">
<title>Node73&#45;&gt;Node36</title>
<path fill="none" stroke="#191970" d="M1327.3948,-907.9893C1177.15,-872.3091 630.5641,-741.0231 560.4997,-703 313.0246,-568.6983 112.7336,-272.5064 63.9029,-196.2101"/>
<polygon fill="#191970" stroke="#191970" points="66.7893,-194.2262 58.4768,-187.6571 60.8785,-197.9762 66.7893,-194.2262"/>
</g>
<!-- Node74 -->
<g id="node75" class="node">
<title>Node74</title>
<polygon fill="#ffffff" stroke="#bfbfbf" points="2292.9997,-851.5 2292.9997,-870.5 2347.9997,-870.5 2347.9997,-851.5 2292.9997,-851.5"/>
<text text-anchor="middle" x="2320.4997" y="-858.5" font-family="Helvetica,sans-Serif" font-size="10.00" fill="#000000">fstream</text>
</g>
<!-- Node73&#45;&gt;Node74 -->
<g id="edge149" class="edge">
<title>Node73&#45;&gt;Node74</title>
<path fill="none" stroke="#191970" d="M1403.6575,-908.4624C1406.975,-907.8989 1410.2897,-907.3984 1413.4997,-907 1795.3466,-859.6026 1897.363,-923.8047 2278.4997,-871 2279.7944,-870.8206 2281.1075,-870.6193 2282.4307,-870.3998"/>
<polygon fill="#191970" stroke="#191970" points="2283.4752,-873.7627 2292.6276,-868.4257 2282.1446,-866.8903 2283.4752,-873.7627"/>
</g>
<!-- Node75 -->
<g id="node76" class="node">
<title>Node75</title>
<polygon fill="#ffffff" stroke="#bfbfbf" points="2366.4997,-851.5 2366.4997,-870.5 2426.4997,-870.5 2426.4997,-851.5 2366.4997,-851.5"/>
<text text-anchor="middle" x="2396.4997" y="-858.5" font-family="Helvetica,sans-Serif" font-size="10.00" fill="#000000">iostream</text>
</g>
<!-- Node73&#45;&gt;Node75 -->
<g id="edge150" class="edge">
<title>Node73&#45;&gt;Node75</title>
<path fill="none" stroke="#191970" d="M1403.656,-908.4503C1406.9739,-907.8894 1410.289,-907.3929 1413.4997,-907 1826.8943,-856.4164 1940.1979,-930.2758 2356.1981,-870.8683"/>
<polygon fill="#191970" stroke="#191970" points="2356.9984,-874.2891 2366.3947,-869.3942 2355.9968,-867.3611 2356.9984,-874.2891"/>
</g>
</g>
</svg>
