<?xml version="1.0" encoding="UTF-8" standalone="no"?>
<!DOCTYPE svg PUBLIC "-//W3C//DTD SVG 1.1//EN"
 "http://www.w3.org/Graphics/SVG/1.1/DTD/svg11.dtd">
<!-- Generated by graphviz version 2.40.1 (0)
 -->
<!-- Title: math/mathcore/inc/Fit/UnBinData.h Pages: 1 -->
<svg width="3640pt" height="318pt"
 viewBox="0.00 0.00 3640.08 318.00" xmlns="http://www.w3.org/2000/svg" xmlns:xlink="http://www.w3.org/1999/xlink">
<g id="graph0" class="graph" transform="scale(1 1) rotate(0) translate(4 314)">
<title>math/mathcore/inc/Fit/UnBinData.h</title>
<polygon fill="#ffffff" stroke="transparent" points="-4,4 -4,-314 3636.0775,-314 3636.0775,4 -4,4"/>
<!-- Node34 -->
<g id="node1" class="node">
<title>Node34</title>
<polygon fill="#bfbfbf" stroke="#000000" points="2820.0775,-279.5 2820.0775,-309.5 2943.0775,-309.5 2943.0775,-279.5 2820.0775,-279.5"/>
<text text-anchor="start" x="2828.0775" y="-297.5" font-family="Helvetica,sans-Serif" font-size="10.00" fill="#000000">math/mathcore/inc/Fit</text>
<text text-anchor="middle" x="2881.5775" y="-286.5" font-family="Helvetica,sans-Serif" font-size="10.00" fill="#000000">/UnBinData.h</text>
</g>
<!-- Node35 -->
<g id="node2" class="node">
<title>Node35</title>
<g id="a_node2"><a xlink:href="TFitEditor_8cxx.html" target="_top" xlink:title="gui/fitpanel/src/TFitEditor.cxx">
<polygon fill="#ffffff" stroke="#000000" points="868.0775,-6 868.0775,-25 1025.0775,-25 1025.0775,-6 868.0775,-6"/>
<text text-anchor="middle" x="946.5775" y="-13" font-family="Helvetica,sans-Serif" font-size="10.00" fill="#000000">gui/fitpanel/src/TFitEditor.cxx</text>
</a>
</g>
</g>
<!-- Node34&#45;&gt;Node35 -->
<g id="edge1" class="edge">
<title>Node34&#45;&gt;Node35</title>
<path fill="none" stroke="#191970" d="M2809.6696,-292.6236C2374.4348,-280.9251 107.7617,-215.0269 9.5775,-109 -3.1056,-95.3039 -3.2546,-80.5567 9.5775,-67 38.9063,-36.0149 647.7523,-21.2535 867.967,-16.9133"/>
<polygon fill="#191970" stroke="#191970" points="2809.8198,-296.1288 2819.91,-292.8979 2810.0073,-289.1313 2809.8198,-296.1288"/>
</g>
<!-- Node36 -->
<g id="node3" class="node">
<title>Node36</title>
<g id="a_node3"><a xlink:href="HFitImpl_8cxx.html" target="_top" xlink:title="hist/hist/src/HFitImpl.cxx">
<polygon fill="#ffffff" stroke="#000000" points="2211.0775,-78.5 2211.0775,-97.5 2348.0775,-97.5 2348.0775,-78.5 2211.0775,-78.5"/>
<text text-anchor="middle" x="2279.5775" y="-85.5" font-family="Helvetica,sans-Serif" font-size="10.00" fill="#000000">hist/hist/src/HFitImpl.cxx</text>
</a>
</g>
</g>
<!-- Node34&#45;&gt;Node36 -->
<g id="edge2" class="edge">
<title>Node34&#45;&gt;Node36</title>
<path fill="none" stroke="#191970" d="M2809.827,-289.3375C2714.6998,-281.7317 2552.456,-265.8967 2497.5775,-243 2431.7792,-215.5473 2429.08,-185.7494 2370.5775,-145 2345.1846,-127.3128 2314.4602,-108.5968 2295.9956,-97.6232"/>
<polygon fill="#191970" stroke="#191970" points="2809.7054,-292.8387 2819.9497,-290.1361 2810.256,-285.8604 2809.7054,-292.8387"/>
</g>
<!-- Node37 -->
<g id="node4" class="node">
<title>Node37</title>
<g id="a_node4"><a xlink:href="TBackCompFitter_8cxx.html" target="_top" xlink:title="hist/hist/src/TBackCompFitter.cxx">
<polygon fill="#ffffff" stroke="#000000" points="2366.0775,-78.5 2366.0775,-97.5 2545.0775,-97.5 2545.0775,-78.5 2366.0775,-78.5"/>
<text text-anchor="middle" x="2455.5775" y="-85.5" font-family="Helvetica,sans-Serif" font-size="10.00" fill="#000000">hist/hist/src/TBackCompFitter.cxx</text>
</a>
</g>
</g>
<!-- Node34&#45;&gt;Node37 -->
<g id="edge3" class="edge">
<title>Node34&#45;&gt;Node37</title>
<path fill="none" stroke="#191970" d="M2809.8559,-285.4808C2698.075,-269.7873 2490.5278,-233.5246 2446.5775,-176 2428.7693,-152.6917 2442.5441,-115.178 2450.6873,-97.6308"/>
<polygon fill="#191970" stroke="#191970" points="2809.6513,-288.9858 2820.0369,-286.8905 2810.6114,-282.052 2809.6513,-288.9858"/>
</g>
<!-- Node38 -->
<g id="node5" class="node">
<title>Node38</title>
<g id="a_node5"><a xlink:href="Fitter_8h.html" target="_top" xlink:title="math/mathcore/inc/Fit\l/Fitter.h">
<polygon fill="#ffffff" stroke="#000000" points="2108.0775,-212.5 2108.0775,-242.5 2231.0775,-242.5 2231.0775,-212.5 2108.0775,-212.5"/>
<text text-anchor="start" x="2116.0775" y="-230.5" font-family="Helvetica,sans-Serif" font-size="10.00" fill="#000000">math/mathcore/inc/Fit</text>
<text text-anchor="middle" x="2169.5775" y="-219.5" font-family="Helvetica,sans-Serif" font-size="10.00" fill="#000000">/Fitter.h</text>
</a>
</g>
</g>
<!-- Node34&#45;&gt;Node38 -->
<g id="edge4" class="edge">
<title>Node34&#45;&gt;Node38</title>
<path fill="none" stroke="#191970" d="M2809.7563,-287.7416C2669.7564,-274.5674 2362.5897,-245.6627 2231.1883,-233.2977"/>
<polygon fill="#191970" stroke="#191970" points="2809.6635,-291.2482 2819.9474,-288.7005 2810.3193,-284.279 2809.6635,-291.2482"/>
</g>
<!-- Node45 -->
<g id="node12" class="node">
<title>Node45</title>
<g id="a_node12"><a xlink:href="Fitter_8cxx.html" target="_top" xlink:title="math/mathcore/src/Fitter.cxx">
<polygon fill="#ffffff" stroke="#000000" points="2781.5775,-78.5 2781.5775,-97.5 2937.5775,-97.5 2937.5775,-78.5 2781.5775,-78.5"/>
<text text-anchor="middle" x="2859.5775" y="-85.5" font-family="Helvetica,sans-Serif" font-size="10.00" fill="#000000">math/mathcore/src/Fitter.cxx</text>
</a>
</g>
</g>
<!-- Node34&#45;&gt;Node45 -->
<g id="edge45" class="edge">
<title>Node34&#45;&gt;Node45</title>
<path fill="none" stroke="#191970" d="M2953.0077,-276.8911C3034.6131,-253.3554 3150.8866,-207.2726 3101.5775,-145 3081.3137,-119.4088 3000.5198,-104.1603 2937.7941,-95.9662"/>
<polygon fill="#191970" stroke="#191970" points="2951.9136,-273.5631 2943.2411,-279.6491 2953.816,-280.2996 2951.9136,-273.5631"/>
</g>
<!-- Node59 -->
<g id="node26" class="node">
<title>Node59</title>
<g id="a_node26"><a xlink:href="FitUtil_8h.html" target="_top" xlink:title="math/mathcore/inc/Fit\l/FitUtil.h">
<polygon fill="#ffffff" stroke="#000000" points="2730.0775,-212.5 2730.0775,-242.5 2853.0775,-242.5 2853.0775,-212.5 2730.0775,-212.5"/>
<text text-anchor="start" x="2738.0775" y="-230.5" font-family="Helvetica,sans-Serif" font-size="10.00" fill="#000000">math/mathcore/inc/Fit</text>
<text text-anchor="middle" x="2791.5775" y="-219.5" font-family="Helvetica,sans-Serif" font-size="10.00" fill="#000000">/FitUtil.h</text>
</a>
</g>
</g>
<!-- Node34&#45;&gt;Node59 -->
<g id="edge29" class="edge">
<title>Node34&#45;&gt;Node59</title>
<path fill="none" stroke="#191970" d="M2852.7833,-273.0643C2839.4759,-263.1577 2823.9862,-251.6265 2811.919,-242.6432"/>
<polygon fill="#191970" stroke="#191970" points="2851.0437,-276.1327 2861.1551,-279.2967 2855.2237,-270.5177 2851.0437,-276.1327"/>
</g>
<!-- Node62 -->
<g id="node29" class="node">
<title>Node62</title>
<g id="a_node29"><a xlink:href="LogLikelihoodFCN_8h.html" target="_top" xlink:title="math/mathcore/inc/Fit\l/LogLikelihoodFCN.h">
<polygon fill="#ffffff" stroke="#000000" points="2790.0775,-145.5 2790.0775,-175.5 2913.0775,-175.5 2913.0775,-145.5 2790.0775,-145.5"/>
<text text-anchor="start" x="2798.0775" y="-163.5" font-family="Helvetica,sans-Serif" font-size="10.00" fill="#000000">math/mathcore/inc/Fit</text>
<text text-anchor="middle" x="2851.5775" y="-152.5" font-family="Helvetica,sans-Serif" font-size="10.00" fill="#000000">/LogLikelihoodFCN.h</text>
</a>
</g>
</g>
<!-- Node34&#45;&gt;Node62 -->
<g id="edge43" class="edge">
<title>Node34&#45;&gt;Node62</title>
<path fill="none" stroke="#191970" d="M2875.945,-269.3415C2869.7819,-241.8131 2860.1009,-198.5714 2854.9942,-175.7614"/>
<polygon fill="#191970" stroke="#191970" points="2872.5942,-270.3952 2878.1944,-279.389 2879.4251,-268.8659 2872.5942,-270.3952"/>
</g>
<!-- Node64 -->
<g id="node31" class="node">
<title>Node64</title>
<g id="a_node31"><a xlink:href="FitUtil_8cxx.html" target="_top" xlink:title="math/mathcore/src/FitUtil.cxx">
<polygon fill="#ffffff" stroke="#000000" points="2931.0775,-151 2931.0775,-170 3092.0775,-170 3092.0775,-151 2931.0775,-151"/>
<text text-anchor="middle" x="3011.5775" y="-158" font-family="Helvetica,sans-Serif" font-size="10.00" fill="#000000">math/mathcore/src/FitUtil.cxx</text>
</a>
</g>
</g>
<!-- Node34&#45;&gt;Node64 -->
<g id="edge46" class="edge">
<title>Node34&#45;&gt;Node64</title>
<path fill="none" stroke="#191970" d="M2903.4376,-271.9673C2932.2727,-242.2449 2981.7582,-191.2368 3002.26,-170.1042"/>
<polygon fill="#191970" stroke="#191970" points="2900.6885,-269.7745 2896.2374,-279.389 2905.7127,-274.6487 2900.6885,-269.7745"/>
</g>
<!-- Node65 -->
<g id="node32" class="node">
<title>Node65</title>
<g id="a_node32"><a xlink:href="DistSampler_8cxx.html" target="_top" xlink:title="math/mathcore/src/DistSampler.cxx">
<polygon fill="#ffffff" stroke="#000000" points="3113.0775,-218 3113.0775,-237 3304.0775,-237 3304.0775,-218 3113.0775,-218"/>
<text text-anchor="middle" x="3208.5775" y="-225" font-family="Helvetica,sans-Serif" font-size="10.00" fill="#000000">math/mathcore/src/DistSampler.cxx</text>
</a>
</g>
</g>
<!-- Node34&#45;&gt;Node65 -->
<g id="edge44" class="edge">
<title>Node34&#45;&gt;Node65</title>
<path fill="none" stroke="#191970" d="M2953.035,-279.8589C3016.572,-266.8406 3107.6142,-248.1867 3162.1386,-237.015"/>
<polygon fill="#191970" stroke="#191970" points="2952.1776,-276.4617 2943.0837,-281.8978 2953.5827,-283.3193 2952.1776,-276.4617"/>
</g>
<!-- Node66 -->
<g id="node33" class="node">
<title>Node66</title>
<g id="a_node33"><a xlink:href="UnBinData_8cxx.html" target="_top" xlink:title="math/mathcore/src/UnBinData.cxx">
<polygon fill="#ffffff" stroke="#000000" points="3322.0775,-218 3322.0775,-237 3507.0775,-237 3507.0775,-218 3322.0775,-218"/>
<text text-anchor="middle" x="3414.5775" y="-225" font-family="Helvetica,sans-Serif" font-size="10.00" fill="#000000">math/mathcore/src/UnBinData.cxx</text>
</a>
</g>
</g>
<!-- Node34&#45;&gt;Node66 -->
<g id="edge47" class="edge">
<title>Node34&#45;&gt;Node66</title>
<path fill="none" stroke="#191970" d="M2953.3329,-286.693C3039.125,-277.1862 3187.0059,-260.2517 3313.5775,-243 3326.9364,-241.1792 3341.265,-239.0734 3354.8103,-237.0123"/>
<polygon fill="#191970" stroke="#191970" points="2952.7387,-283.2373 2943.1839,-287.8151 2953.508,-290.1949 2952.7387,-283.2373"/>
</g>
<!-- Node67 -->
<g id="node34" class="node">
<title>Node67</title>
<g id="a_node34"><a xlink:href="TTreePlayer_8cxx.html" target="_top" xlink:title="tree/treeplayer/src\l/TTreePlayer.cxx">
<polygon fill="#ffffff" stroke="#000000" points="3525.0775,-212.5 3525.0775,-242.5 3632.0775,-242.5 3632.0775,-212.5 3525.0775,-212.5"/>
<text text-anchor="start" x="3533.0775" y="-230.5" font-family="Helvetica,sans-Serif" font-size="10.00" fill="#000000">tree/treeplayer/src</text>
<text text-anchor="middle" x="3578.5775" y="-219.5" font-family="Helvetica,sans-Serif" font-size="10.00" fill="#000000">/TTreePlayer.cxx</text>
</a>
</g>
</g>
<!-- Node34&#45;&gt;Node67 -->
<g id="edge48" class="edge">
<title>Node34&#45;&gt;Node67</title>
<path fill="none" stroke="#191970" d="M2953.292,-292.5131C3071.4197,-288.3854 3314.024,-276.3018 3516.5775,-243 3519.3145,-242.55 3522.1083,-242.0401 3524.9215,-241.4862"/>
<polygon fill="#191970" stroke="#191970" points="2953.1595,-289.0155 2943.2845,-292.8541 2953.398,-296.0114 2953.1595,-289.0155"/>
</g>
<!-- Node38&#45;&gt;Node36 -->
<g id="edge12" class="edge">
<title>Node38&#45;&gt;Node36</title>
<path fill="none" stroke="#191970" d="M2170.3952,-202.3409C2172.0815,-184.8483 2176.6459,-161.7561 2188.5775,-145 2204.7972,-122.2218 2233.2518,-106.5674 2254.035,-97.5089"/>
<polygon fill="#191970" stroke="#191970" points="2166.898,-202.1783 2169.677,-212.4021 2173.8803,-202.6768 2166.898,-202.1783"/>
</g>
<!-- Node39 -->
<g id="node6" class="node">
<title>Node39</title>
<g id="a_node6"><a xlink:href="TBackCompFitter_8h.html" target="_top" xlink:title="hist/hist/inc/TBackCompFitter.h">
<polygon fill="#ffffff" stroke="#000000" points="1783.0775,-151 1783.0775,-170 1950.0775,-170 1950.0775,-151 1783.0775,-151"/>
<text text-anchor="middle" x="1866.5775" y="-158" font-family="Helvetica,sans-Serif" font-size="10.00" fill="#000000">hist/hist/inc/TBackCompFitter.h</text>
</a>
</g>
</g>
<!-- Node38&#45;&gt;Node39 -->
<g id="edge5" class="edge">
<title>Node38&#45;&gt;Node39</title>
<path fill="none" stroke="#191970" d="M2097.9706,-211.6661C2039.433,-198.7222 1958.605,-180.8493 1909.6061,-170.0146"/>
<polygon fill="#191970" stroke="#191970" points="2097.3758,-215.1191 2107.8957,-213.8608 2098.8872,-208.2842 2097.3758,-215.1191"/>
</g>
<!-- Node43 -->
<g id="node10" class="node">
<title>Node43</title>
<g id="a_node10"><a xlink:href="TBinomialEfficiencyFitter_8cxx.html" target="_top" xlink:title="hist/hist/src/TBinomialEfficiency\lFitter.cxx">
<polygon fill="#ffffff" stroke="#000000" points="1968.0775,-145.5 1968.0775,-175.5 2141.0775,-175.5 2141.0775,-145.5 1968.0775,-145.5"/>
<text text-anchor="start" x="1976.0775" y="-163.5" font-family="Helvetica,sans-Serif" font-size="10.00" fill="#000000">hist/hist/src/TBinomialEfficiency</text>
<text text-anchor="middle" x="2054.5775" y="-152.5" font-family="Helvetica,sans-Serif" font-size="10.00" fill="#000000">Fitter.cxx</text>
</a>
</g>
</g>
<!-- Node38&#45;&gt;Node43 -->
<g id="edge13" class="edge">
<title>Node38&#45;&gt;Node43</title>
<path fill="none" stroke="#191970" d="M2135.0021,-207.3561C2117.5692,-197.1995 2096.7744,-185.0843 2080.6975,-175.7177"/>
<polygon fill="#191970" stroke="#191970" points="2133.3668,-210.454 2143.7692,-212.4639 2136.8906,-204.4056 2133.3668,-210.454"/>
</g>
<!-- Node44 -->
<g id="node11" class="node">
<title>Node44</title>
<g id="a_node11"><a xlink:href="TFractionFitter_8cxx.html" target="_top" xlink:title="hist/hist/src/TFractionFitter.cxx">
<polygon fill="#ffffff" stroke="#000000" points="2197.5775,-151 2197.5775,-170 2361.5775,-170 2361.5775,-151 2197.5775,-151"/>
<text text-anchor="middle" x="2279.5775" y="-158" font-family="Helvetica,sans-Serif" font-size="10.00" fill="#000000">hist/hist/src/TFractionFitter.cxx</text>
</a>
</g>
</g>
<!-- Node38&#45;&gt;Node44 -->
<g id="edge14" class="edge">
<title>Node38&#45;&gt;Node44</title>
<path fill="none" stroke="#191970" d="M2202.8889,-207.2103C2223.1066,-194.8959 2247.98,-179.7457 2263.8098,-170.1039"/>
<polygon fill="#191970" stroke="#191970" points="2200.9834,-204.2727 2194.2636,-212.4639 2204.6248,-210.2511 2200.9834,-204.2727"/>
</g>
<!-- Node38&#45;&gt;Node45 -->
<g id="edge15" class="edge">
<title>Node38&#45;&gt;Node45</title>
<path fill="none" stroke="#191970" d="M2241.4085,-226.1573C2374.3479,-222.8355 2653.3296,-211.7111 2742.5775,-176 2763.1349,-167.7743 2763.9685,-158.4237 2781.5775,-145 2803.9859,-127.9175 2830.5751,-108.7079 2846.2073,-97.5199"/>
<polygon fill="#191970" stroke="#191970" points="2241.2342,-222.6604 2231.3218,-226.4014 2241.4035,-229.6584 2241.2342,-222.6604"/>
</g>
<!-- Node46 -->
<g id="node13" class="node">
<title>Node46</title>
<g id="a_node13"><a xlink:href="RooMinimizer_8h.html" target="_top" xlink:title="roofit/roofitcore/inc\l/RooMinimizer.h">
<polygon fill="#ffffff" stroke="#000000" points="889.0775,-145.5 889.0775,-175.5 998.0775,-175.5 998.0775,-145.5 889.0775,-145.5"/>
<text text-anchor="start" x="897.0775" y="-163.5" font-family="Helvetica,sans-Serif" font-size="10.00" fill="#000000">roofit/roofitcore/inc</text>
<text text-anchor="middle" x="943.5775" y="-152.5" font-family="Helvetica,sans-Serif" font-size="10.00" fill="#000000">/RooMinimizer.h</text>
</a>
</g>
</g>
<!-- Node38&#45;&gt;Node46 -->
<g id="edge16" class="edge">
<title>Node38&#45;&gt;Node46</title>
<path fill="none" stroke="#191970" d="M2097.6531,-223.5694C1874.3331,-211.3651 1196.0064,-174.2951 998.2402,-163.4873"/>
<polygon fill="#191970" stroke="#191970" points="2097.7636,-227.0806 2107.9397,-224.1315 2098.1457,-220.091 2097.7636,-227.0806"/>
</g>
<!-- Node39&#45;&gt;Node36 -->
<g id="edge9" class="edge">
<title>Node39&#45;&gt;Node36</title>
<path fill="none" stroke="#191970" d="M1931.0664,-149.1793C2012.051,-134.9629 2149.5463,-110.8263 2225.3682,-97.5162"/>
<polygon fill="#191970" stroke="#191970" points="1930.2389,-145.771 1920.9947,-150.9473 1931.4493,-152.6655 1930.2389,-145.771"/>
</g>
<!-- Node39&#45;&gt;Node37 -->
<g id="edge10" class="edge">
<title>Node39&#45;&gt;Node37</title>
<path fill="none" stroke="#191970" d="M1929.5159,-149.3543C1939.5526,-147.7663 1949.8363,-146.2505 1959.5775,-145 2135.7428,-122.3846 2181.9781,-135.656 2357.5775,-109 2377.0169,-106.0491 2398.3892,-101.6116 2416.2005,-97.575"/>
<polygon fill="#191970" stroke="#191970" points="1928.9038,-145.9078 1919.5907,-150.9593 1930.0212,-152.818 1928.9038,-145.9078"/>
</g>
<!-- Node40 -->
<g id="node7" class="node">
<title>Node40</title>
<g id="a_node7"><a xlink:href="TAdvancedGraphicsDialog_8h.html" target="_top" xlink:title="gui/fitpanel/inc/TAdvanced\lGraphicsDialog.h">
<polygon fill="#ffffff" stroke="#000000" points="1999.0775,-73 1999.0775,-103 2144.0775,-103 2144.0775,-73 1999.0775,-73"/>
<text text-anchor="start" x="2007.0775" y="-91" font-family="Helvetica,sans-Serif" font-size="10.00" fill="#000000">gui/fitpanel/inc/TAdvanced</text>
<text text-anchor="middle" x="2071.5775" y="-80" font-family="Helvetica,sans-Serif" font-size="10.00" fill="#000000">GraphicsDialog.h</text>
</a>
</g>
</g>
<!-- Node39&#45;&gt;Node40 -->
<g id="edge6" class="edge">
<title>Node39&#45;&gt;Node40</title>
<path fill="none" stroke="#191970" d="M1903.2354,-147.5356C1938.4822,-135.0703 1991.7393,-116.2355 2028.8825,-103.0995"/>
<polygon fill="#191970" stroke="#191970" points="1902.0607,-144.2386 1893.7999,-150.8726 1904.3947,-150.838 1902.0607,-144.2386"/>
</g>
<!-- Node42 -->
<g id="node9" class="node">
<title>Node42</title>
<g id="a_node9"><a xlink:href="TF1Helper_8cxx.html" target="_top" xlink:title="hist/hist/src/TF1Helper.cxx">
<polygon fill="#ffffff" stroke="#000000" points="1836.0775,-78.5 1836.0775,-97.5 1981.0775,-97.5 1981.0775,-78.5 1836.0775,-78.5"/>
<text text-anchor="middle" x="1908.5775" y="-85.5" font-family="Helvetica,sans-Serif" font-size="10.00" fill="#000000">hist/hist/src/TF1Helper.cxx</text>
</a>
</g>
</g>
<!-- Node39&#45;&gt;Node42 -->
<g id="edge11" class="edge">
<title>Node39&#45;&gt;Node42</title>
<path fill="none" stroke="#191970" d="M1877.3873,-141.8401C1885.5762,-127.7046 1896.4938,-108.8588 1903.0029,-97.6228"/>
<polygon fill="#191970" stroke="#191970" points="1874.226,-140.3149 1872.2418,-150.7223 1880.2831,-143.8239 1874.226,-140.3149"/>
</g>
<!-- Node40&#45;&gt;Node35 -->
<g id="edge8" class="edge">
<title>Node40&#45;&gt;Node35</title>
<path fill="none" stroke="#191970" d="M2009.9198,-70.6293C2003.4266,-69.2162 1996.8918,-67.9639 1990.5775,-67 1804.5701,-38.6057 1234.849,-22.4195 1025.1324,-17.295"/>
<polygon fill="#191970" stroke="#191970" points="2009.521,-74.1291 2020.0515,-72.9641 2011.0929,-67.3078 2009.521,-74.1291"/>
</g>
<!-- Node41 -->
<g id="node8" class="node">
<title>Node41</title>
<g id="a_node8"><a xlink:href="TAdvancedGraphicsDialog_8cxx.html" target="_top" xlink:title="gui/fitpanel/src/TAdvanced\lGraphicsDialog.cxx">
<polygon fill="#ffffff" stroke="#000000" points="1999.0775,-.5 1999.0775,-30.5 2144.0775,-30.5 2144.0775,-.5 1999.0775,-.5"/>
<text text-anchor="start" x="2007.0775" y="-18.5" font-family="Helvetica,sans-Serif" font-size="10.00" fill="#000000">gui/fitpanel/src/TAdvanced</text>
<text text-anchor="middle" x="2071.5775" y="-7.5" font-family="Helvetica,sans-Serif" font-size="10.00" fill="#000000">GraphicsDialog.cxx</text>
</a>
</g>
</g>
<!-- Node40&#45;&gt;Node41 -->
<g id="edge7" class="edge">
<title>Node40&#45;&gt;Node41</title>
<path fill="none" stroke="#191970" d="M2071.5775,-62.8409C2071.5775,-52.0601 2071.5775,-39.8309 2071.5775,-30.5028"/>
<polygon fill="#191970" stroke="#191970" points="2068.0776,-62.9779 2071.5775,-72.978 2075.0776,-62.978 2068.0776,-62.9779"/>
</g>
<!-- Node47 -->
<g id="node14" class="node">
<title>Node47</title>
<g id="a_node14"><a xlink:href="Helper_8cxx.html" target="_top" xlink:title="roofit/histfactory\l/src/Helper.cxx">
<polygon fill="#ffffff" stroke="#000000" points="384.5775,-73 384.5775,-103 482.5775,-103 482.5775,-73 384.5775,-73"/>
<text text-anchor="start" x="392.5775" y="-91" font-family="Helvetica,sans-Serif" font-size="10.00" fill="#000000">roofit/histfactory</text>
<text text-anchor="middle" x="433.5775" y="-80" font-family="Helvetica,sans-Serif" font-size="10.00" fill="#000000">/src/Helper.cxx</text>
</a>
</g>
</g>
<!-- Node46&#45;&gt;Node47 -->
<g id="edge17" class="edge">
<title>Node46&#45;&gt;Node47</title>
<path fill="none" stroke="#191970" d="M878.6061,-157.7357C790.2495,-152.9254 627.7178,-140.3322 492.5775,-109 485.7988,-107.4284 478.722,-105.3301 471.9198,-103.0666"/>
<polygon fill="#191970" stroke="#191970" points="878.5754,-161.2388 888.7461,-158.2711 878.9446,-154.2486 878.5754,-161.2388"/>
</g>
<!-- Node48 -->
<g id="node15" class="node">
<title>Node48</title>
<g id="a_node15"><a xlink:href="RooAbsPdf_8cxx.html" target="_top" xlink:title="roofit/roofitcore/src\l/RooAbsPdf.cxx">
<polygon fill="#ffffff" stroke="#000000" points="501.0775,-73 501.0775,-103 610.0775,-103 610.0775,-73 501.0775,-73"/>
<text text-anchor="start" x="509.0775" y="-91" font-family="Helvetica,sans-Serif" font-size="10.00" fill="#000000">roofit/roofitcore/src</text>
<text text-anchor="middle" x="555.5775" y="-80" font-family="Helvetica,sans-Serif" font-size="10.00" fill="#000000">/RooAbsPdf.cxx</text>
</a>
</g>
</g>
<!-- Node46&#45;&gt;Node48 -->
<g id="edge18" class="edge">
<title>Node46&#45;&gt;Node48</title>
<path fill="none" stroke="#191970" d="M878.6524,-153.2717C812.8071,-145.2205 708.2526,-130.4508 619.5775,-109 612.6441,-107.3228 605.3812,-105.2526 598.3393,-103.0718"/>
<polygon fill="#191970" stroke="#191970" points="878.5321,-156.7825 888.8795,-154.5062 879.371,-149.8329 878.5321,-156.7825"/>
</g>
<!-- Node49 -->
<g id="node16" class="node">
<title>Node49</title>
<g id="a_node16"><a xlink:href="RooAbsReal_8cxx.html" target="_top" xlink:title="roofit/roofitcore/src\l/RooAbsReal.cxx">
<polygon fill="#ffffff" stroke="#000000" points="628.0775,-73 628.0775,-103 737.0775,-103 737.0775,-73 628.0775,-73"/>
<text text-anchor="start" x="636.0775" y="-91" font-family="Helvetica,sans-Serif" font-size="10.00" fill="#000000">roofit/roofitcore/src</text>
<text text-anchor="middle" x="682.5775" y="-80" font-family="Helvetica,sans-Serif" font-size="10.00" fill="#000000">/RooAbsReal.cxx</text>
</a>
</g>
</g>
<!-- Node46&#45;&gt;Node49 -->
<g id="edge19" class="edge">
<title>Node46&#45;&gt;Node49</title>
<path fill="none" stroke="#191970" d="M878.9181,-144.6604C840.3375,-134.9453 790.4698,-121.925 746.5775,-109 740.2955,-107.1502 733.6995,-105.1047 727.2273,-103.0378"/>
<polygon fill="#191970" stroke="#191970" points="878.4273,-148.1457 888.9783,-147.1833 880.1301,-141.3559 878.4273,-148.1457"/>
</g>
<!-- Node50 -->
<g id="node17" class="node">
<title>Node50</title>
<g id="a_node17"><a xlink:href="RooMinimizer_8cxx.html" target="_top" xlink:title=" &#160;">
<polygon fill="#ffffff" stroke="#000000" points="755.0775,-73 755.0775,-103 864.0775,-103 864.0775,-73 755.0775,-73"/>
<text text-anchor="start" x="763.0775" y="-91" font-family="Helvetica,sans-Serif" font-size="10.00" fill="#000000">roofit/roofitcore/src</text>
<text text-anchor="middle" x="809.5775" y="-80" font-family="Helvetica,sans-Serif" font-size="10.00" fill="#000000">/RooMinimizer.cxx</text>
</a>
</g>
</g>
<!-- Node46&#45;&gt;Node50 -->
<g id="edge20" class="edge">
<title>Node46&#45;&gt;Node50</title>
<path fill="none" stroke="#191970" d="M906.7793,-140.5905C884.8338,-128.717 857.4212,-113.8856 837.3068,-103.0028"/>
<polygon fill="#191970" stroke="#191970" points="905.3518,-143.7976 915.8126,-145.478 908.6829,-137.641 905.3518,-143.7976"/>
</g>
<!-- Node51 -->
<g id="node18" class="node">
<title>Node51</title>
<g id="a_node18"><a xlink:href="RooMinimizerFcn_8cxx.html" target="_top" xlink:title="roofit/roofitcore/src\l/RooMinimizerFcn.cxx">
<polygon fill="#ffffff" stroke="#000000" points="882.5775,-73 882.5775,-103 1004.5775,-103 1004.5775,-73 882.5775,-73"/>
<text text-anchor="start" x="890.5775" y="-91" font-family="Helvetica,sans-Serif" font-size="10.00" fill="#000000">roofit/roofitcore/src</text>
<text text-anchor="middle" x="943.5775" y="-80" font-family="Helvetica,sans-Serif" font-size="10.00" fill="#000000">/RooMinimizerFcn.cxx</text>
</a>
</g>
</g>
<!-- Node46&#45;&gt;Node51 -->
<g id="edge21" class="edge">
<title>Node46&#45;&gt;Node51</title>
<path fill="none" stroke="#191970" d="M943.5775,-135.3409C943.5775,-124.5601 943.5775,-112.3309 943.5775,-103.0028"/>
<polygon fill="#191970" stroke="#191970" points="940.0776,-135.4779 943.5775,-145.478 947.0776,-135.478 940.0776,-135.4779"/>
</g>
<!-- Node52 -->
<g id="node19" class="node">
<title>Node52</title>
<g id="a_node19"><a xlink:href="RooProfileLL_8cxx.html" target="_top" xlink:title=" &#160;">
<polygon fill="#ffffff" stroke="#000000" points="1023.0775,-73 1023.0775,-103 1132.0775,-103 1132.0775,-73 1023.0775,-73"/>
<text text-anchor="start" x="1031.0775" y="-91" font-family="Helvetica,sans-Serif" font-size="10.00" fill="#000000">roofit/roofitcore/src</text>
<text text-anchor="middle" x="1077.5775" y="-80" font-family="Helvetica,sans-Serif" font-size="10.00" fill="#000000">/RooProfileLL.cxx</text>
</a>
</g>
</g>
<!-- Node46&#45;&gt;Node52 -->
<g id="edge22" class="edge">
<title>Node46&#45;&gt;Node52</title>
<path fill="none" stroke="#191970" d="M980.3756,-140.5905C1002.3212,-128.717 1029.7338,-113.8856 1049.8482,-103.0028"/>
<polygon fill="#191970" stroke="#191970" points="978.472,-137.641 971.3424,-145.478 981.8031,-143.7976 978.472,-137.641"/>
</g>
<!-- Node53 -->
<g id="node20" class="node">
<title>Node53</title>
<g id="a_node20"><a xlink:href="MaxLikelihoodEstimateTestStat_8h.html" target="_top" xlink:title="roofit/roostats/inc\l/RooStats/MaxLikelihoodEstimate\lTestStat.h">
<polygon fill="#ffffff" stroke="#000000" points="1150.0775,-67.5 1150.0775,-108.5 1329.0775,-108.5 1329.0775,-67.5 1150.0775,-67.5"/>
<text text-anchor="start" x="1158.0775" y="-96.5" font-family="Helvetica,sans-Serif" font-size="10.00" fill="#000000">roofit/roostats/inc</text>
<text text-anchor="start" x="1158.0775" y="-85.5" font-family="Helvetica,sans-Serif" font-size="10.00" fill="#000000">/RooStats/MaxLikelihoodEstimate</text>
<text text-anchor="middle" x="1239.5775" y="-74.5" font-family="Helvetica,sans-Serif" font-size="10.00" fill="#000000">TestStat.h</text>
</a>
</g>
</g>
<!-- Node46&#45;&gt;Node53 -->
<g id="edge23" class="edge">
<title>Node46&#45;&gt;Node53</title>
<path fill="none" stroke="#191970" d="M1008.0745,-144.7026C1051.4301,-134.0834 1108.9963,-119.9836 1155.8775,-108.5008"/>
<polygon fill="#191970" stroke="#191970" points="1007.0936,-141.3393 998.2134,-147.1179 1008.759,-148.1383 1007.0936,-141.3393"/>
</g>
<!-- Node54 -->
<g id="node21" class="node">
<title>Node54</title>
<g id="a_node21"><a xlink:href="MinNLLTestStat_8h.html" target="_top" xlink:title="roofit/roostats/inc\l/RooStats/MinNLLTestStat.h">
<polygon fill="#ffffff" stroke="#000000" points="1347.0775,-73 1347.0775,-103 1494.0775,-103 1494.0775,-73 1347.0775,-73"/>
<text text-anchor="start" x="1355.0775" y="-91" font-family="Helvetica,sans-Serif" font-size="10.00" fill="#000000">roofit/roostats/inc</text>
<text text-anchor="middle" x="1420.5775" y="-80" font-family="Helvetica,sans-Serif" font-size="10.00" fill="#000000">/RooStats/MinNLLTestStat.h</text>
</a>
</g>
</g>
<!-- Node46&#45;&gt;Node54 -->
<g id="edge24" class="edge">
<title>Node46&#45;&gt;Node54</title>
<path fill="none" stroke="#191970" d="M1008.4492,-154.4756C1087.0285,-146.6192 1223.2168,-131.2075 1338.5775,-109 1347.3801,-107.3054 1356.6436,-105.2261 1365.6484,-103.0416"/>
<polygon fill="#191970" stroke="#191970" points="1007.8272,-151.02 998.2206,-155.4881 1008.5167,-157.986 1007.8272,-151.02"/>
</g>
<!-- Node55 -->
<g id="node22" class="node">
<title>Node55</title>
<g id="a_node22"><a xlink:href="AsymptoticCalculator_8cxx.html" target="_top" xlink:title="roofit/roostats/src\l/AsymptoticCalculator.cxx">
<polygon fill="#ffffff" stroke="#000000" points="1512.5775,-73 1512.5775,-103 1656.5775,-103 1656.5775,-73 1512.5775,-73"/>
<text text-anchor="start" x="1520.5775" y="-91" font-family="Helvetica,sans-Serif" font-size="10.00" fill="#000000">roofit/roostats/src</text>
<text text-anchor="middle" x="1584.5775" y="-80" font-family="Helvetica,sans-Serif" font-size="10.00" fill="#000000">/AsymptoticCalculator.cxx</text>
</a>
</g>
</g>
<!-- Node46&#45;&gt;Node55 -->
<g id="edge25" class="edge">
<title>Node46&#45;&gt;Node55</title>
<path fill="none" stroke="#191970" d="M1008.5246,-157.9437C1113.3454,-153.0543 1326.026,-139.9699 1503.5775,-109 1512.7367,-107.4024 1522.3789,-105.2911 1531.69,-103.0228"/>
<polygon fill="#191970" stroke="#191970" points="1008.2471,-154.4527 998.4172,-158.4053 1008.5665,-161.4454 1008.2471,-154.4527"/>
</g>
<!-- Node56 -->
<g id="node23" class="node">
<title>Node56</title>
<g id="a_node23"><a xlink:href="FrequentistCalculator_8cxx.html" target="_top" xlink:title="roofit/roostats/src\l/FrequentistCalculator.cxx">
<polygon fill="#ffffff" stroke="#000000" points="1675.0775,-73 1675.0775,-103 1818.0775,-103 1818.0775,-73 1675.0775,-73"/>
<text text-anchor="start" x="1683.0775" y="-91" font-family="Helvetica,sans-Serif" font-size="10.00" fill="#000000">roofit/roostats/src</text>
<text text-anchor="middle" x="1746.5775" y="-80" font-family="Helvetica,sans-Serif" font-size="10.00" fill="#000000">/FrequentistCalculator.cxx</text>
</a>
</g>
</g>
<!-- Node46&#45;&gt;Node56 -->
<g id="edge26" class="edge">
<title>Node46&#45;&gt;Node56</title>
<path fill="none" stroke="#191970" d="M1008.3303,-157.3992C1160.9819,-149.8437 1539.9571,-129.5874 1665.5775,-109 1674.896,-107.4728 1684.7044,-105.3673 1694.1531,-103.0757"/>
<polygon fill="#191970" stroke="#191970" points="1007.9877,-153.9117 998.1721,-157.8997 1008.3323,-160.9033 1007.9877,-153.9117"/>
</g>
<!-- Node57 -->
<g id="node24" class="node">
<title>Node57</title>
<g id="a_node24"><a xlink:href="ProfileLikelihoodCalculator_8cxx.html" target="_top" xlink:title="roofit/roostats/src\l/ProfileLikelihoodCalculator.cxx">
<polygon fill="#ffffff" stroke="#000000" points="18.5775,-73 18.5775,-103 188.5775,-103 188.5775,-73 18.5775,-73"/>
<text text-anchor="start" x="26.5775" y="-91" font-family="Helvetica,sans-Serif" font-size="10.00" fill="#000000">roofit/roostats/src</text>
<text text-anchor="middle" x="103.5775" y="-80" font-family="Helvetica,sans-Serif" font-size="10.00" fill="#000000">/ProfileLikelihoodCalculator.cxx</text>
</a>
</g>
</g>
<!-- Node46&#45;&gt;Node57 -->
<g id="edge27" class="edge">
<title>Node46&#45;&gt;Node57</title>
<path fill="none" stroke="#191970" d="M878.8198,-159.3116C748.9606,-156.2064 447.7461,-145.3674 197.5775,-109 186.8214,-107.4364 175.4674,-105.3129 164.5125,-103.0148"/>
<polygon fill="#191970" stroke="#191970" points="878.9102,-162.8145 888.9887,-159.5472 879.0725,-155.8164 878.9102,-162.8145"/>
</g>
<!-- Node58 -->
<g id="node25" class="node">
<title>Node58</title>
<g id="a_node25"><a xlink:href="ProfileLikelihoodTestStat_8cxx.html" target="_top" xlink:title="roofit/roostats/src\l/ProfileLikelihoodTestStat.cxx">
<polygon fill="#ffffff" stroke="#000000" points="206.5775,-73 206.5775,-103 366.5775,-103 366.5775,-73 206.5775,-73"/>
<text text-anchor="start" x="214.5775" y="-91" font-family="Helvetica,sans-Serif" font-size="10.00" fill="#000000">roofit/roostats/src</text>
<text text-anchor="middle" x="286.5775" y="-80" font-family="Helvetica,sans-Serif" font-size="10.00" fill="#000000">/ProfileLikelihoodTestStat.cxx</text>
</a>
</g>
</g>
<!-- Node46&#45;&gt;Node58 -->
<g id="edge28" class="edge">
<title>Node46&#45;&gt;Node58</title>
<path fill="none" stroke="#191970" d="M878.6129,-157.5998C772.6996,-152.203 556.4701,-138.3909 375.5775,-109 365.7052,-107.396 355.302,-105.3097 345.2269,-103.0755"/>
<polygon fill="#191970" stroke="#191970" points="878.6585,-161.1064 888.8211,-158.1113 879.0088,-154.1152 878.6585,-161.1064"/>
</g>
<!-- Node60 -->
<g id="node27" class="node">
<title>Node60</title>
<g id="a_node27"><a xlink:href="Chi2FCN_8h.html" target="_top" xlink:title="math/mathcore/inc/Fit\l/Chi2FCN.h">
<polygon fill="#ffffff" stroke="#000000" points="2610.0775,-145.5 2610.0775,-175.5 2733.0775,-175.5 2733.0775,-145.5 2610.0775,-145.5"/>
<text text-anchor="start" x="2618.0775" y="-163.5" font-family="Helvetica,sans-Serif" font-size="10.00" fill="#000000">math/mathcore/inc/Fit</text>
<text text-anchor="middle" x="2671.5775" y="-152.5" font-family="Helvetica,sans-Serif" font-size="10.00" fill="#000000">/Chi2FCN.h</text>
</a>
</g>
</g>
<!-- Node59&#45;&gt;Node60 -->
<g id="edge30" class="edge">
<title>Node59&#45;&gt;Node60</title>
<path fill="none" stroke="#191970" d="M2755.4989,-207.3561C2737.3079,-197.1995 2715.609,-185.0843 2698.8331,-175.7177"/>
<polygon fill="#191970" stroke="#191970" points="2754.2096,-210.6448 2764.6471,-212.4639 2757.6221,-204.5329 2754.2096,-210.6448"/>
</g>
<!-- Node59&#45;&gt;Node62 -->
<g id="edge35" class="edge">
<title>Node59&#45;&gt;Node62</title>
<path fill="none" stroke="#191970" d="M2812.0505,-204.6385C2820.6235,-195.0653 2830.3547,-184.1987 2838.0164,-175.6432"/>
<polygon fill="#191970" stroke="#191970" points="2809.2563,-202.5122 2805.1924,-212.2967 2814.471,-207.1821 2809.2563,-202.5122"/>
</g>
<!-- Node63 -->
<g id="node30" class="node">
<title>Node63</title>
<g id="a_node30"><a xlink:href="PoissonLikelihoodFCN_8h.html" target="_top" xlink:title="math/mathcore/inc/Fit\l/PoissonLikelihoodFCN.h">
<polygon fill="#ffffff" stroke="#000000" points="2455.5775,-145.5 2455.5775,-175.5 2591.5775,-175.5 2591.5775,-145.5 2455.5775,-145.5"/>
<text text-anchor="start" x="2463.5775" y="-163.5" font-family="Helvetica,sans-Serif" font-size="10.00" fill="#000000">math/mathcore/inc/Fit</text>
<text text-anchor="middle" x="2523.5775" y="-152.5" font-family="Helvetica,sans-Serif" font-size="10.00" fill="#000000">/PoissonLikelihoodFCN.h</text>
</a>
</g>
</g>
<!-- Node59&#45;&gt;Node63 -->
<g id="edge38" class="edge">
<title>Node59&#45;&gt;Node63</title>
<path fill="none" stroke="#191970" d="M2721.6674,-210.0225C2678.942,-199.3411 2624.8457,-185.8171 2583.9842,-175.6017"/>
<polygon fill="#191970" stroke="#191970" points="2720.8827,-213.434 2731.433,-212.4639 2722.5805,-206.643 2720.8827,-213.434"/>
</g>
<!-- Node59&#45;&gt;Node64 -->
<g id="edge42" class="edge">
<title>Node59&#45;&gt;Node64</title>
<path fill="none" stroke="#191970" d="M2850.7314,-209.4849C2892.4778,-196.7713 2946.7508,-180.2427 2980.3661,-170.0053"/>
<polygon fill="#191970" stroke="#191970" points="2849.4963,-206.2023 2840.9498,-212.4639 2851.5357,-212.8987 2849.4963,-206.2023"/>
</g>
<!-- Node60&#45;&gt;Node36 -->
<g id="edge31" class="edge">
<title>Node60&#45;&gt;Node36</title>
<path fill="none" stroke="#191970" d="M2600.0061,-144.9848C2491.4329,-125.6661 2461.3377,-130.5779 2357.5775,-109 2342.337,-105.8306 2325.6486,-101.4616 2311.6332,-97.5291"/>
<polygon fill="#191970" stroke="#191970" points="2599.5921,-148.4666 2610.0553,-146.8016 2600.8375,-141.5783 2599.5921,-148.4666"/>
</g>
<!-- Node60&#45;&gt;Node37 -->
<g id="edge32" class="edge">
<title>Node60&#45;&gt;Node37</title>
<path fill="none" stroke="#191970" d="M2617.2224,-142.2558C2574.919,-128.0568 2517.8968,-108.9174 2484.1091,-97.5766"/>
<polygon fill="#191970" stroke="#191970" points="2616.2282,-145.6139 2626.8221,-145.478 2618.4556,-138.9778 2616.2282,-145.6139"/>
</g>
<!-- Node60&#45;&gt;Node45 -->
<g id="edge33" class="edge">
<title>Node60&#45;&gt;Node45</title>
<path fill="none" stroke="#191970" d="M2720.0535,-141.8058C2756.7488,-127.6547 2805.6461,-108.798 2834.7444,-97.5766"/>
<polygon fill="#191970" stroke="#191970" points="2718.6021,-138.6142 2710.5312,-145.478 2721.1208,-145.1454 2718.6021,-138.6142"/>
</g>
<!-- Node61 -->
<g id="node28" class="node">
<title>Node61</title>
<g id="a_node28"><a xlink:href="TLinearMinimizer_8cxx.html" target="_top" xlink:title="math/minuit/src/TLinearMinimizer.cxx">
<polygon fill="#ffffff" stroke="#000000" points="2563.5775,-78.5 2563.5775,-97.5 2763.5775,-97.5 2763.5775,-78.5 2563.5775,-78.5"/>
<text text-anchor="middle" x="2663.5775" y="-85.5" font-family="Helvetica,sans-Serif" font-size="10.00" fill="#000000">math/minuit/src/TLinearMinimizer.cxx</text>
</a>
</g>
</g>
<!-- Node60&#45;&gt;Node61 -->
<g id="edge34" class="edge">
<title>Node60&#45;&gt;Node61</title>
<path fill="none" stroke="#191970" d="M2668.7973,-135.305C2667.376,-122.424 2665.7274,-107.4836 2664.6694,-97.8957"/>
<polygon fill="#191970" stroke="#191970" points="2665.3441,-135.9222 2669.9199,-145.478 2672.3019,-135.1544 2665.3441,-135.9222"/>
</g>
<!-- Node62&#45;&gt;Node37 -->
<g id="edge36" class="edge">
<title>Node62&#45;&gt;Node37</title>
<path fill="none" stroke="#191970" d="M2779.8576,-148.8345C2719.6186,-138.8517 2631.3282,-123.7892 2554.5775,-109 2536.2898,-105.4761 2516.1732,-101.27 2498.8778,-97.5509"/>
<polygon fill="#191970" stroke="#191970" points="2779.586,-152.337 2790.023,-150.515 2780.7278,-145.4308 2779.586,-152.337"/>
</g>
<!-- Node62&#45;&gt;Node45 -->
<g id="edge37" class="edge">
<title>Node62&#45;&gt;Node45</title>
<path fill="none" stroke="#191970" d="M2854.3576,-135.305C2855.779,-122.424 2857.4275,-107.4836 2858.4855,-97.8957"/>
<polygon fill="#191970" stroke="#191970" points="2850.8531,-135.1544 2853.2351,-145.478 2857.8108,-135.9222 2850.8531,-135.1544"/>
</g>
<!-- Node63&#45;&gt;Node36 -->
<g id="edge39" class="edge">
<title>Node63&#45;&gt;Node36</title>
<path fill="none" stroke="#191970" d="M2463.38,-142.6135C2415.4759,-128.3797 2350.2967,-109.0129 2311.8076,-97.5766"/>
<polygon fill="#191970" stroke="#191970" points="2462.4378,-145.9847 2473.0205,-145.478 2464.4316,-139.2746 2462.4378,-145.9847"/>
</g>
<!-- Node63&#45;&gt;Node37 -->
<g id="edge40" class="edge">
<title>Node63&#45;&gt;Node37</title>
<path fill="none" stroke="#191970" d="M2502.4526,-137.9772C2489.8512,-124.5419 2474.4813,-108.1548 2464.8589,-97.8957"/>
<polygon fill="#191970" stroke="#191970" points="2500.0939,-140.5785 2509.4878,-145.478 2505.1995,-135.7897 2500.0939,-140.5785"/>
</g>
<!-- Node63&#45;&gt;Node45 -->
<g id="edge41" class="edge">
<title>Node63&#45;&gt;Node45</title>
<path fill="none" stroke="#191970" d="M2601.524,-144.6698C2661.9467,-132.3438 2740.5968,-116.1649 2772.5775,-109 2788.4977,-105.4332 2805.9942,-101.2596 2821.0957,-97.5768"/>
<polygon fill="#191970" stroke="#191970" points="2600.7127,-141.2631 2591.6134,-146.6903 2602.1111,-148.122 2600.7127,-141.2631"/>
</g>
</g>
</svg>
