<?xml version="1.0" encoding="UTF-8" standalone="no"?>
<!DOCTYPE svg PUBLIC "-//W3C//DTD SVG 1.1//EN"
 "http://www.w3.org/Graphics/SVG/1.1/DTD/svg11.dtd">
<!-- Generated by graphviz version 2.40.1 (0)
 -->
<!-- Title: TGenCollectionProxy::StreamHelper Pages: 1 -->
<svg width="353pt" height="240pt"
 viewBox="0.00 0.00 353.00 240.00" xmlns="http://www.w3.org/2000/svg" xmlns:xlink="http://www.w3.org/1999/xlink">
<g id="graph0" class="graph" transform="scale(1 1) rotate(0) translate(4 236)">
<title>TGenCollectionProxy::StreamHelper</title>
<polygon fill="#ffffff" stroke="transparent" points="-4,4 -4,-236 349,-236 349,4 -4,4"/>
<!-- Node1 -->
<g id="node1" class="node">
<title>Node1</title>
<polygon fill="#bfbfbf" stroke="#000000" points="112,-.5 112,-30.5 231,-30.5 231,-.5 112,-.5"/>
<text text-anchor="start" x="120" y="-18.5" font-family="Helvetica,sans-Serif" font-size="10.00" fill="#000000">TGenCollectionProxy</text>
<text text-anchor="middle" x="171.5" y="-7.5" font-family="Helvetica,sans-Serif" font-size="10.00" fill="#000000">::StreamHelper</text>
</g>
<!-- Node2 -->
<g id="node2" class="node">
<title>Node2</title>
<g id="a_node2"><a xlink:href="classTString.html" target="_top" xlink:title="Basic string class. ">
<polygon fill="#ffffff" stroke="#000000" points="146,-78.5 146,-97.5 197,-97.5 197,-78.5 146,-78.5"/>
<text text-anchor="middle" x="171.5" y="-85.5" font-family="Helvetica,sans-Serif" font-size="10.00" fill="#000000">TString</text>
</a>
</g>
</g>
<!-- Node2&#45;&gt;Node1 -->
<g id="edge1" class="edge">
<title>Node2&#45;&gt;Node1</title>
<path fill="none" stroke="#9a32cd" stroke-dasharray="5,2" d="M171.5,-68.0177C171.5,-56.2164 171.5,-41.513 171.5,-30.668"/>
<polygon fill="#9a32cd" stroke="#9a32cd" points="168.0001,-68.2223 171.5,-78.2223 175.0001,-68.2224 168.0001,-68.2223"/>
<text text-anchor="middle" x="181.5" y="-52" font-family="Helvetica,sans-Serif" font-size="10.00" fill="#000000"> tstr</text>
</g>
<!-- Node3 -->
<g id="node3" class="node">
<title>Node3</title>
<g id="a_node3"><a xlink:href="structTString_1_1Rep__t.html" target="_top" xlink:title="TString::Rep_t">
<polygon fill="#ffffff" stroke="#000000" points="129.5,-145.5 129.5,-164.5 213.5,-164.5 213.5,-145.5 129.5,-145.5"/>
<text text-anchor="middle" x="171.5" y="-152.5" font-family="Helvetica,sans-Serif" font-size="10.00" fill="#000000">TString::Rep_t</text>
</a>
</g>
</g>
<!-- Node3&#45;&gt;Node2 -->
<g id="edge2" class="edge">
<title>Node3&#45;&gt;Node2</title>
<path fill="none" stroke="#9a32cd" stroke-dasharray="5,2" d="M171.5,-135.1079C171.5,-122.714 171.5,-107.3263 171.5,-97.5817"/>
<polygon fill="#9a32cd" stroke="#9a32cd" points="168.0001,-135.4005 171.5,-145.4005 175.0001,-135.4006 168.0001,-135.4005"/>
<text text-anchor="middle" x="184" y="-119" font-family="Helvetica,sans-Serif" font-size="10.00" fill="#000000"> fRep</text>
</g>
<!-- Node4 -->
<g id="node4" class="node">
<title>Node4</title>
<g id="a_node4"><a xlink:href="structTString_1_1LongStr__t.html" target="_top" xlink:title="TString::LongStr_t">
<polygon fill="#ffffff" stroke="#000000" points="0,-212.5 0,-231.5 103,-231.5 103,-212.5 0,-212.5"/>
<text text-anchor="middle" x="51.5" y="-219.5" font-family="Helvetica,sans-Serif" font-size="10.00" fill="#000000">TString::LongStr_t</text>
</a>
</g>
</g>
<!-- Node4&#45;&gt;Node3 -->
<g id="edge3" class="edge">
<title>Node4&#45;&gt;Node3</title>
<path fill="none" stroke="#9a32cd" stroke-dasharray="5,2" d="M77.6768,-207.3846C100.9489,-194.391 134.3033,-175.7681 154.3388,-164.5817"/>
<polygon fill="#9a32cd" stroke="#9a32cd" points="75.7181,-204.4696 68.6931,-212.4005 79.1306,-210.5815 75.7181,-204.4696"/>
<text text-anchor="middle" x="135" y="-186" font-family="Helvetica,sans-Serif" font-size="10.00" fill="#000000"> fLong</text>
</g>
<!-- Node5 -->
<g id="node5" class="node">
<title>Node5</title>
<g id="a_node5"><a xlink:href="structTString_1_1RawStr__t.html" target="_top" xlink:title="TString::RawStr_t">
<polygon fill="#ffffff" stroke="#000000" points="121,-212.5 121,-231.5 222,-231.5 222,-212.5 121,-212.5"/>
<text text-anchor="middle" x="171.5" y="-219.5" font-family="Helvetica,sans-Serif" font-size="10.00" fill="#000000">TString::RawStr_t</text>
</a>
</g>
</g>
<!-- Node5&#45;&gt;Node3 -->
<g id="edge4" class="edge">
<title>Node5&#45;&gt;Node3</title>
<path fill="none" stroke="#9a32cd" stroke-dasharray="5,2" d="M171.5,-202.1079C171.5,-189.714 171.5,-174.3263 171.5,-164.5817"/>
<polygon fill="#9a32cd" stroke="#9a32cd" points="168.0001,-202.4005 171.5,-212.4005 175.0001,-202.4006 168.0001,-202.4005"/>
<text text-anchor="middle" x="185.5" y="-186" font-family="Helvetica,sans-Serif" font-size="10.00" fill="#000000"> fRaw</text>
</g>
<!-- Node6 -->
<g id="node6" class="node">
<title>Node6</title>
<g id="a_node6"><a xlink:href="structTString_1_1ShortStr__t.html" target="_top" xlink:title="TString::ShortStr_t">
<polygon fill="#ffffff" stroke="#000000" points="240,-212.5 240,-231.5 345,-231.5 345,-212.5 240,-212.5"/>
<text text-anchor="middle" x="292.5" y="-219.5" font-family="Helvetica,sans-Serif" font-size="10.00" fill="#000000">TString::ShortStr_t</text>
</a>
</g>
</g>
<!-- Node6&#45;&gt;Node3 -->
<g id="edge5" class="edge">
<title>Node6&#45;&gt;Node3</title>
<path fill="none" stroke="#9a32cd" stroke-dasharray="5,2" d="M266.105,-207.3846C242.639,-194.391 209.0066,-175.7681 188.8042,-164.5817"/>
<polygon fill="#9a32cd" stroke="#9a32cd" points="264.7198,-210.6183 275.1637,-212.4005 268.1107,-204.4944 264.7198,-210.6183"/>
<text text-anchor="middle" x="255" y="-186" font-family="Helvetica,sans-Serif" font-size="10.00" fill="#000000"> fShort</text>
</g>
</g>
</svg>
