<?xml version="1.0" encoding="UTF-8" standalone="no"?>
<!DOCTYPE svg PUBLIC "-//W3C//DTD SVG 1.1//EN"
 "http://www.w3.org/Graphics/SVG/1.1/DTD/svg11.dtd">
<!-- Generated by graphviz version 2.40.1 (0)
 -->
<!-- Title: core/dictgen/res/VariableSelectionRule.h Pages: 1 -->
<!--zoomable 240 -->
<svg id="main" version="1.1" xmlns="http://www.w3.org/2000/svg" xmlns:xlink="http://www.w3.org/1999/xlink" xml:space="preserve" onload="init(evt)">
<style type="text/css"><![CDATA[
.edge:hover path { stroke: red; }
.edge:hover polygon { stroke: red; fill: red; }
]]></style>
<script type="text/javascript"><![CDATA[
var edges = document.getElementsByTagName('g');
if (edges && edges.length) {
  for (var i=0;i<edges.length;i++) {
    if (edges[i].id.substr(0,4)=='edge') {
      edges[i].setAttribute('class','edge');
    }
  }
}
]]></script>
        <defs>
                <circle id="rim" cx="0" cy="0" r="7"/>
                <circle id="rim2" cx="0" cy="0" r="3.5"/>
                <g id="zoomPlus">
                        <use xlink:href="#rim" fill="#404040">
                                <set attributeName="fill" to="#808080" begin="zoomplus.mouseover" end="zoomplus.mouseout"/>
                        </use>
                        <path d="M-4,0h8M0,-4v8" fill="none" stroke="white" stroke-width="1.5" pointer-events="none"/>
                </g>
                <g id="zoomMin">
                        <use xlink:href="#rim" fill="#404040">
                                <set attributeName="fill" to="#808080" begin="zoomminus.mouseover" end="zoomminus.mouseout"/>
                        </use>
                        <path d="M-4,0h8" fill="none" stroke="white" stroke-width="1.5" pointer-events="none"/>
                </g>
                <g id="dirArrow">
                        <path fill="none" stroke="white" stroke-width="1.5" d="M0,-3.0v7 M-2.5,-0.5L0,-3.0L2.5,-0.5"/>
                </g>
               <g id="resetDef">
                       <use xlink:href="#rim2" fill="#404040">
                               <set attributeName="fill" to="#808080" begin="reset.mouseover" end="reset.mouseout"/>
                       </use>
               </g>
        </defs>

<script type="text/javascript">
var viewWidth = 1001;
var viewHeight = 240;
var sectionId = 'dynsection-1';
</script>
<script xlink:href="svgpan.js"/>
<svg id="graph" class="graph">
<g id="viewport">
<title>core/dictgen/res/VariableSelectionRule.h</title>
<polygon fill="#ffffff" stroke="transparent" points="-4,4 -4,-236 997,-236 997,4 -4,4"/>
<!-- Node7 -->
<g id="node1" class="node">
<title>Node7</title>
<polygon fill="#bfbfbf" stroke="#000000" points="644,-201.5 644,-231.5 781,-231.5 781,-201.5 644,-201.5"/>
<text text-anchor="start" x="652" y="-219.5" font-family="Helvetica,sans-Serif" font-size="10.00" fill="#000000">core/dictgen/res/Variable</text>
<text text-anchor="middle" x="712.5" y="-208.5" font-family="Helvetica,sans-Serif" font-size="10.00" fill="#000000">SelectionRule.h</text>
</g>
<!-- Node8 -->
<g id="node2" class="node">
<title>Node8</title>
<g id="a_node2"><a xlink:href="ClassSelectionRule_8h.html" target="_top" xlink:title="core/dictgen/res/ClassSelection\lRule.h">
<polygon fill="#ffffff" stroke="#000000" points="628,-134.5 628,-164.5 797,-164.5 797,-134.5 628,-134.5"/>
<text text-anchor="start" x="636" y="-152.5" font-family="Helvetica,sans-Serif" font-size="10.00" fill="#000000">core/dictgen/res/ClassSelection</text>
<text text-anchor="middle" x="712.5" y="-141.5" font-family="Helvetica,sans-Serif" font-size="10.00" fill="#000000">Rule.h</text>
</a>
</g>
</g>
<!-- Node7&#45;&gt;Node8 -->
<g id="edge1" class="edge">
<title>Node7&#45;&gt;Node8</title>
<path fill="none" stroke="#191970" d="M712.5,-191.0249C712.5,-182.128 712.5,-172.4287 712.5,-164.6432"/>
<polygon fill="#191970" stroke="#191970" points="709.0001,-191.2966 712.5,-201.2967 716.0001,-191.2967 709.0001,-191.2966"/>
</g>
<!-- Node9 -->
<g id="node3" class="node">
<title>Node9</title>
<g id="a_node3"><a xlink:href="SelectionRules_8h.html" target="_top" xlink:title="core/dictgen/res/Selection\lRules.h">
<polygon fill="#ffffff" stroke="#000000" points="483,-67.5 483,-97.5 626,-97.5 626,-67.5 483,-67.5"/>
<text text-anchor="start" x="491" y="-85.5" font-family="Helvetica,sans-Serif" font-size="10.00" fill="#000000">core/dictgen/res/Selection</text>
<text text-anchor="middle" x="554.5" y="-74.5" font-family="Helvetica,sans-Serif" font-size="10.00" fill="#000000">Rules.h</text>
</a>
</g>
</g>
<!-- Node7&#45;&gt;Node9 -->
<g id="edge11" class="edge">
<title>Node7&#45;&gt;Node9</title>
<path fill="none" stroke="#191970" d="M668.3072,-197.026C651.7196,-188.5419 633.3137,-177.6329 618.5,-165 595.1899,-145.1214 574.7648,-115.5347 563.5743,-97.7209"/>
<polygon fill="#191970" stroke="#191970" points="666.7872,-200.1789 677.3011,-201.4854 669.8968,-193.9074 666.7872,-200.1789"/>
</g>
<!-- Node17 -->
<g id="node11" class="node">
<title>Node17</title>
<g id="a_node11"><a xlink:href="VariableSelectionRule_8cxx.html" target="_top" xlink:title="core/dictgen/src/Variable\lSelectionRule.cxx">
<polygon fill="#ffffff" stroke="#000000" points="815,-134.5 815,-164.5 952,-164.5 952,-134.5 815,-134.5"/>
<text text-anchor="start" x="823" y="-152.5" font-family="Helvetica,sans-Serif" font-size="10.00" fill="#000000">core/dictgen/src/Variable</text>
<text text-anchor="middle" x="883.5" y="-141.5" font-family="Helvetica,sans-Serif" font-size="10.00" fill="#000000">SelectionRule.cxx</text>
</a>
</g>
</g>
<!-- Node7&#45;&gt;Node17 -->
<g id="edge12" class="edge">
<title>Node7&#45;&gt;Node17</title>
<path fill="none" stroke="#191970" d="M760.412,-197.7275C787.116,-187.2645 819.9277,-174.4084 844.9569,-164.6017"/>
<polygon fill="#191970" stroke="#191970" points="758.9097,-194.5569 750.8757,-201.4639 761.4634,-201.0745 758.9097,-194.5569"/>
</g>
<!-- Node8&#45;&gt;Node9 -->
<g id="edge2" class="edge">
<title>Node8&#45;&gt;Node9</title>
<path fill="none" stroke="#191970" d="M667.5798,-130.4516C643.0252,-120.0392 613.0364,-107.3224 590.1129,-97.6017"/>
<polygon fill="#191970" stroke="#191970" points="666.4688,-133.7821 677.0417,-134.4639 669.2017,-127.3376 666.4688,-133.7821"/>
</g>
<!-- Node10 -->
<g id="node4" class="node">
<title>Node10</title>
<g id="a_node4"><a xlink:href="DictSelectionReader_8cxx.html" target="_top" xlink:title="core/dictgen/src/DictSelection\lReader.cxx">
<polygon fill="#ffffff" stroke="#000000" points="832,-.5 832,-30.5 993,-30.5 993,-.5 832,-.5"/>
<text text-anchor="start" x="840" y="-18.5" font-family="Helvetica,sans-Serif" font-size="10.00" fill="#000000">core/dictgen/src/DictSelection</text>
<text text-anchor="middle" x="912.5" y="-7.5" font-family="Helvetica,sans-Serif" font-size="10.00" fill="#000000">Reader.cxx</text>
</a>
</g>
</g>
<!-- Node8&#45;&gt;Node10 -->
<g id="edge10" class="edge">
<title>Node8&#45;&gt;Node10</title>
<path fill="none" stroke="#191970" d="M760.6703,-130.4209C780.251,-121.7412 802.655,-110.5883 821.5,-98 851.4677,-77.9819 881.5271,-48.4399 898.4969,-30.6726"/>
<polygon fill="#191970" stroke="#191970" points="759.0948,-127.2891 751.3127,-134.4786 761.8797,-133.7113 759.0948,-127.2891"/>
</g>
<!-- Node16 -->
<g id="node10" class="node">
<title>Node16</title>
<g id="a_node10"><a xlink:href="ClassSelectionRule_8cxx.html" target="_top" xlink:title="core/dictgen/src/ClassSelection\lRule.cxx">
<polygon fill="#ffffff" stroke="#000000" points="644.5,-67.5 644.5,-97.5 812.5,-97.5 812.5,-67.5 644.5,-67.5"/>
<text text-anchor="start" x="652.5" y="-85.5" font-family="Helvetica,sans-Serif" font-size="10.00" fill="#000000">core/dictgen/src/ClassSelection</text>
<text text-anchor="middle" x="728.5" y="-74.5" font-family="Helvetica,sans-Serif" font-size="10.00" fill="#000000">Rule.cxx</text>
</a>
</g>
</g>
<!-- Node8&#45;&gt;Node16 -->
<g id="edge9" class="edge">
<title>Node8&#45;&gt;Node16</title>
<path fill="none" stroke="#191970" d="M718.5136,-124.3179C720.6573,-115.3414 723.0041,-105.5143 724.8837,-97.6432"/>
<polygon fill="#191970" stroke="#191970" points="715.0492,-123.7572 716.1306,-134.2967 721.8577,-125.3831 715.0492,-123.7572"/>
</g>
<!-- Node9&#45;&gt;Node10 -->
<g id="edge3" class="edge">
<title>Node9&#45;&gt;Node10</title>
<path fill="none" stroke="#191970" d="M636.2252,-66.8685C708.2906,-53.2884 779.0803,-40.1415 831.8745,-30.3745"/>
<polygon fill="#191970" stroke="#191970" points="635.228,-63.4948 626.0498,-68.7873 636.5252,-70.3736 635.228,-63.4948"/>
</g>
<!-- Node11 -->
<g id="node5" class="node">
<title>Node11</title>
<g id="a_node5"><a xlink:href="LinkdefReader_8cxx.html" target="_top" xlink:title="core/dictgen/src/Linkdef\lReader.cxx">
<polygon fill="#ffffff" stroke="#000000" points="0,-.5 0,-30.5 133,-30.5 133,-.5 0,-.5"/>
<text text-anchor="start" x="8" y="-18.5" font-family="Helvetica,sans-Serif" font-size="10.00" fill="#000000">core/dictgen/src/Linkdef</text>
<text text-anchor="middle" x="66.5" y="-7.5" font-family="Helvetica,sans-Serif" font-size="10.00" fill="#000000">Reader.cxx</text>
</a>
</g>
</g>
<!-- Node9&#45;&gt;Node11 -->
<g id="edge4" class="edge">
<title>Node9&#45;&gt;Node11</title>
<path fill="none" stroke="#191970" d="M472.6439,-74.1427C389.3146,-65.1956 256.5335,-49.7271 142.5,-31 139.4437,-30.4981 136.3232,-29.9612 133.1746,-29.3998"/>
<polygon fill="#191970" stroke="#191970" points="472.4924,-77.6463 482.8076,-75.2279 473.2357,-70.6859 472.4924,-77.6463"/>
</g>
<!-- Node12 -->
<g id="node6" class="node">
<title>Node12</title>
<g id="a_node6"><a xlink:href="rootcling__impl_8cxx.html" target="_top" xlink:title="core/dictgen/src/rootcling\l_impl.cxx">
<polygon fill="#ffffff" stroke="#000000" points="151.5,-.5 151.5,-30.5 291.5,-30.5 291.5,-.5 151.5,-.5"/>
<text text-anchor="start" x="159.5" y="-18.5" font-family="Helvetica,sans-Serif" font-size="10.00" fill="#000000">core/dictgen/src/rootcling</text>
<text text-anchor="middle" x="221.5" y="-7.5" font-family="Helvetica,sans-Serif" font-size="10.00" fill="#000000">_impl.cxx</text>
</a>
</g>
</g>
<!-- Node9&#45;&gt;Node12 -->
<g id="edge5" class="edge">
<title>Node9&#45;&gt;Node12</title>
<path fill="none" stroke="#191970" d="M472.8351,-66.0689C417.2452,-54.8842 344.4391,-40.2355 291.5043,-29.585"/>
<polygon fill="#191970" stroke="#191970" points="472.16,-69.5032 482.6539,-68.0445 473.5408,-62.6407 472.16,-69.5032"/>
</g>
<!-- Node13 -->
<g id="node7" class="node">
<title>Node13</title>
<g id="a_node7"><a xlink:href="Scanner_8cxx.html" target="_top" xlink:title="core/dictgen/src/Scanner.cxx">
<polygon fill="#ffffff" stroke="#000000" points="310,-6 310,-25 465,-25 465,-6 310,-6"/>
<text text-anchor="middle" x="387.5" y="-13" font-family="Helvetica,sans-Serif" font-size="10.00" fill="#000000">core/dictgen/src/Scanner.cxx</text>
</a>
</g>
</g>
<!-- Node9&#45;&gt;Node13 -->
<g id="edge6" class="edge">
<title>Node9&#45;&gt;Node13</title>
<path fill="none" stroke="#191970" d="M507.6076,-63.6869C476.3035,-51.1278 436.4406,-35.1349 411.4381,-25.1039"/>
<polygon fill="#191970" stroke="#191970" points="506.4378,-66.9887 517.0219,-67.4639 509.0442,-60.492 506.4378,-66.9887"/>
</g>
<!-- Node14 -->
<g id="node8" class="node">
<title>Node14</title>
<g id="a_node8"><a xlink:href="SelectionRules_8cxx.html" target="_top" xlink:title="core/dictgen/src/Selection\lRules.cxx">
<polygon fill="#ffffff" stroke="#000000" points="483.5,-.5 483.5,-30.5 625.5,-30.5 625.5,-.5 483.5,-.5"/>
<text text-anchor="start" x="491.5" y="-18.5" font-family="Helvetica,sans-Serif" font-size="10.00" fill="#000000">core/dictgen/src/Selection</text>
<text text-anchor="middle" x="554.5" y="-7.5" font-family="Helvetica,sans-Serif" font-size="10.00" fill="#000000">Rules.cxx</text>
</a>
</g>
</g>
<!-- Node9&#45;&gt;Node14 -->
<g id="edge7" class="edge">
<title>Node9&#45;&gt;Node14</title>
<path fill="none" stroke="#191970" d="M554.5,-57.0249C554.5,-48.128 554.5,-38.4287 554.5,-30.6432"/>
<polygon fill="#191970" stroke="#191970" points="551.0001,-57.2966 554.5,-67.2967 558.0001,-57.2967 551.0001,-57.2966"/>
</g>
<!-- Node15 -->
<g id="node9" class="node">
<title>Node15</title>
<g id="a_node9"><a xlink:href="XMLReader_8cxx.html" target="_top" xlink:title="core/dictgen/src/XMLReader.cxx">
<polygon fill="#ffffff" stroke="#000000" points="643.5,-6 643.5,-25 813.5,-25 813.5,-6 643.5,-6"/>
<text text-anchor="middle" x="728.5" y="-13" font-family="Helvetica,sans-Serif" font-size="10.00" fill="#000000">core/dictgen/src/XMLReader.cxx</text>
</a>
</g>
</g>
<!-- Node9&#45;&gt;Node15 -->
<g id="edge8" class="edge">
<title>Node9&#45;&gt;Node15</title>
<path fill="none" stroke="#191970" d="M602.9655,-63.838C635.7473,-51.2151 677.6767,-35.0699 703.8146,-25.0053"/>
<polygon fill="#191970" stroke="#191970" points="601.6234,-60.6042 593.549,-67.4639 604.1388,-67.1367 601.6234,-60.6042"/>
</g>
</g>
</svg>
        <g id="navigator" transform="translate(0 0)" fill="#404254">
                <rect fill="#f2f5e9" fill-opacity="0.5" stroke="#606060" stroke-width=".5" x="0" y="0" width="60" height="60"/>
                <use id="zoomplus" xlink:href="#zoomPlus" x="17" y="9" onmousedown="handleZoom(evt,'in')"/>
                <use id="zoomminus" xlink:href="#zoomMin" x="42" y="9" onmousedown="handleZoom(evt,'out')"/>
                <use id="reset" xlink:href="#resetDef" x="30" y="36" onmousedown="handleReset()"/>
                <g id="arrowUp" xlink:href="#dirArrow" transform="translate(30 24)" onmousedown="handlePan(0,-1)">
                  <use xlink:href="#rim" fill="#404040">
                        <set attributeName="fill" to="#808080" begin="arrowUp.mouseover" end="arrowUp.mouseout"/>
                  </use>
                  <path fill="none" stroke="white" stroke-width="1.5" d="M0,-3.0v7 M-2.5,-0.5L0,-3.0L2.5,-0.5"/>
                </g>
                <g id="arrowRight" xlink:href="#dirArrow" transform="rotate(90) translate(36 -43)" onmousedown="handlePan(1,0)">
                  <use xlink:href="#rim" fill="#404040">
                        <set attributeName="fill" to="#808080" begin="arrowRight.mouseover" end="arrowRight.mouseout"/>
                  </use>
                  <path fill="none" stroke="white" stroke-width="1.5" d="M0,-3.0v7 M-2.5,-0.5L0,-3.0L2.5,-0.5"/>
                </g>
                <g id="arrowDown" xlink:href="#dirArrow" transform="rotate(180) translate(-30 -48)" onmousedown="handlePan(0,1)">
                  <use xlink:href="#rim" fill="#404040">
                        <set attributeName="fill" to="#808080" begin="arrowDown.mouseover" end="arrowDown.mouseout"/>
                  </use>
                  <path fill="none" stroke="white" stroke-width="1.5" d="M0,-3.0v7 M-2.5,-0.5L0,-3.0L2.5,-0.5"/>
                </g>
                <g id="arrowLeft" xlink:href="#dirArrow" transform="rotate(270) translate(-36 17)" onmousedown="handlePan(-1,0)">
                  <use xlink:href="#rim" fill="#404040">
                        <set attributeName="fill" to="#808080" begin="arrowLeft.mouseover" end="arrowLeft.mouseout"/>
                  </use>
                  <path fill="none" stroke="white" stroke-width="1.5" d="M0,-3.0v7 M-2.5,-0.5L0,-3.0L2.5,-0.5"/>
                </g>
        </g>
        <svg viewBox="0 0 15 15" width="100%" height="30px" preserveAspectRatio="xMaxYMin meet">
         <g id="arrow_out" transform="scale(0.3 0.3)">
          <a xlink:href="VariableSelectionRule_8h__dep__incl_org.svg" target="_base">
           <rect id="button" ry="5" rx="5" y="6" x="6" height="38" width="38"
                fill="#f2f5e9" fill-opacity="0.5" stroke="#606060" stroke-width="1.0"/>
           <path id="arrow"
             d="M 11.500037,31.436501 C 11.940474,20.09759 22.043105,11.32322 32.158766,21.979434 L 37.068811,17.246167 C 37.068811,17.246167 37.088388,32 37.088388,32 L 22.160133,31.978069 C 22.160133,31.978069 26.997745,27.140456 26.997745,27.140456 C 18.528582,18.264221 13.291696,25.230495 11.500037,31.436501 z"
             style="fill:#404040;"/>
          </a>
         </g>
        </svg>
</svg>
