<?xml version="1.0" encoding="UTF-8" standalone="no"?>
<!DOCTYPE svg PUBLIC "-//W3C//DTD SVG 1.1//EN"
 "http://www.w3.org/Graphics/SVG/1.1/DTD/svg11.dtd">
<!-- Generated by graphviz version 2.40.1 (0)
 -->
<!-- Title: math/mathcore/inc/VectorizedTMath.h Pages: 1 -->
<!--zoomable 487 -->
<svg id="main" version="1.1" xmlns="http://www.w3.org/2000/svg" xmlns:xlink="http://www.w3.org/1999/xlink" xml:space="preserve" onload="init(evt)">
<style type="text/css"><![CDATA[
.edge:hover path { stroke: red; }
.edge:hover polygon { stroke: red; fill: red; }
]]></style>
<script type="text/javascript"><![CDATA[
var edges = document.getElementsByTagName('g');
if (edges && edges.length) {
  for (var i=0;i<edges.length;i++) {
    if (edges[i].id.substr(0,4)=='edge') {
      edges[i].setAttribute('class','edge');
    }
  }
}
]]></script>
        <defs>
                <circle id="rim" cx="0" cy="0" r="7"/>
                <circle id="rim2" cx="0" cy="0" r="3.5"/>
                <g id="zoomPlus">
                        <use xlink:href="#rim" fill="#404040">
                                <set attributeName="fill" to="#808080" begin="zoomplus.mouseover" end="zoomplus.mouseout"/>
                        </use>
                        <path d="M-4,0h8M0,-4v8" fill="none" stroke="white" stroke-width="1.5" pointer-events="none"/>
                </g>
                <g id="zoomMin">
                        <use xlink:href="#rim" fill="#404040">
                                <set attributeName="fill" to="#808080" begin="zoomminus.mouseover" end="zoomminus.mouseout"/>
                        </use>
                        <path d="M-4,0h8" fill="none" stroke="white" stroke-width="1.5" pointer-events="none"/>
                </g>
                <g id="dirArrow">
                        <path fill="none" stroke="white" stroke-width="1.5" d="M0,-3.0v7 M-2.5,-0.5L0,-3.0L2.5,-0.5"/>
                </g>
               <g id="resetDef">
                       <use xlink:href="#rim2" fill="#404040">
                               <set attributeName="fill" to="#808080" begin="reset.mouseover" end="reset.mouseout"/>
                       </use>
               </g>
        </defs>

<script type="text/javascript">
var viewWidth = 872;
var viewHeight = 487;
var sectionId = 'dynsection-0';
</script>
<script xlink:href="svgpan.js"/>
<svg id="graph" class="graph">
<g id="viewport">
<title>math/mathcore/inc/VectorizedTMath.h</title>
<polygon fill="#ffffff" stroke="transparent" points="-4,4 -4,-483 868.1669,-483 868.1669,4 -4,4"/>
<!-- Node0 -->
<g id="node1" class="node">
<title>Node0</title>
<polygon fill="#bfbfbf" stroke="#000000" points="310.5,-448.5 310.5,-478.5 473.5,-478.5 473.5,-448.5 310.5,-448.5"/>
<text text-anchor="start" x="318.5" y="-466.5" font-family="Helvetica,sans-Serif" font-size="10.00" fill="#000000">math/mathcore/inc/Vectorized</text>
<text text-anchor="middle" x="392" y="-455.5" font-family="Helvetica,sans-Serif" font-size="10.00" fill="#000000">TMath.h</text>
</g>
<!-- Node1 -->
<g id="node2" class="node">
<title>Node1</title>
<g id="a_node2"><a xlink:href="Rtypes_8h.html" target="_top" xlink:title="Rtypes.h">
<polygon fill="#ffffff" stroke="#000000" points="400.5,-280.5 400.5,-299.5 459.5,-299.5 459.5,-280.5 400.5,-280.5"/>
<text text-anchor="middle" x="430" y="-287.5" font-family="Helvetica,sans-Serif" font-size="10.00" fill="#000000">Rtypes.h</text>
</a>
</g>
</g>
<!-- Node0&#45;&gt;Node1 -->
<g id="edge1" class="edge">
<title>Node0&#45;&gt;Node1</title>
<path fill="none" stroke="#191970" d="M395.3058,-448.4065C402.1817,-417.0126 418.0205,-344.6961 425.6869,-309.6925"/>
<polygon fill="#191970" stroke="#191970" points="429.1466,-310.2553 427.8672,-299.738 422.3087,-308.7576 429.1466,-310.2553"/>
</g>
<!-- Node21 -->
<g id="node22" class="node">
<title>Node21</title>
<g id="a_node22"><a xlink:href="math_2mathcore_2inc_2Math_2Types_8h.html" target="_top" xlink:title="Math/Types.h">
<polygon fill="#ffffff" stroke="#000000" points="284,-336.5 284,-355.5 364,-355.5 364,-336.5 284,-336.5"/>
<text text-anchor="middle" x="324" y="-343.5" font-family="Helvetica,sans-Serif" font-size="10.00" fill="#000000">Math/Types.h</text>
</a>
</g>
</g>
<!-- Node0&#45;&gt;Node21 -->
<g id="edge26" class="edge">
<title>Node0&#45;&gt;Node21</title>
<path fill="none" stroke="#191970" d="M383.1102,-448.1389C370.636,-426.5843 347.9733,-387.4245 334.6256,-364.3604"/>
<polygon fill="#191970" stroke="#191970" points="337.5705,-362.4615 329.5323,-355.5595 331.512,-365.9677 337.5705,-362.4615"/>
</g>
<!-- Node22 -->
<g id="node23" class="node">
<title>Node22</title>
<g id="a_node23"><a xlink:href="TMath_8h.html" target="_top" xlink:title="TMath.h">
<polygon fill="#ffffff" stroke="#000000" points="537,-392.5 537,-411.5 593,-411.5 593,-392.5 537,-392.5"/>
<text text-anchor="middle" x="565" y="-399.5" font-family="Helvetica,sans-Serif" font-size="10.00" fill="#000000">TMath.h</text>
</a>
</g>
</g>
<!-- Node0&#45;&gt;Node22 -->
<g id="edge29" class="edge">
<title>Node0&#45;&gt;Node22</title>
<path fill="none" stroke="#191970" d="M434.3206,-448.4554C463.1861,-438.194 501.0239,-424.7429 528.5516,-414.9571"/>
<polygon fill="#191970" stroke="#191970" points="529.9412,-418.1778 538.1911,-411.5303 527.5964,-411.5821 529.9412,-418.1778"/>
</g>
<!-- Node2 -->
<g id="node3" class="node">
<title>Node2</title>
<g id="a_node3"><a xlink:href="RtypesCore_8h.html" target="_top" xlink:title="RtypesCore.h">
<polygon fill="#ffffff" stroke="#000000" points="280,-112.5 280,-131.5 362,-131.5 362,-112.5 280,-112.5"/>
<text text-anchor="middle" x="321" y="-119.5" font-family="Helvetica,sans-Serif" font-size="10.00" fill="#000000">RtypesCore.h</text>
</a>
</g>
</g>
<!-- Node1&#45;&gt;Node2 -->
<g id="edge2" class="edge">
<title>Node1&#45;&gt;Node2</title>
<path fill="none" stroke="#191970" d="M459.7052,-281.8654C462.8289,-281.1654 465.9697,-280.5253 469,-280 555.0522,-265.083 913.6963,-291.2713 858,-224 796.5499,-149.7791 494.6597,-129.1261 372.4753,-123.7591"/>
<polygon fill="#191970" stroke="#191970" points="372.399,-120.2529 362.2602,-123.3279 372.1037,-127.2466 372.399,-120.2529"/>
</g>
<!-- Node7 -->
<g id="node8" class="node">
<title>Node7</title>
<g id="a_node8"><a xlink:href="DllImport_8h.html" target="_top" xlink:title="DllImport.h">
<polygon fill="#ffffff" stroke="#000000" points="394.5,-224.5 394.5,-243.5 465.5,-243.5 465.5,-224.5 394.5,-224.5"/>
<text text-anchor="middle" x="430" y="-231.5" font-family="Helvetica,sans-Serif" font-size="10.00" fill="#000000">DllImport.h</text>
</a>
</g>
</g>
<!-- Node1&#45;&gt;Node7 -->
<g id="edge7" class="edge">
<title>Node1&#45;&gt;Node7</title>
<path fill="none" stroke="#191970" d="M430,-280.2455C430,-272.9382 430,-262.6944 430,-253.7046"/>
<polygon fill="#191970" stroke="#191970" points="433.5001,-253.6426 430,-243.6427 426.5001,-253.6427 433.5001,-253.6426"/>
</g>
<!-- Node8 -->
<g id="node9" class="node">
<title>Node8</title>
<polygon fill="#ffffff" stroke="#bfbfbf" points="484,-224.5 484,-243.5 546,-243.5 546,-224.5 484,-224.5"/>
<text text-anchor="middle" x="515" y="-231.5" font-family="Helvetica,sans-Serif" font-size="10.00" fill="#000000">snprintf.h</text>
</g>
<!-- Node1&#45;&gt;Node8 -->
<g id="edge8" class="edge">
<title>Node1&#45;&gt;Node8</title>
<path fill="none" stroke="#191970" d="M444.8059,-280.2455C457.7256,-271.7337 476.6931,-259.2375 491.6552,-249.3801"/>
<polygon fill="#191970" stroke="#191970" points="493.9387,-252.067 500.3638,-243.6427 490.0876,-246.2216 493.9387,-252.067"/>
</g>
<!-- Node9 -->
<g id="node10" class="node">
<title>Node9</title>
<polygon fill="#ffffff" stroke="#bfbfbf" points="564.5,-224.5 564.5,-243.5 621.5,-243.5 621.5,-224.5 564.5,-224.5"/>
<text text-anchor="middle" x="593" y="-231.5" font-family="Helvetica,sans-Serif" font-size="10.00" fill="#000000">strlcpy.h</text>
</g>
<!-- Node1&#45;&gt;Node9 -->
<g id="edge9" class="edge">
<title>Node1&#45;&gt;Node9</title>
<path fill="none" stroke="#191970" d="M458.0207,-280.3733C485.0078,-271.1016 526.0017,-257.0178 555.7311,-246.804"/>
<polygon fill="#191970" stroke="#191970" points="557.0248,-250.0605 565.3449,-243.5011 554.7503,-243.4403 557.0248,-250.0605"/>
</g>
<!-- Node10 -->
<g id="node11" class="node">
<title>Node10</title>
<polygon fill="#ffffff" stroke="#bfbfbf" points="214,-168.5 214,-187.5 264,-187.5 264,-168.5 214,-168.5"/>
<text text-anchor="middle" x="239" y="-175.5" font-family="Helvetica,sans-Serif" font-size="10.00" fill="#000000">atomic</text>
</g>
<!-- Node1&#45;&gt;Node10 -->
<g id="edge10" class="edge">
<title>Node1&#45;&gt;Node10</title>
<path fill="none" stroke="#191970" d="M400.3359,-285.9174C355.905,-279.2084 275.1288,-264.5192 255,-244 243.0255,-231.7933 239.4835,-212.2345 238.6628,-197.5717"/>
<polygon fill="#191970" stroke="#191970" points="242.1612,-197.4477 238.471,-187.5162 235.1624,-197.5812 242.1612,-197.4477"/>
</g>
<!-- Node11 -->
<g id="node12" class="node">
<title>Node11</title>
<polygon fill="#ffffff" stroke="#bfbfbf" points="640,-224.5 640,-243.5 690,-243.5 690,-224.5 640,-224.5"/>
<text text-anchor="middle" x="665" y="-231.5" font-family="Helvetica,sans-Serif" font-size="10.00" fill="#000000">stdio.h</text>
</g>
<!-- Node1&#45;&gt;Node11 -->
<g id="edge11" class="edge">
<title>Node1&#45;&gt;Node11</title>
<path fill="none" stroke="#191970" d="M459.7859,-282.257C462.8938,-281.4807 466.0089,-280.7156 469,-280 537.6497,-263.5756 557.8624,-262.4834 629.7912,-244.188"/>
<polygon fill="#191970" stroke="#191970" points="630.9866,-247.4946 639.8014,-241.6167 629.2451,-240.7147 630.9866,-247.4946"/>
</g>
<!-- Node12 -->
<g id="node13" class="node">
<title>Node12</title>
<polygon fill="#ffffff" stroke="#bfbfbf" points="708.5,-224.5 708.5,-243.5 761.5,-243.5 761.5,-224.5 708.5,-224.5"/>
<text text-anchor="middle" x="735" y="-231.5" font-family="Helvetica,sans-Serif" font-size="10.00" fill="#000000">string.h</text>
</g>
<!-- Node1&#45;&gt;Node12 -->
<g id="edge12" class="edge">
<title>Node1&#45;&gt;Node12</title>
<path fill="none" stroke="#191970" d="M459.7423,-282.0612C462.8588,-281.323 465.9877,-280.6205 469,-280 567.2716,-259.7587 596.1389,-265.499 698.5394,-243.8794"/>
<polygon fill="#191970" stroke="#191970" points="699.3068,-247.2945 708.3491,-241.773 697.8372,-240.4505 699.3068,-247.2945"/>
</g>
<!-- Node13 -->
<g id="node14" class="node">
<title>Node13</title>
<polygon fill="#ffffff" stroke="#bfbfbf" points="444.5,-168.5 444.5,-187.5 501.5,-187.5 501.5,-168.5 444.5,-168.5"/>
<text text-anchor="middle" x="473" y="-175.5" font-family="Helvetica,sans-Serif" font-size="10.00" fill="#000000">typeinfo</text>
</g>
<!-- Node1&#45;&gt;Node13 -->
<g id="edge13" class="edge">
<title>Node1&#45;&gt;Node13</title>
<path fill="none" stroke="#191970" d="M415.259,-280.3763C397.7805,-267.713 372.4991,-244.6403 385,-224 395.8253,-206.1262 416.1286,-194.8656 434.5073,-187.9629"/>
<polygon fill="#191970" stroke="#191970" points="435.8406,-191.2058 444.1638,-184.6503 433.5692,-184.5845 435.8406,-191.2058"/>
</g>
<!-- Node14 -->
<g id="node15" class="node">
<title>Node14</title>
<polygon fill="#ffffff" stroke="#bfbfbf" points="779.5,-224.5 779.5,-243.5 848.5,-243.5 848.5,-224.5 779.5,-224.5"/>
<text text-anchor="middle" x="814" y="-231.5" font-family="Helvetica,sans-Serif" font-size="10.00" fill="#000000">type_traits</text>
</g>
<!-- Node1&#45;&gt;Node14 -->
<g id="edge14" class="edge">
<title>Node1&#45;&gt;Node14</title>
<path fill="none" stroke="#191970" d="M459.72,-281.9475C462.8408,-281.2315 465.9768,-280.5652 469,-280 598.6264,-255.7653 636.0436,-266.7715 769.157,-244.1678"/>
<polygon fill="#191970" stroke="#191970" points="770.0766,-247.5607 779.3333,-242.4066 768.8829,-240.6633 770.0766,-247.5607"/>
</g>
<!-- Node15 -->
<g id="node16" class="node">
<title>Node15</title>
<g id="a_node16"><a xlink:href="TGenericClassInfo_8h.html" target="_top" xlink:title="TGenericClassInfo.h">
<polygon fill="#ffffff" stroke="#000000" points="90,-224.5 90,-243.5 204,-243.5 204,-224.5 90,-224.5"/>
<text text-anchor="middle" x="147" y="-231.5" font-family="Helvetica,sans-Serif" font-size="10.00" fill="#000000">TGenericClassInfo.h</text>
</a>
</g>
</g>
<!-- Node1&#45;&gt;Node15 -->
<g id="edge15" class="edge">
<title>Node1&#45;&gt;Node15</title>
<path fill="none" stroke="#191970" d="M400.3063,-284.9316C352.7218,-276.1 259.1287,-257.6794 199.9389,-245.5815"/>
<polygon fill="#191970" stroke="#191970" points="200.5266,-242.1293 190.0272,-243.5485 199.12,-248.9865 200.5266,-242.1293"/>
</g>
<!-- Node19 -->
<g id="node20" class="node">
<title>Node19</title>
<g id="a_node20"><a xlink:href="TIsAProxy_8h.html" target="_top" xlink:title="TIsAProxy.h">
<polygon fill="#ffffff" stroke="#000000" points="264.5,-224.5 264.5,-243.5 337.5,-243.5 337.5,-224.5 264.5,-224.5"/>
<text text-anchor="middle" x="301" y="-231.5" font-family="Helvetica,sans-Serif" font-size="10.00" fill="#000000">TIsAProxy.h</text>
</a>
</g>
</g>
<!-- Node1&#45;&gt;Node19 -->
<g id="edge21" class="edge">
<title>Node1&#45;&gt;Node19</title>
<path fill="none" stroke="#191970" d="M407.8241,-280.3733C387.0234,-271.3435 355.7083,-257.7494 332.3542,-247.6111"/>
<polygon fill="#191970" stroke="#191970" points="333.4532,-244.2727 322.8865,-243.5011 330.6657,-250.6938 333.4532,-244.2727"/>
</g>
<!-- Node3 -->
<g id="node4" class="node">
<title>Node3</title>
<g id="a_node4"><a xlink:href="RConfig_8hxx.html" target="_top" xlink:title="ROOT/RConfig.hxx">
<polygon fill="#ffffff" stroke="#000000" points="268.5,-56.5 268.5,-75.5 373.5,-75.5 373.5,-56.5 268.5,-56.5"/>
<text text-anchor="middle" x="321" y="-63.5" font-family="Helvetica,sans-Serif" font-size="10.00" fill="#000000">ROOT/RConfig.hxx</text>
</a>
</g>
</g>
<!-- Node2&#45;&gt;Node3 -->
<g id="edge3" class="edge">
<title>Node2&#45;&gt;Node3</title>
<path fill="none" stroke="#191970" d="M321,-112.2455C321,-104.9382 321,-94.6944 321,-85.7046"/>
<polygon fill="#191970" stroke="#191970" points="324.5001,-85.6426 321,-75.6427 317.5001,-85.6427 324.5001,-85.6426"/>
</g>
<!-- Node6 -->
<g id="node7" class="node">
<title>Node6</title>
<polygon fill="#ffffff" stroke="#bfbfbf" points="194,-56.5 194,-75.5 250,-75.5 250,-56.5 194,-56.5"/>
<text text-anchor="middle" x="222" y="-63.5" font-family="Helvetica,sans-Serif" font-size="10.00" fill="#000000">stddef.h</text>
</g>
<!-- Node2&#45;&gt;Node6 -->
<g id="edge6" class="edge">
<title>Node2&#45;&gt;Node6</title>
<path fill="none" stroke="#191970" d="M303.7555,-112.2455C288.4239,-103.5731 265.7801,-90.7645 248.2084,-80.825"/>
<polygon fill="#191970" stroke="#191970" points="249.4741,-77.5198 239.0469,-75.6427 246.0276,-83.6126 249.4741,-77.5198"/>
</g>
<!-- Node4 -->
<g id="node5" class="node">
<title>Node4</title>
<g id="a_node5"><a xlink:href="RVersion_8h.html" target="_top" xlink:title="../RVersion.h">
<polygon fill="#ffffff" stroke="#000000" points="282.5,-.5 282.5,-19.5 359.5,-19.5 359.5,-.5 282.5,-.5"/>
<text text-anchor="middle" x="321" y="-7.5" font-family="Helvetica,sans-Serif" font-size="10.00" fill="#000000">../RVersion.h</text>
</a>
</g>
</g>
<!-- Node3&#45;&gt;Node4 -->
<g id="edge4" class="edge">
<title>Node3&#45;&gt;Node4</title>
<path fill="none" stroke="#191970" d="M321,-56.2455C321,-48.9382 321,-38.6944 321,-29.7046"/>
<polygon fill="#191970" stroke="#191970" points="324.5001,-29.6426 321,-19.6427 317.5001,-29.6427 324.5001,-29.6426"/>
</g>
<!-- Node5 -->
<g id="node6" class="node">
<title>Node5</title>
<polygon fill="#ffffff" stroke="#bfbfbf" points="121,-.5 121,-19.5 199,-19.5 199,-.5 121,-.5"/>
<text text-anchor="middle" x="160" y="-7.5" font-family="Helvetica,sans-Serif" font-size="10.00" fill="#000000">RConfigure.h</text>
</g>
<!-- Node3&#45;&gt;Node5 -->
<g id="edge5" class="edge">
<title>Node3&#45;&gt;Node5</title>
<path fill="none" stroke="#191970" d="M293.3231,-56.3733C266.6672,-47.1016 226.1762,-33.0178 196.8116,-22.804"/>
<polygon fill="#191970" stroke="#191970" points="197.9105,-19.4807 187.3157,-19.5011 195.6109,-26.0921 197.9105,-19.4807"/>
</g>
<!-- Node15&#45;&gt;Node1 -->
<g id="edge20" class="edge">
<title>Node15&#45;&gt;Node1</title>
<path fill="none" stroke="#191970" d="M200.4369,-243.5402C255.7793,-254.0797 340.8009,-270.9132 390.4205,-281.1626"/>
<polygon fill="#191970" stroke="#191970" points="389.9453,-284.6385 400.4481,-283.2451 391.3687,-277.7847 389.9453,-284.6385"/>
</g>
<!-- Node16 -->
<g id="node17" class="node">
<title>Node16</title>
<polygon fill="#ffffff" stroke="#bfbfbf" points="28.5,-168.5 28.5,-187.5 75.5,-187.5 75.5,-168.5 28.5,-168.5"/>
<text text-anchor="middle" x="52" y="-175.5" font-family="Helvetica,sans-Serif" font-size="10.00" fill="#000000">vector</text>
</g>
<!-- Node15&#45;&gt;Node16 -->
<g id="edge16" class="edge">
<title>Node15&#45;&gt;Node16</title>
<path fill="none" stroke="#191970" d="M130.4523,-224.2455C115.7401,-215.5731 94.0112,-202.7645 77.1495,-192.825"/>
<polygon fill="#191970" stroke="#191970" points="78.7502,-189.7057 68.3581,-187.6427 75.1954,-195.736 78.7502,-189.7057"/>
</g>
<!-- Node17 -->
<g id="node18" class="node">
<title>Node17</title>
<g id="a_node18"><a xlink:href="TSchemaHelper_8h.html" target="_top" xlink:title="TSchemaHelper.h">
<polygon fill="#ffffff" stroke="#000000" points="94,-168.5 94,-187.5 196,-187.5 196,-168.5 94,-168.5"/>
<text text-anchor="middle" x="145" y="-175.5" font-family="Helvetica,sans-Serif" font-size="10.00" fill="#000000">TSchemaHelper.h</text>
</a>
</g>
</g>
<!-- Node15&#45;&gt;Node17 -->
<g id="edge17" class="edge">
<title>Node15&#45;&gt;Node17</title>
<path fill="none" stroke="#191970" d="M146.6516,-224.2455C146.3907,-216.9382 146.0248,-206.6944 145.7037,-197.7046"/>
<polygon fill="#191970" stroke="#191970" points="149.1992,-197.5113 145.3444,-187.6427 142.2036,-197.7613 149.1992,-197.5113"/>
</g>
<!-- Node17&#45;&gt;Node2 -->
<g id="edge18" class="edge">
<title>Node17&#45;&gt;Node2</title>
<path fill="none" stroke="#191970" d="M175.2555,-168.3733C204.6483,-159.021 249.4292,-144.7725 281.5934,-134.5385"/>
<polygon fill="#191970" stroke="#191970" points="282.6713,-137.8685 291.1393,-131.5011 280.5488,-131.198 282.6713,-137.8685"/>
</g>
<!-- Node18 -->
<g id="node19" class="node">
<title>Node18</title>
<polygon fill="#ffffff" stroke="#bfbfbf" points="123,-112.5 123,-131.5 167,-131.5 167,-112.5 123,-112.5"/>
<text text-anchor="middle" x="145" y="-119.5" font-family="Helvetica,sans-Serif" font-size="10.00" fill="#000000">string</text>
</g>
<!-- Node17&#45;&gt;Node18 -->
<g id="edge19" class="edge">
<title>Node17&#45;&gt;Node18</title>
<path fill="none" stroke="#191970" d="M145,-168.2455C145,-160.9382 145,-150.6944 145,-141.7046"/>
<polygon fill="#191970" stroke="#191970" points="148.5001,-141.6426 145,-131.6427 141.5001,-141.6427 148.5001,-141.6426"/>
</g>
<!-- Node19&#45;&gt;Node2 -->
<g id="edge23" class="edge">
<title>Node19&#45;&gt;Node2</title>
<path fill="none" stroke="#191970" d="M337.7109,-226.3565C358.6725,-219.9084 383.25,-208.3397 396,-188 409.6196,-166.2729 382.494,-147.6287 357.1425,-135.7531"/>
<polygon fill="#191970" stroke="#191970" points="358.5226,-132.5365 347.9616,-131.6909 355.6902,-138.9379 358.5226,-132.5365"/>
</g>
<!-- Node19&#45;&gt;Node10 -->
<g id="edge24" class="edge">
<title>Node19&#45;&gt;Node10</title>
<path fill="none" stroke="#191970" d="M290.2004,-224.2455C281.1322,-216.0549 267.9794,-204.1749 257.2755,-194.5069"/>
<polygon fill="#191970" stroke="#191970" points="259.4429,-191.7482 249.6758,-187.6427 254.7509,-196.9429 259.4429,-191.7482"/>
</g>
<!-- Node19&#45;&gt;Node13 -->
<g id="edge25" class="edge">
<title>Node19&#45;&gt;Node13</title>
<path fill="none" stroke="#191970" d="M330.5679,-224.3733C359.3422,-215.0049 403.2068,-200.7234 434.6515,-190.4856"/>
<polygon fill="#191970" stroke="#191970" points="435.9644,-193.739 444.3895,-187.315 433.7972,-187.0829 435.9644,-193.739"/>
</g>
<!-- Node20 -->
<g id="node21" class="node">
<title>Node20</title>
<g id="a_node21"><a xlink:href="TVirtualIsAProxy_8h.html" target="_top" xlink:title="TVirtualIsAProxy.h">
<polygon fill="#ffffff" stroke="#000000" points="282.5,-168.5 282.5,-187.5 387.5,-187.5 387.5,-168.5 282.5,-168.5"/>
<text text-anchor="middle" x="335" y="-175.5" font-family="Helvetica,sans-Serif" font-size="10.00" fill="#000000">TVirtualIsAProxy.h</text>
</a>
</g>
</g>
<!-- Node19&#45;&gt;Node20 -->
<g id="edge22" class="edge">
<title>Node19&#45;&gt;Node20</title>
<path fill="none" stroke="#191970" d="M306.9223,-224.2455C311.6027,-216.5367 318.2673,-205.5598 323.9289,-196.2348"/>
<polygon fill="#191970" stroke="#191970" points="326.9475,-198.007 329.1455,-187.6427 320.9639,-194.3741 326.9475,-198.007"/>
</g>
<!-- Node21&#45;&gt;Node1 -->
<g id="edge28" class="edge">
<title>Node21&#45;&gt;Node1</title>
<path fill="none" stroke="#191970" d="M342.4638,-336.2455C359.1074,-327.4527 383.7993,-314.4079 402.7192,-304.4125"/>
<polygon fill="#191970" stroke="#191970" points="404.5408,-307.4086 411.7478,-299.6427 401.2709,-301.2193 404.5408,-307.4086"/>
</g>
<!-- Node21&#45;&gt;Node5 -->
<g id="edge27" class="edge">
<title>Node21&#45;&gt;Node5</title>
<path fill="none" stroke="#191970" d="M283.9463,-340.7637C197.2598,-328.3104 0,-293.4416 0,-234 0,-234 0,-234 0,-122 0,-67.0778 64.0553,-36.8186 111.1066,-22.0003"/>
<polygon fill="#191970" stroke="#191970" points="112.2901,-25.2993 120.8596,-19.0693 110.2754,-18.5955 112.2901,-25.2993"/>
</g>
<!-- Node22&#45;&gt;Node1 -->
<g id="edge30" class="edge">
<title>Node22&#45;&gt;Node1</title>
<path fill="none" stroke="#191970" d="M536.8783,-398.0344C510.5503,-392.859 471.9266,-381.2717 449,-356 437.621,-343.4571 433.0199,-324.5163 431.1784,-310.1378"/>
<polygon fill="#191970" stroke="#191970" points="434.6275,-309.4269 430.2165,-299.7939 427.6576,-310.0751 434.6275,-309.4269"/>
</g>
<!-- Node23 -->
<g id="node24" class="node">
<title>Node23</title>
<g id="a_node24"><a xlink:href="TMathBase_8h.html" target="_top" xlink:title="TMathBase.h">
<polygon fill="#ffffff" stroke="#000000" points="696,-336.5 696,-355.5 776,-355.5 776,-336.5 696,-336.5"/>
<text text-anchor="middle" x="736" y="-343.5" font-family="Helvetica,sans-Serif" font-size="10.00" fill="#000000">TMathBase.h</text>
</a>
</g>
</g>
<!-- Node22&#45;&gt;Node23 -->
<g id="edge31" class="edge">
<title>Node22&#45;&gt;Node23</title>
<path fill="none" stroke="#191970" d="M593.2372,-392.7527C621.5698,-383.4742 665.4287,-369.1111 697.0577,-358.753"/>
<polygon fill="#191970" stroke="#191970" points="698.4479,-361.9807 706.862,-355.5423 696.2693,-355.3284 698.4479,-361.9807"/>
</g>
<!-- Node25 -->
<g id="node26" class="node">
<title>Node25</title>
<polygon fill="#ffffff" stroke="#bfbfbf" points="596.5,-280.5 596.5,-299.5 643.5,-299.5 643.5,-280.5 596.5,-280.5"/>
<text text-anchor="middle" x="620" y="-287.5" font-family="Helvetica,sans-Serif" font-size="10.00" fill="#000000">cmath</text>
</g>
<!-- Node22&#45;&gt;Node25 -->
<g id="edge41" class="edge">
<title>Node22&#45;&gt;Node25</title>
<path fill="none" stroke="#191970" d="M561.1243,-392.4574C556.3342,-379.078 549.8651,-354.3298 559,-336 565.6003,-322.756 578.0327,-312.3192 589.9605,-304.7581"/>
<polygon fill="#191970" stroke="#191970" points="592.0165,-307.6102 598.8784,-299.5378 588.4801,-301.5691 592.0165,-307.6102"/>
</g>
<!-- Node26 -->
<g id="node27" class="node">
<title>Node26</title>
<polygon fill="#ffffff" stroke="#bfbfbf" points="772,-280.5 772,-299.5 836,-299.5 836,-280.5 772,-280.5"/>
<text text-anchor="middle" x="804" y="-287.5" font-family="Helvetica,sans-Serif" font-size="10.00" fill="#000000">algorithm</text>
</g>
<!-- Node22&#45;&gt;Node26 -->
<g id="edge39" class="edge">
<title>Node22&#45;&gt;Node26</title>
<path fill="none" stroke="#191970" d="M593.3996,-399.6684C646.3757,-394.7552 757.4051,-381.6203 785,-356 797.6731,-344.2338 802.085,-324.6164 803.5286,-309.82"/>
<polygon fill="#191970" stroke="#191970" points="807.0332,-309.8474 804.1416,-299.6548 800.0459,-309.426 807.0332,-309.8474"/>
</g>
<!-- Node27 -->
<g id="node28" class="node">
<title>Node27</title>
<g id="a_node28"><a xlink:href="TError_8h.html" target="_top" xlink:title="TError.h">
<polygon fill="#ffffff" stroke="#000000" points="458,-336.5 458,-355.5 512,-355.5 512,-336.5 458,-336.5"/>
<text text-anchor="middle" x="485" y="-343.5" font-family="Helvetica,sans-Serif" font-size="10.00" fill="#000000">TError.h</text>
</a>
</g>
</g>
<!-- Node22&#45;&gt;Node27 -->
<g id="edge36" class="edge">
<title>Node22&#45;&gt;Node27</title>
<path fill="none" stroke="#191970" d="M551.0651,-392.2455C538.9053,-383.7337 521.0536,-371.2375 506.9715,-361.3801"/>
<polygon fill="#191970" stroke="#191970" points="508.9747,-358.51 498.7752,-355.6427 504.9605,-364.2447 508.9747,-358.51"/>
</g>
<!-- Node29 -->
<g id="node30" class="node">
<title>Node29</title>
<polygon fill="#ffffff" stroke="#bfbfbf" points="568,-336.5 568,-355.5 612,-355.5 612,-336.5 568,-336.5"/>
<text text-anchor="middle" x="590" y="-343.5" font-family="Helvetica,sans-Serif" font-size="10.00" fill="#000000">limits</text>
</g>
<!-- Node22&#45;&gt;Node29 -->
<g id="edge40" class="edge">
<title>Node22&#45;&gt;Node29</title>
<path fill="none" stroke="#191970" d="M569.3547,-392.2455C572.7244,-384.6973 577.493,-374.0158 581.5983,-364.8197"/>
<polygon fill="#191970" stroke="#191970" points="584.8147,-366.2009 585.6952,-355.6427 578.4227,-363.3473 584.8147,-366.2009"/>
</g>
<!-- Node30 -->
<g id="node31" class="node">
<title>Node30</title>
<polygon fill="#ffffff" stroke="#bfbfbf" points="630.5,-336.5 630.5,-355.5 677.5,-355.5 677.5,-336.5 630.5,-336.5"/>
<text text-anchor="middle" x="654" y="-343.5" font-family="Helvetica,sans-Serif" font-size="10.00" fill="#000000">float.h</text>
</g>
<!-- Node22&#45;&gt;Node30 -->
<g id="edge42" class="edge">
<title>Node22&#45;&gt;Node30</title>
<path fill="none" stroke="#191970" d="M580.5026,-392.2455C594.158,-383.6534 614.2657,-371.0014 629.9989,-361.1018"/>
<polygon fill="#191970" stroke="#191970" points="632.0751,-363.9307 638.675,-355.6427 628.3471,-358.006 632.0751,-363.9307"/>
</g>
<!-- Node23&#45;&gt;Node1 -->
<g id="edge32" class="edge">
<title>Node23&#45;&gt;Node1</title>
<path fill="none" stroke="#191970" d="M695.9126,-337.6909C692.8991,-337.1055 689.903,-336.5357 687,-336 593.5417,-318.753 566.8047,-320.104 469.6887,-299.9946"/>
<polygon fill="#191970" stroke="#191970" points="470.2528,-296.5369 459.7477,-297.9128 468.818,-303.3882 470.2528,-296.5369"/>
</g>
<!-- Node24 -->
<g id="node25" class="node">
<title>Node24</title>
<polygon fill="#ffffff" stroke="#bfbfbf" points="704.5,-280.5 704.5,-299.5 753.5,-299.5 753.5,-280.5 704.5,-280.5"/>
<text text-anchor="middle" x="729" y="-287.5" font-family="Helvetica,sans-Serif" font-size="10.00" fill="#000000">cstdlib</text>
</g>
<!-- Node23&#45;&gt;Node24 -->
<g id="edge33" class="edge">
<title>Node23&#45;&gt;Node24</title>
<path fill="none" stroke="#191970" d="M734.7807,-336.2455C733.8673,-328.9382 732.5868,-318.6944 731.4631,-309.7046"/>
<polygon fill="#191970" stroke="#191970" points="734.9187,-309.1313 730.2053,-299.6427 727.9728,-309.9996 734.9187,-309.1313"/>
</g>
<!-- Node23&#45;&gt;Node25 -->
<g id="edge34" class="edge">
<title>Node23&#45;&gt;Node25</title>
<path fill="none" stroke="#191970" d="M716.0589,-336.3733C697.5214,-327.4241 669.6972,-313.9917 648.7587,-303.8835"/>
<polygon fill="#191970" stroke="#191970" points="650.2081,-300.6967 639.6809,-299.5011 647.1648,-307.0006 650.2081,-300.6967"/>
</g>
<!-- Node23&#45;&gt;Node26 -->
<g id="edge35" class="edge">
<title>Node23&#45;&gt;Node26</title>
<path fill="none" stroke="#191970" d="M747.8447,-336.2455C757.888,-327.9746 772.4995,-315.9416 784.3004,-306.2232"/>
<polygon fill="#191970" stroke="#191970" points="786.7967,-308.7015 792.291,-299.6427 782.3467,-303.298 786.7967,-308.7015"/>
</g>
<!-- Node27&#45;&gt;Node1 -->
<g id="edge37" class="edge">
<title>Node27&#45;&gt;Node1</title>
<path fill="none" stroke="#191970" d="M475.4197,-336.2455C467.4542,-328.1352 455.9359,-316.4075 446.4921,-306.7919"/>
<polygon fill="#191970" stroke="#191970" points="448.9747,-304.3247 439.4705,-299.6427 443.9805,-309.2297 448.9747,-304.3247"/>
</g>
<!-- Node28 -->
<g id="node29" class="node">
<title>Node28</title>
<polygon fill="#ffffff" stroke="#bfbfbf" points="478,-280.5 478,-299.5 534,-299.5 534,-280.5 478,-280.5"/>
<text text-anchor="middle" x="506" y="-287.5" font-family="Helvetica,sans-Serif" font-size="10.00" fill="#000000">stdarg.h</text>
</g>
<!-- Node27&#45;&gt;Node28 -->
<g id="edge38" class="edge">
<title>Node27&#45;&gt;Node28</title>
<path fill="none" stroke="#191970" d="M488.6579,-336.2455C491.4584,-328.7776 495.409,-318.2427 498.8324,-309.1137"/>
<polygon fill="#191970" stroke="#191970" points="502.1499,-310.2349 502.384,-299.6427 495.5955,-307.777 502.1499,-310.2349"/>
</g>
</g>
</svg>
        <g id="navigator" transform="translate(0 0)" fill="#404254">
                <rect fill="#f2f5e9" fill-opacity="0.5" stroke="#606060" stroke-width=".5" x="0" y="0" width="60" height="60"/>
                <use id="zoomplus" xlink:href="#zoomPlus" x="17" y="9" onmousedown="handleZoom(evt,'in')"/>
                <use id="zoomminus" xlink:href="#zoomMin" x="42" y="9" onmousedown="handleZoom(evt,'out')"/>
                <use id="reset" xlink:href="#resetDef" x="30" y="36" onmousedown="handleReset()"/>
                <g id="arrowUp" xlink:href="#dirArrow" transform="translate(30 24)" onmousedown="handlePan(0,-1)">
                  <use xlink:href="#rim" fill="#404040">
                        <set attributeName="fill" to="#808080" begin="arrowUp.mouseover" end="arrowUp.mouseout"/>
                  </use>
                  <path fill="none" stroke="white" stroke-width="1.5" d="M0,-3.0v7 M-2.5,-0.5L0,-3.0L2.5,-0.5"/>
                </g>
                <g id="arrowRight" xlink:href="#dirArrow" transform="rotate(90) translate(36 -43)" onmousedown="handlePan(1,0)">
                  <use xlink:href="#rim" fill="#404040">
                        <set attributeName="fill" to="#808080" begin="arrowRight.mouseover" end="arrowRight.mouseout"/>
                  </use>
                  <path fill="none" stroke="white" stroke-width="1.5" d="M0,-3.0v7 M-2.5,-0.5L0,-3.0L2.5,-0.5"/>
                </g>
                <g id="arrowDown" xlink:href="#dirArrow" transform="rotate(180) translate(-30 -48)" onmousedown="handlePan(0,1)">
                  <use xlink:href="#rim" fill="#404040">
                        <set attributeName="fill" to="#808080" begin="arrowDown.mouseover" end="arrowDown.mouseout"/>
                  </use>
                  <path fill="none" stroke="white" stroke-width="1.5" d="M0,-3.0v7 M-2.5,-0.5L0,-3.0L2.5,-0.5"/>
                </g>
                <g id="arrowLeft" xlink:href="#dirArrow" transform="rotate(270) translate(-36 17)" onmousedown="handlePan(-1,0)">
                  <use xlink:href="#rim" fill="#404040">
                        <set attributeName="fill" to="#808080" begin="arrowLeft.mouseover" end="arrowLeft.mouseout"/>
                  </use>
                  <path fill="none" stroke="white" stroke-width="1.5" d="M0,-3.0v7 M-2.5,-0.5L0,-3.0L2.5,-0.5"/>
                </g>
        </g>
        <svg viewBox="0 0 15 15" width="100%" height="30px" preserveAspectRatio="xMaxYMin meet">
         <g id="arrow_out" transform="scale(0.3 0.3)">
          <a xlink:href="VectorizedTMath_8h__incl_org.svg" target="_base">
           <rect id="button" ry="5" rx="5" y="6" x="6" height="38" width="38"
                fill="#f2f5e9" fill-opacity="0.5" stroke="#606060" stroke-width="1.0"/>
           <path id="arrow"
             d="M 11.500037,31.436501 C 11.940474,20.09759 22.043105,11.32322 32.158766,21.979434 L 37.068811,17.246167 C 37.068811,17.246167 37.088388,32 37.088388,32 L 22.160133,31.978069 C 22.160133,31.978069 26.997745,27.140456 26.997745,27.140456 C 18.528582,18.264221 13.291696,25.230495 11.500037,31.436501 z"
             style="fill:#404040;"/>
          </a>
         </g>
        </svg>
</svg>
