<?xml version="1.0" encoding="UTF-8" standalone="no"?>
<!DOCTYPE svg PUBLIC "-//W3C//DTD SVG 1.1//EN"
 "http://www.w3.org/Graphics/SVG/1.1/DTD/svg11.dtd">
<!-- Generated by graphviz version 2.40.1 (0)
 -->
<!-- Title: math/mathcore/inc/Math/VirtualIntegrator.h Pages: 1 -->
<svg width="2105pt" height="363pt"
 viewBox="0.00 0.00 2104.59 363.00" xmlns="http://www.w3.org/2000/svg" xmlns:xlink="http://www.w3.org/1999/xlink">
<g id="graph0" class="graph" transform="scale(1 1) rotate(0) translate(4 359)">
<title>math/mathcore/inc/Math/VirtualIntegrator.h</title>
<polygon fill="#ffffff" stroke="transparent" points="-4,4 -4,-359 2100.5883,-359 2100.5883,4 -4,4"/>
<!-- Node33 -->
<g id="node1" class="node">
<title>Node33</title>
<polygon fill="#bfbfbf" stroke="#000000" points="1065.5,-324.5 1065.5,-354.5 1201.5,-354.5 1201.5,-324.5 1065.5,-324.5"/>
<text text-anchor="start" x="1073.5" y="-342.5" font-family="Helvetica,sans-Serif" font-size="10.00" fill="#000000">math/mathcore/inc/Math</text>
<text text-anchor="middle" x="1133.5" y="-331.5" font-family="Helvetica,sans-Serif" font-size="10.00" fill="#000000">/VirtualIntegrator.h</text>
</g>
<!-- Node34 -->
<g id="node2" class="node">
<title>Node34</title>
<g id="a_node2"><a xlink:href="AdaptiveIntegratorMultiDim_8h.html" target="_top" xlink:title="math/mathcore/inc/Math\l/AdaptiveIntegratorMultiDim.h">
<polygon fill="#ffffff" stroke="#000000" points="289.5,-190.5 289.5,-220.5 453.5,-220.5 453.5,-190.5 289.5,-190.5"/>
<text text-anchor="start" x="297.5" y="-208.5" font-family="Helvetica,sans-Serif" font-size="10.00" fill="#000000">math/mathcore/inc/Math</text>
<text text-anchor="middle" x="371.5" y="-197.5" font-family="Helvetica,sans-Serif" font-size="10.00" fill="#000000">/AdaptiveIntegratorMultiDim.h</text>
</a>
</g>
</g>
<!-- Node33&#45;&gt;Node34 -->
<g id="edge1" class="edge">
<title>Node33&#45;&gt;Node34</title>
<path fill="none" stroke="#191970" d="M1055.0467,-327.5527C989.7862,-317.4705 894.4924,-302.4147 811.5,-288 683.8135,-265.8225 535.7857,-237.5334 448.0907,-220.5039"/>
<polygon fill="#191970" stroke="#191970" points="1054.8396,-331.0621 1065.2562,-329.1273 1055.9066,-324.1439 1054.8396,-331.0621"/>
</g>
<!-- Node38 -->
<g id="node6" class="node">
<title>Node38</title>
<g id="a_node6"><a xlink:href="Integrator_8cxx.html" target="_top" xlink:title="math/mathcore/src/Integrator.cxx">
<polygon fill="#ffffff" stroke="#000000" points="882,-129 882,-148 1061,-148 1061,-129 882,-129"/>
<text text-anchor="middle" x="971.5" y="-136" font-family="Helvetica,sans-Serif" font-size="10.00" fill="#000000">math/mathcore/src/Integrator.cxx</text>
</a>
</g>
</g>
<!-- Node33&#45;&gt;Node38 -->
<g id="edge49" class="edge">
<title>Node33&#45;&gt;Node38</title>
<path fill="none" stroke="#191970" d="M1115.0232,-316.5751C1079.7028,-272.7516 1003.9291,-178.7361 979.3632,-148.2562"/>
<polygon fill="#191970" stroke="#191970" points="1112.3233,-318.8027 1121.3237,-324.3923 1117.7735,-314.41 1112.3233,-318.8027"/>
</g>
<!-- Node40 -->
<g id="node8" class="node">
<title>Node40</title>
<g id="a_node8"><a xlink:href="GaussIntegrator_8h.html" target="_top" xlink:title="math/mathcore/inc/Math\l/GaussIntegrator.h">
<polygon fill="#ffffff" stroke="#000000" points="820.5,-257.5 820.5,-287.5 956.5,-287.5 956.5,-257.5 820.5,-257.5"/>
<text text-anchor="start" x="828.5" y="-275.5" font-family="Helvetica,sans-Serif" font-size="10.00" fill="#000000">math/mathcore/inc/Math</text>
<text text-anchor="middle" x="888.5" y="-264.5" font-family="Helvetica,sans-Serif" font-size="10.00" fill="#000000">/GaussIntegrator.h</text>
</a>
</g>
</g>
<!-- Node33&#45;&gt;Node40 -->
<g id="edge7" class="edge">
<title>Node33&#45;&gt;Node40</title>
<path fill="none" stroke="#191970" d="M1068.8484,-321.8198C1029.9068,-311.1704 980.8414,-297.7525 943.7226,-287.6017"/>
<polygon fill="#191970" stroke="#191970" points="1067.9481,-325.202 1078.5172,-324.4639 1069.7947,-318.4499 1067.9481,-325.202"/>
</g>
<!-- Node44 -->
<g id="node12" class="node">
<title>Node44</title>
<g id="a_node12"><a xlink:href="Integrator_8h.html" target="_top" xlink:title="math/mathcore/inc/Math\l/Integrator.h">
<polygon fill="#ffffff" stroke="#000000" points="1219.5,-190.5 1219.5,-220.5 1355.5,-220.5 1355.5,-190.5 1219.5,-190.5"/>
<text text-anchor="start" x="1227.5" y="-208.5" font-family="Helvetica,sans-Serif" font-size="10.00" fill="#000000">math/mathcore/inc/Math</text>
<text text-anchor="middle" x="1287.5" y="-197.5" font-family="Helvetica,sans-Serif" font-size="10.00" fill="#000000">/Integrator.h</text>
</a>
</g>
</g>
<!-- Node33&#45;&gt;Node44 -->
<g id="edge17" class="edge">
<title>Node33&#45;&gt;Node44</title>
<path fill="none" stroke="#191970" d="M1158.7224,-317.5533C1190.0553,-290.2895 1242.7024,-244.4797 1269.9608,-220.7614"/>
<polygon fill="#191970" stroke="#191970" points="1156.1129,-315.1843 1150.8664,-324.389 1160.7079,-320.4651 1156.1129,-315.1843"/>
</g>
<!-- Node59 -->
<g id="node27" class="node">
<title>Node59</title>
<g id="a_node27"><a xlink:href="IntegratorMultiDim_8h.html" target="_top" xlink:title="math/mathcore/inc/Math\l/IntegratorMultiDim.h">
<polygon fill="#ffffff" stroke="#000000" points="1065.5,-190.5 1065.5,-220.5 1201.5,-220.5 1201.5,-190.5 1065.5,-190.5"/>
<text text-anchor="start" x="1073.5" y="-208.5" font-family="Helvetica,sans-Serif" font-size="10.00" fill="#000000">math/mathcore/inc/Math</text>
<text text-anchor="middle" x="1133.5" y="-197.5" font-family="Helvetica,sans-Serif" font-size="10.00" fill="#000000">/IntegratorMultiDim.h</text>
</a>
</g>
</g>
<!-- Node33&#45;&gt;Node59 -->
<g id="edge41" class="edge">
<title>Node33&#45;&gt;Node59</title>
<path fill="none" stroke="#191970" d="M1133.5,-314.3415C1133.5,-286.8131 1133.5,-243.5714 1133.5,-220.7614"/>
<polygon fill="#191970" stroke="#191970" points="1130.0001,-314.3889 1133.5,-324.389 1137.0001,-314.389 1130.0001,-314.3889"/>
</g>
<!-- Node60 -->
<g id="node28" class="node">
<title>Node60</title>
<g id="a_node28"><a xlink:href="GSLIntegrator_8h.html" target="_top" xlink:title="math/mathmore/inc/Math\l/GSLIntegrator.h">
<polygon fill="#ffffff" stroke="#000000" points="1331.5,-257.5 1331.5,-287.5 1471.5,-287.5 1471.5,-257.5 1331.5,-257.5"/>
<text text-anchor="start" x="1339.5" y="-275.5" font-family="Helvetica,sans-Serif" font-size="10.00" fill="#000000">math/mathmore/inc/Math</text>
<text text-anchor="middle" x="1401.5" y="-264.5" font-family="Helvetica,sans-Serif" font-size="10.00" fill="#000000">/GSLIntegrator.h</text>
</a>
</g>
</g>
<!-- Node33&#45;&gt;Node60 -->
<g id="edge50" class="edge">
<title>Node33&#45;&gt;Node60</title>
<path fill="none" stroke="#191970" d="M1203.4101,-322.0225C1246.1355,-311.3411 1300.2318,-297.8171 1341.0932,-287.6017"/>
<polygon fill="#191970" stroke="#191970" points="1202.497,-318.643 1193.6444,-324.4639 1204.1948,-325.434 1202.497,-318.643"/>
</g>
<!-- Node62 -->
<g id="node30" class="node">
<title>Node62</title>
<g id="a_node30"><a xlink:href="GSLMCIntegrator_8h.html" target="_top" xlink:title="math/mathmore/inc/Math\l/GSLMCIntegrator.h">
<polygon fill="#ffffff" stroke="#000000" points="1561.5,-257.5 1561.5,-287.5 1701.5,-287.5 1701.5,-257.5 1561.5,-257.5"/>
<text text-anchor="start" x="1569.5" y="-275.5" font-family="Helvetica,sans-Serif" font-size="10.00" fill="#000000">math/mathmore/inc/Math</text>
<text text-anchor="middle" x="1631.5" y="-264.5" font-family="Helvetica,sans-Serif" font-size="10.00" fill="#000000">/GSLMCIntegrator.h</text>
</a>
</g>
</g>
<!-- Node33&#45;&gt;Node62 -->
<g id="edge52" class="edge">
<title>Node33&#45;&gt;Node62</title>
<path fill="none" stroke="#191970" d="M1211.6416,-328.987C1307.6489,-316.0703 1469.1061,-294.3482 1561.3171,-281.9423"/>
<polygon fill="#191970" stroke="#191970" points="1211.1446,-325.5222 1201.7006,-330.3244 1212.078,-332.4597 1211.1446,-325.5222"/>
</g>
<!-- Node35 -->
<g id="node3" class="node">
<title>Node35</title>
<g id="a_node3"><a xlink:href="TF1_8cxx.html" target="_top" xlink:title="hist/hist/src/TF1.cxx">
<polygon fill="#ffffff" stroke="#000000" points="751,-129 751,-148 864,-148 864,-129 751,-129"/>
<text text-anchor="middle" x="807.5" y="-136" font-family="Helvetica,sans-Serif" font-size="10.00" fill="#000000">hist/hist/src/TF1.cxx</text>
</a>
</g>
</g>
<!-- Node34&#45;&gt;Node35 -->
<g id="edge2" class="edge">
<title>Node34&#45;&gt;Node35</title>
<path fill="none" stroke="#191970" d="M463.7543,-193.6507C555.5254,-181.6845 689.881,-163.6324 741.5,-154 750.6406,-152.2943 760.4249,-150.1653 769.5852,-148.0366"/>
<polygon fill="#191970" stroke="#191970" points="463.0841,-190.2083 453.6196,-194.97 463.9878,-197.1498 463.0841,-190.2083"/>
</g>
<!-- Node36 -->
<g id="node4" class="node">
<title>Node36</title>
<g id="a_node4"><a xlink:href="TF1Convolution_8cxx.html" target="_top" xlink:title="hist/hist/src/TF1Convolution.cxx">
<polygon fill="#ffffff" stroke="#000000" points="355.5,-129 355.5,-148 527.5,-148 527.5,-129 355.5,-129"/>
<text text-anchor="middle" x="441.5" y="-136" font-family="Helvetica,sans-Serif" font-size="10.00" fill="#000000">hist/hist/src/TF1Convolution.cxx</text>
</a>
</g>
</g>
<!-- Node34&#45;&gt;Node36 -->
<g id="edge3" class="edge">
<title>Node34&#45;&gt;Node36</title>
<path fill="none" stroke="#191970" d="M394.7951,-183.2032C407.2696,-171.2634 421.986,-157.1776 431.5172,-148.055"/>
<polygon fill="#191970" stroke="#191970" points="392.1882,-180.8536 387.3841,-190.2967 397.0284,-185.9105 392.1882,-180.8536"/>
</g>
<!-- Node37 -->
<g id="node5" class="node">
<title>Node37</title>
<g id="a_node5"><a xlink:href="AdaptiveIntegratorMultiDim_8cxx.html" target="_top" xlink:title="math/mathcore/src/Adaptive\lIntegratorMultiDim.cxx">
<polygon fill="#ffffff" stroke="#000000" points="0,-123.5 0,-153.5 155,-153.5 155,-123.5 0,-123.5"/>
<text text-anchor="start" x="8" y="-141.5" font-family="Helvetica,sans-Serif" font-size="10.00" fill="#000000">math/mathcore/src/Adaptive</text>
<text text-anchor="middle" x="77.5" y="-130.5" font-family="Helvetica,sans-Serif" font-size="10.00" fill="#000000">IntegratorMultiDim.cxx</text>
</a>
</g>
</g>
<!-- Node34&#45;&gt;Node37 -->
<g id="edge4" class="edge">
<title>Node34&#45;&gt;Node37</title>
<path fill="none" stroke="#191970" d="M295.6766,-188.2205C248.5841,-177.4886 188.6454,-163.8291 143.513,-153.5438"/>
<polygon fill="#191970" stroke="#191970" points="294.9929,-191.6544 305.5207,-190.4639 296.5483,-184.8294 294.9929,-191.6544"/>
</g>
<!-- Node34&#45;&gt;Node38 -->
<g id="edge5" class="edge">
<title>Node34&#45;&gt;Node38</title>
<path fill="none" stroke="#191970" d="M463.9667,-194.1279C476.2464,-192.6944 488.6741,-191.2825 500.5,-190 665.6374,-172.0909 707.7088,-174.8557 872.5,-154 886.1348,-152.2744 900.7821,-150.1378 914.5186,-148.0081"/>
<polygon fill="#191970" stroke="#191970" points="463.2258,-190.6908 453.7029,-195.3347 464.0433,-197.6429 463.2258,-190.6908"/>
</g>
<!-- Node39 -->
<g id="node7" class="node">
<title>Node39</title>
<g id="a_node7"><a xlink:href="RooAdaptiveIntegratorND_8cxx.html" target="_top" xlink:title=" &#160;">
<polygon fill="#ffffff" stroke="#000000" points="173.5,-123.5 173.5,-153.5 337.5,-153.5 337.5,-123.5 173.5,-123.5"/>
<text text-anchor="start" x="181.5" y="-141.5" font-family="Helvetica,sans-Serif" font-size="10.00" fill="#000000">roofit/roofitcore/src</text>
<text text-anchor="middle" x="255.5" y="-130.5" font-family="Helvetica,sans-Serif" font-size="10.00" fill="#000000">/RooAdaptiveIntegratorND.cxx</text>
</a>
</g>
</g>
<!-- Node34&#45;&gt;Node39 -->
<g id="edge6" class="edge">
<title>Node34&#45;&gt;Node39</title>
<path fill="none" stroke="#191970" d="M336.624,-185.3561C319.0395,-175.1995 298.0638,-163.0843 281.8471,-153.7177"/>
<polygon fill="#191970" stroke="#191970" points="335.0574,-188.4931 345.4673,-190.4639 338.5585,-182.4315 335.0574,-188.4931"/>
</g>
<!-- Node40&#45;&gt;Node35 -->
<g id="edge8" class="edge">
<title>Node40&#45;&gt;Node35</title>
<path fill="none" stroke="#191970" d="M898.2338,-247.4587C903.2696,-230.2016 906.5017,-207.3429 896.5,-190 884.4602,-169.123 860.3685,-155.943 840.284,-148.1478"/>
<polygon fill="#191970" stroke="#191970" points="894.7701,-246.7874 894.9674,-257.3804 901.419,-248.9764 894.7701,-246.7874"/>
</g>
<!-- Node40&#45;&gt;Node36 -->
<g id="edge9" class="edge">
<title>Node40&#45;&gt;Node36</title>
<path fill="none" stroke="#191970" d="M810.3248,-269.4117C712.3761,-264.3079 551.2027,-251.4594 500.5,-221 471.5188,-203.5897 452.8219,-165.8886 445.2848,-148.1262"/>
<polygon fill="#191970" stroke="#191970" points="810.3146,-272.9156 820.4786,-269.9249 810.668,-265.9245 810.3146,-272.9156"/>
</g>
<!-- Node40&#45;&gt;Node38 -->
<g id="edge16" class="edge">
<title>Node40&#45;&gt;Node38</title>
<path fill="none" stroke="#191970" d="M903.1683,-248.8187C921.6706,-218.9475 952.6287,-168.967 965.5512,-148.1042"/>
<polygon fill="#191970" stroke="#191970" points="900.1501,-247.0446 897.8598,-257.389 906.1011,-250.7307 900.1501,-247.0446"/>
</g>
<!-- Node41 -->
<g id="node9" class="node">
<title>Node41</title>
<g id="a_node9"><a xlink:href="GaussLegendreIntegrator_8h.html" target="_top" xlink:title="math/mathcore/inc/Math\l/GaussLegendreIntegrator.h">
<polygon fill="#ffffff" stroke="#000000" points="737,-190.5 737,-220.5 888,-220.5 888,-190.5 737,-190.5"/>
<text text-anchor="start" x="745" y="-208.5" font-family="Helvetica,sans-Serif" font-size="10.00" fill="#000000">math/mathcore/inc/Math</text>
<text text-anchor="middle" x="812.5" y="-197.5" font-family="Helvetica,sans-Serif" font-size="10.00" fill="#000000">/GaussLegendreIntegrator.h</text>
</a>
</g>
</g>
<!-- Node40&#45;&gt;Node41 -->
<g id="edge10" class="edge">
<title>Node40&#45;&gt;Node41</title>
<path fill="none" stroke="#191970" d="M863.5408,-250.4965C852.4503,-240.7193 839.6733,-229.4554 829.6773,-220.6432"/>
<polygon fill="#191970" stroke="#191970" points="861.4386,-253.3091 871.2544,-257.2967 866.0677,-248.0582 861.4386,-253.3091"/>
</g>
<!-- Node43 -->
<g id="node11" class="node">
<title>Node43</title>
<g id="a_node11"><a xlink:href="GaussIntegrator_8cxx.html" target="_top" xlink:title="math/mathcore/src/GaussIntegrator.cxx">
<polygon fill="#ffffff" stroke="#000000" points="510,-196 510,-215 719,-215 719,-196 510,-196"/>
<text text-anchor="middle" x="614.5" y="-203" font-family="Helvetica,sans-Serif" font-size="10.00" fill="#000000">math/mathcore/src/GaussIntegrator.cxx</text>
</a>
</g>
</g>
<!-- Node40&#45;&gt;Node43 -->
<g id="edge15" class="edge">
<title>Node40&#45;&gt;Node43</title>
<path fill="none" stroke="#191970" d="M817.1196,-255.0457C764.8353,-242.2608 695.857,-225.3939 653.3724,-215.0053"/>
<polygon fill="#191970" stroke="#191970" points="816.4639,-258.4884 827.0091,-257.4639 818.1266,-251.6887 816.4639,-258.4884"/>
</g>
<!-- Node41&#45;&gt;Node35 -->
<g id="edge11" class="edge">
<title>Node41&#45;&gt;Node35</title>
<path fill="none" stroke="#191970" d="M810.606,-180.1199C809.7692,-168.9072 808.8361,-156.4031 808.2131,-148.055"/>
<polygon fill="#191970" stroke="#191970" points="807.1308,-180.5849 811.3654,-190.2967 814.1114,-180.0639 807.1308,-180.5849"/>
</g>
<!-- Node41&#45;&gt;Node36 -->
<g id="edge12" class="edge">
<title>Node41&#45;&gt;Node36</title>
<path fill="none" stroke="#191970" d="M727.1088,-189.9313C639.4424,-174.0526 549.8224,-157.9398 494.4812,-148.0042"/>
<polygon fill="#191970" stroke="#191970" points="726.494,-193.3768 736.9578,-191.7157 727.742,-186.4889 726.494,-193.3768"/>
</g>
<!-- Node41&#45;&gt;Node38 -->
<g id="edge14" class="edge">
<title>Node41&#45;&gt;Node38</title>
<path fill="none" stroke="#191970" d="M857.5319,-186.5243C887.2775,-173.99 925.0065,-158.0916 948.7086,-148.1039"/>
<polygon fill="#191970" stroke="#191970" points="856.0388,-183.3553 848.1827,-190.4639 858.7571,-189.806 856.0388,-183.3553"/>
</g>
<!-- Node42 -->
<g id="node10" class="node">
<title>Node42</title>
<g id="a_node10"><a xlink:href="GaussLegendreIntegrator_8cxx.html" target="_top" xlink:title="math/mathcore/src/GaussLegendre\lIntegrator.cxx">
<polygon fill="#ffffff" stroke="#000000" points="546,-123.5 546,-153.5 733,-153.5 733,-123.5 546,-123.5"/>
<text text-anchor="start" x="554" y="-141.5" font-family="Helvetica,sans-Serif" font-size="10.00" fill="#000000">math/mathcore/src/GaussLegendre</text>
<text text-anchor="middle" x="639.5" y="-130.5" font-family="Helvetica,sans-Serif" font-size="10.00" fill="#000000">Integrator.cxx</text>
</a>
</g>
</g>
<!-- Node41&#45;&gt;Node42 -->
<g id="edge13" class="edge">
<title>Node41&#45;&gt;Node42</title>
<path fill="none" stroke="#191970" d="M764.0276,-186.7275C737.0113,-176.2645 703.8158,-163.4084 678.4939,-153.6017"/>
<polygon fill="#191970" stroke="#191970" points="763.0863,-190.1162 773.6754,-190.4639 765.6144,-183.5886 763.0863,-190.1162"/>
</g>
<!-- Node44&#45;&gt;Node35 -->
<g id="edge18" class="edge">
<title>Node44&#45;&gt;Node35</title>
<path fill="none" stroke="#191970" d="M1209.106,-189.877C1059.4186,-167.5889 1018.1928,-179.0241 872.5,-154 863.1244,-152.3896 853.086,-150.2206 843.7714,-148.0161"/>
<polygon fill="#191970" stroke="#191970" points="1208.7133,-193.3574 1219.1247,-191.3946 1209.7617,-186.4363 1208.7133,-193.3574"/>
</g>
<!-- Node44&#45;&gt;Node36 -->
<g id="edge19" class="edge">
<title>Node44&#45;&gt;Node36</title>
<path fill="none" stroke="#191970" d="M1208.9187,-189.9221C911.1127,-153.0543 831.3999,-185.8385 536.5,-154 522.5437,-152.4932 507.518,-150.3065 493.6273,-148.0482"/>
<polygon fill="#191970" stroke="#191970" points="1208.7934,-193.4338 1219.1512,-191.2055 1209.6646,-186.4882 1208.7934,-193.4338"/>
</g>
<!-- Node44&#45;&gt;Node38 -->
<g id="edge37" class="edge">
<title>Node44&#45;&gt;Node38</title>
<path fill="none" stroke="#191970" d="M1209.4035,-188.9416C1148.7756,-176.0869 1066.8438,-158.7153 1016.6636,-148.0758"/>
<polygon fill="#191970" stroke="#191970" points="1208.8132,-192.3941 1219.3218,-191.0445 1210.2652,-185.5464 1208.8132,-192.3941"/>
</g>
<!-- Node45 -->
<g id="node13" class="node">
<title>Node45</title>
<g id="a_node13"><a xlink:href="TKDE_8cxx.html" target="_top" xlink:title="hist/hist/src/TKDE.cxx">
<polygon fill="#ffffff" stroke="#000000" points="1958.5,-129 1958.5,-148 2080.5,-148 2080.5,-129 1958.5,-129"/>
<text text-anchor="middle" x="2019.5" y="-136" font-family="Helvetica,sans-Serif" font-size="10.00" fill="#000000">hist/hist/src/TKDE.cxx</text>
</a>
</g>
</g>
<!-- Node44&#45;&gt;Node45 -->
<g id="edge20" class="edge">
<title>Node44&#45;&gt;Node45</title>
<path fill="none" stroke="#191970" d="M1365.9241,-189.9341C1624.5682,-157.0711 1694.8203,-189.8086 1949.5,-154 1959.977,-152.5269 1971.2138,-150.3232 1981.5507,-148.0366"/>
<polygon fill="#191970" stroke="#191970" points="1365.3219,-186.4827 1355.8525,-191.2346 1366.2184,-193.4251 1365.3219,-186.4827"/>
</g>
<!-- Node46 -->
<g id="node14" class="node">
<title>Node46</title>
<g id="a_node14"><a xlink:href="FitUtil_8h.html" target="_top" xlink:title="math/mathcore/inc/Fit\l/FitUtil.h">
<polygon fill="#ffffff" stroke="#000000" points="1079,-123.5 1079,-153.5 1202,-153.5 1202,-123.5 1079,-123.5"/>
<text text-anchor="start" x="1087" y="-141.5" font-family="Helvetica,sans-Serif" font-size="10.00" fill="#000000">math/mathcore/inc/Fit</text>
<text text-anchor="middle" x="1140.5" y="-130.5" font-family="Helvetica,sans-Serif" font-size="10.00" fill="#000000">/FitUtil.h</text>
</a>
</g>
</g>
<!-- Node44&#45;&gt;Node46 -->
<g id="edge21" class="edge">
<title>Node44&#45;&gt;Node46</title>
<path fill="none" stroke="#191970" d="M1245.4036,-186.3132C1222.6153,-175.9267 1194.8667,-163.2794 1173.6336,-153.6017"/>
<polygon fill="#191970" stroke="#191970" points="1243.9593,-189.5013 1254.5103,-190.4639 1246.8625,-183.1317 1243.9593,-189.5013"/>
</g>
<!-- Node54 -->
<g id="node22" class="node">
<title>Node54</title>
<g id="a_node22"><a xlink:href="FitUtil_8cxx.html" target="_top" xlink:title="math/mathcore/src/FitUtil.cxx">
<polygon fill="#ffffff" stroke="#000000" points="1294,-62 1294,-81 1455,-81 1455,-62 1294,-62"/>
<text text-anchor="middle" x="1374.5" y="-69" font-family="Helvetica,sans-Serif" font-size="10.00" fill="#000000">math/mathcore/src/FitUtil.cxx</text>
</a>
</g>
</g>
<!-- Node44&#45;&gt;Node54 -->
<g id="edge35" class="edge">
<title>Node44&#45;&gt;Node54</title>
<path fill="none" stroke="#191970" d="M1365.9778,-190.3823C1462.2908,-184.7906 2062.9491,-181.902 2089.5,-154 2098.9977,-144.019 2098.8859,-133.0862 2089.5,-123 2068.1456,-100.0521 1637.4357,-81.3229 1455.0154,-74.3883"/>
<polygon fill="#191970" stroke="#191970" points="1365.5364,-186.9063 1355.8471,-191.1921 1366.0942,-193.884 1365.5364,-186.9063"/>
</g>
<!-- Node55 -->
<g id="node23" class="node">
<title>Node55</title>
<g id="a_node23"><a xlink:href="GoFTest_8cxx.html" target="_top" xlink:title="math/mathcore/src/GoFTest.cxx">
<polygon fill="#ffffff" stroke="#000000" points="1588.5,-129 1588.5,-148 1758.5,-148 1758.5,-129 1588.5,-129"/>
<text text-anchor="middle" x="1673.5" y="-136" font-family="Helvetica,sans-Serif" font-size="10.00" fill="#000000">math/mathcore/src/GoFTest.cxx</text>
</a>
</g>
</g>
<!-- Node44&#45;&gt;Node55 -->
<g id="edge36" class="edge">
<title>Node44&#45;&gt;Node55</title>
<path fill="none" stroke="#191970" d="M1365.8476,-189.8214C1411.4405,-181.7862 1539.7599,-160.5562 1615.7072,-148.0245"/>
<polygon fill="#191970" stroke="#191970" points="1365.135,-186.3933 1355.9108,-191.6053 1366.372,-193.2831 1365.135,-186.3933"/>
</g>
<!-- Node56 -->
<g id="node24" class="node">
<title>Node56</title>
<g id="a_node24"><a xlink:href="IntegratorOptions_8cxx.html" target="_top" xlink:title="math/mathcore/src/Integrator\lOptions.cxx">
<polygon fill="#ffffff" stroke="#000000" points="1258.5,-123.5 1258.5,-153.5 1418.5,-153.5 1418.5,-123.5 1258.5,-123.5"/>
<text text-anchor="start" x="1266.5" y="-141.5" font-family="Helvetica,sans-Serif" font-size="10.00" fill="#000000">math/mathcore/src/Integrator</text>
<text text-anchor="middle" x="1338.5" y="-130.5" font-family="Helvetica,sans-Serif" font-size="10.00" fill="#000000">Options.cxx</text>
</a>
</g>
</g>
<!-- Node44&#45;&gt;Node56 -->
<g id="edge38" class="edge">
<title>Node44&#45;&gt;Node56</title>
<path fill="none" stroke="#191970" d="M1305.3404,-182.0626C1312.5193,-172.6315 1320.5909,-162.0276 1326.9731,-153.6432"/>
<polygon fill="#191970" stroke="#191970" points="1302.3446,-180.2197 1299.0727,-190.2967 1307.9146,-184.4595 1302.3446,-180.2197"/>
</g>
<!-- Node57 -->
<g id="node25" class="node">
<title>Node57</title>
<g id="a_node25"><a xlink:href="TUnuranContDist_8cxx.html" target="_top" xlink:title="math/unuran/src/TUnuranCont\lDist.cxx">
<polygon fill="#ffffff" stroke="#000000" points="1777,-123.5 1777,-153.5 1940,-153.5 1940,-123.5 1777,-123.5"/>
<text text-anchor="start" x="1785" y="-141.5" font-family="Helvetica,sans-Serif" font-size="10.00" fill="#000000">math/unuran/src/TUnuranCont</text>
<text text-anchor="middle" x="1858.5" y="-130.5" font-family="Helvetica,sans-Serif" font-size="10.00" fill="#000000">Dist.cxx</text>
</a>
</g>
</g>
<!-- Node44&#45;&gt;Node57 -->
<g id="edge39" class="edge">
<title>Node44&#45;&gt;Node57</title>
<path fill="none" stroke="#191970" d="M1365.8444,-189.9028C1544.1969,-164.6723 1592.3894,-176.698 1767.5,-154 1770.5197,-153.6086 1773.5924,-153.1899 1776.6937,-152.7501"/>
<polygon fill="#191970" stroke="#191970" points="1365.2681,-186.4495 1355.8662,-191.3337 1366.2618,-193.3787 1365.2681,-186.4495"/>
</g>
<!-- Node58 -->
<g id="node26" class="node">
<title>Node58</title>
<g id="a_node26"><a xlink:href="BayesianCalculator_8cxx.html" target="_top" xlink:title="roofit/roostats/src\l/BayesianCalculator.cxx">
<polygon fill="#ffffff" stroke="#000000" points="1436.5,-123.5 1436.5,-153.5 1570.5,-153.5 1570.5,-123.5 1436.5,-123.5"/>
<text text-anchor="start" x="1444.5" y="-141.5" font-family="Helvetica,sans-Serif" font-size="10.00" fill="#000000">roofit/roostats/src</text>
<text text-anchor="middle" x="1503.5" y="-130.5" font-family="Helvetica,sans-Serif" font-size="10.00" fill="#000000">/BayesianCalculator.cxx</text>
</a>
</g>
</g>
<!-- Node44&#45;&gt;Node58 -->
<g id="edge40" class="edge">
<title>Node44&#45;&gt;Node58</title>
<path fill="none" stroke="#191970" d="M1345.8126,-187.4123C1379.9292,-176.8298 1422.5048,-163.6235 1454.814,-153.6017"/>
<polygon fill="#191970" stroke="#191970" points="1344.4888,-184.1583 1335.9746,-190.4639 1346.5626,-190.8441 1344.4888,-184.1583"/>
</g>
<!-- Node47 -->
<g id="node15" class="node">
<title>Node47</title>
<g id="a_node15"><a xlink:href="Chi2FCN_8h.html" target="_top" xlink:title="math/mathcore/inc/Fit\l/Chi2FCN.h">
<polygon fill="#ffffff" stroke="#000000" points="857,-56.5 857,-86.5 980,-86.5 980,-56.5 857,-56.5"/>
<text text-anchor="start" x="865" y="-74.5" font-family="Helvetica,sans-Serif" font-size="10.00" fill="#000000">math/mathcore/inc/Fit</text>
<text text-anchor="middle" x="918.5" y="-63.5" font-family="Helvetica,sans-Serif" font-size="10.00" fill="#000000">/Chi2FCN.h</text>
</a>
</g>
</g>
<!-- Node46&#45;&gt;Node47 -->
<g id="edge22" class="edge">
<title>Node46&#45;&gt;Node47</title>
<path fill="none" stroke="#191970" d="M1081.0186,-120.5484C1045.8791,-109.9432 1001.8875,-96.6665 968.5384,-86.6017"/>
<polygon fill="#191970" stroke="#191970" points="1080.0941,-123.9252 1090.6789,-123.4639 1082.1166,-117.2238 1080.0941,-123.9252"/>
</g>
<!-- Node52 -->
<g id="node20" class="node">
<title>Node52</title>
<g id="a_node20"><a xlink:href="LogLikelihoodFCN_8h.html" target="_top" xlink:title="math/mathcore/inc/Fit\l/LogLikelihoodFCN.h">
<polygon fill="#ffffff" stroke="#000000" points="1153,-56.5 1153,-86.5 1276,-86.5 1276,-56.5 1153,-56.5"/>
<text text-anchor="start" x="1161" y="-74.5" font-family="Helvetica,sans-Serif" font-size="10.00" fill="#000000">math/mathcore/inc/Fit</text>
<text text-anchor="middle" x="1214.5" y="-63.5" font-family="Helvetica,sans-Serif" font-size="10.00" fill="#000000">/LogLikelihoodFCN.h</text>
</a>
</g>
</g>
<!-- Node46&#45;&gt;Node52 -->
<g id="edge27" class="edge">
<title>Node46&#45;&gt;Node52</title>
<path fill="none" stroke="#191970" d="M1164.8024,-116.4965C1175.601,-106.7193 1188.0418,-95.4554 1197.7747,-86.6432"/>
<polygon fill="#191970" stroke="#191970" points="1162.3556,-113.9903 1157.2917,-123.2967 1167.0539,-119.1794 1162.3556,-113.9903"/>
</g>
<!-- Node53 -->
<g id="node21" class="node">
<title>Node53</title>
<g id="a_node21"><a xlink:href="PoissonLikelihoodFCN_8h.html" target="_top" xlink:title="math/mathcore/inc/Fit\l/PoissonLikelihoodFCN.h">
<polygon fill="#ffffff" stroke="#000000" points="998.5,-56.5 998.5,-86.5 1134.5,-86.5 1134.5,-56.5 998.5,-56.5"/>
<text text-anchor="start" x="1006.5" y="-74.5" font-family="Helvetica,sans-Serif" font-size="10.00" fill="#000000">math/mathcore/inc/Fit</text>
<text text-anchor="middle" x="1066.5" y="-63.5" font-family="Helvetica,sans-Serif" font-size="10.00" fill="#000000">/PoissonLikelihoodFCN.h</text>
</a>
</g>
</g>
<!-- Node46&#45;&gt;Node53 -->
<g id="edge30" class="edge">
<title>Node46&#45;&gt;Node53</title>
<path fill="none" stroke="#191970" d="M1116.1976,-116.4965C1105.399,-106.7193 1092.9582,-95.4554 1083.2253,-86.6432"/>
<polygon fill="#191970" stroke="#191970" points="1113.9461,-119.1794 1123.7083,-123.2967 1118.6444,-113.9903 1113.9461,-119.1794"/>
</g>
<!-- Node46&#45;&gt;Node54 -->
<g id="edge34" class="edge">
<title>Node46&#45;&gt;Node54</title>
<path fill="none" stroke="#191970" d="M1202.8569,-120.6457C1247.3337,-107.9109 1305.3971,-91.2859 1341.3024,-81.0053"/>
<polygon fill="#191970" stroke="#191970" points="1201.6644,-117.3464 1193.0142,-123.4639 1203.5913,-124.076 1201.6644,-117.3464"/>
</g>
<!-- Node48 -->
<g id="node16" class="node">
<title>Node48</title>
<g id="a_node16"><a xlink:href="HFitImpl_8cxx.html" target="_top" xlink:title="hist/hist/src/HFitImpl.cxx">
<polygon fill="#ffffff" stroke="#000000" points="822,-.5 822,-19.5 959,-19.5 959,-.5 822,-.5"/>
<text text-anchor="middle" x="890.5" y="-7.5" font-family="Helvetica,sans-Serif" font-size="10.00" fill="#000000">hist/hist/src/HFitImpl.cxx</text>
</a>
</g>
</g>
<!-- Node47&#45;&gt;Node48 -->
<g id="edge23" class="edge">
<title>Node47&#45;&gt;Node48</title>
<path fill="none" stroke="#191970" d="M907.4286,-47.1825C903.0812,-37.6337 898.3394,-27.2186 894.9832,-19.8469"/>
<polygon fill="#191970" stroke="#191970" points="904.2496,-48.6469 911.5786,-56.2977 910.6204,-45.7463 904.2496,-48.6469"/>
</g>
<!-- Node49 -->
<g id="node17" class="node">
<title>Node49</title>
<g id="a_node17"><a xlink:href="TBackCompFitter_8cxx.html" target="_top" xlink:title="hist/hist/src/TBackCompFitter.cxx">
<polygon fill="#ffffff" stroke="#000000" points="977,-.5 977,-19.5 1156,-19.5 1156,-.5 977,-.5"/>
<text text-anchor="middle" x="1066.5" y="-7.5" font-family="Helvetica,sans-Serif" font-size="10.00" fill="#000000">hist/hist/src/TBackCompFitter.cxx</text>
</a>
</g>
</g>
<!-- Node47&#45;&gt;Node49 -->
<g id="edge24" class="edge">
<title>Node47&#45;&gt;Node49</title>
<path fill="none" stroke="#191970" d="M964.1195,-52.5433C990.4501,-41.6018 1022.4308,-28.3126 1043.5653,-19.5303"/>
<polygon fill="#191970" stroke="#191970" points="962.5963,-49.386 954.7049,-56.4554 965.2824,-55.8501 962.5963,-49.386"/>
</g>
<!-- Node50 -->
<g id="node18" class="node">
<title>Node50</title>
<g id="a_node18"><a xlink:href="Fitter_8cxx.html" target="_top" xlink:title="math/mathcore/src/Fitter.cxx">
<polygon fill="#ffffff" stroke="#000000" points="1174.5,-.5 1174.5,-19.5 1330.5,-19.5 1330.5,-.5 1174.5,-.5"/>
<text text-anchor="middle" x="1252.5" y="-7.5" font-family="Helvetica,sans-Serif" font-size="10.00" fill="#000000">math/mathcore/src/Fitter.cxx</text>
</a>
</g>
</g>
<!-- Node47&#45;&gt;Node50 -->
<g id="edge25" class="edge">
<title>Node47&#45;&gt;Node50</title>
<path fill="none" stroke="#191970" d="M990.295,-55.8912C1066.4491,-41.0541 1142.7837,-28.0044 1193.8742,-19.5329"/>
<polygon fill="#191970" stroke="#191970" points="989.1814,-52.5428 980.0409,-57.9003 990.5273,-59.4122 989.1814,-52.5428"/>
</g>
<!-- Node51 -->
<g id="node19" class="node">
<title>Node51</title>
<g id="a_node19"><a xlink:href="TLinearMinimizer_8cxx.html" target="_top" xlink:title="math/minuit/src/TLinearMinimizer.cxx">
<polygon fill="#ffffff" stroke="#000000" points="603.5,-.5 603.5,-19.5 803.5,-19.5 803.5,-.5 603.5,-.5"/>
<text text-anchor="middle" x="703.5" y="-7.5" font-family="Helvetica,sans-Serif" font-size="10.00" fill="#000000">math/minuit/src/TLinearMinimizer.cxx</text>
</a>
</g>
</g>
<!-- Node47&#45;&gt;Node51 -->
<g id="edge26" class="edge">
<title>Node47&#45;&gt;Node51</title>
<path fill="none" stroke="#191970" d="M856.2235,-53.686C817.2575,-42.5399 768.5968,-28.6207 736.8174,-19.5303"/>
<polygon fill="#191970" stroke="#191970" points="855.3281,-57.0702 865.9051,-56.4554 857.2533,-50.3401 855.3281,-57.0702"/>
</g>
<!-- Node52&#45;&gt;Node49 -->
<g id="edge28" class="edge">
<title>Node52&#45;&gt;Node49</title>
<path fill="none" stroke="#191970" d="M1168.8805,-52.5433C1142.5499,-41.6018 1110.5692,-28.3126 1089.4347,-19.5303"/>
<polygon fill="#191970" stroke="#191970" points="1167.7176,-55.8501 1178.2951,-56.4554 1170.4037,-49.386 1167.7176,-55.8501"/>
</g>
<!-- Node52&#45;&gt;Node50 -->
<g id="edge29" class="edge">
<title>Node52&#45;&gt;Node50</title>
<path fill="none" stroke="#191970" d="M1229.1574,-47.7782C1235.1565,-38.069 1241.766,-27.3722 1246.4157,-19.8469"/>
<polygon fill="#191970" stroke="#191970" points="1226.1722,-45.9509 1223.8933,-56.2977 1232.1272,-49.6304 1226.1722,-45.9509"/>
</g>
<!-- Node53&#45;&gt;Node48 -->
<g id="edge31" class="edge">
<title>Node53&#45;&gt;Node48</title>
<path fill="none" stroke="#191970" d="M1013.8915,-53.1169C982.2761,-42.0695 943.3476,-28.4666 917.7738,-19.5303"/>
<polygon fill="#191970" stroke="#191970" points="1012.8507,-56.4607 1023.4456,-56.4554 1015.1599,-49.8525 1012.8507,-56.4607"/>
</g>
<!-- Node53&#45;&gt;Node49 -->
<g id="edge32" class="edge">
<title>Node53&#45;&gt;Node49</title>
<path fill="none" stroke="#191970" d="M1066.5,-46.2849C1066.5,-36.9858 1066.5,-26.9883 1066.5,-19.8469"/>
<polygon fill="#191970" stroke="#191970" points="1063.0001,-46.2977 1066.5,-56.2977 1070.0001,-46.2978 1063.0001,-46.2977"/>
</g>
<!-- Node53&#45;&gt;Node50 -->
<g id="edge33" class="edge">
<title>Node53&#45;&gt;Node50</title>
<path fill="none" stroke="#191970" d="M1121.666,-53.2596C1155.1545,-42.1868 1196.5332,-28.5052 1223.6766,-19.5303"/>
<polygon fill="#191970" stroke="#191970" points="1120.3964,-49.993 1112.0007,-56.4554 1122.594,-56.6391 1120.3964,-49.993"/>
</g>
<!-- Node59&#45;&gt;Node35 -->
<g id="edge42" class="edge">
<title>Node59&#45;&gt;Node35</title>
<path fill="none" stroke="#191970" d="M1055.3345,-190.9075C1003.3948,-181.0068 933.7404,-167.3383 872.5,-154 863.9985,-152.1483 854.8993,-150.0513 846.2824,-148.0115"/>
<polygon fill="#191970" stroke="#191970" points="1055.0008,-194.4067 1065.4786,-192.8362 1056.3083,-187.5299 1055.0008,-194.4067"/>
</g>
<!-- Node59&#45;&gt;Node36 -->
<g id="edge43" class="edge">
<title>Node59&#45;&gt;Node36</title>
<path fill="none" stroke="#191970" d="M1055.2234,-200.6439C940.9537,-193.1253 721.8866,-177.0862 536.5,-154 523.2336,-152.3479 508.9813,-150.2147 495.6549,-148.0624"/>
<polygon fill="#191970" stroke="#191970" points="1055.0725,-204.1414 1065.2796,-201.3014 1055.5292,-197.1564 1055.0725,-204.1414"/>
</g>
<!-- Node59&#45;&gt;Node38 -->
<g id="edge46" class="edge">
<title>Node59&#45;&gt;Node38</title>
<path fill="none" stroke="#191970" d="M1087.6184,-186.5243C1057.3117,-173.99 1018.8708,-158.0916 994.7214,-148.1039"/>
<polygon fill="#191970" stroke="#191970" points="1086.5655,-189.8763 1097.144,-190.4639 1089.2408,-183.4077 1086.5655,-189.8763"/>
</g>
<!-- Node59&#45;&gt;Node46 -->
<g id="edge44" class="edge">
<title>Node59&#45;&gt;Node46</title>
<path fill="none" stroke="#191970" d="M1136.131,-180.3179C1137.0688,-171.3414 1138.0955,-161.5143 1138.9179,-153.6432"/>
<polygon fill="#191970" stroke="#191970" points="1132.6466,-179.9871 1135.0884,-190.2967 1139.6087,-180.7145 1132.6466,-179.9871"/>
</g>
<!-- Node59&#45;&gt;Node54 -->
<g id="edge45" class="edge">
<title>Node59&#45;&gt;Node54</title>
<path fill="none" stroke="#191970" d="M1165.8447,-184.7162C1179.7662,-175.5537 1196.1148,-164.5007 1210.5,-154 1228.3842,-140.9452 1230.4092,-134.2166 1249.5,-123 1280.3609,-104.868 1318.8117,-90.0632 1344.8584,-81.0559"/>
<polygon fill="#191970" stroke="#191970" points="1163.5461,-182.0374 1157.0919,-190.4395 1167.377,-187.8961 1163.5461,-182.0374"/>
</g>
<!-- Node59&#45;&gt;Node56 -->
<g id="edge47" class="edge">
<title>Node59&#45;&gt;Node56</title>
<path fill="none" stroke="#191970" d="M1189.2603,-187.2759C1221.5689,-176.7165 1261.7612,-163.5805 1292.2933,-153.6017"/>
<polygon fill="#191970" stroke="#191970" points="1187.9239,-184.0304 1179.506,-190.4639 1190.0986,-190.6841 1187.9239,-184.0304"/>
</g>
<!-- Node59&#45;&gt;Node58 -->
<g id="edge48" class="edge">
<title>Node59&#45;&gt;Node58</title>
<path fill="none" stroke="#191970" d="M1211.7928,-189.7984C1308.3232,-172.2959 1334.4642,-171.1984 1427.5,-154 1430.4132,-153.4615 1433.3869,-152.901 1436.3893,-152.3264"/>
<polygon fill="#191970" stroke="#191970" points="1211.1191,-186.3635 1201.9103,-191.6027 1212.3764,-193.2497 1211.1191,-186.3635"/>
</g>
<!-- Node61 -->
<g id="node29" class="node">
<title>Node61</title>
<g id="a_node29"><a xlink:href="GSLIntegrator_8cxx.html" target="_top" xlink:title="math/mathmore/src/GSLIntegrator.cxx">
<polygon fill="#ffffff" stroke="#000000" points="1374,-196 1374,-215 1577,-215 1577,-196 1374,-196"/>
<text text-anchor="middle" x="1475.5" y="-203" font-family="Helvetica,sans-Serif" font-size="10.00" fill="#000000">math/mathmore/src/GSLIntegrator.cxx</text>
</a>
</g>
</g>
<!-- Node60&#45;&gt;Node61 -->
<g id="edge51" class="edge">
<title>Node60&#45;&gt;Node61</title>
<path fill="none" stroke="#191970" d="M1425.7537,-250.5406C1439.0196,-238.5296 1454.7759,-224.2637 1464.9467,-215.055"/>
<polygon fill="#191970" stroke="#191970" points="1423.3556,-247.9903 1418.2917,-257.2967 1428.0539,-253.1794 1423.3556,-247.9903"/>
</g>
<!-- Node63 -->
<g id="node31" class="node">
<title>Node63</title>
<g id="a_node31"><a xlink:href="GSLMCIntegrator_8cxx.html" target="_top" xlink:title="math/mathmore/src/GSLMCIntegrator.cxx">
<polygon fill="#ffffff" stroke="#000000" points="1595.5,-196 1595.5,-215 1813.5,-215 1813.5,-196 1595.5,-196"/>
<text text-anchor="middle" x="1704.5" y="-203" font-family="Helvetica,sans-Serif" font-size="10.00" fill="#000000">math/mathmore/src/GSLMCIntegrator.cxx</text>
</a>
</g>
</g>
<!-- Node62&#45;&gt;Node63 -->
<g id="edge53" class="edge">
<title>Node62&#45;&gt;Node63</title>
<path fill="none" stroke="#191970" d="M1655.7935,-250.2032C1668.8026,-238.2634 1684.1497,-224.1776 1694.0894,-215.055"/>
<polygon fill="#191970" stroke="#191970" points="1653.0656,-247.9562 1648.0648,-257.2967 1657.7989,-253.1134 1653.0656,-247.9562"/>
</g>
</g>
</svg>
