<?xml version="1.0" encoding="UTF-8" standalone="no"?>
<!DOCTYPE svg PUBLIC "-//W3C//DTD SVG 1.1//EN"
 "http://www.w3.org/Graphics/SVG/1.1/DTD/svg11.dtd">
<!-- Generated by graphviz version 2.40.1 (0)
 -->
<!-- Title: graf2d/cocoa/inc/X11Events.h Pages: 1 -->
<svg width="1329pt" height="218pt"
 viewBox="0.00 0.00 1329.00 218.00" xmlns="http://www.w3.org/2000/svg" xmlns:xlink="http://www.w3.org/1999/xlink">
<g id="graph0" class="graph" transform="scale(1 1) rotate(0) translate(4 214)">
<title>graf2d/cocoa/inc/X11Events.h</title>
<polygon fill="#ffffff" stroke="transparent" points="-4,4 -4,-214 1325,-214 1325,4 -4,4"/>
<!-- Node24 -->
<g id="node1" class="node">
<title>Node24</title>
<polygon fill="#bfbfbf" stroke="#000000" points="527.5,-190.5 527.5,-209.5 688.5,-209.5 688.5,-190.5 527.5,-190.5"/>
<text text-anchor="middle" x="608" y="-197.5" font-family="Helvetica,sans-Serif" font-size="10.00" fill="#000000">graf2d/cocoa/inc/X11Events.h</text>
</g>
<!-- Node25 -->
<g id="node2" class="node">
<title>Node25</title>
<g id="a_node2"><a xlink:href="QuartzWindow_8h.html" target="_top" xlink:title="graf2d/cocoa/inc/QuartzWindow.h">
<polygon fill="#ffffff" stroke="#000000" points="518.5,-134.5 518.5,-153.5 697.5,-153.5 697.5,-134.5 518.5,-134.5"/>
<text text-anchor="middle" x="608" y="-141.5" font-family="Helvetica,sans-Serif" font-size="10.00" fill="#000000">graf2d/cocoa/inc/QuartzWindow.h</text>
</a>
</g>
</g>
<!-- Node24&#45;&gt;Node25 -->
<g id="edge1" class="edge">
<title>Node24&#45;&gt;Node25</title>
<path fill="none" stroke="#191970" d="M608,-180.1575C608,-171.155 608,-160.9199 608,-153.6427"/>
<polygon fill="#191970" stroke="#191970" points="604.5001,-180.2455 608,-190.2455 611.5001,-180.2456 604.5001,-180.2455"/>
</g>
<!-- Node29 -->
<g id="node6" class="node">
<title>Node29</title>
<g id="a_node6"><a xlink:href="ROOTOpenGLView_8mm.html" target="_top" xlink:title="graf2d/cocoa/src/ROOTOpen\lGLView.mm">
<polygon fill="#ffffff" stroke="#000000" points="975.5,-.5 975.5,-30.5 1128.5,-30.5 1128.5,-.5 975.5,-.5"/>
<text text-anchor="start" x="983.5" y="-18.5" font-family="Helvetica,sans-Serif" font-size="10.00" fill="#000000">graf2d/cocoa/src/ROOTOpen</text>
<text text-anchor="middle" x="1052" y="-7.5" font-family="Helvetica,sans-Serif" font-size="10.00" fill="#000000">GLView.mm</text>
</a>
</g>
</g>
<!-- Node24&#45;&gt;Node29 -->
<g id="edge21" class="edge">
<title>Node24&#45;&gt;Node29</title>
<path fill="none" stroke="#191970" d="M672.4882,-188.6228C768.4449,-170.7681 943.092,-134.4305 995,-98 1019.5096,-80.7985 1036.8151,-49.4697 1045.533,-30.7622"/>
<polygon fill="#191970" stroke="#191970" points="671.8032,-185.19 662.6052,-190.4481 673.0746,-192.0736 671.8032,-185.19"/>
</g>
<!-- Node30 -->
<g id="node7" class="node">
<title>Node30</title>
<g id="a_node7"><a xlink:href="TGCocoa_8mm.html" target="_top" xlink:title="graf2d/cocoa/src/TGCocoa.mm">
<polygon fill="#ffffff" stroke="#000000" points="0,-6 0,-25 166,-25 166,-6 0,-6"/>
<text text-anchor="middle" x="83" y="-13" font-family="Helvetica,sans-Serif" font-size="10.00" fill="#000000">graf2d/cocoa/src/TGCocoa.mm</text>
</a>
</g>
</g>
<!-- Node24&#45;&gt;Node30 -->
<g id="edge22" class="edge">
<title>Node24&#45;&gt;Node30</title>
<path fill="none" stroke="#191970" d="M517.2124,-190.4852C428.0274,-178.3867 290.0019,-152.1668 182,-98 143.8023,-78.8425 107.4938,-42.3475 91.5184,-25.0499"/>
<polygon fill="#191970" stroke="#191970" points="516.9286,-193.9782 527.3017,-191.8219 517.848,-187.0388 516.9286,-193.9782"/>
</g>
<!-- Node32 -->
<g id="node9" class="node">
<title>Node32</title>
<g id="a_node9"><a xlink:href="X11Events_8mm.html" target="_top" xlink:title="graf2d/cocoa/src/X11Events.mm">
<polygon fill="#ffffff" stroke="#000000" points="1147,-6 1147,-25 1321,-25 1321,-6 1147,-6"/>
<text text-anchor="middle" x="1234" y="-13" font-family="Helvetica,sans-Serif" font-size="10.00" fill="#000000">graf2d/cocoa/src/X11Events.mm</text>
</a>
</g>
</g>
<!-- Node24&#45;&gt;Node32 -->
<g id="edge23" class="edge">
<title>Node24&#45;&gt;Node32</title>
<path fill="none" stroke="#191970" d="M698.7983,-190.1761C754.1306,-182.9384 825.9034,-171.3057 888,-154 1016.7074,-118.1306 1162.9051,-50.0109 1214.6304,-25.0089"/>
<polygon fill="#191970" stroke="#191970" points="698.137,-186.7322 688.6639,-191.4768 699.0281,-193.6753 698.137,-186.7322"/>
</g>
<!-- Node35 -->
<g id="node12" class="node">
<title>Node35</title>
<g id="a_node12"><a xlink:href="CocoaPrivate_8h.html" target="_top" xlink:title="graf2d/cocoa/src/CocoaPrivate.h">
<polygon fill="#ffffff" stroke="#000000" points="278.5,-73 278.5,-92 451.5,-92 451.5,-73 278.5,-73"/>
<text text-anchor="middle" x="365" y="-80" font-family="Helvetica,sans-Serif" font-size="10.00" fill="#000000">graf2d/cocoa/src/CocoaPrivate.h</text>
</a>
</g>
</g>
<!-- Node24&#45;&gt;Node35 -->
<g id="edge16" class="edge">
<title>Node24&#45;&gt;Node35</title>
<path fill="none" stroke="#191970" d="M577.7097,-186.1721C558.0624,-177.1422 531.9435,-165.0241 509,-154 463.966,-132.3617 411.5067,-106.0264 384.0233,-92.1416"/>
<polygon fill="#191970" stroke="#191970" points="576.5185,-189.4763 587.0672,-190.4643 579.437,-183.1137 576.5185,-189.4763"/>
</g>
<!-- Node26 -->
<g id="node3" class="node">
<title>Node26</title>
<g id="a_node3"><a xlink:href="ROOTOpenGLView_8h.html" target="_top" xlink:title="graf2d/cocoa/inc/ROOTOpen\lGLView.h">
<polygon fill="#ffffff" stroke="#000000" points="584.5,-67.5 584.5,-97.5 737.5,-97.5 737.5,-67.5 584.5,-67.5"/>
<text text-anchor="start" x="592.5" y="-85.5" font-family="Helvetica,sans-Serif" font-size="10.00" fill="#000000">graf2d/cocoa/inc/ROOTOpen</text>
<text text-anchor="middle" x="661" y="-74.5" font-family="Helvetica,sans-Serif" font-size="10.00" fill="#000000">GLView.h</text>
</a>
</g>
</g>
<!-- Node25&#45;&gt;Node26 -->
<g id="edge2" class="edge">
<title>Node25&#45;&gt;Node26</title>
<path fill="none" stroke="#191970" d="M622.9509,-126.6514C630.8507,-117.4845 640.453,-106.3423 648.0347,-97.5446"/>
<polygon fill="#191970" stroke="#191970" points="620.1582,-124.5306 616.2813,-134.3906 625.4608,-129.1003 620.1582,-124.5306"/>
</g>
<!-- Node27 -->
<g id="node4" class="node">
<title>Node27</title>
<g id="a_node4"><a xlink:href="CocoaPrivate_8mm.html" target="_top" xlink:title="graf2d/cocoa/src/CocoaPrivate.mm">
<polygon fill="#ffffff" stroke="#000000" points="370.5,-6 370.5,-25 557.5,-25 557.5,-6 370.5,-6"/>
<text text-anchor="middle" x="464" y="-13" font-family="Helvetica,sans-Serif" font-size="10.00" fill="#000000">graf2d/cocoa/src/CocoaPrivate.mm</text>
</a>
</g>
</g>
<!-- Node25&#45;&gt;Node27 -->
<g id="edge9" class="edge">
<title>Node25&#45;&gt;Node27</title>
<path fill="none" stroke="#191970" d="M589.4184,-127.4185C558.9878,-100.2634 499.4621,-47.145 474.949,-25.2705"/>
<polygon fill="#191970" stroke="#191970" points="587.385,-130.2949 597.1766,-134.3416 592.0457,-125.0721 587.385,-130.2949"/>
</g>
<!-- Node28 -->
<g id="node5" class="node">
<title>Node28</title>
<g id="a_node5"><a xlink:href="QuartzWindow_8mm.html" target="_top" xlink:title="graf2d/cocoa/src/QuartzWindow.mm">
<polygon fill="#ffffff" stroke="#000000" points="764.5,-6 764.5,-25 957.5,-25 957.5,-6 764.5,-6"/>
<text text-anchor="middle" x="861" y="-13" font-family="Helvetica,sans-Serif" font-size="10.00" fill="#000000">graf2d/cocoa/src/QuartzWindow.mm</text>
</a>
</g>
</g>
<!-- Node25&#45;&gt;Node28 -->
<g id="edge11" class="edge">
<title>Node25&#45;&gt;Node28</title>
<path fill="none" stroke="#191970" d="M658.7747,-131.8404C685.9038,-124.2134 719.3181,-112.9649 747,-98 766.478,-87.4702 768.1959,-80.1638 786,-67 806.5749,-51.7875 831.1435,-35.2051 846.4121,-25.0784"/>
<polygon fill="#191970" stroke="#191970" points="657.8108,-128.4754 649.0864,-134.4866 659.6553,-135.228 657.8108,-128.4754"/>
</g>
<!-- Node25&#45;&gt;Node30 -->
<g id="edge12" class="edge">
<title>Node25&#45;&gt;Node30</title>
<path fill="none" stroke="#191970" d="M508.1127,-137.8937C439.7805,-131.9167 347.6755,-120.2978 269,-98 203.915,-79.5539 132.1224,-42.54 100.0774,-25.0595"/>
<polygon fill="#191970" stroke="#191970" points="508.1831,-141.4122 518.4432,-138.7703 508.775,-134.4373 508.1831,-141.4122"/>
</g>
<!-- Node31 -->
<g id="node8" class="node">
<title>Node31</title>
<g id="a_node8"><a xlink:href="X11Buffer_8mm.html" target="_top" xlink:title="graf2d/cocoa/src/X11Buffer.mm">
<polygon fill="#ffffff" stroke="#000000" points="576,-6 576,-25 746,-25 746,-6 576,-6"/>
<text text-anchor="middle" x="661" y="-13" font-family="Helvetica,sans-Serif" font-size="10.00" fill="#000000">graf2d/cocoa/src/X11Buffer.mm</text>
</a>
</g>
</g>
<!-- Node25&#45;&gt;Node31 -->
<g id="edge14" class="edge">
<title>Node25&#45;&gt;Node31</title>
<path fill="none" stroke="#191970" d="M591.488,-126.1835C578.7822,-110.207 565.0888,-86.3685 576,-67 587.6868,-46.2546 611.4738,-32.91 630.9194,-25.0156"/>
<polygon fill="#191970" stroke="#191970" points="589.1377,-128.8223 598.2827,-134.1721 594.4699,-124.2871 589.1377,-128.8223"/>
</g>
<!-- Node25&#45;&gt;Node32 -->
<g id="edge15" class="edge">
<title>Node25&#45;&gt;Node32</title>
<path fill="none" stroke="#191970" d="M708.093,-138.0087C786.8287,-131.883 898.9058,-120.0285 995,-98 1076.7208,-79.2665 1169.5396,-42.5628 1211.4057,-25.1319"/>
<polygon fill="#191970" stroke="#191970" points="707.3996,-134.5512 697.6938,-138.7996 707.9305,-141.5311 707.3996,-134.5512"/>
</g>
<!-- Node33 -->
<g id="node10" class="node">
<title>Node33</title>
<g id="a_node10"><a xlink:href="QuartzPixmap_8mm.html" target="_top" xlink:title="graf2d/cocoa/src/QuartzPixmap.mm">
<polygon fill="#ffffff" stroke="#000000" points="794.5,-73 794.5,-92 985.5,-92 985.5,-73 794.5,-73"/>
<text text-anchor="middle" x="890" y="-80" font-family="Helvetica,sans-Serif" font-size="10.00" fill="#000000">graf2d/cocoa/src/QuartzPixmap.mm</text>
</a>
</g>
</g>
<!-- Node25&#45;&gt;Node33 -->
<g id="edge10" class="edge">
<title>Node25&#45;&gt;Node33</title>
<path fill="none" stroke="#191970" d="M661.7394,-132.2802C715.2516,-120.61 796.3957,-102.9137 846.1443,-92.0643"/>
<polygon fill="#191970" stroke="#191970" points="660.7777,-128.9076 651.7531,-134.4581 662.2692,-135.7469 660.7777,-128.9076"/>
</g>
<!-- Node34 -->
<g id="node11" class="node">
<title>Node34</title>
<g id="a_node11"><a xlink:href="TGQuartz_8mm.html" target="_top" xlink:title="graf2d/cocoa/src/TGQuartz.mm">
<polygon fill="#ffffff" stroke="#000000" points="184,-6 184,-25 352,-25 352,-6 184,-6"/>
<text text-anchor="middle" x="268" y="-13" font-family="Helvetica,sans-Serif" font-size="10.00" fill="#000000">graf2d/cocoa/src/TGQuartz.mm</text>
</a>
</g>
</g>
<!-- Node25&#45;&gt;Node34 -->
<g id="edge13" class="edge">
<title>Node25&#45;&gt;Node34</title>
<path fill="none" stroke="#191970" d="M580.1025,-129.6421C562.5499,-120.5933 539.4325,-108.648 519,-98 492.7315,-84.3107 487.5855,-77.7922 460,-67 411.9514,-48.2021 354.5428,-33.7961 315.0928,-25.0632"/>
<polygon fill="#191970" stroke="#191970" points="578.7365,-132.8755 589.229,-134.3446 581.9428,-126.653 578.7365,-132.8755"/>
</g>
<!-- Node26&#45;&gt;Node27 -->
<g id="edge3" class="edge">
<title>Node26&#45;&gt;Node27</title>
<path fill="none" stroke="#191970" d="M607.0816,-64.1623C569.8294,-51.4928 521.7954,-35.1563 491.9484,-25.0053"/>
<polygon fill="#191970" stroke="#191970" points="606.1949,-67.5575 616.7894,-67.4639 608.4489,-60.9303 606.1949,-67.5575"/>
</g>
<!-- Node26&#45;&gt;Node28 -->
<g id="edge4" class="edge">
<title>Node26&#45;&gt;Node28</title>
<path fill="none" stroke="#191970" d="M715.7395,-64.1623C753.5589,-51.4928 802.3245,-35.1563 832.626,-25.0053"/>
<polygon fill="#191970" stroke="#191970" points="714.2542,-60.9686 705.8839,-67.4639 716.4778,-67.6061 714.2542,-60.9686"/>
</g>
<!-- Node26&#45;&gt;Node29 -->
<g id="edge5" class="edge">
<title>Node26&#45;&gt;Node29</title>
<path fill="none" stroke="#191970" d="M747.7794,-68.2185C809.0684,-58.053 893.1111,-43.9541 967,-31 969.6595,-30.5337 972.3652,-30.0564 975.0975,-29.5719"/>
<polygon fill="#191970" stroke="#191970" points="747.0539,-64.7909 737.7607,-69.8788 748.1984,-71.6967 747.0539,-64.7909"/>
</g>
<!-- Node26&#45;&gt;Node30 -->
<g id="edge6" class="edge">
<title>Node26&#45;&gt;Node30</title>
<path fill="none" stroke="#191970" d="M574.1351,-74.915C476.754,-66.0353 314.2374,-50.0882 175,-31 162.4832,-29.2841 149.053,-27.1748 136.4281,-25.0713"/>
<polygon fill="#191970" stroke="#191970" points="573.9496,-78.4125 584.2252,-75.831 574.5826,-71.4411 573.9496,-78.4125"/>
</g>
<!-- Node26&#45;&gt;Node31 -->
<g id="edge7" class="edge">
<title>Node26&#45;&gt;Node31</title>
<path fill="none" stroke="#191970" d="M661,-57.1199C661,-45.9072 661,-33.4031 661,-25.055"/>
<polygon fill="#191970" stroke="#191970" points="657.5001,-57.2966 661,-67.2967 664.5001,-57.2967 657.5001,-57.2966"/>
</g>
<!-- Node26&#45;&gt;Node32 -->
<g id="edge8" class="edge">
<title>Node26&#45;&gt;Node32</title>
<path fill="none" stroke="#191970" d="M747.8429,-71.4876C760.6334,-69.9365 773.6552,-68.3965 786,-67 942.2638,-49.3229 982.0869,-51.5419 1138,-31 1151.1392,-29.2689 1165.2471,-27.142 1178.4942,-25.0248"/>
<polygon fill="#191970" stroke="#191970" points="747.1545,-68.0456 737.6522,-72.7314 748.0026,-74.994 747.1545,-68.0456"/>
</g>
<!-- Node35&#45;&gt;Node27 -->
<g id="edge17" class="edge">
<title>Node35&#45;&gt;Node27</title>
<path fill="none" stroke="#191970" d="M387.6276,-67.1864C406.7703,-54.2312 433.6066,-36.0693 449.842,-25.0817"/>
<polygon fill="#191970" stroke="#191970" points="385.5043,-64.3971 379.1843,-72.9005 389.4277,-70.1943 385.5043,-64.3971"/>
</g>
<!-- Node35&#45;&gt;Node30 -->
<g id="edge18" class="edge">
<title>Node35&#45;&gt;Node30</title>
<path fill="none" stroke="#191970" d="M315.0838,-70.6405C260.4633,-57.6633 173.9631,-37.1118 123.4225,-25.1039"/>
<polygon fill="#191970" stroke="#191970" points="314.3575,-74.0653 324.8958,-72.9717 315.9757,-67.2549 314.3575,-74.0653"/>
</g>
<!-- Node35&#45;&gt;Node31 -->
<g id="edge20" class="edge">
<title>Node35&#45;&gt;Node31</title>
<path fill="none" stroke="#191970" d="M417.0379,-70.7211C474.3495,-57.7486 565.4109,-37.1367 618.5707,-25.1039"/>
<polygon fill="#191970" stroke="#191970" points="416.0758,-67.3503 407.0952,-72.9717 417.6212,-74.1776 416.0758,-67.3503"/>
</g>
<!-- Node35&#45;&gt;Node34 -->
<g id="edge19" class="edge">
<title>Node35&#45;&gt;Node34</title>
<path fill="none" stroke="#191970" d="M342.8295,-67.1864C324.0736,-54.2312 297.7794,-36.0693 281.872,-25.0817"/>
<polygon fill="#191970" stroke="#191970" points="340.8851,-70.097 351.1023,-72.9005 344.8634,-64.3374 340.8851,-70.097"/>
</g>
</g>
</svg>
