<?xml version="1.0" encoding="UTF-8" standalone="no"?>
<!DOCTYPE svg PUBLIC "-//W3C//DTD SVG 1.1//EN"
 "http://www.w3.org/Graphics/SVG/1.1/DTD/svg11.dtd">
<!-- Generated by graphviz version 2.40.1 (0)
 -->
<!-- Title: proof/proofd/src/XpdObject.cxx Pages: 1 -->
<svg width="1490pt" height="196pt"
 viewBox="0.00 0.00 1490.00 196.00" xmlns="http://www.w3.org/2000/svg" xmlns:xlink="http://www.w3.org/1999/xlink">
<g id="graph0" class="graph" transform="scale(1 1) rotate(0) translate(4 192)">
<title>proof/proofd/src/XpdObject.cxx</title>
<polygon fill="#ffffff" stroke="transparent" points="-4,4 -4,-192 1486,-192 1486,4 -4,4"/>
<!-- Node0 -->
<g id="node1" class="node">
<title>Node0</title>
<polygon fill="#bfbfbf" stroke="#000000" points="482,-168.5 482,-187.5 649,-187.5 649,-168.5 482,-168.5"/>
<text text-anchor="middle" x="565.5" y="-175.5" font-family="Helvetica,sans-Serif" font-size="10.00" fill="#000000">proof/proofd/src/XpdObject.cxx</text>
</g>
<!-- Node1 -->
<g id="node2" class="node">
<title>Node1</title>
<g id="a_node2"><a xlink:href="XpdObject_8h.html" target="_top" xlink:title="XpdObject.h">
<polygon fill="#ffffff" stroke="#000000" points="436.5,-56.5 436.5,-75.5 512.5,-75.5 512.5,-56.5 436.5,-56.5"/>
<text text-anchor="middle" x="474.5" y="-63.5" font-family="Helvetica,sans-Serif" font-size="10.00" fill="#000000">XpdObject.h</text>
</a>
</g>
</g>
<!-- Node0&#45;&gt;Node1 -->
<g id="edge1" class="edge">
<title>Node0&#45;&gt;Node1</title>
<path fill="none" stroke="#191970" d="M564.8194,-168.0891C563.4229,-154.2723 559.1968,-129.0075 546.5,-112 536.3091,-98.3493 520.7717,-87.6887 506.7357,-80.0827"/>
<polygon fill="#191970" stroke="#191970" points="508.2985,-76.9509 497.8001,-75.5249 505.1178,-83.1866 508.2985,-76.9509"/>
</g>
<!-- Node7 -->
<g id="node8" class="node">
<title>Node7</title>
<polygon fill="#ffffff" stroke="#bfbfbf" points="0,-.5 0,-19.5 131,-19.5 131,-.5 0,-.5"/>
<text text-anchor="middle" x="65.5" y="-7.5" font-family="Helvetica,sans-Serif" font-size="10.00" fill="#000000">XrdOuc/XrdOucTrace.hh</text>
</g>
<!-- Node0&#45;&gt;Node7 -->
<g id="edge33" class="edge">
<title>Node0&#45;&gt;Node7</title>
<path fill="none" stroke="#191970" d="M482.7874,-168.4405C365.546,-153.4853 158.6796,-121.4849 99.5,-76 84.5331,-64.4966 75.5633,-44.5546 70.6273,-29.594"/>
<polygon fill="#191970" stroke="#191970" points="73.9142,-28.3667 67.718,-19.7726 67.2025,-30.3549 73.9142,-28.3667"/>
</g>
<!-- Node9 -->
<g id="node10" class="node">
<title>Node9</title>
<g id="a_node10"><a xlink:href="XrdProofdAux_8h.html" target="_top" xlink:title="XrdProofdAux.h">
<polygon fill="#ffffff" stroke="#000000" points="445.5,-112.5 445.5,-131.5 537.5,-131.5 537.5,-112.5 445.5,-112.5"/>
<text text-anchor="middle" x="491.5" y="-119.5" font-family="Helvetica,sans-Serif" font-size="10.00" fill="#000000">XrdProofdAux.h</text>
</a>
</g>
</g>
<!-- Node0&#45;&gt;Node9 -->
<g id="edge9" class="edge">
<title>Node0&#45;&gt;Node9</title>
<path fill="none" stroke="#191970" d="M552.6102,-168.2455C541.5746,-159.8943 525.4708,-147.7076 512.5647,-137.9408"/>
<polygon fill="#191970" stroke="#191970" points="514.3283,-134.8862 504.2421,-131.6427 510.1041,-140.4681 514.3283,-134.8862"/>
</g>
<!-- Node21 -->
<g id="node22" class="node">
<title>Node21</title>
<g id="a_node22"><a xlink:href="XrdProofdProtocol_8h.html" target="_top" xlink:title="XrdProofdProtocol.h">
<polygon fill="#ffffff" stroke="#000000" points="839,-112.5 839,-131.5 952,-131.5 952,-112.5 839,-112.5"/>
<text text-anchor="middle" x="895.5" y="-119.5" font-family="Helvetica,sans-Serif" font-size="10.00" fill="#000000">XrdProofdProtocol.h</text>
</a>
</g>
</g>
<!-- Node0&#45;&gt;Node21 -->
<g id="edge21" class="edge">
<title>Node0&#45;&gt;Node21</title>
<path fill="none" stroke="#191970" d="M621.8541,-168.4369C679.3989,-158.6717 768.6814,-143.5207 829.4967,-133.2006"/>
<polygon fill="#191970" stroke="#191970" points="830.1049,-136.6475 839.3784,-131.5237 828.9337,-129.7461 830.1049,-136.6475"/>
</g>
<!-- Node27 -->
<g id="node28" class="node">
<title>Node27</title>
<polygon fill="#ffffff" stroke="#bfbfbf" points="970,-112.5 970,-131.5 1085,-131.5 1085,-112.5 970,-112.5"/>
<text text-anchor="middle" x="1027.5" y="-119.5" font-family="Helvetica,sans-Serif" font-size="10.00" fill="#000000">Xrd/XrdScheduler.hh</text>
</g>
<!-- Node0&#45;&gt;Node27 -->
<g id="edge32" class="edge">
<title>Node0&#45;&gt;Node27</title>
<path fill="none" stroke="#191970" d="M649.2044,-169.0437C726.9593,-160.5422 846.2342,-147.0399 959.8541,-132.0509"/>
<polygon fill="#191970" stroke="#191970" points="960.3196,-135.5199 969.7732,-130.7366 959.4,-128.5805 960.3196,-135.5199"/>
</g>
<!-- Node2 -->
<g id="node3" class="node">
<title>Node2</title>
<polygon fill="#ffffff" stroke="#bfbfbf" points="308,-.5 308,-19.5 361,-19.5 361,-.5 308,-.5"/>
<text text-anchor="middle" x="334.5" y="-7.5" font-family="Helvetica,sans-Serif" font-size="10.00" fill="#000000">string.h</text>
</g>
<!-- Node1&#45;&gt;Node2 -->
<g id="edge2" class="edge">
<title>Node1&#45;&gt;Node2</title>
<path fill="none" stroke="#191970" d="M450.4331,-56.3733C427.6572,-47.2629 393.2656,-33.5062 367.851,-23.3404"/>
<polygon fill="#191970" stroke="#191970" points="368.8375,-19.9654 358.2528,-19.5011 366.2377,-26.4648 368.8375,-19.9654"/>
</g>
<!-- Node3 -->
<g id="node4" class="node">
<title>Node3</title>
<polygon fill="#ffffff" stroke="#bfbfbf" points="379,-.5 379,-19.5 438,-19.5 438,-.5 379,-.5"/>
<text text-anchor="middle" x="408.5" y="-7.5" font-family="Helvetica,sans-Serif" font-size="10.00" fill="#000000">strings.h</text>
</g>
<!-- Node1&#45;&gt;Node3 -->
<g id="edge3" class="edge">
<title>Node1&#45;&gt;Node3</title>
<path fill="none" stroke="#191970" d="M463.0037,-56.2455C453.2558,-47.9746 439.0741,-35.9416 427.6202,-26.2232"/>
<polygon fill="#191970" stroke="#191970" points="429.7541,-23.4437 419.8646,-19.6427 425.2253,-28.7813 429.7541,-23.4437"/>
</g>
<!-- Node4 -->
<g id="node5" class="node">
<title>Node4</title>
<polygon fill="#ffffff" stroke="#bfbfbf" points="456.5,-.5 456.5,-19.5 504.5,-19.5 504.5,-.5 456.5,-.5"/>
<text text-anchor="middle" x="480.5" y="-7.5" font-family="Helvetica,sans-Serif" font-size="10.00" fill="#000000">time.h</text>
</g>
<!-- Node1&#45;&gt;Node4 -->
<g id="edge4" class="edge">
<title>Node1&#45;&gt;Node4</title>
<path fill="none" stroke="#191970" d="M475.5451,-56.2455C476.328,-48.9382 477.4256,-38.6944 478.3888,-29.7046"/>
<polygon fill="#191970" stroke="#191970" points="481.8815,-29.9587 479.4669,-19.6427 474.9214,-29.2129 481.8815,-29.9587"/>
</g>
<!-- Node5 -->
<g id="node6" class="node">
<title>Node5</title>
<polygon fill="#ffffff" stroke="#bfbfbf" points="522.5,-.5 522.5,-19.5 594.5,-19.5 594.5,-.5 522.5,-.5"/>
<text text-anchor="middle" x="558.5" y="-7.5" font-family="Helvetica,sans-Serif" font-size="10.00" fill="#000000">sys/types.h</text>
</g>
<!-- Node1&#45;&gt;Node5 -->
<g id="edge5" class="edge">
<title>Node1&#45;&gt;Node5</title>
<path fill="none" stroke="#191970" d="M489.1317,-56.2455C501.8994,-47.7337 520.6438,-35.2375 535.4299,-25.3801"/>
<polygon fill="#191970" stroke="#191970" points="537.6569,-28.1019 544.036,-19.6427 533.774,-22.2775 537.6569,-28.1019"/>
</g>
<!-- Node6 -->
<g id="node7" class="node">
<title>Node6</title>
<polygon fill="#ffffff" stroke="#bfbfbf" points="613,-.5 613,-19.5 696,-19.5 696,-.5 613,-.5"/>
<text text-anchor="middle" x="654.5" y="-7.5" font-family="Helvetica,sans-Serif" font-size="10.00" fill="#000000">Xrd/XrdJob.hh</text>
</g>
<!-- Node1&#45;&gt;Node6 -->
<g id="edge6" class="edge">
<title>Node1&#45;&gt;Node6</title>
<path fill="none" stroke="#191970" d="M505.4431,-56.3733C535.5039,-47.021 581.3026,-32.7725 614.1978,-22.5385"/>
<polygon fill="#191970" stroke="#191970" points="615.4519,-25.8139 623.9607,-19.5011 613.3723,-19.1299 615.4519,-25.8139"/>
</g>
<!-- Node1&#45;&gt;Node7 -->
<g id="edge7" class="edge">
<title>Node1&#45;&gt;Node7</title>
<path fill="none" stroke="#191970" d="M436.3324,-57.5961C433.3495,-57.026 430.3791,-56.486 427.5,-56 303.9565,-35.1473 269.7159,-36.4143 141.5572,-20.119"/>
<polygon fill="#191970" stroke="#191970" points="141.7104,-16.61 131.3463,-18.8089 140.8196,-23.5531 141.7104,-16.61"/>
</g>
<!-- Node8 -->
<g id="node9" class="node">
<title>Node8</title>
<polygon fill="#ffffff" stroke="#bfbfbf" points="149.5,-.5 149.5,-19.5 289.5,-19.5 289.5,-.5 149.5,-.5"/>
<text text-anchor="middle" x="219.5" y="-7.5" font-family="Helvetica,sans-Serif" font-size="10.00" fill="#000000">XrdSys/XrdSysPthread.hh</text>
</g>
<!-- Node1&#45;&gt;Node8 -->
<g id="edge8" class="edge">
<title>Node1&#45;&gt;Node8</title>
<path fill="none" stroke="#191970" d="M436.3239,-57.6162C392.9095,-48.0821 321.7275,-32.45 272.8412,-21.7141"/>
<polygon fill="#191970" stroke="#191970" points="273.5892,-18.2951 263.0712,-19.5686 272.0877,-25.1322 273.5892,-18.2951"/>
</g>
<!-- Node10 -->
<g id="node11" class="node">
<title>Node10</title>
<polygon fill="#ffffff" stroke="#bfbfbf" points="256.5,-56.5 256.5,-75.5 288.5,-75.5 288.5,-56.5 256.5,-56.5"/>
<text text-anchor="middle" x="272.5" y="-63.5" font-family="Helvetica,sans-Serif" font-size="10.00" fill="#000000">list</text>
</g>
<!-- Node9&#45;&gt;Node10 -->
<g id="edge10" class="edge">
<title>Node9&#45;&gt;Node10</title>
<path fill="none" stroke="#191970" d="M445.1168,-113.0145C407.6511,-105.306 353.4871,-93.1478 298.1279,-75.8613"/>
<polygon fill="#191970" stroke="#191970" points="299.1014,-72.4983 288.5112,-72.8096 296.9841,-79.1704 299.1014,-72.4983"/>
</g>
<!-- Node11 -->
<g id="node12" class="node">
<title>Node11</title>
<polygon fill="#ffffff" stroke="#bfbfbf" points="306.5,-56.5 306.5,-75.5 344.5,-75.5 344.5,-56.5 306.5,-56.5"/>
<text text-anchor="middle" x="325.5" y="-63.5" font-family="Helvetica,sans-Serif" font-size="10.00" fill="#000000">map</text>
</g>
<!-- Node9&#45;&gt;Node11 -->
<g id="edge11" class="edge">
<title>Node9&#45;&gt;Node11</title>
<path fill="none" stroke="#191970" d="M462.3631,-112.4872C436.3582,-103.9531 397.0076,-90.9327 354.4639,-76.2887"/>
<polygon fill="#191970" stroke="#191970" points="355.3555,-72.8939 344.7607,-72.9395 353.0715,-79.5108 355.3555,-72.8939"/>
</g>
<!-- Node12 -->
<g id="node13" class="node">
<title>Node12</title>
<polygon fill="#ffffff" stroke="#bfbfbf" points="362.5,-56.5 362.5,-75.5 418.5,-75.5 418.5,-56.5 362.5,-56.5"/>
<text text-anchor="middle" x="390.5" y="-63.5" font-family="Helvetica,sans-Serif" font-size="10.00" fill="#000000">stdarg.h</text>
</g>
<!-- Node9&#45;&gt;Node12 -->
<g id="edge12" class="edge">
<title>Node9&#45;&gt;Node12</title>
<path fill="none" stroke="#191970" d="M473.9071,-112.2455C458.121,-103.4928 434.7361,-90.527 416.7413,-80.5496"/>
<polygon fill="#191970" stroke="#191970" points="418.3341,-77.4308 407.8913,-75.6427 414.9397,-83.5528 418.3341,-77.4308"/>
</g>
<!-- Node13 -->
<g id="node14" class="node">
<title>Node13</title>
<g id="a_node14"><a xlink:href="XpdSysSemWait_8h.html" target="_top" xlink:title="XpdSysSemWait.h">
<polygon fill="#ffffff" stroke="#000000" points="531,-56.5 531,-75.5 636,-75.5 636,-56.5 531,-56.5"/>
<text text-anchor="middle" x="583.5" y="-63.5" font-family="Helvetica,sans-Serif" font-size="10.00" fill="#000000">XpdSysSemWait.h</text>
</a>
</g>
</g>
<!-- Node9&#45;&gt;Node13 -->
<g id="edge13" class="edge">
<title>Node9&#45;&gt;Node13</title>
<path fill="none" stroke="#191970" d="M507.5252,-112.2455C521.6408,-103.6534 542.4263,-91.0014 558.6899,-81.1018"/>
<polygon fill="#191970" stroke="#191970" points="560.9363,-83.8319 567.6585,-75.6427 557.2966,-77.8525 560.9363,-83.8319"/>
</g>
<!-- Node16 -->
<g id="node17" class="node">
<title>Node16</title>
<polygon fill="#ffffff" stroke="#bfbfbf" points="654,-56.5 654,-75.5 761,-75.5 761,-56.5 654,-56.5"/>
<text text-anchor="middle" x="707.5" y="-63.5" font-family="Helvetica,sans-Serif" font-size="10.00" fill="#000000">Xrd/XrdProtocol.hh</text>
</g>
<!-- Node9&#45;&gt;Node16 -->
<g id="edge16" class="edge">
<title>Node9&#45;&gt;Node16</title>
<path fill="none" stroke="#191970" d="M528.6317,-112.3733C565.3267,-102.8598 621.5639,-88.2797 661.1651,-78.0127"/>
<polygon fill="#191970" stroke="#191970" points="662.0512,-81.3988 670.8528,-75.5011 660.2944,-74.6228 662.0512,-81.3988"/>
</g>
<!-- Node17 -->
<g id="node18" class="node">
<title>Node17</title>
<g id="a_node18"><a xlink:href="XProofProtocol_8h.html" target="_top" xlink:title="XProofProtocol.h">
<polygon fill="#ffffff" stroke="#000000" points="779.5,-56.5 779.5,-75.5 877.5,-75.5 877.5,-56.5 779.5,-56.5"/>
<text text-anchor="middle" x="828.5" y="-63.5" font-family="Helvetica,sans-Serif" font-size="10.00" fill="#000000">XProofProtocol.h</text>
</a>
</g>
</g>
<!-- Node9&#45;&gt;Node17 -->
<g id="edge17" class="edge">
<title>Node9&#45;&gt;Node17</title>
<path fill="none" stroke="#191970" d="M537.747,-114.4044C590.9308,-105.6569 681.1448,-90.7801 769.3391,-76.0217"/>
<polygon fill="#191970" stroke="#191970" points="769.9623,-79.4662 779.247,-74.3628 768.8063,-72.5623 769.9623,-79.4662"/>
</g>
<!-- Node19 -->
<g id="node20" class="node">
<title>Node19</title>
<polygon fill="#ffffff" stroke="#bfbfbf" points="108.5,-56.5 108.5,-75.5 238.5,-75.5 238.5,-56.5 108.5,-56.5"/>
<text text-anchor="middle" x="173.5" y="-63.5" font-family="Helvetica,sans-Serif" font-size="10.00" fill="#000000">XrdOuc/XrdOucHash.hh</text>
</g>
<!-- Node9&#45;&gt;Node19 -->
<g id="edge19" class="edge">
<title>Node9&#45;&gt;Node19</title>
<path fill="none" stroke="#191970" d="M445.2601,-113.8571C390.5149,-104.2165 299.0257,-88.1052 237.5006,-77.2705"/>
<polygon fill="#191970" stroke="#191970" points="237.9709,-73.7996 227.5154,-75.5121 236.7568,-80.6935 237.9709,-73.7996"/>
</g>
<!-- Node20 -->
<g id="node21" class="node">
<title>Node20</title>
<polygon fill="#ffffff" stroke="#bfbfbf" points="895.5,-56.5 895.5,-75.5 1029.5,-75.5 1029.5,-56.5 895.5,-56.5"/>
<text text-anchor="middle" x="962.5" y="-63.5" font-family="Helvetica,sans-Serif" font-size="10.00" fill="#000000">XrdOuc/XrdOucString.hh</text>
</g>
<!-- Node9&#45;&gt;Node20 -->
<g id="edge20" class="edge">
<title>Node9&#45;&gt;Node20</title>
<path fill="none" stroke="#191970" d="M537.7435,-116.8407C609.6559,-108.7679 752.9193,-92.4875 885.0662,-76.1637"/>
<polygon fill="#191970" stroke="#191970" points="885.8761,-79.5903 895.3702,-74.888 885.0159,-72.6433 885.8761,-79.5903"/>
</g>
<!-- Node14 -->
<g id="node15" class="node">
<title>Node14</title>
<g id="a_node15"><a xlink:href="XrdProofdXrdVers_8h.html" target="_top" xlink:title="XrdProofdXrdVers.h">
<polygon fill="#ffffff" stroke="#000000" points="1100,-.5 1100,-19.5 1211,-19.5 1211,-.5 1100,-.5"/>
<text text-anchor="middle" x="1155.5" y="-7.5" font-family="Helvetica,sans-Serif" font-size="10.00" fill="#000000">XrdProofdXrdVers.h</text>
</a>
</g>
</g>
<!-- Node13&#45;&gt;Node14 -->
<g id="edge14" class="edge">
<title>Node13&#45;&gt;Node14</title>
<path fill="none" stroke="#191970" d="M636.0371,-57.1385C638.8969,-56.7339 641.7319,-56.351 644.5,-56 728.8612,-45.3024 971.6402,-24.9735 1089.6001,-15.3309"/>
<polygon fill="#191970" stroke="#191970" points="1089.907,-18.8175 1099.5891,-14.5155 1089.3375,-11.8408 1089.907,-18.8175"/>
</g>
<!-- Node15 -->
<g id="node16" class="node">
<title>Node15</title>
<polygon fill="#ffffff" stroke="#bfbfbf" points="714,-.5 714,-19.5 863,-19.5 863,-.5 714,-.5"/>
<text text-anchor="middle" x="788.5" y="-7.5" font-family="Helvetica,sans-Serif" font-size="10.00" fill="#000000">XrdOuc/XrdOucSemWait.hh</text>
</g>
<!-- Node13&#45;&gt;Node15 -->
<g id="edge15" class="edge">
<title>Node13&#45;&gt;Node15</title>
<path fill="none" stroke="#191970" d="M618.7408,-56.3733C653.4194,-46.9001 706.4883,-32.4032 744.0462,-22.1435"/>
<polygon fill="#191970" stroke="#191970" points="744.9949,-25.5126 753.7191,-19.5011 743.1502,-18.7601 744.9949,-25.5126"/>
</g>
<!-- Node18 -->
<g id="node19" class="node">
<title>Node18</title>
<polygon fill="#ffffff" stroke="#bfbfbf" points="881.5,-.5 881.5,-19.5 1009.5,-19.5 1009.5,-.5 881.5,-.5"/>
<text text-anchor="middle" x="945.5" y="-7.5" font-family="Helvetica,sans-Serif" font-size="10.00" fill="#000000">XProtocol/XProtocol.hh</text>
</g>
<!-- Node17&#45;&gt;Node18 -->
<g id="edge18" class="edge">
<title>Node17&#45;&gt;Node18</title>
<path fill="none" stroke="#191970" d="M848.613,-56.3733C867.3103,-47.4241 895.3744,-33.9917 916.4934,-23.8835"/>
<polygon fill="#191970" stroke="#191970" points="918.1405,-26.9755 925.6494,-19.5011 915.1183,-20.6614 918.1405,-26.9755"/>
</g>
<!-- Node21&#45;&gt;Node1 -->
<g id="edge30" class="edge">
<title>Node21&#45;&gt;Node1</title>
<path fill="none" stroke="#191970" d="M838.8869,-116.5909C767.4462,-109.4195 640.6177,-95.5418 522.5975,-76.0673"/>
<polygon fill="#191970" stroke="#191970" points="523.1058,-72.6038 512.6663,-74.4116 521.9546,-79.5085 523.1058,-72.6038"/>
</g>
<!-- Node21&#45;&gt;Node16 -->
<g id="edge27" class="edge">
<title>Node21&#45;&gt;Node16</title>
<path fill="none" stroke="#191970" d="M863.1816,-112.3733C831.6494,-102.9807 783.5379,-88.6496 749.1499,-78.4064"/>
<polygon fill="#191970" stroke="#191970" points="749.9797,-75.0016 739.3966,-75.5011 747.9813,-81.7103 749.9797,-75.0016"/>
</g>
<!-- Node21&#45;&gt;Node17 -->
<g id="edge31" class="edge">
<title>Node21&#45;&gt;Node17</title>
<path fill="none" stroke="#191970" d="M883.8295,-112.2455C873.9339,-103.9746 859.5373,-91.9416 847.9099,-82.2232"/>
<polygon fill="#191970" stroke="#191970" points="849.9542,-79.3703 840.0368,-75.6427 845.465,-84.7413 849.9542,-79.3703"/>
</g>
<!-- Node21&#45;&gt;Node20 -->
<g id="edge28" class="edge">
<title>Node21&#45;&gt;Node20</title>
<path fill="none" stroke="#191970" d="M907.1705,-112.2455C917.0661,-103.9746 931.4627,-91.9416 943.0901,-82.2232"/>
<polygon fill="#191970" stroke="#191970" points="945.535,-84.7413 950.9632,-75.6427 941.0458,-79.3703 945.535,-84.7413"/>
</g>
<!-- Node22 -->
<g id="node23" class="node">
<title>Node22</title>
<polygon fill="#ffffff" stroke="#bfbfbf" points="1435,-56.5 1435,-75.5 1482,-75.5 1482,-56.5 1435,-56.5"/>
<text text-anchor="middle" x="1458.5" y="-63.5" font-family="Helvetica,sans-Serif" font-size="10.00" fill="#000000">vector</text>
</g>
<!-- Node21&#45;&gt;Node22 -->
<g id="edge22" class="edge">
<title>Node21&#45;&gt;Node22</title>
<path fill="none" stroke="#191970" d="M952.1863,-113.0211C954.9948,-112.6572 957.7779,-112.3141 960.5,-112 1163.6348,-88.5618 1220.7338,-114.3972 1425.0451,-75.9138"/>
<polygon fill="#191970" stroke="#191970" points="1425.7219,-79.3479 1434.8867,-74.0322 1424.4073,-72.4724 1425.7219,-79.3479"/>
</g>
<!-- Node23 -->
<g id="node24" class="node">
<title>Node23</title>
<g id="a_node24"><a xlink:href="XpdSysPthread_8h.html" target="_top" xlink:title="XpdSysPthread.h">
<polygon fill="#ffffff" stroke="#000000" points="1318,-56.5 1318,-75.5 1417,-75.5 1417,-56.5 1318,-56.5"/>
<text text-anchor="middle" x="1367.5" y="-63.5" font-family="Helvetica,sans-Serif" font-size="10.00" fill="#000000">XpdSysPthread.h</text>
</a>
</g>
</g>
<!-- Node21&#45;&gt;Node23 -->
<g id="edge23" class="edge">
<title>Node21&#45;&gt;Node23</title>
<path fill="none" stroke="#191970" d="M952.1969,-113.1081C955.0026,-112.7212 957.7822,-112.3494 960.5,-112 1111.4093,-92.5981 1152.6738,-96.8068 1307.5904,-76.0404"/>
<polygon fill="#191970" stroke="#191970" points="1308.5214,-79.4463 1317.9612,-74.6359 1307.5819,-72.5096 1308.5214,-79.4463"/>
</g>
<!-- Node25 -->
<g id="node26" class="node">
<title>Node25</title>
<polygon fill="#ffffff" stroke="#bfbfbf" points="1047.5,-56.5 1047.5,-75.5 1135.5,-75.5 1135.5,-56.5 1047.5,-56.5"/>
<text text-anchor="middle" x="1091.5" y="-63.5" font-family="Helvetica,sans-Serif" font-size="10.00" fill="#000000">Xrd/XrdLink.hh</text>
</g>
<!-- Node21&#45;&gt;Node25 -->
<g id="edge26" class="edge">
<title>Node21&#45;&gt;Node25</title>
<path fill="none" stroke="#191970" d="M929.1936,-112.3733C962.2087,-102.9404 1012.6573,-88.5265 1048.5386,-78.2747"/>
<polygon fill="#191970" stroke="#191970" points="1049.5924,-81.6137 1058.2461,-75.5011 1047.6693,-74.8831 1049.5924,-81.6137"/>
</g>
<!-- Node26 -->
<g id="node27" class="node">
<title>Node26</title>
<polygon fill="#ffffff" stroke="#bfbfbf" points="1153.5,-56.5 1153.5,-75.5 1299.5,-75.5 1299.5,-56.5 1153.5,-56.5"/>
<text text-anchor="middle" x="1226.5" y="-63.5" font-family="Helvetica,sans-Serif" font-size="10.00" fill="#000000">XrdSec/XrdSecInterface.hh</text>
</g>
<!-- Node21&#45;&gt;Node26 -->
<g id="edge29" class="edge">
<title>Node21&#45;&gt;Node26</title>
<path fill="none" stroke="#191970" d="M952.0248,-112.4369C1009.744,-102.6717 1099.2971,-87.5207 1160.2966,-77.2006"/>
<polygon fill="#191970" stroke="#191970" points="1160.9323,-80.6429 1170.2083,-75.5237 1159.7645,-73.7409 1160.9323,-80.6429"/>
</g>
<!-- Node23&#45;&gt;Node14 -->
<g id="edge24" class="edge">
<title>Node23&#45;&gt;Node14</title>
<path fill="none" stroke="#191970" d="M1331.0559,-56.3733C1295.1931,-46.9001 1240.3122,-32.4032 1201.4718,-22.1435"/>
<polygon fill="#191970" stroke="#191970" points="1202.0308,-18.6712 1191.4685,-19.5011 1200.243,-25.439 1202.0308,-18.6712"/>
</g>
<!-- Node24 -->
<g id="node25" class="node">
<title>Node24</title>
<polygon fill="#ffffff" stroke="#bfbfbf" points="1296,-.5 1296,-19.5 1439,-19.5 1439,-.5 1296,-.5"/>
<text text-anchor="middle" x="1367.5" y="-7.5" font-family="Helvetica,sans-Serif" font-size="10.00" fill="#000000">XrdOuc/XrdOucPthread.hh</text>
</g>
<!-- Node23&#45;&gt;Node24 -->
<g id="edge25" class="edge">
<title>Node23&#45;&gt;Node24</title>
<path fill="none" stroke="#191970" d="M1367.5,-56.2455C1367.5,-48.9382 1367.5,-38.6944 1367.5,-29.7046"/>
<polygon fill="#191970" stroke="#191970" points="1371.0001,-29.6426 1367.5,-19.6427 1364.0001,-29.6427 1371.0001,-29.6426"/>
</g>
</g>
</svg>
