<?xml version="1.0" encoding="UTF-8" standalone="no"?>
<!DOCTYPE svg PUBLIC "-//W3C//DTD SVG 1.1//EN"
 "http://www.w3.org/Graphics/SVG/1.1/DTD/svg11.dtd">
<!-- Generated by graphviz version 2.40.1 (0)
 -->
<!-- Title: proof/xrdinc/XrdClient/XrdClientMessage.hh Pages: 1 -->
<svg width="384pt" height="95pt"
 viewBox="0.00 0.00 384.00 95.00" xmlns="http://www.w3.org/2000/svg" xmlns:xlink="http://www.w3.org/1999/xlink">
<g id="graph0" class="graph" transform="scale(1 1) rotate(0) translate(4 91)">
<title>proof/xrdinc/XrdClient/XrdClientMessage.hh</title>
<polygon fill="#ffffff" stroke="transparent" points="-4,4 -4,-91 380,-91 380,4 -4,4"/>
<!-- Node0 -->
<g id="node1" class="node">
<title>Node0</title>
<polygon fill="#bfbfbf" stroke="#000000" points="154.5,-56.5 154.5,-86.5 277.5,-86.5 277.5,-56.5 154.5,-56.5"/>
<text text-anchor="start" x="162.5" y="-74.5" font-family="Helvetica,sans-Serif" font-size="10.00" fill="#000000">proof/xrdinc/XrdClient</text>
<text text-anchor="middle" x="216" y="-63.5" font-family="Helvetica,sans-Serif" font-size="10.00" fill="#000000">/XrdClientMessage.hh</text>
</g>
<!-- Node1 -->
<g id="node2" class="node">
<title>Node1</title>
<polygon fill="#ffffff" stroke="#bfbfbf" points="0,-.5 0,-19.5 128,-19.5 128,-.5 0,-.5"/>
<text text-anchor="middle" x="64" y="-7.5" font-family="Helvetica,sans-Serif" font-size="10.00" fill="#000000">XProtocol/XProtocol.hh</text>
</g>
<!-- Node0&#45;&gt;Node1 -->
<g id="edge1" class="edge">
<title>Node0&#45;&gt;Node1</title>
<path fill="none" stroke="#191970" d="M178.8166,-56.4554C153.7887,-46.329 121.0837,-33.0964 96.9834,-23.3453"/>
<polygon fill="#191970" stroke="#191970" points="98.1373,-20.0366 87.5546,-19.5303 95.5118,-26.5256 98.1373,-20.0366"/>
</g>
<!-- Node2 -->
<g id="node3" class="node">
<title>Node2</title>
<polygon fill="#ffffff" stroke="#bfbfbf" points="146,-.5 146,-19.5 286,-19.5 286,-.5 146,-.5"/>
<text text-anchor="middle" x="216" y="-7.5" font-family="Helvetica,sans-Serif" font-size="10.00" fill="#000000">XrdSys/XrdSysPthread.hh</text>
</g>
<!-- Node0&#45;&gt;Node2 -->
<g id="edge2" class="edge">
<title>Node0&#45;&gt;Node2</title>
<path fill="none" stroke="#191970" d="M216,-56.2977C216,-48.3834 216,-38.6043 216,-30.0759"/>
<polygon fill="#191970" stroke="#191970" points="219.5001,-29.8469 216,-19.8469 212.5001,-29.847 219.5001,-29.8469"/>
</g>
<!-- Node3 -->
<g id="node4" class="node">
<title>Node3</title>
<polygon fill="#ffffff" stroke="#bfbfbf" points="304,-.5 304,-19.5 376,-19.5 376,-.5 304,-.5"/>
<text text-anchor="middle" x="340" y="-7.5" font-family="Helvetica,sans-Serif" font-size="10.00" fill="#000000">netinet/in.h</text>
</g>
<!-- Node0&#45;&gt;Node3 -->
<g id="edge3" class="edge">
<title>Node0&#45;&gt;Node3</title>
<path fill="none" stroke="#191970" d="M246.3338,-56.4554C266.2976,-46.554 292.249,-33.683 311.7715,-24.0004"/>
<polygon fill="#191970" stroke="#191970" points="313.3809,-27.1091 320.7844,-19.5303 310.2706,-20.838 313.3809,-27.1091"/>
</g>
</g>
</svg>
