<?xml version="1.0" encoding="UTF-8" standalone="no"?>
<!DOCTYPE svg PUBLIC "-//W3C//DTD SVG 1.1//EN"
 "http://www.w3.org/Graphics/SVG/1.1/DTD/svg11.dtd">
<!-- Generated by graphviz version 2.40.1 (0)
 -->
<!-- Title: proof/xrdinc/XrdClient/XrdClientMessage.hh Pages: 1 -->
<!--zoomable 363 -->
<svg id="main" version="1.1" xmlns="http://www.w3.org/2000/svg" xmlns:xlink="http://www.w3.org/1999/xlink" xml:space="preserve" onload="init(evt)">
<style type="text/css"><![CDATA[
.edge:hover path { stroke: red; }
.edge:hover polygon { stroke: red; fill: red; }
]]></style>
<script type="text/javascript"><![CDATA[
var edges = document.getElementsByTagName('g');
if (edges && edges.length) {
  for (var i=0;i<edges.length;i++) {
    if (edges[i].id.substr(0,4)=='edge') {
      edges[i].setAttribute('class','edge');
    }
  }
}
]]></script>
        <defs>
                <circle id="rim" cx="0" cy="0" r="7"/>
                <circle id="rim2" cx="0" cy="0" r="3.5"/>
                <g id="zoomPlus">
                        <use xlink:href="#rim" fill="#404040">
                                <set attributeName="fill" to="#808080" begin="zoomplus.mouseover" end="zoomplus.mouseout"/>
                        </use>
                        <path d="M-4,0h8M0,-4v8" fill="none" stroke="white" stroke-width="1.5" pointer-events="none"/>
                </g>
                <g id="zoomMin">
                        <use xlink:href="#rim" fill="#404040">
                                <set attributeName="fill" to="#808080" begin="zoomminus.mouseover" end="zoomminus.mouseout"/>
                        </use>
                        <path d="M-4,0h8" fill="none" stroke="white" stroke-width="1.5" pointer-events="none"/>
                </g>
                <g id="dirArrow">
                        <path fill="none" stroke="white" stroke-width="1.5" d="M0,-3.0v7 M-2.5,-0.5L0,-3.0L2.5,-0.5"/>
                </g>
               <g id="resetDef">
                       <use xlink:href="#rim2" fill="#404040">
                               <set attributeName="fill" to="#808080" begin="reset.mouseover" end="reset.mouseout"/>
                       </use>
               </g>
        </defs>

<script type="text/javascript">
var viewWidth = 915;
var viewHeight = 363;
var sectionId = 'dynsection-1';
</script>
<script xlink:href="svgpan.js"/>
<svg id="graph" class="graph">
<g id="viewport">
<title>proof/xrdinc/XrdClient/XrdClientMessage.hh</title>
<polygon fill="#ffffff" stroke="transparent" points="-4,4 -4,-359 911,-359 911,4 -4,4"/>
<!-- Node4 -->
<g id="node1" class="node">
<title>Node4</title>
<polygon fill="#bfbfbf" stroke="#000000" points="324,-324.5 324,-354.5 447,-354.5 447,-324.5 324,-324.5"/>
<text text-anchor="start" x="332" y="-342.5" font-family="Helvetica,sans-Serif" font-size="10.00" fill="#000000">proof/xrdinc/XrdClient</text>
<text text-anchor="middle" x="385.5" y="-331.5" font-family="Helvetica,sans-Serif" font-size="10.00" fill="#000000">/XrdClientMessage.hh</text>
</g>
<!-- Node5 -->
<g id="node2" class="node">
<title>Node5</title>
<g id="a_node2"><a xlink:href="XrdProofConn_8cxx.html" target="_top" xlink:title="proof/proofd/src/XrdProof\lConn.cxx">
<polygon fill="#ffffff" stroke="#000000" points="0,-56.5 0,-86.5 139,-86.5 139,-56.5 0,-56.5"/>
<text text-anchor="start" x="8" y="-74.5" font-family="Helvetica,sans-Serif" font-size="10.00" fill="#000000">proof/proofd/src/XrdProof</text>
<text text-anchor="middle" x="69.5" y="-63.5" font-family="Helvetica,sans-Serif" font-size="10.00" fill="#000000">Conn.cxx</text>
</a>
</g>
</g>
<!-- Node4&#45;&gt;Node5 -->
<g id="edge1" class="edge">
<title>Node4&#45;&gt;Node5</title>
<path fill="none" stroke="#191970" d="M313.7057,-327.5582C264.1864,-318.1521 203.77,-303.9892 183.5,-288 114.6283,-233.6733 82.6897,-126.121 72.9135,-86.5597"/>
<polygon fill="#191970" stroke="#191970" points="313.2965,-331.0421 323.7685,-329.4335 314.579,-324.1606 313.2965,-331.0421"/>
</g>
<!-- Node6 -->
<g id="node3" class="node">
<title>Node6</title>
<g id="a_node3"><a xlink:href="XrdProofdAdmin_8cxx.html" target="_top" xlink:title="proof/proofd/src/XrdProofd\lAdmin.cxx">
<polygon fill="#ffffff" stroke="#000000" points="599,-257.5 599,-287.5 744,-287.5 744,-257.5 599,-257.5"/>
<text text-anchor="start" x="607" y="-275.5" font-family="Helvetica,sans-Serif" font-size="10.00" fill="#000000">proof/proofd/src/XrdProofd</text>
<text text-anchor="middle" x="671.5" y="-264.5" font-family="Helvetica,sans-Serif" font-size="10.00" fill="#000000">Admin.cxx</text>
</a>
</g>
</g>
<!-- Node4&#45;&gt;Node6 -->
<g id="edge2" class="edge">
<title>Node4&#45;&gt;Node6</title>
<path fill="none" stroke="#191970" d="M457.1422,-322.7167C503.3126,-311.9005 562.8275,-297.9582 607.4273,-287.51"/>
<polygon fill="#191970" stroke="#191970" points="456.1437,-319.3558 447.2056,-325.0445 457.7404,-326.1712 456.1437,-319.3558"/>
</g>
<!-- Node7 -->
<g id="node4" class="node">
<title>Node7</title>
<g id="a_node4"><a xlink:href="XrdProofdNetMgr_8cxx.html" target="_top" xlink:title="proof/proofd/src/XrdProofd\lNetMgr.cxx">
<polygon fill="#ffffff" stroke="#000000" points="762,-257.5 762,-287.5 907,-287.5 907,-257.5 762,-257.5"/>
<text text-anchor="start" x="770" y="-275.5" font-family="Helvetica,sans-Serif" font-size="10.00" fill="#000000">proof/proofd/src/XrdProofd</text>
<text text-anchor="middle" x="834.5" y="-264.5" font-family="Helvetica,sans-Serif" font-size="10.00" fill="#000000">NetMgr.cxx</text>
</a>
</g>
</g>
<!-- Node4&#45;&gt;Node7 -->
<g id="edge3" class="edge">
<title>Node4&#45;&gt;Node7</title>
<path fill="none" stroke="#191970" d="M457.3527,-330.5255C531.6456,-320.993 650.9233,-304.9811 753.5,-288 756.1838,-287.5557 758.9155,-287.092 761.673,-286.6142"/>
<polygon fill="#191970" stroke="#191970" points="456.6499,-327.0868 447.1746,-331.827 457.5378,-334.0303 456.6499,-327.0868"/>
</g>
<!-- Node8 -->
<g id="node5" class="node">
<title>Node8</title>
<g id="a_node5"><a xlink:href="XrdProofPhyConn_8cxx.html" target="_top" xlink:title="proof/proofd/src/XrdProof\lPhyConn.cxx">
<polygon fill="#ffffff" stroke="#000000" points="157,-56.5 157,-86.5 296,-86.5 296,-56.5 157,-56.5"/>
<text text-anchor="start" x="165" y="-74.5" font-family="Helvetica,sans-Serif" font-size="10.00" fill="#000000">proof/proofd/src/XrdProof</text>
<text text-anchor="middle" x="226.5" y="-63.5" font-family="Helvetica,sans-Serif" font-size="10.00" fill="#000000">PhyConn.cxx</text>
</a>
</g>
</g>
<!-- Node4&#45;&gt;Node8 -->
<g id="edge4" class="edge">
<title>Node4&#45;&gt;Node8</title>
<path fill="none" stroke="#191970" d="M313.6906,-326.3624C270.5328,-317.0941 221.0474,-303.5838 205.5,-288 150.557,-232.9283 197.6358,-126.2991 218.1219,-86.7479"/>
<polygon fill="#191970" stroke="#191970" points="313.1361,-329.8222 323.6417,-328.45 314.5733,-322.9713 313.1361,-329.8222"/>
</g>
<!-- Node9 -->
<g id="node6" class="node">
<title>Node9</title>
<g id="a_node6"><a xlink:href="TXSocket_8cxx.html" target="_top" xlink:title="proof/proofx/src/TXSocket.cxx">
<polygon fill="#ffffff" stroke="#000000" points="314,-62 314,-81 477,-81 477,-62 314,-62"/>
<text text-anchor="middle" x="395.5" y="-69" font-family="Helvetica,sans-Serif" font-size="10.00" fill="#000000">proof/proofx/src/TXSocket.cxx</text>
</a>
</g>
</g>
<!-- Node4&#45;&gt;Node9 -->
<g id="edge5" class="edge">
<title>Node4&#45;&gt;Node9</title>
<path fill="none" stroke="#191970" d="M386.4407,-314.2885C388.5811,-256.926 393.7383,-118.7128 395.1421,-81.0926"/>
<polygon fill="#191970" stroke="#191970" points="382.9417,-314.1997 386.0663,-324.3233 389.9368,-314.4608 382.9417,-314.1997"/>
</g>
<!-- Node10 -->
<g id="node7" class="node">
<title>Node10</title>
<g id="a_node7"><a xlink:href="XrdClientConn_8hh.html" target="_top" xlink:title="proof/xrdinc/XrdClient\l/XrdClientConn.hh">
<polygon fill="#ffffff" stroke="#000000" points="495,-56.5 495,-86.5 618,-86.5 618,-56.5 495,-56.5"/>
<text text-anchor="start" x="503" y="-74.5" font-family="Helvetica,sans-Serif" font-size="10.00" fill="#000000">proof/xrdinc/XrdClient</text>
<text text-anchor="middle" x="556.5" y="-63.5" font-family="Helvetica,sans-Serif" font-size="10.00" fill="#000000">/XrdClientConn.hh</text>
</a>
</g>
</g>
<!-- Node4&#45;&gt;Node10 -->
<g id="edge6" class="edge">
<title>Node4&#45;&gt;Node10</title>
<path fill="none" stroke="#191970" d="M432.9724,-320.1404C472.4372,-301.2422 526.0976,-268.381 551.5,-221 575.0597,-177.056 566.0924,-114.9342 560.1362,-86.6199"/>
<polygon fill="#191970" stroke="#191970" points="431.3682,-317.0264 423.7764,-324.4166 434.3198,-323.3737 431.3682,-317.0264"/>
</g>
<!-- Node13 -->
<g id="node10" class="node">
<title>Node13</title>
<g id="a_node10"><a xlink:href="XrdClientInputBuffer_8hh.html" target="_top" xlink:title="proof/xrdinc/XrdClient\l/XrdClientInputBuffer.hh">
<polygon fill="#ffffff" stroke="#000000" points="224,-257.5 224,-287.5 357,-287.5 357,-257.5 224,-257.5"/>
<text text-anchor="start" x="232" y="-275.5" font-family="Helvetica,sans-Serif" font-size="10.00" fill="#000000">proof/xrdinc/XrdClient</text>
<text text-anchor="middle" x="290.5" y="-264.5" font-family="Helvetica,sans-Serif" font-size="10.00" fill="#000000">/XrdClientInputBuffer.hh</text>
</a>
</g>
</g>
<!-- Node4&#45;&gt;Node13 -->
<g id="edge9" class="edge">
<title>Node4&#45;&gt;Node13</title>
<path fill="none" stroke="#191970" d="M355.5068,-318.3469C341.3712,-308.3776 324.8305,-296.7121 311.9717,-287.6432"/>
<polygon fill="#191970" stroke="#191970" points="353.7537,-321.3934 363.943,-324.2967 357.7882,-315.6729 353.7537,-321.3934"/>
</g>
<!-- Node14 -->
<g id="node11" class="node">
<title>Node14</title>
<g id="a_node11"><a xlink:href="XrdClientPhyConnection_8hh.html" target="_top" xlink:title="proof/xrdinc/XrdClient\l/XrdClientPhyConnection.hh">
<polygon fill="#ffffff" stroke="#000000" points="195.5,-190.5 195.5,-220.5 347.5,-220.5 347.5,-190.5 195.5,-190.5"/>
<text text-anchor="start" x="203.5" y="-208.5" font-family="Helvetica,sans-Serif" font-size="10.00" fill="#000000">proof/xrdinc/XrdClient</text>
<text text-anchor="middle" x="271.5" y="-197.5" font-family="Helvetica,sans-Serif" font-size="10.00" fill="#000000">/XrdClientPhyConnection.hh</text>
</a>
</g>
</g>
<!-- Node4&#45;&gt;Node14 -->
<g id="edge19" class="edge">
<title>Node4&#45;&gt;Node14</title>
<path fill="none" stroke="#191970" d="M313.5536,-326.7249C272.4948,-317.8087 226.8016,-304.5522 214.5,-288 197.3656,-264.9451 225.9975,-237.3372 248.518,-220.6229"/>
<polygon fill="#191970" stroke="#191970" points="313.0871,-330.2034 323.594,-328.8413 314.5309,-323.3539 313.0871,-330.2034"/>
</g>
<!-- Node16 -->
<g id="node13" class="node">
<title>Node16</title>
<g id="a_node13"><a xlink:href="XrdClientReadCache_8hh.html" target="_top" xlink:title="proof/xrdinc/XrdClient\l/XrdClientReadCache.hh">
<polygon fill="#ffffff" stroke="#000000" points="408.5,-190.5 408.5,-220.5 542.5,-220.5 542.5,-190.5 408.5,-190.5"/>
<text text-anchor="start" x="416.5" y="-208.5" font-family="Helvetica,sans-Serif" font-size="10.00" fill="#000000">proof/xrdinc/XrdClient</text>
<text text-anchor="middle" x="475.5" y="-197.5" font-family="Helvetica,sans-Serif" font-size="10.00" fill="#000000">/XrdClientReadCache.hh</text>
</a>
</g>
</g>
<!-- Node4&#45;&gt;Node16 -->
<g id="edge20" class="edge">
<title>Node4&#45;&gt;Node16</title>
<path fill="none" stroke="#191970" d="M401.4258,-315.7882C419.8544,-288.3502 449.6585,-243.9751 465.2498,-220.7614"/>
<polygon fill="#191970" stroke="#191970" points="398.3193,-314.1361 395.6492,-324.389 404.1303,-318.039 398.3193,-314.1361"/>
</g>
<!-- Node11 -->
<g id="node8" class="node">
<title>Node11</title>
<g id="a_node8"><a xlink:href="TXNetFile_8cxx.html" target="_top" xlink:title="net/netx/src/TXNetFile.cxx">
<polygon fill="#ffffff" stroke="#000000" points="398.5,-.5 398.5,-19.5 542.5,-19.5 542.5,-.5 398.5,-.5"/>
<text text-anchor="middle" x="470.5" y="-7.5" font-family="Helvetica,sans-Serif" font-size="10.00" fill="#000000">net/netx/src/TXNetFile.cxx</text>
</a>
</g>
</g>
<!-- Node10&#45;&gt;Node11 -->
<g id="edge7" class="edge">
<title>Node10&#45;&gt;Node11</title>
<path fill="none" stroke="#191970" d="M526.9758,-50.3868C512.3863,-39.9535 495.4943,-27.8738 484.0129,-19.6633"/>
<polygon fill="#191970" stroke="#191970" points="525.0715,-53.3278 535.2416,-56.2977 529.1433,-47.6339 525.0715,-53.3278"/>
</g>
<!-- Node12 -->
<g id="node9" class="node">
<title>Node12</title>
<g id="a_node9"><a xlink:href="TXNetSystem_8cxx.html" target="_top" xlink:title="net/netx/src/TXNetSystem.cxx">
<polygon fill="#ffffff" stroke="#000000" points="560.5,-.5 560.5,-19.5 724.5,-19.5 724.5,-.5 560.5,-.5"/>
<text text-anchor="middle" x="642.5" y="-7.5" font-family="Helvetica,sans-Serif" font-size="10.00" fill="#000000">net/netx/src/TXNetSystem.cxx</text>
</a>
</g>
</g>
<!-- Node10&#45;&gt;Node12 -->
<g id="edge8" class="edge">
<title>Node10&#45;&gt;Node12</title>
<path fill="none" stroke="#191970" d="M586.0242,-50.3868C600.6137,-39.9535 617.5057,-27.8738 628.9871,-19.6633"/>
<polygon fill="#191970" stroke="#191970" points="583.8567,-47.6339 577.7584,-56.2977 587.9285,-53.3278 583.8567,-47.6339"/>
</g>
<!-- Node13&#45;&gt;Node14 -->
<g id="edge10" class="edge">
<title>Node13&#45;&gt;Node14</title>
<path fill="none" stroke="#191970" d="M283.4417,-247.6103C280.8739,-238.5553 278.0507,-228.5998 275.7943,-220.6432"/>
<polygon fill="#191970" stroke="#191970" points="280.0931,-248.6309 286.1886,-257.2967 286.8275,-246.7211 280.0931,-248.6309"/>
</g>
<!-- Node13&#45;&gt;Node16 -->
<g id="edge17" class="edge">
<title>Node13&#45;&gt;Node16</title>
<path fill="none" stroke="#191970" d="M341.5759,-254.0023C370.6015,-243.4903 406.4854,-230.4945 433.8013,-220.6017"/>
<polygon fill="#191970" stroke="#191970" points="340.2282,-250.7678 332.0176,-257.4639 342.6118,-257.3495 340.2282,-250.7678"/>
</g>
<!-- Node14&#45;&gt;Node5 -->
<g id="edge11" class="edge">
<title>Node14&#45;&gt;Node5</title>
<path fill="none" stroke="#191970" d="M240.2097,-184.7431C199.2373,-157.5633 128.3827,-110.5608 92.1961,-86.5558"/>
<polygon fill="#191970" stroke="#191970" points="238.4527,-187.7776 248.7207,-190.389 242.3223,-181.9444 238.4527,-187.7776"/>
</g>
<!-- Node15 -->
<g id="node12" class="node">
<title>Node15</title>
<g id="a_node12"><a xlink:href="XrdClientConnMgr_8hh.html" target="_top" xlink:title="proof/xrdinc/XrdClient\l/XrdClientConnMgr.hh">
<polygon fill="#ffffff" stroke="#000000" points="224,-123.5 224,-153.5 347,-153.5 347,-123.5 224,-123.5"/>
<text text-anchor="start" x="232" y="-141.5" font-family="Helvetica,sans-Serif" font-size="10.00" fill="#000000">proof/xrdinc/XrdClient</text>
<text text-anchor="middle" x="285.5" y="-130.5" font-family="Helvetica,sans-Serif" font-size="10.00" fill="#000000">/XrdClientConnMgr.hh</text>
</a>
</g>
</g>
<!-- Node14&#45;&gt;Node15 -->
<g id="edge12" class="edge">
<title>Node14&#45;&gt;Node15</title>
<path fill="none" stroke="#191970" d="M276.7619,-180.3179C278.6376,-171.3414 280.691,-161.5143 282.3358,-153.6432"/>
<polygon fill="#191970" stroke="#191970" points="273.2963,-179.7922 274.6768,-190.2967 280.1483,-181.224 273.2963,-179.7922"/>
</g>
<!-- Node15&#45;&gt;Node5 -->
<g id="edge13" class="edge">
<title>Node15&#45;&gt;Node5</title>
<path fill="none" stroke="#191970" d="M227.1874,-120.4123C193.0708,-109.8298 150.4952,-96.6235 118.186,-86.6017"/>
<polygon fill="#191970" stroke="#191970" points="226.4374,-123.8441 237.0254,-123.4639 228.5112,-117.1583 226.4374,-123.8441"/>
</g>
<!-- Node15&#45;&gt;Node8 -->
<g id="edge14" class="edge">
<title>Node15&#45;&gt;Node8</title>
<path fill="none" stroke="#191970" d="M265.3682,-115.6385C256.9381,-106.0653 247.369,-95.1987 239.835,-86.6432"/>
<polygon fill="#191970" stroke="#191970" points="262.8764,-118.1048 272.112,-123.2967 268.1299,-113.4786 262.8764,-118.1048"/>
</g>
<!-- Node15&#45;&gt;Node9 -->
<g id="edge15" class="edge">
<title>Node15&#45;&gt;Node9</title>
<path fill="none" stroke="#191970" d="M318.8114,-118.2103C339.0291,-105.8959 363.9025,-90.7457 379.7324,-81.1039"/>
<polygon fill="#191970" stroke="#191970" points="316.906,-115.2727 310.1861,-123.4639 320.5473,-121.2511 316.906,-115.2727"/>
</g>
<!-- Node15&#45;&gt;Node10 -->
<g id="edge16" class="edge">
<title>Node15&#45;&gt;Node10</title>
<path fill="none" stroke="#191970" d="M356.1927,-121.0225C399.3963,-110.3411 454.0982,-96.8171 495.4171,-86.6017"/>
<polygon fill="#191970" stroke="#191970" points="355.1854,-117.6661 346.3177,-123.4639 356.8655,-124.4615 355.1854,-117.6661"/>
</g>
<!-- Node16&#45;&gt;Node10 -->
<g id="edge18" class="edge">
<title>Node16&#45;&gt;Node10</title>
<path fill="none" stroke="#191970" d="M489.8332,-181.7882C506.4189,-154.3502 533.2427,-109.9751 547.2748,-86.7614"/>
<polygon fill="#191970" stroke="#191970" points="486.8121,-180.0204 484.6343,-190.389 492.8027,-183.6416 486.8121,-180.0204"/>
</g>
</g>
</svg>
        <g id="navigator" transform="translate(0 0)" fill="#404254">
                <rect fill="#f2f5e9" fill-opacity="0.5" stroke="#606060" stroke-width=".5" x="0" y="0" width="60" height="60"/>
                <use id="zoomplus" xlink:href="#zoomPlus" x="17" y="9" onmousedown="handleZoom(evt,'in')"/>
                <use id="zoomminus" xlink:href="#zoomMin" x="42" y="9" onmousedown="handleZoom(evt,'out')"/>
                <use id="reset" xlink:href="#resetDef" x="30" y="36" onmousedown="handleReset()"/>
                <g id="arrowUp" xlink:href="#dirArrow" transform="translate(30 24)" onmousedown="handlePan(0,-1)">
                  <use xlink:href="#rim" fill="#404040">
                        <set attributeName="fill" to="#808080" begin="arrowUp.mouseover" end="arrowUp.mouseout"/>
                  </use>
                  <path fill="none" stroke="white" stroke-width="1.5" d="M0,-3.0v7 M-2.5,-0.5L0,-3.0L2.5,-0.5"/>
                </g>
                <g id="arrowRight" xlink:href="#dirArrow" transform="rotate(90) translate(36 -43)" onmousedown="handlePan(1,0)">
                  <use xlink:href="#rim" fill="#404040">
                        <set attributeName="fill" to="#808080" begin="arrowRight.mouseover" end="arrowRight.mouseout"/>
                  </use>
                  <path fill="none" stroke="white" stroke-width="1.5" d="M0,-3.0v7 M-2.5,-0.5L0,-3.0L2.5,-0.5"/>
                </g>
                <g id="arrowDown" xlink:href="#dirArrow" transform="rotate(180) translate(-30 -48)" onmousedown="handlePan(0,1)">
                  <use xlink:href="#rim" fill="#404040">
                        <set attributeName="fill" to="#808080" begin="arrowDown.mouseover" end="arrowDown.mouseout"/>
                  </use>
                  <path fill="none" stroke="white" stroke-width="1.5" d="M0,-3.0v7 M-2.5,-0.5L0,-3.0L2.5,-0.5"/>
                </g>
                <g id="arrowLeft" xlink:href="#dirArrow" transform="rotate(270) translate(-36 17)" onmousedown="handlePan(-1,0)">
                  <use xlink:href="#rim" fill="#404040">
                        <set attributeName="fill" to="#808080" begin="arrowLeft.mouseover" end="arrowLeft.mouseout"/>
                  </use>
                  <path fill="none" stroke="white" stroke-width="1.5" d="M0,-3.0v7 M-2.5,-0.5L0,-3.0L2.5,-0.5"/>
                </g>
        </g>
        <svg viewBox="0 0 15 15" width="100%" height="30px" preserveAspectRatio="xMaxYMin meet">
         <g id="arrow_out" transform="scale(0.3 0.3)">
          <a xlink:href="XrdClientMessage_8hh__dep__incl_org.svg" target="_base">
           <rect id="button" ry="5" rx="5" y="6" x="6" height="38" width="38"
                fill="#f2f5e9" fill-opacity="0.5" stroke="#606060" stroke-width="1.0"/>
           <path id="arrow"
             d="M 11.500037,31.436501 C 11.940474,20.09759 22.043105,11.32322 32.158766,21.979434 L 37.068811,17.246167 C 37.068811,17.246167 37.088388,32 37.088388,32 L 22.160133,31.978069 C 22.160133,31.978069 26.997745,27.140456 26.997745,27.140456 C 18.528582,18.264221 13.291696,25.230495 11.500037,31.436501 z"
             style="fill:#404040;"/>
          </a>
         </g>
        </svg>
</svg>
