<?xml version="1.0" encoding="UTF-8" standalone="no"?>
<!DOCTYPE svg PUBLIC "-//W3C//DTD SVG 1.1//EN"
 "http://www.w3.org/Graphics/SVG/1.1/DTD/svg11.dtd">
<!-- Generated by graphviz version 2.40.1 (0)
 -->
<!-- Title: proof/xrdinc/XrdClient/XrdClientInputBuffer.hh Pages: 1 -->
<svg width="917pt" height="151pt"
 viewBox="0.00 0.00 916.50 151.00" xmlns="http://www.w3.org/2000/svg" xmlns:xlink="http://www.w3.org/1999/xlink">
<g id="graph0" class="graph" transform="scale(1 1) rotate(0) translate(4 147)">
<title>proof/xrdinc/XrdClient/XrdClientInputBuffer.hh</title>
<polygon fill="#ffffff" stroke="transparent" points="-4,4 -4,-147 912.5,-147 912.5,4 -4,4"/>
<!-- Node0 -->
<g id="node1" class="node">
<title>Node0</title>
<polygon fill="#bfbfbf" stroke="#000000" points="337.5,-112.5 337.5,-142.5 470.5,-142.5 470.5,-112.5 337.5,-112.5"/>
<text text-anchor="start" x="345.5" y="-130.5" font-family="Helvetica,sans-Serif" font-size="10.00" fill="#000000">proof/xrdinc/XrdClient</text>
<text text-anchor="middle" x="404" y="-119.5" font-family="Helvetica,sans-Serif" font-size="10.00" fill="#000000">/XrdClientInputBuffer.hh</text>
</g>
<!-- Node1 -->
<g id="node2" class="node">
<title>Node1</title>
<g id="a_node2"><a xlink:href="XrdClientMessage_8hh.html" target="_top" xlink:title="XrdClient/XrdClientMessage.hh">
<polygon fill="#ffffff" stroke="#000000" points="104.5,-56.5 104.5,-75.5 271.5,-75.5 271.5,-56.5 104.5,-56.5"/>
<text text-anchor="middle" x="188" y="-63.5" font-family="Helvetica,sans-Serif" font-size="10.00" fill="#000000">XrdClient/XrdClientMessage.hh</text>
</a>
</g>
</g>
<!-- Node0&#45;&gt;Node1 -->
<g id="edge1" class="edge">
<title>Node0&#45;&gt;Node1</title>
<path fill="none" stroke="#191970" d="M351.1605,-112.4554C314.3299,-101.9689 265.8002,-88.1515 231.2655,-78.3187"/>
<polygon fill="#191970" stroke="#191970" points="232.0486,-74.9026 221.4723,-75.5303 230.1316,-81.635 232.0486,-74.9026"/>
</g>
<!-- Node3 -->
<g id="node4" class="node">
<title>Node3</title>
<polygon fill="#ffffff" stroke="#bfbfbf" points="236,-.5 236,-19.5 376,-19.5 376,-.5 236,-.5"/>
<text text-anchor="middle" x="306" y="-7.5" font-family="Helvetica,sans-Serif" font-size="10.00" fill="#000000">XrdSys/XrdSysPthread.hh</text>
</g>
<!-- Node0&#45;&gt;Node3 -->
<g id="edge5" class="edge">
<title>Node0&#45;&gt;Node3</title>
<path fill="none" stroke="#191970" d="M367.473,-112.3394C351.2972,-103.8845 333.3927,-91.8266 322,-76 312.3254,-62.5602 308.4505,-44.001 306.9235,-29.9854"/>
<polygon fill="#191970" stroke="#191970" points="310.4042,-29.6011 306.1362,-19.9039 303.4254,-30.1461 310.4042,-29.6011"/>
</g>
<!-- Node5 -->
<g id="node6" class="node">
<title>Node5</title>
<polygon fill="#ffffff" stroke="#bfbfbf" points="331,-56.5 331,-75.5 477,-75.5 477,-56.5 331,-56.5"/>
<text text-anchor="middle" x="404" y="-63.5" font-family="Helvetica,sans-Serif" font-size="10.00" fill="#000000">XrdSys/XrdSysSemWait.hh</text>
</g>
<!-- Node0&#45;&gt;Node5 -->
<g id="edge6" class="edge">
<title>Node0&#45;&gt;Node5</title>
<path fill="none" stroke="#191970" d="M404,-112.2977C404,-104.3834 404,-94.6043 404,-86.0759"/>
<polygon fill="#191970" stroke="#191970" points="407.5001,-85.8469 404,-75.8469 400.5001,-85.847 407.5001,-85.8469"/>
</g>
<!-- Node6 -->
<g id="node7" class="node">
<title>Node6</title>
<polygon fill="#ffffff" stroke="#bfbfbf" points="495,-56.5 495,-75.5 625,-75.5 625,-56.5 495,-56.5"/>
<text text-anchor="middle" x="560" y="-63.5" font-family="Helvetica,sans-Serif" font-size="10.00" fill="#000000">XrdOuc/XrdOucHash.hh</text>
</g>
<!-- Node0&#45;&gt;Node6 -->
<g id="edge7" class="edge">
<title>Node0&#45;&gt;Node6</title>
<path fill="none" stroke="#191970" d="M442.1619,-112.4554C467.9626,-102.284 501.7126,-88.9787 526.4778,-79.2155"/>
<polygon fill="#191970" stroke="#191970" points="527.806,-82.4541 535.8255,-75.5303 525.2387,-75.9419 527.806,-82.4541"/>
</g>
<!-- Node7 -->
<g id="node8" class="node">
<title>Node7</title>
<g id="a_node8"><a xlink:href="XrdClientVector_8hh.html" target="_top" xlink:title="XrdClient/XrdClientVector.hh">
<polygon fill="#ffffff" stroke="#000000" points="643.5,-56.5 643.5,-75.5 798.5,-75.5 798.5,-56.5 643.5,-56.5"/>
<text text-anchor="middle" x="721" y="-63.5" font-family="Helvetica,sans-Serif" font-size="10.00" fill="#000000">XrdClient/XrdClientVector.hh</text>
</a>
</g>
</g>
<!-- Node0&#45;&gt;Node7 -->
<g id="edge8" class="edge">
<title>Node0&#45;&gt;Node7</title>
<path fill="none" stroke="#191970" d="M470.8402,-114.5326C527.3255,-103.5741 607.474,-88.0248 661.707,-77.5032"/>
<polygon fill="#191970" stroke="#191970" points="662.7062,-80.8747 671.8566,-75.5341 661.373,-74.0028 662.7062,-80.8747"/>
</g>
<!-- Node2 -->
<g id="node3" class="node">
<title>Node2</title>
<polygon fill="#ffffff" stroke="#bfbfbf" points="0,-.5 0,-19.5 128,-19.5 128,-.5 0,-.5"/>
<text text-anchor="middle" x="64" y="-7.5" font-family="Helvetica,sans-Serif" font-size="10.00" fill="#000000">XProtocol/XProtocol.hh</text>
</g>
<!-- Node1&#45;&gt;Node2 -->
<g id="edge2" class="edge">
<title>Node1&#45;&gt;Node2</title>
<path fill="none" stroke="#191970" d="M166.6836,-56.3733C146.7784,-47.3838 116.8564,-33.8706 94.44,-23.7471"/>
<polygon fill="#191970" stroke="#191970" points="95.5925,-20.4272 85.0382,-19.5011 92.7113,-26.8068 95.5925,-20.4272"/>
</g>
<!-- Node1&#45;&gt;Node3 -->
<g id="edge3" class="edge">
<title>Node1&#45;&gt;Node3</title>
<path fill="none" stroke="#191970" d="M208.2849,-56.3733C227.1421,-47.4241 255.446,-33.9917 276.7455,-23.8835"/>
<polygon fill="#191970" stroke="#191970" points="278.4461,-26.9506 285.9798,-19.5011 275.4449,-20.6266 278.4461,-26.9506"/>
</g>
<!-- Node4 -->
<g id="node5" class="node">
<title>Node4</title>
<polygon fill="#ffffff" stroke="#bfbfbf" points="146,-.5 146,-19.5 218,-19.5 218,-.5 146,-.5"/>
<text text-anchor="middle" x="182" y="-7.5" font-family="Helvetica,sans-Serif" font-size="10.00" fill="#000000">netinet/in.h</text>
</g>
<!-- Node1&#45;&gt;Node4 -->
<g id="edge4" class="edge">
<title>Node1&#45;&gt;Node4</title>
<path fill="none" stroke="#191970" d="M186.9549,-56.2455C186.172,-48.9382 185.0744,-38.6944 184.1112,-29.7046"/>
<polygon fill="#191970" stroke="#191970" points="187.5786,-29.2129 183.0331,-19.6427 180.6185,-29.9587 187.5786,-29.2129"/>
</g>
<!-- Node8 -->
<g id="node9" class="node">
<title>Node8</title>
<polygon fill="#ffffff" stroke="#bfbfbf" points="623.5,-.5 623.5,-19.5 676.5,-19.5 676.5,-.5 623.5,-.5"/>
<text text-anchor="middle" x="650" y="-7.5" font-family="Helvetica,sans-Serif" font-size="10.00" fill="#000000">stdlib.h</text>
</g>
<!-- Node7&#45;&gt;Node8 -->
<g id="edge9" class="edge">
<title>Node7&#45;&gt;Node8</title>
<path fill="none" stroke="#191970" d="M708.6327,-56.2455C698.0446,-47.8943 682.5936,-35.7076 670.2107,-25.9408"/>
<polygon fill="#191970" stroke="#191970" points="672.2447,-23.0875 662.2255,-19.6427 667.9097,-28.5837 672.2447,-23.0875"/>
</g>
<!-- Node9 -->
<g id="node10" class="node">
<title>Node9</title>
<polygon fill="#ffffff" stroke="#bfbfbf" points="694.5,-.5 694.5,-19.5 747.5,-19.5 747.5,-.5 694.5,-.5"/>
<text text-anchor="middle" x="721" y="-7.5" font-family="Helvetica,sans-Serif" font-size="10.00" fill="#000000">string.h</text>
</g>
<!-- Node7&#45;&gt;Node9 -->
<g id="edge10" class="edge">
<title>Node7&#45;&gt;Node9</title>
<path fill="none" stroke="#191970" d="M721,-56.2455C721,-48.9382 721,-38.6944 721,-29.7046"/>
<polygon fill="#191970" stroke="#191970" points="724.5001,-29.6426 721,-19.6427 717.5001,-29.6427 724.5001,-29.6426"/>
</g>
<!-- Node10 -->
<g id="node11" class="node">
<title>Node10</title>
<polygon fill="#ffffff" stroke="#bfbfbf" points="765.5,-.5 765.5,-19.5 908.5,-19.5 908.5,-.5 765.5,-.5"/>
<text text-anchor="middle" x="837" y="-7.5" font-family="Helvetica,sans-Serif" font-size="10.00" fill="#000000">XrdSys/XrdSysHeaders.hh</text>
</g>
<!-- Node7&#45;&gt;Node10 -->
<g id="edge11" class="edge">
<title>Node7&#45;&gt;Node10</title>
<path fill="none" stroke="#191970" d="M740.9411,-56.3733C759.4786,-47.4241 787.3028,-33.9917 808.2413,-23.8835"/>
<polygon fill="#191970" stroke="#191970" points="809.8352,-27.0006 817.3191,-19.5011 806.7919,-20.6967 809.8352,-27.0006"/>
</g>
</g>
</svg>
