<?xml version="1.0" encoding="UTF-8" standalone="no"?>
<!DOCTYPE svg PUBLIC "-//W3C//DTD SVG 1.1//EN"
 "http://www.w3.org/Graphics/SVG/1.1/DTD/svg11.dtd">
<!-- Generated by graphviz version 2.40.1 (0)
 -->
<!-- Title: proof/proofd/src/XrdProofPhyConn.cxx Pages: 1 -->
<!--zoomable 330 -->
<svg id="main" version="1.1" xmlns="http://www.w3.org/2000/svg" xmlns:xlink="http://www.w3.org/1999/xlink" xml:space="preserve" onload="init(evt)">
<style type="text/css"><![CDATA[
.edge:hover path { stroke: red; }
.edge:hover polygon { stroke: red; fill: red; }
]]></style>
<script type="text/javascript"><![CDATA[
var edges = document.getElementsByTagName('g');
if (edges && edges.length) {
  for (var i=0;i<edges.length;i++) {
    if (edges[i].id.substr(0,4)=='edge') {
      edges[i].setAttribute('class','edge');
    }
  }
}
]]></script>
        <defs>
                <circle id="rim" cx="0" cy="0" r="7"/>
                <circle id="rim2" cx="0" cy="0" r="3.5"/>
                <g id="zoomPlus">
                        <use xlink:href="#rim" fill="#404040">
                                <set attributeName="fill" to="#808080" begin="zoomplus.mouseover" end="zoomplus.mouseout"/>
                        </use>
                        <path d="M-4,0h8M0,-4v8" fill="none" stroke="white" stroke-width="1.5" pointer-events="none"/>
                </g>
                <g id="zoomMin">
                        <use xlink:href="#rim" fill="#404040">
                                <set attributeName="fill" to="#808080" begin="zoomminus.mouseover" end="zoomminus.mouseout"/>
                        </use>
                        <path d="M-4,0h8" fill="none" stroke="white" stroke-width="1.5" pointer-events="none"/>
                </g>
                <g id="dirArrow">
                        <path fill="none" stroke="white" stroke-width="1.5" d="M0,-3.0v7 M-2.5,-0.5L0,-3.0L2.5,-0.5"/>
                </g>
               <g id="resetDef">
                       <use xlink:href="#rim2" fill="#404040">
                               <set attributeName="fill" to="#808080" begin="reset.mouseover" end="reset.mouseout"/>
                       </use>
               </g>
        </defs>

<script type="text/javascript">
var viewWidth = 2350;
var viewHeight = 330;
var sectionId = 'dynsection-0';
</script>
<script xlink:href="svgpan.js"/>
<svg id="graph" class="graph">
<g id="viewport">
<title>proof/proofd/src/XrdProofPhyConn.cxx</title>
<polygon fill="#ffffff" stroke="transparent" points="-4,4 -4,-326 2345.5,-326 2345.5,4 -4,4"/>
<!-- Node0 -->
<g id="node1" class="node">
<title>Node0</title>
<polygon fill="#bfbfbf" stroke="#000000" points="1449.5,-291.5 1449.5,-321.5 1588.5,-321.5 1588.5,-291.5 1449.5,-291.5"/>
<text text-anchor="start" x="1457.5" y="-309.5" font-family="Helvetica,sans-Serif" font-size="10.00" fill="#000000">proof/proofd/src/XrdProof</text>
<text text-anchor="middle" x="1519" y="-298.5" font-family="Helvetica,sans-Serif" font-size="10.00" fill="#000000">PhyConn.cxx</text>
</g>
<!-- Node1 -->
<g id="node2" class="node">
<title>Node1</title>
<g id="a_node2"><a xlink:href="XrdProofPhyConn_8h.html" target="_top" xlink:title="XrdProofPhyConn.h">
<polygon fill="#ffffff" stroke="#000000" points="258,-235.5 258,-254.5 368,-254.5 368,-235.5 258,-235.5"/>
<text text-anchor="middle" x="313" y="-242.5" font-family="Helvetica,sans-Serif" font-size="10.00" fill="#000000">XrdProofPhyConn.h</text>
</a>
</g>
</g>
<!-- Node0&#45;&gt;Node1 -->
<g id="edge1" class="edge">
<title>Node0&#45;&gt;Node1</title>
<path fill="none" stroke="#191970" d="M1449.3641,-304.8486C1273.6631,-300.3425 798.1808,-286.0401 403,-255 394.9774,-254.3699 386.5649,-253.5919 378.239,-252.7504"/>
<polygon fill="#191970" stroke="#191970" points="378.4677,-249.2554 368.1584,-251.6982 377.7409,-256.2176 378.4677,-249.2554"/>
</g>
<!-- Node12 -->
<g id="node13" class="node">
<title>Node12</title>
<g id="a_node13"><a xlink:href="XpdSysDNS_8h.html" target="_top" xlink:title="XpdSysDNS.h">
<polygon fill="#ffffff" stroke="#000000" points="412.5,-235.5 412.5,-254.5 495.5,-254.5 495.5,-235.5 412.5,-235.5"/>
<text text-anchor="middle" x="454" y="-242.5" font-family="Helvetica,sans-Serif" font-size="10.00" fill="#000000">XpdSysDNS.h</text>
</a>
</g>
</g>
<!-- Node0&#45;&gt;Node12 -->
<g id="edge13" class="edge">
<title>Node0&#45;&gt;Node12</title>
<path fill="none" stroke="#191970" d="M1449.3198,-304.7591C1287.5636,-300.3057 874.144,-286.5519 530,-255 522.1727,-254.2824 513.9117,-253.3636 505.8339,-252.3747"/>
<polygon fill="#191970" stroke="#191970" points="506.1074,-248.8814 495.7463,-251.0944 505.226,-255.8257 506.1074,-248.8814"/>
</g>
<!-- Node14 -->
<g id="node15" class="node">
<title>Node14</title>
<polygon fill="#ffffff" stroke="#bfbfbf" points="1409,-235.5 1409,-254.5 1493,-254.5 1493,-235.5 1409,-235.5"/>
<text text-anchor="middle" x="1451" y="-242.5" font-family="Helvetica,sans-Serif" font-size="10.00" fill="#000000">XrdVersion.hh</text>
</g>
<!-- Node0&#45;&gt;Node14 -->
<g id="edge16" class="edge">
<title>Node0&#45;&gt;Node14</title>
<path fill="none" stroke="#191970" d="M1502.191,-291.2977C1492.2603,-282.3163 1479.6743,-270.9334 1469.4673,-261.702"/>
<polygon fill="#191970" stroke="#191970" points="1471.652,-258.9588 1461.8877,-254.8469 1466.9566,-264.1505 1471.652,-258.9588"/>
</g>
<!-- Node15 -->
<g id="node16" class="node">
<title>Node15</title>
<g id="a_node16"><a xlink:href="XrdClientEnv_8hh.html" target="_top" xlink:title="XrdClient/XrdClientEnv.hh">
<polygon fill="#ffffff" stroke="#000000" points="696,-56.5 696,-75.5 838,-75.5 838,-56.5 696,-56.5"/>
<text text-anchor="middle" x="767" y="-63.5" font-family="Helvetica,sans-Serif" font-size="10.00" fill="#000000">XrdClient/XrdClientEnv.hh</text>
</a>
</g>
</g>
<!-- Node0&#45;&gt;Node15 -->
<g id="edge17" class="edge">
<title>Node0&#45;&gt;Node15</title>
<path fill="none" stroke="#191970" d="M1449.4648,-302.1745C1267.9496,-290.1531 790.7923,-253.5922 747,-199 720.4542,-165.9076 741.6624,-112.7959 756.212,-84.7495"/>
<polygon fill="#191970" stroke="#191970" points="759.4665,-86.0911 761.1703,-75.6341 753.3173,-82.7462 759.4665,-86.0911"/>
</g>
<!-- Node19 -->
<g id="node20" class="node">
<title>Node19</title>
<g id="a_node20"><a xlink:href="XrdClientConnMgr_8hh.html" target="_top" xlink:title="XrdClient/XrdClientConnMgr.hh">
<polygon fill="#ffffff" stroke="#000000" points="1008.5,-235.5 1008.5,-254.5 1175.5,-254.5 1175.5,-235.5 1008.5,-235.5"/>
<text text-anchor="middle" x="1092" y="-242.5" font-family="Helvetica,sans-Serif" font-size="10.00" fill="#000000">XrdClient/XrdClientConnMgr.hh</text>
</a>
</g>
</g>
<!-- Node0&#45;&gt;Node19 -->
<g id="edge21" class="edge">
<title>Node0&#45;&gt;Node19</title>
<path fill="none" stroke="#191970" d="M1449.4447,-296.4821C1372.1651,-285.3516 1247.7877,-267.4378 1168.0002,-255.9462"/>
<polygon fill="#191970" stroke="#191970" points="1168.4115,-252.4694 1158.0146,-254.508 1167.4135,-259.3979 1168.4115,-252.4694"/>
</g>
<!-- Node23 -->
<g id="node24" class="node">
<title>Node23</title>
<g id="a_node24"><a xlink:href="XrdClientMessage_8hh.html" target="_top" xlink:title="XrdClient/XrdClientMessage.hh">
<polygon fill="#ffffff" stroke="#000000" points="510.5,-56.5 510.5,-75.5 677.5,-75.5 677.5,-56.5 510.5,-56.5"/>
<text text-anchor="middle" x="594" y="-63.5" font-family="Helvetica,sans-Serif" font-size="10.00" fill="#000000">XrdClient/XrdClientMessage.hh</text>
</a>
</g>
</g>
<!-- Node0&#45;&gt;Node23 -->
<g id="edge51" class="edge">
<title>Node0&#45;&gt;Node23</title>
<path fill="none" stroke="#191970" d="M1449.2727,-303.3137C1301.1066,-296.1935 959.1446,-277.8104 845,-255 688.986,-223.8226 598.2545,-271.903 505,-143 496.9243,-131.8371 497.8352,-123.7683 505,-112 514.3,-96.7246 530.4866,-86.2991 546.5276,-79.2919"/>
<polygon fill="#191970" stroke="#191970" points="547.9122,-82.5078 555.9024,-75.5503 545.3174,-76.0065 547.9122,-82.5078"/>
</g>
<!-- Node31 -->
<g id="node32" class="node">
<title>Node31</title>
<g id="a_node32"><a xlink:href="XrdClientConst_8hh.html" target="_top" xlink:title="XrdClient/XrdClientConst.hh">
<polygon fill="#ffffff" stroke="#000000" points="1511,-235.5 1511,-254.5 1663,-254.5 1663,-235.5 1511,-235.5"/>
<text text-anchor="middle" x="1587" y="-242.5" font-family="Helvetica,sans-Serif" font-size="10.00" fill="#000000">XrdClient/XrdClientConst.hh</text>
</a>
</g>
</g>
<!-- Node0&#45;&gt;Node31 -->
<g id="edge47" class="edge">
<title>Node0&#45;&gt;Node31</title>
<path fill="none" stroke="#191970" d="M1535.809,-291.2977C1545.7397,-282.3163 1558.3257,-270.9334 1568.5327,-261.702"/>
<polygon fill="#191970" stroke="#191970" points="1571.0434,-264.1505 1576.1123,-254.8469 1566.348,-258.9588 1571.0434,-264.1505"/>
</g>
<!-- Node32 -->
<g id="node33" class="node">
<title>Node32</title>
<g id="a_node33"><a xlink:href="XrdClientLogConnection_8hh.html" target="_top" xlink:title="XrdClient/XrdClientLogConnection.hh">
<polygon fill="#ffffff" stroke="#000000" points="1193.5,-235.5 1193.5,-254.5 1390.5,-254.5 1390.5,-235.5 1193.5,-235.5"/>
<text text-anchor="middle" x="1292" y="-242.5" font-family="Helvetica,sans-Serif" font-size="10.00" fill="#000000">XrdClient/XrdClientLogConnection.hh</text>
</a>
</g>
</g>
<!-- Node0&#45;&gt;Node32 -->
<g id="edge48" class="edge">
<title>Node0&#45;&gt;Node32</title>
<path fill="none" stroke="#191970" d="M1463.4696,-291.4554C1424.5973,-280.9239 1373.3243,-267.0328 1337.0024,-257.1923"/>
<polygon fill="#191970" stroke="#191970" points="1337.7443,-253.7672 1327.1769,-254.5303 1335.9137,-260.5236 1337.7443,-253.7672"/>
</g>
<!-- Node34 -->
<g id="node35" class="node">
<title>Node34</title>
<polygon fill="#ffffff" stroke="#bfbfbf" points="1681,-235.5 1681,-254.5 1827,-254.5 1827,-235.5 1681,-235.5"/>
<text text-anchor="middle" x="1754" y="-242.5" font-family="Helvetica,sans-Serif" font-size="10.00" fill="#000000">XrdSec/XrdSecInterface.hh</text>
</g>
<!-- Node0&#45;&gt;Node34 -->
<g id="edge52" class="edge">
<title>Node0&#45;&gt;Node34</title>
<path fill="none" stroke="#191970" d="M1576.4875,-291.4554C1616.9017,-280.8789 1670.2636,-266.914 1707.8929,-257.0663"/>
<polygon fill="#191970" stroke="#191970" points="1708.7953,-260.4481 1717.5833,-254.5303 1707.023,-253.6762 1708.7953,-260.4481"/>
</g>
<!-- Node35 -->
<g id="node36" class="node">
<title>Node35</title>
<polygon fill="#ffffff" stroke="#bfbfbf" points="1845.5,-235.5 1845.5,-254.5 1922.5,-254.5 1922.5,-235.5 1845.5,-235.5"/>
<text text-anchor="middle" x="1884" y="-242.5" font-family="Helvetica,sans-Serif" font-size="10.00" fill="#000000">sys/socket.h</text>
</g>
<!-- Node0&#45;&gt;Node35 -->
<g id="edge53" class="edge">
<title>Node0&#45;&gt;Node35</title>
<path fill="none" stroke="#191970" d="M1588.7243,-296.082C1650.7945,-286.5996 1744.3051,-271.8059 1835.3192,-255.0631"/>
<polygon fill="#191970" stroke="#191970" points="1836.0597,-258.4856 1845.2565,-253.2253 1834.7867,-251.6023 1836.0597,-258.4856"/>
</g>
<!-- Node36 -->
<g id="node37" class="node">
<title>Node36</title>
<polygon fill="#ffffff" stroke="#bfbfbf" points="1941,-235.5 1941,-254.5 2013,-254.5 2013,-235.5 1941,-235.5"/>
<text text-anchor="middle" x="1977" y="-242.5" font-family="Helvetica,sans-Serif" font-size="10.00" fill="#000000">sys/types.h</text>
</g>
<!-- Node0&#45;&gt;Node36 -->
<g id="edge54" class="edge">
<title>Node0&#45;&gt;Node36</title>
<path fill="none" stroke="#191970" d="M1588.5316,-299.7321C1670.6637,-291.2939 1811.2724,-275.4544 1931,-255 1931.1007,-254.9828 1931.2015,-254.9655 1931.3024,-254.9482"/>
<polygon fill="#191970" stroke="#191970" points="1931.7063,-258.4331 1940.9003,-253.1681 1930.4297,-251.5504 1931.7063,-258.4331"/>
</g>
<!-- Node37 -->
<g id="node38" class="node">
<title>Node37</title>
<polygon fill="#ffffff" stroke="#bfbfbf" points="2031.5,-235.5 2031.5,-254.5 2084.5,-254.5 2084.5,-235.5 2031.5,-235.5"/>
<text text-anchor="middle" x="2058" y="-242.5" font-family="Helvetica,sans-Serif" font-size="10.00" fill="#000000">netdb.h</text>
</g>
<!-- Node0&#45;&gt;Node37 -->
<g id="edge55" class="edge">
<title>Node0&#45;&gt;Node37</title>
<path fill="none" stroke="#191970" d="M1588.6921,-303.0917C1684.2814,-297.591 1861.4331,-284.4434 2021.36,-254.8165"/>
<polygon fill="#191970" stroke="#191970" points="2022.1999,-258.22 2031.3817,-252.9338 2020.9074,-251.3404 2022.1999,-258.22"/>
</g>
<!-- Node38 -->
<g id="node39" class="node">
<title>Node38</title>
<polygon fill="#ffffff" stroke="#bfbfbf" points="2103,-235.5 2103,-254.5 2149,-254.5 2149,-235.5 2103,-235.5"/>
<text text-anchor="middle" x="2126" y="-242.5" font-family="Helvetica,sans-Serif" font-size="10.00" fill="#000000">pwd.h</text>
</g>
<!-- Node0&#45;&gt;Node38 -->
<g id="edge56" class="edge">
<title>Node0&#45;&gt;Node38</title>
<path fill="none" stroke="#191970" d="M1588.5583,-304.8421C1695.2692,-301.2917 1905.6989,-290.309 2092.6984,-254.6399"/>
<polygon fill="#191970" stroke="#191970" points="2093.5603,-258.0382 2102.7129,-252.7015 2092.23,-251.1657 2093.5603,-258.0382"/>
</g>
<!-- Node39 -->
<g id="node40" class="node">
<title>Node39</title>
<g id="a_node40"><a xlink:href="XrdProofdTrace_8h.html" target="_top" xlink:title="XrdProofdTrace.h">
<polygon fill="#ffffff" stroke="#000000" points="2167.5,-235.5 2167.5,-254.5 2266.5,-254.5 2266.5,-235.5 2167.5,-235.5"/>
<text text-anchor="middle" x="2217" y="-242.5" font-family="Helvetica,sans-Serif" font-size="10.00" fill="#000000">XrdProofdTrace.h</text>
</a>
</g>
</g>
<!-- Node0&#45;&gt;Node39 -->
<g id="edge57" class="edge">
<title>Node0&#45;&gt;Node39</title>
<path fill="none" stroke="#191970" d="M1588.7022,-302.8838C1704.5288,-296.4342 1944.1153,-281.2248 2157.3389,-254.9761"/>
<polygon fill="#191970" stroke="#191970" points="2157.9795,-258.4235 2167.4719,-253.7178 2157.1168,-251.4768 2157.9795,-258.4235"/>
</g>
<!-- Node2 -->
<g id="node3" class="node">
<title>Node2</title>
<g id="a_node3"><a xlink:href="XrdProofConn_8h.html" target="_top" xlink:title="XrdProofConn.h">
<polygon fill="#ffffff" stroke="#000000" points="184,-179.5 184,-198.5 276,-198.5 276,-179.5 184,-179.5"/>
<text text-anchor="middle" x="230" y="-186.5" font-family="Helvetica,sans-Serif" font-size="10.00" fill="#000000">XrdProofConn.h</text>
</a>
</g>
</g>
<!-- Node1&#45;&gt;Node2 -->
<g id="edge2" class="edge">
<title>Node1&#45;&gt;Node2</title>
<path fill="none" stroke="#191970" d="M298.5425,-235.2455C285.9268,-226.7337 267.4056,-214.2375 252.7955,-204.3801"/>
<polygon fill="#191970" stroke="#191970" points="254.5391,-201.3343 244.2918,-198.6427 250.6239,-207.1371 254.5391,-201.3343"/>
</g>
<!-- Node3 -->
<g id="node4" class="node">
<title>Node3</title>
<g id="a_node4"><a xlink:href="XrdSysToOuc_8h.html" target="_top" xlink:title="XrdSysToOuc.h">
<polygon fill="#ffffff" stroke="#000000" points="128.5,-118 128.5,-137 217.5,-137 217.5,-118 128.5,-118"/>
<text text-anchor="middle" x="173" y="-125" font-family="Helvetica,sans-Serif" font-size="10.00" fill="#000000">XrdSysToOuc.h</text>
</a>
</g>
</g>
<!-- Node2&#45;&gt;Node3 -->
<g id="edge3" class="edge">
<title>Node2&#45;&gt;Node3</title>
<path fill="none" stroke="#191970" d="M221.0938,-179.3906C212.5272,-170.1478 199.3831,-155.966 188.9997,-144.7628"/>
<polygon fill="#191970" stroke="#191970" points="191.3965,-142.2 182.0318,-137.2449 186.2625,-146.9584 191.3965,-142.2"/>
</g>
<!-- Node5 -->
<g id="node6" class="node">
<title>Node5</title>
<g id="a_node6"><a xlink:href="XProofProtocol_8h.html" target="_top" xlink:title="XProofProtocol.h">
<polygon fill="#ffffff" stroke="#000000" points="88,-56.5 88,-75.5 186,-75.5 186,-56.5 88,-56.5"/>
<text text-anchor="middle" x="137" y="-63.5" font-family="Helvetica,sans-Serif" font-size="10.00" fill="#000000">XProofProtocol.h</text>
</a>
</g>
</g>
<!-- Node2&#45;&gt;Node5 -->
<g id="edge5" class="edge">
<title>Node2&#45;&gt;Node5</title>
<path fill="none" stroke="#191970" d="M183.9279,-182.2242C160.2886,-176.1573 133.4847,-164.6819 119,-143 107.27,-125.4416 116.1334,-101.1857 125.0785,-84.6189"/>
<polygon fill="#191970" stroke="#191970" points="128.1727,-86.2611 130.1995,-75.8619 122.13,-82.7274 128.1727,-86.2611"/>
</g>
<!-- Node7 -->
<g id="node8" class="node">
<title>Node7</title>
<g id="a_node8"><a xlink:href="XProofProtUtils_8h.html" target="_top" xlink:title="XProofProtUtils.h">
<polygon fill="#ffffff" stroke="#000000" points="236,-118 236,-137 336,-137 336,-118 236,-118"/>
<text text-anchor="middle" x="286" y="-125" font-family="Helvetica,sans-Serif" font-size="10.00" fill="#000000">XProofProtUtils.h</text>
</a>
</g>
</g>
<!-- Node2&#45;&gt;Node7 -->
<g id="edge7" class="edge">
<title>Node2&#45;&gt;Node7</title>
<path fill="none" stroke="#191970" d="M238.75,-179.3906C247.1662,-170.1478 260.0797,-155.966 270.281,-144.7628"/>
<polygon fill="#191970" stroke="#191970" points="272.9818,-146.9953 277.1266,-137.2449 267.806,-142.2824 272.9818,-146.9953"/>
</g>
<!-- Node8 -->
<g id="node9" class="node">
<title>Node8</title>
<g id="a_node9"><a xlink:href="XrdClientUnsolMsg_8hh.html" target="_top" xlink:title="XrdClient/XrdClientUnsol\lMsg.hh">
<polygon fill="#ffffff" stroke="#000000" points="1050.5,-112.5 1050.5,-142.5 1187.5,-142.5 1187.5,-112.5 1050.5,-112.5"/>
<text text-anchor="start" x="1058.5" y="-130.5" font-family="Helvetica,sans-Serif" font-size="10.00" fill="#000000">XrdClient/XrdClientUnsol</text>
<text text-anchor="middle" x="1119" y="-119.5" font-family="Helvetica,sans-Serif" font-size="10.00" fill="#000000">Msg.hh</text>
</a>
</g>
</g>
<!-- Node2&#45;&gt;Node8 -->
<g id="edge8" class="edge">
<title>Node2&#45;&gt;Node8</title>
<path fill="none" stroke="#191970" d="M276.1895,-185.853C306.5424,-183.8166 347.1287,-181.1535 383,-179 672.0722,-161.6459 748.7049,-179.23 1040.1676,-142.9801"/>
<polygon fill="#191970" stroke="#191970" points="1040.6961,-146.4414 1050.1827,-141.724 1039.8249,-139.4958 1040.6961,-146.4414"/>
</g>
<!-- Node9 -->
<g id="node10" class="node">
<title>Node9</title>
<g id="a_node10"><a xlink:href="XrdClientUrlInfo_8hh.html" target="_top" xlink:title="XrdClient/XrdClientUrlInfo.hh">
<polygon fill="#ffffff" stroke="#000000" points="334,-56.5 334,-75.5 492,-75.5 492,-56.5 334,-56.5"/>
<text text-anchor="middle" x="413" y="-63.5" font-family="Helvetica,sans-Serif" font-size="10.00" fill="#000000">XrdClient/XrdClientUrlInfo.hh</text>
</a>
</g>
</g>
<!-- Node2&#45;&gt;Node9 -->
<g id="edge9" class="edge">
<title>Node2&#45;&gt;Node9</title>
<path fill="none" stroke="#191970" d="M265.8362,-179.4234C289.6784,-171.9523 320.9204,-159.9715 345,-143 368.0009,-126.7887 388.4803,-101.3108 400.8091,-84.1471"/>
<polygon fill="#191970" stroke="#191970" points="403.935,-85.7833 406.7841,-75.5787 398.1932,-81.7793 403.935,-85.7833"/>
</g>
<!-- Node10 -->
<g id="node11" class="node">
<title>Node10</title>
<polygon fill="#ffffff" stroke="#bfbfbf" points="60,-.5 60,-19.5 194,-19.5 194,-.5 60,-.5"/>
<text text-anchor="middle" x="127" y="-7.5" font-family="Helvetica,sans-Serif" font-size="10.00" fill="#000000">XrdOuc/XrdOucString.hh</text>
</g>
<!-- Node2&#45;&gt;Node10 -->
<g id="edge11" class="edge">
<title>Node2&#45;&gt;Node10</title>
<path fill="none" stroke="#191970" d="M183.8955,-180.1536C159.4608,-173.4599 130.3731,-162.0462 110,-143 80.0146,-114.9676 62.8891,-93.7542 79,-56 84.1156,-44.0122 94.0575,-33.6498 103.5727,-25.8114"/>
<polygon fill="#191970" stroke="#191970" points="105.8797,-28.4532 111.6926,-19.5954 101.6246,-22.8949 105.8797,-28.4532"/>
</g>
<!-- Node11 -->
<g id="node12" class="node">
<title>Node11</title>
<polygon fill="#ffffff" stroke="#bfbfbf" points="0,-118 0,-137 32,-137 32,-118 0,-118"/>
<text text-anchor="middle" x="16" y="-125" font-family="Helvetica,sans-Serif" font-size="10.00" fill="#000000">list</text>
</g>
<!-- Node2&#45;&gt;Node11 -->
<g id="edge12" class="edge">
<title>Node2&#45;&gt;Node11</title>
<path fill="none" stroke="#191970" d="M183.7306,-180.5358C145.967,-172.8954 91.5928,-160.21 46,-143 44.5603,-142.4565 43.1004,-141.8616 41.6396,-141.2313"/>
<polygon fill="#191970" stroke="#191970" points="42.7241,-137.8713 32.1905,-136.7336 39.7155,-144.1918 42.7241,-137.8713"/>
</g>
<!-- Node4 -->
<g id="node5" class="node">
<title>Node4</title>
<g id="a_node5"><a xlink:href="XrdProofdXrdVers_8h.html" target="_top" xlink:title="XrdProofdXrdVers.h">
<polygon fill="#ffffff" stroke="#000000" points="204.5,-56.5 204.5,-75.5 315.5,-75.5 315.5,-56.5 204.5,-56.5"/>
<text text-anchor="middle" x="260" y="-63.5" font-family="Helvetica,sans-Serif" font-size="10.00" fill="#000000">XrdProofdXrdVers.h</text>
</a>
</g>
</g>
<!-- Node3&#45;&gt;Node4 -->
<g id="edge4" class="edge">
<title>Node3&#45;&gt;Node4</title>
<path fill="none" stroke="#191970" d="M186.5938,-117.8906C200.3843,-108.1421 221.9472,-92.8994 238.141,-81.4521"/>
<polygon fill="#191970" stroke="#191970" points="240.3563,-84.1723 246.5017,-75.5419 236.3156,-78.4563 240.3563,-84.1723"/>
</g>
<!-- Node6 -->
<g id="node7" class="node">
<title>Node6</title>
<polygon fill="#ffffff" stroke="#bfbfbf" points="345,-.5 345,-19.5 473,-19.5 473,-.5 345,-.5"/>
<text text-anchor="middle" x="409" y="-7.5" font-family="Helvetica,sans-Serif" font-size="10.00" fill="#000000">XProtocol/XProtocol.hh</text>
</g>
<!-- Node5&#45;&gt;Node6 -->
<g id="edge6" class="edge">
<title>Node5&#45;&gt;Node6</title>
<path fill="none" stroke="#191970" d="M183.4494,-56.4369C230.2935,-46.7925 302.6539,-31.8948 352.7262,-21.5858"/>
<polygon fill="#191970" stroke="#191970" points="353.6534,-24.9684 362.7422,-19.5237 352.2418,-18.1122 353.6534,-24.9684"/>
</g>
<!-- Node9&#45;&gt;Node10 -->
<g id="edge10" class="edge">
<title>Node9&#45;&gt;Node10</title>
<path fill="none" stroke="#191970" d="M364.1598,-56.4369C314.699,-46.7522 238.184,-31.7703 185.512,-21.4569"/>
<polygon fill="#191970" stroke="#191970" points="186.125,-18.0105 175.6387,-19.5237 184.7798,-24.8801 186.125,-18.0105"/>
</g>
<!-- Node12&#45;&gt;Node4 -->
<g id="edge14" class="edge">
<title>Node12&#45;&gt;Node4</title>
<path fill="none" stroke="#191970" d="M432.6566,-235.3835C417.1534,-227.4885 396.5923,-215.0116 383,-199 355.6935,-166.8332 373.553,-143.0656 345,-112 331.9962,-97.852 313.6162,-87.1565 297.2726,-79.6559"/>
<polygon fill="#191970" stroke="#191970" points="298.5079,-76.3767 287.941,-75.6069 295.7215,-82.7983 298.5079,-76.3767"/>
</g>
<!-- Node13 -->
<g id="node14" class="node">
<title>Node13</title>
<polygon fill="#ffffff" stroke="#bfbfbf" points="392.5,-179.5 392.5,-198.5 515.5,-198.5 515.5,-179.5 392.5,-179.5"/>
<text text-anchor="middle" x="454" y="-186.5" font-family="Helvetica,sans-Serif" font-size="10.00" fill="#000000">XrdNet/XrdNetDNS.hh</text>
</g>
<!-- Node12&#45;&gt;Node13 -->
<g id="edge15" class="edge">
<title>Node12&#45;&gt;Node13</title>
<path fill="none" stroke="#191970" d="M454,-235.2455C454,-227.9382 454,-217.6944 454,-208.7046"/>
<polygon fill="#191970" stroke="#191970" points="457.5001,-208.6426 454,-198.6427 450.5001,-208.6427 457.5001,-208.6426"/>
</g>
<!-- Node16 -->
<g id="node17" class="node">
<title>Node16</title>
<polygon fill="#ffffff" stroke="#bfbfbf" points="681,-.5 681,-19.5 803,-19.5 803,-.5 681,-.5"/>
<text text-anchor="middle" x="742" y="-7.5" font-family="Helvetica,sans-Serif" font-size="10.00" fill="#000000">XrdOuc/XrdOucEnv.hh</text>
</g>
<!-- Node15&#45;&gt;Node16 -->
<g id="edge18" class="edge">
<title>Node15&#45;&gt;Node16</title>
<path fill="none" stroke="#191970" d="M762.6453,-56.2455C759.2756,-48.6973 754.507,-38.0158 750.4017,-28.8197"/>
<polygon fill="#191970" stroke="#191970" points="753.5773,-27.3473 746.3048,-19.6427 747.1853,-30.2009 753.5773,-27.3473"/>
</g>
<!-- Node17 -->
<g id="node18" class="node">
<title>Node17</title>
<polygon fill="#ffffff" stroke="#bfbfbf" points="821,-.5 821,-19.5 961,-19.5 961,-.5 821,-.5"/>
<text text-anchor="middle" x="891" y="-7.5" font-family="Helvetica,sans-Serif" font-size="10.00" fill="#000000">XrdSys/XrdSysPthread.hh</text>
</g>
<!-- Node15&#45;&gt;Node17 -->
<g id="edge19" class="edge">
<title>Node15&#45;&gt;Node17</title>
<path fill="none" stroke="#191970" d="M788.3164,-56.3733C808.2216,-47.3838 838.1436,-33.8706 860.56,-23.7471"/>
<polygon fill="#191970" stroke="#191970" points="862.2887,-26.8068 869.9618,-19.5011 859.4075,-20.4272 862.2887,-26.8068"/>
</g>
<!-- Node18 -->
<g id="node19" class="node">
<title>Node18</title>
<polygon fill="#ffffff" stroke="#bfbfbf" points="1133.5,-.5 1133.5,-19.5 1186.5,-19.5 1186.5,-.5 1133.5,-.5"/>
<text text-anchor="middle" x="1160" y="-7.5" font-family="Helvetica,sans-Serif" font-size="10.00" fill="#000000">string.h</text>
</g>
<!-- Node15&#45;&gt;Node18 -->
<g id="edge20" class="edge">
<title>Node15&#45;&gt;Node18</title>
<path fill="none" stroke="#191970" d="M834.1126,-56.4369C917.5593,-44.5463 1057.0469,-24.6702 1123.1302,-15.2537"/>
<polygon fill="#191970" stroke="#191970" points="1123.6798,-18.7108 1133.086,-13.8351 1122.6923,-11.7808 1123.6798,-18.7108"/>
</g>
<!-- Node19&#45;&gt;Node8 -->
<g id="edge24" class="edge">
<title>Node19&#45;&gt;Node8</title>
<path fill="none" stroke="#191970" d="M1094.2095,-235.3845C1098.3273,-217.4644 1107.2952,-178.4375 1113.2397,-152.5681"/>
<polygon fill="#191970" stroke="#191970" points="1116.6755,-153.2442 1115.5039,-142.7143 1109.8533,-151.6765 1116.6755,-153.2442"/>
</g>
<!-- Node19&#45;&gt;Node17 -->
<g id="edge23" class="edge">
<title>Node19&#45;&gt;Node17</title>
<path fill="none" stroke="#191970" d="M1118.7449,-235.4002C1137.3032,-227.7278 1161.7006,-215.5192 1179,-199 1228.364,-151.8623 1279.9516,-107.3627 1235,-56 1217.8732,-36.4305 1067.4006,-22.3354 971.2218,-15.2309"/>
<polygon fill="#191970" stroke="#191970" points="971.4508,-11.7384 961.223,-14.503 970.9425,-18.72 971.4508,-11.7384"/>
</g>
<!-- Node20 -->
<g id="node21" class="node">
<title>Node20</title>
<polygon fill="#ffffff" stroke="#bfbfbf" points="1096,-56.5 1096,-75.5 1226,-75.5 1226,-56.5 1096,-56.5"/>
<text text-anchor="middle" x="1161" y="-63.5" font-family="Helvetica,sans-Serif" font-size="10.00" fill="#000000">XrdOuc/XrdOucHash.hh</text>
</g>
<!-- Node19&#45;&gt;Node20 -->
<g id="edge22" class="edge">
<title>Node19&#45;&gt;Node20</title>
<path fill="none" stroke="#191970" d="M1108.176,-235.2575C1132.6368,-219.4582 1178.0817,-185.6715 1196,-143 1201.3343,-130.2967 1200.4021,-125.0556 1196,-112 1192.4305,-101.4138 1185.3465,-91.3356 1178.4798,-83.3256"/>
<polygon fill="#191970" stroke="#191970" points="1180.9019,-80.7886 1171.559,-75.7924 1175.747,-85.5244 1180.9019,-80.7886"/>
</g>
<!-- Node21 -->
<g id="node22" class="node">
<title>Node21</title>
<g id="a_node22"><a xlink:href="XrdClientPhyConnection_8hh.html" target="_top" xlink:title="XrdClient/XrdClientPhyConnection.hh">
<polygon fill="#ffffff" stroke="#000000" points="756.5,-179.5 756.5,-198.5 953.5,-198.5 953.5,-179.5 756.5,-179.5"/>
<text text-anchor="middle" x="855" y="-186.5" font-family="Helvetica,sans-Serif" font-size="10.00" fill="#000000">XrdClient/XrdClientPhyConnection.hh</text>
</a>
</g>
</g>
<!-- Node19&#45;&gt;Node21 -->
<g id="edge25" class="edge">
<title>Node19&#45;&gt;Node21</title>
<path fill="none" stroke="#191970" d="M1051.5275,-235.4369C1011.052,-225.8731 948.7133,-211.1432 905.1297,-200.845"/>
<polygon fill="#191970" stroke="#191970" points="905.8424,-197.4171 895.3055,-198.5237 904.2327,-204.2295 905.8424,-197.4171"/>
</g>
<!-- Node27 -->
<g id="node28" class="node">
<title>Node27</title>
<g id="a_node28"><a xlink:href="XrdClientVector_8hh.html" target="_top" xlink:title="XrdClient/XrdClientVector.hh">
<polygon fill="#ffffff" stroke="#000000" points="1282.5,-56.5 1282.5,-75.5 1437.5,-75.5 1437.5,-56.5 1282.5,-56.5"/>
<text text-anchor="middle" x="1360" y="-63.5" font-family="Helvetica,sans-Serif" font-size="10.00" fill="#000000">XrdClient/XrdClientVector.hh</text>
</a>
</g>
</g>
<!-- Node19&#45;&gt;Node27 -->
<g id="edge46" class="edge">
<title>Node19&#45;&gt;Node27</title>
<path fill="none" stroke="#191970" d="M1144.5002,-235.4665C1188.8201,-226.6682 1248.1414,-212.8986 1268,-199 1309.9971,-169.6072 1338.8855,-114.4898 1352.0016,-85.2918"/>
<polygon fill="#191970" stroke="#191970" points="1355.3489,-86.3701 1356.1153,-75.803 1348.9264,-83.5857 1355.3489,-86.3701"/>
</g>
<!-- Node21&#45;&gt;Node8 -->
<g id="edge32" class="edge">
<title>Node21&#45;&gt;Node8</title>
<path fill="none" stroke="#191970" d="M895.9603,-179.4581C935.5926,-170.2256 996.573,-156.0199 1044.7607,-144.7944"/>
<polygon fill="#191970" stroke="#191970" points="1045.5817,-148.1969 1054.5269,-142.5193 1043.9935,-141.3795 1045.5817,-148.1969"/>
</g>
<!-- Node21&#45;&gt;Node9 -->
<g id="edge42" class="edge">
<title>Node21&#45;&gt;Node9</title>
<path fill="none" stroke="#191970" d="M756.1216,-182.1905C668.7773,-175.0561 548.6991,-162.1895 505,-143 473.5783,-129.2018 444.4934,-101.2685 427.7535,-83.1111"/>
<polygon fill="#191970" stroke="#191970" points="430.2486,-80.651 420.9668,-75.5422 425.0369,-85.3241 430.2486,-80.651"/>
</g>
<!-- Node21&#45;&gt;Node17 -->
<g id="edge43" class="edge">
<title>Node21&#45;&gt;Node17</title>
<path fill="none" stroke="#191970" d="M856.9355,-179.3762C862.6247,-151.0883 879.3757,-67.7987 887.0628,-29.5767"/>
<polygon fill="#191970" stroke="#191970" points="890.5144,-30.1652 889.0549,-19.6714 883.6518,-28.785 890.5144,-30.1652"/>
</g>
<!-- Node22 -->
<g id="node23" class="node">
<title>Node22</title>
<g id="a_node23"><a xlink:href="XrdClientSock_8hh.html" target="_top" xlink:title="XrdClient/XrdClientSock.hh">
<polygon fill="#ffffff" stroke="#000000" points="514,-118 514,-137 662,-137 662,-118 514,-118"/>
<text text-anchor="middle" x="588" y="-125" font-family="Helvetica,sans-Serif" font-size="10.00" fill="#000000">XrdClient/XrdClientSock.hh</text>
</a>
</g>
</g>
<!-- Node21&#45;&gt;Node22 -->
<g id="edge26" class="edge">
<title>Node21&#45;&gt;Node22</title>
<path fill="none" stroke="#191970" d="M813.5742,-179.4581C766.6106,-168.6406 690.0067,-150.9959 639.3021,-139.3168"/>
<polygon fill="#191970" stroke="#191970" points="640.0535,-135.8983 629.523,-137.0643 638.4822,-142.7196 640.0535,-135.8983"/>
</g>
<!-- Node21&#45;&gt;Node23 -->
<g id="edge28" class="edge">
<title>Node21&#45;&gt;Node23</title>
<path fill="none" stroke="#191970" d="M834.5198,-179.3484C788.5885,-157.7026 677.1985,-105.2085 623.6766,-79.9855"/>
<polygon fill="#191970" stroke="#191970" points="624.923,-76.7038 614.3851,-75.6068 621.9389,-83.0358 624.923,-76.7038"/>
</g>
<!-- Node25 -->
<g id="node26" class="node">
<title>Node25</title>
<g id="a_node26"><a xlink:href="XrdClientInputBuffer_8hh.html" target="_top" xlink:title="XrdClient/XrdClientInput\lBuffer.hh">
<polygon fill="#ffffff" stroke="#000000" points="898,-112.5 898,-142.5 1032,-142.5 1032,-112.5 898,-112.5"/>
<text text-anchor="start" x="906" y="-130.5" font-family="Helvetica,sans-Serif" font-size="10.00" fill="#000000">XrdClient/XrdClientInput</text>
<text text-anchor="middle" x="965" y="-119.5" font-family="Helvetica,sans-Serif" font-size="10.00" fill="#000000">Buffer.hh</text>
</a>
</g>
</g>
<!-- Node21&#45;&gt;Node25 -->
<g id="edge33" class="edge">
<title>Node21&#45;&gt;Node25</title>
<path fill="none" stroke="#191970" d="M872.1875,-179.3906C887.4193,-170.8747 910.1503,-158.166 929.304,-147.4573"/>
<polygon fill="#191970" stroke="#191970" points="931.0705,-150.4796 938.091,-142.5446 927.6545,-144.3697 931.0705,-150.4796"/>
</g>
<!-- Node26 -->
<g id="node27" class="node">
<title>Node26</title>
<polygon fill="#ffffff" stroke="#bfbfbf" points="894,-56.5 894,-75.5 1040,-75.5 1040,-56.5 894,-56.5"/>
<text text-anchor="middle" x="967" y="-63.5" font-family="Helvetica,sans-Serif" font-size="10.00" fill="#000000">XrdSys/XrdSysSemWait.hh</text>
</g>
<!-- Node21&#45;&gt;Node26 -->
<g id="edge44" class="edge">
<title>Node21&#45;&gt;Node26</title>
<path fill="none" stroke="#191970" d="M829.115,-179.4647C813.2773,-172.1252 794.3206,-160.2779 785,-143 778.4587,-130.8741 776.535,-122.8707 785,-112 797.6518,-95.7526 842.161,-84.3368 883.9931,-76.9415"/>
<polygon fill="#191970" stroke="#191970" points="884.7142,-80.3692 893.9846,-75.24 883.5389,-73.4685 884.7142,-80.3692"/>
</g>
<!-- Node30 -->
<g id="node31" class="node">
<title>Node30</title>
<polygon fill="#ffffff" stroke="#bfbfbf" points="794,-118 794,-137 842,-137 842,-118 794,-118"/>
<text text-anchor="middle" x="818" y="-125" font-family="Helvetica,sans-Serif" font-size="10.00" fill="#000000">time.h</text>
</g>
<!-- Node21&#45;&gt;Node30 -->
<g id="edge45" class="edge">
<title>Node21&#45;&gt;Node30</title>
<path fill="none" stroke="#191970" d="M849.2188,-179.3906C843.874,-170.5068 835.7841,-157.0601 829.1789,-146.0811"/>
<polygon fill="#191970" stroke="#191970" points="832.0171,-144.0093 823.8628,-137.2449 826.0189,-147.618 832.0171,-144.0093"/>
</g>
<!-- Node22&#45;&gt;Node9 -->
<g id="edge27" class="edge">
<title>Node22&#45;&gt;Node9</title>
<path fill="none" stroke="#191970" d="M560.6563,-117.8906C530.8618,-107.42 483.0315,-90.6111 449.9192,-78.9745"/>
<polygon fill="#191970" stroke="#191970" points="450.7466,-75.5554 440.1517,-75.5419 448.4257,-82.1595 450.7466,-75.5554"/>
</g>
<!-- Node23&#45;&gt;Node6 -->
<g id="edge29" class="edge">
<title>Node23&#45;&gt;Node6</title>
<path fill="none" stroke="#191970" d="M562.1974,-56.3733C531.1683,-46.9807 483.8246,-32.6496 449.9853,-22.4064"/>
<polygon fill="#191970" stroke="#191970" points="450.9728,-19.0485 440.3876,-19.5011 448.9447,-25.7483 450.9728,-19.0485"/>
</g>
<!-- Node23&#45;&gt;Node17 -->
<g id="edge30" class="edge">
<title>Node23&#45;&gt;Node17</title>
<path fill="none" stroke="#191970" d="M644.7187,-56.4369C696.1886,-46.7321 775.8702,-31.708 830.5784,-21.3926"/>
<polygon fill="#191970" stroke="#191970" points="831.3122,-24.816 840.4905,-19.5237 830.0152,-17.9372 831.3122,-24.816"/>
</g>
<!-- Node24 -->
<g id="node25" class="node">
<title>Node24</title>
<polygon fill="#ffffff" stroke="#bfbfbf" points="558,-.5 558,-19.5 630,-19.5 630,-.5 558,-.5"/>
<text text-anchor="middle" x="594" y="-7.5" font-family="Helvetica,sans-Serif" font-size="10.00" fill="#000000">netinet/in.h</text>
</g>
<!-- Node23&#45;&gt;Node24 -->
<g id="edge31" class="edge">
<title>Node23&#45;&gt;Node24</title>
<path fill="none" stroke="#191970" d="M594,-56.2455C594,-48.9382 594,-38.6944 594,-29.7046"/>
<polygon fill="#191970" stroke="#191970" points="597.5001,-29.6426 594,-19.6427 590.5001,-29.6427 597.5001,-29.6426"/>
</g>
<!-- Node25&#45;&gt;Node17 -->
<g id="edge35" class="edge">
<title>Node25&#45;&gt;Node17</title>
<path fill="none" stroke="#191970" d="M1005.7327,-112.4307C1034.8609,-99.3007 1066.1265,-78.8238 1049,-56 1037.7848,-41.054 996.7774,-29.3716 959.3524,-21.5199"/>
<polygon fill="#191970" stroke="#191970" points="959.9252,-18.0649 949.429,-19.5072 958.5337,-24.9252 959.9252,-18.0649"/>
</g>
<!-- Node25&#45;&gt;Node20 -->
<g id="edge37" class="edge">
<title>Node25&#45;&gt;Node20</title>
<path fill="none" stroke="#191970" d="M1012.947,-112.4554C1046.0804,-102.059 1089.6483,-88.3884 1120.9308,-78.5727"/>
<polygon fill="#191970" stroke="#191970" points="1122.1335,-81.8637 1130.627,-75.5303 1120.0378,-75.1848 1122.1335,-81.8637"/>
</g>
<!-- Node25&#45;&gt;Node23 -->
<g id="edge34" class="edge">
<title>Node25&#45;&gt;Node23</title>
<path fill="none" stroke="#191970" d="M897.8147,-116.3628C830.8809,-105.2673 728.6747,-88.3248 661.5968,-77.2054"/>
<polygon fill="#191970" stroke="#191970" points="661.9915,-73.7231 651.5537,-75.5406 660.8467,-80.6289 661.9915,-73.7231"/>
</g>
<!-- Node25&#45;&gt;Node26 -->
<g id="edge36" class="edge">
<title>Node25&#45;&gt;Node26</title>
<path fill="none" stroke="#191970" d="M965.4944,-112.2977C965.7518,-104.3834 966.0698,-94.6043 966.3471,-86.0759"/>
<polygon fill="#191970" stroke="#191970" points="969.8528,-85.9554 966.6798,-75.8469 962.8565,-85.7279 969.8528,-85.9554"/>
</g>
<!-- Node25&#45;&gt;Node27 -->
<g id="edge38" class="edge">
<title>Node25&#45;&gt;Node27</title>
<path fill="none" stroke="#191970" d="M1032.0968,-113.5961C1035.1029,-113.0425 1038.0813,-112.5076 1041,-112 1120.1458,-98.2347 1210.8496,-85.4413 1275.2549,-76.8591"/>
<polygon fill="#191970" stroke="#191970" points="1275.9072,-80.3033 1285.36,-75.5183 1274.9865,-73.3641 1275.9072,-80.3033"/>
</g>
<!-- Node27&#45;&gt;Node18 -->
<g id="edge40" class="edge">
<title>Node27&#45;&gt;Node18</title>
<path fill="none" stroke="#191970" d="M1325.6188,-56.3733C1289.5819,-46.2829 1233.1896,-30.4931 1196.4103,-20.1949"/>
<polygon fill="#191970" stroke="#191970" points="1197.1633,-16.7712 1186.5899,-17.4452 1195.2759,-23.5119 1197.1633,-16.7712"/>
</g>
<!-- Node28 -->
<g id="node29" class="node">
<title>Node28</title>
<polygon fill="#ffffff" stroke="#bfbfbf" points="1275.5,-.5 1275.5,-19.5 1328.5,-19.5 1328.5,-.5 1275.5,-.5"/>
<text text-anchor="middle" x="1302" y="-7.5" font-family="Helvetica,sans-Serif" font-size="10.00" fill="#000000">stdlib.h</text>
</g>
<!-- Node27&#45;&gt;Node28 -->
<g id="edge39" class="edge">
<title>Node27&#45;&gt;Node28</title>
<path fill="none" stroke="#191970" d="M1349.8972,-56.2455C1341.4972,-48.1352 1329.3506,-36.4075 1319.3916,-26.7919"/>
<polygon fill="#191970" stroke="#191970" points="1321.6122,-24.0707 1311.9871,-19.6427 1316.75,-29.1066 1321.6122,-24.0707"/>
</g>
<!-- Node29 -->
<g id="node30" class="node">
<title>Node29</title>
<polygon fill="#ffffff" stroke="#bfbfbf" points="1346.5,-.5 1346.5,-19.5 1489.5,-19.5 1489.5,-.5 1346.5,-.5"/>
<text text-anchor="middle" x="1418" y="-7.5" font-family="Helvetica,sans-Serif" font-size="10.00" fill="#000000">XrdSys/XrdSysHeaders.hh</text>
</g>
<!-- Node27&#45;&gt;Node29 -->
<g id="edge41" class="edge">
<title>Node27&#45;&gt;Node29</title>
<path fill="none" stroke="#191970" d="M1370.1028,-56.2455C1378.5028,-48.1352 1390.6494,-36.4075 1400.6084,-26.7919"/>
<polygon fill="#191970" stroke="#191970" points="1403.25,-29.1066 1408.0129,-19.6427 1398.3878,-24.0707 1403.25,-29.1066"/>
</g>
<!-- Node32&#45;&gt;Node8 -->
<g id="edge50" class="edge">
<title>Node32&#45;&gt;Node8</title>
<path fill="none" stroke="#191970" d="M1277.8427,-235.3845C1249.9763,-216.4579 1187.4447,-173.987 1149.6833,-148.3398"/>
<polygon fill="#191970" stroke="#191970" points="1151.3486,-145.2399 1141.1097,-142.5167 1147.4156,-151.0306 1151.3486,-145.2399"/>
</g>
<!-- Node33 -->
<g id="node34" class="node">
<title>Node33</title>
<polygon fill="#ffffff" stroke="#bfbfbf" points="1358.5,-179.5 1358.5,-198.5 1479.5,-198.5 1479.5,-179.5 1358.5,-179.5"/>
<text text-anchor="middle" x="1419" y="-186.5" font-family="Helvetica,sans-Serif" font-size="10.00" fill="#000000">XProtocol/XPtypes.hh</text>
</g>
<!-- Node32&#45;&gt;Node33 -->
<g id="edge49" class="edge">
<title>Node32&#45;&gt;Node33</title>
<path fill="none" stroke="#191970" d="M1313.8321,-235.3733C1334.3103,-226.3435 1365.1399,-212.7494 1388.1319,-202.6111"/>
<polygon fill="#191970" stroke="#191970" points="1389.715,-205.7383 1397.4528,-198.5011 1386.8907,-199.3333 1389.715,-205.7383"/>
</g>
<!-- Node40 -->
<g id="node41" class="node">
<title>Node40</title>
<g id="a_node41"><a xlink:href="DllImport_8h.html" target="_top" xlink:title="DllImport.h">
<polygon fill="#ffffff" stroke="#000000" points="2121.5,-179.5 2121.5,-198.5 2192.5,-198.5 2192.5,-179.5 2121.5,-179.5"/>
<text text-anchor="middle" x="2157" y="-186.5" font-family="Helvetica,sans-Serif" font-size="10.00" fill="#000000">DllImport.h</text>
</a>
</g>
</g>
<!-- Node39&#45;&gt;Node40 -->
<g id="edge58" class="edge">
<title>Node39&#45;&gt;Node40</title>
<path fill="none" stroke="#191970" d="M2206.5488,-235.2455C2197.7731,-227.0549 2185.0446,-215.1749 2174.686,-205.5069"/>
<polygon fill="#191970" stroke="#191970" points="2177.0301,-202.9072 2167.3314,-198.6427 2172.2539,-208.0246 2177.0301,-202.9072"/>
</g>
<!-- Node41 -->
<g id="node42" class="node">
<title>Node41</title>
<polygon fill="#ffffff" stroke="#bfbfbf" points="2210.5,-179.5 2210.5,-198.5 2341.5,-198.5 2341.5,-179.5 2210.5,-179.5"/>
<text text-anchor="middle" x="2276" y="-186.5" font-family="Helvetica,sans-Serif" font-size="10.00" fill="#000000">XrdOuc/XrdOucTrace.hh</text>
</g>
<!-- Node39&#45;&gt;Node41 -->
<g id="edge59" class="edge">
<title>Node39&#45;&gt;Node41</title>
<path fill="none" stroke="#191970" d="M2227.277,-235.2455C2235.8218,-227.1352 2248.1778,-215.4075 2258.3085,-205.7919"/>
<polygon fill="#191970" stroke="#191970" points="2260.9972,-208.0655 2265.8408,-198.6427 2256.1782,-202.9884 2260.9972,-208.0655"/>
</g>
</g>
</svg>
        <g id="navigator" transform="translate(0 0)" fill="#404254">
                <rect fill="#f2f5e9" fill-opacity="0.5" stroke="#606060" stroke-width=".5" x="0" y="0" width="60" height="60"/>
                <use id="zoomplus" xlink:href="#zoomPlus" x="17" y="9" onmousedown="handleZoom(evt,'in')"/>
                <use id="zoomminus" xlink:href="#zoomMin" x="42" y="9" onmousedown="handleZoom(evt,'out')"/>
                <use id="reset" xlink:href="#resetDef" x="30" y="36" onmousedown="handleReset()"/>
                <g id="arrowUp" xlink:href="#dirArrow" transform="translate(30 24)" onmousedown="handlePan(0,-1)">
                  <use xlink:href="#rim" fill="#404040">
                        <set attributeName="fill" to="#808080" begin="arrowUp.mouseover" end="arrowUp.mouseout"/>
                  </use>
                  <path fill="none" stroke="white" stroke-width="1.5" d="M0,-3.0v7 M-2.5,-0.5L0,-3.0L2.5,-0.5"/>
                </g>
                <g id="arrowRight" xlink:href="#dirArrow" transform="rotate(90) translate(36 -43)" onmousedown="handlePan(1,0)">
                  <use xlink:href="#rim" fill="#404040">
                        <set attributeName="fill" to="#808080" begin="arrowRight.mouseover" end="arrowRight.mouseout"/>
                  </use>
                  <path fill="none" stroke="white" stroke-width="1.5" d="M0,-3.0v7 M-2.5,-0.5L0,-3.0L2.5,-0.5"/>
                </g>
                <g id="arrowDown" xlink:href="#dirArrow" transform="rotate(180) translate(-30 -48)" onmousedown="handlePan(0,1)">
                  <use xlink:href="#rim" fill="#404040">
                        <set attributeName="fill" to="#808080" begin="arrowDown.mouseover" end="arrowDown.mouseout"/>
                  </use>
                  <path fill="none" stroke="white" stroke-width="1.5" d="M0,-3.0v7 M-2.5,-0.5L0,-3.0L2.5,-0.5"/>
                </g>
                <g id="arrowLeft" xlink:href="#dirArrow" transform="rotate(270) translate(-36 17)" onmousedown="handlePan(-1,0)">
                  <use xlink:href="#rim" fill="#404040">
                        <set attributeName="fill" to="#808080" begin="arrowLeft.mouseover" end="arrowLeft.mouseout"/>
                  </use>
                  <path fill="none" stroke="white" stroke-width="1.5" d="M0,-3.0v7 M-2.5,-0.5L0,-3.0L2.5,-0.5"/>
                </g>
        </g>
        <svg viewBox="0 0 15 15" width="100%" height="30px" preserveAspectRatio="xMaxYMin meet">
         <g id="arrow_out" transform="scale(0.3 0.3)">
          <a xlink:href="XrdProofPhyConn_8cxx__incl_org.svg" target="_base">
           <rect id="button" ry="5" rx="5" y="6" x="6" height="38" width="38"
                fill="#f2f5e9" fill-opacity="0.5" stroke="#606060" stroke-width="1.0"/>
           <path id="arrow"
             d="M 11.500037,31.436501 C 11.940474,20.09759 22.043105,11.32322 32.158766,21.979434 L 37.068811,17.246167 C 37.068811,17.246167 37.088388,32 37.088388,32 L 22.160133,31.978069 C 22.160133,31.978069 26.997745,27.140456 26.997745,27.140456 C 18.528582,18.264221 13.291696,25.230495 11.500037,31.436501 z"
             style="fill:#404040;"/>
          </a>
         </g>
        </svg>
</svg>
