<?xml version="1.0" encoding="UTF-8" standalone="no"?>
<!DOCTYPE svg PUBLIC "-//W3C//DTD SVG 1.1//EN"
 "http://www.w3.org/Graphics/SVG/1.1/DTD/svg11.dtd">
<!-- Generated by graphviz version 2.40.1 (0)
 -->
<!-- Title: proof/proofd/inc/XrdProofPhyConn.h Pages: 1 -->
<svg width="350pt" height="106pt"
 viewBox="0.00 0.00 350.00 106.00" xmlns="http://www.w3.org/2000/svg" xmlns:xlink="http://www.w3.org/1999/xlink">
<g id="graph0" class="graph" transform="scale(1 1) rotate(0) translate(4 102)">
<title>proof/proofd/inc/XrdProofPhyConn.h</title>
<polygon fill="#ffffff" stroke="transparent" points="-4,4 -4,-102 346,-102 346,4 -4,4"/>
<!-- Node11 -->
<g id="node1" class="node">
<title>Node11</title>
<polygon fill="#bfbfbf" stroke="#000000" points="90,-67.5 90,-97.5 229,-97.5 229,-67.5 90,-67.5"/>
<text text-anchor="start" x="98" y="-85.5" font-family="Helvetica,sans-Serif" font-size="10.00" fill="#000000">proof/proofd/inc/XrdProof</text>
<text text-anchor="middle" x="159.5" y="-74.5" font-family="Helvetica,sans-Serif" font-size="10.00" fill="#000000">PhyConn.h</text>
</g>
<!-- Node12 -->
<g id="node2" class="node">
<title>Node12</title>
<g id="a_node2"><a xlink:href="XrdProofPhyConn_8cxx.html" target="_top" xlink:title="proof/proofd/src/XrdProof\lPhyConn.cxx">
<polygon fill="#ffffff" stroke="#000000" points="0,-.5 0,-30.5 139,-30.5 139,-.5 0,-.5"/>
<text text-anchor="start" x="8" y="-18.5" font-family="Helvetica,sans-Serif" font-size="10.00" fill="#000000">proof/proofd/src/XrdProof</text>
<text text-anchor="middle" x="69.5" y="-7.5" font-family="Helvetica,sans-Serif" font-size="10.00" fill="#000000">PhyConn.cxx</text>
</a>
</g>
</g>
<!-- Node11&#45;&gt;Node12 -->
<g id="edge1" class="edge">
<title>Node11&#45;&gt;Node12</title>
<path fill="none" stroke="#191970" d="M130.7058,-61.0643C117.3984,-51.1577 101.9087,-39.6265 89.8416,-30.6432"/>
<polygon fill="#191970" stroke="#191970" points="128.9662,-64.1327 139.0776,-67.2967 133.1463,-58.5177 128.9662,-64.1327"/>
</g>
<!-- Node13 -->
<g id="node3" class="node">
<title>Node13</title>
<g id="a_node3"><a xlink:href="TXUnixSocket_8cxx.html" target="_top" xlink:title="proof/proofx/src/TXUnixSocket.cxx">
<polygon fill="#ffffff" stroke="#000000" points="157,-6 157,-25 342,-25 342,-6 157,-6"/>
<text text-anchor="middle" x="249.5" y="-13" font-family="Helvetica,sans-Serif" font-size="10.00" fill="#000000">proof/proofx/src/TXUnixSocket.cxx</text>
</a>
</g>
</g>
<!-- Node11&#45;&gt;Node13 -->
<g id="edge2" class="edge">
<title>Node11&#45;&gt;Node13</title>
<path fill="none" stroke="#191970" d="M188.0962,-61.2117C204.4132,-49.0646 224.0638,-34.4358 236.665,-25.055"/>
<polygon fill="#191970" stroke="#191970" points="185.8537,-58.5177 179.9224,-67.2967 190.0338,-64.1327 185.8537,-58.5177"/>
</g>
</g>
</svg>
