<?xml version="1.0" encoding="UTF-8" standalone="no"?>
<!DOCTYPE svg PUBLIC "-//W3C//DTD SVG 1.1//EN"
 "http://www.w3.org/Graphics/SVG/1.1/DTD/svg11.dtd">
<!-- Generated by graphviz version 2.40.1 (0)
 -->
<!-- Title: proof/proofd/inc/XrdProofdClientMgr.h Pages: 1 -->
<svg width="805pt" height="106pt"
 viewBox="0.00 0.00 805.00 106.00" xmlns="http://www.w3.org/2000/svg" xmlns:xlink="http://www.w3.org/1999/xlink">
<g id="graph0" class="graph" transform="scale(1 1) rotate(0) translate(4 102)">
<title>proof/proofd/inc/XrdProofdClientMgr.h</title>
<polygon fill="#ffffff" stroke="transparent" points="-4,4 -4,-102 801,-102 801,4 -4,4"/>
<!-- Node16 -->
<g id="node1" class="node">
<title>Node16</title>
<polygon fill="#bfbfbf" stroke="#000000" points="326,-67.5 326,-97.5 471,-97.5 471,-67.5 326,-67.5"/>
<text text-anchor="start" x="334" y="-85.5" font-family="Helvetica,sans-Serif" font-size="10.00" fill="#000000">proof/proofd/inc/XrdProofd</text>
<text text-anchor="middle" x="398.5" y="-74.5" font-family="Helvetica,sans-Serif" font-size="10.00" fill="#000000">ClientMgr.h</text>
</g>
<!-- Node17 -->
<g id="node2" class="node">
<title>Node17</title>
<g id="a_node2"><a xlink:href="XrdProofdAdmin_8cxx.html" target="_top" xlink:title="proof/proofd/src/XrdProofd\lAdmin.cxx">
<polygon fill="#ffffff" stroke="#000000" points="0,-.5 0,-30.5 145,-30.5 145,-.5 0,-.5"/>
<text text-anchor="start" x="8" y="-18.5" font-family="Helvetica,sans-Serif" font-size="10.00" fill="#000000">proof/proofd/src/XrdProofd</text>
<text text-anchor="middle" x="72.5" y="-7.5" font-family="Helvetica,sans-Serif" font-size="10.00" fill="#000000">Admin.cxx</text>
</a>
</g>
</g>
<!-- Node16&#45;&gt;Node17 -->
<g id="edge1" class="edge">
<title>Node16&#45;&gt;Node17</title>
<path fill="none" stroke="#191970" d="M315.7598,-65.4951C263.1124,-54.6749 195.5791,-40.7954 145.0326,-30.407"/>
<polygon fill="#191970" stroke="#191970" points="315.2451,-68.9624 325.745,-67.5473 316.6544,-62.1057 315.2451,-68.9624"/>
</g>
<!-- Node18 -->
<g id="node3" class="node">
<title>Node18</title>
<g id="a_node3"><a xlink:href="XrdProofdClientMgr_8cxx.html" target="_top" xlink:title="proof/proofd/src/XrdProofd\lClientMgr.cxx">
<polygon fill="#ffffff" stroke="#000000" points="163,-.5 163,-30.5 308,-30.5 308,-.5 163,-.5"/>
<text text-anchor="start" x="171" y="-18.5" font-family="Helvetica,sans-Serif" font-size="10.00" fill="#000000">proof/proofd/src/XrdProofd</text>
<text text-anchor="middle" x="235.5" y="-7.5" font-family="Helvetica,sans-Serif" font-size="10.00" fill="#000000">ClientMgr.cxx</text>
</a>
</g>
</g>
<!-- Node16&#45;&gt;Node18 -->
<g id="edge2" class="edge">
<title>Node16&#45;&gt;Node18</title>
<path fill="none" stroke="#191970" d="M352.4942,-63.5897C327.1006,-53.1518 295.9935,-40.3654 272.2399,-30.6017"/>
<polygon fill="#191970" stroke="#191970" points="351.3398,-66.8992 361.9196,-67.4639 354.0011,-60.4248 351.3398,-66.8992"/>
</g>
<!-- Node19 -->
<g id="node4" class="node">
<title>Node19</title>
<g id="a_node4"><a xlink:href="XrdProofdManager_8cxx.html" target="_top" xlink:title="proof/proofd/src/XrdProofd\lManager.cxx">
<polygon fill="#ffffff" stroke="#000000" points="326,-.5 326,-30.5 471,-30.5 471,-.5 326,-.5"/>
<text text-anchor="start" x="334" y="-18.5" font-family="Helvetica,sans-Serif" font-size="10.00" fill="#000000">proof/proofd/src/XrdProofd</text>
<text text-anchor="middle" x="398.5" y="-7.5" font-family="Helvetica,sans-Serif" font-size="10.00" fill="#000000">Manager.cxx</text>
</a>
</g>
</g>
<!-- Node16&#45;&gt;Node19 -->
<g id="edge3" class="edge">
<title>Node16&#45;&gt;Node19</title>
<path fill="none" stroke="#191970" d="M398.5,-57.0249C398.5,-48.128 398.5,-38.4287 398.5,-30.6432"/>
<polygon fill="#191970" stroke="#191970" points="395.0001,-57.2966 398.5,-67.2967 402.0001,-57.2967 395.0001,-57.2966"/>
</g>
<!-- Node20 -->
<g id="node5" class="node">
<title>Node20</title>
<g id="a_node5"><a xlink:href="XrdProofdProofServMgr_8cxx.html" target="_top" xlink:title="proof/proofd/src/XrdProofd\lProofServMgr.cxx">
<polygon fill="#ffffff" stroke="#000000" points="489,-.5 489,-30.5 634,-30.5 634,-.5 489,-.5"/>
<text text-anchor="start" x="497" y="-18.5" font-family="Helvetica,sans-Serif" font-size="10.00" fill="#000000">proof/proofd/src/XrdProofd</text>
<text text-anchor="middle" x="561.5" y="-7.5" font-family="Helvetica,sans-Serif" font-size="10.00" fill="#000000">ProofServMgr.cxx</text>
</a>
</g>
</g>
<!-- Node16&#45;&gt;Node20 -->
<g id="edge4" class="edge">
<title>Node16&#45;&gt;Node20</title>
<path fill="none" stroke="#191970" d="M444.5058,-63.5897C469.8994,-53.1518 501.0065,-40.3654 524.7601,-30.6017"/>
<polygon fill="#191970" stroke="#191970" points="442.9989,-60.4248 435.0804,-67.4639 445.6602,-66.8992 442.9989,-60.4248"/>
</g>
<!-- Node21 -->
<g id="node6" class="node">
<title>Node21</title>
<g id="a_node6"><a xlink:href="XrdProofdProtocol_8cxx.html" target="_top" xlink:title="proof/proofd/src/XrdProofd\lProtocol.cxx">
<polygon fill="#ffffff" stroke="#000000" points="652,-.5 652,-30.5 797,-30.5 797,-.5 652,-.5"/>
<text text-anchor="start" x="660" y="-18.5" font-family="Helvetica,sans-Serif" font-size="10.00" fill="#000000">proof/proofd/src/XrdProofd</text>
<text text-anchor="middle" x="724.5" y="-7.5" font-family="Helvetica,sans-Serif" font-size="10.00" fill="#000000">Protocol.cxx</text>
</a>
</g>
</g>
<!-- Node16&#45;&gt;Node21 -->
<g id="edge5" class="edge">
<title>Node16&#45;&gt;Node21</title>
<path fill="none" stroke="#191970" d="M481.2402,-65.4951C533.8876,-54.6749 601.4209,-40.7954 651.9674,-30.407"/>
<polygon fill="#191970" stroke="#191970" points="480.3456,-62.1057 471.255,-67.5473 481.7549,-68.9624 480.3456,-62.1057"/>
</g>
</g>
</svg>
