<?xml version="1.0" encoding="UTF-8" standalone="no"?>
<!DOCTYPE svg PUBLIC "-//W3C//DTD SVG 1.1//EN"
 "http://www.w3.org/Graphics/SVG/1.1/DTD/svg11.dtd">
<!-- Generated by graphviz version 2.40.1 (0)
 -->
<!-- Title: proof/proofd/inc/XrdProofConn.h Pages: 1 -->
<svg width="1610pt" height="173pt"
 viewBox="0.00 0.00 1610.00 173.00" xmlns="http://www.w3.org/2000/svg" xmlns:xlink="http://www.w3.org/1999/xlink">
<g id="graph0" class="graph" transform="scale(1 1) rotate(0) translate(4 169)">
<title>proof/proofd/inc/XrdProofConn.h</title>
<polygon fill="#ffffff" stroke="transparent" points="-4,4 -4,-169 1606,-169 1606,4 -4,4"/>
<!-- Node10 -->
<g id="node1" class="node">
<title>Node10</title>
<polygon fill="#bfbfbf" stroke="#000000" points="1129,-134.5 1129,-164.5 1268,-164.5 1268,-134.5 1129,-134.5"/>
<text text-anchor="start" x="1137" y="-152.5" font-family="Helvetica,sans-Serif" font-size="10.00" fill="#000000">proof/proofd/inc/XrdProof</text>
<text text-anchor="middle" x="1198.5" y="-141.5" font-family="Helvetica,sans-Serif" font-size="10.00" fill="#000000">Conn.h</text>
</g>
<!-- Node11 -->
<g id="node2" class="node">
<title>Node11</title>
<g id="a_node2"><a xlink:href="XrdProofdNetMgr_8h.html" target="_top" xlink:title="proof/proofd/inc/XrdProofd\lNetMgr.h">
<polygon fill="#ffffff" stroke="#000000" points="489,-67.5 489,-97.5 634,-97.5 634,-67.5 489,-67.5"/>
<text text-anchor="start" x="497" y="-85.5" font-family="Helvetica,sans-Serif" font-size="10.00" fill="#000000">proof/proofd/inc/XrdProofd</text>
<text text-anchor="middle" x="561.5" y="-74.5" font-family="Helvetica,sans-Serif" font-size="10.00" fill="#000000">NetMgr.h</text>
</a>
</g>
</g>
<!-- Node10&#45;&gt;Node11 -->
<g id="edge1" class="edge">
<title>Node10&#45;&gt;Node11</title>
<path fill="none" stroke="#191970" d="M1118.5604,-141.0919C993.7157,-127.9607 754.3313,-102.7821 634.1324,-90.1395"/>
<polygon fill="#191970" stroke="#191970" points="1118.5014,-144.6049 1128.8127,-142.1703 1119.2337,-137.6433 1118.5014,-144.6049"/>
</g>
<!-- Node18 -->
<g id="node9" class="node">
<title>Node18</title>
<g id="a_node9"><a xlink:href="XrdProofPhyConn_8h.html" target="_top" xlink:title="proof/proofd/inc/XrdProof\lPhyConn.h">
<polygon fill="#ffffff" stroke="#000000" points="972,-67.5 972,-97.5 1111,-97.5 1111,-67.5 972,-67.5"/>
<text text-anchor="start" x="980" y="-85.5" font-family="Helvetica,sans-Serif" font-size="10.00" fill="#000000">proof/proofd/inc/XrdProof</text>
<text text-anchor="middle" x="1041.5" y="-74.5" font-family="Helvetica,sans-Serif" font-size="10.00" fill="#000000">PhyConn.h</text>
</a>
</g>
</g>
<!-- Node10&#45;&gt;Node18 -->
<g id="edge8" class="edge">
<title>Node10&#45;&gt;Node18</title>
<path fill="none" stroke="#191970" d="M1153.8641,-130.4516C1129.465,-120.0392 1099.666,-107.3224 1076.8875,-97.6017"/>
<polygon fill="#191970" stroke="#191970" points="1152.6948,-133.7579 1163.2661,-134.4639 1155.4424,-127.3197 1152.6948,-133.7579"/>
</g>
<!-- Node21 -->
<g id="node12" class="node">
<title>Node21</title>
<g id="a_node12"><a xlink:href="XrdProofConn_8cxx.html" target="_top" xlink:title="proof/proofd/src/XrdProof\lConn.cxx">
<polygon fill="#ffffff" stroke="#000000" points="1129,-67.5 1129,-97.5 1268,-97.5 1268,-67.5 1129,-67.5"/>
<text text-anchor="start" x="1137" y="-85.5" font-family="Helvetica,sans-Serif" font-size="10.00" fill="#000000">proof/proofd/src/XrdProof</text>
<text text-anchor="middle" x="1198.5" y="-74.5" font-family="Helvetica,sans-Serif" font-size="10.00" fill="#000000">Conn.cxx</text>
</a>
</g>
</g>
<!-- Node10&#45;&gt;Node21 -->
<g id="edge11" class="edge">
<title>Node10&#45;&gt;Node21</title>
<path fill="none" stroke="#191970" d="M1198.5,-124.0249C1198.5,-115.128 1198.5,-105.4287 1198.5,-97.6432"/>
<polygon fill="#191970" stroke="#191970" points="1195.0001,-124.2966 1198.5,-134.2967 1202.0001,-124.2967 1195.0001,-124.2966"/>
</g>
<!-- Node22 -->
<g id="node13" class="node">
<title>Node22</title>
<g id="a_node13"><a xlink:href="TXProofMgr_8cxx.html" target="_top" xlink:title="proof/proofx/src/TXProof\lMgr.cxx">
<polygon fill="#ffffff" stroke="#000000" points="1286,-67.5 1286,-97.5 1421,-97.5 1421,-67.5 1286,-67.5"/>
<text text-anchor="start" x="1294" y="-85.5" font-family="Helvetica,sans-Serif" font-size="10.00" fill="#000000">proof/proofx/src/TXProof</text>
<text text-anchor="middle" x="1353.5" y="-74.5" font-family="Helvetica,sans-Serif" font-size="10.00" fill="#000000">Mgr.cxx</text>
</a>
</g>
</g>
<!-- Node10&#45;&gt;Node22 -->
<g id="edge12" class="edge">
<title>Node10&#45;&gt;Node22</title>
<path fill="none" stroke="#191970" d="M1242.5672,-130.4516C1266.6556,-120.0392 1296.075,-107.3224 1318.5633,-97.6017"/>
<polygon fill="#191970" stroke="#191970" points="1241.0754,-127.2834 1233.285,-134.4639 1243.8529,-133.7088 1241.0754,-127.2834"/>
</g>
<!-- Node23 -->
<g id="node14" class="node">
<title>Node23</title>
<g id="a_node14"><a xlink:href="TXSocket_8cxx.html" target="_top" xlink:title="proof/proofx/src/TXSocket.cxx">
<polygon fill="#ffffff" stroke="#000000" points="1439,-73 1439,-92 1602,-92 1602,-73 1439,-73"/>
<text text-anchor="middle" x="1520.5" y="-80" font-family="Helvetica,sans-Serif" font-size="10.00" fill="#000000">proof/proofx/src/TXSocket.cxx</text>
</a>
</g>
</g>
<!-- Node10&#45;&gt;Node23 -->
<g id="edge13" class="edge">
<title>Node10&#45;&gt;Node23</title>
<path fill="none" stroke="#191970" d="M1278.4786,-132.8585C1340.2646,-120.0024 1423.5824,-102.6661 1474.5951,-92.0516"/>
<polygon fill="#191970" stroke="#191970" points="1277.4465,-129.4982 1268.3692,-134.962 1278.8725,-136.3514 1277.4465,-129.4982"/>
</g>
<!-- Node12 -->
<g id="node3" class="node">
<title>Node12</title>
<g id="a_node3"><a xlink:href="XrdProofdAdmin_8cxx.html" target="_top" xlink:title="proof/proofd/src/XrdProofd\lAdmin.cxx">
<polygon fill="#ffffff" stroke="#000000" points="0,-.5 0,-30.5 145,-30.5 145,-.5 0,-.5"/>
<text text-anchor="start" x="8" y="-18.5" font-family="Helvetica,sans-Serif" font-size="10.00" fill="#000000">proof/proofd/src/XrdProofd</text>
<text text-anchor="middle" x="72.5" y="-7.5" font-family="Helvetica,sans-Serif" font-size="10.00" fill="#000000">Admin.cxx</text>
</a>
</g>
</g>
<!-- Node11&#45;&gt;Node12 -->
<g id="edge2" class="edge">
<title>Node11&#45;&gt;Node12</title>
<path fill="none" stroke="#191970" d="M478.6271,-73.6015C396.0386,-64.3663 265.6969,-48.7975 153.5,-31 150.8132,-30.5738 148.0791,-30.1255 145.3194,-29.6607"/>
<polygon fill="#191970" stroke="#191970" points="478.3813,-77.0956 488.7072,-74.7237 479.1559,-70.1386 478.3813,-77.0956"/>
</g>
<!-- Node13 -->
<g id="node4" class="node">
<title>Node13</title>
<g id="a_node4"><a xlink:href="XrdProofdManager_8cxx.html" target="_top" xlink:title="proof/proofd/src/XrdProofd\lManager.cxx">
<polygon fill="#ffffff" stroke="#000000" points="163,-.5 163,-30.5 308,-30.5 308,-.5 163,-.5"/>
<text text-anchor="start" x="171" y="-18.5" font-family="Helvetica,sans-Serif" font-size="10.00" fill="#000000">proof/proofd/src/XrdProofd</text>
<text text-anchor="middle" x="235.5" y="-7.5" font-family="Helvetica,sans-Serif" font-size="10.00" fill="#000000">Manager.cxx</text>
</a>
</g>
</g>
<!-- Node11&#45;&gt;Node13 -->
<g id="edge3" class="edge">
<title>Node11&#45;&gt;Node13</title>
<path fill="none" stroke="#191970" d="M478.7598,-65.4951C426.1124,-54.6749 358.5791,-40.7954 308.0326,-30.407"/>
<polygon fill="#191970" stroke="#191970" points="478.2451,-68.9624 488.745,-67.5473 479.6544,-62.1057 478.2451,-68.9624"/>
</g>
<!-- Node14 -->
<g id="node5" class="node">
<title>Node14</title>
<g id="a_node5"><a xlink:href="XrdProofdNetMgr_8cxx.html" target="_top" xlink:title="proof/proofd/src/XrdProofd\lNetMgr.cxx">
<polygon fill="#ffffff" stroke="#000000" points="326,-.5 326,-30.5 471,-30.5 471,-.5 326,-.5"/>
<text text-anchor="start" x="334" y="-18.5" font-family="Helvetica,sans-Serif" font-size="10.00" fill="#000000">proof/proofd/src/XrdProofd</text>
<text text-anchor="middle" x="398.5" y="-7.5" font-family="Helvetica,sans-Serif" font-size="10.00" fill="#000000">NetMgr.cxx</text>
</a>
</g>
</g>
<!-- Node11&#45;&gt;Node14 -->
<g id="edge4" class="edge">
<title>Node11&#45;&gt;Node14</title>
<path fill="none" stroke="#191970" d="M515.4942,-63.5897C490.1006,-53.1518 458.9935,-40.3654 435.2399,-30.6017"/>
<polygon fill="#191970" stroke="#191970" points="514.3398,-66.8992 524.9196,-67.4639 517.0011,-60.4248 514.3398,-66.8992"/>
</g>
<!-- Node15 -->
<g id="node6" class="node">
<title>Node15</title>
<g id="a_node6"><a xlink:href="XrdProofdProofServMgr_8cxx.html" target="_top" xlink:title="proof/proofd/src/XrdProofd\lProofServMgr.cxx">
<polygon fill="#ffffff" stroke="#000000" points="489,-.5 489,-30.5 634,-30.5 634,-.5 489,-.5"/>
<text text-anchor="start" x="497" y="-18.5" font-family="Helvetica,sans-Serif" font-size="10.00" fill="#000000">proof/proofd/src/XrdProofd</text>
<text text-anchor="middle" x="561.5" y="-7.5" font-family="Helvetica,sans-Serif" font-size="10.00" fill="#000000">ProofServMgr.cxx</text>
</a>
</g>
</g>
<!-- Node11&#45;&gt;Node15 -->
<g id="edge5" class="edge">
<title>Node11&#45;&gt;Node15</title>
<path fill="none" stroke="#191970" d="M561.5,-57.0249C561.5,-48.128 561.5,-38.4287 561.5,-30.6432"/>
<polygon fill="#191970" stroke="#191970" points="558.0001,-57.2966 561.5,-67.2967 565.0001,-57.2967 558.0001,-57.2966"/>
</g>
<!-- Node16 -->
<g id="node7" class="node">
<title>Node16</title>
<g id="a_node7"><a xlink:href="XrdProofdProtocol_8cxx.html" target="_top" xlink:title="proof/proofd/src/XrdProofd\lProtocol.cxx">
<polygon fill="#ffffff" stroke="#000000" points="652,-.5 652,-30.5 797,-30.5 797,-.5 652,-.5"/>
<text text-anchor="start" x="660" y="-18.5" font-family="Helvetica,sans-Serif" font-size="10.00" fill="#000000">proof/proofd/src/XrdProofd</text>
<text text-anchor="middle" x="724.5" y="-7.5" font-family="Helvetica,sans-Serif" font-size="10.00" fill="#000000">Protocol.cxx</text>
</a>
</g>
</g>
<!-- Node11&#45;&gt;Node16 -->
<g id="edge6" class="edge">
<title>Node11&#45;&gt;Node16</title>
<path fill="none" stroke="#191970" d="M607.5058,-63.5897C632.8994,-53.1518 664.0065,-40.3654 687.7601,-30.6017"/>
<polygon fill="#191970" stroke="#191970" points="605.9989,-60.4248 598.0804,-67.4639 608.6602,-66.8992 605.9989,-60.4248"/>
</g>
<!-- Node17 -->
<g id="node8" class="node">
<title>Node17</title>
<g id="a_node8"><a xlink:href="XrdProofSched_8cxx.html" target="_top" xlink:title="proof/proofd/src/XrdProof\lSched.cxx">
<polygon fill="#ffffff" stroke="#000000" points="815,-.5 815,-30.5 954,-30.5 954,-.5 815,-.5"/>
<text text-anchor="start" x="823" y="-18.5" font-family="Helvetica,sans-Serif" font-size="10.00" fill="#000000">proof/proofd/src/XrdProof</text>
<text text-anchor="middle" x="884.5" y="-7.5" font-family="Helvetica,sans-Serif" font-size="10.00" fill="#000000">Sched.cxx</text>
</a>
</g>
</g>
<!-- Node11&#45;&gt;Node17 -->
<g id="edge7" class="edge">
<title>Node11&#45;&gt;Node17</title>
<path fill="none" stroke="#191970" d="M644.0059,-65.3858C696.8306,-54.4283 764.6151,-40.3678 814.7486,-29.9686"/>
<polygon fill="#191970" stroke="#191970" points="643.0682,-62.0057 633.9875,-67.4639 644.49,-68.8598 643.0682,-62.0057"/>
</g>
<!-- Node19 -->
<g id="node10" class="node">
<title>Node19</title>
<g id="a_node10"><a xlink:href="XrdProofPhyConn_8cxx.html" target="_top" xlink:title="proof/proofd/src/XrdProof\lPhyConn.cxx">
<polygon fill="#ffffff" stroke="#000000" points="972,-.5 972,-30.5 1111,-30.5 1111,-.5 972,-.5"/>
<text text-anchor="start" x="980" y="-18.5" font-family="Helvetica,sans-Serif" font-size="10.00" fill="#000000">proof/proofd/src/XrdProof</text>
<text text-anchor="middle" x="1041.5" y="-7.5" font-family="Helvetica,sans-Serif" font-size="10.00" fill="#000000">PhyConn.cxx</text>
</a>
</g>
</g>
<!-- Node18&#45;&gt;Node19 -->
<g id="edge9" class="edge">
<title>Node18&#45;&gt;Node19</title>
<path fill="none" stroke="#191970" d="M1041.5,-57.0249C1041.5,-48.128 1041.5,-38.4287 1041.5,-30.6432"/>
<polygon fill="#191970" stroke="#191970" points="1038.0001,-57.2966 1041.5,-67.2967 1045.0001,-57.2967 1038.0001,-57.2966"/>
</g>
<!-- Node20 -->
<g id="node11" class="node">
<title>Node20</title>
<g id="a_node11"><a xlink:href="TXUnixSocket_8cxx.html" target="_top" xlink:title="proof/proofx/src/TXUnixSocket.cxx">
<polygon fill="#ffffff" stroke="#000000" points="1129,-6 1129,-25 1314,-25 1314,-6 1129,-6"/>
<text text-anchor="middle" x="1221.5" y="-13" font-family="Helvetica,sans-Serif" font-size="10.00" fill="#000000">proof/proofx/src/TXUnixSocket.cxx</text>
</a>
</g>
</g>
<!-- Node18&#45;&gt;Node20 -->
<g id="edge10" class="edge">
<title>Node18&#45;&gt;Node20</title>
<path fill="none" stroke="#191970" d="M1091.6367,-63.838C1125.5489,-51.2151 1168.9242,-35.0699 1195.9634,-25.0053"/>
<polygon fill="#191970" stroke="#191970" points="1090.0464,-60.6953 1081.8955,-67.4639 1092.4883,-67.2556 1090.0464,-60.6953"/>
</g>
</g>
</svg>
