<?xml version="1.0" encoding="UTF-8" standalone="no"?>
<!DOCTYPE svg PUBLIC "-//W3C//DTD SVG 1.1//EN"
 "http://www.w3.org/Graphics/SVG/1.1/DTD/svg11.dtd">
<!-- Generated by graphviz version 2.40.1 (0)
 -->
<!-- Title: proof/proofd/inc/XrdProofdResponse.h Pages: 1 -->
<svg width="615pt" height="151pt"
 viewBox="0.00 0.00 614.50 151.00" xmlns="http://www.w3.org/2000/svg" xmlns:xlink="http://www.w3.org/1999/xlink">
<g id="graph0" class="graph" transform="scale(1 1) rotate(0) translate(4 147)">
<title>proof/proofd/inc/XrdProofdResponse.h</title>
<polygon fill="#ffffff" stroke="transparent" points="-4,4 -4,-147 610.5,-147 610.5,4 -4,4"/>
<!-- Node0 -->
<g id="node1" class="node">
<title>Node0</title>
<polygon fill="#bfbfbf" stroke="#000000" points="152,-112.5 152,-142.5 297,-142.5 297,-112.5 152,-112.5"/>
<text text-anchor="start" x="160" y="-130.5" font-family="Helvetica,sans-Serif" font-size="10.00" fill="#000000">proof/proofd/inc/XrdProofd</text>
<text text-anchor="middle" x="224.5" y="-119.5" font-family="Helvetica,sans-Serif" font-size="10.00" fill="#000000">Response.h</text>
</g>
<!-- Node1 -->
<g id="node2" class="node">
<title>Node1</title>
<polygon fill="#ffffff" stroke="#bfbfbf" points="0,-56.5 0,-75.5 53,-75.5 53,-56.5 0,-56.5"/>
<text text-anchor="middle" x="26.5" y="-63.5" font-family="Helvetica,sans-Serif" font-size="10.00" fill="#000000">string.h</text>
</g>
<!-- Node0&#45;&gt;Node1 -->
<g id="edge1" class="edge">
<title>Node0&#45;&gt;Node1</title>
<path fill="none" stroke="#191970" d="M176.0638,-112.4554C141.1459,-101.6097 94.7566,-87.2009 62.9529,-77.3225"/>
<polygon fill="#191970" stroke="#191970" points="63.7608,-73.9085 53.1726,-74.2847 61.6843,-80.5935 63.7608,-73.9085"/>
</g>
<!-- Node2 -->
<g id="node3" class="node">
<title>Node2</title>
<polygon fill="#ffffff" stroke="#bfbfbf" points="71.5,-56.5 71.5,-75.5 127.5,-75.5 127.5,-56.5 71.5,-56.5"/>
<text text-anchor="middle" x="99.5" y="-63.5" font-family="Helvetica,sans-Serif" font-size="10.00" fill="#000000">unistd.h</text>
</g>
<!-- Node0&#45;&gt;Node2 -->
<g id="edge2" class="edge">
<title>Node0&#45;&gt;Node2</title>
<path fill="none" stroke="#191970" d="M193.9216,-112.4554C173.7968,-102.554 147.6361,-89.683 127.9562,-80.0004"/>
<polygon fill="#191970" stroke="#191970" points="129.3885,-76.8045 118.8706,-75.5303 126.2982,-83.0855 129.3885,-76.8045"/>
</g>
<!-- Node3 -->
<g id="node4" class="node">
<title>Node3</title>
<polygon fill="#ffffff" stroke="#bfbfbf" points="145.5,-56.5 145.5,-75.5 205.5,-75.5 205.5,-56.5 145.5,-56.5"/>
<text text-anchor="middle" x="175.5" y="-63.5" font-family="Helvetica,sans-Serif" font-size="10.00" fill="#000000">sys/uio.h</text>
</g>
<!-- Node0&#45;&gt;Node3 -->
<g id="edge3" class="edge">
<title>Node0&#45;&gt;Node3</title>
<path fill="none" stroke="#191970" d="M212.3876,-112.2977C205.5151,-103.672 196.8777,-92.8312 189.689,-83.8087"/>
<polygon fill="#191970" stroke="#191970" points="192.3144,-81.487 183.3455,-75.8469 186.8396,-85.849 192.3144,-81.487"/>
</g>
<!-- Node4 -->
<g id="node5" class="node">
<title>Node4</title>
<g id="a_node5"><a xlink:href="XpdSysPthread_8h.html" target="_top" xlink:title="XpdSysPthread.h">
<polygon fill="#ffffff" stroke="#000000" points="224,-56.5 224,-75.5 323,-75.5 323,-56.5 224,-56.5"/>
<text text-anchor="middle" x="273.5" y="-63.5" font-family="Helvetica,sans-Serif" font-size="10.00" fill="#000000">XpdSysPthread.h</text>
</a>
</g>
</g>
<!-- Node0&#45;&gt;Node4 -->
<g id="edge4" class="edge">
<title>Node0&#45;&gt;Node4</title>
<path fill="none" stroke="#191970" d="M236.6124,-112.2977C243.4849,-103.672 252.1223,-92.8312 259.311,-83.8087"/>
<polygon fill="#191970" stroke="#191970" points="262.1604,-85.849 265.6545,-75.8469 256.6856,-81.487 262.1604,-85.849"/>
</g>
<!-- Node7 -->
<g id="node8" class="node">
<title>Node7</title>
<polygon fill="#ffffff" stroke="#bfbfbf" points="341.5,-56.5 341.5,-75.5 475.5,-75.5 475.5,-56.5 341.5,-56.5"/>
<text text-anchor="middle" x="408.5" y="-63.5" font-family="Helvetica,sans-Serif" font-size="10.00" fill="#000000">XrdOuc/XrdOucString.hh</text>
</g>
<!-- Node0&#45;&gt;Node7 -->
<g id="edge7" class="edge">
<title>Node0&#45;&gt;Node7</title>
<path fill="none" stroke="#191970" d="M269.5115,-112.4554C300.4816,-102.104 341.1628,-88.5067 370.502,-78.7004"/>
<polygon fill="#191970" stroke="#191970" points="371.6118,-82.0199 379.9865,-75.5303 369.3927,-75.3809 371.6118,-82.0199"/>
</g>
<!-- Node8 -->
<g id="node9" class="node">
<title>Node8</title>
<g id="a_node9"><a xlink:href="XProofProtocol_8h.html" target="_top" xlink:title="XProofProtocol.h">
<polygon fill="#ffffff" stroke="#000000" points="493.5,-56.5 493.5,-75.5 591.5,-75.5 591.5,-56.5 493.5,-56.5"/>
<text text-anchor="middle" x="542.5" y="-63.5" font-family="Helvetica,sans-Serif" font-size="10.00" fill="#000000">XProofProtocol.h</text>
</a>
</g>
</g>
<!-- Node0&#45;&gt;Node8 -->
<g id="edge8" class="edge">
<title>Node0&#45;&gt;Node8</title>
<path fill="none" stroke="#191970" d="M297.057,-113.4677C353.5422,-102.5437 430.939,-87.5755 483.6173,-77.3877"/>
<polygon fill="#191970" stroke="#191970" points="484.3288,-80.815 493.4823,-75.4798 482.9996,-73.9424 484.3288,-80.815"/>
</g>
<!-- Node5 -->
<g id="node6" class="node">
<title>Node5</title>
<g id="a_node6"><a xlink:href="XrdProofdXrdVers_8h.html" target="_top" xlink:title="XrdProofdXrdVers.h">
<polygon fill="#ffffff" stroke="#000000" points="131,-.5 131,-19.5 242,-19.5 242,-.5 131,-.5"/>
<text text-anchor="middle" x="186.5" y="-7.5" font-family="Helvetica,sans-Serif" font-size="10.00" fill="#000000">XrdProofdXrdVers.h</text>
</a>
</g>
</g>
<!-- Node4&#45;&gt;Node5 -->
<g id="edge5" class="edge">
<title>Node4&#45;&gt;Node5</title>
<path fill="none" stroke="#191970" d="M258.3458,-56.2455C244.9973,-47.6534 225.3414,-35.0014 209.9617,-25.1018"/>
<polygon fill="#191970" stroke="#191970" points="211.7836,-22.1121 201.4806,-19.6427 207.9949,-27.9982 211.7836,-22.1121"/>
</g>
<!-- Node6 -->
<g id="node7" class="node">
<title>Node6</title>
<polygon fill="#ffffff" stroke="#bfbfbf" points="260,-.5 260,-19.5 403,-19.5 403,-.5 260,-.5"/>
<text text-anchor="middle" x="331.5" y="-7.5" font-family="Helvetica,sans-Serif" font-size="10.00" fill="#000000">XrdOuc/XrdOucPthread.hh</text>
</g>
<!-- Node4&#45;&gt;Node6 -->
<g id="edge6" class="edge">
<title>Node4&#45;&gt;Node6</title>
<path fill="none" stroke="#191970" d="M283.6028,-56.2455C292.0028,-48.1352 304.1494,-36.4075 314.1084,-26.7919"/>
<polygon fill="#191970" stroke="#191970" points="316.75,-29.1066 321.5129,-19.6427 311.8878,-24.0707 316.75,-29.1066"/>
</g>
<!-- Node9 -->
<g id="node10" class="node">
<title>Node9</title>
<polygon fill="#ffffff" stroke="#bfbfbf" points="478.5,-.5 478.5,-19.5 606.5,-19.5 606.5,-.5 478.5,-.5"/>
<text text-anchor="middle" x="542.5" y="-7.5" font-family="Helvetica,sans-Serif" font-size="10.00" fill="#000000">XProtocol/XProtocol.hh</text>
</g>
<!-- Node8&#45;&gt;Node9 -->
<g id="edge9" class="edge">
<title>Node8&#45;&gt;Node9</title>
<path fill="none" stroke="#191970" d="M542.5,-56.2455C542.5,-48.9382 542.5,-38.6944 542.5,-29.7046"/>
<polygon fill="#191970" stroke="#191970" points="546.0001,-29.6426 542.5,-19.6427 539.0001,-29.6427 546.0001,-29.6426"/>
</g>
</g>
</svg>
