<?xml version="1.0" encoding="UTF-8" standalone="no"?>
<!DOCTYPE svg PUBLIC "-//W3C//DTD SVG 1.1//EN"
 "http://www.w3.org/Graphics/SVG/1.1/DTD/svg11.dtd">
<!-- Generated by graphviz version 2.40.1 (0)
 -->
<!-- Title: proof/proofd/inc/XrdProofSched.h Pages: 1 -->
<svg width="962pt" height="106pt"
 viewBox="0.00 0.00 962.00 106.00" xmlns="http://www.w3.org/2000/svg" xmlns:xlink="http://www.w3.org/1999/xlink">
<g id="graph0" class="graph" transform="scale(1 1) rotate(0) translate(4 102)">
<title>proof/proofd/inc/XrdProofSched.h</title>
<polygon fill="#ffffff" stroke="transparent" points="-4,4 -4,-102 958,-102 958,4 -4,4"/>
<!-- Node15 -->
<g id="node1" class="node">
<title>Node15</title>
<polygon fill="#bfbfbf" stroke="#000000" points="410,-67.5 410,-97.5 549,-97.5 549,-67.5 410,-67.5"/>
<text text-anchor="start" x="418" y="-85.5" font-family="Helvetica,sans-Serif" font-size="10.00" fill="#000000">proof/proofd/inc/XrdProof</text>
<text text-anchor="middle" x="479.5" y="-74.5" font-family="Helvetica,sans-Serif" font-size="10.00" fill="#000000">Sched.h</text>
</g>
<!-- Node16 -->
<g id="node2" class="node">
<title>Node16</title>
<g id="a_node2"><a xlink:href="XrdProofdAdmin_8cxx.html" target="_top" xlink:title="proof/proofd/src/XrdProofd\lAdmin.cxx">
<polygon fill="#ffffff" stroke="#000000" points="0,-.5 0,-30.5 145,-30.5 145,-.5 0,-.5"/>
<text text-anchor="start" x="8" y="-18.5" font-family="Helvetica,sans-Serif" font-size="10.00" fill="#000000">proof/proofd/src/XrdProofd</text>
<text text-anchor="middle" x="72.5" y="-7.5" font-family="Helvetica,sans-Serif" font-size="10.00" fill="#000000">Admin.cxx</text>
</a>
</g>
</g>
<!-- Node15&#45;&gt;Node16 -->
<g id="edge1" class="edge">
<title>Node15&#45;&gt;Node16</title>
<path fill="none" stroke="#191970" d="M399.8258,-70.6504C333.7487,-60.6462 237.3889,-45.6486 153.5,-31 150.8202,-30.5321 148.092,-30.0482 145.3373,-29.5533"/>
<polygon fill="#191970" stroke="#191970" points="399.3461,-74.1176 409.7568,-72.1509 400.3919,-67.1961 399.3461,-74.1176"/>
</g>
<!-- Node17 -->
<g id="node3" class="node">
<title>Node17</title>
<g id="a_node3"><a xlink:href="XrdProofdManager_8cxx.html" target="_top" xlink:title="proof/proofd/src/XrdProofd\lManager.cxx">
<polygon fill="#ffffff" stroke="#000000" points="163,-.5 163,-30.5 308,-30.5 308,-.5 163,-.5"/>
<text text-anchor="start" x="171" y="-18.5" font-family="Helvetica,sans-Serif" font-size="10.00" fill="#000000">proof/proofd/src/XrdProofd</text>
<text text-anchor="middle" x="235.5" y="-7.5" font-family="Helvetica,sans-Serif" font-size="10.00" fill="#000000">Manager.cxx</text>
</a>
</g>
</g>
<!-- Node15&#45;&gt;Node17 -->
<g id="edge2" class="edge">
<title>Node15&#45;&gt;Node17</title>
<path fill="none" stroke="#191970" d="M414.6187,-64.6842C375.9157,-54.0568 327.3078,-40.7095 290.4972,-30.6017"/>
<polygon fill="#191970" stroke="#191970" points="414.1718,-68.191 424.7416,-67.4639 416.0254,-61.4409 414.1718,-68.191"/>
</g>
<!-- Node18 -->
<g id="node4" class="node">
<title>Node18</title>
<g id="a_node4"><a xlink:href="XrdProofdProofServ_8cxx.html" target="_top" xlink:title="proof/proofd/src/XrdProofd\lProofServ.cxx">
<polygon fill="#ffffff" stroke="#000000" points="326,-.5 326,-30.5 471,-30.5 471,-.5 326,-.5"/>
<text text-anchor="start" x="334" y="-18.5" font-family="Helvetica,sans-Serif" font-size="10.00" fill="#000000">proof/proofd/src/XrdProofd</text>
<text text-anchor="middle" x="398.5" y="-7.5" font-family="Helvetica,sans-Serif" font-size="10.00" fill="#000000">ProofServ.cxx</text>
</a>
</g>
</g>
<!-- Node15&#45;&gt;Node18 -->
<g id="edge3" class="edge">
<title>Node15&#45;&gt;Node18</title>
<path fill="none" stroke="#191970" d="M453.2425,-60.7808C441.3433,-50.9383 427.5644,-39.541 416.8074,-30.6432"/>
<polygon fill="#191970" stroke="#191970" points="451.1835,-63.6198 461.1198,-67.2967 455.6451,-58.2259 451.1835,-63.6198"/>
</g>
<!-- Node19 -->
<g id="node5" class="node">
<title>Node19</title>
<g id="a_node5"><a xlink:href="XrdProofdProofServMgr_8cxx.html" target="_top" xlink:title="proof/proofd/src/XrdProofd\lProofServMgr.cxx">
<polygon fill="#ffffff" stroke="#000000" points="489,-.5 489,-30.5 634,-30.5 634,-.5 489,-.5"/>
<text text-anchor="start" x="497" y="-18.5" font-family="Helvetica,sans-Serif" font-size="10.00" fill="#000000">proof/proofd/src/XrdProofd</text>
<text text-anchor="middle" x="561.5" y="-7.5" font-family="Helvetica,sans-Serif" font-size="10.00" fill="#000000">ProofServMgr.cxx</text>
</a>
</g>
</g>
<!-- Node15&#45;&gt;Node19 -->
<g id="edge4" class="edge">
<title>Node15&#45;&gt;Node19</title>
<path fill="none" stroke="#191970" d="M506.0817,-60.7808C518.1278,-50.9383 532.0767,-39.541 542.9666,-30.6432"/>
<polygon fill="#191970" stroke="#191970" points="503.6363,-58.2591 498.1071,-67.2967 508.0654,-63.6797 503.6363,-58.2591"/>
</g>
<!-- Node20 -->
<g id="node6" class="node">
<title>Node20</title>
<g id="a_node6"><a xlink:href="XrdProofdProtocol_8cxx.html" target="_top" xlink:title="proof/proofd/src/XrdProofd\lProtocol.cxx">
<polygon fill="#ffffff" stroke="#000000" points="652,-.5 652,-30.5 797,-30.5 797,-.5 652,-.5"/>
<text text-anchor="start" x="660" y="-18.5" font-family="Helvetica,sans-Serif" font-size="10.00" fill="#000000">proof/proofd/src/XrdProofd</text>
<text text-anchor="middle" x="724.5" y="-7.5" font-family="Helvetica,sans-Serif" font-size="10.00" fill="#000000">Protocol.cxx</text>
</a>
</g>
</g>
<!-- Node15&#45;&gt;Node20 -->
<g id="edge5" class="edge">
<title>Node15&#45;&gt;Node20</title>
<path fill="none" stroke="#191970" d="M544.1516,-64.8198C583.0932,-54.1704 632.1586,-40.7525 669.2774,-30.6017"/>
<polygon fill="#191970" stroke="#191970" points="543.2053,-61.4499 534.4828,-67.4639 545.0519,-68.202 543.2053,-61.4499"/>
</g>
<!-- Node21 -->
<g id="node7" class="node">
<title>Node21</title>
<g id="a_node7"><a xlink:href="XrdProofSched_8cxx.html" target="_top" xlink:title="proof/proofd/src/XrdProof\lSched.cxx">
<polygon fill="#ffffff" stroke="#000000" points="815,-.5 815,-30.5 954,-30.5 954,-.5 815,-.5"/>
<text text-anchor="start" x="823" y="-18.5" font-family="Helvetica,sans-Serif" font-size="10.00" fill="#000000">proof/proofd/src/XrdProof</text>
<text text-anchor="middle" x="884.5" y="-7.5" font-family="Helvetica,sans-Serif" font-size="10.00" fill="#000000">Sched.cxx</text>
</a>
</g>
</g>
<!-- Node15&#45;&gt;Node21 -->
<g id="edge6" class="edge">
<title>Node15&#45;&gt;Node21</title>
<path fill="none" stroke="#191970" d="M559.1298,-70.868C625.4354,-60.9643 722.2746,-45.9948 806.5,-31 809.2185,-30.516 811.9884,-30.013 814.7849,-29.497"/>
<polygon fill="#191970" stroke="#191970" points="558.5408,-67.417 549.1657,-72.3524 559.5723,-74.3406 558.5408,-67.417"/>
</g>
</g>
</svg>
