<?xml version="1.0" encoding="UTF-8" standalone="no"?>
<!DOCTYPE svg PUBLIC "-//W3C//DTD SVG 1.1//EN"
 "http://www.w3.org/Graphics/SVG/1.1/DTD/svg11.dtd">
<!-- Generated by graphviz version 2.40.1 (0)
 -->
<!-- Title: proof/proofd/inc/XrdProofdProtocol.h Pages: 1 -->
<svg width="1672pt" height="307pt"
 viewBox="0.00 0.00 1672.00 307.00" xmlns="http://www.w3.org/2000/svg" xmlns:xlink="http://www.w3.org/1999/xlink">
<g id="graph0" class="graph" transform="scale(1 1) rotate(0) translate(4 303)">
<title>proof/proofd/inc/XrdProofdProtocol.h</title>
<polygon fill="#ffffff" stroke="transparent" points="-4,4 -4,-303 1668,-303 1668,4 -4,4"/>
<!-- Node19 -->
<g id="node1" class="node">
<title>Node19</title>
<polygon fill="#bfbfbf" stroke="#000000" points="966,-268.5 966,-298.5 1111,-298.5 1111,-268.5 966,-268.5"/>
<text text-anchor="start" x="974" y="-286.5" font-family="Helvetica,sans-Serif" font-size="10.00" fill="#000000">proof/proofd/inc/XrdProofd</text>
<text text-anchor="middle" x="1038.5" y="-275.5" font-family="Helvetica,sans-Serif" font-size="10.00" fill="#000000">Protocol.h</text>
</g>
<!-- Node20 -->
<g id="node2" class="node">
<title>Node20</title>
<g id="a_node2"><a xlink:href="XrdProofdClient_8h.html" target="_top" xlink:title="proof/proofd/inc/XrdProofd\lClient.h">
<polygon fill="#ffffff" stroke="#000000" points="669,-201.5 669,-231.5 814,-231.5 814,-201.5 669,-201.5"/>
<text text-anchor="start" x="677" y="-219.5" font-family="Helvetica,sans-Serif" font-size="10.00" fill="#000000">proof/proofd/inc/XrdProofd</text>
<text text-anchor="middle" x="741.5" y="-208.5" font-family="Helvetica,sans-Serif" font-size="10.00" fill="#000000">Client.h</text>
</a>
</g>
</g>
<!-- Node19&#45;&gt;Node20 -->
<g id="edge1" class="edge">
<title>Node19&#45;&gt;Node20</title>
<path fill="none" stroke="#191970" d="M961.9029,-266.2205C914.3299,-255.4886 853.7795,-241.8291 808.1866,-231.5438"/>
<polygon fill="#191970" stroke="#191970" points="961.3223,-269.6774 971.8474,-268.4639 962.8628,-262.849 961.3223,-269.6774"/>
</g>
<!-- Node23 -->
<g id="node5" class="node">
<title>Node23</title>
<g id="a_node5"><a xlink:href="XrdProofdAdmin_8cxx.html" target="_top" xlink:title="proof/proofd/src/XrdProofd\lAdmin.cxx">
<polygon fill="#ffffff" stroke="#000000" points="0,-.5 0,-30.5 145,-30.5 145,-.5 0,-.5"/>
<text text-anchor="start" x="8" y="-18.5" font-family="Helvetica,sans-Serif" font-size="10.00" fill="#000000">proof/proofd/src/XrdProofd</text>
<text text-anchor="middle" x="72.5" y="-7.5" font-family="Helvetica,sans-Serif" font-size="10.00" fill="#000000">Admin.cxx</text>
</a>
</g>
</g>
<!-- Node19&#45;&gt;Node23 -->
<g id="edge28" class="edge">
<title>Node19&#45;&gt;Node23</title>
<path fill="none" stroke="#191970" d="M955.701,-280.239C779.6529,-272.918 379.4523,-254.077 321.5,-232 209.8862,-189.4806 114.9107,-72.6095 83.5085,-30.7033"/>
<polygon fill="#191970" stroke="#191970" points="955.56,-283.7361 965.6961,-280.6523 955.8492,-276.7421 955.56,-283.7361"/>
</g>
<!-- Node24 -->
<g id="node6" class="node">
<title>Node24</title>
<g id="a_node6"><a xlink:href="XrdProofdClient_8cxx.html" target="_top" xlink:title="proof/proofd/src/XrdProofd\lClient.cxx">
<polygon fill="#ffffff" stroke="#000000" points="163,-.5 163,-30.5 308,-30.5 308,-.5 163,-.5"/>
<text text-anchor="start" x="171" y="-18.5" font-family="Helvetica,sans-Serif" font-size="10.00" fill="#000000">proof/proofd/src/XrdProofd</text>
<text text-anchor="middle" x="235.5" y="-7.5" font-family="Helvetica,sans-Serif" font-size="10.00" fill="#000000">Client.cxx</text>
</a>
</g>
</g>
<!-- Node19&#45;&gt;Node24 -->
<g id="edge30" class="edge">
<title>Node19&#45;&gt;Node24</title>
<path fill="none" stroke="#191970" d="M955.6102,-278.8804C819.5457,-270.8263 554.8186,-253.0481 463.5,-232 342.9393,-204.2118 267.2693,-212.1278 219.5,-98 210.149,-75.659 219.6526,-47.6026 227.4906,-30.6367"/>
<polygon fill="#191970" stroke="#191970" points="955.789,-282.3969 965.9772,-279.49 956.1999,-275.409 955.789,-282.3969"/>
</g>
<!-- Node25 -->
<g id="node7" class="node">
<title>Node25</title>
<g id="a_node7"><a xlink:href="XrdProofdClientMgr_8cxx.html" target="_top" xlink:title="proof/proofd/src/XrdProofd\lClientMgr.cxx">
<polygon fill="#ffffff" stroke="#000000" points="426,-.5 426,-30.5 571,-30.5 571,-.5 426,-.5"/>
<text text-anchor="start" x="434" y="-18.5" font-family="Helvetica,sans-Serif" font-size="10.00" fill="#000000">proof/proofd/src/XrdProofd</text>
<text text-anchor="middle" x="498.5" y="-7.5" font-family="Helvetica,sans-Serif" font-size="10.00" fill="#000000">ClientMgr.cxx</text>
</a>
</g>
</g>
<!-- Node19&#45;&gt;Node25 -->
<g id="edge31" class="edge">
<title>Node19&#45;&gt;Node25</title>
<path fill="none" stroke="#191970" d="M955.5758,-277.2752C770.2841,-261.4024 332.4028,-212.3133 249.5,-98 241.4112,-86.8466 240.8,-77.6835 249.5,-67 271.4166,-40.0866 360.3591,-26.8051 425.7158,-20.5633"/>
<polygon fill="#191970" stroke="#191970" points="955.5507,-280.7855 965.81,-278.1401 956.1402,-273.8103 955.5507,-280.7855"/>
</g>
<!-- Node26 -->
<g id="node8" class="node">
<title>Node26</title>
<g id="a_node8"><a xlink:href="XrdProofdManager_8cxx.html" target="_top" xlink:title="proof/proofd/src/XrdProofd\lManager.cxx">
<polygon fill="#ffffff" stroke="#000000" points="909,-.5 909,-30.5 1054,-30.5 1054,-.5 909,-.5"/>
<text text-anchor="start" x="917" y="-18.5" font-family="Helvetica,sans-Serif" font-size="10.00" fill="#000000">proof/proofd/src/XrdProofd</text>
<text text-anchor="middle" x="981.5" y="-7.5" font-family="Helvetica,sans-Serif" font-size="10.00" fill="#000000">Manager.cxx</text>
</a>
</g>
</g>
<!-- Node19&#45;&gt;Node26 -->
<g id="edge32" class="edge">
<title>Node19&#45;&gt;Node26</title>
<path fill="none" stroke="#191970" d="M1040.5233,-258.3815C1042.2875,-228.3747 1043.2391,-176.8523 1033.5,-134 1024.5876,-94.7849 1002.7155,-52.4742 990.3643,-30.5694"/>
<polygon fill="#191970" stroke="#191970" points="1037.0279,-258.1966 1039.8548,-268.4073 1044.0124,-258.6623 1037.0279,-258.1966"/>
</g>
<!-- Node27 -->
<g id="node9" class="node">
<title>Node27</title>
<g id="a_node9"><a xlink:href="XrdProofdProofServMgr_8cxx.html" target="_top" xlink:title="proof/proofd/src/XrdProofd\lProofServMgr.cxx">
<polygon fill="#ffffff" stroke="#000000" points="1251,-.5 1251,-30.5 1396,-30.5 1396,-.5 1251,-.5"/>
<text text-anchor="start" x="1259" y="-18.5" font-family="Helvetica,sans-Serif" font-size="10.00" fill="#000000">proof/proofd/src/XrdProofd</text>
<text text-anchor="middle" x="1323.5" y="-7.5" font-family="Helvetica,sans-Serif" font-size="10.00" fill="#000000">ProofServMgr.cxx</text>
</a>
</g>
</g>
<!-- Node19&#45;&gt;Node27 -->
<g id="edge34" class="edge">
<title>Node19&#45;&gt;Node27</title>
<path fill="none" stroke="#191970" d="M1062.0025,-261.3994C1118.3243,-208.4371 1259.8594,-75.3445 1307.5376,-30.5103"/>
<polygon fill="#191970" stroke="#191970" points="1059.5268,-258.923 1054.6394,-268.3233 1064.3221,-264.0226 1059.5268,-258.923"/>
</g>
<!-- Node28 -->
<g id="node10" class="node">
<title>Node28</title>
<g id="a_node10"><a xlink:href="XrdProofdProtocol_8cxx.html" target="_top" xlink:title="proof/proofd/src/XrdProofd\lProtocol.cxx">
<polygon fill="#ffffff" stroke="#000000" points="746,-.5 746,-30.5 891,-30.5 891,-.5 746,-.5"/>
<text text-anchor="start" x="754" y="-18.5" font-family="Helvetica,sans-Serif" font-size="10.00" fill="#000000">proof/proofd/src/XrdProofd</text>
<text text-anchor="middle" x="818.5" y="-7.5" font-family="Helvetica,sans-Serif" font-size="10.00" fill="#000000">Protocol.cxx</text>
</a>
</g>
</g>
<!-- Node19&#45;&gt;Node28 -->
<g id="edge35" class="edge">
<title>Node19&#45;&gt;Node28</title>
<path fill="none" stroke="#191970" d="M1037.3842,-258.2324C1034.8372,-226.4824 1026.5261,-171.605 999.5,-134 963.2232,-83.5232 898.2037,-48.7852 856.7665,-30.5326"/>
<polygon fill="#191970" stroke="#191970" points="1033.9067,-258.6878 1038.066,-268.4321 1040.8912,-258.2209 1033.9067,-258.6878"/>
</g>
<!-- Node30 -->
<g id="node12" class="node">
<title>Node30</title>
<g id="a_node12"><a xlink:href="XrdROOT_8cxx.html" target="_top" xlink:title="proof/proofd/src/XrdROOT.cxx">
<polygon fill="#ffffff" stroke="#000000" points="1072.5,-6 1072.5,-25 1232.5,-25 1232.5,-6 1072.5,-6"/>
<text text-anchor="middle" x="1152.5" y="-13" font-family="Helvetica,sans-Serif" font-size="10.00" fill="#000000">proof/proofd/src/XrdROOT.cxx</text>
</a>
</g>
</g>
<!-- Node19&#45;&gt;Node30 -->
<g id="edge37" class="edge">
<title>Node19&#45;&gt;Node30</title>
<path fill="none" stroke="#191970" d="M1048.9217,-258.9998C1073.1351,-202.0771 1132.3504,-62.8692 1148.4196,-25.0926"/>
<polygon fill="#191970" stroke="#191970" points="1045.6494,-257.7512 1044.9558,-268.3233 1052.0909,-260.4912 1045.6494,-257.7512"/>
</g>
<!-- Node33 -->
<g id="node15" class="node">
<title>Node33</title>
<g id="a_node15"><a xlink:href="XrdProofdNetMgr_8cxx.html" target="_top" xlink:title="proof/proofd/src/XrdProofd\lNetMgr.cxx">
<polygon fill="#ffffff" stroke="#000000" points="846,-134.5 846,-164.5 991,-164.5 991,-134.5 846,-134.5"/>
<text text-anchor="start" x="854" y="-152.5" font-family="Helvetica,sans-Serif" font-size="10.00" fill="#000000">proof/proofd/src/XrdProofd</text>
<text text-anchor="middle" x="918.5" y="-141.5" font-family="Helvetica,sans-Serif" font-size="10.00" fill="#000000">NetMgr.cxx</text>
</a>
</g>
</g>
<!-- Node19&#45;&gt;Node33 -->
<g id="edge33" class="edge">
<title>Node19&#45;&gt;Node33</title>
<path fill="none" stroke="#191970" d="M1018.2193,-260.8532C993.7341,-233.5114 953.2265,-188.2779 932.1669,-164.7614"/>
<polygon fill="#191970" stroke="#191970" points="1015.6892,-263.2744 1024.9677,-268.389 1020.9038,-258.6045 1015.6892,-263.2744"/>
</g>
<!-- Node34 -->
<g id="node16" class="node">
<title>Node34</title>
<g id="a_node16"><a xlink:href="XpdObject_8cxx.html" target="_top" xlink:title="proof/proofd/src/XpdObject.cxx">
<polygon fill="#ffffff" stroke="#000000" points="1171,-207 1171,-226 1338,-226 1338,-207 1171,-207"/>
<text text-anchor="middle" x="1254.5" y="-214" font-family="Helvetica,sans-Serif" font-size="10.00" fill="#000000">proof/proofd/src/XpdObject.cxx</text>
</a>
</g>
</g>
<!-- Node19&#45;&gt;Node34 -->
<g id="edge27" class="edge">
<title>Node19&#45;&gt;Node34</title>
<path fill="none" stroke="#191970" d="M1096.5784,-265.4849C1137.5657,-252.7713 1190.852,-236.2427 1223.8561,-226.0053"/>
<polygon fill="#191970" stroke="#191970" points="1095.4888,-262.1583 1086.9746,-268.4639 1097.5626,-268.8441 1095.4888,-262.1583"/>
</g>
<!-- Node35 -->
<g id="node17" class="node">
<title>Node35</title>
<g id="a_node17"><a xlink:href="XrdProofdAux_8cxx.html" target="_top" xlink:title="proof/proofd/src/XrdProofd\lAux.cxx">
<polygon fill="#ffffff" stroke="#000000" points="1356,-201.5 1356,-231.5 1501,-231.5 1501,-201.5 1356,-201.5"/>
<text text-anchor="start" x="1364" y="-219.5" font-family="Helvetica,sans-Serif" font-size="10.00" fill="#000000">proof/proofd/src/XrdProofd</text>
<text text-anchor="middle" x="1428.5" y="-208.5" font-family="Helvetica,sans-Serif" font-size="10.00" fill="#000000">Aux.cxx</text>
</a>
</g>
</g>
<!-- Node19&#45;&gt;Node35 -->
<g id="edge29" class="edge">
<title>Node19&#45;&gt;Node35</title>
<path fill="none" stroke="#191970" d="M1121.1698,-270.2727C1183.4545,-260.1734 1270.925,-245.7058 1347.5,-232 1350.1778,-231.5207 1352.9043,-231.0272 1355.6575,-230.5242"/>
<polygon fill="#191970" stroke="#191970" points="1120.32,-266.8647 1111.008,-271.9179 1121.4388,-273.7747 1120.32,-266.8647"/>
</g>
<!-- Node36 -->
<g id="node18" class="node">
<title>Node36</title>
<g id="a_node18"><a xlink:href="XrdProofdResponse_8cxx.html" target="_top" xlink:title="proof/proofd/src/XrdProofd\lResponse.cxx">
<polygon fill="#ffffff" stroke="#000000" points="1519,-201.5 1519,-231.5 1664,-231.5 1664,-201.5 1519,-201.5"/>
<text text-anchor="start" x="1527" y="-219.5" font-family="Helvetica,sans-Serif" font-size="10.00" fill="#000000">proof/proofd/src/XrdProofd</text>
<text text-anchor="middle" x="1591.5" y="-208.5" font-family="Helvetica,sans-Serif" font-size="10.00" fill="#000000">Response.cxx</text>
</a>
</g>
</g>
<!-- Node19&#45;&gt;Node36 -->
<g id="edge36" class="edge">
<title>Node19&#45;&gt;Node36</title>
<path fill="none" stroke="#191970" d="M1121.1646,-276.5089C1215.5987,-268.0525 1374.6268,-252.3791 1510.5,-232 1513.1903,-231.5965 1515.9274,-231.1675 1518.6896,-230.719"/>
<polygon fill="#191970" stroke="#191970" points="1120.7536,-273.0316 1111.1034,-277.4045 1121.3743,-280.004 1120.7536,-273.0316"/>
</g>
<!-- Node21 -->
<g id="node3" class="node">
<title>Node21</title>
<g id="a_node3"><a xlink:href="XrdProofdProofServ_8h.html" target="_top" xlink:title="proof/proofd/inc/XrdProofd\lProofServ.h">
<polygon fill="#ffffff" stroke="#000000" points="492,-134.5 492,-164.5 637,-164.5 637,-134.5 492,-134.5"/>
<text text-anchor="start" x="500" y="-152.5" font-family="Helvetica,sans-Serif" font-size="10.00" fill="#000000">proof/proofd/inc/XrdProofd</text>
<text text-anchor="middle" x="564.5" y="-141.5" font-family="Helvetica,sans-Serif" font-size="10.00" fill="#000000">ProofServ.h</text>
</a>
</g>
</g>
<!-- Node20&#45;&gt;Node21 -->
<g id="edge2" class="edge">
<title>Node20&#45;&gt;Node21</title>
<path fill="none" stroke="#191970" d="M692.2702,-197.865C664.564,-187.3773 630.4165,-174.4515 604.3955,-164.6017"/>
<polygon fill="#191970" stroke="#191970" points="691.1863,-201.197 701.7777,-201.4639 693.6644,-194.6503 691.1863,-201.197"/>
</g>
<!-- Node20&#45;&gt;Node23 -->
<g id="edge20" class="edge">
<title>Node20&#45;&gt;Node23</title>
<path fill="none" stroke="#191970" d="M658.6605,-212.0618C546.2417,-205.1999 351.7847,-190.1182 285.5,-165 202.2732,-133.4617 121.0037,-61.9322 87.9641,-30.6367"/>
<polygon fill="#191970" stroke="#191970" points="658.7507,-215.5734 668.9429,-212.6804 659.1712,-208.5861 658.7507,-215.5734"/>
</g>
<!-- Node20&#45;&gt;Node24 -->
<g id="edge21" class="edge">
<title>Node20&#45;&gt;Node24</title>
<path fill="none" stroke="#191970" d="M658.7977,-209.7348C527.9966,-197.1031 282.9016,-164.9221 231.5,-98 216.6507,-78.667 223.287,-48.6299 229.4216,-30.6305"/>
<polygon fill="#191970" stroke="#191970" points="658.4965,-213.2219 668.7825,-210.6826 659.158,-206.2532 658.4965,-213.2219"/>
</g>
<!-- Node20&#45;&gt;Node25 -->
<g id="edge22" class="edge">
<title>Node20&#45;&gt;Node25</title>
<path fill="none" stroke="#191970" d="M721.2255,-193.5485C693.1305,-162.5471 639.8789,-106.6184 587.5,-67 569.1334,-53.1078 546.6778,-40.1394 528.9179,-30.6913"/>
<polygon fill="#191970" stroke="#191970" points="718.8469,-196.1378 728.1362,-201.2329 724.0518,-191.457 718.8469,-196.1378"/>
</g>
<!-- Node20&#45;&gt;Node26 -->
<g id="edge23" class="edge">
<title>Node20&#45;&gt;Node26</title>
<path fill="none" stroke="#191970" d="M754.3932,-192.3005C765.277,-173.9716 782.4385,-149.3977 803.5,-134 842.6472,-105.3801 866.0601,-124.7623 906.5,-98 934.1032,-79.7328 958.2939,-49.0594 971.3149,-30.7042"/>
<polygon fill="#191970" stroke="#191970" points="751.2105,-190.8157 749.2866,-201.2344 757.2878,-194.2896 751.2105,-190.8157"/>
</g>
<!-- Node20&#45;&gt;Node27 -->
<g id="edge25" class="edge">
<title>Node20&#45;&gt;Node27</title>
<path fill="none" stroke="#191970" d="M768.2363,-194.8915C779.2818,-185.8102 792.1356,-175.0411 803.5,-165 818.5801,-151.676 818.8059,-143.5843 836.5,-134 873.0823,-114.1845 1126.8071,-57.8397 1252.8158,-30.6047"/>
<polygon fill="#191970" stroke="#191970" points="765.7216,-192.4266 760.1968,-201.4669 770.1534,-197.8451 765.7216,-192.4266"/>
</g>
<!-- Node20&#45;&gt;Node28 -->
<g id="edge26" class="edge">
<title>Node20&#45;&gt;Node28</title>
<path fill="none" stroke="#191970" d="M742.8979,-191.2805C745.1766,-173.2256 750.969,-149.4682 765.5,-134 797.8422,-99.5719 838.3383,-136.6465 865.5,-98 881.2345,-75.6126 856.8012,-47.57 837.6768,-30.6195"/>
<polygon fill="#191970" stroke="#191970" points="739.398,-191.1088 741.9045,-201.4029 746.3646,-191.7926 739.398,-191.1088"/>
</g>
<!-- Node20&#45;&gt;Node33 -->
<g id="edge24" class="edge">
<title>Node20&#45;&gt;Node33</title>
<path fill="none" stroke="#191970" d="M790.7298,-197.865C818.436,-187.3773 852.5835,-174.4515 878.6045,-164.6017"/>
<polygon fill="#191970" stroke="#191970" points="789.3356,-194.6503 781.2223,-201.4639 791.8137,-201.197 789.3356,-194.6503"/>
</g>
<!-- Node22 -->
<g id="node4" class="node">
<title>Node22</title>
<g id="a_node4"><a xlink:href="XrdProofdProofServMgr_8h.html" target="_top" xlink:title="proof/proofd/inc/XrdProofd\lProofServMgr.h">
<polygon fill="#ffffff" stroke="#000000" points="694,-67.5 694,-97.5 839,-97.5 839,-67.5 694,-67.5"/>
<text text-anchor="start" x="702" y="-85.5" font-family="Helvetica,sans-Serif" font-size="10.00" fill="#000000">proof/proofd/inc/XrdProofd</text>
<text text-anchor="middle" x="766.5" y="-74.5" font-family="Helvetica,sans-Serif" font-size="10.00" fill="#000000">ProofServMgr.h</text>
</a>
</g>
</g>
<!-- Node21&#45;&gt;Node22 -->
<g id="edge3" class="edge">
<title>Node21&#45;&gt;Node22</title>
<path fill="none" stroke="#191970" d="M619.4443,-131.2759C651.28,-120.7165 690.8842,-107.5805 720.9695,-97.6017"/>
<polygon fill="#191970" stroke="#191970" points="618.2224,-127.9936 609.8327,-134.4639 620.4262,-134.6377 618.2224,-127.9936"/>
</g>
<!-- Node21&#45;&gt;Node23 -->
<g id="edge12" class="edge">
<title>Node21&#45;&gt;Node23</title>
<path fill="none" stroke="#191970" d="M481.5035,-144.1811C413.0577,-138.026 314.137,-125.0217 231.5,-98 180.3635,-81.2787 125.729,-49.4812 95.6773,-30.6202"/>
<polygon fill="#191970" stroke="#191970" points="481.5316,-147.6967 491.7971,-145.0758 482.1378,-140.723 481.5316,-147.6967"/>
</g>
<!-- Node21&#45;&gt;Node24 -->
<g id="edge13" class="edge">
<title>Node21&#45;&gt;Node24</title>
<path fill="none" stroke="#191970" d="M481.8734,-146.6083C399.709,-141.932 281.4272,-129.735 249.5,-98 231.7778,-80.3845 231.55,-49.198 233.3086,-30.6285"/>
<polygon fill="#191970" stroke="#191970" points="481.7821,-150.1084 491.957,-147.1551 482.1612,-143.1187 481.7821,-150.1084"/>
</g>
<!-- Node21&#45;&gt;Node25 -->
<g id="edge14" class="edge">
<title>Node21&#45;&gt;Node25</title>
<path fill="none" stroke="#191970" d="M572.4169,-124.428C576.3316,-107.3328 578.5161,-84.6781 569.5,-67 561.4054,-51.1287 545.8794,-39.0076 531.4056,-30.5239"/>
<polygon fill="#191970" stroke="#191970" points="568.9898,-123.6989 569.8405,-134.2595 575.7612,-125.4734 568.9898,-123.6989"/>
</g>
<!-- Node21&#45;&gt;Node26 -->
<g id="edge15" class="edge">
<title>Node21&#45;&gt;Node26</title>
<path fill="none" stroke="#191970" d="M647.2102,-139.5522C722.3089,-129.7603 827.0211,-113.9896 865.5,-98 904.9801,-81.5944 944.0753,-49.6859 965.276,-30.7197"/>
<polygon fill="#191970" stroke="#191970" points="646.7519,-136.0823 637.2826,-140.8345 647.6486,-143.0246 646.7519,-136.0823"/>
</g>
<!-- Node21&#45;&gt;Node28 -->
<g id="edge17" class="edge">
<title>Node21&#45;&gt;Node28</title>
<path fill="none" stroke="#191970" d="M647.0107,-139.8837C725.8614,-129.846 834.6132,-113.4436 847.5,-98 863.9385,-78.3 846.0347,-48.6562 831.9671,-30.7828"/>
<polygon fill="#191970" stroke="#191970" points="646.5515,-136.4138 637.0673,-141.1362 647.4264,-143.359 646.5515,-136.4138"/>
</g>
<!-- Node29 -->
<g id="node11" class="node">
<title>Node29</title>
<g id="a_node11"><a xlink:href="XrdProofSched_8cxx.html" target="_top" xlink:title="proof/proofd/src/XrdProof\lSched.cxx">
<polygon fill="#ffffff" stroke="#000000" points="589,-.5 589,-30.5 728,-30.5 728,-.5 589,-.5"/>
<text text-anchor="start" x="597" y="-18.5" font-family="Helvetica,sans-Serif" font-size="10.00" fill="#000000">proof/proofd/src/XrdProof</text>
<text text-anchor="middle" x="658.5" y="-7.5" font-family="Helvetica,sans-Serif" font-size="10.00" fill="#000000">Sched.cxx</text>
</a>
</g>
</g>
<!-- Node21&#45;&gt;Node29 -->
<g id="edge18" class="edge">
<title>Node21&#45;&gt;Node29</title>
<path fill="none" stroke="#191970" d="M580.8832,-126.1452C600.1102,-98.7365 631.4392,-54.076 647.7942,-30.7614"/>
<polygon fill="#191970" stroke="#191970" points="577.9778,-124.1924 575.1003,-134.389 583.7084,-128.2124 577.9778,-124.1924"/>
</g>
<!-- Node31 -->
<g id="node13" class="node">
<title>Node31</title>
<g id="a_node13"><a xlink:href="XrdProofdProofServ_8cxx.html" target="_top" xlink:title="proof/proofd/src/XrdProofd\lProofServ.cxx">
<polygon fill="#ffffff" stroke="#000000" points="259,-67.5 259,-97.5 404,-97.5 404,-67.5 259,-67.5"/>
<text text-anchor="start" x="267" y="-85.5" font-family="Helvetica,sans-Serif" font-size="10.00" fill="#000000">proof/proofd/src/XrdProofd</text>
<text text-anchor="middle" x="331.5" y="-74.5" font-family="Helvetica,sans-Serif" font-size="10.00" fill="#000000">ProofServ.cxx</text>
</a>
</g>
</g>
<!-- Node21&#45;&gt;Node31 -->
<g id="edge16" class="edge">
<title>Node21&#45;&gt;Node31</title>
<path fill="none" stroke="#191970" d="M502.5437,-131.6842C465.5855,-121.0568 419.1689,-107.7095 384.0178,-97.6017"/>
<polygon fill="#191970" stroke="#191970" points="501.6324,-135.064 512.2103,-134.4639 503.567,-128.3366 501.6324,-135.064"/>
</g>
<!-- Node32 -->
<g id="node14" class="node">
<title>Node32</title>
<g id="a_node14"><a xlink:href="XrdProofWorker_8cxx.html" target="_top" xlink:title="proof/proofd/src/XrdProof\lWorker.cxx">
<polygon fill="#ffffff" stroke="#000000" points="422,-67.5 422,-97.5 561,-97.5 561,-67.5 422,-67.5"/>
<text text-anchor="start" x="430" y="-85.5" font-family="Helvetica,sans-Serif" font-size="10.00" fill="#000000">proof/proofd/src/XrdProof</text>
<text text-anchor="middle" x="491.5" y="-74.5" font-family="Helvetica,sans-Serif" font-size="10.00" fill="#000000">Worker.cxx</text>
</a>
</g>
</g>
<!-- Node21&#45;&gt;Node32 -->
<g id="edge19" class="edge">
<title>Node21&#45;&gt;Node32</title>
<path fill="none" stroke="#191970" d="M540.526,-127.4965C529.8733,-117.7193 517.6007,-106.4554 507.9993,-97.6432"/>
<polygon fill="#191970" stroke="#191970" points="538.2011,-130.1134 547.9352,-134.2967 542.9344,-124.9562 538.2011,-130.1134"/>
</g>
<!-- Node22&#45;&gt;Node23 -->
<g id="edge4" class="edge">
<title>Node22&#45;&gt;Node23</title>
<path fill="none" stroke="#191970" d="M683.8836,-76.0468C528.7181,-63.8549 204.684,-38.0274 153.5,-31 150.8049,-30.63 148.0637,-30.2295 145.2981,-29.8051"/>
<polygon fill="#191970" stroke="#191970" points="683.6118,-79.5361 693.8552,-76.8298 684.1599,-72.5576 683.6118,-79.5361"/>
</g>
<!-- Node22&#45;&gt;Node24 -->
<g id="edge5" class="edge">
<title>Node22&#45;&gt;Node24</title>
<path fill="none" stroke="#191970" d="M683.7285,-72.0561C580.681,-59.0539 406.3109,-37.0524 308.1917,-24.672"/>
<polygon fill="#191970" stroke="#191970" points="683.4206,-75.545 693.7801,-73.3244 684.2969,-68.6 683.4206,-75.545"/>
</g>
<!-- Node22&#45;&gt;Node25 -->
<g id="edge6" class="edge">
<title>Node22&#45;&gt;Node25</title>
<path fill="none" stroke="#191970" d="M696.5899,-65.0225C653.8645,-54.3411 599.7682,-40.8171 558.9068,-30.6017"/>
<polygon fill="#191970" stroke="#191970" points="695.8052,-68.434 706.3556,-67.4639 697.503,-61.643 695.8052,-68.434"/>
</g>
<!-- Node22&#45;&gt;Node26 -->
<g id="edge7" class="edge">
<title>Node22&#45;&gt;Node26</title>
<path fill="none" stroke="#191970" d="M824.5426,-64.4123C858.5013,-53.8298 900.8798,-40.6235 933.0394,-30.6017"/>
<polygon fill="#191970" stroke="#191970" points="823.256,-61.1471 814.7502,-67.4639 825.3387,-67.8302 823.256,-61.1471"/>
</g>
<!-- Node22&#45;&gt;Node27 -->
<g id="edge8" class="edge">
<title>Node22&#45;&gt;Node27</title>
<path fill="none" stroke="#191970" d="M849.2706,-75.5192C944.2472,-67.0473 1104.5455,-51.3359 1241.5,-31 1244.5095,-30.5531 1247.5771,-30.0753 1250.6729,-29.5745"/>
<polygon fill="#191970" stroke="#191970" points="848.8048,-72.0467 839.153,-76.4163 849.4231,-79.0193 848.8048,-72.0467"/>
</g>
<!-- Node22&#45;&gt;Node28 -->
<g id="edge9" class="edge">
<title>Node22&#45;&gt;Node28</title>
<path fill="none" stroke="#191970" d="M784.4665,-59.3509C791.8417,-49.8482 800.1734,-39.1132 806.7471,-30.6432"/>
<polygon fill="#191970" stroke="#191970" points="781.6659,-57.2508 778.2996,-67.2967 787.1958,-61.5427 781.6659,-57.2508"/>
</g>
<!-- Node22&#45;&gt;Node29 -->
<g id="edge10" class="edge">
<title>Node22&#45;&gt;Node29</title>
<path fill="none" stroke="#191970" d="M733.5779,-62.0761C717.2995,-51.9774 697.9899,-39.9983 683.0301,-30.7177"/>
<polygon fill="#191970" stroke="#191970" points="731.92,-65.1663 742.2627,-67.4639 735.6102,-59.218 731.92,-65.1663"/>
</g>
<!-- Node22&#45;&gt;Node30 -->
<g id="edge11" class="edge">
<title>Node22&#45;&gt;Node30</title>
<path fill="none" stroke="#191970" d="M849.2331,-68.1708C908.8155,-57.8471 991.1217,-43.5778 1063.5,-31 1074.6257,-29.0666 1086.5332,-26.9946 1097.9028,-25.015"/>
<polygon fill="#191970" stroke="#191970" points="848.3825,-64.7659 839.1269,-69.9218 849.5776,-71.6632 848.3825,-64.7659"/>
</g>
</g>
</svg>
