<?xml version="1.0" encoding="UTF-8" standalone="no"?>
<!DOCTYPE svg PUBLIC "-//W3C//DTD SVG 1.1//EN"
 "http://www.w3.org/Graphics/SVG/1.1/DTD/svg11.dtd">
<!-- Generated by graphviz version 2.40.1 (0)
 -->
<!-- Title: math/mathmore/src/zsolve_cubic.cxx Pages: 1 -->
<svg width="388pt" height="95pt"
 viewBox="0.00 0.00 387.50 95.00" xmlns="http://www.w3.org/2000/svg" xmlns:xlink="http://www.w3.org/1999/xlink">
<g id="graph0" class="graph" transform="scale(1 1) rotate(0) translate(4 91)">
<title>math/mathmore/src/zsolve_cubic.cxx</title>
<polygon fill="#ffffff" stroke="transparent" points="-4,4 -4,-91 383.5,-91 383.5,4 -4,4"/>
<!-- Node0 -->
<g id="node1" class="node">
<title>Node0</title>
<polygon fill="#bfbfbf" stroke="#000000" points="96.5,-56.5 96.5,-86.5 244.5,-86.5 244.5,-56.5 96.5,-56.5"/>
<text text-anchor="start" x="104.5" y="-74.5" font-family="Helvetica,sans-Serif" font-size="10.00" fill="#000000">math/mathmore/src/zsolve</text>
<text text-anchor="middle" x="170.5" y="-63.5" font-family="Helvetica,sans-Serif" font-size="10.00" fill="#000000">_cubic.cxx</text>
</g>
<!-- Node1 -->
<g id="node2" class="node">
<title>Node1</title>
<polygon fill="#ffffff" stroke="#bfbfbf" points="0,-.5 0,-19.5 51,-19.5 51,-.5 0,-.5"/>
<text text-anchor="middle" x="25.5" y="-7.5" font-family="Helvetica,sans-Serif" font-size="10.00" fill="#000000">math.h</text>
</g>
<!-- Node0&#45;&gt;Node1 -->
<g id="edge1" class="edge">
<title>Node0&#45;&gt;Node1</title>
<path fill="none" stroke="#191970" d="M135.029,-56.4554C111.2598,-46.374 80.232,-33.2139 57.2715,-23.4755"/>
<polygon fill="#191970" stroke="#191970" points="58.5427,-20.2129 47.9699,-19.5303 55.8094,-26.6572 58.5427,-20.2129"/>
</g>
<!-- Node2 -->
<g id="node3" class="node">
<title>Node2</title>
<polygon fill="#ffffff" stroke="#bfbfbf" points="69.5,-.5 69.5,-19.5 157.5,-19.5 157.5,-.5 69.5,-.5"/>
<text text-anchor="middle" x="113.5" y="-7.5" font-family="Helvetica,sans-Serif" font-size="10.00" fill="#000000">gsl/gsl_math.h</text>
</g>
<!-- Node0&#45;&gt;Node2 -->
<g id="edge2" class="edge">
<title>Node0&#45;&gt;Node2</title>
<path fill="none" stroke="#191970" d="M156.4101,-56.2977C148.2507,-47.4941 137.9528,-36.3833 129.4905,-27.2529"/>
<polygon fill="#191970" stroke="#191970" points="131.9911,-24.8021 122.6264,-19.8469 126.8571,-29.5604 131.9911,-24.8021"/>
</g>
<!-- Node3 -->
<g id="node4" class="node">
<title>Node3</title>
<polygon fill="#ffffff" stroke="#bfbfbf" points="175.5,-.5 175.5,-19.5 279.5,-19.5 279.5,-.5 175.5,-.5"/>
<text text-anchor="middle" x="227.5" y="-7.5" font-family="Helvetica,sans-Serif" font-size="10.00" fill="#000000">gsl/gsl_complex.h</text>
</g>
<!-- Node0&#45;&gt;Node3 -->
<g id="edge3" class="edge">
<title>Node0&#45;&gt;Node3</title>
<path fill="none" stroke="#191970" d="M184.5899,-56.2977C192.7493,-47.4941 203.0472,-36.3833 211.5095,-27.2529"/>
<polygon fill="#191970" stroke="#191970" points="214.1429,-29.5604 218.3736,-19.8469 209.0089,-24.8021 214.1429,-29.5604"/>
</g>
<!-- Node4 -->
<g id="node5" class="node">
<title>Node4</title>
<polygon fill="#ffffff" stroke="#bfbfbf" points="297.5,-.5 297.5,-19.5 379.5,-19.5 379.5,-.5 297.5,-.5"/>
<text text-anchor="middle" x="338.5" y="-7.5" font-family="Helvetica,sans-Serif" font-size="10.00" fill="#000000">gsl/gsl_poly.h</text>
</g>
<!-- Node0&#45;&gt;Node4 -->
<g id="edge4" class="edge">
<title>Node0&#45;&gt;Node4</title>
<path fill="none" stroke="#191970" d="M211.5974,-56.4554C239.5057,-46.239 276.0508,-32.8609 302.7527,-23.0861"/>
<polygon fill="#191970" stroke="#191970" points="304.2786,-26.2547 312.466,-19.5303 301.8722,-19.6813 304.2786,-26.2547"/>
</g>
</g>
</svg>
